  0
SECTION
  2
HEADER
  9
$ACADVER
  1
AC1009
  9
$INSBASE
 10
0.0
 20
0.0
 30
0.0
  9
$EXTMIN
 10
-60.014647319929963
 20
-20.009977780976101
 30
-0.0015258207003583
  9
$EXTMAX
 10
407.60009875940148
 20
304.91630478079992
 30
0.0000000349246037
  9
$LIMMIN
 10
0.0
 20
0.0
  9
$LIMMAX
 10
420.0
 20
297.0
  9
$ORTHOMODE
 70
     0
  9
$REGENMODE
 70
     1
  9
$FILLMODE
 70
     1
  9
$QTEXTMODE
 70
     0
  9
$MIRRTEXT
 70
     1
  9
$DRAGMODE
 70
     2
  9
$LTSCALE
 40
1.0
  9
$OSMODE
 70
   695
  9
$ATTMODE
 70
     1
  9
$TEXTSIZE
 40
2.5
  9
$TRACEWID
 40
1.0
  9
$TEXTSTYLE
  7
STANDARD
  9
$CLAYER
  8
0
  9
$CELTYPE
  6
BYLAYER
  9
$CECOLOR
 62
   256
  9
$DIMSCALE
 40
1.0
  9
$DIMASZ
 40
2.5
  9
$DIMEXO
 40
0.625
  9
$DIMDLI
 40
3.75
  9
$DIMRND
 40
0.0
  9
$DIMDLE
 40
0.0
  9
$DIMEXE
 40
1.25
  9
$DIMTP
 40
0.0
  9
$DIMTM
 40
0.0
  9
$DIMTXT
 40
2.5
  9
$DIMCEN
 40
2.5
  9
$DIMTSZ
 40
0.0
  9
$DIMTOL
 70
     0
  9
$DIMLIM
 70
     0
  9
$DIMTIH
 70
     0
  9
$DIMTOH
 70
     0
  9
$DIMSE1
 70
     0
  9
$DIMSE2
 70
     0
  9
$DIMTAD
 70
     1
  9
$DIMZIN
 70
     8
  9
$DIMBLK
  1

  9
$DIMASO
 70
     1
  9
$DIMSHO
 70
     1
  9
$DIMPOST
  1

  9
$DIMAPOST
  1

  9
$DIMALT
 70
     0
  9
$DIMALTD
 70
     4
  9
$DIMALTF
 40
0.0394
  9
$DIMLFAC
 40
1.0
  9
$DIMTOFL
 70
     1
  9
$DIMTVP
 40
0.0
  9
$DIMTIX
 70
     0
  9
$DIMSOXD
 70
     0
  9
$DIMSAH
 70
     0
  9
$DIMBLK1
  1

  9
$DIMBLK2
  1

  9
$DIMSTYLE
  2
STANDARD
  9
$DIMCLRD
 70
     0
  9
$DIMCLRE
 70
     0
  9
$DIMCLRT
 70
     0
  9
$DIMTFAC
 40
1.0
  9
$DIMGAP
 40
0.625
  9
$LUNITS
 70
     2
  9
$LUPREC
 70
     4
  9
$SKETCHINC
 40
1.0
  9
$FILLETRAD
 40
3.0
  9
$AUNITS
 70
     0
  9
$AUPREC
 70
     0
  9
$MENU
  1
acad
  9
$ELEVATION
 40
0.0
  9
$PELEVATION
 40
0.0
  9
$THICKNESS
 40
0.0
  9
$LIMCHECK
 70
     0
  9
$BLIPMODE
 70
     0
  9
$CHAMFERA
 40
10.0
  9
$CHAMFERB
 40
10.0
  9
$SKPOLY
 70
     0
  9
$TDCREATE
 40
2451909.4799079979
  9
$TDUPDATE
 40
2454735.741429606
  9
$TDINDWG
 40
0.3086748727
  9
$TDUSRTIMER
 40
0.3086746875
  9
$USRTIMER
 70
     1
  9
$ANGBASE
 50
0.0
  9
$ANGDIR
 70
     0
  9
$PDMODE
 70
    34
  9
$PDSIZE
 40
2.0
  9
$PLINEWID
 40
0.0
  9
$COORDS
 70
     1
  9
$SPLFRAME
 70
     0
  9
$SPLINETYPE
 70
     6
  9
$SPLINESEGS
 70
     8
  9
$ATTDIA
 70
     0
  9
$ATTREQ
 70
     1
  9
$HANDLING
 70
     1
  9
$HANDSEED
  5
33B
  9
$SURFTAB1
 70
     6
  9
$SURFTAB2
 70
     6
  9
$SURFTYPE
 70
     6
  9
$SURFU
 70
     6
  9
$SURFV
 70
     6
  9
$UCSNAME
  2

  9
$UCSORG
 10
0.0
 20
0.0
 30
0.0
  9
$UCSXDIR
 10
1.0
 20
0.0
 30
0.0
  9
$UCSYDIR
 10
0.0
 20
1.0
 30
0.0
  9
$PUCSNAME
  2

  9
$PUCSORG
 10
0.0
 20
0.0
 30
0.0
  9
$PUCSXDIR
 10
1.0
 20
0.0
 30
0.0
  9
$PUCSYDIR
 10
0.0
 20
1.0
 30
0.0
  9
$USERI1
 70
     0
  9
$USERI2
 70
     0
  9
$USERI3
 70
     0
  9
$USERI4
 70
     0
  9
$USERI5
 70
     0
  9
$USERR1
 40
0.0
  9
$USERR2
 40
0.0
  9
$USERR3
 40
0.0
  9
$USERR4
 40
0.0
  9
$USERR5
 40
0.0
  9
$WORLDVIEW
 70
     1
  9
$SHADEDGE
 70
     3
  9
$SHADEDIF
 70
    70
  9
$TILEMODE
 70
     1
  9
$MAXACTVP
 70
    48
  9
$PLIMCHECK
 70
     0
  9
$PEXTMIN
 10
1.0000000000000000E+020
 20
1.0000000000000000E+020
 30
1.0000000000000000E+020
  9
$PEXTMAX
 10
-1.0000000000000000E+020
 20
-1.0000000000000000E+020
 30
-1.0000000000000000E+020
  9
$PLIMMIN
 10
0.0
 20
0.0
  9
$PLIMMAX
 10
420.0
 20
297.0
  9
$UNITMODE
 70
     0
  9
$VISRETAIN
 70
     1
  9
$PLINEGEN
 70
     0
  9
$PSLTSCALE
 70
     1
  0
ENDSEC
  0
SECTION
  2
TABLES
  0
TABLE
  2
VPORT
 70
     1
  0
VPORT
  2
*ACTIVE
 70
     0
 10
0.0
 20
0.0
 11
1.0
 21
1.0
 12
173.79272571973581
 22
142.45316349991191
 13
0.0
 23
0.0
 14
10.0
 24
10.0
 15
10.0
 25
10.0
 16
0.0
 26
0.0
 36
1.0
 17
0.0
 27
0.0
 37
0.0
 40
327.38784530845612
 41
1.461441213653603
 42
50.0
 43
0.0
 44
0.0
 50
0.0
 51
0.0
 71
     0
 72
   100
 73
     1
 74
     0
 75
     0
 76
     0
 77
     0
 78
     0
  0
ENDTAB
  0
TABLE
  2
LTYPE
 70
     4
  0
LTYPE
  2
CONTINUOUS
 70
     0
  3
Solid line
 72
    65
 73
     0
 40
0.0
  0
LTYPE
  2
CENTER2
 70
     0
  3
Center (.5x) ___ _ ___ _ ___ _ ___ _ ___ _ ___
 72
    65
 73
     4
 40
28.574999999999989
 49
19.050000000000001
 49
-3.174999999999998
 49
3.174999999999998
 49
-3.174999999999998
  0
LTYPE
  2
CENTER
 70
     0
  3
Center ____ _ ____ _ ____ _ ____ _ ____ _ ____
 72
    65
 73
     4
 40
2.0
 49
1.25
 49
-0.25
 49
0.25
 49
-0.25
  0
ENDTAB
  0
TABLE
  2
LAYER
 70
     2
  0
LAYER
  2
0
 70
     0
 62
     7
  6
CONTINUOUS
  0
LAYER
  2
CENTER
 70
     0
 62
     1
  6
CENTER2
  0
ENDTAB
  0
TABLE
  2
STYLE
 70
     2
  0
STYLE
  2
STANDARD
 70
     0
 40
0.0
 41
1.0
 50
0.0
 71
     0
 42
2.5
  3
txt
  4

  0
ENDTAB
  0
TABLE
  2
VIEW
 70
     0
  0
ENDTAB
  0
TABLE
  2
UCS
 70
     0
  0
ENDTAB
  0
TABLE
  2
APPID
 70
     1
  0
APPID
  2
ACAD
 70
     0
  0
ENDTAB
  0
TABLE
  2
DIMSTYLE
 70
     1
  0
DIMSTYLE
  2
STANDARD
 70
     0
  3

  4

  5

  6

  7

 40
1.0
 41
0.18
 42
0.0625
 43
0.38
 44
0.18
 45
0.0
 46
0.0
 47
0.0
 48
0.0
140
0.18
141
0.09
142
0.0
143
25.399999999999999
144
1.0
145
0.0
146
1.0
147
0.09
 71
     0
 72
     0
 73
     1
 74
     1
 75
     0
 76
     0
 77
     0
 78
     0
170
     0
171
     2
172
     0
173
     0
174
     0
175
     0
176
     0
177
     0
178
     0
  0
ENDTAB
  0
ENDSEC
  0
SECTION
  2
BLOCKS
  0
BLOCK
  8
0
  2
$MODEL_SPACE
 70
     0
 10
0.0
 20
0.0
 30
0.0
  3
$MODEL_SPACE
  1

  0
ENDBLK
  5
315
  8
0
  0
BLOCK
 67
     1
  8
0
  2
$PAPER_SPACE
 70
     0
 10
0.0
 20
0.0
 30
0.0
  3
$PAPER_SPACE
  1

  0
ENDBLK
  5
311
 67
     1
  8
0
  0
ENDSEC
  0
SECTION
  2
ENTITIES
  0
ARC
  5
14D
  8
0
  6
CONTINUOUS
 62
     7
 10
177.56895499999999
 20
56.905802999999999
 30
0.0
 40
61.0
 50
100.811807
 51
44.941031000000002
  0
ARC
  5
14E
  8
0
  6
CONTINUOUS
 62
     7
 10
177.56895499999999
 20
56.905802999999999
 30
0.0
 40
75.0
 50
97.142869000000005
 51
48.614471999999999
  0
LINE
  5
14F
  8
0
  6
CONTINUOUS
 62
     7
 10
179.56895499999999
 20
152.40580299999991
 30
0.0
 11
196.56895499999999
 21
152.40580299999991
 31
0.0
  0
LINE
  5
174
  8
CENTER
  6
CENTER
 62
     1
 10
187.56895499999999
 20
212.40580299999999
 30
0.0
 11
167.56895499999999
 21
212.40580299999999
 31
0.0
  0
CIRCLE
  5
175
  8
0
  6
CONTINUOUS
 62
     7
 10
177.56895499999999
 20
212.40580299999999
 30
0.0
 40
5.5
  0
CIRCLE
  5
180
  8
0
  6
CONTINUOUS
 62
     7
 10
177.56893299999999
 20
56.905833999999999
 30
0.0
 40
5.9175000000000004
  0
CIRCLE
  5
181
  8
0
  6
CONTINUOUS
 62
     3
 10
177.56893299999999
 20
56.905833999999999
 30
0.0
 40
7.0
  0
CIRCLE
  5
182
  8
0
  6
CONTINUOUS
 62
     7
 10
177.56895499999999
 20
56.905802999999999
 30
0.0
 40
11.0
  0
LINE
  5
18B
  8
CENTER
  6
CENTER
 62
     1
 10
102.568955
 20
56.905802999999999
 30
0.0
 11
252.56895499999999
 21
56.905802999999999
 31
0.0
  0
LINE
  5
18C
  8
CENTER
  6
CENTER
 62
     1
 10
187.56895499999999
 20
292.40580299999988
 30
0.0
 11
167.56895499999999
 21
292.40580299999988
 31
0.0
  0
CIRCLE
  5
18D
  8
0
  6
CONTINUOUS
 62
     7
 10
177.56895499999999
 20
292.40580299999988
 30
0.0
 40
5.5
  0
LINE
  5
18E
  8
CENTER
  6
CENTER
 62
     1
 10
162.56895499999999
 20
252.40580299999991
 30
0.0
 11
282.5689549999999
 21
252.40580299999991
 31
0.0
  0
LINE
  5
1A3
  8
CENTER
  6
CENTER
 62
     1
 10
40.068954999999981
 20
179.90580299999991
 30
0.0
 11
40.068954999999981
 21
-18.094197000000001
 31
0.0
  0
LINE
  5
1AE
  8
0
  6
CONTINUOUS
 62
     7
 10
71.068955000000003
 20
140.40580299999991
 30
0.0
 11
9.0689550000000008
 21
140.40580299999991
 31
0.0
  0
LINE
  5
1AF
  8
CENTER
  6
CENTER
 62
     1
 10
82.068954999999988
 20
56.905802999999999
 30
0.0
 11
4.0689549999999981
 21
56.905802999999999
 31
0.0
  0
LINE
  5
1B6
  8
0
  6
CONTINUOUS
 62
     7
 10
24.068954999999999
 20
131.90580299999991
 30
0.0
 11
24.068954999999999
 21
-18.094197000000001
 31
0.0
  0
TEXT
  5
1B7
  8
0
  6
CONTINUOUS
 62
     7
 10
-60.0
 20
-10.0
 30
0.0
 40
2.5
  1
PHCH150
  0
TEXT
  5
1B8
  8
0
  6
CONTINUOUS
 62
     7
 10
-60.0
 20
-20.0
 30
0.0
 40
2.5
  1
PHCH150
  0
LINE
  5
1B9
  8
0
  6
CONTINUOUS
 62
     7
 10
6.0689549999999981
 20
43.405802999999999
 30
0.0
 11
6.0689549999999981
 21
70.40580300000002
 31
0.0
  0
LINE
  5
1C6
  8
0
  6
CONTINUOUS
 62
     7
 10
56.068955000000003
 20
131.90580299999991
 30
0.0
 11
56.068955000000003
 21
-18.094197000000001
 31
0.0
  0
LINE
  5
1C7
  8
CENTER
  6
CENTER
 62
     1
 10
177.56895499999999
 20
-18.094197000000001
 30
0.0
 11
177.56895499999999
 21
131.90580299999991
 31
0.0
  0
LINE
  5
1CE
  8
0
  6
CONTINUOUS
 62
     7
 10
82.068954999999988
 20
50.554949999999998
 30
0.0
 11
74.068955000000003
 21
50.554949999999998
 31
0.0
  0
LINE
  5
1CF
  8
0
  6
CONTINUOUS
 62
     7
 10
74.068955000000003
 20
44.905802999999999
 30
0.0
 11
71.068955000000003
 21
44.905802999999999
 31
0.0
  0
LINE
  5
1D0
  8
0
  6
CONTINUOUS
 62
     7
 10
82.068954999999988
 20
63.256656
 30
0.0
 11
74.068955000000003
 21
63.256656
 31
0.0
  0
LINE
  5
1D1
  8
0
  6
CONTINUOUS
 62
     7
 10
74.068955000000003
 20
68.905803000000006
 30
0.0
 11
72.587941999999998
 21
68.905803000000006
 31
0.0
  0
LINE
  5
1E6
  8
CENTER
  6
CENTER
 62
     1
 10
169.0689669999999
 20
242.405834
 30
0.0
 11
169.0689669999999
 21
262.40583399999991
 31
0.0
  0
LINE
  5
1E7
  8
CENTER
  6
CENTER
 62
     1
 10
177.56895499999999
 20
222.40580299999999
 30
0.0
 11
177.56895499999999
 21
202.40580299999991
 31
0.0
  0
LINE
  5
1E8
  8
CENTER
  6
CENTER
 62
     1
 10
177.56895499999999
 20
282.40580299999988
 30
0.0
 11
177.56895499999999
 21
302.40580299999988
 31
0.0
  0
CIRCLE
  5
1E9
  8
0
  6
CONTINUOUS
 62
     3
 10
169.0689669999999
 20
252.40583399999991
 30
0.0
 40
4.0
  0
CIRCLE
  5
1EA
  8
0
  6
CONTINUOUS
 62
     7
 10
169.0689669999999
 20
252.40583399999991
 30
0.0
 40
3.3235000000000001
  0
LINE
  5
1EB
  8
CENTER
  6
CENTER
 62
     1
 10
222.5689549999999
 20
179.90580299999991
 30
0.0
 11
222.5689549999999
 21
103.74413299999991
 31
0.0
  0
LINE
  5
1FE
  8
0
  6
CONTINUOUS
 62
     7
 10
196.56895499999999
 20
152.40580299999991
 30
0.0
 11
196.56895499999999
 21
50.227452
 31
0.0
  0
LINE
  5
1FF
  8
0
  6
CONTINUOUS
 62
     7
 10
327.0689549999999
 20
56.905802999999999
 30
0.0
 11
327.0689549999999
 21
146.90580299999999
 31
0.0
  0
LINE
  5
200
  8
0
  6
CONTINUOUS
 62
     7
 10
383.116266
 20
57.279561000000001
 30
0.0
 11
383.06895499999979
 21
146.90580299999999
 31
0.0
  0
LINE
  5
201
  8
CENTER
  6
CENTER
 62
     1
 10
355.0689549999999
 20
179.90580299999991
 30
0.0
 11
355.0689549999999
 21
-18.094197000000001
 31
0.0
  0
LINE
  5
208
  8
CENTER
  6
CENTER
 62
     1
 10
313.0689549999999
 20
56.905802999999999
 30
0.0
 11
391.06895499999979
 21
56.905802999999999
 31
0.0
  0
LINE
  5
20F
  8
0
  6
CONTINUOUS
 62
     7
 10
313.0689549999999
 20
50.554949999999998
 30
0.0
 11
321.0689549999999
 21
50.554949999999998
 31
0.0
  0
LINE
  5
210
  8
0
  6
CONTINUOUS
 62
     7
 10
321.0689549999999
 20
44.905802999999999
 30
0.0
 11
324.0689549999999
 21
44.905802999999999
 31
0.0
  0
LINE
  5
211
  8
0
  6
CONTINUOUS
 62
     7
 10
313.0689549999999
 20
63.256656
 30
0.0
 11
321.0689549999999
 21
63.256656
 31
0.0
  0
LINE
  5
212
  8
0
  6
CONTINUOUS
 62
     7
 10
321.0689549999999
 20
68.905803000000006
 30
0.0
 11
322.54996799999998
 21
68.905803000000006
 31
0.0
  0
LINE
  5
219
  8
0
  6
CONTINUOUS
 62
     7
 10
339.0689549999999
 20
131.90580299999991
 30
0.0
 11
339.0689549999999
 21
-18.094197000000001
 31
0.0
  0
LINE
  5
21A
  8
0
  6
CONTINUOUS
 62
     7
 10
371.06895499999979
 20
131.90580299999991
 30
0.0
 11
371.06895499999979
 21
-18.094197000000001
 31
0.0
  0
LINE
  5
225
  8
0
  6
CONTINUOUS
 62
     7
 10
389.0689549999999
 20
43.405802999999999
 30
0.0
 11
389.0689549999999
 21
70.40580300000002
 31
0.0
  0
CIRCLE
  5
240
  8
0
  6
CONTINUOUS
 62
     7
 10
222.5689549999999
 20
252.40580299999991
 30
0.0
 40
19.0
  0
CIRCLE
  5
241
  8
0
  6
CONTINUOUS
 62
     7
 10
222.5689549999999
 20
252.40580299999991
 30
0.0
 40
11.0
  0
CIRCLE
  5
242
  8
0
  6
CONTINUOUS
 62
     7
 10
222.5689549999999
 20
252.40580299999991
 30
0.0
 40
26.0
  0
CIRCLE
  5
243
  8
0
  6
CONTINUOUS
 62
     7
 10
222.5689549999999
 20
252.40580299999991
 30
0.0
 40
41.0
  0
LINE
  5
244
  8
CENTER
  6
CENTER
 62
     1
 10
276.06894299999988
 20
242.405834
 30
0.0
 11
276.06894299999988
 21
262.40583399999991
 31
0.0
  0
LINE
  5
245
  8
CENTER
  6
CENTER
 62
     1
 10
222.5689549999999
 20
304.90580299999988
 30
0.0
 11
222.5689549999999
 21
199.90580299999999
 31
0.0
  0
LINE
  5
246
  8
CENTER
  6
CENTER
 62
     1
 10
267.5689549999999
 20
222.40580299999999
 30
0.0
 11
267.5689549999999
 21
202.40580299999991
 31
0.0
  0
LINE
  5
247
  8
CENTER
  6
CENTER
 62
     1
 10
277.5689549999999
 20
212.40580299999999
 30
0.0
 11
257.5689549999999
 21
212.40580299999999
 31
0.0
  0
CIRCLE
  5
248
  8
0
  6
CONTINUOUS
 62
     7
 10
267.5689549999999
 20
212.40580299999999
 30
0.0
 40
5.5
  0
LINE
  5
249
  8
CENTER
  6
CENTER
 62
     1
 10
267.5689549999999
 20
282.40580299999988
 30
0.0
 11
267.5689549999999
 21
302.40580299999988
 31
0.0
  0
CIRCLE
  5
24A
  8
0
  6
CONTINUOUS
 62
     7
 10
267.5689549999999
 20
292.40580299999988
 30
0.0
 40
5.5
  0
CIRCLE
  5
24B
  8
0
  6
CONTINUOUS
 62
     7
 10
276.06894299999988
 20
252.40583399999991
 30
0.0
 40
3.3235000000000001
  0
CIRCLE
  5
24C
  8
0
  6
CONTINUOUS
 62
     3
 10
276.06894299999988
 20
252.40583399999991
 30
0.0
 40
4.0
  0
LINE
  5
24D
  8
CENTER
  6
CENTER
 62
     1
 10
277.5689549999999
 20
292.40580299999988
 30
0.0
 11
257.5689549999999
 21
292.40580299999988
 31
0.0
  0
LINE
  5
24E
  8
0
  6
CONTINUOUS
 62
     7
 10
166.56895499999999
 20
50.554949999999998
 30
0.0
 11
177.56895499999999
 21
44.20409699999999
 31
0.0
  0
LINE
  5
24F
  8
0
  6
CONTINUOUS
 62
     7
 10
177.56895499999999
 20
44.20409699999999
 30
0.0
 11
188.56895499999999
 21
50.554949999999998
 31
0.0
  0
LINE
  5
250
  8
0
  6
CONTINUOUS
 62
     7
 10
188.56895499999999
 20
50.554949999999998
 30
0.0
 11
188.56895499999999
 21
63.256656
 31
0.0
  0
LINE
  5
251
  8
0
  6
CONTINUOUS
 62
     7
 10
188.56895499999999
 20
63.256656
 30
0.0
 11
177.56895499999999
 21
69.607507999999996
 31
0.0
  0
LINE
  5
252
  8
0
  6
CONTINUOUS
 62
     7
 10
177.56895499999999
 20
69.607507999999996
 30
0.0
 11
166.56895499999999
 21
63.256656
 31
0.0
  0
LINE
  5
253
  8
0
  6
CONTINUOUS
 62
     7
 10
166.56895499999999
 20
63.256656
 30
0.0
 11
166.56895499999999
 21
50.554949999999998
 31
0.0
  0
LINE
  5
254
  8
0
  6
CONTINUOUS
 62
     7
 10
172.56895499999999
 20
199.90580299999999
 30
0.0
 11
272.5689549999999
 21
199.90580299999999
 31
0.0
  0
ARC
  5
255
  8
0
  6
CONTINUOUS
 62
     7
 10
272.56896247075173
 20
209.90579552924811
 30
0.0
 40
9.9999925292509637
 50
269.99995719571308
 51
0.0000428042869152
  0
LINE
  5
256
  8
0
  6
CONTINUOUS
 62
     7
 10
282.5689549999999
 20
209.90580299999999
 30
0.0
 11
282.5689549999999
 21
294.90580299999988
 31
0.0
  0
ARC
  5
257
  8
0
  6
CONTINUOUS
 62
     7
 10
272.56896247075173
 20
294.90581047075182
 30
0.0
 40
9.9999925292509637
 50
359.99995719571302
 51
90.000042804286906
  0
LINE
  5
258
  8
0
  6
CONTINUOUS
 62
     7
 10
272.5689549999999
 20
304.90580299999988
 30
0.0
 11
172.56895499999999
 21
304.90580299999988
 31
0.0
  0
ARC
  5
259
  8
0
  6
CONTINUOUS
 62
     7
 10
172.56894752924811
 20
294.90581047075182
 30
0.0
 40
9.9999925292509637
 50
89.999957195713066
 51
180.00004280428689
  0
LINE
  5
25A
  8
0
  6
CONTINUOUS
 62
     7
 10
162.56895499999999
 20
294.90580299999988
 30
0.0
 11
162.56895499999999
 21
209.90580299999999
 31
0.0
  0
ARC
  5
25B
  8
0
  6
CONTINUOUS
 62
     7
 10
172.56894752924811
 20
209.90579552924811
 30
0.0
 40
9.9999925292509637
 50
179.99995719571299
 51
270.00004280428692
  0
LINE
  5
25C
  8
0
  6
CONTINUOUS
 62
     7
 10
183.56895499999999
 20
157.90580299999991
 30
0.0
 11
261.5689549999999
 21
157.90580299999991
 31
0.0
  0
ARC
  5
25D
  8
0
  6
CONTINUOUS
 62
     7
 10
261.56895724122558
 20
160.9058007587744
 30
0.0
 40
2.9999977587752782
 50
269.9999571957128
 51
0.0000428042871323
  0
LINE
  5
25E
  8
0
  6
CONTINUOUS
 62
     7
 10
264.5689549999999
 20
160.90580299999991
 30
0.0
 11
264.5689549999999
 21
167.90580299999999
 31
0.0
  0
LINE
  5
25F
  8
0
  6
CONTINUOUS
 62
     7
 10
264.5689549999999
 20
167.90580299999999
 30
0.0
 11
180.56895499999999
 21
167.90580299999999
 31
0.0
  0
LINE
  5
260
  8
0
  6
CONTINUOUS
 62
     7
 10
180.56895499999999
 20
167.90580299999999
 30
0.0
 11
180.56895499999999
 21
160.90580299999991
 31
0.0
  0
ARC
  5
261
  8
0
  6
CONTINUOUS
 62
     7
 10
183.5689527587744
 20
160.9058007587744
 30
0.0
 40
2.9999977587752782
 50
179.9999571957128
 51
270.00004280428709
  0
ARC
  5
262
  8
0
  6
CONTINUOUS
 62
     7
 10
181.0689512646241
 20
175.40580001169911
 30
0.0
 40
4.5276891865432178
 50
173.6597654498031
 51
263.659851058377
  0
LINE
  5
263
  8
0
  6
CONTINUOUS
 62
     7
 10
180.56895499999999
 20
170.90580299999999
 30
0.0
 11
264.5689549999999
 21
170.90580299999999
 31
0.0
  0
ARC
  5
264
  8
0
  6
CONTINUOUS
 62
     7
 10
264.06895873537587
 20
175.40580001169911
 30
0.0
 40
4.5276891865432116
 50
276.340148941623
 51
6.340234550196894
  0
LINE
  5
265
  8
0
  6
CONTINUOUS
 62
     7
 10
162.56895499999999
 20
175.90580299999999
 30
0.0
 11
282.5689549999999
 21
175.90580299999999
 31
0.0
  0
LINE
  5
266
  8
0
  6
CONTINUOUS
 62
     7
 10
282.5689549999999
 20
175.90580299999999
 30
0.0
 11
282.5689549999999
 21
179.90580299999991
 31
0.0
  0
LINE
  5
267
  8
0
  6
CONTINUOUS
 62
     7
 10
282.5689549999999
 20
179.90580299999991
 30
0.0
 11
162.56895499999999
 21
179.90580299999991
 31
0.0
  0
LINE
  5
268
  8
0
  6
CONTINUOUS
 62
     7
 10
162.56895499999999
 20
179.90580299999991
 30
0.0
 11
162.56895499999999
 21
175.90580299999999
 31
0.0
  0
LINE
  5
269
  8
0
  6
CONTINUOUS
 62
     7
 10
157.66405700000001
 20
58.853889999999993
 30
0.0
 11
169.56895499999999
 21
140.40580299999991
 31
0.0
  0
LINE
  5
26A
  8
0
  6
CONTINUOUS
 62
     7
 10
169.56895499999999
 20
140.40580299999991
 30
0.0
 11
166.56895499999999
 21
140.40580299999991
 31
0.0
  0
LINE
  5
26B
  8
0
  6
CONTINUOUS
 62
     7
 10
166.56895499999999
 20
140.40580299999991
 30
0.0
 11
166.56895499999999
 21
149.40580299999991
 31
0.0
  0
ARC
  5
26C
  8
0
  6
CONTINUOUS
 62
     7
 10
169.5689527587744
 20
149.40580524122541
 30
0.0
 40
2.9999977587752782
 50
89.999957195712867
 51
180.00004280428709
  0
LINE
  5
26D
  8
0
  6
CONTINUOUS
 62
     7
 10
169.56895499999999
 20
152.40580299999991
 30
0.0
 11
179.56895499999999
 21
152.40580299999991
 31
0.0
  0
LINE
  5
26E
  8
0
  6
CONTINUOUS
 62
     7
 10
179.56895499999999
 20
152.40580299999991
 30
0.0
 11
184.50550699999991
 21
157.08345800000001
 31
0.0
  0
ARC
  5
26F
  8
0
  6
CONTINUOUS
 62
     7
 10
186.56895400746421
 20
154.9058061302936
 30
0.0
 40
2.9999968697064681
 50
89.999981043943251
 51
133.45750455781729
  0
LINE
  5
270
  8
0
  6
CONTINUOUS
 62
     7
 10
186.56895499999999
 20
157.90580299999991
 30
0.0
 11
258.5689549999999
 21
157.90580299999991
 31
0.0
  0
ARC
  5
271
  8
0
  6
CONTINUOUS
 62
     7
 10
258.56895724122558
 20
154.90580524122541
 30
0.0
 40
2.9999977587752782
 50
359.9999571957128
 51
90.000042804287133
  0
LINE
  5
272
  8
0
  6
CONTINUOUS
 62
     7
 10
261.5689549999999
 20
154.90580299999991
 30
0.0
 11
261.5689549999999
 21
146.90580299999999
 31
0.0
  0
LINE
  5
273
  8
0
  6
CONTINUOUS
 62
     7
 10
261.5689549999999
 20
146.90580299999999
 30
0.0
 11
249.8037819999999
 21
146.90580299999999
 31
0.0
  0
ARC
  5
274
  8
0
  6
CONTINUOUS
 62
     7
 10
249.80379148370511
 20
136.9057877523602
 30
0.0
 40
10.00001524764423
 50
90.000054337544924
 51
153.88560008228691
  0
LINE
  5
275
  8
0
  6
CONTINUOUS
 62
     7
 10
240.82460800000001
 20
141.30744299999981
 30
0.0
 11
195.5273029999999
 21
48.102522
 31
0.0
  0
ARC
  5
276
  8
0
  6
CONTINUOUS
 62
     7
 10
177.568956743802
 20
56.905808587564152
 30
0.0
 40
20.000001375007091
 50
174.4102955850079
 51
333.88563546470817
  0
LINE
  5
277
  8
0
  6
CONTINUOUS
 62
     7
 10
68.068955000000003
 20
140.40580299999991
 30
0.0
 11
68.068955000000003
 21
33.905802999999999
 31
0.0
  0
LINE
  5
278
  8
0
  6
CONTINUOUS
 62
     7
 10
68.068955000000003
 20
33.905802999999999
 30
0.0
 11
71.068955000000003
 21
33.905802999999999
 31
0.0
  0
LINE
  5
279
  8
0
  6
CONTINUOUS
 62
     7
 10
71.068955000000003
 20
33.905802999999999
 30
0.0
 11
71.068955000000003
 21
152.40580299999991
 31
0.0
  0
LINE
  5
27A
  8
0
  6
CONTINUOUS
 62
     7
 10
71.068955000000003
 20
152.40580299999991
 30
0.0
 11
9.0689550000000008
 21
152.40580299999991
 31
0.0
  0
LINE
  5
27B
  8
0
  6
CONTINUOUS
 62
     7
 10
9.0689550000000008
 20
152.40580299999991
 30
0.0
 11
9.0689550000000008
 21
33.905802999999999
 31
0.0
  0
LINE
  5
27C
  8
0
  6
CONTINUOUS
 62
     7
 10
9.0689550000000008
 20
33.905802999999999
 30
0.0
 11
12.068955000000001
 21
33.905802999999999
 31
0.0
  0
LINE
  5
27D
  8
0
  6
CONTINUOUS
 62
     7
 10
12.068955000000001
 20
33.905802999999999
 30
0.0
 11
12.068955000000001
 21
140.40580299999991
 31
0.0
  0
LINE
  5
27E
  8
0
  6
CONTINUOUS
 62
     7
 10
71.068955000000003
 20
56.905802999999999
 30
0.0
 11
79.068955000000003
 21
146.90580299999999
 31
0.0
  0
LINE
  5
27F
  8
0
  6
CONTINUOUS
 62
     7
 10
79.068955000000003
 20
146.90580299999999
 30
0.0
 11
79.068955000000003
 21
154.90580299999991
 31
0.0
  0
ARC
  5
280
  8
0
  6
CONTINUOUS
 62
     7
 10
76.068957241225547
 20
154.90580524122541
 30
0.0
 40
2.9999977587752911
 50
359.9999571957128
 51
90.000042804286849
  0
LINE
  5
281
  8
0
  6
CONTINUOUS
 62
     7
 10
76.068955000000003
 20
157.90580299999991
 30
0.0
 11
4.0689549999999981
 21
157.90580299999991
 31
0.0
  0
ARC
  5
282
  8
0
  6
CONTINUOUS
 62
     7
 10
4.0689527587744481
 20
154.90580524122541
 30
0.0
 40
2.9999977587752782
 50
89.999957195713023
 51
180.00004280428709
  0
LINE
  5
283
  8
0
  6
CONTINUOUS
 62
     7
 10
1.0689549999999981
 20
154.90580299999991
 30
0.0
 11
1.0689549999999981
 21
146.90580299999999
 31
0.0
  0
LINE
  5
284
  8
0
  6
CONTINUOUS
 62
     7
 10
1.0689549999999981
 20
146.90580299999999
 30
0.0
 11
9.0689550000000008
 21
56.905802999999999
 31
0.0
  0
LINE
  5
285
  8
0
  6
CONTINUOUS
 62
     7
 10
24.068954999999999
 20
131.90580299999991
 30
0.0
 11
56.068955000000003
 21
131.90580299999991
 31
0.0
  0
LINE
  5
286
  8
0
  6
CONTINUOUS
 62
     7
 10
56.068955000000003
 20
131.90580299999991
 30
0.0
 11
61.068955000000003
 21
117.90580299999991
 31
0.0
  0
LINE
  5
287
  8
0
  6
CONTINUOUS
 62
     7
 10
61.068955000000003
 20
117.90580299999991
 30
0.0
 11
61.068955000000003
 21
-4.0941970000000003
 31
0.0
  0
LINE
  5
288
  8
0
  6
CONTINUOUS
 62
     7
 10
61.068955000000003
 20
-4.0941970000000003
 30
0.0
 11
56.068955000000003
 21
-18.094197000000001
 31
0.0
  0
LINE
  5
289
  8
0
  6
CONTINUOUS
 62
     7
 10
56.068955000000003
 20
-18.094197000000001
 30
0.0
 11
24.068954999999999
 21
-18.094197000000001
 31
0.0
  0
LINE
  5
28A
  8
0
  6
CONTINUOUS
 62
     7
 10
24.068954999999999
 20
-18.094197000000001
 30
0.0
 11
19.068954999999999
 21
-4.0941970000000003
 31
0.0
  0
LINE
  5
28B
  8
0
  6
CONTINUOUS
 62
     7
 10
19.068954999999999
 20
-4.0941970000000003
 30
0.0
 11
19.068954999999999
 21
117.90580299999991
 31
0.0
  0
LINE
  5
28C
  8
0
  6
CONTINUOUS
 62
     7
 10
19.068954999999999
 20
117.90580299999991
 30
0.0
 11
24.068954999999999
 21
131.90580299999991
 31
0.0
  0
LINE
  5
28D
  8
0
  6
CONTINUOUS
 62
     7
 10
19.068954999999999
 20
81.905803000000006
 30
0.0
 11
14.068955000000001
 21
81.905803000000006
 31
0.0
  0
LINE
  5
28E
  8
0
  6
CONTINUOUS
 62
     7
 10
14.068955000000001
 20
81.905803000000006
 30
0.0
 11
14.068955000000001
 21
31.905802999999999
 31
0.0
  0
LINE
  5
28F
  8
0
  6
CONTINUOUS
 62
     7
 10
14.068955000000001
 20
31.905802999999999
 30
0.0
 11
19.068954999999999
 21
31.905802999999999
 31
0.0
  0
LINE
  5
290
  8
0
  6
CONTINUOUS
 62
     7
 10
7.8689549999999979
 20
70.40580300000002
 30
0.0
 11
6.0689549999999981
 21
70.40580300000002
 31
0.0
  0
ARC
  5
291
  8
0
  6
CONTINUOUS
 62
     7
 10
50.631501562545573
 20
56.905802999999999
 30
0.0
 40
46.562544562545568
 50
163.1460785689697
 51
196.8539214310303
  0
LINE
  5
292
  8
0
  6
CONTINUOUS
 62
     7
 10
6.0689549999999981
 20
43.405802999999999
 30
0.0
 11
9.0689550000000008
 21
43.405802999999999
 31
0.0
  0
LINE
  5
293
  8
0
  6
CONTINUOUS
 62
     7
 10
61.068955000000003
 20
81.905803000000006
 30
0.0
 11
66.068955000000003
 21
81.905803000000006
 31
0.0
  0
LINE
  5
294
  8
0
  6
CONTINUOUS
 62
     7
 10
66.068955000000003
 20
81.905803000000006
 30
0.0
 11
66.068955000000003
 21
31.905802999999999
 31
0.0
  0
LINE
  5
295
  8
0
  6
CONTINUOUS
 62
     7
 10
66.068955000000003
 20
31.905802999999999
 30
0.0
 11
61.068955000000003
 21
31.905802999999999
 31
0.0
  0
LINE
  5
296
  8
0
  6
CONTINUOUS
 62
     7
 10
82.068954999999988
 20
69.607507999999996
 30
0.0
 11
74.068955000000003
 21
69.607507999999996
 31
0.0
  0
LINE
  5
297
  8
0
  6
CONTINUOUS
 62
     7
 10
74.068955000000003
 20
69.607507999999996
 30
0.0
 11
74.068955000000003
 21
44.20409699999999
 31
0.0
  0
LINE
  5
298
  8
0
  6
CONTINUOUS
 62
     7
 10
74.068955000000003
 20
44.20409699999999
 30
0.0
 11
82.068954999999988
 21
44.20409699999999
 31
0.0
  0
LINE
  5
299
  8
0
  6
CONTINUOUS
 62
     7
 10
82.068954999999988
 20
44.20409699999999
 30
0.0
 11
82.068954999999988
 21
69.607507999999996
 31
0.0
  0
LINE
  5
29A
  8
0
  6
CONTINUOUS
 62
     7
 10
79.068955000000003
 20
157.90580299999991
 30
0.0
 11
1.0689549999999981
 21
157.90580299999991
 31
0.0
  0
ARC
  5
29B
  8
0
  6
CONTINUOUS
 62
     7
 10
1.068952758774449
 20
160.9058007587744
 30
0.0
 40
2.9999977587752782
 50
179.9999571957128
 51
270.00004280428692
  0
LINE
  5
29C
  8
0
  6
CONTINUOUS
 62
     7
 10
-1.931044999999999
 20
160.90580299999991
 30
0.0
 11
-1.931044999999999
 21
167.90580299999999
 31
0.0
  0
LINE
  5
29D
  8
0
  6
CONTINUOUS
 62
     7
 10
-1.931044999999999
 20
167.90580299999999
 30
0.0
 11
82.068954999999988
 21
167.90580299999999
 31
0.0
  0
LINE
  5
29E
  8
0
  6
CONTINUOUS
 62
     7
 10
82.068954999999988
 20
167.90580299999999
 30
0.0
 11
82.068954999999988
 21
160.90580299999991
 31
0.0
  0
ARC
  5
29F
  8
0
  6
CONTINUOUS
 62
     7
 10
79.068957241225547
 20
160.9058007587744
 30
0.0
 40
2.9999977587752911
 50
269.99995719571308
 51
0.0000428042871323
  0
LINE
  5
2A0
  8
0
  6
CONTINUOUS
 62
     7
 10
92.568955000000003
 20
175.90580299999999
 30
0.0
 11
-12.431044999999999
 21
175.90580299999999
 31
0.0
  0
LINE
  5
2A1
  8
0
  6
CONTINUOUS
 62
     7
 10
-12.431044999999999
 20
175.90580299999999
 30
0.0
 11
-12.431044999999999
 21
179.90580299999991
 31
0.0
  0
LINE
  5
2A2
  8
0
  6
CONTINUOUS
 62
     7
 10
-12.431044999999999
 20
179.90580299999991
 30
0.0
 11
92.568955000000003
 21
179.90580299999991
 31
0.0
  0
LINE
  5
2A3
  8
0
  6
CONTINUOUS
 62
     7
 10
92.568955000000003
 20
179.90580299999991
 30
0.0
 11
92.568955000000003
 21
175.90580299999999
 31
0.0
  0
ARC
  5
2A4
  8
0
  6
CONTINUOUS
 62
     7
 10
81.568958735375915
 20
175.40580001169911
 30
0.0
 40
4.5276891865432178
 50
276.340148941623
 51
6.340234550196894
  0
LINE
  5
2A5
  8
0
  6
CONTINUOUS
 62
     7
 10
82.068954999999988
 20
170.90580299999999
 30
0.0
 11
-1.931044999999999
 21
170.90580299999999
 31
0.0
  0
ARC
  5
2A6
  8
0
  6
CONTINUOUS
 62
     7
 10
-1.431048735375916
 20
175.40580001169911
 30
0.0
 40
4.5276891865432116
 50
173.6597654498031
 51
263.659851058377
  0
LINE
  5
2A7
  8
0
  6
CONTINUOUS
 62
     7
 10
327.0689549999999
 20
56.905802999999999
 30
0.0
 11
327.0689549999999
 21
33.905802999999999
 31
0.0
  0
LINE
  5
2A8
  8
0
  6
CONTINUOUS
 62
     7
 10
327.0689549999999
 20
33.905802999999999
 30
0.0
 11
324.0689549999999
 21
33.905802999999999
 31
0.0
  0
LINE
  5
2A9
  8
0
  6
CONTINUOUS
 62
     7
 10
324.0689549999999
 20
33.905802999999999
 30
0.0
 11
324.0689549999999
 21
56.905802999999999
 31
0.0
  0
LINE
  5
2AA
  8
0
  6
CONTINUOUS
 62
     7
 10
324.0689549999999
 20
56.905802999999999
 30
0.0
 11
316.0689549999999
 21
146.90580299999999
 31
0.0
  0
LINE
  5
2AB
  8
0
  6
CONTINUOUS
 62
     7
 10
316.0689549999999
 20
146.90580299999999
 30
0.0
 11
316.0689549999999
 21
154.90580299999991
 31
0.0
  0
ARC
  5
2AC
  8
0
  6
CONTINUOUS
 62
     7
 10
319.0689527587744
 20
154.90580524122541
 30
0.0
 40
2.9999977587752782
 50
89.999957195712867
 51
180.00004280428709
  0
LINE
  5
2AD
  8
0
  6
CONTINUOUS
 62
     7
 10
319.0689549999999
 20
157.90580299999991
 30
0.0
 11
391.06895499999979
 21
157.90580299999991
 31
0.0
  0
ARC
  5
2AE
  8
0
  6
CONTINUOUS
 62
     7
 10
391.06895724122552
 20
154.90580524122541
 30
0.0
 40
2.9999977587752782
 50
359.9999571957128
 51
90.000042804287133
  0
LINE
  5
2AF
  8
0
  6
CONTINUOUS
 62
     7
 10
394.0689549999999
 20
154.90580299999991
 30
0.0
 11
394.0689549999999
 21
146.90580299999999
 31
0.0
  0
LINE
  5
2B0
  8
0
  6
CONTINUOUS
 62
     7
 10
394.0689549999999
 20
146.90580299999999
 30
0.0
 11
386.0689549999999
 21
56.905802999999999
 31
0.0
  0
LINE
  5
2B1
  8
0
  6
CONTINUOUS
 62
     7
 10
386.0689549999999
 20
56.905802999999999
 30
0.0
 11
386.0689549999999
 21
33.905802999999999
 31
0.0
  0
LINE
  5
2B2
  8
0
  6
CONTINUOUS
 62
     7
 10
386.0689549999999
 20
33.905802999999999
 30
0.0
 11
383.06895499999979
 21
33.905802999999999
 31
0.0
  0
LINE
  5
2B3
  8
0
  6
CONTINUOUS
 62
     7
 10
383.06895499999979
 20
33.905802999999999
 30
0.0
 11
383.06895499999979
 21
56.905802999999999
 31
0.0
  0
LINE
  5
2B4
  8
0
  6
CONTINUOUS
 62
     7
 10
383.06895499999979
 20
56.905802999999999
 30
0.0
 11
391.06895499999979
 21
146.90580299999999
 31
0.0
  0
LINE
  5
2B5
  8
0
  6
CONTINUOUS
 62
     7
 10
391.06895499999979
 20
146.90580299999999
 30
0.0
 11
319.0689549999999
 21
146.90580299999999
 31
0.0
  0
LINE
  5
2B6
  8
0
  6
CONTINUOUS
 62
     7
 10
319.0689549999999
 20
146.90580299999999
 30
0.0
 11
327.0689549999999
 21
56.905802999999999
 31
0.0
  0
LINE
  5
2B7
  8
0
  6
CONTINUOUS
 62
     7
 10
334.0689549999999
 20
81.905803000000006
 30
0.0
 11
329.0689549999999
 21
81.905803000000006
 31
0.0
  0
LINE
  5
2B8
  8
0
  6
CONTINUOUS
 62
     7
 10
329.0689549999999
 20
81.905803000000006
 30
0.0
 11
329.0689549999999
 21
31.905802999999999
 31
0.0
  0
LINE
  5
2B9
  8
0
  6
CONTINUOUS
 62
     7
 10
329.0689549999999
 20
31.905802999999999
 30
0.0
 11
334.0689549999999
 21
31.905802999999999
 31
0.0
  0
LINE
  5
2BA
  8
0
  6
CONTINUOUS
 62
     7
 10
313.0689549999999
 20
69.607507999999996
 30
0.0
 11
321.0689549999999
 21
69.607507999999996
 31
0.0
  0
LINE
  5
2BB
  8
0
  6
CONTINUOUS
 62
     7
 10
321.0689549999999
 20
69.607507999999996
 30
0.0
 11
321.0689549999999
 21
44.20409699999999
 31
0.0
  0
LINE
  5
2BC
  8
0
  6
CONTINUOUS
 62
     7
 10
321.0689549999999
 20
44.20409699999999
 30
0.0
 11
313.0689549999999
 21
44.20409699999999
 31
0.0
  0
LINE
  5
2BD
  8
0
  6
CONTINUOUS
 62
     7
 10
313.0689549999999
 20
44.20409699999999
 30
0.0
 11
313.0689549999999
 21
69.607507999999996
 31
0.0
  0
LINE
  5
2BE
  8
0
  6
CONTINUOUS
 62
     7
 10
339.0689549999999
 20
131.90580299999991
 30
0.0
 11
371.06895499999979
 21
131.90580299999991
 31
0.0
  0
LINE
  5
2BF
  8
0
  6
CONTINUOUS
 62
     7
 10
371.06895499999979
 20
131.90580299999991
 30
0.0
 11
376.0689549999999
 21
117.90580299999991
 31
0.0
  0
LINE
  5
2C0
  8
0
  6
CONTINUOUS
 62
     7
 10
376.0689549999999
 20
117.90580299999991
 30
0.0
 11
376.0689549999999
 21
-4.0941970000000003
 31
0.0
  0
LINE
  5
2C1
  8
0
  6
CONTINUOUS
 62
     7
 10
376.0689549999999
 20
-4.0941970000000003
 30
0.0
 11
371.06895499999979
 21
-18.094197000000001
 31
0.0
  0
LINE
  5
2C2
  8
0
  6
CONTINUOUS
 62
     7
 10
371.06895499999979
 20
-18.094197000000001
 30
0.0
 11
339.0689549999999
 21
-18.094197000000001
 31
0.0
  0
LINE
  5
2C3
  8
0
  6
CONTINUOUS
 62
     7
 10
339.0689549999999
 20
-18.094197000000001
 30
0.0
 11
334.0689549999999
 21
-4.0941970000000003
 31
0.0
  0
LINE
  5
2C4
  8
0
  6
CONTINUOUS
 62
     7
 10
334.0689549999999
 20
-4.0941970000000003
 30
0.0
 11
334.0689549999999
 21
117.90580299999991
 31
0.0
  0
LINE
  5
2C5
  8
0
  6
CONTINUOUS
 62
     7
 10
334.0689549999999
 20
117.90580299999991
 30
0.0
 11
339.0689549999999
 21
131.90580299999991
 31
0.0
  0
LINE
  5
2C6
  8
0
  6
CONTINUOUS
 62
     7
 10
376.0689549999999
 20
81.905803000000006
 30
0.0
 11
381.06895499999979
 21
81.905803000000006
 31
0.0
  0
LINE
  5
2C7
  8
0
  6
CONTINUOUS
 62
     7
 10
381.06895499999979
 20
81.905803000000006
 30
0.0
 11
381.06895499999979
 21
31.905802999999999
 31
0.0
  0
LINE
  5
2C8
  8
0
  6
CONTINUOUS
 62
     7
 10
381.06895499999979
 20
31.905802999999999
 30
0.0
 11
376.0689549999999
 21
31.905802999999999
 31
0.0
  0
LINE
  5
2C9
  8
0
  6
CONTINUOUS
 62
     7
 10
387.26895500000001
 20
70.40580300000002
 30
0.0
 11
389.0689549999999
 21
70.40580300000002
 31
0.0
  0
ARC
  5
2CA
  8
0
  6
CONTINUOUS
 62
     7
 10
344.50640843745441
 20
56.905802999999999
 30
0.0
 40
46.562544562545533
 50
343.1460785689697
 51
16.85392143103029
  0
LINE
  5
2CB
  8
0
  6
CONTINUOUS
 62
     7
 10
389.0689549999999
 20
43.405802999999999
 30
0.0
 11
386.0689549999999
 21
43.405802999999999
 31
0.0
  0
LINE
  5
2CC
  8
0
  6
CONTINUOUS
 62
     7
 10
302.5689549999999
 20
175.90580299999999
 30
0.0
 11
407.56895499999979
 21
175.90580299999999
 31
0.0
  0
LINE
  5
2CD
  8
0
  6
CONTINUOUS
 62
     7
 10
407.56895499999979
 20
175.90580299999999
 30
0.0
 11
407.56895499999979
 21
179.90580299999991
 31
0.0
  0
LINE
  5
2CE
  8
0
  6
CONTINUOUS
 62
     7
 10
407.56895499999979
 20
179.90580299999991
 30
0.0
 11
302.5689549999999
 21
179.90580299999991
 31
0.0
  0
LINE
  5
2CF
  8
0
  6
CONTINUOUS
 62
     7
 10
302.5689549999999
 20
179.90580299999991
 30
0.0
 11
302.5689549999999
 21
175.90580299999999
 31
0.0
  0
ARC
  5
2D0
  8
0
  6
CONTINUOUS
 62
     7
 10
313.56895126462399
 20
175.40580001169911
 30
0.0
 40
4.5276891865432178
 50
173.6597654498031
 51
263.659851058377
  0
LINE
  5
2D1
  8
0
  6
CONTINUOUS
 62
     7
 10
313.0689549999999
 20
170.90580299999999
 30
0.0
 11
397.0689549999999
 21
170.90580299999999
 31
0.0
  0
ARC
  5
2D2
  8
0
  6
CONTINUOUS
 62
     7
 10
396.56895873537582
 20
175.40580001169911
 30
0.0
 40
4.5276891865432116
 50
276.340148941623
 51
6.340234550196894
  0
LINE
  5
2D3
  8
0
  6
CONTINUOUS
 62
     7
 10
316.0689549999999
 20
157.90580299999991
 30
0.0
 11
394.0689549999999
 21
157.90580299999991
 31
0.0
  0
ARC
  5
2D4
  8
0
  6
CONTINUOUS
 62
     7
 10
394.06895724122552
 20
160.9058007587744
 30
0.0
 40
2.9999977587752782
 50
269.9999571957128
 51
0.0000428042871323
  0
LINE
  5
2D5
  8
0
  6
CONTINUOUS
 62
     7
 10
397.0689549999999
 20
160.90580299999991
 30
0.0
 11
397.0689549999999
 21
167.90580299999999
 31
0.0
  0
LINE
  5
2D6
  8
0
  6
CONTINUOUS
 62
     7
 10
397.0689549999999
 20
167.90580299999999
 30
0.0
 11
313.0689549999999
 21
167.90580299999999
 31
0.0
  0
LINE
  5
2D7
  8
0
  6
CONTINUOUS
 62
     7
 10
313.0689549999999
 20
167.90580299999999
 30
0.0
 11
313.0689549999999
 21
160.90580299999991
 31
0.0
  0
ARC
  5
2D8
  8
0
  6
CONTINUOUS
 62
     7
 10
316.0689527587744
 20
160.9058007587744
 30
0.0
 40
2.9999977587752782
 50
179.9999571957128
 51
270.00004280428709
  0
ENDSEC
  0
EOF
