  0
SECTION
  2
HEADER
  9
$ACADVER
  1
AC1009
  9
$INSBASE
 10
0.0
 20
0.0
 30
0.0
  9
$EXTMIN
 10
10.0
 20
10.0
 30
0.0
  9
$EXTMAX
 10
120.4959390416187
 20
56.900000000000027
 30
0.0
  9
$LIMMIN
 10
0.0
 20
0.0
  9
$LIMMAX
 10
420.0
 20
297.0
  9
$ORTHOMODE
 70
     1
  9
$REGENMODE
 70
     1
  9
$FILLMODE
 70
     1
  9
$QTEXTMODE
 70
     0
  9
$MIRRTEXT
 70
     0
  9
$DRAGMODE
 70
     2
  9
$LTSCALE
 40
1.0
  9
$OSMODE
 70
    37
  9
$ATTMODE
 70
     1
  9
$TEXTSIZE
 40
2.5
  9
$TRACEWID
 40
1.0
  9
$TEXTSTYLE
  7
STANDARD
  9
$CLAYER
  8
0
  9
$CELTYPE
  6
CONTINUOUS
  9
$CECOLOR
 62
     7
  9
$DIMSCALE
 40
1.0
  9
$DIMASZ
 40
1.5
  9
$DIMEXO
 40
0.625
  9
$DIMDLI
 40
3.75
  9
$DIMRND
 40
0.0
  9
$DIMDLE
 40
0.0
  9
$DIMEXE
 40
1.25
  9
$DIMTP
 40
0.0
  9
$DIMTM
 40
0.0
  9
$DIMTXT
 40
2.5
  9
$DIMCEN
 40
0.0
  9
$DIMTSZ
 40
0.0
  9
$DIMTOL
 70
     0
  9
$DIMLIM
 70
     0
  9
$DIMTIH
 70
     0
  9
$DIMTOH
 70
     0
  9
$DIMSE1
 70
     0
  9
$DIMSE2
 70
     0
  9
$DIMTAD
 70
     1
  9
$DIMZIN
 70
     8
  9
$DIMBLK
  1

  9
$DIMASO
 70
     1
  9
$DIMSHO
 70
     1
  9
$DIMPOST
  1

  9
$DIMAPOST
  1

  9
$DIMALT
 70
     0
  9
$DIMALTD
 70
     3
  9
$DIMALTF
 40
0.03937007874016
  9
$DIMLFAC
 40
1.0
  9
$DIMTOFL
 70
     1
  9
$DIMTVP
 40
0.0
  9
$DIMTIX
 70
     1
  9
$DIMSOXD
 70
     0
  9
$DIMSAH
 70
     0
  9
$DIMBLK1
  1

  9
$DIMBLK2
  1

  9
$DIMSTYLE
  2
MISUMI
  9
$DIMCLRD
 70
     0
  9
$DIMCLRE
 70
     0
  9
$DIMCLRT
 70
     0
  9
$DIMTFAC
 40
1.0
  9
$DIMGAP
 40
0.625
  9
$LUNITS
 70
     2
  9
$LUPREC
 70
     4
  9
$SKETCHINC
 40
1.0
  9
$FILLETRAD
 40
1.0
  9
$AUNITS
 70
     0
  9
$AUPREC
 70
     0
  9
$MENU
  1
.
  9
$ELEVATION
 40
0.0
  9
$PELEVATION
 40
0.0
  9
$THICKNESS
 40
0.0
  9
$LIMCHECK
 70
     0
  9
$BLIPMODE
 70
     0
  9
$CHAMFERA
 40
1.0
  9
$CHAMFERB
 40
1.0
  9
$SKPOLY
 70
     0
  9
$TDCREATE
 40
2454424.6116537959
  9
$TDUPDATE
 40
2454511.5470223729
  9
$TDINDWG
 40
0.5090279282
  9
$TDUSRTIMER
 40
0.5090279282
  9
$USRTIMER
 70
     1
  9
$ANGBASE
 50
0.0
  9
$ANGDIR
 70
     0
  9
$PDMODE
 70
     0
  9
$PDSIZE
 40
0.0
  9
$PLINEWID
 40
0.0
  9
$COORDS
 70
     2
  9
$SPLFRAME
 70
     0
  9
$SPLINETYPE
 70
     6
  9
$SPLINESEGS
 70
     8
  9
$ATTDIA
 70
     0
  9
$ATTREQ
 70
     1
  9
$HANDLING
 70
     1
  9
$HANDSEED
  5
8232
  9
$SURFTAB1
 70
     6
  9
$SURFTAB2
 70
     6
  9
$SURFTYPE
 70
     6
  9
$SURFU
 70
     6
  9
$SURFV
 70
     6
  9
$UCSNAME
  2

  9
$UCSORG
 10
0.0
 20
0.0
 30
0.0
  9
$UCSXDIR
 10
1.0
 20
0.0
 30
0.0
  9
$UCSYDIR
 10
0.0
 20
1.0
 30
0.0
  9
$PUCSNAME
  2

  9
$PUCSORG
 10
0.0
 20
0.0
 30
0.0
  9
$PUCSXDIR
 10
1.0
 20
0.0
 30
0.0
  9
$PUCSYDIR
 10
0.0
 20
1.0
 30
0.0
  9
$USERI1
 70
     0
  9
$USERI2
 70
     0
  9
$USERI3
 70
     0
  9
$USERI4
 70
     0
  9
$USERI5
 70
     0
  9
$USERR1
 40
0.0
  9
$USERR2
 40
0.0
  9
$USERR3
 40
0.0
  9
$USERR4
 40
0.0
  9
$USERR5
 40
0.0
  9
$WORLDVIEW
 70
     1
  9
$SHADEDGE
 70
     3
  9
$SHADEDIF
 70
    70
  9
$TILEMODE
 70
     1
  9
$MAXACTVP
 70
    64
  9
$PLIMCHECK
 70
     0
  9
$PEXTMIN
 10
0.0
 20
0.0
 30
0.0
  9
$PEXTMAX
 10
0.0
 20
0.0
 30
0.0
  9
$PLIMMIN
 10
0.0
 20
0.0
  9
$PLIMMAX
 10
12.0
 20
9.0
  9
$UNITMODE
 70
     0
  9
$VISRETAIN
 70
     1
  9
$PLINEGEN
 70
     0
  9
$PSLTSCALE
 70
     1
  0
ENDSEC
  0
SECTION
  2
TABLES
  0
TABLE
  2
VPORT
 70
     1
  0
VPORT
  2
*ACTIVE
 70
     0
 10
0.0
 20
0.0
 11
1.0
 21
1.0
 12
72.325287682848682
 22
37.718674268595223
 13
0.0
 23
0.0
 14
10.0
 24
10.0
 15
10.0
 25
10.0
 16
0.0
 26
0.0
 36
1.0
 17
0.0
 27
0.0
 37
0.0
 40
118.32326122851489
 41
1.061518324607329
 42
50.0
 43
0.0
 44
0.0
 50
0.0
 51
0.0
 71
     0
 72
  1000
 73
     1
 74
     3
 75
     0
 76
     0
 77
     0
 78
     0
  0
ENDTAB
  0
TABLE
  2
LTYPE
 70
     5
  0
LTYPE
  2
CONTINUOUS
 70
     0
  3
Solid line
 72
    65
 73
     0
 40
0.0
  0
LTYPE
  2
CENTER
 70
     0
  3
Center ____ _ ____ _ ____ _ ____ _ ____ _ ____
 72
    65
 73
     4
 40
50.799999999999997
 49
31.75
 49
-6.3499999999999988
 49
6.3499999999999988
 49
-6.3499999999999988
  0
LTYPE
  2
DASHED
 70
     0
  3
Dashed __ __ __ __ __ __ __ __ __ __ __ __ __ _
 72
    65
 73
     2
 40
19.050000000000001
 49
12.699999999999999
 49
-6.3499999999999988
  0
LTYPE
  2
PHANTOM
 70
     0
  3
Phantom ______  __  __  ______  __  __  ______
 72
    65
 73
     6
 40
63.5
 49
31.75
 49
-6.3499999999999988
 49
6.3499999999999988
 49
-6.3499999999999988
 49
6.3499999999999988
 49
-6.3499999999999988
  0
ENDTAB
  0
TABLE
  2
LAYER
 70
     4
  0
LAYER
  2
0
 70
     0
 62
     7
  6
CONTINUOUS
  0
LAYER
  2
CENTER
 70
     0
 62
     1
  6
CENTER
  0
ENDTAB
  0
TABLE
  2
STYLE
 70
     4
  0
STYLE
  2
STANDARD
 70
     0
 40
0.0
 41
1.0
 50
0.0
 71
     0
 42
2.5
  3
txt.shx
  4

  0
ENDTAB
  0
TABLE
  2
VIEW
 70
     0
  0
ENDTAB
  0
TABLE
  2
UCS
 70
     0
  0
ENDTAB
  0
TABLE
  2
APPID
 70
    11
  0
APPID
  2
ACAD
 70
     0
  0
APPID
  2
ACAD_PSEXT
 70
     0
  0
APPID
  2
ACAECLAYERSTANDARD
 70
     0
  0
APPID
  2
GENIUS_GENCFG_13
 70
     0
  0
APPID
  2
GENIUS_GENCFG0_13
 70
     0
  0
APPID
  2
GENIUS_GENCFG1_13
 70
     0
  0
APPID
  2
GENIUS_GENCFG2_13
 70
     0
  0
APPID
  2
GENIUS_GENCFG3_13
 70
     0
  0
APPID
  2
GENIUS_GENCFG4_13
 70
     0
  0
APPID
  2
GENIUS_GEVCFG0_13
 70
     0
  0
APPID
  2
ACAD_EXEMPT_FROM_CAD_STANDARDS
 70
     0
  0
ENDTAB
  0
TABLE
  2
DIMSTYLE
 70
     3
  0
DIMSTYLE
  2
MISUMI
 70
     0
  3

  4

  5

  6

  7

 40
1.0
 41
1.5
 42
0.625
 43
3.75
 44
1.25
 45
0.0
 46
0.0
 47
0.0
 48
0.0
140
2.5
141
0.0
142
0.0
143
0.03937007874016
144
1.0
145
0.0
146
1.0
147
0.625
 71
     0
 72
     0
 73
     0
 74
     0
 75
     0
 76
     0
 77
     1
 78
     8
170
     0
171
     3
172
     1
173
     0
174
     1
175
     0
176
     0
177
     0
178
     0
  0
ENDTAB
  0
ENDSEC
  0
SECTION
  2
BLOCKS
  0
BLOCK
  8
0
  2
$MODEL_SPACE
 70
     0
 10
0.0
 20
0.0
 30
0.0
  3
$MODEL_SPACE
  1

  0
ENDBLK
  5
21
  8
0
  0
BLOCK
 67
     1
  8
0
  2
$PAPER_SPACE
 70
     0
 10
0.0
 20
0.0
 30
0.0
  3
$PAPER_SPACE
  1

  0
ENDBLK
  5
D5
 67
     1
  8
0
  0
BLOCK
  8
0
 62
     7
  2
*U27
 70
     1
 10
0.0
 20
0.0
 30
0.0
  3
*U27
  1

  0
TEXT
  5
816F
  8
0
  6
CONTINUOUS
 62
     0
 10
-1713.651808489032
 20
-557.14777595793987
 30
0.0
 40
2.5
  1
E
  0
ENDBLK
  5
8171
  8
0
 62
     7
  0
BLOCK
  8
0
 62
     7
  2
*U28
 70
     1
 10
0.0
 20
0.0
 30
0.0
  3
*U28
  1

  0
TEXT
  5
8176
  8
0
  6
CONTINUOUS
 62
     0
 10
-1741.986539771912
 20
-557.14603258276554
 30
0.0
 40
2.5
  1
l
  0
TEXT
  5
8177
  8
0
  6
CONTINUOUS
 62
     0
 10
-1741.0341588195311
 20
-557.14603258276554
 30
0.0
 40
2.5
  1
 
  0
TEXT
  5
8178
  8
0
  6
CONTINUOUS
 62
     0
 10
-1740.49894264101
 20
-556.79603258276541
 30
0.0
 40
1.7999999999999989
  1
1
  0
ENDBLK
  5
817A
  8
0
 62
     7
  0
BLOCK
  8
0
 62
     7
  2
*U29
 70
     1
 10
0.0
 20
0.0
 30
0.0
  3
*U29
  1

  0
TEXT
  5
817C
  8
0
  6
CONTINUOUS
 62
     0
 10
-1730.979573619916
 20
-557.14777595793987
 30
0.0
 40
2.5
  1
L
  0
ENDBLK
  5
817E
  8
0
 62
     7
  0
BLOCK
  8
0
 62
     7
  2
*U30
 70
     1
 10
0.0
 20
0.0
 30
0.0
  3
*U30
  1

  0
TEXT
  5
8180
  8
0
  6
CONTINUOUS
 62
     0
 10
-1721.1424292257309
 20
-557.14777595793987
 30
0.0
 40
2.5
  1
B
  0
ENDBLK
  5
8182
  8
0
 62
     7
  0
BLOCK
  8
0
 62
     7
  2
*U31
 70
     1
 10
0.0
 20
0.0
 30
0.0
  3
*U31
  1

  0
TEXT
  5
8184
  8
0
  6
CONTINUOUS
 62
     0
 10
-1724.4079476431939
 20
-551.12560679013654
 30
0.0
 40
2.5
  1
3
  0
ENDBLK
  5
8186
  8
0
 62
     7
  0
BLOCK
  8
0
 62
     7
  2
*U32
 70
     1
 10
0.0
 20
0.0
 30
0.0
  3
*U32
  1

  0
TEXT
  5
8188
  8
0
  6
CONTINUOUS
 62
     0
 10
-1731.9172259154161
 20
-544.11387213802186
 30
0.0
 40
2.5
  1
D
 50
90.0
  0
TEXT
  5
8189
  8
0
  6
CONTINUOUS
 62
     0
 10
-1732.267225915416
 20
-541.59170297021831
 30
0.0
 40
1.7999999999999989
  1
g6
 50
90.0
  0
ENDBLK
  5
818B
  8
0
 62
     7
  0
BLOCK
  8
0
 62
     7
  2
*U33
 70
     1
 10
0.0
 20
0.0
 30
0.0
  3
*U33
  1

  0
SOLID
  5
8192
  8
0
  6
CONTINUOUS
 62
     7
 10
-1730.5064354776771
 20
-535.29727595793963
 30
0.0
 11
-1731.586435477677
 21
-536.37727595793945
 31
0.0
 12
-1729.4264354776769
 22
-536.37727595793945
 32
0.0
 13
-1729.4264354776769
 23
-536.37727595793945
 33
0.0
210
0.0
220
0.0
230
1.0
  0
SOLID
  5
8193
  8
0
  6
CONTINUOUS
 62
     7
 10
-1731.586435477677
 20
-536.37727595793945
 30
0.0
 11
-1731.586435477677
 21
-536.37727595793945
 31
0.0
 12
-1729.4264354776769
 22
-536.37727595793945
 32
0.0
 13
-1729.4264354776769
 23
-536.37727595793945
 33
0.0
210
0.0
220
0.0
230
1.0
  0
LINE
  5
8194
  8
0
  6
CONTINUOUS
 62
     7
 10
-1730.5064354776771
 20
-535.29727595793963
 30
0.0
 11
-1731.586435477677
 21
-536.37727595793945
 31
0.0
  0
LINE
  5
8195
  8
0
  6
CONTINUOUS
 62
     7
 10
-1729.4264354776769
 20
-536.37727595793945
 30
0.0
 11
-1730.5064354776771
 21
-535.29727595793963
 31
0.0
  0
LINE
  5
8196
  8
0
  6
CONTINUOUS
 62
     7
 10
-1731.586435477677
 20
-536.37727595793945
 30
0.0
 11
-1729.4264354776769
 21
-536.37727595793945
 31
0.0
  0
ENDBLK
  5
8198
  8
0
 62
     7
  0
BLOCK
  8
0
 62
     7
  2
*U34
 70
     1
 10
0.0
 20
0.0
 30
0.0
  3
*U34
  1

  0
TEXT
  5
819A
  8
0
  6
CONTINUOUS
 62
     7
 10
-1749.2537181427181
 20
-530.72905317414097
 30
0.0
 40
2.5
  1
M
  0
ENDBLK
  5
819C
  8
0
 62
     7
  0
BLOCK
  8
0
 62
     7
  2
*U35
 70
     1
 10
0.0
 20
0.0
 30
0.0
  3
*U35
  1

  0
SOLID
  5
819E
  8
0
  6
CONTINUOUS
 62
     7
 10
-1741.794148170663
 20
-534.97191238061214
 30
0.0
 11
-1741.2132409357951
 21
-536.37727595793945
 31
0.0
 12
-1742.2185413722359
 22
-535.23628032583008
 32
0.0
 13
-1742.2185413722359
 23
-535.23628032583008
 33
0.0
  0
POLYLINE
  5
819F
  8
0
  6
CONTINUOUS
 62
     7
 66
     1
 10
0.0
 20
0.0
 30
0.0
  0
VERTEX
  5
81A0
  8
0
  6
CONTINUOUS
 62
     7
 10
-1742.006344771449
 20
-535.10409635322105
 30
0.0
  0
VERTEX
  5
81A1
  8
0
  6
CONTINUOUS
 62
     7
 10
-1744.1087658916949
 20
-531.72905317414074
 30
0.0
  0
VERTEX
  5
81A2
  8
0
  6
CONTINUOUS
 62
     7
 10
-1747.979324267329
 20
-531.72905317414074
 30
0.0
  0
SEQEND
  5
81A3
  8
0
  6
CONTINUOUS
 62
     7
  0
ENDBLK
  5
81A5
  8
0
 62
     7
  0
BLOCK
  8
0
 62
     7
  2
*U36
 70
     1
 10
0.0
 20
0.0
 30
0.0
  3
*U36
  1

  0
TEXT
  5
81B7
  8
0
  6
CONTINUOUS
 62
     0
 10
-1885.5856780202159
 20
-557.14777595793998
 30
0.0
 40
2.5
  1
B
  0
ENDBLK
  5
81B9
  8
0
 62
     7
  0
BLOCK
  8
0
 62
     7
  2
*U37
 70
     1
 10
0.0
 20
0.0
 30
0.0
  3
*U37
  1

  0
TEXT
  5
81BB
  8
0
  6
CONTINUOUS
 62
     0
 10
-1891.8511964376789
 20
-557.12560679013654
 30
0.0
 40
2.5
  1
3
  0
ENDBLK
  5
81BD
  8
0
 62
     7
  0
BLOCK
  8
0
 62
     7
  2
*U38
 70
     1
 10
0.0
 20
0.0
 30
0.0
  3
*U38
  1

  0
TEXT
  5
81BF
  8
0
  6
CONTINUOUS
 62
     0
 10
-1898.4228199028901
 20
-557.14777595793998
 30
0.0
 40
2.5
  1
L
  0
ENDBLK
  5
81C1
  8
0
 62
     7
  0
BLOCK
  8
0
 62
     7
  2
*U39
 70
     1
 10
0.0
 20
0.0
 30
0.0
  3
*U39
  1

  0
TEXT
  5
81C3
  8
0
  6
CONTINUOUS
 62
     0
 10
-1909.4297835433749
 20
-557.14603258276566
 30
0.0
 40
2.5
  1
l
  0
TEXT
  5
81C4
  8
0
  6
CONTINUOUS
 62
     0
 10
-1908.477402590994
 20
-557.14603258276566
 30
0.0
 40
2.5
  1
 
  0
TEXT
  5
81C5
  8
0
  6
CONTINUOUS
 62
     0
 10
-1907.942186412472
 20
-556.79603258276563
 30
0.0
 40
1.7999999999999989
  1
1
  0
ENDBLK
  5
81C7
  8
0
 62
     7
  0
BLOCK
  8
0
 62
     7
  2
*U40
 70
     1
 10
0.0
 20
0.0
 30
0.0
  3
*U40
  1

  0
TEXT
  5
81C9
  8
0
  6
CONTINUOUS
 62
     0
 10
-1879.095057283517
 20
-557.14777595793998
 30
0.0
 40
2.5
  1
E
  0
ENDBLK
  5
81CB
  8
0
 62
     7
  0
BLOCK
  8
0
 62
     7
  2
*U41
 70
     1
 10
0.0
 20
0.0
 30
0.0
  3
*U41
  1

  0
TEXT
  5
81CD
  8
0
  6
CONTINUOUS
 62
     0
 10
-1899.296775415663
 20
-544.11387213802186
 30
0.0
 40
2.5
  1
D
 50
90.0
  0
TEXT
  5
81CE
  8
0
  6
CONTINUOUS
 62
     0
 10
-1899.6467754156629
 20
-541.59170297021831
 30
0.0
 40
1.7999999999999989
  1
g6
 50
90.0
  0
ENDBLK
  5
81D0
  8
0
 62
     7
  0
BLOCK
  8
0
 62
     7
  2
*U42
 70
     1
 10
0.0
 20
0.0
 30
0.0
  3
*U42
  1

  0
SOLID
  5
81D2
  8
0
  6
CONTINUOUS
 62
     7
 10
-1909.237391942125
 20
-534.97191238061214
 30
0.0
 11
-1908.6564847072571
 21
-536.37727595793945
 31
0.0
 12
-1909.661785143697
 22
-535.23628032583008
 32
0.0
 13
-1909.661785143697
 23
-535.23628032583008
 33
0.0
  0
POLYLINE
  5
81D3
  8
0
  6
CONTINUOUS
 62
     7
 66
     1
 10
0.0
 20
0.0
 30
0.0
  0
VERTEX
  5
81D4
  8
0
  6
CONTINUOUS
 62
     7
 10
-1909.449588542911
 20
-535.10409635322105
 30
0.0
  0
VERTEX
  5
81D5
  8
0
  6
CONTINUOUS
 62
     7
 10
-1911.5520096631569
 20
-531.72905317414131
 30
0.0
  0
VERTEX
  5
81D6
  8
0
  6
CONTINUOUS
 62
     7
 10
-1915.422568038792
 20
-531.72905317414131
 30
0.0
  0
SEQEND
  5
81D7
  8
0
  6
CONTINUOUS
 62
     7
  0
ENDBLK
  5
81D9
  8
0
 62
     7
  0
BLOCK
  8
0
 62
     7
  2
*U43
 70
     1
 10
0.0
 20
0.0
 30
0.0
  3
*U43
  1

  0
TEXT
  5
81DB
  8
0
  6
CONTINUOUS
 62
     7
 10
-1916.6969619141801
 20
-530.72905317414131
 30
0.0
 40
2.5
  1
M
  0
ENDBLK
  5
81DD
  8
0
 62
     7
  0
BLOCK
  8
0
 62
     7
  2
*U44
 70
     1
 10
0.0
 20
0.0
 30
0.0
  3
*U44
  1

  0
SOLID
  5
81DF
  8
0
  6
CONTINUOUS
 62
     7
 10
-1895.2487410663839
 20
-535.29727595793963
 30
0.0
 11
-1896.3287410663841
 21
-536.37727595793945
 31
0.0
 12
-1894.168741066384
 22
-536.37727595793945
 32
0.0
 13
-1894.168741066384
 23
-536.37727595793945
 33
0.0
210
0.0
220
0.0
230
1.0
  0
SOLID
  5
81E0
  8
0
  6
CONTINUOUS
 62
     7
 10
-1896.3287410663841
 20
-536.37727595793945
 30
0.0
 11
-1896.3287410663841
 21
-536.37727595793945
 31
0.0
 12
-1894.168741066384
 22
-536.37727595793945
 32
0.0
 13
-1894.168741066384
 23
-536.37727595793945
 33
0.0
210
0.0
220
0.0
230
1.0
  0
LINE
  5
81E1
  8
0
  6
CONTINUOUS
 62
     7
 10
-1895.2487410663839
 20
-535.29727595793963
 30
0.0
 11
-1896.3287410663841
 21
-536.37727595793945
 31
0.0
  0
LINE
  5
81E2
  8
0
  6
CONTINUOUS
 62
     7
 10
-1894.168741066384
 20
-536.37727595793945
 30
0.0
 11
-1895.2487410663839
 21
-535.29727595793963
 31
0.0
  0
LINE
  5
81E3
  8
0
  6
CONTINUOUS
 62
     7
 10
-1896.3287410663841
 20
-536.37727595793945
 30
0.0
 11
-1894.168741066384
 21
-536.37727595793945
 31
0.0
  0
ENDBLK
  5
81E5
  8
0
 62
     7
  0
BLOCK
  8
0
 62
     7
  2
*U45
 70
     1
 10
0.0
 20
0.0
 30
0.0
  3
*U45
  1

  0
TEXT
  5
8207
  8
0
  6
CONTINUOUS
 62
     0
 10
52.166666666666657
 20
33.771802155620207
 30
0.0
 40
2.5
  1
6
  0
ENDBLK
  5
8209
  8
0
 62
     7
  0
BLOCK
  8
0
 62
     7
  2
*U46
 70
     1
 10
0.0
 20
0.0
 30
0.0
  3
*U46
  1

  0
TEXT
  5
820B
  8
0
  6
CONTINUOUS
 62
     0
 10
59.166666666666657
 20
33.771802155620207
 30
0.0
 40
2.5
  1
8
  0
ENDBLK
  5
820D
  8
0
 62
     7
  0
BLOCK
  8
0
 62
     7
  2
*U47
 70
     1
 10
0.0
 20
0.0
 30
0.0
  3
*U47
  1

  0
TEXT
  5
820F
  8
0
  6
CONTINUOUS
 62
     0
 10
69.833333333333329
 20
33.771802155620207
 30
0.0
 40
2.5
  1
15
  0
ENDBLK
  5
8211
  8
0
 62
     7
  0
BLOCK
  8
0
 62
     7
  2
*U48
 70
     1
 10
0.0
 20
0.0
 30
0.0
  3
*U48
  1

  0
TEXT
  5
8213
  8
0
  6
CONTINUOUS
 62
     0
 10
64.666666666666671
 20
39.578984182967702
 30
0.0
 40
2.5
  1
3
  0
ENDBLK
  5
8215
  8
0
 62
     7
  0
BLOCK
  8
0
 62
     7
  2
*U49
 70
     1
 10
0.0
 20
0.0
 30
0.0
  3
*U49
  1

  0
TEXT
  5
8217
  8
0
  6
CONTINUOUS
 62
     0
 10
74.016025078113941
 20
47.29166668879742
 30
0.0
 40
2.5
  1
60Åã
 50
90.0
  0
ENDBLK
  5
8219
  8
0
 62
     7
  0
BLOCK
  8
0
 62
     7
  2
*U50
 70
     1
 10
0.0
 20
0.0
 30
0.0
  3
*U50
  1

  0
TEXT
  5
821B
  8
0
  6
CONTINUOUS
 62
     0
 10
79.666666666666671
 20
33.771802155620207
 30
0.0
 40
2.5
  1
3
  0
ENDBLK
  5
821D
  8
0
 62
     7
  0
BLOCK
  8
0
 62
     7
  2
*U51
 70
     1
 10
0.0
 20
0.0
 30
0.0
  3
*U51
  1

  0
TEXT
  5
821F
  8
0
  6
CONTINUOUS
 62
     0
 10
132.3667727566847
 20
47.291666666666671
 30
0.0
 40
2.5
  1
9,8
 50
90.0
  0
ENDBLK
  5
8221
  8
0
 62
     7
  0
BLOCK
  8
0
 62
     7
  2
*U52
 70
     1
 10
0.0
 20
0.0
 30
0.0
  3
*U52
  1

  0
TEXT
  5
8223
  8
0
  6
CONTINUOUS
 62
     0
 10
111.38760570828541
 20
33.644739220922261
 30
0.0
 40
2.5
  1
8,8
  0
ENDBLK
  5
8225
  8
0
 62
     7
  0
BLOCK
  8
0
 62
     7
  2
*U53
 70
     1
 10
0.0
 20
0.0
 30
0.0
  3
*U53
  1

  0
TEXT
  5
8227
  8
0
  6
CONTINUOUS
 62
     0
 10
112.76260570828541
 20
38.99899542586482
 30
0.0
 40
2.5
  1
3
  0
ENDBLK
  5
8229
  8
0
 62
     7
  0
BLOCK
  8
0
 62
     7
  2
*U54
 70
     1
 10
0.0
 20
0.0
 30
0.0
  3
*U54
  1

  0
TEXT
  5
822B
  8
0
  6
CONTINUOUS
 62
     0
 10
110.88760570828531
 20
61.757695748986372
 30
0.0
 40
2.5
  1
60Åã
  0
ENDBLK
  5
822D
  8
0
 62
     7
  0
BLOCK
  8
0
 62
     7
  2
*U55
 70
     1
 10
0.0
 20
0.0
 30
0.0
  3
*U55
  1

  0
TEXT
  5
822F
  8
0
  6
CONTINUOUS
 62
     0
 10
43.65504653883864
 20
49.166666666666671
 30
0.0
 40
2.5
  1
6
 50
90.0
  0
ENDBLK
  5
8231
  8
0
 62
     7
  0
ENDSEC
  0
SECTION
  2
ENTITIES
  0
LINE
  5
4E3C
  8
CENTER
  6
CENTER
 62
     1
 10
48.0
 20
50.0
 30
0.0
 11
84.0
 21
50.0
 31
0.0
  0
LINE
  5
4E3D
  8
0
  6
CONTINUOUS
 62
     7
 10
64.0
 20
54.899999999999977
 30
0.0
 11
79.0
 21
54.899999999999977
 31
0.0
  0
LINE
  5
4E42
  8
0
  6
CONTINUOUS
 62
     7
 10
56.0
 20
47.000000000000007
 30
0.0
 11
62.999994976979217
 21
47.0
 31
0.0
  0
LINE
  5
4E46
  8
0
  6
CONTINUOUS
 62
     7
 10
56.0
 20
52.999999999999993
 30
0.0
 11
62.999994976979217
 21
53.0
 31
0.0
  0
LINE
  5
4E57
  8
0
  6
CONTINUOUS
 62
     7
 10
56.0
 20
47.0
 30
0.0
 11
56.0
 21
53.0
 31
0.0
  0
LINE
  5
4E58
  8
0
  6
CONTINUOUS
 62
     7
 10
64.0
 20
45.099999999999973
 30
0.0
 11
64.0
 21
54.899999999999977
 31
0.0
  0
LINE
  5
4E59
  8
0
  6
CONTINUOUS
 62
     7
 10
67.0
 20
45.335238484123742
 30
0.0
 11
67.0
 21
54.664761515876251
 31
0.0
  0
LINE
  5
4E5A
  8
0
  6
CONTINUOUS
 62
     7
 10
79.0
 20
45.100000000000023
 30
0.0
 11
79.0
 21
45.335238484123721
 31
0.0
  0
LINE
  5
4E63
  8
0
  6
CONTINUOUS
 62
     7
 10
64.0
 20
45.099999999999973
 30
0.0
 11
79.0
 21
45.099999999999973
 31
0.0
  0
LINE
  5
4E66
  8
0
  6
CONTINUOUS
 62
     7
 10
79.0
 20
54.899999999999977
 30
0.0
 11
82.0
 21
53.167949134571273
 31
0.0
  0
LINE
  5
4E67
  8
0
  6
CONTINUOUS
 62
     7
 10
79.0
 20
45.099999999999973
 30
0.0
 11
82.0
 21
46.832050749709019
 31
0.0
  0
POLYLINE
  5
4E6C
  8
0
  6
CONTINUOUS
 62
     7
 66
     1
 10
0.0
 20
0.0
 30
0.0
  0
VERTEX
  5
8200
  8
0
  6
CONTINUOUS
 62
     7
 10
63.99999497697695
 20
52.899999999999629
 30
0.0
  0
VERTEX
  5
8201
  8
0
  6
CONTINUOUS
 62
     7
 10
62.999994976979217
 20
52.899999999999629
 30
0.0
  0
SEQEND
  5
8202
  8
0
  6
CONTINUOUS
 62
     7
  0
POLYLINE
  5
4E73
  8
0
  6
CONTINUOUS
 62
     7
 66
     1
 10
0.0
 20
0.0
 30
0.0
  0
VERTEX
  5
8203
  8
0
  6
CONTINUOUS
 62
     7
 10
63.99999497697695
 20
47.100000000000357
 30
0.0
  0
VERTEX
  5
8204
  8
0
  6
CONTINUOUS
 62
     7
 10
62.999994976979217
 20
47.100000000000357
 30
0.0
  0
SEQEND
  5
8205
  8
0
  6
CONTINUOUS
 62
     7
  0
LINE
  5
4E74
  8
0
  6
CONTINUOUS
 62
     7
 10
62.999994976979217
 20
53.0
 30
0.0
 11
62.999994976979217
 21
47.0
 31
0.0
  0
LINE
  5
4E7E
  8
CENTER
  6
CENTER
 62
     1
 10
113.59593904161871
 20
43.100000000000023
 30
0.0
 11
113.59593904161871
 21
56.900000000000027
 31
0.0
  0
ARC
  5
4E81
  8
0
  6
CONTINUOUS
 62
     7
 10
113.59593904161871
 20
50.0
 30
0.0
 40
4.900000000000027
 50
217.25791600131191
 51
142.74208399868809
  0
CIRCLE
  5
4E82
  8
0
  6
DASHED
 62
     3
 10
113.59593904161871
 20
50.0
 30
0.0
 40
3.0000000000000071
  0
CIRCLE
  5
4E89
  8
0
  6
DASHED
 62
     3
 10
113.59593904161871
 20
50.0
 30
0.0
 40
2.4584999999999999
  0
LINE
  5
4E8C
  8
CENTER
  6
CENTER
 62
     1
 10
120.4959390416187
 20
50.0
 30
0.0
 11
106.6959390416186
 21
50.0
 31
0.0
  0
LINE
  5
4E8D
  8
0
  6
CONTINUOUS
 62
     7
 10
112.09593904161871
 20
54.664761515876251
 30
0.0
 11
109.4027377247221
 21
50.0
 31
0.0
  0
LINE
  5
4E8E
  8
0
  6
CONTINUOUS
 62
     7
 10
115.09593904161871
 20
54.664761515876251
 30
0.0
 11
117.7891403585153
 21
49.999999999999943
 31
0.0
  0
LINE
  5
4E8F
  8
0
  6
CONTINUOUS
 62
     7
 10
112.09593904161871
 20
45.335238484123742
 30
0.0
 11
109.4027377247221
 21
50.0
 31
0.0
  0
LINE
  5
4E90
  8
0
  6
CONTINUOUS
 62
     7
 10
115.09593904161871
 20
45.335238484123742
 30
0.0
 11
117.7891403585153
 21
49.999999999999943
 31
0.0
  0
LINE
  5
4E9A
  8
0
  6
CONTINUOUS
 62
     7
 10
109.6959390416186
 20
47.033520605161748
 30
0.0
 11
109.6959390416186
 21
49.492160422289089
 31
0.0
  0
LINE
  5
4E9B
  8
0
  6
DASHED
 62
     3
 10
109.6959390416186
 20
49.492160422289089
 30
0.0
 11
109.6959390416186
 21
50.507839577710911
 31
0.0
  0
LINE
  5
4E9C
  8
0
  6
CONTINUOUS
 62
     7
 10
109.6959390416186
 20
50.507839577710968
 30
0.0
 11
109.6959390416186
 21
52.966479394838252
 31
0.0
  0
LINE
  5
4E9D
  8
0
  6
CONTINUOUS
 62
     7
 10
67.0
 20
52.966479394838252
 30
0.0
 11
64.0
 21
52.966479394838252
 31
0.0
  0
LINE
  5
4E9E
  8
0
  6
CONTINUOUS
 62
     7
 10
67.0
 20
52.966479394838252
 30
0.0
 11
64.0
 21
52.966479394838252
 31
0.0
  0
LINE
  5
4E9F
  8
0
  6
CONTINUOUS
 62
     7
 10
67.0
 20
47.033520605161748
 30
0.0
 11
64.000000000000057
 21
47.033520605161748
 31
0.0
  0
LINE
  5
4EA0
  8
0
  6
CONTINUOUS
 62
     7
 10
67.0
 20
47.033520605161748
 30
0.0
 11
64.0
 21
47.033520605161748
 31
0.0
  0
LINE
  5
4EAC
  8
0
  6
CONTINUOUS
 62
     7
 10
67.0
 20
54.664761515876251
 30
0.0
 11
79.0
 21
54.664761515876251
 31
0.0
  0
LINE
  5
4EB7
  8
0
  6
CONTINUOUS
 62
     3
 10
63.99999497697695
 20
47.100000000000357
 30
0.0
 11
67.0
 21
52.966479394838252
 31
0.0
  0
LINE
  5
4EB8
  8
0
  6
CONTINUOUS
 62
     3
 10
64.0
 20
52.966479394838252
 30
0.0
 11
67.0
 21
47.033520605161748
 31
0.0
  0
ARC
  5
4EB9
  8
0
  6
CONTINUOUS
 62
     7
 10
79.0
 20
52.332380757938097
 30
0.0
 40
2.3323807579381319
 50
270.0
 51
42.434145088508743
  0
ARC
  5
4EBA
  8
0
  6
CONTINUOUS
 62
     7
 10
79.0
 20
52.332380757938097
 30
0.0
 40
2.3323807579381319
 50
77.565853253929902
 51
90.0
  0
LINE
  5
4EBB
  8
0
  6
CONTINUOUS
 62
     7
 10
67.0
 20
50.0
 30
0.0
 11
79.0
 21
50.0
 31
0.0
  0
ARC
  5
4EBC
  8
0
  6
CONTINUOUS
 62
     7
 10
79.0
 20
47.667619242061853
 30
0.0
 40
2.3323807579381319
 50
270.0
 51
282.43414811158328
  0
ARC
  5
4EBD
  8
0
  6
CONTINUOUS
 62
     7
 10
79.0
 20
47.667619242061853
 30
0.0
 40
2.3323807579381319
 50
317.56585023085552
 51
90.0
  0
LINE
  5
4EBE
  8
0
  6
CONTINUOUS
 62
     7
 10
67.0
 20
45.335238484123742
 30
0.0
 11
79.0
 21
45.335238484123742
 31
0.0
  0
LINE
  5
4EBF
  8
0
  6
CONTINUOUS
 62
     3
 10
67.0
 20
50.0
 30
0.0
 11
79.0
 21
54.664761515876251
 31
0.0
  0
LINE
  5
4EC0
  8
0
  6
CONTINUOUS
 62
     3
 10
67.0
 20
54.664761515876251
 30
0.0
 11
79.0
 21
50.0
 31
0.0
  0
LINE
  5
4EC1
  8
0
  6
CONTINUOUS
 62
     3
 10
79.0
 20
50.0
 30
0.0
 11
67.0
 21
45.335238484123742
 31
0.0
  0
LINE
  5
4EC2
  8
0
  6
CONTINUOUS
 62
     3
 10
67.0
 20
50.0
 30
0.0
 11
79.0
 21
45.335238484123742
 31
0.0
  0
CIRCLE
  5
4ECF
  8
0
  6
CONTINUOUS
 62
     7
 10
113.59593904161871
 20
50.0
 30
0.0
 40
0.5
  0
LINE
  5
4ED2
  8
0
  6
DASHED
 62
     3
 10
82.0
 20
50.499999999999943
 30
0.0
 11
81.133974596216135
 21
49.999999999999943
 31
0.0
  0
LINE
  5
4ED3
  8
0
  6
DASHED
 62
     3
 10
82.0
 20
49.499999999999602
 30
0.0
 11
81.133974596216135
 21
49.999999999999943
 31
0.0
  0
LINE
  5
4F21
  8
0
  6
CONTINUOUS
 62
     7
 10
82.0
 20
46.832050749709019
 30
0.0
 11
82.0
 21
53.167949134571273
 31
0.0
  0
TEXT
  5
7912
  8
0
  6
CONTINUOUS
 62
     7
 10
10.0
 20
10.0
 30
0.0
 40
2.0
  1
D-SNNDA06
  0
TEXT
  5
7913
  8
0
  6
CONTINUOUS
 62
     7
 10
10.0
 20
20.0
 30
0.0
 40
2.0
  1
D-SNNDA6-P9.8-B15-L8-A60-E3 
  0
LINE
  5
7AB6
  8
0
  6
CONTINUOUS
 62
     7
 10
79.0
 20
54.664761515876251
 30
0.0
 11
79.0
 21
54.900000000000027
 31
0.0
  0
CIRCLE
  5
8062
  8
0
  6
CONTINUOUS
 62
     7
 10
113.59593904161871
 20
50.0
 30
0.0
 40
3.1679491345712729
  0
LINE
  5
80B6
  8
0
  6
CONTINUOUS
 62
     7
 10
49.999999999999943
 20
47.541499999999999
 30
0.0
 11
50.000000000000057
 21
52.458500000000001
 31
0.0
  0
LINE
  5
80B8
  8
0
  6
CONTINUOUS
 62
     7
 10
56.000000000000007
 20
47.000000000000007
 30
0.0
 11
50.541499999999921
 21
47.0
 31
0.0
  0
LINE
  5
80BA
  8
0
  6
CONTINUOUS
 62
     3
 10
56.0
 20
47.541499999999999
 30
0.0
 11
49.999999999999943
 21
47.541499999999999
 31
0.0
  0
LINE
  5
80BB
  8
0
  6
CONTINUOUS
 62
     3
 10
56.0
 20
52.458500000000001
 30
0.0
 11
50.000000000000057
 21
52.458500000000001
 31
0.0
  0
LINE
  5
80BC
  8
0
  6
CONTINUOUS
 62
     7
 10
56.0
 20
53.0
 30
0.0
 11
50.54150000000007
 21
53.0
 31
0.0
  0
LINE
  5
80BF
  8
0
  6
CONTINUOUS
 62
     7
 10
50.54150000000007
 20
53.0
 30
0.0
 11
50.000000000000057
 21
52.458500000000001
 31
0.0
  0
LINE
  5
80C0
  8
0
  6
CONTINUOUS
 62
     7
 10
49.999999999999943
 20
47.541499999999999
 30
0.0
 11
50.541499999999921
 21
47.0
 31
0.0
  0
LINE
  5
80C1
  8
0
  6
CONTINUOUS
 62
     7
 10
50.541499999999921
 20
47.0
 30
0.0
 11
50.54150000000007
 21
53.0
 31
0.0
  0
LINE
  5
80C4
  8
0
  6
DASHED
 62
     3
 10
50.000000000000007
 20
49.49999999999973
 30
0.0
 11
50.866025403784541
 21
49.99999999999973
 31
0.0
  0
LINE
  5
80C5
  8
0
  6
DASHED
 62
     3
 10
50.000000000000007
 20
50.49999999999973
 30
0.0
 11
50.866025403784541
 21
49.99999999999973
 31
0.0
  0
LINE
  5
8132
  8
0
  6
CONTINUOUS
 62
     3
 10
56.541500000000013
 20
53.0
 30
0.0
 11
56.0
 21
52.458500000000001
 31
0.0
  0
LINE
  5
8133
  8
0
  6
CONTINUOUS
 62
     3
 10
55.999999999999879
 20
47.541499999999999
 30
0.0
 11
56.541499999999871
 21
47.0
 31
0.0
  0
ENDSEC
  0
EOF
