  0
SECTION
  2
HEADER
  9
$ACADVER
  1
AC1009
  9
$INSBASE
 10
0.0
 20
0.0
 30
0.0
  9
$EXTMIN
 10
-40.0
 20
-47.000000000000007
 30
0.0
  9
$EXTMAX
 10
86.0
 20
19.536531774094911
 30
0.0
  9
$LIMMIN
 10
0.0
 20
0.0
  9
$LIMMAX
 10
297.0
 20
210.0
  9
$ORTHOMODE
 70
     1
  9
$REGENMODE
 70
     1
  9
$FILLMODE
 70
     1
  9
$QTEXTMODE
 70
     0
  9
$MIRRTEXT
 70
     0
  9
$DRAGMODE
 70
     2
  9
$LTSCALE
 40
1.0
  9
$OSMODE
 70
    57
  9
$ATTMODE
 70
     1
  9
$TEXTSIZE
 40
6.4000000000000012
  9
$TRACEWID
 40
0.05
  9
$TEXTSTYLE
  7
STANDARD
  9
$CLAYER
  8
0
  9
$CELTYPE
  6
CONTINUOUS
  9
$CECOLOR
 62
     7
  9
$DIMSCALE
 40
1.0
  9
$DIMASZ
 40
3.0
  9
$DIMEXO
 40
1.0
  9
$DIMDLI
 40
0.0
  9
$DIMRND
 40
0.0
  9
$DIMDLE
 40
0.0
  9
$DIMEXE
 40
1.0
  9
$DIMTP
 40
0.0
  9
$DIMTM
 40
0.0
  9
$DIMTXT
 40
3.2000000000000002
  9
$DIMCEN
 40
0.0
  9
$DIMTSZ
 40
0.0
  9
$DIMTOL
 70
     0
  9
$DIMLIM
 70
     0
  9
$DIMTIH
 70
     0
  9
$DIMTOH
 70
     0
  9
$DIMSE1
 70
     0
  9
$DIMSE2
 70
     0
  9
$DIMTAD
 70
     1
  9
$DIMZIN
 70
     8
  9
$DIMBLK
  1

  9
$DIMASO
 70
     1
  9
$DIMSHO
 70
     1
  9
$DIMPOST
  1

  9
$DIMAPOST
  1

  9
$DIMALT
 70
     0
  9
$DIMALTD
 70
     2
  9
$DIMALTF
 40
0.04
  9
$DIMLFAC
 40
1.0
  9
$DIMTOFL
 70
     1
  9
$DIMTVP
 40
1.0
  9
$DIMTIX
 70
     1
  9
$DIMSOXD
 70
     0
  9
$DIMSAH
 70
     0
  9
$DIMBLK1
  1

  9
$DIMBLK2
  1

  9
$DIMSTYLE
  2
MISUMI
  9
$DIMCLRD
 70
     0
  9
$DIMCLRE
 70
     0
  9
$DIMCLRT
 70
     0
  9
$DIMTFAC
 40
0.6
  9
$DIMGAP
 40
1.0
  9
$LUNITS
 70
     2
  9
$LUPREC
 70
     4
  9
$SKETCHINC
 40
0.1
  9
$FILLETRAD
 40
0.3
  9
$AUNITS
 70
     0
  9
$AUPREC
 70
     0
  9
$MENU
  1
acad
  9
$ELEVATION
 40
0.0
  9
$PELEVATION
 40
0.0
  9
$THICKNESS
 40
0.0
  9
$LIMCHECK
 70
     0
  9
$BLIPMODE
 70
     1
  9
$CHAMFERA
 40
0.5
  9
$CHAMFERB
 40
0.5
  9
$SKPOLY
 70
     0
  9
$TDCREATE
 40
2453775.6173374201
  9
$TDUPDATE
 40
2453776.7086695139
  9
$TDINDWG
 40
0.0003260532
  9
$TDUSRTIMER
 40
0.0003260532
  9
$USRTIMER
 70
     1
  9
$ANGBASE
 50
0.0
  9
$ANGDIR
 70
     0
  9
$PDMODE
 70
     0
  9
$PDSIZE
 40
0.0
  9
$PLINEWID
 40
0.0
  9
$COORDS
 70
     0
  9
$SPLFRAME
 70
     0
  9
$SPLINETYPE
 70
     6
  9
$SPLINESEGS
 70
     8
  9
$ATTDIA
 70
     0
  9
$ATTREQ
 70
     1
  9
$HANDLING
 70
     1
  9
$HANDSEED
  5
5F6
  9
$SURFTAB1
 70
     6
  9
$SURFTAB2
 70
     6
  9
$SURFTYPE
 70
     6
  9
$SURFU
 70
     6
  9
$SURFV
 70
     6
  9
$UCSNAME
  2

  9
$UCSORG
 10
0.0
 20
0.0
 30
0.0
  9
$UCSXDIR
 10
1.0
 20
0.0
 30
0.0
  9
$UCSYDIR
 10
0.0
 20
1.0
 30
0.0
  9
$PUCSNAME
  2

  9
$PUCSORG
 10
0.0
 20
0.0
 30
0.0
  9
$PUCSXDIR
 10
1.0
 20
0.0
 30
0.0
  9
$PUCSYDIR
 10
0.0
 20
1.0
 30
0.0
  9
$USERI1
 70
     0
  9
$USERI2
 70
     0
  9
$USERI3
 70
     0
  9
$USERI4
 70
     0
  9
$USERI5
 70
     0
  9
$USERR1
 40
0.0
  9
$USERR2
 40
0.0
  9
$USERR3
 40
0.0
  9
$USERR4
 40
0.0
  9
$USERR5
 40
0.0
  9
$WORLDVIEW
 70
     1
  9
$SHADEDGE
 70
     3
  9
$SHADEDIF
 70
    70
  9
$TILEMODE
 70
     1
  9
$MAXACTVP
 70
    16
  9
$PLIMCHECK
 70
     0
  9
$PEXTMIN
 10
1.0000000000000000E+020
 20
1.0000000000000000E+020
 30
1.0000000000000000E+020
  9
$PEXTMAX
 10
-1.0000000000000000E+020
 20
-1.0000000000000000E+020
 30
-1.0000000000000000E+020
  9
$PLIMMIN
 10
0.0
 20
0.0
  9
$PLIMMAX
 10
12.0
 20
9.0
  9
$UNITMODE
 70
     0
  9
$VISRETAIN
 70
     0
  9
$PLINEGEN
 70
     0
  9
$PSLTSCALE
 70
     1
  0
ENDSEC
  0
SECTION
  2
TABLES
  0
TABLE
  2
VPORT
 70
     2
  0
VPORT
  2
*ACTIVE
 70
     0
 10
0.0
 20
0.0
 11
1.0
 21
1.0
 12
23.00145775976296
 22
-13.737029678580599
 13
0.0
 23
0.0
 14
10.0
 24
10.0
 15
10.0
 25
10.0
 16
0.0
 26
0.0
 36
1.0
 17
0.0
 27
0.0
 37
0.0
 40
80.550535201571165
 41
1.5717852684144811
 42
50.0
 43
0.0
 44
0.0
 50
0.0
 51
0.0
 71
     0
 72
   100
 73
     1
 74
     3
 75
     0
 76
     0
 77
     0
 78
     0
  0
ENDTAB
  0
TABLE
  2
LTYPE
 70
     2
  0
LTYPE
  2
CONTINUOUS
 70
     0
  3
Solid line
 72
    65
 73
     0
 40
0.0
  0
LTYPE
  2
CENTER
 70
     0
  3
Center ____ _ ____ _ ____ _ ____ _ ____ _ ____
 72
    65
 73
     4
 40
2.0
 49
1.25
 49
-0.25
 49
0.25
 49
-0.25
  0
ENDTAB
  0
TABLE
  2
LAYER
 70
     2
  0
LAYER
  2
0
 70
     0
 62
     7
  6
CONTINUOUS
  0
LAYER
  2
CENTER
 70
     0
 62
     1
  6
CENTER
  0
ENDTAB
  0
TABLE
  2
STYLE
 70
     1
  0
STYLE
  2
STANDARD
 70
     0
 40
0.0
 41
1.0
 50
0.0
 71
     0
 42
6.4000000000000012
  3
txt.shx
  4
bigfont.shx
  0
ENDTAB
  0
TABLE
  2
VIEW
 70
     0
  0
ENDTAB
  0
TABLE
  2
UCS
 70
     0
  0
ENDTAB
  0
TABLE
  2
APPID
 70
     4
  0
APPID
  2
ACAD
 70
     0
  0
APPID
  2
ACAD_DSTYLE_DIMTEXT_FILL
 70
     0
  0
APPID
  2
ACAD_PSEXT
 70
     0
  0
APPID
  2
ACAECLAYERSTANDARD
 70
     0
  0
ENDTAB
  0
TABLE
  2
DIMSTYLE
 70
     1
  0
DIMSTYLE
  2
MISUMI
 70
     0
  3

  4

  5

  6

  7

 40
1.0
 41
3.0
 42
1.0
 43
0.0
 44
1.0
 45
0.0
 46
0.0
 47
0.0
 48
0.0
140
3.2000000000000002
141
0.0
142
0.0
143
0.04
144
1.0
145
1.0
146
0.6
147
1.0
 71
     0
 72
     0
 73
     0
 74
     0
 75
     0
 76
     0
 77
     1
 78
     8
170
     0
171
     2
172
     1
173
     0
174
     1
175
     0
176
     0
177
     0
178
     0
  0
ENDTAB
  0
ENDSEC
  0
SECTION
  2
BLOCKS
  0
BLOCK
  8
0
  2
$MODEL_SPACE
 70
     0
 10
0.0
 20
0.0
 30
0.0
  3
$MODEL_SPACE
  1

  0
ENDBLK
  5
3EA
  8
0
  0
BLOCK
 67
     1
  8
0
  2
$PAPER_SPACE
 70
     0
 10
0.0
 20
0.0
 30
0.0
  3
$PAPER_SPACE
  1

  0
ENDBLK
  5
3E6
 67
     1
  8
0
  0
ENDSEC
  0
SECTION
  2
ENTITIES
  0
LINE
  5
587
  8
CENTER
  6
CENTER
 62
     1
 10
0.0
 20
19.536531774094911
 30
0.0
 11
0.0
 21
-9.5372857672790712
 31
0.0
  0
LINE
  5
588
  8
0
  6
CONTINUOUS
 62
     7
 10
13.000090000000011
 20
17.5001
 30
0.0
 11
13.000090000000011
 21
-7.0
 31
0.0
  0
LINE
  5
589
  8
0
  6
CONTINUOUS
 62
     7
 10
-13.0
 20
17.5001
 30
0.0
 11
-13.0
 21
-7.0
 31
0.0
  0
TEXT
  5
58A
  8
0
  6
CONTINUOUS
 62
     7
 10
-40.0
 20
-47.0
 30
0.0
 40
2.0
  1
HRLFLJ3
  0
TEXT
  5
58B
  8
0
  6
CONTINUOUS
 62
     7
 10
-40.0
 20
-37.0
 30
0.0
 40
2.0
  1
HRLFLJ3-50
  0
LINE
  5
58C
  8
0
  6
CONTINUOUS
 62
     7
 10
-13.0
 20
-7.0
 30
0.0
 11
-1.9999999999997859
 21
-7.0
 31
0.0
  0
LINE
  5
58D
  8
0
  6
CONTINUOUS
 62
     7
 10
-6.7000200000000163
 20
-2.00010000000001
 30
0.0
 11
6.6999500000000012
 21
-2.00010000000001
 31
0.0
  0
LINE
  5
58E
  8
0
  6
CONTINUOUS
 62
     7
 10
-6.7000200000000163
 20
-5.0
 30
0.0
 11
-2.0
 21
-5.0
 31
0.0
  0
LINE
  5
58F
  8
0
  6
CONTINUOUS
 62
     7
 10
-11.0
 20
-2.2999999999999972
 30
0.0
 11
-11.0
 21
-4.6998999999999924
 31
0.0
  0
LINE
  5
590
  8
0
  6
CONTINUOUS
 62
     7
 10
-9.0000299999999882
 20
-2.2999999999999972
 30
0.0
 11
-9.0000299999999882
 21
-4.6998999999999924
 31
0.0
  0
LINE
  5
591
  8
0
  6
CONTINUOUS
 62
     7
 10
-10.70000000000001
 20
-4.9998999999999816
 30
0.0
 11
-9.3000299999999996
 21
-4.9998999999999816
 31
0.0
  0
LINE
  5
592
  8
0
  6
CONTINUOUS
 62
     7
 10
-10.70000000000001
 20
-2.0
 30
0.0
 11
-9.3000299999999996
 21
-2.0
 31
0.0
  0
ARC
  5
593
  8
0
  6
CONTINUOUS
 62
     7
 10
-9.3000299999999996
 20
-4.6998999999999924
 30
0.0
 40
0.3
 50
270.0
 51
0.0
  0
ARC
  5
594
  8
0
  6
CONTINUOUS
 62
     7
 10
-10.70000000000001
 20
-4.6998999999999924
 30
0.0
 40
0.3
 50
180.0
 51
270.0
  0
ARC
  5
595
  8
0
  6
CONTINUOUS
 62
     7
 10
-9.3000299999999996
 20
-2.2999999999999972
 30
0.0
 40
0.3
 50
0.0
 51
90.0
  0
ARC
  5
596
  8
0
  6
CONTINUOUS
 62
     7
 10
-10.70000000000001
 20
-2.2999999999999972
 30
0.0
 40
0.3
 50
90.0
 51
180.0
  0
LINE
  5
597
  8
0
  6
CONTINUOUS
 62
     7
 10
-7.0000200000000063
 20
-2.3001000000000071
 30
0.0
 11
-7.0000200000000063
 21
-4.700000000000002
 31
0.0
  0
ARC
  5
598
  8
0
  6
CONTINUOUS
 62
     7
 10
-6.7000200000000163
 20
-4.700000000000002
 30
0.0
 40
0.3
 50
180.0
 51
270.0
  0
ARC
  5
599
  8
0
  6
CONTINUOUS
 62
     7
 10
-6.7000200000000163
 20
-2.3001000000000071
 30
0.0
 40
0.3
 50
90.0
 51
180.0
  0
LINE
  5
59A
  8
0
  6
CONTINUOUS
 62
     7
 10
2.0
 20
-7.0
 30
0.0
 11
13.000090000000011
 21
-7.0
 31
0.0
  0
LINE
  5
59B
  8
0
  6
CONTINUOUS
 62
     7
 10
2.0
 20
-5.0
 30
0.0
 11
6.6999500000000012
 21
-5.0
 31
0.0
  0
LINE
  5
59C
  8
0
  6
CONTINUOUS
 62
     7
 10
-1.5
 20
-5.5
 30
0.0
 11
-1.5
 21
-6.5
 31
0.0
  0
ARC
  5
59D
  8
0
  6
CONTINUOUS
 62
     7
 10
-2.0
 20
-6.5
 30
0.0
 40
0.5
 50
270.0
 51
0.0
  0
ARC
  5
59E
  8
0
  6
CONTINUOUS
 62
     7
 10
-2.0
 20
-5.5
 30
0.0
 40
0.5
 50
0.0
 51
90.0
  0
LINE
  5
59F
  8
0
  6
CONTINUOUS
 62
     7
 10
1.5
 20
-5.5
 30
0.0
 11
1.5
 21
-6.5
 31
0.0
  0
ARC
  5
5A0
  8
0
  6
CONTINUOUS
 62
     7
 10
2.0
 20
-6.5
 30
0.0
 40
0.5
 50
180.0
 51
270.0
  0
ARC
  5
5A1
  8
0
  6
CONTINUOUS
 62
     7
 10
2.0
 20
-5.5
 30
0.0
 40
0.5
 50
90.0
 51
180.0
  0
LINE
  5
5A2
  8
0
  6
CONTINUOUS
 62
     7
 10
6.9999499999999983
 20
-2.3001000000000071
 30
0.0
 11
6.9999499999999983
 21
-4.700000000000002
 31
0.0
  0
ARC
  5
5A3
  8
0
  6
CONTINUOUS
 62
     7
 10
6.6999500000000012
 20
-4.700000000000002
 30
0.0
 40
0.3
 50
270.0
 51
0.0
  0
ARC
  5
5A4
  8
0
  6
CONTINUOUS
 62
     7
 10
6.6999500000000012
 20
-2.3001000000000071
 30
0.0
 40
0.3
 50
0.0
 51
90.0
  0
LINE
  5
5A5
  8
0
  6
CONTINUOUS
 62
     7
 10
10.999969999999999
 20
-2.2999999999999972
 30
0.0
 11
10.999969999999999
 21
-4.6998999999999924
 31
0.0
  0
LINE
  5
5A6
  8
0
  6
CONTINUOUS
 62
     7
 10
9.0
 20
-2.2999999999999972
 30
0.0
 11
9.0
 21
-4.6998999999999924
 31
0.0
  0
LINE
  5
5A7
  8
0
  6
CONTINUOUS
 62
     7
 10
10.69996999999999
 20
-4.9998999999999816
 30
0.0
 11
9.2999999999999901
 21
-4.9998999999999816
 31
0.0
  0
LINE
  5
5A8
  8
0
  6
CONTINUOUS
 62
     7
 10
10.69996999999999
 20
-2.0
 30
0.0
 11
9.2999999999999901
 21
-2.0
 31
0.0
  0
ARC
  5
5A9
  8
0
  6
CONTINUOUS
 62
     7
 10
10.69996999999999
 20
-4.6998999999999924
 30
0.0
 40
0.3
 50
270.0
 51
0.0
  0
ARC
  5
5AA
  8
0
  6
CONTINUOUS
 62
     7
 10
9.2999999999999901
 20
-4.6998999999999924
 30
0.0
 40
0.3
 50
180.0
 51
270.0
  0
ARC
  5
5AB
  8
0
  6
CONTINUOUS
 62
     7
 10
10.69996999999999
 20
-2.2999999999999972
 30
0.0
 40
0.3
 50
0.0
 51
90.0
  0
ARC
  5
5AC
  8
0
  6
CONTINUOUS
 62
     7
 10
9.2999999999999901
 20
-2.2999999999999972
 30
0.0
 40
0.3
 50
90.0
 51
180.0
  0
LINE
  5
5AD
  8
0
  6
CONTINUOUS
 62
     7
 10
-4.4999699999999967
 20
18.0001
 30
0.0
 11
-3.4999699999999971
 21
18.0001
 31
0.0
  0
LINE
  5
5AE
  8
0
  6
CONTINUOUS
 62
     7
 10
-4.9999699999999967
 20
17.5001
 30
0.0
 11
-4.9999699999999967
 21
0.2000000000000028
 31
0.0
  0
LINE
  5
5AF
  8
0
  6
CONTINUOUS
 62
     7
 10
-11.0
 20
17.5001
 30
0.0
 11
-11.0
 21
0.2000000000000028
 31
0.0
  0
LINE
  5
5B0
  8
0
  6
CONTINUOUS
 62
     7
 10
-10.800000000000001
 20
0.0
 30
0.0
 11
-5.1999700000000066
 21
0.0
 31
0.0
  0
ARC
  5
5B1
  8
0
  6
CONTINUOUS
 62
     7
 10
-10.800000000000001
 20
0.2000000000000028
 30
0.0
 40
0.2
 50
180.0
 51
270.0
  0
ARC
  5
5B2
  8
0
  6
CONTINUOUS
 62
     7
 10
-5.1999700000000066
 20
0.2000000000000028
 30
0.0
 40
0.2
 50
270.0
 51
0.0
  0
LINE
  5
5B3
  8
0
  6
CONTINUOUS
 62
     7
 10
-12.5
 20
18.0001
 30
0.0
 11
-11.5
 21
18.0001
 31
0.0
  0
ARC
  5
5B4
  8
0
  6
CONTINUOUS
 62
     7
 10
-12.5
 20
17.5001
 30
0.0
 40
0.5
 50
90.0
 51
180.0
  0
ARC
  5
5B5
  8
0
  6
CONTINUOUS
 62
     7
 10
-11.5
 20
17.5001
 30
0.0
 40
0.5
 50
0.0
 51
90.0
  0
ARC
  5
5B6
  8
0
  6
CONTINUOUS
 62
     7
 10
-4.4999699999999967
 20
17.5001
 30
0.0
 40
0.5
 50
90.0
 51
180.0
  0
LINE
  5
5B7
  8
0
  6
CONTINUOUS
 62
     7
 10
11.50009
 20
18.0001
 30
0.0
 11
12.500090000000011
 21
18.0001
 31
0.0
  0
LINE
  5
5B8
  8
0
  6
CONTINUOUS
 62
     7
 10
3.0000599999999968
 20
17.5001
 30
0.0
 11
3.0000599999999968
 21
0.2000000000000028
 31
0.0
  0
LINE
  5
5B9
  8
0
  6
CONTINUOUS
 62
     7
 10
-2.9999699999999971
 20
17.5001
 30
0.0
 11
-2.9999699999999971
 21
0.2000000000000028
 31
0.0
  0
LINE
  5
5BA
  8
0
  6
CONTINUOUS
 62
     7
 10
5.0000599999999968
 20
17.5001
 30
0.0
 11
5.0000599999999968
 21
0.2000000000000028
 31
0.0
  0
LINE
  5
5BB
  8
0
  6
CONTINUOUS
 62
     7
 10
11.00009
 20
17.5001
 30
0.0
 11
11.00009
 21
0.2000000000000028
 31
0.0
  0
LINE
  5
5BC
  8
0
  6
CONTINUOUS
 62
     7
 10
-2.799970000000001
 20
0.0
 30
0.0
 11
2.8000600000000011
 21
0.0
 31
0.0
  0
ARC
  5
5BD
  8
0
  6
CONTINUOUS
 62
     7
 10
-2.799970000000001
 20
0.2000000000000028
 30
0.0
 40
0.2
 50
180.0
 51
270.0
  0
ARC
  5
5BE
  8
0
  6
CONTINUOUS
 62
     7
 10
2.8000600000000011
 20
0.2000000000000028
 30
0.0
 40
0.2
 50
270.0
 51
0.0
  0
LINE
  5
5BF
  8
0
  6
CONTINUOUS
 62
     7
 10
5.2000600000000068
 20
0.0
 30
0.0
 11
10.80009000000001
 21
0.0
 31
0.0
  0
ARC
  5
5C0
  8
0
  6
CONTINUOUS
 62
     7
 10
5.2000600000000068
 20
0.2000000000000028
 30
0.0
 40
0.2
 50
180.0
 51
270.0
  0
ARC
  5
5C1
  8
0
  6
CONTINUOUS
 62
     7
 10
10.80009000000001
 20
0.2000000000000028
 30
0.0
 40
0.2
 50
270.0
 51
0.0
  0
LINE
  5
5C2
  8
0
  6
CONTINUOUS
 62
     7
 10
3.5000599999999968
 20
18.0001
 30
0.0
 11
4.5000600000000111
 21
18.0001
 31
0.0
  0
ARC
  5
5C3
  8
0
  6
CONTINUOUS
 62
     7
 10
-3.4999699999999971
 20
17.5001
 30
0.0
 40
0.5
 50
0.0
 51
90.0
  0
ARC
  5
5C4
  8
0
  6
CONTINUOUS
 62
     7
 10
3.5000599999999968
 20
17.5001
 30
0.0
 40
0.5
 50
90.0
 51
180.0
  0
ARC
  5
5C5
  8
0
  6
CONTINUOUS
 62
     7
 10
4.5000600000000111
 20
17.5001
 30
0.0
 40
0.5
 50
0.0
 51
90.0
  0
ARC
  5
5C6
  8
0
  6
CONTINUOUS
 62
     7
 10
11.50009
 20
17.5001
 30
0.0
 40
0.5
 50
90.0
 51
180.0
  0
ARC
  5
5C7
  8
0
  6
CONTINUOUS
 62
     7
 10
12.500090000000011
 20
17.5001
 30
0.0
 40
0.5
 50
0.0
 51
90.0
  0
LINE
  5
5C8
  8
0
  6
CONTINUOUS
 62
     7
 10
35.999999999999993
 20
18.0
 30
0.0
 11
35.999999999999993
 21
-7.0
 31
0.0
  0
LINE
  5
5C9
  8
0
  6
CONTINUOUS
 62
     7
 10
86.0
 20
-7.0
 30
0.0
 11
86.0
 21
18.0
 31
0.0
  0
LINE
  5
5CA
  8
0
  6
CONTINUOUS
 62
     7
 10
35.999999999999993
 20
-7.0
 30
0.0
 11
86.0
 21
-7.0
 31
0.0
  0
LINE
  5
5CB
  8
0
  6
CONTINUOUS
 62
     7
 10
86.0
 20
18.0
 30
0.0
 11
35.999999999999993
 21
18.0
 31
0.0
  0
ENDSEC
  0
EOF
