  0
SECTION
  2
HEADER
  9
$ACADVER
  1
AC1009
  9
$INSBASE
 10
0.0
 20
0.0
 30
0.0
  9
$EXTMIN
 10
106.3310402440035
 20
77.266388518347412
 30
-0.0015258207003583
  9
$EXTMAX
 10
180.35897882720329
 20
148.29071086632399
 30
0.0000000349246037
  9
$LIMMIN
 10
0.0
 20
0.0
  9
$LIMMAX
 10
297.0
 20
210.0
  9
$ORTHOMODE
 70
     0
  9
$REGENMODE
 70
     1
  9
$FILLMODE
 70
     1
  9
$QTEXTMODE
 70
     0
  9
$MIRRTEXT
 70
     1
  9
$DRAGMODE
 70
     2
  9
$LTSCALE
 40
1.0
  9
$OSMODE
 70
   183
  9
$ATTMODE
 70
     1
  9
$TEXTSIZE
 40
6.4000000000000012
  9
$TRACEWID
 40
0.05
  9
$TEXTSTYLE
  7
STANDARD
  9
$CLAYER
  8
0
  9
$CELTYPE
  6
CONTINUOUS
  9
$CECOLOR
 62
     7
  9
$DIMSCALE
 40
1.0
  9
$DIMASZ
 40
3.0
  9
$DIMEXO
 40
1.0
  9
$DIMDLI
 40
0.0
  9
$DIMRND
 40
0.0
  9
$DIMDLE
 40
0.0
  9
$DIMEXE
 40
1.0
  9
$DIMTP
 40
0.0
  9
$DIMTM
 40
0.0
  9
$DIMTXT
 40
3.2000000000000002
  9
$DIMCEN
 40
0.0
  9
$DIMTSZ
 40
0.0
  9
$DIMTOL
 70
     0
  9
$DIMLIM
 70
     0
  9
$DIMTIH
 70
     0
  9
$DIMTOH
 70
     0
  9
$DIMSE1
 70
     0
  9
$DIMSE2
 70
     0
  9
$DIMTAD
 70
     1
  9
$DIMZIN
 70
     8
  9
$DIMBLK
  1

  9
$DIMASO
 70
     1
  9
$DIMSHO
 70
     1
  9
$DIMPOST
  1

  9
$DIMAPOST
  1

  9
$DIMALT
 70
     0
  9
$DIMALTD
 70
     2
  9
$DIMALTF
 40
0.04
  9
$DIMLFAC
 40
1.0
  9
$DIMTOFL
 70
     1
  9
$DIMTVP
 40
1.0
  9
$DIMTIX
 70
     1
  9
$DIMSOXD
 70
     0
  9
$DIMSAH
 70
     0
  9
$DIMBLK1
  1

  9
$DIMBLK2
  1

  9
$DIMSTYLE
  2
MISUMI
  9
$DIMCLRD
 70
     0
  9
$DIMCLRE
 70
     0
  9
$DIMCLRT
 70
     0
  9
$DIMTFAC
 40
0.6
  9
$DIMGAP
 40
1.0
  9
$LUNITS
 70
     2
  9
$LUPREC
 70
     4
  9
$SKETCHINC
 40
0.1
  9
$FILLETRAD
 40
0.3
  9
$AUNITS
 70
     0
  9
$AUPREC
 70
     0
  9
$MENU
  1
acad
  9
$ELEVATION
 40
0.0
  9
$PELEVATION
 40
0.0
  9
$THICKNESS
 40
0.0
  9
$LIMCHECK
 70
     0
  9
$BLIPMODE
 70
     0
  9
$CHAMFERA
 40
0.5
  9
$CHAMFERB
 40
0.5
  9
$SKPOLY
 70
     0
  9
$TDCREATE
 40
2451464.60066493
  9
$TDUPDATE
 40
2453826.5486212382
  9
$TDINDWG
 40
0.1944786806
  9
$TDUSRTIMER
 40
0.1944742824
  9
$USRTIMER
 70
     1
  9
$ANGBASE
 50
0.0
  9
$ANGDIR
 70
     0
  9
$PDMODE
 70
     0
  9
$PDSIZE
 40
0.0
  9
$PLINEWID
 40
0.0
  9
$COORDS
 70
     0
  9
$SPLFRAME
 70
     0
  9
$SPLINETYPE
 70
     6
  9
$SPLINESEGS
 70
     8
  9
$ATTDIA
 70
     0
  9
$ATTREQ
 70
     1
  9
$HANDLING
 70
 22529
  9
$HANDSEED
  5
27A7
  9
$SURFTAB1
 70
     6
  9
$SURFTAB2
 70
     6
  9
$SURFTYPE
 70
     6
  9
$SURFU
 70
     6
  9
$SURFV
 70
     6
  9
$UCSNAME
  2

  9
$UCSORG
 10
0.0
 20
0.0
 30
0.0
  9
$UCSXDIR
 10
1.0
 20
0.0
 30
0.0
  9
$UCSYDIR
 10
0.0
 20
1.0
 30
0.0
  9
$PUCSNAME
  2

  9
$PUCSORG
 10
0.0
 20
0.0
 30
0.0
  9
$PUCSXDIR
 10
1.0
 20
0.0
 30
0.0
  9
$PUCSYDIR
 10
0.0
 20
1.0
 30
0.0
  9
$USERI1
 70
     0
  9
$USERI2
 70
     0
  9
$USERI3
 70
     0
  9
$USERI4
 70
     0
  9
$USERI5
 70
     0
  9
$USERR1
 40
0.0
  9
$USERR2
 40
0.0
  9
$USERR3
 40
0.0
  9
$USERR4
 40
0.0
  9
$USERR5
 40
0.0
  9
$WORLDVIEW
 70
     1
  9
$SHADEDGE
 70
     3
  9
$SHADEDIF
 70
    70
  9
$TILEMODE
 70
     1
  9
$MAXACTVP
 70
    16
  9
$PLIMCHECK
 70
     0
  9
$PEXTMIN
 10
1.0000000000000000E+020
 20
1.0000000000000000E+020
 30
1.0000000000000000E+020
  9
$PEXTMAX
 10
-1.0000000000000000E+020
 20
-1.0000000000000000E+020
 30
-1.0000000000000000E+020
  9
$PLIMMIN
 10
0.0
 20
0.0
  9
$PLIMMAX
 10
12.0
 20
9.0
  9
$UNITMODE
 70
     0
  9
$VISRETAIN
 70
     0
  9
$PLINEGEN
 70
     0
  9
$PSLTSCALE
 70
     1
  0
ENDSEC
  0
SECTION
  2
TABLES
  0
TABLE
  2
VPORT
 70
     4
  0
VPORT
  2
*ACTIVE
 70
     0
 10
0.0
 20
0.0
 11
1.0
 21
1.0
 12
143.3450095356034
 22
112.7785496923357
 13
0.0
 23
0.0
 14
10.0
 24
10.0
 15
10.0
 25
10.0
 16
0.0
 26
0.0
 36
1.0
 17
0.0
 27
0.0
 37
0.0
 40
71.826857063772991
 41
1.8962264150943391
 42
50.0
 43
0.0
 44
0.0
 50
0.0
 51
0.0
 71
     0
 72
   100
 73
     1
 74
     0
 75
     0
 76
     0
 77
     0
 78
     0
  0
ENDTAB
  0
TABLE
  2
LTYPE
 70
     3
  0
LTYPE
  2
CONTINUOUS
 70
     0
  3
Solid line
 72
    65
 73
     0
 40
0.0
  0
LTYPE
  2
CENTER
 70
     0
  3
Center ____ _ ____ _ ____ _ ____ _ ____ _ ____
 72
    65
 73
     4
 40
2.0
 49
1.25
 49
-0.25
 49
0.25
 49
-0.25
  0
LTYPE
  2
DASHED
 70
     0
  3
Dashed __ __ __ __ __ __ __ __ __ __ __ __ __ _
 72
    65
 73
     2
 40
19.049999999999979
 49
12.699999999999999
 49
-6.3499999999999979
  0
ENDTAB
  0
TABLE
  2
LAYER
 70
     7
  0
LAYER
  2
0
 70
     0
 62
     7
  6
CONTINUOUS
  0
LAYER
  2
CENTER
 70
     0
 62
     1
  6
CENTER
  0
ENDTAB
  0
TABLE
  2
STYLE
 70
     2
  0
STYLE
  2
STANDARD
 70
     0
 40
0.0
 41
1.0
 50
0.0
 71
     0
 42
6.4000000000000012
  3
txt
  4

  0
ENDTAB
  0
TABLE
  2
VIEW
 70
     0
  0
ENDTAB
  0
TABLE
  2
UCS
 70
     0
  0
ENDTAB
  0
TABLE
  2
APPID
 70
     1
  0
APPID
  2
ACAD
 70
     0
  0
ENDTAB
  0
TABLE
  2
DIMSTYLE
 70
     2
  0
DIMSTYLE
  2
MISUMI
 70
     0
  3

  4

  5

  6

  7

 40
1.0
 41
3.0
 42
1.0
 43
0.0
 44
1.0
 45
0.0
 46
0.0
 47
0.0
 48
0.0
140
3.2000000000000002
141
0.0
142
0.0
143
0.04
144
1.0
145
1.0
146
0.6
147
1.0
 71
     0
 72
     0
 73
     0
 74
     0
 75
     0
 76
     0
 77
     1
 78
     8
170
     0
171
     2
172
     1
173
     0
174
     1
175
     0
176
     0
177
     0
178
     0
  0
ENDTAB
  0
ENDSEC
  0
SECTION
  2
BLOCKS
  0
BLOCK
  8
0
  2
$MODEL_SPACE
 70
     0
 10
0.0
 20
0.0
 30
0.0
  3
$MODEL_SPACE
  1

  0
ENDBLK
  5
24AB
  8
0
  0
BLOCK
 67
     1
  8
0
  2
$PAPER_SPACE
 70
     0
 10
0.0
 20
0.0
 30
0.0
  3
$PAPER_SPACE
  1

  0
ENDBLK
  5
24A7
 67
     1
  8
0
  0
ENDSEC
  0
SECTION
  2
ENTITIES
  0
LINE
  5
25F5
  8
0
 10
177.33688118188601
 20
86.280666772147413
 30
0.0
 11
174.33688118188601
 21
86.280666772147413
 31
0.0
  0
LINE
  5
25F6
  8
0
 10
177.33688118188601
 20
148.2806667721473
 30
0.0
 11
174.33688118188601
 21
148.2806667721473
 31
0.0
  0
LINE
  5
25F7
  8
CENTER
  6
CENTER
 62
     1
 10
143.33688118188601
 20
117.2806667721473
 30
0.0
 11
180.33688118188601
 21
117.2806667721473
 31
0.0
  0
LINE
  5
25F8
  8
0
 10
146.33688118188601
 20
117.2806667721473
 30
0.0
 11
146.33688118188601
 21
148.2806667721473
 31
0.0
  0
LINE
  5
25F9
  8
0
 10
174.33688118188601
 20
142.28066677214741
 30
0.0
 11
174.33688118188601
 21
117.2806667721473
 31
0.0
  0
LINE
  5
25FA
  8
0
 10
149.33688118188601
 20
142.2806667721473
 30
0.0
 11
149.33688118188601
 21
117.2806667721473
 31
0.0
  0
TEXT
  5
25FD
  8
0
 10
106.336881181886
 20
87.280666772147384
 30
0.0
 40
2.0
  1
TPBSN 50 - 25
  0
TEXT
  5
25FE
  8
0
 10
106.336881181886
 20
77.280666772147384
 30
0.0
 40
2.0
  1
TPBSN50
  0
LINE
  5
25FF
  8
0
 10
146.33688118188601
 20
117.2806667721473
 30
0.0
 11
146.33688118188601
 21
86.280666772147384
 31
0.0
  0
LINE
  5
2600
  8
0
 10
149.33688118188601
 20
92.280666772147384
 30
0.0
 11
149.33688118188601
 21
117.2806667721473
 31
0.0
  0
LINE
  5
2601
  8
0
 10
174.33688118188601
 20
92.280666772147384
 30
0.0
 11
174.33688118188601
 21
117.2806667721473
 31
0.0
  0
LINE
  5
2602
  8
0
 10
149.33688118188601
 20
92.280666772147384
 30
0.0
 11
174.33688118188601
 21
92.280666772147384
 31
0.0
  0
LINE
  5
2603
  8
0
 10
149.33688118188601
 20
86.280666772147384
 30
0.0
 11
149.33688118188601
 21
92.280666772147384
 31
0.0
  0
LINE
  5
2604
  8
0
 10
146.33688118188601
 20
86.280666772147384
 30
0.0
 11
149.33688118188601
 21
86.280666772147384
 31
0.0
  0
LINE
  5
2605
  8
0
 10
174.33688118188601
 20
86.280666772147413
 30
0.0
 11
174.33688118188601
 21
92.280666772147384
 31
0.0
  0
LINE
  5
2609
  8
0
  6
DASHED
 62
     3
 10
156.83688118188601
 20
105.5806667721473
 30
0.0
 11
149.33688118188601
 21
105.5806667721473
 31
0.0
  0
LINE
  5
260B
  8
0
  6
DASHED
 62
     3
 10
166.83688118188601
 20
105.5806667721473
 30
0.0
 11
174.33688118188601
 21
105.5806667721473
 31
0.0
  0
LINE
  5
260C
  8
0
 10
149.33688118188601
 20
148.2806667721473
 30
0.0
 11
149.33688118188601
 21
142.2806667721473
 31
0.0
  0
LINE
  5
260D
  8
0
 10
174.33688118188601
 20
148.2806667721473
 30
0.0
 11
174.33688118188601
 21
142.28066677214741
 31
0.0
  0
LINE
  5
260E
  8
0
 10
149.33688118188601
 20
142.2806667721473
 30
0.0
 11
174.33688118188601
 21
142.28066677214741
 31
0.0
  0
LINE
  5
2611
  8
0
  6
DASHED
 62
     3
 10
156.83688118188601
 20
128.9806667721474
 30
0.0
 11
149.33688118188601
 21
128.9806667721474
 31
0.0
  0
LINE
  5
2612
  8
0
  6
DASHED
 62
     3
 10
166.83688118188601
 20
128.9806667721474
 30
0.0
 11
174.33688118188601
 21
128.9806667721474
 31
0.0
  0
LINE
  5
2613
  8
0
 10
146.33688118188601
 20
148.2806667721473
 30
0.0
 11
149.33688118188601
 21
148.2806667721473
 31
0.0
  0
LINE
  5
2614
  8
0
 10
177.33688118188601
 20
117.2806667721473
 30
0.0
 11
177.33688118188601
 21
148.2806667721473
 31
0.0
  0
LINE
  5
2615
  8
0
 10
177.33688118188601
 20
117.2806667721473
 30
0.0
 11
177.33688118188601
 21
86.280666772147413
 31
0.0
  0
LINE
  5
26B1
  8
0
 10
165.65389118188591
 20
104.64771677214731
 30
0.0
 11
166.4039011818858
 21
105.3977367721473
 31
0.0
  0
LINE
  5
26B2
  8
0
 10
165.45389118188581
 20
104.7306967721473
 30
0.0
 11
166.20390118188581
 21
105.4807067721473
 31
0.0
  0
LINE
  5
26B3
  8
0
 10
165.970881181886
 20
104.13769677214729
 30
0.0
 11
166.1238711818859
 21
104.00969677214729
 31
0.0
  0
LINE
  5
26B4
  8
0
 10
166.09886118188589
 20
104.29072677214729
 30
0.0
 11
165.9708711818858
 21
104.1377267721473
 31
0.0
  0
LINE
  5
26B5
  8
0
 10
166.27686479979141
 20
103.88067916594331
 30
0.0
 11
166.0272360086953
 21
103.583170637333
 31
0.0
  0
LINE
  5
26B6
  8
0
 10
166.1238711818859
 20
104.00969677214729
 30
0.0
 11
165.87355145626921
 21
103.7113750027351
 31
0.0
  0
LINE
  5
26B7
  8
0
 10
165.75388118188599
 20
108.18067677214739
 30
0.0
 11
166.20388118188581
 21
108.18067677214739
 31
0.0
  0
LINE
  5
26B8
  8
0
 10
166.20388118188581
 20
108.3806867721473
 30
0.0
 11
165.75388118188599
 21
108.3806867721473
 31
0.0
  0
LINE
  5
26B9
  8
0
 10
166.33686118188581
 20
108.5807167721473
 30
0.0
 11
166.0612599574184
 21
108.90922144905051
 31
0.0
  0
ARC
  5
26BA
  8
0
 10
165.9080402914488
 20
108.7806767721473
 30
0.0
 40
0.2
 50
39.995196490473639
 51
89.999999999998366
  0
LINE
  5
26BB
  8
0
 10
165.45389118188581
 20
129.8306367721473
 30
0.0
 11
166.20390118188581
 21
129.0806267721473
 31
0.0
  0
LINE
  5
26BC
  8
0
 10
165.65389118188591
 20
129.91361677214729
 30
0.0
 11
166.4039011818858
 21
129.16359677214729
 31
0.0
  0
LINE
  5
26BD
  8
0
 10
166.1238711818859
 20
130.5516367721473
 30
0.0
 11
165.87355145626921
 21
130.84995854155949
 31
0.0
  0
LINE
  5
26BE
  8
0
 10
166.27686479979141
 20
130.68065437835139
 30
0.0
 11
166.0272360086953
 21
130.9781629069617
 31
0.0
  0
LINE
  5
26BF
  8
0
 10
166.09886118188589
 20
130.27060677214729
 30
0.0
 11
165.9708711818858
 21
130.42360677214731
 31
0.0
  0
LINE
  5
26C0
  8
0
 10
165.970881181886
 20
130.42363677214729
 30
0.0
 11
166.1238711818859
 21
130.5516367721473
 31
0.0
  0
LINE
  5
26C1
  8
0
 10
165.75388118188599
 20
126.3806567721473
 30
0.0
 11
166.20388118188581
 21
126.3806567721473
 31
0.0
  0
ARC
  5
26C2
  8
0
 10
165.9080402914488
 20
125.7806567721473
 30
0.0
 40
0.2
 50
270.00000000000159
 51
320.00480350952631
  0
LINE
  5
26C3
  8
0
 10
166.20388118188581
 20
126.1806467721473
 30
0.0
 11
165.75388118188599
 21
126.1806467721473
 31
0.0
  0
LINE
  5
26C4
  8
0
 10
166.33686118188581
 20
125.9806167721473
 30
0.0
 11
166.0612599574184
 21
125.65211209524411
 31
0.0
  0
LINE
  5
26C6
  8
0
 10
156.8368811818859
 20
132.6806667721473
 30
0.0
 11
156.83688118188579
 21
101.88066677214729
 31
0.0
  0
CIRCLE
  5
26C9
  8
0
 10
161.8368811818859
 20
106.2806667721473
 30
0.0
 40
2.7781500000000001
  0
CIRCLE
  5
26CA
  8
0
 10
161.8368811818859
 20
106.2806667721473
 30
0.0
 40
2.7781500000000001
  0
LINE
  5
26CB
  8
0
 10
158.21987118188579
 20
104.7306967721473
 30
0.0
 11
157.4698611818859
 21
105.4807067721473
 31
0.0
  0
LINE
  5
26CC
  8
0
 10
158.019871181886
 20
104.64771677214731
 30
0.0
 11
157.2698611818858
 21
105.3977367721473
 31
0.0
  0
LINE
  5
26CD
  8
0
 10
157.43688118188589
 20
101.2806667721473
 30
0.0
 11
166.23688118188599
 21
101.2806667721473
 31
0.0
  0
LINE
  5
26CE
  8
0
 10
156.93688118188581
 20
103.8806867721473
 30
0.0
 11
157.39689118220781
 21
103.8806867721473
 31
0.0
  0
ARC
  5
26CF
  8
0
 10
157.55010911655549
 20
104.0092335130403
 30
0.0
 40
0.2
 50
129.91297319674999
 51
219.99881271006959
  0
ARC
  5
26D0
  8
0
 10
156.93688118188581
 20
103.7806867721474
 30
0.0
 40
0.1
 50
90.0
 51
180.0
  0
LINE
  5
26D1
  8
0
 10
159.8368811818859
 20
101.2806667721473
 30
0.0
 11
159.8368811818859
 21
101.2807667721473
 31
0.0
  0
LINE
  5
26D2
  8
0
 10
158.33948228637061
 20
104.5806867721474
 30
0.0
 11
159.639581181886
 21
104.5806867721474
 31
0.0
  0
ARC
  5
26D3
  8
0
 10
158.33948228637061
 20
104.48068677214729
 30
0.0
 40
0.1
 50
90.0
 51
175.00317141833659
  0
LINE
  5
26D4
  8
0
 10
158.1752035401741
 20
103.7498719775128
 30
0.0
 11
158.2398623342923
 21
104.4893968323025
 31
0.0
  0
ARC
  5
26D5
  8
0
 10
157.87681559977571
 20
103.77565346819389
 30
0.0
 40
0.1
 50
219.9997789757324
 51
357.18021454557129
  0
LINE
  5
26D6
  8
0
 10
157.97669452066799
 20
103.7707340006005
 30
0.0
 11
158.0198911818859
 21
104.6477467721473
 31
0.0
  0
LINE
  5
26D7
  8
0
 10
157.54989118188581
 20
104.00969677214729
 30
0.0
 11
157.80021090750259
 21
103.7113750027351
 31
0.0
  0
ARC
  5
26D8
  8
0
 10
157.8763436839391
 20
103.7760021579784
 30
0.0
 40
0.3
 50
219.99881271006959
 51
355.00317141833739
  0
LINE
  5
26D9
  8
0
 10
157.3968975639803
 20
103.88067916594331
 30
0.0
 11
157.64652635507639
 21
103.583170637333
 31
0.0
  0
LINE
  5
26DA
  8
0
 10
157.57487118188581
 20
104.2906967721473
 30
0.0
 11
157.4217844524569
 21
104.16263749142431
 31
0.0
  0
LINE
  5
26DB
  8
0
 10
158.2198811818858
 20
104.26067677214731
 30
0.0
 11
158.2198811818858
 21
104.7306767721474
 31
0.0
  0
LINE
  5
26DC
  8
0
 10
157.57490118188591
 20
104.29072677214729
 30
0.0
 11
157.702891181886
 21
104.1377267721473
 31
0.0
  0
LINE
  5
26DD
  8
0
 10
157.70288118188591
 20
104.13769677214729
 30
0.0
 11
157.54989118188581
 21
104.00969677214729
 31
0.0
  0
LINE
  5
26DE
  8
0
 10
161.8368811818859
 20
101.2806667721473
 30
0.0
 11
161.83698118188599
 21
101.2806667721473
 31
0.0
  0
LINE
  5
26DF
  8
0
 10
165.33428007740119
 20
104.5806867721474
 30
0.0
 11
164.0341811818858
 21
104.5806867721474
 31
0.0
  0
LINE
  5
26E0
  8
0
 10
165.45388118188581
 20
104.26067677214731
 30
0.0
 11
165.45388118188581
 21
104.7306767721474
 31
0.0
  0
ARC
  5
26E1
  8
0
 10
165.79741867983279
 20
103.7760021579784
 30
0.0
 40
0.3
 50
184.9968285816625
 51
320.00118728992919
  0
LINE
  5
26E2
  8
0
 10
165.69706784310381
 20
103.7707340006005
 30
0.0
 11
165.65387118188599
 21
104.6477467721473
 31
0.0
  0
ARC
  5
26E3
  8
0
 10
165.796946763996
 20
103.77565346819389
 30
0.0
 40
0.1
 50
182.81978545442951
 51
320.00022102426749
  0
LINE
  5
26E4
  8
0
 10
165.4985588235977
 20
103.7498719775128
 30
0.0
 11
165.43390002947959
 21
104.4893968323025
 31
0.0
  0
ARC
  5
26E5
  8
0
 10
165.33428007740119
 20
104.48068677214729
 30
0.0
 40
0.1
 50
4.99682858166255
 51
90.0
  0
LINE
  5
26E6
  8
0
 10
157.43688118188589
 20
111.2806667721473
 30
0.0
 11
166.23688118188599
 21
111.2806667721473
 31
0.0
  0
LINE
  5
26E7
  8
0
 10
157.33690118188591
 20
108.5807167721473
 30
0.0
 11
157.61250240635329
 21
108.90922144905051
 31
0.0
  0
ARC
  5
26E8
  8
0
 10
157.4698811818858
 20
108.1806867721473
 30
0.0
 40
0.2
 50
90.0
 51
180.0
  0
LINE
  5
26E9
  8
0
 10
157.26988118188589
 20
105.3976867721473
 30
0.0
 11
157.26988118188589
 21
108.1806867721473
 31
0.0
  0
ARC
  5
26EA
  8
0
 10
157.0368811818858
 20
108.78068677214731
 30
0.0
 40
0.2
 50
180.0
 51
270.0
  0
LINE
  5
26EB
  8
0
 10
157.0368811818858
 20
108.5806867721474
 30
0.0
 11
157.3368811818859
 21
108.5806867721474
 31
0.0
  0
LINE
  5
26EC
  8
0
 10
157.4698811818858
 20
105.4806767721474
 30
0.0
 11
157.4698811818858
 21
108.18067677214739
 31
0.0
  0
LINE
  5
26ED
  8
0
 10
158.47497503620761
 20
107.98067677214731
 30
0.0
 11
159.639581181886
 21
107.98067677214731
 31
0.0
  0
ARC
  5
26EE
  8
0
 10
158.47497503620761
 20
108.18067677214739
 30
0.0
 40
0.2
 50
200.00835496338979
 51
270.0
  0
LINE
  5
26EF
  8
0
 10
158.01872864712141
 20
108.8491082055851
 30
0.0
 11
158.2870464888349
 21
108.1122453387095
 31
0.0
  0
ARC
  5
26F0
  8
0
 10
157.8308000997487
 20
108.7806767721473
 30
0.0
 40
0.2
 50
20.008354963389799
 51
90.000000000003254
  0
LINE
  5
26F1
  8
0
 10
157.765722072323
 20
108.9806767721474
 30
0.0
 11
157.83080009974859
 21
108.9806767721474
 31
0.0
  0
ARC
  5
26F2
  8
0
 10
157.765722072323
 20
108.7806767721473
 30
0.0
 40
0.2
 50
90.000000000001606
 51
140.00480350952631
  0
LINE
  5
26F3
  8
0
 10
157.4698811818858
 20
108.3806867721473
 30
0.0
 11
157.9198811818859
 21
108.3806867721473
 31
0.0
  0
LINE
  5
26F4
  8
0
 10
157.9198811818859
 20
108.18067677214739
 30
0.0
 11
157.4698811818858
 21
108.18067677214739
 31
0.0
  0
LINE
  5
26F5
  8
0
 10
157.9198811818859
 20
108.3806867721473
 30
0.0
 11
157.9198811818859
 21
108.18067677214739
 31
0.0
  0
LINE
  5
26F6
  8
0
 10
165.19878732756419
 20
107.98067677214731
 30
0.0
 11
164.0341811818858
 21
107.98067677214731
 31
0.0
  0
LINE
  5
26F7
  8
0
 10
165.75388118188599
 20
108.3806867721473
 30
0.0
 11
165.75388118188599
 21
108.18067677214739
 31
0.0
  0
LINE
  5
26F8
  8
0
 10
165.9080402914488
 20
108.9806767721474
 30
0.0
 11
165.8429622640233
 21
108.9806767721474
 31
0.0
  0
ARC
  5
26F9
  8
0
 10
165.8429622640233
 20
108.7806767721473
 30
0.0
 40
0.2
 50
89.999999999996746
 51
159.99164503661009
  0
LINE
  5
26FA
  8
0
 10
165.65503371665051
 20
108.8491082055851
 30
0.0
 11
165.38671587493701
 21
108.1122453387095
 31
0.0
  0
ARC
  5
26FB
  8
0
 10
165.19878732756419
 20
108.18067677214739
 30
0.0
 40
0.2
 50
270.0
 51
339.99164503661012
  0
LINE
  5
26FC
  8
0
 10
158.019871181886
 20
129.91361677214729
 30
0.0
 11
157.2698611818858
 21
129.16359677214729
 31
0.0
  0
CIRCLE
  5
26FD
  8
0
 10
161.8368811818859
 20
128.2806667721473
 30
0.0
 40
2.7781500000000001
  0
CIRCLE
  5
26FE
  8
0
 10
161.8368811818859
 20
128.2806667721473
 30
0.0
 40
2.7781500000000001
  0
LINE
  5
26FF
  8
0
 10
158.2198811818858
 20
130.30065677214731
 30
0.0
 11
158.2198811818858
 21
129.83065677214739
 31
0.0
  0
LINE
  5
2700
  8
0
 10
165.45388118188581
 20
130.30065677214731
 30
0.0
 11
165.45388118188581
 21
129.83065677214739
 31
0.0
  0
LINE
  5
2701
  8
0
 10
157.43688118188589
 20
123.2806667721473
 30
0.0
 11
166.23688118188599
 21
123.2806667721473
 31
0.0
  0
ARC
  5
2702
  8
0
 10
157.0368811818858
 20
125.78064677214731
 30
0.0
 40
0.2
 50
90.0
 51
180.0
  0
LINE
  5
2703
  8
0
 10
158.01872864712141
 20
125.7122253387095
 30
0.0
 11
158.2870464888349
 21
126.4490882055852
 31
0.0
  0
LINE
  5
2704
  8
0
 10
157.33690118188591
 20
125.9806167721473
 30
0.0
 11
157.61250240635329
 21
125.65211209524411
 31
0.0
  0
ARC
  5
2705
  8
0
 10
157.8308000997487
 20
125.7806567721473
 30
0.0
 40
0.2
 50
269.9999999999967
 51
339.99164503661012
  0
ARC
  5
2706
  8
0
 10
157.765722072323
 20
125.7806567721473
 30
0.0
 40
0.2
 50
219.9951964904736
 51
269.99999999999829
  0
LINE
  5
2707
  8
0
 10
157.765722072323
 20
125.58065677214741
 30
0.0
 11
157.83080009974859
 21
125.58065677214741
 31
0.0
  0
ARC
  5
2708
  8
0
 10
157.4698811818858
 20
126.3806467721473
 30
0.0
 40
0.2
 50
180.0
 51
270.0
  0
LINE
  5
2709
  8
0
 10
157.26988118188589
 20
129.16364677214739
 30
0.0
 11
157.26988118188589
 21
126.3806467721473
 31
0.0
  0
LINE
  5
270A
  8
0
 10
157.0368811818858
 20
125.9806467721473
 30
0.0
 11
157.3368811818859
 21
125.9806467721473
 31
0.0
  0
LINE
  5
270B
  8
0
 10
157.4698811818858
 20
129.08065677214731
 30
0.0
 11
157.4698811818858
 21
126.3806567721473
 31
0.0
  0
LINE
  5
270C
  8
0
 10
158.47497503620761
 20
126.58065677214741
 30
0.0
 11
159.639581181886
 21
126.58065677214741
 31
0.0
  0
LINE
  5
270D
  8
0
 10
157.9198811818859
 20
126.1806467721473
 30
0.0
 11
157.9198811818859
 21
126.3806567721473
 31
0.0
  0
LINE
  5
270E
  8
0
 10
157.9198811818859
 20
126.3806567721473
 30
0.0
 11
157.4698811818858
 21
126.3806567721473
 31
0.0
  0
ARC
  5
270F
  8
0
 10
158.47497503620761
 20
126.3806567721473
 30
0.0
 40
0.2
 50
90.0
 51
159.99164503661009
  0
LINE
  5
2710
  8
0
 10
157.4698811818858
 20
126.1806467721473
 30
0.0
 11
157.9198811818859
 21
126.1806467721473
 31
0.0
  0
LINE
  5
2711
  8
0
 10
158.21987118188579
 20
129.8306367721473
 30
0.0
 11
157.4698611818859
 21
129.0806267721473
 31
0.0
  0
LINE
  5
2712
  8
0
 10
165.65503371665051
 20
125.7122253387095
 30
0.0
 11
165.38671587493701
 21
126.4490882055852
 31
0.0
  0
ARC
  5
2713
  8
0
 10
165.8429622640233
 20
125.7806567721473
 30
0.0
 40
0.2
 50
200.00835496338979
 51
270.00000000000318
  0
LINE
  5
2714
  8
0
 10
165.9080402914488
 20
125.58065677214741
 30
0.0
 11
165.8429622640233
 21
125.58065677214741
 31
0.0
  0
LINE
  5
2715
  8
0
 10
165.19878732756419
 20
126.58065677214741
 30
0.0
 11
164.0341811818858
 21
126.58065677214741
 31
0.0
  0
LINE
  5
2716
  8
0
 10
165.75388118188599
 20
126.1806467721473
 30
0.0
 11
165.75388118188599
 21
126.3806567721473
 31
0.0
  0
ARC
  5
2717
  8
0
 10
165.19878732756419
 20
126.3806567721473
 30
0.0
 40
0.2
 50
20.008354963389799
 51
90.0
  0
LINE
  5
2718
  8
0
 10
157.43688118188589
 20
133.2806667721473
 30
0.0
 11
166.23688118188599
 21
133.2806667721473
 31
0.0
  0
ARC
  5
2719
  8
0
 10
157.55010911655549
 20
130.55210003125441
 30
0.0
 40
0.2
 50
140.00118728992919
 51
230.0870268032499
  0
LINE
  5
271A
  8
0
 10
156.93688118188581
 20
130.6806467721473
 30
0.0
 11
157.39689118220781
 21
130.6806467721473
 31
0.0
  0
ARC
  5
271B
  8
0
 10
156.93688118188581
 20
130.78064677214729
 30
0.0
 40
0.1
 50
180.0
 51
270.0
  0
LINE
  5
271C
  8
0
 10
158.33948228637061
 20
129.9806467721474
 30
0.0
 11
159.639581181886
 21
129.9806467721474
 31
0.0
  0
ARC
  5
271D
  8
0
 10
157.8763436839391
 20
130.78533138631619
 30
0.0
 40
0.3
 50
4.99682858166255
 51
140.00118728992919
  0
ARC
  5
271E
  8
0
 10
157.87681559977571
 20
130.7856800761007
 30
0.0
 40
0.1
 50
2.8197854544287209
 51
140.00022102426749
  0
LINE
  5
271F
  8
0
 10
157.70288118188591
 20
130.42363677214729
 30
0.0
 11
157.54989118188581
 21
130.5516367721473
 31
0.0
  0
LINE
  5
2720
  8
0
 10
157.57490118188591
 20
130.27060677214729
 30
0.0
 11
157.702891181886
 21
130.42360677214731
 31
0.0
  0
LINE
  5
2721
  8
0
 10
157.57487118188581
 20
130.2706367721473
 30
0.0
 11
157.4217844524569
 21
130.39869605287049
 31
0.0
  0
LINE
  5
2722
  8
0
 10
157.3968975639803
 20
130.68065437835139
 30
0.0
 11
157.64652635507639
 21
130.9781629069617
 31
0.0
  0
LINE
  5
2723
  8
0
 10
157.54989118188581
 20
130.5516367721473
 30
0.0
 11
157.80021090750259
 21
130.84995854155949
 31
0.0
  0
LINE
  5
2724
  8
0
 10
157.97669452066799
 20
130.7905995436941
 30
0.0
 11
158.0198911818859
 21
129.91358677214731
 31
0.0
  0
LINE
  5
2725
  8
0
 10
158.1752035401741
 20
130.8114615667819
 30
0.0
 11
158.2398623342923
 21
130.07193671199209
 31
0.0
  0
ARC
  5
2726
  8
0
 10
158.33948228637061
 20
130.0806467721473
 30
0.0
 40
0.1
 50
184.9968285816625
 51
270.0
  0
LINE
  5
2727
  8
0
 10
165.33428007740119
 20
129.9806467721474
 30
0.0
 11
164.0341811818858
 21
129.9806467721474
 31
0.0
  0
ARC
  5
2728
  8
0
 10
165.33428007740119
 20
130.0806467721473
 30
0.0
 40
0.1
 50
270.0
 51
355.00317141833739
  0
LINE
  5
2729
  8
0
 10
165.4985588235977
 20
130.8114615667819
 30
0.0
 11
165.43390002947959
 21
130.07193671199209
 31
0.0
  0
ARC
  5
272A
  8
0
 10
165.796946763996
 20
130.7856800761007
 30
0.0
 40
0.1
 50
39.999778975732447
 51
177.18021454557041
  0
LINE
  5
272B
  8
0
 10
165.69706784310381
 20
130.7905995436941
 30
0.0
 11
165.65387118188599
 21
129.91358677214731
 31
0.0
  0
ARC
  5
272C
  8
0
 10
165.79741867983279
 20
130.78533138631619
 30
0.0
 40
0.3
 50
39.998812710069679
 51
175.00317141833659
  0
LINE
  5
272D
  8
0
 10
166.83688118188601
 20
132.6806667721473
 30
0.0
 11
166.83688118188601
 21
101.88066677214729
 31
0.0
  0
LINE
  5
272E
  8
0
 10
166.0988911818859
 20
104.2906967721473
 30
0.0
 11
166.25197791131481
 21
104.16263749142431
 31
0.0
  0
ARC
  5
272F
  8
0
 10
166.1236532472164
 20
104.0092335130403
 30
0.0
 40
0.2
 50
320.00118728992919
 51
50.087026803249962
  0
LINE
  5
2730
  8
0
 10
166.73688118188579
 20
103.8806867721473
 30
0.0
 11
166.2768711815641
 21
103.8806867721473
 31
0.0
  0
ARC
  5
2731
  8
0
 10
166.73688118188579
 20
103.7806867721474
 30
0.0
 40
0.1
 50
0.0
 51
90.0
  0
LINE
  5
2732
  8
0
 10
166.20388118188581
 20
105.4806767721474
 30
0.0
 11
166.20388118188581
 21
108.18067677214739
 31
0.0
  0
LINE
  5
2733
  8
0
 10
166.40388118188591
 20
105.3976867721473
 30
0.0
 11
166.40388118188591
 21
108.1806867721473
 31
0.0
  0
LINE
  5
2734
  8
0
 10
166.63688118188591
 20
108.5806867721474
 30
0.0
 11
166.33688118188601
 21
108.5806867721474
 31
0.0
  0
ARC
  5
2735
  8
0
 10
166.20388118188581
 20
108.1806867721473
 30
0.0
 40
0.2
 50
0.0
 51
90.0
  0
ARC
  5
2736
  8
0
 10
166.63688118188591
 20
108.78068677214731
 30
0.0
 40
0.2
 50
270.0
 51
0.0
  0
ARC
  5
2737
  8
0
 10
166.63688118188591
 20
125.78064677214731
 30
0.0
 40
0.2
 50
0.0
 51
90.0
  0
LINE
  5
2738
  8
0
 10
166.40388118188591
 20
129.16364677214739
 30
0.0
 11
166.40388118188591
 21
126.3806467721473
 31
0.0
  0
LINE
  5
2739
  8
0
 10
166.20388118188581
 20
129.08065677214731
 30
0.0
 11
166.20388118188581
 21
126.3806567721473
 31
0.0
  0
ARC
  5
273A
  8
0
 10
166.20388118188581
 20
126.3806467721473
 30
0.0
 40
0.2
 50
270.0
 51
0.0
  0
LINE
  5
273B
  8
0
 10
166.63688118188591
 20
125.9806467721473
 30
0.0
 11
166.33688118188601
 21
125.9806467721473
 31
0.0
  0
ARC
  5
273C
  8
0
 10
166.73688118188579
 20
130.78064677214729
 30
0.0
 40
0.1
 50
270.0
 51
0.0
  0
LINE
  5
273D
  8
0
 10
166.73688118188579
 20
130.6806467721473
 30
0.0
 11
166.2768711815641
 21
130.6806467721473
 31
0.0
  0
ARC
  5
273E
  8
0
 10
166.1236532472164
 20
130.55210003125441
 30
0.0
 40
0.2
 50
309.91297319674999
 51
39.998812710069679
  0
LINE
  5
273F
  8
0
 10
166.0988911818859
 20
130.2706367721473
 30
0.0
 11
166.25197791131481
 21
130.39869605287049
 31
0.0
  0
ARC
  5
2740
  8
0
 10
157.43688118188589
 20
132.6806667721473
 30
0.0
 40
0.6
 50
90.0
 51
180.0
  0
ARC
  5
2741
  8
0
 10
166.23688118188599
 20
132.6806667721473
 30
0.0
 40
0.6
 50
0.0
 51
90.0
  0
ARC
  5
2742
  8
0
 10
166.23688118188599
 20
123.88066677214729
 30
0.0
 40
0.6
 50
270.0
 51
0.0
  0
ARC
  5
2743
  8
0
 10
157.43688118188589
 20
123.88066677214729
 30
0.0
 40
0.6
 50
180.0
 51
270.0
  0
ARC
  5
2744
  8
0
 10
157.43688118188589
 20
110.6806667721473
 30
0.0
 40
0.6
 50
90.0
 51
180.0
  0
ARC
  5
2745
  8
0
 10
166.23688118188599
 20
110.6806667721473
 30
0.0
 40
0.6
 50
0.0
 51
90.0
  0
ARC
  5
2746
  8
0
 10
166.23688118188599
 20
101.88066677214729
 30
0.0
 40
0.6
 50
270.0
 51
0.0
  0
ARC
  5
2747
  8
0
 10
157.43688118188589
 20
101.88066677214729
 30
0.0
 40
0.6
 50
180.0
 51
270.0
  0
ENDSEC
  0
EOF
