  0
SECTION
  2
HEADER
  9
$ACADVER
  1
AC1009
  9
$INSBASE
 10
0.0
 20
0.0
 30
0.0
  9
$EXTMIN
 10
9.9836890576217456
 20
9.9911504029193452
 30
-0.0000000349181948
  9
$EXTMAX
 10
70.008179138191281
 20
57.095032049220833
 30
0.0000000814935747
  9
$LIMMIN
 10
0.0
 20
0.0
  9
$LIMMAX
 10
297.0
 20
210.0
  9
$ORTHOMODE
 70
     1
  9
$REGENMODE
 70
     1
  9
$FILLMODE
 70
     1
  9
$QTEXTMODE
 70
     0
  9
$MIRRTEXT
 70
     1
  9
$DRAGMODE
 70
     2
  9
$LTSCALE
 40
1.0
  9
$OSMODE
 70
   695
  9
$ATTMODE
 70
     1
  9
$TEXTSIZE
 40
6.4000000000000012
  9
$TRACEWID
 40
0.05
  9
$TEXTSTYLE
  7
STANDARD
  9
$CLAYER
  8
0
  9
$CELTYPE
  6
CONTINUOUS
  9
$CECOLOR
 62
     7
  9
$DIMSCALE
 40
1.0
  9
$DIMASZ
 40
3.0
  9
$DIMEXO
 40
1.0
  9
$DIMDLI
 40
0.0
  9
$DIMRND
 40
0.0
  9
$DIMDLE
 40
0.0
  9
$DIMEXE
 40
1.0
  9
$DIMTP
 40
0.0
  9
$DIMTM
 40
0.0
  9
$DIMTXT
 40
3.2000000000000002
  9
$DIMCEN
 40
0.0
  9
$DIMTSZ
 40
0.0
  9
$DIMTOL
 70
     0
  9
$DIMLIM
 70
     0
  9
$DIMTIH
 70
     0
  9
$DIMTOH
 70
     0
  9
$DIMSE1
 70
     0
  9
$DIMSE2
 70
     0
  9
$DIMTAD
 70
     1
  9
$DIMZIN
 70
     8
  9
$DIMBLK
  1

  9
$DIMASO
 70
     1
  9
$DIMSHO
 70
     1
  9
$DIMPOST
  1

  9
$DIMAPOST
  1

  9
$DIMALT
 70
     0
  9
$DIMALTD
 70
     2
  9
$DIMALTF
 40
0.04
  9
$DIMLFAC
 40
1.0
  9
$DIMTOFL
 70
     1
  9
$DIMTVP
 40
1.0
  9
$DIMTIX
 70
     1
  9
$DIMSOXD
 70
     0
  9
$DIMSAH
 70
     0
  9
$DIMBLK1
  1

  9
$DIMBLK2
  1

  9
$DIMSTYLE
  2
MISUMI
  9
$DIMCLRD
 70
     0
  9
$DIMCLRE
 70
     0
  9
$DIMCLRT
 70
     0
  9
$DIMTFAC
 40
0.6
  9
$DIMGAP
 40
1.0
  9
$LUNITS
 70
     2
  9
$LUPREC
 70
     4
  9
$SKETCHINC
 40
0.1
  9
$FILLETRAD
 40
0.0
  9
$AUNITS
 70
     0
  9
$AUPREC
 70
     0
  9
$MENU
  1
acad
  9
$ELEVATION
 40
0.0
  9
$PELEVATION
 40
0.0
  9
$THICKNESS
 40
0.0
  9
$LIMCHECK
 70
     0
  9
$BLIPMODE
 70
     0
  9
$CHAMFERA
 40
0.2
  9
$CHAMFERB
 40
0.2
  9
$SKPOLY
 70
     0
  9
$TDCREATE
 40
2451464.6006649309
  9
$TDUPDATE
 40
2454736.6794973258
  9
$TDINDWG
 40
0.1790719444
  9
$TDUSRTIMER
 40
0.1790706366
  9
$USRTIMER
 70
     1
  9
$ANGBASE
 50
0.0
  9
$ANGDIR
 70
     0
  9
$PDMODE
 70
     0
  9
$PDSIZE
 40
0.0
  9
$PLINEWID
 40
0.0
  9
$COORDS
 70
     1
  9
$SPLFRAME
 70
     0
  9
$SPLINETYPE
 70
     6
  9
$SPLINESEGS
 70
     8
  9
$ATTDIA
 70
     0
  9
$ATTREQ
 70
     1
  9
$HANDLING
 70
     1
  9
$HANDSEED
  5
BA7
  9
$SURFTAB1
 70
     6
  9
$SURFTAB2
 70
     6
  9
$SURFTYPE
 70
     6
  9
$SURFU
 70
     6
  9
$SURFV
 70
     6
  9
$UCSNAME
  2

  9
$UCSORG
 10
0.0
 20
0.0
 30
0.0
  9
$UCSXDIR
 10
1.0
 20
0.0
 30
0.0
  9
$UCSYDIR
 10
0.0
 20
1.0
 30
0.0
  9
$PUCSNAME
  2

  9
$PUCSORG
 10
0.0
 20
0.0
 30
0.0
  9
$PUCSXDIR
 10
1.0
 20
0.0
 30
0.0
  9
$PUCSYDIR
 10
0.0
 20
1.0
 30
0.0
  9
$USERI1
 70
     0
  9
$USERI2
 70
     0
  9
$USERI3
 70
     0
  9
$USERI4
 70
     0
  9
$USERI5
 70
     0
  9
$USERR1
 40
0.0
  9
$USERR2
 40
0.0
  9
$USERR3
 40
0.0
  9
$USERR4
 40
0.0
  9
$USERR5
 40
0.0
  9
$WORLDVIEW
 70
     1
  9
$SHADEDGE
 70
     3
  9
$SHADEDIF
 70
    70
  9
$TILEMODE
 70
     1
  9
$MAXACTVP
 70
    16
  9
$PLIMCHECK
 70
     0
  9
$PEXTMIN
 10
1.0000000000000000E+020
 20
1.0000000000000000E+020
 30
1.0000000000000000E+020
  9
$PEXTMAX
 10
-1.0000000000000000E+020
 20
-1.0000000000000000E+020
 30
-1.0000000000000000E+020
  9
$PLIMMIN
 10
0.0
 20
0.0
  9
$PLIMMAX
 10
12.0
 20
9.0
  9
$UNITMODE
 70
     0
  9
$VISRETAIN
 70
     0
  9
$PLINEGEN
 70
     0
  9
$PSLTSCALE
 70
     1
  0
ENDSEC
  0
SECTION
  2
TABLES
  0
TABLE
  2
VPORT
 70
     1
  0
VPORT
  2
*ACTIVE
 70
     0
 10
0.0
 20
0.0
 11
1.0
 21
1.0
 12
39.99593409790652
 22
33.543091226070089
 13
0.0
 23
0.0
 14
10.0
 24
10.0
 15
10.0
 25
10.0
 16
0.0
 26
0.0
 36
1.0
 17
0.0
 27
0.0
 37
0.0
 40
47.460729234531037
 41
1.461441213653603
 42
50.0
 43
0.0
 44
0.0
 50
0.0
 51
0.0
 71
     0
 72
   100
 73
     1
 74
     0
 75
     0
 76
     0
 77
     0
 78
     0
  0
ENDTAB
  0
TABLE
  2
LTYPE
 70
     3
  0
LTYPE
  2
CONTINUOUS
 70
     0
  3
Solid line
 72
    65
 73
     0
 40
0.0
  0
LTYPE
  2
CENTER
 70
     0
  3
Center ____ _ ____ _ ____ _ ____ _ ____ _ ____
 72
    65
 73
     4
 40
2.0
 49
1.25
 49
-0.25
 49
0.25
 49
-0.25
  0
LTYPE
  2
DASHED
 70
     0
  3
Dashed __ __ __ __ __ __ __ __ __ __ __ __ __ _
 72
    65
 73
     2
 40
0.75
 49
0.5
 49
-0.25
  0
ENDTAB
  0
TABLE
  2
LAYER
 70
     3
  0
LAYER
  2
0
 70
     0
 62
     7
  6
CONTINUOUS
  0
LAYER
  2
DEFPOINTS
 70
     0
 62
     7
  6
CONTINUOUS
  0
LAYER
  2
CENTER
 70
     0
 62
     1
  6
CENTER
  0
ENDTAB
  0
TABLE
  2
STYLE
 70
     1
  0
STYLE
  2
STANDARD
 70
     0
 40
0.0
 41
1.0
 50
0.0
 71
     0
 42
6.4000000000000012
  3
txt
  4

  0
ENDTAB
  0
TABLE
  2
VIEW
 70
     0
  0
ENDTAB
  0
TABLE
  2
UCS
 70
     0
  0
ENDTAB
  0
TABLE
  2
APPID
 70
     1
  0
APPID
  2
ACAD
 70
     0
  0
ENDTAB
  0
TABLE
  2
DIMSTYLE
 70
     1
  0
DIMSTYLE
  2
MISUMI
 70
     0
  3

  4

  5

  6

  7

 40
1.0
 41
3.0
 42
1.0
 43
0.0
 44
1.0
 45
0.0
 46
0.0
 47
0.0
 48
0.0
140
3.2000000000000002
141
0.0
142
0.0
143
0.04
144
1.0
145
1.0
146
0.6
147
1.0
 71
     0
 72
     0
 73
     0
 74
     0
 75
     0
 76
     0
 77
     1
 78
     8
170
     0
171
     2
172
     1
173
     0
174
     1
175
     0
176
     0
177
     0
178
     0
  0
ENDTAB
  0
ENDSEC
  0
SECTION
  2
BLOCKS
  0
BLOCK
  8
0
  2
$MODEL_SPACE
 70
     0
 10
0.0
 20
0.0
 30
0.0
  3
$MODEL_SPACE
  1

  0
ENDBLK
  5
B83
  8
0
  0
BLOCK
 67
     1
  8
0
  2
$PAPER_SPACE
 70
     0
 10
0.0
 20
0.0
 30
0.0
  3
$PAPER_SPACE
  1

  0
ENDBLK
  5
B7F
 67
     1
  8
0
  0
ENDSEC
  0
SECTION
  2
ENTITIES
  0
CIRCLE
  5
B18
  8
0
  6
CONTINUOUS
 62
     7
 10
36.0
 20
50.0
 30
0.0
 40
3.0
  0
CIRCLE
  5
B19
  8
0
  6
CONTINUOUS
 62
     7
 10
36.0
 20
50.0
 30
0.0
 40
5.499999999999984
  0
CIRCLE
  5
B1A
  8
0
  6
CONTINUOUS
 62
     7
 10
36.0
 20
50.0
 30
0.0
 40
6.0
  0
LINE
  5
B1B
  8
CENTER
  6
CENTER
 62
     1
 10
36.0
 20
57.090324379753902
 30
0.0
 11
36.0
 21
42.909675620246098
 31
0.0
  0
TEXT
  5
B1C
  8
0
  6
CONTINUOUS
 62
     7
 10
10.0
 20
20.0
 30
0.0
 40
4.0
  1
SCCN 6-6
  0
TEXT
  5
B1D
  8
0
  6
CONTINUOUS
 62
     7
 10
10.0
 20
10.0
 30
0.0
 40
4.0
  1
SCCN06
  0
LINE
  5
B1E
  8
CENTER
  6
CENTER
 62
     1
 10
28.909675620246091
 20
50.0
 30
0.0
 11
43.09032437975393
 21
50.0
 31
0.0
  0
LINE
  5
B1F
  8
0
  6
DASHED
 62
     3
 10
41.656854249492383
 20
48.0
 30
0.0
 11
38.236067977499808
 21
48.0
 31
0.0
  0
LINE
  5
B20
  8
0
  6
DASHED
 62
     3
 10
41.656854249492397
 20
51.999999999999993
 30
0.0
 11
38.236067977499772
 21
51.999999999999993
 31
0.0
  0
LINE
  5
B21
  8
0
  6
DASHED
 62
     3
 10
41.782732917920399
 20
48.399999999999991
 30
0.0
 11
38.537715508089931
 21
48.400000000000013
 31
0.0
  0
LINE
  5
B22
  8
0
  6
DASHED
 62
     3
 10
41.782732917920399
 20
51.600000000000001
 30
0.0
 11
38.537715508089931
 21
51.600000000000001
 31
0.0
  0
LINE
  5
B23
  8
0
  6
DASHED
 62
     3
 10
34.000000000000007
 20
55.656854249492397
 30
0.0
 11
34.000000000000007
 21
52.236067977499772
 31
0.0
  0
LINE
  5
B24
  8
0
  6
DASHED
 62
     3
 10
34.399999999999991
 20
55.782732917920391
 30
0.0
 11
34.399999999999991
 21
52.537715508089889
 31
0.0
  0
LINE
  5
B25
  8
0
  6
DASHED
 62
     3
 10
38.0
 20
55.656854249492362
 30
0.0
 11
38.0
 21
52.2360679774998
 31
0.0
  0
LINE
  5
B26
  8
0
  6
DASHED
 62
     3
 10
37.600000000000009
 20
55.782732917920391
 30
0.0
 11
37.600000000000009
 21
52.537715508089889
 31
0.0
  0
LINE
  5
B27
  8
0
  6
CONTINUOUS
 62
     7
 10
67.999998799999958
 20
55.79999999999999
 30
0.0
 11
67.999998799999972
 21
44.200000000000003
 31
0.0
  0
LINE
  5
B28
  8
0
  6
CONTINUOUS
 62
     7
 10
61.999999999999972
 20
55.499999999999979
 30
0.0
 11
62.000000000000021
 21
44.499999999999879
 31
0.0
  0
LINE
  5
B29
  8
0
  6
CONTINUOUS
 62
     7
 10
62.288675134594747
 20
55.999999999999993
 30
0.0
 11
62.288675134594833
 21
43.999999999999993
 31
0.0
  0
LINE
  5
B2A
  8
CENTER
  6
CENTER
 62
     1
 10
64.999999899999992
 20
56.703505919737331
 30
0.0
 11
64.999999899999992
 21
43.296494080262669
 31
0.0
  0
LINE
  5
B2B
  8
0
  6
DASHED
 62
     3
 10
62.200000800000097
 20
46.999999999999979
 30
0.0
 11
67.799998799999969
 21
46.999999999999993
 31
0.0
  0
CIRCLE
  5
B2C
  8
0
  6
CONTINUOUS
 62
     7
 10
64.99999980000004
 20
50.0
 30
0.0
 40
1.6000000000000001
  0
CIRCLE
  5
B2D
  8
0
  6
CONTINUOUS
 62
     3
 10
64.99999980000004
 20
50.0
 30
0.0
 40
2.0
  0
LINE
  5
B2E
  8
0
  6
CONTINUOUS
 62
     7
 10
62.288675134594833
 20
43.999999999999993
 30
0.0
 11
67.799998799999969
 21
44.0
 31
0.0
  0
LINE
  5
B2F
  8
CENTER
  6
CENTER
 62
     1
 10
60.0
 20
50.0
 30
0.0
 11
69.999999799999983
 21
50.0
 31
0.0
  0
LINE
  5
B30
  8
0
  6
CONTINUOUS
 62
     7
 10
62.0
 20
44.499999999999993
 30
0.0
 11
62.288675134594833
 21
43.999999999999993
 31
0.0
  0
LINE
  5
B31
  8
0
  6
DASHED
 62
     3
 10
62.200000800000133
 20
53.0
 30
0.0
 11
67.799998799999969
 21
53.0
 31
0.0
  0
LINE
  5
B32
  8
0
  6
CONTINUOUS
 62
     7
 10
62.288675134594747
 20
55.999999999999993
 30
0.0
 11
67.799998799999969
 21
55.999999999999993
 31
0.0
  0
LINE
  5
B33
  8
0
  6
CONTINUOUS
 62
     7
 10
62.0
 20
55.5
 30
0.0
 11
62.288675134594833
 21
56.0
 31
0.0
  0
LINE
  5
B34
  8
0
  6
DASHED
 62
     3
 10
63.39999980000001
 20
56.0
 30
0.0
 11
63.39999980000001
 21
53.0
 31
0.0
  0
LINE
  5
B35
  8
0
  6
DASHED
 62
     3
 10
62.99999980000004
 20
56.0
 30
0.0
 11
62.99999980000004
 21
53.0
 31
0.0
  0
LINE
  5
B38
  8
0
  6
DASHED
 62
     3
 10
66.599999800000035
 20
56.0
 30
0.0
 11
66.599999800000035
 21
53.0
 31
0.0
  0
LINE
  5
B39
  8
0
  6
DASHED
 62
     3
 10
66.99999980000004
 20
56.0
 30
0.0
 11
66.99999980000004
 21
53.0
 31
0.0
  0
LINE
  5
B40
  8
0
  6
CONTINUOUS
 62
     7
 10
67.799998799999969
 20
55.999999999999993
 30
0.0
 11
67.999998799999958
 21
55.79999999999999
 31
0.0
  0
LINE
  5
B41
  8
0
  6
CONTINUOUS
 62
     7
 10
67.999998799999972
 20
44.200000000000003
 30
0.0
 11
67.799998799999969
 21
44.0
 31
0.0
  0
LINE
  5
B42
  8
0
  6
CONTINUOUS
 62
     7
 10
67.799998799999969
 20
55.999999999999993
 30
0.0
 11
67.799998799999969
 21
44.0
 31
0.0
  0
LINE
  5
B43
  8
0
  6
DASHED
 62
     3
 10
67.999998799999958
 20
53.200000000000003
 30
0.0
 11
67.799998799999969
 21
53.0
 31
0.0
  0
LINE
  5
B44
  8
0
  6
DASHED
 62
     3
 10
67.799998799999969
 20
46.999999999999993
 30
0.0
 11
67.999998799999972
 21
46.799999999999983
 31
0.0
  0
LINE
  5
B45
  8
0
  6
DASHED
 62
     3
 10
62.200000800000097
 20
46.999999999999979
 30
0.0
 11
62.000000800000102
 21
46.799999999999983
 31
0.0
  0
LINE
  5
B46
  8
0
  6
DASHED
 62
     3
 10
62.00000080000013
 20
53.200000000000003
 30
0.0
 11
62.200000800000133
 21
53.0
 31
0.0
  0
ENDSEC
  0
EOF
