  0
SECTION
  2
HEADER
  9
$ACADVER
  1
AC1009
  9
$INSBASE
 10
0.0
 20
0.0
 30
0.0
  9
$EXTMIN
 10
-10.02072682157654
 20
-8.0008518776327264
 30
-0.0015258207003583
  9
$EXTMAX
 10
296.5050817149077
 20
51.006838652431732
 30
0.0000000349246037
  9
$LIMMIN
 10
0.0
 20
0.0
  9
$LIMMAX
 10
420.0
 20
297.0
  9
$ORTHOMODE
 70
     1
  9
$REGENMODE
 70
     1
  9
$FILLMODE
 70
     1
  9
$QTEXTMODE
 70
     0
  9
$MIRRTEXT
 70
     0
  9
$DRAGMODE
 70
     2
  9
$LTSCALE
 40
0.5
  9
$OSMODE
 70
  2879
  9
$ATTMODE
 70
     1
  9
$TEXTSIZE
 40
2.5000000000000009
  9
$TRACEWID
 40
1.0
  9
$TEXTSTYLE
  7
STANDARD
  9
$CLAYER
  8
MSM_CONTINUOUS
  9
$CELTYPE
  6
BYLAYER
  9
$CECOLOR
 62
   256
  9
$DIMSCALE
 40
1.0
  9
$DIMASZ
 40
2.0000000000000009
  9
$DIMEXO
 40
0.3
  9
$DIMDLI
 40
3.75
  9
$DIMRND
 40
0.0
  9
$DIMDLE
 40
0.0
  9
$DIMEXE
 40
0.75
  9
$DIMTP
 40
0.0
  9
$DIMTM
 40
0.0
  9
$DIMTXT
 40
3.0
  9
$DIMCEN
 40
2.5
  9
$DIMTSZ
 40
0.0
  9
$DIMTOL
 70
     0
  9
$DIMLIM
 70
     0
  9
$DIMTIH
 70
     0
  9
$DIMTOH
 70
     0
  9
$DIMSE1
 70
     0
  9
$DIMSE2
 70
     0
  9
$DIMTAD
 70
     1
  9
$DIMZIN
 70
     8
  9
$DIMBLK
  1
OPEN30
  9
$DIMASO
 70
     1
  9
$DIMSHO
 70
     1
  9
$DIMPOST
  1

  9
$DIMAPOST
  1

  9
$DIMALT
 70
     0
  9
$DIMALTD
 70
     3
  9
$DIMALTF
 40
0.03937007874016
  9
$DIMLFAC
 40
1.0
  9
$DIMTOFL
 70
     1
  9
$DIMTVP
 40
0.0
  9
$DIMTIX
 70
     0
  9
$DIMSOXD
 70
     0
  9
$DIMSAH
 70
     0
  9
$DIMBLK1
  1

  9
$DIMBLK2
  1

  9
$DIMSTYLE
  2
MISUMI
  9
$DIMCLRD
 70
   256
  9
$DIMCLRE
 70
   256
  9
$DIMCLRT
 70
   256
  9
$DIMTFAC
 40
1.0
  9
$DIMGAP
 40
0.625
  9
$LUNITS
 70
     2
  9
$LUPREC
 70
     2
  9
$SKETCHINC
 40
1.0
  9
$FILLETRAD
 40
0.0
  9
$AUNITS
 70
     0
  9
$AUPREC
 70
     0
  9
$MENU
  1
.
  9
$ELEVATION
 40
0.0
  9
$PELEVATION
 40
0.0
  9
$THICKNESS
 40
0.0
  9
$LIMCHECK
 70
     0
  9
$BLIPMODE
 70
     0
  9
$CHAMFERA
 40
0.4
  9
$CHAMFERB
 40
0.4
  9
$SKPOLY
 70
     0
  9
$TDCREATE
 40
2455135.5720697111
  9
$TDUPDATE
 40
2458383.7828058801
  9
$TDINDWG
 40
1.1219598148000001
  9
$TDUSRTIMER
 40
2458361.2565507409
  9
$USRTIMER
 70
     1
  9
$ANGBASE
 50
0.0
  9
$ANGDIR
 70
     0
  9
$PDMODE
 70
    35
  9
$PDSIZE
 40
0.0
  9
$PLINEWID
 40
0.0
  9
$COORDS
 70
     2
  9
$SPLFRAME
 70
     0
  9
$SPLINETYPE
 70
     6
  9
$SPLINESEGS
 70
     8
  9
$ATTDIA
 70
     0
  9
$ATTREQ
 70
     1
  9
$HANDLING
 70
     1
  9
$HANDSEED
  5
70A47
  9
$SURFTAB1
 70
     6
  9
$SURFTAB2
 70
     6
  9
$SURFTYPE
 70
     6
  9
$SURFU
 70
     6
  9
$SURFV
 70
     6
  9
$UCSNAME
  2

  9
$UCSORG
 10
0.0
 20
0.0
 30
0.0
  9
$UCSXDIR
 10
1.0
 20
0.0
 30
0.0
  9
$UCSYDIR
 10
0.0
 20
1.0
 30
0.0
  9
$PUCSNAME
  2

  9
$PUCSORG
 10
0.0
 20
0.0
 30
0.0
  9
$PUCSXDIR
 10
1.0
 20
0.0
 30
0.0
  9
$PUCSYDIR
 10
0.0
 20
1.0
 30
0.0
  9
$USERI1
 70
     0
  9
$USERI2
 70
     0
  9
$USERI3
 70
     0
  9
$USERI4
 70
     0
  9
$USERI5
 70
     0
  9
$USERR1
 40
0.0
  9
$USERR2
 40
0.0
  9
$USERR3
 40
0.0
  9
$USERR4
 40
0.0
  9
$USERR5
 40
0.0
  9
$WORLDVIEW
 70
     1
  9
$SHADEDGE
 70
     3
  9
$SHADEDIF
 70
    70
  9
$TILEMODE
 70
     1
  9
$MAXACTVP
 70
    64
  9
$PLIMCHECK
 70
     0
  9
$PEXTMIN
 10
0.0
 20
0.0
 30
0.0
  9
$PEXTMAX
 10
0.0
 20
0.0
 30
0.0
  9
$PLIMMIN
 10
0.0
 20
0.0
  9
$PLIMMAX
 10
12.0
 20
9.0
  9
$UNITMODE
 70
     0
  9
$VISRETAIN
 70
     1
  9
$PLINEGEN
 70
     0
  9
$PSLTSCALE
 70
     1
  0
ENDSEC
  0
SECTION
  2
TABLES
  0
TABLE
  2
VPORT
 70
     1
  0
VPORT
  2
*ACTIVE
 70
     0
 10
0.0
 20
0.0
 11
1.0
 21
1.0
 12
143.24217744666561
 22
21.502993387399499
 13
0.0
 23
0.0
 14
10.0
 24
10.0
 15
10.0
 25
10.0
 16
0.0
 26
0.0
 36
1.0
 17
0.0
 27
0.0
 37
0.0
 40
148.34100938619559
 41
2.074122236671001
 42
50.0
 43
0.0
 44
0.0
 50
0.0
 51
0.0
 71
    16
 72
  1000
 73
     1
 74
     3
 75
     0
 76
     0
 77
     0
 78
     0
  0
ENDTAB
  0
TABLE
  2
LTYPE
 70
     3
  0
LTYPE
  2
CONTINUOUS
 70
     0
  3
Solid line
 72
    65
 73
     0
 40
0.0
  0
LTYPE
  2
CENTER
 70
     0
  3
Center ____ _ ____ _ ____ _ ____ _ ____ _ ____
 72
    65
 73
     4
 40
50.799999999999997
 49
31.75
 49
-6.3499999999999988
 49
6.3499999999999988
 49
-6.3499999999999988
  0
LTYPE
  2
DASHED
 70
     0
  3
Dashed __ __ __ __ __ __ __ __ __ __ __ __ __ _
 72
    65
 73
     2
 40
19.050000000000001
 49
12.699999999999999
 49
-6.3499999999999988
  0
ENDTAB
  0
TABLE
  2
LAYER
 70
     8
  0
LAYER
  2
0
 70
     0
 62
     7
  6
CONTINUOUS
  0
LAYER
  2
MSM_CENTER
 70
     0
 62
     1
  6
CENTER
  0
LAYER
  2
MSM_CONTINUOUS
 70
     0
 62
     7
  6
CONTINUOUS
  0
LAYER
  2
MSM_DASHED
 70
     0
 62
     4
  6
DASHED
  0
LAYER
  2
MSM_NARROW
 70
     0
 62
     5
  6
CONTINUOUS
  0
LAYER
  2
MSM_PART_NUMBER
 70
     0
 62
     7
  6
CONTINUOUS
  0
ENDTAB
  0
TABLE
  2
STYLE
 70
     1
  0
STYLE
  2
STANDARD
 70
     0
 40
2.5000000000000009
 41
1.0
 50
0.0
 71
     0
 42
2.5000000000000009
  3
txt.shx
  4
bigfont.shx
  0
ENDTAB
  0
TABLE
  2
VIEW
 70
     0
  0
ENDTAB
  0
TABLE
  2
UCS
 70
     0
  0
ENDTAB
  0
TABLE
  2
APPID
 70
    27
  0
APPID
  2
ACAD
 70
     0
  0
APPID
  2
ACAD_MLEADERVER
 70
     0
  0
APPID
  2
ACAD_EXEMPT_FROM_CAD_STANDARDS
 70
     0
  0
APPID
  2
ACDBBLOCKREPETAG
 70
     0
  0
APPID
  2
ACAD_DSTYLE_DIMJOGGED_JOGA
 70
     0
  0
APPID
  2
ACAECLAYERSTANDARD
 70
     0
  0
APPID
  2
GENIUS_GENODEF_13
 70
     0
  0
APPID
  2
GENIUS_GENOBJ-N-FIL_13
 70
     0
  0
APPID
  2
ACAD_PSEXT
 70
     0
  0
APPID
  2
ACAD_DSTYLE_DIMRADIAL_EXTENSION
 70
     0
  0
APPID
  2
ACDBDYNAMICBLOCKTRUENAME
 70
     0
  0
APPID
  2
ACDBDYNAMICBLOCKGUID
 70
     0
  0
APPID
  2
ACDBBLOCKREPBTAG
 70
     0
  0
APPID
  2
ACAUTHENVIRON
 70
     0
  0
APPID
  2
GRADIENTCOLOR1ACI
 70
     0
  0
APPID
  2
GRADIENTCOLOR2ACI
 70
     0
  0
APPID
  2
ACAD_DSTYLE_DIMJAG
 70
     0
  0
APPID
  2
ACAD_DSTYLE_DIMTALN
 70
     0
  0
APPID
  2
ACCMTRANSPARENCY
 70
     0
  0
APPID
  2
ACAD_DSTYLE_DIMBREAK
 70
     0
  0
APPID
  2
ACAD_DSTYLE_DIMFLIPARROW_W
 70
     0
  0
APPID
  2
ACAD_DSTYLE_DIM_LINETYPE
 70
     0
  0
APPID
  2
ACAD_DSTYLE_DIM_EXT1_LINETYPE
 70
     0
  0
APPID
  2
ACAD_DSTYLE_DIM_EXT2_LINETYPE
 70
     0
  0
APPID
  2
ACAD_NAV_VCDISPLAY
 70
     0
  0
APPID
  2
PLOTTRANSPARENCY
 70
     0
  0
APPID
  2
FX_RP_XDATA
 70
     0
  0
ENDTAB
  0
TABLE
  2
DIMSTYLE
 70
     1
  0
DIMSTYLE
  2
MISUMI
 70
     0
  3

  4

  5
OPEN30
  6

  7

 40
1.0
 41
2.0000000000000009
 42
0.3
 43
3.75
 44
0.75
 45
0.0
 46
0.0
 47
0.0
 48
0.0
140
3.0
141
2.5
142
0.0
143
0.03937007874016
144
1.0
145
0.0
146
1.0
147
0.625
 71
     0
 72
     0
 73
     0
 74
     0
 75
     0
 76
     0
 77
     1
 78
     8
170
     0
171
     3
172
     1
173
     0
174
     0
175
     0
176
   256
177
   256
178
   256
  0
ENDTAB
  0
ENDSEC
  0
SECTION
  2
BLOCKS
  0
BLOCK
  8
0
  2
$MODEL_SPACE
 70
     0
 10
0.0
 20
0.0
 30
0.0
  3
$MODEL_SPACE
  1

  0
ENDBLK
  5
21
  8
0
  0
BLOCK
 67
     1
  8
0
  2
$PAPER_SPACE
 70
     0
 10
0.0
 20
0.0
 30
0.0
  3
$PAPER_SPACE
  1

  0
ENDBLK
  5
709DF
 67
     1
  8
0
  0
BLOCK
  8
0
 62
     7
  2
_OPEN30
 70
     0
 10
0.0
 20
0.0
 30
0.0
  3
_OPEN30
  1

  0
LINE
  5
E5BB
  8
0
  6
BYBLOCK
 62
     0
 10
-1.0
 20
0.26794919
 30
0.0
 11
0.0
 21
0.0
 31
0.0
  0
LINE
  5
E5BC
  8
0
  6
BYBLOCK
 62
     0
 10
0.0
 20
0.0
 30
0.0
 11
-1.0
 21
-0.26794919
 31
0.0
  0
LINE
  5
E5BD
  8
0
  6
BYBLOCK
 62
     0
 10
0.0
 20
0.0
 30
0.0
 11
-1.0
 21
0.0
 31
0.0
  0
ENDBLK
  5
E5BE
  8
0
 62
     7
  0
BLOCK
  8
0
  2
*U54
 70
     1
 10
0.0
 20
0.0
 30
0.0
  3
*U54
  1

  0
TEXT
  5
70A24
  8
MSM_CONTINUOUS
 10
77.515249142797032
 20
40.125000000000071
 30
0.0
 40
2.5000000000000009
  1
19
 50
90.0
  0
ENDBLK
  5
70A26
  8
0
  0
BLOCK
  8
0
  2
*U55
 70
     1
 10
0.0
 20
0.0
 30
0.0
  3
*U55
  1

  0
TEXT
  5
70A28
  8
MSM_CONTINUOUS
 10
116.1042662861019
 20
4.0006443470178912
 30
0.0
 40
2.5000000000000009
  1
4.5
 50
90.0
  0
ENDBLK
  5
70A2A
  8
0
  0
BLOCK
  8
0
  2
*U56
 70
     1
 10
0.0
 20
0.0
 30
0.0
  3
*U56
  1

  0
TEXT
  5
70A2C
  8
MSM_CONTINUOUS
 10
90.416666666666643
 20
57.09582562366495
 30
0.0
 40
2.5000000000000009
  1
22
  0
ENDBLK
  5
70A2E
  8
0
  0
BLOCK
  8
0
  2
*U57
 70
     1
 10
0.0
 20
0.0
 30
0.0
  3
*U57
  1

  0
TEXT
  5
70A30
  8
MSM_CONTINUOUS
 10
88.3333333333333
 20
50.164940878747302
 30
0.0
 40
2.5000000000000009
  1
17
  0
ENDBLK
  5
70A32
  8
0
  0
BLOCK
  8
0
  2
*U58
 70
     1
 10
0.0
 20
0.0
 30
0.0
  3
*U58
  1

  0
TEXT
  5
70A34
  8
MSM_CONTINUOUS
 10
100.1666666666666
 20
50.164940878747302
 30
0.0
 40
2.5000000000000009
  1
5
  0
ENDBLK
  5
70A36
  8
0
  0
BLOCK
  8
0
  2
*U59
 70
     1
 10
0.0
 20
0.0
 30
0.0
  3
*U59
  1

  0
TEXT
  5
70A38
  8
MSM_CONTINUOUS
 10
122.2579781102818
 20
48.624999999999993
 30
0.0
 40
2.5000000000000009
  1
36
 50
90.0
  0
ENDBLK
  5
70A3A
  8
0
  0
BLOCK
  8
0
  2
*U60
 70
     1
 10
0.0
 20
0.0
 30
0.0
  3
*U60
  1

  0
TEXT
  5
70A3C
  8
MSM_PART_NUMBER
 10
0.0
 20
-3.0
 30
0.0
 40
3.0
  1
BNK1202-3RRG0-C3-200
  0
ENDBLK
  5
70A3E
  8
0
  0
BLOCK
  8
0
  2
*U61
 70
     1
 10
0.0
 20
0.0
 30
0.0
  3
*U61
  1

  0
TEXT
  5
70A40
  8
MSM_PART_NUMBER
 10
0.0
 20
-8.0
 30
0.0
 40
3.0
  1
BNK1202-3RRG0-C3
  0
ENDBLK
  5
70A42
  8
0
  0
ENDSEC
  0
SECTION
  2
ENTITIES
  0
LINE
  5
6FC3E
  8
MSM_DASHED
 10
82.499999999999986
 20
19.5
 30
0.0
 11
86.499999999999957
 21
19.5
 31
0.0
  0
LINE
  5
6FC3F
  8
MSM_DASHED
 10
86.499999999999957
 20
36.5
 30
0.0
 11
82.499999999999986
 21
36.5
 31
0.0
  0
LINE
  5
6FC40
  8
MSM_DASHED
 10
82.499999999999986
 20
36.5
 30
0.0
 11
82.499999999999986
 21
19.5
 31
0.0
  0
LINE
  5
6FC41
  8
MSM_DASHED
 10
64.499999999999972
 20
19.5
 30
0.0
 11
68.499999999999972
 21
19.5
 31
0.0
  0
LINE
  5
6FC42
  8
MSM_DASHED
 10
68.499999999999972
 20
36.5
 30
0.0
 11
64.499999999999972
 21
36.5
 31
0.0
  0
LINE
  5
6FC43
  8
MSM_DASHED
 10
68.499999999999972
 20
36.5
 30
0.0
 11
68.499999999999972
 21
19.5
 31
0.0
  0
LINE
  5
6FC44
  8
MSM_DASHED
 10
81.499999999999957
 20
37.874355652982103
 30
0.0
 11
86.499999999999957
 21
37.874355652982103
 31
0.0
  0
LINE
  5
6FC45
  8
MSM_DASHED
 10
86.499999999999957
 20
42.374355652982103
 30
0.0
 11
81.499999999999957
 21
42.374355652982103
 31
0.0
  0
LINE
  5
6FC46
  8
MSM_DASHED
 10
81.499999999999957
 20
13.6256443470179
 30
0.0
 11
86.499999999999957
 21
13.6256443470179
 31
0.0
  0
LINE
  5
6FC47
  8
MSM_DASHED
 10
86.499999999999957
 20
18.1256443470179
 30
0.0
 11
81.499999999999957
 21
18.1256443470179
 31
0.0
  0
LINE
  5
6FC48
  8
MSM_CENTER
 10
78.499999999999972
 20
15.875644347017889
 30
0.0
 11
89.499999999999972
 21
15.875644347017889
 31
0.0
  0
LINE
  5
6FC49
  8
MSM_CENTER
 10
78.499999999999972
 20
40.124355652982103
 30
0.0
 11
89.499999999999972
 21
40.124355652982103
 31
0.0
  0
LINE
  5
6FC4A
  8
MSM_CONTINUOUS
 10
78.499999999999972
 20
19.099999999999909
 30
0.0
 11
81.499999999999957
 21
19.099999999999909
 31
0.0
  0
LINE
  5
6FC4B
  8
MSM_CONTINUOUS
 10
81.499999999999957
 20
36.900000000000091
 30
0.0
 11
78.499999999999972
 21
36.900000000000091
 31
0.0
  0
LINE
  5
6FC4C
  8
MSM_CONTINUOUS
 10
64.499999999999972
 20
18.5
 30
0.0
 11
78.499999999999972
 21
18.5
 31
0.0
  0
LINE
  5
6FC4D
  8
MSM_CONTINUOUS
 10
78.499999999999972
 20
37.5
 30
0.0
 11
64.499999999999972
 21
37.5
 31
0.0
  0
LINE
  5
6FC4E
  8
MSM_CONTINUOUS
 10
64.499999999999972
 20
37.5
 30
0.0
 11
64.499999999999972
 21
18.5
 31
0.0
  0
LINE
  5
6FC4F
  8
MSM_CONTINUOUS
 10
78.499999999999972
 20
37.5
 30
0.0
 11
78.499999999999972
 21
18.5
 31
0.0
  0
LINE
  5
6FC50
  8
MSM_CONTINUOUS
 10
81.499999999999957
 20
41.847382424126181
 30
0.0
 11
86.499999999999957
 21
41.847382424126181
 31
0.0
  0
LINE
  5
6FC51
  8
MSM_CONTINUOUS
 10
86.499999999999957
 20
46.0
 30
0.0
 11
81.499999999999957
 21
46.0
 31
0.0
  0
LINE
  5
6FC52
  8
MSM_CONTINUOUS
 10
86.499999999999957
 20
46.0
 30
0.0
 11
86.499999999999957
 21
10.0
 31
0.0
  0
LINE
  5
6FC53
  8
MSM_CONTINUOUS
 10
86.499999999999957
 20
14.152617575873821
 30
0.0
 11
81.499999999999957
 21
14.152617575873821
 31
0.0
  0
LINE
  5
6FC54
  8
MSM_CONTINUOUS
 10
81.499999999999957
 20
46.0
 30
0.0
 11
81.499999999999957
 21
10.0
 31
0.0
  0
LINE
  5
6FC55
  8
MSM_CONTINUOUS
 10
81.499999999999957
 20
10.0
 30
0.0
 11
86.499999999999957
 21
10.0
 31
0.0
  0
LINE
  5
6FC56
  8
MSM_CONTINUOUS
 10
86.499999999999957
 20
22.0
 30
0.0
 11
145.0
 21
22.0
 31
0.0
  0
LINE
  5
6FC57
  8
MSM_CONTINUOUS
 10
10.19999999999998
 20
22.0
 30
0.0
 11
64.499999999999972
 21
22.0
 31
0.0
  0
LINE
  5
6FC58
  8
MSM_CONTINUOUS
 10
64.499999999999972
 20
34.0
 30
0.0
 11
10.19999999999998
 21
34.0
 31
0.0
  0
LINE
  5
6FC59
  8
MSM_CONTINUOUS
 10
145.0
 20
34.0
 30
0.0
 11
86.499999999999957
 21
34.0
 31
0.0
  0
LINE
  5
6FC5A
  8
MSM_NARROW
 10
86.499999999999957
 20
33.5
 30
0.0
 11
141.0
 21
33.5
 31
0.0
  0
LINE
  5
6FC5B
  8
MSM_NARROW
 10
9.9999999999999893
 20
33.5
 30
0.0
 11
64.499999999999972
 21
33.5
 31
0.0
  0
CIRCLE
  5
6FC5C
  8
MSM_DASHED
 10
280.0
 20
28.0
 30
0.0
 40
9.5000000000000302
  0
LINE
  5
6FC5D
  8
MSM_CENTER
 10
263.5
 20
28.0
 30
0.0
 11
296.5
 21
28.0
 31
0.0
  0
LINE
  5
6FC5E
  8
MSM_CENTER
 10
280.0
 20
5.0
 30
0.0
 11
280.0
 21
51.0
 31
0.0
  0
CIRCLE
  5
6FC5F
  8
MSM_CONTINUOUS
 10
287.0
 20
15.875644347017889
 30
0.0
 40
2.2500000000000071
  0
CIRCLE
  5
6FC60
  8
MSM_CONTINUOUS
 10
287.0
 20
40.124355652982103
 30
0.0
 40
2.2500000000000071
  0
CIRCLE
  5
6FC61
  8
MSM_CONTINUOUS
 10
273.0
 20
40.124355652982103
 30
0.0
 40
2.2500000000000071
  0
CIRCLE
  5
6FC62
  8
MSM_CONTINUOUS
 10
280.0
 20
28.0
 30
0.0
 40
8.5000000000000266
  0
ARC
  5
6FC63
  8
MSM_CONTINUOUS
 10
280.0
 20
28.0
 30
0.0
 40
18.000000000000021
 50
230.29098344693119
 51
309.70901655306841
  0
ARC
  5
6FC64
  8
MSM_CONTINUOUS
 10
280.0
 20
28.0
 30
0.0
 40
18.000000000000021
 50
50.290983446931548
 51
129.70901655306861
  0
LINE
  5
6FC65
  8
MSM_CONTINUOUS
 10
291.5
 20
14.152617575873821
 30
0.0
 11
291.5
 21
41.847382424126181
 31
0.0
  0
LINE
  5
6FC66
  8
MSM_CONTINUOUS
 10
268.5
 20
41.847382424126181
 30
0.0
 11
268.5
 21
14.152617575873821
 31
0.0
  0
CIRCLE
  5
6FC67
  8
MSM_CONTINUOUS
 10
273.0
 20
15.875644347017889
 30
0.0
 40
2.2500000000000071
  0
INSERT
  5
6FC68
  8
MSM_CONTINUOUS
  2
*U60
 10
0.0
 20
0.0
 30
0.0
  0
INSERT
  5
6FC69
  8
MSM_CONTINUOUS
  2
*U61
 10
0.0
 20
0.0
 30
0.0
  0
LINE
  5
6FC6A
  8
MSM_CENTER
 10
-9.9999999999999538
 20
28.0
 30
0.0
 11
210.0
 21
28.0
 31
0.0
  0
LINE
  5
6FC6B
  8
MSM_DASHED
 10
64.499999999999972
 20
34.0
 30
0.0
 11
86.499999999999957
 21
34.0
 31
0.0
  0
LINE
  5
6FC6C
  8
MSM_DASHED
 10
64.499999999999972
 20
33.5
 30
0.0
 11
86.499999999999957
 21
33.5
 31
0.0
  0
LINE
  5
6FC6D
  8
MSM_NARROW
 10
9.9999999999999893
 20
22.5
 30
0.0
 11
64.499999999999972
 21
22.5
 31
0.0
  0
LINE
  5
6FC6E
  8
MSM_DASHED
 10
64.499999999999972
 20
22.5
 30
0.0
 11
86.499999999999957
 21
22.5
 31
0.0
  0
LINE
  5
6FC6F
  8
MSM_DASHED
 10
64.499999999999972
 20
22.0
 30
0.0
 11
86.499999999999957
 21
22.0
 31
0.0
  0
LINE
  5
6FC70
  8
MSM_NARROW
 10
86.499999999999957
 20
22.5
 30
0.0
 11
141.0
 21
22.5
 31
0.0
  0
LINE
  5
6FC71
  8
MSM_CENTER
 10
289.62500000000011
 20
11.329010977149441
 30
0.0
 11
284.375
 21
20.422277716886359
 31
0.0
  0
LINE
  5
6FC72
  8
MSM_CENTER
 10
275.625
 20
35.577722283113637
 30
0.0
 11
270.37499999999949
 21
44.670989022851238
 31
0.0
  0
LINE
  5
6FC73
  8
MSM_CENTER
 10
275.625
 20
20.422277716886359
 30
0.0
 11
270.37499999999949
 21
11.32901097714875
 31
0.0
  0
LINE
  5
6FC74
  8
MSM_CENTER
 10
289.62500000000011
 20
44.670989022850563
 30
0.0
 11
284.375
 21
35.577722283113637
 31
0.0
  0
CIRCLE
  5
6FC75
  8
MSM_CENTER
 10
280.0
 20
28.0
 30
0.0
 40
14.00000000000046
  0
LINE
  5
6FDE8
  8
MSM_CONTINUOUS
 10
2.099999999999997
 20
24.199999999999999
 30
0.0
 11
3.0
 21
24.199999999999999
 31
0.0
  0
LINE
  5
6FDE9
  8
MSM_CONTINUOUS
 10
3.0
 20
31.800000000000001
 30
0.0
 11
2.099999999999997
 21
31.800000000000001
 31
0.0
  0
LINE
  5
6FDEA
  8
MSM_CONTINUOUS
 10
0.0
 20
24.5
 30
0.0
 11
0.5
 21
24.0
 31
0.0
  0
LINE
  5
6FDEB
  8
MSM_CONTINUOUS
 10
0.5
 20
32.0
 30
0.0
 11
0.0
 21
31.5
 31
0.0
  0
LINE
  5
6FDEC
  8
MSM_CONTINUOUS
 10
0.0
 20
31.5
 30
0.0
 11
0.0
 21
24.5
 31
0.0
  0
LINE
  5
6FDED
  8
MSM_CONTINUOUS
 10
3.0
 20
24.0
 30
0.0
 11
9.8000000000000114
 21
24.0
 31
0.0
  0
LINE
  5
6FDEE
  8
MSM_CONTINUOUS
 10
9.8000000000000114
 20
32.0
 30
0.0
 11
3.0
 21
32.0
 31
0.0
  0
LINE
  5
6FDEF
  8
MSM_CONTINUOUS
 10
3.0
 20
32.0
 30
0.0
 11
3.0
 21
24.0
 31
0.0
  0
LINE
  5
6FDF0
  8
MSM_CONTINUOUS
 10
2.0999999999999872
 20
24.0
 30
0.0
 11
2.0999999999999872
 21
32.0
 31
0.0
  0
LINE
  5
6FDF1
  8
MSM_CONTINUOUS
 10
0.5
 20
24.0
 30
0.0
 11
2.0999999999999872
 21
24.0
 31
0.0
  0
LINE
  5
6FDF2
  8
MSM_CONTINUOUS
 10
2.0999999999999872
 20
32.0
 30
0.0
 11
0.5
 21
32.0
 31
0.0
  0
LINE
  5
6FDF3
  8
MSM_CONTINUOUS
 10
0.5
 20
32.0
 30
0.0
 11
0.5
 21
24.0
 31
0.0
  0
ARC
  5
6FDF4
  8
MSM_CONTINUOUS
 10
9.7999999999999972
 20
23.800000000000001
 30
0.0
 40
0.2000000000000099
 50
0.0
 51
90.0
  0
ARC
  5
6FDF5
  8
MSM_CONTINUOUS
 10
9.7999999999999972
 20
32.20000000000001
 30
0.0
 40
0.2000000000000099
 50
270.0
 51
0.0
  0
LINE
  5
6FDF6
  8
MSM_CONTINUOUS
 10
10.0
 20
22.199999999999999
 30
0.0
 11
10.19999999999999
 21
22.0
 31
0.0
  0
LINE
  5
6FDF7
  8
MSM_CONTINUOUS
 10
10.19999999999999
 20
34.0
 30
0.0
 11
10.0
 21
33.799999999999997
 31
0.0
  0
LINE
  5
6FDF8
  8
MSM_CONTINUOUS
 10
10.19999999999999
 20
34.0
 30
0.0
 11
10.19999999999999
 21
22.0
 31
0.0
  0
LINE
  5
6FDF9
  8
MSM_CONTINUOUS
 10
10.0
 20
33.799999999999997
 30
0.0
 11
10.0
 21
22.199999999999999
 31
0.0
  0
LINE
  5
6FE02
  8
MSM_CONTINUOUS
 10
185.0
 20
24.0
 30
0.0
 11
199.5
 21
24.0
 31
0.0
  0
LINE
  5
6FE03
  8
MSM_CONTINUOUS
 10
199.5
 20
32.0
 30
0.0
 11
185.0
 21
32.0
 31
0.0
  0
LINE
  5
6FE04
  8
MSM_CONTINUOUS
 10
200.0
 20
31.5
 30
0.0
 11
199.5
 21
32.0
 31
0.0
  0
LINE
  5
6FE05
  8
MSM_CONTINUOUS
 10
199.5
 20
24.0
 30
0.0
 11
200.0
 21
24.5
 31
0.0
  0
LINE
  5
6FE06
  8
MSM_CONTINUOUS
 10
200.0
 20
31.5
 30
0.0
 11
200.0
 21
24.5
 31
0.0
  0
LINE
  5
6FE07
  8
MSM_CONTINUOUS
 10
199.5
 20
32.0
 30
0.0
 11
199.5
 21
24.0
 31
0.0
  0
LINE
  5
6FE08
  8
MSM_CONTINUOUS
 10
185.0
 20
32.5
 30
0.0
 11
184.5
 21
33.0
 31
0.0
  0
LINE
  5
6FE09
  8
MSM_CONTINUOUS
 10
184.5
 20
23.0
 30
0.0
 11
185.0
 21
23.5
 31
0.0
  0
LINE
  5
6FE0A
  8
MSM_CONTINUOUS
 10
185.0
 20
32.5
 30
0.0
 11
185.0
 21
23.5
 31
0.0
  0
LINE
  5
6FE0B
  8
MSM_CONTINUOUS
 10
155.19999999999999
 20
23.000000000000021
 30
0.0
 11
184.5
 21
23.000000000000021
 31
0.0
  0
LINE
  5
6FE0C
  8
MSM_CONTINUOUS
 10
184.5
 20
32.999999999999993
 30
0.0
 11
155.19999999999999
 21
32.999999999999993
 31
0.0
  0
LINE
  5
6FE0D
  8
MSM_CONTINUOUS
 10
184.5
 20
32.999999999999993
 30
0.0
 11
184.5
 21
23.000000000000021
 31
0.0
  0
ARC
  5
6FE0E
  8
MSM_CONTINUOUS
 10
155.1999999999999
 20
22.800000000000079
 30
0.0
 40
0.1999999999999318
 50
90.0
 51
180.0
  0
ARC
  5
6FE0F
  8
MSM_CONTINUOUS
 10
155.1999999999999
 20
33.199999999999918
 30
0.0
 40
0.1999999999999318
 50
180.0
 51
270.0
  0
LINE
  5
6FE10
  8
MSM_CONTINUOUS
 10
155.0
 20
34.70000000000001
 30
0.0
 11
154.69999999999999
 21
35.0
 31
0.0
  0
LINE
  5
6FE11
  8
MSM_CONTINUOUS
 10
154.69999999999999
 20
21.0
 30
0.0
 11
155.0
 21
21.300000000000001
 31
0.0
  0
LINE
  5
6FE12
  8
MSM_CONTINUOUS
 10
155.0
 20
34.70000000000001
 30
0.0
 11
155.0
 21
21.300000000000001
 31
0.0
  0
LINE
  5
6FE13
  8
MSM_CONTINUOUS
 10
145.0
 20
31.605551275463981
 30
0.0
 11
150.0
 21
31.605551275463981
 31
0.0
  0
LINE
  5
6FE14
  8
MSM_CONTINUOUS
 10
150.0
 20
31.605551275463981
 30
0.0
 11
150.0
 21
24.394448724536009
 31
0.0
  0
LINE
  5
6FE15
  8
MSM_CONTINUOUS
 10
150.0
 20
24.394448724536009
 30
0.0
 11
145.0
 21
24.394448724536009
 31
0.0
  0
LINE
  5
6FE16
  8
MSM_CONTINUOUS
 10
145.0
 20
21.0
 30
0.0
 11
154.69999999999999
 21
21.0
 31
0.0
  0
LINE
  5
6FE17
  8
MSM_CONTINUOUS
 10
154.69999999999999
 20
35.0
 30
0.0
 11
145.0
 21
35.0
 31
0.0
  0
LINE
  5
6FE18
  8
MSM_CONTINUOUS
 10
154.69999999999999
 20
35.0
 30
0.0
 11
154.69999999999999
 21
21.0
 31
0.0
  0
LINE
  5
6FE19
  8
MSM_CONTINUOUS
 10
145.0
 20
35.0
 30
0.0
 11
145.0
 21
21.0
 31
0.0
  0
LINE
  5
6FE21
  8
MSM_CONTINUOUS
 10
141.0
 20
34.0
 30
0.0
 11
141.0
 21
22.0
 31
0.0
  0
LINE
  5
706BC
  8
MSM_CONTINUOUS
 10
175.0
 20
33.0
 30
0.0
 11
175.0
 21
23.0
 31
0.0
  0
LINE
  5
706BD
  8
MSM_NARROW
 10
185.0
 20
23.54149999999953
 30
0.0
 11
175.0
 21
23.54149999999953
 31
0.0
  0
LINE
  5
706BE
  8
MSM_NARROW
 10
174.5
 20
23.000000000000028
 30
0.0
 11
175.0
 21
23.54149999999953
 31
0.0
  0
LINE
  5
706BF
  8
MSM_NARROW
 10
185.0
 20
32.45850000000047
 30
0.0
 11
175.0
 21
32.45850000000047
 31
0.0
  0
LINE
  5
706C0
  8
MSM_NARROW
 10
174.5
 20
32.999999999999972
 30
0.0
 11
175.0
 21
32.45850000000047
 31
0.0
  0
CIRCLE
  5
706CD
  8
MSM_CONTINUOUS
 10
280.0
 20
28.0
 30
0.0
 40
7.0000000000000213
  0
LINE
  5
706CE
  8
MSM_DASHED
 10
274.0
 20
31.605551275463998
 30
0.0
 11
274.0
 21
24.394448724536009
 31
0.0
  0
CIRCLE
  5
706D2
  8
MSM_CONTINUOUS
 10
280.0
 20
28.0
 30
0.0
 40
5.0000000000000151
  0
CIRCLE
  5
706D3
  8
MSM_CONTINUOUS
 10
280.0
 20
28.0
 30
0.0
 40
4.0000000000000124
  0
CIRCLE
  5
706D4
  8
MSM_NARROW
 10
280.0
 20
28.0
 30
0.0
 40
4.458499999999999
  0
LINE
  5
706D5
  8
MSM_DASHED
 10
286.0
 20
24.394448724536009
 30
0.0
 11
286.0
 21
31.605551275463998
 31
0.0
  0
ENDSEC
  0
EOF
