  0
SECTION
  2
HEADER
  9
$ACADVER
  1
AC1009
  9
$INSBASE
 10
0.0
 20
0.0
 30
0.0
  9
$EXTMIN
 10
44.758069139390159
 20
37.292175825326922
 30
-0.0000000000112498
  9
$EXTMAX
 10
390.37849544024982
 20
156.89437908923071
 30
0.0000000000002956
  9
$LIMMIN
 10
0.0
 20
0.0
  9
$LIMMAX
 10
297.0
 20
210.0
  9
$ORTHOMODE
 70
     1
  9
$REGENMODE
 70
     1
  9
$FILLMODE
 70
     1
  9
$QTEXTMODE
 70
     0
  9
$MIRRTEXT
 70
     0
  9
$DRAGMODE
 70
     2
  9
$LTSCALE
 40
1.0
  9
$OSMODE
 70
    36
  9
$ATTMODE
 70
     1
  9
$TEXTSIZE
 40
3.0
  9
$TRACEWID
 40
1.0
  9
$TEXTSTYLE
  7
STANDARD
  9
$CLAYER
  8
0
  9
$CELTYPE
  6
CONTINUOUS
  9
$CECOLOR
 62
     7
  9
$DIMSCALE
 40
1.0
  9
$DIMASZ
 40
2.0
  9
$DIMEXO
 40
1.0
  9
$DIMDLI
 40
0.0
  9
$DIMRND
 40
0.0
  9
$DIMDLE
 40
0.0
  9
$DIMEXE
 40
1.0
  9
$DIMTP
 40
0.0
  9
$DIMTM
 40
0.0
  9
$DIMTXT
 40
2.0
  9
$DIMCEN
 40
0.0
  9
$DIMTSZ
 40
0.0
  9
$DIMTOL
 70
     0
  9
$DIMLIM
 70
     0
  9
$DIMTIH
 70
     0
  9
$DIMTOH
 70
     0
  9
$DIMSE1
 70
     0
  9
$DIMSE2
 70
     0
  9
$DIMTAD
 70
     1
  9
$DIMZIN
 70
     8
  9
$DIMBLK
  1

  9
$DIMASO
 70
     1
  9
$DIMSHO
 70
     1
  9
$DIMPOST
  1

  9
$DIMAPOST
  1

  9
$DIMALT
 70
     0
  9
$DIMALTD
 70
     2
  9
$DIMALTF
 40
0.04
  9
$DIMLFAC
 40
1.0
  9
$DIMTOFL
 70
     1
  9
$DIMTVP
 40
1.0
  9
$DIMTIX
 70
     1
  9
$DIMSOXD
 70
     0
  9
$DIMSAH
 70
     0
  9
$DIMBLK1
  1

  9
$DIMBLK2
  1

  9
$DIMSTYLE
  2
MISUMI
  9
$DIMCLRD
 70
   256
  9
$DIMCLRE
 70
   256
  9
$DIMCLRT
 70
   256
  9
$DIMTFAC
 40
0.6
  9
$DIMGAP
 40
1.0
  9
$LUNITS
 70
     2
  9
$LUPREC
 70
     4
  9
$SKETCHINC
 40
1.0
  9
$FILLETRAD
 40
0.0
  9
$AUNITS
 70
     0
  9
$AUPREC
 70
     0
  9
$MENU
  1
.
  9
$ELEVATION
 40
0.0
  9
$PELEVATION
 40
0.0
  9
$THICKNESS
 40
0.0
  9
$LIMCHECK
 70
     0
  9
$BLIPMODE
 70
     0
  9
$CHAMFERA
 40
0.0
  9
$CHAMFERB
 40
0.0
  9
$SKPOLY
 70
     0
  9
$TDCREATE
 40
2454126.4129709839
  9
$TDUPDATE
 40
2454126.6634085998
  9
$TDINDWG
 40
0.0275318634
  9
$TDUSRTIMER
 40
0.0275316898
  9
$USRTIMER
 70
     1
  9
$ANGBASE
 50
0.0
  9
$ANGDIR
 70
     0
  9
$PDMODE
 70
     0
  9
$PDSIZE
 40
0.0
  9
$PLINEWID
 40
0.0
  9
$COORDS
 70
     2
  9
$SPLFRAME
 70
     0
  9
$SPLINETYPE
 70
     6
  9
$SPLINESEGS
 70
     8
  9
$ATTDIA
 70
     0
  9
$ATTREQ
 70
     1
  9
$HANDLING
 70
     1
  9
$HANDSEED
  5
2979
  9
$SURFTAB1
 70
     6
  9
$SURFTAB2
 70
     6
  9
$SURFTYPE
 70
     6
  9
$SURFU
 70
     6
  9
$SURFV
 70
     6
  9
$UCSNAME
  2

  9
$UCSORG
 10
0.0
 20
0.0
 30
0.0
  9
$UCSXDIR
 10
1.0
 20
0.0
 30
0.0
  9
$UCSYDIR
 10
0.0
 20
1.0
 30
0.0
  9
$PUCSNAME
  2

  9
$PUCSORG
 10
0.0
 20
0.0
 30
0.0
  9
$PUCSXDIR
 10
1.0
 20
0.0
 30
0.0
  9
$PUCSYDIR
 10
0.0
 20
1.0
 30
0.0
  9
$USERI1
 70
     0
  9
$USERI2
 70
     0
  9
$USERI3
 70
     0
  9
$USERI4
 70
     0
  9
$USERI5
 70
     0
  9
$USERR1
 40
0.0
  9
$USERR2
 40
0.0
  9
$USERR3
 40
0.0
  9
$USERR4
 40
0.0
  9
$USERR5
 40
0.0
  9
$WORLDVIEW
 70
     1
  9
$SHADEDGE
 70
     3
  9
$SHADEDIF
 70
    70
  9
$TILEMODE
 70
     1
  9
$MAXACTVP
 70
    64
  9
$PLIMCHECK
 70
     0
  9
$PEXTMIN
 10
0.0
 20
0.0
 30
0.0
  9
$PEXTMAX
 10
0.0
 20
0.0
 30
0.0
  9
$PLIMMIN
 10
0.0
 20
0.0
  9
$PLIMMAX
 10
12.0
 20
9.0
  9
$UNITMODE
 70
     0
  9
$VISRETAIN
 70
     1
  9
$PLINEGEN
 70
     0
  9
$PSLTSCALE
 70
     0
  0
ENDSEC
  0
SECTION
  2
TABLES
  0
TABLE
  2
VPORT
 70
     2
  0
VPORT
  2
*ACTIVE
 70
     0
 10
0.0
 20
0.0
 11
1.0
 21
1.0
 12
217.56828228981999
 22
97.09327745727883
 13
0.0
 23
0.0
 14
10.0
 24
10.0
 15
10.0
 25
10.0
 16
0.0
 26
0.0
 36
1.0
 17
0.0
 27
0.0
 37
0.0
 40
235.8967511761841
 41
1.472568578553616
 42
50.0
 43
0.0
 44
0.0
 50
0.0
 51
0.0
 71
     0
 72
  1000
 73
     1
 74
     3
 75
     0
 76
     0
 77
     0
 78
     0
  0
ENDTAB
  0
TABLE
  2
LTYPE
 70
     5
  0
LTYPE
  2
CONTINUOUS
 70
     0
  3
Solid line
 72
    65
 73
     0
 40
0.0
  0
LTYPE
  2
CENTER
 70
     0
  3
Center ____ _ ____ _ ____ _ ____ _ ____ _ ____
 72
    65
 73
     4
 40
2.0
 49
1.25
 49
-0.25
 49
0.25
 49
-0.25
  0
LTYPE
  2
DASHED
 70
     0
  3
Dashed __ __ __ __ __ __ __ __ __ __ __ __ __ _
 72
    65
 73
     2
 40
0.75
 49
0.5
 49
-0.25
  0
ENDTAB
  0
TABLE
  2
LAYER
 70
     6
  0
LAYER
  2
0
 70
     0
 62
     7
  6
CONTINUOUS
  0
LAYER
  2
DEFPOINTS
 70
     0
 62
     7
  6
CONTINUOUS
  0
LAYER
  2
CENTER
 70
     0
 62
     1
  6
CENTER
  0
ENDTAB
  0
TABLE
  2
STYLE
 70
     2
  0
STYLE
  2
STANDARD
 70
     0
 40
0.0
 41
1.0
 50
0.0
 71
     0
 42
3.0
  3
txt.shx
  4
extfont.shx
  0
ENDTAB
  0
TABLE
  2
VIEW
 70
     0
  0
ENDTAB
  0
TABLE
  2
UCS
 70
     0
  0
ENDTAB
  0
TABLE
  2
APPID
 70
     2
  0
APPID
  2
ACAD
 70
     0
  0
APPID
  2
_CALL_MAC$
 70
     0
  0
ENDTAB
  0
TABLE
  2
DIMSTYLE
 70
     1
  0
DIMSTYLE
  2
MISUMI
 70
     0
  3

  4

  5

  6

  7

 40
1.0
 41
2.0
 42
1.0
 43
0.0
 44
1.0
 45
0.0
 46
0.0
 47
0.0
 48
0.0
140
2.0
141
0.0
142
0.0
143
0.04
144
1.0
145
1.0
146
0.6
147
1.0
 71
     0
 72
     0
 73
     0
 74
     0
 75
     0
 76
     0
 77
     1
 78
     8
170
     0
171
     2
172
     1
173
     0
174
     1
175
     0
176
   256
177
   256
178
   256
  0
ENDTAB
  0
ENDSEC
  0
SECTION
  2
BLOCKS
  0
BLOCK
  8
0
  2
$MODEL_SPACE
 70
     0
 10
0.0
 20
0.0
 30
0.0
  3
$MODEL_SPACE
  1

  0
ENDBLK
  5
2949
  8
0
  0
BLOCK
 67
     1
  8
0
  2
$PAPER_SPACE
 70
     0
 10
0.0
 20
0.0
 30
0.0
  3
$PAPER_SPACE
  1

  0
ENDBLK
  5
2945
 67
     1
  8
0
  0
ENDSEC
  0
SECTION
  2
ENTITIES
  0
TEXT
  5
1BB
  8
0
  6
CONTINUOUS
 62
     7
 10
44.781507521271799
 20
37.295405490486019
 30
0.0
 40
3.0
  1
CPSHWK8
 11
44.781507521271799
 21
38.795405490486019
 31
0.0
 73
     2
  0
TEXT
  5
1BC
  8
0
  6
CONTINUOUS
 62
     7
 10
44.781507521271799
 20
42.295405490486012
 30
0.0
 40
3.0
  1
CPSHWK87-20-30
 11
44.781507521271799
 21
43.795405490486012
 31
0.0
 73
     2
  0
LINE
  5
314
  8
CENTER
  6
CENTER
 62
     1
 10
66.636501880974194
 20
107.1741220432523
 30
0.0
 11
156.63650188097421
 21
107.1741220432523
 31
0.0
  0
LINE
  5
315
  8
CENTER
  6
CENTER
 62
     1
 10
111.63650188097419
 20
152.17412204325251
 30
0.0
 11
111.63650188097419
 21
62.17412204325251
 31
0.0
  0
CIRCLE
  5
25AF
  8
0
  6
CONTINUOUS
 62
     7
 10
141.74220888097409
 20
88.361988043252595
 30
0.0
 40
3.0
  0
LINE
  5
25B0
  8
0
  6
CONTINUOUS
 62
     7
 10
81.386233880974189
 20
91.245120043252584
 30
0.0
 11
84.05594688097419
 21
89.939878043252605
 31
0.0
  0
LINE
  5
25B1
  8
0
  6
CONTINUOUS
 62
     7
 10
81.386233880974189
 20
91.245120043252584
 30
0.0
 11
78.96164488097422
 21
89.678354043252597
 31
0.0
  0
CIRCLE
  5
25B2
  8
0
  6
CONTINUOUS
 62
     7
 10
81.530793880974144
 20
88.361988043252595
 30
0.0
 40
4.424999999999998
  0
CIRCLE
  5
25B3
  8
0
  6
CONTINUOUS
 62
     7
 10
141.74220888097409
 20
88.361988043252595
 30
0.0
 40
2.5
  0
ARC
  5
25B4
  8
0
  6
DASHED
 62
     3
 10
247.71215688097411
 20
107.1016740432526
 30
0.0
 40
100.0
 50
168.51586900000041
 51
191.42312100000061
  0
ARC
  5
25B5
  8
0
  6
DASHED
 62
     3
 10
-24.439153119025899
 20
107.2465700432525
 30
0.0
 40
100.0
 50
348.51586900000052
 51
11.423121000000711
  0
CIRCLE
  5
25B6
  8
0
  6
CONTINUOUS
 62
     7
 10
111.63650188097419
 20
107.1741220432525
 30
0.0
 40
43.5
  0
CIRCLE
  5
25B7
  8
CENTER
  6
CENTER
 62
     1
 10
111.63650188097419
 20
107.1741220432525
 30
0.0
 40
35.5
  0
LINE
  5
25B8
  8
0
  6
CONTINUOUS
 62
     7
 10
94.218179880974191
 20
74.540444043252592
 30
0.0
 11
91.299293880974048
 21
74.543212043252581
 31
0.0
  0
LINE
  5
25B9
  8
0
  6
CONTINUOUS
 62
     7
 10
91.430555880974154
 20
79.596385043252582
 30
0.0
 11
94.402257880974204
 21
79.593567043252577
 31
0.0
  0
CIRCLE
  5
25BA
  8
0
  6
CONTINUOUS
 62
     7
 10
92.824367880974194
 20
77.068414043252588
 30
0.0
 40
4.424999999999998
  0
ARC
  5
25BB
  8
0
  6
DASHED
 62
     3
 10
111.5640538809741
 20
-28.901532956747399
 30
0.0
 40
100.0
 50
78.515869000003875
 51
101.42312100000071
  0
ARC
  5
25BC
  8
0
  6
DASHED
 62
     3
 10
111.63650188097419
 20
107.1741220432525
 30
0.0
 40
43.399999999999977
 50
209.26027399999509
 51
240.67871600000561
  0
ARC
  5
25BD
  8
0
  6
DASHED
 62
     3
 10
75.51879488097407
 20
86.938725043252603
 30
0.0
 40
2.0
 50
168.51586900000041
 51
209.26027399999509
  0
LINE
  5
25BE
  8
0
  6
CONTINUOUS
 62
     7
 10
91.430555880974154
 20
79.596385043252582
 30
0.0
 11
89.938174880974117
 21
77.125316043252596
 31
0.0
  0
ARC
  5
25BF
  8
0
  6
DASHED
 62
     3
 10
91.36265788097414
 20
71.077983043252559
 30
0.0
 40
2.0
 50
240.67871600000561
 51
281.42312100000072
  0
LINE
  5
25C0
  8
0
  6
CONTINUOUS
 62
     7
 10
91.299293880974048
 20
74.543212043252581
 30
0.0
 11
89.938174880974117
 21
77.125316043252596
 31
0.0
  0
LINE
  5
25C1
  8
0
  6
CONTINUOUS
 62
     7
 10
81.675354880974211
 20
85.478856043252577
 30
0.0
 11
79.053090880974111
 21
86.760899043252564
 31
0.0
  0
LINE
  5
25C2
  8
0
  6
CONTINUOUS
 62
     7
 10
79.053090880974111
 20
86.760899043252564
 30
0.0
 11
78.96164488097422
 21
89.678354043252597
 31
0.0
  0
LINE
  5
25C3
  8
0
  6
CONTINUOUS
 62
     7
 10
84.010122880974137
 20
89.91124404325258
 30
0.0
 11
84.099942880974041
 21
87.045622043252578
 31
0.0
  0
LINE
  5
25C4
  8
0
  6
CONTINUOUS
 62
     7
 10
84.099942880974041
 20
87.045622043252578
 30
0.0
 11
81.675354880974211
 21
85.478856043252577
 31
0.0
  0
LINE
  5
25C5
  8
0
  6
CONTINUOUS
 62
     7
 10
94.373623880974193
 20
79.547743043252581
 30
0.0
 11
95.710560880974
 21
77.011513043252592
 31
0.0
  0
LINE
  5
25C6
  8
0
  6
CONTINUOUS
 62
     7
 10
95.710560880974
 20
77.011513043252592
 30
0.0
 11
94.218179880974191
 21
74.540444043252592
 31
0.0
  0
ARC
  5
25C7
  8
0
  6
DASHED
 62
     3
 10
111.63650188097419
 20
107.1741220432525
 30
0.0
 40
43.399999999999977
 50
299.26027399999919
 51
330.67871600000382
  0
CIRCLE
  5
25C8
  8
0
  6
CONTINUOUS
 62
     7
 10
130.44863588097419
 20
77.068414043252588
 30
0.0
 40
3.0
  0
CIRCLE
  5
25C9
  8
0
  6
CONTINUOUS
 62
     7
 10
130.44863588097419
 20
77.068414043252588
 30
0.0
 40
2.5
  0
ARC
  5
25CA
  8
0
  6
DASHED
 62
     3
 10
131.87189788097399
 20
71.056415043252585
 30
0.0
 40
2.0
 50
258.51586900000387
 51
299.26027399999919
  0
ARC
  5
25CB
  8
0
  6
DASHED
 62
     3
 10
147.7326408809742
 20
86.900278043252584
 30
0.0
 40
2.0
 50
330.67871600000382
 51
11.423121000000711
  0
CIRCLE
  5
25CC
  8
0
  6
CONTINUOUS
 62
     7
 10
92.824367880974194
 20
137.27982904325259
 30
0.0
 40
3.0
  0
CIRCLE
  5
25CD
  8
0
  6
CONTINUOUS
 62
     7
 10
92.824367880974194
 20
137.27982904325259
 30
0.0
 40
2.5
  0
ARC
  5
25CE
  8
0
  6
DASHED
 62
     3
 10
111.7089498809741
 20
243.24977704325261
 30
0.0
 40
100.0
 50
258.51586900000387
 51
281.42312100000072
  0
ARC
  5
25CF
  8
0
  6
DASHED
 62
     3
 10
111.63650188097419
 20
107.1741220432525
 30
0.0
 40
43.399999999999977
 50
119.2602739999991
 51
150.67871600000379
  0
ARC
  5
25D0
  8
0
  6
DASHED
 62
     3
 10
75.5403628809742
 20
127.44796504325259
 30
0.0
 40
2.0
 50
150.67871600000379
 51
191.42312100000061
  0
CIRCLE
  5
25D1
  8
0
  6
CONTINUOUS
 62
     7
 10
81.530793880974144
 20
125.9862560432521
 30
0.0
 40
3.0
  0
CIRCLE
  5
25D2
  8
0
  6
CONTINUOUS
 62
     7
 10
81.530793880974144
 20
125.9862560432521
 30
0.0
 40
2.5
  0
ARC
  5
25D3
  8
0
  6
DASHED
 62
     3
 10
91.401105880974157
 20
143.29182804325259
 30
0.0
 40
2.0
 50
78.515869000003875
 51
119.2602739999991
  0
CIRCLE
  5
25D4
  8
0
  6
CONTINUOUS
 62
     7
 10
130.44863588097419
 20
137.27982904325259
 30
0.0
 40
4.424999999999998
  0
ARC
  5
25D5
  8
0
  6
DASHED
 62
     3
 10
111.63650188097419
 20
107.1741220432525
 30
0.0
 40
43.399999999999977
 50
29.260273999995128
 51
60.678716000005608
  0
CIRCLE
  5
25D6
  8
0
  6
CONTINUOUS
 62
     7
 10
141.74220888097409
 20
125.9862560432521
 30
0.0
 40
4.424999999999998
  0
LINE
  5
25D7
  8
0
  6
CONTINUOUS
 62
     7
 10
141.88676988097421
 20
123.10312404325261
 30
0.0
 11
139.21705688097401
 21
124.4083650432526
 31
0.0
  0
LINE
  5
25D8
  8
0
  6
CONTINUOUS
 62
     7
 10
139.17305988097419
 20
127.3026220432525
 30
0.0
 11
141.59764888097419
 21
128.86938704325209
 31
0.0
  0
LINE
  5
25D9
  8
0
  6
CONTINUOUS
 62
     7
 10
139.262880880974
 20
124.4369990432525
 30
0.0
 11
139.17305988097419
 21
127.3026220432525
 31
0.0
  0
LINE
  5
25DA
  8
0
  6
CONTINUOUS
 62
     7
 10
141.59764888097419
 20
128.86938704325209
 30
0.0
 11
144.21991288097399
 21
127.5873440432525
 31
0.0
  0
LINE
  5
25DB
  8
0
  6
CONTINUOUS
 62
     7
 10
141.88676988097421
 20
123.10312404325261
 30
0.0
 11
144.31135788097399
 21
124.66989004325259
 31
0.0
  0
LINE
  5
25DC
  8
0
  6
CONTINUOUS
 62
     7
 10
144.21991288097399
 20
127.5873440432525
 30
0.0
 11
144.31135788097399
 21
124.66989004325259
 31
0.0
  0
ARC
  5
25DD
  8
0
  6
DASHED
 62
     3
 10
147.75420788097409
 20
127.4095180432526
 30
0.0
 40
2.0
 50
348.51586900000052
 51
29.260273999995128
  0
LINE
  5
25DE
  8
0
  6
CONTINUOUS
 62
     7
 10
131.84244688097411
 20
134.75185904325249
 30
0.0
 11
133.3348278809741
 21
137.22292804325261
 31
0.0
  0
LINE
  5
25DF
  8
0
  6
CONTINUOUS
 62
     7
 10
131.9737098809741
 20
139.8050320432524
 30
0.0
 11
133.3348278809741
 21
137.22292804325261
 31
0.0
  0
LINE
  5
25E0
  8
0
  6
CONTINUOUS
 62
     7
 10
127.5624428809741
 20
137.3367300432526
 30
0.0
 11
129.0548238809742
 21
139.8078000432526
 31
0.0
  0
LINE
  5
25E1
  8
0
  6
CONTINUOUS
 62
     7
 10
128.8993788809741
 20
134.80050104325261
 30
0.0
 11
127.5624428809741
 21
137.3367300432526
 31
0.0
  0
LINE
  5
25E2
  8
0
  6
CONTINUOUS
 62
     7
 10
131.84244688097411
 20
134.75185904325249
 30
0.0
 11
128.87074488097409
 21
134.7546770432526
 31
0.0
  0
LINE
  5
25E3
  8
0
  6
CONTINUOUS
 62
     7
 10
129.0548238809742
 20
139.8078000432526
 30
0.0
 11
131.9737098809741
 21
139.8050320432524
 31
0.0
  0
ARC
  5
25E4
  8
0
  6
DASHED
 62
     3
 10
131.91034588097421
 20
143.2702610432525
 30
0.0
 40
2.0
 50
60.678716000005608
 51
101.42312100000071
  0
LINE
  5
25E5
  8
0
  6
DASHED
 62
     3
 10
259.81881288097418
 20
92.174122043252581
 30
0.0
 11
229.81881288097421
 21
92.174122043252581
 31
0.0
1001
ACAD
1000
ASC_BOUNDS
1002
{
1070
    19
1002
}
  0
LINE
  5
25E6
  8
CENTER
  6
CENTER
 62
     1
 10
207.28027488097419
 20
142.67412204325251
 30
0.0
 11
245.93650788097409
 21
142.67412204325251
 31
0.0
1001
ACAD
1000
ASC_BOUNDS
1002
{
1070
    19
1002
}
  0
LINE
  5
25E7
  8
CENTER
  6
CENTER
 62
     1
 10
188.018812880974
 20
107.1741220432525
 30
0.0
 11
268.018812880974
 21
107.1741220432525
 31
0.0
1001
ACAD
1000
ASC_BOUNDS
1002
{
1070
    19
1002
}
  0
LINE
  5
25E8
  8
0
  6
CONTINUOUS
 62
     7
 10
212.81881288097421
 20
150.17412204325251
 30
0.0
 11
212.81881288097421
 21
107.1741220432525
 31
0.0
  0
LINE
  5
25E9
  8
0
  6
CONTINUOUS
 62
     7
 10
222.81881288097421
 20
150.17412204325251
 30
0.0
 11
222.81881288097421
 21
107.1741220432525
 31
0.0
  0
LINE
  5
25EA
  8
0
  6
CONTINUOUS
 62
     7
 10
229.81881288097421
 20
150.17412204325251
 30
0.0
 11
229.81881288097421
 21
107.1741220432525
 31
0.0
  0
LINE
  5
25EB
  8
0
  6
DASHED
 62
     3
 10
192.81881288097421
 20
97.174122043252282
 30
0.0
 11
222.81881288097421
 21
97.174122043252282
 31
0.0
1001
ACAD
1000
ASC_BOUNDS
1002
{
1070
    19
1002
}
  0
LINE
  5
25EC
  8
0
  6
CONTINUOUS
 62
     7
 10
213.31881288097421
 20
150.67412204325251
 30
0.0
 11
222.31881288097421
 21
150.67412204325251
 31
0.0
  0
ARC
  5
25ED
  8
0
  6
CONTINUOUS
 62
     7
 10
213.31881288097421
 20
150.17412204325251
 30
0.0
 40
0.5
 50
90.0
 51
180.0
  0
ARC
  5
25EE
  8
0
  6
CONTINUOUS
 62
     7
 10
222.31881288097421
 20
150.17412204325251
 30
0.0
 40
0.5
 50
0.0
 51
90.0
  0
ARC
  5
25EF
  8
0
  6
CONTINUOUS
 62
     7
 10
230.31881288097421
 20
150.17412204325251
 30
0.0
 40
0.5
 50
90.0
 51
180.0
  0
LINE
  5
25F0
  8
0
  6
CONTINUOUS
 62
     7
 10
229.81881288097421
 20
64.174122043252595
 30
0.0
 11
229.81881288097421
 21
107.1741220432525
 31
0.0
  0
LINE
  5
25F1
  8
0
  6
CONTINUOUS
 62
     7
 10
222.81881288097421
 20
64.174122043252595
 30
0.0
 11
222.81881288097421
 21
107.1741220432525
 31
0.0
  0
LINE
  5
25F2
  8
0
  6
CONTINUOUS
 62
     7
 10
212.81881288097421
 20
64.174122043252595
 30
0.0
 11
212.81881288097421
 21
107.1741220432525
 31
0.0
  0
LINE
  5
25F3
  8
CENTER
  6
CENTER
 62
     1
 10
207.28027488097419
 20
71.674122043252595
 30
0.0
 11
245.93650788097409
 21
71.674122043252595
 31
0.0
1001
ACAD
1000
ASC_BOUNDS
1002
{
1070
    19
1002
}
  0
LINE
  5
25F4
  8
0
  6
CONTINUOUS
 62
     7
 10
213.31881288097421
 20
63.674122043252581
 30
0.0
 11
222.31881288097421
 21
63.674122043252581
 31
0.0
  0
ARC
  5
25F5
  8
0
  6
CONTINUOUS
 62
     7
 10
213.31881288097421
 20
64.174122043252595
 30
0.0
 40
0.5
 50
180.0
 51
270.0
  0
ARC
  5
25F6
  8
0
  6
CONTINUOUS
 62
     7
 10
222.31881288097421
 20
64.174122043252595
 30
0.0
 40
0.5
 50
270.0
 51
0.0
  0
ARC
  5
25F7
  8
0
  6
CONTINUOUS
 62
     7
 10
230.31881288097421
 20
64.174122043252595
 30
0.0
 40
0.5
 50
180.0
 51
270.0
  0
LINE
  5
25F8
  8
0
  6
DASHED
 62
     3
 10
259.81881288097418
 20
122.17412204325259
 30
0.0
 11
229.81881288097421
 21
122.17412204325259
 31
0.0
1001
ACAD
1000
ASC_BOUNDS
1002
{
1070
    19
1002
}
  0
LINE
  5
25F9
  8
0
  6
CONTINUOUS
 62
     7
 10
225.11881288097399
 20
119.8862560432526
 30
0.0
 11
225.11881288097399
 21
132.0862560432526
 31
0.0
  0
LINE
  5
25FA
  8
0
  6
CONTINUOUS
 62
     7
 10
227.51881288097411
 20
119.4862560432525
 30
0.0
 11
227.51881288097411
 21
132.48625604325261
 31
0.0
  0
LINE
  5
25FB
  8
0
  6
CONTINUOUS
 62
     7
 10
229.81881288097421
 20
118.9862560432526
 30
0.0
 11
229.81881288097421
 21
132.98625604325261
 31
0.0
  0
LINE
  5
25FC
  8
0
  6
CONTINUOUS
 62
     7
 10
224.11881288097419
 20
132.38625604325259
 30
0.0
 11
224.11881288097419
 21
119.5862560432526
 31
0.0
  0
LINE
  5
25FD
  8
0
  6
CONTINUOUS
 62
     7
 10
223.11881288097399
 20
120.9862560432526
 30
0.0
 11
223.11881288097399
 21
130.98625604325261
 31
0.0
  0
LINE
  5
25FE
  8
0
  6
CONTINUOUS
 62
     7
 10
222.81881288097421
 20
120.9862560432526
 30
0.0
 11
222.81881288097421
 21
130.98625604325261
 31
0.0
  0
LINE
  5
25FF
  8
0
  6
CONTINUOUS
 62
     7
 10
223.11881288097399
 20
120.7362560432525
 30
0.0
 11
223.11881288097399
 21
131.2362560432525
 31
0.0
  0
LINE
  5
2600
  8
0
  6
CONTINUOUS
 62
     7
 10
225.11881288097399
 20
145.17412204325251
 30
0.0
 11
225.11881288097399
 21
107.1741220432525
 31
0.0
  0
LINE
  5
2601
  8
0
  6
CONTINUOUS
 62
     7
 10
227.51881288097411
 20
145.17412204325251
 30
0.0
 11
227.51881288097411
 21
107.1741220432525
 31
0.0
  0
ARC
  5
2602
  8
0
  6
CONTINUOUS
 62
     7
 10
227.81881288097421
 20
94.461988043252603
 30
0.0
 40
0.3
 50
90.0
 51
180.0
  0
LINE
  5
2603
  8
0
  6
CONTINUOUS
 62
     7
 10
229.51881288097411
 20
93.611988043252595
 30
0.0
 11
228.518812880974
 21
94.761988043252543
 31
0.0
  0
LINE
  5
2604
  8
0
  6
CONTINUOUS
 62
     7
 10
225.11881288097399
 20
81.86198804325258
 30
0.0
 11
225.11881288097399
 21
94.861988043252595
 31
0.0
  0
LINE
  5
2605
  8
0
  6
CONTINUOUS
 62
     7
 10
222.81881288097421
 20
81.361988043252595
 30
0.0
 11
222.81881288097421
 21
95.361988043252623
 31
0.0
  0
LINE
  5
2606
  8
0
  6
CONTINUOUS
 62
     7
 10
227.51881288097411
 20
69.174122043252595
 30
0.0
 11
227.51881288097411
 21
107.1741220432525
 31
0.0
  0
LINE
  5
2607
  8
0
  6
CONTINUOUS
 62
     7
 10
225.11881288097399
 20
69.174122043252595
 30
0.0
 11
225.11881288097399
 21
107.1741220432525
 31
0.0
  0
LINE
  5
2608
  8
0
  6
CONTINUOUS
 62
     7
 10
222.81881288097421
 20
81.361988043252595
 30
0.0
 11
224.61881288097419
 21
81.361988043252595
 31
0.0
  0
LINE
  5
2609
  8
0
  6
CONTINUOUS
 62
     7
 10
222.81881288097421
 20
70.068414043252588
 30
0.0
 11
224.61881288097419
 21
70.068414043252588
 31
0.0
  0
LINE
  5
260A
  8
0
  6
CONTINUOUS
 62
     7
 10
222.81881288097421
 20
70.068414043252588
 30
0.0
 11
222.81881288097421
 21
84.068414043252588
 31
0.0
  0
LINE
  5
260B
  8
0
  6
CONTINUOUS
 62
     7
 10
229.51881288097411
 20
71.818414043252574
 30
0.0
 11
229.51881288097411
 21
82.318414043252574
 31
0.0
  0
LINE
  5
260C
  8
0
  6
CONTINUOUS
 62
     7
 10
225.11881288097399
 20
70.568414043252574
 30
0.0
 11
225.11881288097399
 21
83.568414043252574
 31
0.0
  0
LINE
  5
260D
  8
0
  6
CONTINUOUS
 62
     7
 10
229.81881288097421
 20
72.068414043252588
 30
0.0
 11
229.81881288097421
 21
82.068414043252574
 31
0.0
  0
LINE
  5
260E
  8
0
  6
CONTINUOUS
 62
     7
 10
227.51881288097411
 20
70.968414043252579
 30
0.0
 11
227.51881288097411
 21
83.168414043252596
 31
0.0
  0
LINE
  5
260F
  8
0
  6
CONTINUOUS
 62
     7
 10
229.51881288097411
 20
72.068414043252588
 30
0.0
 11
229.51881288097411
 21
82.068414043252574
 31
0.0
  0
ARC
  5
2610
  8
0
  6
CONTINUOUS
 62
     7
 10
224.61881288097419
 20
70.568414043252574
 30
0.0
 40
0.5
 50
270.0
 51
0.0
  0
LINE
  5
2611
  8
0
  6
CONTINUOUS
 62
     7
 10
225.11881288097399
 20
69.174122043252595
 30
0.0
 11
227.51881288097411
 21
69.174122043252595
 31
0.0
  0
LINE
  5
2612
  8
0
  6
CONTINUOUS
 62
     7
 10
229.51881288097411
 20
71.818414043252574
 30
0.0
 11
228.518812880974
 21
70.668414043252554
 31
0.0
  0
LINE
  5
2613
  8
0
  6
CONTINUOUS
 62
     7
 10
227.81881288097421
 20
70.668414043252554
 30
0.0
 11
228.518812880974
 21
70.668414043252554
 31
0.0
1001
ACAD
1000
ASC_BOUNDS
1002
{
1070
    19
1002
}
  0
ARC
  5
2614
  8
0
  6
CONTINUOUS
 62
     7
 10
227.81881288097421
 20
70.968414043252579
 30
0.0
 40
0.3
 50
180.0
 51
270.0
  0
LINE
  5
2615
  8
0
  6
CONTINUOUS
 62
     7
 10
229.81881288097421
 20
72.068414043252588
 30
0.0
 11
229.51881288097411
 21
72.068414043252588
 31
0.0
  0
LINE
  5
2616
  8
0
  6
CONTINUOUS
 62
     7
 10
229.51881288097411
 20
83.36198804325258
 30
0.0
 11
229.51881288097411
 21
93.361988043252595
 31
0.0
  0
LINE
  5
2617
  8
0
  6
CONTINUOUS
 62
     7
 10
227.51881288097411
 20
82.261988043252586
 30
0.0
 11
227.51881288097411
 21
94.461988043252603
 31
0.0
  0
LINE
  5
2618
  8
0
  6
CONTINUOUS
 62
     7
 10
229.81881288097421
 20
83.36198804325258
 30
0.0
 11
229.81881288097421
 21
93.361988043252595
 31
0.0
  0
LINE
  5
2619
  8
0
  6
CONTINUOUS
 62
     7
 10
229.51881288097411
 20
83.11198804325258
 30
0.0
 11
229.51881288097411
 21
93.611988043252595
 31
0.0
  0
LINE
  5
261A
  8
0
  6
CONTINUOUS
 62
     7
 10
229.51881288097411
 20
82.318414043252574
 30
0.0
 11
229.17378088097411
 21
82.715201043252605
 31
0.0
  0
LINE
  5
261B
  8
0
  6
CONTINUOUS
 62
     7
 10
229.51881288097411
 20
83.11198804325258
 30
0.0
 11
228.518812880974
 21
81.961988043252589
 31
0.0
  0
ARC
  5
261C
  8
0
  6
CONTINUOUS
 62
     7
 10
224.61881288097419
 20
81.86198804325258
 30
0.0
 40
0.5
 50
270.0
 51
0.0
  0
ARC
  5
261D
  8
0
  6
CONTINUOUS
 62
     7
 10
227.81881288097421
 20
82.261988043252586
 30
0.0
 40
0.3
 50
180.0
 51
270.0
  0
LINE
  5
261E
  8
0
  6
CONTINUOUS
 62
     7
 10
227.81881288097421
 20
81.961988043252589
 30
0.0
 11
228.518812880974
 21
81.961988043252589
 31
0.0
1001
ACAD
1000
ASC_BOUNDS
1002
{
1070
    19
1002
}
  0
LINE
  5
261F
  8
0
  6
CONTINUOUS
 62
     7
 10
227.51881288097411
 20
86.208436043252576
 30
0.0
 11
225.11881288097399
 21
86.208436043252576
 31
0.0
  0
LINE
  5
2620
  8
0
  6
CONTINUOUS
 62
     7
 10
229.51881288097411
 20
82.068414043252574
 30
0.0
 11
229.81881288097421
 21
82.068414043252574
 31
0.0
  0
LINE
  5
2621
  8
0
  6
CONTINUOUS
 62
     7
 10
229.81881288097421
 20
83.36198804325258
 30
0.0
 11
229.51881288097411
 21
83.36198804325258
 31
0.0
  0
LINE
  5
2622
  8
0
  6
CONTINUOUS
 62
     7
 10
229.51881288097411
 20
93.361988043252595
 30
0.0
 11
229.81881288097421
 21
93.361988043252595
 31
0.0
  0
LINE
  5
2623
  8
0
  6
CONTINUOUS
 62
     7
 10
222.81881288097421
 20
95.361988043252623
 30
0.0
 11
224.61881288097419
 21
95.361988043252623
 31
0.0
  0
LINE
  5
2624
  8
0
  6
CONTINUOUS
 62
     7
 10
223.11881288097399
 20
120.7362560432525
 30
0.0
 11
224.11881288097419
 21
119.5862560432526
 31
0.0
  0
LINE
  5
2625
  8
0
  6
CONTINUOUS
 62
     7
 10
222.81881288097421
 20
120.9862560432526
 30
0.0
 11
223.11881288097399
 21
120.9862560432526
 31
0.0
  0
ARC
  5
2626
  8
0
  6
CONTINUOUS
 62
     7
 10
224.61881288097419
 20
94.861988043252595
 30
0.0
 40
0.5
 50
0.0
 51
90.0
  0
LINE
  5
2627
  8
0
  6
CONTINUOUS
 62
     7
 10
227.81881288097421
 20
94.761988043252543
 30
0.0
 11
228.518812880974
 21
94.761988043252543
 31
0.0
1001
ACAD
1000
ASC_BOUNDS
1002
{
1070
    19
1002
}
  0
ARC
  5
2628
  8
0
  6
CONTINUOUS
 62
     7
 10
228.018812880974
 20
119.4862560432525
 30
0.0
 40
0.5
 50
180.0
 51
270.0
  0
LINE
  5
2629
  8
0
  6
CONTINUOUS
 62
     7
 10
229.81881288097421
 20
118.9862560432526
 30
0.0
 11
228.018812880974
 21
118.9862560432526
 31
0.0
  0
LINE
  5
262A
  8
0
  6
CONTINUOUS
 62
     7
 10
224.81881288097421
 20
119.5862560432526
 30
0.0
 11
224.11881288097419
 21
119.5862560432526
 31
0.0
1001
ACAD
1000
ASC_BOUNDS
1002
{
1070
    19
1002
}
  0
ARC
  5
262B
  8
0
  6
CONTINUOUS
 62
     7
 10
224.81881288097421
 20
119.8862560432526
 30
0.0
 40
0.3
 50
270.0
 51
0.0
  0
LINE
  5
262C
  8
0
  6
CONTINUOUS
 62
     7
 10
223.11881288097399
 20
131.2362560432525
 30
0.0
 11
224.11881288097419
 21
132.38625604325259
 31
0.0
  0
LINE
  5
262D
  8
0
  6
CONTINUOUS
 62
     7
 10
223.11881288097399
 20
142.52982904325259
 30
0.0
 11
224.11881288097419
 21
143.6798290432526
 31
0.0
  0
LINE
  5
262E
  8
0
  6
CONTINUOUS
 62
     7
 10
223.11881288097399
 20
132.02982904325259
 30
0.0
 11
223.11881288097399
 21
142.52982904325259
 31
0.0
  0
LINE
  5
262F
  8
0
  6
CONTINUOUS
 62
     7
 10
222.81881288097421
 20
132.27982904325259
 30
0.0
 11
222.81881288097421
 21
142.27982904325251
 31
0.0
  0
LINE
  5
2630
  8
0
  6
CONTINUOUS
 62
     7
 10
223.11881288097399
 20
132.27982904325259
 30
0.0
 11
223.11881288097399
 21
142.27982904325251
 31
0.0
  0
LINE
  5
2631
  8
0
  6
CONTINUOUS
 62
     7
 10
223.11881288097399
 20
130.98625604325261
 30
0.0
 11
222.81881288097421
 21
130.98625604325261
 31
0.0
  0
LINE
  5
2632
  8
0
  6
CONTINUOUS
 62
     7
 10
223.11881288097399
 20
132.02982904325259
 30
0.0
 11
223.46384488097411
 21
131.6330420432526
 31
0.0
  0
LINE
  5
2633
  8
0
  6
CONTINUOUS
 62
     7
 10
222.81881288097421
 20
132.27982904325259
 30
0.0
 11
223.11881288097399
 21
132.27982904325259
 31
0.0
  0
LINE
  5
2634
  8
0
  6
CONTINUOUS
 62
     7
 10
223.11881288097399
 20
142.27982904325251
 30
0.0
 11
222.81881288097421
 21
142.27982904325251
 31
0.0
  0
LINE
  5
2635
  8
0
  6
CONTINUOUS
 62
     7
 10
224.11881288097419
 20
143.6798290432526
 30
0.0
 11
224.11881288097419
 21
130.87982904325261
 31
0.0
  0
LINE
  5
2636
  8
0
  6
CONTINUOUS
 62
     7
 10
229.81881288097421
 20
130.27982904325259
 30
0.0
 11
229.81881288097421
 21
144.27982904325251
 31
0.0
  0
LINE
  5
2637
  8
0
  6
CONTINUOUS
 62
     7
 10
227.51881288097411
 20
130.77982904325251
 30
0.0
 11
227.51881288097411
 21
143.77982904325259
 31
0.0
  0
LINE
  5
2638
  8
0
  6
CONTINUOUS
 62
     7
 10
225.11881288097399
 20
131.1798290432526
 30
0.0
 11
225.11881288097399
 21
143.37982904325261
 31
0.0
  0
LINE
  5
2639
  8
0
  6
CONTINUOUS
 62
     7
 10
229.81881288097421
 20
132.98625604325261
 30
0.0
 11
228.018812880974
 21
132.98625604325261
 31
0.0
  0
LINE
  5
263A
  8
0
  6
CONTINUOUS
 62
     7
 10
225.11881288097399
 20
128.13980804325249
 30
0.0
 11
227.51881288097411
 21
128.13980804325249
 31
0.0
  0
LINE
  5
263B
  8
0
  6
CONTINUOUS
 62
     7
 10
224.81881288097421
 20
132.38625604325259
 30
0.0
 11
224.11881288097419
 21
132.38625604325259
 31
0.0
1001
ACAD
1000
ASC_BOUNDS
1002
{
1070
    19
1002
}
  0
ARC
  5
263C
  8
0
  6
CONTINUOUS
 62
     7
 10
224.81881288097421
 20
132.0862560432526
 30
0.0
 40
0.3
 50
0.0
 51
90.0
  0
ARC
  5
263D
  8
0
  6
CONTINUOUS
 62
     7
 10
228.018812880974
 20
132.48625604325261
 30
0.0
 40
0.5
 50
90.0
 51
180.0
  0
LINE
  5
263E
  8
0
  6
CONTINUOUS
 62
     7
 10
229.81881288097421
 20
144.27982904325251
 30
0.0
 11
228.018812880974
 21
144.27982904325251
 31
0.0
  0
LINE
  5
263F
  8
0
  6
CONTINUOUS
 62
     7
 10
225.11881288097399
 20
145.17412204325251
 30
0.0
 11
227.51881288097411
 21
145.17412204325251
 31
0.0
  0
ARC
  5
2640
  8
0
  6
CONTINUOUS
 62
     7
 10
224.81881288097421
 20
143.37982904325261
 30
0.0
 40
0.3
 50
0.0
 51
90.0
  0
LINE
  5
2641
  8
0
  6
CONTINUOUS
 62
     7
 10
224.81881288097421
 20
143.6798290432526
 30
0.0
 11
224.11881288097419
 21
143.6798290432526
 31
0.0
1001
ACAD
1000
ASC_BOUNDS
1002
{
1070
    19
1002
}
  0
ARC
  5
2642
  8
0
  6
CONTINUOUS
 62
     7
 10
228.018812880974
 20
143.77982904325259
 30
0.0
 40
0.5
 50
90.0
 51
180.0
  0
LINE
  5
2645
  8
CENTER
  6
CENTER
 62
     1
 10
390.36834832369732
 20
107.1741220432525
 30
0.0
 11
290.95562647838432
 21
107.1741220432525
 31
0.0
  0
LINE
  5
2646
  8
0
  6
CONTINUOUS
 62
     7
 10
323.39911052076093
 20
79.547742629700096
 30
0.0
 11
324.73604652076148
 21
77.011513629700104
 31
0.0
  0
LINE
  5
2647
  8
0
  6
CONTINUOUS
 62
     7
 10
324.73604652076148
 20
77.011513629700104
 30
0.0
 11
323.24366552076111
 21
74.540443629700093
 31
0.0
  0
CIRCLE
  5
2648
  8
0
  6
CONTINUOUS
 62
     7
 10
321.84985352076131
 20
77.068414629700129
 30
0.0
 40
6.549999999999998
  0
CIRCLE
  5
2649
  8
0
  6
CONTINUOUS
 62
     7
 10
321.84985352076131
 20
77.068414629700129
 30
0.0
 40
5.0
  0
CIRCLE
  5
264A
  8
0
  6
CONTINUOUS
 62
     7
 10
321.84985352076131
 20
77.068414629700129
 30
0.0
 40
4.424999999999998
  0
CIRCLE
  5
264B
  8
0
  6
CONTINUOUS
 62
     7
 10
340.66198740103999
 20
107.17412204325301
 30
0.0
 40
43.5
  0
CIRCLE
  5
264C
  8
0
  6
CONTINUOUS
 62
     7
 10
310.55627998748707
 20
88.361988162973972
 30
0.0
 40
6.549999999999998
  0
CIRCLE
  5
264D
  8
0
  6
CONTINUOUS
 62
     7
 10
310.55627998748707
 20
88.361988162973972
 30
0.0
 40
5.0
  0
CIRCLE
  5
264E
  8
0
  6
CONTINUOUS
 62
     7
 10
310.55627998748707
 20
88.361988162973972
 30
0.0
 40
4.424999999999998
  0
LINE
  5
264F
  8
0
  6
CONTINUOUS
 62
     7
 10
308.07857598748751
 20
86.760900162973996
 30
0.0
 11
307.98713098748738
 21
89.678354162973989
 31
0.0
  0
LINE
  5
2650
  8
0
  6
CONTINUOUS
 62
     7
 10
313.03560798748748
 20
89.911245162973955
 30
0.0
 11
313.12542898748751
 21
87.04562216297397
 31
0.0
  0
LINE
  5
2651
  8
0
  6
CONTINUOUS
 62
     7
 10
313.03560798748748
 20
89.911245162973955
 30
0.0
 11
313.12542898748751
 21
87.04562216297397
 31
0.0
  0
LINE
  5
2652
  8
0
  6
CONTINUOUS
 62
     7
 10
308.07857598748751
 20
86.760900162973996
 30
0.0
 11
307.98713098748738
 21
89.678354162973989
 31
0.0
  0
CIRCLE
  5
2653
  8
0
  6
CONTINUOUS
 62
     7
 10
310.55627998748707
 20
88.361988162973972
 30
0.0
 40
4.424999999999998
  0
CIRCLE
  5
2654
  8
0
  6
CONTINUOUS
 62
     7
 10
310.55627998748707
 20
88.361988162973972
 30
0.0
 40
5.0
  0
CIRCLE
  5
2655
  8
0
  6
CONTINUOUS
 62
     7
 10
310.55627998748707
 20
88.361988162973972
 30
0.0
 40
6.549999999999998
  0
LINE
  5
2656
  8
0
  6
CONTINUOUS
 62
     7
 10
310.4117189874874
 20
91.245120162973961
 30
0.0
 11
307.98713098748738
 21
89.678354162973989
 31
0.0
  0
LINE
  5
2657
  8
0
  6
CONTINUOUS
 62
     7
 10
310.4117189874874
 20
91.245120162973961
 30
0.0
 11
307.98713098748738
 21
89.678354162973989
 31
0.0
  0
LINE
  5
2658
  8
0
  6
CONTINUOUS
 62
     7
 10
310.4117189874874
 20
91.245120162973961
 30
0.0
 11
313.08143198748752
 21
89.939879162974009
 31
0.0
  0
LINE
  5
2659
  8
0
  6
CONTINUOUS
 62
     7
 10
310.4117189874874
 20
91.245120162973961
 30
0.0
 11
313.08143198748752
 21
89.939879162974009
 31
0.0
  0
LINE
  5
265A
  8
0
  6
CONTINUOUS
 62
     7
 10
310.70083998748748
 20
85.478857162973995
 30
0.0
 11
308.07857598748751
 21
86.760900162973996
 31
0.0
  0
LINE
  5
265B
  8
0
  6
CONTINUOUS
 62
     7
 10
310.70083998748748
 20
85.478857162973995
 30
0.0
 11
308.07857598748751
 21
86.760900162973996
 31
0.0
  0
LINE
  5
265C
  8
0
  6
CONTINUOUS
 62
     7
 10
313.12542898748751
 20
87.04562216297397
 30
0.0
 11
310.70083998748748
 21
85.478857162973995
 31
0.0
  0
LINE
  5
265D
  8
0
  6
CONTINUOUS
 62
     7
 10
313.12542898748751
 20
87.04562216297397
 30
0.0
 11
310.70083998748748
 21
85.478857162973995
 31
0.0
  0
LINE
  5
265E
  8
0
  6
CONTINUOUS
 62
     7
 10
320.32477952076118
 20
74.54321162970011
 30
0.0
 11
318.96366152076121
 21
77.125315629700125
 31
0.0
  0
LINE
  5
265F
  8
0
  6
CONTINUOUS
 62
     7
 10
320.45604252076117
 20
79.596384629700125
 30
0.0
 11
323.42774452076122
 21
79.593566629700092
 31
0.0
  0
LINE
  5
2660
  8
0
  6
CONTINUOUS
 62
     7
 10
320.45604252076117
 20
79.596384629700125
 30
0.0
 11
318.96366152076121
 21
77.125315629700125
 31
0.0
  0
LINE
  5
2661
  8
0
  6
CONTINUOUS
 62
     7
 10
323.24366552076111
 20
74.540443629700093
 30
0.0
 11
320.32477952076118
 21
74.54321162970011
 31
0.0
  0
LINE
  5
2662
  8
CENTER
  6
CENTER
 62
     1
 10
340.6619874010409
 20
57.467761120596059
 30
0.0
 11
340.6619874010409
 21
156.88048296590901
 31
0.0
  0
LINE
  5
2663
  8
0
  6
DASHED
 62
     3
 10
259.81881288097418
 20
92.174122043252581
 30
0.0
 11
229.81881288097421
 21
92.174122043252581
 31
0.0
1001
ACAD
1000
ASC_BOUNDS
1002
{
1070
    19
1002
}
  0
LINE
  5
2664
  8
0
  6
DASHED
 62
     3
 10
259.81881288097418
 20
122.17412204325259
 30
0.0
 11
229.81881288097421
 21
122.17412204325259
 31
0.0
1001
ACAD
1000
ASC_BOUNDS
1002
{
1070
    19
1002
}
  0
CIRCLE
  5
2665
  8
0
  6
CONTINUOUS
 62
     7
 10
370.76769481459303
 20
125.986255923532
 30
0.0
 40
6.549999999999998
  0
CIRCLE
  5
2666
  8
0
  6
CONTINUOUS
 62
     7
 10
359.47412128131941
 20
137.279829456806
 30
0.0
 40
6.549999999999998
  0
CIRCLE
  5
2667
  8
0
  6
CONTINUOUS
 62
     7
 10
359.47412128131941
 20
137.279829456806
 30
0.0
 40
5.0
  0
LINE
  5
2668
  8
0
  6
CONTINUOUS
 62
     7
 10
360.99919528131932
 20
139.805032456806
 30
0.0
 11
362.36031328131929
 21
137.22292845680599
 31
0.0
  0
LINE
  5
2669
  8
0
  6
CONTINUOUS
 62
     7
 10
356.58792828131931
 20
137.33673045680601
 30
0.0
 11
358.08030928131927
 21
139.8078004568055
 31
0.0
  0
CIRCLE
  5
266A
  8
0
  6
CONTINUOUS
 62
     7
 10
359.47412128131941
 20
137.279829456806
 30
0.0
 40
4.424999999999998
  0
LINE
  5
266B
  8
0
  6
CONTINUOUS
 62
     7
 10
358.08030928131927
 20
139.8078004568055
 30
0.0
 11
360.99919528131932
 21
139.805032456806
 31
0.0
  0
LINE
  5
266C
  8
0
  6
CONTINUOUS
 62
     7
 10
360.86793228131933
 20
134.75185945680599
 30
0.0
 11
357.89623028131922
 21
134.75467745680601
 31
0.0
  0
LINE
  5
266D
  8
0
  6
CONTINUOUS
 62
     7
 10
357.92486428131917
 20
134.8005014568059
 30
0.0
 11
356.58792828131931
 21
137.33673045680601
 31
0.0
  0
LINE
  5
266E
  8
0
  6
CONTINUOUS
 62
     7
 10
360.86793228131933
 20
134.75185945680599
 30
0.0
 11
362.36031328131929
 21
137.22292845680599
 31
0.0
  0
LINE
  5
266F
  8
0
  6
CONTINUOUS
 62
     7
 10
368.1985458145931
 20
127.302621923532
 30
0.0
 11
370.62313481459307
 21
128.86938692353181
 31
0.0
  0
LINE
  5
2670
  8
0
  6
CONTINUOUS
 62
     7
 10
370.62313481459307
 20
128.86938692353181
 30
0.0
 11
373.24539881459299
 21
127.587343923532
 31
0.0
  0
CIRCLE
  5
2671
  8
0
  6
CONTINUOUS
 62
     7
 10
370.76769481459303
 20
125.986255923532
 30
0.0
 40
4.424999999999998
  0
CIRCLE
  5
2672
  8
0
  6
CONTINUOUS
 62
     7
 10
370.76769481459303
 20
125.986255923532
 30
0.0
 40
5.0
  0
LINE
  5
2673
  8
0
  6
CONTINUOUS
 62
     7
 10
370.91225581459292
 20
123.10312392353219
 30
0.0
 11
368.24254281459298
 21
124.4083649235321
 31
0.0
  0
LINE
  5
2674
  8
0
  6
CONTINUOUS
 62
     7
 10
368.28836681459302
 20
124.436998923532
 30
0.0
 11
368.1985458145931
 21
127.302621923532
 31
0.0
  0
LINE
  5
2675
  8
0
  6
CONTINUOUS
 62
     7
 10
370.91225581459292
 20
123.10312392353219
 30
0.0
 11
373.33684381459301
 21
124.6698899235321
 31
0.0
  0
LINE
  5
2676
  8
0
  6
CONTINUOUS
 62
     7
 10
373.24539881459299
 20
127.587343923532
 30
0.0
 11
373.33684381459301
 21
124.6698899235321
 31
0.0
  0
ARC
  5
2677
  8
0
  6
CONTINUOUS
 62
     7
 10
111.63650188097419
 20
107.1741220432523
 30
0.0
 40
10.0
 50
107.45760312371939
 51
72.54239687628062
  0
CIRCLE
  5
2678
  8
0
  6
CONTINUOUS
 62
     7
 10
111.63650188097419
 20
107.1741220432525
 30
0.0
 40
28.0
  0
LINE
  5
2679
  8
0
  6
DASHED
 62
     3
 10
83.748332346205345
 20
105.1741220432523
 30
0.0
 11
101.83854290984129
 21
105.1741220432522
 31
0.0
  0
LINE
  5
267A
  8
0
  6
DASHED
 62
     3
 10
83.797680066824014
 20
104.6741220432523
 30
0.0
 11
101.9540435154555
 21
104.6741220432523
 31
0.0
  0
LINE
  5
267B
  8
0
  6
DASHED
 62
     3
 10
83.797680066824014
 20
109.6741220432523
 30
0.0
 11
101.9540435154555
 21
109.6741220432523
 31
0.0
  0
LINE
  5
267C
  8
0
  6
DASHED
 62
     3
 10
83.748332346205345
 20
109.1741220432523
 30
0.0
 11
101.83854290984129
 21
109.1741220432522
 31
0.0
  0
LINE
  5
267D
  8
0
  6
DASHED
 62
     3
 10
113.63650188097419
 20
135.06229157802119
 30
0.0
 11
113.63650188097419
 21
119.97412204325229
 31
0.0
  0
LINE
  5
267E
  8
0
  6
DASHED
 62
     3
 10
114.13650188097419
 20
135.0129438574026
 30
0.0
 11
114.13650188097419
 21
119.97412204325229
 31
0.0
  0
LINE
  5
267F
  8
0
  6
DASHED
 62
     3
 10
109.13650188097419
 20
135.0129438574026
 30
0.0
 11
109.13650188097419
 21
119.97412204325229
 31
0.0
  0
LINE
  5
2680
  8
0
  6
DASHED
 62
     3
 10
109.63650188097419
 20
135.06229157802119
 30
0.0
 11
109.63650188097419
 21
119.97412204325229
 31
0.0
  0
LINE
  5
2681
  8
0
  6
CONTINUOUS
 62
     7
 10
108.63650188097419
 20
119.97412204325229
 30
0.0
 11
114.63650188097419
 21
119.97412204325229
 31
0.0
  0
LINE
  5
2682
  8
0
  6
CONTINUOUS
 62
     7
 10
108.63650188097419
 20
119.97412204325229
 30
0.0
 11
108.636501880974
 21
116.7135140574217
 31
0.0
  0
LINE
  5
2683
  8
0
  6
CONTINUOUS
 62
     7
 10
114.63650188097419
 20
119.97412204325229
 30
0.0
 11
114.63650188097419
 21
116.7135140574217
 31
0.0
  0
LINE
  5
2684
  8
0
  6
CONTINUOUS
 62
     7
 10
192.81881288097421
 20
79.674122043252495
 30
0.0
 11
192.81881288097421
 21
107.1741220432525
 31
0.0
  0
ARC
  5
2685
  8
0
  6
CONTINUOUS
 62
     7
 10
211.8188128809731
 20
78.174122043252567
 30
0.0
 40
1.0
 50
359.99999999999841
 51
90.0
  0
LINE
  5
2686
  8
0
  6
CONTINUOUS
 62
     7
 10
211.81881288097421
 20
79.174122043252495
 30
0.0
 11
193.31881288097421
 21
79.174122043252495
 31
0.0
  0
ARC
  5
2687
  8
0
  6
CONTINUOUS
 62
     7
 10
193.31881288097421
 20
79.674122043252495
 30
0.0
 40
0.5
 50
180.0
 51
270.0
  0
LINE
  5
2688
  8
0
  6
CONTINUOUS
 62
     7
 10
211.81881288097401
 20
135.17412204325251
 30
0.0
 11
193.31881288097401
 21
135.17412204325251
 31
0.0
  0
LINE
  5
2689
  8
0
  6
CONTINUOUS
 62
     7
 10
192.81881288097401
 20
134.67412204325211
 30
0.0
 11
192.81881288097421
 21
107.1741220432525
 31
0.0
  0
ARC
  5
268A
  8
0
  6
CONTINUOUS
 62
     7
 10
193.31881288097401
 20
134.67412204325211
 30
0.0
 40
0.5
 50
90.0
 51
180.0
  0
ARC
  5
268B
  8
0
  6
CONTINUOUS
 62
     7
 10
211.8188128809731
 20
136.17412204325251
 30
0.0
 40
1.0
 50
270.0
 51
0.0000000000016284
  0
CIRCLE
  5
268C
  8
0
  6
CONTINUOUS
 62
     7
 10
130.44863588097419
 20
137.27982904325259
 30
0.0
 40
6.549999999999998
  0
CIRCLE
  5
268D
  8
0
  6
CONTINUOUS
 62
     7
 10
141.74220888097409
 20
125.9862560432521
 30
0.0
 40
6.549999999999998
  0
CIRCLE
  5
268E
  8
0
  6
CONTINUOUS
 62
     7
 10
130.44863588097419
 20
137.27982904325259
 30
0.0
 40
5.0
  0
CIRCLE
  5
268F
  8
0
  6
CONTINUOUS
 62
     7
 10
141.74220888097409
 20
125.9862560432521
 30
0.0
 40
5.0
  0
CIRCLE
  5
2690
  8
0
  6
CONTINUOUS
 62
     7
 10
92.824367880974194
 20
77.068414043252588
 30
0.0
 40
5.0
  0
CIRCLE
  5
2691
  8
0
  6
CONTINUOUS
 62
     7
 10
92.824367880974194
 20
77.068414043252588
 30
0.0
 40
6.549999999999998
  0
CIRCLE
  5
2692
  8
0
  6
CONTINUOUS
 62
     7
 10
81.530793880974144
 20
88.361988043252595
 30
0.0
 40
6.549999999999998
  0
CIRCLE
  5
2693
  8
0
  6
CONTINUOUS
 62
     7
 10
81.530793880974144
 20
88.361988043252595
 30
0.0
 40
5.0
  0
LINE
  5
2694
  8
0
  6
DASHED
 62
     3
 10
192.81881288097421
 20
117.17412204325269
 30
0.0
 11
222.81881288097421
 21
117.1741220432518
 31
0.0
1001
ACAD
1000
ASC_BOUNDS
1002
{
1070
    19
1002
}
  0
CIRCLE
  5
2695
  8
CENTER
  6
CENTER
 62
     1
 10
340.6619874010409
 20
107.1741220432525
 30
0.0
 40
35.5
  0
CIRCLE
  5
2696
  8
0
  6
CONTINUOUS
 62
     7
 10
340.6619874010409
 20
107.1741220432525
 30
0.0
 40
28.0
  0
CIRCLE
  5
2697
  8
0
  6
CONTINUOUS
 62
     7
 10
359.47412128131941
 20
77.068414629699262
 30
0.0
 40
2.5
  0
CIRCLE
  5
2698
  8
0
  6
CONTINUOUS
 62
     7
 10
359.47412128131941
 20
77.068414629699262
 30
0.0
 40
3.0
  0
CIRCLE
  5
2699
  8
0
  6
CONTINUOUS
 62
     7
 10
370.76769481459388
 20
88.361988162973745
 30
0.0
 40
3.0
  0
CIRCLE
  5
269A
  8
0
  6
CONTINUOUS
 62
     7
 10
370.76769481459388
 20
88.361988162973745
 30
0.0
 40
2.5
  0
CIRCLE
  5
269B
  8
0
  6
CONTINUOUS
 62
     7
 10
321.84985352076149
 20
137.27982945680569
 30
0.0
 40
3.0
  0
CIRCLE
  5
269C
  8
0
  6
CONTINUOUS
 62
     7
 10
321.84985352076149
 20
137.27982945680569
 30
0.0
 40
2.5
  0
CIRCLE
  5
269D
  8
0
  6
CONTINUOUS
 62
     7
 10
310.55627998748707
 20
125.9862559235313
 30
0.0
 40
2.5
  0
CIRCLE
  5
269E
  8
0
  6
CONTINUOUS
 62
     7
 10
310.55627998748707
 20
125.9862559235313
 30
0.0
 40
3.0
  0
LINE
  5
269F
  8
0
  6
CONTINUOUS
 62
     7
 10
259.8188128809731
 20
79.674122043251728
 30
0.0
 11
259.81881288097418
 21
107.1741220432517
 31
0.0
  0
LINE
  5
26A0
  8
0
  6
CONTINUOUS
 62
     7
 10
239.8188128809727
 20
64.174122043252197
 30
0.0
 11
239.81881288097421
 21
107.1741220432524
 31
0.0
  0
LINE
  5
26A1
  8
0
  6
CONTINUOUS
 62
     7
 10
239.3188128809725
 20
63.674122043252233
 30
0.0
 11
230.31881288097259
 21
63.674122043252552
 31
0.0
  0
ARC
  5
26A2
  8
0
  6
CONTINUOUS
 62
     7
 10
239.3188128809725
 20
64.174122043252225
 30
0.0
 40
0.5
 50
270.0
 51
359.99999999999761
  0
ARC
  5
26A3
  8
0
  6
CONTINUOUS
 62
     7
 10
240.81881288097421
 20
78.17412204325241
 30
0.0
 40
1.0
 50
90.0
 51
179.9999999999992
  0
LINE
  5
26A4
  8
0
  6
CONTINUOUS
 62
     7
 10
240.8188128809731
 20
79.174122043252339
 30
0.0
 11
259.3188128809731
 21
79.174122043251785
 31
0.0
  0
ARC
  5
26A5
  8
0
  6
CONTINUOUS
 62
     7
 10
259.3188128809731
 20
79.674122043251785
 30
0.0
 40
0.5
 50
270.0
 51
359.99999999999761
  0
ARC
  5
26A6
  8
0
  6
CONTINUOUS
 62
     7
 10
249.81881288097421
 20
107.174122043252
 30
0.0
 40
2.5
 50
359.99999999999761
 51
179.99999999999741
  0
ARC
  5
26A7
  8
0
  6
CONTINUOUS
 62
     7
 10
249.81881288097421
 20
107.174122043252
 30
0.0
 40
3.0
 50
359.99999999999761
 51
179.99999999999741
  0
LINE
  5
26A8
  8
0
  6
CONTINUOUS
 62
     7
 10
249.81881288097421
 20
112.4021159580674
 30
0.0
 11
249.81881288097421
 21
107.174122043252
 31
0.0
  0
LINE
  5
26A9
  8
0
  6
CONTINUOUS
 62
     7
 10
239.8188128809754
 20
150.17412204325251
 30
0.0
 11
239.81881288097421
 21
107.1741220432524
 31
0.0
  0
LINE
  5
26AA
  8
0
  6
CONTINUOUS
 62
     7
 10
259.81881288097492
 20
134.6741220432516
 30
0.0
 11
259.81881288097418
 21
107.1741220432517
 31
0.0
  0
ARC
  5
26AB
  8
0
  6
CONTINUOUS
 62
     7
 10
239.3188128809754
 20
150.17412204325271
 30
0.0
 40
0.5
 50
359.99999999999761
 51
90.0
  0
LINE
  5
26AC
  8
0
  6
CONTINUOUS
 62
     7
 10
239.3188128809756
 20
150.67412204325251
 30
0.0
 11
230.3188128809754
 21
150.67412204325291
 31
0.0
  0
LINE
  5
26AD
  8
0
  6
CONTINUOUS
 62
     7
 10
240.81881288097509
 20
135.1741220432522
 30
0.0
 11
259.31881288097509
 21
135.17412204325171
 31
0.0
  0
ARC
  5
26AE
  8
0
  6
CONTINUOUS
 62
     7
 10
259.31881288097492
 20
134.6741220432516
 30
0.0
 40
0.5
 50
359.99999999999761
 51
90.0
  0
ARC
  5
26AF
  8
0
  6
CONTINUOUS
 62
     7
 10
240.81881288097611
 20
136.17412204325211
 30
0.0
 40
1.0
 50
179.99999999999591
 51
270.0
  0
LINE
  5
26B0
  8
0
  6
CONTINUOUS
 62
     7
 10
249.81881288097421
 20
101.9461281284371
 30
0.0
 11
249.81881288097421
 21
107.1741220432524
 31
0.0
  0
ARC
  5
26B1
  8
0
  6
CONTINUOUS
 62
     7
 10
249.81881288097421
 20
107.1741220432524
 30
0.0
 40
3.0
 50
180.0
 51
0.0
  0
ARC
  5
26B2
  8
0
  6
CONTINUOUS
 62
     7
 10
249.81881288097421
 20
107.1741220432524
 30
0.0
 40
2.5
 50
180.0
 51
0.0
  0
ARC
  5
26B3
  8
0
  6
CONTINUOUS
 62
     7
 10
340.66198740103999
 20
107.17412204325301
 30
0.0
 40
15.0
 50
105.4660099534196
 51
74.533990046580371
  0
LINE
  5
26B4
  8
0
  6
DASHED
 62
     3
 10
312.77381786627137
 20
104.67412204325331
 30
0.0
 11
325.87178794329083
 21
104.67412204325331
 31
0.0
  0
LINE
  5
26B5
  8
0
  6
DASHED
 62
     3
 10
312.82316558689013
 20
104.17412204325331
 30
0.0
 11
325.96504894434082
 21
104.17412204325331
 31
0.0
  0
LINE
  5
26B6
  8
0
  6
DASHED
 62
     3
 10
312.82316558689013
 20
110.17412204325331
 30
0.0
 11
325.96504894434088
 21
110.17412204325331
 31
0.0
  0
LINE
  5
26B7
  8
0
  6
DASHED
 62
     3
 10
312.77381786627137
 20
109.67412204325331
 30
0.0
 11
325.87178794329111
 21
109.67412204325331
 31
0.0
  0
LINE
  5
26B8
  8
0
  6
DASHED
 62
     3
 10
343.16198740103999
 20
135.06229157802221
 30
0.0
 11
343.16198740103999
 21
125.4741220432533
 31
0.0
  0
LINE
  5
26B9
  8
0
  6
DASHED
 62
     3
 10
343.66198740103988
 20
135.01294385740351
 30
0.0
 11
343.66198740103988
 21
125.4741220432533
 31
0.0
  0
LINE
  5
26BA
  8
0
  6
DASHED
 62
     3
 10
337.66198740103999
 20
135.01294385740351
 30
0.0
 11
337.66198740103999
 21
125.4741220432533
 31
0.0
  0
LINE
  5
26BB
  8
0
  6
DASHED
 62
     3
 10
338.16198740103999
 20
135.06229157802221
 30
0.0
 11
338.16198740103999
 21
125.4741220432533
 31
0.0
  0
LINE
  5
26BC
  8
0
  6
CONTINUOUS
 62
     7
 10
336.66198740103999
 20
125.474122043253
 30
0.0
 11
344.66198740103988
 21
125.474122043253
 31
0.0
  0
LINE
  5
26BD
  8
0
  6
CONTINUOUS
 62
     7
 10
336.66198740103999
 20
125.474122043253
 30
0.0
 11
336.66198740103999
 21
121.630954338054
 31
0.0
  0
LINE
  5
26BE
  8
0
  6
CONTINUOUS
 62
     7
 10
344.66198740103988
 20
125.474122043253
 30
0.0
 11
344.66198740103988
 21
121.630954338054
 31
0.0
  0
ARC
  5
26BF
  8
0
  6
DASHED
 62
     3
 10
204.58633240104001
 20
107.246570043253
 30
0.0
 40
100.0
 50
348.51586900000052
 51
11.423121000000711
  0
ARC
  5
26C0
  8
0
  6
DASHED
 62
     3
 10
476.73764240103992
 20
107.1016740432531
 30
0.0
 40
100.0
 50
168.51586900000041
 51
191.42312100000061
  0
ARC
  5
26C1
  8
0
  6
DASHED
 62
     3
 10
340.5895394010401
 20
-28.901532956746951
 30
0.0
 40
100.0
 50
78.515869000003875
 51
101.42312100000071
  0
ARC
  5
26C2
  8
0
  6
DASHED
 62
     3
 10
340.66198740103999
 20
107.17412204325301
 30
0.0
 40
43.399999999999977
 50
209.26027399999509
 51
240.67871600000561
  0
ARC
  5
26C3
  8
0
  6
DASHED
 62
     3
 10
320.38814340104028
 20
71.077983043253056
 30
0.0
 40
2.0
 50
240.67871600000561
 51
281.42312100000072
  0
ARC
  5
26C4
  8
0
  6
DASHED
 62
     3
 10
304.54428040104
 20
86.938725043253044
 30
0.0
 40
2.0
 50
168.51586900000041
 51
209.26027399999509
  0
ARC
  5
26C5
  8
0
  6
DASHED
 62
     3
 10
340.66198740103999
 20
107.17412204325301
 30
0.0
 40
43.399999999999977
 50
299.26027399999919
 51
330.67871600000382
  0
ARC
  5
26C6
  8
0
  6
DASHED
 62
     3
 10
360.89738340103997
 20
71.056415043253082
 30
0.0
 40
2.0
 50
258.51586900000387
 51
299.26027399999919
  0
ARC
  5
26C7
  8
0
  6
DASHED
 62
     3
 10
376.75812640103999
 20
86.900278043253095
 30
0.0
 40
2.0
 50
330.67871600000382
 51
11.423121000000711
  0
ARC
  5
26C8
  8
0
  6
DASHED
 62
     3
 10
340.73443540104012
 20
243.24977704325309
 30
0.0
 40
100.0
 50
258.51586900000387
 51
281.42312100000072
  0
ARC
  5
26C9
  8
0
  6
DASHED
 62
     3
 10
340.66198740103999
 20
107.17412204325301
 30
0.0
 40
43.399999999999977
 50
119.2602739999991
 51
150.67871600000379
  0
ARC
  5
26CA
  8
0
  6
DASHED
 62
     3
 10
304.56584840104
 20
127.44796504325311
 30
0.0
 40
2.0
 50
150.67871600000379
 51
191.42312100000061
  0
ARC
  5
26CB
  8
0
  6
DASHED
 62
     3
 10
320.42659140104001
 20
143.2918280432531
 30
0.0
 40
2.0
 50
78.515869000003875
 51
119.2602739999991
  0
ARC
  5
26CC
  8
0
  6
DASHED
 62
     3
 10
340.66198740103999
 20
107.17412204325301
 30
0.0
 40
43.399999999999977
 50
29.260273999995128
 51
60.678716000005608
  0
ARC
  5
26CD
  8
0
  6
DASHED
 62
     3
 10
376.77969340103988
 20
127.4095180432531
 30
0.0
 40
2.0
 50
348.51586900000052
 51
29.260273999995128
  0
ARC
  5
26CE
  8
0
  6
DASHED
 62
     3
 10
360.9358314010401
 20
143.2702610432529
 30
0.0
 40
2.0
 50
60.678716000005608
 51
101.42312100000071
  0
ENDSEC
  0
EOF
