  0
SECTION
  2
HEADER
  9
$ACADVER
  1
AC1009
  9
$INSBASE
 10
0.0
 20
0.0
 30
0.0
  9
$EXTMIN
 10
63.190326900339969
 20
163.19997787296239
 30
0.0
  9
$EXTMAX
 10
151.47013200717441
 20
237.33484818892441
 30
0.0
  9
$LIMMIN
 10
0.0
 20
0.0
  9
$LIMMAX
 10
297.0
 20
210.0
  9
$ORTHOMODE
 70
     1
  9
$REGENMODE
 70
     1
  9
$FILLMODE
 70
     1
  9
$QTEXTMODE
 70
     0
  9
$MIRRTEXT
 70
     1
  9
$DRAGMODE
 70
     2
  9
$LTSCALE
 40
1.0
  9
$OSMODE
 70
   175
  9
$ATTMODE
 70
     1
  9
$TEXTSIZE
 40
6.4000000000000012
  9
$TRACEWID
 40
0.05
  9
$TEXTSTYLE
  7
STANDARD
  9
$CLAYER
  8
0
  9
$CELTYPE
  6
BYLAYER
  9
$CECOLOR
 62
   256
  9
$DIMSCALE
 40
1.0
  9
$DIMASZ
 40
3.0
  9
$DIMEXO
 40
1.0
  9
$DIMDLI
 40
0.0
  9
$DIMRND
 40
0.0
  9
$DIMDLE
 40
0.0
  9
$DIMEXE
 40
1.0
  9
$DIMTP
 40
0.0
  9
$DIMTM
 40
0.0
  9
$DIMTXT
 40
3.2000000000000002
  9
$DIMCEN
 40
0.0
  9
$DIMTSZ
 40
0.0
  9
$DIMTOL
 70
     0
  9
$DIMLIM
 70
     0
  9
$DIMTIH
 70
     0
  9
$DIMTOH
 70
     0
  9
$DIMSE1
 70
     0
  9
$DIMSE2
 70
     0
  9
$DIMTAD
 70
     1
  9
$DIMZIN
 70
     8
  9
$DIMBLK
  1

  9
$DIMASO
 70
     1
  9
$DIMSHO
 70
     1
  9
$DIMPOST
  1

  9
$DIMAPOST
  1

  9
$DIMALT
 70
     0
  9
$DIMALTD
 70
     2
  9
$DIMALTF
 40
0.04
  9
$DIMLFAC
 40
1.0
  9
$DIMTOFL
 70
     1
  9
$DIMTVP
 40
1.0
  9
$DIMTIX
 70
     1
  9
$DIMSOXD
 70
     0
  9
$DIMSAH
 70
     0
  9
$DIMBLK1
  1

  9
$DIMBLK2
  1

  9
$DIMSTYLE
  2
MISUMI
  9
$DIMCLRD
 70
     0
  9
$DIMCLRE
 70
     0
  9
$DIMCLRT
 70
     0
  9
$DIMTFAC
 40
0.6
  9
$DIMGAP
 40
1.0
  9
$LUNITS
 70
     2
  9
$LUPREC
 70
     4
  9
$SKETCHINC
 40
0.1
  9
$FILLETRAD
 40
0.3
  9
$AUNITS
 70
     0
  9
$AUPREC
 70
     0
  9
$MENU
  1
acad
  9
$ELEVATION
 40
0.0
  9
$PELEVATION
 40
0.0
  9
$THICKNESS
 40
0.0
  9
$LIMCHECK
 70
     0
  9
$BLIPMODE
 70
     0
  9
$CHAMFERA
 40
0.5
  9
$CHAMFERB
 40
0.5
  9
$SKPOLY
 70
     0
  9
$TDCREATE
 40
2451464.60066493
  9
$TDUPDATE
 40
2453094.4724583328
  9
$TDINDWG
 40
0.123606875
  9
$TDUSRTIMER
 40
0.1236053588
  9
$USRTIMER
 70
     1
  9
$ANGBASE
 50
0.0
  9
$ANGDIR
 70
     0
  9
$PDMODE
 70
     0
  9
$PDSIZE
 40
0.0
  9
$PLINEWID
 40
0.0
  9
$COORDS
 70
     1
  9
$SPLFRAME
 70
     0
  9
$SPLINETYPE
 70
     6
  9
$SPLINESEGS
 70
     8
  9
$ATTDIA
 70
     0
  9
$ATTREQ
 70
     1
  9
$HANDLING
 70
-16383
  9
$HANDSEED
  5
844
  9
$SURFTAB1
 70
     6
  9
$SURFTAB2
 70
     6
  9
$SURFTYPE
 70
     6
  9
$SURFU
 70
     6
  9
$SURFV
 70
     6
  9
$UCSNAME
  2

  9
$UCSORG
 10
0.0
 20
0.0
 30
0.0
  9
$UCSXDIR
 10
1.0
 20
0.0
 30
0.0
  9
$UCSYDIR
 10
0.0
 20
1.0
 30
0.0
  9
$PUCSNAME
  2

  9
$PUCSORG
 10
0.0
 20
0.0
 30
0.0
  9
$PUCSXDIR
 10
1.0
 20
0.0
 30
0.0
  9
$PUCSYDIR
 10
0.0
 20
1.0
 30
0.0
  9
$USERI1
 70
     0
  9
$USERI2
 70
     0
  9
$USERI3
 70
     0
  9
$USERI4
 70
     0
  9
$USERI5
 70
     0
  9
$USERR1
 40
0.0
  9
$USERR2
 40
0.0
  9
$USERR3
 40
0.0
  9
$USERR4
 40
0.0
  9
$USERR5
 40
0.0
  9
$WORLDVIEW
 70
     1
  9
$SHADEDGE
 70
     3
  9
$SHADEDIF
 70
    70
  9
$TILEMODE
 70
     1
  9
$MAXACTVP
 70
    16
  9
$PLIMCHECK
 70
     0
  9
$PEXTMIN
 10
1.0000000000000000E+020
 20
1.0000000000000000E+020
 30
1.0000000000000000E+020
  9
$PEXTMAX
 10
-1.0000000000000000E+020
 20
-1.0000000000000000E+020
 30
-1.0000000000000000E+020
  9
$PLIMMIN
 10
0.0
 20
0.0
  9
$PLIMMAX
 10
12.0
 20
9.0
  9
$UNITMODE
 70
     0
  9
$VISRETAIN
 70
     0
  9
$PLINEGEN
 70
     0
  9
$PSLTSCALE
 70
     1
  0
ENDSEC
  0
SECTION
  2
TABLES
  0
TABLE
  2
VPORT
 70
     2
  0
VPORT
  2
*ACTIVE
 70
     0
 10
0.0
 20
0.0
 11
1.0
 21
1.0
 12
108.71617294259291
 22
208.65269613737709
 13
0.0
 23
0.0
 14
10.0
 24
10.0
 15
10.0
 25
10.0
 16
0.0
 26
0.0
 36
1.0
 17
0.0
 27
0.0
 37
0.0
 40
116.25154068544251
 41
1.304
 42
50.0
 43
0.0
 44
0.0
 50
0.0
 51
0.0
 71
     0
 72
   100
 73
     1
 74
     0
 75
     0
 76
     0
 77
     0
 78
     0
  0
ENDTAB
  0
TABLE
  2
LTYPE
 70
     3
  0
LTYPE
  2
CONTINUOUS
 70
     0
  3
Solid line
 72
    65
 73
     0
 40
0.0
  0
LTYPE
  2
DASHED
 70
     0
  3
__ __ __ __ __ __ __ __ __ __ __ __ __ __ __
 72
    65
 73
     2
 40
3.5
 49
2.0
 49
-1.5
  0
LTYPE
  2
CENTER
 70
     0
  3
____ _ ____ _ ____ _ ____ _ ____ _ ____ _ ____
 72
    65
 73
     4
 40
17.5
 49
13.0
 49
-1.5
 49
1.5
 49
-1.5
  0
ENDTAB
  0
TABLE
  2
LAYER
 70
     3
  0
LAYER
  2
0
 70
     0
 62
     7
  6
CONTINUOUS
  0
LAYER
  2
DEFPOINTS
 70
     0
 62
     7
  6
CONTINUOUS
  0
LAYER
  2
CENTER
 70
     0
 62
     1
  6
CENTER
  0
ENDTAB
  0
TABLE
  2
STYLE
 70
     1
  0
STYLE
  2
STANDARD
 70
     0
 40
0.0
 41
1.0
 50
0.0
 71
     0
 42
6.4000000000000012
  3
txt
  4

  0
ENDTAB
  0
TABLE
  2
VIEW
 70
     0
  0
ENDTAB
  0
TABLE
  2
UCS
 70
     0
  0
ENDTAB
  0
TABLE
  2
APPID
 70
     1
  0
APPID
  2
ACAD
 70
     0
  0
ENDTAB
  0
TABLE
  2
DIMSTYLE
 70
     1
  0
DIMSTYLE
  2
MISUMI
 70
     0
  3

  4

  5

  6

  7

 40
1.0
 41
3.0
 42
1.0
 43
0.0
 44
1.0
 45
0.0
 46
0.0
 47
0.0
 48
0.0
140
3.2000000000000002
141
0.0
142
0.0
143
0.04
144
1.0
145
1.0
146
0.6
147
1.0
 71
     0
 72
     0
 73
     0
 74
     0
 75
     0
 76
     0
 77
     1
 78
     8
170
     0
171
     2
172
     1
173
     0
174
     1
175
     0
176
     0
177
     0
178
     0
  0
ENDTAB
  0
ENDSEC
  0
SECTION
  2
BLOCKS
  0
BLOCK
  8
0
  2
$MODEL_SPACE
 70
     0
 10
0.0
 20
0.0
 30
0.0
  3
$MODEL_SPACE
  1

  0
ENDBLK
  5
7E7
  8
0
  0
BLOCK
 67
     1
  8
0
  2
$PAPER_SPACE
 70
     0
 10
0.0
 20
0.0
 30
0.0
  3
$PAPER_SPACE
  1

  0
ENDBLK
  5
7E3
 67
     1
  8
0
  0
ENDSEC
  0
SECTION
  2
ENTITIES
  0
TEXT
  5
7F6
  8
0
 10
63.190326900339969
 20
178.51455216773141
 30
0.0
 40
4.0
  1
SCSPK20-10
  0
LINE
  5
7F7
  8
CENTER
  6
CENTER
 62
     1
 10
93.896488607568415
 20
237.29571582687981
 30
0.0
 11
93.896488607568415
 21
194.37398055096909
 31
0.0
  0
LINE
  5
7F8
  8
0
  6
DASHED
 62
     3
 10
82.099137209902906
 20
199.68484818892441
 30
0.0
 11
93.146488607568486
 21
199.68484818892441
 31
0.0
  0
LINE
  5
7F9
  8
0
  6
DASHED
 62
     3
 10
82.099137209902977
 20
231.98484818892439
 30
0.0
 11
93.146488607568486
 21
231.98484818892439
 31
0.0
  0
LINE
  5
7FA
  8
0
  6
DASHED
 62
     3
 10
77.78507960649091
 20
227.68484818892449
 30
0.0
 11
93.146488607568486
 21
227.68484818892449
 31
0.0
  0
LINE
  5
7FB
  8
0
  6
DASHED
 62
     3
 10
77.78507960649091
 20
203.98484818892439
 30
0.0
 11
93.146488607568486
 21
203.98484818892439
 31
0.0
  0
LINE
  5
7FC
  8
CENTER
  6
CENTER
 62
     1
 10
72.396488607568429
 20
215.83484821327789
 30
0.0
 11
115.3964886075683
 21
215.83484891140961
 31
0.0
  0
LINE
  5
7FD
  8
0
  6
DASHED
 62
     3
 10
77.533420607568459
 20
227.3348481889243
 30
0.0
 11
93.146488607568486
 21
227.3348481889243
 31
0.0
  0
LINE
  5
7FE
  8
0
  6
DASHED
 62
     3
 10
82.593834607568496
 20
232.3348481889245
 30
0.0
 11
93.146488607568486
 21
232.3348481889245
 31
0.0
  0
LINE
  5
7FF
  8
0
  6
DASHED
 62
     3
 10
77.533420607568459
 20
204.33484818892441
 30
0.0
 11
93.146488607568486
 21
204.33484818892441
 31
0.0
  0
LINE
  5
800
  8
CENTER
  6
CENTER
 62
     1
 10
77.63091638357821
 20
229.83484818892441
 30
0.0
 11
110.16206083155851
 21
229.83484818892441
 31
0.0
  0
LINE
  5
801
  8
0
  6
DASHED
 62
     3
 10
82.593834607568496
 20
199.3348481889245
 30
0.0
 11
93.146488607568486
 21
199.3348481889245
 31
0.0
  0
LINE
  5
802
  8
CENTER
  6
CENTER
 62
     1
 10
77.630916383578295
 20
201.83484818892441
 30
0.0
 11
110.16206083155851
 21
201.83484818892441
 31
0.0
  0
ARC
  5
803
  8
0
  6
CONTINUOUS
 62
     7
 10
93.896488607568415
 20
215.8348481889245
 30
0.0
 40
19.5
 50
92.204227000000046
 51
267.7957599999998
  0
ARC
  5
804
  8
0
  6
CONTINUOUS
 62
     7
 10
93.896488607568415
 20
215.8348481889245
 30
0.0
 40
20.0
 50
92.149093999999806
 51
267.85090000000002
  0
LINE
  5
805
  8
0
  6
DASHED
 62
     3
 10
100.8964886075684
 20
225.3348481889243
 30
0.0
 11
100.8964886075684
 21
234.33484818892441
 31
0.0
  0
LINE
  5
806
  8
0
  6
CONTINUOUS
 62
     7
 10
94.646488607568486
 20
225.80668328892449
 30
0.0
 11
94.646488607568486
 21
235.82078118892409
 31
0.0
  0
LINE
  5
807
  8
0
  6
CONTINUOUS
 62
     7
 10
93.146488607568486
 20
225.80668328892449
 30
0.0
 11
93.146488607568486
 21
235.82078118892409
 31
0.0
  0
ARC
  5
808
  8
0
  6
CONTINUOUS
 62
     7
 10
93.896488607568415
 20
215.8348481889245
 30
0.0
 40
20.0
 50
272.14909999999952
 51
87.850904000000043
  0
ARC
  5
809
  8
0
  6
CONTINUOUS
 62
     7
 10
93.896488607568415
 20
215.8348481889245
 30
0.0
 40
19.5
 50
272.20423
 51
87.795770999999974
  0
LINE
  5
80A
  8
0
  6
DASHED
 62
     3
 10
100.8964886075684
 20
225.3348481889243
 30
0.0
 11
111.49620450756819
 21
225.3348481889243
 31
0.0
  0
LINE
  5
80B
  8
0
  6
DASHED
 62
     3
 10
100.8964886075684
 20
206.33484818892441
 30
0.0
 11
111.49620450756819
 21
206.33484818892441
 31
0.0
  0
ARC
  5
80C
  8
0
  6
CONTINUOUS
 62
     7
 10
93.896488607568415
 20
215.8348481889245
 30
0.0
 40
10.0
 50
274.30121999999949
 51
85.698779999999957
  0
ARC
  5
80D
  8
0
  6
CONTINUOUS
 62
     7
 10
93.896488607568415
 20
215.8348481889245
 30
0.0
 40
10.5
 50
274.09604000000002
 51
85.903958999999986
  0
ARC
  5
80E
  8
0
  6
CONTINUOUS
 62
     7
 10
93.896488607568415
 20
215.8348481889245
 30
0.0
 40
10.5
 50
94.096040000000144
 51
265.90395999999981
  0
ARC
  5
80F
  8
0
  6
CONTINUOUS
 62
     7
 10
93.896488607568415
 20
215.8348481889245
 30
0.0
 40
10.0
 50
94.301218999999804
 51
265.69878
  0
LINE
  5
810
  8
0
  6
CONTINUOUS
 62
     7
 10
93.146488607568486
 20
205.86301308892439
 30
0.0
 11
93.146488607568486
 21
195.84891518892439
 31
0.0
  0
LINE
  5
811
  8
0
 10
93.146488607568429
 20
203.3594886139243
 30
0.0
 11
93.146488607568429
 21
203.3595886139241
 31
0.0
  0
LINE
  5
812
  8
0
 10
93.146488607568429
 20
200.85596413892429
 30
0.0
 11
93.146588607568432
 21
200.85596413892429
 31
0.0
  0
LINE
  5
813
  8
0
  6
DASHED
 62
     3
 10
100.8964886075684
 20
206.33484818892441
 30
0.0
 11
100.8964886075684
 21
197.33484818892441
 31
0.0
  0
LINE
  5
814
  8
0
  6
CONTINUOUS
 62
     7
 10
94.646488607568486
 20
205.86301308892439
 30
0.0
 11
94.646488607568486
 21
195.84891518892439
 31
0.0
  0
LINE
  5
815
  8
0
  6
DASHED
 62
     3
 10
94.646488607568486
 20
204.5848481889243
 30
0.0
 11
100.8964886075684
 21
204.5848481889243
 31
0.0
  0
LINE
  5
816
  8
0
  6
DASHED
 62
     3
 10
94.646488607568486
 20
199.08484818892441
 30
0.0
 11
100.8964886075684
 21
199.08484818892441
 31
0.0
  0
LINE
  5
817
  8
0
  6
DASHED
 62
     3
 10
100.8964886075684
 20
197.33484818892441
 30
0.0
 11
101.49583068435371
 21
197.33484818892441
 31
0.0
  0
LINE
  5
818
  8
0
  6
DASHED
 62
     3
 10
94.646488607568486
 20
227.08484818892441
 30
0.0
 11
100.8964886075684
 21
227.08484818892441
 31
0.0
  0
LINE
  5
819
  8
0
  6
DASHED
 62
     3
 10
94.646488607568486
 20
232.5848481889245
 30
0.0
 11
100.8964886075684
 21
232.5848481889245
 31
0.0
  0
LINE
  5
81A
  8
0
  6
DASHED
 62
     3
 10
100.8964886075684
 20
234.33484818892441
 30
0.0
 11
101.49583068435371
 21
234.33484818892441
 31
0.0
  0
LINE
  5
81B
  8
CENTER
  6
CENTER
 62
     1
 10
145.07349919662761
 20
237.33484818892441
 30
0.0
 11
145.07349919662761
 21
194.3348481889245
 31
0.0
  0
LINE
  5
81C
  8
CENTER
  6
CENTER
 62
     1
 10
139.32349919662761
 20
229.83484818892441
 30
0.0
 11
150.82349919662781
 21
229.83484818892441
 31
0.0
  0
LINE
  5
81D
  8
CENTER
  6
CENTER
 62
     1
 10
139.32349919662761
 20
201.83484818892441
 30
0.0
 11
150.82349919662781
 21
201.83484818892441
 31
0.0
  0
LINE
  5
81E
  8
CENTER
  6
CENTER
 62
     1
 10
138.676866386081
 20
215.8348481889245
 30
0.0
 11
151.47013200717441
 21
215.8348481889245
 31
0.0
  0
LINE
  5
81F
  8
0
  6
DASHED
 62
     3
 10
140.57349919662761
 20
205.86301308892439
 30
0.0
 11
149.57349919662789
 21
205.86301308892439
 31
0.0
  0
LINE
  5
820
  8
0
  6
DASHED
 62
     3
 10
140.57349919662761
 20
225.80668328892449
 30
0.0
 11
149.57349919662789
 21
225.80668328892449
 31
0.0
  0
CIRCLE
  5
821
  8
0
 10
145.07349919662761
 20
229.83484818892441
 30
0.0
 40
4.5
  0
CIRCLE
  5
822
  8
0
  6
CONTINUOUS
 62
     3
 10
145.07349919662761
 20
229.83484818892441
 30
0.0
 40
2.5
  0
CIRCLE
  5
823
  8
0
  6
CONTINUOUS
 62
     7
 10
145.07349919662761
 20
229.83484818892441
 30
0.0
 40
2.75
  0
LINE
  5
824
  8
0
  6
CONTINUOUS
 62
     7
 10
140.57349919662761
 20
235.8348481889243
 30
0.0
 11
149.57349919662789
 21
235.8348481889243
 31
0.0
  0
LINE
  5
825
  8
0
  6
CONTINUOUS
 62
     7
 10
140.57349919662761
 20
195.83484818892441
 30
0.0
 11
149.57349919662789
 21
195.83484818892441
 31
0.0
  0
CIRCLE
  5
826
  8
0
 10
145.07349919662761
 20
201.83484818892441
 30
0.0
 40
4.5
  0
CIRCLE
  5
827
  8
0
  6
CONTINUOUS
 62
     3
 10
145.07349919662761
 20
201.83484818892441
 30
0.0
 40
2.5
  0
CIRCLE
  5
828
  8
0
  6
CONTINUOUS
 62
     7
 10
145.07349919662761
 20
201.83484818892441
 30
0.0
 40
2.75
  0
LINE
  5
829
  8
0
  6
CONTINUOUS
 62
     7
 10
140.07349919662769
 20
235.33484818892441
 30
0.0
 11
140.07349919662769
 21
196.3348481889245
 31
0.0
  0
LINE
  5
82A
  8
0
  6
CONTINUOUS
 62
     7
 10
140.57349919662761
 20
235.8348481889243
 30
0.0
 11
140.57349919662761
 21
195.83484818892441
 31
0.0
  0
LINE
  5
82B
  8
0
  6
CONTINUOUS
 62
     7
 10
140.57349819662761
 20
195.83484818892441
 30
0.0
 11
140.07349919662769
 21
196.3348481889245
 31
0.0
  0
LINE
  5
82C
  8
0
  6
DASHED
 62
     3
 10
140.07349919662769
 20
205.36301308892439
 30
0.0
 11
140.57349919662761
 21
205.86301308892439
 31
0.0
  0
LINE
  5
82D
  8
0
  6
DASHED
 62
     3
 10
140.07349919662769
 20
226.3066832889246
 30
0.0
 11
140.57349919662761
 21
225.80668328892449
 31
0.0
  0
LINE
  5
82E
  8
0
  6
CONTINUOUS
 62
     7
 10
140.57349819662761
 20
235.8348481889243
 30
0.0
 11
140.07349919662769
 21
235.33484818892441
 31
0.0
  0
LINE
  5
82F
  8
0
  6
CONTINUOUS
 62
     7
 10
150.07349919662749
 20
235.33484818892441
 30
0.0
 11
150.07349919662749
 21
196.3348481889245
 31
0.0
  0
LINE
  5
830
  8
0
  6
CONTINUOUS
 62
     7
 10
149.57349919662789
 20
235.8348481889243
 30
0.0
 11
149.57349919662789
 21
195.83484818892441
 31
0.0
  0
LINE
  5
831
  8
0
  6
CONTINUOUS
 62
     7
 10
149.57349919662789
 20
195.83484818892441
 30
0.0
 11
150.07349919662749
 21
196.3348481889245
 31
0.0
  0
LINE
  5
832
  8
0
  6
DASHED
 62
     3
 10
149.57349919662789
 20
205.86301308892439
 30
0.0
 11
150.07349919662749
 21
205.36301308892439
 31
0.0
  0
LINE
  5
833
  8
0
  6
DASHED
 62
     3
 10
149.57349919662789
 20
225.80668328892449
 30
0.0
 11
150.07349919662749
 21
226.3066832889246
 31
0.0
  0
LINE
  5
834
  8
0
  6
CONTINUOUS
 62
     7
 10
149.57349919662789
 20
235.8348481889243
 30
0.0
 11
150.07349919662749
 21
235.33484818892441
 31
0.0
  0
CIRCLE
  5
835
  8
0
 10
78.896488607568415
 20
215.8348481889245
 30
0.0
 40
2.75
  0
LINE
  5
836
  8
CENTER
  6
CENTER
 62
     1
 10
78.896488607568415
 20
219.65136364712879
 30
0.0
 11
78.896488607568415
 21
212.01833273071981
 31
0.0
  0
CIRCLE
  5
837
  8
0
 10
108.8964886075683
 20
215.8348481889245
 30
0.0
 40
2.75
  0
LINE
  5
838
  8
CENTER
  6
CENTER
 62
     1
 10
108.8964886075683
 20
219.65136364712879
 30
0.0
 11
108.8964886075683
 21
212.01833273071981
 31
0.0
  0
LINE
  5
839
  8
0
  6
DASHED
 62
     3
 10
140.07349919662769
 20
218.58484818892441
 30
0.0
 11
150.07349919662749
 21
218.58484818892441
 31
0.0
  0
LINE
  5
83A
  8
0
  6
DASHED
 62
     3
 10
140.07349919662769
 20
213.08484818892441
 30
0.0
 11
150.07349919662749
 21
213.08484818892441
 31
0.0
  0
CIRCLE
  5
83B
  8
0
 10
145.07349919662781
 20
229.83484818892441
 30
0.0
 40
2.149999999999999
  0
CIRCLE
  5
83C
  8
0
 10
145.07349919662761
 20
201.83484818892441
 30
0.0
 40
2.149999999999999
  0
TEXT
  5
83E
  8
0
 10
63.190326900339969
 20
163.19997787296251
 30
0.0
 40
4.0
  1
SCSPK200
  0
ENDSEC
  0
EOF
