  0
SECTION
  2
HEADER
  9
$ACADVER
  1
AC1009
  9
$INSBASE
 10
0.0
 20
0.0
 30
0.0
  9
$EXTMIN
 10
-1058.964540696551
 20
-167.2928871324138
 30
0.0
  9
$EXTMAX
 10
-869.97928583549822
 20
-29.387124651687181
 30
0.0
  9
$LIMMIN
 10
0.0
 20
0.0
  9
$LIMMAX
 10
297.0
 20
210.0
  9
$ORTHOMODE
 70
     0
  9
$REGENMODE
 70
     1
  9
$FILLMODE
 70
     1
  9
$QTEXTMODE
 70
     0
  9
$MIRRTEXT
 70
     1
  9
$DRAGMODE
 70
     2
  9
$LTSCALE
 40
1.0
  9
$OSMODE
 70
  2999
  9
$ATTMODE
 70
     1
  9
$TEXTSIZE
 40
6.4000000000000012
  9
$TRACEWID
 40
0.05
  9
$TEXTSTYLE
  7
STANDARD
  9
$CLAYER
  8
0
  9
$CELTYPE
  6
CONTINUOUS
  9
$CECOLOR
 62
     7
  9
$DIMSCALE
 40
1.0
  9
$DIMASZ
 40
3.0
  9
$DIMEXO
 40
1.0
  9
$DIMDLI
 40
0.0
  9
$DIMRND
 40
0.0
  9
$DIMDLE
 40
0.0
  9
$DIMEXE
 40
1.0
  9
$DIMTP
 40
0.0
  9
$DIMTM
 40
0.0
  9
$DIMTXT
 40
3.2000000000000002
  9
$DIMCEN
 40
0.0
  9
$DIMTSZ
 40
0.0
  9
$DIMTOL
 70
     0
  9
$DIMLIM
 70
     0
  9
$DIMTIH
 70
     0
  9
$DIMTOH
 70
     0
  9
$DIMSE1
 70
     0
  9
$DIMSE2
 70
     0
  9
$DIMTAD
 70
     1
  9
$DIMZIN
 70
     8
  9
$DIMBLK
  1

  9
$DIMASO
 70
     1
  9
$DIMSHO
 70
     1
  9
$DIMPOST
  1

  9
$DIMAPOST
  1

  9
$DIMALT
 70
     0
  9
$DIMALTD
 70
     2
  9
$DIMALTF
 40
0.04
  9
$DIMLFAC
 40
1.0
  9
$DIMTOFL
 70
     1
  9
$DIMTVP
 40
1.0
  9
$DIMTIX
 70
     1
  9
$DIMSOXD
 70
     0
  9
$DIMSAH
 70
     0
  9
$DIMBLK1
  1

  9
$DIMBLK2
  1

  9
$DIMSTYLE
  2
MISUMI
  9
$DIMCLRD
 70
     0
  9
$DIMCLRE
 70
     0
  9
$DIMCLRT
 70
     0
  9
$DIMTFAC
 40
0.6
  9
$DIMGAP
 40
1.0
  9
$LUNITS
 70
     2
  9
$LUPREC
 70
     4
  9
$SKETCHINC
 40
0.1
  9
$FILLETRAD
 40
0.0
  9
$AUNITS
 70
     0
  9
$AUPREC
 70
     0
  9
$MENU
  1
acad
  9
$ELEVATION
 40
0.0
  9
$PELEVATION
 40
0.0
  9
$THICKNESS
 40
0.0
  9
$LIMCHECK
 70
     0
  9
$BLIPMODE
 70
     0
  9
$CHAMFERA
 40
0.0
  9
$CHAMFERB
 40
0.0
  9
$SKPOLY
 70
     0
  9
$TDCREATE
 40
2451464.6006649309
  9
$TDUPDATE
 40
2454728.5740021989
  9
$TDINDWG
 40
0.3199552778
  9
$TDUSRTIMER
 40
0.3199515509
  9
$USRTIMER
 70
     1
  9
$ANGBASE
 50
0.0
  9
$ANGDIR
 70
     0
  9
$PDMODE
 70
     0
  9
$PDSIZE
 40
0.0
  9
$PLINEWID
 40
0.0
  9
$COORDS
 70
     2
  9
$SPLFRAME
 70
     0
  9
$SPLINETYPE
 70
     6
  9
$SPLINESEGS
 70
     8
  9
$ATTDIA
 70
     0
  9
$ATTREQ
 70
     1
  9
$HANDLING
 70
     1
  9
$HANDSEED
  5
19A9
  9
$SURFTAB1
 70
     6
  9
$SURFTAB2
 70
     6
  9
$SURFTYPE
 70
     6
  9
$SURFU
 70
     6
  9
$SURFV
 70
     6
  9
$UCSNAME
  2

  9
$UCSORG
 10
0.0
 20
0.0
 30
0.0
  9
$UCSXDIR
 10
1.0
 20
0.0
 30
0.0
  9
$UCSYDIR
 10
0.0
 20
1.0
 30
0.0
  9
$PUCSNAME
  2

  9
$PUCSORG
 10
0.0
 20
0.0
 30
0.0
  9
$PUCSXDIR
 10
1.0
 20
0.0
 30
0.0
  9
$PUCSYDIR
 10
0.0
 20
1.0
 30
0.0
  9
$USERI1
 70
     0
  9
$USERI2
 70
     0
  9
$USERI3
 70
     0
  9
$USERI4
 70
     0
  9
$USERI5
 70
     0
  9
$USERR1
 40
0.0
  9
$USERR2
 40
0.0
  9
$USERR3
 40
0.0
  9
$USERR4
 40
0.0
  9
$USERR5
 40
0.0
  9
$WORLDVIEW
 70
     1
  9
$SHADEDGE
 70
     3
  9
$SHADEDIF
 70
    70
  9
$TILEMODE
 70
     1
  9
$MAXACTVP
 70
    16
  9
$PLIMCHECK
 70
     0
  9
$PEXTMIN
 10
1.0000000000000000E+020
 20
1.0000000000000000E+020
 30
1.0000000000000000E+020
  9
$PEXTMAX
 10
-1.0000000000000000E+020
 20
-1.0000000000000000E+020
 30
-1.0000000000000000E+020
  9
$PLIMMIN
 10
0.0
 20
0.0
  9
$PLIMMAX
 10
12.0
 20
9.0
  9
$UNITMODE
 70
     0
  9
$VISRETAIN
 70
     0
  9
$PLINEGEN
 70
     0
  9
$PSLTSCALE
 70
     1
  0
ENDSEC
  0
SECTION
  2
TABLES
  0
TABLE
  2
VPORT
 70
     1
  0
VPORT
  2
*ACTIVE
 70
     0
 10
0.0
 20
0.0
 11
1.0
 21
1.0
 12
-951.56906311312775
 22
-98.339852248596983
 13
0.0
 23
0.0
 14
10.0
 24
10.0
 15
10.0
 25
10.0
 16
0.0
 26
0.0
 36
1.0
 17
0.0
 27
0.0
 37
0.0
 40
146.00959975854741
 41
1.4799498746867159
 42
50.0
 43
0.0
 44
0.0
 50
0.0
 51
0.0
 71
     0
 72
   100
 73
     1
 74
     0
 75
     0
 76
     0
 77
     0
 78
     0
  0
ENDTAB
  0
TABLE
  2
LTYPE
 70
     3
  0
LTYPE
  2
CONTINUOUS
 70
     0
  3
Solid line
 72
    65
 73
     0
 40
0.0
  0
LTYPE
  2
DASHED
 70
     0
  3
Dashed __ __ __ __ __ __ __ __ __ __ __ __ __ _
 72
    65
 73
     2
 40
0.75
 49
0.5
 49
-0.25
  0
LTYPE
  2
CENTER
 70
     0
  3
Center ____ _ ____ _ ____ _ ____ _ ____ _ ____
 72
    65
 73
     4
 40
2.0
 49
1.25
 49
-0.25
 49
0.25
 49
-0.25
  0
ENDTAB
  0
TABLE
  2
LAYER
 70
     3
  0
LAYER
  2
0
 70
     0
 62
     7
  6
CONTINUOUS
  0
LAYER
  2
CENTER
 70
     0
 62
     1
  6
CENTER
  0
ENDTAB
  0
TABLE
  2
STYLE
 70
     1
  0
STYLE
  2
STANDARD
 70
     0
 40
0.0
 41
1.0
 50
0.0
 71
     0
 42
6.4000000000000012
  3
txt
  4

  0
ENDTAB
  0
TABLE
  2
VIEW
 70
     0
  0
ENDTAB
  0
TABLE
  2
UCS
 70
     0
  0
ENDTAB
  0
TABLE
  2
APPID
 70
     1
  0
APPID
  2
ACAD
 70
     0
  0
ENDTAB
  0
TABLE
  2
DIMSTYLE
 70
     1
  0
DIMSTYLE
  2
MISUMI
 70
     0
  3

  4

  5

  6

  7

 40
1.0
 41
3.0
 42
1.0
 43
0.0
 44
1.0
 45
0.0
 46
0.0
 47
0.0
 48
0.0
140
3.2000000000000002
141
0.0
142
0.0
143
0.04
144
1.0
145
1.0
146
0.6
147
1.0
 71
     0
 72
     0
 73
     0
 74
     0
 75
     0
 76
     0
 77
     1
 78
     8
170
     0
171
     2
172
     1
173
     0
174
     1
175
     0
176
     0
177
     0
178
     0
  0
ENDTAB
  0
ENDSEC
  0
SECTION
  2
BLOCKS
  0
BLOCK
  8
0
  2
$MODEL_SPACE
 70
     0
 10
0.0
 20
0.0
 30
0.0
  3
$MODEL_SPACE
  1

  0
ENDBLK
  5
1944
  8
0
  0
BLOCK
 67
     1
  8
0
  2
$PAPER_SPACE
 70
     0
 10
0.0
 20
0.0
 30
0.0
  3
$PAPER_SPACE
  1

  0
ENDBLK
  5
1940
 67
     1
  8
0
  0
ENDSEC
  0
SECTION
  2
ENTITIES
  0
LINE
  5
12CB
  8
0
  6
CONTINUOUS
 62
     7
 10
-922.00684988838725
 20
-70.63434790195457
 30
0.0
 11
-917.49759988838673
 21
-70.634347901954598
 31
0.0
  0
LINE
  5
12CC
  8
0
  6
CONTINUOUS
 62
     7
 10
-921.81118173242714
 20
-66.881571152222037
 30
0.0
 11
-917.49759988838673
 21
-66.881571152222037
 31
0.0
  0
LINE
  5
12CD
  8
CENTER
  6
CENTER
 62
     1
 10
-926.6595498883878
 20
-74.387124651687174
 30
0.0
 11
-870.48621988838727
 21
-74.387124651687174
 31
0.0
  0
LINE
  5
12D0
  8
0
  6
CONTINUOUS
 62
     7
 10
-1035.6055358883871
 20
-39.387124651687152
 30
0.0
 11
-1035.6055358883871
 21
-109.38711765168711
 31
0.0
  0
LINE
  5
12D1
  8
0
  6
CONTINUOUS
 62
     7
 10
-955.6055398883874
 20
-39.387124651687152
 30
0.0
 11
-955.6055398883874
 21
-109.38711765168711
 31
0.0
  0
CIRCLE
  5
12D2
  8
0
  6
CONTINUOUS
 62
     7
 10
-995.60553588838741
 20
-74.387124651687174
 30
0.0
 40
25.5
  0
CIRCLE
  5
12D3
  8
0
  6
CONTINUOUS
 62
     7
 10
-995.60553588838741
 20
-74.387124651687174
 30
0.0
 40
27.5
  0
LINE
  5
12D5
  8
0
  6
CONTINUOUS
 62
     7
 10
-1030.6055358883871
 20
-114.38711765168711
 30
0.0
 11
-960.60553988838785
 21
-114.38711765168711
 31
0.0
  0
ARC
  5
12D6
  8
0
  6
CONTINUOUS
 62
     7
 10
-1030.6055358883871
 20
-109.38711765168711
 30
0.0
 40
5.0
 50
180.0
 51
270.0
  0
CIRCLE
  5
12D7
  8
0
  6
CONTINUOUS
 62
     7
 10
-1025.6055358883871
 20
-104.38711765168711
 30
0.0
 40
4.25
  0
CIRCLE
  5
12D8
  8
0
  6
CONTINUOUS
 62
     7
 10
-965.60553988838728
 20
-104.38711765168711
 30
0.0
 40
4.25
  0
ARC
  5
12D9
  8
0
  6
CONTINUOUS
 62
     7
 10
-960.60553988838785
 20
-109.38711765168711
 30
0.0
 40
5.0
 50
270.0
 51
0.0
  0
LINE
  5
12DB
  8
0
  6
CONTINUOUS
 62
     7
 10
-1030.6055358883871
 20
-34.387124651687166
 30
0.0
 11
-960.60553988838785
 21
-34.387124651687166
 31
0.0
  0
ARC
  5
12DC
  8
0
  6
CONTINUOUS
 62
     7
 10
-1030.6055358883871
 20
-39.387124651687152
 30
0.0
 40
5.0
 50
90.0
 51
180.0
  0
CIRCLE
  5
12DD
  8
0
  6
CONTINUOUS
 62
     7
 10
-1025.6055358883871
 20
-44.387124651687131
 30
0.0
 40
4.25
  0
CIRCLE
  5
12DE
  8
0
  6
CONTINUOUS
 62
     7
 10
-965.60553988838728
 20
-44.387124651687131
 30
0.0
 40
4.25
  0
LINE
  5
12DF
  8
CENTER
  6
CENTER
 62
     1
 10
-995.60553588838741
 20
-29.387124651687181
 30
0.0
 11
-995.60553588838741
 21
-119.38711765168711
 31
0.0
  0
LINE
  5
12E0
  8
CENTER
  6
CENTER
 62
     1
 10
-1040.6055358883871
 20
-74.387124651687174
 30
0.0
 11
-950.60553988838728
 21
-74.387124651687174
 31
0.0
  0
CIRCLE
  5
12E1
  8
0
  6
CONTINUOUS
 62
     7
 10
-995.60553588838741
 20
-74.387124651687174
 30
0.0
 40
6.5
  0
CIRCLE
  5
12E3
  8
0
  6
DASHED
 62
     3
 10
-995.60553588838741
 20
-74.387124651687174
 30
0.0
 40
4.0
  0
LINE
  5
12E4
  8
0
  6
CONTINUOUS
 62
     7
 10
-922.4975998883873
 20
-68.070464793776821
 30
0.0
 11
-922.4975998883873
 21
-80.70378450959781
 31
0.0
  0
ARC
  5
12E5
  8
0
  6
CONTINUOUS
 62
     7
 10
-907.90307104636565
 20
-74.387117391617096
 30
0.0
 40
14.594518335624731
 50
165.09981239757059
 51
194.9002223999469
  0
ARC
  5
12E7
  8
0
  6
CONTINUOUS
 62
     7
 10
-918.4975998883873
 20
-68.71466790195457
 30
0.0
 40
4.0
 50
180.0
 51
208.68008000000009
  0
LINE
  5
12E8
  8
0
  6
CONTINUOUS
 62
     7
 10
-921.81118173242714
 20
-66.881571152222037
 30
0.0
 11
-922.4975998883873
 21
-68.070464793776821
 31
0.0
  0
ARC
  5
12E9
  8
0
  6
CONTINUOUS
 62
     7
 10
-960.60553988838785
 20
-39.387124651687152
 30
0.0
 40
5.0
 50
0.0
 51
90.0
  0
LINE
  5
12EB
  8
0
  6
CONTINUOUS
 62
     7
 10
-917.49759988838673
 20
-48.887124651687152
 30
0.0
 11
-917.49759988838673
 21
-99.887124651687174
 31
0.0
  0
LINE
  5
12EC
  8
0
  6
CONTINUOUS
 62
     7
 10
-913.99759988838741
 20
-49.387124651687166
 30
0.0
 11
-913.99759988838741
 21
-62.887124651687181
 31
0.0
  0
LINE
  5
12ED
  8
0
  6
CONTINUOUS
 62
     7
 10
-876.79759988838759
 20
-34.387124651687166
 30
0.0
 11
-876.79759988838759
 21
-62.924704651687193
 31
0.0
  0
LINE
  5
12EE
  8
0
  6
CONTINUOUS
 62
     7
 10
-874.4975998883873
 20
-34.387124651687166
 30
0.0
 11
-874.4975998883873
 21
-62.924704651687193
 31
0.0
  0
LINE
  5
12EF
  8
0
  6
CONTINUOUS
 62
     7
 10
-913.99759988838741
 20
-62.887124651687181
 30
0.0
 11
-876.79759988838759
 21
-62.887124651687181
 31
0.0
  0
LINE
  5
12F0
  8
0
  6
CONTINUOUS
 62
     7
 10
-912.99759988838753
 20
-68.887124651687174
 30
0.0
 11
-892.17259988838794
 21
-68.887124651687174
 31
0.0
  0
LINE
  5
12F1
  8
0
  6
CONTINUOUS
 62
     7
 10
-917.4975998883873
 20
-70.387124651687174
 30
0.0
 11
-892.49759988838753
 21
-70.387124651687174
 31
0.0
  0
LINE
  5
12F2
  8
0
  6
CONTINUOUS
 62
     7
 10
-910.9975998883873
 20
-62.887124651687181
 30
0.0
 11
-910.9975998883873
 21
-68.887124651687174
 31
0.0
  0
LINE
  5
12F3
  8
0
  6
CONTINUOUS
 62
     7
 10
-907.99759988838741
 20
-66.937124651687185
 30
0.0
 11
-907.99759988838741
 21
-68.887124651687174
 31
0.0
  0
LINE
  5
12F4
  8
0
  6
CONTINUOUS
 62
     7
 10
-912.99759988838753
 20
-68.887124651687174
 30
0.0
 11
-912.99759988838753
 21
-70.387124651687174
 31
0.0
  0
LINE
  5
12F5
  8
0
  6
CONTINUOUS
 62
     7
 10
-910.9975998883873
 20
-66.937124651687185
 30
0.0
 11
-907.99759988838741
 21
-66.937124651687185
 31
0.0
  0
LINE
  5
12F6
  8
0
  6
CONTINUOUS
 62
     7
 10
-892.49759988838753
 20
-70.387124651687174
 30
0.0
 11
-890.76554988838745
 21
-74.387124651687174
 31
0.0
  0
LINE
  5
12F7
  8
0
  6
CONTINUOUS
 62
     7
 10
-892.17259988838794
 20
-62.887124651687181
 30
0.0
 11
-892.17259988838794
 21
-68.887124651687174
 31
0.0
  0
ARC
  5
12F8
  8
0
  6
CONTINUOUS
 62
     7
 10
-877.29759988838748
 20
-62.924704651687193
 30
0.0
 40
2.799999999999998
 50
270.0
 51
0.0
  0
ARC
  5
12F9
  8
0
  6
CONTINUOUS
 62
     7
 10
-877.29759988838748
 20
-62.924704651687193
 30
0.0
 40
0.5
 50
270.0
 51
0.0
  0
LINE
  5
12FA
  8
0
  6
CONTINUOUS
 62
     7
 10
-881.99759988838741
 20
-63.424704651687193
 30
0.0
 11
-877.29759988838748
 21
-63.424704651687193
 31
0.0
  0
LINE
  5
12FB
  8
0
  6
CONTINUOUS
 62
     7
 10
-881.99759988838741
 20
-63.424704651687193
 30
0.0
 11
-877.29759988838748
 21
-63.424704651687193
 31
0.0
  0
LINE
  5
12FC
  8
0
  6
CONTINUOUS
 62
     7
 10
-881.99759988838741
 20
-65.724704651687148
 30
0.0
 11
-877.29759988838748
 21
-65.724704651687148
 31
0.0
  0
LINE
  5
12FD
  8
0
  6
CONTINUOUS
 62
     7
 10
-881.99759988838741
 20
-63.424704651687193
 30
0.0
 11
-881.99759988838741
 21
-65.724704651687148
 31
0.0
  0
LINE
  5
12FE
  8
0
  6
CONTINUOUS
 62
     7
 10
-913.99759988838741
 20
-49.387124651687166
 30
0.0
 11
-876.79759988838759
 21
-49.387124651687166
 31
0.0
  0
LINE
  5
12FF
  8
0
  6
CONTINUOUS
 62
     7
 10
-914.4975998883873
 20
-46.887124651687166
 30
0.0
 11
-910.9975998883873
 21
-46.887124651687166
 31
0.0
  0
LINE
  5
1300
  8
0
  6
CONTINUOUS
 62
     7
 10
-917.49759988838673
 20
-48.887124651687152
 30
0.0
 11
-914.4975998883873
 21
-46.887124651687166
 31
0.0
  0
LINE
  5
1301
  8
0
  6
CONTINUOUS
 62
     7
 10
-910.9975998883873
 20
-46.887124651687166
 30
0.0
 11
-910.9975998883873
 21
-49.387124651687166
 31
0.0
  0
LINE
  5
1302
  8
0
  6
CONTINUOUS
 62
     7
 10
-876.79759988838759
 20
-34.387124651687166
 30
0.0
 11
-874.4975998883873
 21
-34.387124651687166
 31
0.0
  0
LINE
  5
1303
  8
CENTER
  6
CENTER
 62
     1
 10
-1020.009550936253
 20
-44.38712465168669
 30
0.0
 11
-1031.2015208405201
 21
-44.387124651687472
 31
0.0
  0
LINE
  5
1304
  8
CENTER
  6
CENTER
 62
     1
 10
-1025.6055358883871
 20
-109.9831026038206
 30
0.0
 11
-1025.6055358883859
 21
-98.791132699553486
 31
0.0
  0
LINE
  5
1305
  8
CENTER
  6
CENTER
 62
     1
 10
-960.00955493625418
 20
-104.38711765168701
 30
0.0
 11
-971.20152484052176
 21
-104.38711765168721
 31
0.0
  0
LINE
  5
1306
  8
CENTER
  6
CENTER
 62
     1
 10
-971.20152484052062
 20
-44.387124651687131
 30
0.0
 11
-960.00955493625418
 21
-44.387124651687373
 31
0.0
  0
TEXT
  5
1307
  8
0
  6
CONTINUOUS
 62
     7
 10
-1058.964540696551
 20
-167.2928871324138
 30
0.0
 40
6.4000000000000004
  1
KMBU8
  0
TEXT
  5
1308
  8
0
  6
CONTINUOUS
 62
     7
 10
-1058.964540696551
 20
-157.8099483283078
 30
0.0
 40
6.4000000000000004
  1
KMBU8
  0
LINE
  5
1309
  8
0
  6
CONTINUOUS
 62
     7
 10
-913.99759988838741
 20
-99.387124651687202
 30
0.0
 11
-913.99759988838741
 21
-85.887124651687174
 31
0.0
  0
LINE
  5
130B
  8
0
  6
CONTINUOUS
 62
     7
 10
-874.4975998883873
 20
-114.38711765168711
 30
0.0
 11
-874.4975998883873
 21
-85.849544651687168
 31
0.0
  0
LINE
  5
130C
  8
0
  6
CONTINUOUS
 62
     7
 10
-876.79759988838759
 20
-114.38711765168711
 30
0.0
 11
-876.79759988838759
 21
-85.849544651687168
 31
0.0
  0
LINE
  5
130D
  8
0
  6
CONTINUOUS
 62
     7
 10
-913.99759988838741
 20
-85.887124651687174
 30
0.0
 11
-876.79759988838759
 21
-85.887124651687174
 31
0.0
  0
LINE
  5
130E
  8
0
  6
CONTINUOUS
 62
     7
 10
-917.4975998883873
 20
-78.387124651687174
 30
0.0
 11
-892.49759988838753
 21
-78.387124651687174
 31
0.0
  0
LINE
  5
130F
  8
CENTER
  6
CENTER
 62
     1
 10
-926.6595498883878
 20
-74.387124651687174
 30
0.0
 11
-870.48621988838727
 21
-74.387124651687174
 31
0.0
  0
LINE
  5
1310
  8
0
  6
CONTINUOUS
 62
     7
 10
-892.17259988838794
 20
-85.887124651687174
 30
0.0
 11
-892.17259988838794
 21
-79.887124651687174
 31
0.0
  0
LINE
  5
1311
  8
0
  6
CONTINUOUS
 62
     7
 10
-910.9975998883873
 20
-85.887124651687174
 30
0.0
 11
-910.9975998883873
 21
-79.887124651687174
 31
0.0
  0
LINE
  5
1312
  8
0
  6
CONTINUOUS
 62
     7
 10
-907.99759988838741
 20
-81.837124651687148
 30
0.0
 11
-907.99759988838741
 21
-79.887124651687174
 31
0.0
  0
LINE
  5
1314
  8
0
  6
CONTINUOUS
 62
     7
 10
-922.00684988838725
 20
-78.139901401419735
 30
0.0
 11
-917.49759988838673
 21
-78.139901401419735
 31
0.0
  0
LINE
  5
1315
  8
0
  6
CONTINUOUS
 62
     7
 10
-921.81118173242714
 20
-81.892678151152339
 30
0.0
 11
-917.49759988838673
 21
-81.892678151152339
 31
0.0
  0
LINE
  5
1318
  8
0
  6
CONTINUOUS
 62
     7
 10
-912.99759988838753
 20
-79.887124651687174
 30
0.0
 11
-892.17259988838794
 21
-79.887124651687174
 31
0.0
  0
LINE
  5
1319
  8
0
  6
CONTINUOUS
 62
     7
 10
-912.99759988838753
 20
-79.887124651687174
 30
0.0
 11
-912.99759988838753
 21
-78.387124651687174
 31
0.0
  0
LINE
  5
131A
  8
0
  6
CONTINUOUS
 62
     7
 10
-910.9975998883873
 20
-81.837124651687148
 30
0.0
 11
-907.99759988838741
 21
-81.837124651687148
 31
0.0
  0
LINE
  5
131B
  8
0
  6
CONTINUOUS
 62
     7
 10
-892.49759988838753
 20
-78.387124651687174
 30
0.0
 11
-890.76554988838745
 21
-74.387124651687174
 31
0.0
  0
LINE
  5
131C
  8
0
  6
CONTINUOUS
 62
     7
 10
-881.99759988838741
 20
-83.049544651687185
 30
0.0
 11
-877.29759988838748
 21
-83.049544651687185
 31
0.0
  0
LINE
  5
131D
  8
0
  6
CONTINUOUS
 62
     7
 10
-881.99759988838741
 20
-85.349544651687154
 30
0.0
 11
-877.29759988838748
 21
-85.349544651687154
 31
0.0
  0
LINE
  5
131E
  8
0
  6
CONTINUOUS
 62
     7
 10
-881.99759988838741
 20
-85.349544651687154
 30
0.0
 11
-877.29759988838748
 21
-85.349544651687154
 31
0.0
  0
LINE
  5
131F
  8
0
  6
CONTINUOUS
 62
     7
 10
-881.99759988838741
 20
-85.349544651687154
 30
0.0
 11
-881.99759988838741
 21
-83.049544651687185
 31
0.0
  0
ARC
  5
1320
  8
0
  6
CONTINUOUS
 62
     7
 10
-877.29759988838748
 20
-85.849544651687168
 30
0.0
 40
2.799999999999998
 50
0.0
 51
90.000000000000057
  0
ARC
  5
1321
  8
0
  6
CONTINUOUS
 62
     7
 10
-877.29759988838748
 20
-85.849544651687168
 30
0.0
 40
0.5
 50
0.0
 51
90.000000000000057
  0
LINE
  5
1322
  8
0
  6
CONTINUOUS
 62
     7
 10
-913.99759988838741
 20
-99.387124651687202
 30
0.0
 11
-876.79759988838759
 21
-99.387124651687202
 31
0.0
  0
LINE
  5
1323
  8
0
  6
CONTINUOUS
 62
     7
 10
-917.49759988838673
 20
-99.887124651687174
 30
0.0
 11
-914.4975998883873
 21
-101.8871246516869
 31
0.0
  0
LINE
  5
1324
  8
0
  6
CONTINUOUS
 62
     7
 10
-910.9975998883873
 20
-101.8871246516869
 30
0.0
 11
-910.9975998883873
 21
-99.387124651687202
 31
0.0
  0
LINE
  5
1325
  8
0
  6
CONTINUOUS
 62
     7
 10
-914.4975998883873
 20
-101.8871246516869
 30
0.0
 11
-910.9975998883873
 21
-101.8871246516869
 31
0.0
  0
LINE
  5
1326
  8
0
  6
CONTINUOUS
 62
     7
 10
-876.79759988838759
 20
-114.38711765168711
 30
0.0
 11
-874.4975998883873
 21
-114.38711765168711
 31
0.0
  0
POLYLINE
  5
1327
  8
0
  6
CONTINUOUS
 62
     7
 66
     1
 10
0.0
 20
0.0
 30
0.0
 70
     1
  0
VERTEX
  5
1992
  8
0
  6
CONTINUOUS
 62
     7
 10
-989.10553588838729
 20
-70.634347901954612
 30
0.0
  0
VERTEX
  5
1993
  8
0
  6
CONTINUOUS
 62
     7
 10
-995.60553588838741
 20
-66.881571152222037
 30
0.0
  0
VERTEX
  5
1994
  8
0
  6
CONTINUOUS
 62
     7
 10
-1002.105535888387
 20
-70.634347901954598
 30
0.0
  0
VERTEX
  5
1995
  8
0
  6
CONTINUOUS
 62
     7
 10
-1002.105535888387
 20
-78.139901401419735
 30
0.0
  0
VERTEX
  5
1996
  8
0
  6
CONTINUOUS
 62
     7
 10
-995.60553588838741
 20
-81.89267815115231
 30
0.0
  0
VERTEX
  5
1997
  8
0
  6
CONTINUOUS
 62
     7
 10
-989.10553588838729
 20
-78.139901401419735
 30
0.0
  0
SEQEND
  5
1998
  8
0
  6
CONTINUOUS
 62
     7
  0
LINE
  5
132F
  8
0
  6
CONTINUOUS
 62
     7
 10
-875.3003798883874
 20
-64.887124651687174
 30
0.0
 11
-875.3003798883874
 21
-83.887119552071852
 31
0.0
  0
LINE
  5
136E
  8
0
  6
CONTINUOUS
 62
     7
 10
-921.81118173242714
 20
-81.892678151152339
 30
0.0
 11
-922.4975998883873
 21
-80.70378450959781
 31
0.0
  0
ARC
  5
136F
  8
0
  6
CONTINUOUS
 62
     7
 10
-918.4975998883873
 20
-80.059581401419749
 30
0.0
 40
4.0
 50
151.31992000000011
 51
180.0
  0
LINE
  5
14D5
  8
CENTER
  6
CENTER
 62
     1
 10
-1025.6055358883859
 20
-49.983109603820601
 30
0.0
 11
-1025.6055358883859
 21
-38.791139699553462
 31
0.0
  0
LINE
  5
14D6
  8
CENTER
  6
CENTER
 62
     1
 10
-965.60553988838706
 20
-49.983109603820601
 30
0.0
 11
-965.60553988838706
 21
-38.791139699553682
 31
0.0
  0
LINE
  5
14D7
  8
CENTER
  6
CENTER
 62
     1
 10
-1020.009550936253
 20
-104.3871176516875
 30
0.0
 11
-1031.2015208405201
 21
-104.3871176516864
 31
0.0
  0
LINE
  5
14D8
  8
CENTER
  6
CENTER
 62
     1
 10
-965.60553988838728
 20
-109.9831026038207
 30
0.0
 11
-965.60553988838728
 21
-98.791132699553586
 31
0.0
  0
LINE
  5
14EA
  8
0
  6
DASHED
 62
     3
 10
-876.79759988838759
 20
-40.137124651687131
 30
0.0
 11
-874.4975998883873
 21
-40.137124651687131
 31
0.0
  0
LINE
  5
14EC
  8
CENTER
  6
CENTER
 62
     1
 10
-881.17126576182466
 20
-44.387124651687131
 30
0.0
 11
-869.97929585755764
 21
-44.387124651687373
 31
0.0
  0
LINE
  5
14ED
  8
CENTER
  6
CENTER
 62
     1
 10
-881.17125573976455
 20
-104.3871215133493
 30
0.0
 11
-869.97928583549822
 21
-104.3871177744623
 31
0.0
  0
LINE
  5
14EE
  8
0
  6
DASHED
 62
     3
 10
-876.79758844653588
 20
-108.6371200522442
 30
0.0
 11
-874.49758844653593
 21
-108.63711928388619
 31
0.0
  0
LINE
  5
1635
  8
0
  6
DASHED
 62
     3
 10
-876.79759988838759
 20
-48.63712465168733
 30
0.0
 11
-874.4975998883873
 21
-48.637124651687422
 31
0.0
  0
LINE
  5
1643
  8
0
  6
DASHED
 62
     3
 10
-876.79759128611988
 20
-100.1371200522445
 30
0.0
 11
-874.49759128611959
 21
-100.13711928388641
 31
0.0
  0
CIRCLE
  5
1691
  8
0
  6
DASHED
 62
     3
 10
-995.60553588838741
 20
-74.387124651687174
 30
0.0
 40
3.5
  0
ENDSEC
  0
EOF
