  0
SECTION
  2
HEADER
  9
$ACADVER
  1
AC1009
  9
$INSBASE
 10
0.0
 20
0.0
 30
0.0
  9
$EXTMIN
 10
47.144943983695612
 20
34.808807902514047
 30
-0.0000000000112498
  9
$EXTMAX
 10
90.650803063589592
 20
90.003662458625215
 30
0.0000000000002956
  9
$LIMMIN
 10
0.0
 20
0.0
  9
$LIMMAX
 10
297.0
 20
210.0
  9
$ORTHOMODE
 70
     1
  9
$REGENMODE
 70
     1
  9
$FILLMODE
 70
     1
  9
$QTEXTMODE
 70
     0
  9
$MIRRTEXT
 70
     0
  9
$DRAGMODE
 70
     2
  9
$LTSCALE
 40
1.0
  9
$OSMODE
 70
   695
  9
$ATTMODE
 70
     1
  9
$TEXTSIZE
 40
3.0
  9
$TRACEWID
 40
1.0
  9
$TEXTSTYLE
  7
STANDARD
  9
$CLAYER
  8
0
  9
$CELTYPE
  6
CONTINUOUS
  9
$CECOLOR
 62
     7
  9
$DIMSCALE
 40
1.0
  9
$DIMASZ
 40
2.0
  9
$DIMEXO
 40
1.0
  9
$DIMDLI
 40
0.0
  9
$DIMRND
 40
0.0
  9
$DIMDLE
 40
0.0
  9
$DIMEXE
 40
1.0
  9
$DIMTP
 40
0.0
  9
$DIMTM
 40
0.0
  9
$DIMTXT
 40
2.0
  9
$DIMCEN
 40
0.0
  9
$DIMTSZ
 40
0.0
  9
$DIMTOL
 70
     0
  9
$DIMLIM
 70
     0
  9
$DIMTIH
 70
     0
  9
$DIMTOH
 70
     0
  9
$DIMSE1
 70
     0
  9
$DIMSE2
 70
     0
  9
$DIMTAD
 70
     1
  9
$DIMZIN
 70
     8
  9
$DIMBLK
  1

  9
$DIMASO
 70
     1
  9
$DIMSHO
 70
     1
  9
$DIMPOST
  1

  9
$DIMAPOST
  1

  9
$DIMALT
 70
     0
  9
$DIMALTD
 70
     2
  9
$DIMALTF
 40
0.04
  9
$DIMLFAC
 40
1.0
  9
$DIMTOFL
 70
     1
  9
$DIMTVP
 40
1.0
  9
$DIMTIX
 70
     1
  9
$DIMSOXD
 70
     0
  9
$DIMSAH
 70
     0
  9
$DIMBLK1
  1

  9
$DIMBLK2
  1

  9
$DIMSTYLE
  2
MISUMI
  9
$DIMCLRD
 70
   256
  9
$DIMCLRE
 70
   256
  9
$DIMCLRT
 70
   256
  9
$DIMTFAC
 40
0.6
  9
$DIMGAP
 40
1.0
  9
$LUNITS
 70
     2
  9
$LUPREC
 70
     4
  9
$SKETCHINC
 40
1.0
  9
$FILLETRAD
 40
0.0
  9
$AUNITS
 70
     0
  9
$AUPREC
 70
     0
  9
$MENU
  1
.
  9
$ELEVATION
 40
0.0
  9
$PELEVATION
 40
0.0
  9
$THICKNESS
 40
0.0
  9
$LIMCHECK
 70
     0
  9
$BLIPMODE
 70
     0
  9
$CHAMFERA
 40
0.0
  9
$CHAMFERB
 40
0.0
  9
$SKPOLY
 70
     0
  9
$TDCREATE
 40
2454084.6500944439
  9
$TDUPDATE
 40
2454750.5753546529
  9
$TDINDWG
 40
0.0343782523
  9
$TDUSRTIMER
 40
0.0343778935
  9
$USRTIMER
 70
     1
  9
$ANGBASE
 50
0.0
  9
$ANGDIR
 70
     0
  9
$PDMODE
 70
     0
  9
$PDSIZE
 40
0.0
  9
$PLINEWID
 40
0.0
  9
$COORDS
 70
     1
  9
$SPLFRAME
 70
     0
  9
$SPLINETYPE
 70
     6
  9
$SPLINESEGS
 70
     8
  9
$ATTDIA
 70
     0
  9
$ATTREQ
 70
     1
  9
$HANDLING
 70
     1
  9
$HANDSEED
  5
884
  9
$SURFTAB1
 70
     6
  9
$SURFTAB2
 70
     6
  9
$SURFTYPE
 70
     6
  9
$SURFU
 70
     6
  9
$SURFV
 70
     6
  9
$UCSNAME
  2

  9
$UCSORG
 10
0.0
 20
0.0
 30
0.0
  9
$UCSXDIR
 10
1.0
 20
0.0
 30
0.0
  9
$UCSYDIR
 10
0.0
 20
1.0
 30
0.0
  9
$PUCSNAME
  2

  9
$PUCSORG
 10
0.0
 20
0.0
 30
0.0
  9
$PUCSXDIR
 10
1.0
 20
0.0
 30
0.0
  9
$PUCSYDIR
 10
0.0
 20
1.0
 30
0.0
  9
$USERI1
 70
     0
  9
$USERI2
 70
     0
  9
$USERI3
 70
     0
  9
$USERI4
 70
     0
  9
$USERI5
 70
     0
  9
$USERR1
 40
0.0
  9
$USERR2
 40
0.0
  9
$USERR3
 40
0.0
  9
$USERR4
 40
0.0
  9
$USERR5
 40
0.0
  9
$WORLDVIEW
 70
     1
  9
$SHADEDGE
 70
     3
  9
$SHADEDIF
 70
    70
  9
$TILEMODE
 70
     1
  9
$MAXACTVP
 70
    64
  9
$PLIMCHECK
 70
     0
  9
$PEXTMIN
 10
0.0
 20
0.0
 30
0.0
  9
$PEXTMAX
 10
0.0
 20
0.0
 30
0.0
  9
$PLIMMIN
 10
0.0
 20
0.0
  9
$PLIMMAX
 10
12.0
 20
9.0
  9
$UNITMODE
 70
     0
  9
$VISRETAIN
 70
     1
  9
$PLINEGEN
 70
     0
  9
$PSLTSCALE
 70
     0
  0
ENDSEC
  0
SECTION
  2
TABLES
  0
TABLE
  2
VPORT
 70
     1
  0
VPORT
  2
*ACTIVE
 70
     0
 10
0.0
 20
0.0
 11
1.0
 21
1.0
 12
68.897873523642602
 22
62.406235180569631
 13
0.0
 23
0.0
 14
10.0
 24
10.0
 15
10.0
 25
10.0
 16
0.0
 26
0.0
 36
1.0
 17
0.0
 27
0.0
 37
0.0
 40
55.61299739365748
 41
1.4930467762326161
 42
50.0
 43
0.0
 44
0.0
 50
0.0
 51
0.0
 71
     0
 72
  1000
 73
     1
 74
     3
 75
     0
 76
     0
 77
     0
 78
     0
  0
ENDTAB
  0
TABLE
  2
LTYPE
 70
     2
  0
LTYPE
  2
CONTINUOUS
 70
     0
  3
Solid line
 72
    65
 73
     0
 40
0.0
  0
LTYPE
  2
CENTER
 70
     0
  3
Center ____ _ ____ _ ____ _ ____ _ ____ _ ____
 72
    65
 73
     4
 40
2.0
 49
1.25
 49
-0.25
 49
0.25
 49
-0.25
  0
ENDTAB
  0
TABLE
  2
LAYER
 70
     3
  0
LAYER
  2
0
 70
     0
 62
     7
  6
CONTINUOUS
  0
LAYER
  2
CENTER
 70
     0
 62
     1
  6
CENTER
  0
ENDTAB
  0
TABLE
  2
STYLE
 70
     1
  0
STYLE
  2
STANDARD
 70
     0
 40
0.0
 41
1.0
 50
0.0
 71
     0
 42
3.0
  3
txt.shx
  4
extfont.shx
  0
ENDTAB
  0
TABLE
  2
VIEW
 70
     0
  0
ENDTAB
  0
TABLE
  2
UCS
 70
     0
  0
ENDTAB
  0
TABLE
  2
APPID
 70
     1
  0
APPID
  2
ACAD
 70
     0
  0
ENDTAB
  0
TABLE
  2
DIMSTYLE
 70
     2
  0
DIMSTYLE
  2
MISUMI
 70
     0
  3

  4

  5

  6

  7

 40
1.0
 41
2.0
 42
1.0
 43
0.0
 44
1.0
 45
0.0
 46
0.0
 47
0.0
 48
0.0
140
2.0
141
0.0
142
0.0
143
0.04
144
1.0
145
1.0
146
0.6
147
1.0
 71
     0
 72
     0
 73
     0
 74
     0
 75
     0
 76
     0
 77
     1
 78
     8
170
     0
171
     2
172
     1
173
     0
174
     1
175
     0
176
   256
177
   256
178
   256
  0
ENDTAB
  0
ENDSEC
  0
SECTION
  2
BLOCKS
  0
BLOCK
  8
0
  2
$MODEL_SPACE
 70
     0
 10
0.0
 20
0.0
 30
0.0
  3
$MODEL_SPACE
  1

  0
ENDBLK
  5
85F
  8
0
  0
BLOCK
 67
     1
  8
0
  2
$PAPER_SPACE
 70
     0
 10
0.0
 20
0.0
 30
0.0
  3
$PAPER_SPACE
  1

  0
ENDBLK
  5
85B
 67
     1
  8
0
  0
ENDSEC
  0
SECTION
  2
ENTITIES
  0
TEXT
  5
2C8
  8
0
  6
CONTINUOUS
 62
     7
 10
47.159656713990422
 20
39.819069676316253
 30
0.0
 40
3.0
  1
HMH36-25
 11
47.159656713990422
 21
41.319069676316253
 31
0.0
 73
     2
  0
TEXT
  5
2C9
  8
0
  6
CONTINUOUS
 62
     7
 10
47.159656713990422
 20
34.819069676316253
 30
0.0
 40
3.0
  1
HMH3625
 11
47.159656713990422
 21
36.319069676316253
 31
0.0
 73
     2
  0
LINE
  5
554
  8
CENTER
  6
CENTER
 62
     1
 10
73.417198919108941
 20
62.193121864232701
 30
0.0
 11
79.866403346960254
 21
62.193121864232701
 31
0.0
  0
LINE
  5
555
  8
CENTER
  6
CENTER
 62
     1
 10
76.641801133034591
 20
89.996831224052684
 30
0.0
 11
76.641801133034591
 21
50.996831224052698
 31
0.0
  0
LINE
  5
556
  8
CENTER
  6
CENTER
 62
     1
 10
73.417198919108941
 20
78.800540583872689
 30
0.0
 11
79.866403346960254
 21
78.800540583872703
 31
0.0
  0
LINE
  5
55B
  8
CENTER
  6
CENTER
 62
     1
 10
62.641801133034491
 20
70.496831224053665
 30
0.0
 11
90.641801133034704
 21
70.496831224051718
 31
0.0
  0
ARC
  5
76D
  8
0
  6
CONTINUOUS
 62
     7
 10
79.759456997815363
 20
53.879175359272402
 30
0.0
 40
1.5
 50
292.84437373551202
 51
337.15562626438918
  0
ARC
  5
76E
  8
0
  6
CONTINUOUS
 62
     7
 10
73.52414526825379
 20
53.879175359272402
 30
0.0
 40
1.5
 50
202.84437373561079
 51
247.15562626448809
  0
ARC
  5
76F
  8
0
  6
CONTINUOUS
 62
     7
 10
73.52414526825379
 20
87.114487088833016
 30
0.0
 40
1.5
 50
112.84437373551189
 51
157.1556262643891
  0
ARC
  5
770
  8
0
  6
CONTINUOUS
 62
     7
 10
79.759456997815363
 20
87.114487088833016
 30
0.0
 40
1.5
 50
22.844373735610841
 51
67.155626264488063
  0
LINE
  5
771
  8
0
  6
CONTINUOUS
 62
     7
 10
64.141801133034591
 20
74.546831224052426
 30
0.0
 11
64.141801133034363
 21
66.446831224052531
 31
0.0
  0
LINE
  5
772
  8
0
  6
CONTINUOUS
 62
     7
 10
65.141801133034591
 20
73.546831224052426
 30
0.0
 11
65.141801133034363
 21
67.446831224052531
 31
0.0
  0
LINE
  5
773
  8
0
  6
CONTINUOUS
 62
     7
 10
88.141801133034591
 20
73.546831224052426
 30
0.0
 11
88.141801133034377
 21
67.446831224052062
 31
0.0
  0
LINE
  5
774
  8
0
  6
CONTINUOUS
 62
     7
 10
89.141801133034591
 20
74.546831224052426
 30
0.0
 11
89.141801133034818
 21
66.446831224052062
 31
0.0
  0
LINE
  5
775
  8
0
  6
CONTINUOUS
 62
     7
 10
65.141801133034363
 20
67.446831224052531
 30
0.0
 11
64.141801133034363
 21
66.446831224052531
 31
0.0
  0
LINE
  5
776
  8
0
  6
CONTINUOUS
 62
     7
 10
64.141801133034363
 20
66.446831224052531
 30
0.0
 11
64.141801133034591
 21
63.996831224053139
 31
0.0
  0
LINE
  5
777
  8
0
  6
CONTINUOUS
 62
     7
 10
64.141801133034591
 20
74.546831224052426
 30
0.0
 11
65.141801133034591
 21
73.546831224052426
 31
0.0
  0
LINE
  5
778
  8
0
  6
CONTINUOUS
 62
     7
 10
88.141801133034818
 20
67.446831224052062
 30
0.0
 11
89.141801133034818
 21
66.446831224052062
 31
0.0
  0
LINE
  5
779
  8
0
  6
CONTINUOUS
 62
     7
 10
89.141801133034818
 20
66.446831224052062
 30
0.0
 11
89.141801133034591
 21
63.996831224053139
 31
0.0
  0
LINE
  5
77A
  8
0
  6
CONTINUOUS
 62
     7
 10
89.141801133034591
 20
74.546831224052426
 30
0.0
 11
88.141801133034591
 21
73.546831224052426
 31
0.0
  0
LINE
  5
77B
  8
0
  6
CONTINUOUS
 62
     7
 10
78.202871008280766
 20
63.496831224053139
 30
0.0
 11
88.641801133034605
 21
63.496831224053139
 31
0.0
  0
LINE
  5
77C
  8
0
  6
CONTINUOUS
 62
     7
 10
80.341801133034195
 20
52.496831224052698
 30
0.0
 11
72.941801133035455
 21
52.496831224052698
 31
0.0
  0
CIRCLE
  5
77D
  8
0
  6
CONTINUOUS
 62
     7
 10
76.641801133034591
 20
62.193121864232701
 30
0.0
 40
2.033862642924757
  0
LINE
  5
77E
  8
0
  6
CONTINUOUS
 62
     7
 10
80.740825004028764
 20
63.358035639881678
 30
0.0
 11
80.199466360605882
 21
63.358035639881678
 31
0.0
  0
LINE
  5
77F
  8
0
  6
CONTINUOUS
 62
     7
 10
78.277092603134264
 20
60.983816667806082
 30
0.0
 11
79.076049636127522
 21
60.983816667806082
 31
0.0
  0
LINE
  5
780
  8
0
  6
CONTINUOUS
 62
     7
 10
78.420092518023992
 20
63.180176574143488
 30
0.0
 11
79.174331060312255
 21
63.180176574143488
 31
0.0
  0
ARC
  5
781
  8
0
  6
CONTINUOUS
 62
     7
 10
76.641801133034591
 20
62.193121864232701
 30
0.0
 40
2.7180847729448461
 50
333.58236983287372
 51
21.29337265921545
  0
LINE
  5
782
  8
0
  6
CONTINUOUS
 62
     7
 10
79.359885905979894
 20
60.079304709333108
 30
0.0
 11
79.359885905979425
 21
63.496831224052698
 31
0.0
  0
LINE
  5
783
  8
0
  6
CONTINUOUS
 62
     7
 10
79.359885905979894
 20
60.079304709333108
 30
0.0
 11
79.359885905979894
 21
58.914066607426882
 31
0.0
  0
LINE
  5
784
  8
0
  6
CONTINUOUS
 62
     7
 10
79.803080438001047
 20
58.650446945794201
 30
0.0
 11
80.740825004028764
 21
59.15981674566558
 31
0.0
  0
ARC
  5
785
  8
0
  6
CONTINUOUS
 62
     7
 10
79.659885905979863
 20
58.914066607426882
 30
0.0
 40
0.3
 50
180.0
 51
298.51019373193509
  0
LINE
  5
786
  8
0
  6
CONTINUOUS
 62
     7
 10
80.740825004028764
 20
59.15981674566558
 30
0.0
 11
81.141801133034377
 21
58.996515408891007
 31
0.0
  0
LINE
  5
787
  8
0
  6
CONTINUOUS
 62
     7
 10
77.93615646311477
 20
60.624287414783453
 30
0.0
 11
79.359885905979894
 21
60.624287414783907
 31
0.0
  0
LINE
  5
788
  8
0
  6
CONTINUOUS
 62
     7
 10
79.516691373958423
 20
60.090481767633378
 30
0.0
 11
80.042660892627126
 21
60.376181091489002
 31
0.0
  0
LINE
  5
789
  8
0
  6
CONTINUOUS
 62
     7
 10
79.697176251428189
 20
59.746829713454758
 30
0.0
 11
79.697176251428189
 21
58.981694069990787
 31
0.0
  0
LINE
  5
78A
  8
0
  6
CONTINUOUS
 62
     7
 10
79.697176251428189
 20
59.746829713454758
 30
0.0
 11
80.584019536050249
 21
60.228550645540167
 31
0.0
  0
LINE
  5
78B
  8
0
  6
CONTINUOUS
 62
     7
 10
79.697176251428189
 20
58.981694069990787
 30
0.0
 11
80.740825004028295
 21
59.548589550388101
 31
0.0
  0
LINE
  5
78C
  8
0
  6
CONTINUOUS
 62
     7
 10
80.740825004028295
 20
59.548589550388101
 30
0.0
 11
80.740825004028764
 21
59.15981674566558
 31
0.0
  0
ARC
  5
78D
  8
0
  6
CONTINUOUS
 62
     7
 10
80.44082500402881
 20
60.492170307172387
 30
0.0
 40
0.3
 50
298.51019373195732
 51
0.0
  0
LINE
  5
78E
  8
0
  6
CONTINUOUS
 62
     7
 10
80.740825004028764
 20
63.358035639881678
 30
0.0
 11
80.740825004028764
 21
60.492170307172387
 31
0.0
  0
ARC
  5
78F
  8
0
  6
CONTINUOUS
 62
     7
 10
79.659885905979863
 20
59.826862106001158
 30
0.0
 40
0.3
 50
118.5101937319573
 51
180.0
  0
ARC
  5
790
  8
0
  6
CONTINUOUS
 62
     7
 10
79.647326392161261
 20
60.761703206742922
 30
0.0
 40
0.5521926010083492
 50
315.71995121579891
 51
0.7910848196170038
  0
LINE
  5
791
  8
0
  6
CONTINUOUS
 62
     7
 10
80.199466360605882
 20
63.358035639881223
 30
0.0
 11
80.199466360605882
 21
60.769327106947117
 31
0.0
  0
LINE
  5
792
  8
0
  6
CONTINUOUS
 62
     7
 10
73.084135905463285
 20
63.358035639881223
 30
0.0
 11
73.084135905463285
 21
60.769327106947117
 31
0.0
  0
ARC
  5
793
  8
0
  6
CONTINUOUS
 62
     7
 10
73.63627587390792
 20
60.761703206742922
 30
0.0
 40
0.5521926010083492
 50
179.208915180383
 51
224.2800487842012
  0
ARC
  5
794
  8
0
  6
CONTINUOUS
 62
     7
 10
73.623716360089333
 20
59.826862106001158
 30
0.0
 40
0.3
 50
0.0
 51
61.489806268042713
  0
LINE
  5
795
  8
0
  6
CONTINUOUS
 62
     7
 10
72.542777262040403
 20
63.358035639881678
 30
0.0
 11
72.542777262040403
 21
60.492170307172387
 31
0.0
  0
ARC
  5
796
  8
0
  6
CONTINUOUS
 62
     7
 10
72.842777262040343
 20
60.492170307172387
 30
0.0
 40
0.3
 50
180.0
 51
241.48980626804271
  0
LINE
  5
797
  8
0
  6
CONTINUOUS
 62
     7
 10
72.542777262040858
 20
59.548589550388101
 30
0.0
 11
72.542777262040403
 21
59.15981674566558
 31
0.0
  0
LINE
  5
798
  8
0
  6
CONTINUOUS
 62
     7
 10
73.586426014640949
 20
58.981694069990787
 30
0.0
 11
72.542777262040858
 21
59.548589550388101
 31
0.0
  0
LINE
  5
799
  8
0
  6
CONTINUOUS
 62
     7
 10
73.586426014640949
 20
59.746829713454758
 30
0.0
 11
72.699582730018946
 21
60.228550645540167
 31
0.0
  0
LINE
  5
79A
  8
0
  6
CONTINUOUS
 62
     7
 10
73.586426014640949
 20
59.746829713454758
 30
0.0
 11
73.586426014640949
 21
58.981694069990787
 31
0.0
  0
LINE
  5
79B
  8
0
  6
CONTINUOUS
 62
     7
 10
73.766910892110744
 20
60.090481767633378
 30
0.0
 11
73.240941373442055
 21
60.376181091489002
 31
0.0
  0
LINE
  5
79C
  8
0
  6
CONTINUOUS
 62
     7
 10
75.347445802954425
 20
60.624287414783453
 30
0.0
 11
73.923716360089287
 21
60.624287414783907
 31
0.0
  0
LINE
  5
79D
  8
0
  6
CONTINUOUS
 62
     7
 10
72.542777262040403
 20
59.15981674566558
 30
0.0
 11
72.141801133034804
 21
58.996515408891007
 31
0.0
  0
ARC
  5
79E
  8
0
  6
CONTINUOUS
 62
     7
 10
73.623716360089333
 20
58.914066607426882
 30
0.0
 40
0.3
 50
241.48980626806491
 51
0.0
  0
LINE
  5
79F
  8
0
  6
CONTINUOUS
 62
     7
 10
73.48052182806812
 20
58.650446945794201
 30
0.0
 11
72.542777262040403
 21
59.15981674566558
 31
0.0
  0
LINE
  5
7A0
  8
0
  6
CONTINUOUS
 62
     7
 10
73.923716360089287
 20
60.079304709333108
 30
0.0
 11
73.923716360089287
 21
58.914066607426882
 31
0.0
  0
LINE
  5
7A1
  8
0
  6
CONTINUOUS
 62
     7
 10
73.923716360089287
 20
60.079304709333108
 30
0.0
 11
73.923716360089728
 21
63.496831224052698
 31
0.0
  0
ARC
  5
7A2
  8
0
  6
CONTINUOUS
 62
     7
 10
76.641801133034591
 20
62.193121864232701
 30
0.0
 40
2.7180847729448461
 50
158.70662734078451
 51
206.4176301671263
  0
LINE
  5
7A3
  8
0
  6
CONTINUOUS
 62
     7
 10
74.863509748045175
 20
63.180176574143488
 30
0.0
 11
74.10927120575694
 21
63.180176574143488
 31
0.0
  0
LINE
  5
7A4
  8
0
  6
CONTINUOUS
 62
     7
 10
75.006509662934903
 20
60.983816667806082
 30
0.0
 11
74.207552629941659
 21
60.983816667806082
 31
0.0
  0
LINE
  5
7A5
  8
0
  6
CONTINUOUS
 62
     7
 10
72.542777262040403
 20
63.358035639881678
 30
0.0
 11
73.084135905463285
 21
63.358035639881678
 31
0.0
  0
LINE
  5
7A6
  8
0
  6
CONTINUOUS
 62
     7
 10
72.141801133034804
 20
63.496831224052698
 30
0.0
 11
72.141801133034591
 21
53.296831224052418
 31
0.0
  0
LINE
  5
7A7
  8
0
  6
CONTINUOUS
 62
     7
 10
81.141801133034377
 20
63.496831224052237
 30
0.0
 11
81.141801133034377
 21
53.296831224051971
 31
0.0
  0
LINE
  5
7A8
  8
0
  6
CONTINUOUS
 62
     7
 10
72.542777262040403
 20
77.635626808223734
 30
0.0
 11
73.084135905463285
 21
77.635626808223734
 31
0.0
  0
LINE
  5
7A9
  8
0
  6
CONTINUOUS
 62
     7
 10
75.006509662934903
 20
80.009845780299315
 30
0.0
 11
74.207552629941659
 21
80.009845780299315
 31
0.0
  0
LINE
  5
7AA
  8
0
  6
CONTINUOUS
 62
     7
 10
74.863509748045175
 20
77.813485873961881
 30
0.0
 11
74.10927120575694
 21
77.813485873961881
 31
0.0
  0
ARC
  5
7AB
  8
0
  6
CONTINUOUS
 62
     7
 10
76.641801133034591
 20
78.800540583872703
 30
0.0
 40
2.7180847729448461
 50
153.5823698328737
 51
201.29337265921549
  0
LINE
  5
7AC
  8
0
  6
CONTINUOUS
 62
     7
 10
73.923716360089287
 20
80.91435773877231
 30
0.0
 11
73.923716360089728
 21
77.496831224052713
 31
0.0
  0
LINE
  5
7AD
  8
0
  6
CONTINUOUS
 62
     7
 10
73.923716360089287
 20
80.91435773877231
 30
0.0
 11
73.923716360089287
 21
82.079595840678493
 31
0.0
  0
LINE
  5
7AE
  8
0
  6
CONTINUOUS
 62
     7
 10
73.48052182806812
 20
82.343215502311196
 30
0.0
 11
72.542777262040403
 21
81.833845702439817
 31
0.0
  0
ARC
  5
7AF
  8
0
  6
CONTINUOUS
 62
     7
 10
73.623716360089333
 20
82.079595840678493
 30
0.0
 40
0.3
 50
0.0
 51
118.510193731935
  0
LINE
  5
7B0
  8
0
  6
CONTINUOUS
 62
     7
 10
72.542777262040403
 20
81.833845702439817
 30
0.0
 11
72.141801133034804
 21
81.997147039214354
 31
0.0
  0
LINE
  5
7B1
  8
0
  6
CONTINUOUS
 62
     7
 10
75.347445802954425
 20
80.36937503332193
 30
0.0
 11
73.923716360089287
 21
80.369375033321489
 31
0.0
  0
LINE
  5
7B2
  8
0
  6
CONTINUOUS
 62
     7
 10
73.766910892110744
 20
80.903180680472005
 30
0.0
 11
73.240941373442055
 21
80.617481356616338
 31
0.0
  0
LINE
  5
7B3
  8
0
  6
CONTINUOUS
 62
     7
 10
73.586426014640949
 20
81.246832734650624
 30
0.0
 11
73.586426014640949
 21
82.011968378114602
 31
0.0
  0
LINE
  5
7B4
  8
0
  6
CONTINUOUS
 62
     7
 10
73.586426014640949
 20
81.246832734650624
 30
0.0
 11
72.699582730018946
 21
80.765111802565215
 31
0.0
  0
LINE
  5
7B5
  8
0
  6
CONTINUOUS
 62
     7
 10
73.586426014640949
 20
82.011968378114602
 30
0.0
 11
72.542777262040858
 21
81.445072897717296
 31
0.0
  0
LINE
  5
7B6
  8
0
  6
CONTINUOUS
 62
     7
 10
72.542777262040858
 20
81.445072897717296
 30
0.0
 11
72.542777262040403
 21
81.833845702439817
 31
0.0
  0
ARC
  5
7B7
  8
0
  6
CONTINUOUS
 62
     7
 10
72.842777262040343
 20
80.501492140932996
 30
0.0
 40
0.3
 50
118.5101937319573
 51
180.0
  0
LINE
  5
7B8
  8
0
  6
CONTINUOUS
 62
     7
 10
72.542777262040403
 20
77.635626808223734
 30
0.0
 11
72.542777262040403
 21
80.501492140932996
 31
0.0
  0
ARC
  5
7B9
  8
0
  6
CONTINUOUS
 62
     7
 10
73.623716360089333
 20
81.16680034210421
 30
0.0
 40
0.3
 50
298.51019373195732
 51
0.0
  0
ARC
  5
7BA
  8
0
  6
CONTINUOUS
 62
     7
 10
73.63627587390792
 20
80.23195924136246
 30
0.0
 40
0.5521926010083492
 50
135.7199512157988
 51
180.791084819617
  0
LINE
  5
7BB
  8
0
  6
CONTINUOUS
 62
     7
 10
73.084135905463285
 20
77.635626808224188
 30
0.0
 11
73.084135905463285
 21
80.22433534115828
 31
0.0
  0
LINE
  5
7BC
  8
0
  6
CONTINUOUS
 62
     7
 10
77.93615646311477
 20
80.36937503332193
 30
0.0
 11
79.359885905979894
 21
80.369375033321489
 31
0.0
  0
LINE
  5
7BD
  8
0
  6
CONTINUOUS
 62
     7
 10
78.420092518023992
 20
77.813485873961881
 30
0.0
 11
79.174331060312255
 21
77.813485873961881
 31
0.0
  0
LINE
  5
7BE
  8
0
  6
CONTINUOUS
 62
     7
 10
78.277092603134264
 20
80.009845780299315
 30
0.0
 11
79.076049636127522
 21
80.009845780299315
 31
0.0
  0
ARC
  5
7BF
  8
0
  6
CONTINUOUS
 62
     7
 10
76.641801133034591
 20
78.800540583872703
 30
0.0
 40
2.7180847729448461
 50
338.70662734078462
 51
26.417630167126291
  0
LINE
  5
7C0
  8
0
  6
CONTINUOUS
 62
     7
 10
80.740825004028764
 20
77.635626808223734
 30
0.0
 11
80.199466360605882
 21
77.635626808223734
 31
0.0
  0
ARC
  5
7C1
  8
0
  6
CONTINUOUS
 62
     7
 10
80.44082500402881
 20
80.501492140932996
 30
0.0
 40
0.3
 50
0.0
 51
61.489806268042713
  0
LINE
  5
7C2
  8
0
  6
CONTINUOUS
 62
     7
 10
80.740825004028295
 20
81.445072897717296
 30
0.0
 11
80.740825004028764
 21
81.833845702439817
 31
0.0
  0
ARC
  5
7C3
  8
0
  6
CONTINUOUS
 62
     7
 10
79.647326392161261
 20
80.23195924136246
 30
0.0
 40
0.5521926010083492
 50
359.20891518038292
 51
44.280048784201171
  0
LINE
  5
7C4
  8
0
  6
CONTINUOUS
 62
     7
 10
79.359885905979894
 20
80.91435773877231
 30
0.0
 11
79.359885905979425
 21
77.496831224052713
 31
0.0
  0
ARC
  5
7C5
  8
0
  6
CONTINUOUS
 62
     7
 10
79.659885905979863
 20
81.16680034210421
 30
0.0
 40
0.3
 50
180.0
 51
241.48980626804271
  0
LINE
  5
7C6
  8
0
  6
CONTINUOUS
 62
     7
 10
79.516691373958423
 20
80.903180680472005
 30
0.0
 11
80.042660892627126
 21
80.617481356616338
 31
0.0
  0
LINE
  5
7C7
  8
0
  6
CONTINUOUS
 62
     7
 10
79.697176251428189
 20
81.246832734650624
 30
0.0
 11
80.584019536050249
 21
80.765111802565215
 31
0.0
  0
ARC
  5
7C8
  8
0
  6
CONTINUOUS
 62
     7
 10
79.659885905979863
 20
82.079595840678493
 30
0.0
 40
0.3
 50
61.489806268064918
 51
180.0
  0
LINE
  5
7C9
  8
0
  6
CONTINUOUS
 62
     7
 10
79.697176251428189
 20
81.246832734650624
 30
0.0
 11
79.697176251428189
 21
82.011968378114602
 31
0.0
  0
LINE
  5
7CA
  8
0
  6
CONTINUOUS
 62
     7
 10
79.697176251428189
 20
82.011968378114602
 30
0.0
 11
80.740825004028295
 21
81.445072897717296
 31
0.0
  0
LINE
  5
7CB
  8
0
  6
CONTINUOUS
 62
     7
 10
80.740825004028764
 20
81.833845702439817
 30
0.0
 11
81.141801133034377
 21
81.997147039214354
 31
0.0
  0
LINE
  5
7CC
  8
0
  6
CONTINUOUS
 62
     7
 10
79.803080438001047
 20
82.343215502311196
 30
0.0
 11
80.740825004028764
 21
81.833845702439817
 31
0.0
  0
LINE
  5
7CD
  8
0
  6
CONTINUOUS
 62
     7
 10
79.359885905979894
 20
80.91435773877231
 30
0.0
 11
79.359885905979894
 21
82.079595840678493
 31
0.0
  0
LINE
  5
7CE
  8
0
  6
CONTINUOUS
 62
     7
 10
80.199466360605882
 20
77.635626808224188
 30
0.0
 11
80.199466360605882
 21
80.22433534115828
 31
0.0
  0
LINE
  5
7CF
  8
0
  6
CONTINUOUS
 62
     7
 10
80.740825004028764
 20
77.635626808223734
 30
0.0
 11
80.740825004028764
 21
80.501492140932996
 31
0.0
  0
LINE
  5
7D0
  8
0
  6
CONTINUOUS
 62
     7
 10
78.202871008280979
 20
77.496831224052713
 30
0.0
 11
88.641801133034605
 21
77.496831224052244
 31
0.0
  0
CIRCLE
  5
7D1
  8
0
  6
CONTINUOUS
 62
     7
 10
76.641801133034591
 20
78.800540583872703
 30
0.0
 40
2.033862642924757
  0
LINE
  5
7D2
  8
0
  6
CONTINUOUS
 62
     7
 10
80.341801133034366
 20
88.496831224052698
 30
0.0
 11
72.941801133035455
 21
88.496831224052698
 31
0.0
  0
LINE
  5
7D3
  8
0
  6
CONTINUOUS
 62
     7
 10
72.141801133034804
 20
77.496831224052713
 30
0.0
 11
72.141801133034804
 21
87.696831224053426
 31
0.0
  0
LINE
  5
7D4
  8
0
  6
CONTINUOUS
 62
     7
 10
81.141801133034377
 20
77.496831224053153
 30
0.0
 11
81.141801133034377
 21
87.696831224052517
 31
0.0
  0
LINE
  5
7D5
  8
0
  6
CONTINUOUS
 62
     7
 10
88.141801133034818
 20
67.446831224052062
 30
0.0
 11
65.141801133034363
 21
67.446831224052531
 31
0.0
  0
LINE
  5
7D6
  8
0
  6
CONTINUOUS
 62
     7
 10
88.141801133034591
 20
73.546831224052426
 30
0.0
 11
65.141801133034591
 21
73.546831224052426
 31
0.0
  0
LINE
  5
7D7
  8
0
  6
CONTINUOUS
 62
     7
 10
88.641801133034605
 20
63.496831224053139
 30
0.0
 11
89.141801133034591
 21
63.996831224053139
 31
0.0
  0
LINE
  5
7D8
  8
0
  6
CONTINUOUS
 62
     7
 10
88.641801133034605
 20
77.496831224052244
 30
0.0
 11
89.141801133034591
 21
76.996831224052244
 31
0.0
  0
LINE
  5
7D9
  8
0
  6
CONTINUOUS
 62
     7
 10
64.141801133034591
 20
63.996831224053139
 30
0.0
 11
64.641801133034591
 21
63.496831224053139
 31
0.0
  0
LINE
  5
7DA
  8
0
  6
CONTINUOUS
 62
     7
 10
64.641801133034591
 20
77.496831224052713
 30
0.0
 11
64.141801133034591
 21
76.996831224052713
 31
0.0
  0
LINE
  5
7DB
  8
0
  6
CONTINUOUS
 62
     7
 10
64.141801133034591
 20
76.996831224052713
 30
0.0
 11
64.141801133034591
 21
74.546831224052426
 31
0.0
  0
LINE
  5
7DC
  8
0
  6
CONTINUOUS
 62
     7
 10
89.141801133034591
 20
76.996831224052244
 30
0.0
 11
89.141801133034591
 21
74.546831224052426
 31
0.0
  0
LINE
  5
7DD
  8
0
  6
CONTINUOUS
 62
     7
 10
64.641801133034591
 20
63.496831224053139
 30
0.0
 11
75.080731257788415
 21
63.496831224053139
 31
0.0
  0
LINE
  5
7DE
  8
0
  6
CONTINUOUS
 62
     7
 10
64.641801133034591
 20
77.496831224052713
 30
0.0
 11
75.080731257787932
 21
77.496831224052713
 31
0.0
  0
ENDSEC
  0
EOF
