  0
SECTION
  2
HEADER
  9
$ACADVER
  1
AC1009
  9
$INSBASE
 10
0.0
 20
0.0
 30
0.0
  9
$EXTMIN
 10
89.045477311130895
 20
62.272605827067238
 30
0.0
  9
$EXTMAX
 10
295.17903131113093
 20
152.84242707907751
 30
0.0
  9
$LIMMIN
 10
0.0
 20
0.0
  9
$LIMMAX
 10
297.0
 20
210.0
  9
$ORTHOMODE
 70
     1
  9
$REGENMODE
 70
     1
  9
$FILLMODE
 70
     1
  9
$QTEXTMODE
 70
     0
  9
$MIRRTEXT
 70
     1
  9
$DRAGMODE
 70
     2
  9
$LTSCALE
 40
1.0
  9
$OSMODE
 70
    37
  9
$ATTMODE
 70
     1
  9
$TEXTSIZE
 40
6.4000000000000012
  9
$TRACEWID
 40
0.05
  9
$TEXTSTYLE
  7
STANDARD
  9
$CLAYER
  8
0
  9
$CELTYPE
  6
CONTINUOUS
  9
$CECOLOR
 62
     7
  9
$DIMSCALE
 40
1.0
  9
$DIMASZ
 40
3.0
  9
$DIMEXO
 40
1.0
  9
$DIMDLI
 40
0.0
  9
$DIMRND
 40
0.0
  9
$DIMDLE
 40
0.0
  9
$DIMEXE
 40
1.0
  9
$DIMTP
 40
0.0
  9
$DIMTM
 40
0.0
  9
$DIMTXT
 40
3.2000000000000002
  9
$DIMCEN
 40
0.0
  9
$DIMTSZ
 40
0.0
  9
$DIMTOL
 70
     0
  9
$DIMLIM
 70
     0
  9
$DIMTIH
 70
     0
  9
$DIMTOH
 70
     0
  9
$DIMSE1
 70
     0
  9
$DIMSE2
 70
     0
  9
$DIMTAD
 70
     1
  9
$DIMZIN
 70
     8
  9
$DIMBLK
  1

  9
$DIMASO
 70
     1
  9
$DIMSHO
 70
     1
  9
$DIMPOST
  1

  9
$DIMAPOST
  1

  9
$DIMALT
 70
     0
  9
$DIMALTD
 70
     2
  9
$DIMALTF
 40
0.04
  9
$DIMLFAC
 40
1.0
  9
$DIMTOFL
 70
     1
  9
$DIMTVP
 40
1.0
  9
$DIMTIX
 70
     1
  9
$DIMSOXD
 70
     0
  9
$DIMSAH
 70
     0
  9
$DIMBLK1
  1

  9
$DIMBLK2
  1

  9
$DIMSTYLE
  2
MISUMI
  9
$DIMCLRD
 70
     0
  9
$DIMCLRE
 70
     0
  9
$DIMCLRT
 70
     0
  9
$DIMTFAC
 40
0.6
  9
$DIMGAP
 40
1.0
  9
$LUNITS
 70
     2
  9
$LUPREC
 70
     4
  9
$SKETCHINC
 40
0.1
  9
$FILLETRAD
 40
0.3
  9
$AUNITS
 70
     0
  9
$AUPREC
 70
     0
  9
$MENU
  1
acad
  9
$ELEVATION
 40
0.0
  9
$PELEVATION
 40
0.0
  9
$THICKNESS
 40
0.0
  9
$LIMCHECK
 70
     0
  9
$BLIPMODE
 70
     0
  9
$CHAMFERA
 40
0.5
  9
$CHAMFERB
 40
0.5
  9
$SKPOLY
 70
     0
  9
$TDCREATE
 40
2451464.60066493
  9
$TDUPDATE
 40
2455678.6341907978
  9
$TDINDWG
 40
0.2092748495
  9
$TDUSRTIMER
 40
0.209270463
  9
$USRTIMER
 70
     1
  9
$ANGBASE
 50
0.0
  9
$ANGDIR
 70
     0
  9
$PDMODE
 70
     0
  9
$PDSIZE
 40
0.0
  9
$PLINEWID
 40
0.0
  9
$COORDS
 70
     1
  9
$SPLFRAME
 70
     0
  9
$SPLINETYPE
 70
     6
  9
$SPLINESEGS
 70
     8
  9
$ATTDIA
 70
     0
  9
$ATTREQ
 70
     1
  9
$HANDLING
 70
 10241
  9
$HANDSEED
  5
2A4A
  9
$SURFTAB1
 70
     6
  9
$SURFTAB2
 70
     6
  9
$SURFTYPE
 70
     6
  9
$SURFU
 70
     6
  9
$SURFV
 70
     6
  9
$UCSNAME
  2

  9
$UCSORG
 10
0.0
 20
0.0
 30
0.0
  9
$UCSXDIR
 10
1.0
 20
0.0
 30
0.0
  9
$UCSYDIR
 10
0.0
 20
1.0
 30
0.0
  9
$PUCSNAME
  2

  9
$PUCSORG
 10
0.0
 20
0.0
 30
0.0
  9
$PUCSXDIR
 10
1.0
 20
0.0
 30
0.0
  9
$PUCSYDIR
 10
0.0
 20
1.0
 30
0.0
  9
$USERI1
 70
     0
  9
$USERI2
 70
     0
  9
$USERI3
 70
     0
  9
$USERI4
 70
     0
  9
$USERI5
 70
     0
  9
$USERR1
 40
0.0
  9
$USERR2
 40
0.0
  9
$USERR3
 40
0.0
  9
$USERR4
 40
0.0
  9
$USERR5
 40
0.0
  9
$WORLDVIEW
 70
     1
  9
$SHADEDGE
 70
     3
  9
$SHADEDIF
 70
    70
  9
$TILEMODE
 70
     1
  9
$MAXACTVP
 70
    16
  9
$PLIMCHECK
 70
     0
  9
$PEXTMIN
 10
1.0000000000000000E+020
 20
1.0000000000000000E+020
 30
1.0000000000000000E+020
  9
$PEXTMAX
 10
-1.0000000000000000E+020
 20
-1.0000000000000000E+020
 30
-1.0000000000000000E+020
  9
$PLIMMIN
 10
0.0
 20
0.0
  9
$PLIMMAX
 10
12.0
 20
9.0
  9
$UNITMODE
 70
     0
  9
$VISRETAIN
 70
     0
  9
$PLINEGEN
 70
     0
  9
$PSLTSCALE
 70
     1
  0
ENDSEC
  0
SECTION
  2
TABLES
  0
TABLE
  2
VPORT
 70
     2
  0
VPORT
  2
*ACTIVE
 70
     0
 10
0.0
 20
0.0
 11
1.0
 21
1.0
 12
214.3602955033397
 22
122.5030410128898
 13
0.0
 23
0.0
 14
10.0
 24
10.0
 15
10.0
 25
10.0
 16
0.0
 26
0.0
 36
1.0
 17
0.0
 27
0.0
 37
0.0
 40
161.64726115951211
 41
1.5569105691056899
 42
50.0
 43
0.0
 44
0.0
 50
0.0
 51
0.0
 71
     0
 72
   100
 73
     1
 74
     0
 75
     0
 76
     0
 77
     0
 78
     0
  0
ENDTAB
  0
TABLE
  2
LTYPE
 70
     4
  0
LTYPE
  2
CONTINUOUS
 70
     0
  3
Solid line
 72
    65
 73
     0
 40
0.0
  0
LTYPE
  2
CENTER
 70
     0
  3
Center ____ _ ____ _ ____ _ ____ _ ____ _ ____
 72
    65
 73
     4
 40
2.0
 49
1.25
 49
-0.25
 49
0.25
 49
-0.25
  0
LTYPE
  2
DASHED
 70
     0
  3
Dashed __ __ __ __ __ __ __ __ __ __ __ __ __ _
 72
    65
 73
     2
 40
19.050000000000001
 49
12.699999999999999
 49
-6.349999999999997
  0
LTYPE
  2
HIDDEN
 70
     0
  3
_ _ _ _ _ _ _ _ _ _ _ _ _ _ _ _ _ _ _ _ _ _ _
 72
    65
 73
     2
 40
0.375
 49
0.25
 49
-0.125
  0
ENDTAB
  0
TABLE
  2
LAYER
 70
     5
  0
LAYER
  2
0
 70
     0
 62
     7
  6
CONTINUOUS
  0
LAYER
  2
CENTER
 70
     0
 62
     1
  6
CENTER
  0
LAYER
  2
CONTINUOUS
 70
     0
 62
     7
  6
CONTINUOUS
  0
LAYER
  2
DOTTED
 70
     0
 62
     2
  6
HIDDEN
  0
LAYER
  2
THIN
 70
     0
 62
     4
  6
CONTINUOUS
  0
ENDTAB
  0
TABLE
  2
STYLE
 70
     2
  0
STYLE
  2
STANDARD
 70
     0
 40
0.0
 41
1.0
 50
0.0
 71
     0
 42
6.4000000000000012
  3
txt
  4

  0
STYLE
  2
K
 70
     0
 40
0.0
 41
1.0
 50
15.0
 71
     0
 42
6.0
  3
ROMANS
  4
bigfont
  0
ENDTAB
  0
TABLE
  2
VIEW
 70
     0
  0
ENDTAB
  0
TABLE
  2
UCS
 70
     0
  0
ENDTAB
  0
TABLE
  2
APPID
 70
     1
  0
APPID
  2
ACAD
 70
     0
  0
ENDTAB
  0
TABLE
  2
DIMSTYLE
 70
     2
  0
DIMSTYLE
  2
MISUMI
 70
     0
  3

  4

  5

  6

  7

 40
1.0
 41
3.0
 42
1.0
 43
0.0
 44
1.0
 45
0.0
 46
0.0
 47
0.0
 48
0.0
140
3.2000000000000002
141
0.0
142
0.0
143
0.04
144
1.0
145
1.0
146
0.6
147
1.0
 71
     0
 72
     0
 73
     0
 74
     0
 75
     0
 76
     0
 77
     1
 78
     8
170
     0
171
     2
172
     1
173
     0
174
     1
175
     0
176
     0
177
     0
178
     0
  0
DIMSTYLE
  2
STANDARD
 70
     0
  3

  4

  5

  6

  7

 40
1.0
 41
0.18
 42
0.0625
 43
0.38
 44
0.18
 45
0.0
 46
0.0
 47
0.0
 48
0.0
140
0.18
141
0.09
142
0.0
143
25.399999999999999
144
1.0
145
0.0
146
1.0
147
0.09
 71
     0
 72
     0
 73
     1
 74
     1
 75
     0
 76
     0
 77
     0
 78
     0
170
     0
171
     2
172
     0
173
     0
174
     0
175
     0
176
     0
177
     0
178
     0
  0
ENDTAB
  0
ENDSEC
  0
SECTION
  2
BLOCKS
  0
BLOCK
  8
0
  2
$MODEL_SPACE
 70
     0
 10
0.0
 20
0.0
 30
0.0
  3
$MODEL_SPACE
  1

  0
ENDBLK
  5
294C
  8
0
  0
BLOCK
 67
     1
  8
0
  2
$PAPER_SPACE
 70
     0
 10
0.0
 20
0.0
 30
0.0
  3
$PAPER_SPACE
  1

  0
ENDBLK
  5
2948
 67
     1
  8
0
  0
BLOCK
  8
0
  2
_OPEN30
 70
     0
 10
0.0
 20
0.0
 30
0.0
  3
_OPEN30
  1

  0
LINE
  5
2964
  8
0
  6
BYBLOCK
 62
     0
 10
-1.0
 20
0.267949
 30
0.0
 11
0.0
 21
0.0
 31
0.0
  0
LINE
  5
2965
  8
0
  6
BYBLOCK
 62
     0
 10
0.0
 20
0.0
 30
0.0
 11
-1.0
 21
-0.267949
 31
0.0
  0
LINE
  5
2966
  8
0
  6
BYBLOCK
 62
     0
 10
0.0
 20
0.0
 30
0.0
 11
-1.0
 21
0.0
 31
0.0
  0
ENDBLK
  5
2967
  8
0
  0
ENDSEC
  0
SECTION
  2
ENTITIES
  0
TEXT
  5
2968
  8
0
 10
143.61238032212
 20
72.272605827067252
 30
0.0
 40
2.0
  1
CPJLW 90 - 20 - 20
  0
TEXT
  5
2969
  8
0
 10
143.61238032212
 20
62.272605827067252
 30
0.0
 40
2.0
  1
CPJLW90
  0
LINE
  5
296A
  8
CENTER
 10
89.045477311130895
 20
125.0424270790774
 30
0.0
 11
144.6454773111308
 21
125.0424270790774
 31
0.0
  0
LINE
  5
296B
  8
CENTER
 10
116.84547731113091
 20
97.242427079077459
 30
0.0
 11
116.84547731113091
 21
152.84242707907751
 31
0.0
  0
CIRCLE
  5
296C
  8
CONTINUOUS
 10
116.84547731113091
 20
125.0424270790774
 30
0.0
 40
26.800000000000001
  0
ARC
  5
296D
  8
CONTINUOUS
 10
116.84547731113091
 20
125.0424270790774
 30
0.0
 40
10.0
 50
47.457603000000162
 51
12.54239699999955
  0
LINE
  5
296E
  8
CENTER
 10
140.92098331113081
 20
138.94242707907739
 30
0.0
 11
127.06457631113091
 21
130.94242707907739
 31
0.0
  0
LINE
  5
296F
  8
CONTINUOUS
 10
126.4306023111309
 20
134.04050407907741
 30
0.0
 11
129.43060231113091
 21
128.8443510790774
 31
0.0
  0
LINE
  5
2970
  8
CONTINUOUS
 10
126.4306023111309
 20
134.04050407907741
 30
0.0
 11
123.6068323111308
 21
132.41020007907741
 31
0.0
  0
LINE
  5
2971
  8
CONTINUOUS
 10
129.43060231113091
 20
128.8443510790774
 30
0.0
 11
126.6068323111309
 21
127.2140470790774
 31
0.0
  0
LINE
  5
2972
  8
DOTTED
 10
129.43060231113091
 20
128.8443510790774
 30
0.0
 11
141.4090843111309
 21
135.76013107907741
 31
0.0
  0
LINE
  5
2973
  8
DOTTED
 10
129.15985231113081
 20
129.3133040790774
 30
0.0
 11
141.18634331113091
 21
136.2568020790774
 31
0.0
  0
LINE
  5
2974
  8
DOTTED
 10
126.4306023111309
 20
134.04050407907741
 30
0.0
 11
138.4090843111309
 21
140.95628407907739
 31
0.0
  0
LINE
  5
2975
  8
DOTTED
 10
126.7013523111309
 20
133.57155107907741
 30
0.0
 11
138.7278433111309
 21
140.5150490790775
 31
0.0
  0
LINE
  5
2976
  8
CENTER
 10
267.3790313111308
 20
97.242427079077459
 30
0.0
 11
267.3790313111308
 21
152.84242707907751
 31
0.0
  0
LINE
  5
2977
  8
CENTER
 10
295.17903131113093
 20
125.0424270790774
 30
0.0
 11
239.5790313111309
 21
125.0424270790774
 31
0.0
  0
CIRCLE
  5
2978
  8
CONTINUOUS
 10
267.3790313111308
 20
125.0424270790774
 30
0.0
 40
26.800000000000001
  0
LINE
  5
2979
  8
CONTINUOUS
 10
264.3790313111308
 20
137.84242707907751
 30
0.0
 11
264.3790313111308
 21
134.58181907907741
 31
0.0
  0
ARC
  5
297A
  8
CONTINUOUS
 10
267.3790313111308
 20
125.0424270790774
 30
0.0
 40
10.0
 50
107.45760299999981
 51
72.54239700000015
  0
LINE
  5
297B
  8
DOTTED
 10
269.83753131113082
 20
137.84242707907751
 30
0.0
 11
269.83753131113082
 21
151.7294240790774
 31
0.0
  0
LINE
  5
297C
  8
DOTTED
 10
270.3790313111308
 20
137.84242707907751
 30
0.0
 11
270.3790313111308
 21
151.67398807907739
 31
0.0
  0
LINE
  5
297D
  8
DOTTED
 10
264.9205313111309
 20
137.84242707907751
 30
0.0
 11
264.9205313111309
 21
151.7294240790774
 31
0.0
  0
LINE
  5
297E
  8
DOTTED
 10
264.3790313111308
 20
137.84242707907751
 30
0.0
 11
264.3790313111308
 21
151.67398807907739
 31
0.0
  0
LINE
  5
297F
  8
CONTINUOUS
 10
270.3790313111308
 20
137.84242707907751
 30
0.0
 11
270.3790313111308
 21
134.58181907907741
 31
0.0
  0
LINE
  5
2980
  8
CONTINUOUS
 10
270.3790313111308
 20
137.84242707907751
 30
0.0
 11
264.3790313111308
 21
137.84242707907751
 31
0.0
  0
LINE
  5
2981
  8
CONTINUOUS
 10
166.9933553111309
 20
151.84242707907751
 30
0.0
 11
197.99335531113081
 21
151.84242707907751
 31
0.0
  0
LINE
  5
2982
  8
CONTINUOUS
 10
166.9933553111309
 20
98.242427079077459
 30
0.0
 11
186.6933553111308
 21
98.242427079077459
 31
0.0
  0
LINE
  5
2983
  8
CONTINUOUS
 10
220.59335531113081
 20
150.34242707907751
 30
0.0
 11
220.59335531113081
 21
99.742427079077459
 31
0.0
  0
LINE
  5
2984
  8
CONTINUOUS
 10
165.9933553111309
 20
150.34242707907751
 30
0.0
 11
165.9933553111309
 21
99.742427079077459
 31
0.0
  0
LINE
  5
2985
  8
CONTINUOUS
 10
188.59335531113081
 20
98.242427079077459
 30
0.0
 11
188.59335531113081
 21
99.626094079077475
 31
0.0
  0
LINE
  5
2986
  8
CONTINUOUS
 10
199.8933553111309
 20
99.626094079077475
 30
0.0
 11
199.8933553111309
 21
130.3893780790774
 31
0.0
  0
LINE
  5
2987
  8
CONTINUOUS
 10
188.59335531113081
 20
145.1118100790774
 30
0.0
 11
199.8933553111309
 21
145.1118100790774
 31
0.0
  0
LINE
  5
2988
  8
CONTINUOUS
 10
199.8933553111309
 20
130.3893780790774
 30
0.0
 11
188.59335531113081
 21
130.3893780790774
 31
0.0
  0
LINE
  5
2989
  8
CONTINUOUS
 10
188.59335531113081
 20
99.626094079077475
 30
0.0
 11
199.8933553111309
 21
99.626094079077475
 31
0.0
  0
LINE
  5
298A
  8
CONTINUOUS
 10
188.59335531113081
 20
130.3893780790774
 30
0.0
 11
188.59335531113081
 21
145.1118100790774
 31
0.0
  0
LINE
  5
298B
  8
CONTINUOUS
 10
199.8933553111309
 20
145.1118100790774
 30
0.0
 11
199.8933553111309
 21
151.84242707907751
 31
0.0
  0
LINE
  5
298C
  8
CONTINUOUS
 10
197.99335531113081
 20
151.84242707907751
 30
0.0
 11
197.99335531113081
 21
150.4587610790775
 31
0.0
  0
LINE
  5
298D
  8
CONTINUOUS
 10
186.6933553111308
 20
150.4587610790775
 30
0.0
 11
186.6933553111308
 21
119.69547707907751
 31
0.0
  0
LINE
  5
298E
  8
CONTINUOUS
 10
197.99335531113081
 20
150.4587610790775
 30
0.0
 11
186.6933553111308
 21
150.4587610790775
 31
0.0
  0
LINE
  5
298F
  8
CONTINUOUS
 10
186.6933553111308
 20
119.69547707907751
 30
0.0
 11
197.99335531113081
 21
119.69547707907751
 31
0.0
  0
LINE
  5
2990
  8
CONTINUOUS
 10
186.6933553111308
 20
104.97304507907739
 30
0.0
 11
197.99335531113081
 21
104.97304507907739
 31
0.0
  0
LINE
  5
2991
  8
CONTINUOUS
 10
197.99335531113081
 20
119.69547707907751
 30
0.0
 11
197.99335531113081
 21
104.97304507907739
 31
0.0
  0
LINE
  5
2992
  8
CONTINUOUS
 10
186.6933553111308
 20
104.97304507907739
 30
0.0
 11
186.6933553111308
 21
98.242427079077459
 31
0.0
  0
LINE
  5
2993
  8
CONTINUOUS
 10
187.6933553111308
 20
129.5424270790775
 30
0.0
 11
187.6933553111308
 21
120.5424270790774
 31
0.0
  0
LINE
  5
2994
  8
CONTINUOUS
 10
198.8933553111309
 20
129.5424270790775
 30
0.0
 11
198.8933553111309
 21
120.5424270790774
 31
0.0
  0
LINE
  5
2995
  8
CONTINUOUS
 10
198.8933553111309
 20
129.5424270790775
 30
0.0
 11
187.6933553111308
 21
129.5424270790775
 31
0.0
  0
LINE
  5
2996
  8
CONTINUOUS
 10
198.8933553111309
 20
120.5424270790774
 30
0.0
 11
187.6933553111308
 21
120.5424270790774
 31
0.0
  0
LINE
  5
2997
  8
CONTINUOUS
 10
198.8933553111309
 20
145.67238607907751
 30
0.0
 11
187.6933553111308
 21
145.67238607907751
 31
0.0
  0
LINE
  5
2998
  8
CONTINUOUS
 10
198.8933553111309
 20
150.1723860790774
 30
0.0
 11
187.6933553111308
 21
150.1723860790774
 31
0.0
  0
LINE
  5
2999
  8
CONTINUOUS
 10
198.8933553111309
 20
150.1723860790774
 30
0.0
 11
198.8933553111309
 21
145.67238607907751
 31
0.0
  0
LINE
  5
299A
  8
CONTINUOUS
 10
187.6933553111308
 20
150.1723860790774
 30
0.0
 11
187.6933553111308
 21
145.67238607907751
 31
0.0
  0
LINE
  5
299B
  8
CONTINUOUS
 10
187.6933553111308
 20
99.912469079077511
 30
0.0
 11
187.6933553111308
 21
104.4124690790775
 31
0.0
  0
LINE
  5
299C
  8
CONTINUOUS
 10
198.8933553111309
 20
104.4124690790775
 30
0.0
 11
187.6933553111308
 21
104.4124690790775
 31
0.0
  0
LINE
  5
299D
  8
CONTINUOUS
 10
198.8933553111309
 20
99.912469079077511
 30
0.0
 11
187.6933553111308
 21
99.912469079077511
 31
0.0
  0
LINE
  5
299E
  8
CONTINUOUS
 10
198.8933553111309
 20
99.912469079077511
 30
0.0
 11
198.8933553111309
 21
104.4124690790775
 31
0.0
  0
LINE
  5
299F
  8
CENTER
 10
209.3933553111309
 20
136.8424270790774
 30
0.0
 11
209.3933553111309
 21
152.84242707907751
 31
0.0
  0
LINE
  5
29A0
  8
DOTTED
 10
212.3933553111309
 20
137.84242707907751
 30
0.0
 11
212.3933553111309
 21
151.84242707907751
 31
0.0
  0
LINE
  5
29A1
  8
DOTTED
 10
211.85185531113081
 20
137.84242707907751
 30
0.0
 11
211.85185531113081
 21
151.84242707907751
 31
0.0
  0
LINE
  5
29A2
  8
DOTTED
 10
206.3933553111309
 20
137.84242707907751
 30
0.0
 11
206.3933553111309
 21
151.84242707907751
 31
0.0
  0
LINE
  5
29A3
  8
DOTTED
 10
206.9348553111308
 20
137.84242707907751
 30
0.0
 11
206.9348553111308
 21
151.84242707907751
 31
0.0
  0
LINE
  5
29A4
  8
DOTTED
 10
199.8933553111309
 20
134.58181907907741
 30
0.0
 11
220.59335531113081
 21
134.58181907907741
 31
0.0
  0
LINE
  5
29A5
  8
DOTTED
 10
199.8933553111309
 20
115.0424270790775
 30
0.0
 11
220.59335531113081
 21
115.0424270790775
 31
0.0
  0
LINE
  5
29A6
  8
DOTTED
 10
199.8933553111309
 20
137.84242707907751
 30
0.0
 11
220.59335531113081
 21
137.84242707907751
 31
0.0
  0
LINE
  5
29A7
  8
DOTTED
 10
199.8933553111309
 20
145.1118100790774
 30
0.0
 11
199.8933553111309
 21
130.3893780790774
 31
0.0
  0
LINE
  5
29A8
  8
DOTTED
 10
165.9933553111309
 20
135.04242707907741
 30
0.0
 11
186.6933553111308
 21
135.04242707907741
 31
0.0
  0
LINE
  5
29A9
  8
DOTTED
 10
165.9933553111309
 20
115.0424270790775
 30
0.0
 11
186.6933553111308
 21
115.0424270790775
 31
0.0
  0
LINE
  5
29AA
  8
DOTTED
 10
186.6933553111308
 20
119.69547707907751
 30
0.0
 11
186.6933553111308
 21
104.97304507907739
 31
0.0
  0
LINE
  5
29AB
  8
CENTER
 10
173.1933553111308
 20
138.44242707907739
 30
0.0
 11
181.1933553111308
 21
138.44242707907739
 31
0.0
  0
LINE
  5
29AC
  8
CENTER
 10
177.1933553111308
 20
134.76013107907741
 30
0.0
 11
177.1933553111308
 21
141.95628407907739
 31
0.0
  0
POLYLINE
  5
29AD
  8
THIN
 66
     1
 10
0.0
 20
0.0
 30
0.0
  0
VERTEX
  5
2A0A
  8
THIN
 10
180.1933553111308
 20
138.44242707907739
 30
0.0
 42
0.135892
  0
VERTEX
  5
2A0B
  8
THIN
 10
179.87663731113091
 20
139.56665807907751
 30
0.0
 42
0.084
  0
VERTEX
  5
2A0C
  8
THIN
 10
179.31467531113091
 20
140.21999207907751
 30
0.0
 42
0.075195
  0
VERTEX
  5
2A0D
  8
THIN
 10
178.5349963111309
 20
140.6908880790775
 30
0.0
 42
0.099118
  0
VERTEX
  5
2A0E
  8
THIN
 10
177.1933553111308
 20
140.95628307907751
 30
0.0
 42
0.099118
  0
VERTEX
  5
2A0F
  8
THIN
 10
175.85171431113091
 20
140.6908880790775
 30
0.0
 42
0.075195
  0
VERTEX
  5
2A10
  8
THIN
 10
175.0720353111308
 20
140.21999207907751
 30
0.0
 42
0.084
  0
VERTEX
  5
2A11
  8
THIN
 10
174.5100733111309
 20
139.56665807907751
 30
0.0
 42
0.135892
  0
VERTEX
  5
2A12
  8
THIN
 10
174.1933553111308
 20
138.44242707907739
 30
0.0
 42
0.135892
  0
SEQEND
  5
2A13
  8
THIN
  0
POLYLINE
  5
29B8
  8
THIN
 66
     1
 10
0.0
 20
0.0
 30
0.0
  0
VERTEX
  5
2A14
  8
THIN
 10
174.1933553111308
 20
138.44242707907739
 30
0.0
 42
0.128517
  0
VERTEX
  5
2A15
  8
THIN
 10
174.5100733111309
 20
137.24286707907751
 30
0.0
 42
0.08303
  0
VERTEX
  5
2A16
  8
THIN
 10
175.0720353111308
 20
136.5457570790775
 30
0.0
 42
0.077376
  0
VERTEX
  5
2A17
  8
THIN
 10
175.85171431113091
 20
136.04330807907741
 30
0.0
 42
0.105215
  0
VERTEX
  5
2A18
  8
THIN
 10
177.1933553111308
 20
135.7601300790775
 30
0.0
 42
0.105215
  0
VERTEX
  5
2A19
  8
THIN
 10
178.5349963111309
 20
136.04330807907741
 30
0.0
 42
0.077376
  0
VERTEX
  5
2A1A
  8
THIN
 10
179.31467531113091
 20
136.5457570790775
 30
0.0
 42
0.08303
  0
VERTEX
  5
2A1B
  8
THIN
 10
179.87663731113091
 20
137.24286707907751
 30
0.0
 42
0.128517
  0
VERTEX
  5
2A1C
  8
THIN
 10
180.1933553111308
 20
138.44242707907739
 30
0.0
 42
0.128517
  0
VERTEX
  5
2A1D
  8
THIN
 10
180.1933553111308
 20
138.44242707907739
 30
0.0
 42
0.128517
  0
SEQEND
  5
2A1E
  8
THIN
  0
POLYLINE
  5
29C4
  8
CONTINUOUS
 66
     1
 10
0.0
 20
0.0
 30
0.0
  0
VERTEX
  5
2A1F
  8
CONTINUOUS
 10
179.6518553111309
 20
138.44242707907739
 30
0.0
 42
0.135192
  0
VERTEX
  5
2A20
  8
CONTINUOUS
 10
179.39230431113091
 20
139.36933107907751
 30
0.0
 42
0.083924
  0
VERTEX
  5
2A21
  8
CONTINUOUS
 10
178.93177731113079
 20
139.90799207907739
 30
0.0
 42
0.075407
  0
VERTEX
  5
2A22
  8
CONTINUOUS
 10
178.2928303111309
 20
140.2962360790774
 30
0.0
 42
0.099675
  0
VERTEX
  5
2A23
  8
CONTINUOUS
 10
177.1933553111308
 20
140.5150480790775
 30
0.0
 42
0.099675
  0
VERTEX
  5
2A24
  8
CONTINUOUS
 10
176.0938803111309
 20
140.2962360790774
 30
0.0
 42
0.075407
  0
VERTEX
  5
2A25
  8
CONTINUOUS
 10
175.4549333111309
 20
139.90799207907739
 30
0.0
 42
0.083924
  0
VERTEX
  5
2A26
  8
CONTINUOUS
 10
174.9944063111308
 20
139.36933107907751
 30
0.0
 42
0.135192
  0
VERTEX
  5
2A27
  8
CONTINUOUS
 10
174.7348553111309
 20
138.44242707907739
 30
0.0
 42
0.135192
  0
SEQEND
  5
2A28
  8
CONTINUOUS
  0
POLYLINE
  5
29CF
  8
CONTINUOUS
 66
     1
 10
0.0
 20
0.0
 30
0.0
  0
VERTEX
  5
2A29
  8
CONTINUOUS
 10
174.7348553111309
 20
138.44242707907739
 30
0.0
 42
0.129156
  0
VERTEX
  5
2A2A
  8
CONTINUOUS
 10
174.9944063111308
 20
137.46498507907739
 30
0.0
 42
0.083129
  0
VERTEX
  5
2A2B
  8
CONTINUOUS
 10
175.4549333111309
 20
136.89695607907751
 30
0.0
 42
0.077192
  0
VERTEX
  5
2A2C
  8
CONTINUOUS
 10
176.0938803111309
 20
136.48754407907751
 30
0.0
 42
0.104666
  0
VERTEX
  5
2A2D
  8
CONTINUOUS
 10
177.1933553111308
 20
136.25680107907741
 30
0.0
 42
0.104666
  0
VERTEX
  5
2A2E
  8
CONTINUOUS
 10
178.2928303111309
 20
136.48754407907751
 30
0.0
 42
0.077192
  0
VERTEX
  5
2A2F
  8
CONTINUOUS
 10
178.93177731113079
 20
136.89695607907751
 30
0.0
 42
0.083129
  0
VERTEX
  5
2A30
  8
CONTINUOUS
 10
179.39230431113091
 20
137.46498507907739
 30
0.0
 42
0.129156
  0
VERTEX
  5
2A31
  8
CONTINUOUS
 10
179.6518553111309
 20
138.44242707907739
 30
0.0
 42
0.129156
  0
VERTEX
  5
2A32
  8
CONTINUOUS
 10
179.6518553111309
 20
138.44242707907739
 30
0.0
 42
0.129156
  0
SEQEND
  5
2A33
  8
CONTINUOUS
  0
POLYLINE
  5
29DB
  8
THIN
 66
     1
 10
0.0
 20
0.0
 30
0.0
  0
VERTEX
  5
2A34
  8
THIN
 10
206.3933553111309
 20
151.84242707907751
 30
0.0
 42
0.099231
  0
VERTEX
  5
2A35
  8
THIN
 10
206.7100733111308
 20
151.76709807907741
 30
0.0
 42
0.013002
  0
VERTEX
  5
2A36
  8
THIN
 10
207.27203531113079
 20
151.72332107907741
 30
0.0
 42
0.006843
  0
VERTEX
  5
2A37
  8
THIN
 10
208.05171431113081
 20
151.6917690790774
 30
0.0
 42
0.006895
  0
VERTEX
  5
2A38
  8
THIN
 10
209.3933553111309
 20
151.67398607907751
 30
0.0
 42
0.006895
  0
VERTEX
  5
2A39
  8
THIN
 10
210.7349963111308
 20
151.6917690790774
 30
0.0
 42
0.006843
  0
VERTEX
  5
2A3A
  8
THIN
 10
211.5146753111309
 20
151.72332107907741
 30
0.0
 42
0.013002
  0
VERTEX
  5
2A3B
  8
THIN
 10
212.0766373111309
 20
151.76709807907741
 30
0.0
 42
0.099231
  0
VERTEX
  5
2A3C
  8
THIN
 10
212.3933553111309
 20
151.84242707907751
 30
0.0
 42
0.099231
  0
VERTEX
  5
2A3D
  8
THIN
 10
212.3933553111309
 20
151.84242707907751
 30
0.0
 42
0.099231
  0
SEQEND
  5
2A3E
  8
THIN
  0
POLYLINE
  5
29E7
  8
CONTINUOUS
 66
     1
 10
0.0
 20
0.0
 30
0.0
  0
VERTEX
  5
2A3F
  8
CONTINUOUS
 10
206.9348553111308
 20
151.84242707907751
 30
0.0
 42
0.082275
  0
VERTEX
  5
2A40
  8
CONTINUOUS
 10
207.1944063111309
 20
151.7918910790774
 30
0.0
 42
0.010664
  0
VERTEX
  5
2A41
  8
CONTINUOUS
 10
207.6549333111308
 20
151.7625220790774
 30
0.0
 42
0.005605
  0
VERTEX
  5
2A42
  8
CONTINUOUS
 10
208.29388031113081
 20
151.74135407907741
 30
0.0
 42
0.005645
  0
VERTEX
  5
2A43
  8
CONTINUOUS
 10
209.3933553111309
 20
151.7294250790774
 30
0.0
 42
0.005645
  0
VERTEX
  5
2A44
  8
CONTINUOUS
 10
210.4928303111308
 20
151.74135407907741
 30
0.0
 42
0.005605
  0
VERTEX
  5
2A45
  8
CONTINUOUS
 10
211.1317773111308
 20
151.7625220790774
 30
0.0
 42
0.010664
  0
VERTEX
  5
2A46
  8
CONTINUOUS
 10
211.5923043111309
 20
151.7918910790774
 30
0.0
 42
0.082275
  0
VERTEX
  5
2A47
  8
CONTINUOUS
 10
211.85185531113081
 20
151.84242707907751
 30
0.0
 42
0.082275
  0
VERTEX
  5
2A48
  8
CONTINUOUS
 10
211.85185531113081
 20
151.84242707907751
 30
0.0
 42
0.082275
  0
SEQEND
  5
2A49
  8
CONTINUOUS
  0
LINE
  5
29F3
  8
CONTINUOUS
 10
211.85185531113081
 20
151.84242707907751
 30
0.0
 11
219.59335531113081
 21
151.84242707907751
 31
0.0
  0
LINE
  5
29F4
  8
DOTTED
 10
165.9933553111309
 20
135.04242707907741
 30
0.0
 11
186.6933553111308
 21
135.04242707907741
 31
0.0
  0
LINE
  5
29F5
  8
DOTTED
 10
165.9933553111309
 20
134.04050407907741
 30
0.0
 11
186.6933553111308
 21
134.04050407907741
 31
0.0
  0
LINE
  5
29F6
  8
DOTTED
 10
165.9933553111309
 20
132.41020007907741
 30
0.0
 11
186.6933553111308
 21
132.41020007907741
 31
0.0
  0
LINE
  5
29F7
  8
DOTTED
 10
165.9933553111309
 20
128.8443510790774
 30
0.0
 11
186.6933553111308
 21
128.8443510790774
 31
0.0
  0
LINE
  5
29F8
  8
DOTTED
 10
165.9933553111309
 20
127.2140470790774
 30
0.0
 11
186.6933553111308
 21
127.2140470790774
 31
0.0
  0
LINE
  5
29F9
  8
CONTINUOUS
 10
166.9933553111309
 20
151.84242707907751
 30
0.0
 11
165.9933553111309
 21
150.34242707907751
 31
0.0
  0
LINE
  5
29FA
  8
CONTINUOUS
 10
166.9933553111309
 20
98.242427079077459
 30
0.0
 11
165.9933553111309
 21
99.742427079077459
 31
0.0
  0
LINE
  5
29FB
  8
CONTINUOUS
 10
219.59335531113081
 20
98.242427079077459
 30
0.0
 11
220.59335531113081
 21
99.742427079077459
 31
0.0
  0
LINE
  5
29FC
  8
CONTINUOUS
 10
219.59335531113081
 20
151.84242707907751
 30
0.0
 11
220.59335531113081
 21
150.34242707907751
 31
0.0
  0
LINE
  5
29FD
  8
CONTINUOUS
 10
166.9933553111309
 20
151.84242707907751
 30
0.0
 11
166.9933553111309
 21
98.242427079077459
 31
0.0
  0
LINE
  5
29FE
  8
CONTINUOUS
 10
219.59335531113081
 20
98.242427079077459
 30
0.0
 11
219.59335531113081
 21
151.84242707907751
 31
0.0
  0
LINE
  5
29FF
  8
CONTINUOUS
 10
199.8933553111309
 20
151.84242707907751
 30
0.0
 11
206.9348553111308
 21
151.84242707907751
 31
0.0
  0
LINE
  5
2A00
  8
CONTINUOUS
 10
188.59335531113081
 20
98.242427079077459
 30
0.0
 11
219.59335531113081
 21
98.242427079077459
 31
0.0
  0
LINE
  5
2A01
  8
CENTER
 10
221.59335531113081
 20
125.0424270790774
 30
0.0
 11
164.9933553111309
 21
125.0424270790774
 31
0.0
  0
CIRCLE
  5
2A02
  8
CONTINUOUS
 10
116.84547731113091
 20
125.0424270790774
 30
0.0
 40
25.300000000000001
  0
CIRCLE
  5
2A03
  8
CONTINUOUS
 10
267.3790313111308
 20
125.0424270790774
 30
0.0
 40
25.300000000000001
  0
ENDSEC
  0
EOF
