  0
SECTION
  2
HEADER
  9
$ACADVER
  1
AC1009
  9
$INSBASE
 10
0.0
 20
0.0
 30
0.0
  9
$EXTMIN
 10
-367.33605787542638
 20
-22.340850142842871
 30
-0.0015258207003583
  9
$EXTMAX
 10
541.17224347104411
 20
67.360034271344091
 30
0.0000000349246037
  9
$LIMMIN
 10
0.0
 20
0.0
  9
$LIMMAX
 10
74.25
 20
52.5
  9
$ORTHOMODE
 70
     1
  9
$REGENMODE
 70
     1
  9
$FILLMODE
 70
     1
  9
$QTEXTMODE
 70
     0
  9
$MIRRTEXT
 70
     1
  9
$DRAGMODE
 70
     2
  9
$LTSCALE
 40
1.0
  9
$OSMODE
 70
   695
  9
$ATTMODE
 70
     1
  9
$TEXTSIZE
 40
4.0
  9
$TRACEWID
 40
1.0
  9
$TEXTSTYLE
  7
STANDARD
  9
$CLAYER
  8
0
  9
$CELTYPE
  6
CONTINUOUS
  9
$CECOLOR
 62
     7
  9
$DIMSCALE
 40
1.0
  9
$DIMASZ
 40
3.0
  9
$DIMEXO
 40
1.0
  9
$DIMDLI
 40
0.0
  9
$DIMRND
 40
0.0
  9
$DIMDLE
 40
0.0
  9
$DIMEXE
 40
1.0
  9
$DIMTP
 40
0.0
  9
$DIMTM
 40
0.0
  9
$DIMTXT
 40
3.2000000000000002
  9
$DIMCEN
 40
0.0
  9
$DIMTSZ
 40
0.0
  9
$DIMTOL
 70
     0
  9
$DIMLIM
 70
     0
  9
$DIMTIH
 70
     0
  9
$DIMTOH
 70
     0
  9
$DIMSE1
 70
     0
  9
$DIMSE2
 70
     0
  9
$DIMTAD
 70
     1
  9
$DIMZIN
 70
     8
  9
$DIMBLK
  1

  9
$DIMASO
 70
     1
  9
$DIMSHO
 70
     1
  9
$DIMPOST
  1

  9
$DIMAPOST
  1

  9
$DIMALT
 70
     0
  9
$DIMALTD
 70
     2
  9
$DIMALTF
 40
0.04
  9
$DIMLFAC
 40
1.0
  9
$DIMTOFL
 70
     1
  9
$DIMTVP
 40
1.0
  9
$DIMTIX
 70
     1
  9
$DIMSOXD
 70
     0
  9
$DIMSAH
 70
     0
  9
$DIMBLK1
  1

  9
$DIMBLK2
  1

  9
$DIMSTYLE
  2
MISUMI
  9
$DIMCLRD
 70
     0
  9
$DIMCLRE
 70
     0
  9
$DIMCLRT
 70
     0
  9
$DIMTFAC
 40
0.6
  9
$DIMGAP
 40
1.0
  9
$LUNITS
 70
     2
  9
$LUPREC
 70
     2
  9
$SKETCHINC
 40
1.0
  9
$FILLETRAD
 40
0.0
  9
$AUNITS
 70
     0
  9
$AUPREC
 70
     0
  9
$MENU
  1
acad
  9
$ELEVATION
 40
0.0
  9
$PELEVATION
 40
0.0
  9
$THICKNESS
 40
0.0
  9
$LIMCHECK
 70
     0
  9
$BLIPMODE
 70
     0
  9
$CHAMFERA
 40
0.0
  9
$CHAMFERB
 40
0.0
  9
$SKPOLY
 70
     0
  9
$TDCREATE
 40
2451466.6332496409
  9
$TDUPDATE
 40
2454749.7891931492
  9
$TDINDWG
 40
0.371020162
  9
$TDUSRTIMER
 40
0.3710175926
  9
$USRTIMER
 70
     1
  9
$ANGBASE
 50
0.0
  9
$ANGDIR
 70
     0
  9
$PDMODE
 70
     1
  9
$PDSIZE
 40
0.0
  9
$PLINEWID
 40
0.0
  9
$COORDS
 70
     1
  9
$SPLFRAME
 70
     0
  9
$SPLINETYPE
 70
     6
  9
$SPLINESEGS
 70
     8
  9
$ATTDIA
 70
     0
  9
$ATTREQ
 70
     1
  9
$HANDLING
 70
     1
  9
$HANDSEED
  5
1311
  9
$SURFTAB1
 70
     6
  9
$SURFTAB2
 70
     6
  9
$SURFTYPE
 70
     6
  9
$SURFU
 70
     6
  9
$SURFV
 70
     6
  9
$UCSNAME
  2

  9
$UCSORG
 10
0.0
 20
0.0
 30
0.0
  9
$UCSXDIR
 10
1.0
 20
0.0
 30
0.0
  9
$UCSYDIR
 10
0.0
 20
1.0
 30
0.0
  9
$PUCSNAME
  2

  9
$PUCSORG
 10
0.0
 20
0.0
 30
0.0
  9
$PUCSXDIR
 10
1.0
 20
0.0
 30
0.0
  9
$PUCSYDIR
 10
0.0
 20
1.0
 30
0.0
  9
$USERI1
 70
     0
  9
$USERI2
 70
     0
  9
$USERI3
 70
     0
  9
$USERI4
 70
     0
  9
$USERI5
 70
     0
  9
$USERR1
 40
0.0
  9
$USERR2
 40
0.0
  9
$USERR3
 40
0.0
  9
$USERR4
 40
0.0
  9
$USERR5
 40
0.0
  9
$WORLDVIEW
 70
     1
  9
$SHADEDGE
 70
     3
  9
$SHADEDIF
 70
    70
  9
$TILEMODE
 70
     1
  9
$MAXACTVP
 70
    16
  9
$PLIMCHECK
 70
     0
  9
$PEXTMIN
 10
1.0000000000000000E+020
 20
1.0000000000000000E+020
 30
1.0000000000000000E+020
  9
$PEXTMAX
 10
-1.0000000000000000E+020
 20
-1.0000000000000000E+020
 30
-1.0000000000000000E+020
  9
$PLIMMIN
 10
0.0
 20
0.0
  9
$PLIMMAX
 10
420.0
 20
297.0
  9
$UNITMODE
 70
     0
  9
$VISRETAIN
 70
     0
  9
$PLINEGEN
 70
     0
  9
$PSLTSCALE
 70
     0
  0
ENDSEC
  0
SECTION
  2
TABLES
  0
TABLE
  2
VPORT
 70
     1
  0
VPORT
  2
*ACTIVE
 70
     0
 10
0.0
 20
0.0
 11
1.0
 21
1.0
 12
86.918092797808868
 22
22.509592064250629
 13
0.0
 23
0.0
 14
10.0
 24
10.0
 15
0.0
 25
0.0
 16
0.0
 26
0.0
 36
1.0
 17
0.0
 27
0.0
 37
0.0
 40
611.58036725156114
 41
1.4930467762326161
 42
50.0
 43
0.0
 44
0.0
 50
0.0
 51
0.0
 71
     0
 72
   100
 73
     1
 74
     0
 75
     0
 76
     0
 77
     0
 78
     1
  0
ENDTAB
  0
TABLE
  2
LTYPE
 70
     3
  0
LTYPE
  2
CONTINUOUS
 70
     0
  3
Solid line
 72
    65
 73
     0
 40
0.0
  0
LTYPE
  2
CENTER
 70
     0
  3
Center ____ _ ____ _ ____ _ ____ _ ____ _ ____
 72
    65
 73
     4
 40
2.0
 49
1.25
 49
-0.25
 49
0.25
 49
-0.25
  0
LTYPE
  2
DASHED
 70
     0
  3
Dashed __ __ __ __ __ __ __ __ __ __ __ __ __ _
 72
    65
 73
     2
 40
0.75
 49
0.5
 49
-0.25
  0
ENDTAB
  0
TABLE
  2
LAYER
 70
     4
  0
LAYER
  2
0
 70
     0
 62
     7
  6
CONTINUOUS
  0
LAYER
  2
CENTER
 70
     0
 62
     1
  6
CENTER
  0
ENDTAB
  0
TABLE
  2
STYLE
 70
     1
  0
STYLE
  2
STANDARD
 70
     0
 40
0.0
 41
1.0
 50
0.0
 71
     0
 42
4.0
  3
txt
  4

  0
ENDTAB
  0
TABLE
  2
VIEW
 70
     0
  0
ENDTAB
  0
TABLE
  2
UCS
 70
     0
  0
ENDTAB
  0
TABLE
  2
APPID
 70
     3
  0
APPID
  2
ACAD
 70
     0
  0
APPID
  2
ACAD_EXEMPT_FROM_CAD_STANDARDS
 70
     0
  0
APPID
  2
ACAECLAYERSTANDARD
 70
     0
  0
ENDTAB
  0
TABLE
  2
DIMSTYLE
 70
     1
  0
DIMSTYLE
  2
MISUMI
 70
     0
  3

  4

  5

  6

  7

 40
1.0
 41
3.0
 42
1.0
 43
0.0
 44
1.0
 45
0.0
 46
0.0
 47
0.0
 48
0.0
140
3.2000000000000002
141
0.0
142
0.0
143
0.04
144
1.0
145
1.0
146
0.6
147
1.0
 71
     0
 72
     0
 73
     0
 74
     0
 75
     0
 76
     0
 77
     1
 78
     8
170
     0
171
     2
172
     1
173
     0
174
     1
175
     0
176
     0
177
     0
178
     0
  0
ENDTAB
  0
ENDSEC
  0
SECTION
  2
BLOCKS
  0
BLOCK
  8
0
  2
$MODEL_SPACE
 70
     0
 10
0.0
 20
0.0
 30
0.0
  3
$MODEL_SPACE
  1

  0
ENDBLK
  5
F86
  8
0
  0
BLOCK
 67
     1
  8
0
  2
$PAPER_SPACE
 70
     0
 10
0.0
 20
0.0
 30
0.0
  3
$PAPER_SPACE
  1

  0
ENDBLK
  5
F82
 67
     1
  8
0
  0
BLOCK
  8
0
 62
     7
  2
*U10
 70
     1
 10
0.0
 20
0.0
 30
0.0
  3
*U10
  1

  0
TEXT
  5
12F2
  8
0
  6
CONTINUOUS
 62
     0
 10
-382.15680456050433
 20
23.18615699522595
 30
0.0
 40
3.2000000000000002
  1
45
 50
90.0
  0
ENDBLK
  5
12F4
  8
0
 62
     7
  0
BLOCK
  8
0
 62
     7
  2
*U11
 70
     1
 10
0.0
 20
0.0
 30
0.0
  3
*U11
  1

  0
TEXT
  5
12F6
  8
0
  6
CONTINUOUS
 62
     0
 10
-394.61648963802543
 20
23.452823661892619
 30
0.0
 40
3.2000000000000002
  1
60
 50
90.0
  0
ENDBLK
  5
12F8
  8
0
 62
     7
  0
BLOCK
  8
0
 62
     7
  2
*U12
 70
     1
 10
0.0
 20
0.0
 30
0.0
  3
*U12
  1

  0
TEXT
  5
12FA
  8
0
  6
CONTINUOUS
 62
     0
 10
33.473077590230297
 20
96.756144896404052
 30
0.0
 40
3.2000000000000002
  1
800
  0
ENDBLK
  5
12FC
  8
0
 62
     7
  0
BLOCK
  8
0
 62
     7
  2
*U13
 70
     1
 10
0.0
 20
0.0
 30
0.0
  3
*U13
  1

  0
TEXT
  5
12FE
  8
0
  6
CONTINUOUS
 62
     0
 10
-357.42692240976959
 20
83.006244805470473
 30
0.0
 40
3.2000000000000002
  1
15
  0
ENDBLK
  5
1300
  8
0
 62
     7
  0
BLOCK
  8
0
 62
     7
  2
*U14
 70
     1
 10
0.0
 20
0.0
 30
0.0
  3
*U14
  1

  0
TEXT
  5
1302
  8
0
  6
CONTINUOUS
 62
     0
 10
-410.81853531830251
 20
23.452823661892609
 30
0.0
 40
3.2000000000000002
  1
80
 50
90.0
  0
ENDBLK
  5
1304
  8
0
 62
     7
  0
BLOCK
  8
0
 62
     7
  2
*U15
 70
     1
 10
0.0
 20
0.0
 30
0.0
  3
*U15
  1

  0
TEXT
  5
1306
  8
0
  6
CONTINUOUS
 62
     0
 10
-399.13739710977552
 20
23.18615699522595
 30
0.0
 40
3.2000000000000002
  1
72
 50
90.0
  0
ENDBLK
  5
1308
  8
0
 62
     7
  0
BLOCK
  8
0
 62
     7
  2
*U16
 70
     1
 10
0.0
 20
0.0
 30
0.0
  3
*U16
  1

  0
TEXT
  5
130A
  8
0
  6
CONTINUOUS
 62
     0
 10
-387.493981511112
 20
21.052823661892621
 30
0.0
 40
3.2000000000000002
  1
68.6
 50
90.0
  0
ENDBLK
  5
130C
  8
0
 62
     7
  0
BLOCK
  8
0
 62
     7
  2
*U17
 70
     1
 10
0.0
 20
0.0
 30
0.0
  3
*U17
  1

  0
TEXT
  5
130E
  8
0
  6
CONTINUOUS
 62
     0
 10
-376.79462594550392
 20
23.186156995225939
 30
0.0
 40
3.2000000000000002
  1
25
 50
90.0
  0
ENDBLK
  5
1310
  8
0
 62
     7
  0
ENDSEC
  0
SECTION
  2
ENTITIES
  0
TEXT
  5
D1
  8
0
  6
CONTINUOUS
 62
     7
 10
31.745039508659151
 20
-18.587118333359971
 30
0.0
 40
1.0
  1
ROLNT80-25-L800
  0
TEXT
  5
D2
  8
0
  6
CONTINUOUS
 62
     7
 10
31.745039508659151
 20
-22.33711833335996
 30
0.0
 40
1.0
  1
ROLNT80
  0
LINE
  5
B1F
  8
CENTER
  6
CENTER
 62
     1
 10
459.64309202751662
 20
25.852823661892671
 30
0.0
 11
539.64309202751656
 21
25.852823661892678
 31
0.0
  0
LINE
  5
CA1
  8
0
  6
CONTINUOUS
 62
     7
 10
-362.79358907643638
 20
65.852823661892671
 30
0.0
 11
-362.79358907643638
 21
-14.147176338107331
 31
0.0
  0
LINE
  5
CA8
  8
0
  6
DASHED
 62
     3
 10
-347.79358907643632
 20
38.352823661892671
 30
0.0
 11
-362.79358907643638
 21
38.352823661892671
 31
0.0
  0
LINE
  5
CAA
  8
0
  6
DASHED
 62
     3
 10
-347.79358907643632
 20
61.852823661892678
 30
0.0
 11
-347.79358907643632
 21
-10.147176338107331
 31
0.0
  0
LINE
  5
CB0
  8
0
  6
DASHED
 62
     3
 10
-359.29358907643649
 20
38.352823661892671
 30
0.0
 11
-359.29358907643638
 21
65.852823661892671
 31
0.0
  0
LINE
  5
CB1
  8
0
  6
DASHED
 62
     3
 10
-358.66858907643649
 20
38.352823661892671
 30
0.0
 11
-358.66858907643632
 21
65.852823661892671
 31
0.0
  0
LINE
  5
CB2
  8
0
  6
DASHED
 62
     3
 10
-351.91858907643638
 20
38.352823661892671
 30
0.0
 11
-351.9185890764366
 21
65.852823661892671
 31
0.0
  0
LINE
  5
CB3
  8
0
  6
DASHED
 62
     3
 10
-351.29358907643638
 20
38.352823661892671
 30
0.0
 11
-351.2935890764366
 21
65.852823661892671
 31
0.0
  0
LINE
  5
D06
  8
0
  6
DASHED
 62
     3
 10
422.20641092356362
 20
60.152823661892683
 30
0.0
 11
-347.79358907643632
 21
60.152823661892647
 31
0.0
  0
LINE
  5
D07
  8
0
  6
DASHED
 62
     3
 10
-347.79358907643632
 20
61.852823661892671
 30
0.0
 11
-362.79358907643638
 21
61.852823661892671
 31
0.0
  0
LINE
  5
DBB
  8
0
  6
CONTINUOUS
 62
     7
 10
437.20641092356362
 20
65.852823661892671
 30
0.0
 11
-362.79358907643638
 21
65.852823661892671
 31
0.0
  0
LINE
  5
DC1
  8
CENTER
  6
CENTER
 62
     1
 10
499.64309202751679
 20
-15.64717633810732
 30
0.0
 11
499.64309202751679
 21
67.352823661892671
 31
0.0
  0
LINE
  5
E78
  8
0
  6
DASHED
 62
     3
 10
502.64309202751667
 20
37.987484761404268
 30
0.0
 11
502.64309202751662
 21
65.740165012250955
 31
0.0
  0
LINE
  5
E79
  8
0
  6
DASHED
 62
     3
 10
502.1015920275168
 20
38.108670338071349
 30
0.0
 11
502.1015920275168
 21
65.777199395897583
 31
0.0
  0
LINE
  5
E7A
  8
0
  6
DASHED
 62
     3
 10
497.18459202751671
 20
38.108670338071349
 30
0.0
 11
497.18459202751689
 21
65.777199395897597
 31
0.0
  0
LINE
  5
E7B
  8
0
  6
DASHED
 62
     3
 10
496.64309202751667
 20
37.987484761404282
 30
0.0
 11
496.64309202751667
 21
65.740165012250955
 31
0.0
  0
LINE
  5
E7C
  8
0
  6
DASHED
 62
     3
 10
487.50843092800523
 20
22.852823661892629
 30
0.0
 11
459.75575067715852
 21
22.852823661892771
 31
0.0
  0
LINE
  5
E7D
  8
0
  6
DASHED
 62
     3
 10
487.38724535133809
 20
23.394323661892599
 30
0.0
 11
459.71871629351182
 21
23.394323661892599
 31
0.0
  0
LINE
  5
E7E
  8
0
  6
DASHED
 62
     3
 10
487.38724535133809
 20
28.311323661892619
 30
0.0
 11
459.71871629351182
 21
28.311323661892441
 31
0.0
  0
LINE
  5
E7F
  8
0
  6
DASHED
 62
     3
 10
487.50843092800511
 20
28.852823661892621
 30
0.0
 11
459.75575067715852
 21
28.852823661892479
 31
0.0
  0
LINE
  5
F00
  8
0
  6
CONTINUOUS
 62
     7
 10
437.20641092356362
 20
-14.147176338107331
 30
0.0
 11
-362.79358907643638
 21
-14.147176338107331
 31
0.0
  0
LINE
  5
F01
  8
0
  6
DASHED
 62
     3
 10
-347.79358907643632
 20
-10.147176338107331
 30
0.0
 11
-362.79358907643638
 21
-10.147176338107331
 31
0.0
  0
LINE
  5
F02
  8
0
  6
DASHED
 62
     3
 10
422.20641092356351
 20
-8.4471763381073455
 30
0.0
 11
-347.79358907643632
 21
-8.4471763381073117
 31
0.0
  0
LINE
  5
F03
  8
0
  6
DASHED
 62
     3
 10
-347.79358907643632
 20
13.352823661892661
 30
0.0
 11
-362.79358907643638
 21
13.352823661892661
 31
0.0
  0
LINE
  5
FAD
  8
CENTER
  6
CENTER
 62
     1
 10
-367.29358907643632
 20
25.852823661892671
 30
0.0
 11
438.70641092356368
 21
25.852823661892671
 31
0.0
  0
CIRCLE
  5
FDB
  8
0
  6
CONTINUOUS
 62
     7
 10
499.64309202751679
 20
25.852823661892678
 30
0.0
 40
12.5
  0
CIRCLE
  5
108C
  8
0
  6
CONTINUOUS
 62
     3
 10
-355.29358907643638
 20
25.852823661892671
 30
0.0
 40
4.0
  0
CIRCLE
  5
108D
  8
0
  6
CONTINUOUS
 62
     7
 10
-355.29358907643638
 20
25.852823661892671
 30
0.0
 40
3.375
  0
LINE
  5
108E
  8
CENTER
  6
CENTER
 62
     1
 10
-355.29358907643638
 20
67.352823661892643
 30
0.0
 11
-355.29358907643638
 21
20.996100979147059
 31
0.0
  0
LINE
  5
10A3
  8
0
  6
CONTINUOUS
 62
     7
 10
437.20641092356362
 20
65.852823661892671
 30
0.0
 11
437.20641092356362
 21
-14.147176338107331
 31
0.0
  0
LINE
  5
10A4
  8
0
  6
DASHED
 62
     3
 10
422.20641092356362
 20
38.352823661892671
 30
0.0
 11
437.20641092356362
 21
38.352823661892671
 31
0.0
  0
LINE
  5
10A5
  8
0
  6
DASHED
 62
     3
 10
422.20641092356362
 20
61.852823661892678
 30
0.0
 11
422.20641092356351
 21
-10.147176338107331
 31
0.0
  0
LINE
  5
10A6
  8
0
  6
DASHED
 62
     3
 10
433.70641092356368
 20
38.352823661892671
 30
0.0
 11
433.70641092356351
 21
65.852823661892671
 31
0.0
  0
LINE
  5
10A7
  8
0
  6
DASHED
 62
     3
 10
433.08141092356362
 20
38.352823661892671
 30
0.0
 11
433.0814109235634
 21
65.852823661892671
 31
0.0
  0
LINE
  5
10A8
  8
0
  6
DASHED
 62
     3
 10
426.33141092356351
 20
38.352823661892671
 30
0.0
 11
426.33141092356351
 21
65.852823661892671
 31
0.0
  0
LINE
  5
10A9
  8
0
  6
DASHED
 62
     3
 10
425.70641092356368
 20
38.352823661892671
 30
0.0
 11
425.70641092356379
 21
65.852823661892671
 31
0.0
  0
LINE
  5
10AA
  8
0
  6
DASHED
 62
     3
 10
422.20641092356362
 20
61.852823661892671
 30
0.0
 11
437.20641092356362
 21
61.852823661892671
 31
0.0
  0
LINE
  5
10AB
  8
0
  6
DASHED
 62
     3
 10
422.20641092356351
 20
-10.147176338107331
 30
0.0
 11
437.20641092356362
 21
-10.147176338107331
 31
0.0
  0
LINE
  5
10AC
  8
0
  6
DASHED
 62
     3
 10
422.20641092356351
 20
13.352823661892661
 30
0.0
 11
437.20641092356362
 21
13.352823661892661
 31
0.0
  0
CIRCLE
  5
10AD
  8
0
  6
CONTINUOUS
 62
     3
 10
429.70641092356368
 20
25.852823661892671
 30
0.0
 40
4.0
  0
CIRCLE
  5
10AE
  8
0
  6
CONTINUOUS
 62
     7
 10
429.70641092356368
 20
25.852823661892671
 30
0.0
 40
3.375
  0
LINE
  5
10AF
  8
CENTER
  6
CENTER
 62
     1
 10
429.70641092356368
 20
67.352823661892643
 30
0.0
 11
429.70641092356368
 21
20.996100979147059
 31
0.0
  0
CIRCLE
  5
10B0
  8
0
  6
CONTINUOUS
 62
     7
 10
499.64309202751679
 20
25.852823661892678
 30
0.0
 40
40.0
  0
CIRCLE
  5
10B2
  8
0
  6
CONTINUOUS
 62
     7
 10
499.64309202751679
 20
25.852823661892678
 30
0.0
 40
36.5
  0
CIRCLE
  5
10B3
  8
0
  6
DASHED
 62
     3
 10
499.64309202751679
 20
25.852823661892678
 30
0.0
 40
34.299999999999997
  0
LINE
  5
111D
  8
CENTER
  6
CENTER
 62
     1
 10
539.64309202751656
 20
25.852823661892678
 30
0.0
 11
541.14309202751679
 21
25.852823661892678
 31
0.0
  0
LINE
  5
111E
  8
CENTER
  6
CENTER
 62
     1
 10
459.64309202751662
 20
25.852823661892671
 30
0.0
 11
458.14309202751679
 21
25.852823661892671
 31
0.0
  0
ENDSEC
  0
EOF
