  0
SECTION
  2
HEADER
  9
$ACADVER
  1
AC1009
  9
$INSBASE
 10
0.0
 20
0.0
 30
0.0
  9
$EXTMIN
 10
-115.8831587453169
 20
-145.81868735473361
 30
0.0
  9
$EXTMAX
 10
244.26631749063381
 20
101.8186873547336
 30
0.0
  9
$LIMMIN
 10
0.0
 20
0.0
  9
$LIMMAX
 10
420.0
 20
297.0
  9
$ORTHOMODE
 70
     1
  9
$REGENMODE
 70
     1
  9
$FILLMODE
 70
     1
  9
$QTEXTMODE
 70
     0
  9
$MIRRTEXT
 70
     0
  9
$DRAGMODE
 70
     2
  9
$LTSCALE
 40
1.0
  9
$OSMODE
 70
  3071
  9
$ATTMODE
 70
     1
  9
$TEXTSIZE
 40
3.0
  9
$TRACEWID
 40
1.0
  9
$TEXTSTYLE
  7
STANDARD
  9
$CLAYER
  8
0
  9
$CELTYPE
  6
CONTINUOUS
  9
$CECOLOR
 62
     7
  9
$DIMSCALE
 40
1.0
  9
$DIMASZ
 40
2.5
  9
$DIMEXO
 40
0.625
  9
$DIMDLI
 40
3.75
  9
$DIMRND
 40
0.0
  9
$DIMDLE
 40
0.0
  9
$DIMEXE
 40
1.25
  9
$DIMTP
 40
0.0
  9
$DIMTM
 40
0.0
  9
$DIMTXT
 40
2.5
  9
$DIMCEN
 40
2.5
  9
$DIMTSZ
 40
0.0
  9
$DIMTOL
 70
     0
  9
$DIMLIM
 70
     0
  9
$DIMTIH
 70
     0
  9
$DIMTOH
 70
     0
  9
$DIMSE1
 70
     0
  9
$DIMSE2
 70
     0
  9
$DIMTAD
 70
     1
  9
$DIMZIN
 70
     8
  9
$DIMBLK
  1
OPEN30
  9
$DIMASO
 70
     1
  9
$DIMSHO
 70
     1
  9
$DIMPOST
  1

  9
$DIMAPOST
  1

  9
$DIMALT
 70
     0
  9
$DIMALTD
 70
     3
  9
$DIMALTF
 40
0.03937007874016
  9
$DIMLFAC
 40
1.0
  9
$DIMTOFL
 70
     1
  9
$DIMTVP
 40
0.0
  9
$DIMTIX
 70
     0
  9
$DIMSOXD
 70
     0
  9
$DIMSAH
 70
     0
  9
$DIMBLK1
  1

  9
$DIMBLK2
  1

  9
$DIMSTYLE
  2
MISUMI
  9
$DIMCLRD
 70
   137
  9
$DIMCLRE
 70
   137
  9
$DIMCLRT
 70
   137
  9
$DIMTFAC
 40
1.0
  9
$DIMGAP
 40
0.625
  9
$LUNITS
 70
     2
  9
$LUPREC
 70
     2
  9
$SKETCHINC
 40
1.0
  9
$FILLETRAD
 40
0.0
  9
$AUNITS
 70
     0
  9
$AUPREC
 70
     0
  9
$MENU
  1
.
  9
$ELEVATION
 40
0.0
  9
$PELEVATION
 40
0.0
  9
$THICKNESS
 40
0.0
  9
$LIMCHECK
 70
     0
  9
$BLIPMODE
 70
     0
  9
$CHAMFERA
 40
0.5
  9
$CHAMFERB
 40
0.5
  9
$SKPOLY
 70
     0
  9
$TDCREATE
 40
2455135.5720697101
  9
$TDUPDATE
 40
2455330.7847540742
  9
$TDINDWG
 40
0.0633514699
  9
$TDUSRTIMER
 40
0.0633512847
  9
$USRTIMER
 70
     1
  9
$ANGBASE
 50
0.0
  9
$ANGDIR
 70
     0
  9
$PDMODE
 70
    35
  9
$PDSIZE
 40
0.0
  9
$PLINEWID
 40
0.0
  9
$COORDS
 70
     2
  9
$SPLFRAME
 70
     0
  9
$SPLINETYPE
 70
     6
  9
$SPLINESEGS
 70
     8
  9
$ATTDIA
 70
     0
  9
$ATTREQ
 70
     1
  9
$HANDLING
 70
 22529
  9
$HANDSEED
  5
12E8
  9
$SURFTAB1
 70
     6
  9
$SURFTAB2
 70
     6
  9
$SURFTYPE
 70
     6
  9
$SURFU
 70
     6
  9
$SURFV
 70
     6
  9
$UCSNAME
  2

  9
$UCSORG
 10
0.0
 20
0.0
 30
0.0
  9
$UCSXDIR
 10
1.0
 20
0.0
 30
0.0
  9
$UCSYDIR
 10
0.0
 20
1.0
 30
0.0
  9
$PUCSNAME
  2

  9
$PUCSORG
 10
0.0
 20
0.0
 30
0.0
  9
$PUCSXDIR
 10
1.0
 20
0.0
 30
0.0
  9
$PUCSYDIR
 10
0.0
 20
1.0
 30
0.0
  9
$USERI1
 70
     0
  9
$USERI2
 70
     0
  9
$USERI3
 70
     0
  9
$USERI4
 70
     0
  9
$USERI5
 70
     0
  9
$USERR1
 40
0.0
  9
$USERR2
 40
0.0
  9
$USERR3
 40
0.0
  9
$USERR4
 40
0.0
  9
$USERR5
 40
0.0
  9
$WORLDVIEW
 70
     1
  9
$SHADEDGE
 70
     3
  9
$SHADEDIF
 70
    70
  9
$TILEMODE
 70
     1
  9
$MAXACTVP
 70
    64
  9
$PLIMCHECK
 70
     0
  9
$PEXTMIN
 10
0.0
 20
0.0
 30
0.0
  9
$PEXTMAX
 10
0.0
 20
0.0
 30
0.0
  9
$PLIMMIN
 10
0.0
 20
0.0
  9
$PLIMMAX
 10
12.0
 20
9.0
  9
$UNITMODE
 70
     0
  9
$VISRETAIN
 70
     1
  9
$PLINEGEN
 70
     0
  9
$PSLTSCALE
 70
     1
  0
ENDSEC
  0
SECTION
  2
TABLES
  0
TABLE
  2
VPORT
 70
     2
  0
VPORT
  2
*ACTIVE
 70
     0
 10
0.0
 20
0.0
 11
1.0
 21
1.0
 12
91.728702390468143
 22
-21.997686644069631
 13
0.0
 23
0.0
 14
10.0
 24
10.0
 15
10.0
 25
10.0
 16
0.0
 26
0.0
 36
1.0
 17
0.0
 27
0.0
 37
0.0
 40
272.1155503236173
 41
1.302295918367347
 42
50.0
 43
0.0
 44
0.0
 50
0.0
 51
0.0
 71
     0
 72
  1000
 73
     1
 74
     3
 75
     0
 76
     0
 77
     0
 78
     0
  0
ENDTAB
  0
TABLE
  2
LTYPE
 70
     4
  0
LTYPE
  2
CONTINUOUS
 70
     0
  3
Solid line
 72
    65
 73
     0
 40
0.0
  0
LTYPE
  2
CENTER
 70
     0
  3
Center ____ _ ____ _ ____ _ ____ _ ____ _ ____
 72
    65
 73
     4
 40
50.799999999999997
 49
31.75
 49
-6.3499999999999988
 49
6.3499999999999988
 49
-6.3499999999999988
  0
LTYPE
  2
DASHED
 70
     0
  3
Dashed __ __ __ __ __ __ __ __ __ __ __ __ __ _
 72
    65
 73
     2
 40
19.04999999999999
 49
12.699999999999999
 49
-6.3499999999999988
  0
ENDTAB
  0
TABLE
  2
LAYER
 70
     3
  0
LAYER
  2
0
 70
     0
 62
     7
  6
CONTINUOUS
  0
LAYER
  2
CENTER
 70
     0
 62
     1
  6
CENTER
  0
LAYER
  2
DEFPOINTS
 70
     0
 62
     7
  6
CONTINUOUS
  0
ENDTAB
  0
TABLE
  2
STYLE
 70
     2
  0
STYLE
  2
STANDARD
 70
     0
 40
3.0
 41
1.0
 50
0.0
 71
     0
 42
3.0
  3
txt.shx
  4
bigfont.shx
  0
STYLE
  2
CONVERTER_2
 70
     0
 40
0.0
 41
0.9
 50
0.0
 71
     0
 42
0.2
  3
txt.shx
  4

  0
ENDTAB
  0
TABLE
  2
VIEW
 70
     0
  0
ENDTAB
  0
TABLE
  2
UCS
 70
     0
  0
ENDTAB
  0
TABLE
  2
APPID
 70
     1
  0
APPID
  2
ACAD
 70
     0
  0
ENDTAB
  0
TABLE
  2
DIMSTYLE
 70
     1
  0
DIMSTYLE
  2
MISUMI
 70
     0
  3

  4

  5
OPEN30
  6

  7

 40
1.0
 41
2.5
 42
0.625
 43
3.75
 44
1.25
 45
0.0
 46
0.0
 47
0.0
 48
0.0
140
2.5
141
2.5
142
0.0
143
0.03937007874016
144
1.0
145
0.0
146
1.0
147
0.625
 71
     0
 72
     0
 73
     0
 74
     0
 75
     0
 76
     0
 77
     1
 78
     8
170
     0
171
     3
172
     1
173
     0
174
     0
175
     0
176
   137
177
   137
178
   137
  0
ENDTAB
  0
ENDSEC
  0
SECTION
  2
BLOCKS
  0
BLOCK
  8
0
  2
$MODEL_SPACE
 70
     0
 10
0.0
 20
0.0
 30
0.0
  3
$MODEL_SPACE
  1

  0
ENDBLK
  5
21
  8
0
  0
BLOCK
 67
     1
  8
0
  2
$PAPER_SPACE
 70
     0
 10
0.0
 20
0.0
 30
0.0
  3
$PAPER_SPACE
  1

  0
ENDBLK
  5
53
 67
     1
  8
0
  0
BLOCK
  8
0
 62
     7
  2
_OPEN30
 70
     0
 10
0.0
 20
0.0
 30
0.0
  3
_OPEN30
  1

  0
LINE
  5
D7
  8
0
  6
BYBLOCK
 62
     0
 10
-1.0
 20
0.26794919
 30
0.0
 11
0.0
 21
0.0
 31
0.0
  0
LINE
  5
D8
  8
0
  6
BYBLOCK
 62
     0
 10
0.0
 20
0.0
 30
0.0
 11
-1.0
 21
-0.26794919
 31
0.0
  0
LINE
  5
D9
  8
0
  6
BYBLOCK
 62
     0
 10
0.0
 20
0.0
 30
0.0
 11
-1.0
 21
0.0
 31
0.0
  0
ENDBLK
  5
DB
  8
0
 62
     7
  0
ENDSEC
  0
SECTION
  2
ENTITIES
  0
LINE
  5
F39
  8
CENTER
  6
CENTER
 62
     1
 10
0.0000000000000817
 20
-145.81868735473361
 30
0.0
 11
0.0000000000000036
 21
-101.8186873547336
 31
0.0
  0
LINE
  5
F3A
  8
0
  6
CONTINUOUS
 62
     7
 10
25.000000000000082
 20
-143.8186873547337
 30
0.0
 11
-24.999999999999918
 21
-143.81868735473341
 31
0.0
  0
LINE
  5
F3B
  8
0
  6
CONTINUOUS
 62
     7
 10
-25.0
 20
-103.8186873547334
 30
0.0
 11
25.0
 21
-103.8186873547337
 31
0.0
  0
LINE
  5
F3C
  8
0
  6
CONTINUOUS
 62
     7
 10
-24.999999999999972
 20
-119.9823906598898
 30
0.0
 11
-31.999999999999929
 21
-119.9823906598898
 31
0.0
  0
LINE
  5
F3D
  8
0
  6
CONTINUOUS
 62
     7
 10
-24.999999999999972
 20
-119.5827889698715
 30
0.0
 11
-31.999999999999929
 21
-119.5827889698715
 31
0.0
  0
LINE
  5
F3E
  8
0
  6
CONTINUOUS
 62
     7
 10
-24.999999999999972
 20
-118.94711447947979
 30
0.0
 11
-31.999999999999929
 21
-118.94711447947979
 31
0.0
  0
LINE
  5
F3F
  8
0
  6
CONTINUOUS
 62
     7
 10
-24.999999999999972
 20
-118.11868735473369
 30
0.0
 11
-31.999999999999929
 21
-118.11868735473369
 31
0.0
  0
LINE
  5
F40
  8
0
  6
CONTINUOUS
 62
     7
 10
-24.999999999999972
 20
-117.1539635351438
 30
0.0
 11
-31.999999999999929
 21
-117.1539635351438
 31
0.0
  0
LINE
  5
F41
  8
0
  6
CONTINUOUS
 62
     7
 10
-31.999999999999929
 20
-116.11868735473369
 30
0.0
 11
-24.999999999999972
 21
-116.11868735473369
 31
0.0
  0
LINE
  5
F42
  8
0
  6
CONTINUOUS
 62
     7
 10
-31.999999999999929
 20
-115.0834111743235
 30
0.0
 11
-24.999999999999972
 21
-115.0834111743235
 31
0.0
  0
LINE
  5
F43
  8
0
  6
CONTINUOUS
 62
     7
 10
-31.999999999999929
 20
-114.11868735473369
 30
0.0
 11
-24.999999999999972
 21
-114.11868735473369
 31
0.0
  0
LINE
  5
F44
  8
0
  6
CONTINUOUS
 62
     7
 10
-31.6999999999999
 20
-113.2902602299874
 30
0.0
 11
-24.999999999999972
 21
-113.2902602299874
 31
0.0
  0
LINE
  5
F45
  8
0
  6
CONTINUOUS
 62
     7
 10
-31.999999999999929
 20
-112.6545857395958
 30
0.0
 11
-24.999999999999972
 21
-112.6545857395958
 31
0.0
  0
LINE
  5
F46
  8
0
  6
CONTINUOUS
 62
     7
 10
-31.999999999999929
 20
-112.2549840495772
 30
0.0
 11
-24.999999999999972
 21
-112.2549840495772
 31
0.0
  0
LINE
  5
F47
  8
0
  6
CONTINUOUS
 62
     7
 10
-24.999999999999972
 20
-112.11868735473369
 30
0.0
 11
-31.999999999999929
 21
-112.11868735473369
 31
0.0
  0
LINE
  5
F48
  8
0
  6
CONTINUOUS
 62
     7
 10
-31.999999999999929
 20
-120.11868735473369
 30
0.0
 11
-24.999999999999972
 21
-120.11868735473369
 31
0.0
  0
LINE
  5
F49
  8
0
  6
CONTINUOUS
 62
     7
 10
-31.999999999999929
 20
-113.5872806113143
 30
0.0
 11
-31.999999999999929
 21
-120.11868735473369
 31
0.0
  0
LINE
  5
F4A
  8
0
  6
CONTINUOUS
 62
     7
 10
-31.999999999999929
 20
-120.11868735473369
 30
0.0
 11
-32.499999999999922
 21
-119.61868735473369
 31
0.0
  0
LINE
  5
F4B
  8
0
  6
CONTINUOUS
 62
     7
 10
-32.499999999999922
 20
-112.61868735473369
 30
0.0
 11
-31.999999999999929
 21
-112.11868735473369
 31
0.0
  0
LINE
  5
F4C
  8
0
  6
CONTINUOUS
 62
     7
 10
-32.499999999999922
 20
-112.61868735473369
 30
0.0
 11
-32.499999999999922
 21
-119.61868735473369
 31
0.0
  0
LINE
  5
F4D
  8
0
  6
CONTINUOUS
 62
     7
 10
-31.6999999999999
 20
-113.5872806113143
 30
0.0
 11
-32.499999999999922
 21
-113.5872806113143
 31
0.0
  0
LINE
  5
F4E
  8
0
  6
CONTINUOUS
 62
     7
 10
-31.6999999999999
 20
-113.02159518636491
 30
0.0
 11
-31.6999999999999
 21
-113.5872806113143
 31
0.0
  0
LINE
  5
F4F
  8
0
  6
CONTINUOUS
 62
     7
 10
-32.499999999999922
 20
-113.02159518636491
 30
0.0
 11
-31.6999999999999
 21
-113.02159518636491
 31
0.0
  0
LINE
  5
F50
  8
0
  6
CONTINUOUS
 62
     7
 10
-31.999999999999929
 20
-112.11868735473369
 30
0.0
 11
-31.999999999999929
 21
-113.02159518636491
 31
0.0
  0
LINE
  5
F51
  8
0
  6
CONTINUOUS
 62
     7
 10
-24.999999999999918
 20
-143.81868735473341
 30
0.0
 11
-24.999999999999972
 21
-120.11868735473369
 31
0.0
  0
LINE
  5
F52
  8
CENTER
  6
CENTER
 62
     1
 10
-24.389993742175101
 20
-111.3186873547339
 30
0.0
 11
-8.2500000000000036
 21
-111.3186873547339
 31
0.0
  0
LINE
  5
F53
  8
0
  6
CONTINUOUS
 62
     7
 10
-20.0
 20
-113.5686873547339
 30
0.0
 11
-12.5
 21
-113.5686873547339
 31
0.0
  0
LINE
  5
F54
  8
0
  6
CONTINUOUS
 62
     7
 10
-12.5
 20
-109.0686873547339
 30
0.0
 11
-20.0
 21
-109.0686873547339
 31
0.0
  0
LINE
  5
F55
  8
0
  6
CONTINUOUS
 62
     7
 10
-24.999999999999972
 20
-119.9823906598898
 30
0.0
 11
-24.999999999999972
 21
-119.5827889698715
 31
0.0
  0
LINE
  5
F56
  8
0
  6
CONTINUOUS
 62
     7
 10
-24.999999999999972
 20
-120.11868735473369
 30
0.0
 11
-24.999999999999972
 21
-119.9823906598898
 31
0.0
  0
LINE
  5
F57
  8
0
  6
CONTINUOUS
 62
     7
 10
-24.999999999999972
 20
-112.11868735473369
 30
0.0
 11
-25.0
 21
-103.8186873547334
 31
0.0
  0
LINE
  5
F58
  8
0
  6
CONTINUOUS
 62
     7
 10
-24.999999999999972
 20
-112.2549840495772
 30
0.0
 11
-24.999999999999972
 21
-112.11868735473369
 31
0.0
  0
LINE
  5
F59
  8
0
  6
CONTINUOUS
 62
     7
 10
-24.999999999999972
 20
-113.2902602299874
 30
0.0
 11
-24.999999999999972
 21
-112.6545857395958
 31
0.0
  0
LINE
  5
F5A
  8
0
  6
CONTINUOUS
 62
     7
 10
-24.999999999999972
 20
-112.6545857395958
 30
0.0
 11
-24.999999999999972
 21
-112.2549840495772
 31
0.0
  0
LINE
  5
F5B
  8
0
  6
CONTINUOUS
 62
     7
 10
-24.999999999999972
 20
-114.11868735473369
 30
0.0
 11
-24.999999999999972
 21
-113.2902602299874
 31
0.0
  0
LINE
  5
F5C
  8
0
  6
CONTINUOUS
 62
     7
 10
-24.999999999999972
 20
-115.0834111743235
 30
0.0
 11
-24.999999999999972
 21
-114.11868735473369
 31
0.0
  0
LINE
  5
F5D
  8
0
  6
CONTINUOUS
 62
     7
 10
-24.999999999999972
 20
-116.11868735473369
 30
0.0
 11
-24.999999999999972
 21
-115.0834111743235
 31
0.0
  0
LINE
  5
F5E
  8
0
  6
CONTINUOUS
 62
     7
 10
-24.999999999999972
 20
-117.1539635351438
 30
0.0
 11
-24.999999999999972
 21
-116.11868735473369
 31
0.0
  0
LINE
  5
F5F
  8
0
  6
CONTINUOUS
 62
     7
 10
-24.999999999999972
 20
-118.94711447947979
 30
0.0
 11
-24.999999999999972
 21
-118.11868735473369
 31
0.0
  0
LINE
  5
F60
  8
0
  6
CONTINUOUS
 62
     7
 10
-24.999999999999972
 20
-118.11868735473369
 30
0.0
 11
-24.999999999999972
 21
-117.1539635351438
 31
0.0
  0
LINE
  5
F61
  8
0
  6
CONTINUOUS
 62
     7
 10
-24.999999999999972
 20
-119.5827889698715
 30
0.0
 11
-24.999999999999972
 21
-118.94711447947979
 31
0.0
  0
ARC
  5
F62
  8
0
  6
CONTINUOUS
 62
     7
 10
-20.0
 20
-111.3186873547339
 30
0.0
 40
2.25
 50
90.0
 51
270.0
  0
LINE
  5
F63
  8
CENTER
  6
CENTER
 62
     1
 10
-20.0
 20
-107.0686873547339
 30
0.0
 11
-20.0
 21
-115.5686873547339
 31
0.0
  0
ARC
  5
F64
  8
0
  6
CONTINUOUS
 62
     7
 10
-12.5
 20
-111.3186873547339
 30
0.0
 40
2.25
 50
270.0
 51
90.0
  0
LINE
  5
F65
  8
CENTER
  6
CENTER
 62
     1
 10
-12.5
 20
-107.0686873547339
 30
0.0
 11
-12.5
 21
-115.5686873547339
 31
0.0
  0
LINE
  5
F66
  8
CENTER
  6
CENTER
 62
     1
 10
51.599583018850879
 20
-129.41868735473361
 30
0.0
 11
23.000000000000082
 21
-129.41868735473361
 31
0.0
  0
LINE
  5
F67
  8
0
  6
CONTINUOUS
 62
     7
 10
32.5
 20
-143.2186873547337
 30
0.0
 11
32.199999999999982
 21
-143.5186873547336
 31
0.0
  0
LINE
  5
F68
  8
0
  6
CONTINUOUS
 62
     7
 10
32.199999999999982
 20
-119.8186873547337
 30
0.0
 11
32.5
 21
-120.11868735473369
 31
0.0
  0
LINE
  5
F69
  8
CENTER
  6
CENTER
 62
     1
 10
23.000000000000082
 20
-139.8186873547337
 30
0.0
 11
34.5
 21
-139.8186873547337
 31
0.0
  0
LINE
  5
F6A
  8
CENTER
  6
CENTER
 62
     1
 10
33.000000000000199
 20
-123.3186873547337
 30
0.0
 11
24.999999999999972
 21
-123.3186873547337
 31
0.0
  0
LINE
  5
F6B
  8
0
  6
CONTINUOUS
 62
     7
 10
25.000000000000082
 20
-143.5186873547336
 30
0.0
 11
25.000000000000082
 21
-135.94156301026601
 31
0.0
  0
LINE
  5
F6C
  8
0
  6
CONTINUOUS
 62
     7
 10
32.199999999999982
 20
-143.5186873547336
 30
0.0
 11
25.000000000000082
 21
-143.5186873547336
 31
0.0
  0
LINE
  5
F6D
  8
0
  6
CONTINUOUS
 62
     7
 10
25.000000000000082
 20
-143.8186873547337
 30
0.0
 11
25.000000000000082
 21
-143.5186873547336
 31
0.0
  0
LINE
  5
F6E
  8
CENTER
  6
CENTER
 62
     1
 10
8.25
 20
-111.3186873547338
 30
0.0
 11
24.25
 21
-111.3186873547338
 31
0.0
  0
LINE
  5
F6F
  8
0
  6
CONTINUOUS
 62
     7
 10
12.5
 20
-113.5686873547338
 30
0.0
 11
20.0
 21
-113.5686873547338
 31
0.0
  0
LINE
  5
F70
  8
0
  6
CONTINUOUS
 62
     7
 10
20.0
 20
-109.0686873547338
 30
0.0
 11
12.5
 21
-109.0686873547338
 31
0.0
  0
ARC
  5
F71
  8
0
  6
CONTINUOUS
 62
     7
 10
12.5
 20
-111.3186873547338
 30
0.0
 40
2.25
 50
90.0
 51
270.0
  0
LINE
  5
F72
  8
CENTER
  6
CENTER
 62
     1
 10
12.50000000000008
 20
-107.0686873547338
 30
0.0
 11
12.50000000000008
 21
-115.5686873547338
 31
0.0
  0
LINE
  5
F73
  8
0
  6
CONTINUOUS
 62
     7
 10
25.000000000000082
 20
-125.91868735473371
 30
0.0
 11
25.0
 21
-103.8186873547337
 31
0.0
  0
LINE
  5
F74
  8
0
  6
CONTINUOUS
 62
     7
 10
25.500000000000082
 20
-120.11868735473369
 30
0.0
 11
25.800000000000178
 21
-119.8186873547337
 31
0.0
  0
LINE
  5
F75
  8
CENTER
  6
CENTER
 62
     1
 10
29.000000000000082
 20
-119.3186873547336
 30
0.0
 11
29.000000000000082
 21
-127.3186873547339
 31
0.0
  0
LINE
  5
F76
  8
0
  6
CONTINUOUS
 62
     7
 10
25.000000000000082
 20
-132.91868735473361
 30
0.0
 11
25.000000000000082
 21
-125.91868735473371
 31
0.0
  0
LINE
  5
F77
  8
0
  6
CONTINUOUS
 62
     7
 10
25.500000000000082
 20
-125.91868735473371
 30
0.0
 11
25.500000000000082
 21
-132.91868735473361
 31
0.0
  0
ARC
  5
F78
  8
0
  6
CONTINUOUS
 62
     7
 10
23.500000000000082
 20
-134.61868735473371
 30
0.0
 40
2.0000000000000031
 50
318.59037789073022
 51
0.0
  0
LINE
  5
F79
  8
0
  6
CONTINUOUS
 62
     7
 10
25.000000000000082
 20
-135.94156301026601
 30
0.0
 11
25.000000000000082
 21
-132.91868735473361
 31
0.0
  0
LINE
  5
F7A
  8
0
  6
CONTINUOUS
 62
     7
 10
25.000000000000082
 20
-135.94156301026601
 30
0.0
 11
25.000000000000082
 21
-132.91868735473361
 31
0.0
  0
LINE
  5
F7B
  8
0
  6
CONTINUOUS
 62
     7
 10
25.500000000000082
 20
-132.91868735473361
 30
0.0
 11
25.500000000000082
 21
-134.61868735473371
 31
0.0
  0
LINE
  5
F7C
  8
0
  6
CONTINUOUS
 62
     7
 10
25.500000000000082
 20
-132.91868735473361
 30
0.0
 11
25.000000000000082
 21
-132.91868735473361
 31
0.0
  0
CIRCLE
  5
F7D
  8
0
  6
CONTINUOUS
 62
     3
 10
29.000000000000082
 20
-123.3186873547337
 30
0.0
 40
2.0000000000001141
  0
CIRCLE
  5
F7E
  8
0
  6
CONTINUOUS
 62
     7
 10
29.000000000000082
 20
-123.3186873547337
 30
0.0
 40
1.6209999999999991
  0
LINE
  5
F7F
  8
0
  6
CONTINUOUS
 62
     7
 10
25.500000000000082
 20
-120.11868735473369
 30
0.0
 11
25.500000000000082
 21
-125.91868735473371
 31
0.0
  0
LINE
  5
F80
  8
0
  6
CONTINUOUS
 62
     7
 10
25.000000000000082
 20
-125.91868735473371
 30
0.0
 11
25.500000000000082
 21
-125.91868735473371
 31
0.0
  0
ARC
  5
F81
  8
0
  6
CONTINUOUS
 62
     7
 10
20.0
 20
-111.3186873547338
 30
0.0
 40
2.25
 50
270.0
 51
90.0
  0
LINE
  5
F82
  8
CENTER
  6
CENTER
 62
     1
 10
20.0
 20
-107.0686873547338
 30
0.0
 11
20.0
 21
-115.5686873547338
 31
0.0
  0
LINE
  5
F83
  8
0
  6
CONTINUOUS
 62
     7
 10
25.800000000000178
 20
-119.8186873547337
 30
0.0
 11
32.199999999999982
 21
-119.8186873547337
 31
0.0
  0
LINE
  5
F84
  8
0
  6
CONTINUOUS
 62
     7
 10
37.80899999999999
 20
-121.91868735473371
 30
0.0
 11
37.80899999999999
 21
-136.91868735473349
 31
0.0
  0
LINE
  5
F85
  8
0
  6
CONTINUOUS
 62
     7
 10
48.209000000000117
 20
-136.91868735473361
 30
0.0
 11
48.209000000000117
 21
-121.91868735473371
 31
0.0
  0
LINE
  5
F86
  8
0
  6
CONTINUOUS
 62
     7
 10
48.209000000000117
 20
-136.91868735473361
 30
0.0
 11
48.509000000000093
 21
-136.61868735473371
 31
0.0
  0
LINE
  5
F87
  8
0
  6
CONTINUOUS
 62
     7
 10
37.5090000000001
 20
-136.61868735473371
 30
0.0
 11
37.80899999999999
 21
-136.91868735473349
 31
0.0
  0
LINE
  5
F88
  8
0
  6
CONTINUOUS
 62
     7
 10
32.5
 20
-135.8186873547337
 30
0.0
 11
32.5
 21
-143.2186873547337
 31
0.0
  0
LINE
  5
F89
  8
0
  6
CONTINUOUS
 62
     7
 10
48.209000000000117
 20
-136.91868735473361
 30
0.0
 11
37.80899999999999
 21
-136.91868735473349
 31
0.0
  0
LINE
  5
F8A
  8
0
  6
CONTINUOUS
 62
     7
 10
48.209000000000117
 20
-121.91868735473371
 30
0.0
 11
48.509000000000093
 21
-122.2186873547336
 31
0.0
  0
LINE
  5
F8B
  8
0
  6
CONTINUOUS
 62
     7
 10
48.209000000000117
 20
-135.91387788311681
 30
0.0
 11
37.80899999999999
 21
-135.91387788311681
 31
0.0
  0
LINE
  5
F8C
  8
0
  6
CONTINUOUS
 62
     7
 10
48.209000000000117
 20
-122.1742436575655
 30
0.0
 11
37.80899999999999
 21
-122.1742436575655
 31
0.0
  0
LINE
  5
F8D
  8
0
  6
CONTINUOUS
 62
     7
 10
48.209000000000117
 20
-122.9234968263503
 30
0.0
 11
37.80899999999999
 21
-122.9234968263503
 31
0.0
  0
LINE
  5
F8E
  8
0
  6
CONTINUOUS
 62
     7
 10
48.209000000000117
 20
-124.1153864958346
 30
0.0
 11
37.80899999999999
 21
-124.1153864958346
 31
0.0
  0
LINE
  5
F8F
  8
0
  6
CONTINUOUS
 62
     7
 10
48.209000000000117
 20
-125.66868735473361
 30
0.0
 11
37.80899999999999
 21
-125.66868735473361
 31
0.0
  0
LINE
  5
F90
  8
0
  6
CONTINUOUS
 62
     7
 10
48.209000000000117
 20
-129.41868735473361
 30
0.0
 11
37.80899999999999
 21
-129.41868735473361
 31
0.0
  0
LINE
  5
F91
  8
0
  6
CONTINUOUS
 62
     7
 10
48.209000000000117
 20
-127.4775445164646
 30
0.0
 11
37.80899999999999
 21
-127.4775445164646
 31
0.0
  0
LINE
  5
F92
  8
0
  6
CONTINUOUS
 62
     7
 10
48.209000000000117
 20
-131.35983019300249
 30
0.0
 11
37.80899999999999
 21
-131.35983019300249
 31
0.0
  0
LINE
  5
F93
  8
0
  6
CONTINUOUS
 62
     7
 10
48.209000000000117
 20
-133.16868735473361
 30
0.0
 11
37.80899999999999
 21
-133.16868735473361
 31
0.0
  0
LINE
  5
F94
  8
0
  6
CONTINUOUS
 62
     7
 10
37.80899999999999
 20
-134.7219882136327
 30
0.0
 11
48.209000000000117
 21
-134.7219882136327
 31
0.0
  0
LINE
  5
F95
  8
0
  6
CONTINUOUS
 62
     7
 10
37.80899999999999
 20
-136.6631310519017
 30
0.0
 11
48.209000000000117
 21
-136.6631310519017
 31
0.0
  0
LINE
  5
F96
  8
0
  6
CONTINUOUS
 62
     7
 10
37.80899999999999
 20
-121.91868735473371
 30
0.0
 11
48.209000000000117
 21
-121.91868735473371
 31
0.0
  0
LINE
  5
F97
  8
0
  6
CONTINUOUS
 62
     7
 10
37.5090000000001
 20
-136.61868735473371
 30
0.0
 11
37.5090000000001
 21
-122.2186873547336
 31
0.0
  0
LINE
  5
F98
  8
0
  6
CONTINUOUS
 62
     7
 10
32.5
 20
-125.91868735473371
 30
0.0
 11
32.5
 21
-136.3186873547337
 31
0.0
  0
ARC
  5
F99
  8
0
  6
CONTINUOUS
 62
     7
 10
35.5090000000001
 20
-134.91868735473361
 30
0.0
 40
2.0
 50
0.0
 51
90.0
  0
LINE
  5
F9A
  8
0
  6
CONTINUOUS
 62
     7
 10
35.5090000000001
 20
-132.91868735473361
 30
0.0
 11
32.5
 21
-132.91868735473361
 31
0.0
  0
ARC
  5
F9B
  8
0
  6
CONTINUOUS
 62
     7
 10
35.5090000000001
 20
-123.91868735473371
 30
0.0
 40
2.0
 50
270.0
 51
0.0
  0
LINE
  5
F9C
  8
0
  6
CONTINUOUS
 62
     7
 10
32.5
 20
-125.91868735473371
 30
0.0
 11
35.5090000000001
 21
-125.91868735473371
 31
0.0
  0
LINE
  5
F9D
  8
0
  6
CONTINUOUS
 62
     7
 10
32.5
 20
-123.3186873547337
 30
0.0
 11
32.5
 21
-125.91868735473371
 31
0.0
  0
LINE
  5
F9E
  8
0
  6
CONTINUOUS
 62
     7
 10
32.5
 20
-120.11868735473369
 30
0.0
 11
32.5
 21
-123.3186873547337
 31
0.0
  0
LINE
  5
F9F
  8
0
  6
CONTINUOUS
 62
     7
 10
37.80899999999999
 20
-121.91868735473371
 30
0.0
 11
37.5090000000001
 21
-122.2186873547336
 31
0.0
  0
ARC
  5
FA0
  8
0
  6
CONTINUOUS
 62
     7
 10
41.109000000000002
 20
-129.41868735473361
 30
0.0
 40
8.4999999999999467
 50
2.6972681339374418
 51
28.072486935854489
  0
LINE
  5
FA1
  8
0
  6
CONTINUOUS
 62
     7
 10
48.509000000000093
 20
-122.2186873547336
 30
0.0
 11
48.509000000000093
 21
-136.61868735473371
 31
0.0
  0
LINE
  5
FA2
  8
0
  6
CONTINUOUS
 62
     7
 10
48.609000000000002
 20
-125.41868735473361
 30
0.0
 11
48.609000000000002
 21
-129.0186873547336
 31
0.0
  0
ARC
  5
FA3
  8
0
  6
CONTINUOUS
 62
     7
 10
41.109000000000002
 20
-129.41868735473361
 30
0.0
 40
8.5
 50
331.9275130641455
 51
357.30273186606252
  0
LINE
  5
FA4
  8
0
  6
CONTINUOUS
 62
     7
 10
48.609000000000002
 20
-133.41868735473369
 30
0.0
 11
48.509000000000093
 21
-133.41868735473369
 31
0.0
  0
LINE
  5
FA5
  8
0
  6
CONTINUOUS
 62
     7
 10
48.609000000000002
 20
-129.81868735473361
 30
0.0
 11
48.609000000000002
 21
-133.41868735473369
 31
0.0
  0
LINE
  5
FA6
  8
0
  6
CONTINUOUS
 62
     7
 10
48.509000000000093
 20
-129.0186873547336
 30
0.0
 11
49.599583018850893
 21
-129.0186873547336
 31
0.0
  0
LINE
  5
FA7
  8
0
  6
CONTINUOUS
 62
     7
 10
49.599583018850893
 20
-129.81868735473361
 30
0.0
 11
48.509000000000093
 21
-129.81868735473361
 31
0.0
  0
LINE
  5
FA8
  8
0
  6
CONTINUOUS
 62
     7
 10
48.509000000000093
 20
-125.41868735473361
 30
0.0
 11
48.609000000000002
 21
-125.41868735473361
 31
0.0
  0
LINE
  5
FA9
  8
0
  6
CONTINUOUS
 62
     7
 10
-113.8831587453169
 20
29.99999999999994
 30
0.0
 11
-113.8831587453169
 21
-65.999999999999403
 31
0.0
  0
LINE
  5
FAA
  8
0
  6
CONTINUOUS
 62
     7
 10
-106.38315874531681
 20
29.99999999999994
 30
0.0
 11
-106.3831587453169
 21
-53.499999999999368
 31
0.0
  0
LINE
  5
FAB
  8
0
  6
CONTINUOUS
 62
     7
 10
-113.8831587453169
 20
-65.999999999999403
 30
0.0
 11
-73.883158745316933
 21
-65.999999999999403
 31
0.0
  0
LINE
  5
FAC
  8
0
  6
CONTINUOUS
 62
     7
 10
-113.8831587453169
 20
-58.499999999999368
 30
0.0
 11
-73.883158745316933
 21
-58.499999999999368
 31
0.0
  0
ARC
  5
FAD
  8
0
  6
CONTINUOUS
 62
     7
 10
-101.3831587453169
 20
-53.499999999999368
 30
0.0
 40
5.0
 50
180.0
 51
270.0
  0
LINE
  5
FAE
  8
CENTER
  6
CENTER
 62
     1
 10
-81.383158745316905
 20
-67.999999999999403
 30
0.0
 11
-81.383158745316933
 21
-56.499999999999382
 31
0.0
  0
LINE
  5
FAF
  8
0
  6
CONTINUOUS
 62
     7
 10
-73.883158745316933
 20
-58.499999999999368
 30
0.0
 11
-73.883158745316933
 21
-65.999999999999403
 31
0.0
  0
CIRCLE
  5
FB0
  8
0
  6
CONTINUOUS
 62
     7
 10
-99.483158745316913
 20
-0.0869405089140969
 30
0.0
 40
4.5000000000000213
  0
LINE
  5
FB1
  8
0
  6
CONTINUOUS
 62
     7
 10
-80.383158745316877
 20
-29.999999999999599
 30
0.0
 11
-106.38315874531681
 21
-29.999999999999599
 31
0.0
  0
LINE
  5
FB2
  8
0
  6
CONTINUOUS
 62
     7
 10
-113.8831587453169
 20
29.99999999999994
 30
0.0
 11
-80.383158745316877
 21
29.99999999999994
 31
0.0
  0
LINE
  5
FB3
  8
CENTER
  6
CENTER
 62
     1
 10
-115.8831587453169
 20
0.0
 30
0.0
 11
-78.383158745316891
 21
0.0
 31
0.0
  0
LINE
  5
FB4
  8
CENTER
  6
CENTER
 62
     1
 10
-99.483158745316913
 20
6.4130594910859244
 30
0.0
 11
-99.483158745316913
 21
-6.5869405089141164
 31
0.0
  0
LINE
  5
FB5
  8
0
  6
CONTINUOUS
 62
     7
 10
-99.08315874531695
 20
4.3952464572889189
 30
0.0
 11
-99.08315874531695
 21
-4.569127475116999
 31
0.0
  0
LINE
  5
FB6
  8
0
  6
CONTINUOUS
 62
     7
 10
-99.883158745316891
 20
-4.569127475116999
 30
0.0
 11
-99.883158745316891
 21
4.3952464572889189
 31
0.0
  0
LINE
  5
FB7
  8
0
  6
CONTINUOUS
 62
     7
 10
-87.783158745317039
 20
0.3339394440352521
 30
0.0
 11
-87.783158745317039
 21
-17.5
 31
0.0
  0
LINE
  5
FB8
  8
0
  6
CONTINUOUS
 62
     7
 10
-82.18315874531713
 20
28.99999999999994
 30
0.0
 11
-82.18315874531713
 21
-21.0
 31
0.0
  0
LINE
  5
FB9
  8
0
  6
CONTINUOUS
 62
     7
 10
-84.583158745316993
 20
-17.5
 30
0.0
 11
-84.583158745316993
 21
0.3339394440354226
 31
0.0
  0
LINE
  5
FBA
  8
0
  6
CONTINUOUS
 62
     7
 10
-94.68315874531713
 20
-21.0
 30
0.0
 11
-94.68315874531713
 21
28.99999999999994
 31
0.0
  0
LINE
  5
FBB
  8
0
  6
CONTINUOUS
 62
     7
 10
-80.383158745316877
 20
29.99999999999994
 30
0.0
 11
-80.383158745316877
 21
-29.999999999999599
 31
0.0
  0
CIRCLE
  5
FBC
  8
0
  6
CONTINUOUS
 62
     7
 10
-92.683158745317144
 20
-18.5
 30
0.0
 40
2.0
  0
ARC
  5
FBD
  8
0
  6
CONTINUOUS
 62
     7
 10
-86.18315874531713
 20
-17.5
 30
0.0
 40
1.599999999999915
 50
180.0
 51
0.0
  0
LINE
  5
FBE
  8
0
  6
CONTINUOUS
 62
     7
 10
-92.433158745317144
 20
-19.5
 30
0.0
 11
-92.433158745317144
 21
-18.75
 31
0.0
  0
LINE
  5
FBF
  8
0
  6
CONTINUOUS
 62
     7
 10
-92.933158745317115
 20
-18.75
 30
0.0
 11
-92.933158745317115
 21
-19.5
 31
0.0
  0
LINE
  5
FC0
  8
CENTER
  6
CENTER
 62
     1
 10
-92.683158745317144
 20
-14.5
 30
0.0
 11
-92.683158745317144
 21
-22.5
 31
0.0
  0
LINE
  5
FC1
  8
0
  6
CONTINUOUS
 62
     7
 10
-82.18315874531713
 20
-21.0
 30
0.0
 11
-94.68315874531713
 21
-21.0
 31
0.0
  0
LINE
  5
FC2
  8
0
  6
CONTINUOUS
 62
     7
 10
-90.383158745316877
 20
-21.0
 30
0.0
 11
-90.383158745316877
 21
-30.0
 31
0.0
  0
LINE
  5
FC3
  8
0
  6
CONTINUOUS
 62
     7
 10
-92.933158745317115
 20
-19.5
 30
0.0
 11
-92.433158745317144
 21
-19.5
 31
0.0
  0
LINE
  5
FC4
  8
0
  6
CONTINUOUS
 62
     7
 10
-91.683158745317144
 20
-18.25
 30
0.0
 11
-92.433158745317144
 21
-18.25
 31
0.0
  0
LINE
  5
FC5
  8
0
  6
CONTINUOUS
 62
     7
 10
-92.433158745317144
 20
-18.75
 30
0.0
 11
-91.683158745317144
 21
-18.75
 31
0.0
  0
LINE
  5
FC6
  8
CENTER
  6
CENTER
 62
     1
 10
-96.683158745317144
 20
-18.5
 30
0.0
 11
-88.683158745317144
 21
-18.5
 31
0.0
  0
LINE
  5
FC7
  8
0
  6
CONTINUOUS
 62
     7
 10
-92.433158745317144
 20
-17.5
 30
0.0
 11
-92.933158745317115
 21
-17.5
 31
0.0
  0
LINE
  5
FC8
  8
0
  6
CONTINUOUS
 62
     7
 10
-92.433158745317144
 20
-18.25
 30
0.0
 11
-92.433158745317144
 21
-17.5
 31
0.0
  0
LINE
  5
FC9
  8
0
  6
CONTINUOUS
 62
     7
 10
-93.68315874531713
 20
-18.75
 30
0.0
 11
-92.933158745317115
 21
-18.75
 31
0.0
  0
LINE
  5
FCA
  8
0
  6
CONTINUOUS
 62
     7
 10
-93.68315874531713
 20
-18.25
 30
0.0
 11
-93.68315874531713
 21
-18.75
 31
0.0
  0
LINE
  5
FCB
  8
0
  6
CONTINUOUS
 62
     7
 10
-92.933158745317115
 20
-18.25
 30
0.0
 11
-93.68315874531713
 21
-18.25
 31
0.0
  0
LINE
  5
FCC
  8
0
  6
CONTINUOUS
 62
     7
 10
-92.933158745317115
 20
-17.5
 30
0.0
 11
-92.933158745317115
 21
-18.25
 31
0.0
  0
LINE
  5
FCD
  8
0
  6
CONTINUOUS
 62
     7
 10
-91.683158745317144
 20
-18.75
 30
0.0
 11
-91.683158745317144
 21
-18.25
 31
0.0
  0
LINE
  5
FCE
  8
0
  6
CONTINUOUS
 62
     7
 10
-84.583158745316837
 20
7.6660605559645196
 30
0.0
 11
-84.583158745316993
 21
25.49999999999994
 31
0.0
  0
LINE
  5
FCF
  8
0
  6
CONTINUOUS
 62
     7
 10
-87.783158745317039
 20
25.49999999999994
 30
0.0
 11
-87.783158745317039
 21
7.666060555964747
 31
0.0
  0
CIRCLE
  5
FD0
  8
0
  6
CONTINUOUS
 62
     7
 10
-86.18315874531713
 20
4.0
 30
0.0
 40
4.0
  0
ARC
  5
FD1
  8
0
  6
CONTINUOUS
 62
     7
 10
-86.18315874531713
 20
4.0
 30
0.0
 40
3.5000000000000511
 50
51.562427868634877
 51
218.43757213136439
  0
ARC
  5
FD2
  8
0
  6
CONTINUOUS
 62
     7
 10
-86.18315874531713
 20
4.0
 30
0.0
 40
3.4999999999999978
 50
231.56242786863419
 51
270.0
  0
LINE
  5
FD3
  8
0
  6
CONTINUOUS
 62
     7
 10
-88.714565488736568
 20
0.9029078316312961
 30
0.0
 11
-83.086066576948426
 21
6.5314067434194376
 31
0.0
  0
LINE
  5
FD4
  8
0
  6
CONTINUOUS
 62
     7
 10
-83.651752001897691
 20
7.0970921683687598
 30
0.0
 11
-89.280250913685805
 21
1.4685932565806179
 31
0.0
  0
LINE
  5
FD5
  8
CENTER
  6
CENTER
 62
     1
 10
-80.183158745317144
 20
4.0
 30
0.0
 11
-92.18315874531713
 21
4.0
 31
0.0
  0
LINE
  5
FD6
  8
CENTER
  6
CENTER
 62
     1
 10
-86.18315874531713
 20
10.0
 30
0.0
 11
-86.18315874531713
 21
-2.0
 31
0.0
  0
ARC
  5
FD7
  8
0
  6
CONTINUOUS
 62
     7
 10
-86.18315874531713
 20
4.0
 30
0.0
 40
3.5
 50
270.0
 51
38.437572131364483
  0
ARC
  5
FD8
  8
0
  6
CONTINUOUS
 62
     7
 10
-86.183158745316902
 20
25.49999999999994
 30
0.0
 40
1.5999999999999091
 50
0.0
 51
180.0
  0
LINE
  5
FD9
  8
0
  6
CONTINUOUS
 62
     7
 10
-82.18315874531713
 20
28.99999999999994
 30
0.0
 11
-94.68315874531713
 21
28.99999999999994
 31
0.0
  0
CIRCLE
  5
FDA
  8
0
  6
CONTINUOUS
 62
     7
 10
-92.683158745317144
 20
18.49999999999994
 30
0.0
 40
2.0
  0
LINE
  5
FDB
  8
0
  6
CONTINUOUS
 62
     7
 10
-92.433158745317144
 20
18.24999999999994
 30
0.0
 11
-91.683158745317144
 21
18.24999999999994
 31
0.0
  0
LINE
  5
FDC
  8
0
  6
CONTINUOUS
 62
     7
 10
-91.683158745317144
 20
18.74999999999994
 30
0.0
 11
-92.433158745317144
 21
18.74999999999994
 31
0.0
  0
LINE
  5
FDD
  8
CENTER
  6
CENTER
 62
     1
 10
-88.683158745317144
 20
18.49999999999994
 30
0.0
 11
-96.683158745317144
 21
18.49999999999994
 31
0.0
  0
LINE
  5
FDE
  8
0
  6
CONTINUOUS
 62
     7
 10
-92.433158745317144
 20
17.49999999999994
 30
0.0
 11
-92.433158745317144
 21
18.24999999999994
 31
0.0
  0
LINE
  5
FDF
  8
0
  6
CONTINUOUS
 62
     7
 10
-92.933158745317115
 20
17.49999999999994
 30
0.0
 11
-92.433158745317144
 21
17.49999999999994
 31
0.0
  0
LINE
  5
FE0
  8
0
  6
CONTINUOUS
 62
     7
 10
-92.433158745317144
 20
18.74999999999994
 30
0.0
 11
-92.433158745317144
 21
19.49999999999994
 31
0.0
  0
LINE
  5
FE1
  8
0
  6
CONTINUOUS
 62
     7
 10
-92.433158745317144
 20
19.49999999999994
 30
0.0
 11
-92.933158745317115
 21
19.49999999999994
 31
0.0
  0
LINE
  5
FE2
  8
0
  6
CONTINUOUS
 62
     7
 10
-92.933158745317115
 20
19.49999999999994
 30
0.0
 11
-92.933158745317115
 21
18.74999999999994
 31
0.0
  0
LINE
  5
FE3
  8
0
  6
CONTINUOUS
 62
     7
 10
-92.933158745317115
 20
18.74999999999994
 30
0.0
 11
-93.68315874531713
 21
18.74999999999994
 31
0.0
  0
LINE
  5
FE4
  8
0
  6
CONTINUOUS
 62
     7
 10
-93.68315874531713
 20
18.74999999999994
 30
0.0
 11
-93.68315874531713
 21
18.24999999999994
 31
0.0
  0
LINE
  5
FE5
  8
0
  6
CONTINUOUS
 62
     7
 10
-93.68315874531713
 20
18.24999999999994
 30
0.0
 11
-92.933158745317115
 21
18.24999999999994
 31
0.0
  0
LINE
  5
FE6
  8
0
  6
CONTINUOUS
 62
     7
 10
-92.933158745317115
 20
18.24999999999994
 30
0.0
 11
-92.933158745317115
 21
17.49999999999994
 31
0.0
  0
LINE
  5
FE7
  8
CENTER
  6
CENTER
 62
     1
 10
-92.683158745317144
 20
22.49999999999994
 30
0.0
 11
-92.683158745317144
 21
14.49999999999994
 31
0.0
  0
LINE
  5
FE8
  8
0
  6
CONTINUOUS
 62
     7
 10
-91.683158745317144
 20
18.24999999999994
 30
0.0
 11
-91.683158745317144
 21
18.74999999999994
 31
0.0
  0
LINE
  5
FE9
  8
0
  6
CONTINUOUS
 62
     7
 10
-90.383158745316877
 20
29.99999999999994
 30
0.0
 11
-90.383158745316877
 21
28.99999999999994
 31
0.0
  0
LINE
  5
FEA
  8
CENTER
  6
CENTER
 62
     1
 10
0.0
 20
-68.999999999999403
 30
0.0
 11
0.0
 21
31.99999999999994
 31
0.0
  0
LINE
  5
FEB
  8
0
  6
CONTINUOUS
 62
     7
 10
-25.0
 20
-65.999999999999403
 30
0.0
 11
25.0
 21
-65.999999999999403
 31
0.0
  0
LINE
  5
FEC
  8
0
  6
CONTINUOUS
 62
     7
 10
25.0
 20
-58.499999999999368
 30
0.0
 11
-25.0
 21
-58.499999999999368
 31
0.0
  0
LINE
  5
FED
  8
CENTER
  6
CENTER
 62
     1
 10
-16.5
 20
-20.0
 30
0.0
 11
-8.5
 21
-20.0
 31
0.0
  0
LINE
  5
FEE
  8
CENTER
  6
CENTER
 62
     1
 10
-16.5
 20
20.0
 30
0.0
 11
-8.5
 21
20.0
 31
0.0
  0
LINE
  5
FEF
  8
0
  6
CONTINUOUS
 62
     7
 10
-20.0
 20
29.99999999999994
 30
0.0
 11
19.999999999999911
 21
29.99999999999994
 31
0.0
  0
LINE
  5
FF0
  8
CENTER
  6
CENTER
 62
     1
 10
-24.385621722338492
 20
0.0
 30
0.0
 11
51.599583018850922
 21
0.0
 31
0.0
  0
LINE
  5
FF1
  8
0
  6
CONTINUOUS
 62
     7
 10
19.999999999999911
 20
-30.00000000000005
 30
0.0
 11
-20.0
 21
-30.00000000000005
 31
0.0
  0
LINE
  5
FF2
  8
0
  6
CONTINUOUS
 62
     7
 10
-20.0
 20
-58.499999999999368
 30
0.0
 11
-20.0
 21
29.99999999999994
 31
0.0
  0
LINE
  5
FF3
  8
0
  6
CONTINUOUS
 62
     7
 10
-25.0
 20
-58.499999999999368
 30
0.0
 11
-25.0
 21
-65.999999999999403
 31
0.0
  0
LINE
  5
FF4
  8
0
  6
CONTINUOUS
 62
     7
 10
-21.500000000000099
 20
0.1362966948437929
 30
0.0
 11
-32.000000000000107
 21
0.1362966948437929
 31
0.0
  0
LINE
  5
FF5
  8
0
  6
CONTINUOUS
 62
     7
 10
-21.500000000000099
 20
0.5358983848621506
 30
0.0
 11
-32.000000000000107
 21
0.5358983848621506
 31
0.0
  0
LINE
  5
FF6
  8
0
  6
CONTINUOUS
 62
     7
 10
-21.500000000000099
 20
1.1715728752537871
 30
0.0
 11
-32.000000000000107
 21
1.1715728752537871
 31
0.0
  0
LINE
  5
FF7
  8
0
  6
CONTINUOUS
 62
     7
 10
-21.500000000000099
 20
2.0
 30
0.0
 11
-32.000000000000107
 21
2.0
 31
0.0
  0
LINE
  5
FF8
  8
0
  6
CONTINUOUS
 62
     7
 10
-21.500000000000099
 20
2.9647238195898922
 30
0.0
 11
-32.000000000000107
 21
2.9647238195898922
 31
0.0
  0
LINE
  5
FF9
  8
0
  6
CONTINUOUS
 62
     7
 10
-32.0
 20
4.0
 30
0.0
 11
-21.500000000000099
 21
4.0
 31
0.0
  0
LINE
  5
FFA
  8
0
  6
CONTINUOUS
 62
     7
 10
-32.000000000000107
 20
5.0352761804099941
 30
0.0
 11
-21.500000000000099
 21
5.0352761804099941
 31
0.0
  0
LINE
  5
FFB
  8
0
  6
CONTINUOUS
 62
     7
 10
-32.000000000000107
 20
6.0
 30
0.0
 11
-21.500000000000099
 21
6.0
 31
0.0
  0
LINE
  5
FFC
  8
0
  6
CONTINUOUS
 62
     7
 10
-31.700000000000099
 20
6.8284271247460993
 30
0.0
 11
-21.500000000000099
 21
6.8284271247460993
 31
0.0
  0
LINE
  5
FFD
  8
0
  6
CONTINUOUS
 62
     7
 10
-32.000000000000107
 20
7.4641016151377917
 30
0.0
 11
-21.500000000000099
 21
7.4641016151377917
 31
0.0
  0
LINE
  5
FFE
  8
0
  6
CONTINUOUS
 62
     7
 10
-32.000000000000107
 20
7.8637033051563199
 30
0.0
 11
-21.500000000000099
 21
7.8637033051563199
 31
0.0
  0
LINE
  5
FFF
  8
0
  6
CONTINUOUS
 62
     7
 10
-20.5
 20
8.0
 30
0.0
 11
-32.000000000000107
 21
8.0
 31
0.0
  0
LINE
  5
1000
  8
0
  6
CONTINUOUS
 62
     7
 10
-32.000000000000107
 20
0.0
 30
0.0
 11
-20.5
 21
0.0
 31
0.0
  0
LINE
  5
1001
  8
0
  6
CONTINUOUS
 62
     7
 10
-32.0
 20
6.5314067434194376
 30
0.0
 11
-32.000000000000107
 21
0.0
 31
0.0
  0
LINE
  5
1002
  8
0
  6
CONTINUOUS
 62
     7
 10
-32.500000000000107
 20
7.5
 30
0.0
 11
-32.500000000000107
 21
0.5
 31
0.0
  0
LINE
  5
1003
  8
0
  6
CONTINUOUS
 62
     7
 10
-32.000000000000107
 20
0.0
 30
0.0
 11
-32.500000000000107
 21
0.5
 31
0.0
  0
LINE
  5
1004
  8
0
  6
CONTINUOUS
 62
     7
 10
-31.700000000000099
 20
6.5314067434194376
 30
0.0
 11
-32.500000000000107
 21
6.5314067434194376
 31
0.0
  0
LINE
  5
1005
  8
0
  6
CONTINUOUS
 62
     7
 10
-31.700000000000099
 20
7.0970921683687598
 30
0.0
 11
-31.700000000000099
 21
6.5314067434194376
 31
0.0
  0
LINE
  5
1006
  8
0
  6
CONTINUOUS
 62
     7
 10
-32.500000000000107
 20
7.0970921683687598
 30
0.0
 11
-31.700000000000099
 21
7.0970921683687598
 31
0.0
  0
LINE
  5
1007
  8
0
  6
CONTINUOUS
 62
     7
 10
-32.000000000000107
 20
8.0
 30
0.0
 11
-32.0
 21
7.0970921683687598
 31
0.0
  0
LINE
  5
1008
  8
0
  6
CONTINUOUS
 62
     7
 10
-32.500000000000107
 20
7.5
 30
0.0
 11
-32.000000000000107
 21
8.0
 31
0.0
  0
ARC
  5
1009
  8
0
  6
CONTINUOUS
 62
     7
 10
-14.3856217223386
 20
0.0
 30
0.0
 40
7.9999999999999014
 50
180.0
 51
214.98539165187469
  0
LINE
  5
100A
  8
0
  6
CONTINUOUS
 62
     7
 10
-20.940007793335809
 20
-4.586940508914096
 30
0.0
 11
-20.940007793335809
 21
0.0
 31
0.0
  0
LINE
  5
100B
  8
CENTER
  6
CENTER
 62
     1
 10
-12.5
 20
24.0
 30
0.0
 11
-12.5
 21
16.0
 31
0.0
  0
LINE
  5
100C
  8
0
  6
CONTINUOUS
 62
     7
 10
-20.5
 20
-21.0
 30
0.0
 11
-20.5
 21
28.99999999999994
 31
0.0
  0
ARC
  5
100D
  8
0
  6
CONTINUOUS
 62
     7
 10
-17.745001059997101
 20
-18.5
 30
0.0
 40
4.3549989400032176
 50
154.328354509815
 51
205.67164549018159
  0
ARC
  5
100E
  8
0
  6
CONTINUOUS
 62
     7
 10
-21.489866370182192
 20
-20.300000000000011
 30
0.0
 40
0.1999999999999199
 50
205.67164549016709
 51
270.0
  0
LINE
  5
100F
  8
0
  6
CONTINUOUS
 62
     7
 10
-21.489866370182192
 20
-20.5
 30
0.0
 11
-20.5
 21
-20.5
 31
0.0
  0
LINE
  5
1010
  8
0
  6
CONTINUOUS
 62
     7
 10
-20.5
 20
-21.0
 30
0.0
 11
-20.0
 21
-21.0
 31
0.0
  0
ARC
  5
1011
  8
0
  6
CONTINUOUS
 62
     7
 10
-21.489866370182192
 20
-16.700000000000099
 30
0.0
 40
0.2000000000003297
 50
90.0
 51
154.32835450974619
  0
LINE
  5
1012
  8
0
  6
CONTINUOUS
 62
     7
 10
-20.500000000000188
 20
-16.5
 30
0.0
 11
-21.489866370182192
 21
-16.499999999999709
 31
0.0
  0
LINE
  5
1013
  8
0
  6
CONTINUOUS
 62
     7
 10
-20.940007793335809
 20
-4.586940508914096
 30
0.0
 11
-20.5
 21
-4.586940508914096
 31
0.0
  0
CIRCLE
  5
1014
  8
0
  6
CONTINUOUS
 62
     7
 10
-12.5
 20
-20.0
 30
0.0
 40
1.6209999999999991
  0
CIRCLE
  5
1015
  8
0
  6
CONTINUOUS
 62
     3
 10
-12.5
 20
-20.0
 30
0.0
 40
2.0
  0
LINE
  5
1016
  8
0
  6
CONTINUOUS
 62
     7
 10
-21.500000000000099
 20
8.0
 30
0.0
 11
-21.500000000000099
 21
0.0
 31
0.0
  0
ARC
  5
1017
  8
0
  6
CONTINUOUS
 62
     7
 10
-21.489866370181812
 20
20.30000000000075
 30
0.0
 40
0.1999999999993065
 50
90.000000000113971
 51
154.32835450983649
  0
ARC
  5
1018
  8
0
  6
CONTINUOUS
 62
     7
 10
-21.489866370182192
 20
16.700000000000099
 30
0.0
 40
0.1999999999999199
 50
205.67164549016709
 51
270.0
  0
ARC
  5
1019
  8
0
  6
CONTINUOUS
 62
     7
 10
-17.745001059996891
 20
18.5
 30
0.0
 40
4.354998940002333
 50
154.3283545098077
 51
205.67164549018119
  0
LINE
  5
101A
  8
0
  6
CONTINUOUS
 62
     7
 10
-21.489866370182192
 20
16.5
 30
0.0
 11
-20.500000000000391
 21
16.5
 31
0.0
  0
LINE
  5
101B
  8
0
  6
CONTINUOUS
 62
     7
 10
-20.499999999999812
 20
20.5
 30
0.0
 11
-21.489866370182192
 21
20.5
 31
0.0
  0
LINE
  5
101C
  8
0
  6
CONTINUOUS
 62
     7
 10
-20.5
 20
28.99999999999994
 30
0.0
 11
-20.0
 21
28.99999999999994
 31
0.0
  0
CIRCLE
  5
101D
  8
0
  6
CONTINUOUS
 62
     7
 10
-12.5
 20
0.0
 30
0.0
 40
1.6209999999999991
  0
CIRCLE
  5
101E
  8
0
  6
CONTINUOUS
 62
     3
 10
-12.5
 20
0.0
 30
0.0
 40
2.0
  0
CIRCLE
  5
101F
  8
0
  6
CONTINUOUS
 62
     7
 10
-12.5
 20
20.0
 30
0.0
 40
1.6209999999999991
  0
CIRCLE
  5
1020
  8
0
  6
CONTINUOUS
 62
     3
 10
-12.5
 20
20.0
 30
0.0
 40
2.0
  0
LINE
  5
1021
  8
0
  6
CONTINUOUS
 62
     7
 10
19.999999999999911
 20
-2.0
 30
0.0
 11
20.0
 21
-58.499999999999368
 31
0.0
  0
LINE
  5
1022
  8
0
  6
CONTINUOUS
 62
     7
 10
25.0
 20
-65.999999999999403
 30
0.0
 11
25.0
 21
-58.499999999999368
 31
0.0
  0
ARC
  5
1023
  8
0
  6
CONTINUOUS
 62
     7
 10
31.999999999999911
 20
12.5
 30
0.0
 40
0.5
 50
0.0
 51
90.0
  0
LINE
  5
1024
  8
0
  6
CONTINUOUS
 62
     7
 10
32.499999999999908
 20
9.0
 30
0.0
 11
20.29999999999978
 21
9.0
 31
0.0
  0
LINE
  5
1025
  8
0
  6
CONTINUOUS
 62
     7
 10
25.499999999999911
 20
-1.0
 30
0.0
 11
32.499999999999908
 21
-1.0
 31
0.0
  0
LINE
  5
1026
  8
0
  6
CONTINUOUS
 62
     7
 10
25.499999999999911
 20
1.0
 30
0.0
 11
32.499999999999908
 21
1.0
 31
0.0
  0
LINE
  5
1027
  8
0
  6
CONTINUOUS
 62
     7
 10
32.199999999999903
 20
-9.0
 30
0.0
 11
32.499999999999908
 21
-8.6999999999998732
 31
0.0
  0
LINE
  5
1028
  8
0
  6
CONTINUOUS
 62
     7
 10
32.499999999999908
 20
8.6999999999999318
 30
0.0
 11
32.199999999999903
 21
9.0
 31
0.0
  0
LINE
  5
1029
  8
0
  6
CONTINUOUS
 62
     7
 10
19.999999999999911
 20
8.6999999999999886
 30
0.0
 11
19.999999999999911
 21
-8.7000000000001023
 31
0.0
  0
LINE
  5
102A
  8
CENTER
  6
CENTER
 62
     1
 10
28.999999999999911
 20
15.0
 30
0.0
 11
28.999999999999911
 21
-11.0
 31
0.0
  0
LINE
  5
102B
  8
0
  6
CONTINUOUS
 62
     7
 10
22.700000000000269
 20
-3.5
 30
0.0
 11
22.700000000000269
 21
3.5
 31
0.0
  0
LINE
  5
102C
  8
CENTER
  6
CENTER
 62
     1
 10
12.499999999999909
 20
24.0
 30
0.0
 11
12.499999999999931
 21
16.0
 31
0.0
  0
LINE
  5
102D
  8
0
  6
CONTINUOUS
 62
     7
 10
25.499999999999911
 20
-1.0
 30
0.0
 11
25.499999999999911
 21
-8.6999999999998732
 31
0.0
  0
CIRCLE
  5
102E
  8
0
  6
CONTINUOUS
 62
     7
 10
12.499999999999909
 20
-20.0
 30
0.0
 40
1.6209999999999991
  0
CIRCLE
  5
102F
  8
0
  6
CONTINUOUS
 62
     3
 10
12.499999999999909
 20
-20.0
 30
0.0
 40
2.0000000000001141
  0
LINE
  5
1030
  8
0
  6
CONTINUOUS
 62
     7
 10
25.499999999999911
 20
-3.5
 30
0.0
 11
22.700000000000269
 21
-3.5
 31
0.0
  0
LINE
  5
1031
  8
0
  6
CONTINUOUS
 62
     7
 10
20.29999999999978
 20
-9.0
 30
0.0
 11
32.199999999999903
 21
-9.0
 31
0.0
  0
LINE
  5
1032
  8
0
  6
CONTINUOUS
 62
     7
 10
20.29999999999978
 20
-9.0
 30
0.0
 11
19.999999999999911
 21
-8.7000000000001023
 31
0.0
  0
LINE
  5
1033
  8
0
  6
CONTINUOUS
 62
     7
 10
25.799999999999979
 20
-9.0
 30
0.0
 11
25.499999999999911
 21
-8.6999999999998732
 31
0.0
  0
CIRCLE
  5
1034
  8
0
  6
CONTINUOUS
 62
     7
 10
12.499999999999909
 20
0.0
 30
0.0
 40
1.6209999999999991
  0
CIRCLE
  5
1035
  8
0
  6
CONTINUOUS
 62
     3
 10
12.499999999999909
 20
0.0
 30
0.0
 40
2.0
  0
CIRCLE
  5
1036
  8
0
  6
CONTINUOUS
 62
     7
 10
12.499999999999909
 20
20.0
 30
0.0
 40
1.6209999999999991
  0
CIRCLE
  5
1037
  8
0
  6
CONTINUOUS
 62
     3
 10
12.499999999999909
 20
20.0
 30
0.0
 40
2.0
  0
LINE
  5
1038
  8
0
  6
CONTINUOUS
 62
     7
 10
19.999999999999911
 20
29.99999999999994
 30
0.0
 11
19.999999999999911
 21
2.0
 31
0.0
  0
LINE
  5
1039
  8
0
  6
CONTINUOUS
 62
     7
 10
22.700000000000269
 20
3.5
 30
0.0
 11
25.499999999999911
 21
3.5
 31
0.0
  0
LINE
  5
103A
  8
0
  6
CONTINUOUS
 62
     7
 10
19.999999999999911
 20
-2.0
 30
0.0
 11
22.700000000000269
 21
-2.0
 31
0.0
  0
LINE
  5
103B
  8
0
  6
CONTINUOUS
 62
     7
 10
22.700000000000269
 20
2.0
 30
0.0
 11
19.999999999999911
 21
2.0
 31
0.0
  0
LINE
  5
103C
  8
0
  6
CONTINUOUS
 62
     7
 10
19.999999999999911
 20
2.0
 30
0.0
 11
19.999999999999911
 21
-2.0
 31
0.0
  0
LINE
  5
103D
  8
0
  6
CONTINUOUS
 62
     7
 10
19.999999999999911
 20
8.6999999999999886
 30
0.0
 11
20.29999999999978
 21
9.0
 31
0.0
  0
LINE
  5
103E
  8
0
  6
CONTINUOUS
 62
     7
 10
25.499999999999911
 20
8.6999999999999318
 30
0.0
 11
25.499999999999911
 21
1.0
 31
0.0
  0
LINE
  5
103F
  8
0
  6
CONTINUOUS
 62
     7
 10
27.378999999999898
 20
1.0
 30
0.0
 11
30.620999999999889
 21
1.0
 31
0.0
  0
LINE
  5
1040
  8
0
  6
CONTINUOUS
 62
     7
 10
27.378999999999898
 20
-1.0
 30
0.0
 11
30.620999999999889
 21
-1.0
 31
0.0
  0
LINE
  5
1041
  8
0
  6
CONTINUOUS
 62
     3
 10
26.999999999999911
 20
1.0
 30
0.0
 11
26.999999999999911
 21
-1.0
 31
0.0
  0
LINE
  5
1042
  8
0
  6
CONTINUOUS
 62
     7
 10
26.999999999999911
 20
1.0
 30
0.0
 11
27.378999999999898
 21
1.0
 31
0.0
  0
LINE
  5
1043
  8
0
  6
CONTINUOUS
 62
     7
 10
26.999999999999911
 20
-1.0
 30
0.0
 11
27.378999999999898
 21
-1.0
 31
0.0
  0
LINE
  5
1044
  8
0
  6
CONTINUOUS
 62
     7
 10
27.378999999999898
 20
1.0
 30
0.0
 11
27.378999999999898
 21
-1.0
 31
0.0
  0
LINE
  5
1045
  8
0
  6
CONTINUOUS
 62
     3
 10
30.999999999999911
 20
1.0
 30
0.0
 11
30.999999999999911
 21
-1.0
 31
0.0
  0
LINE
  5
1046
  8
0
  6
CONTINUOUS
 62
     7
 10
30.620999999999889
 20
1.0
 30
0.0
 11
30.620999999999889
 21
-1.0
 31
0.0
  0
LINE
  5
1047
  8
0
  6
CONTINUOUS
 62
     7
 10
30.620999999999889
 20
1.0
 30
0.0
 11
30.999999999999911
 21
1.0
 31
0.0
  0
LINE
  5
1048
  8
0
  6
CONTINUOUS
 62
     7
 10
30.620999999999889
 20
-1.0
 30
0.0
 11
30.999999999999911
 21
-1.0
 31
0.0
  0
LINE
  5
1049
  8
0
  6
CONTINUOUS
 62
     7
 10
31.999999999999911
 20
13.0
 30
0.0
 11
25.999999999999911
 21
13.0
 31
0.0
  0
ARC
  5
104A
  8
0
  6
CONTINUOUS
 62
     7
 10
25.999999999999911
 20
12.5
 30
0.0
 40
0.5
 50
90.0
 51
180.0
  0
LINE
  5
104B
  8
0
  6
CONTINUOUS
 62
     7
 10
25.499999999999911
 20
12.5
 30
0.0
 11
25.499999999999911
 21
9.0
 31
0.0
  0
LINE
  5
104C
  8
0
  6
CONTINUOUS
 62
     7
 10
25.499999999999911
 20
9.0
 30
0.0
 11
24.999999999999911
 21
9.0
 31
0.0
  0
LINE
  5
104D
  8
0
  6
CONTINUOUS
 62
     7
 10
25.799999999999979
 20
9.0
 30
0.0
 11
25.499999999999911
 21
8.6999999999999318
 31
0.0
  0
ARC
  5
104E
  8
0
  6
CONTINUOUS
 62
     7
 10
41.099583018850922
 20
0.0
 30
0.0
 40
8.5
 50
331.9275130641455
 51
0.0
  0
LINE
  5
104F
  8
0
  6
CONTINUOUS
 62
     7
 10
48.5995830188509
 20
4.0
 30
0.0
 11
48.5995830188509
 21
-4.0
 31
0.0
  0
LINE
  5
1050
  8
0
  6
CONTINUOUS
 62
     7
 10
37.499583018851013
 20
-7.2000000000001023
 30
0.0
 11
37.499583018851013
 21
0.0
 31
0.0
  0
LINE
  5
1051
  8
0
  6
CONTINUOUS
 62
     7
 10
48.199583018851001
 20
-7.5
 30
0.0
 11
48.199583018851001
 21
7.5
 31
0.0
  0
LINE
  5
1052
  8
0
  6
CONTINUOUS
 62
     7
 10
48.499583018851013
 20
7.1999999999999877
 30
0.0
 11
48.499583018851013
 21
-7.2000000000001023
 31
0.0
  0
LINE
  5
1053
  8
0
  6
CONTINUOUS
 62
     7
 10
37.799583018851017
 20
7.5
 30
0.0
 11
37.799583018851017
 21
-7.5
 31
0.0
  0
LINE
  5
1054
  8
0
  6
CONTINUOUS
 62
     7
 10
32.499999999999908
 20
-1.0
 30
0.0
 11
32.499999999999908
 21
-8.6999999999998732
 31
0.0
  0
LINE
  5
1055
  8
0
  6
CONTINUOUS
 62
     7
 10
48.199583018851001
 20
-7.5
 30
0.0
 11
48.499583018851013
 21
-7.2000000000001023
 31
0.0
  0
LINE
  5
1056
  8
0
  6
CONTINUOUS
 62
     7
 10
48.199583018851001
 20
-7.5
 30
0.0
 11
37.799583018851017
 21
-7.5
 31
0.0
  0
LINE
  5
1057
  8
0
  6
CONTINUOUS
 62
     7
 10
37.799583018851017
 20
-7.2444436971680366
 30
0.0
 11
48.199583018851001
 21
-7.2444436971680366
 31
0.0
  0
LINE
  5
1058
  8
0
  6
CONTINUOUS
 62
     7
 10
37.799583018851017
 20
-5.3033008588992061
 30
0.0
 11
48.199583018851001
 21
-5.3033008588992061
 31
0.0
  0
LINE
  5
1059
  8
0
  6
CONTINUOUS
 62
     7
 10
48.199583018851001
 20
-3.75
 30
0.0
 11
37.799583018851017
 21
-3.75
 31
0.0
  0
LINE
  5
105A
  8
0
  6
CONTINUOUS
 62
     7
 10
48.199583018851001
 20
-6.4951905283832039
 30
0.0
 11
37.799583018851017
 21
-6.4951905283832039
 31
0.0
  0
ARC
  5
105B
  8
0
  6
CONTINUOUS
 62
     7
 10
35.499583018851013
 20
-5.5
 30
0.0
 40
2.0
 50
0.0
 51
90.0
  0
LINE
  5
105C
  8
0
  6
CONTINUOUS
 62
     7
 10
35.499583018851013
 20
-3.5
 30
0.0
 11
32.499999999999908
 21
-3.5
 31
0.0
  0
LINE
  5
105D
  8
0
  6
CONTINUOUS
 62
     7
 10
37.799583018851017
 20
-7.5
 30
0.0
 11
37.499583018851013
 21
-7.2000000000001023
 31
0.0
  0
LINE
  5
105E
  8
0
  6
CONTINUOUS
 62
     7
 10
48.5995830188509
 20
-4.0
 30
0.0
 11
48.499583018851013
 21
-4.0
 31
0.0
  0
LINE
  5
105F
  8
0
  6
CONTINUOUS
 62
     7
 10
48.199583018851001
 20
7.5
 30
0.0
 11
48.499583018851013
 21
7.1999999999999877
 31
0.0
  0
LINE
  5
1060
  8
0
  6
CONTINUOUS
 62
     7
 10
37.799583018851017
 20
7.5
 30
0.0
 11
48.199583018851001
 21
7.5
 31
0.0
  0
LINE
  5
1061
  8
0
  6
CONTINUOUS
 62
     7
 10
48.199583018851001
 20
-1.941142838269001
 30
0.0
 11
37.799583018851017
 21
-1.941142838269001
 31
0.0
  0
LINE
  5
1062
  8
0
  6
CONTINUOUS
 62
     7
 10
48.199583018851001
 20
1.9411428382689451
 30
0.0
 11
37.799583018851017
 21
1.9411428382689451
 31
0.0
  0
LINE
  5
1063
  8
0
  6
CONTINUOUS
 62
     7
 10
48.199583018851001
 20
0.0
 30
0.0
 11
37.799583018851017
 21
0.0
 31
0.0
  0
LINE
  5
1064
  8
0
  6
CONTINUOUS
 62
     7
 10
48.199583018851001
 20
3.75
 30
0.0
 11
37.799583018851017
 21
3.75
 31
0.0
  0
LINE
  5
1065
  8
0
  6
CONTINUOUS
 62
     7
 10
48.199583018851001
 20
5.3033008588990924
 30
0.0
 11
37.799583018851017
 21
5.3033008588990924
 31
0.0
  0
LINE
  5
1066
  8
0
  6
CONTINUOUS
 62
     7
 10
48.199583018851001
 20
6.4951905283832607
 30
0.0
 11
37.799583018851017
 21
6.4951905283832607
 31
0.0
  0
LINE
  5
1067
  8
0
  6
CONTINUOUS
 62
     7
 10
48.199583018851001
 20
7.2444436971679798
 30
0.0
 11
37.799583018851017
 21
7.2444436971679798
 31
0.0
  0
LINE
  5
1068
  8
0
  6
CONTINUOUS
 62
     7
 10
32.499999999999908
 20
8.6999999999999318
 30
0.0
 11
32.499999999999908
 21
1.0
 31
0.0
  0
LINE
  5
1069
  8
0
  6
CONTINUOUS
 62
     7
 10
37.499583018851013
 20
0.0
 30
0.0
 11
37.499583018851013
 21
7.1999999999999877
 31
0.0
  0
ARC
  5
106A
  8
0
  6
CONTINUOUS
 62
     7
 10
35.499583018851013
 20
5.5
 30
0.0
 40
2.0
 50
270.0
 51
0.0
  0
LINE
  5
106B
  8
0
  6
CONTINUOUS
 62
     7
 10
32.499999999999908
 20
3.5
 30
0.0
 11
35.499583018851013
 21
3.5
 31
0.0
  0
LINE
  5
106C
  8
0
  6
CONTINUOUS
 62
     7
 10
32.499999999999908
 20
12.5
 30
0.0
 11
32.499999999999908
 21
9.0
 31
0.0
  0
LINE
  5
106D
  8
0
  6
CONTINUOUS
 62
     7
 10
37.799583018851017
 20
7.5
 30
0.0
 11
37.499583018851013
 21
7.1999999999999877
 31
0.0
  0
ARC
  5
106E
  8
0
  6
CONTINUOUS
 62
     7
 10
41.099583018850922
 20
0.0
 30
0.0
 40
8.5
 50
0.0
 51
28.072486935854489
  0
LINE
  5
106F
  8
0
  6
CONTINUOUS
 62
     7
 10
48.499583018851013
 20
4.0
 30
0.0
 11
48.5995830188509
 21
4.0
 31
0.0
  0
LINE
  5
1070
  8
0
  6
CONTINUOUS
 62
     7
 10
25.0
 20
61.81868735473347
 30
0.0
 11
-25.0
 21
61.818687354733292
 31
0.0
  0
LINE
  5
1071
  8
0
  6
CONTINUOUS
 62
     7
 10
-24.999999999999918
 20
101.8186873547332
 30
0.0
 11
25.000000000000082
 21
101.8186873547334
 31
0.0
  0
LINE
  5
1072
  8
0
  6
CONTINUOUS
 62
     7
 10
20.000000000000082
 20
94.31868735473347
 30
0.0
 11
-19.999999999999911
 21
94.318687354733285
 31
0.0
  0
LINE
  5
1073
  8
0
  6
CONTINUOUS
 62
     7
 10
2.700000000000002
 20
84.093687354733447
 30
0.0
 11
-2.7999999999999972
 21
84.093687354733447
 31
0.0
  0
LINE
  5
1074
  8
0
  6
CONTINUOUS
 62
     3
 10
0.8638913098382943
 20
85.818687354733484
 30
0.0
 11
-2.7999999999999972
 21
84.485139976365645
 31
0.0
  0
LINE
  5
1075
  8
0
  6
CONTINUOUS
 62
     3
 10
2.700000000000002
 20
85.422798492353749
 30
0.0
 11
-0.9517028385576082
 21
84.093687354733447
 31
0.0
  0
LINE
  5
1076
  8
0
  6
CONTINUOUS
 62
     7
 10
3.0000000000000848
 20
85.818687354733484
 30
0.0
 11
-2.9999999999999138
 21
85.818687354733484
 31
0.0
  0
LINE
  5
1077
  8
0
  6
CONTINUOUS
 62
     7
 10
2.5999999999999939
 20
81.318687354733456
 30
0.0
 11
-2.5999999999998091
 21
81.318687354733456
 31
0.0
  0
LINE
  5
1078
  8
0
  6
CONTINUOUS
 62
     7
 10
2.5000000000000848
 20
84.018687354733459
 30
0.0
 11
-2.4999999999999138
 21
84.018687354733459
 31
0.0
  0
LINE
  5
1079
  8
0
  6
CONTINUOUS
 62
     7
 10
20.0
 20
68.31868735473347
 30
0.0
 11
-19.999999999999911
 21
68.31868735473347
 31
0.0
  0
LINE
  5
107A
  8
0
  6
CONTINUOUS
 62
     7
 10
20.0
 20
78.31868735473347
 30
0.0
 11
-19.999999999999911
 21
78.31868735473347
 31
0.0
  0
LINE
  5
107B
  8
CENTER
  6
CENTER
 62
     1
 10
-24.389993742175111
 20
87.418687354733436
 30
0.0
 11
51.599583018850879
 21
87.418687354733436
 31
0.0
  0
LINE
  5
107C
  8
CENTER
  6
CENTER
 62
     1
 10
0.0000000000000071
 20
61.81868735473337
 30
0.0
 11
0.0000000000000782
 21
101.8186873547333
 31
0.0
  0
LINE
  5
107D
  8
0
  6
CONTINUOUS
 62
     7
 10
-25.0
 20
78.118687354733481
 30
0.0
 11
-24.999999999999918
 21
101.8186873547332
 31
0.0
  0
LINE
  5
107E
  8
0
  6
CONTINUOUS
 62
     7
 10
-19.999999999999911
 20
68.31868735473347
 30
0.0
 11
-19.999999999999911
 21
101.8186873547332
 31
0.0
  0
LINE
  5
107F
  8
0
  6
CONTINUOUS
 62
     7
 10
-20.5
 20
78.118687354733481
 30
0.0
 11
-31.999999999999929
 21
78.118687354733481
 31
0.0
  0
LINE
  5
1080
  8
0
  6
CONTINUOUS
 62
     7
 10
-31.999999999999929
 20
70.118687354733481
 30
0.0
 11
-19.999999999999911
 21
70.118687354733481
 31
0.0
  0
LINE
  5
1081
  8
0
  6
CONTINUOUS
 62
     7
 10
-21.499999999999911
 20
70.25498404957716
 30
0.0
 11
-31.999999999999929
 21
70.25498404957716
 31
0.0
  0
LINE
  5
1082
  8
0
  6
CONTINUOUS
 62
     7
 10
-21.499999999999911
 20
70.654585739595575
 30
0.0
 11
-31.999999999999929
 21
70.654585739595575
 31
0.0
  0
LINE
  5
1083
  8
0
  6
CONTINUOUS
 62
     7
 10
-21.499999999999911
 20
71.290260229987211
 30
0.0
 11
-31.6999999999999
 21
71.290260229987211
 31
0.0
  0
LINE
  5
1084
  8
0
  6
CONTINUOUS
 62
     7
 10
-21.499999999999911
 20
72.118687354733481
 30
0.0
 11
-31.999999999999929
 21
72.118687354733481
 31
0.0
  0
LINE
  5
1085
  8
0
  6
CONTINUOUS
 62
     7
 10
-21.499999999999911
 20
73.083411174323317
 30
0.0
 11
-31.999999999999929
 21
73.083411174323317
 31
0.0
  0
LINE
  5
1086
  8
0
  6
CONTINUOUS
 62
     7
 10
-21.499999999999911
 20
74.118687354733481
 30
0.0
 11
-31.999999999999929
 21
74.118687354733481
 31
0.0
  0
LINE
  5
1087
  8
0
  6
CONTINUOUS
 62
     7
 10
-31.999999999999929
 20
75.153963535143475
 30
0.0
 11
-21.499999999999911
 21
75.153963535143475
 31
0.0
  0
LINE
  5
1088
  8
0
  6
CONTINUOUS
 62
     7
 10
-31.999999999999929
 20
76.118687354733481
 30
0.0
 11
-21.499999999999911
 21
76.118687354733481
 31
0.0
  0
LINE
  5
1089
  8
0
  6
CONTINUOUS
 62
     7
 10
-31.999999999999929
 20
76.947114479479623
 30
0.0
 11
-21.499999999999911
 21
76.947114479479623
 31
0.0
  0
LINE
  5
108A
  8
0
  6
CONTINUOUS
 62
     7
 10
-31.999999999999929
 20
77.582788969871274
 30
0.0
 11
-21.499999999999911
 21
77.582788969871274
 31
0.0
  0
LINE
  5
108B
  8
0
  6
CONTINUOUS
 62
     7
 10
-31.999999999999929
 20
77.982390659889688
 30
0.0
 11
-21.499999999999911
 21
77.982390659889688
 31
0.0
  0
LINE
  5
108C
  8
0
  6
CONTINUOUS
 62
     7
 10
-32.499999999999922
 20
77.618687354733481
 30
0.0
 11
-32.499999999999922
 21
70.618687354733481
 31
0.0
  0
LINE
  5
108D
  8
0
  6
CONTINUOUS
 62
     7
 10
-31.999999999999929
 20
78.118687354733481
 30
0.0
 11
-31.999999999999929
 21
71.587280611313986
 31
0.0
  0
LINE
  5
108E
  8
0
  6
CONTINUOUS
 62
     7
 10
-31.999999999999929
 20
71.021595186364777
 30
0.0
 11
-31.999999999999929
 21
70.118687354733481
 31
0.0
  0
LINE
  5
108F
  8
0
  6
CONTINUOUS
 62
     7
 10
-31.6999999999999
 20
71.021595186364777
 30
0.0
 11
-32.499999999999922
 21
71.021595186364777
 31
0.0
  0
LINE
  5
1090
  8
0
  6
CONTINUOUS
 62
     7
 10
-31.6999999999999
 20
71.587280611313986
 30
0.0
 11
-31.6999999999999
 21
71.021595186364777
 31
0.0
  0
LINE
  5
1091
  8
0
  6
CONTINUOUS
 62
     7
 10
-32.499999999999922
 20
71.587280611313986
 30
0.0
 11
-31.6999999999999
 21
71.587280611313986
 31
0.0
  0
LINE
  5
1092
  8
0
  6
CONTINUOUS
 62
     7
 10
-31.999999999999929
 20
70.118687354733481
 30
0.0
 11
-32.499999999999922
 21
70.618687354733481
 31
0.0
  0
LINE
  5
1093
  8
0
  6
CONTINUOUS
 62
     7
 10
-32.499999999999922
 20
77.618687354733481
 30
0.0
 11
-31.999999999999929
 21
78.118687354733481
 31
0.0
  0
LINE
  5
1094
  8
0
  6
CONTINUOUS
 62
     7
 10
-25.0
 20
61.818687354733292
 30
0.0
 11
-25.0
 21
70.118687354733481
 31
0.0
  0
LINE
  5
1095
  8
0
  6
CONTINUOUS
 62
     7
 10
-20.0
 20
67.06868735473347
 30
0.0
 11
-12.5
 21
67.06868735473347
 31
0.0
  0
LINE
  5
1096
  8
CENTER
  6
CENTER
 62
     1
 10
-8.25
 20
69.31868735473347
 30
0.0
 11
-24.25000000000005
 21
69.31868735473347
 31
0.0
  0
ARC
  5
1097
  8
0
  6
CONTINUOUS
 62
     7
 10
-17.745001059996611
 20
80.618687354733481
 30
0.0
 40
4.3549989400033358
 50
154.3283545098183
 51
205.6716454901846
  0
LINE
  5
1098
  8
0
  6
CONTINUOUS
 62
     7
 10
-20.499999999999911
 20
70.118687354733481
 30
0.0
 11
-20.5
 21
82.618687354733467
 31
0.0
  0
LINE
  5
1099
  8
0
  6
CONTINUOUS
 62
     7
 10
-21.499999999999911
 20
78.118687354733481
 30
0.0
 11
-21.499999999999911
 21
70.118687354733481
 31
0.0
  0
ARC
  5
109A
  8
0
  6
DASHED
 62
     3
 10
-20.0
 20
69.31868735473347
 30
0.0
 40
2.2500000000000511
 50
89.99999999999747
 51
159.172503067988
  0
ARC
  5
109B
  8
0
  6
CONTINUOUS
 62
     7
 10
-21.489866370181701
 20
78.818687354733456
 30
0.0
 40
0.2000000000000588
 50
205.67164549018489
 51
270.0
  0
LINE
  5
109C
  8
0
  6
CONTINUOUS
 62
     7
 10
-21.489866370181701
 20
78.618687354733481
 30
0.0
 11
-20.499999999999911
 21
78.618687354733481
 31
0.0
  0
ARC
  5
109D
  8
0
  6
CONTINUOUS
 62
     7
 10
-14.4
 20
87.418687354733436
 30
0.0
 40
7.9999999999999369
 50
145.77113367218729
 51
177.13401601740051
  0
LINE
  5
109E
  8
0
  6
CONTINUOUS
 62
     7
 10
-21.0143782776614
 20
87.81868735473347
 30
0.0
 11
-21.0143782776614
 21
91.918687354733436
 31
0.0
  0
ARC
  5
109F
  8
0
  6
CONTINUOUS
 62
     7
 10
-21.489866370181812
 20
82.418687354733436
 30
0.0
 40
0.1999999999999886
 50
90.0
 51
154.32835450982961
  0
ARC
  5
10A0
  8
0
  6
CONTINUOUS
 62
     7
 10
-14.4
 20
87.418687354733436
 30
0.0
 40
7.9999999999998321
 50
182.86598398259949
 51
214.22886632781271
  0
LINE
  5
10A1
  8
0
  6
CONTINUOUS
 62
     7
 10
-20.000000000000391
 20
82.618687354733467
 30
0.0
 11
-21.000000000000401
 21
82.618687354733467
 31
0.0
  0
LINE
  5
10A2
  8
0
  6
CONTINUOUS
 62
     7
 10
-20.5
 20
82.618687354733467
 30
0.0
 11
-21.489866370181812
 21
82.618687354733467
 31
0.0
  0
LINE
  5
10A3
  8
0
  6
CONTINUOUS
 62
     7
 10
-22.389993742175101
 20
87.81868735473347
 30
0.0
 11
-20.600000000000001
 21
87.81868735473347
 31
0.0
  0
LINE
  5
10A4
  8
0
  6
CONTINUOUS
 62
     7
 10
-20.600000000000001
 20
87.018687354733444
 30
0.0
 11
-22.389993742175101
 21
87.018687354733444
 31
0.0
  0
LINE
  5
10A5
  8
0
  6
CONTINUOUS
 62
     7
 10
-20.600000000000001
 20
87.81868735473347
 30
0.0
 11
-20.600000000000001
 21
87.018687354733444
 31
0.0
  0
LINE
  5
10A6
  8
0
  6
CONTINUOUS
 62
     7
 10
-19.999999999999911
 20
82.918687354733436
 30
0.0
 11
-21.0143782776614
 21
82.918687354733436
 31
0.0
  0
LINE
  5
10A7
  8
0
  6
CONTINUOUS
 62
     7
 10
-21.0143782776614
 20
82.918687354733436
 30
0.0
 11
-21.0143782776614
 21
87.018687354733444
 31
0.0
  0
LINE
  5
10A8
  8
0
  6
CONTINUOUS
 62
     7
 10
-21.0143782776614
 20
91.918687354733436
 30
0.0
 11
-19.999999999999911
 21
91.918687354733436
 31
0.0
  0
LINE
  5
10A9
  8
0
  6
CONTINUOUS
 62
     7
 10
-8.7135462651909972
 20
83.018687354733459
 30
0.0
 11
-5.9999999999999138
 21
78.31868735473347
 31
0.0
  0
LINE
  5
10AA
  8
0
  6
CONTINUOUS
 62
     7
 10
-2.4999999999999138
 20
81.318687354733456
 30
0.0
 11
-2.4999999999999138
 21
84.093687354733447
 31
0.0
  0
LINE
  5
10AB
  8
0
  6
CONTINUOUS
 62
     7
 10
-2.5999999999998091
 20
81.318687354733456
 30
0.0
 11
-2.5999999999998091
 21
82.318687354733456
 31
0.0
  0
ARC
  5
10AC
  8
0
  6
CONTINUOUS
 62
     7
 10
-12.5
 20
69.31868735473347
 30
0.0
 40
2.25
 50
270.0
 51
333.61220003875701
  0
LINE
  5
10AD
  8
CENTER
  6
CENTER
 62
     1
 10
-12.500000000000099
 20
65.068687354733456
 30
0.0
 11
-12.500000000000091
 21
73.56868735473347
 31
0.0
  0
LINE
  5
10AE
  8
0
  6
CONTINUOUS
 62
     7
 10
-2.9999999999999138
 20
83.018687354733459
 30
0.0
 11
-8.7135462651909972
 21
83.018687354733459
 31
0.0
  0
LINE
  5
10AF
  8
0
  6
CONTINUOUS
 62
     7
 10
-2.5999999999998091
 20
82.318687354733456
 30
0.0
 11
-8.3094010767584052
 21
82.318687354733456
 31
0.0
  0
LINE
  5
10B0
  8
0
  6
CONTINUOUS
 62
     7
 10
-2.7999999999999972
 20
84.093687354733447
 30
0.0
 11
-2.7999999999999972
 21
85.818687354733484
 31
0.0
  0
LINE
  5
10B1
  8
0
  6
CONTINUOUS
 62
     3
 10
-2.0599130903248968
 20
85.818687354733484
 30
0.0
 11
-2.7999999999999972
 21
85.549317748841645
 31
0.0
  0
LINE
  5
10B2
  8
0
  6
CONTINUOUS
 62
     7
 10
-2.9999999999999138
 20
85.818687354733484
 30
0.0
 11
-2.9999999999999138
 21
83.018687354733459
 31
0.0
  0
LINE
  5
10B3
  8
0
  6
CONTINUOUS
 62
     7
 10
32.5
 20
101.2186873547334
 30
0.0
 11
32.5
 21
93.818687354733456
 31
0.0
  0
LINE
  5
10B4
  8
0
  6
CONTINUOUS
 62
     7
 10
20.000000000000082
 20
101.2186873547334
 30
0.0
 11
20.000000000000082
 21
94.618687354733765
 31
0.0
  0
LINE
  5
10B5
  8
0
  6
CONTINUOUS
 62
     7
 10
20.000000000000082
 20
101.8186873547336
 30
0.0
 11
20.0
 21
68.31868735473347
 31
0.0
  0
CIRCLE
  5
10B6
  8
0
  6
CONTINUOUS
 62
     7
 10
29.000000000000082
 20
81.318687354733456
 30
0.0
 40
3.5
  0
LINE
  5
10B7
  8
CENTER
  6
CENTER
 62
     1
 10
23.500000000000082
 20
81.318687354733456
 30
0.0
 11
34.5
 21
81.318687354733456
 31
0.0
  0
LINE
  5
10B8
  8
CENTER
  6
CENTER
 62
     1
 10
34.5
 20
97.818687354733484
 30
0.0
 11
18.000000000000082
 21
97.81868735473347
 31
0.0
  0
LINE
  5
10B9
  8
0
  6
CONTINUOUS
 62
     7
 10
32.5
 20
78.118687354733481
 30
0.0
 11
32.199999999999982
 21
77.81868735473347
 31
0.0
  0
LINE
  5
10BA
  8
0
  6
CONTINUOUS
 62
     7
 10
25.0
 20
61.81868735473347
 30
0.0
 11
25.000000000000082
 21
83.918687354733436
 31
0.0
  0
LINE
  5
10BB
  8
0
  6
CONTINUOUS
 62
     7
 10
12.5
 20
67.06868735473364
 30
0.0
 11
20.0
 21
67.06868735473364
 31
0.0
  0
LINE
  5
10BC
  8
CENTER
  6
CENTER
 62
     1
 10
24.25
 20
69.31868735473364
 30
0.0
 11
8.2500000000000338
 21
69.31868735473364
 31
0.0
  0
LINE
  5
10BD
  8
0
  6
CONTINUOUS
 62
     7
 10
8.7135462651911837
 20
83.018687354733459
 30
0.0
 11
6.0000000000000853
 21
78.31868735473347
 31
0.0
  0
LINE
  5
10BE
  8
0
  6
CONTINUOUS
 62
     7
 10
2.5000000000000848
 20
84.093687354733447
 30
0.0
 11
2.5000000000000848
 21
81.318687354733456
 31
0.0
  0
LINE
  5
10BF
  8
0
  6
CONTINUOUS
 62
     7
 10
2.5999999999999939
 20
82.318687354733456
 30
0.0
 11
2.5999999999999939
 21
81.318687354733456
 31
0.0
  0
ARC
  5
10C0
  8
0
  6
DASHED
 62
     3
 10
12.5
 20
69.31868735473364
 30
0.0
 40
2.2499999999999671
 50
90.0
 51
206.38779996124819
  0
LINE
  5
10C1
  8
CENTER
  6
CENTER
 62
     1
 10
12.5
 20
65.068687354733669
 30
0.0
 11
12.5
 21
73.568687354733612
 31
0.0
  0
LINE
  5
10C2
  8
0
  6
CONTINUOUS
 62
     7
 10
3.0000000000000848
 20
83.018687354733459
 30
0.0
 11
8.7135462651911837
 21
83.018687354733459
 31
0.0
  0
LINE
  5
10C3
  8
0
  6
CONTINUOUS
 62
     7
 10
8.3094010767586042
 20
82.318687354733456
 30
0.0
 11
2.5999999999999939
 21
82.318687354733456
 31
0.0
  0
LINE
  5
10C4
  8
0
  6
CONTINUOUS
 62
     3
 10
2.700000000000002
 20
84.358620719877933
 30
0.0
 11
1.972101561605299
 21
84.093687354733447
 31
0.0
  0
LINE
  5
10C5
  8
0
  6
CONTINUOUS
 62
     7
 10
3.0000000000000848
 20
83.018687354733459
 30
0.0
 11
3.0000000000000848
 21
85.818687354733484
 31
0.0
  0
LINE
  5
10C6
  8
0
  6
CONTINUOUS
 62
     7
 10
2.700000000000002
 20
84.093687354733447
 30
0.0
 11
2.700000000000002
 21
85.818687354733484
 31
0.0
  0
LINE
  5
10C7
  8
0
  6
CONTINUOUS
 62
     7
 10
3.0000000000000848
 20
84.418687354733436
 30
0.0
 11
2.700000000000002
 21
84.418687354733436
 31
0.0
  0
CIRCLE
  5
10C8
  8
0
  6
CONTINUOUS
 62
     7
 10
29.000000000000082
 20
81.318687354733456
 30
0.0
 40
1.732050807568754
  0
CIRCLE
  5
10C9
  8
0
  6
CONTINUOUS
 62
     7
 10
29.000000000000082
 20
81.318687354733456
 30
0.0
 40
2.1499999999999759
  0
LINE
  5
10CA
  8
0
  6
CONTINUOUS
 62
     7
 10
27.500000000000281
 20
80.452661950949278
 30
0.0
 11
27.500000000000281
 21
82.184712758517946
 31
0.0
  0
LINE
  5
10CB
  8
0
  6
CONTINUOUS
 62
     7
 10
30.500000000000082
 20
82.184712758517946
 30
0.0
 11
30.500000000000082
 21
80.452661950949278
 31
0.0
  0
LINE
  5
10CC
  8
0
  6
CONTINUOUS
 62
     7
 10
25.500000000000082
 20
83.918687354733436
 30
0.0
 11
25.500000000000082
 21
78.118687354733481
 31
0.0
  0
LINE
  5
10CD
  8
CENTER
  6
CENTER
 62
     1
 10
29.000000000000082
 20
86.81868735473347
 30
0.0
 11
29.000000000000082
 21
75.81868735473347
 31
0.0
  0
ARC
  5
10CE
  8
0
  6
CONTINUOUS
 62
     7
 10
20.0
 20
69.31868735473364
 30
0.0
 40
2.25
 50
270.0
 51
90.0
  0
LINE
  5
10CF
  8
0
  6
CONTINUOUS
 62
     7
 10
29.000000000000188
 20
79.586636547164801
 30
0.0
 11
27.500000000000281
 21
80.452661950949278
 31
0.0
  0
LINE
  5
10D0
  8
0
  6
CONTINUOUS
 62
     7
 10
32.199999999999982
 20
77.81868735473347
 30
0.0
 11
25.800000000000178
 21
77.81868735473347
 31
0.0
  0
LINE
  5
10D1
  8
CENTER
  6
CENTER
 62
     1
 10
26.400000000000091
 20
81.318687354733456
 30
0.0
 11
26.85000000000008
 21
81.318687354733456
 31
0.0
  0
LINE
  5
10D2
  8
0
  6
CONTINUOUS
 62
     7
 10
25.800000000000178
 20
77.81868735473347
 30
0.0
 11
25.500000000000082
 21
78.118687354733481
 31
0.0
  0
LINE
  5
10D3
  8
0
  6
CONTINUOUS
 62
     7
 10
30.500000000000082
 20
80.452661950949278
 30
0.0
 11
29.000000000000188
 21
79.586636547164801
 31
0.0
  0
ARC
  5
10D4
  8
0
  6
CONTINUOUS
 62
     7
 10
23.500000000000082
 20
92.618687354733467
 30
0.0
 40
2.0
 50
0.0
 51
90.0
  0
LINE
  5
10D5
  8
0
  6
CONTINUOUS
 62
     7
 10
25.500000000000082
 20
83.918687354733436
 30
0.0
 11
22.700000000000099
 21
83.918687354733436
 31
0.0
  0
LINE
  5
10D6
  8
0
  6
CONTINUOUS
 62
     7
 10
22.700000000000099
 20
90.918687354733436
 30
0.0
 11
25.000000000000082
 21
90.918687354733436
 31
0.0
  0
LINE
  5
10D7
  8
0
  6
CONTINUOUS
 62
     7
 10
22.700000000000099
 20
83.918687354733436
 30
0.0
 11
22.700000000000099
 21
90.918687354733436
 31
0.0
  0
LINE
  5
10D8
  8
0
  6
CONTINUOUS
 62
     7
 10
22.700000000000099
 20
89.418687354733436
 30
0.0
 11
20.0
 21
89.418687354733436
 31
0.0
  0
LINE
  5
10D9
  8
0
  6
CONTINUOUS
 62
     7
 10
20.0
 20
85.418687354733436
 30
0.0
 11
22.700000000000099
 21
85.418687354733436
 31
0.0
  0
LINE
  5
10DA
  8
0
  6
CONTINUOUS
 62
     7
 10
20.000000000000082
 20
94.618687354733765
 30
0.0
 11
23.500000000000082
 21
94.618687354733481
 31
0.0
  0
LINE
  5
10DB
  8
0
  6
CONTINUOUS
 62
     7
 10
25.500000000000082
 20
90.918687354733436
 30
0.0
 11
25.500000000000082
 21
83.918687354733436
 31
0.0
  0
LINE
  5
10DC
  8
0
  6
CONTINUOUS
 62
     7
 10
27.500000000000281
 20
82.184712758517946
 30
0.0
 11
29.000000000000188
 21
83.050738162302238
 31
0.0
  0
LINE
  5
10DD
  8
0
  6
CONTINUOUS
 62
     7
 10
29.000000000000188
 20
83.050738162302238
 30
0.0
 11
30.500000000000082
 21
82.184712758517946
 31
0.0
  0
LINE
  5
10DE
  8
0
  6
CONTINUOUS
 62
     7
 10
25.000000000000082
 20
90.918687354733436
 30
0.0
 11
25.500000000000082
 21
90.918687354733436
 31
0.0
  0
LINE
  5
10DF
  8
0
  6
CONTINUOUS
 62
     7
 10
25.500000000000082
 20
92.618687354733467
 30
0.0
 11
25.500000000000082
 21
90.918687354733436
 31
0.0
  0
LINE
  5
10E0
  8
0
  6
CONTINUOUS
 62
     7
 10
25.000000000000082
 20
90.918687354733436
 30
0.0
 11
25.000000000000082
 21
93.941563010265824
 31
0.0
  0
LINE
  5
10E1
  8
0
  6
CONTINUOUS
 62
     7
 10
48.509000000000093
 20
94.618687354733481
 30
0.0
 11
48.209000000000117
 21
94.918687354733436
 31
0.0
  0
LINE
  5
10E2
  8
0
  6
CONTINUOUS
 62
     7
 10
48.509000000000093
 20
80.218687354733447
 30
0.0
 11
48.209000000000117
 21
79.918687354733436
 31
0.0
  0
ARC
  5
10E3
  8
0
  6
CONTINUOUS
 62
     7
 10
35.5090000000001
 20
81.918687354733436
 30
0.0
 40
2.0
 50
0.0
 51
90.0
  0
LINE
  5
10E4
  8
0
  6
CONTINUOUS
 62
     7
 10
32.5
 20
83.918687354733436
 30
0.0
 11
32.5
 21
81.318687354733456
 31
0.0
  0
LINE
  5
10E5
  8
0
  6
CONTINUOUS
 62
     7
 10
37.5090000000001
 20
80.218687354733447
 30
0.0
 11
37.5090000000001
 21
94.618687354733481
 31
0.0
  0
LINE
  5
10E6
  8
0
  6
CONTINUOUS
 62
     7
 10
48.209000000000117
 20
79.918687354733436
 30
0.0
 11
48.209000000000117
 21
94.918687354733436
 31
0.0
  0
LINE
  5
10E7
  8
0
  6
CONTINUOUS
 62
     7
 10
37.80899999999999
 20
94.918687354733322
 30
0.0
 11
37.80899999999999
 21
79.918687354733436
 31
0.0
  0
LINE
  5
10E8
  8
0
  6
CONTINUOUS
 62
     7
 10
48.209000000000117
 20
79.918687354733436
 30
0.0
 11
37.80899999999999
 21
79.918687354733436
 31
0.0
  0
LINE
  5
10E9
  8
0
  6
CONTINUOUS
 62
     7
 10
37.80899999999999
 20
80.923496826350117
 30
0.0
 11
48.209000000000117
 21
80.923496826350117
 31
0.0
  0
LINE
  5
10EA
  8
0
  6
CONTINUOUS
 62
     7
 10
37.80899999999999
 20
80.174243657565384
 30
0.0
 11
48.209000000000117
 21
80.174243657565384
 31
0.0
  0
LINE
  5
10EB
  8
0
  6
CONTINUOUS
 62
     7
 10
32.5
 20
81.318687354733456
 30
0.0
 11
32.5
 21
78.118687354733481
 31
0.0
  0
LINE
  5
10EC
  8
0
  6
CONTINUOUS
 62
     7
 10
37.5090000000001
 20
80.218687354733447
 30
0.0
 11
37.80899999999999
 21
79.918687354733436
 31
0.0
  0
LINE
  5
10ED
  8
0
  6
CONTINUOUS
 62
     7
 10
37.80899999999999
 20
94.918687354733322
 30
0.0
 11
48.209000000000117
 21
94.918687354733436
 31
0.0
  0
LINE
  5
10EE
  8
0
  6
CONTINUOUS
 62
     7
 10
48.209000000000117
 20
94.663131051901416
 30
0.0
 11
37.80899999999999
 21
94.663131051901416
 31
0.0
  0
LINE
  5
10EF
  8
0
  6
CONTINUOUS
 62
     7
 10
48.209000000000117
 20
92.721988213632471
 30
0.0
 11
37.80899999999999
 21
92.721988213632471
 31
0.0
  0
LINE
  5
10F0
  8
0
  6
CONTINUOUS
 62
     7
 10
37.80899999999999
 20
91.168687354733436
 30
0.0
 11
48.209000000000117
 21
91.168687354733436
 31
0.0
  0
LINE
  5
10F1
  8
0
  6
CONTINUOUS
 62
     7
 10
37.80899999999999
 20
89.359830193002267
 30
0.0
 11
48.209000000000117
 21
89.359830193002267
 31
0.0
  0
LINE
  5
10F2
  8
0
  6
CONTINUOUS
 62
     7
 10
37.80899999999999
 20
85.477544516464491
 30
0.0
 11
48.209000000000117
 21
85.477544516464491
 31
0.0
  0
LINE
  5
10F3
  8
0
  6
CONTINUOUS
 62
     7
 10
37.80899999999999
 20
87.418687354733436
 30
0.0
 11
48.209000000000117
 21
87.418687354733436
 31
0.0
  0
LINE
  5
10F4
  8
0
  6
CONTINUOUS
 62
     7
 10
37.80899999999999
 20
83.668687354733436
 30
0.0
 11
48.209000000000117
 21
83.668687354733436
 31
0.0
  0
LINE
  5
10F5
  8
0
  6
CONTINUOUS
 62
     7
 10
37.80899999999999
 20
82.115386495834287
 30
0.0
 11
48.209000000000117
 21
82.115386495834287
 31
0.0
  0
LINE
  5
10F6
  8
0
  6
CONTINUOUS
 62
     7
 10
37.80899999999999
 20
93.913877883116697
 30
0.0
 11
48.209000000000117
 21
93.913877883116697
 31
0.0
  0
LINE
  5
10F7
  8
0
  6
CONTINUOUS
 62
     7
 10
32.5
 20
94.31868735473347
 30
0.0
 11
32.5
 21
83.918687354733436
 31
0.0
  0
LINE
  5
10F8
  8
0
  6
CONTINUOUS
 62
     7
 10
35.5090000000001
 20
83.918687354733436
 30
0.0
 11
32.5
 21
83.918687354733436
 31
0.0
  0
ARC
  5
10F9
  8
0
  6
CONTINUOUS
 62
     7
 10
35.5090000000001
 20
92.918687354733436
 30
0.0
 40
1.9999999999999429
 50
270.0
 51
0.0
  0
LINE
  5
10FA
  8
0
  6
CONTINUOUS
 62
     7
 10
32.5
 20
90.918687354733436
 30
0.0
 11
35.5090000000001
 21
90.918687354733436
 31
0.0
  0
LINE
  5
10FB
  8
0
  6
CONTINUOUS
 62
     7
 10
37.80899999999999
 20
94.918687354733322
 30
0.0
 11
37.5090000000001
 21
94.618687354733481
 31
0.0
  0
LINE
  5
10FC
  8
0
  6
CONTINUOUS
 62
     7
 10
48.509000000000093
 20
94.618687354733481
 30
0.0
 11
48.509000000000093
 21
80.218687354733447
 31
0.0
  0
ARC
  5
10FD
  8
0
  6
CONTINUOUS
 62
     7
 10
41.109000000000002
 20
87.418687354733436
 30
0.0
 40
8.4999999999999396
 50
2.6972681339374418
 51
28.072486935854489
  0
LINE
  5
10FE
  8
0
  6
CONTINUOUS
 62
     7
 10
48.609000000000002
 20
91.418687354733436
 30
0.0
 11
48.609000000000002
 21
87.81868735473347
 31
0.0
  0
ARC
  5
10FF
  8
0
  6
CONTINUOUS
 62
     7
 10
41.109000000000002
 20
87.418687354733436
 30
0.0
 40
8.5
 50
331.9275130641455
 51
357.30273186606252
  0
LINE
  5
1100
  8
0
  6
CONTINUOUS
 62
     7
 10
48.509000000000093
 20
87.81868735473347
 30
0.0
 11
49.599583018850893
 21
87.81868735473347
 31
0.0
  0
LINE
  5
1101
  8
0
  6
CONTINUOUS
 62
     7
 10
48.609000000000002
 20
87.018687354733444
 30
0.0
 11
48.609000000000002
 21
83.418687354733436
 31
0.0
  0
LINE
  5
1102
  8
0
  6
CONTINUOUS
 62
     7
 10
49.599583018850893
 20
87.018687354733444
 30
0.0
 11
48.509000000000093
 21
87.018687354733444
 31
0.0
  0
LINE
  5
1103
  8
0
  6
CONTINUOUS
 62
     7
 10
48.609000000000002
 20
83.418687354733436
 30
0.0
 11
48.509000000000093
 21
83.418687354733436
 31
0.0
  0
LINE
  5
1104
  8
0
  6
CONTINUOUS
 62
     7
 10
48.509000000000093
 20
91.418687354733436
 30
0.0
 11
48.609000000000002
 21
91.418687354733436
 31
0.0
  0
LINE
  5
1105
  8
0
  6
CONTINUOUS
 62
     7
 10
32.199999999999982
 20
101.5186873547334
 30
0.0
 11
32.5
 21
101.2186873547334
 31
0.0
  0
LINE
  5
1106
  8
0
  6
CONTINUOUS
 62
     7
 10
20.000000000000082
 20
101.5186873547334
 30
0.0
 11
32.199999999999982
 21
101.5186873547334
 31
0.0
  0
LINE
  5
1107
  8
0
  6
CONTINUOUS
 62
     7
 10
25.000000000000082
 20
101.5186873547334
 30
0.0
 11
25.000000000000082
 21
101.8186873547334
 31
0.0
  0
LINE
  5
1108
  8
CENTER
  6
CENTER
 62
     1
 10
158.16673447178289
 20
0.0
 30
0.0
 11
234.1519392129722
 21
0.0
 31
0.0
  0
LINE
  5
1109
  8
0
  6
CONTINUOUS
 62
     7
 10
189.7663174906337
 20
29.99999999999994
 30
0.0
 11
229.7663174906337
 21
29.99999999999994
 31
0.0
  0
LINE
  5
110A
  8
0
  6
CONTINUOUS
 62
     7
 10
234.7663174906337
 20
-58.499999999999368
 30
0.0
 11
184.7663174906337
 21
-58.499999999999368
 31
0.0
  0
LINE
  5
110B
  8
0
  6
CONTINUOUS
 62
     7
 10
184.7663174906337
 20
-65.999999999999403
 30
0.0
 11
234.7663174906337
 21
-65.999999999999403
 31
0.0
  0
LINE
  5
110C
  8
CENTER
  6
CENTER
 62
     1
 10
191.2663174906337
 20
24.0
 30
0.0
 11
203.2663174906337
 21
24.0
 31
0.0
  0
LINE
  5
110D
  8
CENTER
  6
CENTER
 62
     1
 10
191.2663174906337
 20
-24.0
 30
0.0
 11
203.2663174906337
 21
-24.0
 31
0.0
  0
LINE
  5
110E
  8
0
  6
CONTINUOUS
 62
     7
 10
112.3831587453169
 20
-53.499999999999368
 30
0.0
 11
112.3831587453169
 21
-9.0
 31
0.0
  0
LINE
  5
110F
  8
0
  6
CONTINUOUS
 62
     7
 10
119.8831587453169
 20
-65.999999999999403
 30
0.0
 11
119.8831587453169
 21
29.99999999999994
 31
0.0
  0
LINE
  5
1110
  8
0
  6
CONTINUOUS
 62
     7
 10
79.883158745316933
 20
-58.499999999999368
 30
0.0
 11
119.8831587453169
 21
-58.499999999999368
 31
0.0
  0
LINE
  5
1111
  8
0
  6
CONTINUOUS
 62
     7
 10
79.883158745316933
 20
-65.999999999999403
 30
0.0
 11
119.8831587453169
 21
-65.999999999999403
 31
0.0
  0
LINE
  5
1112
  8
0
  6
CONTINUOUS
 62
     7
 10
79.883158745316933
 20
-65.999999999999403
 30
0.0
 11
79.883158745316933
 21
-58.499999999999368
 31
0.0
  0
LINE
  5
1113
  8
CENTER
  6
CENTER
 62
     1
 10
87.383158745316948
 20
-56.499999999999382
 30
0.0
 11
87.383158745316933
 21
-67.999999999999403
 31
0.0
  0
ARC
  5
1114
  8
0
  6
CONTINUOUS
 62
     7
 10
107.3831587453169
 20
-53.499999999999368
 30
0.0
 40
5.0
 50
270.0
 51
0.0
  0
LINE
  5
1115
  8
0
  6
CONTINUOUS
 62
     7
 10
119.2831587453169
 20
8.9999999999999432
 30
0.0
 11
95.883158745316919
 21
8.9999999999999432
 31
0.0
  0
LINE
  5
1116
  8
0
  6
CONTINUOUS
 62
     7
 10
102.3831587453169
 20
12.99999999999994
 30
0.0
 11
96.383158745316933
 21
12.99999999999994
 31
0.0
  0
LINE
  5
1117
  8
0
  6
CONTINUOUS
 62
     7
 10
96.383158745316933
 20
1.0
 30
0.0
 11
98.050124371657517
 21
1.0
 31
0.0
  0
LINE
  5
1118
  8
0
  6
CONTINUOUS
 62
     7
 10
96.383158745316933
 20
-1.0
 30
0.0
 11
98.050124371657517
 21
-1.0
 31
0.0
  0
LINE
  5
1119
  8
0
  6
CONTINUOUS
 62
     7
 10
96.183158745316774
 20
-9.0000000000000568
 30
0.0
 11
102.3831587453169
 21
-9.0000000000000568
 31
0.0
  0
LINE
  5
111A
  8
0
  6
CONTINUOUS
 62
     7
 10
96.183158745316774
 20
-9.0000000000000568
 30
0.0
 11
96.883158745316933
 21
-9.0
 31
0.0
  0
LINE
  5
111B
  8
0
  6
CONTINUOUS
 62
     7
 10
86.383158745316933
 20
29.99999999999994
 30
0.0
 11
119.8831587453169
 21
29.99999999999994
 31
0.0
  0
LINE
  5
111C
  8
0
  6
CONTINUOUS
 62
     7
 10
112.38315874531671
 20
-30.0
 30
0.0
 11
86.383158745316933
 21
-30.0
 31
0.0
  0
LINE
  5
111D
  8
0
  6
CONTINUOUS
 62
     7
 10
99.383158745316933
 20
-24.999999999999879
 30
0.0
 11
93.383158745316919
 21
-25.0
 31
0.0
  0
LINE
  5
111E
  8
0
  6
CONTINUOUS
 62
     7
 10
96.383158745316933
 20
28.49999999999994
 30
0.0
 11
102.3831587453169
 21
28.49999999999994
 31
0.0
  0
LINE
  5
111F
  8
0
  6
CONTINUOUS
 62
     7
 10
96.383158745316933
 20
25.0
 30
0.0
 11
99.383158745316933
 21
25.0
 31
0.0
  0
LINE
  5
1120
  8
0
  6
CONTINUOUS
 62
     7
 10
97.883158745316933
 20
-24.099999999999909
 30
0.0
 11
96.383158745316933
 21
-24.100000000000019
 31
0.0
  0
LINE
  5
1121
  8
0
  6
CONTINUOUS
 62
     7
 10
97.883158745316933
 20
-23.199999999999871
 30
0.0
 11
96.383158745316933
 21
-23.199999999999982
 31
0.0
  0
LINE
  5
1122
  8
0
  6
CONTINUOUS
 62
     7
 10
97.883158745316933
 20
-22.300000000000011
 30
0.0
 11
96.383158745316933
 21
-22.300000000000011
 31
0.0
  0
LINE
  5
1123
  8
0
  6
CONTINUOUS
 62
     7
 10
97.883158745316933
 20
-21.400000000000031
 30
0.0
 11
96.383158745316933
 21
-21.400000000000031
 31
0.0
  0
LINE
  5
1124
  8
0
  6
CONTINUOUS
 62
     7
 10
98.383158745316933
 20
-20.5
 30
0.0
 11
96.383158745316933
 21
-20.50000000000005
 31
0.0
  0
LINE
  5
1125
  8
0
  6
CONTINUOUS
 62
     7
 10
97.883158745316933
 20
-19.600000000000019
 30
0.0
 11
96.383158745316933
 21
-19.600000000000069
 31
0.0
  0
LINE
  5
1126
  8
0
  6
CONTINUOUS
 62
     7
 10
97.883158745316933
 20
-18.700000000000099
 30
0.0
 11
96.383158745316933
 21
-18.700000000000099
 31
0.0
  0
LINE
  5
1127
  8
0
  6
CONTINUOUS
 62
     7
 10
97.883158745316933
 20
-17.800000000000061
 30
0.0
 11
96.383158745316933
 21
-17.800000000000061
 31
0.0
  0
LINE
  5
1128
  8
0
  6
CONTINUOUS
 62
     7
 10
97.883158745316933
 20
-16.900000000000091
 30
0.0
 11
96.383158745316933
 21
-16.900000000000201
 31
0.0
  0
LINE
  5
1129
  8
0
  6
CONTINUOUS
 62
     7
 10
99.383158745316933
 20
-16.000000000000171
 30
0.0
 11
96.383158745316933
 21
-16.0
 31
0.0
  0
LINE
  5
112A
  8
0
  6
CONTINUOUS
 62
     7
 10
102.3831587453169
 20
-28.50000000000005
 30
0.0
 11
96.383158745316933
 21
-28.50000000000005
 31
0.0
  0
LINE
  5
112B
  8
0
  6
CONTINUOUS
 62
     7
 10
96.383158745316933
 20
16.0
 30
0.0
 11
99.383158745316933
 21
16.000000000000281
 31
0.0
  0
LINE
  5
112C
  8
0
  6
CONTINUOUS
 62
     7
 10
96.383158745316933
 20
16.900000000000261
 30
0.0
 11
97.883158745316933
 21
16.900000000000261
 31
0.0
  0
LINE
  5
112D
  8
0
  6
CONTINUOUS
 62
     7
 10
96.383158745316933
 20
17.800000000000239
 30
0.0
 11
97.883158745316933
 21
17.800000000000239
 31
0.0
  0
LINE
  5
112E
  8
0
  6
CONTINUOUS
 62
     7
 10
96.383158745316933
 20
18.700000000000269
 30
0.0
 11
97.883158745316933
 21
18.700000000000099
 31
0.0
  0
LINE
  5
112F
  8
0
  6
CONTINUOUS
 62
     7
 10
96.383158745316933
 20
19.60000000000025
 30
0.0
 11
97.883158745316933
 21
19.600000000000069
 31
0.0
  0
LINE
  5
1130
  8
0
  6
CONTINUOUS
 62
     7
 10
96.383158745316933
 20
20.500000000000281
 30
0.0
 11
98.383158745316933
 21
20.50000000000011
 31
0.0
  0
LINE
  5
1131
  8
0
  6
CONTINUOUS
 62
     7
 10
96.383158745316933
 20
21.400000000000091
 30
0.0
 11
97.883158745316933
 21
21.400000000000091
 31
0.0
  0
LINE
  5
1132
  8
0
  6
CONTINUOUS
 62
     7
 10
96.383158745316933
 20
22.300000000000122
 30
0.0
 11
97.883158745316933
 21
22.300000000000122
 31
0.0
  0
LINE
  5
1133
  8
0
  6
CONTINUOUS
 62
     7
 10
96.383158745316933
 20
23.200000000000099
 30
0.0
 11
97.883158745316933
 21
23.199999999999982
 31
0.0
  0
LINE
  5
1134
  8
0
  6
CONTINUOUS
 62
     7
 10
96.383158745316933
 20
24.10000000000008
 30
0.0
 11
97.883158745316933
 21
24.099999999999959
 31
0.0
  0
LINE
  5
1135
  8
0
  6
CONTINUOUS
 62
     7
 10
102.3831587453169
 20
-12.50000000000005
 30
0.0
 11
96.383158745316933
 21
-12.50000000000005
 31
0.0
  0
LINE
  5
1136
  8
0
  6
CONTINUOUS
 62
     7
 10
95.883158745316919
 20
-8.6999999999998732
 30
0.0
 11
95.883158745316919
 21
-1.300000000000068
 31
0.0
  0
LINE
  5
1137
  8
0
  6
CONTINUOUS
 62
     7
 10
86.383158745316933
 20
-30.0
 30
0.0
 11
86.383158745316933
 21
29.99999999999994
 31
0.0
  0
LINE
  5
1138
  8
0
  6
CONTINUOUS
 62
     7
 10
90.383158745316933
 20
28.49999999999994
 30
0.0
 11
90.383158745316933
 21
-28.50000000000005
 31
0.0
  0
LINE
  5
1139
  8
0
  6
CONTINUOUS
 62
     7
 10
96.383158745316933
 20
-18.700000000000099
 30
0.0
 11
96.383158745316933
 21
-19.600000000000069
 31
0.0
  0
LINE
  5
113A
  8
0
  6
CONTINUOUS
 62
     7
 10
96.383158745316933
 20
-24.100000000000019
 30
0.0
 11
96.383158745316933
 21
-30.0
 31
0.0
  0
LINE
  5
113B
  8
0
  6
CONTINUOUS
 62
     7
 10
96.383158745316933
 20
-28.50000000000005
 30
0.0
 11
90.383158745316933
 21
-28.50000000000005
 31
0.0
  0
TEXT
  5
113C
  8
0
  6
CONTINUOUS
 62
     7
 10
92.931115878121105
 20
-25.219999999999999
 30
0.0
 40
1.1999999999999991
  1
0
 50
90.0
 41
0.9
  7
CONVERTER_2
  0
LINE
  5
113D
  8
0
  6
CONTINUOUS
 62
     7
 10
96.383158745316933
 20
-24.0
 30
0.0
 11
94.883158745316933
 21
-24.0
 31
0.0
  0
LINE
  5
113E
  8
0
  6
CONTINUOUS
 62
     7
 10
96.383158745316933
 20
-23.0
 30
0.0
 11
94.883158745316933
 21
-23.0
 31
0.0
  0
LINE
  5
113F
  8
0
  6
CONTINUOUS
 62
     7
 10
96.383158745316933
 20
-22.0
 30
0.0
 11
94.883158745316933
 21
-22.0
 31
0.0
  0
LINE
  5
1140
  8
0
  6
CONTINUOUS
 62
     7
 10
96.383158745316933
 20
-21.0
 30
0.0
 11
94.883158745316933
 21
-21.0
 31
0.0
  0
LINE
  5
1141
  8
0
  6
CONTINUOUS
 62
     7
 10
96.383158745316933
 20
-20.0
 30
0.0
 11
94.383158745316933
 21
-20.0
 31
0.0
  0
LINE
  5
1142
  8
0
  6
CONTINUOUS
 62
     7
 10
96.383158745316933
 20
-19.0
 30
0.0
 11
94.883158745316933
 21
-19.0
 31
0.0
  0
LINE
  5
1143
  8
0
  6
CONTINUOUS
 62
     7
 10
96.383158745316933
 20
-23.199999999999982
 30
0.0
 11
96.383158745316933
 21
-24.100000000000019
 31
0.0
  0
LINE
  5
1144
  8
0
  6
CONTINUOUS
 62
     7
 10
96.383158745316933
 20
-22.300000000000011
 30
0.0
 11
96.383158745316933
 21
-23.199999999999982
 31
0.0
  0
LINE
  5
1145
  8
0
  6
CONTINUOUS
 62
     7
 10
96.383158745316933
 20
-21.400000000000031
 30
0.0
 11
96.383158745316933
 21
-22.300000000000011
 31
0.0
  0
LINE
  5
1146
  8
0
  6
CONTINUOUS
 62
     7
 10
96.383158745316933
 20
-20.50000000000005
 30
0.0
 11
96.383158745316933
 21
-21.400000000000031
 31
0.0
  0
LINE
  5
1147
  8
0
  6
CONTINUOUS
 62
     7
 10
96.383158745316933
 20
-19.600000000000069
 30
0.0
 11
96.383158745316933
 21
-20.50000000000005
 31
0.0
  0
LINE
  5
1148
  8
0
  6
CONTINUOUS
 62
     7
 10
96.383158745316933
 20
-10.0
 30
0.0
 11
96.383158745316933
 21
-11.0
 31
0.0
  0
TEXT
  5
1149
  8
0
  6
CONTINUOUS
 62
     7
 10
92.94174751155029
 20
-15.89129916770548
 30
0.0
 40
1.1999999999999991
  1
10
 50
90.0
 41
0.9
  7
CONVERTER_2
  0
LINE
  5
114A
  8
0
  6
CONTINUOUS
 62
     7
 10
96.383158745316933
 20
-18.0
 30
0.0
 11
94.883158745316933
 21
-18.0
 31
0.0
  0
LINE
  5
114B
  8
0
  6
CONTINUOUS
 62
     7
 10
96.383158745316933
 20
-17.0
 30
0.0
 11
94.883158745316933
 21
-17.0
 31
0.0
  0
LINE
  5
114C
  8
0
  6
CONTINUOUS
 62
     7
 10
96.383158745316933
 20
-16.0
 30
0.0
 11
94.883158745316933
 21
-16.0
 31
0.0
  0
LINE
  5
114D
  8
0
  6
CONTINUOUS
 62
     7
 10
96.383158745316933
 20
-15.0
 30
0.0
 11
93.383158745316919
 21
-15.0
 31
0.0
  0
LINE
  5
114E
  8
0
  6
CONTINUOUS
 62
     7
 10
96.383158745316933
 20
-14.0
 30
0.0
 11
94.883158745316933
 21
-14.0
 31
0.0
  0
LINE
  5
114F
  8
0
  6
CONTINUOUS
 62
     7
 10
96.383158745316933
 20
-13.0
 30
0.0
 11
94.883158745316933
 21
-13.0
 31
0.0
  0
LINE
  5
1150
  8
0
  6
CONTINUOUS
 62
     7
 10
96.383158745316933
 20
-12.0
 30
0.0
 11
94.883158745316933
 21
-12.0
 31
0.0
  0
LINE
  5
1151
  8
0
  6
CONTINUOUS
 62
     7
 10
96.383158745316933
 20
-11.0
 30
0.0
 11
94.883158745316933
 21
-11.0
 31
0.0
  0
LINE
  5
1152
  8
0
  6
CONTINUOUS
 62
     7
 10
96.383158745316933
 20
-12.0
 30
0.0
 11
96.383158745316933
 21
-16.0
 31
0.0
  0
LINE
  5
1153
  8
0
  6
CONTINUOUS
 62
     7
 10
96.383158745316933
 20
-11.0
 30
0.0
 11
96.383158745316933
 21
-12.0
 31
0.0
  0
LINE
  5
1154
  8
0
  6
CONTINUOUS
 62
     7
 10
96.383158745316933
 20
-17.800000000000061
 30
0.0
 11
96.383158745316933
 21
-18.700000000000099
 31
0.0
  0
LINE
  5
1155
  8
0
  6
CONTINUOUS
 62
     7
 10
96.383158745316933
 20
-16.900000000000201
 30
0.0
 11
96.383158745316933
 21
-17.800000000000061
 31
0.0
  0
LINE
  5
1156
  8
0
  6
CONTINUOUS
 62
     7
 10
96.383158745316933
 20
-16.0
 30
0.0
 11
96.383158745316933
 21
-16.900000000000201
 31
0.0
  0
TEXT
  5
1157
  8
0
  6
CONTINUOUS
 62
     7
 10
92.94174751155029
 20
-5.8912991677054833
 30
0.0
 40
1.1999999999999991
  1
20
 50
90.0
 41
0.9
  7
CONVERTER_2
  0
LINE
  5
1158
  8
0
  6
CONTINUOUS
 62
     7
 10
96.383158745316933
 20
-8.9999999999998863
 30
0.0
 11
96.383158745316933
 21
-10.0
 31
0.0
  0
LINE
  5
1159
  8
0
  6
CONTINUOUS
 62
     7
 10
95.883158745316919
 20
-8.6999999999998732
 30
0.0
 11
96.183158745316774
 21
-9.0000000000000568
 31
0.0
  0
LINE
  5
115A
  8
0
  6
CONTINUOUS
 62
     7
 10
96.383158745316933
 20
-10.0
 30
0.0
 11
94.383158745316933
 21
-10.0
 31
0.0
  0
LINE
  5
115B
  8
0
  6
CONTINUOUS
 62
     7
 10
96.383158745316933
 20
-8.9999999999998863
 30
0.0
 11
94.883158745316933
 21
-8.9999999999998863
 31
0.0
  0
LINE
  5
115C
  8
0
  6
CONTINUOUS
 62
     7
 10
95.883158745316919
 20
-8.0
 30
0.0
 11
94.883158745316933
 21
-8.0
 31
0.0
  0
LINE
  5
115D
  8
0
  6
CONTINUOUS
 62
     7
 10
95.883158745316919
 20
-7.0
 30
0.0
 11
94.883158745316933
 21
-7.0
 31
0.0
  0
LINE
  5
115E
  8
0
  6
CONTINUOUS
 62
     7
 10
95.883158745316919
 20
-6.0
 30
0.0
 11
94.883158745316933
 21
-6.0
 31
0.0
  0
LINE
  5
115F
  8
0
  6
CONTINUOUS
 62
     7
 10
95.883158745316919
 20
-6.0
 30
0.0
 11
95.883158745316919
 21
-5.0
 31
0.0
  0
LINE
  5
1160
  8
0
  6
CONTINUOUS
 62
     7
 10
95.883158745316919
 20
-5.0
 30
0.0
 11
95.883158745316919
 21
-4.0
 31
0.0
  0
LINE
  5
1161
  8
0
  6
CONTINUOUS
 62
     7
 10
95.883158745316919
 20
-5.0
 30
0.0
 11
93.383158745316919
 21
-5.0
 31
0.0
  0
LINE
  5
1162
  8
0
  6
CONTINUOUS
 62
     7
 10
95.883158745316919
 20
-4.0
 30
0.0
 11
94.883158745316933
 21
-4.0
 31
0.0
  0
LINE
  5
1163
  8
0
  6
CONTINUOUS
 62
     7
 10
95.883158745316919
 20
-3.0
 30
0.0
 11
94.883158745316933
 21
-3.0
 31
0.0
  0
TEXT
  5
1164
  8
0
  6
CONTINUOUS
 62
     7
 10
92.94174751155029
 20
14.631299167705761
 30
0.0
 40
1.1999999999999991
  1
10
 50
90.0
 41
0.9
  7
CONVERTER_2
  0
LINE
  5
1165
  8
0
  6
CONTINUOUS
 62
     7
 10
96.383158745316933
 20
28.49999999999994
 30
0.0
 11
96.383158745316933
 21
12.99999999999994
 31
0.0
  0
LINE
  5
1167
  8
0
  6
CONTINUOUS
 62
     7
 10
95.883158745316919
 20
6.0
 30
0.0
 11
95.883158745316919
 21
7.0
 31
0.0
  0
TEXT
  5
1168
  8
0
  6
CONTINUOUS
 62
     7
 10
92.94174751155029
 20
4.271299167705596
 30
0.0
 40
1.1999999999999991
  1
20
 50
90.0
 41
0.9
  7
CONVERTER_2
  0
LINE
  5
1169
  8
0
  6
CONTINUOUS
 62
     7
 10
96.383158745316933
 20
1.0
 30
0.0
 11
96.383158745316933
 21
-1.0
 31
0.0
  0
LINE
  5
116A
  8
0
  6
CONTINUOUS
 62
     7
 10
96.183158745316774
 20
1.0
 30
0.0
 11
96.383158745316933
 21
1.0
 31
0.0
  0
LINE
  5
116B
  8
0
  6
CONTINUOUS
 62
     7
 10
95.883158745316919
 20
1.3000000000001251
 30
0.0
 11
95.883158745316919
 21
2.0
 31
0.0
  0
LINE
  5
116C
  8
0
  6
CONTINUOUS
 62
     7
 10
96.183158745316774
 20
-1.0
 30
0.0
 11
96.383158745316933
 21
-1.0
 31
0.0
  0
LINE
  5
116D
  8
0
  6
CONTINUOUS
 62
     7
 10
96.183158745316774
 20
-1.0
 30
0.0
 11
96.383158745316933
 21
-1.0
 31
0.0
  0
LINE
  5
116E
  8
0
  6
CONTINUOUS
 62
     7
 10
95.883158745316919
 20
-1.300000000000068
 30
0.0
 11
96.183158745316774
 21
-1.0
 31
0.0
  0
LINE
  5
116F
  8
0
  6
CONTINUOUS
 62
     7
 10
96.183158745316774
 20
1.0
 30
0.0
 11
95.883158745316919
 21
1.3000000000001251
 31
0.0
  0
LINE
  5
1170
  8
0
  6
CONTINUOUS
 62
     7
 10
94.883158745316933
 20
1.0
 30
0.0
 11
96.183158745316774
 21
1.0
 31
0.0
  0
LINE
  5
1171
  8
0
  6
CONTINUOUS
 62
     7
 10
94.383158745316933
 20
0.0
 30
0.0
 11
96.383158745316933
 21
0.0
 31
0.0
  0
LINE
  5
1172
  8
0
  6
CONTINUOUS
 62
     7
 10
94.883158745316933
 20
2.0
 30
0.0
 11
95.883158745316919
 21
2.0
 31
0.0
  0
LINE
  5
1173
  8
0
  6
CONTINUOUS
 62
     7
 10
94.883158745316933
 20
3.0
 30
0.0
 11
95.883158745316919
 21
3.0
 31
0.0
  0
LINE
  5
1174
  8
0
  6
CONTINUOUS
 62
     7
 10
94.883158745316933
 20
4.0
 30
0.0
 11
95.883158745316919
 21
4.0
 31
0.0
  0
LINE
  5
1175
  8
0
  6
CONTINUOUS
 62
     7
 10
93.383158745316919
 20
5.0
 30
0.0
 11
95.883158745316919
 21
5.0
 31
0.0
  0
LINE
  5
1176
  8
0
  6
CONTINUOUS
 62
     7
 10
94.883158745316933
 20
6.0
 30
0.0
 11
95.883158745316919
 21
6.0
 31
0.0
  0
LINE
  5
1177
  8
0
  6
CONTINUOUS
 62
     7
 10
95.883158745316919
 20
2.0
 30
0.0
 11
95.883158745316919
 21
3.0
 31
0.0
  0
LINE
  5
1178
  8
0
  6
CONTINUOUS
 62
     7
 10
95.883158745316919
 20
3.0
 30
0.0
 11
95.883158745316919
 21
4.0
 31
0.0
  0
LINE
  5
1179
  8
0
  6
CONTINUOUS
 62
     7
 10
95.883158745316919
 20
4.0
 30
0.0
 11
95.883158745316919
 21
5.0
 31
0.0
  0
LINE
  5
117A
  8
0
  6
CONTINUOUS
 62
     7
 10
95.883158745316919
 20
5.0
 30
0.0
 11
95.883158745316919
 21
6.0
 31
0.0
  0
LINE
  5
117B
  8
0
  6
CONTINUOUS
 62
     7
 10
95.883158745316919
 20
-2.0
 30
0.0
 11
94.883158745316933
 21
-2.0
 31
0.0
  0
LINE
  5
117C
  8
0
  6
CONTINUOUS
 62
     7
 10
96.183158745316774
 20
-1.0
 30
0.0
 11
94.883158745316933
 21
-1.0
 31
0.0
  0
ARC
  5
117D
  8
0
  6
CONTINUOUS
 62
     7
 10
96.383158745316933
 20
12.49999999999994
 30
0.0
 40
0.5
 50
90.0
 51
180.0
  0
LINE
  5
117E
  8
0
  6
CONTINUOUS
 62
     7
 10
95.883158745316919
 20
12.49999999999994
 30
0.0
 11
95.883158745316919
 21
12.0
 31
0.0
  0
LINE
  5
117F
  8
0
  6
CONTINUOUS
 62
     7
 10
96.383158745316933
 20
8.9999999999999432
 30
0.0
 11
96.183158745316774
 21
8.9999999999999432
 31
0.0
  0
LINE
  5
1180
  8
0
  6
CONTINUOUS
 62
     7
 10
95.883158745316919
 20
8.6999999999999318
 30
0.0
 11
96.183158745316774
 21
8.9999999999999432
 31
0.0
  0
LINE
  5
1181
  8
0
  6
CONTINUOUS
 62
     7
 10
94.883158745316933
 20
7.0
 30
0.0
 11
95.883158745316919
 21
7.0
 31
0.0
  0
LINE
  5
1182
  8
0
  6
CONTINUOUS
 62
     7
 10
94.883158745316933
 20
8.0
 30
0.0
 11
95.883158745316919
 21
8.0
 31
0.0
  0
LINE
  5
1183
  8
0
  6
CONTINUOUS
 62
     7
 10
94.883158745316933
 20
9.0
 30
0.0
 11
96.383158745316933
 21
8.9999999999999432
 31
0.0
  0
LINE
  5
1184
  8
0
  6
CONTINUOUS
 62
     7
 10
94.383158745316933
 20
10.0
 30
0.0
 11
95.883158745316919
 21
10.0
 31
0.0
  0
LINE
  5
1185
  8
0
  6
CONTINUOUS
 62
     7
 10
94.883158745316933
 20
11.0
 30
0.0
 11
95.883158745316919
 21
11.0
 31
0.0
  0
LINE
  5
1186
  8
0
  6
CONTINUOUS
 62
     7
 10
94.883158745316933
 20
12.0
 30
0.0
 11
95.883158745316919
 21
12.0
 31
0.0
  0
LINE
  5
1187
  8
0
  6
CONTINUOUS
 62
     7
 10
94.883158745316933
 20
13.0
 30
0.0
 11
96.383158745316933
 21
12.99999999999994
 31
0.0
  0
LINE
  5
1188
  8
0
  6
CONTINUOUS
 62
     7
 10
94.883158745316933
 20
14.0
 30
0.0
 11
96.383158745316933
 21
14.0
 31
0.0
  0
LINE
  5
1189
  8
0
  6
CONTINUOUS
 62
     7
 10
95.883158745316919
 20
10.0
 30
0.0
 11
95.883158745316919
 21
8.9999999999999432
 31
0.0
  0
LINE
  5
118A
  8
0
  6
CONTINUOUS
 62
     7
 10
95.883158745316919
 20
8.0
 30
0.0
 11
95.883158745316919
 21
8.6999999999999318
 31
0.0
  0
LINE
  5
118B
  8
0
  6
CONTINUOUS
 62
     7
 10
95.883158745316919
 20
7.0
 30
0.0
 11
95.883158745316919
 21
8.0
 31
0.0
  0
LINE
  5
118C
  8
0
  6
CONTINUOUS
 62
     7
 10
95.883158745316919
 20
11.0
 30
0.0
 11
95.883158745316919
 21
10.0
 31
0.0
  0
LINE
  5
118D
  8
0
  6
CONTINUOUS
 62
     7
 10
95.883158745316919
 20
12.0
 30
0.0
 11
95.883158745316919
 21
11.0
 31
0.0
  0
LINE
  5
118E
  8
0
  6
CONTINUOUS
 62
     7
 10
96.383158745316933
 20
23.200000000000099
 30
0.0
 11
96.383158745316933
 21
22.300000000000122
 31
0.0
  0
LINE
  5
118F
  8
0
  6
CONTINUOUS
 62
     7
 10
93.383158745316919
 20
15.0
 30
0.0
 11
96.383158745316933
 21
15.0
 31
0.0
  0
LINE
  5
1190
  8
0
  6
CONTINUOUS
 62
     7
 10
94.883158745316933
 20
16.0
 30
0.0
 11
96.383158745316933
 21
16.0
 31
0.0
  0
LINE
  5
1191
  8
0
  6
CONTINUOUS
 62
     7
 10
94.883158745316933
 20
17.0
 30
0.0
 11
96.383158745316933
 21
17.0
 31
0.0
  0
LINE
  5
1192
  8
0
  6
CONTINUOUS
 62
     7
 10
94.883158745316933
 20
18.0
 30
0.0
 11
96.383158745316933
 21
18.0
 31
0.0
  0
LINE
  5
1193
  8
0
  6
CONTINUOUS
 62
     7
 10
94.883158745316933
 20
19.0
 30
0.0
 11
96.383158745316933
 21
19.0
 31
0.0
  0
LINE
  5
1194
  8
0
  6
CONTINUOUS
 62
     7
 10
94.383158745316933
 20
20.0
 30
0.0
 11
96.383158745316933
 21
20.0
 31
0.0
  0
LINE
  5
1195
  8
0
  6
CONTINUOUS
 62
     7
 10
94.883158745316933
 20
21.0
 30
0.0
 11
96.383158745316933
 21
21.0
 31
0.0
  0
LINE
  5
1196
  8
0
  6
CONTINUOUS
 62
     7
 10
94.883158745316933
 20
22.0
 30
0.0
 11
96.383158745316933
 21
22.0
 31
0.0
  0
LINE
  5
1197
  8
0
  6
CONTINUOUS
 62
     7
 10
94.883158745316933
 20
23.0
 30
0.0
 11
96.383158745316933
 21
23.0
 31
0.0
  0
LINE
  5
1198
  8
0
  6
CONTINUOUS
 62
     7
 10
96.383158745316933
 20
16.900000000000261
 30
0.0
 11
96.383158745316933
 21
16.0
 31
0.0
  0
LINE
  5
1199
  8
0
  6
CONTINUOUS
 62
     7
 10
96.383158745316933
 20
17.800000000000239
 30
0.0
 11
96.383158745316933
 21
16.900000000000261
 31
0.0
  0
LINE
  5
119A
  8
0
  6
CONTINUOUS
 62
     7
 10
96.383158745316933
 20
18.700000000000269
 30
0.0
 11
96.383158745316933
 21
17.800000000000239
 31
0.0
  0
LINE
  5
119B
  8
0
  6
CONTINUOUS
 62
     7
 10
96.383158745316933
 20
19.60000000000025
 30
0.0
 11
96.383158745316933
 21
18.700000000000269
 31
0.0
  0
LINE
  5
119C
  8
0
  6
CONTINUOUS
 62
     7
 10
96.383158745316933
 20
20.500000000000281
 30
0.0
 11
96.383158745316933
 21
19.60000000000025
 31
0.0
  0
LINE
  5
119D
  8
0
  6
CONTINUOUS
 62
     7
 10
96.383158745316933
 20
21.400000000000091
 30
0.0
 11
96.383158745316933
 21
20.500000000000281
 31
0.0
  0
LINE
  5
119E
  8
0
  6
CONTINUOUS
 62
     7
 10
96.383158745316933
 20
22.300000000000122
 30
0.0
 11
96.383158745316933
 21
21.400000000000091
 31
0.0
  0
TEXT
  5
119F
  8
0
  6
CONTINUOUS
 62
     7
 10
92.931115878121105
 20
24.680000000000231
 30
0.0
 40
1.1999999999999991
  1
0
 50
90.0
 41
0.9
  7
CONVERTER_2
  0
LINE
  5
11A0
  8
0
  6
CONTINUOUS
 62
     7
 10
90.383158745316933
 20
28.49999999999994
 30
0.0
 11
96.383158745316933
 21
28.49999999999994
 31
0.0
  0
LINE
  5
11A1
  8
0
  6
CONTINUOUS
 62
     7
 10
96.383158745316933
 20
29.99999999999994
 30
0.0
 11
96.383158745316933
 21
28.49999999999994
 31
0.0
  0
LINE
  5
11A2
  8
0
  6
CONTINUOUS
 62
     7
 10
94.883158745316933
 20
24.0
 30
0.0
 11
96.383158745316933
 21
24.0
 31
0.0
  0
LINE
  5
11A3
  8
0
  6
CONTINUOUS
 62
     7
 10
93.383158745316919
 20
25.0
 30
0.0
 11
96.383158745316933
 21
25.0
 31
0.0
  0
LINE
  5
11A4
  8
0
  6
CONTINUOUS
 62
     7
 10
94.883158745316933
 20
29.99999999999994
 30
0.0
 11
96.383158745316933
 21
29.99999999999994
 31
0.0
  0
LINE
  5
11A5
  8
0
  6
CONTINUOUS
 62
     7
 10
96.383158745316933
 20
24.10000000000008
 30
0.0
 11
96.383158745316933
 21
23.200000000000099
 31
0.0
  0
CIRCLE
  5
11A6
  8
0
  6
CONTINUOUS
 62
     7
 10
115.88315874531671
 20
-5.0
 30
0.0
 40
3.0999999999999082
  0
CIRCLE
  5
11A7
  8
0
  6
CONTINUOUS
 62
     7
 10
105.4831587453167
 20
0.0
 30
0.0
 40
4.0
  0
CIRCLE
  5
11A8
  8
0
  6
CONTINUOUS
 62
     7
 10
105.4831587453167
 20
0.0
 30
0.0
 40
7.2000000000001023
  0
ARC
  5
11A9
  8
0
  6
CONTINUOUS
 62
     7
 10
105.4831587453167
 20
0.0
 30
0.0
 40
7.4999999999999956
 50
336.9260819343686
 51
144.42289744894461
  0
ARC
  5
11AA
  8
0
  6
CONTINUOUS
 62
     7
 10
105.4831587453167
 20
0.0
 30
0.0
 40
7.5000000000000444
 50
187.6622556607656
 51
336.9260819343686
  0
LINE
  5
11AB
  8
CENTER
  6
CENTER
 62
     1
 10
115.88315874531671
 20
10.0999999999999
 30
0.0
 11
115.88315874531671
 21
-10.0999999999999
 31
0.0
  0
LINE
  5
11AC
  8
0
  6
CONTINUOUS
 62
     7
 10
119.58315874531669
 20
8.6999999999999318
 30
0.0
 11
119.58315874531689
 21
-8.6999999999998732
 31
0.0
  0
LINE
  5
11AD
  8
CENTER
  6
CENTER
 62
     1
 10
105.4831587453167
 20
-9.5000000000000444
 30
0.0
 11
105.4831587453167
 21
9.4999999999999947
 31
0.0
  0
LINE
  5
11AE
  8
0
  6
CONTINUOUS
 62
     7
 10
105.88315874531671
 20
3.9799497484266331
 30
0.0
 11
105.88315874531671
 21
-3.9799497484263489
 31
0.0
  0
LINE
  5
11AF
  8
0
  6
CONTINUOUS
 62
     7
 10
105.08315874531699
 20
-3.9799497484263489
 30
0.0
 11
105.08315874531699
 21
3.9799497484266331
 31
0.0
  0
LINE
  5
11B0
  8
CENTER
  6
CENTER
 62
     1
 10
120.9831587453166
 20
-5.0
 30
0.0
 11
110.7831587453168
 21
-5.0
 31
0.0
  0
LINE
  5
11B1
  8
0
  6
CONTINUOUS
 62
     7
 10
102.3831587453169
 20
-9.0000000000000568
 30
0.0
 11
119.2831587453169
 21
-9.0000000000000568
 31
0.0
  0
LINE
  5
11B2
  8
0
  6
CONTINUOUS
 62
     7
 10
102.3831587453169
 20
-28.50000000000005
 30
0.0
 11
102.3831587453169
 21
-12.50000000000005
 31
0.0
  0
TEXT
  5
11B3
  8
0
  6
CONTINUOUS
 62
     7
 10
101.03520161251291
 20
-25.219999999999999
 30
0.0
 40
1.1999999999999991
  1
0
 50
90.0
 41
0.9
  7
CONVERTER_2
  0
TEXT
  5
11B4
  8
0
  6
CONTINUOUS
 62
     7
 10
101.0233632809006
 20
-16.658837306030591
 30
0.0
 40
1.1999999999999991
  1
10
 50
90.0
 41
0.9
  7
CONVERTER_2
  0
CIRCLE
  5
11B5
  8
0
  6
CONTINUOUS
 62
     7
 10
115.88315874531671
 20
-5.0
 30
0.0
 40
1.4433756729742131
  0
CIRCLE
  5
11B6
  8
0
  6
CONTINUOUS
 62
     7
 10
115.88315874531671
 20
-5.0
 30
0.0
 40
2.75
  0
LINE
  5
11B7
  8
0
  6
CONTINUOUS
 62
     7
 10
116.6048465818039
 20
-6.25
 30
0.0
 11
115.1614709088298
 21
-6.25
 31
0.0
  0
LINE
  5
11B8
  8
0
  6
CONTINUOUS
 62
     7
 10
115.1614709088298
 20
-3.75
 30
0.0
 11
116.6048465818039
 21
-3.75
 31
0.0
  0
LINE
  5
11B9
  8
0
  6
CONTINUOUS
 62
     7
 10
115.1614709088298
 20
-6.25
 30
0.0
 11
114.43978307234281
 21
-5.0
 31
0.0
  0
LINE
  5
11BA
  8
0
  6
CONTINUOUS
 62
     7
 10
114.43978307234281
 20
-5.0
 30
0.0
 11
115.1614709088298
 21
-3.75
 31
0.0
  0
LINE
  5
11BD
  8
0
  6
CONTINUOUS
 62
     7
 10
119.2831587453169
 20
-9.0000000000000568
 30
0.0
 11
119.58315874531689
 21
-8.6999999999998732
 31
0.0
  0
LINE
  5
11BE
  8
0
  6
CONTINUOUS
 62
     7
 10
117.326534418291
 20
-5.0
 30
0.0
 11
116.6048465818039
 21
-3.75
 31
0.0
  0
LINE
  5
11BF
  8
0
  6
CONTINUOUS
 62
     7
 10
117.326534418291
 20
-5.0
 30
0.0
 11
116.6048465818039
 21
-6.25
 31
0.0
  0
LINE
  5
11C0
  8
0
  6
CONTINUOUS
 62
     7
 10
119.58315874531689
 20
-8.6999999999998732
 30
0.0
 11
119.2831587453169
 21
-9.0000000000000568
 31
0.0
  0
LINE
  5
11C1
  8
CENTER
  6
CENTER
 62
     1
 10
110.7831587453168
 20
5.0
 30
0.0
 11
120.9831587453166
 21
5.0
 31
0.0
  0
LINE
  5
11C2
  8
CENTER
  6
CENTER
 62
     1
 10
84.383158745316933
 20
0.0
 30
0.0
 11
121.8831587453169
 21
0.0
 31
0.0
  0
LINE
  5
11C3
  8
0
  6
CONTINUOUS
 62
     7
 10
112.3831587453169
 20
8.9999999999999432
 30
0.0
 11
112.3831587453169
 21
29.99999999999994
 31
0.0
  0
LINE
  5
11C4
  8
0
  6
CONTINUOUS
 62
     7
 10
102.3831587453169
 20
12.99999999999994
 30
0.0
 11
102.3831587453169
 21
28.49999999999994
 31
0.0
  0
LINE
  5
11C5
  8
CENTER
  6
CENTER
 62
     1
 10
99.383158745316933
 20
-11.00000000000005
 30
0.0
 11
99.383158745316919
 21
14.99999999999994
 31
0.0
  0
ARC
  5
11C6
  8
0
  6
CONTINUOUS
 62
     7
 10
105.4831587453167
 20
0.0
 30
0.0
 40
7.5000000000000444
 50
172.33774433923429
 51
187.6622556607656
  0
ARC
  5
11C7
  8
0
  6
CONTINUOUS
 62
     7
 10
105.4831587453167
 20
0.0
 30
0.0
 40
7.4999999999999858
 50
144.42289744894461
 51
172.33774433923429
  0
ARC
  5
11C8
  8
0
  6
CONTINUOUS
 62
     7
 10
102.3831587453169
 20
12.49999999999994
 30
0.0
 40
0.5
 50
0.0
 51
90.0
  0
LINE
  5
11C9
  8
0
  6
CONTINUOUS
 62
     7
 10
102.8831587453169
 20
12.49999999999994
 30
0.0
 11
102.8831587453169
 21
8.9999999999999432
 31
0.0
  0
TEXT
  5
11CB
  8
0
  6
CONTINUOUS
 62
     7
 10
101.0233632809006
 20
15.39883730603081
 30
0.0
 40
1.1999999999999991
  1
10
 50
90.0
 41
0.9
  7
CONVERTER_2
  0
TEXT
  5
11CC
  8
0
  6
CONTINUOUS
 62
     7
 10
101.03520161251291
 20
24.680000000000231
 30
0.0
 40
1.1999999999999991
  1
0
 50
90.0
 41
0.9
  7
CONVERTER_2
  0
CIRCLE
  5
11CD
  8
0
  6
CONTINUOUS
 62
     7
 10
115.88315874531671
 20
5.0
 30
0.0
 40
2.75
  0
CIRCLE
  5
11CE
  8
0
  6
CONTINUOUS
 62
     7
 10
115.88315874531671
 20
5.0
 30
0.0
 40
1.4433756729742131
  0
CIRCLE
  5
11CF
  8
0
  6
CONTINUOUS
 62
     7
 10
115.88315874531671
 20
5.0
 30
0.0
 40
3.0999999999999082
  0
LINE
  5
11D0
  8
0
  6
CONTINUOUS
 62
     7
 10
116.6048465818039
 20
3.75
 30
0.0
 11
115.1614709088298
 21
3.75
 31
0.0
  0
LINE
  5
11D1
  8
0
  6
CONTINUOUS
 62
     7
 10
115.1614709088298
 20
6.25
 30
0.0
 11
116.6048465818039
 21
6.25
 31
0.0
  0
LINE
  5
11D2
  8
0
  6
CONTINUOUS
 62
     7
 10
115.1614709088298
 20
3.75
 30
0.0
 11
114.43978307234281
 21
5.0
 31
0.0
  0
LINE
  5
11D3
  8
0
  6
CONTINUOUS
 62
     7
 10
114.43978307234281
 20
5.0
 30
0.0
 11
115.1614709088298
 21
6.25
 31
0.0
  0
LINE
  5
11D6
  8
0
  6
CONTINUOUS
 62
     7
 10
116.6048465818039
 20
6.25
 30
0.0
 11
117.326534418291
 21
5.0
 31
0.0
  0
LINE
  5
11D7
  8
0
  6
CONTINUOUS
 62
     7
 10
116.6048465818039
 20
3.75
 30
0.0
 11
117.326534418291
 21
5.0
 31
0.0
  0
LINE
  5
11D8
  8
0
  6
CONTINUOUS
 62
     7
 10
119.58315874531669
 20
8.6999999999999318
 30
0.0
 11
119.2831587453169
 21
8.9999999999999432
 31
0.0
  0
LINE
  5
11D9
  8
0
  6
CONTINUOUS
 62
     7
 10
189.7663174906337
 20
-58.499999999999368
 30
0.0
 11
189.7663174906337
 21
-9.0
 31
0.0
  0
LINE
  5
11DA
  8
0
  6
CONTINUOUS
 62
     7
 10
184.7663174906337
 20
-58.499999999999368
 30
0.0
 11
184.7663174906337
 21
-65.999999999999403
 31
0.0
  0
ARC
  5
11DB
  8
0
  6
CONTINUOUS
 62
     7
 10
168.66673447178289
 20
0.0
 30
0.0
 40
8.5
 50
151.9275130641455
 51
180.0
  0
ARC
  5
11DC
  8
0
  6
CONTINUOUS
 62
     7
 10
168.66673447178289
 20
0.0
 30
0.0
 40
8.5
 50
180.0
 51
208.0724869358545
  0
LINE
  5
11DD
  8
0
  6
CONTINUOUS
 62
     7
 10
189.7663174906337
 20
-9.0
 30
0.0
 11
189.7663174906337
 21
-2.0
 31
0.0
  0
LINE
  5
11DE
  8
0
  6
CONTINUOUS
 62
     7
 10
171.96673447178279
 20
-7.5
 30
0.0
 11
171.96673447178279
 21
7.5
 31
0.0
  0
LINE
  5
11DF
  8
0
  6
CONTINUOUS
 62
     7
 10
161.26673447178271
 20
-7.2000000000001023
 30
0.0
 11
161.26673447178271
 21
7.1999999999999877
 31
0.0
  0
LINE
  5
11E0
  8
0
  6
CONTINUOUS
 62
     7
 10
161.56673447178269
 20
7.5
 30
0.0
 11
161.56673447178269
 21
-7.5
 31
0.0
  0
LINE
  5
11E1
  8
0
  6
CONTINUOUS
 62
     7
 10
172.26673447178271
 20
0.0
 30
0.0
 11
172.26673447178271
 21
-7.2000000000001023
 31
0.0
  0
LINE
  5
11E2
  8
0
  6
CONTINUOUS
 62
     7
 10
161.16673447178289
 20
-4.0
 30
0.0
 11
161.16673447178289
 21
4.0
 31
0.0
  0
LINE
  5
11E3
  8
0
  6
CONTINUOUS
 62
     7
 10
177.2663174906337
 20
-8.6999999999998732
 30
0.0
 11
177.2663174906337
 21
8.6999999999999318
 31
0.0
  0
LINE
  5
11E4
  8
CENTER
  6
CENTER
 62
     1
 10
180.7663174906337
 20
-11.0
 30
0.0
 11
180.7663174906337
 21
15.0
 31
0.0
  0
LINE
  5
11E5
  8
0
  6
CONTINUOUS
 62
     7
 10
189.7663174906337
 20
-8.7000000000001023
 30
0.0
 11
189.7663174906337
 21
8.6999999999999886
 31
0.0
  0
LINE
  5
11E6
  8
0
  6
CONTINUOUS
 62
     7
 10
189.7663174906337
 20
-8.7000000000001023
 30
0.0
 11
189.7663174906337
 21
8.6999999999999886
 31
0.0
  0
LINE
  5
11E7
  8
0
  6
CONTINUOUS
 62
     7
 10
189.7663174906337
 20
-9.0
 30
0.0
 11
189.7663174906337
 21
-2.0
 31
0.0
  0
LINE
  5
11E8
  8
0
  6
CONTINUOUS
 62
     7
 10
177.2663174906337
 20
-3.5
 30
0.0
 11
174.26673447178271
 21
-3.5
 31
0.0
  0
LINE
  5
11E9
  8
0
  6
CONTINUOUS
 62
     7
 10
171.96673447178279
 20
-6.4951905283832039
 30
0.0
 11
161.56673447178269
 21
-6.4951905283832039
 31
0.0
  0
LINE
  5
11EA
  8
0
  6
CONTINUOUS
 62
     7
 10
171.96673447178279
 20
-3.75
 30
0.0
 11
161.56673447178269
 21
-3.75
 31
0.0
  0
LINE
  5
11EB
  8
0
  6
CONTINUOUS
 62
     7
 10
161.56673447178269
 20
-5.3033008588992061
 30
0.0
 11
171.96673447178279
 21
-5.3033008588992061
 31
0.0
  0
LINE
  5
11EC
  8
0
  6
CONTINUOUS
 62
     7
 10
161.56673447178269
 20
-7.2444436971680366
 30
0.0
 11
171.96673447178279
 21
-7.2444436971680366
 31
0.0
  0
LINE
  5
11ED
  8
0
  6
CONTINUOUS
 62
     7
 10
171.96673447178279
 20
-7.5
 30
0.0
 11
161.56673447178269
 21
-7.5
 31
0.0
  0
LINE
  5
11EE
  8
0
  6
CONTINUOUS
 62
     7
 10
161.26673447178271
 20
-7.2000000000001023
 30
0.0
 11
161.56673447178269
 21
-7.5
 31
0.0
  0
LINE
  5
11EF
  8
0
  6
CONTINUOUS
 62
     7
 10
161.26673447178271
 20
-4.0
 30
0.0
 11
161.16673447178289
 21
-4.0
 31
0.0
  0
ARC
  5
11F0
  8
0
  6
CONTINUOUS
 62
     7
 10
174.26673447178271
 20
-5.5
 30
0.0
 40
2.0
 50
90.0
 51
180.0
  0
LINE
  5
11F1
  8
0
  6
CONTINUOUS
 62
     7
 10
172.26673447178271
 20
-7.2000000000001023
 30
0.0
 11
171.96673447178279
 21
-7.5
 31
0.0
  0
LINE
  5
11F2
  8
0
  6
CONTINUOUS
 62
     7
 10
177.56631749063391
 20
-9.0
 30
0.0
 11
189.7663174906337
 21
-9.0
 31
0.0
  0
LINE
  5
11F3
  8
0
  6
CONTINUOUS
 62
     7
 10
177.2663174906337
 20
-8.6999999999998732
 30
0.0
 11
177.56631749063391
 21
-9.0
 31
0.0
  0
LINE
  5
11F4
  8
0
  6
CONTINUOUS
 62
     7
 10
174.26673447178271
 20
3.5
 30
0.0
 11
177.2663174906337
 21
3.5
 31
0.0
  0
LINE
  5
11F5
  8
0
  6
CONTINUOUS
 62
     7
 10
171.96673447178279
 20
7.2444436971679798
 30
0.0
 11
161.56673447178269
 21
7.2444436971679798
 31
0.0
  0
LINE
  5
11F6
  8
0
  6
CONTINUOUS
 62
     7
 10
171.96673447178279
 20
6.4951905283832607
 30
0.0
 11
161.56673447178269
 21
6.4951905283832607
 31
0.0
  0
LINE
  5
11F7
  8
0
  6
CONTINUOUS
 62
     7
 10
171.96673447178279
 20
5.3033008588990924
 30
0.0
 11
161.56673447178269
 21
5.3033008588990924
 31
0.0
  0
LINE
  5
11F8
  8
0
  6
CONTINUOUS
 62
     7
 10
171.96673447178279
 20
3.75
 30
0.0
 11
161.56673447178269
 21
3.75
 31
0.0
  0
LINE
  5
11F9
  8
0
  6
CONTINUOUS
 62
     7
 10
171.96673447178279
 20
0.0
 30
0.0
 11
161.56673447178269
 21
0.0
 31
0.0
  0
LINE
  5
11FA
  8
0
  6
CONTINUOUS
 62
     7
 10
171.96673447178279
 20
1.9411428382689451
 30
0.0
 11
161.56673447178269
 21
1.9411428382689451
 31
0.0
  0
LINE
  5
11FB
  8
0
  6
CONTINUOUS
 62
     7
 10
171.96673447178279
 20
-1.941142838269001
 30
0.0
 11
161.56673447178269
 21
-1.941142838269001
 31
0.0
  0
LINE
  5
11FC
  8
0
  6
CONTINUOUS
 62
     7
 10
161.56673447178269
 20
7.5
 30
0.0
 11
171.96673447178279
 21
7.5
 31
0.0
  0
LINE
  5
11FD
  8
0
  6
CONTINUOUS
 62
     7
 10
161.16673447178289
 20
4.0
 30
0.0
 11
161.26673447178271
 21
4.0
 31
0.0
  0
LINE
  5
11FE
  8
0
  6
CONTINUOUS
 62
     7
 10
161.26673447178271
 20
7.1999999999999877
 30
0.0
 11
161.56673447178269
 21
7.5
 31
0.0
  0
LINE
  5
11FF
  8
0
  6
CONTINUOUS
 62
     7
 10
172.26673447178271
 20
7.1999999999999877
 30
0.0
 11
172.26673447178271
 21
0.0
 31
0.0
  0
ARC
  5
1200
  8
0
  6
CONTINUOUS
 62
     7
 10
174.26673447178271
 20
5.5
 30
0.0
 40
2.0
 50
180.0
 51
270.0
  0
LINE
  5
1201
  8
0
  6
CONTINUOUS
 62
     7
 10
172.26673447178271
 20
7.1999999999999877
 30
0.0
 11
171.96673447178279
 21
7.5
 31
0.0
  0
LINE
  5
1202
  8
0
  6
CONTINUOUS
 62
     7
 10
189.7663174906337
 20
9.0
 30
0.0
 11
189.7663174906337
 21
29.99999999999994
 31
0.0
  0
LINE
  5
1203
  8
0
  6
CONTINUOUS
 62
     7
 10
189.7663174906337
 20
9.0
 30
0.0
 11
177.2663174906337
 21
9.0
 31
0.0
  0
LINE
  5
1204
  8
0
  6
CONTINUOUS
 62
     7
 10
183.7663174906337
 20
13.0
 30
0.0
 11
177.7663174906337
 21
13.0
 31
0.0
  0
ARC
  5
1205
  8
0
  6
CONTINUOUS
 62
     7
 10
177.7663174906337
 20
12.5
 30
0.0
 40
0.5
 50
90.0
 51
180.0
  0
LINE
  5
1206
  8
0
  6
CONTINUOUS
 62
     7
 10
177.56631749063391
 20
9.0
 30
0.0
 11
177.2663174906337
 21
8.6999999999999318
 31
0.0
  0
LINE
  5
1207
  8
0
  6
CONTINUOUS
 62
     7
 10
177.2663174906337
 20
9.0
 30
0.0
 11
177.2663174906337
 21
12.5
 31
0.0
  0
ARC
  5
1208
  8
0
  6
CONTINUOUS
 62
     7
 10
183.7663174906337
 20
12.5
 30
0.0
 40
0.5
 50
0.0
 51
90.0
  0
LINE
  5
1209
  8
0
  6
CONTINUOUS
 62
     7
 10
184.2663174906337
 20
9.0
 30
0.0
 11
184.2663174906337
 21
12.5
 31
0.0
  0
LINE
  5
120A
  8
0
  6
CONTINUOUS
 62
     7
 10
189.7663174906337
 20
2.0
 30
0.0
 11
189.7663174906337
 21
9.0
 31
0.0
  0
LINE
  5
120B
  8
0
  6
CONTINUOUS
 62
     7
 10
189.7663174906337
 20
2.0
 30
0.0
 11
189.7663174906337
 21
9.0
 31
0.0
  0
LINE
  5
120C
  8
CENTER
  6
CENTER
 62
     1
 10
209.7663174906337
 20
31.99999999999994
 30
0.0
 11
209.7663174906337
 21
-67.999999999999403
 31
0.0
  0
LINE
  5
120D
  8
0
  6
CONTINUOUS
 62
     7
 10
229.7663174906337
 20
29.99999999999994
 30
0.0
 11
229.7663174906337
 21
-58.499999999999368
 31
0.0
  0
LINE
  5
120E
  8
0
  6
CONTINUOUS
 62
     7
 10
234.7663174906337
 20
-65.999999999999403
 30
0.0
 11
234.7663174906337
 21
-58.499999999999368
 31
0.0
  0
CIRCLE
  5
120F
  8
0
  6
CONTINUOUS
 62
     7
 10
222.2663174906337
 20
24.0
 30
0.0
 40
4.0
  0
CIRCLE
  5
1210
  8
0
  6
CONTINUOUS
 62
     7
 10
222.2663174906337
 20
24.0
 30
0.0
 40
3.5
  0
CIRCLE
  5
1211
  8
0
  6
CONTINUOUS
 62
     7
 10
222.2663174906337
 20
-23.999999999999879
 30
0.0
 40
3.5
  0
CIRCLE
  5
1212
  8
0
  6
CONTINUOUS
 62
     7
 10
222.2663174906337
 20
-23.999999999999879
 30
0.0
 40
4.0
  0
LINE
  5
1213
  8
CENTER
  6
CENTER
 62
     1
 10
222.2663174906337
 20
-29.999999999999879
 30
0.0
 11
222.2663174906337
 21
-17.999999999999879
 31
0.0
  0
LINE
  5
1214
  8
CENTER
  6
CENTER
 62
     1
 10
197.2663174906337
 20
-29.999999999999879
 30
0.0
 11
197.2663174906337
 21
-17.999999999999879
 31
0.0
  0
CIRCLE
  5
1215
  8
0
  6
CONTINUOUS
 62
     7
 10
197.2663174906337
 20
-23.999999999999879
 30
0.0
 40
4.0
  0
CIRCLE
  5
1216
  8
0
  6
CONTINUOUS
 62
     7
 10
197.2663174906337
 20
-23.999999999999879
 30
0.0
 40
3.5
  0
CIRCLE
  5
1217
  8
0
  6
CONTINUOUS
 62
     7
 10
197.2663174906337
 20
-23.999999999999879
 30
0.0
 40
1.7320508075690091
  0
LINE
  5
1218
  8
0
  6
CONTINUOUS
 62
     7
 10
195.7663174906337
 20
-24.866025403784871
 30
0.0
 11
197.2663174906337
 21
-25.73205080756901
 31
0.0
  0
LINE
  5
1219
  8
0
  6
CONTINUOUS
 62
     7
 10
195.7663174906337
 20
-23.133974596215751
 30
0.0
 11
197.2663174906337
 21
-22.26794919243201
 31
0.0
  0
LINE
  5
121A
  8
0
  6
CONTINUOUS
 62
     7
 10
195.7663174906337
 20
-23.133974596215751
 30
0.0
 11
195.7663174906337
 21
-24.866025403784871
 31
0.0
  0
LINE
  5
121B
  8
0
  6
CONTINUOUS
 62
     7
 10
198.7663174906337
 20
-23.133974596215751
 30
0.0
 11
198.7663174906337
 21
-24.866025403784871
 31
0.0
  0
LINE
  5
121C
  8
0
  6
CONTINUOUS
 62
     7
 10
197.2663174906337
 20
-22.26794919243201
 30
0.0
 11
198.7663174906337
 21
-23.133974596215751
 31
0.0
  0
LINE
  5
121D
  8
0
  6
CONTINUOUS
 62
     7
 10
197.2663174906337
 20
-25.73205080756901
 30
0.0
 11
198.7663174906337
 21
-24.866025403784871
 31
0.0
  0
CIRCLE
  5
121E
  8
0
  6
CONTINUOUS
 62
     7
 10
222.2663174906337
 20
-23.999999999999879
 30
0.0
 40
1.7320508075685539
  0
LINE
  5
121F
  8
0
  6
CONTINUOUS
 62
     7
 10
220.7663174906337
 20
-24.866025403784871
 30
0.0
 11
222.2663174906337
 21
-25.73205080756901
 31
0.0
  0
LINE
  5
1220
  8
0
  6
CONTINUOUS
 62
     7
 10
222.2663174906337
 20
-22.26794919243201
 30
0.0
 11
223.7663174906337
 21
-23.133974596215751
 31
0.0
  0
LINE
  5
1221
  8
0
  6
CONTINUOUS
 62
     7
 10
222.2663174906337
 20
-25.73205080756901
 30
0.0
 11
223.7663174906337
 21
-24.866025403784871
 31
0.0
  0
LINE
  5
1222
  8
0
  6
CONTINUOUS
 62
     7
 10
220.7663174906337
 20
-23.133974596215751
 30
0.0
 11
222.2663174906337
 21
-22.26794919243201
 31
0.0
  0
LINE
  5
1223
  8
0
  6
CONTINUOUS
 62
     7
 10
220.7663174906337
 20
-24.866025403784871
 30
0.0
 11
220.7663174906337
 21
-23.133974596215751
 31
0.0
  0
LINE
  5
1224
  8
0
  6
CONTINUOUS
 62
     7
 10
223.7663174906337
 20
-24.866025403784871
 30
0.0
 11
223.7663174906337
 21
-23.133974596215751
 31
0.0
  0
CIRCLE
  5
1225
  8
0
  6
CONTINUOUS
 62
     7
 10
197.2663174906337
 20
24.0
 30
0.0
 40
3.5
  0
CIRCLE
  5
1226
  8
0
  6
CONTINUOUS
 62
     7
 10
197.2663174906337
 20
24.0
 30
0.0
 40
4.0
  0
CIRCLE
  5
1227
  8
0
  6
CONTINUOUS
 62
     7
 10
197.2663174906337
 20
24.0
 30
0.0
 40
1.7320508075690091
  0
LINE
  5
1228
  8
0
  6
CONTINUOUS
 62
     7
 10
198.7663174906337
 20
24.866025403784981
 30
0.0
 11
198.7663174906337
 21
23.133974596215921
 31
0.0
  0
LINE
  5
1229
  8
0
  6
CONTINUOUS
 62
     7
 10
195.7663174906337
 20
24.866025403784981
 30
0.0
 11
195.7663174906337
 21
23.133974596215921
 31
0.0
  0
LINE
  5
122A
  8
0
  6
CONTINUOUS
 62
     7
 10
197.2663174906337
 20
22.26794919243212
 30
0.0
 11
195.7663174906337
 21
23.133974596215921
 31
0.0
  0
LINE
  5
122B
  8
0
  6
CONTINUOUS
 62
     7
 10
198.7663174906337
 20
23.133974596215921
 30
0.0
 11
197.2663174906337
 21
22.26794919243212
 31
0.0
  0
LINE
  5
122C
  8
0
  6
CONTINUOUS
 62
     7
 10
197.2663174906337
 20
25.732050807569181
 30
0.0
 11
195.7663174906337
 21
24.866025403784981
 31
0.0
  0
LINE
  5
122D
  8
0
  6
CONTINUOUS
 62
     7
 10
198.7663174906337
 20
24.866025403784981
 30
0.0
 11
197.2663174906337
 21
25.732050807569181
 31
0.0
  0
CIRCLE
  5
122E
  8
0
  6
CONTINUOUS
 62
     7
 10
222.2663174906337
 20
24.0
 30
0.0
 40
1.7320508075685539
  0
LINE
  5
122F
  8
0
  6
CONTINUOUS
 62
     7
 10
223.7663174906337
 20
23.133974596215921
 30
0.0
 11
223.7663174906337
 21
24.866025403784981
 31
0.0
  0
LINE
  5
1230
  8
0
  6
CONTINUOUS
 62
     7
 10
220.7663174906337
 20
23.133974596215921
 30
0.0
 11
220.7663174906337
 21
24.866025403784981
 31
0.0
  0
LINE
  5
1231
  8
0
  6
CONTINUOUS
 62
     7
 10
222.2663174906337
 20
22.26794919243212
 30
0.0
 11
220.7663174906337
 21
23.133974596215921
 31
0.0
  0
LINE
  5
1232
  8
0
  6
CONTINUOUS
 62
     7
 10
223.7663174906337
 20
23.133974596215921
 30
0.0
 11
222.2663174906337
 21
22.26794919243212
 31
0.0
  0
LINE
  5
1233
  8
0
  6
CONTINUOUS
 62
     7
 10
223.7663174906337
 20
24.866025403784981
 30
0.0
 11
222.2663174906337
 21
25.732050807569181
 31
0.0
  0
LINE
  5
1234
  8
0
  6
CONTINUOUS
 62
     7
 10
222.2663174906337
 20
25.732050807569181
 30
0.0
 11
220.7663174906337
 21
24.866025403784981
 31
0.0
  0
ARC
  5
1235
  8
0
  6
CONTINUOUS
 62
     7
 10
224.15193921297239
 20
0.0
 30
0.0
 40
7.9999999999999716
 50
325.01460834812531
 51
0.0
  0
LINE
  5
1236
  8
0
  6
CONTINUOUS
 62
     7
 10
230.2663174906337
 20
28.99999999999994
 30
0.0
 11
230.2663174906337
 21
-21.0
 31
0.0
  0
LINE
  5
1237
  8
0
  6
CONTINUOUS
 62
     7
 10
230.70632528396959
 20
0.0
 30
0.0
 11
230.70632528396959
 21
-4.586940508914096
 31
0.0
  0
ARC
  5
1238
  8
0
  6
CONTINUOUS
 62
     7
 10
227.5113185506307
 20
-18.5
 30
0.0
 40
4.3549989400030933
 50
334.32835450981833
 51
25.671645490184961
  0
ARC
  5
123F
  8
0
  6
CONTINUOUS
 62
     7
 10
231.2561838608159
 20
-20.300000000000011
 30
0.0
 40
0.1999999999999886
 50
270.0
 51
334.32835450982623
  0
LINE
  5
1240
  8
0
  6
CONTINUOUS
 62
     7
 10
229.7663174906337
 20
-21.0
 30
0.0
 11
230.2663174906337
 21
-21.0
 31
0.0
  0
LINE
  5
1241
  8
0
  6
CONTINUOUS
 62
     7
 10
230.2663174906337
 20
-20.5
 30
0.0
 11
231.2561838608159
 21
-20.5
 31
0.0
  0
ARC
  5
1242
  8
0
  6
CONTINUOUS
 62
     7
 10
231.2561838608159
 20
-16.700000000000099
 30
0.0
 40
0.2000000000000292
 50
25.671645490260708
 51
90.0
  0
LINE
  5
1243
  8
0
  6
CONTINUOUS
 62
     7
 10
231.2561838608159
 20
-16.499999999999709
 30
0.0
 11
230.2663174906339
 21
-16.5
 31
0.0
  0
LINE
  5
1244
  8
0
  6
CONTINUOUS
 62
     7
 10
230.2663174906337
 20
-4.586940508914096
 30
0.0
 11
230.70632528396959
 21
-4.586940508914096
 31
0.0
  0
LINE
  5
1245
  8
0
  6
CONTINUOUS
 62
     7
 10
232.1519392129722
 20
0.0
 30
0.0
 11
241.7663174906337
 21
0.0
 31
0.0
  0
LINE
  5
1246
  8
0
  6
CONTINUOUS
 62
     7
 10
241.7663174906337
 20
8.0
 30
0.0
 11
230.2663174906337
 21
8.0
 31
0.0
  0
LINE
  5
1247
  8
0
  6
CONTINUOUS
 62
     7
 10
231.2663174906337
 20
7.8637033051563199
 30
0.0
 11
241.7663174906337
 21
7.8637033051563199
 31
0.0
  0
LINE
  5
1248
  8
0
  6
CONTINUOUS
 62
     7
 10
231.2663174906337
 20
7.4641016151377917
 30
0.0
 11
241.7663174906337
 21
7.4641016151377917
 31
0.0
  0
LINE
  5
1249
  8
0
  6
CONTINUOUS
 62
     7
 10
231.2663174906337
 20
6.8284271247460993
 30
0.0
 11
241.4663174906338
 21
6.8284271247460993
 31
0.0
  0
LINE
  5
124A
  8
0
  6
CONTINUOUS
 62
     7
 10
231.2663174906337
 20
6.0
 30
0.0
 11
241.7663174906337
 21
6.0
 31
0.0
  0
LINE
  5
124B
  8
0
  6
CONTINUOUS
 62
     7
 10
231.2663174906337
 20
5.0352761804099941
 30
0.0
 11
241.7663174906337
 21
5.0352761804099941
 31
0.0
  0
LINE
  5
124C
  8
0
  6
CONTINUOUS
 62
     7
 10
231.2663174906337
 20
4.0
 30
0.0
 11
241.7663174906337
 21
4.0
 31
0.0
  0
LINE
  5
124D
  8
0
  6
CONTINUOUS
 62
     7
 10
241.7663174906337
 20
2.9647238195898922
 30
0.0
 11
231.58231017770581
 21
2.9647238195898922
 31
0.0
  0
LINE
  5
124E
  8
0
  6
CONTINUOUS
 62
     7
 10
241.7663174906337
 20
2.0
 30
0.0
 11
231.89790590538701
 21
2.0
 31
0.0
  0
LINE
  5
124F
  8
0
  6
CONTINUOUS
 62
     7
 10
241.7663174906337
 20
1.1715728752537871
 30
0.0
 11
232.0656878189092
 21
1.1715728752537871
 31
0.0
  0
LINE
  5
1250
  8
0
  6
CONTINUOUS
 62
     7
 10
241.7663174906337
 20
0.5358983848621506
 30
0.0
 11
232.13396983939199
 21
0.5358983848621506
 31
0.0
  0
LINE
  5
1251
  8
0
  6
CONTINUOUS
 62
     7
 10
241.7663174906337
 20
0.1362966948437929
 30
0.0
 11
232.15077807939369
 21
0.1362966948437929
 31
0.0
  0
LINE
  5
1252
  8
0
  6
CONTINUOUS
 62
     7
 10
231.2663174906337
 20
3.6586365933689531
 30
0.0
 11
231.2663174906337
 21
8.0
 31
0.0
  0
ARC
  5
1253
  8
0
  6
CONTINUOUS
 62
     7
 10
224.15193921297239
 20
0.0
 30
0.0
 40
7.9999999999999201
 50
21.752038160010109
 51
27.21492359576154
  0
ARC
  5
1254
  8
0
  6
CONTINUOUS
 62
     7
 10
224.15193921297239
 20
0.0
 30
0.0
 40
7.9999999999998668
 50
14.477512185929861
 51
21.752038160010109
  0
ARC
  5
1255
  8
0
  6
CONTINUOUS
 62
     7
 10
224.15193921297239
 20
0.0
 30
0.0
 40
7.9999999999999414
 50
8.4210581181492081
 51
14.477512185929861
  0
ARC
  5
1256
  8
0
  6
CONTINUOUS
 62
     7
 10
224.15193921297239
 20
0.0
 30
0.0
 40
7.9999999999998916
 50
3.8409657162586641
 51
8.4210581181492081
  0
ARC
  5
1257
  8
0
  6
CONTINUOUS
 62
     7
 10
224.15193921297239
 20
0.0
 30
0.0
 40
7.9999999999999414
 50
0.9762004016000034
 51
3.8409657162586641
  0
ARC
  5
1258
  8
0
  6
CONTINUOUS
 62
     7
 10
224.15193921297239
 20
0.0
 30
0.0
 40
7.9999999999998863
 50
0.0
 51
0.9762004016000034
  0
ARC
  5
1259
  8
0
  6
CONTINUOUS
 62
     7
 10
224.15193921297239
 20
0.0
 30
0.0
 40
7.9999999999998836
 50
27.21492359576154
 51
34.985391651874707
  0
LINE
  5
125A
  8
0
  6
CONTINUOUS
 62
     7
 10
230.70632528396959
 20
4.586940508914096
 30
0.0
 11
230.70632528396959
 21
0.0
 31
0.0
  0
LINE
  5
125B
  8
0
  6
CONTINUOUS
 62
     7
 10
230.70632528396959
 20
4.586940508914096
 30
0.0
 11
230.2663174906337
 21
4.586940508914096
 31
0.0
  0
ARC
  5
125C
  8
0
  6
CONTINUOUS
 62
     7
 10
231.2561838608159
 20
16.700000000000099
 30
0.0
 40
0.2000000000001023
 50
270.0
 51
334.32835450982623
  0
ARC
  5
125D
  8
0
  6
CONTINUOUS
 62
     7
 10
231.25618386081561
 20
20.30000000000075
 30
0.0
 40
0.1999999999990431
 50
25.67164549016017
 51
89.999999999902286
  0
ARC
  5
125E
  8
0
  6
CONTINUOUS
 62
     7
 10
227.5113185506307
 20
18.5
 30
0.0
 40
4.3549989400031466
 50
334.32835450981861
 51
25.67164549019223
  0
LINE
  5
125F
  8
0
  6
CONTINUOUS
 62
     7
 10
231.2561838608159
 20
20.5
 30
0.0
 11
230.2663174906335
 21
20.5
 31
0.0
  0
LINE
  5
1260
  8
0
  6
CONTINUOUS
 62
     7
 10
230.26631749063409
 20
16.5
 30
0.0
 11
231.2561838608159
 21
16.5
 31
0.0
  0
LINE
  5
1261
  8
0
  6
CONTINUOUS
 62
     7
 10
229.7663174906337
 20
28.99999999999994
 30
0.0
 11
230.2663174906337
 21
28.99999999999994
 31
0.0
  0
LINE
  5
1262
  8
0
  6
CONTINUOUS
 62
     7
 10
242.2663174906337
 20
0.5
 30
0.0
 11
242.2663174906337
 21
7.5
 31
0.0
  0
LINE
  5
1263
  8
0
  6
CONTINUOUS
 62
     7
 10
241.7663174906337
 20
0.0
 30
0.0
 11
241.7663174906337
 21
6.5314067434194376
 31
0.0
  0
LINE
  5
1264
  8
0
  6
CONTINUOUS
 62
     7
 10
242.2663174906337
 20
0.5
 30
0.0
 11
241.7663174906337
 21
0.0
 31
0.0
  0
LINE
  5
1265
  8
0
  6
CONTINUOUS
 62
     7
 10
241.7663174906337
 20
8.0
 30
0.0
 11
242.2663174906337
 21
7.5
 31
0.0
  0
LINE
  5
1266
  8
0
  6
CONTINUOUS
 62
     7
 10
241.7663174906337
 20
7.0970921683687598
 30
0.0
 11
241.7663174906337
 21
8.0
 31
0.0
  0
LINE
  5
1267
  8
0
  6
CONTINUOUS
 62
     7
 10
241.4663174906338
 20
7.0970921683687598
 30
0.0
 11
242.2663174906337
 21
7.0970921683687598
 31
0.0
  0
LINE
  5
1268
  8
0
  6
CONTINUOUS
 62
     7
 10
241.4663174906338
 20
6.5314067434194376
 30
0.0
 11
241.4663174906338
 21
7.0970921683687598
 31
0.0
  0
LINE
  5
1269
  8
0
  6
CONTINUOUS
 62
     7
 10
242.2663174906337
 20
6.5314067434194376
 30
0.0
 11
241.4663174906338
 21
6.5314067434194376
 31
0.0
  0
LINE
  5
126A
  8
0
  6
DASHED
 62
     3
 10
-22.25
 20
-65.999999999999403
 30
0.0
 11
-22.25
 21
-58.499999999999368
 31
0.0
  0
LINE
  5
126B
  8
CENTER
  6
CENTER
 62
     1
 10
-20.0
 20
-67.999999999999403
 30
0.0
 11
-20.0
 21
-56.499999999999382
 31
0.0
  0
LINE
  5
126C
  8
CENTER
  6
CENTER
 62
     1
 10
-12.5
 20
-67.999999999999403
 30
0.0
 11
-12.5
 21
-56.499999999999382
 31
0.0
  0
LINE
  5
126D
  8
0
  6
DASHED
 62
     3
 10
-10.25
 20
-65.999999999999403
 30
0.0
 11
-10.25
 21
-58.499999999999368
 31
0.0
  0
LINE
  5
126E
  8
CENTER
  6
CENTER
 62
     1
 10
20.0
 20
-67.999999999999403
 30
0.0
 11
20.0
 21
-56.499999999999382
 31
0.0
  0
LINE
  5
126F
  8
0
  6
DASHED
 62
     3
 10
22.25
 20
-65.999999999999403
 30
0.0
 11
22.25
 21
-58.499999999999368
 31
0.0
  0
LINE
  5
1270
  8
CENTER
  6
CENTER
 62
     1
 10
12.5
 20
-67.999999999999403
 30
0.0
 11
12.5
 21
-56.499999999999382
 31
0.0
  0
LINE
  5
1271
  8
0
  6
DASHED
 62
     3
 10
10.25
 20
-65.999999999999403
 30
0.0
 11
10.25
 21
-58.499999999999368
 31
0.0
  0
LINE
  5
1274
  8
0
  6
DASHED
 62
     3
 10
-79.133158745316933
 20
-65.999999999999403
 30
0.0
 11
-79.133158745316933
 21
-58.499999999999368
 31
0.0
  0
LINE
  5
1275
  8
0
  6
DASHED
 62
     3
 10
-83.633158745316933
 20
-65.999999999999403
 30
0.0
 11
-83.633158745316933
 21
-58.499999999999368
 31
0.0
  0
LINE
  5
1276
  8
0
  6
DASHED
 62
     3
 10
85.133158745316933
 20
-58.499999999999368
 30
0.0
 11
85.133158745316933
 21
-65.999999999999403
 31
0.0
  0
LINE
  5
1277
  8
0
  6
DASHED
 62
     3
 10
89.633158745316919
 20
-58.499999999999368
 30
0.0
 11
89.633158745316933
 21
-65.999999999999403
 31
0.0
  0
LINE
  5
1278
  8
CENTER
  6
CENTER
 62
     1
 10
20.0
 20
65.06868735473364
 30
0.0
 11
20.000000000000011
 21
73.568687354733584
 31
0.0
  0
LINE
  5
1279
  8
CENTER
  6
CENTER
 62
     1
 10
-19.99999999999989
 20
65.068687354733413
 30
0.0
 11
-19.999999999999929
 21
73.568687354733527
 31
0.0
  0
LINE
  5
127A
  8
0
  6
DASHED
 62
     3
 10
-19.999999999999901
 20
71.568687354733527
 30
0.0
 11
-12.49999999999998
 21
71.56868735473347
 31
0.0
  0
LINE
  5
127B
  8
0
  6
DASHED
 62
     3
 10
12.5
 20
71.568687354733612
 30
0.0
 11
20.0
 21
71.568687354733584
 31
0.0
  0
ARC
  5
127C
  8
0
  6
CONTINUOUS
 62
     7
 10
-20.0
 20
69.31868735473347
 30
0.0
 40
2.2500000000000511
 50
159.172503067988
 51
270.0
  0
ARC
  5
127D
  8
0
  6
DASHED
 62
     3
 10
-12.5
 20
69.31868735473347
 30
0.0
 40
2.25
 50
333.61220003875701
 51
90.000000000002615
  0
ARC
  5
127E
  8
0
  6
CONTINUOUS
 62
     7
 10
12.5
 20
69.31868735473364
 30
0.0
 40
2.2499999999999671
 50
206.38779996124819
 51
270.0
  0
LINE
  5
127F
  8
CENTER
  6
CENTER
 62
     1
 10
233.86631749063389
 20
18.49999999999994
 30
0.0
 11
228.2663174906337
 21
18.49999999999994
 31
0.0
  0
LINE
  5
1280
  8
CENTER
  6
CENTER
 62
     1
 10
-18.500000000000028
 20
18.49999999999994
 30
0.0
 11
-24.09999999999922
 21
18.49999999999994
 31
0.0
  0
LINE
  5
12AB
  8
CENTER
  6
CENTER
 62
     1
 10
8.4999999999999147
 20
20.0
 30
0.0
 11
16.499999999999911
 21
20.0
 31
0.0
  0
LINE
  5
12AC
  8
CENTER
  6
CENTER
 62
     1
 10
-12.5
 20
4.0
 30
0.0
 11
-12.5
 21
-4.0
 31
0.0
  0
LINE
  5
12AD
  8
CENTER
  6
CENTER
 62
     1
 10
-12.5
 20
-16.0
 30
0.0
 11
-12.5
 21
-24.0
 31
0.0
  0
LINE
  5
12AE
  8
CENTER
  6
CENTER
 62
     1
 10
8.499999999999801
 20
-20.0
 30
0.0
 11
16.500000000000028
 21
-20.0
 31
0.0
  0
LINE
  5
12AF
  8
CENTER
  6
CENTER
 62
     1
 10
12.49999999999998
 20
-15.999999999999879
 30
0.0
 11
12.5
 21
-24.00000000000011
 31
0.0
  0
LINE
  5
12B0
  8
CENTER
  6
CENTER
 62
     1
 10
12.49999999999995
 20
4.0
 30
0.0
 11
12.499999999999959
 21
-4.0
 31
0.0
  0
LINE
  5
12B1
  8
CENTER
  6
CENTER
 62
     1
 10
216.2663174906337
 20
24.0
 30
0.0
 11
228.2663174906337
 21
24.0
 31
0.0
  0
LINE
  5
12B2
  8
CENTER
  6
CENTER
 62
     1
 10
222.2663174906337
 20
18.0
 30
0.0
 11
222.2663174906337
 21
30.0
 31
0.0
  0
LINE
  5
12B3
  8
CENTER
  6
CENTER
 62
     1
 10
197.2663174906337
 20
18.0
 30
0.0
 11
197.2663174906337
 21
30.0
 31
0.0
  0
LINE
  5
12B4
  8
CENTER
  6
CENTER
 62
     1
 10
216.2663174906337
 20
-24.0
 30
0.0
 11
228.2663174906337
 21
-24.0
 31
0.0
  0
LINE
  5
12B5
  8
CENTER
  6
CENTER
 62
     1
 10
244.26631749063381
 20
4.0
 30
0.0
 11
228.2663174906337
 21
4.0
 31
0.0
  0
LINE
  5
12B6
  8
CENTER
  6
CENTER
 62
     1
 10
-18.5
 20
4.0
 30
0.0
 11
-34.500000000000107
 21
4.0
 31
0.0
  0
LINE
  5
12C0
  8
CENTER
  6
CENTER
 62
     1
 10
189.7663174906337
 20
-67.999999999999403
 30
0.0
 11
189.7663174906337
 21
-56.499999999999382
 31
0.0
  0
LINE
  5
12C1
  8
CENTER
  6
CENTER
 62
     1
 10
197.2663174906337
 20
-67.999999999999403
 30
0.0
 11
197.2663174906337
 21
-56.499999999999382
 31
0.0
  0
LINE
  5
12C2
  8
CENTER
  6
CENTER
 62
     1
 10
222.2663174906337
 20
-67.999999999999403
 30
0.0
 11
222.2663174906337
 21
-56.499999999999382
 31
0.0
  0
LINE
  5
12C3
  8
CENTER
  6
CENTER
 62
     1
 10
229.7663174906337
 20
-67.999999999999403
 30
0.0
 11
229.7663174906337
 21
-56.499999999999382
 31
0.0
  0
LINE
  5
12C4
  8
CENTER
  6
CENTER
 62
     1
 10
-18.50000000000075
 20
80.618687354733026
 30
0.0
 11
-24.099999999999941
 21
80.618687354733026
 31
0.0
  0
LINE
  5
12C6
  8
CENTER
  6
CENTER
 62
     1
 10
-18.50000000000113
 20
-18.500000000000458
 30
0.0
 11
-24.100000000000328
 21
-18.500000000000458
 31
0.0
  0
LINE
  5
12C7
  8
CENTER
  6
CENTER
 62
     1
 10
233.86631749063281
 20
-18.500000000000458
 30
0.0
 11
228.26631749063259
 21
-18.500000000000458
 31
0.0
  0
LINE
  5
12C8
  8
CENTER
  6
CENTER
 62
     1
 10
-18.499999999999812
 20
74.118687354733481
 30
0.0
 11
-34.499999999999929
 21
74.118687354733481
 31
0.0
  0
LINE
  5
12C9
  8
CENTER
  6
CENTER
 62
     1
 10
-18.499999999999812
 20
-116.11868735473369
 30
0.0
 11
-34.499999999999929
 21
-116.11868735473369
 31
0.0
  0
TEXT
  5
12CD
  8
0
  6
CONTINUOUS
 62
     7
 10
-109.7160546160728
 20
-129.5541580167247
 30
0.0
 40
3.0
  1
ZWGCL60
  0
TEXT
  5
12CE
  8
0
  6
CONTINUOUS
 62
     7
 10
-109.7160546160728
 20
-133.79427872537821
 30
0.0
 40
3.0
  1
ZWGCL60
  0
LINE
  5
12DA
  8
0
  6
CONTINUOUS
 62
     7
 10
97.762158745316825
 20
0.9999999999999431
 30
0.0
 11
97.762158745316825
 21
-1.000000000000056
 31
0.0
  0
LINE
  5
12DB
  8
0
  6
CONTINUOUS
 62
     3
 10
97.383158745316933
 20
0.9999999999999431
 30
0.0
 11
97.383158745316933
 21
-1.000000000000056
 31
0.0
  0
ENDSEC
  0
EOF
