  0
SECTION
  2
HEADER
  9
$ACADVER
  1
AC1009
  9
$INSBASE
 10
0.0
 20
0.0
 30
0.0
  9
$EXTMIN
 10
-2.0128774354383259
 20
-8.0093071512054621
 30
-0.0015258207003583
  9
$EXTMAX
 10
151.0149237651087049
 20
99.0078282384292834
 30
0.0000000349246037
  9
$LIMMIN
 10
0.0
 20
0.0
  9
$LIMMAX
 10
420.0
 20
297.0
  9
$ORTHOMODE
 70
     1
  9
$REGENMODE
 70
     1
  9
$FILLMODE
 70
     1
  9
$QTEXTMODE
 70
     0
  9
$MIRRTEXT
 70
     0
  9
$DRAGMODE
 70
     2
  9
$LTSCALE
 40
0.5
  9
$OSMODE
 70
  2983
  9
$ATTMODE
 70
     1
  9
$TEXTSIZE
 40
3.0
  9
$TRACEWID
 40
1.0
  9
$TEXTSTYLE
  7
STANDARD
  9
$CLAYER
  8
MSM_CONTINUOUS
  9
$CELTYPE
  6
BYLAYER
  9
$CECOLOR
 62
   256
  9
$DIMSCALE
 40
1.0
  9
$DIMASZ
 40
2.5
  9
$DIMEXO
 40
0.625
  9
$DIMDLI
 40
3.75
  9
$DIMRND
 40
0.0
  9
$DIMDLE
 40
0.0
  9
$DIMEXE
 40
1.25
  9
$DIMTP
 40
0.0
  9
$DIMTM
 40
0.0
  9
$DIMTXT
 40
3.0
  9
$DIMCEN
 40
2.5
  9
$DIMTSZ
 40
0.0
  9
$DIMTOL
 70
     0
  9
$DIMLIM
 70
     0
  9
$DIMTIH
 70
     0
  9
$DIMTOH
 70
     0
  9
$DIMSE1
 70
     0
  9
$DIMSE2
 70
     0
  9
$DIMTAD
 70
     1
  9
$DIMZIN
 70
     8
  9
$DIMBLK
  1
OPEN30
  9
$DIMASO
 70
     1
  9
$DIMSHO
 70
     1
  9
$DIMPOST
  1

  9
$DIMAPOST
  1

  9
$DIMALT
 70
     0
  9
$DIMALTD
 70
     3
  9
$DIMALTF
 40
0.03937007874016
  9
$DIMLFAC
 40
1.0
  9
$DIMTOFL
 70
     1
  9
$DIMTVP
 40
0.0
  9
$DIMTIX
 70
     0
  9
$DIMSOXD
 70
     0
  9
$DIMSAH
 70
     0
  9
$DIMBLK1
  1

  9
$DIMBLK2
  1

  9
$DIMSTYLE
  2
MISUMI
  9
$DIMCLRD
 70
   256
  9
$DIMCLRE
 70
   256
  9
$DIMCLRT
 70
   256
  9
$DIMTFAC
 40
1.0
  9
$DIMGAP
 40
0.625
  9
$LUNITS
 70
     2
  9
$LUPREC
 70
     2
  9
$SKETCHINC
 40
1.0
  9
$FILLETRAD
 40
0.0
  9
$AUNITS
 70
     0
  9
$AUPREC
 70
     0
  9
$MENU
  1
.
  9
$ELEVATION
 40
0.0
  9
$PELEVATION
 40
0.0
  9
$THICKNESS
 40
0.0
  9
$LIMCHECK
 70
     0
  9
$BLIPMODE
 70
     0
  9
$CHAMFERA
 40
0.5
  9
$CHAMFERB
 40
0.5
  9
$SKPOLY
 70
     0
  9
$TDCREATE
 40
2455135.9470601850189269
  9
$TDUPDATE
 40
2459034.7611921299248934
  9
$TDINDWG
 40
0.7541185647999999
  9
$TDUSRTIMER
 40
0.0009907523
  9
$USRTIMER
 70
     1
  9
$ANGBASE
 50
0.0
  9
$ANGDIR
 70
     0
  9
$PDMODE
 70
    35
  9
$PDSIZE
 40
0.0
  9
$PLINEWID
 40
0.0
  9
$COORDS
 70
     1
  9
$SPLFRAME
 70
     0
  9
$SPLINETYPE
 70
     6
  9
$SPLINESEGS
 70
     8
  9
$ATTDIA
 70
     1
  9
$ATTREQ
 70
     1
  9
$HANDLING
 70
     1
  9
$HANDSEED
  5
F7C4
  9
$SURFTAB1
 70
     6
  9
$SURFTAB2
 70
     6
  9
$SURFTYPE
 70
     6
  9
$SURFU
 70
     6
  9
$SURFV
 70
     6
  9
$UCSNAME
  2

  9
$UCSORG
 10
0.0
 20
0.0
 30
0.0
  9
$UCSXDIR
 10
1.0
 20
0.0
 30
0.0
  9
$UCSYDIR
 10
0.0
 20
1.0
 30
0.0
  9
$PUCSNAME
  2

  9
$PUCSORG
 10
0.0
 20
0.0
 30
0.0
  9
$PUCSXDIR
 10
1.0
 20
0.0
 30
0.0
  9
$PUCSYDIR
 10
0.0
 20
1.0
 30
0.0
  9
$USERI1
 70
     0
  9
$USERI2
 70
     0
  9
$USERI3
 70
     0
  9
$USERI4
 70
     0
  9
$USERI5
 70
     0
  9
$USERR1
 40
0.0
  9
$USERR2
 40
0.0
  9
$USERR3
 40
0.0
  9
$USERR4
 40
0.0
  9
$USERR5
 40
0.0
  9
$WORLDVIEW
 70
     1
  9
$SHADEDGE
 70
     3
  9
$SHADEDIF
 70
    70
  9
$TILEMODE
 70
     1
  9
$MAXACTVP
 70
    48
  9
$PLIMCHECK
 70
     0
  9
$PEXTMIN
 10
25.6999999999999886
 20
19.5
 30
0.0
  9
$PEXTMAX
 10
231.3000000000000114
 20
175.5
 30
0.0
  9
$PLIMMIN
 10
-20.0
 20
-7.5
  9
$PLIMMAX
 10
277.0
 20
202.5
  9
$UNITMODE
 70
     0
  9
$VISRETAIN
 70
     1
  9
$PLINEGEN
 70
     0
  9
$PSLTSCALE
 70
     1
  0
ENDSEC
  0
SECTION
  2
TABLES
  0
TABLE
  2
VPORT
 70
     1
  0
VPORT
  2
*ACTIVE
 70
     0
 10
0.0
 20
0.0
 11
1.0
 21
1.0
 12
74.5010231648352033
 22
45.4992605436119106
 13
0.0
 23
0.0
 14
10.0
 24
10.0
 15
10.0
 25
10.0
 16
0.0
 26
0.0
 36
1.0
 17
0.0
 27
0.0
 37
0.0
 40
107.9003579650649982
 41
2.0564738292011011
 42
50.0
 43
0.0
 44
0.0
 50
0.0
 51
0.0
 71
    16
 72
  1000
 73
     1
 74
     3
 75
     0
 76
     0
 77
     0
 78
     0
  0
ENDTAB
  0
TABLE
  2
LTYPE
 70
     4
  0
LTYPE
  2
CONTINUOUS
 70
     0
  3
Solid line
 72
    65
 73
     0
 40
0.0
  0
LTYPE
  2
CENTER
 70
     0
  3
Center ____ _ ____ _ ____ _ ____ _ ____ _ ____
 72
    65
 73
     4
 40
50.7999999999999972
 49
31.75
 49
-6.3499999999999988
 49
6.3499999999999988
 49
-6.3499999999999988
  0
LTYPE
  2
DASHED
 70
     0
  3
Dashed __ __ __ __ __ __ __ __ __ __ __ __ __ _
 72
    65
 73
     2
 40
19.0500000000000007
 49
12.6999999999999993
 49
-6.3499999999999988
  0
LTYPE
  2
PHANTOM
 70
     0
  3
Phantom ______  __  __  ______  __  __  ______
 72
    65
 73
     6
 40
63.5
 49
31.75
 49
-6.3499999999999988
 49
6.3499999999999988
 49
-6.3499999999999988
 49
6.3499999999999988
 49
-6.3499999999999988
  0
ENDTAB
  0
TABLE
  2
LAYER
 70
     7
  0
LAYER
  2
0
 70
     0
 62
     7
  6
CONTINUOUS
  0
LAYER
  2
MSM_CENTER
 70
     0
 62
     1
  6
CENTER
  0
LAYER
  2
MSM_CONTINUOUS
 70
     0
 62
     7
  6
CONTINUOUS
  0
LAYER
  2
MSM_DASHED
 70
     0
 62
     4
  6
DASHED
  0
LAYER
  2
MSM_IMAGINARY
 70
     0
 62
     6
  6
PHANTOM
  0
LAYER
  2
MSM_NARROW
 70
     0
 62
     5
  6
CONTINUOUS
  0
LAYER
  2
MSM_PART_NUMBER
 70
     0
 62
     7
  6
CONTINUOUS
  0
ENDTAB
  0
TABLE
  2
STYLE
 70
     1
  0
STYLE
  2
STANDARD
 70
     0
 40
3.0
 41
1.0
 50
0.0
 71
     0
 42
3.0
  3
txt.shx
  4
bigfont.shx
  0
ENDTAB
  0
TABLE
  2
VIEW
 70
     2
  0
ENDTAB
  0
TABLE
  2
UCS
 70
     0
  0
ENDTAB
  0
TABLE
  2
APPID
 70
    26
  0
APPID
  2
ACAD
 70
     0
  0
APPID
  2
ACAD_MLEADERVER
 70
     0
  0
APPID
  2
ACAD_EXEMPT_FROM_CAD_STANDARDS
 70
     0
  0
APPID
  2
ACDBBLOCKREPETAG
 70
     0
  0
APPID
  2
ACAD_DSTYLE_DIMJOGGED_JOGA
 70
     0
  0
APPID
  2
ACAECLAYERSTANDARD
 70
     0
  0
APPID
  2
GENIUS_GENODEF_13
 70
     0
  0
APPID
  2
GENIUS_GENOBJ-N-FIL_13
 70
     0
  0
APPID
  2
ACAD_PSEXT
 70
     0
  0
APPID
  2
ACAD_DSTYLE_DIMRADIAL_EXTENSION
 70
     0
  0
APPID
  2
ACDBDYNAMICBLOCKTRUENAME
 70
     0
  0
APPID
  2
ACDBDYNAMICBLOCKGUID
 70
     0
  0
APPID
  2
ACDBBLOCKREPBTAG
 70
     0
  0
APPID
  2
ACAUTHENVIRON
 70
     0
  0
APPID
  2
GRADIENTCOLOR1ACI
 70
     0
  0
APPID
  2
GRADIENTCOLOR2ACI
 70
     0
  0
APPID
  2
ACAD_DSTYLE_DIMJAG
 70
     0
  0
APPID
  2
ACAD_DSTYLE_DIMTALN
 70
     0
  0
APPID
  2
ACCMTRANSPARENCY
 70
     0
  0
APPID
  2
ACAD_DSTYLE_DIMBREAK
 70
     0
  0
APPID
  2
ACAD_DSTYLE_DIMFLIPARROW_W
 70
     0
  0
APPID
  2
ACAD_DSTYLE_DIM_LINETYPE
 70
     0
  0
APPID
  2
ACAD_DSTYLE_DIM_EXT1_LINETYPE
 70
     0
  0
APPID
  2
ACAD_DSTYLE_DIM_EXT2_LINETYPE
 70
     0
  0
APPID
  2
ACAD_NAV_VCDISPLAY
 70
     0
  0
APPID
  2
PLOTTRANSPARENCY
 70
     0
  0
ENDTAB
  0
TABLE
  2
DIMSTYLE
 70
     1
  0
DIMSTYLE
  2
MISUMI
 70
     0
  3

  4

  5
OPEN30
  6

  7

 40
1.0
 41
2.5
 42
0.625
 43
3.75
 44
1.25
 45
0.0
 46
0.0
 47
0.0
 48
0.0
140
3.0
141
2.5
142
0.0
143
0.03937007874016
144
1.0
145
0.0
146
1.0
147
0.625
 71
     0
 72
     0
 73
     0
 74
     0
 75
     0
 76
     0
 77
     1
 78
     8
170
     0
171
     3
172
     1
173
     0
174
     0
175
     0
176
   256
177
   256
178
   256
  0
ENDTAB
  0
ENDSEC
  0
SECTION
  2
BLOCKS
  0
BLOCK
  8
0
  2
$MODEL_SPACE
 70
     0
 10
0.0
 20
0.0
 30
0.0
  3
$MODEL_SPACE
  1

  0
ENDBLK
  5
21
  8
0
  0
BLOCK
 67
     1
  8
0
  2
$PAPER_SPACE
 70
     0
 10
0.0
 20
0.0
 30
0.0
  3
$PAPER_SPACE
  1

  0
ENDBLK
  5
F711
 67
     1
  8
0
  0
BLOCK
  8
0
 62
     7
  2
_OPEN30
 70
     0
 10
0.0
 20
0.0
 30
0.0
  3
_OPEN30
  1

  0
LINE
  5
D7
  8
0
  6
BYBLOCK
 62
     0
 10
-1.0
 20
0.26794919
 30
0.0
 11
0.0
 21
0.0
 31
0.0
  0
LINE
  5
D8
  8
0
  6
BYBLOCK
 62
     0
 10
0.0
 20
0.0
 30
0.0
 11
-1.0
 21
-0.26794919
 31
0.0
  0
LINE
  5
D9
  8
0
  6
BYBLOCK
 62
     0
 10
0.0
 20
0.0
 30
0.0
 11
-1.0
 21
0.0
 31
0.0
  0
ENDBLK
  5
DB
  8
0
 62
     7
  0
ENDSEC
  0
SECTION
  2
ENTITIES
  0
TEXT
  5
E22B
  8
MSM_PART_NUMBER
 10
0.0
 20
-8.0
 30
0.0
 40
3.0
  1
XSENC080
  0
TEXT
  5
E22C
  8
MSM_PART_NUMBER
 10
0.0
 20
-3.0
 30
0.0
 40
3.0
  1
XSENC80-10
  0
LINE
  5
F095
  8
MSM_CONTINUOUS
 10
7.5000000000000044
 20
27.0
 30
0.0
 11
0.5000000000000054
 21
27.0
 31
0.0
  0
LINE
  5
F096
  8
MSM_CONTINUOUS
 10
7.5000000000000044
 20
15.0
 30
0.0
 11
8.0000000000000053
 21
15.5
 31
0.0
  0
LINE
  5
F097
  8
MSM_CONTINUOUS
 10
8.0000000000000053
 20
26.5
 30
0.0
 11
7.5000000000000044
 21
27.0
 31
0.0
  0
LINE
  5
F098
  8
MSM_CONTINUOUS
 10
0.5000000000000054
 20
27.0
 30
0.0
 11
0.0000000000000053
 21
26.5
 31
0.0
  0
LINE
  5
F099
  8
MSM_CONTINUOUS
 10
0.0000000000000053
 20
15.5
 30
0.0
 11
0.5000000000000054
 21
15.0
 31
0.0
  0
LINE
  5
F09A
  8
MSM_CONTINUOUS
 10
15.8000000000000203
 20
16.5
 30
0.0
 11
16.0000000000000107
 21
16.6999999999999886
 31
0.0
  0
LINE
  5
F09B
  8
MSM_CONTINUOUS
 10
16.0000000000000107
 20
25.3000000000000114
 30
0.0
 11
15.8000000000000203
 21
25.5
 31
0.0
  0
LINE
  5
F09C
  8
MSM_CONTINUOUS
 10
8.0000000000000053
 20
16.5
 30
0.0
 11
15.8000000000000203
 21
16.5
 31
0.0
  0
LINE
  5
F09D
  8
MSM_CONTINUOUS
 10
15.8000000000000203
 20
25.5
 30
0.0
 11
8.0000000000000053
 21
25.5
 31
0.0
  0
LINE
  5
F09E
  8
MSM_CONTINUOUS
 10
81.5000000000000142
 20
19.6000000000000014
 30
0.0
 11
81.1000000000000369
 21
20.0000000000000107
 31
0.0
  0
LINE
  5
F09F
  8
MSM_CONTINUOUS
 10
74.9000000000000057
 20
20.0000000000000107
 30
0.0
 11
74.5000000000000142
 21
19.6000000000000014
 31
0.0
  0
LINE
  5
F0A0
  8
MSM_CONTINUOUS
 10
74.5000000000000142
 20
19.6000000000000014
 30
0.0
 11
74.5000000000000142
 21
16.0000000000000107
 31
0.0
  0
LINE
  5
F0A1
  8
MSM_CONTINUOUS
 10
81.5000000000000142
 20
16.0000000000000107
 30
0.0
 11
81.5000000000000142
 21
19.6000000000000014
 31
0.0
  0
LINE
  5
F0A2
  8
MSM_CONTINUOUS
 10
76.0000000000000142
 20
10.4295000000000009
 30
0.0
 11
76.4295000000000329
 21
10.0000000000000107
 31
0.0
  0
LINE
  5
F0A3
  8
MSM_CONTINUOUS
 10
79.5705000000000524
 20
10.0000000000000107
 30
0.0
 11
80.0000000000000142
 21
10.4295000000000009
 31
0.0
  0
LINE
  5
F0A4
  8
MSM_CONTINUOUS
 10
76.0000000000000142
 20
14.0000000000000107
 30
0.0
 11
76.0000000000000142
 21
10.4295000000000009
 31
0.0
  0
LINE
  5
F0A5
  8
MSM_CONTINUOUS
 10
80.0000000000000142
 20
10.4295000000000009
 30
0.0
 11
80.0000000000000142
 21
14.0000000000000107
 31
0.0
  0
LINE
  5
F0A6
  8
MSM_CONTINUOUS
 10
37.5000000000000071
 20
19.5999999999999908
 30
0.0
 11
37.1000000000000298
 21
20.0
 31
0.0
  0
LINE
  5
F0A7
  8
MSM_CONTINUOUS
 10
30.8999999999999808
 20
20.0
 30
0.0
 11
30.5000000000000107
 21
19.5999999999999908
 31
0.0
  0
LINE
  5
F0A8
  8
MSM_CONTINUOUS
 10
30.5000000000000107
 20
19.5999999999999908
 30
0.0
 11
30.5000000000000107
 21
16.0
 31
0.0
  0
LINE
  5
F0A9
  8
MSM_CONTINUOUS
 10
37.5000000000000071
 20
16.0
 30
0.0
 11
37.5000000000000071
 21
19.5999999999999908
 31
0.0
  0
LINE
  5
F0AA
  8
MSM_CONTINUOUS
 10
32.0000000000000071
 20
10.4294999999999902
 30
0.0
 11
32.4295000000000329
 21
10.0
 31
0.0
  0
LINE
  5
F0AB
  8
MSM_CONTINUOUS
 10
35.5704999999999885
 20
10.0
 30
0.0
 11
36.0000000000000071
 21
10.4294999999999902
 31
0.0
  0
LINE
  5
F0AC
  8
MSM_CONTINUOUS
 10
32.0000000000000071
 20
14.0
 30
0.0
 11
32.0000000000000071
 21
10.4294999999999902
 31
0.0
  0
LINE
  5
F0AD
  8
MSM_CONTINUOUS
 10
36.0000000000000071
 20
10.4294999999999902
 30
0.0
 11
36.0000000000000071
 21
14.0
 31
0.0
  0
LINE
  5
F0B1
  8
MSM_CONTINUOUS
 10
7.5000000000000044
 20
15.0000000000000302
 30
0.0
 11
7.5000000000000044
 21
27.0
 31
0.0
  0
LINE
  5
F0B3
  8
MSM_CONTINUOUS
 10
0.5000000000000054
 20
15.0000000000000302
 30
0.0
 11
0.5000000000000054
 21
27.0
 31
0.0
  0
LINE
  5
F0B5
  8
MSM_CONTINUOUS
 10
8.0000000000000053
 20
15.5
 30
0.0
 11
8.0000000000000053
 21
26.5
 31
0.0
  0
LINE
  5
F0B7
  8
MSM_CONTINUOUS
 10
0.0000000000000053
 20
15.5
 30
0.0
 11
0.0000000000000053
 21
26.5
 31
0.0
  0
LINE
  5
F0B9
  8
MSM_CONTINUOUS
 10
15.8000000000000203
 20
16.5
 30
0.0
 11
15.8000000000000203
 21
25.5
 31
0.0
  0
LINE
  5
F0BA
  8
MSM_CONTINUOUS
 10
43.5
 20
28.8000000000000114
 30
0.0
 11
27.5000000000000107
 21
28.8000000000000114
 31
0.0
  0
LINE
  5
F0BE
  8
MSM_CONTINUOUS
 10
43.5
 20
29.0
 30
0.0
 11
43.5
 21
28.0
 31
0.0
  0
LINE
  5
F0BF
  8
MSM_CONTINUOUS
 10
74.5000000000000142
 20
19.6000000000000014
 30
0.0
 11
81.5000000000000142
 21
19.6000000000000014
 31
0.0
  0
LINE
  5
F0C0
  8
MSM_CONTINUOUS
 10
74.9000000000000057
 20
20.0000000000000107
 30
0.0
 11
81.1000000000000369
 21
20.0000000000000107
 31
0.0
  0
LINE
  5
F0C1
  8
MSM_CONTINUOUS
 10
76.4295000000000329
 20
10.0000000000000107
 30
0.0
 11
79.5705000000000524
 21
10.0000000000000107
 31
0.0
  0
LINE
  5
F0C2
  8
MSM_CONTINUOUS
 10
76.0000000000000142
 20
10.4295000000000009
 30
0.0
 11
80.0000000000000142
 21
10.4295000000000009
 31
0.0
  0
LINE
  5
F0C3
  8
MSM_CONTINUOUS
 10
30.5000000000000107
 20
19.5999999999999908
 30
0.0
 11
37.5000000000000071
 21
19.5999999999999908
 31
0.0
  0
LINE
  5
F0C4
  8
MSM_CONTINUOUS
 10
30.8999999999999808
 20
20.0
 30
0.0
 11
37.1000000000000298
 21
20.0
 31
0.0
  0
LINE
  5
F0C5
  8
MSM_CONTINUOUS
 10
32.4295000000000329
 20
10.0
 30
0.0
 11
35.5704999999999885
 21
10.0
 31
0.0
  0
LINE
  5
F0C6
  8
MSM_CONTINUOUS
 10
32.0000000000000071
 20
10.4294999999999902
 30
0.0
 11
36.0000000000000071
 21
10.4294999999999902
 31
0.0
  0
LINE
  5
F0C7
  8
MSM_CONTINUOUS
 10
96.0
 20
16.0
 30
0.0
 11
16.0000000000000107
 21
16.0
 31
0.0
  0
LINE
  5
F0C8
  8
MSM_CONTINUOUS
 10
96.0
 20
29.0
 30
0.0
 11
96.0
 21
14.0
 31
0.0
  0
LINE
  5
F0C9
  8
MSM_CONTINUOUS
 10
96.0
 20
14.0
 30
0.0
 11
16.0000000000000107
 21
14.0
 31
0.0
  0
LINE
  5
F0CA
  8
MSM_CONTINUOUS
 10
16.0000000000000107
 20
29.0
 30
0.0
 11
16.0000000000000107
 21
14.0
 31
0.0
  0
LINE
  5
F0CB
  8
MSM_CONTINUOUS
 10
96.0
 20
28.0
 30
0.0
 11
16.0000000000000107
 21
28.0
 31
0.0
  0
LINE
  5
F0CE
  8
MSM_CONTINUOUS
 10
43.5
 20
29.0
 30
0.0
 11
16.0000000000000107
 21
29.0
 31
0.0
  0
LINE
  5
F0CF
  8
MSM_CONTINUOUS
 10
27.5000000000000107
 20
29.0
 30
0.0
 11
27.5000000000000107
 21
28.0
 31
0.0
  0
LINE
  5
F0D1
  8
MSM_CONTINUOUS
 10
84.5000000000000142
 20
29.0
 30
0.0
 11
96.0
 21
29.0
 31
0.0
  0
LINE
  5
F0D2
  8
MSM_CONTINUOUS
 10
84.5000000000000142
 20
29.0
 30
0.0
 11
84.5000000000000142
 21
28.0
 31
0.0
  0
LINE
  5
F0E0
  8
MSM_DASHED
 10
3.000000000000004
 20
22.1547005383792985
 30
0.0
 11
0.0000000000000053
 21
22.1547005383792985
 31
0.0
  0
LINE
  5
F0E3
  8
MSM_DASHED
 10
95.570500000000024
 20
19.0
 30
0.0
 11
95.570500000000024
 21
23.0
 31
0.0
  0
LINE
  5
F0E6
  8
MSM_DASHED
 10
3.000000000000004
 20
19.8452994616207015
 30
0.0
 11
0.0000000000000053
 21
19.8452994616207015
 31
0.0
  0
LINE
  5
F0E8
  8
MSM_DASHED
 10
3.000000000000004
 20
23.3094010767585189
 30
0.0
 11
3.000000000000004
 21
18.6905989232414811
 31
0.0
  0
LINE
  5
F0E9
  8
MSM_DASHED
 10
3.000000000000004
 20
23.3094010767585189
 30
0.0
 11
0.0000000000000062
 21
23.3094010767585189
 31
0.0
  0
LINE
  5
F0EA
  8
MSM_DASHED
 10
3.000000000000004
 20
18.6905989232414811
 30
0.0
 11
0.0000000000000062
 21
18.6905989232414811
 31
0.0
  0
LINE
  5
F0EC
  8
MSM_DASHED
 10
43.5
 20
28.0
 30
0.0
 11
43.5
 21
16.0
 31
0.0
  0
LINE
  5
F0EE
  8
MSM_DASHED
 10
29.2704999999999806
 20
28.7295000000000016
 30
0.0
 11
31.7295000000000407
 21
28.7295000000000016
 31
0.0
  0
LINE
  5
F0F0
  8
MSM_DASHED
 10
39.2704999999999771
 20
28.7295000000000016
 30
0.0
 11
41.72950000000003
 21
28.7295000000000016
 31
0.0
  0
LINE
  5
F0F2
  8
MSM_DASHED
 10
29.2704999999999806
 20
23.8598521559685786
 30
0.0
 11
31.7295000000000407
 21
23.8598521559685786
 31
0.0
  0
LINE
  5
F0F4
  8
MSM_DASHED
 10
39.2704999999999771
 20
23.8598521559685786
 30
0.0
 11
41.72950000000003
 21
23.8598521559685786
 31
0.0
  0
LINE
  5
F0F9
  8
MSM_DASHED
 10
79.5000000000000142
 20
18.0000000000000107
 30
0.0
 11
76.5000000000000142
 21
18.0000000000000107
 31
0.0
  0
LINE
  5
F0FA
  8
MSM_DASHED
 10
79.5000000000000142
 20
18.0000000000000107
 30
0.0
 11
79.5000000000000142
 21
20.0000000000000107
 31
0.0
  0
LINE
  5
F100
  8
MSM_DASHED
 10
35.5000000000000071
 20
18.0
 30
0.0
 11
32.5000000000000071
 21
18.0
 31
0.0
  0
LINE
  5
F101
  8
MSM_DASHED
 10
32.5000000000000071
 20
18.0
 30
0.0
 11
32.5000000000000071
 21
20.0
 31
0.0
  0
LINE
  5
F104
  8
MSM_DASHED
 10
27.5000000000000107
 20
28.0
 30
0.0
 11
27.5000000000000107
 21
16.0
 31
0.0
  0
LINE
  5
F106
  8
MSM_DASHED
 10
84.5000000000000142
 20
28.0
 30
0.0
 11
84.5000000000000142
 21
16.0
 31
0.0
  0
LINE
  5
F107
  8
MSM_DASHED
 10
84.5000000000000142
 20
26.0
 30
0.0
 11
27.5000000000000107
 21
26.0
 31
0.0
  0
LINE
  5
F119
  8
MSM_DASHED
 10
3.000000000000004
 20
19.0
 30
0.0
 11
4.6781992623546147
 21
21.0
 31
0.0
  0
LINE
  5
F11A
  8
MSM_DASHED
 10
4.6781992623546147
 20
21.0
 30
0.0
 11
3.000000000000004
 21
23.0
 31
0.0
  0
LINE
  5
F11B
  8
MSM_DASHED
 10
16.0000000000000107
 20
19.0
 30
0.0
 11
96.0000000000000426
 21
19.0
 31
0.0
  0
LINE
  5
F11C
  8
MSM_DASHED
 10
96.0
 20
23.0
 30
0.0
 11
16.0000000000000107
 21
23.0
 31
0.0
  0
LINE
  5
F11D
  8
MSM_DASHED
 10
95.570500000000024
 20
19.0
 30
0.0
 11
96.0
 21
19.4294999999999902
 31
0.0
  0
LINE
  5
F11E
  8
MSM_DASHED
 10
96.0
 20
22.5705000000000098
 30
0.0
 11
95.570500000000024
 21
23.0
 31
0.0
  0
LINE
  5
F121
  8
MSM_DASHED
 10
29.0000000000000107
 20
29.0
 30
0.0
 11
29.2704999999999806
 21
28.7295000000000016
 31
0.0
  0
LINE
  5
F122
  8
MSM_DASHED
 10
31.7295000000000407
 20
28.7295000000000016
 30
0.0
 11
32.0000000000000071
 21
29.0
 31
0.0
  0
LINE
  5
F123
  8
MSM_DASHED
 10
39.0000000000000071
 20
29.0
 30
0.0
 11
39.2704999999999771
 21
28.7295000000000016
 31
0.0
  0
LINE
  5
F124
  8
MSM_DASHED
 10
41.72950000000003
 20
28.7295000000000016
 30
0.0
 11
42.0000000000000071
 21
29.0
 31
0.0
  0
LINE
  5
F125
  8
MSM_DASHED
 10
29.2704999999999806
 20
28.7295000000000016
 30
0.0
 11
29.2704999999999806
 21
23.8598521559685786
 31
0.0
  0
LINE
  5
F126
  8
MSM_DASHED
 10
31.7295000000000407
 20
23.8598521559685786
 30
0.0
 11
31.7295000000000407
 21
28.7295000000000016
 31
0.0
  0
LINE
  5
F127
  8
MSM_DASHED
 10
39.2704999999999771
 20
23.8598521559685786
 30
0.0
 11
40.5
 21
23.1499999999999808
 31
0.0
  0
LINE
  5
F128
  8
MSM_DASHED
 10
40.5
 20
23.1499999999999808
 30
0.0
 11
41.72950000000003
 21
23.8598521559685786
 31
0.0
  0
LINE
  5
F129
  8
MSM_DASHED
 10
29.2704999999999806
 20
23.8598521559685786
 30
0.0
 11
30.5000000000000107
 21
23.1499999999999808
 31
0.0
  0
LINE
  5
F12A
  8
MSM_DASHED
 10
30.5000000000000107
 20
23.1499999999999808
 30
0.0
 11
31.7295000000000407
 21
23.8598521559685786
 31
0.0
  0
LINE
  5
F12B
  8
MSM_DASHED
 10
39.2704999999999771
 20
28.7295000000000016
 30
0.0
 11
39.2704999999999771
 21
23.8598521559685786
 31
0.0
  0
LINE
  5
F12C
  8
MSM_DASHED
 10
41.72950000000003
 20
23.8598521559685786
 30
0.0
 11
41.72950000000003
 21
28.7295000000000016
 31
0.0
  0
LINE
  5
F12D
  8
MSM_DASHED
 10
76.0000000000000142
 20
16.0000000000000107
 30
0.0
 11
76.0000000000000142
 21
14.0000000000000107
 31
0.0
  0
LINE
  5
F12E
  8
MSM_DASHED
 10
80.0000000000000142
 20
14.0000000000000107
 30
0.0
 11
80.0000000000000142
 21
16.0000000000000107
 31
0.0
  0
LINE
  5
F12F
  8
MSM_DASHED
 10
76.5000000000000142
 20
18.0000000000000107
 30
0.0
 11
78.0000000000000142
 21
17.5980762113532911
 31
0.0
  0
LINE
  5
F130
  8
MSM_DASHED
 10
78.0000000000000142
 20
17.5980762113532911
 30
0.0
 11
79.5000000000000142
 21
18.0000000000000107
 31
0.0
  0
LINE
  5
F131
  8
MSM_DASHED
 10
32.0000000000000071
 20
16.0
 30
0.0
 11
32.0000000000000071
 21
14.0
 31
0.0
  0
LINE
  5
F132
  8
MSM_DASHED
 10
36.0000000000000071
 20
14.0
 30
0.0
 11
36.0000000000000071
 21
16.0
 31
0.0
  0
LINE
  5
F133
  8
MSM_DASHED
 10
32.5000000000000071
 20
18.0
 30
0.0
 11
34.0000000000000071
 21
17.5980762113532911
 31
0.0
  0
LINE
  5
F134
  8
MSM_DASHED
 10
34.0000000000000071
 20
17.5980762113532911
 30
0.0
 11
35.5000000000000071
 21
18.0
 31
0.0
  0
LINE
  5
F135
  8
MSM_DASHED
 10
80.2500000000000142
 20
14.0000000000000107
 30
0.0
 11
80.2500000000000142
 21
16.0000000000000107
 31
0.0
  0
LINE
  5
F136
  8
MSM_DASHED
 10
75.7500000000000142
 20
16.0000000000000107
 30
0.0
 11
75.7500000000000142
 21
14.0000000000000107
 31
0.0
  0
LINE
  5
F137
  8
MSM_DASHED
 10
36.2500000000000071
 20
14.0
 30
0.0
 11
36.2500000000000071
 21
16.0
 31
0.0
  0
LINE
  5
F138
  8
MSM_DASHED
 10
31.7500000000000107
 20
16.0
 30
0.0
 11
31.7500000000000107
 21
14.0
 31
0.0
  0
LINE
  5
F145
  8
MSM_CONTINUOUS
 10
0.4999999999999499
 20
96.0
 30
0.0
 11
-0.00000000000005
 21
95.5
 31
0.0
  0
LINE
  5
F146
  8
MSM_CONTINUOUS
 10
-0.00000000000005
 20
84.5000000000000142
 30
0.0
 11
0.4999999999999499
 21
84.0
 31
0.0
  0
LINE
  5
F147
  8
MSM_CONTINUOUS
 10
7.4999999999999503
 20
84.0
 30
0.0
 11
7.9999999999999503
 21
84.5000000000000142
 31
0.0
  0
LINE
  5
F148
  8
MSM_CONTINUOUS
 10
7.9999999999999503
 20
95.5
 30
0.0
 11
7.4999999999999503
 21
96.0
 31
0.0
  0
LINE
  5
F14A
  8
MSM_CONTINUOUS
 10
7.4999999999999503
 20
96.0
 30
0.0
 11
0.4999999999999499
 21
96.0
 31
0.0
  0
LINE
  5
F14B
  8
MSM_CONTINUOUS
 10
7.9999999999999503
 20
85.5
 30
0.0
 11
15.7999999999999599
 21
85.5
 31
0.0
  0
LINE
  5
F14C
  8
MSM_CONTINUOUS
 10
15.7999999999999599
 20
94.5000000000000142
 30
0.0
 11
7.9999999999999503
 21
94.5000000000000142
 31
0.0
  0
LINE
  5
F14D
  8
MSM_CONTINUOUS
 10
15.7999999999999599
 20
85.5
 30
0.0
 11
15.9999999999999503
 21
85.7000000000000455
 31
0.0
  0
LINE
  5
F14E
  8
MSM_CONTINUOUS
 10
15.9999999999999503
 20
94.3000000000000824
 30
0.0
 11
15.7999999999999599
 21
94.5000000000000142
 31
0.0
  0
LINE
  5
F14F
  8
MSM_CONTINUOUS
 10
43.4999999999999503
 20
88.0
 30
0.0
 11
84.4999999999999716
 21
88.0
 31
0.0
  0
LINE
  5
F150
  8
MSM_CONTINUOUS
 10
84.4999999999999432
 20
92.0
 30
0.0
 11
43.4999999999999503
 21
92.0
 31
0.0
  0
CIRCLE
  5
F151
  8
MSM_CONTINUOUS
 10
21.7499999999999503
 20
90.0
 30
0.0
 40
2.75
  0
CIRCLE
  5
F152
  8
MSM_CONTINUOUS
 10
21.7499999999999503
 20
90.0
 30
0.0
 40
2.450000000000002
  0
LINE
  5
F153
  8
MSM_CONTINUOUS
 10
20.4999999999999503
 20
90.7216878364870354
 30
0.0
 11
21.7499999999999503
 21
91.4433756729741134
 31
0.0
  0
LINE
  5
F154
  8
MSM_CONTINUOUS
 10
20.4999999999999503
 20
89.278312163512993
 30
0.0
 11
20.4999999999999503
 21
90.7216878364870354
 31
0.0
  0
LINE
  5
F155
  8
MSM_CONTINUOUS
 10
21.7499999999999503
 20
88.556624327025915
 30
0.0
 11
20.4999999999999503
 21
89.278312163512993
 31
0.0
  0
LINE
  5
F156
  8
MSM_CONTINUOUS
 10
22.9999999999999503
 20
89.278312163512993
 30
0.0
 11
21.7499999999999503
 21
88.556624327025915
 31
0.0
  0
LINE
  5
F157
  8
MSM_CONTINUOUS
 10
22.9999999999999503
 20
90.7216878364870354
 30
0.0
 11
22.9999999999999503
 21
89.278312163512993
 31
0.0
  0
LINE
  5
F158
  8
MSM_CONTINUOUS
 10
21.7499999999999503
 20
91.4433756729741134
 30
0.0
 11
22.9999999999999503
 21
90.7216878364870354
 31
0.0
  0
LINE
  5
F15F
  8
MSM_CONTINUOUS
 10
0.4999999999999499
 20
84.0
 30
0.0
 11
0.4999999999999499
 21
96.0
 31
0.0
  0
LINE
  5
F160
  8
MSM_CONTINUOUS
 10
-0.00000000000005
 20
84.5000000000000142
 30
0.0
 11
-0.00000000000005
 21
95.5
 31
0.0
  0
LINE
  5
F161
  8
MSM_CONTINUOUS
 10
7.9999999999999503
 20
84.5000000000000142
 30
0.0
 11
7.9999999999999503
 21
95.5
 31
0.0
  0
LINE
  5
F162
  8
MSM_CONTINUOUS
 10
7.4999999999999503
 20
84.0
 30
0.0
 11
7.4999999999999503
 21
96.0
 31
0.0
  0
LINE
  5
F163
  8
MSM_CONTINUOUS
 10
15.7999999999999599
 20
85.5
 30
0.0
 11
15.7999999999999599
 21
94.5000000000000142
 31
0.0
  0
LINE
  5
F164
  8
MSM_CONTINUOUS
 10
43.4999999999999503
 20
93.1499999999999631
 30
0.0
 11
27.4999999999999503
 21
93.1499999999999631
 31
0.0
  0
LINE
  5
F167
  8
MSM_CONTINUOUS
 10
43.4999999999999503
 20
86.8500000000000227
 30
0.0
 11
27.4999999999999503
 21
86.8500000000000227
 31
0.0
  0
CIRCLE
  5
F168
  8
MSM_NARROW
 10
40.4999999999999503
 20
90.0
 30
0.0
 40
1.5
  0
CIRCLE
  5
F169
  8
MSM_NARROW
 10
30.4999999999999503
 20
90.0
 30
0.0
 40
1.5
  0
CIRCLE
  5
F16C
  8
MSM_CONTINUOUS
 10
40.4999999999999503
 20
90.0
 30
0.0
 40
1.2294999999999721
  0
CIRCLE
  5
F16D
  8
MSM_CONTINUOUS
 10
30.4999999999999503
 20
90.0
 30
0.0
 40
1.2294999999999721
  0
LINE
  5
F16F
  8
MSM_CONTINUOUS
 10
43.4999999999999503
 20
93.3500000000000227
 30
0.0
 11
43.4999999999999503
 21
86.6500000000000341
 31
0.0
  0
CIRCLE
  5
F170
  8
MSM_CONTINUOUS
 10
77.9999999999999574
 20
77.3000000000000256
 30
0.0
 40
3.5
  0
CIRCLE
  5
F171
  8
MSM_CONTINUOUS
 10
77.9999999999999574
 20
77.3000000000000256
 30
0.0
 40
3.1000000000000081
  0
LINE
  5
F172
  8
MSM_CONTINUOUS
 10
76.4999999999999432
 20
78.1660254037844879
 30
0.0
 11
77.9999999999999574
 21
79.0320508075688934
 31
0.0
  0
LINE
  5
F173
  8
MSM_CONTINUOUS
 10
76.4999999999999432
 20
76.4339745962155916
 30
0.0
 11
76.4999999999999432
 21
78.1660254037844879
 31
0.0
  0
LINE
  5
F174
  8
MSM_CONTINUOUS
 10
77.9999999999999574
 20
75.5679491924311293
 30
0.0
 11
76.4999999999999432
 21
76.4339745962155916
 31
0.0
  0
LINE
  5
F175
  8
MSM_CONTINUOUS
 10
79.4999999999999432
 20
76.4339745962155916
 30
0.0
 11
77.9999999999999574
 21
75.5679491924311293
 31
0.0
  0
LINE
  5
F176
  8
MSM_CONTINUOUS
 10
79.4999999999999432
 20
78.1660254037844879
 30
0.0
 11
79.4999999999999432
 21
76.4339745962155916
 31
0.0
  0
LINE
  5
F177
  8
MSM_CONTINUOUS
 10
77.9999999999999574
 20
79.0320508075688934
 30
0.0
 11
79.4999999999999432
 21
78.1660254037844879
 31
0.0
  0
CIRCLE
  5
F17E
  8
MSM_CONTINUOUS
 10
33.9999999999999503
 20
77.3000000000000256
 30
0.0
 40
3.4999999999999858
  0
CIRCLE
  5
F17F
  8
MSM_CONTINUOUS
 10
33.9999999999999503
 20
77.3000000000000256
 30
0.0
 40
3.0999999999999792
  0
LINE
  5
F180
  8
MSM_CONTINUOUS
 10
32.4999999999999503
 20
78.1660254037844879
 30
0.0
 11
33.9999999999999503
 21
79.0320508075688934
 31
0.0
  0
LINE
  5
F181
  8
MSM_CONTINUOUS
 10
32.4999999999999503
 20
76.4339745962155916
 30
0.0
 11
32.4999999999999503
 21
78.1660254037844879
 31
0.0
  0
LINE
  5
F182
  8
MSM_CONTINUOUS
 10
33.9999999999999503
 20
75.5679491924311293
 30
0.0
 11
32.4999999999999503
 21
76.4339745962155916
 31
0.0
  0
LINE
  5
F183
  8
MSM_CONTINUOUS
 10
35.4999999999999503
 20
76.4339745962155916
 30
0.0
 11
33.9999999999999503
 21
75.5679491924311293
 31
0.0
  0
LINE
  5
F184
  8
MSM_CONTINUOUS
 10
35.4999999999999503
 20
78.1660254037844879
 30
0.0
 11
35.4999999999999503
 21
76.4339745962155916
 31
0.0
  0
LINE
  5
F185
  8
MSM_CONTINUOUS
 10
33.9999999999999503
 20
79.0320508075688934
 30
0.0
 11
35.4999999999999503
 21
78.1660254037844879
 31
0.0
  0
CIRCLE
  5
F18D
  8
MSM_NARROW
 10
90.2499999999999574
 20
90.0
 30
0.0
 40
1.5
  0
LINE
  5
F18F
  8
MSM_CONTINUOUS
 10
84.4999999999999432
 20
93.3500000000000227
 30
0.0
 11
84.4999999999999432
 21
86.6500000000000341
 31
0.0
  0
LINE
  5
F191
  8
MSM_CONTINUOUS
 10
95.9999999999999574
 20
86.6500000000000341
 30
0.0
 11
15.9999999999999503
 21
86.6500000000000341
 31
0.0
  0
LINE
  5
F192
  8
MSM_CONTINUOUS
 10
95.9999999999999574
 20
93.3500000000000227
 30
0.0
 11
15.9999999999999503
 21
93.3500000000000227
 31
0.0
  0
LINE
  5
F193
  8
MSM_CONTINUOUS
 10
27.4999999999999503
 20
93.3500000000000227
 30
0.0
 11
27.4999999999999503
 21
86.6500000000000341
 31
0.0
  0
CIRCLE
  5
F195
  8
MSM_CONTINUOUS
 10
90.2499999999999574
 20
90.0
 30
0.0
 40
1.2294999999999721
  0
LINE
  5
F196
  8
MSM_CONTINUOUS
 10
95.9999999999999574
 20
97.0
 30
0.0
 11
15.9999999999999503
 21
97.0
 31
0.0
  0
LINE
  5
F19A
  8
MSM_CONTINUOUS
 10
95.9999999999999574
 20
83.0
 30
0.0
 11
15.9999999999999503
 21
83.0
 31
0.0
  0
LINE
  5
F19E
  8
MSM_CONTINUOUS
 10
95.9999999999999574
 20
72.0000000000000711
 30
0.0
 11
15.9999999999999503
 21
72.0000000000000711
 31
0.0
  0
LINE
  5
F19F
  8
MSM_CONTINUOUS
 10
95.9999999999999574
 20
97.0
 30
0.0
 11
95.9999999999999574
 21
72.0000000000000711
 31
0.0
  0
LINE
  5
F1A0
  8
MSM_CONTINUOUS
 10
15.9999999999999503
 20
97.0
 30
0.0
 11
15.9999999999999503
 21
72.0000000000000711
 31
0.0
  0
CIRCLE
  5
F1A1
  8
MSM_DASHED
 10
21.7499999999999503
 20
90.0
 30
0.0
 40
1.5
  0
CIRCLE
  5
F1A2
  8
MSM_DASHED
 10
21.7499999999999503
 20
90.0
 30
0.0
 40
1.193500000000014
  0
LINE
  5
F1A8
  8
MSM_DASHED
 10
95.5704999999999956
 20
88.0
 30
0.0
 11
95.5704999999999956
 21
92.0
 31
0.0
  0
LINE
  5
F1AA
  8
MSM_DASHED
 10
2.9999999999999489
 20
92.0
 30
0.0
 11
2.9999999999999489
 21
88.0
 31
0.0
  0
LINE
  5
F1AB
  8
MSM_DASHED
 10
2.9999999999999489
 20
92.0
 30
0.0
 11
-0.00000000000005
 21
92.0
 31
0.0
  0
LINE
  5
F1AC
  8
MSM_DASHED
 10
2.9999999999999489
 20
88.0
 30
0.0
 11
-0.00000000000005
 21
88.0
 31
0.0
  0
CIRCLE
  5
F1AD
  8
MSM_DASHED
 10
77.9999999999999574
 20
77.3000000000000256
 30
0.0
 40
2.0
  0
CIRCLE
  5
F1AE
  8
MSM_DASHED
 10
77.9999999999999574
 20
77.3000000000000256
 30
0.0
 40
1.5704999999999949
  0
CIRCLE
  5
F1AF
  8
MSM_DASHED
 10
33.9999999999999503
 20
77.3000000000000256
 30
0.0
 40
1.9999999999999849
  0
CIRCLE
  5
F1B0
  8
MSM_DASHED
 10
33.9999999999999503
 20
77.3000000000000256
 30
0.0
 40
1.57049999999998
  0
CIRCLE
  5
F1B1
  8
MSM_DASHED
 10
21.7499999999999503
 20
90.0
 30
0.0
 40
1.2294999999999721
  0
LINE
  5
F1B2
  8
MSM_DASHED
 10
27.4999999999999503
 20
95.0
 30
0.0
 11
27.4999999999999503
 21
93.3500000000000227
 31
0.0
  0
LINE
  5
F1B3
  8
MSM_DASHED
 10
84.4999999999999432
 20
95.0
 30
0.0
 11
84.4999999999999432
 21
93.3500000000000227
 31
0.0
  0
LINE
  5
F1B4
  8
MSM_DASHED
 10
84.4999999999999432
 20
95.0
 30
0.0
 11
27.4999999999999609
 21
95.0
 31
0.0
  0
LINE
  5
F1B5
  8
MSM_DASHED
 10
27.4999999999999503
 20
86.6500000000000341
 30
0.0
 11
27.4999999999999503
 21
85.0
 31
0.0
  0
LINE
  5
F1B6
  8
MSM_DASHED
 10
84.4999999999999432
 20
86.6500000000000341
 30
0.0
 11
84.4999999999999432
 21
85.0
 31
0.0
  0
LINE
  5
F1B7
  8
MSM_DASHED
 10
84.4999999999999432
 20
85.0
 30
0.0
 11
27.4999999999999609
 21
85.0
 31
0.0
  0
CIRCLE
  5
F1B8
  8
MSM_DASHED
 10
33.9999999999999503
 20
77.3000000000000256
 30
0.0
 40
2.2499999999999432
  0
CIRCLE
  5
F1B9
  8
MSM_DASHED
 10
77.9999999999999574
 20
77.3000000000000256
 30
0.0
 40
2.2499999999999432
  0
LINE
  5
F1BC
  8
MSM_DASHED
 10
15.9999999999999503
 20
88.0
 30
0.0
 11
43.4999999999999503
 21
88.0
 31
0.0
  0
LINE
  5
F1BF
  8
MSM_DASHED
 10
43.4999999999999503
 20
92.0
 30
0.0
 11
15.9999999999999503
 21
92.0
 31
0.0
  0
LINE
  5
F1C0
  8
MSM_DASHED
 10
2.9999999999999489
 20
88.0
 30
0.0
 11
4.6781992623545614
 21
90.0
 31
0.0
  0
LINE
  5
F1C1
  8
MSM_DASHED
 10
4.6781992623545614
 20
90.0
 30
0.0
 11
2.9999999999999489
 21
92.0
 31
0.0
  0
LINE
  5
F1C2
  8
MSM_DASHED
 10
95.5704999999999956
 20
88.0
 30
0.0
 11
95.9999999999999574
 21
88.4295000000000044
 31
0.0
  0
LINE
  5
F1C3
  8
MSM_DASHED
 10
95.9999999999999574
 20
91.570500000000024
 30
0.0
 11
95.5704999999999956
 21
92.0
 31
0.0
  0
LINE
  5
F1C6
  8
MSM_DASHED
 10
95.9999999999999574
 20
92.0
 30
0.0
 11
84.4999999999999432
 21
92.0
 31
0.0
  0
LINE
  5
F1C7
  8
MSM_DASHED
 10
84.4999999999999432
 20
88.0
 30
0.0
 11
95.9999999999999574
 21
88.0
 31
0.0
  0
LINE
  5
F1CA
  8
MSM_CONTINUOUS
 10
137.2499999999998863
 20
31.6999999999999886
 30
0.0
 11
137.2499999999998863
 21
29.0
 31
0.0
  0
LINE
  5
F1CB
  8
MSM_CONTINUOUS
 10
142.7499999999998863
 20
29.0
 30
0.0
 11
142.7499999999998863
 21
31.6999999999999886
 31
0.0
  0
LINE
  5
F1CC
  8
MSM_CONTINUOUS
 10
142.7499999999998863
 20
31.6999999999999886
 30
0.0
 11
142.4499999999999034
 21
32.0
 31
0.0
  0
LINE
  5
F1CD
  8
MSM_CONTINUOUS
 10
137.5500000000000114
 20
32.0
 30
0.0
 11
137.2499999999998863
 21
31.6999999999999886
 31
0.0
  0
LINE
  5
F1CE
  8
MSM_CONTINUOUS
 10
123.7999999999999972
 20
19.6000000000000014
 30
0.0
 11
123.7999999999999972
 21
16.0
 31
0.0
  0
LINE
  5
F1CF
  8
MSM_CONTINUOUS
 10
130.8000000000000114
 20
16.0
 30
0.0
 11
130.8000000000000114
 21
19.6000000000000014
 31
0.0
  0
LINE
  5
F1D0
  8
MSM_CONTINUOUS
 10
130.8000000000000114
 20
19.6000000000000014
 30
0.0
 11
130.399999999999892
 21
20.0
 31
0.0
  0
LINE
  5
F1D1
  8
MSM_CONTINUOUS
 10
124.1999999999999034
 20
20.0
 30
0.0
 11
123.7999999999999972
 21
19.6000000000000014
 31
0.0
  0
LINE
  5
F1D2
  8
MSM_CONTINUOUS
 10
125.2999999999999972
 20
14.0
 30
0.0
 11
125.2999999999999972
 21
10.4294999999999902
 31
0.0
  0
LINE
  5
F1D3
  8
MSM_CONTINUOUS
 10
129.3000000000000114
 20
10.4294999999999902
 30
0.0
 11
129.3000000000000114
 21
14.0
 31
0.0
  0
LINE
  5
F1D4
  8
MSM_CONTINUOUS
 10
125.2999999999999972
 20
10.4294999999999902
 30
0.0
 11
125.7294999999999021
 21
10.0
 31
0.0
  0
LINE
  5
F1D5
  8
MSM_CONTINUOUS
 10
128.8704999999999075
 20
10.0
 30
0.0
 11
129.3000000000000114
 21
10.4294999999999902
 31
0.0
  0
LINE
  5
F1D6
  8
MSM_CONTINUOUS
 10
137.2499999999998863
 20
31.6999999999999886
 30
0.0
 11
142.7499999999998863
 21
31.6999999999999886
 31
0.0
  0
LINE
  5
F1D7
  8
MSM_CONTINUOUS
 10
137.5500000000000114
 20
32.0
 30
0.0
 11
142.4499999999999034
 21
32.0
 31
0.0
  0
CIRCLE
  5
F1D8
  8
MSM_CONTINUOUS
 10
139.9999999999998863
 20
21.0
 30
0.0
 40
1.57050000000001
  0
LINE
  5
F1D9
  8
MSM_CONTINUOUS
 10
123.7999999999999972
 20
19.6000000000000014
 30
0.0
 11
130.8000000000000114
 21
19.6000000000000014
 31
0.0
  0
LINE
  5
F1DA
  8
MSM_CONTINUOUS
 10
124.1999999999999034
 20
20.0
 30
0.0
 11
130.399999999999892
 21
20.0
 31
0.0
  0
LINE
  5
F1DB
  8
MSM_CONTINUOUS
 10
125.2999999999999972
 20
10.4294999999999902
 30
0.0
 11
129.3000000000000114
 21
10.4294999999999902
 31
0.0
  0
LINE
  5
F1DC
  8
MSM_CONTINUOUS
 10
125.7294999999999021
 20
10.0
 30
0.0
 11
128.8704999999999075
 21
10.0
 31
0.0
  0
CIRCLE
  5
F1DD
  8
MSM_CONTINUOUS
 10
139.9999999999998863
 20
21.0
 30
0.0
 40
1.9999999999999709
  0
LINE
  5
F1DE
  8
MSM_CONTINUOUS
 10
143.3499999999999091
 20
29.0
 30
0.0
 11
136.649999999999892
 21
29.0
 31
0.0
  0
LINE
  5
F1DF
  8
MSM_CONTINUOUS
 10
143.3499999999999091
 20
28.0
 30
0.0
 11
143.3499999999999091
 21
29.0
 31
0.0
  0
LINE
  5
F1E0
  8
MSM_CONTINUOUS
 10
146.9999999999998863
 20
14.0
 30
0.0
 11
146.9999999999998863
 21
28.0
 31
0.0
  0
LINE
  5
F1E1
  8
MSM_CONTINUOUS
 10
122.0
 20
16.0
 30
0.0
 11
122.0
 21
14.0
 31
0.0
  0
LINE
  5
F1E2
  8
MSM_CONTINUOUS
 10
132.9999999999998863
 20
16.0
 30
0.0
 11
122.0
 21
16.0
 31
0.0
  0
LINE
  5
F1E3
  8
MSM_CONTINUOUS
 10
132.9999999999998863
 20
28.0
 30
0.0
 11
132.9999999999998863
 21
16.0
 31
0.0
  0
LINE
  5
F1E4
  8
MSM_CONTINUOUS
 10
136.649999999999892
 20
28.0
 30
0.0
 11
132.9999999999998863
 21
28.0
 31
0.0
  0
LINE
  5
F1E5
  8
MSM_CONTINUOUS
 10
136.649999999999892
 20
29.0
 30
0.0
 11
136.649999999999892
 21
28.0
 31
0.0
  0
LINE
  5
F1E6
  8
MSM_CONTINUOUS
 10
122.0
 20
14.0
 30
0.0
 11
146.9999999999998863
 21
14.0
 31
0.0
  0
LINE
  5
F1E7
  8
MSM_CONTINUOUS
 10
146.9999999999998863
 20
28.0
 30
0.0
 11
143.3499999999999091
 21
28.0
 31
0.0
  0
LINE
  5
F1E8
  8
MSM_DASHED
 10
138.4999999999998863
 20
24.8064999999999998
 30
0.0
 11
141.4999999999998863
 21
24.8064999999999998
 31
0.0
  0
LINE
  5
F1EB
  8
MSM_DASHED
 10
140.721687836487007
 20
30.5
 30
0.0
 11
140.721687836487007
 21
32.0
 31
0.0
  0
LINE
  5
F1EE
  8
MSM_DASHED
 10
139.2783121635129078
 20
30.5
 30
0.0
 11
139.2783121635129078
 21
32.0
 31
0.0
  0
LINE
  5
F1F0
  8
MSM_DASHED
 10
141.4433756729740992
 20
30.5
 30
0.0
 11
138.5566243270257871
 21
30.5
 31
0.0
  0
LINE
  5
F1F1
  8
MSM_DASHED
 10
141.4433756729740992
 20
30.5
 30
0.0
 11
141.4433756729740992
 21
32.0
 31
0.0
  0
LINE
  5
F1F2
  8
MSM_DASHED
 10
138.5566243270257871
 20
30.5
 30
0.0
 11
138.5566243270257871
 21
32.0
 31
0.0
  0
CIRCLE
  5
F1F3
  8
MSM_DASHED
 10
139.9999999999998863
 20
21.0
 30
0.0
 40
4.2999999999999821
  0
CIRCLE
  5
F1F4
  8
MSM_DASHED
 10
139.9999999999998863
 20
21.0
 30
0.0
 40
4.5
  0
CIRCLE
  5
F1F5
  8
MSM_DASHED
 10
139.9999999999998863
 20
21.0
 30
0.0
 40
5.5
  0
CIRCLE
  5
F1F6
  8
MSM_DASHED
 10
139.9999999999998863
 20
21.0
 30
0.0
 40
6.0
  0
LINE
  5
F1F8
  8
MSM_DASHED
 10
141.9999999999998863
 20
19.8452994616207015
 30
0.0
 11
141.9999999999998863
 21
22.1547005383793092
 31
0.0
  0
LINE
  5
F1FA
  8
MSM_DASHED
 10
141.9999999999998863
 20
22.1547005383793092
 30
0.0
 11
139.9999999999998863
 21
23.3094010767585189
 31
0.0
  0
LINE
  5
F1FD
  8
MSM_DASHED
 10
137.9999999999998863
 20
19.8452994616207015
 30
0.0
 11
139.9999999999998863
 21
18.6905989232414811
 31
0.0
  0
LINE
  5
F1FE
  8
MSM_DASHED
 10
139.9999999999998863
 20
18.6905989232414811
 30
0.0
 11
141.9999999999998863
 21
19.8452994616207015
 31
0.0
  0
LINE
  5
F1FF
  8
MSM_DASHED
 10
139.9999999999998863
 20
23.3094010767585189
 30
0.0
 11
137.9999999999998863
 21
22.1547005383793092
 31
0.0
  0
LINE
  5
F201
  8
MSM_DASHED
 10
137.9999999999998863
 20
22.1547005383793092
 30
0.0
 11
137.9999999999998863
 21
19.8452994616207015
 31
0.0
  0
CIRCLE
  5
F203
  8
MSM_DASHED
 10
139.9999999999998863
 20
21.0
 30
0.0
 40
2.5
  0
LINE
  5
F204
  8
MSM_DASHED
 10
136.649999999999892
 20
28.0
 30
0.0
 11
136.649999999999892
 21
16.0
 31
0.0
  0
LINE
  5
F205
  8
MSM_DASHED
 10
136.8499999999999091
 20
29.0
 30
0.0
 11
136.649999999999892
 21
28.8000000000000114
 31
0.0
  0
LINE
  5
F206
  8
MSM_DASHED
 10
143.3499999999999091
 20
28.8000000000000114
 30
0.0
 11
143.1500000000000057
 21
29.0
 31
0.0
  0
LINE
  5
F207
  8
MSM_DASHED
 10
143.3499999999999091
 20
16.0
 30
0.0
 11
143.3499999999999091
 21
28.0
 31
0.0
  0
LINE
  5
F208
  8
MSM_DASHED
 10
138.7704999999999131
 20
23.8598521559685892
 30
0.0
 11
141.2294999999998879
 21
23.8598521559685892
 31
0.0
  0
LINE
  5
F20B
  8
MSM_DASHED
 10
128.1660254037844027
 20
18.0
 30
0.0
 11
128.1660254037844027
 21
20.0
 31
0.0
  0
LINE
  5
F20E
  8
MSM_DASHED
 10
126.4339745962155064
 20
18.0
 30
0.0
 11
126.4339745962155064
 21
20.0
 31
0.0
  0
LINE
  5
F210
  8
MSM_DASHED
 10
129.0320508075689077
 20
18.0
 30
0.0
 11
125.5679491924311009
 21
18.0
 31
0.0
  0
LINE
  5
F211
  8
MSM_DASHED
 10
129.0320508075689077
 20
18.0
 30
0.0
 11
129.0320508075689077
 21
20.0
 31
0.0
  0
LINE
  5
F212
  8
MSM_DASHED
 10
125.5679491924311009
 20
18.0
 30
0.0
 11
125.5679491924311009
 21
20.0
 31
0.0
  0
LINE
  5
F213
  8
MSM_DASHED
 10
138.7704999999999131
 20
28.7295000000000087
 30
0.0
 11
141.2294999999998879
 21
28.7295000000000087
 31
0.0
  0
LINE
  5
F214
  8
MSM_DASHED
 10
138.7704999999999131
 20
24.5
 30
0.0
 11
141.2294999999998879
 21
24.5
 31
0.0
  0
LINE
  5
F215
  8
MSM_DASHED
 10
144.9999999999998863
 20
16.0
 30
0.0
 11
144.9999999999998863
 21
26.0
 31
0.0
  0
LINE
  5
F216
  8
MSM_DASHED
 10
144.9999999999998863
 20
26.0
 30
0.0
 11
143.3499999999999091
 21
26.0
 31
0.0
  0
LINE
  5
F217
  8
MSM_DASHED
 10
134.9999999999998863
 20
16.0
 30
0.0
 11
144.9999999999998863
 21
16.0
 31
0.0
  0
LINE
  5
F219
  8
MSM_DASHED
 10
136.649999999999892
 20
26.0
 30
0.0
 11
134.9999999999998863
 21
26.0
 31
0.0
  0
LINE
  5
F21B
  8
MSM_DASHED
 10
134.9999999999998863
 20
26.0
 30
0.0
 11
134.9999999999998863
 21
16.0
 31
0.0
  0
LINE
  5
F21C
  8
MSM_DASHED
 10
138.4999999999998863
 20
24.8064999999999998
 30
0.0
 11
138.8064999999998861
 21
24.5
 31
0.0
  0
LINE
  5
F21D
  8
MSM_DASHED
 10
141.1935000000000002
 20
24.5
 30
0.0
 11
141.4999999999998863
 21
24.8064999999999998
 31
0.0
  0
LINE
  5
F21E
  8
MSM_DASHED
 10
138.4999999999998863
 20
29.0
 30
0.0
 11
138.4999999999998863
 21
24.8064999999999998
 31
0.0
  0
LINE
  5
F21F
  8
MSM_DASHED
 10
141.4999999999998863
 20
24.8064999999999998
 30
0.0
 11
141.4999999999998863
 21
29.0
 31
0.0
  0
LINE
  5
F220
  8
MSM_DASHED
 10
138.7499999999998863
 20
30.5
 30
0.0
 11
139.9999999999998863
 21
30.1650635094610813
 31
0.0
  0
LINE
  5
F221
  8
MSM_DASHED
 10
139.9999999999998863
 20
30.1650635094610813
 30
0.0
 11
141.2499999999998863
 21
30.5
 31
0.0
  0
LINE
  5
F222
  8
MSM_DASHED
 10
138.7704999999999131
 20
28.7295000000000087
 30
0.0
 11
138.7704999999999131
 21
23.8598521559685892
 31
0.0
  0
LINE
  5
F223
  8
MSM_DASHED
 10
141.2294999999998879
 20
23.8598521559685892
 30
0.0
 11
141.2294999999998879
 21
28.7295000000000087
 31
0.0
  0
LINE
  5
F224
  8
MSM_DASHED
 10
138.7704999999999131
 20
23.8598521559685892
 30
0.0
 11
139.9999999999998863
 21
23.1499999999999808
 31
0.0
  0
LINE
  5
F225
  8
MSM_DASHED
 10
139.9999999999998863
 20
23.1499999999999808
 30
0.0
 11
141.2294999999998879
 21
23.8598521559685892
 31
0.0
  0
LINE
  5
F226
  8
MSM_DASHED
 10
125.2999999999999972
 20
16.0
 30
0.0
 11
125.2999999999999972
 21
14.0
 31
0.0
  0
LINE
  5
F227
  8
MSM_DASHED
 10
129.3000000000000114
 20
14.0
 30
0.0
 11
129.3000000000000114
 21
16.0
 31
0.0
  0
LINE
  5
F228
  8
MSM_DASHED
 10
125.7999999999999972
 20
18.0
 30
0.0
 11
127.2999999999999972
 21
17.5980762113532911
 31
0.0
  0
LINE
  5
F229
  8
MSM_DASHED
 10
127.2999999999999972
 20
17.5980762113532911
 30
0.0
 11
128.8000000000000114
 21
18.0
 31
0.0
  0
LINE
  5
F22A
  8
MSM_DASHED
 10
138.4999999999998863
 20
29.0
 30
0.0
 11
138.7704999999999131
 21
28.7295000000000087
 31
0.0
  0
LINE
  5
F22B
  8
MSM_DASHED
 10
141.2294999999998879
 20
28.7295000000000087
 30
0.0
 11
141.4999999999998863
 21
29.0
 31
0.0
  0
LINE
  5
F22E
  8
MSM_DASHED
 10
129.5500000000000114
 20
14.0
 30
0.0
 11
129.5500000000000114
 21
16.0
 31
0.0
  0
LINE
  5
F22F
  8
MSM_DASHED
 10
125.0499999999999972
 20
16.0
 30
0.0
 11
125.0499999999999972
 21
14.0
 31
0.0
  0
CIRCLE
  5
F230
  8
MSM_CONTINUOUS
 10
21.7499999999999503
 20
90.0
 30
0.0
 40
1.250000000000024
  0
CIRCLE
  5
F231
  8
MSM_CONTINUOUS
 10
77.9999999999999574
 20
77.3000000000000256
 30
0.0
 40
1.5000000000000311
  0
CIRCLE
  5
F232
  8
MSM_CONTINUOUS
 10
33.9999999999999503
 20
77.3000000000000256
 30
0.0
 40
1.5000000000000311
  0
CIRCLE
  5
F233
  8
MSM_CONTINUOUS
 10
21.75
 20
21.0
 30
0.0
 40
3.2500000000000551
  0
CIRCLE
  5
F234
  8
MSM_CONTINUOUS
 10
21.75
 20
21.0
 30
0.0
 40
3.0
  0
LINE
  5
F235
  8
MSM_CENTER
 10
21.75
 20
34.7999999999999474
 30
0.0
 11
21.75
 21
15.7499999999999396
 31
0.0
  0
LINE
  5
F236
  8
MSM_CONTINUOUS
 10
21.2499999999999396
 20
22.8000000000000114
 30
0.0
 11
22.2499999999999396
 21
22.8000000000000114
 31
0.0
  0
LINE
  5
F237
  8
MSM_CONTINUOUS
 10
19.9499999999999886
 20
20.5
 30
0.0
 11
19.9499999999999886
 21
21.5
 31
0.0
  0
LINE
  5
F238
  8
MSM_CONTINUOUS
 10
22.2499999999999396
 20
19.1999999999999886
 30
0.0
 11
21.2499999999999396
 21
19.1999999999999886
 31
0.0
  0
LINE
  5
F239
  8
MSM_CONTINUOUS
 10
23.549999999999951
 20
21.5
 30
0.0
 11
23.549999999999951
 21
20.5
 31
0.0
  0
LINE
  5
F23A
  8
MSM_CONTINUOUS
 10
22.2499999999999396
 20
22.8000000000000114
 30
0.0
 11
22.2499999999999396
 21
22.0
 31
0.0
  0
LINE
  5
F23B
  8
MSM_CONTINUOUS
 10
21.2499999999999396
 20
22.8000000000000114
 30
0.0
 11
21.2499999999999396
 21
22.0
 31
0.0
  0
LINE
  5
F23C
  8
MSM_CONTINUOUS
 10
19.9499999999999886
 20
21.5
 30
0.0
 11
20.7499999999999396
 21
21.5
 31
0.0
  0
LINE
  5
F23D
  8
MSM_CONTINUOUS
 10
19.9499999999999886
 20
20.5
 30
0.0
 11
20.7499999999999396
 21
20.5
 31
0.0
  0
LINE
  5
F23E
  8
MSM_CONTINUOUS
 10
21.2499999999999396
 20
19.1999999999999886
 30
0.0
 11
21.2499999999999396
 21
20.0
 31
0.0
  0
LINE
  5
F23F
  8
MSM_CONTINUOUS
 10
22.2499999999999396
 20
19.1999999999999886
 30
0.0
 11
22.2499999999999396
 21
20.0
 31
0.0
  0
LINE
  5
F240
  8
MSM_CONTINUOUS
 10
23.549999999999951
 20
20.5
 30
0.0
 11
22.7499999999999503
 21
20.5
 31
0.0
  0
LINE
  5
F241
  8
MSM_CONTINUOUS
 10
23.549999999999951
 20
21.5
 30
0.0
 11
22.7499999999999503
 21
21.5
 31
0.0
  0
ARC
  5
F242
  8
MSM_CONTINUOUS
 10
22.7499999999999503
 20
22.0
 30
0.0
 40
0.5
 50
180.0
 51
270.0
  0
ARC
  5
F243
  8
MSM_CONTINUOUS
 10
20.7499999999999396
 20
22.0
 30
0.0
 40
0.5
 50
270.0
 51
0.0
  0
ARC
  5
F244
  8
MSM_CONTINUOUS
 10
22.7499999999999503
 20
20.0
 30
0.0
 40
0.5
 50
90.0
 51
180.0
  0
ARC
  5
F245
  8
MSM_CONTINUOUS
 10
20.7499999999999396
 20
20.0
 30
0.0
 40
0.5
 50
0.0
 51
90.0
  0
LINE
  5
F246
  8
MSM_CONTINUOUS
 10
19.0000000000001705
 20
30.0999999999999801
 30
0.0
 11
24.5000000000001705
 21
30.0999999999999801
 31
0.0
  0
LINE
  5
F247
  8
MSM_CONTINUOUS
 10
24.5000000000001705
 20
32.5
 30
0.0
 11
19.0000000000001705
 21
32.5
 31
0.0
  0
LINE
  5
F248
  8
MSM_CONTINUOUS
 10
24.2000000000001592
 20
32.7999999999999972
 30
0.0
 11
19.3000000000001783
 21
32.7999999999999972
 31
0.0
  0
LINE
  5
F249
  8
MSM_DASHED
 10
21.7500000000001101
 20
30.7824999999999811
 30
0.0
 11
20.5072535455694798
 21
31.4999999999999893
 31
0.0
  0
LINE
  5
F24A
  8
MSM_DASHED
 10
22.9927464544308613
 20
31.4999999999999893
 30
0.0
 11
21.7500000000001101
 21
30.7824999999999811
 31
0.0
  0
LINE
  5
F24B
  8
MSM_DASHED
 10
20.5072535455694798
 20
32.7999999999999972
 30
0.0
 11
20.5072535455694798
 21
31.4999999999999893
 31
0.0
  0
LINE
  5
F24D
  8
MSM_DASHED
 10
22.9927464544308613
 20
32.7999999999999972
 30
0.0
 11
22.9927464544308613
 21
31.4999999999999893
 31
0.0
  0
LINE
  5
F24E
  8
MSM_DASHED
 10
22.9927464544308613
 20
31.5
 30
0.0
 11
20.5072535455694798
 21
31.5
 31
0.0
  0
LINE
  5
F24F
  8
MSM_CONTINUOUS
 10
19.3000000000001286
 20
29.8000000000000007
 30
0.0
 11
19.0000000000001705
 21
30.0999999999999801
 31
0.0
  0
LINE
  5
F250
  8
MSM_CONTINUOUS
 10
19.0000000000001705
 20
32.5
 30
0.0
 11
19.3000000000001783
 21
32.7999999999999972
 31
0.0
  0
LINE
  5
F251
  8
MSM_CONTINUOUS
 10
19.0000000000001705
 20
32.5
 30
0.0
 11
19.0000000000001705
 21
30.0999999999999801
 31
0.0
  0
LINE
  5
F252
  8
MSM_CONTINUOUS
 10
24.2000000000001592
 20
29.8000000000000007
 30
0.0
 11
24.5000000000001705
 21
30.0999999999999801
 31
0.0
  0
LINE
  5
F253
  8
MSM_CONTINUOUS
 10
24.2000000000001592
 20
32.7999999999999972
 30
0.0
 11
24.5000000000001705
 21
32.5
 31
0.0
  0
LINE
  5
F254
  8
MSM_CONTINUOUS
 10
24.5000000000001705
 20
32.5
 30
0.0
 11
24.5000000000001705
 21
30.0999999999999801
 31
0.0
  0
LINE
  5
F255
  8
MSM_NARROW
 10
20.2500000000001705
 20
29.8000000000000007
 30
0.0
 11
20.5205000000002009
 21
29.3314802565526094
 31
0.0
  0
LINE
  5
F256
  8
MSM_NARROW
 10
23.2500000000001705
 20
29.8000000000000007
 30
0.0
 11
22.9795000000001401
 21
29.331480256552581
 31
0.0
  0
LINE
  5
F257
  8
MSM_CONTINUOUS
 10
24.2000000000001592
 20
29.8000000000000007
 30
0.0
 11
19.3000000000001286
 21
29.8000000000000007
 31
0.0
  0
LINE
  5
F258
  8
0
 10
23.2500000000001705
 20
29.3314802565526094
 30
0.0
 11
20.2500000000001705
 21
29.3314802565526094
 31
0.0
  0
LINE
  5
F259
  8
0
 10
20.2500000000001705
 20
29.8000000000000007
 30
0.0
 11
20.2500000000001705
 21
29.0
 31
0.0
  0
LINE
  5
F25A
  8
MSM_NARROW
 10
20.5205000000002009
 20
29.3314802565526094
 30
0.0
 11
20.5205000000002009
 21
29.0
 31
0.0
  0
LINE
  5
F25B
  8
MSM_NARROW
 10
22.9795000000001401
 20
29.331480256552581
 30
0.0
 11
22.9795000000001401
 21
29.0
 31
0.0
  0
LINE
  5
F25C
  8
0
 10
23.2500000000001705
 20
29.8000000000000007
 30
0.0
 11
23.2500000000001705
 21
29.0
 31
0.0
  0
LINE
  5
F25D
  8
MSM_DASHED
 10
20.2500000000001705
 20
25.6065000000000005
 30
0.0
 11
23.2500000000001101
 21
25.6065000000000005
 31
0.0
  0
LINE
  5
F25E
  8
MSM_DASHED
 10
20.5205000000001405
 20
28.7295000000000016
 30
0.0
 11
22.9795000000001401
 21
28.7295000000000016
 31
0.0
  0
LINE
  5
F260
  8
MSM_DASHED
 10
20.2500000000001705
 20
29.0
 30
0.0
 11
20.2500000000001705
 21
24.4999999999999787
 31
0.0
  0
LINE
  5
F261
  8
MSM_DASHED
 10
23.2500000000001101
 20
24.5
 30
0.0
 11
23.2500000000001101
 21
29.0
 31
0.0
  0
LINE
  5
F262
  8
MSM_DASHED
 10
20.2500000000001705
 20
25.6065000000000005
 30
0.0
 11
20.5565000000001383
 21
25.3000000000000007
 31
0.0
  0
LINE
  5
F263
  8
MSM_DASHED
 10
22.9435000000001388
 20
25.3000000000000007
 30
0.0
 11
23.2500000000001101
 21
25.6065000000000005
 31
0.0
  0
LINE
  5
F264
  8
MSM_DASHED
 10
20.2500000000001705
 20
29.0
 30
0.0
 11
20.5205000000001405
 21
28.7295000000000016
 31
0.0
  0
LINE
  5
F265
  8
MSM_DASHED
 10
22.9795000000001401
 20
28.7295000000000016
 30
0.0
 11
23.2500000000001101
 21
29.0
 31
0.0
  0
LINE
  5
F266
  8
MSM_DASHED
 10
20.5205000000001405
 20
29.0
 30
0.0
 11
20.5205000000001405
 21
24.5
 31
0.0
  0
LINE
  5
F267
  8
MSM_DASHED
 10
22.9795000000001401
 20
24.5
 30
0.0
 11
22.9795000000001401
 21
29.0
 31
0.0
  0
LINE
  5
F268
  8
MSM_DASHED
 10
20.2500000000001101
 20
24.5
 30
0.0
 11
23.2500000000001101
 21
24.5
 31
0.0
  0
LINE
  5
F269
  8
MSM_DASHED
 10
20.5565000000001383
 20
25.3000000000000007
 30
0.0
 11
22.9435000000001388
 21
25.3000000000000007
 31
0.0
  0
CIRCLE
  5
F26A
  8
MSM_CONTINUOUS
 10
90.2500000000000284
 20
21.0
 30
0.0
 40
3.2500000000000551
  0
CIRCLE
  5
F26B
  8
MSM_CONTINUOUS
 10
90.2500000000000284
 20
21.0
 30
0.0
 40
3.0
  0
LINE
  5
F26C
  8
MSM_CONTINUOUS
 10
90.7500000000000426
 20
19.1999999999999886
 30
0.0
 11
89.7500000000000426
 21
19.1999999999999886
 31
0.0
  0
LINE
  5
F26D
  8
MSM_CONTINUOUS
 10
89.7500000000000426
 20
22.8000000000000114
 30
0.0
 11
90.7500000000000426
 21
22.8000000000000114
 31
0.0
  0
LINE
  5
F26E
  8
MSM_CONTINUOUS
 10
89.7500000000000426
 20
19.1999999999999886
 30
0.0
 11
89.7500000000000426
 21
20.0
 31
0.0
  0
LINE
  5
F26F
  8
MSM_CONTINUOUS
 10
88.4500000000000455
 20
20.5
 30
0.0
 11
89.2500000000000142
 21
20.5
 31
0.0
  0
ARC
  5
F270
  8
MSM_CONTINUOUS
 10
89.2500000000000142
 20
20.0
 30
0.0
 40
0.5
 50
0.0
 51
90.0
  0
LINE
  5
F271
  8
MSM_CONTINUOUS
 10
88.4500000000000455
 20
21.5
 30
0.0
 11
89.2500000000000142
 21
21.5
 31
0.0
  0
LINE
  5
F272
  8
MSM_CONTINUOUS
 10
89.7500000000000426
 20
22.8000000000000114
 30
0.0
 11
89.7500000000000426
 21
22.0
 31
0.0
  0
ARC
  5
F273
  8
MSM_CONTINUOUS
 10
89.2500000000000142
 20
22.0
 30
0.0
 40
0.5
 50
270.0
 51
0.0
  0
LINE
  5
F274
  8
MSM_CONTINUOUS
 10
88.4500000000000455
 20
20.5
 30
0.0
 11
88.4500000000000455
 21
21.5
 31
0.0
  0
LINE
  5
F275
  8
MSM_CONTINUOUS
 10
92.0500000000000256
 20
20.5
 30
0.0
 11
91.25
 21
20.5
 31
0.0
  0
LINE
  5
F276
  8
MSM_CONTINUOUS
 10
90.7500000000000426
 20
19.1999999999999886
 30
0.0
 11
90.7500000000000426
 21
20.0
 31
0.0
  0
ARC
  5
F277
  8
MSM_CONTINUOUS
 10
91.25
 20
20.0
 30
0.0
 40
0.5
 50
90.0
 51
180.0
  0
LINE
  5
F278
  8
MSM_CONTINUOUS
 10
92.0500000000000256
 20
21.5
 30
0.0
 11
91.25
 21
21.5
 31
0.0
  0
LINE
  5
F279
  8
MSM_CONTINUOUS
 10
90.7500000000000426
 20
22.8000000000000114
 30
0.0
 11
90.7500000000000426
 21
22.0
 31
0.0
  0
ARC
  5
F27A
  8
MSM_CONTINUOUS
 10
91.25
 20
22.0
 30
0.0
 40
0.5
 50
180.0
 51
270.0
  0
LINE
  5
F27B
  8
MSM_CONTINUOUS
 10
92.0500000000000256
 20
21.5
 30
0.0
 11
92.0500000000000256
 21
20.5
 31
0.0
  0
LINE
  5
F27C
  8
MSM_CENTER
 10
90.2500000000000711
 20
30.799999999999951
 30
0.0
 11
90.2500000000000284
 21
15.7499999999999396
 31
0.0
  0
LINE
  5
F27D
  8
MSM_DASHED
 10
89.0205000000000553
 20
28.7294999999999092
 30
0.0
 11
91.4795000000000584
 21
28.7294999999999092
 31
0.0
  0
LINE
  5
F27F
  8
MSM_DASHED
 10
88.7500000000000568
 20
28.9999999999999112
 30
0.0
 11
88.7500000000000568
 21
24.4999999999998899
 31
0.0
  0
LINE
  5
F280
  8
MSM_DASHED
 10
91.7500000000000711
 20
24.4999999999999112
 30
0.0
 11
91.7500000000000711
 21
28.9999999999999112
 31
0.0
  0
LINE
  5
F281
  8
MSM_DASHED
 10
89.0205000000000553
 20
28.7294999999999092
 30
0.0
 11
89.0205000000000553
 21
24.4999999999999112
 31
0.0
  0
LINE
  5
F282
  8
MSM_DASHED
 10
91.4795000000000584
 20
24.4999999999999112
 30
0.0
 11
91.4795000000000584
 21
28.7294999999999092
 31
0.0
  0
LINE
  5
F283
  8
MSM_DASHED
 10
88.7500000000000568
 20
24.4999999999999112
 30
0.0
 11
91.7500000000000711
 21
24.4999999999999112
 31
0.0
  0
LINE
  5
F284
  8
MSM_DASHED
 10
89.0205000000000553
 20
28.7294999999999092
 30
0.0
 11
88.7500000000000568
 21
28.9999999999999112
 31
0.0
  0
LINE
  5
F285
  8
MSM_DASHED
 10
91.4795000000000584
 20
28.7294999999999092
 30
0.0
 11
91.7500000000000711
 21
28.9999999999999112
 31
0.0
  0
LINE
  5
F286
  8
MSM_CENTER
 10
78.0000000000000711
 20
22.7999999999999616
 30
0.0
 11
78.0000000000000426
 21
7.7499999999999432
 31
0.0
  0
LINE
  5
F287
  8
MSM_CENTER
 10
34.0000000000000568
 20
22.799999999999951
 30
0.0
 11
34.0000000000000426
 21
7.7499999999999361
 31
0.0
  0
LINE
  5
F2A2
  8
MSM_DASHED
 10
29.0
 20
24.5000000000000604
 30
0.0
 11
32.0000000000000426
 21
24.5000000000000604
 31
0.0
  0
LINE
  5
F2A3
  8
MSM_DASHED
 10
29.0
 20
29.0
 30
0.0
 11
29.0
 21
24.5000000000000604
 31
0.0
  0
LINE
  5
F2A4
  8
MSM_DASHED
 10
32.0000000000000426
 20
24.5000000000000604
 30
0.0
 11
32.0000000000000426
 21
29.0
 31
0.0
  0
LINE
  5
F2A5
  8
MSM_DASHED
 10
29.0
 20
24.5000000000000604
 30
0.0
 11
29.2705000000000304
 21
24.031480256552701
 31
0.0
  0
LINE
  5
F2A6
  8
MSM_DASHED
 10
32.0000000000000426
 20
24.5000000000000604
 30
0.0
 11
31.7295000000000407
 21
24.031480256552701
 31
0.0
  0
LINE
  5
F2A7
  8
MSM_DASHED
 10
39.0
 20
24.5000000000000604
 30
0.0
 11
42.0000000000000284
 21
24.5000000000000604
 31
0.0
  0
LINE
  5
F2A8
  8
MSM_DASHED
 10
39.0
 20
29.0
 30
0.0
 11
39.0
 21
24.5000000000000604
 31
0.0
  0
LINE
  5
F2A9
  8
MSM_DASHED
 10
42.0000000000000284
 20
24.5000000000000604
 30
0.0
 11
42.0000000000000284
 21
29.0
 31
0.0
  0
LINE
  5
F2AA
  8
MSM_DASHED
 10
39.0
 20
24.5000000000000604
 30
0.0
 11
39.2705000000000268
 21
24.031480256552701
 31
0.0
  0
LINE
  5
F2AB
  8
MSM_DASHED
 10
42.0000000000000284
 20
24.5000000000000604
 30
0.0
 11
41.7295000000000229
 21
24.031480256552701
 31
0.0
  0
LINE
  5
F2AC
  8
MSM_CENTER
 10
12.0000000000001705
 20
27.4999999999999893
 30
0.0
 11
12.0000000000001705
 21
20.4999999999999893
 31
0.0
  0
LINE
  5
F2AD
  8
MSM_NARROW
 10
10.9435000000001406
 20
25.6000000000000014
 30
0.0
 11
10.9435000000001406
 21
25.5
 31
0.0
  0
LINE
  5
F2AE
  8
MSM_NARROW
 10
13.0565000000002005
 20
25.6000000000000014
 30
0.0
 11
13.0565000000002005
 21
25.5
 31
0.0
  0
LINE
  5
F2AF
  8
MSM_CONTINUOUS
 10
13.0565000000002005
 20
25.6000000000000014
 30
0.0
 11
10.9435000000001406
 21
25.6000000000000014
 31
0.0
  0
LINE
  5
F2B0
  8
MSM_CONTINUOUS
 10
13.0565000000002005
 20
25.6000000000000014
 30
0.0
 11
13.1565000000001699
 21
25.5
 31
0.0
  0
LINE
  5
F2B1
  8
MSM_CONTINUOUS
 10
10.9435000000001406
 20
25.6000000000000014
 30
0.0
 11
10.8435000000001693
 21
25.5
 31
0.0
  0
LINE
  5
F2B2
  8
MSM_DASHED
 10
13.3000000000003507
 20
25.3564999999998086
 30
0.0
 11
10.6999999999999904
 21
25.3564999999998086
 31
0.0
  0
LINE
  5
F2B3
  8
MSM_DASHED
 10
11.3500000000001897
 20
25.6000000000000014
 30
0.0
 11
11.3500000000001897
 21
24.3999999999999986
 31
0.0
  0
LINE
  5
F2B4
  8
MSM_DASHED
 10
12.6500000000001496
 20
25.6000000000000014
 30
0.0
 11
12.6500000000001496
 21
24.3999999999999986
 31
0.0
  0
LINE
  5
F2B6
  8
MSM_DASHED
 10
12.6500000000001496
 20
24.3999999999999986
 30
0.0
 11
11.3500000000001897
 21
24.3999999999999986
 31
0.0
  0
LINE
  5
F2B7
  8
MSM_DASHED
 10
11.3500000000001897
 20
24.3999999999999986
 30
0.0
 11
12.0000000000001705
 21
24.0247223250267403
 31
0.0
  0
LINE
  5
F2B8
  8
MSM_DASHED
 10
12.6500000000001496
 20
24.3999999999999986
 30
0.0
 11
12.0000000000001705
 21
24.0247223250267403
 31
0.0
  0
LINE
  5
F2B9
  8
MSM_DASHED
 10
10.6999999999999904
 20
23.1500000000001691
 30
0.0
 11
10.6999999999999904
 21
25.3564999999998086
 31
0.0
  0
LINE
  5
F2BA
  8
MSM_DASHED
 10
10.9435000000001406
 20
22.9064999999999905
 30
0.0
 11
10.9435000000001406
 21
25.5
 31
0.0
  0
LINE
  5
F2BB
  8
MSM_DASHED
 10
13.0565000000002005
 20
22.9064999999999905
 30
0.0
 11
13.0565000000002005
 21
25.5
 31
0.0
  0
LINE
  5
F2BC
  8
MSM_DASHED
 10
13.3000000000003507
 20
23.1500000000001691
 30
0.0
 11
13.3000000000003507
 21
25.3564999999998086
 31
0.0
  0
LINE
  5
F2BD
  8
MSM_DASHED
 10
12.7500000000001705
 20
22.5999999999999908
 30
0.0
 11
11.2500000000001705
 21
22.5999999999999908
 31
0.0
  0
LINE
  5
F2BE
  8
MSM_DASHED
 10
12.7500000000001705
 20
22.5999999999999908
 30
0.0
 11
13.3000000000003507
 21
23.1500000000001691
 31
0.0
  0
LINE
  5
F2BF
  8
MSM_DASHED
 10
11.2500000000001705
 20
22.5999999999999908
 30
0.0
 11
10.6999999999999904
 21
23.1500000000001691
 31
0.0
  0
LINE
  5
F2C0
  8
MSM_DASHED
 10
13.3000000000003507
 20
23.1500000000001691
 30
0.0
 11
10.6999999999999904
 21
23.1500000000001691
 31
0.0
  0
LINE
  5
F2C1
  8
MSM_DASHED
 10
10.8435000000001693
 20
25.5
 30
0.0
 11
10.6999999999999904
 21
25.3564999999998086
 31
0.0
  0
LINE
  5
F2C3
  8
MSM_DASHED
 10
13.1565000000001699
 20
25.5
 30
0.0
 11
13.3000000000003507
 21
25.3564999999998086
 31
0.0
  0
LINE
  5
F2C4
  8
MSM_CENTER
 10
30.5
 20
30.8283718994159415
 30
0.0
 11
30.5
 21
21.1499999999999488
 31
0.0
  0
LINE
  5
F2C5
  8
MSM_CENTER
 10
40.4999999999999929
 20
30.8283718994159415
 30
0.0
 11
40.4999999999999929
 21
21.1499999999999488
 31
0.0
  0
LINE
  5
F2C6
  8
MSM_CENTER
 10
-2.0
 20
21.0000000000000711
 30
0.0
 11
98.8064501298744631
 21
21.0000000000000711
 31
0.0
  0
LINE
  5
F2C7
  8
MSM_CENTER
 10
-2.0000000000000542
 20
90.0000000000000568
 30
0.0
 11
102.3268393599737038
 21
90.0000000000000568
 31
0.0
  0
CIRCLE
  5
F2C8
  8
MSM_CONTINUOUS
 10
12.0000000000001208
 20
89.9999999999997868
 30
0.0
 40
1.300000000000181
  0
LINE
  5
F2C9
  8
MSM_CENTER
 10
12.0000000000001208
 20
86.6999999999996049
 30
0.0
 11
12.0000000000001208
 21
93.2999999999999829
 31
0.0
  0
CIRCLE
  5
F2CA
  8
MSM_NARROW
 10
12.0000000000001208
 20
90.0
 30
0.0
 40
1.056499999999998
  0
CIRCLE
  5
F2CB
  8
MSM_CONTINUOUS
 10
12.0000000000001208
 20
90.0
 30
0.0
 40
0.7505553499465094
  0
LINE
  5
F2CC
  8
MSM_CONTINUOUS
 10
11.35000000000014
 20
89.624722325026795
 30
0.0
 11
12.0000000000001208
 21
89.2494446500535048
 31
0.0
  0
LINE
  5
F2CD
  8
MSM_CONTINUOUS
 10
12.0000000000001208
 20
89.2494446500535048
 30
0.0
 11
12.6500000000000892
 21
89.624722325026795
 31
0.0
  0
LINE
  5
F2CE
  8
MSM_CONTINUOUS
 10
12.6500000000000892
 20
89.624722325026795
 30
0.0
 11
12.6500000000000892
 21
90.375277674973276
 31
0.0
  0
LINE
  5
F2CF
  8
MSM_CONTINUOUS
 10
12.6500000000000892
 20
90.375277674973276
 30
0.0
 11
12.0000000000001208
 21
90.7505553499464952
 31
0.0
  0
LINE
  5
F2D0
  8
MSM_CONTINUOUS
 10
12.0000000000001208
 20
90.7505553499464952
 30
0.0
 11
11.35000000000014
 21
90.375277674973276
 31
0.0
  0
LINE
  5
F2D1
  8
MSM_CONTINUOUS
 10
11.35000000000014
 20
90.375277674973276
 30
0.0
 11
11.35000000000014
 21
89.624722325026795
 31
0.0
  0
LINE
  5
F2D9
  8
MSM_CENTER
 10
127.2999999999999972
 20
22.7999999999999616
 30
0.0
 11
127.2999999999999972
 21
7.7499999999999396
 31
0.0
  0
LINE
  5
F2DC
  8
MSM_CENTER
 10
140.0
 20
34.7999999999999474
 30
0.0
 11
140.0
 21
12.4060837288282002
 31
0.0
  0
LINE
  5
F2DD
  8
MSM_CENTER
 10
129.0025724786611079
 20
21.0
 30
0.0
 11
150.9974275213388921
 21
21.0000000000000107
 31
0.0
  0
LINE
  5
F4A2
  8
MSM_CENTER
 10
21.7499999999999396
 20
81.0
 30
0.0
 11
21.7499999999999396
 21
99.0
 31
0.0
  0
LINE
  5
F4A3
  8
MSM_CENTER
 10
29.7499999999999503
 20
77.3000000000000256
 30
0.0
 11
38.2499999999999503
 21
77.3000000000000256
 31
0.0
  0
LINE
  5
F4A4
  8
MSM_CENTER
 10
30.4999999999999716
 20
86.5000000000000284
 30
0.0
 11
30.4999999999999716
 21
93.5000000000000568
 31
0.0
  0
LINE
  5
F4A5
  8
MSM_CENTER
 10
33.9999999999999503
 20
73.0500000000000256
 30
0.0
 11
33.9999999999999503
 21
81.5500000000000256
 31
0.0
  0
LINE
  5
F4A9
  8
MSM_CENTER
 10
73.7499999999999574
 20
77.3000000000000256
 30
0.0
 11
82.2499999999999574
 21
77.3000000000000256
 31
0.0
  0
LINE
  5
F4AA
  8
MSM_CENTER
 10
77.9999999999999574
 20
73.0500000000000256
 30
0.0
 11
77.9999999999999574
 21
81.5500000000000256
 31
0.0
  0
LINE
  5
F4B7
  8
MSM_CENTER
 10
40.4999999999999787
 20
86.4999999999999574
 30
0.0
 11
40.4999999999999787
 21
93.4999999999999858
 31
0.0
  0
LINE
  5
F4B8
  8
MSM_CENTER
 10
90.2499999999999574
 20
81.0
 30
0.0
 11
90.2499999999999574
 21
99.0
 31
0.0
  0
LINE
  5
F4BD
  8
MSM_IMAGINARY
 10
84.4999999999999432
 20
93.1499999999999631
 30
0.0
 11
68.4999999999999574
 21
93.1499999999999631
 31
0.0
  0
LINE
  5
F4BE
  8
MSM_IMAGINARY
 10
84.4999999999999432
 20
86.8500000000000227
 30
0.0
 11
68.4999999999999574
 21
86.8500000000000227
 31
0.0
  0
LINE
  5
F4BF
  8
MSM_IMAGINARY
 10
68.4999999999999574
 20
93.3500000000000227
 30
0.0
 11
68.4999999999999574
 21
86.6500000000000341
 31
0.0
  0
LINE
  5
F5B5
  8
MSM_DASHED
 10
35.5000000000000071
 20
18.0
 30
0.0
 11
35.5000000000000071
 21
20.0
 31
0.0
  0
LINE
  5
F5B6
  8
MSM_DASHED
 10
76.5000000000000142
 20
18.0000000000000107
 30
0.0
 11
76.5000000000000142
 21
20.0000000000000107
 31
0.0
  0
LINE
  5
F612
  8
MSM_CONTINUOUS
 10
0.4999999999999499
 20
84.0
 30
0.0
 11
7.4999999999998366
 21
84.0
 31
0.0
  0
LINE
  5
F613
  8
MSM_NARROW
 10
7.1526666666667964
 20
90.6526666666668461
 30
0.0
 11
7.4999999999998366
 21
90.6526666666668461
 31
0.0
  0
LINE
  5
F614
  8
MSM_NARROW
 10
6.1526666666667964
 20
89.6526666666668461
 30
0.0
 11
7.4999999999998366
 21
89.6526666666668461
 31
0.0
  0
LINE
  5
F615
  8
MSM_NARROW
 10
5.1526666666667946
 20
88.6526666666668461
 30
0.0
 11
7.4999999999998366
 21
88.6526666666668461
 31
0.0
  0
LINE
  5
F616
  8
MSM_NARROW
 10
4.1526666666667964
 20
87.6526666666668461
 30
0.0
 11
7.4999999999998366
 21
87.6526666666668461
 31
0.0
  0
LINE
  5
F617
  8
MSM_NARROW
 10
3.152666666666796
 20
86.6526666666668461
 30
0.0
 11
7.4999999999998366
 21
86.6526666666668461
 31
0.0
  0
LINE
  5
F618
  8
MSM_NARROW
 10
2.1526666666667951
 20
85.6526666666668461
 30
0.0
 11
7.4999999999998366
 21
85.6526666666668461
 31
0.0
  0
LINE
  5
F63E
  8
MSM_CONTINUOUS
 10
0.5000000000000054
 20
15.0
 30
0.0
 11
7.4999999999998916
 21
15.0
 31
0.0
  0
LINE
  5
F63F
  8
MSM_NARROW
 10
7.1526666666668506
 20
21.6526666666668497
 30
0.0
 11
7.4999999999998916
 21
21.6526666666668497
 31
0.0
  0
LINE
  5
F640
  8
MSM_NARROW
 10
6.1526666666668506
 20
20.6526666666668497
 30
0.0
 11
7.4999999999998916
 21
20.6526666666668497
 31
0.0
  0
LINE
  5
F641
  8
MSM_NARROW
 10
5.1526666666668506
 20
19.6526666666668497
 30
0.0
 11
7.4999999999998916
 21
19.6526666666668497
 31
0.0
  0
LINE
  5
F642
  8
MSM_NARROW
 10
4.1526666666668506
 20
18.6526666666668497
 30
0.0
 11
7.4999999999998916
 21
18.6526666666668497
 31
0.0
  0
LINE
  5
F643
  8
MSM_NARROW
 10
3.152666666666851
 20
17.6526666666668497
 30
0.0
 11
7.4999999999998916
 21
17.6526666666668497
 31
0.0
  0
LINE
  5
F644
  8
MSM_NARROW
 10
2.1526666666668501
 20
16.6526666666668497
 30
0.0
 11
7.4999999999998916
 21
16.6526666666668497
 31
0.0
  0
LINE
  5
F6A5
  8
MSM_NARROW
 10
76.4295000000000329
 20
10.0000000000000107
 30
0.0
 11
76.4295000000000044
 21
14.0000000000000107
 31
0.0
  0
LINE
  5
F6A6
  8
MSM_NARROW
 10
79.5704999999999956
 20
10.0000000000000107
 30
0.0
 11
79.5704999999999956
 21
14.0000000000000107
 31
0.0
  0
LINE
  5
F6A7
  8
MSM_DASHED
 10
76.4295000000000044
 20
14.0000000000000107
 30
0.0
 11
76.429499999999976
 21
16.0000000000000107
 31
0.0
  0
LINE
  5
F6A8
  8
MSM_DASHED
 10
79.5704999999999956
 20
14.0000000000000107
 30
0.0
 11
79.5704999999999956
 21
16.0000000000000107
 31
0.0
  0
LINE
  5
F6AD
  8
MSM_NARROW
 10
32.4295000000000684
 20
10.0
 30
0.0
 11
32.4295000000000613
 21
14.0
 31
0.0
  0
LINE
  5
F6AE
  8
MSM_DASHED
 10
32.4295000000000613
 20
14.0
 30
0.0
 11
32.4295000000000329
 21
16.0
 31
0.0
  0
LINE
  5
F6AF
  8
MSM_NARROW
 10
35.5705000000000524
 20
10.0
 30
0.0
 11
35.5705000000000524
 21
14.0
 31
0.0
  0
LINE
  5
F6B0
  8
MSM_DASHED
 10
35.5705000000000524
 20
14.0
 30
0.0
 11
35.5705000000000524
 21
16.0
 31
0.0
  0
LINE
  5
F6E3
  8
MSM_NARROW
 10
125.7295000000000016
 20
10.0000000000000107
 30
0.0
 11
125.7295000000000016
 21
14.0000000000000107
 31
0.0
  0
LINE
  5
F6E4
  8
MSM_DASHED
 10
125.7295000000000016
 20
14.0000000000000107
 30
0.0
 11
125.7294999999999021
 21
16.0000000000000107
 31
0.0
  0
LINE
  5
F6E5
  8
MSM_NARROW
 10
128.8704999999999075
 20
10.0000000000000107
 30
0.0
 11
128.8704999999999075
 21
14.0000000000000107
 31
0.0
  0
LINE
  5
F6E6
  8
MSM_DASHED
 10
128.8704999999999075
 20
14.0000000000000107
 30
0.0
 11
128.8704999999999075
 21
16.0000000000000107
 31
0.0
  0
VIEWPORT
  5
F760
 67
     1
  8
0
 10
128.5
 20
97.5
 30
0.0
 40
456.9073553719007919
 41
222.1800000000000068
 68
     1
 69
     1
1001
ACAD
1000
MVIEW
1002
{
1070
    16
1010
0.0
1020
0.0
1030
0.0
1010
0.0
1020
0.0
1030
1.0
1040
0.0
1040
222.1800000000000068
1040
128.5
1040
97.5
1040
50.0
1040
0.0
1040
0.0
1070
     0
1070
  1000
1070
     1
1070
     1
1070
     0
1070
     0
1070
     0
1070
     0
1040
0.0
1040
0.0
1040
0.0
1040
10.0
1040
10.0
1040
10.0
1040
10.0
1070
     0
1002
{
1002
}
1002
}
  0
VIEWPORT
  5
F764
 67
     1
  8
MSM_CONTINUOUS
 10
128.5
 20
97.5
 30
0.0
 40
205.5999999999999943
 41
156.0
 68
     2
 69
     2
1001
ACAD
1000
MVIEW
1002
{
1070
    16
1010
0.0
1020
0.0
1030
0.0
1010
0.0
1020
0.0
1030
1.0
1040
0.0
1040
117.127132213618097
1040
74.4987137606694034
1040
45.4999999999999929
1040
50.0
1040
0.0
1040
0.0
1070
    16
1070
  1000
1070
     1
1070
     3
1070
     0
1070
     0
1070
     0
1070
     0
1040
0.0
1040
0.0
1040
0.0
1040
10.0
1040
10.0
1040
10.0
1040
10.0
1070
     0
1002
{
1002
}
1002
}
  0
ENDSEC
  0
EOF
