  0
SECTION
  2
HEADER
  9
$ACADVER
  1
AC1009
  9
$INSBASE
 10
0.0
 20
0.0
 30
0.0
  9
$EXTMIN
 10
-63.773275403506197
 20
-41.223282000106558
 30
0.0
  9
$EXTMAX
 10
259.35496719823232
 20
22.999990024048682
 30
0.0
  9
$LIMMIN
 10
0.0
 20
0.0
  9
$LIMMAX
 10
420.0
 20
297.0
  9
$ORTHOMODE
 70
     0
  9
$REGENMODE
 70
     1
  9
$FILLMODE
 70
     1
  9
$QTEXTMODE
 70
     0
  9
$MIRRTEXT
 70
     0
  9
$DRAGMODE
 70
     2
  9
$LTSCALE
 40
1.0
  9
$OSMODE
 70
    61
  9
$ATTMODE
 70
     1
  9
$TEXTSIZE
 40
3.0
  9
$TRACEWID
 40
1.0
  9
$TEXTSTYLE
  7
STANDARD
  9
$CLAYER
  8
0
  9
$CELTYPE
  6
CONTINUOUS
  9
$CECOLOR
 62
     7
  9
$DIMSCALE
 40
1.0
  9
$DIMASZ
 40
2.5
  9
$DIMEXO
 40
0.625
  9
$DIMDLI
 40
3.75
  9
$DIMRND
 40
0.0
  9
$DIMDLE
 40
0.0
  9
$DIMEXE
 40
1.25
  9
$DIMTP
 40
0.0
  9
$DIMTM
 40
0.0
  9
$DIMTXT
 40
2.5
  9
$DIMCEN
 40
2.5
  9
$DIMTSZ
 40
0.0
  9
$DIMTOL
 70
     0
  9
$DIMLIM
 70
     0
  9
$DIMTIH
 70
     0
  9
$DIMTOH
 70
     0
  9
$DIMSE1
 70
     0
  9
$DIMSE2
 70
     0
  9
$DIMTAD
 70
     1
  9
$DIMZIN
 70
     8
  9
$DIMBLK
  1
OPEN30
  9
$DIMASO
 70
     1
  9
$DIMSHO
 70
     1
  9
$DIMPOST
  1

  9
$DIMAPOST
  1

  9
$DIMALT
 70
     0
  9
$DIMALTD
 70
     3
  9
$DIMALTF
 40
0.03937007874016
  9
$DIMLFAC
 40
1.0
  9
$DIMTOFL
 70
     1
  9
$DIMTVP
 40
0.0
  9
$DIMTIX
 70
     0
  9
$DIMSOXD
 70
     0
  9
$DIMSAH
 70
     0
  9
$DIMBLK1
  1

  9
$DIMBLK2
  1

  9
$DIMSTYLE
  2
MISUMI
  9
$DIMCLRD
 70
   137
  9
$DIMCLRE
 70
   137
  9
$DIMCLRT
 70
   137
  9
$DIMTFAC
 40
1.0
  9
$DIMGAP
 40
0.625
  9
$LUNITS
 70
     2
  9
$LUPREC
 70
     2
  9
$SKETCHINC
 40
1.0
  9
$FILLETRAD
 40
0.0
  9
$AUNITS
 70
     0
  9
$AUPREC
 70
     0
  9
$MENU
  1
.
  9
$ELEVATION
 40
0.0
  9
$PELEVATION
 40
0.0
  9
$THICKNESS
 40
0.0
  9
$LIMCHECK
 70
     0
  9
$BLIPMODE
 70
     0
  9
$CHAMFERA
 40
0.5
  9
$CHAMFERB
 40
0.5
  9
$SKPOLY
 70
     0
  9
$TDCREATE
 40
2455135.5720697111
  9
$TDUPDATE
 40
2455860.7317448612
  9
$TDINDWG
 40
0.0664113426
  9
$TDUSRTIMER
 40
0.0664111574
  9
$USRTIMER
 70
     1
  9
$ANGBASE
 50
0.0
  9
$ANGDIR
 70
     0
  9
$PDMODE
 70
    35
  9
$PDSIZE
 40
0.0
  9
$PLINEWID
 40
0.0
  9
$COORDS
 70
     1
  9
$SPLFRAME
 70
     0
  9
$SPLINETYPE
 70
     6
  9
$SPLINESEGS
 70
     8
  9
$ATTDIA
 70
     0
  9
$ATTREQ
 70
     1
  9
$HANDLING
 70
     1
  9
$HANDSEED
  5
11DC
  9
$SURFTAB1
 70
     6
  9
$SURFTAB2
 70
     6
  9
$SURFTYPE
 70
     6
  9
$SURFU
 70
     6
  9
$SURFV
 70
     6
  9
$UCSNAME
  2

  9
$UCSORG
 10
0.0
 20
0.0
 30
0.0
  9
$UCSXDIR
 10
1.0
 20
0.0
 30
0.0
  9
$UCSYDIR
 10
0.0
 20
1.0
 30
0.0
  9
$PUCSNAME
  2

  9
$PUCSORG
 10
0.0
 20
0.0
 30
0.0
  9
$PUCSXDIR
 10
1.0
 20
0.0
 30
0.0
  9
$PUCSYDIR
 10
0.0
 20
1.0
 30
0.0
  9
$USERI1
 70
     0
  9
$USERI2
 70
     0
  9
$USERI3
 70
     0
  9
$USERI4
 70
     0
  9
$USERI5
 70
     0
  9
$USERR1
 40
0.0
  9
$USERR2
 40
0.0
  9
$USERR3
 40
0.0
  9
$USERR4
 40
0.0
  9
$USERR5
 40
0.0
  9
$WORLDVIEW
 70
     1
  9
$SHADEDGE
 70
     3
  9
$SHADEDIF
 70
    70
  9
$TILEMODE
 70
     1
  9
$MAXACTVP
 70
    64
  9
$PLIMCHECK
 70
     0
  9
$PEXTMIN
 10
0.0
 20
0.0
 30
0.0
  9
$PEXTMAX
 10
0.0
 20
0.0
 30
0.0
  9
$PLIMMIN
 10
0.0
 20
0.0
  9
$PLIMMAX
 10
12.0
 20
9.0
  9
$UNITMODE
 70
     0
  9
$VISRETAIN
 70
     1
  9
$PLINEGEN
 70
     0
  9
$PSLTSCALE
 70
     1
  0
ENDSEC
  0
SECTION
  2
TABLES
  0
TABLE
  2
VPORT
 70
     1
  0
VPORT
  2
*ACTIVE
 70
     0
 10
0.0
 20
0.0
 11
1.0
 21
1.0
 12
51.143346740353941
 22
-29.928451846388871
 13
0.0
 23
0.0
 14
10.0
 24
10.0
 15
10.0
 25
10.0
 16
0.0
 26
0.0
 36
1.0
 17
0.0
 27
0.0
 37
0.0
 40
268.56929863388109
 41
1.255102040816326
 42
50.0
 43
0.0
 44
0.0
 50
0.0
 51
0.0
 71
     0
 72
  1000
 73
     1
 74
     3
 75
     0
 76
     0
 77
     0
 78
     0
  0
ENDTAB
  0
TABLE
  2
LTYPE
 70
     6
  0
LTYPE
  2
CONTINUOUS
 70
     0
  3
Solid line
 72
    65
 73
     0
 40
0.0
  0
LTYPE
  2
CENTER
 70
     0
  3
Center ____ _ ____ _ ____ _ ____ _ ____ _ ____
 72
    65
 73
     4
 40
50.799999999999997
 49
31.75
 49
-6.3499999999999988
 49
6.3499999999999988
 49
-6.3499999999999988
  0
LTYPE
  2
DASHED
 70
     0
  3
Dashed __ __ __ __ __ __ __ __ __ __ __ __ __ _
 72
    65
 73
     2
 40
19.050000000000001
 49
12.699999999999999
 49
-6.3499999999999988
  0
LTYPE
  2
PHANTOM
 70
     0
  3
Phantom ______  __  __  ______  __  __  ______
 72
    65
 73
     6
 40
63.5
 49
31.75
 49
-6.3499999999999988
 49
6.3499999999999988
 49
-6.3499999999999988
 49
6.3499999999999988
 49
-6.3499999999999988
  0
ENDTAB
  0
TABLE
  2
LAYER
 70
     3
  0
LAYER
  2
0
 70
     0
 62
     7
  6
CONTINUOUS
  0
LAYER
  2
CENTER
 70
     0
 62
     1
  6
CENTER
  0
LAYER
  2
DEFPOINTS
 70
     0
 62
     7
  6
CONTINUOUS
  0
ENDTAB
  0
TABLE
  2
STYLE
 70
     1
  0
STYLE
  2
STANDARD
 70
     0
 40
3.0
 41
1.0
 50
0.0
 71
     0
 42
3.0
  3
txt.shx
  4
bigfont.shx
  0
ENDTAB
  0
TABLE
  2
VIEW
 70
     0
  0
ENDTAB
  0
TABLE
  2
UCS
 70
     0
  0
ENDTAB
  0
TABLE
  2
APPID
 70
     4
  0
APPID
  2
ACAD
 70
     0
  0
APPID
  2
ACAD_EXEMPT_FROM_CAD_STANDARDS
 70
     0
  0
APPID
  2
ACAD_MLEADERVER
 70
     0
  0
APPID
  2
ACAD_DSTYLE_DIMRADIAL_EXTENSION
 70
     0
  0
ENDTAB
  0
TABLE
  2
DIMSTYLE
 70
     2
  0
DIMSTYLE
  2
MISUMI
 70
     0
  3

  4

  5
OPEN30
  6

  7

 40
1.0
 41
2.5
 42
0.625
 43
3.75
 44
1.25
 45
0.0
 46
0.0
 47
0.0
 48
0.0
140
2.5
141
2.5
142
0.0
143
0.03937007874016
144
1.0
145
0.0
146
1.0
147
0.625
 71
     0
 72
     0
 73
     0
 74
     0
 75
     0
 76
     0
 77
     1
 78
     8
170
     0
171
     3
172
     1
173
     0
174
     0
175
     0
176
   137
177
   137
178
   137
  0
ENDTAB
  0
ENDSEC
  0
SECTION
  2
BLOCKS
  0
BLOCK
  8
0
  2
$MODEL_SPACE
 70
     0
 10
0.0
 20
0.0
 30
0.0
  3
$MODEL_SPACE
  1

  0
ENDBLK
  5
21
  8
0
  0
BLOCK
 67
     1
  8
0
  2
$PAPER_SPACE
 70
     0
 10
0.0
 20
0.0
 30
0.0
  3
$PAPER_SPACE
  1

  0
ENDBLK
  5
53
 67
     1
  8
0
  0
BLOCK
  8
0
 62
     7
  2
_OPEN30
 70
     0
 10
0.0
 20
0.0
 30
0.0
  3
_OPEN30
  1

  0
LINE
  5
D7
  8
0
  6
BYBLOCK
 62
     0
 10
-1.0
 20
0.26794919
 30
0.0
 11
0.0
 21
0.0
 31
0.0
  0
LINE
  5
D8
  8
0
  6
BYBLOCK
 62
     0
 10
0.0
 20
0.0
 30
0.0
 11
-1.0
 21
-0.26794919
 31
0.0
  0
LINE
  5
D9
  8
0
  6
BYBLOCK
 62
     0
 10
0.0
 20
0.0
 30
0.0
 11
-1.0
 21
0.0
 31
0.0
  0
ENDBLK
  5
DB
  8
0
 62
     7
  0
BLOCK
  8
0
 62
     7
  2
*U4
 70
     1
 10
0.0
 20
0.0
 30
0.0
  3
*U4
  1

  0
TEXT
  5
119E
  8
0
  6
CONTINUOUS
 62
     7
 10
-63.773275403506197
 20
-34.999874999227814
 30
0.0
 40
3.0
  1
BSLMS10-100-F5-E5-P6-Q6-M3-N3
  0
ENDBLK
  5
11A0
  8
0
 62
     7
  0
BLOCK
  8
0
 62
     7
  2
*U5
 70
     1
 10
0.0
 20
0.0
 30
0.0
  3
*U5
  1

  0
TEXT
  5
11A2
  8
0
  6
CONTINUOUS
 62
     7
 10
-63.773275403506197
 20
-41.223282000106558
 30
0.0
 40
3.0
  1
BSLMS10
  0
ENDBLK
  5
11A4
  8
0
 62
     7
  0
ENDSEC
  0
SECTION
  2
ENTITIES
  0
LINE
  5
CF5
  8
0
  6
CONTINUOUS
 62
     7
 10
144.53521809598371
 20
-5.1647819040162837
 30
0.0
 11
112.9999999999999
 21
-5.1647819040162846
 31
0.0
  0
LINE
  5
CF6
  8
0
  6
CONTINUOUS
 62
     7
 10
144.53521809369951
 20
5.1647819063004841
 30
0.0
 11
112.9999999999999
 21
5.1647819063004841
 31
0.0
  0
LINE
  5
CF7
  8
CENTER
  6
CENTER
 62
     1
 10
48.0
 20
0.0000000000000002
 30
0.0
 11
152.0
 21
0.0000000000000002
 31
0.0
  0
LINE
  5
D39
  8
0
  6
CONTINUOUS
 62
     7
 10
55.0
 20
4.7000000000000002
 30
0.0
 11
55.0
 21
-4.7000000000000002
 31
0.0
  0
LINE
  5
D3C
  8
0
  6
CONTINUOUS
 62
     7
 10
145.0
 20
4.7000000000000002
 30
0.0
 11
145.0
 21
-4.7000000000000002
 31
0.0
  0
LINE
  5
D3D
  8
0
  6
CONTINUOUS
 62
     7
 10
144.5
 20
0.6041753561187634
 30
0.0
 11
112.9999999999999
 21
0.6041753561187634
 31
0.0
  0
LINE
  5
D3E
  8
0
  6
CONTINUOUS
 62
     7
 10
144.5
 20
-0.604175330698608
 30
0.0
 11
112.9999999999999
 21
-0.6041753306986079
 31
0.0
  0
LINE
  5
D43
  8
0
  6
CONTINUOUS
 62
     7
 10
80.0
 20
0.6041753561187634
 30
0.0
 11
55.5
 21
0.6041753561187634
 31
0.0
  0
LINE
  5
D45
  8
0
  6
CONTINUOUS
 62
     7
 10
80.0
 20
-0.6041753306986079
 30
0.0
 11
55.5
 21
-0.6041753306986079
 31
0.0
  0
INSERT
  5
D47
  8
0
  6
CONTINUOUS
 62
     7
  2
*U4
 10
0.0
 20
0.0
 30
0.0
  0
INSERT
  5
D48
  8
0
  6
CONTINUOUS
 62
     7
  2
*U5
 10
0.0
 20
0.0
 30
0.0
  0
LINE
  5
D4A
  8
0
  6
CONTINUOUS
 62
     7
 10
144.53521809369951
 20
5.1647819063004841
 30
0.0
 11
145.0
 21
4.7000000000000002
 31
0.0
  0
LINE
  5
D4B
  8
0
  6
CONTINUOUS
 62
     7
 10
145.0
 20
-4.7000000000000002
 30
0.0
 11
144.53521809598371
 21
-5.1647819040162837
 31
0.0
  0
LINE
  5
D4C
  8
0
  6
CONTINUOUS
 62
     7
 10
144.5
 20
-5.1647819040162837
 30
0.0
 11
144.5
 21
5.1647819063004849
 31
0.0
  0
LINE
  5
D4D
  8
0
  6
CONTINUOUS
 62
     7
 10
55.0
 20
-4.7000000000000002
 30
0.0
 11
55.464781904016291
 21
-5.1647819040162837
 31
0.0
  0
LINE
  5
D4E
  8
0
  6
CONTINUOUS
 62
     7
 10
55.0
 20
4.7000000000000002
 30
0.0
 11
55.46478190630048
 21
5.1647819063004841
 31
0.0
  0
LINE
  5
D4F
  8
0
  6
CONTINUOUS
 62
     7
 10
55.5
 20
5.1647819063004841
 30
0.0
 11
55.5
 21
-5.1647819040162828
 31
0.0
  0
LINE
  5
D51
  8
0
  6
CONTINUOUS
 62
     7
 10
50.0
 20
2.5
 30
0.0
 11
50.0
 21
-2.5
 31
0.0
  0
LINE
  5
D52
  8
0
  6
CONTINUOUS
 62
     7
 10
50.499999999999993
 20
3.0
 30
0.0
 11
55.000000000000007
 21
3.0
 31
0.0
  0
LINE
  5
D53
  8
0
  6
CONTINUOUS
 62
     7
 10
50.5
 20
-3.0
 30
0.0
 11
55.000000000000007
 21
-3.0
 31
0.0
  0
LINE
  5
D54
  8
0
  6
CONTINUOUS
 62
     7
 10
50.5
 20
-3.0
 30
0.0
 11
50.0
 21
-2.5
 31
0.0
  0
LINE
  5
D55
  8
0
  6
CONTINUOUS
 62
     7
 10
50.0
 20
2.5
 30
0.0
 11
50.499999999999993
 21
3.0
 31
0.0
  0
LINE
  5
D56
  8
0
  6
CONTINUOUS
 62
     7
 10
50.499999999999993
 20
3.0
 30
0.0
 11
50.5
 21
-3.0
 31
0.0
  0
LINE
  5
D57
  8
0
  6
DASHED
 62
     3
 10
50.0
 20
-1.2295
 30
0.0
 11
57.5
 21
-1.2295
 31
0.0
  0
LINE
  5
D58
  8
0
  6
DASHED
 62
     3
 10
50.0
 20
1.2295
 30
0.0
 11
57.5
 21
1.2295
 31
0.0
  0
LINE
  5
D59
  8
0
  6
DASHED
 62
     3
 10
50.0
 20
-1.5
 30
0.0
 11
56.0
 21
-1.5
 31
0.0
  0
LINE
  5
D5A
  8
0
  6
DASHED
 62
     3
 10
50.0
 20
1.5
 30
0.0
 11
56.0
 21
1.5
 31
0.0
  0
LINE
  5
D5B
  8
0
  6
DASHED
 62
     3
 10
56.0
 20
-1.5
 30
0.0
 11
56.0
 21
1.5
 31
0.0
  0
LINE
  5
D5C
  8
0
  6
DASHED
 62
     3
 10
56.0
 20
-1.5
 30
0.0
 11
56.468519743447381
 21
-1.2295
 31
0.0
  0
LINE
  5
D5D
  8
0
  6
DASHED
 62
     3
 10
56.0
 20
1.5
 30
0.0
 11
56.468519743447381
 21
1.2294999999999989
 31
0.0
  0
LINE
  5
D5E
  8
0
  6
DASHED
 62
     3
 10
57.5
 20
1.2295
 30
0.0
 11
58.209852155968662
 21
0.0000000000000232
 31
0.0
  0
LINE
  5
D5F
  8
0
  6
DASHED
 62
     3
 10
57.5
 20
-1.2295
 30
0.0
 11
58.209852155968662
 21
0.0000000000000232
 31
0.0
  0
LINE
  5
D60
  8
0
  6
DASHED
 62
     3
 10
57.5
 20
-1.2294999999999809
 30
0.0
 11
57.5
 21
1.22949999999999
 31
0.0
  0
LINE
  5
D61
  8
0
  6
DASHED
 62
     3
 10
150.0
 20
1.5
 30
0.0
 11
144.0
 21
1.5
 31
0.0
  0
LINE
  5
D62
  8
0
  6
DASHED
 62
     3
 10
150.0
 20
-1.5
 30
0.0
 11
144.0
 21
-1.5
 31
0.0
  0
LINE
  5
D63
  8
0
  6
DASHED
 62
     3
 10
150.0
 20
1.2295
 30
0.0
 11
142.5
 21
1.2295
 31
0.0
  0
LINE
  5
D64
  8
0
  6
DASHED
 62
     3
 10
150.0
 20
-1.2295
 30
0.0
 11
142.5
 21
-1.2295
 31
0.0
  0
LINE
  5
D65
  8
0
  6
CONTINUOUS
 62
     7
 10
149.5
 20
3.0
 30
0.0
 11
149.5
 21
-3.0
 31
0.0
  0
LINE
  5
D66
  8
0
  6
CONTINUOUS
 62
     7
 10
150.0
 20
2.5
 30
0.0
 11
150.0
 21
-2.5
 31
0.0
  0
LINE
  5
D67
  8
0
  6
CONTINUOUS
 62
     7
 10
149.5
 20
-3.0
 30
0.0
 11
150.0
 21
-2.5
 31
0.0
  0
LINE
  5
D68
  8
0
  6
CONTINUOUS
 62
     7
 10
149.5
 20
-3.0
 30
0.0
 11
145.0
 21
-3.0
 31
0.0
  0
LINE
  5
D69
  8
0
  6
CONTINUOUS
 62
     7
 10
150.0
 20
2.5
 30
0.0
 11
149.5
 21
3.0
 31
0.0
  0
LINE
  5
D6A
  8
0
  6
CONTINUOUS
 62
     7
 10
149.5
 20
3.0
 30
0.0
 11
145.0
 21
3.0
 31
0.0
  0
LINE
  5
D6B
  8
0
  6
DASHED
 62
     3
 10
142.5
 20
-1.2294999999999809
 30
0.0
 11
142.5
 21
1.22949999999999
 31
0.0
  0
LINE
  5
D6C
  8
0
  6
DASHED
 62
     3
 10
142.5
 20
-1.2295
 30
0.0
 11
141.79014784403131
 21
0.0000000000000232
 31
0.0
  0
LINE
  5
D6D
  8
0
  6
DASHED
 62
     3
 10
142.5
 20
1.2295
 30
0.0
 11
141.79014784403131
 21
0.0000000000000232
 31
0.0
  0
LINE
  5
D6E
  8
0
  6
DASHED
 62
     3
 10
144.0
 20
1.5
 30
0.0
 11
143.53148025655261
 21
1.2294999999999989
 31
0.0
  0
LINE
  5
D6F
  8
0
  6
DASHED
 62
     3
 10
144.0
 20
-1.5
 30
0.0
 11
143.53148025655261
 21
-1.2295
 31
0.0
  0
LINE
  5
D70
  8
0
  6
DASHED
 62
     3
 10
144.0
 20
-1.5
 30
0.0
 11
144.0
 21
1.5
 31
0.0
  0
LINE
  5
D75
  8
0
  6
CONTINUOUS
 62
     7
 10
79.999999999999986
 20
-5.1647819040162837
 30
0.0
 11
55.464781904016291
 21
-5.1647819040162837
 31
0.0
  0
LINE
  5
D76
  8
0
  6
CONTINUOUS
 62
     7
 10
80.0
 20
5.1647819063004849
 30
0.0
 11
55.46478190630048
 21
5.1647819063004841
 31
0.0
  0
LINE
  5
10D9
  8
0
  6
CONTINUOUS
 62
     7
 10
112.9999999999999
 20
9.7999998863163391
 30
0.0
 11
112.9999999999999
 21
-9.8000001136836694
 31
0.0
  0
LINE
  5
10DA
  8
0
  6
CONTINUOUS
 62
     7
 10
112.2999999999999
 20
10.49999988631634
 30
0.0
 11
112.2999999999999
 21
-10.50000011368366
 31
0.0
  0
LINE
  5
10DB
  8
0
  6
CONTINUOUS
 62
     7
 10
97.499999999999986
 20
10.49999988631634
 30
0.0
 11
97.499999999999986
 21
-10.50000011368366
 31
0.0
  0
LINE
  5
10DC
  8
0
  6
CONTINUOUS
 62
     7
 10
95.499999999999972
 20
10.49999988631634
 30
0.0
 11
95.499999999999972
 21
-10.50000011368366
 31
0.0
  0
LINE
  5
10DD
  8
CENTER
  6
CENTER
 62
     1
 10
96.499999999999986
 20
11.33999988631632
 30
0.0
 11
96.499999999999986
 21
-11.390000113683669
 31
0.0
  0
LINE
  5
10DE
  8
0
  6
CONTINUOUS
 62
     7
 10
88.599999999999994
 20
10.49999988631634
 30
0.0
 11
88.599999999999994
 21
-10.50000011368366
 31
0.0
  0
LINE
  5
10DF
  8
0
  6
CONTINUOUS
 62
     7
 10
87.5
 20
20.499999886316338
 30
0.0
 11
87.499999999999986
 21
-20.500000113683669
 31
0.0
  0
LINE
  5
10E0
  8
0
  6
CONTINUOUS
 62
     7
 10
88.0
 20
-20.000000113683669
 30
0.0
 11
87.999999999999972
 21
19.999999886316331
 31
0.0
  0
LINE
  5
10E1
  8
0
  6
CONTINUOUS
 62
     7
 10
79.999999999999972
 20
19.999999886316349
 30
0.0
 11
80.0
 21
-20.000000113683669
 31
0.0
  0
LINE
  5
10E2
  8
0
  6
CONTINUOUS
 62
     7
 10
80.5
 20
20.499999886316338
 30
0.0
 11
80.499999999999972
 21
-20.500000113683669
 31
0.0
  0
LINE
  5
10E3
  8
0
  6
CONTINUOUS
 62
     7
 10
97.5
 20
-10.50000011368366
 30
0.0
 11
112.2999999999999
 21
-10.50000011368366
 31
0.0
  0
LINE
  5
10E4
  8
0
  6
CONTINUOUS
 62
     7
 10
80.499999999999972
 20
-20.500000113683669
 30
0.0
 11
87.5
 21
-20.500000113683669
 31
0.0
  0
LINE
  5
10E5
  8
0
  6
CONTINUOUS
 62
     7
 10
79.999999999999972
 20
-20.000000113683669
 30
0.0
 11
80.499999999999972
 21
-20.500000113683669
 31
0.0
  0
LINE
  5
10E6
  8
0
  6
CONTINUOUS
 62
     7
 10
87.999999999999972
 20
-20.000000113683669
 30
0.0
 11
87.499999999999986
 21
-20.500000113683669
 31
0.0
  0
LINE
  5
10E7
  8
0
  6
CONTINUOUS
 62
     7
 10
88.600000000000023
 20
-10.50000011368366
 30
0.0
 11
95.499999999999972
 21
-10.50000011368366
 31
0.0
  0
LINE
  5
10E8
  8
0
  6
CONTINUOUS
 62
     7
 10
88.599999999999994
 20
-10.50000011368366
 30
0.0
 11
87.999999999999972
 21
-9.9000001136836673
 31
0.0
  0
ARC
  5
10E9
  8
0
  6
CONTINUOUS
 62
     7
 10
96.499999999999986
 20
-11.25000011368367
 30
0.0
 40
1.25
 50
36.869897679500241
 51
143.13010248499981
  0
LINE
  5
10EA
  8
0
  6
CONTINUOUS
 62
     7
 10
112.2999999999999
 20
-10.50000011368366
 30
0.0
 11
112.9999999999999
 21
-9.8000001136836694
 31
0.0
  0
LINE
  5
10EB
  8
0
  6
CONTINUOUS
 62
     7
 10
97.5
 20
10.49999988631634
 30
0.0
 11
112.2999999999999
 21
10.49999988631634
 31
0.0
  0
LINE
  5
10EC
  8
0
  6
CONTINUOUS
 62
     7
 10
88.600000000000023
 20
10.49999988631634
 30
0.0
 11
95.499999999999972
 21
10.49999988631634
 31
0.0
  0
LINE
  5
10ED
  8
0
  6
CONTINUOUS
 62
     7
 10
87.999999999999972
 20
9.8999998863163299
 30
0.0
 11
88.599999999999994
 21
10.49999988631634
 31
0.0
  0
ARC
  5
10EE
  8
0
  6
CONTINUOUS
 62
     7
 10
96.499999999999986
 20
11.24999988631634
 30
0.0
 40
1.25
 50
216.86989784400009
 51
323.13010264949992
  0
LINE
  5
10EF
  8
0
  6
CONTINUOUS
 62
     7
 10
87.5
 20
20.499999886316338
 30
0.0
 11
80.499999999999972
 21
20.499999886316338
 31
0.0
  0
LINE
  5
10F0
  8
0
  6
CONTINUOUS
 62
     7
 10
80.499999999999972
 20
20.499999886316338
 30
0.0
 11
79.999999999999972
 21
19.999999886316338
 31
0.0
  0
LINE
  5
10F1
  8
0
  6
CONTINUOUS
 62
     7
 10
87.499999999999986
 20
20.499999886316338
 30
0.0
 11
87.999999999999972
 21
19.999999886316338
 31
0.0
  0
LINE
  5
10F2
  8
0
  6
CONTINUOUS
 62
     7
 10
112.2999999999999
 20
10.49999988631634
 30
0.0
 11
112.9999999999999
 21
9.7999998863163391
 31
0.0
  0
LINE
  5
10F3
  8
0
  6
DASHED
 62
     3
 10
85.299999999999983
 20
18.999999886316321
 30
0.0
 11
79.999999999999972
 21
18.999999886316321
 31
0.0
  0
LINE
  5
10F4
  8
0
  6
DASHED
 62
     3
 10
85.299999999999983
 20
17.249999886316321
 30
0.0
 11
88.000000000000014
 21
17.249999886316321
 31
0.0
  0
LINE
  5
10F5
  8
0
  6
DASHED
 62
     3
 10
85.299999999999983
 20
10.999999886316321
 30
0.0
 11
79.999999999999972
 21
10.999999886316321
 31
0.0
  0
LINE
  5
10F6
  8
CENTER
  6
CENTER
 62
     1
 10
77.999999999999972
 20
14.999999886316321
 30
0.0
 11
89.999999999999986
 21
14.999999886316321
 31
0.0
  0
LINE
  5
10F7
  8
0
  6
DASHED
 62
     3
 10
85.299999999999983
 20
18.999999886316321
 30
0.0
 11
85.299999999999983
 21
10.999999886316321
 31
0.0
  0
LINE
  5
10F8
  8
0
  6
DASHED
 62
     3
 10
85.299999999999983
 20
12.749999886316321
 30
0.0
 11
88.000000000000014
 21
12.749999886316321
 31
0.0
  0
LINE
  5
10F9
  8
0
  6
DASHED
 62
     3
 10
85.299999999999983
 20
-11.00000011368367
 30
0.0
 11
79.999999999999972
 21
-11.00000011368367
 31
0.0
  0
LINE
  5
10FA
  8
0
  6
DASHED
 62
     3
 10
85.299999999999983
 20
-19.000000113683669
 30
0.0
 11
79.999999999999972
 21
-19.000000113683669
 31
0.0
  0
LINE
  5
10FB
  8
0
  6
DASHED
 62
     3
 10
85.299999999999983
 20
-12.75000011368367
 30
0.0
 11
88.000000000000014
 21
-12.75000011368367
 31
0.0
  0
LINE
  5
10FC
  8
CENTER
  6
CENTER
 62
     1
 10
77.999999999999972
 20
-15.00000011368367
 30
0.0
 11
89.999999999999986
 21
-15.00000011368367
 31
0.0
  0
LINE
  5
10FD
  8
0
  6
DASHED
 62
     3
 10
85.299999999999983
 20
-19.000000113683669
 30
0.0
 11
85.299999999999983
 21
-11.00000011368367
 31
0.0
  0
LINE
  5
10FE
  8
0
  6
DASHED
 62
     3
 10
85.299999999999983
 20
-17.250000113683669
 30
0.0
 11
88.000000000000014
 21
-17.250000113683669
 31
0.0
  0
LINE
  5
10FF
  8
0
  6
DASHED
 62
     3
 10
112.9999999999999
 20
-0.6041754443822663
 30
0.0
 11
79.999999999999972
 21
-0.6041754443822698
 31
0.0
  0
LINE
  5
1100
  8
0
  6
DASHED
 62
     3
 10
112.9999999999999
 20
0.6041752424351095
 30
0.0
 11
79.999999999999972
 21
0.6041752424351059
 31
0.0
  0
LINE
  5
1101
  8
0
  6
DASHED
 62
     3
 10
79.999999999999972
 20
-5.1647819040162837
 30
0.0
 11
112.9999999999999
 21
-5.164781904016281
 31
0.0
  0
LINE
  5
1102
  8
0
  6
DASHED
 62
     3
 10
79.999999999999972
 20
5.1647817933062701
 30
0.0
 11
112.9999999999999
 21
5.1647817933062736
 31
0.0
  0
LINE
  5
1103
  8
CENTER
  6
CENTER
 62
     1
 10
0.0
 20
-22.999990024048682
 30
0.0
 11
0.0
 21
22.999990024048682
 31
0.0
  0
CIRCLE
  5
1104
  8
0
  6
CONTINUOUS
 62
     7
 10
0.0
 20
-15.0
 30
0.0
 40
4.0
  0
CIRCLE
  5
1105
  8
0
  6
CONTINUOUS
 62
     7
 10
0.0
 20
-15.0
 30
0.0
 40
2.25
  0
LINE
  5
1106
  8
CENTER
  6
CENTER
 62
     1
 10
23.0
 20
0.0
 30
0.0
 11
-23.0
 21
0.0
 31
0.0
  0
CIRCLE
  5
1107
  8
0
  6
CONTINUOUS
 62
     7
 10
0.0
 20
15.0
 30
0.0
 40
4.0
  0
CIRCLE
  5
1108
  8
0
  6
CONTINUOUS
 62
     7
 10
-15.0
 20
0.000000000000002
 30
0.0
 40
4.0
  0
CIRCLE
  5
1109
  8
0
  6
CONTINUOUS
 62
     7
 10
-15.0
 20
0.000000000000002
 30
0.0
 40
2.25
  0
CIRCLE
  5
110A
  8
0
  6
CONTINUOUS
 62
     7
 10
0.0
 20
15.0
 30
0.0
 40
2.25
  0
CIRCLE
  5
110B
  8
0
  6
CONTINUOUS
 62
     7
 10
15.0
 20
0.0000000000000001
 30
0.0
 40
4.0
  0
CIRCLE
  5
110C
  8
0
  6
CONTINUOUS
 62
     7
 10
15.0
 20
0.0000000000000001
 30
0.0
 40
2.25
  0
CIRCLE
  5
110D
  8
0
  6
CONTINUOUS
 62
     7
 10
0.0
 20
0.0
 30
0.0
 40
20.000000000000028
  0
ARC
  5
110E
  8
0
  6
CONTINUOUS
 62
     7
 10
0.0
 20
0.0
 30
0.0
 40
5.2000000000000002
 50
186.6721270534
 51
263.32787329940038
  0
ARC
  5
110F
  8
0
  6
CONTINUOUS
 62
     7
 10
0.0
 20
0.0
 30
0.0
 40
5.2000000000000002
 50
276.67212712359981
 51
353.32787336960013
  0
CIRCLE
  5
1110
  8
0
  6
DASHED
 62
     3
 10
0.0
 20
0.0
 30
0.0
 40
10.5
  0
ARC
  5
1111
  8
0
  6
CONTINUOUS
 62
     7
 10
0.0000000202885547
 20
-6.1900000011834377
 30
0.0
 40
1.1899999999999991
 50
59.488560560299881
 51
120.5114395807001
  0
ARC
  5
1112
  8
0
  6
CONTINUOUS
 62
     7
 10
0.0
 20
0.0
 30
0.0
 40
5.2000000000000011
 50
6.6721269123997464
 51
83.327873158400067
  0
ARC
  5
1113
  8
0
  6
CONTINUOUS
 62
     7
 10
0.0
 20
0.0
 30
0.0
 40
5.1999999999999993
 50
96.672126982600304
 51
173.32787322859971
  0
ARC
  5
1114
  8
0
  6
CONTINUOUS
 62
     7
 10
-6.1900000011771086
 20
-0.0000000126502829
 30
0.0
 40
1.1899999999999991
 50
329.48856077150037
 51
30.511439510499599
  0
ARC
  5
1115
  8
0
  6
CONTINUOUS
 62
     7
 10
-0.0000000101776236
 20
6.1900000011834306
 30
0.0
 40
1.1899999999999991
 50
239.48856070129989
 51
300.51143972170013
  0
ARC
  5
1116
  8
0
  6
CONTINUOUS
 62
     7
 10
6.1900000011771183
 20
0.0000000025827297
 30
0.0
 40
1.1899999999999991
 50
149.48856063050039
 51
210.51143965149959
  0
CIRCLE
  5
1117
  8
0
  6
DASHED
 62
     3
 10
0.0
 20
0.0
 30
0.0
 40
10.00002294465672
  0
CIRCLE
  5
1118
  8
0
  6
DASHED
 62
     3
 10
0.0
 20
0.0
 30
0.0
 40
9.7999999999999972
  0
CIRCLE
  5
1119
  8
0
  6
CONTINUOUS
 62
     7
 10
0.0
 20
0.0
 30
0.0
 40
4.7000000000000011
  0
LINE
  5
111A
  8
CENTER
  6
CENTER
 62
     1
 10
-2.2627416997969521
 20
-2.2627416997969512
 30
0.0
 11
-8.8388347648318444
 21
-8.8388347648318408
 31
0.0
  0
LINE
  5
111B
  8
CENTER
  6
CENTER
 62
     1
 10
2.2627416997969538
 20
2.2627416997969521
 30
0.0
 11
8.8388347648318462
 21
8.8388347648318426
 31
0.0
  0
LINE
  5
111C
  8
0
  6
DASHED
 62
     3
 10
-3.108179224253464
 20
-4.1688393960332828
 30
0.0
 11
-6.5208385723418907
 21
-7.581498744121709
 31
0.0
  0
LINE
  5
111D
  8
0
  6
DASHED
 62
     3
 10
4.1688393960332837
 20
3.1081792242534609
 30
0.0
 11
7.5814987441217134
 21
6.5208385723418889
 31
0.0
  0
LINE
  5
111E
  8
0
  6
DASHED
 62
     3
 10
-4.1688393960332828
 20
-3.10817922425346
 30
0.0
 11
-7.5814987441217108
 21
-6.520838572341888
 31
0.0
  0
LINE
  5
111F
  8
0
  6
DASHED
 62
     3
 10
3.108179224253464
 20
4.1688393960332837
 30
0.0
 11
6.5208385723418916
 21
7.5814987441217099
 31
0.0
  0
LINE
  5
1120
  8
CENTER
  6
CENTER
 62
     1
 10
-2.2627416997969521
 20
2.2627416997969521
 30
0.0
 11
-8.8388347648318462
 21
8.8388347648318462
 31
0.0
  0
LINE
  5
1121
  8
CENTER
  6
CENTER
 62
     1
 10
2.2627416997969512
 20
-2.2627416997969538
 30
0.0
 11
8.8388347648318444
 21
-8.8388347648318497
 31
0.0
  0
LINE
  5
1122
  8
0
  6
DASHED
 62
     3
 10
-3.1081792242534618
 20
4.1688393960332837
 30
0.0
 11
-6.5208385723418889
 21
7.5814987441217108
 31
0.0
  0
LINE
  5
1123
  8
0
  6
DASHED
 62
     3
 10
4.1688393960332828
 20
-3.1081792242534649
 30
0.0
 11
7.5814987441217072
 21
-6.5208385723418916
 31
0.0
  0
LINE
  5
1124
  8
0
  6
DASHED
 62
     3
 10
-4.1688393960332828
 20
3.1081792242534618
 30
0.0
 11
-7.581498744121709
 21
6.5208385723418907
 31
0.0
  0
LINE
  5
1125
  8
0
  6
DASHED
 62
     3
 10
3.10817922425346
 20
-4.1688393960332846
 30
0.0
 11
6.5208385723418871
 21
-7.5814987441217152
 31
0.0
  0
CIRCLE
  5
1126
  8
0
  6
CONTINUOUS
 62
     7
 10
0.0
 20
0.0
 30
0.0
 40
20.500000000000039
  0
ARC
  5
1127
  8
CENTER
  6
CENTER
 62
     1
 10
0.0
 20
0.0
 30
0.0
 40
15.0
 50
248.4765159979481
 51
291.52348400205187
  0
ARC
  5
1128
  8
CENTER
  6
CENTER
 62
     1
 10
0.0
 20
0.0
 30
0.0
 40
15.0
 50
338.47651599794813
 51
21.52348400205188
  0
ARC
  5
1129
  8
CENTER
  6
CENTER
 62
     1
 10
0.0
 20
0.0
 30
0.0
 40
15.0
 50
68.476515997948141
 51
111.5234840020518
  0
ARC
  5
112A
  8
CENTER
  6
CENTER
 62
     1
 10
0.0
 20
0.0
 30
0.0
 40
15.0
 50
158.4765159979481
 51
201.52348400205179
  0
LINE
  5
112B
  8
0
  6
DASHED
 62
     3
 10
85.299999999999983
 20
3.9999998863163388
 30
0.0
 11
79.999999999999972
 21
3.9999998863163388
 31
0.0
  0
LINE
  5
112C
  8
0
  6
DASHED
 62
     3
 10
85.299999999999983
 20
2.2499998863163388
 30
0.0
 11
88.000000000000014
 21
2.2499998863163388
 31
0.0
  0
LINE
  5
112D
  8
0
  6
DASHED
 62
     3
 10
85.299999999999983
 20
-4.0000001136836589
 30
0.0
 11
79.999999999999972
 21
-4.0000001136836589
 31
0.0
  0
LINE
  5
112E
  8
0
  6
DASHED
 62
     3
 10
85.299999999999983
 20
3.9999998863163388
 30
0.0
 11
85.299999999999983
 21
-4.0000001136836589
 31
0.0
  0
LINE
  5
112F
  8
0
  6
DASHED
 62
     3
 10
85.299999999999983
 20
-2.2500001136836598
 30
0.0
 11
88.000000000000014
 21
-2.2500001136836598
 31
0.0
  0
LINE
  5
1130
  8
CENTER
  6
CENTER
 62
     1
 10
93.75182696229993
 20
7.071067698181813
 30
0.0
 11
99.249999999999972
 21
7.071067698181813
 31
0.0
  0
ARC
  5
1131
  8
0
  6
CONTINUOUS
 62
     7
 10
96.239115283575174
 20
7.0461658938395102
 30
0.0
 40
0.489748772827828
 50
114.1220919070726
 51
177.08547756952049
  0
ARC
  5
1132
  8
0
  6
CONTINUOUS
 62
     7
 10
96.331148776829508
 20
7.1191751204235407
 30
0.0
 40
0.5831365405162413
 50
184.73214803583789
 51
240.9328200430505
  0
ARC
  5
1133
  8
0
  6
CONTINUOUS
 62
     7
 10
96.668851223170435
 20
7.1191751204235407
 30
0.0
 40
0.5831365405162413
 50
299.06717995694947
 51
355.26785196416188
  0
ARC
  5
1134
  8
0
  6
CONTINUOUS
 62
     7
 10
96.499999999999986
 20
7.7181153451030129
 30
0.0
 40
1.1972931565913461
 50
247.81172948515609
 51
292.18827051484038
  0
ARC
  5
1135
  8
0
  6
CONTINUOUS
 62
     7
 10
96.760884716424783
 20
7.0461658938395102
 30
0.0
 40
0.489748772827828
 50
2.914522430479348
 51
65.877908092923832
  0
ARC
  5
1136
  8
0
  6
CONTINUOUS
 62
     7
 10
96.500000000000028
 20
6.3341877889379514
 30
0.0
 40
1.2472945713535171
 50
68.307252824272027
 51
111.6927471757279
  0
LINE
  5
1137
  8
CENTER
  6
CENTER
 62
     1
 10
93.75182696229993
 20
-7.0710679255491344
 30
0.0
 11
99.249999999999972
 21
-7.0710679255491344
 31
0.0
  0
ARC
  5
1138
  8
0
  6
CONTINUOUS
 62
     7
 10
96.239115283575174
 20
-7.0461661212068307
 30
0.0
 40
0.489748772827828
 50
182.9145224304792
 51
245.87790809292741
  0
ARC
  5
1139
  8
0
  6
CONTINUOUS
 62
     7
 10
96.331148776829508
 20
-7.119175347790863
 30
0.0
 40
0.5831365405162413
 50
119.0671799569495
 51
175.26785196416199
  0
ARC
  5
113A
  8
0
  6
CONTINUOUS
 62
     7
 10
96.668851223170435
 20
-7.119175347790863
 30
0.0
 40
0.5831365405162413
 50
4.7321480358380184
 51
60.932820043050491
  0
ARC
  5
113B
  8
0
  6
CONTINUOUS
 62
     7
 10
96.499999999999986
 20
-7.7181155724703352
 30
0.0
 40
1.1972931565913461
 50
67.811729485159617
 51
112.18827051484389
  0
ARC
  5
113C
  8
0
  6
CONTINUOUS
 62
     7
 10
96.760884716424783
 20
-7.0461661212068307
 30
0.0
 40
0.489748772827828
 50
294.1220919070762
 51
357.08547756952049
  0
ARC
  5
113D
  8
0
  6
CONTINUOUS
 62
     7
 10
96.500000000000028
 20
-6.334188016305272
 30
0.0
 40
1.2472945713535171
 50
248.3072528242721
 51
291.69274717572802
  0
CIRCLE
  5
1149
  8
0
  6
CONTINUOUS
 62
     7
 10
0.0
 20
0.0
 30
0.0
 40
3.0
  0
CIRCLE
  5
114A
  8
0
  6
CONTINUOUS
 62
     7
 10
0.0
 20
0.0
 30
0.0
 40
2.5
  0
CIRCLE
  5
114B
  8
0
  6
CONTINUOUS
 62
     3
 10
0.0
 20
0.0
 30
0.0
 40
1.5
  0
CIRCLE
  5
114C
  8
0
  6
CONTINUOUS
 62
     7
 10
0.0
 20
0.0
 30
0.0
 40
1.2295
  0
ENDSEC
  0
EOF
