  0
SECTION
  2
HEADER
  9
$ACADVER
  1
AC1009
  9
$INSBASE
 10
0.0
 20
0.0
 30
0.0
  9
$EXTMIN
 10
-1.403504518906288
 20
-8.0093071512054621
 30
-0.0015258207003583
  9
$EXTMAX
 10
66.928128087873802
 20
29.4082950763501
 30
0.0000000349246037
  9
$LIMMIN
 10
0.0
 20
0.0
  9
$LIMMAX
 10
420.0
 20
297.0
  9
$ORTHOMODE
 70
     0
  9
$REGENMODE
 70
     1
  9
$FILLMODE
 70
     1
  9
$QTEXTMODE
 70
     0
  9
$MIRRTEXT
 70
     0
  9
$DRAGMODE
 70
     2
  9
$LTSCALE
 40
0.5
  9
$OSMODE
 70
  3071
  9
$ATTMODE
 70
     1
  9
$TEXTSIZE
 40
3.0
  9
$TRACEWID
 40
1.0
  9
$TEXTSTYLE
  7
STANDARD
  9
$CLAYER
  8
MSM_CONTINUOUS
  9
$CELTYPE
  6
BYLAYER
  9
$CECOLOR
 62
   256
  9
$DIMSCALE
 40
1.0
  9
$DIMASZ
 40
1.5
  9
$DIMEXO
 40
0.625
  9
$DIMDLI
 40
3.75
  9
$DIMRND
 40
0.0
  9
$DIMDLE
 40
0.0
  9
$DIMEXE
 40
0.5
  9
$DIMTP
 40
0.0
  9
$DIMTM
 40
0.0
  9
$DIMTXT
 40
1.0
  9
$DIMCEN
 40
2.5
  9
$DIMTSZ
 40
0.0
  9
$DIMTOL
 70
     0
  9
$DIMLIM
 70
     0
  9
$DIMTIH
 70
     0
  9
$DIMTOH
 70
     0
  9
$DIMSE1
 70
     0
  9
$DIMSE2
 70
     0
  9
$DIMTAD
 70
     1
  9
$DIMZIN
 70
     8
  9
$DIMBLK
  1
OPEN30
  9
$DIMASO
 70
     1
  9
$DIMSHO
 70
     1
  9
$DIMPOST
  1

  9
$DIMAPOST
  1

  9
$DIMALT
 70
     0
  9
$DIMALTD
 70
     3
  9
$DIMALTF
 40
0.03937007874016
  9
$DIMLFAC
 40
1.0
  9
$DIMTOFL
 70
     1
  9
$DIMTVP
 40
0.0
  9
$DIMTIX
 70
     0
  9
$DIMSOXD
 70
     0
  9
$DIMSAH
 70
     0
  9
$DIMBLK1
  1

  9
$DIMBLK2
  1

  9
$DIMSTYLE
  2
MISUMI
  9
$DIMCLRD
 70
   256
  9
$DIMCLRE
 70
   256
  9
$DIMCLRT
 70
   256
  9
$DIMTFAC
 40
1.0
  9
$DIMGAP
 40
0.625
  9
$LUNITS
 70
     2
  9
$LUPREC
 70
     2
  9
$SKETCHINC
 40
1.0
  9
$FILLETRAD
 40
0.0
  9
$AUNITS
 70
     0
  9
$AUPREC
 70
     0
  9
$MENU
  1
.
  9
$ELEVATION
 40
0.0
  9
$PELEVATION
 40
0.0
  9
$THICKNESS
 40
0.0
  9
$LIMCHECK
 70
     0
  9
$BLIPMODE
 70
     0
  9
$CHAMFERA
 40
0.5
  9
$CHAMFERB
 40
0.5
  9
$SKPOLY
 70
     0
  9
$TDCREATE
 40
2455135.5720697111
  9
$TDUPDATE
 40
2458044.4901503469
  9
$TDINDWG
 40
0.8775877431
  9
$TDUSRTIMER
 40
2457969.456651852
  9
$USRTIMER
 70
     1
  9
$ANGBASE
 50
0.0
  9
$ANGDIR
 70
     0
  9
$PDMODE
 70
    35
  9
$PDSIZE
 40
0.0
  9
$PLINEWID
 40
0.0
  9
$COORDS
 70
     0
  9
$SPLFRAME
 70
     0
  9
$SPLINETYPE
 70
     6
  9
$SPLINESEGS
 70
     8
  9
$ATTDIA
 70
     0
  9
$ATTREQ
 70
     1
  9
$HANDLING
 70
     1
  9
$HANDSEED
  5
16921
  9
$SURFTAB1
 70
     6
  9
$SURFTAB2
 70
     6
  9
$SURFTYPE
 70
     6
  9
$SURFU
 70
     6
  9
$SURFV
 70
     6
  9
$UCSNAME
  2

  9
$UCSORG
 10
0.0
 20
0.0
 30
0.0
  9
$UCSXDIR
 10
1.0
 20
0.0
 30
0.0
  9
$UCSYDIR
 10
0.0
 20
1.0
 30
0.0
  9
$PUCSNAME
  2

  9
$PUCSORG
 10
0.0
 20
0.0
 30
0.0
  9
$PUCSXDIR
 10
1.0
 20
0.0
 30
0.0
  9
$PUCSYDIR
 10
0.0
 20
1.0
 30
0.0
  9
$USERI1
 70
     0
  9
$USERI2
 70
     0
  9
$USERI3
 70
     0
  9
$USERI4
 70
     0
  9
$USERI5
 70
     0
  9
$USERR1
 40
0.0
  9
$USERR2
 40
0.0
  9
$USERR3
 40
0.0
  9
$USERR4
 40
0.0
  9
$USERR5
 40
0.0
  9
$WORLDVIEW
 70
     1
  9
$SHADEDGE
 70
     3
  9
$SHADEDIF
 70
    70
  9
$TILEMODE
 70
     1
  9
$MAXACTVP
 70
    64
  9
$PLIMCHECK
 70
     0
  9
$PEXTMIN
 10
0.0
 20
0.0
 30
0.0
  9
$PEXTMAX
 10
0.0
 20
0.0
 30
0.0
  9
$PLIMMIN
 10
0.0
 20
0.0
  9
$PLIMMAX
 10
12.0
 20
9.0
  9
$UNITMODE
 70
     0
  9
$VISRETAIN
 70
     1
  9
$PLINEGEN
 70
     0
  9
$PSLTSCALE
 70
     1
  0
ENDSEC
  0
SECTION
  2
TABLES
  0
TABLE
  2
VPORT
 70
     1
  0
VPORT
  2
*ACTIVE
 70
     0
 10
0.0
 20
0.0
 11
1.0
 21
1.0
 12
32.762311784483771
 22
10.699493962572321
 13
0.0
 23
0.0
 14
10.0
 24
10.0
 15
10.0
 25
10.0
 16
0.0
 26
0.0
 36
1.0
 17
0.0
 27
0.0
 37
0.0
 40
37.718145217335127
 41
2.0898123324396778
 42
50.0
 43
0.0
 44
0.0
 50
0.0
 51
0.0
 71
    16
 72
  1000
 73
     1
 74
     3
 75
     0
 76
     0
 77
     0
 78
     0
  0
ENDTAB
  0
TABLE
  2
LTYPE
 70
     2
  0
LTYPE
  2
CONTINUOUS
 70
     0
  3
Solid line
 72
    65
 73
     0
 40
0.0
  0
LTYPE
  2
CENTER
 70
     0
  3
Center ____ _ ____ _ ____ _ ____ _ ____ _ ____
 72
    65
 73
     4
 40
50.799999999999997
 49
31.75
 49
-6.3499999999999988
 49
6.3499999999999988
 49
-6.3499999999999988
  0
ENDTAB
  0
TABLE
  2
LAYER
 70
     7
  0
LAYER
  2
0
 70
     0
 62
     7
  6
CONTINUOUS
  0
LAYER
  2
MSM_CENTER
 70
     0
 62
     1
  6
CENTER
  0
LAYER
  2
MSM_CONTINUOUS
 70
     0
 62
     7
  6
CONTINUOUS
  0
LAYER
  2
MSM_NARROW
 70
     0
 62
     5
  6
CONTINUOUS
  0
LAYER
  2
MSM_PART_NUMBER
 70
     0
 62
     7
  6
CONTINUOUS
  0
ENDTAB
  0
TABLE
  2
STYLE
 70
     1
  0
STYLE
  2
STANDARD
 70
     0
 40
1.0
 41
1.0
 50
0.0
 71
     0
 42
3.0
  3
txt.shx
  4
bigfont.shx
  0
ENDTAB
  0
TABLE
  2
VIEW
 70
     0
  0
ENDTAB
  0
TABLE
  2
UCS
 70
     0
  0
ENDTAB
  0
TABLE
  2
APPID
 70
    26
  0
APPID
  2
ACAD
 70
     0
  0
APPID
  2
ACAD_MLEADERVER
 70
     0
  0
APPID
  2
ACAD_EXEMPT_FROM_CAD_STANDARDS
 70
     0
  0
APPID
  2
ACDBBLOCKREPETAG
 70
     0
  0
APPID
  2
ACAD_DSTYLE_DIMJOGGED_JOGA
 70
     0
  0
APPID
  2
ACAECLAYERSTANDARD
 70
     0
  0
APPID
  2
GENIUS_GENODEF_13
 70
     0
  0
APPID
  2
GENIUS_GENOBJ-N-FIL_13
 70
     0
  0
APPID
  2
ACAD_PSEXT
 70
     0
  0
APPID
  2
ACAD_DSTYLE_DIMRADIAL_EXTENSION
 70
     0
  0
APPID
  2
ACDBDYNAMICBLOCKTRUENAME
 70
     0
  0
APPID
  2
ACDBDYNAMICBLOCKGUID
 70
     0
  0
APPID
  2
ACDBBLOCKREPBTAG
 70
     0
  0
APPID
  2
ACAUTHENVIRON
 70
     0
  0
APPID
  2
GRADIENTCOLOR1ACI
 70
     0
  0
APPID
  2
GRADIENTCOLOR2ACI
 70
     0
  0
APPID
  2
ACAD_DSTYLE_DIMJAG
 70
     0
  0
APPID
  2
ACAD_DSTYLE_DIMTALN
 70
     0
  0
APPID
  2
ACCMTRANSPARENCY
 70
     0
  0
APPID
  2
ACAD_DSTYLE_DIMBREAK
 70
     0
  0
APPID
  2
ACAD_DSTYLE_DIMFLIPARROW_W
 70
     0
  0
APPID
  2
ACAD_DSTYLE_DIM_LINETYPE
 70
     0
  0
APPID
  2
ACAD_DSTYLE_DIM_EXT1_LINETYPE
 70
     0
  0
APPID
  2
ACAD_DSTYLE_DIM_EXT2_LINETYPE
 70
     0
  0
APPID
  2
ACAD_NAV_VCDISPLAY
 70
     0
  0
APPID
  2
ACADANNOPO
 70
     0
  0
ENDTAB
  0
TABLE
  2
DIMSTYLE
 70
     1
  0
DIMSTYLE
  2
MISUMI
 70
     0
  3

  4

  5
OPEN30
  6

  7

 40
1.0
 41
1.5
 42
0.625
 43
3.75
 44
0.5
 45
0.0
 46
0.0
 47
0.0
 48
0.0
140
1.0
141
2.5
142
0.0
143
0.03937007874016
144
1.0
145
0.0
146
1.0
147
0.625
 71
     0
 72
     0
 73
     0
 74
     0
 75
     0
 76
     0
 77
     1
 78
     8
170
     0
171
     3
172
     1
173
     0
174
     0
175
     0
176
   256
177
   256
178
   256
  0
ENDTAB
  0
ENDSEC
  0
SECTION
  2
BLOCKS
  0
BLOCK
  8
0
  2
$MODEL_SPACE
 70
     0
 10
0.0
 20
0.0
 30
0.0
  3
$MODEL_SPACE
  1

  0
ENDBLK
  5
21
  8
0
  0
BLOCK
 67
     1
  8
0
  2
$PAPER_SPACE
 70
     0
 10
0.0
 20
0.0
 30
0.0
  3
$PAPER_SPACE
  1

  0
ENDBLK
  5
168D1
 67
     1
  8
0
  0
BLOCK
  8
0
 62
     7
  2
_OPEN30
 70
     0
 10
0.0
 20
0.0
 30
0.0
  3
_OPEN30
  1

  0
LINE
  5
D7
  8
0
  6
BYBLOCK
 62
     0
 10
-1.0
 20
0.26794919
 30
0.0
 11
0.0
 21
0.0
 31
0.0
  0
LINE
  5
D8
  8
0
  6
BYBLOCK
 62
     0
 10
0.0
 20
0.0
 30
0.0
 11
-1.0
 21
-0.26794919
 31
0.0
  0
LINE
  5
D9
  8
0
  6
BYBLOCK
 62
     0
 10
0.0
 20
0.0
 30
0.0
 11
-1.0
 21
0.0
 31
0.0
  0
ENDBLK
  5
DB
  8
0
 62
     7
  0
BLOCK
  8
0
  2
*U14
 70
     1
 10
0.0
 20
0.0
 30
0.0
  3
*U14
  1

  0
TEXT
  5
16916
  8
MSM_PART_NUMBER
 10
0.0
 20
-3.0
 30
0.0
 40
3.0
  1
AFPBD15-P18.00-L15-B15.0
  0
ENDBLK
  5
16918
  8
0
  0
BLOCK
  8
0
  2
*U15
 70
     1
 10
0.0
 20
0.0
 30
0.0
  3
*U15
  1

  0
TEXT
  5
1691A
  8
MSM_PART_NUMBER
 10
0.0
 20
-8.0
 30
0.0
 40
3.0
  1
AFPBD15
  0
ENDBLK
  5
1691C
  8
0
  0
ENDSEC
  0
SECTION
  2
ENTITIES
  0
INSERT
  5
1650B
  8
MSM_CONTINUOUS
  2
*U14
 10
0.0
 20
0.0
 30
0.0
  0
INSERT
  5
1650C
  8
MSM_CONTINUOUS
  2
*U15
 10
0.0
 20
0.0
 30
0.0
  0
LINE
  5
166B2
  8
MSM_CONTINUOUS
 10
29.999999999999769
 20
28.0
 30
0.0
 11
14.999999999999989
 21
28.0
 31
0.0
  0
LINE
  5
166B3
  8
MSM_CONTINUOUS
 10
14.999999999999989
 20
10.0
 30
0.0
 11
29.999999999999769
 21
10.0
 31
0.0
  0
LINE
  5
166B4
  8
MSM_CONTINUOUS
 10
33.999999999999993
 20
26.928203230275439
 30
0.0
 11
29.999999999999769
 21
28.0
 31
0.0
  0
LINE
  5
166B5
  8
MSM_CONTINUOUS
 10
33.999999999999993
 20
26.928203230275439
 30
0.0
 11
33.999999999999993
 21
11.071796769724561
 31
0.0
  0
ARC
  5
166B6
  8
MSM_CONTINUOUS
 10
14.800000000000169
 20
11.299999999999949
 30
0.0
 40
0.1999999999999957
 50
0.0
 51
90.0
  0
ARC
  5
166B7
  8
MSM_CONTINUOUS
 10
14.800000000000169
 20
26.700000000000049
 30
0.0
 40
0.1999999999999957
 50
270.0
 51
0.0
  0
LINE
  5
166B8
  8
MSM_CONTINUOUS
 10
30.00038665192789
 20
27.64580823289544
 30
0.0
 11
14.999999999999989
 21
27.645808232895209
 31
0.0
  0
LINE
  5
166B9
  8
MSM_CONTINUOUS
 10
14.999999999999989
 20
10.35419176710457
 30
0.0
 11
30.000411885391109
 21
10.35419176710457
 31
0.0
  0
LINE
  5
166BA
  8
MSM_CONTINUOUS
 10
14.800000000000169
 20
19.0
 30
0.0
 11
33.999999999999993
 21
19.0
 31
0.0
  0
LINE
  5
166BB
  8
MSM_CONTINUOUS
 10
1.999999999999992
 20
11.5
 30
0.0
 11
14.800000000000169
 21
11.5
 31
0.0
  0
LINE
  5
166BC
  8
MSM_CONTINUOUS
 10
14.800000000000169
 20
26.5
 30
0.0
 11
1.999999999999992
 21
26.5
 31
0.0
  0
LINE
  5
166BD
  8
MSM_CONTINUOUS
 10
-0.0000000000000071
 20
13.5
 30
0.0
 11
1.999999999999992
 21
11.5
 31
0.0
  0
LINE
  5
166BE
  8
MSM_CONTINUOUS
 10
1.999999999999992
 20
26.5
 30
0.0
 11
-0.0000000000000071
 21
24.5
 31
0.0
  0
LINE
  5
166BF
  8
MSM_CONTINUOUS
 10
1.999999999999992
 20
26.5
 30
0.0
 11
1.999999999999992
 21
11.5
 31
0.0
  0
LINE
  5
166C0
  8
MSM_CONTINUOUS
 10
-0.0000000000000071
 20
24.5
 30
0.0
 11
-0.0000000000000071
 21
13.5
 31
0.0
  0
LINE
  5
166C1
  8
MSM_CENTER
 10
46.100000000000122
 20
19.0
 30
0.0
 11
66.900000000000091
 21
19.0
 31
0.0
  0
LINE
  5
166C2
  8
MSM_CENTER
 10
56.499999999999993
 20
8.5999999999999091
 30
0.0
 11
56.499999999999993
 21
29.400000000000091
 31
0.0
  0
ARC
  5
166C3
  8
MSM_CONTINUOUS
 10
56.499999999999993
 20
19.0
 30
0.0
 40
7.4999999999999938
 50
299.88982558323119
 51
60.110174416768771
  0
ARC
  5
166C4
  8
MSM_CONTINUOUS
 10
56.499999999999993
 20
19.0
 30
0.0
 40
7.5
 50
119.8898255832288
 51
240.1101744167712
  0
ARC
  5
166C5
  8
MSM_CONTINUOUS
 10
56.499999999999993
 20
19.0
 30
0.0
 40
8.9999999999999964
 50
73.87237978683919
 51
106.1276202131608
  0
ARC
  5
166C6
  8
MSM_CONTINUOUS
 10
56.499999999999993
 20
19.0
 30
0.0
 40
8.9999999999999964
 50
253.87237978683919
 51
286.12762021316081
  0
LINE
  5
166C7
  8
MSM_CONTINUOUS
 10
63.991659710624162
 20
19.0
 30
0.0
 11
59.000000000000163
 21
27.645808232895241
 31
0.0
  0
LINE
  5
166C8
  8
MSM_CONTINUOUS
 10
53.999999999999957
 20
27.645808232895281
 30
0.0
 11
49.008340289376051
 21
19.0
 31
0.0
  0
LINE
  5
166C9
  8
MSM_CONTINUOUS
 10
49.008340289376051
 20
19.0
 30
0.0
 11
54.000000000000107
 21
10.35419176710468
 31
0.0
  0
LINE
  5
166CA
  8
MSM_CONTINUOUS
 10
59.000000000000021
 20
10.354191767104719
 30
0.0
 11
63.991659710624162
 21
19.0
 31
0.0
  0
LINE
  5
166CB
  8
MSM_CONTINUOUS
 10
14.999999999999989
 20
28.0
 30
0.0
 11
14.999999999999989
 21
10.0
 31
0.0
  0
LINE
  5
166CC
  8
MSM_CONTINUOUS
 10
33.999999999999993
 20
26.191069323193691
 30
0.0
 11
33.507995434140859
 21
26.385582022863669
 31
0.0
  0
LINE
  5
166CD
  8
MSM_CONTINUOUS
 10
33.507995434140859
 20
26.385582022863669
 30
0.0
 11
32.645732932243838
 21
26.714575254062769
 31
0.0
  0
LINE
  5
166CE
  8
MSM_CONTINUOUS
 10
32.645732932243838
 20
26.714575254062769
 30
0.0
 11
31.777216556452451
 21
27.031575489527999
 31
0.0
  0
LINE
  5
166CF
  8
MSM_CONTINUOUS
 10
31.777216556452451
 20
27.031575489527999
 30
0.0
 11
30.90335190316318
 21
27.338681205069179
 31
0.0
  0
LINE
  5
166D0
  8
MSM_CONTINUOUS
 10
30.90335190316318
 20
27.338681205069179
 30
0.0
 11
30.00038665192789
 21
27.64580823289544
 31
0.0
  0
LINE
  5
166D1
  8
MSM_CONTINUOUS
 10
30.000411885391109
 20
10.35419176710457
 30
0.0
 11
30.95965443173645
 21
10.68078951573397
 31
0.0
  0
LINE
  5
166D2
  8
MSM_CONTINUOUS
 10
30.95965443173645
 20
10.68078951573397
 30
0.0
 11
31.889486227750229
 21
11.00869207082201
 31
0.0
  0
LINE
  5
166D3
  8
MSM_CONTINUOUS
 10
31.889486227750229
 20
11.00869207082201
 30
0.0
 11
32.814233479378338
 21
11.34849890467922
 31
0.0
  0
LINE
  5
166D4
  8
MSM_CONTINUOUS
 10
32.814233479378338
 20
11.34849890467922
 30
0.0
 11
33.732092039715319
 21
11.702675036029859
 31
0.0
  0
LINE
  5
166D5
  8
MSM_CONTINUOUS
 10
33.732092039715319
 20
11.702675036029859
 30
0.0
 11
33.999999999999993
 21
11.80935051770869
 31
0.0
  0
LINE
  5
166ED
  8
MSM_NARROW
 10
2.999999999999992
 20
26.5
 30
0.0
 11
2.999999999999992
 21
11.5
 31
0.0
  0
LINE
  5
166F1
  8
MSM_CONTINUOUS
 10
29.999999999999769
 20
10.0
 30
0.0
 11
33.999999999999993
 21
11.071796769724561
 31
0.0
  0
LINE
  5
166FD
  8
MSM_CENTER
 10
-1.39999999999987
 20
19.0
 30
0.0
 11
35.400000000000077
 21
19.0
 31
0.0
  0
LINE
  5
166FE
  8
MSM_NARROW
 10
30.00038665192789
 20
27.64580823289544
 30
0.0
 11
14.999999999999989
 21
19.0
 31
0.0
  0
LINE
  5
166FF
  8
MSM_NARROW
 10
14.999999999999989
 20
19.0
 30
0.0
 11
30.000411885391109
 21
10.35419176710457
 31
0.0
  0
LINE
  5
16700
  8
MSM_NARROW
 10
14.999999999999989
 20
27.645808232895209
 30
0.0
 11
33.999999999999993
 21
19.0
 31
0.0
  0
LINE
  5
16701
  8
MSM_NARROW
 10
33.999999999999993
 20
19.0
 30
0.0
 11
14.999999999999989
 21
10.35419176710457
 31
0.0
  0
ARC
  5
16702
  8
MSM_CONTINUOUS
 10
56.499999999999993
 20
19.0
 30
0.0
 40
7.928203230275443
 50
245.0810124675844
 51
294.91898753241691
  0
ARC
  5
16703
  8
MSM_CONTINUOUS
 10
56.499999999999993
 20
19.0
 30
0.0
 40
7.928203230275443
 50
65.081012467582184
 51
114.9189875324163
  0
ENDSEC
  0
EOF
