  0
SECTION
  2
HEADER
  9
$ACADVER
  1
AC1009
  9
$INSBASE
 10
0.0
 20
0.0
 30
0.0
  9
$EXTMIN
 10
-2.24483357700728
 20
-8.0
 30
0.0
  9
$EXTMAX
 10
123.5726699830477
 20
125.3858744632675
 30
0.0
  9
$LIMMIN
 10
0.0
 20
0.0
  9
$LIMMAX
 10
420.0
 20
297.0
  9
$ORTHOMODE
 70
     0
  9
$REGENMODE
 70
     1
  9
$FILLMODE
 70
     1
  9
$QTEXTMODE
 70
     0
  9
$MIRRTEXT
 70
     0
  9
$DRAGMODE
 70
     2
  9
$LTSCALE
 40
0.5
  9
$OSMODE
 70
   127
  9
$ATTMODE
 70
     1
  9
$TEXTSIZE
 40
3.0
  9
$TRACEWID
 40
1.0
  9
$TEXTSTYLE
  7
STANDARD
  9
$CLAYER
  8
0
  9
$CELTYPE
  6
CONTINUOUS
  9
$CECOLOR
 62
     7
  9
$DIMSCALE
 40
1.0
  9
$DIMASZ
 40
2.5
  9
$DIMEXO
 40
0.625
  9
$DIMDLI
 40
3.75
  9
$DIMRND
 40
0.0
  9
$DIMDLE
 40
0.0
  9
$DIMEXE
 40
1.25
  9
$DIMTP
 40
0.0
  9
$DIMTM
 40
0.0
  9
$DIMTXT
 40
3.0
  9
$DIMCEN
 40
2.5
  9
$DIMTSZ
 40
0.0
  9
$DIMTOL
 70
     0
  9
$DIMLIM
 70
     0
  9
$DIMTIH
 70
     0
  9
$DIMTOH
 70
     0
  9
$DIMSE1
 70
     0
  9
$DIMSE2
 70
     0
  9
$DIMTAD
 70
     1
  9
$DIMZIN
 70
     8
  9
$DIMBLK
  1
OPEN30
  9
$DIMASO
 70
     1
  9
$DIMSHO
 70
     1
  9
$DIMPOST
  1

  9
$DIMAPOST
  1

  9
$DIMALT
 70
     0
  9
$DIMALTD
 70
     3
  9
$DIMALTF
 40
0.03937007874016
  9
$DIMLFAC
 40
1.0
  9
$DIMTOFL
 70
     1
  9
$DIMTVP
 40
0.0
  9
$DIMTIX
 70
     0
  9
$DIMSOXD
 70
     0
  9
$DIMSAH
 70
     0
  9
$DIMBLK1
  1

  9
$DIMBLK2
  1

  9
$DIMSTYLE
  2
MISUMI
  9
$DIMCLRD
 70
   137
  9
$DIMCLRE
 70
   137
  9
$DIMCLRT
 70
   137
  9
$DIMTFAC
 40
1.0
  9
$DIMGAP
 40
0.625
  9
$LUNITS
 70
     2
  9
$LUPREC
 70
     2
  9
$SKETCHINC
 40
1.0
  9
$FILLETRAD
 40
13.0
  9
$AUNITS
 70
     0
  9
$AUPREC
 70
     0
  9
$MENU
  1
.
  9
$ELEVATION
 40
0.0
  9
$PELEVATION
 40
0.0
  9
$THICKNESS
 40
0.0
  9
$LIMCHECK
 70
     0
  9
$BLIPMODE
 70
     0
  9
$CHAMFERA
 40
0.5
  9
$CHAMFERB
 40
0.5
  9
$SKPOLY
 70
     0
  9
$TDCREATE
 40
2456288.6098097218
  9
$TDUPDATE
 40
2456300.466534433
  9
$TDINDWG
 40
0.0272420255
  9
$TDUSRTIMER
 40
0.0272418403
  9
$USRTIMER
 70
     1
  9
$ANGBASE
 50
0.0
  9
$ANGDIR
 70
     0
  9
$PDMODE
 70
    35
  9
$PDSIZE
 40
0.0
  9
$PLINEWID
 40
0.0
  9
$COORDS
 70
     2
  9
$SPLFRAME
 70
     0
  9
$SPLINETYPE
 70
     6
  9
$SPLINESEGS
 70
     8
  9
$ATTDIA
 70
     0
  9
$ATTREQ
 70
     1
  9
$HANDLING
 70
     1
  9
$HANDSEED
  5
DD4B
  9
$SURFTAB1
 70
     6
  9
$SURFTAB2
 70
     6
  9
$SURFTYPE
 70
     6
  9
$SURFU
 70
     6
  9
$SURFV
 70
     6
  9
$UCSNAME
  2

  9
$UCSORG
 10
0.0
 20
0.0
 30
0.0
  9
$UCSXDIR
 10
1.0
 20
0.0
 30
0.0
  9
$UCSYDIR
 10
0.0
 20
1.0
 30
0.0
  9
$PUCSNAME
  2

  9
$PUCSORG
 10
0.0
 20
0.0
 30
0.0
  9
$PUCSXDIR
 10
1.0
 20
0.0
 30
0.0
  9
$PUCSYDIR
 10
0.0
 20
1.0
 30
0.0
  9
$USERI1
 70
     0
  9
$USERI2
 70
     0
  9
$USERI3
 70
     0
  9
$USERI4
 70
     0
  9
$USERI5
 70
     0
  9
$USERR1
 40
0.0
  9
$USERR2
 40
0.0
  9
$USERR3
 40
0.0
  9
$USERR4
 40
0.0
  9
$USERR5
 40
0.0
  9
$WORLDVIEW
 70
     1
  9
$SHADEDGE
 70
     3
  9
$SHADEDIF
 70
    70
  9
$TILEMODE
 70
     1
  9
$MAXACTVP
 70
    64
  9
$PLIMCHECK
 70
     0
  9
$PEXTMIN
 10
0.0
 20
0.0
 30
0.0
  9
$PEXTMAX
 10
0.0
 20
0.0
 30
0.0
  9
$PLIMMIN
 10
0.0
 20
0.0
  9
$PLIMMAX
 10
12.0
 20
9.0
  9
$UNITMODE
 70
     0
  9
$VISRETAIN
 70
     1
  9
$PLINEGEN
 70
     0
  9
$PSLTSCALE
 70
     1
  0
ENDSEC
  0
SECTION
  2
TABLES
  0
TABLE
  2
VPORT
 70
     1
  0
VPORT
  2
*ACTIVE
 70
     0
 10
0.0
 20
0.0
 11
1.0
 21
1.0
 12
60.680954042943057
 22
67.505349737355687
 13
0.0
 23
0.0
 14
10.0
 24
10.0
 15
10.0
 25
10.0
 16
0.0
 26
0.0
 36
1.0
 17
0.0
 27
0.0
 37
0.0
 40
152.6398790481698
 41
1.2322335025380711
 42
50.0
 43
0.0
 44
0.0
 50
0.0
 51
0.0
 71
     0
 72
  1000
 73
     1
 74
     3
 75
     0
 76
     0
 77
     0
 78
     0
  0
ENDTAB
  0
TABLE
  2
LTYPE
 70
     4
  0
LTYPE
  2
CONTINUOUS
 70
     0
  3
Solid line
 72
    65
 73
     0
 40
0.0
  0
LTYPE
  2
CENTER
 70
     0
  3
Center ____ _ ____ _ ____ _ ____ _ ____ _ ____
 72
    65
 73
     4
 40
50.799999999999997
 49
31.75
 49
-6.3499999999999979
 49
6.3499999999999979
 49
-6.3499999999999979
  0
LTYPE
  2
DASHED
 70
     0
  3
Dashed __ __ __ __ __ __ __ __ __ __ __ __ __ _
 72
    65
 73
     2
 40
19.050000000000001
 49
12.699999999999999
 49
-6.3499999999999979
  0
ENDTAB
  0
TABLE
  2
LAYER
 70
     3
  0
LAYER
  2
0
 70
     0
 62
     7
  6
CONTINUOUS
  0
LAYER
  2
CENTER
 70
     0
 62
     1
  6
CENTER
  0
LAYER
  2
DEFPOINTS
 70
     0
 62
     7
  6
CONTINUOUS
  0
ENDTAB
  0
TABLE
  2
STYLE
 70
     2
  0
STYLE
  2
STANDARD
 70
     0
 40
3.0
 41
1.0
 50
0.0
 71
     0
 42
3.0
  3
txt.shx
  4
bigfont.shx
  0
ENDTAB
  0
TABLE
  2
VIEW
 70
     0
  0
ENDTAB
  0
TABLE
  2
UCS
 70
     0
  0
ENDTAB
  0
TABLE
  2
APPID
 70
    22
  0
APPID
  2
ACAD
 70
     0
  0
APPID
  2
ACADANNOTATIVE
 70
     0
  0
APPID
  2
ACAD_MLEADERVER
 70
     0
  0
APPID
  2
ACAD_EXEMPT_FROM_CAD_STANDARDS
 70
     0
  0
APPID
  2
ACDBBLOCKREPETAG
 70
     0
  0
APPID
  2
ACAD_DSTYLE_DIMJOGGED_JOGA
 70
     0
  0
APPID
  2
ACAECLAYERSTANDARD
 70
     0
  0
APPID
  2
GENIUS_GENODEF_13
 70
     0
  0
APPID
  2
GENIUS_GENOBJ-N-FIL_13
 70
     0
  0
APPID
  2
ACAD_PSEXT
 70
     0
  0
APPID
  2
ACAD_DSTYLE_DIMRADIAL_EXTENSION
 70
     0
  0
APPID
  2
ACDBDYNAMICBLOCKTRUENAME
 70
     0
  0
APPID
  2
ACDBDYNAMICBLOCKGUID
 70
     0
  0
APPID
  2
ACDBBLOCKREPBTAG
 70
     0
  0
APPID
  2
ACAUTHENVIRON
 70
     0
  0
APPID
  2
GRADIENTCOLOR1ACI
 70
     0
  0
APPID
  2
GRADIENTCOLOR2ACI
 70
     0
  0
APPID
  2
ACAD_DSTYLE_DIMJAG
 70
     0
  0
APPID
  2
ACAD_DSTYLE_DIMTALN
 70
     0
  0
APPID
  2
ACCMTRANSPARENCY
 70
     0
  0
APPID
  2
ACAD_DSTYLE_DIMBREAK
 70
     0
  0
APPID
  2
ACAD_DSTYLE_DIMFLIPARROW_W
 70
     0
  0
ENDTAB
  0
TABLE
  2
DIMSTYLE
 70
     3
  0
DIMSTYLE
  2
STANDARD
 70
     0
  3

  4

  5

  6

  7

 40
1.0
 41
0.18
 42
0.0625
 43
0.38
 44
0.18
 45
0.0
 46
0.0
 47
0.0
 48
0.0
140
0.18
141
0.09
142
0.0
143
25.399999999999999
144
1.0
145
0.0
146
1.0
147
0.09
 71
     0
 72
     0
 73
     1
 74
     1
 75
     0
 76
     0
 77
     0
 78
     0
170
     0
171
     2
172
     0
173
     0
174
     0
175
     0
176
     0
177
     0
178
     0
  0
DIMSTYLE
  2
MISUMI
 70
     0
  3

  4

  5

  6

  7

 40
1.0
 41
2.5
 42
0.625
 43
3.75
 44
1.25
 45
0.0
 46
0.0
 47
0.0
 48
0.0
140
3.0
141
2.5
142
0.0
143
0.03937007874016
144
1.0
145
0.0
146
1.0
147
0.625
 71
     0
 72
     0
 73
     0
 74
     0
 75
     0
 76
     0
 77
     1
 78
     8
170
     0
171
     3
172
     1
173
     0
174
     0
175
     0
176
   137
177
   137
178
   137
  0
ENDTAB
  0
ENDSEC
  0
SECTION
  2
BLOCKS
  0
BLOCK
  8
0
  2
$MODEL_SPACE
 70
     0
 10
0.0
 20
0.0
 30
0.0
  3
$MODEL_SPACE
  1

  0
ENDBLK
  5
DCD7
  8
0
  0
BLOCK
 67
     1
  8
0
  2
$PAPER_SPACE
 70
     0
 10
0.0
 20
0.0
 30
0.0
  3
$PAPER_SPACE
  1

  0
ENDBLK
  5
DCD3
 67
     1
  8
0
  0
BLOCK
  8
0
 62
     7
  2
_OPEN30
 70
     0
 10
0.0
 20
0.0
 30
0.0
  3
_OPEN30
  1

  0
LINE
  5
D7
  8
0
  6
BYBLOCK
 62
     0
 10
-1.0
 20
0.26794919
 30
0.0
 11
0.0
 21
0.0
 31
0.0
  0
LINE
  5
D8
  8
0
  6
BYBLOCK
 62
     0
 10
0.0
 20
0.0
 30
0.0
 11
-1.0
 21
-0.26794919
 31
0.0
  0
LINE
  5
D9
  8
0
  6
BYBLOCK
 62
     0
 10
0.0
 20
0.0
 30
0.0
 11
-1.0
 21
0.0
 31
0.0
  0
ENDBLK
  5
DB
  8
0
 62
     7
  0
ENDSEC
  0
SECTION
  2
ENTITIES
  0
TEXT
  5
CA39
  8
0
  6
CONTINUOUS
 62
     7
 10
-0.0000000000000002
 20
-3.0
 30
0.0
 40
3.0
  1
C-BGHKA6000ZZ-40
 11
0.0
 21
0.0
 31
0.0
 73
     3
  0
TEXT
  5
CA3A
  8
0
  6
CONTINUOUS
 62
     7
 10
-0.0000000000000002
 20
-8.0
 30
0.0
 40
3.0
  1
C-BGHKA6000ZZ
 11
0.0
 21
-5.0
 31
0.0
 73
     3
  0
LINE
  5
CB22
  8
CENTER
  6
CENTER
 62
     1
 10
94.572669983047774
 20
86.440123968365214
 30
0.0
 11
94.572669983047774
 21
26.577489866934709
 31
0.0
  0
LINE
  5
CB23
  8
CENTER
  6
CENTER
 62
     1
 10
71.572669983047774
 20
40.494656803953923
 30
0.0
 11
71.572669983047774
 21
25.615648069850721
 31
0.0
  0
LINE
  5
CB24
  8
CENTER
  6
CENTER
 62
     1
 10
117.5726699830478
 20
40.494656803953923
 30
0.0
 11
117.5726699830478
 21
25.615648069850732
 31
0.0
  0
LINE
  5
CB25
  8
0
  6
CONTINUOUS
 62
     7
 10
111.5726699830478
 20
72.055152436902361
 30
0.0
 11
111.5726699830478
 21
39.055152436902297
 31
0.0
  0
LINE
  5
CB26
  8
0
  6
CONTINUOUS
 62
     7
 10
112.5726699830478
 20
38.055152436902297
 30
0.0
 11
122.5726699830477
 21
38.055152436902333
 31
0.0
  0
LINE
  5
CB27
  8
0
  6
CONTINUOUS
 62
     7
 10
123.5726699830477
 20
37.055152436902318
 30
0.0
 11
123.5726699830477
 21
28.055152436902329
 31
0.0
  0
LINE
  5
CB28
  8
0
  6
CONTINUOUS
 62
     7
 10
123.5726699830477
 20
28.055152436902329
 30
0.0
 11
65.572669983047774
 21
28.055152436902329
 31
0.0
  0
LINE
  5
CB29
  8
0
  6
CONTINUOUS
 62
     7
 10
65.572669983047774
 20
28.055152436902329
 30
0.0
 11
65.572669983047774
 21
37.055152436902311
 31
0.0
  0
LINE
  5
CB2A
  8
0
  6
CONTINUOUS
 62
     7
 10
66.572669983047774
 20
38.055152436902297
 30
0.0
 11
76.572669983047774
 21
38.055152436902297
 31
0.0
  0
LINE
  5
CB2B
  8
0
  6
CONTINUOUS
 62
     7
 10
77.572669983047774
 20
39.055152436902297
 30
0.0
 11
77.572669983047774
 21
72.055152436902276
 31
0.0
  0
LINE
  5
CB2C
  8
CENTER
  6
CENTER
 62
     1
 10
78.97266998304778
 20
68.05515243690229
 30
0.0
 11
110.1726699830477
 21
68.055152436902347
 31
0.0
  0
LINE
  5
CB2D
  8
0
  6
DASHED
 62
     3
 10
68.822669983047774
 20
38.055152436902333
 30
0.0
 11
68.822669983047774
 21
28.055152436902329
 31
0.0
  0
LINE
  5
CB2E
  8
0
  6
DASHED
 62
     3
 10
74.322669983047774
 20
38.055152436902333
 30
0.0
 11
74.322669983047774
 21
28.055152436902329
 31
0.0
  0
LINE
  5
CB2F
  8
0
  6
DASHED
 62
     3
 10
114.8226699830477
 20
38.055152436902333
 30
0.0
 11
114.8226699830477
 21
28.055152436902329
 31
0.0
  0
LINE
  5
CB30
  8
0
  6
DASHED
 62
     3
 10
120.3226699830477
 20
38.055152436902333
 30
0.0
 11
120.3226699830477
 21
28.055152436902329
 31
0.0
  0
LINE
  5
CB37
  8
0
  6
CONTINUOUS
 62
     7
 10
98.572669983047689
 20
85.055152436902375
 30
0.0
 11
90.572669983047675
 21
85.05515243690229
 31
0.0
  0
LINE
  5
CB3B
  8
CENTER
  6
CENTER
 62
     1
 10
94.572669983047774
 20
105.4187386324276
 30
0.0
 11
94.572669983047774
 21
125.3858744632675
 31
0.0
  0
LINE
  5
CB3C
  8
CENTER
  6
CENTER
 62
     1
 10
112.8226699830477
 20
115.4023065478475
 30
0.0
 11
122.3226699830477
 21
115.4023065478475
 31
0.0
  0
CIRCLE
  5
CB3D
  8
0
  6
CONTINUOUS
 62
     7
 10
94.572669983047774
 20
68.05515243690229
 30
0.0
 40
13.0
  0
CIRCLE
  5
CB3E
  8
0
  6
DASHED
 62
     3
 10
94.572669983047774
 20
68.05515243690229
 30
0.0
 40
13.6
  0
LINE
  5
CB40
  8
CENTER
  6
CENTER
 62
     1
 10
117.5726699830478
 20
110.6523065478475
 30
0.0
 11
117.5726699830478
 21
120.1523065478475
 31
0.0
  0
LINE
  5
CB41
  8
0
  6
CONTINUOUS
 62
     7
 10
65.572669983047774
 20
122.9023065478475
 30
0.0
 11
123.5726699830477
 21
122.9023065478475
 31
0.0
  0
LINE
  5
CB42
  8
0
  6
CONTINUOUS
 62
     7
 10
123.5726699830477
 20
122.9023065478475
 30
0.0
 11
123.5726699830477
 21
107.9023065478475
 31
0.0
  0
LINE
  5
CB43
  8
0
  6
CONTINUOUS
 62
     7
 10
123.5726699830477
 20
107.9023065478475
 30
0.0
 11
65.572669983047774
 21
107.9023065478475
 31
0.0
  0
LINE
  5
CB44
  8
0
  6
CONTINUOUS
 62
     7
 10
65.572669983047774
 20
107.9023065478475
 30
0.0
 11
65.572669983047774
 21
122.9023065478475
 31
0.0
  0
LINE
  5
CB45
  8
0
  6
CONTINUOUS
 62
     7
 10
77.572669983047774
 20
122.9023065478475
 30
0.0
 11
77.572669983047774
 21
107.9023065478475
 31
0.0
  0
LINE
  5
CB46
  8
0
  6
CONTINUOUS
 62
     7
 10
111.5726699830478
 20
122.9023065478475
 30
0.0
 11
111.5726699830478
 21
107.9023065478475
 31
0.0
  0
CIRCLE
  5
CB47
  8
0
  6
CONTINUOUS
 62
     7
 10
71.572669983047774
 20
115.4023065478476
 30
0.0
 40
2.75
  0
CIRCLE
  5
CB48
  8
0
  6
CONTINUOUS
 62
     7
 10
117.5726699830478
 20
115.4023065478475
 30
0.0
 40
2.75
  0
LINE
  5
CB49
  8
0
  6
CONTINUOUS
 62
     7
 10
11.349999999999961
 20
81.655152436902284
 30
0.0
 11
11.350000000000019
 21
54.455152436902317
 31
0.0
  0
LINE
  5
CB4A
  8
0
  6
CONTINUOUS
 62
     7
 10
10.0
 20
81.655152436902284
 30
0.0
 11
10.0
 21
54.455152436902317
 31
0.0
  0
LINE
  5
CB4C
  8
0
  6
CONTINUOUS
 62
     7
 10
15.0
 20
28.055152436902318
 30
0.0
 11
15.0
 21
85.05515243690229
 31
0.0
  0
LINE
  5
CB4D
  8
0
  6
CONTINUOUS
 62
     7
 10
0.0000000000000027
 20
85.05515243690229
 30
0.0
 11
0.0000000000000027
 21
28.055152436902318
 31
0.0
  0
LINE
  5
CB4E
  8
0
  6
CONTINUOUS
 62
     7
 10
0.0000000000000027
 20
28.055152436902318
 30
0.0
 11
15.0
 21
28.055152436902318
 31
0.0
  0
LINE
  5
CB50
  8
0
  6
CONTINUOUS
 62
     7
 10
0.0000000000000027
 20
57.055152436902318
 30
0.0
 11
2.0000000000000022
 21
57.055152436902318
 31
0.0
  0
LINE
  5
CB52
  8
0
  6
CONTINUOUS
 62
     7
 10
10.0
 20
54.455152436902317
 30
0.0
 11
11.350000000000019
 21
54.455152436902317
 31
0.0
  0
LINE
  5
CB53
  8
0
  6
CONTINUOUS
 62
     7
 10
11.350000000000019
 20
55.055152436902333
 30
0.0
 11
15.0
 21
55.055152436902333
 31
0.0
  0
LINE
  5
CB54
  8
0
  6
CONTINUOUS
 62
     7
 10
0.0000000000000027
 20
79.05515243690229
 30
0.0
 11
2.0000000000000022
 21
79.05515243690229
 31
0.0
  0
LINE
  5
CB55
  8
CENTER
  6
CENTER
 62
     1
 10
-2.24483357700728
 20
68.055152436902318
 30
0.0
 11
17.244833577007281
 21
68.055152436902318
 31
0.0
  0
LINE
  5
CB57
  8
0
  6
CONTINUOUS
 62
     7
 10
11.349999999999961
 20
81.05515243690229
 30
0.0
 11
15.0
 21
81.05515243690229
 31
0.0
  0
LINE
  5
CB58
  8
0
  6
CONTINUOUS
 62
     7
 10
10.0
 20
81.655152436902284
 30
0.0
 11
11.349999999999961
 21
81.655152436902284
 31
0.0
  0
LINE
  5
CB59
  8
0
  6
CONTINUOUS
 62
     7
 10
15.0
 20
85.05515243690229
 30
0.0
 11
0.0000000000000027
 21
85.05515243690229
 31
0.0
  0
LINE
  5
CB68
  8
0
  6
CONTINUOUS
 62
     7
 10
10.0
 20
79.155152436902284
 30
0.0
 11
11.349999999999961
 21
79.155152436902284
 31
0.0
  0
LINE
  5
CB69
  8
0
  6
CONTINUOUS
 62
     7
 10
10.0
 20
56.955152436902317
 30
0.0
 11
11.350000000000019
 21
56.955152436902317
 31
0.0
  0
LINE
  5
CB6A
  8
0
  6
CONTINUOUS
 62
     3
 10
10.0
 20
81.655152436902284
 30
0.0
 11
11.349999999999961
 21
79.155152436902284
 31
0.0
  0
LINE
  5
CB6B
  8
0
  6
CONTINUOUS
 62
     3
 10
11.349999999999961
 20
81.655152436902284
 30
0.0
 11
10.0
 21
79.155152436902284
 31
0.0
  0
LINE
  5
CB6C
  8
0
  6
CONTINUOUS
 62
     3
 10
10.0
 20
56.955152436902317
 30
0.0
 11
11.350000000000019
 21
54.455152436902317
 31
0.0
  0
LINE
  5
CB6D
  8
0
  6
CONTINUOUS
 62
     3
 10
11.350000000000019
 20
56.955152436902317
 30
0.0
 11
10.0
 21
54.455152436902317
 31
0.0
  0
CIRCLE
  5
CB6E
  8
0
  6
DASHED
 62
     3
 10
94.572669983047774
 20
68.05515243690229
 30
0.0
 40
11.0
  0
ARC
  5
CB9A
  8
0
  6
CONTINUOUS
 62
     7
 10
122.5726699830477
 20
37.055152436902318
 30
0.0
 40
1.0
 50
0.0
 51
90.0
  0
ARC
  5
CB9B
  8
0
  6
CONTINUOUS
 62
     7
 10
112.5726699830478
 20
39.055152436902297
 30
0.0
 40
1.0
 50
180.0
 51
270.0
  0
ARC
  5
CB9C
  8
0
  6
CONTINUOUS
 62
     7
 10
76.572669983047774
 20
39.055152436902297
 30
0.0
 40
1.0
 50
270.0
 51
0.0
  0
ARC
  5
CB9D
  8
0
  6
CONTINUOUS
 62
     7
 10
66.572669983047774
 20
37.055152436902311
 30
0.0
 40
1.0
 50
90.0
 51
180.0
  0
ARC
  5
CB9E
  8
0
  6
CONTINUOUS
 62
     7
 10
90.572669983047774
 20
72.055152436902276
 30
0.0
 40
13.0
 50
90.000000000000384
 51
180.0
  0
ARC
  5
CB9F
  8
0
  6
CONTINUOUS
 62
     7
 10
98.572669983047774
 20
72.055152436902361
 30
0.0
 40
13.0
 50
0.0
 51
90.000000000000384
  0
LINE
  5
CBA8
  8
CENTER
  6
CENTER
 62
     1
 10
66.822669983047774
 20
115.4023065478476
 30
0.0
 11
76.322669983047774
 21
115.4023065478476
 31
0.0
  0
LINE
  5
CBA9
  8
CENTER
  6
CENTER
 62
     1
 10
71.572669983047774
 20
110.6523065478476
 30
0.0
 11
71.572669983047774
 21
120.1523065478476
 31
0.0
  0
ARC
  5
CC40
  8
0
  6
CONTINUOUS
 62
     7
 10
2.300000000000002
 20
73.35515243690223
 30
0.0
 40
0.3
 50
180.0
 51
270.0
  0
ARC
  5
CC41
  8
0
  6
CONTINUOUS
 62
     7
 10
2.1000000000000041
 20
79.055142436902443
 30
0.0
 40
0.1
 50
90.0
 51
180.0
  0
LINE
  5
CC42
  8
0
  6
CONTINUOUS
 62
     7
 10
3.3026015186501541
 20
78.455132436902218
 30
0.0
 11
4.150580749937979
 21
78.455132436902289
 31
0.0
  0
LINE
  5
CC43
  8
0
  6
CONTINUOUS
 62
     7
 10
3.374051030983761
 20
75.455142436902307
 30
0.0
 11
4.1505726393285984
 21
75.455142436902307
 31
0.0
  0
ARC
  5
CC44
  8
0
  6
CONTINUOUS
 62
     7
 10
3.374051030983761
 20
75.355142436902312
 30
0.0
 40
0.1
 50
90.0
 51
159.99156160711979
  0
LINE
  5
CC45
  8
0
  6
CONTINUOUS
 62
     7
 10
2.3310000000001039
 20
78.180086652133099
 30
0.0
 11
2.3310000000001039
 21
75.355142436902284
 31
0.0
  0
ARC
  5
CC46
  8
0
  6
CONTINUOUS
 62
     7
 10
2.5310000000001041
 20
75.355142436902284
 30
0.0
 40
0.2
 50
180.0
 51
270.0
  0
LINE
  5
CC47
  8
0
  6
CONTINUOUS
 62
     7
 10
2.5310000000000081
 20
78.065076667671548
 30
0.0
 11
2.5310000000000081
 21
75.355142436902312
 31
0.0
  0
LINE
  5
CC48
  8
0
  6
CONTINUOUS
 62
     7
 10
2.9310000000000982
 20
75.355142436902312
 30
0.0
 11
2.5310000000000081
 21
75.355142436902312
 31
0.0
  0
LINE
  5
CC49
  8
0
  6
CONTINUOUS
 62
     7
 10
2.5310000000001041
 20
75.15514243690231
 30
0.0
 11
2.9310000000000982
 21
75.15514243690231
 31
0.0
  0
LINE
  5
CC4A
  8
0
  6
CONTINUOUS
 62
     7
 10
2.9310000000000982
 20
75.15514243690231
 30
0.0
 11
2.9310000000000982
 21
75.355142436902312
 31
0.0
  0
LINE
  5
CC4B
  8
0
  6
CONTINUOUS
 62
     7
 10
2.100000000000001
 20
75.005152436902421
 30
0.0
 11
2.4500100000001082
 21
75.005152436902421
 31
0.0
  0
ARC
  5
CC4C
  8
0
  6
CONTINUOUS
 62
     7
 10
2.100000000000001
 20
74.905152436902412
 30
0.0
 40
0.1
 50
90.0
 51
180.0
  0
LINE
  5
CC4D
  8
0
  6
CONTINUOUS
 62
     7
 10
2.794847941409544
 20
74.705142436902307
 30
0.0
 11
2.8909189172169749
 21
74.705142436902307
 31
0.0
  0
LINE
  5
CC4E
  8
0
  6
CONTINUOUS
 62
     7
 10
3.0788473649452301
 20
74.836710729818193
 30
0.0
 11
3.2800868071196341
 21
75.389358290444363
 31
0.0
  0
ARC
  5
CC4F
  8
0
  6
CONTINUOUS
 62
     7
 10
2.8909189172169749
 20
74.90514243690231
 30
0.0
 40
0.2
 50
270.0
 51
339.99156160712062
  0
LINE
  5
CC50
  8
0
  6
CONTINUOUS
 62
     7
 10
2.4500100000001082
 20
75.005152436902421
 30
0.0
 11
2.641585613189112
 21
74.776648628691731
 31
0.0
  0
ARC
  5
CC51
  8
0
  6
CONTINUOUS
 62
     7
 10
2.794847941409544
 20
74.90514243690231
 30
0.0
 40
0.2
 50
219.9761770281431
 51
270.0
  0
LINE
  5
CC52
  8
0
  6
CONTINUOUS
 62
     7
 10
2.1000000000000041
 20
79.155142436902423
 30
0.0
 11
2.4599983503454181
 21
79.155142436902423
 31
0.0
  0
LINE
  5
CC53
  8
0
  6
CONTINUOUS
 62
     7
 10
2.4483898142686278
 20
79.141240573535455
 30
0.0
 11
2.6191710284983181
 21
79.345760513875462
 31
0.0
  0
ARC
  5
CC54
  8
0
  6
CONTINUOUS
 62
     7
 10
2.6019055525814041
 20
79.013049629665446
 30
0.0
 40
0.2
 50
140.13695259052449
 51
225.00201781226531
  0
LINE
  5
CC55
  8
0
  6
CONTINUOUS
 62
     7
 10
2.6020000000000061
 20
78.73012243690232
 30
0.0
 11
2.743000000000039
 21
78.872122436902231
 31
0.0
  0
LINE
  5
CC56
  8
0
  6
CONTINUOUS
 62
     7
 10
2.743000000000039
 20
78.872122436902231
 30
0.0
 11
2.6019908661417501
 21
79.013131570760592
 31
0.0
  0
LINE
  5
CC57
  8
0
  6
CONTINUOUS
 62
     7
 10
3.1810000000000991
 20
78.800977919541694
 30
0.0
 11
3.1810000000000991
 21
78.440076667671448
 31
0.0
  0
LINE
  5
CC58
  8
0
  6
CONTINUOUS
 62
     7
 10
2.6020000000000061
 20
78.73012243690232
 30
0.0
 11
2.4604891769338431
 21
78.871623293013812
 31
0.0
  0
LINE
  5
CC59
  8
0
  6
CONTINUOUS
 62
     7
 10
3.1810000000001
 20
78.440076667671448
 30
0.0
 11
2.531000000000009
 21
78.065076667671548
 31
0.0
  0
LINE
  5
CC5A
  8
0
  6
CONTINUOUS
 62
     7
 10
2.9810003039334032
 20
78.556096827951535
 30
0.0
 11
2.3310000000001021
 21
78.180086652133099
 31
0.0
  0
LINE
  5
CC5B
  8
0
  6
CONTINUOUS
 62
     7
 10
2.601990866141747
 20
79.013131570760592
 30
0.0
 11
2.7720627058554141
 21
79.215458414557816
 31
0.0
  0
ARC
  5
CC5C
  8
0
  6
CONTINUOUS
 62
     7
 10
2.8486113329344862
 20
79.151113191795687
 30
0.0
 40
0.1
 50
3.1016640298759421
 51
139.95027223428309
  0
LINE
  5
CC5D
  8
0
  6
CONTINUOUS
 62
     7
 10
2.9484648428649769
 20
79.156523973121963
 30
0.0
 11
2.9810003039334032
 21
78.556096827951535
 31
0.0
  0
LINE
  5
CC5E
  8
0
  6
CONTINUOUS
 62
     7
 10
3.1483323394318861
 20
79.179283800079091
 30
0.0
 11
3.2029722841620081
 21
78.546529202899336
 31
0.0
  0
ARC
  5
CC5F
  8
0
  6
CONTINUOUS
 62
     7
 10
2.849444635967481
 20
79.153474098070447
 30
0.0
 40
0.3
 50
4.9353910702806081
 51
140.13695259052449
  0
ARC
  5
CC60
  8
0
  6
CONTINUOUS
 62
     7
 10
3.3026015186501421
 20
78.555132436902213
 30
0.0
 40
0.1
 50
184.9353910702805
 51
270.00000000000568
  0
ARC
  5
CC61
  8
0
  6
CONTINUOUS
 62
     7
 10
2.3000000000000038
 20
80.755152436902293
 30
0.0
 40
0.3
 50
90.0
 51
180.0
  0
ARC
  5
CC62
  8
0
  6
CONTINUOUS
 62
     7
 10
9.7000000000000028
 20
73.35515243690223
 30
0.0
 40
0.3
 50
270.0
 51
0.0
  0
ARC
  5
CC63
  8
0
  6
CONTINUOUS
 62
     7
 10
9.9000000000000021
 20
79.055142436902443
 30
0.0
 40
0.1
 50
0.0
 51
90.0
  0
LINE
  5
CC64
  8
0
  6
CONTINUOUS
 62
     7
 10
9.7000000000000028
 20
73.055152436902219
 30
0.0
 11
2.300000000000002
 21
73.055152436902219
 31
0.0
  0
LINE
  5
CC65
  8
0
  6
CONTINUOUS
 62
     7
 10
8.6973984813498522
 20
78.455132436902218
 30
0.0
 11
7.8494192500620219
 21
78.455132436902289
 31
0.0
  0
LINE
  5
CC66
  8
0
  6
CONTINUOUS
 62
     7
 10
8.6259489690162461
 20
75.455142436902307
 30
0.0
 11
7.849427360671406
 21
75.455142436902307
 31
0.0
  0
ARC
  5
CC67
  8
0
  6
CONTINUOUS
 62
     7
 10
8.6259489690162461
 20
75.355142436902312
 30
0.0
 40
0.1
 50
20.00843839288013
 51
90.0
  0
CIRCLE
  5
CC68
  8
0
  6
CONTINUOUS
 62
     7
 10
6.0000000000000009
 20
76.955132436902275
 30
0.0
 40
2.3812500000000001
  0
LINE
  5
CC69
  8
0
  6
CONTINUOUS
 62
     7
 10
8.7970277158379933
 20
78.546529202899336
 30
0.0
 11
8.8516676605681202
 21
79.179283800079091
 31
0.0
  0
ARC
  5
CC6A
  8
0
  6
CONTINUOUS
 62
     7
 10
9.1505553640325275
 20
79.153474098070447
 30
0.0
 40
0.3000000000000023
 50
39.863047409476401
 51
175.06460892971859
  0
LINE
  5
CC6B
  8
0
  6
CONTINUOUS
 62
     7
 10
9.3808289715016873
 20
79.345760513875462
 30
0.0
 11
9.5516101857313753
 21
79.141240573535455
 31
0.0
  0
ARC
  5
CC6C
  8
0
  6
CONTINUOUS
 62
     7
 10
9.398094447418595
 20
79.013049629665446
 30
0.0
 40
0.2000000000000005
 50
314.99798218773418
 51
39.863047409473467
  0
LINE
  5
CC6D
  8
0
  6
CONTINUOUS
 62
     7
 10
9.5395108230661592
 20
78.871623293013812
 30
0.0
 11
9.3979999999999997
 21
78.73012243690232
 31
0.0
  0
LINE
  5
CC6E
  8
0
  6
CONTINUOUS
 62
     7
 10
9.3979999999999997
 20
78.73012243690232
 30
0.0
 11
9.2569999999999641
 21
78.872122436902231
 31
0.0
  0
LINE
  5
CC6F
  8
0
  6
CONTINUOUS
 62
     7
 10
9.2569999999999641
 20
78.872122436902231
 30
0.0
 11
9.3980091338582561
 21
79.013131570760592
 31
0.0
  0
LINE
  5
CC70
  8
0
  6
CONTINUOUS
 62
     7
 10
9.3980091338582561
 20
79.013131570760592
 30
0.0
 11
9.2279372941445956
 21
79.215458414557816
 31
0.0
  0
ARC
  5
CC71
  8
0
  6
CONTINUOUS
 62
     7
 10
9.15138866706552
 20
79.151113191795687
 30
0.0
 40
0.0999999999999997
 50
40.049727765714771
 51
176.89833597012321
  0
LINE
  5
CC72
  8
0
  6
CONTINUOUS
 62
     7
 10
9.0515351571350262
 20
79.156523973121963
 30
0.0
 11
9.0189996960666043
 21
78.556096827951535
 31
0.0
  0
LINE
  5
CC73
  8
0
  6
CONTINUOUS
 62
     7
 10
9.0189996960666043
 20
78.556096827951535
 30
0.0
 11
9.6689999999998992
 21
78.180086652133099
 31
0.0
  0
LINE
  5
CC74
  8
0
  6
CONTINUOUS
 62
     7
 10
9.6689999999998992
 20
78.180086652133099
 30
0.0
 11
9.6689999999998992
 21
75.355142436902284
 31
0.0
  0
ARC
  5
CC75
  8
0
  6
CONTINUOUS
 62
     7
 10
9.4689999999998982
 20
75.355142436902284
 30
0.0
 40
0.2000000000000028
 50
270.00000000000102
 51
0.0
  0
LINE
  5
CC76
  8
0
  6
CONTINUOUS
 62
     7
 10
9.4689999999998982
 20
75.15514243690231
 30
0.0
 11
9.0689999999999031
 21
75.15514243690231
 31
0.0
  0
LINE
  5
CC77
  8
0
  6
CONTINUOUS
 62
     7
 10
9.0689999999999031
 20
75.15514243690231
 30
0.0
 11
9.0689999999999031
 21
75.355142436902312
 31
0.0
  0
LINE
  5
CC78
  8
0
  6
CONTINUOUS
 62
     7
 10
9.0689999999999031
 20
75.355142436902312
 30
0.0
 11
9.4689999999999976
 21
75.355142436902312
 31
0.0
  0
LINE
  5
CC79
  8
0
  6
CONTINUOUS
 62
     7
 10
9.4689999999999976
 20
75.355142436902312
 30
0.0
 11
9.4689999999999976
 21
78.065076667671548
 31
0.0
  0
LINE
  5
CC7A
  8
0
  6
CONTINUOUS
 62
     7
 10
9.4689999999999976
 20
78.065076667671548
 30
0.0
 11
8.8189999999999031
 21
78.440076667671448
 31
0.0
  0
LINE
  5
CC7B
  8
0
  6
CONTINUOUS
 62
     7
 10
8.8189999999999031
 20
78.440076667671448
 30
0.0
 11
8.8189999999999031
 21
78.800977919541694
 31
0.0
  0
LINE
  5
CC7C
  8
0
  6
CONTINUOUS
 62
     7
 10
9.9000000000000021
 20
75.005152436902421
 30
0.0
 11
9.5499899999998981
 21
75.005152436902421
 31
0.0
  0
ARC
  5
CC7D
  8
0
  6
CONTINUOUS
 62
     7
 10
9.9000000000000021
 20
74.905152436902412
 30
0.0
 40
0.1
 50
0.0
 51
90.0
  0
LINE
  5
CC7E
  8
0
  6
CONTINUOUS
 62
     7
 10
9.2051520585904605
 20
74.705142436902307
 30
0.0
 11
9.1090810827830317
 21
74.705142436902307
 31
0.0
  0
LINE
  5
CC7F
  8
0
  6
CONTINUOUS
 62
     7
 10
8.9211526350547778
 20
74.836710729818193
 30
0.0
 11
8.7199131928803713
 21
75.389358290444363
 31
0.0
  0
ARC
  5
CC80
  8
0
  6
CONTINUOUS
 62
     7
 10
9.1090810827830317
 20
74.90514243690231
 30
0.0
 40
0.2
 50
200.0084383928793
 51
270.0
  0
LINE
  5
CC81
  8
0
  6
CONTINUOUS
 62
     7
 10
9.5499899999998981
 20
75.005152436902421
 30
0.0
 11
9.3584143868108924
 21
74.776648628691731
 31
0.0
  0
ARC
  5
CC82
  8
0
  6
CONTINUOUS
 62
     7
 10
9.2051520585904605
 20
74.90514243690231
 30
0.0
 40
0.2
 50
270.0
 51
320.02382297185682
  0
LINE
  5
CC83
  8
0
  6
CONTINUOUS
 62
     7
 10
9.9000000000000021
 20
79.155142436902423
 30
0.0
 11
9.5400016496545881
 21
79.155142436902423
 31
0.0
  0
ARC
  5
CC84
  8
0
  6
CONTINUOUS
 62
     7
 10
8.697398481349861
 20
78.555132436902213
 30
0.0
 40
0.1
 50
269.99999999999432
 51
355.06460892971938
  0
LINE
  5
CC85
  8
0
  6
CONTINUOUS
 62
     7
 10
9.6999999999999993
 20
81.05515243690229
 30
0.0
 11
2.3000000000000038
 21
81.05515243690229
 31
0.0
  0
ARC
  5
CC86
  8
0
  6
CONTINUOUS
 62
     7
 10
9.6999999999999993
 20
80.755152436902293
 30
0.0
 40
0.3
 50
0.0
 51
90.0
  0
LINE
  5
CC87
  8
0
  6
CONTINUOUS
 62
     7
 10
2.0000000000000031
 20
55.355152436902308
 30
0.0
 11
1.999999999999996
 21
80.755152436902293
 31
0.0
  0
ARC
  5
CC88
  8
0
  6
CONTINUOUS
 62
     7
 10
2.300000000000002
 20
62.755152436902392
 30
0.0
 40
0.3
 50
90.0
 51
180.0
  0
ARC
  5
CC89
  8
0
  6
CONTINUOUS
 62
     7
 10
2.1000000000000041
 20
57.055162436902208
 30
0.0
 40
0.1
 50
180.0
 51
270.0
  0
LINE
  5
CC8A
  8
0
  6
CONTINUOUS
 62
     7
 10
3.3026015186501541
 20
57.655172436902397
 30
0.0
 11
4.150580749937979
 21
57.655172436902333
 31
0.0
  0
LINE
  5
CC8B
  8
0
  6
CONTINUOUS
 62
     7
 10
3.374051030983761
 20
60.65516243690233
 30
0.0
 11
4.1505726393285984
 21
60.65516243690233
 31
0.0
  0
ARC
  5
CC8C
  8
0
  6
CONTINUOUS
 62
     7
 10
3.374051030983761
 20
60.75516243690231
 30
0.0
 40
0.1
 50
200.00843839288009
 51
270.0
  0
LINE
  5
CC8D
  8
0
  6
CONTINUOUS
 62
     7
 10
2.3310000000001039
 20
57.930218221671552
 30
0.0
 11
2.3310000000001039
 21
60.755162436902317
 31
0.0
  0
ARC
  5
CC8E
  8
0
  6
CONTINUOUS
 62
     7
 10
2.5310000000001041
 20
60.755162436902317
 30
0.0
 40
0.2
 50
90.0
 51
180.0
  0
LINE
  5
CC8F
  8
0
  6
CONTINUOUS
 62
     7
 10
2.5310000000000081
 20
58.045228206133089
 30
0.0
 11
2.5310000000000081
 21
60.75516243690231
 31
0.0
  0
LINE
  5
CC90
  8
0
  6
CONTINUOUS
 62
     7
 10
2.9310000000000982
 20
60.75516243690231
 30
0.0
 11
2.5310000000000081
 21
60.75516243690231
 31
0.0
  0
LINE
  5
CC91
  8
0
  6
CONTINUOUS
 62
     7
 10
2.5310000000001041
 20
60.955162436902341
 30
0.0
 11
2.9310000000000982
 21
60.955162436902341
 31
0.0
  0
LINE
  5
CC92
  8
0
  6
CONTINUOUS
 62
     7
 10
2.9310000000000982
 20
60.955162436902341
 30
0.0
 11
2.9310000000000982
 21
60.75516243690231
 31
0.0
  0
LINE
  5
CC93
  8
0
  6
CONTINUOUS
 62
     7
 10
2.100000000000001
 20
61.105152436902223
 30
0.0
 11
2.4500100000001082
 21
61.105152436902223
 31
0.0
  0
ARC
  5
CC94
  8
0
  6
CONTINUOUS
 62
     7
 10
2.100000000000001
 20
61.20515243690221
 30
0.0
 40
0.1
 50
180.0
 51
270.0
  0
LINE
  5
CC95
  8
0
  6
CONTINUOUS
 62
     7
 10
2.794847941409544
 20
61.405162436902323
 30
0.0
 11
2.8909189172169749
 21
61.405162436902323
 31
0.0
  0
LINE
  5
CC96
  8
0
  6
CONTINUOUS
 62
     7
 10
3.0788473649452301
 20
61.273594143986472
 30
0.0
 11
3.2800868071196341
 21
60.720946583360238
 31
0.0
  0
ARC
  5
CC97
  8
0
  6
CONTINUOUS
 62
     7
 10
2.8909189172169749
 20
61.205162436902313
 30
0.0
 40
0.2
 50
20.00843839287927
 51
90.0
  0
LINE
  5
CC98
  8
0
  6
CONTINUOUS
 62
     7
 10
2.4500100000001082
 20
61.105152436902223
 30
0.0
 11
2.641585613189112
 21
61.333656245112877
 31
0.0
  0
ARC
  5
CC99
  8
0
  6
CONTINUOUS
 62
     7
 10
2.794847941409544
 20
61.205162436902313
 30
0.0
 40
0.2
 50
90.0
 51
140.0238229718567
  0
LINE
  5
CC9A
  8
0
  6
CONTINUOUS
 62
     7
 10
2.1000000000000041
 20
56.955162436902206
 30
0.0
 11
2.4599983503454181
 21
56.955162436902206
 31
0.0
  0
LINE
  5
CC9B
  8
0
  6
CONTINUOUS
 62
     7
 10
2.4483898142686278
 20
56.969064300269167
 30
0.0
 11
2.6191710284983181
 21
56.764544359929161
 31
0.0
  0
ARC
  5
CC9C
  8
0
  6
CONTINUOUS
 62
     7
 10
2.6019055525814041
 20
57.097255244139177
 30
0.0
 40
0.2
 50
134.99798218773449
 51
219.86304740947531
  0
LINE
  5
CC9D
  8
0
  6
CONTINUOUS
 62
     7
 10
2.6020000000000061
 20
57.380182436902309
 30
0.0
 11
2.743000000000039
 21
57.238182436902392
 31
0.0
  0
LINE
  5
CC9E
  8
0
  6
CONTINUOUS
 62
     7
 10
2.743000000000039
 20
57.238182436902392
 30
0.0
 11
2.6019908661417501
 21
57.097173303044038
 31
0.0
  0
LINE
  5
CC9F
  8
0
  6
CONTINUOUS
 62
     7
 10
3.1810000000000991
 20
57.309326954262929
 30
0.0
 11
3.1810000000000991
 21
57.670228206133167
 31
0.0
  0
LINE
  5
CCA0
  8
0
  6
CONTINUOUS
 62
     7
 10
2.6020000000000061
 20
57.380182436902309
 30
0.0
 11
2.4604891769338431
 21
57.238681580790818
 31
0.0
  0
LINE
  5
CCA1
  8
0
  6
CONTINUOUS
 62
     7
 10
3.1810000000001
 20
57.670228206133167
 30
0.0
 11
2.531000000000009
 21
58.045228206133089
 31
0.0
  0
LINE
  5
CCA2
  8
0
  6
CONTINUOUS
 62
     7
 10
2.9810003039334032
 20
57.554208045853102
 30
0.0
 11
2.3310000000001021
 21
57.930218221671552
 31
0.0
  0
LINE
  5
CCA3
  8
0
  6
CONTINUOUS
 62
     7
 10
2.601990866141747
 20
57.097173303044038
 30
0.0
 11
2.7720627058554141
 21
56.894846459246807
 31
0.0
  0
ARC
  5
CCA4
  8
0
  6
CONTINUOUS
 62
     7
 10
2.8486113329344862
 20
56.959191682008942
 30
0.0
 40
0.1
 50
220.04972776571691
 51
356.89833597012409
  0
LINE
  5
CCA5
  8
0
  6
CONTINUOUS
 62
     7
 10
2.9484648428649769
 20
56.953780900682659
 30
0.0
 11
2.9810003039334032
 21
57.554208045853102
 31
0.0
  0
LINE
  5
CCA6
  8
0
  6
CONTINUOUS
 62
     7
 10
3.1483323394318861
 20
56.931021073725532
 30
0.0
 11
3.2029722841620081
 21
57.563775670905279
 31
0.0
  0
ARC
  5
CCA7
  8
0
  6
CONTINUOUS
 62
     7
 10
2.849444635967481
 20
56.956830775734169
 30
0.0
 40
0.3
 50
219.86304740947531
 51
355.06460892971938
  0
ARC
  5
CCA8
  8
0
  6
CONTINUOUS
 62
     7
 10
3.3026015186501421
 20
57.55517243690241
 30
0.0
 40
0.1
 50
89.999999999994259
 51
175.06460892971941
  0
ARC
  5
CCA9
  8
0
  6
CONTINUOUS
 62
     7
 10
2.3000000000000038
 20
55.355152436902308
 30
0.0
 40
0.3
 50
180.0
 51
270.0
  0
ARC
  5
CCAB
  8
0
  6
CONTINUOUS
 62
     7
 10
9.7000000000000028
 20
62.755152436902392
 30
0.0
 40
0.3
 50
0.0
 51
90.0
  0
ARC
  5
CCAC
  8
0
  6
CONTINUOUS
 62
     7
 10
9.9000000000000021
 20
57.055162436902208
 30
0.0
 40
0.1
 50
270.0
 51
0.0
  0
LINE
  5
CCAD
  8
0
  6
CONTINUOUS
 62
     7
 10
9.7000000000000028
 20
63.055152436902411
 30
0.0
 11
2.300000000000002
 21
63.055152436902411
 31
0.0
  0
LINE
  5
CCAE
  8
0
  6
CONTINUOUS
 62
     7
 10
8.6973984813498522
 20
57.655172436902397
 30
0.0
 11
7.8494192500620219
 21
57.655172436902333
 31
0.0
  0
LINE
  5
CCAF
  8
0
  6
CONTINUOUS
 62
     7
 10
8.6259489690162461
 20
60.65516243690233
 30
0.0
 11
7.849427360671406
 21
60.65516243690233
 31
0.0
  0
ARC
  5
CCB0
  8
0
  6
CONTINUOUS
 62
     7
 10
8.6259489690162461
 20
60.75516243690231
 30
0.0
 40
0.1
 50
270.0
 51
339.99156160711988
  0
CIRCLE
  5
CCB1
  8
0
  6
CONTINUOUS
 62
     7
 10
6.0000000000000009
 20
59.155172436902312
 30
0.0
 40
2.3812500000000001
  0
LINE
  5
CCB2
  8
0
  6
CONTINUOUS
 62
     7
 10
9.6689999999998992
 20
57.930218221671552
 30
0.0
 11
9.6689999999998992
 21
60.755162436902317
 31
0.0
  0
ARC
  5
CCB3
  8
0
  6
CONTINUOUS
 62
     7
 10
9.4689999999998982
 20
60.755162436902317
 30
0.0
 40
0.2
 50
0.0
 51
90.0
  0
LINE
  5
CCB4
  8
0
  6
CONTINUOUS
 62
     7
 10
9.4689999999999976
 20
58.045228206133089
 30
0.0
 11
9.4689999999999976
 21
60.75516243690231
 31
0.0
  0
LINE
  5
CCB5
  8
0
  6
CONTINUOUS
 62
     7
 10
9.0689999999999031
 20
60.75516243690231
 30
0.0
 11
9.4689999999999976
 21
60.75516243690231
 31
0.0
  0
LINE
  5
CCB6
  8
0
  6
CONTINUOUS
 62
     7
 10
9.4689999999998982
 20
60.955162436902341
 30
0.0
 11
9.0689999999999031
 21
60.955162436902341
 31
0.0
  0
LINE
  5
CCB7
  8
0
  6
CONTINUOUS
 62
     7
 10
9.0689999999999031
 20
60.955162436902341
 30
0.0
 11
9.0689999999999031
 21
60.75516243690231
 31
0.0
  0
LINE
  5
CCB8
  8
0
  6
CONTINUOUS
 62
     7
 10
9.9000000000000021
 20
61.105152436902223
 30
0.0
 11
9.5499899999998981
 21
61.105152436902223
 31
0.0
  0
ARC
  5
CCB9
  8
0
  6
CONTINUOUS
 62
     7
 10
9.9000000000000021
 20
61.20515243690221
 30
0.0
 40
0.1
 50
270.0
 51
0.0
  0
LINE
  5
CCBA
  8
0
  6
CONTINUOUS
 62
     7
 10
9.2051520585904605
 20
61.405162436902323
 30
0.0
 11
9.1090810827830317
 21
61.405162436902323
 31
0.0
  0
LINE
  5
CCBB
  8
0
  6
CONTINUOUS
 62
     7
 10
8.9211526350547778
 20
61.273594143986472
 30
0.0
 11
8.7199131928803713
 21
60.720946583360238
 31
0.0
  0
ARC
  5
CCBC
  8
0
  6
CONTINUOUS
 62
     7
 10
9.1090810827830317
 20
61.205162436902313
 30
0.0
 40
0.2
 50
90.0
 51
159.99156160712059
  0
LINE
  5
CCBD
  8
0
  6
CONTINUOUS
 62
     7
 10
9.5499899999998981
 20
61.105152436902223
 30
0.0
 11
9.3584143868108924
 21
61.333656245112877
 31
0.0
  0
ARC
  5
CCBE
  8
0
  6
CONTINUOUS
 62
     7
 10
9.2051520585904605
 20
61.205162436902313
 30
0.0
 40
0.2
 50
39.976177028143312
 51
90.0
  0
LINE
  5
CCBF
  8
0
  6
CONTINUOUS
 62
     7
 10
9.9000000000000021
 20
56.955162436902206
 30
0.0
 11
9.5400016496545881
 21
56.955162436902206
 31
0.0
  0
LINE
  5
CCC0
  8
0
  6
CONTINUOUS
 62
     7
 10
9.5516101857313753
 20
56.969064300269167
 30
0.0
 11
9.3808289715016873
 21
56.764544359929161
 31
0.0
  0
ARC
  5
CCC1
  8
0
  6
CONTINUOUS
 62
     7
 10
9.3980944474186003
 20
57.097255244139177
 30
0.0
 40
0.2
 50
320.13695259052457
 51
45.002017812265493
  0
LINE
  5
CCC2
  8
0
  6
CONTINUOUS
 62
     7
 10
9.3979999999999997
 20
57.380182436902309
 30
0.0
 11
9.2569999999999641
 21
57.238182436902392
 31
0.0
  0
LINE
  5
CCC3
  8
0
  6
CONTINUOUS
 62
     7
 10
9.2569999999999641
 20
57.238182436902392
 30
0.0
 11
9.3980091338582561
 21
57.097173303044038
 31
0.0
  0
LINE
  5
CCC4
  8
0
  6
CONTINUOUS
 62
     7
 10
8.8189999999999031
 20
57.309326954262929
 30
0.0
 11
8.8189999999999031
 21
57.670228206133167
 31
0.0
  0
LINE
  5
CCC5
  8
0
  6
CONTINUOUS
 62
     7
 10
9.3979999999999997
 20
57.380182436902309
 30
0.0
 11
9.5395108230661592
 21
57.238681580790818
 31
0.0
  0
LINE
  5
CCC6
  8
0
  6
CONTINUOUS
 62
     7
 10
8.8189999999999031
 20
57.670228206133167
 30
0.0
 11
9.4689999999999976
 21
58.045228206133089
 31
0.0
  0
LINE
  5
CCC7
  8
0
  6
CONTINUOUS
 62
     7
 10
9.0189996960666043
 20
57.554208045853102
 30
0.0
 11
9.6689999999998992
 21
57.930218221671552
 31
0.0
  0
LINE
  5
CCC8
  8
0
  6
CONTINUOUS
 62
     7
 10
9.3980091338582561
 20
57.097173303044038
 30
0.0
 11
9.2279372941445921
 21
56.894846459246807
 31
0.0
  0
ARC
  5
CCC9
  8
0
  6
CONTINUOUS
 62
     7
 10
9.15138866706552
 20
56.959191682008942
 30
0.0
 40
0.1
 50
183.10166402987591
 51
319.95027223428309
  0
LINE
  5
CCCA
  8
0
  6
CONTINUOUS
 62
     7
 10
9.0515351571350262
 20
56.953780900682659
 30
0.0
 11
9.0189996960666043
 21
57.554208045853102
 31
0.0
  0
LINE
  5
CCCB
  8
0
  6
CONTINUOUS
 62
     7
 10
8.8516676605681202
 20
56.931021073725532
 30
0.0
 11
8.7970277158379933
 21
57.563775670905279
 31
0.0
  0
ARC
  5
CCCC
  8
0
  6
CONTINUOUS
 62
     7
 10
9.1505553640325221
 20
56.956830775734169
 30
0.0
 40
0.3
 50
184.9353910702805
 51
320.13695259052372
  0
ARC
  5
CCCD
  8
0
  6
CONTINUOUS
 62
     7
 10
8.697398481349861
 20
57.55517243690241
 30
0.0
 40
0.1
 50
4.9353910702806081
 51
90.000000000005699
  0
LINE
  5
CCCE
  8
0
  6
CONTINUOUS
 62
     7
 10
9.6999999999999993
 20
55.055152436902333
 30
0.0
 11
2.3000000000000038
 21
55.055152436902333
 31
0.0
  0
ARC
  5
CCCF
  8
0
  6
CONTINUOUS
 62
     7
 10
9.6999999999999993
 20
55.355152436902308
 30
0.0
 40
0.3
 50
270.0
 51
0.0
  0
LINE
  5
CCD2
  8
0
  6
DASHED
 62
     3
 10
0.0000000000000027
 20
38.05515243690229
 30
0.0
 11
15.0
 21
38.05515243690229
 31
0.0
  0
LINE
  5
CCD3
  8
CENTER
  6
CENTER
 62
     1
 10
7.5000000000000027
 20
40.494656803953902
 30
0.0
 11
7.5000000000000027
 21
25.61564806985071
 31
0.0
  0
LINE
  5
CCD4
  8
0
  6
DASHED
 62
     3
 10
4.7500000000000009
 20
38.055152436902318
 30
0.0
 11
4.7500000000000009
 21
28.055152436902318
 31
0.0
  0
LINE
  5
CCD5
  8
0
  6
DASHED
 62
     3
 10
10.25
 20
38.055152436902318
 30
0.0
 11
10.25
 21
28.055152436902318
 31
0.0
  0
CIRCLE
  5
D2E9
  8
0
  6
CONTINUOUS
 62
     7
 10
94.572669983047774
 20
68.05515243690229
 30
0.0
 40
5.0
  0
ENDSEC
  0
EOF
