  0
SECTION
  2
HEADER
  9
$ACADVER
  1
AC1009
  9
$INSBASE
 10
0.0
 20
0.0
 30
0.0
  9
$EXTMIN
 10
146.6416936958536
 20
74.718933681397402
 30
-0.0000000000112498
  9
$EXTMAX
 10
319.25732597787339
 20
197.63763475189651
 30
0.0000000000002956
  9
$LIMMIN
 10
0.0
 20
0.0
  9
$LIMMAX
 10
297.0
 20
210.0
  9
$ORTHOMODE
 70
     1
  9
$REGENMODE
 70
     1
  9
$FILLMODE
 70
     1
  9
$QTEXTMODE
 70
     0
  9
$MIRRTEXT
 70
     1
  9
$DRAGMODE
 70
     2
  9
$LTSCALE
 40
1.0
  9
$OSMODE
 70
    36
  9
$ATTMODE
 70
     1
  9
$TEXTSIZE
 40
6.4000000000000012
  9
$TRACEWID
 40
0.05
  9
$TEXTSTYLE
  7
STANDARD
  9
$CLAYER
  8
0
  9
$CELTYPE
  6
CONTINUOUS
  9
$CECOLOR
 62
     7
  9
$DIMSCALE
 40
1.0
  9
$DIMASZ
 40
3.0
  9
$DIMEXO
 40
1.0
  9
$DIMDLI
 40
0.0
  9
$DIMRND
 40
0.0
  9
$DIMDLE
 40
0.0
  9
$DIMEXE
 40
1.0
  9
$DIMTP
 40
0.0
  9
$DIMTM
 40
0.0
  9
$DIMTXT
 40
3.2000000000000002
  9
$DIMCEN
 40
0.0
  9
$DIMTSZ
 40
0.0
  9
$DIMTOL
 70
     0
  9
$DIMLIM
 70
     0
  9
$DIMTIH
 70
     0
  9
$DIMTOH
 70
     0
  9
$DIMSE1
 70
     0
  9
$DIMSE2
 70
     0
  9
$DIMTAD
 70
     1
  9
$DIMZIN
 70
     8
  9
$DIMBLK
  1

  9
$DIMASO
 70
     1
  9
$DIMSHO
 70
     1
  9
$DIMPOST
  1

  9
$DIMAPOST
  1

  9
$DIMALT
 70
     0
  9
$DIMALTD
 70
     2
  9
$DIMALTF
 40
0.04
  9
$DIMLFAC
 40
1.0
  9
$DIMTOFL
 70
     1
  9
$DIMTVP
 40
1.0
  9
$DIMTIX
 70
     1
  9
$DIMSOXD
 70
     0
  9
$DIMSAH
 70
     0
  9
$DIMBLK1
  1

  9
$DIMBLK2
  1

  9
$DIMSTYLE
  2
MISUMI
  9
$DIMCLRD
 70
     0
  9
$DIMCLRE
 70
     0
  9
$DIMCLRT
 70
     0
  9
$DIMTFAC
 40
0.6
  9
$DIMGAP
 40
1.0
  9
$LUNITS
 70
     2
  9
$LUPREC
 70
     4
  9
$SKETCHINC
 40
0.1
  9
$FILLETRAD
 40
0.3
  9
$AUNITS
 70
     0
  9
$AUPREC
 70
     0
  9
$MENU
  1
acad
  9
$ELEVATION
 40
0.0
  9
$PELEVATION
 40
0.0
  9
$THICKNESS
 40
0.0
  9
$LIMCHECK
 70
     0
  9
$BLIPMODE
 70
     0
  9
$CHAMFERA
 40
0.5
  9
$CHAMFERB
 40
0.5
  9
$SKPOLY
 70
     0
  9
$TDCREATE
 40
2451464.6006649309
  9
$TDUPDATE
 40
2454167.734777824
  9
$TDINDWG
 40
0.3243954977
  9
$TDUSRTIMER
 40
0.3243910995
  9
$USRTIMER
 70
     1
  9
$ANGBASE
 50
0.0
  9
$ANGDIR
 70
     0
  9
$PDMODE
 70
     0
  9
$PDSIZE
 40
0.0
  9
$PLINEWID
 40
0.0
  9
$COORDS
 70
     2
  9
$SPLFRAME
 70
     0
  9
$SPLINETYPE
 70
     6
  9
$SPLINESEGS
 70
     8
  9
$ATTDIA
 70
     0
  9
$ATTREQ
 70
     1
  9
$HANDLING
 70
     1
  9
$HANDSEED
  5
2D23
  9
$SURFTAB1
 70
     6
  9
$SURFTAB2
 70
     6
  9
$SURFTYPE
 70
     6
  9
$SURFU
 70
     6
  9
$SURFV
 70
     6
  9
$UCSNAME
  2

  9
$UCSORG
 10
0.0
 20
0.0
 30
0.0
  9
$UCSXDIR
 10
1.0
 20
0.0
 30
0.0
  9
$UCSYDIR
 10
0.0
 20
1.0
 30
0.0
  9
$PUCSNAME
  2

  9
$PUCSORG
 10
0.0
 20
0.0
 30
0.0
  9
$PUCSXDIR
 10
1.0
 20
0.0
 30
0.0
  9
$PUCSYDIR
 10
0.0
 20
1.0
 30
0.0
  9
$USERI1
 70
     0
  9
$USERI2
 70
     0
  9
$USERI3
 70
     0
  9
$USERI4
 70
     0
  9
$USERI5
 70
     0
  9
$USERR1
 40
0.0
  9
$USERR2
 40
0.0
  9
$USERR3
 40
0.0
  9
$USERR4
 40
0.0
  9
$USERR5
 40
0.0
  9
$WORLDVIEW
 70
     1
  9
$SHADEDGE
 70
     3
  9
$SHADEDIF
 70
    70
  9
$TILEMODE
 70
     1
  9
$MAXACTVP
 70
    16
  9
$PLIMCHECK
 70
     0
  9
$PEXTMIN
 10
1.0000000000000000E+020
 20
1.0000000000000000E+020
 30
1.0000000000000000E+020
  9
$PEXTMAX
 10
-1.0000000000000000E+020
 20
-1.0000000000000000E+020
 30
-1.0000000000000000E+020
  9
$PLIMMIN
 10
0.0
 20
0.0
  9
$PLIMMAX
 10
12.0
 20
9.0
  9
$UNITMODE
 70
     0
  9
$VISRETAIN
 70
     0
  9
$PLINEGEN
 70
     0
  9
$PSLTSCALE
 70
     0
  0
ENDSEC
  0
SECTION
  2
TABLES
  0
TABLE
  2
VPORT
 70
     4
  0
VPORT
  2
*ACTIVE
 70
     0
 10
0.0
 20
0.0
 11
1.0
 21
1.0
 12
232.94950983686351
 22
136.17828421664689
 13
0.0
 23
0.0
 14
10.0
 24
10.0
 15
10.0
 25
10.0
 16
0.0
 26
0.0
 36
1.0
 17
0.0
 27
0.0
 37
0.0
 40
123.83714715570829
 41
1.472568578553616
 42
50.0
 43
0.0
 44
0.0
 50
0.0
 51
0.0
 71
     0
 72
   100
 73
     1
 74
     0
 75
     0
 76
     0
 77
     0
 78
     0
  0
ENDTAB
  0
TABLE
  2
LTYPE
 70
     3
  0
LTYPE
  2
CONTINUOUS
 70
     0
  3
Solid line
 72
    65
 73
     0
 40
0.0
  0
LTYPE
  2
CENTER
 70
     0
  3
Center ____ _ ____ _ ____ _ ____ _ ____ _ ____
 72
    65
 73
     4
 40
2.0
 49
1.25
 49
-0.25
 49
0.25
 49
-0.25
  0
LTYPE
  2
DASHED
 70
     0
  3
Dashed __ __ __ __ __ __ __ __ __ __ __ __ __ _
 72
    65
 73
     2
 40
0.75
 49
0.5
 49
-0.25
  0
ENDTAB
  0
TABLE
  2
LAYER
 70
     3
  0
LAYER
  2
0
 70
     0
 62
     7
  6
CONTINUOUS
  0
LAYER
  2
CENTER
 70
     0
 62
     1
  6
CENTER
  0
LAYER
  2
DEFPOINTS
 70
     0
 62
     7
  6
CONTINUOUS
  0
ENDTAB
  0
TABLE
  2
STYLE
 70
     2
  0
STYLE
  2
STANDARD
 70
     0
 40
0.0
 41
1.0
 50
0.0
 71
     0
 42
6.4000000000000012
  3
txt
  4

  0
ENDTAB
  0
TABLE
  2
VIEW
 70
     0
  0
ENDTAB
  0
TABLE
  2
UCS
 70
     0
  0
ENDTAB
  0
TABLE
  2
APPID
 70
     1
  0
APPID
  2
ACAD
 70
     0
  0
ENDTAB
  0
TABLE
  2
DIMSTYLE
 70
     1
  0
DIMSTYLE
  2
MISUMI
 70
     0
  3

  4

  5

  6

  7

 40
1.0
 41
3.0
 42
1.0
 43
0.0
 44
1.0
 45
0.0
 46
0.0
 47
0.0
 48
0.0
140
3.2000000000000002
141
0.0
142
0.0
143
0.04
144
1.0
145
1.0
146
0.6
147
1.0
 71
     0
 72
     0
 73
     0
 74
     0
 75
     0
 76
     0
 77
     1
 78
     8
170
     0
171
     2
172
     1
173
     0
174
     1
175
     0
176
     0
177
     0
178
     0
  0
ENDTAB
  0
ENDSEC
  0
SECTION
  2
BLOCKS
  0
BLOCK
  8
0
  2
$MODEL_SPACE
 70
     0
 10
0.0
 20
0.0
 30
0.0
  3
$MODEL_SPACE
  1

  0
ENDBLK
  5
2CB9
  8
0
  0
BLOCK
 67
     1
  8
0
  2
$PAPER_SPACE
 70
     0
 10
0.0
 20
0.0
 30
0.0
  3
$PAPER_SPACE
  1

  0
ENDBLK
  5
2CB5
 67
     1
  8
0
  0
BLOCK
  8
0
 62
     7
  2
*U4
 70
     1
 10
0.0
 20
0.0
 30
0.0
  3
*U4
  1

  0
TEXT
  5
2D1C
  8
0
  6
CONTINUOUS
 62
     0
 10
265.28092814065332
 20
190.906352617485
 30
0.0
 40
3.2000000000000002
  1
\U+22055.2
 50
349.3085910445015
  0
ENDBLK
  5
2D1E
  8
0
 62
     7
  0
BLOCK
  8
0
 62
     7
  2
*U5
 70
     1
 10
0.0
 20
0.0
 30
0.0
  3
*U5
  1

  0
TEXT
  5
2D20
  8
0
  6
CONTINUOUS
 62
     0
 10
166.92058497154261
 20
183.1617418482773
 30
0.0
 40
3.2000000000000002
  1
5.5
 50
90.0
  0
ENDBLK
  5
2D22
  8
0
 62
     7
  0
ENDSEC
  0
SECTION
  2
ENTITIES
  0
LINE
  5
2962
  8
0
 10
151.98021558894931
 20
143.3617418482774
 30
0.0
 11
151.98021558894931
 21
181.3617418482774
 31
0.0
  0
LINE
  5
2963
  8
0
 10
181.98021558894919
 20
132.3617418482774
 30
0.0
 11
181.98021558894919
 21
192.3617418482774
 31
0.0
  0
LINE
  5
2964
  8
0
 10
179.13021558894931
 20
145.51174184827741
 30
0.0
 11
179.13021558894931
 21
179.21174184827709
 31
0.0
  0
LINE
  5
2966
  8
0
 10
180.48021558894919
 20
145.51174184827741
 30
0.0
 11
180.48021558894919
 21
179.21174184827709
 31
0.0
  0
LINE
  5
2967
  8
0
 10
154.8302155889493
 20
145.51174184827741
 30
0.0
 11
154.8302155889493
 21
179.21174184827709
 31
0.0
  0
LINE
  5
2969
  8
0
 10
153.48021558894931
 20
145.51174184827741
 30
0.0
 11
153.48021558894931
 21
179.21174184827709
 31
0.0
  0
TEXT
  5
296A
  8
0
 10
146.65209012027751
 20
74.732146705909898
 30
0.0
 40
4.0
  1
BGRB6002
  0
TEXT
  5
296B
  8
0
 10
146.65209012027751
 20
89.732146705909884
 30
0.0
 40
4.0
  1
BGRB 6002ZZ
  0
LINE
  5
296C
  8
0
 10
171.98021558894931
 20
132.3617418482774
 30
0.0
 11
171.98021558894931
 21
143.3617418482774
 31
0.0
  0
LINE
  5
296D
  8
0
 10
176.88021558894931
 20
133.6117418482774
 30
0.0
 11
176.88021558894931
 21
143.1117418482774
 31
0.0
  0
LINE
  5
296E
  8
0
 10
181.98021558894919
 20
132.3617418482774
 30
0.0
 11
171.98021558894931
 21
132.3617418482774
 31
0.0
  0
LINE
  5
296F
  8
0
 10
176.88021558894931
 20
135.6117418482774
 30
0.0
 11
171.98021558894931
 21
135.6117418482774
 31
0.0
  0
LINE
  5
2970
  8
0
 10
181.98021558894919
 20
133.6117418482774
 30
0.0
 11
176.88021558894931
 21
133.6117418482774
 31
0.0
  0
LINE
  5
2971
  8
0
 10
171.98021558894919
 20
143.3617418482774
 30
0.0
 11
151.98021558894931
 21
143.3617418482774
 31
0.0
  0
LINE
  5
2977
  8
CENTER
  6
CENTER
 62
     1
 10
182.98021558894919
 20
162.3617418482774
 30
0.0
 11
150.98021558894931
 21
162.3617418482774
 31
0.0
  0
LINE
  5
297D
  8
0
 10
153.48021558894931
 20
145.51174184827741
 30
0.0
 11
154.8302155889493
 21
145.51174184827741
 31
0.0
  0
LINE
  5
297E
  8
0
 10
153.48021558894931
 20
149.01174184827741
 30
0.0
 11
154.8302155889493
 21
149.01174184827741
 31
0.0
  0
LINE
  5
297F
  8
0
 10
151.98021558894931
 20
146.3617418482774
 30
0.0
 11
153.48021558894931
 21
146.3617418482774
 31
0.0
  0
LINE
  5
29A5
  8
0
 10
176.88021558894931
 20
141.1117418482774
 30
0.0
 11
171.98021558894931
 21
141.1117418482774
 31
0.0
  0
LINE
  5
29A8
  8
CENTER
  6
CENTER
 62
     1
 10
182.98021558894919
 20
138.3617418482774
 30
0.0
 11
170.98021558894931
 21
138.3617418482774
 31
0.0
  0
LINE
  5
29A9
  8
0
 10
170.13021558894931
 20
148.3617418482774
 30
0.0
 11
163.8302155889493
 21
148.3617418482774
 31
0.0
  0
LINE
  5
29AA
  8
0
 10
170.13021558894931
 20
148.3617418482774
 30
0.0
 11
168.13021558894931
 21
148.3617418482774
 31
0.0
  0
LINE
  5
29E4
  8
0
 10
181.98021558894919
 20
143.1117418482774
 30
0.0
 11
176.88021558894931
 21
143.1117418482774
 31
0.0
  0
LINE
  5
29E5
  8
0
 10
180.48021558894919
 20
145.51174184827741
 30
0.0
 11
179.13021558894931
 21
145.51174184827741
 31
0.0
  0
LINE
  5
29E6
  8
0
 10
180.48021558894919
 20
149.01174184827741
 30
0.0
 11
179.13021558894931
 21
149.01174184827741
 31
0.0
  0
LINE
  5
2A09
  8
0
 10
181.98021558894919
 20
146.3617418482774
 30
0.0
 11
180.48021558894919
 21
146.3617418482774
 31
0.0
  0
LINE
  5
2A0E
  8
0
 10
171.98021558894919
 20
181.3617418482774
 30
0.0
 11
151.98021558894931
 21
181.3617418482774
 31
0.0
  0
LINE
  5
2A26
  8
0
 10
153.48021558894931
 20
175.71174184827731
 30
0.0
 11
154.8302155889493
 21
175.71174184827731
 31
0.0
  0
LINE
  5
2A3F
  8
0
 10
153.48021558894931
 20
179.21174184827709
 30
0.0
 11
154.8302155889493
 21
179.21174184827709
 31
0.0
  0
LINE
  5
2A40
  8
0
 10
151.98021558894931
 20
178.3617418482774
 30
0.0
 11
153.48021558894931
 21
178.3617418482774
 31
0.0
  0
LINE
  5
2A41
  8
0
 10
171.98021558894931
 20
192.3617418482774
 30
0.0
 11
171.98021558894931
 21
181.3617418482774
 31
0.0
  0
LINE
  5
2A42
  8
0
 10
176.88021558894931
 20
191.1117418482774
 30
0.0
 11
176.88021558894931
 21
181.61174184827721
 31
0.0
  0
LINE
  5
2A43
  8
0
 10
176.88021558894931
 20
183.61174184827721
 30
0.0
 11
171.98021558894931
 21
183.61174184827721
 31
0.0
  0
LINE
  5
2A49
  8
0
 10
170.13021558894931
 20
176.36174184827721
 30
0.0
 11
163.8302155889493
 21
176.36174184827721
 31
0.0
  0
LINE
  5
2A4A
  8
0
 10
170.13021558894931
 20
176.36174184827721
 30
0.0
 11
168.13021558894931
 21
176.36174184827721
 31
0.0
  0
LINE
  5
2A85
  8
0
 10
180.48021558894919
 20
175.71174184827731
 30
0.0
 11
179.13021558894931
 21
175.71174184827731
 31
0.0
  0
LINE
  5
2AA7
  8
0
 10
181.98021558894919
 20
181.61174184827721
 30
0.0
 11
176.88021558894931
 21
181.61174184827721
 31
0.0
  0
LINE
  5
2AA8
  8
0
 10
180.48021558894919
 20
179.21174184827709
 30
0.0
 11
179.13021558894931
 21
179.21174184827709
 31
0.0
  0
LINE
  5
2AAA
  8
0
 10
181.98021558894919
 20
178.3617418482774
 30
0.0
 11
180.48021558894919
 21
178.3617418482774
 31
0.0
  0
LINE
  5
2AAB
  8
0
 10
181.98021558894919
 20
192.3617418482774
 30
0.0
 11
171.98021558894931
 21
192.3617418482774
 31
0.0
  0
LINE
  5
2AAC
  8
0
 10
176.88021558894931
 20
189.1117418482774
 30
0.0
 11
171.98021558894931
 21
189.1117418482774
 31
0.0
  0
LINE
  5
2AAD
  8
CENTER
  6
CENTER
 62
     1
 10
182.98021558894919
 20
186.3617418482774
 30
0.0
 11
170.98021558894931
 21
186.3617418482774
 31
0.0
  0
LINE
  5
2AAE
  8
0
 10
181.98021558894919
 20
191.1117418482774
 30
0.0
 11
176.88021558894931
 21
191.1117418482774
 31
0.0
  0
LINE
  5
2AAF
  8
0
 10
176.98021558894931
 20
192.3617418482778
 30
0.0
 11
176.98031558894931
 21
192.3617418482778
 31
0.0
  0
LINE
  5
2AB0
  8
0
 10
179.48021558894931
 20
192.3617418482778
 30
0.0
 11
179.48021558894931
 21
192.36184184827749
 31
0.0
  0
CIRCLE
  5
2AB1
  8
0
 10
283.96210885698918
 20
162.3617418482774
 30
0.0
 40
30.0
  0
CIRCLE
  5
2AB2
  8
0
 10
283.96210885698918
 20
162.3617418482774
 30
0.0
 40
16.0
  0
CIRCLE
  5
2AB3
  8
0
 10
283.96210885698918
 20
162.3617418482774
 30
0.0
 40
7.5
  0
LINE
  5
2AB4
  8
CENTER
  6
CENTER
 62
     1
 10
283.96210885698918
 20
197.6346701908648
 30
0.0
 11
283.96210885698918
 21
127.0888135056901
 31
0.0
  0
CIRCLE
  5
2AB5
  8
CENTER
  6
CENTER
 62
     1
 10
283.96210885698918
 20
162.3617418482774
 30
0.0
 40
24.0
  0
LINE
  5
2AB6
  8
CENTER
  6
CENTER
 62
     1
 10
248.68918051440181
 20
162.3617418482774
 30
0.0
 11
319.23503719957682
 21
162.3617418482774
 31
0.0
  0
CIRCLE
  5
2AB7
  8
0
 10
259.9621088569894
 20
162.3617418482774
 30
0.0
 40
4.75
  0
CIRCLE
  5
2ABA
  8
0
 10
283.96210885698918
 20
138.3617418482774
 30
0.0
 40
4.75
  0
CIRCLE
  5
2ABB
  8
0
 10
307.96210885698912
 20
162.3617418482774
 30
0.0
 40
4.75
  0
CIRCLE
  5
2ABD
  8
0
 10
283.96210885698918
 20
186.3617418482774
 30
0.0
 40
4.75
  0
CIRCLE
  5
2ABE
  8
0
 10
283.96210885698918
 20
186.3617418482774
 30
0.0
 40
2.75
  0
LINE
  5
2B5D
  8
0
 10
163.8302155889493
 20
178.06174184827719
 30
0.0
 11
163.8302155889493
 21
146.66174184827719
 31
0.0
  0
CIRCLE
  5
2B61
  8
0
 10
159.3302155889493
 20
150.61174184827709
 30
0.0
 40
2.3812500000000001
  0
LINE
  5
2B62
  8
0
 10
155.26321558894909
 20
149.9287318482771
 30
0.0
 11
155.26321558894909
 21
152.3117518482772
 31
0.0
  0
LINE
  5
2B63
  8
0
 10
155.46321558894931
 20
150.0117118477439
 30
0.0
 11
155.46321558894931
 21
152.3117518482772
 31
0.0
  0
LINE
  5
2B64
  8
0
 10
163.19721558894909
 20
150.0117118477439
 30
0.0
 11
163.19721558894909
 21
152.3117518482772
 31
0.0
  0
LINE
  5
2B65
  8
0
 10
163.39721558894919
 20
149.9287318482771
 30
0.0
 11
163.39721558894919
 21
152.3117518482772
 31
0.0
  0
LINE
  5
2B66
  8
0
 10
163.53021558894929
 20
146.36174184827709
 30
0.0
 11
159.3302155889493
 21
146.36174184827709
 31
0.0
  0
ARC
  5
2B67
  8
0
 10
155.86967143361591
 20
148.3071053578079
 30
0.0
 40
0.3
 50
219.9997789757318
 51
355.00323933542847
  0
LINE
  5
2B68
  8
0
 10
163.53021558894929
 20
146.36174184827709
 30
0.0
 11
155.13021558894931
 21
146.36174184827709
 31
0.0
  0
LINE
  5
2B69
  8
0
 10
156.33280582211731
 20
149.11176184470651
 30
0.0
 11
157.48079558894921
 21
149.11177184827719
 31
0.0
  0
LINE
  5
2B6A
  8
0
 10
156.21321558894931
 20
149.26169184801051
 30
0.0
 11
155.46321558894931
 21
150.0117118477439
 31
0.0
  0
LINE
  5
2B6B
  8
0
 10
156.01322183353179
 20
149.17872560369469
 30
0.0
 11
155.26321558894909
 21
149.9287318482771
 31
0.0
  0
LINE
  5
2B6C
  8
0
 10
155.5682255889493
 20
148.8217818482772
 30
0.0
 11
155.41512614302329
 21
148.69370192221101
 31
0.0
  0
LINE
  5
2B6D
  8
0
 10
155.39024732179089
 20
148.41174594788211
 30
0.0
 11
155.63985735679651
 21
148.1142699614314
 31
0.0
  0
ARC
  5
2B6E
  8
0
 10
154.93021558894941
 20
148.3117618482772
 30
0.0
 40
0.1
 50
90.0
 51
180.0
  0
ARC
  5
2B6F
  8
0
 10
155.54345670633739
 20
148.54030287879971
 30
0.0
 40
0.2
 50
129.91517656587169
 51
219.9997789757318
  0
LINE
  5
2B70
  8
0
 10
154.9302155889493
 20
148.41176184827719
 30
0.0
 11
155.3902155889493
 21
148.41176184827719
 31
0.0
  0
LINE
  5
2B71
  8
0
 10
156.21321558894931
 20
148.79175184827719
 30
0.0
 11
156.21321558894931
 21
149.26169184801051
 31
0.0
  0
LINE
  5
2B72
  8
0
 10
155.9700278707912
 20
148.30177766387689
 30
0.0
 11
156.01322183353179
 21
149.17872560369469
 31
0.0
  0
ARC
  5
2B73
  8
0
 10
156.3328066935164
 20
149.01176184471021
 30
0.0
 40
0.1
 50
90.000499274817088
 51
175.00323933542859
  0
LINE
  5
2B74
  8
0
 10
156.16853132082491
 20
148.28097553160379
 30
0.0
 11
156.23318673111331
 21
149.02047178677839
 31
0.0
  0
ARC
  5
2B75
  8
0
 10
155.87014895266779
 20
148.30669718768451
 30
0.0
 40
0.1
 50
219.9966948947901
 51
357.1801822981223
  0
LINE
  5
2B76
  8
0
 10
155.54322558894921
 20
148.54077184827719
 30
0.0
 11
155.7935408005651
 21
148.24242284574771
 31
0.0
  0
LINE
  5
2B77
  8
0
 10
155.5682255889493
 20
148.8217918482772
 30
0.0
 11
155.69623558894921
 21
148.66879184827729
 31
0.0
  0
LINE
  5
2B78
  8
0
 10
155.69623558894921
 20
148.66878184827721
 30
0.0
 11
155.54322558894921
 21
148.54079184827731
 31
0.0
  0
ARC
  5
2B79
  8
0
 10
162.79075974428281
 20
148.3071053578079
 30
0.0
 40
0.3
 50
184.9967606645713
 51
320.00022102426811
  0
ARC
  5
2B7A
  8
0
 10
162.7902822252309
 20
148.30669718768451
 30
0.0
 40
0.1
 50
182.81981770187761
 51
320.00330510520979
  0
LINE
  5
2B7B
  8
0
 10
162.64720934436679
 20
149.17872560369469
 30
0.0
 11
163.39721558894919
 21
149.9287318482771
 31
0.0
  0
LINE
  5
2B7C
  8
0
 10
162.4472155889494
 20
149.26169184801051
 30
0.0
 11
163.19721558894909
 21
150.0117118477439
 31
0.0
  0
LINE
  5
2B7D
  8
0
 10
162.32762535578109
 20
149.11176184470651
 30
0.0
 11
161.1796355889492
 21
149.11177184827719
 31
0.0
  0
LINE
  5
2B7E
  8
0
 10
162.4918998570738
 20
148.28097553160379
 30
0.0
 11
162.42724444678521
 21
149.02047178677839
 31
0.0
  0
ARC
  5
2B7F
  8
0
 10
162.32762448438231
 20
149.01176184471021
 30
0.0
 40
0.1
 50
4.9967606645713758
 51
89.999500725182912
  0
LINE
  5
2B80
  8
0
 10
162.6904033071074
 20
148.30177766387689
 30
0.0
 11
162.64720934436679
 21
149.17872560369469
 31
0.0
  0
LINE
  5
2B81
  8
0
 10
162.4472155889494
 20
148.79175184827719
 30
0.0
 11
162.4472155889494
 21
149.26169184801051
 31
0.0
  0
LINE
  5
2B82
  8
0
 10
163.73021558894939
 20
148.41176184827719
 30
0.0
 11
163.27021558894921
 21
148.41176184827719
 31
0.0
  0
LINE
  5
2B83
  8
0
 10
162.96419558894931
 20
148.66878184827721
 30
0.0
 11
163.1172055889493
 21
148.54079184827731
 31
0.0
  0
LINE
  5
2B84
  8
0
 10
163.09220558894921
 20
148.8217918482772
 30
0.0
 11
162.96419558894931
 21
148.66879184827729
 31
0.0
  0
LINE
  5
2B85
  8
0
 10
163.27018385610751
 20
148.41174594788211
 30
0.0
 11
163.02057382110209
 21
148.1142699614314
 31
0.0
  0
LINE
  5
2B86
  8
0
 10
163.09220558894921
 20
148.8217818482772
 30
0.0
 11
163.24530503487509
 21
148.69370192221101
 31
0.0
  0
ARC
  5
2B87
  8
0
 10
163.11697447156109
 20
148.54030287879971
 30
0.0
 40
0.2
 50
320.00022102426811
 51
50.084823434127671
  0
LINE
  5
2B88
  8
0
 10
163.1172055889493
 20
148.54077184827719
 30
0.0
 11
162.8668903773335
 21
148.24242284574771
 31
0.0
  0
ARC
  5
2B89
  8
0
 10
163.73021558894939
 20
148.3117618482772
 30
0.0
 40
0.1
 50
0.0
 51
90.0
  0
LINE
  5
2B8B
  8
0
 10
163.53021558894929
 20
154.86174184827721
 30
0.0
 11
159.3302155889493
 21
154.86174184827721
 31
0.0
  0
LINE
  5
2B8C
  8
0
 10
155.13021558894931
 20
154.86174184827721
 30
0.0
 11
159.3302155889493
 21
154.86174184827721
 31
0.0
  0
LINE
  5
2B8D
  8
0
 10
156.46831308219541
 20
152.11174184827721
 30
0.0
 11
157.48079558894921
 21
152.11174184827721
 31
0.0
  0
LINE
  5
2B8E
  8
0
 10
155.3302004193342
 20
152.71176184827709
 30
0.0
 11
155.60583070238991
 21
153.04028925858731
 31
0.0
  0
LINE
  5
2B8F
  8
0
 10
155.46321558894931
 20
152.51175184827721
 30
0.0
 11
155.91321558894921
 21
152.51175184827721
 31
0.0
  0
LINE
  5
2B90
  8
0
 10
155.91321558894921
 20
152.3117518482772
 30
0.0
 11
155.46321558894931
 21
152.3117518482772
 31
0.0
  0
ARC
  5
2B91
  8
0
 10
155.03021558894929
 20
152.91176184827719
 30
0.0
 40
0.2
 50
180.0
 51
270.0
  0
ARC
  5
2B92
  8
0
 10
155.46321558894931
 20
152.3117518482772
 30
0.0
 40
0.2
 50
90.0
 51
180.0
  0
LINE
  5
2B93
  8
0
 10
155.03021558894929
 20
152.71176184827709
 30
0.0
 11
155.3302004193342
 21
152.71176184827709
 31
0.0
  0
ARC
  5
2B94
  8
0
 10
156.46831308219541
 20
152.31174184827719
 30
0.0
 40
0.2
 50
200.0081046789152
 51
270.0
  0
LINE
  5
2B95
  8
0
 10
156.01207063765449
 20
152.98017246078831
 30
0.0
 11
156.28038423589641
 21
152.2433112357661
 31
0.0
  0
ARC
  5
2B96
  8
0
 10
155.82414179135529
 20
152.91174184827719
 30
0.0
 40
0.2
 50
20.008104678915291
 51
90.0
  0
LINE
  5
2B97
  8
0
 10
155.7590480751077
 20
153.11174184827721
 30
0.0
 11
155.82414179135529
 21
153.11174184827721
 31
0.0
  0
ARC
  5
2B98
  8
0
 10
155.7590480751077
 20
152.91174184827719
 30
0.0
 40
0.2
 50
90.0
 51
140.00378135709289
  0
LINE
  5
2B99
  8
0
 10
155.91321558894921
 20
152.51175184827721
 30
0.0
 11
155.91321558894921
 21
152.3117518482772
 31
0.0
  0
LINE
  5
2B9A
  8
0
 10
156.40521558894929
 20
154.86174184827721
 30
0.0
 11
156.40521558894929
 21
154.86184184827721
 31
0.0
  0
LINE
  5
2B9B
  8
0
 10
157.38021558894931
 20
154.86174184827721
 30
0.0
 11
157.38031558894929
 21
154.86174184827721
 31
0.0
  0
ARC
  5
2B9C
  8
0
 10
162.83628938654309
 20
152.91174184827719
 30
0.0
 40
0.2
 50
90.0
 51
159.99189532108471
  0
LINE
  5
2B9D
  8
0
 10
162.19211809570311
 20
152.11174184827721
 30
0.0
 11
161.1796355889492
 21
152.11174184827721
 31
0.0
  0
LINE
  5
2B9E
  8
0
 10
162.64836054024411
 20
152.98017246078831
 30
0.0
 11
162.38004694200239
 21
152.2433112357661
 31
0.0
  0
ARC
  5
2B9F
  8
0
 10
162.19211809570311
 20
152.31174184827719
 30
0.0
 40
0.2
 50
270.0
 51
339.99189532108483
  0
LINE
  5
2BA0
  8
0
 10
162.7472155889493
 20
152.3117518482772
 30
0.0
 11
163.19721558894909
 21
152.3117518482772
 31
0.0
  0
LINE
  5
2BA1
  8
0
 10
162.7472155889493
 20
152.51175184827721
 30
0.0
 11
162.7472155889493
 21
152.3117518482772
 31
0.0
  0
LINE
  5
2BA2
  8
0
 10
163.63021558894931
 20
152.71176184827709
 30
0.0
 11
163.33023075856451
 21
152.71176184827709
 31
0.0
  0
LINE
  5
2BA3
  8
0
 10
163.19721558894909
 20
152.51175184827721
 30
0.0
 11
162.7472155889493
 21
152.51175184827721
 31
0.0
  0
ARC
  5
2BA4
  8
0
 10
163.19721558894909
 20
152.3117518482772
 30
0.0
 40
0.2
 50
0.0
 51
90.0
  0
LINE
  5
2BA5
  8
0
 10
163.33023075856451
 20
152.71176184827709
 30
0.0
 11
163.05460047550861
 21
153.04028925858731
 31
0.0
  0
ARC
  5
2BA6
  8
0
 10
162.90138310279079
 20
152.91174184827719
 30
0.0
 40
0.2
 50
39.996218642906513
 51
90.0
  0
LINE
  5
2BA7
  8
0
 10
162.90138310279079
 20
153.11174184827721
 30
0.0
 11
162.83628938654309
 21
153.11174184827721
 31
0.0
  0
ARC
  5
2BA8
  8
0
 10
163.63021558894931
 20
152.91176184827719
 30
0.0
 40
0.2
 50
270.0
 51
0.0
  0
ARC
  5
2BA9
  8
0
 10
155.86967143361591
 20
176.4163783387466
 30
0.0
 40
0.3
 50
4.9967606645713758
 51
140.000221024268
  0
ARC
  5
2BAA
  8
0
 10
162.79075974428281
 20
176.4163783387466
 30
0.0
 40
0.3
 50
39.999778975731829
 51
175.00323933542859
  0
CIRCLE
  5
2BAB
  8
0
 10
159.3302155889493
 20
174.11174184827721
 30
0.0
 40
2.3812500000000001
  0
LINE
  5
2BAC
  8
0
 10
163.53021558894929
 20
169.86174184827721
 30
0.0
 11
159.3302155889493
 21
169.86174184827721
 31
0.0
  0
LINE
  5
2BAD
  8
0
 10
155.46321558894931
 20
174.71177184881051
 30
0.0
 11
155.46321558894931
 21
172.41173184827721
 31
0.0
  0
LINE
  5
2BAE
  8
0
 10
155.26321558894909
 20
174.7947518482772
 30
0.0
 11
155.26321558894909
 21
172.41173184827721
 31
0.0
  0
ARC
  5
2BAF
  8
0
 10
156.46831308219541
 20
172.41174184827719
 30
0.0
 40
0.2
 50
90.0
 51
159.99189532108471
  0
LINE
  5
2BB0
  8
0
 10
155.13021558894931
 20
169.86174184827721
 30
0.0
 11
159.3302155889493
 21
169.86174184827721
 31
0.0
  0
LINE
  5
2BB1
  8
0
 10
155.91321558894921
 20
172.41173184827721
 30
0.0
 11
155.46321558894931
 21
172.41173184827721
 31
0.0
  0
LINE
  5
2BB2
  8
0
 10
155.46321558894931
 20
172.2117318482772
 30
0.0
 11
155.91321558894921
 21
172.2117318482772
 31
0.0
  0
LINE
  5
2BB3
  8
0
 10
155.3302004193342
 20
172.0117218482772
 30
0.0
 11
155.60583070238991
 21
171.68319443796699
 31
0.0
  0
LINE
  5
2BB4
  8
0
 10
155.03021558894929
 20
172.0117218482772
 30
0.0
 11
155.3302004193342
 21
172.0117218482772
 31
0.0
  0
ARC
  5
2BB5
  8
0
 10
155.46321558894931
 20
172.41173184827721
 30
0.0
 40
0.2
 50
180.0
 51
270.0
  0
ARC
  5
2BB6
  8
0
 10
155.03021558894929
 20
171.81172184827719
 30
0.0
 40
0.2
 50
90.0
 51
180.0
  0
ARC
  5
2BB7
  8
0
 10
155.7590480751077
 20
171.81174184827719
 30
0.0
 40
0.2
 50
219.99621864290651
 51
270.0
  0
LINE
  5
2BB8
  8
0
 10
155.91321558894921
 20
172.2117318482772
 30
0.0
 11
155.91321558894921
 21
172.41173184827721
 31
0.0
  0
LINE
  5
2BB9
  8
0
 10
155.7590480751077
 20
171.61174184827721
 30
0.0
 11
155.82414179135529
 21
171.61174184827721
 31
0.0
  0
ARC
  5
2BBA
  8
0
 10
155.82414179135529
 20
171.81174184827719
 30
0.0
 40
0.2
 50
270.0
 51
339.99189532108483
  0
LINE
  5
2BBB
  8
0
 10
156.01207063765449
 20
171.74331123576599
 30
0.0
 11
156.28038423589641
 21
172.48017246078831
 31
0.0
  0
LINE
  5
2BBC
  8
0
 10
156.33280582211731
 20
175.6117218518479
 30
0.0
 11
157.48079558894921
 21
175.6117118482772
 31
0.0
  0
LINE
  5
2BBD
  8
0
 10
156.46831308219541
 20
172.61174184827721
 30
0.0
 11
157.48079558894921
 21
172.61174184827721
 31
0.0
  0
LINE
  5
2BBE
  8
0
 10
155.39024732179089
 20
176.3117377486723
 30
0.0
 11
155.63985735679651
 21
176.60921373512281
 31
0.0
  0
LINE
  5
2BBF
  8
0
 10
155.5682255889493
 20
175.90170184827721
 30
0.0
 11
155.41512614302329
 21
176.02978177434341
 31
0.0
  0
LINE
  5
2BC0
  8
0
 10
156.01322183353179
 20
175.54475809285969
 30
0.0
 11
155.26321558894909
 21
174.7947518482772
 31
0.0
  0
LINE
  5
2BC1
  8
0
 10
156.21321558894931
 20
175.4617918485439
 30
0.0
 11
155.46321558894931
 21
174.71177184881051
 31
0.0
  0
LINE
  5
2BC2
  8
0
 10
154.9302155889493
 20
176.31172184827719
 30
0.0
 11
155.3902155889493
 21
176.31172184827719
 31
0.0
  0
ARC
  5
2BC3
  8
0
 10
155.54345670633739
 20
176.1831808177547
 30
0.0
 40
0.2
 50
140.000221024268
 51
230.08482343412771
  0
ARC
  5
2BC4
  8
0
 10
154.93021558894941
 20
176.41172184827721
 30
0.0
 40
0.1
 50
180.0
 51
270.0
  0
ARC
  5
2BC5
  8
0
 10
156.3328066935164
 20
175.71172185184409
 30
0.0
 40
0.1
 50
184.9967606645713
 51
269.99950072518283
  0
LINE
  5
2BC6
  8
0
 10
155.9700278707912
 20
176.4217060326776
 30
0.0
 11
156.01322183353179
 21
175.54475809285969
 31
0.0
  0
LINE
  5
2BC7
  8
0
 10
156.21321558894931
 20
175.93173184827731
 30
0.0
 11
156.21321558894931
 21
175.4617918485439
 31
0.0
  0
LINE
  5
2BC8
  8
0
 10
155.69623558894921
 20
176.0547018482772
 30
0.0
 11
155.54322558894921
 21
176.18269184827719
 31
0.0
  0
LINE
  5
2BC9
  8
0
 10
155.5682255889493
 20
175.90169184827721
 30
0.0
 11
155.69623558894921
 21
176.0546918482772
 31
0.0
  0
LINE
  5
2BCA
  8
0
 10
155.54322558894921
 20
176.18271184827719
 30
0.0
 11
155.7935408005651
 21
176.4810608508067
 31
0.0
  0
ARC
  5
2BCB
  8
0
 10
155.87014895266779
 20
176.4167865088699
 30
0.0
 40
0.1
 50
2.819817701877612
 51
140.00330510520979
  0
LINE
  5
2BCC
  8
0
 10
156.16853132082491
 20
176.4425081649506
 30
0.0
 11
156.23318673111331
 21
175.70301190977611
 31
0.0
  0
ARC
  5
2BCD
  8
0
 10
162.19211809570311
 20
172.41174184827719
 30
0.0
 40
0.2
 50
20.008104678915291
 51
90.0
  0
LINE
  5
2BCE
  8
0
 10
163.39721558894919
 20
174.7947518482772
 30
0.0
 11
163.39721558894919
 21
172.41173184827721
 31
0.0
  0
LINE
  5
2BCF
  8
0
 10
163.19721558894909
 20
174.71177184881051
 30
0.0
 11
163.19721558894909
 21
172.41173184827721
 31
0.0
  0
ARC
  5
2BD0
  8
0
 10
162.83628938654309
 20
171.81174184827719
 30
0.0
 40
0.2
 50
200.0081046789152
 51
270.0
  0
LINE
  5
2BD1
  8
0
 10
162.64836054024411
 20
171.74331123576599
 30
0.0
 11
162.38004694200239
 21
172.48017246078831
 31
0.0
  0
LINE
  5
2BD2
  8
0
 10
163.19721558894909
 20
172.2117318482772
 30
0.0
 11
162.7472155889493
 21
172.2117318482772
 31
0.0
  0
LINE
  5
2BD3
  8
0
 10
162.7472155889493
 20
172.41173184827721
 30
0.0
 11
163.19721558894909
 21
172.41173184827721
 31
0.0
  0
LINE
  5
2BD4
  8
0
 10
162.7472155889493
 20
172.2117318482772
 30
0.0
 11
162.7472155889493
 21
172.41173184827721
 31
0.0
  0
ARC
  5
2BD5
  8
0
 10
163.63021558894931
 20
171.81172184827719
 30
0.0
 40
0.2
 50
0.0
 51
90.0
  0
LINE
  5
2BD6
  8
0
 10
162.90138310279079
 20
171.61174184827721
 30
0.0
 11
162.83628938654309
 21
171.61174184827721
 31
0.0
  0
ARC
  5
2BD7
  8
0
 10
162.90138310279079
 20
171.81174184827719
 30
0.0
 40
0.2
 50
270.0
 51
320.00378135709349
  0
LINE
  5
2BD8
  8
0
 10
163.33023075856451
 20
172.0117218482772
 30
0.0
 11
163.05460047550861
 21
171.68319443796699
 31
0.0
  0
ARC
  5
2BD9
  8
0
 10
163.19721558894909
 20
172.41173184827721
 30
0.0
 40
0.2
 50
270.0
 51
0.0
  0
LINE
  5
2BDA
  8
0
 10
163.63021558894931
 20
172.0117218482772
 30
0.0
 11
163.33023075856451
 21
172.0117218482772
 31
0.0
  0
ARC
  5
2BDB
  8
0
 10
162.7902822252309
 20
176.4167865088699
 30
0.0
 40
0.1
 50
39.99669489479011
 51
177.18018229812239
  0
LINE
  5
2BDC
  8
0
 10
162.4472155889494
 20
175.4617918485439
 30
0.0
 11
163.19721558894909
 21
174.71177184881051
 31
0.0
  0
LINE
  5
2BDD
  8
0
 10
162.64720934436679
 20
175.54475809285969
 30
0.0
 11
163.39721558894919
 21
174.7947518482772
 31
0.0
  0
LINE
  5
2BDE
  8
0
 10
162.19211809570311
 20
172.61174184827721
 30
0.0
 11
161.1796355889492
 21
172.61174184827721
 31
0.0
  0
LINE
  5
2BDF
  8
0
 10
162.32762535578109
 20
175.6117218518479
 30
0.0
 11
161.1796355889492
 21
175.6117118482772
 31
0.0
  0
LINE
  5
2BE0
  8
0
 10
162.4472155889494
 20
175.93173184827731
 30
0.0
 11
162.4472155889494
 21
175.4617918485439
 31
0.0
  0
LINE
  5
2BE1
  8
0
 10
162.6904033071074
 20
176.4217060326776
 30
0.0
 11
162.64720934436679
 21
175.54475809285969
 31
0.0
  0
ARC
  5
2BE2
  8
0
 10
162.32762448438231
 20
175.71172185184409
 30
0.0
 40
0.1
 50
270.000499274817
 51
355.00323933542847
  0
LINE
  5
2BE3
  8
0
 10
162.4918998570738
 20
176.4425081649506
 30
0.0
 11
162.42724444678521
 21
175.70301190977611
 31
0.0
  0
ARC
  5
2BE4
  8
0
 10
163.73021558894939
 20
176.41172184827721
 30
0.0
 40
0.1
 50
270.0
 51
0.0
  0
LINE
  5
2BE5
  8
0
 10
163.1172055889493
 20
176.18271184827719
 30
0.0
 11
162.8668903773335
 21
176.4810608508067
 31
0.0
  0
ARC
  5
2BE6
  8
0
 10
163.11697447156109
 20
176.1831808177547
 30
0.0
 40
0.2
 50
309.91517656587229
 51
39.999778975731829
  0
LINE
  5
2BE7
  8
0
 10
163.09220558894921
 20
175.90170184827721
 30
0.0
 11
163.24530503487509
 21
176.02978177434341
 31
0.0
  0
LINE
  5
2BE8
  8
0
 10
163.27018385610751
 20
176.3117377486723
 30
0.0
 11
163.02057382110209
 21
176.60921373512281
 31
0.0
  0
LINE
  5
2BE9
  8
0
 10
163.09220558894921
 20
175.90169184827721
 30
0.0
 11
162.96419558894931
 21
176.0546918482772
 31
0.0
  0
LINE
  5
2BEA
  8
0
 10
162.96419558894931
 20
176.0547018482772
 30
0.0
 11
163.1172055889493
 21
176.18269184827719
 31
0.0
  0
LINE
  5
2BEB
  8
0
 10
163.73021558894939
 20
176.31172184827719
 30
0.0
 11
163.27021558894921
 21
176.31172184827719
 31
0.0
  0
LINE
  5
2BEC
  8
0
 10
163.53021558894929
 20
178.36174184827721
 30
0.0
 11
159.3302155889493
 21
178.36174184827721
 31
0.0
  0
LINE
  5
2BED
  8
0
 10
159.3302155889493
 20
178.36174184827721
 30
0.0
 11
155.13021558894931
 21
178.36174184827721
 31
0.0
  0
ARC
  5
2BEE
  8
0
 10
155.13021558894931
 20
178.06174184827719
 30
0.0
 40
0.3
 50
90.0
 51
180.0
  0
ARC
  5
2BEF
  8
0
 10
163.53021558894929
 20
178.06174184827719
 30
0.0
 40
0.3
 50
0.0
 51
90.0
  0
ARC
  5
2BF0
  8
0
 10
163.53021558894929
 20
170.16174184827719
 30
0.0
 40
0.3
 50
270.0
 51
0.0
  0
ARC
  5
2BF1
  8
0
 10
155.13021558894931
 20
170.16174184827719
 30
0.0
 40
0.3
 50
180.0
 51
270.0
  0
ARC
  5
2BF2
  8
0
 10
155.13021558894931
 20
146.66174184827719
 30
0.0
 40
0.3
 50
180.0
 51
270.0
  0
ARC
  5
2BF3
  8
0
 10
163.53021558894929
 20
146.66174184827719
 30
0.0
 40
0.3
 50
270.0
 51
0.0
  0
ARC
  5
2BF4
  8
0
 10
163.53021558894929
 20
154.56174184827719
 30
0.0
 40
0.3
 50
0.0
 51
90.0
  0
ARC
  5
2BF5
  8
0
 10
155.13021558894931
 20
154.56174184827719
 30
0.0
 40
0.3
 50
90.0
 51
180.0
  0
LINE
  5
2BF6
  8
0
 10
178.83021558894919
 20
178.36174184827729
 30
0.0
 11
174.6302155889492
 21
178.36174184827729
 31
0.0
  0
LINE
  5
2BF7
  8
0
 10
178.83021558894919
 20
169.86174184827729
 30
0.0
 11
174.6302155889492
 21
169.86174184827729
 31
0.0
  0
LINE
  5
2BF8
  8
0
 10
178.83021558894919
 20
154.86174184827729
 30
0.0
 11
174.6302155889492
 21
154.86174184827729
 31
0.0
  0
LINE
  5
2BF9
  8
0
 10
178.83021558894919
 20
146.3617418482774
 30
0.0
 11
174.6302155889492
 21
146.3617418482774
 31
0.0
  0
LINE
  5
2BFA
  8
0
 10
178.83021558894919
 20
146.3617418482774
 30
0.0
 11
170.4302155889491
 21
146.3617418482774
 31
0.0
  0
CIRCLE
  5
2BFB
  8
0
 10
174.6302155889492
 20
150.61174184827729
 30
0.0
 40
2.3812500000000001
  0
CIRCLE
  5
2BFC
  8
0
 10
174.6302155889492
 20
174.11174184827729
 30
0.0
 40
2.3812500000000001
  0
LINE
  5
2BFD
  8
0
 10
170.1302155889492
 20
178.06174184827731
 30
0.0
 11
170.1302155889492
 21
146.66174184827739
 31
0.0
  0
LINE
  5
2BFE
  8
0
 10
170.56321558894919
 20
149.92873184827729
 30
0.0
 11
170.56321558894919
 21
152.31175184827731
 31
0.0
  0
LINE
  5
2BFF
  8
0
 10
170.76321558894909
 20
150.01171184774401
 30
0.0
 11
170.76321558894909
 21
152.31175184827731
 31
0.0
  0
LINE
  5
2C00
  8
0
 10
171.63280582211729
 20
149.11176184470659
 30
0.0
 11
172.78079558894899
 21
149.1117718482773
 31
0.0
  0
ARC
  5
2C01
  8
0
 10
171.1696714336158
 20
148.30710535780801
 30
0.0
 40
0.3
 50
219.9997789757318
 51
355.00323933542847
  0
LINE
  5
2C02
  8
0
 10
171.51321558894921
 20
149.2616918480106
 30
0.0
 11
170.76321558894909
 21
150.01171184774401
 31
0.0
  0
LINE
  5
2C03
  8
0
 10
171.31322183353171
 20
149.1787256036948
 30
0.0
 11
170.56321558894919
 21
149.92873184827729
 31
0.0
  0
LINE
  5
2C04
  8
0
 10
170.8682255889492
 20
148.82178184827731
 30
0.0
 11
170.7151261430231
 21
148.69370192221109
 31
0.0
  0
LINE
  5
2C05
  8
0
 10
170.69024732179079
 20
148.4117459478822
 30
0.0
 11
170.93985735679641
 21
148.1142699614316
 31
0.0
  0
ARC
  5
2C06
  8
0
 10
170.84345670633729
 20
148.54030287879979
 30
0.0
 40
0.2
 50
129.91517656587169
 51
219.9997789757318
  0
LINE
  5
2C07
  8
0
 10
171.51321558894921
 20
148.7917518482773
 30
0.0
 11
171.51321558894921
 21
149.2616918480106
 31
0.0
  0
LINE
  5
2C08
  8
0
 10
171.2700278707911
 20
148.301777663877
 30
0.0
 11
171.31322183353171
 21
149.1787256036948
 31
0.0
  0
ARC
  5
2C09
  8
0
 10
171.6328066935163
 20
149.01176184471041
 30
0.0
 40
0.1
 50
90.000499274817088
 51
175.00323933542859
  0
LINE
  5
2C0A
  8
0
 10
171.46853132082481
 20
148.2809755316039
 30
0.0
 11
171.53318673111329
 21
149.0204717867785
 31
0.0
  0
ARC
  5
2C0B
  8
0
 10
171.17014895266769
 20
148.30669718768459
 30
0.0
 40
0.1
 50
219.9966948947901
 51
357.1801822981223
  0
LINE
  5
2C0C
  8
0
 10
170.84322558894911
 20
148.5407718482773
 30
0.0
 11
171.09354080056499
 21
148.2424228457478
 31
0.0
  0
LINE
  5
2C0D
  8
0
 10
170.8682255889492
 20
148.82179184827729
 30
0.0
 11
170.99623558894911
 21
148.66879184827741
 31
0.0
  0
LINE
  5
2C0E
  8
0
 10
170.99623558894911
 20
148.66878184827729
 30
0.0
 11
170.84322558894911
 21
148.54079184827739
 31
0.0
  0
ARC
  5
2C0F
  8
0
 10
170.23021558894931
 20
148.3117618482774
 30
0.0
 40
0.1
 50
90.0
 51
180.0
  0
LINE
  5
2C10
  8
0
 10
170.23021558894919
 20
148.41176184827731
 30
0.0
 11
170.69021558894909
 21
148.41176184827731
 31
0.0
  0
ARC
  5
2C11
  8
0
 10
170.4302155889491
 20
146.66174184827739
 30
0.0
 40
0.3
 50
180.0
 51
270.0
  0
LINE
  5
2C12
  8
0
 10
171.76831308219531
 20
152.11174184827729
 30
0.0
 11
172.78079558894899
 21
152.11174184827729
 31
0.0
  0
LINE
  5
2C13
  8
0
 10
170.63020041933399
 20
152.71176184827729
 30
0.0
 11
170.90583070238981
 21
153.04028925858739
 31
0.0
  0
LINE
  5
2C14
  8
0
 10
170.76321558894909
 20
152.5117518482773
 30
0.0
 11
171.21321558894911
 21
152.5117518482773
 31
0.0
  0
LINE
  5
2C15
  8
0
 10
171.21321558894911
 20
152.31175184827731
 30
0.0
 11
170.76321558894909
 21
152.31175184827731
 31
0.0
  0
ARC
  5
2C16
  8
0
 10
170.76321558894909
 20
152.31175184827731
 30
0.0
 40
0.2
 50
90.0
 51
180.0
  0
ARC
  5
2C17
  8
0
 10
171.76831308219531
 20
152.31174184827731
 30
0.0
 40
0.2
 50
200.0081046789152
 51
270.0
  0
LINE
  5
2C18
  8
0
 10
171.31207063765439
 20
152.9801724607884
 30
0.0
 11
171.5803842358963
 21
152.24331123576621
 31
0.0
  0
ARC
  5
2C19
  8
0
 10
171.12414179135521
 20
152.9117418482773
 30
0.0
 40
0.2
 50
20.008104678915291
 51
90.0
  0
LINE
  5
2C1A
  8
0
 10
171.05904807510771
 20
153.11174184827729
 30
0.0
 11
171.12414179135521
 21
153.11174184827729
 31
0.0
  0
ARC
  5
2C1B
  8
0
 10
171.05904807510771
 20
152.9117418482773
 30
0.0
 40
0.2
 50
90.0
 51
140.00378135709289
  0
LINE
  5
2C1C
  8
0
 10
171.21321558894911
 20
152.5117518482773
 30
0.0
 11
171.21321558894911
 21
152.31175184827731
 31
0.0
  0
ARC
  5
2C1D
  8
0
 10
170.33021558894919
 20
152.91176184827731
 30
0.0
 40
0.2
 50
180.0
 51
270.0
  0
LINE
  5
2C1E
  8
0
 10
170.33021558894919
 20
152.71176184827729
 30
0.0
 11
170.63020041933399
 21
152.71176184827729
 31
0.0
  0
LINE
  5
2C1F
  8
0
 10
170.4302155889491
 20
154.86174184827729
 30
0.0
 11
174.6302155889492
 21
154.86174184827729
 31
0.0
  0
LINE
  5
2C20
  8
0
 10
171.70521558894919
 20
154.86174184827729
 30
0.0
 11
171.70521558894919
 21
154.86184184827729
 31
0.0
  0
ARC
  5
2C21
  8
0
 10
170.4302155889491
 20
154.56174184827731
 30
0.0
 40
0.3
 50
90.0
 51
180.0
  0
LINE
  5
2C22
  8
0
 10
172.68021558894921
 20
154.86174184827729
 30
0.0
 11
172.68031558894921
 21
154.86174184827729
 31
0.0
  0
LINE
  5
2C23
  8
0
 10
170.4302155889491
 20
169.86174184827729
 30
0.0
 11
174.6302155889492
 21
169.86174184827729
 31
0.0
  0
ARC
  5
2C24
  8
0
 10
170.4302155889491
 20
170.1617418482773
 30
0.0
 40
0.3
 50
180.0
 51
270.0
  0
LINE
  5
2C25
  8
0
 10
170.56321558894919
 20
174.79475184827729
 30
0.0
 11
170.56321558894919
 21
172.4117318482773
 31
0.0
  0
LINE
  5
2C26
  8
0
 10
171.51321558894921
 20
175.46179184854401
 30
0.0
 11
170.76321558894909
 21
174.71177184881071
 31
0.0
  0
LINE
  5
2C27
  8
0
 10
171.76831308219531
 20
172.61174184827729
 30
0.0
 11
172.78079558894899
 21
172.61174184827729
 31
0.0
  0
LINE
  5
2C28
  8
0
 10
170.76321558894909
 20
174.71177184881071
 30
0.0
 11
170.76321558894909
 21
172.4117318482773
 31
0.0
  0
ARC
  5
2C29
  8
0
 10
171.76831308219531
 20
172.4117418482773
 30
0.0
 40
0.2
 50
90.0
 51
159.99189532108471
  0
LINE
  5
2C2A
  8
0
 10
171.21321558894911
 20
172.4117318482773
 30
0.0
 11
170.76321558894909
 21
172.4117318482773
 31
0.0
  0
LINE
  5
2C2B
  8
0
 10
170.76321558894909
 20
172.21173184827731
 30
0.0
 11
171.21321558894911
 21
172.21173184827731
 31
0.0
  0
LINE
  5
2C2C
  8
0
 10
170.63020041933399
 20
172.01172184827729
 30
0.0
 11
170.90583070238981
 21
171.68319443796719
 31
0.0
  0
ARC
  5
2C2D
  8
0
 10
170.76321558894909
 20
172.4117318482773
 30
0.0
 40
0.2
 50
180.0
 51
270.0
  0
ARC
  5
2C2E
  8
0
 10
171.05904807510771
 20
171.81174184827731
 30
0.0
 40
0.2
 50
219.99621864290651
 51
270.0
  0
LINE
  5
2C2F
  8
0
 10
171.21321558894911
 20
172.21173184827731
 30
0.0
 11
171.21321558894911
 21
172.4117318482773
 31
0.0
  0
LINE
  5
2C30
  8
0
 10
171.05904807510771
 20
171.61174184827729
 30
0.0
 11
171.12414179135521
 21
171.61174184827729
 31
0.0
  0
ARC
  5
2C31
  8
0
 10
171.12414179135521
 20
171.81174184827731
 30
0.0
 40
0.2
 50
270.0
 51
339.99189532108483
  0
LINE
  5
2C32
  8
0
 10
171.31207063765439
 20
171.7433112357661
 30
0.0
 11
171.5803842358963
 21
172.4801724607884
 31
0.0
  0
ARC
  5
2C33
  8
0
 10
170.33021558894919
 20
171.8117218482773
 30
0.0
 40
0.2
 50
90.0
 51
180.0
  0
LINE
  5
2C34
  8
0
 10
170.33021558894919
 20
172.01172184827729
 30
0.0
 11
170.63020041933399
 21
172.01172184827729
 31
0.0
  0
LINE
  5
2C35
  8
0
 10
171.63280582211729
 20
175.61172185184799
 30
0.0
 11
172.78079558894899
 21
175.61171184827731
 31
0.0
  0
LINE
  5
2C36
  8
0
 10
174.6302155889492
 20
178.36174184827729
 30
0.0
 11
170.4302155889491
 21
178.36174184827729
 31
0.0
  0
ARC
  5
2C37
  8
0
 10
171.1696714336158
 20
176.41637833874671
 30
0.0
 40
0.3
 50
4.9967606645713758
 51
140.000221024268
  0
LINE
  5
2C38
  8
0
 10
170.69024732179079
 20
176.31173774867241
 30
0.0
 11
170.93985735679641
 21
176.60921373512289
 31
0.0
  0
LINE
  5
2C39
  8
0
 10
170.8682255889492
 20
175.9017018482773
 30
0.0
 11
170.7151261430231
 21
176.02978177434349
 31
0.0
  0
ARC
  5
2C3A
  8
0
 10
170.84345670633729
 20
176.18318081775479
 30
0.0
 40
0.2
 50
140.000221024268
 51
230.08482343412771
  0
ARC
  5
2C3B
  8
0
 10
171.6328066935163
 20
175.7117218518442
 30
0.0
 40
0.1
 50
184.9967606645713
 51
269.99950072518283
  0
LINE
  5
2C3C
  8
0
 10
171.2700278707911
 20
176.42170603267769
 30
0.0
 11
171.31322183353171
 21
175.54475809285981
 31
0.0
  0
LINE
  5
2C3D
  8
0
 10
171.51321558894921
 20
175.93173184827739
 30
0.0
 11
171.51321558894921
 21
175.46179184854401
 31
0.0
  0
LINE
  5
2C3E
  8
0
 10
170.99623558894911
 20
176.05470184827729
 30
0.0
 11
170.84322558894911
 21
176.1826918482773
 31
0.0
  0
LINE
  5
2C3F
  8
0
 10
170.8682255889492
 20
175.9016918482773
 30
0.0
 11
170.99623558894911
 21
176.05469184827729
 31
0.0
  0
LINE
  5
2C40
  8
0
 10
170.84322558894911
 20
176.18271184827739
 30
0.0
 11
171.09354080056499
 21
176.4810608508069
 31
0.0
  0
ARC
  5
2C41
  8
0
 10
171.17014895266769
 20
176.41678650886999
 30
0.0
 40
0.1
 50
2.819817701877612
 51
140.00330510520979
  0
LINE
  5
2C42
  8
0
 10
171.46853132082481
 20
176.44250816495071
 30
0.0
 11
171.53318673111329
 21
175.70301190977619
 31
0.0
  0
ARC
  5
2C43
  8
0
 10
170.23021558894931
 20
176.4117218482773
 30
0.0
 40
0.1
 50
180.0
 51
270.0
  0
LINE
  5
2C44
  8
0
 10
170.23021558894919
 20
176.3117218482773
 30
0.0
 11
170.69021558894909
 21
176.3117218482773
 31
0.0
  0
ARC
  5
2C45
  8
0
 10
170.4302155889491
 20
178.06174184827731
 30
0.0
 40
0.3
 50
90.0
 51
180.0
  0
LINE
  5
2C46
  8
0
 10
171.31322183353171
 20
175.54475809285981
 30
0.0
 11
170.56321558894919
 21
174.79475184827729
 31
0.0
  0
LINE
  5
2C48
  8
0
 10
178.49721558894919
 20
150.01171184774401
 30
0.0
 11
178.49721558894919
 21
152.31175184827731
 31
0.0
  0
LINE
  5
2C49
  8
0
 10
178.69721558894909
 20
149.92873184827729
 30
0.0
 11
178.69721558894909
 21
152.31175184827731
 31
0.0
  0
ARC
  5
2C4A
  8
0
 10
178.09075974428271
 20
148.30710535780801
 30
0.0
 40
0.3
 50
184.9967606645713
 51
320.00022102426811
  0
ARC
  5
2C4B
  8
0
 10
178.09028222523079
 20
148.30669718768459
 30
0.0
 40
0.1
 50
182.81981770187761
 51
320.00330510520979
  0
LINE
  5
2C4C
  8
0
 10
177.94720934436671
 20
149.1787256036948
 30
0.0
 11
178.69721558894909
 21
149.92873184827729
 31
0.0
  0
LINE
  5
2C4D
  8
0
 10
177.7472155889493
 20
149.2616918480106
 30
0.0
 11
178.49721558894919
 21
150.01171184774401
 31
0.0
  0
LINE
  5
2C4E
  8
0
 10
177.7918998570737
 20
148.2809755316039
 30
0.0
 11
177.72724444678511
 21
149.0204717867785
 31
0.0
  0
ARC
  5
2C4F
  8
0
 10
177.62762448438221
 20
149.01176184471041
 30
0.0
 40
0.1
 50
4.9967606645713758
 51
89.999500725182912
  0
LINE
  5
2C50
  8
0
 10
177.9904033071073
 20
148.301777663877
 30
0.0
 11
177.94720934436671
 21
149.1787256036948
 31
0.0
  0
LINE
  5
2C51
  8
0
 10
177.7472155889493
 20
148.7917518482773
 30
0.0
 11
177.7472155889493
 21
149.2616918480106
 31
0.0
  0
LINE
  5
2C52
  8
0
 10
177.62762535578111
 20
149.11176184470659
 30
0.0
 11
176.47963558894921
 21
149.1117718482773
 31
0.0
  0
LINE
  5
2C53
  8
0
 10
179.03021558894929
 20
148.41176184827731
 30
0.0
 11
178.5702155889492
 21
148.41176184827731
 31
0.0
  0
LINE
  5
2C54
  8
0
 10
178.26419558894921
 20
148.66878184827729
 30
0.0
 11
178.4172055889492
 21
148.54079184827739
 31
0.0
  0
LINE
  5
2C55
  8
0
 10
178.39220558894911
 20
148.82179184827729
 30
0.0
 11
178.26419558894921
 21
148.66879184827741
 31
0.0
  0
LINE
  5
2C56
  8
0
 10
178.57018385610749
 20
148.4117459478822
 30
0.0
 11
178.3205738211021
 21
148.1142699614316
 31
0.0
  0
LINE
  5
2C57
  8
0
 10
178.39220558894911
 20
148.82178184827731
 30
0.0
 11
178.54530503487521
 21
148.69370192221109
 31
0.0
  0
ARC
  5
2C58
  8
0
 10
178.41697447156119
 20
148.54030287879979
 30
0.0
 40
0.2
 50
320.00022102426811
 51
50.084823434127671
  0
LINE
  5
2C59
  8
0
 10
178.4172055889492
 20
148.5407718482773
 30
0.0
 11
178.1668903773334
 21
148.2424228457478
 31
0.0
  0
ARC
  5
2C5A
  8
0
 10
179.03021558894929
 20
148.3117618482774
 30
0.0
 40
0.1
 50
0.0
 51
90.0
  0
ARC
  5
2C5B
  8
0
 10
178.83021558894919
 20
146.66174184827739
 30
0.0
 40
0.3
 50
270.0
 51
0.0
  0
ARC
  5
2C5C
  8
0
 10
178.13628938654321
 20
152.9117418482773
 30
0.0
 40
0.2
 50
90.0
 51
159.99189532108471
  0
LINE
  5
2C5D
  8
0
 10
177.9483605402441
 20
152.9801724607884
 30
0.0
 11
177.68004694200229
 21
152.24331123576621
 31
0.0
  0
ARC
  5
2C5E
  8
0
 10
177.49211809570301
 20
152.31174184827731
 30
0.0
 40
0.2
 50
270.0
 51
339.99189532108483
  0
LINE
  5
2C5F
  8
0
 10
177.49211809570301
 20
152.11174184827729
 30
0.0
 11
176.47963558894921
 21
152.11174184827729
 31
0.0
  0
LINE
  5
2C60
  8
0
 10
178.0472155889492
 20
152.31175184827731
 30
0.0
 11
178.49721558894919
 21
152.31175184827731
 31
0.0
  0
LINE
  5
2C61
  8
0
 10
178.0472155889492
 20
152.5117518482773
 30
0.0
 11
178.0472155889492
 21
152.31175184827731
 31
0.0
  0
LINE
  5
2C62
  8
0
 10
178.93021558894921
 20
152.71176184827729
 30
0.0
 11
178.63023075856441
 21
152.71176184827729
 31
0.0
  0
LINE
  5
2C63
  8
0
 10
178.49721558894919
 20
152.5117518482773
 30
0.0
 11
178.0472155889492
 21
152.5117518482773
 31
0.0
  0
ARC
  5
2C64
  8
0
 10
178.49721558894919
 20
152.31175184827731
 30
0.0
 40
0.2
 50
0.0
 51
90.0
  0
LINE
  5
2C65
  8
0
 10
178.63023075856441
 20
152.71176184827729
 30
0.0
 11
178.35460047550851
 21
153.04028925858739
 31
0.0
  0
ARC
  5
2C66
  8
0
 10
178.20138310279069
 20
152.9117418482773
 30
0.0
 40
0.2
 50
39.996218642906513
 51
90.0
  0
LINE
  5
2C67
  8
0
 10
178.20138310279069
 20
153.11174184827729
 30
0.0
 11
178.13628938654321
 21
153.11174184827729
 31
0.0
  0
ARC
  5
2C68
  8
0
 10
178.93021558894921
 20
152.91176184827731
 30
0.0
 40
0.2
 50
270.0
 51
0.0
  0
ARC
  5
2C69
  8
0
 10
178.83021558894919
 20
154.56174184827731
 30
0.0
 40
0.3
 50
0.0
 51
90.0
  0
ARC
  5
2C6A
  8
0
 10
178.83021558894919
 20
170.1617418482773
 30
0.0
 40
0.3
 50
270.0
 51
0.0
  0
LINE
  5
2C6B
  8
0
 10
178.69721558894909
 20
174.79475184827729
 30
0.0
 11
178.69721558894909
 21
172.4117318482773
 31
0.0
  0
LINE
  5
2C6C
  8
0
 10
177.7472155889493
 20
175.46179184854401
 30
0.0
 11
178.49721558894919
 21
174.71177184881071
 31
0.0
  0
ARC
  5
2C6D
  8
0
 10
178.13628938654321
 20
171.81174184827731
 30
0.0
 40
0.2
 50
200.0081046789152
 51
270.0
  0
ARC
  5
2C6E
  8
0
 10
177.49211809570301
 20
172.4117418482773
 30
0.0
 40
0.2
 50
20.008104678915291
 51
90.0
  0
LINE
  5
2C6F
  8
0
 10
177.9483605402441
 20
171.7433112357661
 30
0.0
 11
177.68004694200229
 21
172.4801724607884
 31
0.0
  0
LINE
  5
2C70
  8
0
 10
177.49211809570301
 20
172.61174184827729
 30
0.0
 11
176.47963558894921
 21
172.61174184827729
 31
0.0
  0
LINE
  5
2C71
  8
0
 10
178.49721558894919
 20
174.71177184881071
 30
0.0
 11
178.49721558894919
 21
172.4117318482773
 31
0.0
  0
LINE
  5
2C72
  8
0
 10
178.49721558894919
 20
172.21173184827731
 30
0.0
 11
178.0472155889492
 21
172.21173184827731
 31
0.0
  0
LINE
  5
2C73
  8
0
 10
178.0472155889492
 20
172.4117318482773
 30
0.0
 11
178.49721558894919
 21
172.4117318482773
 31
0.0
  0
LINE
  5
2C74
  8
0
 10
178.0472155889492
 20
172.21173184827731
 30
0.0
 11
178.0472155889492
 21
172.4117318482773
 31
0.0
  0
ARC
  5
2C75
  8
0
 10
178.93021558894921
 20
171.8117218482773
 30
0.0
 40
0.2
 50
0.0
 51
90.0
  0
LINE
  5
2C76
  8
0
 10
178.20138310279069
 20
171.61174184827729
 30
0.0
 11
178.13628938654321
 21
171.61174184827729
 31
0.0
  0
ARC
  5
2C77
  8
0
 10
178.20138310279069
 20
171.81174184827731
 30
0.0
 40
0.2
 50
270.0
 51
320.00378135709349
  0
LINE
  5
2C78
  8
0
 10
178.63023075856441
 20
172.01172184827729
 30
0.0
 11
178.35460047550851
 21
171.68319443796719
 31
0.0
  0
ARC
  5
2C79
  8
0
 10
178.49721558894919
 20
172.4117318482773
 30
0.0
 40
0.2
 50
270.0
 51
0.0
  0
LINE
  5
2C7A
  8
0
 10
178.93021558894921
 20
172.01172184827729
 30
0.0
 11
178.63023075856441
 21
172.01172184827729
 31
0.0
  0
ARC
  5
2C7B
  8
0
 10
178.09075974428271
 20
176.41637833874671
 30
0.0
 40
0.3
 50
39.999778975731829
 51
175.00323933542859
  0
ARC
  5
2C7C
  8
0
 10
178.09028222523079
 20
176.41678650886999
 30
0.0
 40
0.1
 50
39.99669489479011
 51
177.18018229812239
  0
LINE
  5
2C7D
  8
0
 10
177.94720934436671
 20
175.54475809285981
 30
0.0
 11
178.69721558894909
 21
174.79475184827729
 31
0.0
  0
LINE
  5
2C7E
  8
0
 10
177.7472155889493
 20
175.93173184827739
 30
0.0
 11
177.7472155889493
 21
175.46179184854401
 31
0.0
  0
LINE
  5
2C7F
  8
0
 10
177.9904033071073
 20
176.42170603267769
 30
0.0
 11
177.94720934436671
 21
175.54475809285981
 31
0.0
  0
ARC
  5
2C80
  8
0
 10
177.62762448438221
 20
175.7117218518442
 30
0.0
 40
0.1
 50
270.000499274817
 51
355.00323933542847
  0
LINE
  5
2C81
  8
0
 10
177.7918998570737
 20
176.44250816495071
 30
0.0
 11
177.72724444678511
 21
175.70301190977619
 31
0.0
  0
LINE
  5
2C82
  8
0
 10
177.62762535578111
 20
175.61172185184799
 30
0.0
 11
176.47963558894921
 21
175.61171184827731
 31
0.0
  0
ARC
  5
2C83
  8
0
 10
179.03021558894929
 20
176.4117218482773
 30
0.0
 40
0.1
 50
270.0
 51
0.0
  0
LINE
  5
2C84
  8
0
 10
178.4172055889492
 20
176.18271184827739
 30
0.0
 11
178.1668903773334
 21
176.4810608508069
 31
0.0
  0
ARC
  5
2C85
  8
0
 10
178.41697447156119
 20
176.18318081775479
 30
0.0
 40
0.2
 50
309.91517656587229
 51
39.999778975731829
  0
LINE
  5
2C86
  8
0
 10
178.39220558894911
 20
175.9017018482773
 30
0.0
 11
178.54530503487521
 21
176.02978177434349
 31
0.0
  0
LINE
  5
2C87
  8
0
 10
178.57018385610749
 20
176.31173774867241
 30
0.0
 11
178.3205738211021
 21
176.60921373512289
 31
0.0
  0
LINE
  5
2C88
  8
0
 10
178.39220558894911
 20
175.9016918482773
 30
0.0
 11
178.26419558894921
 21
176.05469184827729
 31
0.0
  0
LINE
  5
2C89
  8
0
 10
178.26419558894921
 20
176.05470184827729
 30
0.0
 11
178.4172055889492
 21
176.1826918482773
 31
0.0
  0
LINE
  5
2C8A
  8
0
 10
179.03021558894929
 20
176.3117218482773
 30
0.0
 11
178.5702155889492
 21
176.3117218482773
 31
0.0
  0
ARC
  5
2C8B
  8
0
 10
178.83021558894919
 20
178.06174184827731
 30
0.0
 40
0.3
 50
0.0
 51
90.0
  0
CIRCLE
  5
2D0A
  8
0
 10
259.96210885698918
 20
162.3617418482774
 30
0.0
 40
2.75
  0
CIRCLE
  5
2D0B
  8
0
 10
283.96210885698918
 20
138.3617418482774
 30
0.0
 40
2.75
  0
CIRCLE
  5
2D0C
  8
0
 10
307.96210885698918
 20
162.36174184827729
 30
0.0
 40
2.75
  0
CIRCLE
  5
2D11
  8
0
  6
DASHED
 62
     3
 10
283.96210885698918
 20
162.3617418482774
 30
0.0
 40
19.0
  0
ENDSEC
  0
EOF
