  0
SECTION
  2
HEADER
  9
$ACADVER
  1
AC1009
  9
$INSBASE
 10
0.0
 20
0.0
 30
0.0
  9
$EXTMIN
 10
-21.590134934080002
 20
-121.58483942759619
 30
0.0
  9
$EXTMAX
 10
261.54653990284947
 20
74.415160572403806
 30
0.0
  9
$LIMMIN
 10
0.0
 20
0.0
  9
$LIMMAX
 10
420.0
 20
297.0
  9
$ORTHOMODE
 70
     1
  9
$REGENMODE
 70
     1
  9
$FILLMODE
 70
     1
  9
$QTEXTMODE
 70
     0
  9
$MIRRTEXT
 70
     0
  9
$DRAGMODE
 70
     2
  9
$LTSCALE
 40
1.0
  9
$OSMODE
 70
    55
  9
$ATTMODE
 70
     1
  9
$TEXTSIZE
 40
3.0
  9
$TRACEWID
 40
1.0
  9
$TEXTSTYLE
  7
STANDARD
  9
$CLAYER
  8
0
  9
$CELTYPE
  6
CONTINUOUS
  9
$CECOLOR
 62
     7
  9
$DIMSCALE
 40
1.0
  9
$DIMASZ
 40
2.5
  9
$DIMEXO
 40
0.625
  9
$DIMDLI
 40
3.75
  9
$DIMRND
 40
0.0
  9
$DIMDLE
 40
0.0
  9
$DIMEXE
 40
1.25
  9
$DIMTP
 40
0.0
  9
$DIMTM
 40
0.0
  9
$DIMTXT
 40
2.5
  9
$DIMCEN
 40
2.5
  9
$DIMTSZ
 40
0.0
  9
$DIMTOL
 70
     0
  9
$DIMLIM
 70
     0
  9
$DIMTIH
 70
     0
  9
$DIMTOH
 70
     0
  9
$DIMSE1
 70
     0
  9
$DIMSE2
 70
     0
  9
$DIMTAD
 70
     1
  9
$DIMZIN
 70
     8
  9
$DIMBLK
  1
OPEN30
  9
$DIMASO
 70
     1
  9
$DIMSHO
 70
     1
  9
$DIMPOST
  1

  9
$DIMAPOST
  1

  9
$DIMALT
 70
     0
  9
$DIMALTD
 70
     3
  9
$DIMALTF
 40
0.03937007874016
  9
$DIMLFAC
 40
1.0
  9
$DIMTOFL
 70
     1
  9
$DIMTVP
 40
0.0
  9
$DIMTIX
 70
     0
  9
$DIMSOXD
 70
     0
  9
$DIMSAH
 70
     0
  9
$DIMBLK1
  1

  9
$DIMBLK2
  1

  9
$DIMSTYLE
  2
MISUMI
  9
$DIMCLRD
 70
   137
  9
$DIMCLRE
 70
   137
  9
$DIMCLRT
 70
   137
  9
$DIMTFAC
 40
1.0
  9
$DIMGAP
 40
0.625
  9
$LUNITS
 70
     2
  9
$LUPREC
 70
     2
  9
$SKETCHINC
 40
1.0
  9
$FILLETRAD
 40
2.0
  9
$AUNITS
 70
     0
  9
$AUPREC
 70
     0
  9
$MENU
  1
.
  9
$ELEVATION
 40
0.0
  9
$PELEVATION
 40
0.0
  9
$THICKNESS
 40
0.0
  9
$LIMCHECK
 70
     0
  9
$BLIPMODE
 70
     0
  9
$CHAMFERA
 40
0.5
  9
$CHAMFERB
 40
0.5
  9
$SKPOLY
 70
     0
  9
$TDCREATE
 40
2455135.5720697111
  9
$TDUPDATE
 40
2455629.6522804978
  9
$TDINDWG
 40
0.2639664931
  9
$TDUSRTIMER
 40
0.2639663079
  9
$USRTIMER
 70
     1
  9
$ANGBASE
 50
0.0
  9
$ANGDIR
 70
     0
  9
$PDMODE
 70
    35
  9
$PDSIZE
 40
0.0
  9
$PLINEWID
 40
0.0
  9
$COORDS
 70
     1
  9
$SPLFRAME
 70
     0
  9
$SPLINETYPE
 70
     6
  9
$SPLINESEGS
 70
     8
  9
$ATTDIA
 70
     0
  9
$ATTREQ
 70
     1
  9
$HANDLING
 70
     1
  9
$HANDSEED
  5
1ABB
  9
$SURFTAB1
 70
     6
  9
$SURFTAB2
 70
     6
  9
$SURFTYPE
 70
     6
  9
$SURFU
 70
     6
  9
$SURFV
 70
     6
  9
$UCSNAME
  2

  9
$UCSORG
 10
0.0
 20
0.0
 30
0.0
  9
$UCSXDIR
 10
1.0
 20
0.0
 30
0.0
  9
$UCSYDIR
 10
0.0
 20
1.0
 30
0.0
  9
$PUCSNAME
  2

  9
$PUCSORG
 10
0.0
 20
0.0
 30
0.0
  9
$PUCSXDIR
 10
1.0
 20
0.0
 30
0.0
  9
$PUCSYDIR
 10
0.0
 20
1.0
 30
0.0
  9
$USERI1
 70
     0
  9
$USERI2
 70
     0
  9
$USERI3
 70
     0
  9
$USERI4
 70
     0
  9
$USERI5
 70
     0
  9
$USERR1
 40
0.0
  9
$USERR2
 40
0.0
  9
$USERR3
 40
0.0
  9
$USERR4
 40
0.0
  9
$USERR5
 40
0.0
  9
$WORLDVIEW
 70
     1
  9
$SHADEDGE
 70
     3
  9
$SHADEDIF
 70
    70
  9
$TILEMODE
 70
     1
  9
$MAXACTVP
 70
    64
  9
$PLIMCHECK
 70
     0
  9
$PEXTMIN
 10
0.0
 20
0.0
 30
0.0
  9
$PEXTMAX
 10
0.0
 20
0.0
 30
0.0
  9
$PLIMMIN
 10
0.0
 20
0.0
  9
$PLIMMAX
 10
12.0
 20
9.0
  9
$UNITMODE
 70
     0
  9
$VISRETAIN
 70
     1
  9
$PLINEGEN
 70
     0
  9
$PSLTSCALE
 70
     1
  0
ENDSEC
  0
SECTION
  2
TABLES
  0
TABLE
  2
VPORT
 70
     1
  0
VPORT
  2
*ACTIVE
 70
     0
 10
0.0
 20
0.0
 11
1.0
 21
1.0
 12
151.65794434942049
 22
-23.576006352154121
 13
0.0
 23
0.0
 14
10.0
 24
10.0
 15
10.0
 25
10.0
 16
0.0
 26
0.0
 36
1.0
 17
0.0
 27
0.0
 37
0.0
 40
305.50278023797978
 41
1.163705583756345
 42
50.0
 43
0.0
 44
0.0
 50
0.0
 51
0.0
 71
     0
 72
  1000
 73
     1
 74
     3
 75
     0
 76
     0
 77
     0
 78
     0
  0
ENDTAB
  0
TABLE
  2
LTYPE
 70
     3
  0
LTYPE
  2
CONTINUOUS
 70
     0
  3
Solid line
 72
    65
 73
     0
 40
0.0
  0
LTYPE
  2
CENTER
 70
     0
  3
Center ____ _ ____ _ ____ _ ____ _ ____ _ ____
 72
    65
 73
     4
 40
50.799999999999997
 49
31.75
 49
-6.3499999999999988
 49
6.3499999999999988
 49
-6.3499999999999988
  0
LTYPE
  2
DASHED
 70
     0
  3
Dashed __ __ __ __ __ __ __ __ __ __ __ __ __ _
 72
    65
 73
     2
 40
19.050000000000001
 49
12.699999999999999
 49
-6.3499999999999988
  0
ENDTAB
  0
TABLE
  2
LAYER
 70
     3
  0
LAYER
  2
0
 70
     0
 62
     7
  6
CONTINUOUS
  0
LAYER
  2
CENTER
 70
     0
 62
     1
  6
CENTER
  0
LAYER
  2
DEFPOINTS
 70
     0
 62
     7
  6
CONTINUOUS
  0
ENDTAB
  0
TABLE
  2
STYLE
 70
     1
  0
STYLE
  2
STANDARD
 70
     0
 40
3.0
 41
1.0
 50
0.0
 71
     0
 42
3.0
  3
txt.shx
  4
bigfont.shx
  0
ENDTAB
  0
TABLE
  2
VIEW
 70
     0
  0
ENDTAB
  0
TABLE
  2
UCS
 70
     0
  0
ENDTAB
  0
TABLE
  2
APPID
 70
     3
  0
APPID
  2
ACAD
 70
     0
  0
APPID
  2
ACAD_MLEADERVER
 70
     0
  0
APPID
  2
ACAD_DSTYLE_DIMRADIAL_EXTENSION
 70
     0
  0
ENDTAB
  0
TABLE
  2
DIMSTYLE
 70
     1
  0
DIMSTYLE
  2
MISUMI
 70
     0
  3

  4

  5
OPEN30
  6

  7

 40
1.0
 41
2.5
 42
0.625
 43
3.75
 44
1.25
 45
0.0
 46
0.0
 47
0.0
 48
0.0
140
2.5
141
2.5
142
0.0
143
0.03937007874016
144
1.0
145
0.0
146
1.0
147
0.625
 71
     0
 72
     0
 73
     0
 74
     0
 75
     0
 76
     0
 77
     1
 78
     8
170
     0
171
     3
172
     1
173
     0
174
     0
175
     0
176
   137
177
   137
178
   137
  0
ENDTAB
  0
ENDSEC
  0
SECTION
  2
BLOCKS
  0
BLOCK
  8
0
  2
$MODEL_SPACE
 70
     0
 10
0.0
 20
0.0
 30
0.0
  3
$MODEL_SPACE
  1

  0
ENDBLK
  5
21
  8
0
  0
BLOCK
 67
     1
  8
0
  2
$PAPER_SPACE
 70
     0
 10
0.0
 20
0.0
 30
0.0
  3
$PAPER_SPACE
  1

  0
ENDBLK
  5
53
 67
     1
  8
0
  0
BLOCK
  8
0
 62
     7
  2
_OPEN30
 70
     0
 10
0.0
 20
0.0
 30
0.0
  3
_OPEN30
  1

  0
LINE
  5
D7
  8
0
  6
BYBLOCK
 62
     0
 10
-1.0
 20
0.26794919
 30
0.0
 11
0.0
 21
0.0
 31
0.0
  0
LINE
  5
D8
  8
0
  6
BYBLOCK
 62
     0
 10
0.0
 20
0.0
 30
0.0
 11
-1.0
 21
-0.26794919
 31
0.0
  0
LINE
  5
D9
  8
0
  6
BYBLOCK
 62
     0
 10
0.0
 20
0.0
 30
0.0
 11
-1.0
 21
0.0
 31
0.0
  0
ENDBLK
  5
DB
  8
0
 62
     7
  0
BLOCK
  8
0
 62
     7
  2
*U2
 70
     1
 10
0.0
 20
0.0
 30
0.0
  3
*U2
  1

  0
TEXT
  5
1AAC
  8
0
  6
CONTINUOUS
 62
     7
 10
-21.590134934080002
 20
-74.393207614830771
 30
0.0
 40
3.0
  1
SNPSK10A-90-A
  0
ENDBLK
  5
1AAE
  8
0
 62
     7
  0
BLOCK
  8
0
 62
     7
  2
*U3
 70
     1
 10
0.0
 20
0.0
 30
0.0
  3
*U3
  1

  0
TEXT
  5
1AB0
  8
0
  6
CONTINUOUS
 62
     7
 10
-21.590134934080002
 20
-79.393207614830771
 30
0.0
 40
3.0
  1
SNPSK10A
  0
ENDBLK
  5
1AB2
  8
0
 62
     7
  0
BLOCK
  8
0
 62
     7
  2
*U4
 70
     1
 10
0.0
 20
0.0
 30
0.0
  3
*U4
  1

  0
TEXT
  5
1AB4
  8
0
  6
CONTINUOUS
 62
     7
 10
204.00871239895821
 20
69.333698829443733
 30
0.0
 40
3.0
  1
A shape（Ferrule）
  0
ENDBLK
  5
1AB6
  8
0
 62
     7
  0
BLOCK
  8
0
 62
     7
  2
*U5
 70
     1
 10
0.0
 20
0.0
 30
0.0
  3
*U5
  1

  0
TEXT
  5
1AB8
  8
0
  6
CONTINUOUS
 62
     7
 10
205.735904304012
 20
-18.613153899628738
 30
0.0
 40
3.0
  1
B shape（Elbow）
  0
ENDBLK
  5
1ABA
  8
0
 62
     7
  0
ENDSEC
  0
SECTION
  2
ENTITIES
  0
LINE
  5
CFA
  8
0
  6
CONTINUOUS
 62
     7
 10
52.0
 20
-8.6500000000000057
 30
0.0
 11
-0.0000000000000107
 21
-8.6500000000000057
 31
0.0
  0
LINE
  5
CFB
  8
CENTER
  6
CENTER
 62
     1
 10
92.0
 20
0.0
 30
0.0
 11
-2.0000000000000031
 21
0.0
 31
0.0
  0
LINE
  5
CFC
  8
0
  6
CONTINUOUS
 62
     7
 10
52.0
 20
8.6500000000000057
 30
0.0
 11
-0.0000000000000036
 21
8.6500000000000057
 31
0.0
  0
LINE
  5
CFE
  8
0
  6
DASHED
 62
     3
 10
52.0
 20
7.0
 30
0.0
 11
-0.0000000000000036
 21
7.0
 31
0.0
  0
LINE
  5
CFF
  8
0
  6
DASHED
 62
     3
 10
52.0
 20
-7.0
 30
0.0
 11
-0.0000000000000036
 21
-7.0
 31
0.0
  0
LINE
  5
D28
  8
0
  6
DASHED
 62
     3
 10
97.0
 20
-37.999999999999957
 30
0.0
 11
97.0
 21
-55.0
 31
0.0
  0
LINE
  5
D29
  8
0
  6
DASHED
 62
     3
 10
83.0
 20
-37.999999999999957
 30
0.0
 11
83.0
 21
-55.0
 31
0.0
  0
LINE
  5
D41
  8
CENTER
  6
CENTER
 62
     1
 10
52.0
 20
8.9000000000000057
 30
0.0
 11
52.0
 21
-8.9000000000000057
 31
0.0
  0
LINE
  5
D42
  8
CENTER
  6
CENTER
 62
     1
 10
90.0
 20
2.0
 30
0.0
 11
90.0
 21
-57.0
 31
0.0
  0
LINE
  5
DB9
  8
0
  6
CONTINUOUS
 62
     7
 10
98.649999999999977
 20
-38.0
 30
0.0
 11
98.649999999999963
 21
-47.710433467457833
 31
0.0
  0
LINE
  5
DBB
  8
0
  6
CONTINUOUS
 62
     7
 10
81.350000000000037
 20
-38.0
 30
0.0
 11
81.350000000000037
 21
-47.710433467457833
 31
0.0
  0
LINE
  5
E13
  8
0
  6
CONTINUOUS
 62
     7
 10
0.0000000000000037
 20
8.6500000000000057
 30
0.0
 11
-0.0000000000000107
 21
-8.6500000000000057
 31
0.0
  0
INSERT
  5
E23
  8
0
  6
CONTINUOUS
 62
     7
  2
*U2
 10
0.0
 20
0.0
 30
0.0
  0
INSERT
  5
E24
  8
0
  6
CONTINUOUS
 62
     7
  2
*U3
 10
0.0
 20
0.0
 30
0.0
  0
LINE
  5
1725
  8
0
  6
DASHED
 62
     3
 10
76.25
 20
-53.399999999999977
 30
0.0
 11
103.75
 21
-53.399999999999977
 31
0.0
  0
LINE
  5
1726
  8
0
  6
CONTINUOUS
 62
     7
 10
107.0
 20
-52.149999999999977
 30
0.0
 11
99.965959713348639
 21
-49.589818709029657
 31
0.0
  0
LINE
  5
1727
  8
0
  6
CONTINUOUS
 62
     7
 10
73.0
 20
-52.149999999999977
 30
0.0
 11
107.0
 21
-52.149999999999977
 31
0.0
  0
LINE
  5
1728
  8
0
  6
CONTINUOUS
 62
     7
 10
73.0
 20
-55.0
 30
0.0
 11
107.0
 21
-55.0
 31
0.0
  0
ARC
  5
1729
  8
0
  6
DASHED
 62
     3
 10
103.75
 20
-54.600000000000023
 30
0.0
 40
1.199999999999988
 50
11.53695903281478
 51
168.46304096718339
  0
LINE
  5
172A
  8
CENTER
  6
CENTER
 62
     1
 10
103.75
 20
-57.0
 30
0.0
 11
103.75
 21
-51.39999999999997
 31
0.0
  0
LINE
  5
172B
  8
0
  6
CONTINUOUS
 62
     7
 10
107.0
 20
-55.0
 30
0.0
 11
107.0
 21
-52.149999999999977
 31
0.0
  0
ARC
  5
172C
  8
0
  6
DASHED
 62
     3
 10
101.7904082057734
 20
-54.199999999999932
 30
0.0
 40
0.8
 50
270.0000000000033
 51
348.46304096718342
  0
ARC
  5
172D
  8
0
  6
DASHED
 62
     3
 10
105.7095917942265
 20
-54.200000000000053
 30
0.0
 40
0.8
 50
191.5369590328132
 51
269.99999999999841
  0
ARC
  5
172E
  8
0
  6
DASHED
 62
     3
 10
76.25
 20
-54.600000000000023
 30
0.0
 40
1.199999999999988
 50
11.53695903281654
 51
168.46304096718521
  0
LINE
  5
172F
  8
0
  6
CONTINUOUS
 62
     7
 10
73.0
 20
-52.149999999999977
 30
0.0
 11
80.034040286651347
 21
-49.589818709029672
 31
0.0
  0
LINE
  5
1733
  8
CENTER
  6
CENTER
 62
     1
 10
76.25
 20
-57.0
 30
0.0
 11
76.25
 21
-51.39999999999997
 31
0.0
  0
ARC
  5
1734
  8
0
  6
DASHED
 62
     3
 10
78.209591794226583
 20
-54.199999999999932
 30
0.0
 40
0.8
 50
191.5369590328165
 51
269.99999999999682
  0
LINE
  5
1736
  8
0
  6
CONTINUOUS
 62
     7
 10
73.0
 20
-55.0
 30
0.0
 11
73.0
 21
-52.149999999999977
 31
0.0
  0
ARC
  5
1737
  8
0
  6
DASHED
 62
     3
 10
74.290408205773474
 20
-54.200000000000053
 30
0.0
 40
0.8
 50
270.0
 51
348.46304096718683
  0
ARC
  5
173E
  8
0
  6
CONTINUOUS
 62
     7
 10
79.350000000000023
 20
-47.710433467457833
 30
0.0
 40
2.0
 50
289.99999999999949
 51
0.0
  0
ARC
  5
173F
  8
0
  6
CONTINUOUS
 62
     7
 10
100.64999999999991
 20
-47.710433467457833
 30
0.0
 40
2.0
 50
180.0
 51
250.00000000000051
  0
ARC
  5
1816
  8
0
  6
CONTINUOUS
 62
     7
 10
52.000000000000021
 20
-38.000000000000007
 30
0.0
 40
29.350000000000001
 50
360.0
 51
90.000000000000057
  0
ARC
  5
1817
  8
0
  6
DASHED
 62
     3
 10
52.000000000000021
 20
-38.000000000000007
 30
0.0
 40
31.0
 50
360.0
 51
90.000000000000057
  0
ARC
  5
1830
  8
0
  6
CONTINUOUS
 62
     7
 10
51.999999999999993
 20
-37.999999999999993
 30
0.0
 40
46.649999999999999
 50
359.99999999999989
 51
89.999999999999986
  0
ARC
  5
1831
  8
0
  6
DASHED
 62
     3
 10
51.999999999999993
 20
-37.999999999999993
 30
0.0
 40
45.0
 50
359.99999999999989
 51
89.999999999999986
  0
INSERT
  5
1983
  8
0
  6
CONTINUOUS
 62
     7
  2
*U4
 10
0.0
 20
0.0
 30
0.0
  0
LINE
  5
1984
  8
0
  6
CONTINUOUS
 62
     7
 10
190.2691552234142
 20
-13.58483942759619
 30
0.0
 11
190.2691552234142
 21
74.415160572403806
 31
0.0
  0
LINE
  5
1985
  8
0
  6
CONTINUOUS
 62
     7
 10
261.54653990284947
 20
-13.58483942759619
 30
0.0
 11
261.54653990284947
 21
74.415160572403764
 31
0.0
  0
LINE
  5
1986
  8
0
  6
CONTINUOUS
 62
     7
 10
261.54653990284947
 20
74.415160572403806
 30
0.0
 11
190.2691552234142
 21
74.415160572403806
 31
0.0
  0
LINE
  5
1987
  8
0
  6
CONTINUOUS
 62
     7
 10
251.5465399028495
 20
-13.58483942759619
 30
0.0
 11
190.2691552234142
 21
-13.58483942759619
 31
0.0
  0
INSERT
  5
1988
  8
0
  6
CONTINUOUS
 62
     7
  2
*U5
 10
0.0
 20
0.0
 30
0.0
  0
LINE
  5
1989
  8
0
  6
CONTINUOUS
 62
     7
 10
190.2691552234142
 20
-121.58483942759619
 30
0.0
 11
190.2691552234142
 21
-13.58483942759619
 31
0.0
  0
LINE
  5
198A
  8
0
  6
CONTINUOUS
 62
     7
 10
261.54653990284947
 20
-121.58483942759619
 30
0.0
 11
261.54653990284947
 21
-13.58483942759619
 31
0.0
  0
LINE
  5
198B
  8
0
  6
CONTINUOUS
 62
     7
 10
261.54653990284947
 20
-13.58483942759619
 30
0.0
 11
190.2691552234142
 21
-13.58483942759619
 31
0.0
  0
LINE
  5
198C
  8
0
  6
CONTINUOUS
 62
     7
 10
261.54653990284947
 20
66.415160572403806
 30
0.0
 11
190.2691552234142
 21
66.415160572403806
 31
0.0
  0
LINE
  5
198D
  8
0
  6
CONTINUOUS
 62
     7
 10
261.54653990284947
 20
-21.584839427596201
 30
0.0
 11
190.2691552234142
 21
-21.584839427596201
 31
0.0
  0
LINE
  5
198E
  8
0
  6
CONTINUOUS
 62
     7
 10
190.2691552234142
 20
-121.58483942759619
 30
0.0
 11
261.54653990284947
 21
-121.58483942759619
 31
0.0
  0
ARC
  5
198F
  8
0
  6
CONTINUOUS
 62
     7
 10
254.7273096421703
 20
-88.737527447885626
 30
0.0
 40
44.899999999999963
 50
90.0
 51
180.0
  0
ARC
  5
1990
  8
0
  6
DASHED
 62
     3
 10
254.7273096421703
 20
-88.737527447885626
 30
0.0
 40
43.249999999999957
 50
90.0
 51
180.0
  0
ARC
  5
1991
  8
0
  6
DASHED
 62
     3
 10
254.7273096421703
 20
-88.737527447885626
 30
0.0
 40
32.749999999999972
 50
90.0
 51
180.0
  0
ARC
  5
1992
  8
0
  6
CONTINUOUS
 62
     7
 10
254.7273096421703
 20
-88.737527447885626
 30
0.0
 40
31.099999999999969
 50
90.0
 51
180.0
  0
LINE
  5
1993
  8
0
  6
DASHED
 62
     3
 10
211.4773096421703
 20
-88.737527447885626
 30
0.0
 11
211.4773096421703
 21
-105.7375274478856
 31
0.0
  0
LINE
  5
1994
  8
0
  6
DASHED
 62
     3
 10
221.9773096421703
 20
-88.737527447885626
 30
0.0
 11
221.9773096421703
 21
-105.7375274478856
 31
0.0
  0
LINE
  5
1995
  8
CENTER
  6
CENTER
 62
     1
 10
254.7273096421703
 20
-41.837527447885662
 30
0.0
 11
254.7273096421703
 21
-59.637527447885681
 31
0.0
  0
LINE
  5
1996
  8
CENTER
  6
CENTER
 62
     1
 10
216.7273096421703
 20
-48.737527447885668
 30
0.0
 11
216.7273096421703
 21
-107.7375274478856
 31
0.0
  0
LINE
  5
1997
  8
0
  6
DASHED
 62
     3
 10
230.4773096421703
 20
-104.1375274478856
 30
0.0
 11
202.9773096421703
 21
-104.1375274478856
 31
0.0
  0
LINE
  5
1998
  8
0
  6
CONTINUOUS
 62
     7
 10
199.7273096421703
 20
-102.8875274478856
 30
0.0
 11
208.51134992882169
 21
-99.690398246949485
 31
0.0
  0
LINE
  5
1999
  8
0
  6
CONTINUOUS
 62
     7
 10
233.7273096421703
 20
-102.8875274478856
 30
0.0
 11
199.7273096421703
 21
-102.8875274478856
 31
0.0
  0
LINE
  5
199A
  8
0
  6
CONTINUOUS
 62
     7
 10
233.7273096421703
 20
-105.7375274478856
 30
0.0
 11
199.7273096421703
 21
-105.7375274478856
 31
0.0
  0
ARC
  5
199B
  8
0
  6
DASHED
 62
     3
 10
202.9773096421703
 20
-105.33752744788571
 30
0.0
 40
1.199999999999988
 50
11.53695903281659
 51
168.46304096718509
  0
LINE
  5
199C
  8
CENTER
  6
CENTER
 62
     1
 10
202.9773096421703
 20
-107.7375274478856
 30
0.0
 11
202.9773096421703
 21
-102.1375274478856
 31
0.0
  0
LINE
  5
199D
  8
0
  6
CONTINUOUS
 62
     7
 10
199.7273096421703
 20
-105.7375274478856
 30
0.0
 11
199.7273096421703
 21
-102.8875274478856
 31
0.0
  0
ARC
  5
199E
  8
0
  6
DASHED
 62
     3
 10
204.93690143639691
 20
-104.9375274478856
 30
0.0
 40
0.8
 50
191.53695903281661
 51
269.99999999999682
  0
ARC
  5
199F
  8
0
  6
DASHED
 62
     3
 10
201.0177178479438
 20
-104.9375274478857
 30
0.0
 40
0.8
 50
270.0000000000033
 51
348.4630409671866
  0
ARC
  5
19A0
  8
0
  6
DASHED
 62
     3
 10
230.4773096421703
 20
-105.33752744788571
 30
0.0
 40
1.199999999999988
 50
11.53695903281489
 51
168.46304096718339
  0
LINE
  5
19A1
  8
0
  6
CONTINUOUS
 62
     7
 10
233.7273096421703
 20
-102.8875274478856
 30
0.0
 11
224.94326935551899
 21
-99.690398246949485
 31
0.0
  0
LINE
  5
19A2
  8
0
  6
CONTINUOUS
 62
     7
 10
209.82730964217029
 20
-88.737527447885654
 30
0.0
 11
209.82730964217029
 21
-97.811013005377632
 31
0.0
  0
LINE
  5
19A3
  8
0
  6
CONTINUOUS
 62
     7
 10
223.6273096421703
 20
-88.737527447885654
 30
0.0
 11
223.6273096421703
 21
-97.811013005377632
 31
0.0
  0
ARC
  5
19A4
  8
0
  6
CONTINUOUS
 62
     7
 10
207.82730964217029
 20
-97.811013005377632
 30
0.0
 40
2.0
 50
290.0
 51
0.0
  0
LINE
  5
19A5
  8
CENTER
  6
CENTER
 62
     1
 10
230.4773096421703
 20
-107.7375274478856
 30
0.0
 11
230.4773096421703
 21
-102.1375274478856
 31
0.0
  0
ARC
  5
19A6
  8
0
  6
DASHED
 62
     3
 10
228.51771784794369
 20
-104.9375274478856
 30
0.0
 40
0.8
 50
270.0000000000033
 51
348.4630409671833
  0
ARC
  5
19A7
  8
0
  6
CONTINUOUS
 62
     7
 10
225.6273096421703
 20
-97.811013005377632
 30
0.0
 40
2.0
 50
180.0
 51
249.99999999999989
  0
LINE
  5
19A8
  8
0
  6
CONTINUOUS
 62
     7
 10
233.7273096421703
 20
-105.7375274478856
 30
0.0
 11
233.7273096421703
 21
-102.8875274478856
 31
0.0
  0
ARC
  5
19A9
  8
0
  6
DASHED
 62
     3
 10
232.43690143639691
 20
-104.9375274478857
 30
0.0
 40
0.8
 50
191.53695903281329
 51
270.0
  0
LINE
  5
19AA
  8
0
  6
CONTINUOUS
 62
     7
 10
254.7273096421703
 20
-43.837527447885662
 30
0.0
 11
258.44653990284951
 21
-43.837527447885662
 31
0.0
  0
LINE
  5
19AB
  8
0
  6
CONTINUOUS
 62
     7
 10
254.7273096421703
 20
-57.63752744788566
 30
0.0
 11
258.44653990284951
 21
-57.63752744788566
 31
0.0
  0
LINE
  5
19AC
  8
0
  6
DASHED
 62
     3
 10
254.7273096421703
 20
-55.987527447885661
 30
0.0
 11
258.44653990284951
 21
-55.987527447885661
 31
0.0
  0
LINE
  5
19AD
  8
0
  6
DASHED
 62
     3
 10
254.7273096421703
 20
-45.487527447885668
 30
0.0
 11
258.44653990284951
 21
-45.487527447885668
 31
0.0
  0
LINE
  5
19AE
  8
CENTER
  6
CENTER
 62
     1
 10
214.7273096421703
 20
-50.737527447885668
 30
0.0
 11
258.44653990284951
 21
-50.737527447885668
 31
0.0
  0
LINE
  5
19B9
  8
CENTER
  6
CENTER
 62
     1
 10
230.8236369550219
 20
13.61255766743699
 30
0.0
 11
230.8236369550219
 21
31.41255766743706
 31
0.0
  0
LINE
  5
19BA
  8
0
  6
DASHED
 62
     3
 10
215.42363695502209
 20
36.262557667436909
 30
0.0
 11
215.42363695502209
 21
8.7625576674369086
 31
0.0
  0
LINE
  5
19BB
  8
0
  6
CONTINUOUS
 62
     7
 10
216.67363695502209
 20
5.5125576674369077
 30
0.0
 11
219.87076615595819
 21
14.29659795408827
 31
0.0
  0
LINE
  5
19BC
  8
0
  6
CONTINUOUS
 62
     7
 10
216.67363695502209
 20
39.512557667436909
 30
0.0
 11
216.67363695502209
 21
5.5125576674369077
 31
0.0
  0
LINE
  5
19BD
  8
0
  6
CONTINUOUS
 62
     7
 10
213.82363695502201
 20
39.512557667436909
 30
0.0
 11
213.82363695502201
 21
5.5125576674369077
 31
0.0
  0
ARC
  5
19BE
  8
0
  6
DASHED
 62
     3
 10
214.22363695502199
 20
8.7625576674369086
 30
0.0
 40
1.199999999999988
 50
281.53695903281482
 51
78.463040967181854
  0
LINE
  5
19BF
  8
CENTER
  6
CENTER
 62
     1
 10
211.82363695502201
 20
8.7625576674369086
 30
0.0
 11
217.42363695502209
 21
8.7625576674369086
 31
0.0
  0
LINE
  5
19C0
  8
0
  6
CONTINUOUS
 62
     7
 10
213.82363695502201
 20
5.5125576674369077
 30
0.0
 11
216.67363695502209
 21
5.5125576674369077
 31
0.0
  0
ARC
  5
19C1
  8
0
  6
DASHED
 62
     3
 10
214.62363695502211
 20
10.72214946166349
 30
0.0
 40
0.8
 50
180.00000000000321
 51
258.46304096718188
  0
ARC
  5
19C2
  8
0
  6
DASHED
 62
     3
 10
214.62363695502199
 20
6.8029658732103817
 30
0.0
 40
0.8
 50
101.53695903281481
 51
179.9999999999992
  0
ARC
  5
19C3
  8
0
  6
DASHED
 62
     3
 10
214.22363695502199
 20
36.262557667436909
 30
0.0
 40
1.199999999999988
 50
281.53695903281812
 51
78.463040967185179
  0
LINE
  5
19C4
  8
0
  6
CONTINUOUS
 62
     7
 10
216.67363695502209
 20
39.512557667436909
 30
0.0
 11
219.87076615595819
 21
30.728517380785551
 31
0.0
  0
ARC
  5
19C5
  8
0
  6
CONTINUOUS
 62
     7
 10
221.75015139753009
 20
13.61255766743693
 30
0.0
 40
2.0
 50
90.0
 51
160.00000000000031
  0
LINE
  5
19C6
  8
CENTER
  6
CENTER
 62
     1
 10
211.82363695502201
 20
36.262557667436909
 30
0.0
 11
217.42363695502209
 21
36.262557667436909
 31
0.0
  0
ARC
  5
19C7
  8
0
  6
DASHED
 62
     3
 10
214.62363695502211
 20
34.302965873210333
 30
0.0
 40
0.8
 50
101.5369590328181
 51
179.9999999999967
  0
ARC
  5
19C8
  8
0
  6
CONTINUOUS
 62
     7
 10
221.75015139753009
 20
31.412557667436889
 30
0.0
 40
2.0
 50
199.9999999999996
 51
270.0
  0
LINE
  5
19C9
  8
0
  6
CONTINUOUS
 62
     7
 10
213.82363695502201
 20
39.512557667436909
 30
0.0
 11
216.67363695502209
 21
39.512557667436909
 31
0.0
  0
ARC
  5
19CA
  8
0
  6
DASHED
 62
     3
 10
214.62363695502199
 20
38.222149461663442
 30
0.0
 40
0.8
 50
180.0000000000008
 51
258.46304096718518
  0
LINE
  5
19CB
  8
0
  6
CONTINUOUS
 62
     7
 10
242.34464221773979
 20
15.612557667436869
 30
0.0
 11
221.75015139753009
 21
15.612557667436869
 31
0.0
  0
LINE
  5
19CC
  8
CENTER
  6
CENTER
 62
     1
 10
242.34464221773979
 20
22.512557667436909
 30
0.0
 11
211.82363695502201
 21
22.512557667436909
 31
0.0
  0
LINE
  5
19CD
  8
0
  6
CONTINUOUS
 62
     7
 10
242.34464221773979
 20
29.412557667436921
 30
0.0
 11
221.75015139753009
 21
29.412557667436889
 31
0.0
  0
LINE
  5
19CE
  8
0
  6
DASHED
 62
     3
 10
242.34464221773979
 20
27.762557667436909
 30
0.0
 11
213.82363695502201
 21
27.762557667436909
 31
0.0
  0
LINE
  5
19CF
  8
0
  6
DASHED
 62
     3
 10
242.34464221773979
 20
17.262557667436909
 30
0.0
 11
213.82363695502201
 21
17.262557667436909
 31
0.0
  0
ENDSEC
  0
EOF
