  0
SECTION
  2
HEADER
  9
$ACADVER
  1
AC1009
  9
$INSBASE
 10
0.0
 20
0.0
 30
0.0
  9
$EXTMIN
 10
-15.2055543279814
 20
0.0
 30
0.0
  9
$EXTMAX
 10
197.41666475677249
 20
113.63255719191839
 30
0.0
  9
$LIMMIN
 10
0.0
 20
0.0
  9
$LIMMAX
 10
297.0
 20
210.0
  9
$ORTHOMODE
 70
     1
  9
$REGENMODE
 70
     1
  9
$FILLMODE
 70
     1
  9
$QTEXTMODE
 70
     0
  9
$MIRRTEXT
 70
     0
  9
$DRAGMODE
 70
     2
  9
$LTSCALE
 40
1.0
  9
$OSMODE
 70
   255
  9
$ATTMODE
 70
     1
  9
$TEXTSIZE
 40
3.0
  9
$TRACEWID
 40
1.0
  9
$TEXTSTYLE
  7
STANDARD
  9
$CLAYER
  8
0
  9
$CELTYPE
  6
CONTINUOUS
  9
$CECOLOR
 62
     7
  9
$DIMSCALE
 40
1.0
  9
$DIMASZ
 40
3.0
  9
$DIMEXO
 40
1.0
  9
$DIMDLI
 40
6.0
  9
$DIMRND
 40
0.0
  9
$DIMDLE
 40
0.0
  9
$DIMEXE
 40
1.0
  9
$DIMTP
 40
0.0
  9
$DIMTM
 40
0.0
  9
$DIMTXT
 40
3.0
  9
$DIMCEN
 40
0.0
  9
$DIMTSZ
 40
0.0
  9
$DIMTOL
 70
     0
  9
$DIMLIM
 70
     0
  9
$DIMTIH
 70
     0
  9
$DIMTOH
 70
     0
  9
$DIMSE1
 70
     0
  9
$DIMSE2
 70
     0
  9
$DIMTAD
 70
     1
  9
$DIMZIN
 70
     8
  9
$DIMBLK
  1

  9
$DIMASO
 70
     1
  9
$DIMSHO
 70
     1
  9
$DIMPOST
  1

  9
$DIMAPOST
  1

  9
$DIMALT
 70
     0
  9
$DIMALTD
 70
     2
  9
$DIMALTF
 40
0.04
  9
$DIMLFAC
 40
1.0
  9
$DIMTOFL
 70
     1
  9
$DIMTVP
 40
1.0
  9
$DIMTIX
 70
     1
  9
$DIMSOXD
 70
     0
  9
$DIMSAH
 70
     0
  9
$DIMBLK1
  1

  9
$DIMBLK2
  1

  9
$DIMSTYLE
  2
MISUMI
  9
$DIMCLRD
 70
     7
  9
$DIMCLRE
 70
     7
  9
$DIMCLRT
 70
     7
  9
$DIMTFAC
 40
0.6
  9
$DIMGAP
 40
1.0
  9
$LUNITS
 70
     2
  9
$LUPREC
 70
     4
  9
$SKETCHINC
 40
1.0
  9
$FILLETRAD
 40
0.0
  9
$AUNITS
 70
     0
  9
$AUPREC
 70
     0
  9
$MENU
  1
.
  9
$ELEVATION
 40
0.0
  9
$PELEVATION
 40
0.0
  9
$THICKNESS
 40
0.0
  9
$LIMCHECK
 70
     0
  9
$BLIPMODE
 70
     0
  9
$CHAMFERA
 40
1.0
  9
$CHAMFERB
 40
1.0
  9
$SKPOLY
 70
     0
  9
$TDCREATE
 40
2454111.480769306
  9
$TDUPDATE
 40
2454511.3490350242
  9
$TDINDWG
 40
1.0005237269
  9
$TDUSRTIMER
 40
1.0005235417
  9
$USRTIMER
 70
     1
  9
$ANGBASE
 50
0.0
  9
$ANGDIR
 70
     0
  9
$PDMODE
 70
     0
  9
$PDSIZE
 40
0.0
  9
$PLINEWID
 40
0.0
  9
$COORDS
 70
     1
  9
$SPLFRAME
 70
     0
  9
$SPLINETYPE
 70
     6
  9
$SPLINESEGS
 70
     8
  9
$ATTDIA
 70
     0
  9
$ATTREQ
 70
     1
  9
$HANDLING
 70
     1
  9
$HANDSEED
  5
AE04
  9
$SURFTAB1
 70
     6
  9
$SURFTAB2
 70
     6
  9
$SURFTYPE
 70
     6
  9
$SURFU
 70
     6
  9
$SURFV
 70
     6
  9
$UCSNAME
  2

  9
$UCSORG
 10
0.0
 20
0.0
 30
0.0
  9
$UCSXDIR
 10
1.0
 20
0.0
 30
0.0
  9
$UCSYDIR
 10
0.0
 20
1.0
 30
0.0
  9
$PUCSNAME
  2

  9
$PUCSORG
 10
0.0
 20
0.0
 30
0.0
  9
$PUCSXDIR
 10
1.0
 20
0.0
 30
0.0
  9
$PUCSYDIR
 10
0.0
 20
1.0
 30
0.0
  9
$USERI1
 70
     0
  9
$USERI2
 70
     0
  9
$USERI3
 70
     0
  9
$USERI4
 70
     0
  9
$USERI5
 70
     0
  9
$USERR1
 40
0.0
  9
$USERR2
 40
0.0
  9
$USERR3
 40
0.0
  9
$USERR4
 40
0.0
  9
$USERR5
 40
0.0
  9
$WORLDVIEW
 70
     1
  9
$SHADEDGE
 70
     3
  9
$SHADEDIF
 70
    70
  9
$TILEMODE
 70
     1
  9
$MAXACTVP
 70
    64
  9
$PLIMCHECK
 70
     0
  9
$PEXTMIN
 10
0.0
 20
0.0
 30
0.0
  9
$PEXTMAX
 10
0.0
 20
0.0
 30
0.0
  9
$PLIMMIN
 10
0.0
 20
0.0
  9
$PLIMMAX
 10
12.0
 20
9.0
  9
$UNITMODE
 70
     0
  9
$VISRETAIN
 70
     1
  9
$PLINEGEN
 70
     0
  9
$PSLTSCALE
 70
     1
  0
ENDSEC
  0
SECTION
  2
TABLES
  0
TABLE
  2
VPORT
 70
     1
  0
VPORT
  2
*ACTIVE
 70
     0
 10
0.0
 20
0.0
 11
1.0
 21
1.0
 12
92.318873397758665
 22
62.04864288033928
 13
0.0
 23
0.0
 14
10.0
 24
10.0
 15
10.0
 25
10.0
 16
0.0
 26
0.0
 36
1.0
 17
0.0
 27
0.0
 37
0.0
 40
184.73638292493541
 41
1.317440401505646
 42
50.0
 43
0.0
 44
0.0
 50
0.0
 51
0.0
 71
     0
 72
  1000
 73
     1
 74
     2
 75
     0
 76
     0
 77
     0
 78
     0
  0
ENDTAB
  0
TABLE
  2
LTYPE
 70
     4
  0
LTYPE
  2
CONTINUOUS
 70
     0
  3
Solid line
 72
    65
 73
     0
 40
0.0
  0
LTYPE
  2
CENTER
 70
     0
  3
Center ____ _ ____ _ ____ _ ____ _ ____ _ ____
 72
    65
 73
     4
 40
2.0
 49
1.25
 49
-0.25
 49
0.25
 49
-0.25
  0
LTYPE
  2
DASHED
 70
     0
  3
Dashed __ __ __ __ __ __ __ __ __ __ __ __ __ _
 72
    65
 73
     2
 40
0.75
 49
0.5
 49
-0.25
  0
LTYPE
  2
PHANTOM
 70
     0
  3
Phantom ______  __  __  ______  __  __  ______
 72
    65
 73
     6
 40
2.5
 49
1.25
 49
-0.25
 49
0.25
 49
-0.25
 49
0.25
 49
-0.25
  0
ENDTAB
  0
TABLE
  2
LAYER
 70
     4
  0
LAYER
  2
0
 70
     0
 62
     7
  6
CONTINUOUS
  0
LAYER
  2
CENTER
 70
     0
 62
     1
  6
CENTER
  0
ENDTAB
  0
TABLE
  2
STYLE
 70
     1
  0
STYLE
  2
STANDARD
 70
     0
 40
0.0
 41
1.0
 50
0.0
 71
     0
 42
3.0
  3
txt.shx
  4

  0
ENDTAB
  0
TABLE
  2
VIEW
 70
     0
  0
ENDTAB
  0
TABLE
  2
UCS
 70
     0
  0
ENDTAB
  0
TABLE
  2
APPID
 70
     6
  0
APPID
  2
ACAD
 70
     0
  0
APPID
  2
ACAD_EXEMPT_FROM_CAD_STANDARDS
 70
     0
  0
APPID
  2
ACAD_DSTYLE_DIM_LINETYPE
 70
     0
  0
APPID
  2
ACAD_DSTYLE_DIM_EXT1_LINETYPE
 70
     0
  0
APPID
  2
ACAD_DSTYLE_DIM_EXT2_LINETYPE
 70
     0
  0
APPID
  2
ACAD_PSEXT
 70
     0
  0
ENDTAB
  0
TABLE
  2
DIMSTYLE
 70
     1
  0
DIMSTYLE
  2
MISUMI
 70
     0
  3

  4

  5

  6

  7

 40
1.0
 41
3.0
 42
1.0
 43
6.0
 44
1.0
 45
0.0
 46
0.0
 47
0.0
 48
0.0
140
3.0
141
0.0
142
0.0
143
0.04
144
1.0
145
1.0
146
0.6
147
1.0
 71
     0
 72
     0
 73
     0
 74
     0
 75
     0
 76
     0
 77
     1
 78
     8
170
     0
171
     2
172
     1
173
     0
174
     1
175
     0
176
     7
177
     7
178
     7
  0
ENDTAB
  0
ENDSEC
  0
SECTION
  2
BLOCKS
  0
BLOCK
  8
0
  2
$MODEL_SPACE
 70
     0
 10
0.0
 20
0.0
 30
0.0
  3
$MODEL_SPACE
  1

  0
ENDBLK
  5
3CF
  8
0
  0
BLOCK
 67
     1
  8
0
  2
$PAPER_SPACE
 70
     0
 10
0.0
 20
0.0
 30
0.0
  3
$PAPER_SPACE
  1

  0
ENDBLK
  5
3CB
 67
     1
  8
0
  0
BLOCK
  8
0
 62
     7
  2
*U5
 70
     1
 10
0.0
 20
0.0
 30
0.0
  3
*U5
  1

  0
TEXT
  5
AD0D
  8
0
  6
CONTINUOUS
 62
     7
 10
0.0
 20
0.0
 30
0.0
 40
3.0
  1
BSFFA25A
  0
ENDBLK
  5
AD0F
  8
0
 62
     7
  0
BLOCK
  8
0
 62
     7
  2
*U6
 70
     1
 10
0.0
 20
0.0
 30
0.0
  3
*U6
  1

  0
TEXT
  5
AD19
  8
0
  6
CONTINUOUS
 62
     7
 10
0.0
 20
5.0
 30
0.0
 40
3.0
  1
BSFFA25A
  0
ENDBLK
  5
AD1B
  8
0
 62
     7
  0
BLOCK
  8
0
 62
     7
  2
*U7
 70
     1
 10
0.0
 20
0.0
 30
0.0
  3
*U7
  1

  0
TEXT
  5
AD2F
  8
0
  6
CONTINUOUS
 62
     7
 10
195.41666475677241
 20
43.367831674231169
 30
0.0
 40
3.0
  1
38
 50
90.0
  0
ENDBLK
  5
AD31
  8
0
 62
     7
  0
BLOCK
  8
0
 62
     7
  2
*U8
 70
     1
 10
0.0
 20
0.0
 30
0.0
  3
*U8
  1

  0
TEXT
  5
AD33
  8
0
  6
CONTINUOUS
 62
     7
 10
35.654548294930002
 20
43.867831674230892
 30
0.0
 40
3.0
  1
15
 50
90.0
  0
ENDBLK
  5
AD35
  8
0
 62
     7
  0
BLOCK
  8
0
 62
     7
  2
*U9
 70
     1
 10
0.0
 20
0.0
 30
0.0
  3
*U9
  1

  0
TEXT
  5
AD37
  8
0
  6
CONTINUOUS
 62
     7
 10
80.426496479586675
 20
13.2435440796586
 30
0.0
 40
3.0
  1
72
  0
ENDBLK
  5
AD39
  8
0
 62
     7
  0
BLOCK
  8
0
 62
     7
  2
*U10
 70
     1
 10
0.0
 20
0.0
 30
0.0
  3
*U10
  1

  0
TEXT
  5
AD3B
  8
0
  6
CONTINUOUS
 62
     7
 10
31.660471075803208
 20
110.63255719191839
 30
0.0
 40
3.0
  1
100
  0
ENDBLK
  5
AD3D
  8
0
 62
     7
  0
BLOCK
  8
0
 62
     7
  2
*U11
 70
     1
 10
0.0
 20
0.0
 30
0.0
  3
*U11
  1

  0
TEXT
  5
AD3F
  8
0
  6
CONTINUOUS
 62
     7
 10
41.560149564989771
 20
69.367831674231127
 30
0.0
 40
3.0
  1
51
 50
90.0
  0
ENDBLK
  5
AD41
  8
0
 62
     7
  0
ENDSEC
  0
SECTION
  2
ENTITIES
  0
INSERT
  5
7A0D
  8
0
  6
CONTINUOUS
 62
     7
  2
*U5
 10
0.0
 20
0.0
 30
0.0
  0
INSERT
  5
84EE
  8
0
  6
CONTINUOUS
 62
     7
  2
*U6
 10
0.0
 20
0.0
 30
0.0
  0
LINE
  5
A843
  8
0
  6
CONTINUOUS
 62
     7
 10
118.9264964795874
 20
64.107831674230482
 30
0.0
 11
118.9264964795874
 21
27.627831674231071
 31
0.0
  0
LINE
  5
A845
  8
CENTER
  6
CENTER
 62
     1
 10
84.526496479587365
 20
82.667831674231735
 30
0.0
 11
84.526496479587365
 21
27.617831674231009
 31
0.0
  0
LINE
  5
A847
  8
0
  6
CONTINUOUS
 62
     7
 10
77.026496479587252
 20
29.617831674230899
 30
0.0
 11
87.026496479587252
 21
29.617831674230899
 31
0.0
  0
LINE
  5
A848
  8
CENTER
  6
CENTER
 62
     1
 10
40.926496479585403
 20
45.867831674230899
 30
0.0
 11
123.9264964795874
 21
45.867831674230779
 31
0.0
  0
LINE
  5
A84A
  8
0
  6
DASHED
 62
     3
 10
92.270305442542167
 20
38.36783167423085
 30
0.0
 11
73.582687516633612
 21
38.367831674230892
 31
0.0
  0
LINE
  5
A84B
  8
0
  6
CONTINUOUS
 62
     7
 10
87.526496479587365
 20
29.117831674230558
 30
0.0
 11
87.526496479587365
 21
29.117831674230899
 31
0.0
  0
LINE
  5
A84E
  8
0
  6
CONTINUOUS
 62
     7
 10
90.276496479587365
 20
64.067831674231712
 30
0.0
 11
78.776496479587365
 21
64.067831674231712
 31
0.0
  0
LINE
  5
A84F
  8
0
  6
CONTINUOUS
 62
     7
 10
118.4877102750032
 20
64.867831674231667
 30
0.0
 11
90.276496479587365
 21
64.867831674231667
 31
0.0
  0
LINE
  5
A850
  8
0
  6
DASHED
 62
     3
 10
92.270305442542167
 20
53.367831674230843
 30
0.0
 11
73.582687516633698
 21
53.367831674230892
 31
0.0
  0
LINE
  5
A851
  8
0
  6
CONTINUOUS
 62
     7
 10
70.026496479587252
 20
64.867831674231667
 30
0.0
 11
47.365282684169742
 21
64.867831674231667
 31
0.0
  0
LINE
  5
A853
  8
0
  6
CONTINUOUS
 62
     7
 10
78.776496479587365
 20
65.267831674231644
 30
0.0
 11
78.776496479587365
 21
64.067831674231712
 31
0.0
  0
LINE
  5
A854
  8
0
  6
CONTINUOUS
 62
     7
 10
77.726496479587752
 20
66.567831674231712
 30
0.0
 11
70.02649647958691
 21
66.567831674231712
 31
0.0
  0
LINE
  5
A855
  8
0
  6
CONTINUOUS
 62
     7
 10
75.426496479587911
 20
62.86783167423166
 30
0.0
 11
75.426496479587911
 21
62.86783167423166
 31
0.0
  0
LINE
  5
A856
  8
0
  6
CONTINUOUS
 62
     7
 10
78.226496479587965
 20
65.267831674231644
 30
0.0
 11
78.226496479587411
 21
64.867831674231667
 31
0.0
  0
LINE
  5
A857
  8
0
  6
CONTINUOUS
 62
     7
 10
70.026496479586797
 20
64.867831674231667
 30
0.0
 11
72.02649647958691
 21
62.86783167423166
 31
0.0
  0
LINE
  5
A858
  8
0
  6
CONTINUOUS
 62
     7
 10
75.52649647958782
 20
62.86783167423166
 30
0.0
 11
72.026496479587138
 21
62.86783167423166
 31
0.0
  0
LINE
  5
A859
  8
0
  6
CONTINUOUS
 62
     7
 10
75.52649647958782
 20
64.867831674231667
 30
0.0
 11
75.52649647958782
 21
62.86783167423166
 31
0.0
  0
ARC
  5
A85A
  8
0
  6
CONTINUOUS
 62
     7
 10
77.726496479587411
 20
66.067831674231712
 30
0.0
 40
0.5
 50
53.130102354227638
 51
90.0
  0
LINE
  5
A85B
  8
0
  6
CONTINUOUS
 62
     7
 10
97.626496479587374
 20
69.867831674231894
 30
0.0
 11
97.626496479587843
 21
69.76783167423153
 31
0.0
  0
LINE
  5
A85C
  8
0
  6
CONTINUOUS
 62
     7
 10
93.526496479587706
 20
69.867831674231667
 30
0.0
 11
93.526496479587365
 21
69.76783167423153
 31
0.0
  0
LINE
  5
A85D
  8
0
  6
CONTINUOUS
 62
     7
 10
92.52649647958691
 20
69.867831674231894
 30
0.0
 11
92.52649647958691
 21
69.76783167423153
 31
0.0
  0
LINE
  5
A85E
  8
0
  6
CONTINUOUS
 62
     7
 10
90.276496479587578
 20
65.267831674233463
 30
0.0
 11
90.276496479587365
 21
64.067831674231712
 31
0.0
  0
ARC
  5
A860
  8
0
  6
CONTINUOUS
 62
     7
 10
97.126496479587615
 20
69.867831674231667
 30
0.0
 40
0.5
 50
0.0
 51
90.0
  0
ARC
  5
A861
  8
0
  6
CONTINUOUS
 62
     7
 10
94.026496479587365
 20
69.867831674231667
 30
0.0
 40
0.5
 50
90.0
 51
180.0
  0
ARC
  5
A862
  8
0
  6
CONTINUOUS
 62
     7
 10
93.026496479587252
 20
69.867831674231667
 30
0.0
 40
0.5
 50
90.0
 51
180.0
  0
LINE
  5
A863
  8
0
  6
CONTINUOUS
 62
     7
 10
97.126496479587615
 20
70.367831674231667
 30
0.0
 11
93.026496479587252
 21
70.367831674231667
 31
0.0
  0
LINE
  5
A864
  8
0
  6
CONTINUOUS
 62
     7
 10
118.9264964795874
 20
64.107831674230482
 30
0.0
 11
118.4877102750032
 21
64.867831674231667
 31
0.0
  0
LINE
  5
A866
  8
0
  6
CONTINUOUS
 62
     7
 10
101.36528268417111
 20
26.867831674230899
 30
0.0
 11
118.48771027500381
 21
26.867831674230889
 31
0.0
  0
LINE
  5
A867
  8
0
  6
CONTINUOUS
 62
     7
 10
88.526496479587266
 20
28.117831674230899
 30
0.0
 11
100.9264964795874
 21
28.117831674230899
 31
0.0
  0
ARC
  5
A868
  8
0
  6
CONTINUOUS
 62
     7
 10
88.526496479587266
 20
29.117831674230899
 30
0.0
 40
1.0
 50
180.0
 51
270.0
  0
ARC
  5
A869
  8
0
  6
CONTINUOUS
 62
     7
 10
87.026496479587252
 20
29.117831674230899
 30
0.0
 40
0.5
 50
359.99999999997402
 51
90.0
  0
LINE
  5
A86D
  8
0
  6
CONTINUOUS
 62
     7
 10
75.526496479587252
 20
28.117831674230899
 30
0.0
 11
64.926496479585808
 21
28.117831674230899
 31
0.0
  0
LINE
  5
A86E
  8
0
  6
CONTINUOUS
 62
     7
 10
46.926496479585843
 20
64.107831674230567
 30
0.0
 11
46.926496479585857
 21
27.627831674231249
 31
0.0
  0
LINE
  5
A86F
  8
0
  6
CONTINUOUS
 62
     7
 10
46.926496479585843
 20
64.107831674230567
 30
0.0
 11
47.365282684169742
 21
64.867831674231667
 31
0.0
  0
LINE
  5
A870
  8
0
  6
CONTINUOUS
 62
     7
 10
76.526496479587138
 20
29.117831674230558
 30
0.0
 11
76.526496479587138
 21
29.117831674230899
 31
0.0
  0
ARC
  5
A871
  8
0
  6
CONTINUOUS
 62
     7
 10
77.026496479587252
 20
29.117831674230899
 30
0.0
 40
0.5
 50
90.0
 51
180.00000000002601
  0
ARC
  5
A872
  8
0
  6
CONTINUOUS
 62
     7
 10
75.526496479587252
 20
29.117831674230899
 30
0.0
 40
1.0
 50
270.0
 51
0.0
  0
LINE
  5
A873
  8
0
  6
CONTINUOUS
 62
     7
 10
80.52649647958782
 20
79.367831674231667
 30
0.0
 11
80.52649647958782
 21
77.767831674231175
 31
0.0
  0
LINE
  5
A874
  8
0
  6
CONTINUOUS
 62
     7
 10
88.526496479586328
 20
79.367831674233145
 30
0.0
 11
88.526496479586797
 21
77.767831674231175
 31
0.0
  0
LINE
  5
A875
  8
0
  6
CONTINUOUS
 62
     3
 10
81.403997480368318
 20
80.167831674227187
 30
0.0
 11
82.514219346752668
 21
77.767831674231175
 31
0.0
  0
LINE
  5
A876
  8
0
  6
CONTINUOUS
 62
     3
 10
87.648995478786503
 20
80.167831674231735
 30
0.0
 11
86.538773612404782
 21
77.767831674231175
 31
0.0
  0
LINE
  5
A877
  8
0
  6
CONTINUOUS
 62
     3
 10
87.849896479587358
 20
80.044431674231674
 30
0.0
 11
87.849896479587358
 21
77.767831674231175
 31
0.0
  0
LINE
  5
A878
  8
0
  6
CONTINUOUS
 62
     3
 10
81.203096479588282
 20
80.044431674231674
 30
0.0
 11
81.203096479588282
 21
77.767831674231175
 31
0.0
  0
LINE
  5
A879
  8
0
  6
CONTINUOUS
 62
     7
 10
87.726496479586956
 20
80.167831674231735
 30
0.0
 11
81.326496479587888
 21
80.167831674231735
 31
0.0
  0
LINE
  5
A87A
  8
0
  6
CONTINUOUS
 62
     7
 10
80.52649647958782
 20
79.367831674231667
 30
0.0
 11
81.403997480388341
 21
79.367831674231667
 31
0.0
  0
LINE
  5
A87B
  8
0
  6
CONTINUOUS
 62
     7
 10
80.52649647958782
 20
79.367831674231667
 30
0.0
 11
81.326496479587888
 21
80.167831674231735
 31
0.0
  0
LINE
  5
A87C
  8
0
  6
CONTINUOUS
 62
     7
 10
88.526496479587365
 20
79.367831674231667
 30
0.0
 11
87.64899547878673
 21
79.367831674231667
 31
0.0
  0
LINE
  5
A87D
  8
0
  6
CONTINUOUS
 62
     7
 10
88.526496479586328
 20
79.367831674233145
 30
0.0
 11
87.726496479586046
 21
80.167831674232744
 31
0.0
  0
LINE
  5
A87E
  8
0
  6
CONTINUOUS
 62
     7
 10
78.776496479587252
 20
64.867831674231667
 30
0.0
 11
75.526496479587706
 21
64.867831674231667
 31
0.0
  0
LINE
  5
A87F
  8
0
  6
CONTINUOUS
 62
     7
 10
78.026496479587252
 20
65.267831674228574
 30
0.0
 11
90.276496479587365
 21
65.267831674233463
 31
0.0
  0
LINE
  5
A880
  8
0
  6
CONTINUOUS
 62
     7
 10
78.026496479587252
 20
66.267831674231644
 30
0.0
 11
78.026496479587252
 21
65.267831674231644
 31
0.0
  0
LINE
  5
A881
  8
0
  6
CONTINUOUS
 62
     7
 10
78.026496479587252
 20
67.267831674231644
 30
0.0
 11
78.026496479587252
 21
66.267831674231644
 31
0.0
  0
LINE
  5
A882
  8
0
  6
CONTINUOUS
 62
     7
 10
80.526496479587252
 20
67.267831674231644
 30
0.0
 11
78.026496479587252
 21
67.267831674231644
 31
0.0
  0
LINE
  5
A883
  8
0
  6
CONTINUOUS
 62
     7
 10
91.026496479587593
 20
67.267831674231644
 30
0.0
 11
91.026496479587593
 21
66.267831674231644
 31
0.0
  0
LINE
  5
A884
  8
0
  6
CONTINUOUS
 62
     7
 10
78.026496479587252
 20
65.267831674231644
 30
0.0
 11
91.026496479587593
 21
65.267831674231644
 31
0.0
  0
LINE
  5
A885
  8
0
  6
CONTINUOUS
 62
     7
 10
78.026496479587252
 20
66.267831674231644
 30
0.0
 11
91.026496479587593
 21
66.267831674231644
 31
0.0
  0
LINE
  5
A886
  8
0
  6
CONTINUOUS
 62
     7
 10
91.026496479587593
 20
66.267831674231644
 30
0.0
 11
91.026496479587593
 21
65.267831674231644
 31
0.0
  0
LINE
  5
A887
  8
0
  6
CONTINUOUS
 62
     7
 10
54.880898585945673
 20
92.367831674231425
 30
0.0
 11
-13.2055543279814
 21
92.367831674231098
 31
0.0
  0
LINE
  5
A888
  8
0
  6
CONTINUOUS
 62
     7
 10
54.880898585946483
 20
94.867831674231439
 30
0.0
 11
-13.2055543279814
 21
94.867831674231098
 31
0.0
  0
LINE
  5
A889
  8
0
  6
CONTINUOUS
 62
     7
 10
70.960103582875888
 20
70.017831674231573
 30
0.0
 11
59.644038306760223
 21
89.617831674231255
 31
0.0
  0
LINE
  5
A88A
  8
0
  6
CONTINUOUS
 62
     7
 10
98.02649647958782
 20
69.76783167423153
 30
0.0
 11
84.526496479587365
 21
69.767831674231303
 31
0.0
  0
LINE
  5
A88B
  8
0
  6
CONTINUOUS
 62
     7
 10
98.02649647958782
 20
69.76783167423153
 30
0.0
 11
98.02649647958782
 21
67.267831674231644
 31
0.0
  0
LINE
  5
A88C
  8
0
  6
CONTINUOUS
 62
     7
 10
-13.2055543279814
 20
94.867831674231098
 30
0.0
 11
-13.2055543279814
 21
92.367831674230985
 31
0.0
  0
LINE
  5
A88D
  8
0
  6
CONTINUOUS
 62
     7
 10
98.02649647958782
 20
67.267831674231417
 30
0.0
 11
75.723243303690367
 21
67.267831674231417
 31
0.0
  0
LINE
  5
A88E
  8
0
  6
CONTINUOUS
 62
     7
 10
84.526496479587124
 20
69.767831674231417
 30
0.0
 11
75.72324330369068
 21
69.767831674231161
 31
0.0
  0
LINE
  5
A88F
  8
0
  6
CONTINUOUS
 62
     7
 10
93.526496479587365
 20
67.267831674231644
 30
0.0
 11
93.526496479587365
 21
64.867831674231667
 31
0.0
  0
LINE
  5
A890
  8
0
  6
CONTINUOUS
 62
     7
 10
92.526496479587138
 20
67.267831674231644
 30
0.0
 11
92.526496479587138
 21
64.867831674231667
 31
0.0
  0
LINE
  5
A891
  8
0
  6
CONTINUOUS
 62
     7
 10
97.626496479587843
 20
67.267831674231644
 30
0.0
 11
97.626496479587374
 21
64.867831674231667
 31
0.0
  0
LINE
  5
A892
  8
0
  6
CONTINUOUS
 62
     7
 10
84.526496479587124
 20
71.767831674231417
 30
0.0
 11
78.526496479587365
 21
71.767831674231303
 31
0.0
  0
LINE
  5
A893
  8
0
  6
CONTINUOUS
 62
     7
 10
77.526496479587365
 20
71.767831674231303
 30
0.0
 11
77.526496479587365
 21
69.767831674231303
 31
0.0
  0
LINE
  5
A894
  8
0
  6
CONTINUOUS
 62
     7
 10
80.458475994279908
 20
77.127277502964176
 30
0.0
 11
80.458475994280263
 21
72.408385845498429
 31
0.0
  0
LINE
  5
A895
  8
0
  6
CONTINUOUS
 62
     7
 10
76.417024109952706
 20
77.12727750296429
 30
0.0
 11
76.417024109952706
 21
72.408385845498429
 31
0.0
  0
LINE
  5
A896
  8
0
  6
CONTINUOUS
 62
     7
 10
77.526496479587365
 20
71.767831674231303
 30
0.0
 11
76.417024109952706
 21
72.408385845498429
 31
0.0
  0
ARC
  5
A897
  8
0
  6
CONTINUOUS
 62
     7
 10
78.437750052116428
 20
75.275453028700127
 30
0.0
 40
3.5076213544688981
 50
234.8235918541599
 51
305.17640814584001
  0
ARC
  5
A898
  8
0
  6
CONTINUOUS
 62
     7
 10
84.526496479587706
 20
85.005666252422117
 30
0.0
 40
13.23783457819092
 50
252.1032546671417
 51
270.0
  0
LINE
  5
A899
  8
0
  6
CONTINUOUS
 62
     7
 10
77.526496479587365
 20
77.767831674231175
 30
0.0
 11
76.417024109952706
 21
77.12727750296429
 31
0.0
  0
ARC
  5
A89A
  8
0
  6
CONTINUOUS
 62
     7
 10
78.437750052116428
 20
74.260210319762365
 30
0.0
 40
3.5076213544688981
 50
54.823591854159943
 51
125.1764081458401
  0
ARC
  5
A89B
  8
0
  6
CONTINUOUS
 62
     7
 10
84.526496479587706
 20
64.529997096040375
 30
0.0
 40
13.23783457819092
 50
90.0
 51
107.8967453328583
  0
LINE
  5
A89C
  8
0
  6
CONTINUOUS
 62
     7
 10
84.526496479587124
 20
77.767831674231175
 30
0.0
 11
77.526496479587365
 21
77.767831674231175
 31
0.0
  0
LINE
  5
A89D
  8
0
  6
CONTINUOUS
 62
     7
 10
84.526496479587124
 20
71.767831674231303
 30
0.0
 11
77.526496479587365
 21
71.767831674231417
 31
0.0
  0
LINE
  5
A89E
  8
0
  6
CONTINUOUS
 62
     7
 10
81.403997480388682
 20
77.767831674231175
 30
0.0
 11
81.403997480388341
 21
80.167831674231735
 31
0.0
  0
LINE
  5
A89F
  8
0
  6
CONTINUOUS
 62
     7
 10
91.526496479587365
 20
71.767831674231303
 30
0.0
 11
91.526496479587706
 21
69.767831674231303
 31
0.0
  0
LINE
  5
A8A0
  8
0
  6
CONTINUOUS
 62
     7
 10
70.02649647958691
 20
66.536460824333659
 30
0.0
 11
70.026496479587252
 21
64.867831674231326
 31
0.0
  0
POLYLINE
  8
0
  5
AD42
  62
7
  66
     1
 10
0.000000
 20
0.000000
 30
0.000000
  70
     8
  0
VERTEX
  8
0
  5
AD43
 10
91.6967
 20
67.2678
 30
0.000000
  70
    32
  0
VERTEX
  8
0
  5
AD44
 10
91.7077
 20
67.2822
 30
0.000000
  70
    32
  0
VERTEX
  8
0
  5
AD45
 10
91.7187
 20
67.2965
 30
0.000000
  70
    32
  0
VERTEX
  8
0
  5
AD46
 10
91.7297
 20
67.3108
 30
0.000000
  70
    32
  0
VERTEX
  8
0
  5
AD47
 10
91.7406
 20
67.3252
 30
0.000000
  70
    32
  0
VERTEX
  8
0
  5
AD48
 10
91.7516
 20
67.3395
 30
0.000000
  70
    32
  0
VERTEX
  8
0
  5
AD49
 10
91.7625
 20
67.3538
 30
0.000000
  70
    32
  0
VERTEX
  8
0
  5
AD4A
 10
91.7734
 20
67.3681
 30
0.000000
  70
    32
  0
VERTEX
  8
0
  5
AD4B
 10
91.7842
 20
67.3824
 30
0.000000
  70
    32
  0
VERTEX
  8
0
  5
AD4C
 10
91.7950
 20
67.3967
 30
0.000000
  70
    32
  0
VERTEX
  8
0
  5
AD4D
 10
91.8057
 20
67.4110
 30
0.000000
  70
    32
  0
VERTEX
  8
0
  5
AD4E
 10
91.8164
 20
67.4253
 30
0.000000
  70
    32
  0
VERTEX
  8
0
  5
AD4F
 10
91.8270
 20
67.4396
 30
0.000000
  70
    32
  0
VERTEX
  8
0
  5
AD50
 10
91.8375
 20
67.4539
 30
0.000000
  70
    32
  0
VERTEX
  8
0
  5
AD51
 10
91.8480
 20
67.4682
 30
0.000000
  70
    32
  0
VERTEX
  8
0
  5
AD52
 10
91.8584
 20
67.4824
 30
0.000000
  70
    32
  0
VERTEX
  8
0
  5
AD53
 10
91.8686
 20
67.4966
 30
0.000000
  70
    32
  0
VERTEX
  8
0
  5
AD54
 10
91.8788
 20
67.5109
 30
0.000000
  70
    32
  0
VERTEX
  8
0
  5
AD55
 10
91.8889
 20
67.5251
 30
0.000000
  70
    32
  0
VERTEX
  8
0
  5
AD56
 10
91.8989
 20
67.5393
 30
0.000000
  70
    32
  0
VERTEX
  8
0
  5
AD57
 10
91.9088
 20
67.5535
 30
0.000000
  70
    32
  0
VERTEX
  8
0
  5
AD58
 10
91.9185
 20
67.5677
 30
0.000000
  70
    32
  0
VERTEX
  8
0
  5
AD59
 10
91.9281
 20
67.5818
 30
0.000000
  70
    32
  0
VERTEX
  8
0
  5
AD5A
 10
91.9376
 20
67.5960
 30
0.000000
  70
    32
  0
VERTEX
  8
0
  5
AD5B
 10
91.9470
 20
67.6101
 30
0.000000
  70
    32
  0
VERTEX
  8
0
  5
AD5C
 10
91.9562
 20
67.6242
 30
0.000000
  70
    32
  0
VERTEX
  8
0
  5
AD5D
 10
91.9653
 20
67.6383
 30
0.000000
  70
    32
  0
VERTEX
  8
0
  5
AD5E
 10
91.9742
 20
67.6523
 30
0.000000
  70
    32
  0
VERTEX
  8
0
  5
AD5F
 10
91.9829
 20
67.6664
 30
0.000000
  70
    32
  0
VERTEX
  8
0
  5
AD60
 10
91.9915
 20
67.6804
 30
0.000000
  70
    32
  0
VERTEX
  8
0
  5
AD61
 10
91.9999
 20
67.6944
 30
0.000000
  70
    32
  0
VERTEX
  8
0
  5
AD62
 10
92.0081
 20
67.7084
 30
0.000000
  70
    32
  0
VERTEX
  8
0
  5
AD63
 10
92.0162
 20
67.7224
 30
0.000000
  70
    32
  0
VERTEX
  8
0
  5
AD64
 10
92.0240
 20
67.7363
 30
0.000000
  70
    32
  0
VERTEX
  8
0
  5
AD65
 10
92.0317
 20
67.7502
 30
0.000000
  70
    32
  0
VERTEX
  8
0
  5
AD66
 10
92.0391
 20
67.7641
 30
0.000000
  70
    32
  0
VERTEX
  8
0
  5
AD67
 10
92.0464
 20
67.7779
 30
0.000000
  70
    32
  0
VERTEX
  8
0
  5
AD68
 10
92.0534
 20
67.7918
 30
0.000000
  70
    32
  0
VERTEX
  8
0
  5
AD69
 10
92.0602
 20
67.8056
 30
0.000000
  70
    32
  0
VERTEX
  8
0
  5
AD6A
 10
92.0668
 20
67.8193
 30
0.000000
  70
    32
  0
VERTEX
  8
0
  5
AD6B
 10
92.0731
 20
67.8331
 30
0.000000
  70
    32
  0
VERTEX
  8
0
  5
AD6C
 10
92.0792
 20
67.8468
 30
0.000000
  70
    32
  0
VERTEX
  8
0
  5
AD6D
 10
92.0851
 20
67.8605
 30
0.000000
  70
    32
  0
VERTEX
  8
0
  5
AD6E
 10
92.0907
 20
67.8741
 30
0.000000
  70
    32
  0
VERTEX
  8
0
  5
AD6F
 10
92.0961
 20
67.8877
 30
0.000000
  70
    32
  0
VERTEX
  8
0
  5
AD70
 10
92.1012
 20
67.9013
 30
0.000000
  70
    32
  0
VERTEX
  8
0
  5
AD71
 10
92.1060
 20
67.9148
 30
0.000000
  70
    32
  0
VERTEX
  8
0
  5
AD72
 10
92.1106
 20
67.9284
 30
0.000000
  70
    32
  0
VERTEX
  8
0
  5
AD73
 10
92.1148
 20
67.9418
 30
0.000000
  70
    32
  0
VERTEX
  8
0
  5
AD74
 10
92.1188
 20
67.9553
 30
0.000000
  70
    32
  0
VERTEX
  8
0
  5
AD75
 10
92.1225
 20
67.9687
 30
0.000000
  70
    32
  0
VERTEX
  8
0
  5
AD76
 10
92.1259
 20
67.9820
 30
0.000000
  70
    32
  0
VERTEX
  8
0
  5
AD77
 10
92.1290
 20
67.9954
 30
0.000000
  70
    32
  0
VERTEX
  8
0
  5
AD78
 10
92.1318
 20
68.0086
 30
0.000000
  70
    32
  0
VERTEX
  8
0
  5
AD79
 10
92.1342
 20
68.0219
 30
0.000000
  70
    32
  0
VERTEX
  8
0
  5
AD7A
 10
92.1364
 20
68.0351
 30
0.000000
  70
    32
  0
VERTEX
  8
0
  5
AD7B
 10
92.1382
 20
68.0483
 30
0.000000
  70
    32
  0
VERTEX
  8
0
  5
AD7C
 10
92.1397
 20
68.0614
 30
0.000000
  70
    32
  0
VERTEX
  8
0
  5
AD7D
 10
92.1408
 20
68.0745
 30
0.000000
  70
    32
  0
VERTEX
  8
0
  5
AD7E
 10
92.1416
 20
68.0875
 30
0.000000
  70
    32
  0
VERTEX
  8
0
  5
AD7F
 10
92.1421
 20
68.1005
 30
0.000000
  70
    32
  0
VERTEX
  8
0
  5
AD80
 10
92.1421
 20
68.1134
 30
0.000000
  70
    32
  0
VERTEX
  8
0
  5
AD81
 10
92.1419
 20
68.1263
 30
0.000000
  70
    32
  0
VERTEX
  8
0
  5
AD82
 10
92.1412
 20
68.1392
 30
0.000000
  70
    32
  0
VERTEX
  8
0
  5
AD83
 10
92.1402
 20
68.1520
 30
0.000000
  70
    32
  0
VERTEX
  8
0
  5
AD84
 10
92.1388
 20
68.1647
 30
0.000000
  70
    32
  0
VERTEX
  8
0
  5
AD85
 10
92.1370
 20
68.1774
 30
0.000000
  70
    32
  0
VERTEX
  8
0
  5
AD86
 10
92.1348
 20
68.1901
 30
0.000000
  70
    32
  0
VERTEX
  8
0
  5
AD87
 10
92.1322
 20
68.2027
 30
0.000000
  70
    32
  0
VERTEX
  8
0
  5
AD88
 10
92.1292
 20
68.2152
 30
0.000000
  70
    32
  0
VERTEX
  8
0
  5
AD89
 10
92.1258
 20
68.2277
 30
0.000000
  70
    32
  0
VERTEX
  8
0
  5
AD8A
 10
92.1220
 20
68.2402
 30
0.000000
  70
    32
  0
VERTEX
  8
0
  5
AD8B
 10
92.1177
 20
68.2526
 30
0.000000
  70
    32
  0
VERTEX
  8
0
  5
AD8C
 10
92.1130
 20
68.2649
 30
0.000000
  70
    32
  0
VERTEX
  8
0
  5
AD8D
 10
92.1079
 20
68.2772
 30
0.000000
  70
    32
  0
VERTEX
  8
0
  5
AD8E
 10
92.1024
 20
68.2894
 30
0.000000
  70
    32
  0
VERTEX
  8
0
  5
AD8F
 10
92.0964
 20
68.3016
 30
0.000000
  70
    32
  0
VERTEX
  8
0
  5
AD90
 10
92.0900
 20
68.3137
 30
0.000000
  70
    32
  0
VERTEX
  8
0
  5
AD91
 10
92.0832
 20
68.3257
 30
0.000000
  70
    32
  0
VERTEX
  8
0
  5
AD92
 10
92.0761
 20
68.3378
 30
0.000000
  70
    32
  0
VERTEX
  8
0
  5
AD93
 10
92.0686
 20
68.3497
 30
0.000000
  70
    32
  0
VERTEX
  8
0
  5
AD94
 10
92.0607
 20
68.3617
 30
0.000000
  70
    32
  0
VERTEX
  8
0
  5
AD95
 10
92.0525
 20
68.3736
 30
0.000000
  70
    32
  0
VERTEX
  8
0
  5
AD96
 10
92.0441
 20
68.3854
 30
0.000000
  70
    32
  0
VERTEX
  8
0
  5
AD97
 10
92.0353
 20
68.3972
 30
0.000000
  70
    32
  0
VERTEX
  8
0
  5
AD98
 10
92.0263
 20
68.4090
 30
0.000000
  70
    32
  0
VERTEX
  8
0
  5
AD99
 10
92.0171
 20
68.4207
 30
0.000000
  70
    32
  0
VERTEX
  8
0
  5
AD9A
 10
92.0076
 20
68.4325
 30
0.000000
  70
    32
  0
VERTEX
  8
0
  5
AD9B
 10
91.9979
 20
68.4441
 30
0.000000
  70
    32
  0
VERTEX
  8
0
  5
AD9C
 10
91.9881
 20
68.4558
 30
0.000000
  70
    32
  0
VERTEX
  8
0
  5
AD9D
 10
91.9780
 20
68.4674
 30
0.000000
  70
    32
  0
VERTEX
  8
0
  5
AD9E
 10
91.9678
 20
68.4791
 30
0.000000
  70
    32
  0
VERTEX
  8
0
  5
AD9F
 10
91.9575
 20
68.4907
 30
0.000000
  70
    32
  0
VERTEX
  8
0
  5
ADA0
 10
91.9471
 20
68.5023
 30
0.000000
  70
    32
  0
VERTEX
  8
0
  5
ADA1
 10
91.9366
 20
68.5138
 30
0.000000
  70
    32
  0
VERTEX
  8
0
  5
ADA2
 10
91.9260
 20
68.5254
 30
0.000000
  70
    32
  0
VERTEX
  8
0
  5
ADA3
 10
91.9154
 20
68.5369
 30
0.000000
  70
    32
  0
VERTEX
  8
0
  5
ADA4
 10
91.9047
 20
68.5485
 30
0.000000
  70
    32
  0
VERTEX
  8
0
  5
ADA5
 10
91.8940
 20
68.5600
 30
0.000000
  70
    32
  0
VERTEX
  8
0
  5
ADA6
 10
91.8833
 20
68.5716
 30
0.000000
  70
    32
  0
VERTEX
  8
0
  5
ADA7
 10
91.8726
 20
68.5831
 30
0.000000
  70
    32
  0
VERTEX
  8
0
  5
ADA8
 10
91.8619
 20
68.5946
 30
0.000000
  70
    32
  0
VERTEX
  8
0
  5
ADA9
 10
91.8514
 20
68.6062
 30
0.000000
  70
    32
  0
VERTEX
  8
0
  5
ADAA
 10
91.8409
 20
68.6177
 30
0.000000
  70
    32
  0
VERTEX
  8
0
  5
ADAB
 10
91.8304
 20
68.6293
 30
0.000000
  70
    32
  0
VERTEX
  8
0
  5
ADAC
 10
91.8201
 20
68.6409
 30
0.000000
  70
    32
  0
VERTEX
  8
0
  5
ADAD
 10
91.8100
 20
68.6524
 30
0.000000
  70
    32
  0
VERTEX
  8
0
  5
ADAE
 10
91.7999
 20
68.6640
 30
0.000000
  70
    32
  0
VERTEX
  8
0
  5
ADAF
 10
91.7901
 20
68.6757
 30
0.000000
  70
    32
  0
VERTEX
  8
0
  5
ADB0
 10
91.7804
 20
68.6873
 30
0.000000
  70
    32
  0
VERTEX
  8
0
  5
ADB1
 10
91.7710
 20
68.6990
 30
0.000000
  70
    32
  0
VERTEX
  8
0
  5
ADB2
 10
91.7617
 20
68.7106
 30
0.000000
  70
    32
  0
VERTEX
  8
0
  5
ADB3
 10
91.7527
 20
68.7224
 30
0.000000
  70
    32
  0
VERTEX
  8
0
  5
ADB4
 10
91.7440
 20
68.7341
 30
0.000000
  70
    32
  0
VERTEX
  8
0
  5
ADB5
 10
91.7356
 20
68.7459
 30
0.000000
  70
    32
  0
VERTEX
  8
0
  5
ADB6
 10
91.7274
 20
68.7577
 30
0.000000
  70
    32
  0
VERTEX
  8
0
  5
ADB7
 10
91.7196
 20
68.7695
 30
0.000000
  70
    32
  0
VERTEX
  8
0
  5
ADB8
 10
91.7121
 20
68.7814
 30
0.000000
  70
    32
  0
VERTEX
  8
0
  5
ADB9
 10
91.7050
 20
68.7933
 30
0.000000
  70
    32
  0
VERTEX
  8
0
  5
ADBA
 10
91.6982
 20
68.8053
 30
0.000000
  70
    32
  0
VERTEX
  8
0
  5
ADBB
 10
91.6918
 20
68.8173
 30
0.000000
  70
    32
  0
VERTEX
  8
0
  5
ADBC
 10
91.6859
 20
68.8294
 30
0.000000
  70
    32
  0
VERTEX
  8
0
  5
ADBD
 10
91.6804
 20
68.8415
 30
0.000000
  70
    32
  0
VERTEX
  8
0
  5
ADBE
 10
91.6753
 20
68.8537
 30
0.000000
  70
    32
  0
VERTEX
  8
0
  5
ADBF
 10
91.6707
 20
68.8659
 30
0.000000
  70
    32
  0
VERTEX
  8
0
  5
ADC0
 10
91.6666
 20
68.8781
 30
0.000000
  70
    32
  0
VERTEX
  8
0
  5
ADC1
 10
91.6629
 20
68.8905
 30
0.000000
  70
    32
  0
VERTEX
  8
0
  5
ADC2
 10
91.6596
 20
68.9028
 30
0.000000
  70
    32
  0
VERTEX
  8
0
  5
ADC3
 10
91.6569
 20
68.9153
 30
0.000000
  70
    32
  0
VERTEX
  8
0
  5
ADC4
 10
91.6545
 20
68.9278
 30
0.000000
  70
    32
  0
VERTEX
  8
0
  5
ADC5
 10
91.6526
 20
68.9403
 30
0.000000
  70
    32
  0
VERTEX
  8
0
  5
ADC6
 10
91.6511
 20
68.9529
 30
0.000000
  70
    32
  0
VERTEX
  8
0
  5
ADC7
 10
91.6501
 20
68.9655
 30
0.000000
  70
    32
  0
VERTEX
  8
0
  5
ADC8
 10
91.6494
 20
68.9782
 30
0.000000
  70
    32
  0
VERTEX
  8
0
  5
ADC9
 10
91.6492
 20
68.9909
 30
0.000000
  70
    32
  0
VERTEX
  8
0
  5
ADCA
 10
91.6493
 20
69.0037
 30
0.000000
  70
    32
  0
VERTEX
  8
0
  5
ADCB
 10
91.6499
 20
69.0165
 30
0.000000
  70
    32
  0
VERTEX
  8
0
  5
ADCC
 10
91.6508
 20
69.0294
 30
0.000000
  70
    32
  0
VERTEX
  8
0
  5
ADCD
 10
91.6521
 20
69.0423
 30
0.000000
  70
    32
  0
VERTEX
  8
0
  5
ADCE
 10
91.6538
 20
69.0552
 30
0.000000
  70
    32
  0
VERTEX
  8
0
  5
ADCF
 10
91.6558
 20
69.0682
 30
0.000000
  70
    32
  0
VERTEX
  8
0
  5
ADD0
 10
91.6582
 20
69.0812
 30
0.000000
  70
    32
  0
VERTEX
  8
0
  5
ADD1
 10
91.6610
 20
69.0943
 30
0.000000
  70
    32
  0
VERTEX
  8
0
  5
ADD2
 10
91.6641
 20
69.1074
 30
0.000000
  70
    32
  0
VERTEX
  8
0
  5
ADD3
 10
91.6675
 20
69.1206
 30
0.000000
  70
    32
  0
VERTEX
  8
0
  5
ADD4
 10
91.6712
 20
69.1338
 30
0.000000
  70
    32
  0
VERTEX
  8
0
  5
ADD5
 10
91.6753
 20
69.1470
 30
0.000000
  70
    32
  0
VERTEX
  8
0
  5
ADD6
 10
91.6797
 20
69.1603
 30
0.000000
  70
    32
  0
VERTEX
  8
0
  5
ADD7
 10
91.6844
 20
69.1736
 30
0.000000
  70
    32
  0
VERTEX
  8
0
  5
ADD8
 10
91.6894
 20
69.1869
 30
0.000000
  70
    32
  0
VERTEX
  8
0
  5
ADD9
 10
91.6947
 20
69.2003
 30
0.000000
  70
    32
  0
VERTEX
  8
0
  5
ADDA
 10
91.7002
 20
69.2137
 30
0.000000
  70
    32
  0
VERTEX
  8
0
  5
ADDB
 10
91.7061
 20
69.2271
 30
0.000000
  70
    32
  0
VERTEX
  8
0
  5
ADDC
 10
91.7122
 20
69.2406
 30
0.000000
  70
    32
  0
VERTEX
  8
0
  5
ADDD
 10
91.7186
 20
69.2541
 30
0.000000
  70
    32
  0
VERTEX
  8
0
  5
ADDE
 10
91.7252
 20
69.2676
 30
0.000000
  70
    32
  0
VERTEX
  8
0
  5
ADDF
 10
91.7321
 20
69.2812
 30
0.000000
  70
    32
  0
VERTEX
  8
0
  5
ADE0
 10
91.7393
 20
69.2948
 30
0.000000
  70
    32
  0
VERTEX
  8
0
  5
ADE1
 10
91.7467
 20
69.3084
 30
0.000000
  70
    32
  0
VERTEX
  8
0
  5
ADE2
 10
91.7543
 20
69.3220
 30
0.000000
  70
    32
  0
VERTEX
  8
0
  5
ADE3
 10
91.7621
 20
69.3357
 30
0.000000
  70
    32
  0
VERTEX
  8
0
  5
ADE4
 10
91.7701
 20
69.3494
 30
0.000000
  70
    32
  0
VERTEX
  8
0
  5
ADE5
 10
91.7784
 20
69.3631
 30
0.000000
  70
    32
  0
VERTEX
  8
0
  5
ADE6
 10
91.7869
 20
69.3768
 30
0.000000
  70
    32
  0
VERTEX
  8
0
  5
ADE7
 10
91.7955
 20
69.3906
 30
0.000000
  70
    32
  0
VERTEX
  8
0
  5
ADE8
 10
91.8044
 20
69.4044
 30
0.000000
  70
    32
  0
VERTEX
  8
0
  5
ADE9
 10
91.8134
 20
69.4182
 30
0.000000
  70
    32
  0
VERTEX
  8
0
  5
ADEA
 10
91.8226
 20
69.4320
 30
0.000000
  70
    32
  0
VERTEX
  8
0
  5
ADEB
 10
91.8320
 20
69.4459
 30
0.000000
  70
    32
  0
VERTEX
  8
0
  5
ADEC
 10
91.8415
 20
69.4597
 30
0.000000
  70
    32
  0
VERTEX
  8
0
  5
ADED
 10
91.8512
 20
69.4736
 30
0.000000
  70
    32
  0
VERTEX
  8
0
  5
ADEE
 10
91.8610
 20
69.4875
 30
0.000000
  70
    32
  0
VERTEX
  8
0
  5
ADEF
 10
91.8710
 20
69.5014
 30
0.000000
  70
    32
  0
VERTEX
  8
0
  5
ADF0
 10
91.8811
 20
69.5153
 30
0.000000
  70
    32
  0
VERTEX
  8
0
  5
ADF1
 10
91.8913
 20
69.5293
 30
0.000000
  70
    32
  0
VERTEX
  8
0
  5
ADF2
 10
91.9016
 20
69.5433
 30
0.000000
  70
    32
  0
VERTEX
  8
0
  5
ADF3
 10
91.9121
 20
69.5572
 30
0.000000
  70
    32
  0
VERTEX
  8
0
  5
ADF4
 10
91.9227
 20
69.5712
 30
0.000000
  70
    32
  0
VERTEX
  8
0
  5
ADF5
 10
91.9333
 20
69.5852
 30
0.000000
  70
    32
  0
VERTEX
  8
0
  5
ADF6
 10
91.9441
 20
69.5992
 30
0.000000
  70
    32
  0
VERTEX
  8
0
  5
ADF7
 10
91.9549
 20
69.6132
 30
0.000000
  70
    32
  0
VERTEX
  8
0
  5
ADF8
 10
91.9658
 20
69.6273
 30
0.000000
  70
    32
  0
VERTEX
  8
0
  5
ADF9
 10
91.9768
 20
69.6413
 30
0.000000
  70
    32
  0
VERTEX
  8
0
  5
ADFA
 10
91.9878
 20
69.6553
 30
0.000000
  70
    32
  0
VERTEX
  8
0
  5
ADFB
 10
91.9989
 20
69.6694
 30
0.000000
  70
    32
  0
VERTEX
  8
0
  5
ADFC
 10
92.0101
 20
69.6834
 30
0.000000
  70
    32
  0
VERTEX
  8
0
  5
ADFD
 10
92.0213
 20
69.6975
 30
0.000000
  70
    32
  0
VERTEX
  8
0
  5
ADFE
 10
92.0325
 20
69.7116
 30
0.000000
  70
    32
  0
VERTEX
  8
0
  5
ADFF
 10
92.0438
 20
69.7256
 30
0.000000
  70
    32
  0
VERTEX
  8
0
  5
AE00
 10
92.0550
 20
69.7397
 30
0.000000
  70
    32
  0
VERTEX
  8
0
  5
AE01
 10
92.0663
 20
69.7538
 30
0.000000
  70
    32
  0
VERTEX
  8
0
  5
AE02
 10
92.0776
 20
69.7678
 30
0.000000
  70
    32
  0
SEQEND
  8
0
  5
AE03
  0
LINE
  5
A8A2
  8
0
  6
CONTINUOUS
 62
     7
 10
-15.20555432798117
 20
94.867831674231098
 30
0.0
 11
-15.2055543279814
 21
92.367831674231326
 31
0.0
  0
LINE
  5
A8A3
  8
0
  6
CONTINUOUS
 62
     7
 10
54.880898585946412
 20
96.867831674231624
 30
0.0
 11
-13.20555432798106
 21
96.867831674230985
 31
0.0
  0
LINE
  5
A8A4
  8
0
  6
CONTINUOUS
 62
     7
 10
54.880898585945687
 20
90.367831674231496
 30
0.0
 11
-13.2055543279814
 21
90.367831674231226
 31
0.0
  0
ARC
  5
A8A5
  8
0
  6
CONTINUOUS
 62
     7
 10
-13.20555432798106
 20
94.867831674231098
 30
0.0
 40
2.0
 50
90.0
 51
180.0
  0
ARC
  5
A8A6
  8
0
  6
CONTINUOUS
 62
     7
 10
-13.2055543279814
 20
92.367831674230985
 30
0.0
 40
2.0
 50
179.99999999999349
 51
270.0
  0
LINE
  5
A8A7
  8
0
  6
CONTINUOUS
 62
     3
 10
84.526496479587124
 20
69.767831674231417
 30
0.0
 11
83.371795941208063
 21
71.767831674231417
 31
0.0
  0
LINE
  5
A8A8
  8
0
  6
CONTINUOUS
 62
     7
 10
84.526496479587706
 20
71.767831674231303
 30
0.0
 11
91.526496479587706
 21
71.767831674231417
 31
0.0
  0
LINE
  5
A8A9
  8
0
  6
CONTINUOUS
 62
     7
 10
91.526496479587365
 20
77.767831674231175
 30
0.0
 11
92.635968849222124
 21
77.12727750296429
 31
0.0
  0
LINE
  5
A8AA
  8
0
  6
CONTINUOUS
 62
     7
 10
91.526496479587365
 20
71.767831674231303
 30
0.0
 11
92.635968849222124
 21
72.408385845498429
 31
0.0
  0
LINE
  5
A8AB
  8
0
  6
CONTINUOUS
 62
     7
 10
92.635968849222124
 20
77.12727750296429
 30
0.0
 11
92.635968849222124
 21
72.408385845498429
 31
0.0
  0
ARC
  5
A8AC
  8
0
  6
CONTINUOUS
 62
     7
 10
90.615242907058416
 20
75.275453028700127
 30
0.0
 40
3.5076213544688981
 50
234.8235918541599
 51
305.17640814584001
  0
LINE
  5
A8AD
  8
0
  6
CONTINUOUS
 62
     7
 10
88.594516964894908
 20
77.127277502964176
 30
0.0
 11
88.594516964894581
 21
72.408385845498429
 31
0.0
  0
ARC
  5
A8AE
  8
0
  6
CONTINUOUS
 62
     7
 10
90.615242907058416
 20
74.260210319762365
 30
0.0
 40
3.5076213544688981
 50
54.823591854159943
 51
125.1764081458401
  0
LINE
  5
A8AF
  8
0
  6
CONTINUOUS
 62
     7
 10
84.526496479587706
 20
77.767831674231175
 30
0.0
 11
91.526496479587365
 21
77.767831674231175
 31
0.0
  0
ARC
  5
A8B0
  8
0
  6
CONTINUOUS
 62
     7
 10
84.526496479587124
 20
64.529997096040375
 30
0.0
 40
13.23783457819092
 50
72.103254667141684
 51
90.0
  0
ARC
  5
A8B1
  8
0
  6
CONTINUOUS
 62
     7
 10
84.526496479587124
 20
85.005666252422117
 30
0.0
 40
13.23783457819092
 50
270.0
 51
287.8967453328583
  0
LINE
  5
A8B2
  8
0
  6
CONTINUOUS
 62
     7
 10
87.648995478786503
 20
77.767831674231175
 30
0.0
 11
87.648995478786503
 21
80.167831674231977
 31
0.0
  0
LINE
  5
A8B3
  8
0
  6
CONTINUOUS
 62
     3
 10
85.526496479587365
 20
69.767831674231417
 30
0.0
 11
84.371795941208063
 21
71.767831674231417
 31
0.0
  0
CIRCLE
  5
A8BE
  8
0
  6
CONTINUOUS
 62
     7
 10
159.05723902606371
 20
45.867831674230899
 30
0.0
 40
17.416613737709401
  0
POLYLINE
  5
A8BF
  8
0
  6
CONTINUOUS
 62
     7
 66
     1
 10
0.0
 20
0.0
 30
0.0
  0
VERTEX
  5
AD1C
  8
0
  6
CONTINUOUS
 62
     7
 10
168.6404743878812
 20
26.867831674230899
 30
0.0
  0
VERTEX
  5
AD1D
  8
0
  6
CONTINUOUS
 62
     7
 10
149.4740036642454
 20
26.867831674230899
 30
0.0
  0
SEQEND
  5
AD1E
  8
0
  6
CONTINUOUS
 62
     7
  0
POLYLINE
  5
A8C0
  8
0
  6
CONTINUOUS
 62
     7
 66
     1
 10
0.0
 20
0.0
 30
0.0
  0
VERTEX
  5
AD1F
  8
0
  6
CONTINUOUS
 62
     7
 10
168.6404743878812
 20
64.867831674230899
 30
0.0
  0
VERTEX
  5
AD20
  8
0
  6
CONTINUOUS
 62
     7
 10
149.4740036642454
 20
64.867831674230899
 30
0.0
  0
SEQEND
  5
AD21
  8
0
  6
CONTINUOUS
 62
     7
  0
ARC
  5
A8C1
  8
0
  6
CONTINUOUS
 62
     7
 10
159.05723902606371
 20
45.867831674230899
 30
0.0
 40
21.280000000000001
 50
56.765500576749439
 51
63.234499423248501
  0
POLYLINE
  5
A8C2
  8
0
  6
CONTINUOUS
 62
     7
 66
     1
 10
0.0
 20
0.0
 30
0.0
  0
VERTEX
  5
AD22
  8
0
  6
CONTINUOUS
 62
     7
 10
180.3033393788769
 20
47.068506400451248
 30
0.0
  0
VERTEX
  5
AD23
  8
0
  6
CONTINUOUS
 62
     7
 10
170.7201040170591
 20
63.667156948010188
 30
0.0
  0
SEQEND
  5
AD24
  8
0
  6
CONTINUOUS
 62
     7
  0
ARC
  5
A8C3
  8
0
  6
CONTINUOUS
 62
     7
 10
159.05723902606371
 20
45.867831674230899
 30
0.0
 40
21.280000000000001
 50
356.76550057675342
 51
3.2344994232401079
  0
ARC
  5
A8C4
  8
0
  6
CONTINUOUS
 62
     7
 10
159.05723902606371
 20
45.867831674230899
 30
0.0
 40
21.280000000000001
 50
296.76550057675149
 51
303.23449942325061
  0
POLYLINE
  5
A8C5
  8
0
  6
CONTINUOUS
 62
     7
 66
     1
 10
0.0
 20
0.0
 30
0.0
  0
VERTEX
  5
AD25
  8
0
  6
CONTINUOUS
 62
     7
 10
170.7201040170591
 20
28.068506400451248
 30
0.0
  0
VERTEX
  5
AD26
  8
0
  6
CONTINUOUS
 62
     7
 10
180.3033393788769
 20
44.667156948010188
 30
0.0
  0
SEQEND
  5
AD27
  8
0
  6
CONTINUOUS
 62
     7
  0
ARC
  5
A8C6
  8
0
  6
CONTINUOUS
 62
     7
 10
159.05723902606371
 20
45.867831674230899
 30
0.0
 40
21.280000000000001
 50
236.7655005767493
 51
243.23449942324839
  0
POLYLINE
  5
A8C7
  8
0
  6
CONTINUOUS
 62
     7
 66
     1
 10
0.0
 20
0.0
 30
0.0
  0
VERTEX
  5
AD28
  8
0
  6
CONTINUOUS
 62
     7
 10
137.8111386732501
 20
44.667156948010188
 30
0.0
  0
VERTEX
  5
AD29
  8
0
  6
CONTINUOUS
 62
     7
 10
147.3943740350681
 20
28.068506400451248
 30
0.0
  0
SEQEND
  5
AD2A
  8
0
  6
CONTINUOUS
 62
     7
  0
ARC
  5
A8C8
  8
0
  6
CONTINUOUS
 62
     7
 10
159.05723902606371
 20
45.867831674230899
 30
0.0
 40
21.280000000000001
 50
176.76550057675331
 51
183.23449942324649
  0
ARC
  5
A8C9
  8
0
  6
CONTINUOUS
 62
     7
 10
159.05723902606371
 20
45.867831674230899
 30
0.0
 40
21.280000000000001
 50
116.76550057675151
 51
123.2344994232505
  0
POLYLINE
  5
A8CA
  8
0
  6
CONTINUOUS
 62
     7
 66
     1
 10
0.0
 20
0.0
 30
0.0
  0
VERTEX
  5
AD2B
  8
0
  6
CONTINUOUS
 62
     7
 10
147.3943740350681
 20
63.667156948010188
 30
0.0
  0
VERTEX
  5
AD2C
  8
0
  6
CONTINUOUS
 62
     7
 10
137.8111386732501
 20
47.068506400451248
 30
0.0
  0
SEQEND
  5
AD2D
  8
0
  6
CONTINUOUS
 62
     7
  0
CIRCLE
  5
A8CB
  8
0
  6
CONTINUOUS
 62
     7
 10
159.05723902606371
 20
45.867831674230899
 30
0.0
 40
18.23999999999965
  0
CIRCLE
  5
A8CC
  8
0
  6
CONTINUOUS
 62
     7
 10
159.05723902606371
 20
45.867831674230899
 30
0.0
 40
7.2199999999999989
  0
LINE
  5
A8CD
  8
CENTER
  6
CENTER
 62
     1
 10
133.9772390260637
 20
45.867831674230899
 30
0.0
 11
184.1372390260637
 21
45.867831674230899
 31
0.0
  0
LINE
  5
A8CE
  8
CENTER
  6
CENTER
 62
     1
 10
159.05723902606371
 20
68.667831674230911
 30
0.0
 11
159.05723902606371
 21
23.067831674230892
 31
0.0
  0
CIRCLE
  5
A8CF
  8
0
  6
CONTINUOUS
 62
     3
 10
159.05723902606371
 20
45.867831674230899
 30
0.0
 40
16.85615542023368
  0
CIRCLE
  5
A8D0
  8
0
  6
CONTINUOUS
 62
     7
 10
159.05723902606371
 20
45.867831674230899
 30
0.0
 40
15.330959221467619
  0
LINE
  5
A8D5
  8
0
  6
CONTINUOUS
 62
     7
 10
73.125167092337193
 20
71.267831674231331
 30
0.0
 11
61.809101816222423
 21
90.867831674231056
 31
0.0
  0
LINE
  5
A8E0
  8
0
  6
CONTINUOUS
 62
     7
 10
159.05723902606371
 20
54.204769561328668
 30
0.0
 11
151.8372390260638
 21
50.036300617779872
 31
0.0
  0
LINE
  5
A8E1
  8
0
  6
CONTINUOUS
 62
     7
 10
151.8372390260638
 20
50.036300617779872
 30
0.0
 11
151.8372390260638
 21
41.699362730681919
 31
0.0
  0
LINE
  5
A8E2
  8
0
  6
CONTINUOUS
 62
     7
 10
151.8372390260638
 20
41.699362730681919
 30
0.0
 11
159.05723902606371
 21
37.530893787132598
 31
0.0
  0
LINE
  5
A8E3
  8
0
  6
CONTINUOUS
 62
     7
 10
159.05723902606371
 20
37.530893787132598
 30
0.0
 11
166.27723902606331
 21
41.699362730681742
 31
0.0
  0
LINE
  5
A8E4
  8
0
  6
CONTINUOUS
 62
     7
 10
166.27723902606331
 20
41.699362730681742
 30
0.0
 11
166.27723902606331
 21
50.036300617779531
 31
0.0
  0
LINE
  5
A8E5
  8
0
  6
CONTINUOUS
 62
     7
 10
166.27723902606331
 20
50.036300617779531
 30
0.0
 11
159.05723902606371
 21
54.204769561328838
 31
0.0
  0
LINE
  5
A8EF
  8
0
  6
CONTINUOUS
 62
     7
 10
100.9264964795874
 20
27.627831674231249
 30
0.0
 11
100.9264964795874
 21
64.867831674231667
 31
0.0
  0
LINE
  5
A8F0
  8
0
  6
CONTINUOUS
 62
     7
 10
64.926496479585865
 20
64.86783167423161
 30
0.0
 11
64.926496479585865
 21
27.627831674231249
 31
0.0
  0
ARC
  5
AA87
  8
0
  6
CONTINUOUS
 62
     7
 10
75.723243303690595
 20
72.767831674231161
 30
0.0
 40
3.0
 50
209.99999999999619
 51
270.00000000000171
  0
ARC
  5
AA88
  8
0
  6
CONTINUOUS
 62
     7
 10
75.723243303690367
 20
72.767831674231417
 30
0.0
 40
5.5
 50
209.99999999999821
 51
270.0
  0
ARC
  5
AA89
  8
0
  6
CONTINUOUS
 62
     7
 10
54.880898585945701
 20
86.867831674231425
 30
0.0
 40
5.5
 50
29.999999999998192
 51
90.000000000000298
  0
ARC
  5
AA8A
  8
0
  6
CONTINUOUS
 62
     7
 10
54.880898585946532
 20
86.867831674231425
 30
0.0
 40
8.0
 50
29.999999999996248
 51
90.000000000000327
  0
ARC
  5
AA8B
  8
0
  6
CONTINUOUS
 62
     7
 10
54.880898585945701
 20
86.867831674231425
 30
0.0
 40
3.5
 50
42.839588406902337
 51
90.000000000000298
  0
ARC
  5
AA8C
  8
0
  6
CONTINUOUS
 62
     7
 10
54.880898585946532
 20
86.867831674231425
 30
0.0
 40
10.0
 50
36.37937020843907
 51
90.000000000000327
  0
LINE
  5
AA8D
  8
0
  6
CONTINUOUS
 62
     7
 10
59.644038306760208
 20
89.617831674231255
 30
0.0
 11
58.680569624338432
 21
89.061572771079312
 31
0.0
  0
LINE
  5
AA8E
  8
0
  6
CONTINUOUS
 62
     7
 10
61.809101816222302
 20
90.867831674230985
 30
0.0
 11
62.626865278361663
 21
91.339967629230514
 31
0.0
  0
ARC
  5
AA8F
  8
0
  6
CONTINUOUS
 62
     7
 10
58.180569624338467
 20
89.927598174863775
 30
0.0
 40
1.0
 50
222.8395884069021
 51
299.9999999999971
  0
ARC
  5
AA90
  8
0
  6
CONTINUOUS
 62
     7
 10
62.126865278361699
 20
92.205993033014991
 30
0.0
 40
1.0
 50
299.99999999999608
 51
36.379370208438559
  0
LINE
  5
AB56
  8
0
  6
DASHED
 62
     3
 10
49.340936944967822
 20
60.79337504369289
 30
0.0
 11
49.340936944967822
 21
30.942288304768709
 31
0.0
  0
LINE
  5
AB58
  8
0
  6
DASHED
 62
     3
 10
46.926496479588387
 20
28.451217936521498
 30
0.0
 11
49.340936944967822
 21
30.942288304768709
 31
0.0
  0
LINE
  5
AB59
  8
0
  6
DASHED
 62
     3
 10
46.926496479588387
 20
63.284445411940467
 30
0.0
 11
49.340936944967822
 21
60.79337504369289
 31
0.0
  0
LINE
  5
AB5A
  8
0
  6
DASHED
 62
     3
 10
71.082687516633698
 20
61.98608167423081
 30
0.0
 11
71.082687516633698
 21
29.749581674230811
 31
0.0
  0
LINE
  5
ABF3
  8
0
  6
DASHED
 62
     3
 10
48.947992429684533
 20
61.198790895698103
 30
0.0
 11
73.582687516633683
 21
60.428956674230882
 31
0.0
  0
LINE
  5
ABF4
  8
0
  6
DASHED
 62
     3
 10
47.469714069151998
 20
62.723987094464349
 30
0.0
 11
71.082687516633698
 21
61.986081674230597
 31
0.0
  0
LINE
  5
ABF5
  8
0
  6
DASHED
 62
     3
 10
73.582687516633698
 20
31.306706674230941
 30
0.0
 11
48.947992429684241
 21
30.53687245276328
 31
0.0
  0
LINE
  5
ABF6
  8
0
  6
DASHED
 62
     3
 10
71.082687516633698
 20
29.749581674230559
 30
0.0
 11
47.469714069151699
 21
29.011676253997209
 31
0.0
  0
LINE
  5
ABF8
  8
0
  6
DASHED
 62
     3
 10
73.582687516633683
 20
60.428956674230882
 30
0.0
 11
73.582687516633698
 21
31.306706674230941
 31
0.0
  0
LINE
  5
AC4C
  8
0
  6
CONTINUOUS
 62
     7
 10
118.9264964795874
 20
27.627831674231071
 30
0.0
 11
118.48771027500381
 21
26.867831674230889
 31
0.0
  0
LINE
  5
AC56
  8
0
  6
CONTINUOUS
 62
     7
 10
100.9264964795874
 20
27.627831674231071
 30
0.0
 11
101.36528268417111
 21
26.867831674230889
 31
0.0
  0
LINE
  5
AC57
  8
0
  6
CONTINUOUS
 62
     7
 10
47.365282684169372
 20
26.867831674230889
 30
0.0
 11
64.487710275002044
 21
26.867831674230889
 31
0.0
  0
LINE
  5
AC58
  8
0
  6
CONTINUOUS
 62
     7
 10
64.926496479585708
 20
27.627831674231071
 30
0.0
 11
64.487710275002044
 21
26.867831674230889
 31
0.0
  0
LINE
  5
AC59
  8
0
  6
CONTINUOUS
 62
     7
 10
46.926496479585701
 20
27.627831674231071
 30
0.0
 11
47.365282684169372
 21
26.867831674230889
 31
0.0
  0
LINE
  5
AC63
  8
0
  6
DASHED
 62
     3
 10
116.512056014208
 20
60.793375043692897
 30
0.0
 11
116.512056014208
 21
30.94228830476872
 31
0.0
  0
LINE
  5
AC64
  8
0
  6
DASHED
 62
     3
 10
118.9264964795874
 20
28.451217936521509
 30
0.0
 11
116.512056014208
 21
30.94228830476872
 31
0.0
  0
LINE
  5
AC65
  8
0
  6
DASHED
 62
     3
 10
118.9264964795874
 20
63.284445411940467
 30
0.0
 11
116.512056014208
 21
60.793375043692897
 31
0.0
  0
LINE
  5
AC66
  8
0
  6
DASHED
 62
     3
 10
94.770305442542167
 20
61.98608167423081
 30
0.0
 11
94.770305442542167
 21
29.749581674230821
 31
0.0
  0
LINE
  5
AC67
  8
0
  6
DASHED
 62
     3
 10
92.270305442542167
 20
60.428956674230889
 30
0.0
 11
92.270305442542167
 21
31.306706674230949
 31
0.0
  0
LINE
  5
AC68
  8
0
  6
DASHED
 62
     3
 10
116.9050005294913
 20
61.198790895698103
 30
0.0
 11
92.270305442542167
 21
60.428956674230889
 31
0.0
  0
LINE
  5
AC69
  8
0
  6
DASHED
 62
     3
 10
118.3832788900238
 20
62.723987094464363
 30
0.0
 11
94.770305442542167
 21
61.986081674230597
 31
0.0
  0
LINE
  5
AC6A
  8
0
  6
DASHED
 62
     3
 10
92.270305442542167
 20
31.306706674230949
 30
0.0
 11
116.9050005294916
 21
30.536872452763291
 31
0.0
  0
LINE
  5
AC6B
  8
0
  6
DASHED
 62
     3
 10
94.770305442542167
 20
29.749581674230569
 30
0.0
 11
118.3832788900241
 21
29.011676253997219
 31
0.0
  0
CIRCLE
  5
AC70
  8
0
  6
CONTINUOUS
 62
     7
 10
159.05723902606371
 20
45.867831674230899
 30
0.0
 40
14.56112499999999
  0
ENDSEC
  0
EOF
