  0
SECTION
  2
HEADER
  9
$ACADVER
  1
AC1009
  9
$INSBASE
 10
0.0
 20
0.0
 30
0.0
  9
$EXTMIN
 10
34.970476388851843
 20
302.68599031009512
 30
0.0
  9
$EXTMAX
 10
91.9975675022594
 20
404.34307244234361
 30
0.0
  9
$LIMMIN
 10
0.0
 20
0.0
  9
$LIMMAX
 10
297.0
 20
210.0
  9
$ORTHOMODE
 70
     0
  9
$REGENMODE
 70
     1
  9
$FILLMODE
 70
     1
  9
$QTEXTMODE
 70
     0
  9
$MIRRTEXT
 70
     1
  9
$DRAGMODE
 70
     2
  9
$LTSCALE
 40
1.0
  9
$OSMODE
 70
   951
  9
$ATTMODE
 70
     1
  9
$TEXTSIZE
 40
6.4000000000000012
  9
$TRACEWID
 40
0.05
  9
$TEXTSTYLE
  7
STANDARD
  9
$CLAYER
  8
0
  9
$CELTYPE
  6
CONTINUOUS
  9
$CECOLOR
 62
     7
  9
$DIMSCALE
 40
1.0
  9
$DIMASZ
 40
3.0
  9
$DIMEXO
 40
1.0
  9
$DIMDLI
 40
0.0
  9
$DIMRND
 40
0.0
  9
$DIMDLE
 40
0.0
  9
$DIMEXE
 40
1.0
  9
$DIMTP
 40
0.0
  9
$DIMTM
 40
0.0
  9
$DIMTXT
 40
3.0
  9
$DIMCEN
 40
0.0
  9
$DIMTSZ
 40
0.0
  9
$DIMTOL
 70
     0
  9
$DIMLIM
 70
     0
  9
$DIMTIH
 70
     0
  9
$DIMTOH
 70
     0
  9
$DIMSE1
 70
     0
  9
$DIMSE2
 70
     0
  9
$DIMTAD
 70
     1
  9
$DIMZIN
 70
     8
  9
$DIMBLK
  1

  9
$DIMASO
 70
     1
  9
$DIMSHO
 70
     1
  9
$DIMPOST
  1

  9
$DIMAPOST
  1

  9
$DIMALT
 70
     0
  9
$DIMALTD
 70
     2
  9
$DIMALTF
 40
0.04
  9
$DIMLFAC
 40
1.0
  9
$DIMTOFL
 70
     1
  9
$DIMTVP
 40
1.0
  9
$DIMTIX
 70
     0
  9
$DIMSOXD
 70
     0
  9
$DIMSAH
 70
     0
  9
$DIMBLK1
  1

  9
$DIMBLK2
  1

  9
$DIMSTYLE
  2
MISUMI
  9
$DIMCLRD
 70
     0
  9
$DIMCLRE
 70
     0
  9
$DIMCLRT
 70
     0
  9
$DIMTFAC
 40
0.6
  9
$DIMGAP
 40
1.0
  9
$LUNITS
 70
     2
  9
$LUPREC
 70
     4
  9
$SKETCHINC
 40
0.1
  9
$FILLETRAD
 40
0.0
  9
$AUNITS
 70
     0
  9
$AUPREC
 70
     0
  9
$MENU
  1
acad
  9
$ELEVATION
 40
0.0
  9
$PELEVATION
 40
0.0
  9
$THICKNESS
 40
0.0
  9
$LIMCHECK
 70
     0
  9
$BLIPMODE
 70
     0
  9
$CHAMFERA
 40
0.5
  9
$CHAMFERB
 40
0.5
  9
$SKPOLY
 70
     0
  9
$TDCREATE
 40
2451464.60066493
  9
$TDUPDATE
 40
2453775.451565926
  9
$TDINDWG
 40
0.5089239931
  9
$TDUSRTIMER
 40
0.5089185417
  9
$USRTIMER
 70
     1
  9
$ANGBASE
 50
0.0
  9
$ANGDIR
 70
     0
  9
$PDMODE
 70
     0
  9
$PDSIZE
 40
0.0
  9
$PLINEWID
 40
0.0
  9
$COORDS
 70
     0
  9
$SPLFRAME
 70
     0
  9
$SPLINETYPE
 70
     6
  9
$SPLINESEGS
 70
     8
  9
$ATTDIA
 70
     0
  9
$ATTREQ
 70
     1
  9
$HANDLING
 70
 22529
  9
$HANDSEED
  5
17FD1
  9
$SURFTAB1
 70
     6
  9
$SURFTAB2
 70
     6
  9
$SURFTYPE
 70
     6
  9
$SURFU
 70
     6
  9
$SURFV
 70
     6
  9
$UCSNAME
  2

  9
$UCSORG
 10
0.0
 20
0.0
 30
0.0
  9
$UCSXDIR
 10
1.0
 20
0.0
 30
0.0
  9
$UCSYDIR
 10
0.0
 20
1.0
 30
0.0
  9
$PUCSNAME
  2

  9
$PUCSORG
 10
0.0
 20
0.0
 30
0.0
  9
$PUCSXDIR
 10
1.0
 20
0.0
 30
0.0
  9
$PUCSYDIR
 10
0.0
 20
1.0
 30
0.0
  9
$USERI1
 70
     0
  9
$USERI2
 70
     0
  9
$USERI3
 70
     0
  9
$USERI4
 70
     0
  9
$USERI5
 70
     0
  9
$USERR1
 40
0.0
  9
$USERR2
 40
0.0
  9
$USERR3
 40
0.0
  9
$USERR4
 40
0.0
  9
$USERR5
 40
0.0
  9
$WORLDVIEW
 70
     1
  9
$SHADEDGE
 70
     3
  9
$SHADEDIF
 70
    70
  9
$TILEMODE
 70
     1
  9
$MAXACTVP
 70
    16
  9
$PLIMCHECK
 70
     0
  9
$PEXTMIN
 10
1.0000000000000000E+020
 20
1.0000000000000000E+020
 30
1.0000000000000000E+020
  9
$PEXTMAX
 10
-1.0000000000000000E+020
 20
-1.0000000000000000E+020
 30
-1.0000000000000000E+020
  9
$PLIMMIN
 10
0.0
 20
0.0
  9
$PLIMMAX
 10
12.0
 20
9.0
  9
$UNITMODE
 70
     0
  9
$VISRETAIN
 70
     0
  9
$PLINEGEN
 70
     0
  9
$PSLTSCALE
 70
     1
  0
ENDSEC
  0
SECTION
  2
TABLES
  0
TABLE
  2
VPORT
 70
     2
  0
VPORT
  2
*ACTIVE
 70
     0
 10
0.0
 20
0.0
 11
1.0
 21
1.0
 12
113.4272532391365
 22
354.41469105248422
 13
0.0
 23
0.0
 14
10.0
 24
10.0
 15
10.0
 25
10.0
 16
0.0
 26
0.0
 36
1.0
 17
0.0
 27
0.0
 37
0.0
 40
136.75439734337681
 41
1.482558139534883
 42
50.0
 43
0.0
 44
0.0
 50
0.0
 51
0.0
 71
     0
 72
   100
 73
     1
 74
     0
 75
     0
 76
     0
 77
     0
 78
     0
  0
ENDTAB
  0
TABLE
  2
LTYPE
 70
     5
  0
LTYPE
  2
CONTINUOUS
 70
     0
  3
Solid line
 72
    65
 73
     0
 40
0.0
  0
LTYPE
  2
CENTER
 70
     0
  3
Center ____ _ ____ _ ____ _ ____ _ ____ _ ____
 72
    65
 73
     4
 40
2.0
 49
1.25
 49
-0.25
 49
0.25
 49
-0.25
  0
LTYPE
  2
DASHED
 70
     0
  3
Dashed __ __ __ __ __ __ __ __ __ __ __ __ __ _
 72
    65
 73
     2
 40
0.75
 49
0.5
 49
-0.25
  0
ENDTAB
  0
TABLE
  2
LAYER
 70
     8
  0
LAYER
  2
0
 70
     0
 62
     7
  6
CONTINUOUS
  0
LAYER
  2
DEFPOINTS
 70
     0
 62
     7
  6
CONTINUOUS
  0
LAYER
  2
CENTER
 70
     0
 62
     1
  6
CENTER
  0
ENDTAB
  0
TABLE
  2
STYLE
 70
     3
  0
STYLE
  2
STANDARD
 70
     0
 40
0.0
 41
1.0
 50
0.0
 71
     0
 42
6.4000000000000012
  3
txt
  4

  0
ENDTAB
  0
TABLE
  2
VIEW
 70
     0
  0
ENDTAB
  0
TABLE
  2
UCS
 70
     0
  0
ENDTAB
  0
TABLE
  2
APPID
 70
     1
  0
APPID
  2
ACAD
 70
     0
  0
ENDTAB
  0
TABLE
  2
DIMSTYLE
 70
     3
  0
DIMSTYLE
  2
MISUMI
 70
     0
  3

  4

  5

  6

  7

 40
1.0
 41
3.0
 42
1.0
 43
0.0
 44
1.0
 45
0.0
 46
0.0
 47
0.0
 48
0.0
140
3.0
141
0.0
142
0.0
143
0.04
144
1.0
145
1.0
146
0.6
147
1.0
 71
     0
 72
     0
 73
     0
 74
     0
 75
     0
 76
     0
 77
     1
 78
     8
170
     0
171
     2
172
     1
173
     0
174
     0
175
     0
176
     0
177
     0
178
     0
  0
ENDTAB
  0
ENDSEC
  0
SECTION
  2
BLOCKS
  0
BLOCK
  8
0
  2
$MODEL_SPACE
 70
     0
 10
0.0
 20
0.0
 30
0.0
  3
$MODEL_SPACE
  1

  0
ENDBLK
  5
15376
  8
0
  0
BLOCK
 67
     1
  8
0
  2
$PAPER_SPACE
 70
     0
 10
0.0
 20
0.0
 30
0.0
  3
$PAPER_SPACE
  1

  0
ENDBLK
  5
15372
 67
     1
  8
0
  0
ENDSEC
  0
SECTION
  2
ENTITIES
  0
TEXT
  5
17F86
  8
0
  6
CONTINUOUS
 62
     7
 10
51.182960218838708
 20
308.42575598485467
 30
0.0
 40
3.2000000000000002
  1
NJTB4-0.7-B5
  0
TEXT
  5
17F87
  8
0
  6
CONTINUOUS
 62
     7
 10
51.182960218838708
 20
302.68599031009512
 30
0.0
 40
3.2000000000000002
  1
NJTB0407
  0
LINE
  5
17F88
  8
0
  6
CONTINUOUS
 62
     7
 10
81.9975675022594
 20
352.84307244234373
 30
0.0
 11
52.997567502259429
 21
352.84307244234373
 31
0.0
  0
LINE
  5
17F89
  8
0
  6
CONTINUOUS
 62
     7
 10
81.9975675022594
 20
342.84307244234373
 30
0.0
 11
52.997567502259429
 21
342.84307244234373
 31
0.0
  0
LINE
  5
17F8A
  8
0
  6
DASHED
 62
     3
 10
81.9975675022594
 20
345.84307244234373
 30
0.0
 11
75.9975675022594
 21
345.84307244234373
 31
0.0
  0
LINE
  5
17F8B
  8
0
  6
DASHED
 62
     3
 10
81.9975675022594
 20
346.22207244234369
 30
0.0
 11
74.797567502259426
 21
346.22207244234369
 31
0.0
  0
LINE
  5
17F8C
  8
0
  6
DASHED
 62
     3
 10
81.9975675022594
 20
349.46407244234359
 30
0.0
 11
74.797567502259426
 21
349.46407244234359
 31
0.0
  0
LINE
  5
17F8D
  8
0
  6
DASHED
 62
     3
 10
81.9975675022594
 20
349.84307244234373
 30
0.0
 11
75.9975675022594
 21
349.84307244234373
 31
0.0
  0
LINE
  5
17F8E
  8
CENTER
  6
CENTER
 62
     1
 10
84.997567502259386
 20
347.84307244234373
 30
0.0
 11
47.997567502259407
 21
347.84307244234373
 31
0.0
  0
LINE
  5
17F8F
  8
0
  6
CONTINUOUS
 62
     7
 10
81.9975675022594
 20
347.84307244234373
 30
0.0
 11
81.9975675022594
 21
342.84307244234373
 31
0.0
  0
LINE
  5
17F90
  8
0
  6
CONTINUOUS
 62
     7
 10
81.9975675022594
 20
347.84307244234373
 30
0.0
 11
81.9975675022594
 21
352.84307244234373
 31
0.0
  0
LINE
  5
17F91
  8
0
  6
CONTINUOUS
 62
     7
 10
52.997567502259429
 20
342.84307244234373
 30
0.0
 11
50.997567502259407
 21
344.84307244234373
 31
0.0
  0
LINE
  5
17F92
  8
0
  6
DASHED
 62
     3
 10
66.997567502259429
 20
342.84307244234373
 30
0.0
 11
66.997567502259429
 21
347.84307244234373
 31
0.0
  0
LINE
  5
17F93
  8
CENTER
  6
CENTER
 62
     1
 10
56.9975675022594
 20
342.84307244234373
 30
0.0
 11
56.9975675022594
 21
352.84307244234373
 31
0.0
  0
LINE
  5
17F94
  8
0
  6
DASHED
 62
     3
 10
66.997567502259429
 20
352.84307244234373
 30
0.0
 11
66.997567502259429
 21
347.84307244234373
 31
0.0
  0
LINE
  5
17F95
  8
0
  6
DASHED
 62
     3
 10
74.797567502259426
 20
349.46407244234359
 30
0.0
 11
73.861682715903044
 21
347.84307244234373
 31
0.0
  0
LINE
  5
17F96
  8
0
  6
DASHED
 62
     3
 10
74.797567502259426
 20
349.46407244234359
 30
0.0
 11
74.797567502259426
 21
347.84307244234373
 31
0.0
  0
LINE
  5
17F97
  8
0
  6
DASHED
 62
     3
 10
75.9975675022594
 20
349.84307244234373
 30
0.0
 11
75.9975675022594
 21
347.84307244234373
 31
0.0
  0
LINE
  5
17F98
  8
0
  6
DASHED
 62
     3
 10
75.9975675022594
 20
345.84307244234373
 30
0.0
 11
75.9975675022594
 21
347.84307244234373
 31
0.0
  0
LINE
  5
17F99
  8
0
  6
DASHED
 62
     3
 10
74.797567502259426
 20
346.22207244234369
 30
0.0
 11
74.797567502259426
 21
347.84307244234373
 31
0.0
  0
LINE
  5
17F9A
  8
0
  6
DASHED
 62
     3
 10
74.797567502259426
 20
346.22207244234369
 30
0.0
 11
73.861682715903044
 21
347.84307244234373
 31
0.0
  0
CIRCLE
  5
17F9B
  8
0
  6
CONTINUOUS
 62
     7
 10
56.997567502259443
 20
347.84307244234373
 30
0.0
 40
2.5
  0
LINE
  5
17F9C
  8
0
  6
CONTINUOUS
 62
     7
 10
52.997567502259429
 20
352.84307244234373
 30
0.0
 11
50.997567502259407
 21
350.84307244234373
 31
0.0
  0
LINE
  5
17F9D
  8
0
  6
CONTINUOUS
 62
     7
 10
50.997567502259407
 20
350.84307244234373
 30
0.0
 11
50.997567502259407
 21
347.84307244234373
 31
0.0
  0
LINE
  5
17F9E
  8
0
  6
CONTINUOUS
 62
     7
 10
50.997567502259407
 20
344.84307244234373
 30
0.0
 11
50.997567502259407
 21
347.84307244234373
 31
0.0
  0
LINE
  5
17F9F
  8
0
  6
CONTINUOUS
 62
     7
 10
81.9975675022594
 20
400.84307244234361
 30
0.0
 11
50.997567502259407
 21
400.84307244234373
 31
0.0
  0
LINE
  5
17FA0
  8
0
  6
CONTINUOUS
 62
     7
 10
81.9975675022594
 20
390.84307244234361
 30
0.0
 11
50.997567502259407
 21
390.84307244234361
 31
0.0
  0
LINE
  5
17FA1
  8
0
  6
DASHED
 62
     3
 10
81.9975675022594
 20
393.84307244234361
 30
0.0
 11
75.9975675022594
 21
393.84307244234373
 31
0.0
  0
LINE
  5
17FA2
  8
0
  6
DASHED
 62
     3
 10
81.9975675022594
 20
394.22207244234369
 30
0.0
 11
74.797567502259426
 21
394.22207244234369
 31
0.0
  0
LINE
  5
17FA3
  8
0
  6
DASHED
 62
     3
 10
81.9975675022594
 20
397.46407244234359
 30
0.0
 11
74.797567502259426
 21
397.46407244234359
 31
0.0
  0
LINE
  5
17FA4
  8
0
  6
DASHED
 62
     3
 10
81.9975675022594
 20
397.84307244234361
 30
0.0
 11
75.9975675022594
 21
397.84307244234373
 31
0.0
  0
LINE
  5
17FA5
  8
CENTER
  6
CENTER
 62
     1
 10
84.997567502259386
 20
395.84307244234361
 30
0.0
 11
47.997567502259407
 21
395.84307244234373
 31
0.0
  0
LINE
  5
17FA6
  8
0
  6
CONTINUOUS
 62
     7
 10
81.9975675022594
 20
395.84307244234361
 30
0.0
 11
81.9975675022594
 21
390.84307244234361
 31
0.0
  0
LINE
  5
17FA7
  8
0
  6
CONTINUOUS
 62
     7
 10
81.9975675022594
 20
395.84307244234361
 30
0.0
 11
81.9975675022594
 21
400.84307244234361
 31
0.0
  0
LINE
  5
17FA8
  8
0
  6
CONTINUOUS
 62
     7
 10
66.997567502259429
 20
398.34307244234361
 30
0.0
 11
50.997567502259407
 21
398.34307244234361
 31
0.0
  0
LINE
  5
17FA9
  8
0
  6
CONTINUOUS
 62
     7
 10
66.997567502259429
 20
393.34307244234373
 30
0.0
 11
50.997567502259407
 21
393.34307244234373
 31
0.0
  0
LINE
  5
17FAA
  8
0
  6
DASHED
 62
     3
 10
54.497567502259443
 20
393.34307244234373
 30
0.0
 11
54.497567502259443
 21
390.84307244234361
 31
0.0
  0
LINE
  5
17FAB
  8
0
  6
DASHED
 62
     3
 10
59.497567502259443
 20
393.34307244234373
 30
0.0
 11
59.497567502259443
 21
390.84307244234361
 31
0.0
  0
LINE
  5
17FAC
  8
CENTER
  6
CENTER
 62
     1
 10
56.9975675022594
 20
395.84307244234373
 30
0.0
 11
56.9975675022594
 21
387.84307244234373
 31
0.0
  0
LINE
  5
17FAD
  8
0
  6
DASHED
 62
     3
 10
74.797567502259426
 20
397.46407244234359
 30
0.0
 11
73.861682715903044
 21
395.84307244234373
 31
0.0
  0
LINE
  5
17FAE
  8
0
  6
DASHED
 62
     3
 10
74.797567502259426
 20
397.46407244234359
 30
0.0
 11
74.797567502259426
 21
395.84307244234373
 31
0.0
  0
LINE
  5
17FAF
  8
0
  6
DASHED
 62
     3
 10
75.9975675022594
 20
397.84307244234373
 30
0.0
 11
75.9975675022594
 21
395.84307244234373
 31
0.0
  0
LINE
  5
17FB0
  8
0
  6
DASHED
 62
     3
 10
75.9975675022594
 20
393.84307244234373
 30
0.0
 11
75.9975675022594
 21
395.84307244234373
 31
0.0
  0
LINE
  5
17FB1
  8
0
  6
DASHED
 62
     3
 10
74.797567502259426
 20
394.22207244234369
 30
0.0
 11
74.797567502259426
 21
395.84307244234373
 31
0.0
  0
LINE
  5
17FB2
  8
0
  6
DASHED
 62
     3
 10
74.797567502259426
 20
394.22207244234369
 30
0.0
 11
73.861682715903044
 21
395.84307244234373
 31
0.0
  0
LINE
  5
17FB3
  8
0
  6
CONTINUOUS
 62
     7
 10
66.997567502259429
 20
395.84307244234373
 30
0.0
 11
66.997567502259429
 21
398.34307244234361
 31
0.0
  0
LINE
  5
17FB4
  8
0
  6
CONTINUOUS
 62
     7
 10
66.997567502259429
 20
395.84307244234373
 30
0.0
 11
66.997567502259429
 21
393.34307244234373
 31
0.0
  0
LINE
  5
17FB5
  8
CENTER
  6
CENTER
 62
     1
 10
56.9975675022594
 20
395.84307244234373
 30
0.0
 11
56.9975675022594
 21
403.84307244234361
 31
0.0
  0
LINE
  5
17FB6
  8
0
  6
DASHED
 62
     3
 10
59.497567502259443
 20
398.34307244234361
 30
0.0
 11
59.497567502259443
 21
400.84307244234373
 31
0.0
  0
LINE
  5
17FB7
  8
0
  6
DASHED
 62
     3
 10
54.497567502259443
 20
398.34307244234361
 30
0.0
 11
54.497567502259443
 21
400.84307244234373
 31
0.0
  0
LINE
  5
17FB8
  8
0
  6
CONTINUOUS
 62
     7
 10
50.997567502259407
 20
393.34307244234373
 30
0.0
 11
50.997567502259407
 21
390.84307244234361
 31
0.0
  0
LINE
  5
17FB9
  8
0
  6
CONTINUOUS
 62
     7
 10
50.997567502259407
 20
398.34307244234361
 30
0.0
 11
50.997567502259407
 21
400.84307244234373
 31
0.0
  0
ENDSEC
  0
EOF
