  0
SECTION
  2
HEADER
  9
$ACADVER
  1
AC1009
  9
$INSBASE
 10
0.0
 20
0.0
 30
0.0
  9
$EXTMIN
 10
-1436.6770602985339
 20
-944.12494938677173
 30
-0.0015258207003583
  9
$EXTMAX
 10
-1327.6382629520019
 20
-904.50242417794061
 30
0.0000000349246037
  9
$LIMMIN
 10
0.0
 20
0.0
  9
$LIMMAX
 10
297.0
 20
210.0
  9
$ORTHOMODE
 70
     1
  9
$REGENMODE
 70
     1
  9
$FILLMODE
 70
     1
  9
$QTEXTMODE
 70
     0
  9
$MIRRTEXT
 70
     1
  9
$DRAGMODE
 70
     2
  9
$LTSCALE
 40
1.0
  9
$OSMODE
 70
    39
  9
$ATTMODE
 70
     1
  9
$TEXTSIZE
 40
3.0
  9
$TRACEWID
 40
0.05
  9
$TEXTSTYLE
  7
STANDARD
  9
$CLAYER
  8
DIM
  9
$CELTYPE
  6
CONTINUOUS
  9
$CECOLOR
 62
     7
  9
$DIMSCALE
 40
1.0
  9
$DIMASZ
 40
3.0
  9
$DIMEXO
 40
1.0
  9
$DIMDLI
 40
0.0
  9
$DIMRND
 40
0.0
  9
$DIMDLE
 40
0.0
  9
$DIMEXE
 40
1.0
  9
$DIMTP
 40
0.0
  9
$DIMTM
 40
0.0
  9
$DIMTXT
 40
3.2000000000000002
  9
$DIMCEN
 40
0.0
  9
$DIMTSZ
 40
0.0
  9
$DIMTOL
 70
     0
  9
$DIMLIM
 70
     0
  9
$DIMTIH
 70
     0
  9
$DIMTOH
 70
     0
  9
$DIMSE1
 70
     0
  9
$DIMSE2
 70
     0
  9
$DIMTAD
 70
     1
  9
$DIMZIN
 70
     8
  9
$DIMBLK
  1

  9
$DIMASO
 70
     1
  9
$DIMSHO
 70
     1
  9
$DIMPOST
  1

  9
$DIMAPOST
  1

  9
$DIMALT
 70
     0
  9
$DIMALTD
 70
     2
  9
$DIMALTF
 40
0.04
  9
$DIMLFAC
 40
1.0
  9
$DIMTOFL
 70
     1
  9
$DIMTVP
 40
1.0
  9
$DIMTIX
 70
     1
  9
$DIMSOXD
 70
     0
  9
$DIMSAH
 70
     0
  9
$DIMBLK1
  1

  9
$DIMBLK2
  1

  9
$DIMSTYLE
  2
MISUMI
  9
$DIMCLRD
 70
     0
  9
$DIMCLRE
 70
     0
  9
$DIMCLRT
 70
     0
  9
$DIMTFAC
 40
0.6
  9
$DIMGAP
 40
1.0
  9
$LUNITS
 70
     2
  9
$LUPREC
 70
     4
  9
$SKETCHINC
 40
0.1
  9
$FILLETRAD
 40
0.0
  9
$AUNITS
 70
     0
  9
$AUPREC
 70
     0
  9
$MENU
  1
acad
  9
$ELEVATION
 40
0.0
  9
$PELEVATION
 40
0.0
  9
$THICKNESS
 40
0.0
  9
$LIMCHECK
 70
     0
  9
$BLIPMODE
 70
     0
  9
$CHAMFERA
 40
1.0
  9
$CHAMFERB
 40
1.0
  9
$SKPOLY
 70
     0
  9
$TDCREATE
 40
2451464.6006649309
  9
$TDUPDATE
 40
2454097.6134602549
  9
$TDINDWG
 40
1.3839414004999999
  9
$TDUSRTIMER
 40
1.3839364699000001
  9
$USRTIMER
 70
     1
  9
$ANGBASE
 50
0.0
  9
$ANGDIR
 70
     0
  9
$PDMODE
 70
     0
  9
$PDSIZE
 40
0.0
  9
$PLINEWID
 40
0.0
  9
$COORDS
 70
     1
  9
$SPLFRAME
 70
     0
  9
$SPLINETYPE
 70
     6
  9
$SPLINESEGS
 70
     8
  9
$ATTDIA
 70
     0
  9
$ATTREQ
 70
     1
  9
$HANDLING
 70
     1
  9
$HANDSEED
  5
A482
  9
$SURFTAB1
 70
     6
  9
$SURFTAB2
 70
     6
  9
$SURFTYPE
 70
     6
  9
$SURFU
 70
     6
  9
$SURFV
 70
     6
  9
$UCSNAME
  2

  9
$UCSORG
 10
0.0
 20
0.0
 30
0.0
  9
$UCSXDIR
 10
1.0
 20
0.0
 30
0.0
  9
$UCSYDIR
 10
0.0
 20
1.0
 30
0.0
  9
$PUCSNAME
  2

  9
$PUCSORG
 10
0.0
 20
0.0
 30
0.0
  9
$PUCSXDIR
 10
1.0
 20
0.0
 30
0.0
  9
$PUCSYDIR
 10
0.0
 20
1.0
 30
0.0
  9
$USERI1
 70
     0
  9
$USERI2
 70
     0
  9
$USERI3
 70
     0
  9
$USERI4
 70
     0
  9
$USERI5
 70
     0
  9
$USERR1
 40
0.0
  9
$USERR2
 40
0.0
  9
$USERR3
 40
0.0
  9
$USERR4
 40
0.0
  9
$USERR5
 40
0.0
  9
$WORLDVIEW
 70
     1
  9
$SHADEDGE
 70
     3
  9
$SHADEDIF
 70
    70
  9
$TILEMODE
 70
     1
  9
$MAXACTVP
 70
    16
  9
$PLIMCHECK
 70
     0
  9
$PEXTMIN
 10
1.0000000000000000E+020
 20
1.0000000000000000E+020
 30
1.0000000000000000E+020
  9
$PEXTMAX
 10
-1.0000000000000000E+020
 20
-1.0000000000000000E+020
 30
-1.0000000000000000E+020
  9
$PLIMMIN
 10
0.0
 20
0.0
  9
$PLIMMAX
 10
12.0
 20
9.0
  9
$UNITMODE
 70
     0
  9
$VISRETAIN
 70
     0
  9
$PLINEGEN
 70
     0
  9
$PSLTSCALE
 70
     1
  0
ENDSEC
  0
SECTION
  2
TABLES
  0
TABLE
  2
VPORT
 70
     2
  0
VPORT
  2
*ACTIVE
 70
     0
 10
0.0
 20
0.0
 11
1.0
 21
1.0
 12
-1382.157661625268
 22
-924.31368678235617
 13
0.0
 23
0.0
 14
10.0
 24
10.0
 15
10.0
 25
10.0
 16
0.0
 26
0.0
 36
1.0
 17
0.0
 27
0.0
 37
0.0
 40
57.741693520821528
 41
1.8986254295532641
 42
50.0
 43
0.0
 44
0.0
 50
0.0
 51
0.0
 71
     0
 72
   100
 73
     1
 74
     0
 75
     0
 76
     0
 77
     0
 78
     0
  0
ENDTAB
  0
TABLE
  2
LTYPE
 70
     4
  0
LTYPE
  2
CONTINUOUS
 70
     0
  3
Solid line
 72
    65
 73
     0
 40
0.0
  0
LTYPE
  2
CENTER
 70
     0
  3
Center ____ _ ____ _ ____ _ ____ _ ____ _ ____
 72
    65
 73
     4
 40
2.0
 49
1.25
 49
-0.25
 49
0.25
 49
-0.25
  0
LTYPE
  2
DASHED
 70
     0
  3
Dashed __ __ __ __ __ __ __ __ __ __ __ __ __ _
 72
    65
 73
     2
 40
0.75
 49
0.5
 49
-0.25
  0
LTYPE
  2
PHANTOM
 70
     0
  3
Phantom ______  __  __  ______  __  __  ______
 72
    65
 73
     6
 40
2.5
 49
1.25
 49
-0.25
 49
0.25
 49
-0.25
 49
0.25
 49
-0.25
  0
ENDTAB
  0
TABLE
  2
LAYER
 70
     4
  0
LAYER
  2
0
 70
     0
 62
     7
  6
CONTINUOUS
  0
LAYER
  2
DEFPOINTS
 70
     0
 62
     7
  6
CONTINUOUS
  0
LAYER
  2
CENTER
 70
     0
 62
     1
  6
CENTER
  0
LAYER
  2
DIM
 70
     0
 62
     4
  6
CONTINUOUS
  0
ENDTAB
  0
TABLE
  2
STYLE
 70
     1
  0
STYLE
  2
STANDARD
 70
     0
 40
0.0
 41
1.0
 50
0.0
 71
     0
 42
3.0
  3
txt
  4

  0
ENDTAB
  0
TABLE
  2
VIEW
 70
     1
  0
VIEW
  2
OLE1
 70
     0
 40
11.602815740587831
 10
-2013.198843694342
 20
-353.94683516776092
 41
18.523276905659259
 11
0.0
 21
0.0
 31
1.0
 12
0.0
 22
0.0
 32
0.0
 42
50.0
 43
0.0
 44
0.0
 50
0.0
 71
     0
  0
ENDTAB
  0
TABLE
  2
UCS
 70
     0
  0
ENDTAB
  0
TABLE
  2
APPID
 70
     8
  0
APPID
  2
ACAD
 70
     0
  0
APPID
  2
GENIUS_GENCFG_13
 70
     0
  0
APPID
  2
GENIUS_GENCFG0_13
 70
     0
  0
APPID
  2
GENIUS_GENCFG1_13
 70
     0
  0
APPID
  2
GENIUS_GENCFG2_13
 70
     0
  0
APPID
  2
GENIUS_GENCFG3_13
 70
     0
  0
APPID
  2
GENIUS_GENCFG4_13
 70
     0
  0
APPID
  2
GENIUS_GEVCFG0_13
 70
     0
  0
ENDTAB
  0
TABLE
  2
DIMSTYLE
 70
     2
  0
DIMSTYLE
  2
MISUMI
 70
     0
  3

  4

  5

  6

  7

 40
1.0
 41
3.0
 42
1.0
 43
0.0
 44
1.0
 45
0.0
 46
0.0
 47
0.0
 48
0.0
140
3.2000000000000002
141
0.0
142
0.0
143
0.04
144
1.0
145
1.0
146
0.6
147
1.0
 71
     0
 72
     0
 73
     0
 74
     0
 75
     0
 76
     0
 77
     1
 78
     8
170
     0
171
     2
172
     1
173
     0
174
     1
175
     0
176
     0
177
     0
178
     0
  0
DIMSTYLE
  2
STANDARD
 70
     0
  3

  4

  5

  6

  7

 40
1.0
 41
2.5
 42
0.625
 43
3.75
 44
1.25
 45
0.0
 46
0.0
 47
0.0
 48
0.0
140
2.5
141
2.5
142
0.0
143
0.0394
144
1.0
145
0.0
146
1.0
147
0.625
 71
     0
 72
     0
 73
     0
 74
     0
 75
     0
 76
     0
 77
     1
 78
     8
170
     0
171
     4
172
     1
173
     0
174
     0
175
     0
176
     0
177
     0
178
     0
  0
ENDTAB
  0
ENDSEC
  0
SECTION
  2
BLOCKS
  0
BLOCK
  8
0
  2
$MODEL_SPACE
 70
     0
 10
0.0
 20
0.0
 30
0.0
  3
$MODEL_SPACE
  1

  0
ENDBLK
  5
1BDF
  8
0
  0
BLOCK
 67
     1
  8
0
  2
$PAPER_SPACE
 70
     0
 10
0.0
 20
0.0
 30
0.0
  3
$PAPER_SPACE
  1

  0
ENDBLK
  5
1BDB
 67
     1
  8
0
  0
ENDSEC
  0
SECTION
  2
ENTITIES
  0
ARC
  5
9928
  8
0
  6
CONTINUOUS
 62
     7
 10
-1341.1616158101631
 20
-918.08973205024404
 30
0.0
 40
6.6602540378445374
 50
232.8449811288699
 51
307.1550188711301
  0
ARC
  5
9929
  8
0
  6
CONTINUOUS
 62
     7
 10
-1341.1616158101631
 20
-918.08973205024404
 30
0.0
 40
8.0
 50
249.89449021208389
 51
290.10550978791611
  0
CIRCLE
  5
992A
  8
0
  6
CONTINUOUS
 62
     7
 10
-1341.1616158101631
 20
-918.08973205024404
 30
0.0
 40
11.5
  0
CIRCLE
  5
992B
  8
0
  6
DASHED
 62
     3
 10
-1341.1616158101631
 20
-918.08973205024404
 30
0.0
 40
10.0
  0
LINE
  5
992E
  8
0
  6
CONTINUOUS
 62
     7
 10
-1395.6616158101631
 20
-928.08973205024404
 30
0.0
 11
-1395.6616158101631
 21
-908.08973205024415
 31
0.0
  0
LINE
  5
992F
  8
0
  6
CONTINUOUS
 62
     7
 10
-1395.6616158101631
 20
-908.08973205024438
 30
0.0
 11
-1433.308615810163
 21
-908.0897320502437
 31
0.0
  0
LINE
  5
9930
  8
0
  6
CONTINUOUS
 62
     7
 10
-1433.3086158101651
 20
-928.08973205024358
 30
0.0
 11
-1395.6616158101631
 21
-928.08973205024404
 31
0.0
  0
LINE
  5
9931
  8
0
  6
CONTINUOUS
 62
     7
 10
-1434.6616158101631
 20
-909.44273205024467
 30
0.0
 11
-1434.6616158101631
 21
-926.73673205024397
 31
0.0
  0
LINE
  5
9932
  8
0
  6
CONTINUOUS
 62
     7
 10
-1433.308615810163
 20
-908.0897320502437
 30
0.0
 11
-1433.308615810163
 21
-928.08973205024324
 31
0.0
  0
LINE
  5
9933
  8
0
  6
CONTINUOUS
 62
     7
 10
-1434.6616158101631
 20
-909.44273205024399
 30
0.0
 11
-1433.308615810163
 21
-908.0897320502437
 31
0.0
  0
LINE
  5
9934
  8
0
  6
CONTINUOUS
 62
     7
 10
-1404.6616158101619
 20
-928.08973205024404
 30
0.0
 11
-1404.6616158101619
 21
-908.08973205024415
 31
0.0
  0
LINE
  5
9935
  8
0
 62
     3
 10
-1404.6616158101619
 20
-909.44273205024399
 30
0.0
 11
-1402.318151067522
 21
-908.08973205024415
 31
0.0
  0
LINE
  5
9936
  8
0
 62
     3
 10
-1404.6616158101619
 20
-909.44273205024399
 30
0.0
 11
-1434.6616158101631
 21
-909.44273205024399
 31
0.0
  0
LINE
  5
9937
  8
0
 10
-1395.6616158101631
 20
-908.33973205024404
 30
0.0
 11
-1394.6616158101631
 21
-908.33973205024404
 31
0.0
  0
LINE
  5
9938
  8
0
 10
-1395.6616158101631
 20
-927.8397320502437
 30
0.0
 11
-1394.6616158101631
 21
-927.8397320502437
 31
0.0
  0
LINE
  5
9939
  8
0
 62
     3
 10
-1404.6616158101619
 20
-926.73673205024465
 30
0.0
 11
-1434.6616158101631
 21
-926.73673205024465
 31
0.0
  0
LINE
  5
993A
  8
0
 62
     3
 10
-1404.6616158101619
 20
-926.73673205024465
 30
0.0
 11
-1402.318151067522
 21
-928.08973205024449
 31
0.0
  0
LINE
  5
993B
  8
0
  6
CONTINUOUS
 62
     7
 10
-1434.6616158101631
 20
-926.73673205024465
 30
0.0
 11
-1433.308615810163
 21
-928.08973205024472
 31
0.0
  0
ARC
  5
993C
  8
0
  6
CONTINUOUS
 62
     7
 10
-1390.8348208331849
 20
-909.98973195024394
 30
0.0
 40
0.2
 50
270.0
 51
329.99996692025769
  0
ARC
  5
993D
  8
0
  6
CONTINUOUS
 62
     7
 10
-1391.461620833185
 20
-909.98973195024394
 30
0.0
 40
0.2
 50
180.0
 51
270.0
  0
LINE
  5
993E
  8
0
  6
CONTINUOUS
 62
     7
 10
-1391.461620833185
 20
-910.18973195024387
 30
0.0
 11
-1390.8348208331849
 21
-910.18973195024387
 31
0.0
  0
ARC
  5
993F
  8
0
  6
CONTINUOUS
 62
     7
 10
-1390.8348208331849
 20
-926.18973215024403
 30
0.0
 40
0.2
 50
30.00003307974244
 51
90.0
  0
ARC
  5
9940
  8
0
  6
CONTINUOUS
 62
     7
 10
-1391.461620833185
 20
-926.18973215024403
 30
0.0
 40
0.2
 50
90.0
 51
180.0
  0
LINE
  5
9941
  8
0
  6
CONTINUOUS
 62
     7
 10
-1391.461620833185
 20
-925.98973215024387
 30
0.0
 11
-1390.8348208331849
 21
-925.98973215024387
 31
0.0
  0
LINE
  5
9942
  8
CENTER
  6
CENTER
 62
     1
 10
-1354.6616158101631
 20
-918.08973205024404
 30
0.0
 11
-1327.6616158101631
 21
-918.08973205024404
 31
0.0
  0
LINE
  5
9943
  8
CENTER
  6
CENTER
 62
     1
 10
-1341.1616158101631
 20
-904.58973205024404
 30
0.0
 11
-1341.1616158101631
 21
-931.58973205024404
 31
0.0
  0
LINE
  5
9944
  8
0
  6
CONTINUOUS
 62
     7
 10
-1371.6616158101631
 20
-911.42947801239939
 30
0.0
 11
-1371.6616158101631
 21
-924.74998767864327
 31
0.0
  0
LINE
  5
9945
  8
0
  6
CONTINUOUS
 62
     7
 10
-1376.6616158101631
 20
-910.08973205024358
 30
0.0
 11
-1371.6616158101631
 21
-911.42947801239939
 31
0.0
  0
LINE
  5
9946
  8
0
  6
CONTINUOUS
 62
     7
 10
-1376.6616158101631
 20
-910.08973205024358
 30
0.0
 11
-1376.6616158101631
 21
-910.5772424495857
 31
0.0
  0
LINE
  5
9947
  8
0
  6
CONTINUOUS
 62
     7
 10
-1376.6616158101631
 20
-926.08973364079941
 30
0.0
 11
-1371.6616158101631
 21
-924.74998767864327
 31
0.0
  0
LINE
  5
9948
  8
0
  6
CONTINUOUS
 62
     7
 10
-1394.6616158101631
 20
-906.58973205024404
 30
0.0
 11
-1391.6616158101631
 21
-906.58973205024404
 31
0.0
  0
LINE
  5
9949
  8
0
  6
CONTINUOUS
 62
     7
 10
-1394.6616158101631
 20
-929.5897320502437
 30
0.0
 11
-1391.6616158101631
 21
-929.5897320502437
 31
0.0
  0
LINE
  5
994A
  8
0
  6
CONTINUOUS
 62
     7
 10
-1390.6616158101631
 20
-926.08973205024358
 30
0.0
 11
-1390.6616158101631
 21
-910.08973205024358
 31
0.0
  0
LINE
  5
994B
  8
0
  6
CONTINUOUS
 62
     7
 10
-1394.6616158101631
 20
-906.58973205024404
 30
0.0
 11
-1394.6616158101631
 21
-929.58973205024404
 31
0.0
  0
LINE
  5
994C
  8
0
  6
CONTINUOUS
 62
     7
 10
-1391.6616158101631
 20
-906.58973205024404
 30
0.0
 11
-1391.6616158101631
 21
-929.5897320502437
 31
0.0
  0
TEXT
  5
994D
  8
0
  6
CONTINUOUS
 62
     7
 10
-1434.6616158101631
 20
-944.08973205024404
 30
0.0
 40
2.0
  1
JPTND20
  0
TEXT
  5
994E
  8
0
  6
CONTINUOUS
 62
     7
 10
-1434.6616158101631
 20
-936.58973205024404
 30
0.0
 40
2.0
  1
JPTND20-16.00
  0
LINE
  5
994F
  8
0
  6
CONTINUOUS
 62
     7
 10
-1390.6616158101631
 20
-910.08973205024358
 30
0.0
 11
-1376.6616158101631
 21
-910.08973205024358
 31
0.0
  0
LINE
  5
9950
  8
0
  6
CONTINUOUS
 62
     7
 10
-1390.6616158101631
 20
-926.08973205024358
 30
0.0
 11
-1376.6616158101631
 21
-926.08973205024358
 31
0.0
  0
LINE
  5
9951
  8
CENTER
  6
CENTER
 62
     1
 10
-1436.6616158101631
 20
-918.08973205024358
 30
0.0
 11
-1369.6616158101631
 21
-918.08973205024404
 31
0.0
  0
LINE
  5
A409
  8
0
  6
CONTINUOUS
 62
     7
 10
-1348.2489537033871
 20
-918.08973205024358
 30
0.0
 11
-1343.9116158101631
 21
-925.60222165090227
 31
0.0
  0
LINE
  5
A40A
  8
0
  6
CONTINUOUS
 62
     7
 10
-1348.2489537033871
 20
-918.08973205024358
 30
0.0
 11
-1343.9116158101631
 21
-910.57724244958547
 31
0.0
  0
LINE
  5
A40B
  8
0
  6
CONTINUOUS
 62
     7
 10
-1334.0742779169391
 20
-918.08973205024358
 30
0.0
 11
-1338.4116158101631
 21
-925.60222165090227
 31
0.0
  0
LINE
  5
A40C
  8
0
  6
CONTINUOUS
 62
     7
 10
-1334.0742779169391
 20
-918.08973205024358
 30
0.0
 11
-1338.4116158101631
 21
-910.57724244958547
 31
0.0
  0
ARC
  5
A40E
  8
0
  6
CONTINUOUS
 62
     7
 10
-1341.1616158101631
 20
-918.08973205024404
 30
0.0
 40
6.6602540378445374
 50
172.8449811288684
 51
187.15501887112771
  0
ARC
  5
A40F
  8
0
  6
CONTINUOUS
 62
     7
 10
-1341.1616158101631
 20
-918.08973205024404
 30
0.0
 40
6.6602540378445374
 50
52.84498112887205
 51
127.1550188711322
  0
ARC
  5
A410
  8
0
  6
CONTINUOUS
 62
     7
 10
-1341.1616158101631
 20
-918.08973205024404
 30
0.0
 40
8.0
 50
69.894490212085756
 51
110.10550978791601
  0
ARC
  5
A412
  8
0
  6
CONTINUOUS
 62
     7
 10
-1341.1616158101631
 20
-918.08973205024404
 30
0.0
 40
6.6602540378445374
 50
352.84498112887229
 51
7.1550188711276936
  0
ARC
  5
A413
  8
0
  6
PHANTOM
 62
     3
 10
-1341.1616158101631
 20
-918.08973205024404
 30
0.0
 40
7.9999999999999822
 50
110.10550978791601
 51
249.89449021208389
  0
ARC
  5
A414
  8
0
  6
PHANTOM
 62
     3
 10
-1341.1616158101631
 20
-918.08973205024404
 30
0.0
 40
7.9999999999999822
 50
290.10550978791611
 51
69.894490212083952
  0
LINE
  5
A449
  8
0
  6
CONTINUOUS
 62
     7
 10
-1390.6616158101631
 20
-910.57724244958547
 30
0.0
 11
-1376.6616158101631
 21
-910.57724244958547
 31
0.0
  0
LINE
  5
A44A
  8
0
  6
CONTINUOUS
 62
     7
 10
-1390.6616158101631
 20
-925.60222165090227
 30
0.0
 11
-1376.6616158101631
 21
-925.60222165090227
 31
0.0
  0
LINE
  5
A44B
  8
0
  6
CONTINUOUS
 62
     7
 10
-1390.6616158101631
 20
-918.08973205024404
 30
0.0
 11
-1376.6616158101631
 21
-918.08973205024404
 31
0.0
  0
ARC
  5
A44C
  8
0
  6
CONTINUOUS
 62
     7
 10
-1379.1145177044141
 20
-914.3334872499147
 30
0.0
 40
4.4862125119992369
 50
303.14532838965312
 51
56.854671610347012
  0
ARC
  5
A44D
  8
0
  6
CONTINUOUS
 62
     7
 10
-1379.1145177044141
 20
-921.84597685057327
 30
0.0
 40
4.4862125119992369
 50
303.145328389653
 51
56.854671610346969
  0
LINE
  5
A44E
  8
0
  6
CONTINUOUS
 62
     7
 10
-1376.6616158101631
 20
-925.60222165090215
 30
0.0
 11
-1376.6616158101631
 21
-926.08973205024358
 31
0.0
  0
LINE
  5
A44F
  8
0
 62
     3
 10
-1376.6616158101631
 20
-910.57724244958547
 30
0.0
 11
-1390.6616158101631
 21
-918.08973205024404
 31
0.0
  0
LINE
  5
A450
  8
0
 62
     3
 10
-1390.6616158101631
 20
-910.57724244958547
 30
0.0
 11
-1376.6616158101631
 21
-918.08973205024404
 31
0.0
  0
LINE
  5
A451
  8
0
 62
     3
 10
-1390.6616158101631
 20
-925.60222165090227
 30
0.0
 11
-1376.6616158101631
 21
-918.08973205024404
 31
0.0
  0
LINE
  5
A452
  8
0
 62
     3
 10
-1376.6616158101631
 20
-925.60222165090227
 30
0.0
 11
-1390.6616158101631
 21
-918.08973205024404
 31
0.0
  0
ENDSEC
  0
EOF
