  0
SECTION
  2
HEADER
  9
$ACADVER
  1
AC1009
  9
$INSBASE
 10
0.0
 20
0.0
 30
0.0
  9
$EXTMIN
 10
-9.9270868304374744
 20
-8.0093071512054621
 30
-0.0015258207003583
  9
$EXTMAX
 10
912.17597252437906
 20
210.7021643059586
 30
0.0000000349246037
  9
$LIMMIN
 10
0.0
 20
0.0
  9
$LIMMAX
 10
420.0
 20
297.0
  9
$ORTHOMODE
 70
     0
  9
$REGENMODE
 70
     1
  9
$FILLMODE
 70
     1
  9
$QTEXTMODE
 70
     0
  9
$MIRRTEXT
 70
     0
  9
$DRAGMODE
 70
     2
  9
$LTSCALE
 40
0.5
  9
$OSMODE
 70
   509
  9
$ATTMODE
 70
     1
  9
$TEXTSIZE
 40
3.0
  9
$TRACEWID
 40
1.0
  9
$TEXTSTYLE
  7
STANDARD
  9
$CLAYER
  8
MSM_CONTINUOUS
  9
$CELTYPE
  6
BYLAYER
  9
$CECOLOR
 62
   256
  9
$DIMSCALE
 40
1.0
  9
$DIMASZ
 40
2.5
  9
$DIMEXO
 40
0.625
  9
$DIMDLI
 40
3.75
  9
$DIMRND
 40
0.0
  9
$DIMDLE
 40
0.0
  9
$DIMEXE
 40
1.25
  9
$DIMTP
 40
0.0
  9
$DIMTM
 40
0.0
  9
$DIMTXT
 40
3.0
  9
$DIMCEN
 40
2.5
  9
$DIMTSZ
 40
0.0
  9
$DIMTOL
 70
     0
  9
$DIMLIM
 70
     0
  9
$DIMTIH
 70
     0
  9
$DIMTOH
 70
     0
  9
$DIMSE1
 70
     0
  9
$DIMSE2
 70
     0
  9
$DIMTAD
 70
     1
  9
$DIMZIN
 70
     8
  9
$DIMBLK
  1
OPEN30
  9
$DIMASO
 70
     1
  9
$DIMSHO
 70
     1
  9
$DIMPOST
  1

  9
$DIMAPOST
  1

  9
$DIMALT
 70
     0
  9
$DIMALTD
 70
     3
  9
$DIMALTF
 40
0.03937007874016
  9
$DIMLFAC
 40
1.0
  9
$DIMTOFL
 70
     1
  9
$DIMTVP
 40
0.0
  9
$DIMTIX
 70
     0
  9
$DIMSOXD
 70
     0
  9
$DIMSAH
 70
     0
  9
$DIMBLK1
  1

  9
$DIMBLK2
  1

  9
$DIMSTYLE
  2
MISUMI
  9
$DIMCLRD
 70
   256
  9
$DIMCLRE
 70
   256
  9
$DIMCLRT
 70
   256
  9
$DIMTFAC
 40
1.0
  9
$DIMGAP
 40
0.625
  9
$LUNITS
 70
     2
  9
$LUPREC
 70
     2
  9
$SKETCHINC
 40
1.0
  9
$FILLETRAD
 40
0.0
  9
$AUNITS
 70
     0
  9
$AUPREC
 70
     0
  9
$MENU
  1
.
  9
$ELEVATION
 40
0.0
  9
$PELEVATION
 40
0.0
  9
$THICKNESS
 40
0.0
  9
$LIMCHECK
 70
     0
  9
$BLIPMODE
 70
     0
  9
$CHAMFERA
 40
0.5
  9
$CHAMFERB
 40
0.5
  9
$SKPOLY
 70
     0
  9
$TDCREATE
 40
2455135.5720697111
  9
$TDUPDATE
 40
2457844.762259155
  9
$TDINDWG
 40
0.7232156713
  9
$TDUSRTIMER
 40
2456776.1368539468
  9
$USRTIMER
 70
     1
  9
$ANGBASE
 50
0.0
  9
$ANGDIR
 70
     0
  9
$PDMODE
 70
    35
  9
$PDSIZE
 40
0.0
  9
$PLINEWID
 40
0.0
  9
$COORDS
 70
     1
  9
$SPLFRAME
 70
     0
  9
$SPLINETYPE
 70
     6
  9
$SPLINESEGS
 70
     8
  9
$ATTDIA
 70
     1
  9
$ATTREQ
 70
     1
  9
$HANDLING
 70
     1
  9
$HANDSEED
  5
FA24
  9
$SURFTAB1
 70
     6
  9
$SURFTAB2
 70
     6
  9
$SURFTYPE
 70
     6
  9
$SURFU
 70
     6
  9
$SURFV
 70
     6
  9
$UCSNAME
  2

  9
$UCSORG
 10
0.0
 20
0.0
 30
0.0
  9
$UCSXDIR
 10
1.0
 20
0.0
 30
0.0
  9
$UCSYDIR
 10
0.0
 20
1.0
 30
0.0
  9
$PUCSNAME
  2

  9
$PUCSORG
 10
0.0
 20
0.0
 30
0.0
  9
$PUCSXDIR
 10
1.0
 20
0.0
 30
0.0
  9
$PUCSYDIR
 10
0.0
 20
1.0
 30
0.0
  9
$USERI1
 70
     0
  9
$USERI2
 70
     0
  9
$USERI3
 70
     0
  9
$USERI4
 70
     0
  9
$USERI5
 70
     0
  9
$USERR1
 40
0.0
  9
$USERR2
 40
0.0
  9
$USERR3
 40
0.0
  9
$USERR4
 40
0.0
  9
$USERR5
 40
0.0
  9
$WORLDVIEW
 70
     1
  9
$SHADEDGE
 70
     3
  9
$SHADEDIF
 70
    70
  9
$TILEMODE
 70
     1
  9
$MAXACTVP
 70
    64
  9
$PLIMCHECK
 70
     0
  9
$PEXTMIN
 10
0.0
 20
0.0
 30
0.0
  9
$PEXTMAX
 10
0.0
 20
0.0
 30
0.0
  9
$PLIMMIN
 10
0.0
 20
0.0
  9
$PLIMMAX
 10
12.0
 20
9.0
  9
$UNITMODE
 70
     0
  9
$VISRETAIN
 70
     1
  9
$PLINEGEN
 70
     0
  9
$PSLTSCALE
 70
     1
  0
ENDSEC
  0
SECTION
  2
TABLES
  0
TABLE
  2
VPORT
 70
     1
  0
VPORT
  2
*ACTIVE
 70
     0
 10
0.0
 20
0.0
 11
1.0
 21
1.0
 12
451.12444284697079
 22
101.3464285773765
 13
0.0
 23
0.0
 14
10.0
 24
10.0
 15
10.0
 25
10.0
 16
0.0
 26
0.0
 36
1.0
 17
0.0
 27
0.0
 37
0.0
 40
368.0476212107472
 41
2.5145038167938929
 42
50.0
 43
0.0
 44
0.0
 50
0.0
 51
0.0
 71
    16
 72
  1000
 73
     1
 74
     3
 75
     0
 76
     0
 77
     0
 78
     0
  0
ENDTAB
  0
TABLE
  2
LTYPE
 70
     3
  0
LTYPE
  2
CONTINUOUS
 70
     0
  3
Solid line
 72
    65
 73
     0
 40
0.0
  0
LTYPE
  2
CENTER
 70
     0
  3
Center ____ _ ____ _ ____ _ ____ _ ____ _ ____
 72
    65
 73
     4
 40
50.799999999999997
 49
31.75
 49
-6.3499999999999988
 49
6.3499999999999988
 49
-6.3499999999999988
  0
LTYPE
  2
DASHED
 70
     0
  3
Dashed __ __ __ __ __ __ __ __ __ __ __ __ __ _
 72
    65
 73
     2
 40
19.050000000000001
 49
12.699999999999999
 49
-6.3499999999999988
  0
ENDTAB
  0
TABLE
  2
LAYER
 70
     7
  0
LAYER
  2
0
 70
     0
 62
     7
  6
CONTINUOUS
  0
LAYER
  2
MSM_CENTER
 70
     0
 62
     1
  6
CENTER
  0
LAYER
  2
MSM_CONTINUOUS
 70
     0
 62
     7
  6
CONTINUOUS
  0
LAYER
  2
MSM_DASHED
 70
     0
 62
     4
  6
DASHED
  0
LAYER
  2
MSM_PART_NUMBER
 70
     0
 62
     7
  6
CONTINUOUS
  0
ENDTAB
  0
TABLE
  2
STYLE
 70
     1
  0
STYLE
  2
STANDARD
 70
     0
 40
3.0
 41
1.0
 50
0.0
 71
     0
 42
3.0
  3
txt.shx
  4
bigfont.shx
  0
ENDTAB
  0
TABLE
  2
VIEW
 70
     0
  0
ENDTAB
  0
TABLE
  2
UCS
 70
     0
  0
ENDTAB
  0
TABLE
  2
APPID
 70
    25
  0
APPID
  2
ACAD
 70
     0
  0
APPID
  2
ACAD_MLEADERVER
 70
     0
  0
APPID
  2
ACAD_EXEMPT_FROM_CAD_STANDARDS
 70
     0
  0
APPID
  2
ACDBBLOCKREPETAG
 70
     0
  0
APPID
  2
ACAD_DSTYLE_DIMJOGGED_JOGA
 70
     0
  0
APPID
  2
ACAECLAYERSTANDARD
 70
     0
  0
APPID
  2
GENIUS_GENODEF_13
 70
     0
  0
APPID
  2
GENIUS_GENOBJ-N-FIL_13
 70
     0
  0
APPID
  2
ACAD_PSEXT
 70
     0
  0
APPID
  2
ACAD_DSTYLE_DIMRADIAL_EXTENSION
 70
     0
  0
APPID
  2
ACDBDYNAMICBLOCKTRUENAME
 70
     0
  0
APPID
  2
ACDBDYNAMICBLOCKGUID
 70
     0
  0
APPID
  2
ACDBBLOCKREPBTAG
 70
     0
  0
APPID
  2
ACAUTHENVIRON
 70
     0
  0
APPID
  2
GRADIENTCOLOR1ACI
 70
     0
  0
APPID
  2
GRADIENTCOLOR2ACI
 70
     0
  0
APPID
  2
ACAD_DSTYLE_DIMJAG
 70
     0
  0
APPID
  2
ACAD_DSTYLE_DIMTALN
 70
     0
  0
APPID
  2
ACCMTRANSPARENCY
 70
     0
  0
APPID
  2
ACAD_DSTYLE_DIMBREAK
 70
     0
  0
APPID
  2
ACAD_DSTYLE_DIMFLIPARROW_W
 70
     0
  0
APPID
  2
ACAD_DSTYLE_DIM_LINETYPE
 70
     0
  0
APPID
  2
ACAD_DSTYLE_DIM_EXT1_LINETYPE
 70
     0
  0
APPID
  2
ACAD_DSTYLE_DIM_EXT2_LINETYPE
 70
     0
  0
APPID
  2
ACAD_NAV_VCDISPLAY
 70
     0
  0
ENDTAB
  0
TABLE
  2
DIMSTYLE
 70
     1
  0
DIMSTYLE
  2
MISUMI
 70
     0
  3

  4

  5
OPEN30
  6

  7

 40
1.0
 41
2.5
 42
0.625
 43
3.75
 44
1.25
 45
0.0
 46
0.0
 47
0.0
 48
0.0
140
3.0
141
2.5
142
0.0
143
0.03937007874016
144
1.0
145
0.0
146
1.0
147
0.625
 71
     0
 72
     0
 73
     0
 74
     0
 75
     0
 76
     0
 77
     1
 78
     8
170
     0
171
     3
172
     1
173
     0
174
     0
175
     0
176
   256
177
   256
178
   256
  0
ENDTAB
  0
ENDSEC
  0
SECTION
  2
BLOCKS
  0
BLOCK
  8
0
  2
$MODEL_SPACE
 70
     0
 10
0.0
 20
0.0
 30
0.0
  3
$MODEL_SPACE
  1

  0
ENDBLK
  5
21
  8
0
  0
BLOCK
 67
     1
  8
0
  2
$PAPER_SPACE
 70
     0
 10
0.0
 20
0.0
 30
0.0
  3
$PAPER_SPACE
  1

  0
ENDBLK
  5
F8C7
 67
     1
  8
0
  0
BLOCK
  8
0
 62
     7
  2
_OPEN30
 70
     0
 10
0.0
 20
0.0
 30
0.0
  3
_OPEN30
  1

  0
LINE
  5
D7
  8
0
  6
BYBLOCK
 62
     0
 10
-1.0
 20
0.26794919
 30
0.0
 11
0.0
 21
0.0
 31
0.0
  0
LINE
  5
D8
  8
0
  6
BYBLOCK
 62
     0
 10
0.0
 20
0.0
 30
0.0
 11
-1.0
 21
-0.26794919
 31
0.0
  0
LINE
  5
D9
  8
0
  6
BYBLOCK
 62
     0
 10
0.0
 20
0.0
 30
0.0
 11
-1.0
 21
0.0
 31
0.0
  0
ENDBLK
  5
DB
  8
0
 62
     7
  0
BLOCK
  8
0
  2
*U21
 70
     1
 10
0.0
 20
0.0
 30
0.0
  3
*U21
  1

  0
TEXT
  5
F90D
  8
MSM_PART_NUMBER
 10
0.0
 20
-3.0
 30
0.0
 40
3.0
  1
GSSF22260-500
  0
ENDBLK
  5
F90F
  8
0
  0
BLOCK
  8
0
  2
*U22
 70
     1
 10
0.0
 20
0.0
 30
0.0
  3
*U22
  1

  0
TEXT
  5
F911
  8
MSM_PART_NUMBER
 10
0.0
 20
-8.0
 30
0.0
 40
3.0
  1
GSSF22260-500
  0
ENDBLK
  5
F913
  8
0
  0
BLOCK
  8
0
  2
*U23
 70
     1
 10
0.0
 20
0.0
 30
0.0
  3
*U23
  1

  0
TEXT
  5
F915
  8
MSM_PART_NUMBER
 10
230.78420101418749
 20
4.7390233652656937
 30
0.0
 40
3.0
  1
gssf22260-500.dwg
  0
ENDBLK
  5
F917
  8
0
  0
ENDSEC
  0
SECTION
  2
ENTITIES
  0
INSERT
  5
DCB4
  8
MSM_CONTINUOUS
  2
*U21
 10
0.0
 20
0.0
 30
0.0
  0
INSERT
  5
DCB5
  8
MSM_CONTINUOUS
  2
*U22
 10
0.0
 20
0.0
 30
0.0
  0
LINE
  5
E3FF
  8
MSM_CONTINUOUS
 10
730.0
 20
20.150000000000009
 30
0.0
 11
730.0
 21
23.350000000000051
 31
0.0
  0
LINE
  5
E400
  8
MSM_CONTINUOUS
 10
696.0
 20
26.750000000000028
 30
0.0
 11
427.49999999999989
 21
26.750000000000028
 31
0.0
  0
LINE
  5
E401
  8
MSM_CONTINUOUS
 10
427.49999999999989
 20
16.750000000000028
 30
0.0
 11
696.0
 21
16.750000000000028
 31
0.0
  0
LINE
  5
E402
  8
MSM_CONTINUOUS
 10
712.5
 20
18.646461242400079
 30
0.0
 11
712.5
 21
18.55000000000004
 31
0.0
  0
LINE
  5
E403
  8
MSM_CONTINUOUS
 10
727.5
 20
18.55000000000004
 30
0.0
 11
727.5
 21
20.150000000000009
 31
0.0
  0
LINE
  5
E404
  8
MSM_CONTINUOUS
 10
712.5
 20
18.55000000000004
 30
0.0
 11
714.0
 21
17.55000000000004
 31
0.0
  0
LINE
  5
E405
  8
MSM_CONTINUOUS
 10
726.0
 20
17.55000000000004
 30
0.0
 11
727.5
 21
18.55000000000004
 31
0.0
  0
LINE
  5
E406
  8
MSM_CONTINUOUS
 10
0.0
 20
23.350000000000051
 30
0.0
 11
0.0
 21
20.150000000000009
 31
0.0
  0
LINE
  5
E407
  8
MSM_CONTINUOUS
 10
2.5
 20
20.150000000000009
 30
0.0
 11
2.5
 21
18.55000000000004
 31
0.0
  0
LINE
  5
E408
  8
MSM_CONTINUOUS
 10
17.5
 20
18.55000000000004
 30
0.0
 11
17.5
 21
18.646461242400079
 31
0.0
  0
LINE
  5
E409
  8
MSM_CONTINUOUS
 10
2.5
 20
18.55000000000004
 30
0.0
 11
4.0
 21
17.55000000000004
 31
0.0
  0
LINE
  5
E40A
  8
MSM_CONTINUOUS
 10
16.0
 20
17.55000000000004
 30
0.0
 11
17.5
 21
18.55000000000004
 31
0.0
  0
ARC
  5
E40B
  8
MSM_CONTINUOUS
 10
40.499999999999993
 20
10.75000000000003
 30
0.0
 40
0.7500000000000285
 50
180.0
 51
0.0
  0
ARC
  5
E40C
  8
MSM_CONTINUOUS
 10
40.499999999999993
 20
32.750000000000028
 30
0.0
 40
0.7500000000000285
 50
0.0
 51
180.0
  0
LINE
  5
E40D
  8
MSM_CONTINUOUS
 10
41.25
 20
10.75000000000003
 30
0.0
 11
398.67157287520001
 21
10.75000000000003
 31
0.0
  0
LINE
  5
E40E
  8
MSM_CONTINUOUS
 10
398.67157287520001
 20
32.750000000000028
 30
0.0
 11
41.25
 21
32.750000000000028
 31
0.0
  0
ARC
  5
E40F
  8
MSM_CONTINUOUS
 10
400.08578643759989
 20
10.25000000000003
 30
0.0
 40
1.499999999999956
 50
19.4712206344999
 51
160.5287793655001
  0
ARC
  5
E410
  8
MSM_CONTINUOUS
 10
400.08578643759989
 20
33.250000000000028
 30
0.0
 40
1.499999999999956
 50
199.4712206344999
 51
340.5287793655001
  0
LINE
  5
E411
  8
MSM_CONTINUOUS
 10
401.49999999999989
 20
10.75000000000003
 30
0.0
 11
422.49999999999989
 21
10.75000000000003
 31
0.0
  0
LINE
  5
E412
  8
MSM_CONTINUOUS
 10
422.49999999999989
 20
32.750000000000028
 30
0.0
 11
401.49999999999989
 21
32.750000000000028
 31
0.0
  0
ARC
  5
E413
  8
MSM_CONTINUOUS
 10
54.0
 20
21.750000000000028
 30
0.0
 40
19.999999999999989
 50
146.63298703079869
 51
213.36701296920091
  0
LINE
  5
E414
  8
MSM_CONTINUOUS
 10
37.296706911500031
 20
10.75000000000003
 30
0.0
 11
39.75
 21
10.75000000000003
 31
0.0
  0
LINE
  5
E415
  8
MSM_CONTINUOUS
 10
39.75
 20
32.750000000000028
 30
0.0
 11
37.296706911500031
 21
32.750000000000028
 31
0.0
  0
LINE
  5
E416
  8
MSM_CONTINUOUS
 10
422.49999999999989
 20
11.75000000000003
 30
0.0
 11
424.49999999999989
 21
11.75000000000003
 31
0.0
  0
LINE
  5
E417
  8
MSM_CONTINUOUS
 10
424.49999999999989
 20
31.750000000000028
 30
0.0
 11
422.49999999999989
 21
31.750000000000028
 31
0.0
  0
LINE
  5
E418
  8
MSM_CONTINUOUS
 10
424.49999999999989
 20
14.75000000000003
 30
0.0
 11
427.49999999999989
 21
14.75000000000003
 31
0.0
  0
LINE
  5
E419
  8
MSM_CONTINUOUS
 10
427.49999999999989
 20
28.750000000000028
 30
0.0
 11
424.49999999999989
 21
28.750000000000028
 31
0.0
  0
LINE
  5
E41A
  8
MSM_CONTINUOUS
 10
705.79999999999995
 20
15.75000000000003
 30
0.0
 11
700.20000000000005
 21
15.75000000000003
 31
0.0
  0
ARC
  5
E41B
  8
MSM_CONTINUOUS
 10
700.20000000000005
 20
19.950000000000021
 30
0.0
 40
4.200000000000272
 50
180.0
 51
270.0
  0
ARC
  5
E41E
  8
MSM_CONTINUOUS
 10
705.79999999999995
 20
19.950000000000021
 30
0.0
 40
4.2000000000000242
 50
270.0
 51
296.96593816720019
  0
LINE
  5
E41F
  8
MSM_CONTINUOUS
 10
714.5
 20
23.350000000000051
 30
0.0
 11
710.9124999999998
 21
24.750000000000028
 31
0.0
  0
LINE
  5
E422
  8
MSM_CONTINUOUS
 10
715.45520279840002
 20
20.150000000000009
 30
0.0
 11
730.0
 21
20.150000000000009
 31
0.0
  0
LINE
  5
E423
  8
MSM_CONTINUOUS
 10
707.7045350410998
 20
16.206639707800061
 30
0.0
 11
715.45520279840002
 21
20.150000000000009
 31
0.0
  0
LINE
  5
E425
  8
MSM_CONTINUOUS
 10
696.0
 20
24.750000000000028
 30
0.0
 11
710.9124999999998
 21
24.750000000000028
 31
0.0
  0
LINE
  5
E427
  8
MSM_CONTINUOUS
 10
730.0
 20
23.350000000000051
 30
0.0
 11
714.5
 21
23.350000000000051
 31
0.0
  0
LINE
  5
E428
  8
MSM_CONTINUOUS
 10
696.0
 20
16.750000000000028
 30
0.0
 11
696.0
 21
28.750000000000028
 31
0.0
  0
LINE
  5
E42B
  8
MSM_CONTINUOUS
 10
699.20000000000005
 20
28.750000000000028
 30
0.0
 11
696.0
 21
28.750000000000028
 31
0.0
  0
LINE
  5
E42C
  8
MSM_CONTINUOUS
 10
699.20000000000005
 20
24.750000000000028
 30
0.0
 11
699.20000000000005
 21
28.750000000000028
 31
0.0
  0
LINE
  5
E42D
  8
MSM_CONTINUOUS
 10
712.5
 20
18.55000000000004
 30
0.0
 11
727.5
 21
18.55000000000004
 31
0.0
  0
LINE
  5
E42F
  8
MSM_CONTINUOUS
 10
726.0
 20
17.55000000000004
 30
0.0
 11
714.0
 21
17.55000000000004
 31
0.0
  0
LINE
  5
E431
  8
MSM_CONTINUOUS
 10
714.62319797650002
 20
26.150000000000009
 30
0.0
 11
719.5
 21
26.150000000000009
 31
0.0
  0
LINE
  5
E434
  8
MSM_CONTINUOUS
 10
720.5
 20
26.150000000000009
 30
0.0
 11
725.37680202349998
 21
26.150000000000009
 31
0.0
  0
LINE
  5
E436
  8
MSM_CONTINUOUS
 10
720.5
 20
26.150000000000009
 30
0.0
 11
720.5
 21
23.350000000000051
 31
0.0
  0
LINE
  5
E437
  8
MSM_CONTINUOUS
 10
19.087499999999999
 20
24.750000000000028
 30
0.0
 11
34.0
 21
24.750000000000028
 31
0.0
  0
LINE
  5
E438
  8
MSM_CONTINUOUS
 10
34.0
 20
28.750000000000028
 30
0.0
 11
34.0
 21
19.950000000000021
 31
0.0
  0
ARC
  5
E43A
  8
MSM_CONTINUOUS
 10
29.79999999999999
 20
19.950000000000021
 30
0.0
 40
4.1999999999999877
 50
270.0
 51
0.0
  0
LINE
  5
E43D
  8
MSM_CONTINUOUS
 10
19.087499999999999
 20
24.750000000000028
 30
0.0
 11
15.5
 21
23.350000000000051
 31
0.0
  0
ARC
  5
E43E
  8
MSM_CONTINUOUS
 10
24.199999999999989
 20
19.950000000000021
 30
0.0
 40
4.2000000000000108
 50
243.03406183279969
 51
270.0
  0
LINE
  5
E43F
  8
MSM_CONTINUOUS
 10
14.544797201599989
 20
20.150000000000009
 30
0.0
 11
22.295464958899998
 21
16.206639707800061
 31
0.0
  0
LINE
  5
E442
  8
MSM_CONTINUOUS
 10
24.199999999999989
 20
15.75000000000003
 30
0.0
 11
29.79999999999999
 21
15.75000000000003
 31
0.0
  0
LINE
  5
E443
  8
MSM_CONTINUOUS
 10
0.0
 20
20.150000000000009
 30
0.0
 11
14.544797201599989
 21
20.150000000000009
 31
0.0
  0
LINE
  5
E444
  8
MSM_CONTINUOUS
 10
15.5
 20
23.350000000000051
 30
0.0
 11
0.0
 21
23.350000000000051
 31
0.0
  0
LINE
  5
E445
  8
MSM_CONTINUOUS
 10
34.0
 20
28.750000000000028
 30
0.0
 11
30.799999999999979
 21
28.750000000000028
 31
0.0
  0
LINE
  5
E447
  8
MSM_CONTINUOUS
 10
30.799999999999979
 20
28.750000000000028
 30
0.0
 11
30.799999999999979
 21
24.750000000000028
 31
0.0
  0
LINE
  5
E449
  8
MSM_CONTINUOUS
 10
2.5
 20
18.55000000000004
 30
0.0
 11
17.5
 21
18.55000000000004
 31
0.0
  0
LINE
  5
E44A
  8
MSM_CONTINUOUS
 10
16.0
 20
17.55000000000004
 30
0.0
 11
4.0
 21
17.55000000000004
 31
0.0
  0
LINE
  5
E44C
  8
MSM_CONTINUOUS
 10
4.6231979765000091
 20
26.150000000000009
 30
0.0
 11
9.5
 21
26.150000000000009
 31
0.0
  0
LINE
  5
E44F
  8
MSM_CONTINUOUS
 10
10.5
 20
26.150000000000009
 30
0.0
 11
15.3768020235
 21
26.150000000000009
 31
0.0
  0
LINE
  5
E452
  8
MSM_CONTINUOUS
 10
41.25
 20
10.75000000000003
 30
0.0
 11
41.25
 21
32.750000000000028
 31
0.0
  0
LINE
  5
E454
  8
MSM_CONTINUOUS
 10
39.75
 20
10.75000000000003
 30
0.0
 11
39.75
 21
32.750000000000028
 31
0.0
  0
LINE
  5
E456
  8
MSM_CONTINUOUS
 10
398.67157287520001
 20
10.75000000000003
 30
0.0
 11
398.67157287520001
 21
32.750000000000028
 31
0.0
  0
LINE
  5
E458
  8
MSM_CONTINUOUS
 10
401.49999999999989
 20
10.75000000000003
 30
0.0
 11
401.49999999999989
 21
32.750000000000028
 31
0.0
  0
LINE
  5
E45A
  8
MSM_CONTINUOUS
 10
422.49999999999989
 20
10.75000000000003
 30
0.0
 11
422.49999999999989
 21
32.750000000000028
 31
0.0
  0
LINE
  5
E45C
  8
MSM_CONTINUOUS
 10
37.296706911500031
 20
10.75000000000003
 30
0.0
 11
37.296706911500031
 21
32.750000000000028
 31
0.0
  0
LINE
  5
E45E
  8
MSM_CONTINUOUS
 10
424.49999999999989
 20
11.75000000000003
 30
0.0
 11
424.49999999999989
 21
31.750000000000028
 31
0.0
  0
LINE
  5
E460
  8
MSM_CONTINUOUS
 10
427.49999999999989
 20
14.75000000000003
 30
0.0
 11
427.49999999999989
 21
28.750000000000028
 31
0.0
  0
LINE
  5
E462
  8
MSM_CENTER
 10
-9.9183081571000002
 20
21.750000000000028
 30
0.0
 11
740.78217522659986
 21
21.750000000000028
 31
0.0
  0
LINE
  5
E463
  8
MSM_CENTER
 10
720.0
 20
30.150000000000009
 30
0.0
 11
720.0
 21
13.55000000000004
 31
0.0
  0
LINE
  5
E464
  8
MSM_CENTER
 10
10.0
 20
30.150000000000009
 30
0.0
 11
10.0
 21
13.55000000000004
 31
0.0
  0
LINE
  5
E465
  8
MSM_CONTINUOUS
 10
696.0
 20
201.69810669121719
 30
0.0
 11
427.49999999999989
 21
201.69810669121719
 31
0.0
  0
LINE
  5
E466
  8
MSM_CONTINUOUS
 10
427.49999999999989
 20
191.69810669121711
 30
0.0
 11
696.0
 21
191.69810669121711
 31
0.0
  0
ARC
  5
E467
  8
MSM_CONTINUOUS
 10
40.499999999999993
 20
185.69810669121719
 30
0.0
 40
0.7500000000000285
 50
180.0
 51
0.0
  0
ARC
  5
E468
  8
MSM_CONTINUOUS
 10
40.499999999999993
 20
207.69810669121719
 30
0.0
 40
0.7500000000000285
 50
0.0
 51
180.0
  0
LINE
  5
E46A
  8
MSM_CONTINUOUS
 10
398.67157287520001
 20
207.69810669121719
 30
0.0
 11
41.25
 21
207.69810669121719
 31
0.0
  0
ARC
  5
E46B
  8
MSM_CONTINUOUS
 10
400.08578643759989
 20
185.19810669121719
 30
0.0
 40
1.4999999999999181
 50
19.4712206344999
 51
160.5287793655001
  0
ARC
  5
E46C
  8
MSM_CONTINUOUS
 10
400.08578643759989
 20
208.19810669121719
 30
0.0
 40
1.499999999999956
 50
199.4712206344999
 51
340.5287793655001
  0
LINE
  5
E46D
  8
MSM_CONTINUOUS
 10
401.49999999999989
 20
185.69810669121719
 30
0.0
 11
422.49999999999989
 21
185.69810669121719
 31
0.0
  0
LINE
  5
E46E
  8
MSM_CONTINUOUS
 10
422.49999999999989
 20
207.69810669121719
 30
0.0
 11
401.49999999999989
 21
207.69810669121719
 31
0.0
  0
ARC
  5
E46F
  8
MSM_CONTINUOUS
 10
54.0
 20
196.69810669121719
 30
0.0
 40
19.999999999999989
 50
146.63298703079869
 51
213.3670129692008
  0
LINE
  5
E471
  8
MSM_CONTINUOUS
 10
39.75
 20
207.69810669121719
 30
0.0
 11
37.296706911500031
 21
207.69810669121719
 31
0.0
  0
LINE
  5
E476
  8
MSM_CONTINUOUS
 10
699.20000000000005
 20
193.19810669121719
 30
0.0
 11
696.0
 21
193.19810669121719
 31
0.0
  0
LINE
  5
E478
  8
MSM_CONTINUOUS
 10
699.20000000000005
 20
200.19810669121719
 30
0.0
 11
696.0
 21
200.19810669121719
 31
0.0
  0
LINE
  5
E47C
  8
MSM_CONTINUOUS
 10
710.9124999999998
 20
205.45211822671709
 30
0.0
 11
710.9124999999998
 21
206.88742960791711
 31
0.0
  0
LINE
  5
E47D
  8
MSM_CONTINUOUS
 10
706.5
 20
203.7786623221171
 30
0.0
 11
714.5
 21
206.8126900246171
 31
0.0
  0
LINE
  5
E47E
  8
MSM_CONTINUOUS
 10
700.22082881369988
 20
203.9094783885171
 30
0.0
 11
706.5
 21
203.7786623221171
 31
0.0
  0
ARC
  5
E47F
  8
MSM_CONTINUOUS
 10
700.20000000000005
 20
202.9096953318172
 30
0.0
 40
1.000000000000119
 50
88.806510576000306
 51
180.0
  0
ARC
  5
E481
  8
MSM_CONTINUOUS
 10
700.20000000000005
 20
202.9096953318172
 30
0.0
 40
4.200000000000272
 50
88.806510576000306
 51
180.0
  0
LINE
  5
E482
  8
MSM_CONTINUOUS
 10
720.0
 20
206.69810669121719
 30
0.0
 11
700.28748101749989
 21
207.10878417001709
 31
0.0
  0
ARC
  5
E486
  8
MSM_CONTINUOUS
 10
700.20000000000005
 20
190.48651805071711
 30
0.0
 40
1.000000000000113
 50
180.0
 51
271.19348942399972
  0
LINE
  5
E487
  8
MSM_CONTINUOUS
 10
706.5
 20
189.617551060317
 30
0.0
 11
700.22082881369988
 21
189.4867349940171
 31
0.0
  0
LINE
  5
E488
  8
MSM_CONTINUOUS
 10
714.5
 20
186.5835233579171
 30
0.0
 11
706.5
 21
189.617551060317
 31
0.0
  0
LINE
  5
E489
  8
MSM_CONTINUOUS
 10
710.9124999999998
 20
186.50878377461709
 30
0.0
 11
710.9124999999998
 21
187.94409515571701
 31
0.0
  0
LINE
  5
E48A
  8
MSM_CONTINUOUS
 10
700.28748101749989
 20
186.28742921241709
 30
0.0
 11
720.0
 21
186.69810669121719
 31
0.0
  0
ARC
  5
E48B
  8
MSM_CONTINUOUS
 10
700.20000000000005
 20
190.48651805071711
 30
0.0
 40
4.200000000000272
 50
180.0
 51
271.19348942399972
  0
LINE
  5
E48C
  8
MSM_CONTINUOUS
 10
696.0
 20
190.48651805071711
 30
0.0
 11
696.0
 21
202.9096953318172
 31
0.0
  0
LINE
  5
E48D
  8
MSM_CONTINUOUS
 10
699.20000000000005
 20
190.48651805071711
 30
0.0
 11
699.20000000000005
 21
202.9096953318172
 31
0.0
  0
ARC
  5
E490
  8
MSM_CONTINUOUS
 10
720.0
 20
196.69810669121719
 30
0.0
 40
10.0
 50
270.0
 51
90.0
  0
LINE
  5
E491
  8
MSM_CONTINUOUS
 10
725.49999999999989
 20
196.69810669121719
 30
0.0
 11
725.47663606773904
 21
196.19810669121719
 31
0.0
  0
LINE
  5
E495
  8
MSM_CONTINUOUS
 10
725.47697138895842
 20
197.19810669124041
 30
0.0
 11
725.49999999999989
 21
196.69810669121719
 31
0.0
  0
ARC
  5
E499
  8
MSM_CONTINUOUS
 10
720.0
 20
196.69810669121719
 30
0.0
 40
6.4383329999041967
 50
4.454066657799518
 51
85.54593334219966
  0
ARC
  5
E49B
  8
MSM_CONTINUOUS
 10
720.0
 20
196.69810669121719
 30
0.0
 40
5.4000000000001371
 50
5.3127747052985033
 51
84.687225294699843
  0
ARC
  5
E49C
  8
MSM_CONTINUOUS
 10
720.0
 20
196.69810669121719
 30
0.0
 40
6.438332999904075
 50
94.454066657800325
 51
175.54593334220041
  0
ARC
  5
E49D
  8
MSM_CONTINUOUS
 10
720.0
 20
196.69810669121719
 30
0.0
 40
5.400000000000011
 50
95.312774705300114
 51
174.68722529470151
  0
LINE
  5
E4A0
  8
MSM_CONTINUOUS
 10
726.41888867465832
 20
197.1981066912164
 30
0.0
 11
724.22048575400004
 21
197.19810669121719
 31
0.0
  0
ARC
  5
E4A1
  8
MSM_CONTINUOUS
 10
720.0
 20
196.69810669121719
 30
0.0
 40
4.4999999999999627
 50
6.3793702083987442
 51
83.620629791599626
  0
LINE
  5
E4A2
  8
MSM_CONTINUOUS
 10
720.5
 20
203.11699536591709
 30
0.0
 11
720.5
 21
200.91859244531719
 31
0.0
  0
ARC
  5
E4A3
  8
MSM_CONTINUOUS
 10
720.0
 20
196.69810669121719
 30
0.0
 40
4.499999999999952
 50
96.37937020840036
 51
173.6206297916012
  0
LINE
  5
E4A4
  8
MSM_CONTINUOUS
 10
713.58111132534191
 20
197.19810669121719
 30
0.0
 11
715.77951424599985
 21
197.19810669121719
 31
0.0
  0
LINE
  5
E4A5
  8
MSM_CONTINUOUS
 10
719.5
 20
203.11699536587531
 30
0.0
 11
719.5
 21
200.91859244531719
 31
0.0
  0
ARC
  5
E4AE
  8
MSM_CONTINUOUS
 10
720.0
 20
196.69810669121719
 30
0.0
 40
4.4999999999998392
 50
186.37937020839871
 51
263.62062979159958
  0
ARC
  5
E4B3
  8
MSM_CONTINUOUS
 10
720.0
 20
196.69810669121719
 30
0.0
 40
4.4999999999999627
 50
276.3793702084003
 51
353.62062979160117
  0
LINE
  5
E4B4
  8
MSM_CONTINUOUS
 10
719.5
 20
190.27921801655921
 30
0.0
 11
719.5
 21
192.4776209372171
 31
0.0
  0
ARC
  5
E4B5
  8
MSM_CONTINUOUS
 10
720.0
 20
196.69810669121719
 30
0.0
 40
5.3999999999998991
 50
185.31277470529849
 51
264.68722529469989
  0
LINE
  5
E4B6
  8
MSM_CONTINUOUS
 10
713.58111132530007
 20
196.19810669121719
 30
0.0
 11
715.77951424599985
 21
196.19810669121719
 31
0.0
  0
LINE
  5
E4B7
  8
MSM_CONTINUOUS
 10
720.5
 20
190.27921801661719
 30
0.0
 11
720.5
 21
192.4776209372171
 31
0.0
  0
LINE
  5
E4B8
  8
MSM_CONTINUOUS
 10
726.4188886746
 20
196.19810669121719
 30
0.0
 11
724.22048575400004
 21
196.19810669121719
 31
0.0
  0
ARC
  5
E4B9
  8
MSM_CONTINUOUS
 10
720.0
 20
196.69810669121719
 30
0.0
 40
5.4000000000001371
 50
275.31277470530011
 51
354.68722529470148
  0
ARC
  5
E4BB
  8
MSM_CONTINUOUS
 10
720.0
 20
196.69810669121719
 30
0.0
 40
6.4383329999039614
 50
184.4540666577995
 51
265.54593334219959
  0
ARC
  5
E4BF
  8
MSM_CONTINUOUS
 10
720.0
 20
196.69810669121719
 30
0.0
 40
6.4383329999041967
 50
274.4540666578003
 51
355.5459333422005
  0
LINE
  5
E510
  8
MSM_CONTINUOUS
 10
41.25
 20
185.69810669121719
 30
0.0
 11
41.25
 21
207.69810595251701
 31
0.0
  0
LINE
  5
E512
  8
MSM_CONTINUOUS
 10
398.67157287520001
 20
185.69810669121719
 30
0.0
 11
398.67157287520001
 21
207.69810669121719
 31
0.0
  0
LINE
  5
E513
  8
MSM_CONTINUOUS
 10
401.49999999999989
 20
185.69810669121719
 30
0.0
 11
401.49999999999989
 21
207.69810669121719
 31
0.0
  0
LINE
  5
E514
  8
MSM_CONTINUOUS
 10
422.49999999999989
 20
185.69810669121719
 30
0.0
 11
422.49999999999989
 21
207.69810669121719
 31
0.0
  0
LINE
  5
E51A
  8
MSM_CENTER
 10
-4.000000000000056
 20
196.69810669121719
 30
0.0
 11
734.0
 21
196.69810669121719
 31
0.0
  0
LINE
  5
E51F
  8
MSM_CONTINUOUS
 10
41.25
 20
185.69810669121719
 30
0.0
 11
398.67157287520001
 21
185.69810669121719
 31
0.0
  0
LINE
  5
E526
  8
MSM_CONTINUOUS
 10
37.296706911500031
 20
185.69810669121719
 30
0.0
 11
39.75
 21
185.69810669121719
 31
0.0
  0
LINE
  5
E528
  8
MSM_CONTINUOUS
 10
422.49999999999989
 20
186.69810669121719
 30
0.0
 11
424.49999999999989
 21
186.69810669121719
 31
0.0
  0
LINE
  5
E529
  8
MSM_CONTINUOUS
 10
424.49999999999989
 20
206.69810669121719
 30
0.0
 11
422.49999999999989
 21
206.69810669121719
 31
0.0
  0
LINE
  5
E52A
  8
MSM_CONTINUOUS
 10
424.49999999999989
 20
189.69810669121719
 30
0.0
 11
427.49999999999989
 21
189.69810669121719
 31
0.0
  0
LINE
  5
E52B
  8
MSM_CONTINUOUS
 10
427.49999999999989
 20
203.69810669121719
 30
0.0
 11
424.49999999999989
 21
203.69810669121719
 31
0.0
  0
LINE
  5
E5C7
  8
MSM_CONTINUOUS
 10
39.75
 20
185.69810669121719
 30
0.0
 11
39.75
 21
207.69810595251701
 31
0.0
  0
LINE
  5
E5CB
  8
MSM_CONTINUOUS
 10
37.296706911500031
 20
185.69810669121719
 30
0.0
 11
37.296706911500031
 21
207.69810669121719
 31
0.0
  0
LINE
  5
E5CC
  8
MSM_CONTINUOUS
 10
424.49999999999989
 20
186.69810669121719
 30
0.0
 11
424.49999999999989
 21
206.69810669121719
 31
0.0
  0
LINE
  5
E5CD
  8
MSM_CONTINUOUS
 10
427.49999999999989
 20
189.69810669121719
 30
0.0
 11
427.49999999999989
 21
203.69810669121719
 31
0.0
  0
LINE
  5
E5CE
  8
MSM_CONTINUOUS
 10
906.55920840829015
 20
15.75000000000003
 30
0.0
 11
906.55920840829015
 21
24.750000000000028
 31
0.0
  0
LINE
  5
E5CF
  8
MSM_CONTINUOUS
 10
885.73603112719002
 20
24.750000000000028
 30
0.0
 11
885.73603112719002
 21
15.75000000000003
 31
0.0
  0
LINE
  5
E5D0
  8
MSM_CONTINUOUS
 10
888.64761976769
 20
18.55000000000004
 30
0.0
 11
890.14761976768989
 21
17.55000000000004
 31
0.0
  0
LINE
  5
E5D1
  8
MSM_CONTINUOUS
 10
902.14761976769
 20
17.55000000000004
 30
0.0
 11
903.64761976769012
 21
18.55000000000004
 31
0.0
  0
LINE
  5
E5D2
  8
MSM_CONTINUOUS
 10
888.64761976769
 20
20.150000000000009
 30
0.0
 11
888.64761976769
 21
18.55000000000004
 31
0.0
  0
LINE
  5
E5D3
  8
MSM_CONTINUOUS
 10
903.64761976769012
 20
18.55000000000004
 30
0.0
 11
903.64761976769012
 21
20.150000000000009
 31
0.0
  0
ARC
  5
E5D5
  8
MSM_CONTINUOUS
 10
896.14761976768989
 20
21.750000000000028
 30
0.0
 40
11.75000000000013
 50
210.70635580009969
 51
329.29364419990031
  0
ARC
  5
E5D6
  8
MSM_CONTINUOUS
 10
896.14761976768989
 20
21.750000000000028
 30
0.0
 40
11.75000000000003
 50
332.38628456379888
 51
207.61370318407899
  0
LINE
  5
E5D8
  8
MSM_CONTINUOUS
 10
906.14761976768989
 20
20.150000000000009
 30
0.0
 11
906.14761976768989
 21
23.350000000000051
 31
0.0
  0
LINE
  5
E5D9
  8
MSM_CONTINUOUS
 10
886.14761976769
 20
20.150000000000009
 30
0.0
 11
886.14761976769
 21
23.350000000000051
 31
0.0
  0
POLYLINE
  5
E5DB
  8
MSM_CONTINUOUS
 10
885.85178643438996
 20
15.750000000000032
 30
0.0
 66
     1
 70
     8
  0
VERTEX
  8
MSM_CONTINUOUS
  5
F920
 10
885.852
 20
15.7500
 30
0.000000
  70
    32
  0
VERTEX
  8
MSM_CONTINUOUS
  5
F921
 10
885.852
 20
15.7500
 30
0.000000
  70
    32
  0
VERTEX
  8
MSM_CONTINUOUS
  5
F922
 10
885.852
 20
15.7501
 30
0.000000
  70
    32
  0
VERTEX
  8
MSM_CONTINUOUS
  5
F923
 10
885.853
 20
15.7503
 30
0.000000
  70
    32
  0
VERTEX
  8
MSM_CONTINUOUS
  5
F924
 10
885.853
 20
15.7505
 30
0.000000
  70
    32
  0
VERTEX
  8
MSM_CONTINUOUS
  5
F925
 10
885.853
 20
15.7507
 30
0.000000
  70
    32
  0
VERTEX
  8
MSM_CONTINUOUS
  5
F926
 10
885.854
 20
15.7510
 30
0.000000
  70
    32
  0
VERTEX
  8
MSM_CONTINUOUS
  5
F927
 10
885.854
 20
15.7514
 30
0.000000
  70
    32
  0
VERTEX
  8
MSM_CONTINUOUS
  5
F928
 10
885.854
 20
15.7518
 30
0.000000
  70
    32
  0
VERTEX
  8
MSM_CONTINUOUS
  5
F929
 10
885.855
 20
15.7523
 30
0.000000
  70
    32
  0
VERTEX
  8
MSM_CONTINUOUS
  5
F92A
 10
885.855
 20
15.7528
 30
0.000000
  70
    32
  0
VERTEX
  8
MSM_CONTINUOUS
  5
F92B
 10
885.855
 20
15.7534
 30
0.000000
  70
    32
  0
VERTEX
  8
MSM_CONTINUOUS
  5
F92C
 10
885.856
 20
15.7541
 30
0.000000
  70
    32
  0
VERTEX
  8
MSM_CONTINUOUS
  5
F92D
 10
885.856
 20
15.7548
 30
0.000000
  70
    32
  0
VERTEX
  8
MSM_CONTINUOUS
  5
F92E
 10
885.856
 20
15.7556
 30
0.000000
  70
    32
  0
VERTEX
  8
MSM_CONTINUOUS
  5
F92F
 10
885.857
 20
15.7564
 30
0.000000
  70
    32
  0
VERTEX
  8
MSM_CONTINUOUS
  5
F930
 10
885.857
 20
15.7573
 30
0.000000
  70
    32
  0
VERTEX
  8
MSM_CONTINUOUS
  5
F931
 10
885.857
 20
15.7582
 30
0.000000
  70
    32
  0
VERTEX
  8
MSM_CONTINUOUS
  5
F932
 10
885.858
 20
15.7592
 30
0.000000
  70
    32
  0
VERTEX
  8
MSM_CONTINUOUS
  5
F933
 10
885.858
 20
15.7602
 30
0.000000
  70
    32
  0
VERTEX
  8
MSM_CONTINUOUS
  5
F934
 10
885.858
 20
15.7614
 30
0.000000
  70
    32
  0
VERTEX
  8
MSM_CONTINUOUS
  5
F935
 10
885.859
 20
15.7625
 30
0.000000
  70
    32
  0
VERTEX
  8
MSM_CONTINUOUS
  5
F936
 10
885.859
 20
15.7637
 30
0.000000
  70
    32
  0
VERTEX
  8
MSM_CONTINUOUS
  5
F937
 10
885.859
 20
15.7650
 30
0.000000
  70
    32
  0
VERTEX
  8
MSM_CONTINUOUS
  5
F938
 10
885.859
 20
15.7663
 30
0.000000
  70
    32
  0
VERTEX
  8
MSM_CONTINUOUS
  5
F939
 10
885.860
 20
15.7677
 30
0.000000
  70
    32
  0
VERTEX
  8
MSM_CONTINUOUS
  5
F93A
 10
885.860
 20
15.7692
 30
0.000000
  70
    32
  0
VERTEX
  8
MSM_CONTINUOUS
  5
F93B
 10
885.860
 20
15.7707
 30
0.000000
  70
    32
  0
VERTEX
  8
MSM_CONTINUOUS
  5
F93C
 10
885.861
 20
15.7722
 30
0.000000
  70
    32
  0
VERTEX
  8
MSM_CONTINUOUS
  5
F93D
 10
885.861
 20
15.7739
 30
0.000000
  70
    32
  0
VERTEX
  8
MSM_CONTINUOUS
  5
F93E
 10
885.861
 20
15.7755
 30
0.000000
  70
    32
  0
VERTEX
  8
MSM_CONTINUOUS
  5
F93F
 10
885.862
 20
15.7773
 30
0.000000
  70
    32
  0
VERTEX
  8
MSM_CONTINUOUS
  5
F940
 10
885.862
 20
15.7790
 30
0.000000
  70
    32
  0
VERTEX
  8
MSM_CONTINUOUS
  5
F941
 10
885.862
 20
15.7809
 30
0.000000
  70
    32
  0
VERTEX
  8
MSM_CONTINUOUS
  5
F942
 10
885.863
 20
15.7828
 30
0.000000
  70
    32
  0
VERTEX
  8
MSM_CONTINUOUS
  5
F943
 10
885.863
 20
15.7847
 30
0.000000
  70
    32
  0
VERTEX
  8
MSM_CONTINUOUS
  5
F944
 10
885.863
 20
15.7867
 30
0.000000
  70
    32
  0
VERTEX
  8
MSM_CONTINUOUS
  5
F945
 10
885.864
 20
15.7888
 30
0.000000
  70
    32
  0
VERTEX
  8
MSM_CONTINUOUS
  5
F946
 10
885.864
 20
15.7909
 30
0.000000
  70
    32
  0
VERTEX
  8
MSM_CONTINUOUS
  5
F947
 10
885.864
 20
15.7931
 30
0.000000
  70
    32
  0
VERTEX
  8
MSM_CONTINUOUS
  5
F948
 10
885.865
 20
15.7953
 30
0.000000
  70
    32
  0
VERTEX
  8
MSM_CONTINUOUS
  5
F949
 10
885.865
 20
15.7976
 30
0.000000
  70
    32
  0
VERTEX
  8
MSM_CONTINUOUS
  5
F94A
 10
885.865
 20
15.8000
 30
0.000000
  70
    32
  0
VERTEX
  8
MSM_CONTINUOUS
  5
F94B
 10
885.866
 20
15.8024
 30
0.000000
  70
    32
  0
VERTEX
  8
MSM_CONTINUOUS
  5
F94C
 10
885.866
 20
15.8048
 30
0.000000
  70
    32
  0
VERTEX
  8
MSM_CONTINUOUS
  5
F94D
 10
885.866
 20
15.8074
 30
0.000000
  70
    32
  0
VERTEX
  8
MSM_CONTINUOUS
  5
F94E
 10
885.867
 20
15.8099
 30
0.000000
  70
    32
  0
VERTEX
  8
MSM_CONTINUOUS
  5
F94F
 10
885.867
 20
15.8126
 30
0.000000
  70
    32
  0
VERTEX
  8
MSM_CONTINUOUS
  5
F950
 10
885.867
 20
15.8152
 30
0.000000
  70
    32
  0
VERTEX
  8
MSM_CONTINUOUS
  5
F951
 10
885.867
 20
15.8180
 30
0.000000
  70
    32
  0
VERTEX
  8
MSM_CONTINUOUS
  5
F952
 10
885.868
 20
15.8208
 30
0.000000
  70
    32
  0
VERTEX
  8
MSM_CONTINUOUS
  5
F953
 10
885.868
 20
15.8236
 30
0.000000
  70
    32
  0
VERTEX
  8
MSM_CONTINUOUS
  5
F954
 10
885.868
 20
15.8265
 30
0.000000
  70
    32
  0
VERTEX
  8
MSM_CONTINUOUS
  5
F955
 10
885.869
 20
15.8295
 30
0.000000
  70
    32
  0
VERTEX
  8
MSM_CONTINUOUS
  5
F956
 10
885.869
 20
15.8325
 30
0.000000
  70
    32
  0
VERTEX
  8
MSM_CONTINUOUS
  5
F957
 10
885.869
 20
15.8356
 30
0.000000
  70
    32
  0
VERTEX
  8
MSM_CONTINUOUS
  5
F958
 10
885.870
 20
15.8387
 30
0.000000
  70
    32
  0
VERTEX
  8
MSM_CONTINUOUS
  5
F959
 10
885.870
 20
15.8419
 30
0.000000
  70
    32
  0
VERTEX
  8
MSM_CONTINUOUS
  5
F95A
 10
885.870
 20
15.8451
 30
0.000000
  70
    32
  0
VERTEX
  8
MSM_CONTINUOUS
  5
F95B
 10
885.871
 20
15.8484
 30
0.000000
  70
    32
  0
VERTEX
  8
MSM_CONTINUOUS
  5
F95C
 10
885.871
 20
15.8518
 30
0.000000
  70
    32
  0
VERTEX
  8
MSM_CONTINUOUS
  5
F95D
 10
885.871
 20
15.8552
 30
0.000000
  70
    32
  0
VERTEX
  8
MSM_CONTINUOUS
  5
F95E
 10
885.872
 20
15.8587
 30
0.000000
  70
    32
  0
VERTEX
  8
MSM_CONTINUOUS
  5
F95F
 10
885.872
 20
15.8622
 30
0.000000
  70
    32
  0
VERTEX
  8
MSM_CONTINUOUS
  5
F960
 10
885.872
 20
15.8658
 30
0.000000
  70
    32
  0
VERTEX
  8
MSM_CONTINUOUS
  5
F961
 10
885.873
 20
15.8694
 30
0.000000
  70
    32
  0
VERTEX
  8
MSM_CONTINUOUS
  5
F962
 10
885.873
 20
15.8731
 30
0.000000
  70
    32
  0
VERTEX
  8
MSM_CONTINUOUS
  5
F963
 10
885.873
 20
15.8768
 30
0.000000
  70
    32
  0
VERTEX
  8
MSM_CONTINUOUS
  5
F964
 10
885.873
 20
15.8806
 30
0.000000
  70
    32
  0
VERTEX
  8
MSM_CONTINUOUS
  5
F965
 10
885.874
 20
15.8844
 30
0.000000
  70
    32
  0
VERTEX
  8
MSM_CONTINUOUS
  5
F966
 10
885.874
 20
15.8884
 30
0.000000
  70
    32
  0
VERTEX
  8
MSM_CONTINUOUS
  5
F967
 10
885.874
 20
15.8923
 30
0.000000
  70
    32
  0
VERTEX
  8
MSM_CONTINUOUS
  5
F968
 10
885.875
 20
15.8963
 30
0.000000
  70
    32
  0
VERTEX
  8
MSM_CONTINUOUS
  5
F969
 10
885.875
 20
15.9004
 30
0.000000
  70
    32
  0
VERTEX
  8
MSM_CONTINUOUS
  5
F96A
 10
885.875
 20
15.9045
 30
0.000000
  70
    32
  0
VERTEX
  8
MSM_CONTINUOUS
  5
F96B
 10
885.876
 20
15.9087
 30
0.000000
  70
    32
  0
VERTEX
  8
MSM_CONTINUOUS
  5
F96C
 10
885.876
 20
15.9129
 30
0.000000
  70
    32
  0
VERTEX
  8
MSM_CONTINUOUS
  5
F96D
 10
885.876
 20
15.9172
 30
0.000000
  70
    32
  0
VERTEX
  8
MSM_CONTINUOUS
  5
F96E
 10
885.877
 20
15.9216
 30
0.000000
  70
    32
  0
VERTEX
  8
MSM_CONTINUOUS
  5
F96F
 10
885.877
 20
15.9259
 30
0.000000
  70
    32
  0
VERTEX
  8
MSM_CONTINUOUS
  5
F970
 10
885.877
 20
15.9304
 30
0.000000
  70
    32
  0
VERTEX
  8
MSM_CONTINUOUS
  5
F971
 10
885.877
 20
15.9349
 30
0.000000
  70
    32
  0
VERTEX
  8
MSM_CONTINUOUS
  5
F972
 10
885.878
 20
15.9395
 30
0.000000
  70
    32
  0
VERTEX
  8
MSM_CONTINUOUS
  5
F973
 10
885.878
 20
15.9441
 30
0.000000
  70
    32
  0
VERTEX
  8
MSM_CONTINUOUS
  5
F974
 10
885.878
 20
15.9487
 30
0.000000
  70
    32
  0
VERTEX
  8
MSM_CONTINUOUS
  5
F975
 10
885.879
 20
15.9535
 30
0.000000
  70
    32
  0
VERTEX
  8
MSM_CONTINUOUS
  5
F976
 10
885.879
 20
15.9582
 30
0.000000
  70
    32
  0
VERTEX
  8
MSM_CONTINUOUS
  5
F977
 10
885.879
 20
15.9631
 30
0.000000
  70
    32
  0
VERTEX
  8
MSM_CONTINUOUS
  5
F978
 10
885.880
 20
15.9680
 30
0.000000
  70
    32
  0
VERTEX
  8
MSM_CONTINUOUS
  5
F979
 10
885.880
 20
15.9729
 30
0.000000
  70
    32
  0
VERTEX
  8
MSM_CONTINUOUS
  5
F97A
 10
885.880
 20
15.9779
 30
0.000000
  70
    32
  0
VERTEX
  8
MSM_CONTINUOUS
  5
F97B
 10
885.881
 20
15.9829
 30
0.000000
  70
    32
  0
VERTEX
  8
MSM_CONTINUOUS
  5
F97C
 10
885.881
 20
15.9880
 30
0.000000
  70
    32
  0
VERTEX
  8
MSM_CONTINUOUS
  5
F97D
 10
885.881
 20
15.9932
 30
0.000000
  70
    32
  0
VERTEX
  8
MSM_CONTINUOUS
  5
F97E
 10
885.881
 20
15.9984
 30
0.000000
  70
    32
  0
VERTEX
  8
MSM_CONTINUOUS
  5
F97F
 10
885.882
 20
16.0036
 30
0.000000
  70
    32
  0
VERTEX
  8
MSM_CONTINUOUS
  5
F980
 10
885.882
 20
16.0089
 30
0.000000
  70
    32
  0
VERTEX
  8
MSM_CONTINUOUS
  5
F981
 10
885.882
 20
16.0143
 30
0.000000
  70
    32
  0
VERTEX
  8
MSM_CONTINUOUS
  5
F982
 10
885.883
 20
16.0197
 30
0.000000
  70
    32
  0
VERTEX
  8
MSM_CONTINUOUS
  5
F983
 10
885.883
 20
16.0252
 30
0.000000
  70
    32
  0
VERTEX
  8
MSM_CONTINUOUS
  5
F984
 10
885.883
 20
16.0307
 30
0.000000
  70
    32
  0
VERTEX
  8
MSM_CONTINUOUS
  5
F985
 10
885.884
 20
16.0363
 30
0.000000
  70
    32
  0
VERTEX
  8
MSM_CONTINUOUS
  5
F986
 10
885.884
 20
16.0419
 30
0.000000
  70
    32
  0
VERTEX
  8
MSM_CONTINUOUS
  5
F987
 10
885.884
 20
16.0476
 30
0.000000
  70
    32
  0
VERTEX
  8
MSM_CONTINUOUS
  5
F988
 10
885.884
 20
16.0534
 30
0.000000
  70
    32
  0
VERTEX
  8
MSM_CONTINUOUS
  5
F989
 10
885.885
 20
16.0591
 30
0.000000
  70
    32
  0
VERTEX
  8
MSM_CONTINUOUS
  5
F98A
 10
885.885
 20
16.0650
 30
0.000000
  70
    32
  0
VERTEX
  8
MSM_CONTINUOUS
  5
F98B
 10
885.885
 20
16.0709
 30
0.000000
  70
    32
  0
VERTEX
  8
MSM_CONTINUOUS
  5
F98C
 10
885.886
 20
16.0768
 30
0.000000
  70
    32
  0
VERTEX
  8
MSM_CONTINUOUS
  5
F98D
 10
885.886
 20
16.0828
 30
0.000000
  70
    32
  0
VERTEX
  8
MSM_CONTINUOUS
  5
F98E
 10
885.886
 20
16.0889
 30
0.000000
  70
    32
  0
VERTEX
  8
MSM_CONTINUOUS
  5
F98F
 10
885.887
 20
16.0950
 30
0.000000
  70
    32
  0
VERTEX
  8
MSM_CONTINUOUS
  5
F990
 10
885.887
 20
16.1011
 30
0.000000
  70
    32
  0
VERTEX
  8
MSM_CONTINUOUS
  5
F991
 10
885.887
 20
16.1073
 30
0.000000
  70
    32
  0
VERTEX
  8
MSM_CONTINUOUS
  5
F992
 10
885.887
 20
16.1136
 30
0.000000
  70
    32
  0
VERTEX
  8
MSM_CONTINUOUS
  5
F993
 10
885.888
 20
16.1199
 30
0.000000
  70
    32
  0
VERTEX
  8
MSM_CONTINUOUS
  5
F994
 10
885.888
 20
16.1263
 30
0.000000
  70
    32
  0
VERTEX
  8
MSM_CONTINUOUS
  5
F995
 10
885.888
 20
16.1327
 30
0.000000
  70
    32
  0
VERTEX
  8
MSM_CONTINUOUS
  5
F996
 10
885.889
 20
16.1392
 30
0.000000
  70
    32
  0
VERTEX
  8
MSM_CONTINUOUS
  5
F997
 10
885.889
 20
16.1457
 30
0.000000
  70
    32
  0
VERTEX
  8
MSM_CONTINUOUS
  5
F998
 10
885.889
 20
16.1522
 30
0.000000
  70
    32
  0
VERTEX
  8
MSM_CONTINUOUS
  5
F999
 10
885.889
 20
16.1589
 30
0.000000
  70
    32
  0
VERTEX
  8
MSM_CONTINUOUS
  5
F99A
 10
885.890
 20
16.1655
 30
0.000000
  70
    32
  0
VERTEX
  8
MSM_CONTINUOUS
  5
F99B
 10
885.890
 20
16.1723
 30
0.000000
  70
    32
  0
VERTEX
  8
MSM_CONTINUOUS
  5
F99C
 10
885.890
 20
16.1790
 30
0.000000
  70
    32
  0
VERTEX
  8
MSM_CONTINUOUS
  5
F99D
 10
885.891
 20
16.1859
 30
0.000000
  70
    32
  0
VERTEX
  8
MSM_CONTINUOUS
  5
F99E
 10
885.891
 20
16.1927
 30
0.000000
  70
    32
  0
VERTEX
  8
MSM_CONTINUOUS
  5
F99F
 10
885.891
 20
16.1997
 30
0.000000
  70
    32
  0
VERTEX
  8
MSM_CONTINUOUS
  5
F9A0
 10
885.891
 20
16.2066
 30
0.000000
  70
    32
  0
SEQEND
  8
MSM_CONTINUOUS
  5
F9A1
  0
LINE
  5
E5DE
  8
MSM_CONTINUOUS
 10
886.03303643439006
 20
23.350000000000051
 30
0.0
 11
885.95829685099011
 21
24.750000000000028
 31
0.0
  0
LINE
  5
E5DF
  8
MSM_CONTINUOUS
 10
885.89146424769001
 20
16.206639707800061
 30
0.0
 11
886.05293649268992
 21
20.150000000000009
 31
0.0
  0
LINE
  5
E5E0
  8
MSM_CONTINUOUS
 10
906.26220310099006
 20
23.350000000000051
 30
0.0
 11
886.03303643439006
 21
23.350000000000051
 31
0.0
  0
LINE
  5
E5E1
  8
MSM_CONTINUOUS
 10
886.05293649268992
 20
20.150000000000009
 30
0.0
 11
906.24230304268997
 21
20.150000000000009
 31
0.0
  0
LINE
  5
E5E2
  8
MSM_CONTINUOUS
 10
906.26220310099006
 20
23.350000000000051
 30
0.0
 11
906.33694268438978
 21
24.750000000000028
 31
0.0
  0
POLYLINE
  5
E5E5
  8
MSM_CONTINUOUS
 10
906.4037752876975
 20
16.206639707792526
 30
0.0
 66
     1
 70
     8
  0
VERTEX
  8
MSM_CONTINUOUS
  5
F9A2
 10
906.404
 20
16.2066
 30
0.000000
  70
    32
  0
VERTEX
  8
MSM_CONTINUOUS
  5
F9A3
 10
906.404
 20
16.1997
 30
0.000000
  70
    32
  0
VERTEX
  8
MSM_CONTINUOUS
  5
F9A4
 10
906.404
 20
16.1927
 30
0.000000
  70
    32
  0
VERTEX
  8
MSM_CONTINUOUS
  5
F9A5
 10
906.405
 20
16.1859
 30
0.000000
  70
    32
  0
VERTEX
  8
MSM_CONTINUOUS
  5
F9A6
 10
906.405
 20
16.1790
 30
0.000000
  70
    32
  0
VERTEX
  8
MSM_CONTINUOUS
  5
F9A7
 10
906.405
 20
16.1723
 30
0.000000
  70
    32
  0
VERTEX
  8
MSM_CONTINUOUS
  5
F9A8
 10
906.406
 20
16.1655
 30
0.000000
  70
    32
  0
VERTEX
  8
MSM_CONTINUOUS
  5
F9A9
 10
906.406
 20
16.1589
 30
0.000000
  70
    32
  0
VERTEX
  8
MSM_CONTINUOUS
  5
F9AA
 10
906.406
 20
16.1522
 30
0.000000
  70
    32
  0
VERTEX
  8
MSM_CONTINUOUS
  5
F9AB
 10
906.406
 20
16.1457
 30
0.000000
  70
    32
  0
VERTEX
  8
MSM_CONTINUOUS
  5
F9AC
 10
906.407
 20
16.1392
 30
0.000000
  70
    32
  0
VERTEX
  8
MSM_CONTINUOUS
  5
F9AD
 10
906.407
 20
16.1327
 30
0.000000
  70
    32
  0
VERTEX
  8
MSM_CONTINUOUS
  5
F9AE
 10
906.407
 20
16.1263
 30
0.000000
  70
    32
  0
VERTEX
  8
MSM_CONTINUOUS
  5
F9AF
 10
906.408
 20
16.1199
 30
0.000000
  70
    32
  0
VERTEX
  8
MSM_CONTINUOUS
  5
F9B0
 10
906.408
 20
16.1136
 30
0.000000
  70
    32
  0
VERTEX
  8
MSM_CONTINUOUS
  5
F9B1
 10
906.408
 20
16.1073
 30
0.000000
  70
    32
  0
VERTEX
  8
MSM_CONTINUOUS
  5
F9B2
 10
906.408
 20
16.1011
 30
0.000000
  70
    32
  0
VERTEX
  8
MSM_CONTINUOUS
  5
F9B3
 10
906.409
 20
16.0950
 30
0.000000
  70
    32
  0
VERTEX
  8
MSM_CONTINUOUS
  5
F9B4
 10
906.409
 20
16.0889
 30
0.000000
  70
    32
  0
VERTEX
  8
MSM_CONTINUOUS
  5
F9B5
 10
906.409
 20
16.0828
 30
0.000000
  70
    32
  0
VERTEX
  8
MSM_CONTINUOUS
  5
F9B6
 10
906.410
 20
16.0768
 30
0.000000
  70
    32
  0
VERTEX
  8
MSM_CONTINUOUS
  5
F9B7
 10
906.410
 20
16.0709
 30
0.000000
  70
    32
  0
VERTEX
  8
MSM_CONTINUOUS
  5
F9B8
 10
906.410
 20
16.0650
 30
0.000000
  70
    32
  0
VERTEX
  8
MSM_CONTINUOUS
  5
F9B9
 10
906.411
 20
16.0591
 30
0.000000
  70
    32
  0
VERTEX
  8
MSM_CONTINUOUS
  5
F9BA
 10
906.411
 20
16.0534
 30
0.000000
  70
    32
  0
VERTEX
  8
MSM_CONTINUOUS
  5
F9BB
 10
906.411
 20
16.0476
 30
0.000000
  70
    32
  0
VERTEX
  8
MSM_CONTINUOUS
  5
F9BC
 10
906.411
 20
16.0419
 30
0.000000
  70
    32
  0
VERTEX
  8
MSM_CONTINUOUS
  5
F9BD
 10
906.412
 20
16.0363
 30
0.000000
  70
    32
  0
VERTEX
  8
MSM_CONTINUOUS
  5
F9BE
 10
906.412
 20
16.0307
 30
0.000000
  70
    32
  0
VERTEX
  8
MSM_CONTINUOUS
  5
F9BF
 10
906.412
 20
16.0252
 30
0.000000
  70
    32
  0
VERTEX
  8
MSM_CONTINUOUS
  5
F9C0
 10
906.413
 20
16.0197
 30
0.000000
  70
    32
  0
VERTEX
  8
MSM_CONTINUOUS
  5
F9C1
 10
906.413
 20
16.0143
 30
0.000000
  70
    32
  0
VERTEX
  8
MSM_CONTINUOUS
  5
F9C2
 10
906.413
 20
16.0089
 30
0.000000
  70
    32
  0
VERTEX
  8
MSM_CONTINUOUS
  5
F9C3
 10
906.414
 20
16.0036
 30
0.000000
  70
    32
  0
VERTEX
  8
MSM_CONTINUOUS
  5
F9C4
 10
906.414
 20
15.9984
 30
0.000000
  70
    32
  0
VERTEX
  8
MSM_CONTINUOUS
  5
F9C5
 10
906.414
 20
15.9932
 30
0.000000
  70
    32
  0
VERTEX
  8
MSM_CONTINUOUS
  5
F9C6
 10
906.414
 20
15.9880
 30
0.000000
  70
    32
  0
VERTEX
  8
MSM_CONTINUOUS
  5
F9C7
 10
906.415
 20
15.9829
 30
0.000000
  70
    32
  0
VERTEX
  8
MSM_CONTINUOUS
  5
F9C8
 10
906.415
 20
15.9779
 30
0.000000
  70
    32
  0
VERTEX
  8
MSM_CONTINUOUS
  5
F9C9
 10
906.415
 20
15.9729
 30
0.000000
  70
    32
  0
VERTEX
  8
MSM_CONTINUOUS
  5
F9CA
 10
906.416
 20
15.9680
 30
0.000000
  70
    32
  0
VERTEX
  8
MSM_CONTINUOUS
  5
F9CB
 10
906.416
 20
15.9631
 30
0.000000
  70
    32
  0
VERTEX
  8
MSM_CONTINUOUS
  5
F9CC
 10
906.416
 20
15.9582
 30
0.000000
  70
    32
  0
VERTEX
  8
MSM_CONTINUOUS
  5
F9CD
 10
906.417
 20
15.9535
 30
0.000000
  70
    32
  0
VERTEX
  8
MSM_CONTINUOUS
  5
F9CE
 10
906.417
 20
15.9487
 30
0.000000
  70
    32
  0
VERTEX
  8
MSM_CONTINUOUS
  5
F9CF
 10
906.417
 20
15.9441
 30
0.000000
  70
    32
  0
VERTEX
  8
MSM_CONTINUOUS
  5
F9D0
 10
906.417
 20
15.9395
 30
0.000000
  70
    32
  0
VERTEX
  8
MSM_CONTINUOUS
  5
F9D1
 10
906.418
 20
15.9349
 30
0.000000
  70
    32
  0
VERTEX
  8
MSM_CONTINUOUS
  5
F9D2
 10
906.418
 20
15.9304
 30
0.000000
  70
    32
  0
VERTEX
  8
MSM_CONTINUOUS
  5
F9D3
 10
906.418
 20
15.9259
 30
0.000000
  70
    32
  0
VERTEX
  8
MSM_CONTINUOUS
  5
F9D4
 10
906.419
 20
15.9216
 30
0.000000
  70
    32
  0
VERTEX
  8
MSM_CONTINUOUS
  5
F9D5
 10
906.419
 20
15.9172
 30
0.000000
  70
    32
  0
VERTEX
  8
MSM_CONTINUOUS
  5
F9D6
 10
906.419
 20
15.9129
 30
0.000000
  70
    32
  0
VERTEX
  8
MSM_CONTINUOUS
  5
F9D7
 10
906.420
 20
15.9087
 30
0.000000
  70
    32
  0
VERTEX
  8
MSM_CONTINUOUS
  5
F9D8
 10
906.420
 20
15.9045
 30
0.000000
  70
    32
  0
VERTEX
  8
MSM_CONTINUOUS
  5
F9D9
 10
906.420
 20
15.9004
 30
0.000000
  70
    32
  0
VERTEX
  8
MSM_CONTINUOUS
  5
F9DA
 10
906.421
 20
15.8963
 30
0.000000
  70
    32
  0
VERTEX
  8
MSM_CONTINUOUS
  5
F9DB
 10
906.421
 20
15.8923
 30
0.000000
  70
    32
  0
VERTEX
  8
MSM_CONTINUOUS
  5
F9DC
 10
906.421
 20
15.8884
 30
0.000000
  70
    32
  0
VERTEX
  8
MSM_CONTINUOUS
  5
F9DD
 10
906.421
 20
15.8844
 30
0.000000
  70
    32
  0
VERTEX
  8
MSM_CONTINUOUS
  5
F9DE
 10
906.422
 20
15.8806
 30
0.000000
  70
    32
  0
VERTEX
  8
MSM_CONTINUOUS
  5
F9DF
 10
906.422
 20
15.8768
 30
0.000000
  70
    32
  0
VERTEX
  8
MSM_CONTINUOUS
  5
F9E0
 10
906.422
 20
15.8731
 30
0.000000
  70
    32
  0
VERTEX
  8
MSM_CONTINUOUS
  5
F9E1
 10
906.423
 20
15.8694
 30
0.000000
  70
    32
  0
VERTEX
  8
MSM_CONTINUOUS
  5
F9E2
 10
906.423
 20
15.8658
 30
0.000000
  70
    32
  0
VERTEX
  8
MSM_CONTINUOUS
  5
F9E3
 10
906.423
 20
15.8622
 30
0.000000
  70
    32
  0
VERTEX
  8
MSM_CONTINUOUS
  5
F9E4
 10
906.424
 20
15.8587
 30
0.000000
  70
    32
  0
VERTEX
  8
MSM_CONTINUOUS
  5
F9E5
 10
906.424
 20
15.8552
 30
0.000000
  70
    32
  0
VERTEX
  8
MSM_CONTINUOUS
  5
F9E6
 10
906.424
 20
15.8518
 30
0.000000
  70
    32
  0
VERTEX
  8
MSM_CONTINUOUS
  5
F9E7
 10
906.425
 20
15.8484
 30
0.000000
  70
    32
  0
VERTEX
  8
MSM_CONTINUOUS
  5
F9E8
 10
906.425
 20
15.8451
 30
0.000000
  70
    32
  0
VERTEX
  8
MSM_CONTINUOUS
  5
F9E9
 10
906.425
 20
15.8419
 30
0.000000
  70
    32
  0
VERTEX
  8
MSM_CONTINUOUS
  5
F9EA
 10
906.426
 20
15.8387
 30
0.000000
  70
    32
  0
VERTEX
  8
MSM_CONTINUOUS
  5
F9EB
 10
906.426
 20
15.8356
 30
0.000000
  70
    32
  0
VERTEX
  8
MSM_CONTINUOUS
  5
F9EC
 10
906.426
 20
15.8325
 30
0.000000
  70
    32
  0
VERTEX
  8
MSM_CONTINUOUS
  5
F9ED
 10
906.427
 20
15.8295
 30
0.000000
  70
    32
  0
VERTEX
  8
MSM_CONTINUOUS
  5
F9EE
 10
906.427
 20
15.8265
 30
0.000000
  70
    32
  0
VERTEX
  8
MSM_CONTINUOUS
  5
F9EF
 10
906.427
 20
15.8236
 30
0.000000
  70
    32
  0
VERTEX
  8
MSM_CONTINUOUS
  5
F9F0
 10
906.427
 20
15.8208
 30
0.000000
  70
    32
  0
VERTEX
  8
MSM_CONTINUOUS
  5
F9F1
 10
906.428
 20
15.8180
 30
0.000000
  70
    32
  0
VERTEX
  8
MSM_CONTINUOUS
  5
F9F2
 10
906.428
 20
15.8152
 30
0.000000
  70
    32
  0
VERTEX
  8
MSM_CONTINUOUS
  5
F9F3
 10
906.428
 20
15.8126
 30
0.000000
  70
    32
  0
VERTEX
  8
MSM_CONTINUOUS
  5
F9F4
 10
906.429
 20
15.8099
 30
0.000000
  70
    32
  0
VERTEX
  8
MSM_CONTINUOUS
  5
F9F5
 10
906.429
 20
15.8074
 30
0.000000
  70
    32
  0
VERTEX
  8
MSM_CONTINUOUS
  5
F9F6
 10
906.429
 20
15.8048
 30
0.000000
  70
    32
  0
VERTEX
  8
MSM_CONTINUOUS
  5
F9F7
 10
906.430
 20
15.8024
 30
0.000000
  70
    32
  0
VERTEX
  8
MSM_CONTINUOUS
  5
F9F8
 10
906.430
 20
15.8000
 30
0.000000
  70
    32
  0
VERTEX
  8
MSM_CONTINUOUS
  5
F9F9
 10
906.430
 20
15.7976
 30
0.000000
  70
    32
  0
VERTEX
  8
MSM_CONTINUOUS
  5
F9FA
 10
906.431
 20
15.7953
 30
0.000000
  70
    32
  0
VERTEX
  8
MSM_CONTINUOUS
  5
F9FB
 10
906.431
 20
15.7931
 30
0.000000
  70
    32
  0
VERTEX
  8
MSM_CONTINUOUS
  5
F9FC
 10
906.431
 20
15.7909
 30
0.000000
  70
    32
  0
VERTEX
  8
MSM_CONTINUOUS
  5
F9FD
 10
906.432
 20
15.7888
 30
0.000000
  70
    32
  0
VERTEX
  8
MSM_CONTINUOUS
  5
F9FE
 10
906.432
 20
15.7867
 30
0.000000
  70
    32
  0
VERTEX
  8
MSM_CONTINUOUS
  5
F9FF
 10
906.432
 20
15.7847
 30
0.000000
  70
    32
  0
VERTEX
  8
MSM_CONTINUOUS
  5
FA00
 10
906.433
 20
15.7828
 30
0.000000
  70
    32
  0
VERTEX
  8
MSM_CONTINUOUS
  5
FA01
 10
906.433
 20
15.7809
 30
0.000000
  70
    32
  0
VERTEX
  8
MSM_CONTINUOUS
  5
FA02
 10
906.433
 20
15.7790
 30
0.000000
  70
    32
  0
VERTEX
  8
MSM_CONTINUOUS
  5
FA03
 10
906.434
 20
15.7773
 30
0.000000
  70
    32
  0
VERTEX
  8
MSM_CONTINUOUS
  5
FA04
 10
906.434
 20
15.7755
 30
0.000000
  70
    32
  0
VERTEX
  8
MSM_CONTINUOUS
  5
FA05
 10
906.434
 20
15.7739
 30
0.000000
  70
    32
  0
VERTEX
  8
MSM_CONTINUOUS
  5
FA06
 10
906.434
 20
15.7722
 30
0.000000
  70
    32
  0
VERTEX
  8
MSM_CONTINUOUS
  5
FA07
 10
906.435
 20
15.7707
 30
0.000000
  70
    32
  0
VERTEX
  8
MSM_CONTINUOUS
  5
FA08
 10
906.435
 20
15.7692
 30
0.000000
  70
    32
  0
VERTEX
  8
MSM_CONTINUOUS
  5
FA09
 10
906.435
 20
15.7677
 30
0.000000
  70
    32
  0
VERTEX
  8
MSM_CONTINUOUS
  5
FA0A
 10
906.436
 20
15.7663
 30
0.000000
  70
    32
  0
VERTEX
  8
MSM_CONTINUOUS
  5
FA0B
 10
906.436
 20
15.7650
 30
0.000000
  70
    32
  0
VERTEX
  8
MSM_CONTINUOUS
  5
FA0C
 10
906.436
 20
15.7637
 30
0.000000
  70
    32
  0
VERTEX
  8
MSM_CONTINUOUS
  5
FA0D
 10
906.437
 20
15.7625
 30
0.000000
  70
    32
  0
VERTEX
  8
MSM_CONTINUOUS
  5
FA0E
 10
906.437
 20
15.7614
 30
0.000000
  70
    32
  0
VERTEX
  8
MSM_CONTINUOUS
  5
FA0F
 10
906.437
 20
15.7602
 30
0.000000
  70
    32
  0
VERTEX
  8
MSM_CONTINUOUS
  5
FA10
 10
906.438
 20
15.7592
 30
0.000000
  70
    32
  0
VERTEX
  8
MSM_CONTINUOUS
  5
FA11
 10
906.438
 20
15.7582
 30
0.000000
  70
    32
  0
VERTEX
  8
MSM_CONTINUOUS
  5
FA12
 10
906.438
 20
15.7573
 30
0.000000
  70
    32
  0
VERTEX
  8
MSM_CONTINUOUS
  5
FA13
 10
906.439
 20
15.7564
 30
0.000000
  70
    32
  0
VERTEX
  8
MSM_CONTINUOUS
  5
FA14
 10
906.439
 20
15.7556
 30
0.000000
  70
    32
  0
VERTEX
  8
MSM_CONTINUOUS
  5
FA15
 10
906.439
 20
15.7548
 30
0.000000
  70
    32
  0
VERTEX
  8
MSM_CONTINUOUS
  5
FA16
 10
906.440
 20
15.7541
 30
0.000000
  70
    32
  0
VERTEX
  8
MSM_CONTINUOUS
  5
FA17
 10
906.440
 20
15.7534
 30
0.000000
  70
    32
  0
VERTEX
  8
MSM_CONTINUOUS
  5
FA18
 10
906.440
 20
15.7528
 30
0.000000
  70
    32
  0
VERTEX
  8
MSM_CONTINUOUS
  5
FA19
 10
906.441
 20
15.7523
 30
0.000000
  70
    32
  0
VERTEX
  8
MSM_CONTINUOUS
  5
FA1A
 10
906.441
 20
15.7518
 30
0.000000
  70
    32
  0
VERTEX
  8
MSM_CONTINUOUS
  5
FA1B
 10
906.441
 20
15.7514
 30
0.000000
  70
    32
  0
VERTEX
  8
MSM_CONTINUOUS
  5
FA1C
 10
906.442
 20
15.7510
 30
0.000000
  70
    32
  0
VERTEX
  8
MSM_CONTINUOUS
  5
FA1D
 10
906.442
 20
15.7507
 30
0.000000
  70
    32
  0
VERTEX
  8
MSM_CONTINUOUS
  5
FA1E
 10
906.442
 20
15.7505
 30
0.000000
  70
    32
  0
VERTEX
  8
MSM_CONTINUOUS
  5
FA1F
 10
906.442
 20
15.7503
 30
0.000000
  70
    32
  0
VERTEX
  8
MSM_CONTINUOUS
  5
FA20
 10
906.443
 20
15.7501
 30
0.000000
  70
    32
  0
VERTEX
  8
MSM_CONTINUOUS
  5
FA21
 10
906.443
 20
15.7500
 30
0.000000
  70
    32
  0
VERTEX
  8
MSM_CONTINUOUS
  5
FA22
 10
906.443
 20
15.7500
 30
0.000000
  70
    32
  0
SEQEND
  8
MSM_CONTINUOUS
  5
FA23
  0
LINE
  5
E5E6
  8
MSM_CONTINUOUS
 10
906.40377528768988
 20
16.206639707800061
 30
0.0
 11
906.24230304268997
 21
20.150000000000009
 31
0.0
  0
LINE
  5
E5E9
  8
MSM_CONTINUOUS
 10
903.12148793739004
 20
18.19924544650004
 30
0.0
 11
903.20308091858988
 21
16.206639707800061
 31
0.0
  0
LINE
  5
E5EA
  8
MSM_CONTINUOUS
 10
889.17375159799008
 20
18.19924544650004
 30
0.0
 11
889.09215861679024
 21
16.206639707800061
 31
0.0
  0
LINE
  5
E5EB
  8
MSM_CONTINUOUS
 10
904.90163130319002
 20
24.750000000000028
 30
0.0
 11
906.26220310099006
 21
23.350000000000051
 31
0.0
  0
LINE
  5
E5EE
  8
MSM_CONTINUOUS
 10
903.22817539858977
 20
23.350000000000051
 30
0.0
 11
903.22817539858977
 21
24.750000000000028
 31
0.0
  0
LINE
  5
E5EF
  8
MSM_CONTINUOUS
 10
887.39360823218999
 20
24.750000000000028
 30
0.0
 11
886.03303643439006
 21
23.350000000000051
 31
0.0
  0
LINE
  5
E5F1
  8
MSM_CONTINUOUS
 10
889.06706413679012
 20
23.350000000000051
 30
0.0
 11
889.06706413679012
 21
24.750000000000028
 31
0.0
  0
LINE
  5
E5F6
  8
MSM_CONTINUOUS
 10
906.55920840829015
 20
15.75000000000003
 30
0.0
 11
885.73603112719002
 21
15.75000000000003
 31
0.0
  0
LINE
  5
E5F7
  8
MSM_CONTINUOUS
 10
885.73603112719002
 20
24.750000000000028
 30
0.0
 11
890.24967469699004
 21
24.750000000000028
 31
0.0
  0
LINE
  5
E5FA
  8
MSM_CONTINUOUS
 10
892.64761976768989
 20
26.150000000000009
 30
0.0
 11
892.64761976768989
 21
28.750000000000028
 31
0.0
  0
LINE
  5
E5FB
  8
MSM_CONTINUOUS
 10
892.64761976768989
 20
28.750000000000028
 30
0.0
 11
899.64761976769
 21
28.750000000000028
 31
0.0
  0
LINE
  5
E5FC
  8
MSM_CONTINUOUS
 10
899.64761976769
 20
26.150000000000009
 30
0.0
 11
899.64761976769
 21
28.750000000000028
 31
0.0
  0
LINE
  5
E5FE
  8
MSM_CONTINUOUS
 10
906.55920840829015
 20
24.750000000000028
 30
0.0
 11
902.04556483839008
 21
24.750000000000028
 31
0.0
  0
LINE
  5
E5FF
  8
MSM_CONTINUOUS
 10
888.64761976769
 20
18.55000000000004
 30
0.0
 11
903.64761976769012
 21
18.55000000000004
 31
0.0
  0
LINE
  5
E600
  8
MSM_CONTINUOUS
 10
902.14761976769
 20
17.55000000000004
 30
0.0
 11
890.14761976768989
 21
17.55000000000004
 31
0.0
  0
LINE
  5
E602
  8
MSM_CONTINUOUS
 10
890.77081774419003
 20
26.150000000000009
 30
0.0
 11
895.64761976769
 21
26.150000000000009
 31
0.0
  0
LINE
  5
E603
  8
MSM_CONTINUOUS
 10
895.64761976769
 20
26.150000000000009
 30
0.0
 11
895.64761976769
 21
23.350000000000051
 31
0.0
  0
LINE
  5
E605
  8
MSM_CONTINUOUS
 10
896.64761976769
 20
26.150000000000009
 30
0.0
 11
901.52442179118987
 21
26.150000000000009
 31
0.0
  0
ARC
  5
E607
  8
MSM_CONTINUOUS
 10
896.14761976768989
 20
21.750000000000028
 30
0.0
 40
7.0000000000001377
 50
120.0000000000001
 51
154.62306647479971
  0
ARC
  5
E608
  8
MSM_CONTINUOUS
 10
896.14761976768989
 20
21.750000000000028
 30
0.0
 40
6.9999999999999307
 50
25.376933525200251
 51
59.999999999999169
  0
ARC
  5
E609
  8
MSM_CONTINUOUS
 10
896.14761976768989
 20
21.750000000000028
 30
0.0
 40
7.0000000000000018
 50
238.99728086609949
 51
301.00271913390048
  0
ARC
  5
E60A
  8
MSM_CONTINUOUS
 10
896.14761976768989
 20
21.750000000000028
 30
0.0
 40
10.00000000000014
 50
17.457603123699119
 51
162.54239687630101
  0
ARC
  5
E60B
  8
MSM_CONTINUOUS
 10
896.14761976768989
 20
21.750000000000028
 30
0.0
 40
10.0
 50
216.86989764580059
 51
323.13010235419938
  0
ARC
  5
E60C
  8
MSM_CONTINUOUS
 10
896.14761976771638
 20
21.750000000015831
 30
0.0
 40
10.99999999998016
 50
341.17491177997653
 51
198.825088219859
  0
ARC
  5
E60D
  8
MSM_CONTINUOUS
 10
896.14761976768989
 20
21.750000000000028
 30
0.0
 40
10.999999999999959
 50
213.05573115090121
 51
326.94426884909871
  0
LINE
  5
E611
  8
MSM_CENTER
 10
912.14761976769
 20
21.750000000000028
 30
0.0
 11
880.14761976768989
 21
21.750000000000028
 31
0.0
  0
LINE
  5
E612
  8
MSM_CENTER
 10
896.14761976768989
 20
37.750000000000028
 30
0.0
 11
896.14761976768989
 21
5.7500000000000284
 31
0.0
  0
LINE
  5
E61A
  8
MSM_CENTER
 10
720.0
 20
210.69810669121719
 30
0.0
 11
720.0
 21
182.69810669121719
 31
0.0
  0
LINE
  5
E627
  8
MSM_CONTINUOUS
 10
890.77081774419003
 20
26.150000000000009
 30
0.0
 11
889.72873109309
 21
23.350000000000051
 31
0.0
  0
LINE
  5
E628
  8
MSM_CONTINUOUS
 10
896.64761976770001
 20
26.150000000031781
 30
0.0
 11
896.64761976770001
 21
23.35000000003177
 31
0.0
  0
LINE
  5
E629
  8
MSM_CONTINUOUS
 10
901.52442179118987
 20
26.150000000000009
 30
0.0
 11
902.56650844238993
 21
23.350000000000051
 31
0.0
  0
LINE
  5
E62A
  8
MSM_CONTINUOUS
 10
719.49999999998954
 20
26.150000000000009
 30
0.0
 11
719.49999999998988
 21
23.35000000003177
 31
0.0
  0
LINE
  5
E62B
  8
MSM_CONTINUOUS
 10
714.62319797650002
 20
26.150000000000009
 30
0.0
 11
713.69760122299988
 21
23.663131230100049
 31
0.0
  0
LINE
  5
E62C
  8
MSM_CONTINUOUS
 10
725.37680202349998
 20
26.150000000000009
 30
0.0
 11
726.4188886746
 21
23.350000000000051
 31
0.0
  0
LINE
  5
E62D
  8
MSM_CONTINUOUS
 10
4.6231979765000091
 20
26.150000000000009
 30
0.0
 11
3.5811113253317042
 21
23.35000000003177
 31
0.0
  0
LINE
  5
E62E
  8
MSM_CONTINUOUS
 10
9.4999999999896971
 20
26.150000000031781
 30
0.0
 11
9.4999999999896971
 21
23.35000000003177
 31
0.0
  0
LINE
  5
E62F
  8
MSM_CONTINUOUS
 10
10.49999999998969
 20
26.150000000031781
 30
0.0
 11
10.49999999998969
 21
23.35000000003177
 31
0.0
  0
LINE
  5
E630
  8
MSM_CONTINUOUS
 10
15.3768020235
 20
26.150000000000009
 30
0.0
 11
16.302398777000011
 21
23.663131230100049
 31
0.0
  0
CIRCLE
  5
E631
  8
MSM_CONTINUOUS
 10
720.0
 20
196.69810669121719
 30
0.0
 40
4.2500000000000409
  0
ARC
  5
E633
  8
MSM_CONTINUOUS
 10
719.91484155903754
 20
196.69905890647121
 30
0.0
 40
5.4148416427624166
 50
174.7119476593154
 51
185.30829005373911
  0
ARC
  5
E634
  8
MSM_CONTINUOUS
 10
720.0
 20
196.6981066796279
 30
0.0
 40
5.500000011589238
 50
84.784091440567082
 51
95.215908559432918
  0
ARC
  5
E635
  8
MSM_CONTINUOUS
 10
720.0
 20
196.6981066788004
 30
0.0
 40
5.4999999875832666
 50
264.7840914177379
 51
275.21590858226222
  0
LINE
  5
E636
  8
MSM_CONTINUOUS
 10
439.19999999999999
 20
193.19810669121719
 30
0.0
 11
435.99999999999989
 21
193.19810669121719
 31
0.0
  0
LINE
  5
E638
  8
MSM_CONTINUOUS
 10
439.19999999999999
 20
200.19810669121719
 30
0.0
 11
435.99999999999989
 21
200.19810669121719
 31
0.0
  0
LINE
  5
E63C
  8
MSM_CONTINUOUS
 10
450.91250000000002
 20
205.45211822671709
 30
0.0
 11
450.91250000000002
 21
206.88742960791711
 31
0.0
  0
LINE
  5
E63D
  8
MSM_CONTINUOUS
 10
446.49999999999989
 20
203.7786623221171
 30
0.0
 11
454.49999999999989
 21
206.8126900246171
 31
0.0
  0
LINE
  5
E63E
  8
MSM_CONTINUOUS
 10
440.22082881369988
 20
203.9094783885171
 30
0.0
 11
446.49999999999989
 21
203.7786623221171
 31
0.0
  0
ARC
  5
E63F
  8
MSM_CONTINUOUS
 10
440.19999999999999
 20
202.9096953318172
 30
0.0
 40
1.000000000000119
 50
88.806510575999496
 51
180.0
  0
ARC
  5
E641
  8
MSM_CONTINUOUS
 10
440.19999999999999
 20
202.9096953318172
 30
0.0
 40
4.200000000000272
 50
88.806510575999496
 51
180.0
  0
LINE
  5
E642
  8
MSM_CONTINUOUS
 10
459.99999999999989
 20
206.69810669121719
 30
0.0
 11
440.28748101749989
 21
207.10878417001709
 31
0.0
  0
ARC
  5
E646
  8
MSM_CONTINUOUS
 10
440.19999999999999
 20
190.48651805071711
 30
0.0
 40
1.000000000000113
 50
180.0
 51
271.19348942400052
  0
LINE
  5
E647
  8
MSM_CONTINUOUS
 10
446.49999999999989
 20
189.617551060317
 30
0.0
 11
440.22082881369988
 21
189.4867349940171
 31
0.0
  0
LINE
  5
E648
  8
MSM_CONTINUOUS
 10
454.49999999999989
 20
186.5835233579171
 30
0.0
 11
446.49999999999989
 21
189.617551060317
 31
0.0
  0
LINE
  5
E649
  8
MSM_CONTINUOUS
 10
450.91250000000002
 20
186.50878377461709
 30
0.0
 11
450.91250000000002
 21
187.94409515571701
 31
0.0
  0
LINE
  5
E64A
  8
MSM_CONTINUOUS
 10
440.28748101749989
 20
186.28742921241709
 30
0.0
 11
459.99999999999989
 21
186.69810669121719
 31
0.0
  0
ARC
  5
E64B
  8
MSM_CONTINUOUS
 10
440.19999999999999
 20
190.48651805071711
 30
0.0
 40
4.200000000000272
 50
180.0
 51
271.19348942400052
  0
LINE
  5
E64C
  8
MSM_CONTINUOUS
 10
435.99999999999989
 20
190.48651805071711
 30
0.0
 11
435.99999999999989
 21
202.9096953318172
 31
0.0
  0
LINE
  5
E64D
  8
MSM_CONTINUOUS
 10
439.19999999999999
 20
190.48651805071711
 30
0.0
 11
439.19999999999999
 21
202.9096953318172
 31
0.0
  0
ARC
  5
E650
  8
MSM_CONTINUOUS
 10
459.99999999999989
 20
196.69810669121719
 30
0.0
 40
10.0
 50
270.0
 51
90.0
  0
LINE
  5
E651
  8
MSM_CONTINUOUS
 10
465.49999999999989
 20
196.69810669121719
 30
0.0
 11
465.47663606773892
 21
196.19810669121719
 31
0.0
  0
LINE
  5
E652
  8
MSM_CONTINUOUS
 10
465.47697138895842
 20
197.19810669124041
 30
0.0
 11
465.49999999999989
 21
196.69810669121719
 31
0.0
  0
ARC
  5
E655
  8
MSM_CONTINUOUS
 10
459.99999999999989
 20
196.69810669121719
 30
0.0
 40
6.4383329999041967
 50
4.454066657799518
 51
85.545933342200485
  0
ARC
  5
E656
  8
MSM_CONTINUOUS
 10
459.99999999999989
 20
196.69810669121719
 30
0.0
 40
5.4000000000001371
 50
5.3127747052985033
 51
84.687225294698237
  0
ARC
  5
E657
  8
MSM_CONTINUOUS
 10
459.99999999999989
 20
196.69810669121719
 30
0.0
 40
6.438332999904075
 50
94.454066657799515
 51
175.54593334220041
  0
ARC
  5
E658
  8
MSM_CONTINUOUS
 10
459.99999999999989
 20
196.69810669121719
 30
0.0
 40
5.400000000000011
 50
95.312774705298494
 51
174.68722529470151
  0
LINE
  5
E659
  8
MSM_CONTINUOUS
 10
466.41888867465832
 20
197.1981066912164
 30
0.0
 11
464.22048575399998
 21
197.19810669121719
 31
0.0
  0
ARC
  5
E65A
  8
MSM_CONTINUOUS
 10
459.99999999999989
 20
196.69810669121719
 30
0.0
 40
4.4999999999999627
 50
6.3793702083987442
 51
83.620629791601274
  0
LINE
  5
E65B
  8
MSM_CONTINUOUS
 10
460.49999999999989
 20
203.11699536591709
 30
0.0
 11
460.49999999999989
 21
200.91859244531719
 31
0.0
  0
ARC
  5
E65C
  8
MSM_CONTINUOUS
 10
459.99999999999989
 20
196.69810669121719
 30
0.0
 40
4.499999999999952
 50
96.37937020839874
 51
173.6206297916012
  0
LINE
  5
E65D
  8
MSM_CONTINUOUS
 10
453.58111132534179
 20
197.19810669121719
 30
0.0
 11
455.77951424600002
 21
197.19810669121719
 31
0.0
  0
LINE
  5
E65E
  8
MSM_CONTINUOUS
 10
459.49999999999989
 20
203.11699536587531
 30
0.0
 11
459.49999999999989
 21
200.91859244531719
 31
0.0
  0
ARC
  5
E65F
  8
MSM_CONTINUOUS
 10
459.99999999999989
 20
196.69810669121719
 30
0.0
 40
4.4999999999998392
 50
186.37937020839871
 51
263.62062979159788
  0
ARC
  5
E660
  8
MSM_CONTINUOUS
 10
459.99999999999989
 20
196.69810669121719
 30
0.0
 40
4.4999999999999627
 50
276.37937020839871
 51
353.62062979160117
  0
LINE
  5
E661
  8
MSM_CONTINUOUS
 10
459.49999999999989
 20
190.27921801655921
 30
0.0
 11
459.49999999999989
 21
192.4776209372171
 31
0.0
  0
ARC
  5
E662
  8
MSM_CONTINUOUS
 10
459.99999999999989
 20
196.69810669121719
 30
0.0
 40
5.3999999999998991
 50
185.31277470529849
 51
264.68722529470148
  0
LINE
  5
E663
  8
MSM_CONTINUOUS
 10
453.58111132530001
 20
196.19810669121719
 30
0.0
 11
455.77951424600002
 21
196.19810669121719
 31
0.0
  0
LINE
  5
E664
  8
MSM_CONTINUOUS
 10
460.49999999999989
 20
190.27921801661719
 30
0.0
 11
460.49999999999989
 21
192.4776209372171
 31
0.0
  0
LINE
  5
E665
  8
MSM_CONTINUOUS
 10
466.4188886746
 20
196.19810669121719
 30
0.0
 11
464.22048575399998
 21
196.19810669121719
 31
0.0
  0
ARC
  5
E666
  8
MSM_CONTINUOUS
 10
459.99999999999989
 20
196.69810669121719
 30
0.0
 40
5.4000000000001371
 50
275.31277470529852
 51
354.68722529470148
  0
ARC
  5
E667
  8
MSM_CONTINUOUS
 10
459.99999999999989
 20
196.69810669121719
 30
0.0
 40
6.4383329999039614
 50
184.4540666577995
 51
265.5459333422005
  0
ARC
  5
E668
  8
MSM_CONTINUOUS
 10
459.99999999999989
 20
196.69810669121719
 30
0.0
 40
6.4383329999041967
 50
274.4540666577995
 51
355.5459333422005
  0
CIRCLE
  5
E669
  8
MSM_CONTINUOUS
 10
459.99999999999989
 20
196.69810669121719
 30
0.0
 40
4.2500000000000409
  0
LINE
  5
E66A
  8
MSM_CENTER
 10
459.99999999999989
 20
210.69810669121719
 30
0.0
 11
459.99999999999989
 21
182.69810669121719
 31
0.0
  0
ARC
  5
E66B
  8
MSM_CONTINUOUS
 10
459.91484155903748
 20
196.69905890647121
 30
0.0
 40
5.4148416427624166
 50
174.7119476593154
 51
185.30829005373889
  0
ARC
  5
E66C
  8
MSM_CONTINUOUS
 10
459.99999999999989
 20
196.6981066796279
 30
0.0
 40
5.500000011589238
 50
84.784091440565447
 51
95.215908559434567
  0
ARC
  5
E66D
  8
MSM_CONTINUOUS
 10
459.99999999999989
 20
196.6981066788004
 30
0.0
 40
5.4999999875832666
 50
264.7840914177379
 51
275.21590858226222
  0
LINE
  5
E66E
  8
MSM_CONTINUOUS
 10
30.799999999999962
 20
200.19810669121719
 30
0.0
 11
34.0
 21
200.19810669121719
 31
0.0
  0
LINE
  5
E670
  8
MSM_CONTINUOUS
 10
30.799999999999962
 20
193.19810669121719
 30
0.0
 11
34.0
 21
193.19810669121719
 31
0.0
  0
LINE
  5
E674
  8
MSM_CONTINUOUS
 10
19.08749999999997
 20
187.94409515571729
 30
0.0
 11
19.08749999999997
 21
186.5087837745173
 31
0.0
  0
LINE
  5
E676
  8
MSM_CONTINUOUS
 10
29.77917118629999
 20
189.48673499391731
 30
0.0
 11
23.499999999999989
 21
189.61755106031731
 31
0.0
  0
ARC
  5
E677
  8
MSM_CONTINUOUS
 10
29.799999999999951
 20
190.48651805061721
 30
0.0
 40
1.000000000000119
 50
268.80651057600272
 51
0.0
  0
LINE
  5
E678
  8
MSM_CONTINUOUS
 10
34.0
 20
190.48651805061721
 30
0.0
 11
34.0
 21
202.90969533171719
 31
0.0
  0
ARC
  5
E679
  8
MSM_CONTINUOUS
 10
29.799999999999951
 20
190.48651805061721
 30
0.0
 40
4.200000000000272
 50
268.80651057600272
 51
0.0
  0
LINE
  5
E67B
  8
MSM_CONTINUOUS
 10
30.799999999999962
 20
190.48651805061721
 30
0.0
 11
30.799999999999962
 21
202.90969533171719
 31
0.0
  0
LINE
  5
E67C
  8
MSM_CONTINUOUS
 10
23.499999999999989
 20
189.61755106031731
 30
0.0
 11
15.499999999999989
 21
186.58352335781731
 31
0.0
  0
ARC
  5
E67E
  8
MSM_CONTINUOUS
 10
29.799999999999951
 20
202.90969533171719
 30
0.0
 40
1.000000000000113
 50
0.0
 51
91.193489423997235
  0
LINE
  5
E67F
  8
MSM_CONTINUOUS
 10
23.499999999999989
 20
203.7786623221173
 30
0.0
 11
29.779171186300012
 21
203.90947838841731
 31
0.0
  0
LINE
  5
E681
  8
MSM_CONTINUOUS
 10
19.08749999999997
 20
206.8874296078173
 30
0.0
 11
19.08749999999997
 21
205.45211822671729
 31
0.0
  0
ARC
  5
E683
  8
MSM_CONTINUOUS
 10
29.799999999999951
 20
202.90969533171719
 30
0.0
 40
4.200000000000272
 50
0.0
 51
91.193489423997235
  0
LINE
  5
E687
  8
MSM_CONTINUOUS
 10
23.499999999999989
 20
203.7786623221173
 30
0.0
 11
15.499999999999989
 21
206.8126900245172
 31
0.0
  0
ARC
  5
E688
  8
MSM_CONTINUOUS
 10
9.9999999999999911
 20
196.69810669121719
 30
0.0
 40
10.0
 50
90.0
 51
270.0
  0
LINE
  5
E689
  8
MSM_CONTINUOUS
 10
4.499999999999992
 20
196.69810669121719
 30
0.0
 11
4.5233639322609562
 21
197.19810669121719
 31
0.0
  0
LINE
  5
E68A
  8
MSM_CONTINUOUS
 10
4.523028611041461
 20
196.198106691194
 30
0.0
 11
4.499999999999992
 21
196.69810669121719
 31
0.0
  0
LINE
  5
E68B
  8
MSM_CONTINUOUS
 10
9.9999999999999911
 20
206.69810669121719
 30
0.0
 11
29.712518982500001
 21
207.1087841700172
 31
0.0
  0
LINE
  5
E68C
  8
MSM_CONTINUOUS
 10
29.71251898249999
 20
186.28742921241729
 30
0.0
 11
9.9999999999999911
 21
186.69810669121719
 31
0.0
  0
ARC
  5
E68D
  8
MSM_CONTINUOUS
 10
9.9999999999999911
 20
196.69810669121719
 30
0.0
 40
6.4383329999041967
 50
184.4540666577995
 51
265.5459333422009
  0
ARC
  5
E68E
  8
MSM_CONTINUOUS
 10
9.9999999999999911
 20
196.69810669121719
 30
0.0
 40
5.4000000000001371
 50
185.31277470529849
 51
264.68722529470148
  0
ARC
  5
E68F
  8
MSM_CONTINUOUS
 10
9.9999999999999911
 20
196.69810669121719
 30
0.0
 40
6.438332999904075
 50
274.4540666577991
 51
355.5459333422005
  0
ARC
  5
E690
  8
MSM_CONTINUOUS
 10
9.9999999999999911
 20
196.69810669121719
 30
0.0
 40
5.400000000000011
 50
275.31277470529852
 51
354.68722529470148
  0
LINE
  5
E691
  8
MSM_CONTINUOUS
 10
3.5811113253416731
 20
196.1981066912179
 30
0.0
 11
5.7795142459999553
 21
196.19810669121719
 31
0.0
  0
ARC
  5
E692
  8
MSM_CONTINUOUS
 10
9.9999999999999911
 20
196.69810669121719
 30
0.0
 40
4.4999999999999627
 50
186.37937020840201
 51
263.62062979159759
  0
LINE
  5
E693
  8
MSM_CONTINUOUS
 10
9.4999999999999911
 20
190.27921801651721
 30
0.0
 11
9.4999999999999911
 21
192.47762093711719
 31
0.0
  0
ARC
  5
E694
  8
MSM_CONTINUOUS
 10
9.9999999999999911
 20
196.69810669121719
 30
0.0
 40
4.499999999999952
 50
276.37937020840229
 51
353.62062979159799
  0
LINE
  5
E695
  8
MSM_CONTINUOUS
 10
16.418888674658081
 20
196.19810669121719
 30
0.0
 11
14.22048575399992
 21
196.19810669121719
 31
0.0
  0
LINE
  5
E696
  8
MSM_CONTINUOUS
 10
10.499999999999989
 20
190.2792180165591
 30
0.0
 11
10.499999999999989
 21
192.47762093711719
 31
0.0
  0
ARC
  5
E697
  8
MSM_CONTINUOUS
 10
9.9999999999999911
 20
196.69810669121719
 30
0.0
 40
4.4999999999998392
 50
6.3793702084020198
 51
83.620629791597608
  0
ARC
  5
E698
  8
MSM_CONTINUOUS
 10
9.9999999999999911
 20
196.69810669121719
 30
0.0
 40
4.4999999999999627
 50
96.37937020840242
 51
173.62062979159799
  0
LINE
  5
E699
  8
MSM_CONTINUOUS
 10
10.499999999999989
 20
203.1169953658752
 30
0.0
 11
10.499999999999989
 21
200.9185924452172
 31
0.0
  0
ARC
  5
E69A
  8
MSM_CONTINUOUS
 10
9.9999999999999911
 20
196.69810669121719
 30
0.0
 40
5.3999999999998991
 50
5.3127747052985033
 51
84.687225294701506
  0
LINE
  5
E69B
  8
MSM_CONTINUOUS
 10
16.418888674699922
 20
197.19810669121719
 30
0.0
 11
14.22048575399992
 21
197.19810669121719
 31
0.0
  0
LINE
  5
E69C
  8
MSM_CONTINUOUS
 10
9.4999999999999911
 20
203.11699536581719
 30
0.0
 11
9.4999999999999911
 21
200.9185924452172
 31
0.0
  0
LINE
  5
E69D
  8
MSM_CONTINUOUS
 10
3.5811113253998812
 20
197.19810669121719
 30
0.0
 11
5.7795142459999553
 21
197.19810669121719
 31
0.0
  0
ARC
  5
E69E
  8
MSM_CONTINUOUS
 10
9.9999999999999911
 20
196.69810669121719
 30
0.0
 40
5.4000000000001371
 50
95.312774705298494
 51
174.68722529470151
  0
ARC
  5
E69F
  8
MSM_CONTINUOUS
 10
9.9999999999999911
 20
196.69810669121719
 30
0.0
 40
6.4383329999039614
 50
4.454066657799518
 51
85.545933342200854
  0
ARC
  5
E6A0
  8
MSM_CONTINUOUS
 10
9.9999999999999911
 20
196.69810669121719
 30
0.0
 40
6.4383329999041967
 50
94.454066657799103
 51
175.54593334220041
  0
CIRCLE
  5
E6A1
  8
MSM_CONTINUOUS
 10
9.9999999999999911
 20
196.69810669121719
 30
0.0
 40
4.2500000000000409
  0
LINE
  5
E6A2
  8
MSM_CENTER
 10
9.9999999999999911
 20
182.69810669121719
 30
0.0
 11
9.9999999999999911
 21
210.69810669121719
 31
0.0
  0
ARC
  5
E6A3
  8
MSM_CONTINUOUS
 10
10.08515844096245
 20
196.6971544759632
 30
0.0
 40
5.4148416427624166
 50
354.71194765931631
 51
5.3082900537382844
  0
ARC
  5
E6A4
  8
MSM_CONTINUOUS
 10
9.9999999999999911
 20
196.6981067028064
 30
0.0
 40
5.500000011589238
 50
264.78409144056542
 51
275.21590855943458
  0
ARC
  5
E6A5
  8
MSM_CONTINUOUS
 10
9.9999999999999911
 20
196.6981067036339
 30
0.0
 40
5.4999999875832666
 50
84.784091417737841
 51
95.215908582262159
  0
LINE
  5
E6A6
  8
MSM_DASHED
 10
5.7499999999999503
 20
26.150000000000009
 30
0.0
 11
5.7499999999999503
 21
17.55000000000004
 31
0.0
  0
LINE
  5
E6A7
  8
MSM_DASHED
 10
14.25000000000003
 20
26.150000000000009
 30
0.0
 11
14.25000000000003
 21
17.55000000000004
 31
0.0
  0
LINE
  5
E6A8
  8
MSM_DASHED
 10
715.74999999999989
 20
26.150000000000009
 30
0.0
 11
715.74999999999989
 21
17.55000000000004
 31
0.0
  0
LINE
  5
E6A9
  8
MSM_DASHED
 10
724.24999999999989
 20
26.150000000000009
 30
0.0
 11
724.24999999999989
 21
17.55000000000004
 31
0.0
  0
LINE
  5
E6AA
  8
MSM_DASHED
 10
891.89761976768989
 20
26.150000000000009
 30
0.0
 11
891.89761976768989
 21
17.55000000000004
 31
0.0
  0
LINE
  5
E6AB
  8
MSM_DASHED
 10
900.39761976769
 20
26.150000000000009
 30
0.0
 11
900.39761976769
 21
17.55000000000004
 31
0.0
  0
ENDSEC
  0
EOF
