  0
SECTION
  2
HEADER
  9
$ACADVER
  1
AC1009
  9
$INSBASE
 10
0.0
 20
0.0
 30
0.0
  9
$EXTMIN
 10
138.88635513019969
 20
66.932373613738875
 30
-0.0000000349181948
  9
$EXTMAX
 10
315.39397994380289
 20
200.79391527314891
 30
0.0000000814935747
  9
$LIMMIN
 10
0.0
 20
0.0
  9
$LIMMAX
 10
297.0
 20
210.0
  9
$ORTHOMODE
 70
     0
  9
$REGENMODE
 70
     1
  9
$FILLMODE
 70
     1
  9
$QTEXTMODE
 70
     0
  9
$MIRRTEXT
 70
     1
  9
$DRAGMODE
 70
     2
  9
$LTSCALE
 40
1.0
  9
$OSMODE
 70
   167
  9
$ATTMODE
 70
     1
  9
$TEXTSIZE
 40
6.4000000000000012
  9
$TRACEWID
 40
0.05
  9
$TEXTSTYLE
  7
STANDARD
  9
$CLAYER
  8
0
  9
$CELTYPE
  6
CONTINUOUS
  9
$CECOLOR
 62
     7
  9
$DIMSCALE
 40
1.0
  9
$DIMASZ
 40
3.0
  9
$DIMEXO
 40
1.0
  9
$DIMDLI
 40
0.0
  9
$DIMRND
 40
0.0
  9
$DIMDLE
 40
0.0
  9
$DIMEXE
 40
1.0
  9
$DIMTP
 40
0.0
  9
$DIMTM
 40
0.0
  9
$DIMTXT
 40
3.2000000000000002
  9
$DIMCEN
 40
0.0
  9
$DIMTSZ
 40
0.0
  9
$DIMTOL
 70
     0
  9
$DIMLIM
 70
     0
  9
$DIMTIH
 70
     0
  9
$DIMTOH
 70
     0
  9
$DIMSE1
 70
     0
  9
$DIMSE2
 70
     0
  9
$DIMTAD
 70
     1
  9
$DIMZIN
 70
     8
  9
$DIMBLK
  1

  9
$DIMASO
 70
     1
  9
$DIMSHO
 70
     1
  9
$DIMPOST
  1

  9
$DIMAPOST
  1

  9
$DIMALT
 70
     0
  9
$DIMALTD
 70
     2
  9
$DIMALTF
 40
0.04
  9
$DIMLFAC
 40
1.0
  9
$DIMTOFL
 70
     1
  9
$DIMTVP
 40
1.0
  9
$DIMTIX
 70
     1
  9
$DIMSOXD
 70
     0
  9
$DIMSAH
 70
     0
  9
$DIMBLK1
  1

  9
$DIMBLK2
  1

  9
$DIMSTYLE
  2
MISUMI
  9
$DIMCLRD
 70
     0
  9
$DIMCLRE
 70
     0
  9
$DIMCLRT
 70
     0
  9
$DIMTFAC
 40
0.6
  9
$DIMGAP
 40
1.0
  9
$LUNITS
 70
     2
  9
$LUPREC
 70
     4
  9
$SKETCHINC
 40
0.1
  9
$FILLETRAD
 40
0.3
  9
$AUNITS
 70
     0
  9
$AUPREC
 70
     0
  9
$MENU
  1
acad
  9
$ELEVATION
 40
0.0
  9
$PELEVATION
 40
0.0
  9
$THICKNESS
 40
0.0
  9
$LIMCHECK
 70
     0
  9
$BLIPMODE
 70
     0
  9
$CHAMFERA
 40
0.5
  9
$CHAMFERB
 40
0.5
  9
$SKPOLY
 70
     0
  9
$TDCREATE
 40
2451464.60066493
  9
$TDUPDATE
 40
2453805.4272035882
  9
$TDINDWG
 40
0.1946976968
  9
$TDUSRTIMER
 40
0.1946931134
  9
$USRTIMER
 70
     1
  9
$ANGBASE
 50
0.0
  9
$ANGDIR
 70
     0
  9
$PDMODE
 70
     0
  9
$PDSIZE
 40
0.0
  9
$PLINEWID
 40
0.0
  9
$COORDS
 70
     0
  9
$SPLFRAME
 70
     0
  9
$SPLINETYPE
 70
     6
  9
$SPLINESEGS
 70
     8
  9
$ATTDIA
 70
     0
  9
$ATTREQ
 70
     1
  9
$HANDLING
 70
 22529
  9
$HANDSEED
  5
2A2F
  9
$SURFTAB1
 70
     6
  9
$SURFTAB2
 70
     6
  9
$SURFTYPE
 70
     6
  9
$SURFU
 70
     6
  9
$SURFV
 70
     6
  9
$UCSNAME
  2

  9
$UCSORG
 10
0.0
 20
0.0
 30
0.0
  9
$UCSXDIR
 10
1.0
 20
0.0
 30
0.0
  9
$UCSYDIR
 10
0.0
 20
1.0
 30
0.0
  9
$PUCSNAME
  2

  9
$PUCSORG
 10
0.0
 20
0.0
 30
0.0
  9
$PUCSXDIR
 10
1.0
 20
0.0
 30
0.0
  9
$PUCSYDIR
 10
0.0
 20
1.0
 30
0.0
  9
$USERI1
 70
     0
  9
$USERI2
 70
     0
  9
$USERI3
 70
     0
  9
$USERI4
 70
     0
  9
$USERI5
 70
     0
  9
$USERR1
 40
0.0
  9
$USERR2
 40
0.0
  9
$USERR3
 40
0.0
  9
$USERR4
 40
0.0
  9
$USERR5
 40
0.0
  9
$WORLDVIEW
 70
     1
  9
$SHADEDGE
 70
     3
  9
$SHADEDIF
 70
    70
  9
$TILEMODE
 70
     1
  9
$MAXACTVP
 70
    16
  9
$PLIMCHECK
 70
     0
  9
$PEXTMIN
 10
1.0000000000000000E+020
 20
1.0000000000000000E+020
 30
1.0000000000000000E+020
  9
$PEXTMAX
 10
-1.0000000000000000E+020
 20
-1.0000000000000000E+020
 30
-1.0000000000000000E+020
  9
$PLIMMIN
 10
0.0
 20
0.0
  9
$PLIMMAX
 10
12.0
 20
9.0
  9
$UNITMODE
 70
     0
  9
$VISRETAIN
 70
     0
  9
$PLINEGEN
 70
     0
  9
$PSLTSCALE
 70
     1
  0
ENDSEC
  0
SECTION
  2
TABLES
  0
TABLE
  2
VPORT
 70
     3
  0
VPORT
  2
*ACTIVE
 70
     0
 10
0.0
 20
0.0
 11
1.0
 21
1.0
 12
227.1401675370013
 22
133.8631444434439
 13
0.0
 23
0.0
 14
10.0
 24
10.0
 15
10.0
 25
10.0
 16
0.0
 26
0.0
 36
1.0
 17
0.0
 27
0.0
 37
0.0
 40
135.37410145217169
 41
1.8962264150943391
 42
50.0
 43
0.0
 44
0.0
 50
0.0
 51
0.0
 71
     0
 72
   100
 73
     1
 74
     0
 75
     0
 76
     0
 77
     0
 78
     0
  0
ENDTAB
  0
TABLE
  2
LTYPE
 70
     3
  0
LTYPE
  2
CONTINUOUS
 70
     0
  3
Solid line
 72
    65
 73
     0
 40
0.0
  0
LTYPE
  2
CENTER
 70
     0
  3
Center ____ _ ____ _ ____ _ ____ _ ____ _ ____
 72
    65
 73
     4
 40
2.0
 49
1.25
 49
-0.25
 49
0.25
 49
-0.25
  0
LTYPE
  2
DASHED
 70
     0
  3
Dashed __ __ __ __ __ __ __ __ __ __ __ __ __ _
 72
    65
 73
     2
 40
19.050000000000001
 49
12.699999999999999
 49
-6.349999999999997
  0
ENDTAB
  0
TABLE
  2
LAYER
 70
     3
  0
LAYER
  2
0
 70
     0
 62
     7
  6
CONTINUOUS
  0
LAYER
  2
CENTER
 70
     0
 62
     1
  6
CENTER
  0
ENDTAB
  0
TABLE
  2
STYLE
 70
     1
  0
STYLE
  2
STANDARD
 70
     0
 40
0.0
 41
1.0
 50
0.0
 71
     0
 42
6.4000000000000012
  3
txt
  4

  0
ENDTAB
  0
TABLE
  2
VIEW
 70
     0
  0
ENDTAB
  0
TABLE
  2
UCS
 70
     0
  0
ENDTAB
  0
TABLE
  2
APPID
 70
     1
  0
APPID
  2
ACAD
 70
     0
  0
ENDTAB
  0
TABLE
  2
DIMSTYLE
 70
     1
  0
DIMSTYLE
  2
MISUMI
 70
     0
  3

  4

  5

  6

  7

 40
1.0
 41
3.0
 42
1.0
 43
0.0
 44
1.0
 45
0.0
 46
0.0
 47
0.0
 48
0.0
140
3.2000000000000002
141
0.0
142
0.0
143
0.04
144
1.0
145
1.0
146
0.6
147
1.0
 71
     0
 72
     0
 73
     0
 74
     0
 75
     0
 76
     0
 77
     1
 78
     8
170
     0
171
     2
172
     1
173
     0
174
     1
175
     0
176
     0
177
     0
178
     0
  0
ENDTAB
  0
ENDSEC
  0
SECTION
  2
BLOCKS
  0
BLOCK
  8
0
  2
$MODEL_SPACE
 70
     0
 10
0.0
 20
0.0
 30
0.0
  3
$MODEL_SPACE
  1

  0
ENDBLK
  5
281B
  8
0
  0
BLOCK
 67
     1
  8
0
  2
$PAPER_SPACE
 70
     0
 10
0.0
 20
0.0
 30
0.0
  3
$PAPER_SPACE
  1

  0
ENDBLK
  5
2817
 67
     1
  8
0
  0
ENDSEC
  0
SECTION
  2
ENTITIES
  0
LINE
  5
2829
  8
0
 10
158.6043819747936
 20
112.2818446346369
 30
0.0
 11
158.6043819747936
 21
182.28184463463711
 31
0.0
  0
LINE
  5
282A
  8
0
 10
156.40438197479341
 20
112.281844634637
 30
0.0
 11
156.40438197479341
 21
182.28184463463711
 31
0.0
  0
LINE
  5
282B
  8
0
 10
142.40438197479341
 20
111.981844634637
 30
0.0
 11
142.40438197479341
 21
176.681844634637
 31
0.0
  0
LINE
  5
282C
  8
0
 10
161.40438197479341
 20
199.28184463463711
 30
0.0
 11
161.40438197479341
 21
147.28184463463711
 31
0.0
  0
LINE
  5
282D
  8
0
 10
140.40438197479349
 20
147.28184463463711
 30
0.0
 11
140.40438197479349
 21
182.28184463463711
 31
0.0
  0
TEXT
  5
282E
  8
0
 10
141.28719587269501
 20
76.946619588539932
 30
0.0
 40
2.0
  1
BGRR 6007ZZ
  0
TEXT
  5
282F
  8
0
 10
141.28719587269501
 20
66.946619588539932
 30
0.0
 40
2.0
  1
BGRR6007
  0
LINE
  5
2830
  8
0
 10
142.40438197479341
 20
111.981844634637
 30
0.0
 11
142.40438197479341
 21
95.281844634637139
 31
0.0
  0
LINE
  5
2831
  8
0
 10
161.40438197479341
 20
95.281844634637139
 30
0.0
 11
161.40438197479341
 21
147.28184463463711
 31
0.0
  0
LINE
  5
2832
  8
0
 10
152.8043819747935
 20
96.281844634637153
 30
0.0
 11
152.8043819747935
 21
103.281844634637
 31
0.0
  0
LINE
  5
2833
  8
0
 10
142.40438197479341
 20
95.281844634637139
 30
0.0
 11
161.40438197479341
 21
95.281844634637139
 31
0.0
  0
LINE
  5
2834
  8
0
 62
     3
 10
152.8043819747935
 20
98.281844634637125
 30
0.0
 11
142.40438197479341
 21
98.281844634637125
 31
0.0
  0
LINE
  5
2835
  8
0
 10
152.8043819747935
 20
99.031844634637153
 30
0.0
 11
142.40438197479341
 21
99.031844634637153
 31
0.0
  0
LINE
  5
2836
  8
0
 10
161.40438197479341
 20
96.281844634637153
 30
0.0
 11
152.8043819747935
 21
96.281844634637153
 31
0.0
  0
LINE
  5
2837
  8
0
 10
140.40438197479349
 20
147.28184463463711
 30
0.0
 11
140.40438197479349
 21
112.281844634637
 31
0.0
  0
LINE
  5
283C
  8
0
 10
152.8043819747935
 20
107.531844634637
 30
0.0
 11
142.40438197479341
 21
107.531844634637
 31
0.0
  0
LINE
  5
283D
  8
0
 62
     3
 10
152.8043819747935
 20
108.281844634637
 30
0.0
 11
142.40438197479341
 21
108.281844634637
 31
0.0
  0
LINE
  5
283E
  8
CENTER
  6
CENTER
 62
     1
 10
162.90438197479341
 20
103.281844634637
 30
0.0
 11
138.90438197479341
 21
103.281844634637
 31
0.0
  0
LINE
  5
283F
  8
0
 10
142.10438197479351
 20
112.281844634637
 30
0.0
 11
140.40438197479349
 21
112.281844634637
 31
0.0
  0
ARC
  5
2840
  8
0
 10
142.10438197479351
 20
111.981844634637
 30
0.0
 40
0.3
 50
0.0
 51
90.0
  0
LINE
  5
2846
  8
0
 10
142.40438197479341
 20
119.7818446346369
 30
0.0
 11
140.40438197479349
 21
119.7818446346369
 31
0.0
  0
LINE
  5
2862
  8
0
 10
161.40438197479341
 20
110.281844634637
 30
0.0
 11
152.8043819747935
 21
110.281844634637
 31
0.0
  0
LINE
  5
2863
  8
0
 10
152.8043819747935
 20
110.281844634637
 30
0.0
 11
152.8043819747935
 21
103.281844634637
 31
0.0
  0
LINE
  5
2864
  8
0
 10
158.6043819747936
 20
112.2818446346369
 30
0.0
 11
156.40438197479341
 21
112.281844634637
 31
0.0
  0
LINE
  5
2865
  8
0
 10
161.40438197479421
 20
116.2818446346369
 30
0.0
 11
158.60438197479439
 21
116.2818446346369
 31
0.0
  0
LINE
  5
2868
  8
0
 10
158.60438197479371
 20
117.7818446346369
 30
0.0
 11
156.40438197479341
 21
117.781844634637
 31
0.0
  0
LINE
  5
2886
  8
CENTER
  6
CENTER
 62
     1
 10
138.90438197479341
 20
147.28184463463711
 30
0.0
 11
162.90438197479341
 21
147.28184463463711
 31
0.0
  0
LINE
  5
2889
  8
0
 10
142.40438197479341
 20
176.681844634637
 30
0.0
 11
142.40438197479341
 21
199.28184463463711
 31
0.0
  0
LINE
  5
288A
  8
0
 10
152.8043819747935
 20
198.28184463463711
 30
0.0
 11
152.8043819747935
 21
191.28184463463711
 31
0.0
  0
LINE
  5
28B1
  8
0
 10
152.8043819747935
 20
195.53184463463711
 30
0.0
 11
142.40438197479341
 21
195.53184463463711
 31
0.0
  0
LINE
  5
28B2
  8
0
 62
     3
 10
152.8043819747935
 20
196.28184463463711
 30
0.0
 11
142.40438197479341
 21
196.28184463463711
 31
0.0
  0
LINE
  5
28B3
  8
0
 62
     3
 10
152.8043819747935
 20
186.28184463463711
 30
0.0
 11
142.40438197479341
 21
186.28184463463711
 31
0.0
  0
LINE
  5
28B4
  8
0
 10
152.8043819747935
 20
187.03184463463711
 30
0.0
 11
142.40438197479341
 21
187.03184463463711
 31
0.0
  0
LINE
  5
28B5
  8
CENTER
  6
CENTER
 62
     1
 10
162.90438197479341
 20
191.28184463463711
 30
0.0
 11
138.90438197479341
 21
191.28184463463711
 31
0.0
  0
LINE
  5
28B7
  8
0
 10
142.40438197479341
 20
174.78184463463711
 30
0.0
 11
140.40438197479349
 21
174.78184463463711
 31
0.0
  0
LINE
  5
28C6
  8
0
 10
142.10438197479351
 20
182.28184463463711
 30
0.0
 11
140.40438197479349
 21
182.28184463463711
 31
0.0
  0
ARC
  5
28C7
  8
0
 10
142.10438197479351
 20
182.58184463463709
 30
0.0
 40
0.3
 50
270.0
 51
0.0
  0
LINE
  5
28C9
  8
0
 10
152.8043819747935
 20
184.281844634637
 30
0.0
 11
152.8043819747935
 21
191.28184463463711
 31
0.0
  0
LINE
  5
28CA
  8
0
 10
161.40438197479341
 20
178.28184463463711
 30
0.0
 11
158.6043819747936
 21
178.28184463463711
 31
0.0
  0
LINE
  5
28CB
  8
0
 10
161.40438197479341
 20
184.281844634637
 30
0.0
 11
152.8043819747935
 21
184.281844634637
 31
0.0
  0
LINE
  5
28CC
  8
0
 10
158.60438197479371
 20
176.78184463463711
 30
0.0
 11
156.40438197479341
 21
176.78184463463711
 31
0.0
  0
LINE
  5
28DC
  8
0
 10
158.6043819747936
 20
182.28184463463711
 30
0.0
 11
156.40438197479341
 21
182.28184463463711
 31
0.0
  0
LINE
  5
28DD
  8
0
 10
142.40438197479341
 20
199.28184463463711
 30
0.0
 11
161.40438197479341
 21
199.28184463463711
 31
0.0
  0
LINE
  5
28DE
  8
0
 10
161.40438197479341
 20
198.28184463463711
 30
0.0
 11
152.8043819747935
 21
198.28184463463711
 31
0.0
  0
CIRCLE
  5
28DF
  8
0
 62
     3
 10
217.8882653006886
 20
147.28184463463711
 30
0.0
 40
5.0
  0
CIRCLE
  5
28E0
  8
0
 62
     3
 10
305.88826530068872
 20
147.28184463463711
 30
0.0
 40
5.0
  0
CIRCLE
  5
28E1
  8
0
 10
261.88826530068872
 20
147.28184463463711
 30
0.0
 40
52.0
  0
CIRCLE
  5
28E2
  8
0
 10
261.88826530068872
 20
147.28184463463711
 30
0.0
 40
31.0
  0
CIRCLE
  5
28E3
  8
0
 10
217.8882653006886
 20
147.28184463463711
 30
0.0
 40
4.25
  0
CIRCLE
  5
28E4
  8
0
 10
217.8882653006886
 20
147.28184463463711
 30
0.0
 40
7.0
  0
CIRCLE
  5
28E5
  8
0
 10
261.88826530068872
 20
147.28184463463711
 30
0.0
 40
17.5
  0
CIRCLE
  5
28E6
  8
0
 10
305.88826530068872
 20
147.28184463463711
 30
0.0
 40
7.0
  0
CIRCLE
  5
28E7
  8
0
 10
305.88826530068872
 20
147.28184463463711
 30
0.0
 40
4.25
  0
CIRCLE
  5
28E8
  8
0
  6
DASHED
 62
     3
 10
261.88826530068872
 20
147.28184463463711
 30
0.0
 40
35.0
  0
CIRCLE
  5
28E9
  8
0
  6
DASHED
 62
     3
 10
261.88826530068872
 20
147.28184463463711
 30
0.0
 40
27.5
  0
LINE
  5
28EA
  8
CENTER
  6
CENTER
 62
     1
 10
261.88826530068872
 20
200.78184463463691
 30
0.0
 11
261.88826530068872
 21
93.781844634637153
 31
0.0
  0
CIRCLE
  5
28EB
  8
CENTER
  6
CENTER
 62
     1
 10
261.88826530068872
 20
147.28184463463711
 30
0.0
 40
44.0
  0
LINE
  5
28EC
  8
CENTER
  6
CENTER
 62
     1
 10
315.38826530068872
 20
147.28184463463711
 30
0.0
 11
208.38826530068869
 21
147.28184463463711
 31
0.0
  0
CIRCLE
  5
28ED
  8
0
 62
     3
 10
261.88826530068872
 20
103.281844634637
 30
0.0
 40
5.0
  0
CIRCLE
  5
28EE
  8
0
 10
261.88826530068872
 20
103.281844634637
 30
0.0
 40
7.0
  0
CIRCLE
  5
28EF
  8
0
 10
261.88826530068872
 20
103.281844634637
 30
0.0
 40
4.25
  0
CIRCLE
  5
28F0
  8
0
 10
261.88826530068872
 20
191.28184463463711
 30
0.0
 40
7.0
  0
CIRCLE
  5
28F1
  8
0
 62
     3
 10
261.88826530068872
 20
191.28184463463711
 30
0.0
 40
5.0
  0
CIRCLE
  5
28F2
  8
0
 10
261.88826530068872
 20
191.28184463463711
 30
0.0
 40
4.25
  0
LINE
  5
298E
  8
0
 10
143.40438197479349
 20
116.2818446346371
 30
0.0
 11
155.40438197479341
 21
116.2818446346371
 31
0.0
  0
LINE
  5
298F
  8
0
 10
143.40438197479349
 20
164.78184463463711
 30
0.0
 11
155.40438197479341
 21
164.78184463463691
 31
0.0
  0
LINE
  5
2990
  8
0
 10
143.40438197479349
 20
178.28184463463711
 30
0.0
 11
155.40438197479341
 21
178.28184463463711
 31
0.0
  0
LINE
  5
2991
  8
0
 10
143.40438197479349
 20
129.7818446346368
 30
0.0
 11
155.40438197479341
 21
129.7818446346368
 31
0.0
  0
LINE
  5
2992
  8
0
 10
154.71117735775991
 20
174.55384121307611
 30
0.0
 11
154.63232343455709
 21
173.6641869887579
 31
0.0
  0
LINE
  5
2993
  8
0
 10
154.970536513003
 20
168.06333329693939
 30
0.0
 11
154.6471736897723
 21
168.95033597233439
 31
0.0
  0
LINE
  5
2994
  8
0
 10
154.6623819747935
 20
173.13183463463679
 30
0.0
 11
155.76238197479341
 21
172.0318446344551
 31
0.0
  0
ARC
  5
2995
  8
0
 10
155.23910769167139
 20
174.5070484514969
 30
0.0
 40
0.5300000000000003
 50
35.064446778954782
 51
174.93486218463781
  0
LINE
  5
2997
  8
0
 10
142.40438197479349
 20
177.28184463463711
 30
0.0
 11
142.40438197479349
 21
117.281844634637
 31
0.0
  0
LINE
  5
299A
  8
0
 10
146.45438197479339
 20
116.2818446346371
 30
0.0
 11
146.45438197479339
 21
116.2819446346371
 31
0.0
  0
LINE
  5
299B
  8
0
 10
148.90438197479341
 20
116.2818446346371
 30
0.0
 11
148.9044819747931
 21
116.2818446346371
 31
0.0
  0
LINE
  5
299C
  8
0
 10
143.04638197479341
 20
172.0318446344551
 30
0.0
 11
143.04638197479341
 21
168.98184463463679
 31
0.0
  0
LINE
  5
299D
  8
0
 10
142.74638197479339
 20
172.1559246350007
 30
0.0
 11
142.74638197479339
 21
168.98183463463681
 31
0.0
  0
LINE
  5
299E
  8
0
 10
144.3494933378457
 20
169.081834634637
 30
0.0
 11
146.90489182680301
 21
169.081834634637
 31
0.0
  0
LINE
  5
299F
  8
0
 10
143.56638197479339
 20
168.98184463463679
 30
0.0
 11
143.04638197479341
 21
168.98184463463679
 31
0.0
  0
LINE
  5
29A0
  8
0
 10
143.04638197479341
 20
168.681834634637
 30
0.0
 11
143.56638197479339
 21
168.681834634637
 31
0.0
  0
LINE
  5
29A1
  8
0
 10
143.47517085731889
 20
167.931834634637
 30
0.0
 11
143.65032435855241
 21
167.931834634637
 31
0.0
  0
LINE
  5
29A2
  8
0
 10
142.6043819747934
 20
168.38183463463699
 30
0.0
 11
143.00432484901171
 21
168.38183463463699
 31
0.0
  0
ARC
  5
29A3
  8
0
 10
143.04638197479341
 20
168.98183463463681
 30
0.0
 40
0.3
 50
180.0
 51
270.0
  0
LINE
  5
29A4
  8
0
 10
143.00432484901171
 20
168.38183463463699
 30
0.0
 11
143.3219599046202
 21
168.00327957260839
 31
0.0
  0
ARC
  5
29A5
  8
0
 10
143.47517085731889
 20
168.13183463463679
 30
0.0
 40
0.2
 50
219.99908007006911
 51
269.9999999999992
  0
ARC
  5
29A6
  8
0
 10
142.6043819747934
 20
168.18183463463711
 30
0.0
 40
0.2
 50
89.999999999999204
 51
180.0
  0
LINE
  5
29A7
  8
0
 10
143.56638197479339
 20
168.681834634637
 30
0.0
 11
143.56638197479339
 21
168.98184463463679
 31
0.0
  0
ARC
  5
29A8
  8
0
 10
143.65032435855241
 20
168.13183463463679
 30
0.0
 40
0.2
 50
269.99999999999829
 51
339.97033113570939
  0
LINE
  5
29A9
  8
0
 10
143.83822743658371
 20
168.06333329693939
 30
0.0
 11
144.16159025981449
 21
168.95033597233439
 31
0.0
  0
ARC
  5
29AA
  8
0
 10
144.3494933378457
 20
168.88183463463679
 30
0.0
 40
0.2
 50
90.0
 51
159.97033113570939
  0
LINE
  5
29AB
  8
0
 10
144.37565950895831
 20
173.4818446346371
 30
0.0
 11
146.4979236489267
 21
173.4818446346371
 31
0.0
  0
LINE
  5
29AC
  8
0
 10
144.0975865918268
 20
174.55384121307611
 30
0.0
 11
144.17644051502941
 21
173.6641869887579
 31
0.0
  0
LINE
  5
29AD
  8
0
 10
143.79950402475771
 20
174.51534600256019
 30
0.0
 11
143.8463691046681
 21
173.2559217646677
 31
0.0
  0
LINE
  5
29AE
  8
0
 10
143.22340080958759
 20
173.8918214648283
 30
0.0
 11
143.39538273994151
 21
174.13680996960599
 31
0.0
  0
LINE
  5
29AF
  8
0
 10
143.22340080958759
 20
173.8918214648283
 30
0.0
 11
142.9779520320734
 21
174.0634460348291
 31
0.0
  0
LINE
  5
29B0
  8
0
 10
144.1463819747934
 20
174.00283463463691
 30
0.0
 11
144.1463819747934
 21
173.13183463463679
 31
0.0
  0
LINE
  5
29B1
  8
0
 10
144.1463819747934
 20
173.13183463463679
 30
0.0
 11
143.04638197479341
 21
172.0318446344551
 31
0.0
  0
LINE
  5
29B2
  8
0
 10
143.8463691046681
 20
173.2559217646677
 30
0.0
 11
142.74638197479339
 21
172.1559246350007
 31
0.0
  0
ARC
  5
29B3
  8
0
 10
144.37565950895831
 20
173.68184463463709
 30
0.0
 40
0.2
 50
185.06513781536211
 51
270.0
  0
ARC
  5
29B4
  8
0
 10
143.56966309968439
 20
174.5067932742607
 30
0.0
 40
0.23
 50
2.1310793065747591
 51
144.93555322104521
  0
ARC
  5
29B5
  8
0
 10
143.5696562579154
 20
174.5070484514969
 30
0.0
 40
0.5300000000000003
 50
5.0651378153621343
 51
144.93555322104521
  0
ARC
  5
29B6
  8
0
 10
143.1498632686905
 20
174.3093047884353
 30
0.0
 40
0.3
 50
144.93555322104521
 51
235.0376904705391
  0
LINE
  5
29B7
  8
0
 10
143.15040951642791
 20
174.30981812149929
 30
0.0
 11
143.3814066362888
 21
174.6389276906321
 31
0.0
  0
LINE
  5
29B8
  8
0
 10
143.39538273994151
 20
174.13680996960599
 30
0.0
 11
143.15040951642791
 21
174.30981812149929
 31
0.0
  0
LINE
  5
29B9
  8
0
 10
142.6043819747934
 20
174.48184463463701
 30
0.0
 11
142.90444514445699
 21
174.48184463463701
 31
0.0
  0
LINE
  5
29BA
  8
0
 10
142.90431135991341
 20
174.48165402718041
 30
0.0
 11
143.135847885743
 21
174.8115321066133
 31
0.0
  0
ARC
  5
29BB
  8
0
 10
142.6043819747934
 20
174.681844634637
 30
0.0
 40
0.2
 50
180.0
 51
269.99999999999829
  0
LINE
  5
29BC
  8
0
 10
154.4592706117412
 20
169.08183463463689
 30
0.0
 11
151.90387212278341
 21
169.081834634637
 31
0.0
  0
ARC
  5
29BD
  8
0
 10
154.4592706117412
 20
168.88183463463679
 30
0.0
 40
0.2
 50
20.029668864289011
 51
90.0
  0
LINE
  5
29BE
  8
0
 10
154.6623819747935
 20
174.00283463463691
 30
0.0
 11
154.6623819747935
 21
173.13183463463679
 31
0.0
  0
LINE
  5
29BF
  8
0
 10
154.4331044406286
 20
173.4818446346371
 30
0.0
 11
152.31084030066
 21
173.4818446346369
 31
0.0
  0
ARC
  5
29C0
  8
0
 10
154.4331044406286
 20
173.68184463463709
 30
0.0
 40
0.2
 50
270.0
 51
354.93486218463778
  0
LINE
  5
29C1
  8
0
 10
156.40438197479341
 20
177.28184463463711
 30
0.0
 11
156.40438197479341
 21
117.281844634637
 31
0.0
  0
LINE
  5
29C2
  8
0
 10
156.0623819747934
 20
172.1559246350007
 30
0.0
 11
156.0623819747934
 21
168.98183463463681
 31
0.0
  0
LINE
  5
29C3
  8
0
 10
155.76238197479341
 20
172.0318446344551
 30
0.0
 11
155.76238197479341
 21
168.98184463463679
 31
0.0
  0
LINE
  5
29C4
  8
0
 10
156.20438197479339
 20
168.38183463463699
 30
0.0
 11
155.80443910057511
 21
168.38183463463699
 31
0.0
  0
ARC
  5
29C5
  8
0
 10
155.1584395910341
 20
168.13183463463679
 30
0.0
 40
0.2
 50
200.02966886428891
 51
270.00000000000159
  0
LINE
  5
29C6
  8
0
 10
155.33359309226799
 20
167.931834634637
 30
0.0
 11
155.1584395910341
 21
167.931834634637
 31
0.0
  0
ARC
  5
29C7
  8
0
 10
155.33359309226799
 20
168.13183463463679
 30
0.0
 40
0.2
 50
270.0000000000008
 51
320.00091992993089
  0
LINE
  5
29C8
  8
0
 10
155.80443910057511
 20
168.38183463463699
 30
0.0
 11
155.48680404496659
 21
168.00327957260839
 31
0.0
  0
ARC
  5
29C9
  8
0
 10
155.76238197479341
 20
168.98183463463681
 30
0.0
 40
0.3
 50
270.0
 51
0.0
  0
LINE
  5
29CA
  8
0
 10
155.76238197479341
 20
168.681834634637
 30
0.0
 11
155.2423819747934
 21
168.681834634637
 31
0.0
  0
LINE
  5
29CB
  8
0
 10
155.2423819747934
 20
168.681834634637
 30
0.0
 11
155.2423819747934
 21
168.98184463463679
 31
0.0
  0
LINE
  5
29CC
  8
0
 10
155.2423819747934
 20
168.98184463463679
 30
0.0
 11
155.76238197479341
 21
168.98184463463679
 31
0.0
  0
ARC
  5
29CD
  8
0
 10
156.20438197479339
 20
168.18183463463711
 30
0.0
 40
0.2
 50
0.0
 51
90.00000000000081
  0
LINE
  5
29CE
  8
0
 10
155.00925992482891
 20
174.51534600256019
 30
0.0
 11
154.96239484491841
 21
173.2559217646677
 31
0.0
  0
LINE
  5
29CF
  8
0
 10
155.5853631399992
 20
173.8918214648283
 30
0.0
 11
155.8308119175135
 21
174.0634460348291
 31
0.0
  0
LINE
  5
29D0
  8
0
 10
155.5853631399992
 20
173.8918214648283
 30
0.0
 11
155.41338120964511
 21
174.13680996960599
 31
0.0
  0
LINE
  5
29D1
  8
0
 10
154.96239484491841
 20
173.2559217646677
 30
0.0
 11
156.0623819747934
 21
172.1559246350007
 31
0.0
  0
LINE
  5
29D2
  8
0
 10
156.20438197479339
 20
174.48184463463701
 30
0.0
 11
155.90431880512969
 21
174.48184463463701
 31
0.0
  0
LINE
  5
29D3
  8
0
 10
155.65835443315891
 20
174.30981812149929
 30
0.0
 11
155.42735731329799
 21
174.6389276906321
 31
0.0
  0
ARC
  5
29D4
  8
0
 10
155.65890068089641
 20
174.3093047884353
 30
0.0
 40
0.3
 50
304.96230952946081
 51
35.064446778954782
  0
LINE
  5
29D5
  8
0
 10
155.41338120964511
 20
174.13680996960599
 30
0.0
 11
155.65835443315891
 21
174.30981812149929
 31
0.0
  0
LINE
  5
29D6
  8
0
 10
155.90445258967321
 20
174.48165402718041
 30
0.0
 11
155.6729160638437
 21
174.8115321066133
 31
0.0
  0
ARC
  5
29D7
  8
0
 10
155.2391008499024
 20
174.5067932742607
 30
0.0
 40
0.23
 50
35.064446778954782
 51
177.8689206934252
  0
ARC
  5
29D8
  8
0
 10
156.20438197479339
 20
174.681844634637
 30
0.0
 40
0.2
 50
270.0000000000008
 51
0.0
  0
ARC
  5
29D9
  8
0
 10
143.40438197479349
 20
177.28184463463711
 30
0.0
 40
1.0
 50
90.0
 51
180.0
  0
ARC
  5
29DA
  8
0
 10
155.40438197479341
 20
177.28184463463711
 30
0.0
 40
1.0
 50
0.0
 51
90.0
  0
ARC
  5
29DB
  8
0
 10
143.40438197479349
 20
165.78184463463711
 30
0.0
 40
1.0
 50
180.0
 51
270.0
  0
ARC
  5
29DC
  8
0
 10
155.40438197479341
 20
165.7818446346368
 30
0.0
 40
1.0
 50
270.0
 51
0.0
  0
ARC
  5
29DD
  8
0
 10
143.40438197479349
 20
117.281844634637
 30
0.0
 40
1.0
 50
180.0
 51
270.0
  0
ARC
  5
29DE
  8
0
 10
155.40438197479341
 20
117.281844634637
 30
0.0
 40
1.0
 50
270.0
 51
0.0
  0
ARC
  5
29DF
  8
0
 10
155.40438197479341
 20
128.7818446346368
 30
0.0
 40
1.0
 50
0.0
 51
90.0
  0
ARC
  5
29E0
  8
0
 10
143.40438197479349
 20
128.7818446346368
 30
0.0
 40
1.0
 50
90.0
 51
180.0
  0
CIRCLE
  5
29E1
  8
0
  6
CONTINUOUS
 62
     7
 10
149.40438197479321
 20
171.53184463463691
 30
0.0
 40
3.5
  0
CIRCLE
  5
29E2
  8
0
  6
CONTINUOUS
 62
     7
 10
149.40438197479321
 20
123.0318446346368
 30
0.0
 40
3.5
  0
LINE
  5
29E3
  8
0
 10
142.90431135991341
 20
120.0820352420934
 30
0.0
 11
143.135847885743
 21
119.75215716266059
 31
0.0
  0
LINE
  5
29E4
  8
0
 10
143.15040951642791
 20
120.2538711477747
 30
0.0
 11
143.3814066362888
 21
119.92476157864191
 31
0.0
  0
ARC
  5
29E5
  8
0
 10
143.56966309968439
 20
120.05689599501331
 30
0.0
 40
0.23
 50
215.06444677895479
 51
357.8689206934252
  0
LINE
  5
29E6
  8
0
 10
144.0975865918268
 20
120.0098480561978
 30
0.0
 11
144.17644051502941
 21
120.899502280516
 31
0.0
  0
ARC
  5
29E7
  8
0
 10
142.6043819747934
 20
119.88184463463701
 30
0.0
 40
0.2
 50
90.000000000001606
 51
180.0
  0
ARC
  5
29E8
  8
0
 10
142.6043819747934
 20
126.3818546346368
 30
0.0
 40
0.2
 50
180.0
 51
270.0000000000008
  0
LINE
  5
29E9
  8
0
 10
142.74638197479339
 20
122.40776463427321
 30
0.0
 11
142.74638197479339
 21
125.581854634637
 31
0.0
  0
LINE
  5
29EA
  8
0
 10
143.04638197479341
 20
122.5318446348188
 30
0.0
 11
143.04638197479341
 21
125.58184463463689
 31
0.0
  0
LINE
  5
29EB
  8
0
 10
144.3494933378457
 20
125.4818546346368
 30
0.0
 11
146.90489182680301
 21
125.4818546346368
 31
0.0
  0
LINE
  5
29EC
  8
0
 10
143.83822743658371
 20
126.5003559723345
 30
0.0
 11
144.16159025981449
 21
125.61335329693939
 31
0.0
  0
LINE
  5
29ED
  8
0
 10
143.56638197479339
 20
125.88185463463699
 30
0.0
 11
143.56638197479339
 21
125.58184463463689
 31
0.0
  0
ARC
  5
29EE
  8
0
 10
143.04638197479341
 20
125.581854634637
 30
0.0
 40
0.3
 50
90.0
 51
180.0
  0
ARC
  5
29EF
  8
0
 10
143.65032435855241
 20
126.43185463463691
 30
0.0
 40
0.2
 50
20.029668864290539
 51
90.000000000001606
  0
ARC
  5
29F0
  8
0
 10
143.47517085731889
 20
126.43185463463691
 30
0.0
 40
0.2
 50
90.00000000000081
 51
140.0009199299308
  0
LINE
  5
29F1
  8
0
 10
143.00432484901171
 20
126.18185463463701
 30
0.0
 11
143.3219599046202
 21
126.5604096966655
 31
0.0
  0
LINE
  5
29F2
  8
0
 10
142.6043819747934
 20
126.18185463463701
 30
0.0
 11
143.00432484901171
 21
126.18185463463701
 31
0.0
  0
LINE
  5
29F3
  8
0
 10
143.47517085731889
 20
126.6318546346368
 30
0.0
 11
143.65032435855241
 21
126.6318546346368
 31
0.0
  0
LINE
  5
29F4
  8
0
 10
143.04638197479341
 20
125.88185463463699
 30
0.0
 11
143.56638197479339
 21
125.88185463463699
 31
0.0
  0
ARC
  5
29F5
  8
0
 10
144.3494933378457
 20
125.68185463463691
 30
0.0
 40
0.2
 50
200.02966886428891
 51
270.0
  0
LINE
  5
29F6
  8
0
 10
143.56638197479339
 20
125.58184463463689
 30
0.0
 11
143.04638197479341
 21
125.58184463463689
 31
0.0
  0
LINE
  5
29F7
  8
0
 10
144.37565950895831
 20
121.08184463463679
 30
0.0
 11
146.4979236489267
 21
121.08184463463679
 31
0.0
  0
LINE
  5
29F8
  8
0
 10
142.6043819747934
 20
120.08184463463699
 30
0.0
 11
142.90444514445699
 21
120.08184463463699
 31
0.0
  0
LINE
  5
29F9
  8
0
 10
143.39538273994151
 20
120.4268792996679
 30
0.0
 11
143.15040951642791
 21
120.2538711477747
 31
0.0
  0
ARC
  5
29FA
  8
0
 10
143.1498632686905
 20
120.2543844808386
 30
0.0
 40
0.3
 50
124.9623095294608
 51
215.06444677895479
  0
LINE
  5
29FB
  8
0
 10
143.22340080958759
 20
120.6718678044456
 30
0.0
 11
142.9779520320734
 21
120.5002432344448
 31
0.0
  0
LINE
  5
29FC
  8
0
 10
143.22340080958759
 20
120.6718678044456
 30
0.0
 11
143.39538273994151
 21
120.4268792996679
 31
0.0
  0
LINE
  5
29FD
  8
0
 10
143.8463691046681
 20
121.3077675046062
 30
0.0
 11
142.74638197479339
 21
122.40776463427321
 31
0.0
  0
LINE
  5
29FE
  8
0
 10
144.1463819747934
 20
121.43185463463691
 30
0.0
 11
143.04638197479341
 21
122.5318446348188
 31
0.0
  0
ARC
  5
29FF
  8
0
 10
144.37565950895831
 20
120.88184463463681
 30
0.0
 40
0.2
 50
90.0
 51
174.93486218463781
  0
LINE
  5
2A00
  8
0
 10
144.1463819747934
 20
120.560854634637
 30
0.0
 11
144.1463819747934
 21
121.43185463463691
 31
0.0
  0
LINE
  5
2A01
  8
0
 10
143.79950402475771
 20
120.0483432667138
 30
0.0
 11
143.8463691046681
 21
121.3077675046062
 31
0.0
  0
ARC
  5
2A02
  8
0
 10
143.5696562579154
 20
120.05664081777709
 30
0.0
 40
0.5300000000000003
 50
215.06444677895479
 51
354.93486218463778
  0
LINE
  5
2A03
  8
0
 10
155.65835443315891
 20
120.2538711477747
 30
0.0
 11
155.42735731329799
 21
119.92476157864191
 31
0.0
  0
LINE
  5
2A04
  8
0
 10
155.90445258967321
 20
120.0820352420934
 30
0.0
 11
155.6729160638437
 21
119.75215716266059
 31
0.0
  0
ARC
  5
2A05
  8
0
 10
156.20438197479339
 20
119.88184463463701
 30
0.0
 40
0.2
 50
0.0
 51
89.999999999999204
  0
LINE
  5
2A06
  8
0
 10
154.71117735775991
 20
120.0098480561978
 30
0.0
 11
154.63232343455709
 21
120.899502280516
 31
0.0
  0
ARC
  5
2A07
  8
0
 10
155.2391008499024
 20
120.05689599501331
 30
0.0
 40
0.23
 50
182.13107930657469
 51
324.93555322104521
  0
LINE
  5
2A08
  8
0
 10
154.4592706117412
 20
125.4818546346369
 30
0.0
 11
151.90387212278341
 21
125.4818546346368
 31
0.0
  0
LINE
  5
2A09
  8
0
 10
154.4331044406286
 20
121.08184463463679
 30
0.0
 11
152.31084030066
 21
121.08184463463679
 31
0.0
  0
LINE
  5
2A0A
  8
0
 10
156.0623819747934
 20
122.40776463427321
 30
0.0
 11
156.0623819747934
 21
125.581854634637
 31
0.0
  0
LINE
  5
2A0B
  8
0
 10
155.76238197479341
 20
122.5318446348188
 30
0.0
 11
155.76238197479341
 21
125.58184463463689
 31
0.0
  0
LINE
  5
2A0C
  8
0
 10
154.970536513003
 20
126.5003559723345
 30
0.0
 11
154.6471736897723
 21
125.61335329693939
 31
0.0
  0
ARC
  5
2A0D
  8
0
 10
155.76238197479341
 20
125.581854634637
 30
0.0
 40
0.3
 50
0.0
 51
90.0
  0
LINE
  5
2A0E
  8
0
 10
155.2423819747934
 20
125.88185463463699
 30
0.0
 11
155.2423819747934
 21
125.58184463463689
 31
0.0
  0
LINE
  5
2A0F
  8
0
 10
156.20438197479339
 20
126.18185463463701
 30
0.0
 11
155.80443910057511
 21
126.18185463463701
 31
0.0
  0
LINE
  5
2A10
  8
0
 10
155.33359309226799
 20
126.6318546346368
 30
0.0
 11
155.1584395910341
 21
126.6318546346368
 31
0.0
  0
ARC
  5
2A11
  8
0
 10
155.33359309226799
 20
126.43185463463691
 30
0.0
 40
0.2
 50
39.999080070069148
 51
89.999999999999204
  0
LINE
  5
2A12
  8
0
 10
155.80443910057511
 20
126.18185463463701
 30
0.0
 11
155.48680404496659
 21
126.5604096966655
 31
0.0
  0
LINE
  5
2A13
  8
0
 10
155.76238197479341
 20
125.88185463463699
 30
0.0
 11
155.2423819747934
 21
125.88185463463699
 31
0.0
  0
ARC
  5
2A14
  8
0
 10
156.20438197479339
 20
126.3818546346368
 30
0.0
 40
0.2
 50
269.9999999999992
 51
0.0
  0
ARC
  5
2A15
  8
0
 10
155.1584395910341
 20
126.43185463463691
 30
0.0
 40
0.2
 50
89.999999999998366
 51
159.97033113571101
  0
LINE
  5
2A16
  8
0
 10
155.2423819747934
 20
125.58184463463689
 30
0.0
 11
155.76238197479341
 21
125.58184463463689
 31
0.0
  0
ARC
  5
2A17
  8
0
 10
154.4592706117412
 20
125.68185463463691
 30
0.0
 40
0.2
 50
270.0
 51
339.97033113570939
  0
LINE
  5
2A18
  8
0
 10
155.5853631399992
 20
120.6718678044456
 30
0.0
 11
155.8308119175135
 21
120.5002432344448
 31
0.0
  0
LINE
  5
2A19
  8
0
 10
155.5853631399992
 20
120.6718678044456
 30
0.0
 11
155.41338120964511
 21
120.4268792996679
 31
0.0
  0
LINE
  5
2A1A
  8
0
 10
156.20438197479339
 20
120.08184463463699
 30
0.0
 11
155.90431880512969
 21
120.08184463463699
 31
0.0
  0
ARC
  5
2A1B
  8
0
 10
155.65890068089641
 20
120.2543844808386
 30
0.0
 40
0.3
 50
324.93555322104521
 51
55.037690470539147
  0
LINE
  5
2A1C
  8
0
 10
155.41338120964511
 20
120.4268792996679
 30
0.0
 11
155.65835443315891
 21
120.2538711477747
 31
0.0
  0
LINE
  5
2A1D
  8
0
 10
154.6623819747935
 20
121.43185463463691
 30
0.0
 11
155.76238197479341
 21
122.5318446348188
 31
0.0
  0
LINE
  5
2A1E
  8
0
 10
154.96239484491841
 20
121.3077675046062
 30
0.0
 11
156.0623819747934
 21
122.40776463427321
 31
0.0
  0
LINE
  5
2A1F
  8
0
 10
154.6623819747935
 20
120.560854634637
 30
0.0
 11
154.6623819747935
 21
121.43185463463691
 31
0.0
  0
ARC
  5
2A20
  8
0
 10
154.4331044406286
 20
120.88184463463681
 30
0.0
 40
0.2
 50
5.0651378153621343
 51
90.0
  0
LINE
  5
2A21
  8
0
 10
155.00925992482891
 20
120.0483432667138
 30
0.0
 11
154.96239484491841
 21
121.3077675046062
 31
0.0
  0
ARC
  5
2A22
  8
0
 10
155.23910769167139
 20
120.05664081777709
 30
0.0
 40
0.5300000000000003
 50
185.06513781536211
 51
324.93555322104521
  0
ENDSEC
  0
EOF
