  0
SECTION
  2
HEADER
  9
$ACADVER
  1
AC1009
  9
$INSBASE
 10
0.0
 20
0.0
 30
0.0
  9
$EXTMIN
 10
97.53923115173734
 20
123.5003392888935
 30
-0.0000000349181948
  9
$EXTMAX
 10
286.99365302360809
 20
231.52429086991029
 30
0.0000000814935747
  9
$LIMMIN
 10
0.0
 20
0.0
  9
$LIMMAX
 10
297.0
 20
210.0
  9
$ORTHOMODE
 70
     1
  9
$REGENMODE
 70
     1
  9
$FILLMODE
 70
     1
  9
$QTEXTMODE
 70
     0
  9
$MIRRTEXT
 70
     1
  9
$DRAGMODE
 70
     2
  9
$LTSCALE
 40
1.0
  9
$OSMODE
 70
   559
  9
$ATTMODE
 70
     1
  9
$TEXTSIZE
 40
8.0
  9
$TRACEWID
 40
1.0
  9
$TEXTSTYLE
  7
STANDARD
  9
$CLAYER
  8
0
  9
$CELTYPE
  6
CONTINUOUS
  9
$CECOLOR
 62
     7
  9
$DIMSCALE
 40
1.0
  9
$DIMASZ
 40
3.0
  9
$DIMEXO
 40
1.0
  9
$DIMDLI
 40
0.0
  9
$DIMRND
 40
0.0
  9
$DIMDLE
 40
0.0
  9
$DIMEXE
 40
1.0
  9
$DIMTP
 40
0.0
  9
$DIMTM
 40
0.0
  9
$DIMTXT
 40
3.2000000000000002
  9
$DIMCEN
 40
0.0
  9
$DIMTSZ
 40
0.0
  9
$DIMTOL
 70
     0
  9
$DIMLIM
 70
     0
  9
$DIMTIH
 70
     0
  9
$DIMTOH
 70
     0
  9
$DIMSE1
 70
     0
  9
$DIMSE2
 70
     0
  9
$DIMTAD
 70
     1
  9
$DIMZIN
 70
     8
  9
$DIMBLK
  1

  9
$DIMASO
 70
     1
  9
$DIMSHO
 70
     1
  9
$DIMPOST
  1

  9
$DIMAPOST
  1

  9
$DIMALT
 70
     0
  9
$DIMALTD
 70
     2
  9
$DIMALTF
 40
0.04
  9
$DIMLFAC
 40
1.0
  9
$DIMTOFL
 70
     1
  9
$DIMTVP
 40
1.0
  9
$DIMTIX
 70
     1
  9
$DIMSOXD
 70
     0
  9
$DIMSAH
 70
     0
  9
$DIMBLK1
  1

  9
$DIMBLK2
  1

  9
$DIMSTYLE
  2
MISUMI
  9
$DIMCLRD
 70
     0
  9
$DIMCLRE
 70
     0
  9
$DIMCLRT
 70
     0
  9
$DIMTFAC
 40
0.6
  9
$DIMGAP
 40
1.0
  9
$LUNITS
 70
     2
  9
$LUPREC
 70
     2
  9
$SKETCHINC
 40
1.0
  9
$FILLETRAD
 40
10.0
  9
$AUNITS
 70
     0
  9
$AUPREC
 70
     0
  9
$MENU
  1
acad
  9
$ELEVATION
 40
0.0
  9
$PELEVATION
 40
0.0
  9
$THICKNESS
 40
0.0
  9
$LIMCHECK
 70
     0
  9
$BLIPMODE
 70
     0
  9
$CHAMFERA
 40
0.0
  9
$CHAMFERB
 40
0.0
  9
$SKPOLY
 70
     0
  9
$TDCREATE
 40
2451466.6344030439
  9
$TDUPDATE
 40
2454858.4649118059
  9
$TDINDWG
 40
0.443169537
  9
$TDUSRTIMER
 40
0.443094838
  9
$USRTIMER
 70
     1
  9
$ANGBASE
 50
0.0
  9
$ANGDIR
 70
     0
  9
$PDMODE
 70
    64
  9
$PDSIZE
 40
0.0
  9
$PLINEWID
 40
0.0
  9
$COORDS
 70
     0
  9
$SPLFRAME
 70
     0
  9
$SPLINETYPE
 70
     6
  9
$SPLINESEGS
 70
     8
  9
$ATTDIA
 70
     0
  9
$ATTREQ
 70
     1
  9
$HANDLING
 70
     1
  9
$HANDSEED
  5
A1BF
  9
$SURFTAB1
 70
     6
  9
$SURFTAB2
 70
     6
  9
$SURFTYPE
 70
     6
  9
$SURFU
 70
     6
  9
$SURFV
 70
     6
  9
$UCSNAME
  2

  9
$UCSORG
 10
0.0
 20
0.0
 30
0.0
  9
$UCSXDIR
 10
1.0
 20
0.0
 30
0.0
  9
$UCSYDIR
 10
0.0
 20
1.0
 30
0.0
  9
$PUCSNAME
  2

  9
$PUCSORG
 10
0.0
 20
0.0
 30
0.0
  9
$PUCSXDIR
 10
1.0
 20
0.0
 30
0.0
  9
$PUCSYDIR
 10
0.0
 20
1.0
 30
0.0
  9
$USERI1
 70
     0
  9
$USERI2
 70
     0
  9
$USERI3
 70
     0
  9
$USERI4
 70
     0
  9
$USERI5
 70
     0
  9
$USERR1
 40
0.0
  9
$USERR2
 40
0.0
  9
$USERR3
 40
0.0
  9
$USERR4
 40
0.0
  9
$USERR5
 40
0.0
  9
$WORLDVIEW
 70
     1
  9
$SHADEDGE
 70
     3
  9
$SHADEDIF
 70
    70
  9
$TILEMODE
 70
     1
  9
$MAXACTVP
 70
    16
  9
$PLIMCHECK
 70
     0
  9
$PEXTMIN
 10
1.1227499931816021
 20
0.7804166500962629
 30
0.0
  9
$PEXTMAX
 10
10.104749938634439
 20
7.0237498508663601
 30
0.0
  9
$PLIMMIN
 10
-0.2312499519408218
 20
-0.2312499894870548
  9
$PLIMMAX
 10
11.45874984621063
 20
8.0354164529034424
  9
$UNITMODE
 70
     0
  9
$VISRETAIN
 70
     0
  9
$PLINEGEN
 70
     0
  9
$PSLTSCALE
 70
     0
  0
ENDSEC
  0
SECTION
  2
TABLES
  0
TABLE
  2
VPORT
 70
     1
  0
VPORT
  2
*ACTIVE
 70
     0
 10
0.0
 20
0.0
 11
1.0
 21
1.0
 12
192.26644208767269
 22
177.5123150794019
 13
0.0
 23
0.0
 14
10.0
 24
10.0
 15
0.0
 25
0.0
 16
0.0
 26
0.0
 36
1.0
 17
0.0
 27
0.0
 37
0.0
 40
128.554232506788
 41
1.4812030075187961
 42
50.0
 43
0.0
 44
0.0
 50
0.0
 51
0.0
 71
     0
 72
   100
 73
     1
 74
     0
 75
     0
 76
     0
 77
     0
 78
     1
  0
ENDTAB
  0
TABLE
  2
LTYPE
 70
     4
  0
LTYPE
  2
CONTINUOUS
 70
     0
  3
Solid line
 72
    65
 73
     0
 40
0.0
  0
LTYPE
  2
DASHED
 70
     0
  3
__ __ __ __ __ __ __ __ __ __ __ __ __ __ __
 72
    65
 73
     2
 40
3.5
 49
2.0
 49
-1.5
  0
LTYPE
  2
CENTER
 70
     0
  3
____ _ ____ _ ____ _ ____ _ ____ _ ____ _ ____
 72
    65
 73
     4
 40
17.5
 49
13.0
 49
-1.5
 49
1.5
 49
-1.5
  0
ENDTAB
  0
TABLE
  2
LAYER
 70
     3
  0
LAYER
  2
0
 70
     0
 62
     7
  6
CONTINUOUS
  0
LAYER
  2
CENTER
 70
     0
 62
     1
  6
CENTER
  0
LAYER
  2
DEFPOINTS
 70
     0
 62
     7
  6
CONTINUOUS
  0
ENDTAB
  0
TABLE
  2
STYLE
 70
     1
  0
STYLE
  2
STANDARD
 70
     0
 40
0.0
 41
1.0
 50
0.0
 71
     0
 42
8.0
  3
txt.shx
  4
@extfont2.shx
  0
ENDTAB
  0
TABLE
  2
VIEW
 70
     0
  0
ENDTAB
  0
TABLE
  2
UCS
 70
     0
  0
ENDTAB
  0
TABLE
  2
APPID
 70
     4
  0
APPID
  2
ACAD
 70
     0
  0
APPID
  2
ACAECLAYERSTANDARD
 70
     0
  0
APPID
  2
ACAD_EXEMPT_FROM_CAD_STANDARDS
 70
     0
  0
APPID
  2
ACAD_PSEXT
 70
     0
  0
ENDTAB
  0
TABLE
  2
DIMSTYLE
 70
     2
  0
DIMSTYLE
  2
MISUMI
 70
     0
  3

  4

  5

  6

  7

 40
1.0
 41
3.0
 42
1.0
 43
0.0
 44
1.0
 45
0.0
 46
0.0
 47
0.0
 48
0.0
140
3.2000000000000002
141
0.0
142
0.0
143
0.04
144
1.0
145
1.0
146
0.6
147
1.0
 71
     0
 72
     0
 73
     0
 74
     0
 75
     0
 76
     0
 77
     1
 78
     8
170
     0
171
     2
172
     1
173
     0
174
     1
175
     0
176
     0
177
     0
178
     0
  0
DIMSTYLE
  2
STANDARD
 70
     0
  3

  4

  5

  6

  7

 40
1.0
 41
0.9
 42
0.9
 43
0.38
 44
0.9
 45
0.0
 46
0.0
 47
0.0
 48
0.0
140
3.0
141
0.09
142
0.0
143
25.399999999999999
144
0.2
145
0.0
146
0.5
147
1.5
 71
     0
 72
     0
 73
     0
 74
     0
 75
     0
 76
     0
 77
     1
 78
     0
170
     0
171
     2
172
     0
173
     0
174
     0
175
     0
176
     7
177
     7
178
     7
  0
ENDTAB
  0
ENDSEC
  0
SECTION
  2
BLOCKS
  0
BLOCK
  8
0
  2
$MODEL_SPACE
 70
     0
 10
0.0
 20
0.0
 30
0.0
  3
$MODEL_SPACE
  1

  0
ENDBLK
  5
9CD4
  8
0
  0
BLOCK
 67
     1
  8
0
  2
$PAPER_SPACE
 70
     0
 10
0.0
 20
0.0
 30
0.0
  3
$PAPER_SPACE
  1

  0
ENDBLK
  5
9CD0
 67
     1
  8
0
  0
ENDSEC
  0
SECTION
  2
ENTITIES
  0
TEXT
  5
2163
  8
0
  6
CONTINUOUS
 62
     7
 10
113.77789721589281
 20
123.511315074424
 30
0.0
 40
3.2000000000000002
  1
LHFRD25
  0
TEXT
  5
2166
  8
0
  6
CONTINUOUS
 62
     7
 10
113.77789721589281
 20
127.53680507685181
 30
0.0
 40
3.2000000000000002
  1
LHFRD25
  0
LINE
  5
8584
  8
0
  6
CONTINUOUS
 62
     7
 10
111.16259693757929
 20
177.88764111469959
 30
0.0
 11
109.5625969375792
 21
177.88764111469959
 31
0.0
  0
LINE
  5
8585
  8
0
  6
CONTINUOUS
 62
     7
 10
111.1625969375792
 20
217.13764111469951
 30
0.0
 11
109.5625969375792
 21
217.13764111469959
 31
0.0
  0
LINE
  5
8586
  8
0
  6
CONTINUOUS
 62
     7
 10
111.1625969375792
 20
217.5126411146997
 30
0.0
 11
111.1625969375792
 21
177.51264111469959
 31
0.0
  0
LINE
  5
858C
  8
0
  6
CONTINUOUS
 62
     7
 10
101.5625969375792
 20
228.51264111469959
 30
0.0
 11
101.5625969375792
 21
166.51264111469959
 31
0.0
  0
LINE
  5
858D
  8
CENTER
  6
CENTER
 62
     1
 10
97.542596937579233
 20
197.51264111469959
 30
0.0
 11
187.94759693757919
 21
197.51264111469959
 31
0.0
  0
LINE
  5
858E
  8
0
  6
DASHED
 62
     3
 10
101.5625969375792
 20
210.01264111469959
 30
0.0
 11
184.5625969375792
 21
210.01264111469959
 31
0.0
  0
LINE
  5
858F
  8
0
  6
DASHED
 62
     3
 10
101.5625969375791
 20
185.01264111469959
 30
0.0
 11
184.5625969375792
 21
185.01264111469959
 31
0.0
  0
LINE
  5
8590
  8
0
  6
CONTINUOUS
 62
     7
 10
111.1625969375792
 20
217.5126411146997
 30
0.0
 11
184.5625969375792
 21
217.5126411146997
 31
0.0
  0
LINE
  5
8591
  8
0
  6
CONTINUOUS
 62
     7
 10
111.1625969375792
 20
177.51264111469959
 30
0.0
 11
184.5625969375792
 21
177.51264111469959
 31
0.0
  0
LINE
  5
8592
  8
0
  6
CONTINUOUS
 62
     7
 10
184.5625969375792
 20
217.5126411146997
 30
0.0
 11
184.5625969375792
 21
177.51264111469959
 31
0.0
  0
LINE
  5
8593
  8
0
  6
CONTINUOUS
 62
     7
 10
101.5625969375792
 20
228.51264111469959
 30
0.0
 11
109.5625969375792
 21
228.51264111469959
 31
0.0
  0
LINE
  5
8594
  8
0
  6
CONTINUOUS
 62
     7
 10
101.5625969375792
 20
166.51264111469959
 30
0.0
 11
109.5625969375792
 21
166.51264111469959
 31
0.0
  0
LINE
  5
8595
  8
0
  6
CONTINUOUS
 62
     7
 10
109.5625969375792
 20
228.51264111469959
 30
0.0
 11
109.5625969375792
 21
166.51264111469959
 31
0.0
  0
LINE
  5
8596
  8
CENTER
  6
CENTER
 62
     1
 10
98.947596937579206
 20
223.0126411146997
 30
0.0
 11
111.94759693757921
 21
223.0126411146997
 31
0.0
  0
LINE
  5
8598
  8
0
  6
DASHED
 62
     3
 10
106.6625969375792
 20
225.7626411146997
 30
0.0
 11
109.5625969375792
 21
225.7626411146997
 31
0.0
  0
LINE
  5
8599
  8
0
  6
DASHED
 62
     3
 10
106.6625969375792
 20
220.2626411146997
 30
0.0
 11
109.5625969375792
 21
220.2626411146997
 31
0.0
  0
LINE
  5
859A
  8
0
  6
DASHED
 62
     3
 10
101.5625969375792
 20
227.5126411146997
 30
0.0
 11
106.6625969375792
 21
227.5126411146997
 31
0.0
  0
LINE
  5
859B
  8
0
  6
DASHED
 62
     3
 10
101.5625969375792
 20
218.5126411146997
 30
0.0
 11
106.6625969375792
 21
218.5126411146997
 31
0.0
  0
LINE
  5
859C
  8
0
  6
DASHED
 62
     3
 10
106.6625969375792
 20
227.5126411146997
 30
0.0
 11
106.6625969375792
 21
218.5126411146997
 31
0.0
  0
CIRCLE
  5
8C6B
  8
0
  6
CONTINUOUS
 62
     7
 10
252.9890523368486
 20
197.51264111469959
 30
0.0
 40
12.49999999999997
  0
CIRCLE
  5
8C6C
  8
0
  6
CONTINUOUS
 62
     7
 10
252.9890523368486
 20
197.51264111469959
 30
0.0
 40
19.999999999999972
  0
LINE
  5
8C70
  8
CENTER
  6
CENTER
 62
     1
 10
218.98905234084859
 20
197.51264111469959
 30
0.0
 11
286.9890523328487
 21
197.51264111469959
 31
0.0
  0
LINE
  5
8C74
  8
CENTER
  6
CENTER
 62
     1
 10
252.9890523368486
 20
163.51264111869949
 30
0.0
 11
252.9890523368486
 21
231.51264111069941
 31
0.0
  0
CIRCLE
  5
8C81
  8
0
  6
DASHED
 62
     3
 10
252.9890523368486
 20
197.51264111469959
 30
0.0
 40
19.624999999999861
  0
CIRCLE
  5
8E05
  8
CENTER
  6
CENTER
 62
     1
 10
252.9890523368488
 20
197.51264111469959
 30
0.0
 40
25.5
  0
CIRCLE
  5
8F5C
  8
0
  6
CONTINUOUS
 62
     7
 10
252.9890523368486
 20
223.0126411146997
 30
0.0
 40
2.75
  0
CIRCLE
  5
8F5D
  8
0
  6
DASHED
 62
     3
 10
252.9890523368486
 20
223.0126411146997
 30
0.0
 40
4.5
  0
CIRCLE
  5
8F5E
  8
0
  6
CONTINUOUS
 62
     7
 10
252.9890523368486
 20
172.01264111469959
 30
0.0
 40
2.75
  0
CIRCLE
  5
8F5F
  8
0
  6
DASHED
 62
     3
 10
252.9890523368486
 20
172.01264111469959
 30
0.0
 40
4.5
  0
CIRCLE
  5
8F6D
  8
0
  6
CONTINUOUS
 62
     7
 10
278.48905233684889
 20
197.51264111469959
 30
0.0
 40
2.75
  0
CIRCLE
  5
8F6E
  8
0
  6
DASHED
 62
     3
 10
278.48905233684889
 20
197.51264111469959
 30
0.0
 40
4.5
  0
CIRCLE
  5
8F6F
  8
0
  6
CONTINUOUS
 62
     7
 10
227.48905233684829
 20
197.51264111469959
 30
0.0
 40
2.75
  0
CIRCLE
  5
8F70
  8
0
  6
DASHED
 62
     3
 10
227.48905233684829
 20
197.51264111469959
 30
0.0
 40
4.5
  0
LINE
  5
8F98
  8
CENTER
  6
CENTER
 62
     1
 10
98.947596937579206
 20
172.01264111469959
 30
0.0
 11
111.94759693757921
 21
172.01264111469959
 31
0.0
  0
LINE
  5
8F99
  8
0
  6
DASHED
 62
     3
 10
106.6625969375792
 20
169.26264111469959
 30
0.0
 11
109.5625969375792
 21
169.26264111469959
 31
0.0
  0
LINE
  5
8F9A
  8
0
  6
DASHED
 62
     3
 10
106.6625969375792
 20
174.76264111469959
 30
0.0
 11
109.5625969375792
 21
174.76264111469959
 31
0.0
  0
LINE
  5
8F9B
  8
0
  6
DASHED
 62
     3
 10
101.5625969375792
 20
167.51264111469959
 30
0.0
 11
106.6625969375792
 21
167.51264111469959
 31
0.0
  0
LINE
  5
8F9C
  8
0
  6
DASHED
 62
     3
 10
101.5625969375792
 20
176.51264111469959
 30
0.0
 11
106.6625969375792
 21
176.51264111469959
 31
0.0
  0
LINE
  5
8F9D
  8
0
  6
DASHED
 62
     3
 10
106.6625969375792
 20
167.51264111469959
 30
0.0
 11
106.6625969375792
 21
176.51264111469959
 31
0.0
  0
CIRCLE
  5
9620
  8
0
  6
CONTINUOUS
 62
     7
 10
252.9890523368486
 20
197.51264111469951
 30
0.0
 40
31.0
  0
VIEWPORT
  5
B50
 67
     1
  8
0
  6
CONTINUOUS
 62
     7
 10
5.6137499743528041
 20
3.9020832509555281
 30
0.0
 40
9.31261140995767
 41
6.292518124594598
 68
     1
 69
     1
1001
ACAD
1000
MVIEW
1002
{
1070
    16
1010
0.0
1020
0.0
1030
0.0
1010
0.0
1020
0.0
1030
1.0
1040
0.0
1040
6.292518124594598
1040
5.6137499743528041
1040
3.9020832509555281
1040
50.0
1040
0.0
1040
0.0
1070
     0
1070
   100
1070
     1
1070
     1
1070
     0
1070
     0
1070
     0
1070
     0
1040
0.0
1040
0.0
1040
0.0
1040
10.0
1040
10.0
1040
10.0
1040
10.0
1070
     0
1002
{
1002
}
1002
}
  0
VIEWPORT
  5
B52
 67
     1
  8
0
  6
CONTINUOUS
 62
     7
 10
5.613749965908017
 20
3.902083250481311
 30
0.0
 40
8.9819999454528343
 41
6.243333200770099
 68
     2
 69
     2
1001
ACAD
1000
MVIEW
1002
{
1070
    16
1010
148.5
1020
105.0
1030
0.0
1010
0.0
1020
0.0
1030
442.63470846773748
1040
0.0
1040
212.21441124780321
1040
0.0
1040
0.0
1040
50.0
1040
0.0
1040
0.0
1070
     0
1070
   100
1070
     1
1070
     1
1070
     0
1070
     0
1070
     0
1070
     0
1040
0.0
1040
0.0
1040
0.0
1040
10.0
1040
10.0
1040
10.0
1040
10.0
1070
     0
1002
{
1002
}
1002
}
  0
ENDSEC
  0
EOF
