  0
SECTION
  2
HEADER
  9
$ACADVER
  1
AC1009
  9
$INSBASE
 10
0.0
 20
0.0
 30
0.0
  9
$EXTMIN
 10
201.5340958058467
 20
206.18296320068711
 30
-0.0000000349181977
  9
$EXTMAX
 10
457.37729470562959
 20
452.72108646801769
 30
0.0000000814935717
  9
$LIMMIN
 10
0.0
 20
0.0
  9
$LIMMAX
 10
0.0
 20
0.0
  9
$ORTHOMODE
 70
     0
  9
$REGENMODE
 70
     1
  9
$FILLMODE
 70
     1
  9
$QTEXTMODE
 70
     0
  9
$MIRRTEXT
 70
     1
  9
$DRAGMODE
 70
     2
  9
$LTSCALE
 40
1.0
  9
$OSMODE
 70
    37
  9
$ATTMODE
 70
     1
  9
$TEXTSIZE
 40
0.2
  9
$TRACEWID
 40
0.05
  9
$TEXTSTYLE
  7
STANDARD
  9
$CLAYER
  8
0
  9
$CELTYPE
  6
CONTINUOUS
  9
$CECOLOR
 62
   256
  9
$DIMSCALE
 40
1.0
  9
$DIMASZ
 40
0.18
  9
$DIMEXO
 40
0.0625
  9
$DIMDLI
 40
0.38
  9
$DIMRND
 40
0.0
  9
$DIMDLE
 40
0.0
  9
$DIMEXE
 40
0.18
  9
$DIMTP
 40
0.0
  9
$DIMTM
 40
0.0
  9
$DIMTXT
 40
0.18
  9
$DIMCEN
 40
0.09
  9
$DIMTSZ
 40
0.0
  9
$DIMTOL
 70
     0
  9
$DIMLIM
 70
     0
  9
$DIMTIH
 70
     1
  9
$DIMTOH
 70
     1
  9
$DIMSE1
 70
     0
  9
$DIMSE2
 70
     0
  9
$DIMTAD
 70
     0
  9
$DIMZIN
 70
     0
  9
$DIMBLK
  1

  9
$DIMASO
 70
     1
  9
$DIMSHO
 70
     1
  9
$DIMPOST
  1

  9
$DIMAPOST
  1

  9
$DIMALT
 70
     0
  9
$DIMALTD
 70
     2
  9
$DIMALTF
 40
25.399999999999999
  9
$DIMLFAC
 40
1.0
  9
$DIMTOFL
 70
     0
  9
$DIMTVP
 40
0.0
  9
$DIMTIX
 70
     0
  9
$DIMSOXD
 70
     0
  9
$DIMSAH
 70
     0
  9
$DIMBLK1
  1

  9
$DIMBLK2
  1

  9
$DIMSTYLE
  2
STANDARD
  9
$DIMCLRD
 70
     0
  9
$DIMCLRE
 70
     0
  9
$DIMCLRT
 70
     0
  9
$DIMTFAC
 40
1.0
  9
$DIMGAP
 40
0.09
  9
$LUNITS
 70
     2
  9
$LUPREC
 70
     4
  9
$SKETCHINC
 40
0.1
  9
$FILLETRAD
 40
0.0
  9
$AUNITS
 70
     0
  9
$AUPREC
 70
     0
  9
$MENU
  1
acad
  9
$ELEVATION
 40
0.0
  9
$PELEVATION
 40
0.0
  9
$THICKNESS
 40
0.0
  9
$LIMCHECK
 70
     0
  9
$BLIPMODE
 70
     0
  9
$CHAMFERA
 40
0.0
  9
$CHAMFERB
 40
0.0
  9
$SKPOLY
 70
     0
  9
$TDCREATE
 40
2444972.6967357639
  9
$TDUPDATE
 40
2452724.953590312
  9
$TDINDWG
 40
0.0017795139
  9
$TDUSRTIMER
 40
0.0017795139
  9
$USRTIMER
 70
     1
  9
$ANGBASE
 50
0.0
  9
$ANGDIR
 70
     0
  9
$PDMODE
 70
     0
  9
$PDSIZE
 40
0.0
  9
$PLINEWID
 40
0.0
  9
$COORDS
 70
     1
  9
$SPLFRAME
 70
     0
  9
$SPLINETYPE
 70
     6
  9
$SPLINESEGS
 70
     8
  9
$ATTDIA
 70
     0
  9
$ATTREQ
 70
     1
  9
$HANDLING
 70
     1
  9
$HANDSEED
  5
265
  9
$SURFTAB1
 70
     6
  9
$SURFTAB2
 70
     6
  9
$SURFTYPE
 70
     6
  9
$SURFU
 70
     6
  9
$SURFV
 70
     6
  9
$UCSNAME
  2

  9
$UCSORG
 10
0.0
 20
0.0
 30
0.0
  9
$UCSXDIR
 10
1.0
 20
0.0
 30
0.0
  9
$UCSYDIR
 10
0.0
 20
1.0
 30
0.0
  9
$PUCSNAME
  2

  9
$PUCSORG
 10
0.0
 20
0.0
 30
0.0
  9
$PUCSXDIR
 10
1.0
 20
0.0
 30
0.0
  9
$PUCSYDIR
 10
0.0
 20
1.0
 30
0.0
  9
$USERI1
 70
     0
  9
$USERI2
 70
     0
  9
$USERI3
 70
     0
  9
$USERI4
 70
     0
  9
$USERI5
 70
     0
  9
$USERR1
 40
0.0
  9
$USERR2
 40
0.0
  9
$USERR3
 40
0.0
  9
$USERR4
 40
0.0
  9
$USERR5
 40
0.0
  9
$WORLDVIEW
 70
     1
  9
$SHADEDGE
 70
     3
  9
$SHADEDIF
 70
    70
  9
$TILEMODE
 70
     1
  9
$MAXACTVP
 70
    16
  9
$PLIMCHECK
 70
     0
  9
$PEXTMIN
 10
1.0000000000000000E+020
 20
1.0000000000000000E+020
 30
1.0000000000000000E+020
  9
$PEXTMAX
 10
-1.0000000000000000E+020
 20
-1.0000000000000000E+020
 30
-1.0000000000000000E+020
  9
$PLIMMIN
 10
0.0
 20
0.0
  9
$PLIMMAX
 10
12.0
 20
9.0
  9
$UNITMODE
 70
     0
  9
$VISRETAIN
 70
     0
  9
$PLINEGEN
 70
     1
  9
$PSLTSCALE
 70
     0
  0
ENDSEC
  0
SECTION
  2
TABLES
  0
TABLE
  2
VPORT
 70
     2
  0
VPORT
  2
*ACTIVE
 70
     0
 10
0.0
 20
0.0
 11
1.0
 21
1.0
 12
329.45569525573808
 22
329.45202483435241
 13
0.0
 23
0.0
 14
1.0
 24
1.0
 15
0.0
 25
0.0
 16
0.0
 26
0.0
 36
1.0
 17
0.0
 27
0.0
 37
0.0
 40
248.67573705288541
 41
1.743849493487698
 42
50.0
 43
0.0
 44
0.0
 50
0.0
 51
0.0
 71
     0
 72
   100
 73
     1
 74
     1
 75
     0
 76
     0
 77
     0
 78
     0
  0
ENDTAB
  0
TABLE
  2
LTYPE
 70
     1
  0
LTYPE
  2
CONTINUOUS
 70
     0
  3
Solid line
 72
    65
 73
     0
 40
0.0
  0
ENDTAB
  0
TABLE
  2
LAYER
 70
     2
  0
LAYER
  2
0
 70
     0
 62
     7
  6
CONTINUOUS
  0
LAYER
  2
CENTER
 70
     0
 62
     1
  6
CONTINUOUS
  0
ENDTAB
  0
TABLE
  2
STYLE
 70
     2
  0
STYLE
  2
STANDARD
 70
     0
 40
0.0
 41
1.0
 50
0.0
 71
     0
 42
0.2
  3
txt.shx
  4

  0
STYLE
  2
CONVERTER_1
 70
     0
 40
0.0
 41
0.9
 50
0.0
 71
     0
 42
0.0
  3
txt.shx
  4

  0
ENDTAB
  0
TABLE
  2
VIEW
 70
     0
  0
ENDTAB
  0
TABLE
  2
UCS
 70
     0
  0
ENDTAB
  0
TABLE
  2
APPID
 70
     1
  0
APPID
  2
ACAD
 70
     0
  0
ENDTAB
  0
TABLE
  2
DIMSTYLE
 70
     1
  0
DIMSTYLE
  2
STANDARD
 70
     0
  3

  4

  5

  6

  7

 40
1.0
 41
0.18
 42
0.0625
 43
0.38
 44
0.18
 45
0.0
 46
0.0
 47
0.0
 48
0.0
140
0.18
141
0.09
142
0.0
143
25.399999999999999
144
1.0
145
0.0
146
1.0
147
0.09
 71
     0
 72
     0
 73
     1
 74
     1
 75
     0
 76
     0
 77
     0
 78
     0
170
     0
171
     2
172
     0
173
     0
174
     0
175
     0
176
     0
177
     0
178
     0
  0
ENDTAB
  0
ENDSEC
  0
SECTION
  2
BLOCKS
  0
BLOCK
  8
0
  2
$MODEL_SPACE
 70
     0
 10
0.0
 20
0.0
 30
0.0
  3
$MODEL_SPACE
  1

  0
ENDBLK
  5
C
  8
0
  0
BLOCK
 67
     1
  8
0
  2
$PAPER_SPACE
 70
     0
 10
0.0
 20
0.0
 30
0.0
  3
$PAPER_SPACE
  1

  0
ENDBLK
  5
13
 67
     1
  8
0
  0
ENDSEC
  0
SECTION
  2
ENTITIES
  0
TEXT
  5
28
  8
0
  6
CONTINUOUS
 10
201.5486723923041
 20
206.21277952305991
 30
0.0
 40
5.0
  1
ZWG90
  0
TEXT
  5
29
  8
0
  6
CONTINUOUS
 10
202.00996188191439
 20
216.35840474901829
 30
0.0
 40
5.0
  1
ZWG90
  0
TEXT
  5
2A
  8
0
  6
CONTINUOUS
 62
     7
 10
425.91187775916092
 20
357.6524126876829
 30
0.0
 40
1.25
  1
65
 41
0.9
  7
CONVERTER_1
  0
TEXT
  5
2C
  8
0
  6
CONTINUOUS
 62
     7
 10
426.00562775916092
 20
362.65241268768301
 30
0.0
 40
1.25
  1
70
 41
0.9
  7
CONVERTER_1
  0
TEXT
  5
2D
  8
0
  6
CONTINUOUS
 62
     7
 10
425.91187775916092
 20
337.65241268768301
 30
0.0
 40
1.25
  1
45
 41
0.9
  7
CONVERTER_1
  0
TEXT
  5
2E
  8
0
  6
CONTINUOUS
 62
     7
 10
425.91187775916092
 20
317.65241268768301
 30
0.0
 40
1.25
  1
25
 41
0.9
  7
CONVERTER_1
  0
TEXT
  5
2F
  8
0
  6
CONTINUOUS
 62
     7
 10
426.00562775916092
 20
332.6524126876829
 30
0.0
 40
1.25
  1
40
 41
0.9
  7
CONVERTER_1
  0
TEXT
  5
30
  8
0
  6
CONTINUOUS
 62
     7
 10
425.91187775916092
 20
327.65241268768301
 30
0.0
 40
1.25
  1
35
 41
0.9
  7
CONVERTER_1
  0
TEXT
  5
31
  8
0
  6
CONTINUOUS
 62
     7
 10
426.00562775916092
 20
312.65241268768301
 30
0.0
 40
1.25
  1
20
 41
0.9
  7
CONVERTER_1
  0
TEXT
  5
32
  8
0
  6
CONTINUOUS
 62
     7
 10
426.00562775916092
 20
342.65241268768187
 30
0.0
 40
1.25
  1
50
 41
0.9
  7
CONVERTER_1
  0
TEXT
  5
33
  8
0
  6
CONTINUOUS
 62
     7
 10
425.91187775916092
 20
347.65241268768301
 30
0.0
 40
1.25
  1
55
 41
0.9
  7
CONVERTER_1
  0
TEXT
  5
34
  8
0
  6
CONTINUOUS
 62
     7
 10
426.09937775916092
 20
307.6524126876829
 30
0.0
 40
1.25
  1
15
 41
0.9
  7
CONVERTER_1
  0
TEXT
  5
35
  8
0
  6
CONTINUOUS
 62
     7
 10
426.19312775916092
 20
302.65241268768301
 30
0.0
 40
1.25
  1
10
 41
0.9
  7
CONVERTER_1
  0
TEXT
  5
36
  8
0
  6
CONTINUOUS
 62
     7
 10
426.47437775916092
 20
297.65241268768301
 30
0.0
 40
1.25
  1
5
 41
0.9
  7
CONVERTER_1
  0
TEXT
  5
37
  8
0
  6
CONTINUOUS
 62
     7
 10
426.56812775916092
 20
292.6524126876829
 30
0.0
 40
1.25
  1
0
 41
0.9
  7
CONVERTER_1
  0
TEXT
  5
38
  8
0
  6
CONTINUOUS
 62
     7
 10
426.00562775916092
 20
352.65241268768301
 30
0.0
 40
1.25
  1
60
 41
0.9
  7
CONVERTER_1
  0
TEXT
  5
39
  8
0
  6
CONTINUOUS
 62
     7
 10
426.00562775916092
 20
322.65241268768301
 30
0.0
 40
1.25
  1
30
 41
0.9
  7
CONVERTER_1
  0
LINE
  5
3A
  8
0
  6
CONTINUOUS
 62
     7
 10
254.5172634893695
 20
441.1934537226179
 30
0.0
 11
255.55872167674201
 21
442.23491190999027
 31
0.0
  0
LINE
  5
3B
  8
0
  6
CONTINUOUS
 62
     7
 10
251.6888363646234
 20
441.19345372261802
 30
0.0
 11
255.55872167674201
 21
445.06333903473671
 31
0.0
  0
LINE
  5
3C
  8
0
  6
CONTINUOUS
 62
     7
 10
248.8604092398771
 20
441.1934537226179
 30
0.0
 11
255.55872167674201
 21
447.8917661594827
 31
0.0
  0
LINE
  5
3D
  8
0
  6
CONTINUOUS
 62
     7
 10
246.03198211513089
 20
441.19345372261802
 30
0.0
 11
253.53198211513109
 21
448.69345372261819
 31
0.0
  0
LINE
  5
3E
  8
0
  6
CONTINUOUS
 62
     7
 10
243.2035549903847
 20
441.1934537226179
 30
0.0
 11
250.7035549903849
 21
448.69345372261819
 31
0.0
  0
LINE
  5
3F
  8
0
  6
CONTINUOUS
 62
     7
 10
240.37512786563849
 20
441.1934537226179
 30
0.0
 11
247.87512786563869
 21
448.69345372261802
 31
0.0
  0
LINE
  5
40
  8
0
  6
CONTINUOUS
 62
     7
 10
237.54670074089231
 20
441.1934537226179
 30
0.0
 11
245.0467007408925
 21
448.69345372261819
 31
0.0
  0
LINE
  5
41
  8
0
  6
CONTINUOUS
 62
     7
 10
234.71827361614609
 20
441.1934537226179
 30
0.0
 11
242.21827361614629
 21
448.69345372261807
 31
0.0
  0
LINE
  5
42
  8
0
  6
CONTINUOUS
 62
     7
 10
231.88984649139991
 20
441.1934537226179
 30
0.0
 11
239.38984649140011
 21
448.69345372261807
 31
0.0
  0
LINE
  5
43
  8
0
  6
CONTINUOUS
 62
     7
 10
229.06141936665381
 20
441.1934537226179
 30
0.0
 11
236.56141936665389
 21
448.69345372261807
 31
0.0
  0
LINE
  5
44
  8
0
  6
CONTINUOUS
 62
     7
 10
226.2329922419076
 20
441.1934537226179
 30
0.0
 11
233.73299224190771
 21
448.69345372261802
 31
0.0
  0
LINE
  5
45
  8
0
  6
CONTINUOUS
 62
     7
 10
223.40456511716141
 20
441.1934537226179
 30
0.0
 11
230.9045651171615
 21
448.69345372261802
 31
0.0
  0
LINE
  5
46
  8
0
  6
CONTINUOUS
 62
     7
 10
220.57613799241511
 20
441.1934537226179
 30
0.0
 11
228.07613799241531
 21
448.69345372261802
 31
0.0
  0
LINE
  5
47
  8
0
  6
CONTINUOUS
 62
     7
 10
217.7477108676689
 20
441.1934537226179
 30
0.0
 11
225.2477108676691
 21
448.69345372261802
 31
0.0
  0
LINE
  5
48
  8
0
  6
CONTINUOUS
 62
     7
 10
215.55872167674201
 20
441.83289165643708
 30
0.0
 11
222.41928374292289
 21
448.69345372261802
 31
0.0
  0
LINE
  5
49
  8
0
  6
CONTINUOUS
 62
     7
 10
215.55872167674201
 20
444.6613187811833
 30
0.0
 11
219.59085661817659
 21
448.6934537226179
 31
0.0
  0
LINE
  5
4A
  8
0
  6
CONTINUOUS
 62
     7
 10
215.55872167674201
 20
447.4897459059294
 30
0.0
 11
216.7624294934304
 21
448.69345372261802
 31
0.0
  0
LINE
  5
4B
  8
0
  6
CONTINUOUS
 62
     7
 10
414.34937775916097
 20
233.27741268768301
 30
0.0
 11
414.34937775916097
 21
240.77741268768301
 31
0.0
  0
LINE
  5
4C
  8
0
  6
CONTINUOUS
 62
     7
 10
414.34937775916097
 20
240.77741268768301
 30
0.0
 11
454.34937775916092
 21
240.77741268768301
 31
0.0
  0
LINE
  5
4D
  8
0
  6
CONTINUOUS
 62
     7
 10
446.84937775916097
 20
245.77741268768301
 30
0.0
 11
446.84937775916097
 21
325.33802499634288
 31
0.0
  0
LINE
  5
4E
  8
0
  6
CONTINUOUS
 62
     7
 10
454.34937775916092
 20
233.27741268768301
 30
0.0
 11
454.34937775916092
 21
373.2774126876829
 31
0.0
  0
LINE
  5
4F
  8
CENTER
  6
CONTINUOUS
 62
     1
 10
336.46621901384401
 20
230.27741268768301
 30
0.0
 11
336.46621901384401
 21
376.27741268768301
 31
0.0
  0
LINE
  5
51
  8
0
  6
CONTINUOUS
 62
     7
 10
414.34937775916097
 20
233.27741268768301
 30
0.0
 11
454.34937775916092
 21
233.27741268768301
 31
0.0
  0
LINE
  5
52
  8
0
  6
CONTINUOUS
 62
     7
 10
356.46621901384401
 20
373.2774126876829
 30
0.0
 11
356.46621901384401
 21
240.77741268768301
 31
0.0
  0
LINE
  5
53
  8
0
  6
CONTINUOUS
 62
     7
 10
361.46621901384401
 20
233.27741268768301
 30
0.0
 11
361.46621901384401
 21
240.77741268768301
 31
0.0
  0
LINE
  5
54
  8
CENTER
  6
CONTINUOUS
 62
     1
 10
421.84937775916092
 20
242.77741268768301
 30
0.0
 11
421.84937775916092
 21
231.27741268768301
 31
0.0
  0
LINE
  5
55
  8
0
  6
CONTINUOUS
 62
     7
 10
420.84937775916092
 20
373.2774126876829
 30
0.0
 11
454.34937775916092
 21
373.2774126876829
 31
0.0
  0
LINE
  5
56
  8
0
  6
CONTINUOUS
 62
     7
 10
356.46621901384401
 20
448.69345372261802
 30
0.0
 11
356.46621901384401
 21
415.19345372261802
 31
0.0
  0
LINE
  5
57
  8
0
  6
CONTINUOUS
 62
     7
 10
316.4662190138439
 20
415.19345372261802
 30
0.0
 11
316.4662190138439
 21
448.69345372261802
 31
0.0
  0
LINE
  5
58
  8
0
  6
CONTINUOUS
 62
     7
 10
356.46621901384401
 20
441.19345372261802
 30
0.0
 11
316.4662190138439
 21
441.19345372261802
 31
0.0
  0
LINE
  5
59
  8
0
  6
CONTINUOUS
 62
     7
 10
311.46621901384401
 20
448.69345372261802
 30
0.0
 11
361.46621901384401
 21
448.69345372261802
 31
0.0
  0
LINE
  5
5A
  8
0
  6
CONTINUOUS
 62
     7
 10
361.46621901384401
 20
408.69345372261802
 30
0.0
 11
361.46621901384401
 21
430.79345372261798
 31
0.0
  0
LINE
  5
5B
  8
0
  6
CONTINUOUS
 62
     7
 10
311.46621901384401
 20
408.69345372261802
 30
0.0
 11
311.46621901384401
 21
416.99345372261803
 31
0.0
  0
LINE
  5
5C
  8
CENTER
  6
CONTINUOUS
 62
     1
 10
336.46621901384401
 20
405.69345372261802
 30
0.0
 11
336.46621901384401
 21
451.6934537226179
 31
0.0
  0
LINE
  5
5D
  8
0
  6
CONTINUOUS
 62
     7
 10
361.46621901384401
 20
408.69345372261802
 30
0.0
 11
311.46621901384401
 21
408.69345372261802
 31
0.0
  0
LINE
  5
5E
  8
CENTER
  6
CONTINUOUS
 62
     1
 10
356.46621901384401
 20
412.9434537226179
 30
0.0
 11
356.46621901384401
 21
414.6934537226179
 31
0.0
  0
LINE
  5
5F
  8
CENTER
  6
CONTINUOUS
 62
     1
 10
359.71621901384401
 20
416.19345372261802
 30
0.0
 11
345.71621901384401
 21
416.19345372261802
 31
0.0
  0
LINE
  5
60
  8
CENTER
  6
CONTINUOUS
 62
     1
 10
327.21621901384401
 20
416.19345372261802
 30
0.0
 11
313.21621901384401
 21
416.19345372261802
 31
0.0
  0
LINE
  5
61
  8
CENTER
  6
CONTINUOUS
 62
     1
 10
316.4662190138439
 20
412.9434537226179
 30
0.0
 11
316.4662190138439
 21
414.6934537226179
 31
0.0
  0
LINE
  5
62
  8
0
  6
CONTINUOUS
 62
     7
 10
348.96621901384401
 20
413.94345372261802
 30
0.0
 11
356.46621901384401
 21
413.94345372261802
 31
0.0
  0
LINE
  5
63
  8
0
  6
CONTINUOUS
 62
     7
 10
316.4662190138439
 20
413.94345372261802
 30
0.0
 11
323.96621901384401
 21
413.94345372261802
 31
0.0
  0
LINE
  5
64
  8
CENTER
  6
CONTINUOUS
 62
     1
 10
323.96621901384401
 20
412.9434537226179
 30
0.0
 11
323.96621901384401
 21
419.44345372261802
 31
0.0
  0
LINE
  5
65
  8
CENTER
  6
CONTINUOUS
 62
     1
 10
348.96621901384401
 20
412.9434537226179
 30
0.0
 11
348.96621901384401
 21
419.44345372261802
 31
0.0
  0
LINE
  5
66
  8
0
  6
CONTINUOUS
 62
     7
 10
316.4662190138439
 20
373.2774126876829
 30
0.0
 11
356.46621901384401
 21
373.2774126876829
 31
0.0
  0
LINE
  5
67
  8
0
  6
CONTINUOUS
 62
     7
 10
316.4662190138439
 20
240.77741268768301
 30
0.0
 11
316.4662190138439
 21
373.2774126876829
 31
0.0
  0
LINE
  5
68
  8
0
  6
CONTINUOUS
 62
     7
 10
311.46621901384401
 20
233.27741268768301
 30
0.0
 11
361.46621901384401
 21
233.27741268768301
 31
0.0
  0
LINE
  5
69
  8
0
  6
CONTINUOUS
 62
     7
 10
311.46621901384401
 20
240.77741268768301
 30
0.0
 11
311.46621901384401
 21
233.27741268768301
 31
0.0
  0
LINE
  5
6A
  8
0
  6
CONTINUOUS
 62
     7
 10
361.46621901384401
 20
240.77741268768301
 30
0.0
 11
311.46621901384401
 21
240.77741268768301
 31
0.0
  0
LINE
  5
6B
  8
0
  6
CONTINUOUS
 62
     7
 10
446.84937775916097
 20
331.21680037902303
 30
0.0
 11
446.84937775916097
 21
373.2774126876829
 31
0.0
  0
LINE
  5
6C
  8
0
  6
CONTINUOUS
 62
     7
 10
361.46621901384401
 20
437.79345372261793
 30
0.0
 11
361.46621901384401
 21
448.69345372261802
 31
0.0
  0
LINE
  5
6D
  8
0
  6
CONTINUOUS
 62
     7
 10
311.46621901384401
 20
424.99345372261803
 30
0.0
 11
311.46621901384401
 21
448.69345372261802
 31
0.0
  0
LINE
  5
6E
  8
0
  6
CONTINUOUS
 62
     7
 10
430.84937775916097
 20
365.27741268768301
 30
0.0
 11
428.84937775916092
 21
365.27741268768301
 31
0.0
  0
LINE
  5
6F
  8
0
  6
CONTINUOUS
 62
     7
 10
430.84937775916097
 20
364.27741268768301
 30
0.0
 11
428.84937775916092
 21
364.27741268768301
 31
0.0
  0
LINE
  5
70
  8
0
  6
CONTINUOUS
 62
     7
 10
430.84937775916097
 20
363.27741268768301
 30
0.0
 11
428.34937775916092
 21
363.27741268768301
 31
0.0
  0
LINE
  5
71
  8
0
  6
CONTINUOUS
 62
     7
 10
430.84937775916097
 20
362.27741268768301
 30
0.0
 11
428.84937775916092
 21
362.27741268768301
 31
0.0
  0
LINE
  5
72
  8
0
  6
CONTINUOUS
 62
     7
 10
430.84937775916097
 20
361.27741268768301
 30
0.0
 11
428.84937775916092
 21
361.27741268768301
 31
0.0
  0
LINE
  5
73
  8
0
  6
CONTINUOUS
 62
     7
 10
430.84937775916097
 20
360.27741268768301
 30
0.0
 11
428.84937775916092
 21
360.27741268768301
 31
0.0
  0
LINE
  5
74
  8
0
  6
CONTINUOUS
 62
     7
 10
430.84937775916097
 20
359.27741268768301
 30
0.0
 11
428.84937775916092
 21
359.27741268768301
 31
0.0
  0
LINE
  5
75
  8
0
  6
CONTINUOUS
 62
     7
 10
430.84937775916097
 20
358.27741268768301
 30
0.0
 11
427.84937775916092
 21
358.27741268768301
 31
0.0
  0
LINE
  5
76
  8
0
  6
CONTINUOUS
 62
     7
 10
430.84937775916097
 20
357.27741268768301
 30
0.0
 11
428.84937775916092
 21
357.27741268768301
 31
0.0
  0
LINE
  5
77
  8
0
  6
CONTINUOUS
 62
     7
 10
430.84937775916097
 20
356.27741268768301
 30
0.0
 11
428.84937775916092
 21
356.27741268768301
 31
0.0
  0
LINE
  5
78
  8
0
  6
CONTINUOUS
 62
     7
 10
427.84937775916092
 20
323.2774126876829
 30
0.0
 11
430.84937775916097
 21
323.2774126876829
 31
0.0
  0
LINE
  5
79
  8
0
  6
CONTINUOUS
 62
     7
 10
428.34937775916092
 20
318.27741268768301
 30
0.0
 11
435.84937775916092
 21
318.27741268768301
 31
0.0
  0
LINE
  5
7A
  8
0
  6
CONTINUOUS
 62
     7
 10
315.96621901384401
 20
370.77741268768187
 30
0.0
 11
315.96621901384401
 21
293.77741268768301
 31
0.0
  0
LINE
  5
7B
  8
0
  6
CONTINUOUS
 62
     7
 10
315.96621901384401
 20
298.27741268768102
 30
0.0
 11
314.97635264366193
 21
298.27741268768102
 31
0.0
  0
LINE
  5
7C
  8
0
  6
CONTINUOUS
 62
     7
 10
314.97635264366193
 20
294.27741268768102
 30
0.0
 11
315.96621901384401
 21
294.27741268768102
 31
0.0
  0
LINE
  5
7D
  8
CENTER
  6
CONTINUOUS
 62
     1
 10
318.4662190138439
 20
420.99345372261803
 30
0.0
 11
301.96621901384401
 21
420.99345372261803
 31
0.0
  0
LINE
  5
7E
  8
CENTER
  6
CONTINUOUS
 62
     1
 10
320.96621901384401
 20
288.27741268768301
 30
0.0
 11
351.96621901384401
 21
288.27741268768301
 31
0.0
  0
LINE
  5
7F
  8
0
  6
CONTINUOUS
 62
     7
 10
433.84937775916092
 20
332.77741268768301
 30
0.0
 11
430.84937775916097
 21
332.77741268768301
 31
0.0
  0
LINE
  5
80
  8
0
  6
CONTINUOUS
 62
     7
 10
316.4662190138439
 20
293.77741268768187
 30
0.0
 11
315.96621901384401
 21
293.77741268768301
 31
0.0
  0
LINE
  5
81
  8
0
  6
CONTINUOUS
 62
     7
 10
316.4662190138439
 20
370.77741268768187
 30
0.0
 11
315.96621901384401
 21
370.77741268768187
 31
0.0
  0
LINE
  5
82
  8
0
  6
CONTINUOUS
 62
     7
 10
315.96621901384401
 20
370.27741268768301
 30
0.0
 11
314.97635264366193
 21
370.27741268768301
 31
0.0
  0
LINE
  5
83
  8
0
  6
CONTINUOUS
 62
     7
 10
314.97635264366193
 20
366.27741268768301
 30
0.0
 11
315.96621901384401
 21
366.27741268768301
 31
0.0
  0
LINE
  5
84
  8
0
  6
CONTINUOUS
 62
     7
 10
316.4662190138439
 20
283.2774126876829
 30
0.0
 11
356.46621901384401
 21
283.2774126876829
 31
0.0
  0
LINE
  5
85
  8
0
  6
CONTINUOUS
 62
     7
 10
446.84937775916097
 20
283.2774126876829
 30
0.0
 11
420.84937775916092
 21
283.2774126876829
 31
0.0
  0
LINE
  5
86
  8
0
  6
CONTINUOUS
 62
     7
 10
316.4662190138439
 20
429.49345372261803
 30
0.0
 11
315.46621901384401
 21
429.49345372261803
 31
0.0
  0
LINE
  5
87
  8
0
  6
CONTINUOUS
 62
     7
 10
315.96621901384401
 20
429.49345372261803
 30
0.0
 11
314.97635264366193
 21
429.49345372261803
 31
0.0
  0
LINE
  5
88
  8
0
  6
CONTINUOUS
 62
     7
 10
315.96621901384401
 20
416.99345372261803
 30
0.0
 11
315.96621901384401
 21
429.49345372261803
 31
0.0
  0
LINE
  5
89
  8
0
  6
CONTINUOUS
 62
     7
 10
315.96621901384401
 20
424.99345372261803
 30
0.0
 11
304.46621901384401
 21
424.99345372261803
 31
0.0
  0
LINE
  5
8A
  8
0
  6
CONTINUOUS
 62
     7
 10
303.9662190138439
 20
424.49345372261803
 30
0.0
 11
303.9662190138439
 21
417.49345372261803
 31
0.0
  0
LINE
  5
8B
  8
0
  6
CONTINUOUS
 62
     7
 10
303.9662190138439
 20
424.49345372261803
 30
0.0
 11
304.46621901384401
 21
424.99345372261803
 31
0.0
  0
LINE
  5
8C
  8
0
  6
CONTINUOUS
 62
     7
 10
304.46621901384401
 20
416.99345372261803
 30
0.0
 11
303.9662190138439
 21
417.49345372261803
 31
0.0
  0
LINE
  5
8D
  8
0
  6
CONTINUOUS
 62
     7
 10
314.97635264366193
 20
425.49345372261803
 30
0.0
 11
315.96621901384401
 21
425.49345372261803
 31
0.0
  0
LINE
  5
8E
  8
0
  6
CONTINUOUS
 62
     7
 10
304.46621901384401
 20
416.99345372261803
 30
0.0
 11
316.4662190138439
 21
416.99345372261803
 31
0.0
  0
LINE
  5
8F
  8
0
  6
CONTINUOUS
 62
     7
 10
372.46621901384401
 20
441.79345372261793
 30
0.0
 11
372.16621901384389
 21
441.49345372261803
 31
0.0
  0
LINE
  5
90
  8
0
  6
CONTINUOUS
 62
     7
 10
357.95608538402593
 20
424.69345372261802
 30
0.0
 11
356.96621901384401
 21
424.69345372261802
 31
0.0
  0
LINE
  5
91
  8
0
  6
CONTINUOUS
 62
     7
 10
356.96621901384401
 20
420.69345372261802
 30
0.0
 11
357.95608538402593
 21
420.69345372261802
 31
0.0
  0
LINE
  5
92
  8
0
  6
CONTINUOUS
 62
     7
 10
356.96621901384401
 20
430.19345372261802
 30
0.0
 11
356.96621901384401
 21
420.19345372261802
 31
0.0
  0
LINE
  5
93
  8
0
  6
CONTINUOUS
 62
     7
 10
356.96621901384401
 20
425.69345372261802
 30
0.0
 11
357.95608538402593
 21
425.69345372261802
 31
0.0
  0
LINE
  5
94
  8
0
  6
CONTINUOUS
 62
     7
 10
357.95608538402593
 20
429.69345372261802
 30
0.0
 11
356.96621901384401
 21
429.69345372261802
 31
0.0
  0
LINE
  5
95
  8
0
  6
CONTINUOUS
 62
     7
 10
370.16621901384389
 20
324.77741268768301
 30
0.0
 11
359.166219013844
 21
324.77741268768301
 31
0.0
  0
LINE
  5
96
  8
0
  6
CONTINUOUS
 62
     7
 10
383.26621901384402
 20
332.27741268768301
 30
0.0
 11
383.26621901384402
 21
324.27741268768301
 31
0.0
  0
LINE
  5
97
  8
0
  6
CONTINUOUS
 62
     7
 10
440.34937775916092
 20
332.25736243610902
 30
0.0
 11
440.34937775916092
 21
324.29746293925592
 31
0.0
  0
LINE
  5
98
  8
0
  6
CONTINUOUS
 62
     7
 10
439.5493777591609
 20
324.29746293925592
 30
0.0
 11
439.5493777591609
 21
332.25736243610902
 31
0.0
  0
LINE
  5
99
  8
0
  6
CONTINUOUS
 62
     7
 10
420.84937775916092
 20
283.2774126876829
 30
0.0
 11
420.84937775916092
 21
373.2774126876829
 31
0.0
  0
LINE
  5
9A
  8
CENTER
  6
CONTINUOUS
 62
     1
 10
439.949377759161
 20
318.77741268768301
 30
0.0
 11
439.949377759161
 21
337.7774126876829
 31
0.0
  0
LINE
  5
9B
  8
0
  6
CONTINUOUS
 62
     7
 10
383.166219013844
 20
434.69345372261802
 30
0.0
 11
384.25680203269502
 21
434.69345372261802
 31
0.0
  0
LINE
  5
9C
  8
0
  6
CONTINUOUS
 62
     7
 10
383.26621901384402
 20
433.89345372261801
 30
0.0
 11
383.26621901384402
 21
430.29345372261793
 31
0.0
  0
LINE
  5
9D
  8
0
  6
CONTINUOUS
 62
     7
 10
384.25680203269502
 20
433.89345372261801
 30
0.0
 11
383.166219013844
 21
433.89345372261801
 31
0.0
  0
LINE
  5
9E
  8
0
  6
CONTINUOUS
 62
     7
 10
383.26621901384402
 20
438.29345372261793
 30
0.0
 11
383.26621901384402
 21
434.69345372261802
 31
0.0
  0
LINE
  5
9F
  8
0
  6
CONTINUOUS
 62
     7
 10
383.166219013844
 20
438.29345372261793
 30
0.0
 11
383.26621901384402
 21
438.29345372261793
 31
0.0
  0
LINE
  5
A0
  8
0
  6
CONTINUOUS
 62
     7
 10
383.26621901384402
 20
430.29345372261793
 30
0.0
 11
383.166219013844
 21
430.29345372261793
 31
0.0
  0
LINE
  5
A1
  8
0
  6
CONTINUOUS
 62
     7
 10
339.166219013844
 20
430.96845372261788
 30
0.0
 11
333.666219013844
 21
430.96845372261788
 31
0.0
  0
LINE
  5
A2
  8
0
  6
CONTINUOUS
 62
     7
 10
333.666219013844
 20
430.96845372261788
 30
0.0
 11
333.666219013844
 21
432.69345372261802
 31
0.0
  0
LINE
  5
A3
  8
0
  6
CONTINUOUS
 62
     7
 10
359.166219013844
 20
436.29345372261798
 30
0.0
 11
356.46621901384401
 21
436.29345372261798
 31
0.0
  0
LINE
  5
A4
  8
0
  6
CONTINUOUS
 62
     7
 10
356.46621901384401
 20
432.29345372261798
 30
0.0
 11
359.166219013844
 21
432.29345372261798
 31
0.0
  0
LINE
  5
A5
  8
0
  6
CONTINUOUS
 62
     7
 10
337.33011032368199
 20
432.69345372261802
 30
0.0
 11
333.666219013844
 21
431.35990634425002
 31
0.0
  0
LINE
  5
A6
  8
0
  6
CONTINUOUS
 62
     7
 10
334.40630592351903
 20
432.69345372261802
 30
0.0
 11
333.666219013844
 21
432.42408411672591
 31
0.0
  0
LINE
  5
A7
  8
0
  6
CONTINUOUS
 62
     7
 10
339.166219013844
 20
432.29756486023899
 30
0.0
 11
335.51451617528602
 21
430.96845372261788
 31
0.0
  0
LINE
  5
A8
  8
0
  6
CONTINUOUS
 62
     7
 10
339.166219013844
 20
431.23338708776299
 30
0.0
 11
338.43832057544898
 21
430.96845372261788
 31
0.0
  0
LINE
  5
A9
  8
0
  6
CONTINUOUS
 62
     7
 10
333.46621901384401
 20
432.69345372261802
 30
0.0
 11
333.46621901384401
 21
429.89345372261801
 31
0.0
  0
LINE
  5
AA
  8
0
  6
CONTINUOUS
 62
     7
 10
339.46621901384401
 20
429.89345372261801
 30
0.0
 11
339.46621901384401
 21
432.69345372261802
 31
0.0
  0
LINE
  5
AB
  8
0
  6
CONTINUOUS
 62
     7
 10
339.46621901384401
 20
432.69345372261802
 30
0.0
 11
333.46621901384401
 21
432.69345372261802
 31
0.0
  0
LINE
  5
AC
  8
0
  6
CONTINUOUS
 62
     7
 10
327.75267274865303
 20
429.89345372261801
 30
0.0
 11
330.46621901384401
 21
425.19345372261802
 31
0.0
  0
LINE
  5
AD
  8
0
  6
CONTINUOUS
 62
     7
 10
333.46621901384401
 20
429.89345372261801
 30
0.0
 11
327.75267274865303
 21
429.89345372261801
 31
0.0
  0
LINE
  5
AE
  8
0
  6
CONTINUOUS
 62
     7
 10
345.179765279035
 20
429.89345372261801
 30
0.0
 11
342.46621901384401
 21
425.19345372261802
 31
0.0
  0
LINE
  5
AF
  8
0
  6
CONTINUOUS
 62
     7
 10
339.46621901384401
 20
429.89345372261801
 30
0.0
 11
345.179765279035
 21
429.89345372261801
 31
0.0
  0
LINE
  5
B0
  8
0
  6
CONTINUOUS
 62
     7
 10
333.96621901384401
 20
428.19345372261802
 30
0.0
 11
333.96621901384401
 21
430.96845372261788
 31
0.0
  0
LINE
  5
B1
  8
0
  6
CONTINUOUS
 62
     7
 10
339.06621901384392
 20
428.19345372261802
 30
0.0
 11
333.86621901384387
 21
428.19345372261802
 31
0.0
  0
LINE
  5
B2
  8
0
  6
CONTINUOUS
 62
     7
 10
338.96621901384401
 20
430.96845372261788
 30
0.0
 11
338.96621901384401
 21
428.19345372261802
 31
0.0
  0
LINE
  5
B3
  8
0
  6
CONTINUOUS
 62
     7
 10
338.96621901384401
 20
430.89345372261789
 30
0.0
 11
333.96621901384401
 21
430.89345372261789
 31
0.0
  0
LINE
  5
B4
  8
0
  6
CONTINUOUS
 62
     7
 10
333.86621901384387
 20
429.19345372261802
 30
0.0
 11
328.15681793708592
 21
429.19345372261802
 31
0.0
  0
LINE
  5
B5
  8
0
  6
CONTINUOUS
 62
     7
 10
342.46621901384401
 20
425.19345372261802
 30
0.0
 11
344.77562009060188
 21
429.19345372261802
 31
0.0
  0
LINE
  5
B6
  8
0
  6
CONTINUOUS
 62
     7
 10
328.15681793708592
 20
429.19345372261802
 30
0.0
 11
330.46621901384401
 21
425.19345372261802
 31
0.0
  0
LINE
  5
B7
  8
0
  6
CONTINUOUS
 62
     7
 10
333.86621901384387
 20
428.19345372261802
 30
0.0
 11
333.86621901384387
 21
429.19345372261802
 31
0.0
  0
LINE
  5
B8
  8
0
  6
CONTINUOUS
 62
     7
 10
339.06621901384392
 20
429.19345372261802
 30
0.0
 11
339.06621901384392
 21
428.19345372261802
 31
0.0
  0
LINE
  5
B9
  8
0
  6
CONTINUOUS
 62
     7
 10
344.77562009060188
 20
429.19345372261802
 30
0.0
 11
339.06621901384392
 21
429.19345372261802
 31
0.0
  0
LINE
  5
BA
  8
0
  6
CONTINUOUS
 62
     7
 10
339.166219013844
 20
430.96845372261788
 30
0.0
 11
339.166219013844
 21
432.69345372261802
 31
0.0
  0
LINE
  5
BB
  8
0
  6
CONTINUOUS
 62
     7
 10
339.46621901384401
 20
431.29345372261798
 30
0.0
 11
339.166219013844
 21
431.29345372261798
 31
0.0
  0
LINE
  5
BC
  8
0
  6
CONTINUOUS
 62
     7
 10
314.07622527166887
 20
434.69345372261802
 30
0.0
 11
315.86621901384387
 21
434.69345372261802
 31
0.0
  0
LINE
  5
BD
  8
0
  6
CONTINUOUS
 62
     7
 10
315.86621901384387
 20
433.89345372261801
 30
0.0
 11
314.07622527166887
 21
433.89345372261801
 31
0.0
  0
LINE
  5
BE
  8
0
  6
CONTINUOUS
 62
     7
 10
315.86621901384387
 20
434.69345372261802
 30
0.0
 11
315.86621901384387
 21
433.89345372261801
 31
0.0
  0
LINE
  5
BF
  8
0
  6
CONTINUOUS
 62
     7
 10
315.45184073618202
 20
438.79345372261793
 30
0.0
 11
316.4662190138439
 21
438.79345372261793
 31
0.0
  0
LINE
  5
C0
  8
0
  6
CONTINUOUS
 62
     7
 10
315.45184073618202
 20
434.69345372261802
 30
0.0
 11
315.45184073618202
 21
438.79345372261793
 31
0.0
  0
LINE
  5
C1
  8
0
  6
CONTINUOUS
 62
     7
 10
316.4662190138439
 20
429.79345372261793
 30
0.0
 11
315.45184073618202
 21
429.79345372261793
 31
0.0
  0
LINE
  5
C2
  8
0
  6
CONTINUOUS
 62
     7
 10
315.45184073618202
 20
429.79345372261793
 30
0.0
 11
315.45184073618202
 21
433.89345372261801
 31
0.0
  0
LINE
  5
C3
  8
0
  6
CONTINUOUS
 62
     7
 10
356.46621901384401
 20
415.19345372261802
 30
0.0
 11
316.4662190138439
 21
415.19345372261802
 31
0.0
  0
LINE
  5
C4
  8
0
  6
CONTINUOUS
 62
     7
 10
382.86621901384399
 20
426.79345372261798
 30
0.0
 11
372.46621901384401
 21
426.79345372261798
 31
0.0
  0
LINE
  5
C5
  8
0
  6
CONTINUOUS
 62
     7
 10
372.16621901384389
 20
427.09345372261799
 30
0.0
 11
372.16621901384389
 21
441.49345372261803
 31
0.0
  0
LINE
  5
C6
  8
0
  6
CONTINUOUS
 62
     7
 10
372.46621901384401
 20
441.79345372261793
 30
0.0
 11
382.86621901384399
 21
441.79345372261793
 31
0.0
  0
LINE
  5
C7
  8
0
  6
CONTINUOUS
 62
     7
 10
370.16621901384389
 20
430.79345372261798
 30
0.0
 11
359.166219013844
 21
430.79345372261798
 31
0.0
  0
LINE
  5
C8
  8
0
  6
CONTINUOUS
 62
     7
 10
359.166219013844
 20
437.79345372261793
 30
0.0
 11
370.16621901384389
 21
437.79345372261793
 31
0.0
  0
LINE
  5
C9
  8
0
  6
CONTINUOUS
 62
     7
 10
372.16621901384389
 20
427.09345372261799
 30
0.0
 11
372.46621901384401
 21
426.79345372261798
 31
0.0
  0
LINE
  5
CA
  8
0
  6
CONTINUOUS
 62
     7
 10
383.166219013844
 20
441.49345372261803
 30
0.0
 11
382.86621901384399
 21
441.79345372261793
 31
0.0
  0
LINE
  5
CB
  8
0
  6
CONTINUOUS
 62
     7
 10
383.166219013844
 20
427.09345372261799
 30
0.0
 11
382.86621901384399
 21
426.79345372261798
 31
0.0
  0
LINE
  5
CC
  8
0
  6
CONTINUOUS
 62
     7
 10
382.86621901384399
 20
426.79345372261798
 30
0.0
 11
382.86621901384399
 21
441.79345372261793
 31
0.0
  0
LINE
  5
CD
  8
0
  6
CONTINUOUS
 62
     7
 10
383.166219013844
 20
441.49345372261803
 30
0.0
 11
383.166219013844
 21
427.09345372261799
 31
0.0
  0
LINE
  5
CE
  8
0
  6
CONTINUOUS
 62
     7
 10
382.86621901384399
 20
441.53789741978602
 30
0.0
 11
372.46621901384401
 21
441.53789741978602
 31
0.0
  0
LINE
  5
CF
  8
0
  6
CONTINUOUS
 62
     7
 10
372.46621901384401
 20
441.79345372261793
 30
0.0
 11
372.46621901384401
 21
426.79345372261798
 31
0.0
  0
LINE
  5
D0
  8
0
  6
CONTINUOUS
 62
     7
 10
382.86621901384399
 20
439.59675458151702
 30
0.0
 11
372.46621901384401
 21
439.59675458151702
 31
0.0
  0
LINE
  5
D1
  8
0
  6
CONTINUOUS
 62
     7
 10
372.46621901384401
 20
438.04345372261798
 30
0.0
 11
382.86621901384399
 21
438.04345372261798
 31
0.0
  0
LINE
  5
D2
  8
0
  6
CONTINUOUS
 62
     7
 10
372.46621901384401
 20
436.23459656088693
 30
0.0
 11
382.86621901384399
 21
436.23459656088693
 31
0.0
  0
LINE
  5
D3
  8
0
  6
CONTINUOUS
 62
     7
 10
372.46621901384401
 20
432.35231088434892
 30
0.0
 11
382.86621901384399
 21
432.35231088434892
 31
0.0
  0
LINE
  5
D4
  8
0
  6
CONTINUOUS
 62
     7
 10
372.46621901384401
 20
434.29345372261793
 30
0.0
 11
382.86621901384399
 21
434.29345372261793
 31
0.0
  0
LINE
  5
D5
  8
0
  6
CONTINUOUS
 62
     7
 10
372.46621901384401
 20
430.54345372261793
 30
0.0
 11
382.86621901384399
 21
430.54345372261793
 31
0.0
  0
LINE
  5
D6
  8
0
  6
CONTINUOUS
 62
     7
 10
372.46621901384401
 20
428.990152863719
 30
0.0
 11
382.86621901384399
 21
428.990152863719
 31
0.0
  0
LINE
  5
D7
  8
0
  6
CONTINUOUS
 62
     7
 10
372.46621901384401
 20
427.79826319423489
 30
0.0
 11
382.86621901384399
 21
427.79826319423489
 31
0.0
  0
LINE
  5
D8
  8
0
  6
CONTINUOUS
 62
     7
 10
372.46621901384401
 20
427.04901002545
 30
0.0
 11
382.86621901384399
 21
427.04901002545
 31
0.0
  0
LINE
  5
D9
  8
0
  6
CONTINUOUS
 62
     7
 10
372.46621901384401
 20
440.78864425100102
 30
0.0
 11
382.86621901384399
 21
440.78864425100102
 31
0.0
  0
LINE
  5
DA
  8
0
  6
CONTINUOUS
 62
     7
 10
359.166219013844
 20
324.77741268768301
 30
0.0
 11
359.166219013844
 21
331.77741268768301
 31
0.0
  0
LINE
  5
DB
  8
0
  6
CONTINUOUS
 62
     7
 10
356.96621901384401
 20
326.27741268768301
 30
0.0
 11
359.166219013844
 21
326.27741268768301
 31
0.0
  0
LINE
  5
DC
  8
0
  6
CONTINUOUS
 62
     7
 10
359.166219013844
 20
330.27741268768301
 30
0.0
 11
356.96621901384401
 21
330.27741268768301
 31
0.0
  0
LINE
  5
DD
  8
0
  6
CONTINUOUS
 62
     7
 10
383.26621901384402
 20
324.27741268768301
 30
0.0
 11
383.166219013844
 21
324.27741268768301
 31
0.0
  0
LINE
  5
DE
  8
0
  6
CONTINUOUS
 62
     7
 10
383.166219013844
 20
332.27741268768301
 30
0.0
 11
383.26621901384402
 21
332.27741268768301
 31
0.0
  0
LINE
  5
DF
  8
0
  6
CONTINUOUS
 62
     7
 10
372.46621901384401
 20
335.7774126876829
 30
0.0
 11
382.86621901384399
 21
335.7774126876829
 31
0.0
  0
LINE
  5
E0
  8
0
  6
CONTINUOUS
 62
     7
 10
372.16621901384389
 20
321.07741268768302
 30
0.0
 11
372.16621901384389
 21
335.47741268768192
 31
0.0
  0
LINE
  5
E1
  8
0
  6
CONTINUOUS
 62
     7
 10
382.86621901384399
 20
320.77741268768301
 30
0.0
 11
372.46621901384401
 21
320.77741268768301
 31
0.0
  0
LINE
  5
E2
  8
0
  6
CONTINUOUS
 62
     7
 10
372.46621901384401
 20
335.7774126876829
 30
0.0
 11
372.16621901384389
 21
335.47741268768192
 31
0.0
  0
LINE
  5
E3
  8
0
  6
CONTINUOUS
 62
     7
 10
372.46621901384401
 20
320.77741268768301
 30
0.0
 11
372.16621901384389
 21
321.07741268768302
 31
0.0
  0
LINE
  5
E4
  8
0
  6
CONTINUOUS
 62
     7
 10
382.86621901384399
 20
320.77741268768301
 30
0.0
 11
383.166219013844
 21
321.07741268768302
 31
0.0
  0
LINE
  5
E5
  8
0
  6
CONTINUOUS
 62
     7
 10
382.86621901384399
 20
335.7774126876829
 30
0.0
 11
383.166219013844
 21
335.47741268768192
 31
0.0
  0
LINE
  5
E6
  8
0
  6
CONTINUOUS
 62
     7
 10
382.86621901384399
 20
320.77741268768301
 30
0.0
 11
382.86621901384399
 21
335.7774126876829
 31
0.0
  0
LINE
  5
E7
  8
0
  6
CONTINUOUS
 62
     7
 10
383.166219013844
 20
335.47741268768192
 30
0.0
 11
383.166219013844
 21
321.07741268768302
 31
0.0
  0
LINE
  5
E8
  8
0
  6
CONTINUOUS
 62
     7
 10
372.46621901384401
 20
321.03296899051492
 30
0.0
 11
382.86621901384399
 21
321.03296899051492
 31
0.0
  0
LINE
  5
E9
  8
0
  6
CONTINUOUS
 62
     7
 10
372.46621901384401
 20
335.7774126876829
 30
0.0
 11
372.46621901384401
 21
320.77741268768301
 31
0.0
  0
LINE
  5
EA
  8
0
  6
CONTINUOUS
 62
     7
 10
372.46621901384401
 20
322.9741118287829
 30
0.0
 11
382.86621901384399
 21
322.9741118287829
 31
0.0
  0
LINE
  5
EB
  8
0
  6
CONTINUOUS
 62
     7
 10
382.86621901384399
 20
324.52741268768301
 30
0.0
 11
372.46621901384401
 21
324.52741268768301
 31
0.0
  0
LINE
  5
EC
  8
0
  6
CONTINUOUS
 62
     7
 10
382.86621901384399
 20
326.33626984941401
 30
0.0
 11
372.46621901384401
 21
326.33626984941401
 31
0.0
  0
LINE
  5
ED
  8
0
  6
CONTINUOUS
 62
     7
 10
382.86621901384399
 20
330.21855552595201
 30
0.0
 11
372.46621901384401
 21
330.21855552595201
 31
0.0
  0
LINE
  5
EE
  8
0
  6
CONTINUOUS
 62
     7
 10
382.86621901384399
 20
328.27741268768301
 30
0.0
 11
372.46621901384401
 21
328.27741268768301
 31
0.0
  0
LINE
  5
EF
  8
0
  6
CONTINUOUS
 62
     7
 10
382.86621901384399
 20
332.02741268768301
 30
0.0
 11
372.46621901384401
 21
332.02741268768301
 31
0.0
  0
LINE
  5
F0
  8
0
  6
CONTINUOUS
 62
     7
 10
382.86621901384399
 20
333.58071354658188
 30
0.0
 11
372.46621901384401
 21
333.58071354658188
 31
0.0
  0
LINE
  5
F1
  8
0
  6
CONTINUOUS
 62
     7
 10
382.86621901384399
 20
334.77260321606599
 30
0.0
 11
372.46621901384401
 21
334.77260321606599
 31
0.0
  0
LINE
  5
F2
  8
0
  6
CONTINUOUS
 62
     7
 10
382.86621901384399
 20
335.52185638485088
 30
0.0
 11
372.46621901384401
 21
335.52185638485088
 31
0.0
  0
LINE
  5
F3
  8
0
  6
CONTINUOUS
 62
     7
 10
382.86621901384399
 20
321.78222215929901
 30
0.0
 11
372.46621901384401
 21
321.78222215929901
 31
0.0
  0
LINE
  5
F4
  8
0
  6
CONTINUOUS
 62
     7
 10
430.84937775916097
 20
371.27741268768301
 30
0.0
 11
425.84937775916092
 21
371.27741268768301
 31
0.0
  0
LINE
  5
F5
  8
0
  6
CONTINUOUS
 62
     7
 10
425.84937775916092
 20
371.27741268768301
 30
0.0
 11
425.84937775916092
 21
285.27741268768301
 31
0.0
  0
LINE
  5
F6
  8
0
  6
CONTINUOUS
 62
     7
 10
430.84937775916097
 20
341.27741268768301
 30
0.0
 11
428.84937775916092
 21
341.27741268768301
 31
0.0
  0
LINE
  5
F7
  8
0
  6
CONTINUOUS
 62
     7
 10
430.84937775916097
 20
340.27741268768301
 30
0.0
 11
428.84937775916092
 21
340.27741268768301
 31
0.0
  0
LINE
  5
F8
  8
0
  6
CONTINUOUS
 62
     7
 10
430.84937775916097
 20
339.27741268768301
 30
0.0
 11
428.84937775916092
 21
339.27741268768301
 31
0.0
  0
LINE
  5
F9
  8
0
  6
CONTINUOUS
 62
     7
 10
435.84937775916092
 20
338.27741268768301
 30
0.0
 11
427.84937775916092
 21
338.27741268768301
 31
0.0
  0
LINE
  5
FA
  8
0
  6
CONTINUOUS
 62
     7
 10
430.84937775916097
 20
336.27741268768301
 30
0.0
 11
428.84937775916092
 21
336.27741268768301
 31
0.0
  0
LINE
  5
FB
  8
0
  6
CONTINUOUS
 62
     7
 10
430.84937775916097
 20
335.27741268768301
 30
0.0
 11
428.84937775916092
 21
335.27741268768301
 31
0.0
  0
LINE
  5
FC
  8
0
  6
CONTINUOUS
 62
     7
 10
430.84937775916097
 20
334.27741268768301
 30
0.0
 11
428.84937775916092
 21
334.27741268768301
 31
0.0
  0
LINE
  5
FD
  8
0
  6
CONTINUOUS
 62
     7
 10
430.84937775916097
 20
333.27741268768301
 30
0.0
 11
428.34937775916092
 21
333.27741268768301
 31
0.0
  0
LINE
  5
FE
  8
0
  6
CONTINUOUS
 62
     7
 10
430.84937775916097
 20
331.27741268768301
 30
0.0
 11
428.84937775916092
 21
331.27741268768301
 31
0.0
  0
LINE
  5
FF
  8
0
  6
CONTINUOUS
 62
     7
 10
430.84937775916097
 20
330.27741268768301
 30
0.0
 11
428.84937775916092
 21
330.27741268768301
 31
0.0
  0
LINE
  5
100
  8
0
  6
CONTINUOUS
 62
     7
 10
428.84937775916092
 20
329.27741268768301
 30
0.0
 11
430.84937775916097
 21
329.27741268768301
 31
0.0
  0
LINE
  5
101
  8
0
  6
CONTINUOUS
 62
     7
 10
428.84937775916092
 20
327.27741268768301
 30
0.0
 11
430.84937775916097
 21
327.27741268768301
 31
0.0
  0
LINE
  5
102
  8
0
  6
CONTINUOUS
 62
     7
 10
428.84937775916092
 20
326.27741268768301
 30
0.0
 11
430.84937775916097
 21
326.27741268768301
 31
0.0
  0
LINE
  5
103
  8
0
  6
CONTINUOUS
 62
     7
 10
428.84937775916092
 20
325.2774126876829
 30
0.0
 11
430.84937775916097
 21
325.2774126876829
 31
0.0
  0
LINE
  5
104
  8
0
  6
CONTINUOUS
 62
     7
 10
428.84937775916092
 20
324.27741268768301
 30
0.0
 11
430.84937775916097
 21
324.27741268768301
 31
0.0
  0
LINE
  5
105
  8
0
  6
CONTINUOUS
 62
     7
 10
428.84937775916092
 20
322.27741268768301
 30
0.0
 11
430.84937775916097
 21
322.27741268768301
 31
0.0
  0
LINE
  5
106
  8
0
  6
CONTINUOUS
 62
     7
 10
428.84937775916092
 20
321.27741268768301
 30
0.0
 11
430.84937775916097
 21
321.27741268768301
 31
0.0
  0
LINE
  5
107
  8
0
  6
CONTINUOUS
 62
     7
 10
428.84937775916092
 20
320.27741268768301
 30
0.0
 11
430.84937775916097
 21
320.27741268768301
 31
0.0
  0
LINE
  5
108
  8
0
  6
CONTINUOUS
 62
     7
 10
428.84937775916092
 20
317.27741268768301
 30
0.0
 11
430.84937775916097
 21
317.27741268768301
 31
0.0
  0
LINE
  5
109
  8
0
  6
CONTINUOUS
 62
     7
 10
428.84937775916092
 20
316.27741268768301
 30
0.0
 11
430.84937775916097
 21
316.27741268768301
 31
0.0
  0
LINE
  5
10A
  8
0
  6
CONTINUOUS
 62
     7
 10
428.84937775916092
 20
315.27741268768301
 30
0.0
 11
430.84937775916097
 21
315.27741268768301
 31
0.0
  0
LINE
  5
10B
  8
0
  6
CONTINUOUS
 62
     7
 10
356.96621901384401
 20
420.19345372261802
 30
0.0
 11
356.46621901384401
 21
420.19345372261802
 31
0.0
  0
LINE
  5
10C
  8
0
  6
CONTINUOUS
 62
     7
 10
356.46621901384401
 20
430.19345372261802
 30
0.0
 11
356.96621901384401
 21
430.19345372261802
 31
0.0
  0
LINE
  5
10D
  8
0
  6
CONTINUOUS
 62
     7
 10
359.166219013844
 20
331.77741268768301
 30
0.0
 11
370.16621901384389
 21
331.77741268768301
 31
0.0
  0
LINE
  5
10E
  8
CENTER
  6
CONTINUOUS
 62
     1
 10
430.84937775916097
 20
369.27741268768301
 30
0.0
 11
425.84937775916092
 21
369.27741268768301
 31
0.0
  0
LINE
  5
10F
  8
CENTER
  6
CONTINUOUS
 62
     1
 10
428.34937775916092
 20
366.77741268768301
 30
0.0
 11
428.34937775916092
 21
371.77741268768301
 31
0.0
  0
LINE
  5
110
  8
0
  6
CONTINUOUS
 62
     7
 10
428.59937775916097
 20
368.27741268768301
 30
0.0
 11
428.59937775916097
 21
369.0274126876829
 31
0.0
  0
LINE
  5
111
  8
0
  6
CONTINUOUS
 62
     7
 10
428.59937775916097
 20
369.0274126876829
 30
0.0
 11
429.34937775916092
 21
369.0274126876829
 31
0.0
  0
LINE
  5
112
  8
0
  6
CONTINUOUS
 62
     7
 10
429.34937775916092
 20
369.0274126876829
 30
0.0
 11
429.34937775916092
 21
369.52741268768301
 31
0.0
  0
LINE
  5
113
  8
0
  6
CONTINUOUS
 62
     7
 10
429.34937775916092
 20
369.52741268768301
 30
0.0
 11
428.59937775916097
 21
369.52741268768301
 31
0.0
  0
LINE
  5
114
  8
0
  6
CONTINUOUS
 62
     7
 10
428.59937775916097
 20
369.52741268768301
 30
0.0
 11
428.59937775916097
 21
370.27741268768301
 31
0.0
  0
LINE
  5
115
  8
0
  6
CONTINUOUS
 62
     7
 10
428.59937775916097
 20
370.27741268768301
 30
0.0
 11
428.09937775916097
 21
370.27741268768301
 31
0.0
  0
LINE
  5
116
  8
0
  6
CONTINUOUS
 62
     7
 10
428.09937775916097
 20
370.27741268768301
 30
0.0
 11
428.09937775916097
 21
369.52741268768301
 31
0.0
  0
LINE
  5
117
  8
0
  6
CONTINUOUS
 62
     7
 10
428.09937775916097
 20
369.52741268768301
 30
0.0
 11
427.34937775916092
 21
369.52741268768301
 31
0.0
  0
LINE
  5
118
  8
0
  6
CONTINUOUS
 62
     7
 10
427.34937775916092
 20
369.52741268768301
 30
0.0
 11
427.34937775916092
 21
369.0274126876829
 31
0.0
  0
LINE
  5
119
  8
0
  6
CONTINUOUS
 62
     7
 10
427.34937775916092
 20
369.0274126876829
 30
0.0
 11
428.09937775916097
 21
369.0274126876829
 31
0.0
  0
LINE
  5
11A
  8
0
  6
CONTINUOUS
 62
     7
 10
428.09937775916097
 20
369.0274126876829
 30
0.0
 11
428.09937775916097
 21
368.27741268768301
 31
0.0
  0
LINE
  5
11B
  8
0
  6
CONTINUOUS
 62
     7
 10
428.09937775916097
 20
368.27741268768301
 30
0.0
 11
428.59937775916097
 21
368.27741268768301
 31
0.0
  0
LINE
  5
11C
  8
0
  6
CONTINUOUS
 62
     7
 10
428.84937775916092
 20
312.27741268768301
 30
0.0
 11
430.84937775916097
 21
312.27741268768301
 31
0.0
  0
LINE
  5
11D
  8
0
  6
CONTINUOUS
 62
     7
 10
428.84937775916092
 20
311.27741268768301
 30
0.0
 11
430.84937775916097
 21
311.27741268768301
 31
0.0
  0
LINE
  5
11E
  8
0
  6
CONTINUOUS
 62
     7
 10
430.84937775916097
 20
344.27741268768301
 30
0.0
 11
428.84937775916092
 21
344.27741268768301
 31
0.0
  0
LINE
  5
11F
  8
0
  6
CONTINUOUS
 62
     7
 10
430.84937775916097
 20
345.27741268768301
 30
0.0
 11
428.84937775916092
 21
345.27741268768301
 31
0.0
  0
LINE
  5
120
  8
0
  6
CONTINUOUS
 62
     7
 10
430.84937775916097
 20
343.27741268768301
 30
0.0
 11
428.34937775916092
 21
343.27741268768301
 31
0.0
  0
LINE
  5
121
  8
0
  6
CONTINUOUS
 62
     7
 10
427.84937775916092
 20
313.27741268768301
 30
0.0
 11
430.84937775916097
 21
313.27741268768301
 31
0.0
  0
LINE
  5
122
  8
0
  6
CONTINUOUS
 62
     7
 10
430.84937775916097
 20
346.27741268768301
 30
0.0
 11
428.84937775916092
 21
346.27741268768301
 31
0.0
  0
LINE
  5
123
  8
0
  6
CONTINUOUS
 62
     7
 10
430.84937775916097
 20
347.27741268768301
 30
0.0
 11
428.84937775916092
 21
347.27741268768301
 31
0.0
  0
LINE
  5
124
  8
0
  6
CONTINUOUS
 62
     7
 10
430.84937775916097
 20
348.2774126876829
 30
0.0
 11
427.84937775916092
 21
348.2774126876829
 31
0.0
  0
LINE
  5
125
  8
0
  6
CONTINUOUS
 62
     7
 10
430.84937775916097
 20
349.27741268768301
 30
0.0
 11
428.84937775916092
 21
349.27741268768301
 31
0.0
  0
LINE
  5
126
  8
0
  6
CONTINUOUS
 62
     7
 10
430.84937775916097
 20
350.2774126876829
 30
0.0
 11
428.84937775916092
 21
350.2774126876829
 31
0.0
  0
LINE
  5
127
  8
0
  6
CONTINUOUS
 62
     7
 10
425.84937775916092
 20
285.27741268768301
 30
0.0
 11
430.84937775916097
 21
285.27741268768301
 31
0.0
  0
LINE
  5
128
  8
CENTER
  6
CONTINUOUS
 62
     1
 10
425.84937775916092
 20
287.27741268768301
 30
0.0
 11
430.84937775916097
 21
287.27741268768301
 31
0.0
  0
LINE
  5
129
  8
CENTER
  6
CONTINUOUS
 62
     1
 10
428.34937775916092
 20
284.77741268768301
 30
0.0
 11
428.34937775916092
 21
289.77741268768301
 31
0.0
  0
LINE
  5
12A
  8
0
  6
CONTINUOUS
 62
     7
 10
428.59937775916097
 20
287.52741268768301
 30
0.0
 11
428.59937775916097
 21
288.27741268768301
 31
0.0
  0
LINE
  5
12B
  8
0
  6
CONTINUOUS
 62
     7
 10
429.34937775916092
 20
287.52741268768301
 30
0.0
 11
428.59937775916097
 21
287.52741268768301
 31
0.0
  0
LINE
  5
12C
  8
0
  6
CONTINUOUS
 62
     7
 10
429.34937775916092
 20
287.02741268768301
 30
0.0
 11
429.34937775916092
 21
287.52741268768301
 31
0.0
  0
LINE
  5
12D
  8
0
  6
CONTINUOUS
 62
     7
 10
428.59937775916097
 20
287.02741268768301
 30
0.0
 11
429.34937775916092
 21
287.02741268768301
 31
0.0
  0
LINE
  5
12E
  8
0
  6
CONTINUOUS
 62
     7
 10
428.59937775916097
 20
286.27741268768301
 30
0.0
 11
428.59937775916097
 21
287.02741268768301
 31
0.0
  0
LINE
  5
12F
  8
0
  6
CONTINUOUS
 62
     7
 10
428.09937775916097
 20
286.27741268768301
 30
0.0
 11
428.59937775916097
 21
286.27741268768301
 31
0.0
  0
LINE
  5
130
  8
0
  6
CONTINUOUS
 62
     7
 10
428.09937775916097
 20
287.02741268768301
 30
0.0
 11
428.09937775916097
 21
286.27741268768301
 31
0.0
  0
LINE
  5
131
  8
0
  6
CONTINUOUS
 62
     7
 10
427.34937775916092
 20
287.02741268768301
 30
0.0
 11
428.09937775916097
 21
287.02741268768301
 31
0.0
  0
LINE
  5
132
  8
0
  6
CONTINUOUS
 62
     7
 10
427.34937775916092
 20
287.52741268768301
 30
0.0
 11
427.34937775916092
 21
287.02741268768301
 31
0.0
  0
LINE
  5
133
  8
0
  6
CONTINUOUS
 62
     7
 10
428.09937775916097
 20
287.52741268768301
 30
0.0
 11
427.34937775916092
 21
287.52741268768301
 31
0.0
  0
LINE
  5
134
  8
0
  6
CONTINUOUS
 62
     7
 10
428.09937775916097
 20
288.27741268768301
 30
0.0
 11
428.09937775916097
 21
287.52741268768301
 31
0.0
  0
LINE
  5
135
  8
0
  6
CONTINUOUS
 62
     7
 10
428.59937775916097
 20
288.27741268768301
 30
0.0
 11
428.09937775916097
 21
288.27741268768301
 31
0.0
  0
LINE
  5
136
  8
0
  6
CONTINUOUS
 62
     7
 10
428.84937775916092
 20
306.27741268768301
 30
0.0
 11
430.84937775916097
 21
306.27741268768301
 31
0.0
  0
LINE
  5
137
  8
0
  6
CONTINUOUS
 62
     7
 10
428.84937775916092
 20
307.27741268768301
 30
0.0
 11
430.84937775916097
 21
307.27741268768301
 31
0.0
  0
LINE
  5
138
  8
0
  6
CONTINUOUS
 62
     7
 10
428.34937775916092
 20
308.27741268768301
 30
0.0
 11
430.84937775916097
 21
308.27741268768301
 31
0.0
  0
LINE
  5
139
  8
0
  6
CONTINUOUS
 62
     7
 10
428.84937775916092
 20
309.27741268768301
 30
0.0
 11
430.84937775916097
 21
309.27741268768301
 31
0.0
  0
LINE
  5
13A
  8
0
  6
CONTINUOUS
 62
     7
 10
428.84937775916092
 20
310.27741268768301
 30
0.0
 11
430.84937775916097
 21
310.27741268768301
 31
0.0
  0
LINE
  5
13B
  8
0
  6
CONTINUOUS
 62
     7
 10
428.84937775916092
 20
319.27741268768301
 30
0.0
 11
430.84937775916097
 21
319.27741268768301
 31
0.0
  0
LINE
  5
13C
  8
0
  6
CONTINUOUS
 62
     7
 10
428.84937775916092
 20
314.27741268768301
 30
0.0
 11
430.84937775916097
 21
314.27741268768301
 31
0.0
  0
LINE
  5
13D
  8
0
  6
CONTINUOUS
 62
     7
 10
435.84937775916092
 20
321.99728530044001
 30
0.0
 11
435.84937775916092
 21
318.27741268768301
 31
0.0
  0
LINE
  5
13E
  8
CENTER
  6
CONTINUOUS
 62
     1
 10
435.84937775916092
 20
336.27741268768301
 30
0.0
 11
430.84937775916097
 21
336.27741268768301
 31
0.0
  0
LINE
  5
13F
  8
CENTER
  6
CONTINUOUS
 62
     1
 10
433.34937775916092
 20
333.77741268768301
 30
0.0
 11
433.34937775916092
 21
338.77741268768301
 31
0.0
  0
LINE
  5
140
  8
0
  6
CONTINUOUS
 62
     7
 10
435.84937775916092
 20
338.27741268768301
 30
0.0
 11
435.84937775916092
 21
334.55754007492601
 31
0.0
  0
LINE
  5
141
  8
0
  6
CONTINUOUS
 62
     7
 10
430.84937775916097
 20
325.57741268768302
 30
0.0
 11
432.84937775916092
 21
325.57741268768302
 31
0.0
  0
LINE
  5
142
  8
0
  6
CONTINUOUS
 62
     7
 10
430.84937775916097
 20
326.47741268768192
 30
0.0
 11
432.668581099454
 21
326.47741268768192
 31
0.0
  0
LINE
  5
143
  8
0
  6
CONTINUOUS
 62
     7
 10
430.84937775916097
 20
327.37741268768292
 30
0.0
 11
432.50357357156588
 21
327.37741268768292
 31
0.0
  0
LINE
  5
144
  8
0
  6
CONTINUOUS
 62
     7
 10
430.84937775916097
 20
329.17741268768299
 30
0.0
 11
432.50357357156588
 21
329.17741268768299
 31
0.0
  0
LINE
  5
145
  8
0
  6
CONTINUOUS
 62
     7
 10
432.668581099454
 20
330.07741268768302
 30
0.0
 11
430.84937775916097
 21
330.07741268768302
 31
0.0
  0
LINE
  5
146
  8
0
  6
CONTINUOUS
 62
     7
 10
430.84937775916097
 20
330.97741268768192
 30
0.0
 11
432.84937775916092
 21
330.97741268768192
 31
0.0
  0
LINE
  5
147
  8
0
  6
CONTINUOUS
 62
     7
 10
432.84937775916092
 20
331.87741268768292
 30
0.0
 11
430.84937775916097
 21
331.87741268768292
 31
0.0
  0
LINE
  5
148
  8
0
  6
CONTINUOUS
 62
     7
 10
433.59937775916092
 20
335.27741268768301
 30
0.0
 11
433.59937775916092
 21
336.02741268768301
 31
0.0
  0
LINE
  5
149
  8
0
  6
CONTINUOUS
 62
     7
 10
433.59937775916092
 20
336.02741268768301
 30
0.0
 11
434.34937775916097
 21
336.02741268768301
 31
0.0
  0
LINE
  5
14A
  8
0
  6
CONTINUOUS
 62
     7
 10
434.34937775916097
 20
336.02741268768301
 30
0.0
 11
434.34937775916097
 21
336.52741268768301
 31
0.0
  0
LINE
  5
14B
  8
0
  6
CONTINUOUS
 62
     7
 10
434.34937775916097
 20
336.52741268768301
 30
0.0
 11
433.59937775916092
 21
336.52741268768301
 31
0.0
  0
LINE
  5
14C
  8
0
  6
CONTINUOUS
 62
     7
 10
433.59937775916092
 20
336.52741268768301
 30
0.0
 11
433.59937775916092
 21
337.27741268768301
 31
0.0
  0
LINE
  5
14D
  8
0
  6
CONTINUOUS
 62
     7
 10
433.59937775916092
 20
337.27741268768301
 30
0.0
 11
433.09937775916097
 21
337.27741268768301
 31
0.0
  0
LINE
  5
14E
  8
0
  6
CONTINUOUS
 62
     7
 10
433.09937775916097
 20
337.27741268768301
 30
0.0
 11
433.09937775916097
 21
336.52741268768301
 31
0.0
  0
LINE
  5
14F
  8
0
  6
CONTINUOUS
 62
     7
 10
433.09937775916097
 20
336.52741268768301
 30
0.0
 11
432.34937775916092
 21
336.52741268768301
 31
0.0
  0
LINE
  5
150
  8
0
  6
CONTINUOUS
 62
     7
 10
432.34937775916092
 20
336.52741268768301
 30
0.0
 11
432.34937775916092
 21
336.02741268768301
 31
0.0
  0
LINE
  5
151
  8
0
  6
CONTINUOUS
 62
     7
 10
432.34937775916092
 20
336.02741268768301
 30
0.0
 11
433.09937775916097
 21
336.02741268768301
 31
0.0
  0
LINE
  5
152
  8
0
  6
CONTINUOUS
 62
     7
 10
433.09937775916097
 20
336.02741268768301
 30
0.0
 11
433.09937775916097
 21
335.27741268768301
 31
0.0
  0
LINE
  5
153
  8
0
  6
CONTINUOUS
 62
     7
 10
433.09937775916097
 20
335.27741268768301
 30
0.0
 11
433.59937775916092
 21
335.27741268768301
 31
0.0
  0
LINE
  5
154
  8
0
  6
CONTINUOUS
 62
     7
 10
433.59937775916092
 20
320.52741268768301
 30
0.0
 11
433.59937775916092
 21
321.27741268768301
 31
0.0
  0
LINE
  5
155
  8
0
  6
CONTINUOUS
 62
     7
 10
434.34937775916097
 20
320.52741268768301
 30
0.0
 11
433.59937775916092
 21
320.52741268768301
 31
0.0
  0
LINE
  5
156
  8
0
  6
CONTINUOUS
 62
     7
 10
434.34937775916097
 20
320.02741268768301
 30
0.0
 11
434.34937775916097
 21
320.52741268768301
 31
0.0
  0
LINE
  5
157
  8
0
  6
CONTINUOUS
 62
     7
 10
433.59937775916092
 20
320.02741268768301
 30
0.0
 11
434.34937775916097
 21
320.02741268768301
 31
0.0
  0
LINE
  5
158
  8
0
  6
CONTINUOUS
 62
     7
 10
433.59937775916092
 20
319.27741268768301
 30
0.0
 11
433.59937775916092
 21
320.02741268768301
 31
0.0
  0
LINE
  5
159
  8
0
  6
CONTINUOUS
 62
     7
 10
433.09937775916097
 20
319.27741268768301
 30
0.0
 11
433.59937775916092
 21
319.27741268768301
 31
0.0
  0
LINE
  5
15A
  8
0
  6
CONTINUOUS
 62
     7
 10
433.09937775916097
 20
320.02741268768301
 30
0.0
 11
433.09937775916097
 21
319.27741268768301
 31
0.0
  0
LINE
  5
15B
  8
0
  6
CONTINUOUS
 62
     7
 10
432.34937775916092
 20
320.02741268768301
 30
0.0
 11
433.09937775916097
 21
320.02741268768301
 31
0.0
  0
LINE
  5
15C
  8
0
  6
CONTINUOUS
 62
     7
 10
432.34937775916092
 20
320.52741268768301
 30
0.0
 11
432.34937775916092
 21
320.02741268768301
 31
0.0
  0
LINE
  5
15D
  8
0
  6
CONTINUOUS
 62
     7
 10
433.09937775916097
 20
320.52741268768301
 30
0.0
 11
432.34937775916092
 21
320.52741268768301
 31
0.0
  0
LINE
  5
15E
  8
0
  6
CONTINUOUS
 62
     7
 10
433.09937775916097
 20
321.27741268768301
 30
0.0
 11
433.09937775916097
 21
320.52741268768301
 31
0.0
  0
LINE
  5
15F
  8
0
  6
CONTINUOUS
 62
     7
 10
433.59937775916092
 20
321.27741268768301
 30
0.0
 11
433.09937775916097
 21
321.27741268768301
 31
0.0
  0
LINE
  5
160
  8
CENTER
  6
CONTINUOUS
 62
     1
 10
430.84937775916097
 20
320.27741268768301
 30
0.0
 11
435.84937775916092
 21
320.27741268768301
 31
0.0
  0
LINE
  5
161
  8
CENTER
  6
CONTINUOUS
 62
     1
 10
433.34937775916092
 20
317.77741268768301
 30
0.0
 11
433.34937775916092
 21
322.77741268768301
 31
0.0
  0
LINE
  5
162
  8
0
  6
CONTINUOUS
 62
     7
 10
430.84937775916097
 20
324.67741268768287
 30
0.0
 11
432.84937775916092
 21
324.67741268768287
 31
0.0
  0
LINE
  5
163
  8
0
  6
CONTINUOUS
 62
     7
 10
356.96621901384401
 20
285.27741268768301
 30
0.0
 11
357.95608538402593
 21
285.27741268768301
 31
0.0
  0
LINE
  5
164
  8
0
  6
CONTINUOUS
 62
     7
 10
357.95608538402593
 20
322.77741268768301
 30
0.0
 11
356.96621901384401
 21
322.77741268768301
 31
0.0
  0
LINE
  5
165
  8
0
  6
CONTINUOUS
 62
     7
 10
356.96621901384492
 20
318.77741268768301
 30
0.0
 11
357.95608538402593
 21
318.77741268768301
 31
0.0
  0
LINE
  5
166
  8
0
  6
CONTINUOUS
 62
     7
 10
356.96621901384492
 20
333.77741268768301
 30
0.0
 11
357.95608538402593
 21
333.77741268768301
 31
0.0
  0
LINE
  5
167
  8
0
  6
CONTINUOUS
 62
     7
 10
357.95608538402593
 20
337.7774126876829
 30
0.0
 11
356.96621901384492
 21
337.7774126876829
 31
0.0
  0
LINE
  5
168
  8
0
  6
CONTINUOUS
 62
     7
 10
357.95608538402593
 20
371.27741268768301
 30
0.0
 11
356.96621901384401
 21
371.27741268768301
 31
0.0
  0
LINE
  5
169
  8
0
  6
CONTINUOUS
 62
     7
 10
356.46621901384401
 20
285.27741268768301
 30
0.0
 11
356.96621901384401
 21
285.27741268768301
 31
0.0
  0
LINE
  5
16A
  8
0
  6
CONTINUOUS
 62
     7
 10
356.46621901384401
 20
371.27741268768301
 30
0.0
 11
356.96621901384401
 21
371.27741268768301
 31
0.0
  0
LINE
  5
16B
  8
0
  6
CONTINUOUS
 62
     7
 10
430.84937775916097
 20
342.27741268768301
 30
0.0
 11
428.84937775916092
 21
342.27741268768301
 31
0.0
  0
LINE
  5
16C
  8
0
  6
CONTINUOUS
 62
     7
 10
430.84937775916097
 20
337.27741268768301
 30
0.0
 11
428.84937775916092
 21
337.27741268768301
 31
0.0
  0
LINE
  5
16D
  8
0
  6
CONTINUOUS
 62
     7
 10
359.166219013844
 20
430.79345372261798
 30
0.0
 11
359.166219013844
 21
437.79345372261793
 31
0.0
  0
LINE
  5
16E
  8
0
  6
CONTINUOUS
 62
     7
 10
356.96621901384401
 20
285.27741268768301
 30
0.0
 11
356.96621901384401
 21
371.27741268768301
 31
0.0
  0
LINE
  5
16F
  8
CENTER
  6
CONTINUOUS
 62
     1
 10
311.07622527166899
 20
434.29345372261793
 30
0.0
 11
386.26621901384402
 21
434.29345372261793
 31
0.0
  0
LINE
  5
170
  8
0
  6
CONTINUOUS
 62
     7
 10
314.98059729150498
 20
417.12975041746199
 30
0.0
 11
304.46621901384401
 21
417.12975041746199
 31
0.0
  0
LINE
  5
171
  8
0
  6
CONTINUOUS
 62
     7
 10
314.98059729150498
 20
417.52935210748092
 30
0.0
 11
304.46621901384401
 21
417.52935210748092
 31
0.0
  0
LINE
  5
172
  8
0
  6
CONTINUOUS
 62
     7
 10
314.98059729150498
 20
418.16502659787199
 30
0.0
 11
304.76621901384402
 21
418.16502659787199
 31
0.0
  0
LINE
  5
173
  8
0
  6
CONTINUOUS
 62
     7
 10
314.98059729150498
 20
418.99345372261803
 30
0.0
 11
304.46621901384401
 21
418.99345372261803
 31
0.0
  0
LINE
  5
174
  8
0
  6
CONTINUOUS
 62
     7
 10
314.98059729150498
 20
419.95817754220792
 30
0.0
 11
304.46621901384401
 21
419.95817754220792
 31
0.0
  0
LINE
  5
175
  8
0
  6
CONTINUOUS
 62
     7
 10
314.98059729150498
 20
420.99345372261803
 30
0.0
 11
304.46621901384401
 21
420.99345372261803
 31
0.0
  0
LINE
  5
176
  8
0
  6
CONTINUOUS
 62
     7
 10
314.96621901384401
 20
424.99345372261803
 30
0.0
 11
314.96621901384401
 21
416.99345372261803
 31
0.0
  0
LINE
  5
177
  8
0
  6
CONTINUOUS
 62
     7
 10
304.46621901384401
 20
424.99345372261803
 30
0.0
 11
304.46621901384401
 21
418.46204697919887
 31
0.0
  0
LINE
  5
178
  8
0
  6
CONTINUOUS
 62
     7
 10
304.46621901384401
 20
422.02872990302802
 30
0.0
 11
314.98059729150498
 21
422.02872990302802
 31
0.0
  0
LINE
  5
179
  8
0
  6
CONTINUOUS
 62
     7
 10
304.46621901384401
 20
422.99345372261803
 30
0.0
 11
314.98059729150498
 21
422.99345372261803
 31
0.0
  0
LINE
  5
17A
  8
0
  6
CONTINUOUS
 62
     7
 10
304.46621901384401
 20
423.82188084736492
 30
0.0
 11
314.98059729150498
 21
423.82188084736492
 31
0.0
  0
LINE
  5
17B
  8
0
  6
CONTINUOUS
 62
     7
 10
304.46621901384401
 20
424.45755533775588
 30
0.0
 11
314.98059729150498
 21
424.45755533775588
 31
0.0
  0
LINE
  5
17C
  8
0
  6
CONTINUOUS
 62
     7
 10
304.46621901384401
 20
424.85715702777492
 30
0.0
 11
314.98059729150498
 21
424.85715702777492
 31
0.0
  0
LINE
  5
17D
  8
0
  6
CONTINUOUS
 62
     7
 10
314.96621901384401
 20
328.41370938252601
 30
0.0
 11
304.46621901384401
 21
328.41370938252601
 31
0.0
  0
LINE
  5
17E
  8
0
  6
CONTINUOUS
 62
     7
 10
314.96621901384401
 20
328.81331107254488
 30
0.0
 11
304.46621901384401
 21
328.81331107254488
 31
0.0
  0
LINE
  5
17F
  8
0
  6
CONTINUOUS
 62
     7
 10
314.96621901384401
 20
329.448985562936
 30
0.0
 11
304.46621901384401
 21
329.448985562936
 31
0.0
  0
LINE
  5
180
  8
0
  6
CONTINUOUS
 62
     7
 10
314.96621901384401
 20
330.27741268768301
 30
0.0
 11
304.46621901384401
 21
330.27741268768301
 31
0.0
  0
LINE
  5
181
  8
0
  6
CONTINUOUS
 62
     7
 10
314.96621901384401
 20
331.24213650727302
 30
0.0
 11
304.46621901384401
 21
331.24213650727302
 31
0.0
  0
LINE
  5
182
  8
0
  6
CONTINUOUS
 62
     7
 10
304.46621901384401
 20
332.27741268768301
 30
0.0
 11
314.96621901384401
 21
332.27741268768301
 31
0.0
  0
LINE
  5
183
  8
0
  6
CONTINUOUS
 62
     7
 10
304.46621901384401
 20
333.31268886809301
 30
0.0
 11
314.96621901384401
 21
333.31268886809301
 31
0.0
  0
LINE
  5
184
  8
0
  6
CONTINUOUS
 62
     7
 10
304.46621901384401
 20
334.27741268768301
 30
0.0
 11
314.96621901384401
 21
334.27741268768301
 31
0.0
  0
LINE
  5
185
  8
0
  6
CONTINUOUS
 62
     7
 10
304.76621901384402
 20
335.105839812429
 30
0.0
 11
314.96621901384401
 21
335.105839812429
 31
0.0
  0
LINE
  5
186
  8
0
  6
CONTINUOUS
 62
     7
 10
304.46621901384401
 20
335.74151430281989
 30
0.0
 11
314.96621901384401
 21
335.74151430281989
 31
0.0
  0
LINE
  5
187
  8
0
  6
CONTINUOUS
 62
     7
 10
304.46621901384401
 20
336.14111599283899
 30
0.0
 11
314.96621901384401
 21
336.14111599283899
 31
0.0
  0
LINE
  5
188
  8
0
  6
CONTINUOUS
 62
     7
 10
304.46621901384401
 20
336.27741268768301
 30
0.0
 11
304.46621901384401
 21
335.37450485605092
 31
0.0
  0
LINE
  5
189
  8
0
  6
CONTINUOUS
 62
     7
 10
303.9662190138439
 20
335.7774126876829
 30
0.0
 11
304.46621901384401
 21
336.27741268768301
 31
0.0
  0
LINE
  5
18A
  8
0
  6
CONTINUOUS
 62
     7
 10
304.46621901384401
 20
328.27741268768301
 30
0.0
 11
303.9662190138439
 21
328.77741268768301
 31
0.0
  0
LINE
  5
18B
  8
0
  6
CONTINUOUS
 62
     7
 10
303.9662190138439
 20
335.7774126876829
 30
0.0
 11
303.9662190138439
 21
328.77741268768301
 31
0.0
  0
LINE
  5
18C
  8
0
  6
CONTINUOUS
 62
     7
 10
315.96621901384401
 20
336.27741268768301
 30
0.0
 11
304.46621901384401
 21
336.27741268768301
 31
0.0
  0
LINE
  5
18D
  8
0
  6
CONTINUOUS
 62
     7
 10
314.96621901384401
 20
336.27741268768301
 30
0.0
 11
314.96621901384401
 21
328.27741268768301
 31
0.0
  0
LINE
  5
18E
  8
0
  6
CONTINUOUS
 62
     7
 10
304.46621901384401
 20
328.27741268768301
 30
0.0
 11
315.96621901384401
 21
328.27741268768301
 31
0.0
  0
LINE
  5
18F
  8
0
  6
CONTINUOUS
 62
     7
 10
357.95608538402593
 20
289.27741268768301
 30
0.0
 11
356.96621901384401
 21
289.27741268768301
 31
0.0
  0
LINE
  5
190
  8
0
  6
CONTINUOUS
 62
     7
 10
356.96621901384492
 20
367.27741268768301
 30
0.0
 11
357.95608538402593
 21
367.27741268768301
 31
0.0
  0
LINE
  5
191
  8
0
  6
CONTINUOUS
 62
     7
 10
428.84937775916092
 20
305.27741268768301
 30
0.0
 11
430.84937775916097
 21
305.27741268768301
 31
0.0
  0
LINE
  5
192
  8
0
  6
CONTINUOUS
 62
     7
 10
428.84937775916092
 20
304.27741268768301
 30
0.0
 11
430.84937775916097
 21
304.27741268768301
 31
0.0
  0
LINE
  5
193
  8
0
  6
CONTINUOUS
 62
     7
 10
427.84937775916092
 20
303.27741268768301
 30
0.0
 11
430.84937775916097
 21
303.27741268768301
 31
0.0
  0
LINE
  5
194
  8
0
  6
CONTINUOUS
 62
     7
 10
428.84937775916092
 20
302.27741268768301
 30
0.0
 11
430.84937775916097
 21
302.27741268768301
 31
0.0
  0
LINE
  5
195
  8
0
  6
CONTINUOUS
 62
     7
 10
428.84937775916092
 20
301.27741268768301
 30
0.0
 11
430.84937775916097
 21
301.27741268768301
 31
0.0
  0
LINE
  5
196
  8
0
  6
CONTINUOUS
 62
     7
 10
428.84937775916092
 20
300.2774126876829
 30
0.0
 11
430.84937775916097
 21
300.2774126876829
 31
0.0
  0
LINE
  5
197
  8
0
  6
CONTINUOUS
 62
     7
 10
428.84937775916092
 20
299.27741268768301
 30
0.0
 11
430.84937775916097
 21
299.27741268768301
 31
0.0
  0
LINE
  5
198
  8
0
  6
CONTINUOUS
 62
     7
 10
428.34937775916092
 20
298.2774126876829
 30
0.0
 11
430.84937775916097
 21
298.2774126876829
 31
0.0
  0
LINE
  5
199
  8
0
  6
CONTINUOUS
 62
     7
 10
428.84937775916092
 20
297.27741268768301
 30
0.0
 11
430.84937775916097
 21
297.27741268768301
 31
0.0
  0
LINE
  5
19A
  8
0
  6
CONTINUOUS
 62
     7
 10
428.84937775916092
 20
296.27741268768301
 30
0.0
 11
430.84937775916097
 21
296.27741268768301
 31
0.0
  0
LINE
  5
19B
  8
0
  6
CONTINUOUS
 62
     7
 10
428.84937775916092
 20
295.27741268768301
 30
0.0
 11
430.84937775916097
 21
295.27741268768301
 31
0.0
  0
LINE
  5
19C
  8
0
  6
CONTINUOUS
 62
     7
 10
428.84937775916092
 20
294.27741268768301
 30
0.0
 11
430.84937775916097
 21
294.27741268768301
 31
0.0
  0
LINE
  5
19D
  8
0
  6
CONTINUOUS
 62
     7
 10
427.84937775916092
 20
293.27741268768301
 30
0.0
 11
430.84937775916097
 21
293.27741268768301
 31
0.0
  0
LINE
  5
19E
  8
0
  6
CONTINUOUS
 62
     7
 10
428.84937775916092
 20
292.27741268768301
 30
0.0
 11
430.84937775916097
 21
292.27741268768301
 31
0.0
  0
LINE
  5
19F
  8
0
  6
CONTINUOUS
 62
     7
 10
428.84937775916092
 20
291.27741268768301
 30
0.0
 11
430.84937775916097
 21
291.27741268768301
 31
0.0
  0
LINE
  5
1A0
  8
0
  6
CONTINUOUS
 62
     7
 10
430.84937775916097
 20
351.27741268768301
 30
0.0
 11
428.84937775916092
 21
351.27741268768301
 31
0.0
  0
LINE
  5
1A1
  8
0
  6
CONTINUOUS
 62
     7
 10
430.84937775916097
 20
352.27741268768301
 30
0.0
 11
428.84937775916092
 21
352.27741268768301
 31
0.0
  0
LINE
  5
1A2
  8
0
  6
CONTINUOUS
 62
     7
 10
430.84937775916097
 20
353.27741268768301
 30
0.0
 11
428.34937775916092
 21
353.27741268768301
 31
0.0
  0
LINE
  5
1A3
  8
0
  6
CONTINUOUS
 62
     7
 10
430.84937775916097
 20
354.27741268768301
 30
0.0
 11
428.84937775916092
 21
354.27741268768301
 31
0.0
  0
LINE
  5
1A4
  8
0
  6
CONTINUOUS
 62
     7
 10
430.84937775916097
 20
355.27741268768301
 30
0.0
 11
428.84937775916092
 21
355.27741268768301
 31
0.0
  0
LINE
  5
1A5
  8
0
  6
CONTINUOUS
 62
     7
 10
430.84937775916097
 20
328.27741268768301
 30
0.0
 11
427.84937775916092
 21
328.27741268768301
 31
0.0
  0
LINE
  5
1A6
  8
0
  6
CONTINUOUS
 62
     7
 10
430.84937775916097
 20
373.2774126876829
 30
0.0
 11
430.84937775916097
 21
283.2774126876829
 31
0.0
  0
LINE
  5
1A7
  8
CENTER
  6
CONTINUOUS
 62
     1
 10
417.84937775916097
 20
328.27741268768301
 30
0.0
 11
457.34937775916092
 21
328.27741268768301
 31
0.0
  0
LINE
  5
1A8
  8
CENTER
  6
CONTINUOUS
 62
     1
 10
320.96621901384401
 20
328.27741268768301
 30
0.0
 11
386.26621901384402
 21
328.27741268768301
 31
0.0
  0
LINE
  5
1A9
  8
CENTER
  6
CONTINUOUS
 62
     1
 10
301.96621901384401
 20
332.27741268768301
 30
0.0
 11
317.46621901384401
 21
332.27741268768301
 31
0.0
  0
LINE
  5
1AA
  8
CENTER
  6
CONTINUOUS
 62
     1
 10
320.96621901384401
 20
368.27741268768301
 30
0.0
 11
351.96621901384401
 21
368.27741268768301
 31
0.0
  0
LINE
  5
1AB
  8
CENTER
  6
CONTINUOUS
 62
     1
 10
320.96621901384401
 20
308.27741268768301
 30
0.0
 11
351.96621901384401
 21
308.27741268768301
 31
0.0
  0
LINE
  5
1AC
  8
CENTER
  6
CONTINUOUS
 62
     1
 10
320.96621901384401
 20
348.2774126876829
 30
0.0
 11
351.96621901384401
 21
348.2774126876829
 31
0.0
  0
LINE
  5
1AD
  8
CENTER
  6
CONTINUOUS
 62
     1
 10
323.96621901384401
 20
371.27741268768301
 30
0.0
 11
323.96621901384401
 21
285.27741268768301
 31
0.0
  0
LINE
  5
1AE
  8
CENTER
  6
CONTINUOUS
 62
     1
 10
348.96621901384401
 20
285.27741268768301
 30
0.0
 11
348.96621901384401
 21
371.27741268768301
 31
0.0
  0
LINE
  5
1AF
  8
0
  6
CONTINUOUS
 62
     7
 10
356.96621901384401
 20
425.19345372261802
 30
0.0
 11
316.4662190138439
 21
425.19345372261802
 31
0.0
  0
LINE
  5
1B0
  8
CENTER
  6
CONTINUOUS
 62
     1
 10
258.08306026852688
 20
231.27741268768301
 30
0.0
 11
258.08306026852688
 21
242.77741268768301
 31
0.0
  0
LINE
  5
1B1
  8
0
  6
CONTINUOUS
 62
     7
 10
225.58306026852699
 20
233.27741268768301
 30
0.0
 11
265.58306026852699
 21
233.27741268768301
 31
0.0
  0
LINE
  5
1B2
  8
0
  6
CONTINUOUS
 62
     7
 10
225.58306026852699
 20
373.2774126876829
 30
0.0
 11
225.58306026852699
 21
233.27741268768301
 31
0.0
  0
LINE
  5
1B3
  8
0
  6
CONTINUOUS
 62
     7
 10
233.08306026852691
 20
373.2774126876829
 30
0.0
 11
233.08306026852691
 21
245.77741268768301
 31
0.0
  0
LINE
  5
1B4
  8
0
  6
CONTINUOUS
 62
     7
 10
225.58306026852699
 20
240.77741268768301
 30
0.0
 11
265.58306026852699
 21
240.77741268768301
 31
0.0
  0
LINE
  5
1B5
  8
0
  6
CONTINUOUS
 62
     7
 10
265.58306026852699
 20
240.77741268768301
 30
0.0
 11
265.58306026852699
 21
233.27741268768301
 31
0.0
  0
LINE
  5
1B6
  8
0
  6
CONTINUOUS
 62
     7
 10
247.03306026852701
 20
297.27741268768187
 30
0.0
 11
246.5330602685269
 21
297.27741268768187
 31
0.0
  0
LINE
  5
1B7
  8
0
  6
CONTINUOUS
 62
     7
 10
247.03306026852701
 20
296.52741268768199
 30
0.0
 11
247.03306026852701
 21
297.27741268768187
 31
0.0
  0
LINE
  5
1B8
  8
0
  6
CONTINUOUS
 62
     7
 10
247.78306026852701
 20
296.52741268768199
 30
0.0
 11
247.03306026852701
 21
296.52741268768199
 31
0.0
  0
LINE
  5
1B9
  8
0
  6
CONTINUOUS
 62
     7
 10
247.78306026852701
 20
296.02741268768187
 30
0.0
 11
247.78306026852701
 21
296.52741268768199
 31
0.0
  0
LINE
  5
1BA
  8
0
  6
CONTINUOUS
 62
     7
 10
247.03306026852701
 20
296.02741268768187
 30
0.0
 11
247.78306026852701
 21
296.02741268768187
 31
0.0
  0
LINE
  5
1BB
  8
0
  6
CONTINUOUS
 62
     7
 10
247.03306026852701
 20
295.27741268768187
 30
0.0
 11
247.03306026852701
 21
296.02741268768187
 31
0.0
  0
LINE
  5
1BC
  8
0
  6
CONTINUOUS
 62
     7
 10
246.5330602685269
 20
295.27741268768187
 30
0.0
 11
247.03306026852701
 21
295.27741268768187
 31
0.0
  0
LINE
  5
1BD
  8
0
  6
CONTINUOUS
 62
     7
 10
245.78306026852701
 20
296.02741268768187
 30
0.0
 11
246.5330602685269
 21
296.02741268768187
 31
0.0
  0
LINE
  5
1BE
  8
0
  6
CONTINUOUS
 62
     7
 10
245.78306026852701
 20
296.52741268768199
 30
0.0
 11
245.78306026852701
 21
296.02741268768187
 31
0.0
  0
LINE
  5
1BF
  8
0
  6
CONTINUOUS
 62
     7
 10
246.5330602685269
 20
296.52741268768199
 30
0.0
 11
245.78306026852701
 21
296.52741268768199
 31
0.0
  0
LINE
  5
1C0
  8
0
  6
CONTINUOUS
 62
     7
 10
246.5330602685269
 20
297.27741268768187
 30
0.0
 11
246.5330602685269
 21
296.52741268768199
 31
0.0
  0
LINE
  5
1C1
  8
CENTER
  6
CONTINUOUS
 62
     1
 10
244.2830602685269
 20
296.27741268768187
 30
0.0
 11
249.28306026852701
 21
296.27741268768187
 31
0.0
  0
LINE
  5
1C2
  8
CENTER
  6
CONTINUOUS
 62
     1
 10
246.78306026852701
 20
298.77741268768199
 30
0.0
 11
246.78306026852701
 21
293.77741268768187
 31
0.0
  0
LINE
  5
1C3
  8
CENTER
  6
CONTINUOUS
 62
     1
 10
239.98306026852691
 20
333.86435319659699
 30
0.0
 11
239.98306026852691
 21
322.86435319659688
 31
0.0
  0
LINE
  5
1C4
  8
CENTER
  6
CONTINUOUS
 62
     1
 10
253.28306026852701
 20
337.27741268768187
 30
0.0
 11
253.28306026852701
 21
327.27741268768301
 31
0.0
  0
LINE
  5
1C5
  8
CENTER
  6
CONTINUOUS
 62
     1
 10
258.28306026852601
 20
332.27741268768301
 30
0.0
 11
248.28306026852701
 21
332.27741268768301
 31
0.0
  0
LINE
  5
1C6
  8
0
  6
CONTINUOUS
 62
     7
 10
246.5330602685269
 20
368.02741268768301
 30
0.0
 11
246.5330602685269
 21
367.27741268768301
 31
0.0
  0
LINE
  5
1C7
  8
0
  6
CONTINUOUS
 62
     7
 10
245.78306026852701
 20
368.02741268768301
 30
0.0
 11
246.5330602685269
 21
368.02741268768301
 31
0.0
  0
LINE
  5
1C8
  8
0
  6
CONTINUOUS
 62
     7
 10
245.78306026852701
 20
368.52741268768301
 30
0.0
 11
245.78306026852701
 21
368.02741268768301
 31
0.0
  0
LINE
  5
1C9
  8
0
  6
CONTINUOUS
 62
     7
 10
246.5330602685269
 20
368.52741268768301
 30
0.0
 11
245.78306026852701
 21
368.52741268768301
 31
0.0
  0
LINE
  5
1CA
  8
0
  6
CONTINUOUS
 62
     7
 10
246.5330602685269
 20
369.27741268768301
 30
0.0
 11
246.5330602685269
 21
368.52741268768301
 31
0.0
  0
LINE
  5
1CB
  8
0
  6
CONTINUOUS
 62
     7
 10
247.03306026852701
 20
369.27741268768301
 30
0.0
 11
246.5330602685269
 21
369.27741268768301
 31
0.0
  0
LINE
  5
1CC
  8
0
  6
CONTINUOUS
 62
     7
 10
247.03306026852701
 20
368.52741268768301
 30
0.0
 11
247.03306026852701
 21
369.27741268768301
 31
0.0
  0
LINE
  5
1CD
  8
0
  6
CONTINUOUS
 62
     7
 10
247.78306026852701
 20
368.52741268768301
 30
0.0
 11
247.03306026852701
 21
368.52741268768301
 31
0.0
  0
LINE
  5
1CE
  8
0
  6
CONTINUOUS
 62
     7
 10
247.78306026852701
 20
368.02741268768301
 30
0.0
 11
247.78306026852701
 21
368.52741268768301
 31
0.0
  0
LINE
  5
1CF
  8
0
  6
CONTINUOUS
 62
     7
 10
247.03306026852701
 20
368.02741268768301
 30
0.0
 11
247.78306026852701
 21
368.02741268768301
 31
0.0
  0
LINE
  5
1D0
  8
0
  6
CONTINUOUS
 62
     7
 10
247.03306026852701
 20
367.27741268768301
 30
0.0
 11
247.03306026852701
 21
368.02741268768301
 31
0.0
  0
LINE
  5
1D1
  8
0
  6
CONTINUOUS
 62
     7
 10
246.5330602685269
 20
367.27741268768301
 30
0.0
 11
247.03306026852701
 21
367.27741268768301
 31
0.0
  0
LINE
  5
1D2
  8
CENTER
  6
CONTINUOUS
 62
     1
 10
249.28306026852701
 20
368.27741268768301
 30
0.0
 11
244.2830602685269
 21
368.27741268768301
 31
0.0
  0
LINE
  5
1D3
  8
CENTER
  6
CONTINUOUS
 62
     1
 10
246.78306026852701
 20
370.77741268768301
 30
0.0
 11
246.78306026852701
 21
365.77741268768301
 31
0.0
  0
LINE
  5
1D4
  8
0
  6
CONTINUOUS
 62
     7
 10
233.08306026852691
 20
283.2774126876829
 30
0.0
 11
259.08306026852699
 21
283.2774126876829
 31
0.0
  0
LINE
  5
1D5
  8
0
  6
CONTINUOUS
 62
     7
 10
225.58306026852699
 20
373.2774126876829
 30
0.0
 11
259.08306026852699
 21
373.2774126876829
 31
0.0
  0
LINE
  5
1D6
  8
0
  6
CONTINUOUS
 62
     7
 10
249.08306026852699
 20
373.2774126876829
 30
0.0
 11
249.08306026852699
 21
370.77741268768301
 31
0.0
  0
LINE
  5
1D7
  8
0
  6
CONTINUOUS
 62
     7
 10
249.08306026852699
 20
293.77741268768187
 30
0.0
 11
249.08306026852699
 21
283.2774126876829
 31
0.0
  0
LINE
  5
1D8
  8
0
  6
CONTINUOUS
 62
     7
 10
251.6830602685269
 20
328.61135213171792
 30
0.0
 11
251.6830602685269
 21
297.27741268768187
 31
0.0
  0
LINE
  5
1D9
  8
0
  6
CONTINUOUS
 62
     7
 10
254.883060268527
 20
335.94347324364702
 30
0.0
 11
254.883060268527
 21
367.27741268768301
 31
0.0
  0
LINE
  5
1DA
  8
0
  6
CONTINUOUS
 62
     7
 10
257.28306026852692
 20
370.77741268768301
 30
0.0
 11
257.28306026852692
 21
293.77741268768187
 31
0.0
  0
LINE
  5
1DB
  8
0
  6
CONTINUOUS
 62
     7
 10
251.6830602685269
 20
367.27741268768301
 30
0.0
 11
251.6830602685269
 21
335.94347324364702
 31
0.0
  0
LINE
  5
1DC
  8
0
  6
CONTINUOUS
 62
     7
 10
254.883060268527
 20
297.27741268768187
 30
0.0
 11
254.883060268527
 21
328.61135213171792
 31
0.0
  0
LINE
  5
1DD
  8
0
  6
CONTINUOUS
 62
     7
 10
244.78306026852701
 20
293.77741268768187
 30
0.0
 11
244.78306026852701
 21
370.77741268768301
 31
0.0
  0
LINE
  5
1DE
  8
0
  6
CONTINUOUS
 62
     7
 10
257.28306026852692
 20
293.77741268768187
 30
0.0
 11
244.78306026852701
 21
293.77741268768187
 31
0.0
  0
LINE
  5
1DF
  8
CENTER
  6
CONTINUOUS
 62
     1
 10
253.28306026852701
 20
328.77741268768301
 30
0.0
 11
253.28306026852701
 21
327.27741268768301
 31
0.0
  0
LINE
  5
1E0
  8
0
  6
CONTINUOUS
 62
     7
 10
259.08306026852699
 20
373.2774126876829
 30
0.0
 11
259.08306026852699
 21
283.2774126876829
 31
0.0
  0
LINE
  5
1E1
  8
0
  6
CONTINUOUS
 62
     7
 10
240.383060268527
 20
332.84654016280001
 30
0.0
 11
240.383060268527
 21
323.88216623039392
 31
0.0
  0
LINE
  5
1E2
  8
0
  6
CONTINUOUS
 62
     7
 10
239.58306026852691
 20
323.88216623039392
 30
0.0
 11
239.58306026852691
 21
332.84654016280001
 31
0.0
  0
LINE
  5
1E3
  8
0
  6
CONTINUOUS
 62
     7
 10
257.28306026852692
 20
370.77741268768301
 30
0.0
 11
244.78306026852701
 21
370.77741268768301
 31
0.0
  0
LINE
  5
1E4
  8
0
  6
CONTINUOUS
 62
     7
 10
246.5330602685269
 20
296.02741268768187
 30
0.0
 11
246.5330602685269
 21
295.27741268768187
 31
0.0
  0
LINE
  5
1E5
  8
CENTER
  6
CONTINUOUS
 62
     1
 10
222.58306026852691
 20
328.36435319659699
 30
0.0
 11
262.08306026852688
 21
328.36435319659699
 31
0.0
  0
LINE
  5
1E6
  8
CENTER
  6
CONTINUOUS
 62
     1
 10
248.05872167674201
 20
412.9434537226179
 30
0.0
 11
248.05872167674201
 21
419.44345372261802
 31
0.0
  0
LINE
  5
1E7
  8
CENTER
  6
CONTINUOUS
 62
     1
 10
223.05872167674201
 20
412.9434537226179
 30
0.0
 11
223.05872167674201
 21
419.44345372261802
 31
0.0
  0
LINE
  5
1E8
  8
0
  6
CONTINUOUS
 62
     7
 10
215.55872167674201
 20
413.94345372261802
 30
0.0
 11
223.05872167674201
 21
413.94345372261802
 31
0.0
  0
LINE
  5
1E9
  8
0
  6
CONTINUOUS
 62
     7
 10
223.05872167674201
 20
418.44345372261802
 30
0.0
 11
215.55872167674201
 21
418.44345372261802
 31
0.0
  0
LINE
  5
1EA
  8
0
  6
CONTINUOUS
 62
     7
 10
248.05872167674201
 20
413.94345372261802
 30
0.0
 11
255.55872167674201
 21
413.94345372261802
 31
0.0
  0
LINE
  5
1EB
  8
0
  6
CONTINUOUS
 62
     7
 10
255.55872167674201
 20
418.44345372261802
 30
0.0
 11
248.05872167674201
 21
418.44345372261802
 31
0.0
  0
LINE
  5
1EC
  8
CENTER
  6
CONTINUOUS
 62
     1
 10
215.55872167674201
 20
412.9434537226179
 30
0.0
 11
215.55872167674201
 21
419.44345372261802
 31
0.0
  0
LINE
  5
1ED
  8
CENTER
  6
CONTINUOUS
 62
     1
 10
226.30872167674201
 20
416.19345372261802
 30
0.0
 11
212.3087216767419
 21
416.19345372261802
 31
0.0
  0
LINE
  5
1EE
  8
CENTER
  6
CONTINUOUS
 62
     1
 10
258.80872167674192
 20
416.19345372261802
 30
0.0
 11
244.80872167674201
 21
416.19345372261802
 31
0.0
  0
LINE
  5
1EF
  8
CENTER
  6
CONTINUOUS
 62
     1
 10
255.55872167674201
 20
412.9434537226179
 30
0.0
 11
255.55872167674201
 21
419.44345372261802
 31
0.0
  0
LINE
  5
1F0
  8
0
  6
CONTINUOUS
 62
     7
 10
260.55872167674192
 20
408.69345372261802
 30
0.0
 11
210.55872167674201
 21
408.69345372261802
 31
0.0
  0
LINE
  5
1F1
  8
CENTER
  6
CONTINUOUS
 62
     1
 10
235.55872167674201
 20
404.69345372261802
 30
0.0
 11
235.55872167674201
 21
452.69345372261802
 31
0.0
  0
LINE
  5
1F2
  8
0
  6
CONTINUOUS
 62
     7
 10
210.55872167674201
 20
408.69345372261802
 30
0.0
 11
210.55872167674201
 21
448.69345372261802
 31
0.0
  0
LINE
  5
1F3
  8
0
  6
CONTINUOUS
 62
     7
 10
260.55872167674192
 20
408.69345372261802
 30
0.0
 11
260.55872167674192
 21
448.69345372261802
 31
0.0
  0
LINE
  5
1F4
  8
0
  6
CONTINUOUS
 62
     7
 10
210.55872167674201
 20
448.69345372261802
 30
0.0
 11
215.55872167674201
 21
448.69345372261802
 31
0.0
  0
LINE
  5
1F5
  8
0
  6
CONTINUOUS
 62
     7
 10
255.55872167674201
 20
441.19345372261802
 30
0.0
 11
215.55872167674201
 21
441.19345372261802
 31
0.0
  0
LINE
  5
1F6
  8
0
  6
CONTINUOUS
 62
     7
 10
215.55872167674201
 20
441.19345372261802
 30
0.0
 11
215.55872167674201
 21
448.69345372261802
 31
0.0
  0
LINE
  5
1F7
  8
0
  6
CONTINUOUS
 62
     7
 10
255.55872167674201
 20
448.69345372261802
 30
0.0
 11
255.55872167674201
 21
441.19345372261802
 31
0.0
  0
LINE
  5
1F8
  8
0
  6
CONTINUOUS
 62
     7
 10
255.55872167674201
 20
448.69345372261802
 30
0.0
 11
260.55872167674192
 21
448.69345372261802
 31
0.0
  0
LINE
  5
1F9
  8
0
  6
CONTINUOUS
 62
     7
 10
215.55872167674201
 20
448.69345372261802
 30
0.0
 11
255.55872167674201
 21
448.69345372261802
 31
0.0
  0
LINE
  5
1FA
  8
0
  6
CONTINUOUS
 62
     7
 10
430.84937775916097
 20
332.27741268768301
 30
0.0
 11
428.84937775916092
 21
332.27741268768301
 31
0.0
  0
LINE
  5
1FB
  8
0
  6
CONTINUOUS
 62
     7
 10
430.84937775916097
 20
323.77741268768301
 30
0.0
 11
433.84937775916092
 21
323.77741268768301
 31
0.0
  0
LINE
  5
1FC
  8
0
  6
CONTINUOUS
 62
     7
 10
430.84937775916097
 20
328.27741268768301
 30
0.0
 11
432.449377759161
 21
328.27741268768301
 31
0.0
  0
LINE
  5
1FD
  8
0
  6
CONTINUOUS
 62
     7
 10
315.40789874233201
 20
323.86435319659699
 30
0.0
 11
315.96621901384401
 21
323.86435319659699
 31
0.0
  0
LINE
  5
1FE
  8
0
  6
CONTINUOUS
 62
     7
 10
315.40789874233201
 20
323.86435319659699
 30
0.0
 11
315.40789874233201
 21
328.27741268768301
 31
0.0
  0
LINE
  5
1FF
  8
0
  6
CONTINUOUS
 62
     7
 10
256.380152436895
 20
334.80881943110188
 30
0.0
 11
250.75165352510689
 21
329.18032051931402
 31
0.0
  0
LINE
  5
200
  8
0
  6
CONTINUOUS
 62
     7
 10
250.18596810015799
 20
329.74600594426289
 30
0.0
 11
255.81446701194591
 21
335.37450485605092
 31
0.0
  0
LINE
  5
201
  8
0
  6
CONTINUOUS
 62
     7
 10
303.9662190138439
 20
335.37450485605092
 30
0.0
 11
304.76621901384402
 21
335.37450485605092
 31
0.0
  0
LINE
  5
202
  8
0
  6
CONTINUOUS
 62
     7
 10
304.76621901384402
 20
335.37450485605092
 30
0.0
 11
304.76621901384402
 21
334.80881943110188
 31
0.0
  0
LINE
  5
203
  8
0
  6
CONTINUOUS
 62
     7
 10
304.76621901384402
 20
334.80881943110188
 30
0.0
 11
303.9662190138439
 21
334.80881943110188
 31
0.0
  0
LINE
  5
204
  8
0
  6
CONTINUOUS
 62
     7
 10
304.46621901384401
 20
334.80881943110188
 30
0.0
 11
304.46621901384401
 21
328.27741268768301
 31
0.0
  0
LINE
  5
205
  8
0
  6
CONTINUOUS
 62
     7
 10
303.9662190138439
 20
418.46204697919887
 30
0.0
 11
304.76621901384402
 21
418.46204697919887
 31
0.0
  0
LINE
  5
206
  8
0
  6
CONTINUOUS
 62
     7
 10
304.76621901384402
 20
418.46204697919887
 30
0.0
 11
304.76621901384402
 21
417.89636155425001
 31
0.0
  0
LINE
  5
207
  8
0
  6
CONTINUOUS
 62
     7
 10
304.76621901384402
 20
417.89636155425001
 30
0.0
 11
303.9662190138439
 21
417.89636155425001
 31
0.0
  0
LINE
  5
208
  8
0
  6
CONTINUOUS
 62
     7
 10
304.46621901384401
 20
417.89636155425001
 30
0.0
 11
304.46621901384401
 21
416.99345372261803
 31
0.0
  0
ARC
  5
209
  8
0
  6
CONTINUOUS
 62
     7
 10
348.96621901384401
 20
416.19345372261802
 30
0.0
 40
2.25
 50
-153.61220003875701
 51
-90.0
  0
ARC
  5
20A
  8
0
  6
CONTINUOUS
 62
     7
 10
356.46621901384401
 20
416.19345372261802
 30
0.0
 40
2.25
 50
-90.0
 51
90.0
  0
ARC
  5
20B
  8
0
  6
CONTINUOUS
 62
     7
 10
316.4662190138439
 20
416.19345372261802
 30
0.0
 40
2.25
 50
159.172503067984
 51
-90.0
  0
ARC
  5
20C
  8
0
  6
CONTINUOUS
 62
     7
 10
323.96621901384401
 20
416.19345372261802
 30
0.0
 40
2.25
 50
-90.0
 51
-26.387799961241001
  0
ARC
  5
20D
  8
0
  6
CONTINUOUS
 62
     7
 10
318.72121795384697
 20
296.27741268768102
 30
0.0
 40
4.354998940003
 50
154.3283545098119
 51
-154.3283545098169
  0
ARC
  5
20E
  8
0
  6
CONTINUOUS
 62
     7
 10
318.72121795384697
 20
368.27741268768301
 30
0.0
 40
4.354998940003
 50
154.32835450981901
 51
-154.32835450981091
  0
ARC
  5
20F
  8
0
  6
CONTINUOUS
 62
     7
 10
375.76621901384402
 20
328.27741268768301
 30
0.0
 40
8.5
 50
-28.072486935853
 51
28.072486935853
  0
ARC
  5
210
  8
0
  6
CONTINUOUS
 62
     7
 10
318.72121795384697
 20
427.49345372261791
 30
0.0
 40
4.354998940003
 50
154.3283545098169
 51
-154.3283545098169
  0
ARC
  5
211
  8
0
  6
CONTINUOUS
 62
     7
 10
354.21122007384088
 20
422.6934537226179
 30
0.0
 40
4.354998940003
 50
-25.671645490183
 51
25.671645490181
  0
ARC
  5
212
  8
0
  6
CONTINUOUS
 62
     7
 10
354.21122007384088
 20
427.69345372261802
 30
0.0
 40
4.354998940003
 50
-25.671645490184989
 51
25.671645490181
  0
ARC
  5
213
  8
0
  6
CONTINUOUS
 62
     7
 10
375.76621901384402
 20
434.29345372261793
 30
0.0
 40
8.5
 50
-28.072486935853
 51
-2.697268133936999
  0
ARC
  5
214
  8
0
  6
CONTINUOUS
 62
     7
 10
375.76621901384402
 20
434.29345372261793
 30
0.0
 40
8.5
 50
2.697268133936999
 51
28.072486935853
  0
ARC
  5
215
  8
0
  6
CONTINUOUS
 62
     7
 10
322.06621901384398
 20
434.29345372261793
 30
0.0
 40
8.0
 50
-177.13401601740091
 51
-145.771133672188
  0
ARC
  5
216
  8
0
  6
CONTINUOUS
 62
     7
 10
322.06621901384398
 20
434.29345372261793
 30
0.0
 40
8.0
 50
145.77113367218701
 51
177.13401601740091
  0
ARC
  5
217
  8
0
  6
CONTINUOUS
 62
     7
 10
322.08059729150602
 20
328.27741268768301
 30
0.0
 40
8.0
 50
180.0
 51
-146.52092284044201
  0
ARC
  5
218
  8
0
  6
CONTINUOUS
 62
     7
 10
354.21122007384088
 20
320.77741268768301
 30
0.0
 40
4.354998940003
 50
-25.671645490181
 51
25.671645490184002
  0
ARC
  5
219
  8
0
  6
CONTINUOUS
 62
     7
 10
354.21122007384088
 20
335.7774126876829
 30
0.0
 40
4.354998940003
 50
-25.671645490184002
 51
25.671645490180001
  0
ARC
  5
21A
  8
0
  6
CONTINUOUS
 62
     7
 10
354.21122007384088
 20
287.27741268768301
 30
0.0
 40
4.354998940003
 50
-25.671645490181
 51
25.671645490184002
  0
ARC
  5
21B
  8
0
  6
CONTINUOUS
 62
     7
 10
354.21122007384088
 20
369.27741268768301
 30
0.0
 40
4.354998940003
 50
-25.671645490181
 51
25.671645490181
  0
ARC
  5
21C
  8
0
  6
CONTINUOUS
 62
     7
 10
253.28306026852701
 20
367.27741268768301
 30
0.0
 40
1.6000000000000001
 50
-0.000000000004
 51
180.0
  0
ARC
  5
21D
  8
0
  6
CONTINUOUS
 62
     7
 10
253.28306026852701
 20
297.27741268768187
 30
0.0
 40
1.6000000000000001
 50
180.0
 51
0.0
  0
ARC
  5
21E
  8
0
  6
CONTINUOUS
 62
     7
 10
215.55872167674201
 20
416.19345372261802
 30
0.0
 40
2.25
 50
90.0
 51
-90.0
  0
ARC
  5
21F
  8
0
  6
CONTINUOUS
 62
     7
 10
223.05872167674201
 20
416.19345372261802
 30
0.0
 40
2.25
 50
-90.0
 51
90.0
  0
ARC
  5
220
  8
0
  6
CONTINUOUS
 62
     7
 10
255.55872167674201
 20
416.19345372261802
 30
0.0
 40
2.25
 50
-90.0
 51
90.0
  0
ARC
  5
221
  8
0
  6
CONTINUOUS
 62
     7
 10
248.05872167674201
 20
416.19345372261802
 30
0.0
 40
2.25
 50
90.0
 51
-90.0
  0
ARC
  5
222
  8
0
  6
CONTINUOUS
 62
     7
 10
253.28306026852701
 20
332.27741268768301
 30
0.0
 40
3.5
 50
-90.0
 51
38.437572131365002
  0
ARC
  5
223
  8
0
  6
CONTINUOUS
 62
     7
 10
253.28306026852701
 20
332.27741268768301
 30
0.0
 40
3.5
 50
-128.4375721313649
 51
-90.0
  0
ARC
  5
224
  8
0
  6
CONTINUOUS
 62
     7
 10
253.28306026852701
 20
332.27741268768301
 30
0.0
 40
3.5
 50
51.562427868634998
 51
-141.56242786863501
  0
CIRCLE
  5
225
  8
0
  6
CONTINUOUS
 62
     7
 10
439.949377759161
 20
328.27741268768301
 30
0.0
 40
4.0
  0
CIRCLE
  5
226
  8
0
  6
CONTINUOUS
 62
     7
 10
439.949377759161
 20
328.27741268768301
 30
0.0
 40
7.2000000000000002
  0
CIRCLE
  5
227
  8
0
  6
CONTINUOUS
 62
     7
 10
428.34937775916092
 20
369.27741268768301
 30
0.0
 40
2.0
  0
CIRCLE
  5
228
  8
0
  6
CONTINUOUS
 62
     7
 10
428.34937775916092
 20
287.27741268768301
 30
0.0
 40
2.0
  0
CIRCLE
  5
229
  8
0
  6
CONTINUOUS
 62
     7
 10
433.34937775916092
 20
336.27741268768301
 30
0.0
 40
2.0
  0
CIRCLE
  5
22A
  8
0
  6
CONTINUOUS
 62
     7
 10
433.34937775916092
 20
320.27741268768301
 30
0.0
 40
2.0
  0
CIRCLE
  5
22B
  8
0
  6
CONTINUOUS
 62
     7
 10
348.96621901384401
 20
348.2774126876829
 30
0.0
 40
1.6200000000000001
  0
CIRCLE
  5
22C
  8
0
  6
CONTINUOUS
 62
     7
 10
348.96621901384401
 20
348.2774126876829
 30
0.0
 40
2.0
  0
CIRCLE
  5
22D
  8
0
  6
CONTINUOUS
 62
     7
 10
323.96621901384401
 20
348.2774126876829
 30
0.0
 40
1.6200000000000001
  0
CIRCLE
  5
22E
  8
0
  6
CONTINUOUS
 62
     7
 10
323.96621901384401
 20
348.2774126876829
 30
0.0
 40
2.0
  0
CIRCLE
  5
22F
  8
0
  6
CONTINUOUS
 62
     7
 10
323.96621901384401
 20
328.27741268768301
 30
0.0
 40
1.6200000000000001
  0
CIRCLE
  5
230
  8
0
  6
CONTINUOUS
 62
     7
 10
323.96621901384401
 20
328.27741268768301
 30
0.0
 40
2.0
  0
CIRCLE
  5
231
  8
0
  6
CONTINUOUS
 62
     7
 10
348.96621901384401
 20
328.27741268768301
 30
0.0
 40
1.6200000000000001
  0
CIRCLE
  5
232
  8
0
  6
CONTINUOUS
 62
     7
 10
348.96621901384401
 20
328.27741268768301
 30
0.0
 40
2.0
  0
CIRCLE
  5
233
  8
0
  6
CONTINUOUS
 62
     7
 10
348.96621901384401
 20
288.27741268768301
 30
0.0
 40
1.6200000000000001
  0
CIRCLE
  5
234
  8
0
  6
CONTINUOUS
 62
     7
 10
348.96621901384401
 20
288.27741268768301
 30
0.0
 40
2.0
  0
CIRCLE
  5
235
  8
0
  6
CONTINUOUS
 62
     7
 10
323.96621901384401
 20
288.27741268768301
 30
0.0
 40
1.6200000000000001
  0
CIRCLE
  5
236
  8
0
  6
CONTINUOUS
 62
     7
 10
323.96621901384401
 20
288.27741268768301
 30
0.0
 40
2.0
  0
CIRCLE
  5
237
  8
0
  6
CONTINUOUS
 62
     7
 10
323.96621901384401
 20
368.27741268768301
 30
0.0
 40
2.0
  0
CIRCLE
  5
238
  8
0
  6
CONTINUOUS
 62
     7
 10
323.96621901384401
 20
368.27741268768301
 30
0.0
 40
1.6200000000000001
  0
CIRCLE
  5
239
  8
0
  6
CONTINUOUS
 62
     7
 10
348.96621901384401
 20
368.27741268768301
 30
0.0
 40
2.0
  0
CIRCLE
  5
23A
  8
0
  6
CONTINUOUS
 62
     7
 10
348.96621901384401
 20
368.27741268768301
 30
0.0
 40
1.6200000000000001
  0
CIRCLE
  5
23B
  8
0
  6
CONTINUOUS
 62
     7
 10
323.96621901384401
 20
308.27741268768301
 30
0.0
 40
2.0
  0
CIRCLE
  5
23C
  8
0
  6
CONTINUOUS
 62
     7
 10
323.96621901384401
 20
308.27741268768301
 30
0.0
 40
1.6200000000000001
  0
CIRCLE
  5
23D
  8
0
  6
CONTINUOUS
 62
     7
 10
348.96621901384401
 20
308.27741268768301
 30
0.0
 40
2.0
  0
CIRCLE
  5
23E
  8
0
  6
CONTINUOUS
 62
     7
 10
348.96621901384401
 20
308.27741268768301
 30
0.0
 40
1.6200000000000001
  0
CIRCLE
  5
23F
  8
0
  6
CONTINUOUS
 62
     7
 10
439.949377759161
 20
328.27741268768301
 30
0.0
 40
7.5
  0
CIRCLE
  5
240
  8
0
  6
CONTINUOUS
 62
     7
 10
246.78306026852701
 20
296.27741268768187
 30
0.0
 40
2.0
  0
CIRCLE
  5
241
  8
0
  6
CONTINUOUS
 62
     7
 10
246.78306026852701
 20
368.27741268768301
 30
0.0
 40
2.0
  0
CIRCLE
  5
242
  8
0
  6
CONTINUOUS
 62
     7
 10
239.98306026852691
 20
328.36435319659699
 30
0.0
 40
4.5
  0
CIRCLE
  5
243
  8
0
  6
CONTINUOUS
 62
     7
 10
253.28306026852701
 20
332.27741268768301
 30
0.0
 40
4.0
  0
ARC
  5
244
  8
0
  6
CONTINUOUS
 62
     7
 10
441.84937775916092
 20
245.77741268768301
 30
0.0
 40
5.0
 50
-90.0
 51
0.0
  0
ARC
  5
245
  8
0
  6
CONTINUOUS
 62
     7
 10
314.97635264366193
 20
294.47741268768101
 30
0.0
 40
0.2
 50
-154.32835450980491
 51
-90.0
  0
ARC
  5
246
  8
0
  6
CONTINUOUS
 62
     7
 10
314.97635264366193
 20
298.07741268768092
 30
0.0
 40
0.2
 50
90.0
 51
154.32835450968901
  0
ARC
  5
247
  8
0
  6
CONTINUOUS
 62
     7
 10
314.97635264366193
 20
366.47741268768289
 30
0.0
 40
0.2
 50
-154.32835450967491
 51
-90.0
  0
ARC
  5
248
  8
0
  6
CONTINUOUS
 62
     7
 10
314.97635264366193
 20
370.07741268768302
 30
0.0
 40
0.2
 50
90.0
 51
154.32835450982
  0
ARC
  5
249
  8
0
  6
CONTINUOUS
 62
     7
 10
314.97635264366193
 20
429.29345372261793
 30
0.0
 40
0.2
 50
90.0
 51
154.32835450980591
  0
ARC
  5
24A
  8
0
  6
CONTINUOUS
 62
     7
 10
314.97635264366193
 20
425.69345372261802
 30
0.0
 40
0.2
 50
-154.328354509848
 51
-90.0
  0
ARC
  5
24B
  8
0
  6
CONTINUOUS
 62
     7
 10
357.95608538402593
 20
420.89345372261801
 30
0.0
 40
0.2
 50
-90.0
 51
-25.671645490187
  0
ARC
  5
24C
  8
0
  6
CONTINUOUS
 62
     7
 10
357.95608538402593
 20
424.49345372261803
 30
0.0
 40
0.2
 50
25.671645490144002
 51
90.0
  0
ARC
  5
24D
  8
0
  6
CONTINUOUS
 62
     7
 10
357.95608538402593
 20
429.49345372261803
 30
0.0
 40
0.2
 50
25.671645490165002
 51
90.000000000048999
  0
ARC
  5
24E
  8
0
  6
CONTINUOUS
 62
     7
 10
357.95608538402593
 20
425.89345372261789
 30
0.0
 40
0.2
 50
-90.0
 51
-25.671645490201989
  0
ARC
  5
24F
  8
0
  6
CONTINUOUS
 62
     7
 10
370.16621901384389
 20
428.79345372261793
 30
0.0
 40
2.0
 50
0.0
 51
90.0
  0
ARC
  5
250
  8
0
  6
CONTINUOUS
 62
     7
 10
370.16621901384389
 20
439.79345372261798
 30
0.0
 40
2.0
 50
-90.0
 51
0.0
  0
ARC
  5
251
  8
0
  6
CONTINUOUS
 62
     7
 10
370.16621901384389
 20
333.77741268768301
 30
0.0
 40
2.0
 50
-90.0
 51
0.0
  0
ARC
  5
252
  8
0
  6
CONTINUOUS
 62
     7
 10
370.16621901384389
 20
322.77741268768301
 30
0.0
 40
2.0
 50
0.0
 51
90.0
  0
ARC
  5
253
  8
0
  6
CONTINUOUS
 62
     7
 10
357.95608538402593
 20
285.47741268768289
 30
0.0
 40
0.2
 50
-90.000000000064986
 51
-25.671645490172001
  0
ARC
  5
254
  8
0
  6
CONTINUOUS
 62
     7
 10
357.95608538402593
 20
289.07741268768302
 30
0.0
 40
0.2
 50
25.671645490165002
 51
90.0
  0
ARC
  5
255
  8
0
  6
CONTINUOUS
 62
     7
 10
357.95608538402593
 20
318.97741268768198
 30
0.0
 40
0.2
 50
-90.000000000064986
 51
-25.671645490098999
  0
ARC
  5
256
  8
0
  6
CONTINUOUS
 62
     7
 10
357.95608538402593
 20
322.57741268768302
 30
0.0
 40
0.2
 50
25.671645490165002
 51
90.0
  0
ARC
  5
257
  8
0
  6
CONTINUOUS
 62
     7
 10
357.95608538402593
 20
337.57741268768302
 30
0.0
 40
0.2
 50
25.671645490098999
 51
90.000000000064986
  0
ARC
  5
258
  8
0
  6
CONTINUOUS
 62
     7
 10
357.95608538402593
 20
333.97741268768192
 30
0.0
 40
0.2
 50
-90.0
 51
-25.671645490136001
  0
ARC
  5
259
  8
0
  6
CONTINUOUS
 62
     7
 10
357.95608538402593
 20
371.07741268768302
 30
0.0
 40
0.2
 50
25.671645490128
 51
90.000000000064986
  0
ARC
  5
25A
  8
0
  6
CONTINUOUS
 62
     7
 10
357.95608538402593
 20
367.47741268768192
 30
0.0
 40
0.2
 50
-90.0
 51
-25.671645490136001
  0
ARC
  5
25B
  8
0
  6
CONTINUOUS
 62
     7
 10
238.08306026852699
 20
245.77741268768301
 30
0.0
 40
5.0
 50
180.0
 51
-90.0
  0
ENDSEC
  0
EOF
