  0
SECTION
  2
HEADER
  9
$ACADVER
  1
AC1009
  9
$INSBASE
 10
0.0
 20
0.0
 30
0.0
  9
$EXTMIN
 10
-70.488427980493952
 20
-60.435964600601658
 30
-0.0000000000112498
  9
$EXTMAX
 10
652.05154720447956
 20
46.004498162782063
 30
0.0000000000002956
  9
$LIMMIN
 10
0.0
 20
0.0
  9
$LIMMAX
 10
420.0
 20
297.0
  9
$ORTHOMODE
 70
     1
  9
$REGENMODE
 70
     1
  9
$FILLMODE
 70
     1
  9
$QTEXTMODE
 70
     0
  9
$MIRRTEXT
 70
     0
  9
$DRAGMODE
 70
     2
  9
$LTSCALE
 40
1.0
  9
$OSMODE
 70
   119
  9
$ATTMODE
 70
     1
  9
$TEXTSIZE
 40
3.0
  9
$TRACEWID
 40
1.0
  9
$TEXTSTYLE
  7
STANDARD
  9
$CLAYER
  8
0
  9
$CELTYPE
  6
CONTINUOUS
  9
$CECOLOR
 62
     7
  9
$DIMSCALE
 40
1.0
  9
$DIMASZ
 40
2.5
  9
$DIMEXO
 40
0.625
  9
$DIMDLI
 40
3.75
  9
$DIMRND
 40
0.0
  9
$DIMDLE
 40
0.0
  9
$DIMEXE
 40
1.25
  9
$DIMTP
 40
0.0
  9
$DIMTM
 40
0.0
  9
$DIMTXT
 40
2.5
  9
$DIMCEN
 40
2.5
  9
$DIMTSZ
 40
0.0
  9
$DIMTOL
 70
     0
  9
$DIMLIM
 70
     0
  9
$DIMTIH
 70
     0
  9
$DIMTOH
 70
     0
  9
$DIMSE1
 70
     0
  9
$DIMSE2
 70
     0
  9
$DIMTAD
 70
     1
  9
$DIMZIN
 70
     8
  9
$DIMBLK
  1
OPEN30
  9
$DIMASO
 70
     1
  9
$DIMSHO
 70
     1
  9
$DIMPOST
  1

  9
$DIMAPOST
  1

  9
$DIMALT
 70
     0
  9
$DIMALTD
 70
     3
  9
$DIMALTF
 40
0.03937007874016
  9
$DIMLFAC
 40
1.0
  9
$DIMTOFL
 70
     1
  9
$DIMTVP
 40
0.0
  9
$DIMTIX
 70
     0
  9
$DIMSOXD
 70
     0
  9
$DIMSAH
 70
     0
  9
$DIMBLK1
  1

  9
$DIMBLK2
  1

  9
$DIMSTYLE
  2
MISUMI
  9
$DIMCLRD
 70
   137
  9
$DIMCLRE
 70
   137
  9
$DIMCLRT
 70
   137
  9
$DIMTFAC
 40
1.0
  9
$DIMGAP
 40
0.625
  9
$LUNITS
 70
     2
  9
$LUPREC
 70
     2
  9
$SKETCHINC
 40
1.0
  9
$FILLETRAD
 40
0.0
  9
$AUNITS
 70
     0
  9
$AUPREC
 70
     0
  9
$MENU
  1
.
  9
$ELEVATION
 40
0.0
  9
$PELEVATION
 40
0.0
  9
$THICKNESS
 40
0.0
  9
$LIMCHECK
 70
     0
  9
$BLIPMODE
 70
     0
  9
$CHAMFERA
 40
0.5
  9
$CHAMFERB
 40
0.5
  9
$SKPOLY
 70
     0
  9
$TDCREATE
 40
2455135.5720697101
  9
$TDUPDATE
 40
2455517.609814907
  9
$TDINDWG
 40
0.0439150347
  9
$TDUSRTIMER
 40
0.0439148495
  9
$USRTIMER
 70
     1
  9
$ANGBASE
 50
0.0
  9
$ANGDIR
 70
     0
  9
$PDMODE
 70
    35
  9
$PDSIZE
 40
0.0
  9
$PLINEWID
 40
0.0
  9
$COORDS
 70
     2
  9
$SPLFRAME
 70
     0
  9
$SPLINETYPE
 70
     6
  9
$SPLINESEGS
 70
     8
  9
$ATTDIA
 70
     0
  9
$ATTREQ
 70
     1
  9
$HANDLING
 70
 22529
  9
$HANDSEED
  5
106D
  9
$SURFTAB1
 70
     6
  9
$SURFTAB2
 70
     6
  9
$SURFTYPE
 70
     6
  9
$SURFU
 70
     6
  9
$SURFV
 70
     6
  9
$UCSNAME
  2

  9
$UCSORG
 10
0.0
 20
0.0
 30
0.0
  9
$UCSXDIR
 10
1.0
 20
0.0
 30
0.0
  9
$UCSYDIR
 10
0.0
 20
1.0
 30
0.0
  9
$PUCSNAME
  2

  9
$PUCSORG
 10
0.0
 20
0.0
 30
0.0
  9
$PUCSXDIR
 10
1.0
 20
0.0
 30
0.0
  9
$PUCSYDIR
 10
0.0
 20
1.0
 30
0.0
  9
$USERI1
 70
     0
  9
$USERI2
 70
     0
  9
$USERI3
 70
     0
  9
$USERI4
 70
     0
  9
$USERI5
 70
     0
  9
$USERR1
 40
0.0
  9
$USERR2
 40
0.0
  9
$USERR3
 40
0.0
  9
$USERR4
 40
0.0
  9
$USERR5
 40
0.0
  9
$WORLDVIEW
 70
     1
  9
$SHADEDGE
 70
     3
  9
$SHADEDIF
 70
    70
  9
$TILEMODE
 70
     1
  9
$MAXACTVP
 70
    64
  9
$PLIMCHECK
 70
     0
  9
$PEXTMIN
 10
0.0
 20
0.0
 30
0.0
  9
$PEXTMAX
 10
0.0
 20
0.0
 30
0.0
  9
$PLIMMIN
 10
0.0
 20
0.0
  9
$PLIMMAX
 10
12.0
 20
9.0
  9
$UNITMODE
 70
     0
  9
$VISRETAIN
 70
     1
  9
$PLINEGEN
 70
     0
  9
$PSLTSCALE
 70
     1
  0
ENDSEC
  0
SECTION
  2
TABLES
  0
TABLE
  2
VPORT
 70
     2
  0
VPORT
  2
*ACTIVE
 70
     0
 10
0.0
 20
0.0
 11
1.0
 21
1.0
 12
290.78155961199269
 22
-7.2157332189098042
 13
0.0
 23
0.0
 14
10.0
 24
10.0
 15
10.0
 25
10.0
 16
0.0
 26
0.0
 36
1.0
 17
0.0
 27
0.0
 37
0.0
 40
662.64567207899165
 41
1.0980645161290321
 42
50.0
 43
0.0
 44
0.0
 50
0.0
 51
0.0
 71
     0
 72
  1000
 73
     1
 74
     3
 75
     0
 76
     0
 77
     0
 78
     0
  0
ENDTAB
  0
TABLE
  2
LTYPE
 70
     4
  0
LTYPE
  2
CONTINUOUS
 70
     0
  3
Solid line
 72
    65
 73
     0
 40
0.0
  0
LTYPE
  2
CENTER
 70
     0
  3
Center ____ _ ____ _ ____ _ ____ _ ____ _ ____
 72
    65
 73
     4
 40
50.799999999999997
 49
31.75
 49
-6.3499999999999988
 49
6.3499999999999988
 49
-6.3499999999999988
  0
LTYPE
  2
DASHED
 70
     0
  3
Dashed __ __ __ __ __ __ __ __ __ __ __ __ __ _
 72
    65
 73
     2
 40
19.04999999999999
 49
12.699999999999999
 49
-6.3499999999999988
  0
ENDTAB
  0
TABLE
  2
LAYER
 70
     2
  0
LAYER
  2
0
 70
     0
 62
     7
  6
CONTINUOUS
  0
LAYER
  2
CENTER
 70
     0
 62
     1
  6
CENTER
  0
ENDTAB
  0
TABLE
  2
STYLE
 70
     1
  0
STYLE
  2
STANDARD
 70
     0
 40
3.0
 41
1.0
 50
0.0
 71
     0
 42
3.0
  3
txt.shx
  4
bigfont.shx
  0
ENDTAB
  0
TABLE
  2
VIEW
 70
     0
  0
ENDTAB
  0
TABLE
  2
UCS
 70
     0
  0
ENDTAB
  0
TABLE
  2
APPID
 70
     1
  0
APPID
  2
ACAD
 70
     0
  0
ENDTAB
  0
TABLE
  2
DIMSTYLE
 70
     1
  0
DIMSTYLE
  2
MISUMI
 70
     0
  3

  4

  5
OPEN30
  6

  7

 40
1.0
 41
2.5
 42
0.625
 43
3.75
 44
1.25
 45
0.0
 46
0.0
 47
0.0
 48
0.0
140
2.5
141
2.5
142
0.0
143
0.03937007874016
144
1.0
145
0.0
146
1.0
147
0.625
 71
     0
 72
     0
 73
     0
 74
     0
 75
     0
 76
     0
 77
     1
 78
     8
170
     0
171
     3
172
     1
173
     0
174
     0
175
     0
176
   137
177
   137
178
   137
  0
ENDTAB
  0
ENDSEC
  0
SECTION
  2
BLOCKS
  0
BLOCK
  8
0
  2
$MODEL_SPACE
 70
     0
 10
0.0
 20
0.0
 30
0.0
  3
$MODEL_SPACE
  1

  0
ENDBLK
  5
21
  8
0
  0
BLOCK
 67
     1
  8
0
  2
$PAPER_SPACE
 70
     0
 10
0.0
 20
0.0
 30
0.0
  3
$PAPER_SPACE
  1

  0
ENDBLK
  5
53
 67
     1
  8
0
  0
BLOCK
  8
0
 62
     7
  2
_OPEN30
 70
     0
 10
0.0
 20
0.0
 30
0.0
  3
_OPEN30
  1

  0
LINE
  5
D7
  8
0
  6
BYBLOCK
 62
     0
 10
-1.0
 20
0.26794919
 30
0.0
 11
0.0
 21
0.0
 31
0.0
  0
LINE
  5
D8
  8
0
  6
BYBLOCK
 62
     0
 10
0.0
 20
0.0
 30
0.0
 11
-1.0
 21
-0.26794919
 31
0.0
  0
LINE
  5
D9
  8
0
  6
BYBLOCK
 62
     0
 10
0.0
 20
0.0
 30
0.0
 11
-1.0
 21
0.0
 31
0.0
  0
ENDBLK
  5
DB
  8
0
 62
     7
  0
ENDSEC
  0
SECTION
  2
ENTITIES
  0
LINE
  5
F5C
  8
0
  6
DASHED
 62
     3
 10
150.0
 20
-35.5
 30
0.0
 11
610.0
 21
-35.5
 31
0.0
  0
LINE
  5
F5D
  8
0
  6
DASHED
 62
     3
 10
150.0
 20
35.5
 30
0.0
 11
610.0
 21
35.5
 31
0.0
  0
LINE
  5
F5E
  8
0
  6
CONTINUOUS
 62
     7
 10
315.19888888888858
 20
36.89999999999997
 30
0.0
 11
321.99672039799361
 21
40.499999999999993
 31
0.0
  0
LINE
  5
F5F
  8
0
  6
CONTINUOUS
 62
     7
 10
315.19888888888858
 20
36.89999999999997
 30
0.0
 11
322.35111111111081
 21
-36.89999999999997
 31
0.0
  0
LINE
  5
F60
  8
0
  6
CONTINUOUS
 62
     7
 10
315.5532796020056
 20
-40.499999999999993
 30
0.0
 11
322.35111111111081
 21
-36.89999999999997
 31
0.0
  0
LINE
  5
F61
  8
CENTER
  6
CENTER
 62
     1
 10
148.0
 20
0.0
 30
0.0
 11
652.0
 21
0.0
 31
0.0
  0
CIRCLE
  5
F62
  8
0
  6
CONTINUOUS
 62
     7
 10
0.0
 20
0.0
 30
0.0
 40
44.0
  0
LINE
  5
F63
  8
CENTER
  6
CENTER
 62
     1
 10
0.0
 20
-46.0
 30
0.0
 11
0.0
 21
46.0
 31
0.0
  0
CIRCLE
  5
F64
  8
0
  6
CONTINUOUS
 62
     7
 10
0.0
 20
0.0
 30
0.0
 40
40.499999999999993
  0
TEXT
  5
F65
  8
0
  6
CONTINUOUS
 62
     7
 10
-70.438300100548076
 20
-55.430059748647182
 30
0.0
 40
3.0
  1
HOSSDK75-0.5
  0
TEXT
  5
F66
  8
0
  6
CONTINUOUS
 62
     7
 10
-70.438300100548076
 20
-60.430059748647182
 30
0.0
 40
3.0
  1
HOSSDK75
  0
CIRCLE
  5
F67
  8
0
  6
CONTINUOUS
 62
     7
 10
0.0
 20
0.0
 30
0.0
 40
35.5
  0
LINE
  5
F68
  8
CENTER
  6
CENTER
 62
     1
 10
46.0
 20
0.0
 30
0.0
 11
-46.0
 21
0.0
 31
0.0
  0
LINE
  5
F69
  8
0
  6
CONTINUOUS
 62
     7
 10
182.10327960200581
 20
40.499999999999993
 30
0.0
 11
189.59888888888869
 21
36.89999999999997
 31
0.0
  0
LINE
  5
F6A
  8
0
  6
CONTINUOUS
 62
     7
 10
180.6967203979938
 20
40.499999999999993
 30
0.0
 11
188.54672039799379
 21
-40.499999999999993
 31
0.0
  0
LINE
  5
F6B
  8
0
  6
CONTINUOUS
 62
     7
 10
182.10327960200581
 20
40.499999999999993
 30
0.0
 11
189.95327960200589
 21
-40.499999999999993
 31
0.0
  0
LINE
  5
F6C
  8
0
  6
CONTINUOUS
 62
     7
 10
181.05111111111091
 20
-36.89999999999997
 30
0.0
 11
188.54672039799379
 21
-40.499999999999993
 31
0.0
  0
LINE
  5
F6D
  8
0
  6
CONTINUOUS
 62
     7
 10
150.70327960200589
 20
40.499999999999993
 30
0.0
 11
158.5532796020058
 21
-40.499999999999993
 31
0.0
  0
LINE
  5
F6E
  8
0
  6
CONTINUOUS
 62
     7
 10
166.40327960200599
 20
40.499999999999993
 30
0.0
 11
174.2532796020059
 21
-40.499999999999993
 31
0.0
  0
LINE
  5
F6F
  8
0
  6
CONTINUOUS
 62
     7
 10
164.99672039799381
 20
40.499999999999993
 30
0.0
 11
172.84672039799369
 21
-40.499999999999993
 31
0.0
  0
LINE
  5
F70
  8
0
  6
CONTINUOUS
 62
     7
 10
158.5532796020058
 20
-40.499999999999993
 30
0.0
 11
165.35111111111101
 21
-36.89999999999997
 31
0.0
  0
LINE
  5
F71
  8
0
  6
CONTINUOUS
 62
     7
 10
165.35111111111101
 20
-36.89999999999997
 30
0.0
 11
172.84672039799369
 21
-40.499999999999993
 31
0.0
  0
LINE
  5
F72
  8
0
  6
CONTINUOUS
 62
     7
 10
174.2532796020059
 20
-40.499999999999993
 30
0.0
 11
181.05111111111091
 21
-36.89999999999997
 31
0.0
  0
LINE
  5
F73
  8
0
  6
CONTINUOUS
 62
     7
 10
150.0
 20
-37.067564763840892
 30
0.0
 11
157.1467203979939
 21
-40.499999999999993
 31
0.0
  0
LINE
  5
F74
  8
0
  6
CONTINUOUS
 62
     7
 10
150.0
 20
33.243229584396317
 30
0.0
 11
157.1467203979939
 21
-40.499999999999993
 31
0.0
  0
LINE
  5
F75
  8
0
  6
CONTINUOUS
 62
     7
 10
157.1467203979939
 20
-40.499999999999993
 30
0.0
 11
158.5532796020058
 21
-40.499999999999993
 31
0.0
  0
LINE
  5
F76
  8
0
  6
CONTINUOUS
 62
     7
 10
172.84672039799369
 20
-40.499999999999993
 30
0.0
 11
174.2532796020059
 21
-40.499999999999993
 31
0.0
  0
LINE
  5
F77
  8
0
  6
CONTINUOUS
 62
     7
 10
158.1988888888888
 20
36.89999999999997
 30
0.0
 11
165.35111111111101
 21
-36.89999999999997
 31
0.0
  0
LINE
  5
F78
  8
0
  6
CONTINUOUS
 62
     7
 10
173.89888888888859
 20
36.89999999999997
 30
0.0
 11
181.05111111111091
 21
-36.89999999999997
 31
0.0
  0
LINE
  5
F79
  8
0
  6
CONTINUOUS
 62
     7
 10
150.0
 20
-37.067564763840892
 30
0.0
 11
150.0
 21
40.499999999999993
 31
0.0
  0
LINE
  5
F7A
  8
0
  6
CONTINUOUS
 62
     7
 10
166.40327960200599
 20
40.499999999999993
 30
0.0
 11
173.89888888888859
 21
36.89999999999997
 31
0.0
  0
LINE
  5
F7B
  8
0
  6
CONTINUOUS
 62
     7
 10
164.99672039799381
 20
40.499999999999993
 30
0.0
 11
166.40327960200599
 21
40.499999999999993
 31
0.0
  0
LINE
  5
F7C
  8
0
  6
CONTINUOUS
 62
     7
 10
158.1988888888888
 20
36.89999999999997
 30
0.0
 11
164.99672039799381
 21
40.499999999999993
 31
0.0
  0
LINE
  5
F7D
  8
0
  6
CONTINUOUS
 62
     7
 10
150.0
 20
40.499999999999993
 30
0.0
 11
150.70327960200589
 21
40.499999999999993
 31
0.0
  0
LINE
  5
F7E
  8
0
  6
CONTINUOUS
 62
     7
 10
150.70327960200589
 20
40.499999999999993
 30
0.0
 11
158.1988888888888
 21
36.89999999999997
 31
0.0
  0
LINE
  5
F7F
  8
0
  6
CONTINUOUS
 62
     7
 10
173.89888888888859
 20
36.89999999999997
 30
0.0
 11
180.6967203979938
 21
40.499999999999993
 31
0.0
  0
LINE
  5
F80
  8
0
  6
CONTINUOUS
 62
     7
 10
180.6967203979938
 20
40.499999999999993
 30
0.0
 11
182.10327960200581
 21
40.499999999999993
 31
0.0
  0
LINE
  5
F81
  8
0
  6
CONTINUOUS
 62
     7
 10
227.79672039799379
 20
40.499999999999993
 30
0.0
 11
235.6467203979937
 21
-40.499999999999993
 31
0.0
  0
LINE
  5
F82
  8
0
  6
CONTINUOUS
 62
     7
 10
229.20327960200569
 20
40.499999999999993
 30
0.0
 11
237.05327960200589
 21
-40.499999999999993
 31
0.0
  0
LINE
  5
F83
  8
0
  6
CONTINUOUS
 62
     7
 10
228.15111111111079
 20
-36.89999999999997
 30
0.0
 11
235.6467203979937
 21
-40.499999999999993
 31
0.0
  0
LINE
  5
F84
  8
0
  6
CONTINUOUS
 62
     7
 10
221.35327960200581
 20
-40.499999999999993
 30
0.0
 11
228.15111111111079
 21
-36.89999999999997
 31
0.0
  0
LINE
  5
F85
  8
0
  6
CONTINUOUS
 62
     7
 10
243.49672039799381
 20
40.499999999999993
 30
0.0
 11
251.34672039799369
 21
-40.499999999999993
 31
0.0
  0
LINE
  5
F86
  8
0
  6
CONTINUOUS
 62
     7
 10
244.9032796020058
 20
40.499999999999993
 30
0.0
 11
252.7532796020059
 21
-40.499999999999993
 31
0.0
  0
LINE
  5
F87
  8
0
  6
CONTINUOUS
 62
     7
 10
243.85111111111081
 20
-36.89999999999997
 30
0.0
 11
251.34672039799369
 21
-40.499999999999993
 31
0.0
  0
LINE
  5
F88
  8
0
  6
CONTINUOUS
 62
     7
 10
237.05327960200589
 20
-40.499999999999993
 30
0.0
 11
243.85111111111081
 21
-36.89999999999997
 31
0.0
  0
LINE
  5
F89
  8
0
  6
CONTINUOUS
 62
     7
 10
259.19672039799389
 20
40.499999999999993
 30
0.0
 11
267.04672039799379
 21
-40.499999999999993
 31
0.0
  0
LINE
  5
F8A
  8
0
  6
CONTINUOUS
 62
     7
 10
260.60327960200578
 20
40.499999999999993
 30
0.0
 11
268.45327960200569
 21
-40.499999999999993
 31
0.0
  0
LINE
  5
F8B
  8
0
  6
CONTINUOUS
 62
     7
 10
259.55111111111091
 20
-36.89999999999997
 30
0.0
 11
267.04672039799379
 21
-40.499999999999993
 31
0.0
  0
LINE
  5
F8C
  8
0
  6
CONTINUOUS
 62
     7
 10
252.7532796020059
 20
-40.499999999999993
 30
0.0
 11
259.55111111111091
 21
-36.89999999999997
 31
0.0
  0
LINE
  5
F8D
  8
0
  6
CONTINUOUS
 62
     7
 10
274.89672039799359
 20
40.499999999999993
 30
0.0
 11
282.7467203979935
 21
-40.499999999999993
 31
0.0
  0
LINE
  5
F8E
  8
0
  6
CONTINUOUS
 62
     7
 10
276.30327960200589
 20
40.499999999999993
 30
0.0
 11
284.15327960200568
 21
-40.499999999999993
 31
0.0
  0
LINE
  5
F8F
  8
0
  6
CONTINUOUS
 62
     7
 10
275.2511111111109
 20
-36.89999999999997
 30
0.0
 11
282.7467203979935
 21
-40.499999999999993
 31
0.0
  0
LINE
  5
F90
  8
0
  6
CONTINUOUS
 62
     7
 10
268.45327960200569
 20
-40.499999999999993
 30
0.0
 11
275.2511111111109
 21
-36.89999999999997
 31
0.0
  0
LINE
  5
F91
  8
0
  6
CONTINUOUS
 62
     7
 10
290.59672039799369
 20
40.499999999999993
 30
0.0
 11
298.4467203979936
 21
-40.499999999999993
 31
0.0
  0
LINE
  5
F92
  8
0
  6
CONTINUOUS
 62
     7
 10
292.00327960200588
 20
40.499999999999993
 30
0.0
 11
299.85327960200578
 21
-40.499999999999993
 31
0.0
  0
LINE
  5
F93
  8
0
  6
CONTINUOUS
 62
     7
 10
290.951111111111
 20
-36.89999999999997
 30
0.0
 11
298.4467203979936
 21
-40.499999999999993
 31
0.0
  0
LINE
  5
F94
  8
0
  6
CONTINUOUS
 62
     7
 10
284.15327960200568
 20
-40.499999999999993
 30
0.0
 11
290.951111111111
 21
-36.89999999999997
 31
0.0
  0
LINE
  5
F95
  8
0
  6
CONTINUOUS
 62
     7
 10
306.29672039799368
 20
40.499999999999993
 30
0.0
 11
314.14672039799359
 21
-40.499999999999993
 31
0.0
  0
LINE
  5
F96
  8
0
  6
CONTINUOUS
 62
     7
 10
307.70327960200569
 20
40.499999999999993
 30
0.0
 11
315.5532796020056
 21
-40.499999999999993
 31
0.0
  0
LINE
  5
F97
  8
0
  6
CONTINUOUS
 62
     7
 10
306.65111111111082
 20
-36.89999999999997
 30
0.0
 11
314.14672039799359
 21
-40.499999999999993
 31
0.0
  0
LINE
  5
F98
  8
0
  6
CONTINUOUS
 62
     7
 10
299.85327960200578
 20
-40.499999999999993
 30
0.0
 11
306.65111111111082
 21
-36.89999999999997
 31
0.0
  0
LINE
  5
F99
  8
0
  6
CONTINUOUS
 62
     7
 10
196.3967203979937
 20
40.499999999999993
 30
0.0
 11
204.24672039799381
 21
-40.499999999999993
 31
0.0
  0
LINE
  5
F9A
  8
0
  6
CONTINUOUS
 62
     7
 10
197.80327960200589
 20
40.499999999999993
 30
0.0
 11
205.6532796020058
 21
-40.499999999999993
 31
0.0
  0
LINE
  5
F9B
  8
0
  6
CONTINUOUS
 62
     7
 10
196.7511111111109
 20
-36.89999999999997
 30
0.0
 11
204.24672039799381
 21
-40.499999999999993
 31
0.0
  0
LINE
  5
F9C
  8
0
  6
CONTINUOUS
 62
     7
 10
189.95327960200589
 20
-40.499999999999993
 30
0.0
 11
196.7511111111109
 21
-36.89999999999997
 31
0.0
  0
LINE
  5
F9D
  8
0
  6
CONTINUOUS
 62
     7
 10
212.09672039799369
 20
40.499999999999993
 30
0.0
 11
219.94672039799389
 21
-40.499999999999993
 31
0.0
  0
LINE
  5
F9E
  8
0
  6
CONTINUOUS
 62
     7
 10
212.451111111111
 20
-36.89999999999997
 30
0.0
 11
219.94672039799389
 21
-40.499999999999993
 31
0.0
  0
LINE
  5
F9F
  8
0
  6
CONTINUOUS
 62
     7
 10
205.6532796020058
 20
-40.499999999999993
 30
0.0
 11
212.451111111111
 21
-36.89999999999997
 31
0.0
  0
LINE
  5
FA0
  8
0
  6
CONTINUOUS
 62
     7
 10
213.5032796020059
 20
40.499999999999993
 30
0.0
 11
221.35327960200581
 21
-40.499999999999993
 31
0.0
  0
LINE
  5
FA1
  8
0
  6
CONTINUOUS
 62
     7
 10
251.34672039799369
 20
-40.499999999999993
 30
0.0
 11
252.7532796020059
 21
-40.499999999999993
 31
0.0
  0
LINE
  5
FA2
  8
0
  6
CONTINUOUS
 62
     7
 10
188.54672039799379
 20
-40.499999999999993
 30
0.0
 11
189.95327960200589
 21
-40.499999999999993
 31
0.0
  0
LINE
  5
FA3
  8
0
  6
CONTINUOUS
 62
     7
 10
204.24672039799381
 20
-40.499999999999993
 30
0.0
 11
205.6532796020058
 21
-40.499999999999993
 31
0.0
  0
LINE
  5
FA4
  8
0
  6
CONTINUOUS
 62
     7
 10
219.94672039799389
 20
-40.499999999999993
 30
0.0
 11
221.35327960200581
 21
-40.499999999999993
 31
0.0
  0
LINE
  5
FA5
  8
0
  6
CONTINUOUS
 62
     7
 10
235.6467203979937
 20
-40.499999999999993
 30
0.0
 11
237.05327960200589
 21
-40.499999999999993
 31
0.0
  0
LINE
  5
FA6
  8
0
  6
CONTINUOUS
 62
     7
 10
267.04672039799379
 20
-40.499999999999993
 30
0.0
 11
268.45327960200569
 21
-40.499999999999993
 31
0.0
  0
LINE
  5
FA7
  8
0
  6
CONTINUOUS
 62
     7
 10
282.7467203979935
 20
-40.499999999999993
 30
0.0
 11
284.15327960200568
 21
-40.499999999999993
 31
0.0
  0
LINE
  5
FA8
  8
0
  6
CONTINUOUS
 62
     7
 10
298.4467203979936
 20
-40.499999999999993
 30
0.0
 11
299.85327960200578
 21
-40.499999999999993
 31
0.0
  0
LINE
  5
FA9
  8
0
  6
CONTINUOUS
 62
     7
 10
314.14672039799359
 20
-40.499999999999993
 30
0.0
 11
315.5532796020056
 21
-40.499999999999993
 31
0.0
  0
LINE
  5
FAA
  8
0
  6
CONTINUOUS
 62
     7
 10
252.39888888888859
 20
36.89999999999997
 30
0.0
 11
259.19672039799389
 21
40.499999999999993
 31
0.0
  0
LINE
  5
FAB
  8
0
  6
CONTINUOUS
 62
     7
 10
252.39888888888859
 20
36.89999999999997
 30
0.0
 11
259.55111111111091
 21
-36.89999999999997
 31
0.0
  0
LINE
  5
FAC
  8
0
  6
CONTINUOUS
 62
     7
 10
220.99888888888881
 20
36.89999999999997
 30
0.0
 11
228.15111111111079
 21
-36.89999999999997
 31
0.0
  0
LINE
  5
FAD
  8
0
  6
CONTINUOUS
 62
     7
 10
236.6988888888886
 20
36.89999999999997
 30
0.0
 11
243.85111111111081
 21
-36.89999999999997
 31
0.0
  0
LINE
  5
FAE
  8
0
  6
CONTINUOUS
 62
     7
 10
189.59888888888869
 20
36.89999999999997
 30
0.0
 11
196.7511111111109
 21
-36.89999999999997
 31
0.0
  0
LINE
  5
FAF
  8
0
  6
CONTINUOUS
 62
     7
 10
205.29888888888871
 20
36.89999999999997
 30
0.0
 11
212.451111111111
 21
-36.89999999999997
 31
0.0
  0
LINE
  5
FB0
  8
0
  6
CONTINUOUS
 62
     7
 10
213.5032796020059
 20
40.499999999999993
 30
0.0
 11
220.99888888888881
 21
36.89999999999997
 31
0.0
  0
LINE
  5
FB1
  8
0
  6
CONTINUOUS
 62
     7
 10
197.80327960200589
 20
40.499999999999993
 30
0.0
 11
205.29888888888871
 21
36.89999999999997
 31
0.0
  0
LINE
  5
FB2
  8
0
  6
CONTINUOUS
 62
     7
 10
189.59888888888869
 20
36.89999999999997
 30
0.0
 11
196.3967203979937
 21
40.499999999999993
 31
0.0
  0
LINE
  5
FB3
  8
0
  6
CONTINUOUS
 62
     7
 10
196.3967203979937
 20
40.499999999999993
 30
0.0
 11
197.80327960200589
 21
40.499999999999993
 31
0.0
  0
LINE
  5
FB4
  8
0
  6
CONTINUOUS
 62
     7
 10
205.29888888888871
 20
36.89999999999997
 30
0.0
 11
212.09672039799369
 21
40.499999999999993
 31
0.0
  0
LINE
  5
FB5
  8
0
  6
CONTINUOUS
 62
     7
 10
212.09672039799369
 20
40.499999999999993
 30
0.0
 11
213.5032796020059
 21
40.499999999999993
 31
0.0
  0
LINE
  5
FB6
  8
0
  6
CONTINUOUS
 62
     7
 10
229.20327960200569
 20
40.499999999999993
 30
0.0
 11
236.6988888888886
 21
36.89999999999997
 31
0.0
  0
LINE
  5
FB7
  8
0
  6
CONTINUOUS
 62
     7
 10
220.99888888888881
 20
36.89999999999997
 30
0.0
 11
227.79672039799379
 21
40.499999999999993
 31
0.0
  0
LINE
  5
FB8
  8
0
  6
CONTINUOUS
 62
     7
 10
227.79672039799379
 20
40.499999999999993
 30
0.0
 11
229.20327960200569
 21
40.499999999999993
 31
0.0
  0
LINE
  5
FB9
  8
0
  6
CONTINUOUS
 62
     7
 10
243.49672039799381
 20
40.499999999999993
 30
0.0
 11
244.9032796020058
 21
40.499999999999993
 31
0.0
  0
LINE
  5
FBA
  8
0
  6
CONTINUOUS
 62
     7
 10
244.9032796020058
 20
40.499999999999993
 30
0.0
 11
252.39888888888859
 21
36.89999999999997
 31
0.0
  0
LINE
  5
FBB
  8
0
  6
CONTINUOUS
 62
     7
 10
236.6988888888886
 20
36.89999999999997
 30
0.0
 11
243.49672039799381
 21
40.499999999999993
 31
0.0
  0
LINE
  5
FBC
  8
0
  6
CONTINUOUS
 62
     7
 10
299.49888888888847
 20
36.89999999999997
 30
0.0
 11
306.65111111111082
 21
-36.89999999999997
 31
0.0
  0
LINE
  5
FBD
  8
0
  6
CONTINUOUS
 62
     7
 10
268.09888888888872
 20
36.89999999999997
 30
0.0
 11
275.2511111111109
 21
-36.89999999999997
 31
0.0
  0
LINE
  5
FBE
  8
0
  6
CONTINUOUS
 62
     7
 10
283.79888888888848
 20
36.89999999999997
 30
0.0
 11
290.951111111111
 21
-36.89999999999997
 31
0.0
  0
LINE
  5
FBF
  8
0
  6
CONTINUOUS
 62
     7
 10
283.79888888888848
 20
36.89999999999997
 30
0.0
 11
290.59672039799369
 21
40.499999999999993
 31
0.0
  0
LINE
  5
FC0
  8
0
  6
CONTINUOUS
 62
     7
 10
268.09888888888872
 20
36.89999999999997
 30
0.0
 11
274.89672039799359
 21
40.499999999999993
 31
0.0
  0
LINE
  5
FC1
  8
0
  6
CONTINUOUS
 62
     7
 10
259.19672039799389
 20
40.499999999999993
 30
0.0
 11
260.60327960200578
 21
40.499999999999993
 31
0.0
  0
LINE
  5
FC2
  8
0
  6
CONTINUOUS
 62
     7
 10
260.60327960200578
 20
40.499999999999993
 30
0.0
 11
268.09888888888872
 21
36.89999999999997
 31
0.0
  0
LINE
  5
FC3
  8
0
  6
CONTINUOUS
 62
     7
 10
274.89672039799359
 20
40.499999999999993
 30
0.0
 11
276.30327960200589
 21
40.499999999999993
 31
0.0
  0
LINE
  5
FC4
  8
0
  6
CONTINUOUS
 62
     7
 10
276.30327960200589
 20
40.499999999999993
 30
0.0
 11
283.79888888888848
 21
36.89999999999997
 31
0.0
  0
LINE
  5
FC5
  8
0
  6
CONTINUOUS
 62
     7
 10
299.49888888888847
 20
36.89999999999997
 30
0.0
 11
306.29672039799368
 21
40.499999999999993
 31
0.0
  0
LINE
  5
FC6
  8
0
  6
CONTINUOUS
 62
     7
 10
290.59672039799369
 20
40.499999999999993
 30
0.0
 11
292.00327960200588
 21
40.499999999999993
 31
0.0
  0
LINE
  5
FC7
  8
0
  6
CONTINUOUS
 62
     7
 10
292.00327960200588
 20
40.499999999999993
 30
0.0
 11
299.49888888888847
 21
36.89999999999997
 31
0.0
  0
LINE
  5
FC8
  8
0
  6
CONTINUOUS
 62
     7
 10
306.29672039799368
 20
40.499999999999993
 30
0.0
 11
307.70327960200569
 21
40.499999999999993
 31
0.0
  0
LINE
  5
FC9
  8
0
  6
CONTINUOUS
 62
     7
 10
307.70327960200569
 20
40.499999999999993
 30
0.0
 11
315.19888888888858
 21
36.89999999999997
 31
0.0
  0
LINE
  5
FCA
  8
0
  6
CONTINUOUS
 62
     7
 10
607.0
 20
44.0
 30
0.0
 11
565.0
 21
44.0
 31
0.0
  0
LINE
  5
FCB
  8
0
  6
CONTINUOUS
 62
     7
 10
607.0
 20
-44.0
 30
0.0
 11
565.0
 21
-44.0
 31
0.0
  0
LINE
  5
FCC
  8
0
  6
CONTINUOUS
 62
     7
 10
456.4988888888883
 20
36.89999999999997
 30
0.0
 11
463.29672039799351
 21
40.499999999999993
 31
0.0
  0
LINE
  5
FCD
  8
0
  6
CONTINUOUS
 62
     7
 10
456.4988888888883
 20
36.89999999999997
 30
0.0
 11
463.65111111111082
 21
-36.89999999999997
 31
0.0
  0
LINE
  5
FCE
  8
0
  6
CONTINUOUS
 62
     7
 10
456.85327960200561
 20
-40.499999999999993
 30
0.0
 11
463.65111111111082
 21
-36.89999999999997
 31
0.0
  0
LINE
  5
FCF
  8
0
  6
CONTINUOUS
 62
     7
 10
369.09672039799352
 20
40.499999999999993
 30
0.0
 11
376.9467203979936
 21
-40.499999999999993
 31
0.0
  0
LINE
  5
FD0
  8
0
  6
CONTINUOUS
 62
     7
 10
370.5032796020057
 20
40.499999999999993
 30
0.0
 11
378.35327960200578
 21
-40.499999999999993
 31
0.0
  0
LINE
  5
FD1
  8
0
  6
CONTINUOUS
 62
     7
 10
369.45111111111072
 20
-36.89999999999997
 30
0.0
 11
376.9467203979936
 21
-40.499999999999993
 31
0.0
  0
LINE
  5
FD2
  8
0
  6
CONTINUOUS
 62
     7
 10
362.65327960200568
 20
-40.499999999999993
 30
0.0
 11
369.45111111111072
 21
-36.89999999999997
 31
0.0
  0
LINE
  5
FD3
  8
0
  6
CONTINUOUS
 62
     7
 10
384.79672039799368
 20
40.499999999999993
 30
0.0
 11
392.6467203979937
 21
-40.499999999999993
 31
0.0
  0
LINE
  5
FD4
  8
0
  6
CONTINUOUS
 62
     7
 10
386.20327960200569
 20
40.499999999999993
 30
0.0
 11
394.0532796020056
 21
-40.499999999999993
 31
0.0
  0
LINE
  5
FD5
  8
0
  6
CONTINUOUS
 62
     7
 10
385.15111111111082
 20
-36.89999999999997
 30
0.0
 11
392.6467203979937
 21
-40.499999999999993
 31
0.0
  0
LINE
  5
FD6
  8
0
  6
CONTINUOUS
 62
     7
 10
378.35327960200578
 20
-40.499999999999993
 30
0.0
 11
385.15111111111082
 21
-36.89999999999997
 31
0.0
  0
LINE
  5
FD7
  8
0
  6
CONTINUOUS
 62
     7
 10
400.4967203979935
 20
40.499999999999993
 30
0.0
 11
408.34672039799341
 21
-40.499999999999993
 31
0.0
  0
LINE
  5
FD8
  8
0
  6
CONTINUOUS
 62
     7
 10
401.90327960200551
 20
40.499999999999993
 30
0.0
 11
409.7532796020057
 21
-40.499999999999993
 31
0.0
  0
LINE
  5
FD9
  8
0
  6
CONTINUOUS
 62
     7
 10
400.85111111111058
 20
-36.89999999999997
 30
0.0
 11
408.34672039799341
 21
-40.499999999999993
 31
0.0
  0
LINE
  5
FDA
  8
0
  6
CONTINUOUS
 62
     7
 10
394.0532796020056
 20
-40.499999999999993
 30
0.0
 11
400.85111111111058
 21
-36.89999999999997
 31
0.0
  0
LINE
  5
FDB
  8
0
  6
CONTINUOUS
 62
     7
 10
416.1967203979936
 20
40.499999999999993
 30
0.0
 11
424.04672039799351
 21
-40.499999999999993
 31
0.0
  0
LINE
  5
FDC
  8
0
  6
CONTINUOUS
 62
     7
 10
417.60327960200578
 20
40.499999999999993
 30
0.0
 11
425.45327960200569
 21
-40.499999999999993
 31
0.0
  0
LINE
  5
FDD
  8
0
  6
CONTINUOUS
 62
     7
 10
416.55111111111091
 20
-36.89999999999997
 30
0.0
 11
424.04672039799351
 21
-40.499999999999993
 31
0.0
  0
LINE
  5
FDE
  8
0
  6
CONTINUOUS
 62
     7
 10
409.7532796020057
 20
-40.499999999999993
 30
0.0
 11
416.55111111111091
 21
-36.89999999999997
 31
0.0
  0
LINE
  5
FDF
  8
0
  6
CONTINUOUS
 62
     7
 10
431.89672039799359
 20
40.499999999999993
 30
0.0
 11
439.7467203979935
 21
-40.499999999999993
 31
0.0
  0
LINE
  5
FE0
  8
0
  6
CONTINUOUS
 62
     7
 10
433.3032796020056
 20
40.499999999999993
 30
0.0
 11
441.15327960200551
 21
-40.499999999999993
 31
0.0
  0
LINE
  5
FE1
  8
0
  6
CONTINUOUS
 62
     7
 10
432.25111111111067
 20
-36.89999999999997
 30
0.0
 11
439.7467203979935
 21
-40.499999999999993
 31
0.0
  0
LINE
  5
FE2
  8
0
  6
CONTINUOUS
 62
     7
 10
425.45327960200569
 20
-40.499999999999993
 30
0.0
 11
432.25111111111067
 21
-36.89999999999997
 31
0.0
  0
LINE
  5
FE3
  8
0
  6
CONTINUOUS
 62
     7
 10
447.59672039799341
 20
40.499999999999993
 30
0.0
 11
455.44672039799337
 21
-40.499999999999993
 31
0.0
  0
LINE
  5
FE4
  8
0
  6
CONTINUOUS
 62
     7
 10
449.0032796020057
 20
40.499999999999993
 30
0.0
 11
456.85327960200561
 21
-40.499999999999993
 31
0.0
  0
LINE
  5
FE5
  8
0
  6
CONTINUOUS
 62
     7
 10
447.95111111111072
 20
-36.89999999999997
 30
0.0
 11
455.44672039799337
 21
-40.499999999999993
 31
0.0
  0
LINE
  5
FE6
  8
0
  6
CONTINUOUS
 62
     7
 10
441.15327960200551
 20
-40.499999999999993
 30
0.0
 11
447.95111111111072
 21
-36.89999999999997
 31
0.0
  0
LINE
  5
FE7
  8
0
  6
CONTINUOUS
 62
     7
 10
321.99672039799361
 20
40.499999999999993
 30
0.0
 11
329.84672039799369
 21
-40.499999999999993
 31
0.0
  0
LINE
  5
FE8
  8
0
  6
CONTINUOUS
 62
     7
 10
323.40327960200568
 20
40.499999999999993
 30
0.0
 11
331.2532796020057
 21
-40.499999999999993
 31
0.0
  0
LINE
  5
FE9
  8
0
  6
CONTINUOUS
 62
     7
 10
322.35111111111081
 20
-36.89999999999997
 30
0.0
 11
329.84672039799369
 21
-40.499999999999993
 31
0.0
  0
LINE
  5
FEA
  8
0
  6
CONTINUOUS
 62
     7
 10
337.6967203979936
 20
40.499999999999993
 30
0.0
 11
345.54672039799368
 21
-40.499999999999993
 31
0.0
  0
LINE
  5
FEB
  8
0
  6
CONTINUOUS
 62
     7
 10
339.10327960200578
 20
40.499999999999993
 30
0.0
 11
346.95327960200569
 21
-40.499999999999993
 31
0.0
  0
LINE
  5
FEC
  8
0
  6
CONTINUOUS
 62
     7
 10
338.05111111111091
 20
-36.89999999999997
 30
0.0
 11
345.54672039799368
 21
-40.499999999999993
 31
0.0
  0
LINE
  5
FED
  8
0
  6
CONTINUOUS
 62
     7
 10
331.2532796020057
 20
-40.499999999999993
 30
0.0
 11
338.05111111111091
 21
-36.89999999999997
 31
0.0
  0
LINE
  5
FEE
  8
0
  6
CONTINUOUS
 62
     7
 10
346.95327960200569
 20
-40.499999999999993
 30
0.0
 11
353.75111111111067
 21
-36.89999999999997
 31
0.0
  0
LINE
  5
FEF
  8
0
  6
CONTINUOUS
 62
     7
 10
353.3967203979937
 20
40.499999999999993
 30
0.0
 11
361.24672039799361
 21
-40.499999999999993
 31
0.0
  0
LINE
  5
FF0
  8
0
  6
CONTINUOUS
 62
     7
 10
354.8032796020056
 20
40.499999999999993
 30
0.0
 11
362.65327960200568
 21
-40.499999999999993
 31
0.0
  0
LINE
  5
FF1
  8
0
  6
CONTINUOUS
 62
     7
 10
353.75111111111067
 20
-36.89999999999997
 30
0.0
 11
361.24672039799361
 21
-40.499999999999993
 31
0.0
  0
LINE
  5
FF2
  8
0
  6
CONTINUOUS
 62
     7
 10
329.84672039799369
 20
-40.499999999999993
 30
0.0
 11
331.2532796020057
 21
-40.499999999999993
 31
0.0
  0
LINE
  5
FF3
  8
0
  6
CONTINUOUS
 62
     7
 10
345.54672039799368
 20
-40.499999999999993
 30
0.0
 11
346.95327960200569
 21
-40.499999999999993
 31
0.0
  0
LINE
  5
FF4
  8
0
  6
CONTINUOUS
 62
     7
 10
361.24672039799361
 20
-40.499999999999993
 30
0.0
 11
362.65327960200568
 21
-40.499999999999993
 31
0.0
  0
LINE
  5
FF5
  8
0
  6
CONTINUOUS
 62
     7
 10
376.9467203979936
 20
-40.499999999999993
 30
0.0
 11
378.35327960200578
 21
-40.499999999999993
 31
0.0
  0
LINE
  5
FF6
  8
0
  6
CONTINUOUS
 62
     7
 10
424.04672039799351
 20
-40.499999999999993
 30
0.0
 11
425.45327960200569
 21
-40.499999999999993
 31
0.0
  0
LINE
  5
FF7
  8
0
  6
CONTINUOUS
 62
     7
 10
392.6467203979937
 20
-40.499999999999993
 30
0.0
 11
394.0532796020056
 21
-40.499999999999993
 31
0.0
  0
LINE
  5
FF8
  8
0
  6
CONTINUOUS
 62
     7
 10
408.34672039799341
 20
-40.499999999999993
 30
0.0
 11
409.7532796020057
 21
-40.499999999999993
 31
0.0
  0
LINE
  5
FF9
  8
0
  6
CONTINUOUS
 62
     7
 10
439.7467203979935
 20
-40.499999999999993
 30
0.0
 11
441.15327960200551
 21
-40.499999999999993
 31
0.0
  0
LINE
  5
FFA
  8
0
  6
CONTINUOUS
 62
     7
 10
455.44672039799337
 20
-40.499999999999993
 30
0.0
 11
456.85327960200561
 21
-40.499999999999993
 31
0.0
  0
LINE
  5
FFB
  8
0
  6
CONTINUOUS
 62
     7
 10
386.20327960200569
 20
40.499999999999993
 30
0.0
 11
393.69888888888858
 21
36.89999999999997
 31
0.0
  0
LINE
  5
FFC
  8
0
  6
CONTINUOUS
 62
     7
 10
362.29888888888848
 20
36.89999999999997
 30
0.0
 11
369.45111111111072
 21
-36.89999999999997
 31
0.0
  0
LINE
  5
FFD
  8
0
  6
CONTINUOUS
 62
     7
 10
377.99888888888847
 20
36.89999999999997
 30
0.0
 11
385.15111111111082
 21
-36.89999999999997
 31
0.0
  0
LINE
  5
FFE
  8
0
  6
CONTINUOUS
 62
     7
 10
330.89888888888862
 20
36.89999999999997
 30
0.0
 11
338.05111111111091
 21
-36.89999999999997
 31
0.0
  0
LINE
  5
FFF
  8
0
  6
CONTINUOUS
 62
     7
 10
346.59888888888872
 20
36.89999999999997
 30
0.0
 11
353.75111111111067
 21
-36.89999999999997
 31
0.0
  0
LINE
  5
1000
  8
0
  6
CONTINUOUS
 62
     7
 10
354.8032796020056
 20
40.499999999999993
 30
0.0
 11
362.29888888888848
 21
36.89999999999997
 31
0.0
  0
LINE
  5
1001
  8
0
  6
CONTINUOUS
 62
     7
 10
337.6967203979936
 20
40.499999999999993
 30
0.0
 11
339.10327960200578
 21
40.499999999999993
 31
0.0
  0
LINE
  5
1002
  8
0
  6
CONTINUOUS
 62
     7
 10
323.40327960200568
 20
40.499999999999993
 30
0.0
 11
330.89888888888862
 21
36.89999999999997
 31
0.0
  0
LINE
  5
1003
  8
0
  6
CONTINUOUS
 62
     7
 10
330.89888888888862
 20
36.89999999999997
 30
0.0
 11
337.6967203979936
 21
40.499999999999993
 31
0.0
  0
LINE
  5
1004
  8
0
  6
CONTINUOUS
 62
     7
 10
321.99672039799361
 20
40.499999999999993
 30
0.0
 11
323.40327960200568
 21
40.499999999999993
 31
0.0
  0
LINE
  5
1005
  8
0
  6
CONTINUOUS
 62
     7
 10
346.59888888888872
 20
36.89999999999997
 30
0.0
 11
353.3967203979937
 21
40.499999999999993
 31
0.0
  0
LINE
  5
1006
  8
0
  6
CONTINUOUS
 62
     7
 10
353.3967203979937
 20
40.499999999999993
 30
0.0
 11
354.8032796020056
 21
40.499999999999993
 31
0.0
  0
LINE
  5
1007
  8
0
  6
CONTINUOUS
 62
     7
 10
339.10327960200578
 20
40.499999999999993
 30
0.0
 11
346.59888888888872
 21
36.89999999999997
 31
0.0
  0
LINE
  5
1008
  8
0
  6
CONTINUOUS
 62
     7
 10
370.5032796020057
 20
40.499999999999993
 30
0.0
 11
377.99888888888847
 21
36.89999999999997
 31
0.0
  0
LINE
  5
1009
  8
0
  6
CONTINUOUS
 62
     7
 10
362.29888888888848
 20
36.89999999999997
 30
0.0
 11
369.09672039799352
 21
40.499999999999993
 31
0.0
  0
LINE
  5
100A
  8
0
  6
CONTINUOUS
 62
     7
 10
369.09672039799352
 20
40.499999999999993
 30
0.0
 11
370.5032796020057
 21
40.499999999999993
 31
0.0
  0
LINE
  5
100B
  8
0
  6
CONTINUOUS
 62
     7
 10
377.99888888888847
 20
36.89999999999997
 30
0.0
 11
384.79672039799368
 21
40.499999999999993
 31
0.0
  0
LINE
  5
100C
  8
0
  6
CONTINUOUS
 62
     7
 10
384.79672039799368
 20
40.499999999999993
 30
0.0
 11
386.20327960200569
 21
40.499999999999993
 31
0.0
  0
LINE
  5
100D
  8
0
  6
CONTINUOUS
 62
     7
 10
440.79888888888848
 20
36.89999999999997
 30
0.0
 11
447.95111111111072
 21
-36.89999999999997
 31
0.0
  0
LINE
  5
100E
  8
0
  6
CONTINUOUS
 62
     7
 10
393.69888888888858
 20
36.89999999999997
 30
0.0
 11
400.85111111111058
 21
-36.89999999999997
 31
0.0
  0
LINE
  5
100F
  8
0
  6
CONTINUOUS
 62
     7
 10
409.39888888888839
 20
36.89999999999997
 30
0.0
 11
416.55111111111091
 21
-36.89999999999997
 31
0.0
  0
LINE
  5
1010
  8
0
  6
CONTINUOUS
 62
     7
 10
425.09888888888838
 20
36.89999999999997
 30
0.0
 11
432.25111111111067
 21
-36.89999999999997
 31
0.0
  0
LINE
  5
1011
  8
0
  6
CONTINUOUS
 62
     7
 10
417.60327960200561
 20
40.499999999999993
 30
0.0
 11
425.09888888888838
 21
36.89999999999997
 31
0.0
  0
LINE
  5
1012
  8
0
  6
CONTINUOUS
 62
     7
 10
401.90327960200551
 20
40.499999999999993
 30
0.0
 11
409.39888888888839
 21
36.89999999999997
 31
0.0
  0
LINE
  5
1013
  8
0
  6
CONTINUOUS
 62
     7
 10
393.69888888888858
 20
36.89999999999997
 30
0.0
 11
400.4967203979935
 21
40.499999999999993
 31
0.0
  0
LINE
  5
1014
  8
0
  6
CONTINUOUS
 62
     7
 10
400.4967203979935
 20
40.499999999999993
 30
0.0
 11
401.90327960200551
 21
40.499999999999993
 31
0.0
  0
LINE
  5
1015
  8
0
  6
CONTINUOUS
 62
     7
 10
409.39888888888839
 20
36.89999999999997
 30
0.0
 11
416.1967203979936
 21
40.499999999999993
 31
0.0
  0
LINE
  5
1016
  8
0
  6
CONTINUOUS
 62
     7
 10
416.1967203979936
 20
40.499999999999993
 30
0.0
 11
417.60327960200578
 21
40.499999999999993
 31
0.0
  0
LINE
  5
1017
  8
0
  6
CONTINUOUS
 62
     7
 10
440.79888888888848
 20
36.89999999999997
 30
0.0
 11
447.59672039799341
 21
40.499999999999993
 31
0.0
  0
LINE
  5
1018
  8
0
  6
CONTINUOUS
 62
     7
 10
431.89672039799359
 20
40.499999999999993
 30
0.0
 11
433.3032796020056
 21
40.499999999999993
 31
0.0
  0
LINE
  5
1019
  8
0
  6
CONTINUOUS
 62
     7
 10
433.3032796020056
 20
40.499999999999993
 30
0.0
 11
440.79888888888848
 21
36.89999999999997
 31
0.0
  0
LINE
  5
101A
  8
0
  6
CONTINUOUS
 62
     7
 10
425.09888888888838
 20
36.89999999999997
 30
0.0
 11
431.89672039799359
 21
40.499999999999993
 31
0.0
  0
LINE
  5
101B
  8
0
  6
CONTINUOUS
 62
     7
 10
447.59672039799341
 20
40.499999999999993
 30
0.0
 11
449.0032796020057
 21
40.499999999999993
 31
0.0
  0
LINE
  5
101C
  8
0
  6
CONTINUOUS
 62
     7
 10
449.0032796020057
 20
40.499999999999993
 30
0.0
 11
456.4988888888883
 21
36.89999999999997
 31
0.0
  0
LINE
  5
101D
  8
0
  6
CONTINUOUS
 62
     7
 10
565.0
 20
-44.0
 30
0.0
 11
565.0
 21
44.0
 31
0.0
  0
LINE
  5
101E
  8
0
  6
CONTINUOUS
 62
     7
 10
557.85111111111064
 20
-36.89999999999997
 30
0.0
 11
565.0
 21
-40.333476721503978
 31
0.0
  0
LINE
  5
101F
  8
0
  6
CONTINUOUS
 62
     7
 10
463.29672039799351
 20
40.499999999999993
 30
0.0
 11
471.14672039799359
 21
-40.499999999999993
 31
0.0
  0
LINE
  5
1020
  8
0
  6
CONTINUOUS
 62
     7
 10
464.70327960200569
 20
40.499999999999993
 30
0.0
 11
472.5532796020056
 21
-40.499999999999993
 31
0.0
  0
LINE
  5
1021
  8
0
  6
CONTINUOUS
 62
     7
 10
463.65111111111082
 20
-36.89999999999997
 30
0.0
 11
471.14672039799359
 21
-40.499999999999993
 31
0.0
  0
LINE
  5
1022
  8
0
  6
CONTINUOUS
 62
     7
 10
478.9967203979935
 20
40.499999999999993
 30
0.0
 11
486.84672039799352
 21
-40.499999999999993
 31
0.0
  0
LINE
  5
1023
  8
0
  6
CONTINUOUS
 62
     7
 10
480.40327960200551
 20
40.499999999999993
 30
0.0
 11
488.25327960200542
 21
-40.499999999999993
 31
0.0
  0
LINE
  5
1024
  8
0
  6
CONTINUOUS
 62
     7
 10
479.35111111111058
 20
-36.89999999999997
 30
0.0
 11
486.84672039799352
 21
-40.499999999999993
 31
0.0
  0
LINE
  5
1025
  8
0
  6
CONTINUOUS
 62
     7
 10
472.5532796020056
 20
-40.499999999999993
 30
0.0
 11
479.35111111111058
 21
-36.89999999999997
 31
0.0
  0
LINE
  5
1026
  8
0
  6
CONTINUOUS
 62
     7
 10
488.25327960200542
 20
-40.499999999999993
 30
0.0
 11
495.05111111111057
 21
-36.89999999999997
 31
0.0
  0
LINE
  5
1027
  8
0
  6
CONTINUOUS
 62
     7
 10
494.69672039799337
 20
40.499999999999993
 30
0.0
 11
502.54672039799351
 21
-40.499999999999993
 31
0.0
  0
LINE
  5
1028
  8
0
  6
CONTINUOUS
 62
     7
 10
495.05111111111057
 20
-36.89999999999997
 30
0.0
 11
502.54672039799351
 21
-40.499999999999993
 31
0.0
  0
LINE
  5
1029
  8
0
  6
CONTINUOUS
 62
     7
 10
496.10327960200561
 20
40.499999999999993
 30
0.0
 11
503.95327960200569
 21
-40.499999999999993
 31
0.0
  0
LINE
  5
102A
  8
0
  6
CONTINUOUS
 62
     7
 10
510.39672039799348
 20
40.499999999999993
 30
0.0
 11
518.2467203979935
 21
-40.499999999999993
 31
0.0
  0
LINE
  5
102B
  8
0
  6
CONTINUOUS
 62
     7
 10
511.8032796020056
 20
40.499999999999993
 30
0.0
 11
519.65327960200545
 21
-40.499999999999993
 31
0.0
  0
LINE
  5
102C
  8
0
  6
CONTINUOUS
 62
     7
 10
510.75111111111067
 20
-36.89999999999997
 30
0.0
 11
518.2467203979935
 21
-40.499999999999993
 31
0.0
  0
LINE
  5
102D
  8
0
  6
CONTINUOUS
 62
     7
 10
503.95327960200569
 20
-40.499999999999993
 30
0.0
 11
510.75111111111067
 21
-36.89999999999997
 31
0.0
  0
LINE
  5
102E
  8
0
  6
CONTINUOUS
 62
     7
 10
526.09672039799352
 20
40.499999999999993
 30
0.0
 11
533.94672039799343
 21
-40.499999999999993
 31
0.0
  0
LINE
  5
102F
  8
0
  6
CONTINUOUS
 62
     7
 10
527.50327960200536
 20
40.499999999999993
 30
0.0
 11
535.35327960200561
 21
-40.499999999999993
 31
0.0
  0
LINE
  5
1030
  8
0
  6
CONTINUOUS
 62
     7
 10
526.45111111111055
 20
-36.89999999999997
 30
0.0
 11
533.94672039799343
 21
-40.499999999999993
 31
0.0
  0
LINE
  5
1031
  8
0
  6
CONTINUOUS
 62
     7
 10
519.65327960200545
 20
-40.499999999999993
 30
0.0
 11
526.45111111111055
 21
-36.89999999999997
 31
0.0
  0
LINE
  5
1032
  8
0
  6
CONTINUOUS
 62
     7
 10
541.79672039799334
 20
40.499999999999993
 30
0.0
 11
549.64672039799348
 21
-40.499999999999993
 31
0.0
  0
LINE
  5
1033
  8
0
  6
CONTINUOUS
 62
     7
 10
543.20327960200575
 20
40.499999999999993
 30
0.0
 11
551.05327960200555
 21
-40.499999999999993
 31
0.0
  0
LINE
  5
1034
  8
0
  6
CONTINUOUS
 62
     7
 10
542.15111111111082
 20
-36.89999999999997
 30
0.0
 11
549.64672039799348
 21
-40.499999999999993
 31
0.0
  0
LINE
  5
1035
  8
0
  6
CONTINUOUS
 62
     7
 10
535.35327960200561
 20
-40.499999999999993
 30
0.0
 11
542.15111111111082
 21
-36.89999999999997
 31
0.0
  0
LINE
  5
1036
  8
0
  6
CONTINUOUS
 62
     7
 10
551.05327960200555
 20
-40.499999999999993
 30
0.0
 11
557.85111111111064
 21
-36.89999999999997
 31
0.0
  0
LINE
  5
1037
  8
0
  6
CONTINUOUS
 62
     7
 10
471.14672039799359
 20
-40.499999999999993
 30
0.0
 11
472.5532796020056
 21
-40.499999999999993
 31
0.0
  0
LINE
  5
1038
  8
0
  6
CONTINUOUS
 62
     7
 10
486.84672039799352
 20
-40.499999999999993
 30
0.0
 11
488.25327960200542
 21
-40.499999999999993
 31
0.0
  0
LINE
  5
1039
  8
0
  6
CONTINUOUS
 62
     7
 10
502.54672039799351
 20
-40.499999999999993
 30
0.0
 11
503.95327960200569
 21
-40.499999999999993
 31
0.0
  0
LINE
  5
103A
  8
0
  6
CONTINUOUS
 62
     7
 10
518.2467203979935
 20
-40.499999999999993
 30
0.0
 11
519.65327960200545
 21
-40.499999999999993
 31
0.0
  0
LINE
  5
103B
  8
0
  6
CONTINUOUS
 62
     7
 10
533.94672039799343
 20
-40.499999999999993
 30
0.0
 11
535.35327960200561
 21
-40.499999999999993
 31
0.0
  0
LINE
  5
103C
  8
0
  6
CONTINUOUS
 62
     7
 10
549.64672039799348
 20
-40.499999999999993
 30
0.0
 11
551.05327960200555
 21
-40.499999999999993
 31
0.0
  0
LINE
  5
103D
  8
0
  6
CONTINUOUS
 62
     7
 10
527.50327960200536
 20
40.499999999999993
 30
0.0
 11
534.99888888888836
 21
36.89999999999997
 31
0.0
  0
LINE
  5
103E
  8
0
  6
CONTINUOUS
 62
     7
 10
472.19888888888858
 20
36.89999999999997
 30
0.0
 11
479.35111111111058
 21
-36.89999999999997
 31
0.0
  0
LINE
  5
103F
  8
0
  6
CONTINUOUS
 62
     7
 10
487.89888888888839
 20
36.89999999999997
 30
0.0
 11
495.05111111111057
 21
-36.89999999999997
 31
0.0
  0
LINE
  5
1040
  8
0
  6
CONTINUOUS
 62
     7
 10
503.59888888888838
 20
36.89999999999997
 30
0.0
 11
510.75111111111067
 21
-36.89999999999997
 31
0.0
  0
LINE
  5
1041
  8
0
  6
CONTINUOUS
 62
     7
 10
519.29888888888854
 20
36.89999999999997
 30
0.0
 11
526.45111111111055
 21
-36.89999999999997
 31
0.0
  0
LINE
  5
1042
  8
0
  6
CONTINUOUS
 62
     7
 10
487.89888888888839
 20
36.89999999999997
 30
0.0
 11
494.69672039799337
 21
40.499999999999993
 31
0.0
  0
LINE
  5
1043
  8
0
  6
CONTINUOUS
 62
     7
 10
472.19888888888858
 20
36.89999999999997
 30
0.0
 11
478.9967203979935
 21
40.499999999999993
 31
0.0
  0
LINE
  5
1044
  8
0
  6
CONTINUOUS
 62
     7
 10
463.29672039799351
 20
40.499999999999993
 30
0.0
 11
464.70327960200569
 21
40.499999999999993
 31
0.0
  0
LINE
  5
1045
  8
0
  6
CONTINUOUS
 62
     7
 10
464.70327960200569
 20
40.499999999999993
 30
0.0
 11
472.19888888888858
 21
36.89999999999997
 31
0.0
  0
LINE
  5
1046
  8
0
  6
CONTINUOUS
 62
     7
 10
478.9967203979935
 20
40.499999999999993
 30
0.0
 11
480.40327960200551
 21
40.499999999999993
 31
0.0
  0
LINE
  5
1047
  8
0
  6
CONTINUOUS
 62
     7
 10
480.40327960200551
 20
40.499999999999993
 30
0.0
 11
487.89888888888839
 21
36.89999999999997
 31
0.0
  0
LINE
  5
1048
  8
0
  6
CONTINUOUS
 62
     7
 10
510.39672039799348
 20
40.499999999999993
 30
0.0
 11
511.8032796020056
 21
40.499999999999993
 31
0.0
  0
LINE
  5
1049
  8
0
  6
CONTINUOUS
 62
     7
 10
494.69672039799337
 20
40.499999999999993
 30
0.0
 11
496.10327960200561
 21
40.499999999999993
 31
0.0
  0
LINE
  5
104A
  8
0
  6
CONTINUOUS
 62
     7
 10
496.10327960200561
 20
40.499999999999993
 30
0.0
 11
503.59888888888838
 21
36.89999999999997
 31
0.0
  0
LINE
  5
104B
  8
0
  6
CONTINUOUS
 62
     7
 10
503.59888888888838
 20
36.89999999999997
 30
0.0
 11
510.39672039799348
 21
40.499999999999993
 31
0.0
  0
LINE
  5
104C
  8
0
  6
CONTINUOUS
 62
     7
 10
519.29888888888854
 20
36.89999999999997
 30
0.0
 11
526.09672039799352
 21
40.499999999999993
 31
0.0
  0
LINE
  5
104D
  8
0
  6
CONTINUOUS
 62
     7
 10
526.09672039799352
 20
40.499999999999993
 30
0.0
 11
527.50327960200536
 21
40.499999999999993
 31
0.0
  0
LINE
  5
104E
  8
0
  6
CONTINUOUS
 62
     7
 10
511.8032796020056
 20
40.499999999999993
 30
0.0
 11
519.29888888888854
 21
36.89999999999997
 31
0.0
  0
LINE
  5
104F
  8
0
  6
CONTINUOUS
 62
     7
 10
557.49672039799361
 20
40.499999999999993
 30
0.0
 11
565.0
 21
-36.922375511149653
 31
0.0
  0
LINE
  5
1050
  8
0
  6
CONTINUOUS
 62
     7
 10
558.90327960200545
 20
40.499999999999993
 30
0.0
 11
565.0
 21
-22.408834679943311
 31
0.0
  0
LINE
  5
1051
  8
0
  6
CONTINUOUS
 62
     7
 10
534.99888888888836
 20
36.89999999999997
 30
0.0
 11
542.15111111111082
 21
-36.89999999999997
 31
0.0
  0
LINE
  5
1052
  8
0
  6
CONTINUOUS
 62
     7
 10
550.6988888888884
 20
36.89999999999997
 30
0.0
 11
557.85111111111064
 21
-36.89999999999997
 31
0.0
  0
LINE
  5
1053
  8
0
  6
CONTINUOUS
 62
     7
 10
558.90327960200545
 20
40.499999999999993
 30
0.0
 11
565.0
 21
37.57185999259741
 31
0.0
  0
LINE
  5
1054
  8
0
  6
CONTINUOUS
 62
     7
 10
543.20327960200575
 20
40.499999999999993
 30
0.0
 11
550.6988888888884
 21
36.89999999999997
 31
0.0
  0
LINE
  5
1055
  8
0
  6
CONTINUOUS
 62
     7
 10
534.99888888888836
 20
36.89999999999997
 30
0.0
 11
541.79672039799334
 21
40.499999999999993
 31
0.0
  0
LINE
  5
1056
  8
0
  6
CONTINUOUS
 62
     7
 10
541.79672039799334
 20
40.499999999999993
 30
0.0
 11
543.20327960200575
 21
40.499999999999993
 31
0.0
  0
LINE
  5
1057
  8
0
  6
CONTINUOUS
 62
     7
 10
550.6988888888884
 20
36.89999999999997
 30
0.0
 11
557.49672039799361
 21
40.499999999999993
 31
0.0
  0
LINE
  5
1058
  8
0
  6
CONTINUOUS
 62
     7
 10
557.49672039799361
 20
40.499999999999993
 30
0.0
 11
558.90327960200545
 21
40.499999999999993
 31
0.0
  0
LINE
  5
1059
  8
0
  6
CONTINUOUS
 62
     7
 10
610.0
 20
-41.0
 30
0.0
 11
610.0
 21
41.0
 31
0.0
  0
LINE
  5
105A
  8
0
  6
CONTINUOUS
 62
     7
 10
650.0
 20
-41.25
 30
0.0
 11
650.0
 21
41.25
 31
0.0
  0
LINE
  5
105B
  8
0
  6
CONTINUOUS
 62
     7
 10
650.0
 20
-41.25
 30
0.0
 11
609.98956518577495
 21
-41.25
 31
0.0
  0
ARC
  5
105C
  8
0
  6
CONTINUOUS
 62
     7
 10
607.0
 20
-41.0
 30
0.0
 40
3.0
 50
270.0
 51
0.0
  0
LINE
  5
105D
  8
0
  6
DASHED
 62
     3
 10
650.0
 20
-38.25
 30
0.0
 11
610.0
 21
-38.25
 31
0.0
  0
LINE
  5
105E
  8
0
  6
CONTINUOUS
 62
     7
 10
650.0
 20
41.25
 30
0.0
 11
609.98956518577495
 21
41.25
 31
0.0
  0
LINE
  5
105F
  8
0
  6
DASHED
 62
     3
 10
650.0
 20
38.25
 30
0.0
 11
610.0
 21
38.25
 31
0.0
  0
ARC
  5
1060
  8
0
  6
CONTINUOUS
 62
     7
 10
607.0
 20
41.0
 30
0.0
 40
3.0
 50
0.0
 51
90.0
  0
ENDSEC
  0
EOF
