  0
SECTION
  2
HEADER
  9
$ACADVER
  1
AC1009
  9
$INSBASE
 10
0.0
 20
0.0
 30
0.0
  9
$EXTMIN
 10
-1.012846920188508
 20
-13.009459727454781
 30
-0.0015258207003583
  9
$EXTMAX
 10
76.524231537389923
 20
51.510803658644249
 30
0.0000000349246037
  9
$LIMMIN
 10
0.0
 20
0.0
  9
$LIMMAX
 10
420.0
 20
297.0
  9
$ORTHOMODE
 70
     0
  9
$REGENMODE
 70
     1
  9
$FILLMODE
 70
     1
  9
$QTEXTMODE
 70
     0
  9
$MIRRTEXT
 70
     0
  9
$DRAGMODE
 70
     2
  9
$LTSCALE
 40
0.5
  9
$OSMODE
 70
  3071
  9
$ATTMODE
 70
     1
  9
$TEXTSIZE
 40
3.0
  9
$TRACEWID
 40
1.0
  9
$TEXTSTYLE
  7
STANDARD
  9
$CLAYER
  8
MSM_CONTINUOUS
  9
$CELTYPE
  6
BYLAYER
  9
$CECOLOR
 62
   256
  9
$DIMSCALE
 40
1.0
  9
$DIMASZ
 40
2.5
  9
$DIMEXO
 40
0.625
  9
$DIMDLI
 40
3.75
  9
$DIMRND
 40
0.0
  9
$DIMDLE
 40
0.0
  9
$DIMEXE
 40
1.25
  9
$DIMTP
 40
0.0
  9
$DIMTM
 40
0.0
  9
$DIMTXT
 40
3.0
  9
$DIMCEN
 40
2.5
  9
$DIMTSZ
 40
0.0
  9
$DIMTOL
 70
     0
  9
$DIMLIM
 70
     0
  9
$DIMTIH
 70
     0
  9
$DIMTOH
 70
     0
  9
$DIMSE1
 70
     0
  9
$DIMSE2
 70
     0
  9
$DIMTAD
 70
     1
  9
$DIMZIN
 70
     8
  9
$DIMBLK
  1
OPEN30
  9
$DIMASO
 70
     1
  9
$DIMSHO
 70
     1
  9
$DIMPOST
  1

  9
$DIMAPOST
  1

  9
$DIMALT
 70
     0
  9
$DIMALTD
 70
     3
  9
$DIMALTF
 40
0.03937007874016
  9
$DIMLFAC
 40
1.0
  9
$DIMTOFL
 70
     1
  9
$DIMTVP
 40
0.0
  9
$DIMTIX
 70
     0
  9
$DIMSOXD
 70
     0
  9
$DIMSAH
 70
     0
  9
$DIMBLK1
  1

  9
$DIMBLK2
  1

  9
$DIMSTYLE
  2
MISUMI
  9
$DIMCLRD
 70
   256
  9
$DIMCLRE
 70
   256
  9
$DIMCLRT
 70
   256
  9
$DIMTFAC
 40
1.0
  9
$DIMGAP
 40
0.625
  9
$LUNITS
 70
     2
  9
$LUPREC
 70
     2
  9
$SKETCHINC
 40
1.0
  9
$FILLETRAD
 40
0.0
  9
$AUNITS
 70
     0
  9
$AUPREC
 70
     0
  9
$MENU
  1
.
  9
$ELEVATION
 40
0.0
  9
$PELEVATION
 40
0.0
  9
$THICKNESS
 40
0.0
  9
$LIMCHECK
 70
     0
  9
$BLIPMODE
 70
     0
  9
$CHAMFERA
 40
0.5
  9
$CHAMFERB
 40
0.5
  9
$SKPOLY
 70
     0
  9
$TDCREATE
 40
2455135.5720697111
  9
$TDUPDATE
 40
2458059.5477383221
  9
$TDINDWG
 40
0.7039729051
  9
$TDUSRTIMER
 40
2458046.179414873
  9
$USRTIMER
 70
     1
  9
$ANGBASE
 50
0.0
  9
$ANGDIR
 70
     0
  9
$PDMODE
 70
    35
  9
$PDSIZE
 40
0.0
  9
$PLINEWID
 40
0.0
  9
$COORDS
 70
     0
  9
$SPLFRAME
 70
     0
  9
$SPLINETYPE
 70
     6
  9
$SPLINESEGS
 70
     8
  9
$ATTDIA
 70
     0
  9
$ATTREQ
 70
     1
  9
$HANDLING
 70
     1
  9
$HANDSEED
  5
E8A5
  9
$SURFTAB1
 70
     6
  9
$SURFTAB2
 70
     6
  9
$SURFTYPE
 70
     6
  9
$SURFU
 70
     6
  9
$SURFV
 70
     6
  9
$UCSNAME
  2

  9
$UCSORG
 10
0.0
 20
0.0
 30
0.0
  9
$UCSXDIR
 10
1.0
 20
0.0
 30
0.0
  9
$UCSYDIR
 10
0.0
 20
1.0
 30
0.0
  9
$PUCSNAME
  2

  9
$PUCSORG
 10
0.0
 20
0.0
 30
0.0
  9
$PUCSXDIR
 10
1.0
 20
0.0
 30
0.0
  9
$PUCSYDIR
 10
0.0
 20
1.0
 30
0.0
  9
$USERI1
 70
     0
  9
$USERI2
 70
     0
  9
$USERI3
 70
     0
  9
$USERI4
 70
     0
  9
$USERI5
 70
     0
  9
$USERR1
 40
0.0
  9
$USERR2
 40
0.0
  9
$USERR3
 40
0.0
  9
$USERR4
 40
0.0
  9
$USERR5
 40
0.0
  9
$WORLDVIEW
 70
     1
  9
$SHADEDGE
 70
     3
  9
$SHADEDIF
 70
    70
  9
$TILEMODE
 70
     1
  9
$MAXACTVP
 70
    64
  9
$PLIMCHECK
 70
     0
  9
$PEXTMIN
 10
0.0
 20
0.0
 30
0.0
  9
$PEXTMAX
 10
0.0
 20
0.0
 30
0.0
  9
$PLIMMIN
 10
0.0
 20
0.0
  9
$PLIMMAX
 10
12.0
 20
9.0
  9
$UNITMODE
 70
     0
  9
$VISRETAIN
 70
     1
  9
$PLINEGEN
 70
     0
  9
$PSLTSCALE
 70
     1
  0
ENDSEC
  0
SECTION
  2
TABLES
  0
TABLE
  2
VPORT
 70
     1
  0
VPORT
  2
*ACTIVE
 70
     0
 10
0.0
 20
0.0
 11
1.0
 21
1.0
 12
37.755692308600707
 22
19.25067196559473
 13
0.0
 23
0.0
 14
10.0
 24
10.0
 15
10.0
 25
10.0
 16
0.0
 26
0.0
 36
1.0
 17
0.0
 27
0.0
 37
0.0
 40
65.03849843337693
 41
2.0898123324396778
 42
50.0
 43
0.0
 44
0.0
 50
0.0
 51
0.0
 71
    16
 72
  1000
 73
     1
 74
     3
 75
     0
 76
     0
 77
     0
 78
     0
  0
ENDTAB
  0
TABLE
  2
LTYPE
 70
     2
  0
LTYPE
  2
CONTINUOUS
 70
     0
  3
Solid line
 72
    65
 73
     0
 40
0.0
  0
LTYPE
  2
CENTER
 70
     0
  3
Center ____ _ ____ _ ____ _ ____ _ ____ _ ____
 72
    65
 73
     4
 40
50.799999999999997
 49
31.75
 49
-6.3499999999999988
 49
6.3499999999999988
 49
-6.3499999999999988
  0
ENDTAB
  0
TABLE
  2
LAYER
 70
     4
  0
LAYER
  2
0
 70
     0
 62
     7
  6
CONTINUOUS
  0
LAYER
  2
MSM_CENTER
 70
     0
 62
     1
  6
CENTER
  0
LAYER
  2
MSM_CONTINUOUS
 70
     0
 62
     7
  6
CONTINUOUS
  0
LAYER
  2
MSM_PART_NUMBER
 70
     0
 62
     7
  6
CONTINUOUS
  0
ENDTAB
  0
TABLE
  2
STYLE
 70
     1
  0
STYLE
  2
STANDARD
 70
     0
 40
3.0
 41
1.0
 50
0.0
 71
     0
 42
3.0
  3
txt.shx
  4
bigfont.shx
  0
ENDTAB
  0
TABLE
  2
VIEW
 70
     0
  0
ENDTAB
  0
TABLE
  2
UCS
 70
     0
  0
ENDTAB
  0
TABLE
  2
APPID
 70
    25
  0
APPID
  2
ACAD
 70
     0
  0
APPID
  2
ACAD_MLEADERVER
 70
     0
  0
APPID
  2
ACAD_EXEMPT_FROM_CAD_STANDARDS
 70
     0
  0
APPID
  2
ACDBBLOCKREPETAG
 70
     0
  0
APPID
  2
ACAD_DSTYLE_DIMJOGGED_JOGA
 70
     0
  0
APPID
  2
ACAECLAYERSTANDARD
 70
     0
  0
APPID
  2
GENIUS_GENODEF_13
 70
     0
  0
APPID
  2
GENIUS_GENOBJ-N-FIL_13
 70
     0
  0
APPID
  2
ACAD_PSEXT
 70
     0
  0
APPID
  2
ACAD_DSTYLE_DIMRADIAL_EXTENSION
 70
     0
  0
APPID
  2
ACDBDYNAMICBLOCKTRUENAME
 70
     0
  0
APPID
  2
ACDBDYNAMICBLOCKGUID
 70
     0
  0
APPID
  2
ACDBBLOCKREPBTAG
 70
     0
  0
APPID
  2
ACAUTHENVIRON
 70
     0
  0
APPID
  2
GRADIENTCOLOR1ACI
 70
     0
  0
APPID
  2
GRADIENTCOLOR2ACI
 70
     0
  0
APPID
  2
ACAD_DSTYLE_DIMJAG
 70
     0
  0
APPID
  2
ACAD_DSTYLE_DIMTALN
 70
     0
  0
APPID
  2
ACCMTRANSPARENCY
 70
     0
  0
APPID
  2
ACAD_DSTYLE_DIMBREAK
 70
     0
  0
APPID
  2
ACAD_DSTYLE_DIMFLIPARROW_W
 70
     0
  0
APPID
  2
ACAD_DSTYLE_DIM_LINETYPE
 70
     0
  0
APPID
  2
ACAD_DSTYLE_DIM_EXT1_LINETYPE
 70
     0
  0
APPID
  2
ACAD_DSTYLE_DIM_EXT2_LINETYPE
 70
     0
  0
APPID
  2
ACAD_NAV_VCDISPLAY
 70
     0
  0
ENDTAB
  0
TABLE
  2
DIMSTYLE
 70
     1
  0
DIMSTYLE
  2
MISUMI
 70
     0
  3

  4

  5
OPEN30
  6

  7

 40
1.0
 41
2.5
 42
0.625
 43
3.75
 44
1.25
 45
0.0
 46
0.0
 47
0.0
 48
0.0
140
3.0
141
2.5
142
0.0
143
0.03937007874016
144
1.0
145
0.0
146
1.0
147
0.625
 71
     0
 72
     0
 73
     0
 74
     0
 75
     0
 76
     0
 77
     1
 78
     8
170
     0
171
     3
172
     1
173
     0
174
     0
175
     0
176
   256
177
   256
178
   256
  0
ENDTAB
  0
ENDSEC
  0
SECTION
  2
BLOCKS
  0
BLOCK
  8
0
  2
$MODEL_SPACE
 70
     0
 10
0.0
 20
0.0
 30
0.0
  3
$MODEL_SPACE
  1

  0
ENDBLK
  5
21
  8
0
  0
BLOCK
 67
     1
  8
0
  2
$PAPER_SPACE
 70
     0
 10
0.0
 20
0.0
 30
0.0
  3
$PAPER_SPACE
  1

  0
ENDBLK
  5
E84A
 67
     1
  8
0
  0
BLOCK
  8
0
 62
     7
  2
_OPEN30
 70
     0
 10
0.0
 20
0.0
 30
0.0
  3
_OPEN30
  1

  0
LINE
  5
D7
  8
0
  6
BYBLOCK
 62
     0
 10
-1.0
 20
0.26794919
 30
0.0
 11
0.0
 21
0.0
 31
0.0
  0
LINE
  5
D8
  8
0
  6
BYBLOCK
 62
     0
 10
0.0
 20
0.0
 30
0.0
 11
-1.0
 21
-0.26794919
 31
0.0
  0
LINE
  5
D9
  8
0
  6
BYBLOCK
 62
     0
 10
0.0
 20
0.0
 30
0.0
 11
-1.0
 21
0.0
 31
0.0
  0
ENDBLK
  5
DB
  8
0
 62
     7
  0
BLOCK
  8
0
  2
*U2
 70
     1
 10
0.0
 20
0.0
 30
0.0
  3
*U2
  1

  0
TEXT
  5
E88E
  8
MSM_PART_NUMBER
 10
0.0
 20
-3.0
 30
0.0
 40
3.0
  1
GEAHBB0.5-51-2-A-3
  0
ENDBLK
  5
E890
  8
0
  0
BLOCK
  8
0
  2
*U3
 70
     1
 10
0.0
 20
0.0
 30
0.0
  3
*U3
  1

  0
TEXT
  5
E892
  8
MSM_PART_NUMBER
 10
0.0
 20
-8.0
 30
0.0
 40
3.0
  1
GEAHBB0.5-51-2-B-3
  0
ENDBLK
  5
E894
  8
0
  0
BLOCK
  8
0
  2
*U4
 70
     1
 10
0.0
 20
0.0
 30
0.0
  3
*U4
  1

  0
TEXT
  5
E896
  8
MSM_PART_NUMBER
 10
0.0
 20
-13.0
 30
0.0
 40
3.0
  1
GEAHBB0.5-51-2
  0
ENDBLK
  5
E898
  8
0
  0
BLOCK
  8
0
  2
*U5
 70
     1
 10
0.0
 20
0.0
 30
0.0
  3
*U5
  1

  0
TEXT
  5
E89A
  8
MSM_PART_NUMBER
 10
46.499999999999993
 20
48.499999999999943
 30
0.0
 40
3.0
  1
A
  0
ENDBLK
  5
E89C
  8
0
  0
BLOCK
  8
0
  2
*U6
 70
     1
 10
0.0
 20
0.0
 30
0.0
  3
*U6
  1

  0
TEXT
  5
E89E
  8
MSM_PART_NUMBER
 10
68.5
 20
48.499999999999943
 30
0.0
 40
3.0
  1
B
  0
ENDBLK
  5
E8A0
  8
0
  0
ENDSEC
  0
SECTION
  2
ENTITIES
  0
INSERT
  5
DCB4
  8
MSM_CONTINUOUS
  2
*U2
 10
0.0
 20
0.0
 30
0.0
  0
INSERT
  5
E22D
  8
MSM_CONTINUOUS
  2
*U3
 10
0.0
 20
0.0
 30
0.0
  0
INSERT
  5
E22E
  8
MSM_CONTINUOUS
  2
*U4
 10
0.0
 20
0.0
 30
0.0
  0
LINE
  5
E515
  8
MSM_CENTER
 10
76.500000000000028
 20
23.25
 30
0.0
 11
67.5
 21
23.25
 31
0.0
  0
LINE
  5
E516
  8
MSM_CENTER
 10
-1.0000000000000071
 20
23.25
 30
0.0
 11
27.5
 21
23.25
 31
0.0
  0
LINE
  5
E517
  8
MSM_CENTER
 10
13.249999999999989
 20
9.0
 30
0.0
 11
13.249999999999989
 21
37.5
 31
0.0
  0
ARC
  5
E518
  8
MSM_CONTINUOUS
 10
22.306166273111199
 20
14.46855403085223
 30
0.0
 40
0.4133980923702654
 50
27.64705894117931
 51
37.552638484788517
  0
ARC
  5
E519
  8
MSM_CONTINUOUS
 10
25.74577628264818
 20
17.109405864620548
 30
0.0
 40
3.9230769999998691
 50
211.82882272238109
 51
217.51236916064209
  0
ARC
  5
E51A
  8
MSM_CONTINUOUS
 10
22.625029055272261
 20
15.1722865108497
 30
0.0
 40
0.2500000000000003
 50
139.25115171314999
 51
211.8288227223824
  0
ARC
  5
E51B
  8
MSM_CONTINUOUS
 10
13.249999999884279
 20
23.250000000099419
 30
0.0
 40
12.12500000015257
 50
319.25115171315281
 51
319.57237769860961
  0
ARC
  5
E51C
  8
MSM_CONTINUOUS
 10
22.670168784667311
 20
15.22497382755796
 30
0.0
 40
0.2500000000000054
 50
66.994706689388806
 51
139.5723776986178
  0
ARC
  5
E51D
  8
MSM_CONTINUOUS
 10
21.234670905636388
 20
11.84402122700039
 30
0.0
 40
3.9230769999986741
 50
61.311160251496581
 51
66.99470668938504
  0
ARC
  5
E51E
  8
MSM_CONTINUOUS
 10
23.31666203314791
 20
15.648009708919909
 30
0.0
 40
0.4133980923701547
 50
241.2708909234251
 51
251.1764663400775
  0
ARC
  5
E51F
  8
MSM_CONTINUOUS
 10
24.55455862088613
 20
19.279418008146688
 30
0.0
 40
4.2499999999997531
 50
251.17647006881211
 51
258.0920362895996
  0
ARC
  5
E520
  8
MSM_CONTINUOUS
 10
17.566823367770699
 20
12.073077213358269
 30
0.0
 40
4.2499999999989351
 50
13.672669350753489
 51
20.588235411765439
  0
ARC
  5
E521
  8
MSM_CONTINUOUS
 10
21.158388263721701
 20
13.42221612236375
 30
0.0
 40
0.4133980923702613
 50
20.588235411766121
 51
30.493814955690599
  0
ARC
  5
E522
  8
MSM_CONTINUOUS
 10
24.896457550210251
 20
15.620363850575229
 30
0.0
 40
3.9230770000005339
 50
204.76999919296969
 51
210.4535456311969
  0
ARC
  5
E523
  8
MSM_CONTINUOUS
 10
21.56131471006152
 20
14.08143016657915
 30
0.0
 40
0.2499999999999915
 50
132.1923281837378
 51
204.76999919297251
  0
ARC
  5
E524
  8
MSM_CONTINUOUS
 10
13.25000000071539
 20
23.249999999215351
 30
0.0
 40
12.12499999893819
 50
312.19232818372558
 51
312.51355416921461
  0
ARC
  5
E525
  8
MSM_CONTINUOUS
 10
21.612586957604201
 20
14.12817099609358
 30
0.0
 40
0.2500000000000052
 50
59.93588315997993
 51
132.51355416920561
  0
ARC
  5
E526
  8
MSM_CONTINUOUS
 10
19.77248993496109
 20
10.949250173676489
 30
0.0
 40
3.9230770000011099
 50
54.252336722086582
 51
59.935883159971638
  0
ARC
  5
E527
  8
MSM_CONTINUOUS
 10
22.306166273111021
 20
14.46855403085196
 30
0.0
 40
0.4133980923698021
 50
234.21206739400751
 51
244.11764188235719
  0
ARC
  5
E528
  8
MSM_CONTINUOUS
 10
23.980937794233121
 20
17.92031511031086
 30
0.0
 40
4.249999999999643
 50
244.11764644910281
 51
251.03321276018781
  0
ARC
  5
E529
  8
MSM_CONTINUOUS
 10
16.160591110664519
 20
11.62730554675025
 30
0.0
 40
4.249999999999245
 50
6.6138457911441524
 51
13.52941188235344
  0
ARC
  5
E52A
  8
MSM_CONTINUOUS
 10
19.89072714962186
 20
12.524857399569139
 30
0.0
 40
0.4133980923696605
 50
13.529411882346819
 51
23.43499142628599
  0
ARC
  5
E52B
  8
MSM_CONTINUOUS
 10
23.87059039305587
 20
14.246979343332031
 30
0.0
 40
3.9230770000007249
 50
197.71117566355829
 51
203.39472210178479
  0
ARC
  5
E52C
  8
MSM_CONTINUOUS
 10
20.371609305933958
 20
13.129559995057789
 30
0.0
 40
0.2499999999999891
 50
125.1335046543248
 51
197.7111756635598
  0
ARC
  5
E52D
  8
MSM_CONTINUOUS
 10
13.25000000042936
 20
23.249999999393971
 30
0.0
 40
12.12499999925728
 50
305.13350465431711
 51
305.45473063979762
  0
ARC
  5
E52E
  8
MSM_CONTINUOUS
 10
20.428236836615572
 20
13.169645794047939
 30
0.0
 40
0.2500000000000002
 50
52.877059630567693
 51
125.45473063979379
  0
ARC
  5
E52F
  8
MSM_CONTINUOUS
 10
18.211434665532309
 20
10.24094594902709
 30
0.0
 40
3.9230770000021291
 50
47.193513192478022
 51
52.877059630558882
  0
ARC
  5
E530
  8
MSM_CONTINUOUS
 10
21.158388263721829
 20
13.42221612236386
 30
0.0
 40
0.4133980923703082
 50
227.1532438664695
 51
237.05882341176161
  0
ARC
  5
E531
  8
MSM_CONTINUOUS
 10
23.244646889135151
 20
16.642004802621159
 30
0.0
 40
4.2499999999995612
 50
237.05882341176439
 51
243.97438923077661
  0
ARC
  5
E532
  8
MSM_CONTINUOUS
 10
14.71023725921316
 20
11.3577220805312
 30
0.0
 40
4.2500000000002549
 50
359.5550227759278
 51
6.470588352940533
  0
ARC
  5
E533
  8
MSM_CONTINUOUS
 10
18.52239938111774
 20
11.79008090598842
 30
0.0
 40
0.4133980923696551
 50
6.4705883529375017
 51
16.376167896875309
  0
ARC
  5
E534
  8
MSM_CONTINUOUS
 10
22.68372591157306
 20
13.010071452069081
 30
0.0
 40
3.9230769999973751
 50
190.65235213414391
 51
196.3358985723753
  0
ARC
  5
E535
  8
MSM_CONTINUOUS
 10
19.073947564097249
 20
12.33110537780286
 30
0.0
 40
0.2499999999999978
 50
118.07468112491711
 51
190.65235213414789
  0
ARC
  5
E536
  8
MSM_CONTINUOUS
 10
13.24999999976465
 20
23.25000000043887
 30
0.0
 40
12.125000000498
 50
298.07468112492182
 51
298.39590711036942
  0
ARC
  5
E537
  8
MSM_CONTINUOUS
 10
19.135071962275578
 20
12.363928486417249
 30
0.0
 40
0.2499999999999966
 50
45.818236101153857
 51
118.39590711038061
  0
ARC
  5
E538
  8
MSM_CONTINUOUS
 10
16.575169103983729
 20
9.7298457230927795
 30
0.0
 40
3.9230770000006552
 50
40.13468966306516
 51
45.818236101148159
  0
ARC
  5
E539
  8
MSM_CONTINUOUS
 10
19.890727149621199
 20
12.52485739956883
 30
0.0
 40
0.4133980923699851
 50
220.094420337055
 51
229.99999884972499
  0
ARC
  5
E53A
  8
MSM_CONTINUOUS
 10
22.356847325179871
 20
15.463864966304159
 30
0.0
 40
4.2499999999993223
 50
229.9999997819082
 51
236.9155657013649
  0
ARC
  5
E53B
  8
MSM_CONTINUOUS
 10
13.23774769939674
 20
11.26841342525082
 30
0.0
 40
4.2500000000005471
 50
352.49619924651722
 51
359.41176482352847
  0
ARC
  5
E53C
  8
MSM_CONTINUOUS
 10
17.074147412383368
 20
11.2290251042746
 30
0.0
 40
0.4133980923701492
 50
359.41176482353131
 51
9.3173443677117511
  0
ARC
  5
E53D
  8
MSM_CONTINUOUS
 10
21.35385576148737
 20
11.92839043958584
 30
0.0
 40
3.9230770000000952
 50
183.59352860473339
 51
189.2770750429342
  0
ARC
  5
E53E
  8
MSM_CONTINUOUS
 10
17.688000713794072
 20
11.69817007291212
 30
0.0
 40
0.2499999999999941
 50
111.0158575955022
 51
183.5935286047357
  0
ARC
  5
E53F
  8
MSM_CONTINUOUS
 10
13.249999999980441
 20
23.250000000049489
 30
0.0
 40
12.12500000005323
 50
291.01585759550721
 51
291.33708245433741
  0
ARC
  5
E540
  8
MSM_CONTINUOUS
 10
17.752695395899451
 20
11.723232926282281
 30
0.0
 40
0.2500000000000006
 50
38.759412571713298
 51
111.3371382224763
  0
ARC
  5
E541
  8
MSM_CONTINUOUS
 10
14.888497368309711
 20
9.4236972543096869
 30
0.0
 40
3.923076999999239
 50
33.075866133849964
 51
38.759412571737592
  0
ARC
  5
E542
  8
MSM_CONTINUOUS
 10
18.522399381117008
 20
11.790080905988241
 30
0.0
 40
0.4133980923699859
 50
213.03559680577911
 51
222.9411753203232
  0
ARC
  5
E543
  8
MSM_CONTINUOUS
 10
21.330997238784921
 20
14.40375500035017
 30
0.0
 40
4.250000000000675
 50
222.9411762524978
 51
229.85674217195191
  0
ARC
  5
E544
  8
MSM_CONTINUOUS
 10
11.76544387196884
 20
11.36073340908677
 30
0.0
 40
4.2500000000001519
 50
345.437375717105
 51
352.35294129411727
  0
ARC
  5
E545
  8
MSM_CONTINUOUS
 10
15.567925266998749
 20
10.850195028472969
 30
0.0
 40
0.4133980923703767
 50
352.35294129412267
 51
2.2585208380426338
  0
ARC
  5
E546
  8
MSM_CONTINUOUS
 10
19.901139418671249
 20
11.018333487424551
 30
0.0
 40
3.9230770000007822
 50
176.53470507532251
 51
182.21825151354949
  0
ARC
  5
E547
  8
MSM_CONTINUOUS
 10
16.23477829651862
 20
11.24034873442897
 30
0.0
 40
0.2500000000000029
 50
103.95703406609179
 51
176.5347050753218
  0
ARC
  5
E548
  8
MSM_CONTINUOUS
 10
13.24999999985207
 20
23.250000000588638
 30
0.0
 40
12.12500000060694
 50
283.95703406610062
 51
284.27825892491609
  0
ARC
  5
E549
  8
MSM_CONTINUOUS
 10
16.302062557116528
 20
11.257271405245399
 30
0.0
 40
0.2499999999999995
 50
31.700589042299679
 51
104.2783146930621
  0
ARC
  5
E54A
  8
MSM_CONTINUOUS
 10
13.1769876827228
 20
9.3271414413930245
 30
0.0
 40
3.9230769999998421
 50
26.017042604438782
 51
31.700589042325291
  0
ARC
  5
E54B
  8
MSM_CONTINUOUS
 10
17.0741474123834
 20
11.22902510427469
 30
0.0
 40
0.4133980923703077
 50
205.97677327636899
 51
215.88235282353381
  0
ARC
  5
E54C
  8
MSM_CONTINUOUS
 10
20.182647471564671
 20
13.4777450912245
 30
0.0
 40
4.2500000000012719
 50
215.88235282353031
 51
222.7979186425394
  0
ARC
  5
E54D
  8
MSM_CONTINUOUS
 10
2.2208665832685912
 20
27.93153639770313
 30
0.0
 40
4.2500000000001439
 50
239.5550226743045
 51
246.47058835294101
  0
ARC
  5
E54E
  8
MSM_CONTINUOUS
 10
0.689219248712881
 20
24.41392774406081
 30
0.0
 40
0.413398092370047
 50
246.47058835293871
 51
256.37616789655402
  0
ARC
  5
E54F
  8
MSM_CONTINUOUS
 10
-0.3349012112330314
 20
20.200117982200879
 30
0.0
 40
3.9230770000002599
 50
70.652352134146
 51
76.335898572406592
  0
ARC
  5
E550
  8
MSM_CONTINUOUS
 10
0.8819860938833485
 20
23.665760770281839
 30
0.0
 40
0.2499999999999973
 50
358.07468112491421
 51
70.652352134146497
  0
ARC
  5
E551
  8
MSM_CONTINUOUS
 10
13.25000000093978
 20
23.24999999997155
 30
0.0
 40
12.12500000094021
 50
178.07468112493149
 51
178.39590711036729
  0
ARC
  5
E552
  8
MSM_CONTINUOUS
 10
0.87984954068542
 20
23.59641393436117
 30
0.0
 40
0.2500000000000014
 50
285.81823610115248
 51
358.3959071103809
  0
ARC
  5
E553
  8
MSM_CONTINUOUS
 10
-0.1213816188778978
 20
27.130396222522521
 30
0.0
 40
3.9230769999985871
 50
280.13468966306391
 51
285.81823610114981
  0
ARC
  5
E554
  8
MSM_CONTINUOUS
 10
0.6413904740053696
 20
22.861532889042369
 30
0.0
 40
0.4133980923702011
 50
100.09442033706119
 51
109.9999948235276
  0
ARC
  5
E555
  8
MSM_CONTINUOUS
 10
1.95358560093377
 20
19.256306384855051
 30
0.0
 40
4.250000000000095
 50
109.99999939028029
 51
116.9155657013644
  0
ARC
  5
E556
  8
MSM_CONTINUOUS
 10
2.87976779892541
 20
29.251404090950501
 30
0.0
 40
4.2499999999990123
 50
232.49619914489151
 51
239.41176482352969
  0
ARC
  5
E557
  8
MSM_CONTINUOUS
 10
0.92745665585511
 20
25.9486786409222
 30
0.0
 40
0.4133980923701874
 50
239.41176482353151
 51
249.3173443671449
  0
ARC
  5
E558
  8
MSM_CONTINUOUS
 10
-0.6067293717910403
 20
21.892659822154229
 30
0.0
 40
3.9230769999999611
 50
63.593528604734239
 51
69.277075042995179
  0
ARC
  5
E559
  8
MSM_CONTINUOUS
 10
1.0268214660474899
 20
25.182493603384771
 30
0.0
 40
0.2500000000000088
 50
351.01585759550358
 51
63.59352860473355
  0
ARC
  5
E55A
  8
MSM_CONTINUOUS
 10
13.250000000559821
 20
23.24999999991347
 30
0.0
 40
12.12500000056647
 50
171.01585759551409
 51
171.3370835809599
  0
ARC
  5
E55B
  8
MSM_CONTINUOUS
 10
1.01617919270458
 20
25.113934938506659
 30
0.0
 40
0.2499999999999983
 50
278.75941257173872
 51
351.3370835809738
  0
ARC
  5
E55C
  8
MSM_CONTINUOUS
 10
0.4568218976625609
 20
28.744171027857419
 30
0.0
 40
3.923077000001677
 50
273.0758661336539
 51
278.7594125717352
  0
ARC
  5
E55D
  8
MSM_CONTINUOUS
 10
0.6892192487129734
 20
24.413927744060921
 30
0.0
 40
0.413398092370249
 50
93.035596807652595
 51
102.9411722224302
  0
ARC
  5
E55E
  8
MSM_CONTINUOUS
 10
1.5484284828094621
 20
20.674773603126042
 30
0.0
 40
4.2499999999998419
 50
102.94117595116511
 51
109.8567421719525
  0
ARC
  5
E55F
  8
MSM_CONTINUOUS
 10
3.6958711639184401
 20
30.48029661567465
 30
0.0
 40
4.2499999999991207
 50
225.43737561547979
 51
232.3529412941177
  0
ARC
  5
E560
  8
MSM_CONTINUOUS
 10
1.352491259185562
 20
27.442520320468681
 30
0.0
 40
0.4133980923702899
 50
232.3529412941204
 51
242.25852083757869
  0
ARC
  5
E561
  8
MSM_CONTINUOUS
 10
-0.6685036398451097
 20
23.605777555606789
 30
0.0
 40
3.9230770000002479
 50
56.534705075322371
 51
62.218251513599121
  0
ARC
  5
E562
  8
MSM_CONTINUOUS
 10
1.3569477651642501
 20
26.66993180333591
 30
0.0
 40
0.2499999999999963
 50
343.95703406609209
 51
56.534705075326571
  0
ARC
  5
E563
  8
MSM_CONTINUOUS
 10
13.25000000036127
 20
23.24999999989657
 30
0.0
 40
12.12500000037579
 50
163.95703406609519
 51
164.27826005154611
  0
ARC
  5
E564
  8
MSM_CONTINUOUS
 10
1.3379610976920731
 20
26.60320058897506
 30
0.0
 40
0.2499999999999975
 50
271.70058904232638
 51
344.27826005155691
  0
ARC
  5
E565
  8
MSM_CONTINUOUS
 10
1.228956953587381
 20
30.27465980085541
 30
0.0
 40
3.9230770000005442
 50
266.01704260424162
 51
271.70058904232462
  0
ARC
  5
E566
  8
MSM_CONTINUOUS
 10
0.9274566558551597
 20
25.948678640921958
 30
0.0
 40
0.4133980923704386
 50
85.976773278241495
 51
95.882347764702416
  0
ARC
  5
E567
  8
MSM_CONTINUOUS
 10
1.3206552609606801
 20
22.132278628532099
 30
0.0
 40
4.249999999999913
 50
95.882352331456374
 51
102.79791864254079
  0
ARC
  5
E568
  8
MSM_CONTINUOUS
 10
4.6568053831245377
 20
31.599585213864401
 30
0.0
 40
4.2500000000002434
 50
218.37855200971541
 51
225.29411776470579
  0
ARC
  5
E569
  8
MSM_CONTINUOUS
 10
1.957879967374232
 20
28.872807665576769
 30
0.0
 40
0.4133980923704638
 50
225.29411776470991
 51
235.1996973083136
  0
ARC
  5
E56A
  8
MSM_CONTINUOUS
 10
-0.5192875804606381
 20
25.313502063975921
 30
0.0
 40
3.9230770000006969
 50
49.47588154591147
 51
55.159427984171337
  0
ARC
  5
E56B
  8
MSM_CONTINUOUS
 10
1.8673606130511999
 20
28.10552732323503
 30
0.0
 40
0.2499999999999898
 50
336.89821053667669
 51
49.475881545913559
  0
ARC
  5
E56C
  8
MSM_CONTINUOUS
 10
13.24999999979622
 20
23.250000000086668
 30
0.0
 40
12.12499999977857
 50
156.8982105366803
 51
157.21943652214679
  0
ARC
  5
E56D
  8
MSM_CONTINUOUS
 10
1.8403173699746911
 20
28.041635136579082
 30
0.0
 40
0.250000000000014
 50
264.64176551291769
 51
337.21943652214401
  0
ARC
  5
E56E
  8
MSM_CONTINUOUS
 10
2.1833187685191611
 20
31.69866189181732
 30
0.0
 40
3.9230770000004029
 50
258.9582190748294
 51
264.64176551291268
  0
ARC
  5
E56F
  8
MSM_CONTINUOUS
 10
1.3524912591855689
 20
27.442520320468589
 30
0.0
 40
0.4133980923701849
 50
78.917949748828462
 51
88.823524235295025
  0
ARC
  5
E570
  8
MSM_CONTINUOUS
 10
1.27371874525123
 20
23.60672717058792
 30
0.0
 40
4.2499999999992548
 50
88.823528802043839
 51
95.739095113129352
  0
ARC
  5
E571
  8
MSM_CONTINUOUS
 10
5.7480036733009348
 20
32.592302611309222
 30
0.0
 40
4.2499999999995683
 50
211.31972848030301
 51
218.23529423529439
  0
ARC
  5
E572
  8
MSM_CONTINUOUS
 10
2.734445704704171
 20
30.217858978049271
 30
0.0
 40
0.4133980923706602
 50
218.23529423530101
 51
228.1408737790558
  0
ARC
  5
E573
  8
MSM_CONTINUOUS
 10
-0.1613431569947963
 20
26.98994598447409
 30
0.0
 40
3.9230770000002551
 50
42.417058016499091
 51
48.100604454743348
  0
ARC
  5
E574
  8
MSM_CONTINUOUS
 10
2.55032267122058
 20
29.467517998365899
 30
0.0
 40
0.2499999999999995
 50
329.83938700726668
 51
42.417058016499134
  0
ARC
  5
E575
  8
MSM_CONTINUOUS
 10
13.250000000433101
 20
23.249999999750429
 30
0.0
 40
12.12500000049987
 50
149.83938700727819
 51
150.16061299272579
  0
ARC
  5
E576
  8
MSM_CONTINUOUS
 10
2.5156328005384401
 20
29.407433379836451
 30
0.0
 40
0.2500000000000038
 50
257.58294198350433
 51
330.16061299273071
  0
ARC
  5
E577
  8
MSM_CONTINUOUS
 10
3.305440190166741
 20
32.994590880592298
 30
0.0
 40
3.923077000001566
 50
251.8993955453204
 51
257.58294198350069
  0
ARC
  5
E578
  8
MSM_CONTINUOUS
 10
1.9578799673739899
 20
28.872807665576321
 30
0.0
 40
0.4133980923704552
 50
71.859126220350817
 51
81.764700705873722
  0
ARC
  5
E579
  8
MSM_CONTINUOUS
 10
1.4083304454148511
 20
25.075768092362921
 30
0.0
 40
4.2500000000009521
 50
81.764705272633634
 51
88.680271583716404
  0
ARC
  5
E57A
  8
MSM_CONTINUOUS
 10
6.9529245806766786
 20
33.443400224185993
 30
0.0
 40
4.2499999999996403
 50
204.26090502724509
 51
211.17647070588239
  0
ARC
  5
E57B
  8
MSM_CONTINUOUS
 10
3.6704165261845918
 20
31.45728465105854
 30
0.0
 40
0.4133980923703387
 50
211.1764707058872
 51
221.0820502493421
  0
ARC
  5
E57C
  8
MSM_CONTINUOUS
 10
0.3999035579596004
 20
28.609696136137671
 30
0.0
 40
3.9230770000012392
 50
35.35823448708819
 51
41.041780925363462
  0
ARC
  5
E57D
  8
MSM_CONTINUOUS
 10
3.3954809310437559
 20
30.735257438430409
 30
0.0
 40
0.2499999999999986
 50
322.78056347785639
 51
35.358234487088083
  0
ARC
  5
E57E
  8
MSM_CONTINUOUS
 10
13.25000000026988
 20
23.249999999796302
 30
0.0
 40
12.12500000033813
 50
142.7805634778627
 51
143.1017894633145
  0
ARC
  5
E57F
  8
MSM_CONTINUOUS
 10
3.3536702958346041
 20
30.679891209597489
 30
0.0
 40
0.2500000000000041
 50
250.52411845409389
 51
323.10178946331752
  0
ARC
  5
E580
  8
MSM_CONTINUOUS
 10
4.578311001605285
 20
34.142801804705442
 30
0.0
 40
3.9230770000016979
 50
244.8405720158093
 51
250.52411845408801
  0
ARC
  5
E581
  8
MSM_CONTINUOUS
 10
2.7344457047038229
 20
30.217858978048891
 30
0.0
 40
0.4133980923702345
 50
64.80030269187192
 51
74.70587810477663
  0
ARC
  5
E582
  8
MSM_CONTINUOUS
 10
1.7224497852927909
 20
26.517132230945691
 30
0.0
 40
4.2500000000001767
 50
74.70588183351849
 51
81.621448054305461
  0
ARC
  5
E583
  8
MSM_CONTINUOUS
 10
8.2533027325242436
 20
34.139976280244177
 30
0.0
 40
4.2499999999998339
 50
197.2020811697553
 51
204.1176471764706
  0
ARC
  5
E584
  8
MSM_CONTINUOUS
 10
4.7516040682382998
 20
32.572296254803092
 30
0.0
 40
0.4133980923699879
 50
204.1176471764671
 51
214.02322672008509
  0
ARC
  5
E585
  8
MSM_CONTINUOUS
 10
1.1559446363104791
 20
30.1481987577524
 30
0.0
 40
3.9230769999994961
 50
28.29941095767548
 51
33.982957395937007
  0
ARC
  5
E586
  8
MSM_CONTINUOUS
 10
4.3900236548086786
 20
31.889528005779631
 30
0.0
 40
0.2500000000000048
 50
315.72173994844201
 51
28.299410957676098
  0
ARC
  5
E587
  8
MSM_CONTINUOUS
 10
13.25000000043514
 20
23.249999999577621
 30
0.0
 40
12.12500000060642
 50
135.72173994845261
 51
136.04296593389739
  0
ARC
  5
E588
  8
MSM_CONTINUOUS
 10
4.3417260616828841
 20
31.839719462235081
 30
0.0
 40
0.249999999999996
 50
243.46529492467889
 51
316.04296593390831
  0
ARC
  5
E589
  8
MSM_CONTINUOUS
 10
5.9826357788251867
 20
35.125888956967863
 30
0.0
 40
3.9230769999993611
 50
237.78174848649491
 51
243.46529492467849
  0
ARC
  5
E58A
  8
MSM_CONTINUOUS
 10
3.6704165261846269
 20
31.457284651058671
 30
0.0
 40
0.4133980923699247
 50
57.741479161522683
 51
67.647055695281523
  0
ARC
  5
E58B
  8
MSM_CONTINUOUS
 10
2.21131503588808
 20
27.908969975238161
 30
0.0
 40
4.2499999999997504
 50
67.647058413039986
 51
74.562624524893835
  0
ARC
  5
E58C
  8
MSM_CONTINUOUS
 10
9.6294257215942451
 20
34.671471396524467
 30
0.0
 40
4.2500000000002567
 50
190.14325768767279
 51
197.05882364705829
  0
ARC
  5
E58D
  8
MSM_CONTINUOUS
 10
5.9616186298303608
 20
33.54599134995081
 30
0.0
 40
0.4133980923704207
 50
197.0588236470638
 51
206.9644031906704
  0
ARC
  5
E58E
  8
MSM_CONTINUOUS
 10
2.0953192659714901
 20
31.582131717834869
 30
0.0
 40
3.9230770000003541
 50
21.24058742826346
 51
26.9241338665238
  0
ARC
  5
E58F
  8
MSM_CONTINUOUS
 10
5.5188745886041337
 20
32.912832135211119
 30
0.0
 40
0.249999999999991
 50
308.66291641903138
 51
21.240587428269649
  0
ARC
  5
E590
  8
MSM_CONTINUOUS
 10
13.25000000008448
 20
23.249999999894669
 30
0.0
 40
12.12500000013503
 50
128.6629164190351
 51
128.9841435311215
  0
ARC
  5
E591
  8
MSM_CONTINUOUS
 10
5.464822179841704
 20
32.86933632370301
 30
0.0
 40
0.2499999999999919
 50
236.4064713952383
 51
308.9840877629768
  0
ARC
  5
E592
  8
MSM_CONTINUOUS
 10
7.4971263896965183
 20
35.928949738260357
 30
0.0
 40
3.9230770000005082
 50
230.72292495708399
 51
236.40647139526581
  0
ARC
  5
E593
  8
MSM_CONTINUOUS
 10
4.7516040682385556
 20
32.572296254803291
 30
0.0
 40
0.4133980923700644
 50
50.682655632112777
 51
60.588234143844907
  0
ARC
  5
E594
  8
MSM_CONTINUOUS
 10
2.8675154983231108
 20
29.23018248379757
 30
0.0
 40
4.2500000000003331
 50
60.58823507602709
 51
67.503800995481853
  0
ARC
  5
E595
  8
MSM_CONTINUOUS
 10
11.06043292611508
 20
35.029828648840237
 30
0.0
 40
4.2500000000010694
 50
183.08443411093259
 51
190.00000011764581
  0
ARC
  5
E596
  8
MSM_CONTINUOUS
 10
7.2821176236267462
 20
34.363609711388641
 30
0.0
 40
0.413398092370213
 50
190.00000011764629
 51
199.9055796614106
  0
ARC
  5
E597
  8
MSM_CONTINUOUS
 10
3.2037874851060191
 20
32.889758054382838
 30
0.0
 40
3.9230770000000041
 50
14.18176389885188
 51
19.86531033709673
  0
ARC
  5
E598
  8
MSM_CONTINUOUS
 10
6.7649215029610188
 20
33.789657579221569
 30
0.0
 40
0.2499999999999951
 50
301.60409288961921
 51
14.181763898856421
  0
ARC
  5
E599
  8
MSM_CONTINUOUS
 10
13.25000000027442
 20
23.24999999955693
 30
0.0
 40
12.12500000052116
 50
121.6040928896299
 51
121.9253200017059
  0
ARC
  5
E59A
  8
MSM_CONTINUOUS
 10
6.7059336579807152
 20
33.753133851915209
 30
0.0
 40
0.2499999999999939
 50
229.3476478658267
 51
301.92526423356583
  0
ARC
  5
E59B
  8
MSM_CONTINUOUS
 10
9.0988247003426785
 20
36.539810565729162
 30
0.0
 40
3.9230769999999922
 50
223.66410142757309
 51
229.3476478658543
  0
ARC
  5
E59C
  8
MSM_CONTINUOUS
 10
5.9616186298299558
 20
33.545991349950512
 30
0.0
 40
0.4133980923704635
 50
43.623832103635571
 51
53.5294116470521
  0
ARC
  5
E59D
  8
MSM_CONTINUOUS
 10
3.6811038424825631
 20
30.46074152176671
 30
0.0
 40
4.2499999999989182
 50
53.529411647058062
 51
60.44497746607113
  0
ARC
  5
E59E
  8
MSM_CONTINUOUS
 10
12.524631735551139
 20
35.209615706535601
 30
0.0
 40
4.2499999999987628
 50
176.0256105815194
 51
182.941176588236
  0
ARC
  5
E59F
  8
MSM_CONTINUOUS
 10
8.6930836309243418
 20
35.012757078191811
 30
0.0
 40
0.4133980923697419
 50
182.9411765882285
 51
192.84675613200761
  0
ARC
  5
E5A0
  8
MSM_CONTINUOUS
 10
4.4645460454200139
 20
34.051255485054412
 30
0.0
 40
3.9230770000008519
 50
7.122940369440558
 51
12.80648680768398
  0
ARC
  5
E5A1
  8
MSM_CONTINUOUS
 10
8.1092755968079882
 20
34.506712557866372
 30
0.0
 40
0.2500000000000077
 50
294.54526936021051
 51
7.1229403694412143
  0
ARC
  5
E5A2
  8
MSM_CONTINUOUS
 10
13.24999999996513
 20
23.250000000076231
 30
0.0
 40
12.12499999991617
 50
114.5452693602106
 51
114.8664953456735
  0
ARC
  5
E5A3
  8
MSM_CONTINUOUS
 10
8.0462465112107395
 20
34.477714577237592
 30
0.0
 40
0.2500000000000077
 50
222.28882433644361
 51
294.866495345673
  0
ARC
  5
E5A4
  8
MSM_CONTINUOUS
 10
10.763450597058069
 20
36.949211411909893
 30
0.0
 40
3.9230770000015922
 50
216.60527789826099
 51
222.28882433644151
  0
ARC
  5
E5A5
  8
MSM_CONTINUOUS
 10
7.2821176236265721
 20
34.363609711388477
 30
0.0
 40
0.4133980923704111
 50
36.565008573295721
 51
46.470588117647097
  0
ARC
  5
E5A6
  8
MSM_CONTINUOUS
 10
4.6397468983920263
 20
31.581993068487758
 30
0.0
 40
4.2500000000015348
 50
46.470588117648518
 51
53.386153936657387
  0
ARC
  5
E5A7
  8
MSM_CONTINUOUS
 10
13.999826388480599
 20
35.208107181080877
 30
0.0
 40
4.2500000000005373
 50
168.96678705210891
 51
175.88235192242959
  0
ARC
  5
E5A8
  8
MSM_CONTINUOUS
 10
10.17312784531317
 20
35.483593037984079
 30
0.0
 40
0.4133980923701177
 50
175.882341375967
 51
185.7879326027558
  0
ARC
  5
E5A9
  8
MSM_CONTINUOUS
 10
5.8584831322897299
 20
35.049016892766481
 30
0.0
 40
3.9230769999987349
 50
0.064116840031839
 51
5.7476632782569208
  0
ARC
  5
E5AA
  8
MSM_CONTINUOUS
 10
9.5315578324414467
 20
35.053127248594862
 30
0.0
 40
0.2500000000000064
 50
287.48644583080011
 51
0.0641168400833221
  0
ARC
  5
E5AB
  8
MSM_CONTINUOUS
 10
13.24999999986686
 20
23.250000000417721
 30
0.0
 40
12.124999999561579
 50
107.48644583079211
 51
107.8076718162645
  0
ARC
  5
E5AC
  8
MSM_CONTINUOUS
 10
9.4654429629166614
 20
35.032094594471012
 30
0.0
 40
0.2499999999999969
 50
215.2300008070313
 51
287.80767181626283
  0
ARC
  5
E5AD
  8
MSM_CONTINUOUS
 10
12.46577004807291
 20
37.15094617729266
 30
0.0
 40
3.9230770000025852
 50
209.5464543687518
 51
215.2300008070292
  0
ARC
  5
E5AE
  8
MSM_CONTINUOUS
 10
8.6930836309246118
 20
35.012757078191747
 30
0.0
 40
0.4133980923703968
 50
29.506185044814739
 51
39.411764588231378
  0
ARC
  5
E5AF
  8
MSM_CONTINUOUS
 10
5.7289126145165588
 20
32.576940093460713
 30
0.0
 40
4.2499999999987894
 50
39.411764588234099
 51
46.327330407247672
  0
ARC
  5
E5B0
  8
MSM_CONTINUOUS
 10
15.4636544376889
 20
35.025325940184487
 30
0.0
 40
4.249999999999547
 50
161.90796346840111
 51
168.82352952941221
  0
ARC
  5
E5B1
  8
MSM_CONTINUOUS
 10
11.69981430517565
 20
35.768980197558513
 30
0.0
 40
0.4133980923698407
 50
168.8235295294065
 51
178.7291090731805
  0
ARC
  5
E5B2
  8
MSM_CONTINUOUS
 10
7.3644680803745031
 20
35.867917231639403
 30
0.0
 40
3.9230769999986541
 50
353.00529331061563
 51
358.68883974886228
  0
ARC
  5
E5B3
  8
MSM_CONTINUOUS
 10
11.01020786096386
 20
35.420618561680087
 30
0.0
 40
0.2499999999999993
 50
280.42762230138447
 51
353.00529331061938
  0
ARC
  5
E5B4
  8
MSM_CONTINUOUS
 10
13.24999999994146
 20
23.25000000031028
 30
0.0
 40
12.12499999968424
 50
100.4276223013805
 51
100.74884716022061
  0
ARC
  5
E5B5
  8
MSM_CONTINUOUS
 10
10.94200944153981
 20
35.40787006765806
 30
0.0
 40
0.2499999999999966
 50
208.17117727759279
 51
280.7489029283559
  0
ARC
  5
E5B6
  8
MSM_CONTINUOUS
 10
14.17997762575577
 20
37.141956768470152
 30
0.0
 40
3.9230769999998851
 50
202.48763083943649
 51
208.17117727761939
  0
ARC
  5
E5B7
  8
MSM_CONTINUOUS
 10
10.17312784531331
 20
35.483593037984058
 30
0.0
 40
0.4133980923701348
 50
22.447361514467669
 51
32.35294105882587
  0
ARC
  5
E5B8
  8
MSM_CONTINUOUS
 10
6.9320903488288641
 20
33.430500213973829
 30
0.0
 40
4.24999999999888
 50
32.352941058822573
 51
39.268506877835847
  0
ARC
  5
E5B9
  8
MSM_CONTINUOUS
 10
16.89392574209969
 20
34.664042761140387
 30
0.0
 40
4.2500000000014637
 50
154.8491404229886
 51
161.7647048636052
  0
ARC
  5
E5BA
  8
MSM_CONTINUOUS
 10
13.250000000000091
 20
35.864592378483692
 30
0.0
 40
0.4133980923702893
 50
161.76469431714401
 51
171.67028554361551
  0
ARC
  5
E5BB
  8
MSM_CONTINUOUS
 10
8.9596716929787767
 20
36.495542807277467
 30
0.0
 40
3.9230769999997239
 50
345.9464697812046
 51
351.63001621946569
  0
ARC
  5
E5BC
  8
MSM_CONTINUOUS
 10
12.52281085519566
 20
35.603615703415677
 30
0.0
 40
0.2500000000000019
 50
273.36879877197453
 51
345.94646978120539
  0
ARC
  5
E5BD
  8
MSM_CONTINUOUS
 10
13.249999999990751
 20
23.250000000147619
 30
0.0
 40
12.124999999852079
 50
93.368798771972877
 51
93.690023630808483
  0
ARC
  5
E5BE
  8
MSM_CONTINUOUS
 10
12.45356270439312
 20
35.599344623669872
 30
0.0
 40
0.2500000000000123
 50
201.1123537481827
 51
273.69007939894038
  0
ARC
  5
E5BF
  8
MSM_CONTINUOUS
 10
15.880087690600689
 20
36.922379455719813
 30
0.0
 40
3.923076999999084
 50
195.42880730992519
 51
201.11235374820771
  0
ARC
  5
E5C0
  8
MSM_CONTINUOUS
 10
11.699814305176011
 20
35.768980197558491
 30
0.0
 40
0.4133980923701776
 50
15.38853798598949
 51
25.29411752941192
  0
ARC
  5
E5C1
  8
MSM_CONTINUOUS
 10
8.2310411533300503
 20
34.129734328673443
 30
0.0
 40
4.2499999999993898
 50
25.294117529411221
 51
32.209683348423603
  0
ARC
  5
E5C2
  8
MSM_CONTINUOUS
 10
18.268958846670522
 20
34.129734328673081
 30
0.0
 40
4.2500000000000613
 50
147.7903166515766
 51
154.70588247058791
  0
ARC
  5
E5C3
  8
MSM_CONTINUOUS
 10
14.80018569482367
 20
35.768980197558662
 30
0.0
 40
0.4133980923698209
 50
154.705882470593
 51
164.6114620142134
  0
ARC
  5
E5C4
  8
MSM_CONTINUOUS
 10
10.619912309397741
 20
36.922379455720332
 30
0.0
 40
3.923077000000736
 50
338.8876462517934
 51
344.57119269005329
  0
ARC
  5
E5C5
  8
MSM_CONTINUOUS
 10
14.046437295606941
 20
35.59934462366995
 30
0.0
 40
0.249999999999991
 50
266.30997524255929
 51
338.88764625179448
  0
ARC
  5
E5C6
  8
MSM_CONTINUOUS
 10
13.24999999993469
 20
23.24999999893797
 30
0.0
 40
12.125000001064031
 50
86.309975242578687
 51
86.631201228011363
  0
ARC
  5
E5C7
  8
MSM_CONTINUOUS
 10
13.97718914480431
 20
35.603615703415677
 30
0.0
 40
0.2499999999999979
 50
194.05353021879819
 51
266.63120122802621
  0
ARC
  5
E5C8
  8
MSM_CONTINUOUS
 10
17.540328307022222
 20
36.495542807277673
 30
0.0
 40
3.9230770000007551
 50
188.3699837806135
 51
194.05353021879509
  0
ARC
  5
E5C9
  8
MSM_CONTINUOUS
 10
13.249999999999799
 20
35.864592378483607
 30
0.0
 40
0.4133980923703974
 50
8.3297144556477392
 51
18.235293999999431
  0
ARC
  5
E5CA
  8
MSM_CONTINUOUS
 10
9.6060742579016551
 20
34.664042761140919
 30
0.0
 40
4.250000000000008
 50
18.23529400000022
 51
25.150859819011611
  0
ARC
  5
E5CB
  8
MSM_CONTINUOUS
 10
19.567909651170812
 20
33.430500213974007
 30
0.0
 40
4.2499999999985141
 50
140.73149312216361
 51
147.64705894117731
  0
ARC
  5
E5CC
  8
MSM_CONTINUOUS
 10
16.326872154686811
 20
35.483593037984051
 30
0.0
 40
0.4133980923702551
 50
147.64705894118239
 51
157.55263848479541
  0
ARC
  5
E5CD
  8
MSM_CONTINUOUS
 10
12.32002237424469
 20
37.141956768469903
 30
0.0
 40
3.9230769999993611
 50
331.82882272238078
 51
337.51236916064249
  0
ARC
  5
E5CE
  8
MSM_CONTINUOUS
 10
15.557990558460251
 20
35.407870067658152
 30
0.0
 40
0.2499999999999948
 50
259.25115171314837
 51
331.82882272238118
  0
ARC
  5
E5CF
  8
MSM_CONTINUOUS
 10
13.249999999890781
 20
23.24999999941554
 30
0.0
 40
12.125000000594561
 50
79.25115171315997
 51
79.572377698605052
  0
ARC
  5
E5D0
  8
MSM_CONTINUOUS
 10
15.48979213903613
 20
35.420618561680101
 30
0.0
 40
0.2500000000000081
 50
186.99470668939011
 51
259.57237769861342
  0
ARC
  5
E5D1
  8
MSM_CONTINUOUS
 10
19.135531919627471
 20
35.867917231639566
 30
0.0
 40
3.9230770000006472
 50
181.31116025149799
 51
186.99470668938369
  0
ARC
  5
E5D2
  8
MSM_CONTINUOUS
 10
14.80018569482389
 20
35.76898019755842
 30
0.0
 40
0.4133980923703098
 50
1.2708909234294949
 51
11.176470470590701
  0
ARC
  5
E5D3
  8
MSM_CONTINUOUS
 10
11.036345562310361
 20
35.025325940184281
 30
0.0
 40
4.2500000000003064
 50
11.176470470588541
 51
18.092036289599481
  0
ARC
  5
E5D4
  8
MSM_CONTINUOUS
 10
20.77108738548435
 20
32.576940093459797
 30
0.0
 40
4.2500000000000711
 50
133.67266959275329
 51
140.5882354117642
  0
ARC
  5
E5D5
  8
MSM_CONTINUOUS
 10
17.806916369075228
 20
35.012757078191903
 30
0.0
 40
0.4133980923701904
 50
140.58823541177321
 51
150.49381495538401
  0
ARC
  5
E5D6
  8
MSM_CONTINUOUS
 10
14.034229951928969
 20
37.150946177291416
 30
0.0
 40
3.923077000000331
 50
324.76999919296929
 51
330.45354563122987
  0
ARC
  5
E5D7
  8
MSM_CONTINUOUS
 10
17.034557037083339
 20
35.032094594471012
 30
0.0
 40
0.2500000000000005
 50
252.19232818373791
 51
324.76999919296509
  0
ARC
  5
E5D8
  8
MSM_CONTINUOUS
 10
13.25000000006354
 20
23.250000000198732
 30
0.0
 40
12.124999999791349
 50
72.192328183738837
 51
72.513554169205207
  0
ARC
  5
E5D9
  8
MSM_CONTINUOUS
 10
16.968442167558528
 20
35.053127248594848
 30
0.0
 40
0.2500000000000022
 50
179.93588315997201
 51
252.51355416920219
  0
ARC
  5
E5DA
  8
MSM_CONTINUOUS
 10
20.64151686771212
 20
35.049016892766382
 30
0.0
 40
3.923077000000601
 50
174.2523367218887
 51
179.935883159974
  0
ARC
  5
E5DB
  8
MSM_CONTINUOUS
 10
16.326872154686551
 20
35.483593037984058
 30
0.0
 40
0.4133980923703798
 50
354.2120673958799
 51
4.1176469411704311
  0
ARC
  5
E5DC
  8
MSM_CONTINUOUS
 10
12.50017361151998
 20
35.208107181080919
 30
0.0
 40
4.2499999999999512
 50
4.117646941176357
 51
11.033212760187871
  0
ARC
  5
E5DD
  8
MSM_CONTINUOUS
 10
21.860253101605728
 20
31.581993068490409
 30
0.0
 40
4.2499999999980771
 50
126.61384606333991
 51
133.5294118823544
  0
ARC
  5
E5DE
  8
MSM_CONTINUOUS
 10
19.217882376373542
 20
34.36360971138842
 30
0.0
 40
0.413398092370536
 50
133.5294118823623
 51
143.4349914259667
  0
ARC
  5
E5DF
  8
MSM_CONTINUOUS
 10
15.73654940294298
 20
36.949211411908983
 30
0.0
 40
3.9230770000001951
 50
317.7111756635577
 51
323.3947221018185
  0
ARC
  5
E5E0
  8
MSM_CONTINUOUS
 10
18.453753488789271
 20
34.477714577237577
 30
0.0
 40
0.2499999999999966
 50
245.1335046543249
 51
317.71117566355821
  0
ARC
  5
E5E1
  8
MSM_CONTINUOUS
 10
13.25000000032362
 20
23.250000000703011
 30
0.0
 40
12.12499999922608
 50
65.133504654318926
 51
65.454730639800232
  0
ARC
  5
E5E2
  8
MSM_CONTINUOUS
 10
18.390724403191982
 20
34.506712557866351
 30
0.0
 40
0.2499999999999944
 50
172.8770596305616
 51
245.45473063979389
  0
ARC
  5
E5E3
  8
MSM_CONTINUOUS
 10
22.035453954577431
 20
34.051255485054867
 30
0.0
 40
3.9230769999982722
 50
167.19351319247559
 51
172.877059630562
  0
ARC
  5
E5E4
  8
MSM_CONTINUOUS
 10
17.80691636907515
 20
35.012757078191882
 30
0.0
 40
0.4133980923702489
 50
347.15324386646711
 51
357.05882341176118
  0
ARC
  5
E5E5
  8
MSM_CONTINUOUS
 10
13.975368264447461
 20
35.209615706535537
 30
0.0
 40
4.2500000000001474
 50
357.05882341176499
 51
3.9743892307763589
  0
ARC
  5
E5E6
  8
MSM_CONTINUOUS
 10
22.818896157517258
 20
30.460741521766931
 30
0.0
 40
4.2499999999986304
 50
119.55502253392859
 51
126.4705883529421
  0
ARC
  5
E5E7
  8
MSM_CONTINUOUS
 10
20.538381370169692
 20
33.545991349950931
 30
0.0
 40
0.4133980923699204
 50
126.470588352945
 51
136.37616789671449
  0
ARC
  5
E5E8
  8
MSM_CONTINUOUS
 10
17.401175299656199
 20
36.53981056573032
 30
0.0
 40
3.9230770000016171
 50
310.65235213414661
 51
316.33589857238923
  0
ARC
  5
E5E9
  8
MSM_CONTINUOUS
 10
19.794066342019381
 20
33.75313385191528
 30
0.0
 40
0.2499999999999986
 50
238.07468112491529
 51
310.65235213414508
  0
ARC
  5
E5EA
  8
MSM_CONTINUOUS
 10
13.249999999617829
 20
23.249999999381469
 30
0.0
 40
12.12500000072705
 50
58.074681124929512
 51
58.395907110371027
  0
ARC
  5
E5EB
  8
MSM_CONTINUOUS
 10
19.73507849703897
 20
33.789657579221561
 30
0.0
 40
0.2499999999999974
 50
165.81823610115379
 51
238.39590711038051
  0
ARC
  5
E5EC
  8
MSM_CONTINUOUS
 10
23.296212514893519
 20
32.88975805438298
 30
0.0
 40
3.923076999999537
 50
160.13468966306451
 51
165.81823610114901
  0
ARC
  5
E5ED
  8
MSM_CONTINUOUS
 10
19.217882376373431
 20
34.363609711388591
 30
0.0
 40
0.4133980923700291
 50
340.09442033705301
 51
349.99999988235112
  0
ARC
  5
E5EE
  8
MSM_CONTINUOUS
 10
15.439567073886479
 20
35.029828648840081
 30
0.0
 40
4.2499999999994937
 50
349.9999998823522
 51
356.91556570136419
  0
ARC
  5
E5EF
  8
MSM_CONTINUOUS
 10
23.63248450167664
 20
29.230182483798011
 30
0.0
 40
4.2499999999998259
 50
112.49619900451771
 51
119.4117648235292
  0
ARC
  5
E5F0
  8
MSM_CONTINUOUS
 10
21.7483959317615
 20
32.572296254803291
 30
0.0
 40
0.4133980923700983
 50
119.4117648235343
 51
129.3173443669973
  0
ARC
  5
E5F1
  8
MSM_CONTINUOUS
 10
19.002873610303372
 20
35.928949738260471
 30
0.0
 40
3.9230770000006792
 50
303.59352860473422
 51
309.27707504301043
  0
ARC
  5
E5F2
  8
MSM_CONTINUOUS
 10
21.035177820158399
 20
32.869336323703081
 30
0.0
 40
0.250000000000002
 50
231.01585759550181
 51
303.59352860473513
  0
ARC
  5
E5F3
  8
MSM_CONTINUOUS
 10
13.24999999992678
 20
23.249999999909651
 30
0.0
 40
12.12500000011628
 50
51.015857595504521
 51
51.337083580962251
  0
ARC
  5
E5F4
  8
MSM_CONTINUOUS
 10
20.981125411395858
 20
32.91283213521114
 30
0.0
 40
0.2500000000000003
 50
158.75941257174171
 51
231.33708358096689
  0
ARC
  5
E5F5
  8
MSM_CONTINUOUS
 10
24.404680734029021
 20
31.582131717834621
 30
0.0
 40
3.9230770000009332
 50
153.07586613385109
 51
158.75941257173619
  0
ARC
  5
E5F6
  8
MSM_CONTINUOUS
 10
20.538381370169919
 20
33.545991349950611
 30
0.0
 40
0.4133980923700941
 50
333.03559680577757
 51
342.94117635294702
  0
ARC
  5
E5F7
  8
MSM_CONTINUOUS
 10
16.870574278405869
 20
34.671471396524431
 30
0.0
 40
4.2500000000001243
 50
342.94117635294111
 51
349.85674217195231
  0
ARC
  5
E5F8
  8
MSM_CONTINUOUS
 10
24.288684964111429
 20
27.908969975239529
 30
0.0
 40
4.2499999999982974
 50
105.4373754751049
 51
112.35294129411911
  0
ARC
  5
E5F9
  8
MSM_CONTINUOUS
 10
22.829583473815479
 20
31.457284651058561
 30
0.0
 40
0.4133980923700543
 50
112.3529412941232
 51
122.2585208378907
  0
ARC
  5
E5FA
  8
MSM_CONTINUOUS
 10
20.51736422117536
 20
35.125888956966868
 30
0.0
 40
3.92307699999825
 50
296.5347050753208
 51
302.21825151356802
  0
ARC
  5
E5FB
  8
MSM_CONTINUOUS
 10
22.158273938317119
 20
31.839719462235081
 30
0.0
 40
0.2500000000000075
 50
223.9570340660934
 51
296.53470507532001
  0
ARC
  5
E5FC
  8
MSM_CONTINUOUS
 10
13.250000000134779
 20
23.25000000013053
 30
0.0
 40
12.12499999981236
 50
43.957034066091069
 51
44.278260051556899
  0
ARC
  5
E5FD
  8
MSM_CONTINUOUS
 10
22.109976345191289
 20
31.88952800577961
 30
0.0
 40
0.2499999999999867
 50
151.7005890423253
 51
224.27826005155811
  0
ARC
  5
E5FE
  8
MSM_CONTINUOUS
 10
25.344055363691989
 20
30.148198757750912
 30
0.0
 40
3.9230770000023951
 50
146.01704260444009
 51
151.700589042323
  0
ARC
  5
E5FF
  8
MSM_CONTINUOUS
 10
21.748395931762161
 20
32.572296254802779
 30
0.0
 40
0.4133980923694366
 50
325.97677327635569
 51
335.88234869302659
  0
ARC
  5
E600
  8
MSM_CONTINUOUS
 10
18.246697267474659
 20
34.139976280244582
 30
0.0
 40
4.2500000000009894
 50
335.88235242175432
 51
342.79791864253991
  0
ARC
  5
E601
  8
MSM_CONTINUOUS
 10
24.777550214707251
 20
26.51713223094524
 30
0.0
 40
4.2500000000006048
 50
98.378551945694468
 51
105.29411776470479
  0
ARC
  5
E602
  8
MSM_CONTINUOUS
 10
23.76555429529607
 20
30.217858978049239
 30
0.0
 40
0.4133980923698802
 50
105.29411776470771
 51
115.1996973083257
  0
ARC
  5
E603
  8
MSM_CONTINUOUS
 10
21.921688998396021
 20
34.142801804702259
 30
0.0
 40
3.9230769999982851
 50
289.47588154590932
 51
295.15942798417268
  0
ARC
  5
E604
  8
MSM_CONTINUOUS
 10
23.146329704165389
 20
30.679891209597461
 30
0.0
 40
0.2499999999999959
 50
216.8982105366797
 51
289.47588154591
  0
ARC
  5
E605
  8
MSM_CONTINUOUS
 10
13.25000000005274
 20
23.25000000003924
 30
0.0
 40
12.124999999934261
 50
36.89821053668264
 51
37.219436522145287
  0
ARC
  5
E606
  8
MSM_CONTINUOUS
 10
23.104519068956229
 20
30.735257438430409
 30
0.0
 40
0.2500000000000013
 50
144.64176551291999
 51
217.2194365221431
  0
ARC
  5
E607
  8
MSM_CONTINUOUS
 10
26.100096442039838
 20
28.60969613613813
 30
0.0
 40
3.9230770000005371
 50
138.9582190750277
 51
144.64176551291339
  0
ARC
  5
E608
  8
MSM_CONTINUOUS
 10
22.829583473815148
 20
31.45728465105865
 30
0.0
 40
0.4133980923706079
 50
318.91794974695648
 51
328.82352628351049
  0
ARC
  5
E609
  8
MSM_CONTINUOUS
 10
19.54707541932293
 20
33.443400224186178
 30
0.0
 40
4.2500000000000711
 50
328.8235290012758
 51
335.73909511312911
  0
ARC
  5
E60A
  8
MSM_CONTINUOUS
 10
25.091669554585199
 20
25.075768092362068
 30
0.0
 40
4.250000000001803
 50
91.319728416284235
 51
98.235294235292741
  0
ARC
  5
E60B
  8
MSM_CONTINUOUS
 10
24.54212003262591
 20
28.872807665576719
 30
0.0
 40
0.4133980923700253
 50
98.23529423529645
 51
108.1408737789118
  0
ARC
  5
E60C
  8
MSM_CONTINUOUS
 10
23.194559809833809
 20
32.994590880590152
 30
0.0
 40
3.923076999999366
 50
282.417058016498
 51
288.10060445476
  0
ARC
  5
E60D
  8
MSM_CONTINUOUS
 10
23.984367199461548
 20
29.407433379836419
 30
0.0
 40
0.2499999999999993
 50
209.8393870072662
 51
282.4170580164988
  0
ARC
  5
E60E
  8
MSM_CONTINUOUS
 10
13.24999999878184
 20
23.24999999929663
 30
0.0
 40
12.125000001406621
 50
29.839387007288419
 51
30.160612992712011
  0
ARC
  5
E60F
  8
MSM_CONTINUOUS
 10
23.949677328779401
 20
29.467517998365889
 30
0.0
 40
0.2500000000000012
 50
137.582941983506
 51
210.16061299273301
  0
ARC
  5
E610
  8
MSM_CONTINUOUS
 10
26.661343156995141
 20
26.989945984473739
 30
0.0
 40
3.9230770000007671
 50
131.89939554561579
 51
137.5829419835012
  0
ARC
  5
E611
  8
MSM_CONTINUOUS
 10
23.765554295296301
 20
30.217858978048731
 30
0.0
 40
0.4133980923699455
 50
311.85912621753988
 51
321.76470275410719
  0
ARC
  5
E612
  8
MSM_CONTINUOUS
 10
20.75199632669889
 20
32.592302611309321
 30
0.0
 40
4.2499999999997682
 50
321.76470547186358
 51
328.68027158371729
  0
ARC
  5
E613
  8
MSM_CONTINUOUS
 10
25.226281254748621
 20
23.606727170585671
 30
0.0
 40
4.2500000000014797
 50
84.260904886871899
 51
91.176470705880874
  0
ARC
  5
E614
  8
MSM_CONTINUOUS
 10
25.14750874081448
 20
27.442520320468681
 30
0.0
 40
0.4133980923700836
 50
91.176470705886715
 51
101.0820502495004
  0
ARC
  5
E615
  8
MSM_CONTINUOUS
 10
24.316681231480761
 20
31.69866189181786
 30
0.0
 40
3.9230770000009492
 50
275.3582344870876
 51
281.04178092534721
  0
ARC
  5
E616
  8
MSM_CONTINUOUS
 10
24.659682630025301
 20
28.04163513657906
 30
0.0
 40
0.2500000000000144
 50
202.7805634778596
 51
275.35823448708561
  0
ARC
  5
E617
  8
MSM_CONTINUOUS
 10
13.25000000047349
 20
23.25000000020054
 30
0.0
 40
12.12499999948578
 50
22.780563477850318
 51
23.10178946332487
  0
ARC
  5
E618
  8
MSM_CONTINUOUS
 10
24.632639386948782
 20
28.105527323235009
 30
0.0
 40
0.2499999999999956
 50
130.52411845409239
 51
203.10178946332289
  0
ARC
  5
E619
  8
MSM_CONTINUOUS
 10
27.019287580459121
 20
25.313502063977921
 30
0.0
 40
3.9230769999981931
 50
124.8405720162022
 51
130.52411845409111
  0
ARC
  5
E61A
  8
MSM_CONTINUOUS
 10
24.542120032625899
 20
28.87280766557652
 30
0.0
 40
0.4133980923701945
 50
304.80030268813078
 51
314.7058812026699
  0
ARC
  5
E61B
  8
MSM_CONTINUOUS
 10
21.843194616875401
 20
31.599585213864401
 30
0.0
 40
4.2500000000002922
 50
314.70588213485053
 51
321.62144805430518
  0
ARC
  5
E61C
  8
MSM_CONTINUOUS
 10
25.17934473903928
 20
22.132278628532251
 30
0.0
 40
4.2499999999997549
 50
77.202081357458582
 51
84.117647176470314
  0
ARC
  5
E61D
  8
MSM_CONTINUOUS
 10
25.572543344144911
 20
25.94867864092231
 30
0.0
 40
0.4133980923700526
 50
84.117647176477575
 51
94.023226720245532
  0
ARC
  5
E61E
  8
MSM_CONTINUOUS
 10
25.27104304641265
 20
30.27465980085492
 30
0.0
 40
3.9230770000000841
 50
268.2994109576747
 51
273.9829573959193
  0
ARC
  5
E61F
  8
MSM_CONTINUOUS
 10
25.162038902307909
 20
26.603200588975039
 30
0.0
 40
0.249999999999996
 50
195.7217399484432
 51
268.2994109576735
  0
ARC
  5
E620
  8
MSM_CONTINUOUS
 10
13.249999999663689
 20
23.249999999904158
 30
0.0
 40
12.125000000349679
 50
15.721739948451299
 51
16.042965933902991
  0
ARC
  5
E621
  8
MSM_CONTINUOUS
 10
25.143052234835739
 20
26.66993180333591
 30
0.0
 40
0.2500000000000062
 50
123.465294924684
 51
196.04296593390731
  0
ARC
  5
E622
  8
MSM_CONTINUOUS
 10
27.168503639845571
 20
23.605777555605979
 30
0.0
 40
3.9230770000011872
 50
117.78174848679249
 51
123.4652949246772
  0
ARC
  5
E623
  8
MSM_CONTINUOUS
 10
25.14750874081453
 20
27.442520320468361
 30
0.0
 40
0.4133980923699821
 50
297.74147915871771
 51
307.64705767326029
  0
ARC
  5
E624
  8
MSM_CONTINUOUS
 10
22.80412883608026
 20
30.480296615676149
 30
0.0
 40
4.250000000001104
 50
307.64705860543899
 51
314.56262452489261
  0
ARC
  5
E625
  8
MSM_CONTINUOUS
 10
24.95157151719059
 20
20.67477360312628
 30
0.0
 40
4.2499999999995861
 50
70.143257828047169
 51
77.058823647059256
  0
ARC
  5
E626
  8
MSM_CONTINUOUS
 10
25.810780751287069
 20
24.41392774406086
 30
0.0
 40
0.413398092370271
 50
77.058823647063875
 51
86.964403190827795
  0
ARC
  5
E627
  8
MSM_CONTINUOUS
 10
26.043178102337151
 20
28.74417102785489
 30
0.0
 40
3.9230769999991502
 50
261.24058742826293
 51
266.92413386650901
  0
ARC
  5
E628
  8
MSM_CONTINUOUS
 10
25.483820807295398
 20
25.113934938506649
 30
0.0
 40
0.249999999999996
 50
188.6629164190295
 51
261.2405874282635
  0
ARC
  5
E629
  8
MSM_CONTINUOUS
 10
13.25000000009585
 20
23.250000000014769
 30
0.0
 40
12.124999999903009
 50
8.6629164190334134
 51
8.9841424044967706
  0
ARC
  5
E62A
  8
MSM_CONTINUOUS
 10
25.473178533952488
 20
25.182493603384771
 30
0.0
 40
0.2500000000000073
 50
116.40647139527231
 51
188.98414240449969
  0
ARC
  5
E62B
  8
MSM_CONTINUOUS
 10
27.106729371791062
 20
21.892659822154201
 30
0.0
 40
3.923076999999997
 50
110.7229249573801
 51
116.40647139526661
  0
ARC
  5
E62C
  8
MSM_CONTINUOUS
 10
25.572543344144961
 20
25.948678640921891
 30
0.0
 40
0.4133980923698851
 50
290.68265562930168
 51
300.5882341438479
  0
ARC
  5
E62D
  8
MSM_CONTINUOUS
 10
23.62023220107443
 20
29.251404090950771
 30
0.0
 40
4.2499999999993259
 50
300.5882350760258
 51
307.50380099548221
  0
ARC
  5
E62E
  8
MSM_CONTINUOUS
 10
24.546414399065959
 20
19.256306384854479
 30
0.0
 40
4.2500000000007034
 50
63.084434298635991
 51
70.000000117646223
  0
ARC
  5
E62F
  8
MSM_CONTINUOUS
 10
25.858609525994659
 20
22.86153288904238
 30
0.0
 40
0.41339809237016
 50
70.000000117650345
 51
79.905579661417022
  0
ARC
  5
E630
  8
MSM_CONTINUOUS
 10
26.621381618878029
 20
27.130396222523199
 30
0.0
 40
3.923076999999306
 50
254.18176389885079
 51
259.86531033709667
  0
ARC
  5
E631
  8
MSM_CONTINUOUS
 10
25.620150459314559
 20
23.596413934361149
 30
0.0
 40
0.2500000000000034
 50
181.6040928896191
 51
254.1817638988517
  0
ARC
  5
E632
  8
MSM_CONTINUOUS
 10
13.249999999082689
 20
23.249999999971681
 30
0.0
 40
12.12500000091773
 50
1.6040928896347659
 51
1.925318875071361
  0
ARC
  5
E633
  8
MSM_CONTINUOUS
 10
25.618013906116651
 20
23.665760770281821
 30
0.0
 40
0.2500000000000045
 50
109.3476478658595
 51
181.92531887508241
  0
ARC
  5
E634
  8
MSM_CONTINUOUS
 10
26.834901211232879
 20
20.20011798220143
 30
0.0
 40
3.9230769999996831
 50
103.66410142796821
 51
109.34764786585509
  0
ARC
  5
E635
  8
MSM_CONTINUOUS
 10
25.810780751287108
 20
24.4139277440607
 30
0.0
 40
0.4133980923699463
 50
283.62383209989082
 51
293.52940863645972
  0
ARC
  5
E636
  8
MSM_CONTINUOUS
 10
24.279133416731309
 20
27.93153639770324
 30
0.0
 40
4.2500000000002851
 50
293.52941135421702
 51
300.44497746606982
  0
ARC
  5
E637
  8
MSM_CONTINUOUS
 10
23.970015153582821
 20
17.898379490842579
 30
0.0
 40
4.2500000000003064
 50
56.025610769224102
 51
62.941176588234832
  0
ARC
  5
E638
  8
MSM_CONTINUOUS
 10
25.71530463279684
 20
21.315026799443942
 30
0.0
 40
0.4133980923705872
 50
62.94117658824522
 51
72.846756132001431
  0
ARC
  5
E639
  8
MSM_CONTINUOUS
 10
26.996888620112699
 20
25.457798565916381
 30
0.0
 40
3.9230769999996671
 50
247.12294036943979
 51
252.80648680768479
  0
ARC
  5
E63A
  8
MSM_CONTINUOUS
 10
25.568961239807571
 20
22.073641648085658
 30
0.0
 40
0.2499999999999986
 50
174.54526936020679
 51
247.12294036943851
  0
ARC
  5
E63B
  8
MSM_CONTINUOUS
 10
13.24999999918459
 20
23.25000000007493
 30
0.0
 40
12.125000000818829
 50
354.54526936022438
 51
354.86649534566351
  0
ARC
  5
E63C
  8
MSM_CONTINUOUS
 10
25.57536279472324
 20
22.14272542770459
 30
0.0
 40
0.2500000000000013
 50
102.2888243364478
 51
174.86649534567411
  0
ARC
  5
E63D
  8
MSM_CONTINUOUS
 10
26.35713979599824
 20
18.553809244759918
 30
0.0
 40
3.9230769999994122
 50
96.605277898555784
 51
102.2888243364432
  0
ARC
  5
E63E
  8
MSM_CONTINUOUS
 10
25.858609525994559
 20
22.861532889042511
 30
0.0
 40
0.4133980923703632
 50
276.56500857048729
 51
286.47058398713421
  0
ARC
  5
E63F
  8
MSM_CONTINUOUS
 10
24.770844212270759
 20
26.540701384760951
 30
0.0
 40
4.2500000000000417
 50
286.47058771587092
 51
293.3861539366581
  0
ARC
  5
E640
  8
MSM_CONTINUOUS
 10
23.231111405753168
 20
16.621577708607859
 30
0.0
 40
4.2499999999999654
 50
48.966787175791218
 51
55.88235305882327
  0
ARC
  5
E641
  8
MSM_CONTINUOUS
 10
25.38303842779785
 20
19.79785293116333
 30
0.0
 40
0.4133980923705221
 50
55.882353058832209
 51
65.787932602435248
  0
ARC
  5
E642
  8
MSM_CONTINUOUS
 10
27.164006802672901
 20
23.751732933555569
 30
0.0
 40
3.9230769999993691
 50
240.06411684002771
 51
245.74766327828959
  0
ARC
  5
E643
  8
MSM_CONTINUOUS
 10
25.331029125162729
 20
20.568701755311508
 30
0.0
 40
0.2499999999999958
 50
167.48644583079641
 51
240.0641168400293
  0
ARC
  5
E644
  8
MSM_CONTINUOUS
 10
13.24999999997957
 20
23.25000000000475
 30
0.0
 40
12.125000000020959
 50
347.48644583079778
 51
347.80767181625828
  0
ARC
  5
E645
  8
MSM_CONTINUOUS
 10
25.345871747144869
 20
20.636475238949821
 30
0.0
 40
0.2500000000000019
 50
95.230000807035864
 51
167.80767181626129
  0
ARC
  5
E646
  8
MSM_CONTINUOUS
 10
25.680687502139001
 20
16.97868997213445
 30
0.0
 40
3.923076999999294
 50
89.546454368946627
 51
95.230000807031615
  0
ARC
  5
E647
  8
MSM_CONTINUOUS
 10
25.715304632797
 20
21.31502679944407
 30
0.0
 40
0.4133980923699421
 50
269.50618504293669
 51
279.41176045772107
  0
ARC
  5
E648
  8
MSM_CONTINUOUS
 10
25.08791075325405
 20
25.099982693181961
 30
0.0
 40
4.249999999999809
 50
279.41176418645921
 51
286.32733040724662
  0
ARC
  5
E649
  8
MSM_CONTINUOUS
 10
22.34090418319721
 20
15.445256051669061
 30
0.0
 40
4.2499999999994671
 50
41.907963570025082
 51
48.82352952941185
  0
ARC
  5
E64A
  8
MSM_CONTINUOUS
 10
24.866847727971749
 20
18.33301009352121
 30
0.0
 40
0.4133980923705883
 50
48.823529529422011
 51
58.729109073021831
  0
ARC
  5
E64B
  8
MSM_CONTINUOUS
 10
27.120202825263661
 20
22.038061541362751
 30
0.0
 40
3.9230770000018071
 50
233.00529331061759
 51
238.68883974887601
  0
ARC
  5
E64C
  8
MSM_CONTINUOUS
 10
24.909960923703451
 20
19.104407610761911
 30
0.0
 40
0.2500000000000134
 50
160.42762230138669
 51
233.00529331061239
  0
ARC
  5
E64D
  8
MSM_CONTINUOUS
 10
13.24999999976788
 20
23.250000000082039
 30
0.0
 40
12.12500000024618
 50
340.42762230138931
 51
340.74884828684372
  0
ARC
  5
E64E
  8
MSM_CONTINUOUS
 10
24.933019613732512
 20
19.169843421492121
 30
0.0
 40
0.2499999999999905
 50
88.171177277621865
 51
160.74884828685501
  0
ARC
  5
E64F
  8
MSM_CONTINUOUS
 10
24.815798656892461
 20
15.49863736690958
 30
0.0
 40
3.9230769999995831
 50
82.487630839535271
 51
88.171177277619734
  0
ARC
  5
E650
  8
MSM_CONTINUOUS
 10
25.383038427798009
 20
19.797852931163821
 30
0.0
 40
0.4133980923703716
 50
262.44736151352782
 51
272.35293692830243
  0
ARC
  5
E651
  8
MSM_CONTINUOUS
 10
25.225526634119682
 20
23.631220149743491
 30
0.0
 40
4.250000000000222
 50
272.35294065704772
 51
279.26850687783428
  0
ARC
  5
E652
  8
MSM_CONTINUOUS
 10
21.312888119979771
 20
14.387246357267561
 30
0.0
 40
4.2500000000012257
 50
34.849140116968762
 51
41.764705999998831
  0
ARC
  5
E653
  8
MSM_CONTINUOUS
 10
24.17455745815241
 20
16.942703810758118
 30
0.0
 40
0.4133980923702114
 50
41.764706000004658
 51
51.670285543614071
  0
ARC
  5
E654
  8
MSM_CONTINUOUS
 10
26.86614071152805
 20
20.342761900818179
 30
0.0
 40
3.9230770000011401
 50
225.94646978120551
 51
231.63001621946481
  0
ARC
  5
E655
  8
MSM_CONTINUOUS
 10
24.312139600150498
 20
17.702956421048949
 30
0.0
 40
0.2499999999999988
 50
153.36879877197251
 51
225.94646978120531
  0
ARC
  5
E656
  8
MSM_CONTINUOUS
 10
13.24999999932894
 20
23.2500000003343
 30
0.0
 40
12.12500000074971
 50
333.36879877198481
 51
333.6900247574257
  0
ARC
  5
E657
  8
MSM_CONTINUOUS
 10
24.34306481199043
 20
17.765062618681981
 30
0.0
 40
0.2500000000000012
 50
81.112353748213067
 51
153.6900247574367
  0
ARC
  5
E658
  8
MSM_CONTINUOUS
 10
23.775584093533428
 20
14.136087517898931
 30
0.0
 40
3.9230769999992909
 50
75.428807310123119
 51
81.112353748208065
  0
ARC
  5
E659
  8
MSM_CONTINUOUS
 10
24.866847727972051
 20
18.33301009352202
 30
0.0
 40
0.4133980923706745
 50
255.38853798412191
 51
265.29411339888929
  0
ARC
  5
E65A
  8
MSM_CONTINUOUS
 10
25.181605738391799
 20
22.156678697428589
 30
0.0
 40
4.2499999999998881
 50
265.29411712763567
 51
272.2096833484232
  0
ARC
  5
E65B
  8
MSM_CONTINUOUS
 10
20.16264689172181
 20
13.463586973898471
 30
0.0
 40
4.2499999999994147
 50
27.79031646387228
 51
34.705882470588321
  0
ARC
  5
E65C
  8
MSM_CONTINUOUS
 10
23.31666203314775
 20
15.64800970891973
 30
0.0
 40
0.4133980923704906
 50
34.705882470595789
 51
44.611462014199319
  0
ARC
  5
E65D
  8
MSM_CONTINUOUS
 10
26.405671784135421
 20
18.691533026382132
 30
0.0
 40
3.9230770000007671
 50
218.8876462517932
 51
224.57119269005301
  0
ARC
  5
E65E
  8
MSM_CONTINUOUS
 10
23.546627516383499
 20
16.38559275764803
 30
0.0
 40
0.2499999999999986
 50
146.30997524256159
 51
218.88764625179101
  0
ARC
  5
E65F
  8
MSM_CONTINUOUS
 10
13.24999999952642
 20
23.250000000313431
 30
0.0
 40
12.1250000005679
 50
326.30997524257248
 51
326.63120122801848
  0
ARC
  5
E660
  8
MSM_CONTINUOUS
 10
23.584950455346181
 20
16.44342787553532
 30
0.0
 40
0.2500000000000014
 50
74.053530218799921
 51
146.6312012280267
  0
ARC
  5
E661
  8
MSM_CONTINUOUS
 10
22.575812404505911
 20
12.91169529190533
 30
0.0
 40
3.9230769999997932
 50
68.369983780909095
 51
74.053530218796055
  0
ARC
  5
E662
  8
MSM_CONTINUOUS
 10
24.17455745815235
 20
16.942703810758069
 30
0.0
 40
0.4133980923701098
 50
248.3297144528365
 51
258.23528986949088
  0
ARC
  5
E663
  8
MSM_CONTINUOUS
 10
24.95681386207918
 20
20.698710881591641
 30
0.0
 40
4.2500000000009113
 50
258.2352935982251
 51
265.15085981901092
  0
ARC
  5
E664
  8
MSM_CONTINUOUS
 10
18.907616982947431
 20
12.68827963628347
 30
0.0
 40
4.25000000000023
 50
20.731492849968379
 51
27.647058941176041
  0
ARC
  5
E665
  8
MSM_CONTINUOUS
 10
1.1689708748372489
 20
20.568701755311519
 30
0.0
 40
0.2499999999999965
 50
299.93588315997278
 51
12.51355416920345
  0
ARC
  5
E666
  8
MSM_CONTINUOUS
 10
-0.664006802673498
 20
23.751732933556671
 30
0.0
 40
3.9230770000005819
 50
294.25233672188858
 51
299.9358831599717
  0
ARC
  5
E667
  8
MSM_CONTINUOUS
 10
1.116961572201979
 20
19.7978529311637
 30
0.0
 40
0.4133980923701457
 50
114.2120673958844
 51
124.11764393057619
  0
ARC
  5
E668
  8
MSM_CONTINUOUS
 10
3.268888594246782
 20
16.62157770860787
 30
0.0
 40
4.2499999999999512
 50
124.1176466483344
 51
131.03321276018781
  0
ARC
  5
E669
  8
MSM_CONTINUOUS
 10
1.7291557877296311
 20
26.540701384761991
 30
0.0
 40
4.2500000000011431
 50
246.61384612736271
 51
253.529411882349
  0
ARC
  5
E66A
  8
MSM_CONTINUOUS
 10
0.6413904740053411
 20
22.861532889042511
 30
0.0
 40
0.4133980923703306
 50
253.5294118823345
 51
263.43499142612183
  0
ARC
  5
E66B
  8
MSM_CONTINUOUS
 10
0.1428602040017637
 20
18.553809244760171
 30
0.0
 40
3.9230769999991679
 50
77.71117566355673
 51
83.394722101802714
  0
ARC
  5
E66C
  8
MSM_CONTINUOUS
 10
0.9246372052767419
 20
22.14272542770459
 30
0.0
 40
0.2500000000000014
 50
5.1335046543291281
 51
77.711175663560127
  0
ARC
  5
E66D
  8
MSM_CONTINUOUS
 10
13.25000000062758
 20
23.25000000005809
 30
0.0
 40
12.125000000630269
 50
185.13350465433649
 51
185.45473063978039
  0
ARC
  5
E66E
  8
MSM_CONTINUOUS
 10
0.9310387601924219
 20
22.073641648085669
 30
0.0
 40
0.2499999999999961
 50
292.87705963056362
 51
5.4547306397964874
  0
ARC
  5
E66F
  8
MSM_CONTINUOUS
 10
-0.4968886201125003
 20
25.457798565915699
 30
0.0
 40
3.923076999998941
 50
287.19351319247608
 51
292.87705963056158
  0
ARC
  5
E670
  8
MSM_CONTINUOUS
 10
0.7846953672029109
 20
21.315026799444642
 30
0.0
 40
0.4133980923698808
 50
107.15324386646989
 51
117.05881761615601
  0
ARC
  5
E671
  8
MSM_CONTINUOUS
 10
2.5299848464172712
 20
17.898379490842331
 30
0.0
 40
4.2500000000006031
 50
117.0588228480246
 51
123.9743892307753
  0
ARC
  5
E672
  8
MSM_CONTINUOUS
 10
13.249999999953729
 20
23.24999999999838
 30
0.0
 40
13.249999999953721
 50
181.0793963960256
 51
182.45001536867821
  0
ARC
  5
E673
  8
MSM_CONTINUOUS
 10
0.0620661886707694
 20
22.685728976466521
 30
0.0
 40
0.0500000000000093
 50
182.4500153686823
 51
246.61385150510981
  0
ARC
  5
E674
  8
MSM_CONTINUOUS
 10
0.182931294559431
 20
21.381386758235919
 30
0.0
 40
0.0499999999999956
 50
123.9743892307561
 51
188.13821992544069
  0
ARC
  5
E675
  8
MSM_CONTINUOUS
 10
13.250000000014101
 20
23.25000000000216
 30
0.0
 40
13.25000000001428
 50
188.13821992544121
 51
189.50883992905949
  0
ARC
  5
E676
  8
MSM_CONTINUOUS
 10
0.2313663069939515
 20
21.069363219758351
 30
0.0
 40
0.0500000000000009
 50
189.50911210596689
 51
253.67268152533609
  0
ARC
  5
E677
  8
MSM_CONTINUOUS
 10
0.5116037026223026
 20
19.789760157018801
 30
0.0
 40
0.0499999999999962
 50
131.03321276019409
 51
195.1970434548644
  0
ARC
  5
E678
  8
MSM_CONTINUOUS
 10
13.25000000001484
 20
23.250000000004189
 30
0.0
 40
13.25000000001544
 50
195.19704345485309
 51
196.5676634584714
  0
ARC
  5
E679
  8
MSM_CONTINUOUS
 10
0.5980156416392007
 20
19.486053693819638
 30
0.0
 40
0.0500000000000035
 50
196.56793563539429
 51
260.73150505473637
  0
ARC
  5
E67A
  8
MSM_CONTINUOUS
 10
1.033377213747229
 20
18.250587264646981
 30
0.0
 40
0.0500000000000053
 50
138.09203628958011
 51
202.25586698425249
  0
ARC
  5
E67B
  8
MSM_CONTINUOUS
 10
13.249999999977501
 20
23.249999999990511
 30
0.0
 40
13.249999999975589
 50
202.25586698426309
 51
203.6264859569134
  0
ARC
  5
E67C
  8
MSM_CONTINUOUS
 10
1.1564561624351191
 20
17.959801757127011
 30
0.0
 40
0.050000000000011
 50
203.6264859569103
 51
267.79032209334139
  0
ARC
  5
E67D
  8
MSM_CONTINUOUS
 10
1.7403422733721601
 20
16.787200373222401
 30
0.0
 40
0.0499999999999839
 50
145.15085981899239
 51
209.3146905136995
  0
ARC
  5
E67E
  8
MSM_CONTINUOUS
 10
13.24999999997344
 20
23.249999999984649
 30
0.0
 40
13.24999999996934
 50
209.31469051367441
 51
210.68530948632539
  0
ARC
  5
E67F
  8
MSM_CONTINUOUS
 10
1.89822248032809
 20
16.513743833265259
 30
0.0
 40
0.0499999999999943
 50
210.68530948632991
 51
274.84914562276037
  0
ARC
  5
E680
  8
MSM_CONTINUOUS
 10
2.6217820118337301
 20
15.42178293632456
 30
0.0
 40
0.0499999999999983
 50
152.20968334841669
 51
216.37351404308919
  0
ARC
  5
E681
  8
MSM_CONTINUOUS
 10
13.24999999995512
 20
23.249999999966288
 30
0.0
 40
13.24999999994389
 50
216.37351404308549
 51
217.7441330157391
  0
ARC
  5
E682
  8
MSM_CONTINUOUS
 10
2.8120701740544511
 20
15.16980068632976
 30
0.0
 40
0.0499999999999841
 50
217.74413301571661
 51
281.90796915217658
  0
ARC
  5
E683
  8
MSM_CONTINUOUS
 10
3.6643347011870229
 20
14.175033290466949
 30
0.0
 40
0.050000000000004
 50
159.26850687782681
 51
223.43233757248001
  0
ARC
  5
E684
  8
MSM_CONTINUOUS
 10
13.250000000007139
 20
23.25000000000696
 30
0.0
 40
13.25000000000998
 50
223.43233757250019
 51
224.802956545147
  0
ARC
  5
E685
  8
MSM_CONTINUOUS
 10
3.8841462441023529
 20
13.948345124487901
 30
0.0
 40
0.0500000000000036
 50
224.80295654515021
 51
288.9667872398129
  0
ARC
  5
E686
  8
MSM_CONTINUOUS
 10
4.852196305381117
 20
13.065850889414181
 30
0.0
 40
0.0499999999999878
 50
166.3273304072336
 51
230.49116110192071
  0
ARC
  5
E687
  8
MSM_CONTINUOUS
 10
13.25000000005438
 20
23.25000000006764
 30
0.0
 40
13.250000000086789
 50
230.49116110191599
 51
231.86178007455479
  0
ARC
  5
E688
  8
MSM_CONTINUOUS
 10
5.0981991100640256
 20
12.867893168973881
 30
0.0
 40
0.050000000000005
 50
231.86178007453441
 51
296.02561621099022
  0
ARC
  5
E689
  8
MSM_CONTINUOUS
 10
6.1673600533359263
 20
12.111049807727889
 30
0.0
 40
0.0499999999999893
 50
173.38615393664969
 51
237.54998463132819
  0
ARC
  5
E68A
  8
MSM_CONTINUOUS
 10
13.24999999997495
 20
23.249999999959801
 30
0.0
 40
13.249999999952649
 50
237.54998463132111
 51
238.9206036039738
  0
ARC
  5
E68B
  8
MSM_CONTINUOUS
 10
6.4358249680288528
 20
11.94482337008124
 30
0.0
 40
0.049999999999994
 50
238.9206036039642
 51
303.0844397404083
  0
ARC
  5
E68C
  8
MSM_CONTINUOUS
 10
7.5898894032365467
 20
11.32510385653584
 30
0.0
 40
0.050000000000002
 50
180.44497746608999
 51
244.60880816073549
  0
ARC
  5
E68D
  8
MSM_CONTINUOUS
 10
13.249999999989839
 20
23.249999999978339
 30
0.0
 40
13.24999999997609
 50
244.60880816073441
 51
245.97942713338469
  0
ARC
  5
E68E
  8
MSM_CONTINUOUS
 10
7.8767467734908001
 20
11.193128525035659
 30
0.0
 40
0.0499999999999986
 50
245.97942713337989
 51
310.14327378285662
  0
ARC
  5
E68F
  8
MSM_CONTINUOUS
 10
9.0982202601850322
 20
10.719927175308889
 30
0.0
 40
0.049999999999998
 50
187.50380099546081
 51
251.66763169014681
  0
ARC
  5
E690
  8
MSM_CONTINUOUS
 10
13.24999999999056
 20
23.24999999996999
 30
0.0
 40
13.24999999996856
 50
251.6676316901445
 51
253.0382506627956
  0
ARC
  5
E691
  8
MSM_CONTINUOUS
 10
9.3991216206738848
 20
10.624203561452489
 30
0.0
 40
0.0500000000000055
 50
253.0382506628037
 51
317.20209731226942
  0
ARC
  5
E692
  8
MSM_CONTINUOUS
 10
10.66948786589789
 20
10.30469362565135
 30
0.0
 40
0.0500000000000066
 50
194.56262452488789
 51
258.7264552195565
  0
ARC
  5
E693
  8
MSM_CONTINUOUS
 10
13.249999999999281
 20
23.249999999996049
 30
0.0
 40
13.249999999996
 50
258.72645521955792
 51
260.09707419220638
  0
ARC
  5
E694
  8
MSM_CONTINUOUS
 10
10.979871858718271
 20
10.246672801849479
 30
0.0
 40
0.0499999999999978
 50
260.09707419220479
 51
324.26092084168278
  0
ARC
  5
E695
  8
MSM_CONTINUOUS
 10
12.2798734051345
 20
10.085697724910171
 30
0.0
 40
0.0499999999999924
 50
201.62144805428821
 51
265.78527874897043
  0
ARC
  5
E696
  8
MSM_CONTINUOUS
 10
13.249999999998961
 20
23.249999999983519
 30
0.0
 40
13.249999999983499
 50
265.7852787489694
 51
267.15589772161889
  0
ARC
  5
E697
  8
MSM_CONTINUOUS
 10
12.59503492534329
 20
10.066259227708541
 30
0.0
 40
0.0500000000000013
 50
267.15589772161729
 51
331.31974437109523
  0
ARC
  5
E698
  8
MSM_CONTINUOUS
 10
13.904965074656671
 20
10.06625922770853
 30
0.0
 40
0.0499999999999872
 50
208.6802715836877
 51
272.8441022783835
  0
ARC
  5
E699
  8
MSM_CONTINUOUS
 10
13.250000000000821
 20
23.249999999986589
 30
0.0
 40
13.249999999986571
 50
272.84410227838117
 51
274.21472125103043
  0
ARC
  5
E69A
  8
MSM_CONTINUOUS
 10
10.315644402168131
 20
11.63328255519
 30
0.0
 40
4.2500000000003331
 50
338.37855218769329
 51
345.29411776470528
  0
ARC
  5
E69B
  8
MSM_CONTINUOUS
 10
14.026565737329729
 20
10.659333356374489
 30
0.0
 40
0.4133980923702293
 50
345.2941177647071
 51
355.1996973084718
  0
ARC
  5
E69C
  8
MSM_CONTINUOUS
 10
18.347598582063299
 20
10.29369613131983
 30
0.0
 40
3.9230769999984632
 50
169.4758815459096
 51
175.15942798415639
  0
ARC
  5
E69D
  8
MSM_CONTINUOUS
 10
14.7363096827834
 20
10.964581467167489
 30
0.0
 40
0.2500000000000012
 50
96.898210536681063
 51
169.4758815459108
  0
ARC
  5
E69E
  8
MSM_CONTINUOUS
 10
13.250000000030241
 20
23.249999999758021
 30
0.0
 40
12.12499999975614
 50
276.89821053667669
 51
277.21943539551478
  0
ARC
  5
E69F
  8
MSM_CONTINUOUS
 10
14.805163561068991
 20
10.97310742499061
 30
0.0
 40
0.2500000000000043
 50
24.641765512888071
 51
97.219491163651682
  0
ARC
  5
E6A0
  8
MSM_CONTINUOUS
 10
11.46658478944064
 20
9.4416419720442661
 30
0.0
 40
3.923077000000903
 50
18.958219074830041
 51
24.641765512912709
  0
ARC
  5
E6A1
  8
MSM_CONTINUOUS
 10
15.567925266999071
 20
10.85019502847301
 30
0.0
 40
0.4133980923703266
 50
198.91794974882171
 51
208.82352929411439
  0
ARC
  5
E6A2
  8
MSM_CONTINUOUS
 10
18.929205835425002
 20
12.69987260522622
 30
0.0
 40
4.2499999999991758
 50
208.82352929411729
 51
215.73909511312959
  0
ARC
  5
E6A3
  8
MSM_CONTINUOUS
 10
8.9103267721134678
 20
12.08192929632672
 30
0.0
 40
4.2500000000001821
 50
331.31972860398639
 51
338.23529423529402
  0
ARC
  5
E6A4
  8
MSM_CONTINUOUS
 10
12.473434262670271
 20
10.659333356374461
 30
0.0
 40
0.4133980923701149
 50
338.2352942352951
 51
348.14087377890729
  0
ARC
  5
E6A5
  8
MSM_CONTINUOUS
 10
16.716783347161169
 20
9.7654631349348602
 30
0.0
 40
3.9230770000002191
 50
162.4170580164986
 51
168.10060445475921
  0
ARC
  5
E6A6
  8
MSM_CONTINUOUS
 10
13.215310129317841
 20
10.875048621797641
 30
0.0
 40
0.2500000000000009
 50
89.839387007267717
 51
162.41705801649809
  0
ARC
  5
E6A7
  8
MSM_CONTINUOUS
 10
13.25000000000029
 20
23.25000000022936
 30
0.0
 40
12.12500000022936
 50
269.83938700727128
 51
270.16061299272587
  0
ARC
  5
E6A8
  8
MSM_CONTINUOUS
 10
13.28468987068214
 20
10.87504862179766
 30
0.0
 40
0.2499999999999902
 50
17.582941983502572
 51
90.160612992737157
  0
ARC
  5
E6A9
  8
MSM_CONTINUOUS
 10
9.7832166528394708
 20
9.7654631349350467
 30
0.0
 40
3.9230769999995321
 50
11.89939554541751
 51
17.582941983501911
  0
ARC
  5
E6AA
  8
MSM_CONTINUOUS
 10
14.026565737329779
 20
10.65933335637447
 30
0.0
 40
0.4133980923702038
 50
191.85912621940949
 51
201.76470576470419
  0
ARC
  5
E6AB
  8
MSM_CONTINUOUS
 10
17.589673227886021
 20
12.081929296326489
 30
0.0
 40
4.2499999999996527
 50
201.7647057647055
 51
208.6802715837174
  0
ARC
  5
E6AC
  8
MSM_CONTINUOUS
 10
7.5707941645747354
 20
12.699872605226339
 30
0.0
 40
4.2499999999994493
 50
324.26090507457411
 51
331.17647070588282
  0
ARC
  5
E6AD
  8
MSM_CONTINUOUS
 10
10.932074733001039
 20
10.850195028472969
 30
0.0
 40
0.4133980923701734
 50
331.17647070588072
 51
341.08205024980731
  0
ARC
  5
E6AE
  8
MSM_CONTINUOUS
 10
15.03341521055707
 20
9.4416419720451756
 30
0.0
 40
3.9230769999984791
 50
155.35823448708589
 51
161.041780925316
  0
ARC
  5
E6AF
  8
MSM_CONTINUOUS
 10
11.694836438930929
 20
10.973107424990509
 30
0.0
 40
0.2500000000000011
 50
82.780563477857115
 51
155.3582344870901
  0
ARC
  5
E6B0
  8
MSM_CONTINUOUS
 10
13.24999999998832
 20
23.249999999902158
 30
0.0
 40
12.124999999901471
 50
262.78056347785429
 51
263.1017894633178
  0
ARC
  5
E6B1
  8
MSM_CONTINUOUS
 10
11.763690317216581
 20
10.964581467167489
 30
0.0
 40
0.249999999999998
 50
10.524118454092671
 51
83.101789463323755
  0
ARC
  5
E6B2
  8
MSM_CONTINUOUS
 10
8.1524014179351454
 20
10.29369613131963
 30
0.0
 40
3.923077000000001
 50
4.8405720160058214
 51
10.52411845408961
  0
ARC
  5
E6B3
  8
MSM_CONTINUOUS
 10
12.47343426267037
 20
10.6593333563745
 30
0.0
 40
0.4133980923703622
 50
184.80030268999869
 51
194.70588223529009
  0
ARC
  5
E6B4
  8
MSM_CONTINUOUS
 10
16.18435559783099
 20
11.633282555189711
 30
0.0
 40
4.2499999999994369
 50
194.70588223529339
 51
201.6214480543058
  0
ARC
  5
E6B5
  8
MSM_CONTINUOUS
 10
6.3173525284367393
 20
13.477745091223349
 30
0.0
 40
4.2499999999994227
 50
317.20208154516229
 51
324.11764717647083
  0
ARC
  5
E6B6
  8
MSM_CONTINUOUS
 10
9.4258525876167525
 20
11.22902510427453
 30
0.0
 40
0.4133980923700605
 50
324.11764717646832
 51
334.02322672039787
  0
ARC
  5
E6B7
  8
MSM_CONTINUOUS
 10
13.32301231727682
 20
9.3271414413932376
 30
0.0
 40
3.9230769999994259
 50
148.29941095767489
 51
153.9829573959035
  0
ARC
  5
E6B8
  8
MSM_CONTINUOUS
 10
10.197937442883379
 20
11.2572714052453
 30
0.0
 40
0.2500000000000042
 50
75.721739948445816
 51
148.2994109576743
  0
ARC
  5
E6B9
  8
MSM_CONTINUOUS
 10
13.25000000007218
 20
23.250000000284359
 30
0.0
 40
12.12500000029338
 50
255.7217399484469
 51
256.04296593389989
  0
ARC
  5
E6BA
  8
MSM_CONTINUOUS
 10
10.26522170348135
 20
11.24034873442897
 30
0.0
 40
0.2500000000000027
 50
3.46529492468472
 51
76.042965933912342
  0
ARC
  5
E6BB
  8
MSM_CONTINUOUS
 10
6.5988605813285899
 20
11.01833348742457
 30
0.0
 40
3.9230770000009172
 50
357.78174848659472
 51
3.4652949246771141
  0
ARC
  5
E6BC
  8
MSM_CONTINUOUS
 10
10.932074733001
 20
10.850195028472969
 30
0.0
 40
0.413398092370173
 50
177.74147916058629
 51
187.64705870588099
  0
ARC
  5
E6BD
  8
MSM_CONTINUOUS
 10
14.73455612803099
 20
11.36073340908673
 30
0.0
 40
4.2500000000000062
 50
187.64705870588219
 51
194.56262452489361
  0
ARC
  5
E6BE
  8
MSM_CONTINUOUS
 10
5.1690027612149692
 20
14.403755000350269
 30
0.0
 40
4.2500000000007994
 50
310.14325801575143
 51
317.05882364705781
  0
ARC
  5
E6BF
  8
MSM_CONTINUOUS
 10
7.9776006188831756
 20
11.790080905988001
 30
0.0
 40
0.4133980923696666
 50
317.05882364705212
 51
326.96440319098969
  0
ARC
  5
E6C0
  8
MSM_CONTINUOUS
 10
11.611502631690779
 20
9.4236972543093458
 30
0.0
 40
3.923076999999866
 50
141.24058742826361
 51
146.92413386649159
  0
ARC
  5
E6C1
  8
MSM_CONTINUOUS
 10
8.7473046041004423
 20
11.72323292628219
 30
0.0
 40
0.2499999999999939
 50
68.662916419032726
 51
141.24058742826509
  0
ARC
  5
E6C2
  8
MSM_CONTINUOUS
 10
13.249999999870839
 20
23.249999999667718
 30
0.0
 40
12.12499999964351
 50
248.66291641903129
 51
248.98414240450171
  0
ARC
  5
E6C3
  8
MSM_CONTINUOUS
 10
8.8119992862058965
 20
11.69817007291212
 30
0.0
 40
0.2500000000000012
 50
356.4064713952709
 51
68.984142404501114
  0
ARC
  5
E6C4
  8
MSM_CONTINUOUS
 10
5.1461442385135854
 20
11.928390439585741
 30
0.0
 40
3.923076999999116
 50
350.72292495737952
 51
356.40647139526709
  0
ARC
  5
E6C5
  8
MSM_CONTINUOUS
 10
9.4258525876170793
 20
11.22902510427461
 30
0.0
 40
0.4133980923706348
 50
170.68265562931339
 51
180.58823517647181
  0
ARC
  5
E6C6
  8
MSM_CONTINUOUS
 10
13.26225230060253
 20
11.26841342525077
 30
0.0
 40
4.2499999999998517
 50
180.5882351764707
 51
187.5038009954819
  0
ARC
  5
E6C7
  8
MSM_CONTINUOUS
 10
4.1431526748199508
 20
15.46386496630438
 30
0.0
 40
4.2499999999995843
 50
303.08443436265588
 51
310.00000011764712
  0
ARC
  5
E6C8
  8
MSM_CONTINUOUS
 10
6.6092728503785798
 20
12.52485739956898
 30
0.0
 40
0.4133980923702186
 50
310.00000011764979
 51
319.90557966157672
  0
ARC
  5
E6C9
  8
MSM_CONTINUOUS
 10
9.9248308960160543
 20
9.7298457230929642
 30
0.0
 40
3.923077000000402
 50
134.1817638988519
 51
139.86531033707911
  0
ARC
  5
E6CA
  8
MSM_CONTINUOUS
 10
7.3649280377243933
 20
12.36392848641723
 30
0.0
 40
0.2500000000000057
 50
61.60409288962105
 51
134.18176389885281
  0
ARC
  5
E6CB
  8
MSM_CONTINUOUS
 10
13.249999999987139
 20
23.24999999997544
 30
0.0
 40
12.124999999972291
 50
241.60409288962069
 51
241.9253188750823
  0
ARC
  5
E6CC
  8
MSM_CONTINUOUS
 10
7.4260524359027178
 20
12.33110537780286
 30
0.0
 40
0.2500000000000009
 50
349.34764786585879
 51
61.925318875087989
  0
ARC
  5
E6CD
  8
MSM_CONTINUOUS
 10
3.816274088423298
 20
13.010071452069941
 30
0.0
 40
3.9230770000010731
 50
343.66410142777181
 51
349.34764786585401
  0
ARC
  5
E6CE
  8
MSM_CONTINUOUS
 10
7.9776006188829562
 20
11.79008090598826
 30
0.0
 40
0.4133980923704035
 50
163.6238321017633
 51
173.52941164705251
  0
ARC
  5
E6CF
  8
MSM_CONTINUOUS
 10
11.789762740787211
 20
11.35772208053114
 30
0.0
 40
4.2500000000006688
 50
173.52941164705931
 51
180.44497746606999
  0
ARC
  5
E6D0
  8
MSM_CONTINUOUS
 10
3.2553531108639362
 20
16.642004802622711
 30
0.0
 40
4.2500000000013367
 50
296.02561083324571
 51
302.94117658823387
  0
ARC
  5
E6D1
  8
MSM_CONTINUOUS
 10
5.3416117362781002
 20
13.42221612236392
 30
0.0
 40
0.4133980923703601
 50
302.94117658823831
 51
312.8467561321599
  0
ARC
  5
E6D2
  8
MSM_CONTINUOUS
 10
8.2885653344667887
 20
10.2409459490282
 30
0.0
 40
3.9230770000007231
 50
127.1229403694408
 51
132.8064868076678
  0
ARC
  5
E6D3
  8
MSM_CONTINUOUS
 10
6.0717631633844027
 20
13.16964579404795
 30
0.0
 40
0.249999999999997
 50
54.54526936020806
 51
127.12294036944149
  0
ARC
  5
E6D4
  8
MSM_CONTINUOUS
 10
13.249999999910941
 20
23.249999999873609
 30
0.0
 40
12.124999999845389
 50
234.5452693602069
 51
234.86649534567201
  0
ARC
  5
E6D5
  8
MSM_CONTINUOUS
 10
6.1283906940660131
 20
13.129559995057789
 30
0.0
 40
0.2499999999999934
 50
342.28882433644742
 51
54.866495345675119
  0
ARC
  5
E6D6
  8
MSM_CONTINUOUS
 10
2.6294096069449528
 20
14.24697934333169
 30
0.0
 40
3.923076999999815
 50
336.60527789835862
 51
342.28882433644287
  0
ARC
  5
E6D7
  8
MSM_CONTINUOUS
 10
6.6092728503785159
 20
12.52485739956898
 30
0.0
 40
0.4133980923701011
 50
156.5650085723473
 51
166.4705881176435
  0
ARC
  5
E6D8
  8
MSM_CONTINUOUS
 10
10.339408889335649
 20
11.62730554675025
 30
0.0
 40
4.2499999999994538
 50
166.4705881176472
 51
173.38615393665961
  0
ARC
  5
E6D9
  8
MSM_CONTINUOUS
 10
2.5190622057661178
 20
17.920315110312629
 30
0.0
 40
4.2500000000015401
 50
288.9667872398137
 51
295.88235305882262
  0
ARC
  5
E6DA
  8
MSM_CONTINUOUS
 10
4.1938337268888972
 20
14.468554030851969
 30
0.0
 40
0.413398092369823
 50
295.88235305881977
 51
305.7879326027558
  0
ARC
  5
E6DB
  8
MSM_CONTINUOUS
 10
6.7275100650385857
 20
10.94925017367698
 30
0.0
 40
3.9230770000005251
 50
120.0641168400286
 51
125.7476632782557
  0
ARC
  5
E6DC
  8
MSM_CONTINUOUS
 10
4.887413042395778
 20
14.12817099609361
 30
0.0
 40
0.2499999999999943
 50
47.486445830792867
 51
120.0641168400326
  0
ARC
  5
E6DD
  8
MSM_CONTINUOUS
 10
13.24999999979374
 20
23.24999999977388
 30
0.0
 40
12.12499999969395
 50
227.48644583079519
 51
227.80767181626419
  0
ARC
  5
E6DE
  8
MSM_CONTINUOUS
 10
4.9386852899384506
 20
14.08143016657915
 30
0.0
 40
0.2499999999999957
 50
335.23000080703508
 51
47.807671816265852
  0
ARC
  5
E6DF
  8
MSM_CONTINUOUS
 10
1.60354244979079
 20
15.62036385057467
 30
0.0
 40
3.9230769999993389
 50
329.54645436914387
 51
335.23000080703139
  0
ARC
  5
E6E0
  8
MSM_CONTINUOUS
 10
5.3416117362778257
 20
13.422216122364031
 30
0.0
 40
0.4133980923697475
 50
149.50618504106981
 51
159.41176458824711
  0
ARC
  5
E6E1
  8
MSM_CONTINUOUS
 10
8.9331766322301505
 20
12.073077213357999
 30
0.0
 40
4.2499999999998597
 50
159.4117645882352
 51
166.32733040724679
  0
ARC
  5
E6E2
  8
MSM_CONTINUOUS
 10
1.945441379113781
 20
19.279418008147029
 30
0.0
 40
4.2500000000000773
 50
281.90796377442058
 51
288.82352952941102
  0
ARC
  5
E6E3
  8
MSM_CONTINUOUS
 10
3.1833379668518802
 20
15.648009708920149
 30
0.0
 40
0.4133980923704376
 50
288.82352952941829
 51
298.7291090731789
  0
ARC
  5
E6E4
  8
MSM_CONTINUOUS
 10
5.2653290943635289
 20
11.844021227000541
 30
0.0
 40
3.9230769999985382
 50
113.0052933106153
 51
118.68883974886209
  0
ARC
  5
E6E5
  8
MSM_CONTINUOUS
 10
3.8298312153326668
 20
15.22497382755799
 30
0.0
 40
0.2499999999999967
 50
40.427622301383778
 51
113.005293310621
  0
ARC
  5
E6E6
  8
MSM_CONTINUOUS
 10
13.250000000248599
 20
23.250000000212282
 30
0.0
 40
12.12500000032691
 50
220.42762230138899
 51
220.748848286841
  0
ARC
  5
E6E7
  8
MSM_CONTINUOUS
 10
3.874970944727703
 20
15.172286510849711
 30
0.0
 40
0.2500000000000008
 50
328.17117727762133
 51
40.748848286849878
  0
ARC
  5
E6E8
  8
MSM_CONTINUOUS
 10
0.7542237173518203
 20
17.109405864620548
 30
0.0
 40
3.9230769999998389
 50
322.48763083953492
 51
328.17117727761911
  0
ARC
  5
E6E9
  8
MSM_CONTINUOUS
 10
4.1938337268880943
 20
14.46855403085271
 30
0.0
 40
0.4133980923694499
 50
142.44736151352231
 51
152.35294105883489
  0
ARC
  5
E6EA
  8
MSM_CONTINUOUS
 10
7.592383017051179
 20
12.688279636284051
 30
0.0
 40
4.2499999999987512
 50
152.3529410588223
 51
159.26850687783579
  0
ARC
  5
E6EB
  8
MSM_CONTINUOUS
 10
1.543186137921033
 20
20.698710881590081
 30
0.0
 40
4.2499999999993223
 50
274.8491402450083
 51
281.7647060000001
  0
ARC
  5
E6EC
  8
MSM_CONTINUOUS
 10
2.325442541847611
 20
16.94270381075793
 30
0.0
 40
0.4133980923699684
 50
281.76470599999919
 51
291.6702855437693
  0
ARC
  5
E6ED
  8
MSM_CONTINUOUS
 10
3.924187595493744
 20
12.91169529190627
 30
0.0
 40
3.9230769999988051
 50
105.9464697812036
 51
111.6300162194502
  0
ARC
  5
E6EE
  8
MSM_CONTINUOUS
 10
2.9150495446537898
 20
16.443427875535331
 30
0.0
 40
0.2499999999999983
 50
33.368798771973793
 51
105.9464697812073
  0
ARC
  5
E6EF
  8
MSM_CONTINUOUS
 10
13.250000000210941
 20
23.25000000013933
 30
0.0
 40
12.125000000252809
 50
213.368798771977
 51
213.69002475743099
  0
ARC
  5
E6F0
  8
MSM_CONTINUOUS
 10
2.9533724836164832
 20
16.385592757648041
 30
0.0
 40
0.2499999999999983
 50
321.11235374820899
 51
33.690024757442458
  0
ARC
  5
E6F1
  8
MSM_CONTINUOUS
 10
0.0943282158654313
 20
18.691533026381329
 30
0.0
 40
3.923076999999576
 50
315.42880731012349
 51
321.11235374820802
  0
ARC
  5
E6F2
  8
MSM_CONTINUOUS
 10
3.18333796685162
 20
15.64800970892027
 30
0.0
 40
0.4133980923696939
 50
135.38853798411151
 51
145.2941175294188
  0
ARC
  5
E6F3
  8
MSM_CONTINUOUS
 10
6.3373531082777852
 20
13.46358697389867
 30
0.0
 40
4.2499999999989919
 50
145.29411752941101
 51
152.20968334842399
  0
ARC
  5
E6F4
  8
MSM_CONTINUOUS
 10
1.3183942616081901
 20
22.15667869742855
 30
0.0
 40
4.2499999999998392
 50
267.7903167155971
 51
274.70588247058799
  0
ARC
  5
E6F5
  8
MSM_CONTINUOUS
 10
1.633152272027949
 20
18.333010093521828
 30
0.0
 40
0.4133980923704791
 50
274.70588247059311
 51
284.61146201435218
  0
ARC
  5
E6F6
  8
MSM_CONTINUOUS
 10
2.7244159064671791
 20
14.136087517895859
 30
0.0
 40
3.9230770000024271
 50
98.887646251794507
 51
104.5711926900358
  0
ARC
  5
E6F7
  8
MSM_CONTINUOUS
 10
2.156935188009562
 20
17.765062618681981
 30
0.0
 40
0.2500000000000027
 50
26.309975242563102
 51
98.887646251795303
  0
ARC
  5
E6F8
  8
MSM_CONTINUOUS
 10
13.249999999223579
 20
23.249999999612921
 30
0.0
 40
12.12499999913245
 50
206.30997524255031
 51
206.63120122803389
  0
ARC
  5
E6F9
  8
MSM_CONTINUOUS
 10
2.1878603998494688
 20
17.70295642104897
 30
0.0
 40
0.2499999999999996
 50
314.05353021879938
 51
26.631201228027351
  0
ARC
  5
E6FA
  8
MSM_CONTINUOUS
 10
-0.3661407115284092
 20
20.342761900818559
 30
0.0
 40
3.923077000001626
 50
308.36998378071257
 51
314.05353021879409
  0
ARC
  5
E6FB
  8
MSM_CONTINUOUS
 10
2.3254425418476208
 20
16.942703810758129
 30
0.0
 40
0.4133980923702569
 50
128.32971445471031
 51
138.2352929673728
  0
ARC
  5
E6FC
  8
MSM_CONTINUOUS
 10
5.1871118800186826
 20
14.38724635726876
 30
0.0
 40
4.2499999999993001
 50
138.23529389955559
 51
145.15085981901231
  0
ARC
  5
E6FD
  8
MSM_CONTINUOUS
 10
1.27447336588029
 20
23.63122014974314
 30
0.0
 40
4.2499999999998641
 50
260.73149326253952
 51
267.64705894117623
  0
ARC
  5
E6FE
  8
MSM_CONTINUOUS
 10
1.116961572201979
 20
19.797852931163462
 30
0.0
 40
0.4133980923700091
 50
267.6470589411756
 51
277.55263848494519
  0
ARC
  5
E6FF
  8
MSM_CONTINUOUS
 10
1.684201343107538
 20
15.498637366909771
 30
0.0
 40
3.9230769999993931
 50
91.828822722380977
 51
97.512369160626704
  0
ARC
  5
E700
  8
MSM_CONTINUOUS
 10
1.5669803862674589
 20
19.169843421492121
 30
0.0
 40
0.2500000000000058
 50
19.251151713150669
 51
91.828822722381304
  0
ARC
  5
E701
  8
MSM_CONTINUOUS
 10
13.250000000124761
 20
23.250000000044139
 30
0.0
 40
12.125000000132349
 50
199.2511517131544
 51
199.57237769861169
  0
ARC
  5
E702
  8
MSM_CONTINUOUS
 10
1.5900390762965411
 20
19.104407610761921
 30
0.0
 40
0.2499999999999981
 50
306.99470668938397
 51
19.57237769861468
  0
ARC
  5
E703
  8
MSM_CONTINUOUS
 10
-0.6202028252626093
 20
22.03806154136122
 30
0.0
 40
3.9230769999999331
 50
301.31116025129978
 51
306.99470668938392
  0
ARC
  5
E704
  8
MSM_CONTINUOUS
 10
1.6331522720282119
 20
18.33301009352132
 30
0.0
 40
0.4133980923705006
 50
121.27089092530071
 51
131.17646745998229
  0
ARC
  5
E705
  8
MSM_CONTINUOUS
 10
4.1590958168034611
 20
15.445256051668339
 30
0.0
 40
4.2500000000004894
 50
131.17647017774681
 51
138.09203628959921
  0
ARC
  5
E706
  8
MSM_CONTINUOUS
 10
1.412089246745829
 20
25.099982693181481
 30
0.0
 40
4.2499999999993028
 50
253.67266973312721
 51
260.58823541176503
  0
ARC
  5
E707
  8
MSM_CONTINUOUS
 10
0.7846953672029997
 20
21.315026799444301
 30
0.0
 40
0.4133980923701611
 50
260.5882354117648
 51
270.49381495553109
  0
ARC
  5
E708
  8
MSM_CONTINUOUS
 10
0.8193124978609809
 20
16.978689972134159
 30
0.0
 40
3.923076999999588
 50
84.769999192969223
 51
90.453545631214567
  0
ARC
  5
E709
  8
MSM_CONTINUOUS
 10
1.1541282528551089
 20
20.636475238949821
 30
0.0
 40
0.2500000000000026
 50
12.19232818373858
 51
84.769999192970985
  0
ARC
  5
E70A
  8
MSM_CONTINUOUS
 10
13.24999999923701
 20
23.249999999832841
 30
0.0
 40
12.124999999218931
 50
192.19232818372959
 51
192.51355416921101
  0
ARC
  5
E70B
  8
MSM_CONTINUOUS
 10
25.98839629737769
 20
19.789760157018769
 30
0.0
 40
0.0499999999999856
 50
344.80295654514867
 51
48.96678179808287
  0
ARC
  5
E70C
  8
MSM_CONTINUOUS
 10
26.268633693005459
 20
21.069363219758131
 30
0.0
 40
0.0499999999999847
 50
286.32733040721541
 51
350.49116110191687
  0
ARC
  5
E70D
  8
MSM_CONTINUOUS
 10
13.24999999999245
 20
23.250000000001219
 30
0.0
 40
13.25000000000764
 50
350.49116110191147
 51
351.86178007455851
  0
ARC
  5
E70E
  8
MSM_CONTINUOUS
 10
26.317068705440541
 20
21.381386758235891
 30
0.0
 40
0.0500000000000064
 50
351.86178007457721
 51
56.025610769254378
  0
ARC
  5
E70F
  8
MSM_CONTINUOUS
 10
26.437933811329231
 20
22.68572897646651
 30
0.0
 40
0.0499999999999911
 50
293.38615393662388
 51
357.5499846313167
  0
ARC
  5
E710
  8
MSM_CONTINUOUS
 10
13.250000000000229
 20
23.24999999999989
 30
0.0
 40
13.24999999999976
 50
357.54998463132353
 51
358.92060360397193
  0
ARC
  5
E711
  8
MSM_CONTINUOUS
 10
26.447657671765349
 20
23.001339631438722
 30
0.0
 40
0.0499999999999979
 50
358.92060360406992
 51
63.084434298651793
  0
ARC
  5
E712
  8
MSM_CONTINUOUS
 10
26.407318296112759
 20
24.310648506705419
 30
0.0
 40
0.0499999999999922
 50
300.44497746603679
 51
4.6088081607375591
  0
ARC
  5
E713
  8
MSM_CONTINUOUS
 10
13.250000000000931
 20
23.250000000000089
 30
0.0
 40
13.24999999999905
 50
4.6088081607346894
 51
5.9794271333826643
  0
ARC
  5
E714
  8
MSM_CONTINUOUS
 10
26.37818360073765
 20
24.625061942358499
 30
0.0
 40
0.0499999999999971
 50
5.97942713338242
 51
70.143257828062772
  0
ARC
  5
E715
  8
MSM_CONTINUOUS
 10
26.177251247358981
 20
25.919489686748239
 30
0.0
 40
0.0500000000000074
 50
307.5038009954722
 51
11.66763169013679
  0
ARC
  5
E716
  8
MSM_CONTINUOUS
 10
13.25000000003967
 20
23.25000000000859
 30
0.0
 40
13.2499999999594
 50
11.66763169014499
 51
13.038250662797029
  0
ARC
  5
E717
  8
MSM_CONTINUOUS
 10
26.109699648456271
 20
26.22793971589309
 30
0.0
 40
0.0499999999999985
 50
13.038250662806201
 51
77.202081357477454
  0
ARC
  5
E718
  8
MSM_CONTINUOUS
 10
25.75122024700962
 20
27.487864124267901
 30
0.0
 40
0.0499999999999933
 50
314.56262452486368
 51
18.72645521955323
  0
ARC
  5
E719
  8
MSM_CONTINUOUS
 10
13.249999999952569
 20
23.24999999998332
 30
0.0
 40
13.250000000050269
 50
18.72645521956083
 51
20.097074192203511
  0
ARC
  5
E71A
  8
MSM_CONTINUOUS
 10
25.646275757960328
 20
27.78567495887933
 30
0.0
 40
0.0500000000000036
 50
20.097074192203969
 51
84.260904886886976
  0
ARC
  5
E71B
  8
MSM_CONTINUOUS
 10
25.135683490757799
 20
28.991996861504489
 30
0.0
 40
0.049999999999994
 50
321.621448054273
 51
25.7852787489627
  0
ARC
  5
E71C
  8
MSM_CONTINUOUS
 10
13.249999999998369
 20
23.249999999999179
 30
0.0
 40
13.250000000001821
 50
25.785278748970249
 51
27.155897721617901
  0
ARC
  5
E71D
  8
MSM_CONTINUOUS
 10
24.994936963041422
 20
29.274653992901449
 30
0.0
 40
0.0499999999999908
 50
27.155897721609819
 51
91.319728416311506
  0
ARC
  5
E71E
  8
MSM_CONTINUOUS
 10
24.33997188838471
 20
30.40908677938998
 30
0.0
 40
0.0500000000000054
 50
328.68027158369472
 51
32.84410227836009
  0
ARC
  5
E71F
  8
MSM_CONTINUOUS
 10
13.25000000001811
 20
23.250000000012118
 30
0.0
 40
13.249999999978201
 50
32.84410227838034
 51
34.214721251030397
  0
ARC
  5
E720
  8
MSM_CONTINUOUS
 10
24.16555689589233
 20
30.672305413585288
 30
0.0
 40
0.0499999999999986
 50
34.214721251021253
 51
98.378551945718584
  0
ARC
  5
E721
  8
MSM_CONTINUOUS
 10
23.376147616678612
 20
31.71765223927116
 30
0.0
 40
0.0500000000000082
 50
335.73909511310512
 51
39.90292580775678
  0
ARC
  5
E722
  8
MSM_CONTINUOUS
 10
13.25000000001098
 20
23.250000000009191
 30
0.0
 40
13.249999999985681
 50
39.902925807793643
 51
41.273544780442947
  0
ARC
  5
E723
  8
MSM_CONTINUOUS
 10
23.170708112907509
 20
31.9574422500807
 30
0.0
 40
0.0500000000000109
 50
41.273544780447182
 51
105.4373754751079
  0
ARC
  5
E724
  8
MSM_CONTINUOUS
 10
22.258821269130181
 20
32.897856722654382
 30
0.0
 40
0.0499999999999964
 50
342.79791864253292
 51
46.961749337200828
  0
ARC
  5
E725
  8
MSM_CONTINUOUS
 10
13.25000000001123
 20
23.250000000012321
 30
0.0
 40
13.24999999998332
 50
46.961749337204608
 51
48.332368309854132
  0
ARC
  5
E726
  8
MSM_CONTINUOUS
 10
22.025471507544051
 20
33.110583137942832
 30
0.0
 40
0.0499999999999966
 50
48.332368309855802
 51
112.49619900453941
  0
ARC
  5
E727
  8
MSM_CONTINUOUS
 10
21.004930374228479
 20
33.931809532605797
 30
0.0
 40
0.0499999999999994
 50
349.85674217193372
 51
54.020572866610088
  0
ARC
  5
E728
  8
MSM_CONTINUOUS
 10
13.249999999964331
 20
23.249999999949519
 30
0.0
 40
13.250000000061791
 50
54.020572866620633
 51
55.391191839262042
  0
ARC
  5
E729
  8
MSM_CONTINUOUS
 10
20.747207699349321
 20
34.114247636758712
 30
0.0
 40
0.0499999999999977
 50
55.39119183925277
 51
119.55502253395289
  0
ARC
  5
E72A
  8
MSM_CONTINUOUS
 10
19.633482639794231
 20
34.803836998480023
 30
0.0
 40
0.0499999999999963
 50
356.91556570131741
 51
61.07939639602106
  0
ARC
  5
E72B
  8
MSM_CONTINUOUS
 10
13.250000000018501
 20
23.250000000034429
 30
0.0
 40
13.249999999960901
 50
61.079396396027001
 51
62.450015368678891
  0
ARC
  5
E72C
  8
MSM_CONTINUOUS
 10
19.355293864665171
 20
34.953221215805591
 30
0.0
 40
0.0499999999999876
 50
62.450015368663003
 51
126.6138460633689
  0
ARC
  5
E72D
  8
MSM_CONTINUOUS
 10
18.165267815504599
 20
35.500720072790187
 30
0.0
 40
0.0499999999999962
 50
3.9743892307446038
 51
68.138219925438705
  0
ARC
  5
E72E
  8
MSM_CONTINUOUS
 10
13.25000000000648
 20
23.25000000001641
 30
0.0
 40
13.249999999982339
 50
68.138219925440382
 51
69.508838898089977
  0
ARC
  5
E72F
  8
MSM_CONTINUOUS
 10
17.87082999838659
 20
35.614785890827648
 30
0.0
 40
0.0499999999999862
 50
69.508838898083951
 51
133.67266959277191
  0
ARC
  5
E730
  8
MSM_CONTINUOUS
 10
16.622542541480051
 20
36.011894718493302
 30
0.0
 40
0.0499999999999945
 50
11.033212760163581
 51
75.19704345485026
  0
ARC
  5
E731
  8
MSM_CONTINUOUS
 10
13.24999999999309
 20
23.249999999972079
 30
0.0
 40
13.25000000002875
 50
75.19704345485448
 51
76.567662427499329
  0
ARC
  5
E732
  8
MSM_CONTINUOUS
 10
16.316319059547201
 20
36.088913015713501
 30
0.0
 40
0.0499999999999998
 50
76.567662427500096
 51
140.73149312219149
  0
ARC
  5
E733
  8
MSM_CONTINUOUS
 10
15.02869296030722
 20
36.329612049023211
 30
0.0
 40
0.0500000000000086
 50
18.092036289578608
 51
82.255866984259043
  0
ARC
  5
E734
  8
MSM_CONTINUOUS
 10
13.24999999999755
 20
23.249999999980449
 30
0.0
 40
13.2500000000197
 50
82.255866984265182
 51
83.626485956911011
  0
ARC
  5
E735
  8
MSM_CONTINUOUS
 10
14.715325849398621
 20
36.368415306548428
 30
0.0
 40
0.0499999999999955
 50
83.626485956910756
 51
147.79031665159499
  0
ARC
  5
E736
  8
MSM_CONTINUOUS
 10
13.407880206955911
 20
36.44905579351235
 30
0.0
 40
0.0499999999999908
 50
25.150859819006978
 51
89.314690513682834
  0
ARC
  5
E737
  8
MSM_CONTINUOUS
 10
13.249999999999989
 20
23.25000000000415
 30
0.0
 40
13.24999999999584
 50
89.314690513675828
 51
90.685309486324101
  0
ARC
  5
E738
  8
MSM_CONTINUOUS
 10
13.09211979304407
 20
36.449055793512329
 30
0.0
 40
0.0499999999999974
 50
90.685309486321145
 51
154.84916075088029
  0
ARC
  5
E739
  8
MSM_CONTINUOUS
 10
11.78467415060137
 20
36.368415306548428
 30
0.0
 40
0.0499999999999998
 50
32.209683348402763
 51
96.373514043088363
  0
ARC
  5
E73A
  8
MSM_CONTINUOUS
 10
13.24999999999855
 20
23.250000000011411
 30
0.0
 40
13.249999999988489
 50
96.373514043087155
 51
97.744133015736182
  0
ARC
  5
E73B
  8
MSM_CONTINUOUS
 10
11.471307039692769
 20
36.329612049023218
 30
0.0
 40
0.0499999999999998
 50
97.744133015739123
 51
161.90794314049481
  0
ARC
  5
E73C
  8
MSM_CONTINUOUS
 10
10.18368094045279
 20
36.088913015713501
 30
0.0
 40
0.0500000000000006
 50
39.268506877828791
 51
103.43233757250781
  0
ARC
  5
E73D
  8
MSM_CONTINUOUS
 10
13.24999999999811
 20
23.250000000007638
 30
0.0
 40
13.249999999992109
 50
103.43233757249941
 51
104.80295654514789
  0
ARC
  5
E73E
  8
MSM_CONTINUOUS
 10
9.8774574585199524
 20
36.011894718493302
 30
0.0
 40
0.0500000000000055
 50
104.8029565451576
 51
168.96677128500411
  0
ARC
  5
E73F
  8
MSM_CONTINUOUS
 10
8.6291700016134101
 20
35.614785890827662
 30
0.0
 40
0.0499999999999922
 50
46.327330407245242
 51
110.4911611019179
  0
ARC
  5
E740
  8
MSM_CONTINUOUS
 10
14.22012659486546
 20
10.08569772491019
 30
0.0
 40
0.0500000000000045
 50
274.2147212510327
 51
338.37857251559819
  0
ARC
  5
E741
  8
MSM_CONTINUOUS
 10
15.52012814128169
 20
10.246672801849479
 30
0.0
 40
0.0500000000000044
 50
215.73909511311939
 51
279.90292580778538
  0
ARC
  5
E742
  8
MSM_CONTINUOUS
 10
13.25000000000059
 20
23.249999999997389
 30
0.0
 40
13.24999999999733
 50
279.90292580779311
 51
281.27354478044123
  0
ARC
  5
E743
  8
MSM_CONTINUOUS
 10
15.83051213410207
 20
10.304693625651341
 30
0.0
 40
0.0500000000000076
 50
281.27354478045982
 51
345.43739604501587
  0
ARC
  5
E744
  8
MSM_CONTINUOUS
 10
17.10087837932608
 20
10.62420356145247
 30
0.0
 40
0.0499999999999973
 50
222.7979186425095
 51
286.96174933720317
  0
ARC
  5
E745
  8
MSM_CONTINUOUS
 10
13.25000000000604
 20
23.249999999980769
 30
0.0
 40
13.24999999997986
 50
286.96174933720448
 51
288.33236830985447
  0
ARC
  5
E746
  8
MSM_CONTINUOUS
 10
17.401779739814931
 20
10.719927175308889
 30
0.0
 40
0.0499999999999951
 50
288.33236830985447
 51
352.49621957443139
  0
ARC
  5
E747
  8
MSM_CONTINUOUS
 10
18.623253226509171
 20
11.19312852503564
 30
0.0
 40
0.0499999999999997
 50
229.85674217192911
 51
294.02057286662102
  0
ARC
  5
E748
  8
MSM_CONTINUOUS
 10
13.250000000010949
 20
23.249999999976168
 30
0.0
 40
13.249999999973779
 50
294.02057286661591
 51
295.39119183926641
  0
ARC
  5
E749
  8
MSM_CONTINUOUS
 10
18.910110596763431
 20
11.325103856535829
 30
0.0
 40
0.0499999999999966
 50
295.39119183924981
 51
359.555043103846
  0
ARC
  5
E74A
  8
MSM_CONTINUOUS
 10
20.064175031971129
 20
11.94482337008124
 30
0.0
 40
0.0500000000000031
 50
236.91556570135211
 51
301.07939639601852
  0
ARC
  5
E74B
  8
MSM_CONTINUOUS
 10
13.250000000002141
 20
23.249999999996689
 30
0.0
 40
13.249999999996071
 50
301.07939639602841
 51
302.45001536867659
  0
ARC
  5
E74C
  8
MSM_CONTINUOUS
 10
20.332639946664049
 20
12.111049807727881
 30
0.0
 40
0.0499999999999934
 50
302.4500153686742
 51
6.613822926639763
  0
ARC
  5
E74D
  8
MSM_CONTINUOUS
 10
21.401800889935949
 20
12.867893168973829
 30
0.0
 40
0.0499999999999804
 50
243.97438923074321
 51
308.13821992545729
  0
ARC
  5
E74E
  8
MSM_CONTINUOUS
 10
13.250000000022469
 20
23.249999999972282
 30
0.0
 40
13.249999999964309
 50
308.13821992543819
 51
309.50883889808978
  0
ARC
  5
E74F
  8
MSM_CONTINUOUS
 10
21.647803694618851
 20
13.065850889414159
 30
0.0
 40
0.0499999999999891
 50
309.50883889808529
 51
13.67264902287241
  0
ARC
  5
E750
  8
MSM_CONTINUOUS
 10
22.615853755897621
 20
13.948345124487879
 30
0.0
 40
0.0500000000000033
 50
251.03321276017761
 51
315.19704345484979
  0
ARC
  5
E751
  8
MSM_CONTINUOUS
 10
13.249999999990379
 20
23.250000000009319
 30
0.0
 40
13.25000000001339
 50
315.19704345485309
 51
316.56766242749961
  0
ARC
  5
E752
  8
MSM_CONTINUOUS
 10
22.835665298812959
 20
14.175033290466949
 30
0.0
 40
0.050000000000002
 50
316.5676624274945
 51
20.731469985463601
  0
ARC
  5
E753
  8
MSM_CONTINUOUS
 10
23.68792982594552
 20
15.169800686329779
 30
0.0
 40
0.0500000000000068
 50
258.09203628958772
 51
322.2558669842424
  0
ARC
  5
E754
  8
MSM_CONTINUOUS
 10
13.250000000003959
 20
23.249999999996909
 30
0.0
 40
13.24999999999498
 50
322.25586698426429
 51
323.62648492594059
  0
ARC
  5
E755
  8
MSM_CONTINUOUS
 10
23.878217988166529
 20
15.421782936323989
 30
0.0
 40
0.0500000000000016
 50
323.6262127496534
 51
27.79030069749864
  0
ARC
  5
E756
  8
MSM_CONTINUOUS
 10
24.601777519671892
 20
16.513743833265249
 30
0.0
 40
0.049999999999995
 50
265.15085981899102
 51
329.31469051367043
  0
ARC
  5
E757
  8
MSM_CONTINUOUS
 10
13.250000000025439
 20
23.249999999985359
 30
0.0
 40
13.249999999970649
 50
329.31469051367429
 51
330.68530948632508
  0
ARC
  5
E758
  8
MSM_CONTINUOUS
 10
24.75965772662779
 20
16.787200373222369
 30
0.0
 40
0.05000000000001
 50
330.6853094863551
 51
34.849134739250061
  0
ARC
  5
E759
  8
MSM_CONTINUOUS
 10
25.343543837564869
 20
17.959801757126989
 30
0.0
 40
0.0500000000000039
 50
272.20968334840558
 51
336.37351404306793
  0
ARC
  5
E75A
  8
MSM_CONTINUOUS
 10
13.249999999966951
 20
23.250000000013969
 30
0.0
 40
13.250000000035881
 50
336.3735140430897
 51
337.74413301573372
  0
ARC
  5
E75B
  8
MSM_CONTINUOUS
 10
25.466622786252749
 20
18.25058726464696
 30
0.0
 40
0.0499999999999988
 50
337.74413301572707
 51
41.907951778577647
  0
ARC
  5
E75C
  8
MSM_CONTINUOUS
 10
25.90198435836016
 20
19.486053693819532
 30
0.0
 40
0.0500000000000047
 50
279.26850687781871
 51
343.4323375724781
  0
ARC
  5
E75D
  8
MSM_CONTINUOUS
 10
13.249999999996639
 20
23.250000000000959
 30
0.0
 40
13.250000000003491
 50
343.4323375724997
 51
344.80295654514708
  0
ARC
  5
E75E
  8
MSM_CONTINUOUS
 10
0.05234232823463
 20
23.001339631438739
 30
0.0
 40
0.0499999999999929
 50
116.9155657013555
 51
181.07939639607679
  0
ARC
  5
E75F
  8
MSM_CONTINUOUS
 10
13.250000000026731
 20
23.249999999970839
 30
0.0
 40
13.250000000039559
 50
131.66763169014919
 51
133.03825169376481
  0
ARC
  5
E760
  8
MSM_CONTINUOUS
 10
4.2411787308696267
 20
32.897856722654993
 30
0.0
 40
0.0499999999999991
 50
133.03852387068119
 51
197.20206540337361
  0
ARC
  5
E761
  8
MSM_CONTINUOUS
 10
3.3292918870924799
 20
31.957442250080732
 30
0.0
 40
0.0500000000000009
 50
74.56262452488771
 51
138.72645521954539
  0
ARC
  5
E762
  8
MSM_CONTINUOUS
 10
13.25000000001657
 20
23.249999999985619
 30
0.0
 40
13.25000000002195
 50
138.72645521955889
 51
140.09707522317649
  0
ARC
  5
E763
  8
MSM_CONTINUOUS
 10
3.123852383321128
 20
31.717652239271729
 30
0.0
 40
0.0500000000000181
 50
140.0973474000852
 51
204.26091681943259
  0
ARC
  5
E764
  8
MSM_CONTINUOUS
 10
2.3344431041076699
 20
30.672305413585288
 30
0.0
 40
0.05
 50
81.621448054299137
 51
145.78527874895931
  0
ARC
  5
E765
  8
MSM_CONTINUOUS
 10
13.249999999960909
 20
23.250000000025921
 30
0.0
 40
13.24999999995311
 50
145.7852787489679
 51
147.15589875259249
  0
ARC
  5
E766
  8
MSM_CONTINUOUS
 10
2.1600281116149311
 20
30.40908677939052
 30
0.0
 40
0.0499999999999955
 50
147.15617092948199
 51
211.31973385875551
  0
ARC
  5
E767
  8
MSM_CONTINUOUS
 10
1.5050630369585709
 20
29.27465399290147
 30
0.0
 40
0.0499999999999907
 50
88.680271583708844
 51
152.84410227839041
  0
ARC
  5
E768
  8
MSM_CONTINUOUS
 10
13.25000000002308
 20
23.249999999988351
 30
0.0
 40
13.25000000002586
 50
152.84410227838279
 51
154.21472228199991
  0
ARC
  5
E769
  8
MSM_CONTINUOUS
 10
1.3643165092418199
 20
28.99199686150499
 30
0.0
 40
0.0500000000000103
 50
154.21499445889381
 51
218.37855738815961
  0
ARC
  5
E76A
  8
MSM_CONTINUOUS
 10
13.24999999999449
 20
23.250000000014239
 30
0.0
 40
13.24999999998473
 50
110.49116110191071
 51
111.8617800745601
  0
ARC
  5
E76B
  8
MSM_CONTINUOUS
 10
8.3347321844953797
 20
35.500720072790202
 30
0.0
 40
0.0499999999999798
 50
111.86178007454539
 51
176.02559481442401
  0
ARC
  5
E76C
  8
MSM_CONTINUOUS
 10
7.1447061353348209
 20
34.953221215805591
 30
0.0
 40
0.0499999999999901
 50
53.386153936648988
 51
117.54998463133521
  0
ARC
  5
E76D
  8
MSM_CONTINUOUS
 10
13.25000000000807
 20
23.249999999984709
 30
0.0
 40
13.250000000017289
 50
117.5499846313235
 51
118.9206036039695
  0
ARC
  5
E76E
  8
MSM_CONTINUOUS
 10
6.8665173602057692
 20
34.803836998480023
 30
0.0
 40
0.0499999999999957
 50
118.9206036039798
 51
183.08441834385019
  0
ARC
  5
E76F
  8
MSM_CONTINUOUS
 10
5.752792300650678
 20
34.114247636758719
 30
0.0
 40
0.0499999999999887
 50
60.444977466061289
 51
124.60880816073799
  0
ARC
  5
E770
  8
MSM_CONTINUOUS
 10
13.24999999999957
 20
23.250000000000369
 30
0.0
 40
13.249999999999449
 50
124.6088081607344
 51
125.9794271333822
  0
ARC
  5
E771
  8
MSM_CONTINUOUS
 10
5.4950696257715128
 20
33.931809532605811
 30
0.0
 40
0.0499999999999983
 50
125.9794271333655
 51
190.1432458961969
  0
ARC
  5
E772
  8
MSM_CONTINUOUS
 10
4.4745284924559376
 20
33.110583137942839
 30
0.0
 40
0.0499999999999965
 50
67.503800995471863
 51
131.66763169014649
  0
ARC
  5
E773
  8
MSM_CONTINUOUS
 10
13.25000000001708
 20
23.24999999999606
 30
0.0
 40
13.250000000017531
 50
166.96174933720559
 51
168.33236934082359
  0
ARC
  5
E774
  8
MSM_CONTINUOUS
 10
0.8537242420396715
 20
27.785674958879341
 30
0.0
 40
0.0500000000000022
 50
95.739095113124662
 51
159.90292580777739
  0
ARC
  5
E775
  8
MSM_CONTINUOUS
 10
13.24999999996219
 20
23.250000000013198
 30
0.0
 40
13.249999999959959
 50
159.90292580779109
 51
161.273545811415
  0
ARC
  5
E776
  8
MSM_CONTINUOUS
 10
0.7487797529899396
 20
27.487864124268359
 30
0.0
 40
0.050000000000002
 50
161.27381798832749
 51
225.43738740769061
  0
ARC
  5
E777
  8
MSM_CONTINUOUS
 10
0.3903003515437113
 20
26.2279397158931
 30
0.0
 40
0.0499999999999929
 50
102.7979186425284
 51
166.96174933720889
  0
ARC
  5
E778
  8
MSM_CONTINUOUS
 10
0.1218163992623289
 20
24.625061942358521
 30
0.0
 40
0.0499999999999971
 50
109.85674217194369
 51
174.02057286661761
  0
ARC
  5
E779
  8
MSM_CONTINUOUS
 10
0.3227487526405106
 20
25.919489686748651
 30
0.0
 40
0.0500000000000142
 50
168.3326415177628
 51
232.49621093709041
  0
ARC
  5
E77A
  8
MSM_CONTINUOUS
 10
0.0926817038867007
 20
24.31064850670576
 30
0.0
 40
0.0500000000000129
 50
175.39146504716251
 51
239.55503446650539
  0
ARC
  5
E77B
  8
MSM_CONTINUOUS
 10
13.25000000000334
 20
23.24999999999957
 30
0.0
 40
13.25000000000338
 50
174.02057286661699
 51
175.39119287023649
  0
CIRCLE
  5
E77C
  8
MSM_CONTINUOUS
 10
13.249999999999989
 20
23.25
 30
0.0
 40
1.499999999999942
  0
CIRCLE
  5
E77D
  8
MSM_CENTER
 10
13.249999999999989
 20
23.25
 30
0.0
 40
12.75
  0
LINE
  5
E77E
  8
MSM_CONTINUOUS
 10
68.799999999999983
 20
24.74999999999994
 30
0.0
 11
68.799999999999983
 21
21.74999999999994
 31
0.0
  0
LINE
  5
E77F
  8
MSM_CONTINUOUS
 10
75.200000000000045
 20
24.74999999999989
 30
0.0
 11
75.200000000000045
 21
21.75
 31
0.0
  0
LINE
  5
E780
  8
MSM_CONTINUOUS
 10
75.500000000000028
 20
18.54999999999994
 30
0.0
 11
75.500000000000028
 21
27.94999999999995
 31
0.0
  0
LINE
  5
E781
  8
MSM_CONTINUOUS
 10
75.500000000000028
 20
21.449999999999999
 30
0.0
 11
75.200000000000045
 21
21.75
 31
0.0
  0
LINE
  5
E782
  8
MSM_CONTINUOUS
 10
68.799999999999983
 20
21.74999999999994
 30
0.0
 11
75.200000000000045
 21
21.75
 31
0.0
  0
LINE
  5
E783
  8
MSM_CONTINUOUS
 10
68.799999999999983
 20
21.74999999999994
 30
0.0
 11
68.5
 21
21.44999999999995
 31
0.0
  0
LINE
  5
E784
  8
MSM_CONTINUOUS
 10
68.5
 20
36.000000000000277
 30
0.0
 11
68.5
 21
10.5
 31
0.0
  0
LINE
  5
E785
  8
MSM_CONTINUOUS
 10
70.5
 20
10.5
 30
0.0
 11
70.5
 21
18.24999999999994
 31
0.0
  0
LINE
  5
E786
  8
MSM_CONTINUOUS
 10
70.5
 20
18.24999999999994
 30
0.0
 11
75.200000000000045
 21
18.24999999999994
 31
0.0
  0
LINE
  5
E787
  8
MSM_CONTINUOUS
 10
75.200000000000045
 20
18.24999999999994
 30
0.0
 11
75.500000000000028
 21
18.54999999999994
 31
0.0
  0
LINE
  5
E788
  8
MSM_CONTINUOUS
 10
75.200000000000045
 20
24.74999999999989
 30
0.0
 11
68.799999999999983
 21
24.74999999999994
 31
0.0
  0
LINE
  5
E789
  8
MSM_CONTINUOUS
 10
75.200000000000045
 20
24.74999999999989
 30
0.0
 11
75.500000000000028
 21
25.04999999999988
 31
0.0
  0
LINE
  5
E78A
  8
MSM_CONTINUOUS
 10
75.500000000000028
 20
27.94999999999995
 30
0.0
 11
75.200000000000045
 21
28.24999999999994
 31
0.0
  0
LINE
  5
E78B
  8
MSM_CONTINUOUS
 10
75.200000000000045
 20
28.24999999999994
 30
0.0
 11
70.5
 21
28.24999999999994
 31
0.0
  0
LINE
  5
E78C
  8
MSM_CONTINUOUS
 10
70.5
 20
28.24999999999994
 30
0.0
 11
70.5
 21
36.000000000000277
 31
0.0
  0
LINE
  5
E78D
  8
MSM_CONTINUOUS
 10
68.5
 20
25.04999999999994
 30
0.0
 11
68.799999999999983
 21
24.74999999999994
 31
0.0
  0
LINE
  5
E78E
  8
MSM_CONTINUOUS
 10
46.799999999999962
 20
24.74999999999994
 30
0.0
 11
46.799999999999962
 21
21.74999999999994
 31
0.0
  0
LINE
  5
E78F
  8
MSM_CONTINUOUS
 10
48.499999999999993
 20
10.5
 30
0.0
 11
48.499999999999993
 21
36.000000000000277
 31
0.0
  0
LINE
  5
E790
  8
MSM_CONTINUOUS
 10
46.799999999999962
 20
21.74999999999994
 30
0.0
 11
48.200000000000017
 21
21.75
 31
0.0
  0
LINE
  5
E791
  8
MSM_CONTINUOUS
 10
46.799999999999962
 20
21.74999999999994
 30
0.0
 11
46.499999999999993
 21
21.44999999999995
 31
0.0
  0
LINE
  5
E792
  8
MSM_CONTINUOUS
 10
46.499999999999993
 20
36.000000000000277
 30
0.0
 11
46.499999999999993
 21
10.5
 31
0.0
  0
LINE
  5
E793
  8
MSM_CONTINUOUS
 10
48.499999999999993
 20
21.449999999999999
 30
0.0
 11
48.200000000000017
 21
21.75
 31
0.0
  0
LINE
  5
E794
  8
MSM_CONTINUOUS
 10
48.200000000000017
 20
24.74999999999989
 30
0.0
 11
48.200000000000017
 21
21.75
 31
0.0
  0
LINE
  5
E795
  8
MSM_CONTINUOUS
 10
46.499999999999993
 20
25.04999999999994
 30
0.0
 11
46.799999999999962
 21
24.74999999999994
 31
0.0
  0
LINE
  5
E796
  8
MSM_CONTINUOUS
 10
48.200000000000017
 20
24.74999999999989
 30
0.0
 11
46.799999999999962
 21
24.74999999999994
 31
0.0
  0
LINE
  5
E797
  8
MSM_CONTINUOUS
 10
48.200000000000017
 20
24.74999999999989
 30
0.0
 11
48.499999999999993
 21
25.04999999999988
 31
0.0
  0
LINE
  5
E798
  8
MSM_CONTINUOUS
 10
48.36602540378604
 20
36.499999999994301
 30
0.0
 11
46.633974596213939
 21
36.49999999999995
 31
0.0
  0
LINE
  5
E799
  8
MSM_CONTINUOUS
 10
46.633974596213939
 20
36.49999999999995
 30
0.0
 11
46.499999999999993
 21
36.000000000000277
 31
0.0
  0
LINE
  5
E79A
  8
MSM_CONTINUOUS
 10
48.499999999999993
 20
36.000000000000277
 30
0.0
 11
48.36602540378604
 21
36.499999999994301
 31
0.0
  0
INSERT
  5
E79B
  8
MSM_CONTINUOUS
  2
*U5
 10
0.0
 20
0.0
 30
0.0
  0
INSERT
  5
E79C
  8
MSM_CONTINUOUS
  2
*U6
 10
0.0
 20
0.0
 30
0.0
  0
CIRCLE
  5
E79D
  8
MSM_CONTINUOUS
 10
13.249999999999989
 20
23.25
 30
0.0
 40
1.7999999999999969
  0
LINE
  5
E79E
  8
MSM_CENTER
 10
49.499999999999993
 20
23.25
 30
0.0
 11
45.499999999999993
 21
23.25
 31
0.0
  0
LINE
  5
E79F
  8
MSM_CENTER
 10
49.499999999999993
 20
36.0
 30
0.0
 11
45.499999999999993
 21
36.0
 31
0.0
  0
LINE
  5
E7A0
  8
MSM_CONTINUOUS
 10
48.499999999999993
 20
35.375
 30
0.0
 11
46.499999999999993
 21
35.375
 31
0.0
  0
LINE
  5
E7A1
  8
MSM_CONTINUOUS
 10
48.36602540378604
 20
10.0000000000057
 30
0.0
 11
46.633974596213939
 21
10.00000000000005
 31
0.0
  0
LINE
  5
E7A2
  8
MSM_CONTINUOUS
 10
46.633974596213939
 20
10.00000000000005
 30
0.0
 11
46.499999999999993
 21
10.49999999999971
 31
0.0
  0
LINE
  5
E7A3
  8
MSM_CONTINUOUS
 10
48.499999999999993
 20
10.49999999999971
 30
0.0
 11
48.36602540378604
 21
10.0000000000057
 31
0.0
  0
LINE
  5
E7A4
  8
MSM_CENTER
 10
49.499999999999993
 20
10.5
 30
0.0
 11
45.499999999999993
 21
10.5
 31
0.0
  0
LINE
  5
E7A5
  8
MSM_CONTINUOUS
 10
48.499999999999993
 20
11.125
 30
0.0
 11
46.499999999999993
 21
11.125
 31
0.0
  0
LINE
  5
E7A6
  8
MSM_CONTINUOUS
 10
70.36602540378604
 20
36.499999999994301
 30
0.0
 11
68.633974596213932
 21
36.49999999999995
 31
0.0
  0
LINE
  5
E7A7
  8
MSM_CONTINUOUS
 10
68.633974596213932
 20
36.49999999999995
 30
0.0
 11
68.5
 21
36.000000000000277
 31
0.0
  0
LINE
  5
E7A8
  8
MSM_CONTINUOUS
 10
70.5
 20
36.000000000000277
 30
0.0
 11
70.36602540378604
 21
36.499999999994301
 31
0.0
  0
LINE
  5
E7A9
  8
MSM_CENTER
 10
71.5
 20
36.0
 30
0.0
 11
67.5
 21
36.0
 31
0.0
  0
LINE
  5
E7AA
  8
MSM_CONTINUOUS
 10
70.5
 20
35.375
 30
0.0
 11
68.5
 21
35.375
 31
0.0
  0
LINE
  5
E7AB
  8
MSM_CONTINUOUS
 10
70.36602540378604
 20
10.0000000000057
 30
0.0
 11
68.633974596213932
 21
10.00000000000005
 31
0.0
  0
LINE
  5
E7AC
  8
MSM_CONTINUOUS
 10
68.633974596213932
 20
10.00000000000005
 30
0.0
 11
68.5
 21
10.49999999999971
 31
0.0
  0
LINE
  5
E7AD
  8
MSM_CONTINUOUS
 10
70.5
 20
10.49999999999971
 30
0.0
 11
70.36602540378604
 21
10.0000000000057
 31
0.0
  0
LINE
  5
E7AE
  8
MSM_CENTER
 10
71.5
 20
10.5
 30
0.0
 11
67.5
 21
10.5
 31
0.0
  0
LINE
  5
E7AF
  8
MSM_CONTINUOUS
 10
70.5
 20
11.125
 30
0.0
 11
68.5
 21
11.125
 31
0.0
  0
ENDSEC
  0
EOF
