  0
SECTION
  2
HEADER
  9
$ACADVER
  1
AC1009
  9
$INSBASE
 10
0.0
 20
0.0
 30
0.0
  9
$EXTMIN
 10
-2.012877485211447
 20
-18.009612303704099
 30
-0.0015258207003583
  9
$EXTMAX
 10
166.7265936754026
 20
168.00265561254071
 30
0.0000000349246037
  9
$LIMMIN
 10
0.0
 20
0.0
  9
$LIMMAX
 10
420.0
 20
297.0
  9
$ORTHOMODE
 70
     1
  9
$REGENMODE
 70
     1
  9
$FILLMODE
 70
     1
  9
$QTEXTMODE
 70
     0
  9
$MIRRTEXT
 70
     0
  9
$DRAGMODE
 70
     2
  9
$LTSCALE
 40
0.5
  9
$OSMODE
 70
   511
  9
$ATTMODE
 70
     1
  9
$TEXTSIZE
 40
3.0
  9
$TRACEWID
 40
1.0
  9
$TEXTSTYLE
  7
STANDARD
  9
$CLAYER
  8
MSM_CONTINUOUS
  9
$CELTYPE
  6
BYLAYER
  9
$CECOLOR
 62
   256
  9
$DIMSCALE
 40
1.0
  9
$DIMASZ
 40
1.0
  9
$DIMEXO
 40
0.3
  9
$DIMDLI
 40
1.5
  9
$DIMRND
 40
0.0
  9
$DIMDLE
 40
0.0
  9
$DIMEXE
 40
0.5
  9
$DIMTP
 40
0.0
  9
$DIMTM
 40
0.0
  9
$DIMTXT
 40
3.0
  9
$DIMCEN
 40
2.5
  9
$DIMTSZ
 40
0.0
  9
$DIMTOL
 70
     0
  9
$DIMLIM
 70
     0
  9
$DIMTIH
 70
     0
  9
$DIMTOH
 70
     0
  9
$DIMSE1
 70
     0
  9
$DIMSE2
 70
     0
  9
$DIMTAD
 70
     1
  9
$DIMZIN
 70
     8
  9
$DIMBLK
  1
OPEN30
  9
$DIMASO
 70
     1
  9
$DIMSHO
 70
     1
  9
$DIMPOST
  1

  9
$DIMAPOST
  1

  9
$DIMALT
 70
     0
  9
$DIMALTD
 70
     3
  9
$DIMALTF
 40
0.03937007874016
  9
$DIMLFAC
 40
1.0
  9
$DIMTOFL
 70
     1
  9
$DIMTVP
 40
0.0
  9
$DIMTIX
 70
     0
  9
$DIMSOXD
 70
     0
  9
$DIMSAH
 70
     0
  9
$DIMBLK1
  1

  9
$DIMBLK2
  1

  9
$DIMSTYLE
  2
MISUMI
  9
$DIMCLRD
 70
   256
  9
$DIMCLRE
 70
   256
  9
$DIMCLRT
 70
   256
  9
$DIMTFAC
 40
1.0
  9
$DIMGAP
 40
0.625
  9
$LUNITS
 70
     2
  9
$LUPREC
 70
     2
  9
$SKETCHINC
 40
1.0
  9
$FILLETRAD
 40
0.0
  9
$AUNITS
 70
     0
  9
$AUPREC
 70
     0
  9
$MENU
  1
.
  9
$ELEVATION
 40
0.0
  9
$PELEVATION
 40
0.0
  9
$THICKNESS
 40
0.0
  9
$LIMCHECK
 70
     0
  9
$BLIPMODE
 70
     0
  9
$CHAMFERA
 40
0.5
  9
$CHAMFERB
 40
0.5
  9
$SKPOLY
 70
     0
  9
$TDCREATE
 40
2455135.5720697111
  9
$TDUPDATE
 40
2457717.7830605791
  9
$TDINDWG
 40
0.8428208681
  9
$TDUSRTIMER
 40
2457641.2172954981
  9
$USRTIMER
 70
     1
  9
$ANGBASE
 50
0.0
  9
$ANGDIR
 70
     0
  9
$PDMODE
 70
    35
  9
$PDSIZE
 40
0.0
  9
$PLINEWID
 40
0.0
  9
$COORDS
 70
     1
  9
$SPLFRAME
 70
     0
  9
$SPLINETYPE
 70
     6
  9
$SPLINESEGS
 70
     8
  9
$ATTDIA
 70
     1
  9
$ATTREQ
 70
     1
  9
$HANDLING
 70
     1
  9
$HANDSEED
  5
14C51
  9
$SURFTAB1
 70
     6
  9
$SURFTAB2
 70
     6
  9
$SURFTYPE
 70
     6
  9
$SURFU
 70
     6
  9
$SURFV
 70
     6
  9
$UCSNAME
  2

  9
$UCSORG
 10
0.0
 20
0.0
 30
0.0
  9
$UCSXDIR
 10
1.0
 20
0.0
 30
0.0
  9
$UCSYDIR
 10
0.0
 20
1.0
 30
0.0
  9
$PUCSNAME
  2

  9
$PUCSORG
 10
0.0
 20
0.0
 30
0.0
  9
$PUCSXDIR
 10
1.0
 20
0.0
 30
0.0
  9
$PUCSYDIR
 10
0.0
 20
1.0
 30
0.0
  9
$USERI1
 70
     0
  9
$USERI2
 70
     0
  9
$USERI3
 70
     0
  9
$USERI4
 70
     0
  9
$USERI5
 70
     0
  9
$USERR1
 40
0.0
  9
$USERR2
 40
0.0
  9
$USERR3
 40
0.0
  9
$USERR4
 40
0.0
  9
$USERR5
 40
0.0
  9
$WORLDVIEW
 70
     1
  9
$SHADEDGE
 70
     3
  9
$SHADEDIF
 70
    70
  9
$TILEMODE
 70
     1
  9
$MAXACTVP
 70
    64
  9
$PLIMCHECK
 70
     0
  9
$PEXTMIN
 10
0.0
 20
0.0
 30
0.0
  9
$PEXTMAX
 10
0.0
 20
0.0
 30
0.0
  9
$PLIMMIN
 10
0.0
 20
0.0
  9
$PLIMMAX
 10
12.0
 20
9.0
  9
$UNITMODE
 70
     0
  9
$VISRETAIN
 70
     1
  9
$PLINEGEN
 70
     0
  9
$PSLTSCALE
 70
     1
  0
ENDSEC
  0
SECTION
  2
TABLES
  0
TABLE
  2
VPORT
 70
     1
  0
VPORT
  2
*ACTIVE
 70
     0
 10
0.0
 20
0.0
 11
1.0
 21
1.0
 12
82.356858095095603
 22
74.996521654418288
 13
0.0
 23
0.0
 14
10.0
 24
10.0
 15
10.0
 25
10.0
 16
0.0
 26
0.0
 36
1.0
 17
0.0
 27
0.0
 37
0.0
 40
187.71619708799659
 41
2.5
 42
50.0
 43
0.0
 44
0.0
 50
0.0
 51
0.0
 71
    16
 72
  1000
 73
     1
 74
     3
 75
     0
 76
     0
 77
     0
 78
     0
  0
ENDTAB
  0
TABLE
  2
LTYPE
 70
     2
  0
LTYPE
  2
CONTINUOUS
 70
     0
  3
Solid line
 72
    65
 73
     0
 40
0.0
  0
LTYPE
  2
CENTER
 70
     0
  3
Center ____ _ ____ _ ____ _ ____ _ ____ _ ____
 72
    65
 73
     4
 40
50.799999999999997
 49
31.75
 49
-6.3499999999999988
 49
6.3499999999999988
 49
-6.3499999999999988
  0
ENDTAB
  0
TABLE
  2
LAYER
 70
     7
  0
LAYER
  2
0
 70
     0
 62
     7
  6
CONTINUOUS
  0
LAYER
  2
MSM_CENTER
 70
     0
 62
     1
  6
CENTER
  0
LAYER
  2
DEFPOINTS
 70
     0
 62
     7
  6
CONTINUOUS
  0
LAYER
  2
MSM_CONTINUOUS
 70
     0
 62
     7
  6
CONTINUOUS
  0
LAYER
  2
MSM_PART_NUMBER
 70
     0
 62
     7
  6
CONTINUOUS
  0
LAYER
  2
MSM_NARROW
 70
     0
 62
     5
  6
CONTINUOUS
  0
LAYER
  2
AM_0
 70
     0
 62
     7
  6
CONTINUOUS
  0
ENDTAB
  0
TABLE
  2
STYLE
 70
     1
  0
STYLE
  2
STANDARD
 70
     0
 40
1.0
 41
1.0
 50
0.0
 71
     0
 42
3.0
  3
txt.shx
  4
bigfont.shx
  0
ENDTAB
  0
TABLE
  2
VIEW
 70
     0
  0
ENDTAB
  0
TABLE
  2
UCS
 70
     0
  0
ENDTAB
  0
TABLE
  2
APPID
 70
    25
  0
APPID
  2
ACAD
 70
     0
  0
APPID
  2
ACAD_MLEADERVER
 70
     0
  0
APPID
  2
ACAD_EXEMPT_FROM_CAD_STANDARDS
 70
     0
  0
APPID
  2
ACDBBLOCKREPETAG
 70
     0
  0
APPID
  2
ACAD_DSTYLE_DIMJOGGED_JOGA
 70
     0
  0
APPID
  2
ACAECLAYERSTANDARD
 70
     0
  0
APPID
  2
GENIUS_GENODEF_13
 70
     0
  0
APPID
  2
GENIUS_GENOBJ-N-FIL_13
 70
     0
  0
APPID
  2
ACAD_PSEXT
 70
     0
  0
APPID
  2
ACAD_DSTYLE_DIMRADIAL_EXTENSION
 70
     0
  0
APPID
  2
ACDBDYNAMICBLOCKTRUENAME
 70
     0
  0
APPID
  2
ACDBDYNAMICBLOCKGUID
 70
     0
  0
APPID
  2
ACDBBLOCKREPBTAG
 70
     0
  0
APPID
  2
ACAUTHENVIRON
 70
     0
  0
APPID
  2
GRADIENTCOLOR1ACI
 70
     0
  0
APPID
  2
GRADIENTCOLOR2ACI
 70
     0
  0
APPID
  2
ACAD_DSTYLE_DIMJAG
 70
     0
  0
APPID
  2
ACAD_DSTYLE_DIMTALN
 70
     0
  0
APPID
  2
ACCMTRANSPARENCY
 70
     0
  0
APPID
  2
ACAD_DSTYLE_DIMBREAK
 70
     0
  0
APPID
  2
ACAD_DSTYLE_DIMFLIPARROW_W
 70
     0
  0
APPID
  2
ACAD_DSTYLE_DIM_LINETYPE
 70
     0
  0
APPID
  2
ACAD_DSTYLE_DIM_EXT1_LINETYPE
 70
     0
  0
APPID
  2
ACAD_DSTYLE_DIM_EXT2_LINETYPE
 70
     0
  0
APPID
  2
ACAD_NAV_VCDISPLAY
 70
     0
  0
ENDTAB
  0
TABLE
  2
DIMSTYLE
 70
     2
  0
DIMSTYLE
  2
MISUMI
 70
     0
  3

  4

  5
OPEN30
  6

  7

 40
1.0
 41
1.0
 42
0.3
 43
1.5
 44
0.5
 45
0.0
 46
0.0
 47
0.0
 48
0.0
140
3.0
141
2.5
142
0.0
143
0.03937007874016
144
1.0
145
0.0
146
1.0
147
0.625
 71
     0
 72
     0
 73
     0
 74
     0
 75
     0
 76
     0
 77
     1
 78
     8
170
     0
171
     3
172
     1
173
     0
174
     0
175
     0
176
   256
177
   256
178
   256
  0
DIMSTYLE
  2
STANDARD
 70
     0
  3

  4

  5

  6

  7

 40
1.0
 41
0.18
 42
0.0625
 43
0.38
 44
0.18
 45
0.0
 46
0.0
 47
0.0
 48
0.0
140
0.18
141
0.09
142
0.0
143
25.399999999999999
144
1.0
145
0.0
146
1.0
147
0.09
 71
     0
 72
     0
 73
     1
 74
     1
 75
     0
 76
     0
 77
     0
 78
     0
170
     0
171
     2
172
     0
173
     0
174
     0
175
     0
176
     0
177
     0
178
     0
  0
ENDTAB
  0
ENDSEC
  0
SECTION
  2
BLOCKS
  0
BLOCK
  8
0
  2
$MODEL_SPACE
 70
     0
 10
0.0
 20
0.0
 30
0.0
  3
$MODEL_SPACE
  1

  0
ENDBLK
  5
21
  8
0
  0
BLOCK
 67
     1
  8
0
  2
$PAPER_SPACE
 70
     0
 10
0.0
 20
0.0
 30
0.0
  3
$PAPER_SPACE
  1

  0
ENDBLK
  5
14BE6
 67
     1
  8
0
  0
BLOCK
  8
0
 62
     7
  2
_OPEN30
 70
     0
 10
0.0
 20
0.0
 30
0.0
  3
_OPEN30
  1

  0
LINE
  5
10519
  8
0
  6
BYBLOCK
 62
     0
 10
-1.0
 20
0.26794919
 30
0.0
 11
0.0
 21
0.0
 31
0.0
  0
LINE
  5
1051A
  8
0
  6
BYBLOCK
 62
     0
 10
0.0
 20
0.0
 30
0.0
 11
-1.0
 21
-0.26794919
 31
0.0
  0
LINE
  5
1051B
  8
0
  6
BYBLOCK
 62
     0
 10
0.0
 20
0.0
 30
0.0
 11
-1.0
 21
0.0
 31
0.0
  0
ENDBLK
  5
1051C
  8
0
 62
     7
  0
BLOCK
  8
0
  2
*U2
 70
     1
 10
0.0
 20
0.0
 30
0.0
  3
*U2
  1

  0
TEXT
  5
14C29
  8
MSM_PART_NUMBER
 10
230.78420101418749
 20
4.7390233652656937
 30
0.0
 40
3.0
  1
geal2.0-30-20.dwg
  0
ENDBLK
  5
14C2B
  8
0
  0
BLOCK
  8
0
  2
*U3
 70
     1
 10
0.0
 20
0.0
 30
0.0
  3
*U3
  1

  0
TEXT
  5
14C31
  8
MSM_PART_NUMBER
 10
0.0
 20
-8.0
 30
0.0
 40
3.0
  1
GEAL2.0-30-20-F-8
  0
ENDBLK
  5
14C33
  8
0
  0
BLOCK
  8
0
  2
*U4
 70
     1
 10
0.0
 20
0.0
 30
0.0
  3
*U4
  1

  0
TEXT
  5
14C35
  8
MSM_PART_NUMBER
 10
0.0
 20
-3.0
 30
0.0
 40
3.0
  1
GEAL2.0-30-20-E-8
  0
ENDBLK
  5
14C37
  8
0
  0
BLOCK
  8
0
  2
*U5
 70
     1
 10
0.0
 20
0.0
 30
0.0
  3
*U5
  1

  0
TEXT
  5
14C39
  8
MSM_PART_NUMBER
 10
0.0
 20
-13.0
 30
0.0
 40
3.0
  1
GEAL2.0-30-20-G-8
  0
ENDBLK
  5
14C3B
  8
0
  0
BLOCK
  8
0
  2
*U6
 70
     1
 10
0.0
 20
0.0
 30
0.0
  3
*U6
  1

  0
TEXT
  5
14C3D
  8
MSM_PART_NUMBER
 10
78.999999999999972
 20
82.000000000061334
 30
0.0
 40
3.0
  1
F
  0
ENDBLK
  5
14C3F
  8
0
  0
BLOCK
  8
0
  2
*U7
 70
     1
 10
0.0
 20
0.0
 30
0.0
  3
*U7
  1

  0
TEXT
  5
14C41
  8
MSM_PART_NUMBER
 10
0.0
 20
-18.0
 30
0.0
 40
3.0
  1
GEAL2.0-30-20
  0
ENDBLK
  5
14C43
  8
0
  0
BLOCK
  8
0
  2
*U8
 70
     1
 10
0.0
 20
0.0
 30
0.0
  3
*U8
  1

  0
TEXT
  5
14C45
  8
MSM_PART_NUMBER
 10
78.999999950228585
 20
165.00000000009271
 30
0.0
 40
3.0
  1
E
  0
ENDBLK
  5
14C47
  8
0
  0
BLOCK
  8
0
  2
*U9
 70
     1
 10
0.0
 20
0.0
 30
0.0
  3
*U9
  1

  0
TEXT
  5
14C49
  8
MSM_PART_NUMBER
 10
122.4999999999999
 20
165.00000000009271
 30
0.0
 40
3.0
  1
G
  0
ENDBLK
  5
14C4B
  8
0
  0
ENDSEC
  0
SECTION
  2
ENTITIES
  0
INSERT
  5
10629
  8
MSM_CONTINUOUS
  2
*U3
 10
0.0
 20
0.0
 30
0.0
  0
INSERT
  5
1062A
  8
MSM_CONTINUOUS
  2
*U4
 10
0.0
 20
0.0
 30
0.0
  0
INSERT
  5
111CD
  8
MSM_CONTINUOUS
  2
*U5
 10
0.0
 20
0.0
 30
0.0
  0
INSERT
  5
11239
  8
MSM_CONTINUOUS
  2
*U6
 10
0.0
 20
0.0
 30
0.0
  0
INSERT
  5
12895
  8
MSM_CONTINUOUS
  2
*U7
 10
0.0
 20
0.0
 30
0.0
  0
LINE
  5
13DFF
  8
MSM_CONTINUOUS
 10
78.999999999995353
 20
73.500000000030099
 30
0.0
 11
78.999999999995353
 21
10.50000000002988
 31
0.0
  0
LINE
  5
13E00
  8
MSM_CONTINUOUS
 10
98.999999999995595
 20
10.54094672290428
 30
0.0
 11
98.999999999995353
 21
73.500000000030127
 31
0.0
  0
LINE
  5
13E01
  8
MSM_CONTINUOUS
 10
98.866025403779815
 20
74.000000000029985
 30
0.0
 11
79.133974596220042
 21
74.000000000064134
 31
0.0
  0
LINE
  5
13E05
  8
MSM_CONTINUOUS
 10
98.999999999995353
 20
73.500000000030127
 30
0.0
 11
98.866025403779815
 21
74.000000000029985
 31
0.0
  0
LINE
  5
13E06
  8
MSM_CONTINUOUS
 10
79.133974596220042
 20
74.000000000064134
 30
0.0
 11
78.999999999995353
 21
73.500000000030099
 31
0.0
  0
LINE
  5
13E08
  8
MSM_CENTER
 10
101.010971641334
 20
72.000000000029985
 30
0.0
 11
77.010971641333995
 21
72.000000000029985
 31
0.0
  0
LINE
  5
13E09
  8
MSM_CONTINUOUS
 10
99.010971641334024
 20
69.459053277144164
 30
0.0
 11
79.01097164133401
 21
69.459053277144164
 31
0.0
  0
LINE
  5
13E0A
  8
MSM_CONTINUOUS
 10
98.866025403779815
 20
10.000000000029999
 30
0.0
 11
79.133974596220042
 21
9.9999999999958362
 31
0.0
  0
LINE
  5
13E0B
  8
MSM_CONTINUOUS
 10
98.999999999995353
 20
10.50000000002985
 30
0.0
 11
98.866025403779815
 21
10.000000000029999
 31
0.0
  0
LINE
  5
13E0C
  8
MSM_CONTINUOUS
 10
79.133974596220042
 20
9.9999999999958362
 30
0.0
 11
78.999999999995353
 21
10.50000000002988
 31
0.0
  0
LINE
  5
13E0E
  8
MSM_CENTER
 10
101.010971641334
 20
12.00000000002998
 30
0.0
 11
77.010971641333995
 21
12.00000000002998
 31
0.0
  0
LINE
  5
13E0F
  8
MSM_CONTINUOUS
 10
99.010971641334024
 20
14.54094672291582
 30
0.0
 11
79.01097164133401
 21
14.54094672291582
 31
0.0
  0
LINE
  5
13EB5
  8
MSM_CENTER
 10
77.999999999999972
 20
42.000000000029956
 30
0.0
 11
99.999999999999986
 21
42.000000000029956
 31
0.0
  0
LINE
  5
13EB6
  8
MSM_CONTINUOUS
 10
98.699999999999989
 20
38.000000000029978
 30
0.0
 11
98.699999999999989
 21
46.000000000029956
 31
0.0
  0
LINE
  5
13EB8
  8
MSM_CONTINUOUS
 10
98.699999999999989
 20
38.000000000029978
 30
0.0
 11
98.999999999999986
 21
37.700000000029981
 31
0.0
  0
LINE
  5
13EB9
  8
MSM_CONTINUOUS
 10
82.999999999999972
 20
38.000000000029978
 30
0.0
 11
98.699999999999989
 21
38.000000000029978
 31
0.0
  0
LINE
  5
13EBA
  8
MSM_CONTINUOUS
 10
98.999999999999986
 20
46.300000000029968
 30
0.0
 11
98.699999999999989
 21
46.000000000029956
 31
0.0
  0
LINE
  5
13EBB
  8
MSM_CONTINUOUS
 10
98.699999999999989
 20
46.000000000029956
 30
0.0
 11
82.999999999999972
 21
46.000000000029956
 31
0.0
  0
LINE
  5
13EBC
  8
MSM_CENTER
 10
79.349999999999966
 20
51.000000000029956
 30
0.0
 11
94.882844763767054
 21
51.000000000029956
 31
0.0
  0
LINE
  5
13EBD
  8
MSM_CONTINUOUS
 10
93.499999999999972
 20
46.625000000029956
 30
0.0
 11
93.499999999999972
 21
37.375000000029956
 31
0.0
  0
LINE
  5
13EBF
  8
MSM_CONTINUOUS
 10
85.999999999999972
 20
49.500000000029956
 30
0.0
 11
85.999999999999972
 21
47.250000000029956
 31
0.0
  0
LINE
  5
13EC1
  8
MSM_CONTINUOUS
 10
82.999999999999972
 20
54.250000000029956
 30
0.0
 11
85.999999999999972
 21
54.250000000029956
 31
0.0
  0
LINE
  5
13EC2
  8
MSM_CONTINUOUS
 10
82.999999999999972
 20
29.75000000002996
 30
0.0
 11
82.999999999999972
 21
54.250000000029956
 31
0.0
  0
LINE
  5
13EC5
  8
MSM_CONTINUOUS
 10
85.999999999999972
 20
29.75000000002996
 30
0.0
 11
82.999999999999972
 21
29.75000000002996
 31
0.0
  0
LINE
  5
13EC7
  8
MSM_CONTINUOUS
 10
93.749999999999986
 20
49.770500000029962
 30
0.0
 11
93.749999999999986
 21
52.229500000029958
 31
0.0
  0
LINE
  5
13ECA
  8
MSM_CONTINUOUS
 10
85.999999999999972
 20
52.500000000029956
 30
0.0
 11
85.999999999999972
 21
54.750000000029956
 31
0.0
  0
LINE
  5
13ECB
  8
MSM_CONTINUOUS
 10
85.999999999999972
 20
54.750000000029956
 30
0.0
 11
78.999999999999972
 21
54.750000000029956
 31
0.0
  0
LINE
  5
13ECC
  8
MSM_CONTINUOUS
 10
93.749999999999986
 20
52.229500000029958
 30
0.0
 11
86.270499999999956
 21
52.229500000029958
 31
0.0
  0
LINE
  5
13ECE
  8
MSM_CONTINUOUS
 10
94.459852155968605
 20
51.000000000029956
 30
0.0
 11
93.749999999999986
 21
52.229500000029958
 31
0.0
  0
LINE
  5
13ECF
  8
MSM_CONTINUOUS
 10
93.749999999999986
 20
49.770500000029962
 30
0.0
 11
94.459852155968605
 21
51.000000000029956
 31
0.0
  0
LINE
  5
13ED1
  8
MSM_CONTINUOUS
 10
86.270499999999956
 20
49.770500000029962
 30
0.0
 11
93.749999999999986
 21
49.770500000029962
 31
0.0
  0
LINE
  5
13ED2
  8
MSM_CONTINUOUS
 10
93.499999999999972
 20
46.625000000029956
 30
0.0
 11
85.999999999999972
 21
47.250000000029956
 31
0.0
  0
LINE
  5
13ED5
  8
MSM_CONTINUOUS
 10
85.999999999999972
 20
29.250000000029971
 30
0.0
 11
85.999999999999972
 21
36.750000000029956
 31
0.0
  0
LINE
  5
13ED6
  8
MSM_CONTINUOUS
 10
78.999999999999972
 20
29.250000000029971
 30
0.0
 11
85.999999999999972
 21
29.250000000029971
 31
0.0
  0
LINE
  5
13ED7
  8
MSM_CONTINUOUS
 10
85.999999999999972
 20
36.750000000029956
 30
0.0
 11
93.499999999999972
 21
37.375000000029956
 31
0.0
  0
LINE
  5
13ED8
  8
MSM_NARROW
 10
92.693499999999972
 20
52.500000000029956
 30
0.0
 11
92.999999999999972
 21
52.500000000029956
 31
0.0
  0
LINE
  5
13EDA
  8
MSM_NARROW
 10
92.999999999999972
 20
52.500000000029956
 30
0.0
 11
92.999999999999972
 21
52.193500000029971
 31
0.0
  0
LINE
  5
13EDB
  8
MSM_NARROW
 10
93.468519743447345
 20
52.229500000029958
 30
0.0
 11
92.999999999999972
 21
52.500000000029956
 31
0.0
  0
LINE
  5
13EDC
  8
MSM_NARROW
 10
92.693499999999972
 20
49.500000000029956
 30
0.0
 11
92.999999999999972
 21
49.500000000029956
 31
0.0
  0
LINE
  5
13EDE
  8
MSM_NARROW
 10
92.999999999999972
 20
49.500000000029956
 30
0.0
 11
92.999999999999972
 21
49.806500000029963
 31
0.0
  0
LINE
  5
13EDF
  8
MSM_NARROW
 10
93.468519743447345
 20
49.770500000029962
 30
0.0
 11
92.999999999999972
 21
49.500000000029956
 31
0.0
  0
LINE
  5
13EE0
  8
MSM_NARROW
 10
82.999999999999972
 20
49.5000000000299
 30
0.0
 11
83.468519743447345
 21
49.770500000029962
 31
0.0
  0
LINE
  5
13EE1
  8
MSM_NARROW
 10
83.468519743447445
 20
52.229500000029958
 30
0.0
 11
92.999999999999972
 21
52.229500000029958
 31
0.0
  0
LINE
  5
13EE2
  8
MSM_NARROW
 10
83.468519743447445
 20
49.770500000029962
 30
0.0
 11
92.999999999999972
 21
49.770500000029962
 31
0.0
  0
LINE
  5
13EE3
  8
MSM_CONTINUOUS
 10
81.299999999999983
 20
52.443375673004027
 30
0.0
 11
81.299999999999983
 21
49.556624327055893
 31
0.0
  0
LINE
  5
13EE4
  8
MSM_CONTINUOUS
 10
79.999999999999972
 20
52.443375673004027
 30
0.0
 11
81.299999999999983
 21
52.443375673004027
 31
0.0
  0
LINE
  5
13EE5
  8
MSM_CONTINUOUS
 10
79.999999999999972
 20
51.721687836516999
 30
0.0
 11
81.299999999999983
 21
51.721687836516999
 31
0.0
  0
LINE
  5
13EE6
  8
MSM_CONTINUOUS
 10
79.999999999999972
 20
50.278312163542928
 30
0.0
 11
81.299999999999983
 21
50.278312163542928
 31
0.0
  0
LINE
  5
13EE7
  8
MSM_CONTINUOUS
 10
79.999999999999972
 20
49.556624327055893
 30
0.0
 11
81.299999999999983
 21
49.556624327055893
 31
0.0
  0
LINE
  5
13EE8
  8
MSM_CONTINUOUS
 10
81.299999999999983
 20
52.443375673004027
 30
0.0
 11
82.133333333333283
 21
51.000000000029956
 31
0.0
  0
LINE
  5
13EE9
  8
MSM_CONTINUOUS
 10
82.133333333333283
 20
51.000000000029956
 30
0.0
 11
81.299999999999983
 21
49.556624327055893
 31
0.0
  0
LINE
  5
13EEA
  8
MSM_NARROW
 10
82.999999999999972
 20
52.500000000029956
 30
0.0
 11
83.468519743447345
 21
52.229500000029958
 31
0.0
  0
LINE
  5
13EEB
  8
MSM_CONTINUOUS
 10
80.299999999999983
 20
53.750000000029956
 30
0.0
 11
82.999999999999972
 21
53.750000000029956
 31
0.0
  0
LINE
  5
13EEC
  8
MSM_CONTINUOUS
 10
80.299999999999983
 20
48.250000000029956
 30
0.0
 11
82.999999999999972
 21
48.250000000029956
 31
0.0
  0
LINE
  5
13EED
  8
MSM_CONTINUOUS
 10
79.999999999999972
 20
53.450000000029952
 30
0.0
 11
79.999999999999972
 21
48.550000000029947
 31
0.0
  0
LINE
  5
13EEE
  8
MSM_CONTINUOUS
 10
80.299999999999983
 20
48.250000000029956
 30
0.0
 11
79.999999999999972
 21
48.550000000029947
 31
0.0
  0
LINE
  5
13EEF
  8
MSM_CONTINUOUS
 10
79.999999999999972
 20
53.450000000029952
 30
0.0
 11
80.299999999999983
 21
53.750000000029956
 31
0.0
  0
LINE
  5
13EF1
  8
MSM_CONTINUOUS
 10
83.468519743447345
 20
52.500000000029956
 30
0.0
 11
83.468519743447345
 21
49.500000000029956
 31
0.0
  0
LINE
  5
13EF2
  8
MSM_CONTINUOUS
 10
82.999999999999972
 20
52.500000000029956
 30
0.0
 11
92.729499999999973
 21
52.500000000029956
 31
0.0
  0
LINE
  5
13EF3
  8
MSM_CONTINUOUS
 10
82.999999999999972
 20
49.500000000029956
 30
0.0
 11
92.729499999999973
 21
49.500000000029956
 31
0.0
  0
LINE
  5
13EF4
  8
MSM_CONTINUOUS
 10
92.999999999999972
 20
49.770500000029962
 30
0.0
 11
92.729499999999973
 21
49.500000000029956
 31
0.0
  0
LINE
  5
13EF5
  8
MSM_CONTINUOUS
 10
92.729499999999973
 20
49.500000000029956
 30
0.0
 11
92.729499999999973
 21
52.500000000029956
 31
0.0
  0
LINE
  5
13EF6
  8
MSM_CONTINUOUS
 10
92.729499999999973
 20
52.500000000029956
 30
0.0
 11
92.999999999999972
 21
52.229500000029958
 31
0.0
  0
LINE
  5
13EF7
  8
MSM_CONTINUOUS
 10
92.999999999999972
 20
52.229500000029958
 30
0.0
 11
92.999999999999972
 21
49.770500000029962
 31
0.0
  0
ARC
  5
140AE
  8
MSM_CONTINUOUS
 10
32.573574032800387
 20
73.794826824985265
 30
0.0
 40
0.20000000000003
 50
29.05699924685393
 51
88.966504607287803
  0
ARC
  5
140AF
  8
MSM_CONTINUOUS
 10
31.999999999999801
 20
41.999999999988432
 30
0.0
 40
32.000000000041553
 50
88.966504607298134
 51
91.033495392701099
  0
ARC
  5
140B0
  8
MSM_CONTINUOUS
 10
31.426425967199581
 20
73.794826824985279
 30
0.0
 40
0.200000000000012
 50
91.033495392705149
 51
150.94300750281971
  0
ARC
  5
140B1
  8
MSM_CONTINUOUS
 10
39.992968872341741
 20
69.03516899543996
 30
0.0
 40
9.9999999999996891
 50
150.94300750282011
 51
162.9999991293183
  0
ARC
  5
140B2
  8
MSM_CONTINUOUS
 10
31.999999999999911
 20
71.478864815658852
 30
0.0
 40
1.6418183403334801
 50
162.99999469684431
 51
175.22099409339111
  0
ARC
  5
140B3
  8
MSM_CONTINUOUS
 10
18.40629724226353
 20
72.623610935746512
 30
0.0
 40
12.00000000000087
 50
348.12049663684462
 51
355.1816596529614
  0
ARC
  5
140B4
  8
MSM_CONTINUOUS
 10
29.170706794385168
 20
70.359215432701305
 30
0.0
 40
1.0000000000000071
 50
275.69733380342558
 51
348.12050318476179
  0
ARC
  5
140B5
  8
MSM_CONTINUOUS
 10
31.999999999966761
 20
42.000000000346581
 30
0.0
 40
27.49999999968168
 50
95.697333803422012
 51
96.302666196578244
  0
ARC
  5
140B6
  8
MSM_CONTINUOUS
 10
28.871253929972791
 20
70.327741668389109
 30
0.0
 40
0.9999999999999868
 50
203.8795039584183
 51
276.30266619657368
  0
ARC
  5
140B7
  8
MSM_CONTINUOUS
 10
38.929641008977192
 20
74.780701287441275
 30
0.0
 40
11.999999999999631
 50
196.8183403469119
 51
203.879503958421
  0
ARC
  5
140B8
  8
MSM_CONTINUOUS
 10
25.870999372794451
 20
70.834680891793624
 30
0.0
 40
1.6418183403334961
 50
16.77900590753071
 51
29.000009302349468
  0
ARC
  5
140B9
  8
MSM_CONTINUOUS
 10
18.56076897739992
 20
66.782554015421354
 30
0.0
 40
9.9999999999989733
 50
29.000001527276432
 51
41.05699249718041
  0
ARC
  5
140BA
  8
MSM_CONTINUOUS
 10
25.950523859592629
 20
73.219286321575623
 30
0.0
 40
0.199999999999935
 50
41.056992497181987
 51
100.9665046073148
  0
ARC
  5
140BB
  8
MSM_CONTINUOUS
 10
31.999999999985722
 20
42.000000000096207
 30
0.0
 40
31.999999999932271
 50
100.96650460729479
 51
103.0334956547559
  0
ARC
  5
140BC
  8
MSM_CONTINUOUS
 10
24.82844373153873
 20
72.980780827638213
 30
0.0
 40
0.2000000000000065
 50
103.0335373208968
 51
162.94300750282281
  0
ARC
  5
140BD
  8
MSM_CONTINUOUS
 10
34.197375627842128
 20
70.106217361225418
 30
0.0
 40
10.00000000000033
 50
162.94300750282051
 51
174.99999812558249
  0
ARC
  5
140BE
  8
MSM_CONTINUOUS
 10
25.87099937279384
 20
70.834680891793596
 30
0.0
 40
1.641818340332994
 50
174.99998858328291
 51
187.22099409239269
  0
ARC
  5
140BF
  8
MSM_CONTINUOUS
 10
12.336345533841779
 20
69.128121837771644
 30
0.0
 40
12.00000000000054
 50
0.1204949672721295
 51
7.181659653098575
  0
ARC
  5
140C0
  8
MSM_CONTINUOUS
 10
23.336321208283589
 20
69.151255399991953
 30
0.0
 40
0.9999999999999971
 50
287.69733380342558
 51
0.1204831498841959
  0
ARC
  5
140C1
  8
MSM_CONTINUOUS
 10
31.999999999876021
 20
42.00000000040847
 30
0.0
 40
27.499999999601741
 50
107.6973338034191
 51
108.30266619657711
  0
ARC
  5
140C2
  8
MSM_CONTINUOUS
 10
23.049955870980341
 20
69.05820966158376
 30
0.0
 40
1.0000000000000071
 50
215.87950395841821
 51
288.30266619657289
  0
ARC
  5
140C3
  8
MSM_CONTINUOUS
 10
31.962720696019989
 20
75.505117693619454
 30
0.0
 40
11.99999999999959
 50
208.81834034691229
 51
215.87950395842111
  0
ARC
  5
140C4
  8
MSM_CONTINUOUS
 10
20.00986548320606
 20
68.930283048808263
 30
0.0
 40
1.6418183403331781
 50
28.779005907530252
 51
41.000009302350882
  0
ARC
  5
140C5
  8
MSM_CONTINUOUS
 10
13.7018657114133
 20
63.446822505041062
 30
0.0
 40
9.9999999999998792
 50
41.000001527276929
 51
53.056992632173269
  0
ARC
  5
140C6
  8
MSM_CONTINUOUS
 10
19.5918648223278
 20
71.279313199157698
 30
0.0
 40
0.200000000000013
 50
53.056999246861658
 51
112.9665046072968
  0
ARC
  5
140C7
  8
MSM_CONTINUOUS
 10
31.999999999992571
 20
42.000000000046647
 30
0.0
 40
31.999999999981771
 50
112.9665046072967
 51
115.0334956458162
  0
ARC
  5
140C8
  8
MSM_CONTINUOUS
 10
18.54389291775469
 20
70.812726045844371
 30
0.0
 40
0.2000000000000217
 50
115.0335358907536
 51
174.94300750281971
  0
ARC
  5
140C9
  8
MSM_CONTINUOUS
 10
28.30574652422635
 20
69.948889159732531
 30
0.0
 40
9.999999999999563
 50
174.94300750282
 51
186.99999812558301
  0
ARC
  5
140CA
  8
MSM_CONTINUOUS
 10
20.0098654832052
 20
68.930283048807837
 30
0.0
 40
1.64181834033298
 50
186.9999885832797
 51
199.2209940933902
  0
ARC
  5
140CB
  8
MSM_CONTINUOUS
 10
7.1257898822725876
 20
64.44700364031587
 30
0.0
 40
12.000000000001711
 50
12.12049501300806
 51
19.181659652961429
  0
ARC
  5
140CC
  8
MSM_CONTINUOUS
 10
17.880579958323299
 20
66.756655220125865
 30
0.0
 40
1.0000000000000191
 50
299.69733380342672
 51
12.12048369871852
  0
ARC
  5
140CD
  8
MSM_CONTINUOUS
 10
31.99999999998386
 20
42.000000000058279
 30
0.0
 40
27.499999999967429
 50
119.69733380342539
 51
120.3026661965754
  0
ARC
  5
140CE
  8
MSM_CONTINUOUS
 10
17.61981768750266
 20
66.60610405287305
 30
0.0
 40
1.0000000000000091
 50
227.8795039584185
 51
300.30266619657249
  0
ARC
  5
140CF
  8
MSM_CONTINUOUS
 10
24.997429667531812
 20
74.765199681194389
 30
0.0
 40
11.999999999998289
 50
220.81834034693301
 51
227.8795039584212
  0
ARC
  5
140D0
  8
MSM_CONTINUOUS
 10
14.67275800704955
 20
65.848902610755147
 30
0.0
 40
1.641818340333961
 50
40.779005907376927
 51
53.000009302347891
  0
ARC
  5
140D1
  8
MSM_CONTINUOUS
 10
9.6426787180287086
 20
59.173761937919878
 30
0.0
 40
9.9999999999998845
 50
53.000001527276822
 51
65.056992497179735
  0
ARC
  5
140D2
  8
MSM_CONTINUOUS
 10
13.77550083316584
 20
68.059693592205292
 30
0.0
 40
0.199999999999992
 50
65.056992497187281
 51
124.9665046073073
  0
ARC
  5
140D3
  8
MSM_CONTINUOUS
 10
32.000000000016463
 20
42.000000000007411
 30
0.0
 40
32.000000000027931
 50
124.9665046072983
 51
127.0334956458148
  0
ARC
  5
140D4
  8
MSM_CONTINUOUS
 10
12.84743855303042
 20
67.385416877049323
 30
0.0
 40
0.2000000000000051
 50
127.0335358907555
 51
186.9430075028296
  0
ARC
  5
140D5
  8
MSM_CONTINUOUS
 10
22.57557402449692
 20
68.570060388310452
 30
0.0
 40
9.9999999999988773
 50
186.9430075028196
 51
198.99999818485281
  0
ARC
  5
140D6
  8
MSM_CONTINUOUS
 10
14.672758007049341
 20
65.848902610755275
 30
0.0
 40
1.6418183403330311
 50
198.99998894428401
 51
211.22099409189411
  0
ARC
  5
140D7
  8
MSM_CONTINUOUS
 10
3.002356572550958
 20
58.784843671105179
 30
0.0
 40
12.000000000003009
 50
24.12049501300806
 51
31.181659653165958
  0
ARC
  5
140D8
  8
MSM_CONTINUOUS
 10
13.0419251166787
 20
63.280070411529643
 30
0.0
 40
1.0000000000000051
 50
311.69733380342598
 51
24.12048369871869
  0
ARC
  5
140D9
  8
MSM_CONTINUOUS
 10
32.000000000007319
 20
42.000000000022311
 30
0.0
 40
27.500000000010619
 50
131.6973338034262
 51
132.30266619657519
  0
ARC
  5
140DA
  8
MSM_CONTINUOUS
 10
12.81816247485169
 20
63.078593623865828
 30
0.0
 40
1.0000000000000011
 50
239.8795039584185
 51
312.30266619657277
  0
ARC
  5
140DB
  8
MSM_CONTINUOUS
 10
18.338184564635551
 20
72.593285217833511
 30
0.0
 40
12.00000000000095
 50
232.81834034693409
 51
239.87950395842091
  0
ARC
  5
140DC
  8
MSM_CONTINUOUS
 10
10.09293415131793
 20
61.725210688882903
 30
0.0
 40
1.641818340333155
 50
52.779005907372813
 51
65.000009302350122
  0
ARC
  5
140DD
  8
MSM_CONTINUOUS
 10
6.5606139469969369
 20
54.150125565261149
 30
0.0
 40
9.9999999999986962
 50
65.000001527276041
 51
77.05699249718036
  0
ARC
  5
140DE
  8
MSM_CONTINUOUS
 10
8.7556349084440406
 20
63.701140326991059
 30
0.0
 40
0.1999999999999836
 50
77.056992497189512
 51
136.9665046073091
  0
ARC
  5
140DF
  8
MSM_CONTINUOUS
 10
31.999999999990759
 20
42.000000000038142
 30
0.0
 40
31.999999999987679
 50
136.96650460729671
 51
139.03349563650431
  0
ARC
  5
140E0
  8
MSM_CONTINUOUS
 10
7.9880430277251584
 20
62.848643177983419
 30
0.0
 40
0.2000000000000202
 50
139.03353440092079
 51
198.94300750281781
  0
ARC
  5
140E1
  8
MSM_CONTINUOUS
 10
17.257294163311592
 20
66.029992480625523
 30
0.0
 40
9.9999999999996021
 50
198.94300750282
 51
210.9999981848525
  0
ARC
  5
140E2
  8
MSM_CONTINUOUS
 10
10.092934151317801
 20
61.725210688882612
 30
0.0
 40
1.6418183403336351
 50
210.99998894428501
 51
223.22099409189079
  0
ARC
  5
140E3
  8
MSM_CONTINUOUS
 10
0.1462594267420378
 20
52.389105490853268
 30
0.0
 40
12.00000000000213
 50
36.120494967271782
 51
43.181659653166612
  0
ARC
  5
140E4
  8
MSM_CONTINUOUS
 10
9.0318291183715882
 20
58.87344441284381
 30
0.0
 40
0.9999999999999978
 50
323.69733380342592
 51
36.120483149882119
  0
ARC
  5
140E5
  8
MSM_CONTINUOUS
 10
32.000000000122611
 20
41.999999999941323
 30
0.0
 40
27.500000000151321
 50
143.69733380342791
 51
144.30266619657371
  0
ARC
  5
140E6
  8
MSM_CONTINUOUS
 10
8.8548456067183601
 20
58.629847507182788
 30
0.0
 40
0.9999999999999982
 50
251.8795039584185
 51
324.30266619657311
  0
ARC
  5
140E7
  8
MSM_CONTINUOUS
 10
12.27602635292631
 20
69.084297387581771
 30
0.0
 40
11.99999999999992
 50
244.81834034692841
 51
251.8795039584212
  0
ARC
  5
140E8
  8
MSM_CONTINUOUS
 10
6.47055419493784
 20
56.739432407843793
 30
0.0
 40
1.641818340334223
 50
64.779005907415595
 51
77.000009302345816
  0
ARC
  5
140E9
  8
MSM_CONTINUOUS
 10
4.5903724181986396
 20
48.595470402628742
 30
0.0
 40
9.9999999999996945
 50
77.000001527276822
 51
89.056992497179934
  0
ARC
  5
140EA
  8
MSM_CONTINUOUS
 10
4.7516592770619779
 20
58.394143095863868
 30
0.0
 40
0.2000000000000155
 50
89.056992497188986
 51
148.96650460730001
  0
ARC
  5
140EB
  8
MSM_CONTINUOUS
 10
31.99999999998634
 20
42.000000000038028
 30
0.0
 40
31.999999999984158
 50
148.96650460729691
 51
151.03349563650491
  0
ARC
  5
140EC
  8
MSM_CONTINUOUS
 10
4.1780852442614993
 20
57.400683729151432
 30
0.0
 40
0.1999999999999734
 50
151.0335344009136
 51
210.943007502829
  0
ARC
  5
140ED
  8
MSM_CONTINUOUS
 10
12.58334129054105
 20
62.439698592841673
 30
0.0
 40
10.00000000000049
 50
210.94300750282031
 51
222.99999818485171
  0
ARC
  5
140EE
  8
MSM_CONTINUOUS
 10
6.4705541949379279
 20
56.739432407844319
 30
0.0
 40
1.641818340333369
 50
222.9999889442856
 51
235.22099409189309
  0
ARC
  5
140EF
  8
MSM_CONTINUOUS
 10
-1.3176764048091869
 20
45.539313548194563
 30
0.0
 40
11.99999999999998
 50
48.12049496727095
 51
55.181659653167017
  0
ARC
  5
140F0
  8
MSM_CONTINUOUS
 10
6.0255524011035284
 20
53.729367925548473
 30
0.0
 40
0.999999999999995
 50
335.69733380342609
 51
48.120483149882801
  0
ARC
  5
140F1
  8
MSM_CONTINUOUS
 10
31.99999999964799
 20
42.000000000186851
 30
0.0
 40
27.49999999961463
 50
155.69733380342149
 51
156.30266619657911
  0
ARC
  5
140F2
  8
MSM_CONTINUOUS
 10
5.903083048344409
 20
53.454297255575291
 30
0.0
 40
1.0000000000000111
 50
263.87950395841909
 51
336.30266619657249
  0
ARC
  5
140F3
  8
MSM_CONTINUOUS
 10
7.0759004357215387
 20
64.391595796618432
 30
0.0
 40
12.00000000000176
 50
256.81834034691258
 51
263.87950395842029
  0
ARC
  5
140F4
  8
MSM_CONTINUOUS
 10
3.96393352411221
 20
51.109470202940713
 30
0.0
 40
1.641818340333832
 50
76.779005907534156
 51
89.000005883322885
  0
ARC
  5
140F5
  8
MSM_CONTINUOUS
 10
3.8180631407111001
 20
42.752561534824629
 30
0.0
 40
10.00000000000043
 50
89.000000965934973
 51
101.05699249717929
  0
ARC
  5
140F6
  8
MSM_CONTINUOUS
 10
1.938566887317819
 20
52.370643143622132
 30
0.0
 40
0.200000000000012
 50
101.05699249719051
 51
160.96650460730081
  0
ARC
  5
140F7
  8
MSM_CONTINUOUS
 10
31.999999999980169
 20
42.000000000036309
 30
0.0
 40
31.99999999997921
 50
160.9665046072964
 51
163.03349562682311
  0
ARC
  5
140F8
  8
MSM_CONTINUOUS
 10
1.5840786399827489
 20
51.279640500677132
 30
0.0
 40
0.1999999999999857
 50
163.03353285187779
 51
222.94300750283031
  0
ARC
  5
140F9
  8
MSM_CONTINUOUS
 10
8.7579895748383407
 20
57.956091795995448
 30
0.0
 40
9.9999999999999112
 50
222.94300750282011
 51
234.9999981848521
  0
ARC
  5
140FA
  8
MSM_CONTINUOUS
 10
3.9639335241119902
 20
51.109470202940727
 30
0.0
 40
1.6418183403332141
 50
234.9999889442845
 51
247.2209940923936
  0
ARC
  5
140FB
  8
MSM_CONTINUOUS
 10
-1.325469901522087
 20
38.53483661996993
 30
0.0
 40
11.99999999999895
 50
60.120495095018903
 51
67.181659653098819
  0
ARC
  5
140FC
  8
MSM_CONTINUOUS
 10
4.15448368313531
 20
48.072661776156089
 30
0.0
 40
0.9999999999999996
 50
347.69733380342637
 51
60.120484682862383
  0
ARC
  5
140FD
  8
MSM_CONTINUOUS
 10
31.999999999898499
 20
42.000000000051301
 30
0.0
 40
27.4999999998963
 50
167.69733380342379
 51
168.3026661965751
  0
ARC
  5
140FE
  8
MSM_CONTINUOUS
 10
4.0918809876590876
 20
47.77813925008406
 30
0.0
 40
0.9999999999999809
 50
275.87950395841813
 51
348.30266619657368
  0
ARC
  5
140FF
  8
MSM_CONTINUOUS
 10
2.9650772685739391
 20
58.720274022545709
 30
0.0
 40
12.000000000002631
 50
268.81834034691292
 51
275.87950395842017
  0
ARC
  5
14100
  8
MSM_CONTINUOUS
 10
2.6826234902556001
 20
45.081380438082718
 30
0.0
 40
1.6418183403333959
 50
88.779005907529907
 51
101.0000093023488
  0
ARC
  5
14101
  8
MSM_CONTINUOUS
 10
4.2774397359113401
 20
36.876762116760048
 30
0.0
 40
10.00000000000021
 50
101.00000152727701
 51
113.05699249717949
  0
ARC
  5
14102
  8
MSM_CONTINUOUS
 10
0.4393033753582998
 20
45.893896322138403
 30
0.0
 40
0.2000000000000144
 50
113.05699249719039
 51
172.96650460731291
  0
ARC
  5
14103
  8
MSM_CONTINUOUS
 10
31.999999999952902
 20
42.000000000034902
 30
0.0
 40
31.99999999995266
 50
172.96650460729569
 51
175.03349562682411
  0
ARC
  5
14104
  8
MSM_CONTINUOUS
 10
0.3193937509205398
 20
44.75303245366905
 30
0.0
 40
0.2000000000000209
 50
175.03353285187981
 51
234.94300750282281
  0
ARC
  5
14105
  8
MSM_CONTINUOUS
 10
5.9484252422552677
 20
52.775127221842368
 30
0.0
 40
9.9999999999995914
 50
234.94300750282019
 51
246.99999824612399
  0
ARC
  5
14106
  8
MSM_CONTINUOUS
 10
2.6826234902557071
 20
45.081380438082817
 30
0.0
 40
1.64181834033383
 50
246.9999893174778
 51
259.22099409239007
  0
ARC
  5
14107
  8
MSM_CONTINUOUS
 10
0.123219549807061
 20
31.68180395914959
 30
0.0
 40
12.00000000000121
 50
72.120495144440028
 51
79.181659653098322
  0
ARC
  5
14108
  8
MSM_CONTINUOUS
 10
3.5003976458260091
 20
42.150551167282792
 30
0.0
 40
1.0000000000000071
 50
359.69733380338158
 51
72.12048527590548
  0
ARC
  5
14109
  8
MSM_CONTINUOUS
 10
31.99999999999088
 20
42.000000000029928
 30
0.0
 40
27.49999999999088
 50
179.6973338034274
 51
180.3026661965738
  0
ARC
  5
1410A
  8
MSM_CONTINUOUS
 10
3.5003976458260189
 20
41.849448832777163
 30
0.0
 40
0.9999999999999978
 50
287.8795136177643
 51
0.3026661965752192
  0
ARC
  5
1410B
  8
MSM_CONTINUOUS
 10
0.1232195498073807
 20
52.318196040908667
 30
0.0
 40
11.999999999999501
 50
280.81834034691241
 51
287.87950476336692
  0
ARC
  5
1410C
  8
MSM_CONTINUOUS
 10
2.6826234902556498
 20
38.918619561977351
 30
0.0
 40
1.6418183403335831
 50
100.7790059075313
 51
113.0000058833219
  0
ARC
  5
1410D
  8
MSM_CONTINUOUS
 10
5.948425242255527
 20
31.224872778217211
 30
0.0
 40
10.00000000000006
 50
113.0000009659348
 51
125.05699249717961
  0
ARC
  5
1410E
  8
MSM_CONTINUOUS
 10
0.3193937509205504
 20
39.246967546390927
 30
0.0
 40
0.1999999999999886
 50
125.05699249718219
 51
184.9665046073136
  0
ARC
  5
1410F
  8
MSM_CONTINUOUS
 10
31.999999999994049
 20
42.000000000029402
 30
0.0
 40
31.999999999994031
 50
184.96650460729711
 51
187.03349561682251
  0
ARC
  5
14110
  8
MSM_CONTINUOUS
 10
0.4393033753582288
 20
38.106103677921539
 30
0.0
 40
0.1999999999999809
 50
187.03353125183671
 51
246.9430075028275
  0
ARC
  5
14111
  8
MSM_CONTINUOUS
 10
4.2774397359113001
 20
47.123237883299758
 30
0.0
 40
10.00000000000006
 50
246.94300750282039
 51
258.99999831393183
  0
ARC
  5
14112
  8
MSM_CONTINUOUS
 10
2.6826234902556498
 20
38.918619561977494
 30
0.0
 40
1.641818340333657
 50
258.99998973048542
 51
271.22099409239053
  0
ARC
  5
14113
  8
MSM_CONTINUOUS
 10
2.9650772685741198
 20
25.27972597751787
 30
0.0
 40
11.999999999999019
 50
84.120495144439275
 51
91.181659653098819
  0
ARC
  5
14114
  8
MSM_CONTINUOUS
 10
4.0918809876590876
 20
36.221860749975903
 30
0.0
 40
0.9999999999999893
 50
11.69733380342495
 51
84.120485275906617
  0
ARC
  5
14115
  8
MSM_CONTINUOUS
 10
31.99999999987752
 20
42.00000000000346
 30
0.0
 40
27.499999999874689
 50
191.69733380342299
 51
192.3026661965749
  0
ARC
  5
14116
  8
MSM_CONTINUOUS
 10
4.154483683135318
 20
35.92733822390386
 30
0.0
 40
0.9999999999999985
 50
299.87951361776368
 51
12.30266619657357
  0
ARC
  5
14117
  8
MSM_CONTINUOUS
 10
-1.3254699015216389
 20
45.46516338008913
 30
0.0
 40
11.999999999997961
 50
292.81834034691161
 51
299.87950476336692
  0
ARC
  5
14118
  8
MSM_CONTINUOUS
 10
3.9639335241122491
 20
32.890529797118852
 30
0.0
 40
1.641818340333657
 50
112.7790059075312
 51
125.0000093023482
  0
ARC
  5
14119
  8
MSM_CONTINUOUS
 10
8.7579895748381205
 20
26.043908204064749
 30
0.0
 40
9.999999999999579
 50
125.00000152727659
 51
137.0569926321734
  0
ARC
  5
1411A
  8
MSM_CONTINUOUS
 10
1.5840786399827991
 20
32.720359499382873
 30
0.0
 40
0.1999999999999879
 50
137.056999246858
 51
196.96650460730481
  0
ARC
  5
1411B
  8
MSM_CONTINUOUS
 10
32.000000000030099
 20
42.00000000003952
 30
0.0
 40
32.000000000031569
 50
196.96650460729779
 51
199.0334956168208
  0
ARC
  5
1411C
  8
MSM_CONTINUOUS
 10
1.938566887317779
 20
31.629356856437841
 30
0.0
 40
0.2000000000000212
 50
199.03353125184219
 51
258.94300750282332
  0
ARC
  5
1411D
  8
MSM_CONTINUOUS
 10
3.8180631407110681
 20
41.247438465234438
 30
0.0
 40
9.9999999999995541
 50
258.94300750281991
 51
270.99999831393211
  0
ARC
  5
1411E
  8
MSM_CONTINUOUS
 10
3.9639335241122491
 20
32.89052979711947
 30
0.0
 40
1.64181834033407
 50
270.99998973048292
 51
283.22099409338551
  0
ARC
  5
1411F
  8
MSM_CONTINUOUS
 10
7.0759004357208068
 20
19.608404203445961
 30
0.0
 40
11.999999999997261
 50
96.120495095018484
 51
103.18165965296249
  0
ARC
  5
14120
  8
MSM_CONTINUOUS
 10
5.9030830483444197
 20
30.545702744484672
 30
0.0
 40
1.0000000000000091
 50
23.69733380342463
 51
96.120484682861445
  0
ARC
  5
14121
  8
MSM_CONTINUOUS
 10
32.000000000149512
 20
42.000000000096698
 30
0.0
 40
27.50000000016373
 50
203.6973338034276
 51
204.302666196573
  0
ARC
  5
14122
  8
MSM_CONTINUOUS
 10
6.0255524011035169
 20
30.2706320745115
 30
0.0
 40
1.0000000000000091
 50
311.8795039584183
 51
24.302666196572261
  0
ARC
  5
14123
  8
MSM_CONTINUOUS
 10
-1.3176764048103591
 20
38.460686451866813
 30
0.0
 40
12.00000000000184
 50
304.81834034692889
 51
311.87950395842063
  0
ARC
  5
14124
  8
MSM_CONTINUOUS
 10
6.4705541949379501
 20
27.26056759221569
 30
0.0
 40
1.641818340333322
 50
124.7790059074125
 51
137.00000930234941
  0
ARC
  5
14125
  8
MSM_CONTINUOUS
 10
12.58334129054108
 20
21.560301407218262
 30
0.0
 40
10.00000000000052
 50
137.00000152727719
 51
149.0569926922204
  0
ARC
  5
14126
  8
MSM_CONTINUOUS
 10
4.178085244261549
 20
26.599316270908592
 30
0.0
 40
0.1999999999999782
 50
149.05700224923419
 51
208.9665046073161
  0
ARC
  5
14127
  8
MSM_CONTINUOUS
 10
31.999999999971418
 20
42.000000000013458
 30
0.0
 40
31.999999999966999
 50
208.96650460729609
 51
211.0334951791562
  0
ARC
  5
14128
  8
MSM_CONTINUOUS
 10
4.7516592770619503
 20
25.605856904196081
 30
0.0
 40
0.1999999999999974
 50
211.03346122509259
 51
270.94300750282429
  0
ARC
  5
14129
  8
MSM_CONTINUOUS
 10
4.590372418198708
 20
35.404529597430738
 30
0.0
 40
9.9999999999992113
 50
270.9430075028198
 51
282.99999824612399
  0
ARC
  5
1412A
  8
MSM_CONTINUOUS
 10
6.4705541949381384
 20
27.260567592215391
 30
0.0
 40
1.6418183403334039
 50
282.99998931747638
 51
295.22099409239212
  0
ARC
  5
1412B
  8
MSM_CONTINUOUS
 10
12.2760263529265
 20
14.915702612477981
 30
0.0
 40
12.00000000000016
 50
108.12049509501929
 51
115.18165965309851
  0
ARC
  5
1412C
  8
MSM_CONTINUOUS
 10
8.8548456067183707
 20
25.3701524928772
 30
0.0
 40
0.9999999999999918
 50
35.697333803427057
 51
108.1204846828623
  0
ARC
  5
1412D
  8
MSM_CONTINUOUS
 10
32.000000000012562
 20
42.000000000038447
 30
0.0
 40
27.500000000015149
 50
215.69733380342441
 51
216.3026661965734
  0
ARC
  5
1412E
  8
MSM_CONTINUOUS
 10
9.0318291183716006
 20
25.126555587216171
 30
0.0
 40
1.0
 50
323.8795039584179
 51
36.302666196573107
  0
ARC
  5
1412F
  8
MSM_CONTINUOUS
 10
0.1462594267429509
 20
31.610894509205881
 30
0.0
 40
12.000000000000931
 50
316.81834034693389
 51
323.87950395842063
  0
ARC
  5
14130
  8
MSM_CONTINUOUS
 10
10.092934151317589
 20
22.274789311177582
 30
0.0
 40
1.6418183403333071
 50
136.7790059073744
 51
149.00000930235041
  0
ARC
  5
14131
  8
MSM_CONTINUOUS
 10
17.257294163312089
 20
17.970007519434251
 30
0.0
 40
10.000000000000099
 50
149.00000152727691
 51
161.0569926922206
  0
ARC
  5
14132
  8
MSM_CONTINUOUS
 10
7.9880430277251691
 20
21.15135682207659
 30
0.0
 40
0.1999999999999926
 50
161.05700224923621
 51
220.96650460730521
  0
ARC
  5
14133
  8
MSM_CONTINUOUS
 10
31.999999999986901
 20
42.000000000018197
 30
0.0
 40
31.999999999982379
 50
220.9665046072966
 51
223.03349519016919
  0
ARC
  5
14134
  8
MSM_CONTINUOUS
 10
8.7556349084440406
 20
20.29885967306895
 30
0.0
 40
0.2000000000000292
 50
223.03346298725151
 51
282.94300750281991
  0
ARC
  5
14135
  8
MSM_CONTINUOUS
 10
6.5606139469965177
 20
29.849874434800238
 30
0.0
 40
10.00000000000019
 50
282.94300750282042
 51
294.99999838007813
  0
ARC
  5
14136
  8
MSM_CONTINUOUS
 10
10.092934151317341
 20
22.274789311178051
 30
0.0
 40
1.641818340334307
 50
294.99999013337339
 51
307.22099409238922
  0
ARC
  5
14137
  8
MSM_CONTINUOUS
 10
18.338184564636428
 20
11.40671478222524
 30
0.0
 40
12.000000000002419
 50
120.12049505829749
 51
127.1816596530977
  0
ARC
  5
14138
  8
MSM_CONTINUOUS
 10
12.81816247485172
 20
20.921406376194149
 30
0.0
 40
0.9999999999999975
 50
47.697333803425401
 51
120.12048424219491
  0
ARC
  5
14139
  8
MSM_CONTINUOUS
 10
31.999999999955762
 20
41.999999999980048
 30
0.0
 40
27.499999999933291
 50
227.6973338034235
 51
228.30266619657419
  0
ARC
  5
1413A
  8
MSM_CONTINUOUS
 10
13.04192511667874
 20
20.71992958853032
 30
0.0
 40
0.9999999999999941
 50
335.87951361776493
 51
48.302666196574421
  0
ARC
  5
1413B
  8
MSM_CONTINUOUS
 10
3.002356572553178
 20
25.21515632895365
 30
0.0
 40
12.000000000000551
 50
328.81834034692861
 51
335.87950476336653
  0
ARC
  5
1413C
  8
MSM_CONTINUOUS
 10
14.67275800705038
 20
18.15109738930424
 30
0.0
 40
1.6418183403341271
 50
148.77900590741501
 51
161.0000093023458
  0
ARC
  5
1413D
  8
MSM_CONTINUOUS
 10
22.575574024497872
 20
15.429939611749321
 30
0.0
 40
9.999999999999817
 50
161.00000152727691
 51
173.0569927367695
  0
ARC
  5
1413E
  8
MSM_CONTINUOUS
 10
12.84743855303047
 20
16.614583123010711
 30
0.0
 40
0.2000000000000259
 50
173.0570044766711
 51
232.96650460729799
  0
ARC
  5
1413F
  8
MSM_CONTINUOUS
 10
32.000000000008669
 20
42.000000000041943
 30
0.0
 40
32.000000000014772
 50
232.96650460729771
 51
235.0334955834721
  0
ARC
  5
14140
  8
MSM_CONTINUOUS
 10
13.77550083316584
 20
15.94030640785469
 30
0.0
 40
0.2000000000000173
 50
235.03352591586341
 51
294.94300750281838
  0
ARC
  5
14141
  8
MSM_CONTINUOUS
 10
9.6426787180283391
 20
24.826238062140749
 30
0.0
 40
10.00000000000065
 50
294.94300750282071
 51
306.99999831393171
  0
ARC
  5
14142
  8
MSM_CONTINUOUS
 10
14.67275800704974
 20
18.15109738930472
 30
0.0
 40
1.641818340333782
 50
306.99998973048417
 51
319.22099409338892
  0
ARC
  5
14143
  8
MSM_CONTINUOUS
 10
24.997429667532561
 20
9.2348003188648136
 30
0.0
 40
11.99999999999933
 50
132.12049514443899
 51
139.18165965296151
  0
ARC
  5
14144
  8
MSM_CONTINUOUS
 10
17.619817687502671
 20
17.393895947186941
 30
0.0
 40
0.9999999999999936
 50
59.697333803423952
 51
132.1204852759052
  0
ARC
  5
14145
  8
MSM_CONTINUOUS
 10
32.000000000016882
 20
42.00000000005933
 30
0.0
 40
27.50000000003385
 50
239.69733380342601
 51
240.30266619657439
  0
ARC
  5
14146
  8
MSM_CONTINUOUS
 10
17.88057995832337
 20
17.24334477993412
 30
0.0
 40
0.9999999999999912
 50
347.87951361776481
 51
60.302666196574073
  0
ARC
  5
14147
  8
MSM_CONTINUOUS
 10
7.1257898822738781
 20
19.552996359743659
 30
0.0
 40
12.000000000000391
 50
340.81834034693389
 51
347.87950476336653
  0
ARC
  5
14148
  8
MSM_CONTINUOUS
 10
20.009865483205711
 20
15.069716951251941
 30
0.0
 40
1.641818340333465
 50
160.7790059073742
 51
173.00000930234859
  0
ARC
  5
14149
  8
MSM_CONTINUOUS
 10
28.305746524227011
 20
14.05111084032746
 30
0.0
 40
10.000000000000179
 50
173.00000152727691
 51
185.05699269222049
  0
ARC
  5
1414A
  8
MSM_CONTINUOUS
 10
18.543892917754711
 20
13.18727395421565
 30
0.0
 40
0.2000000000000016
 50
185.0570022492374
 51
244.9665046073068
  0
ARC
  5
1414B
  8
MSM_CONTINUOUS
 10
31.99999999997922
 20
41.999999999983231
 30
0.0
 40
31.999999999948841
 50
244.96650460729549
 51
247.03349558347409
  0
ARC
  5
1414C
  8
MSM_CONTINUOUS
 10
19.591864822327832
 20
12.720686800902209
 30
0.0
 40
0.199999999999977
 50
247.03352591585809
 51
306.94300750282679
  0
ARC
  5
1414D
  8
MSM_CONTINUOUS
 10
13.70186571141272
 20
20.553177495019568
 30
0.0
 40
10.00000000000078
 50
306.94300750282082
 51
318.99999844904261
  0
ARC
  5
1414E
  8
MSM_CONTINUOUS
 10
20.009865483205871
 20
15.06971695125187
 30
0.0
 40
1.641818340333457
 50
318.99999055341982
 51
331.22099409239132
  0
ARC
  5
1414F
  8
MSM_CONTINUOUS
 10
31.962720696021261
 20
8.4948823064398127
 30
0.0
 40
12.000000000001
 50
144.1204951444399
 51
151.18165965309831
  0
ARC
  5
14150
  8
MSM_CONTINUOUS
 10
23.049955870980341
 20
14.941790338476251
 30
0.0
 40
0.9999999999999889
 50
71.697333803424328
 51
144.12048527590559
  0
ARC
  5
14151
  8
MSM_CONTINUOUS
 10
31.999999999987821
 20
41.999999999992362
 30
0.0
 40
27.499999999960451
 50
251.6973338034249
 51
252.30266619657499
  0
ARC
  5
14152
  8
MSM_CONTINUOUS
 10
23.336321208283621
 20
14.848744600068031
 30
0.0
 40
1.0000000000000031
 50
359.87951361781302
 51
72.302666196573512
  0
ARC
  5
14153
  8
MSM_CONTINUOUS
 10
12.336345533839641
 20
14.871878162288381
 30
0.0
 40
12.00000000000272
 50
352.81834034693458
 51
359.87950476336368
  0
ARC
  5
14154
  8
MSM_CONTINUOUS
 10
25.870999372794259
 20
13.165319108266379
 30
0.0
 40
1.641818340333367
 50
172.7790059073734
 51
185.0000093023497
  0
ARC
  5
14155
  8
MSM_CONTINUOUS
 10
34.197375627842149
 20
13.893782638834571
 30
0.0
 40
10.000000000000311
 50
185.00000152727719
 51
197.05699269222049
  0
ARC
  5
14156
  8
MSM_CONTINUOUS
 10
24.828443731538769
 20
11.019219172421829
 30
0.0
 40
0.2000000000000229
 50
197.05700224923791
 51
256.96650460730001
  0
ARC
  5
14157
  8
MSM_CONTINUOUS
 10
32.000000000004192
 20
42.000000000049539
 30
0.0
 40
32.000000000019988
 50
256.96650460729779
 51
259.03349558347168
  0
ARC
  5
14158
  8
MSM_CONTINUOUS
 10
25.950523859592611
 20
10.780713678484419
 30
0.0
 40
0.2000000000000189
 50
259.03352591586412
 51
318.94300750282008
  0
ARC
  5
14159
  8
MSM_CONTINUOUS
 10
18.560768977399349
 20
17.217445984639038
 30
0.0
 40
9.999999999999698
 50
318.94300750282019
 51
330.99999844904312
  0
ARC
  5
1415A
  8
MSM_CONTINUOUS
 10
25.870999372794561
 20
13.165319108266431
 30
0.0
 40
1.6418183403334581
 50
330.99999055341732
 51
343.22099409338932
  0
ARC
  5
1415B
  8
MSM_CONTINUOUS
 10
38.929641008975338
 20
9.219298712619441
 30
0.0
 40
11.9999999999976
 50
156.1204951997463
 51
163.1816596529624
  0
ARC
  5
1415C
  8
MSM_CONTINUOUS
 10
28.871253929972831
 20
13.672258331670861
 30
0.0
 40
1.0000000000000191
 50
83.697333803426574
 51
156.12048593959429
  0
ARC
  5
1415D
  8
MSM_CONTINUOUS
 10
32.000000000050207
 20
42.000000000505118
 30
0.0
 40
27.500000000477769
 50
263.69733380343013
 51
264.30266619656891
  0
ARC
  5
1415E
  8
MSM_CONTINUOUS
 10
29.170706794385168
 20
13.64078456735869
 30
0.0
 40
1.0000000000000131
 50
11.879513617764969
 51
84.302666196573568
  0
ARC
  5
1415F
  8
MSM_CONTINUOUS
 10
18.406297242263982
 20
11.376389064313511
 30
0.0
 40
12.00000000000041
 50
4.8183403469337867
 51
11.87950476336615
  0
ARC
  5
14160
  8
MSM_CONTINUOUS
 10
32.000000000000071
 20
12.52113518440113
 30
0.0
 40
1.6418183403336191
 50
184.77900590737499
 51
197.00000930234879
  0
ARC
  5
14161
  8
MSM_CONTINUOUS
 10
39.992968872342061
 20
14.964831004620111
 30
0.0
 40
10.0
 50
197.00000152727671
 51
209.05699249717949
  0
ARC
  5
14162
  8
MSM_CONTINUOUS
 10
31.426425967199609
 20
10.20517317507473
 30
0.0
 40
0.2000000000000406
 50
209.0569924971885
 51
268.96650460728989
  0
ARC
  5
14163
  8
MSM_CONTINUOUS
 10
32.000000000000128
 20
42.00000000006257
 30
0.0
 40
32.000000000032578
 50
268.96650460729802
 51
271.03349557093202
  0
ARC
  5
14164
  8
MSM_CONTINUOUS
 10
32.573574032800387
 20
10.2051731750747
 30
0.0
 40
0.2000000000000452
 50
271.0335239095819
 51
330.94300750281479
  0
ARC
  5
14165
  8
MSM_CONTINUOUS
 10
24.007031127656891
 20
14.964831004620541
 30
0.0
 40
10.00000000000113
 50
330.94300750282122
 51
342.999998516299
  0
ARC
  5
14166
  8
MSM_CONTINUOUS
 10
31.999999999999449
 20
12.52113518440121
 30
0.0
 40
1.64181834033411
 50
342.99999096306823
 51
355.22099409238882
  0
ARC
  5
14167
  8
MSM_CONTINUOUS
 10
45.593702757735983
 20
11.37638906431358
 30
0.0
 40
12.000000000000361
 50
168.1204951444399
 51
175.18165965309871
  0
ARC
  5
14168
  8
MSM_CONTINUOUS
 10
34.829293205614839
 20
13.64078456735869
 30
0.0
 40
1.0000000000000171
 50
95.697333803425948
 51
168.120485275904
  0
ARC
  5
14169
  8
MSM_CONTINUOUS
 10
32.000000000010502
 20
41.999999999933337
 30
0.0
 40
27.49999999990278
 50
275.69733380342359
 51
276.30266619657499
  0
ARC
  5
1416A
  8
MSM_CONTINUOUS
 10
35.128746070027177
 20
13.672258331670861
 30
0.0
 40
1.0000000000000111
 50
23.879513617765671
 51
96.302666196573696
  0
ARC
  5
1416B
  8
MSM_CONTINUOUS
 10
25.070358991023269
 20
9.2192987126189436
 30
0.0
 40
11.99999999999908
 50
16.818340346933098
 51
23.879504763366452
  0
ARC
  5
1416C
  8
MSM_CONTINUOUS
 10
38.129000627206082
 20
13.165319108266621
 30
0.0
 40
1.641818340334108
 50
196.7790059073771
 51
209.00000930234719
  0
ARC
  5
1416D
  8
MSM_CONTINUOUS
 10
45.439231022600403
 20
17.217445984638861
 30
0.0
 40
9.9999999999993943
 50
209.00000152727651
 51
221.05699249717989
  0
ARC
  5
1416E
  8
MSM_CONTINUOUS
 10
38.04947614040735
 20
10.780713678484391
 30
0.0
 40
0.1999999999999607
 50
221.0569924971781
 51
280.96650460731013
  0
ARC
  5
1416F
  8
MSM_CONTINUOUS
 10
31.99999999999768
 20
42.000000000041368
 30
0.0
 40
32.00000000001161
 50
280.96650460729751
 51
283.03349557093281
  0
ARC
  5
14170
  8
MSM_CONTINUOUS
 10
39.171556268461238
 20
11.019219172421799
 30
0.0
 40
0.20000000000001
 50
283.03352390957679
 51
342.9430075028219
  0
ARC
  5
14171
  8
MSM_CONTINUOUS
 10
29.802624372158188
 20
13.89378263883451
 30
0.0
 40
9.9999999999999698
 50
342.94300750282031
 51
354.99999862863632
  0
ARC
  5
14172
  8
MSM_CONTINUOUS
 10
38.129000627205762
 20
13.16531910826645
 30
0.0
 40
1.6418183403333571
 50
354.99999164728598
 51
7.2209940933900532
  0
ARC
  5
14173
  8
MSM_CONTINUOUS
 10
51.663654466158789
 20
14.871878162288329
 30
0.0
 40
12.000000000001149
 50
180.12049514443959
 51
187.1816596529612
  0
ARC
  5
14174
  8
MSM_CONTINUOUS
 10
40.663678791716379
 20
14.848744600068031
 30
0.0
 40
1.0000000000000011
 50
107.6973338034252
 51
180.1204852759042
  0
ARC
  5
14175
  8
MSM_CONTINUOUS
 10
32.000000000087439
 20
41.999999999760099
 30
0.0
 40
27.499999999716302
 50
287.69733380342279
 51
288.30266619657817
  0
ARC
  5
14176
  8
MSM_CONTINUOUS
 10
40.950044129019638
 20
14.941790338476229
 30
0.0
 40
1.0000000000000091
 50
35.879513617765767
 51
108.3026661965732
  0
ARC
  5
14177
  8
MSM_CONTINUOUS
 10
32.037279303980696
 20
8.4948823064410206
 30
0.0
 40
11.9999999999987
 50
28.818340346933301
 51
35.879504763366853
  0
ARC
  5
14178
  8
MSM_CONTINUOUS
 10
43.9901345167941
 20
15.069716951251859
 30
0.0
 40
1.641818340333417
 50
208.7790059073744
 51
221.00000930234941
  0
ARC
  5
14179
  8
MSM_CONTINUOUS
 10
50.298134288586461
 20
20.553177495018719
 30
0.0
 40
9.9999999999995879
 50
221.00000152727671
 51
233.05699249717989
  0
ARC
  5
1417A
  8
MSM_CONTINUOUS
 10
44.408135177672158
 20
12.720686800902319
 30
0.0
 40
0.2000000000000405
 50
233.05699249718799
 51
292.96650460729728
  0
ARC
  5
1417B
  8
MSM_CONTINUOUS
 10
31.999999999980439
 20
42.000000000074081
 30
0.0
 40
32.000000000048217
 50
292.96650460729882
 51
295.0334955575081
  0
ARC
  5
1417C
  8
MSM_CONTINUOUS
 10
45.456107082245261
 20
13.18727395421565
 30
0.0
 40
0.2000000000000354
 50
295.03352176182813
 51
354.943007502819
  0
ARC
  5
1417D
  8
MSM_CONTINUOUS
 10
35.694253475773053
 20
14.05111084032746
 30
0.0
 40
10.000000000000121
 50
354.94300750282048
 51
6.9999986286362823
  0
ARC
  5
1417E
  8
MSM_CONTINUOUS
 10
43.990134516794519
 20
15.06971695125209
 30
0.0
 40
1.641818340333228
 50
6.9999916472848991
 51
19.220994093389809
  0
ARC
  5
1417F
  8
MSM_CONTINUOUS
 10
56.874210117723997
 20
19.55299635974314
 30
0.0
 40
11.999999999998209
 50
192.12049519974661
 51
199.18165965296231
  0
ARC
  5
14180
  8
MSM_CONTINUOUS
 10
46.119420041676648
 20
17.24334477993413
 30
0.0
 40
1.0000000000000051
 50
119.6973338034261
 51
192.12048593959469
  0
ARC
  5
14181
  8
MSM_CONTINUOUS
 10
32.000000000308972
 20
41.999999999495707
 30
0.0
 40
27.499999999382819
 50
299.69733380341768
 51
300.30266619658062
  0
ARC
  5
14182
  8
MSM_CONTINUOUS
 10
46.380182312497318
 20
17.39389594718693
 30
0.0
 40
1.0000000000000071
 50
47.879503958418852
 51
120.3026661965728
  0
ARC
  5
14183
  8
MSM_CONTINUOUS
 10
39.002570332468061
 20
9.2348003188655081
 30
0.0
 40
11.999999999998421
 50
40.818340346963062
 51
47.87950395842131
  0
ARC
  5
14184
  8
MSM_CONTINUOUS
 10
49.327241992950299
 20
18.15109738930472
 30
0.0
 40
1.6418183403338
 50
220.77900590715669
 51
233.00000930234779
  0
ARC
  5
14185
  8
MSM_CONTINUOUS
 10
54.357321281971231
 20
24.826238062140149
 30
0.0
 40
9.9999999999999112
 50
233.00000152727699
 51
245.05699249717969
  0
ARC
  5
14186
  8
MSM_CONTINUOUS
 10
50.224499166834129
 20
15.94030640785472
 30
0.0
 40
0.2000000000000089
 50
245.0569924971835
 51
304.96650460729978
  0
ARC
  5
14187
  8
MSM_CONTINUOUS
 10
31.999999999988969
 20
42.000000000045162
 30
0.0
 40
32.000000000018737
 50
304.96650460729779
 51
307.03349555750918
  0
ARC
  5
14188
  8
MSM_CONTINUOUS
 10
51.152561446969557
 20
16.614583123010689
 30
0.0
 40
0.1999999999999951
 50
307.03352176182119
 51
6.9430075028219687
  0
ARC
  5
14189
  8
MSM_CONTINUOUS
 10
41.424425975501968
 20
15.42993961174929
 30
0.0
 40
9.9999999999999716
 50
6.9430075028203388
 51
18.99999862863638
  0
ARC
  5
1418A
  8
MSM_CONTINUOUS
 10
49.327241992949851
 20
18.151097389304368
 30
0.0
 40
1.6418183403338671
 50
18.999991647290631
 51
31.220994092390221
  0
ARC
  5
1418B
  8
MSM_CONTINUOUS
 10
60.997643427445063
 20
25.215156328952791
 30
0.0
 40
11.999999999998581
 50
204.12049525895279
 51
211.18165965309899
  0
ARC
  5
1418C
  8
MSM_CONTINUOUS
 10
50.958074883321281
 20
20.719929588530341
 30
0.0
 40
1.0000000000000191
 50
131.697333803427
 51
204.12048665007001
  0
ARC
  5
1418D
  8
MSM_CONTINUOUS
 10
31.99999999980124
 20
42.000000000251212
 30
0.0
 40
27.50000000029738
 50
311.69733380342802
 51
312.30266619657073
  0
ARC
  5
1418E
  8
MSM_CONTINUOUS
 10
51.181837525148282
 20
20.921406376194192
 30
0.0
 40
0.9999999999999756
 50
59.879503958417452
 51
132.30266619657479
  0
ARC
  5
1418F
  8
MSM_CONTINUOUS
 10
45.661815435364382
 20
11.40671478222656
 30
0.0
 40
12.00000000000089
 50
52.818340346933802
 51
59.879503958420479
  0
ARC
  5
14190
  8
MSM_CONTINUOUS
 10
53.907065848681981
 20
22.274789311177081
 30
0.0
 40
1.641818340333121
 50
232.7790059073738
 51
245.00000930235129
  0
ARC
  5
14191
  8
MSM_CONTINUOUS
 10
57.439386053003503
 20
29.84987443480026
 30
0.0
 40
10.00000000000019
 50
245.00000152727691
 51
257.05699263217281
  0
ARC
  5
14192
  8
MSM_CONTINUOUS
 10
55.244365091555949
 20
20.298859673068922
 30
0.0
 40
0.1999999999999712
 50
257.05699924684899
 51
316.96650460730638
  0
ARC
  5
14193
  8
MSM_CONTINUOUS
 10
31.999999999975419
 20
42.000000000052196
 30
0.0
 40
32.000000000033111
 50
316.96650460729819
 51
319.03349554281613
  0
ARC
  5
14194
  8
MSM_CONTINUOUS
 10
56.011956972274838
 20
21.151356822076568
 30
0.0
 40
0.1999999999999829
 50
319.03351941101619
 51
18.943007502826038
  0
ARC
  5
14195
  8
MSM_CONTINUOUS
 10
46.742705836689041
 20
17.970007519434841
 30
0.0
 40
9.99999999999884
 50
18.943007502819469
 51
30.999998628636909
  0
ARC
  5
14196
  8
MSM_CONTINUOUS
 10
53.907065848682507
 20
22.274789311177621
 30
0.0
 40
1.6418183403332041
 50
30.99999164728851
 51
43.220994092392722
  0
ARC
  5
14197
  8
MSM_CONTINUOUS
 10
63.85374057325658
 20
31.61089450920559
 30
0.0
 40
12.000000000000391
 50
216.1204953703724
 51
223.18165965309871
  0
ARC
  5
14198
  8
MSM_CONTINUOUS
 10
54.968170881628382
 20
25.126555587216171
 30
0.0
 40
1.0000000000000091
 50
143.69733380342541
 51
216.1204879870958
  0
ARC
  5
14199
  8
MSM_CONTINUOUS
 10
31.999999999887059
 20
42.000000000112003
 30
0.0
 40
27.500000000139561
 50
323.69733380342711
 51
324.30266619657311
  0
ARC
  5
1419A
  8
MSM_CONTINUOUS
 10
55.145154393281629
 20
25.370152492877182
 30
0.0
 40
1.0000000000000211
 50
71.87951361776625
 51
144.3026661965728
  0
ARC
  5
1419B
  8
MSM_CONTINUOUS
 10
51.723973647073322
 20
14.915702612477491
 30
0.0
 40
12.000000000000711
 50
64.818340346933951
 51
71.879504763366327
  0
ARC
  5
1419C
  8
MSM_CONTINUOUS
 10
57.529445805062061
 20
27.260567592216031
 30
0.0
 40
1.6418183403340481
 50
244.77900590737551
 51
257.0000093023462
  0
ARC
  5
1419D
  8
MSM_CONTINUOUS
 10
59.409627581801573
 20
35.404529597433303
 30
0.0
 40
10.00000000000175
 50
257.00000152727802
 51
269.05699263217201
  0
ARC
  5
1419E
  8
MSM_CONTINUOUS
 10
59.248340722937989
 20
25.60585690419612
 30
0.0
 40
0.2000000000000146
 50
269.05699924685553
 51
328.96650460729637
  0
ARC
  5
1419F
  8
MSM_CONTINUOUS
 10
32.000000000019391
 20
42.000000000018723
 30
0.0
 40
31.999999999977561
 50
328.9665046072966
 51
331.03349554281817
  0
ARC
  5
141A0
  8
MSM_CONTINUOUS
 10
59.821914755738447
 20
26.599316270908592
 30
0.0
 40
0.1999999999999791
 50
331.03351941101528
 51
30.943007502822741
  0
ARC
  5
141A1
  8
MSM_CONTINUOUS
 10
51.41665870945878
 20
21.560301407218191
 30
0.0
 40
10.00000000000068
 50
30.943007502820731
 51
42.99999851629908
  0
ARC
  5
141A2
  8
MSM_CONTINUOUS
 10
57.529445805061968
 20
27.260567592215718
 30
0.0
 40
1.641818340333369
 50
42.999990963064221
 51
55.220994093390701
  0
ARC
  5
141A3
  8
MSM_CONTINUOUS
 10
65.317676404809134
 20
38.460686451865428
 30
0.0
 40
12.000000000000011
 50
228.1204954463139
 51
235.1816596529618
  0
ARC
  5
141A4
  8
MSM_CONTINUOUS
 10
57.97444759889644
 20
30.2706320745115
 30
0.0
 40
0.9999999999999896
 50
155.6973338034241
 51
228.1204888983977
  0
ARC
  5
141A5
  8
MSM_CONTINUOUS
 10
32.000000000130917
 20
41.999999999971152
 30
0.0
 40
27.49999999985646
 50
335.69733380342512
 51
336.30266619657732
  0
ARC
  5
141A6
  8
MSM_CONTINUOUS
 10
58.096916951655558
 20
30.545702744484711
 30
0.0
 40
1.0000000000000011
 50
83.879503958419221
 51
156.30266619657351
  0
ARC
  5
141A7
  8
MSM_CONTINUOUS
 10
56.924099564278983
 20
19.608404203444682
 30
0.0
 40
11.999999999998581
 50
76.818340346933127
 51
83.879503958421296
  0
ARC
  5
141A8
  8
MSM_CONTINUOUS
 10
60.03606647588775
 20
32.890529797118731
 30
0.0
 40
1.6418183403332991
 50
256.77900590737357
 51
269.00000930234933
  0
ARC
  5
141A9
  8
MSM_CONTINUOUS
 10
60.181936859288882
 20
41.24743846523495
 30
0.0
 40
10.00000000000003
 50
269.00000152727688
 51
281.0569926922206
  0
ARC
  5
141AA
  8
MSM_CONTINUOUS
 10
62.061433112682181
 20
31.629356856437841
 30
0.0
 40
0.1999999999999983
 50
281.05700224923129
 51
340.96650460729512
  0
ARC
  5
141AB
  8
MSM_CONTINUOUS
 10
32.000000000029438
 20
42.000000000020393
 30
0.0
 40
31.999999999969031
 50
340.96650460729637
 51
343.03349554281829
  0
ARC
  5
141AC
  8
MSM_CONTINUOUS
 10
62.415921360017173
 20
32.72035949938288
 30
0.0
 40
0.2000000000000215
 50
343.03351941101749
 51
42.943007502816108
  0
ARC
  5
141AD
  8
MSM_CONTINUOUS
 10
55.242010425161361
 20
26.04390820406417
 30
0.0
 40
10.00000000000035
 50
42.94300750282067
 51
54.999998449042927
  0
ARC
  5
141AE
  8
MSM_CONTINUOUS
 10
60.036066475887857
 20
32.890529797119129
 30
0.0
 40
1.641818340333379
 50
54.999990553419771
 51
67.220994093392108
  0
ARC
  5
141AF
  8
MSM_CONTINUOUS
 10
65.325469901522823
 20
45.465163380091639
 30
0.0
 40
12.00000000000073
 50
240.1204955334824
 51
247.18165965296151
  0
ARC
  5
141B0
  8
MSM_CONTINUOUS
 10
59.845516316864639
 20
35.92733822390386
 30
0.0
 40
0.9999999999999786
 50
167.6973338034249
 51
240.1204899444175
  0
ARC
  5
141B1
  8
MSM_CONTINUOUS
 10
32.000000000391459
 20
41.99999999994629
 30
0.0
 40
27.499999999599691
 50
347.69733380342188
 51
348.30266619657988
  0
ARC
  5
141B2
  8
MSM_CONTINUOUS
 10
59.908119012340897
 20
36.221860749975903
 30
0.0
 40
1.0000000000000111
 50
95.879513617765909
 51
168.3026661965732
  0
ARC
  5
141B3
  8
MSM_CONTINUOUS
 10
61.034922731425858
 20
25.279725977518851
 30
0.0
 40
11.99999999999806
 50
88.818340346927812
 51
95.879504763367123
  0
ARC
  5
141B4
  8
MSM_CONTINUOUS
 10
61.317376509744349
 20
38.918619561977252
 30
0.0
 40
1.641818340333383
 50
268.77900590741319
 51
281.00000930234961
  0
ARC
  5
141B5
  8
MSM_CONTINUOUS
 10
59.722560264088649
 20
47.123237883299907
 30
0.0
 40
10.00000000000019
 50
281.00000152727682
 51
293.05699269222032
  0
ARC
  5
141B6
  8
MSM_CONTINUOUS
 10
63.560696624641679
 20
38.10610367792156
 30
0.0
 40
0.2000000000000071
 50
293.05700224923618
 51
352.96650460729819
  0
ARC
  5
141B7
  8
MSM_CONTINUOUS
 10
32.000000000034049
 20
42.000000000026553
 30
0.0
 40
31.99999999996577
 50
352.96650460729592
 51
355.03349552668828
  0
ARC
  5
141B8
  8
MSM_CONTINUOUS
 10
63.680606249079432
 20
39.246967546390941
 30
0.0
 40
0.1999999999999982
 50
355.0335168302251
 51
54.943007502823811
  0
ARC
  5
141B9
  8
MSM_CONTINUOUS
 10
58.051574757744092
 20
31.224872778216621
 30
0.0
 40
10.00000000000076
 50
54.943007502820727
 51
66.99999851629893
  0
ARC
  5
141BA
  8
MSM_CONTINUOUS
 10
61.31737650974442
 20
38.918619561977707
 30
0.0
 40
1.6418183403332449
 50
66.999990963065045
 51
79.220994093392548
  0
ARC
  5
141BB
  8
MSM_CONTINUOUS
 10
63.876780450192491
 20
52.318196040908617
 30
0.0
 40
11.999999999999419
 50
252.1204954463135
 51
259.18165965296168
  0
ARC
  5
141BC
  8
MSM_CONTINUOUS
 10
60.49960235417398
 20
41.849448832777178
 30
0.0
 40
1.0000000000000011
 50
179.69733380337669
 51
252.12048889839701
  0
ARC
  5
141BD
  8
MSM_CONTINUOUS
 10
32.000000000147011
 20
42.00000000002975
 30
0.0
 40
27.499999999852982
 50
359.69733380342609
 51
0.3026661965762147
  0
ARC
  5
141BE
  8
MSM_CONTINUOUS
 10
60.49960235417398
 20
42.150551167282799
 30
0.0
 40
1.0000000000000011
 50
107.87950395841931
 51
180.30266619657269
  0
ARC
  5
141BF
  8
MSM_CONTINUOUS
 10
63.87678045019279
 20
31.681803959150301
 30
0.0
 40
12.000000000000529
 50
100.81834034693379
 51
107.8795039584208
  0
ARC
  5
141C0
  8
MSM_CONTINUOUS
 10
61.317376509744292
 20
45.081380438082711
 30
0.0
 40
1.641818340333679
 50
280.77900590737482
 51
293.00000930234808
  0
ARC
  5
141C1
  8
MSM_CONTINUOUS
 10
58.051574757744127
 20
52.775127221843327
 30
0.0
 40
10.000000000000689
 50
293.00000152727728
 51
305.05699263217258
  0
ARC
  5
141C2
  8
MSM_CONTINUOUS
 10
63.680606249079439
 20
44.753032453669029
 30
0.0
 40
0.1999999999999666
 50
305.05699924684768
 51
4.9665046073079813
  0
ARC
  5
141C3
  8
MSM_CONTINUOUS
 10
32.000000000063231
 20
42.000000000036707
 30
0.0
 40
31.999999999936421
 50
4.966504607294933
 51
7.0334955081379853
  0
ARC
  5
141C4
  8
MSM_CONTINUOUS
 10
63.560696624641707
 20
45.893896322138417
 30
0.0
 40
0.2000000000000005
 50
7.033513862038772
 51
66.943007502821644
  0
ARC
  5
141C5
  8
MSM_CONTINUOUS
 10
59.722560264088571
 20
36.876762116760013
 30
0.0
 40
10.00000000000029
 50
66.943007502820464
 51
78.9999985162992
  0
ARC
  5
141C6
  8
MSM_CONTINUOUS
 10
61.317376509744328
 20
45.081380438082881
 30
0.0
 40
1.641818340333262
 50
78.999990963064249
 51
91.220994093391724
  0
ARC
  5
141C7
  8
MSM_CONTINUOUS
 10
61.034922731425837
 20
58.720274022542043
 30
0.0
 40
11.999999999998961
 50
264.12049537037183
 51
271.18165965296203
  0
ARC
  5
141C8
  8
MSM_CONTINUOUS
 10
59.908119012340897
 20
47.778139250084081
 30
0.0
 40
0.9999999999999992
 50
191.6973338034268
 51
264.12048798709583
  0
ARC
  5
141C9
  8
MSM_CONTINUOUS
 10
32.000000000108898
 20
42.000000000053241
 30
0.0
 40
27.49999999988864
 50
11.697333803423961
 51
12.30266619657565
  0
ARC
  5
141CA
  8
MSM_CONTINUOUS
 10
59.845516316864661
 20
48.072661776156117
 30
0.0
 40
0.9999999999999953
 50
119.87950395841931
 51
192.30266619657351
  0
ARC
  5
141CB
  8
MSM_CONTINUOUS
 10
65.325469901521686
 20
38.534836619970712
 30
0.0
 40
11.999999999998121
 50
112.8183403469482
 51
119.87950395842159
  0
ARC
  5
141CC
  8
MSM_CONTINUOUS
 10
60.036066475887921
 20
51.109470202940678
 30
0.0
 40
1.6418183403331661
 50
292.779005907265
 51
305.000005883325
  0
ARC
  5
141CD
  8
MSM_CONTINUOUS
 10
55.24201042516215
 20
57.956091795994887
 30
0.0
 40
9.9999999999991296
 50
305.00000096593419
 51
317.05699269222112
  0
ARC
  5
141CE
  8
MSM_CONTINUOUS
 10
62.41592136001718
 20
51.279640500677111
 30
0.0
 40
0.1999999999999995
 50
317.0570022492326
 51
16.966504607301591
  0
ARC
  5
141CF
  8
MSM_CONTINUOUS
 10
32.000000000066549
 20
42.000000000051656
 30
0.0
 40
31.999999999930012
 50
16.966504607294901
 51
19.033495508138301
  0
ARC
  5
141D0
  8
MSM_CONTINUOUS
 10
62.061433112682167
 20
52.370643143622139
 30
0.0
 40
0.2000000000000145
 50
19.033513862038479
 51
78.943007502818503
  0
ARC
  5
141D1
  8
MSM_CONTINUOUS
 10
60.181936859288868
 20
42.752561534825119
 30
0.0
 40
9.9999999999999645
 50
78.943007502820265
 51
90.999998628636263
  0
ARC
  5
141D2
  8
MSM_CONTINUOUS
 10
60.03606647588775
 20
51.109470202941139
 30
0.0
 40
1.6418183403334361
 50
90.999991647288169
 51
103.2209940933915
  0
ARC
  5
141D3
  8
MSM_CONTINUOUS
 10
56.924099564278592
 20
64.39159579661731
 30
0.0
 40
12.000000000000631
 50
276.12049544631418
 51
283.18165965296163
  0
ARC
  5
141D4
  8
MSM_CONTINUOUS
 10
58.096916951655572
 20
53.454297255575291
 30
0.0
 40
1.0000000000000091
 50
203.6973338034249
 51
276.12048889839622
  0
ARC
  5
141D5
  8
MSM_CONTINUOUS
 10
31.999999999988809
 20
42.000000000024102
 30
0.0
 40
27.500000000012609
 50
23.69733380342733
 51
24.302666196576169
  0
ARC
  5
141D6
  8
MSM_CONTINUOUS
 10
57.974447598896447
 20
53.729367925548488
 30
0.0
 40
1.0000000000000071
 50
131.87951361776621
 51
204.30266619657371
  0
ARC
  5
141D7
  8
MSM_CONTINUOUS
 10
65.317676404810854
 20
45.539313548192467
 30
0.0
 40
12.000000000002711
 50
124.8183403469644
 51
131.8795047633657
  0
ARC
  5
141D8
  8
MSM_CONTINUOUS
 10
57.529445805061847
 20
56.739432407844419
 30
0.0
 40
1.641818340333546
 50
304.77900590715649
 51
317.00000588332239
  0
ARC
  5
141D9
  8
MSM_CONTINUOUS
 10
51.416658709459689
 20
62.439698592841097
 30
0.0
 40
9.9999999999995275
 50
317.00000096593448
 51
329.05699249717981
  0
ARC
  5
141DA
  8
MSM_CONTINUOUS
 10
59.821914755738433
 20
57.400683729151403
 30
0.0
 40
0.1999999999999829
 50
329.0569924971727
 51
28.966504607300269
  0
ARC
  5
141DB
  8
MSM_CONTINUOUS
 10
31.999999999952539
 20
42.000000000002579
 30
0.0
 40
32.00000000005479
 50
28.966504607299019
 51
31.03349527726774
  0
ARC
  5
141DC
  8
MSM_CONTINUOUS
 10
59.248340722937989
 20
58.394143095863889
 30
0.0
 40
0.2000000000000039
 50
31.033476923375471
 51
90.943007502821246
  0
ARC
  5
141DD
  8
MSM_CONTINUOUS
 10
59.40962758180131
 20
48.595470402628919
 30
0.0
 40
9.999999999999531
 50
90.943007502820123
 51
102.9999987164969
  0
ARC
  5
141DE
  8
MSM_CONTINUOUS
 10
57.529445805062153
 20
56.739432407843488
 30
0.0
 40
1.6418183403345401
 50
102.9999921824313
 51
115.2209940933858
  0
ARC
  5
141DF
  8
MSM_CONTINUOUS
 10
51.723973647073493
 20
69.084297387581898
 30
0.0
 40
12.000000000000099
 50
288.12049537037223
 51
295.1816596529618
  0
ARC
  5
141E0
  8
MSM_CONTINUOUS
 10
55.145154393281608
 20
58.62984750718276
 30
0.0
 40
0.9999999999999847
 50
215.69733380342529
 51
288.1204879870964
  0
ARC
  5
141E1
  8
MSM_CONTINUOUS
 10
31.999999999839901
 20
41.99999999991379
 30
0.0
 40
27.500000000197819
 50
35.697333803427398
 51
36.302666196572233
  0
ARC
  5
141E2
  8
MSM_CONTINUOUS
 10
54.96817088162836
 20
58.873444412843817
 30
0.0
 40
0.9999999999999921
 50
143.8795039584198
 51
216.30266619657411
  0
ARC
  5
141E3
  8
MSM_CONTINUOUS
 10
63.853740573254669
 20
52.389105490856039
 30
0.0
 40
11.99999999999789
 50
136.81834034696291
 51
143.87950395842151
  0
ARC
  5
141E4
  8
MSM_CONTINUOUS
 10
53.907065848681967
 20
61.725210688882697
 30
0.0
 40
1.6418183403338169
 50
316.77900590715768
 51
329.00000588332188
  0
ARC
  5
141E5
  8
MSM_CONTINUOUS
 10
46.742705836687598
 20
66.029992480625836
 30
0.0
 40
10.000000000000419
 50
329.00000096593499
 51
341.05699263217292
  0
ARC
  5
141E6
  8
MSM_CONTINUOUS
 10
56.011956972274803
 20
62.848643177983391
 30
0.0
 40
0.2000000000000066
 50
341.05699924685263
 51
40.966504607296763
  0
ARC
  5
141E7
  8
MSM_CONTINUOUS
 10
31.999999999989811
 20
42.000000000020847
 30
0.0
 40
32.000000000013678
 50
40.966504607297622
 51
43.033495299440013
  0
ARC
  5
141E8
  8
MSM_CONTINUOUS
 10
55.244365091555927
 20
63.701140326991037
 30
0.0
 40
0.2000000000000175
 50
43.033480470740621
 51
102.9430075028215
  0
ARC
  5
141E9
  8
MSM_CONTINUOUS
 10
57.439386053003808
 20
54.150125565258833
 30
0.0
 40
10.000000000001149
 50
102.9430075028212
 51
114.9999985162988
  0
ARC
  5
141EA
  8
MSM_CONTINUOUS
 10
53.907065848682301
 20
61.725210688882399
 30
0.0
 40
1.6418183403337221
 50
114.9999909630673
 51
127.2209940933905
  0
ARC
  5
141EB
  8
MSM_CONTINUOUS
 10
45.661815435365277
 20
72.593285217832118
 30
0.0
 40
11.999999999999311
 50
300.12049544631361
 51
307.18165965296168
  0
ARC
  5
141EC
  8
MSM_CONTINUOUS
 10
51.181837525148183
 20
63.078593623865757
 30
0.0
 40
0.9999999999999898
 50
227.6973064826702
 51
300.12048889840429
  0
ARC
  5
141ED
  8
MSM_CONTINUOUS
 10
32.000000000181878
 20
42.000000000231999
 30
0.0
 40
27.499999999728178
 50
47.697334796904492
 51
48.302666196577583
  0
ARC
  5
141EE
  8
MSM_CONTINUOUS
 10
50.958074883321231
 20
63.28007041152965
 30
0.0
 40
0.9999999999999872
 50
155.87950395841941
 51
228.30266619657399
  0
ARC
  5
141EF
  8
MSM_CONTINUOUS
 10
60.997643427444878
 20
58.784843671107332
 30
0.0
 40
11.999999999998391
 50
148.8183403469481
 51
155.87950395842151
  0
ARC
  5
141F0
  8
MSM_CONTINUOUS
 10
49.327241992950157
 20
65.848902610755417
 30
0.0
 40
1.6418183403334841
 50
328.7790059072654
 51
341.00000588332227
  0
ARC
  5
141F1
  8
MSM_CONTINUOUS
 10
41.424425975502672
 20
68.570060388310523
 30
0.0
 40
9.9999999999992522
 50
341.0000009659343
 51
353.05699263217332
  0
ARC
  5
141F2
  8
MSM_CONTINUOUS
 10
51.152561446969507
 20
67.385416877049281
 30
0.0
 40
0.2000000000000211
 50
353.05699924685092
 51
52.966504607298234
  0
ARC
  5
141F3
  8
MSM_CONTINUOUS
 10
32.00000000001269
 20
42.000000000047258
 30
0.0
 40
31.99999999997857
 50
52.966504607296791
 51
55.033495299441441
  0
ARC
  5
141F4
  8
MSM_CONTINUOUS
 10
50.224499166834121
 20
68.059693592205321
 30
0.0
 40
0.1999999999999815
 50
55.033480470733117
 51
114.9430075028254
  0
ARC
  5
141F5
  8
MSM_CONTINUOUS
 10
54.35732128197116
 20
59.173761937920027
 30
0.0
 40
9.9999999999997211
 50
114.94300750282019
 51
126.9999986286367
  0
ARC
  5
141F6
  8
MSM_CONTINUOUS
 10
49.327241992949517
 20
65.848902610756085
 30
0.0
 40
1.641818340332698
 50
126.9999916472851
 51
139.2209940933941
  0
ARC
  5
141F7
  8
MSM_CONTINUOUS
 10
39.002570332467208
 20
74.76519968119527
 30
0.0
 40
11.999999999999581
 50
312.12049560299442
 51
319.18165965296168
  0
ARC
  5
141F8
  8
MSM_CONTINUOUS
 10
46.380182312497233
 20
66.606104052872951
 30
0.0
 40
0.9999999999999957
 50
239.6973611241842
 51
312.12049077857301
  0
ARC
  5
141F9
  8
MSM_CONTINUOUS
 10
32.000000000010928
 20
42.00000000004993
 30
0.0
 40
27.499999999977259
 50
59.697332809942118
 51
60.302666196573838
  0
ARC
  5
141FA
  8
MSM_CONTINUOUS
 10
46.119420041676612
 20
66.756655220125865
 30
0.0
 40
0.9999999999999893
 50
167.8795136177655
 51
240.3026661965751
  0
ARC
  5
141FB
  8
MSM_CONTINUOUS
 10
56.874210117727749
 20
64.447003640315813
 30
0.0
 40
12.00000000000211
 50
160.81834034698451
 51
167.8795047633657
  0
ARC
  5
141FC
  8
MSM_CONTINUOUS
 10
43.990134516794249
 20
68.930283048808022
 30
0.0
 40
1.6418183403334921
 50
340.77900590700727
 51
353.00000588332182
  0
ARC
  5
141FD
  8
MSM_CONTINUOUS
 10
35.694253475773017
 20
69.948889159732474
 30
0.0
 40
10.000000000000149
 50
353.00000096593482
 51
5.0569926321730536
  0
ARC
  5
141FE
  8
MSM_CONTINUOUS
 10
45.456107082245261
 20
70.812726045844329
 30
0.0
 40
0.200000000000017
 50
5.0569992468549776
 51
64.966504607291256
  0
ARC
  5
141FF
  8
MSM_CONTINUOUS
 10
31.999999999998892
 20
42.000000000027647
 30
0.0
 40
32.000000000002579
 50
64.966504607297182
 51
67.033495392702605
  0
ARC
  5
14200
  8
MSM_CONTINUOUS
 10
44.408135177672129
 20
71.279313199157713
 30
0.0
 40
0.2000000000000106
 50
67.033495392703216
 51
126.9430075028187
  0
ARC
  5
14201
  8
MSM_CONTINUOUS
 10
50.298134288586439
 20
63.446822505041268
 30
0.0
 40
9.9999999999995985
 50
126.94300750282
 51
138.99999871649689
  0
ARC
  5
14202
  8
MSM_CONTINUOUS
 10
43.99013451679415
 20
68.93028304880805
 30
0.0
 40
1.64181834033352
 50
138.99999218242809
 51
151.22099409339069
  0
ARC
  5
14203
  8
MSM_CONTINUOUS
 10
32.037279303979432
 20
75.505117693619752
 30
0.0
 40
12.00000000000019
 50
324.12049537037211
 51
331.18165965296163
  0
ARC
  5
14204
  8
MSM_CONTINUOUS
 10
40.950044129019638
 20
69.058209661583774
 30
0.0
 40
1.0000000000000191
 50
251.6973338034266
 51
324.12048798709429
  0
ARC
  5
14205
  8
MSM_CONTINUOUS
 10
32.000000000157378
 20
42.000000000515897
 30
0.0
 40
27.499999999489251
 50
71.6973338034188
 51
72.302666196579253
  0
ARC
  5
14206
  8
MSM_CONTINUOUS
 10
40.663678791716393
 20
69.151255399991982
 30
0.0
 40
1.0000000000000091
 50
179.87950395838169
 51
252.3026661965732
  0
ARC
  5
14207
  8
MSM_CONTINUOUS
 10
51.663654466156821
 20
69.128121837771772
 30
0.0
 40
11.99999999999921
 50
172.81834034699969
 51
179.87950395841739
  0
ARC
  5
14208
  8
MSM_CONTINUOUS
 10
38.129000627205038
 20
70.834680891793568
 30
0.0
 40
1.6418183403340461
 50
352.77900590689251
 51
5.0000058833206538
  0
ARC
  5
14209
  8
MSM_CONTINUOUS
 10
29.80262437215795
 20
70.106217361225418
 30
0.0
 40
10.000000000000201
 50
5.0000009659349747
 51
17.056992692220511
  0
ARC
  5
1420A
  8
MSM_CONTINUOUS
 10
39.171556268461281
 20
72.980780827638199
 30
0.0
 40
0.1999999999999567
 50
17.057002249222609
 51
76.966504607302284
  0
ARC
  5
1420B
  8
MSM_CONTINUOUS
 10
32.000000000019902
 20
42.00000000012372
 30
0.0
 40
31.999999999904201
 50
76.96650460729407
 51
79.033495392705873
  0
ARC
  5
1420C
  8
MSM_CONTINUOUS
 10
38.049476140407357
 20
73.219286321575552
 30
0.0
 40
0.2000000000000079
 50
79.033495392705589
 51
138.9430075028188
  0
ARC
  5
1420D
  8
MSM_CONTINUOUS
 10
45.439231022600467
 20
66.782554015420999
 30
0.0
 40
9.9999999999995346
 50
138.94300750281991
 51
150.99999889998969
  0
ARC
  5
1420E
  8
MSM_CONTINUOUS
 10
38.12900062720508
 20
70.834680891793752
 30
0.0
 40
1.6418183403330551
 50
150.9999933000463
 51
163.2209940933929
  0
ARC
  5
1420F
  8
MSM_CONTINUOUS
 10
25.070358991023969
 20
74.78070128744082
 30
0.0
 40
11.99999999999835
 50
336.12049553348152
 51
343.18165965296203
  0
ARC
  5
14210
  8
MSM_CONTINUOUS
 10
35.128746070027191
 20
70.327741668389095
 30
0.0
 40
0.9999999999999831
 50
263.69733380342501
 51
336.12048994441682
  0
ARC
  5
14211
  8
MSM_CONTINUOUS
 10
32.000000000016378
 20
42.000000000185644
 30
0.0
 40
27.499999999843499
 50
83.697333803423774
 51
84.302666196576382
  0
ARC
  5
14212
  8
MSM_CONTINUOUS
 10
34.829293205614817
 20
70.359215432701305
 30
0.0
 40
1.0000000000000071
 50
191.879503958421
 51
264.30266619657402
  0
ARC
  5
14213
  8
MSM_CONTINUOUS
 10
45.593702757735123
 20
72.623610935746314
 30
0.0
 40
11.999999999999529
 50
184.81834034700501
 51
191.8795039584208
  0
ARC
  5
14214
  8
MSM_CONTINUOUS
 10
31.999999999999829
 20
71.47886481565881
 30
0.0
 40
1.6418183403337161
 50
4.7790059068520767
 51
17.000005883321609
  0
ARC
  5
14215
  8
MSM_CONTINUOUS
 10
24.007031127658301
 20
69.035168995439975
 30
0.0
 40
9.9999999999996252
 50
17.000000965934522
 51
29.05699263217334
  0
CIRCLE
  5
1421B
  8
MSM_CENTER
 10
31.999999999999989
 20
42.000000000029992
 30
0.0
 40
30.0
  0
LINE
  5
14282
  8
MSM_CENTER
 10
-2.0000000000000102
 20
42.000000000029992
 30
0.0
 11
65.999999999999986
 21
42.000000000029992
 31
0.0
  0
LINE
  5
14283
  8
MSM_CENTER
 10
31.999999999999989
 20
8.000000000029992
 30
0.0
 11
31.999999999999989
 21
76.000000000029985
 31
0.0
  0
INSERT
  5
1483F
  8
MSM_CONTINUOUS
  2
*U8
 10
0.0
 20
0.0
 30
0.0
  0
INSERT
  5
14841
  8
MSM_CONTINUOUS
  2
*U9
 10
0.0
 20
0.0
 30
0.0
  0
LINE
  5
14842
  8
MSM_CENTER
 10
121.7499999999784
 20
125.00000000006131
 30
0.0
 11
166.69999999997839
 21
125.00000000006131
 31
0.0
  0
LINE
  5
14843
  8
MSM_CONTINUOUS
 10
130.9999999999784
 20
114.00000000006131
 30
0.0
 11
130.9999999999784
 21
93.500000000061235
 31
0.0
  0
LINE
  5
14844
  8
MSM_CONTINUOUS
 10
164.9999999999784
 20
101.3000000000613
 30
0.0
 11
164.9999999999784
 21
148.70000000006129
 31
0.0
  0
LINE
  5
14845
  8
MSM_CONTINUOUS
 10
150.9999999999784
 20
93.500000000061206
 30
0.0
 11
150.9999999999784
 21
101.00000000006131
 31
0.0
  0
LINE
  5
14846
  8
MSM_CONTINUOUS
 10
130.9999999999784
 20
156.50000000006139
 30
0.0
 11
130.9999999999784
 21
136.00000000006131
 31
0.0
  0
LINE
  5
14847
  8
MSM_CONTINUOUS
 10
150.9999999999784
 20
149.00000000006131
 30
0.0
 11
150.9999999999784
 21
156.5000000000615
 31
0.0
  0
LINE
  5
14848
  8
MSM_CONTINUOUS
 10
150.86602540376279
 20
157.00000000006131
 30
0.0
 11
131.1339745962031
 21
157.0000000000955
 31
0.0
  0
LINE
  5
14849
  8
MSM_CONTINUOUS
 10
164.69999999997839
 20
121.00000000006131
 30
0.0
 11
164.9999999999784
 21
120.70000000006129
 31
0.0
  0
LINE
  5
1484A
  8
MSM_CONTINUOUS
 10
164.9999999999784
 20
129.30000000006129
 30
0.0
 11
164.69999999997839
 21
129.00000000006131
 31
0.0
  0
LINE
  5
1484B
  8
MSM_CONTINUOUS
 10
125.499999999983
 20
121.00000000006131
 30
0.0
 11
164.69999999997839
 21
121.00000000006131
 31
0.0
  0
LINE
  5
1484C
  8
MSM_CONTINUOUS
 10
164.69999999997839
 20
121.00000000006131
 30
0.0
 11
164.69999999997839
 21
129.00000000006131
 31
0.0
  0
LINE
  5
1484D
  8
MSM_CONTINUOUS
 10
164.69999999997839
 20
129.00000000006131
 30
0.0
 11
125.499999999983
 21
129.00000000006131
 31
0.0
  0
LINE
  5
1484E
  8
MSM_CONTINUOUS
 10
164.9999999999784
 20
148.70000000006129
 30
0.0
 11
164.69999999997839
 21
149.00000000006131
 31
0.0
  0
LINE
  5
1484F
  8
MSM_CONTINUOUS
 10
164.69999999997839
 20
101.00000000006131
 30
0.0
 11
164.9999999999784
 21
101.3000000000613
 31
0.0
  0
LINE
  5
14850
  8
MSM_CONTINUOUS
 10
150.9999999999784
 20
101.00000000006131
 30
0.0
 11
164.69999999997839
 21
101.00000000006131
 31
0.0
  0
LINE
  5
14851
  8
MSM_CONTINUOUS
 10
164.69999999997839
 20
149.00000000006131
 30
0.0
 11
150.9999999999784
 21
149.00000000006131
 31
0.0
  0
LINE
  5
14852
  8
MSM_CONTINUOUS
 10
150.9999999999784
 20
156.5000000000615
 30
0.0
 11
150.86602540376279
 21
157.00000000006131
 31
0.0
  0
LINE
  5
14853
  8
MSM_CONTINUOUS
 10
131.1339745962031
 20
157.0000000000955
 30
0.0
 11
130.9999999999784
 21
156.50000000006139
 31
0.0
  0
LINE
  5
14854
  8
MSM_CENTER
 10
153.01097164131701
 20
155.00000000006131
 30
0.0
 11
129.01097164131701
 21
155.00000000006131
 31
0.0
  0
LINE
  5
14855
  8
MSM_CONTINUOUS
 10
151.01097164131701
 20
152.45905327717551
 30
0.0
 11
131.01097164131701
 21
152.45905327717551
 31
0.0
  0
LINE
  5
14856
  8
MSM_CONTINUOUS
 10
150.86602540376279
 20
93.000000000061334
 30
0.0
 11
131.1339745962031
 21
93.000000000027185
 31
0.0
  0
LINE
  5
14857
  8
MSM_CONTINUOUS
 10
150.9999999999784
 20
93.500000000061206
 30
0.0
 11
150.86602540376279
 21
93.000000000061334
 31
0.0
  0
LINE
  5
14858
  8
MSM_CONTINUOUS
 10
131.1339745962031
 20
93.000000000027185
 30
0.0
 11
130.9999999999784
 21
93.500000000061235
 31
0.0
  0
LINE
  5
14859
  8
MSM_CENTER
 10
153.01097164131701
 20
95.000000000061334
 30
0.0
 11
129.01097164131701
 21
95.000000000061334
 31
0.0
  0
LINE
  5
1485A
  8
MSM_CONTINUOUS
 10
151.01097164131701
 20
97.540946722947169
 30
0.0
 11
131.01097164131701
 21
97.540946722947169
 31
0.0
  0
LINE
  5
1485B
  8
MSM_NARROW
 10
137.499999999983
 20
114.00000000006131
 30
0.0
 11
137.499999999983
 21
117.00000000006131
 31
0.0
  0
LINE
  5
1485C
  8
MSM_NARROW
 10
137.499999999983
 20
133.00000000006131
 30
0.0
 11
137.499999999983
 21
136.00000000006131
 31
0.0
  0
LINE
  5
1485D
  8
MSM_CONTINUOUS
 10
129.499999999983
 20
136.00000000006131
 30
0.0
 11
129.499999999983
 21
137.75000000006131
 31
0.0
  0
LINE
  5
1485E
  8
MSM_CONTINUOUS
 10
129.499999999983
 20
130.00000000006131
 30
0.0
 11
129.499999999983
 21
133.00000000006131
 31
0.0
  0
LINE
  5
1485F
  8
MSM_CONTINUOUS
 10
129.499999999983
 20
112.25000000006131
 30
0.0
 11
129.499999999983
 21
114.00000000006131
 31
0.0
  0
LINE
  5
14860
  8
MSM_CONTINUOUS
 10
129.499999999983
 20
117.00000000006131
 30
0.0
 11
129.499999999983
 21
120.00000000006131
 31
0.0
  0
LINE
  5
14861
  8
MSM_CONTINUOUS
 10
129.499999999983
 20
120.00000000006131
 30
0.0
 11
140.999999999983
 21
120.50000000006131
 31
0.0
  0
LINE
  5
14862
  8
MSM_CONTINUOUS
 10
125.499999999983
 20
137.75000000006131
 30
0.0
 11
125.499999999983
 21
112.25000000006131
 31
0.0
  0
LINE
  5
14863
  8
MSM_CONTINUOUS
 10
129.499999999983
 20
137.75000000006131
 30
0.0
 11
125.499999999983
 21
137.75000000006131
 31
0.0
  0
LINE
  5
14864
  8
MSM_CONTINUOUS
 10
125.499999999983
 20
112.25000000006131
 30
0.0
 11
129.499999999983
 21
112.25000000006131
 31
0.0
  0
LINE
  5
14865
  8
MSM_CONTINUOUS
 10
138.499999999983
 20
133.2705000000613
 30
0.0
 11
138.499999999983
 21
135.72950000006131
 31
0.0
  0
LINE
  5
14866
  8
MSM_CONTINUOUS
 10
130.999999999983
 20
129.93478260875699
 30
0.0
 11
130.999999999983
 21
133.00000000006131
 31
0.0
  0
LINE
  5
14867
  8
MSM_CONTINUOUS
 10
137.499999999983
 20
135.72950000006131
 30
0.0
 11
138.499999999983
 21
135.72950000006131
 31
0.0
  0
LINE
  5
14868
  8
MSM_CONTINUOUS
 10
138.499999999983
 20
135.72950000006131
 30
0.0
 11
139.20985215595161
 21
134.50000000006131
 31
0.0
  0
LINE
  5
14869
  8
MSM_CONTINUOUS
 10
139.20985215595161
 20
134.50000000006131
 30
0.0
 11
138.499999999983
 21
133.2705000000613
 31
0.0
  0
LINE
  5
1486A
  8
MSM_CONTINUOUS
 10
138.499999999983
 20
133.2705000000613
 30
0.0
 11
137.499999999983
 21
133.2705000000613
 31
0.0
  0
LINE
  5
1486B
  8
MSM_CONTINUOUS
 10
129.499999999983
 20
130.00000000006131
 30
0.0
 11
140.999999999983
 21
129.50000000006131
 31
0.0
  0
LINE
  5
1486C
  8
MSM_CONTINUOUS
 10
138.499999999983
 20
114.2705000000613
 30
0.0
 11
138.499999999983
 21
116.72950000006129
 31
0.0
  0
LINE
  5
1486D
  8
MSM_CONTINUOUS
 10
130.999999999983
 20
117.00000000006131
 30
0.0
 11
130.999999999983
 21
120.06521739136571
 31
0.0
  0
LINE
  5
1486E
  8
MSM_CONTINUOUS
 10
140.999999999983
 20
129.50000000006131
 30
0.0
 11
140.999999999983
 21
120.50000000006131
 31
0.0
  0
LINE
  5
1486F
  8
MSM_CONTINUOUS
 10
137.499999999983
 20
116.72950000006129
 30
0.0
 11
138.499999999983
 21
116.72950000006129
 31
0.0
  0
LINE
  5
14870
  8
MSM_CONTINUOUS
 10
138.499999999983
 20
116.72950000006129
 30
0.0
 11
139.20985215595161
 21
115.50000000006131
 31
0.0
  0
LINE
  5
14871
  8
MSM_CONTINUOUS
 10
139.20985215595161
 20
115.50000000006131
 30
0.0
 11
138.499999999983
 21
114.2705000000613
 31
0.0
  0
LINE
  5
14872
  8
MSM_CONTINUOUS
 10
138.499999999983
 20
114.2705000000613
 30
0.0
 11
137.499999999983
 21
114.2705000000613
 31
0.0
  0
LINE
  5
14873
  8
MSM_NARROW
 10
125.499999999983
 20
133.00000000006119
 30
0.0
 11
125.96851974343041
 21
133.2705000000613
 31
0.0
  0
LINE
  5
14874
  8
MSM_NARROW
 10
125.96851974343051
 20
135.72950000006131
 30
0.0
 11
137.499999999983
 21
135.72950000006131
 31
0.0
  0
LINE
  5
14875
  8
MSM_NARROW
 10
125.96851974343051
 20
133.2705000000613
 30
0.0
 11
137.499999999983
 21
133.2705000000613
 31
0.0
  0
LINE
  5
14876
  8
MSM_NARROW
 10
125.499999999983
 20
136.00000000006131
 30
0.0
 11
125.96851974343041
 21
135.72950000006131
 31
0.0
  0
LINE
  5
14877
  8
MSM_CONTINUOUS
 10
125.96851974343041
 20
136.00000000006131
 30
0.0
 11
125.96851974343041
 21
133.00000000006131
 31
0.0
  0
LINE
  5
14878
  8
MSM_CONTINUOUS
 10
125.499999999983
 20
136.00000000006131
 30
0.0
 11
137.22949999998301
 21
136.00000000006131
 31
0.0
  0
LINE
  5
14879
  8
MSM_CONTINUOUS
 10
125.499999999983
 20
133.00000000006131
 30
0.0
 11
137.22949999998301
 21
133.00000000006131
 31
0.0
  0
LINE
  5
1487A
  8
MSM_CONTINUOUS
 10
137.499999999983
 20
133.2705000000613
 30
0.0
 11
137.22949999998301
 21
133.00000000006131
 31
0.0
  0
LINE
  5
1487B
  8
MSM_CONTINUOUS
 10
137.22949999998301
 20
133.00000000006131
 30
0.0
 11
137.22949999998301
 21
136.00000000006131
 31
0.0
  0
LINE
  5
1487C
  8
MSM_CONTINUOUS
 10
137.22949999998301
 20
136.00000000006131
 30
0.0
 11
137.499999999983
 21
135.72950000006131
 31
0.0
  0
LINE
  5
1487D
  8
MSM_CONTINUOUS
 10
137.499999999983
 20
135.72950000006131
 30
0.0
 11
137.499999999983
 21
133.2705000000613
 31
0.0
  0
LINE
  5
1487E
  8
MSM_NARROW
 10
125.499999999983
 20
114.00000000006121
 30
0.0
 11
125.96851974343041
 21
114.2705000000613
 31
0.0
  0
LINE
  5
1487F
  8
MSM_NARROW
 10
125.96851974343051
 20
116.72950000006129
 30
0.0
 11
137.499999999983
 21
116.72950000006129
 31
0.0
  0
LINE
  5
14880
  8
MSM_NARROW
 10
125.96851974343051
 20
114.2705000000613
 30
0.0
 11
137.499999999983
 21
114.2705000000613
 31
0.0
  0
LINE
  5
14881
  8
MSM_NARROW
 10
125.499999999983
 20
117.00000000006131
 30
0.0
 11
125.96851974343041
 21
116.72950000006129
 31
0.0
  0
LINE
  5
14882
  8
MSM_CONTINUOUS
 10
125.96851974343041
 20
117.00000000006131
 30
0.0
 11
125.96851974343041
 21
114.00000000006131
 31
0.0
  0
LINE
  5
14883
  8
MSM_CONTINUOUS
 10
125.499999999983
 20
117.00000000006131
 30
0.0
 11
137.22949999998301
 21
117.00000000006131
 31
0.0
  0
LINE
  5
14884
  8
MSM_CONTINUOUS
 10
125.499999999983
 20
114.00000000006131
 30
0.0
 11
137.22949999998301
 21
114.00000000006131
 31
0.0
  0
LINE
  5
14885
  8
MSM_CONTINUOUS
 10
137.499999999983
 20
114.2705000000613
 30
0.0
 11
137.22949999998301
 21
114.00000000006131
 31
0.0
  0
LINE
  5
14886
  8
MSM_CONTINUOUS
 10
137.22949999998301
 20
114.00000000006131
 30
0.0
 11
137.22949999998301
 21
117.00000000006131
 31
0.0
  0
LINE
  5
14887
  8
MSM_CONTINUOUS
 10
137.22949999998301
 20
117.00000000006131
 30
0.0
 11
137.499999999983
 21
116.72950000006129
 31
0.0
  0
LINE
  5
14888
  8
MSM_CONTINUOUS
 10
137.499999999983
 20
116.72950000006129
 30
0.0
 11
137.499999999983
 21
114.2705000000613
 31
0.0
  0
LINE
  5
14889
  8
MSM_NARROW
 10
137.22949999998301
 20
136.00000000006131
 30
0.0
 11
137.499999999983
 21
136.00000000006131
 31
0.0
  0
LINE
  5
1488A
  8
MSM_NARROW
 10
137.96851974343039
 20
135.72950000006131
 30
0.0
 11
137.499999999983
 21
136.00000000006131
 31
0.0
  0
LINE
  5
1488B
  8
MSM_NARROW
 10
137.96851974343039
 20
133.2705000000613
 30
0.0
 11
137.499999999983
 21
133.00000000006131
 31
0.0
  0
LINE
  5
1488C
  8
MSM_NARROW
 10
137.22949999998301
 20
133.00000000006131
 30
0.0
 11
137.499999999983
 21
133.00000000006131
 31
0.0
  0
LINE
  5
1488D
  8
MSM_NARROW
 10
137.22949999998301
 20
117.00000000006131
 30
0.0
 11
137.499999999983
 21
117.00000000006131
 31
0.0
  0
LINE
  5
1488E
  8
MSM_NARROW
 10
137.96851974343039
 20
116.72950000006129
 30
0.0
 11
137.499999999983
 21
117.00000000006131
 31
0.0
  0
LINE
  5
1488F
  8
MSM_NARROW
 10
137.96851974343039
 20
114.2705000000613
 30
0.0
 11
137.499999999983
 21
114.00000000006131
 31
0.0
  0
LINE
  5
14890
  8
MSM_NARROW
 10
137.22949999998301
 20
114.00000000006131
 30
0.0
 11
137.499999999983
 21
114.00000000006131
 31
0.0
  0
LINE
  5
14891
  8
MSM_CENTER
 10
78.249999950208149
 20
125.00000000006131
 30
0.0
 11
109.2264019513477
 21
125.00000000006131
 31
0.0
  0
LINE
  5
14892
  8
MSM_CONTINUOUS
 10
87.499999950208135
 20
114.00000000006131
 30
0.0
 11
87.499999950208135
 21
93.500000000061235
 31
0.0
  0
LINE
  5
14893
  8
MSM_CONTINUOUS
 10
87.499999950208135
 20
156.50000000006139
 30
0.0
 11
87.499999950208135
 21
136.00000000006131
 31
0.0
  0
LINE
  5
14894
  8
MSM_CONTINUOUS
 10
107.49999995020841
 20
93.540946722935644
 30
0.0
 11
107.49999995020811
 21
156.5000000000615
 31
0.0
  0
LINE
  5
14895
  8
MSM_CONTINUOUS
 10
107.3660253539926
 20
157.00000000006131
 30
0.0
 11
87.633974546432825
 21
157.0000000000955
 31
0.0
  0
LINE
  5
14896
  8
MSM_CONTINUOUS
 10
107.19999995020819
 20
121.00000000006131
 30
0.0
 11
107.49999995020821
 21
120.70000000006129
 31
0.0
  0
LINE
  5
14897
  8
MSM_CONTINUOUS
 10
107.49999995020821
 20
129.30000000006129
 30
0.0
 11
107.19999995020819
 21
129.00000000006131
 31
0.0
  0
LINE
  5
14898
  8
MSM_CONTINUOUS
 10
81.999999950212754
 20
121.00000000006131
 30
0.0
 11
107.19999995020819
 21
121.00000000006131
 31
0.0
  0
LINE
  5
14899
  8
MSM_CONTINUOUS
 10
107.19999995020819
 20
121.00000000006131
 30
0.0
 11
107.19999995020819
 21
129.00000000006131
 31
0.0
  0
LINE
  5
1489A
  8
MSM_CONTINUOUS
 10
107.19999995020819
 20
129.00000000006131
 30
0.0
 11
81.999999950212754
 21
129.00000000006131
 31
0.0
  0
LINE
  5
1489B
  8
MSM_CONTINUOUS
 10
107.49999995020811
 20
156.5000000000615
 30
0.0
 11
107.3660253539926
 21
157.00000000006131
 31
0.0
  0
LINE
  5
1489C
  8
MSM_CONTINUOUS
 10
87.633974546432825
 20
157.0000000000955
 30
0.0
 11
87.499999950208135
 21
156.50000000006139
 31
0.0
  0
LINE
  5
1489D
  8
MSM_CENTER
 10
109.51097159154681
 20
155.00000000006131
 30
0.0
 11
85.510971591546792
 21
155.00000000006131
 31
0.0
  0
LINE
  5
1489E
  8
MSM_CONTINUOUS
 10
107.51097159154681
 20
152.45905327717551
 30
0.0
 11
87.510971591546806
 21
152.45905327717551
 31
0.0
  0
LINE
  5
1489F
  8
MSM_CONTINUOUS
 10
107.3660253539926
 20
93.000000000061334
 30
0.0
 11
87.633974546432825
 21
93.000000000027185
 31
0.0
  0
LINE
  5
148A0
  8
MSM_CONTINUOUS
 10
107.49999995020811
 20
93.500000000061206
 30
0.0
 11
107.3660253539926
 21
93.000000000061334
 31
0.0
  0
LINE
  5
148A1
  8
MSM_CONTINUOUS
 10
87.633974546432825
 20
93.000000000027185
 30
0.0
 11
87.499999950208135
 21
93.500000000061235
 31
0.0
  0
LINE
  5
148A2
  8
MSM_CENTER
 10
109.51097159154681
 20
95.000000000061334
 30
0.0
 11
85.510971591546792
 21
95.000000000061334
 31
0.0
  0
LINE
  5
148A3
  8
MSM_CONTINUOUS
 10
107.51097159154681
 20
97.540946722947169
 30
0.0
 11
87.510971591546806
 21
97.540946722947169
 31
0.0
  0
LINE
  5
148A4
  8
MSM_NARROW
 10
93.999999950212754
 20
114.00000000006131
 30
0.0
 11
93.999999950212754
 21
117.00000000006131
 31
0.0
  0
LINE
  5
148A5
  8
MSM_NARROW
 10
93.999999950212754
 20
133.00000000006131
 30
0.0
 11
93.999999950212754
 21
136.00000000006131
 31
0.0
  0
LINE
  5
148A6
  8
MSM_CONTINUOUS
 10
85.999999950212754
 20
136.00000000006131
 30
0.0
 11
85.999999950212754
 21
137.75000000006131
 31
0.0
  0
LINE
  5
148A7
  8
MSM_CONTINUOUS
 10
85.999999950212754
 20
130.00000000006131
 30
0.0
 11
85.999999950212754
 21
133.00000000006131
 31
0.0
  0
LINE
  5
148A8
  8
MSM_CONTINUOUS
 10
85.999999950212754
 20
112.25000000006131
 30
0.0
 11
85.999999950212754
 21
114.00000000006131
 31
0.0
  0
LINE
  5
148A9
  8
MSM_CONTINUOUS
 10
85.999999950212754
 20
117.00000000006131
 30
0.0
 11
85.999999950212754
 21
120.00000000006131
 31
0.0
  0
LINE
  5
148AA
  8
MSM_CONTINUOUS
 10
85.999999950212754
 20
120.00000000006131
 30
0.0
 11
97.499999950212754
 21
120.50000000006131
 31
0.0
  0
LINE
  5
148AB
  8
MSM_CONTINUOUS
 10
97.499999950212754
 20
120.50000000006131
 30
0.0
 11
97.499999950212754
 21
129.50000000006131
 31
0.0
  0
LINE
  5
148AC
  8
MSM_CONTINUOUS
 10
81.999999950212754
 20
137.75000000006131
 30
0.0
 11
81.999999950212754
 21
112.25000000006131
 31
0.0
  0
LINE
  5
148AD
  8
MSM_CONTINUOUS
 10
85.999999950212754
 20
137.75000000006131
 30
0.0
 11
81.999999950212754
 21
137.75000000006131
 31
0.0
  0
LINE
  5
148AE
  8
MSM_CONTINUOUS
 10
81.999999950212754
 20
112.25000000006131
 30
0.0
 11
85.999999950212754
 21
112.25000000006131
 31
0.0
  0
LINE
  5
148AF
  8
MSM_CONTINUOUS
 10
94.999999950212754
 20
133.2705000000613
 30
0.0
 11
94.999999950212754
 21
135.72950000006131
 31
0.0
  0
LINE
  5
148B0
  8
MSM_CONTINUOUS
 10
87.499999950212754
 20
129.93478260875699
 30
0.0
 11
87.499999950212754
 21
133.00000000006131
 31
0.0
  0
LINE
  5
148B1
  8
MSM_CONTINUOUS
 10
93.999999950212754
 20
135.72950000006131
 30
0.0
 11
94.999999950212754
 21
135.72950000006131
 31
0.0
  0
LINE
  5
148B2
  8
MSM_CONTINUOUS
 10
94.999999950212754
 20
135.72950000006131
 30
0.0
 11
95.709852106181387
 21
134.50000000006131
 31
0.0
  0
LINE
  5
148B3
  8
MSM_CONTINUOUS
 10
95.709852106181387
 20
134.50000000006131
 30
0.0
 11
94.999999950212754
 21
133.2705000000613
 31
0.0
  0
LINE
  5
148B4
  8
MSM_CONTINUOUS
 10
94.999999950212754
 20
133.2705000000613
 30
0.0
 11
93.999999950212754
 21
133.2705000000613
 31
0.0
  0
LINE
  5
148B5
  8
MSM_CONTINUOUS
 10
85.999999950212754
 20
130.00000000006131
 30
0.0
 11
97.499999950212754
 21
129.50000000006131
 31
0.0
  0
LINE
  5
148B6
  8
MSM_CONTINUOUS
 10
94.999999950212754
 20
114.2705000000613
 30
0.0
 11
94.999999950212754
 21
116.72950000006129
 31
0.0
  0
LINE
  5
148B7
  8
MSM_CONTINUOUS
 10
87.499999950212754
 20
117.00000000006131
 30
0.0
 11
87.499999950212754
 21
120.06521739136571
 31
0.0
  0
LINE
  5
148B8
  8
MSM_CONTINUOUS
 10
93.999999950212754
 20
116.72950000006129
 30
0.0
 11
94.999999950212754
 21
116.72950000006129
 31
0.0
  0
LINE
  5
148B9
  8
MSM_CONTINUOUS
 10
94.999999950212754
 20
116.72950000006129
 30
0.0
 11
95.709852106181387
 21
115.50000000006131
 31
0.0
  0
LINE
  5
148BA
  8
MSM_CONTINUOUS
 10
95.709852106181387
 20
115.50000000006131
 30
0.0
 11
94.999999950212754
 21
114.2705000000613
 31
0.0
  0
LINE
  5
148BB
  8
MSM_CONTINUOUS
 10
94.999999950212754
 20
114.2705000000613
 30
0.0
 11
93.999999950212754
 21
114.2705000000613
 31
0.0
  0
LINE
  5
148BC
  8
MSM_NARROW
 10
81.999999950212754
 20
133.00000000006119
 30
0.0
 11
82.468519693660141
 21
133.2705000000613
 31
0.0
  0
LINE
  5
148BD
  8
MSM_NARROW
 10
82.468519693660227
 20
135.72950000006131
 30
0.0
 11
93.999999950212754
 21
135.72950000006131
 31
0.0
  0
LINE
  5
148BE
  8
MSM_NARROW
 10
82.468519693660227
 20
133.2705000000613
 30
0.0
 11
93.999999950212754
 21
133.2705000000613
 31
0.0
  0
LINE
  5
148BF
  8
MSM_NARROW
 10
81.999999950212754
 20
136.00000000006131
 30
0.0
 11
82.468519693660141
 21
135.72950000006131
 31
0.0
  0
LINE
  5
148C0
  8
MSM_CONTINUOUS
 10
82.468519693660141
 20
136.00000000006131
 30
0.0
 11
82.468519693660141
 21
133.00000000006131
 31
0.0
  0
LINE
  5
148C1
  8
MSM_CONTINUOUS
 10
81.999999950212754
 20
136.00000000006131
 30
0.0
 11
93.729499950212755
 21
136.00000000006131
 31
0.0
  0
LINE
  5
148C2
  8
MSM_CONTINUOUS
 10
81.999999950212754
 20
133.00000000006131
 30
0.0
 11
93.729499950212755
 21
133.00000000006131
 31
0.0
  0
LINE
  5
148C3
  8
MSM_CONTINUOUS
 10
93.999999950212754
 20
133.2705000000613
 30
0.0
 11
93.729499950212755
 21
133.00000000006131
 31
0.0
  0
LINE
  5
148C4
  8
MSM_CONTINUOUS
 10
93.729499950212755
 20
133.00000000006131
 30
0.0
 11
93.729499950212755
 21
136.00000000006131
 31
0.0
  0
LINE
  5
148C5
  8
MSM_CONTINUOUS
 10
93.729499950212755
 20
136.00000000006131
 30
0.0
 11
93.999999950212754
 21
135.72950000006131
 31
0.0
  0
LINE
  5
148C6
  8
MSM_CONTINUOUS
 10
93.999999950212754
 20
135.72950000006131
 30
0.0
 11
93.999999950212754
 21
133.2705000000613
 31
0.0
  0
LINE
  5
148C7
  8
MSM_NARROW
 10
81.999999950212754
 20
114.00000000006121
 30
0.0
 11
82.468519693660141
 21
114.2705000000613
 31
0.0
  0
LINE
  5
148C8
  8
MSM_NARROW
 10
82.468519693660227
 20
116.72950000006129
 30
0.0
 11
93.999999950212754
 21
116.72950000006129
 31
0.0
  0
LINE
  5
148C9
  8
MSM_NARROW
 10
82.468519693660227
 20
114.2705000000613
 30
0.0
 11
93.999999950212754
 21
114.2705000000613
 31
0.0
  0
LINE
  5
148CA
  8
MSM_NARROW
 10
81.999999950212754
 20
117.00000000006131
 30
0.0
 11
82.468519693660141
 21
116.72950000006129
 31
0.0
  0
LINE
  5
148CB
  8
MSM_CONTINUOUS
 10
82.468519693660141
 20
117.00000000006131
 30
0.0
 11
82.468519693660141
 21
114.00000000006131
 31
0.0
  0
LINE
  5
148CC
  8
MSM_CONTINUOUS
 10
81.999999950212754
 20
117.00000000006131
 30
0.0
 11
93.729499950212755
 21
117.00000000006131
 31
0.0
  0
LINE
  5
148CD
  8
MSM_CONTINUOUS
 10
81.999999950212754
 20
114.00000000006131
 30
0.0
 11
93.729499950212755
 21
114.00000000006131
 31
0.0
  0
LINE
  5
148CE
  8
MSM_CONTINUOUS
 10
93.999999950212754
 20
114.2705000000613
 30
0.0
 11
93.729499950212755
 21
114.00000000006131
 31
0.0
  0
LINE
  5
148CF
  8
MSM_CONTINUOUS
 10
93.729499950212755
 20
114.00000000006131
 30
0.0
 11
93.729499950212755
 21
117.00000000006131
 31
0.0
  0
LINE
  5
148D0
  8
MSM_CONTINUOUS
 10
93.729499950212755
 20
117.00000000006131
 30
0.0
 11
93.999999950212754
 21
116.72950000006129
 31
0.0
  0
LINE
  5
148D1
  8
MSM_CONTINUOUS
 10
93.999999950212754
 20
116.72950000006129
 30
0.0
 11
93.999999950212754
 21
114.2705000000613
 31
0.0
  0
LINE
  5
148D2
  8
MSM_NARROW
 10
93.729499950212755
 20
136.00000000006131
 30
0.0
 11
93.999999950212754
 21
136.00000000006131
 31
0.0
  0
LINE
  5
148D3
  8
MSM_NARROW
 10
94.468519693660113
 20
135.72950000006131
 30
0.0
 11
93.999999950212754
 21
136.00000000006131
 31
0.0
  0
LINE
  5
148D4
  8
MSM_NARROW
 10
94.468519693660113
 20
133.2705000000613
 30
0.0
 11
93.999999950212754
 21
133.00000000006131
 31
0.0
  0
LINE
  5
148D5
  8
MSM_NARROW
 10
93.729499950212755
 20
133.00000000006131
 30
0.0
 11
93.999999950212754
 21
133.00000000006131
 31
0.0
  0
LINE
  5
148D6
  8
MSM_NARROW
 10
93.729499950212755
 20
117.00000000006131
 30
0.0
 11
93.999999950212754
 21
117.00000000006131
 31
0.0
  0
LINE
  5
148D7
  8
MSM_NARROW
 10
94.468519693660113
 20
116.72950000006129
 30
0.0
 11
93.999999950212754
 21
117.00000000006131
 31
0.0
  0
LINE
  5
148D8
  8
MSM_NARROW
 10
94.468519693660113
 20
114.2705000000613
 30
0.0
 11
93.999999950212754
 21
114.00000000006131
 31
0.0
  0
LINE
  5
148D9
  8
MSM_NARROW
 10
93.729499950212755
 20
114.00000000006131
 30
0.0
 11
93.999999950212754
 21
114.00000000006131
 31
0.0
  0
ARC
  5
1491A
  8
MSM_CONTINUOUS
 10
32.573573983029007
 20
156.7948268250166
 30
0.0
 40
0.20000000000003
 50
29.05699924685749
 51
88.966504607287874
  0
ARC
  5
1491B
  8
MSM_CONTINUOUS
 10
31.99999995022841
 20
125.0000000000198
 30
0.0
 40
32.000000000041553
 50
88.966504607298134
 51
91.033495392701099
  0
ARC
  5
1491C
  8
MSM_CONTINUOUS
 10
31.426425917428201
 20
156.7948268250166
 30
0.0
 40
0.200000000000012
 50
91.033495392705149
 51
150.94300750281971
  0
ARC
  5
1491D
  8
MSM_CONTINUOUS
 10
39.992968822570361
 20
152.03516899547131
 30
0.0
 40
9.9999999999996891
 50
150.94300750282019
 51
162.9999991293183
  0
ARC
  5
1491E
  8
MSM_CONTINUOUS
 10
31.999999950228531
 20
154.4788648156902
 30
0.0
 40
1.6418183403334801
 50
162.99999469684431
 51
175.2209940933916
  0
ARC
  5
1491F
  8
MSM_CONTINUOUS
 10
18.40629719249214
 20
155.6236109357778
 30
0.0
 40
12.00000000000087
 50
348.12049663684451
 51
355.18165965296129
  0
ARC
  5
14920
  8
MSM_CONTINUOUS
 10
29.170706744613788
 20
153.35921543273261
 30
0.0
 40
1.0000000000000071
 50
275.69733380342558
 51
348.12050318476258
  0
ARC
  5
14921
  8
MSM_CONTINUOUS
 10
31.999999950195381
 20
125.0000000003779
 30
0.0
 40
27.49999999968168
 50
95.697333803422012
 51
96.302666196578244
  0
ARC
  5
14922
  8
MSM_CONTINUOUS
 10
28.871253880201412
 20
153.3277416684204
 30
0.0
 40
0.9999999999999868
 50
203.87950395841841
 51
276.30266619657351
  0
ARC
  5
14923
  8
MSM_CONTINUOUS
 10
38.929640959205813
 20
157.7807012874726
 30
0.0
 40
11.999999999999631
 50
196.8183403469119
 51
203.879503958421
  0
ARC
  5
14924
  8
MSM_CONTINUOUS
 10
25.870999323023071
 20
153.83468089182489
 30
0.0
 40
1.6418183403334961
 50
16.779005907530241
 51
29.000009302349039
  0
ARC
  5
14925
  8
MSM_CONTINUOUS
 10
18.56076892762853
 20
149.78255401545269
 30
0.0
 40
9.9999999999989733
 50
29.000001527276432
 51
41.056992497180417
  0
ARC
  5
14926
  8
MSM_CONTINUOUS
 10
25.950523809821249
 20
156.21928632160689
 30
0.0
 40
0.199999999999935
 50
41.056992497179593
 51
100.9665046073148
  0
ARC
  5
14927
  8
MSM_CONTINUOUS
 10
31.999999950214342
 20
125.0000000001275
 30
0.0
 40
31.999999999932271
 50
100.96650460729479
 51
103.0334956547559
  0
ARC
  5
14928
  8
MSM_CONTINUOUS
 10
24.82844368176735
 20
155.98078082766949
 30
0.0
 40
0.2000000000000065
 50
103.0335373208967
 51
162.94300750282261
  0
ARC
  5
14929
  8
MSM_CONTINUOUS
 10
34.197375578070762
 20
153.1062173612568
 30
0.0
 40
10.00000000000033
 50
162.94300750282051
 51
174.99999812558249
  0
ARC
  5
1492A
  8
MSM_CONTINUOUS
 10
25.87099932302246
 20
153.83468089182489
 30
0.0
 40
1.641818340332994
 50
174.99998858328291
 51
187.22099409239269
  0
ARC
  5
1492B
  8
MSM_CONTINUOUS
 10
12.336345484070399
 20
152.12812183780289
 30
0.0
 40
12.00000000000054
 50
0.1204949672721973
 51
7.1816596530986407
  0
ARC
  5
1492C
  8
MSM_CONTINUOUS
 10
23.336321158512209
 20
152.1512554000233
 30
0.0
 40
0.9999999999999971
 50
287.69733380342558
 51
0.1204831498841959
  0
ARC
  5
1492D
  8
MSM_CONTINUOUS
 10
31.999999950104641
 20
125.0000000004398
 30
0.0
 40
27.499999999601741
 50
107.6973338034191
 51
108.30266619657711
  0
ARC
  5
1492E
  8
MSM_CONTINUOUS
 10
23.04995582120895
 20
152.05820966161511
 30
0.0
 40
1.0000000000000071
 50
215.8795039584187
 51
288.30266619657249
  0
ARC
  5
1492F
  8
MSM_CONTINUOUS
 10
31.962720646248609
 20
158.50511769365079
 30
0.0
 40
11.99999999999959
 50
208.81834034691229
 51
215.87950395842111
  0
ARC
  5
14930
  8
MSM_CONTINUOUS
 10
20.00986543343468
 20
151.93028304883961
 30
0.0
 40
1.6418183403331781
 50
28.779005907529751
 51
41.000009302350342
  0
ARC
  5
14931
  8
MSM_CONTINUOUS
 10
13.70186566164192
 20
146.44682250507239
 30
0.0
 40
9.9999999999998792
 50
41.000001527276929
 51
53.056992632173298
  0
ARC
  5
14932
  8
MSM_CONTINUOUS
 10
19.591864772556431
 20
154.279313199189
 30
0.0
 40
0.200000000000013
 50
53.056999246862482
 51
112.9665046072968
  0
ARC
  5
14933
  8
MSM_CONTINUOUS
 10
31.999999950221191
 20
125.000000000078
 30
0.0
 40
31.999999999981771
 50
112.9665046072967
 51
115.0334956458162
  0
ARC
  5
14934
  8
MSM_CONTINUOUS
 10
18.54389286798331
 20
153.81272604587571
 30
0.0
 40
0.2000000000000217
 50
115.0335358907536
 51
174.9430075028157
  0
ARC
  5
14935
  8
MSM_CONTINUOUS
 10
28.30574647445497
 20
152.94888915976389
 30
0.0
 40
9.999999999999563
 50
174.94300750282
 51
186.99999812558289
  0
ARC
  5
14936
  8
MSM_CONTINUOUS
 10
20.00986543343382
 20
151.93028304883919
 30
0.0
 40
1.64181834033298
 50
186.99998858328021
 51
199.2209940933906
  0
ARC
  5
14937
  8
MSM_CONTINUOUS
 10
7.1257898325012077
 20
147.44700364034719
 30
0.0
 40
12.000000000001711
 50
12.12049501300806
 51
19.181659652961368
  0
ARC
  5
14938
  8
MSM_CONTINUOUS
 10
17.880579908551919
 20
149.7566552201572
 30
0.0
 40
1.0000000000000191
 50
299.697333803427
 51
12.12048369871931
  0
ARC
  5
14939
  8
MSM_CONTINUOUS
 10
31.99999995021248
 20
125.0000000000896
 30
0.0
 40
27.499999999967429
 50
119.69733380342549
 51
120.3026661965754
  0
ARC
  5
1493A
  8
MSM_CONTINUOUS
 10
17.619817637731281
 20
149.60610405290441
 30
0.0
 40
1.0000000000000091
 50
227.87950395841841
 51
300.30266619657289
  0
ARC
  5
1493B
  8
MSM_CONTINUOUS
 10
24.997429617760432
 20
157.76519968122571
 30
0.0
 40
11.999999999998289
 50
220.81834034693301
 51
227.8795039584212
  0
ARC
  5
1493C
  8
MSM_CONTINUOUS
 10
14.67275795727817
 20
148.8489026107865
 30
0.0
 40
1.641818340333961
 50
40.779005907377169
 51
53.000009302347792
  0
ARC
  5
1493D
  8
MSM_CONTINUOUS
 10
9.6426786682573287
 20
142.17376193795121
 30
0.0
 40
9.9999999999998845
 50
53.000001527276851
 51
65.056992497179735
  0
ARC
  5
1493E
  8
MSM_CONTINUOUS
 10
13.77550078339446
 20
151.05969359223661
 30
0.0
 40
0.199999999999992
 50
65.056992497187153
 51
124.96650460730901
  0
ARC
  5
1493F
  8
MSM_CONTINUOUS
 10
31.99999995024508
 20
125.0000000000387
 30
0.0
 40
32.000000000027931
 50
124.9665046072983
 51
127.0334956458148
  0
ARC
  5
14940
  8
MSM_CONTINUOUS
 10
12.84743850325904
 20
150.38541687708059
 30
0.0
 40
0.2000000000000051
 50
127.03353589075709
 51
186.9430075028296
  0
ARC
  5
14941
  8
MSM_CONTINUOUS
 10
22.57557397472554
 20
151.5700603883418
 30
0.0
 40
9.9999999999988773
 50
186.94300750281971
 51
198.9999981848529
  0
ARC
  5
14942
  8
MSM_CONTINUOUS
 10
14.672757957277961
 20
148.84890261078661
 30
0.0
 40
1.6418183403330311
 50
198.99998894428441
 51
211.220994091894
  0
ARC
  5
14943
  8
MSM_CONTINUOUS
 10
3.0023565227795781
 20
141.78484367113651
 30
0.0
 40
12.000000000003009
 50
24.12049501300806
 51
31.181659653166012
  0
ARC
  5
14944
  8
MSM_CONTINUOUS
 10
13.04192506690732
 20
146.28007041156101
 30
0.0
 40
1.0000000000000051
 50
311.69733380342637
 51
24.120483698719362
  0
ARC
  5
14945
  8
MSM_CONTINUOUS
 10
31.999999950235939
 20
125.0000000000536
 30
0.0
 40
27.500000000010619
 50
131.6973338034262
 51
132.30266619657519
  0
ARC
  5
14946
  8
MSM_CONTINUOUS
 10
12.81816242508031
 20
146.07859362389721
 30
0.0
 40
1.0000000000000011
 50
239.87950395841841
 51
312.302666196573
  0
ARC
  5
14947
  8
MSM_CONTINUOUS
 10
18.338184514864171
 20
155.5932852178648
 30
0.0
 40
12.00000000000095
 50
232.81834034693409
 51
239.87950395842091
  0
ARC
  5
14948
  8
MSM_CONTINUOUS
 10
10.09293410154655
 20
144.72521068891419
 30
0.0
 40
1.641818340333155
 50
52.779005907372408
 51
65.00000930234981
  0
ARC
  5
14949
  8
MSM_CONTINUOUS
 10
6.560613897225557
 20
137.15012556529251
 30
0.0
 40
9.9999999999986962
 50
65.000001527275955
 51
77.056992497180318
  0
ARC
  5
1494A
  8
MSM_CONTINUOUS
 10
8.7556348586726607
 20
146.70114032702239
 30
0.0
 40
0.1999999999999836
 50
77.056992497188617
 51
136.96650460731209
  0
ARC
  5
1494B
  8
MSM_CONTINUOUS
 10
31.999999950219369
 20
125.00000000006951
 30
0.0
 40
31.999999999987679
 50
136.96650460729671
 51
139.03349563650431
  0
ARC
  5
1494C
  8
MSM_CONTINUOUS
 10
7.9880429779537776
 20
145.8486431780147
 30
0.0
 40
0.2000000000000202
 50
139.0335344009178
 51
198.94300750281789
  0
ARC
  5
1494D
  8
MSM_CONTINUOUS
 10
17.257294113540208
 20
149.0299924806568
 30
0.0
 40
9.9999999999996021
 50
198.94300750281991
 51
210.99999818485259
  0
ARC
  5
1494E
  8
MSM_CONTINUOUS
 10
10.092934101546421
 20
144.7252106889139
 30
0.0
 40
1.6418183403336351
 50
210.9999889442856
 51
223.2209940918913
  0
ARC
  5
1494F
  8
MSM_CONTINUOUS
 10
0.1462593769706579
 20
135.38910549088459
 30
0.0
 40
12.00000000000213
 50
36.120494967271718
 51
43.181659653166591
  0
ARC
  5
14950
  8
MSM_CONTINUOUS
 10
9.0318290686002101
 20
141.8734444128751
 30
0.0
 40
0.9999999999999978
 50
323.69733380342541
 51
36.120483149881728
  0
ARC
  5
14951
  8
MSM_CONTINUOUS
 10
31.999999950351231
 20
124.9999999999726
 30
0.0
 40
27.500000000151321
 50
143.69733380342791
 51
144.30266619657371
  0
ARC
  5
14952
  8
MSM_CONTINUOUS
 10
8.8548455569469802
 20
141.62984750721409
 30
0.0
 40
0.9999999999999982
 50
251.87950395841889
 51
324.3026661965722
  0
ARC
  5
14953
  8
MSM_CONTINUOUS
 10
12.27602630315493
 20
152.08429738761311
 30
0.0
 40
11.99999999999992
 50
244.81834034692841
 51
251.8795039584212
  0
ARC
  5
14954
  8
MSM_CONTINUOUS
 10
6.4705541451664601
 20
139.73943240787511
 30
0.0
 40
1.641818340334223
 50
64.779005907415595
 51
77.000009302345575
  0
ARC
  5
14955
  8
MSM_CONTINUOUS
 10
4.5903723684272597
 20
131.59547040266011
 30
0.0
 40
9.9999999999996945
 50
77.000001527276808
 51
89.056992497179934
  0
ARC
  5
14956
  8
MSM_CONTINUOUS
 10
4.751659227290598
 20
141.3941430958952
 30
0.0
 40
0.2000000000000155
 50
89.056992497188986
 51
148.96650460729651
  0
ARC
  5
14957
  8
MSM_CONTINUOUS
 10
31.99999995021496
 20
125.00000000006941
 30
0.0
 40
31.999999999984158
 50
148.96650460729691
 51
151.03349563650491
  0
ARC
  5
14958
  8
MSM_CONTINUOUS
 10
4.1780851944901194
 20
140.4006837291827
 30
0.0
 40
0.1999999999999734
 50
151.0335344009095
 51
210.9430075028271
  0
ARC
  5
14959
  8
MSM_CONTINUOUS
 10
12.58334124076967
 20
145.43969859287299
 30
0.0
 40
10.00000000000049
 50
210.94300750282039
 51
222.99999818485171
  0
ARC
  5
1495A
  8
MSM_CONTINUOUS
 10
6.470554145166548
 20
139.7394324078756
 30
0.0
 40
1.641818340333369
 50
222.99998894428509
 51
235.22099409189281
  0
ARC
  5
1495B
  8
MSM_CONTINUOUS
 10
-1.317676454580563
 20
128.53931354822589
 30
0.0
 40
11.99999999999998
 50
48.120494967270929
 51
55.181659653166967
  0
ARC
  5
1495C
  8
MSM_CONTINUOUS
 10
6.0255523513321476
 20
136.72936792557979
 30
0.0
 40
0.999999999999995
 50
335.69733380342569
 51
48.120483149882411
  0
ARC
  5
1495D
  8
MSM_CONTINUOUS
 10
31.999999949876599
 20
125.00000000021819
 30
0.0
 40
27.49999999961463
 50
155.69733380342149
 51
156.30266619657911
  0
ARC
  5
1495E
  8
MSM_CONTINUOUS
 10
5.9030829985730291
 20
136.4542972556066
 30
0.0
 40
1.0000000000000111
 50
263.87950395841909
 51
336.30266619657289
  0
ARC
  5
1495F
  8
MSM_CONTINUOUS
 10
7.0759003859501588
 20
147.39159579664971
 30
0.0
 40
12.00000000000176
 50
256.81834034691258
 51
263.87950395842017
  0
ARC
  5
14960
  8
MSM_CONTINUOUS
 10
3.9639334743408301
 20
134.10947020297201
 30
0.0
 40
1.641818340333832
 50
76.779005907534
 51
89.000005883322885
  0
ARC
  5
14961
  8
MSM_CONTINUOUS
 10
3.8180630909397202
 20
125.7525615348559
 30
0.0
 40
10.00000000000043
 50
89.000000965934973
 51
101.05699249717929
  0
ARC
  5
14962
  8
MSM_CONTINUOUS
 10
1.9385668375464391
 20
135.3706431436535
 30
0.0
 40
0.200000000000012
 50
101.05699249719051
 51
160.96650460729481
  0
ARC
  5
14963
  8
MSM_CONTINUOUS
 10
31.999999950208789
 20
125.0000000000676
 30
0.0
 40
31.99999999997921
 50
160.96650460729629
 51
163.03349562682311
  0
ARC
  5
14964
  8
MSM_CONTINUOUS
 10
1.584078590211369
 20
134.27964050070841
 30
0.0
 40
0.1999999999999857
 50
163.0335328518758
 51
222.94300750282869
  0
ARC
  5
14965
  8
MSM_CONTINUOUS
 10
8.7579895250669608
 20
140.95609179602681
 30
0.0
 40
9.9999999999999112
 50
222.94300750282
 51
234.99999818485199
  0
ARC
  5
14966
  8
MSM_CONTINUOUS
 10
3.9639334743406098
 20
134.10947020297201
 30
0.0
 40
1.6418183403332141
 50
234.9999889442845
 51
247.2209940923934
  0
ARC
  5
14967
  8
MSM_CONTINUOUS
 10
-1.32546995129347
 20
121.5348366200013
 30
0.0
 40
11.99999999999895
 50
60.120495095018882
 51
67.181659653098805
  0
ARC
  5
14968
  8
MSM_CONTINUOUS
 10
4.154483633363931
 20
131.0726617761874
 30
0.0
 40
0.9999999999999996
 50
347.69733380342768
 51
60.120484682862568
  0
ARC
  5
14969
  8
MSM_CONTINUOUS
 10
31.999999950127119
 20
125.00000000008259
 30
0.0
 40
27.4999999998963
 50
167.69733380342379
 51
168.30266619657519
  0
ARC
  5
1496A
  8
MSM_CONTINUOUS
 10
4.0918809378877077
 20
130.7781392501154
 30
0.0
 40
0.9999999999999809
 50
275.87950395841813
 51
348.30266619657368
  0
ARC
  5
1496B
  8
MSM_CONTINUOUS
 10
2.9650772188025591
 20
141.720274022577
 30
0.0
 40
12.000000000002631
 50
268.81834034691292
 51
275.87950395842017
  0
ARC
  5
1496C
  8
MSM_CONTINUOUS
 10
2.6826234404842211
 20
128.081380438114
 30
0.0
 40
1.6418183403333959
 50
88.779005907529907
 51
101.0000093023488
  0
ARC
  5
1496D
  8
MSM_CONTINUOUS
 10
4.2774396861399602
 20
119.8767621167914
 30
0.0
 40
10.00000000000021
 50
101.00000152727701
 51
113.05699249717949
  0
ARC
  5
1496E
  8
MSM_CONTINUOUS
 10
0.4393033255869199
 20
128.8938963221697
 30
0.0
 40
0.2000000000000144
 50
113.056992497192
 51
172.96650460730879
  0
ARC
  5
1496F
  8
MSM_CONTINUOUS
 10
31.999999950181522
 20
125.00000000006619
 30
0.0
 40
31.99999999995266
 50
172.96650460729569
 51
175.03349562682411
  0
ARC
  5
14970
  8
MSM_CONTINUOUS
 10
0.3193937011491599
 20
127.7530324537004
 30
0.0
 40
0.2000000000000209
 50
175.03353285187981
 51
234.94300750282281
  0
ARC
  5
14971
  8
MSM_CONTINUOUS
 10
5.9484251924838878
 20
135.7751272218737
 30
0.0
 40
9.9999999999995914
 50
234.94300750282019
 51
246.99999824612391
  0
ARC
  5
14972
  8
MSM_CONTINUOUS
 10
2.6826234404843272
 20
128.08138043811411
 30
0.0
 40
1.64181834033383
 50
246.9999893174776
 51
259.22099409239001
  0
ARC
  5
14973
  8
MSM_CONTINUOUS
 10
0.123219500035681
 20
114.6818039591809
 30
0.0
 40
12.00000000000121
 50
72.120495144440028
 51
79.181659653098308
  0
ARC
  5
14974
  8
MSM_CONTINUOUS
 10
3.5003975960546292
 20
125.15055116731411
 30
0.0
 40
1.0000000000000071
 50
359.69733380338238
 51
72.120485275905594
  0
ARC
  5
14975
  8
MSM_CONTINUOUS
 10
31.99999995021949
 20
125.00000000006131
 30
0.0
 40
27.49999999999088
 50
179.6973338034274
 51
180.30266619657371
  0
ARC
  5
14976
  8
MSM_CONTINUOUS
 10
3.500397596054639
 20
124.84944883280851
 30
0.0
 40
0.9999999999999978
 50
287.87951361776419
 51
0.3026661965752192
  0
ARC
  5
14977
  8
MSM_CONTINUOUS
 10
0.1232195000360008
 20
135.31819604093999
 30
0.0
 40
11.999999999999501
 50
280.81834034691241
 51
287.87950476336692
  0
ARC
  5
14978
  8
MSM_CONTINUOUS
 10
2.6826234404842699
 20
121.9186195620087
 30
0.0
 40
1.6418183403335831
 50
100.7790059075314
 51
113.0000058833219
  0
ARC
  5
14979
  8
MSM_CONTINUOUS
 10
5.948425192484148
 20
114.2248727782485
 30
0.0
 40
10.00000000000006
 50
113.0000009659348
 51
125.05699249717949
  0
ARC
  5
1497A
  8
MSM_CONTINUOUS
 10
0.3193937011491705
 20
122.2469675464223
 30
0.0
 40
0.1999999999999886
 50
125.056992497181
 51
184.96650460731161
  0
ARC
  5
1497B
  8
MSM_CONTINUOUS
 10
31.999999950222669
 20
125.00000000006069
 30
0.0
 40
31.999999999994031
 50
184.966504607297
 51
187.03349561682251
  0
ARC
  5
1497C
  8
MSM_CONTINUOUS
 10
0.4393033255868489
 20
121.1061036779529
 30
0.0
 40
0.1999999999999809
 50
187.03353125183671
 51
246.9430075028267
  0
ARC
  5
1497D
  8
MSM_CONTINUOUS
 10
4.2774396861399211
 20
130.12323788333109
 30
0.0
 40
10.00000000000006
 50
246.94300750282039
 51
258.99999831393183
  0
ARC
  5
1497E
  8
MSM_CONTINUOUS
 10
2.6826234404842699
 20
121.9186195620088
 30
0.0
 40
1.641818340333657
 50
258.99998973048531
 51
271.22099409239053
  0
ARC
  5
1497F
  8
MSM_CONTINUOUS
 10
2.9650772188027399
 20
108.27972597754921
 30
0.0
 40
11.999999999999019
 50
84.120495144439275
 51
91.181659653098819
  0
ARC
  5
14980
  8
MSM_CONTINUOUS
 10
4.0918809378877077
 20
119.2218607500072
 30
0.0
 40
0.9999999999999893
 50
11.69733380342455
 51
84.120485275906617
  0
ARC
  5
14981
  8
MSM_CONTINUOUS
 10
31.99999995010614
 20
125.0000000000348
 30
0.0
 40
27.499999999874689
 50
191.69733380342299
 51
192.3026661965749
  0
ARC
  5
14982
  8
MSM_CONTINUOUS
 10
4.1544836333639381
 20
118.92733822393519
 30
0.0
 40
0.9999999999999985
 50
299.87951361776322
 51
12.302666196573149
  0
ARC
  5
14983
  8
MSM_CONTINUOUS
 10
-1.325469951293015
 20
128.46516338012049
 30
0.0
 40
11.999999999997961
 50
292.8183403469115
 51
299.87950476336681
  0
ARC
  5
14984
  8
MSM_CONTINUOUS
 10
3.9639334743408692
 20
115.89052979715019
 30
0.0
 40
1.641818340333657
 50
112.7790059075311
 51
125.0000093023483
  0
ARC
  5
14985
  8
MSM_CONTINUOUS
 10
8.7579895250667406
 20
109.0439082040961
 30
0.0
 40
9.999999999999579
 50
125.0000015272765
 51
137.05699263217329
  0
ARC
  5
14986
  8
MSM_CONTINUOUS
 10
1.5840785902114189
 20
115.7203594994142
 30
0.0
 40
0.1999999999999879
 50
137.056999246858
 51
196.9665046073047
  0
ARC
  5
14987
  8
MSM_CONTINUOUS
 10
31.999999950258719
 20
125.0000000000708
 30
0.0
 40
32.000000000031569
 50
196.96650460729779
 51
199.0334956168208
  0
ARC
  5
14988
  8
MSM_CONTINUOUS
 10
1.9385668375464
 20
114.6293568564692
 30
0.0
 40
0.2000000000000212
 50
199.0335312518431
 51
258.94300750282332
  0
ARC
  5
14989
  8
MSM_CONTINUOUS
 10
3.8180630909396882
 20
124.2474384652658
 30
0.0
 40
9.9999999999995541
 50
258.94300750281991
 51
270.99999831393211
  0
ARC
  5
1498A
  8
MSM_CONTINUOUS
 10
3.9639334743408692
 20
115.8905297971508
 30
0.0
 40
1.64181834033407
 50
270.99998973048292
 51
283.22099409338563
  0
ARC
  5
1498B
  8
MSM_CONTINUOUS
 10
7.0759003859494269
 20
102.60840420347731
 30
0.0
 40
11.999999999997261
 50
96.120495095018484
 51
103.18165965296249
  0
ARC
  5
1498C
  8
MSM_CONTINUOUS
 10
5.9030829985730398
 20
113.54570274451601
 30
0.0
 40
1.0000000000000091
 50
23.697333803424449
 51
96.120484682861417
  0
ARC
  5
1498D
  8
MSM_CONTINUOUS
 10
31.999999950378129
 20
125.000000000128
 30
0.0
 40
27.50000000016373
 50
203.69733380342751
 51
204.302666196573
  0
ARC
  5
1498E
  8
MSM_CONTINUOUS
 10
6.025552351332137
 20
113.2706320745428
 30
0.0
 40
1.0000000000000091
 50
311.87950395841813
 51
24.302666196572201
  0
ARC
  5
1498F
  8
MSM_CONTINUOUS
 10
-1.317676454581743
 20
121.4606864518981
 30
0.0
 40
12.00000000000184
 50
304.81834034692889
 51
311.87950395842063
  0
ARC
  5
14990
  8
MSM_CONTINUOUS
 10
6.4705541451665702
 20
110.260567592247
 30
0.0
 40
1.641818340333322
 50
124.7790059074126
 51
137.0000093023497
  0
ARC
  5
14991
  8
MSM_CONTINUOUS
 10
12.5833412407697
 20
104.5603014072496
 30
0.0
 40
10.00000000000052
 50
137.00000152727719
 51
149.0569926922204
  0
ARC
  5
14992
  8
MSM_CONTINUOUS
 10
4.1780851944901691
 20
109.59931627093989
 30
0.0
 40
0.1999999999999782
 50
149.0570022492351
 51
208.96650460731721
  0
ARC
  5
14993
  8
MSM_CONTINUOUS
 10
31.999999950200039
 20
125.00000000004481
 30
0.0
 40
31.999999999966999
 50
208.96650460729609
 51
211.03349517915609
  0
ARC
  5
14994
  8
MSM_CONTINUOUS
 10
4.7516592272905704
 20
108.60585690422739
 30
0.0
 40
0.1999999999999974
 50
211.03346122509359
 51
270.94300750282429
  0
ARC
  5
14995
  8
MSM_CONTINUOUS
 10
4.5903723684273281
 20
118.4045295974621
 30
0.0
 40
9.9999999999992113
 50
270.9430075028198
 51
282.99999824612399
  0
ARC
  5
14996
  8
MSM_CONTINUOUS
 10
6.4705541451667576
 20
110.2605675922467
 30
0.0
 40
1.6418183403334039
 50
282.99998931747638
 51
295.22099409239217
  0
ARC
  5
14997
  8
MSM_CONTINUOUS
 10
12.27602630315512
 20
97.915702612509335
 30
0.0
 40
12.00000000000016
 50
108.12049509501929
 51
115.18165965309851
  0
ARC
  5
14998
  8
MSM_CONTINUOUS
 10
8.8548455569469908
 20
108.3701524929085
 30
0.0
 40
0.9999999999999918
 50
35.69733380342673
 51
108.1204846828626
  0
ARC
  5
14999
  8
MSM_CONTINUOUS
 10
31.999999950241179
 20
125.0000000000698
 30
0.0
 40
27.500000000015149
 50
215.69733380342441
 51
216.3026661965734
  0
ARC
  5
1499A
  8
MSM_CONTINUOUS
 10
9.0318290686002207
 20
108.12655558724749
 30
0.0
 40
1.0
 50
323.87950395841767
 51
36.302666196572787
  0
ARC
  5
1499B
  8
MSM_CONTINUOUS
 10
0.146259376971571
 20
114.6108945092372
 30
0.0
 40
12.000000000000931
 50
316.81834034693378
 51
323.87950395842063
  0
ARC
  5
1499C
  8
MSM_CONTINUOUS
 10
10.092934101546209
 20
105.27478931120891
 30
0.0
 40
1.6418183403333071
 50
136.7790059073746
 51
149.00000930235061
  0
ARC
  5
1499D
  8
MSM_CONTINUOUS
 10
17.257294113540709
 20
100.9700075194656
 30
0.0
 40
10.000000000000099
 50
149.00000152727691
 51
161.05699269222049
  0
ARC
  5
1499E
  8
MSM_CONTINUOUS
 10
7.9880429779537891
 20
104.1513568221079
 30
0.0
 40
0.1999999999999926
 50
161.0570022492372
 51
220.96650460730649
  0
ARC
  5
1499F
  8
MSM_CONTINUOUS
 10
31.999999950215511
 20
125.0000000000495
 30
0.0
 40
31.999999999982379
 50
220.9665046072966
 51
223.03349519016911
  0
ARC
  5
149A0
  8
MSM_CONTINUOUS
 10
8.7556348586726607
 20
103.2988596731003
 30
0.0
 40
0.2000000000000292
 50
223.03346298724921
 51
282.94300750282059
  0
ARC
  5
149A1
  8
MSM_CONTINUOUS
 10
6.5606138972251378
 20
112.84987443483161
 30
0.0
 40
10.00000000000019
 50
282.94300750282042
 51
294.99999838007813
  0
ARC
  5
149A2
  8
MSM_CONTINUOUS
 10
10.092934101545961
 20
105.2747893112094
 30
0.0
 40
1.641818340334307
 50
294.99999013337339
 51
307.22099409238922
  0
ARC
  5
149A3
  8
MSM_CONTINUOUS
 10
18.338184514865048
 20
94.406714782256586
 30
0.0
 40
12.000000000002419
 50
120.12049505829749
 51
127.1816596530977
  0
ARC
  5
149A4
  8
MSM_CONTINUOUS
 10
12.81816242508034
 20
103.92140637622551
 30
0.0
 40
0.9999999999999975
 50
47.697333803425003
 51
120.1204842421952
  0
ARC
  5
149A5
  8
MSM_CONTINUOUS
 10
31.999999950184371
 20
125.0000000000114
 30
0.0
 40
27.499999999933291
 50
227.6973338034235
 51
228.30266619657419
  0
ARC
  5
149A6
  8
MSM_CONTINUOUS
 10
13.041925066907361
 20
103.7199295885616
 30
0.0
 40
0.9999999999999941
 50
335.8795136177651
 51
48.302666196574769
  0
ARC
  5
149A7
  8
MSM_CONTINUOUS
 10
3.0023565227817981
 20
108.215156328985
 30
0.0
 40
12.000000000000551
 50
328.81834034692861
 51
335.87950476336653
  0
ARC
  5
149A8
  8
MSM_CONTINUOUS
 10
14.672757957279
 20
101.1510973893356
 30
0.0
 40
1.6418183403341271
 50
148.77900590741481
 51
161.0000093023458
  0
ARC
  5
149A9
  8
MSM_CONTINUOUS
 10
22.575573974726499
 20
98.429939611780654
 30
0.0
 40
9.999999999999817
 50
161.00000152727691
 51
173.0569927367695
  0
ARC
  5
149AA
  8
MSM_CONTINUOUS
 10
12.84743850325909
 20
99.614583123042053
 30
0.0
 40
0.2000000000000259
 50
173.05700447666911
 51
232.9665046072974
  0
ARC
  5
149AB
  8
MSM_CONTINUOUS
 10
31.999999950237289
 20
125.0000000000733
 30
0.0
 40
32.000000000014772
 50
232.96650460729771
 51
235.0334955834721
  0
ARC
  5
149AC
  8
MSM_CONTINUOUS
 10
13.77550078339446
 20
98.940306407886055
 30
0.0
 40
0.2000000000000173
 50
235.033525915864
 51
294.94300750281758
  0
ARC
  5
149AD
  8
MSM_CONTINUOUS
 10
9.6426786682569592
 20
107.8262380621721
 30
0.0
 40
10.00000000000065
 50
294.94300750282071
 51
306.99999831393171
  0
ARC
  5
149AE
  8
MSM_CONTINUOUS
 10
14.67275795727836
 20
101.151097389336
 30
0.0
 40
1.641818340333782
 50
306.999989730484
 51
319.22099409338892
  0
ARC
  5
149AF
  8
MSM_CONTINUOUS
 10
24.997429617761181
 20
92.234800318896163
 30
0.0
 40
11.99999999999933
 50
132.12049514443899
 51
139.18165965296151
  0
ARC
  5
149B0
  8
MSM_CONTINUOUS
 10
17.619817637731281
 20
100.3938959472183
 30
0.0
 40
0.9999999999999936
 50
59.697333803423952
 51
132.120485275905
  0
ARC
  5
149B1
  8
MSM_CONTINUOUS
 10
31.999999950245499
 20
125.00000000009059
 30
0.0
 40
27.50000000003385
 50
239.69733380342601
 51
240.30266619657439
  0
ARC
  5
149B2
  8
MSM_CONTINUOUS
 10
17.88057990855199
 20
100.2433447799654
 30
0.0
 40
0.9999999999999912
 50
347.87951361776481
 51
60.302666196574251
  0
ARC
  5
149B3
  8
MSM_CONTINUOUS
 10
7.1257898325024982
 20
102.55299635977499
 30
0.0
 40
12.000000000000391
 50
340.81834034693389
 51
347.87950476336653
  0
ARC
  5
149B4
  8
MSM_CONTINUOUS
 10
20.009865433434332
 20
98.069716951283283
 30
0.0
 40
1.641818340333465
 50
160.77900590737411
 51
173.0000093023485
  0
ARC
  5
149B5
  8
MSM_CONTINUOUS
 10
28.305746474455631
 20
97.051110840358803
 30
0.0
 40
10.000000000000179
 50
173.00000152727691
 51
185.05699269222049
  0
ARC
  5
149B6
  8
MSM_CONTINUOUS
 10
18.543892867983331
 20
96.18727395424699
 30
0.0
 40
0.2000000000000016
 50
185.05700224923649
 51
244.9665046073051
  0
ARC
  5
149B7
  8
MSM_CONTINUOUS
 10
31.99999995020784
 20
125.00000000001459
 30
0.0
 40
31.999999999948841
 50
244.96650460729549
 51
247.03349558347409
  0
ARC
  5
149B8
  8
MSM_CONTINUOUS
 10
19.591864772556448
 20
95.720686800933549
 30
0.0
 40
0.199999999999977
 50
247.03352591585769
 51
306.94300750282929
  0
ARC
  5
149B9
  8
MSM_CONTINUOUS
 10
13.701865661641341
 20
103.5531774950509
 30
0.0
 40
10.00000000000078
 50
306.94300750282082
 51
318.99999844904249
  0
ARC
  5
149BA
  8
MSM_CONTINUOUS
 10
20.009865433434491
 20
98.069716951283226
 30
0.0
 40
1.641818340333457
 50
318.99999055341971
 51
331.22099409239098
  0
ARC
  5
149BB
  8
MSM_CONTINUOUS
 10
31.962720646249881
 20
91.494882306471155
 30
0.0
 40
12.000000000001
 50
144.1204951444399
 51
151.18165965309819
  0
ARC
  5
149BC
  8
MSM_CONTINUOUS
 10
23.049955821208961
 20
97.941790338507602
 30
0.0
 40
0.9999999999999889
 50
71.697333803424328
 51
144.12048527590539
  0
ARC
  5
149BD
  8
MSM_CONTINUOUS
 10
31.999999950216441
 20
125.0000000000237
 30
0.0
 40
27.499999999960451
 50
251.6973338034249
 51
252.30266619657499
  0
ARC
  5
149BE
  8
MSM_CONTINUOUS
 10
23.336321158512231
 20
97.848744600099366
 30
0.0
 40
1.0000000000000031
 50
359.87951361781342
 51
72.302666196573625
  0
ARC
  5
149BF
  8
MSM_CONTINUOUS
 10
12.336345484068261
 20
97.871878162319732
 30
0.0
 40
12.00000000000272
 50
352.81834034693452
 51
359.87950476336368
  0
ARC
  5
149C0
  8
MSM_CONTINUOUS
 10
25.870999323022879
 20
96.165319108297723
 30
0.0
 40
1.641818340333367
 50
172.7790059073734
 51
185.0000093023497
  0
ARC
  5
149C1
  8
MSM_CONTINUOUS
 10
34.197375578070769
 20
96.893782638865915
 30
0.0
 40
10.000000000000311
 50
185.00000152727711
 51
197.0569926922204
  0
ARC
  5
149C2
  8
MSM_CONTINUOUS
 10
24.828443681767389
 20
94.019219172453177
 30
0.0
 40
0.2000000000000229
 50
197.05700224923791
 51
256.96650460730001
  0
ARC
  5
149C3
  8
MSM_CONTINUOUS
 10
31.999999950232819
 20
125.0000000000809
 30
0.0
 40
32.000000000019988
 50
256.96650460729779
 51
259.03349558347168
  0
ARC
  5
149C4
  8
MSM_CONTINUOUS
 10
25.950523809821231
 20
93.780713678515767
 30
0.0
 40
0.2000000000000189
 50
259.03352591586389
 51
318.94300750282082
  0
ARC
  5
149C5
  8
MSM_CONTINUOUS
 10
18.560768927627969
 20
100.21744598467041
 30
0.0
 40
9.999999999999698
 50
318.94300750282019
 51
330.99999844904312
  0
ARC
  5
149C6
  8
MSM_CONTINUOUS
 10
25.870999323023192
 20
96.165319108297766
 30
0.0
 40
1.6418183403334581
 50
330.99999055341738
 51
343.22099409338932
  0
ARC
  5
149C7
  8
MSM_CONTINUOUS
 10
38.929640959203958
 20
92.219298712650783
 30
0.0
 40
11.9999999999976
 50
156.12049519974619
 51
163.18165965296251
  0
ARC
  5
149C8
  8
MSM_CONTINUOUS
 10
28.871253880201451
 20
96.672258331702196
 30
0.0
 40
1.0000000000000191
 50
83.697333803426531
 51
156.12048593959469
  0
ARC
  5
149C9
  8
MSM_CONTINUOUS
 10
31.999999950278841
 20
125.0000000005364
 30
0.0
 40
27.500000000477769
 50
263.69733380343013
 51
264.30266619656891
  0
ARC
  5
149CA
  8
MSM_CONTINUOUS
 10
29.170706744613788
 20
96.640784567390028
 30
0.0
 40
1.0000000000000131
 50
11.87951361776517
 51
84.302666196573568
  0
ARC
  5
149CB
  8
MSM_CONTINUOUS
 10
18.406297192492602
 20
94.376389064344863
 30
0.0
 40
12.00000000000041
 50
4.8183403469337698
 51
11.87950476336613
  0
ARC
  5
149CC
  8
MSM_CONTINUOUS
 10
31.999999950228691
 20
95.521135184432467
 30
0.0
 40
1.6418183403336191
 50
184.77900590737491
 51
197.00000930234901
  0
ARC
  5
149CD
  8
MSM_CONTINUOUS
 10
39.992968822570681
 20
97.964831004651444
 30
0.0
 40
10.0
 50
197.00000152727671
 51
209.05699249717949
  0
ARC
  5
149CE
  8
MSM_CONTINUOUS
 10
31.426425917428229
 20
93.205173175106083
 30
0.0
 40
0.2000000000000406
 50
209.05699249718941
 51
268.96650460728989
  0
ARC
  5
149CF
  8
MSM_CONTINUOUS
 10
31.999999950228752
 20
125.00000000009391
 30
0.0
 40
32.000000000032578
 50
268.96650460729802
 51
271.03349557093202
  0
ARC
  5
149D0
  8
MSM_CONTINUOUS
 10
32.573573983029007
 20
93.205173175106054
 30
0.0
 40
0.2000000000000452
 50
271.03352390958202
 51
330.94300750281559
  0
ARC
  5
149D1
  8
MSM_CONTINUOUS
 10
24.007031077885511
 20
97.964831004651884
 30
0.0
 40
10.00000000000113
 50
330.94300750282127
 51
342.99999851629912
  0
ARC
  5
149D2
  8
MSM_CONTINUOUS
 10
31.999999950228069
 20
95.521135184432538
 30
0.0
 40
1.64181834033411
 50
342.99999096306829
 51
355.22099409238922
  0
ARC
  5
149D3
  8
MSM_CONTINUOUS
 10
45.593702707964603
 20
94.376389064344906
 30
0.0
 40
12.000000000000361
 50
168.12049514443979
 51
175.18165965309871
  0
ARC
  5
149D4
  8
MSM_CONTINUOUS
 10
34.829293155843459
 20
96.640784567390028
 30
0.0
 40
1.0000000000000171
 50
95.697333803425948
 51
168.1204852759042
  0
ARC
  5
149D5
  8
MSM_CONTINUOUS
 10
31.999999950239118
 20
124.9999999999647
 30
0.0
 40
27.49999999990278
 50
275.69733380342359
 51
276.30266619657499
  0
ARC
  5
149D6
  8
MSM_CONTINUOUS
 10
35.128746020255797
 20
96.672258331702196
 30
0.0
 40
1.0000000000000111
 50
23.879513617765859
 51
96.302666196573753
  0
ARC
  5
149D7
  8
MSM_CONTINUOUS
 10
25.0703589412519
 20
92.219298712650286
 30
0.0
 40
11.99999999999908
 50
16.818340346933091
 51
23.87950476336643
  0
ARC
  5
149D8
  8
MSM_CONTINUOUS
 10
38.129000577434688
 20
96.165319108297965
 30
0.0
 40
1.641818340334108
 50
196.7790059073771
 51
209.0000093023468
  0
ARC
  5
149D9
  8
MSM_CONTINUOUS
 10
45.43923097282903
 20
100.21744598467021
 30
0.0
 40
9.9999999999993943
 50
209.00000152727651
 51
221.05699249718
  0
ARC
  5
149DA
  8
MSM_CONTINUOUS
 10
38.04947609063597
 20
93.780713678515724
 30
0.0
 40
0.1999999999999607
 50
221.0569924971773
 51
280.9665046073103
  0
ARC
  5
149DB
  8
MSM_CONTINUOUS
 10
31.9999999502263
 20
125.0000000000727
 30
0.0
 40
32.00000000001161
 50
280.96650460729751
 51
283.03349557093281
  0
ARC
  5
149DC
  8
MSM_CONTINUOUS
 10
39.171556218689858
 20
94.019219172453148
 30
0.0
 40
0.20000000000001
 50
283.03352390957627
 51
342.94300750282292
  0
ARC
  5
149DD
  8
MSM_CONTINUOUS
 10
29.802624322386809
 20
96.893782638865858
 30
0.0
 40
9.9999999999999698
 50
342.94300750282031
 51
354.99999862863632
  0
ARC
  5
149DE
  8
MSM_CONTINUOUS
 10
38.129000577434368
 20
96.165319108297794
 30
0.0
 40
1.6418183403333571
 50
354.99999164728621
 51
7.2209940933904209
  0
ARC
  5
149DF
  8
MSM_CONTINUOUS
 10
51.663654416387409
 20
97.871878162319675
 30
0.0
 40
12.000000000001149
 50
180.1204951444395
 51
187.18165965296109
  0
ARC
  5
149E0
  8
MSM_CONTINUOUS
 10
40.663678741944999
 20
97.848744600099366
 30
0.0
 40
1.0000000000000011
 50
107.69733380342539
 51
180.12048527590471
  0
ARC
  5
149E1
  8
MSM_CONTINUOUS
 10
31.999999950316059
 20
124.9999999997914
 30
0.0
 40
27.499999999716302
 50
287.69733380342279
 51
288.30266619657817
  0
ARC
  5
149E2
  8
MSM_CONTINUOUS
 10
40.950044079248258
 20
97.941790338507573
 30
0.0
 40
1.0000000000000091
 50
35.879513617766271
 51
108.3026661965732
  0
ARC
  5
149E3
  8
MSM_CONTINUOUS
 10
32.037279254209317
 20
91.494882306472363
 30
0.0
 40
11.9999999999987
 50
28.81834034693328
 51
35.879504763366853
  0
ARC
  5
149E4
  8
MSM_CONTINUOUS
 10
43.99013446702272
 20
98.069716951283212
 30
0.0
 40
1.641818340333417
 50
208.77900590737451
 51
221.0000093023493
  0
ARC
  5
149E5
  8
MSM_CONTINUOUS
 10
50.298134238815081
 20
103.55317749504999
 30
0.0
 40
9.9999999999995879
 50
221.00000152727671
 51
233.05699249717989
  0
ARC
  5
149E6
  8
MSM_CONTINUOUS
 10
44.408135127900778
 20
95.720686800933663
 30
0.0
 40
0.2000000000000405
 50
233.05699249718859
 51
292.96650460729728
  0
ARC
  5
149E7
  8
MSM_CONTINUOUS
 10
31.999999950209059
 20
125.0000000001054
 30
0.0
 40
32.000000000048217
 50
292.96650460729882
 51
295.0334955575081
  0
ARC
  5
149E8
  8
MSM_CONTINUOUS
 10
45.456107032473881
 20
96.18727395424699
 30
0.0
 40
0.2000000000000354
 50
295.03352176182852
 51
354.94300750282002
  0
ARC
  5
149E9
  8
MSM_CONTINUOUS
 10
35.69425342600168
 20
97.051110840358803
 30
0.0
 40
10.000000000000121
 50
354.94300750282048
 51
6.9999986286363018
  0
ARC
  5
149EA
  8
MSM_CONTINUOUS
 10
43.99013446702314
 20
98.069716951283425
 30
0.0
 40
1.641818340333228
 50
6.9999916472847747
 51
19.220994093389809
  0
ARC
  5
149EB
  8
MSM_CONTINUOUS
 10
56.874210067952617
 20
102.5529963597745
 30
0.0
 40
11.999999999998209
 50
192.1204951997465
 51
199.1816596529622
  0
ARC
  5
149EC
  8
MSM_CONTINUOUS
 10
46.119419991905261
 20
100.2433447799655
 30
0.0
 40
1.0000000000000051
 50
119.6973338034263
 51
192.12048593959489
  0
ARC
  5
149ED
  8
MSM_CONTINUOUS
 10
31.999999950537578
 20
124.99999999952701
 30
0.0
 40
27.499999999382819
 50
299.69733380341768
 51
300.30266619658062
  0
ARC
  5
149EE
  8
MSM_CONTINUOUS
 10
46.380182262725938
 20
100.3938959472183
 30
0.0
 40
1.0000000000000071
 50
47.879503958418439
 51
120.3026661965731
  0
ARC
  5
149EF
  8
MSM_CONTINUOUS
 10
39.002570282696666
 20
92.234800318896845
 30
0.0
 40
11.999999999998421
 50
40.818340346963112
 51
47.879503958421317
  0
ARC
  5
149F0
  8
MSM_CONTINUOUS
 10
49.327241943178919
 20
101.151097389336
 30
0.0
 40
1.6418183403338
 50
220.77900590715669
 51
233.00000930234771
  0
ARC
  5
149F1
  8
MSM_CONTINUOUS
 10
54.357321232199858
 20
107.8262380621715
 30
0.0
 40
9.9999999999999112
 50
233.00000152727691
 51
245.05699249717969
  0
ARC
  5
149F2
  8
MSM_CONTINUOUS
 10
50.224499117062742
 20
98.940306407886055
 30
0.0
 40
0.2000000000000089
 50
245.0569924971835
 51
304.96650460730098
  0
ARC
  5
149F3
  8
MSM_CONTINUOUS
 10
31.999999950217589
 20
125.0000000000765
 30
0.0
 40
32.000000000018737
 50
304.96650460729768
 51
307.03349555750918
  0
ARC
  5
149F4
  8
MSM_CONTINUOUS
 10
51.152561397198177
 20
99.614583123042038
 30
0.0
 40
0.1999999999999951
 50
307.03352176182187
 51
6.9430075028219687
  0
ARC
  5
149F5
  8
MSM_CONTINUOUS
 10
41.424425925730588
 20
98.429939611780654
 30
0.0
 40
9.9999999999999716
 50
6.9430075028203442
 51
18.99999862863633
  0
ARC
  5
149F6
  8
MSM_CONTINUOUS
 10
49.327241943178471
 20
101.1510973893357
 30
0.0
 40
1.6418183403338671
 50
18.999991647290742
 51
31.220994092390111
  0
ARC
  5
149F7
  8
MSM_CONTINUOUS
 10
60.997643377673683
 20
108.21515632898409
 30
0.0
 40
11.999999999998581
 50
204.12049525895279
 51
211.1816596530989
  0
ARC
  5
149F8
  8
MSM_CONTINUOUS
 10
50.958074833549901
 20
103.7199295885617
 30
0.0
 40
1.0000000000000191
 50
131.69733380342731
 51
204.12048665007001
  0
ARC
  5
149F9
  8
MSM_CONTINUOUS
 10
31.999999950029871
 20
125.0000000002825
 30
0.0
 40
27.50000000029738
 50
311.69733380342802
 51
312.30266619657073
  0
ARC
  5
149FA
  8
MSM_CONTINUOUS
 10
51.181837475376902
 20
103.92140637622551
 30
0.0
 40
0.9999999999999756
 50
59.87950395841775
 51
132.30266619657451
  0
ARC
  5
149FB
  8
MSM_CONTINUOUS
 10
45.661815385593002
 20
94.406714782257907
 30
0.0
 40
12.00000000000089
 50
52.818340346933823
 51
59.879503958420479
  0
ARC
  5
149FC
  8
MSM_CONTINUOUS
 10
53.907065798910601
 20
105.27478931120839
 30
0.0
 40
1.641818340333121
 50
232.77900590737369
 51
245.00000930235129
  0
ARC
  5
149FD
  8
MSM_CONTINUOUS
 10
57.439386003232123
 20
112.84987443483161
 30
0.0
 40
10.00000000000019
 50
245.00000152727691
 51
257.05699263217281
  0
ARC
  5
149FE
  8
MSM_CONTINUOUS
 10
55.244365041784562
 20
103.2988596731002
 30
0.0
 40
0.1999999999999712
 50
257.05699924684819
 51
316.96650460730859
  0
ARC
  5
149FF
  8
MSM_CONTINUOUS
 10
31.999999950204039
 20
125.0000000000835
 30
0.0
 40
32.000000000033111
 50
316.96650460729819
 51
319.03349554281613
  0
ARC
  5
14A00
  8
MSM_CONTINUOUS
 10
56.011956922503458
 20
104.1513568221079
 30
0.0
 40
0.1999999999999829
 50
319.03351941101772
 51
18.943007502826038
  0
ARC
  5
14A01
  8
MSM_CONTINUOUS
 10
46.742705786917661
 20
100.97000751946619
 30
0.0
 40
9.99999999999884
 50
18.943007502819551
 51
30.999998628636959
  0
ARC
  5
14A02
  8
MSM_CONTINUOUS
 10
53.90706579891112
 20
105.27478931120891
 30
0.0
 40
1.6418183403332041
 50
30.999991647288301
 51
43.220994092392537
  0
ARC
  5
14A03
  8
MSM_CONTINUOUS
 10
63.8537405234852
 20
114.6108945092369
 30
0.0
 40
12.000000000000391
 50
216.12049537037231
 51
223.18165965309871
  0
ARC
  5
14A04
  8
MSM_CONTINUOUS
 10
54.968170831857009
 20
108.12655558724749
 30
0.0
 40
1.0000000000000091
 50
143.69733380342569
 51
216.12048798709549
  0
ARC
  5
14A05
  8
MSM_CONTINUOUS
 10
31.999999950115679
 20
125.0000000001433
 30
0.0
 40
27.500000000139561
 50
323.69733380342711
 51
324.30266619657311
  0
ARC
  5
14A06
  8
MSM_CONTINUOUS
 10
55.145154343510249
 20
108.3701524929085
 30
0.0
 40
1.0000000000000211
 50
71.879513617766307
 51
144.30266619657289
  0
ARC
  5
14A07
  8
MSM_CONTINUOUS
 10
51.723973597301942
 20
97.915702612508838
 30
0.0
 40
12.000000000000711
 50
64.818340346933965
 51
71.879504763366327
  0
ARC
  5
14A08
  8
MSM_CONTINUOUS
 10
57.529445755290688
 20
110.2605675922474
 30
0.0
 40
1.6418183403340481
 50
244.77900590737539
 51
257.0000093023462
  0
ARC
  5
14A09
  8
MSM_CONTINUOUS
 10
59.409627532030193
 20
118.4045295974646
 30
0.0
 40
10.00000000000175
 50
257.00000152727802
 51
269.05699263217201
  0
ARC
  5
14A0A
  8
MSM_CONTINUOUS
 10
59.248340673166609
 20
108.60585690422739
 30
0.0
 40
0.2000000000000146
 50
269.05699924685553
 51
328.96650460729552
  0
ARC
  5
14A0B
  8
MSM_CONTINUOUS
 10
31.999999950248011
 20
125.00000000004999
 30
0.0
 40
31.999999999977561
 50
328.9665046072966
 51
331.03349554281817
  0
ARC
  5
14A0C
  8
MSM_CONTINUOUS
 10
59.82191470596706
 20
109.59931627093989
 30
0.0
 40
0.1999999999999791
 50
331.03351941101261
 51
30.943007502821001
  0
ARC
  5
14A0D
  8
MSM_CONTINUOUS
 10
51.416658659687393
 20
104.5603014072495
 30
0.0
 40
10.00000000000068
 50
30.943007502820748
 51
42.999998516299087
  0
ARC
  5
14A0E
  8
MSM_CONTINUOUS
 10
57.529445755290588
 20
110.260567592247
 30
0.0
 40
1.641818340333369
 50
42.999990963064143
 51
55.220994093390779
  0
ARC
  5
14A0F
  8
MSM_CONTINUOUS
 10
65.317676355037776
 20
121.46068645189681
 30
0.0
 40
12.000000000000011
 50
228.1204954463139
 51
235.18165965296171
  0
ARC
  5
14A10
  8
MSM_CONTINUOUS
 10
57.97444754912506
 20
113.2706320745428
 30
0.0
 40
0.9999999999999896
 50
155.6973338034245
 51
228.12048889839801
  0
ARC
  5
14A11
  8
MSM_CONTINUOUS
 10
31.999999950359541
 20
125.0000000000025
 30
0.0
 40
27.49999999985646
 50
335.69733380342501
 51
336.30266619657721
  0
ARC
  5
14A12
  8
MSM_CONTINUOUS
 10
58.096916901884178
 20
113.54570274451601
 30
0.0
 40
1.0000000000000011
 50
83.879503958419264
 51
156.3026661965736
  0
ARC
  5
14A13
  8
MSM_CONTINUOUS
 10
56.924099514507589
 20
102.608404203476
 30
0.0
 40
11.999999999998581
 50
76.818340346933127
 51
83.879503958421296
  0
ARC
  5
14A14
  8
MSM_CONTINUOUS
 10
60.036066426116371
 20
115.89052979714999
 30
0.0
 40
1.6418183403332991
 50
256.77900590737352
 51
269.00000930234921
  0
ARC
  5
14A15
  8
MSM_CONTINUOUS
 10
60.181936809517509
 20
124.2474384652663
 30
0.0
 40
10.00000000000003
 50
269.00000152727682
 51
281.05699269222049
  0
ARC
  5
14A16
  8
MSM_CONTINUOUS
 10
62.061433062910801
 20
114.6293568564692
 30
0.0
 40
0.1999999999999983
 50
281.0570022492314
 51
340.966504607297
  0
ARC
  5
14A17
  8
MSM_CONTINUOUS
 10
31.999999950258061
 20
125.0000000000517
 30
0.0
 40
31.999999999969031
 50
340.96650460729637
 51
343.03349554281829
  0
ARC
  5
14A18
  8
MSM_CONTINUOUS
 10
62.415921310245778
 20
115.7203594994142
 30
0.0
 40
0.2000000000000215
 50
343.03351941101749
 51
42.943007502813238
  0
ARC
  5
14A19
  8
MSM_CONTINUOUS
 10
55.242010375389988
 20
109.0439082040955
 30
0.0
 40
10.00000000000035
 50
42.943007502820642
 51
54.999998449042927
  0
ARC
  5
14A1A
  8
MSM_CONTINUOUS
 10
60.036066426116477
 20
115.89052979715041
 30
0.0
 40
1.641818340333379
 50
54.999990553420048
 51
67.220994093392292
  0
ARC
  5
14A1B
  8
MSM_CONTINUOUS
 10
65.325469851751436
 20
128.46516338012299
 30
0.0
 40
12.00000000000073
 50
240.1204955334824
 51
247.1816596529614
  0
ARC
  5
14A1C
  8
MSM_CONTINUOUS
 10
59.845516267093252
 20
118.92733822393519
 30
0.0
 40
0.9999999999999786
 50
167.69733380342569
 51
240.1204899444181
  0
ARC
  5
14A1D
  8
MSM_CONTINUOUS
 10
31.999999950620079
 20
124.9999999999776
 30
0.0
 40
27.499999999599691
 50
347.69733380342188
 51
348.30266619657988
  0
ARC
  5
14A1E
  8
MSM_CONTINUOUS
 10
59.908118962569517
 20
119.2218607500072
 30
0.0
 40
1.0000000000000111
 50
95.879513617765824
 51
168.3026661965724
  0
ARC
  5
14A1F
  8
MSM_CONTINUOUS
 10
61.034922681654479
 20
108.2797259775502
 30
0.0
 40
11.99999999999806
 50
88.818340346927812
 51
95.879504763367123
  0
ARC
  5
14A20
  8
MSM_CONTINUOUS
 10
61.317376459972969
 20
121.9186195620086
 30
0.0
 40
1.641818340333383
 50
268.77900590741319
 51
281.00000930234961
  0
ARC
  5
14A21
  8
MSM_CONTINUOUS
 10
59.722560214317276
 20
130.1232378833312
 30
0.0
 40
10.00000000000019
 50
281.00000152727682
 51
293.05699269222032
  0
ARC
  5
14A22
  8
MSM_CONTINUOUS
 10
63.560696574870292
 20
121.1061036779529
 30
0.0
 40
0.2000000000000071
 50
293.05700224923697
 51
352.9665046072962
  0
ARC
  5
14A23
  8
MSM_CONTINUOUS
 10
31.999999950262669
 20
125.0000000000579
 30
0.0
 40
31.99999999996577
 50
352.96650460729592
 51
355.03349552668828
  0
ARC
  5
14A24
  8
MSM_CONTINUOUS
 10
63.680606199308052
 20
122.2469675464223
 30
0.0
 40
0.1999999999999982
 50
355.0335168302272
 51
54.943007502825481
  0
ARC
  5
14A25
  8
MSM_CONTINUOUS
 10
58.051574707972712
 20
114.2248727782479
 30
0.0
 40
10.00000000000076
 50
54.943007502820727
 51
66.999998516298916
  0
ARC
  5
14A26
  8
MSM_CONTINUOUS
 10
61.31737645997304
 20
121.918619562009
 30
0.0
 40
1.6418183403332449
 50
66.999990963065144
 51
79.220994093392591
  0
ARC
  5
14A27
  8
MSM_CONTINUOUS
 10
63.876780400421119
 20
135.31819604093991
 30
0.0
 40
11.999999999999419
 50
252.1204954463135
 51
259.18165965296168
  0
ARC
  5
14A28
  8
MSM_CONTINUOUS
 10
60.499602304402593
 20
124.84944883280851
 30
0.0
 40
1.0000000000000011
 50
179.69733380337669
 51
252.1204888983969
  0
ARC
  5
14A29
  8
MSM_CONTINUOUS
 10
31.999999950375631
 20
125.00000000006111
 30
0.0
 40
27.499999999852982
 50
359.69733380342609
 51
0.3026661965762147
  0
ARC
  5
14A2A
  8
MSM_CONTINUOUS
 10
60.499602304402593
 20
125.15055116731411
 30
0.0
 40
1.0000000000000011
 50
107.87950395841909
 51
180.30266619657269
  0
ARC
  5
14A2B
  8
MSM_CONTINUOUS
 10
63.87678040042141
 20
114.68180395918159
 30
0.0
 40
12.000000000000529
 50
100.81834034693379
 51
107.8795039584208
  0
ARC
  5
14A2C
  8
MSM_CONTINUOUS
 10
61.317376459972913
 20
128.081380438114
 30
0.0
 40
1.641818340333679
 50
280.77900590737471
 51
293.00000930234802
  0
ARC
  5
14A2D
  8
MSM_CONTINUOUS
 10
58.051574707972762
 20
135.7751272218747
 30
0.0
 40
10.000000000000689
 50
293.00000152727728
 51
305.05699263217258
  0
ARC
  5
14A2E
  8
MSM_CONTINUOUS
 10
63.680606199308059
 20
127.7530324537003
 30
0.0
 40
0.1999999999999666
 50
305.05699924685013
 51
4.966504607308158
  0
ARC
  5
14A2F
  8
MSM_CONTINUOUS
 10
31.999999950291841
 20
125.000000000068
 30
0.0
 40
31.999999999936421
 50
4.9665046072949313
 51
7.033495508137972
  0
ARC
  5
14A30
  8
MSM_CONTINUOUS
 10
63.560696574870327
 20
128.89389632216981
 30
0.0
 40
0.2000000000000005
 50
7.033513862038772
 51
66.943007502819256
  0
ARC
  5
14A31
  8
MSM_CONTINUOUS
 10
59.722560214317198
 20
119.8767621167913
 30
0.0
 40
10.00000000000029
 50
66.943007502820464
 51
78.999998516299215
  0
ARC
  5
14A32
  8
MSM_CONTINUOUS
 10
61.317376459972948
 20
128.08138043811419
 30
0.0
 40
1.641818340333262
 50
78.999990963064349
 51
91.220994093391724
  0
ARC
  5
14A33
  8
MSM_CONTINUOUS
 10
61.034922681654457
 20
141.72027402257339
 30
0.0
 40
11.999999999998961
 50
264.12049537037183
 51
271.18165965296203
  0
ARC
  5
14A34
  8
MSM_CONTINUOUS
 10
59.908118962569517
 20
130.7781392501154
 30
0.0
 40
0.9999999999999992
 50
191.69733380342771
 51
264.12048798709588
  0
ARC
  5
14A35
  8
MSM_CONTINUOUS
 10
31.999999950337521
 20
125.0000000000845
 30
0.0
 40
27.49999999988864
 50
11.697333803423991
 51
12.30266619657567
  0
ARC
  5
14A36
  8
MSM_CONTINUOUS
 10
59.845516267093281
 20
131.0726617761874
 30
0.0
 40
0.9999999999999953
 50
119.87950395841951
 51
192.30266619657399
  0
ARC
  5
14A37
  8
MSM_CONTINUOUS
 10
65.325469851750313
 20
121.534836620002
 30
0.0
 40
11.999999999998121
 50
112.8183403469481
 51
119.87950395842159
  0
ARC
  5
14A38
  8
MSM_CONTINUOUS
 10
60.036066426116541
 20
134.10947020297201
 30
0.0
 40
1.6418183403331661
 50
292.77900590726472
 51
305.00000588332477
  0
ARC
  5
14A39
  8
MSM_CONTINUOUS
 10
55.24201037539077
 20
140.95609179602619
 30
0.0
 40
9.9999999999991296
 50
305.00000096593419
 51
317.056992692221
  0
ARC
  5
14A3A
  8
MSM_CONTINUOUS
 10
62.4159213102458
 20
134.27964050070841
 30
0.0
 40
0.1999999999999995
 50
317.05700224923112
 51
16.96650460729964
  0
ARC
  5
14A3B
  8
MSM_CONTINUOUS
 10
31.99999995029517
 20
125.00000000008301
 30
0.0
 40
31.999999999930012
 50
16.966504607294919
 51
19.033495508138291
  0
ARC
  5
14A3C
  8
MSM_CONTINUOUS
 10
62.06143306291078
 20
135.3706431436535
 30
0.0
 40
0.2000000000000145
 50
19.033513862034631
 51
78.943007502818503
  0
ARC
  5
14A3D
  8
MSM_CONTINUOUS
 10
60.181936809517488
 20
125.7525615348564
 30
0.0
 40
9.9999999999999645
 50
78.943007502820265
 51
90.999998628636263
  0
ARC
  5
14A3E
  8
MSM_CONTINUOUS
 10
60.036066426116371
 20
134.10947020297249
 30
0.0
 40
1.6418183403334361
 50
90.999991647288169
 51
103.2209940933917
  0
ARC
  5
14A3F
  8
MSM_CONTINUOUS
 10
56.924099514507212
 20
147.3915957966486
 30
0.0
 40
12.000000000000631
 50
276.12049544631418
 51
283.18165965296163
  0
ARC
  5
14A40
  8
MSM_CONTINUOUS
 10
58.096916901884192
 20
136.4542972556066
 30
0.0
 40
1.0000000000000091
 50
203.69733380342379
 51
276.12048889839627
  0
ARC
  5
14A41
  8
MSM_CONTINUOUS
 10
31.999999950217429
 20
125.00000000005539
 30
0.0
 40
27.500000000012609
 50
23.697333803427309
 51
24.302666196576151
  0
ARC
  5
14A42
  8
MSM_CONTINUOUS
 10
57.974447549125067
 20
136.72936792557979
 30
0.0
 40
1.0000000000000071
 50
131.87951361776601
 51
204.30266619657249
  0
ARC
  5
14A43
  8
MSM_CONTINUOUS
 10
65.317676355039481
 20
128.53931354822379
 30
0.0
 40
12.000000000002711
 50
124.8183403469644
 51
131.87950476336579
  0
ARC
  5
14A44
  8
MSM_CONTINUOUS
 10
57.529445755290467
 20
139.73943240787571
 30
0.0
 40
1.641818340333546
 50
304.77900590715672
 51
317.00000588332239
  0
ARC
  5
14A45
  8
MSM_CONTINUOUS
 10
51.416658659688309
 20
145.43969859287239
 30
0.0
 40
9.9999999999995275
 50
317.00000096593442
 51
329.05699249717969
  0
ARC
  5
14A46
  8
MSM_CONTINUOUS
 10
59.821914705967053
 20
140.4006837291827
 30
0.0
 40
0.1999999999999829
 50
329.05699249717452
 51
28.966504607302049
  0
ARC
  5
14A47
  8
MSM_CONTINUOUS
 10
31.999999950181159
 20
125.00000000003391
 30
0.0
 40
32.00000000005479
 50
28.966504607299001
 51
31.03349527726774
  0
ARC
  5
14A48
  8
MSM_CONTINUOUS
 10
59.248340673166616
 20
141.3941430958952
 30
0.0
 40
0.2000000000000039
 50
31.03347692338
 51
90.943007502821203
  0
ARC
  5
14A49
  8
MSM_CONTINUOUS
 10
59.409627532029937
 20
131.5954704026602
 30
0.0
 40
9.999999999999531
 50
90.943007502820123
 51
102.9999987164969
  0
ARC
  5
14A4A
  8
MSM_CONTINUOUS
 10
57.52944575529078
 20
139.7394324078748
 30
0.0
 40
1.6418183403345401
 50
102.9999921824312
 51
115.2209940933857
  0
ARC
  5
14A4B
  8
MSM_CONTINUOUS
 10
51.723973597302113
 20
152.08429738761319
 30
0.0
 40
12.000000000000099
 50
288.12049537037223
 51
295.18165965296168
  0
ARC
  5
14A4C
  8
MSM_CONTINUOUS
 10
55.145154343510228
 20
141.62984750721409
 30
0.0
 40
0.9999999999999847
 50
215.6973338034249
 51
288.12048798709662
  0
ARC
  5
14A4D
  8
MSM_CONTINUOUS
 10
31.999999950068521
 20
124.9999999999451
 30
0.0
 40
27.500000000197819
 50
35.697333803427362
 51
36.302666196572233
  0
ARC
  5
14A4E
  8
MSM_CONTINUOUS
 10
54.96817083185698
 20
141.8734444128751
 30
0.0
 40
0.9999999999999921
 50
143.87950395841949
 51
216.3026661965734
  0
ARC
  5
14A4F
  8
MSM_CONTINUOUS
 10
63.853740523483282
 20
135.3891054908874
 30
0.0
 40
11.99999999999789
 50
136.81834034696291
 51
143.87950395842151
  0
ARC
  5
14A50
  8
MSM_CONTINUOUS
 10
53.907065798910587
 20
144.72521068891399
 30
0.0
 40
1.6418183403338169
 50
316.77900590715763
 51
329.00000588332222
  0
ARC
  5
14A51
  8
MSM_CONTINUOUS
 10
46.742705786916211
 20
149.0299924806572
 30
0.0
 40
10.000000000000419
 50
329.00000096593499
 51
341.05699263217292
  0
ARC
  5
14A52
  8
MSM_CONTINUOUS
 10
56.011956922503423
 20
145.8486431780147
 30
0.0
 40
0.2000000000000066
 50
341.05699924685712
 51
40.966504607301182
  0
ARC
  5
14A53
  8
MSM_CONTINUOUS
 10
31.999999950218431
 20
125.0000000000522
 30
0.0
 40
32.000000000013678
 50
40.966504607297637
 51
43.033495299439998
  0
ARC
  5
14A54
  8
MSM_CONTINUOUS
 10
55.244365041784548
 20
146.70114032702239
 30
0.0
 40
0.2000000000000175
 50
43.033480470742113
 51
102.94300750282061
  0
ARC
  5
14A55
  8
MSM_CONTINUOUS
 10
57.439386003232428
 20
137.15012556529021
 30
0.0
 40
10.000000000001149
 50
102.9430075028212
 51
114.9999985162989
  0
ARC
  5
14A56
  8
MSM_CONTINUOUS
 10
53.907065798910907
 20
144.72521068891379
 30
0.0
 40
1.6418183403337221
 50
114.9999909630674
 51
127.2209940933905
  0
ARC
  5
14A57
  8
MSM_CONTINUOUS
 10
45.661815385593897
 20
155.59328521786341
 30
0.0
 40
11.999999999999311
 50
300.12049544631361
 51
307.18165965296163
  0
ARC
  5
14A58
  8
MSM_CONTINUOUS
 10
51.181837475376803
 20
146.07859362389709
 30
0.0
 40
0.9999999999999898
 50
227.6973064826698
 51
300.12048889840452
  0
ARC
  5
14A59
  8
MSM_CONTINUOUS
 10
31.999999950410501
 20
125.0000000002633
 30
0.0
 40
27.499999999728178
 50
47.697334796904492
 51
48.302666196577569
  0
ARC
  5
14A5A
  8
MSM_CONTINUOUS
 10
50.958074833549858
 20
146.28007041156101
 30
0.0
 40
0.9999999999999872
 50
155.8795039584183
 51
228.3026661965732
  0
ARC
  5
14A5B
  8
MSM_CONTINUOUS
 10
60.997643377673498
 20
141.7848436711387
 30
0.0
 40
11.999999999998391
 50
148.8183403469481
 51
155.87950395842151
  0
ARC
  5
14A5C
  8
MSM_CONTINUOUS
 10
49.327241943178777
 20
148.84890261078669
 30
0.0
 40
1.6418183403334841
 50
328.7790059072654
 51
341.00000588332279
  0
ARC
  5
14A5D
  8
MSM_CONTINUOUS
 10
41.424425925731278
 20
151.5700603883418
 30
0.0
 40
9.9999999999992522
 50
341.0000009659343
 51
353.05699263217332
  0
ARC
  5
14A5E
  8
MSM_CONTINUOUS
 10
51.152561397198127
 20
150.38541687708059
 30
0.0
 40
0.2000000000000211
 50
353.05699924685092
 51
52.966504607298234
  0
ARC
  5
14A5F
  8
MSM_CONTINUOUS
 10
31.99999995024131
 20
125.0000000000786
 30
0.0
 40
31.99999999997857
 50
52.966504607296791
 51
55.033495299441448
  0
ARC
  5
14A60
  8
MSM_CONTINUOUS
 10
50.224499117062742
 20
151.05969359223661
 30
0.0
 40
0.1999999999999815
 50
55.033480470731448
 51
114.9430075028236
  0
ARC
  5
14A61
  8
MSM_CONTINUOUS
 10
54.35732123219978
 20
142.17376193795141
 30
0.0
 40
9.9999999999997211
 50
114.94300750282019
 51
126.9999986286367
  0
ARC
  5
14A62
  8
MSM_CONTINUOUS
 10
49.327241943178137
 20
148.84890261078741
 30
0.0
 40
1.641818340332698
 50
126.9999916472849
 51
139.2209940933943
  0
ARC
  5
14A63
  8
MSM_CONTINUOUS
 10
39.002570282695828
 20
157.76519968122659
 30
0.0
 40
11.999999999999581
 50
312.12049560299431
 51
319.18165965296168
  0
ARC
  5
14A64
  8
MSM_CONTINUOUS
 10
46.380182262725839
 20
149.6061040529043
 30
0.0
 40
0.9999999999999957
 50
239.6973611241846
 51
312.12049077857301
  0
ARC
  5
14A65
  8
MSM_CONTINUOUS
 10
31.999999950239559
 20
125.0000000000812
 30
0.0
 40
27.499999999977259
 50
59.697332809942118
 51
60.302666196573853
  0
ARC
  5
14A66
  8
MSM_CONTINUOUS
 10
46.119419991905232
 20
149.7566552201572
 30
0.0
 40
0.9999999999999893
 50
167.8795136177647
 51
240.3026661965751
  0
ARC
  5
14A67
  8
MSM_CONTINUOUS
 10
56.874210067956369
 20
147.44700364034711
 30
0.0
 40
12.00000000000211
 50
160.81834034698451
 51
167.87950476336579
  0
ARC
  5
14A68
  8
MSM_CONTINUOUS
 10
43.990134467022862
 20
151.9302830488393
 30
0.0
 40
1.6418183403334921
 50
340.77900590700727
 51
353.00000588332182
  0
ARC
  5
14A69
  8
MSM_CONTINUOUS
 10
35.694253426001637
 20
152.94888915976381
 30
0.0
 40
10.000000000000149
 50
353.00000096593459
 51
5.0569926321729728
  0
ARC
  5
14A6A
  8
MSM_CONTINUOUS
 10
45.456107032473881
 20
153.81272604587571
 30
0.0
 40
0.200000000000017
 50
5.0569992468549776
 51
64.966504607291256
  0
ARC
  5
14A6B
  8
MSM_CONTINUOUS
 10
31.999999950227512
 20
125.000000000059
 30
0.0
 40
32.000000000002579
 50
64.966504607297196
 51
67.033495392702591
  0
ARC
  5
14A6C
  8
MSM_CONTINUOUS
 10
44.408135127900749
 20
154.279313199189
 30
0.0
 40
0.2000000000000106
 50
67.033495392703216
 51
126.9430075028187
  0
ARC
  5
14A6D
  8
MSM_CONTINUOUS
 10
50.298134238815059
 20
146.44682250507259
 30
0.0
 40
9.9999999999995985
 50
126.94300750282
 51
138.99999871649689
  0
ARC
  5
14A6E
  8
MSM_CONTINUOUS
 10
43.99013446702277
 20
151.93028304883941
 30
0.0
 40
1.64181834033352
 50
138.99999218242769
 51
151.22099409339029
  0
ARC
  5
14A6F
  8
MSM_CONTINUOUS
 10
32.037279254208052
 20
158.5051176936511
 30
0.0
 40
12.00000000000019
 50
324.12049537037188
 51
331.18165965296163
  0
ARC
  5
14A70
  8
MSM_CONTINUOUS
 10
40.950044079248258
 20
152.05820966161511
 30
0.0
 40
1.0000000000000191
 50
251.6973338034266
 51
324.12048798709429
  0
ARC
  5
14A71
  8
MSM_CONTINUOUS
 10
31.999999950386002
 20
125.0000000005472
 30
0.0
 40
27.499999999489251
 50
71.6973338034188
 51
72.302666196579267
  0
ARC
  5
14A72
  8
MSM_CONTINUOUS
 10
40.663678741944999
 20
152.1512554000233
 30
0.0
 40
1.0000000000000091
 50
179.87950395838169
 51
252.3026661965732
  0
ARC
  5
14A73
  8
MSM_CONTINUOUS
 10
51.663654416385448
 20
152.12812183780309
 30
0.0
 40
11.99999999999921
 50
172.81834034699969
 51
179.87950395841739
  0
ARC
  5
14A74
  8
MSM_CONTINUOUS
 10
38.129000577433658
 20
153.83468089182489
 30
0.0
 40
1.6418183403340461
 50
352.779005906892
 51
5.0000058833201599
  0
ARC
  5
14A75
  8
MSM_CONTINUOUS
 10
29.802624322386571
 20
153.1062173612568
 30
0.0
 40
10.000000000000201
 50
5.0000009659349791
 51
17.056992692220419
  0
ARC
  5
14A76
  8
MSM_CONTINUOUS
 10
39.171556218689886
 20
155.98078082766949
 30
0.0
 40
0.1999999999999567
 50
17.057002249218719
 51
76.96650460730136
  0
ARC
  5
14A77
  8
MSM_CONTINUOUS
 10
31.999999950248519
 20
125.000000000155
 30
0.0
 40
31.999999999904201
 50
76.966504607294056
 51
79.033495392705873
  0
ARC
  5
14A78
  8
MSM_CONTINUOUS
 10
38.049476090635977
 20
156.21928632160689
 30
0.0
 40
0.2000000000000079
 50
79.033495392704808
 51
138.9430075028188
  0
ARC
  5
14A79
  8
MSM_CONTINUOUS
 10
45.439230972829101
 20
149.78255401545229
 30
0.0
 40
9.9999999999995346
 50
138.94300750282
 51
150.99999889998969
  0
ARC
  5
14A7A
  8
MSM_CONTINUOUS
 10
38.1290005774337
 20
153.83468089182509
 30
0.0
 40
1.6418183403330551
 50
150.9999933000463
 51
163.22099409339231
  0
ARC
  5
14A7B
  8
MSM_CONTINUOUS
 10
25.070358941252589
 20
157.78070128747211
 30
0.0
 40
11.99999999999835
 50
336.12049553348152
 51
343.18165965296203
  0
ARC
  5
14A7C
  8
MSM_CONTINUOUS
 10
35.128746020255811
 20
153.3277416684204
 30
0.0
 40
0.9999999999999831
 50
263.69733380342478
 51
336.12048994441682
  0
ARC
  5
14A7D
  8
MSM_CONTINUOUS
 10
31.999999950245002
 20
125.000000000217
 30
0.0
 40
27.499999999843499
 50
83.69733380342376
 51
84.302666196576382
  0
ARC
  5
14A7E
  8
MSM_CONTINUOUS
 10
34.829293155843438
 20
153.35921543273261
 30
0.0
 40
1.0000000000000071
 50
191.8795039584202
 51
264.30266619657402
  0
ARC
  5
14A7F
  8
MSM_CONTINUOUS
 10
45.59370270796375
 20
155.62361093577761
 30
0.0
 40
11.999999999999529
 50
184.81834034700501
 51
191.87950395842071
  0
ARC
  5
14A80
  8
MSM_CONTINUOUS
 10
31.99999995022845
 20
154.47886481569009
 30
0.0
 40
1.6418183403337161
 50
4.7790059068525714
 51
17.000005883322011
  0
ARC
  5
14A81
  8
MSM_CONTINUOUS
 10
24.007031077886921
 20
152.03516899547131
 30
0.0
 40
9.9999999999996252
 50
17.000000965934589
 51
29.056992632173412
  0
CIRCLE
  5
14A82
  8
MSM_CENTER
 10
31.999999950228609
 20
125.00000000006131
 30
0.0
 40
30.0
  0
LINE
  5
14A83
  8
MSM_CENTER
 10
-2.000000049771387
 20
125.00000000006131
 30
0.0
 11
65.999999950228613
 21
125.00000000006131
 31
0.0
  0
LINE
  5
14A84
  8
MSM_CENTER
 10
31.999999950228609
 20
91.000000000061334
 30
0.0
 11
31.999999950228609
 21
159.00000000006131
 31
0.0
  0
LINE
  5
14A85
  8
MSM_CENTER
 10
24.168792348587601
 20
132.83120760170229
 30
0.0
 11
26.396178709325209
 21
130.60382124096469
 31
0.0
  0
LINE
  5
14A86
  8
MSM_CENTER
 10
39.831207551869618
 20
117.16879239842029
 30
0.0
 11
37.603821191131992
 21
119.39617875915791
 31
0.0
  0
CIRCLE
  5
14A87
  8
MSM_CONTINUOUS
 10
25.282485528956411
 20
131.7175144213335
 30
0.0
 40
1.229499999999998
  0
CIRCLE
  5
14A88
  8
MSM_CONTINUOUS
 10
38.717514371500812
 20
118.28248557878911
 30
0.0
 40
1.2295
  0
CIRCLE
  5
14A89
  8
MSM_CONTINUOUS
 10
31.999999950228609
 20
125.00000000006131
 30
0.0
 40
12.75
  0
CIRCLE
  5
14A8A
  8
MSM_CONTINUOUS
 10
31.999999950228609
 20
125.00000000006131
 30
0.0
 40
4.0
  0
CIRCLE
  5
14A8B
  8
MSM_NARROW
 10
38.717514371500819
 20
118.28248557878911
 30
0.0
 40
1.5
  0
CIRCLE
  5
14A8C
  8
MSM_NARROW
 10
25.282485528956411
 20
131.7175144213335
 30
0.0
 40
1.5
  0
CIRCLE
  5
14A8D
  8
MSM_CONTINUOUS
 10
31.999999950228609
 20
134.50000000006131
 30
0.0
 40
2.75
  0
CIRCLE
  5
14A8E
  8
MSM_CONTINUOUS
 10
31.999999950228609
 20
134.50000000006131
 30
0.0
 40
1.443375672974063
  0
CIRCLE
  5
14A8F
  8
MSM_CONTINUOUS
 10
31.999999950228609
 20
134.50000000006131
 30
0.0
 40
2.4500000000000002
  0
LINE
  5
14A90
  8
MSM_CONTINUOUS
 10
30.749999950228609
 20
135.22168783654831
 30
0.0
 11
30.749999950228609
 21
133.7783121635743
 31
0.0
  0
LINE
  5
14A91
  8
MSM_CONTINUOUS
 10
30.749999950228609
 20
133.7783121635743
 30
0.0
 11
31.999999950228609
 21
133.05662432708721
 31
0.0
  0
LINE
  5
14A92
  8
MSM_CONTINUOUS
 10
31.999999950228609
 20
133.05662432708721
 30
0.0
 11
33.249999950228613
 21
133.7783121635743
 31
0.0
  0
LINE
  5
14A93
  8
MSM_CONTINUOUS
 10
33.249999950228613
 20
133.7783121635743
 30
0.0
 11
33.249999950228613
 21
135.22168783654831
 31
0.0
  0
CIRCLE
  5
14A94
  8
MSM_CONTINUOUS
 10
31.999999950228609
 20
115.50000000006131
 30
0.0
 40
2.75
  0
CIRCLE
  5
14A95
  8
MSM_CONTINUOUS
 10
31.999999950228609
 20
115.50000000006131
 30
0.0
 40
2.4500000000000002
  0
CIRCLE
  5
14A96
  8
MSM_CONTINUOUS
 10
41.499999950228599
 20
125.00000000006131
 30
0.0
 40
2.75
  0
CIRCLE
  5
14A97
  8
MSM_CONTINUOUS
 10
41.499999950228599
 20
125.00000000006131
 30
0.0
 40
1.443375672974063
  0
CIRCLE
  5
14A98
  8
MSM_CONTINUOUS
 10
41.499999950228599
 20
125.00000000006131
 30
0.0
 40
2.4500000000000002
  0
LINE
  5
14A99
  8
MSM_CONTINUOUS
 10
42.749999950228599
 20
125.7216878365484
 30
0.0
 11
41.499999950228599
 21
126.4433756730354
 31
0.0
  0
LINE
  5
14A9A
  8
MSM_CONTINUOUS
 10
41.499999950228599
 20
126.4433756730354
 30
0.0
 11
40.249999950228599
 21
125.7216878365484
 31
0.0
  0
LINE
  5
14A9B
  8
MSM_CONTINUOUS
 10
40.249999950228599
 20
125.7216878365484
 30
0.0
 11
40.249999950228599
 21
124.2783121635743
 31
0.0
  0
LINE
  5
14A9C
  8
MSM_CONTINUOUS
 10
40.249999950228599
 20
124.2783121635743
 30
0.0
 11
41.499999950228599
 21
123.55662432708721
 31
0.0
  0
LINE
  5
14A9D
  8
MSM_CONTINUOUS
 10
41.499999950228599
 20
123.55662432708721
 30
0.0
 11
42.749999950228599
 21
124.2783121635743
 31
0.0
  0
CIRCLE
  5
14A9E
  8
MSM_CONTINUOUS
 10
22.499999950228609
 20
125.00000000006131
 30
0.0
 40
2.75
  0
CIRCLE
  5
14A9F
  8
MSM_CONTINUOUS
 10
22.499999950228609
 20
125.00000000006131
 30
0.0
 40
2.4500000000000002
  0
CIRCLE
  5
14AA0
  8
MSM_CENTER
 10
31.999999950228609
 20
125.00000000006131
 30
0.0
 40
9.5
  0
LINE
  5
14AA1
  8
MSM_CONTINUOUS
 10
33.249999950228613
 20
135.22168783654831
 30
0.0
 11
31.999999950228609
 21
135.9433756730354
 31
0.0
  0
LINE
  5
14AA2
  8
MSM_CONTINUOUS
 10
31.999999950228609
 20
135.9433756730354
 30
0.0
 11
30.749999950228609
 21
135.22168783654831
 31
0.0
  0
LINE
  5
14AA3
  8
MSM_CONTINUOUS
 10
42.749999950228599
 20
124.2783121635743
 30
0.0
 11
42.749999950228599
 21
125.7216878365484
 31
0.0
  0
LINE
  5
14AA4
  8
MSM_CENTER
 10
78.249999950212754
 20
134.50000000006131
 30
0.0
 11
96.120344713979861
 21
134.50000000006131
 31
0.0
  0
LINE
  5
14AA5
  8
MSM_CONTINUOUS
 10
80.299999950212737
 20
135.9433756730354
 30
0.0
 11
80.299999950212737
 21
133.05662432708721
 31
0.0
  0
LINE
  5
14AA6
  8
MSM_CONTINUOUS
 10
78.999999950212754
 20
135.9433756730354
 30
0.0
 11
80.299999950212737
 21
135.9433756730354
 31
0.0
  0
LINE
  5
14AA7
  8
MSM_CONTINUOUS
 10
78.999999950212754
 20
135.22168783654831
 30
0.0
 11
80.299999950212737
 21
135.22168783654831
 31
0.0
  0
LINE
  5
14AA8
  8
MSM_CONTINUOUS
 10
78.999999950212754
 20
133.7783121635743
 30
0.0
 11
80.299999950212737
 21
133.7783121635743
 31
0.0
  0
LINE
  5
14AA9
  8
MSM_CONTINUOUS
 10
78.999999950212754
 20
133.05662432708721
 30
0.0
 11
80.299999950212737
 21
133.05662432708721
 31
0.0
  0
LINE
  5
14AAA
  8
MSM_CONTINUOUS
 10
80.299999950212737
 20
135.9433756730354
 30
0.0
 11
81.133333283546079
 21
134.50000000006131
 31
0.0
  0
LINE
  5
14AAB
  8
MSM_CONTINUOUS
 10
81.133333283546079
 20
134.50000000006131
 30
0.0
 11
80.299999950212737
 21
133.05662432708721
 31
0.0
  0
LINE
  5
14AAC
  8
MSM_CONTINUOUS
 10
79.299999950212737
 20
137.25000000006131
 30
0.0
 11
81.999999950212754
 21
137.25000000006131
 31
0.0
  0
LINE
  5
14AAD
  8
MSM_CONTINUOUS
 10
79.299999950212737
 20
131.75000000006131
 30
0.0
 11
81.999999950212754
 21
131.75000000006131
 31
0.0
  0
LINE
  5
14AAE
  8
MSM_CONTINUOUS
 10
78.999999950212754
 20
136.95000000006129
 30
0.0
 11
78.999999950212754
 21
132.05000000006129
 31
0.0
  0
LINE
  5
14AAF
  8
MSM_CONTINUOUS
 10
79.299999950212737
 20
131.75000000006131
 30
0.0
 11
78.999999950212754
 21
132.05000000006129
 31
0.0
  0
LINE
  5
14AB0
  8
MSM_CONTINUOUS
 10
78.999999950212754
 20
136.95000000006129
 30
0.0
 11
79.299999950212737
 21
137.25000000006131
 31
0.0
  0
LINE
  5
14AB1
  8
MSM_CENTER
 10
78.249999950212754
 20
115.50000000006131
 30
0.0
 11
96.120344713979861
 21
115.50000000006131
 31
0.0
  0
LINE
  5
14AB2
  8
MSM_CONTINUOUS
 10
80.299999950212737
 20
116.9433756730354
 30
0.0
 11
80.299999950212737
 21
114.05662432708721
 31
0.0
  0
LINE
  5
14AB3
  8
MSM_CONTINUOUS
 10
78.999999950212754
 20
116.9433756730354
 30
0.0
 11
80.299999950212737
 21
116.9433756730354
 31
0.0
  0
LINE
  5
14AB4
  8
MSM_CONTINUOUS
 10
78.999999950212754
 20
116.2216878365484
 30
0.0
 11
80.299999950212737
 21
116.2216878365484
 31
0.0
  0
LINE
  5
14AB5
  8
MSM_CONTINUOUS
 10
78.999999950212754
 20
114.7783121635743
 30
0.0
 11
80.299999950212737
 21
114.7783121635743
 31
0.0
  0
LINE
  5
14AB6
  8
MSM_CONTINUOUS
 10
78.999999950212754
 20
114.05662432708721
 30
0.0
 11
80.299999950212737
 21
114.05662432708721
 31
0.0
  0
LINE
  5
14AB7
  8
MSM_CONTINUOUS
 10
80.299999950212737
 20
116.9433756730354
 30
0.0
 11
81.133333283546079
 21
115.50000000006131
 31
0.0
  0
LINE
  5
14AB8
  8
MSM_CONTINUOUS
 10
81.133333283546079
 20
115.50000000006131
 30
0.0
 11
80.299999950212737
 21
114.05662432708721
 31
0.0
  0
LINE
  5
14AB9
  8
MSM_CONTINUOUS
 10
79.299999950212737
 20
118.25000000006131
 30
0.0
 11
81.999999950212754
 21
118.25000000006131
 31
0.0
  0
LINE
  5
14ABA
  8
MSM_CONTINUOUS
 10
79.299999950212737
 20
112.75000000006131
 30
0.0
 11
81.999999950212754
 21
112.75000000006131
 31
0.0
  0
LINE
  5
14ABB
  8
MSM_CONTINUOUS
 10
78.999999950212754
 20
117.95000000006129
 30
0.0
 11
78.999999950212754
 21
113.0500000000613
 31
0.0
  0
LINE
  5
14ABC
  8
MSM_CONTINUOUS
 10
79.299999950212737
 20
112.75000000006131
 30
0.0
 11
78.999999950212754
 21
113.0500000000613
 31
0.0
  0
LINE
  5
14ABD
  8
MSM_CONTINUOUS
 10
78.999999950212754
 20
117.95000000006129
 30
0.0
 11
79.299999950212737
 21
118.25000000006131
 31
0.0
  0
LINE
  5
14ABE
  8
MSM_CENTER
 10
121.749999999983
 20
134.50000000006131
 30
0.0
 11
139.6203447637501
 21
134.50000000006131
 31
0.0
  0
LINE
  5
14ABF
  8
MSM_CONTINUOUS
 10
123.799999999983
 20
135.9433756730354
 30
0.0
 11
123.799999999983
 21
133.05662432708721
 31
0.0
  0
LINE
  5
14AC0
  8
MSM_CONTINUOUS
 10
122.499999999983
 20
135.9433756730354
 30
0.0
 11
123.799999999983
 21
135.9433756730354
 31
0.0
  0
LINE
  5
14AC1
  8
MSM_CONTINUOUS
 10
122.499999999983
 20
135.22168783654831
 30
0.0
 11
123.799999999983
 21
135.22168783654831
 31
0.0
  0
LINE
  5
14AC2
  8
MSM_CONTINUOUS
 10
122.499999999983
 20
133.7783121635743
 30
0.0
 11
123.799999999983
 21
133.7783121635743
 31
0.0
  0
LINE
  5
14AC3
  8
MSM_CONTINUOUS
 10
122.499999999983
 20
133.05662432708721
 30
0.0
 11
123.799999999983
 21
133.05662432708721
 31
0.0
  0
LINE
  5
14AC4
  8
MSM_CONTINUOUS
 10
123.799999999983
 20
135.9433756730354
 30
0.0
 11
124.6333333333163
 21
134.50000000006131
 31
0.0
  0
LINE
  5
14AC5
  8
MSM_CONTINUOUS
 10
124.6333333333163
 20
134.50000000006131
 30
0.0
 11
123.799999999983
 21
133.05662432708721
 31
0.0
  0
LINE
  5
14AC6
  8
MSM_CONTINUOUS
 10
122.799999999983
 20
137.25000000006131
 30
0.0
 11
125.499999999983
 21
137.25000000006131
 31
0.0
  0
LINE
  5
14AC7
  8
MSM_CONTINUOUS
 10
122.799999999983
 20
131.75000000006131
 30
0.0
 11
125.499999999983
 21
131.75000000006131
 31
0.0
  0
LINE
  5
14AC8
  8
MSM_CONTINUOUS
 10
122.499999999983
 20
136.95000000006129
 30
0.0
 11
122.499999999983
 21
132.05000000006129
 31
0.0
  0
LINE
  5
14AC9
  8
MSM_CONTINUOUS
 10
122.799999999983
 20
131.75000000006131
 30
0.0
 11
122.499999999983
 21
132.05000000006129
 31
0.0
  0
LINE
  5
14ACA
  8
MSM_CONTINUOUS
 10
122.499999999983
 20
136.95000000006129
 30
0.0
 11
122.799999999983
 21
137.25000000006131
 31
0.0
  0
LINE
  5
14ACB
  8
MSM_CENTER
 10
121.749999999983
 20
115.50000000006131
 30
0.0
 11
139.6203447637501
 21
115.50000000006131
 31
0.0
  0
LINE
  5
14ACC
  8
MSM_CONTINUOUS
 10
123.799999999983
 20
116.9433756730354
 30
0.0
 11
123.799999999983
 21
114.05662432708721
 31
0.0
  0
LINE
  5
14ACD
  8
MSM_CONTINUOUS
 10
122.499999999983
 20
116.9433756730354
 30
0.0
 11
123.799999999983
 21
116.9433756730354
 31
0.0
  0
LINE
  5
14ACE
  8
MSM_CONTINUOUS
 10
122.499999999983
 20
116.2216878365484
 30
0.0
 11
123.799999999983
 21
116.2216878365484
 31
0.0
  0
LINE
  5
14ACF
  8
MSM_CONTINUOUS
 10
122.499999999983
 20
114.7783121635743
 30
0.0
 11
123.799999999983
 21
114.7783121635743
 31
0.0
  0
LINE
  5
14AD0
  8
MSM_CONTINUOUS
 10
122.499999999983
 20
114.05662432708721
 30
0.0
 11
123.799999999983
 21
114.05662432708721
 31
0.0
  0
LINE
  5
14AD1
  8
MSM_CONTINUOUS
 10
123.799999999983
 20
116.9433756730354
 30
0.0
 11
124.6333333333163
 21
115.50000000006131
 31
0.0
  0
LINE
  5
14AD2
  8
MSM_CONTINUOUS
 10
124.6333333333163
 20
115.50000000006131
 30
0.0
 11
123.799999999983
 21
114.05662432708721
 31
0.0
  0
LINE
  5
14AD3
  8
MSM_CONTINUOUS
 10
122.799999999983
 20
118.25000000006131
 30
0.0
 11
125.499999999983
 21
118.25000000006131
 31
0.0
  0
LINE
  5
14AD4
  8
MSM_CONTINUOUS
 10
122.799999999983
 20
112.75000000006131
 30
0.0
 11
125.499999999983
 21
112.75000000006131
 31
0.0
  0
LINE
  5
14AD5
  8
MSM_CONTINUOUS
 10
122.499999999983
 20
117.95000000006129
 30
0.0
 11
122.499999999983
 21
113.0500000000613
 31
0.0
  0
LINE
  5
14AD6
  8
MSM_CONTINUOUS
 10
122.799999999983
 20
112.75000000006131
 30
0.0
 11
122.499999999983
 21
113.0500000000613
 31
0.0
  0
LINE
  5
14AD7
  8
MSM_CONTINUOUS
 10
122.499999999983
 20
117.95000000006129
 30
0.0
 11
122.799999999983
 21
118.25000000006131
 31
0.0
  0
CIRCLE
  5
14AD8
  8
MSM_CONTINUOUS
 10
22.499999950228609
 20
125.00000000006131
 30
0.0
 40
1.443375672974063
  0
LINE
  5
14AD9
  8
MSM_CONTINUOUS
 10
21.249999950228609
 20
125.7216878365484
 30
0.0
 11
21.249999950228609
 21
124.2783121635743
 31
0.0
  0
LINE
  5
14ADA
  8
MSM_CONTINUOUS
 10
21.249999950228609
 20
124.2783121635743
 30
0.0
 11
22.499999950228609
 21
123.55662432708721
 31
0.0
  0
LINE
  5
14ADB
  8
MSM_CONTINUOUS
 10
22.499999950228609
 20
123.55662432708721
 30
0.0
 11
23.749999950228609
 21
124.2783121635743
 31
0.0
  0
LINE
  5
14ADC
  8
MSM_CONTINUOUS
 10
23.749999950228609
 20
124.2783121635743
 30
0.0
 11
23.749999950228609
 21
125.7216878365484
 31
0.0
  0
LINE
  5
14ADD
  8
MSM_CONTINUOUS
 10
23.749999950228609
 20
125.7216878365484
 30
0.0
 11
22.499999950228609
 21
126.4433756730354
 31
0.0
  0
LINE
  5
14ADE
  8
MSM_CONTINUOUS
 10
22.499999950228609
 20
126.4433756730354
 30
0.0
 11
21.249999950228609
 21
125.7216878365484
 31
0.0
  0
CIRCLE
  5
14ADF
  8
MSM_CONTINUOUS
 10
31.999999950228609
 20
115.50000000006131
 30
0.0
 40
1.443375672974063
  0
LINE
  5
14AE0
  8
MSM_CONTINUOUS
 10
30.749999950228609
 20
116.2216878365484
 30
0.0
 11
30.749999950228609
 21
114.7783121635743
 31
0.0
  0
LINE
  5
14AE1
  8
MSM_CONTINUOUS
 10
30.749999950228609
 20
114.7783121635743
 30
0.0
 11
31.999999950228609
 21
114.05662432708721
 31
0.0
  0
LINE
  5
14AE2
  8
MSM_CONTINUOUS
 10
31.999999950228609
 20
114.05662432708721
 30
0.0
 11
33.249999950228613
 21
114.7783121635743
 31
0.0
  0
LINE
  5
14AE3
  8
MSM_CONTINUOUS
 10
33.249999950228613
 20
114.7783121635743
 30
0.0
 11
33.249999950228613
 21
116.2216878365484
 31
0.0
  0
LINE
  5
14AE4
  8
MSM_CONTINUOUS
 10
33.249999950228613
 20
116.2216878365484
 30
0.0
 11
31.999999950228609
 21
116.9433756730354
 31
0.0
  0
LINE
  5
14AE5
  8
MSM_CONTINUOUS
 10
31.999999950228609
 20
116.9433756730354
 30
0.0
 11
30.749999950228609
 21
116.2216878365484
 31
0.0
  0
LINE
  5
14B4B
  8
MSM_CENTER
 10
41.158218645080531
 20
47.287500000079099
 30
0.0
 11
38.430238623170631
 21
45.712500000059912
 31
0.0
  0
LINE
  5
14B4C
  8
MSM_CENTER
 10
22.841781355051062
 20
47.287500000079667
 30
0.0
 11
25.569761376960319
 21
45.712500000059343
 31
0.0
  0
LINE
  5
14B4D
  8
MSM_CENTER
 10
21.70512301257812
 20
36.056250000069511
 30
0.0
 11
26.70641971943326
 21
38.943750000069521
 31
0.0
  0
LINE
  5
14B4E
  8
MSM_CENTER
 10
42.29487698756391
 20
36.056250000088141
 30
0.0
 11
37.293580280687252
 21
38.94375000005089
 31
0.0
  0
CIRCLE
  5
14B4F
  8
MSM_CONTINUOUS
 10
24.205771366005688
 20
46.50000000006952
 30
0.0
 40
1.2295
  0
CIRCLE
  5
14B50
  8
MSM_CONTINUOUS
 10
32.000000000065633
 20
33.00000000006952
 30
0.0
 40
1.2295
  0
CIRCLE
  5
14B51
  8
MSM_CONTINUOUS
 10
39.794228634125588
 20
46.50000000006952
 30
0.0
 40
1.2295
  0
CIRCLE
  5
14B52
  8
MSM_CONTINUOUS
 10
32.000000000065633
 20
42.000000000069512
 30
0.0
 40
4.0
  0
CIRCLE
  5
14B53
  8
MSM_CONTINUOUS
 10
24.205771366005688
 20
37.50000000006952
 30
0.0
 40
2.7499999999999991
  0
CIRCLE
  5
14B54
  8
MSM_CONTINUOUS
 10
24.205771366005688
 20
37.50000000006952
 30
0.0
 40
2.2499999999999991
  0
CIRCLE
  5
14B55
  8
MSM_CONTINUOUS
 10
39.794228634125588
 20
37.50000000006952
 30
0.0
 40
2.7499999999999991
  0
CIRCLE
  5
14B56
  8
MSM_CONTINUOUS
 10
39.794228634125588
 20
37.50000000006952
 30
0.0
 40
2.2499999999999991
  0
LINE
  5
14B57
  8
MSM_CONTINUOUS
 10
32.000000000065633
 20
49.556624327095442
 30
0.0
 11
33.250000000065633
 21
50.278312163582477
 31
0.0
  0
LINE
  5
14B58
  8
MSM_CONTINUOUS
 10
30.750000000065629
 20
50.278312163582477
 30
0.0
 11
32.000000000065633
 21
49.556624327095442
 31
0.0
  0
LINE
  5
14B59
  8
MSM_CONTINUOUS
 10
30.750000000065629
 20
51.721687836556526
 30
0.0
 11
30.750000000065629
 21
50.278312163582477
 31
0.0
  0
LINE
  5
14B5A
  8
MSM_CONTINUOUS
 10
33.250000000065633
 20
50.278312163582477
 30
0.0
 11
33.250000000065633
 21
51.721687836556526
 31
0.0
  0
CIRCLE
  5
14B5B
  8
MSM_CONTINUOUS
 10
24.205771366005688
 20
37.50000000006952
 30
0.0
 40
1.4433756729740559
  0
LINE
  5
14B5C
  8
MSM_CONTINUOUS
 10
24.205771366005688
 20
36.056624327095449
 30
0.0
 11
25.455771366005688
 21
36.778312163582477
 31
0.0
  0
LINE
  5
14B5D
  8
MSM_CONTINUOUS
 10
22.955771366005681
 20
36.778312163582477
 30
0.0
 11
24.205771366005688
 21
36.056624327095449
 31
0.0
  0
LINE
  5
14B5E
  8
MSM_CONTINUOUS
 10
22.955771366005681
 20
38.221687836556548
 30
0.0
 11
22.955771366005681
 21
36.778312163582477
 31
0.0
  0
LINE
  5
14B5F
  8
MSM_CONTINUOUS
 10
24.205771366005688
 20
38.943375673043583
 30
0.0
 11
22.955771366005681
 21
38.221687836556548
 31
0.0
  0
LINE
  5
14B60
  8
MSM_CONTINUOUS
 10
25.455771366005688
 20
38.221687836556548
 30
0.0
 11
24.205771366005688
 21
38.943375673043583
 31
0.0
  0
LINE
  5
14B61
  8
MSM_CONTINUOUS
 10
25.455771366005688
 20
36.778312163582477
 30
0.0
 11
25.455771366005688
 21
38.221687836556548
 31
0.0
  0
CIRCLE
  5
14B62
  8
MSM_CONTINUOUS
 10
39.794228634125588
 20
37.50000000006952
 30
0.0
 40
1.4433756729740559
  0
LINE
  5
14B63
  8
MSM_CONTINUOUS
 10
39.794228634125588
 20
36.056624327095449
 30
0.0
 11
41.044228634125581
 21
36.778312163582477
 31
0.0
  0
LINE
  5
14B64
  8
MSM_CONTINUOUS
 10
38.544228634125588
 20
36.778312163582477
 30
0.0
 11
39.794228634125588
 21
36.056624327095449
 31
0.0
  0
LINE
  5
14B65
  8
MSM_CONTINUOUS
 10
38.544228634125588
 20
38.221687836556541
 30
0.0
 11
38.544228634125588
 21
36.778312163582477
 31
0.0
  0
LINE
  5
14B66
  8
MSM_CONTINUOUS
 10
39.794228634125588
 20
38.943375673043583
 30
0.0
 11
38.544228634125588
 21
38.221687836556541
 31
0.0
  0
LINE
  5
14B67
  8
MSM_CONTINUOUS
 10
41.044228634125581
 20
38.221687836556541
 30
0.0
 11
39.794228634125588
 21
38.943375673043583
 31
0.0
  0
LINE
  5
14B68
  8
MSM_CONTINUOUS
 10
41.044228634125581
 20
36.778312163582477
 30
0.0
 11
41.044228634125581
 21
38.221687836556541
 31
0.0
  0
ARC
  5
14B69
  8
MSM_NARROW
 10
32.000000000065633
 20
33.00000000006952
 30
0.0
 40
1.5
 50
74.999999999999886
 51
14.99999999999952
  0
ARC
  5
14B6A
  8
MSM_NARROW
 10
32.000000000065633
 20
33.00000000006952
 30
0.0
 40
1.5
 50
14.99999999999952
 51
285.00000000000011
  0
CIRCLE
  5
14B6E
  8
MSM_NARROW
 10
39.794228634125588
 20
46.50000000006952
 30
0.0
 40
1.5
  0
CIRCLE
  5
14B6F
  8
MSM_NARROW
 10
24.205771366005688
 20
46.50000000006952
 30
0.0
 40
1.5
  0
CIRCLE
  5
14B70
  8
MSM_CENTER
 10
32.000000000100741
 20
42.000000000016691
 30
0.0
 40
9.0000000000528146
  0
CIRCLE
  5
14B71
  8
MSM_CONTINUOUS
 10
32.000000000065633
 20
42.000000000069512
 30
0.0
 40
12.25
  0
CIRCLE
  5
14B72
  8
MSM_CONTINUOUS
 10
32.000000000065633
 20
42.000000000069512
 30
0.0
 40
12.75
  0
CIRCLE
  5
14B73
  8
MSM_CONTINUOUS
 10
32.000000000065633
 20
51.00000000006952
 30
0.0
 40
2.7499999999999991
  0
CIRCLE
  5
14B74
  8
MSM_CONTINUOUS
 10
32.000000000065633
 20
51.00000000006952
 30
0.0
 40
2.2499999999999991
  0
CIRCLE
  5
14B75
  8
MSM_CONTINUOUS
 10
32.000000000065633
 20
51.00000000006952
 30
0.0
 40
1.4433756729740559
  0
LINE
  5
14B76
  8
MSM_CONTINUOUS
 10
32.000000000065633
 20
52.443375673043569
 30
0.0
 11
30.750000000065629
 21
51.721687836556526
 31
0.0
  0
LINE
  5
14B77
  8
MSM_CONTINUOUS
 10
33.250000000065633
 20
51.721687836556526
 30
0.0
 11
32.000000000065633
 21
52.443375673043569
 31
0.0
  0
LINE
  5
14BCE
  8
MSM_CENTER
 10
82.849999999999966
 20
33.000000000029956
 30
0.0
 11
86.149999999999977
 21
33.000000000029956
 31
0.0
  0
LINE
  5
14BCF
  8
AM_0
 10
85.999999999999972
 20
34.229500000029972
 30
0.0
 11
82.999999999999972
 21
34.229500000029972
 31
0.0
  0
LINE
  5
14BD0
  8
AM_0
 10
82.999999999999972
 20
31.770500000029958
 30
0.0
 11
85.999999999999972
 21
31.770500000029958
 31
0.0
  0
LINE
  5
14BD1
  8
MSM_NARROW
 10
85.999999999999972
 20
34.500000000029956
 30
0.0
 11
82.999999999999972
 21
34.500000000029956
 31
0.0
  0
LINE
  5
14BD2
  8
MSM_NARROW
 10
85.999999999999972
 20
31.500000000029971
 30
0.0
 11
82.999999999999972
 21
31.500000000029971
 31
0.0
  0
ENDSEC
  0
EOF
