  0
SECTION
  2
HEADER
  9
$ACADVER
  1
AC1009
  9
$INSBASE
 10
0.0
 20
0.0
 30
0.0
  9
$EXTMIN
 10
10.0
 20
10.0
 30
0.0
  9
$EXTMAX
 10
128.8573020736448
 20
114.6668327542958
 30
0.0
  9
$LIMMIN
 10
0.0
 20
0.0
  9
$LIMMAX
 10
420.0
 20
297.0
  9
$ORTHOMODE
 70
     1
  9
$REGENMODE
 70
     1
  9
$FILLMODE
 70
     1
  9
$QTEXTMODE
 70
     0
  9
$MIRRTEXT
 70
     1
  9
$DRAGMODE
 70
     2
  9
$LTSCALE
 40
1.0
  9
$OSMODE
 70
   181
  9
$ATTMODE
 70
     1
  9
$TEXTSIZE
 40
2.0
  9
$TRACEWID
 40
1.0
  9
$TEXTSTYLE
  7
STANDARD
  9
$CLAYER
  8
0
  9
$CELTYPE
  6
CONTINUOUS
  9
$CECOLOR
 62
     7
  9
$DIMSCALE
 40
1.0
  9
$DIMASZ
 40
3.0
  9
$DIMEXO
 40
1.0
  9
$DIMDLI
 40
0.0
  9
$DIMRND
 40
0.0
  9
$DIMDLE
 40
0.0
  9
$DIMEXE
 40
1.0
  9
$DIMTP
 40
0.0
  9
$DIMTM
 40
0.0
  9
$DIMTXT
 40
3.2000000000000002
  9
$DIMCEN
 40
0.0
  9
$DIMTSZ
 40
0.0
  9
$DIMTOL
 70
     0
  9
$DIMLIM
 70
     0
  9
$DIMTIH
 70
     0
  9
$DIMTOH
 70
     0
  9
$DIMSE1
 70
     0
  9
$DIMSE2
 70
     0
  9
$DIMTAD
 70
     1
  9
$DIMZIN
 70
     8
  9
$DIMBLK
  1

  9
$DIMASO
 70
     1
  9
$DIMSHO
 70
     1
  9
$DIMPOST
  1

  9
$DIMAPOST
  1

  9
$DIMALT
 70
     0
  9
$DIMALTD
 70
     2
  9
$DIMALTF
 40
0.04
  9
$DIMLFAC
 40
1.0
  9
$DIMTOFL
 70
     1
  9
$DIMTVP
 40
1.0
  9
$DIMTIX
 70
     1
  9
$DIMSOXD
 70
     0
  9
$DIMSAH
 70
     0
  9
$DIMBLK1
  1

  9
$DIMBLK2
  1

  9
$DIMSTYLE
  2
MISUMI
  9
$DIMCLRD
 70
     0
  9
$DIMCLRE
 70
     0
  9
$DIMCLRT
 70
     0
  9
$DIMTFAC
 40
0.6
  9
$DIMGAP
 40
1.0
  9
$LUNITS
 70
     2
  9
$LUPREC
 70
     2
  9
$SKETCHINC
 40
1.0
  9
$FILLETRAD
 40
2.5
  9
$AUNITS
 70
     0
  9
$AUPREC
 70
     0
  9
$MENU
  1
.
  9
$ELEVATION
 40
0.0
  9
$PELEVATION
 40
0.0
  9
$THICKNESS
 40
0.0
  9
$LIMCHECK
 70
     0
  9
$BLIPMODE
 70
     0
  9
$CHAMFERA
 40
2.5
  9
$CHAMFERB
 40
2.5
  9
$SKPOLY
 70
     1
  9
$TDCREATE
 40
2452139.7157749999
  9
$TDUPDATE
 40
2453797.4924278362
  9
$TDINDWG
 40
0.0121335069
  9
$TDUSRTIMER
 40
0.0121333218
  9
$USRTIMER
 70
     1
  9
$ANGBASE
 50
0.0
  9
$ANGDIR
 70
     0
  9
$PDMODE
 70
     0
  9
$PDSIZE
 40
0.0
  9
$PLINEWID
 40
0.0
  9
$COORDS
 70
     2
  9
$SPLFRAME
 70
     0
  9
$SPLINETYPE
 70
     6
  9
$SPLINESEGS
 70
     8
  9
$ATTDIA
 70
     0
  9
$ATTREQ
 70
     1
  9
$HANDLING
 70
     1
  9
$HANDSEED
  5
341
  9
$SURFTAB1
 70
     6
  9
$SURFTAB2
 70
     6
  9
$SURFTYPE
 70
     6
  9
$SURFU
 70
     6
  9
$SURFV
 70
     6
  9
$UCSNAME
  2

  9
$UCSORG
 10
0.0
 20
0.0
 30
0.0
  9
$UCSXDIR
 10
1.0
 20
0.0
 30
0.0
  9
$UCSYDIR
 10
0.0
 20
1.0
 30
0.0
  9
$PUCSNAME
  2

  9
$PUCSORG
 10
0.0
 20
0.0
 30
0.0
  9
$PUCSXDIR
 10
1.0
 20
0.0
 30
0.0
  9
$PUCSYDIR
 10
0.0
 20
1.0
 30
0.0
  9
$USERI1
 70
     0
  9
$USERI2
 70
     0
  9
$USERI3
 70
     0
  9
$USERI4
 70
     0
  9
$USERI5
 70
     0
  9
$USERR1
 40
0.0
  9
$USERR2
 40
0.0
  9
$USERR3
 40
0.0
  9
$USERR4
 40
0.0
  9
$USERR5
 40
0.0
  9
$WORLDVIEW
 70
     1
  9
$SHADEDGE
 70
     3
  9
$SHADEDIF
 70
    70
  9
$TILEMODE
 70
     1
  9
$MAXACTVP
 70
    48
  9
$PLIMCHECK
 70
     0
  9
$PEXTMIN
 10
1.0000000000000000E+020
 20
1.0000000000000000E+020
 30
1.0000000000000000E+020
  9
$PEXTMAX
 10
-1.0000000000000000E+020
 20
-1.0000000000000000E+020
 30
-1.0000000000000000E+020
  9
$PLIMMIN
 10
0.0
 20
0.0
  9
$PLIMMAX
 10
420.0
 20
297.0
  9
$UNITMODE
 70
     0
  9
$VISRETAIN
 70
     1
  9
$PLINEGEN
 70
     0
  9
$PSLTSCALE
 70
     1
  0
ENDSEC
  0
SECTION
  2
TABLES
  0
TABLE
  2
VPORT
 70
     2
  0
VPORT
  2
*ACTIVE
 70
     0
 10
0.0
 20
0.0
 11
1.0
 21
1.0
 12
71.898994626412701
 22
67.312606016803429
 13
0.0
 23
0.0
 14
1.0
 24
1.0
 15
10.0
 25
10.0
 16
0.0
 26
0.0
 36
1.0
 17
0.0
 27
0.0
 37
0.0
 40
129.82843548810951
 41
1.744230769230769
 42
50.0
 43
0.0
 44
0.0
 50
0.0
 51
0.0
 71
     0
 72
   100
 73
     1
 74
     1
 75
     0
 76
     0
 77
     0
 78
     0
  0
ENDTAB
  0
TABLE
  2
LTYPE
 70
     3
  0
LTYPE
  2
CONTINUOUS
 70
     0
  3
Solid line
 72
    65
 73
     0
 40
0.0
  0
ENDTAB
  0
TABLE
  2
LAYER
 70
     3
  0
LAYER
  2
0
 70
     0
 62
     7
  6
CONTINUOUS
  0
LAYER
  2
DEFPOINTS
 70
     0
 62
     7
  6
CONTINUOUS
  0
ENDTAB
  0
TABLE
  2
STYLE
 70
     1
  0
STYLE
  2
STANDARD
 70
     0
 40
0.0
 41
1.0
 50
0.0
 71
     0
 42
2.0
  3
txt.shx
  4
extfont.shx
  0
ENDTAB
  0
TABLE
  2
VIEW
 70
     0
  0
ENDTAB
  0
TABLE
  2
UCS
 70
     0
  0
ENDTAB
  0
TABLE
  2
APPID
 70
     1
  0
APPID
  2
ACAD
 70
     0
  0
ENDTAB
  0
TABLE
  2
DIMSTYLE
 70
     2
  0
DIMSTYLE
  2
MISUMI
 70
     0
  3

  4

  5

  6

  7

 40
1.0
 41
3.0
 42
1.0
 43
0.0
 44
1.0
 45
0.0
 46
0.0
 47
0.0
 48
0.0
140
3.2000000000000002
141
0.0
142
0.0
143
0.04
144
1.0
145
1.0
146
0.6
147
1.0
 71
     0
 72
     0
 73
     0
 74
     0
 75
     0
 76
     0
 77
     1
 78
     8
170
     0
171
     2
172
     1
173
     0
174
     1
175
     0
176
     0
177
     0
178
     0
  0
ENDTAB
  0
ENDSEC
  0
SECTION
  2
BLOCKS
  0
BLOCK
  8
0
  2
$MODEL_SPACE
 70
     0
 10
0.0
 20
0.0
 30
0.0
  3
$MODEL_SPACE
  1

  0
ENDBLK
  5
322
  8
0
  0
BLOCK
 67
     1
  8
0
  2
$PAPER_SPACE
 70
     0
 10
0.0
 20
0.0
 30
0.0
  3
$PAPER_SPACE
  1

  0
ENDBLK
  5
31E
 67
     1
  8
0
  0
ENDSEC
  0
SECTION
  2
ENTITIES
  0
TEXT
  5
69
  8
0
  6
CONTINUOUS
 62
     7
 10
10.0
 20
10.0
 30
0.0
 40
2.0
  1
HBLT75
  0
TEXT
  5
6A
  8
0
  6
CONTINUOUS
 62
     7
 10
10.0
 20
20.0
 30
0.0
 40
2.0
  1
HBLT 75-1
  0
LINE
  5
1B7
  8
0
  6
CONTINUOUS
 62
     7
 10
28.85730207364486
 20
114.6668327542958
 30
0.0
 11
128.8573020736448
 21
114.6668327542958
 31
0.0
  0
LINE
  5
1B8
  8
0
  6
CONTINUOUS
 62
     7
 10
28.85730207364486
 20
25.730459969269241
 30
0.0
 11
128.8573020736448
 21
25.730459969269251
 31
0.0
  0
LINE
  5
1B9
  8
0
  6
CONTINUOUS
 62
     7
 10
28.85730207364486
 20
25.389102969269238
 30
0.0
 11
128.8573020736448
 21
25.389102969269238
 31
0.0
  0
LINE
  5
1BA
  8
0
  6
CONTINUOUS
 62
     7
 10
28.85730207364486
 20
26.28910296926923
 30
0.0
 11
128.8573020736448
 21
26.28910296926923
 31
0.0
  0
LINE
  5
1BB
  8
0
  6
CONTINUOUS
 62
     7
 10
28.85730207364486
 20
39.666832754295811
 30
0.0
 11
128.8573020736448
 21
39.666832754295832
 31
0.0
  0
LINE
  5
1BC
  8
0
  6
CONTINUOUS
 62
     7
 10
28.85730207364486
 20
114.6668327542958
 30
0.0
 11
28.85730207364486
 21
39.666832754295811
 31
0.0
  0
LINE
  5
1BD
  8
0
  6
CONTINUOUS
 62
     7
 10
29.69985607364487
 20
25.389102969269238
 30
0.0
 11
29.82410007364486
 21
25.730459969269241
 31
0.0
  0
LINE
  5
1BE
  8
0
  6
CONTINUOUS
 62
     7
 10
29.399870073644859
 20
25.730459969269241
 30
0.0
 11
29.524114073644849
 21
25.389102969269238
 31
0.0
  0
LINE
  5
1BF
  8
0
  6
CONTINUOUS
 62
     7
 10
29.01809107364485
 20
25.389102969269238
 30
0.0
 11
29.142335073644851
 21
25.730459969269241
 31
0.0
  0
LINE
  5
1C0
  8
0
  6
CONTINUOUS
 62
     7
 10
28.85730207364486
 20
26.28910296926923
 30
0.0
 11
28.85730207364486
 21
25.389102969269238
 31
0.0
  0
LINE
  5
1C1
  8
0
  6
CONTINUOUS
 62
     7
 10
32.126930073644871
 20
25.730459969269241
 30
0.0
 11
32.251174073644869
 21
25.389102969269238
 31
0.0
  0
LINE
  5
1C2
  8
0
  6
CONTINUOUS
 62
     7
 10
33.108681073644881
 20
25.389102969269238
 30
0.0
 11
33.232925073644878
 21
25.730459969269241
 31
0.0
  0
LINE
  5
1C3
  8
0
  6
CONTINUOUS
 62
     7
 10
33.490460073644883
 20
25.730459969269241
 30
0.0
 11
33.61470407364488
 21
25.389102969269238
 31
0.0
  0
LINE
  5
1C4
  8
0
  6
CONTINUOUS
 62
     7
 10
32.80869507364487
 20
25.730459969269241
 30
0.0
 11
32.932939073644881
 21
25.389102969269238
 31
0.0
  0
LINE
  5
1C5
  8
0
  6
CONTINUOUS
 62
     7
 10
32.426916073644882
 20
25.389102969269238
 30
0.0
 11
32.55116007364488
 21
25.730459969269241
 31
0.0
  0
LINE
  5
1C6
  8
0
  6
CONTINUOUS
 62
     7
 10
33.790446073644901
 20
25.389102969269238
 30
0.0
 11
33.914690073644898
 21
25.730459969269241
 31
0.0
  0
LINE
  5
1C7
  8
0
  6
CONTINUOUS
 62
     7
 10
30.081635073644861
 20
25.730459969269241
 30
0.0
 11
30.205879073644859
 21
25.389102969269238
 31
0.0
  0
LINE
  5
1C8
  8
0
  6
CONTINUOUS
 62
     7
 10
30.763400073644849
 20
25.730459969269241
 30
0.0
 11
30.88764407364485
 21
25.389102969269238
 31
0.0
  0
LINE
  5
1C9
  8
0
  6
CONTINUOUS
 62
     7
 10
30.381621073644862
 20
25.389102969269238
 30
0.0
 11
30.50586507364487
 21
25.730459969269241
 31
0.0
  0
LINE
  5
1CA
  8
0
  6
CONTINUOUS
 62
     7
 10
31.74515107364487
 20
25.389102969269238
 30
0.0
 11
31.869395073644871
 21
25.730459969269241
 31
0.0
  0
LINE
  5
1CB
  8
0
  6
CONTINUOUS
 62
     7
 10
31.445165073644858
 20
25.730459969269241
 30
0.0
 11
31.56940907364487
 21
25.389102969269238
 31
0.0
  0
LINE
  5
1CC
  8
0
  6
CONTINUOUS
 62
     7
 10
31.063386073644882
 20
25.389102969269238
 30
0.0
 11
31.187630073644868
 21
25.730459969269241
 31
0.0
  0
LINE
  5
1CD
  8
0
  6
CONTINUOUS
 62
     7
 10
36.217520073644899
 20
25.730459969269241
 30
0.0
 11
36.34176407364491
 21
25.389102969269238
 31
0.0
  0
LINE
  5
1CE
  8
0
  6
CONTINUOUS
 62
     7
 10
37.19927107364493
 20
25.389102969269238
 30
0.0
 11
37.323515073644927
 21
25.730459969269241
 31
0.0
  0
LINE
  5
1CF
  8
0
  6
CONTINUOUS
 62
     7
 10
37.581050073644903
 20
25.730459969269241
 30
0.0
 11
37.705294073644907
 21
25.389102969269238
 31
0.0
  0
LINE
  5
1D0
  8
0
  6
CONTINUOUS
 62
     7
 10
36.899285073644897
 20
25.730459969269241
 30
0.0
 11
37.023529073644902
 21
25.389102969269238
 31
0.0
  0
LINE
  5
1D1
  8
0
  6
CONTINUOUS
 62
     7
 10
36.517506073644903
 20
25.389102969269238
 30
0.0
 11
36.641750073644907
 21
25.730459969269241
 31
0.0
  0
LINE
  5
1D2
  8
0
  6
CONTINUOUS
 62
     7
 10
37.881036073644921
 20
25.389102969269238
 30
0.0
 11
38.005280073644933
 21
25.730459969269241
 31
0.0
  0
LINE
  5
1D3
  8
0
  6
CONTINUOUS
 62
     7
 10
34.4722110736449
 20
25.389102969269238
 30
0.0
 11
34.596455073644897
 21
25.730459969269241
 31
0.0
  0
LINE
  5
1D4
  8
0
  6
CONTINUOUS
 62
     7
 10
34.853990073644901
 20
25.730459969269241
 30
0.0
 11
34.978234073644899
 21
25.389102969269238
 31
0.0
  0
LINE
  5
1D5
  8
0
  6
CONTINUOUS
 62
     7
 10
34.172225073644881
 20
25.730459969269241
 30
0.0
 11
34.296469073644893
 21
25.389102969269238
 31
0.0
  0
LINE
  5
1D6
  8
0
  6
CONTINUOUS
 62
     7
 10
35.835741073644911
 20
25.389102969269238
 30
0.0
 11
35.959985073644908
 21
25.730459969269241
 31
0.0
  0
LINE
  5
1D7
  8
0
  6
CONTINUOUS
 62
     7
 10
35.5357550736449
 20
25.730459969269241
 30
0.0
 11
35.65999907364489
 21
25.389102969269238
 31
0.0
  0
LINE
  5
1D8
  8
0
  6
CONTINUOUS
 62
     7
 10
35.153976073644891
 20
25.389102969269238
 30
0.0
 11
35.278220073644903
 21
25.730459969269241
 31
0.0
  0
LINE
  5
1D9
  8
0
  6
CONTINUOUS
 62
     7
 10
40.308110073644919
 20
25.730459969269241
 30
0.0
 11
40.432354073644937
 21
25.389102969269238
 31
0.0
  0
LINE
  5
1DA
  8
0
  6
CONTINUOUS
 62
     7
 10
41.971626073644963
 20
25.389102969269238
 30
0.0
 11
42.09587007364496
 21
25.730459969269241
 31
0.0
  0
LINE
  5
1DB
  8
0
  6
CONTINUOUS
 62
     7
 10
41.289861073644957
 20
25.389102969269238
 30
0.0
 11
41.414105073644947
 21
25.730459969269241
 31
0.0
  0
LINE
  5
1DC
  8
0
  6
CONTINUOUS
 62
     7
 10
41.671640073644973
 20
25.730459969269241
 30
0.0
 11
41.795884073644949
 21
25.389102969269238
 31
0.0
  0
LINE
  5
1DD
  8
0
  6
CONTINUOUS
 62
     7
 10
40.989875073644932
 20
25.730459969269241
 30
0.0
 11
41.11411907364495
 21
25.389102969269238
 31
0.0
  0
LINE
  5
1DE
  8
0
  6
CONTINUOUS
 62
     7
 10
40.608096073644951
 20
25.389102969269238
 30
0.0
 11
40.732340073644949
 21
25.730459969269241
 31
0.0
  0
LINE
  5
1DF
  8
0
  6
CONTINUOUS
 62
     7
 10
38.562801073644941
 20
25.389102969269238
 30
0.0
 11
38.687045073644938
 21
25.730459969269241
 31
0.0
  0
LINE
  5
1E0
  8
0
  6
CONTINUOUS
 62
     7
 10
38.944580073644929
 20
25.730459969269241
 30
0.0
 11
39.068824073644933
 21
25.389102969269238
 31
0.0
  0
LINE
  5
1E1
  8
0
  6
CONTINUOUS
 62
     7
 10
38.26281507364493
 20
25.730459969269241
 30
0.0
 11
38.387059073644913
 21
25.389102969269238
 31
0.0
  0
LINE
  5
1E2
  8
0
  6
CONTINUOUS
 62
     7
 10
39.926331073644938
 20
25.389102969269238
 30
0.0
 11
40.05057507364495
 21
25.730459969269241
 31
0.0
  0
LINE
  5
1E3
  8
0
  6
CONTINUOUS
 62
     7
 10
39.626345073644941
 20
25.730459969269241
 30
0.0
 11
39.750589073644932
 21
25.389102969269238
 31
0.0
  0
LINE
  5
1E4
  8
0
  6
CONTINUOUS
 62
     7
 10
39.244566073644933
 20
25.389102969269238
 30
0.0
 11
39.368810073644937
 21
25.730459969269241
 31
0.0
  0
LINE
  5
1E5
  8
0
  6
CONTINUOUS
 62
     7
 10
46.06221607364499
 20
25.389102969269238
 30
0.0
 11
46.186460073644973
 21
25.730459969269241
 31
0.0
  0
LINE
  5
1E6
  8
0
  6
CONTINUOUS
 62
     7
 10
44.698686073644993
 20
25.389102969269238
 30
0.0
 11
44.822930073644962
 21
25.730459969269241
 31
0.0
  0
LINE
  5
1E7
  8
0
  6
CONTINUOUS
 62
     7
 10
45.080465073644973
 20
25.730459969269241
 30
0.0
 11
45.204709073644963
 21
25.389102969269238
 31
0.0
  0
LINE
  5
1E8
  8
0
  6
CONTINUOUS
 62
     7
 10
45.762230073644972
 20
25.730459969269241
 30
0.0
 11
45.886474073644962
 21
25.389102969269238
 31
0.0
  0
LINE
  5
1E9
  8
0
  6
CONTINUOUS
 62
     7
 10
45.38045107364497
 20
25.389102969269238
 30
0.0
 11
45.504695073644967
 21
25.730459969269241
 31
0.0
  0
LINE
  5
1EA
  8
0
  6
CONTINUOUS
 62
     7
 10
44.398700073644967
 20
25.730459969269241
 30
0.0
 11
44.522944073644958
 21
25.389102969269238
 31
0.0
  0
LINE
  5
1EB
  8
0
  6
CONTINUOUS
 62
     7
 10
42.353405073644957
 20
25.730459969269241
 30
0.0
 11
42.477649073644947
 21
25.389102969269238
 31
0.0
  0
LINE
  5
1EC
  8
0
  6
CONTINUOUS
 62
     7
 10
42.653391073644947
 20
25.389102969269238
 30
0.0
 11
42.777635073644959
 21
25.730459969269241
 31
0.0
  0
LINE
  5
1ED
  8
0
  6
CONTINUOUS
 62
     7
 10
43.335156073644967
 20
25.389102969269238
 30
0.0
 11
43.459400073644971
 21
25.730459969269241
 31
0.0
  0
LINE
  5
1EE
  8
0
  6
CONTINUOUS
 62
     7
 10
43.716935073644962
 20
25.730459969269241
 30
0.0
 11
43.841179073644973
 21
25.389102969269238
 31
0.0
  0
LINE
  5
1EF
  8
0
  6
CONTINUOUS
 62
     7
 10
44.01692107364498
 20
25.389102969269238
 30
0.0
 11
44.14116507364497
 21
25.730459969269241
 31
0.0
  0
LINE
  5
1F0
  8
0
  6
CONTINUOUS
 62
     7
 10
43.035170073644963
 20
25.730459969269241
 30
0.0
 11
43.159414073644967
 21
25.389102969269238
 31
0.0
  0
LINE
  5
1F1
  8
0
  6
CONTINUOUS
 62
     7
 10
50.152806073645053
 20
25.389102969269238
 30
0.0
 11
50.277050073645022
 21
25.730459969269241
 31
0.0
  0
LINE
  5
1F2
  8
0
  6
CONTINUOUS
 62
     7
 10
48.78927607364502
 20
25.389102969269238
 30
0.0
 11
48.913520073645032
 21
25.730459969269241
 31
0.0
  0
LINE
  5
1F3
  8
0
  6
CONTINUOUS
 62
     7
 10
49.171055073645
 20
25.730459969269241
 30
0.0
 11
49.295299073645012
 21
25.389102969269238
 31
0.0
  0
LINE
  5
1F4
  8
0
  6
CONTINUOUS
 62
     7
 10
49.852820073645027
 20
25.730459969269241
 30
0.0
 11
49.977064073645032
 21
25.389102969269238
 31
0.0
  0
LINE
  5
1F5
  8
0
  6
CONTINUOUS
 62
     7
 10
49.471041073645019
 20
25.389102969269238
 30
0.0
 11
49.59528507364503
 21
25.730459969269241
 31
0.0
  0
LINE
  5
1F6
  8
0
  6
CONTINUOUS
 62
     7
 10
48.489290073645009
 20
25.730459969269241
 30
0.0
 11
48.613534073644999
 21
25.389102969269238
 31
0.0
  0
LINE
  5
1F7
  8
0
  6
CONTINUOUS
 62
     7
 10
46.443995073644992
 20
25.730459969269241
 30
0.0
 11
46.568239073644968
 21
25.389102969269238
 31
0.0
  0
LINE
  5
1F8
  8
0
  6
CONTINUOUS
 62
     7
 10
46.743981073645003
 20
25.389102969269238
 30
0.0
 11
46.868225073645
 21
25.730459969269241
 31
0.0
  0
LINE
  5
1F9
  8
0
  6
CONTINUOUS
 62
     7
 10
47.425746073645023
 20
25.389102969269238
 30
0.0
 11
47.549990073644992
 21
25.730459969269241
 31
0.0
  0
LINE
  5
1FA
  8
0
  6
CONTINUOUS
 62
     7
 10
47.807525073645003
 20
25.730459969269241
 30
0.0
 11
47.931769073644993
 21
25.389102969269238
 31
0.0
  0
LINE
  5
1FB
  8
0
  6
CONTINUOUS
 62
     7
 10
48.107511073645007
 20
25.389102969269238
 30
0.0
 11
48.231755073645012
 21
25.730459969269241
 31
0.0
  0
LINE
  5
1FC
  8
0
  6
CONTINUOUS
 62
     7
 10
47.12576007364499
 20
25.730459969269241
 30
0.0
 11
47.250004073644973
 21
25.389102969269238
 31
0.0
  0
LINE
  5
1FD
  8
0
  6
CONTINUOUS
 62
     7
 10
52.879866073645047
 20
25.389102969269238
 30
0.0
 11
53.004110073645052
 21
25.730459969269241
 31
0.0
  0
LINE
  5
1FE
  8
0
  6
CONTINUOUS
 62
     7
 10
53.26164507364507
 20
25.730459969269241
 30
0.0
 11
53.385889073645039
 21
25.389102969269238
 31
0.0
  0
LINE
  5
1FF
  8
0
  6
CONTINUOUS
 62
     7
 10
53.561631073645067
 20
25.389102969269238
 30
0.0
 11
53.68587507364505
 21
25.730459969269241
 31
0.0
  0
LINE
  5
200
  8
0
  6
CONTINUOUS
 62
     7
 10
52.579880073645029
 20
25.730459969269241
 30
0.0
 11
52.70412407364504
 21
25.389102969269238
 31
0.0
  0
LINE
  5
201
  8
0
  6
CONTINUOUS
 62
     7
 10
54.243396073645059
 20
25.389102969269238
 30
0.0
 11
54.36764007364507
 21
25.730459969269241
 31
0.0
  0
LINE
  5
202
  8
0
  6
CONTINUOUS
 62
     7
 10
53.943410073645069
 20
25.730459969269241
 30
0.0
 11
54.067654073645038
 21
25.389102969269238
 31
0.0
  0
LINE
  5
203
  8
0
  6
CONTINUOUS
 62
     7
 10
50.53458507364504
 20
25.730459969269241
 30
0.0
 11
50.658829073645009
 21
25.389102969269238
 31
0.0
  0
LINE
  5
204
  8
0
  6
CONTINUOUS
 62
     7
 10
50.834571073645037
 20
25.389102969269238
 30
0.0
 11
50.958815073645042
 21
25.730459969269241
 31
0.0
  0
LINE
  5
205
  8
0
  6
CONTINUOUS
 62
     7
 10
51.216350073645039
 20
25.730459969269241
 30
0.0
 11
51.340594073645029
 21
25.389102969269238
 31
0.0
  0
LINE
  5
206
  8
0
  6
CONTINUOUS
 62
     7
 10
52.198101073645049
 20
25.389102969269238
 30
0.0
 11
52.32234507364506
 21
25.730459969269241
 31
0.0
  0
LINE
  5
207
  8
0
  6
CONTINUOUS
 62
     7
 10
51.89811507364503
 20
25.730459969269241
 30
0.0
 11
52.022359073645042
 21
25.389102969269238
 31
0.0
  0
LINE
  5
208
  8
0
  6
CONTINUOUS
 62
     7
 10
51.516336073645029
 20
25.389102969269238
 30
0.0
 11
51.64058007364504
 21
25.730459969269241
 31
0.0
  0
LINE
  5
209
  8
0
  6
CONTINUOUS
 62
     7
 10
56.970456073645089
 20
25.389102969269238
 30
0.0
 11
57.094700073645107
 21
25.730459969269241
 31
0.0
  0
LINE
  5
20A
  8
0
  6
CONTINUOUS
 62
     7
 10
57.35223507364509
 20
25.730459969269241
 30
0.0
 11
57.476479073645088
 21
25.389102969269238
 31
0.0
  0
LINE
  5
20B
  8
0
  6
CONTINUOUS
 62
     7
 10
57.652221073645087
 20
25.389102969269238
 30
0.0
 11
57.776465073645078
 21
25.730459969269241
 31
0.0
  0
LINE
  5
20C
  8
0
  6
CONTINUOUS
 62
     7
 10
56.670470073645099
 20
25.730459969269241
 30
0.0
 11
56.794714073645068
 21
25.389102969269238
 31
0.0
  0
LINE
  5
20D
  8
0
  6
CONTINUOUS
 62
     7
 10
58.333986073645107
 20
25.389102969269238
 30
0.0
 11
58.458230073645097
 21
25.730459969269241
 31
0.0
  0
LINE
  5
20E
  8
0
  6
CONTINUOUS
 62
     7
 10
58.034000073645082
 20
25.730459969269241
 30
0.0
 11
58.158244073645093
 21
25.389102969269238
 31
0.0
  0
LINE
  5
20F
  8
0
  6
CONTINUOUS
 62
     7
 10
55.606926073645099
 20
25.389102969269238
 30
0.0
 11
55.731170073645067
 21
25.730459969269241
 31
0.0
  0
LINE
  5
210
  8
0
  6
CONTINUOUS
 62
     7
 10
55.988705073645079
 20
25.730459969269241
 30
0.0
 11
56.112949073645069
 21
25.389102969269238
 31
0.0
  0
LINE
  5
211
  8
0
  6
CONTINUOUS
 62
     7
 10
56.288691073645083
 20
25.389102969269238
 30
0.0
 11
56.412935073645073
 21
25.730459969269241
 31
0.0
  0
LINE
  5
212
  8
0
  6
CONTINUOUS
 62
     7
 10
54.62517507364506
 20
25.730459969269241
 30
0.0
 11
54.749419073645058
 21
25.389102969269238
 31
0.0
  0
LINE
  5
213
  8
0
  6
CONTINUOUS
 62
     7
 10
55.306940073645059
 20
25.730459969269241
 30
0.0
 11
55.43118407364507
 21
25.389102969269238
 31
0.0
  0
LINE
  5
214
  8
0
  6
CONTINUOUS
 62
     7
 10
54.925161073645079
 20
25.389102969269238
 30
0.0
 11
55.049405073645069
 21
25.730459969269241
 31
0.0
  0
LINE
  5
215
  8
0
  6
CONTINUOUS
 62
     7
 10
61.061046073645137
 20
25.389102969269238
 30
0.0
 11
61.185290073645113
 21
25.730459969269241
 31
0.0
  0
LINE
  5
216
  8
0
  6
CONTINUOUS
 62
     7
 10
61.442825073645103
 20
25.730459969269241
 30
0.0
 11
61.567069073645129
 21
25.389102969269238
 31
0.0
  0
LINE
  5
217
  8
0
  6
CONTINUOUS
 62
     7
 10
61.742811073645143
 20
25.389102969269238
 30
0.0
 11
61.867055073645133
 21
25.730459969269241
 31
0.0
  0
LINE
  5
218
  8
0
  6
CONTINUOUS
 62
     7
 10
60.761060073645112
 20
25.730459969269241
 30
0.0
 11
60.885304073645123
 21
25.389102969269238
 31
0.0
  0
LINE
  5
219
  8
0
  6
CONTINUOUS
 62
     7
 10
62.424576073645142
 20
25.389102969269238
 30
0.0
 11
62.548820073645139
 21
25.730459969269241
 31
0.0
  0
LINE
  5
21A
  8
0
  6
CONTINUOUS
 62
     7
 10
62.124590073645109
 20
25.730459969269241
 30
0.0
 11
62.248834073645121
 21
25.389102969269238
 31
0.0
  0
LINE
  5
21B
  8
0
  6
CONTINUOUS
 62
     7
 10
59.697516073645112
 20
25.389102969269238
 30
0.0
 11
59.821760073645109
 21
25.730459969269241
 31
0.0
  0
LINE
  5
21C
  8
0
  6
CONTINUOUS
 62
     7
 10
60.07929507364512
 20
25.730459969269241
 30
0.0
 11
60.203539073645118
 21
25.389102969269238
 31
0.0
  0
LINE
  5
21D
  8
0
  6
CONTINUOUS
 62
     7
 10
60.37928107364511
 20
25.389102969269238
 30
0.0
 11
60.503525073645108
 21
25.730459969269241
 31
0.0
  0
LINE
  5
21E
  8
0
  6
CONTINUOUS
 62
     7
 10
58.715765073645073
 20
25.730459969269241
 30
0.0
 11
58.840009073645099
 21
25.389102969269238
 31
0.0
  0
LINE
  5
21F
  8
0
  6
CONTINUOUS
 62
     7
 10
59.397530073645108
 20
25.730459969269241
 30
0.0
 11
59.521774073645091
 21
25.389102969269238
 31
0.0
  0
LINE
  5
220
  8
0
  6
CONTINUOUS
 62
     7
 10
59.015751073645113
 20
25.389102969269238
 30
0.0
 11
59.139995073645103
 21
25.730459969269241
 31
0.0
  0
LINE
  5
221
  8
0
  6
CONTINUOUS
 62
     7
 10
64.851650073645146
 20
25.730459969269241
 30
0.0
 11
64.975894073645151
 21
25.389102969269238
 31
0.0
  0
LINE
  5
222
  8
0
  6
CONTINUOUS
 62
     7
 10
65.833401073645149
 20
25.389102969269238
 30
0.0
 11
65.957645073645168
 21
25.730459969269241
 31
0.0
  0
LINE
  5
223
  8
0
  6
CONTINUOUS
 62
     7
 10
65.533415073645159
 20
25.730459969269241
 30
0.0
 11
65.657659073645178
 21
25.389102969269238
 31
0.0
  0
LINE
  5
224
  8
0
  6
CONTINUOUS
 62
     7
 10
65.151636073645179
 20
25.389102969269238
 30
0.0
 11
65.275880073645169
 21
25.730459969269241
 31
0.0
  0
LINE
  5
225
  8
0
  6
CONTINUOUS
 62
     7
 10
66.215180073645172
 20
25.730459969269241
 30
0.0
 11
66.339424073645134
 21
25.389102969269238
 31
0.0
  0
LINE
  5
226
  8
0
  6
CONTINUOUS
 62
     7
 10
66.515166073645148
 20
25.389102969269238
 30
0.0
 11
66.639410073645166
 21
25.730459969269241
 31
0.0
  0
LINE
  5
227
  8
0
  6
CONTINUOUS
 62
     7
 10
62.80635507364515
 20
25.730459969269241
 30
0.0
 11
62.930599073645141
 21
25.389102969269238
 31
0.0
  0
LINE
  5
228
  8
0
  6
CONTINUOUS
 62
     7
 10
63.488120073645142
 20
25.730459969269241
 30
0.0
 11
63.612364073645153
 21
25.389102969269238
 31
0.0
  0
LINE
  5
229
  8
0
  6
CONTINUOUS
 62
     7
 10
63.10634107364514
 20
25.389102969269238
 30
0.0
 11
63.230585073645138
 21
25.730459969269241
 31
0.0
  0
LINE
  5
22A
  8
0
  6
CONTINUOUS
 62
     7
 10
64.469871073645152
 20
25.389102969269238
 30
0.0
 11
64.594115073645142
 21
25.730459969269241
 31
0.0
  0
LINE
  5
22B
  8
0
  6
CONTINUOUS
 62
     7
 10
64.169885073645133
 20
25.730459969269241
 30
0.0
 11
64.294129073645138
 21
25.389102969269238
 31
0.0
  0
LINE
  5
22C
  8
0
  6
CONTINUOUS
 62
     7
 10
63.788106073645153
 20
25.389102969269238
 30
0.0
 11
63.912350073645143
 21
25.730459969269241
 31
0.0
  0
LINE
  5
22D
  8
0
  6
CONTINUOUS
 62
     7
 10
68.942240073645195
 20
25.730459969269241
 30
0.0
 11
69.066484073645171
 21
25.389102969269238
 31
0.0
  0
LINE
  5
22E
  8
0
  6
CONTINUOUS
 62
     7
 10
69.923991073645212
 20
25.389102969269238
 30
0.0
 11
70.048235073645202
 21
25.730459969269241
 31
0.0
  0
LINE
  5
22F
  8
0
  6
CONTINUOUS
 62
     7
 10
69.624005073645193
 20
25.730459969269241
 30
0.0
 11
69.748249073645184
 21
25.389102969269238
 31
0.0
  0
LINE
  5
230
  8
0
  6
CONTINUOUS
 62
     7
 10
69.242226073645185
 20
25.389102969269238
 30
0.0
 11
69.366470073645189
 21
25.730459969269241
 31
0.0
  0
LINE
  5
231
  8
0
  6
CONTINUOUS
 62
     7
 10
70.305770073645206
 20
25.730459969269241
 30
0.0
 11
70.430014073645197
 21
25.389102969269238
 31
0.0
  0
LINE
  5
232
  8
0
  6
CONTINUOUS
 62
     7
 10
70.605756073645196
 20
25.389102969269238
 30
0.0
 11
70.730000073645186
 21
25.730459969269241
 31
0.0
  0
LINE
  5
233
  8
0
  6
CONTINUOUS
 62
     7
 10
67.196931073645146
 20
25.389102969269238
 30
0.0
 11
67.321175073645179
 21
25.730459969269241
 31
0.0
  0
LINE
  5
234
  8
0
  6
CONTINUOUS
 62
     7
 10
67.578710073645169
 20
25.730459969269241
 30
0.0
 11
67.702954073645174
 21
25.389102969269238
 31
0.0
  0
LINE
  5
235
  8
0
  6
CONTINUOUS
 62
     7
 10
66.896945073645171
 20
25.730459969269241
 30
0.0
 11
67.021189073645147
 21
25.389102969269238
 31
0.0
  0
LINE
  5
236
  8
0
  6
CONTINUOUS
 62
     7
 10
68.5604610736452
 20
25.389102969269238
 30
0.0
 11
68.684705073645191
 21
25.730459969269241
 31
0.0
  0
LINE
  5
237
  8
0
  6
CONTINUOUS
 62
     7
 10
68.260475073645182
 20
25.730459969269241
 30
0.0
 11
68.384719073645172
 21
25.389102969269238
 31
0.0
  0
LINE
  5
238
  8
0
  6
CONTINUOUS
 62
     7
 10
67.878696073645187
 20
25.389102969269238
 30
0.0
 11
68.002940073645192
 21
25.730459969269241
 31
0.0
  0
LINE
  5
239
  8
0
  6
CONTINUOUS
 62
     7
 10
128.8573020736448
 20
114.6668327542958
 30
0.0
 11
128.8573020736448
 21
39.666832754295832
 31
0.0
  0
LINE
  5
23A
  8
0
  6
CONTINUOUS
 62
     7
 10
103.71225507364539
 20
25.730459969269241
 30
0.0
 11
103.8364990736454
 21
25.389102969269238
 31
0.0
  0
LINE
  5
23B
  8
0
  6
CONTINUOUS
 62
     7
 10
73.032830073645187
 20
25.730459969269241
 30
0.0
 11
73.157074073645234
 21
25.389102969269238
 31
0.0
  0
LINE
  5
23C
  8
0
  6
CONTINUOUS
 62
     7
 10
74.696346073645245
 20
25.389102969269238
 30
0.0
 11
74.820590073645235
 21
25.730459969269241
 31
0.0
  0
LINE
  5
23D
  8
0
  6
CONTINUOUS
 62
     7
 10
74.014581073645232
 20
25.389102969269238
 30
0.0
 11
74.138825073645236
 21
25.730459969269241
 31
0.0
  0
LINE
  5
23E
  8
0
  6
CONTINUOUS
 62
     7
 10
74.396360073645255
 20
25.730459969269241
 30
0.0
 11
74.520604073645245
 21
25.389102969269238
 31
0.0
  0
LINE
  5
23F
  8
0
  6
CONTINUOUS
 62
     7
 10
73.714595073645214
 20
25.730459969269241
 30
0.0
 11
73.838839073645232
 21
25.389102969269238
 31
0.0
  0
LINE
  5
240
  8
0
  6
CONTINUOUS
 62
     7
 10
73.332816073645233
 20
25.389102969269238
 30
0.0
 11
73.457060073645223
 21
25.730459969269241
 31
0.0
  0
LINE
  5
241
  8
0
  6
CONTINUOUS
 62
     7
 10
71.287521073645223
 20
25.389102969269238
 30
0.0
 11
71.411765073645185
 21
25.730459969269241
 31
0.0
  0
LINE
  5
242
  8
0
  6
CONTINUOUS
 62
     7
 10
71.669300073645218
 20
25.730459969269241
 30
0.0
 11
71.793544073645194
 21
25.389102969269238
 31
0.0
  0
LINE
  5
243
  8
0
  6
CONTINUOUS
 62
     7
 10
70.987535073645191
 20
25.730459969269241
 30
0.0
 11
71.111779073645195
 21
25.389102969269238
 31
0.0
  0
LINE
  5
244
  8
0
  6
CONTINUOUS
 62
     7
 10
72.651051073645235
 20
25.389102969269238
 30
0.0
 11
72.775295073645253
 21
25.730459969269241
 31
0.0
  0
LINE
  5
245
  8
0
  6
CONTINUOUS
 62
     7
 10
72.351065073645245
 20
25.730459969269241
 30
0.0
 11
72.475309073645207
 21
25.389102969269238
 31
0.0
  0
LINE
  5
246
  8
0
  6
CONTINUOUS
 62
     7
 10
71.969286073645236
 20
25.389102969269238
 30
0.0
 11
72.093530073645226
 21
25.730459969269241
 31
0.0
  0
LINE
  5
247
  8
0
  6
CONTINUOUS
 62
     7
 10
78.786936073645251
 20
25.389102969269238
 30
0.0
 11
78.911180073645284
 21
25.730459969269241
 31
0.0
  0
LINE
  5
248
  8
0
  6
CONTINUOUS
 62
     7
 10
77.423406073645253
 20
25.389102969269238
 30
0.0
 11
77.547650073645244
 21
25.730459969269241
 31
0.0
  0
LINE
  5
249
  8
0
  6
CONTINUOUS
 62
     7
 10
77.805185073645248
 20
25.730459969269241
 30
0.0
 11
77.929429073645252
 21
25.389102969269238
 31
0.0
  0
LINE
  5
24A
  8
0
  6
CONTINUOUS
 62
     7
 10
78.486950073645247
 20
25.730459969269241
 30
0.0
 11
78.611194073645251
 21
25.389102969269238
 31
0.0
  0
LINE
  5
24B
  8
0
  6
CONTINUOUS
 62
     7
 10
78.105171073645266
 20
25.389102969269238
 30
0.0
 11
78.229415073645242
 21
25.730459969269241
 31
0.0
  0
LINE
  5
24C
  8
0
  6
CONTINUOUS
 62
     7
 10
77.123420073645264
 20
25.730459969269241
 30
0.0
 11
77.24766407364524
 21
25.389102969269238
 31
0.0
  0
LINE
  5
24D
  8
0
  6
CONTINUOUS
 62
     7
 10
75.078125073645253
 20
25.730459969269241
 30
0.0
 11
75.202369073645244
 21
25.389102969269238
 31
0.0
  0
LINE
  5
24E
  8
0
  6
CONTINUOUS
 62
     7
 10
75.378111073645243
 20
25.389102969269238
 30
0.0
 11
75.502355073645248
 21
25.730459969269241
 31
0.0
  0
LINE
  5
24F
  8
0
  6
CONTINUOUS
 62
     7
 10
76.059876073645242
 20
25.389102969269238
 30
0.0
 11
76.184120073645246
 21
25.730459969269241
 31
0.0
  0
LINE
  5
250
  8
0
  6
CONTINUOUS
 62
     7
 10
76.441655073645251
 20
25.730459969269241
 30
0.0
 11
76.565899073645255
 21
25.389102969269238
 31
0.0
  0
LINE
  5
251
  8
0
  6
CONTINUOUS
 62
     7
 10
76.741641073645255
 20
25.389102969269238
 30
0.0
 11
76.865885073645245
 21
25.730459969269241
 31
0.0
  0
LINE
  5
252
  8
0
  6
CONTINUOUS
 62
     7
 10
75.759890073645224
 20
25.730459969269241
 30
0.0
 11
75.884134073645214
 21
25.389102969269238
 31
0.0
  0
LINE
  5
253
  8
0
  6
CONTINUOUS
 62
     7
 10
82.877526073645313
 20
25.389102969269238
 30
0.0
 11
83.001770073645304
 21
25.730459969269241
 31
0.0
  0
LINE
  5
254
  8
0
  6
CONTINUOUS
 62
     7
 10
81.513996073645316
 20
25.389102969269238
 30
0.0
 11
81.638240073645278
 21
25.730459969269241
 31
0.0
  0
LINE
  5
255
  8
0
  6
CONTINUOUS
 62
     7
 10
81.895775073645282
 20
25.730459969269241
 30
0.0
 11
82.020019073645244
 21
25.389102969269238
 31
0.0
  0
LINE
  5
256
  8
0
  6
CONTINUOUS
 62
     7
 10
82.577540073645267
 20
25.730459969269241
 30
0.0
 11
82.701784073645229
 21
25.389102969269238
 31
0.0
  0
LINE
  5
257
  8
0
  6
CONTINUOUS
 62
     7
 10
82.195761073645315
 20
25.389102969269238
 30
0.0
 11
82.320005073645262
 21
25.730459969269241
 31
0.0
  0
LINE
  5
258
  8
0
  6
CONTINUOUS
 62
     7
 10
81.214010073645284
 20
25.730459969269241
 30
0.0
 11
81.338254073645246
 21
25.389102969269238
 31
0.0
  0
LINE
  5
259
  8
0
  6
CONTINUOUS
 62
     7
 10
79.168715073645245
 20
25.730459969269241
 30
0.0
 11
79.29295907364525
 21
25.389102969269238
 31
0.0
  0
LINE
  5
25A
  8
0
  6
CONTINUOUS
 62
     7
 10
79.468701073645235
 20
25.389102969269238
 30
0.0
 11
79.592945073645282
 21
25.730459969269241
 31
0.0
  0
LINE
  5
25B
  8
0
  6
CONTINUOUS
 62
     7
 10
80.150466073645234
 20
25.389102969269238
 30
0.0
 11
80.274710073645267
 21
25.730459969269241
 31
0.0
  0
LINE
  5
25C
  8
0
  6
CONTINUOUS
 62
     7
 10
80.532245073645228
 20
25.730459969269241
 30
0.0
 11
80.656489073645261
 21
25.389102969269238
 31
0.0
  0
LINE
  5
25D
  8
0
  6
CONTINUOUS
 62
     7
 10
80.832231073645261
 20
25.389102969269238
 30
0.0
 11
80.956475073645279
 21
25.730459969269241
 31
0.0
  0
LINE
  5
25E
  8
0
  6
CONTINUOUS
 62
     7
 10
79.850480073645244
 20
25.730459969269241
 30
0.0
 11
79.974724073645248
 21
25.389102969269238
 31
0.0
  0
LINE
  5
25F
  8
0
  6
CONTINUOUS
 62
     7
 10
86.668130073645344
 20
25.730459969269241
 30
0.0
 11
86.792374073645306
 21
25.389102969269238
 31
0.0
  0
LINE
  5
260
  8
0
  6
CONTINUOUS
 62
     7
 10
86.968116073645319
 20
25.389102969269238
 30
0.0
 11
87.092360073645295
 21
25.730459969269241
 31
0.0
  0
LINE
  5
261
  8
0
  6
CONTINUOUS
 62
     7
 10
85.304600073645304
 20
25.730459969269241
 30
0.0
 11
85.428844073645294
 21
25.389102969269238
 31
0.0
  0
LINE
  5
262
  8
0
  6
CONTINUOUS
 62
     7
 10
86.286351073645307
 20
25.389102969269238
 30
0.0
 11
86.410595073645311
 21
25.730459969269241
 31
0.0
  0
LINE
  5
263
  8
0
  6
CONTINUOUS
 62
     7
 10
85.986365073645288
 20
25.730459969269241
 30
0.0
 11
86.110609073645307
 21
25.389102969269238
 31
0.0
  0
LINE
  5
264
  8
0
  6
CONTINUOUS
 62
     7
 10
85.604586073645322
 20
25.389102969269238
 30
0.0
 11
85.728830073645341
 21
25.730459969269241
 31
0.0
  0
LINE
  5
265
  8
0
  6
CONTINUOUS
 62
     7
 10
83.25930507364528
 20
25.730459969269241
 30
0.0
 11
83.383549073645298
 21
25.389102969269238
 31
0.0
  0
LINE
  5
266
  8
0
  6
CONTINUOUS
 62
     7
 10
83.559291073645312
 20
25.389102969269238
 30
0.0
 11
83.683535073645317
 21
25.730459969269241
 31
0.0
  0
LINE
  5
267
  8
0
  6
CONTINUOUS
 62
     7
 10
84.241056073645311
 20
25.389102969269238
 30
0.0
 11
84.365300073645315
 21
25.730459969269241
 31
0.0
  0
LINE
  5
268
  8
0
  6
CONTINUOUS
 62
     7
 10
84.622835073645305
 20
25.730459969269241
 30
0.0
 11
84.747079073645295
 21
25.389102969269238
 31
0.0
  0
LINE
  5
269
  8
0
  6
CONTINUOUS
 62
     7
 10
84.922821073645295
 20
25.389102969269238
 30
0.0
 11
85.047065073645314
 21
25.730459969269241
 31
0.0
  0
LINE
  5
26A
  8
0
  6
CONTINUOUS
 62
     7
 10
83.941070073645307
 20
25.730459969269241
 30
0.0
 11
84.065314073645297
 21
25.389102969269238
 31
0.0
  0
LINE
  5
26B
  8
0
  6
CONTINUOUS
 62
     7
 10
95.531075073645425
 20
25.730459969269241
 30
0.0
 11
95.655319073645401
 21
25.389102969269238
 31
0.0
  0
LINE
  5
26C
  8
0
  6
CONTINUOUS
 62
     7
 10
91.440485073645348
 20
25.730459969269241
 30
0.0
 11
91.564729073645367
 21
25.389102969269238
 31
0.0
  0
LINE
  5
26D
  8
0
  6
CONTINUOUS
 62
     7
 10
90.758720073645364
 20
25.730459969269241
 30
0.0
 11
90.88296407364534
 21
25.389102969269238
 31
0.0
  0
LINE
  5
26E
  8
0
  6
CONTINUOUS
 62
     7
 10
91.058706073645354
 20
25.389102969269238
 30
0.0
 11
91.182950073645344
 21
25.730459969269241
 31
0.0
  0
LINE
  5
26F
  8
0
  6
CONTINUOUS
 62
     7
 10
89.395190073645338
 20
25.730459969269241
 30
0.0
 11
89.519434073645286
 21
25.389102969269238
 31
0.0
  0
LINE
  5
270
  8
0
  6
CONTINUOUS
 62
     7
 10
90.376941073645355
 20
25.389102969269238
 30
0.0
 11
90.501185073645345
 21
25.730459969269241
 31
0.0
  0
LINE
  5
271
  8
0
  6
CONTINUOUS
 62
     7
 10
90.076955073645408
 20
25.730459969269241
 30
0.0
 11
90.201199073645284
 21
25.389102969269238
 31
0.0
  0
LINE
  5
272
  8
0
  6
CONTINUOUS
 62
     7
 10
89.695176073645356
 20
25.389102969269238
 30
0.0
 11
89.819420073645347
 21
25.730459969269241
 31
0.0
  0
LINE
  5
273
  8
0
  6
CONTINUOUS
 62
     7
 10
87.649881073645304
 20
25.389102969269238
 30
0.0
 11
87.774125073645294
 21
25.730459969269241
 31
0.0
  0
LINE
  5
274
  8
0
  6
CONTINUOUS
 62
     7
 10
87.349895073645342
 20
25.730459969269241
 30
0.0
 11
87.474139073645304
 21
25.389102969269238
 31
0.0
  0
LINE
  5
275
  8
0
  6
CONTINUOUS
 62
     7
 10
88.031660073645341
 20
25.730459969269241
 30
0.0
 11
88.155904073645289
 21
25.389102969269238
 31
0.0
  0
LINE
  5
276
  8
0
  6
CONTINUOUS
 62
     7
 10
89.013411073645344
 20
25.389102969269238
 30
0.0
 11
89.137655073645348
 21
25.730459969269241
 31
0.0
  0
LINE
  5
277
  8
0
  6
CONTINUOUS
 62
     7
 10
88.713425073645311
 20
25.730459969269241
 30
0.0
 11
88.837669073645287
 21
25.389102969269238
 31
0.0
  0
LINE
  5
278
  8
0
  6
CONTINUOUS
 62
     7
 10
88.331646073645302
 20
25.389102969269238
 30
0.0
 11
88.455890073645321
 21
25.730459969269241
 31
0.0
  0
LINE
  5
279
  8
0
  6
CONTINUOUS
 62
     7
 10
95.149296073645417
 20
25.389102969269238
 30
0.0
 11
95.273540073645407
 21
25.730459969269241
 31
0.0
  0
LINE
  5
27A
  8
0
  6
CONTINUOUS
 62
     7
 10
94.849310073645427
 20
25.730459969269241
 30
0.0
 11
94.973554073645403
 21
25.389102969269238
 31
0.0
  0
LINE
  5
27B
  8
0
  6
CONTINUOUS
 62
     7
 10
93.485780073645401
 20
25.730459969269241
 30
0.0
 11
93.610024073645349
 21
25.389102969269238
 31
0.0
  0
LINE
  5
27C
  8
0
  6
CONTINUOUS
 62
     7
 10
94.467531073645404
 20
25.389102969269238
 30
0.0
 11
94.591775073645394
 21
25.730459969269241
 31
0.0
  0
LINE
  5
27D
  8
0
  6
CONTINUOUS
 62
     7
 10
94.1675450736454
 20
25.730459969269241
 30
0.0
 11
94.291789073645404
 21
25.389102969269238
 31
0.0
  0
LINE
  5
27E
  8
0
  6
CONTINUOUS
 62
     7
 10
93.785766073645405
 20
25.389102969269238
 30
0.0
 11
93.91001007364531
 21
25.730459969269241
 31
0.0
  0
LINE
  5
27F
  8
0
  6
CONTINUOUS
 62
     7
 10
91.74047107364531
 20
25.389102969269238
 30
0.0
 11
91.864715073645414
 21
25.730459969269241
 31
0.0
  0
LINE
  5
280
  8
0
  6
CONTINUOUS
 62
     7
 10
92.122250073645404
 20
25.730459969269241
 30
0.0
 11
92.246494073645366
 21
25.389102969269238
 31
0.0
  0
LINE
  5
281
  8
0
  6
CONTINUOUS
 62
     7
 10
93.104001073645406
 20
25.389102969269238
 30
0.0
 11
93.228245073645354
 21
25.730459969269241
 31
0.0
  0
LINE
  5
282
  8
0
  6
CONTINUOUS
 62
     7
 10
92.804015073645402
 20
25.730459969269241
 30
0.0
 11
92.928259073645364
 21
25.389102969269238
 31
0.0
  0
LINE
  5
283
  8
0
  6
CONTINUOUS
 62
     7
 10
92.422236073645408
 20
25.389102969269238
 30
0.0
 11
92.546480073645355
 21
25.730459969269241
 31
0.0
  0
LINE
  5
284
  8
0
  6
CONTINUOUS
 62
     7
 10
99.62166507364536
 20
25.730459969269241
 30
0.0
 11
99.745909073645308
 21
25.389102969269238
 31
0.0
  0
LINE
  5
285
  8
0
  6
CONTINUOUS
 62
     7
 10
97.576370073645435
 20
25.730459969269241
 30
0.0
 11
97.700614073645426
 21
25.389102969269238
 31
0.0
  0
LINE
  5
286
  8
0
  6
CONTINUOUS
 62
     7
 10
98.558121073645367
 20
25.389102969269238
 30
0.0
 11
98.682365073645343
 21
25.730459969269241
 31
0.0
  0
LINE
  5
287
  8
0
  6
CONTINUOUS
 62
     7
 10
98.939900073645305
 20
25.730459969269241
 30
0.0
 11
99.064144073645309
 21
25.389102969269238
 31
0.0
  0
LINE
  5
288
  8
0
  6
CONTINUOUS
 62
     7
 10
98.258135073645434
 20
25.730459969269241
 30
0.0
 11
98.382379073645353
 21
25.389102969269238
 31
0.0
  0
LINE
  5
289
  8
0
  6
CONTINUOUS
 62
     7
 10
97.876356073645439
 20
25.389102969269238
 30
0.0
 11
98.000600073645415
 21
25.730459969269241
 31
0.0
  0
LINE
  5
28A
  8
0
  6
CONTINUOUS
 62
     7
 10
99.239886073645366
 20
25.389102969269238
 30
0.0
 11
99.364130073645299
 21
25.730459969269241
 31
0.0
  0
LINE
  5
28B
  8
0
  6
CONTINUOUS
 62
     7
 10
95.831061073645415
 20
25.389102969269238
 30
0.0
 11
95.955305073645405
 21
25.730459969269241
 31
0.0
  0
LINE
  5
28C
  8
0
  6
CONTINUOUS
 62
     7
 10
96.212840073645424
 20
25.730459969269241
 30
0.0
 11
96.3370840736454
 21
25.389102969269238
 31
0.0
  0
LINE
  5
28D
  8
0
  6
CONTINUOUS
 62
     7
 10
97.194591073645427
 20
25.389102969269238
 30
0.0
 11
97.318835073645445
 21
25.730459969269241
 31
0.0
  0
LINE
  5
28E
  8
0
  6
CONTINUOUS
 62
     7
 10
96.894605073645394
 20
25.730459969269241
 30
0.0
 11
97.018849073645441
 21
25.389102969269238
 31
0.0
  0
LINE
  5
28F
  8
0
  6
CONTINUOUS
 62
     7
 10
96.512826073645414
 20
25.389102969269238
 30
0.0
 11
96.637070073645432
 21
25.730459969269241
 31
0.0
  0
LINE
  5
290
  8
0
  6
CONTINUOUS
 62
     7
 10
101.6669600736454
 20
25.730459969269241
 30
0.0
 11
101.7912040736454
 21
25.389102969269238
 31
0.0
  0
LINE
  5
291
  8
0
  6
CONTINUOUS
 62
     7
 10
102.6487110736454
 20
25.389102969269238
 30
0.0
 11
102.77295507364541
 21
25.730459969269241
 31
0.0
  0
LINE
  5
292
  8
0
  6
CONTINUOUS
 62
     7
 10
103.0304900736454
 20
25.730459969269241
 30
0.0
 11
103.1547340736454
 21
25.389102969269238
 31
0.0
  0
LINE
  5
293
  8
0
  6
CONTINUOUS
 62
     7
 10
102.3487250736454
 20
25.730459969269241
 30
0.0
 11
102.4729690736454
 21
25.389102969269238
 31
0.0
  0
LINE
  5
294
  8
0
  6
CONTINUOUS
 62
     7
 10
101.9669460736454
 20
25.389102969269238
 30
0.0
 11
102.09119007364539
 21
25.730459969269241
 31
0.0
  0
LINE
  5
295
  8
0
  6
CONTINUOUS
 62
     7
 10
103.3304760736454
 20
25.389102969269238
 30
0.0
 11
103.4547200736454
 21
25.730459969269241
 31
0.0
  0
LINE
  5
296
  8
0
  6
CONTINUOUS
 62
     7
 10
99.921651073645435
 20
25.389102969269238
 30
0.0
 11
100.0458950736454
 21
25.730459969269241
 31
0.0
  0
LINE
  5
297
  8
0
  6
CONTINUOUS
 62
     7
 10
100.3034300736453
 20
25.730459969269241
 30
0.0
 11
100.42767407364541
 21
25.389102969269238
 31
0.0
  0
LINE
  5
298
  8
0
  6
CONTINUOUS
 62
     7
 10
101.2851810736454
 20
25.389102969269238
 30
0.0
 11
101.40942507364539
 21
25.730459969269241
 31
0.0
  0
LINE
  5
299
  8
0
  6
CONTINUOUS
 62
     7
 10
100.9851950736454
 20
25.730459969269241
 30
0.0
 11
101.10943907364531
 21
25.389102969269238
 31
0.0
  0
LINE
  5
29A
  8
0
  6
CONTINUOUS
 62
     7
 10
100.60341607364541
 20
25.389102969269238
 30
0.0
 11
100.7276600736454
 21
25.730459969269241
 31
0.0
  0
LINE
  5
29B
  8
0
  6
CONTINUOUS
 62
     7
 10
120.0746150736455
 20
25.730459969269241
 30
0.0
 11
120.19885907364549
 21
25.389102969269238
 31
0.0
  0
LINE
  5
29C
  8
0
  6
CONTINUOUS
 62
     7
 10
111.89343507364551
 20
25.730459969269241
 30
0.0
 11
112.0176790736454
 21
25.389102969269238
 31
0.0
  0
LINE
  5
29D
  8
0
  6
CONTINUOUS
 62
     7
 10
107.8028450736454
 20
25.730459969269241
 30
0.0
 11
107.9270890736454
 21
25.389102969269238
 31
0.0
  0
LINE
  5
29E
  8
0
  6
CONTINUOUS
 62
     7
 10
105.7575500736454
 20
25.730459969269241
 30
0.0
 11
105.88179407364539
 21
25.389102969269238
 31
0.0
  0
LINE
  5
29F
  8
0
  6
CONTINUOUS
 62
     7
 10
107.42106607364541
 20
25.389102969269238
 30
0.0
 11
107.5453100736454
 21
25.730459969269241
 31
0.0
  0
LINE
  5
2A0
  8
0
  6
CONTINUOUS
 62
     7
 10
106.73930107364539
 20
25.389102969269238
 30
0.0
 11
106.8635450736454
 21
25.730459969269241
 31
0.0
  0
LINE
  5
2A1
  8
0
  6
CONTINUOUS
 62
     7
 10
107.1210800736454
 20
25.730459969269241
 30
0.0
 11
107.24532407364541
 21
25.389102969269238
 31
0.0
  0
LINE
  5
2A2
  8
0
  6
CONTINUOUS
 62
     7
 10
106.4393150736454
 20
25.730459969269241
 30
0.0
 11
106.56355907364539
 21
25.389102969269238
 31
0.0
  0
LINE
  5
2A3
  8
0
  6
CONTINUOUS
 62
     7
 10
106.05753607364539
 20
25.389102969269238
 30
0.0
 11
106.1817800736454
 21
25.730459969269241
 31
0.0
  0
LINE
  5
2A4
  8
0
  6
CONTINUOUS
 62
     7
 10
104.0122410736454
 20
25.389102969269238
 30
0.0
 11
104.1364850736454
 21
25.730459969269241
 31
0.0
  0
LINE
  5
2A5
  8
0
  6
CONTINUOUS
 62
     7
 10
104.39402007364539
 20
25.730459969269241
 30
0.0
 11
104.5182640736454
 21
25.389102969269238
 31
0.0
  0
LINE
  5
2A6
  8
0
  6
CONTINUOUS
 62
     7
 10
105.3757710736454
 20
25.389102969269238
 30
0.0
 11
105.5000150736454
 21
25.730459969269241
 31
0.0
  0
LINE
  5
2A7
  8
0
  6
CONTINUOUS
 62
     7
 10
105.07578507364541
 20
25.730459969269241
 30
0.0
 11
105.2000290736454
 21
25.389102969269238
 31
0.0
  0
LINE
  5
2A8
  8
0
  6
CONTINUOUS
 62
     7
 10
104.6940060736454
 20
25.389102969269238
 30
0.0
 11
104.8182500736454
 21
25.730459969269241
 31
0.0
  0
LINE
  5
2A9
  8
0
  6
CONTINUOUS
 62
     7
 10
111.5116560736454
 20
25.389102969269238
 30
0.0
 11
111.6359000736455
 21
25.730459969269241
 31
0.0
  0
LINE
  5
2AA
  8
0
  6
CONTINUOUS
 62
     7
 10
110.1481260736454
 20
25.389102969269238
 30
0.0
 11
110.2723700736454
 21
25.730459969269241
 31
0.0
  0
LINE
  5
2AB
  8
0
  6
CONTINUOUS
 62
     7
 10
110.52990507364539
 20
25.730459969269241
 30
0.0
 11
110.6541490736454
 21
25.389102969269238
 31
0.0
  0
LINE
  5
2AC
  8
0
  6
CONTINUOUS
 62
     7
 10
111.21167007364539
 20
25.730459969269241
 30
0.0
 11
111.3359140736454
 21
25.389102969269238
 31
0.0
  0
LINE
  5
2AD
  8
0
  6
CONTINUOUS
 62
     7
 10
110.8298910736454
 20
25.389102969269238
 30
0.0
 11
110.9541350736455
 21
25.730459969269241
 31
0.0
  0
LINE
  5
2AE
  8
0
  6
CONTINUOUS
 62
     7
 10
109.8481400736454
 20
25.730459969269241
 30
0.0
 11
109.9723840736454
 21
25.389102969269238
 31
0.0
  0
LINE
  5
2AF
  8
0
  6
CONTINUOUS
 62
     7
 10
108.1028310736454
 20
25.389102969269238
 30
0.0
 11
108.22707507364539
 21
25.730459969269241
 31
0.0
  0
LINE
  5
2B0
  8
0
  6
CONTINUOUS
 62
     7
 10
108.7845960736454
 20
25.389102969269238
 30
0.0
 11
108.90884007364539
 21
25.730459969269241
 31
0.0
  0
LINE
  5
2B1
  8
0
  6
CONTINUOUS
 62
     7
 10
109.1663750736454
 20
25.730459969269241
 30
0.0
 11
109.2906190736454
 21
25.389102969269238
 31
0.0
  0
LINE
  5
2B2
  8
0
  6
CONTINUOUS
 62
     7
 10
109.4663610736455
 20
25.389102969269238
 30
0.0
 11
109.59060507364541
 21
25.730459969269241
 31
0.0
  0
LINE
  5
2B3
  8
0
  6
CONTINUOUS
 62
     7
 10
108.4846100736454
 20
25.730459969269241
 30
0.0
 11
108.6088540736454
 21
25.389102969269238
 31
0.0
  0
LINE
  5
2B4
  8
0
  6
CONTINUOUS
 62
     7
 10
115.9840250736455
 20
25.730459969269241
 30
0.0
 11
116.1082690736455
 21
25.389102969269238
 31
0.0
  0
LINE
  5
2B5
  8
0
  6
CONTINUOUS
 62
     7
 10
115.6022460736455
 20
25.389102969269238
 30
0.0
 11
115.72649007364549
 21
25.730459969269241
 31
0.0
  0
LINE
  5
2B6
  8
0
  6
CONTINUOUS
 62
     7
 10
114.23871607364551
 20
25.389102969269238
 30
0.0
 11
114.3629600736455
 21
25.730459969269241
 31
0.0
  0
LINE
  5
2B7
  8
0
  6
CONTINUOUS
 62
     7
 10
114.6204950736455
 20
25.730459969269241
 30
0.0
 11
114.7447390736455
 21
25.389102969269238
 31
0.0
  0
LINE
  5
2B8
  8
0
  6
CONTINUOUS
 62
     7
 10
115.3022600736455
 20
25.730459969269241
 30
0.0
 11
115.4265040736455
 21
25.389102969269238
 31
0.0
  0
LINE
  5
2B9
  8
0
  6
CONTINUOUS
 62
     7
 10
114.9204810736455
 20
25.389102969269238
 30
0.0
 11
115.04472507364549
 21
25.730459969269241
 31
0.0
  0
LINE
  5
2BA
  8
0
  6
CONTINUOUS
 62
     7
 10
113.9387300736455
 20
25.730459969269241
 30
0.0
 11
114.06297407364551
 21
25.389102969269238
 31
0.0
  0
LINE
  5
2BB
  8
0
  6
CONTINUOUS
 62
     7
 10
112.1934210736455
 20
25.389102969269238
 30
0.0
 11
112.3176650736455
 21
25.730459969269241
 31
0.0
  0
LINE
  5
2BC
  8
0
  6
CONTINUOUS
 62
     7
 10
112.87518607364549
 20
25.389102969269238
 30
0.0
 11
112.9994300736455
 21
25.730459969269241
 31
0.0
  0
LINE
  5
2BD
  8
0
  6
CONTINUOUS
 62
     7
 10
113.2569650736455
 20
25.730459969269241
 30
0.0
 11
113.38120907364549
 21
25.389102969269238
 31
0.0
  0
LINE
  5
2BE
  8
0
  6
CONTINUOUS
 62
     7
 10
113.55695107364539
 20
25.389102969269238
 30
0.0
 11
113.6811950736455
 21
25.730459969269241
 31
0.0
  0
LINE
  5
2BF
  8
0
  6
CONTINUOUS
 62
     7
 10
112.5752000736455
 20
25.730459969269241
 30
0.0
 11
112.6994440736454
 21
25.389102969269238
 31
0.0
  0
LINE
  5
2C0
  8
0
  6
CONTINUOUS
 62
     7
 10
118.3293060736455
 20
25.389102969269238
 30
0.0
 11
118.4535500736455
 21
25.730459969269241
 31
0.0
  0
LINE
  5
2C1
  8
0
  6
CONTINUOUS
 62
     7
 10
118.71108507364551
 20
25.730459969269241
 30
0.0
 11
118.8353290736455
 21
25.389102969269238
 31
0.0
  0
LINE
  5
2C2
  8
0
  6
CONTINUOUS
 62
     7
 10
119.3928500736455
 20
25.730459969269241
 30
0.0
 11
119.5170940736455
 21
25.389102969269238
 31
0.0
  0
LINE
  5
2C3
  8
0
  6
CONTINUOUS
 62
     7
 10
119.0110710736455
 20
25.389102969269238
 30
0.0
 11
119.1353150736455
 21
25.730459969269241
 31
0.0
  0
LINE
  5
2C4
  8
0
  6
CONTINUOUS
 62
     7
 10
119.69283607364549
 20
25.389102969269238
 30
0.0
 11
119.8170800736455
 21
25.730459969269241
 31
0.0
  0
LINE
  5
2C5
  8
0
  6
CONTINUOUS
 62
     7
 10
118.02932007364549
 20
25.730459969269241
 30
0.0
 11
118.1535640736455
 21
25.389102969269238
 31
0.0
  0
LINE
  5
2C6
  8
0
  6
CONTINUOUS
 62
     7
 10
116.2840110736455
 20
25.389102969269238
 30
0.0
 11
116.40825507364551
 21
25.730459969269241
 31
0.0
  0
LINE
  5
2C7
  8
0
  6
CONTINUOUS
 62
     7
 10
116.6657900736455
 20
25.730459969269241
 30
0.0
 11
116.7900340736455
 21
25.389102969269238
 31
0.0
  0
LINE
  5
2C8
  8
0
  6
CONTINUOUS
 62
     7
 10
116.9657760736455
 20
25.389102969269238
 30
0.0
 11
117.0900200736455
 21
25.730459969269241
 31
0.0
  0
LINE
  5
2C9
  8
0
  6
CONTINUOUS
 62
     7
 10
117.34755507364549
 20
25.730459969269241
 30
0.0
 11
117.4717990736455
 21
25.389102969269238
 31
0.0
  0
LINE
  5
2CA
  8
0
  6
CONTINUOUS
 62
     7
 10
117.6475410736455
 20
25.389102969269238
 30
0.0
 11
117.7717850736455
 21
25.730459969269241
 31
0.0
  0
LINE
  5
2CB
  8
0
  6
CONTINUOUS
 62
     7
 10
128.2557950736456
 20
25.730459969269241
 30
0.0
 11
128.38003907364561
 21
25.389102969269238
 31
0.0
  0
LINE
  5
2CC
  8
0
  6
CONTINUOUS
 62
     7
 10
124.16520507364559
 20
25.730459969269241
 30
0.0
 11
124.2894490736456
 21
25.389102969269238
 31
0.0
  0
LINE
  5
2CD
  8
0
  6
CONTINUOUS
 62
     7
 10
123.1016610736456
 20
25.389102969269238
 30
0.0
 11
123.22590507364561
 21
25.730459969269241
 31
0.0
  0
LINE
  5
2CE
  8
0
  6
CONTINUOUS
 62
     7
 10
123.4834400736456
 20
25.730459969269241
 30
0.0
 11
123.6076840736456
 21
25.389102969269238
 31
0.0
  0
LINE
  5
2CF
  8
0
  6
CONTINUOUS
 62
     7
 10
122.8016750736456
 20
25.730459969269241
 30
0.0
 11
122.9259190736456
 21
25.389102969269238
 31
0.0
  0
LINE
  5
2D0
  8
0
  6
CONTINUOUS
 62
     7
 10
122.4198960736456
 20
25.389102969269238
 30
0.0
 11
122.54414007364549
 21
25.730459969269241
 31
0.0
  0
LINE
  5
2D1
  8
0
  6
CONTINUOUS
 62
     7
 10
123.7834260736456
 20
25.389102969269238
 30
0.0
 11
123.9076700736456
 21
25.730459969269241
 31
0.0
  0
LINE
  5
2D2
  8
0
  6
CONTINUOUS
 62
     7
 10
120.7563800736455
 20
25.730459969269241
 30
0.0
 11
120.88062407364551
 21
25.389102969269238
 31
0.0
  0
LINE
  5
2D3
  8
0
  6
CONTINUOUS
 62
     7
 10
121.7381310736456
 20
25.389102969269238
 30
0.0
 11
121.8623750736455
 21
25.730459969269241
 31
0.0
  0
LINE
  5
2D4
  8
0
  6
CONTINUOUS
 62
     7
 10
121.4381450736456
 20
25.730459969269241
 30
0.0
 11
121.56238907364551
 21
25.389102969269238
 31
0.0
  0
LINE
  5
2D5
  8
0
  6
CONTINUOUS
 62
     7
 10
121.05636607364561
 20
25.389102969269238
 30
0.0
 11
121.1806100736456
 21
25.730459969269241
 31
0.0
  0
LINE
  5
2D6
  8
0
  6
CONTINUOUS
 62
     7
 10
120.37460107364549
 20
25.389102969269238
 30
0.0
 11
120.4988450736456
 21
25.730459969269241
 31
0.0
  0
LINE
  5
2D7
  8
0
  6
CONTINUOUS
 62
     7
 10
122.1199100736455
 20
25.730459969269241
 30
0.0
 11
122.2441540736455
 21
25.389102969269238
 31
0.0
  0
LINE
  5
2D8
  8
0
  6
CONTINUOUS
 62
     7
 10
127.19225107364559
 20
25.389102969269238
 30
0.0
 11
127.3164950736456
 21
25.730459969269241
 31
0.0
  0
LINE
  5
2D9
  8
0
  6
CONTINUOUS
 62
     7
 10
127.5740300736456
 20
25.730459969269241
 30
0.0
 11
127.69827407364561
 21
25.389102969269238
 31
0.0
  0
LINE
  5
2DA
  8
0
  6
CONTINUOUS
 62
     7
 10
126.8922650736456
 20
25.730459969269241
 30
0.0
 11
127.01650907364559
 21
25.389102969269238
 31
0.0
  0
LINE
  5
2DB
  8
0
  6
CONTINUOUS
 62
     7
 10
126.51048607364559
 20
25.389102969269238
 30
0.0
 11
126.6347300736456
 21
25.730459969269241
 31
0.0
  0
LINE
  5
2DC
  8
0
  6
CONTINUOUS
 62
     7
 10
127.87401607364561
 20
25.389102969269238
 30
0.0
 11
127.9982600736456
 21
25.730459969269241
 31
0.0
  0
LINE
  5
2DD
  8
0
  6
CONTINUOUS
 62
     7
 10
124.84697007364559
 20
25.730459969269241
 30
0.0
 11
124.9712140736456
 21
25.389102969269238
 31
0.0
  0
LINE
  5
2DE
  8
0
  6
CONTINUOUS
 62
     7
 10
125.8287210736456
 20
25.389102969269238
 30
0.0
 11
125.9529650736456
 21
25.730459969269241
 31
0.0
  0
LINE
  5
2DF
  8
0
  6
CONTINUOUS
 62
     7
 10
125.52873507364561
 20
25.730459969269241
 30
0.0
 11
125.6529790736456
 21
25.389102969269238
 31
0.0
  0
LINE
  5
2E0
  8
0
  6
CONTINUOUS
 62
     7
 10
125.1469560736456
 20
25.389102969269238
 30
0.0
 11
125.2712000736456
 21
25.730459969269241
 31
0.0
  0
LINE
  5
2E1
  8
0
  6
CONTINUOUS
 62
     7
 10
124.4651910736456
 20
25.389102969269238
 30
0.0
 11
124.5894350736456
 21
25.730459969269241
 31
0.0
  0
LINE
  5
2E2
  8
0
  6
CONTINUOUS
 62
     7
 10
126.2105000736456
 20
25.730459969269241
 30
0.0
 11
126.3347440736456
 21
25.389102969269238
 31
0.0
  0
LINE
  5
2E3
  8
0
  6
CONTINUOUS
 62
     7
 10
128.8573020736448
 20
26.28910296926923
 30
0.0
 11
128.8573020736448
 21
25.389102969269238
 31
0.0
  0
LINE
  5
2E4
  8
0
  6
CONTINUOUS
 62
     7
 10
128.55578107364559
 20
25.389102969269238
 30
0.0
 11
128.6800250736456
 21
25.730459969269241
 31
0.0
  0
ENDSEC
  0
EOF
