  0
SECTION
  2
HEADER
  9
$ACADVER
  1
AC1009
  9
$INSBASE
 10
0.0
 20
0.0
 30
0.0
  9
$EXTMIN
 10
-2.01287743543844
 20
-13.009459727454781
 30
-0.0015258207003583
  9
$EXTMAX
 10
179.02548287974849
 20
106.0029912220815
 30
0.0000000349246037
  9
$LIMMIN
 10
0.0
 20
0.0
  9
$LIMMAX
 10
420.0
 20
297.0
  9
$ORTHOMODE
 70
     0
  9
$REGENMODE
 70
     1
  9
$FILLMODE
 70
     1
  9
$QTEXTMODE
 70
     0
  9
$MIRRTEXT
 70
     0
  9
$DRAGMODE
 70
     2
  9
$LTSCALE
 40
0.5
  9
$OSMODE
 70
   511
  9
$ATTMODE
 70
     1
  9
$TEXTSIZE
 40
3.0
  9
$TRACEWID
 40
1.0
  9
$TEXTSTYLE
  7
STANDARD
  9
$CLAYER
  8
MSM_CONTINUOUS
  9
$CELTYPE
  6
BYLAYER
  9
$CECOLOR
 62
   256
  9
$DIMSCALE
 40
1.0
  9
$DIMASZ
 40
1.0
  9
$DIMEXO
 40
0.3
  9
$DIMDLI
 40
1.5
  9
$DIMRND
 40
0.0
  9
$DIMDLE
 40
0.0
  9
$DIMEXE
 40
0.5
  9
$DIMTP
 40
0.0
  9
$DIMTM
 40
0.0
  9
$DIMTXT
 40
3.0
  9
$DIMCEN
 40
2.5
  9
$DIMTSZ
 40
0.0
  9
$DIMTOL
 70
     0
  9
$DIMLIM
 70
     0
  9
$DIMTIH
 70
     0
  9
$DIMTOH
 70
     0
  9
$DIMSE1
 70
     0
  9
$DIMSE2
 70
     0
  9
$DIMTAD
 70
     1
  9
$DIMZIN
 70
     8
  9
$DIMBLK
  1
OPEN30
  9
$DIMASO
 70
     1
  9
$DIMSHO
 70
     1
  9
$DIMPOST
  1

  9
$DIMAPOST
  1

  9
$DIMALT
 70
     0
  9
$DIMALTD
 70
     3
  9
$DIMALTF
 40
0.03937007874016
  9
$DIMLFAC
 40
1.0
  9
$DIMTOFL
 70
     1
  9
$DIMTVP
 40
0.0
  9
$DIMTIX
 70
     0
  9
$DIMSOXD
 70
     0
  9
$DIMSAH
 70
     0
  9
$DIMBLK1
  1

  9
$DIMBLK2
  1

  9
$DIMSTYLE
  2
MISUMI
  9
$DIMCLRD
 70
   256
  9
$DIMCLRE
 70
   256
  9
$DIMCLRT
 70
   256
  9
$DIMTFAC
 40
1.0
  9
$DIMGAP
 40
0.625
  9
$LUNITS
 70
     2
  9
$LUPREC
 70
     2
  9
$SKETCHINC
 40
1.0
  9
$FILLETRAD
 40
0.0
  9
$AUNITS
 70
     0
  9
$AUPREC
 70
     0
  9
$MENU
  1
.
  9
$ELEVATION
 40
0.0
  9
$PELEVATION
 40
0.0
  9
$THICKNESS
 40
0.0
  9
$LIMCHECK
 70
     0
  9
$BLIPMODE
 70
     0
  9
$CHAMFERA
 40
0.5
  9
$CHAMFERB
 40
0.5
  9
$SKPOLY
 70
     0
  9
$TDCREATE
 40
2455135.5720697111
  9
$TDUPDATE
 40
2457717.71193875
  9
$TDINDWG
 40
0.8148785185
  9
$TDUSRTIMER
 40
2457641.2175390739
  9
$USRTIMER
 70
     1
  9
$ANGBASE
 50
0.0
  9
$ANGDIR
 70
     0
  9
$PDMODE
 70
    35
  9
$PDSIZE
 40
0.0
  9
$PLINEWID
 40
0.0
  9
$COORDS
 70
     1
  9
$SPLFRAME
 70
     0
  9
$SPLINETYPE
 70
     6
  9
$SPLINESEGS
 70
     8
  9
$ATTDIA
 70
     1
  9
$ATTREQ
 70
     1
  9
$HANDLING
 70
     1
  9
$HANDSEED
  5
10C3A
  9
$SURFTAB1
 70
     6
  9
$SURFTAB2
 70
     6
  9
$SURFTYPE
 70
     6
  9
$SURFU
 70
     6
  9
$SURFV
 70
     6
  9
$UCSNAME
  2

  9
$UCSORG
 10
0.0
 20
0.0
 30
0.0
  9
$UCSXDIR
 10
1.0
 20
0.0
 30
0.0
  9
$UCSYDIR
 10
0.0
 20
1.0
 30
0.0
  9
$PUCSNAME
  2

  9
$PUCSORG
 10
0.0
 20
0.0
 30
0.0
  9
$PUCSXDIR
 10
1.0
 20
0.0
 30
0.0
  9
$PUCSYDIR
 10
0.0
 20
1.0
 30
0.0
  9
$USERI1
 70
     0
  9
$USERI2
 70
     0
  9
$USERI3
 70
     0
  9
$USERI4
 70
     0
  9
$USERI5
 70
     0
  9
$USERR1
 40
0.0
  9
$USERR2
 40
0.0
  9
$USERR3
 40
0.0
  9
$USERR4
 40
0.0
  9
$USERR5
 40
0.0
  9
$WORLDVIEW
 70
     1
  9
$SHADEDGE
 70
     3
  9
$SHADEDIF
 70
    70
  9
$TILEMODE
 70
     1
  9
$MAXACTVP
 70
    64
  9
$PLIMCHECK
 70
     0
  9
$PEXTMIN
 10
0.0
 20
0.0
 30
0.0
  9
$PEXTMAX
 10
0.0
 20
0.0
 30
0.0
  9
$PLIMMIN
 10
0.0
 20
0.0
  9
$PLIMMAX
 10
12.0
 20
9.0
  9
$UNITMODE
 70
     0
  9
$VISRETAIN
 70
     1
  9
$PLINEGEN
 70
     0
  9
$PSLTSCALE
 70
     1
  0
ENDSEC
  0
SECTION
  2
TABLES
  0
TABLE
  2
VPORT
 70
     1
  0
VPORT
  2
*ACTIVE
 70
     0
 10
0.0
 20
0.0
 11
1.0
 21
1.0
 12
88.506302722155041
 22
46.496765747313361
 13
0.0
 23
0.0
 14
10.0
 24
10.0
 15
10.0
 25
10.0
 16
0.0
 26
0.0
 36
1.0
 17
0.0
 27
0.0
 37
0.0
 40
120.1026413399137
 41
2.5
 42
50.0
 43
0.0
 44
0.0
 50
0.0
 51
0.0
 71
    16
 72
  1000
 73
     1
 74
     3
 75
     0
 76
     0
 77
     0
 78
     0
  0
ENDTAB
  0
TABLE
  2
LTYPE
 70
     2
  0
LTYPE
  2
CONTINUOUS
 70
     0
  3
Solid line
 72
    65
 73
     0
 40
0.0
  0
LTYPE
  2
CENTER
 70
     0
  3
Center ____ _ ____ _ ____ _ ____ _ ____ _ ____
 72
    65
 73
     4
 40
50.799999999999997
 49
31.75
 49
-6.3499999999999988
 49
6.3499999999999988
 49
-6.3499999999999988
  0
ENDTAB
  0
TABLE
  2
LAYER
 70
     6
  0
LAYER
  2
0
 70
     0
 62
     7
  6
CONTINUOUS
  0
LAYER
  2
MSM_CENTER
 70
     0
 62
     1
  6
CENTER
  0
LAYER
  2
DEFPOINTS
 70
     0
 62
     7
  6
CONTINUOUS
  0
LAYER
  2
MSM_CONTINUOUS
 70
     0
 62
     7
  6
CONTINUOUS
  0
LAYER
  2
MSM_PART_NUMBER
 70
     0
 62
     7
  6
CONTINUOUS
  0
LAYER
  2
MSM_NARROW
 70
     0
 62
     5
  6
CONTINUOUS
  0
ENDTAB
  0
TABLE
  2
STYLE
 70
     1
  0
STYLE
  2
STANDARD
 70
     0
 40
1.0
 41
1.0
 50
0.0
 71
     0
 42
3.0
  3
txt.shx
  4
bigfont.shx
  0
ENDTAB
  0
TABLE
  2
VIEW
 70
     0
  0
ENDTAB
  0
TABLE
  2
UCS
 70
     0
  0
ENDTAB
  0
TABLE
  2
APPID
 70
    25
  0
APPID
  2
ACAD
 70
     0
  0
APPID
  2
ACAD_MLEADERVER
 70
     0
  0
APPID
  2
ACAD_EXEMPT_FROM_CAD_STANDARDS
 70
     0
  0
APPID
  2
ACDBBLOCKREPETAG
 70
     0
  0
APPID
  2
ACAD_DSTYLE_DIMJOGGED_JOGA
 70
     0
  0
APPID
  2
ACAECLAYERSTANDARD
 70
     0
  0
APPID
  2
GENIUS_GENODEF_13
 70
     0
  0
APPID
  2
GENIUS_GENOBJ-N-FIL_13
 70
     0
  0
APPID
  2
ACAD_PSEXT
 70
     0
  0
APPID
  2
ACAD_DSTYLE_DIMRADIAL_EXTENSION
 70
     0
  0
APPID
  2
ACDBDYNAMICBLOCKTRUENAME
 70
     0
  0
APPID
  2
ACDBDYNAMICBLOCKGUID
 70
     0
  0
APPID
  2
ACDBBLOCKREPBTAG
 70
     0
  0
APPID
  2
ACAUTHENVIRON
 70
     0
  0
APPID
  2
GRADIENTCOLOR1ACI
 70
     0
  0
APPID
  2
GRADIENTCOLOR2ACI
 70
     0
  0
APPID
  2
ACAD_DSTYLE_DIMJAG
 70
     0
  0
APPID
  2
ACAD_DSTYLE_DIMTALN
 70
     0
  0
APPID
  2
ACCMTRANSPARENCY
 70
     0
  0
APPID
  2
ACAD_DSTYLE_DIMBREAK
 70
     0
  0
APPID
  2
ACAD_DSTYLE_DIMFLIPARROW_W
 70
     0
  0
APPID
  2
ACAD_DSTYLE_DIM_LINETYPE
 70
     0
  0
APPID
  2
ACAD_DSTYLE_DIM_EXT1_LINETYPE
 70
     0
  0
APPID
  2
ACAD_DSTYLE_DIM_EXT2_LINETYPE
 70
     0
  0
APPID
  2
ACAD_NAV_VCDISPLAY
 70
     0
  0
ENDTAB
  0
TABLE
  2
DIMSTYLE
 70
     2
  0
DIMSTYLE
  2
MISUMI
 70
     0
  3

  4

  5
OPEN30
  6

  7

 40
1.0
 41
1.0
 42
0.3
 43
1.5
 44
0.5
 45
0.0
 46
0.0
 47
0.0
 48
0.0
140
3.0
141
2.5
142
0.0
143
0.03937007874016
144
1.0
145
0.0
146
1.0
147
0.625
 71
     0
 72
     0
 73
     0
 74
     0
 75
     0
 76
     0
 77
     1
 78
     8
170
     0
171
     3
172
     1
173
     0
174
     0
175
     0
176
   256
177
   256
178
   256
  0
DIMSTYLE
  2
STANDARD
 70
     0
  3

  4

  5

  6

  7

 40
1.0
 41
0.18
 42
0.0625
 43
0.38
 44
0.18
 45
0.0
 46
0.0
 47
0.0
 48
0.0
140
0.18
141
0.09
142
0.0
143
25.399999999999999
144
1.0
145
0.0
146
1.0
147
0.09
 71
     0
 72
     0
 73
     1
 74
     1
 75
     0
 76
     0
 77
     0
 78
     0
170
     0
171
     2
172
     0
173
     0
174
     0
175
     0
176
     0
177
     0
178
     0
  0
ENDTAB
  0
ENDSEC
  0
SECTION
  2
BLOCKS
  0
BLOCK
  8
0
  2
$MODEL_SPACE
 70
     0
 10
0.0
 20
0.0
 30
0.0
  3
$MODEL_SPACE
  1

  0
ENDBLK
  5
21
  8
0
  0
BLOCK
 67
     1
  8
0
  2
$PAPER_SPACE
 70
     0
 10
0.0
 20
0.0
 30
0.0
  3
$PAPER_SPACE
  1

  0
ENDBLK
  5
10BD7
 67
     1
  8
0
  0
BLOCK
  8
0
 62
     7
  2
_OPEN30
 70
     0
 10
0.0
 20
0.0
 30
0.0
  3
_OPEN30
  1

  0
LINE
  5
10519
  8
0
  6
BYBLOCK
 62
     0
 10
-1.0
 20
0.26794919
 30
0.0
 11
0.0
 21
0.0
 31
0.0
  0
LINE
  5
1051A
  8
0
  6
BYBLOCK
 62
     0
 10
0.0
 20
0.0
 30
0.0
 11
-1.0
 21
-0.26794919
 31
0.0
  0
LINE
  5
1051B
  8
0
  6
BYBLOCK
 62
     0
 10
0.0
 20
0.0
 30
0.0
 11
-1.0
 21
0.0
 31
0.0
  0
ENDBLK
  5
1051C
  8
0
 62
     7
  0
BLOCK
  8
0
  2
*U2
 70
     1
 10
0.0
 20
0.0
 30
0.0
  3
*U2
  1

  0
TEXT
  5
10C1A
  8
MSM_PART_NUMBER
 10
230.78420101418749
 20
4.7390233652656937
 30
0.0
 40
3.0
  1
geabm2.5-32-25.dwg
  0
ENDBLK
  5
10C1C
  8
0
  0
BLOCK
  8
0
  2
*U3
 70
     1
 10
0.0
 20
0.0
 30
0.0
  3
*U3
  1

  0
TEXT
  5
10C22
  8
MSM_PART_NUMBER
 10
0.0
 20
-8.0
 30
0.0
 40
3.0
  1
GEABM2.5-32-25-B-15
  0
ENDBLK
  5
10C24
  8
0
  0
BLOCK
  8
0
  2
*U4
 70
     1
 10
0.0
 20
0.0
 30
0.0
  3
*U4
  1

  0
TEXT
  5
10C26
  8
MSM_PART_NUMBER
 10
0.0
 20
-3.0
 30
0.0
 40
3.0
  1
GEABM2.5-32-25-A-15
  0
ENDBLK
  5
10C28
  8
0
  0
BLOCK
  8
0
  2
*U5
 70
     1
 10
0.0
 20
0.0
 30
0.0
  3
*U5
  1

  0
TEXT
  5
10C2A
  8
MSM_PART_NUMBER
 10
0.0
 20
-13.0
 30
0.0
 40
3.0
  1
GEABM2.5-32-25
  0
ENDBLK
  5
10C2C
  8
0
  0
BLOCK
  8
0
  2
*U6
 70
     1
 10
0.0
 20
0.0
 30
0.0
  3
*U6
  1

  0
TEXT
  5
10C2E
  8
MSM_PART_NUMBER
 10
100.0
 20
103.0
 30
0.0
 40
3.0
  1
A
  0
ENDBLK
  5
10C30
  8
0
  0
BLOCK
  8
0
  2
*U7
 70
     1
 10
0.0
 20
0.0
 30
0.0
  3
*U7
  1

  0
TEXT
  5
10C32
  8
MSM_PART_NUMBER
 10
140.0
 20
103.0
 30
0.0
 40
3.0
  1
B
  0
ENDBLK
  5
10C34
  8
0
  0
ENDSEC
  0
SECTION
  2
ENTITIES
  0
INSERT
  5
10629
  8
MSM_CONTINUOUS
  2
*U3
 10
0.0
 20
0.0
 30
0.0
  0
INSERT
  5
1062A
  8
MSM_CONTINUOUS
  2
*U4
 10
0.0
 20
0.0
 30
0.0
  0
INSERT
  5
10662
  8
MSM_CONTINUOUS
  2
*U5
 10
0.0
 20
0.0
 30
0.0
  0
INSERT
  5
10699
  8
MSM_CONTINUOUS
  2
*U6
 10
0.0
 20
0.0
 30
0.0
  0
INSERT
  5
1069A
  8
MSM_CONTINUOUS
  2
*U7
 10
0.0
 20
0.0
 30
0.0
  0
LINE
  5
108AE
  8
MSM_CENTER
 10
-2.0
 20
52.5
 30
0.0
 11
87.0
 21
52.5
 31
0.0
  0
LINE
  5
108AF
  8
MSM_CENTER
 10
42.5
 20
8.0
 30
0.0
 11
42.5
 21
97.0
 31
0.0
  0
CIRCLE
  5
108B0
  8
MSM_CONTINUOUS
 10
42.5
 20
52.5
 30
0.0
 40
7.5
  0
ARC
  5
108B1
  8
MSM_CONTINUOUS
 10
8.7770404692542883
 20
70.284195947179782
 30
0.0
 40
1.249999999999984
 50
260.52525179566919
 51
332.19455431378492
  0
ARC
  5
108B2
  8
MSM_CONTINUOUS
 10
42.5
 20
52.499999999993712
 30
0.0
 40
42.500000000006303
 50
89.028633512258736
 51
90.971366487741278
  0
ARC
  5
108B3
  8
MSM_CONTINUOUS
 10
41.783747101408807
 20
94.743928342251266
 30
0.0
 40
0.249999999999986
 50
90.971366487737654
 51
151.051430748369
  0
ARC
  5
108B4
  8
MSM_CONTINUOUS
 10
52.765681543724661
 20
88.669422938130182
 30
0.0
 40
12.80000000000075
 50
151.05143074837241
 51
162.8124999999996
  0
ARC
  5
108B5
  8
MSM_CONTINUOUS
 10
42.499999981562901
 20
91.844728085117694
 30
0.0
 40
2.054452982180154
 50
162.81249825993589
 51
176.66844278611589
  0
ARC
  5
108B6
  8
MSM_CONTINUOUS
 10
29.80037918076291
 20
92.584001455993516
 30
0.0
 40
10.666666999999009
 50
346.97475166159182
 51
356.66844438505029
  0
ARC
  5
108B7
  8
MSM_CONTINUOUS
 10
38.974763264965162
 20
90.461669233082503
 30
0.0
 40
1.2500000000000211
 50
275.3054456862173
 51
346.97475175340151
  0
ARC
  5
108B8
  8
MSM_CONTINUOUS
 10
42.500000000051102
 20
52.499999999485617
 30
0.0
 40
36.875000000516913
 50
95.305445686221105
 51
95.944554313780216
  0
ARC
  5
108B9
  8
MSM_CONTINUOUS
 10
38.551546024707051
 20
90.419985973164486
 30
0.0
 40
1.249999999999972
 50
204.2752482465979
 51
275.94455431378509
  0
ARC
  5
108BA
  8
MSM_CONTINUOUS
 10
47.135600414466211
 20
94.291371722807966
 30
0.0
 40
10.666666999999819
 50
194.58155561494959
 51
204.27524833840729
  0
ARC
  5
108BB
  8
MSM_CONTINUOUS
 10
34.824224346320079
 20
91.088730170947898
 30
0.0
 40
2.054452982180285
 50
14.58155721388305
 51
28.437503775942378
  0
ARC
  5
108BC
  8
MSM_CONTINUOUS
 10
25.375266280472012
 20
85.971702500317875
 30
0.0
 40
12.7999999999988
 50
28.437500326766681
 51
40.198569251628577
  0
ARC
  5
108BD
  8
MSM_CONTINUOUS
 10
34.961108716468317
 20
94.071957113120007
 30
0.0
 40
0.2500000000000109
 50
40.198569251631447
 51
100.2786189229669
  0
ARC
  5
108BE
  8
MSM_CONTINUOUS
 10
42.500000000000313
 20
52.49999999999811
 30
0.0
 40
42.500000000001897
 50
100.2786334264392
 51
102.22136648774131
  0
ARC
  5
108BF
  8
MSM_CONTINUOUS
 10
33.556128116499593
 20
93.792489095857746
 30
0.0
 40
0.2500000000000109
 50
102.22136648774131
 51
162.30143074836721
  0
ARC
  5
108C0
  8
MSM_CONTINUOUS
 10
45.512124983252761
 20
89.977172736477755
 30
0.0
 40
12.79999999999858
 50
162.3014307483713
 51
174.06250000000071
  0
ARC
  5
108C1
  8
MSM_CONTINUOUS
 10
34.82422431015425
 20
91.088730163754093
 30
0.0
 40
2.0544529821798552
 50
174.06249825993481
 51
187.9184427861168
  0
ARC
  5
108C2
  8
MSM_CONTINUOUS
 10
22.22439808204507
 20
89.336225492592362
 30
0.0
 40
10.666666999999061
 50
358.22475166159222
 51
7.9184443850505479
  0
ARC
  5
108C3
  8
MSM_CONTINUOUS
 10
31.636545425389301
 20
89.044506833522433
 30
0.0
 40
1.2500000000000011
 50
286.55544568621661
 51
358.22475175340122
  0
ARC
  5
108C4
  8
MSM_CONTINUOUS
 10
42.500000000054733
 20
52.499999999822208
 30
0.0
 40
36.87500000018602
 50
106.5554456862188
 51
107.1945543137835
  0
ARC
  5
108C5
  8
MSM_CONTINUOUS
 10
31.229592186331359
 20
88.921058918070983
 30
0.0
 40
1.2500000000000151
 50
215.5252517956699
 51
287.19455431378412
  0
ARC
  5
108C6
  8
MSM_CONTINUOUS
 10
38.893436485441512
 20
94.392723011186334
 30
0.0
 40
10.666667000000119
 50
205.83155561494971
 51
215.52524875431379
  0
ARC
  5
108C7
  8
MSM_CONTINUOUS
 10
27.44342442794958
 20
88.849788997117756
 30
0.0
 40
2.0544529821802562
 50
25.83155721388421
 51
39.687501740063311
  0
ARC
  5
108C8
  8
MSM_CONTINUOUS
 10
19.174308017845568
 20
81.98768330656317
 30
0.0
 40
12.800000000000839
 50
39.687500000000327
 51
51.448569251627433
  0
ARC
  5
108C9
  8
MSM_CONTINUOUS
 10
26.99567989851267
 20
91.802398885953735
 30
0.0
 40
0.2499999999999783
 50
51.448569251623397
 51
111.5286335122628
  0
ARC
  5
108CA
  8
MSM_CONTINUOUS
 10
42.500000000028507
 20
52.499999999930829
 30
0.0
 40
42.500000000074799
 50
111.5286335122601
 51
113.4713664877395
  0
ARC
  5
108CB
  8
MSM_CONTINUOUS
 10
25.67221711229211
 20
91.25420265060508
 30
0.0
 40
0.2499999999999949
 50
113.4713664877349
 51
173.55143074837221
  0
ARC
  5
108CC
  8
MSM_CONTINUOUS
 10
38.142814148897287
 20
89.844695804002285
 30
0.0
 40
12.80000000000023
 50
173.55143074837241
 51
185.31250000000011
  0
ARC
  5
108CD
  8
MSM_CONTINUOUS
 10
27.443424393882101
 20
88.849788983006604
 30
0.0
 40
2.05445298217988
 50
185.3124982599345
 51
199.16844278611731
  0
ARC
  5
108CE
  8
MSM_CONTINUOUS
 10
15.42759699434721
 20
84.672854041504564
 30
0.0
 40
10.66666699999754
 50
9.4747516615914318
 51
19.168444385050989
  0
ARC
  5
108CF
  8
MSM_CONTINUOUS
 10
24.715804052820211
 20
86.222959530745669
 30
0.0
 40
1.24999999999999
 50
297.80544568621667
 51
9.4747517534034351
  0
ARC
  5
108D0
  8
MSM_CONTINUOUS
 10
42.500000000229029
 20
52.499999999570761
 30
0.0
 40
36.875000000486509
 50
117.8054456862197
 51
118.44455431377919
  0
ARC
  5
108D1
  8
MSM_CONTINUOUS
 10
24.34075379971739
 20
86.022490993921124
 30
0.0
 40
1.2500000000000191
 50
226.77524824660011
 51
298.4445543137827
  0
ARC
  5
108D2
  8
MSM_CONTINUOUS
 10
30.789870769696758
 20
92.884160447954315
 30
0.0
 40
10.66666699999997
 50
217.08155561494979
 51
226.77524833840729
  0
ARC
  5
108D3
  8
MSM_CONTINUOUS
 10
20.64124026498768
 20
85.213945817324557
 30
0.0
 40
2.054452982180786
 50
37.081557213884487
 51
50.93750174006086
  0
ARC
  5
108D4
  8
MSM_CONTINUOUS
 10
13.869743016895679
 20
76.870468980220821
 30
0.0
 40
12.8000000000019
 50
50.937500000000689
 51
62.698569251626907
  0
ARC
  5
108D5
  8
MSM_CONTINUOUS
 10
19.626073407134271
 20
88.022471510639434
 30
0.0
 40
0.2499999999999998
 50
62.698569251626772
 51
122.77863351226129
  0
ARC
  5
108D6
  8
MSM_CONTINUOUS
 10
42.499999999996291
 20
52.500000000005997
 30
0.0
 40
42.499999999992951
 50
122.77863351225881
 51
124.721366487742
  0
ARC
  5
108D7
  8
MSM_CONTINUOUS
 10
18.434988367329911
 20
87.226613931096907
 30
0.0
 40
0.2499999999999934
 50
124.7213664877472
 51
184.8014307483738
  0
ARC
  5
108D8
  8
MSM_CONTINUOUS
 10
30.940947523259769
 20
88.277083154925833
 30
0.0
 40
12.799999999999899
 50
184.80143074837181
 51
196.5624999999998
  0
ARC
  5
108D9
  8
MSM_CONTINUOUS
 10
20.64124023432753
 20
85.213945796838388
 30
0.0
 40
2.0544529821792219
 50
196.5624982599328
 51
210.4184427861185
  0
ARC
  5
108DA
  8
MSM_CONTINUOUS
 10
9.6711731717731624
 20
78.773097852344463
 30
0.0
 40
10.666667000001279
 50
20.724751661593189
 51
30.418444385049359
  0
ARC
  5
108DB
  8
MSM_CONTINUOUS
 10
18.478499357009209
 20
82.105457805255995
 30
0.0
 40
1.2500000000000031
 50
309.0554456862161
 51
20.724751753402881
  0
ARC
  5
108DC
  8
MSM_CONTINUOUS
 10
42.4999999999444
 20
52.500000000066883
 30
0.0
 40
36.874999999913037
 50
129.0554456862144
 51
129.6945543137839
  0
ARC
  5
108DD
  8
MSM_CONTINUOUS
 10
18.14976506075768
 20
81.835672540504376
 30
0.0
 40
1.24999999999999
 50
238.0252529291416
 51
309.69455431378498
  0
ARC
  5
108DE
  8
MSM_CONTINUOUS
 10
23.136318753157148
 20
89.823657246406427
 30
0.0
 40
10.666667000001
 50
228.3315556149505
 51
238.02524888714251
  0
ARC
  5
108DF
  8
MSM_CONTINUOUS
 10
14.679075980109539
 20
80.320924045964702
 30
0.0
 40
2.0544529821799711
 50
48.331557213881631
 51
62.187503775943327
  0
ARC
  5
108E0
  8
MSM_CONTINUOUS
 10
9.6654227357747118
 20
70.816711198087233
 30
0.0
 40
12.800000000000329
 50
62.187500326767093
 51
73.948569251627561
  0
ARC
  5
108E1
  8
MSM_CONTINUOUS
 10
13.135499086873891
 20
82.877435476402795
 30
0.0
 40
0.2500000000000009
 50
73.948569251630687
 51
134.02863351226009
  0
ARC
  5
108E2
  8
MSM_CONTINUOUS
 10
42.500000000025388
 20
52.499999999974399
 30
0.0
 40
42.500000000036053
 50
134.0286335122592
 51
135.97136760117431
  0
ARC
  5
108E3
  8
MSM_CONTINUOUS
 10
12.122564523596781
 20
81.864500913127614
 30
0.0
 40
0.2500000000000148
 50
135.97155577167669
 51
196.0514307487299
  0
ARC
  5
108E4
  8
MSM_CONTINUOUS
 10
24.18328880191277
 20
85.334577264225317
 30
0.0
 40
12.800000000000329
 50
196.0514307483725
 51
207.8125
  0
ARC
  5
108E5
  8
MSM_CONTINUOUS
 10
14.679075954034859
 20
80.320924019890114
 30
0.0
 40
2.054452982179408
 50
207.81249825993299
 51
221.6684427861187
  0
ARC
  5
108E6
  8
MSM_CONTINUOUS
 10
5.1763427535935298
 20
71.86368124684283
 30
0.0
 40
10.666667000001031
 50
31.974751661593121
 51
41.66844438504949
  0
ARC
  5
108E7
  8
MSM_CONTINUOUS
 10
13.164327459495601
 20
76.850234939242299
 30
0.0
 40
1.2500000000000131
 50
320.30544568621667
 51
31.974751753402501
  0
ARC
  5
108E8
  8
MSM_CONTINUOUS
 10
42.499999999813888
 20
52.500000000151282
 30
0.0
 40
36.874999999760171
 50
140.30544568621221
 51
140.94455431378441
  0
ARC
  5
108E9
  8
MSM_CONTINUOUS
 10
12.894542194744
 20
76.521500642990745
 30
0.0
 40
1.249999999999968
 50
249.2752517956699
 51
320.94455431378481
  0
ARC
  5
108EA
  8
MSM_CONTINUOUS
 10
16.226902147655451
 20
85.328826828226568
 30
0.0
 40
10.66666700000102
 50
239.58155561495039
 51
249.27524875431359
  0
ARC
  5
108EB
  8
MSM_CONTINUOUS
 10
9.7860542031611004
 20
74.358759765671479
 30
0.0
 40
2.054452982180333
 50
59.58155721388232
 51
73.437501740061549
  0
ARC
  5
108EC
  8
MSM_CONTINUOUS
 10
6.7229168450736756
 20
64.059052476737762
 30
0.0
 40
12.800000000002409
 50
73.437500000001236
 51
85.198569251626878
  0
ARC
  5
108ED
  8
MSM_CONTINUOUS
 10
7.7733860689031067
 20
76.565011632670078
 30
0.0
 40
0.2500000000000191
 50
85.198569251628257
 51
145.2786335122598
  0
ARC
  5
108EE
  8
MSM_CONTINUOUS
 10
42.499999999973952
 20
52.500000000017103
 30
0.0
 40
42.499999999968857
 50
145.2786335122575
 51
147.22136537430799
  0
ARC
  5
108EF
  8
MSM_CONTINUOUS
 10
6.9775284893598259
 20
75.373926592867136
 30
0.0
 40
0.2499999999999815
 50
147.22117720416369
 51
207.30143074873851
  0
ARC
  5
108F0
  8
MSM_CONTINUOUS
 10
18.12953101977844
 20
81.130256983103777
 30
0.0
 40
12.800000000000971
 50
207.3014307483725
 51
219.0624999999994
  0
ARC
  5
108F1
  8
MSM_CONTINUOUS
 10
9.786054182675457
 20
74.358759735012299
 30
0.0
 40
2.054452982180766
 50
219.062498259938
 51
232.91844278611401
  0
ARC
  5
108F2
  8
MSM_CONTINUOUS
 10
2.1158395520444269
 20
64.210129230301916
 30
0.0
 40
10.66666700000178
 50
43.224751661593508
 51
52.91844438504917
  0
ARC
  5
108F3
  8
MSM_CONTINUOUS
 10
8.9775090060788827
 20
70.65924620028261
 30
0.0
 40
1.2500000000000131
 50
331.55544568621758
 51
43.224751753402053
  0
ARC
  5
108F4
  8
MSM_CONTINUOUS
 10
42.500000000346184
 20
52.499999999814392
 30
0.0
 40
36.875000000392809
 50
151.5554456862186
 51
152.1945543137798
  0
ARC
  5
108F5
  8
MSM_CONTINUOUS
 10
10.32714595849604
 20
79.572403005655119
 30
0.0
 40
10.666666999999959
 50
250.83155561494979
 51
260.52524875431408
  0
ARC
  5
108F6
  8
MSM_CONTINUOUS
 10
6.1502110169933673
 20
67.556575606118017
 30
0.0
 40
2.0544529821797921
 50
70.83155721388097
 51
84.687504849921609
  0
ARC
  5
108F7
  8
MSM_CONTINUOUS
 10
5.1553041959977222
 20
56.857185851103203
 30
0.0
 40
12.79999999999975
 50
84.687500499144804
 51
96.448569251627845
  0
ARC
  5
108F8
  8
MSM_CONTINUOUS
 10
3.7457973493949188
 20
69.327782887707897
 30
0.0
 40
0.2499999999999958
 50
96.448569251626196
 51
156.52863351225989
  0
ARC
  5
108F9
  8
MSM_CONTINUOUS
 10
42.500000000009187
 20
52.499999999996177
 30
0.0
 40
42.50000000000994
 50
156.52863351225881
 51
158.47136648774119
  0
ARC
  5
108FA
  8
MSM_CONTINUOUS
 10
3.1976011140463561
 20
68.004320101487352
 30
0.0
 40
0.2500000000000626
 50
158.4713664877504
 51
218.55142577004781
  0
ARC
  5
108FB
  8
MSM_CONTINUOUS
 10
13.01231669343678
 20
75.825691982154368
 30
0.0
 40
12.800000000000759
 50
218.55143065113981
 51
230.3124999999996
  0
ARC
  5
108FC
  8
MSM_CONTINUOUS
 10
6.1502110028819033
 20
67.556575572049809
 30
0.0
 40
2.0544529821795501
 50
230.31249825993291
 51
244.1684427861168
  0
ARC
  5
108FD
  8
MSM_CONTINUOUS
 10
0.6072769888139576
 20
56.10656351455912
 30
0.0
 40
10.666666999999441
 50
54.4747516615923
 51
64.168444385050265
  0
ARC
  5
108FE
  8
MSM_CONTINUOUS
 10
6.0789410819289884
 20
63.770407813668641
 30
0.0
 40
1.2500000000000331
 50
342.80544568621792
 51
54.474751753401129
  0
ARC
  5
108FF
  8
MSM_CONTINUOUS
 10
42.5000000011661
 20
52.499999999647073
 30
0.0
 40
36.875000001218318
 50
162.80544568622781
 51
163.44455431377469
  0
ARC
  5
10900
  8
MSM_CONTINUOUS
 10
5.9554931664775159
 20
63.363454574610707
 30
0.0
 40
1.2500000000000171
 50
271.7752529291418
 51
343.44455431378299
  0
ARC
  5
10901
  8
MSM_CONTINUOUS
 10
5.6637745074077008
 20
72.775601917955925
 30
0.0
 40
10.66666700000007
 50
262.08155561494988
 51
271.77524888714271
  0
ARC
  5
10902
  8
MSM_CONTINUOUS
 10
3.9112698362458431
 20
60.175775689845281
 30
0.0
 40
2.0544529821803179
 50
82.081557213883144
 51
95.937505811822206
  0
ARC
  5
10903
  8
MSM_CONTINUOUS
 10
5.0228272635226574
 20
49.487875016745072
 30
0.0
 40
12.800000000000781
 50
95.93750065353457
 51
107.6985692516274
  0
ARC
  5
10904
  8
MSM_CONTINUOUS
 10
1.20751090414226
 20
61.443871883500442
 30
0.0
 40
0.2499999999999925
 50
107.6985692516275
 51
167.7786335122594
  0
ARC
  5
10905
  8
MSM_CONTINUOUS
 10
42.500000000104741
 20
52.499999999978613
 30
0.0
 40
42.500000000106887
 50
167.77863351226031
 51
169.72136648773829
  0
ARC
  5
10906
  8
MSM_CONTINUOUS
 10
0.9280428868800073
 20
60.03889128353169
 30
0.0
 40
0.2500000000000324
 50
169.72136648774659
 51
229.80142577005631
  0
ARC
  5
10907
  8
MSM_CONTINUOUS
 10
9.0282974996834469
 20
69.624733719529914
 30
0.0
 40
12.80000000000113
 50
229.8014306511397
 51
241.56249999999929
  0
ARC
  5
10908
  8
MSM_CONTINUOUS
 10
3.9112698290521162
 20
60.17577565368007
 30
0.0
 40
2.0544529821804201
 50
241.56249825993891
 51
255.41844278611731
  0
ARC
  5
10909
  8
MSM_CONTINUOUS
 10
0.708628277191707
 20
47.864399585533313
 30
0.0
 40
10.66666700000038
 50
65.72475075602884
 51
75.41844438504944
  0
ARC
  5
1090A
  8
MSM_CONTINUOUS
 10
4.5800140268354781
 20
56.448453975292942
 30
0.0
 40
1.2500000000000031
 50
354.05544568621599
 51
65.724744025925233
  0
ARC
  5
1090B
  8
MSM_CONTINUOUS
 10
42.49999999981479
 20
52.500000000018503
 30
0.0
 40
36.87499999981388
 50
174.0554456862148
 51
174.69455431378611
  0
ARC
  5
1090C
  8
MSM_CONTINUOUS
 10
4.5383307669175457
 20
56.025236735034767
 30
0.0
 40
1.249999999999958
 50
283.02525292914061
 51
354.69455431378537
  0
ARC
  5
1090D
  8
MSM_CONTINUOUS
 10
2.4159985440065621
 20
65.199620819237154
 30
0.0
 40
10.66666699999907
 50
273.33155561494931
 51
283.02524888714311
  0
ARC
  5
1090E
  8
MSM_CONTINUOUS
 10
3.1552719148823201
 20
52.500000018436758
 30
0.0
 40
2.0544529821804982
 50
93.331557213883897
 51
107.1875066571788
  0
ARC
  5
1090F
  8
MSM_CONTINUOUS
 10
6.3305770618695467
 20
42.234318456275894
 30
0.0
 40
12.800000000000161
 50
107.18750078921759
 51
118.9485692516276
  0
ARC
  5
10910
  8
MSM_CONTINUOUS
 10
0.2560716577487199
 20
53.216252898591193
 30
0.0
 40
0.2499999999999853
 50
118.9485692516236
 51
179.0286335122949
  0
ARC
  5
10911
  8
MSM_CONTINUOUS
 10
42.500000000013337
 20
52.499999999999808
 30
0.0
 40
42.500000000013337
 50
179.02863351225889
 51
180.97136648774031
  0
ARC
  5
10912
  8
MSM_CONTINUOUS
 10
0.2560716577487767
 20
51.783747101408864
 30
0.0
 40
0.2500000000000478
 50
180.9713664877097
 51
241.0514307483669
  0
ARC
  5
10913
  8
MSM_CONTINUOUS
 10
6.3305770618697323
 20
62.765681543724511
 30
0.0
 40
12.80000000000059
 50
241.05143074837241
 51
252.81249999999969
  0
ARC
  5
10914
  8
MSM_CONTINUOUS
 10
3.155271914882241
 20
52.499999981562787
 30
0.0
 40
2.054452982180019
 50
252.8124982599364
 51
266.66844278611728
  0
ARC
  5
10915
  8
MSM_CONTINUOUS
 10
2.4159985440063281
 20
39.800379180761588
 30
0.0
 40
10.66666700000034
 50
76.974751661592833
 51
86.66844438504998
  0
ARC
  5
10916
  8
MSM_CONTINUOUS
 10
4.5383307669174959
 20
48.974763264965169
 30
0.0
 40
1.2500000000000131
 50
5.3054456862170261
 51
76.974751753401435
  0
ARC
  5
10917
  8
MSM_CONTINUOUS
 10
42.500000000230017
 20
52.500000000021998
 30
0.0
 40
36.87500000023109
 50
185.3054456862169
 51
185.94455431378091
  0
ARC
  5
10918
  8
MSM_CONTINUOUS
 10
4.5800140268354488
 20
48.551546024707079
 30
0.0
 40
1.2500000000000211
 50
294.27525179567112
 51
5.9445543137812997
  0
ARC
  5
10919
  8
MSM_CONTINUOUS
 10
0.7086282771920196
 20
57.135600414466161
 30
0.0
 40
10.666666999999769
 50
284.58155561494971
 51
294.27524875431408
  0
ARC
  5
1091A
  8
MSM_CONTINUOUS
 10
3.9112698290519532
 20
44.8242243463203
 30
0.0
 40
2.0544529821800421
 50
104.5815572138809
 51
118.43750581182169
  0
ARC
  5
1091B
  8
MSM_CONTINUOUS
 10
9.0282974996818268
 20
35.37526628047241
 30
0.0
 40
12.799999999998329
 50
118.4375006535335
 51
130.19856925162861
  0
ARC
  5
1091C
  8
MSM_CONTINUOUS
 10
0.9280428868799717
 20
44.961108716468317
 30
0.0
 40
0.2499999999999987
 50
130.19856925162449
 51
190.2786335122581
  0
ARC
  5
1091D
  8
MSM_CONTINUOUS
 10
42.499999999985057
 20
52.49999999999747
 30
0.0
 40
42.499999999984873
 50
190.27863351225881
 51
192.2213664877423
  0
ARC
  5
1091E
  8
MSM_CONTINUOUS
 10
1.2075109041423031
 20
43.556128116499607
 30
0.0
 40
0.2500000000000413
 50
192.2213664877431
 51
252.30143074836471
  0
ARC
  5
1091F
  8
MSM_CONTINUOUS
 10
5.0228272635224576
 20
55.512124983253763
 30
0.0
 40
12.79999999999959
 50
252.30143074837181
 51
264.06250000000011
  0
ARC
  5
10920
  8
MSM_CONTINUOUS
 10
3.9112698362458498
 20
44.824224310154861
 30
0.0
 40
2.0544529821804569
 50
264.06249825993768
 51
277.91844278611592
  0
ARC
  5
10921
  8
MSM_CONTINUOUS
 10
5.6637745074076369
 20
32.224398082044431
 30
0.0
 40
10.666666999999711
 50
88.224751661592478
 51
97.918444385050037
  0
ARC
  5
10922
  8
MSM_CONTINUOUS
 10
5.9554931664775159
 20
41.636545425389301
 30
0.0
 40
1.2500000000000091
 50
16.55544568621675
 51
88.22475175340152
  0
ARC
  5
10923
  8
MSM_CONTINUOUS
 10
42.499999999574989
 20
52.499999999872173
 30
0.0
 40
36.874999999556202
 50
196.5554456862136
 51
197.1945543137893
  0
ARC
  5
10924
  8
MSM_CONTINUOUS
 10
6.078941081929031
 20
41.229592186331352
 30
0.0
 40
1.2500000000000071
 50
305.52525292914117
 51
17.19455431378282
  0
ARC
  5
10925
  8
MSM_CONTINUOUS
 10
0.6072769888151015
 20
48.893436485439182
 30
0.0
 40
10.666666999997391
 50
295.83155561494817
 51
305.52524888714362
  0
ARC
  5
10926
  8
MSM_CONTINUOUS
 10
6.1502110028822514
 20
37.443424427949587
 30
0.0
 40
2.0544529821802571
 50
115.8315572138842
 51
129.68750174006379
  0
ARC
  5
10927
  8
MSM_CONTINUOUS
 10
13.01231669343608
 20
29.174308017846322
 30
0.0
 40
12.7999999999998
 50
129.68749999999989
 51
141.4485692516279
  0
ARC
  5
10928
  8
MSM_CONTINUOUS
 10
3.197601114046257
 20
36.99567989851267
 30
0.0
 40
0.249999999999975
 50
141.44856925162259
 51
201.528633512261
  0
ARC
  5
10929
  8
MSM_CONTINUOUS
 10
42.499999999994607
 20
52.49999999999779
 30
0.0
 40
42.499999999994181
 50
201.5286335122583
 51
203.47136648774151
  0
ARC
  5
1092A
  8
MSM_CONTINUOUS
 10
3.745797349394941
 20
35.672217112292152
 30
0.0
 40
0.2500000000000249
 50
203.47136648774421
 51
263.55143074836809
  0
ARC
  5
1092B
  8
MSM_CONTINUOUS
 10
5.1553041959977497
 20
48.142814148898161
 30
0.0
 40
12.800000000001109
 50
263.55143074837281
 51
275.31249999999949
  0
ARC
  5
1092C
  8
MSM_CONTINUOUS
 10
6.1502110169933104
 20
37.443424393882196
 30
0.0
 40
2.0544529821799982
 50
275.312498259937
 51
289.16844278611848
  0
ARC
  5
1092D
  8
MSM_CONTINUOUS
 10
10.32714595849631
 20
25.427596994343691
 30
0.0
 40
10.66666700000118
 50
99.474751661593118
 51
109.1684443850494
  0
ARC
  5
1092E
  8
MSM_CONTINUOUS
 10
8.7770404692542883
 20
34.715804052820211
 30
0.0
 40
1.24999999999999
 50
27.80544568621643
 51
99.474751753402444
  0
ARC
  5
1092F
  8
MSM_CONTINUOUS
 10
42.499999999536698
 20
52.499999999752717
 30
0.0
 40
36.874999999474838
 50
207.8054456862119
 51
208.4445543137889
  0
ARC
  5
10930
  8
MSM_CONTINUOUS
 10
8.9775090060789182
 20
34.34075379971739
 30
0.0
 40
1.24999999999998
 50
316.77525179566931
 51
28.44455431378579
  0
ARC
  5
10931
  8
MSM_CONTINUOUS
 10
2.115839552047496
 20
40.789870769694708
 30
0.0
 40
10.666666999997251
 50
307.08155561494863
 51
316.77524875431533
  0
ARC
  5
10932
  8
MSM_CONTINUOUS
 10
9.786054182675457
 20
30.641240264987719
 30
0.0
 40
2.0544529821807651
 50
127.081557213886
 51
140.93750174006169
  0
ARC
  5
10933
  8
MSM_CONTINUOUS
 10
18.129531019777311
 20
23.869743016896919
 30
0.0
 40
12.79999999999966
 50
140.9374999999998
 51
152.69856925162779
  0
ARC
  5
10934
  8
MSM_CONTINUOUS
 10
6.977528489360572
 20
29.626073407134271
 30
0.0
 40
0.2500000000000061
 50
152.6985692516273
 51
212.7786335122583
  0
ARC
  5
10935
  8
MSM_CONTINUOUS
 10
42.500000000015341
 20
52.500000000010587
 30
0.0
 40
42.500000000018638
 50
212.7786335122592
 51
214.72136648774131
  0
ARC
  5
10936
  8
MSM_CONTINUOUS
 10
7.7733860689030996
 20
28.43498836732994
 30
0.0
 40
0.2500000000000127
 50
214.72136648774099
 51
274.80143074837167
  0
ARC
  5
10937
  8
MSM_CONTINUOUS
 10
6.7229168450740167
 20
40.940947523260597
 30
0.0
 40
12.80000000000074
 50
274.80143074837218
 51
286.56249999999932
  0
ARC
  5
10938
  8
MSM_CONTINUOUS
 10
9.7860542031614628
 20
30.641240234327761
 30
0.0
 40
2.0544529821794799
 50
286.56249825993473
 51
300.41844278611973
  0
ARC
  5
10939
  8
MSM_CONTINUOUS
 10
16.226902147654371
 20
19.671173171775589
 30
0.0
 40
10.666666999998601
 50
110.7247516615919
 51
120.41844438505051
  0
ARC
  5
1093A
  8
MSM_CONTINUOUS
 10
12.894542194743989
 20
28.478499357009191
 30
0.0
 40
1.2500000000000171
 50
39.055445686217162
 51
110.72475175340141
  0
ARC
  5
1093B
  8
MSM_CONTINUOUS
 10
42.50000000066413
 20
52.500000000544979
 30
0.0
 40
36.87500000085911
 50
219.05544568622329
 51
219.69455431377651
  0
ARC
  5
1093C
  8
MSM_CONTINUOUS
 10
13.164327459495651
 20
28.149765060757691
 30
0.0
 40
1.24999999999997
 50
328.02525694001082
 51
39.694554313785439
  0
ARC
  5
1093D
  8
MSM_CONTINUOUS
 10
5.1763427535958613
 20
33.136318753155443
 30
0.0
 40
10.666666999998119
 50
318.33155561494908
 51
328.02524935716752
  0
ARC
  5
1093E
  8
MSM_CONTINUOUS
 10
14.679075954034991
 20
24.679075980109779
 30
0.0
 40
2.0544529821795852
 50
138.33155721388121
 51
152.1875017400653
  0
ARC
  5
1093F
  8
MSM_CONTINUOUS
 10
24.18328880191309
 20
19.665422735774559
 30
0.0
 40
12.800000000000701
 50
152.18750000000011
 51
163.9485692516273
  0
ARC
  5
10940
  8
MSM_CONTINUOUS
 10
12.122564523597219
 20
23.135499086873899
 30
0.0
 40
0.2500000000000326
 50
163.94856925163131
 51
224.02863351225531
  0
ARC
  5
10941
  8
MSM_CONTINUOUS
 10
42.50000000001576
 20
52.500000000015739
 30
0.0
 40
42.500000000022261
 50
224.02863351225889
 51
225.97136537430691
  0
ARC
  5
10942
  8
MSM_CONTINUOUS
 10
13.135499086872381
 20
22.122564523596768
 30
0.0
 40
0.2500000000000002
 50
225.97117720416179
 51
286.05143074873092
  0
ARC
  5
10943
  8
MSM_CONTINUOUS
 10
9.6654227357752376
 20
34.183288801911431
 30
0.0
 40
12.799999999998899
 50
286.05143074837179
 51
297.81250000000068
  0
ARC
  5
10944
  8
MSM_CONTINUOUS
 10
14.67907598010961
 20
24.67907595403523
 30
0.0
 40
2.0544529821798592
 50
297.81249825993541
 51
311.66844278611768
  0
ARC
  5
10945
  8
MSM_CONTINUOUS
 10
23.13631875315647
 20
15.176342753594479
 30
0.0
 40
10.66666699999986
 50
121.97475166159261
 51
131.66844438505009
  0
ARC
  5
10946
  8
MSM_CONTINUOUS
 10
18.14976506075768
 20
23.16432745949562
 30
0.0
 40
1.249999999999992
 50
50.305445686216267
 51
121.974751753402
  0
ARC
  5
10947
  8
MSM_CONTINUOUS
 10
42.500000000547601
 20
52.500000000667278
 30
0.0
 40
36.87500000086321
 50
230.30544568622349
 51
230.94455431377651
  0
ARC
  5
10948
  8
MSM_CONTINUOUS
 10
18.478499357009198
 20
22.894542194743991
 30
0.0
 40
1.2500000000000111
 50
339.27525557116229
 51
50.944554313784771
  0
ARC
  5
10949
  8
MSM_CONTINUOUS
 10
9.6711731717749512
 20
26.226902147654751
 30
0.0
 40
10.666666999999331
 50
329.58155561494982
 51
339.27524919675471
  0
ARC
  5
1094A
  8
MSM_CONTINUOUS
 10
20.641240234328261
 20
19.78605420316126
 30
0.0
 40
2.054452982180039
 50
149.58155721388209
 51
163.43750174006351
  0
ARC
  5
1094B
  8
MSM_CONTINUOUS
 10
30.94094752326076
 20
16.722916845073929
 30
0.0
 40
12.800000000000921
 50
163.43750000000031
 51
175.1985692516275
  0
ARC
  5
1094C
  8
MSM_CONTINUOUS
 10
18.434988367329979
 20
17.77338606890315
 30
0.0
 40
0.2500000000000757
 50
175.19856925163921
 51
235.2786335122486
  0
ARC
  5
1094D
  8
MSM_CONTINUOUS
 10
42.50000000000589
 20
52.500000000008598
 30
0.0
 40
42.500000000010431
 50
235.27863351225861
 51
237.22136537430711
  0
ARC
  5
1094E
  8
MSM_CONTINUOUS
 10
19.626073407132861
 20
16.97752848935982
 30
0.0
 40
0.2499999999999655
 50
237.2211772041596
 51
297.30143074873678
  0
ARC
  5
1094F
  8
MSM_CONTINUOUS
 10
13.86974301689599
 20
28.129531019778799
 30
0.0
 40
12.8000000000014
 50
297.30143074837252
 51
309.0624999999992
  0
ARC
  5
10950
  8
MSM_CONTINUOUS
 10
20.641240264988209
 20
19.78605418267491
 30
0.0
 40
2.0544529821800461
 50
309.06249825993649
 51
322.91844278611751
  0
ARC
  5
10951
  8
MSM_CONTINUOUS
 10
30.789870769696339
 20
12.115839552046049
 30
0.0
 40
10.66666699999943
 50
133.22475166159251
 51
142.91844438505041
  0
ARC
  5
10952
  8
MSM_CONTINUOUS
 10
24.34075379971738
 20
18.977509006078911
 30
0.0
 40
1.249999999999992
 50
61.55544568621562
 51
133.22475175340199
  0
ARC
  5
10953
  8
MSM_CONTINUOUS
 10
42.49999999992454
 20
52.49999999985836
 30
0.0
 40
36.874999999839517
 50
241.5554456862142
 51
242.19455431378501
  0
ARC
  5
10954
  8
MSM_CONTINUOUS
 10
24.715804052820221
 20
18.777040469254288
 30
0.0
 40
1.249999999999976
 50
350.52525557116121
 51
62.194554313785453
  0
ARC
  5
10955
  8
MSM_CONTINUOUS
 10
15.42759699434472
 20
20.327145958496121
 30
0.0
 40
10.666667000000119
 50
340.83155561494988
 51
350.52524919675437
  0
ARC
  5
10956
  8
MSM_CONTINUOUS
 10
27.44342439388258
 20
16.15021101699325
 30
0.0
 40
2.0544529821804001
 50
160.83155721388351
 51
174.6875017400618
  0
ARC
  5
10957
  8
MSM_CONTINUOUS
 10
38.142814148898253
 20
15.155304195997839
 30
0.0
 40
12.8000000000012
 50
174.68750000000071
 51
186.4485692516275
  0
ARC
  5
10958
  8
MSM_CONTINUOUS
 10
25.672217112292131
 20
13.74579734939493
 30
0.0
 40
0.2500000000000177
 50
186.44856925162719
 51
246.5286481015435
  0
ARC
  5
10959
  8
MSM_CONTINUOUS
 10
42.5000000000109
 20
52.50000000002597
 30
0.0
 40
42.500000000028159
 50
246.52863359807839
 51
248.4713664877406
  0
ARC
  5
1095A
  8
MSM_CONTINUOUS
 10
26.995679898512641
 20
13.197601114046391
 30
0.0
 40
0.2500000000000882
 50
248.4713664877456
 51
308.5514257700471
  0
ARC
  5
1095B
  8
MSM_CONTINUOUS
 10
19.174308017845419
 20
23.012316693437018
 30
0.0
 40
12.800000000001081
 50
308.55143065113992
 51
320.31249999999937
  0
ARC
  5
1095C
  8
MSM_CONTINUOUS
 10
27.443424427949811
 20
16.150211002882092
 30
0.0
 40
2.0544529821799751
 50
320.31249825993541
 51
334.16844278611728
  0
ARC
  5
1095D
  8
MSM_CONTINUOUS
 10
38.89343648543921
 20
10.607276988815009
 30
0.0
 40
10.666666999997471
 50
144.47475166159171
 51
154.16844438505129
  0
ARC
  5
1095E
  8
MSM_CONTINUOUS
 10
31.229592186331359
 20
16.078941081928988
 30
0.0
 40
1.2500000000000391
 50
72.805445686217979
 51
144.4747517534008
  0
ARC
  5
1095F
  8
MSM_CONTINUOUS
 10
42.500000000021437
 20
52.50000000007087
 30
0.0
 40
36.87500000007406
 50
252.8054456862167
 51
253.44455431378341
  0
ARC
  5
10960
  8
MSM_CONTINUOUS
 10
31.636545425389318
 20
15.955493166477551
 30
0.0
 40
1.249999999999988
 50
1.775256385708996
 51
73.444554313785659
  0
ARC
  5
10961
  8
MSM_CONTINUOUS
 10
22.224398082042629
 20
15.66377450740783
 30
0.0
 40
10.6666670000015
 50
352.08155561495039
 51
1.775249292208066
  0
ARC
  5
10962
  8
MSM_CONTINUOUS
 10
34.824224310154868
 20
13.911269836245861
 30
0.0
 40
2.05445298218048
 50
172.081557213884
 51
185.9375017400624
  0
ARC
  5
10963
  8
MSM_CONTINUOUS
 10
45.51212498325328
 20
15.022827263522251
 30
0.0
 40
12.7999999999991
 50
185.93749999999901
 51
197.69856925162779
  0
ARC
  5
10964
  8
MSM_CONTINUOUS
 10
33.556128116499572
 20
11.20751090414227
 30
0.0
 40
0.2500000000000125
 50
197.6985692516306
 51
257.77864810154932
  0
ARC
  5
10965
  8
MSM_CONTINUOUS
 10
42.500000000005421
 20
52.500000000024691
 30
0.0
 40
42.50000000002526
 50
257.77863359807782
 51
259.72136648774023
  0
ARC
  5
10966
  8
MSM_CONTINUOUS
 10
34.961108716468303
 20
10.92804288688002
 30
0.0
 40
0.250000000000046
 50
259.72136648774881
 51
319.80142577005472
  0
ARC
  5
10967
  8
MSM_CONTINUOUS
 10
25.37526628047037
 20
19.028297499683251
 30
0.0
 40
12.800000000000789
 50
319.80143065113953
 51
331.56249999999949
  0
ARC
  5
10968
  8
MSM_CONTINUOUS
 10
34.824224346319269
 20
13.911269829052401
 30
0.0
 40
2.0544529821811399
 50
331.56249825994081
 51
345.41844278611461
  0
ARC
  5
10969
  8
MSM_CONTINUOUS
 10
47.13560041446673
 20
10.70862827719179
 30
0.0
 40
10.666667000000411
 50
155.72475075602929
 51
165.41844438504981
  0
ARC
  5
1096A
  8
MSM_CONTINUOUS
 10
38.551546024707058
 20
14.58001402683548
 30
0.0
 40
1.2500000000000091
 50
84.055445686216018
 51
155.72474402592511
  0
ARC
  5
1096B
  8
MSM_CONTINUOUS
 10
42.500000000057739
 20
52.50000000058261
 30
0.0
 40
36.875000000585459
 50
264.05544568622048
 51
264.69455431377838
  0
ARC
  5
1096C
  8
MSM_CONTINUOUS
 10
38.974763264965191
 20
14.53833076691752
 30
0.0
 40
1.249999999999994
 50
13.0252563857093
 51
84.694554313784195
  0
ARC
  5
1096D
  8
MSM_CONTINUOUS
 10
29.800379180760569
 20
12.41599854400622
 30
0.0
 40
10.666667000001359
 50
3.3315556149503092
 51
13.025249292208541
  0
ARC
  5
1096E
  8
MSM_CONTINUOUS
 10
42.499999981563228
 20
13.15527191488237
 30
0.0
 40
2.0544529821804991
 50
183.33155721388559
 51
197.187501740063
  0
ARC
  5
1096F
  8
MSM_CONTINUOUS
 10
52.765681543725492
 20
16.33057706187012
 30
0.0
 40
12.800000000001649
 50
197.18750000000051
 51
208.94856925162691
  0
ARC
  5
10970
  8
MSM_CONTINUOUS
 10
41.783747101408807
 20
10.25607165774875
 30
0.0
 40
0.2500000000000138
 50
208.9485692516289
 51
269.0286335122575
  0
ARC
  5
10971
  8
MSM_CONTINUOUS
 10
42.499999999999979
 20
52.500000000006501
 30
0.0
 40
42.500000000006501
 50
269.02863351225881
 51
270.97136648774131
  0
ARC
  5
10972
  8
MSM_CONTINUOUS
 10
43.216252898591193
 20
10.256071657748709
 30
0.0
 40
0.2499999999999785
 50
270.97136648773119
 51
331.05143074837332
  0
ARC
  5
10973
  8
MSM_CONTINUOUS
 10
32.234318456275908
 20
16.330577061869551
 30
0.0
 40
12.80000000000012
 50
331.05143074837218
 51
342.81250000000011
  0
ARC
  5
10974
  8
MSM_CONTINUOUS
 10
42.500000018437341
 20
13.15527191488218
 30
0.0
 40
2.0544529821798809
 50
342.81249825993751
 51
356.66844278611887
  0
ARC
  5
10975
  8
MSM_CONTINUOUS
 10
55.19962081923849
 20
12.415998544006341
 30
0.0
 40
10.66666700000043
 50
166.9747516615929
 51
176.66844438505021
  0
ARC
  5
10976
  8
MSM_CONTINUOUS
 10
46.025236735034809
 20
14.5383307669175
 30
0.0
 40
1.2500000000000131
 50
95.305445686216686
 51
166.97475175340071
  0
ARC
  5
10977
  8
MSM_CONTINUOUS
 10
42.499999999986073
 20
52.500000000148361
 30
0.0
 40
36.875000000149022
 50
275.30544568621627
 51
275.94455431378151
  0
ARC
  5
10978
  8
MSM_CONTINUOUS
 10
46.448453975292928
 20
14.58001402683548
 30
0.0
 40
1.249999999999998
 50
24.275254903844491
 51
95.944554313785346
  0
ARC
  5
10979
  8
MSM_CONTINUOUS
 10
37.864399585533832
 20
10.708628277191989
 30
0.0
 40
10.666666999999791
 50
14.58155561494989
 51
24.275249118553379
  0
ARC
  5
1097A
  8
MSM_CONTINUOUS
 10
50.175775653679679
 20
13.91126982905201
 30
0.0
 40
2.054452982180039
 50
194.58155721388209
 51
208.43750174006331
  0
ARC
  5
1097B
  8
MSM_CONTINUOUS
 10
59.6247337195285
 20
19.028297499682491
 30
0.0
 40
12.799999999999461
 50
208.4374999999998
 51
220.1985692516281
  0
ARC
  5
1097C
  8
MSM_CONTINUOUS
 10
50.038891283531669
 20
10.92804288687995
 30
0.0
 40
0.2499999999999815
 50
220.1985692516204
 51
280.27863351225881
  0
ARC
  5
1097D
  8
MSM_CONTINUOUS
 10
42.500000000006509
 20
52.499999999965809
 30
0.0
 40
42.499999999965198
 50
280.27863351225812
 51
282.22136648774261
  0
ARC
  5
1097E
  8
MSM_CONTINUOUS
 10
51.443871883500371
 20
11.207510904142289
 30
0.0
 40
0.2500000000000375
 50
282.22136648774182
 51
342.30143074836622
  0
ARC
  5
1097F
  8
MSM_CONTINUOUS
 10
39.487875016746592
 20
15.02282726352235
 30
0.0
 40
12.799999999999219
 50
342.30143074837167
 51
354.06250000000051
  0
ARC
  5
10980
  8
MSM_CONTINUOUS
 10
50.175775689845217
 20
13.91126983624579
 30
0.0
 40
2.054452982180361
 50
354.06249825993899
 51
7.9184427861178781
  0
ARC
  5
10981
  8
MSM_CONTINUOUS
 10
62.775601917955598
 20
15.66377450740764
 30
0.0
 40
10.66666699999975
 50
178.2247507560287
 51
187.9184443850499
  0
ARC
  5
10982
  8
MSM_CONTINUOUS
 10
53.363454574610657
 20
15.95549316647754
 30
0.0
 40
1.249999999999978
 50
106.5554456862148
 51
178.22474402592499
  0
ARC
  5
10983
  8
MSM_CONTINUOUS
 10
42.499999999847176
 20
52.500000000498829
 30
0.0
 40
36.875000000521709
 50
286.5554456862227
 51
287.19455431378179
  0
ARC
  5
10984
  8
MSM_CONTINUOUS
 10
53.770407813668669
 20
16.07894108192907
 30
0.0
 40
1.249999999999974
 50
35.525255571161061
 51
107.19455431378501
  0
ARC
  5
10985
  8
MSM_CONTINUOUS
 10
46.106563514558083
 20
10.607276988813419
 30
0.0
 40
10.666667000000579
 50
25.831555614950052
 51
35.525249196754118
  0
ARC
  5
10986
  8
MSM_CONTINUOUS
 10
57.55657557205005
 20
16.150211002881989
 30
0.0
 40
2.0544529821798192
 50
205.83155721388201
 51
219.68750174006419
  0
ARC
  5
10987
  8
MSM_CONTINUOUS
 10
65.825691982154083
 20
23.012316693436521
 30
0.0
 40
12.80000000000039
 50
219.68750000000031
 51
231.4485692516277
  0
ARC
  5
10988
  8
MSM_CONTINUOUS
 10
58.004320101487323
 20
13.197601114046289
 30
0.0
 40
0.2500000000000005
 50
231.44856925162571
 51
291.52863351225892
  0
ARC
  5
10989
  8
MSM_CONTINUOUS
 10
42.49999999999195
 20
52.500000000019718
 30
0.0
 40
42.500000000021281
 50
291.52863351225892
 51
293.47136648774068
  0
ARC
  5
1098A
  8
MSM_CONTINUOUS
 10
59.327782887707883
 20
13.74579734939493
 30
0.0
 40
0.2500000000000079
 50
293.47136648773181
 51
353.55143074837082
  0
ARC
  5
1098B
  8
MSM_CONTINUOUS
 10
46.857185851103097
 20
15.15530419599768
 30
0.0
 40
12.799999999999841
 50
353.55143074837241
 51
5.3125000000003624
  0
ARC
  5
1098C
  8
MSM_CONTINUOUS
 10
57.556575606116979
 20
16.150211016993129
 30
0.0
 40
2.0544529821808282
 50
5.3124982599402371
 51
19.168442786115651
  0
ARC
  5
1098D
  8
MSM_CONTINUOUS
 10
69.572403005655048
 20
20.32714595849599
 30
0.0
 40
10.66666699999988
 50
189.4747507560287
 51
199.16844438504981
  0
ARC
  5
1098E
  8
MSM_CONTINUOUS
 10
60.284195947179732
 20
18.777040469254288
 30
0.0
 40
1.249999999999956
 50
117.8054456862143
 51
189.4747440259259
  0
ARC
  5
1098F
  8
MSM_CONTINUOUS
 10
42.49999999982316
 20
52.500000000328839
 30
0.0
 40
36.87500000037339
 50
297.80544568622071
 51
298.44455431378231
  0
ARC
  5
10990
  8
MSM_CONTINUOUS
 10
60.65924620028261
 20
18.977509006078922
 30
0.0
 40
1.249999999999984
 50
46.775252929140741
 51
118.4445543137824
  0
ARC
  5
10991
  8
MSM_CONTINUOUS
 10
54.21012923030414
 20
12.115839552046561
 30
0.0
 40
10.666666999998711
 50
37.081555614949011
 51
46.775248887143
  0
ARC
  5
10992
  8
MSM_CONTINUOUS
 10
64.358759735012384
 20
19.78605418267551
 30
0.0
 40
2.0544529821809001
 50
217.08155721388511
 51
230.9375017400605
  0
ARC
  5
10993
  8
MSM_CONTINUOUS
 10
71.130256983103834
 20
28.129531019778589
 30
0.0
 40
12.800000000001139
 50
230.93750000000071
 51
242.69856925162759
  0
ARC
  5
10994
  8
MSM_CONTINUOUS
 10
65.373926592865729
 20
16.977528489360601
 30
0.0
 40
0.2500000000000299
 50
242.69856925162651
 51
302.7786335122529
  0
ARC
  5
10995
  8
MSM_CONTINUOUS
 10
42.49999999999261
 20
52.500000000011063
 30
0.0
 40
42.50000000001328
 50
302.77863351225892
 51
304.72136648774102
  0
ARC
  5
10996
  8
MSM_CONTINUOUS
 10
66.565011632670064
 20
17.7733860689031
 30
0.0
 40
0.2500000000000089
 50
304.72136648774517
 51
4.8014307483717449
  0
ARC
  5
10997
  8
MSM_CONTINUOUS
 10
54.05905247674005
 20
16.72291684507411
 30
0.0
 40
12.80000000000009
 50
4.8014307483720788
 51
16.562499999999879
  0
ARC
  5
10998
  8
MSM_CONTINUOUS
 10
64.358759765672303
 20
19.78605420316141
 30
0.0
 40
2.0544529821794231
 50
16.56249825993682
 51
30.418442786121481
  0
ARC
  5
10999
  8
MSM_CONTINUOUS
 10
75.328826828225061
 20
26.226902147654631
 30
0.0
 40
10.66666699999932
 50
200.7247507560281
 51
210.4184443850499
  0
ARC
  5
1099A
  8
MSM_CONTINUOUS
 10
66.521500642990773
 20
22.894542194743991
 30
0.0
 40
1.2500000000000071
 50
129.05544568621619
 51
200.72474402592371
  0
ARC
  5
1099B
  8
MSM_CONTINUOUS
 10
42.500000000085109
 20
52.499999999897518
 30
0.0
 40
36.874999999866787
 50
309.05544568621372
 51
309.6945543137839
  0
ARC
  5
1099C
  8
MSM_CONTINUOUS
 10
66.850234939242313
 20
23.16432745949562
 30
0.0
 40
1.249999999999992
 50
58.025256940011417
 51
129.6945543137841
  0
ARC
  5
1099D
  8
MSM_CONTINUOUS
 10
61.86368124684266
 20
15.17634275359331
 30
0.0
 40
10.666667000001301
 50
48.33155561495068
 51
58.025249357166153
  0
ARC
  5
1099E
  8
MSM_CONTINUOUS
 10
70.320924019890057
 20
24.67907595403469
 30
0.0
 40
2.054452982179257
 50
228.33155721387899
 51
242.18750174006519
  0
ARC
  5
1099F
  8
MSM_CONTINUOUS
 10
75.334577264225686
 20
34.183288801913839
 30
0.0
 40
12.80000000000148
 50
242.18750000000051
 51
253.94856925162699
  0
ARC
  5
109A0
  8
MSM_CONTINUOUS
 10
71.864500913126093
 20
22.122564523597251
 30
0.0
 40
0.250000000000057
 50
253.9485692516354
 51
314.02863351225187
  0
ARC
  5
109A1
  8
MSM_CONTINUOUS
 10
42.499999999958838
 20
52.500000000041169
 30
0.0
 40
42.500000000058208
 50
314.02863351225977
 51
315.97136537430617
  0
ARC
  5
109A2
  8
MSM_CONTINUOUS
 10
72.877435476403235
 20
23.135499086872368
 30
0.0
 40
0.2499999999999929
 50
315.9711772041648
 51
16.051430748732638
  0
ARC
  5
109A3
  8
MSM_CONTINUOUS
 10
60.816711198086388
 20
19.665422735774431
 30
0.0
 40
12.80000000000121
 50
16.051430748372589
 51
27.812499999999439
  0
ARC
  5
109A4
  8
MSM_CONTINUOUS
 10
70.320924045964404
 20
24.679075980109229
 30
0.0
 40
2.0544529821803672
 50
27.812498259940352
 51
41.668442786118788
  0
ARC
  5
109A5
  8
MSM_CONTINUOUS
 10
79.823657246404338
 20
33.136318753155557
 30
0.0
 40
10.666666999998389
 50
211.9747516615918
 51
221.66844438505061
  0
ARC
  5
109A6
  8
MSM_CONTINUOUS
 10
71.835672540504362
 20
28.14976506075768
 30
0.0
 40
1.249999999999996
 50
140.30544568621579
 51
211.9747517534021
  0
ARC
  5
109A7
  8
MSM_CONTINUOUS
 10
42.499999999906549
 20
52.500000000077122
 30
0.0
 40
36.875000000121148
 50
320.3054456862165
 51
320.94455431378242
  0
ARC
  5
109A8
  8
MSM_CONTINUOUS
 10
72.105457805256009
 20
28.478499357009191
 30
0.0
 40
1.2500000000000251
 50
69.275256385710705
 51
140.94455431378509
  0
ARC
  5
109A9
  8
MSM_CONTINUOUS
 10
68.773097852344222
 20
19.67117317177286
 30
0.0
 40
10.666667000001651
 50
59.581555614950489
 51
69.275249292208414
  0
ARC
  5
109AA
  8
MSM_CONTINUOUS
 10
75.213945796838345
 20
30.641240234327331
 30
0.0
 40
2.054452982179042
 50
239.58155721387899
 51
253.43750174006649
  0
ARC
  5
109AB
  8
MSM_CONTINUOUS
 10
78.277083154926032
 20
40.940947523260597
 30
0.0
 40
12.80000000000077
 50
253.4375000000002
 51
265.19856925162742
  0
ARC
  5
109AC
  8
MSM_CONTINUOUS
 10
77.226613931096864
 20
28.434988367329929
 30
0.0
 40
0.2500000000000391
 50
265.19856925163032
 51
325.27863351225358
  0
ARC
  5
109AD
  8
MSM_CONTINUOUS
 10
42.499999999996263
 20
52.500000000002558
 30
0.0
 40
42.500000000004533
 50
325.27863351225852
 51
327.22136537430742
  0
ARC
  5
109AE
  8
MSM_CONTINUOUS
 10
78.022471510640173
 20
29.626073407132871
 30
0.0
 40
0.2499999999999775
 50
327.22117720416151
 51
27.301430748736031
  0
ARC
  5
109AF
  8
MSM_CONTINUOUS
 10
66.87046898022038
 20
23.869743016895491
 30
0.0
 40
12.800000000002351
 50
27.301430748372969
 51
39.0624999999986
  0
ARC
  5
109B0
  8
MSM_CONTINUOUS
 10
75.213945817324117
 20
30.64124026498704
 30
0.0
 40
2.05445298218154
 50
39.062498259944988
 51
52.918442786116408
  0
ARC
  5
109B1
  8
MSM_CONTINUOUS
 10
82.884160447955026
 20
40.789870769697373
 30
0.0
 40
10.66666700000092
 50
223.22475166159271
 51
232.9184443850491
  0
ARC
  5
109B2
  8
MSM_CONTINUOUS
 10
76.022490993921082
 20
34.340753799717369
 30
0.0
 40
1.249999999999986
 50
151.55544568621579
 51
223.2247517534019
  0
ARC
  5
109B3
  8
MSM_CONTINUOUS
 10
42.499999999724857
 20
52.500000000146677
 30
0.0
 40
36.875000000311793
 50
331.55544568621917
 51
332.19455431378168
  0
ARC
  5
109B4
  8
MSM_CONTINUOUS
 10
76.222959530745683
 20
34.715804052820232
 30
0.0
 40
1.249999999999964
 50
80.52525557116013
 51
152.1945543137864
  0
ARC
  5
109B5
  8
MSM_CONTINUOUS
 10
74.672854041504479
 20
25.42759699434685
 30
0.0
 40
10.66666699999791
 50
70.83155561494921
 51
80.525249196755581
  0
ARC
  5
109B6
  8
MSM_CONTINUOUS
 10
78.849788983006619
 20
37.443424393881678
 30
0.0
 40
2.0544529821794959
 50
250.83155721387811
 51
264.6875037759429
  0
ARC
  5
109B7
  8
MSM_CONTINUOUS
 10
79.844695804002242
 20
48.142814148897017
 30
0.0
 40
12.79999999999999
 50
264.68750032676712
 51
276.44856925162787
  0
ARC
  5
109B8
  8
MSM_CONTINUOUS
 10
81.25420265060508
 20
35.67221711229211
 30
0.0
 40
0.2499999999999903
 50
276.44856925163123
 51
336.52863351225778
  0
ARC
  5
109B9
  8
MSM_CONTINUOUS
 10
42.499999999951207
 20
52.500000000020073
 30
0.0
 40
42.500000000052736
 50
336.52863351225989
 51
338.47136648774028
  0
ARC
  5
109BA
  8
MSM_CONTINUOUS
 10
81.802398885953636
 20
36.995679898512641
 30
0.0
 40
0.2500000000000671
 50
338.47136648774563
 51
38.551425770050599
  0
ARC
  5
109BB
  8
MSM_CONTINUOUS
 10
71.987683306564165
 20
29.174308017846599
 30
0.0
 40
12.79999999999942
 50
38.551430651139121
 51
50.312500000000171
  0
ARC
  5
109BC
  8
MSM_CONTINUOUS
 10
78.849788997117642
 20
37.443424427949303
 30
0.0
 40
2.0544529821805391
 50
50.31249825993919
 51
64.168442786116486
  0
ARC
  5
109BD
  8
MSM_CONTINUOUS
 10
84.392723011185765
 20
48.893436485440468
 30
0.0
 40
10.666666999998959
 50
234.47475166159219
 51
244.16844438505049
  0
ARC
  5
109BE
  8
MSM_CONTINUOUS
 10
78.921058918070983
 20
41.229592186331331
 30
0.0
 40
1.2500000000000151
 50
162.8054456862169
 51
234.47475175340119
  0
ARC
  5
109BF
  8
MSM_CONTINUOUS
 10
42.499999999441613
 20
52.500000000170132
 30
0.0
 40
36.875000000583718
 50
342.80544568622003
 51
343.44455431377781
  0
ARC
  5
109C0
  8
MSM_CONTINUOUS
 10
79.044506833522419
 20
41.63654542538935
 30
0.0
 40
1.2499999999999361
 50
91.775256385707436
 51
163.44455431378759
  0
ARC
  5
109C1
  8
MSM_CONTINUOUS
 10
79.336225492592362
 20
32.224398082044722
 30
0.0
 40
10.666666999999411
 50
82.081555614949863
 51
91.775249292209722
  0
ARC
  5
109C2
  8
MSM_CONTINUOUS
 10
81.088730163754164
 20
44.824224310153909
 30
0.0
 40
2.0544529821795332
 50
262.08155721387908
 51
275.93750174006368
  0
ARC
  5
109C3
  8
MSM_CONTINUOUS
 10
79.97717273647757
 20
55.512124983253642
 30
0.0
 40
12.799999999999489
 50
275.93749999999977
 51
287.69856925162799
  0
ARC
  5
109C4
  8
MSM_CONTINUOUS
 10
83.792489095857718
 20
43.556128116499579
 30
0.0
 40
0.250000000000026
 50
287.69856925163168
 51
347.77863351225449
  0
ARC
  5
109C5
  8
MSM_CONTINUOUS
 10
42.499999999933308
 20
52.50000000001338
 30
0.0
 40
42.500000000068013
 50
347.77863351225989
 51
349.72136648773972
  0
ARC
  5
109C6
  8
MSM_CONTINUOUS
 10
84.071957113120021
 20
44.96110871646831
 30
0.0
 40
0.2500000000000039
 50
349.72136648773721
 51
49.801425770058977
  0
ARC
  5
109C7
  8
MSM_CONTINUOUS
 10
75.971702500317363
 20
35.375266280471273
 30
0.0
 40
12.799999999999701
 50
49.801430651139242
 51
61.562500000000149
  0
ARC
  5
109C8
  8
MSM_CONTINUOUS
 10
81.088730170947855
 20
44.824224346319703
 30
0.0
 40
2.054452982180631
 50
61.562498259941627
 51
75.418442786118675
  0
ARC
  5
109C9
  8
MSM_CONTINUOUS
 10
84.291371722807696
 20
57.135600414465237
 30
0.0
 40
10.66666699999884
 50
245.72475166159219
 51
255.41844438505061
  0
ARC
  5
109CA
  8
MSM_CONTINUOUS
 10
80.419985973164529
 20
48.551546024707051
 30
0.0
 40
1.2500000000000091
 50
174.0554456862163
 51
245.72475175340071
  0
ARC
  5
109CB
  8
MSM_CONTINUOUS
 10
42.499999999217721
 20
52.500000000076952
 30
0.0
 40
36.875000000786038
 50
354.05544568622292
 51
354.69455431377742
  0
ARC
  5
109CC
  8
MSM_CONTINUOUS
 10
80.461669233082475
 20
48.974763264965191
 30
0.0
 40
1.249999999999996
 50
103.0252563857096
 51
174.6945543137858
  0
ARC
  5
109CD
  8
MSM_CONTINUOUS
 10
82.584001455993587
 20
39.800379180761801
 30
0.0
 40
10.666667000000119
 50
93.331555614949707
 51
103.025249292209
  0
ARC
  5
109CE
  8
MSM_CONTINUOUS
 10
81.84472808511785
 20
52.499999981562389
 30
0.0
 40
2.054452982179646
 50
273.3315572138801
 51
287.18750174006351
  0
ARC
  5
109CF
  8
MSM_CONTINUOUS
 10
78.669422938130253
 20
62.765681543724483
 30
0.0
 40
12.80000000000058
 50
287.18750000000023
 51
298.94856925162742
  0
ARC
  5
109D0
  8
MSM_CONTINUOUS
 10
84.743928342251309
 20
51.783747101408778
 30
0.0
 40
0.2499999999999596
 50
298.94856925161957
 51
359.02863351226392
  0
ARC
  5
109D1
  8
MSM_CONTINUOUS
 10
42.500000000023263
 20
52.500000000000142
 30
0.0
 40
42.49999999997673
 50
359.02863351225773
 51
0.9713664877418882
  0
ARC
  5
109D2
  8
MSM_CONTINUOUS
 10
84.74392834225128
 20
53.216252898591179
 30
0.0
 40
0.249999999999984
 50
0.9713664877099677
 51
61.051430748371857
  0
ARC
  5
109D3
  8
MSM_CONTINUOUS
 10
78.669422938130793
 20
42.234318456276817
 30
0.0
 40
12.799999999999169
 50
61.051430748371509
 51
72.812500000000199
  0
ARC
  5
109D4
  8
MSM_CONTINUOUS
 10
81.844728085117893
 20
52.500000018437582
 30
0.0
 40
2.054452982179626
 50
72.812498259937598
 51
86.668442786121446
  0
ARC
  5
109D5
  8
MSM_CONTINUOUS
 10
82.584001455993587
 20
65.199620819237467
 30
0.0
 40
10.666666999999411
 50
256.97475166159211
 51
266.66844438505001
  0
ARC
  5
109D6
  8
MSM_CONTINUOUS
 10
80.461669233082475
 20
56.025236735034802
 30
0.0
 40
1.249999999999998
 50
185.30544568621639
 51
256.97475175340128
  0
ARC
  5
109D7
  8
MSM_CONTINUOUS
 10
42.499999999709409
 20
52.499999999971692
 30
0.0
 40
36.875000000291948
 50
5.305445686218035
 51
5.944554313780964
  0
ARC
  5
109D8
  8
MSM_CONTINUOUS
 10
80.419985973164529
 20
56.448453975292921
 30
0.0
 40
1.2500000000000091
 50
114.2752549038446
 51
185.9445543137839
  0
ARC
  5
109D9
  8
MSM_CONTINUOUS
 10
84.291371722807639
 20
47.864399585534713
 30
0.0
 40
10.66666699999883
 50
104.5815556149491
 51
114.2752491185536
  0
ARC
  5
109DA
  8
MSM_CONTINUOUS
 10
81.088730170947997
 20
60.175775653679679
 30
0.0
 40
2.054452982180043
 50
284.58155721388192
 51
298.43750174006271
  0
ARC
  5
109DB
  8
MSM_CONTINUOUS
 10
75.971702500317207
 20
69.624733719529033
 30
0.0
 40
12.80000000000007
 50
298.4374999999996
 51
310.19856925162748
  0
ARC
  5
109DC
  8
MSM_CONTINUOUS
 10
84.071957113119993
 20
60.038891283531669
 30
0.0
 40
0.2500000000000377
 50
310.19856925162833
 51
10.27863351224987
  0
ARC
  5
109DD
  8
MSM_CONTINUOUS
 10
42.500000000067907
 20
52.500000000013081
 30
0.0
 40
42.49999999993085
 50
10.278633512257541
 51
12.22136648774363
  0
ARC
  5
109DE
  8
MSM_CONTINUOUS
 10
83.792489095857746
 20
61.443871883500407
 30
0.0
 40
0.2500000000000115
 50
12.221366487749309
 51
72.301430748370365
  0
ARC
  5
109DF
  8
MSM_CONTINUOUS
 10
79.97717273647747
 20
49.48787501674591
 30
0.0
 40
12.79999999999993
 50
72.301430748371985
 51
84.062499999999844
  0
ARC
  5
109E0
  8
MSM_CONTINUOUS
 10
81.088730163754235
 20
60.175775689845622
 30
0.0
 40
2.0544529821799791
 50
84.062498259938337
 51
97.918442786119982
  0
ARC
  5
109E1
  8
MSM_CONTINUOUS
 10
79.336225492592362
 20
72.775601917955541
 30
0.0
 40
10.666666999999681
 50
268.22475166159222
 51
277.91844438505001
  0
ARC
  5
109E2
  8
MSM_CONTINUOUS
 10
79.04450683352249
 20
63.363454574610678
 30
0.0
 40
1.2500000000000091
 50
196.5554456862163
 51
268.22475175340122
  0
ARC
  5
109E3
  8
MSM_CONTINUOUS
 10
42.499999999730257
 20
52.49999999991828
 30
0.0
 40
36.87500000028183
 50
16.555445686218231
 51
17.19455431378141
  0
ARC
  5
109E4
  8
MSM_CONTINUOUS
 10
78.921058918070884
 20
63.77040781366869
 30
0.0
 40
1.2499999999999221
 50
125.52525557115941
 51
197.19455431378569
  0
ARC
  5
109E5
  8
MSM_CONTINUOUS
 10
84.392723011185765
 20
56.106563514559433
 30
0.0
 40
10.66666699999902
 50
115.8315556149492
 51
125.5252491967546
  0
ARC
  5
109E6
  8
MSM_CONTINUOUS
 10
78.849788997117813
 20
67.556575572050392
 30
0.0
 40
2.054452982180202
 50
295.83155721388277
 51
309.68750174006232
  0
ARC
  5
109E7
  8
MSM_CONTINUOUS
 10
71.987683306564804
 20
75.825691982152833
 30
0.0
 40
12.799999999998599
 50
309.68749999999909
 51
321.44856925162833
  0
ARC
  5
109E8
  8
MSM_CONTINUOUS
 10
81.80239888595375
 20
68.004320101487323
 30
0.0
 40
0.2499999999999872
 50
321.44856925162412
 51
21.528633512260068
  0
ARC
  5
109E9
  8
MSM_CONTINUOUS
 10
42.4999999999417
 20
52.499999999975607
 30
0.0
 40
42.50000000006316
 50
21.528633512260271
 51
23.471366487740269
  0
ARC
  5
109EA
  8
MSM_CONTINUOUS
 10
81.254202650605066
 20
69.327782887707841
 30
0.0
 40
0.2500000000000249
 50
23.471366487747101
 51
83.551430748369725
  0
ARC
  5
109EB
  8
MSM_CONTINUOUS
 10
79.844695804002214
 20
56.857185851102543
 30
0.0
 40
12.800000000000409
 50
83.551430748372184
 51
95.312499999999659
  0
ARC
  5
109EC
  8
MSM_CONTINUOUS
 10
78.849788983006732
 20
67.556575606117903
 30
0.0
 40
2.054452982179892
 50
95.312498259938465
 51
109.16844278612049
  0
ARC
  5
109ED
  8
MSM_CONTINUOUS
 10
74.672854041503697
 20
79.572403005655829
 30
0.0
 40
10.66666700000072
 50
279.47475075602972
 51
289.16844438505001
  0
ARC
  5
109EE
  8
MSM_CONTINUOUS
 10
76.222959530745754
 20
70.284195947179782
 30
0.0
 40
1.2500000000000071
 50
207.80544568621579
 51
279.47474402592462
  0
ARC
  5
109EF
  8
MSM_CONTINUOUS
 10
42.500000000186859
 20
52.500000000098638
 30
0.0
 40
36.87499999978872
 50
27.805445686215808
 51
28.444554313787499
  0
ARC
  5
109F0
  8
MSM_CONTINUOUS
 10
76.02249099392111
 20
70.65924620028261
 30
0.0
 40
1.249999999999992
 50
136.7752529291418
 51
208.44455431378449
  0
ARC
  5
109F1
  8
MSM_CONTINUOUS
 10
82.884160447954287
 20
64.210129230303195
 30
0.0
 40
10.66666699999997
 50
127.08155561494939
 51
136.77524888714231
  0
ARC
  5
109F2
  8
MSM_CONTINUOUS
 10
75.213945817325055
 20
74.358759735011844
 30
0.0
 40
2.0544529821801221
 50
307.08155721388181
 51
320.9375017400622
  0
ARC
  5
109F3
  8
MSM_CONTINUOUS
 10
66.870468980221659
 20
81.130256983103735
 30
0.0
 40
12.800000000000891
 50
320.93750000000028
 51
332.69856925162742
  0
ARC
  5
109F4
  8
MSM_CONTINUOUS
 10
78.022471510639406
 20
75.373926592865715
 30
0.0
 40
0.250000000000036
 50
332.69856925162679
 51
32.778633512256043
  0
ARC
  5
109F5
  8
MSM_CONTINUOUS
 10
42.500000000039321
 20
52.500000000026361
 30
0.0
 40
42.499999999952657
 50
32.778633512257358
 51
34.721366487742429
  0
ARC
  5
109F6
  8
MSM_CONTINUOUS
 10
77.226613931096892
 20
76.565011632670078
 30
0.0
 40
0.2500000000000067
 50
34.721366487741562
 51
94.801430748370393
  0
ARC
  5
109F7
  8
MSM_CONTINUOUS
 10
78.277083154925975
 20
64.05905247673941
 30
0.0
 40
12.800000000000731
 50
94.801430748372198
 51
106.5624999999994
  0
ARC
  5
109F8
  8
MSM_CONTINUOUS
 10
75.213945796838942
 20
74.35875976567165
 30
0.0
 40
2.054452982180186
 50
106.5624982599406
 51
120.41844278612101
  0
ARC
  5
109F9
  8
MSM_CONTINUOUS
 10
68.773097852345472
 20
85.328826828224734
 30
0.0
 40
10.66666699999899
 50
290.72475166159182
 51
300.41844438505018
  0
ARC
  5
109FA
  8
MSM_CONTINUOUS
 10
72.105457805256023
 20
76.521500642990745
 30
0.0
 40
1.249999999999996
 50
219.05544568621571
 51
290.72475175340082
  0
ARC
  5
109FB
  8
MSM_CONTINUOUS
 10
42.500000000066258
 20
52.500000000054797
 30
0.0
 40
36.874999999914017
 50
39.055445686214711
 51
39.694554313784231
  0
ARC
  5
109FC
  8
MSM_CONTINUOUS
 10
71.835672540504362
 20
76.850234939242327
 30
0.0
 40
1.249999999999982
 50
148.0252569400111
 51
219.69455431378461
  0
ARC
  5
109FD
  8
MSM_CONTINUOUS
 10
79.823657246406214
 20
71.863681246842916
 30
0.0
 40
10.66666700000077
 50
138.33155561494999
 51
148.0252493571659
  0
ARC
  5
109FE
  8
MSM_CONTINUOUS
 10
70.320924045964489
 20
80.320924019890654
 30
0.0
 40
2.0544529821802811
 50
318.33155721388169
 51
332.18750377594102
  0
ARC
  5
109FF
  8
MSM_CONTINUOUS
 10
60.816711198086317
 20
85.334577264225587
 30
0.0
 40
12.800000000001321
 50
332.1875003267678
 51
343.94856925162719
  0
ARC
  5
10A00
  8
MSM_CONTINUOUS
 10
72.877435476402781
 20
81.864500913126093
 30
0.0
 40
0.2500000000000321
 50
343.94856925163049
 51
44.028633512252988
  0
ARC
  5
10A01
  8
MSM_CONTINUOUS
 10
42.500000000020179
 20
52.500000000019988
 30
0.0
 40
42.4999999999716
 50
44.028633512258047
 51
45.971365374308412
  0
ARC
  5
10A02
  8
MSM_CONTINUOUS
 10
71.864500913127628
 20
82.877435476403235
 30
0.0
 40
0.2499999999999853
 50
45.971177204162451
 51
106.0514307487318
  0
ARC
  5
10A03
  8
MSM_CONTINUOUS
 10
75.334577264225004
 20
70.816711198087901
 30
0.0
 40
12.799999999999621
 50
106.051430748372
 51
117.8125000000002
  0
ARC
  5
10A04
  8
MSM_CONTINUOUS
 10
70.32092401989064
 20
80.320924045964588
 30
0.0
 40
2.0544529821801421
 50
117.8124982599393
 51
131.6684427861195
  0
ARC
  5
10A05
  8
MSM_CONTINUOUS
 10
61.863681246843818
 20
89.823657246405176
 30
0.0
 40
10.666666999999419
 50
301.97475166159228
 51
311.66844438505012
  0
ARC
  5
10A06
  8
MSM_CONTINUOUS
 10
66.850234939242327
 20
81.835672540504348
 30
0.0
 40
1.24999999999998
 50
230.3054456862159
 51
301.9747517534019
  0
ARC
  5
10A07
  8
MSM_CONTINUOUS
 10
42.500000000065107
 20
52.500000000078707
 30
0.0
 40
36.874999999897852
 50
50.305445686215698
 51
50.944554313785481
  0
ARC
  5
10A08
  8
MSM_CONTINUOUS
 10
66.52150064299083
 20
82.105457805255995
 30
0.0
 40
1.2500000000000351
 50
159.275256385711
 51
230.94455431378219
  0
ARC
  5
10A09
  8
MSM_CONTINUOUS
 10
75.328826828227136
 20
78.773097852344236
 30
0.0
 40
10.666667000001651
 50
149.5815556149505
 51
159.2752492922084
  0
ARC
  5
10A0A
  8
MSM_CONTINUOUS
 10
64.358759765672374
 20
85.213945796838544
 30
0.0
 40
2.054452982179388
 50
329.58155721387777
 51
343.43750377594313
  0
ARC
  5
10A0B
  8
MSM_CONTINUOUS
 10
54.059052476740902
 20
88.277083154925734
 30
0.0
 40
12.79999999999926
 50
343.43750032676672
 51
355.19856925162821
  0
ARC
  5
10A0C
  8
MSM_CONTINUOUS
 10
66.565011632670149
 20
87.226613931096864
 30
0.0
 40
0.2499999999999701
 50
355.19856925162583
 51
55.278633512264619
  0
ARC
  5
10A0D
  8
MSM_CONTINUOUS
 10
42.500000000068937
 20
52.50000000010381
 30
0.0
 40
42.499999999875392
 50
55.278633512255183
 51
57.221365374309961
  0
ARC
  5
10A0E
  8
MSM_CONTINUOUS
 10
65.37392659286715
 20
88.022471510640145
 30
0.0
 40
0.2499999999999937
 50
57.221177204169066
 51
117.3014307487374
  0
ARC
  5
10A0F
  8
MSM_CONTINUOUS
 10
71.130256983102612
 20
76.870468980223322
 30
0.0
 40
12.79999999999888
 50
117.3014307483714
 51
129.06250000000031
  0
ARC
  5
10A10
  8
MSM_CONTINUOUS
 10
64.358759735011731
 20
85.213945817325268
 30
0.0
 40
2.0544529821798472
 50
129.06249825993891
 51
142.91844278612101
  0
ARC
  5
10A11
  8
MSM_CONTINUOUS
 10
54.210129230303892
 20
92.884160447953761
 30
0.0
 40
10.666666999999141
 50
313.22475166159211
 51
322.91844438505052
  0
ARC
  5
10A12
  8
MSM_CONTINUOUS
 10
60.659246200282638
 20
86.022490993921124
 30
0.0
 40
1.2500000000000191
 50
241.55544568621701
 51
313.22475175339991
  0
ARC
  5
10A13
  8
MSM_CONTINUOUS
 10
42.499999999712379
 20
52.49999999946165
 30
0.0
 40
36.875000000610363
 50
61.555445686221432
 51
62.194554313778838
  0
ARC
  5
10A14
  8
MSM_CONTINUOUS
 10
60.284195947179782
 20
86.222959530745669
 30
0.0
 40
1.249999999999974
 50
170.52525557116019
 51
242.19455431378381
  0
ARC
  5
10A15
  8
MSM_CONTINUOUS
 10
69.572403005655318
 20
84.67285404150384
 30
0.0
 40
10.66666700000016
 50
160.83155561494979
 51
170.5252491967542
  0
ARC
  5
10A16
  8
MSM_CONTINUOUS
 10
57.55657560611742
 20
88.849788983006832
 30
0.0
 40
2.054452982180428
 50
340.83155721388118
 51
354.6875048499175
  0
ARC
  5
10A17
  8
MSM_CONTINUOUS
 10
46.857185851104497
 20
89.844695804002214
 30
0.0
 40
12.79999999999848
 50
354.68750049914451
 51
6.4485692516287303
  0
ARC
  5
10A18
  8
MSM_CONTINUOUS
 10
59.327782887707897
 20
91.25420265060508
 30
0.0
 40
0.2499999999999981
 50
6.448569251627795
 51
66.528633512256278
  0
ARC
  5
10A19
  8
MSM_CONTINUOUS
 10
42.49999999999924
 20
52.49999999999816
 30
0.0
 40
42.500000000001982
 50
66.528633512258594
 51
68.471366487741335
  0
ARC
  5
10A1A
  8
MSM_CONTINUOUS
 10
58.004320101487359
 20
91.802398885953593
 30
0.0
 40
0.2500000000000896
 50
68.471366487749492
 51
128.5514257700452
  0
ARC
  5
10A1B
  8
MSM_CONTINUOUS
 10
65.825691982153245
 20
81.987683306564335
 30
0.0
 40
12.79999999999918
 50
128.5514306511389
 51
140.3125000000002
  0
ARC
  5
10A1C
  8
MSM_CONTINUOUS
 10
57.556575572050448
 20
88.849788997117884
 30
0.0
 40
2.054452982180194
 50
140.31249825993939
 51
154.1684427861193
  0
ARC
  5
10A1D
  8
MSM_CONTINUOUS
 10
46.106563514559902
 20
94.392723011185595
 30
0.0
 40
10.66666699999856
 50
324.47475166159171
 51
334.16844438505058
  0
ARC
  5
10A1E
  8
MSM_CONTINUOUS
 10
53.770407813668669
 20
88.921058918070955
 30
0.0
 40
1.249999999999998
 50
252.8054456862167
 51
324.47475175340088
  0
ARC
  5
10A1F
  8
MSM_CONTINUOUS
 10
42.500000000006821
 20
52.500000000023341
 30
0.0
 40
36.874999999975692
 50
72.805445686215364
 51
73.444554313783854
  0
ARC
  5
10A20
  8
MSM_CONTINUOUS
 10
53.363454574610671
 20
89.044506833522433
 30
0.0
 40
1.24999999999998
 50
181.7752563857087
 51
253.44455431378449
  0
ARC
  5
10A21
  8
MSM_CONTINUOUS
 10
62.775601917956351
 20
89.336225492592277
 30
0.0
 40
10.666667000000469
 50
172.08155561495019
 51
181.77524929220891
  0
ARC
  5
10A22
  8
MSM_CONTINUOUS
 10
50.175775689845537
 20
91.088730163754235
 30
0.0
 40
2.0544529821800852
 50
352.08155721387931
 51
5.9375048499182936
  0
ARC
  5
10A23
  8
MSM_CONTINUOUS
 10
39.487875016745733
 20
89.977172736477414
 30
0.0
 40
12.80000000000015
 50
5.9375004991451448
 51
17.698569251627902
  0
ARC
  5
10A24
  8
MSM_CONTINUOUS
 10
51.443871883500442
 20
93.792489095857746
 30
0.0
 40
0.2500000000000057
 50
17.69856925163322
 51
77.778633512257059
  0
ARC
  5
10A25
  8
MSM_CONTINUOUS
 10
42.500000000000512
 20
52.500000000003809
 30
0.0
 40
42.499999999996177
 50
77.778633512258125
 51
79.721366487741165
  0
ARC
  5
10A26
  8
MSM_CONTINUOUS
 10
50.03889128353169
 20
94.071957113120035
 30
0.0
 40
0.2500000000000007
 50
79.721366487740383
 51
139.80142577006251
  0
ARC
  5
10A27
  8
MSM_CONTINUOUS
 10
59.624733719528358
 20
85.971702500317591
 30
0.0
 40
12.79999999999928
 50
139.8014306511389
 51
151.56250000000011
  0
ARC
  5
10A28
  8
MSM_CONTINUOUS
 10
50.175775653679317
 20
91.088730170948267
 30
0.0
 40
2.0544529821795812
 50
151.56249825993839
 51
165.4184427861224
  0
ARC
  5
10A29
  8
MSM_CONTINUOUS
 10
37.864399585533519
 20
94.291371722808194
 30
0.0
 40
10.666667000000171
 50
335.72475166159222
 51
345.41844438504938
  0
ARC
  5
10A2A
  8
MSM_CONTINUOUS
 10
46.448453975292971
 20
90.419985973164458
 30
0.0
 40
1.249999999999956
 50
264.0554456862144
 51
335.72475175340321
  0
ARC
  5
10A2B
  8
MSM_CONTINUOUS
 10
42.499999999906343
 20
52.499999999051482
 30
0.0
 40
36.875000000953108
 50
84.055445686223877
 51
84.694554313775342
  0
ARC
  5
10A2C
  8
MSM_CONTINUOUS
 10
46.025236735034788
 20
90.461669233082475
 30
0.0
 40
1.24999999999999
 50
193.02524824660011
 51
264.69455431378452
  0
ARC
  5
10A2D
  8
MSM_CONTINUOUS
 10
55.199620819240081
 20
92.584001455993828
 30
0.0
 40
10.666667000002009
 50
183.33155561495039
 51
193.02524833840619
  0
ARC
  5
10A2E
  8
MSM_CONTINUOUS
 10
42.500000018437099
 20
91.844728085117723
 30
0.0
 40
2.054452982180146
 50
3.3315572138832752
 51
17.187504849921531
  0
ARC
  5
10A2F
  8
MSM_CONTINUOUS
 10
32.234318456276561
 20
88.669422938130737
 30
0.0
 40
12.79999999999943
 50
17.1875004991448
 51
28.948569251628118
  0
ARC
  5
10A30
  8
MSM_CONTINUOUS
 10
43.216252898591179
 20
94.743928342251266
 30
0.0
 40
0.2499999999999852
 50
28.948569251630989
 51
89.028633512262303
  0
CIRCLE
  5
10A31
  8
MSM_CONTINUOUS
 10
42.5
 20
52.5
 30
0.0
 40
7.7999999999999989
  0
LINE
  5
10AA9
  8
MSM_CENTER
 10
98.0
 20
52.5
 30
0.0
 11
127.0
 21
52.5
 31
0.0
  0
LINE
  5
10AAE
  8
MSM_CONTINUOUS
 10
125.0
 20
60.299999999999947
 30
0.0
 11
124.7
 21
59.999999999999943
 31
0.0
  0
LINE
  5
10AAF
  8
MSM_CONTINUOUS
 10
124.8660254037834
 20
95.00000000000378
 30
0.0
 11
125.0
 21
94.500000000000014
 31
0.0
  0
LINE
  5
10AB0
  8
MSM_CONTINUOUS
 10
124.8660254037834
 20
95.00000000000378
 30
0.0
 11
100.1339745962165
 21
95.00000000000378
 31
0.0
  0
LINE
  5
10AB1
  8
MSM_CONTINUOUS
 10
100.0
 20
10.499999999999879
 30
0.0
 11
100.0
 21
94.500000000000114
 31
0.0
  0
LINE
  5
10AB2
  8
MSM_CONTINUOUS
 10
125.0
 20
94.500000000000014
 30
0.0
 11
125.0
 21
10.50000000000006
 31
0.0
  0
LINE
  5
10AB3
  8
MSM_CONTINUOUS
 10
100.0
 20
94.500000000000114
 30
0.0
 11
100.1339745962165
 21
95.00000000000378
 31
0.0
  0
LINE
  5
10AB5
  8
MSM_CONTINUOUS
 10
100.3
 20
60.0
 30
0.0
 11
100.0
 21
60.300000000000011
 31
0.0
  0
LINE
  5
10AB8
  8
MSM_CONTINUOUS
 10
124.7
 20
45.000000000000057
 30
0.0
 11
125.0
 21
44.700000000000053
 31
0.0
  0
LINE
  5
10AB9
  8
MSM_CONTINUOUS
 10
100.0
 20
44.699999999999982
 30
0.0
 11
100.3
 21
45.0
 31
0.0
  0
LINE
  5
10ABB
  8
MSM_CONTINUOUS
 10
100.1339745962168
 20
9.9999999999952802
 30
0.0
 11
100.0
 21
10.499999999999879
 31
0.0
  0
LINE
  5
10ABC
  8
MSM_CONTINUOUS
 10
100.1339745962168
 20
9.9999999999952802
 30
0.0
 11
124.8660254037845
 21
10.0
 31
0.0
  0
LINE
  5
10ABD
  8
MSM_CONTINUOUS
 10
125.0
 20
10.499999999999909
 30
0.0
 11
124.8660254037845
 21
10.0
 31
0.0
  0
LINE
  5
10AC1
  8
MSM_CONTINUOUS
 10
100.3
 20
60.0
 30
0.0
 11
124.7
 21
59.999999999999943
 31
0.0
  0
LINE
  5
10AC2
  8
MSM_CONTINUOUS
 10
100.3
 20
45.0
 30
0.0
 11
100.3
 21
60.0
 31
0.0
  0
LINE
  5
10AC3
  8
MSM_CONTINUOUS
 10
124.7
 20
45.000000000000021
 30
0.0
 11
100.3
 21
45.0
 31
0.0
  0
LINE
  5
10AC4
  8
MSM_CONTINUOUS
 10
124.7
 20
45.000000000000057
 30
0.0
 11
124.7
 21
59.999999999999943
 31
0.0
  0
CIRCLE
  5
10AF9
  8
MSM_CENTER
 10
42.5
 20
52.5
 30
0.0
 40
40.0
  0
LINE
  5
10AFC
  8
MSM_CENTER
 10
98.0
 20
92.5
 30
0.0
 11
127.0
 21
92.5
 31
0.0
  0
LINE
  5
10AFD
  8
MSM_CONTINUOUS
 10
100.0
 20
89.375
 30
0.0
 11
125.0
 21
89.375
 31
0.0
  0
LINE
  5
10AFE
  8
MSM_CONTINUOUS
 10
100.0
 20
15.625
 30
0.0
 11
125.0
 21
15.625
 31
0.0
  0
LINE
  5
10AFF
  8
MSM_CENTER
 10
98.0
 20
12.5
 30
0.0
 11
127.0
 21
12.5
 31
0.0
  0
LINE
  5
10B58
  8
MSM_NARROW
 10
173.99999999999989
 20
87.500000000002373
 30
0.0
 11
173.99999999999989
 21
60.00000000000226
 31
0.0
  0
LINE
  5
10B59
  8
MSM_CONTINUOUS
 10
173.4584999999999
 20
87.500000000002373
 30
0.0
 11
173.4584999999999
 21
60.00000000000226
 31
0.0
  0
LINE
  5
10B5A
  8
MSM_CONTINUOUS
 10
168.54150000000001
 20
87.500000000002373
 30
0.0
 11
168.54150000000001
 21
60.000000000002309
 31
0.0
  0
LINE
  5
10B5B
  8
MSM_NARROW
 10
167.99999999999989
 20
87.500000000002373
 30
0.0
 11
167.99999999999989
 21
60.000000000002309
 31
0.0
  0
LINE
  5
10B5C
  8
MSM_CONTINUOUS
 10
177.0
 20
87.200000000002362
 30
0.0
 11
177.0
 21
17.800000000002381
 31
0.0
  0
LINE
  5
10B5D
  8
MSM_CONTINUOUS
 10
176.69999999999999
 20
87.500000000002373
 30
0.0
 11
177.0
 21
87.200000000002362
 31
0.0
  0
LINE
  5
10B5E
  8
MSM_CONTINUOUS
 10
177.0
 20
60.300000000002321
 30
0.0
 11
176.69999999999999
 21
60.000000000002309
 31
0.0
  0
LINE
  5
10B5F
  8
MSM_CONTINUOUS
 10
164.8660254037834
 20
95.000000000006125
 30
0.0
 11
165.0
 21
94.500000000002373
 31
0.0
  0
LINE
  5
10B60
  8
MSM_CONTINUOUS
 10
164.8660254037834
 20
95.000000000006125
 30
0.0
 11
140.13397459621649
 21
95.000000000006125
 31
0.0
  0
LINE
  5
10B61
  8
MSM_CONTINUOUS
 10
140.0
 20
10.50000000000224
 30
0.0
 11
140.0
 21
94.500000000002487
 31
0.0
  0
LINE
  5
10B62
  8
MSM_CONTINUOUS
 10
165.0
 20
94.500000000002373
 30
0.0
 11
165.0
 21
87.500000000002373
 31
0.0
  0
LINE
  5
10B63
  8
MSM_CONTINUOUS
 10
140.0
 20
94.500000000002487
 30
0.0
 11
140.13397459621649
 21
95.000000000006125
 31
0.0
  0
LINE
  5
10B64
  8
MSM_CONTINUOUS
 10
140.30000000000001
 20
60.00000000000238
 30
0.0
 11
140.0
 21
60.300000000002392
 31
0.0
  0
LINE
  5
10B65
  8
MSM_CONTINUOUS
 10
177.0
 20
17.800000000002381
 30
0.0
 11
176.69999999999999
 21
17.50000000000237
 31
0.0
  0
LINE
  5
10B66
  8
MSM_CONTINUOUS
 10
176.69999999999999
 20
45.00000000000243
 30
0.0
 11
177.0
 21
44.700000000002419
 31
0.0
  0
LINE
  5
10B67
  8
MSM_CONTINUOUS
 10
140.0
 20
44.700000000002362
 30
0.0
 11
140.30000000000001
 21
45.000000000002373
 31
0.0
  0
LINE
  5
10B68
  8
MSM_CONTINUOUS
 10
140.1339745962168
 20
9.9999999999976392
 30
0.0
 11
140.0
 21
10.50000000000224
 31
0.0
  0
LINE
  5
10B69
  8
MSM_CONTINUOUS
 10
140.1339745962168
 20
9.9999999999976392
 30
0.0
 11
164.86602540378439
 21
10.000000000002361
 31
0.0
  0
LINE
  5
10B6A
  8
MSM_CONTINUOUS
 10
165.0
 20
10.50000000000227
 30
0.0
 11
164.86602540378439
 21
10.000000000002361
 31
0.0
  0
LINE
  5
10B6B
  8
MSM_CONTINUOUS
 10
165.0
 20
17.50000000000237
 30
0.0
 11
165.0
 21
10.50000000000227
 31
0.0
  0
LINE
  5
10B6C
  8
MSM_CONTINUOUS
 10
140.30000000000001
 20
60.00000000000238
 30
0.0
 11
176.69999999999999
 21
60.00000000000226
 31
0.0
  0
LINE
  5
10B6D
  8
MSM_CONTINUOUS
 10
140.30000000000001
 20
45.000000000002373
 30
0.0
 11
140.30000000000001
 21
60.00000000000238
 31
0.0
  0
LINE
  5
10B6E
  8
MSM_CONTINUOUS
 10
176.69999999999999
 20
45.00000000000243
 30
0.0
 11
140.30000000000001
 21
45.000000000002373
 31
0.0
  0
LINE
  5
10B6F
  8
MSM_CONTINUOUS
 10
176.69999999999999
 20
45.00000000000243
 30
0.0
 11
176.69999999999999
 21
60.000000000002309
 31
0.0
  0
LINE
  5
10B70
  8
MSM_CONTINUOUS
 10
165.0
 20
87.500000000002373
 30
0.0
 11
176.69999999999999
 21
87.500000000002373
 31
0.0
  0
LINE
  5
10B71
  8
MSM_CONTINUOUS
 10
176.69999999999999
 20
17.50000000000237
 30
0.0
 11
165.0
 21
17.50000000000237
 31
0.0
  0
LINE
  5
10B72
  8
MSM_CENTER
 10
171.0
 20
89.500000000002373
 30
0.0
 11
171.0
 21
58.000000000002309
 31
0.0
  0
LINE
  5
10B73
  8
MSM_CENTER
 10
138.0
 20
52.50000000000238
 30
0.0
 11
179.0
 21
52.50000000000238
 31
0.0
  0
LINE
  5
10B74
  8
MSM_CONTINUOUS
 10
140.0
 20
89.375000000002373
 30
0.0
 11
165.0
 21
89.375000000002373
 31
0.0
  0
LINE
  5
10B75
  8
MSM_CONTINUOUS
 10
140.0
 20
15.625000000002361
 30
0.0
 11
165.0
 21
15.625000000002361
 31
0.0
  0
LINE
  5
10B76
  8
MSM_CENTER
 10
138.0
 20
92.500000000002373
 30
0.0
 11
167.0
 21
92.500000000002373
 31
0.0
  0
LINE
  5
10B77
  8
MSM_CENTER
 10
138.0
 20
12.500000000002361
 30
0.0
 11
167.0
 21
12.500000000002361
 31
0.0
  0
ENDSEC
  0
EOF
