  0
SECTION
  2
HEADER
  9
$ACADVER
  1
AC1009
  9
$INSBASE
 10
0.0
 20
0.0
 30
0.0
  9
$EXTMIN
 10
154.01091758748251
 20
104.4611185430184
 30
0.0
  9
$EXTMAX
 10
225.57193094669819
 20
218.0497034012117
 30
0.0
  9
$LIMMIN
 10
0.0
 20
0.0
  9
$LIMMAX
 10
420.0
 20
297.0
  9
$ORTHOMODE
 70
     0
  9
$REGENMODE
 70
     1
  9
$FILLMODE
 70
     1
  9
$QTEXTMODE
 70
     0
  9
$MIRRTEXT
 70
     1
  9
$DRAGMODE
 70
     2
  9
$LTSCALE
 40
1.0
  9
$OSMODE
 70
   695
  9
$ATTMODE
 70
     1
  9
$TEXTSIZE
 40
4.812586617015878
  9
$TRACEWID
 40
1.0
  9
$TEXTSTYLE
  7
STANDARD
  9
$CLAYER
  8
0
  9
$CELTYPE
  6
BYLAYER
  9
$CECOLOR
 62
   256
  9
$DIMSCALE
 40
1.0
  9
$DIMASZ
 40
3.0
  9
$DIMEXO
 40
1.0
  9
$DIMDLI
 40
0.0
  9
$DIMRND
 40
0.0
  9
$DIMDLE
 40
0.0
  9
$DIMEXE
 40
1.0
  9
$DIMTP
 40
0.0
  9
$DIMTM
 40
0.0
  9
$DIMTXT
 40
3.2000000000000002
  9
$DIMCEN
 40
0.0
  9
$DIMTSZ
 40
0.0
  9
$DIMTOL
 70
     0
  9
$DIMLIM
 70
     0
  9
$DIMTIH
 70
     0
  9
$DIMTOH
 70
     0
  9
$DIMSE1
 70
     0
  9
$DIMSE2
 70
     0
  9
$DIMTAD
 70
     1
  9
$DIMZIN
 70
     8
  9
$DIMBLK
  1

  9
$DIMASO
 70
     1
  9
$DIMSHO
 70
     1
  9
$DIMPOST
  1

  9
$DIMAPOST
  1

  9
$DIMALT
 70
     0
  9
$DIMALTD
 70
     2
  9
$DIMALTF
 40
0.04
  9
$DIMLFAC
 40
1.0
  9
$DIMTOFL
 70
     1
  9
$DIMTVP
 40
1.0
  9
$DIMTIX
 70
     1
  9
$DIMSOXD
 70
     0
  9
$DIMSAH
 70
     0
  9
$DIMBLK1
  1

  9
$DIMBLK2
  1

  9
$DIMSTYLE
  2
MISUMI
  9
$DIMCLRD
 70
     0
  9
$DIMCLRE
 70
     0
  9
$DIMCLRT
 70
     0
  9
$DIMTFAC
 40
0.6
  9
$DIMGAP
 40
1.0
  9
$LUNITS
 70
     2
  9
$LUPREC
 70
     2
  9
$SKETCHINC
 40
1.0
  9
$FILLETRAD
 40
0.0
  9
$AUNITS
 70
     0
  9
$AUPREC
 70
     0
  9
$MENU
  1
.
  9
$ELEVATION
 40
0.0
  9
$PELEVATION
 40
0.0
  9
$THICKNESS
 40
0.0
  9
$LIMCHECK
 70
     0
  9
$BLIPMODE
 70
     0
  9
$CHAMFERA
 40
2.5
  9
$CHAMFERB
 40
2.5
  9
$SKPOLY
 70
     0
  9
$TDCREATE
 40
2452374.6492932518
  9
$TDUPDATE
 40
2454748.7315027318
  9
$TDINDWG
 40
0.0382246412
  9
$TDUSRTIMER
 40
0.0382221065
  9
$USRTIMER
 70
     1
  9
$ANGBASE
 50
0.0
  9
$ANGDIR
 70
     0
  9
$PDMODE
 70
     0
  9
$PDSIZE
 40
0.0
  9
$PLINEWID
 40
0.0
  9
$COORDS
 70
     1
  9
$SPLFRAME
 70
     0
  9
$SPLINETYPE
 70
     6
  9
$SPLINESEGS
 70
     8
  9
$ATTDIA
 70
     0
  9
$ATTREQ
 70
     1
  9
$HANDLING
 70
     1
  9
$HANDSEED
  5
11FA
  9
$SURFTAB1
 70
     6
  9
$SURFTAB2
 70
     6
  9
$SURFTYPE
 70
     6
  9
$SURFU
 70
     6
  9
$SURFV
 70
     6
  9
$UCSNAME
  2

  9
$UCSORG
 10
0.0
 20
0.0
 30
0.0
  9
$UCSXDIR
 10
1.0
 20
0.0
 30
0.0
  9
$UCSYDIR
 10
0.0
 20
1.0
 30
0.0
  9
$PUCSNAME
  2

  9
$PUCSORG
 10
0.0
 20
0.0
 30
0.0
  9
$PUCSXDIR
 10
1.0
 20
0.0
 30
0.0
  9
$PUCSYDIR
 10
0.0
 20
1.0
 30
0.0
  9
$USERI1
 70
     0
  9
$USERI2
 70
     0
  9
$USERI3
 70
     0
  9
$USERI4
 70
     0
  9
$USERI5
 70
     0
  9
$USERR1
 40
0.0
  9
$USERR2
 40
0.0
  9
$USERR3
 40
0.0
  9
$USERR4
 40
0.0
  9
$USERR5
 40
0.0
  9
$WORLDVIEW
 70
     1
  9
$SHADEDGE
 70
     3
  9
$SHADEDIF
 70
    70
  9
$TILEMODE
 70
     1
  9
$MAXACTVP
 70
    64
  9
$PLIMCHECK
 70
     0
  9
$PEXTMIN
 10
1.0000000000000000E+020
 20
1.0000000000000000E+020
 30
1.0000000000000000E+020
  9
$PEXTMAX
 10
-1.0000000000000000E+020
 20
-1.0000000000000000E+020
 30
-1.0000000000000000E+020
  9
$PLIMMIN
 10
0.0
 20
0.0
  9
$PLIMMAX
 10
420.0
 20
297.0
  9
$UNITMODE
 70
     0
  9
$VISRETAIN
 70
     1
  9
$PLINEGEN
 70
     0
  9
$PSLTSCALE
 70
     0
  0
ENDSEC
  0
SECTION
  2
TABLES
  0
TABLE
  2
VPORT
 70
     1
  0
VPORT
  2
*ACTIVE
 70
     0
 10
0.0
 20
0.0
 11
1.0
 21
1.0
 12
189.78057956763141
 22
161.7148994960431
 13
0.0
 23
0.0
 14
2.5
 24
2.5
 15
10.0
 25
10.0
 16
0.0
 26
0.0
 36
1.0
 17
0.0
 27
0.0
 37
0.0
 40
115.3780821927846
 41
1.4930467762326161
 42
50.0
 43
0.0
 44
0.0
 50
0.0
 51
0.0
 71
     0
 72
   100
 73
     1
 74
     3
 75
     0
 76
     0
 77
     0
 78
     0
  0
ENDTAB
  0
TABLE
  2
LTYPE
 70
     2
  0
LTYPE
  2
CONTINUOUS
 70
     0
  3
Solid line
 72
    65
 73
     0
 40
0.0
  0
LTYPE
  2
CENTER
 70
     0
  3
Center ____ _ ____ _ ____ _ ____ _ ____ _ ____
 72
    65
 73
     4
 40
2.0
 49
1.25
 49
-0.25
 49
0.25
 49
-0.25
  0
ENDTAB
  0
TABLE
  2
LAYER
 70
     3
  0
LAYER
  2
0
 70
     0
 62
     7
  6
CONTINUOUS
  0
LAYER
  2
CENTER
 70
     0
 62
     1
  6
CENTER
  0
ENDTAB
  0
TABLE
  2
STYLE
 70
     1
  0
STYLE
  2
STANDARD
 70
     0
 40
0.0
 41
1.0
 50
0.0
 71
     0
 42
4.812586617015878
  3
txt.shx
  4

  0
ENDTAB
  0
TABLE
  2
VIEW
 70
     0
  0
ENDTAB
  0
TABLE
  2
UCS
 70
     0
  0
ENDTAB
  0
TABLE
  2
APPID
 70
    12
  0
APPID
  2
ACAD
 70
     0
  0
APPID
  2
MCAD_NO_VIS
 70
     0
  0
APPID
  2
ACAD_TEMP_GRAPHIC
 70
     0
  0
APPID
  2
AD_DRAW
 70
     0
  0
APPID
  2
ACATTRIBSERVICES
 70
     0
  0
APPID
  2
ASURF_PCURVE_APPNAME
 70
     0
  0
APPID
  2
GENIUS_GENDIM_13
 70
     0
  0
APPID
  2
GENIUS_GENDTOL_13
 70
     0
  0
APPID
  2
GENIUS_GE3DTOL_13
 70
     0
  0
APPID
  2
DESIGNERASSEMBLIES
 70
     0
  0
APPID
  2
ACADM_DIM_EDIT
 70
     0
  0
APPID
  2
G3V_ENTHND
 70
     0
  0
ENDTAB
  0
TABLE
  2
DIMSTYLE
 70
     1
  0
DIMSTYLE
  2
MISUMI
 70
     0
  3

  4

  5

  6

  7

 40
1.0
 41
3.0
 42
1.0
 43
0.0
 44
1.0
 45
0.0
 46
0.0
 47
0.0
 48
0.0
140
3.2000000000000002
141
0.0
142
0.0
143
0.04
144
1.0
145
1.0
146
0.6
147
1.0
 71
     0
 72
     0
 73
     0
 74
     0
 75
     0
 76
     0
 77
     1
 78
     8
170
     0
171
     2
172
     1
173
     0
174
     1
175
     0
176
     0
177
     0
178
     0
  0
ENDTAB
  0
ENDSEC
  0
SECTION
  2
BLOCKS
  0
BLOCK
  8
0
  2
$MODEL_SPACE
 70
     0
 10
0.0
 20
0.0
 30
0.0
  3
$MODEL_SPACE
  1

  0
ENDBLK
  5
11CC
  8
0
  0
BLOCK
 67
     1
  8
0
  2
$PAPER_SPACE
 70
     0
 10
0.0
 20
0.0
 30
0.0
  3
$PAPER_SPACE
  1

  0
ENDBLK
  5
11C8
 67
     1
  8
0
  0
ENDSEC
  0
SECTION
  2
ENTITIES
  0
TEXT
  5
180
  8
0
  6
CONTINUOUS
 62
     7
 10
154.01091758748251
 20
113.6050331153486
 30
0.0
 40
4.812586617015878
  1
FTMRA100
  0
TEXT
  5
181
  8
0
  6
CONTINUOUS
 62
     7
 10
154.01091758748251
 20
104.4611185430184
 30
0.0
 40
4.812586617015878
  1
FTMRA100
  0
LINE
  5
10E5
  8
CENTER
  6
CENTER
 62
     1
 10
206.5719309466981
 20
166.54970340121179
 30
0.0
 11
225.57193094669819
 21
166.54970340121179
 31
0.0
  0
LINE
  5
10E6
  8
CENTER
  6
CENTER
 62
     1
 10
216.0719309466981
 20
218.0497034012117
 30
0.0
 11
216.0719309466981
 21
115.0497034012118
 31
0.0
  0
LINE
  5
10E9
  8
0
  6
CONTINUOUS
 62
     7
 10
208.07193094669819
 20
216.5497034012119
 30
0.0
 11
224.07193094669819
 21
216.5497034012119
 31
0.0
  0
LINE
  5
10EB
  8
0
  6
CONTINUOUS
 62
     7
 10
218.18669387010641
 20
175.21637006787839
 30
0.0
 11
220.0719309466981
 21
175.21637006787839
 31
0.0
  0
LINE
  5
10EC
  8
0
  6
CONTINUOUS
 62
     7
 10
212.0719309466981
 20
175.21637006787839
 30
0.0
 11
213.9571680232898
 21
175.21637006787839
 31
0.0
  0
LINE
  5
10ED
  8
0
  6
CONTINUOUS
 62
     7
 10
218.18669387010641
 20
177.8830367345451
 30
0.0
 11
220.0719309466981
 21
177.8830367345451
 31
0.0
  0
LINE
  5
10EE
  8
0
  6
CONTINUOUS
 62
     7
 10
212.0719309466981
 20
177.8830367345451
 30
0.0
 11
213.9571680232898
 21
177.8830367345451
 31
0.0
  0
LINE
  5
10EF
  8
0
  6
CONTINUOUS
 62
     7
 10
212.0719309466981
 20
172.54970340121179
 30
0.0
 11
220.0719309466981
 21
172.54970340121179
 31
0.0
  0
LINE
  5
10F0
  8
0
  6
CONTINUOUS
 62
     7
 10
212.0719309466981
 20
180.5497034012117
 30
0.0
 11
220.0719309466981
 21
180.5497034012117
 31
0.0
  0
LINE
  5
10F1
  8
0
  6
CONTINUOUS
 62
     7
 10
211.0719309466981
 20
181.94970340121171
 30
0.0
 11
212.0719309466981
 21
181.94970340121171
 31
0.0
  0
LINE
  5
10F2
  8
0
  6
CONTINUOUS
 62
     7
 10
211.0719309466981
 20
181.94970340121171
 30
0.0
 11
211.07193094669799
 21
151.14970340121181
 31
0.0
  0
LINE
  5
10F3
  8
0
  6
CONTINUOUS
 62
     7
 10
220.0719309466981
 20
180.5497034012117
 30
0.0
 11
220.07193094669799
 21
152.54970340121179
 31
0.0
  0
LINE
  5
10F4
  8
0
  6
CONTINUOUS
 62
     7
 10
208.07193094669819
 20
180.5497034012117
 30
0.0
 11
211.0719309466981
 21
180.5497034012117
 31
0.0
  0
LINE
  5
10F5
  8
0
  6
CONTINUOUS
 62
     7
 10
212.07193094669799
 20
151.14970340121181
 30
0.0
 11
212.0719309466981
 21
181.94970340121171
 31
0.0
  0
LINE
  5
10FB
  8
0
  6
CONTINUOUS
 62
     7
 10
220.0719309466981
 20
179.04970340121179
 30
0.0
 11
224.07193094669819
 21
179.04970340121179
 31
0.0
  0
LINE
  5
10FC
  8
0
  6
CONTINUOUS
 62
     7
 10
224.07193094669819
 20
216.5497034012119
 30
0.0
 11
224.07193094669819
 21
116.5497034012118
 31
0.0
  0
LINE
  5
10FD
  8
0
  6
CONTINUOUS
 62
     7
 10
208.07193094669819
 20
116.5497034012118
 30
0.0
 11
208.07193094669819
 21
216.5497034012119
 31
0.0
  0
LINE
  5
1110
  8
CENTER
  6
CENTER
 62
     1
 10
210.5719309466981
 20
176.54970340121179
 30
0.0
 11
221.5719309466981
 21
176.54970340121179
 31
0.0
  0
CIRCLE
  5
1111
  8
0
  6
CONTINUOUS
 62
     7
 10
216.0719309466981
 20
176.54970340121179
 30
0.0
 40
2.5
  0
LINE
  5
1113
  8
0
  6
CONTINUOUS
 62
     7
 10
211.0719309466981
 20
179.03318849438179
 30
0.0
 11
212.0719309466981
 21
179.03318849438179
 31
0.0
  0
LINE
  5
1117
  8
0
  6
CONTINUOUS
 62
     7
 10
211.0719309466981
 20
154.06621830804181
 30
0.0
 11
212.0719309466981
 21
154.06621830804181
 31
0.0
  0
CIRCLE
  5
1118
  8
0
  6
CONTINUOUS
 62
     7
 10
216.0719309466981
 20
156.54970340121179
 30
0.0
 40
2.5
  0
LINE
  5
1119
  8
CENTER
  6
CENTER
 62
     1
 10
210.5719309466981
 20
156.54970340121179
 30
0.0
 11
221.5719309466981
 21
156.54970340121179
 31
0.0
  0
LINE
  5
111A
  8
0
  6
CONTINUOUS
 62
     7
 10
220.0719309466981
 20
154.04970340121179
 30
0.0
 11
224.07193094669819
 21
154.04970340121179
 31
0.0
  0
LINE
  5
111C
  8
0
  6
CONTINUOUS
 62
     7
 10
208.07193094669819
 20
152.54970340121179
 30
0.0
 11
211.0719309466981
 21
152.54970340121179
 31
0.0
  0
LINE
  5
111F
  8
0
  6
CONTINUOUS
 62
     7
 10
211.0719309466981
 20
151.14970340121181
 30
0.0
 11
212.0719309466981
 21
151.14970340121181
 31
0.0
  0
LINE
  5
1120
  8
0
  6
CONTINUOUS
 62
     7
 10
212.0719309466981
 20
152.54970340121179
 30
0.0
 11
220.0719309466981
 21
152.54970340121179
 31
0.0
  0
LINE
  5
1121
  8
0
  6
CONTINUOUS
 62
     7
 10
212.0719309466981
 20
160.54970340121179
 30
0.0
 11
220.0719309466981
 21
160.54970340121179
 31
0.0
  0
LINE
  5
1122
  8
0
  6
CONTINUOUS
 62
     7
 10
212.0719309466981
 20
155.2163700678785
 30
0.0
 11
213.9571680232898
 21
155.2163700678785
 31
0.0
  0
LINE
  5
1123
  8
0
  6
CONTINUOUS
 62
     7
 10
218.18669387010641
 20
155.2163700678785
 30
0.0
 11
220.0719309466981
 21
155.2163700678785
 31
0.0
  0
LINE
  5
1124
  8
0
  6
CONTINUOUS
 62
     7
 10
212.0719309466981
 20
157.8830367345451
 30
0.0
 11
213.9571680232898
 21
157.8830367345451
 31
0.0
  0
LINE
  5
1125
  8
0
  6
CONTINUOUS
 62
     7
 10
218.18669387010641
 20
157.8830367345451
 30
0.0
 11
220.0719309466981
 21
157.8830367345451
 31
0.0
  0
LINE
  5
1126
  8
CENTER
  6
CENTER
 62
     1
 10
206.5719309466981
 20
166.54970340121179
 30
0.0
 11
225.57193094669819
 21
166.54970340121179
 31
0.0
  0
LINE
  5
1127
  8
0
  6
CONTINUOUS
 62
     7
 10
208.0719309466983
 20
116.5497034012118
 30
0.0
 11
224.0719309466983
 21
116.5497034012118
 31
0.0
  0
ENDSEC
  0
EOF
