  0
SECTION
  2
HEADER
  9
$ACADVER
  1
AC1009
  9
$INSBASE
 10
0.0
 20
0.0
 30
0.0
  9
$EXTMIN
 10
-64.507302582451416
 20
-111.9000530352143
 30
-0.000000000000013
  9
$EXTMAX
 10
302.0231312691858
 20
174.5071758844708
 30
0.0000000000000023
  9
$LIMMIN
 10
0.0
 20
0.0
  9
$LIMMAX
 10
420.0
 20
297.0
  9
$ORTHOMODE
 70
     0
  9
$REGENMODE
 70
     1
  9
$FILLMODE
 70
     1
  9
$QTEXTMODE
 70
     0
  9
$MIRRTEXT
 70
     0
  9
$DRAGMODE
 70
     2
  9
$LTSCALE
 40
1.0
  9
$OSMODE
 70
    55
  9
$ATTMODE
 70
     1
  9
$TEXTSIZE
 40
3.0
  9
$TRACEWID
 40
1.0
  9
$TEXTSTYLE
  7
STANDARD
  9
$CLAYER
  8
0
  9
$CELTYPE
  6
CONTINUOUS
  9
$CECOLOR
 62
     7
  9
$DIMSCALE
 40
1.0
  9
$DIMASZ
 40
2.5
  9
$DIMEXO
 40
0.625
  9
$DIMDLI
 40
3.75
  9
$DIMRND
 40
0.0
  9
$DIMDLE
 40
0.0
  9
$DIMEXE
 40
1.25
  9
$DIMTP
 40
0.0
  9
$DIMTM
 40
0.0
  9
$DIMTXT
 40
2.5
  9
$DIMCEN
 40
2.5
  9
$DIMTSZ
 40
0.0
  9
$DIMTOL
 70
     0
  9
$DIMLIM
 70
     0
  9
$DIMTIH
 70
     0
  9
$DIMTOH
 70
     0
  9
$DIMSE1
 70
     0
  9
$DIMSE2
 70
     0
  9
$DIMTAD
 70
     1
  9
$DIMZIN
 70
     8
  9
$DIMBLK
  1
OPEN30
  9
$DIMASO
 70
     1
  9
$DIMSHO
 70
     1
  9
$DIMPOST
  1

  9
$DIMAPOST
  1

  9
$DIMALT
 70
     0
  9
$DIMALTD
 70
     3
  9
$DIMALTF
 40
0.03937007874016
  9
$DIMLFAC
 40
1.0
  9
$DIMTOFL
 70
     1
  9
$DIMTVP
 40
0.0
  9
$DIMTIX
 70
     0
  9
$DIMSOXD
 70
     0
  9
$DIMSAH
 70
     0
  9
$DIMBLK1
  1

  9
$DIMBLK2
  1

  9
$DIMSTYLE
  2
MISUMI
  9
$DIMCLRD
 70
   137
  9
$DIMCLRE
 70
   137
  9
$DIMCLRT
 70
   137
  9
$DIMTFAC
 40
1.0
  9
$DIMGAP
 40
0.625
  9
$LUNITS
 70
     2
  9
$LUPREC
 70
     2
  9
$SKETCHINC
 40
1.0
  9
$FILLETRAD
 40
0.0
  9
$AUNITS
 70
     0
  9
$AUPREC
 70
     0
  9
$MENU
  1
.
  9
$ELEVATION
 40
0.0
  9
$PELEVATION
 40
0.0
  9
$THICKNESS
 40
0.0
  9
$LIMCHECK
 70
     0
  9
$BLIPMODE
 70
     0
  9
$CHAMFERA
 40
0.5
  9
$CHAMFERB
 40
0.5
  9
$SKPOLY
 70
     0
  9
$TDCREATE
 40
2455135.5720697101
  9
$TDUPDATE
 40
2455590.5899204281
  9
$TDINDWG
 40
0.0873163889
  9
$TDUSRTIMER
 40
0.0873162037
  9
$USRTIMER
 70
     1
  9
$ANGBASE
 50
0.0
  9
$ANGDIR
 70
     0
  9
$PDMODE
 70
    35
  9
$PDSIZE
 40
0.0
  9
$PLINEWID
 40
0.0
  9
$COORDS
 70
     1
  9
$SPLFRAME
 70
     0
  9
$SPLINETYPE
 70
     6
  9
$SPLINESEGS
 70
     8
  9
$ATTDIA
 70
     0
  9
$ATTREQ
 70
     1
  9
$HANDLING
 70
 22529
  9
$HANDSEED
  5
12EF
  9
$SURFTAB1
 70
     6
  9
$SURFTAB2
 70
     6
  9
$SURFTYPE
 70
     6
  9
$SURFU
 70
     6
  9
$SURFV
 70
     6
  9
$UCSNAME
  2

  9
$UCSORG
 10
0.0
 20
0.0
 30
0.0
  9
$UCSXDIR
 10
1.0
 20
0.0
 30
0.0
  9
$UCSYDIR
 10
0.0
 20
1.0
 30
0.0
  9
$PUCSNAME
  2

  9
$PUCSORG
 10
0.0
 20
0.0
 30
0.0
  9
$PUCSXDIR
 10
1.0
 20
0.0
 30
0.0
  9
$PUCSYDIR
 10
0.0
 20
1.0
 30
0.0
  9
$USERI1
 70
     0
  9
$USERI2
 70
     0
  9
$USERI3
 70
     0
  9
$USERI4
 70
     0
  9
$USERI5
 70
     0
  9
$USERR1
 40
0.0
  9
$USERR2
 40
0.0
  9
$USERR3
 40
0.0
  9
$USERR4
 40
0.0
  9
$USERR5
 40
0.0
  9
$WORLDVIEW
 70
     1
  9
$SHADEDGE
 70
     3
  9
$SHADEDIF
 70
    70
  9
$TILEMODE
 70
     1
  9
$MAXACTVP
 70
    64
  9
$PLIMCHECK
 70
     0
  9
$PEXTMIN
 10
0.0
 20
0.0
 30
0.0
  9
$PEXTMAX
 10
0.0
 20
0.0
 30
0.0
  9
$PLIMMIN
 10
0.0
 20
0.0
  9
$PLIMMAX
 10
12.0
 20
9.0
  9
$UNITMODE
 70
     0
  9
$VISRETAIN
 70
     1
  9
$PLINEGEN
 70
     0
  9
$PSLTSCALE
 70
     1
  0
ENDSEC
  0
SECTION
  2
TABLES
  0
TABLE
  2
VPORT
 70
     3
  0
VPORT
  2
*ACTIVE
 70
     0
 10
0.0
 20
0.0
 11
1.0
 21
1.0
 12
118.7579143433671
 22
31.303561424628249
 13
0.0
 23
0.0
 14
10.0
 24
10.0
 15
10.0
 25
10.0
 16
0.0
 26
0.0
 36
1.0
 17
0.0
 27
0.0
 37
0.0
 40
342.56027858328571
 41
1.0774032459425711
 42
50.0
 43
0.0
 44
0.0
 50
0.0
 51
0.0
 71
     0
 72
  1000
 73
     1
 74
     3
 75
     0
 76
     0
 77
     0
 78
     0
  0
ENDTAB
  0
TABLE
  2
LTYPE
 70
     4
  0
LTYPE
  2
CONTINUOUS
 70
     0
  3
Solid line
 72
    65
 73
     0
 40
0.0
  0
LTYPE
  2
CENTER
 70
     0
  3
Center ____ _ ____ _ ____ _ ____ _ ____ _ ____
 72
    65
 73
     4
 40
50.799999999999997
 49
31.75
 49
-6.3499999999999988
 49
6.3499999999999988
 49
-6.3499999999999988
  0
LTYPE
  2
DASHED
 70
     0
  3
Dashed __ __ __ __ __ __ __ __ __ __ __ __ __ _
 72
    65
 73
     2
 40
19.04999999999999
 49
12.699999999999999
 49
-6.3499999999999988
  0
ENDTAB
  0
TABLE
  2
LAYER
 70
     3
  0
LAYER
  2
0
 70
     0
 62
     7
  6
CONTINUOUS
  0
LAYER
  2
CENTER
 70
     0
 62
     1
  6
CENTER
  0
LAYER
  2
DEFPOINTS
 70
     0
 62
     7
  6
CONTINUOUS
  0
ENDTAB
  0
TABLE
  2
STYLE
 70
     1
  0
STYLE
  2
STANDARD
 70
     0
 40
3.0
 41
1.0
 50
0.0
 71
     0
 42
3.0
  3
txt.shx
  4
bigfont.shx
  0
ENDTAB
  0
TABLE
  2
VIEW
 70
     0
  0
ENDTAB
  0
TABLE
  2
UCS
 70
     0
  0
ENDTAB
  0
TABLE
  2
APPID
 70
     2
  0
APPID
  2
ACAD
 70
     0
  0
APPID
  2
ACAD_MLEADERVER
 70
     0
  0
ENDTAB
  0
TABLE
  2
DIMSTYLE
 70
     1
  0
DIMSTYLE
  2
MISUMI
 70
     0
  3

  4

  5
OPEN30
  6

  7

 40
1.0
 41
2.5
 42
0.625
 43
3.75
 44
1.25
 45
0.0
 46
0.0
 47
0.0
 48
0.0
140
2.5
141
2.5
142
0.0
143
0.03937007874016
144
1.0
145
0.0
146
1.0
147
0.625
 71
     0
 72
     0
 73
     0
 74
     0
 75
     0
 76
     0
 77
     1
 78
     8
170
     0
171
     3
172
     1
173
     0
174
     0
175
     0
176
   137
177
   137
178
   137
  0
ENDTAB
  0
ENDSEC
  0
SECTION
  2
BLOCKS
  0
BLOCK
  8
0
  2
$MODEL_SPACE
 70
     0
 10
0.0
 20
0.0
 30
0.0
  3
$MODEL_SPACE
  1

  0
ENDBLK
  5
21
  8
0
  0
BLOCK
 67
     1
  8
0
  2
$PAPER_SPACE
 70
     0
 10
0.0
 20
0.0
 30
0.0
  3
$PAPER_SPACE
  1

  0
ENDBLK
  5
53
 67
     1
  8
0
  0
BLOCK
  8
0
 62
     7
  2
_OPEN30
 70
     0
 10
0.0
 20
0.0
 30
0.0
  3
_OPEN30
  1

  0
LINE
  5
D7
  8
0
  6
BYBLOCK
 62
     0
 10
-1.0
 20
0.26794919
 30
0.0
 11
0.0
 21
0.0
 31
0.0
  0
LINE
  5
D8
  8
0
  6
BYBLOCK
 62
     0
 10
0.0
 20
0.0
 30
0.0
 11
-1.0
 21
-0.26794919
 31
0.0
  0
LINE
  5
D9
  8
0
  6
BYBLOCK
 62
     0
 10
0.0
 20
0.0
 30
0.0
 11
-1.0
 21
0.0
 31
0.0
  0
ENDBLK
  5
DB
  8
0
 62
     7
  0
ENDSEC
  0
SECTION
  2
ENTITIES
  0
TEXT
  5
D39
  8
0
  6
CONTINUOUS
 62
     7
 10
-57.027983473010302
 20
-99.314849266537408
 30
0.0
 40
3.0
  1
SNLEP3S-300
  0
TEXT
  5
D3A
  8
0
  6
CONTINUOUS
 62
     7
 10
-57.027983473010302
 20
-111.87510499080641
 30
0.0
 40
3.0
  1
SNLEP03S
  0
LINE
  5
1079
  8
0
  6
CONTINUOUS
 62
     7
 10
45.499999999999773
 20
0.0
 30
0.0
 11
-45.499999999999993
 21
0.0
 31
0.0
  0
LINE
  5
1083
  8
CENTER
  6
CENTER
 62
     1
 10
0.0000000000000031
 20
-2.0
 30
0.0
 11
-0.0000000000002304
 21
150.14999999999961
 31
0.0
  0
LINE
  5
1086
  8
CENTER
  6
CENTER
 62
     1
 10
89.0
 20
69.849999999999682
 30
0.0
 11
89.0
 21
150.14999999999949
 31
0.0
  0
ARC
  5
1088
  8
0
  6
CONTINUOUS
 62
     7
 10
89.0
 20
20.999999999999648
 30
0.0
 40
127.14999999999991
 50
90.0
 51
180.0
  0
ARC
  5
1089
  8
0
  6
DASHED
 62
     3
 10
89.0
 20
20.999999999999648
 30
0.0
 40
125.14999999999991
 50
90.0
 51
180.0
  0
LINE
  5
108A
  8
CENTER
  6
CENTER
 62
     1
 10
301.99999999999972
 20
109.9999999999994
 30
0.0
 11
-40.150000000000091
 21
109.9999999999997
 31
0.0
  0
ARC
  5
108B
  8
0
  6
DASHED
 62
     3
 10
89.0
 20
20.999999999999648
 30
0.0
 40
52.850000000000144
 50
90.0
 51
180.0
  0
ARC
  5
108C
  8
0
  6
CONTINUOUS
 62
     7
 10
89.0
 20
20.999999999999648
 30
0.0
 40
50.850000000000151
 50
90.0
 51
180.0
  0
LINE
  5
1094
  8
0
  6
CONTINUOUS
 62
     7
 10
89.0
 20
148.14999999999949
 30
0.0
 11
299.99999999999972
 21
148.14999999999949
 31
0.0
  0
LINE
  5
1095
  8
0
  6
DASHED
 62
     3
 10
89.000000000000014
 20
146.14999999999949
 30
0.0
 11
299.99999999999972
 21
146.14999999999949
 31
0.0
  0
LINE
  5
1096
  8
0
  6
DASHED
 62
     3
 10
89.0
 20
73.849999999999795
 30
0.0
 11
299.99999999999972
 21
73.849999999999795
 31
0.0
  0
LINE
  5
1097
  8
0
  6
CONTINUOUS
 62
     7
 10
89.0
 20
71.849999999999682
 30
0.0
 11
299.99999999999972
 21
71.849999999999682
 31
0.0
  0
LINE
  5
1098
  8
0
  6
CONTINUOUS
 62
     7
 10
299.99999999999972
 20
148.14999999999949
 30
0.0
 11
299.99999999999972
 21
71.849999999999682
 31
0.0
  0
LINE
  5
1256
  8
0
  6
DASHED
 62
     3
 10
-41.749999999999993
 20
1.599999999999911
 30
0.0
 11
41.749999999999993
 21
1.5999999999999059
 31
0.0
  0
LINE
  5
1257
  8
0
  6
CONTINUOUS
 62
     7
 10
45.499999999999993
 20
2.8500000000000201
 30
0.0
 11
-45.499999999999993
 21
2.850000000000025
 31
0.0
  0
LINE
  5
125A
  8
0
  6
DASHED
 62
     3
 10
36.150000000000027
 20
-0.0000000000000022
 30
0.0
 11
36.150000000000027
 21
20.999999999999989
 31
0.0
  0
ARC
  5
125B
  8
0
  6
CONTINUOUS
 62
     7
 10
40.150000000000027
 20
6.9255962982759884
 30
0.0
 40
2.0
 50
180.0
 51
250.0000000000004
  0
ARC
  5
125C
  8
0
  6
DASHED
 62
     3
 10
43.709591794226583
 20
0.7999999999999519
 30
0.0
 40
0.8
 50
191.53695903281491
 51
269.99999999999829
  0
LINE
  5
125D
  8
0
  6
CONTINUOUS
 62
     7
 10
45.499999999999993
 20
2.8500000000000201
 30
0.0
 11
39.465959713348688
 21
5.0462110567041201
 31
0.0
  0
LINE
  5
125E
  8
0
  6
CONTINUOUS
 62
     7
 10
45.499999999999993
 20
2.8500000000000201
 30
0.0
 11
45.499999999999993
 21
-0.0000000000000028
 31
0.0
  0
LINE
  5
125F
  8
CENTER
  6
CENTER
 62
     1
 10
41.749999999999993
 20
-2.0000000000000022
 30
0.0
 11
41.749999999999993
 21
3.6000000000000201
 31
0.0
  0
ARC
  5
1260
  8
0
  6
DASHED
 62
     3
 10
39.790408205773467
 20
0.7999999999999521
 30
0.0
 40
0.8
 50
270.0
 51
348.46304096718501
  0
ARC
  5
1261
  8
0
  6
DASHED
 62
     3
 10
41.749999999999993
 20
0.3999999999999747
 30
0.0
 40
1.1999999999999991
 50
11.536959032814909
 51
168.46304096718501
  0
LINE
  5
1262
  8
0
  6
CONTINUOUS
 62
     7
 10
38.150000000000027
 20
6.9255962982759884
 30
0.0
 11
38.150000000000027
 21
20.999999999999989
 31
0.0
  0
LINE
  5
1263
  8
0
  6
DASHED
 62
     3
 10
-36.14999999999997
 20
0.0000000000000022
 30
0.0
 11
-36.14999999999997
 21
21.0
 31
0.0
  0
ARC
  5
1265
  8
0
  6
CONTINUOUS
 62
     7
 10
-40.14999999999997
 20
6.9255962982759929
 30
0.0
 40
2.0
 50
289.99999999999949
 51
0.0
  0
ARC
  5
1266
  8
0
  6
DASHED
 62
     3
 10
-43.709591794226519
 20
0.7999999999999572
 30
0.0
 40
0.8
 50
270.0
 51
348.46304096718501
  0
LINE
  5
1267
  8
0
  6
CONTINUOUS
 62
     7
 10
-45.499999999999993
 20
2.850000000000025
 30
0.0
 11
-39.465959713348632
 21
5.0462110567041263
 31
0.0
  0
LINE
  5
1268
  8
CENTER
  6
CENTER
 62
     1
 10
-41.749999999999993
 20
-1.9999999999999969
 30
0.0
 11
-41.749999999999993
 21
3.600000000000025
 31
0.0
  0
ARC
  5
1269
  8
0
  6
DASHED
 62
     3
 10
-39.790408205773467
 20
0.7999999999999571
 30
0.0
 40
0.8
 50
191.53695903281491
 51
270.0
  0
ARC
  5
126A
  8
0
  6
DASHED
 62
     3
 10
-41.749999999999993
 20
0.3999999999999798
 30
0.0
 40
1.1999999999999991
 50
11.536959032814909
 51
168.46304096718501
  0
LINE
  5
126B
  8
0
  6
CONTINUOUS
 62
     7
 10
-45.499999999999993
 20
2.850000000000025
 30
0.0
 11
-45.499999999999993
 21
0.0000000000000028
 31
0.0
  0
LINE
  5
126C
  8
0
  6
CONTINUOUS
 62
     7
 10
-38.14999999999997
 20
6.9255962982759929
 30
0.0
 11
-38.14999999999997
 21
21.0
 31
0.0
  0
ENDSEC
  0
EOF
