  0
SECTION
  2
HEADER
  9
$ACADVER
  1
AC1009
  9
$INSBASE
 10
0.0
 20
0.0
 30
0.0
  9
$EXTMIN
 10
-3.01121755487361
 20
-8.0093071512054621
 30
-0.0015258207003583
  9
$EXTMAX
 10
103.86483834705859
 20
45.859939992963291
 30
0.0000000349246037
  9
$LIMMIN
 10
0.0
 20
0.0
  9
$LIMMAX
 10
420.0
 20
297.0
  9
$ORTHOMODE
 70
     1
  9
$REGENMODE
 70
     1
  9
$FILLMODE
 70
     1
  9
$QTEXTMODE
 70
     0
  9
$MIRRTEXT
 70
     0
  9
$DRAGMODE
 70
     2
  9
$LTSCALE
 40
0.5
  9
$OSMODE
 70
   125
  9
$ATTMODE
 70
     1
  9
$TEXTSIZE
 40
3.0
  9
$TRACEWID
 40
1.0
  9
$TEXTSTYLE
  7
STANDARD
  9
$CLAYER
  8
MSM_CONTINUOUS
  9
$CELTYPE
  6
BYLAYER
  9
$CECOLOR
 62
   256
  9
$DIMSCALE
 40
1.0
  9
$DIMASZ
 40
2.5
  9
$DIMEXO
 40
0.625
  9
$DIMDLI
 40
3.75
  9
$DIMRND
 40
0.0
  9
$DIMDLE
 40
0.0
  9
$DIMEXE
 40
1.25
  9
$DIMTP
 40
0.0
  9
$DIMTM
 40
0.0
  9
$DIMTXT
 40
3.0
  9
$DIMCEN
 40
2.5
  9
$DIMTSZ
 40
0.0
  9
$DIMTOL
 70
     0
  9
$DIMLIM
 70
     0
  9
$DIMTIH
 70
     0
  9
$DIMTOH
 70
     0
  9
$DIMSE1
 70
     0
  9
$DIMSE2
 70
     0
  9
$DIMTAD
 70
     1
  9
$DIMZIN
 70
     8
  9
$DIMBLK
  1
OPEN30
  9
$DIMASO
 70
     1
  9
$DIMSHO
 70
     1
  9
$DIMPOST
  1

  9
$DIMAPOST
  1

  9
$DIMALT
 70
     0
  9
$DIMALTD
 70
     3
  9
$DIMALTF
 40
0.03937007874016
  9
$DIMLFAC
 40
1.0
  9
$DIMTOFL
 70
     1
  9
$DIMTVP
 40
0.0
  9
$DIMTIX
 70
     0
  9
$DIMSOXD
 70
     0
  9
$DIMSAH
 70
     0
  9
$DIMBLK1
  1

  9
$DIMBLK2
  1

  9
$DIMSTYLE
  2
MISUMI
  9
$DIMCLRD
 70
   256
  9
$DIMCLRE
 70
   256
  9
$DIMCLRT
 70
   256
  9
$DIMTFAC
 40
1.0
  9
$DIMGAP
 40
0.625
  9
$LUNITS
 70
     2
  9
$LUPREC
 70
     2
  9
$SKETCHINC
 40
1.0
  9
$FILLETRAD
 40
5.0
  9
$AUNITS
 70
     0
  9
$AUPREC
 70
     0
  9
$MENU
  1
.
  9
$ELEVATION
 40
0.0
  9
$PELEVATION
 40
0.0
  9
$THICKNESS
 40
0.0
  9
$LIMCHECK
 70
     0
  9
$BLIPMODE
 70
     0
  9
$CHAMFERA
 40
0.5
  9
$CHAMFERB
 40
0.5
  9
$SKPOLY
 70
     0
  9
$TDCREATE
 40
2455135.5720697111
  9
$TDUPDATE
 40
2456688.5832162732
  9
$TDINDWG
 40
0.7013803009
  9
$TDUSRTIMER
 40
2456681.0176534369
  9
$USRTIMER
 70
     1
  9
$ANGBASE
 50
0.0
  9
$ANGDIR
 70
     0
  9
$PDMODE
 70
    35
  9
$PDSIZE
 40
0.0
  9
$PLINEWID
 40
0.0
  9
$COORDS
 70
     0
  9
$SPLFRAME
 70
     0
  9
$SPLINETYPE
 70
     6
  9
$SPLINESEGS
 70
     8
  9
$ATTDIA
 70
     0
  9
$ATTREQ
 70
     1
  9
$HANDLING
 70
     1
  9
$HANDSEED
  5
E18B
  9
$SURFTAB1
 70
     6
  9
$SURFTAB2
 70
     6
  9
$SURFTYPE
 70
     6
  9
$SURFU
 70
     6
  9
$SURFV
 70
     6
  9
$UCSNAME
  2

  9
$UCSORG
 10
0.0
 20
0.0
 30
0.0
  9
$UCSXDIR
 10
1.0
 20
0.0
 30
0.0
  9
$UCSYDIR
 10
0.0
 20
1.0
 30
0.0
  9
$PUCSNAME
  2

  9
$PUCSORG
 10
0.0
 20
0.0
 30
0.0
  9
$PUCSXDIR
 10
1.0
 20
0.0
 30
0.0
  9
$PUCSYDIR
 10
0.0
 20
1.0
 30
0.0
  9
$USERI1
 70
     0
  9
$USERI2
 70
     0
  9
$USERI3
 70
     0
  9
$USERI4
 70
     0
  9
$USERI5
 70
     0
  9
$USERR1
 40
0.0
  9
$USERR2
 40
0.0
  9
$USERR3
 40
0.0
  9
$USERR4
 40
0.0
  9
$USERR5
 40
0.0
  9
$WORLDVIEW
 70
     1
  9
$SHADEDGE
 70
     3
  9
$SHADEDIF
 70
    70
  9
$TILEMODE
 70
     1
  9
$MAXACTVP
 70
    64
  9
$PLIMCHECK
 70
     0
  9
$PEXTMIN
 10
0.0
 20
0.0
 30
0.0
  9
$PEXTMAX
 10
0.0
 20
0.0
 30
0.0
  9
$PLIMMIN
 10
0.0
 20
0.0
  9
$PLIMMAX
 10
12.0
 20
9.0
  9
$UNITMODE
 70
     0
  9
$VISRETAIN
 70
     1
  9
$PLINEGEN
 70
     0
  9
$PSLTSCALE
 70
     1
  0
ENDSEC
  0
SECTION
  2
TABLES
  0
TABLE
  2
VPORT
 70
     1
  0
VPORT
  2
*ACTIVE
 70
     0
 10
0.0
 20
0.0
 11
1.0
 21
1.0
 12
50.426810396092499
 22
18.925316420878911
 13
0.0
 23
0.0
 14
10.0
 24
10.0
 15
10.0
 25
10.0
 16
0.0
 26
0.0
 36
1.0
 17
0.0
 27
0.0
 37
0.0
 40
54.289553363759133
 41
2.1015625
 42
50.0
 43
0.0
 44
0.0
 50
0.0
 51
0.0
 71
    16
 72
  1000
 73
     1
 74
     3
 75
     0
 76
     0
 77
     0
 78
     0
  0
ENDTAB
  0
TABLE
  2
LTYPE
 70
     3
  0
LTYPE
  2
CONTINUOUS
 70
     0
  3
Solid line
 72
    65
 73
     0
 40
0.0
  0
LTYPE
  2
CENTER
 70
     0
  3
Center ____ _ ____ _ ____ _ ____ _ ____ _ ____
 72
    65
 73
     4
 40
50.799999999999997
 49
31.75
 49
-6.3499999999999988
 49
6.3499999999999988
 49
-6.3499999999999988
  0
LTYPE
  2
DASHED
 70
     0
  3
Dashed __ __ __ __ __ __ __ __ __ __ __ __ __ _
 72
    65
 73
     2
 40
19.050000000000001
 49
12.699999999999999
 49
-6.3499999999999988
  0
ENDTAB
  0
TABLE
  2
LAYER
 70
     7
  0
LAYER
  2
0
 70
     0
 62
     7
  6
CONTINUOUS
  0
LAYER
  2
MSM_CENTER
 70
     0
 62
     1
  6
CENTER
  0
LAYER
  2
DEFPOINTS
 70
     0
 62
     7
  6
CONTINUOUS
  0
LAYER
  2
MSM_CONTINUOUS
 70
     0
 62
     7
  6
CONTINUOUS
  0
LAYER
  2
MSM_DASHED
 70
     0
 62
     4
  6
DASHED
  0
LAYER
  2
MSM_PART_NUMBER
 70
     0
 62
     7
  6
CONTINUOUS
  0
ENDTAB
  0
TABLE
  2
STYLE
 70
     1
  0
STYLE
  2
STANDARD
 70
     0
 40
3.0
 41
1.0
 50
0.0
 71
     0
 42
3.0
  3
txt.shx
  4
bigfont.shx
  0
ENDTAB
  0
TABLE
  2
VIEW
 70
     0
  0
ENDTAB
  0
TABLE
  2
UCS
 70
     0
  0
ENDTAB
  0
TABLE
  2
APPID
 70
    24
  0
APPID
  2
ACAD
 70
     0
  0
APPID
  2
ACAD_MLEADERVER
 70
     0
  0
APPID
  2
ACAD_EXEMPT_FROM_CAD_STANDARDS
 70
     0
  0
APPID
  2
ACDBBLOCKREPETAG
 70
     0
  0
APPID
  2
ACAD_DSTYLE_DIMJOGGED_JOGA
 70
     0
  0
APPID
  2
ACAECLAYERSTANDARD
 70
     0
  0
APPID
  2
GENIUS_GENODEF_13
 70
     0
  0
APPID
  2
GENIUS_GENOBJ-N-FIL_13
 70
     0
  0
APPID
  2
ACAD_PSEXT
 70
     0
  0
APPID
  2
ACAD_DSTYLE_DIMRADIAL_EXTENSION
 70
     0
  0
APPID
  2
ACDBDYNAMICBLOCKTRUENAME
 70
     0
  0
APPID
  2
ACDBDYNAMICBLOCKGUID
 70
     0
  0
APPID
  2
ACDBBLOCKREPBTAG
 70
     0
  0
APPID
  2
ACAUTHENVIRON
 70
     0
  0
APPID
  2
GRADIENTCOLOR1ACI
 70
     0
  0
APPID
  2
GRADIENTCOLOR2ACI
 70
     0
  0
APPID
  2
ACAD_DSTYLE_DIMJAG
 70
     0
  0
APPID
  2
ACAD_DSTYLE_DIMTALN
 70
     0
  0
APPID
  2
ACCMTRANSPARENCY
 70
     0
  0
APPID
  2
ACAD_DSTYLE_DIMBREAK
 70
     0
  0
APPID
  2
ACAD_DSTYLE_DIMFLIPARROW_W
 70
     0
  0
APPID
  2
ACAD_DSTYLE_DIM_LINETYPE
 70
     0
  0
APPID
  2
ACAD_DSTYLE_DIM_EXT1_LINETYPE
 70
     0
  0
APPID
  2
ACAD_DSTYLE_DIM_EXT2_LINETYPE
 70
     0
  0
ENDTAB
  0
TABLE
  2
DIMSTYLE
 70
     1
  0
DIMSTYLE
  2
MISUMI
 70
     0
  3

  4

  5
OPEN30
  6

  7

 40
1.0
 41
2.5
 42
0.625
 43
3.75
 44
1.25
 45
0.0
 46
0.0
 47
0.0
 48
0.0
140
3.0
141
2.5
142
0.0
143
0.03937007874016
144
1.0
145
0.0
146
1.0
147
0.625
 71
     0
 72
     0
 73
     0
 74
     0
 75
     0
 76
     0
 77
     1
 78
     8
170
     0
171
     3
172
     1
173
     0
174
     0
175
     0
176
   256
177
   256
178
   256
  0
ENDTAB
  0
ENDSEC
  0
SECTION
  2
BLOCKS
  0
BLOCK
  8
0
  2
$MODEL_SPACE
 70
     0
 10
0.0
 20
0.0
 30
0.0
  3
$MODEL_SPACE
  1

  0
ENDBLK
  5
21
  8
0
  0
BLOCK
 67
     1
  8
0
  2
$PAPER_SPACE
 70
     0
 10
0.0
 20
0.0
 30
0.0
  3
$PAPER_SPACE
  1

  0
ENDBLK
  5
E138
 67
     1
  8
0
  0
BLOCK
  8
0
 62
     7
  2
_OPEN30
 70
     0
 10
0.0
 20
0.0
 30
0.0
  3
_OPEN30
  1

  0
LINE
  5
D7
  8
0
  6
BYBLOCK
 62
     0
 10
-1.0
 20
0.26794919
 30
0.0
 11
0.0
 21
0.0
 31
0.0
  0
LINE
  5
D8
  8
0
  6
BYBLOCK
 62
     0
 10
0.0
 20
0.0
 30
0.0
 11
-1.0
 21
-0.26794919
 31
0.0
  0
LINE
  5
D9
  8
0
  6
BYBLOCK
 62
     0
 10
0.0
 20
0.0
 30
0.0
 11
-1.0
 21
0.0
 31
0.0
  0
ENDBLK
  5
DB
  8
0
 62
     7
  0
BLOCK
  8
0
  2
*U14
 70
     1
 10
0.0
 20
0.0
 30
0.0
  3
*U14
  1

  0
TEXT
  5
E176
  8
0
 62
     7
 10
208.31921398749159
 20
4.4522000000622501
 30
0.0
 40
3.0
  1
fjgf14-1.5.dwg
  0
ENDBLK
  5
E178
  8
0
  0
BLOCK
  8
0
  2
*U15
 70
     1
 10
0.0
 20
0.0
 30
0.0
  3
*U15
  1

  0
TEXT
  5
E17E
  8
MSM_PART_NUMBER
 10
0.0
 20
-3.0
 30
0.0
 40
3.0
  1
FJGF14-1.5-4.0-39
  0
ENDBLK
  5
E180
  8
0
  0
BLOCK
  8
0
  2
*U16
 70
     1
 10
0.0
 20
0.0
 30
0.0
  3
*U16
  1

  0
TEXT
  5
E182
  8
MSM_PART_NUMBER
 10
0.0
 20
-8.0
 30
0.0
 40
3.0
  1
FJGF14-1.5
  0
ENDBLK
  5
E184
  8
0
  0
ENDSEC
  0
SECTION
  2
ENTITIES
  0
INSERT
  5
DEE7
  8
MSM_CONTINUOUS
  2
*U15
 10
0.0
 20
0.0
 30
0.0
  0
INSERT
  5
DEE8
  8
MSM_CONTINUOUS
  2
*U16
 10
0.0
 20
0.0
 30
0.0
  0
LINE
  5
DEE9
  8
MSM_CENTER
 10
-3.0000000000001128
 20
29.850238471281699
 30
0.0
 11
28.999999199999991
 21
29.850238471281699
 31
0.0
  0
CIRCLE
  5
DEEA
  8
MSM_DASHED
 10
12.999999999999879
 20
29.850238471281699
 30
0.0
 40
10.5
  0
CIRCLE
  5
DEEB
  8
MSM_CONTINUOUS
 10
12.999999999999879
 20
29.850238471281699
 30
0.0
 40
13.0
  0
LINE
  5
DEEC
  8
MSM_CONTINUOUS
 10
12.999999999999879
 20
44.861344471281598
 30
0.0
 11
25.999999599999999
 21
37.355792171281713
 31
0.0
  0
LINE
  5
DEED
  8
MSM_CONTINUOUS
 10
25.999999599999999
 20
22.34468477128161
 30
0.0
 11
12.999999999999879
 21
14.8391324712816
 31
0.0
  0
LINE
  5
DEEE
  8
MSM_CENTER
 10
12.999999999999879
 20
45.850238471281692
 30
0.0
 11
12.999999999999879
 21
13.850238471281701
 31
0.0
  0
LINE
  5
DEEF
  8
MSM_CONTINUOUS
 10
0.0
 20
37.355792171281713
 30
0.0
 11
0.0
 21
22.34468477128161
 31
0.0
  0
LINE
  5
DEF0
  8
MSM_CONTINUOUS
 10
12.999999999999879
 20
14.8391324712816
 30
0.0
 11
0.0
 21
22.344685271281609
 31
0.0
  0
LINE
  5
DEF1
  8
MSM_CONTINUOUS
 10
12.999999999999879
 20
44.861344471281598
 30
0.0
 11
0.0
 21
37.355791671281708
 31
0.0
  0
LINE
  5
DEF2
  8
MSM_CONTINUOUS
 10
6.499999999999801
 20
41.108568071281383
 30
0.0
 11
6.5000999999997751
 21
41.108568071281383
 31
0.0
  0
LINE
  5
DEF3
  8
MSM_CONTINUOUS
 10
25.999999599999999
 20
37.355792171281713
 30
0.0
 11
25.999999599999999
 21
22.34468477128161
 31
0.0
  0
LINE
  5
DEF4
  8
MSM_CENTER
 10
46.844669702183452
 20
29.850238471281699
 30
0.0
 11
103.8446715021834
 21
29.850238471281699
 31
0.0
  0
LINE
  5
DEF5
  8
MSM_CONTINUOUS
 10
56.344669702183467
 20
40.3502384712815
 30
0.0
 11
59.344669702183523
 21
40.3502384712815
 31
0.0
  0
LINE
  5
DEF6
  8
MSM_CONTINUOUS
 10
56.344669702183467
 20
19.350238471281699
 30
0.0
 11
59.344669702183523
 21
19.350238471281688
 31
0.0
  0
ARC
  5
DEF7
  8
MSM_CONTINUOUS
 10
76.055504702183441
 20
29.850238471282179
 30
0.0
 40
24.210834999999989
 50
161.940284495881
 51
198.05972
  0
ARC
  5
DEF8
  8
MSM_CONTINUOUS
 10
31.633836702183661
 20
29.850238471282179
 30
0.0
 40
24.210834999999989
 50
341.94027999999992
 51
18.059715000000011
  0
LINE
  5
DEF9
  8
MSM_CONTINUOUS
 10
51.844670102183443
 20
42.850238471281699
 30
0.0
 11
51.844670102183443
 21
16.8502384712815
 31
0.0
  0
LINE
  5
DEFA
  8
MSM_CONTINUOUS
 10
55.844669702183467
 20
42.850240203332937
 30
0.0
 11
55.844669702183467
 21
16.850236739230251
 31
0.0
  0
ARC
  5
DEFB
  8
MSM_CONTINUOUS
 10
49.344671502183473
 20
18.591908471281499
 30
0.0
 40
6.4999989999999981
 50
329.99999999999989
 51
35.26440000000008
  0
ARC
  5
DEFC
  8
MSM_CONTINUOUS
 10
58.344668702183469
 20
18.591908471281499
 30
0.0
 40
6.4999989999999981
 50
144.73559999999989
 51
209.9999999999998
  0
LINE
  5
DEFD
  8
MSM_CONTINUOUS
 10
53.005783124832988
 20
14.8391324712816
 30
0.0
 11
54.683558279533749
 21
14.8391324712816
 31
0.0
  0
LINE
  5
DEFE
  8
MSM_CONTINUOUS
 10
53.005783124832988
 20
14.8391324712816
 30
0.0
 11
51.844670102183443
 21
16.8502384712815
 31
0.0
  0
LINE
  5
DEFF
  8
MSM_CONTINUOUS
 10
54.683558279533749
 20
14.8391324712816
 30
0.0
 11
55.844670702183578
 21
16.8502384712815
 31
0.0
  0
LINE
  5
DF00
  8
MSM_CONTINUOUS
 10
53.037442702183569
 20
22.34468477128161
 30
0.0
 11
54.651897702183533
 21
22.34468477128161
 31
0.0
  0
ARC
  5
DF01
  8
MSM_CONTINUOUS
 10
49.344671502183473
 20
41.1085684712817
 30
0.0
 40
6.4999989999999981
 50
324.73559999999992
 51
30.00000100000009
  0
ARC
  5
DF02
  8
MSM_CONTINUOUS
 10
58.344668702183469
 20
41.1085684712817
 30
0.0
 40
6.4999989999999981
 50
149.99999999999989
 51
215.2643910604902
  0
LINE
  5
DF03
  8
MSM_CONTINUOUS
 10
53.037442702183569
 20
37.355792171281713
 30
0.0
 11
54.651897702183533
 21
37.355792171281713
 31
0.0
  0
LINE
  5
DF04
  8
MSM_CONTINUOUS
 10
53.005783124832917
 20
44.861344471281598
 30
0.0
 11
54.683558279533827
 21
44.861344471281598
 31
0.0
  0
LINE
  5
DF05
  8
MSM_CONTINUOUS
 10
53.005783124832917
 20
44.861344471281598
 30
0.0
 11
51.844670102183443
 21
42.850238471281699
 31
0.0
  0
LINE
  5
DF06
  8
MSM_CONTINUOUS
 10
54.683558279533827
 20
44.861344471281598
 30
0.0
 11
55.844670702183578
 21
42.850238471281699
 31
0.0
  0
ARC
  5
DF07
  8
MSM_CONTINUOUS
 10
74.633836502183442
 20
29.850238471282179
 30
0.0
 40
24.210834999999989
 50
341.94027999999992
 51
18.059715000000011
  0
ARC
  5
DF08
  8
MSM_CONTINUOUS
 10
84.055504702183441
 20
29.850238471282179
 30
0.0
 40
24.210834999999989
 50
161.940284495881
 51
198.05972
  0
LINE
  5
DF09
  8
MSM_CONTINUOUS
 10
59.844669702183531
 20
42.850239471281689
 30
0.0
 11
59.844669702183531
 21
16.850237471281702
 31
0.0
  0
LINE
  5
DF0A
  8
MSM_CONTINUOUS
 10
98.844669702183481
 20
42.850238471281699
 30
0.0
 11
98.844669702183481
 21
16.8502384712815
 31
0.0
  0
LINE
  5
DF0B
  8
MSM_CONTINUOUS
 10
61.037442832889312
 20
22.34468477128161
 30
0.0
 11
97.651897702183476
 21
22.34468477128161
 31
0.0
  0
LINE
  5
DF0C
  8
MSM_CONTINUOUS
 10
61.00578312483249
 20
14.8391324712816
 30
0.0
 11
97.683560856880916
 21
14.8391324712816
 31
0.0
  0
ARC
  5
DF0D
  8
MSM_CONTINUOUS
 10
66.344669702183523
 20
18.591908471281499
 30
0.0
 40
6.4999989999999981
 50
144.73559999999989
 51
209.9999999999998
  0
LINE
  5
DF0E
  8
MSM_CONTINUOUS
 10
61.00578312483249
 20
14.8391324712816
 30
0.0
 11
59.844669702183531
 21
16.850237471281702
 31
0.0
  0
ARC
  5
DF0F
  8
MSM_CONTINUOUS
 10
92.344671702183575
 20
18.591908471281499
 30
0.0
 40
6.4999989999999981
 50
329.99999999999989
 51
35.26440000000008
  0
LINE
  5
DF10
  8
MSM_CONTINUOUS
 10
97.683560856880916
 20
14.8391324712816
 30
0.0
 11
98.844669702183481
 21
16.850237471281702
 31
0.0
  0
LINE
  5
DF11
  8
MSM_CONTINUOUS
 10
61.037442336865887
 20
37.355792171281713
 30
0.0
 11
97.651898571477886
 21
37.355792171281713
 31
0.0
  0
LINE
  5
DF12
  8
MSM_CONTINUOUS
 10
61.005783124832433
 20
44.861344471281598
 30
0.0
 11
97.683560856881044
 21
44.861344471281598
 31
0.0
  0
ARC
  5
DF13
  8
MSM_CONTINUOUS
 10
66.344669702183523
 20
41.1085684712817
 30
0.0
 40
6.4999989999999981
 50
149.99999999999989
 51
215.26438999999971
  0
LINE
  5
DF14
  8
MSM_CONTINUOUS
 10
61.005783124832433
 20
44.861344471281598
 30
0.0
 11
59.844669702183531
 21
42.850239471281689
 31
0.0
  0
ARC
  5
DF15
  8
MSM_CONTINUOUS
 10
92.344671702183575
 20
41.1085684712817
 30
0.0
 40
6.4999989999999981
 50
324.73559999999992
 51
30.00000100000009
  0
LINE
  5
DF16
  8
MSM_CONTINUOUS
 10
97.683560856881044
 20
44.861344471281598
 30
0.0
 11
98.844669702183481
 21
42.850239471281689
 31
0.0
  0
CIRCLE
  5
DF2A
  8
MSM_DASHED
 10
12.999999999999879
 20
29.850238471281699
 30
0.0
 40
6.1879999999999988
  0
CIRCLE
  5
DF2B
  8
MSM_DASHED
 10
12.999999999999879
 20
29.850238471281699
 30
0.0
 40
7.0
  0
ARC
  5
DF30
  8
MSM_CONTINUOUS
 10
56.344669702183467
 20
40.8502384712815
 30
0.0
 40
0.5000000000000002
 50
180.0
 51
270.0
  0
ARC
  5
DF31
  8
MSM_CONTINUOUS
 10
59.344669702183523
 20
40.8502384712815
 30
0.0
 40
0.5000000000000002
 50
270.0
 51
0.0
  0
ARC
  5
DF32
  8
MSM_CONTINUOUS
 10
56.344669702183467
 20
18.850238471281699
 30
0.0
 40
0.5000000000000002
 50
90.0
 51
180.0
  0
ARC
  5
DF33
  8
MSM_CONTINUOUS
 10
59.344669702183523
 20
18.850238471281688
 30
0.0
 40
0.5000000000000002
 50
0.0
 51
90.0
  0
LINE
  5
E0BC
  8
MSM_DASHED
 10
98.844671502183431
 20
36.03823847128217
 30
0.0
 11
66.344671502183431
 21
36.03823847128217
 31
0.0
  0
LINE
  5
E0BD
  8
MSM_DASHED
 10
98.844671502183431
 20
36.850238471282182
 30
0.0
 11
70.844671502183431
 21
36.850238471282182
 31
0.0
  0
LINE
  5
E0BE
  8
MSM_DASHED
 10
70.844671502183431
 20
22.850238471282179
 30
0.0
 11
70.844671502183431
 21
36.850238471282182
 31
0.0
  0
LINE
  5
E0BF
  8
MSM_DASHED
 10
66.344671502183431
 20
23.66223847128219
 30
0.0
 11
66.344671502183431
 21
36.03823847128217
 31
0.0
  0
LINE
  5
E0C0
  8
MSM_DASHED
 10
66.344671502183431
 20
36.03823847128217
 30
0.0
 11
62.772028036438037
 21
29.850238471282179
 31
0.0
  0
LINE
  5
E0C1
  8
MSM_DASHED
 10
70.844671502183431
 20
36.850238471282182
 30
0.0
 11
69.4382462464376
 21
36.03823847128217
 31
0.0
  0
LINE
  5
E0C2
  8
MSM_DASHED
 10
98.844671502183431
 20
22.850238471282179
 30
0.0
 11
70.844671502183431
 21
22.850238471282179
 31
0.0
  0
LINE
  5
E0C3
  8
MSM_DASHED
 10
98.844671502183431
 20
23.66223847128219
 30
0.0
 11
66.344671502183431
 21
23.66223847128219
 31
0.0
  0
LINE
  5
E0C4
  8
MSM_DASHED
 10
70.844671502183431
 20
22.850238471282179
 30
0.0
 11
69.438246246437487
 21
23.66223847128219
 31
0.0
  0
LINE
  5
E0C5
  8
MSM_DASHED
 10
66.344671502183431
 20
23.66223847128219
 30
0.0
 11
62.772028036438037
 21
29.850238471282179
 31
0.0
  0
ENDSEC
  0
EOF
