  0
SECTION
  2
HEADER
  9
$ACADVER
  1
AC1009
  9
$INSBASE
 10
0.0
 20
0.0
 30
0.0
  9
$EXTMIN
 10
-72.063695669535264
 20
-29.5
 30
0.0
  9
$EXTMAX
 10
7.9999999999999982
 20
7.9999999999999982
 30
0.0
  9
$LIMMIN
 10
0.0
 20
0.0
  9
$LIMMAX
 10
420.0
 20
297.0
  9
$ORTHOMODE
 70
     1
  9
$REGENMODE
 70
     1
  9
$FILLMODE
 70
     1
  9
$QTEXTMODE
 70
     0
  9
$MIRRTEXT
 70
     0
  9
$DRAGMODE
 70
     2
  9
$LTSCALE
 40
1.0
  9
$OSMODE
 70
  3071
  9
$ATTMODE
 70
     1
  9
$TEXTSIZE
 40
3.0
  9
$TRACEWID
 40
1.0
  9
$TEXTSTYLE
  7
STANDARD
  9
$CLAYER
  8
0
  9
$CELTYPE
  6
CONTINUOUS
  9
$CECOLOR
 62
     7
  9
$DIMSCALE
 40
1.0
  9
$DIMASZ
 40
2.5
  9
$DIMEXO
 40
0.625
  9
$DIMDLI
 40
3.75
  9
$DIMRND
 40
0.0
  9
$DIMDLE
 40
0.0
  9
$DIMEXE
 40
1.25
  9
$DIMTP
 40
0.0
  9
$DIMTM
 40
0.0
  9
$DIMTXT
 40
2.5
  9
$DIMCEN
 40
2.5
  9
$DIMTSZ
 40
0.0
  9
$DIMTOL
 70
     0
  9
$DIMLIM
 70
     0
  9
$DIMTIH
 70
     0
  9
$DIMTOH
 70
     0
  9
$DIMSE1
 70
     0
  9
$DIMSE2
 70
     0
  9
$DIMTAD
 70
     1
  9
$DIMZIN
 70
     8
  9
$DIMBLK
  1
OPEN30
  9
$DIMASO
 70
     1
  9
$DIMSHO
 70
     1
  9
$DIMPOST
  1

  9
$DIMAPOST
  1

  9
$DIMALT
 70
     0
  9
$DIMALTD
 70
     3
  9
$DIMALTF
 40
0.03937007874016
  9
$DIMLFAC
 40
1.0
  9
$DIMTOFL
 70
     1
  9
$DIMTVP
 40
0.0
  9
$DIMTIX
 70
     0
  9
$DIMSOXD
 70
     0
  9
$DIMSAH
 70
     0
  9
$DIMBLK1
  1

  9
$DIMBLK2
  1

  9
$DIMSTYLE
  2
MISUMI
  9
$DIMCLRD
 70
   137
  9
$DIMCLRE
 70
   137
  9
$DIMCLRT
 70
   137
  9
$DIMTFAC
 40
1.0
  9
$DIMGAP
 40
0.625
  9
$LUNITS
 70
     2
  9
$LUPREC
 70
     2
  9
$SKETCHINC
 40
1.0
  9
$FILLETRAD
 40
0.0
  9
$AUNITS
 70
     0
  9
$AUPREC
 70
     0
  9
$MENU
  1
.
  9
$ELEVATION
 40
0.0
  9
$PELEVATION
 40
0.0
  9
$THICKNESS
 40
0.0
  9
$LIMCHECK
 70
     0
  9
$BLIPMODE
 70
     0
  9
$CHAMFERA
 40
0.5
  9
$CHAMFERB
 40
0.5
  9
$SKPOLY
 70
     0
  9
$TDCREATE
 40
2455135.5720697101
  9
$TDUPDATE
 40
2455331.8244737731
  9
$TDINDWG
 40
0.0425162384
  9
$TDUSRTIMER
 40
0.0425160532
  9
$USRTIMER
 70
     1
  9
$ANGBASE
 50
0.0
  9
$ANGDIR
 70
     0
  9
$PDMODE
 70
    35
  9
$PDSIZE
 40
0.0
  9
$PLINEWID
 40
0.0
  9
$COORDS
 70
     2
  9
$SPLFRAME
 70
     0
  9
$SPLINETYPE
 70
     6
  9
$SPLINESEGS
 70
     8
  9
$ATTDIA
 70
     0
  9
$ATTREQ
 70
     1
  9
$HANDLING
 70
 22529
  9
$HANDSEED
  5
1023
  9
$SURFTAB1
 70
     6
  9
$SURFTAB2
 70
     6
  9
$SURFTYPE
 70
     6
  9
$SURFU
 70
     6
  9
$SURFV
 70
     6
  9
$UCSNAME
  2

  9
$UCSORG
 10
0.0
 20
0.0
 30
0.0
  9
$UCSXDIR
 10
1.0
 20
0.0
 30
0.0
  9
$UCSYDIR
 10
0.0
 20
1.0
 30
0.0
  9
$PUCSNAME
  2

  9
$PUCSORG
 10
0.0
 20
0.0
 30
0.0
  9
$PUCSXDIR
 10
1.0
 20
0.0
 30
0.0
  9
$PUCSYDIR
 10
0.0
 20
1.0
 30
0.0
  9
$USERI1
 70
     0
  9
$USERI2
 70
     0
  9
$USERI3
 70
     0
  9
$USERI4
 70
     0
  9
$USERI5
 70
     0
  9
$USERR1
 40
0.0
  9
$USERR2
 40
0.0
  9
$USERR3
 40
0.0
  9
$USERR4
 40
0.0
  9
$USERR5
 40
0.0
  9
$WORLDVIEW
 70
     1
  9
$SHADEDGE
 70
     3
  9
$SHADEDIF
 70
    70
  9
$TILEMODE
 70
     1
  9
$MAXACTVP
 70
    64
  9
$PLIMCHECK
 70
     0
  9
$PEXTMIN
 10
0.0
 20
0.0
 30
0.0
  9
$PEXTMAX
 10
0.0
 20
0.0
 30
0.0
  9
$PLIMMIN
 10
0.0
 20
0.0
  9
$PLIMMAX
 10
12.0
 20
9.0
  9
$UNITMODE
 70
     0
  9
$VISRETAIN
 70
     1
  9
$PLINEGEN
 70
     0
  9
$PSLTSCALE
 70
     1
  0
ENDSEC
  0
SECTION
  2
TABLES
  0
TABLE
  2
VPORT
 70
     2
  0
VPORT
  2
*ACTIVE
 70
     0
 10
0.0
 20
0.0
 11
1.0
 21
1.0
 12
-24.563191038144069
 22
-10.74804862429448
 13
0.0
 23
0.0
 14
10.0
 24
10.0
 15
10.0
 25
10.0
 16
0.0
 26
0.0
 36
1.0
 17
0.0
 27
0.0
 37
0.0
 40
61.272621043405472
 41
1.55832241153342
 42
50.0
 43
0.0
 44
0.0
 50
0.0
 51
0.0
 71
     0
 72
  1000
 73
     1
 74
     3
 75
     0
 76
     0
 77
     0
 78
     0
  0
ENDTAB
  0
TABLE
  2
LTYPE
 70
     4
  0
LTYPE
  2
CONTINUOUS
 70
     0
  3
Solid line
 72
    65
 73
     0
 40
0.0
  0
LTYPE
  2
CENTER
 70
     0
  3
Center ____ _ ____ _ ____ _ ____ _ ____ _ ____
 72
    65
 73
     4
 40
50.799999999999997
 49
31.75
 49
-6.3499999999999988
 49
6.3499999999999988
 49
-6.3499999999999988
  0
LTYPE
  2
DASHED
 70
     0
  3
Dashed __ __ __ __ __ __ __ __ __ __ __ __ __ _
 72
    65
 73
     2
 40
19.04999999999999
 49
12.699999999999999
 49
-6.3499999999999988
  0
ENDTAB
  0
TABLE
  2
LAYER
 70
     3
  0
LAYER
  2
0
 70
     0
 62
     7
  6
CONTINUOUS
  0
LAYER
  2
CENTER
 70
     0
 62
     1
  6
CENTER
  0
LAYER
  2
DEFPOINTS
 70
     0
 62
     7
  6
CONTINUOUS
  0
ENDTAB
  0
TABLE
  2
STYLE
 70
     1
  0
STYLE
  2
STANDARD
 70
     0
 40
3.0
 41
1.0
 50
0.0
 71
     0
 42
3.0
  3
txt.shx
  4
bigfont.shx
  0
ENDTAB
  0
TABLE
  2
VIEW
 70
     0
  0
ENDTAB
  0
TABLE
  2
UCS
 70
     0
  0
ENDTAB
  0
TABLE
  2
APPID
 70
     2
  0
APPID
  2
ACAD
 70
     0
  0
APPID
  2
GENIUS_GENDTOL_13
 70
     0
  0
ENDTAB
  0
TABLE
  2
DIMSTYLE
 70
     1
  0
DIMSTYLE
  2
MISUMI
 70
     0
  3

  4

  5
OPEN30
  6

  7

 40
1.0
 41
2.5
 42
0.625
 43
3.75
 44
1.25
 45
0.0
 46
0.0
 47
0.0
 48
0.0
140
2.5
141
2.5
142
0.0
143
0.03937007874016
144
1.0
145
0.0
146
1.0
147
0.625
 71
     0
 72
     0
 73
     0
 74
     0
 75
     0
 76
     0
 77
     1
 78
     8
170
     0
171
     3
172
     1
173
     0
174
     0
175
     0
176
   137
177
   137
178
   137
  0
ENDTAB
  0
ENDSEC
  0
SECTION
  2
BLOCKS
  0
BLOCK
  8
0
  2
$MODEL_SPACE
 70
     0
 10
0.0
 20
0.0
 30
0.0
  3
$MODEL_SPACE
  1

  0
ENDBLK
  5
21
  8
0
  0
BLOCK
 67
     1
  8
0
  2
$PAPER_SPACE
 70
     0
 10
0.0
 20
0.0
 30
0.0
  3
$PAPER_SPACE
  1

  0
ENDBLK
  5
53
 67
     1
  8
0
  0
BLOCK
  8
0
 62
     7
  2
_OPEN30
 70
     0
 10
0.0
 20
0.0
 30
0.0
  3
_OPEN30
  1

  0
LINE
  5
D7
  8
0
  6
BYBLOCK
 62
     0
 10
-1.0
 20
0.26794919
 30
0.0
 11
0.0
 21
0.0
 31
0.0
  0
LINE
  5
D8
  8
0
  6
BYBLOCK
 62
     0
 10
0.0
 20
0.0
 30
0.0
 11
-1.0
 21
-0.26794919
 31
0.0
  0
LINE
  5
D9
  8
0
  6
BYBLOCK
 62
     0
 10
0.0
 20
0.0
 30
0.0
 11
-1.0
 21
0.0
 31
0.0
  0
ENDBLK
  5
DB
  8
0
 62
     7
  0
ENDSEC
  0
SECTION
  2
ENTITIES
  0
CIRCLE
  5
CCC
  8
0
  6
CONTINUOUS
 62
     7
 10
0.0
 20
0.0
 30
0.0
 40
5.9999999999999973
  0
LINE
  5
CCF
  8
CENTER
  6
CENTER
 62
     1
 10
0.0
 20
-7.9999999999999973
 30
0.0
 11
0.0
 21
7.9999999999999982
 31
0.0
  0
ARC
  5
CD1
  8
0
  6
CONTINUOUS
 62
     7
 10
-28.360851866428209
 20
2.8999999999999981
 30
0.0
 40
0.4
 50
180.0
 51
270.0
  0
LINE
  5
CD2
  8
0
  6
CONTINUOUS
 62
     7
 10
-28.760851866428212
 20
5.5999999999999943
 30
0.0
 11
-28.760851866428212
 21
-5.6000000000000014
 31
0.0
  0
LINE
  5
CD3
  8
0
  6
CONTINUOUS
 62
     7
 10
-31.760851866428212
 20
6.0
 30
0.0
 11
-31.760851866428212
 21
-6.0
 31
0.0
  0
LINE
  5
CD4
  8
0
  6
CONTINUOUS
 62
     7
 10
-56.760851866428212
 20
-4.5
 30
0.0
 11
-56.760851866428212
 21
4.5
 31
0.0
  0
LINE
  5
CD5
  8
0
  6
CONTINUOUS
 62
     7
 10
-19.260851866428212
 20
2.499999999999992
 30
0.0
 11
-18.760851866428212
 21
2.999999999999992
 31
0.0
  0
LINE
  5
CD6
  8
0
  6
CONTINUOUS
 62
     7
 10
-18.260851866428212
 20
4.999999999999992
 30
0.0
 11
-18.260851866428212
 21
-5.0
 31
0.0
  0
LINE
  5
CD7
  8
0
  6
CONTINUOUS
 62
     7
 10
-18.760851866428212
 20
4.499999999999992
 30
0.0
 11
-18.760851866428212
 21
0.0000000000092939
 31
0.0
  0
LINE
  5
CD8
  8
0
  6
CONTINUOUS
 62
     7
 10
-16.260851866428212
 20
4.999999999999992
 30
0.0
 11
-16.260851866428212
 21
-5.0
 31
0.0
  0
LINE
  5
CD9
  8
0
  6
CONTINUOUS
 62
     7
 10
-15.76085186642821
 20
4.499999999999992
 30
0.0
 11
-15.76085186642821
 21
-4.5
 31
0.0
  0
LINE
  5
CDA
  8
CENTER
  6
CENTER
 62
     1
 10
-13.76085186642821
 20
0.0
 30
0.0
 11
-58.760851866428197
 21
0.0
 31
0.0
  0
LINE
  5
CDD
  8
0
  6
CONTINUOUS
 62
     7
 10
-19.260851866428212
 20
-2.5
 30
0.0
 11
-28.360851866428209
 21
-2.5
 31
0.0
  0
LINE
  5
CDE
  8
0
  6
CONTINUOUS
 62
     7
 10
-19.260851866428212
 20
2.499999999999992
 30
0.0
 11
-28.360851866428199
 21
2.499999999999992
 31
0.0
  0
LINE
  5
CE0
  8
0
  6
CONTINUOUS
 62
     7
 10
-31.760851866428212
 20
-5.0
 30
0.0
 11
-56.260851866428212
 21
-5.0
 31
0.0
  0
ARC
  5
CE1
  8
0
  6
CONTINUOUS
 62
     7
 10
-56.260851866428212
 20
-4.5
 30
0.0
 40
0.5
 50
180.0
 51
270.0
  0
ARC
  5
CE2
  8
0
  6
CONTINUOUS
 62
     7
 10
-29.16085186642821
 20
-5.6000000000000014
 30
0.0
 40
0.4
 50
270.0
 51
0.0
  0
LINE
  5
CE3
  8
0
  6
CONTINUOUS
 62
     7
 10
-29.16085186642821
 20
-6.0
 30
0.0
 11
-31.760851866428212
 21
-6.0
 31
0.0
  0
ARC
  5
CE4
  8
0
  6
CONTINUOUS
 62
     7
 10
-28.360851866428209
 20
-2.8999999999999981
 30
0.0
 40
0.4
 50
90.0
 51
180.0
  0
LINE
  5
CE5
  8
0
  6
CONTINUOUS
 62
     7
 10
-18.260851866428212
 20
-5.0
 30
0.0
 11
-16.260851866428212
 21
-5.0
 31
0.0
  0
LINE
  5
CE6
  8
0
  6
CONTINUOUS
 62
     7
 10
-18.760851866428212
 20
0.0000000000092939
 30
0.0
 11
-18.760851866428212
 21
-4.5
 31
0.0
  0
LINE
  5
CE7
  8
0
  6
CONTINUOUS
 62
     7
 10
-18.760851866428212
 20
-4.5
 30
0.0
 11
-18.260851866428212
 21
-5.0
 31
0.0
  0
LINE
  5
CE8
  8
0
  6
CONTINUOUS
 62
     7
 10
-19.260851866428212
 20
-2.5
 30
0.0
 11
-19.260851866428212
 21
2.499999999999992
 31
0.0
  0
LINE
  5
CE9
  8
0
  6
CONTINUOUS
 62
     7
 10
-19.260851866428212
 20
-2.5
 30
0.0
 11
-18.760851866428212
 21
-3.0
 31
0.0
  0
LINE
  5
CEA
  8
0
  6
CONTINUOUS
 62
     7
 10
-16.260851866428212
 20
-5.0
 30
0.0
 11
-15.76085186642821
 21
-4.5
 31
0.0
  0
LINE
  5
CEC
  8
CENTER
  6
CENTER
 62
     1
 10
-7.9999999999999973
 20
0.0
 30
0.0
 11
7.9999999999999982
 21
0.0
 31
0.0
  0
LINE
  5
CEE
  8
0
  6
CONTINUOUS
 62
     7
 10
-31.760851866428212
 20
5.0
 30
0.0
 11
-56.260851866428212
 21
5.0
 31
0.0
  0
ARC
  5
CEF
  8
0
  6
CONTINUOUS
 62
     7
 10
-56.260851866428212
 20
4.5
 30
0.0
 40
0.5
 50
90.0
 51
180.0
  0
ARC
  5
CF0
  8
0
  6
CONTINUOUS
 62
     7
 10
-29.16085186642821
 20
5.5999999999999943
 30
0.0
 40
0.4
 50
0.0
 51
90.0
  0
LINE
  5
CF1
  8
0
  6
CONTINUOUS
 62
     7
 10
-29.16085186642821
 20
6.0
 30
0.0
 11
-31.760851866428212
 21
6.0
 31
0.0
  0
LINE
  5
CF2
  8
0
  6
CONTINUOUS
 62
     7
 10
-18.260851866428212
 20
4.999999999999992
 30
0.0
 11
-16.260851866428212
 21
4.999999999999992
 31
0.0
  0
LINE
  5
CF3
  8
0
  6
CONTINUOUS
 62
     7
 10
-18.760851866428212
 20
4.499999999999992
 30
0.0
 11
-18.260851866428212
 21
4.999999999999992
 31
0.0
  0
LINE
  5
CF4
  8
0
  6
CONTINUOUS
 62
     7
 10
-16.260851866428212
 20
4.999999999999992
 30
0.0
 11
-15.76085186642821
 21
4.499999999999992
 31
0.0
  0
LINE
  5
CFA
  8
0
  6
DASHED
 62
     3
 10
-31.760851866428219
 20
-3.2500000000000031
 30
0.0
 11
-31.760851866428219
 21
3.249999999999996
 31
0.0
  0
LINE
  5
CFB
  8
0
  6
DASHED
 62
     3
 10
-31.760851866428219
 20
-3.2500000000000031
 30
0.0
 11
-29.808054854588661
 21
-0.0000000000000033
 31
0.0
  0
LINE
  5
CFE
  8
0
  6
DASHED
 62
     3
 10
-31.760851866428219
 20
3.249999999999996
 30
0.0
 11
-56.760851866428212
 21
3.25
 31
0.0
  0
LINE
  5
D09
  8
0
  6
DASHED
 62
     3
 10
-29.808054854588661
 20
-0.0000000000000033
 30
0.0
 11
-31.760851866428219
 21
3.249999999999996
 31
0.0
  0
LINE
  5
D10
  8
0
  6
DASHED
 62
     3
 10
-56.760851866428212
 20
-3.25
 30
0.0
 11
-31.760851866428219
 21
-3.2500000000000031
 31
0.0
  0
TEXT
  5
EE5
  8
0
  6
CONTINUOUS
 62
     7
 10
-72.063695669535264
 20
-22.5
 30
0.0
 40
3.0
  1
BSLG10
  0
TEXT
  5
EE8
  8
0
  6
CONTINUOUS
 62
     7
 10
-72.063695669535264
 20
-29.5
 30
0.0
 40
3.0
  1
BSLG10
  0
POLYLINE
  5
F0E
  8
0
  6
CONTINUOUS
 62
     7
 10
-0.0032659847710018
 20
-4.5043404968859084
 30
0.0
 66
     1
 70
     8
  0
VERTEX
  8
0
  5
F1F
 10
-0.00326598
 20
-4.50434
 30
0.000000
  70
    32
  0
VERTEX
  8
0
  5
F20
 10
0.143941
 20
-4.49902
 30
0.000000
  70
    32
  0
VERTEX
  8
0
  5
F21
 10
0.290802
 20
-4.48287
 30
0.000000
  70
    32
  0
VERTEX
  8
0
  5
F22
 10
0.436962
 20
-4.45593
 30
0.000000
  70
    32
  0
VERTEX
  8
0
  5
F23
 10
0.582069
 20
-4.41826
 30
0.000000
  70
    32
  0
VERTEX
  8
0
  5
F24
 10
0.725774
 20
-4.36994
 30
0.000000
  70
    32
  0
VERTEX
  8
0
  5
F25
 10
0.867730
 20
-4.31111
 30
0.000000
  70
    32
  0
VERTEX
  8
0
  5
F26
 10
1.00760
 20
-4.24189
 30
0.000000
  70
    32
  0
VERTEX
  8
0
  5
F27
 10
1.14504
 20
-4.16246
 30
0.000000
  70
    32
  0
VERTEX
  8
0
  5
F28
 10
1.27972
 20
-4.07301
 30
0.000000
  70
    32
  0
VERTEX
  8
0
  5
F29
 10
1.41131
 20
-3.97375
 30
0.000000
  70
    32
  0
VERTEX
  8
0
  5
F2A
 10
1.53951
 20
-3.86493
 30
0.000000
  70
    32
  0
VERTEX
  8
0
  5
F2B
 10
1.66400
 20
-3.74679
 30
0.000000
  70
    32
  0
VERTEX
  8
0
  5
F2C
 10
1.78448
 20
-3.61964
 30
0.000000
  70
    32
  0
VERTEX
  8
0
  5
F2D
 10
1.90066
 20
-3.48377
 30
0.000000
  70
    32
  0
VERTEX
  8
0
  5
F2E
 10
2.01226
 20
-3.33952
 30
0.000000
  70
    32
  0
VERTEX
  8
0
  5
F2F
 10
2.11901
 20
-3.18722
 30
0.000000
  70
    32
  0
VERTEX
  8
0
  5
F30
 10
2.22066
 20
-3.02725
 30
0.000000
  70
    32
  0
VERTEX
  8
0
  5
F31
 10
2.31696
 20
-2.86000
 30
0.000000
  70
    32
  0
VERTEX
  8
0
  5
F32
 10
2.40768
 20
-2.68585
 30
0.000000
  70
    32
  0
VERTEX
  8
0
  5
F33
 10
2.49260
 20
-2.50525
 30
0.000000
  70
    32
  0
VERTEX
  8
0
  5
F34
 10
2.57151
 20
-2.31861
 30
0.000000
  70
    32
  0
VERTEX
  8
0
  5
F35
 10
2.64423
 20
-2.12639
 30
0.000000
  70
    32
  0
VERTEX
  8
0
  5
F36
 10
2.71057
 20
-1.92906
 30
0.000000
  70
    32
  0
VERTEX
  8
0
  5
F37
 10
2.77039
 20
-1.72708
 30
0.000000
  70
    32
  0
VERTEX
  8
0
  5
F38
 10
2.82353
 20
-1.52095
 30
0.000000
  70
    32
  0
VERTEX
  8
0
  5
F39
 10
2.86987
 20
-1.31116
 30
0.000000
  70
    32
  0
VERTEX
  8
0
  5
F3A
 10
2.90930
 20
-1.09821
 30
0.000000
  70
    32
  0
VERTEX
  8
0
  5
F3B
 10
2.94172
 20
-0.882630
 30
0.000000
  70
    32
  0
VERTEX
  8
0
  5
F3C
 10
2.96705
 20
-0.664924
 30
0.000000
  70
    32
  0
VERTEX
  8
0
  5
F3D
 10
2.98523
 20
-0.445621
 30
0.000000
  70
    32
  0
VERTEX
  8
0
  5
F3E
 10
2.99623
 20
-0.225250
 30
0.000000
  70
    32
  0
VERTEX
  8
0
  5
F3F
 10
3.00000
 20
-0.00434168
 30
0.000000
  70
    32
  0
VERTEX
  8
0
  5
F40
 10
2.99655
 20
0.216572
 30
0.000000
  70
    32
  0
VERTEX
  8
0
  5
F41
 10
2.98587
 20
0.436959
 30
0.000000
  70
    32
  0
VERTEX
  8
0
  5
F42
 10
2.96801
 20
0.656287
 30
0.000000
  70
    32
  0
VERTEX
  8
0
  5
F43
 10
2.94299
 20
0.874030
 30
0.000000
  70
    32
  0
VERTEX
  8
0
  5
F44
 10
2.91088
 20
1.08966
 30
0.000000
  70
    32
  0
VERTEX
  8
0
  5
F45
 10
2.87177
 20
1.30266
 30
0.000000
  70
    32
  0
VERTEX
  8
0
  5
F46
 10
2.82573
 20
1.51252
 30
0.000000
  70
    32
  0
VERTEX
  8
0
  5
F47
 10
2.77288
 20
1.71873
 30
0.000000
  70
    32
  0
VERTEX
  8
0
  5
F48
 10
2.71336
 20
1.92079
 30
0.000000
  70
    32
  0
VERTEX
  8
0
  5
F49
 10
2.64730
 20
2.11822
 30
0.000000
  70
    32
  0
VERTEX
  8
0
  5
F4A
 10
2.57486
 20
2.31054
 30
0.000000
  70
    32
  0
VERTEX
  8
0
  5
F4B
 10
2.49622
 20
2.49730
 30
0.000000
  70
    32
  0
VERTEX
  8
0
  5
F4C
 10
2.41156
 20
2.67802
 30
0.000000
  70
    32
  0
VERTEX
  8
0
  5
F4D
 10
2.32110
 20
2.85230
 30
0.000000
  70
    32
  0
VERTEX
  8
0
  5
F4E
 10
2.22504
 20
3.01969
 30
0.000000
  70
    32
  0
VERTEX
  8
0
  5
F4F
 10
2.12362
 20
3.17981
 30
0.000000
  70
    32
  0
VERTEX
  8
0
  5
F50
 10
2.01709
 20
3.33226
 30
0.000000
  70
    32
  0
VERTEX
  8
0
  5
F51
 10
1.90569
 20
3.47668
 30
0.000000
  70
    32
  0
VERTEX
  8
0
  5
F52
 10
1.78971
 20
3.61271
 30
0.000000
  70
    32
  0
VERTEX
  8
0
  5
F53
 10
1.66942
 20
3.74004
 30
0.000000
  70
    32
  0
VERTEX
  8
0
  5
F54
 10
1.54510
 20
3.85835
 30
0.000000
  70
    32
  0
VERTEX
  8
0
  5
F55
 10
1.41706
 20
3.96736
 30
0.000000
  70
    32
  0
VERTEX
  8
0
  5
F56
 10
1.28561
 20
4.06681
 30
0.000000
  70
    32
  0
VERTEX
  8
0
  5
F57
 10
1.15105
 20
4.15646
 30
0.000000
  70
    32
  0
VERTEX
  8
0
  5
F58
 10
1.01373
 20
4.23609
 30
0.000000
  70
    32
  0
VERTEX
  8
0
  5
F59
 10
0.873966
 20
4.30551
 30
0.000000
  70
    32
  0
VERTEX
  8
0
  5
F5A
 10
0.732094
 20
4.36455
 30
0.000000
  70
    32
  0
VERTEX
  8
0
  5
F5B
 10
0.588459
 20
4.41307
 30
0.000000
  70
    32
  0
VERTEX
  8
0
  5
F5C
 10
0.443407
 20
4.45095
 30
0.000000
  70
    32
  0
VERTEX
  8
0
  5
F5D
 10
0.297286
 20
4.47811
 30
0.000000
  70
    32
  0
VERTEX
  8
0
  5
F5E
 10
0.150449
 20
4.49447
 30
0.000000
  70
    32
  0
VERTEX
  8
0
  5
F5F
 10
0.00324965
 20
4.50000
 30
0.000000
  70
    32
  0
VERTEX
  8
0
  5
F60
 10
-0.143958
 20
4.49468
 30
0.000000
  70
    32
  0
VERTEX
  8
0
  5
F61
 10
-0.290818
 20
4.47853
 30
0.000000
  70
    32
  0
VERTEX
  8
0
  5
F62
 10
-0.436978
 20
4.45159
 30
0.000000
  70
    32
  0
VERTEX
  8
0
  5
F63
 10
-0.582085
 20
4.41391
 30
0.000000
  70
    32
  0
VERTEX
  8
0
  5
F64
 10
-0.725790
 20
4.36560
 30
0.000000
  70
    32
  0
VERTEX
  8
0
  5
F65
 10
-0.867747
 20
4.30677
 30
0.000000
  70
    32
  0
VERTEX
  8
0
  5
F66
 10
-1.00761
 20
4.23755
 30
0.000000
  70
    32
  0
VERTEX
  8
0
  5
F67
 10
-1.14505
 20
4.15812
 30
0.000000
  70
    32
  0
VERTEX
  8
0
  5
F68
 10
-1.27973
 20
4.06867
 30
0.000000
  70
    32
  0
VERTEX
  8
0
  5
F69
 10
-1.41133
 20
3.96941
 30
0.000000
  70
    32
  0
VERTEX
  8
0
  5
F6A
 10
-1.53953
 20
3.86058
 30
0.000000
  70
    32
  0
VERTEX
  8
0
  5
F6B
 10
-1.66401
 20
3.74245
 30
0.000000
  70
    32
  0
VERTEX
  8
0
  5
F6C
 10
-1.78449
 20
3.61530
 30
0.000000
  70
    32
  0
VERTEX
  8
0
  5
F6D
 10
-1.90067
 20
3.47943
 30
0.000000
  70
    32
  0
VERTEX
  8
0
  5
F6E
 10
-2.01228
 20
3.33517
 30
0.000000
  70
    32
  0
VERTEX
  8
0
  5
F6F
 10
-2.11903
 20
3.18288
 30
0.000000
  70
    32
  0
VERTEX
  8
0
  5
F70
 10
-2.22068
 20
3.02291
 30
0.000000
  70
    32
  0
VERTEX
  8
0
  5
F71
 10
-2.31698
 20
2.85565
 30
0.000000
  70
    32
  0
VERTEX
  8
0
  5
F72
 10
-2.40770
 20
2.68151
 30
0.000000
  70
    32
  0
VERTEX
  8
0
  5
F73
 10
-2.49261
 20
2.50091
 30
0.000000
  70
    32
  0
VERTEX
  8
0
  5
F74
 10
-2.57153
 20
2.31427
 30
0.000000
  70
    32
  0
VERTEX
  8
0
  5
F75
 10
-2.64424
 20
2.12205
 30
0.000000
  70
    32
  0
VERTEX
  8
0
  5
F76
 10
-2.71059
 20
1.92472
 30
0.000000
  70
    32
  0
VERTEX
  8
0
  5
F77
 10
-2.77041
 20
1.72274
 30
0.000000
  70
    32
  0
VERTEX
  8
0
  5
F78
 10
-2.82355
 20
1.51661
 30
0.000000
  70
    32
  0
VERTEX
  8
0
  5
F79
 10
-2.86989
 20
1.30682
 30
0.000000
  70
    32
  0
VERTEX
  8
0
  5
F7A
 10
-2.90932
 20
1.09387
 30
0.000000
  70
    32
  0
VERTEX
  8
0
  5
F7B
 10
-2.94174
 20
0.878288
 30
0.000000
  70
    32
  0
VERTEX
  8
0
  5
F7C
 10
-2.96707
 20
0.660582
 30
0.000000
  70
    32
  0
VERTEX
  8
0
  5
F7D
 10
-2.98525
 20
0.441279
 30
0.000000
  70
    32
  0
VERTEX
  8
0
  5
F7E
 10
-2.99624
 20
0.220908
 30
0.000000
  70
    32
  0
VERTEX
  8
0
  5
F7F
 10
-3.00002
 20
8.39172e-016
 30
0.000000
  70
    32
  0
VERTEX
  8
0
  5
F80
 10
-2.99656
 20
-0.220914
 30
0.000000
  70
    32
  0
VERTEX
  8
0
  5
F81
 10
-2.98589
 20
-0.441300
 30
0.000000
  70
    32
  0
VERTEX
  8
0
  5
F82
 10
-2.96802
 20
-0.660629
 30
0.000000
  70
    32
  0
VERTEX
  8
0
  5
F83
 10
-2.94301
 20
-0.878371
 30
0.000000
  70
    32
  0
VERTEX
  8
0
  5
F84
 10
-2.91090
 20
-1.09400
 30
0.000000
  70
    32
  0
VERTEX
  8
0
  5
F85
 10
-2.87178
 20
-1.30700
 30
0.000000
  70
    32
  0
VERTEX
  8
0
  5
F86
 10
-2.82574
 20
-1.51686
 30
0.000000
  70
    32
  0
VERTEX
  8
0
  5
F87
 10
-2.77290
 20
-1.72307
 30
0.000000
  70
    32
  0
VERTEX
  8
0
  5
F88
 10
-2.71338
 20
-1.92513
 30
0.000000
  70
    32
  0
VERTEX
  8
0
  5
F89
 10
-2.64731
 20
-2.12256
 30
0.000000
  70
    32
  0
VERTEX
  8
0
  5
F8A
 10
-2.57488
 20
-2.31489
 30
0.000000
  70
    32
  0
VERTEX
  8
0
  5
F8B
 10
-2.49623
 20
-2.50164
 30
0.000000
  70
    32
  0
VERTEX
  8
0
  5
F8C
 10
-2.41158
 20
-2.68237
 30
0.000000
  70
    32
  0
VERTEX
  8
0
  5
F8D
 10
-2.32111
 20
-2.85664
 30
0.000000
  70
    32
  0
VERTEX
  8
0
  5
F8E
 10
-2.22505
 20
-3.02403
 30
0.000000
  70
    32
  0
VERTEX
  8
0
  5
F8F
 10
-2.12364
 20
-3.18415
 30
0.000000
  70
    32
  0
VERTEX
  8
0
  5
F90
 10
-2.01710
 20
-3.33660
 30
0.000000
  70
    32
  0
VERTEX
  8
0
  5
F91
 10
-1.90571
 20
-3.48102
 30
0.000000
  70
    32
  0
VERTEX
  8
0
  5
F92
 10
-1.78973
 20
-3.61705
 30
0.000000
  70
    32
  0
VERTEX
  8
0
  5
F93
 10
-1.66943
 20
-3.74438
 30
0.000000
  70
    32
  0
VERTEX
  8
0
  5
F94
 10
-1.54511
 20
-3.86269
 30
0.000000
  70
    32
  0
VERTEX
  8
0
  5
F95
 10
-1.41708
 20
-3.97171
 30
0.000000
  70
    32
  0
VERTEX
  8
0
  5
F96
 10
-1.28562
 20
-4.07116
 30
0.000000
  70
    32
  0
VERTEX
  8
0
  5
F97
 10
-1.15107
 20
-4.16080
 30
0.000000
  70
    32
  0
VERTEX
  8
0
  5
F98
 10
-1.01375
 20
-4.24043
 30
0.000000
  70
    32
  0
VERTEX
  8
0
  5
F99
 10
-0.873982
 20
-4.30985
 30
0.000000
  70
    32
  0
VERTEX
  8
0
  5
F9A
 10
-0.732111
 20
-4.36889
 30
0.000000
  70
    32
  0
VERTEX
  8
0
  5
F9B
 10
-0.588476
 20
-4.41741
 30
0.000000
  70
    32
  0
VERTEX
  8
0
  5
F9C
 10
-0.443423
 20
-4.45529
 30
0.000000
  70
    32
  0
VERTEX
  8
0
  5
F9D
 10
-0.297302
 20
-4.48245
 30
0.000000
  70
    32
  0
VERTEX
  8
0
  5
F9E
 10
-0.150465
 20
-4.49881
 30
0.000000
  70
    32
  0
VERTEX
  8
0
  5
F9F
 10
-0.00326598
 20
-4.50434
 30
0.000000
  70
    32
  0
SEQEND
  8
0
  5
FA0
  0
POLYLINE
  5
F0F
  8
0
  6
CONTINUOUS
 62
     7
 10
-0.0104243780001056
 20
-5.014537070385205
 30
0.0
 66
     1
 70
     8
  0
VERTEX
  8
0
  5
FA1
 10
-0.0104244
 20
-5.01454
 30
0.000000
  70
    32
  0
VERTEX
  8
0
  5
FA2
 10
0.161325
 20
-5.00886
 30
0.000000
  70
    32
  0
VERTEX
  8
0
  5
FA3
 10
0.332686
 20
-4.99114
 30
0.000000
  70
    32
  0
VERTEX
  8
0
  5
FA4
 10
0.503245
 20
-4.96141
 30
0.000000
  70
    32
  0
VERTEX
  8
0
  5
FA5
 10
0.672592
 20
-4.91974
 30
0.000000
  70
    32
  0
VERTEX
  8
0
  5
FA6
 10
0.840319
 20
-4.86624
 30
0.000000
  70
    32
  0
VERTEX
  8
0
  5
FA7
 10
1.00602
 20
-4.80104
 30
0.000000
  70
    32
  0
VERTEX
  8
0
  5
FA8
 10
1.16930
 20
-4.72428
 30
0.000000
  70
    32
  0
VERTEX
  8
0
  5
FA9
 10
1.32976
 20
-4.63617
 30
0.000000
  70
    32
  0
VERTEX
  8
0
  5
FAA
 10
1.48702
 20
-4.53690
 30
0.000000
  70
    32
  0
VERTEX
  8
0
  5
FAB
 10
1.64069
 20
-4.42671
 30
0.000000
  70
    32
  0
VERTEX
  8
0
  5
FAC
 10
1.79042
 20
-4.30589
 30
0.000000
  70
    32
  0
VERTEX
  8
0
  5
FAD
 10
1.93583
 20
-4.17470
 30
0.000000
  70
    32
  0
VERTEX
  8
0
  5
FAE
 10
2.07657
 20
-4.03348
 30
0.000000
  70
    32
  0
VERTEX
  8
0
  5
FAF
 10
2.21232
 20
-3.88256
 30
0.000000
  70
    32
  0
VERTEX
  8
0
  5
FB0
 10
2.34273
 20
-3.72230
 30
0.000000
  70
    32
  0
VERTEX
  8
0
  5
FB1
 10
2.46750
 20
-3.55309
 30
0.000000
  70
    32
  0
VERTEX
  8
0
  5
FB2
 10
2.58632
 20
-3.37534
 30
0.000000
  70
    32
  0
VERTEX
  8
0
  5
FB3
 10
2.69892
 20
-3.18947
 30
0.000000
  70
    32
  0
VERTEX
  8
0
  5
FB4
 10
2.80501
 20
-2.99594
 30
0.000000
  70
    32
  0
VERTEX
  8
0
  5
FB5
 10
2.90435
 20
-2.79521
 30
0.000000
  70
    32
  0
VERTEX
  8
0
  5
FB6
 10
2.99669
 20
-2.58776
 30
0.000000
  70
    32
  0
VERTEX
  8
0
  5
FB7
 10
3.08180
 20
-2.37410
 30
0.000000
  70
    32
  0
VERTEX
  8
0
  5
FB8
 10
3.15950
 20
-2.15473
 30
0.000000
  70
    32
  0
VERTEX
  8
0
  5
FB9
 10
3.22958
 20
-1.93019
 30
0.000000
  70
    32
  0
VERTEX
  8
0
  5
FBA
 10
3.29188
 20
-1.70102
 30
0.000000
  70
    32
  0
VERTEX
  8
0
  5
FBB
 10
3.34626
 20
-1.46777
 30
0.000000
  70
    32
  0
VERTEX
  8
0
  5
FBC
 10
3.39257
 20
-1.23100
 30
0.000000
  70
    32
  0
VERTEX
  8
0
  5
FBD
 10
3.43070
 20
-0.991277
 30
0.000000
  70
    32
  0
VERTEX
  8
0
  5
FBE
 10
3.46058
 20
-0.749187
 30
0.000000
  70
    32
  0
VERTEX
  8
0
  5
FBF
 10
3.48211
 20
-0.505310
 30
0.000000
  70
    32
  0
VERTEX
  8
0
  5
FC0
 10
3.49526
 20
-0.260234
 30
0.000000
  70
    32
  0
VERTEX
  8
0
  5
FC1
 10
3.49999
 20
-0.0145479
 30
0.000000
  70
    32
  0
VERTEX
  8
0
  5
FC2
 10
3.49628
 20
0.231156
 30
0.000000
  70
    32
  0
VERTEX
  8
0
  5
FC3
 10
3.48415
 20
0.476285
 30
0.000000
  70
    32
  0
VERTEX
  8
0
  5
FC4
 10
3.46363
 20
0.720249
 30
0.000000
  70
    32
  0
VERTEX
  8
0
  5
FC5
 10
3.43476
 20
0.962460
 30
0.000000
  70
    32
  0
VERTEX
  8
0
  5
FC6
 10
3.39762
 20
1.20234
 30
0.000000
  70
    32
  0
VERTEX
  8
0
  5
FC7
 10
3.35230
 20
1.43930
 30
0.000000
  70
    32
  0
VERTEX
  8
0
  5
FC8
 10
3.29890
 20
1.67277
 30
0.000000
  70
    32
  0
VERTEX
  8
0
  5
FC9
 10
3.23755
 20
1.90220
 30
0.000000
  70
    32
  0
VERTEX
  8
0
  5
FCA
 10
3.16840
 20
2.12703
 30
0.000000
  70
    32
  0
VERTEX
  8
0
  5
FCB
 10
3.09162
 20
2.34672
 30
0.000000
  70
    32
  0
VERTEX
  8
0
  5
FCC
 10
3.00739
 20
2.56073
 30
0.000000
  70
    32
  0
VERTEX
  8
0
  5
FCD
 10
2.91591
 20
2.76856
 30
0.000000
  70
    32
  0
VERTEX
  8
0
  5
FCE
 10
2.81741
 20
2.96971
 30
0.000000
  70
    32
  0
VERTEX
  8
0
  5
FCF
 10
2.71212
 20
3.16368
 30
0.000000
  70
    32
  0
VERTEX
  8
0
  5
FD0
 10
2.60030
 20
3.35001
 30
0.000000
  70
    32
  0
VERTEX
  8
0
  5
FD1
 10
2.48222
 20
3.52825
 30
0.000000
  70
    32
  0
VERTEX
  8
0
  5
FD2
 10
2.35815
 20
3.69798
 30
0.000000
  70
    32
  0
VERTEX
  8
0
  5
FD3
 10
2.22840
 20
3.85878
 30
0.000000
  70
    32
  0
VERTEX
  8
0
  5
FD4
 10
2.09329
 20
4.01026
 30
0.000000
  70
    32
  0
VERTEX
  8
0
  5
FD5
 10
1.95313
 20
4.15207
 30
0.000000
  70
    32
  0
VERTEX
  8
0
  5
FD6
 10
1.80827
 20
4.28386
 30
0.000000
  70
    32
  0
VERTEX
  8
0
  5
FD7
 10
1.65905
 20
4.40531
 30
0.000000
  70
    32
  0
VERTEX
  8
0
  5
FD8
 10
1.50583
 20
4.51613
 30
0.000000
  70
    32
  0
VERTEX
  8
0
  5
FD9
 10
1.34899
 20
4.61605
 30
0.000000
  70
    32
  0
VERTEX
  8
0
  5
FDA
 10
1.18890
 20
4.70483
 30
0.000000
  70
    32
  0
VERTEX
  8
0
  5
FDB
 10
1.02594
 20
4.78227
 30
0.000000
  70
    32
  0
VERTEX
  8
0
  5
FDC
 10
0.860508
 20
4.84816
 30
0.000000
  70
    32
  0
VERTEX
  8
0
  5
FDD
 10
0.693005
 20
4.90236
 30
0.000000
  70
    32
  0
VERTEX
  8
0
  5
FDE
 10
0.523833
 20
4.94473
 30
0.000000
  70
    32
  0
VERTEX
  8
0
  5
FDF
 10
0.353399
 20
4.97516
 30
0.000000
  70
    32
  0
VERTEX
  8
0
  5
FE0
 10
0.182113
 20
4.99360
 30
0.000000
  70
    32
  0
VERTEX
  8
0
  5
FE1
 10
0.0103885
 20
4.99999
 30
0.000000
  70
    32
  0
VERTEX
  8
0
  5
FE2
 10
-0.161361
 20
4.99431
 30
0.000000
  70
    32
  0
VERTEX
  8
0
  5
FE3
 10
-0.332722
 20
4.97659
 30
0.000000
  70
    32
  0
VERTEX
  8
0
  5
FE4
 10
-0.503281
 20
4.94686
 30
0.000000
  70
    32
  0
VERTEX
  8
0
  5
FE5
 10
-0.672628
 20
4.90520
 30
0.000000
  70
    32
  0
VERTEX
  8
0
  5
FE6
 10
-0.840355
 20
4.85170
 30
0.000000
  70
    32
  0
VERTEX
  8
0
  5
FE7
 10
-1.00606
 20
4.78649
 30
0.000000
  70
    32
  0
VERTEX
  8
0
  5
FE8
 10
-1.16934
 20
4.70974
 30
0.000000
  70
    32
  0
VERTEX
  8
0
  5
FE9
 10
-1.32980
 20
4.62162
 30
0.000000
  70
    32
  0
VERTEX
  8
0
  5
FEA
 10
-1.48705
 20
4.52235
 30
0.000000
  70
    32
  0
VERTEX
  8
0
  5
FEB
 10
-1.64073
 20
4.41217
 30
0.000000
  70
    32
  0
VERTEX
  8
0
  5
FEC
 10
-1.79045
 20
4.29134
 30
0.000000
  70
    32
  0
VERTEX
  8
0
  5
FED
 10
-1.93586
 20
4.16015
 30
0.000000
  70
    32
  0
VERTEX
  8
0
  5
FEE
 10
-2.07661
 20
4.01893
 30
0.000000
  70
    32
  0
VERTEX
  8
0
  5
FEF
 10
-2.21235
 20
3.86801
 30
0.000000
  70
    32
  0
VERTEX
  8
0
  5
FF0
 10
-2.34277
 20
3.70775
 30
0.000000
  70
    32
  0
VERTEX
  8
0
  5
FF1
 10
-2.46754
 20
3.53854
 30
0.000000
  70
    32
  0
VERTEX
  8
0
  5
FF2
 10
-2.58636
 20
3.36079
 30
0.000000
  70
    32
  0
VERTEX
  8
0
  5
FF3
 10
-2.69896
 20
3.17492
 30
0.000000
  70
    32
  0
VERTEX
  8
0
  5
FF4
 10
-2.80505
 20
2.98139
 30
0.000000
  70
    32
  0
VERTEX
  8
0
  5
FF5
 10
-2.90438
 20
2.78066
 30
0.000000
  70
    32
  0
VERTEX
  8
0
  5
FF6
 10
-2.99672
 20
2.57321
 30
0.000000
  70
    32
  0
VERTEX
  8
0
  5
FF7
 10
-3.08184
 20
2.35955
 30
0.000000
  70
    32
  0
VERTEX
  8
0
  5
FF8
 10
-3.15953
 20
2.14018
 30
0.000000
  70
    32
  0
VERTEX
  8
0
  5
FF9
 10
-3.22962
 20
1.91564
 30
0.000000
  70
    32
  0
VERTEX
  8
0
  5
FFA
 10
-3.29192
 20
1.68647
 30
0.000000
  70
    32
  0
VERTEX
  8
0
  5
FFB
 10
-3.34629
 20
1.45322
 30
0.000000
  70
    32
  0
VERTEX
  8
0
  5
FFC
 10
-3.39260
 20
1.21645
 30
0.000000
  70
    32
  0
VERTEX
  8
0
  5
FFD
 10
-3.43074
 20
0.976729
 30
0.000000
  70
    32
  0
VERTEX
  8
0
  5
FFE
 10
-3.46061
 20
0.734639
 30
0.000000
  70
    32
  0
VERTEX
  8
0
  5
FFF
 10
-3.48215
 20
0.490763
 30
0.000000
  70
    32
  0
VERTEX
  8
0
  5
1000
 10
-3.49529
 20
0.245686
 30
0.000000
  70
    32
  0
VERTEX
  8
0
  5
1001
 10
-3.50002
 20
9.48894e-016
 30
0.000000
  70
    32
  0
VERTEX
  8
0
  5
1002
 10
-3.49632
 20
-0.245704
 30
0.000000
  70
    32
  0
VERTEX
  8
0
  5
1003
 10
-3.48419
 20
-0.490833
 30
0.000000
  70
    32
  0
VERTEX
  8
0
  5
1004
 10
-3.46367
 20
-0.734797
 30
0.000000
  70
    32
  0
VERTEX
  8
0
  5
1005
 10
-3.43480
 20
-0.977008
 30
0.000000
  70
    32
  0
VERTEX
  8
0
  5
1006
 10
-3.39766
 20
-1.21688
 30
0.000000
  70
    32
  0
VERTEX
  8
0
  5
1007
 10
-3.35233
 20
-1.45384
 30
0.000000
  70
    32
  0
VERTEX
  8
0
  5
1008
 10
-3.29893
 20
-1.68732
 30
0.000000
  70
    32
  0
VERTEX
  8
0
  5
1009
 10
-3.23758
 20
-1.91675
 30
0.000000
  70
    32
  0
VERTEX
  8
0
  5
100A
 10
-3.16843
 20
-2.14158
 30
0.000000
  70
    32
  0
VERTEX
  8
0
  5
100B
 10
-3.09165
 20
-2.36127
 30
0.000000
  70
    32
  0
VERTEX
  8
0
  5
100C
 10
-3.00742
 20
-2.57528
 30
0.000000
  70
    32
  0
VERTEX
  8
0
  5
100D
 10
-2.91595
 20
-2.78311
 30
0.000000
  70
    32
  0
VERTEX
  8
0
  5
100E
 10
-2.81745
 20
-2.98425
 30
0.000000
  70
    32
  0
VERTEX
  8
0
  5
100F
 10
-2.71216
 20
-3.17823
 30
0.000000
  70
    32
  0
VERTEX
  8
0
  5
1010
 10
-2.60034
 20
-3.36456
 30
0.000000
  70
    32
  0
VERTEX
  8
0
  5
1011
 10
-2.48225
 20
-3.54280
 30
0.000000
  70
    32
  0
VERTEX
  8
0
  5
1012
 10
-2.35819
 20
-3.71253
 30
0.000000
  70
    32
  0
VERTEX
  8
0
  5
1013
 10
-2.22844
 20
-3.87333
 30
0.000000
  70
    32
  0
VERTEX
  8
0
  5
1014
 10
-2.09333
 20
-4.02481
 30
0.000000
  70
    32
  0
VERTEX
  8
0
  5
1015
 10
-1.95317
 20
-4.16662
 30
0.000000
  70
    32
  0
VERTEX
  8
0
  5
1016
 10
-1.80831
 20
-4.29841
 30
0.000000
  70
    32
  0
VERTEX
  8
0
  5
1017
 10
-1.65909
 20
-4.41986
 30
0.000000
  70
    32
  0
VERTEX
  8
0
  5
1018
 10
-1.50587
 20
-4.53068
 30
0.000000
  70
    32
  0
VERTEX
  8
0
  5
1019
 10
-1.34903
 20
-4.63060
 30
0.000000
  70
    32
  0
VERTEX
  8
0
  5
101A
 10
-1.18893
 20
-4.71938
 30
0.000000
  70
    32
  0
VERTEX
  8
0
  5
101B
 10
-1.02597
 20
-4.79681
 30
0.000000
  70
    32
  0
VERTEX
  8
0
  5
101C
 10
-0.860544
 20
-4.86271
 30
0.000000
  70
    32
  0
VERTEX
  8
0
  5
101D
 10
-0.693041
 20
-4.91690
 30
0.000000
  70
    32
  0
VERTEX
  8
0
  5
101E
 10
-0.523869
 20
-4.95927
 30
0.000000
  70
    32
  0
VERTEX
  8
0
  5
101F
 10
-0.353435
 20
-4.98971
 30
0.000000
  70
    32
  0
VERTEX
  8
0
  5
1020
 10
-0.182149
 20
-5.00815
 30
0.000000
  70
    32
  0
VERTEX
  8
0
  5
1021
 10
-0.0104244
 20
-5.01454
 30
0.000000
  70
    32
  0
SEQEND
  8
0
  5
1022
  0
ENDSEC
  0
EOF
