  0
SECTION
  2
HEADER
  9
$ACADVER
  1
AC1009
  9
$INSBASE
 10
0.0
 20
0.0
 30
0.0
  9
$EXTMIN
 10
37.44598490820033
 20
58.633209988280669
 30
-0.0015258207003583
  9
$EXTMAX
 10
231.05255202745619
 20
203.10891781853149
 30
0.0000000349246037
  9
$LIMMIN
 10
0.0
 20
0.0
  9
$LIMMAX
 10
420.0
 20
297.0
  9
$ORTHOMODE
 70
     0
  9
$REGENMODE
 70
     1
  9
$FILLMODE
 70
     1
  9
$QTEXTMODE
 70
     0
  9
$MIRRTEXT
 70
     1
  9
$DRAGMODE
 70
     2
  9
$LTSCALE
 40
0.25
  9
$OSMODE
 70
   691
  9
$ATTMODE
 70
     1
  9
$TEXTSIZE
 40
4.0
  9
$TRACEWID
 40
1.0
  9
$TEXTSTYLE
  7
STANDARD
  9
$CLAYER
  8
0
  9
$CELTYPE
  6
BYLAYER
  9
$CECOLOR
 62
   256
  9
$DIMSCALE
 40
1.0
  9
$DIMASZ
 40
0.18
  9
$DIMEXO
 40
0.0625
  9
$DIMDLI
 40
0.38
  9
$DIMRND
 40
0.0
  9
$DIMDLE
 40
0.0
  9
$DIMEXE
 40
0.18
  9
$DIMTP
 40
0.0
  9
$DIMTM
 40
0.0
  9
$DIMTXT
 40
3.2000000000000002
  9
$DIMCEN
 40
0.09
  9
$DIMTSZ
 40
0.0
  9
$DIMTOL
 70
     0
  9
$DIMLIM
 70
     0
  9
$DIMTIH
 70
     1
  9
$DIMTOH
 70
     1
  9
$DIMSE1
 70
     0
  9
$DIMSE2
 70
     0
  9
$DIMTAD
 70
     0
  9
$DIMZIN
 70
     0
  9
$DIMBLK
  1

  9
$DIMASO
 70
     1
  9
$DIMSHO
 70
     1
  9
$DIMPOST
  1

  9
$DIMAPOST
  1

  9
$DIMALT
 70
     0
  9
$DIMALTD
 70
     2
  9
$DIMALTF
 40
25.399999999999999
  9
$DIMLFAC
 40
1.0
  9
$DIMTOFL
 70
     0
  9
$DIMTVP
 40
0.0
  9
$DIMTIX
 70
     0
  9
$DIMSOXD
 70
     0
  9
$DIMSAH
 70
     0
  9
$DIMBLK1
  1

  9
$DIMBLK2
  1

  9
$DIMSTYLE
  2
STANDARD
  9
$DIMCLRD
 70
     0
  9
$DIMCLRE
 70
     0
  9
$DIMCLRT
 70
     0
  9
$DIMTFAC
 40
1.0
  9
$DIMGAP
 40
0.09
  9
$LUNITS
 70
     2
  9
$LUPREC
 70
     2
  9
$SKETCHINC
 40
1.0
  9
$FILLETRAD
 40
0.6
  9
$AUNITS
 70
     0
  9
$AUPREC
 70
     0
  9
$MENU
  1
acad
  9
$ELEVATION
 40
0.0
  9
$PELEVATION
 40
0.0
  9
$THICKNESS
 40
0.0
  9
$LIMCHECK
 70
     0
  9
$BLIPMODE
 70
     0
  9
$CHAMFERA
 40
0.0
  9
$CHAMFERB
 40
0.0
  9
$SKPOLY
 70
     0
  9
$TDCREATE
 40
2451466.9875325458
  9
$TDUPDATE
 40
2454511.4565345719
  9
$TDINDWG
 40
0.1125598843
  9
$TDUSRTIMER
 40
0.112554456
  9
$USRTIMER
 70
     1
  9
$ANGBASE
 50
0.0
  9
$ANGDIR
 70
     0
  9
$PDMODE
 70
     1
  9
$PDSIZE
 40
0.0
  9
$PLINEWID
 40
0.0
  9
$COORDS
 70
     1
  9
$SPLFRAME
 70
     0
  9
$SPLINETYPE
 70
     6
  9
$SPLINESEGS
 70
     8
  9
$ATTDIA
 70
     0
  9
$ATTREQ
 70
     1
  9
$HANDLING
 70
     1
  9
$HANDSEED
  5
1F5B
  9
$SURFTAB1
 70
     6
  9
$SURFTAB2
 70
     6
  9
$SURFTYPE
 70
     6
  9
$SURFU
 70
     6
  9
$SURFV
 70
     6
  9
$UCSNAME
  2

  9
$UCSORG
 10
0.0
 20
0.0
 30
0.0
  9
$UCSXDIR
 10
1.0
 20
0.0
 30
0.0
  9
$UCSYDIR
 10
0.0
 20
1.0
 30
0.0
  9
$PUCSNAME
  2

  9
$PUCSORG
 10
0.0
 20
0.0
 30
0.0
  9
$PUCSXDIR
 10
1.0
 20
0.0
 30
0.0
  9
$PUCSYDIR
 10
0.0
 20
1.0
 30
0.0
  9
$USERI1
 70
     0
  9
$USERI2
 70
     0
  9
$USERI3
 70
     0
  9
$USERI4
 70
     0
  9
$USERI5
 70
     0
  9
$USERR1
 40
0.0
  9
$USERR2
 40
0.0
  9
$USERR3
 40
0.0
  9
$USERR4
 40
0.0
  9
$USERR5
 40
0.0
  9
$WORLDVIEW
 70
     1
  9
$SHADEDGE
 70
     3
  9
$SHADEDIF
 70
    70
  9
$TILEMODE
 70
     1
  9
$MAXACTVP
 70
    16
  9
$PLIMCHECK
 70
     0
  9
$PEXTMIN
 10
1.0000000000000000E+020
 20
1.0000000000000000E+020
 30
1.0000000000000000E+020
  9
$PEXTMAX
 10
-1.0000000000000000E+020
 20
-1.0000000000000000E+020
 30
-1.0000000000000000E+020
  9
$PLIMMIN
 10
0.0
 20
0.0
  9
$PLIMMAX
 10
420.0
 20
297.0
  9
$UNITMODE
 70
     0
  9
$VISRETAIN
 70
     0
  9
$PLINEGEN
 70
     0
  9
$PSLTSCALE
 70
     0
  0
ENDSEC
  0
SECTION
  2
TABLES
  0
TABLE
  2
VPORT
 70
     1
  0
VPORT
  2
*ACTIVE
 70
     0
 10
0.0
 20
0.0
 11
1.0
 21
1.0
 12
134.24926846782819
 22
130.87106390340611
 13
0.0
 23
0.0
 14
10.0
 24
10.0
 15
0.0
 25
0.0
 16
0.0
 26
0.0
 36
1.0
 17
0.0
 27
0.0
 37
0.0
 40
145.6148067093329
 41
1.6552631578947361
 42
50.0
 43
0.0
 44
0.0
 50
0.0
 51
0.0
 71
     0
 72
   100
 73
     1
 74
     0
 75
     0
 76
     0
 77
     0
 78
     1
  0
ENDTAB
  0
TABLE
  2
LTYPE
 70
     9
  0
LTYPE
  2
CONTINUOUS
 70
     0
  3
Solid line
 72
    65
 73
     0
 40
0.0
  0
LTYPE
  2
CENTER
 70
     0
  3
____ _ ____ _ ____ _ ____ _ ____ _ ____ _ ____ 
 72
    65
 73
     4
 40
50.799999999999997
 49
31.75
 49
-6.349999999999997
 49
6.349999999999997
 49
-6.349999999999997
  0
LTYPE
  2
DASHED
 70
     0
  3
__ __ __ __ __ __ __ __ __ __ __ __ __ __ __ __
 72
    65
 73
     2
 40
19.049999999999962
 49
12.699999999999999
 49
-6.349999999999997
  0
LTYPE
  2
AMCONSTR
 70
     0
  3
_______________________
 72
    65
 73
     2
 40
9999.0
 49
9999.0
 49
0.0
  0
LTYPE
  2
HIDDEN
 70
     0
  3
Hidden __ __ __ __ __ __ __ __ __ __ __ __ __ _
 72
    65
 73
     2
 40
0.375
 49
0.25
 49
-0.125
  0
LTYPE
  2
PHANTOM2
 70
     0
  3
Phantom (.5x) ___ _ _ ___ _ _ ___ _ _ ___ _ _
 72
    65
 73
     6
 40
1.25
 49
0.625
 49
-0.125
 49
0.125
 49
-0.125
 49
0.125
 49
-0.125
  0
LTYPE
  2
HIDDEN2
 70
     0
  3
Hidden (.5x) _ _ _ _ _ _ _ _ _ _ _ _ _ _ _ _ _
 72
    65
 73
     2
 40
0.1875
 49
0.125
 49
-0.0625
  0
LTYPE
  2
CENTER2
 70
     0
  3
Center (.5x) ___ _ ___ _ ___ _ ___ _ ___ _ ___
 72
    65
 73
     4
 40
1.125
 49
0.75
 49
-0.125
 49
0.125
 49
-0.125
  0
LTYPE
  2
AMZIGZAG2
 70
     0
  3
/\/-/\/-/\/-/\/-/\/-/\/
 72
    65
 73
     2
 40
0.4401
 49
0.0001
 49
-0.4400000000000003
  0
ENDTAB
  0
TABLE
  2
LAYER
 70
     2
  0
LAYER
  2
0
 70
     0
 62
     7
  6
CONTINUOUS
  0
LAYER
  2
CENTER
 70
     0
 62
     1
  6
CENTER
  0
ENDTAB
  0
TABLE
  2
STYLE
 70
     3
  0
STYLE
  2
STANDARD
 70
     0
 40
0.0
 41
1.0
 50
0.0
 71
     0
 42
4.0
  3
txt.shx
  4

  0
STYLE
  2

 70
     1
 40
0.0
 41
1.0
 50
0.0
 71
     0
 42
4.0
  3
ltypeshp.shx
  4

  0
STYLE
  2
ADPROMAND
 70
     0
 40
0.0
 41
1.0
 50
0.0
 71
     0
 42
2.5
  3
romand.shx
  4

  0
ENDTAB
  0
TABLE
  2
VIEW
 70
     0
  0
ENDTAB
  0
TABLE
  2
UCS
 70
     0
  0
ENDTAB
  0
TABLE
  2
APPID
 70
    14
  0
APPID
  2
ACAD
 70
     0
  0
APPID
  2
MCAD_NO_VIS
 70
     0
  0
APPID
  2
ACAD_TEMP_GRAPHIC
 70
     0
  0
APPID
  2
AD_DRAW
 70
     0
  0
APPID
  2
ACATTRIBSERVICES
 70
     0
  0
APPID
  2
ASURF_PCURVE_APPNAME
 70
     0
  0
APPID
  2
GENIUS_GENDIM_13
 70
     0
  0
APPID
  2
GENIUS_GENDTOL_13
 70
     0
  0
APPID
  2
GENIUS_GE3DTOL_13
 70
     0
  0
APPID
  2
DESIGNERASSEMBLIES
 70
     0
  0
APPID
  2
ACADM_DIM_EDIT
 70
     0
  0
APPID
  2
G3V_ENTHND
 70
     0
  0
APPID
  2
GENIUS_GENODEF_13
 70
     0
  0
APPID
  2
GENIUS_GENOBJ-N-FIL_13
 70
     0
  0
ENDTAB
  0
TABLE
  2
DIMSTYLE
 70
     1
  0
DIMSTYLE
  2
STANDARD
 70
     0
  3

  4

  5

  6

  7

 40
1.0
 41
0.18
 42
0.0625
 43
0.38
 44
0.18
 45
0.0
 46
0.0
 47
0.0
 48
0.0
140
0.18
141
0.09
142
0.0
143
25.399999999999999
144
1.0
145
0.0
146
1.0
147
0.09
 71
     0
 72
     0
 73
     1
 74
     1
 75
     0
 76
     0
 77
     0
 78
     0
170
     0
171
     2
172
     0
173
     0
174
     0
175
     0
176
     0
177
     0
178
     0
  0
ENDTAB
  0
ENDSEC
  0
SECTION
  2
BLOCKS
  0
BLOCK
  8
0
  2
$MODEL_SPACE
 70
     0
 10
0.0
 20
0.0
 30
0.0
  3
$MODEL_SPACE
  1

  0
ENDBLK
  5
1F00
  8
0
  0
BLOCK
 67
     1
  8
0
  2
$PAPER_SPACE
 70
     0
 10
0.0
 20
0.0
 30
0.0
  3
$PAPER_SPACE
  1

  0
ENDBLK
  5
1EFC
 67
     1
  8
0
  0
BLOCK
  8
0
  2
*U2
 70
     1
 10
0.0
 20
0.0
 30
0.0
  3
*U2
  1

  0
ENDBLK
  5
1E1
  8
0
  0
ENDSEC
  0
SECTION
  2
ENTITIES
  0
TEXT
  5
C8
  8
0
 10
37.452811566916353
 20
73.646828377046177
 30
0.0
 40
4.0
  1
TTPA18-AT10250-A-P12
  0
TEXT
  5
C9
  8
0
 10
37.452811566916353
 20
58.64682837704617
 30
0.0
 40
4.0
  1
TTPA18-AT1025
  0
TEXT
  5
12E
  8
0
 10
114.5643329500964
 20
199.8975362088224
 30
0.0
 40
3.2000000000000002
  1
TYPE A
  0
TEXT
  5
12F
  8
0
 10
176.9731166904734
 20
199.4762237540769
 30
0.0
 40
3.2000000000000002
  1
TYPE B
  0
TEXT
  5
725
  8
0
 10
37.452811566916353
 20
66.718401260209134
 30
0.0
 40
4.0
  1
TTPA18-AT10250-B-P12
  0
LINE
  5
1DE5
  8
0
 10
180.7913482251225
 20
134.1041935800514
 30
0.0
 11
228.7913482251225
 21
134.1041935800514
 31
0.0
  0
LINE
  5
1DE6
  8
0
 10
213.2913482251225
 20
122.6041935800515
 30
0.0
 11
228.7913482251225
 21
122.6041935800515
 31
0.0
  0
LINE
  5
1DE7
  8
0
 10
213.2913482251225
 20
157.6041935800514
 30
0.0
 11
228.7913482251225
 21
157.6041935800514
 31
0.0
  0
LINE
  5
1DE8
  8
0
 10
180.7913482251225
 20
146.1041935800514
 30
0.0
 11
228.7913482251225
 21
146.1041935800514
 31
0.0
  0
LINE
  5
1DE9
  8
CENTER
 10
178.04134822512259
 20
140.1041935800514
 30
0.0
 11
231.0413482251225
 21
140.1041935800514
 31
0.0
  0
LINE
  5
1DEA
  8
0
 10
210.2913482251225
 20
167.82919358005151
 30
0.0
 11
211.034907234119
 21
170.6041935800514
 31
0.0
  0
LINE
  5
1DEB
  8
0
 10
211.89134822512261
 20
167.6185495839116
 30
0.0
 11
212.69134912277499
 21
170.6041935800514
 31
0.0
  0
LINE
  5
1DEC
  8
0
 10
182.19134822512251
 20
167.6185495839116
 30
0.0
 11
181.3913473274701
 21
170.6041935800514
 31
0.0
  0
LINE
  5
1DED
  8
0
 10
183.7913482251225
 20
167.82919358005151
 30
0.0
 11
183.04778921612609
 21
170.6041935800514
 31
0.0
  0
LINE
  5
1DEE
  8
0
 10
180.7913482251225
 20
140.1041935800514
 30
0.0
 11
180.7913482251225
 21
117.6041935800514
 31
0.0
  0
LINE
  5
1DEF
  8
0
 10
183.7913482251225
 20
117.6041935800514
 30
0.0
 11
183.7913482251225
 21
112.37919358005151
 31
0.0
  0
LINE
  5
1DF0
  8
0
 10
182.19134822512251
 20
117.6041935800514
 30
0.0
 11
182.19134822512251
 21
112.5898375761912
 31
0.0
  0
LINE
  5
1DF1
  8
0
 10
211.89134822512261
 20
117.6041935800514
 30
0.0
 11
211.89134822512261
 21
112.5898375761912
 31
0.0
  0
LINE
  5
1DF2
  8
0
 10
210.2913482251225
 20
117.6041935800514
 30
0.0
 11
210.2913482251225
 21
112.37919358005151
 31
0.0
  0
LINE
  5
1DF3
  8
0
 10
183.7913482251225
 20
112.37919358005151
 30
0.0
 11
183.04778921612609
 21
109.6041935800515
 31
0.0
  0
LINE
  5
1DF4
  8
CENTER
 10
181.0413482251225
 20
111.4541935800514
 30
0.0
 11
213.0413482251225
 21
111.4541935800514
 31
0.0
  0
LINE
  5
1DF5
  8
0
 10
182.19134822512251
 20
112.5898375761912
 30
0.0
 11
181.3913473274701
 21
109.6041935800515
 31
0.0
  0
LINE
  5
1DF6
  8
0
 10
183.04778921612609
 20
109.6041935800515
 30
0.0
 11
181.3913473274701
 21
109.6041935800515
 31
0.0
  0
LINE
  5
1DF7
  8
0
 10
211.89134822512261
 20
112.5898375761912
 30
0.0
 11
212.69134912277499
 21
109.6041935800515
 31
0.0
  0
LINE
  5
1DF8
  8
0
 10
210.2913482251225
 20
112.37919358005151
 30
0.0
 11
211.034907234119
 21
109.6041935800515
 31
0.0
  0
LINE
  5
1DF9
  8
0
 10
183.7913482251225
 20
112.37919358005151
 30
0.0
 11
210.2913482251225
 21
112.37919358005151
 31
0.0
  0
LINE
  5
1DFA
  8
0
 10
183.7913482251225
 20
115.5791935800514
 30
0.0
 11
210.2913482251225
 21
115.5791935800514
 31
0.0
  0
LINE
  5
1DFB
  8
0
 10
211.034907234119
 20
109.6041935800515
 30
0.0
 11
212.69134912277499
 21
109.6041935800515
 31
0.0
  0
LINE
  5
1DFC
  8
0
 10
180.7913482251225
 20
117.6041935800514
 30
0.0
 11
183.7913482251225
 21
117.6041935800514
 31
0.0
  0
LINE
  5
1DFD
  8
0
 10
213.2913482251225
 20
117.6041935800514
 30
0.0
 11
210.2913482251225
 21
117.6041935800514
 31
0.0
  0
LINE
  5
1DFE
  8
0
 10
213.2913482251225
 20
122.6041935800515
 30
0.0
 11
213.2913482251225
 21
117.6041935800514
 31
0.0
  0
LINE
  5
1DFF
  8
0
  6
DASHED
 62
     3
 10
218.0413482251225
 20
157.6041935800514
 30
0.0
 11
218.0413482251225
 21
146.1041935800514
 31
0.0
  0
LINE
  5
1E00
  8
0
  6
DASHED
 62
     3
 10
218.4413482251226
 20
157.6041935800514
 30
0.0
 11
218.4413482251226
 21
146.1041935800514
 31
0.0
  0
LINE
  5
1E01
  8
0
  6
DASHED
 62
     3
 10
221.64134822512261
 20
157.6041935800514
 30
0.0
 11
221.64134822512261
 21
146.1041935800514
 31
0.0
  0
LINE
  5
1E02
  8
0
  6
DASHED
 62
     3
 10
222.0413482251225
 20
157.6041935800514
 30
0.0
 11
222.0413482251225
 21
146.1041935800514
 31
0.0
  0
LINE
  5
1E03
  8
CENTER
 10
220.0413482251225
 20
163.1041935800514
 30
0.0
 11
220.0413482251225
 21
143.1041935800514
 31
0.0
  0
LINE
  5
1E04
  8
0
 10
180.7913482251225
 20
140.1041935800514
 30
0.0
 11
180.7913482251225
 21
162.6041935800514
 31
0.0
  0
LINE
  5
1E05
  8
CENTER
 10
181.0413482251225
 20
168.75419358005141
 30
0.0
 11
213.0413482251225
 21
168.75419358005141
 31
0.0
  0
LINE
  5
1E06
  8
0
 10
180.7913482251225
 20
162.6041935800514
 30
0.0
 11
183.7913482251225
 21
162.6041935800514
 31
0.0
  0
LINE
  5
1E07
  8
0
 10
182.19134822512251
 20
162.6041935800514
 30
0.0
 11
182.19134822512251
 21
167.6185495839116
 31
0.0
  0
LINE
  5
1E08
  8
0
 10
213.2913482251225
 20
157.6041935800514
 30
0.0
 11
213.2913482251225
 21
162.6041935800514
 31
0.0
  0
LINE
  5
1E09
  8
0
 10
183.7913482251225
 20
164.62919358005141
 30
0.0
 11
210.2913482251225
 21
164.62919358005141
 31
0.0
  0
LINE
  5
1E0A
  8
0
 10
213.2913482251225
 20
162.6041935800514
 30
0.0
 11
210.2913482251225
 21
162.6041935800514
 31
0.0
  0
LINE
  5
1E0B
  8
0
 10
210.2913482251225
 20
162.6041935800514
 30
0.0
 11
210.2913482251225
 21
167.82919358005151
 31
0.0
  0
LINE
  5
1E0C
  8
0
 10
211.89134822512261
 20
162.6041935800514
 30
0.0
 11
211.89134822512261
 21
167.6185495839116
 31
0.0
  0
LINE
  5
1E0D
  8
0
 10
183.7913482251225
 20
167.82919358005151
 30
0.0
 11
210.2913482251225
 21
167.82919358005151
 31
0.0
  0
LINE
  5
1E0E
  8
0
 10
183.7913482251225
 20
162.6041935800514
 30
0.0
 11
183.7913482251225
 21
167.82919358005151
 31
0.0
  0
LINE
  5
1E0F
  8
0
 10
183.04778921612609
 20
170.6041935800514
 30
0.0
 11
181.3913473274701
 21
170.6041935800514
 31
0.0
  0
LINE
  5
1E10
  8
0
 10
211.034907234119
 20
170.6041935800514
 30
0.0
 11
212.69134912277499
 21
170.6041935800514
 31
0.0
  0
LINE
  5
1E11
  8
0
 10
228.7913482251225
 20
122.6041935800515
 30
0.0
 11
228.7913482251225
 21
140.1041935800514
 31
0.0
  0
LINE
  5
1E12
  8
0
 10
228.7913482251225
 20
157.6041935800514
 30
0.0
 11
228.7913482251225
 21
140.1041935800514
 31
0.0
  0
LINE
  5
1E14
  8
CENTER
 10
111.613983306987
 20
140.1041935800514
 30
0.0
 11
149.61398330698711
 21
140.1041935800514
 31
0.0
  0
LINE
  5
1E15
  8
0
  6
DASHED
 62
     3
 10
127.613983306987
 20
164.62919358005141
 30
0.0
 11
127.613983306987
 21
156.00419358005141
 31
0.0
  0
LINE
  5
1E16
  8
0
  6
DASHED
 62
     3
 10
133.61398330698711
 20
164.62919358005141
 30
0.0
 11
133.61398330698711
 21
156.00419358005141
 31
0.0
  0
LINE
  5
1E17
  8
0
 10
114.363983306987
 20
140.1041935800514
 30
0.0
 11
114.363983306987
 21
162.6041935800514
 31
0.0
  0
LINE
  5
1E18
  8
0
 10
146.86398330698711
 20
140.1041935800514
 30
0.0
 11
146.86398330698711
 21
162.6041935800514
 31
0.0
  0
LINE
  5
1E19
  8
CENTER
 10
130.61398330698711
 20
168.75419358005141
 30
0.0
 11
130.61398330698711
 21
140.1041935800514
 31
0.0
  0
LINE
  5
1E1A
  8
0
 10
143.86398330698711
 20
117.6041935800514
 30
0.0
 11
143.86398330698711
 21
112.37919358005151
 31
0.0
  0
LINE
  5
1E1B
  8
0
 10
145.4639833069871
 20
117.6041935800514
 30
0.0
 11
145.4639833069871
 21
112.5898375761912
 31
0.0
  0
LINE
  5
1E1C
  8
0
 10
115.763983306987
 20
117.6041935800514
 30
0.0
 11
115.763983306987
 21
112.5898375761912
 31
0.0
  0
LINE
  5
1E1D
  8
0
 10
117.363983306987
 20
117.6041935800514
 30
0.0
 11
117.363983306987
 21
112.37919358005151
 31
0.0
  0
LINE
  5
1E1E
  8
CENTER
 10
114.613983306987
 20
111.4541935800514
 30
0.0
 11
146.61398330698711
 21
111.4541935800514
 31
0.0
  0
LINE
  5
1E1F
  8
0
 10
117.363983306987
 20
112.37919358005151
 30
0.0
 11
116.6204242979907
 21
109.6041935800515
 31
0.0
  0
LINE
  5
1E20
  8
0
 10
115.763983306987
 20
112.5898375761912
 30
0.0
 11
114.9639824093346
 21
109.6041935800515
 31
0.0
  0
LINE
  5
1E21
  8
0
 10
116.6204242979907
 20
109.6041935800515
 30
0.0
 11
114.9639824093346
 21
109.6041935800515
 31
0.0
  0
LINE
  5
1E22
  8
0
 10
143.86398330698711
 20
112.37919358005151
 30
0.0
 11
144.60754231598341
 21
109.6041935800515
 31
0.0
  0
LINE
  5
1E23
  8
0
 10
144.60754231598341
 20
109.6041935800515
 30
0.0
 11
146.26398420463951
 21
109.6041935800515
 31
0.0
  0
LINE
  5
1E24
  8
0
 10
145.4639833069871
 20
112.5898375761912
 30
0.0
 11
146.26398420463951
 21
109.6041935800515
 31
0.0
  0
LINE
  5
1E25
  8
0
 10
117.363983306987
 20
112.37919358005151
 30
0.0
 11
143.86398330698711
 21
112.37919358005151
 31
0.0
  0
LINE
  5
1E26
  8
0
 10
146.86398330698711
 20
140.1041935800514
 30
0.0
 11
146.86398330698711
 21
117.6041935800514
 31
0.0
  0
LINE
  5
1E27
  8
0
 10
114.363983306987
 20
140.1041935800514
 30
0.0
 11
114.363983306987
 21
117.6041935800514
 31
0.0
  0
LINE
  5
1E28
  8
0
 10
114.363983306987
 20
134.1041935800514
 30
0.0
 11
146.86398330698711
 21
134.1041935800514
 31
0.0
  0
LINE
  5
1E29
  8
0
 10
114.363983306987
 20
117.6041935800514
 30
0.0
 11
117.363983306987
 21
117.6041935800514
 31
0.0
  0
LINE
  5
1E2A
  8
0
 10
146.86398330698711
 20
117.6041935800515
 30
0.0
 11
143.86398330698711
 21
117.6041935800513
 31
0.0
  0
LINE
  5
1E2B
  8
0
 10
117.363983306987
 20
115.5791935800514
 30
0.0
 11
143.86398330698711
 21
115.5791935800514
 31
0.0
  0
LINE
  5
1E2C
  8
0
 10
114.363983306987
 20
146.1041935800514
 30
0.0
 11
146.86398330698711
 21
146.1041935800514
 31
0.0
  0
LINE
  5
1E2D
  8
0
  6
DASHED
 62
     3
 10
128.61398330698711
 20
156.00419358005141
 30
0.0
 11
128.61398330698711
 21
146.1041935800514
 31
0.0
  0
LINE
  5
1E2E
  8
0
  6
DASHED
 62
     3
 10
129.013983306987
 20
156.00419358005141
 30
0.0
 11
129.013983306987
 21
146.1041935800514
 31
0.0
  0
LINE
  5
1E2F
  8
0
  6
DASHED
 62
     3
 10
132.2139833069871
 20
156.00419358005141
 30
0.0
 11
132.2139833069871
 21
146.1041935800514
 31
0.0
  0
LINE
  5
1E30
  8
0
  6
DASHED
 62
     3
 10
132.61398330698711
 20
156.00419358005141
 30
0.0
 11
132.61398330698711
 21
146.1041935800514
 31
0.0
  0
LINE
  5
1E31
  8
0
  6
DASHED
 62
     3
 10
127.613983306987
 20
156.00419358005141
 30
0.0
 11
133.61398330698711
 21
156.00419358005141
 31
0.0
  0
LINE
  5
1E32
  8
0
 10
117.363983306987
 20
167.82919358005151
 30
0.0
 11
116.6204242979907
 21
170.6041935800514
 31
0.0
  0
LINE
  5
1E33
  8
0
 10
115.763983306987
 20
167.6185495839116
 30
0.0
 11
114.9639824093346
 21
170.6041935800514
 31
0.0
  0
LINE
  5
1E34
  8
0
 10
145.4639833069871
 20
167.6185495839116
 30
0.0
 11
146.26398420463951
 21
170.6041935800514
 31
0.0
  0
LINE
  5
1E35
  8
0
 10
143.86398330698711
 20
167.82919358005151
 30
0.0
 11
144.60754231598341
 21
170.6041935800514
 31
0.0
  0
LINE
  5
1E36
  8
0
 10
114.363983306987
 20
162.6041935800514
 30
0.0
 11
117.363983306987
 21
162.6041935800514
 31
0.0
  0
LINE
  5
1E37
  8
CENTER
 10
114.613983306987
 20
168.75419358005141
 30
0.0
 11
146.61398330698711
 21
168.75419358005141
 31
0.0
  0
LINE
  5
1E38
  8
0
 10
115.763983306987
 20
162.6041935800514
 30
0.0
 11
115.763983306987
 21
167.6185495839116
 31
0.0
  0
LINE
  5
1E39
  8
0
 10
117.363983306987
 20
162.6041935800514
 30
0.0
 11
117.363983306987
 21
167.82919358005151
 31
0.0
  0
LINE
  5
1E3A
  8
0
 10
117.363983306987
 20
167.82919358005151
 30
0.0
 11
143.86398330698711
 21
167.82919358005151
 31
0.0
  0
LINE
  5
1E3B
  8
0
 10
145.4639833069871
 20
162.6041935800514
 30
0.0
 11
145.4639833069871
 21
167.6185495839116
 31
0.0
  0
LINE
  5
1E3C
  8
0
 10
143.86398330698711
 20
162.6041935800514
 30
0.0
 11
143.86398330698711
 21
167.82919358005151
 31
0.0
  0
LINE
  5
1E3D
  8
0
 10
146.86398330698711
 20
162.6041935800514
 30
0.0
 11
143.86398330698711
 21
162.6041935800514
 31
0.0
  0
LINE
  5
1E3E
  8
0
 10
117.363983306987
 20
164.62919358005141
 30
0.0
 11
143.86398330698711
 21
164.62919358005141
 31
0.0
  0
LINE
  5
1E3F
  8
0
 10
116.6204242979907
 20
170.6041935800514
 30
0.0
 11
114.9639824093346
 21
170.6041935800514
 31
0.0
  0
LINE
  5
1E40
  8
0
 10
144.60754231598341
 20
170.6041935800514
 30
0.0
 11
146.26398420463951
 21
170.6041935800514
 31
0.0
  0
ENDSEC
  0
EOF
