  0
SECTION
  2
HEADER
  9
$ACADVER
  1
AC1009
  9
$INSBASE
 10
0.0
 20
0.0
 30
0.0
  9
$EXTMIN
 10
74.610905186472849
 20
69.103637928433784
 30
0.0
  9
$EXTMAX
 10
210.8023339139701
 20
150.60363792843381
 30
0.0
  9
$LIMMIN
 10
0.0
 20
0.0
  9
$LIMMAX
 10
420.0
 20
297.0
  9
$ORTHOMODE
 70
     1
  9
$REGENMODE
 70
     1
  9
$FILLMODE
 70
     1
  9
$QTEXTMODE
 70
     0
  9
$MIRRTEXT
 70
     1
  9
$DRAGMODE
 70
     2
  9
$LTSCALE
 40
1.0
  9
$OSMODE
 70
   691
  9
$ATTMODE
 70
     1
  9
$TEXTSIZE
 40
4.0
  9
$TRACEWID
 40
1.0
  9
$TEXTSTYLE
  7
MISUMI
  9
$CLAYER
  8
0
  9
$CELTYPE
  6
CONTINUOUS
  9
$CECOLOR
 62
     7
  9
$DIMSCALE
 40
1.0
  9
$DIMASZ
 40
3.0
  9
$DIMEXO
 40
1.0
  9
$DIMDLI
 40
0.0
  9
$DIMRND
 40
0.0
  9
$DIMDLE
 40
0.0
  9
$DIMEXE
 40
1.0
  9
$DIMTP
 40
0.0
  9
$DIMTM
 40
0.0
  9
$DIMTXT
 40
3.2000000000000002
  9
$DIMCEN
 40
0.0
  9
$DIMTSZ
 40
0.0
  9
$DIMTOL
 70
     0
  9
$DIMLIM
 70
     0
  9
$DIMTIH
 70
     0
  9
$DIMTOH
 70
     0
  9
$DIMSE1
 70
     0
  9
$DIMSE2
 70
     0
  9
$DIMTAD
 70
     1
  9
$DIMZIN
 70
     8
  9
$DIMBLK
  1

  9
$DIMASO
 70
     1
  9
$DIMSHO
 70
     1
  9
$DIMPOST
  1

  9
$DIMAPOST
  1

  9
$DIMALT
 70
     0
  9
$DIMALTD
 70
     2
  9
$DIMALTF
 40
0.04
  9
$DIMLFAC
 40
1.0
  9
$DIMTOFL
 70
     1
  9
$DIMTVP
 40
1.0
  9
$DIMTIX
 70
     1
  9
$DIMSOXD
 70
     0
  9
$DIMSAH
 70
     0
  9
$DIMBLK1
  1

  9
$DIMBLK2
  1

  9
$DIMSTYLE
  2
MISUMI
  9
$DIMCLRD
 70
     0
  9
$DIMCLRE
 70
     0
  9
$DIMCLRT
 70
     0
  9
$DIMTFAC
 40
0.6
  9
$DIMGAP
 40
1.0
  9
$LUNITS
 70
     2
  9
$LUPREC
 70
     2
  9
$SKETCHINC
 40
1.0
  9
$FILLETRAD
 40
0.23
  9
$AUNITS
 70
     0
  9
$AUPREC
 70
     0
  9
$MENU
  1
acad
  9
$ELEVATION
 40
0.0
  9
$PELEVATION
 40
0.0
  9
$THICKNESS
 40
0.0
  9
$LIMCHECK
 70
     0
  9
$BLIPMODE
 70
     0
  9
$CHAMFERA
 40
0.0
  9
$CHAMFERB
 40
0.0
  9
$SKPOLY
 70
     0
  9
$TDCREATE
 40
2451466.645682917
  9
$TDUPDATE
 40
2454510.883136332
  9
$TDINDWG
 40
0.014113588
  9
$TDUSRTIMER
 40
0.0141134028
  9
$USRTIMER
 70
     1
  9
$ANGBASE
 50
0.0
  9
$ANGDIR
 70
     0
  9
$PDMODE
 70
     1
  9
$PDSIZE
 40
0.0
  9
$PLINEWID
 40
0.0
  9
$COORDS
 70
     1
  9
$SPLFRAME
 70
     0
  9
$SPLINETYPE
 70
     6
  9
$SPLINESEGS
 70
     8
  9
$ATTDIA
 70
     0
  9
$ATTREQ
 70
     1
  9
$HANDLING
 70
     1
  9
$HANDSEED
  5
306
  9
$SURFTAB1
 70
     6
  9
$SURFTAB2
 70
     6
  9
$SURFTYPE
 70
     6
  9
$SURFU
 70
     6
  9
$SURFV
 70
     6
  9
$UCSNAME
  2

  9
$UCSORG
 10
0.0
 20
0.0
 30
0.0
  9
$UCSXDIR
 10
1.0
 20
0.0
 30
0.0
  9
$UCSYDIR
 10
0.0
 20
1.0
 30
0.0
  9
$PUCSNAME
  2

  9
$PUCSORG
 10
0.0
 20
0.0
 30
0.0
  9
$PUCSXDIR
 10
1.0
 20
0.0
 30
0.0
  9
$PUCSYDIR
 10
0.0
 20
1.0
 30
0.0
  9
$USERI1
 70
     0
  9
$USERI2
 70
     0
  9
$USERI3
 70
     0
  9
$USERI4
 70
     0
  9
$USERI5
 70
     0
  9
$USERR1
 40
0.0
  9
$USERR2
 40
0.0
  9
$USERR3
 40
0.0
  9
$USERR4
 40
0.0
  9
$USERR5
 40
0.0
  9
$WORLDVIEW
 70
     1
  9
$SHADEDGE
 70
     3
  9
$SHADEDIF
 70
    70
  9
$TILEMODE
 70
     1
  9
$MAXACTVP
 70
    16
  9
$PLIMCHECK
 70
     0
  9
$PEXTMIN
 10
1.0000000000000000E+020
 20
1.0000000000000000E+020
 30
1.0000000000000000E+020
  9
$PEXTMAX
 10
-1.0000000000000000E+020
 20
-1.0000000000000000E+020
 30
-1.0000000000000000E+020
  9
$PLIMMIN
 10
0.0
 20
0.0
  9
$PLIMMAX
 10
420.0
 20
297.0
  9
$UNITMODE
 70
     0
  9
$VISRETAIN
 70
     0
  9
$PLINEGEN
 70
     0
  9
$PSLTSCALE
 70
     0
  0
ENDSEC
  0
SECTION
  2
TABLES
  0
TABLE
  2
VPORT
 70
     1
  0
VPORT
  2
*ACTIVE
 70
     0
 10
0.0
 20
0.0
 11
1.0
 21
1.0
 12
171.52746601429249
 22
109.8545614985686
 13
0.0
 23
0.0
 14
10.0
 24
10.0
 15
0.0
 25
0.0
 16
0.0
 26
0.0
 36
1.0
 17
0.0
 27
0.0
 37
0.0
 40
117.663558222216
 41
1.6552631578947361
 42
50.0
 43
0.0
 44
0.0
 50
0.0
 51
0.0
 71
     0
 72
   100
 73
     1
 74
     0
 75
     0
 76
     0
 77
     0
 78
     1
  0
ENDTAB
  0
TABLE
  2
LTYPE
 70
     3
  0
LTYPE
  2
CONTINUOUS
 70
     0
  3
Solid line
 72
    65
 73
     0
 40
0.0
  0
LTYPE
  2
CENTER
 70
     0
  3
____ _ ____ _ ____ _ ____ _ ____ _ ____ _ ____ 
 72
    65
 73
     4
 40
50.799999999999997
 49
31.75
 49
-6.349999999999997
 49
6.349999999999997
 49
-6.349999999999997
  0
LTYPE
  2
DASHED
 70
     0
  3
__ __ __ __ __ __ __ __ __ __ __ __ __ __ __ __
 72
    65
 73
     2
 40
19.049999999999969
 49
12.699999999999999
 49
-6.349999999999997
  0
ENDTAB
  0
TABLE
  2
LAYER
 70
     2
  0
LAYER
  2
0
 70
     0
 62
     7
  6
CONTINUOUS
  0
LAYER
  2
CENTER
 70
     0
 62
     1
  6
CENTER
  0
ENDTAB
  0
TABLE
  2
STYLE
 70
     2
  0
STYLE
  2
STANDARD
 70
     0
 40
0.0
 41
1.0
 50
0.0
 71
     0
 42
4.0
  3
txt
  4
BIGFONT
  0
STYLE
  2
MISUMI
 70
     0
 40
0.0
 41
1.0
 50
0.0
 71
     0
 42
4.0
  3
txt.shx
  4

  0
ENDTAB
  0
TABLE
  2
VIEW
 70
     0
  0
ENDTAB
  0
TABLE
  2
UCS
 70
     0
  0
ENDTAB
  0
TABLE
  2
APPID
 70
     1
  0
APPID
  2
ACAD
 70
     0
  0
ENDTAB
  0
TABLE
  2
DIMSTYLE
 70
     1
  0
DIMSTYLE
  2
MISUMI
 70
     0
  3

  4

  5

  6

  7

 40
1.0
 41
3.0
 42
1.0
 43
0.0
 44
1.0
 45
0.0
 46
0.0
 47
0.0
 48
0.0
140
3.2000000000000002
141
0.0
142
0.0
143
0.04
144
1.0
145
1.0
146
0.6
147
1.0
 71
     0
 72
     0
 73
     0
 74
     0
 75
     0
 76
     0
 77
     1
 78
     8
170
     0
171
     2
172
     1
173
     0
174
     1
175
     0
176
     0
177
     0
178
     0
  0
ENDTAB
  0
ENDSEC
  0
SECTION
  2
BLOCKS
  0
BLOCK
  8
0
  2
$MODEL_SPACE
 70
     0
 10
0.0
 20
0.0
 30
0.0
  3
$MODEL_SPACE
  1

  0
ENDBLK
  5
1BA
  8
0
  0
BLOCK
 67
     1
  8
0
  2
$PAPER_SPACE
 70
     0
 10
0.0
 20
0.0
 30
0.0
  3
$PAPER_SPACE
  1

  0
ENDBLK
  5
1B6
 67
     1
  8
0
  0
ENDSEC
  0
SECTION
  2
ENTITIES
  0
TEXT
  5
29
  8
0
  6
CONTINUOUS
 62
     7
 10
74.610905186472863
 20
73.103637928433841
 30
0.0
 40
1.0
  1
ATP72MXL037-A-H5
  7
MISUMI
  0
LINE
  5
35
  8
0
  6
CONTINUOUS
 62
     7
 10
151.8023339139545
 20
133.90363792844369
 30
0.0
 11
151.80233391395461
 21
94.303637928423711
 31
0.0
  0
LINE
  5
36
  8
CENTER
  6
CENTER
 62
     1
 10
153.7340068696183
 20
90.818637928433873
 30
0.0
 11
164.87066095803581
 21
90.818637928433844
 31
0.0
  0
LINE
  5
37
  8
0
  6
CONTINUOUS
 62
     7
 10
153.80233391393881
 20
91.713637928433769
 30
0.0
 11
164.80233391393881
 21
91.713637928433769
 31
0.0
  0
LINE
  5
38
  8
0
  6
CONTINUOUS
 62
     7
 10
153.80233391393881
 20
91.073637928433854
 30
0.0
 11
164.80233391393881
 21
91.073637928433854
 31
0.0
  0
LINE
  5
39
  8
0
  6
CONTINUOUS
 62
     7
 10
153.0065248121679
 20
88.103637928433798
 30
0.0
 11
153.80233391393881
 21
91.073637929368644
 31
0.0
  0
LINE
  5
3A
  8
0
  6
CONTINUOUS
 62
     7
 10
151.97124863177791
 20
88.103637928433798
 30
0.0
 11
152.8023339139387
 21
91.205290426924833
 31
0.0
  0
LINE
  5
3B
  8
0
  6
CONTINUOUS
 62
     7
 10
151.97124863177791
 20
88.103637928433798
 30
0.0
 11
153.0065248121679
 21
88.103637928433798
 31
0.0
  0
LINE
  5
3C
  8
0
  6
CONTINUOUS
 62
     7
 10
152.00233391393871
 20
94.103637928439554
 30
0.0
 11
153.80233391393881
 21
94.103637928439554
 31
0.0
  0
LINE
  5
3D
  8
0
  6
CONTINUOUS
 62
     7
 10
151.80233391393881
 20
94.303637928439528
 30
0.0
 11
152.00233391393871
 21
94.103637928439554
 31
0.0
  0
LINE
  5
3E
  8
0
  6
CONTINUOUS
 62
     7
 10
153.80233391393881
 20
91.073637929368644
 30
0.0
 11
153.80233391393881
 21
94.103637928439525
 31
0.0
  0
LINE
  5
3F
  8
0
  6
CONTINUOUS
 62
     7
 10
152.8023339139387
 20
91.205290426924833
 30
0.0
 11
152.8023339139387
 21
94.103637928439525
 31
0.0
  0
LINE
  5
50
  8
CENTER
  6
CENTER
 62
     1
 10
149.80233391395461
 20
114.1036379284338
 30
0.0
 11
168.80233391392301
 21
114.1036379284338
 31
0.0
  0
LINE
  5
51
  8
0
  6
CONTINUOUS
 62
     7
 10
152.3023339139545
 20
116.6036379284338
 30
0.0
 11
166.30233391392309
 21
116.6036379284338
 31
0.0
  0
LINE
  5
52
  8
0
  6
CONTINUOUS
 62
     7
 10
152.3023339139545
 20
111.6036379284337
 30
0.0
 11
166.30233391392309
 21
111.6036379284337
 31
0.0
  0
LINE
  5
53
  8
0
  6
CONTINUOUS
 62
     7
 10
152.3023339139545
 20
116.6036379284338
 30
0.0
 11
152.3023339139545
 21
111.6036379284337
 31
0.0
  0
LINE
  5
54
  8
0
  6
CONTINUOUS
 62
     7
 10
151.8023339139545
 20
111.1036379284338
 30
0.0
 11
152.3023339139545
 21
111.6036379284337
 31
0.0
  0
LINE
  5
55
  8
0
  6
CONTINUOUS
 62
     7
 10
157.55233391395399
 20
111.6036379284339
 30
0.0
 11
157.55233391395399
 21
111.6037379284339
 31
0.0
  0
LINE
  5
56
  8
0
  6
CONTINUOUS
 62
     7
 10
151.8023339139545
 20
117.1036379284337
 30
0.0
 11
152.3023339139545
 21
116.6036379284338
 31
0.0
  0
LINE
  5
5B
  8
CENTER
  6
CENTER
 62
     1
 10
153.7340068696183
 20
137.38863792843381
 30
0.0
 11
164.87066095803581
 21
137.38863792843381
 31
0.0
  0
LINE
  5
5C
  8
0
  6
CONTINUOUS
 62
     7
 10
153.80233391393881
 20
136.4936379284338
 30
0.0
 11
164.80233391393881
 21
136.4936379284338
 31
0.0
  0
LINE
  5
5D
  8
0
  6
CONTINUOUS
 62
     7
 10
153.80233391393881
 20
137.13363792843381
 30
0.0
 11
164.80233391393881
 21
137.13363792843381
 31
0.0
  0
LINE
  5
5E
  8
0
  6
CONTINUOUS
 62
     7
 10
152.8023339139387
 20
137.00198542994281
 30
0.0
 11
152.8023339139387
 21
134.10363792842799
 31
0.0
  0
LINE
  5
5F
  8
0
  6
CONTINUOUS
 62
     7
 10
153.80233391393881
 20
137.13363792749891
 30
0.0
 11
153.80233391393881
 21
134.10363792842799
 31
0.0
  0
LINE
  5
60
  8
0
  6
CONTINUOUS
 62
     7
 10
152.00233391393871
 20
134.10363792842799
 30
0.0
 11
153.80233391393881
 21
134.10363792842799
 31
0.0
  0
LINE
  5
61
  8
0
  6
CONTINUOUS
 62
     7
 10
151.80233391393881
 20
133.90363792842811
 30
0.0
 11
152.00233391393871
 21
134.10363792842799
 31
0.0
  0
LINE
  5
62
  8
0
  6
CONTINUOUS
 62
     7
 10
151.97124863177791
 20
140.10363792843381
 30
0.0
 11
152.8023339139387
 21
137.00198542994281
 31
0.0
  0
LINE
  5
63
  8
0
  6
CONTINUOUS
 62
     7
 10
151.97124863177791
 20
140.10363792843381
 30
0.0
 11
153.0065248121679
 21
140.10363792843381
 31
0.0
  0
LINE
  5
64
  8
0
  6
CONTINUOUS
 62
     7
 10
153.0065248121679
 20
140.10363792843381
 30
0.0
 11
153.80233391393881
 21
137.13363792749891
 31
0.0
  0
ARC
  5
143
  8
0
  6
CONTINUOUS
 62
     7
 10
91.201609761253124
 20
136.79328961556419
 30
0.0
 40
0.3
 50
269.682527802295
 51
339.99999999999812
  0
ARC
  5
144
  8
0
  6
CONTINUOUS
 62
     7
 10
90.950163411549994
 20
136.79328961556419
 30
0.0
 40
0.3
 50
200.00000000000011
 51
270.31747219770511
  0
ARC
  5
145
  8
0
  6
CONTINUOUS
 62
     7
 10
91.801582918448105
 20
136.89208598514989
 30
0.0
 40
0.23
 50
88.176036810902687
 51
160.000000000005
  0
ARC
  5
146
  8
0
  6
CONTINUOUS
 62
     7
 10
90.350190254354999
 20
136.89208598514989
 30
0.0
 40
0.23
 50
19.999999999994941
 51
91.823963189097313
  0
ARC
  5
147
  8
0
  6
CONTINUOUS
 62
     7
 10
91.075886586401552
 20
114.1036379284338
 30
0.0
 40
23.029999999999909
 50
49.999999999999908
 51
88.176036810902687
  0
LINE
  5
148
  8
0
  6
CONTINUOUS
 62
     7
 10
90.668255625314231
 20
136.69068357256651
 30
0.0
 11
90.56631955713577
 21
136.97075061811481
 31
0.0
  0
LINE
  5
149
  8
0
  6
CONTINUOUS
 62
     7
 10
91.483517547488901
 20
136.69068357256651
 30
0.0
 11
91.585453615667348
 21
136.97075061811481
 31
0.0
  0
ARC
  5
14A
  8
0
  6
CONTINUOUS
 62
     7
 10
91.075886586401552
 20
114.1036379284338
 30
0.0
 40
22.389999999999912
 50
89.682527802295738
 51
90.317472197704276
  0
LINE
  5
14B
  8
CENTER
  6
CENTER
 62
     1
 10
91.075886586401552
 20
114.1036379284338
 30
0.0
 11
91.075886586401552
 21
142.06061816804461
 31
0.0
  0
ARC
  5
14C
  8
CENTER
  6
CENTER
 62
     1
 10
91.075886586401552
 20
114.1036379284338
 30
0.0
 40
23.284999999999911
 50
45.000000000000568
 51
135.0
  0
ARC
  5
14D
  8
0
  6
CONTINUOUS
 62
     7
 10
91.075886586401552
 20
114.1036379284338
 30
0.0
 40
23.029999999999909
 50
91.823963189097313
 51
130.00000000000011
  0
LINE
  5
239
  8
0
  6
CONTINUOUS
 62
     7
 10
208.8023339139701
 20
128.60363792843381
 30
0.0
 11
208.8023339139699
 21
99.603637928433685
 31
0.0
  0
LINE
  5
23A
  8
0
  6
CONTINUOUS
 62
     7
 10
186.8023339139701
 20
133.90363792844369
 30
0.0
 11
186.80233391397019
 21
94.303637928423711
 31
0.0
  0
LINE
  5
23B
  8
CENTER
  6
CENTER
 62
     1
 10
188.7340068696339
 20
90.818637928433873
 30
0.0
 11
199.87066095805139
 21
90.818637928433844
 31
0.0
  0
LINE
  5
23C
  8
0
  6
CONTINUOUS
 62
     7
 10
188.80233391395441
 20
91.713637928433769
 30
0.0
 11
199.80233391395441
 21
91.713637928433769
 31
0.0
  0
LINE
  5
23D
  8
0
  6
CONTINUOUS
 62
     7
 10
188.80233391395441
 20
91.073637928433854
 30
0.0
 11
199.80233391395441
 21
91.073637928433854
 31
0.0
  0
LINE
  5
23E
  8
0
  6
CONTINUOUS
 62
     7
 10
188.0065248121835
 20
88.103637928433798
 30
0.0
 11
188.80233391395441
 21
91.073637929368644
 31
0.0
  0
LINE
  5
23F
  8
0
  6
CONTINUOUS
 62
     7
 10
186.97124863179349
 20
88.103637928433798
 30
0.0
 11
187.8023339139543
 21
91.205290426924833
 31
0.0
  0
LINE
  5
240
  8
0
  6
CONTINUOUS
 62
     7
 10
186.97124863179349
 20
88.103637928433798
 30
0.0
 11
188.0065248121835
 21
88.103637928433798
 31
0.0
  0
LINE
  5
241
  8
0
  6
CONTINUOUS
 62
     7
 10
187.00233391395429
 20
94.103637928439554
 30
0.0
 11
188.80233391395441
 21
94.103637928439554
 31
0.0
  0
LINE
  5
242
  8
0
  6
CONTINUOUS
 62
     7
 10
186.80233391395441
 20
94.303637928439528
 30
0.0
 11
187.00233391395429
 21
94.103637928439554
 31
0.0
  0
LINE
  5
243
  8
0
  6
CONTINUOUS
 62
     7
 10
188.80233391395441
 20
91.073637929368644
 30
0.0
 11
188.80233391395441
 21
94.103637928439525
 31
0.0
  0
LINE
  5
244
  8
0
  6
CONTINUOUS
 62
     7
 10
187.8023339139543
 20
91.205290426924833
 30
0.0
 11
187.8023339139543
 21
94.103637928439525
 31
0.0
  0
LINE
  5
245
  8
0
  6
CONTINUOUS
 62
     7
 10
199.80233391395441
 20
91.073637928535447
 30
0.0
 11
200.59814301549989
 21
88.103637928433841
 31
0.0
  0
LINE
  5
246
  8
0
  6
CONTINUOUS
 62
     7
 10
200.80233391395441
 20
91.205290426083906
 30
0.0
 11
201.63341919590169
 21
88.103637928433798
 31
0.0
  0
LINE
  5
247
  8
0
  6
CONTINUOUS
 62
     7
 10
200.59814301549989
 20
88.103637928433841
 30
0.0
 11
201.63341919590169
 21
88.103637928433798
 31
0.0
  0
LINE
  5
248
  8
0
  6
CONTINUOUS
 62
     7
 10
201.80233391396999
 20
99.103637928433869
 30
0.0
 11
208.3023339139701
 21
99.103637928433869
 31
0.0
  0
LINE
  5
249
  8
0
  6
CONTINUOUS
 62
     7
 10
201.80233391396999
 20
94.303637928455245
 30
0.0
 11
201.80233391396999
 21
99.103637928433869
 31
0.0
  0
LINE
  5
24A
  8
0
  6
CONTINUOUS
 62
     7
 10
199.80233391395441
 20
94.103637928439554
 30
0.0
 11
201.6023339139544
 21
94.103637928439554
 31
0.0
  0
LINE
  5
24B
  8
0
  6
CONTINUOUS
 62
     7
 10
199.80233391395441
 20
91.073637928535447
 30
0.0
 11
199.80233391395441
 21
94.103637928439554
 31
0.0
  0
LINE
  5
24C
  8
0
  6
CONTINUOUS
 62
     7
 10
200.80233391395441
 20
91.205290426083906
 30
0.0
 11
200.80233391395441
 21
94.103637928439554
 31
0.0
  0
LINE
  5
24D
  8
0
  6
CONTINUOUS
 62
     7
 10
201.80233391395441
 20
94.303637928439528
 30
0.0
 11
201.6023339139544
 21
94.103637928439554
 31
0.0
  0
LINE
  5
24E
  8
0
  6
CONTINUOUS
 62
     7
 10
208.8023339139701
 20
99.603637928433884
 30
0.0
 11
208.3023339139701
 21
99.103637928433869
 31
0.0
  0
LINE
  5
24F
  8
CENTER
  6
CENTER
 62
     1
 10
205.3023339139701
 20
130.10363792843381
 30
0.0
 11
205.3023339139701
 21
115.6036379284338
 31
0.0
  0
LINE
  5
250
  8
0
  6
DASHED
 62
     3
 10
206.8023339139701
 20
129.10363792843381
 30
0.0
 11
206.80233391396999
 21
116.6036379284338
 31
0.0
  0
LINE
  5
251
  8
0
  6
DASHED
 62
     3
 10
206.52733391397021
 20
129.10363792843381
 30
0.0
 11
206.52733391397001
 21
116.6036379284338
 31
0.0
  0
LINE
  5
252
  8
0
  6
DASHED
 62
     3
 10
204.07733391397011
 20
129.10363792843381
 30
0.0
 11
204.07733391396999
 21
116.6036379284338
 31
0.0
  0
LINE
  5
253
  8
0
  6
DASHED
 62
     3
 10
203.80233391397019
 20
129.10363792843381
 30
0.0
 11
203.80233391396999
 21
116.6036379284338
 31
0.0
  0
LINE
  5
254
  8
CENTER
  6
CENTER
 62
     1
 10
184.80233391397019
 20
114.1036379284338
 30
0.0
 11
210.8023339139701
 21
114.1036379284338
 31
0.0
  0
LINE
  5
255
  8
0
  6
CONTINUOUS
 62
     7
 10
187.3023339139701
 20
116.6036379284338
 30
0.0
 11
208.3023339139701
 21
116.6036379284338
 31
0.0
  0
LINE
  5
256
  8
0
  6
CONTINUOUS
 62
     7
 10
187.3023339139701
 20
111.6036379284337
 30
0.0
 11
208.3023339139701
 21
111.6036379284337
 31
0.0
  0
LINE
  5
257
  8
0
  6
CONTINUOUS
 62
     7
 10
187.3023339139701
 20
116.6036379284338
 30
0.0
 11
187.3023339139701
 21
111.6036379284337
 31
0.0
  0
LINE
  5
258
  8
0
  6
CONTINUOUS
 62
     7
 10
186.8023339139701
 20
111.1036379284338
 30
0.0
 11
187.3023339139701
 21
111.6036379284337
 31
0.0
  0
LINE
  5
259
  8
0
  6
CONTINUOUS
 62
     7
 10
192.55233391396959
 20
111.6036379284339
 30
0.0
 11
192.55233391396959
 21
111.6037379284339
 31
0.0
  0
LINE
  5
25A
  8
0
  6
CONTINUOUS
 62
     7
 10
186.8023339139701
 20
117.1036379284337
 30
0.0
 11
187.3023339139701
 21
116.6036379284338
 31
0.0
  0
LINE
  5
25B
  8
0
  6
CONTINUOUS
 62
     7
 10
208.3023339139701
 20
116.6036379284338
 30
0.0
 11
208.3023339139701
 21
111.6036379284337
 31
0.0
  0
LINE
  5
25C
  8
0
  6
CONTINUOUS
 62
     7
 10
197.80233391396959
 20
111.6036379284339
 30
0.0
 11
197.80243391397059
 21
111.6036379284339
 31
0.0
  0
LINE
  5
25D
  8
0
  6
CONTINUOUS
 62
     7
 10
208.3023339139701
 20
111.6036379284337
 30
0.0
 11
208.80233391396999
 21
111.1036379284338
 31
0.0
  0
LINE
  5
25E
  8
0
  6
CONTINUOUS
 62
     7
 10
208.3023339139701
 20
116.6036379284338
 30
0.0
 11
208.80233391396999
 21
117.1036379284337
 31
0.0
  0
LINE
  5
25F
  8
CENTER
  6
CENTER
 62
     1
 10
188.7340068696339
 20
137.38863792843381
 30
0.0
 11
199.87066095805139
 21
137.38863792843381
 31
0.0
  0
LINE
  5
260
  8
0
  6
CONTINUOUS
 62
     7
 10
188.80233391395441
 20
136.4936379284338
 30
0.0
 11
199.80233391395441
 21
136.4936379284338
 31
0.0
  0
LINE
  5
261
  8
0
  6
CONTINUOUS
 62
     7
 10
188.80233391395441
 20
137.13363792843381
 30
0.0
 11
199.80233391395441
 21
137.13363792843381
 31
0.0
  0
LINE
  5
262
  8
0
  6
CONTINUOUS
 62
     7
 10
187.8023339139543
 20
137.00198542994281
 30
0.0
 11
187.8023339139543
 21
134.10363792842799
 31
0.0
  0
LINE
  5
263
  8
0
  6
CONTINUOUS
 62
     7
 10
188.80233391395441
 20
137.13363792749891
 30
0.0
 11
188.80233391395441
 21
134.10363792842799
 31
0.0
  0
LINE
  5
264
  8
0
  6
CONTINUOUS
 62
     7
 10
187.00233391395429
 20
134.10363792842799
 30
0.0
 11
188.80233391395441
 21
134.10363792842799
 31
0.0
  0
LINE
  5
265
  8
0
  6
CONTINUOUS
 62
     7
 10
186.80233391395441
 20
133.90363792842811
 30
0.0
 11
187.00233391395429
 21
134.10363792842799
 31
0.0
  0
LINE
  5
266
  8
0
  6
CONTINUOUS
 62
     7
 10
186.97124863179349
 20
140.10363792843381
 30
0.0
 11
187.8023339139543
 21
137.00198542994281
 31
0.0
  0
LINE
  5
267
  8
0
  6
CONTINUOUS
 62
     7
 10
186.97124863179349
 20
140.10363792843381
 30
0.0
 11
188.0065248121835
 21
140.10363792843381
 31
0.0
  0
LINE
  5
268
  8
0
  6
CONTINUOUS
 62
     7
 10
188.0065248121835
 20
140.10363792843381
 30
0.0
 11
188.80233391395441
 21
137.13363792749891
 31
0.0
  0
LINE
  5
269
  8
0
  6
CONTINUOUS
 62
     7
 10
200.80233391395441
 20
137.00198543078369
 30
0.0
 11
200.80233391395441
 21
134.10363792842799
 31
0.0
  0
LINE
  5
26A
  8
0
  6
CONTINUOUS
 62
     7
 10
199.80233391395441
 20
137.13363792833221
 30
0.0
 11
199.80233391395441
 21
134.10363792842799
 31
0.0
  0
LINE
  5
26B
  8
0
  6
CONTINUOUS
 62
     7
 10
201.80233391396999
 20
129.10363792843381
 30
0.0
 11
208.3023339139701
 21
129.10363792843381
 31
0.0
  0
LINE
  5
26C
  8
0
  6
CONTINUOUS
 62
     7
 10
201.80233391396999
 20
133.90363792841239
 30
0.0
 11
201.80233391396999
 21
129.10363792843381
 31
0.0
  0
LINE
  5
26D
  8
0
  6
CONTINUOUS
 62
     7
 10
199.80233391395441
 20
134.10363792842799
 30
0.0
 11
201.6023339139544
 21
134.10363792842799
 31
0.0
  0
LINE
  5
26E
  8
0
  6
CONTINUOUS
 62
     7
 10
201.80233391395441
 20
133.90363792842811
 30
0.0
 11
201.6023339139544
 21
134.10363792842799
 31
0.0
  0
LINE
  5
26F
  8
0
  6
CONTINUOUS
 62
     7
 10
208.8023339139701
 20
128.60363792843381
 30
0.0
 11
208.3023339139701
 21
129.10363792843381
 31
0.0
  0
LINE
  5
270
  8
0
  6
CONTINUOUS
 62
     7
 10
199.80233391395441
 20
137.13363792833221
 30
0.0
 11
200.59814301549989
 21
140.10363792843381
 31
0.0
  0
LINE
  5
271
  8
0
  6
CONTINUOUS
 62
     7
 10
200.80233391395441
 20
137.00198543078369
 30
0.0
 11
201.63341919590169
 21
140.10363792843381
 31
0.0
  0
LINE
  5
272
  8
0
  6
CONTINUOUS
 62
     7
 10
200.59814301549989
 20
140.10363792843381
 30
0.0
 11
201.63341919590169
 21
140.10363792843381
 31
0.0
  0
LINE
  5
275
  8
0
  6
CONTINUOUS
 62
     7
 10
166.80233391392309
 20
133.90363792844369
 30
0.0
 11
166.80233391392301
 21
94.303637928423711
 31
0.0
  0
LINE
  5
276
  8
0
  6
CONTINUOUS
 62
     7
 10
165.5981430157097
 20
88.103637928433798
 30
0.0
 11
164.80233391393881
 21
91.073637929368644
 31
0.0
  0
LINE
  5
277
  8
0
  6
CONTINUOUS
 62
     7
 10
166.63341919609971
 20
88.103637928433798
 30
0.0
 11
165.8023339139389
 21
91.205290426924833
 31
0.0
  0
LINE
  5
278
  8
0
  6
CONTINUOUS
 62
     7
 10
166.63341919609971
 20
88.103637928433798
 30
0.0
 11
165.5981430157097
 21
88.103637928433798
 31
0.0
  0
LINE
  5
279
  8
0
  6
CONTINUOUS
 62
     7
 10
166.60233391393891
 20
94.103637928439554
 30
0.0
 11
164.80233391393881
 21
94.103637928439554
 31
0.0
  0
LINE
  5
27A
  8
0
  6
CONTINUOUS
 62
     7
 10
166.80233391393881
 20
94.303637928439528
 30
0.0
 11
166.60233391393891
 21
94.103637928439554
 31
0.0
  0
LINE
  5
27B
  8
0
  6
CONTINUOUS
 62
     7
 10
164.80233391393881
 20
91.073637929368644
 30
0.0
 11
164.80233391393881
 21
94.103637928439525
 31
0.0
  0
LINE
  5
27C
  8
0
  6
CONTINUOUS
 62
     7
 10
165.8023339139389
 20
91.205290426924833
 30
0.0
 11
165.8023339139389
 21
94.103637928439525
 31
0.0
  0
LINE
  5
27D
  8
0
  6
CONTINUOUS
 62
     7
 10
166.30233391392309
 20
116.6036379284338
 30
0.0
 11
166.30233391392309
 21
111.6036379284337
 31
0.0
  0
LINE
  5
27E
  8
0
  6
CONTINUOUS
 62
     7
 10
166.80233391392309
 20
111.1036379284338
 30
0.0
 11
166.30233391392309
 21
111.6036379284337
 31
0.0
  0
LINE
  5
27F
  8
0
  6
CONTINUOUS
 62
     7
 10
161.0523339139236
 20
111.6036379284339
 30
0.0
 11
161.0523339139236
 21
111.6037379284339
 31
0.0
  0
LINE
  5
280
  8
0
  6
CONTINUOUS
 62
     7
 10
166.80233391392309
 20
117.1036379284337
 30
0.0
 11
166.30233391392309
 21
116.6036379284338
 31
0.0
  0
LINE
  5
281
  8
0
  6
CONTINUOUS
 62
     7
 10
165.8023339139389
 20
137.00198542994281
 30
0.0
 11
165.8023339139389
 21
134.10363792842799
 31
0.0
  0
LINE
  5
282
  8
0
  6
CONTINUOUS
 62
     7
 10
164.80233391393881
 20
137.13363792749891
 30
0.0
 11
164.80233391393881
 21
134.10363792842799
 31
0.0
  0
LINE
  5
283
  8
0
  6
CONTINUOUS
 62
     7
 10
166.60233391393891
 20
134.10363792842799
 30
0.0
 11
164.80233391393881
 21
134.10363792842799
 31
0.0
  0
LINE
  5
284
  8
0
  6
CONTINUOUS
 62
     7
 10
166.80233391393881
 20
133.90363792842811
 30
0.0
 11
166.60233391393891
 21
134.10363792842799
 31
0.0
  0
LINE
  5
285
  8
0
  6
CONTINUOUS
 62
     7
 10
166.63341919609971
 20
140.10363792843381
 30
0.0
 11
165.8023339139389
 21
137.00198542994281
 31
0.0
  0
LINE
  5
286
  8
0
  6
CONTINUOUS
 62
     7
 10
166.63341919609971
 20
140.10363792843381
 30
0.0
 11
165.5981430157097
 21
140.10363792843381
 31
0.0
  0
LINE
  5
287
  8
0
  6
CONTINUOUS
 62
     7
 10
165.5981430157097
 20
140.10363792843381
 30
0.0
 11
164.80233391393881
 21
137.13363792749891
 31
0.0
  0
TEXT
  5
2AB
  8
0
  6
CONTINUOUS
 62
     7
 10
156.46900058060541
 20
149.60363792843381
 30
0.0
 40
1.0
  1
TYPE A
  7
MISUMI
 72
     1
 11
159.30233391393881
 21
150.10363792843381
 31
0.0
 73
     2
  0
TEXT
  5
2AC
  8
0
  6
CONTINUOUS
 62
     7
 10
194.96900058060541
 20
149.60363792843381
 30
0.0
 40
1.0
  1
TYPE B
  7
MISUMI
 72
     1
 11
197.80233391393881
 21
150.10363792843381
 31
0.0
 73
     2
  0
TEXT
  5
2B0
  8
0
  6
CONTINUOUS
 62
     7
 10
74.610905186472863
 20
71.103637928433841
 30
0.0
 40
1.0
  1
ATP72MXL037-B-P5
  7
MISUMI
  0
TEXT
  5
2B1
  8
0
  6
CONTINUOUS
 62
     7
 10
74.610905186472863
 20
69.103637928433841
 30
0.0
 40
1.0
  1
ATP72MXL037
  7
MISUMI
  0
ENDSEC
  0
EOF
