  0
SECTION
  2
HEADER
  9
$ACADVER
  1
AC1009
  9
$INSBASE
 10
0.0
 20
0.0
 30
0.0
  9
$EXTMIN
 10
634.94085453000105
 20
18.449297172067141
 30
0.0
  9
$EXTMAX
 10
708.2786718452719
 20
74.325961527461843
 30
0.0
  9
$LIMMIN
 10
0.0
 20
0.0
  9
$LIMMAX
 10
297.0
 20
210.0
  9
$ORTHOMODE
 70
     1
  9
$REGENMODE
 70
     1
  9
$FILLMODE
 70
     1
  9
$QTEXTMODE
 70
     0
  9
$MIRRTEXT
 70
     1
  9
$DRAGMODE
 70
     2
  9
$LTSCALE
 40
1.0
  9
$OSMODE
 70
   695
  9
$ATTMODE
 70
     1
  9
$TEXTSIZE
 40
6.4000000000000012
  9
$TRACEWID
 40
0.05
  9
$TEXTSTYLE
  7
STANDARD
  9
$CLAYER
  8
0
  9
$CELTYPE
  6
CONTINUOUS
  9
$CECOLOR
 62
     7
  9
$DIMSCALE
 40
1.0
  9
$DIMASZ
 40
3.0
  9
$DIMEXO
 40
1.0
  9
$DIMDLI
 40
0.0
  9
$DIMRND
 40
0.0
  9
$DIMDLE
 40
0.0
  9
$DIMEXE
 40
1.0
  9
$DIMTP
 40
0.0
  9
$DIMTM
 40
0.0
  9
$DIMTXT
 40
3.2000000000000002
  9
$DIMCEN
 40
0.0
  9
$DIMTSZ
 40
0.0
  9
$DIMTOL
 70
     0
  9
$DIMLIM
 70
     0
  9
$DIMTIH
 70
     0
  9
$DIMTOH
 70
     0
  9
$DIMSE1
 70
     0
  9
$DIMSE2
 70
     0
  9
$DIMTAD
 70
     1
  9
$DIMZIN
 70
     8
  9
$DIMBLK
  1

  9
$DIMASO
 70
     1
  9
$DIMSHO
 70
     1
  9
$DIMPOST
  1

  9
$DIMAPOST
  1

  9
$DIMALT
 70
     0
  9
$DIMALTD
 70
     2
  9
$DIMALTF
 40
0.04
  9
$DIMLFAC
 40
1.0
  9
$DIMTOFL
 70
     1
  9
$DIMTVP
 40
1.0
  9
$DIMTIX
 70
     1
  9
$DIMSOXD
 70
     0
  9
$DIMSAH
 70
     0
  9
$DIMBLK1
  1

  9
$DIMBLK2
  1

  9
$DIMSTYLE
  2
MISUMI
  9
$DIMCLRD
 70
     0
  9
$DIMCLRE
 70
     0
  9
$DIMCLRT
 70
     0
  9
$DIMTFAC
 40
0.6
  9
$DIMGAP
 40
1.0
  9
$LUNITS
 70
     2
  9
$LUPREC
 70
     4
  9
$SKETCHINC
 40
0.1
  9
$FILLETRAD
 40
0.2
  9
$AUNITS
 70
     0
  9
$AUPREC
 70
     0
  9
$MENU
  1
acad
  9
$ELEVATION
 40
0.0
  9
$PELEVATION
 40
0.0
  9
$THICKNESS
 40
0.0
  9
$LIMCHECK
 70
     0
  9
$BLIPMODE
 70
     0
  9
$CHAMFERA
 40
0.0
  9
$CHAMFERB
 40
0.0
  9
$SKPOLY
 70
     0
  9
$TDCREATE
 40
2451464.6006649309
  9
$TDUPDATE
 40
2454736.6936916672
  9
$TDINDWG
 40
0.3598135648
  9
$TDUSRTIMER
 40
0.3598117014
  9
$USRTIMER
 70
     1
  9
$ANGBASE
 50
0.0
  9
$ANGDIR
 70
     0
  9
$PDMODE
 70
     0
  9
$PDSIZE
 40
0.0
  9
$PLINEWID
 40
0.0
  9
$COORDS
 70
     1
  9
$SPLFRAME
 70
     0
  9
$SPLINETYPE
 70
     6
  9
$SPLINESEGS
 70
     8
  9
$ATTDIA
 70
     0
  9
$ATTREQ
 70
     1
  9
$HANDLING
 70
     1
  9
$HANDSEED
  5
22CB
  9
$SURFTAB1
 70
     6
  9
$SURFTAB2
 70
     6
  9
$SURFTYPE
 70
     6
  9
$SURFU
 70
     6
  9
$SURFV
 70
     6
  9
$UCSNAME
  2

  9
$UCSORG
 10
0.0
 20
0.0
 30
0.0
  9
$UCSXDIR
 10
1.0
 20
0.0
 30
0.0
  9
$UCSYDIR
 10
0.0
 20
1.0
 30
0.0
  9
$PUCSNAME
  2

  9
$PUCSORG
 10
0.0
 20
0.0
 30
0.0
  9
$PUCSXDIR
 10
1.0
 20
0.0
 30
0.0
  9
$PUCSYDIR
 10
0.0
 20
1.0
 30
0.0
  9
$USERI1
 70
     0
  9
$USERI2
 70
     0
  9
$USERI3
 70
     0
  9
$USERI4
 70
     0
  9
$USERI5
 70
     0
  9
$USERR1
 40
0.0
  9
$USERR2
 40
0.0
  9
$USERR3
 40
0.0
  9
$USERR4
 40
0.0
  9
$USERR5
 40
0.0
  9
$WORLDVIEW
 70
     1
  9
$SHADEDGE
 70
     3
  9
$SHADEDIF
 70
    70
  9
$TILEMODE
 70
     1
  9
$MAXACTVP
 70
    16
  9
$PLIMCHECK
 70
     0
  9
$PEXTMIN
 10
1.0000000000000000E+020
 20
1.0000000000000000E+020
 30
1.0000000000000000E+020
  9
$PEXTMAX
 10
-1.0000000000000000E+020
 20
-1.0000000000000000E+020
 30
-1.0000000000000000E+020
  9
$PLIMMIN
 10
0.0
 20
0.0
  9
$PLIMMAX
 10
12.0
 20
9.0
  9
$UNITMODE
 70
     0
  9
$VISRETAIN
 70
     0
  9
$PLINEGEN
 70
     0
  9
$PSLTSCALE
 70
     1
  0
ENDSEC
  0
SECTION
  2
TABLES
  0
TABLE
  2
VPORT
 70
     1
  0
VPORT
  2
*ACTIVE
 70
     0
 10
0.0
 20
0.0
 11
1.0
 21
1.0
 12
677.61721922517211
 22
53.072007991508762
 13
0.0
 23
0.0
 14
10.0
 24
10.0
 15
10.0
 25
10.0
 16
0.0
 26
0.0
 36
1.0
 17
0.0
 27
0.0
 37
0.0
 40
69.773767131609404
 41
1.461441213653603
 42
50.0
 43
0.0
 44
0.0
 50
0.0
 51
0.0
 71
     0
 72
   100
 73
     1
 74
     0
 75
     0
 76
     0
 77
     0
 78
     0
  0
ENDTAB
  0
TABLE
  2
LTYPE
 70
     4
  0
LTYPE
  2
CONTINUOUS
 70
     0
  3
Solid line
 72
    65
 73
     0
 40
0.0
  0
LTYPE
  2
CENTER
 70
     0
  3
Center ____ _ ____ _ ____ _ ____ _ ____ _ ____
 72
    65
 73
     4
 40
2.0
 49
1.25
 49
-0.25
 49
0.25
 49
-0.25
  0
LTYPE
  2
DASHED
 70
     0
  3
Dashed __ __ __ __ __ __ __ __ __ __ __ __ __ _
 72
    65
 73
     2
 40
0.75
 49
0.5
 49
-0.25
  0
ENDTAB
  0
TABLE
  2
LAYER
 70
     2
  0
LAYER
  2
0
 70
     0
 62
     7
  6
CONTINUOUS
  0
LAYER
  2
CENTER
 70
     0
 62
     1
  6
CENTER
  0
ENDTAB
  0
TABLE
  2
STYLE
 70
     1
  0
STYLE
  2
STANDARD
 70
     0
 40
0.0
 41
1.0
 50
0.0
 71
     0
 42
6.4000000000000012
  3
txt.shx
  4
bigfont.shx
  0
ENDTAB
  0
TABLE
  2
VIEW
 70
     0
  0
ENDTAB
  0
TABLE
  2
UCS
 70
     0
  0
ENDTAB
  0
TABLE
  2
APPID
 70
     2
  0
APPID
  2
ACAD
 70
     0
  0
APPID
  2
ACAD_PSEXT
 70
     0
  0
ENDTAB
  0
TABLE
  2
DIMSTYLE
 70
     1
  0
DIMSTYLE
  2
MISUMI
 70
     0
  3

  4

  5

  6

  7

 40
1.0
 41
3.0
 42
1.0
 43
0.0
 44
1.0
 45
0.0
 46
0.0
 47
0.0
 48
0.0
140
3.2000000000000002
141
0.0
142
0.0
143
0.04
144
1.0
145
1.0
146
0.6
147
1.0
 71
     0
 72
     0
 73
     0
 74
     0
 75
     0
 76
     0
 77
     1
 78
     8
170
     0
171
     2
172
     1
173
     0
174
     1
175
     0
176
     0
177
     0
178
     0
  0
ENDTAB
  0
ENDSEC
  0
SECTION
  2
BLOCKS
  0
BLOCK
  8
0
  2
$MODEL_SPACE
 70
     0
 10
0.0
 20
0.0
 30
0.0
  3
$MODEL_SPACE
  1

  0
ENDBLK
  5
228F
  8
0
  0
BLOCK
 67
     1
  8
0
  2
$PAPER_SPACE
 70
     0
 10
0.0
 20
0.0
 30
0.0
  3
$PAPER_SPACE
  1

  0
ENDBLK
  5
228B
 67
     1
  8
0
  0
ENDSEC
  0
SECTION
  2
ENTITIES
  0
TEXT
  5
1DA0
  8
0
 62
     7
 10
634.94085453000105
 20
23.450460977052511
 30
0.0
 40
3.2000000000000002
  1
SCDJ 10
  0
TEXT
  5
1DA1
  8
0
 62
     7
 10
634.94085453000105
 20
18.449297172067141
 30
0.0
 40
3.2000000000000002
  1
SCDJ 10
  0
LINE
  5
1DA5
  8
0
  6
DASHED
 62
     3
 10
664.0286718452719
 20
49.02596132746185
 30
0.0
 11
668.27867184527167
 21
49.02596132746185
 31
0.0
  0
LINE
  5
1DA6
  8
0
  6
DASHED
 62
     3
 10
664.0286718452719
 20
45.625961727461849
 30
0.0
 11
668.27867184527167
 21
45.625961727461849
 31
0.0
  0
CIRCLE
  5
1DC1
  8
0
  6
CONTINUOUS
 62
     7
 10
702.2786718452719
 20
47.325961527461843
 30
0.0
 40
3.0
  0
CIRCLE
  5
1DC2
  8
0
  6
CONTINUOUS
 62
     3
 10
702.2786718452719
 20
47.325961527461843
 30
0.0
 40
1.5
  0
CIRCLE
  5
1DC3
  8
0
  6
CONTINUOUS
 62
     7
 10
702.2786718452719
 20
47.325961527461843
 30
0.0
 40
1.25
  0
CIRCLE
  5
1DC4
  8
0
  6
CONTINUOUS
 62
     7
 10
702.2786718452719
 20
47.325961527461843
 30
0.0
 40
1.7
  0
LINE
  5
1FC7
  8
CENTER
  6
CENTER
 62
     1
 10
663.27867184527179
 20
74.325961527461843
 30
0.0
 11
663.27867184527179
 21
38.325961527461843
 31
0.0
  0
LINE
  5
1FC8
  8
0
  6
CONTINUOUS
 62
     7
 10
662.5286718452719
 20
61.26939151078313
 30
0.0
 11
662.5286718452719
 21
64.325961527461843
 31
0.0
  0
LINE
  5
1FC9
  8
0
  6
CONTINUOUS
 62
     7
 10
664.0286718452719
 20
61.26939151078313
 30
0.0
 11
664.0286718452719
 21
64.325961527461843
 31
0.0
  0
ARC
  5
1FCA
  8
0
  6
CONTINUOUS
 62
     7
 10
663.27867184527179
 20
56.325961527461843
 30
0.0
 40
15.0
 50
272.86598398259628
 51
267.13401601740378
  0
ARC
  5
1FCB
  8
0
  6
CONTINUOUS
 62
     7
 10
663.27867184527179
 20
56.325961527461843
 30
0.0
 40
14.5
 50
272.96489784717551
 51
267.03510215282449
  0
LINE
  5
1FCE
  8
CENTER
  6
CENTER
 62
     1
 10
674.2786718452719
 20
47.325961527461807
 30
0.0
 11
655.27867184527167
 21
47.325961527461807
 31
0.0
  0
LINE
  5
1FCF
  8
CENTER
  6
CENTER
 62
     1
 10
647.69021457715201
 20
47.325961527461843
 30
0.0
 11
678.86712911339157
 21
47.325961527461843
 31
0.0
  0
LINE
  5
1FD0
  8
CENTER
  6
CENTER
 62
     1
 10
645.2786718452719
 20
56.325961527461843
 30
0.0
 11
681.2786718452719
 21
56.325961527461843
 31
0.0
  0
ARC
  5
1FD5
  8
0
  6
CONTINUOUS
 62
     7
 10
663.27867184527179
 20
56.325961527461843
 30
0.0
 40
5.0
 50
98.626926558677354
 51
261.37307344132267
  0
ARC
  5
1FD6
  8
0
  6
CONTINUOUS
 62
     7
 10
663.27867184527179
 20
56.325961527461843
 30
0.0
 40
5.5
 50
97.837479763083707
 51
262.16252023691629
  0
LINE
  5
1FD7
  8
0
  6
DASHED
 62
     3
 10
662.52867184527145
 20
48.825961527461772
 30
0.0
 11
650.28829078850515
 21
48.825961527461807
 31
0.0
  0
LINE
  5
1FD8
  8
0
  6
DASHED
 62
     3
 10
662.5286718452719
 20
48.525961527461803
 30
0.0
 11
650.46617794283407
 21
48.525961527461817
 31
0.0
  0
LINE
  5
1FD9
  8
0
  6
DASHED
 62
     3
 10
662.5286718452719
 20
46.125961527461861
 30
0.0
 11
652.28049017737783
 21
46.125961527461783
 31
0.0
  0
LINE
  5
1FDA
  8
0
  6
DASHED
 62
     3
 10
662.52867184527145
 20
45.825961527461857
 30
0.0
 11
652.56652920245767
 21
45.825961527461779
 31
0.0
  0
LINE
  5
1FE0
  8
0
  6
DASHED
 62
     3
 10
677.02639893013941
 20
50.325961527461843
 30
0.0
 11
668.27867184527167
 21
50.325961527461843
 31
0.0
  0
LINE
  5
1FE1
  8
0
  6
CONTINUOUS
 62
     7
 10
662.5286718452719
 20
41.3447232608832
 30
0.0
 11
662.5286718452719
 21
51.382531544140548
 31
0.0
  0
LINE
  5
1FE2
  8
0
  6
CONTINUOUS
 62
     7
 10
664.0286718452719
 20
41.3447232608832
 30
0.0
 11
664.0286718452719
 21
51.382531544140548
 31
0.0
  0
LINE
  5
1FED
  8
0
  6
DASHED
 62
     3
 10
668.27867184527156
 20
50.325961527461843
 30
0.0
 11
668.27867184527156
 21
44.325961527461843
 31
0.0
  0
ARC
  5
1FF6
  8
0
  6
CONTINUOUS
 62
     7
 10
663.27867184527179
 20
56.325961527461843
 30
0.0
 40
5.5
 50
277.83747976308371
 51
82.162520236916279
  0
ARC
  5
1FF7
  8
0
  6
CONTINUOUS
 62
     7
 10
663.27867184527179
 20
56.325961527461843
 30
0.0
 40
5.0
 50
278.62692655867733
 51
81.373073441322646
  0
LINE
  5
1FF8
  8
0
  6
CONTINUOUS
 62
     7
 10
664.0286718452719
 20
64.325961527461843
 30
0.0
 11
663.27867184527179
 21
64.325961527461843
 31
0.0
  0
LINE
  5
1FF9
  8
0
  6
CONTINUOUS
 62
     7
 10
662.5286718452719
 20
64.325961527461843
 30
0.0
 11
663.27867184527179
 21
64.325961527461843
 31
0.0
  0
LINE
  5
1FFA
  8
CENTER
  6
CENTER
 62
     1
 10
702.27867184527145
 20
73.325961527461814
 30
0.0
 11
702.2786718452719
 21
56.325961527461843
 31
0.0
  0
LINE
  5
1FFF
  8
CENTER
  6
CENTER
 62
     1
 10
702.27867184527145
 20
39.32596152746185
 30
0.0
 11
702.2786718452719
 21
56.325961527461843
 31
0.0
  0
LINE
  5
2000
  8
CENTER
  6
CENTER
 62
     1
 10
694.27867184527145
 20
56.325961527461843
 30
0.0
 11
708.2786718452719
 21
56.325961527461843
 31
0.0
  0
LINE
  5
2001
  8
CENTER
  6
CENTER
 62
     1
 10
702.2786718452719
 20
53.075961527461843
 30
0.0
 11
702.2786718452719
 21
41.575961527461821
 31
0.0
  0
LINE
  5
2002
  8
0
  6
CONTINUOUS
 62
     7
 10
706.2786718452719
 20
70.825961527461772
 30
0.0
 11
706.2786718452719
 21
41.825961527461843
 31
0.0
  0
LINE
  5
2003
  8
0
  6
CONTINUOUS
 62
     7
 10
696.2786718452719
 20
71.325961527461843
 30
0.0
 11
696.2786718452719
 21
41.325961527461843
 31
0.0
  0
LINE
  5
2004
  8
0
  6
CONTINUOUS
 62
     7
 10
696.77867184527179
 20
41.325961527461843
 30
0.0
 11
696.77867184527179
 21
71.325961527461772
 31
0.0
  0
LINE
  5
2005
  8
0
  6
CONTINUOUS
 62
     7
 10
705.77867184527167
 20
41.325961527461843
 30
0.0
 11
705.77867184527167
 21
71.325961527461772
 31
0.0
  0
LINE
  5
2006
  8
CENTER
  6
CENTER
 62
     1
 10
698.2786718452719
 20
47.325961527461843
 30
0.0
 11
706.2786718452719
 21
47.325961527461807
 31
0.0
  0
LINE
  5
2008
  8
0
  6
CONTINUOUS
 62
     7
 10
696.2786718452719
 20
41.325961527461843
 30
0.0
 11
705.77867184527167
 21
41.325961527461843
 31
0.0
  0
LINE
  5
200D
  8
0
  6
CONTINUOUS
 62
     7
 10
705.77867184527167
 20
41.325961527461843
 30
0.0
 11
706.2786718452719
 21
41.825961527461843
 31
0.0
  0
LINE
  5
2016
  8
0
  6
DASHED
 62
     3
 10
696.77867184527179
 20
51.325961527461843
 30
0.0
 11
705.77867184527167
 21
51.325961527461843
 31
0.0
  0
LINE
  5
2017
  8
0
  6
DASHED
 62
     3
 10
696.77867184527179
 20
61.325961527461843
 30
0.0
 11
705.77867184527167
 21
61.325961527461843
 31
0.0
  0
LINE
  5
2018
  8
0
  6
DASHED
 62
     3
 10
696.77867184527179
 20
51.325961527461843
 30
0.0
 11
696.2786718452719
 21
50.825961527461843
 31
0.0
  0
LINE
  5
2019
  8
0
  6
DASHED
 62
     3
 10
696.77867184527179
 20
61.325961527461843
 30
0.0
 11
696.2786718452719
 21
61.825961527461843
 31
0.0
  0
LINE
  5
201A
  8
0
  6
DASHED
 62
     3
 10
705.77867184527167
 20
51.325961527461843
 30
0.0
 11
706.2786718452719
 21
50.825961527461843
 31
0.0
  0
LINE
  5
201B
  8
0
  6
DASHED
 62
     3
 10
705.77867184527167
 20
61.325961527461843
 30
0.0
 11
706.2786718452719
 21
61.825961527461843
 31
0.0
  0
LINE
  5
201C
  8
0
  6
DASHED
 62
     3
 10
706.2786718452719
 20
64.325961527461843
 30
0.0
 11
696.2786718452719
 21
64.325961527461843
 31
0.0
  0
LINE
  5
201D
  8
0
  6
CONTINUOUS
 62
     7
 10
696.2786718452719
 20
71.325961527461843
 30
0.0
 11
705.77867184527167
 21
71.325961527461843
 31
0.0
  0
LINE
  5
2020
  8
0
  6
CONTINUOUS
 62
     7
 10
705.77867184527167
 20
71.325961527461843
 30
0.0
 11
706.2786718452719
 21
70.825961527461843
 31
0.0
  0
LINE
  5
20CC
  8
0
  6
DASHED
 62
     3
 10
672.27867184527167
 20
44.325961527461843
 30
0.0
 11
668.27867184527167
 21
44.325961527461843
 31
0.0
  0
LINE
  5
214A
  8
0
  6
CONTINUOUS
 62
     7
 10
698.2786718452719
 20
71.325961527461843
 30
0.0
 11
698.2786718452719
 21
41.325961527461843
 31
0.0
  0
ENDSEC
  0
EOF
