  0
SECTION
  2
HEADER
  9
$ACADVER
  1
AC1009
  9
$INSBASE
 10
0.0
 20
0.0
 30
0.0
  9
$EXTMIN
 10
-10.32617962913184
 20
-8.0162905028779505
 30
-0.0000000000000058
  9
$EXTMAX
 10
185.14530835444791
 20
109.77739127437771
 30
0.0000000000000104
  9
$LIMMIN
 10
0.0
 20
0.0
  9
$LIMMAX
 10
420.0
 20
297.0
  9
$ORTHOMODE
 70
     1
  9
$REGENMODE
 70
     1
  9
$FILLMODE
 70
     1
  9
$QTEXTMODE
 70
     0
  9
$MIRRTEXT
 70
     0
  9
$DRAGMODE
 70
     2
  9
$LTSCALE
 40
0.5
  9
$OSMODE
 70
  3071
  9
$ATTMODE
 70
     1
  9
$TEXTSIZE
 40
3.0
  9
$TRACEWID
 40
1.0
  9
$TEXTSTYLE
  7
STANDARD
  9
$CLAYER
  8
MSM_DIMENSION
  9
$CELTYPE
  6
BYLAYER
  9
$CECOLOR
 62
   256
  9
$DIMSCALE
 40
1.0
  9
$DIMASZ
 40
2.5
  9
$DIMEXO
 40
0.625
  9
$DIMDLI
 40
3.75
  9
$DIMRND
 40
0.0
  9
$DIMDLE
 40
0.0
  9
$DIMEXE
 40
1.25
  9
$DIMTP
 40
0.0
  9
$DIMTM
 40
0.0
  9
$DIMTXT
 40
3.0
  9
$DIMCEN
 40
2.5
  9
$DIMTSZ
 40
0.0
  9
$DIMTOL
 70
     0
  9
$DIMLIM
 70
     0
  9
$DIMTIH
 70
     0
  9
$DIMTOH
 70
     0
  9
$DIMSE1
 70
     0
  9
$DIMSE2
 70
     0
  9
$DIMTAD
 70
     1
  9
$DIMZIN
 70
     8
  9
$DIMBLK
  1
OPEN30
  9
$DIMASO
 70
     1
  9
$DIMSHO
 70
     1
  9
$DIMPOST
  1

  9
$DIMAPOST
  1

  9
$DIMALT
 70
     0
  9
$DIMALTD
 70
     3
  9
$DIMALTF
 40
0.03937007874016
  9
$DIMLFAC
 40
1.0
  9
$DIMTOFL
 70
     1
  9
$DIMTVP
 40
0.0
  9
$DIMTIX
 70
     0
  9
$DIMSOXD
 70
     0
  9
$DIMSAH
 70
     0
  9
$DIMBLK1
  1

  9
$DIMBLK2
  1

  9
$DIMSTYLE
  2
MISUMI
  9
$DIMCLRD
 70
   256
  9
$DIMCLRE
 70
   256
  9
$DIMCLRT
 70
   256
  9
$DIMTFAC
 40
1.0
  9
$DIMGAP
 40
0.625
  9
$LUNITS
 70
     2
  9
$LUPREC
 70
     2
  9
$SKETCHINC
 40
1.0
  9
$FILLETRAD
 40
0.0
  9
$AUNITS
 70
     0
  9
$AUPREC
 70
     0
  9
$MENU
  1
.
  9
$ELEVATION
 40
0.0
  9
$PELEVATION
 40
0.0
  9
$THICKNESS
 40
0.0
  9
$LIMCHECK
 70
     0
  9
$BLIPMODE
 70
     0
  9
$CHAMFERA
 40
0.5
  9
$CHAMFERB
 40
0.5
  9
$SKPOLY
 70
     0
  9
$TDCREATE
 40
2455135.5720697111
  9
$TDUPDATE
 40
2458442.6154956599
  9
$TDINDWG
 40
1.0390272801
  9
$TDUSRTIMER
 40
2456776.4526655562
  9
$USRTIMER
 70
     1
  9
$ANGBASE
 50
0.0
  9
$ANGDIR
 70
     0
  9
$PDMODE
 70
    35
  9
$PDSIZE
 40
0.0
  9
$PLINEWID
 40
0.0
  9
$COORDS
 70
     2
  9
$SPLFRAME
 70
     0
  9
$SPLINETYPE
 70
     6
  9
$SPLINESEGS
 70
     8
  9
$ATTDIA
 70
     0
  9
$ATTREQ
 70
     1
  9
$HANDLING
 70
     1
  9
$HANDSEED
  5
13FED
  9
$SURFTAB1
 70
     6
  9
$SURFTAB2
 70
     6
  9
$SURFTYPE
 70
     6
  9
$SURFU
 70
     6
  9
$SURFV
 70
     6
  9
$UCSNAME
  2

  9
$UCSORG
 10
0.0
 20
0.0
 30
0.0
  9
$UCSXDIR
 10
1.0
 20
0.0
 30
0.0
  9
$UCSYDIR
 10
0.0
 20
1.0
 30
0.0
  9
$PUCSNAME
  2

  9
$PUCSORG
 10
0.0
 20
0.0
 30
0.0
  9
$PUCSXDIR
 10
1.0
 20
0.0
 30
0.0
  9
$PUCSYDIR
 10
0.0
 20
1.0
 30
0.0
  9
$USERI1
 70
     0
  9
$USERI2
 70
     0
  9
$USERI3
 70
     0
  9
$USERI4
 70
     0
  9
$USERI5
 70
     0
  9
$USERR1
 40
0.0
  9
$USERR2
 40
0.0
  9
$USERR3
 40
0.0
  9
$USERR4
 40
0.0
  9
$USERR5
 40
0.0
  9
$WORLDVIEW
 70
     1
  9
$SHADEDGE
 70
     3
  9
$SHADEDIF
 70
    70
  9
$TILEMODE
 70
     1
  9
$MAXACTVP
 70
    64
  9
$PLIMCHECK
 70
     0
  9
$PEXTMIN
 10
28.687182617187489
 20
19.99191756248473
 30
0.0
  9
$PEXTMAX
 10
258.18464355468751
 20
179.92725806236271
 30
0.0
  9
$PLIMMIN
 10
-5.027069091796875
 20
-5.027082920074462
  9
$PLIMMAX
 10
291.89892578125
 20
204.94624471664429
  9
$UNITMODE
 70
     0
  9
$VISRETAIN
 70
     1
  9
$PLINEGEN
 70
     0
  9
$PSLTSCALE
 70
     1
  0
ENDSEC
  0
SECTION
  2
TABLES
  0
TABLE
  2
VPORT
 70
     1
  0
VPORT
  2
*ACTIVE
 70
     0
 10
0.0
 20
0.0
 11
1.0
 21
1.0
 12
87.409564362658045
 22
50.880550385749871
 13
0.0
 23
0.0
 14
10.0
 24
10.0
 15
10.0
 25
10.0
 16
0.0
 26
0.0
 36
1.0
 17
0.0
 27
0.0
 37
0.0
 40
118.677134390585
 41
1.9224030037546931
 42
50.0
 43
0.0
 44
0.0
 50
0.0
 51
0.0
 71
    16
 72
  1000
 73
     1
 74
     3
 75
     0
 76
     0
 77
     0
 78
     0
  0
ENDTAB
  0
TABLE
  2
LTYPE
 70
     4
  0
LTYPE
  2
CONTINUOUS
 70
     0
  3
Solid line
 72
    65
 73
     0
 40
0.0
  0
LTYPE
  2
CENTER
 70
     0
  3
Center ____ _ ____ _ ____ _ ____ _ ____ _ ____
 72
    65
 73
     4
 40
50.799999999999997
 49
31.75
 49
-6.349999999999997
 49
6.349999999999997
 49
-6.349999999999997
  0
LTYPE
  2
DASHED
 70
     0
  3
Dashed __ __ __ __ __ __ __ __ __ __ __ __ __ _
 72
    65
 73
     2
 40
19.050000000000001
 49
12.699999999999999
 49
-6.349999999999997
  0
LTYPE
  2
PHANTOM
 70
     0
  3
Phantom ______  __  __  ______  __  __  ______
 72
    65
 73
     6
 40
63.5
 49
31.75
 49
-6.349999999999997
 49
6.349999999999997
 49
-6.349999999999997
 49
6.349999999999997
 49
-6.349999999999997
  0
ENDTAB
  0
TABLE
  2
LAYER
 70
     9
  0
LAYER
  2
0
 70
     0
 62
     7
  6
CONTINUOUS
  0
LAYER
  2
MSM_DIMENSION
 70
     0
 62
     2
  6
CONTINUOUS
  0
LAYER
  2
MSM_CENTER
 70
     0
 62
     1
  6
CENTER
  0
LAYER
  2
DEFPOINTS
 70
     0
 62
     7
  6
CONTINUOUS
  0
LAYER
  2
MSM_CONTINUOUS
 70
     0
 62
     7
  6
CONTINUOUS
  0
LAYER
  2
MSM_DASHED
 70
     0
 62
     4
  6
DASHED
  0
LAYER
  2
MSM_IMAGINARY
 70
     0
 62
     6
  6
PHANTOM
  0
LAYER
  2
MSM_NARROW
 70
     0
 62
     5
  6
CONTINUOUS
  0
LAYER
  2
MSM_PART_NUMBER
 70
     0
 62
     7
  6
CONTINUOUS
  0
ENDTAB
  0
TABLE
  2
STYLE
 70
     2
  0
STYLE
  2
STANDARD
 70
     0
 40
3.0
 41
1.0
 50
0.0
 71
     0
 42
3.0
  3
txt.shx
  4
bigfont.shx
  0
STYLE
  2
ANNOTATIVE
 70
     0
 40
0.0
 41
1.0
 50
0.0
 71
     0
 42
0.2
  3
txt
  4

  0
ENDTAB
  0
TABLE
  2
VIEW
 70
     0
  0
ENDTAB
  0
TABLE
  2
UCS
 70
     0
  0
ENDTAB
  0
TABLE
  2
APPID
 70
    26
  0
APPID
  2
ACAD
 70
     0
  0
APPID
  2
ACADANNOTATIVE
 70
     0
  0
APPID
  2
ACAD_MLEADERVER
 70
     0
  0
APPID
  2
ACAD_EXEMPT_FROM_CAD_STANDARDS
 70
     0
  0
APPID
  2
ACDBBLOCKREPETAG
 70
     0
  0
APPID
  2
ACAD_DSTYLE_DIMJOGGED_JOGA
 70
     0
  0
APPID
  2
ACAECLAYERSTANDARD
 70
     0
  0
APPID
  2
GENIUS_GENODEF_13
 70
     0
  0
APPID
  2
GENIUS_GENOBJ-N-FIL_13
 70
     0
  0
APPID
  2
ACAD_PSEXT
 70
     0
  0
APPID
  2
ACAD_DSTYLE_DIMRADIAL_EXTENSION
 70
     0
  0
APPID
  2
ACDBDYNAMICBLOCKTRUENAME
 70
     0
  0
APPID
  2
ACDBDYNAMICBLOCKGUID
 70
     0
  0
APPID
  2
ACDBBLOCKREPBTAG
 70
     0
  0
APPID
  2
ACAUTHENVIRON
 70
     0
  0
APPID
  2
GRADIENTCOLOR1ACI
 70
     0
  0
APPID
  2
GRADIENTCOLOR2ACI
 70
     0
  0
APPID
  2
ACAD_DSTYLE_DIMJAG
 70
     0
  0
APPID
  2
ACAD_DSTYLE_DIMTALN
 70
     0
  0
APPID
  2
ACCMTRANSPARENCY
 70
     0
  0
APPID
  2
ACAD_DSTYLE_DIMBREAK
 70
     0
  0
APPID
  2
ACAD_DSTYLE_DIMFLIPARROW_W
 70
     0
  0
APPID
  2
ACAD_DSTYLE_DIM_LINETYPE
 70
     0
  0
APPID
  2
ACAD_DSTYLE_DIM_EXT1_LINETYPE
 70
     0
  0
APPID
  2
ACAD_DSTYLE_DIM_EXT2_LINETYPE
 70
     0
  0
APPID
  2
ACAD_NAV_VCDISPLAY
 70
     0
  0
ENDTAB
  0
TABLE
  2
DIMSTYLE
 70
     3
  0
DIMSTYLE
  2
STANDARD
 70
     0
  3

  4

  5

  6

  7

 40
1.0
 41
0.18
 42
0.0625
 43
0.38
 44
0.18
 45
0.0
 46
0.0
 47
0.0
 48
0.0
140
0.18
141
0.09
142
0.0
143
25.399999999999999
144
1.0
145
0.0
146
1.0
147
0.09
 71
     0
 72
     0
 73
     1
 74
     1
 75
     0
 76
     0
 77
     0
 78
     0
170
     0
171
     2
172
     0
173
     0
174
     0
175
     0
176
     0
177
     0
178
     0
  0
DIMSTYLE
  2
ANNOTATIVE
 70
     0
  3

  4

  5

  6

  7

 40
1.0
 41
0.18
 42
0.0625
 43
0.38
 44
0.18
 45
0.0
 46
0.0
 47
0.0
 48
0.0
140
0.18
141
0.09
142
0.0
143
25.399999999999999
144
1.0
145
0.0
146
1.0
147
0.09
 71
     0
 72
     0
 73
     1
 74
     1
 75
     0
 76
     0
 77
     0
 78
     0
170
     0
171
     2
172
     0
173
     0
174
     0
175
     0
176
     0
177
     0
178
     0
  0
DIMSTYLE
  2
MISUMI
 70
     0
  3

  4

  5

  6

  7

 40
1.0
 41
2.5
 42
0.625
 43
3.75
 44
1.25
 45
0.0
 46
0.0
 47
0.0
 48
0.0
140
3.0
141
2.5
142
0.0
143
0.03937007874016
144
1.0
145
0.0
146
1.0
147
0.625
 71
     0
 72
     0
 73
     0
 74
     0
 75
     0
 76
     0
 77
     1
 78
     8
170
     0
171
     3
172
     1
173
     0
174
     0
175
     0
176
   256
177
   256
178
   256
  0
ENDTAB
  0
ENDSEC
  0
SECTION
  2
BLOCKS
  0
BLOCK
  8
0
  2
$MODEL_SPACE
 70
     0
 10
0.0
 20
0.0
 30
0.0
  3
$MODEL_SPACE
  1

  0
ENDBLK
  5
13F90
  8
0
  0
BLOCK
 67
     1
  8
0
  2
$PAPER_SPACE
 70
     0
 10
0.0
 20
0.0
 30
0.0
  3
$PAPER_SPACE
  1

  0
ENDBLK
  5
13F8C
 67
     1
  8
0
  0
BLOCK
  8
0
 62
     7
  2
_OPEN30
 70
     0
 10
0.0
 20
0.0
 30
0.0
  3
_OPEN30
  1

  0
LINE
  5
D7
  8
0
  6
BYBLOCK
 62
     0
 10
-1.0
 20
0.26794919
 30
0.0
 11
0.0
 21
0.0
 31
0.0
  0
LINE
  5
D8
  8
0
  6
BYBLOCK
 62
     0
 10
0.0
 20
0.0
 30
0.0
 11
-1.0
 21
-0.26794919
 31
0.0
  0
LINE
  5
D9
  8
0
  6
BYBLOCK
 62
     0
 10
0.0
 20
0.0
 30
0.0
 11
-1.0
 21
0.0
 31
0.0
  0
ENDBLK
  5
DB
  8
0
 62
     7
  0
ENDSEC
  0
SECTION
  2
ENTITIES
  0
LINE
  5
12D64
  8
MSM_CONTINUOUS
 10
133.11052054247361
 20
9.9999999999999911
 30
0.0
 11
134.7539851442736
 21
9.9999999999999911
 31
0.0
  0
LINE
  5
12D65
  8
MSM_CONTINUOUS
 10
134.7539851442736
 20
93.0
 30
0.0
 11
133.11052054247361
 21
93.0
 31
0.0
  0
LINE
  5
12D66
  8
MSM_CONTINUOUS
 10
134.7539851442736
 20
9.9999999999999911
 30
0.0
 11
135.61052054247361
 21
13.65
 31
0.0
  0
LINE
  5
12D67
  8
MSM_CONTINUOUS
 10
135.61052054247361
 20
89.350000000000023
 30
0.0
 11
134.7539851442736
 21
93.0
 31
0.0
  0
LINE
  5
12D68
  8
MSM_CONTINUOUS
 10
166.11052054247361
 20
93.0
 30
0.0
 11
164.4670559406737
 21
93.0
 31
0.0
  0
LINE
  5
12D69
  8
MSM_CONTINUOUS
 10
164.4670559406737
 20
9.9999999999999911
 30
0.0
 11
166.11052054247361
 21
9.9999999999999911
 31
0.0
  0
LINE
  5
12D6A
  8
MSM_CONTINUOUS
 10
164.4670559406737
 20
93.0
 30
0.0
 11
163.61052054247361
 21
89.350000000000023
 31
0.0
  0
LINE
  5
12D6B
  8
MSM_CONTINUOUS
 10
163.61052054247361
 20
13.65
 30
0.0
 11
164.4670559406737
 21
9.9999999999999911
 31
0.0
  0
LINE
  5
12D74
  8
MSM_CONTINUOUS
 10
135.61052054247361
 20
13.77999999999999
 30
0.0
 11
163.61052054247361
 21
13.77999999999999
 31
0.0
  0
LINE
  5
12D75
  8
MSM_CONTINUOUS
 10
134.7539851442736
 20
9.9999999999999911
 30
0.0
 11
134.7539851442736
 21
93.0
 31
0.0
  0
LINE
  5
12D77
  8
MSM_CONTINUOUS
 10
133.11052054247361
 20
9.9999999999999911
 30
0.0
 11
133.11052054247361
 21
93.0
 31
0.0
  0
LINE
  5
12D79
  8
MSM_CONTINUOUS
 10
135.61052054247361
 20
13.65
 30
0.0
 11
135.61052054247361
 21
89.350000000000023
 31
0.0
  0
LINE
  5
12D7C
  8
MSM_CONTINUOUS
 10
166.11052054247361
 20
93.0
 30
0.0
 11
166.11052054247361
 21
9.9999999999999911
 31
0.0
  0
LINE
  5
12D7E
  8
MSM_CONTINUOUS
 10
164.4670559406737
 20
93.0
 30
0.0
 11
164.4670559406737
 21
9.9999999999999911
 31
0.0
  0
LINE
  5
12D80
  8
MSM_CONTINUOUS
 10
163.61052054247361
 20
89.350000000000023
 30
0.0
 11
163.61052054247361
 21
13.65
 31
0.0
  0
LINE
  5
12DB4
  8
MSM_DASHED
 10
134.01052054247361
 20
13.83521802730001
 30
0.0
 11
134.01052054247361
 21
89.1647819728
 31
0.0
  0
LINE
  5
12DB7
  8
MSM_DASHED
 10
165.2105205424736
 20
89.1647819728
 30
0.0
 11
165.2105205424736
 21
13.83521802730001
 31
0.0
  0
LINE
  5
12E04
  8
MSM_DASHED
 10
133.11052054247361
 20
9.9999999999999911
 30
0.0
 11
134.01052054247361
 21
13.83521802730001
 31
0.0
  0
LINE
  5
12E05
  8
MSM_DASHED
 10
134.01052054247361
 20
89.1647819728
 30
0.0
 11
133.11052054247361
 21
93.0
 31
0.0
  0
LINE
  5
12E08
  8
MSM_DASHED
 10
166.11052054247361
 20
93.0
 30
0.0
 11
165.2105205424736
 21
89.1647819728
 31
0.0
  0
LINE
  5
12E09
  8
MSM_DASHED
 10
165.2105205424736
 20
13.83521802730001
 30
0.0
 11
166.11052054247361
 21
9.9999999999999911
 31
0.0
  0
LINE
  5
12E0D
  8
MSM_DASHED
 10
163.61052054247361
 20
19.999999999999989
 30
0.0
 11
166.11052054247361
 21
19.999999999999989
 31
0.0
  0
LINE
  5
12E0E
  8
MSM_DASHED
 10
166.11052054247361
 20
83.0
 30
0.0
 11
163.61052054247361
 21
83.0
 31
0.0
  0
LINE
  5
12E0F
  8
MSM_DASHED
 10
133.11052054247361
 20
19.999999999999989
 30
0.0
 11
135.61052054247361
 21
19.999999999999989
 31
0.0
  0
LINE
  5
12E10
  8
MSM_DASHED
 10
135.61052054247361
 20
83.0
 30
0.0
 11
133.11052054247361
 21
83.0
 31
0.0
  0
LINE
  5
12E18
  8
MSM_NARROW
 10
163.61052054247361
 20
86.930000000000035
 30
0.0
 11
135.61052054247361
 21
86.930000000000035
 31
0.0
  0
LINE
  5
12EBD
  8
MSM_CENTER
 10
185.14462845331229
 20
51.499999999999993
 30
0.0
 11
128.64414313225791
 21
51.499999999999979
 31
0.0
  0
LINE
  5
132A4
  8
MSM_CENTER
 10
130.9496525151153
 20
89.905000000000001
 30
0.0
 11
168.3313069283339
 21
89.904999999999987
 31
0.0
  0
LINE
  5
132A5
  8
MSM_CENTER
 10
130.9496525151153
 20
13.094999999999979
 30
0.0
 11
168.3313069283339
 21
13.095000000000001
 31
0.0
  0
LINE
  5
132D6
  8
MSM_CONTINUOUS
 10
135.61052054247361
 20
89.219999999999999
 30
0.0
 11
163.61052054247361
 21
89.219999999999985
 31
0.0
  0
LINE
  5
1338B
  8
MSM_NARROW
 10
163.61052054247361
 20
16.069999999999929
 30
0.0
 11
135.61052054247361
 21
16.069999999999929
 31
0.0
  0
TEXT
  5
133AF
  8
MSM_PART_NUMBER
 10
-0.0000000000000002
 20
-3.014814173635044
 30
0.0
 40
3.0
  1
P19H100B
  0
TEXT
  5
133B0
  8
MSM_PART_NUMBER
 10
0.0000000000000001
 20
-8.0023318708915667
 30
0.0
 40
3.0
  1
P19H100B
  0
LINE
  5
1366D
  8
MSM_CONTINUOUS
 10
166.11052054247361
 20
24.000000000000028
 30
0.0
 11
181.11052054247361
 21
24.000000000000028
 31
0.0
  0
LINE
  5
1366E
  8
MSM_CONTINUOUS
 10
181.11052054247361
 20
79.000000000000028
 30
0.0
 11
166.11052054247361
 21
79.000000000000028
 31
0.0
  0
LINE
  5
1366F
  8
MSM_CONTINUOUS
 10
181.11052054247361
 20
24.000000000000028
 30
0.0
 11
181.11052054247361
 21
79.000000000000028
 31
0.0
  0
LINE
  5
13897
  8
MSM_CENTER
 10
94.828802878662046
 20
51.5
 30
0.0
 11
-10.306486370238851
 21
51.5
 31
0.0
  0
LINE
  5
13898
  8
MSM_CENTER
 10
41.500000000000007
 20
-4.345450197995091
 30
0.0
 11
41.500000000000007
 21
109.76025039512091
 31
0.0
  0
CIRCLE
  5
138A2
  8
MSM_CONTINUOUS
 10
41.500000000000007
 20
51.5
 30
0.0
 40
37.664781972789001
  0
CIRCLE
  5
138A3
  8
MSM_CONTINUOUS
 10
41.500000000000007
 20
51.5
 30
0.0
 40
41.500000000000007
  0
CIRCLE
  5
138A4
  8
MSM_CONTINUOUS
 10
41.500000000000007
 20
51.5
 30
0.0
 40
31.500000000000011
  0
CIRCLE
  5
138A5
  8
MSM_DASHED
 10
41.500000000000007
 20
51.5
 30
0.0
 40
37.850000000000001
  0
ARC
  5
138A6
  8
MSM_DASHED
 10
41.500000000000007
 20
51.5
 30
0.0
 40
37.720000000000411
 50
57.67095978550018
 51
65.486934951300583
  0
ARC
  5
138A7
  8
MSM_DASHED
 10
61.244103424100018
 20
82.697063643500002
 30
0.0
 40
0.8000000000021502
 50
342.10526315799962
 51
57.67095978539988
  0
LINE
  5
138A8
  8
MSM_DASHED
 10
61.645068528200028
 20
81.335285349999978
 30
0.0
 11
62.005401530900031
 21
82.451248280599984
 31
0.0
  0
ARC
  5
138A9
  8
MSM_DASHED
 10
62.406366635000012
 20
81.089469987100017
 30
0.0
 40
0.7999999999992382
 50
162.10526315780101
 51
234.7569781566994
  0
ARC
  5
138AA
  8
MSM_DASHED
 10
41.499999999800032
 20
51.499999999699959
 30
0.0
 40
35.430000000334402
 50
49.453548345100273
 51
54.756978156600212
  0
ARC
  5
138AB
  8
MSM_DASHED
 10
65.051830476800021
 20
79.030422829899976
 30
0.0
 40
0.7999999999984111
 50
229.45353992699901
 51
302.1052631579999
  0
LINE
  5
138AC
  8
MSM_DASHED
 10
66.470369830500033
 20
78.976023958999974
 30
0.0
 11
65.47701159150003
 21
78.352764346799958
 31
0.0
  0
ARC
  5
138AD
  8
MSM_DASHED
 10
66.89555094530003
 20
78.298365475999987
 30
0.0
 40
0.8000000000021449
 50
46.539566530400229
 51
122.10526315780029
  0
ARC
  5
138AE
  8
MSM_DASHED
 10
41.500000000000007
 20
51.5
 30
0.0
 40
37.720000000000567
 50
38.723591364499121
 51
46.539566530300739
  0
ARC
  5
138AF
  8
MSM_DASHED
 10
70.303983446200036
 20
74.595820782699931
 30
0.0
 40
0.8000000000021403
 50
323.15789473690103
 51
38.723591364300773
  0
LINE
  5
138B0
  8
MSM_DASHED
 10
70.241054466000023
 20
73.177634236899991
 30
0.0
 11
70.944216203900055
 21
74.116131282999987
 31
0.0
  0
ARC
  5
138B1
  8
MSM_DASHED
 10
70.881287223600012
 20
72.697944737199961
 30
0.0
 40
0.7999999999992787
 50
143.15789473679919
 51
215.80960973560039
  0
ARC
  5
138B2
  8
MSM_DASHED
 10
41.499999999700023
 20
51.499999999800004
 30
0.0
 40
35.430000000330899
 50
30.50617992399928
 51
35.809609735499869
  0
ARC
  5
138B3
  8
MSM_DASHED
 10
72.714841018400008
 20
69.891481729199995
 30
0.0
 40
0.7999999999983886
 50
210.5061715059
 51
283.15789473690012
  0
LINE
  5
138B4
  8
MSM_DASHED
 10
74.03885671270001
 20
69.37943136399997
 30
0.0
 11
72.896949297800035
 21
69.112484569599985
 31
0.0
  0
ARC
  5
138B5
  8
MSM_DASHED
 10
74.220964992100022
 20
68.600434204499976
 30
0.0
 40
0.8000000000021325
 50
27.5921981093
 51
103.1578947367999
  0
ARC
  5
138B6
  8
MSM_DASHED
 10
41.500000000000007
 20
51.5
 30
0.0
 40
37.72000000000061
 50
19.776222943399691
 51
27.59219810920079
  0
ARC
  5
138B7
  8
MSM_DASHED
 10
76.242504922100053
 20
63.991787371499967
 30
0.0
 40
0.8000000000021575
 50
304.21052631590061
 51
19.77622294329932
  0
LINE
  5
138B8
  8
MSM_DASHED
 10
75.722501188900011
 20
62.670875090999957
 30
0.0
 11
76.69229317700001
 21
63.330205535499971
 31
0.0
  0
ARC
  5
138B9
  8
MSM_DASHED
 10
76.172289443800054
 20
62.009293254999982
 30
0.0
 40
0.7999999999992787
 50
124.2105263157008
 51
196.86224131450101
  0
ARC
  5
138BA
  8
MSM_DASHED
 10
41.499999999700023
 20
51.49999999989997
 30
0.0
 40
35.430000000333727
 50
11.558811503000049
 51
16.86224131450102
  0
ARC
  5
138BB
  8
MSM_DASHED
 10
76.995239187500033
 20
58.759538209899972
 30
0.0
 40
0.7999999999983825
 50
191.55880308489881
 51
264.2105263159001
  0
LINE
  5
138BC
  8
MSM_DASHED
 10
78.081253577700011
 20
57.845324952699968
 30
0.0
 11
76.914540373800037
 21
57.963618803499969
 31
0.0
  0
ARC
  5
138BD
  8
MSM_DASHED
 10
78.000554764000015
 20
57.049405546299987
 30
0.0
 40
0.8000000000021373
 50
8.6448296882998061
 51
84.210526315699894
  0
ARC
  5
138BE
  8
MSM_DASHED
 10
41.500000000000007
 20
51.5
 30
0.0
 40
37.720000000000482
 50
0.8288545224004531
 51
8.6448296882009767
  0
ARC
  5
138BF
  8
MSM_DASHED
 10
78.41613690420003
 20
52.034074968599967
 30
0.0
 40
0.8000000000021522
 50
285.26315789479912
 51
0.8288545222001337
  0
LINE
  5
138C0
  8
MSM_DASHED
 10
77.495408891200029
 20
50.953578295100002
 30
0.0
 11
78.626739119800021
 21
51.262293453699982
 31
0.0
  0
ARC
  5
138C1
  8
MSM_DASHED
 10
77.706011106900021
 20
50.18179678019996
 30
0.0
 40
0.7999999999992418
 50
105.2631578947
 51
177.91487289349999
  0
ARC
  5
138C2
  8
MSM_DASHED
 10
41.499999999600007
 20
51.5
 30
0.0
 40
35.430000000339312
 50
352.61144308190018
 51
357.91487289339898
  0
ARC
  5
138C3
  8
MSM_DASHED
 10
77.42917742520001
 20
46.840911082199987
 30
0.0
 40
0.7999999999984117
 50
172.6114346638
 51
245.2631578948
  0
LINE
  5
138C4
  8
MSM_DASHED
 10
78.159504000900014
 20
45.623604124999972
 30
0.0
 11
77.094416487100034
 21
46.114319646599981
 31
0.0
  0
ARC
  5
138C5
  8
MSM_DASHED
 10
77.824743062700009
 20
44.897012689399979
 30
0.0
 40
0.8000000000021591
 50
349.69746126720122
 51
65.263157894699361
  0
ARC
  5
138C6
  8
MSM_DASHED
 10
41.500000000000007
 20
51.5
 30
0.0
 40
37.72000000000056
 50
341.8814861012994
 51
349.69746126710021
  0
ARC
  5
138C7
  8
MSM_DASHED
 10
76.589332639700032
 20
40.018487255799982
 30
0.0
 40
0.8000000000021351
 50
266.31578947380012
 51
341.8814861012001
  0
LINE
  5
138C8
  8
MSM_DASHED
 10
75.367655513800031
 20
39.295494769399959
 30
0.0
 11
76.537926798200033
 21
39.220140564499992
 31
0.0
  0
ARC
  5
138C9
  8
MSM_DASHED
 10
75.316249672299989
 20
38.497148078199977
 30
0.0
 40
0.7999999999992771
 50
86.315789473600105
 51
158.9675044723993
  0
ARC
  5
138CA
  8
MSM_DASHED
 10
41.499999999700023
 20
51.500000000099988
 30
0.0
 40
35.43000000033377
 50
333.66407466090078
 51
338.96750447239941
  0
ARC
  5
138CB
  8
MSM_DASHED
 10
73.969631790300014
 20
35.427168531999968
 30
0.0
 40
0.7999999999984409
 50
153.6640662428
 51
226.3157894737997
  0
LINE
  5
138CC
  8
MSM_DASHED
 10
74.265128334800011
 20
34.038681971899962
 30
0.0
 11
73.41708526970001
 21
34.848642523499961
 31
0.0
  0
ARC
  5
138CD
  8
MSM_DASHED
 10
73.712581814200021
 20
33.460155963399991
 30
0.0
 40
0.8000000000021426
 50
330.75009284620018
 51
46.315789473599267
  0
ARC
  5
138CE
  8
MSM_DASHED
 10
41.500000000000007
 20
51.5
 30
0.0
 40
37.720000000000567
 50
322.93411768030001
 51
330.75009284600043
  0
ARC
  5
138CF
  8
MSM_DASHED
 10
70.960054716700014
 20
29.247099602799981
 30
0.0
 40
0.8000000000021362
 50
247.3684210527
 51
322.93411768009997
  0
LINE
  5
138D0
  8
MSM_DASHED
 10
69.569816150700021
 20
28.959958757999971
 30
0.0
 11
70.652211438600034
 21
28.508700986799969
 31
0.0
  0
ARC
  5
138D1
  8
MSM_DASHED
 10
69.261972872500024
 20
28.221560141999991
 30
0.0
 40
0.7999999999992631
 50
67.368421052599103
 51
140.02013605139919
  0
ARC
  5
138D2
  8
MSM_DASHED
 10
41.499999999700023
 20
51.50000000019994
 30
0.0
 40
35.430000000336257
 50
314.71670623980049
 51
320.02013605129918
  0
ARC
  5
138D3
  8
MSM_DASHED
 10
66.991497732700026
 20
25.755166667000001
 30
0.0
 40
0.7999999999984067
 50
134.71669782170019
 51
207.3684210527006
  0
LINE
  5
138D4
  8
MSM_DASHED
 10
66.820142610200023
 20
24.34596456749998
 30
0.0
 11
66.281042618800015
 21
25.387398355299979
 31
0.0
  0
ARC
  5
138D5
  8
MSM_DASHED
 10
66.10968749630004
 20
23.97819625579999
 30
0.0
 40
0.800000000002133
 50
311.80272442509909
 51
27.368421052599722
  0
ARC
  5
138D6
  8
MSM_DASHED
 10
41.500000000000007
 20
51.5
 30
0.0
 40
37.720000000000447
 50
303.98674925919931
 51
311.8027244249991
  0
ARC
  5
138D7
  8
MSM_DASHED
 10
62.138322745300037
 20
20.887158997199979
 30
0.0
 40
0.8000000000021298
 50
228.42105263169961
 51
303.98674925910001
  0
LINE
  5
138D8
  8
MSM_DASHED
 10
60.730176659500017
 20
21.066985959799968
 30
0.0
 11
61.607401626400019
 21
20.28872540399999
 31
0.0
  0
ARC
  5
138D9
  8
MSM_DASHED
 10
60.199255540700022
 20
20.46855236659999
 30
0.0
 40
0.7999999999992772
 50
48.421052631500757
 51
121.07276763030001
  0
ARC
  5
138DA
  8
MSM_DASHED
 10
41.499999999800032
 20
51.500000000299963
 30
0.0
 40
35.43000000033048
 50
295.76933781880001
 51
301.07276763029989
  0
ARC
  5
138DB
  8
MSM_DASHED
 10
57.250964354400018
 20
18.8730169659
 30
0.0
 40
0.7999999999984189
 50
115.7693294007
 51
188.42105263169981
  0
LINE
  5
138DC
  8
MSM_DASHED
 10
56.631326551400022
 20
17.595808240399968
 30
0.0
 11
56.459589482600023
 21
18.755859754199971
 31
0.0
  0
ARC
  5
138DD
  8
MSM_DASHED
 10
55.83995167960002
 20
17.478651028699971
 30
0.0
 40
0.800000000002125
 50
292.85535600409912
 51
8.4210526315006682
  0
ARC
  5
138DE
  8
MSM_DASHED
 10
41.500000000000007
 20
51.5
 30
0.0
 40
37.720000000000432
 50
285.03938083819958
 51
292.85535600390051
  0
ARC
  5
138DF
  8
MSM_DASHED
 10
51.080108267800021
 20
15.844594721499989
 30
0.0
 40
0.8000000000021335
 50
209.4736842106002
 51
285.0393808379992
  0
LINE
  5
138E0
  8
MSM_DASHED
 10
49.806649140400012
 20
16.47190244979998
 30
0.0
 11
50.383642849500021
 21
15.45097571639999
 31
0.0
  0
ARC
  5
138E1
  8
MSM_DASHED
 10
49.110183722100011
 20
16.078283444799979
 30
0.0
 40
0.7999999999992367
 50
29.473684210499261
 51
102.1253992093
  0
ARC
  5
138E2
  8
MSM_DASHED
 10
41.49999999990002
 20
51.500000000299963
 30
0.0
 40
35.430000000338246
 50
276.8219693977
 51
282.1253992091996
  0
ARC
  5
138E3
  8
MSM_DASHED
 10
45.803569586900032
 20
15.52650713629998
 30
0.0
 40
0.7999999999983969
 50
96.821960979599865
 51
169.47368421060051
  0
LINE
  5
138E4
  8
MSM_DASHED
 10
44.802796474000033
 20
14.519697168299979
 30
0.0
 11
45.017032704000009
 21
15.672656826299971
 31
0.0
  0
ARC
  5
138E5
  8
MSM_DASHED
 10
44.016259591100017
 20
14.665846858199981
 30
0.0
 40
0.800000000002155
 50
273.90798758300002
 51
349.47368421049958
  0
ARC
  5
138E6
  8
MSM_DASHED
 10
41.500000000000007
 20
51.5
 30
0.0
 40
37.720000000000368
 50
266.09201241709991
 51
273.90798758289998
  0
ARC
  5
138E7
  8
MSM_DASHED
 10
38.983740408900033
 20
14.665846858199981
 30
0.0
 40
0.8000000000021497
 50
190.52631578959981
 51
266.09201241699998
  0
LINE
  5
138E8
  8
MSM_DASHED
 10
37.98296729600002
 20
15.672656826299971
 30
0.0
 11
38.197203526000031
 21
14.519697168299979
 31
0.0
  0
ARC
  5
138E9
  8
MSM_DASHED
 10
37.196430413100032
 20
15.52650713629998
 30
0.0
 40
0.7999999999992548
 50
10.52631578939944
 51
83.178030788199933
  0
ARC
  5
138EA
  8
MSM_DASHED
 10
41.500000000000007
 20
51.500000000299963
 30
0.0
 40
35.430000000335433
 50
257.87460097669998
 51
263.17803078819998
  0
ARC
  5
138EB
  8
MSM_DASHED
 10
33.88981627780003
 20
16.078283444799979
 30
0.0
 40
0.7999999999983845
 50
77.874592558600028
 51
150.52631578959981
  0
LINE
  5
138EC
  8
MSM_DASHED
 10
32.616357150400042
 20
15.45097571639999
 30
0.0
 11
33.193350859500029
 21
16.47190244979998
 31
0.0
  0
ARC
  5
138ED
  8
MSM_DASHED
 10
31.91989173210002
 20
15.844594721499989
 30
0.0
 40
0.8000000000021416
 50
254.9606191620006
 51
330.52631578939969
  0
ARC
  5
138EE
  8
MSM_DASHED
 10
41.500000000000007
 20
51.5
 30
0.0
 40
37.720000000000432
 50
247.14464399609949
 51
254.96061916180031
  0
ARC
  5
138EF
  8
MSM_DASHED
 10
27.16004832040003
 20
17.478651028699971
 30
0.0
 40
0.8000000000021161
 50
171.57894736849931
 51
247.14464399590071
  0
LINE
  5
138F0
  8
MSM_DASHED
 10
26.54041051740003
 20
18.755859754199971
 30
0.0
 11
26.368673448600031
 21
17.595808240399968
 31
0.0
  0
ARC
  5
138F1
  8
MSM_DASHED
 10
25.749035645600031
 20
18.8730169659
 30
0.0
 40
0.7999999999992756
 50
351.57894736839887
 51
64.230662367200594
  0
ARC
  5
138F2
  8
MSM_DASHED
 10
41.50000000010003
 20
51.500000000299963
 30
0.0
 40
35.430000000345572
 50
238.92723255559989
 51
244.23066236709991
  0
ARC
  5
138F3
  8
MSM_DASHED
 10
22.800744459300031
 20
20.46855236659999
 30
0.0
 40
0.7999999999984011
 50
58.927224137500772
 51
131.5789473684992
  0
LINE
  5
138F4
  8
MSM_DASHED
 10
21.392598373500029
 20
20.28872540399999
 30
0.0
 11
22.269823340400041
 21
21.066985959799968
 31
0.0
  0
ARC
  5
138F5
  8
MSM_DASHED
 10
20.86167725470003
 20
20.887158997199979
 30
0.0
 40
0.8000000000021342
 50
236.01325074089991
 51
311.57894736830019
  0
ARC
  5
138F6
  8
MSM_DASHED
 10
41.500000000000007
 20
51.5
 30
0.0
 40
37.720000000000432
 50
228.19727557500099
 51
236.01325074080049
  0
ARC
  5
138F7
  8
MSM_DASHED
 10
16.89031250370002
 20
23.97819625579999
 30
0.0
 40
0.8000000000021309
 50
152.63157894740019
 51
228.19727557490091
  0
LINE
  5
138F8
  8
MSM_DASHED
 10
16.718957381200031
 20
25.387398355299979
 30
0.0
 11
16.179857389700022
 21
24.34596456749998
 31
0.0
  0
ARC
  5
138F9
  8
MSM_DASHED
 10
16.008502267300031
 20
25.755166667000001
 30
0.0
 40
0.7999999999992477
 50
332.63157894729937
 51
45.283293946099839
  0
ARC
  5
138FA
  8
MSM_DASHED
 10
41.500000000200011
 20
51.50000000019994
 30
0.0
 40
35.430000000338161
 50
219.9798641346008
 51
225.2832939460998
  0
ARC
  5
138FB
  8
MSM_DASHED
 10
13.73802712740002
 20
28.221560141999991
 30
0.0
 40
0.7999999999984157
 50
39.979855716500971
 51
112.6315789474009
  0
LINE
  5
138FC
  8
MSM_DASHED
 10
12.347788561400019
 20
28.508700986799969
 30
0.0
 11
13.430183849300031
 21
28.959958757999971
 31
0.0
  0
ARC
  5
138FD
  8
MSM_DASHED
 10
12.03994528320001
 20
29.247099602799981
 30
0.0
 40
0.8000000000021534
 50
217.0658823199
 51
292.63157894729989
  0
ARC
  5
138FE
  8
MSM_DASHED
 10
41.500000000000007
 20
51.5
 30
0.0
 40
37.720000000000567
 50
209.2499071539996
 51
217.06588231969999
  0
ARC
  5
138FF
  8
MSM_DASHED
 10
9.2874181858000195
 20
33.460155963399991
 30
0.0
 40
0.8000000000021437
 50
133.6842105264007
 51
209.24990715379991
  0
LINE
  5
13900
  8
MSM_DASHED
 10
9.5829147302000326
 20
34.848642523499961
 30
0.0
 11
8.7348716652000302
 21
34.038681971899962
 31
0.0
  0
ARC
  5
13901
  8
MSM_DASHED
 10
9.0303682096000291
 20
35.427168531999968
 30
0.0
 40
0.7999999999992853
 50
313.68421052629952
 51
26.335925525100318
  0
ARC
  5
13902
  8
MSM_DASHED
 10
41.50000000030002
 20
51.500000000099988
 30
0.0
 40
35.430000000340279
 50
201.0324957134998
 51
206.33592552500039
  0
ARC
  5
13903
  8
MSM_DASHED
 10
7.6837503277000252
 20
38.497148078199977
 30
0.0
 40
0.7999999999984191
 50
21.03248729539931
 51
93.684210526399866
  0
LINE
  5
13904
  8
MSM_DASHED
 10
6.4620732017000284
 20
39.220140564499992
 30
0.0
 11
7.632344486100024
 21
39.295494769399959
 31
0.0
  0
ARC
  5
13905
  8
MSM_DASHED
 10
6.410667360200021
 20
40.018487255799982
 30
0.0
 40
0.8000000000021524
 50
198.1185138987999
 51
273.68421052619988
  0
ARC
  5
13906
  8
MSM_DASHED
 10
41.500000000000007
 20
51.5
 30
0.0
 40
37.720000000000567
 50
190.3025387328999
 51
198.11851389870051
  0
ARC
  5
13907
  8
MSM_DASHED
 10
5.1752569372000252
 20
44.897012689399979
 30
0.0
 40
0.8000000000021547
 50
114.7368421053006
 51
190.3025387328006
  0
LINE
  5
13908
  8
MSM_DASHED
 10
5.905583512900022
 20
46.114319646599981
 30
0.0
 11
4.8404959991000283
 21
45.623604124999972
 31
0.0
  0
ARC
  5
13909
  8
MSM_DASHED
 10
5.5708225747000242
 20
46.840911082199987
 30
0.0
 40
0.7999999999992558
 50
294.73684210520008
 51
7.3885571039994939
  0
ARC
  5
1390A
  8
MSM_DASHED
 10
41.50000000030002
 20
51.5
 30
0.0
 40
35.43000000033399
 50
182.0851272925002
 51
187.38855710399949
  0
ARC
  5
1390B
  8
MSM_DASHED
 10
5.2939888931000283
 20
50.18179678019996
 30
0.0
 40
0.7999999999983956
 50
2.0851188744010121
 51
74.736842105299985
  0
LINE
  5
1390C
  8
MSM_DASHED
 10
4.373260880100017
 20
51.262293453699982
 30
0.0
 11
5.5045911088000281
 21
50.953578295100002
 31
0.0
  0
ARC
  5
1390D
  8
MSM_DASHED
 10
4.583863095800023
 20
52.034074968599967
 30
0.0
 40
0.8000000000021282
 50
179.17114547779991
 51
254.7368421052004
  0
ARC
  5
1390E
  8
MSM_DASHED
 10
41.500000000000007
 20
51.5
 30
0.0
 40
37.720000000000489
 50
171.35517031179899
 51
179.17114547759951
  0
ARC
  5
1390F
  8
MSM_DASHED
 10
4.9994452359000254
 20
57.049405546299987
 30
0.0
 40
0.8000000000021362
 50
95.789473684300106
 51
171.35517031170019
  0
LINE
  5
13910
  8
MSM_DASHED
 10
6.0854596262000271
 20
57.963618803499969
 30
0.0
 11
4.9187464222000301
 21
57.845324952699968
 31
0.0
  0
ARC
  5
13911
  8
MSM_DASHED
 10
6.004760812500022
 20
58.759538209899972
 30
0.0
 40
0.7999999999992418
 50
275.78947368419972
 51
348.44118868299972
  0
ARC
  5
13912
  8
MSM_DASHED
 10
41.50000000030002
 20
51.49999999989997
 30
0.0
 40
35.430000000340321
 50
163.13775887140091
 51
168.4411886829001
  0
ARC
  5
13913
  8
MSM_DASHED
 10
6.8277105561000271
 20
62.009293254999982
 30
0.0
 40
0.7999999999984265
 50
343.1377504532993
 51
55.789473684299217
  0
LINE
  5
13914
  8
MSM_DASHED
 10
6.3077068229000304
 20
63.330205535499971
 30
0.0
 11
7.2774988110000249
 21
62.670875090999957
 31
0.0
  0
ARC
  5
13915
  8
MSM_DASHED
 10
6.75749507780003
 20
63.991787371499967
 30
0.0
 40
0.8000000000021508
 50
160.2237770567007
 51
235.78947368409919
  0
ARC
  5
13916
  8
MSM_DASHED
 10
41.500000000000007
 20
51.5
 30
0.0
 40
37.72000000000061
 50
152.40780189079919
 51
160.22377705660031
  0
ARC
  5
13917
  8
MSM_DASHED
 10
8.7790350078000312
 20
68.600434204499976
 30
0.0
 40
0.8000000000021476
 50
76.84210526320004
 51
152.4078018907
  0
LINE
  5
13918
  8
MSM_DASHED
 10
10.10305070220002
 20
69.112484569599985
 30
0.0
 11
8.9611432872000218
 21
69.37943136399997
 31
0.0
  0
ARC
  5
13919
  8
MSM_DASHED
 10
10.28515898160002
 20
69.891481729199995
 30
0.0
 40
0.7999999999992498
 50
256.84210526309988
 51
329.49382026189937
  0
ARC
  5
1391A
  8
MSM_DASHED
 10
41.50000000030002
 20
51.499999999800004
 30
0.0
 40
35.430000000344528
 50
144.1903904503996
 51
149.4938202618994
  0
ARC
  5
1391B
  8
MSM_DASHED
 10
12.11871277640002
 20
72.697944737199961
 30
0.0
 40
0.7999999999984163
 50
324.19038203220038
 51
36.842105263200743
  0
LINE
  5
1391C
  8
MSM_DASHED
 10
12.05578379610003
 20
74.116131282999987
 30
0.0
 11
12.758945534000031
 21
73.177634236899991
 31
0.0
  0
ARC
  5
1391D
  8
MSM_DASHED
 10
12.696016553700019
 20
74.595820782699931
 30
0.0
 40
0.8000000000021277
 50
141.27640863569911
 51
216.84210526309911
  0
ARC
  5
1391E
  8
MSM_DASHED
 10
41.500000000000007
 20
51.5
 30
0.0
 40
37.720000000000567
 50
133.46043346969921
 51
141.2764086355009
  0
ARC
  5
1391F
  8
MSM_DASHED
 10
16.10444905470003
 20
78.298365475999987
 30
0.0
 40
0.8000000000021422
 50
57.894736842199663
 51
133.46043346959971
  0
LINE
  5
13920
  8
MSM_DASHED
 10
17.522988408400028
 20
78.352764346799958
 30
0.0
 11
16.529630169400019
 21
78.976023958999974
 31
0.0
  0
ARC
  5
13921
  8
MSM_DASHED
 10
17.948169523200029
 20
79.030422829899976
 30
0.0
 40
0.7999999999992649
 50
237.89473684210111
 51
310.54645184089969
  0
ARC
  5
13922
  8
MSM_DASHED
 10
41.500000000200011
 20
51.499999999699959
 30
0.0
 40
35.430000000337913
 50
125.243022029301
 51
130.54645184079939
  0
ARC
  5
13923
  8
MSM_DASHED
 10
20.593633364900018
 20
81.089469987100017
 30
0.0
 40
0.7999999999983806
 50
305.2430136111999
 51
17.894736842198931
  0
LINE
  5
13924
  8
MSM_DASHED
 10
20.994598469000032
 20
82.451248280599984
 30
0.0
 11
21.35493147170002
 21
81.335285349999978
 31
0.0
  0
ARC
  5
13925
  8
MSM_DASHED
 10
21.75589657580003
 20
82.697063643500002
 30
0.0
 40
0.8000000000021339
 50
122.3290402146
 51
197.8947368420003
  0
ARC
  5
13926
  8
MSM_DASHED
 10
41.500000000000007
 20
51.5
 30
0.0
 40
37.720000000000432
 50
114.5130650486994
 51
122.3290402144999
  0
ARC
  5
13927
  8
MSM_DASHED
 10
26.181865099000031
 20
85.092278028699994
 30
0.0
 40
0.8000000000021236
 50
38.947368421100578
 51
114.5130650486001
  0
LINE
  5
13928
  8
MSM_DASHED
 10
27.541207362300032
 20
84.683130443399975
 30
0.0
 11
26.804044078000029
 21
85.595163023699968
 31
0.0
  0
ARC
  5
13929
  8
MSM_DASHED
 10
28.163386341200031
 20
85.186015438399977
 30
0.0
 40
0.7999999999992249
 50
218.94736842099999
 51
291.59908341980042
  0
ARC
  5
1392A
  8
MSM_DASHED
 10
41.50000000010003
 20
51.499999999699959
 30
0.0
 40
35.43000000034035
 50
106.29565360820069
 51
111.5990834196995
  0
ARC
  5
1392B
  8
MSM_DASHED
 10
31.33408317410003
 20
86.274517036000006
 30
0.0
 40
0.7999999999983926
 50
286.29564519009972
 51
358.94736842110069
  0
LINE
  5
1392C
  8
MSM_DASHED
 10
32.155491572000031
 20
87.432317268899993
 30
0.0
 11
32.133948167400028
 21
86.2598203533
 31
0.0
  0
ARC
  5
1392D
  8
MSM_DASHED
 10
32.955356565300029
 20
87.417620586200002
 30
0.0
 40
0.8000000000021792
 50
103.38167179349929
 51
178.94736842099971
  0
ARC
  5
1392E
  8
MSM_DASHED
 10
41.500000000000007
 20
51.5
 30
0.0
 40
37.720000000000489
 50
95.565696627600019
 51
103.3816717933999
  0
ARC
  5
1392F
  8
MSM_DASHED
 10
37.919238745300049
 20
88.245946019099961
 30
0.0
 40
0.8000000000021241
 50
20.000000000100549
 51
95.56569662749996
  0
LINE
  5
13930
  8
MSM_DASHED
 10
39.072078091471511
 20
87.417589467140985
 30
0.0
 11
38.670992841900031
 21
88.519562133700006
 31
0.0
  0
ARC
  5
13931
  8
MSM_DASHED
 10
39.82383218810002
 20
87.691205581799963
 30
0.0
 40
0.7999999999992645
 50
199.9999999998995
 51
272.6517149988
  0
ARC
  5
13932
  8
MSM_DASHED
 10
41.500000000000007
 20
51.499999999599993
 30
0.0
 40
35.430000000342218
 50
87.348285187199892
 51
92.651714998700044
  0
ARC
  5
13933
  8
MSM_DASHED
 10
43.176167811799999
 20
87.691205581799963
 30
0.0
 40
0.7999999999984059
 50
267.34827676909998
 51
340.0000000001005
  0
LINE
  5
13934
  8
MSM_DASHED
 10
44.329007158099998
 20
88.519562133700006
 30
0.0
 11
43.927921908468043
 21
87.417589467112137
 31
0.0
  0
ARC
  5
13935
  8
MSM_DASHED
 10
45.080761254700022
 20
88.245946019099961
 30
0.0
 40
0.8000000000021375
 50
84.434303372500025
 51
159.99999999989939
  0
ARC
  5
13936
  8
MSM_DASHED
 10
41.500000000000007
 20
51.5
 30
0.0
 40
37.720000000000489
 50
76.61832820660004
 51
84.434303372399995
  0
ARC
  5
13937
  8
MSM_DASHED
 10
50.044643434700021
 20
87.417620586200002
 30
0.0
 40
0.8000000000021516
 50
1.052631579000302
 51
76.618328206399184
  0
LINE
  5
13938
  8
MSM_DASHED
 10
50.86605183250002
 20
86.2598203533
 30
0.0
 11
50.844508428000019
 21
87.432317268899993
 31
0.0
  0
ARC
  5
13939
  8
MSM_DASHED
 10
51.665916825800018
 20
86.274517036000006
 30
0.0
 40
0.7999999999992525
 50
181.0526315788992
 51
253.70434657769911
  0
ARC
  5
1393A
  8
MSM_DASHED
 10
41.49999999990002
 20
51.499999999699959
 30
0.0
 40
35.430000000342368
 50
68.400916766100096
 51
73.704346577599949
  0
ARC
  5
1393B
  8
MSM_DASHED
 10
54.836613658700017
 20
85.186015438399977
 30
0.0
 40
0.7999999999983697
 50
248.40090834799901
 51
321.05263157899992
  0
LINE
  5
1393C
  8
MSM_DASHED
 10
56.195955922000032
 20
85.595163023699968
 30
0.0
 11
55.45879263760002
 21
84.683130443399975
 31
0.0
  0
ARC
  5
1393D
  8
MSM_DASHED
 10
56.81813490090002
 20
85.092278028699994
 30
0.0
 40
0.8000000000021195
 50
65.486934951399888
 51
141.05263157889939
  0
CIRCLE
  5
1393E
  8
MSM_NARROW
 10
41.500000000000007
 20
51.499999999868237
 30
0.0
 40
35.43
  0
CIRCLE
  5
1393F
  8
MSM_IMAGINARY
 10
41.500000000000007
 20
51.499999999868237
 30
0.0
 40
37.719999999999999
  0
CIRCLE
  5
13940
  8
MSM_CENTER
 10
41.499999999454523
 20
51.500000000431299
 30
0.0
 40
38.405000000000001
  0
LINE
  5
13941
  8
MSM_NARROW
 10
39.077107816471127
 20
87.417822064739397
 30
0.0
 11
39.275000000047861
 21
86.86006610557871
 31
0.0
  0
LINE
  5
13942
  8
MSM_NARROW
 10
43.92289218403517
 20
87.417822064756734
 30
0.0
 11
43.724999999952217
 21
86.86006610557871
 31
0.0
  0
CIRCLE
  5
13B3B
  8
MSM_DASHED
 10
41.500000000000007
 20
51.499999999868237
 30
0.0
 40
27.5
  0
VIEWPORT
  5
13BE2
 67
     1
  8
0
 10
143.43592834472651
 20
99.959580898284926
 30
0.0
 40
429.6774191999163
 41
222.15178063964851
 68
     1
 69
     1
1001
ACAD
1000
MVIEW
1002
{
1070
    16
1010
0.0
1020
0.0
1030
0.0
1010
0.0
1020
0.0
1030
1.0
1040
0.0
1040
222.15178063964851
1040
143.43592834472651
1040
99.959580898284926
1040
50.0
1040
0.0
1040
0.0
1070
     0
1070
  1000
1070
     1
1070
     1
1070
     0
1070
     0
1070
     0
1070
     0
1040
0.0
1040
0.0
1040
0.0
1040
10.0
1040
10.0
1040
10.0
1040
10.0
1070
     0
1002
{
1002
}
1002
}
  0
VIEWPORT
  5
13BE6
 67
     1
  8
MSM_DIMENSION
 10
143.4359130859375
 20
99.95958781242372
 30
0.0
 40
229.49746093749999
 41
159.9353404998779
 68
     2
 69
     2
1001
ACAD
1000
MVIEW
1002
{
1070
    16
1010
0.0
1020
0.0
1030
0.0
1010
0.0
1020
0.0
1030
1.0
1040
0.0
1040
137.19329640694099
1040
87.419071041536597
1040
50.878959262114677
1040
50.0
1040
0.0
1040
0.0
1070
    16
1070
  1000
1070
     1
1070
     3
1070
     0
1070
     0
1070
     0
1070
     0
1040
0.0
1040
0.0
1040
0.0
1040
10.0
1040
10.0
1040
10.0
1040
10.0
1070
     0
1002
{
1002
}
1002
}
  0
ENDSEC
  0
EOF
