  0
SECTION
  2
HEADER
  9
$ACADVER
  1
AC1009
  9
$INSBASE
 10
0.0
 20
0.0
 30
0.0
  9
$EXTMIN
 10
-11.0
 20
-145.3312417927107
 30
0.0
  9
$EXTMAX
 10
157.56573599999999
 20
73.672055999999998
 30
0.0
  9
$LIMMIN
 10
0.0
 20
0.0
  9
$LIMMAX
 10
420.0
 20
297.0
  9
$ORTHOMODE
 70
     0
  9
$REGENMODE
 70
     1
  9
$FILLMODE
 70
     1
  9
$QTEXTMODE
 70
     0
  9
$MIRRTEXT
 70
     0
  9
$DRAGMODE
 70
     2
  9
$LTSCALE
 40
0.5
  9
$OSMODE
 70
   125
  9
$ATTMODE
 70
     1
  9
$TEXTSIZE
 40
3.0
  9
$TRACEWID
 40
1.0
  9
$TEXTSTYLE
  7
STANDARD
  9
$CLAYER
  8
MSM_CONTINUOUS
  9
$CELTYPE
  6
BYLAYER
  9
$CECOLOR
 62
   256
  9
$DIMSCALE
 40
1.0
  9
$DIMASZ
 40
2.5
  9
$DIMEXO
 40
0.625
  9
$DIMDLI
 40
3.75
  9
$DIMRND
 40
0.0
  9
$DIMDLE
 40
0.0
  9
$DIMEXE
 40
1.25
  9
$DIMTP
 40
0.0
  9
$DIMTM
 40
0.0
  9
$DIMTXT
 40
3.0
  9
$DIMCEN
 40
2.5
  9
$DIMTSZ
 40
0.0
  9
$DIMTOL
 70
     0
  9
$DIMLIM
 70
     0
  9
$DIMTIH
 70
     0
  9
$DIMTOH
 70
     0
  9
$DIMSE1
 70
     0
  9
$DIMSE2
 70
     0
  9
$DIMTAD
 70
     1
  9
$DIMZIN
 70
     8
  9
$DIMBLK
  1
OPEN30
  9
$DIMASO
 70
     1
  9
$DIMSHO
 70
     1
  9
$DIMPOST
  1

  9
$DIMAPOST
  1

  9
$DIMALT
 70
     0
  9
$DIMALTD
 70
     3
  9
$DIMALTF
 40
0.03937007874016
  9
$DIMLFAC
 40
1.0
  9
$DIMTOFL
 70
     1
  9
$DIMTVP
 40
0.0
  9
$DIMTIX
 70
     0
  9
$DIMSOXD
 70
     0
  9
$DIMSAH
 70
     0
  9
$DIMBLK1
  1

  9
$DIMBLK2
  1

  9
$DIMSTYLE
  2
MISUMI
  9
$DIMCLRD
 70
   256
  9
$DIMCLRE
 70
   256
  9
$DIMCLRT
 70
   256
  9
$DIMTFAC
 40
1.0
  9
$DIMGAP
 40
0.625
  9
$LUNITS
 70
     2
  9
$LUPREC
 70
     2
  9
$SKETCHINC
 40
1.0
  9
$FILLETRAD
 40
0.0
  9
$AUNITS
 70
     0
  9
$AUPREC
 70
     0
  9
$MENU
  1
.
  9
$ELEVATION
 40
0.0
  9
$PELEVATION
 40
0.0
  9
$THICKNESS
 40
0.0
  9
$LIMCHECK
 70
     0
  9
$BLIPMODE
 70
     0
  9
$CHAMFERA
 40
0.5
  9
$CHAMFERB
 40
0.5
  9
$SKPOLY
 70
     0
  9
$TDCREATE
 40
2455135.5720697111
  9
$TDUPDATE
 40
2456748.4470870718
  9
$TDINDWG
 40
0.7062592708
  9
$TDUSRTIMER
 40
2456563.304442592
  9
$USRTIMER
 70
     1
  9
$ANGBASE
 50
0.0
  9
$ANGDIR
 70
     0
  9
$PDMODE
 70
    35
  9
$PDSIZE
 40
0.0
  9
$PLINEWID
 40
0.0
  9
$COORDS
 70
     0
  9
$SPLFRAME
 70
     0
  9
$SPLINETYPE
 70
     6
  9
$SPLINESEGS
 70
     8
  9
$ATTDIA
 70
     0
  9
$ATTREQ
 70
     1
  9
$HANDLING
 70
     1
  9
$HANDSEED
  5
E39E
  9
$SURFTAB1
 70
     6
  9
$SURFTAB2
 70
     6
  9
$SURFTYPE
 70
     6
  9
$SURFU
 70
     6
  9
$SURFV
 70
     6
  9
$UCSNAME
  2

  9
$UCSORG
 10
0.0
 20
0.0
 30
0.0
  9
$UCSXDIR
 10
1.0
 20
0.0
 30
0.0
  9
$UCSYDIR
 10
0.0
 20
1.0
 30
0.0
  9
$PUCSNAME
  2

  9
$PUCSORG
 10
0.0
 20
0.0
 30
0.0
  9
$PUCSXDIR
 10
1.0
 20
0.0
 30
0.0
  9
$PUCSYDIR
 10
0.0
 20
1.0
 30
0.0
  9
$USERI1
 70
     0
  9
$USERI2
 70
     0
  9
$USERI3
 70
     0
  9
$USERI4
 70
     0
  9
$USERI5
 70
     0
  9
$USERR1
 40
0.0
  9
$USERR2
 40
0.0
  9
$USERR3
 40
0.0
  9
$USERR4
 40
0.0
  9
$USERR5
 40
0.0
  9
$WORLDVIEW
 70
     1
  9
$SHADEDGE
 70
     3
  9
$SHADEDIF
 70
    70
  9
$TILEMODE
 70
     1
  9
$MAXACTVP
 70
    64
  9
$PLIMCHECK
 70
     0
  9
$PEXTMIN
 10
0.0
 20
0.0
 30
0.0
  9
$PEXTMAX
 10
0.0
 20
0.0
 30
0.0
  9
$PLIMMIN
 10
0.0
 20
0.0
  9
$PLIMMAX
 10
12.0
 20
9.0
  9
$UNITMODE
 70
     0
  9
$VISRETAIN
 70
     1
  9
$PLINEGEN
 70
     0
  9
$PSLTSCALE
 70
     1
  0
ENDSEC
  0
SECTION
  2
TABLES
  0
TABLE
  2
VPORT
 70
     1
  0
VPORT
  2
*ACTIVE
 70
     0
 10
0.0
 20
0.0
 11
1.0
 21
1.0
 12
73.281624691073773
 22
-34.453764921959291
 13
0.0
 23
0.0
 14
10.0
 24
10.0
 15
10.0
 25
10.0
 16
0.0
 26
0.0
 36
1.0
 17
0.0
 27
0.0
 37
0.0
 40
224.04091775668761
 41
2.0690104166666661
 42
50.0
 43
0.0
 44
0.0
 50
0.0
 51
0.0
 71
    16
 72
  1000
 73
     1
 74
     3
 75
     0
 76
     0
 77
     0
 78
     0
  0
ENDTAB
  0
TABLE
  2
LTYPE
 70
     3
  0
LTYPE
  2
CONTINUOUS
 70
     0
  3
Solid line
 72
    65
 73
     0
 40
0.0
  0
LTYPE
  2
CENTER
 70
     0
  3
Center ____ _ ____ _ ____ _ ____ _ ____ _ ____
 72
    65
 73
     4
 40
50.799999999999997
 49
31.75
 49
-6.3499999999999988
 49
6.3499999999999988
 49
-6.3499999999999988
  0
LTYPE
  2
DASHED
 70
     0
  3
Dashed __ __ __ __ __ __ __ __ __ __ __ __ __ _
 72
    65
 73
     2
 40
19.050000000000001
 49
12.699999999999999
 49
-6.3499999999999988
  0
ENDTAB
  0
TABLE
  2
LAYER
 70
     8
  0
LAYER
  2
0
 70
     0
 62
     7
  6
CONTINUOUS
  0
LAYER
  2
MSM_CENTER
 70
     0
 62
     1
  6
CENTER
  0
LAYER
  2
DEFPOINTS
 70
     0
 62
     7
  6
CONTINUOUS
  0
LAYER
  2
MSM_CONTINUOUS
 70
     0
 62
     7
  6
CONTINUOUS
  0
LAYER
  2
MSM_DASHED
 70
     0
 62
     4
  6
DASHED
  0
LAYER
  2
MSM_NARROW
 70
     0
 62
     5
  6
CONTINUOUS
  0
LAYER
  2
MSM_PART_NUMBER
 70
     0
 62
     7
  6
CONTINUOUS
  0
ENDTAB
  0
TABLE
  2
STYLE
 70
     1
  0
STYLE
  2
STANDARD
 70
     0
 40
3.0
 41
1.0
 50
0.0
 71
     0
 42
3.0
  3
txt.shx
  4
bigfont.shx
  0
ENDTAB
  0
TABLE
  2
VIEW
 70
     2
  0
ENDTAB
  0
TABLE
  2
UCS
 70
     0
  0
ENDTAB
  0
TABLE
  2
APPID
 70
    24
  0
APPID
  2
ACAD
 70
     0
  0
APPID
  2
ACAD_MLEADERVER
 70
     0
  0
APPID
  2
ACAD_EXEMPT_FROM_CAD_STANDARDS
 70
     0
  0
APPID
  2
ACDBBLOCKREPETAG
 70
     0
  0
APPID
  2
ACAD_DSTYLE_DIMJOGGED_JOGA
 70
     0
  0
APPID
  2
ACAECLAYERSTANDARD
 70
     0
  0
APPID
  2
GENIUS_GENODEF_13
 70
     0
  0
APPID
  2
GENIUS_GENOBJ-N-FIL_13
 70
     0
  0
APPID
  2
ACAD_PSEXT
 70
     0
  0
APPID
  2
ACAD_DSTYLE_DIMRADIAL_EXTENSION
 70
     0
  0
APPID
  2
ACDBDYNAMICBLOCKTRUENAME
 70
     0
  0
APPID
  2
ACDBDYNAMICBLOCKGUID
 70
     0
  0
APPID
  2
ACDBBLOCKREPBTAG
 70
     0
  0
APPID
  2
ACAUTHENVIRON
 70
     0
  0
APPID
  2
GRADIENTCOLOR1ACI
 70
     0
  0
APPID
  2
GRADIENTCOLOR2ACI
 70
     0
  0
APPID
  2
ACAD_DSTYLE_DIMJAG
 70
     0
  0
APPID
  2
ACAD_DSTYLE_DIMTALN
 70
     0
  0
APPID
  2
ACCMTRANSPARENCY
 70
     0
  0
APPID
  2
ACAD_DSTYLE_DIMBREAK
 70
     0
  0
APPID
  2
ACAD_DSTYLE_DIMFLIPARROW_W
 70
     0
  0
APPID
  2
ACAD_DSTYLE_DIM_LINETYPE
 70
     0
  0
APPID
  2
ACAD_DSTYLE_DIM_EXT1_LINETYPE
 70
     0
  0
APPID
  2
ACAD_DSTYLE_DIM_EXT2_LINETYPE
 70
     0
  0
ENDTAB
  0
TABLE
  2
DIMSTYLE
 70
     1
  0
DIMSTYLE
  2
MISUMI
 70
     0
  3

  4

  5
OPEN30
  6

  7

 40
1.0
 41
2.5
 42
0.625
 43
3.75
 44
1.25
 45
0.0
 46
0.0
 47
0.0
 48
0.0
140
3.0
141
2.5
142
0.0
143
0.03937007874016
144
1.0
145
0.0
146
1.0
147
0.625
 71
     0
 72
     0
 73
     0
 74
     0
 75
     0
 76
     0
 77
     1
 78
     8
170
     0
171
     3
172
     1
173
     0
174
     0
175
     0
176
   256
177
   256
178
   256
  0
ENDTAB
  0
ENDSEC
  0
SECTION
  2
BLOCKS
  0
BLOCK
  8
0
  2
$MODEL_SPACE
 70
     0
 10
0.0
 20
0.0
 30
0.0
  3
$MODEL_SPACE
  1

  0
ENDBLK
  5
21
  8
0
  0
BLOCK
 67
     1
  8
0
  2
$PAPER_SPACE
 70
     0
 10
0.0
 20
0.0
 30
0.0
  3
$PAPER_SPACE
  1

  0
ENDBLK
  5
E349
 67
     1
  8
0
  0
BLOCK
  8
0
 62
     7
  2
_OPEN30
 70
     0
 10
0.0
 20
0.0
 30
0.0
  3
_OPEN30
  1

  0
LINE
  5
D7
  8
0
  6
BYBLOCK
 62
     0
 10
-1.0
 20
0.26794919
 30
0.0
 11
0.0
 21
0.0
 31
0.0
  0
LINE
  5
D8
  8
0
  6
BYBLOCK
 62
     0
 10
0.0
 20
0.0
 30
0.0
 11
-1.0
 21
-0.26794919
 31
0.0
  0
LINE
  5
D9
  8
0
  6
BYBLOCK
 62
     0
 10
0.0
 20
0.0
 30
0.0
 11
-1.0
 21
0.0
 31
0.0
  0
ENDBLK
  5
DB
  8
0
 62
     7
  0
BLOCK
  8
0
  2
*U5
 70
     1
 10
0.0
 20
0.0
 30
0.0
  3
*U5
  1

  0
TEXT
  5
E38B
  8
0
 62
     7
 10
208.31921398749159
 20
4.4522000000622501
 30
0.0
 40
3.0
  1
fxeb30.dwg
  0
ENDBLK
  5
E38D
  8
0
  0
BLOCK
  8
0
  2
*U6
 70
     1
 10
0.0
 20
0.0
 30
0.0
  3
*U6
  1

  0
TEXT
  5
E393
  8
MSM_PART_NUMBER
 10
0.0
 20
-3.0
 30
0.0
 40
3.0
  1
FXEB30-17-F30-M8
  0
ENDBLK
  5
E395
  8
0
  0
BLOCK
  8
0
  2
*U7
 70
     1
 10
0.0
 20
0.0
 30
0.0
  3
*U7
  1

  0
TEXT
  5
E397
  8
MSM_PART_NUMBER
 10
0.0
 20
-8.0
 30
0.0
 40
3.0
  1
FXEB30
  0
ENDBLK
  5
E399
  8
0
  0
ENDSEC
  0
SECTION
  2
ENTITIES
  0
INSERT
  5
DCB4
  8
MSM_CONTINUOUS
  2
*U6
 10
0.0
 20
0.0
 30
0.0
  0
INSERT
  5
DCB5
  8
MSM_CONTINUOUS
  2
*U7
 10
0.0
 20
0.0
 30
0.0
  0
LINE
  5
DFBF
  8
MSM_CENTER
 10
109.565736
 20
41.0
 30
0.0
 11
157.56573599999999
 21
41.0
 31
0.0
  0
LINE
  5
DFC0
  8
MSM_CENTER
 10
133.56573599999999
 20
73.672055999999998
 30
0.0
 11
133.56573599999999
 21
7.0
 31
0.0
  0
CIRCLE
  5
DFC1
  8
MSM_CONTINUOUS
 10
133.56573599999999
 20
41.0
 30
0.0
 40
15.0
  0
CIRCLE
  5
DFC2
  8
MSM_CONTINUOUS
 10
133.56573599999999
 20
41.0
 30
0.0
 40
17.0
  0
LINE
  5
DFCD
  8
MSM_DASHED
 10
8.4999999999999858
 20
70.999999999999858
 30
0.0
 11
14.99999999999998
 21
70.999999999999858
 31
0.0
  0
LINE
  5
DFCE
  8
MSM_CENTER
 10
-3.0
 20
65.499999999999943
 30
0.0
 11
17.999999999999979
 21
65.5
 31
0.0
  0
LINE
  5
DFD1
  8
MSM_DASHED
 10
0.0
 20
69.499999999999972
 30
0.0
 11
8.4999999999999858
 21
69.499999999999972
 31
0.0
  0
LINE
  5
DFD2
  8
MSM_DASHED
 10
0.0
 20
61.499999999999972
 30
0.0
 11
8.4999999999999858
 21
61.499999999999972
 31
0.0
  0
LINE
  5
DFD3
  8
MSM_CONTINUOUS
 10
0.0
 20
71.999999999999972
 30
0.0
 11
14.99999999999998
 21
71.999999999999972
 31
0.0
  0
LINE
  5
DFD4
  8
MSM_CONTINUOUS
 10
15.99999999999998
 20
57.999999999999972
 30
0.0
 11
16.999999999999979
 21
57.999999999999972
 31
0.0
  0
ARC
  5
DFD5
  8
MSM_CONTINUOUS
 10
17.20000000000001
 20
56.199999999999989
 30
0.0
 40
0.2
 50
180.0
 51
270.0
  0
LINE
  5
DFD6
  8
MSM_CONTINUOUS
 10
14.99999999999998
 20
56.499999999999972
 30
0.0
 11
14.99999999999998
 21
56.500099999999982
 31
0.0
  0
LINE
  5
DFD7
  8
MSM_DASHED
 10
8.4999999999999858
 20
59.999999999999972
 30
0.0
 11
14.99999999999998
 21
59.999999999999972
 31
0.0
  0
LINE
  5
DFD8
  8
MSM_CONTINUOUS
 10
14.99999999999998
 20
41.0
 30
0.0
 11
15.0001
 21
41.0
 31
0.0
  0
LINE
  5
DFD9
  8
MSM_DASHED
 10
8.4999999999999858
 20
70.999999999999858
 30
0.0
 11
8.4999999999999858
 21
59.999999999999972
 31
0.0
  0
LINE
  5
DFDA
  8
MSM_CONTINUOUS
 10
17.20000000000001
 20
55.999999999999972
 30
0.0
 11
46.999999999999979
 21
55.999999999999943
 31
0.0
  0
ARC
  5
DFDB
  8
MSM_CONTINUOUS
 10
17.20000000000001
 20
25.799999999999869
 30
0.0
 40
0.2
 50
90.0
 51
180.0
  0
LINE
  5
DFDC
  8
MSM_CONTINUOUS
 10
15.99999999999998
 20
24.0
 30
0.0
 11
16.999999999999979
 21
24.0
 31
0.0
  0
LINE
  5
DFDD
  8
MSM_DASHED
 10
8.4999999999999858
 20
22.0
 30
0.0
 11
14.99999999999998
 21
22.0
 31
0.0
  0
LINE
  5
DFDE
  8
MSM_DASHED
 10
8.4999999999999858
 20
11.0
 30
0.0
 11
14.99999999999998
 21
11.0
 31
0.0
  0
LINE
  5
DFDF
  8
MSM_DASHED
 10
8.4999999999999858
 20
11.0
 30
0.0
 11
8.4999999999999858
 21
22.0
 31
0.0
  0
LINE
  5
DFE0
  8
MSM_CENTER
 10
-3.0
 20
16.499999999999972
 30
0.0
 11
17.999999999999979
 21
16.5
 31
0.0
  0
LINE
  5
DFE1
  8
MSM_DASHED
 10
0.0
 20
20.5
 30
0.0
 11
8.4999999999999858
 21
20.5
 31
0.0
  0
LINE
  5
DFE4
  8
MSM_DASHED
 10
0.0
 20
12.5
 30
0.0
 11
8.4999999999999858
 21
12.5
 31
0.0
  0
LINE
  5
DFE5
  8
MSM_CONTINUOUS
 10
0.0
 20
10.0
 30
0.0
 11
14.99999999999998
 21
10.0
 31
0.0
  0
LINE
  5
DFE6
  8
MSM_CONTINUOUS
 10
17.20000000000001
 20
26.0
 30
0.0
 11
46.999999999999979
 21
25.999999999999972
 31
0.0
  0
LINE
  5
DFE9
  8
MSM_CONTINUOUS
 10
0.0
 20
71.999999999999972
 30
0.0
 11
0.0
 21
10.0
 31
0.0
  0
LINE
  5
DFEA
  8
MSM_CONTINUOUS
 10
46.999999999999979
 20
55.999999999999972
 30
0.0
 11
46.999999999999979
 21
26.0
 31
0.0
  0
LINE
  5
DFEB
  8
MSM_CONTINUOUS
 10
16.999999999999979
 20
57.999999999999972
 30
0.0
 11
16.999999999999979
 21
24.0
 31
0.0
  0
LINE
  5
DFEC
  8
MSM_CONTINUOUS
 10
14.99999999999998
 20
71.999999999999972
 30
0.0
 11
14.99999999999998
 21
10.0
 31
0.0
  0
LINE
  5
DFED
  8
MSM_CENTER
 10
-3.0
 20
41.0
 30
0.0
 11
49.999999999999993
 21
41.0
 31
0.0
  0
TEXT
  5
DFEE
  8
MSM_PART_NUMBER
 10
56.15088773087394
 20
-132.24626159694219
 30
0.0
 40
4.0
  1
M20
  0
TEXT
  5
DFEF
  8
MSM_PART_NUMBER
 10
56.150887730873947
 20
-91.769461781399173
 30
0.0
 40
4.0
  1
M16
  0
TEXT
  5
E008
  8
MSM_PART_NUMBER
 10
56.150887730873947
 20
-51.255721770727973
 30
0.0
 40
4.0
  1
M12
  0
TEXT
  5
E020
  8
MSM_PART_NUMBER
 10
55.861819730874373
 20
-19.415019804231431
 30
0.0
 40
4.0
  1
M10
  0
LINE
  5
E021
  8
MSM_CONTINUOUS
 10
46.999999999999957
 20
-10.0
 30
0.0
 11
46.999999999999972
 21
-145.3312417927107
 31
0.0
  0
ARC
  5
E022
  8
MSM_CONTINUOUS
 10
133.56573599999999
 20
41.0
 30
0.0
 40
31.0
 50
47.357690020060701
 51
132.64230997993931
  0
LINE
  5
E023
  8
MSM_CENTER
 10
125.065736
 20
65.499999999999815
 30
0.0
 11
142.06573599999999
 21
65.499999999999815
 31
0.0
  0
CIRCLE
  5
E026
  8
MSM_CONTINUOUS
 10
133.56573599999999
 20
65.499999999999972
 30
0.0
 40
5.5
  0
LINE
  5
E027
  8
MSM_CENTER
 10
125.065736
 20
16.49999999999994
 30
0.0
 11
142.06573599999999
 21
16.499999999999911
 31
0.0
  0
CIRCLE
  5
E02A
  8
MSM_CONTINUOUS
 10
133.56573599999999
 20
16.5
 30
0.0
 40
5.5
  0
ARC
  5
E02B
  8
MSM_CONTINUOUS
 10
133.56573599999999
 20
41.0
 30
0.0
 40
31.0
 50
227.35769002005929
 51
312.64230997993928
  0
LINE
  5
E02C
  8
MSM_CONTINUOUS
 10
112.565736
 20
63.803508501982662
 30
0.0
 11
112.565736
 21
18.19649149801722
 31
0.0
  0
LINE
  5
E02D
  8
MSM_CONTINUOUS
 10
154.56573599999999
 20
63.803508501982662
 30
0.0
 11
154.56573599999999
 21
18.19649149801722
 31
0.0
  0
LINE
  5
E078
  8
MSM_CENTER
 10
14.99999999999995
 20
-17.5
 30
0.0
 11
49.999999999999929
 21
-17.5
 31
0.0
  0
LINE
  5
E079
  8
MSM_DASHED
 10
20.417942927366131
 20
-13.31199999999995
 30
0.0
 11
20.417942927366131
 21
-21.68799999999996
 31
0.0
  0
LINE
  5
E07A
  8
MSM_DASHED
 10
20.417942927366109
 20
-21.68799999999996
 30
0.0
 11
17.999999999999972
 21
-17.5
 31
0.0
  0
LINE
  5
E07B
  8
MSM_DASHED
 10
26.999999999999972
 20
-12.49999999999994
 30
0.0
 11
26.999999999999972
 21
-22.49999999999994
 31
0.0
  0
LINE
  5
E07C
  8
MSM_DASHED
 10
46.999999999999957
 20
-13.31199999999995
 30
0.0
 11
20.417942927366131
 21
-13.31199999999995
 31
0.0
  0
LINE
  5
E07D
  8
MSM_DASHED
 10
46.999999999999957
 20
-12.49999999999994
 30
0.0
 11
26.99999999999995
 21
-12.49999999999994
 31
0.0
  0
LINE
  5
E07E
  8
MSM_DASHED
 10
26.999999999999972
 20
-12.49999999999994
 30
0.0
 11
25.593574744254049
 21
-13.31199999999995
 31
0.0
  0
LINE
  5
E07F
  8
MSM_DASHED
 10
20.417942927366109
 20
-13.31199999999995
 30
0.0
 11
17.99999999999994
 21
-17.5
 31
0.0
  0
LINE
  5
E080
  8
MSM_DASHED
 10
46.999999999999957
 20
-22.49999999999994
 30
0.0
 11
26.99999999999995
 21
-22.49999999999994
 31
0.0
  0
LINE
  5
E081
  8
MSM_DASHED
 10
46.999999999999957
 20
-21.68799999999996
 30
0.0
 11
20.417942927366131
 21
-21.687999999999931
 31
0.0
  0
LINE
  5
E082
  8
MSM_DASHED
 10
26.999999999999972
 20
-22.49999999999994
 30
0.0
 11
25.593574744254049
 21
-21.68799999999996
 31
0.0
  0
LINE
  5
E094
  8
MSM_CENTER
 10
9.9999999999999858
 20
-49.340701966496553
 30
0.0
 11
49.999999999999929
 21
-49.340701966496553
 31
0.0
  0
LINE
  5
E095
  8
MSM_DASHED
 10
15.91735091021514
 20
-44.287701966496527
 30
0.0
 11
15.91735091021514
 21
-54.393701966496401
 31
0.0
  0
LINE
  5
E096
  8
MSM_DASHED
 10
15.91735091021514
 20
-54.393701966496472
 30
0.0
 11
13.0
 21
-49.340701966496539
 31
0.0
  0
LINE
  5
E097
  8
MSM_DASHED
 10
22.999999999999972
 20
-43.340701966496482
 30
0.0
 11
22.999999999999972
 21
-55.340701966496482
 31
0.0
  0
LINE
  5
E098
  8
MSM_DASHED
 10
46.999999999999957
 20
-44.287701966496478
 30
0.0
 11
15.91735091021514
 21
-44.287701966496464
 31
0.0
  0
LINE
  5
E099
  8
MSM_DASHED
 10
46.999999999999957
 20
-43.340701966496482
 30
0.0
 11
22.999999999999972
 21
-43.340701966496482
 31
0.0
  0
LINE
  5
E09A
  8
MSM_DASHED
 10
22.999999999999972
 20
-43.340701966496482
 30
0.0
 11
21.359747885232242
 21
-44.287701966496478
 31
0.0
  0
LINE
  5
E09B
  8
MSM_DASHED
 10
15.91735091021514
 20
-44.287701966496478
 30
0.0
 11
12.99999999999995
 21
-49.340701966496553
 31
0.0
  0
LINE
  5
E09C
  8
MSM_DASHED
 10
46.999999999999957
 20
-55.340701966496482
 30
0.0
 11
22.999999999999972
 21
-55.340701966496482
 31
0.0
  0
LINE
  5
E09D
  8
MSM_DASHED
 10
46.999999999999993
 20
-54.393701966496486
 30
0.0
 11
15.91735091021514
 21
-54.393701966496472
 31
0.0
  0
LINE
  5
E09E
  8
MSM_DASHED
 10
22.999999999999972
 20
-55.340701966496482
 30
0.0
 11
21.35974788523222
 21
-54.393701966496472
 31
0.0
  0
LINE
  5
E0B0
  8
MSM_CENTER
 10
-0.0000000000000284
 20
-89.854441977167752
 30
0.0
 11
49.999999999999943
 21
-89.854441977167752
 31
0.0
  0
LINE
  5
E0CC
  8
MSM_CENTER
 10
-11.0
 20
-130.33124179271081
 30
0.0
 11
49.999999999999943
 21
-130.33124179271081
 31
0.0
  0
LINE
  5
E0CD
  8
MSM_DASHED
 10
47.0
 20
-138.9782417927108
 30
0.0
 11
-3.0076522223172901
 21
-138.9782417927108
 31
0.0
  0
LINE
  5
E0CE
  8
MSM_DASHED
 10
47.0
 20
-121.68424179271079
 30
0.0
 11
-3.0076522223173461
 21
-121.68424179271091
 31
0.0
  0
LINE
  5
E0CF
  8
MSM_DASHED
 10
47.0
 20
-120.3312417927108
 30
0.0
 11
6.9999999999999849
 21
-120.3312417927108
 31
0.0
  0
LINE
  5
E0D0
  8
MSM_DASHED
 10
47.0
 20
-140.33124179271081
 30
0.0
 11
7.0
 21
-140.33124179271081
 31
0.0
  0
LINE
  5
E0D1
  8
MSM_DASHED
 10
-3.0076522223172901
 20
-138.9782417927108
 30
0.0
 11
-8.0
 21
-130.33124179271081
 31
0.0
  0
LINE
  5
E0D2
  8
MSM_DASHED
 10
-3.0076522223172901
 20
-121.68424179271079
 30
0.0
 11
-8.0
 21
-130.33124179271081
 31
0.0
  0
LINE
  5
E0D3
  8
MSM_DASHED
 10
7.0
 20
-120.3312417927108
 30
0.0
 11
7.0
 21
-140.33124179271081
 31
0.0
  0
LINE
  5
E0D4
  8
MSM_DASHED
 10
-3.0076522223172901
 20
-121.68424179271079
 30
0.0
 11
-3.0076522223172901
 21
-138.9782417927108
 31
0.0
  0
LINE
  5
E0D5
  8
MSM_DASHED
 10
7.0
 20
-120.3312417927108
 30
0.0
 11
4.6565352573592804
 21
-121.68424179271079
 31
0.0
  0
LINE
  5
E0D6
  8
MSM_DASHED
 10
7.0
 20
-140.33124179271081
 30
0.0
 11
4.6565352573593373
 21
-138.9782417927108
 31
0.0
  0
CIRCLE
  5
E0E7
  8
MSM_CONTINUOUS
 10
133.56573599999999
 20
40.999999999999943
 30
0.0
 40
3.3235000000000001
  0
CIRCLE
  5
E0E8
  8
MSM_NARROW
 10
133.56573599999999
 20
40.999999999999943
 30
0.0
 40
4.0
  0
CIRCLE
  5
E0F1
  8
MSM_CONTINUOUS
 10
133.56573599999999
 20
65.499999999999801
 30
0.0
 40
3.3235000000000001
  0
CIRCLE
  5
E0F2
  8
MSM_NARROW
 10
133.56573599999999
 20
65.499999999999801
 30
0.0
 40
4.0
  0
CIRCLE
  5
E0FB
  8
MSM_CONTINUOUS
 10
133.56573599999999
 20
16.499999999999861
 30
0.0
 40
3.3235000000000001
  0
CIRCLE
  5
E0FC
  8
MSM_NARROW
 10
133.56573599999999
 20
16.499999999999861
 30
0.0
 40
4.0
  0
ARC
  5
E105
  8
MSM_CONTINUOUS
 10
15.99999999999998
 20
58.999999999999972
 30
0.0
 40
1.0
 50
180.0
 51
270.0
  0
ARC
  5
E106
  8
MSM_CONTINUOUS
 10
15.99999999999998
 20
23.0
 30
0.0
 40
1.0
 50
90.0
 51
180.0
  0
LINE
  5
E19B
  8
MSM_DASHED
 10
0.0000000000000071
 20
13.17649999999983
 30
0.0
 11
8.4999999999999911
 21
13.17649999999983
 31
0.0
  0
LINE
  5
E19C
  8
MSM_DASHED
 10
-0.0000000000000071
 20
19.823499999999822
 30
0.0
 11
8.4999999999999787
 21
19.823499999999822
 31
0.0
  0
LINE
  5
E229
  8
MSM_DASHED
 10
6.9938204871192511
 20
-82.936941977167692
 30
0.0
 11
3.0
 21
-89.854441977167681
 31
0.0
  0
LINE
  5
E22A
  8
MSM_DASHED
 10
47.0
 20
-81.854441977167667
 30
0.0
 11
14.99999998451427
 21
-81.854441977167667
 31
0.0
  0
LINE
  5
E22B
  8
MSM_DASHED
 10
47.0
 20
-82.936941977167692
 30
0.0
 11
6.9938204871192511
 21
-82.936941977167692
 31
0.0
  0
LINE
  5
E22C
  8
MSM_DASHED
 10
6.9938204871192511
 20
-82.936941977167692
 30
0.0
 11
6.9938204871192511
 21
-96.771941977167714
 31
0.0
  0
LINE
  5
E22D
  8
MSM_DASHED
 10
14.99999998451427
 20
-81.854441977167667
 30
0.0
 11
13.125054985320959
 21
-82.936941977167692
 31
0.0
  0
LINE
  5
E22E
  8
MSM_DASHED
 10
6.9938204871192511
 20
-96.771941977167671
 30
0.0
 11
3.0
 21
-89.854441977167681
 31
0.0
  0
LINE
  5
E22F
  8
MSM_DASHED
 10
47.0
 20
-96.771941977167671
 30
0.0
 11
6.9938204871192431
 21
-96.771941977167657
 31
0.0
  0
LINE
  5
E230
  8
MSM_DASHED
 10
47.0
 20
-97.854441977167696
 30
0.0
 11
14.99999998451427
 21
-97.854441977167696
 31
0.0
  0
LINE
  5
E231
  8
MSM_DASHED
 10
14.99999998451427
 20
-97.854441977167696
 30
0.0
 11
13.125054985320959
 21
-96.771941977167671
 31
0.0
  0
LINE
  5
E232
  8
MSM_DASHED
 10
14.99999999999998
 20
-81.854441977167667
 30
0.0
 11
14.99999999999998
 21
-97.854442048256303
 31
0.0
  0
LINE
  5
E2DB
  8
MSM_DASHED
 10
30.999999999999989
 20
45.000000000000057
 30
0.0
 11
30.999999999999989
 21
37.000000000000057
 31
0.0
  0
LINE
  5
E2DC
  8
MSM_DASHED
 10
23.918823619651729
 20
44.323500000000081
 30
0.0
 11
23.918823619651729
 21
37.676500000000033
 31
0.0
  0
LINE
  5
E2DD
  8
MSM_DASHED
 10
23.918823619651729
 20
37.676500000000068
 30
0.0
 11
22.0
 21
41.000000000000057
 31
0.0
  0
LINE
  5
E2DE
  8
MSM_DASHED
 10
46.999999999999972
 20
44.323500000000053
 30
0.0
 11
23.918823619651729
 21
44.323500000000067
 31
0.0
  0
LINE
  5
E2DF
  8
MSM_DASHED
 10
46.999999999999972
 20
45.000000000000057
 30
0.0
 11
30.999999999999989
 21
45.000000000000071
 31
0.0
  0
LINE
  5
E2E0
  8
MSM_DASHED
 10
30.999999999999989
 20
45.000000000000057
 30
0.0
 11
29.828267628679651
 21
44.32350000000006
 31
0.0
  0
LINE
  5
E2E1
  8
MSM_DASHED
 10
23.918823619651729
 20
44.323500000000053
 30
0.0
 11
21.999999999999972
 21
41.0
 31
0.0
  0
LINE
  5
E2E2
  8
MSM_DASHED
 10
46.999999999999972
 20
37.000000000000057
 30
0.0
 11
30.999999999999989
 21
37.000000000000071
 31
0.0
  0
LINE
  5
E2E3
  8
MSM_DASHED
 10
46.999999999999972
 20
37.676500000000068
 30
0.0
 11
23.918823619651729
 21
37.67650000000009
 31
0.0
  0
LINE
  5
E2E4
  8
MSM_DASHED
 10
30.999999999999989
 20
37.000000000000057
 30
0.0
 11
29.828267628679651
 21
37.676500000000068
 31
0.0
  0
LINE
  5
E2E5
  8
MSM_CONTINUOUS
 10
14.99999999999998
 20
63.803508501982662
 30
0.0
 11
-0.0000000000000018
 21
63.803508501982662
 31
0.0
  0
LINE
  5
E2E6
  8
MSM_CONTINUOUS
 10
14.99999999999998
 20
18.19649149801722
 30
0.0
 11
0.0
 21
18.19649149801722
 31
0.0
  0
LINE
  5
E2EF
  8
MSM_DASHED
 10
0.0000000000000071
 20
62.176499999999812
 30
0.0
 11
8.4999999999999911
 21
62.176499999999812
 31
0.0
  0
LINE
  5
E2F0
  8
MSM_DASHED
 10
-0.0000000000000071
 20
68.823499999999797
 30
0.0
 11
8.4999999999999787
 21
68.823499999999797
 31
0.0
  0
ENDSEC
  0
EOF
