  0
SECTION
  2
HEADER
  9
$ACADVER
  1
AC1009
  9
$INSBASE
 10
0.0
 20
0.0
 30
0.0
  9
$EXTMIN
 10
-0.0128164049386896
 20
-8.0120051688917329
 30
-0.0015258207003583
  9
$EXTMAX
 10
380.98388765121808
 20
385.42739600087498
 30
0.0000000349246037
  9
$LIMMIN
 10
0.0
 20
0.0
  9
$LIMMAX
 10
420.0
 20
297.0
  9
$ORTHOMODE
 70
     0
  9
$REGENMODE
 70
     1
  9
$FILLMODE
 70
     1
  9
$QTEXTMODE
 70
     0
  9
$MIRRTEXT
 70
     0
  9
$DRAGMODE
 70
     2
  9
$LTSCALE
 40
0.5
  9
$OSMODE
 70
   511
  9
$ATTMODE
 70
     1
  9
$TEXTSIZE
 40
3.0
  9
$TRACEWID
 40
1.0
  9
$TEXTSTYLE
  7
STANDARD
  9
$CLAYER
  8
MSM_CONTINUOUS
  9
$CELTYPE
  6
BYLAYER
  9
$CECOLOR
 62
   256
  9
$DIMSCALE
 40
1.0
  9
$DIMASZ
 40
2.5
  9
$DIMEXO
 40
0.625
  9
$DIMDLI
 40
3.75
  9
$DIMRND
 40
0.0
  9
$DIMDLE
 40
0.0
  9
$DIMEXE
 40
1.25
  9
$DIMTP
 40
0.0
  9
$DIMTM
 40
0.0
  9
$DIMTXT
 40
3.0
  9
$DIMCEN
 40
2.5
  9
$DIMTSZ
 40
0.0
  9
$DIMTOL
 70
     0
  9
$DIMLIM
 70
     0
  9
$DIMTIH
 70
     0
  9
$DIMTOH
 70
     0
  9
$DIMSE1
 70
     0
  9
$DIMSE2
 70
     0
  9
$DIMTAD
 70
     1
  9
$DIMZIN
 70
     8
  9
$DIMBLK
  1
OPEN30
  9
$DIMASO
 70
     1
  9
$DIMSHO
 70
     1
  9
$DIMPOST
  1

  9
$DIMAPOST
  1

  9
$DIMALT
 70
     0
  9
$DIMALTD
 70
     3
  9
$DIMALTF
 40
0.03937007874016
  9
$DIMLFAC
 40
1.0
  9
$DIMTOFL
 70
     1
  9
$DIMTVP
 40
0.0
  9
$DIMTIX
 70
     0
  9
$DIMSOXD
 70
     0
  9
$DIMSAH
 70
     0
  9
$DIMBLK1
  1

  9
$DIMBLK2
  1

  9
$DIMSTYLE
  2
MISUMI
  9
$DIMCLRD
 70
   256
  9
$DIMCLRE
 70
   256
  9
$DIMCLRT
 70
   256
  9
$DIMTFAC
 40
1.0
  9
$DIMGAP
 40
0.625
  9
$LUNITS
 70
     2
  9
$LUPREC
 70
     2
  9
$SKETCHINC
 40
1.0
  9
$FILLETRAD
 40
0.0
  9
$AUNITS
 70
     0
  9
$AUPREC
 70
     0
  9
$MENU
  1
.
  9
$ELEVATION
 40
0.0
  9
$PELEVATION
 40
0.0
  9
$THICKNESS
 40
0.0
  9
$LIMCHECK
 70
     0
  9
$BLIPMODE
 70
     0
  9
$CHAMFERA
 40
0.5
  9
$CHAMFERB
 40
0.5
  9
$SKPOLY
 70
     0
  9
$TDCREATE
 40
2455135.5720697111
  9
$TDUPDATE
 40
2458568.7085291441
  9
$TDINDWG
 40
0.7011710764
  9
$TDUSRTIMER
 40
2458561.2551073148
  9
$USRTIMER
 70
     1
  9
$ANGBASE
 50
0.0
  9
$ANGDIR
 70
     0
  9
$PDMODE
 70
    35
  9
$PDSIZE
 40
0.0
  9
$PLINEWID
 40
0.0
  9
$COORDS
 70
     1
  9
$SPLFRAME
 70
     0
  9
$SPLINETYPE
 70
     6
  9
$SPLINESEGS
 70
     8
  9
$ATTDIA
 70
     1
  9
$ATTREQ
 70
     1
  9
$HANDLING
 70
     1
  9
$HANDSEED
  5
EBC3
  9
$SURFTAB1
 70
     6
  9
$SURFTAB2
 70
     6
  9
$SURFTYPE
 70
     6
  9
$SURFU
 70
     6
  9
$SURFV
 70
     6
  9
$UCSNAME
  2

  9
$UCSORG
 10
0.0
 20
0.0
 30
0.0
  9
$UCSXDIR
 10
1.0
 20
0.0
 30
0.0
  9
$UCSYDIR
 10
0.0
 20
1.0
 30
0.0
  9
$PUCSNAME
  2

  9
$PUCSORG
 10
0.0
 20
0.0
 30
0.0
  9
$PUCSXDIR
 10
1.0
 20
0.0
 30
0.0
  9
$PUCSYDIR
 10
0.0
 20
1.0
 30
0.0
  9
$USERI1
 70
     0
  9
$USERI2
 70
     0
  9
$USERI3
 70
     0
  9
$USERI4
 70
     0
  9
$USERI5
 70
     0
  9
$USERR1
 40
0.0
  9
$USERR2
 40
0.0
  9
$USERR3
 40
0.0
  9
$USERR4
 40
0.0
  9
$USERR5
 40
0.0
  9
$WORLDVIEW
 70
     1
  9
$SHADEDGE
 70
     3
  9
$SHADEDIF
 70
    70
  9
$TILEMODE
 70
     1
  9
$MAXACTVP
 70
    64
  9
$PLIMCHECK
 70
     0
  9
$PEXTMIN
 10
0.0
 20
0.0
 30
0.0
  9
$PEXTMAX
 10
0.0
 20
0.0
 30
0.0
  9
$PLIMMIN
 10
0.0
 20
0.0
  9
$PLIMMAX
 10
12.0
 20
9.0
  9
$UNITMODE
 70
     0
  9
$VISRETAIN
 70
     1
  9
$PLINEGEN
 70
     0
  9
$PSLTSCALE
 70
     1
  0
ENDSEC
  0
SECTION
  2
TABLES
  0
TABLE
  2
VPORT
 70
     1
  0
VPORT
  2
*ACTIVE
 70
     0
 10
0.0
 20
0.0
 11
1.0
 21
1.0
 12
190.4855356231397
 22
188.70769541599159
 13
0.0
 23
0.0
 14
10.0
 24
10.0
 15
10.0
 25
10.0
 16
0.0
 26
0.0
 36
1.0
 17
0.0
 27
0.0
 37
0.0
 40
397.032455061728
 41
2.5213414634146338
 42
50.0
 43
0.0
 44
0.0
 50
0.0
 51
0.0
 71
    16
 72
  1000
 73
     1
 74
     3
 75
     0
 76
     0
 77
     0
 78
     0
  0
ENDTAB
  0
TABLE
  2
LTYPE
 70
     3
  0
LTYPE
  2
CONTINUOUS
 70
     0
  3
Solid line
 72
    65
 73
     0
 40
0.0
  0
LTYPE
  2
CENTER
 70
     0
  3
Center ____ _ ____ _ ____ _ ____ _ ____ _ ____
 72
    65
 73
     4
 40
50.799999999999997
 49
31.75
 49
-6.3499999999999988
 49
6.3499999999999988
 49
-6.3499999999999988
  0
LTYPE
  2
DASHED
 70
     0
  3
Dashed __ __ __ __ __ __ __ __ __ __ __ __ __ _
 72
    65
 73
     2
 40
19.050000000000001
 49
12.699999999999999
 49
-6.3499999999999988
  0
ENDTAB
  0
TABLE
  2
LAYER
 70
     6
  0
LAYER
  2
0
 70
     0
 62
     7
  6
CONTINUOUS
  0
LAYER
  2
MSM_CENTER
 70
     0
 62
     1
  6
CENTER
  0
LAYER
  2
MSM_CONTINUOUS
 70
     0
 62
     7
  6
CONTINUOUS
  0
LAYER
  2
MSM_DASHED
 70
     0
 62
     4
  6
DASHED
  0
LAYER
  2
MSM_NARROW
 70
     0
 62
     5
  6
CONTINUOUS
  0
LAYER
  2
MSM_PART_NUMBER
 70
     0
 62
     7
  6
CONTINUOUS
  0
ENDTAB
  0
TABLE
  2
STYLE
 70
     1
  0
STYLE
  2
STANDARD
 70
     0
 40
3.0
 41
1.0
 50
0.0
 71
     0
 42
3.0
  3
txt.shx
  4
bigfont.shx
  0
ENDTAB
  0
TABLE
  2
VIEW
 70
     0
  0
ENDTAB
  0
TABLE
  2
UCS
 70
     0
  0
ENDTAB
  0
TABLE
  2
APPID
 70
    25
  0
APPID
  2
ACAD
 70
     0
  0
APPID
  2
ACAD_MLEADERVER
 70
     0
  0
APPID
  2
ACAD_EXEMPT_FROM_CAD_STANDARDS
 70
     0
  0
APPID
  2
ACDBBLOCKREPETAG
 70
     0
  0
APPID
  2
ACAD_DSTYLE_DIMJOGGED_JOGA
 70
     0
  0
APPID
  2
ACAECLAYERSTANDARD
 70
     0
  0
APPID
  2
GENIUS_GENODEF_13
 70
     0
  0
APPID
  2
GENIUS_GENOBJ-N-FIL_13
 70
     0
  0
APPID
  2
ACAD_PSEXT
 70
     0
  0
APPID
  2
ACAD_DSTYLE_DIMRADIAL_EXTENSION
 70
     0
  0
APPID
  2
ACDBDYNAMICBLOCKTRUENAME
 70
     0
  0
APPID
  2
ACDBDYNAMICBLOCKGUID
 70
     0
  0
APPID
  2
ACDBBLOCKREPBTAG
 70
     0
  0
APPID
  2
ACAUTHENVIRON
 70
     0
  0
APPID
  2
GRADIENTCOLOR1ACI
 70
     0
  0
APPID
  2
GRADIENTCOLOR2ACI
 70
     0
  0
APPID
  2
ACAD_DSTYLE_DIMJAG
 70
     0
  0
APPID
  2
ACAD_DSTYLE_DIMTALN
 70
     0
  0
APPID
  2
ACCMTRANSPARENCY
 70
     0
  0
APPID
  2
ACAD_DSTYLE_DIMBREAK
 70
     0
  0
APPID
  2
ACAD_DSTYLE_DIMFLIPARROW_W
 70
     0
  0
APPID
  2
ACAD_DSTYLE_DIM_LINETYPE
 70
     0
  0
APPID
  2
ACAD_DSTYLE_DIM_EXT1_LINETYPE
 70
     0
  0
APPID
  2
ACAD_DSTYLE_DIM_EXT2_LINETYPE
 70
     0
  0
APPID
  2
ACAD_NAV_VCDISPLAY
 70
     0
  0
ENDTAB
  0
TABLE
  2
DIMSTYLE
 70
     1
  0
DIMSTYLE
  2
MISUMI
 70
     0
  3

  4

  5
OPEN30
  6

  7

 40
1.0
 41
2.5
 42
0.625
 43
3.75
 44
1.25
 45
0.0
 46
0.0
 47
0.0
 48
0.0
140
3.0
141
2.5
142
0.0
143
0.03937007874016
144
1.0
145
0.0
146
1.0
147
0.625
 71
     0
 72
     0
 73
     0
 74
     0
 75
     0
 76
     0
 77
     1
 78
     8
170
     0
171
     3
172
     1
173
     0
174
     0
175
     0
176
   256
177
   256
178
   256
  0
ENDTAB
  0
ENDSEC
  0
SECTION
  2
BLOCKS
  0
BLOCK
  8
0
  2
$MODEL_SPACE
 70
     0
 10
0.0
 20
0.0
 30
0.0
  3
$MODEL_SPACE
  1

  0
ENDBLK
  5
21
  8
0
  0
BLOCK
 67
     1
  8
0
  2
$PAPER_SPACE
 70
     0
 10
0.0
 20
0.0
 30
0.0
  3
$PAPER_SPACE
  1

  0
ENDBLK
  5
EB6E
 67
     1
  8
0
  0
BLOCK
  8
0
 62
     7
  2
_OPEN30
 70
     0
 10
0.0
 20
0.0
 30
0.0
  3
_OPEN30
  1

  0
LINE
  5
D7
  8
0
  6
BYBLOCK
 62
     0
 10
-1.0
 20
0.26794919
 30
0.0
 11
0.0
 21
0.0
 31
0.0
  0
LINE
  5
D8
  8
0
  6
BYBLOCK
 62
     0
 10
0.0
 20
0.0
 30
0.0
 11
-1.0
 21
-0.26794919
 31
0.0
  0
LINE
  5
D9
  8
0
  6
BYBLOCK
 62
     0
 10
0.0
 20
0.0
 30
0.0
 11
-1.0
 21
0.0
 31
0.0
  0
ENDBLK
  5
DB
  8
0
 62
     7
  0
BLOCK
  8
0
  2
*U2
 70
     1
 10
0.0
 20
0.0
 30
0.0
  3
*U2
  1

  0
TEXT
  5
EBB8
  8
MSM_PART_NUMBER
 10
0.0
 20
-3.0
 30
0.0
 40
3.0
  1
ZCVL650-1-N-G-N
  0
ENDBLK
  5
EBBA
  8
0
  0
BLOCK
  8
0
  2
*U3
 70
     1
 10
0.0
 20
0.0
 30
0.0
  3
*U3
  1

  0
TEXT
  5
EBBC
  8
MSM_PART_NUMBER
 10
0.0
 20
-8.0
 30
0.0
 40
3.0
  1
ZCVL650-1-N-G-N
  0
ENDBLK
  5
EBBE
  8
0
  0
ENDSEC
  0
SECTION
  2
ENTITIES
  0
INSERT
  5
E71A
  8
MSM_CONTINUOUS
  2
*U2
 10
0.0
 20
0.0
 30
0.0
  0
INSERT
  5
E71B
  8
MSM_CONTINUOUS
  2
*U3
 10
0.0
 20
0.0
 30
0.0
  0
LINE
  5
E71C
  8
MSM_CONTINUOUS
 10
155.28278899999981
 20
199.9914379999999
 30
0.0
 11
110.882789
 21
199.9914379999999
 31
0.0
  0
LINE
  5
E71D
  8
MSM_CONTINUOUS
 10
128.58278899999999
 20
310.4914379999999
 30
0.0
 11
139.58278899999999
 21
310.4914379999999
 31
0.0
  0
LINE
  5
E71E
  8
MSM_CONTINUOUS
 10
140.08278899999999
 20
309.9914379999999
 30
0.0
 11
128.08278899999999
 21
309.9914379999999
 31
0.0
  0
LINE
  5
E71F
  8
MSM_CONTINUOUS
 10
148.58278899999999
 20
304.4914379999999
 30
0.0
 11
153.08278899999999
 21
304.4914379999999
 31
0.0
  0
LINE
  5
E720
  8
MSM_CONTINUOUS
 10
148.08278899999999
 20
304.19143800000001
 30
0.0
 11
148.58278899999999
 21
304.19143800000001
 31
0.0
  0
LINE
  5
E721
  8
MSM_CONTINUOUS
 10
106.08278900000001
 20
279.99143800000007
 30
0.0
 11
118.08278900000001
 21
279.99143800000007
 31
0.0
  0
LINE
  5
E722
  8
MSM_CONTINUOUS
 10
154.08278899999999
 20
270.4914379999999
 30
0.0
 11
152.08278899999999
 21
272.4914379999999
 31
0.0
  0
LINE
  5
E723
  8
MSM_CONTINUOUS
 10
216.3613620000001
 20
305.49143800000007
 30
0.0
 11
216.8613620000001
 21
304.99143800000007
 31
0.0
  0
LINE
  5
E724
  8
MSM_CONTINUOUS
 10
227.8613620000001
 20
304.99143800000007
 30
0.0
 11
228.3613620000001
 21
305.49143800000007
 31
0.0
  0
LINE
  5
E725
  8
MSM_CONTINUOUS
 10
228.3613620000001
 20
309.9914379999999
 30
0.0
 11
227.8613620000001
 21
310.4914379999999
 31
0.0
  0
LINE
  5
E726
  8
MSM_CONTINUOUS
 10
216.8613620000001
 20
310.4914379999999
 30
0.0
 11
216.3613620000001
 21
309.9914379999999
 31
0.0
  0
LINE
  5
E727
  8
MSM_CONTINUOUS
 10
216.3613620000001
 20
309.9914379999999
 30
0.0
 11
216.3613620000001
 21
305.49143800000007
 31
0.0
  0
LINE
  5
E728
  8
MSM_CONTINUOUS
 10
228.3613620000001
 20
305.49143800000007
 30
0.0
 11
228.3613620000001
 21
309.9914379999999
 31
0.0
  0
LINE
  5
E729
  8
MSM_CONTINUOUS
 10
219.8613620000001
 20
304.99143800000007
 30
0.0
 11
219.8613620000001
 21
304.4914379999999
 31
0.0
  0
LINE
  5
E72A
  8
MSM_CONTINUOUS
 10
224.8613620000001
 20
304.4914379999999
 30
0.0
 11
224.8613620000001
 21
304.99143800000007
 31
0.0
  0
LINE
  5
E72B
  8
MSM_CONTINUOUS
 10
103.08278900000001
 20
333.11538899999982
 30
0.0
 11
110.08278900000001
 21
326.11538899999988
 31
0.0
  0
LINE
  5
E72C
  8
MSM_CONTINUOUS
 10
154.08278899999999
 20
328.11538899999988
 30
0.0
 11
152.08278899999999
 21
326.11538899999988
 31
0.0
  0
LINE
  5
E72D
  8
MSM_CONTINUOUS
 10
120.08278900000001
 20
327.81538899999998
 30
0.0
 11
121.28278900000009
 21
326.61538899999999
 31
0.0
  0
LINE
  5
E72E
  8
MSM_CONTINUOUS
 10
146.8827890000002
 20
326.61538899999999
 30
0.0
 11
148.08278899999999
 21
327.81538899999998
 31
0.0
  0
ARC
  5
E72F
  8
MSM_CONTINUOUS
 10
145.08278899999999
 20
329.61538899999988
 30
0.0
 40
2.5
 50
90.0
 51
180.0
  0
ARC
  5
E730
  8
MSM_CONTINUOUS
 10
123.08278900000001
 20
329.61538899999988
 30
0.0
 40
2.5
 50
0.0
 51
90.0
  0
LINE
  5
E731
  8
MSM_CONTINUOUS
 10
145.08278899999999
 20
332.11538899999982
 30
0.0
 11
148.08278899999999
 21
332.11538899999982
 31
0.0
  0
LINE
  5
E732
  8
MSM_CONTINUOUS
 10
120.08278900000001
 20
332.11538899999982
 30
0.0
 11
123.08278900000001
 21
332.11538899999982
 31
0.0
  0
CIRCLE
  5
E733
  8
MSM_CONTINUOUS
 10
134.08278899999999
 20
340.61538899999982
 30
0.0
 40
6.0
  0
CIRCLE
  5
E734
  8
MSM_CONTINUOUS
 10
134.08278899999999
 20
340.61538899999982
 30
0.0
 40
5.5
  0
CIRCLE
  5
E735
  8
MSM_CONTINUOUS
 10
112.08278900000001
 20
342.61538899999982
 30
0.0
 40
6.0
  0
LINE
  5
E736
  8
MSM_CONTINUOUS
 10
163.08278899999999
 20
324.61538899999988
 30
0.0
 11
152.58278899999999
 21
324.61538899999988
 31
0.0
  0
LINE
  5
E737
  8
MSM_CONTINUOUS
 10
113.58278900000001
 20
324.61538899999988
 30
0.0
 11
103.08278900000001
 21
324.61538899999988
 31
0.0
  0
ARC
  5
E738
  8
MSM_CONTINUOUS
 10
159.1827889999999
 20
341.61538899999982
 30
0.0
 40
5.0
 50
90.0
 51
180.0
  0
LINE
  5
E739
  8
MSM_CONTINUOUS
 10
159.1827889999999
 20
346.61538899999982
 30
0.0
 11
163.08278899999999
 21
346.61538899999982
 31
0.0
  0
LINE
  5
E73A
  8
MSM_CONTINUOUS
 10
150.73626899999999
 20
349.82025399999998
 30
0.0
 11
150.47444399999989
 21
348.69814799999972
 31
0.0
  0
LINE
  5
E73B
  8
MSM_CONTINUOUS
 10
58.150000000000091
 20
273.7836860000001
 30
0.0
 11
53.849999999999902
 21
273.7836860000001
 31
0.0
  0
LINE
  5
E73C
  8
MSM_CONTINUOUS
 10
38.0
 20
309.9914379999999
 30
0.0
 11
38.0
 21
305.49143800000007
 31
0.0
  0
LINE
  5
E73D
  8
MSM_CONTINUOUS
 10
50.0
 20
305.49143800000007
 30
0.0
 11
50.0
 21
309.9914379999999
 31
0.0
  0
LINE
  5
E73E
  8
MSM_CONTINUOUS
 10
38.0
 20
305.49143800000007
 30
0.0
 11
38.5
 21
304.99143800000007
 31
0.0
  0
LINE
  5
E73F
  8
MSM_CONTINUOUS
 10
49.5
 20
304.99143800000007
 30
0.0
 11
50.0
 21
305.49143800000007
 31
0.0
  0
LINE
  5
E740
  8
MSM_CONTINUOUS
 10
50.0
 20
309.9914379999999
 30
0.0
 11
49.5
 21
310.4914379999999
 31
0.0
  0
LINE
  5
E741
  8
MSM_CONTINUOUS
 10
38.5
 20
310.4914379999999
 30
0.0
 11
38.0
 21
309.9914379999999
 31
0.0
  0
LINE
  5
E742
  8
MSM_CONTINUOUS
 10
41.5
 20
304.99143800000007
 30
0.0
 11
41.5
 21
304.4914379999999
 31
0.0
  0
LINE
  5
E743
  8
MSM_CONTINUOUS
 10
46.5
 20
304.4914379999999
 30
0.0
 11
46.5
 21
304.99143800000007
 31
0.0
  0
ARC
  5
E744
  8
MSM_CONTINUOUS
 10
56.0
 20
271.69143800000018
 30
0.0
 40
3.0
 50
44.220043999999177
 51
135.77995600000079
  0
LINE
  5
E745
  8
MSM_CONTINUOUS
 10
103.08278900000001
 20
10.0
 30
0.0
 11
163.08278899999999
 21
10.0
 31
0.0
  0
LINE
  5
E746
  8
MSM_CONTINUOUS
 10
380.9559720000002
 20
82.491438000000016
 30
0.0
 11
320.9559720000002
 21
82.491438000000016
 31
0.0
  0
LINE
  5
E747
  8
MSM_CONTINUOUS
 10
120.28278900000009
 20
132.4914379999999
 30
0.0
 11
120.28278900000009
 21
192.4914379999999
 31
0.0
  0
CIRCLE
  5
E748
  8
MSM_CONTINUOUS
 10
127.08278900000001
 20
137.4914379999999
 30
0.0
 40
2.1000000000000001
  0
CIRCLE
  5
E749
  8
MSM_CONTINUOUS
 10
127.08278900000001
 20
152.4914379999999
 30
0.0
 40
2.1000000000000001
  0
LINE
  5
E74A
  8
MSM_CONTINUOUS
 10
129.08278899999999
 20
177.9914379999999
 30
0.0
 11
129.08278899999999
 21
183.9914379999999
 31
0.0
  0
LINE
  5
E74B
  8
MSM_CONTINUOUS
 10
126.08278900000001
 20
186.9914379999999
 30
0.0
 11
123.882789
 21
186.9914379999999
 31
0.0
  0
LINE
  5
E74C
  8
MSM_CONTINUOUS
 10
123.882789
 20
186.9914379999999
 30
0.0
 11
123.882789
 21
192.4914379999999
 31
0.0
  0
LINE
  5
E74D
  8
MSM_CONTINUOUS
 10
142.28278899999981
 20
192.4914379999999
 30
0.0
 11
142.28278899999981
 21
186.9847639999999
 31
0.0
  0
LINE
  5
E74E
  8
MSM_CONTINUOUS
 10
139.08278899999999
 20
183.9914379999999
 30
0.0
 11
139.08278899999999
 21
177.9914379999999
 31
0.0
  0
LINE
  5
E74F
  8
MSM_CONTINUOUS
 10
142.28278899999981
 20
174.99811199999999
 30
0.0
 11
142.28278899999981
 21
132.4914379999999
 31
0.0
  0
LINE
  5
E750
  8
MSM_CONTINUOUS
 10
123.882789
 20
174.9914379999999
 30
0.0
 11
126.08278900000001
 21
174.9914379999999
 31
0.0
  0
LINE
  5
E751
  8
MSM_CONTINUOUS
 10
123.882789
 20
132.4914379999999
 30
0.0
 11
123.882789
 21
174.9914379999999
 31
0.0
  0
LINE
  5
E752
  8
MSM_CONTINUOUS
 10
145.8827890000002
 20
192.4914379999999
 30
0.0
 11
145.8827890000002
 21
132.4914379999999
 31
0.0
  0
LINE
  5
E753
  8
MSM_CONTINUOUS
 10
145.08278899999999
 20
183.9914379999999
 30
0.0
 11
145.08278899999999
 21
177.9914379999999
 31
0.0
  0
LINE
  5
E754
  8
MSM_CONTINUOUS
 10
123.08278900000001
 20
177.9914379999999
 30
0.0
 11
123.08278900000001
 21
183.9914379999999
 31
0.0
  0
LINE
  5
E755
  8
MSM_CONTINUOUS
 10
126.80447599999999
 20
179.2414379999999
 30
0.0
 11
127.5261639999998
 21
177.9914379999999
 31
0.0
  0
LINE
  5
E756
  8
MSM_CONTINUOUS
 10
125.36110099999991
 20
179.2414379999999
 30
0.0
 11
126.80447599999999
 21
179.2414379999999
 31
0.0
  0
LINE
  5
E757
  8
MSM_CONTINUOUS
 10
124.63941299999981
 20
177.9914379999999
 30
0.0
 11
125.36110099999991
 21
179.2414379999999
 31
0.0
  0
LINE
  5
E758
  8
MSM_CONTINUOUS
 10
125.36110099999991
 20
176.7414379999999
 30
0.0
 11
124.63941299999981
 21
177.9914379999999
 31
0.0
  0
LINE
  5
E759
  8
MSM_CONTINUOUS
 10
126.80447599999999
 20
176.7414379999999
 30
0.0
 11
125.36110099999991
 21
176.7414379999999
 31
0.0
  0
LINE
  5
E75A
  8
MSM_CONTINUOUS
 10
127.5261639999998
 20
177.9914379999999
 30
0.0
 11
126.80447599999999
 21
176.7414379999999
 31
0.0
  0
CIRCLE
  5
E75B
  8
MSM_CONTINUOUS
 10
126.08278900000001
 20
177.9914379999999
 30
0.0
 40
2.75
  0
LINE
  5
E75C
  8
MSM_CONTINUOUS
 10
162.8827890000002
 20
125.4914379999999
 30
0.0
 11
162.8827890000002
 21
132.4914379999999
 31
0.0
  0
LINE
  5
E75D
  8
MSM_CONTINUOUS
 10
103.28278900000009
 20
125.4914379999999
 30
0.0
 11
162.8827890000002
 21
125.4914379999999
 31
0.0
  0
LINE
  5
E75E
  8
MSM_CONTINUOUS
 10
103.28278900000009
 20
125.4914379999999
 30
0.0
 11
103.28278900000009
 21
132.4914379999999
 31
0.0
  0
LINE
  5
E75F
  8
MSM_CONTINUOUS
 10
142.8044759999998
 20
185.2414379999999
 30
0.0
 11
143.52616399999991
 21
183.9914379999999
 31
0.0
  0
LINE
  5
E760
  8
MSM_CONTINUOUS
 10
141.36110099999991
 20
185.2414379999999
 30
0.0
 11
142.8044759999998
 21
185.2414379999999
 31
0.0
  0
LINE
  5
E761
  8
MSM_CONTINUOUS
 10
140.63941299999979
 20
183.9914379999999
 30
0.0
 11
141.36110099999991
 21
185.2414379999999
 31
0.0
  0
LINE
  5
E762
  8
MSM_CONTINUOUS
 10
141.36110099999991
 20
182.7414379999999
 30
0.0
 11
140.63941299999979
 21
183.9914379999999
 31
0.0
  0
LINE
  5
E763
  8
MSM_CONTINUOUS
 10
143.52616399999991
 20
183.9914379999999
 30
0.0
 11
142.8044759999998
 21
182.7414379999999
 31
0.0
  0
CIRCLE
  5
E764
  8
MSM_CONTINUOUS
 10
142.08278899999999
 20
183.9914379999999
 30
0.0
 40
2.75
  0
LINE
  5
E765
  8
MSM_CONTINUOUS
 10
142.8044759999998
 20
182.7414379999999
 30
0.0
 11
141.36110099999991
 21
182.7414379999999
 31
0.0
  0
CIRCLE
  5
E766
  8
MSM_CONTINUOUS
 10
142.08278899999999
 20
177.9914379999999
 30
0.0
 40
2.75
  0
LINE
  5
E767
  8
MSM_CONTINUOUS
 10
142.8044759999998
 20
176.7414379999999
 30
0.0
 11
141.36110099999991
 21
176.7414379999999
 31
0.0
  0
LINE
  5
E768
  8
MSM_CONTINUOUS
 10
141.36110099999991
 20
176.7414379999999
 30
0.0
 11
140.63941299999979
 21
177.9914379999999
 31
0.0
  0
LINE
  5
E769
  8
MSM_CONTINUOUS
 10
143.52616399999991
 20
177.9914379999999
 30
0.0
 11
142.8044759999998
 21
176.7414379999999
 31
0.0
  0
LINE
  5
E76A
  8
MSM_CONTINUOUS
 10
142.8044759999998
 20
179.2414379999999
 30
0.0
 11
143.52616399999991
 21
177.9914379999999
 31
0.0
  0
LINE
  5
E76B
  8
MSM_CONTINUOUS
 10
141.36110099999991
 20
179.2414379999999
 30
0.0
 11
142.8044759999998
 21
179.2414379999999
 31
0.0
  0
LINE
  5
E76C
  8
MSM_CONTINUOUS
 10
140.63941299999979
 20
177.9914379999999
 30
0.0
 11
141.36110099999991
 21
179.2414379999999
 31
0.0
  0
CIRCLE
  5
E76D
  8
MSM_CONTINUOUS
 10
126.08278900000001
 20
183.9914379999999
 30
0.0
 40
2.75
  0
LINE
  5
E76E
  8
MSM_CONTINUOUS
 10
125.36110099999991
 20
182.7414379999999
 30
0.0
 11
124.63941299999981
 21
183.9914379999999
 31
0.0
  0
LINE
  5
E76F
  8
MSM_CONTINUOUS
 10
125.36110099999991
 20
185.2414379999999
 30
0.0
 11
126.80447599999999
 21
185.2414379999999
 31
0.0
  0
LINE
  5
E770
  8
MSM_CONTINUOUS
 10
126.80447599999999
 20
182.7414379999999
 30
0.0
 11
125.36110099999991
 21
182.7414379999999
 31
0.0
  0
LINE
  5
E771
  8
MSM_CONTINUOUS
 10
127.5261639999998
 20
183.9914379999999
 30
0.0
 11
126.80447599999999
 21
182.7414379999999
 31
0.0
  0
LINE
  5
E772
  8
MSM_CONTINUOUS
 10
126.80447599999999
 20
185.2414379999999
 30
0.0
 11
127.5261639999998
 21
183.9914379999999
 31
0.0
  0
LINE
  5
E773
  8
MSM_CONTINUOUS
 10
124.63941299999981
 20
183.9914379999999
 30
0.0
 11
125.36110099999991
 21
185.2414379999999
 31
0.0
  0
LINE
  5
E774
  8
MSM_CONTINUOUS
 10
127.6601390000001
 20
138.4914379999999
 30
0.0
 11
128.2374890000001
 21
137.4914379999999
 31
0.0
  0
LINE
  5
E775
  8
MSM_CONTINUOUS
 10
126.5054379999999
 20
138.4914379999999
 30
0.0
 11
127.6601390000001
 21
138.4914379999999
 31
0.0
  0
LINE
  5
E776
  8
MSM_CONTINUOUS
 10
125.9280880000001
 20
137.4914379999999
 30
0.0
 11
126.5054379999999
 21
138.4914379999999
 31
0.0
  0
LINE
  5
E777
  8
MSM_CONTINUOUS
 10
126.5054379999999
 20
136.4914379999999
 30
0.0
 11
125.9280880000001
 21
137.4914379999999
 31
0.0
  0
LINE
  5
E778
  8
MSM_CONTINUOUS
 10
127.6601390000001
 20
136.4914379999999
 30
0.0
 11
126.5054379999999
 21
136.4914379999999
 31
0.0
  0
LINE
  5
E779
  8
MSM_CONTINUOUS
 10
128.2374890000001
 20
137.4914379999999
 30
0.0
 11
127.6601390000001
 21
136.4914379999999
 31
0.0
  0
CIRCLE
  5
E77A
  8
MSM_CONTINUOUS
 10
127.08278900000001
 20
137.4914379999999
 30
0.0
 40
1.8999999999999999
  0
LINE
  5
E77B
  8
MSM_CONTINUOUS
 10
103.28278900000009
 20
199.4914379999999
 30
0.0
 11
103.28278900000009
 21
192.4914379999999
 31
0.0
  0
LINE
  5
E77C
  8
MSM_CONTINUOUS
 10
162.8827890000002
 20
199.4914379999999
 30
0.0
 11
103.28278900000009
 21
199.4914379999999
 31
0.0
  0
LINE
  5
E77D
  8
MSM_CONTINUOUS
 10
162.8827890000002
 20
199.4914379999999
 30
0.0
 11
162.8827890000002
 21
192.4914379999999
 31
0.0
  0
LINE
  5
E77E
  8
MSM_CONTINUOUS
 10
126.5054379999999
 20
153.4914379999999
 30
0.0
 11
127.6601390000001
 21
153.4914379999999
 31
0.0
  0
LINE
  5
E77F
  8
MSM_CONTINUOUS
 10
126.5054379999999
 20
151.4914379999999
 30
0.0
 11
125.9280880000001
 21
152.4914379999999
 31
0.0
  0
LINE
  5
E780
  8
MSM_CONTINUOUS
 10
127.6601390000001
 20
151.4914379999999
 30
0.0
 11
126.5054379999999
 21
151.4914379999999
 31
0.0
  0
CIRCLE
  5
E781
  8
MSM_CONTINUOUS
 10
127.08278900000001
 20
152.4914379999999
 30
0.0
 40
1.8999999999999999
  0
LINE
  5
E782
  8
MSM_CONTINUOUS
 10
128.2374890000001
 20
152.4914379999999
 30
0.0
 11
127.6601390000001
 21
151.4914379999999
 31
0.0
  0
LINE
  5
E783
  8
MSM_CONTINUOUS
 10
127.6601390000001
 20
153.4914379999999
 30
0.0
 11
128.2374890000001
 21
152.4914379999999
 31
0.0
  0
LINE
  5
E784
  8
MSM_CONTINUOUS
 10
125.9280880000001
 20
152.4914379999999
 30
0.0
 11
126.5054379999999
 21
153.4914379999999
 31
0.0
  0
LINE
  5
E785
  8
MSM_CONTINUOUS
 10
110.882789
 20
124.9914379999999
 30
0.0
 11
155.28278899999981
 21
124.9914379999999
 31
0.0
  0
LINE
  5
E786
  8
MSM_CONTINUOUS
 10
110.882789
 20
125.4914379999999
 30
0.0
 11
110.882789
 21
124.9914379999999
 31
0.0
  0
LINE
  5
E787
  8
MSM_CONTINUOUS
 10
155.28278899999981
 20
125.4914379999999
 30
0.0
 11
155.28278899999981
 21
124.9914379999999
 31
0.0
  0
LINE
  5
E788
  8
MSM_CONTINUOUS
 10
155.28278899999981
 20
199.4914379999999
 30
0.0
 11
155.28278899999981
 21
199.9914379999999
 31
0.0
  0
LINE
  5
E789
  8
MSM_CONTINUOUS
 10
110.882789
 20
199.4914379999999
 30
0.0
 11
110.882789
 21
199.9914379999999
 31
0.0
  0
LINE
  5
E78A
  8
MSM_CONTINUOUS
 10
119.58278900000001
 20
273.4914379999999
 30
0.0
 11
119.58278900000001
 21
272.59143799999998
 31
0.0
  0
LINE
  5
E78B
  8
MSM_CONTINUOUS
 10
110.08278900000001
 20
273.4914379999999
 30
0.0
 11
110.08278900000001
 21
272.59143799999998
 31
0.0
  0
LINE
  5
E78C
  8
MSM_CONTINUOUS
 10
110.12420999999991
 20
272.4914379999999
 30
0.0
 11
110.08278900000001
 21
272.59143799999998
 31
0.0
  0
LINE
  5
E78D
  8
MSM_CONTINUOUS
 10
119.4827889999999
 20
272.4914379999999
 30
0.0
 11
119.58278900000001
 21
272.59143799999998
 31
0.0
  0
LINE
  5
E78E
  8
MSM_CONTINUOUS
 10
103.1827889999999
 20
272.4914379999999
 30
0.0
 11
103.08278900000001
 21
272.59143799999998
 31
0.0
  0
LINE
  5
E78F
  8
MSM_CONTINUOUS
 10
103.08278900000001
 20
273.4914379999999
 30
0.0
 11
103.08278900000001
 21
272.59143799999998
 31
0.0
  0
LINE
  5
E790
  8
MSM_CONTINUOUS
 10
105.58278900000001
 20
247.4914379999999
 30
0.0
 11
110.08278900000001
 21
251.9914379999999
 31
0.0
  0
LINE
  5
E791
  8
MSM_CONTINUOUS
 10
110.08278900000001
 20
251.9914379999999
 30
0.0
 11
152.08278899999999
 21
251.9914379999999
 31
0.0
  0
LINE
  5
E792
  8
MSM_CONTINUOUS
 10
152.08278899999999
 20
251.9914379999999
 30
0.0
 11
154.08278899999999
 21
249.9914379999999
 31
0.0
  0
LINE
  5
E793
  8
MSM_CONTINUOUS
 10
153.98278900000011
 20
247.4914379999999
 30
0.0
 11
154.08278899999999
 21
247.59143800000001
 31
0.0
  0
LINE
  5
E794
  8
MSM_CONTINUOUS
 10
152.08278899999999
 20
251.9914379999999
 30
0.0
 11
152.08278899999999
 21
272.4914379999999
 31
0.0
  0
LINE
  5
E795
  8
MSM_CONTINUOUS
 10
110.08278900000001
 20
272.4914379999999
 30
0.0
 11
110.08278900000001
 21
251.9914379999999
 31
0.0
  0
LINE
  5
E796
  8
MSM_CONTINUOUS
 10
103.08278900000001
 20
247.59143800000001
 30
0.0
 11
103.1827889999999
 21
247.4914379999999
 31
0.0
  0
LINE
  5
E797
  8
MSM_CONTINUOUS
 10
103.08278900000001
 20
247.59143800000001
 30
0.0
 11
103.08278900000001
 21
272.4914379999999
 31
0.0
  0
LINE
  5
E798
  8
MSM_CONTINUOUS
 10
121.28278900000009
 20
296.99143800000007
 30
0.0
 11
121.28278900000009
 21
302.4914379999999
 31
0.0
  0
LINE
  5
E799
  8
MSM_CONTINUOUS
 10
142.58278899999999
 20
304.4914379999999
 30
0.0
 11
142.58278899999999
 21
302.4914379999999
 31
0.0
  0
LINE
  5
E79A
  8
MSM_CONTINUOUS
 10
146.8827890000002
 20
296.99143800000007
 30
0.0
 11
146.8827890000002
 21
302.4914379999999
 31
0.0
  0
LINE
  5
E79B
  8
MSM_CONTINUOUS
 10
125.58278900000001
 20
304.4914379999999
 30
0.0
 11
125.58278900000001
 21
302.4914379999999
 31
0.0
  0
LINE
  5
E79C
  8
MSM_CONTINUOUS
 10
146.8827890000002
 20
272.4914379999999
 30
0.0
 11
146.8827890000002
 21
279.4914379999999
 31
0.0
  0
LINE
  5
E79D
  8
MSM_CONTINUOUS
 10
121.28278900000009
 20
272.4914379999999
 30
0.0
 11
121.28278900000009
 21
279.4914379999999
 31
0.0
  0
LINE
  5
E79E
  8
MSM_CONTINUOUS
 10
120.08278900000001
 20
272.4914379999999
 30
0.0
 11
120.08278900000001
 21
279.4914379999999
 31
0.0
  0
LINE
  5
E79F
  8
MSM_CONTINUOUS
 10
148.08278899999999
 20
272.59143799999998
 30
0.0
 11
148.08278899999999
 21
279.4914379999999
 31
0.0
  0
LINE
  5
E7A0
  8
MSM_CONTINUOUS
 10
147.98278900000011
 20
272.4914379999999
 30
0.0
 11
148.08278899999999
 21
272.59143799999998
 31
0.0
  0
LINE
  5
E7A1
  8
MSM_CONTINUOUS
 10
121.32420999999999
 20
279.4914379999999
 30
0.0
 11
121.32420999999999
 21
296.99143800000007
 31
0.0
  0
LINE
  5
E7A2
  8
MSM_CONTINUOUS
 10
146.84136699999999
 20
279.4914379999999
 30
0.0
 11
146.84136699999999
 21
296.99143800000007
 31
0.0
  0
LINE
  5
E7A3
  8
MSM_CONTINUOUS
 10
147.98278900000011
 20
279.4914379999999
 30
0.0
 11
147.98278900000011
 21
296.99143800000007
 31
0.0
  0
LINE
  5
E7A4
  8
MSM_CONTINUOUS
 10
120.1827889999999
 20
279.4914379999999
 30
0.0
 11
120.1827889999999
 21
296.99143800000007
 31
0.0
  0
LINE
  5
E7A5
  8
MSM_CONTINUOUS
 10
153.08278899999999
 20
296.99143800000007
 30
0.0
 11
153.08278899999999
 21
304.4914379999999
 31
0.0
  0
LINE
  5
E7A6
  8
MSM_CONTINUOUS
 10
148.58278899999999
 20
304.4914379999999
 30
0.0
 11
148.58278899999999
 21
304.19143800000001
 31
0.0
  0
LINE
  5
E7A7
  8
MSM_CONTINUOUS
 10
152.48278900000011
 20
296.99143800000007
 30
0.0
 11
152.48278900000011
 21
294.19143800000018
 31
0.0
  0
LINE
  5
E7A8
  8
MSM_CONTINUOUS
 10
152.48278900000011
 20
294.19143800000018
 30
0.0
 11
148.08278899999999
 21
294.19143800000018
 31
0.0
  0
LINE
  5
E7A9
  8
MSM_CONTINUOUS
 10
139.58278899999999
 20
304.99143800000007
 30
0.0
 11
128.58278899999999
 21
304.99143800000007
 31
0.0
  0
LINE
  5
E7AA
  8
MSM_CONTINUOUS
 10
128.08278899999999
 20
305.49143800000007
 30
0.0
 11
140.08278899999999
 21
305.49143800000007
 31
0.0
  0
LINE
  5
E7AB
  8
MSM_CONTINUOUS
 10
106.6598220000001
 20
274.4914379999999
 30
0.0
 11
116.00575600000001
 21
274.4914379999999
 31
0.0
  0
LINE
  5
E7AC
  8
MSM_CONTINUOUS
 10
151.9327889999999
 20
288.19143800000018
 30
0.0
 11
148.6327890000002
 21
288.19143800000018
 31
0.0
  0
LINE
  5
E7AD
  8
MSM_CONTINUOUS
 10
152.58278899999999
 20
92.491438000000016
 30
0.0
 11
152.58278899999999
 21
82.491438000000016
 31
0.0
  0
LINE
  5
E7AE
  8
MSM_CONTINUOUS
 10
113.58278900000001
 20
92.491438000000016
 30
0.0
 11
113.58278900000001
 21
82.491438000000016
 31
0.0
  0
LINE
  5
E7AF
  8
MSM_CONTINUOUS
 10
151.08278899999999
 20
232.4914379999999
 30
0.0
 11
151.08278899999999
 21
247.4914379999999
 31
0.0
  0
LINE
  5
E7B0
  8
MSM_CONTINUOUS
 10
106.08278900000001
 20
247.4914379999999
 30
0.0
 11
106.08278900000001
 21
232.4914379999999
 31
0.0
  0
LINE
  5
E7B1
  8
MSM_CONTINUOUS
 10
103.08278900000001
 20
232.59143800000001
 30
0.0
 11
103.1827889999999
 21
232.4914379999999
 31
0.0
  0
LINE
  5
E7B2
  8
MSM_CONTINUOUS
 10
103.08278900000001
 20
232.59143800000001
 30
0.0
 11
103.08278900000001
 21
247.4914379999999
 31
0.0
  0
LINE
  5
E7B3
  8
MSM_CONTINUOUS
 10
154.08278899999999
 20
247.4914379999999
 30
0.0
 11
154.08278899999999
 21
232.59143800000001
 31
0.0
  0
LINE
  5
E7B4
  8
MSM_CONTINUOUS
 10
153.98278900000011
 20
232.4914379999999
 30
0.0
 11
154.08278899999999
 21
232.59143800000001
 31
0.0
  0
LINE
  5
E7B5
  8
MSM_CONTINUOUS
 10
145.08278899999999
 20
229.4914379999999
 30
0.0
 11
123.08278900000001
 21
229.4914379999999
 31
0.0
  0
LINE
  5
E7B6
  8
MSM_CONTINUOUS
 10
128.9327889999999
 20
229.29143800000011
 30
0.0
 11
123.2327889999999
 21
229.29143800000011
 31
0.0
  0
LINE
  5
E7B7
  8
MSM_CONTINUOUS
 10
144.9327889999999
 20
229.29143800000011
 30
0.0
 11
139.23278900000011
 21
229.29143800000011
 31
0.0
  0
LINE
  5
E7B8
  8
MSM_CONTINUOUS
 10
143.30346700000021
 20
227.84143800000001
 30
0.0
 11
140.86211
 21
227.84143800000001
 31
0.0
  0
LINE
  5
E7B9
  8
MSM_CONTINUOUS
 10
127.3034669999999
 20
227.84143800000001
 30
0.0
 11
124.86211
 21
227.84143800000001
 31
0.0
  0
LINE
  5
E7BA
  8
MSM_CONTINUOUS
 10
118.6356869999999
 20
92.491438000000016
 30
0.0
 11
118.6356869999999
 21
124.9914379999999
 31
0.0
  0
LINE
  5
E7BB
  8
MSM_CONTINUOUS
 10
112.28278900000009
 20
92.491438000000016
 30
0.0
 11
112.28278900000009
 21
124.9914379999999
 31
0.0
  0
LINE
  5
E7BC
  8
MSM_CONTINUOUS
 10
119.958139
 20
204.9914379999999
 30
0.0
 11
119.958139
 21
221.4914379999999
 31
0.0
  0
LINE
  5
E7BD
  8
MSM_CONTINUOUS
 10
119.958139
 20
117.9914379999999
 30
0.0
 11
119.958139
 21
101.491438
 31
0.0
  0
LINE
  5
E7BE
  8
MSM_CONTINUOUS
 10
147.52989100000011
 20
92.491438000000016
 30
0.0
 11
147.52989100000011
 21
124.9914379999999
 31
0.0
  0
LINE
  5
E7BF
  8
MSM_CONTINUOUS
 10
153.8827890000002
 20
232.4914379999999
 30
0.0
 11
153.8827890000002
 21
199.9914379999999
 31
0.0
  0
LINE
  5
E7C0
  8
MSM_CONTINUOUS
 10
111.9827889999999
 20
92.491438000000016
 30
0.0
 11
111.9827889999999
 21
124.9914379999999
 31
0.0
  0
LINE
  5
E7C1
  8
MSM_CONTINUOUS
 10
154.1827889999999
 20
232.4914379999999
 30
0.0
 11
154.1827889999999
 21
199.9914379999999
 31
0.0
  0
LINE
  5
E7C2
  8
MSM_CONTINUOUS
 10
120.08278900000001
 20
103.991438
 30
0.0
 11
120.08278900000001
 21
109.9914379999999
 31
0.0
  0
LINE
  5
E7C3
  8
MSM_CONTINUOUS
 10
125.08278900000001
 20
103.991438
 30
0.0
 11
125.08278900000001
 21
109.9914379999999
 31
0.0
  0
LINE
  5
E7C4
  8
MSM_CONTINUOUS
 10
120.08278900000001
 20
207.4914379999999
 30
0.0
 11
120.08278900000001
 21
213.4914379999999
 31
0.0
  0
LINE
  5
E7C5
  8
MSM_CONTINUOUS
 10
125.08278900000001
 20
207.4914379999999
 30
0.0
 11
125.08278900000001
 21
213.4914379999999
 31
0.0
  0
ARC
  5
E7C6
  8
MSM_CONTINUOUS
 10
142.58280300000021
 20
229.49142300000011
 30
0.0
 40
2.9999849999999979
 50
269.99971599999662
 51
0.0002839999990514
  0
LINE
  5
E7C7
  8
MSM_CONTINUOUS
 10
145.58278899999999
 20
229.4914379999999
 30
0.0
 11
145.58278899999999
 21
232.4914379999999
 31
0.0
  0
LINE
  5
E7C8
  8
MSM_CONTINUOUS
 10
122.58278900000001
 20
232.4914379999999
 30
0.0
 11
122.58278900000001
 21
229.4914379999999
 31
0.0
  0
ARC
  5
E7C9
  8
MSM_CONTINUOUS
 10
125.582905
 20
229.49155400000009
 30
0.0
 40
3.000115999999998
 50
180.00222000000099
 51
269.9977799999989
  0
LINE
  5
E7CA
  8
MSM_CONTINUOUS
 10
145.08278899999999
 20
213.9914379999999
 30
0.0
 11
145.08278899999999
 21
205.9914379999999
 31
0.0
  0
CIRCLE
  5
E7CB
  8
MSM_CONTINUOUS
 10
126.58278900000001
 20
112.4914379999999
 30
0.0
 40
1.8999999999999999
  0
CIRCLE
  5
E7CC
  8
MSM_CONTINUOUS
 10
126.58278900000001
 20
215.9914379999999
 30
0.0
 40
1.8999999999999999
  0
ARC
  5
E7CD
  8
MSM_CONTINUOUS
 10
126.58278900000001
 20
207.9914379999999
 30
0.0
 40
3.0
 50
270.0
 51
0.0
  0
LINE
  5
E7CE
  8
MSM_CONTINUOUS
 10
129.58278899999999
 20
218.4914379999999
 30
0.0
 11
129.58278899999999
 21
207.9914379999999
 31
0.0
  0
ARC
  5
E7CF
  8
MSM_CONTINUOUS
 10
126.58278900000001
 20
218.4914379999999
 30
0.0
 40
3.0
 50
0.0
 51
90.0
  0
ARC
  5
E7D0
  8
MSM_CONTINUOUS
 10
126.58278900000001
 20
104.491438
 30
0.0
 40
3.0
 50
270.0
 51
0.0
  0
LINE
  5
E7D1
  8
MSM_CONTINUOUS
 10
129.58278899999999
 20
104.491438
 30
0.0
 11
129.58278899999999
 21
114.9914379999999
 31
0.0
  0
ARC
  5
E7D2
  8
MSM_CONTINUOUS
 10
126.58278900000001
 20
114.9914379999999
 30
0.0
 40
3.0
 50
0.0
 51
90.0
  0
ARC
  5
E7D3
  8
MSM_CONTINUOUS
 10
117.08278900000001
 20
271.69143800000018
 30
0.0
 40
3.0
 50
44.220043999999177
 51
135.77995600000079
  0
LINE
  5
E7D4
  8
MSM_CONTINUOUS
 10
119.2327889999999
 20
273.4914379999999
 30
0.0
 11
119.2327889999999
 21
273.7836860000001
 31
0.0
  0
LINE
  5
E7D5
  8
MSM_CONTINUOUS
 10
114.9327889999999
 20
273.7836860000001
 30
0.0
 11
114.9327889999999
 21
273.4914379999999
 31
0.0
  0
LINE
  5
E7D6
  8
MSM_CONTINUOUS
 10
147.83278400000009
 20
302.4914379999999
 30
0.0
 11
147.7465830000001
 21
303.47671800000001
 31
0.0
  0
LINE
  5
E7D7
  8
MSM_CONTINUOUS
 10
143.41898499999979
 20
303.47671800000001
 30
0.0
 11
143.3327840000002
 21
302.4914379999999
 31
0.0
  0
LINE
  5
E7D8
  8
MSM_CONTINUOUS
 10
124.8327839999999
 20
302.4914379999999
 30
0.0
 11
124.7465830000001
 21
303.47671800000001
 31
0.0
  0
LINE
  5
E7D9
  8
MSM_CONTINUOUS
 10
120.41898500000001
 20
303.47671800000001
 30
0.0
 11
120.3327839999999
 21
302.4914379999999
 31
0.0
  0
ARC
  5
E7DA
  8
MSM_CONTINUOUS
 10
147.2484859999999
 20
303.43313999999998
 30
0.0
 40
0.5
 50
4.9999999999997433
 51
72.37084499998106
  0
ARC
  5
E7DB
  8
MSM_CONTINUOUS
 10
143.91708199999991
 20
303.43313999999998
 30
0.0
 40
0.5
 50
107.62915499996021
 51
175.0000000000002
  0
ARC
  5
E7DC
  8
MSM_CONTINUOUS
 10
124.2484859999999
 20
303.43313999999998
 30
0.0
 40
0.5
 50
4.9999999999997433
 51
72.37084499998106
  0
ARC
  5
E7DD
  8
MSM_CONTINUOUS
 10
120.91708199999989
 20
303.43313999999998
 30
0.0
 40
0.5
 50
107.6291549999921
 51
175.0000000000002
  0
ARC
  5
E7DE
  8
MSM_CONTINUOUS
 10
145.5827840000002
 20
298.19143800000001
 30
0.0
 40
6.0
 50
72.370845000003726
 51
107.62915500000091
  0
ARC
  5
E7DF
  8
MSM_CONTINUOUS
 10
122.5827839999999
 20
298.19143800000001
 30
0.0
 40
6.0
 50
72.370844999998837
 51
107.62915499999851
  0
LINE
  5
E7E0
  8
MSM_CONTINUOUS
 10
107.7327889999999
 20
273.4914379999999
 30
0.0
 11
107.7327889999999
 21
273.7836860000001
 31
0.0
  0
LINE
  5
E7E1
  8
MSM_CONTINUOUS
 10
103.4327889999999
 20
273.7836860000001
 30
0.0
 11
103.4327889999999
 21
273.4914379999999
 31
0.0
  0
ARC
  5
E7E2
  8
MSM_CONTINUOUS
 10
105.58278900000001
 20
271.69143800000018
 30
0.0
 40
3.0
 50
44.220043999999177
 51
135.77995600000079
  0
LINE
  5
E7E3
  8
MSM_CONTINUOUS
 10
128.08278899999999
 20
305.49143800000007
 30
0.0
 11
128.58278899999999
 21
304.99143800000007
 31
0.0
  0
LINE
  5
E7E4
  8
MSM_CONTINUOUS
 10
139.58278899999999
 20
304.99143800000007
 30
0.0
 11
140.08278899999999
 21
305.49143800000007
 31
0.0
  0
LINE
  5
E7E5
  8
MSM_CONTINUOUS
 10
140.08278899999999
 20
309.9914379999999
 30
0.0
 11
139.58278899999999
 21
310.4914379999999
 31
0.0
  0
LINE
  5
E7E6
  8
MSM_CONTINUOUS
 10
128.58278899999999
 20
310.4914379999999
 30
0.0
 11
128.08278899999999
 21
309.9914379999999
 31
0.0
  0
LINE
  5
E7E7
  8
MSM_CONTINUOUS
 10
128.08278899999999
 20
309.9914379999999
 30
0.0
 11
128.08278899999999
 21
305.49143800000007
 31
0.0
  0
LINE
  5
E7E8
  8
MSM_CONTINUOUS
 10
140.08278899999999
 20
305.49143800000007
 30
0.0
 11
140.08278899999999
 21
309.9914379999999
 31
0.0
  0
ARC
  5
E7E9
  8
MSM_CONTINUOUS
 10
122.843726
 20
295.3385110000001
 30
0.0
 40
26.90568
 50
344.59535099999982
 51
357.55656199999999
  0
ARC
  5
E7EA
  8
MSM_CONTINUOUS
 10
179.42112600000021
 20
295.6053409999999
 30
0.0
 40
28.615444
 50
182.83216499999969
 51
195.01592199999999
  0
LINE
  5
E7EB
  8
MSM_CONTINUOUS
 10
131.58278899999999
 20
304.99143800000007
 30
0.0
 11
131.58278899999999
 21
304.4914379999999
 31
0.0
  0
LINE
  5
E7EC
  8
MSM_CONTINUOUS
 10
136.58278899999999
 20
304.4914379999999
 30
0.0
 11
136.58278899999999
 21
304.99143800000007
 31
0.0
  0
LINE
  5
E7ED
  8
MSM_CONTINUOUS
 10
148.6327890000002
 20
288.19143800000018
 30
0.0
 11
148.6327890000002
 21
283.32953800000013
 31
0.0
  0
LINE
  5
E7EE
  8
MSM_CONTINUOUS
 10
151.9327889999999
 20
283.32953800000013
 30
0.0
 11
151.9327889999999
 21
288.19143800000018
 31
0.0
  0
ARC
  5
E7EF
  8
MSM_CONTINUOUS
 10
187.59658099999979
 20
283.11870499999998
 30
0.0
 40
35.664416000000003
 50
179.66128899999981
 51
188.45674299999999
  0
ARC
  5
E7F0
  8
MSM_CONTINUOUS
 10
187.83671700000011
 20
283.1364109999999
 30
0.0
 40
39.204403999999997
 50
179.71775099999971
 51
188.475549
  0
LINE
  5
E7F1
  8
MSM_CONTINUOUS
 10
149.0604699999999
 20
277.35817900000001
 30
0.0
 11
149.83035000000021
 21
272.4914379999999
 31
0.0
  0
LINE
  5
E7F2
  8
MSM_CONTINUOUS
 10
128.9327889999999
 20
229.29143800000011
 30
0.0
 11
128.9327889999999
 21
229.4914379999999
 31
0.0
  0
LINE
  5
E7F3
  8
MSM_CONTINUOUS
 10
123.2327889999999
 20
229.4914379999999
 30
0.0
 11
123.2327889999999
 21
229.29143800000011
 31
0.0
  0
LINE
  5
E7F4
  8
MSM_CONTINUOUS
 10
144.9327889999999
 20
229.29143800000011
 30
0.0
 11
144.9327889999999
 21
229.4914379999999
 31
0.0
  0
LINE
  5
E7F5
  8
MSM_CONTINUOUS
 10
139.23278900000011
 20
229.4914379999999
 30
0.0
 11
139.23278900000011
 21
229.29143800000011
 31
0.0
  0
ARC
  5
E7F6
  8
MSM_CONTINUOUS
 10
142.08278899999999
 20
230.85348800000011
 30
0.0
 40
3.25
 50
292.06098599999649
 51
331.2733949999988
  0
ARC
  5
E7F7
  8
MSM_CONTINUOUS
 10
142.08278899999999
 20
230.85348800000011
 30
0.0
 40
3.25
 50
208.7266050000012
 51
247.93901400000351
  0
ARC
  5
E7F8
  8
MSM_CONTINUOUS
 10
126.08278900000001
 20
230.85348800000011
 30
0.0
 40
3.25
 50
292.06098599999711
 51
331.2733949999988
  0
ARC
  5
E7F9
  8
MSM_CONTINUOUS
 10
126.08278900000001
 20
230.85348800000011
 30
0.0
 40
3.25
 50
208.7266050000012
 51
247.93901399999791
  0
LINE
  5
E7FA
  8
MSM_CONTINUOUS
 10
221.3613620000001
 20
132.4914379999999
 30
0.0
 11
221.3613620000001
 21
192.4914379999999
 31
0.0
  0
LINE
  5
E7FB
  8
MSM_CONTINUOUS
 10
208.3613620000001
 20
132.4914379999999
 30
0.0
 11
221.3613620000001
 21
132.4914379999999
 31
0.0
  0
LINE
  5
E7FC
  8
MSM_CONTINUOUS
 10
208.3613620000001
 20
132.4914379999999
 30
0.0
 11
208.3613620000001
 21
192.4914379999999
 31
0.0
  0
LINE
  5
E7FD
  8
MSM_CONTINUOUS
 10
208.3613620000001
 20
192.4914379999999
 30
0.0
 11
221.3613620000001
 21
192.4914379999999
 31
0.0
  0
LINE
  5
E7FE
  8
MSM_CONTINUOUS
 10
208.8613620000001
 20
199.4914379999999
 30
0.0
 11
208.8613620000001
 21
192.4914379999999
 31
0.0
  0
LINE
  5
E7FF
  8
MSM_CONTINUOUS
 10
221.26136200000019
 20
199.4914379999999
 30
0.0
 11
208.8613620000001
 21
199.4914379999999
 31
0.0
  0
LINE
  5
E800
  8
MSM_CONTINUOUS
 10
208.8613620000001
 20
125.4914379999999
 30
0.0
 11
221.26136200000019
 21
125.4914379999999
 31
0.0
  0
LINE
  5
E801
  8
MSM_CONTINUOUS
 10
208.8613620000001
 20
125.4914379999999
 30
0.0
 11
208.8613620000001
 21
132.4914379999999
 31
0.0
  0
LINE
  5
E802
  8
MSM_CONTINUOUS
 10
217.33656500000001
 20
199.4914379999999
 30
0.0
 11
217.33656500000001
 21
199.9914379999999
 31
0.0
  0
LINE
  5
E803
  8
MSM_CONTINUOUS
 10
213.6613619999998
 20
199.4914379999999
 30
0.0
 11
213.6613619999998
 21
199.9914379999999
 31
0.0
  0
LINE
  5
E804
  8
MSM_CONTINUOUS
 10
219.38615900000011
 20
199.4914379999999
 30
0.0
 11
219.38615900000011
 21
199.9914379999999
 31
0.0
  0
LINE
  5
E805
  8
MSM_CONTINUOUS
 10
219.38615900000011
 20
125.4914379999999
 30
0.0
 11
219.38615900000011
 21
124.9914379999999
 31
0.0
  0
LINE
  5
E806
  8
MSM_CONTINUOUS
 10
217.33656500000001
 20
125.4914379999999
 30
0.0
 11
217.33656500000001
 21
124.9914379999999
 31
0.0
  0
LINE
  5
E807
  8
MSM_CONTINUOUS
 10
213.6613619999998
 20
125.4914379999999
 30
0.0
 11
213.6613619999998
 21
124.9914379999999
 31
0.0
  0
LINE
  5
E808
  8
MSM_CONTINUOUS
 10
222.3613620000001
 20
270.4914379999999
 30
0.0
 11
209.8613620000001
 21
270.4914379999999
 31
0.0
  0
LINE
  5
E809
  8
MSM_CONTINUOUS
 10
209.8613620000001
 20
270.4914379999999
 30
0.0
 11
207.8613620000001
 21
272.4914379999999
 31
0.0
  0
LINE
  5
E80A
  8
MSM_CONTINUOUS
 10
209.8613620000001
 20
270.4914379999999
 30
0.0
 11
209.8613620000001
 21
249.9914379999999
 31
0.0
  0
LINE
  5
E80B
  8
MSM_CONTINUOUS
 10
207.8613620000001
 20
251.9914379999999
 30
0.0
 11
207.8613620000001
 21
272.4914379999999
 31
0.0
  0
ARC
  5
E80C
  8
MSM_CONTINUOUS
 10
234.3334370000002
 20
262.523076
 30
0.0
 40
1.655381
 50
306.3600529999909
 51
34.431294000002033
  0
LINE
  5
E80D
  8
MSM_CONTINUOUS
 10
214.4609959999998
 20
296.99143800000007
 30
0.0
 11
214.4609959999998
 21
304.4914379999999
 31
0.0
  0
LINE
  5
E80E
  8
MSM_CONTINUOUS
 10
214.1113620000001
 20
296.99143800000007
 30
0.0
 11
214.1113620000001
 21
304.19143800000001
 31
0.0
  0
LINE
  5
E80F
  8
MSM_CONTINUOUS
 10
214.1113620000001
 20
304.19143800000001
 30
0.0
 11
214.1463250000001
 21
304.19143800000001
 31
0.0
  0
LINE
  5
E810
  8
MSM_CONTINUOUS
 10
214.1463250000001
 20
304.4914379999999
 30
0.0
 11
214.1463250000001
 21
304.19143800000001
 31
0.0
  0
LINE
  5
E811
  8
MSM_CONTINUOUS
 10
230.6113620000001
 20
296.99143800000007
 30
0.0
 11
230.6113620000001
 21
304.19143800000001
 31
0.0
  0
LINE
  5
E812
  8
MSM_CONTINUOUS
 10
230.26172799999989
 20
296.99143800000007
 30
0.0
 11
230.26172799999989
 21
304.4914379999999
 31
0.0
  0
LINE
  5
E813
  8
MSM_CONTINUOUS
 10
230.5763980000001
 20
304.19143800000001
 30
0.0
 11
230.5763980000001
 21
304.4914379999999
 31
0.0
  0
LINE
  5
E814
  8
MSM_CONTINUOUS
 10
230.5763980000001
 20
304.19143800000001
 30
0.0
 11
230.6113620000001
 21
304.19143800000001
 31
0.0
  0
LINE
  5
E815
  8
MSM_CONTINUOUS
 10
228.3613620000001
 20
294.19143800000018
 30
0.0
 11
216.3613620000001
 21
294.19143800000018
 31
0.0
  0
LINE
  5
E816
  8
MSM_CONTINUOUS
 10
228.3613620000001
 20
296.99143800000007
 30
0.0
 11
228.3613620000001
 21
294.19143800000018
 31
0.0
  0
LINE
  5
E817
  8
MSM_CONTINUOUS
 10
216.3613620000001
 20
296.99143800000007
 30
0.0
 11
216.3613620000001
 21
294.19143800000018
 31
0.0
  0
LINE
  5
E818
  8
MSM_CONTINUOUS
 10
209.56136199999989
 20
296.99143800000007
 30
0.0
 11
209.56136199999989
 21
302.4914379999999
 31
0.0
  0
LINE
  5
E819
  8
MSM_CONTINUOUS
 10
213.8613620000001
 20
304.4914379999999
 30
0.0
 11
213.8613620000001
 21
302.4914379999999
 31
0.0
  0
LINE
  5
E81A
  8
MSM_CONTINUOUS
 10
230.8613620000001
 20
304.4914379999999
 30
0.0
 11
230.8613620000001
 21
302.4914379999999
 31
0.0
  0
LINE
  5
E81B
  8
MSM_CONTINUOUS
 10
235.1613619999998
 20
296.99143800000007
 30
0.0
 11
235.1613619999998
 21
302.4914379999999
 31
0.0
  0
LINE
  5
E81C
  8
MSM_CONTINUOUS
 10
236.96136200000001
 20
272.4914379999999
 30
0.0
 11
236.8613620000001
 21
272.39143799999999
 31
0.0
  0
LINE
  5
E81D
  8
MSM_CONTINUOUS
 10
236.96136200000001
 20
247.4914379999999
 30
0.0
 11
236.96136200000001
 21
272.4914379999999
 31
0.0
  0
LINE
  5
E81E
  8
MSM_CONTINUOUS
 10
236.96136200000001
 20
272.4914379999999
 30
0.0
 11
237.8613620000001
 21
272.4914379999999
 31
0.0
  0
LINE
  5
E81F
  8
MSM_CONTINUOUS
 10
208.3613620000001
 20
272.4914379999999
 30
0.0
 11
208.3613620000001
 21
279.4914379999999
 31
0.0
  0
LINE
  5
E820
  8
MSM_CONTINUOUS
 10
209.56136199999989
 20
272.59143799999998
 30
0.0
 11
209.56136199999989
 21
279.4914379999999
 31
0.0
  0
LINE
  5
E821
  8
MSM_CONTINUOUS
 10
209.46136200000001
 20
272.4914379999999
 30
0.0
 11
209.56136199999989
 21
272.59143799999998
 31
0.0
  0
LINE
  5
E822
  8
MSM_CONTINUOUS
 10
235.1613619999998
 20
272.59143799999998
 30
0.0
 11
235.1613619999998
 21
279.4914379999999
 31
0.0
  0
LINE
  5
E823
  8
MSM_CONTINUOUS
 10
235.1613619999998
 20
272.59143799999998
 30
0.0
 11
229.50736000000009
 21
272.59143799999998
 31
0.0
  0
LINE
  5
E824
  8
MSM_CONTINUOUS
 10
235.1613619999998
 20
272.59143799999998
 30
0.0
 11
235.26136200000019
 21
272.4914379999999
 31
0.0
  0
LINE
  5
E825
  8
MSM_CONTINUOUS
 10
236.3613620000001
 20
272.4914379999999
 30
0.0
 11
236.3613620000001
 21
279.4914379999999
 31
0.0
  0
LINE
  5
E826
  8
MSM_CONTINUOUS
 10
209.60278299999979
 20
279.4914379999999
 30
0.0
 11
209.60278299999979
 21
296.99143800000007
 31
0.0
  0
LINE
  5
E827
  8
MSM_CONTINUOUS
 10
235.11994000000001
 20
279.4914379999999
 30
0.0
 11
235.11994000000001
 21
296.99143800000007
 31
0.0
  0
LINE
  5
E828
  8
MSM_CONTINUOUS
 10
208.46136200000001
 20
279.4914379999999
 30
0.0
 11
208.46136200000001
 21
296.99143800000007
 31
0.0
  0
LINE
  5
E829
  8
MSM_CONTINUOUS
 10
236.26136200000019
 20
279.4914379999999
 30
0.0
 11
236.26136200000019
 21
296.99143800000007
 31
0.0
  0
LINE
  5
E82A
  8
MSM_CONTINUOUS
 10
216.3613620000001
 20
305.49143800000007
 30
0.0
 11
228.3613620000001
 21
305.49143800000007
 31
0.0
  0
LINE
  5
E82B
  8
MSM_CONTINUOUS
 10
228.3613620000001
 20
309.9914379999999
 30
0.0
 11
216.3613620000001
 21
309.9914379999999
 31
0.0
  0
LINE
  5
E82C
  8
MSM_CONTINUOUS
 10
227.8613620000001
 20
304.99143800000007
 30
0.0
 11
216.8613620000001
 21
304.99143800000007
 31
0.0
  0
LINE
  5
E82D
  8
MSM_CONTINUOUS
 10
216.8613620000001
 20
310.4914379999999
 30
0.0
 11
227.8613620000001
 21
310.4914379999999
 31
0.0
  0
LINE
  5
E82E
  8
MSM_CONTINUOUS
 10
207.8613620000001
 20
273.4914379999999
 30
0.0
 11
208.3613620000001
 21
273.4914379999999
 31
0.0
  0
LINE
  5
E82F
  8
MSM_CONTINUOUS
 10
236.8613620000001
 20
273.4914379999999
 30
0.0
 11
236.8613620000001
 21
272.59143799999998
 31
0.0
  0
LINE
  5
E830
  8
MSM_CONTINUOUS
 10
207.8613620000001
 20
272.59143799999998
 30
0.0
 11
208.3613620000001
 21
272.59143799999998
 31
0.0
  0
LINE
  5
E831
  8
MSM_CONTINUOUS
 10
207.8613620000001
 20
273.4914379999999
 30
0.0
 11
207.8613620000001
 21
272.59143799999998
 31
0.0
  0
LINE
  5
E832
  8
MSM_CONTINUOUS
 10
236.8613620000001
 20
272.59143799999998
 30
0.0
 11
236.76136200000019
 21
272.4914379999999
 31
0.0
  0
LINE
  5
E833
  8
MSM_CONTINUOUS
 10
207.96136200000001
 20
272.4914379999999
 30
0.0
 11
207.8613620000001
 21
272.59143799999998
 31
0.0
  0
LINE
  5
E834
  8
MSM_CONTINUOUS
 10
250.3613620000001
 20
92.491438000000016
 30
0.0
 11
250.3613620000001
 21
218.4914379999999
 31
0.0
  0
LINE
  5
E835
  8
MSM_CONTINUOUS
 10
238.46136200000001
 20
222.4914379999999
 30
0.0
 11
238.46136200000001
 21
92.491438000000016
 31
0.0
  0
LINE
  5
E836
  8
MSM_CONTINUOUS
 10
266.3613620000001
 20
202.4914379999999
 30
0.0
 11
266.3613620000001
 21
92.591437999999926
 31
0.0
  0
LINE
  5
E837
  8
MSM_CONTINUOUS
 10
266.26136200000019
 20
92.491438000000016
 30
0.0
 11
266.3613620000001
 21
92.591437999999926
 31
0.0
  0
LINE
  5
E838
  8
MSM_CONTINUOUS
 10
228.3613620000001
 20
92.491438000000016
 30
0.0
 11
228.3613620000001
 21
232.4914379999999
 31
0.0
  0
LINE
  5
E839
  8
MSM_CONTINUOUS
 10
250.46136200000001
 20
92.391437999999994
 30
0.0
 11
250.46136200000001
 21
92.491438000000016
 31
0.0
  0
LINE
  5
E83A
  8
MSM_CONTINUOUS
 10
266.3613620000001
 20
92.491438000000016
 30
0.0
 11
266.3613620000001
 21
82.491438000000016
 31
0.0
  0
LINE
  5
E83B
  8
MSM_CONTINUOUS
 10
266.3613620000001
 20
82.491438000000016
 30
0.0
 11
206.3613620000001
 21
82.491438000000016
 31
0.0
  0
LINE
  5
E83C
  8
MSM_CONTINUOUS
 10
206.3613620000001
 20
92.491438000000016
 30
0.0
 11
206.3613620000001
 21
82.491438000000016
 31
0.0
  0
LINE
  5
E83D
  8
MSM_CONTINUOUS
 10
227.8613620000001
 20
92.391437999999994
 30
0.0
 11
227.8613620000001
 21
92.491438000000016
 31
0.0
  0
LINE
  5
E83E
  8
MSM_CONTINUOUS
 10
227.8613620000001
 20
92.391437999999994
 30
0.0
 11
250.46136200000001
 21
92.391437999999994
 31
0.0
  0
LINE
  5
E83F
  8
MSM_CONTINUOUS
 10
221.8613620000001
 20
232.4914379999999
 30
0.0
 11
221.8613620000001
 21
92.491438000000016
 31
0.0
  0
LINE
  5
E840
  8
MSM_CONTINUOUS
 10
235.8613620000001
 20
232.4914379999999
 30
0.0
 11
235.8613620000001
 21
257.49143800000007
 31
0.0
  0
LINE
  5
E841
  8
MSM_CONTINUOUS
 10
215.3613620000001
 20
247.4914379999999
 30
0.0
 11
215.3613620000001
 21
232.4914379999999
 31
0.0
  0
LINE
  5
E842
  8
MSM_CONTINUOUS
 10
237.8613620000001
 20
272.4914379999999
 30
0.0
 11
237.8613620000001
 21
232.4914379999999
 31
0.0
  0
LINE
  5
E843
  8
MSM_CONTINUOUS
 10
219.89764199999991
 20
232.4914379999999
 30
0.0
 11
219.89764199999991
 21
199.9914379999999
 31
0.0
  0
LINE
  5
E844
  8
MSM_CONTINUOUS
 10
216.8250819999999
 20
92.491438000000016
 30
0.0
 11
216.8250819999999
 21
124.9914379999999
 31
0.0
  0
LINE
  5
E845
  8
MSM_CONTINUOUS
 10
214.8613620000001
 20
232.4914379999999
 30
0.0
 11
214.8613620000001
 21
199.9914379999999
 31
0.0
  0
LINE
  5
E846
  8
MSM_CONTINUOUS
 10
212.3613620000001
 20
247.4914379999999
 30
0.0
 11
212.3613620000001
 21
229.4914379999999
 31
0.0
  0
ARC
  5
E847
  8
MSM_CONTINUOUS
 10
232.54770300000021
 20
283.31891899999988
 30
0.0
 40
8.5363480000000003
 50
179.92872300000039
 51
214.02876799999939
  0
ARC
  5
E848
  8
MSM_CONTINUOUS
 10
232.5492279999998
 20
283.31938899999989
 30
0.0
 40
11.837871
 50
179.9508789999995
 51
214.05640099999931
  0
LINE
  5
E849
  8
MSM_CONTINUOUS
 10
220.71136200000001
 20
288.19143800000018
 30
0.0
 11
220.71136200000001
 21
283.32953800000013
 31
0.0
  0
LINE
  5
E84A
  8
MSM_CONTINUOUS
 10
224.01136200000019
 20
283.32953800000013
 30
0.0
 11
224.01136200000019
 21
288.19143800000018
 31
0.0
  0
LINE
  5
E84B
  8
MSM_CONTINUOUS
 10
213.1113620000001
 20
302.4914379999999
 30
0.0
 11
213.025161
 21
303.47671800000001
 31
0.0
  0
LINE
  5
E84C
  8
MSM_CONTINUOUS
 10
208.6975630000002
 20
303.47671800000001
 30
0.0
 11
208.6113620000001
 21
302.4914379999999
 31
0.0
  0
LINE
  5
E84D
  8
MSM_CONTINUOUS
 10
236.1113620000001
 20
302.4914379999999
 30
0.0
 11
236.025161
 21
303.47671800000001
 31
0.0
  0
LINE
  5
E84E
  8
MSM_CONTINUOUS
 10
231.6975630000002
 20
303.47671800000001
 30
0.0
 11
231.6113620000001
 21
302.4914379999999
 31
0.0
  0
ARC
  5
E84F
  8
MSM_CONTINUOUS
 10
212.52706399999991
 20
303.43313999999998
 30
0.0
 40
0.5
 50
4.9999999999997433
 51
72.37084499998106
  0
ARC
  5
E850
  8
MSM_CONTINUOUS
 10
209.19565999999989
 20
303.43313999999998
 30
0.0
 40
0.5
 50
107.62915499996021
 51
175.0000000000002
  0
ARC
  5
E851
  8
MSM_CONTINUOUS
 10
235.52706399999991
 20
303.43313999999998
 30
0.0
 40
0.5
 50
4.9999999999997433
 51
72.37084499998106
  0
ARC
  5
E852
  8
MSM_CONTINUOUS
 10
232.19565999999989
 20
303.43313999999998
 30
0.0
 40
0.5
 50
107.62915499996021
 51
175.0000000000002
  0
ARC
  5
E853
  8
MSM_CONTINUOUS
 10
210.8613620000001
 20
298.19143800000001
 30
0.0
 40
6.0
 50
72.370844999998582
 51
107.62915500000091
  0
ARC
  5
E854
  8
MSM_CONTINUOUS
 10
233.8613620000001
 20
298.19143800000001
 30
0.0
 40
6.0
 50
72.370844999998582
 51
107.62915500000091
  0
LINE
  5
E855
  8
MSM_CONTINUOUS
 10
155.28278899999981
 20
335.59059300000013
 30
0.0
 11
155.28278899999981
 21
331.915389
 31
0.0
  0
LINE
  5
E856
  8
MSM_CONTINUOUS
 10
155.28278899999981
 20
339.51538899999991
 30
0.0
 11
155.28278899999981
 21
337.64018599999991
 31
0.0
  0
LINE
  5
E857
  8
MSM_CONTINUOUS
 10
155.28278899999981
 20
337.64018599999991
 30
0.0
 11
154.0890389999999
 21
336.95097400000009
 31
0.0
  0
LINE
  5
E858
  8
MSM_CONTINUOUS
 10
154.0890389999999
 20
336.27980400000001
 30
0.0
 11
155.28278899999981
 21
335.59059300000013
 31
0.0
  0
LINE
  5
E859
  8
MSM_CONTINUOUS
 10
162.8827890000002
 20
339.51538899999991
 30
0.0
 11
162.8827890000002
 21
327.11538899999988
 31
0.0
  0
LINE
  5
E85A
  8
MSM_CONTINUOUS
 10
162.8827890000002
 20
327.11538899999988
 30
0.0
 11
153.08278899999999
 21
327.11538899999988
 31
0.0
  0
LINE
  5
E85B
  8
MSM_CONTINUOUS
 10
163.08278899999999
 20
339.61538899999982
 30
0.0
 11
154.48278900000011
 21
339.61538899999982
 31
0.0
  0
LINE
  5
E85C
  8
MSM_CONTINUOUS
 10
154.48278900000011
 20
339.61538899999982
 30
0.0
 11
154.48278900000011
 21
339.51538899999991
 31
0.0
  0
LINE
  5
E85D
  8
MSM_CONTINUOUS
 10
125.58278900000001
 20
329.61538899999988
 30
0.0
 11
125.58278900000001
 21
326.61538899999999
 31
0.0
  0
LINE
  5
E85E
  8
MSM_CONTINUOUS
 10
123.08278900000001
 20
349.11538899999982
 30
0.0
 11
120.08278900000001
 21
349.11538899999982
 31
0.0
  0
ARC
  5
E85F
  8
MSM_CONTINUOUS
 10
123.08278900000001
 20
351.61538899999982
 30
0.0
 40
2.5
 50
270.0
 51
0.0
  0
LINE
  5
E860
  8
MSM_CONTINUOUS
 10
125.58278900000001
 20
354.61538899999982
 30
0.0
 11
125.58278900000001
 21
351.61538899999982
 31
0.0
  0
LINE
  5
E861
  8
MSM_CONTINUOUS
 10
142.58278899999999
 20
351.61538899999982
 30
0.0
 11
142.58278899999999
 21
354.61538899999982
 31
0.0
  0
ARC
  5
E862
  8
MSM_CONTINUOUS
 10
145.08278899999999
 20
351.61538899999982
 30
0.0
 40
2.5
 50
180.0
 51
270.0
  0
LINE
  5
E863
  8
MSM_CONTINUOUS
 10
148.08278899999999
 20
349.11538899999982
 30
0.0
 11
145.08278899999999
 21
349.11538899999982
 31
0.0
  0
LINE
  5
E864
  8
MSM_CONTINUOUS
 10
142.58278899999999
 20
326.61538899999999
 30
0.0
 11
142.58278899999999
 21
329.61538899999988
 31
0.0
  0
LINE
  5
E865
  8
MSM_CONTINUOUS
 10
153.08278899999999
 20
332.71502299999997
 30
0.0
 11
153.08278899999999
 21
348.51575500000013
 31
0.0
  0
LINE
  5
E866
  8
MSM_CONTINUOUS
 10
148.58278899999999
 20
348.83042599999982
 30
0.0
 11
148.58278899999999
 21
332.40035299999982
 31
0.0
  0
CIRCLE
  5
E867
  8
MSM_CONTINUOUS
 10
145.5827840000002
 20
329.11538899999988
 30
0.0
 40
2.25
  0
CIRCLE
  5
E868
  8
MSM_CONTINUOUS
 10
145.5827840000002
 20
352.11538899999982
 30
0.0
 40
2.25
  0
CIRCLE
  5
E869
  8
MSM_CONTINUOUS
 10
122.5827839999999
 20
352.11538899999982
 30
0.0
 40
2.25
  0
CIRCLE
  5
E86A
  8
MSM_CONTINUOUS
 10
122.5827839999999
 20
329.11538899999988
 30
0.0
 40
2.25
  0
LINE
  5
E86B
  8
MSM_CONTINUOUS
 10
121.28278900000009
 20
354.61538899999982
 30
0.0
 11
120.08278900000001
 21
353.415389
 31
0.0
  0
LINE
  5
E86C
  8
MSM_CONTINUOUS
 10
148.08278899999999
 20
353.415389
 30
0.0
 11
146.8827890000002
 21
354.61538899999982
 31
0.0
  0
CIRCLE
  5
E86D
  8
MSM_CONTINUOUS
 10
112.08278900000001
 20
342.61538899999982
 30
0.0
 40
5.0
  0
CIRCLE
  5
E86E
  8
MSM_CONTINUOUS
 10
117.08278900000001
 20
328.61538899999999
 30
0.0
 40
2.149999999999999
  0
CIRCLE
  5
E86F
  8
MSM_CONTINUOUS
 10
105.58278900000001
 20
352.11538899999982
 30
0.0
 40
2.149999999999999
  0
CIRCLE
  5
E870
  8
MSM_CONTINUOUS
 10
105.58278900000001
 20
334.11538899999982
 30
0.0
 40
2.149999999999999
  0
CIRCLE
  5
E871
  8
MSM_CONTINUOUS
 10
112.08278900000001
 20
342.61538899999982
 30
0.0
 40
7.0
  0
LINE
  5
E872
  8
MSM_CONTINUOUS
 10
119.58278900000001
 20
326.11538899999988
 30
0.0
 11
119.58278900000001
 21
355.11538899999982
 31
0.0
  0
LINE
  5
E873
  8
MSM_CONTINUOUS
 10
148.08278899999999
 20
355.21538899999967
 30
0.0
 11
148.08278899999999
 21
356.11538899999982
 31
0.0
  0
LINE
  5
E874
  8
MSM_CONTINUOUS
 10
104.08278900000001
 20
355.21538899999967
 30
0.0
 11
148.08278899999999
 21
355.21538899999967
 31
0.0
  0
LINE
  5
E875
  8
MSM_CONTINUOUS
 10
148.08278899999999
 20
355.21538899999967
 30
0.0
 11
147.98278900000011
 21
355.11538899999982
 31
0.0
  0
LINE
  5
E876
  8
MSM_CONTINUOUS
 10
115.08278900000001
 20
356.3153890000001
 30
0.0
 11
115.08278900000001
 21
356.61538899999982
 31
0.0
  0
LINE
  5
E877
  8
MSM_CONTINUOUS
 10
151.08278899999999
 20
356.3153890000001
 30
0.0
 11
115.08278900000001
 21
356.3153890000001
 31
0.0
  0
LINE
  5
E878
  8
MSM_CONTINUOUS
 10
151.08278899999999
 20
356.61538899999982
 30
0.0
 11
151.08278899999999
 21
356.3153890000001
 31
0.0
  0
LINE
  5
E879
  8
MSM_CONTINUOUS
 10
154.1827889999999
 20
340.11538899999982
 30
0.0
 11
154.1827889999999
 21
341.61538899999982
 31
0.0
  0
LINE
  5
E87A
  8
MSM_CONTINUOUS
 10
103.08278900000001
 20
356.71538899999967
 30
0.0
 11
103.1827889999999
 21
356.61538899999982
 31
0.0
  0
LINE
  5
E87B
  8
MSM_CONTINUOUS
 10
163.08278899999999
 20
364.61538899999982
 30
0.0
 11
103.08278900000001
 21
364.61538899999982
 31
0.0
  0
LINE
  5
E87C
  8
MSM_CONTINUOUS
 10
162.98278900000011
 20
356.61538899999982
 30
0.0
 11
163.08278899999999
 21
356.71538899999967
 31
0.0
  0
LINE
  5
E87D
  8
MSM_CONTINUOUS
 10
103.08278900000001
 20
368.61538899999982
 30
0.0
 11
119.08278900000001
 21
384.61538899999982
 31
0.0
  0
LINE
  5
E87E
  8
MSM_CONTINUOUS
 10
147.08278899999999
 20
384.61538899999982
 30
0.0
 11
163.08278899999999
 21
368.61538899999982
 31
0.0
  0
LINE
  5
E87F
  8
MSM_CONTINUOUS
 10
162.98278900000011
 20
346.11538899999982
 30
0.0
 11
162.98278900000011
 21
346.61538899999982
 31
0.0
  0
LINE
  5
E880
  8
MSM_CONTINUOUS
 10
163.08278899999999
 20
346.11538899999982
 30
0.0
 11
162.98278900000011
 21
346.11538899999982
 31
0.0
  0
LINE
  5
E881
  8
MSM_CONTINUOUS
 10
152.58278899999999
 20
324.61538899999988
 30
0.0
 11
152.58278899999999
 21
326.11538899999988
 31
0.0
  0
LINE
  5
E882
  8
MSM_CONTINUOUS
 10
113.58278900000001
 20
326.11538899999988
 30
0.0
 11
113.58278900000001
 21
324.61538899999988
 31
0.0
  0
LINE
  5
E883
  8
MSM_CONTINUOUS
 10
103.1827889999999
 20
368.8153890000001
 30
0.0
 11
103.1827889999999
 21
368.71538899999979
 31
0.0
  0
CIRCLE
  5
E884
  8
MSM_CONTINUOUS
 10
108.08278900000001
 20
379.61538899999982
 30
0.0
 40
4.0
  0
CIRCLE
  5
E885
  8
MSM_CONTINUOUS
 10
158.08278899999999
 20
379.61538899999982
 30
0.0
 40
4.0
  0
LINE
  5
E886
  8
MSM_CONTINUOUS
 10
163.08278899999999
 20
368.71538899999979
 30
0.0
 11
162.98278900000011
 21
368.71538899999979
 31
0.0
  0
LINE
  5
E887
  8
MSM_CONTINUOUS
 10
103.08278900000001
 20
368.8153890000001
 30
0.0
 11
103.1827889999999
 21
368.8153890000001
 31
0.0
  0
CIRCLE
  5
E888
  8
MSM_CONTINUOUS
 10
108.08278900000001
 20
379.61538899999982
 30
0.0
 40
2.25
  0
CIRCLE
  5
E889
  8
MSM_CONTINUOUS
 10
158.08278899999999
 20
379.61538899999982
 30
0.0
 40
2.25
  0
LINE
  5
E88A
  8
MSM_CONTINUOUS
 10
153.08278899999999
 20
345.35401200000001
 30
0.0
 11
153.94994499999979
 21
349.07039599999979
 31
0.0
  0
LINE
  5
E88B
  8
MSM_CONTINUOUS
 10
161.58278899999999
 20
343.11538899999982
 30
0.0
 11
161.58278899999999
 21
346.61538899999982
 31
0.0
  0
LINE
  5
E88C
  8
MSM_CONTINUOUS
 10
154.58278899999999
 20
343.57498099999998
 30
0.0
 11
154.58278899999999
 21
343.11538899999982
 31
0.0
  0
LINE
  5
E88D
  8
MSM_CONTINUOUS
 10
58.0
 20
132.4914379999999
 30
0.0
 11
58.0
 21
192.4914379999999
 31
0.0
  0
LINE
  5
E88E
  8
MSM_CONTINUOUS
 10
45.0
 20
192.4914379999999
 30
0.0
 11
58.0
 21
192.4914379999999
 31
0.0
  0
LINE
  5
E88F
  8
MSM_CONTINUOUS
 10
45.0
 20
132.4914379999999
 30
0.0
 11
45.0
 21
192.4914379999999
 31
0.0
  0
LINE
  5
E890
  8
MSM_CONTINUOUS
 10
45.0
 20
132.4914379999999
 30
0.0
 11
58.0
 21
132.4914379999999
 31
0.0
  0
LINE
  5
E891
  8
MSM_CONTINUOUS
 10
57.5
 20
125.4914379999999
 30
0.0
 11
57.5
 21
132.4914379999999
 31
0.0
  0
LINE
  5
E892
  8
MSM_CONTINUOUS
 10
45.099999999999902
 20
125.4914379999999
 30
0.0
 11
57.5
 21
125.4914379999999
 31
0.0
  0
LINE
  5
E893
  8
MSM_CONTINUOUS
 10
57.5
 20
199.4914379999999
 30
0.0
 11
57.5
 21
192.4914379999999
 31
0.0
  0
LINE
  5
E894
  8
MSM_CONTINUOUS
 10
57.5
 20
199.4914379999999
 30
0.0
 11
45.099999999999902
 21
199.4914379999999
 31
0.0
  0
LINE
  5
E895
  8
MSM_CONTINUOUS
 10
46.975204000000083
 20
125.4914379999999
 30
0.0
 11
46.975204000000083
 21
124.9914379999999
 31
0.0
  0
LINE
  5
E896
  8
MSM_CONTINUOUS
 10
49.024797000000042
 20
125.4914379999999
 30
0.0
 11
49.024797000000042
 21
124.9914379999999
 31
0.0
  0
LINE
  5
E897
  8
MSM_CONTINUOUS
 10
52.700000000000038
 20
125.4914379999999
 30
0.0
 11
52.700000000000038
 21
124.9914379999999
 31
0.0
  0
LINE
  5
E898
  8
MSM_CONTINUOUS
 10
46.975204000000083
 20
199.4914379999999
 30
0.0
 11
46.975204000000083
 21
199.9914379999999
 31
0.0
  0
LINE
  5
E899
  8
MSM_CONTINUOUS
 10
49.024797000000042
 20
199.4914379999999
 30
0.0
 11
49.024797000000042
 21
199.9914379999999
 31
0.0
  0
LINE
  5
E89A
  8
MSM_CONTINUOUS
 10
52.700000000000038
 20
199.4914379999999
 30
0.0
 11
52.700000000000038
 21
199.9914379999999
 31
0.0
  0
LINE
  5
E89B
  8
MSM_CONTINUOUS
 10
51.5
 20
247.4914379999999
 30
0.0
 11
51.5
 21
272.4914379999999
 31
0.0
  0
LINE
  5
E89C
  8
MSM_CONTINUOUS
 10
51.458579000000093
 20
272.4914379999999
 30
0.0
 11
51.5
 21
272.59143799999998
 31
0.0
  0
LINE
  5
E89D
  8
MSM_CONTINUOUS
 10
29.5
 20
272.59143799999998
 30
0.0
 11
29.599999999999909
 21
272.4914379999999
 31
0.0
  0
LINE
  5
E89E
  8
MSM_CONTINUOUS
 10
51.5
 20
273.4914379999999
 30
0.0
 11
51.5
 21
272.59143799999998
 31
0.0
  0
LINE
  5
E89F
  8
MSM_CONTINUOUS
 10
29.5
 20
273.4914379999999
 30
0.0
 11
29.5
 21
272.59143799999998
 31
0.0
  0
LINE
  5
E8A0
  8
MSM_CONTINUOUS
 10
58.400000000000091
 20
272.4914379999999
 30
0.0
 11
58.5
 21
272.59143799999998
 31
0.0
  0
LINE
  5
E8A1
  8
MSM_CONTINUOUS
 10
58.5
 20
272.4914379999999
 30
0.0
 11
58.5
 21
251.9914379999999
 31
0.0
  0
LINE
  5
E8A2
  8
MSM_CONTINUOUS
 10
54.0
 20
247.4914379999999
 30
0.0
 11
58.5
 21
251.9914379999999
 31
0.0
  0
LINE
  5
E8A3
  8
MSM_CONTINUOUS
 10
58.5
 20
273.4914379999999
 30
0.0
 11
58.5
 21
272.59143799999998
 31
0.0
  0
LINE
  5
E8A4
  8
MSM_CONTINUOUS
 10
34.650000000000091
 20
273.7836860000001
 30
0.0
 11
30.349999999999909
 21
273.7836860000001
 31
0.0
  0
LINE
  5
E8A5
  8
MSM_CONTINUOUS
 10
52.650000000000091
 20
273.7836860000001
 30
0.0
 11
48.349999999999909
 21
273.7836860000001
 31
0.0
  0
LINE
  5
E8A6
  8
MSM_CONTINUOUS
 10
29.400000000000091
 20
272.4914379999999
 30
0.0
 11
28.5
 21
272.4914379999999
 31
0.0
  0
LINE
  5
E8A7
  8
MSM_CONTINUOUS
 10
29.400000000000091
 20
272.4914379999999
 30
0.0
 11
29.5
 21
272.39143799999999
 31
0.0
  0
LINE
  5
E8A8
  8
MSM_CONTINUOUS
 10
56.799999999999962
 20
296.99143800000007
 30
0.0
 11
56.799999999999962
 21
302.4914379999999
 31
0.0
  0
LINE
  5
E8A9
  8
MSM_CONTINUOUS
 10
31.200000000000038
 20
296.99143800000007
 30
0.0
 11
31.200000000000038
 21
302.4914379999999
 31
0.0
  0
LINE
  5
E8AA
  8
MSM_CONTINUOUS
 10
35.5
 20
304.4914379999999
 30
0.0
 11
35.5
 21
302.4914379999999
 31
0.0
  0
LINE
  5
E8AB
  8
MSM_CONTINUOUS
 10
52.5
 20
304.4914379999999
 30
0.0
 11
52.5
 21
302.4914379999999
 31
0.0
  0
LINE
  5
E8AC
  8
MSM_CONTINUOUS
 10
30.099999999999909
 20
279.4914379999999
 30
0.0
 11
30.099999999999909
 21
296.99143800000007
 31
0.0
  0
LINE
  5
E8AD
  8
MSM_CONTINUOUS
 10
31.24142200000006
 20
279.4914379999999
 30
0.0
 11
31.24142200000006
 21
296.99143800000007
 31
0.0
  0
LINE
  5
E8AE
  8
MSM_CONTINUOUS
 10
56.758579000000047
 20
279.4914379999999
 30
0.0
 11
56.758579000000047
 21
296.99143800000007
 31
0.0
  0
LINE
  5
E8AF
  8
MSM_CONTINUOUS
 10
57.900000000000091
 20
279.4914379999999
 30
0.0
 11
57.900000000000091
 21
296.99143800000007
 31
0.0
  0
LINE
  5
E8B0
  8
MSM_CONTINUOUS
 10
16.0
 20
218.4914379999999
 30
0.0
 11
16.0
 21
92.491438000000016
 31
0.0
  0
LINE
  5
E8B1
  8
MSM_CONTINUOUS
 10
0.0
 20
92.591437999999926
 30
0.0
 11
0.0999999999999091
 21
92.491438000000016
 31
0.0
  0
LINE
  5
E8B2
  8
MSM_CONTINUOUS
 10
0.0
 20
92.591437999999926
 30
0.0
 11
0.0
 21
202.4914379999999
 31
0.0
  0
LINE
  5
E8B3
  8
MSM_CONTINUOUS
 10
27.900000000000091
 20
92.491438000000016
 30
0.0
 11
27.900000000000091
 21
222.4914379999999
 31
0.0
  0
LINE
  5
E8B4
  8
MSM_CONTINUOUS
 10
60.0
 20
92.491438000000016
 30
0.0
 11
60.0
 21
82.491438000000016
 31
0.0
  0
LINE
  5
E8B5
  8
MSM_CONTINUOUS
 10
0.0
 20
92.491438000000016
 30
0.0
 11
0.0
 21
82.491438000000016
 31
0.0
  0
LINE
  5
E8B6
  8
MSM_CONTINUOUS
 10
15.799999999999949
 20
92.391437999999994
 30
0.0
 11
15.799999999999949
 21
92.491438000000016
 31
0.0
  0
LINE
  5
E8B7
  8
MSM_CONTINUOUS
 10
38.5
 20
92.391437999999994
 30
0.0
 11
15.799999999999949
 21
92.391437999999994
 31
0.0
  0
LINE
  5
E8B8
  8
MSM_CONTINUOUS
 10
38.5
 20
92.391437999999994
 30
0.0
 11
38.5
 21
92.491438000000016
 31
0.0
  0
LINE
  5
E8B9
  8
MSM_CONTINUOUS
 10
60.0
 20
82.491438000000016
 30
0.0
 11
0.0
 21
82.491438000000016
 31
0.0
  0
LINE
  5
E8BA
  8
MSM_CONTINUOUS
 10
28.5
 20
232.4914379999999
 30
0.0
 11
28.5
 21
272.4914379999999
 31
0.0
  0
LINE
  5
E8BB
  8
MSM_CONTINUOUS
 10
30.5
 20
272.4914379999999
 30
0.0
 11
30.5
 21
232.4914379999999
 31
0.0
  0
LINE
  5
E8BC
  8
MSM_CONTINUOUS
 10
51.0
 20
232.4914379999999
 30
0.0
 11
51.0
 21
247.4914379999999
 31
0.0
  0
LINE
  5
E8BD
  8
MSM_CONTINUOUS
 10
38.0
 20
92.491438000000016
 30
0.0
 11
38.0
 21
232.4914379999999
 31
0.0
  0
LINE
  5
E8BE
  8
MSM_CONTINUOUS
 10
44.5
 20
92.491438000000016
 30
0.0
 11
44.5
 21
232.4914379999999
 31
0.0
  0
LINE
  5
E8BF
  8
MSM_CONTINUOUS
 10
46.463719999999959
 20
92.491438000000016
 30
0.0
 11
46.463719999999959
 21
124.9914379999999
 31
0.0
  0
LINE
  5
E8C0
  8
MSM_CONTINUOUS
 10
46.463719999999959
 20
199.9914379999999
 30
0.0
 11
46.463719999999959
 21
232.4914379999999
 31
0.0
  0
LINE
  5
E8C1
  8
MSM_CONTINUOUS
 10
49.536280000000033
 20
232.4914379999999
 30
0.0
 11
49.536280000000033
 21
199.9914379999999
 31
0.0
  0
LINE
  5
E8C2
  8
MSM_CONTINUOUS
 10
49.536280000000033
 20
124.9914379999999
 30
0.0
 11
49.536280000000033
 21
92.491438000000016
 31
0.0
  0
LINE
  5
E8C3
  8
MSM_CONTINUOUS
 10
51.5
 20
92.491438000000016
 30
0.0
 11
51.5
 21
124.9914379999999
 31
0.0
  0
LINE
  5
E8C4
  8
MSM_CONTINUOUS
 10
51.5
 20
199.9914379999999
 30
0.0
 11
51.5
 21
232.4914379999999
 31
0.0
  0
LINE
  5
E8C5
  8
MSM_CONTINUOUS
 10
54.0
 20
247.4914379999999
 30
0.0
 11
54.0
 21
229.4914379999999
 31
0.0
  0
ARC
  5
E8C6
  8
MSM_CONTINUOUS
 10
32.5
 20
271.69143800000018
 30
0.0
 40
3.0
 50
44.220043999999177
 51
135.77995600000091
  0
LINE
  5
E8C7
  8
MSM_CONTINUOUS
 10
34.650000000000091
 20
273.4914379999999
 30
0.0
 11
34.650000000000091
 21
273.7836860000001
 31
0.0
  0
LINE
  5
E8C8
  8
MSM_CONTINUOUS
 10
30.349999999999909
 20
273.7836860000001
 30
0.0
 11
30.349999999999909
 21
273.4914379999999
 31
0.0
  0
ARC
  5
E8C9
  8
MSM_CONTINUOUS
 10
50.5
 20
271.69143800000018
 30
0.0
 40
3.0
 50
44.220043999999177
 51
135.77995600000079
  0
LINE
  5
E8CA
  8
MSM_CONTINUOUS
 10
52.650000000000091
 20
273.4914379999999
 30
0.0
 11
52.650000000000091
 21
273.7836860000001
 31
0.0
  0
LINE
  5
E8CB
  8
MSM_CONTINUOUS
 10
48.349999999999909
 20
273.7836860000001
 30
0.0
 11
48.349999999999909
 21
273.4914379999999
 31
0.0
  0
LINE
  5
E8CC
  8
MSM_CONTINUOUS
 10
35.0
 20
274.4914379999999
 30
0.0
 11
35.0
 21
273.4914379999999
 31
0.0
  0
LINE
  5
E8CD
  8
MSM_CONTINUOUS
 10
36.0
 20
279.99143800000007
 30
0.0
 11
36.0
 21
274.4914379999999
 31
0.0
  0
LINE
  5
E8CE
  8
MSM_CONTINUOUS
 10
48.0
 20
274.4914379999999
 30
0.0
 11
48.0
 21
279.99143800000007
 31
0.0
  0
LINE
  5
E8CF
  8
MSM_CONTINUOUS
 10
58.150000000000091
 20
273.4914379999999
 30
0.0
 11
58.150000000000091
 21
273.7836860000001
 31
0.0
  0
LINE
  5
E8D0
  8
MSM_CONTINUOUS
 10
53.849999999999902
 20
273.7836860000001
 30
0.0
 11
53.849999999999902
 21
273.4914379999999
 31
0.0
  0
LINE
  5
E8D1
  8
MSM_CONTINUOUS
 10
57.75
 20
302.4914379999999
 30
0.0
 11
57.663800000000037
 21
303.47671800000001
 31
0.0
  0
LINE
  5
E8D2
  8
MSM_CONTINUOUS
 10
53.336201000000081
 20
303.47671800000001
 30
0.0
 11
53.25
 21
302.4914379999999
 31
0.0
  0
LINE
  5
E8D3
  8
MSM_CONTINUOUS
 10
34.75
 20
302.4914379999999
 30
0.0
 11
34.663800000000037
 21
303.47671800000001
 31
0.0
  0
LINE
  5
E8D4
  8
MSM_CONTINUOUS
 10
30.33620100000007
 20
303.47671800000001
 30
0.0
 11
30.25
 21
302.4914379999999
 31
0.0
  0
ARC
  5
E8D5
  8
MSM_CONTINUOUS
 10
57.16570200000001
 20
303.43313999999998
 30
0.0
 40
0.5
 50
4.9999999999998126
 51
72.370845000007094
  0
ARC
  5
E8D6
  8
MSM_CONTINUOUS
 10
53.834299000000101
 20
303.43313999999998
 30
0.0
 40
0.5
 50
107.6291550000189
 51
175.00000000000011
  0
ARC
  5
E8D7
  8
MSM_CONTINUOUS
 10
34.16570200000001
 20
303.43313999999998
 30
0.0
 40
0.5
 50
4.9999999999998126
 51
72.370845000007094
  0
ARC
  5
E8D8
  8
MSM_CONTINUOUS
 10
30.834299000000101
 20
303.43313999999998
 30
0.0
 40
0.5
 50
107.6291550000189
 51
175.0000000000002
  0
ARC
  5
E8D9
  8
MSM_CONTINUOUS
 10
55.5
 20
298.19143800000001
 30
0.0
 40
6.0
 50
72.370844999998781
 51
107.62915500000091
  0
ARC
  5
E8DA
  8
MSM_CONTINUOUS
 10
32.5
 20
298.19143800000001
 30
0.0
 40
6.0
 50
72.370844999998781
 51
107.62915500000091
  0
LINE
  5
E8DB
  8
MSM_CONTINUOUS
 10
113.58278900000001
 20
70.0
 30
0.0
 11
103.08278900000001
 21
70.0
 31
0.0
  0
LINE
  5
E8DC
  8
MSM_CONTINUOUS
 10
113.58278900000001
 20
68.5
 30
0.0
 11
113.58278900000001
 21
70.0
 31
0.0
  0
LINE
  5
E8DD
  8
MSM_CONTINUOUS
 10
152.58278899999999
 20
68.5
 30
0.0
 11
113.58278900000001
 21
68.5
 31
0.0
  0
LINE
  5
E8DE
  8
MSM_CONTINUOUS
 10
152.58278899999999
 20
70.0
 30
0.0
 11
152.58278899999999
 21
68.5
 31
0.0
  0
LINE
  5
E8DF
  8
MSM_CONTINUOUS
 10
163.08278899999999
 20
70.0
 30
0.0
 11
152.58278899999999
 21
70.0
 31
0.0
  0
LINE
  5
E8E0
  8
MSM_CONTINUOUS
 10
103.08278900000001
 20
70.0
 30
0.0
 11
103.08278900000001
 21
10.0
 31
0.0
  0
CIRCLE
  5
E8E1
  8
MSM_CONTINUOUS
 10
150.08278899999999
 20
56.5
 30
0.0
 40
3.0
  0
CIRCLE
  5
E8E2
  8
MSM_CONTINUOUS
 10
150.08278899999999
 20
44.5
 30
0.0
 40
3.0
  0
CIRCLE
  5
E8E3
  8
MSM_CONTINUOUS
 10
116.08278900000001
 20
44.5
 30
0.0
 40
3.0
  0
CIRCLE
  5
E8E4
  8
MSM_CONTINUOUS
 10
116.08278900000001
 20
56.5
 30
0.0
 40
3.0
  0
CIRCLE
  5
E8E5
  8
MSM_CONTINUOUS
 10
108.08278900000001
 20
65.0
 30
0.0
 40
2.25
  0
CIRCLE
  5
E8E6
  8
MSM_CONTINUOUS
 10
158.08278899999999
 20
65.0
 30
0.0
 40
2.25
  0
CIRCLE
  5
E8E7
  8
MSM_CONTINUOUS
 10
158.08278899999999
 20
15.0
 30
0.0
 40
2.25
  0
CIRCLE
  5
E8E8
  8
MSM_CONTINUOUS
 10
108.08278900000001
 20
15.0
 30
0.0
 40
2.25
  0
LINE
  5
E8E9
  8
MSM_CONTINUOUS
 10
163.08278899999999
 20
10.0
 30
0.0
 11
163.08278899999999
 21
70.0
 31
0.0
  0
LINE
  5
E8EA
  8
MSM_CONTINUOUS
 10
149.36110099999991
 20
43.25
 30
0.0
 11
148.63941299999979
 21
44.5
 31
0.0
  0
LINE
  5
E8EB
  8
MSM_CONTINUOUS
 10
150.8044759999998
 20
43.25
 30
0.0
 11
149.36110099999991
 21
43.25
 31
0.0
  0
LINE
  5
E8EC
  8
MSM_CONTINUOUS
 10
150.8044759999998
 20
45.75
 30
0.0
 11
151.5261639999998
 21
44.5
 31
0.0
  0
LINE
  5
E8ED
  8
MSM_CONTINUOUS
 10
149.36110099999991
 20
45.75
 30
0.0
 11
150.8044759999998
 21
45.75
 31
0.0
  0
LINE
  5
E8EE
  8
MSM_CONTINUOUS
 10
148.63941299999979
 20
44.5
 30
0.0
 11
149.36110099999991
 21
45.75
 31
0.0
  0
CIRCLE
  5
E8EF
  8
MSM_CONTINUOUS
 10
150.08278899999999
 20
44.5
 30
0.0
 40
2.75
  0
LINE
  5
E8F0
  8
MSM_CONTINUOUS
 10
151.5261639999998
 20
44.5
 30
0.0
 11
150.8044759999998
 21
43.25
 31
0.0
  0
LINE
  5
E8F1
  8
MSM_CONTINUOUS
 10
149.36110099999991
 20
55.25
 30
0.0
 11
148.63941299999979
 21
56.5
 31
0.0
  0
LINE
  5
E8F2
  8
MSM_CONTINUOUS
 10
150.8044759999998
 20
55.25
 30
0.0
 11
149.36110099999991
 21
55.25
 31
0.0
  0
LINE
  5
E8F3
  8
MSM_CONTINUOUS
 10
150.8044759999998
 20
57.75
 30
0.0
 11
151.5261639999998
 21
56.5
 31
0.0
  0
LINE
  5
E8F4
  8
MSM_CONTINUOUS
 10
149.36110099999991
 20
57.75
 30
0.0
 11
150.8044759999998
 21
57.75
 31
0.0
  0
LINE
  5
E8F5
  8
MSM_CONTINUOUS
 10
148.63941299999979
 20
56.5
 30
0.0
 11
149.36110099999991
 21
57.75
 31
0.0
  0
CIRCLE
  5
E8F6
  8
MSM_CONTINUOUS
 10
150.08278899999999
 20
56.5
 30
0.0
 40
2.75
  0
LINE
  5
E8F7
  8
MSM_CONTINUOUS
 10
151.5261639999998
 20
56.5
 30
0.0
 11
150.8044759999998
 21
55.25
 31
0.0
  0
LINE
  5
E8F8
  8
MSM_CONTINUOUS
 10
115.36110099999991
 20
43.25
 30
0.0
 11
114.6394130000001
 21
44.5
 31
0.0
  0
LINE
  5
E8F9
  8
MSM_CONTINUOUS
 10
116.80447599999999
 20
43.25
 30
0.0
 11
115.36110099999991
 21
43.25
 31
0.0
  0
LINE
  5
E8FA
  8
MSM_CONTINUOUS
 10
116.80447599999999
 20
45.75
 30
0.0
 11
117.52616399999989
 21
44.5
 31
0.0
  0
LINE
  5
E8FB
  8
MSM_CONTINUOUS
 10
115.36110099999991
 20
45.75
 30
0.0
 11
116.80447599999999
 21
45.75
 31
0.0
  0
LINE
  5
E8FC
  8
MSM_CONTINUOUS
 10
114.6394130000001
 20
44.5
 30
0.0
 11
115.36110099999991
 21
45.75
 31
0.0
  0
CIRCLE
  5
E8FD
  8
MSM_CONTINUOUS
 10
116.08278900000001
 20
44.5
 30
0.0
 40
2.75
  0
LINE
  5
E8FE
  8
MSM_CONTINUOUS
 10
117.52616399999989
 20
44.5
 30
0.0
 11
116.80447599999999
 21
43.25
 31
0.0
  0
LINE
  5
E8FF
  8
MSM_CONTINUOUS
 10
115.36110099999991
 20
55.25
 30
0.0
 11
114.6394130000001
 21
56.5
 31
0.0
  0
LINE
  5
E900
  8
MSM_CONTINUOUS
 10
116.80447599999999
 20
55.25
 30
0.0
 11
115.36110099999991
 21
55.25
 31
0.0
  0
LINE
  5
E901
  8
MSM_CONTINUOUS
 10
116.80447599999999
 20
57.75
 30
0.0
 11
117.52616399999989
 21
56.5
 31
0.0
  0
LINE
  5
E902
  8
MSM_CONTINUOUS
 10
115.36110099999991
 20
57.75
 30
0.0
 11
116.80447599999999
 21
57.75
 31
0.0
  0
LINE
  5
E903
  8
MSM_CONTINUOUS
 10
114.6394130000001
 20
56.5
 30
0.0
 11
115.36110099999991
 21
57.75
 31
0.0
  0
CIRCLE
  5
E904
  8
MSM_CONTINUOUS
 10
116.08278900000001
 20
56.5
 30
0.0
 40
2.75
  0
LINE
  5
E905
  8
MSM_CONTINUOUS
 10
117.52616399999989
 20
56.5
 30
0.0
 11
116.80447599999999
 21
55.25
 31
0.0
  0
LINE
  5
E906
  8
MSM_CONTINUOUS
 10
330.9559720000002
 20
257.49143800000007
 30
0.0
 11
330.9559720000002
 21
247.4914379999999
 31
0.0
  0
LINE
  5
E907
  8
MSM_CONTINUOUS
 10
380.9559720000002
 20
273.4914379999999
 30
0.0
 11
380.9559720000002
 21
272.59143799999998
 31
0.0
  0
LINE
  5
E908
  8
MSM_CONTINUOUS
 10
364.4559720000002
 20
272.59143799999998
 30
0.0
 11
380.9559720000002
 21
272.59143799999998
 31
0.0
  0
LINE
  5
E909
  8
MSM_CONTINUOUS
 10
364.4559720000002
 20
273.4914379999999
 30
0.0
 11
364.4559720000002
 21
272.59143799999998
 31
0.0
  0
LINE
  5
E90A
  8
MSM_CONTINUOUS
 10
364.4559720000002
 20
273.4914379999999
 30
0.0
 11
380.9559720000002
 21
273.4914379999999
 31
0.0
  0
LINE
  5
E90B
  8
MSM_CONTINUOUS
 10
380.9559720000002
 20
272.59143799999998
 30
0.0
 11
380.85597199999978
 21
272.4914379999999
 31
0.0
  0
LINE
  5
E90C
  8
MSM_CONTINUOUS
 10
364.4559720000002
 20
272.59143799999998
 30
0.0
 11
364.55597200000011
 21
272.4914379999999
 31
0.0
  0
LINE
  5
E90D
  8
MSM_CONTINUOUS
 10
362.75597199999987
 20
296.99143800000007
 30
0.0
 11
362.75597199999987
 21
302.4914379999999
 31
0.0
  0
LINE
  5
E90E
  8
MSM_CONTINUOUS
 10
337.15597200000002
 20
296.99143800000007
 30
0.0
 11
337.15597200000002
 21
302.4914379999999
 31
0.0
  0
LINE
  5
E90F
  8
MSM_CONTINUOUS
 10
341.4559720000002
 20
304.4914379999999
 30
0.0
 11
341.4559720000002
 21
302.4914379999999
 31
0.0
  0
LINE
  5
E910
  8
MSM_CONTINUOUS
 10
358.4559720000002
 20
304.4914379999999
 30
0.0
 11
358.4559720000002
 21
302.4914379999999
 31
0.0
  0
LINE
  5
E911
  8
MSM_CONTINUOUS
 10
362.75597199999987
 20
272.4914379999999
 30
0.0
 11
362.75597199999987
 21
279.4914379999999
 31
0.0
  0
LINE
  5
E912
  8
MSM_CONTINUOUS
 10
337.15597200000002
 20
272.4914379999999
 30
0.0
 11
337.15597200000002
 21
279.4914379999999
 31
0.0
  0
LINE
  5
E913
  8
MSM_CONTINUOUS
 10
335.9559720000002
 20
272.59143799999998
 30
0.0
 11
336.05597200000011
 21
272.4914379999999
 31
0.0
  0
LINE
  5
E914
  8
MSM_CONTINUOUS
 10
335.9559720000002
 20
272.59143799999998
 30
0.0
 11
335.9559720000002
 21
279.4914379999999
 31
0.0
  0
LINE
  5
E915
  8
MSM_CONTINUOUS
 10
363.9559720000002
 20
272.4914379999999
 30
0.0
 11
363.9559720000002
 21
279.4914379999999
 31
0.0
  0
LINE
  5
E916
  8
MSM_CONTINUOUS
 10
337.19739299999992
 20
279.4914379999999
 30
0.0
 11
337.19739299999992
 21
296.99143800000007
 31
0.0
  0
LINE
  5
E917
  8
MSM_CONTINUOUS
 10
362.71455000000009
 20
279.4914379999999
 30
0.0
 11
362.71455000000009
 21
296.99143800000007
 31
0.0
  0
LINE
  5
E918
  8
MSM_CONTINUOUS
 10
336.05597200000011
 20
279.4914379999999
 30
0.0
 11
336.05597200000011
 21
296.99143800000007
 31
0.0
  0
LINE
  5
E919
  8
MSM_CONTINUOUS
 10
363.85597199999989
 20
279.4914379999999
 30
0.0
 11
363.85597199999989
 21
296.99143800000007
 31
0.0
  0
LINE
  5
E91A
  8
MSM_CONTINUOUS
 10
380.60597199999978
 20
273.7836860000001
 30
0.0
 11
376.30597200000011
 21
273.7836860000001
 31
0.0
  0
LINE
  5
E91B
  8
MSM_CONTINUOUS
 10
330.9559720000002
 20
296.99143800000007
 30
0.0
 11
330.9559720000002
 21
304.4914379999999
 31
0.0
  0
LINE
  5
E91C
  8
MSM_CONTINUOUS
 10
330.9559720000002
 20
304.4914379999999
 30
0.0
 11
335.4559720000002
 21
304.4914379999999
 31
0.0
  0
LINE
  5
E91D
  8
MSM_CONTINUOUS
 10
335.4559720000002
 20
304.19143800000001
 30
0.0
 11
335.4559720000002
 21
304.4914379999999
 31
0.0
  0
LINE
  5
E91E
  8
MSM_CONTINUOUS
 10
335.4559720000002
 20
304.19143800000001
 30
0.0
 11
335.9559720000002
 21
304.19143800000001
 31
0.0
  0
LINE
  5
E91F
  8
MSM_CONTINUOUS
 10
365.9559720000002
 20
279.99143800000007
 30
0.0
 11
377.9559720000002
 21
279.99143800000007
 31
0.0
  0
LINE
  5
E920
  8
MSM_CONTINUOUS
 10
335.9559720000002
 20
294.19143800000018
 30
0.0
 11
331.55597200000011
 21
294.19143800000018
 31
0.0
  0
LINE
  5
E921
  8
MSM_CONTINUOUS
 10
331.55597200000011
 20
296.99143800000007
 30
0.0
 11
331.55597200000011
 21
294.19143800000018
 31
0.0
  0
LINE
  5
E922
  8
MSM_CONTINUOUS
 10
343.9559720000002
 20
305.49143800000007
 30
0.0
 11
355.9559720000002
 21
305.49143800000007
 31
0.0
  0
LINE
  5
E923
  8
MSM_CONTINUOUS
 10
355.4559720000002
 20
304.99143800000007
 30
0.0
 11
344.4559720000002
 21
304.99143800000007
 31
0.0
  0
LINE
  5
E924
  8
MSM_CONTINUOUS
 10
344.4559720000002
 20
310.4914379999999
 30
0.0
 11
355.4559720000002
 21
310.4914379999999
 31
0.0
  0
LINE
  5
E925
  8
MSM_CONTINUOUS
 10
355.9559720000002
 20
309.9914379999999
 30
0.0
 11
343.9559720000002
 21
309.9914379999999
 31
0.0
  0
LINE
  5
E926
  8
MSM_CONTINUOUS
 10
335.40597200000002
 20
288.19143800000018
 30
0.0
 11
332.10597199999978
 21
288.19143800000018
 31
0.0
  0
LINE
  5
E927
  8
MSM_CONTINUOUS
 10
320.9559720000002
 20
222.4914379999999
 30
0.0
 11
380.9559720000002
 21
222.4914379999999
 31
0.0
  0
LINE
  5
E928
  8
MSM_CONTINUOUS
 10
380.9559720000002
 20
218.4914379999999
 30
0.0
 11
364.9559720000002
 21
202.4914379999999
 31
0.0
  0
LINE
  5
E929
  8
MSM_CONTINUOUS
 10
364.9559720000002
 20
202.4914379999999
 30
0.0
 11
336.9559720000002
 21
202.4914379999999
 31
0.0
  0
LINE
  5
E92A
  8
MSM_CONTINUOUS
 10
336.9559720000002
 20
202.4914379999999
 30
0.0
 11
320.9559720000002
 21
218.4914379999999
 31
0.0
  0
LINE
  5
E92B
  8
MSM_CONTINUOUS
 10
364.9559720000002
 20
92.591437999999926
 30
0.0
 11
364.9559720000002
 21
202.4914379999999
 31
0.0
  0
LINE
  5
E92C
  8
MSM_CONTINUOUS
 10
364.9559720000002
 20
92.591437999999926
 30
0.0
 11
336.9559720000002
 21
92.591437999999926
 31
0.0
  0
LINE
  5
E92D
  8
MSM_CONTINUOUS
 10
336.9559720000002
 20
202.4914379999999
 30
0.0
 11
336.9559720000002
 21
92.591437999999926
 31
0.0
  0
LINE
  5
E92E
  8
MSM_CONTINUOUS
 10
364.9559720000002
 20
92.591437999999926
 30
0.0
 11
365.05597200000011
 21
92.491438000000016
 31
0.0
  0
LINE
  5
E92F
  8
MSM_CONTINUOUS
 10
336.85597199999989
 20
92.491438000000016
 30
0.0
 11
336.9559720000002
 21
92.591437999999926
 31
0.0
  0
LINE
  5
E930
  8
MSM_CONTINUOUS
 10
380.9559720000002
 20
92.491438000000016
 30
0.0
 11
320.9559720000002
 21
92.491438000000016
 31
0.0
  0
LINE
  5
E931
  8
MSM_CONTINUOUS
 10
332.9559720000002
 20
222.4914379999999
 30
0.0
 11
332.9559720000002
 21
232.4914379999999
 31
0.0
  0
LINE
  5
E932
  8
MSM_CONTINUOUS
 10
368.9559720000002
 20
222.4914379999999
 30
0.0
 11
368.9559720000002
 21
232.4914379999999
 31
0.0
  0
LINE
  5
E933
  8
MSM_CONTINUOUS
 10
331.9559720000002
 20
247.4914379999999
 30
0.0
 11
331.9559720000002
 21
232.4914379999999
 31
0.0
  0
LINE
  5
E934
  8
MSM_CONTINUOUS
 10
378.9559720000002
 20
232.4914379999999
 30
0.0
 11
378.9559720000002
 21
247.4914379999999
 31
0.0
  0
LINE
  5
E935
  8
MSM_CONTINUOUS
 10
363.70597700000008
 20
302.4914379999999
 30
0.0
 11
363.619776
 21
303.47671800000001
 31
0.0
  0
LINE
  5
E936
  8
MSM_CONTINUOUS
 10
359.29217699999981
 20
303.47671800000001
 30
0.0
 11
359.20597700000008
 21
302.4914379999999
 31
0.0
  0
LINE
  5
E937
  8
MSM_CONTINUOUS
 10
340.70597700000008
 20
302.4914379999999
 30
0.0
 11
340.619776
 21
303.47671800000001
 31
0.0
  0
LINE
  5
E938
  8
MSM_CONTINUOUS
 10
336.29217699999981
 20
303.47671800000001
 30
0.0
 11
336.20597700000008
 21
302.4914379999999
 31
0.0
  0
ARC
  5
E939
  8
MSM_CONTINUOUS
 10
336.05875699999979
 20
266.92890999999997
 30
0.0
 40
2.733438999999998
 50
180.40746099999859
 51
267.84429500000527
  0
ARC
  5
E93A
  8
MSM_CONTINUOUS
 10
336.02867000000009
 20
266.86198499999989
 30
0.0
 40
5.9892810000000001
 50
174.6051199999996
 51
269.30434299999911
  0
ARC
  5
E93B
  8
MSM_CONTINUOUS
 10
363.12167799999997
 20
303.43313999999998
 30
0.0
 40
0.5
 50
5.0000000000000258
 51
72.37084499998106
  0
ARC
  5
E93C
  8
MSM_CONTINUOUS
 10
359.79027499999978
 20
303.43313999999998
 30
0.0
 40
0.5
 50
107.62915499996529
 51
175.0
  0
ARC
  5
E93D
  8
MSM_CONTINUOUS
 10
340.12167799999997
 20
303.43313999999998
 30
0.0
 40
0.5
 50
5.0000000000000258
 51
72.37084499998106
  0
ARC
  5
E93E
  8
MSM_CONTINUOUS
 10
336.79027499999978
 20
303.43313999999998
 30
0.0
 40
0.5
 50
107.62915499996529
 51
175.0
  0
LINE
  5
E93F
  8
MSM_CONTINUOUS
 10
380.60597199999978
 20
273.4914379999999
 30
0.0
 11
380.60597199999978
 21
273.7836860000001
 31
0.0
  0
LINE
  5
E940
  8
MSM_CONTINUOUS
 10
376.30597200000011
 20
273.7836860000001
 30
0.0
 11
376.30597200000011
 21
273.4914379999999
 31
0.0
  0
ARC
  5
E941
  8
MSM_CONTINUOUS
 10
378.4559720000002
 20
271.69143800000018
 30
0.0
 40
3.0
 50
44.220043999999
 51
135.7799560000102
  0
ARC
  5
E942
  8
MSM_CONTINUOUS
 10
361.45597700000008
 20
298.19143800000001
 30
0.0
 40
6.0
 50
72.370844999999093
 51
107.62915500000091
  0
ARC
  5
E943
  8
MSM_CONTINUOUS
 10
338.45597700000008
 20
298.19143800000001
 30
0.0
 40
6.0
 50
72.370844999999093
 51
107.62915500000091
  0
LINE
  5
E944
  8
MSM_CONTINUOUS
 10
331.71882199999982
 20
277.87380100000013
 30
0.0
 11
330.06591900000012
 21
267.42509400000012
 31
0.0
  0
LINE
  5
E945
  8
MSM_CONTINUOUS
 10
333.32538699999992
 20
266.909471
 30
0.0
 11
334.97829000000002
 21
277.35817900000001
 31
0.0
  0
LINE
  5
E946
  8
MSM_CONTINUOUS
 10
365.9559720000002
 20
279.99143800000007
 30
0.0
 11
365.9559720000002
 21
274.4914379999999
 31
0.0
  0
LINE
  5
E947
  8
MSM_CONTINUOUS
 10
343.9559720000002
 20
305.49143800000007
 30
0.0
 11
344.4559720000002
 21
304.99143800000007
 31
0.0
  0
LINE
  5
E948
  8
MSM_CONTINUOUS
 10
355.4559720000002
 20
304.99143800000007
 30
0.0
 11
355.9559720000002
 21
305.49143800000007
 31
0.0
  0
LINE
  5
E949
  8
MSM_CONTINUOUS
 10
355.9559720000002
 20
309.9914379999999
 30
0.0
 11
355.4559720000002
 21
310.4914379999999
 31
0.0
  0
LINE
  5
E94A
  8
MSM_CONTINUOUS
 10
344.4559720000002
 20
310.4914379999999
 30
0.0
 11
343.9559720000002
 21
309.9914379999999
 31
0.0
  0
LINE
  5
E94B
  8
MSM_CONTINUOUS
 10
343.9559720000002
 20
309.9914379999999
 30
0.0
 11
343.9559720000002
 21
305.49143800000007
 31
0.0
  0
LINE
  5
E94C
  8
MSM_CONTINUOUS
 10
355.9559720000002
 20
305.49143800000007
 30
0.0
 11
355.9559720000002
 21
309.9914379999999
 31
0.0
  0
ARC
  5
E94D
  8
MSM_CONTINUOUS
 10
304.61763400000018
 20
295.6053409999999
 30
0.0
 40
28.615444
 50
344.98407799999973
 51
357.16783500000031
  0
ARC
  5
E94E
  8
MSM_CONTINUOUS
 10
363.16654899999997
 20
295.64809000000002
 30
0.0
 40
28.889479000000001
 50
182.89016599999999
 51
194.9579210000002
  0
ARC
  5
E94F
  8
MSM_CONTINUOUS
 10
296.0515289999999
 20
283.14719099999991
 30
0.0
 40
39.354865000000011
 50
351.54122500000011
 51
0.2654760000000596
  0
ARC
  5
E950
  8
MSM_CONTINUOUS
 10
295.9656329999998
 20
283.15252199999992
 30
0.0
 40
36.140771999999998
 50
351.60133399999989
 51
0.28063400000005
  0
LINE
  5
E951
  8
MSM_CONTINUOUS
 10
347.4559720000002
 20
304.99143800000007
 30
0.0
 11
347.4559720000002
 21
304.4914379999999
 31
0.0
  0
LINE
  5
E952
  8
MSM_CONTINUOUS
 10
352.4559720000002
 20
304.4914379999999
 30
0.0
 11
352.4559720000002
 21
304.99143800000007
 31
0.0
  0
LINE
  5
E953
  8
MSM_CONTINUOUS
 10
332.10597199999978
 20
288.19143800000018
 30
0.0
 11
332.10597199999978
 21
283.32953800000013
 31
0.0
  0
LINE
  5
E954
  8
MSM_CONTINUOUS
 10
335.40597200000002
 20
283.32953800000013
 30
0.0
 11
335.40597200000002
 21
288.19143800000018
 31
0.0
  0
LINE
  5
E955
  8
MSM_CONTINUOUS
 10
31.200000000000038
 20
274.39513900000009
 30
0.0
 11
31.200000000000038
 21
279.4914379999999
 31
0.0
  0
LINE
  5
E956
  8
MSM_CONTINUOUS
 10
30.0
 20
273.4914379999999
 30
0.0
 11
30.0
 21
279.4914379999999
 31
0.0
  0
LINE
  5
E957
  8
MSM_CONTINUOUS
 10
56.799999999999962
 20
274.58280500000012
 30
0.0
 11
56.799999999999962
 21
279.4914379999999
 31
0.0
  0
LINE
  5
E958
  8
MSM_CONTINUOUS
 10
58.0
 20
273.92750599999988
 30
0.0
 11
58.0
 21
279.4914379999999
 31
0.0
  0
LINE
  5
E959
  8
MSM_CONTINUOUS
 10
54.0
 20
229.4914379999999
 30
0.0
 11
51.5
 21
229.4914379999999
 31
0.0
  0
LINE
  5
E95A
  8
MSM_CONTINUOUS
 10
53.849999999999902
 20
229.29143800000011
 30
0.0
 11
51.5
 21
229.29143800000011
 31
0.0
  0
LINE
  5
E95B
  8
MSM_CONTINUOUS
 10
52.220679000000018
 20
227.84143800000001
 30
0.0
 11
51.5
 21
227.84143800000001
 31
0.0
  0
LINE
  5
E95C
  8
MSM_CONTINUOUS
 10
49.0
 20
274.28951399999988
 30
0.0
 11
49.0
 21
274.4914379999999
 31
0.0
  0
LINE
  5
E95D
  8
MSM_CONTINUOUS
 10
53.849999999999902
 20
229.29143800000011
 30
0.0
 11
53.849999999999902
 21
229.4914379999999
 31
0.0
  0
ARC
  5
E95E
  8
MSM_CONTINUOUS
 10
51.0
 20
230.85348800000011
 30
0.0
 40
3.25
 50
292.06098599999677
 51
331.2733949999988
  0
LINE
  5
E95F
  8
MSM_CONTINUOUS
 10
118.1598220000001
 20
274.4914379999999
 30
0.0
 11
119.08278900000001
 21
274.4914379999999
 31
0.0
  0
LINE
  5
E960
  8
MSM_CONTINUOUS
 10
118.6356869999999
 20
199.9914379999999
 30
0.0
 11
118.6356869999999
 21
232.4914379999999
 31
0.0
  0
LINE
  5
E961
  8
MSM_CONTINUOUS
 10
112.28278900000009
 20
199.9914379999999
 30
0.0
 11
112.28278900000009
 21
232.4914379999999
 31
0.0
  0
LINE
  5
E962
  8
MSM_CONTINUOUS
 10
147.52989100000011
 20
199.9914379999999
 30
0.0
 11
147.52989100000011
 21
232.4914379999999
 31
0.0
  0
LINE
  5
E963
  8
MSM_CONTINUOUS
 10
153.8827890000002
 20
124.9914379999999
 30
0.0
 11
153.8827890000002
 21
92.491438000000016
 31
0.0
  0
LINE
  5
E964
  8
MSM_CONTINUOUS
 10
144.58278899999999
 20
124.9914379999999
 30
0.0
 11
144.58278899999999
 21
122.9914379999999
 31
0.0
  0
LINE
  5
E965
  8
MSM_CONTINUOUS
 10
136.7885599999999
 20
122.9914379999999
 30
0.0
 11
136.7885599999999
 21
124.9914379999999
 31
0.0
  0
LINE
  5
E966
  8
MSM_CONTINUOUS
 10
131.3770169999998
 20
124.9914379999999
 30
0.0
 11
131.3770169999998
 21
122.9914379999999
 31
0.0
  0
LINE
  5
E967
  8
MSM_CONTINUOUS
 10
123.58278900000001
 20
122.9914379999999
 30
0.0
 11
123.58278900000001
 21
124.9914379999999
 31
0.0
  0
LINE
  5
E968
  8
MSM_CONTINUOUS
 10
111.9827889999999
 20
199.9914379999999
 30
0.0
 11
111.9827889999999
 21
232.4914379999999
 31
0.0
  0
LINE
  5
E969
  8
MSM_CONTINUOUS
 10
154.1827889999999
 20
124.9914379999999
 30
0.0
 11
154.1827889999999
 21
92.491438000000016
 31
0.0
  0
LINE
  5
E96A
  8
MSM_CONTINUOUS
 10
145.08278899999999
 20
205.9914379999999
 30
0.0
 11
138.08278899999999
 21
205.9914379999999
 31
0.0
  0
LINE
  5
E96B
  8
MSM_CONTINUOUS
 10
138.08278899999999
 20
213.9914379999999
 30
0.0
 11
145.08278899999999
 21
213.9914379999999
 31
0.0
  0
ARC
  5
E96C
  8
MSM_CONTINUOUS
 10
118.58278900000001
 20
112.4914379999999
 30
0.0
 40
1.8999999999999999
 50
316.37481499999762
 51
43.625185000002389
  0
ARC
  5
E96D
  8
MSM_CONTINUOUS
 10
118.58278900000001
 20
215.9914379999999
 30
0.0
 40
1.8999999999999999
 50
316.37481499999762
 51
43.625185000002389
  0
LINE
  5
E96E
  8
MSM_CONTINUOUS
 10
129.28278899999981
 20
114.4914379999999
 30
0.0
 11
119.958139
 21
114.4914379999999
 31
0.0
  0
LINE
  5
E96F
  8
MSM_CONTINUOUS
 10
129.28278899999981
 20
217.9914379999999
 30
0.0
 11
119.958139
 21
217.9914379999999
 31
0.0
  0
LINE
  5
E970
  8
MSM_CONTINUOUS
 10
119.08278900000001
 20
273.92750599999988
 30
0.0
 11
119.08278900000001
 21
274.4914379999999
 31
0.0
  0
LINE
  5
E971
  8
MSM_CONTINUOUS
 10
106.08278900000001
 20
279.99143800000007
 30
0.0
 11
106.08278900000001
 21
274.64947799999987
 31
0.0
  0
LINE
  5
E972
  8
MSM_CONTINUOUS
 10
118.08278900000001
 20
274.5198650000001
 30
0.0
 11
118.08278900000001
 21
279.99143800000007
 31
0.0
  0
LINE
  5
E973
  8
MSM_CONTINUOUS
 10
153.37595400000009
 20
271.19827299999992
 30
0.0
 11
152.31993800000009
 21
277.87380100000013
 31
0.0
  0
LINE
  5
E974
  8
MSM_CONTINUOUS
 10
138.08278899999999
 20
199.9914379999999
 30
0.0
 11
138.08278899999999
 21
229.4914379999999
 31
0.0
  0
ARC
  5
E975
  8
MSM_CONTINUOUS
 10
234.3419530000001
 20
262.52859699999988
 30
0.0
 40
1.654809999999999
 50
213.83325199998819
 51
306.00927899998891
  0
LINE
  5
E976
  8
MSM_CONTINUOUS
 10
229.57515599999991
 20
272.4914379999999
 30
0.0
 11
236.8613620000001
 21
272.4914379999999
 31
0.0
  0
LINE
  5
E977
  8
MSM_CONTINUOUS
 10
225.5204490000001
 20
272.59143799999998
 30
0.0
 11
209.56136199999989
 21
272.59143799999998
 31
0.0
  0
LINE
  5
E978
  8
MSM_CONTINUOUS
 10
236.3613620000001
 20
273.4914379999999
 30
0.0
 11
236.8613620000001
 21
273.4914379999999
 31
0.0
  0
LINE
  5
E979
  8
MSM_CONTINUOUS
 10
236.3613620000001
 20
272.59143799999998
 30
0.0
 11
236.8613620000001
 21
272.59143799999998
 31
0.0
  0
LINE
  5
E97A
  8
MSM_CONTINUOUS
 10
208.3613620000001
 20
273.7836860000001
 30
0.0
 11
208.21136200000001
 21
273.7836860000001
 31
0.0
  0
LINE
  5
E97B
  8
MSM_CONTINUOUS
 10
219.89764199999991
 20
124.9914379999999
 30
0.0
 11
219.89764199999991
 21
92.491438000000016
 31
0.0
  0
LINE
  5
E97C
  8
MSM_CONTINUOUS
 10
216.8250819999999
 20
199.9914379999999
 30
0.0
 11
216.8250819999999
 21
232.4914379999999
 31
0.0
  0
LINE
  5
E97D
  8
MSM_CONTINUOUS
 10
214.8613620000001
 20
124.9914379999999
 30
0.0
 11
214.8613620000001
 21
92.491438000000016
 31
0.0
  0
LINE
  5
E97E
  8
MSM_CONTINUOUS
 10
214.8613620000001
 20
229.4914379999999
 30
0.0
 11
212.3613620000001
 21
229.4914379999999
 31
0.0
  0
LINE
  5
E97F
  8
MSM_CONTINUOUS
 10
214.8613620000001
 20
229.29143800000011
 30
0.0
 11
212.51136200000019
 21
229.29143800000011
 31
0.0
  0
LINE
  5
E980
  8
MSM_CONTINUOUS
 10
214.8613620000001
 20
227.84143800000001
 30
0.0
 11
214.14068399999999
 21
227.84143800000001
 31
0.0
  0
ARC
  5
E981
  8
MSM_CONTINUOUS
 10
210.3613620000001
 20
271.69143800000018
 30
0.0
 40
3.0
 50
131.81031500000751
 51
135.77995600000099
  0
LINE
  5
E982
  8
MSM_CONTINUOUS
 10
208.21136200000001
 20
273.7836860000001
 30
0.0
 11
208.21136200000001
 21
273.4914379999999
 31
0.0
  0
LINE
  5
E983
  8
MSM_CONTINUOUS
 10
212.51136200000019
 20
229.4914379999999
 30
0.0
 11
212.51136200000019
 21
229.29143800000011
 31
0.0
  0
ARC
  5
E984
  8
MSM_CONTINUOUS
 10
215.3613620000001
 20
230.85348800000011
 30
0.0
 40
3.25
 50
208.7266050000012
 51
247.93901400000351
  0
LINE
  5
E985
  8
MSM_CONTINUOUS
 10
155.28278899999981
 20
331.915389
 30
0.0
 11
154.08278899999999
 21
331.915389
 31
0.0
  0
LINE
  5
E986
  8
MSM_CONTINUOUS
 10
109.08278900000001
 20
327.11538899999988
 30
0.0
 11
103.28278900000009
 21
327.11538899999988
 31
0.0
  0
LINE
  5
E987
  8
MSM_CONTINUOUS
 10
103.28278900000009
 20
327.11538899999988
 30
0.0
 11
103.28278900000009
 21
332.915389
 31
0.0
  0
LINE
  5
E988
  8
MSM_CONTINUOUS
 10
152.58278899999999
 20
326.61538899999999
 30
0.0
 11
163.08278899999999
 21
326.61538899999999
 31
0.0
  0
LINE
  5
E989
  8
MSM_CONTINUOUS
 10
103.08278900000001
 20
326.61538899999999
 30
0.0
 11
109.58278900000001
 21
326.61538899999999
 31
0.0
  0
LINE
  5
E98A
  8
MSM_CONTINUOUS
 10
152.08278899999999
 20
326.11538899999988
 30
0.0
 11
152.08278899999999
 21
332.64509699999979
 31
0.0
  0
LINE
  5
E98B
  8
MSM_CONTINUOUS
 10
153.08278899999999
 20
340.61538899999982
 30
0.0
 11
154.08278899999999
 21
340.61538899999982
 31
0.0
  0
LINE
  5
E98C
  8
MSM_CONTINUOUS
 10
154.1827889999999
 20
340.11538899999982
 30
0.0
 11
154.08278899999999
 21
340.11538899999982
 31
0.0
  0
ARC
  5
E98D
  8
MSM_CONTINUOUS
 10
158.08278899999999
 20
329.61538899999988
 30
0.0
 40
4.0
 50
228.59037799999911
 51
311.40962200000092
  0
ARC
  5
E98E
  8
MSM_CONTINUOUS
 10
108.08278900000001
 20
329.61538899999988
 30
0.0
 40
4.0
 50
228.59037799999911
 51
299.62323999999842
  0
LINE
  5
E98F
  8
MSM_CONTINUOUS
 10
364.9559720000002
 20
274.4914379999999
 30
0.0
 11
377.37893900000017
 21
274.4914379999999
 31
0.0
  0
LINE
  5
E990
  8
MSM_CONTINUOUS
 10
330.66280599999982
 20
271.19827299999992
 30
0.0
 11
329.9559720000002
 21
270.4914379999999
 31
0.0
  0
LINE
  5
E991
  8
MSM_CONTINUOUS
 10
364.9559720000002
 20
273.7836860000001
 30
0.0
 11
364.80597200000011
 21
273.7836860000001
 31
0.0
  0
LINE
  5
E992
  8
MSM_CONTINUOUS
 10
364.9559720000002
 20
274.4914379999999
 30
0.0
 11
364.9559720000002
 21
273.4914379999999
 31
0.0
  0
LINE
  5
E993
  8
MSM_CONTINUOUS
 10
377.9559720000002
 20
274.64947799999987
 30
0.0
 11
377.9559720000002
 21
279.99143800000007
 31
0.0
  0
LINE
  5
E994
  8
MSM_CONTINUOUS
 10
364.80597200000011
 20
273.7836860000001
 30
0.0
 11
364.80597200000011
 21
273.4914379999999
 31
0.0
  0
ARC
  5
E995
  8
MSM_CONTINUOUS
 10
366.9559720000002
 20
271.69143800000018
 30
0.0
 40
3.0
 50
109.4712210000086
 51
111.0394700000042
  0
ARC
  5
E996
  8
MSM_CONTINUOUS
 10
366.9559720000002
 20
271.69143800000018
 30
0.0
 40
3.0
 50
131.81031500000751
 51
135.7799560000102
  0
LINE
  5
E997
  8
MSM_CENTER
 10
154.3827890000002
 20
15.0
 30
0.0
 11
161.78278899999981
 21
15.0
 31
0.0
  0
LINE
  5
E998
  8
MSM_CENTER
 10
158.08278899999999
 20
11.299999999999949
 30
0.0
 11
158.08278899999999
 21
18.699999999999928
 31
0.0
  0
LINE
  5
E999
  8
MSM_CENTER
 10
104.382789
 20
15.0
 30
0.0
 11
111.78278900000009
 21
15.0
 31
0.0
  0
LINE
  5
E99A
  8
MSM_CENTER
 10
108.08278900000001
 20
11.299999999999949
 30
0.0
 11
108.08278900000001
 21
18.699999999999928
 31
0.0
  0
LINE
  5
E99B
  8
MSM_CENTER
 10
104.382789
 20
65.0
 30
0.0
 11
111.78278900000009
 21
65.0
 31
0.0
  0
LINE
  5
E99C
  8
MSM_CENTER
 10
108.08278900000001
 20
61.299999999999947
 30
0.0
 11
108.08278900000001
 21
68.699999999999932
 31
0.0
  0
LINE
  5
E99D
  8
MSM_CENTER
 10
154.3827890000002
 20
65.0
 30
0.0
 11
161.78278899999981
 21
65.0
 31
0.0
  0
LINE
  5
E99E
  8
MSM_CENTER
 10
158.08278899999999
 20
61.299999999999947
 30
0.0
 11
158.08278899999999
 21
68.699999999999932
 31
0.0
  0
LINE
  5
E99F
  8
MSM_CENTER
 10
102.28278900000009
 20
379.61538899999982
 30
0.0
 11
113.882789
 21
379.61538899999982
 31
0.0
  0
LINE
  5
E9A0
  8
MSM_CENTER
 10
108.08278900000001
 20
373.8153890000001
 30
0.0
 11
108.08278900000001
 21
385.415389
 31
0.0
  0
LINE
  5
E9A1
  8
MSM_CENTER
 10
152.28278899999981
 20
379.61538899999982
 30
0.0
 11
163.8827890000002
 21
379.61538899999982
 31
0.0
  0
LINE
  5
E9A2
  8
MSM_CENTER
 10
158.08278899999999
 20
373.8153890000001
 30
0.0
 11
158.08278899999999
 21
385.415389
 31
0.0
  0
LINE
  5
E9A3
  8
MSM_CENTER
 10
349.9559720000002
 20
304.04143800000008
 30
0.0
 11
349.9559720000002
 21
311.44143799999989
 31
0.0
  0
LINE
  5
E9A4
  8
MSM_CENTER
 10
222.3613620000001
 20
304.04143800000008
 30
0.0
 11
222.3613620000001
 21
311.44143799999989
 31
0.0
  0
LINE
  5
E9A5
  8
MSM_CENTER
 10
134.08278899999999
 20
304.04143800000008
 30
0.0
 11
134.08278899999999
 21
311.44143799999989
 31
0.0
  0
LINE
  5
E9A6
  8
MSM_CENTER
 10
44.0
 20
304.04143800000008
 30
0.0
 11
44.0
 21
311.44143799999989
 31
0.0
  0
LINE
  5
E9A7
  8
MSM_NARROW
 10
129.08278899999999
 20
309.9914379999999
 30
0.0
 11
129.08278899999999
 21
305.49143800000007
 31
0.0
  0
LINE
  5
E9A8
  8
MSM_NARROW
 10
130.08278899999999
 20
309.9914379999999
 30
0.0
 11
130.08278899999999
 21
305.49143800000007
 31
0.0
  0
LINE
  5
E9A9
  8
MSM_NARROW
 10
131.08278899999999
 20
309.9914379999999
 30
0.0
 11
131.08278899999999
 21
306.99143800000007
 31
0.0
  0
LINE
  5
E9AA
  8
MSM_NARROW
 10
132.08278899999999
 20
309.9914379999999
 30
0.0
 11
132.08278899999999
 21
308.4914379999999
 31
0.0
  0
LINE
  5
E9AB
  8
MSM_NARROW
 10
49.0
 20
305.49143800000007
 30
0.0
 11
49.0
 21
309.9914379999999
 31
0.0
  0
LINE
  5
E9AC
  8
MSM_NARROW
 10
48.0
 20
305.49143800000007
 30
0.0
 11
48.0
 21
309.9914379999999
 31
0.0
  0
LINE
  5
E9AD
  8
MSM_NARROW
 10
47.0
 20
306.99143800000007
 30
0.0
 11
47.0
 21
309.9914379999999
 31
0.0
  0
LINE
  5
E9AE
  8
MSM_NARROW
 10
46.0
 20
308.4914379999999
 30
0.0
 11
46.0
 21
309.9914379999999
 31
0.0
  0
LINE
  5
E9AF
  8
MSM_NARROW
 10
217.3613620000001
 20
309.9914379999999
 30
0.0
 11
217.3613620000001
 21
305.49143800000007
 31
0.0
  0
LINE
  5
E9B0
  8
MSM_NARROW
 10
218.3613620000001
 20
309.9914379999999
 30
0.0
 11
218.3613620000001
 21
305.49143800000007
 31
0.0
  0
LINE
  5
E9B1
  8
MSM_NARROW
 10
219.3613620000001
 20
309.9914379999999
 30
0.0
 11
219.3613620000001
 21
306.99143800000007
 31
0.0
  0
LINE
  5
E9B2
  8
MSM_NARROW
 10
220.3613620000001
 20
309.9914379999999
 30
0.0
 11
220.3613620000001
 21
308.4914379999999
 31
0.0
  0
LINE
  5
E9B3
  8
MSM_NARROW
 10
354.9559720000002
 20
305.49143800000007
 30
0.0
 11
354.9559720000002
 21
309.9914379999999
 31
0.0
  0
LINE
  5
E9B4
  8
MSM_NARROW
 10
353.9559720000002
 20
305.49143800000007
 30
0.0
 11
353.9559720000002
 21
309.9914379999999
 31
0.0
  0
LINE
  5
E9B5
  8
MSM_NARROW
 10
352.9559720000002
 20
306.99143800000007
 30
0.0
 11
352.9559720000002
 21
309.9914379999999
 31
0.0
  0
LINE
  5
E9B6
  8
MSM_NARROW
 10
351.9559720000002
 20
308.4914379999999
 30
0.0
 11
351.9559720000002
 21
309.9914379999999
 31
0.0
  0
LINE
  5
E9B7
  8
MSM_CENTER
 10
125.882789
 20
340.61538899999982
 30
0.0
 11
142.28278899999981
 21
340.61538899999982
 31
0.0
  0
LINE
  5
E9B8
  8
MSM_CENTER
 10
134.08278899999999
 20
332.415389
 30
0.0
 11
134.08278899999999
 21
348.8153890000001
 31
0.0
  0
LINE
  5
E9B9
  8
MSM_CONTINUOUS
 10
334.20841000000019
 20
272.4914379999999
 30
0.0
 11
380.9559720000002
 21
272.4914379999999
 31
0.0
  0
LINE
  5
E9BA
  8
MSM_CONTINUOUS
 10
380.9559720000002
 20
247.4914379999999
 30
0.0
 11
329.9559720000002
 21
247.4914379999999
 31
0.0
  0
LINE
  5
E9BB
  8
MSM_CONTINUOUS
 10
212.3613620000001
 20
247.4914379999999
 30
0.0
 11
237.8613620000001
 21
247.4914379999999
 31
0.0
  0
LINE
  5
E9BC
  8
MSM_CONTINUOUS
 10
224.91907399999991
 20
279.4914379999999
 30
0.0
 11
236.3613620000001
 21
279.4914379999999
 31
0.0
  0
LINE
  5
E9BD
  8
MSM_CONTINUOUS
 10
130.08278899999999
 20
229.4914379999999
 30
0.0
 11
130.08278899999999
 21
199.9914379999999
 31
0.0
  0
LINE
  5
E9BE
  8
MSM_CONTINUOUS
 10
138.08278899999999
 20
226.4914379999999
 30
0.0
 11
142.58278899999999
 21
226.4914379999999
 31
0.0
  0
LINE
  5
E9BF
  8
MSM_CONTINUOUS
 10
129.28278899999981
 20
213.4914379999999
 30
0.0
 11
119.958139
 21
213.4914379999999
 31
0.0
  0
LINE
  5
E9C0
  8
MSM_CONTINUOUS
 10
119.958139
 20
207.4914379999999
 30
0.0
 11
129.28278899999981
 21
207.4914379999999
 31
0.0
  0
LINE
  5
E9C1
  8
MSM_CONTINUOUS
 10
119.958139
 20
103.991438
 30
0.0
 11
129.28278899999981
 21
103.991438
 31
0.0
  0
LINE
  5
E9C2
  8
MSM_CONTINUOUS
 10
129.28278899999981
 20
109.9914379999999
 30
0.0
 11
119.958139
 21
109.9914379999999
 31
0.0
  0
LINE
  5
E9C3
  8
MSM_CONTINUOUS
 10
103.08278900000001
 20
247.4914379999999
 30
0.0
 11
154.08278899999999
 21
247.4914379999999
 31
0.0
  0
LINE
  5
E9C4
  8
MSM_CONTINUOUS
 10
28.5
 20
247.4914379999999
 30
0.0
 11
54.0
 21
247.4914379999999
 31
0.0
  0
LINE
  5
E9C5
  8
MSM_CONTINUOUS
 10
48.0
 20
279.4914379999999
 30
0.0
 11
58.0
 21
279.4914379999999
 31
0.0
  0
LINE
  5
E9C6
  8
MSM_CONTINUOUS
 10
320.9559720000002
 20
232.4914379999999
 30
0.0
 11
380.9559720000002
 21
232.4914379999999
 31
0.0
  0
LINE
  5
E9C7
  8
MSM_CONTINUOUS
 10
380.9559720000002
 20
82.491438000000016
 30
0.0
 11
380.9559720000002
 21
272.4914379999999
 31
0.0
  0
LINE
  5
E9C8
  8
MSM_CONTINUOUS
 10
320.9559720000002
 20
82.491438000000016
 30
0.0
 11
320.9559720000002
 21
232.4914379999999
 31
0.0
  0
LINE
  5
E9C9
  8
MSM_CONTINUOUS
 10
329.9559720000002
 20
270.4914379999999
 30
0.0
 11
329.9559720000002
 21
232.4914379999999
 31
0.0
  0
LINE
  5
E9CA
  8
MSM_CONTINUOUS
 10
335.9559720000002
 20
304.4914379999999
 30
0.0
 11
335.9559720000002
 21
294.19143800000018
 31
0.0
  0
LINE
  5
E9CB
  8
MSM_CONTINUOUS
 10
330.9559720000002
 20
296.99143800000007
 30
0.0
 11
363.9559720000002
 21
296.99143800000007
 31
0.0
  0
LINE
  5
E9CC
  8
MSM_CONTINUOUS
 10
335.9559720000002
 20
304.4914379999999
 30
0.0
 11
363.9559720000002
 21
304.4914379999999
 31
0.0
  0
LINE
  5
E9CD
  8
MSM_CONTINUOUS
 10
363.9559720000002
 20
304.4914379999999
 30
0.0
 11
363.9559720000002
 21
296.99143800000007
 31
0.0
  0
LINE
  5
E9CE
  8
MSM_CONTINUOUS
 10
335.9559720000002
 20
279.4914379999999
 30
0.0
 11
363.9559720000002
 21
279.4914379999999
 31
0.0
  0
LINE
  5
E9CF
  8
MSM_CONTINUOUS
 10
335.9559720000002
 20
302.4914379999999
 30
0.0
 11
341.4559720000002
 21
302.4914379999999
 31
0.0
  0
LINE
  5
E9D0
  8
MSM_CONTINUOUS
 10
358.4559720000002
 20
302.4914379999999
 30
0.0
 11
363.9559720000002
 21
302.4914379999999
 31
0.0
  0
LINE
  5
E9D1
  8
MSM_CONTINUOUS
 10
329.9559720000002
 20
257.49143800000007
 30
0.0
 11
335.9559720000002
 21
257.49143800000007
 31
0.0
  0
LINE
  5
E9D2
  8
MSM_CONTINUOUS
 10
335.9559720000002
 20
247.4914379999999
 30
0.0
 11
335.9559720000002
 21
272.4914379999999
 31
0.0
  0
LINE
  5
E9D3
  8
MSM_CONTINUOUS
 10
379.9559720000002
 20
272.4914379999999
 30
0.0
 11
379.9559720000002
 21
247.4914379999999
 31
0.0
  0
LINE
  5
E9D4
  8
MSM_CONTINUOUS
 10
54.0
 20
232.4914379999999
 30
0.0
 11
28.0
 21
232.4914379999999
 31
0.0
  0
LINE
  5
E9D5
  8
MSM_CONTINUOUS
 10
28.0
 20
92.491438000000016
 30
0.0
 11
28.0
 21
232.4914379999999
 31
0.0
  0
LINE
  5
E9D6
  8
MSM_CONTINUOUS
 10
0.0
 20
92.491438000000016
 30
0.0
 11
60.0
 21
92.491438000000016
 31
0.0
  0
LINE
  5
E9D7
  8
MSM_CONTINUOUS
 10
20.0
 20
222.4914379999999
 30
0.0
 11
28.0
 21
222.4914379999999
 31
0.0
  0
LINE
  5
E9D8
  8
MSM_CONTINUOUS
 10
20.0
 20
222.4914379999999
 30
0.0
 11
0.0
 21
202.4914379999999
 31
0.0
  0
LINE
  5
E9D9
  8
MSM_CONTINUOUS
 10
50.0
 20
309.9914379999999
 30
0.0
 11
38.0
 21
309.9914379999999
 31
0.0
  0
LINE
  5
E9DA
  8
MSM_CONTINUOUS
 10
38.5
 20
310.4914379999999
 30
0.0
 11
49.5
 21
310.4914379999999
 31
0.0
  0
LINE
  5
E9DB
  8
MSM_CONTINUOUS
 10
49.5
 20
304.99143800000007
 30
0.0
 11
38.5
 21
304.99143800000007
 31
0.0
  0
LINE
  5
E9DC
  8
MSM_CONTINUOUS
 10
38.0
 20
305.49143800000007
 30
0.0
 11
50.0
 21
305.49143800000007
 31
0.0
  0
LINE
  5
E9DD
  8
MSM_CONTINUOUS
 10
30.0
 20
304.4914379999999
 30
0.0
 11
58.0
 21
304.4914379999999
 31
0.0
  0
LINE
  5
E9DE
  8
MSM_CONTINUOUS
 10
30.0
 20
304.4914379999999
 30
0.0
 11
30.0
 21
296.99143800000007
 31
0.0
  0
LINE
  5
E9DF
  8
MSM_CONTINUOUS
 10
58.0
 20
304.4914379999999
 30
0.0
 11
58.0
 21
296.99143800000007
 31
0.0
  0
LINE
  5
E9E0
  8
MSM_CONTINUOUS
 10
30.0
 20
279.4914379999999
 30
0.0
 11
36.0
 21
279.4914379999999
 31
0.0
  0
LINE
  5
E9E1
  8
MSM_CONTINUOUS
 10
30.0
 20
296.99143800000007
 30
0.0
 11
58.0
 21
296.99143800000007
 31
0.0
  0
LINE
  5
E9E2
  8
MSM_CONTINUOUS
 10
30.0
 20
302.4914379999999
 30
0.0
 11
35.5
 21
302.4914379999999
 31
0.0
  0
LINE
  5
E9E3
  8
MSM_CONTINUOUS
 10
52.5
 20
302.4914379999999
 30
0.0
 11
58.0
 21
302.4914379999999
 31
0.0
  0
LINE
  5
E9E4
  8
MSM_CONTINUOUS
 10
36.0
 20
279.99143800000007
 30
0.0
 11
48.0
 21
279.99143800000007
 31
0.0
  0
LINE
  5
E9E5
  8
MSM_CONTINUOUS
 10
35.0
 20
274.4914379999999
 30
0.0
 11
49.0
 21
274.4914379999999
 31
0.0
  0
LINE
  5
E9E6
  8
MSM_CONTINUOUS
 10
29.5
 20
273.4914379999999
 30
0.0
 11
58.5
 21
273.4914379999999
 31
0.0
  0
LINE
  5
E9E7
  8
MSM_CONTINUOUS
 10
58.5
 20
272.4914379999999
 30
0.0
 11
29.5
 21
272.4914379999999
 31
0.0
  0
LINE
  5
E9E8
  8
MSM_CONTINUOUS
 10
29.5
 20
272.59143799999998
 30
0.0
 11
58.5
 21
272.59143799999998
 31
0.0
  0
LINE
  5
E9E9
  8
MSM_CONTINUOUS
 10
29.5
 20
272.4914379999999
 30
0.0
 11
29.5
 21
247.4914379999999
 31
0.0
  0
LINE
  5
E9EA
  8
MSM_CONTINUOUS
 10
45.099999999999902
 20
199.9914379999999
 30
0.0
 11
52.700000000000038
 21
199.9914379999999
 31
0.0
  0
LINE
  5
E9EB
  8
MSM_CONTINUOUS
 10
52.700000000000038
 20
124.9914379999999
 30
0.0
 11
45.099999999999902
 21
124.9914379999999
 31
0.0
  0
LINE
  5
E9EC
  8
MSM_CONTINUOUS
 10
45.099999999999902
 20
192.4914379999999
 30
0.0
 11
45.099999999999902
 21
199.9914379999999
 31
0.0
  0
LINE
  5
E9ED
  8
MSM_CONTINUOUS
 10
45.099999999999902
 20
132.4914379999999
 30
0.0
 11
45.099999999999902
 21
124.9914379999999
 31
0.0
  0
LINE
  5
E9EE
  8
MSM_CONTINUOUS
 10
163.08278899999999
 20
324.61538899999988
 30
0.0
 11
163.08278899999999
 21
384.61538899999982
 31
0.0
  0
LINE
  5
E9EF
  8
MSM_CONTINUOUS
 10
103.08278900000001
 20
324.61538899999988
 30
0.0
 11
103.08278900000001
 21
384.61538899999982
 31
0.0
  0
LINE
  5
E9F0
  8
MSM_CONTINUOUS
 10
103.08278900000001
 20
384.61538899999982
 30
0.0
 11
163.08278899999999
 21
384.61538899999982
 31
0.0
  0
LINE
  5
E9F1
  8
MSM_CONTINUOUS
 10
154.58278899999999
 20
343.11538899999982
 30
0.0
 11
161.58278899999999
 21
343.11538899999982
 31
0.0
  0
LINE
  5
E9F2
  8
MSM_CONTINUOUS
 10
103.08278900000001
 20
356.61538899999982
 30
0.0
 11
163.08278899999999
 21
356.61538899999982
 31
0.0
  0
LINE
  5
E9F3
  8
MSM_CONTINUOUS
 10
154.08278899999999
 20
354.11538899999982
 30
0.0
 11
152.08278899999999
 21
356.11538899999982
 31
0.0
  0
LINE
  5
E9F4
  8
MSM_CONTINUOUS
 10
104.08278900000001
 20
356.11538899999982
 30
0.0
 11
152.08278899999999
 21
356.11538899999982
 31
0.0
  0
LINE
  5
E9F5
  8
MSM_CONTINUOUS
 10
153.08278899999999
 20
355.11538899999982
 30
0.0
 11
103.08278900000001
 21
355.11538899999982
 31
0.0
  0
LINE
  5
E9F6
  8
MSM_CONTINUOUS
 10
154.08278899999999
 20
328.11538899999988
 30
0.0
 11
154.08278899999999
 21
354.11538899999982
 31
0.0
  0
LINE
  5
E9F7
  8
MSM_CONTINUOUS
 10
104.08278900000001
 20
356.11538899999982
 30
0.0
 11
104.08278900000001
 21
355.11538899999982
 31
0.0
  0
LINE
  5
E9F8
  8
MSM_CONTINUOUS
 10
152.58278899999999
 20
326.11538899999988
 30
0.0
 11
110.08278900000001
 21
326.11538899999988
 31
0.0
  0
LINE
  5
E9F9
  8
MSM_CONTINUOUS
 10
148.08278899999999
 20
327.81538899999998
 30
0.0
 11
148.08278899999999
 21
355.11538899999982
 31
0.0
  0
LINE
  5
E9FA
  8
MSM_CONTINUOUS
 10
120.08278900000001
 20
353.415389
 30
0.0
 11
120.08278900000001
 21
327.81538899999998
 31
0.0
  0
LINE
  5
E9FB
  8
MSM_CONTINUOUS
 10
146.8827890000002
 20
354.61538899999982
 30
0.0
 11
121.28278900000009
 21
354.61538899999982
 31
0.0
  0
LINE
  5
E9FC
  8
MSM_CONTINUOUS
 10
153.08278899999999
 20
348.51575900000012
 30
0.0
 11
148.08278899999999
 21
348.86538899999982
 31
0.0
  0
LINE
  5
E9FD
  8
MSM_CONTINUOUS
 10
154.08278899999999
 20
339.51538899999991
 30
0.0
 11
162.8827890000002
 21
339.51538899999991
 31
0.0
  0
LINE
  5
E9FE
  8
MSM_CONTINUOUS
 10
235.69964100000021
 20
263.45782300000008
 30
0.0
 11
225.47314800000001
 21
278.541901
 31
0.0
  0
LINE
  5
E9FF
  8
MSM_CONTINUOUS
 10
222.74171000000021
 20
276.6900789999998
 30
0.0
 11
232.9682029999999
 21
261.60600099999999
 31
0.0
  0
LINE
  5
EA00
  8
MSM_CONTINUOUS
 10
238.3613620000001
 20
232.4914379999999
 30
0.0
 11
212.3613620000001
 21
232.4914379999999
 31
0.0
  0
LINE
  5
EA01
  8
MSM_CONTINUOUS
 10
206.3613620000001
 20
92.491438000000016
 30
0.0
 11
266.3613620000001
 21
92.491438000000016
 31
0.0
  0
LINE
  5
EA02
  8
MSM_CONTINUOUS
 10
238.3613620000001
 20
222.4914379999999
 30
0.0
 11
246.3613620000001
 21
222.4914379999999
 31
0.0
  0
LINE
  5
EA03
  8
MSM_CONTINUOUS
 10
238.3613620000001
 20
92.491438000000016
 30
0.0
 11
238.3613620000001
 21
232.4914379999999
 31
0.0
  0
LINE
  5
EA04
  8
MSM_CONTINUOUS
 10
266.3613620000001
 20
202.4914379999999
 30
0.0
 11
246.3613620000001
 21
222.4914379999999
 31
0.0
  0
LINE
  5
EA05
  8
MSM_CONTINUOUS
 10
208.3613620000001
 20
304.4914379999999
 30
0.0
 11
236.3613620000001
 21
304.4914379999999
 31
0.0
  0
LINE
  5
EA06
  8
MSM_CONTINUOUS
 10
208.3613620000001
 20
304.4914379999999
 30
0.0
 11
208.3613620000001
 21
296.99143800000007
 31
0.0
  0
LINE
  5
EA07
  8
MSM_CONTINUOUS
 10
236.3613620000001
 20
304.4914379999999
 30
0.0
 11
236.3613620000001
 21
296.99143800000007
 31
0.0
  0
LINE
  5
EA08
  8
MSM_CONTINUOUS
 10
208.3613620000001
 20
296.99143800000007
 30
0.0
 11
236.3613620000001
 21
296.99143800000007
 31
0.0
  0
LINE
  5
EA09
  8
MSM_CONTINUOUS
 10
208.3613620000001
 20
302.4914379999999
 30
0.0
 11
213.8613620000001
 21
302.4914379999999
 31
0.0
  0
LINE
  5
EA0A
  8
MSM_CONTINUOUS
 10
230.8613620000001
 20
302.4914379999999
 30
0.0
 11
236.3613620000001
 21
302.4914379999999
 31
0.0
  0
LINE
  5
EA0B
  8
MSM_CONTINUOUS
 10
208.3613620000001
 20
279.4914379999999
 30
0.0
 11
221.35002500000019
 21
279.4914379999999
 31
0.0
  0
LINE
  5
EA0C
  8
MSM_CONTINUOUS
 10
236.8613620000001
 20
247.4914379999999
 30
0.0
 11
236.8613620000001
 21
272.4914379999999
 31
0.0
  0
LINE
  5
EA0D
  8
MSM_CONTINUOUS
 10
207.8613620000001
 20
272.4914379999999
 30
0.0
 11
225.58824499999989
 21
272.4914379999999
 31
0.0
  0
LINE
  5
EA0E
  8
MSM_CONTINUOUS
 10
224.01136200000019
 20
288.19143800000018
 30
0.0
 11
220.71136200000001
 21
288.19143800000018
 31
0.0
  0
LINE
  5
EA0F
  8
MSM_CONTINUOUS
 10
222.3613620000001
 20
257.49143800000007
 30
0.0
 11
236.8613620000001
 21
257.49143800000007
 31
0.0
  0
LINE
  5
EA10
  8
MSM_CONTINUOUS
 10
207.8613620000001
 20
251.9914379999999
 30
0.0
 11
212.3613620000001
 21
247.4914379999999
 31
0.0
  0
LINE
  5
EA11
  8
MSM_CONTINUOUS
 10
222.3613620000001
 20
272.4914379999999
 30
0.0
 11
222.3613620000001
 21
257.49143800000007
 31
0.0
  0
LINE
  5
EA12
  8
MSM_CONTINUOUS
 10
221.26136200000019
 20
124.9914379999999
 30
0.0
 11
213.6613619999998
 21
124.9914379999999
 31
0.0
  0
LINE
  5
EA13
  8
MSM_CONTINUOUS
 10
213.6613619999998
 20
199.9914379999999
 30
0.0
 11
221.26136200000019
 21
199.9914379999999
 31
0.0
  0
LINE
  5
EA14
  8
MSM_CONTINUOUS
 10
221.26136200000019
 20
132.4914379999999
 30
0.0
 11
221.26136200000019
 21
124.9914379999999
 31
0.0
  0
LINE
  5
EA15
  8
MSM_CONTINUOUS
 10
221.26136200000019
 20
192.4914379999999
 30
0.0
 11
221.26136200000019
 21
199.9914379999999
 31
0.0
  0
LINE
  5
EA16
  8
MSM_CONTINUOUS
 10
129.28278899999981
 20
207.4914379999999
 30
0.0
 11
129.28278899999981
 21
217.9914379999999
 31
0.0
  0
LINE
  5
EA17
  8
MSM_CONTINUOUS
 10
119.958139
 20
101.491438
 30
0.0
 11
126.58278900000001
 21
101.491438
 31
0.0
  0
LINE
  5
EA18
  8
MSM_CONTINUOUS
 10
126.58278900000001
 20
117.9914379999999
 30
0.0
 11
119.958139
 21
117.9914379999999
 31
0.0
  0
LINE
  5
EA19
  8
MSM_CONTINUOUS
 10
129.28278899999981
 20
103.991438
 30
0.0
 11
129.28278899999981
 21
114.4914379999999
 31
0.0
  0
LINE
  5
EA1A
  8
MSM_CONTINUOUS
 10
119.958139
 20
221.4914379999999
 30
0.0
 11
126.58278900000001
 21
221.4914379999999
 31
0.0
  0
LINE
  5
EA1B
  8
MSM_CONTINUOUS
 10
126.58278900000001
 20
204.9914379999999
 30
0.0
 11
119.958139
 21
204.9914379999999
 31
0.0
  0
LINE
  5
EA1C
  8
MSM_CONTINUOUS
 10
125.58278900000001
 20
226.4914379999999
 30
0.0
 11
130.08278899999999
 21
226.4914379999999
 31
0.0
  0
LINE
  5
EA1D
  8
MSM_CONTINUOUS
 10
163.08278899999999
 20
82.491438000000016
 30
0.0
 11
163.08278899999999
 21
232.4914379999999
 31
0.0
  0
LINE
  5
EA1E
  8
MSM_CONTINUOUS
 10
103.08278900000001
 20
232.4914379999999
 30
0.0
 11
163.08278899999999
 21
232.4914379999999
 31
0.0
  0
LINE
  5
EA1F
  8
MSM_CONTINUOUS
 10
103.08278900000001
 20
82.491438000000016
 30
0.0
 11
103.08278900000001
 21
232.4914379999999
 31
0.0
  0
LINE
  5
EA20
  8
MSM_CONTINUOUS
 10
144.58278899999999
 20
122.9914379999999
 30
0.0
 11
123.58278900000001
 21
122.9914379999999
 31
0.0
  0
LINE
  5
EA21
  8
MSM_CONTINUOUS
 10
145.08278899999999
 20
232.4914379999999
 30
0.0
 11
145.08278899999999
 21
229.4914379999999
 31
0.0
  0
LINE
  5
EA22
  8
MSM_CONTINUOUS
 10
123.08278900000001
 20
229.4914379999999
 30
0.0
 11
123.08278900000001
 21
232.4914379999999
 31
0.0
  0
LINE
  5
EA23
  8
MSM_CONTINUOUS
 10
163.08278899999999
 20
82.491438000000016
 30
0.0
 11
103.08278900000001
 21
82.491438000000016
 31
0.0
  0
LINE
  5
EA24
  8
MSM_CONTINUOUS
 10
148.08278899999999
 20
304.4914379999999
 30
0.0
 11
148.08278899999999
 21
294.19143800000018
 31
0.0
  0
LINE
  5
EA25
  8
MSM_CONTINUOUS
 10
120.08278900000001
 20
296.99143800000007
 30
0.0
 11
153.08278899999999
 21
296.99143800000007
 31
0.0
  0
LINE
  5
EA26
  8
MSM_CONTINUOUS
 10
120.08278900000001
 20
304.4914379999999
 30
0.0
 11
120.08278900000001
 21
296.99143800000007
 31
0.0
  0
LINE
  5
EA27
  8
MSM_CONTINUOUS
 10
107.7327889999999
 20
273.7836860000001
 30
0.0
 11
103.4327889999999
 21
273.7836860000001
 31
0.0
  0
LINE
  5
EA28
  8
MSM_CONTINUOUS
 10
120.08278900000001
 20
279.4914379999999
 30
0.0
 11
148.08278899999999
 21
279.4914379999999
 31
0.0
  0
LINE
  5
EA29
  8
MSM_CONTINUOUS
 10
119.2327889999999
 20
273.7836860000001
 30
0.0
 11
114.9327889999999
 21
273.7836860000001
 31
0.0
  0
LINE
  5
EA2A
  8
MSM_CONTINUOUS
 10
154.08278899999999
 20
270.4914379999999
 30
0.0
 11
154.08278899999999
 21
247.59143800000001
 31
0.0
  0
LINE
  5
EA2B
  8
MSM_CONTINUOUS
 10
152.08278899999999
 20
272.4914379999999
 30
0.0
 11
103.08278900000001
 21
272.4914379999999
 31
0.0
  0
LINE
  5
EA2C
  8
MSM_CONTINUOUS
 10
103.08278900000001
 20
272.59143799999998
 30
0.0
 11
119.58278900000001
 21
272.59143799999998
 31
0.0
  0
LINE
  5
EA2D
  8
MSM_CONTINUOUS
 10
103.08278900000001
 20
273.4914379999999
 30
0.0
 11
119.58278900000001
 21
273.4914379999999
 31
0.0
  0
LINE
  5
EA2E
  8
MSM_CONTINUOUS
 10
163.08278899999999
 20
132.4914379999999
 30
0.0
 11
103.08278900000001
 21
132.4914379999999
 31
0.0
  0
LINE
  5
EA2F
  8
MSM_CONTINUOUS
 10
163.08278899999999
 20
192.4914379999999
 30
0.0
 11
103.08278900000001
 21
192.4914379999999
 31
0.0
  0
LINE
  5
EA30
  8
MSM_CONTINUOUS
 10
148.08278899999999
 20
332.36539000000022
 30
0.0
 11
153.08278899999999
 21
332.71502299999997
 31
0.0
  0
LINE
  5
EA31
  8
MSM_CONTINUOUS
 10
121.28278900000009
 20
326.61538899999999
 30
0.0
 11
146.8827890000002
 21
326.61538899999999
 31
0.0
  0
LINE
  5
EA32
  8
MSM_CONTINUOUS
 10
163.08278899999999
 20
92.491438000000016
 30
0.0
 11
103.08278900000001
 21
92.491438000000016
 31
0.0
  0
LINE
  5
EA33
  8
MSM_CONTINUOUS
 10
120.08278900000001
 20
302.4914379999999
 30
0.0
 11
125.58278900000001
 21
302.4914379999999
 31
0.0
  0
LINE
  5
EA34
  8
MSM_CONTINUOUS
 10
142.58278899999999
 20
302.4914379999999
 30
0.0
 11
148.08278899999999
 21
302.4914379999999
 31
0.0
  0
LINE
  5
EA35
  8
MSM_CONTINUOUS
 10
148.08278899999999
 20
304.4914379999999
 30
0.0
 11
120.08278900000001
 21
304.4914379999999
 31
0.0
  0
ARC
  5
EA36
  8
MSM_CONTINUOUS
 10
126.08278900000001
 20
177.9914379999999
 30
0.0
 40
3.0
 50
180.0
 51
0.0
  0
ARC
  5
EA37
  8
MSM_CONTINUOUS
 10
126.08278900000001
 20
183.9914379999999
 30
0.0
 40
3.0
 50
0.0
 51
180.0
  0
ARC
  5
EA38
  8
MSM_CONTINUOUS
 10
142.08278899999999
 20
183.9914379999999
 30
0.0
 40
3.0
 50
0.0
 51
180.0
  0
ARC
  5
EA39
  8
MSM_CONTINUOUS
 10
142.08278899999999
 20
177.9914379999999
 30
0.0
 40
3.0
 50
180.0
 51
0.0
  0
ARC
  5
EA3A
  8
MSM_CONTINUOUS
 10
181.33296812818071
 20
262.15932937245992
 30
0.0
 40
48.583738926670662
 50
35.093004349816169
 51
41.247841175876253
  0
ARC
  5
EA3B
  8
MSM_CONTINUOUS
 10
218.1816938058287
 20
289.46126683992759
 30
0.0
 40
2.970832931147299
 50
334.69530626340418
 51
12.225721462901721
  0
ARC
  5
EA3C
  8
MSM_CONTINUOUS
 10
226.78515925201509
 20
289.50314656827669
 30
0.0
 40
3.210126544898035
 50
170.2786652417758
 51
204.1179139159218
  0
LINE
  5
EA3D
  8
MSM_CONTINUOUS
 10
223.6211279999998
 20
290.04519699999997
 30
0.0
 11
223.6606689999999
 21
290.13770299999999
 31
0.0
  0
ARC
  5
EA3E
  8
MSM_CONTINUOUS
 10
272.53634260489213
 20
254.8375938938847
 30
0.0
 40
60.290373802420433
 50
139.2516124218825
 51
144.1615677708055
  0
ARC
  5
EA3F
  8
MSM_CONTINUOUS
 10
147.88734654708969
 20
346.56962621992238
 30
0.0
 40
4.3663554484309568
 50
51.379825470054008
 51
87.43383006317849
  0
LINE
  5
EA40
  8
MSM_CONTINUOUS
 10
150.6126279999998
 20
349.98106299999989
 30
0.0
 11
150.6929300000001
 21
349.88137699999987
 31
0.0
  0
LINE
  5
EA41
  8
MSM_CONTINUOUS
 10
150.6929300000001
 20
349.88137699999987
 30
0.0
 11
150.733768
 21
349.80681799999979
 31
0.0
  0
ARC
  5
EA42
  8
MSM_CONTINUOUS
 10
149.8572280456851
 20
349.65680038996169
 30
0.0
 40
4.13822012173478
 50
352.44460749609902
 51
78.683286912195044
  0
ARC
  5
EA43
  8
MSM_CONTINUOUS
 10
147.50583433031119
 20
344.81225152501497
 30
0.0
 40
9.4476736873540563
 50
70.437277440759786
 51
86.498669449672065
  0
LINE
  5
EA44
  8
MSM_CENTER
 10
118.08278900000001
 20
87.491438000000016
 30
0.0
 11
118.08278900000001
 21
93.491438000000016
 31
0.0
  0
LINE
  5
EA45
  8
MSM_CENTER
 10
115.08278900000001
 20
90.491438000000016
 30
0.0
 11
121.08278900000001
 21
90.491438000000016
 31
0.0
  0
CIRCLE
  5
EA46
  8
MSM_CONTINUOUS
 10
118.08278900000001
 20
90.491438000000016
 30
0.0
 40
0.7835
  0
CIRCLE
  5
EA47
  8
MSM_NARROW
 10
118.08278900000001
 20
90.491438000000016
 30
0.0
 40
1.0
  0
LINE
  5
EA48
  8
MSM_CENTER
 10
148.08278899998751
 20
87.491438000000016
 30
0.0
 11
148.08278899998751
 21
93.491438000000016
 31
0.0
  0
LINE
  5
EA49
  8
MSM_CENTER
 10
145.08278899998751
 20
90.491438000000016
 30
0.0
 11
151.08278899998751
 21
90.491438000000016
 31
0.0
  0
CIRCLE
  5
EA4A
  8
MSM_CONTINUOUS
 10
148.08278899998751
 20
90.491438000000016
 30
0.0
 40
0.7835
  0
CIRCLE
  5
EA4B
  8
MSM_NARROW
 10
148.08278899998751
 20
90.491438000000016
 30
0.0
 40
1.0
  0
LINE
  5
EA4C
  8
MSM_CENTER
 10
118.08278900000001
 20
259.49143799999979
 30
0.0
 11
118.08278900000001
 21
265.49143799999979
 31
0.0
  0
LINE
  5
EA4D
  8
MSM_CENTER
 10
115.08278900000001
 20
262.49143799999979
 30
0.0
 11
121.08278900000001
 21
262.49143799999979
 31
0.0
  0
CIRCLE
  5
EA4E
  8
MSM_CONTINUOUS
 10
118.08278900000001
 20
262.49143799999979
 30
0.0
 40
0.7835
  0
CIRCLE
  5
EA4F
  8
MSM_NARROW
 10
118.08278900000001
 20
262.49143799999979
 30
0.0
 40
1.0
  0
LINE
  5
EA50
  8
MSM_CENTER
 10
148.08278899998751
 20
259.49143799999979
 30
0.0
 11
148.08278899998751
 21
265.49143799999979
 31
0.0
  0
LINE
  5
EA51
  8
MSM_CENTER
 10
145.08278899998751
 20
262.49143799999979
 30
0.0
 11
151.08278899998751
 21
262.49143799999979
 31
0.0
  0
CIRCLE
  5
EA52
  8
MSM_CONTINUOUS
 10
148.08278899998751
 20
262.49143799999979
 30
0.0
 40
0.7835
  0
CIRCLE
  5
EA53
  8
MSM_NARROW
 10
148.08278899998751
 20
262.49143799999979
 30
0.0
 40
1.0
  0
LINE
  5
EA54
  8
MSM_CENTER
 10
50.750000000000227
 20
157.49143800000249
 30
0.0
 11
57.25
 21
157.49143800000249
 31
0.0
  0
LINE
  5
EA55
  8
MSM_CENTER
 10
54.0
 20
154.24143800000269
 30
0.0
 11
54.0
 21
160.74143800000249
 31
0.0
  0
LINE
  5
EA56
  8
MSM_CENTER
 10
50.750000000000227
 20
167.49143799999999
 30
0.0
 11
57.25
 21
167.49143799999999
 31
0.0
  0
LINE
  5
EA57
  8
MSM_CENTER
 10
54.0
 20
164.24143800000019
 30
0.0
 11
54.0
 21
170.74143799999999
 31
0.0
  0
CIRCLE
  5
EA58
  8
MSM_CONTINUOUS
 10
54.0
 20
157.49143800000249
 30
0.0
 40
1.2295
  0
CIRCLE
  5
EA59
  8
MSM_NARROW
 10
54.0
 20
157.49143800000249
 30
0.0
 40
1.5
  0
CIRCLE
  5
EA5A
  8
MSM_CONTINUOUS
 10
54.0
 20
167.49143799999999
 30
0.0
 40
1.2295
  0
CIRCLE
  5
EA5B
  8
MSM_NARROW
 10
54.0
 20
167.49143799999999
 30
0.0
 40
1.5
  0
LINE
  5
EA5C
  8
MSM_CENTER
 10
33.000000000004093
 20
214.2414380000001
 30
0.0
 11
33.000000000004093
 21
220.7414380000001
 31
0.0
  0
LINE
  5
EA5D
  8
MSM_CENTER
 10
33.000000000004093
 20
199.2414380000001
 30
0.0
 11
33.000000000004093
 21
205.7414380000001
 31
0.0
  0
LINE
  5
EA5E
  8
MSM_CENTER
 10
29.750000000004089
 20
217.4914380000001
 30
0.0
 11
36.250000000004093
 21
217.4914380000001
 31
0.0
  0
LINE
  5
EA5F
  8
MSM_CENTER
 10
29.750000000004089
 20
202.4914380000001
 30
0.0
 11
36.250000000004093
 21
202.4914380000001
 31
0.0
  0
LINE
  5
EA60
  8
MSM_CENTER
 10
33.000000000004093
 20
166.7414380000009
 30
0.0
 11
33.000000000004093
 21
173.2414380000009
 31
0.0
  0
LINE
  5
EA61
  8
MSM_CENTER
 10
29.750000000004089
 20
169.9914380000009
 30
0.0
 11
36.250000000004093
 21
169.9914380000009
 31
0.0
  0
LINE
  5
EA62
  8
MSM_CENTER
 10
29.750000000004089
 20
154.9914380000009
 30
0.0
 11
36.250000000004093
 21
154.9914380000009
 31
0.0
  0
LINE
  5
EA63
  8
MSM_CENTER
 10
33.000000000004093
 20
119.2414380000001
 30
0.0
 11
33.000000000004093
 21
125.7414380000001
 31
0.0
  0
LINE
  5
EA64
  8
MSM_CENTER
 10
29.750000000004089
 20
122.4914380000001
 30
0.0
 11
36.250000000004093
 21
122.4914380000001
 31
0.0
  0
LINE
  5
EA65
  8
MSM_CENTER
 10
33.000000000004093
 20
151.7414380000009
 30
0.0
 11
33.000000000004093
 21
158.2414380000009
 31
0.0
  0
CIRCLE
  5
EA66
  8
MSM_CONTINUOUS
 10
33.000000000004093
 20
217.4914380000001
 30
0.0
 40
1.2295
  0
CIRCLE
  5
EA67
  8
MSM_NARROW
 10
33.000000000004093
 20
217.4914380000001
 30
0.0
 40
1.5
  0
CIRCLE
  5
EA68
  8
MSM_CONTINUOUS
 10
33.000000000004093
 20
202.4914380000001
 30
0.0
 40
1.2295
  0
CIRCLE
  5
EA69
  8
MSM_NARROW
 10
33.000000000004093
 20
202.4914380000001
 30
0.0
 40
1.5
  0
CIRCLE
  5
EA6A
  8
MSM_CONTINUOUS
 10
33.000000000004093
 20
169.9914380000009
 30
0.0
 40
1.2295
  0
CIRCLE
  5
EA6B
  8
MSM_NARROW
 10
33.000000000004093
 20
169.9914380000009
 30
0.0
 40
1.5
  0
CIRCLE
  5
EA6C
  8
MSM_CONTINUOUS
 10
33.000000000004093
 20
154.9914380000009
 30
0.0
 40
1.2295
  0
CIRCLE
  5
EA6D
  8
MSM_NARROW
 10
33.000000000004093
 20
154.9914380000009
 30
0.0
 40
1.5
  0
CIRCLE
  5
EA6E
  8
MSM_CONTINUOUS
 10
33.000000000004093
 20
122.4914380000001
 30
0.0
 40
1.2295
  0
CIRCLE
  5
EA6F
  8
MSM_NARROW
 10
33.000000000004093
 20
122.4914380000001
 30
0.0
 40
1.5
  0
LINE
  5
EA70
  8
MSM_CENTER
 10
29.50000000000421
 20
107.4914380000001
 30
0.0
 11
36.500000000003979
 21
107.4914380000001
 31
0.0
  0
LINE
  5
EA71
  8
MSM_CENTER
 10
33.000000000004214
 20
103.9914380000001
 30
0.0
 11
33.000000000004214
 21
110.9914380000001
 31
0.0
  0
CIRCLE
  5
EA72
  8
MSM_CONTINUOUS
 10
33.000000000004214
 20
107.4914380000001
 30
0.0
 40
1.2295
  0
CIRCLE
  5
EA73
  8
MSM_NARROW
 10
33.000000000004214
 20
107.4914380000001
 30
0.0
 40
1.5
  0
LINE
  5
EA74
  8
MSM_CONTINUOUS
 10
43.000000000003872
 20
187.49143800000101
 30
0.0
 11
41.499699212283069
 21
188.8120535916463
 31
0.0
  0
LINE
  5
EA75
  8
MSM_CONTINUOUS
 10
38.000000000004093
 20
183.7497806132271
 30
0.0
 11
38.122519398138138
 21
183.59143800088779
 31
0.0
  0
LINE
  5
EA76
  8
MSM_CONTINUOUS
 10
38.122514573721219
 20
191.3914379995116
 30
0.0
 11
38.000000000004093
 21
191.23309538677489
 31
0.0
  0
LINE
  5
EA77
  8
MSM_CONTINUOUS
 10
38.122519398138138
 20
183.59143800088779
 30
0.0
 11
38.871287057177142
 21
183.9913252708418
 31
0.0
  0
LINE
  5
EA78
  8
MSM_CONTINUOUS
 10
38.000000000004093
 20
133.7497806132269
 30
0.0
 11
38.122517534412061
 21
133.59143800072019
 31
0.0
  0
LINE
  5
EA79
  8
MSM_CONTINUOUS
 10
43.000000000003872
 20
137.49143800000101
 30
0.0
 11
41.499960235152678
 21
138.8118254428725
 31
0.0
  0
LINE
  5
EA7A
  8
MSM_CONTINUOUS
 10
38.122517534412061
 20
133.59143800072019
 30
0.0
 11
38.871200779685068
 21
133.99126319434751
 31
0.0
  0
LINE
  5
EA7B
  8
MSM_CONTINUOUS
 10
38.122518042221138
 20
141.3914379992377
 30
0.0
 11
38.000000000004093
 21
141.23309538677489
 31
0.0
  0
LINE
  5
EA7C
  8
MSM_CONTINUOUS
 10
41.500000000003858
 20
183.99143800000101
 30
0.0
 11
41.500000000003858
 21
190.99143800000101
 31
0.0
  0
LINE
  5
EA7D
  8
MSM_CONTINUOUS
 10
41.500000000003858
 20
133.99143800000101
 30
0.0
 11
41.500000000003858
 21
140.99143800000101
 31
0.0
  0
LINE
  5
EA7E
  8
MSM_CONTINUOUS
 10
41.499980048974969
 20
136.17106787556921
 30
0.0
 11
43.000000000003872
 21
137.49143800000101
 31
0.0
  0
LINE
  5
EA7F
  8
MSM_CONTINUOUS
 10
38.871161703247019
 20
140.99164092055841
 30
0.0
 11
38.122518042221138
 21
141.3914379992377
 31
0.0
  0
LINE
  5
EA80
  8
MSM_CONTINUOUS
 10
41.49979768915523
 20
186.17090848261449
 30
0.0
 11
43.000000000003872
 21
187.49143800000101
 31
0.0
  0
LINE
  5
EA81
  8
MSM_CONTINUOUS
 10
38.870985994167313
 20
190.9917673365637
 30
0.0
 11
38.122514573721219
 21
191.3914379995116
 31
0.0
  0
LINE
  5
EA82
  8
MSM_CONTINUOUS
 10
41.500000000003858
 20
140.99143800000101
 30
0.0
 11
38.000000000004093
 21
140.99143800000101
 31
0.0
  0
LINE
  5
EA83
  8
MSM_CONTINUOUS
 10
38.000000000004093
 20
133.99143800000101
 30
0.0
 11
41.500000000003858
 21
133.99143800000101
 31
0.0
  0
LINE
  5
EA84
  8
MSM_CONTINUOUS
 10
41.500000000003858
 20
190.99143800000101
 30
0.0
 11
38.000000000004093
 21
190.99143800000101
 31
0.0
  0
LINE
  5
EA85
  8
MSM_CONTINUOUS
 10
38.000000000004093
 20
183.99143800000101
 30
0.0
 11
41.500000000003858
 21
183.99143800000101
 31
0.0
  0
LINE
  5
EA86
  8
MSM_CONTINUOUS
 10
38.000000054574457
 20
108.74978061318539
 30
0.0
 11
38.122517588982419
 21
108.59143800067871
 31
0.0
  0
LINE
  5
EA87
  8
MSM_CONTINUOUS
 10
43.000000054574222
 20
112.4914379999595
 30
0.0
 11
41.499960289723049
 21
113.81182544283099
 31
0.0
  0
LINE
  5
EA88
  8
MSM_CONTINUOUS
 10
38.122517588982419
 20
108.59143800067871
 30
0.0
 11
38.871200834255433
 21
108.991263194306
 31
0.0
  0
LINE
  5
EA89
  8
MSM_CONTINUOUS
 10
38.122518096791509
 20
116.3914379991962
 30
0.0
 11
38.000000054574457
 21
116.2330953867334
 31
0.0
  0
LINE
  5
EA8A
  8
MSM_CONTINUOUS
 10
41.50000005457423
 20
108.9914379999595
 30
0.0
 11
41.50000005457423
 21
115.9914379999595
 31
0.0
  0
LINE
  5
EA8B
  8
MSM_CONTINUOUS
 10
41.49998010354534
 20
111.1710678755277
 30
0.0
 11
43.000000054574222
 21
112.4914379999595
 31
0.0
  0
LINE
  5
EA8C
  8
MSM_CONTINUOUS
 10
38.87116175781739
 20
115.9916409205169
 30
0.0
 11
38.122518096791509
 21
116.3914379991962
 31
0.0
  0
LINE
  5
EA8D
  8
MSM_CONTINUOUS
 10
41.50000005457423
 20
115.9914379999595
 30
0.0
 11
38.000000054574457
 21
115.9914379999595
 31
0.0
  0
LINE
  5
EA8E
  8
MSM_CONTINUOUS
 10
38.000000054574457
 20
108.9914379999595
 30
0.0
 11
41.50000005457423
 21
108.9914379999595
 31
0.0
  0
LINE
  5
EA8F
  8
MSM_CONTINUOUS
 10
38.000000054574457
 20
208.7497806132325
 30
0.0
 11
38.122517588982419
 21
208.59143800072579
 31
0.0
  0
LINE
  5
EA90
  8
MSM_CONTINUOUS
 10
43.000000054574222
 20
212.49143800000661
 30
0.0
 11
41.499960289723049
 21
213.8118254428781
 31
0.0
  0
LINE
  5
EA91
  8
MSM_CONTINUOUS
 10
38.122517588982419
 20
208.59143800072579
 30
0.0
 11
38.871200834255433
 21
208.99126319435311
 31
0.0
  0
LINE
  5
EA92
  8
MSM_CONTINUOUS
 10
38.122518096791509
 20
216.39143799924329
 30
0.0
 11
38.000000054574457
 21
216.23309538678049
 31
0.0
  0
LINE
  5
EA93
  8
MSM_CONTINUOUS
 10
41.50000005457423
 20
208.99143800000661
 30
0.0
 11
41.50000005457423
 21
215.99143800000661
 31
0.0
  0
LINE
  5
EA94
  8
MSM_CONTINUOUS
 10
41.49998010354534
 20
211.17106787557481
 30
0.0
 11
43.000000054574222
 21
212.49143800000661
 31
0.0
  0
LINE
  5
EA95
  8
MSM_CONTINUOUS
 10
38.87116175781739
 20
215.99164092056401
 30
0.0
 11
38.122518096791509
 21
216.39143799924329
 31
0.0
  0
LINE
  5
EA96
  8
MSM_CONTINUOUS
 10
41.50000005457423
 20
215.99143800000661
 30
0.0
 11
38.000000054574457
 21
215.99143800000661
 31
0.0
  0
LINE
  5
EA97
  8
MSM_CONTINUOUS
 10
38.000000054574457
 20
208.99143800000661
 30
0.0
 11
41.50000005457423
 21
208.99143800000661
 31
0.0
  0
LINE
  5
EA98
  8
MSM_CENTER
 10
215.61136200000399
 20
157.49143800000249
 30
0.0
 11
209.11136200000419
 21
157.49143800000249
 31
0.0
  0
LINE
  5
EA99
  8
MSM_CENTER
 10
212.36136200000419
 20
154.24143800000269
 30
0.0
 11
212.36136200000419
 21
160.74143800000249
 31
0.0
  0
LINE
  5
EA9A
  8
MSM_CENTER
 10
215.61136200000399
 20
167.49143799999999
 30
0.0
 11
209.11136200000419
 21
167.49143799999999
 31
0.0
  0
LINE
  5
EA9B
  8
MSM_CENTER
 10
212.36136200000419
 20
164.24143800000019
 30
0.0
 11
212.36136200000419
 21
170.74143799999999
 31
0.0
  0
CIRCLE
  5
EA9C
  8
MSM_CONTINUOUS
 10
212.36136200000419
 20
157.49143800000249
 30
0.0
 40
1.2295
  0
CIRCLE
  5
EA9D
  8
MSM_NARROW
 10
212.36136200000419
 20
157.49143800000249
 30
0.0
 40
1.5
  0
CIRCLE
  5
EA9E
  8
MSM_CONTINUOUS
 10
212.36136200000419
 20
167.49143799999999
 30
0.0
 40
1.2295
  0
CIRCLE
  5
EA9F
  8
MSM_NARROW
 10
212.36136200000419
 20
167.49143799999999
 30
0.0
 40
1.5
  0
LINE
  5
EAA0
  8
MSM_CENTER
 10
233.3613620000001
 20
214.2414380000001
 30
0.0
 11
233.3613620000001
 21
220.7414380000001
 31
0.0
  0
LINE
  5
EAA1
  8
MSM_CENTER
 10
233.3613620000001
 20
199.2414380000001
 30
0.0
 11
233.3613620000001
 21
205.7414380000001
 31
0.0
  0
LINE
  5
EAA2
  8
MSM_CENTER
 10
236.6113620000001
 20
217.4914380000001
 30
0.0
 11
230.1113620000001
 21
217.4914380000001
 31
0.0
  0
LINE
  5
EAA3
  8
MSM_CENTER
 10
236.6113620000001
 20
202.4914380000001
 30
0.0
 11
230.1113620000001
 21
202.4914380000001
 31
0.0
  0
LINE
  5
EAA4
  8
MSM_CENTER
 10
233.3613620000001
 20
166.7414380000009
 30
0.0
 11
233.3613620000001
 21
173.2414380000009
 31
0.0
  0
LINE
  5
EAA5
  8
MSM_CENTER
 10
236.6113620000001
 20
169.9914380000009
 30
0.0
 11
230.1113620000001
 21
169.9914380000009
 31
0.0
  0
LINE
  5
EAA6
  8
MSM_CENTER
 10
236.6113620000001
 20
154.9914380000009
 30
0.0
 11
230.1113620000001
 21
154.9914380000009
 31
0.0
  0
LINE
  5
EAA7
  8
MSM_CENTER
 10
233.3613620000001
 20
119.2414380000001
 30
0.0
 11
233.3613620000001
 21
125.7414380000001
 31
0.0
  0
LINE
  5
EAA8
  8
MSM_CENTER
 10
236.6113620000001
 20
122.4914380000001
 30
0.0
 11
230.1113620000001
 21
122.4914380000001
 31
0.0
  0
LINE
  5
EAA9
  8
MSM_CENTER
 10
233.3613620000001
 20
151.7414380000009
 30
0.0
 11
233.3613620000001
 21
158.2414380000009
 31
0.0
  0
CIRCLE
  5
EAAA
  8
MSM_CONTINUOUS
 10
233.3613620000001
 20
217.4914380000001
 30
0.0
 40
1.2295
  0
CIRCLE
  5
EAAB
  8
MSM_NARROW
 10
233.3613620000001
 20
217.4914380000001
 30
0.0
 40
1.5
  0
CIRCLE
  5
EAAC
  8
MSM_CONTINUOUS
 10
233.3613620000001
 20
202.4914380000001
 30
0.0
 40
1.2295
  0
CIRCLE
  5
EAAD
  8
MSM_NARROW
 10
233.3613620000001
 20
202.4914380000001
 30
0.0
 40
1.5
  0
CIRCLE
  5
EAAE
  8
MSM_CONTINUOUS
 10
233.3613620000001
 20
169.9914380000009
 30
0.0
 40
1.2295
  0
CIRCLE
  5
EAAF
  8
MSM_NARROW
 10
233.3613620000001
 20
169.9914380000009
 30
0.0
 40
1.5
  0
CIRCLE
  5
EAB0
  8
MSM_CONTINUOUS
 10
233.3613620000001
 20
154.9914380000009
 30
0.0
 40
1.2295
  0
CIRCLE
  5
EAB1
  8
MSM_NARROW
 10
233.3613620000001
 20
154.9914380000009
 30
0.0
 40
1.5
  0
CIRCLE
  5
EAB2
  8
MSM_CONTINUOUS
 10
233.3613620000001
 20
122.4914380000001
 30
0.0
 40
1.2295
  0
CIRCLE
  5
EAB3
  8
MSM_NARROW
 10
233.3613620000001
 20
122.4914380000001
 30
0.0
 40
1.5
  0
LINE
  5
EAB4
  8
MSM_CENTER
 10
236.86136200000001
 20
107.4914380000001
 30
0.0
 11
229.86136200000021
 21
107.4914380000001
 31
0.0
  0
LINE
  5
EAB5
  8
MSM_CENTER
 10
233.36136200000001
 20
103.9914380000001
 30
0.0
 11
233.36136200000001
 21
110.9914380000001
 31
0.0
  0
CIRCLE
  5
EAB6
  8
MSM_CONTINUOUS
 10
233.36136200000001
 20
107.4914380000001
 30
0.0
 40
1.2295
  0
CIRCLE
  5
EAB7
  8
MSM_NARROW
 10
233.36136200000001
 20
107.4914380000001
 30
0.0
 40
1.5
  0
LINE
  5
EAB8
  8
MSM_CONTINUOUS
 10
223.3613620000003
 20
187.49143800000101
 30
0.0
 11
224.86166278772109
 21
188.8120535916463
 31
0.0
  0
LINE
  5
EAB9
  8
MSM_CONTINUOUS
 10
228.3613620000001
 20
183.7497806132271
 30
0.0
 11
228.238842601866
 21
183.59143800088779
 31
0.0
  0
LINE
  5
EABA
  8
MSM_CONTINUOUS
 10
228.238847426283
 20
191.3914379995116
 30
0.0
 11
228.3613620000001
 21
191.23309538677489
 31
0.0
  0
LINE
  5
EABB
  8
MSM_CONTINUOUS
 10
228.238842601866
 20
183.59143800088779
 30
0.0
 11
227.49007494282711
 21
183.9913252708418
 31
0.0
  0
LINE
  5
EABC
  8
MSM_CONTINUOUS
 10
228.3613620000001
 20
133.7497806132269
 30
0.0
 11
228.23884446559211
 21
133.59143800072019
 31
0.0
  0
LINE
  5
EABD
  8
MSM_CONTINUOUS
 10
223.3613620000003
 20
137.49143800000101
 30
0.0
 11
224.86140176485151
 21
138.8118254428725
 31
0.0
  0
LINE
  5
EABE
  8
MSM_CONTINUOUS
 10
228.23884446559211
 20
133.59143800072019
 30
0.0
 11
227.4901612203191
 21
133.99126319434751
 31
0.0
  0
LINE
  5
EABF
  8
MSM_CONTINUOUS
 10
228.2388439577831
 20
141.3914379992377
 30
0.0
 11
228.3613620000001
 21
141.23309538677489
 31
0.0
  0
LINE
  5
EAC0
  8
MSM_CONTINUOUS
 10
224.8613620000003
 20
183.99143800000101
 30
0.0
 11
224.8613620000003
 21
190.99143800000101
 31
0.0
  0
LINE
  5
EAC1
  8
MSM_CONTINUOUS
 10
224.8613620000003
 20
133.99143800000101
 30
0.0
 11
224.8613620000003
 21
140.99143800000101
 31
0.0
  0
LINE
  5
EAC2
  8
MSM_CONTINUOUS
 10
224.86138195102919
 20
136.17106787556921
 30
0.0
 11
223.3613620000003
 21
137.49143800000101
 31
0.0
  0
LINE
  5
EAC3
  8
MSM_CONTINUOUS
 10
227.49020029675711
 20
140.99164092055841
 30
0.0
 11
228.2388439577831
 21
141.3914379992377
 31
0.0
  0
LINE
  5
EAC4
  8
MSM_CONTINUOUS
 10
224.86156431084899
 20
186.17090848261449
 30
0.0
 11
223.3613620000003
 21
187.49143800000101
 31
0.0
  0
LINE
  5
EAC5
  8
MSM_CONTINUOUS
 10
227.49037600583691
 20
190.9917673365637
 30
0.0
 11
228.238847426283
 21
191.3914379995116
 31
0.0
  0
LINE
  5
EAC6
  8
MSM_CONTINUOUS
 10
224.8613620000003
 20
140.99143800000101
 30
0.0
 11
228.3613620000001
 21
140.99143800000101
 31
0.0
  0
LINE
  5
EAC7
  8
MSM_CONTINUOUS
 10
228.3613620000001
 20
133.99143800000101
 30
0.0
 11
224.8613620000003
 21
133.99143800000101
 31
0.0
  0
LINE
  5
EAC8
  8
MSM_CONTINUOUS
 10
224.8613620000003
 20
190.99143800000101
 30
0.0
 11
228.3613620000001
 21
190.99143800000101
 31
0.0
  0
LINE
  5
EAC9
  8
MSM_CONTINUOUS
 10
228.3613620000001
 20
183.99143800000101
 30
0.0
 11
224.8613620000003
 21
183.99143800000101
 31
0.0
  0
LINE
  5
EACA
  8
MSM_CONTINUOUS
 10
228.36136194542971
 20
108.74978061318539
 30
0.0
 11
228.2388444110218
 21
108.59143800067871
 31
0.0
  0
LINE
  5
EACB
  8
MSM_CONTINUOUS
 10
223.36136194542991
 20
112.4914379999595
 30
0.0
 11
224.86140171028109
 21
113.81182544283099
 31
0.0
  0
LINE
  5
EACC
  8
MSM_CONTINUOUS
 10
228.2388444110218
 20
108.59143800067871
 30
0.0
 11
227.49016116574879
 21
108.991263194306
 31
0.0
  0
LINE
  5
EACD
  8
MSM_CONTINUOUS
 10
228.23884390321271
 20
116.3914379991962
 30
0.0
 11
228.36136194542971
 21
116.2330953867334
 31
0.0
  0
LINE
  5
EACE
  8
MSM_CONTINUOUS
 10
224.86136194542999
 20
108.9914379999595
 30
0.0
 11
224.86136194542999
 21
115.9914379999595
 31
0.0
  0
LINE
  5
EACF
  8
MSM_CONTINUOUS
 10
224.86138189645891
 20
111.1710678755277
 30
0.0
 11
223.36136194542991
 21
112.4914379999595
 31
0.0
  0
LINE
  5
EAD0
  8
MSM_CONTINUOUS
 10
227.4902002421868
 20
115.9916409205169
 30
0.0
 11
228.23884390321271
 21
116.3914379991962
 31
0.0
  0
LINE
  5
EAD1
  8
MSM_CONTINUOUS
 10
224.86136194542999
 20
115.9914379999595
 30
0.0
 11
228.36136194542971
 21
115.9914379999595
 31
0.0
  0
LINE
  5
EAD2
  8
MSM_CONTINUOUS
 10
228.36136194542971
 20
108.9914379999595
 30
0.0
 11
224.86136194542999
 21
108.9914379999595
 31
0.0
  0
LINE
  5
EAD3
  8
MSM_CONTINUOUS
 10
228.36136194542971
 20
208.7497806132325
 30
0.0
 11
228.2388444110218
 21
208.59143800072579
 31
0.0
  0
LINE
  5
EAD4
  8
MSM_CONTINUOUS
 10
223.36136194542991
 20
212.49143800000661
 30
0.0
 11
224.86140171028109
 21
213.8118254428781
 31
0.0
  0
LINE
  5
EAD5
  8
MSM_CONTINUOUS
 10
228.2388444110218
 20
208.59143800072579
 30
0.0
 11
227.49016116574879
 21
208.99126319435311
 31
0.0
  0
LINE
  5
EAD6
  8
MSM_CONTINUOUS
 10
228.23884390321271
 20
216.39143799924329
 30
0.0
 11
228.36136194542971
 21
216.23309538678049
 31
0.0
  0
LINE
  5
EAD7
  8
MSM_CONTINUOUS
 10
224.86136194542999
 20
208.99143800000661
 30
0.0
 11
224.86136194542999
 21
215.99143800000661
 31
0.0
  0
LINE
  5
EAD8
  8
MSM_CONTINUOUS
 10
224.86138189645891
 20
211.17106787557481
 30
0.0
 11
223.36136194542991
 21
212.49143800000661
 31
0.0
  0
LINE
  5
EAD9
  8
MSM_CONTINUOUS
 10
227.4902002421868
 20
215.99164092056401
 30
0.0
 11
228.23884390321271
 21
216.39143799924329
 31
0.0
  0
LINE
  5
EADA
  8
MSM_CONTINUOUS
 10
224.86136194542999
 20
215.99143800000661
 30
0.0
 11
228.36136194542971
 21
215.99143800000661
 31
0.0
  0
LINE
  5
EADB
  8
MSM_CONTINUOUS
 10
228.36136194542971
 20
208.99143800000661
 30
0.0
 11
224.86136194542999
 21
208.99143800000661
 31
0.0
  0
LINE
  5
EADC
  8
MSM_CENTER
 10
104.4327890000008
 20
187.49143799999999
 30
0.0
 11
111.73278900000101
 21
187.49143799999999
 31
0.0
  0
LINE
  5
EADD
  8
MSM_CENTER
 10
108.0827890000009
 20
183.8414379999999
 30
0.0
 11
108.0827890000009
 21
191.14143799999991
 31
0.0
  0
LINE
  5
EADE
  8
MSM_CENTER
 10
113.5827890000005
 20
178.49143800000201
 30
0.0
 11
120.5827890000005
 21
178.49143800000201
 31
0.0
  0
LINE
  5
EADF
  8
MSM_CENTER
 10
104.0827890000009
 20
162.4914380000057
 30
0.0
 11
112.0827890000009
 21
162.4914380000057
 31
0.0
  0
LINE
  5
EAE0
  8
MSM_CENTER
 10
108.0827890000009
 20
158.4914380000057
 30
0.0
 11
108.0827890000009
 21
166.4914380000057
 31
0.0
  0
LINE
  5
EAE1
  8
MSM_CENTER
 10
113.5827890000005
 20
162.4914380000057
 30
0.0
 11
120.5827890000005
 21
162.4914380000057
 31
0.0
  0
LINE
  5
EAE2
  8
MSM_CENTER
 10
117.0827890000005
 20
158.9914380000057
 30
0.0
 11
117.0827890000005
 21
165.9914380000057
 31
0.0
  0
LINE
  5
EAE3
  8
MSM_CENTER
 10
113.5827890000007
 20
146.49143800000951
 30
0.0
 11
120.5827890000007
 21
146.49143800000951
 31
0.0
  0
LINE
  5
EAE4
  8
MSM_CENTER
 10
117.0827890000007
 20
142.99143800000951
 30
0.0
 11
117.0827890000007
 21
149.99143800000951
 31
0.0
  0
LINE
  5
EAE5
  8
MSM_CENTER
 10
104.0827890000009
 20
137.49143800001161
 30
0.0
 11
112.0827890000009
 21
137.49143800001161
 31
0.0
  0
LINE
  5
EAE6
  8
MSM_CENTER
 10
108.0827890000009
 20
133.49143800001161
 30
0.0
 11
108.0827890000009
 21
141.49143800001161
 31
0.0
  0
CIRCLE
  5
EAE7
  8
MSM_CONTINUOUS
 10
108.0827890000009
 20
187.49143799999999
 30
0.0
 40
1.6209999999999991
  0
CIRCLE
  5
EAE8
  8
MSM_NARROW
 10
108.0827890000009
 20
187.49143799999999
 30
0.0
 40
2.0
  0
CIRCLE
  5
EAE9
  8
MSM_CONTINUOUS
 10
108.0827890000009
 20
137.49143800001181
 30
0.0
 40
1.6209999999999991
  0
CIRCLE
  5
EAEA
  8
MSM_NARROW
 10
108.0827890000009
 20
137.49143800001181
 30
0.0
 40
2.0
  0
CIRCLE
  5
EAEB
  8
MSM_CONTINUOUS
 10
108.0827890000009
 20
162.4914380000057
 30
0.0
 40
1.6209999999999991
  0
CIRCLE
  5
EAEC
  8
MSM_NARROW
 10
108.0827890000009
 20
162.4914380000057
 30
0.0
 40
2.0
  0
LINE
  5
EAED
  8
MSM_CENTER
 10
117.0827890000005
 20
181.99143800000201
 30
0.0
 11
117.0827890000005
 21
174.99143800000209
 31
0.0
  0
CIRCLE
  5
EAEE
  8
MSM_CONTINUOUS
 10
117.0827890000005
 20
178.49143800000201
 30
0.0
 40
1.2295
  0
CIRCLE
  5
EAEF
  8
MSM_NARROW
 10
117.0827890000005
 20
178.49143800000201
 30
0.0
 40
1.5
  0
CIRCLE
  5
EAF0
  8
MSM_CONTINUOUS
 10
117.0827890000005
 20
162.4914380000057
 30
0.0
 40
1.2295
  0
CIRCLE
  5
EAF1
  8
MSM_NARROW
 10
117.0827890000005
 20
162.4914380000057
 30
0.0
 40
1.5
  0
CIRCLE
  5
EAF2
  8
MSM_CONTINUOUS
 10
117.0827890000005
 20
146.49143800000951
 30
0.0
 40
1.2295
  0
CIRCLE
  5
EAF3
  8
MSM_NARROW
 10
117.0827890000005
 20
146.49143800000951
 30
0.0
 40
1.5
  0
LINE
  5
EAF4
  8
MSM_CENTER
 10
129.58278899999999
 20
178.49143800000201
 30
0.0
 11
136.58278899999999
 21
178.49143800000201
 31
0.0
  0
LINE
  5
EAF5
  8
MSM_CENTER
 10
133.08278899999999
 20
174.99143800000209
 30
0.0
 11
133.08278899999999
 21
181.99143800000201
 31
0.0
  0
LINE
  5
EAF6
  8
MSM_CENTER
 10
129.08278899999999
 20
187.49143799999999
 30
0.0
 11
137.08278899999999
 21
187.49143799999999
 31
0.0
  0
LINE
  5
EAF7
  8
MSM_CENTER
 10
133.08278899999999
 20
183.49143799999999
 30
0.0
 11
133.08278899999999
 21
191.49143799999999
 31
0.0
  0
LINE
  5
EAF8
  8
MSM_CENTER
 10
129.58278899999999
 20
146.49143800000951
 30
0.0
 11
136.58278899999999
 21
146.49143800000951
 31
0.0
  0
LINE
  5
EAF9
  8
MSM_CENTER
 10
133.08278899999999
 20
142.99143800000951
 30
0.0
 11
133.08278899999999
 21
149.99143800000951
 31
0.0
  0
LINE
  5
EAFA
  8
MSM_CENTER
 10
129.08278899999999
 20
137.49143800001161
 30
0.0
 11
137.08278899999999
 21
137.49143800001161
 31
0.0
  0
LINE
  5
EAFB
  8
MSM_CENTER
 10
133.08278899999999
 20
133.49143800001161
 30
0.0
 11
133.08278899999999
 21
141.49143800001161
 31
0.0
  0
CIRCLE
  5
EAFC
  8
MSM_CONTINUOUS
 10
133.08278899999999
 20
187.49143799999999
 30
0.0
 40
1.6209999999999991
  0
CIRCLE
  5
EAFD
  8
MSM_NARROW
 10
133.08278899999999
 20
187.49143799999999
 30
0.0
 40
2.0
  0
CIRCLE
  5
EAFE
  8
MSM_CONTINUOUS
 10
133.08278899999999
 20
137.49143800001161
 30
0.0
 40
1.6209999999999991
  0
CIRCLE
  5
EAFF
  8
MSM_NARROW
 10
133.08278899999999
 20
137.49143800001161
 30
0.0
 40
2.0
  0
CIRCLE
  5
EB00
  8
MSM_CONTINUOUS
 10
133.08278899999999
 20
178.49143800000201
 30
0.0
 40
1.2295
  0
CIRCLE
  5
EB01
  8
MSM_NARROW
 10
133.08278899999999
 20
178.49143800000201
 30
0.0
 40
1.5
  0
CIRCLE
  5
EB02
  8
MSM_CONTINUOUS
 10
133.08278899999999
 20
146.49143800000951
 30
0.0
 40
1.2295
  0
CIRCLE
  5
EB03
  8
MSM_NARROW
 10
133.08278899999999
 20
146.49143800000951
 30
0.0
 40
1.5
  0
LINE
  5
EB04
  8
MSM_CENTER
 10
154.08278899999891
 20
187.49143799999999
 30
0.0
 11
162.08278899999891
 21
187.49143799999999
 31
0.0
  0
LINE
  5
EB05
  8
MSM_CENTER
 10
158.08278899999891
 20
183.49143799999999
 30
0.0
 11
158.08278899999891
 21
191.49143799999999
 31
0.0
  0
LINE
  5
EB06
  8
MSM_CENTER
 10
149.08278899999931
 20
175.24143800000229
 30
0.0
 11
149.08278899999931
 21
181.74143800000229
 31
0.0
  0
LINE
  5
EB07
  8
MSM_CENTER
 10
145.83278899999931
 20
162.4914380000059
 30
0.0
 11
152.33278899999931
 21
162.4914380000059
 31
0.0
  0
LINE
  5
EB08
  8
MSM_CENTER
 10
149.08278899999931
 20
159.2414380000059
 30
0.0
 11
149.08278899999931
 21
165.7414380000059
 31
0.0
  0
LINE
  5
EB09
  8
MSM_CENTER
 10
154.43278899999899
 20
162.4914380000059
 30
0.0
 11
161.732788999999
 21
162.4914380000059
 31
0.0
  0
LINE
  5
EB0A
  8
MSM_CENTER
 10
158.08278899999891
 20
158.84143800000601
 30
0.0
 11
158.08278899999891
 21
166.14143800000599
 31
0.0
  0
LINE
  5
EB0B
  8
MSM_CENTER
 10
149.08278899999931
 20
143.24143800000979
 30
0.0
 11
149.08278899999931
 21
149.74143800000979
 31
0.0
  0
LINE
  5
EB0C
  8
MSM_CENTER
 10
154.43278899999899
 20
137.49143800001181
 30
0.0
 11
161.732788999999
 21
137.49143800001181
 31
0.0
  0
LINE
  5
EB0D
  8
MSM_CENTER
 10
158.08278899999891
 20
133.84143800001169
 30
0.0
 11
158.08278899999891
 21
141.1414380000117
 31
0.0
  0
CIRCLE
  5
EB0E
  8
MSM_CONTINUOUS
 10
158.08278899999891
 20
187.49143799999999
 30
0.0
 40
1.6209999999999991
  0
CIRCLE
  5
EB0F
  8
MSM_NARROW
 10
158.08278899999891
 20
187.49143799999999
 30
0.0
 40
2.0
  0
CIRCLE
  5
EB10
  8
MSM_CONTINUOUS
 10
158.08278899999891
 20
162.4914380000059
 30
0.0
 40
1.6209999999999991
  0
CIRCLE
  5
EB11
  8
MSM_NARROW
 10
158.08278899999891
 20
162.4914380000059
 30
0.0
 40
2.0
  0
CIRCLE
  5
EB12
  8
MSM_CONTINUOUS
 10
158.08278899999891
 20
137.49143800001181
 30
0.0
 40
1.6209999999999991
  0
CIRCLE
  5
EB13
  8
MSM_NARROW
 10
158.08278899999891
 20
137.49143800001181
 30
0.0
 40
2.0
  0
LINE
  5
EB14
  8
MSM_CENTER
 10
145.58278899999931
 20
146.49143800000979
 30
0.0
 11
152.58278899999939
 21
146.49143800000979
 31
0.0
  0
CIRCLE
  5
EB15
  8
MSM_CONTINUOUS
 10
149.08278899999931
 20
146.49143800000979
 30
0.0
 40
1.2295
  0
CIRCLE
  5
EB16
  8
MSM_NARROW
 10
149.08278899999931
 20
146.49143800000979
 30
0.0
 40
1.5
  0
CIRCLE
  5
EB17
  8
MSM_CONTINUOUS
 10
149.08278899999931
 20
162.4914380000059
 30
0.0
 40
1.2295
  0
CIRCLE
  5
EB18
  8
MSM_NARROW
 10
149.08278899999931
 20
162.4914380000059
 30
0.0
 40
1.5
  0
LINE
  5
EB19
  8
MSM_CENTER
 10
145.58278899999931
 20
178.49143800000229
 30
0.0
 11
152.58278899999939
 21
178.49143800000229
 31
0.0
  0
CIRCLE
  5
EB1A
  8
MSM_CONTINUOUS
 10
149.08278899999931
 20
178.49143800000229
 30
0.0
 40
1.2295
  0
CIRCLE
  5
EB1B
  8
MSM_NARROW
 10
149.08278899999931
 20
178.49143800000229
 30
0.0
 40
1.5
  0
LINE
  5
EB1C
  8
MSM_CENTER
 10
108.08278900001569
 20
94.991438000000016
 30
0.0
 11
108.08278900001569
 21
80.491438000000016
 31
0.0
  0
LINE
  5
EB1D
  8
MSM_DASHED
 10
104.08278900001569
 20
87.991438000000016
 30
0.0
 11
112.08278900001589
 21
87.991438000000016
 31
0.0
  0
LINE
  5
EB1E
  8
MSM_DASHED
 10
104.0827890000171
 20
92.491438000000016
 30
0.0
 11
104.0827890000171
 21
87.991438000000016
 31
0.0
  0
LINE
  5
EB1F
  8
MSM_DASHED
 10
112.0827890000146
 20
87.991438000000016
 30
0.0
 11
112.0827890000146
 21
92.491438000000016
 31
0.0
  0
LINE
  5
EB20
  8
MSM_DASHED
 10
105.8327890000166
 20
87.991438000000016
 30
0.0
 11
105.8327890000166
 21
82.491438000000016
 31
0.0
  0
LINE
  5
EB21
  8
MSM_DASHED
 10
110.332789000015
 20
82.491438000000016
 30
0.0
 11
110.332789000015
 21
87.991438000000016
 31
0.0
  0
LINE
  5
EB22
  8
MSM_CENTER
 10
158.08278899999999
 20
94.991438000000016
 30
0.0
 11
158.08278899999999
 21
80.491438000000016
 31
0.0
  0
LINE
  5
EB23
  8
MSM_DASHED
 10
154.08278899999999
 20
87.991438000000016
 30
0.0
 11
162.08278899999999
 21
87.991438000000016
 31
0.0
  0
LINE
  5
EB24
  8
MSM_DASHED
 10
154.08278900000121
 20
92.491438000000016
 30
0.0
 11
154.08278900000121
 21
87.991438000000016
 31
0.0
  0
LINE
  5
EB25
  8
MSM_DASHED
 10
162.08278899999871
 20
87.991438000000016
 30
0.0
 11
162.08278899999871
 21
92.491438000000016
 31
0.0
  0
LINE
  5
EB26
  8
MSM_DASHED
 10
155.8327890000007
 20
87.991438000000016
 30
0.0
 11
155.8327890000007
 21
82.491438000000016
 31
0.0
  0
LINE
  5
EB27
  8
MSM_DASHED
 10
160.33278899999931
 20
82.491438000000016
 30
0.0
 11
160.33278899999931
 21
87.991438000000016
 31
0.0
  0
LINE
  5
EB28
  8
MSM_CENTER
 10
211.36136200001579
 20
94.991438000000016
 30
0.0
 11
211.36136200001579
 21
80.491438000000016
 31
0.0
  0
LINE
  5
EB29
  8
MSM_DASHED
 10
207.36136200001579
 20
87.991438000000016
 30
0.0
 11
215.36136200001599
 21
87.991438000000016
 31
0.0
  0
LINE
  5
EB2A
  8
MSM_DASHED
 10
207.36136200001721
 20
92.491438000000016
 30
0.0
 11
207.36136200001721
 21
87.991438000000016
 31
0.0
  0
LINE
  5
EB2B
  8
MSM_DASHED
 10
215.36136200001471
 20
87.991438000000016
 30
0.0
 11
215.36136200001471
 21
92.491438000000016
 31
0.0
  0
LINE
  5
EB2C
  8
MSM_DASHED
 10
209.1113620000167
 20
87.991438000000016
 30
0.0
 11
209.1113620000167
 21
82.491438000000016
 31
0.0
  0
LINE
  5
EB2D
  8
MSM_DASHED
 10
213.61136200001511
 20
82.491438000000016
 30
0.0
 11
213.61136200001511
 21
87.991438000000016
 31
0.0
  0
LINE
  5
EB2E
  8
MSM_CENTER
 10
261.3613620000001
 20
94.991438000000016
 30
0.0
 11
261.3613620000001
 21
80.491438000000016
 31
0.0
  0
LINE
  5
EB2F
  8
MSM_DASHED
 10
257.3613620000001
 20
87.991438000000016
 30
0.0
 11
265.3613620000001
 21
87.991438000000016
 31
0.0
  0
LINE
  5
EB30
  8
MSM_DASHED
 10
257.36136200000129
 20
92.491438000000016
 30
0.0
 11
257.36136200000129
 21
87.991438000000016
 31
0.0
  0
LINE
  5
EB31
  8
MSM_DASHED
 10
265.36136199999868
 20
87.991438000000016
 30
0.0
 11
265.36136199999868
 21
92.491438000000016
 31
0.0
  0
LINE
  5
EB32
  8
MSM_DASHED
 10
259.11136200000078
 20
87.991438000000016
 30
0.0
 11
259.11136200000078
 21
82.491438000000016
 31
0.0
  0
LINE
  5
EB33
  8
MSM_DASHED
 10
263.61136199999942
 20
82.491438000000016
 30
0.0
 11
263.61136199999942
 21
87.991438000000016
 31
0.0
  0
LINE
  5
EB34
  8
MSM_CONTINUOUS
 10
107.2167635962155
 20
110.9914379999998
 30
0.0
 11
106.35073819243139
 21
112.4914379999998
 31
0.0
  0
LINE
  5
EB35
  8
MSM_CONTINUOUS
 10
108.9488144037846
 20
110.9914379999998
 30
0.0
 11
107.2167635962155
 21
110.9914379999998
 31
0.0
  0
LINE
  5
EB36
  8
MSM_CONTINUOUS
 10
107.2167635962155
 20
113.9914379999998
 30
0.0
 11
108.9488144037846
 21
113.9914379999998
 31
0.0
  0
LINE
  5
EB37
  8
MSM_CONTINUOUS
 10
106.35073819243139
 20
112.4914379999998
 30
0.0
 11
107.2167635962155
 21
113.9914379999998
 31
0.0
  0
CIRCLE
  5
EB38
  8
MSM_CONTINUOUS
 10
-108.08278900000001
 20
112.4914379999998
 30
0.0
 40
3.5000000000000031
210
0.0
220
0.0
230
-1.0
  0
LINE
  5
EB39
  8
MSM_CONTINUOUS
 10
109.8148398075691
 20
112.4914379999998
 30
0.0
 11
108.9488144037846
 21
110.9914379999998
 31
0.0
  0
LINE
  5
EB3A
  8
MSM_CONTINUOUS
 10
108.9488144037846
 20
113.9914379999998
 30
0.0
 11
109.8148398075691
 21
112.4914379999998
 31
0.0
  0
CIRCLE
  5
EB3B
  8
MSM_CONTINUOUS
 10
108.08278900000001
 20
112.4914379999998
 30
0.0
 40
3.9000000000001762
  0
LINE
  5
EB3C
  8
MSM_CONTINUOUS
 10
157.21676359621549
 20
110.9914379999998
 30
0.0
 11
156.35073819243141
 21
112.4914379999998
 31
0.0
  0
LINE
  5
EB3D
  8
MSM_CONTINUOUS
 10
158.94881440378461
 20
110.9914379999998
 30
0.0
 11
157.21676359621549
 21
110.9914379999998
 31
0.0
  0
LINE
  5
EB3E
  8
MSM_CONTINUOUS
 10
157.21676359621549
 20
113.9914379999998
 30
0.0
 11
158.94881440378461
 21
113.9914379999998
 31
0.0
  0
LINE
  5
EB3F
  8
MSM_CONTINUOUS
 10
156.35073819243141
 20
112.4914379999998
 30
0.0
 11
157.21676359621549
 21
113.9914379999998
 31
0.0
  0
CIRCLE
  5
EB40
  8
MSM_CONTINUOUS
 10
-158.08278899999999
 20
112.4914379999998
 30
0.0
 40
3.5000000000000031
210
0.0
220
0.0
230
-1.0
  0
LINE
  5
EB41
  8
MSM_CONTINUOUS
 10
159.81483980756909
 20
112.4914379999998
 30
0.0
 11
158.94881440378461
 21
110.9914379999998
 31
0.0
  0
LINE
  5
EB42
  8
MSM_CONTINUOUS
 10
158.94881440378461
 20
113.9914379999998
 30
0.0
 11
159.81483980756909
 21
112.4914379999998
 31
0.0
  0
CIRCLE
  5
EB43
  8
MSM_CONTINUOUS
 10
158.08278899999999
 20
112.4914379999998
 30
0.0
 40
3.9000000000001762
  0
LINE
  5
EB44
  8
MSM_CONTINUOUS
 10
157.21676359621549
 20
210.99143799999979
 30
0.0
 11
156.35073819243141
 21
212.49143799999979
 31
0.0
  0
LINE
  5
EB45
  8
MSM_CONTINUOUS
 10
158.94881440378461
 20
210.99143799999979
 30
0.0
 11
157.21676359621549
 21
210.99143799999979
 31
0.0
  0
LINE
  5
EB46
  8
MSM_CONTINUOUS
 10
157.21676359621549
 20
213.99143799999979
 30
0.0
 11
158.94881440378461
 21
213.99143799999979
 31
0.0
  0
LINE
  5
EB47
  8
MSM_CONTINUOUS
 10
156.35073819243141
 20
212.49143799999979
 30
0.0
 11
157.21676359621549
 21
213.99143799999979
 31
0.0
  0
CIRCLE
  5
EB48
  8
MSM_CONTINUOUS
 10
-158.08278899999999
 20
212.49143799999979
 30
0.0
 40
3.5000000000000031
210
0.0
220
0.0
230
-1.0
  0
LINE
  5
EB49
  8
MSM_CONTINUOUS
 10
159.81483980756909
 20
212.49143799999979
 30
0.0
 11
158.94881440378461
 21
210.99143799999979
 31
0.0
  0
LINE
  5
EB4A
  8
MSM_CONTINUOUS
 10
158.94881440378461
 20
213.99143799999979
 30
0.0
 11
159.81483980756909
 21
212.49143799999979
 31
0.0
  0
CIRCLE
  5
EB4B
  8
MSM_CONTINUOUS
 10
158.08278899999999
 20
212.49143799999979
 30
0.0
 40
3.9000000000001762
  0
LINE
  5
EB4C
  8
MSM_CONTINUOUS
 10
107.2167635962155
 20
210.99143799999979
 30
0.0
 11
106.35073819243139
 21
212.49143799999979
 31
0.0
  0
LINE
  5
EB4D
  8
MSM_CONTINUOUS
 10
108.9488144037846
 20
210.99143799999979
 30
0.0
 11
107.2167635962155
 21
210.99143799999979
 31
0.0
  0
LINE
  5
EB4E
  8
MSM_CONTINUOUS
 10
107.2167635962155
 20
213.99143799999979
 30
0.0
 11
108.9488144037846
 21
213.99143799999979
 31
0.0
  0
LINE
  5
EB4F
  8
MSM_CONTINUOUS
 10
106.35073819243139
 20
212.49143799999979
 30
0.0
 11
107.2167635962155
 21
213.99143799999979
 31
0.0
  0
CIRCLE
  5
EB50
  8
MSM_CONTINUOUS
 10
-108.08278900000001
 20
212.49143799999979
 30
0.0
 40
3.5000000000000031
210
0.0
220
0.0
230
-1.0
  0
LINE
  5
EB51
  8
MSM_CONTINUOUS
 10
109.8148398075691
 20
212.49143799999979
 30
0.0
 11
108.9488144037846
 21
210.99143799999979
 31
0.0
  0
LINE
  5
EB52
  8
MSM_CONTINUOUS
 10
108.9488144037846
 20
213.99143799999979
 30
0.0
 11
109.8148398075691
 21
212.49143799999979
 31
0.0
  0
CIRCLE
  5
EB53
  8
MSM_CONTINUOUS
 10
108.08278900000001
 20
212.49143799999979
 30
0.0
 40
3.9000000000001762
  0
ENDSEC
  0
EOF
