  0
SECTION
  2
HEADER
  9
$ACADVER
  1
AC1009
  9
$INSBASE
 10
0.0
 20
0.0
 30
0.0
  9
$EXTMIN
 10
382.92665047714797
 20
56.089889170578907
 30
0.0
  9
$EXTMAX
 10
460.15507786958381
 20
115.4655841456854
 30
0.0
  9
$LIMMIN
 10
0.0
 20
0.0
  9
$LIMMAX
 10
297.0
 20
210.0
  9
$ORTHOMODE
 70
     1
  9
$REGENMODE
 70
     1
  9
$FILLMODE
 70
     1
  9
$QTEXTMODE
 70
     0
  9
$MIRRTEXT
 70
     1
  9
$DRAGMODE
 70
     2
  9
$LTSCALE
 40
1.0
  9
$OSMODE
 70
   695
  9
$ATTMODE
 70
     1
  9
$TEXTSIZE
 40
6.4000000000000012
  9
$TRACEWID
 40
0.05
  9
$TEXTSTYLE
  7
STANDARD
  9
$CLAYER
  8
0
  9
$CELTYPE
  6
CONTINUOUS
  9
$CECOLOR
 62
     7
  9
$DIMSCALE
 40
1.0
  9
$DIMASZ
 40
3.0
  9
$DIMEXO
 40
1.0
  9
$DIMDLI
 40
0.0
  9
$DIMRND
 40
0.0
  9
$DIMDLE
 40
0.0
  9
$DIMEXE
 40
1.0
  9
$DIMTP
 40
0.0
  9
$DIMTM
 40
0.0
  9
$DIMTXT
 40
3.2000000000000002
  9
$DIMCEN
 40
0.0
  9
$DIMTSZ
 40
0.0
  9
$DIMTOL
 70
     0
  9
$DIMLIM
 70
     0
  9
$DIMTIH
 70
     0
  9
$DIMTOH
 70
     0
  9
$DIMSE1
 70
     0
  9
$DIMSE2
 70
     0
  9
$DIMTAD
 70
     1
  9
$DIMZIN
 70
     8
  9
$DIMBLK
  1

  9
$DIMASO
 70
     1
  9
$DIMSHO
 70
     1
  9
$DIMPOST
  1

  9
$DIMAPOST
  1

  9
$DIMALT
 70
     0
  9
$DIMALTD
 70
     2
  9
$DIMALTF
 40
0.04
  9
$DIMLFAC
 40
1.0
  9
$DIMTOFL
 70
     1
  9
$DIMTVP
 40
1.0
  9
$DIMTIX
 70
     1
  9
$DIMSOXD
 70
     0
  9
$DIMSAH
 70
     0
  9
$DIMBLK1
  1

  9
$DIMBLK2
  1

  9
$DIMSTYLE
  2
MISUMI
  9
$DIMCLRD
 70
     0
  9
$DIMCLRE
 70
     0
  9
$DIMCLRT
 70
     0
  9
$DIMTFAC
 40
0.6
  9
$DIMGAP
 40
1.0
  9
$LUNITS
 70
     2
  9
$LUPREC
 70
     4
  9
$SKETCHINC
 40
0.1
  9
$FILLETRAD
 40
0.2
  9
$AUNITS
 70
     0
  9
$AUPREC
 70
     0
  9
$MENU
  1
acad
  9
$ELEVATION
 40
0.0
  9
$PELEVATION
 40
0.0
  9
$THICKNESS
 40
0.0
  9
$LIMCHECK
 70
     0
  9
$BLIPMODE
 70
     0
  9
$CHAMFERA
 40
0.5
  9
$CHAMFERB
 40
0.5
  9
$SKPOLY
 70
     0
  9
$TDCREATE
 40
2451464.6006649309
  9
$TDUPDATE
 40
2454739.4550764929
  9
$TDINDWG
 40
0.2971566204
  9
$TDUSRTIMER
 40
0.2971549421
  9
$USRTIMER
 70
     1
  9
$ANGBASE
 50
0.0
  9
$ANGDIR
 70
     0
  9
$PDMODE
 70
     0
  9
$PDSIZE
 40
0.0
  9
$PLINEWID
 40
0.0
  9
$COORDS
 70
     1
  9
$SPLFRAME
 70
     0
  9
$SPLINETYPE
 70
     6
  9
$SPLINESEGS
 70
     8
  9
$ATTDIA
 70
     0
  9
$ATTREQ
 70
     1
  9
$HANDLING
 70
     1
  9
$HANDSEED
  5
1D6F
  9
$SURFTAB1
 70
     6
  9
$SURFTAB2
 70
     6
  9
$SURFTYPE
 70
     6
  9
$SURFU
 70
     6
  9
$SURFV
 70
     6
  9
$UCSNAME
  2

  9
$UCSORG
 10
0.0
 20
0.0
 30
0.0
  9
$UCSXDIR
 10
1.0
 20
0.0
 30
0.0
  9
$UCSYDIR
 10
0.0
 20
1.0
 30
0.0
  9
$PUCSNAME
  2

  9
$PUCSORG
 10
0.0
 20
0.0
 30
0.0
  9
$PUCSXDIR
 10
1.0
 20
0.0
 30
0.0
  9
$PUCSYDIR
 10
0.0
 20
1.0
 30
0.0
  9
$USERI1
 70
     0
  9
$USERI2
 70
     0
  9
$USERI3
 70
     0
  9
$USERI4
 70
     0
  9
$USERI5
 70
     0
  9
$USERR1
 40
0.0
  9
$USERR2
 40
0.0
  9
$USERR3
 40
0.0
  9
$USERR4
 40
0.0
  9
$USERR5
 40
0.0
  9
$WORLDVIEW
 70
     1
  9
$SHADEDGE
 70
     3
  9
$SHADEDIF
 70
    70
  9
$TILEMODE
 70
     1
  9
$MAXACTVP
 70
    16
  9
$PLIMCHECK
 70
     0
  9
$PEXTMIN
 10
1.0000000000000000E+020
 20
1.0000000000000000E+020
 30
1.0000000000000000E+020
  9
$PEXTMAX
 10
-1.0000000000000000E+020
 20
-1.0000000000000000E+020
 30
-1.0000000000000000E+020
  9
$PLIMMIN
 10
0.0
 20
0.0
  9
$PLIMMAX
 10
12.0
 20
9.0
  9
$UNITMODE
 70
     0
  9
$VISRETAIN
 70
     0
  9
$PLINEGEN
 70
     0
  9
$PSLTSCALE
 70
     1
  0
ENDSEC
  0
SECTION
  2
TABLES
  0
TABLE
  2
VPORT
 70
     1
  0
VPORT
  2
*ACTIVE
 70
     0
 10
0.0
 20
0.0
 11
1.0
 21
1.0
 12
430.649363133088
 22
99.176627058828757
 13
0.0
 23
0.0
 14
10.0
 24
10.0
 15
10.0
 25
10.0
 16
0.0
 26
0.0
 36
1.0
 17
0.0
 27
0.0
 37
0.0
 40
86.755680236139597
 41
1.461441213653603
 42
50.0
 43
0.0
 44
0.0
 50
0.0
 51
0.0
 71
     0
 72
   100
 73
     1
 74
     0
 75
     0
 76
     0
 77
     0
 78
     0
  0
ENDTAB
  0
TABLE
  2
LTYPE
 70
     4
  0
LTYPE
  2
CONTINUOUS
 70
     0
  3
Solid line
 72
    65
 73
     0
 40
0.0
  0
LTYPE
  2
CENTER
 70
     0
  3
Center ____ _ ____ _ ____ _ ____ _ ____ _ ____
 72
    65
 73
     4
 40
2.0
 49
1.25
 49
-0.25
 49
0.25
 49
-0.25
  0
LTYPE
  2
DASHED
 70
     0
  3
Dashed __ __ __ __ __ __ __ __ __ __ __ __ __ _
 72
    65
 73
     2
 40
0.75
 49
0.5
 49
-0.25
  0
ENDTAB
  0
TABLE
  2
LAYER
 70
     2
  0
LAYER
  2
0
 70
     0
 62
     7
  6
CONTINUOUS
  0
LAYER
  2
CENTER
 70
     0
 62
     1
  6
CENTER
  0
ENDTAB
  0
TABLE
  2
STYLE
 70
     1
  0
STYLE
  2
STANDARD
 70
     0
 40
0.0
 41
1.0
 50
0.0
 71
     0
 42
6.4000000000000012
  3
txt.shx
  4
bigfont.shx
  0
ENDTAB
  0
TABLE
  2
VIEW
 70
     0
  0
ENDTAB
  0
TABLE
  2
UCS
 70
     0
  0
ENDTAB
  0
TABLE
  2
APPID
 70
     2
  0
APPID
  2
ACAD
 70
     0
  0
APPID
  2
ACAD_PSEXT
 70
     0
  0
ENDTAB
  0
TABLE
  2
DIMSTYLE
 70
     1
  0
DIMSTYLE
  2
MISUMI
 70
     0
  3

  4

  5

  6

  7

 40
1.0
 41
3.0
 42
1.0
 43
0.0
 44
1.0
 45
0.0
 46
0.0
 47
0.0
 48
0.0
140
3.2000000000000002
141
0.0
142
0.0
143
0.04
144
1.0
145
1.0
146
0.6
147
1.0
 71
     0
 72
     0
 73
     0
 74
     0
 75
     0
 76
     0
 77
     1
 78
     8
170
     0
171
     2
172
     1
173
     0
174
     1
175
     0
176
     0
177
     0
178
     0
  0
ENDTAB
  0
ENDSEC
  0
SECTION
  2
BLOCKS
  0
BLOCK
  8
0
  2
$MODEL_SPACE
 70
     0
 10
0.0
 20
0.0
 30
0.0
  3
$MODEL_SPACE
  1

  0
ENDBLK
  5
1D33
  8
0
  0
BLOCK
 67
     1
  8
0
  2
$PAPER_SPACE
 70
     0
 10
0.0
 20
0.0
 30
0.0
  3
$PAPER_SPACE
  1

  0
ENDBLK
  5
1D2F
 67
     1
  8
0
  0
ENDSEC
  0
SECTION
  2
ENTITIES
  0
TEXT
  5
18FC
  8
0
  6
CONTINUOUS
 62
     7
 10
382.92665047714797
 20
63.450017974714612
 30
0.0
 40
4.0
  1
SCSJ 13-8
  0
TEXT
  5
18FD
  8
0
  6
CONTINUOUS
 62
     7
 10
382.92665047714797
 20
56.089889170578928
 30
0.0
 40
4.0
  1
SCSJ 13
  0
LINE
  5
18FE
  8
0
  6
CONTINUOUS
 62
     7
 10
459.15507786958358
 20
113.9655841456854
 30
0.0
 11
459.15507786958398
 21
86.965584145685398
 31
0.0
  0
LINE
  5
18FF
  8
0
  6
CONTINUOUS
 62
     7
 10
451.15507786958392
 20
113.9655841456854
 30
0.0
 11
451.15507786958392
 21
86.965584145685426
 31
0.0
  0
LINE
  5
1900
  8
CENTER
  6
CENTER
 62
     1
 10
455.15507786958398
 20
115.4655841456854
 30
0.0
 11
455.15507786958398
 21
85.465584145685426
 31
0.0
  0
LINE
  5
1901
  8
0
  6
CONTINUOUS
 62
     7
 10
451.65507786958381
 20
86.465584145685426
 30
0.0
 11
458.65507786958381
 21
86.465584145685426
 31
0.0
  0
LINE
  5
1902
  8
CENTER
  6
CENTER
 62
     1
 10
450.15507786958398
 20
100.4655841456854
 30
0.0
 11
460.15507786958381
 21
100.4655841456854
 31
0.0
  0
LINE
  5
1903
  8
0
  6
DASHED
 62
     3
 10
451.65507786958381
 20
106.9655841456854
 30
0.0
 11
458.65507786958381
 21
106.9655841456854
 31
0.0
  0
LINE
  5
1904
  8
0
  6
CONTINUOUS
 62
     7
 10
451.65507786958381
 20
114.4655841456854
 30
0.0
 11
458.65507786958381
 21
114.4655841456854
 31
0.0
  0
LINE
  5
1905
  8
0
  6
CONTINUOUS
 62
     7
 10
451.65507786958381
 20
114.4655841456854
 30
0.0
 11
451.15507786958392
 21
113.9655841456854
 31
0.0
  0
LINE
  5
1906
  8
0
  6
CONTINUOUS
 62
     7
 10
451.15507786958392
 20
86.965584145685426
 30
0.0
 11
451.65507786958381
 21
86.465584145685426
 31
0.0
  0
LINE
  5
1907
  8
0
  6
CONTINUOUS
 62
     7
 10
458.65507786958381
 20
86.465584145685426
 30
0.0
 11
459.15507786958398
 21
86.965584145685398
 31
0.0
  0
LINE
  5
1908
  8
0
  6
CONTINUOUS
 62
     7
 10
458.65507786958381
 20
114.4655841456854
 30
0.0
 11
459.15507786958358
 21
113.9655841456854
 31
0.0
  0
LINE
  5
1909
  8
0
  6
CONTINUOUS
 62
     7
 10
451.65507786958381
 20
114.4655841456854
 30
0.0
 11
451.65507786958381
 21
86.465584145685426
 31
0.0
  0
LINE
  5
190A
  8
0
  6
CONTINUOUS
 62
     7
 10
458.65507786958381
 20
114.4655841456854
 30
0.0
 11
458.65507786958381
 21
86.465584145685426
 31
0.0
  0
LINE
  5
190B
  8
0
  6
DASHED
 62
     3
 10
458.65507786958381
 20
106.9655841456854
 30
0.0
 11
459.15507786958358
 21
107.4655841456853
 31
0.0
  0
LINE
  5
190C
  8
0
  6
DASHED
 62
     3
 10
451.65507786958381
 20
106.9655841456854
 30
0.0
 11
451.15507786958392
 21
107.4655841456853
 31
0.0
  0
LINE
  5
190D
  8
0
  6
DASHED
 62
     3
 10
451.65507786958381
 20
93.965584145685426
 30
0.0
 11
451.15507786958392
 21
93.46558414568544
 31
0.0
  0
LINE
  5
190E
  8
0
  6
DASHED
 62
     3
 10
458.65507786958381
 20
93.965584145685426
 30
0.0
 11
459.15507786958358
 21
93.46558414568544
 31
0.0
  0
LINE
  5
190F
  8
0
  6
DASHED
 62
     3
 10
451.65507786958381
 20
93.965584145685426
 30
0.0
 11
458.65507786958381
 21
93.965584145685426
 31
0.0
  0
LINE
  5
1910
  8
0
  6
DASHED
 62
     3
 10
451.15507786958392
 20
111.4655841456854
 30
0.0
 11
459.15507786958358
 21
111.4655841456854
 31
0.0
  0
LINE
  5
1911
  8
CENTER
  6
CENTER
 62
     1
 10
402.33008674694122
 20
89.465584145685426
 30
0.0
 11
422.72616480131251
 21
89.465584145685426
 31
0.0
  0
LINE
  5
1912
  8
CENTER
  6
CENTER
 62
     1
 10
397.52812577412692
 20
100.4655841456854
 30
0.0
 11
427.52812577412669
 21
100.4655841456854
 31
0.0
  0
LINE
  5
1914
  8
CENTER
  6
CENTER
 62
     1
 10
412.52812577412692
 20
115.4655841456854
 30
0.0
 11
412.52812577412692
 21
85.465584145685426
 31
0.0
  0
LINE
  5
1919
  8
0
  6
CONTINUOUS
 62
     7
 10
413.27812577412692
 20
94.008998360612949
 30
0.0
 11
413.27812577412692
 21
86.485687865669604
 31
0.0
  0
LINE
  5
191E
  8
0
  6
CONTINUOUS
 62
     7
 10
413.27812577412692
 20
111.4655841456854
 30
0.0
 11
413.27812577412692
 21
106.9221699307579
 31
0.0
  0
LINE
  5
191F
  8
0
  6
CONTINUOUS
 62
     7
 10
411.77812577412692
 20
111.4655841456854
 30
0.0
 11
411.77812577412692
 21
106.9221699307579
 31
0.0
  0
LINE
  5
1920
  8
0
  6
CONTINUOUS
 62
     7
 10
411.77812577412692
 20
111.4655841456854
 30
0.0
 11
413.27812577412692
 21
111.4655841456854
 31
0.0
  0
ARC
  5
1921
  8
0
  6
CONTINUOUS
 62
     7
 10
412.52812577412692
 20
100.4655841456854
 30
0.0
 40
6.5
 50
96.625809564822504
 51
263.37419043517599
  0
ARC
  5
1922
  8
0
  6
CONTINUOUS
 62
     7
 10
412.52812577412692
 20
100.4655841456854
 30
0.0
 40
14.0
 50
273.0708868110749
 51
266.92911318892538
  0
LINE
  5
192B
  8
CENTER
  6
CENTER
 62
     1
 10
450.15507786958398
 20
89.465584145685398
 30
0.0
 11
460.15507786958381
 21
89.465584145685398
 31
0.0
  0
LINE
  5
1A91
  8
0
  6
CONTINUOUS
 62
     7
 10
411.77812577412692
 20
94.008998360612949
 30
0.0
 11
411.77812577412698
 21
86.485687865669604
 31
0.0
  0
LINE
  5
1BE4
  8
0
  6
DASHED
 62
     3
 10
413.27812577412692
 20
91.165584145685443
 30
0.0
 11
415.52812577412692
 21
91.165584145685443
 31
0.0
  0
LINE
  5
1BE5
  8
0
  6
DASHED
 62
     3
 10
413.27812577412692
 20
87.765584145685395
 30
0.0
 11
415.52812577412692
 21
87.765584145685395
 31
0.0
  0
LINE
  5
1BE6
  8
0
  6
DASHED
 62
     3
 10
405.75040491826388
 20
88.215584145685426
 30
0.0
 11
411.77812577412692
 21
88.215584145685426
 31
0.0
  0
LINE
  5
1BE7
  8
0
  6
DASHED
 62
     3
 10
406.22336566766762
 20
87.965584145685426
 30
0.0
 11
411.77812577412692
 21
87.965584145685426
 31
0.0
  0
LINE
  5
1BE8
  8
0
  6
DASHED
 62
     3
 10
402.24464387352521
 20
90.965584145685426
 30
0.0
 11
411.77812577412692
 21
90.965584145685426
 31
0.0
  0
LINE
  5
1BE9
  8
0
  6
DASHED
 62
     3
 10
402.4813601254217
 20
90.715584145685398
 30
0.0
 11
411.77812577412692
 21
90.715584145685426
 31
0.0
  0
LINE
  5
1BEA
  8
0
  6
DASHED
 62
     3
 10
415.52812577412692
 20
92.465584145685426
 30
0.0
 11
415.52812577412692
 21
86.790789814508088
 31
0.0
  0
LINE
  5
1BEB
  8
0
  6
DASHED
 62
     3
 10
415.52812577412692
 20
92.465584145685426
 30
0.0
 11
424.01725106720301
 21
92.465584145685426
 31
0.0
  0
CIRCLE
  5
1BF8
  8
0
  6
CONTINUOUS
 62
     7
 10
455.15507786958398
 20
89.465584145685398
 30
0.0
 40
1.7
  0
CIRCLE
  5
1BF9
  8
0
  6
CONTINUOUS
 62
     7
 10
455.15507786958398
 20
89.465584145685398
 30
0.0
 40
1.25
  0
CIRCLE
  5
1BFA
  8
0
  6
CONTINUOUS
 62
     3
 10
455.15507786958398
 20
89.465584145685398
 30
0.0
 40
1.5
  0
ARC
  5
1BFB
  8
0
  6
CONTINUOUS
 62
     7
 10
455.15507786958398
 20
89.465584145685398
 30
0.0
 40
3.0
 50
296.92524324563738
 51
243.0747567543626
  0
LINE
  5
1C56
  8
0
  6
CONTINUOUS
 62
     7
 10
456.51356058419663
 20
86.790789814508088
 30
0.0
 11
453.7965951549711
 21
86.790789814508088
 31
0.0
  0
ARC
  5
1CB3
  8
0
  6
CONTINUOUS
 62
     7
 10
412.52812577412692
 20
100.4655841456854
 30
0.0
 40
13.5
 50
273.18473853672037
 51
266.8152614632798
  0
ARC
  5
1CB4
  8
0
  6
CONTINUOUS
 62
     7
 10
412.52812577412692
 20
100.4655841456854
 30
0.0
 40
7.0
 50
96.15063982794058
 51
263.84936017205848
  0
ARC
  5
1CB5
  8
0
  6
CONTINUOUS
 62
     7
 10
412.52812577412692
 20
100.4655841456854
 30
0.0
 40
7.0
 50
276.15063982794101
 51
83.849360172058951
  0
ARC
  5
1CB6
  8
0
  6
CONTINUOUS
 62
     7
 10
412.52812577412692
 20
100.4655841456854
 30
0.0
 40
6.5
 50
276.62580956482299
 51
83.374190435177013
  0
ENDSEC
  0
EOF
