  0
SECTION
  2
HEADER
  9
$ACADVER
  1
AC1009
  9
$INSBASE
 10
0.0
 20
0.0
 30
0.0
  9
$EXTMIN
 10
70.619980632117972
 20
94.041138293735116
 30
-0.0000000349181948
  9
$EXTMAX
 10
195.7673040404535
 20
168.12561079175859
 30
0.0000000814935747
  9
$LIMMIN
 10
0.0
 20
0.0
  9
$LIMMAX
 10
297.0
 20
210.0
  9
$ORTHOMODE
 70
     1
  9
$REGENMODE
 70
     1
  9
$FILLMODE
 70
     1
  9
$QTEXTMODE
 70
     0
  9
$MIRRTEXT
 70
     1
  9
$DRAGMODE
 70
     2
  9
$LTSCALE
 40
1.0
  9
$OSMODE
 70
   695
  9
$ATTMODE
 70
     1
  9
$TEXTSIZE
 40
6.4000000000000012
  9
$TRACEWID
 40
0.05
  9
$TEXTSTYLE
  7
STANDARD
  9
$CLAYER
  8
0
  9
$CELTYPE
  6
BYLAYER
  9
$CECOLOR
 62
   256
  9
$DIMSCALE
 40
1.0
  9
$DIMASZ
 40
3.0
  9
$DIMEXO
 40
1.0
  9
$DIMDLI
 40
0.0
  9
$DIMRND
 40
0.0
  9
$DIMDLE
 40
0.0
  9
$DIMEXE
 40
1.0
  9
$DIMTP
 40
0.0
  9
$DIMTM
 40
0.0
  9
$DIMTXT
 40
3.2000000000000002
  9
$DIMCEN
 40
0.0
  9
$DIMTSZ
 40
0.0
  9
$DIMTOL
 70
     0
  9
$DIMLIM
 70
     0
  9
$DIMTIH
 70
     0
  9
$DIMTOH
 70
     0
  9
$DIMSE1
 70
     0
  9
$DIMSE2
 70
     0
  9
$DIMTAD
 70
     1
  9
$DIMZIN
 70
     8
  9
$DIMBLK
  1

  9
$DIMASO
 70
     1
  9
$DIMSHO
 70
     1
  9
$DIMPOST
  1

  9
$DIMAPOST
  1

  9
$DIMALT
 70
     0
  9
$DIMALTD
 70
     2
  9
$DIMALTF
 40
0.04
  9
$DIMLFAC
 40
1.0
  9
$DIMTOFL
 70
     1
  9
$DIMTVP
 40
1.0
  9
$DIMTIX
 70
     1
  9
$DIMSOXD
 70
     0
  9
$DIMSAH
 70
     0
  9
$DIMBLK1
  1

  9
$DIMBLK2
  1

  9
$DIMSTYLE
  2
MISUMI
  9
$DIMCLRD
 70
     0
  9
$DIMCLRE
 70
     0
  9
$DIMCLRT
 70
     0
  9
$DIMTFAC
 40
0.6
  9
$DIMGAP
 40
1.0
  9
$LUNITS
 70
     2
  9
$LUPREC
 70
     4
  9
$SKETCHINC
 40
0.1
  9
$FILLETRAD
 40
0.3
  9
$AUNITS
 70
     0
  9
$AUPREC
 70
     0
  9
$MENU
  1
acad
  9
$ELEVATION
 40
0.0
  9
$PELEVATION
 40
0.0
  9
$THICKNESS
 40
0.0
  9
$LIMCHECK
 70
     0
  9
$BLIPMODE
 70
     0
  9
$CHAMFERA
 40
0.5
  9
$CHAMFERB
 40
0.5
  9
$SKPOLY
 70
     0
  9
$TDCREATE
 40
2451464.6006649309
  9
$TDUPDATE
 40
2454736.6909527672
  9
$TDINDWG
 40
0.1790940046
  9
$TDUSRTIMER
 40
0.1790926968
  9
$USRTIMER
 70
     1
  9
$ANGBASE
 50
0.0
  9
$ANGDIR
 70
     0
  9
$PDMODE
 70
     0
  9
$PDSIZE
 40
0.0
  9
$PLINEWID
 40
0.0
  9
$COORDS
 70
     1
  9
$SPLFRAME
 70
     0
  9
$SPLINETYPE
 70
     6
  9
$SPLINESEGS
 70
     8
  9
$ATTDIA
 70
     0
  9
$ATTREQ
 70
     1
  9
$HANDLING
 70
     1
  9
$HANDSEED
  5
BC9
  9
$SURFTAB1
 70
     6
  9
$SURFTAB2
 70
     6
  9
$SURFTYPE
 70
     6
  9
$SURFU
 70
     6
  9
$SURFV
 70
     6
  9
$UCSNAME
  2

  9
$UCSORG
 10
0.0
 20
0.0
 30
0.0
  9
$UCSXDIR
 10
1.0
 20
0.0
 30
0.0
  9
$UCSYDIR
 10
0.0
 20
1.0
 30
0.0
  9
$PUCSNAME
  2

  9
$PUCSORG
 10
0.0
 20
0.0
 30
0.0
  9
$PUCSXDIR
 10
1.0
 20
0.0
 30
0.0
  9
$PUCSYDIR
 10
0.0
 20
1.0
 30
0.0
  9
$USERI1
 70
     0
  9
$USERI2
 70
     0
  9
$USERI3
 70
     0
  9
$USERI4
 70
     0
  9
$USERI5
 70
     0
  9
$USERR1
 40
0.0
  9
$USERR2
 40
0.0
  9
$USERR3
 40
0.0
  9
$USERR4
 40
0.0
  9
$USERR5
 40
0.0
  9
$WORLDVIEW
 70
     1
  9
$SHADEDGE
 70
     3
  9
$SHADEDIF
 70
    70
  9
$TILEMODE
 70
     1
  9
$MAXACTVP
 70
    16
  9
$PLIMCHECK
 70
     0
  9
$PEXTMIN
 10
1.0000000000000000E+020
 20
1.0000000000000000E+020
 30
1.0000000000000000E+020
  9
$PEXTMAX
 10
-1.0000000000000000E+020
 20
-1.0000000000000000E+020
 30
-1.0000000000000000E+020
  9
$PLIMMIN
 10
0.0
 20
0.0
  9
$PLIMMAX
 10
12.0
 20
9.0
  9
$UNITMODE
 70
     0
  9
$VISRETAIN
 70
     0
  9
$PLINEGEN
 70
     0
  9
$PSLTSCALE
 70
     1
  0
ENDSEC
  0
SECTION
  2
TABLES
  0
TABLE
  2
VPORT
 70
     1
  0
VPORT
  2
*ACTIVE
 70
     0
 10
0.0
 20
0.0
 11
1.0
 21
1.0
 12
133.19364233628571
 22
131.08337454274681
 13
0.0
 23
0.0
 14
10.0
 24
10.0
 15
10.0
 25
10.0
 16
0.0
 26
0.0
 36
1.0
 17
0.0
 27
0.0
 37
0.0
 40
86.076713638134166
 41
1.461441213653603
 42
50.0
 43
0.0
 44
0.0
 50
0.0
 51
0.0
 71
     0
 72
   100
 73
     1
 74
     0
 75
     0
 76
     0
 77
     0
 78
     0
  0
ENDTAB
  0
TABLE
  2
LTYPE
 70
     3
  0
LTYPE
  2
CONTINUOUS
 70
     0
  3
Solid line
 72
    65
 73
     0
 40
0.0
  0
LTYPE
  2
CENTER
 70
     0
  3
Center ____ _ ____ _ ____ _ ____ _ ____ _ ____
 72
    65
 73
     4
 40
2.0
 49
1.25
 49
-0.25
 49
0.25
 49
-0.25
  0
LTYPE
  2
DASHED
 70
     0
  3
Dashed __ __ __ __ __ __ __ __ __ __ __ __ __ _
 72
    65
 73
     2
 40
0.75
 49
0.5
 49
-0.25
  0
ENDTAB
  0
TABLE
  2
LAYER
 70
     3
  0
LAYER
  2
0
 70
     0
 62
     7
  6
CONTINUOUS
  0
LAYER
  2
DEFPOINTS
 70
     0
 62
     7
  6
CONTINUOUS
  0
LAYER
  2
CENTER
 70
     0
 62
     1
  6
CENTER
  0
ENDTAB
  0
TABLE
  2
STYLE
 70
     1
  0
STYLE
  2
STANDARD
 70
     0
 40
0.0
 41
1.0
 50
0.0
 71
     0
 42
6.4000000000000012
  3
txt
  4

  0
ENDTAB
  0
TABLE
  2
VIEW
 70
     0
  0
ENDTAB
  0
TABLE
  2
UCS
 70
     0
  0
ENDTAB
  0
TABLE
  2
APPID
 70
     1
  0
APPID
  2
ACAD
 70
     0
  0
ENDTAB
  0
TABLE
  2
DIMSTYLE
 70
     1
  0
DIMSTYLE
  2
MISUMI
 70
     0
  3

  4

  5

  6

  7

 40
1.0
 41
3.0
 42
1.0
 43
0.0
 44
1.0
 45
0.0
 46
0.0
 47
0.0
 48
0.0
140
3.2000000000000002
141
0.0
142
0.0
143
0.04
144
1.0
145
1.0
146
0.6
147
1.0
 71
     0
 72
     0
 73
     0
 74
     0
 75
     0
 76
     0
 77
     1
 78
     8
170
     0
171
     2
172
     1
173
     0
174
     1
175
     0
176
     0
177
     0
178
     0
  0
ENDTAB
  0
ENDSEC
  0
SECTION
  2
BLOCKS
  0
BLOCK
  8
0
  2
$MODEL_SPACE
 70
     0
 10
0.0
 20
0.0
 30
0.0
  3
$MODEL_SPACE
  1

  0
ENDBLK
  5
BA5
  8
0
  0
BLOCK
 67
     1
  8
0
  2
$PAPER_SPACE
 70
     0
 10
0.0
 20
0.0
 30
0.0
  3
$PAPER_SPACE
  1

  0
ENDBLK
  5
BA1
 67
     1
  8
0
  0
ENDSEC
  0
SECTION
  2
ENTITIES
  0
ARC
  5
B23
  8
0
  6
CONTINUOUS
 62
     7
 10
119.29431599241219
 20
148.12235040111881
 30
0.0
 40
17.5
 50
272.45628572358203
 51
267.54371427641792
  0
ARC
  5
B24
  8
0
  6
CONTINUOUS
 62
     7
 10
119.29431599241219
 20
148.12235040111881
 30
0.0
 40
6.5
 50
96.625809564822902
 51
263.37419043517713
  0
ARC
  5
B25
  8
0
  6
CONTINUOUS
 62
     7
 10
119.29431599241219
 20
148.12235040111881
 30
0.0
 40
17.0
 50
272.52857568727239
 51
267.47142431272749
  0
ARC
  5
B26
  8
0
  6
CONTINUOUS
 62
     7
 10
119.29431599241219
 20
148.12235040111881
 30
0.0
 40
6.5
 50
276.62580956482282
 51
83.374190435177141
  0
LINE
  5
B27
  8
CENTER
  6
CENTER
 62
     1
 10
119.29431599241219
 20
167.6278651849087
 30
0.0
 11
119.29431599241219
 21
128.6168356173288
 31
0.0
  0
TEXT
  5
B28
  8
0
  6
CONTINUOUS
 62
     7
 10
70.638356231201954
 20
94.053882970612449
 30
0.0
 40
4.0
  1
SCD13
  0
TEXT
  5
B29
  8
0
  6
CONTINUOUS
 62
     7
 10
70.638356231201954
 20
109.05388297061241
 30
0.0
 40
4.0
  1
SCD13
  0
LINE
  5
B2A
  8
0
  6
DASHED
 62
     3
 10
104.0532530373555
 20
139.5223504011189
 30
0.0
 11
118.54431599241219
 21
139.5223504011189
 31
0.0
  0
LINE
  5
B2B
  8
0
  6
DASHED
 62
     3
 10
103.7299335761389
 20
140.12235040111881
 30
0.0
 11
118.54431599241219
 21
140.12235040111881
 31
0.0
  0
LINE
  5
B2E
  8
CENTER
  6
CENTER
 62
     1
 10
135.31436529933481
 20
137.12235040111869
 30
0.0
 11
103.27426668548949
 21
137.12235040111869
 31
0.0
  0
LINE
  5
B2F
  8
CENTER
  6
CENTER
 62
     1
 10
138.7998307762021
 20
148.12235040111881
 30
0.0
 11
99.788801208622502
 21
148.12235040111881
 31
0.0
  0
LINE
  5
B30
  8
0
  6
DASHED
 62
     3
 10
125.29431599241219
 20
143.12235040111881
 30
0.0
 11
136.06482582366061
 21
143.12235040111881
 31
0.0
  0
LINE
  5
B31
  8
0
  6
CONTINUOUS
 62
     7
 10
120.04431599241219
 20
141.66576461604629
 30
0.0
 11
120.04431599241219
 21
130.63842921621301
 31
0.0
  0
LINE
  5
B32
  8
0
  6
DASHED
 62
     3
 10
125.29431599241219
 20
143.12235040111881
 30
0.0
 11
125.29431599241219
 21
131.6830681783452
 31
0.0
  0
LINE
  5
B33
  8
0
  6
CONTINUOUS
 62
     7
 10
118.54431599241219
 20
141.66576461604629
 30
0.0
 11
118.54431599241219
 21
130.63842921621301
 31
0.0
  0
LINE
  5
B34
  8
0
  6
DASHED
 62
     3
 10
120.04431599241219
 20
133.62235040111881
 30
0.0
 11
125.29431599241219
 21
133.62235040111881
 31
0.0
  0
LINE
  5
B35
  8
0
  6
DASHED
 62
     3
 10
120.04431599241219
 20
140.62235040111881
 30
0.0
 11
125.29431599241219
 21
140.62235040111889
 31
0.0
  0
LINE
  5
B38
  8
0
  6
CONTINUOUS
 62
     7
 10
120.04431599241219
 20
160.62235040111861
 30
0.0
 11
120.04431599241219
 21
154.5789361861913
 31
0.0
  0
LINE
  5
B39
  8
0
  6
CONTINUOUS
 62
     7
 10
118.54431599241219
 20
160.62235040111861
 30
0.0
 11
118.54431599241219
 21
154.5789361861913
 31
0.0
  0
LINE
  5
B3A
  8
0
  6
CONTINUOUS
 62
     7
 10
120.04431599241219
 20
160.62235040111861
 30
0.0
 11
118.54431599241219
 21
160.62235040111861
 31
0.0
  0
LINE
  5
B3B
  8
0
  6
CONTINUOUS
 62
     7
 10
193.2585422240243
 20
165.12235040111881
 30
0.0
 11
193.25854222402441
 21
131.12235040111881
 31
0.0
  0
LINE
  5
B3C
  8
0
  6
CONTINUOUS
 62
     7
 10
192.7585422240245
 20
165.62235040111881
 30
0.0
 11
192.7585422240245
 21
130.62235040111881
 31
0.0
  0
LINE
  5
B3D
  8
0
  6
CONTINUOUS
 62
     7
 10
178.25854222402421
 20
165.62235040111881
 30
0.0
 11
178.25854222402421
 21
130.62235040111881
 31
0.0
  0
LINE
  5
B3E
  8
0
  6
CONTINUOUS
 62
     7
 10
175.25854222402441
 20
165.12235040111881
 30
0.0
 11
175.25854222402441
 21
131.12235040111881
 31
0.0
  0
LINE
  5
B3F
  8
CENTER
  6
CENTER
 62
     1
 10
185.75854222402441
 20
168.12235040111861
 30
0.0
 11
185.75854222402441
 21
130.62235040111881
 31
0.0
  0
LINE
  5
B40
  8
0
  6
DASHED
 62
     3
 10
192.7585422240245
 20
141.62235040111881
 30
0.0
 11
175.7585422240243
 21
141.62235040111881
 31
0.0
  0
LINE
  5
B41
  8
0
  6
CONTINUOUS
 62
     7
 10
192.7585422240245
 20
130.62235040111881
 30
0.0
 11
175.75854222402441
 21
130.62235040111881
 31
0.0
  0
CIRCLE
  5
B42
  8
0
  6
CONTINUOUS
 62
     3
 10
185.75854222402441
 20
137.12235040111869
 30
0.0
 40
3.0
  0
CIRCLE
  5
B43
  8
0
  6
CONTINUOUS
 62
     7
 10
185.75854222402441
 20
137.12235040111869
 30
0.0
 40
3.5
  0
CIRCLE
  5
B44
  8
0
  6
CONTINUOUS
 62
     7
 10
185.75854222402441
 20
137.12235040111869
 30
0.0
 40
2.399999999999999
  0
ARC
  5
B45
  8
0
  6
CONTINUOUS
 62
     7
 10
185.75854222402751
 20
137.12235040111869
 30
0.0
 40
6.0
 50
0.000000000000007
 51
180.0
  0
LINE
  5
B46
  8
0
  6
CONTINUOUS
 62
     7
 10
191.75854222402771
 20
131.68306817834531
 30
0.0
 11
179.75854222402751
 21
131.6830681783452
 31
0.0
  0
LINE
  5
B47
  8
CENTER
  6
CENTER
 62
     1
 10
195.3585422240244
 20
137.12235040111869
 30
0.0
 11
176.15854222402439
 21
137.12235040111869
 31
0.0
  0
LINE
  5
B48
  8
CENTER
  6
CENTER
 62
     1
 10
195.75854222402441
 20
148.12235040111881
 30
0.0
 11
173.37972520665679
 21
148.12235040111881
 31
0.0
  0
LINE
  5
B49
  8
0
  6
CONTINUOUS
 62
     7
 10
191.75854222402771
 20
137.12235040111869
 30
0.0
 11
191.75854222402771
 21
131.6830681783452
 31
0.0
  0
LINE
  5
B4A
  8
0
  6
CONTINUOUS
 62
     7
 10
193.25854222402441
 20
131.12235040111881
 30
0.0
 11
192.7585402240245
 21
130.62234840111881
 31
0.0
  0
LINE
  5
B4B
  8
0
  6
CONTINUOUS
 62
     7
 10
179.75854222402751
 20
137.12235040111869
 30
0.0
 11
179.75854222402751
 21
131.6830681783452
 31
0.0
  0
LINE
  5
B4C
  8
0
  6
CONTINUOUS
 62
     7
 10
192.7585422240245
 20
165.62235040111881
 30
0.0
 11
175.75854222402441
 21
165.62235040111881
 31
0.0
  0
LINE
  5
B4D
  8
0
  6
DASHED
 62
     3
 10
192.75854222402441
 20
154.62235040111861
 30
0.0
 11
175.75854222402441
 21
154.62235040111861
 31
0.0
  0
LINE
  5
B4E
  8
0
  6
DASHED
 62
     3
 10
193.25854222402441
 20
160.62235040111861
 30
0.0
 11
175.25854222402441
 21
160.62235040111861
 31
0.0
  0
LINE
  5
B4F
  8
0
  6
CONTINUOUS
 62
     7
 10
193.2585422240243
 20
165.12235040111881
 30
0.0
 11
192.7585402240245
 21
165.62235240111869
 31
0.0
  0
LINE
  5
B55
  8
0
  6
DASHED
 62
     3
 10
108.03865075218761
 20
134.7223504011188
 30
0.0
 11
118.54431599241219
 21
134.7223504011188
 31
0.0
  0
LINE
  5
B56
  8
0
  6
DASHED
 62
     3
 10
108.794315992412
 20
134.12235040111881
 30
0.0
 11
118.54431599241219
 21
134.12235040111881
 31
0.0
  0
ARC
  5
B57
  8
0
  6
CONTINUOUS
 62
     7
 10
119.29431599241219
 20
148.12235040111881
 30
0.0
 40
7.0
 50
96.150639827940907
 51
263.84936017205888
  0
ARC
  5
B58
  8
0
  6
CONTINUOUS
 62
     7
 10
119.29431599241219
 20
148.12235040111881
 30
0.0
 40
7.0
 50
276.15063982794101
 51
83.849360172058866
  0
LINE
  5
B59
  8
0
  6
CONTINUOUS
 62
     7
 10
175.75854222402441
 20
130.62235040111881
 30
0.0
 11
175.25854222402441
 21
131.12235040111881
 31
0.0
  0
LINE
  5
B5A
  8
0
  6
CONTINUOUS
 62
     7
 10
175.25854222402441
 20
165.12235040111881
 30
0.0
 11
175.75854222402441
 21
165.62235040111881
 31
0.0
  0
LINE
  5
B5B
  8
0
  6
DASHED
 62
     3
 10
175.2585422240245
 20
155.12235040111861
 30
0.0
 11
175.75854222402441
 21
154.62235040111861
 31
0.0
  0
LINE
  5
B5C
  8
0
  6
DASHED
 62
     3
 10
175.2585422240245
 20
141.12235040111881
 30
0.0
 11
175.75854222402441
 21
141.62235040111881
 31
0.0
  0
LINE
  5
B5D
  8
0
  6
DASHED
 62
     3
 10
193.25854222402441
 20
141.12235040111881
 30
0.0
 11
192.75854222402441
 21
141.62235040111881
 31
0.0
  0
LINE
  5
B5E
  8
0
  6
DASHED
 62
     3
 10
193.25854222402441
 20
155.12235040111861
 30
0.0
 11
192.75854222402441
 21
154.62235040111861
 31
0.0
  0
LINE
  5
B5F
  8
0
  6
CONTINUOUS
 62
     7
 10
175.75854222402441
 20
165.62235040111881
 30
0.0
 11
175.75854222402441
 21
130.62235040111881
 31
0.0
  0
LINE
  5
B60
  8
0
  6
DASHED
 62
     3
 10
175.75854222402441
 20
154.62235040111861
 30
0.0
 11
175.75854222402441
 21
141.62235040111881
 31
0.0
  0
LINE
  5
B61
  8
0
  6
DASHED
 62
     3
 10
192.75854222402441
 20
154.62235040111861
 30
0.0
 11
192.7585422240245
 21
141.62235040111881
 31
0.0
  0
ENDSEC
  0
EOF
