  0
SECTION
  2
HEADER
  9
$ACADVER
  1
AC1009
  9
$INSBASE
 10
0.0
 20
0.0
 30
0.0
  9
$EXTMIN
 10
-1.012846920188508
 20
-23.009764879953309
 30
-0.0015258207003583
  9
$EXTMAX
 10
51.342346742449308
 20
117.00488334801631
 30
0.0000000349246037
  9
$LIMMIN
 10
0.0
 20
0.0
  9
$LIMMAX
 10
420.0
 20
297.0
  9
$ORTHOMODE
 70
     0
  9
$REGENMODE
 70
     1
  9
$FILLMODE
 70
     1
  9
$QTEXTMODE
 70
     0
  9
$MIRRTEXT
 70
     0
  9
$DRAGMODE
 70
     2
  9
$LTSCALE
 40
0.5
  9
$OSMODE
 70
  3071
  9
$ATTMODE
 70
     1
  9
$TEXTSIZE
 40
3.0
  9
$TRACEWID
 40
1.0
  9
$TEXTSTYLE
  7
STANDARD
  9
$CLAYER
  8
MSM_CONTINUOUS
  9
$CELTYPE
  6
BYLAYER
  9
$CECOLOR
 62
   256
  9
$DIMSCALE
 40
1.0
  9
$DIMASZ
 40
2.5
  9
$DIMEXO
 40
0.625
  9
$DIMDLI
 40
3.75
  9
$DIMRND
 40
0.0
  9
$DIMDLE
 40
0.0
  9
$DIMEXE
 40
1.25
  9
$DIMTP
 40
0.0
  9
$DIMTM
 40
0.0
  9
$DIMTXT
 40
3.0
  9
$DIMCEN
 40
2.5
  9
$DIMTSZ
 40
0.0
  9
$DIMTOL
 70
     0
  9
$DIMLIM
 70
     0
  9
$DIMTIH
 70
     0
  9
$DIMTOH
 70
     0
  9
$DIMSE1
 70
     0
  9
$DIMSE2
 70
     0
  9
$DIMTAD
 70
     1
  9
$DIMZIN
 70
     8
  9
$DIMBLK
  1
OPEN30
  9
$DIMASO
 70
     1
  9
$DIMSHO
 70
     1
  9
$DIMPOST
  1

  9
$DIMAPOST
  1

  9
$DIMALT
 70
     0
  9
$DIMALTD
 70
     3
  9
$DIMALTF
 40
0.03937007874016
  9
$DIMLFAC
 40
1.0
  9
$DIMTOFL
 70
     1
  9
$DIMTVP
 40
0.0
  9
$DIMTIX
 70
     0
  9
$DIMSOXD
 70
     0
  9
$DIMSAH
 70
     0
  9
$DIMBLK1
  1

  9
$DIMBLK2
  1

  9
$DIMSTYLE
  2
MISUMI
  9
$DIMCLRD
 70
   256
  9
$DIMCLRE
 70
   256
  9
$DIMCLRT
 70
   256
  9
$DIMTFAC
 40
1.0
  9
$DIMGAP
 40
0.625
  9
$LUNITS
 70
     2
  9
$LUPREC
 70
     2
  9
$SKETCHINC
 40
1.0
  9
$FILLETRAD
 40
0.0
  9
$AUNITS
 70
     0
  9
$AUPREC
 70
     0
  9
$MENU
  1
.
  9
$ELEVATION
 40
0.0
  9
$PELEVATION
 40
0.0
  9
$THICKNESS
 40
0.0
  9
$LIMCHECK
 70
     0
  9
$BLIPMODE
 70
     0
  9
$CHAMFERA
 40
0.5
  9
$CHAMFERB
 40
0.5
  9
$SKPOLY
 70
     0
  9
$TDCREATE
 40
2455135.5720697111
  9
$TDUPDATE
 40
2458151.616404769
  9
$TDINDWG
 40
0.7017925
  9
$TDUSRTIMER
 40
2458096.2201818628
  9
$USRTIMER
 70
     1
  9
$ANGBASE
 50
0.0
  9
$ANGDIR
 70
     0
  9
$PDMODE
 70
    35
  9
$PDSIZE
 40
0.0
  9
$PLINEWID
 40
0.0
  9
$COORDS
 70
     0
  9
$SPLFRAME
 70
     0
  9
$SPLINETYPE
 70
     6
  9
$SPLINESEGS
 70
     8
  9
$ATTDIA
 70
     0
  9
$ATTREQ
 70
     1
  9
$HANDLING
 70
     1
  9
$HANDSEED
  5
E5B9
  9
$SURFTAB1
 70
     6
  9
$SURFTAB2
 70
     6
  9
$SURFTYPE
 70
     6
  9
$SURFU
 70
     6
  9
$SURFV
 70
     6
  9
$UCSNAME
  2

  9
$UCSORG
 10
0.0
 20
0.0
 30
0.0
  9
$UCSXDIR
 10
1.0
 20
0.0
 30
0.0
  9
$UCSYDIR
 10
0.0
 20
1.0
 30
0.0
  9
$PUCSNAME
  2

  9
$PUCSORG
 10
0.0
 20
0.0
 30
0.0
  9
$PUCSXDIR
 10
1.0
 20
0.0
 30
0.0
  9
$PUCSYDIR
 10
0.0
 20
1.0
 30
0.0
  9
$USERI1
 70
     0
  9
$USERI2
 70
     0
  9
$USERI3
 70
     0
  9
$USERI4
 70
     0
  9
$USERI5
 70
     0
  9
$USERR1
 40
0.0
  9
$USERR2
 40
0.0
  9
$USERR3
 40
0.0
  9
$USERR4
 40
0.0
  9
$USERR5
 40
0.0
  9
$WORLDVIEW
 70
     1
  9
$SHADEDGE
 70
     3
  9
$SHADEDIF
 70
    70
  9
$TILEMODE
 70
     1
  9
$MAXACTVP
 70
    64
  9
$PLIMCHECK
 70
     0
  9
$PEXTMIN
 10
0.0
 20
0.0
 30
0.0
  9
$PEXTMAX
 10
0.0
 20
0.0
 30
0.0
  9
$PLIMMIN
 10
0.0
 20
0.0
  9
$PLIMMAX
 10
12.0
 20
9.0
  9
$UNITMODE
 70
     0
  9
$VISRETAIN
 70
     1
  9
$PLINEGEN
 70
     0
  9
$PSLTSCALE
 70
     1
  0
ENDSEC
  0
SECTION
  2
TABLES
  0
TABLE
  2
VPORT
 70
     1
  0
VPORT
  2
*ACTIVE
 70
     0
 10
0.0
 20
0.0
 11
1.0
 21
1.0
 12
25.164749911130389
 22
46.997559234031478
 13
0.0
 23
0.0
 14
10.0
 24
10.0
 15
10.0
 25
10.0
 16
0.0
 26
0.0
 36
1.0
 17
0.0
 27
0.0
 37
0.0
 40
141.13926387638699
 41
2.0898123324396778
 42
50.0
 43
0.0
 44
0.0
 50
0.0
 51
0.0
 71
    16
 72
  1000
 73
     1
 74
     3
 75
     0
 76
     0
 77
     0
 78
     0
  0
ENDTAB
  0
TABLE
  2
LTYPE
 70
     3
  0
LTYPE
  2
CONTINUOUS
 70
     0
  3
Solid line
 72
    65
 73
     0
 40
0.0
  0
LTYPE
  2
CENTER
 70
     0
  3
Center ____ _ ____ _ ____ _ ____ _ ____ _ ____
 72
    65
 73
     4
 40
50.799999999999997
 49
31.75
 49
-6.3499999999999988
 49
6.3499999999999988
 49
-6.3499999999999988
  0
LTYPE
  2
DASHED
 70
     0
  3
Dashed __ __ __ __ __ __ __ __ __ __ __ __ __ _
 72
    65
 73
     2
 40
19.050000000000001
 49
12.699999999999999
 49
-6.3499999999999988
  0
ENDTAB
  0
TABLE
  2
LAYER
 70
     6
  0
LAYER
  2
0
 70
     0
 62
     7
  6
CONTINUOUS
  0
LAYER
  2
MSM_CENTER
 70
     0
 62
     1
  6
CENTER
  0
LAYER
  2
MSM_CONTINUOUS
 70
     0
 62
     7
  6
CONTINUOUS
  0
LAYER
  2
MSM_DASHED
 70
     0
 62
     4
  6
DASHED
  0
LAYER
  2
MSM_NARROW
 70
     0
 62
     5
  6
CONTINUOUS
  0
LAYER
  2
MSM_PART_NUMBER
 70
     0
 62
     7
  6
CONTINUOUS
  0
ENDTAB
  0
TABLE
  2
STYLE
 70
     1
  0
STYLE
  2
STANDARD
 70
     0
 40
3.0
 41
1.0
 50
0.0
 71
     0
 42
3.0
  3
txt.shx
  4
bigfont.shx
  0
ENDTAB
  0
TABLE
  2
VIEW
 70
     0
  0
ENDTAB
  0
TABLE
  2
UCS
 70
     0
  0
ENDTAB
  0
TABLE
  2
APPID
 70
    25
  0
APPID
  2
ACAD
 70
     0
  0
APPID
  2
ACAD_MLEADERVER
 70
     0
  0
APPID
  2
ACAD_EXEMPT_FROM_CAD_STANDARDS
 70
     0
  0
APPID
  2
ACDBBLOCKREPETAG
 70
     0
  0
APPID
  2
ACAD_DSTYLE_DIMJOGGED_JOGA
 70
     0
  0
APPID
  2
ACAECLAYERSTANDARD
 70
     0
  0
APPID
  2
GENIUS_GENODEF_13
 70
     0
  0
APPID
  2
GENIUS_GENOBJ-N-FIL_13
 70
     0
  0
APPID
  2
ACAD_PSEXT
 70
     0
  0
APPID
  2
ACAD_DSTYLE_DIMRADIAL_EXTENSION
 70
     0
  0
APPID
  2
ACDBDYNAMICBLOCKTRUENAME
 70
     0
  0
APPID
  2
ACDBDYNAMICBLOCKGUID
 70
     0
  0
APPID
  2
ACDBBLOCKREPBTAG
 70
     0
  0
APPID
  2
ACAUTHENVIRON
 70
     0
  0
APPID
  2
GRADIENTCOLOR1ACI
 70
     0
  0
APPID
  2
GRADIENTCOLOR2ACI
 70
     0
  0
APPID
  2
ACAD_DSTYLE_DIMJAG
 70
     0
  0
APPID
  2
ACAD_DSTYLE_DIMTALN
 70
     0
  0
APPID
  2
ACCMTRANSPARENCY
 70
     0
  0
APPID
  2
ACAD_DSTYLE_DIMBREAK
 70
     0
  0
APPID
  2
ACAD_DSTYLE_DIMFLIPARROW_W
 70
     0
  0
APPID
  2
ACAD_DSTYLE_DIM_LINETYPE
 70
     0
  0
APPID
  2
ACAD_DSTYLE_DIM_EXT1_LINETYPE
 70
     0
  0
APPID
  2
ACAD_DSTYLE_DIM_EXT2_LINETYPE
 70
     0
  0
APPID
  2
ACAD_NAV_VCDISPLAY
 70
     0
  0
ENDTAB
  0
TABLE
  2
DIMSTYLE
 70
     1
  0
DIMSTYLE
  2
MISUMI
 70
     0
  3

  4

  5
OPEN30
  6

  7

 40
1.0
 41
2.5
 42
0.625
 43
3.75
 44
1.25
 45
0.0
 46
0.0
 47
0.0
 48
0.0
140
3.0
141
2.5
142
0.0
143
0.03937007874016
144
1.0
145
0.0
146
1.0
147
0.625
 71
     0
 72
     0
 73
     0
 74
     0
 75
     0
 76
     0
 77
     1
 78
     8
170
     0
171
     3
172
     1
173
     0
174
     0
175
     0
176
   256
177
   256
178
   256
  0
ENDTAB
  0
ENDSEC
  0
SECTION
  2
BLOCKS
  0
BLOCK
  8
0
  2
$MODEL_SPACE
 70
     0
 10
0.0
 20
0.0
 30
0.0
  3
$MODEL_SPACE
  1

  0
ENDBLK
  5
21
  8
0
  0
BLOCK
 67
     1
  8
0
  2
$PAPER_SPACE
 70
     0
 10
0.0
 20
0.0
 30
0.0
  3
$PAPER_SPACE
  1

  0
ENDBLK
  5
E55D
 67
     1
  8
0
  0
BLOCK
  8
0
 62
     7
  2
_OPEN30
 70
     0
 10
0.0
 20
0.0
 30
0.0
  3
_OPEN30
  1

  0
LINE
  5
D7
  8
0
  6
BYBLOCK
 62
     0
 10
-1.0
 20
0.26794919
 30
0.0
 11
0.0
 21
0.0
 31
0.0
  0
LINE
  5
D8
  8
0
  6
BYBLOCK
 62
     0
 10
0.0
 20
0.0
 30
0.0
 11
-1.0
 21
-0.26794919
 31
0.0
  0
LINE
  5
D9
  8
0
  6
BYBLOCK
 62
     0
 10
0.0
 20
0.0
 30
0.0
 11
-1.0
 21
0.0
 31
0.0
  0
ENDBLK
  5
DB
  8
0
 62
     7
  0
BLOCK
  8
0
  2
*U2
 70
     1
 10
0.0
 20
0.0
 30
0.0
  3
*U2
  1

  0
TEXT
  5
E5A2
  8
MSM_PART_NUMBER
 10
0.0
 20
-3.0
 30
0.0
 40
3.0
  1
HNTU8-4
  0
ENDBLK
  5
E5A4
  8
0
  0
BLOCK
  8
0
  2
*U3
 70
     1
 10
0.0
 20
0.0
 30
0.0
  3
*U3
  1

  0
TEXT
  5
E5A6
  8
MSM_PART_NUMBER
 10
0.0
 20
-8.0
 30
0.0
 40
3.0
  1
HNTU8-5
  0
ENDBLK
  5
E5A8
  8
0
  0
BLOCK
  8
0
  2
*U4
 70
     1
 10
0.0
 20
0.0
 30
0.0
  3
*U4
  1

  0
TEXT
  5
E5AA
  8
MSM_PART_NUMBER
 10
0.0
 20
-23.0
 30
0.0
 40
3.0
  1
HNTU8
  0
ENDBLK
  5
E5AC
  8
0
  0
BLOCK
  8
0
  2
*U5
 70
     1
 10
0.0
 20
0.0
 30
0.0
  3
*U5
  1

  0
TEXT
  5
E5AE
  8
MSM_PART_NUMBER
 10
0.0
 20
-18.0
 30
0.0
 40
3.0
  1
HNTU8-8
  0
ENDBLK
  5
E5B0
  8
0
  0
BLOCK
  8
0
  2
*U6
 70
     1
 10
0.0
 20
0.0
 30
0.0
  3
*U6
  1

  0
TEXT
  5
E5B2
  8
MSM_PART_NUMBER
 10
0.0
 20
-13.0
 30
0.0
 40
3.0
  1
HNTU8-6
  0
ENDBLK
  5
E5B4
  8
0
  0
ENDSEC
  0
SECTION
  2
ENTITIES
  0
INSERT
  5
E406
  8
MSM_CONTINUOUS
  2
*U2
 10
0.0
 20
0.0
 30
0.0
  0
INSERT
  5
E407
  8
MSM_CONTINUOUS
  2
*U3
 10
0.0
 20
0.0
 30
0.0
  0
LINE
  5
E408
  8
MSM_CONTINUOUS
 10
50.339728112130729
 20
10.0
 30
0.0
 11
50.339728112130729
 21
27.0
 31
0.0
  0
LINE
  5
E409
  8
MSM_CONTINUOUS
 10
32.339728112130722
 20
27.0
 30
0.0
 11
32.339728112130722
 21
10.0
 31
0.0
  0
LINE
  5
E40A
  8
MSM_CENTER
 10
51.339728112130729
 20
18.5
 30
0.0
 11
31.339728112130722
 21
18.5
 31
0.0
  0
LINE
  5
E40B
  8
MSM_CENTER
 10
38.339728112130722
 20
13.399625555022389
 30
0.0
 11
38.339728112130722
 21
23.6003744449776
 31
0.0
1001
ACDBBLOCKREPETAG
1070
     1
1071
        3
1005
0
  0
LINE
  5
E40C
  8
MSM_CENTER
 10
46.339728112130722
 20
21.5
 30
0.0
 11
46.339728112130722
 21
15.5
 31
0.0
  0
CIRCLE
  5
E40D
  8
MSM_DASHED
 10
46.339728112130722
 20
18.5
 30
0.0
 40
2.0
  0
LINE
  5
E40E
  8
MSM_CONTINUOUS
 10
10.69999999999998
 20
22.899999999999981
 30
0.0
 11
10.70000000000001
 21
14.100000000000019
 31
0.0
  0
LINE
  5
E40F
  8
MSM_CONTINUOUS
 10
1.699999999999988
 20
22.954637595292638
 30
0.0
 11
1.699999999999988
 21
14.04536240470736
 31
0.0
  0
LINE
  5
E410
  8
MSM_DASHED
 10
7.5000000000000169
 20
20.600000000000019
 30
0.0
 11
7.5000000000000169
 21
16.399999999999981
 31
0.0
  0
LINE
  5
E411
  8
MSM_CONTINUOUS
 10
10.20000000000001
 20
13.600000000000019
 30
0.0
 11
7.7000000000000091
 21
13.600000000000019
 31
0.0
  0
LINE
  5
E412
  8
MSM_CONTINUOUS
 10
7.7000000000000091
 20
13.600000000000019
 30
0.0
 11
7.7000000000000091
 21
10.5
 31
0.0
  0
LINE
  5
E413
  8
MSM_CONTINUOUS
 10
10.19999999999998
 20
23.399999999999981
 30
0.0
 11
7.6999999999999993
 21
23.399999999999981
 31
0.0
  0
LINE
  5
E414
  8
MSM_CONTINUOUS
 10
7.7000000000000091
 20
23.399999999999981
 30
0.0
 11
7.7000000000000171
 21
26.49999999999995
 31
0.0
  0
LINE
  5
E415
  8
MSM_CENTER
 10
11.49999999999998
 20
18.5
 30
0.0
 11
-1.0
 21
18.5
 31
0.0
  0
LINE
  5
E416
  8
MSM_DASHED
 10
1.699999999999988
 20
16.399999999999981
 30
0.0
 11
7.5000000000000169
 21
16.399999999999981
 31
0.0
  0
LINE
  5
E417
  8
MSM_DASHED
 10
1.699999999999988
 20
20.600000000000019
 30
0.0
 11
7.5000000000000169
 21
20.600000000000019
 31
0.0
  0
ARC
  5
E418
  8
MSM_CONTINUOUS
 10
1.9999999999999989
 20
18.5
 30
0.0
 40
2.0
 50
98.62692655867896
 51
261.37307344132103
  0
CIRCLE
  5
E419
  8
MSM_DASHED
 10
3.541913262434409
 20
20.050000000000011
 30
0.0
 40
0.15
1001
ACAD
1000
TCW40_DEV_WIDTH
1002
{
1040
0.0196850392967463
1002
}
  0
CIRCLE
  5
E41A
  8
MSM_DASHED
 10
3.2110404383150271
 20
16.949999999999989
 30
0.0
 40
0.15
1001
ACAD
1000
TCW40_DEV_WIDTH
1002
{
1040
0.0196850392967463
1002
}
  0
LINE
  5
E41B
  8
MSM_DASHED
 10
3.6910660960683401
 20
20.03408044539032
 30
0.0
 11
3.3601932719489578
 21
16.93408044539035
 31
0.0
1001
ACAD
1000
TCW40_DEV_WIDTH
1002
{
1040
0.0078740157186985
1002
}
  0
LINE
  5
E41C
  8
MSM_DASHED
 10
3.392760428800468
 20
20.06591955460965
 30
0.0
 11
3.0618876046810888
 21
16.96591955460962
 31
0.0
1001
ACAD
1000
TCW40_DEV_WIDTH
1002
{
1040
0.0078740157186985
1002
}
  0
LINE
  5
E41D
  8
MSM_DASHED
 10
3.7571464185290071
 20
18.83087548281992
 30
0.0
 11
3.6917003831360971
 21
20.057988646437419
 31
0.0
1001
ACAD
1000
TCW40_DEV_WIDTH
1002
{
1040
0.0078740157186985
1002
}
  0
LINE
  5
E41E
  8
MSM_DASHED
 10
3.5574594750660782
 20
16.942011353562581
 30
0.0
 11
3.4920134396731468
 21
18.16912451718002
 31
0.0
1001
ACAD
1000
TCW40_DEV_WIDTH
1002
{
1040
0.0078740157186985
1002
}
  0
CIRCLE
  5
E41F
  8
MSM_DASHED
 10
4.0381194198871269
 20
20.050000000000011
 30
0.0
 40
0.15
1001
ACAD
1000
TCW40_DEV_WIDTH
1002
{
1040
0.0196850392967463
1002
}
  0
CIRCLE
  5
E420
  8
MSM_DASHED
 10
3.707246595767749
 20
16.949999999999989
 30
0.0
 40
0.15
1001
ACAD
1000
TCW40_DEV_WIDTH
1002
{
1040
0.0196850392967463
1002
}
  0
LINE
  5
E421
  8
MSM_DASHED
 10
4.1872722535210469
 20
20.03408044539032
 30
0.0
 11
3.8563994294016801
 21
16.93408044539035
 31
0.0
1001
ACAD
1000
TCW40_DEV_WIDTH
1002
{
1040
0.0078740157186985
1002
}
  0
LINE
  5
E422
  8
MSM_DASHED
 10
3.888966586253189
 20
20.06591955460965
 30
0.0
 11
3.558093762133808
 21
16.96591955460962
 31
0.0
1001
ACAD
1000
TCW40_DEV_WIDTH
1002
{
1040
0.0078740157186985
1002
}
  0
LINE
  5
E423
  8
MSM_DASHED
 10
4.2533525759817286
 20
18.83087548281992
 30
0.0
 11
4.187906540588787
 21
20.057988646437419
 31
0.0
1001
ACAD
1000
TCW40_DEV_WIDTH
1002
{
1040
0.0078740157186985
1002
}
  0
LINE
  5
E424
  8
MSM_DASHED
 10
4.0536656325187677
 20
16.942011353562581
 30
0.0
 11
3.9882195971258372
 21
18.16912451718002
 31
0.0
1001
ACAD
1000
TCW40_DEV_WIDTH
1002
{
1040
0.0078740157186985
1002
}
  0
CIRCLE
  5
E425
  8
MSM_DASHED
 10
4.5343255773398168
 20
20.050000000000011
 30
0.0
 40
0.15
1001
ACAD
1000
TCW40_DEV_WIDTH
1002
{
1040
0.0196850392967463
1002
}
  0
CIRCLE
  5
E426
  8
MSM_DASHED
 10
4.2034527532204571
 20
16.949999999999989
 30
0.0
 40
0.15
1001
ACAD
1000
TCW40_DEV_WIDTH
1002
{
1040
0.0196850392967463
1002
}
  0
LINE
  5
E427
  8
MSM_DASHED
 10
4.6834784109737484
 20
20.03408044539032
 30
0.0
 11
4.3526055868543976
 21
16.93408044539035
 31
0.0
1001
ACAD
1000
TCW40_DEV_WIDTH
1002
{
1040
0.0078740157186985
1002
}
  0
LINE
  5
E428
  8
MSM_DASHED
 10
4.3851727437059083
 20
20.06591955460965
 30
0.0
 11
4.054299919586529
 21
16.96591955460962
 31
0.0
1001
ACAD
1000
TCW40_DEV_WIDTH
1002
{
1040
0.0078740157186985
1002
}
  0
LINE
  5
E429
  8
MSM_DASHED
 10
4.7495587334344371
 20
18.83087548281992
 30
0.0
 11
4.6841126980415089
 21
20.057988646437419
 31
0.0
1001
ACAD
1000
TCW40_DEV_WIDTH
1002
{
1040
0.0078740157186985
1002
}
  0
LINE
  5
E42A
  8
MSM_DASHED
 10
4.549871789971486
 20
16.942011353562581
 30
0.0
 11
4.4844257545785586
 21
18.16912451718002
 31
0.0
1001
ACAD
1000
TCW40_DEV_WIDTH
1002
{
1040
0.0078740157186985
1002
}
  0
CIRCLE
  5
E42B
  8
MSM_DASHED
 10
5.0305317347925387
 20
20.050000000000011
 30
0.0
 40
0.15
1001
ACAD
1000
TCW40_DEV_WIDTH
1002
{
1040
0.0196850392967463
1002
}
  0
CIRCLE
  5
E42C
  8
MSM_DASHED
 10
4.6996589106731781
 20
16.949999999999989
 30
0.0
 40
0.15
1001
ACAD
1000
TCW40_DEV_WIDTH
1002
{
1040
0.0196850392967463
1002
}
  0
LINE
  5
E42D
  8
MSM_DASHED
 10
5.1796845684264587
 20
20.03408044539032
 30
0.0
 11
4.8488117443070884
 21
16.93408044539035
 31
0.0
1001
ACAD
1000
TCW40_DEV_WIDTH
1002
{
1040
0.0078740157186985
1002
}
  0
LINE
  5
E42E
  8
MSM_DASHED
 10
4.8813789011585982
 20
20.06591955460965
 30
0.0
 11
4.5505060770392483
 21
16.96591955460962
 31
0.0
1001
ACAD
1000
TCW40_DEV_WIDTH
1002
{
1040
0.0078740157186985
1002
}
  0
LINE
  5
E42F
  8
MSM_DASHED
 10
5.245764890887159
 20
18.83087548281992
 30
0.0
 11
5.1803188554942166
 21
20.057988646437419
 31
0.0
1001
ACAD
1000
TCW40_DEV_WIDTH
1002
{
1040
0.0078740157186985
1002
}
  0
LINE
  5
E430
  8
MSM_DASHED
 10
5.0460779474242079
 20
16.942011353562581
 30
0.0
 11
4.9806319120312672
 21
18.16912451718002
 31
0.0
1001
ACAD
1000
TCW40_DEV_WIDTH
1002
{
1040
0.0078740157186985
1002
}
  0
CIRCLE
  5
E431
  8
MSM_DASHED
 10
5.5267378922452473
 20
20.050000000000011
 30
0.0
 40
0.15
1001
ACAD
1000
TCW40_DEV_WIDTH
1002
{
1040
0.0196850392967463
1002
}
  0
CIRCLE
  5
E432
  8
MSM_DASHED
 10
5.195865068125868
 20
16.949999999999989
 30
0.0
 40
0.15
1001
ACAD
1000
TCW40_DEV_WIDTH
1002
{
1040
0.0196850392967463
1002
}
  0
LINE
  5
E433
  8
MSM_DASHED
 10
5.6758907258791877
 20
20.03408044539032
 30
0.0
 11
5.3450179017598058
 21
16.93408044539035
 31
0.0
1001
ACAD
1000
TCW40_DEV_WIDTH
1002
{
1040
0.0078740157186985
1002
}
  0
LINE
  5
E434
  8
MSM_DASHED
 10
5.3775850586113201
 20
20.06591955460965
 30
0.0
 11
5.0467122344919586
 21
16.96591955460962
 31
0.0
1001
ACAD
1000
TCW40_DEV_WIDTH
1002
{
1040
0.0078740157186985
1002
}
  0
ARC
  5
E435
  8
MSM_DASHED
 10
1.9999999999999989
 20
18.5
 30
0.0
 40
2.0
 50
261.37307344132103
 51
98.62692655867896
  0
LINE
  5
E436
  8
MSM_CONTINUOUS
 10
32.339728112130722
 20
23.399999999999981
 30
0.0
 11
50.339728112130729
 21
23.399999999999981
 31
0.0
  0
LINE
  5
E437
  8
MSM_CONTINUOUS
 10
32.339728112130722
 20
13.600000000000019
 30
0.0
 11
50.339728112130729
 21
13.600000000000019
 31
0.0
  0
LINE
  5
E438
  8
MSM_CONTINUOUS
 10
32.339728112130722
 20
27.0
 30
0.0
 11
50.339728112130729
 21
27.0
 31
0.0
  0
LINE
  5
E439
  8
MSM_CONTINUOUS
 10
32.339728112130722
 20
10.0
 30
0.0
 11
50.339728112130729
 21
10.0
 31
0.0
  0
TEXT
  5
E43A
  8
MSM_CONTINUOUS
 10
17.4078740148557
 20
17.399530699860229
 30
0.0
 40
2.0
  1
M8
 72
     4
 11
19.074540681522372
 21
18.399530699860229
 31
0.0
  0
LINE
  5
E43B
  8
MSM_CONTINUOUS
 10
7.2000000000000091
 20
26.99999999999994
 30
0.0
 11
6.083736005230417
 21
27.0
 31
0.0
  0
LINE
  5
E43C
  8
MSM_CONTINUOUS
 10
7.2000000000000091
 20
10.0
 30
0.0
 11
6.083736005230409
 21
10.0
 31
0.0
  0
LINE
  5
E43D
  8
MSM_CONTINUOUS
 10
2.0310352683775461
 20
23.697931741539829
 30
0.0
 11
5.4147712736079781
 21
26.743294146247141
 31
0.0
  0
LINE
  5
E43E
  8
MSM_CONTINUOUS
 10
2.031035268377539
 20
13.302068258460221
 30
0.0
 11
5.4147712736079683
 21
10.2567058537528
 31
0.0
  0
ARC
  5
E43F
  8
MSM_CONTINUOUS
 10
2.6999999999999882
 20
22.954637595292638
 30
0.0
 40
1.0
 50
131.98721249581479
 51
180.0
  0
ARC
  5
E440
  8
MSM_CONTINUOUS
 10
2.6999999999999882
 20
14.04536240470736
 30
0.0
 40
1.0
 50
180.0
 51
228.01278750418169
  0
ARC
  5
E441
  8
MSM_CONTINUOUS
 10
6.083736005230417
 20
11.0
 30
0.0
 40
1.0
 50
228.01278750418169
 51
269.9999999999996
  0
ARC
  5
E442
  8
MSM_CONTINUOUS
 10
6.083736005230417
 20
25.99999999999994
 30
0.0
 40
1.0
 50
89.999999999999801
 51
131.98721249581479
  0
ARC
  5
E443
  8
MSM_CONTINUOUS
 10
7.2000000000000091
 20
26.49999999999995
 30
0.0
 40
0.5
 50
0.0
 51
89.999999999999588
  0
ARC
  5
E444
  8
MSM_CONTINUOUS
 10
7.2000000000000091
 20
10.5
 30
0.0
 40
0.5
 50
270.0
 51
0.0
  0
ARC
  5
E445
  8
MSM_CONTINUOUS
 10
10.20000000000001
 20
14.100000000000019
 30
0.0
 40
0.5
 50
270.0
 51
0.0
  0
ARC
  5
E446
  8
MSM_CONTINUOUS
 10
10.19999999999998
 20
22.899999999999981
 30
0.0
 40
0.5
 50
0.0
 51
90.0
  0
LINE
  5
E447
  8
MSM_CONTINUOUS
 10
50.339728112130729
 20
40.0
 30
0.0
 11
50.339728112130729
 21
57.0
 31
0.0
  0
LINE
  5
E448
  8
MSM_CONTINUOUS
 10
32.339728112130722
 20
57.0
 30
0.0
 11
32.339728112130722
 21
40.0
 31
0.0
  0
LINE
  5
E449
  8
MSM_CENTER
 10
51.339728112130729
 20
48.5
 30
0.0
 11
31.339728112130722
 21
48.5
 31
0.0
  0
LINE
  5
E44A
  8
MSM_CENTER
 10
38.339728112130722
 20
43.399625555022453
 30
0.0
 11
38.339728112130722
 21
53.600374444977597
 31
0.0
1001
ACDBBLOCKREPETAG
1070
     1
1071
        3
1005
0
  0
LINE
  5
E44B
  8
MSM_CENTER
 10
46.339728112130722
 20
51.5
 30
0.0
 11
46.339728112130722
 21
45.499999999999993
 31
0.0
  0
CIRCLE
  5
E44C
  8
MSM_DASHED
 10
46.339728112130722
 20
48.5
 30
0.0
 40
2.0
  0
LINE
  5
E44D
  8
MSM_CONTINUOUS
 10
10.69999999999998
 20
52.899999999999977
 30
0.0
 11
10.70000000000001
 21
44.100000000000023
 31
0.0
  0
ARC
  5
E44E
  8
MSM_CONTINUOUS
 10
10.19999999999998
 20
52.899999999999977
 30
0.0
 40
0.5
 50
0.0
 51
90.0
  0
LINE
  5
E44F
  8
MSM_CONTINUOUS
 10
1.699999999999988
 20
52.954637595292638
 30
0.0
 11
1.699999999999988
 21
44.045362404707348
 31
0.0
  0
LINE
  5
E450
  8
MSM_DASHED
 10
7.5000000000000169
 20
50.599999999999987
 30
0.0
 11
7.5000000000000169
 21
46.39999999999997
 31
0.0
  0
LINE
  5
E451
  8
MSM_CONTINUOUS
 10
10.20000000000001
 20
43.600000000000023
 30
0.0
 11
7.7000000000000091
 21
43.600000000000023
 31
0.0
  0
ARC
  5
E452
  8
MSM_CONTINUOUS
 10
10.20000000000001
 20
44.100000000000023
 30
0.0
 40
0.5
 50
270.0
 51
0.0
  0
LINE
  5
E453
  8
MSM_CONTINUOUS
 10
7.7000000000000091
 20
43.600000000000023
 30
0.0
 11
7.7000000000000091
 21
40.499999999999993
 31
0.0
  0
ARC
  5
E454
  8
MSM_CONTINUOUS
 10
7.2000000000000091
 20
40.499999999999993
 30
0.0
 40
0.5
 50
270.0
 51
0.0
  0
LINE
  5
E455
  8
MSM_CONTINUOUS
 10
10.19999999999998
 20
53.399999999999977
 30
0.0
 11
7.6999999999999993
 21
53.399999999999977
 31
0.0
  0
LINE
  5
E456
  8
MSM_CONTINUOUS
 10
7.7000000000000091
 20
53.399999999999977
 30
0.0
 11
7.7000000000000171
 21
56.5
 31
0.0
  0
ARC
  5
E457
  8
MSM_CONTINUOUS
 10
7.2000000000000091
 20
56.5
 30
0.0
 40
0.5
 50
0.0
 51
89.999999999999588
  0
LINE
  5
E458
  8
MSM_CENTER
 10
11.49999999999998
 20
48.5
 30
0.0
 11
-1.0
 21
48.5
 31
0.0
  0
LINE
  5
E459
  8
MSM_DASHED
 10
1.699999999999988
 20
46.399999999999999
 30
0.0
 11
7.5000000000000169
 21
46.39999999999997
 31
0.0
  0
LINE
  5
E45A
  8
MSM_DASHED
 10
1.699999999999988
 20
50.599999999999987
 30
0.0
 11
7.5000000000000169
 21
50.599999999999987
 31
0.0
  0
ARC
  5
E45B
  8
MSM_CONTINUOUS
 10
1.9999999999999989
 20
48.5
 30
0.0
 40
2.0
 50
98.62692655867896
 51
261.37307344132103
  0
CIRCLE
  5
E45C
  8
MSM_DASHED
 10
3.541913262434409
 20
50.050000000000011
 30
0.0
 40
0.15
1001
ACAD
1000
TCW40_DEV_WIDTH
1002
{
1040
0.0196850392967463
1002
}
  0
CIRCLE
  5
E45D
  8
MSM_DASHED
 10
3.2110404383150271
 20
46.949999999999989
 30
0.0
 40
0.15
1001
ACAD
1000
TCW40_DEV_WIDTH
1002
{
1040
0.0196850392967463
1002
}
  0
LINE
  5
E45E
  8
MSM_DASHED
 10
3.6910660960683401
 20
50.034080445390337
 30
0.0
 11
3.3601932719489578
 21
46.93408044539035
 31
0.0
1001
ACAD
1000
TCW40_DEV_WIDTH
1002
{
1040
0.0078740157186985
1002
}
  0
LINE
  5
E45F
  8
MSM_DASHED
 10
3.392760428800468
 20
50.065919554609621
 30
0.0
 11
3.0618876046810888
 21
46.96591955460962
 31
0.0
1001
ACAD
1000
TCW40_DEV_WIDTH
1002
{
1040
0.0078740157186985
1002
}
  0
LINE
  5
E460
  8
MSM_DASHED
 10
3.7571464185290071
 20
48.830875482819948
 30
0.0
 11
3.6917003831360971
 21
50.057988646437423
 31
0.0
1001
ACAD
1000
TCW40_DEV_WIDTH
1002
{
1040
0.0078740157186985
1002
}
  0
LINE
  5
E461
  8
MSM_DASHED
 10
3.5574594750660782
 20
46.942011353562577
 30
0.0
 11
3.4920134396731468
 21
48.169124517180052
 31
0.0
1001
ACAD
1000
TCW40_DEV_WIDTH
1002
{
1040
0.0078740157186985
1002
}
  0
CIRCLE
  5
E462
  8
MSM_DASHED
 10
4.0381194198871269
 20
50.050000000000011
 30
0.0
 40
0.15
1001
ACAD
1000
TCW40_DEV_WIDTH
1002
{
1040
0.0196850392967463
1002
}
  0
CIRCLE
  5
E463
  8
MSM_DASHED
 10
3.707246595767749
 20
46.949999999999989
 30
0.0
 40
0.15
1001
ACAD
1000
TCW40_DEV_WIDTH
1002
{
1040
0.0196850392967463
1002
}
  0
LINE
  5
E464
  8
MSM_DASHED
 10
4.1872722535210469
 20
50.034080445390337
 30
0.0
 11
3.8563994294016801
 21
46.93408044539035
 31
0.0
1001
ACAD
1000
TCW40_DEV_WIDTH
1002
{
1040
0.0078740157186985
1002
}
  0
LINE
  5
E465
  8
MSM_DASHED
 10
3.888966586253189
 20
50.065919554609621
 30
0.0
 11
3.558093762133808
 21
46.96591955460962
 31
0.0
1001
ACAD
1000
TCW40_DEV_WIDTH
1002
{
1040
0.0078740157186985
1002
}
  0
LINE
  5
E466
  8
MSM_DASHED
 10
4.2533525759817286
 20
48.830875482819891
 30
0.0
 11
4.187906540588787
 21
50.057988646437423
 31
0.0
1001
ACAD
1000
TCW40_DEV_WIDTH
1002
{
1040
0.0078740157186985
1002
}
  0
LINE
  5
E467
  8
MSM_DASHED
 10
4.0536656325187677
 20
46.942011353562577
 30
0.0
 11
3.9882195971258372
 21
48.169124517180052
 31
0.0
1001
ACAD
1000
TCW40_DEV_WIDTH
1002
{
1040
0.0078740157186985
1002
}
  0
CIRCLE
  5
E468
  8
MSM_DASHED
 10
4.5343255773398168
 20
50.04999999999999
 30
0.0
 40
0.15
1001
ACAD
1000
TCW40_DEV_WIDTH
1002
{
1040
0.0196850392967463
1002
}
  0
CIRCLE
  5
E469
  8
MSM_DASHED
 10
4.2034527532204571
 20
46.949999999999989
 30
0.0
 40
0.15
1001
ACAD
1000
TCW40_DEV_WIDTH
1002
{
1040
0.0196850392967463
1002
}
  0
LINE
  5
E46A
  8
MSM_DASHED
 10
4.6834784109737484
 20
50.034080445390337
 30
0.0
 11
4.3526055868543976
 21
46.93408044539035
 31
0.0
1001
ACAD
1000
TCW40_DEV_WIDTH
1002
{
1040
0.0078740157186985
1002
}
  0
LINE
  5
E46B
  8
MSM_DASHED
 10
4.3851727437059083
 20
50.065919554609621
 30
0.0
 11
4.054299919586529
 21
46.96591955460962
 31
0.0
1001
ACAD
1000
TCW40_DEV_WIDTH
1002
{
1040
0.0078740157186985
1002
}
  0
LINE
  5
E46C
  8
MSM_DASHED
 10
4.7495587334344371
 20
48.830875482819948
 30
0.0
 11
4.6841126980415089
 21
50.057988646437359
 31
0.0
1001
ACAD
1000
TCW40_DEV_WIDTH
1002
{
1040
0.0078740157186985
1002
}
  0
LINE
  5
E46D
  8
MSM_DASHED
 10
4.549871789971486
 20
46.942011353562577
 30
0.0
 11
4.4844257545785586
 21
48.169124517180023
 31
0.0
1001
ACAD
1000
TCW40_DEV_WIDTH
1002
{
1040
0.0078740157186985
1002
}
  0
CIRCLE
  5
E46E
  8
MSM_DASHED
 10
5.0305317347925387
 20
50.04999999999999
 30
0.0
 40
0.15
1001
ACAD
1000
TCW40_DEV_WIDTH
1002
{
1040
0.0196850392967463
1002
}
  0
CIRCLE
  5
E46F
  8
MSM_DASHED
 10
4.6996589106731781
 20
46.949999999999989
 30
0.0
 40
0.15
1001
ACAD
1000
TCW40_DEV_WIDTH
1002
{
1040
0.0196850392967463
1002
}
  0
LINE
  5
E470
  8
MSM_DASHED
 10
5.1796845684264587
 20
50.034080445390337
 30
0.0
 11
4.8488117443070884
 21
46.93408044539035
 31
0.0
1001
ACAD
1000
TCW40_DEV_WIDTH
1002
{
1040
0.0078740157186985
1002
}
  0
LINE
  5
E471
  8
MSM_DASHED
 10
4.8813789011585982
 20
50.065919554609621
 30
0.0
 11
4.5505060770392483
 21
46.96591955460962
 31
0.0
1001
ACAD
1000
TCW40_DEV_WIDTH
1002
{
1040
0.0078740157186985
1002
}
  0
LINE
  5
E472
  8
MSM_DASHED
 10
5.245764890887159
 20
48.830875482819913
 30
0.0
 11
5.1803188554942166
 21
50.057988646437359
 31
0.0
1001
ACAD
1000
TCW40_DEV_WIDTH
1002
{
1040
0.0078740157186985
1002
}
  0
LINE
  5
E473
  8
MSM_DASHED
 10
5.0460779474242079
 20
46.942011353562577
 30
0.0
 11
4.9806319120312672
 21
48.169124517180023
 31
0.0
1001
ACAD
1000
TCW40_DEV_WIDTH
1002
{
1040
0.0078740157186985
1002
}
  0
CIRCLE
  5
E474
  8
MSM_DASHED
 10
5.5267378922452473
 20
50.04999999999999
 30
0.0
 40
0.15
1001
ACAD
1000
TCW40_DEV_WIDTH
1002
{
1040
0.0196850392967463
1002
}
  0
CIRCLE
  5
E475
  8
MSM_DASHED
 10
5.195865068125868
 20
46.949999999999989
 30
0.0
 40
0.15
1001
ACAD
1000
TCW40_DEV_WIDTH
1002
{
1040
0.0196850392967463
1002
}
  0
LINE
  5
E476
  8
MSM_DASHED
 10
5.6758907258791877
 20
50.034080445390337
 30
0.0
 11
5.3450179017598058
 21
46.93408044539035
 31
0.0
1001
ACAD
1000
TCW40_DEV_WIDTH
1002
{
1040
0.0078740157186985
1002
}
  0
LINE
  5
E477
  8
MSM_DASHED
 10
5.3775850586113201
 20
50.065919554609621
 30
0.0
 11
5.0467122344919586
 21
46.96591955460962
 31
0.0
1001
ACAD
1000
TCW40_DEV_WIDTH
1002
{
1040
0.0078740157186985
1002
}
  0
ARC
  5
E478
  8
MSM_DASHED
 10
1.9999999999999989
 20
48.5
 30
0.0
 40
2.0
 50
261.37307344132103
 51
98.62692655867896
  0
LINE
  5
E479
  8
MSM_CONTINUOUS
 10
32.339728112130722
 20
53.399999999999977
 30
0.0
 11
50.339728112130729
 21
53.399999999999977
 31
0.0
  0
LINE
  5
E47A
  8
MSM_CONTINUOUS
 10
32.339728112130722
 20
43.600000000000023
 30
0.0
 11
50.339728112130729
 21
43.600000000000023
 31
0.0
  0
LINE
  5
E47B
  8
MSM_CONTINUOUS
 10
32.339728112130722
 20
57.0
 30
0.0
 11
50.339728112130729
 21
57.0
 31
0.0
  0
LINE
  5
E47C
  8
MSM_CONTINUOUS
 10
32.339728112130722
 20
40.0
 30
0.0
 11
50.339728112130729
 21
40.0
 31
0.0
  0
TEXT
  5
E47D
  8
MSM_CONTINUOUS
 10
17.4078740148557
 20
47.399530699860229
 30
0.0
 40
2.0
  1
M6
 72
     4
 11
19.074540681522372
 21
48.399530699860229
 31
0.0
  0
LINE
  5
E47E
  8
MSM_CONTINUOUS
 10
7.2000000000000091
 20
57.0
 30
0.0
 11
6.083736005230417
 21
57.0
 31
0.0
  0
ARC
  5
E47F
  8
MSM_CONTINUOUS
 10
6.083736005230417
 20
55.999999999999972
 30
0.0
 40
1.0
 50
89.999999999999801
 51
131.98721249581661
  0
LINE
  5
E480
  8
MSM_CONTINUOUS
 10
7.2000000000000091
 20
40.0
 30
0.0
 11
6.083736005230409
 21
40.0
 31
0.0
  0
ARC
  5
E481
  8
MSM_CONTINUOUS
 10
6.083736005230417
 20
41.0
 30
0.0
 40
1.0
 50
228.0127875041851
 51
269.9999999999996
  0
LINE
  5
E482
  8
MSM_CONTINUOUS
 10
2.0310352683775461
 20
53.697931741539797
 30
0.0
 11
5.4147712736079781
 21
56.743294146247138
 31
0.0
  0
ARC
  5
E483
  8
MSM_CONTINUOUS
 10
2.6999999999999882
 20
52.954637595292638
 30
0.0
 40
1.0
 50
131.98721249581661
 51
180.0
  0
LINE
  5
E484
  8
MSM_CONTINUOUS
 10
2.031035268377539
 20
43.302068258460217
 30
0.0
 11
5.4147712736079683
 21
40.256705853752862
 31
0.0
  0
ARC
  5
E485
  8
MSM_CONTINUOUS
 10
2.6999999999999882
 20
44.045362404707348
 30
0.0
 40
1.0
 50
180.0
 51
228.0127875041816
  0
LINE
  5
E486
  8
MSM_CONTINUOUS
 10
50.339728112130729
 20
70.0
 30
0.0
 11
50.339728112130729
 21
86.999999999999929
 31
0.0
  0
LINE
  5
E487
  8
MSM_CONTINUOUS
 10
32.339728112130722
 20
86.999999999999929
 30
0.0
 11
32.339728112130722
 21
70.0
 31
0.0
  0
LINE
  5
E488
  8
MSM_CENTER
 10
51.339728112130729
 20
78.5
 30
0.0
 11
31.339728112130722
 21
78.5
 31
0.0
  0
LINE
  5
E489
  8
MSM_CENTER
 10
38.339728112130722
 20
73.399625555022453
 30
0.0
 11
38.339728112130722
 21
83.600374444977604
 31
0.0
1001
ACDBBLOCKREPETAG
1070
     1
1071
        3
1005
0
  0
LINE
  5
E48A
  8
MSM_CENTER
 10
46.339728112130722
 20
81.499999999999957
 30
0.0
 11
46.339728112130722
 21
75.499999999999972
 31
0.0
  0
CIRCLE
  5
E48B
  8
MSM_DASHED
 10
46.339728112130722
 20
78.5
 30
0.0
 40
2.0
  0
LINE
  5
E48C
  8
MSM_CONTINUOUS
 10
10.69999999999998
 20
82.899999999999963
 30
0.0
 11
10.70000000000001
 21
74.100000000000023
 31
0.0
  0
ARC
  5
E48D
  8
MSM_CONTINUOUS
 10
10.19999999999998
 20
82.899999999999963
 30
0.0
 40
0.5
 50
0.0
 51
90.0
  0
LINE
  5
E48E
  8
MSM_CONTINUOUS
 10
1.699999999999988
 20
82.954637595292638
 30
0.0
 11
1.699999999999988
 21
74.045362404707362
 31
0.0
  0
LINE
  5
E48F
  8
MSM_DASHED
 10
7.5000000000000169
 20
80.599999999999994
 30
0.0
 11
7.5000000000000169
 21
76.399999999999963
 31
0.0
  0
LINE
  5
E490
  8
MSM_CONTINUOUS
 10
10.20000000000001
 20
73.600000000000023
 30
0.0
 11
7.7000000000000091
 21
73.599999999999966
 31
0.0
  0
ARC
  5
E491
  8
MSM_CONTINUOUS
 10
10.20000000000001
 20
74.100000000000023
 30
0.0
 40
0.5
 50
270.0
 51
0.0
  0
LINE
  5
E492
  8
MSM_CONTINUOUS
 10
7.7000000000000091
 20
73.599999999999966
 30
0.0
 11
7.7000000000000091
 21
70.5
 31
0.0
  0
ARC
  5
E493
  8
MSM_CONTINUOUS
 10
7.2000000000000091
 20
70.5
 30
0.0
 40
0.5
 50
270.0
 51
0.0
  0
LINE
  5
E494
  8
MSM_CONTINUOUS
 10
10.19999999999998
 20
83.399999999999977
 30
0.0
 11
7.6999999999999993
 21
83.399999999999977
 31
0.0
  0
LINE
  5
E495
  8
MSM_CONTINUOUS
 10
7.7000000000000091
 20
83.399999999999977
 30
0.0
 11
7.7000000000000171
 21
86.499999999999943
 31
0.0
  0
ARC
  5
E496
  8
MSM_CONTINUOUS
 10
7.2000000000000091
 20
86.499999999999943
 30
0.0
 40
0.5
 50
0.0
 51
89.999999999999588
  0
LINE
  5
E497
  8
MSM_CENTER
 10
11.49999999999998
 20
78.5
 30
0.0
 11
-1.0
 21
78.5
 31
0.0
  0
LINE
  5
E498
  8
MSM_DASHED
 10
1.699999999999988
 20
76.400000000000006
 30
0.0
 11
7.5000000000000169
 21
76.399999999999963
 31
0.0
  0
LINE
  5
E499
  8
MSM_DASHED
 10
1.699999999999988
 20
80.599999999999994
 30
0.0
 11
7.5000000000000169
 21
80.599999999999994
 31
0.0
  0
ARC
  5
E49A
  8
MSM_CONTINUOUS
 10
1.9999999999999989
 20
78.5
 30
0.0
 40
2.0
 50
98.62692655867896
 51
261.37307344132103
  0
CIRCLE
  5
E49B
  8
MSM_DASHED
 10
3.541913262434409
 20
80.049999999999997
 30
0.0
 40
0.15
1001
ACAD
1000
TCW40_DEV_WIDTH
1002
{
1040
0.0196850392967463
1002
}
  0
CIRCLE
  5
E49C
  8
MSM_DASHED
 10
3.2110404383150271
 20
76.949999999999989
 30
0.0
 40
0.15
1001
ACAD
1000
TCW40_DEV_WIDTH
1002
{
1040
0.0196850392967463
1002
}
  0
LINE
  5
E49D
  8
MSM_DASHED
 10
3.6910660960683401
 20
80.034080445390316
 30
0.0
 11
3.3601932719489578
 21
76.93408044539035
 31
0.0
1001
ACAD
1000
TCW40_DEV_WIDTH
1002
{
1040
0.0078740157186985
1002
}
  0
LINE
  5
E49E
  8
MSM_DASHED
 10
3.392760428800468
 20
80.065919554609593
 30
0.0
 11
3.0618876046810888
 21
76.965919554609627
 31
0.0
1001
ACAD
1000
TCW40_DEV_WIDTH
1002
{
1040
0.0078740157186985
1002
}
  0
LINE
  5
E49F
  8
MSM_DASHED
 10
3.7571464185290071
 20
78.830875482819906
 30
0.0
 11
3.6917003831360971
 21
80.057988646437494
 31
0.0
1001
ACAD
1000
TCW40_DEV_WIDTH
1002
{
1040
0.0078740157186985
1002
}
  0
LINE
  5
E4A0
  8
MSM_DASHED
 10
3.5574594750660782
 20
76.942011353562577
 30
0.0
 11
3.4920134396731468
 21
78.169124517180052
 31
0.0
1001
ACAD
1000
TCW40_DEV_WIDTH
1002
{
1040
0.0078740157186985
1002
}
  0
CIRCLE
  5
E4A1
  8
MSM_DASHED
 10
4.0381194198871269
 20
80.049999999999997
 30
0.0
 40
0.15
1001
ACAD
1000
TCW40_DEV_WIDTH
1002
{
1040
0.0196850392967463
1002
}
  0
CIRCLE
  5
E4A2
  8
MSM_DASHED
 10
3.707246595767749
 20
76.949999999999989
 30
0.0
 40
0.15
1001
ACAD
1000
TCW40_DEV_WIDTH
1002
{
1040
0.0196850392967463
1002
}
  0
LINE
  5
E4A3
  8
MSM_DASHED
 10
4.1872722535210469
 20
80.034080445390316
 30
0.0
 11
3.8563994294016801
 21
76.93408044539035
 31
0.0
1001
ACAD
1000
TCW40_DEV_WIDTH
1002
{
1040
0.0078740157186985
1002
}
  0
LINE
  5
E4A4
  8
MSM_DASHED
 10
3.888966586253189
 20
80.065919554609593
 30
0.0
 11
3.558093762133808
 21
76.965919554609627
 31
0.0
1001
ACAD
1000
TCW40_DEV_WIDTH
1002
{
1040
0.0078740157186985
1002
}
  0
LINE
  5
E4A5
  8
MSM_DASHED
 10
4.2533525759817286
 20
78.830875482819891
 30
0.0
 11
4.187906540588787
 21
80.057988646437494
 31
0.0
1001
ACAD
1000
TCW40_DEV_WIDTH
1002
{
1040
0.0078740157186985
1002
}
  0
LINE
  5
E4A6
  8
MSM_DASHED
 10
4.0536656325187677
 20
76.942011353562577
 30
0.0
 11
3.9882195971258372
 21
78.169124517180052
 31
0.0
1001
ACAD
1000
TCW40_DEV_WIDTH
1002
{
1040
0.0078740157186985
1002
}
  0
CIRCLE
  5
E4A7
  8
MSM_DASHED
 10
4.5343255773398168
 20
80.049999999999983
 30
0.0
 40
0.15
1001
ACAD
1000
TCW40_DEV_WIDTH
1002
{
1040
0.0196850392967463
1002
}
  0
CIRCLE
  5
E4A8
  8
MSM_DASHED
 10
4.2034527532204571
 20
76.949999999999989
 30
0.0
 40
0.15
1001
ACAD
1000
TCW40_DEV_WIDTH
1002
{
1040
0.0196850392967463
1002
}
  0
LINE
  5
E4A9
  8
MSM_DASHED
 10
4.6834784109737484
 20
80.034080445390316
 30
0.0
 11
4.3526055868543976
 21
76.93408044539035
 31
0.0
1001
ACAD
1000
TCW40_DEV_WIDTH
1002
{
1040
0.0078740157186985
1002
}
  0
LINE
  5
E4AA
  8
MSM_DASHED
 10
4.3851727437059083
 20
80.065919554609593
 30
0.0
 11
4.054299919586529
 21
76.965919554609627
 31
0.0
1001
ACAD
1000
TCW40_DEV_WIDTH
1002
{
1040
0.0078740157186985
1002
}
  0
LINE
  5
E4AB
  8
MSM_DASHED
 10
4.7495587334344371
 20
78.830875482819906
 30
0.0
 11
4.6841126980415089
 21
80.057988646437408
 31
0.0
1001
ACAD
1000
TCW40_DEV_WIDTH
1002
{
1040
0.0078740157186985
1002
}
  0
LINE
  5
E4AC
  8
MSM_DASHED
 10
4.549871789971486
 20
76.942011353562577
 30
0.0
 11
4.4844257545785586
 21
78.169124517180023
 31
0.0
1001
ACAD
1000
TCW40_DEV_WIDTH
1002
{
1040
0.0078740157186985
1002
}
  0
CIRCLE
  5
E4AD
  8
MSM_DASHED
 10
5.0305317347925387
 20
80.049999999999983
 30
0.0
 40
0.15
1001
ACAD
1000
TCW40_DEV_WIDTH
1002
{
1040
0.0196850392967463
1002
}
  0
CIRCLE
  5
E4AE
  8
MSM_DASHED
 10
4.6996589106731781
 20
76.949999999999989
 30
0.0
 40
0.15
1001
ACAD
1000
TCW40_DEV_WIDTH
1002
{
1040
0.0196850392967463
1002
}
  0
LINE
  5
E4AF
  8
MSM_DASHED
 10
5.1796845684264587
 20
80.034080445390316
 30
0.0
 11
4.8488117443070884
 21
76.93408044539035
 31
0.0
1001
ACAD
1000
TCW40_DEV_WIDTH
1002
{
1040
0.0078740157186985
1002
}
  0
LINE
  5
E4B0
  8
MSM_DASHED
 10
4.8813789011585982
 20
80.065919554609593
 30
0.0
 11
4.5505060770392483
 21
76.965919554609627
 31
0.0
1001
ACAD
1000
TCW40_DEV_WIDTH
1002
{
1040
0.0078740157186985
1002
}
  0
LINE
  5
E4B1
  8
MSM_DASHED
 10
5.245764890887159
 20
78.830875482819906
 30
0.0
 11
5.1803188554942166
 21
80.057988646437408
 31
0.0
1001
ACAD
1000
TCW40_DEV_WIDTH
1002
{
1040
0.0078740157186985
1002
}
  0
LINE
  5
E4B2
  8
MSM_DASHED
 10
5.0460779474242079
 20
76.942011353562577
 30
0.0
 11
4.9806319120312672
 21
78.169124517180023
 31
0.0
1001
ACAD
1000
TCW40_DEV_WIDTH
1002
{
1040
0.0078740157186985
1002
}
  0
CIRCLE
  5
E4B3
  8
MSM_DASHED
 10
5.5267378922452473
 20
80.049999999999983
 30
0.0
 40
0.15
1001
ACAD
1000
TCW40_DEV_WIDTH
1002
{
1040
0.0196850392967463
1002
}
  0
CIRCLE
  5
E4B4
  8
MSM_DASHED
 10
5.195865068125868
 20
76.949999999999989
 30
0.0
 40
0.15
1001
ACAD
1000
TCW40_DEV_WIDTH
1002
{
1040
0.0196850392967463
1002
}
  0
LINE
  5
E4B5
  8
MSM_DASHED
 10
5.6758907258791877
 20
80.034080445390316
 30
0.0
 11
5.3450179017598058
 21
76.93408044539035
 31
0.0
1001
ACAD
1000
TCW40_DEV_WIDTH
1002
{
1040
0.0078740157186985
1002
}
  0
LINE
  5
E4B6
  8
MSM_DASHED
 10
5.3775850586113201
 20
80.065919554609593
 30
0.0
 11
5.0467122344919586
 21
76.965919554609627
 31
0.0
1001
ACAD
1000
TCW40_DEV_WIDTH
1002
{
1040
0.0078740157186985
1002
}
  0
ARC
  5
E4B7
  8
MSM_DASHED
 10
1.9999999999999989
 20
78.5
 30
0.0
 40
2.0
 50
261.37307344132103
 51
98.62692655867896
  0
LINE
  5
E4B8
  8
MSM_CONTINUOUS
 10
32.339728112130722
 20
83.399999999999977
 30
0.0
 11
50.339728112130729
 21
83.399999999999977
 31
0.0
  0
LINE
  5
E4B9
  8
MSM_CONTINUOUS
 10
32.339728112130722
 20
73.599999999999966
 30
0.0
 11
50.339728112130729
 21
73.599999999999966
 31
0.0
  0
LINE
  5
E4BA
  8
MSM_CONTINUOUS
 10
32.339728112130722
 20
86.999999999999929
 30
0.0
 11
50.339728112130729
 21
86.999999999999929
 31
0.0
  0
LINE
  5
E4BB
  8
MSM_CONTINUOUS
 10
32.339728112130722
 20
70.0
 30
0.0
 11
50.339728112130729
 21
70.0
 31
0.0
  0
TEXT
  5
E4BC
  8
MSM_CONTINUOUS
 10
17.4078740148557
 20
77.399530699860236
 30
0.0
 40
2.0
  1
M5
 72
     4
 11
19.074540681522372
 21
78.399530699860236
 31
0.0
  0
LINE
  5
E4BD
  8
MSM_CONTINUOUS
 10
7.2000000000000091
 20
86.999999999999929
 30
0.0
 11
6.083736005230417
 21
86.999999999999929
 31
0.0
  0
ARC
  5
E4BE
  8
MSM_CONTINUOUS
 10
6.083736005230417
 20
85.999999999999943
 30
0.0
 40
1.0
 50
89.999999999999801
 51
131.98721249581689
  0
LINE
  5
E4BF
  8
MSM_CONTINUOUS
 10
7.2000000000000091
 20
70.0
 30
0.0
 11
6.083736005230409
 21
70.0
 31
0.0
  0
ARC
  5
E4C0
  8
MSM_CONTINUOUS
 10
6.083736005230417
 20
70.999999999999972
 30
0.0
 40
1.0
 50
228.01278750418331
 51
269.9999999999996
  0
LINE
  5
E4C1
  8
MSM_CONTINUOUS
 10
2.0310352683775461
 20
83.697931741539804
 30
0.0
 11
5.4147712736079781
 21
86.743294146247123
 31
0.0
  0
ARC
  5
E4C2
  8
MSM_CONTINUOUS
 10
2.6999999999999882
 20
82.954637595292638
 30
0.0
 40
1.0
 50
131.9872124958157
 51
180.0
  0
LINE
  5
E4C3
  8
MSM_CONTINUOUS
 10
2.031035268377539
 20
73.302068258460224
 30
0.0
 11
5.4147712736079683
 21
70.256705853752834
 31
0.0
  0
ARC
  5
E4C4
  8
MSM_CONTINUOUS
 10
2.6999999999999882
 20
74.045362404707362
 30
0.0
 40
1.0
 50
180.0
 51
228.01278750418331
  0
LINE
  5
E4C5
  8
MSM_CONTINUOUS
 10
50.339728112130729
 20
100.0
 30
0.0
 11
50.339728112130729
 21
116.9999999999999
 31
0.0
  0
LINE
  5
E4C6
  8
MSM_CONTINUOUS
 10
32.339728112130722
 20
116.9999999999999
 30
0.0
 11
32.339728112130722
 21
100.0
 31
0.0
  0
LINE
  5
E4C7
  8
MSM_CENTER
 10
51.339728112130729
 20
108.4999999999999
 30
0.0
 11
31.339728112130722
 21
108.4999999999999
 31
0.0
  0
LINE
  5
E4C8
  8
MSM_CENTER
 10
38.339728112130722
 20
103.3996255550224
 30
0.0
 11
38.339728112130722
 21
113.6003744449775
 31
0.0
1001
ACDBBLOCKREPETAG
1070
     1
1071
        3
1005
0
  0
LINE
  5
E4C9
  8
MSM_CENTER
 10
46.339728112130722
 20
111.4999999999999
 30
0.0
 11
46.339728112130722
 21
105.4999999999999
 31
0.0
  0
CIRCLE
  5
E4CA
  8
MSM_DASHED
 10
46.339728112130722
 20
108.4999999999999
 30
0.0
 40
2.0
  0
LINE
  5
E4CB
  8
MSM_CONTINUOUS
 10
10.69999999999998
 20
112.89999999999991
 30
0.0
 11
10.70000000000001
 21
104.09999999999999
 31
0.0
  0
ARC
  5
E4CC
  8
MSM_CONTINUOUS
 10
10.19999999999998
 20
112.89999999999991
 30
0.0
 40
0.5
 50
0.0
 51
90.0
  0
LINE
  5
E4CD
  8
MSM_CONTINUOUS
 10
1.699999999999988
 20
112.9546375952926
 30
0.0
 11
1.699999999999988
 21
104.0453624047073
 31
0.0
  0
LINE
  5
E4CE
  8
MSM_DASHED
 10
7.5000000000000169
 20
110.59999999999989
 30
0.0
 11
7.5000000000000169
 21
106.39999999999991
 31
0.0
  0
LINE
  5
E4CF
  8
MSM_CONTINUOUS
 10
10.20000000000001
 20
103.59999999999999
 30
0.0
 11
7.7000000000000091
 21
103.59999999999989
 31
0.0
  0
ARC
  5
E4D0
  8
MSM_CONTINUOUS
 10
10.20000000000001
 20
104.09999999999999
 30
0.0
 40
0.5
 50
270.0
 51
0.0
  0
LINE
  5
E4D1
  8
MSM_CONTINUOUS
 10
7.7000000000000091
 20
103.59999999999989
 30
0.0
 11
7.7000000000000091
 21
100.4999999999999
 31
0.0
  0
ARC
  5
E4D2
  8
MSM_CONTINUOUS
 10
7.2000000000000091
 20
100.4999999999999
 30
0.0
 40
0.5
 50
270.0
 51
0.0
  0
LINE
  5
E4D3
  8
MSM_CONTINUOUS
 10
10.19999999999998
 20
113.39999999999991
 30
0.0
 11
7.6999999999999993
 21
113.40000000000001
 31
0.0
  0
LINE
  5
E4D4
  8
MSM_CONTINUOUS
 10
7.7000000000000091
 20
113.40000000000001
 30
0.0
 11
7.7000000000000171
 21
116.4999999999999
 31
0.0
  0
ARC
  5
E4D5
  8
MSM_CONTINUOUS
 10
7.2000000000000091
 20
116.4999999999999
 30
0.0
 40
0.5
 50
0.0
 51
89.999999999999588
  0
LINE
  5
E4D6
  8
MSM_CENTER
 10
11.49999999999998
 20
108.4999999999999
 30
0.0
 11
-1.0
 21
108.4999999999999
 31
0.0
  0
LINE
  5
E4D7
  8
MSM_DASHED
 10
1.699999999999988
 20
106.40000000000001
 30
0.0
 11
7.5000000000000169
 21
106.39999999999991
 31
0.0
  0
LINE
  5
E4D8
  8
MSM_DASHED
 10
1.699999999999988
 20
110.59999999999989
 30
0.0
 11
7.5000000000000169
 21
110.59999999999989
 31
0.0
  0
ARC
  5
E4D9
  8
MSM_CONTINUOUS
 10
1.9999999999999989
 20
108.4999999999999
 30
0.0
 40
2.0
 50
98.62692655867896
 51
261.37307344132103
  0
CIRCLE
  5
E4DA
  8
MSM_DASHED
 10
3.541913262434409
 20
110.05
 30
0.0
 40
0.15
1001
ACAD
1000
TCW40_DEV_WIDTH
1002
{
1040
0.0196850392967463
1002
}
  0
CIRCLE
  5
E4DB
  8
MSM_DASHED
 10
3.2110404383150271
 20
106.9499999999999
 30
0.0
 40
0.15
1001
ACAD
1000
TCW40_DEV_WIDTH
1002
{
1040
0.0196850392967463
1002
}
  0
LINE
  5
E4DC
  8
MSM_DASHED
 10
3.6910660960683401
 20
110.0340804453903
 30
0.0
 11
3.3601932719489578
 21
106.93408044539029
 31
0.0
1001
ACAD
1000
TCW40_DEV_WIDTH
1002
{
1040
0.0078740157186985
1002
}
  0
LINE
  5
E4DD
  8
MSM_DASHED
 10
3.392760428800468
 20
110.06591955460959
 30
0.0
 11
3.0618876046810888
 21
106.9659195546096
 31
0.0
1001
ACAD
1000
TCW40_DEV_WIDTH
1002
{
1040
0.0078740157186985
1002
}
  0
LINE
  5
E4DE
  8
MSM_DASHED
 10
3.7571464185290071
 20
108.83087548281991
 30
0.0
 11
3.6917003831360971
 21
110.05798864643739
 31
0.0
1001
ACAD
1000
TCW40_DEV_WIDTH
1002
{
1040
0.0078740157186985
1002
}
  0
LINE
  5
E4DF
  8
MSM_DASHED
 10
3.5574594750660782
 20
106.94201135356251
 30
0.0
 11
3.4920134396731468
 21
108.16912451717999
 31
0.0
1001
ACAD
1000
TCW40_DEV_WIDTH
1002
{
1040
0.0078740157186985
1002
}
  0
CIRCLE
  5
E4E0
  8
MSM_DASHED
 10
4.0381194198871269
 20
110.05
 30
0.0
 40
0.15
1001
ACAD
1000
TCW40_DEV_WIDTH
1002
{
1040
0.0196850392967463
1002
}
  0
CIRCLE
  5
E4E1
  8
MSM_DASHED
 10
3.707246595767749
 20
106.9499999999999
 30
0.0
 40
0.15
1001
ACAD
1000
TCW40_DEV_WIDTH
1002
{
1040
0.0196850392967463
1002
}
  0
LINE
  5
E4E2
  8
MSM_DASHED
 10
4.1872722535210469
 20
110.0340804453903
 30
0.0
 11
3.8563994294016801
 21
106.93408044539029
 31
0.0
1001
ACAD
1000
TCW40_DEV_WIDTH
1002
{
1040
0.0078740157186985
1002
}
  0
LINE
  5
E4E3
  8
MSM_DASHED
 10
3.888966586253189
 20
110.06591955460959
 30
0.0
 11
3.558093762133808
 21
106.9659195546096
 31
0.0
1001
ACAD
1000
TCW40_DEV_WIDTH
1002
{
1040
0.0078740157186985
1002
}
  0
LINE
  5
E4E4
  8
MSM_DASHED
 10
4.2533525759817286
 20
108.83087548281981
 30
0.0
 11
4.187906540588787
 21
110.05798864643739
 31
0.0
1001
ACAD
1000
TCW40_DEV_WIDTH
1002
{
1040
0.0078740157186985
1002
}
  0
LINE
  5
E4E5
  8
MSM_DASHED
 10
4.0536656325187677
 20
106.94201135356251
 30
0.0
 11
3.9882195971258372
 21
108.16912451717999
 31
0.0
1001
ACAD
1000
TCW40_DEV_WIDTH
1002
{
1040
0.0078740157186985
1002
}
  0
CIRCLE
  5
E4E6
  8
MSM_DASHED
 10
4.5343255773398168
 20
110.05
 30
0.0
 40
0.15
1001
ACAD
1000
TCW40_DEV_WIDTH
1002
{
1040
0.0196850392967463
1002
}
  0
CIRCLE
  5
E4E7
  8
MSM_DASHED
 10
4.2034527532204571
 20
106.9499999999999
 30
0.0
 40
0.15
1001
ACAD
1000
TCW40_DEV_WIDTH
1002
{
1040
0.0196850392967463
1002
}
  0
LINE
  5
E4E8
  8
MSM_DASHED
 10
4.6834784109737484
 20
110.0340804453903
 30
0.0
 11
4.3526055868543976
 21
106.93408044539029
 31
0.0
1001
ACAD
1000
TCW40_DEV_WIDTH
1002
{
1040
0.0078740157186985
1002
}
  0
LINE
  5
E4E9
  8
MSM_DASHED
 10
4.3851727437059083
 20
110.06591955460959
 30
0.0
 11
4.054299919586529
 21
106.9659195546096
 31
0.0
1001
ACAD
1000
TCW40_DEV_WIDTH
1002
{
1040
0.0078740157186985
1002
}
  0
LINE
  5
E4EA
  8
MSM_DASHED
 10
4.7495587334344371
 20
108.83087548281991
 30
0.0
 11
4.6841126980415089
 21
110.05798864643729
 31
0.0
1001
ACAD
1000
TCW40_DEV_WIDTH
1002
{
1040
0.0078740157186985
1002
}
  0
LINE
  5
E4EB
  8
MSM_DASHED
 10
4.549871789971486
 20
106.94201135356251
 30
0.0
 11
4.4844257545785586
 21
108.16912451717999
 31
0.0
1001
ACAD
1000
TCW40_DEV_WIDTH
1002
{
1040
0.0078740157186985
1002
}
  0
CIRCLE
  5
E4EC
  8
MSM_DASHED
 10
5.0305317347925387
 20
110.05
 30
0.0
 40
0.15
1001
ACAD
1000
TCW40_DEV_WIDTH
1002
{
1040
0.0196850392967463
1002
}
  0
CIRCLE
  5
E4ED
  8
MSM_DASHED
 10
4.6996589106731781
 20
106.9499999999999
 30
0.0
 40
0.15
1001
ACAD
1000
TCW40_DEV_WIDTH
1002
{
1040
0.0196850392967463
1002
}
  0
LINE
  5
E4EE
  8
MSM_DASHED
 10
5.1796845684264587
 20
110.0340804453903
 30
0.0
 11
4.8488117443070884
 21
106.93408044539029
 31
0.0
1001
ACAD
1000
TCW40_DEV_WIDTH
1002
{
1040
0.0078740157186985
1002
}
  0
LINE
  5
E4EF
  8
MSM_DASHED
 10
4.8813789011585982
 20
110.06591955460959
 30
0.0
 11
4.5505060770392483
 21
106.9659195546096
 31
0.0
1001
ACAD
1000
TCW40_DEV_WIDTH
1002
{
1040
0.0078740157186985
1002
}
  0
LINE
  5
E4F0
  8
MSM_DASHED
 10
5.245764890887159
 20
108.83087548281991
 30
0.0
 11
5.1803188554942166
 21
110.05798864643729
 31
0.0
1001
ACAD
1000
TCW40_DEV_WIDTH
1002
{
1040
0.0078740157186985
1002
}
  0
LINE
  5
E4F1
  8
MSM_DASHED
 10
5.0460779474242079
 20
106.94201135356251
 30
0.0
 11
4.9806319120312672
 21
108.16912451717999
 31
0.0
1001
ACAD
1000
TCW40_DEV_WIDTH
1002
{
1040
0.0078740157186985
1002
}
  0
CIRCLE
  5
E4F2
  8
MSM_DASHED
 10
5.5267378922452473
 20
110.05
 30
0.0
 40
0.15
1001
ACAD
1000
TCW40_DEV_WIDTH
1002
{
1040
0.0196850392967463
1002
}
  0
CIRCLE
  5
E4F3
  8
MSM_DASHED
 10
5.195865068125868
 20
106.9499999999999
 30
0.0
 40
0.15
1001
ACAD
1000
TCW40_DEV_WIDTH
1002
{
1040
0.0196850392967463
1002
}
  0
LINE
  5
E4F4
  8
MSM_DASHED
 10
5.6758907258791877
 20
110.0340804453903
 30
0.0
 11
5.3450179017598058
 21
106.93408044539029
 31
0.0
1001
ACAD
1000
TCW40_DEV_WIDTH
1002
{
1040
0.0078740157186985
1002
}
  0
LINE
  5
E4F5
  8
MSM_DASHED
 10
5.3775850586113201
 20
110.06591955460959
 30
0.0
 11
5.0467122344919586
 21
106.9659195546096
 31
0.0
1001
ACAD
1000
TCW40_DEV_WIDTH
1002
{
1040
0.0078740157186985
1002
}
  0
ARC
  5
E4F6
  8
MSM_DASHED
 10
1.9999999999999989
 20
108.4999999999999
 30
0.0
 40
2.0
 50
261.37307344132103
 51
98.62692655867896
  0
LINE
  5
E4F7
  8
MSM_CONTINUOUS
 10
32.339728112130722
 20
113.40000000000001
 30
0.0
 11
50.339728112130729
 21
113.40000000000001
 31
0.0
  0
LINE
  5
E4F8
  8
MSM_CONTINUOUS
 10
32.339728112130722
 20
103.59999999999989
 30
0.0
 11
50.339728112130729
 21
103.59999999999989
 31
0.0
  0
LINE
  5
E4F9
  8
MSM_CONTINUOUS
 10
32.339728112130722
 20
116.9999999999999
 30
0.0
 11
50.339728112130729
 21
116.9999999999999
 31
0.0
  0
LINE
  5
E4FA
  8
MSM_CONTINUOUS
 10
32.339728112130722
 20
100.0
 30
0.0
 11
50.339728112130729
 21
100.0
 31
0.0
  0
TEXT
  5
E4FB
  8
MSM_CONTINUOUS
 10
17.4078740148557
 20
107.39953069986019
 30
0.0
 40
2.0
  1
M4
 72
     4
 11
19.074540681522372
 21
108.39953069986019
 31
0.0
  0
LINE
  5
E4FC
  8
MSM_CONTINUOUS
 10
7.2000000000000091
 20
116.9999999999999
 30
0.0
 11
6.083736005230417
 21
116.9999999999999
 31
0.0
  0
ARC
  5
E4FD
  8
MSM_CONTINUOUS
 10
6.083736005230417
 20
115.9999999999999
 30
0.0
 40
1.0
 50
89.999999999999801
 51
131.98721249581661
  0
LINE
  5
E4FE
  8
MSM_CONTINUOUS
 10
7.2000000000000091
 20
100.0
 30
0.0
 11
6.083736005230409
 21
100.0
 31
0.0
  0
ARC
  5
E4FF
  8
MSM_CONTINUOUS
 10
6.083736005230417
 20
101.0
 30
0.0
 40
1.0
 50
228.01278750418331
 51
269.9999999999996
  0
LINE
  5
E500
  8
MSM_CONTINUOUS
 10
2.0310352683775461
 20
113.6979317415397
 30
0.0
 11
5.4147712736079781
 21
116.7432941462471
 31
0.0
  0
ARC
  5
E501
  8
MSM_CONTINUOUS
 10
2.6999999999999882
 20
112.9546375952926
 30
0.0
 40
1.0
 50
131.98721249581661
 51
180.0
  0
LINE
  5
E502
  8
MSM_CONTINUOUS
 10
2.031035268377539
 20
103.3020682584602
 30
0.0
 11
5.4147712736079683
 21
100.25670585375281
 31
0.0
  0
ARC
  5
E503
  8
MSM_CONTINUOUS
 10
2.6999999999999882
 20
104.0453624047073
 30
0.0
 40
1.0
 50
180.0
 51
228.01278750418331
  0
CIRCLE
  5
E504
  8
MSM_CONTINUOUS
 10
38.339728112130722
 20
108.4999999999999
 30
0.0
 40
1.6209999999999991
  0
CIRCLE
  5
E505
  8
MSM_NARROW
 10
38.339728112130722
 20
108.4999999999999
 30
0.0
 40
2.0
  0
CIRCLE
  5
E506
  8
MSM_CONTINUOUS
 10
38.339728112130722
 20
78.500000000000028
 30
0.0
 40
2.0669999999999988
  0
CIRCLE
  5
E507
  8
MSM_NARROW
 10
38.339728112130722
 20
78.500000000000028
 30
0.0
 40
2.5
  0
CIRCLE
  5
E508
  8
MSM_CONTINUOUS
 10
38.339728112130722
 20
48.499999999999972
 30
0.0
 40
2.458499999999999
  0
CIRCLE
  5
E509
  8
MSM_NARROW
 10
38.339728112130722
 20
48.499999999999972
 30
0.0
 40
3.0
  0
CIRCLE
  5
E50A
  8
MSM_CONTINUOUS
 10
38.339728112130722
 20
18.49999999999994
 30
0.0
 40
3.3235000000000001
  0
CIRCLE
  5
E50B
  8
MSM_NARROW
 10
38.339728112130722
 20
18.49999999999994
 30
0.0
 40
4.0
  0
LINE
  5
E50C
  8
MSM_DASHED
 10
1.699999999999988
 20
15.176499999999971
 30
0.0
 11
10.699999999999999
 21
15.176499999999971
 31
0.0
  0
LINE
  5
E50D
  8
MSM_DASHED
 10
1.699999999999988
 20
14.5
 30
0.0
 11
10.70000000000001
 21
14.5
 31
0.0
  0
LINE
  5
E50E
  8
MSM_DASHED
 10
1.699999999999988
 20
22.5
 30
0.0
 11
10.69999999999998
 21
22.5
 31
0.0
  0
LINE
  5
E50F
  8
MSM_DASHED
 10
1.699999999999988
 20
21.823500000000031
 30
0.0
 11
10.69999999999998
 21
21.823500000000031
 31
0.0
  0
LINE
  5
E510
  8
MSM_DASHED
 10
1.699999999999988
 20
46.041500000000013
 30
0.0
 11
10.699999999999999
 21
46.041500000000013
 31
0.0
  0
LINE
  5
E511
  8
MSM_DASHED
 10
1.699999999999988
 20
45.499999999999993
 30
0.0
 11
10.699999999999999
 21
45.499999999999993
 31
0.0
  0
LINE
  5
E512
  8
MSM_DASHED
 10
1.699999999999988
 20
51.5
 30
0.0
 11
10.69999999999999
 21
51.5
 31
0.0
  0
LINE
  5
E513
  8
MSM_DASHED
 10
1.699999999999988
 20
50.958499999999979
 30
0.0
 11
10.69999999999999
 21
50.958499999999979
 31
0.0
  0
LINE
  5
E514
  8
MSM_DASHED
 10
1.699999999999988
 20
76.432999999999993
 30
0.0
 11
10.699999999999999
 21
76.432999999999993
 31
0.0
  0
LINE
  5
E515
  8
MSM_DASHED
 10
1.699999999999988
 20
76.0
 30
0.0
 11
10.699999999999999
 21
76.0
 31
0.0
  0
LINE
  5
E516
  8
MSM_DASHED
 10
1.699999999999988
 20
81.0
 30
0.0
 11
10.69999999999999
 21
81.0
 31
0.0
  0
LINE
  5
E517
  8
MSM_DASHED
 10
1.699999999999988
 20
80.567000000000007
 30
0.0
 11
10.69999999999999
 21
80.567000000000007
 31
0.0
  0
LINE
  5
E518
  8
MSM_DASHED
 10
1.699999999999988
 20
110.121
 30
0.0
 11
10.69999999999999
 21
110.121
 31
0.0
  0
LINE
  5
E519
  8
MSM_DASHED
 10
1.699999999999988
 20
110.5
 30
0.0
 11
10.69999999999999
 21
110.5
 31
0.0
  0
LINE
  5
E51A
  8
MSM_DASHED
 10
1.699999999999988
 20
106.879
 30
0.0
 11
10.699999999999999
 21
106.879
 31
0.0
  0
LINE
  5
E51B
  8
MSM_DASHED
 10
1.699999999999988
 20
106.5
 30
0.0
 11
10.699999999999999
 21
106.5
 31
0.0
  0
INSERT
  5
E540
  8
MSM_CONTINUOUS
  2
*U4
 10
0.0
 20
0.0
 30
0.0
  0
INSERT
  5
E541
  8
MSM_CONTINUOUS
  2
*U5
 10
0.0
 20
0.0
 30
0.0
  0
INSERT
  5
E542
  8
MSM_CONTINUOUS
  2
*U6
 10
0.0
 20
0.0
 30
0.0
  0
ENDSEC
  0
EOF
