  0
SECTION
  2
HEADER
  9
$ACADVER
  1
AC1009
  9
$INSBASE
 10
0.0
 20
0.0
 30
0.0
  9
$EXTMIN
 10
-0.0111384208839809
 20
-0.0128166004865875
 30
-0.0000000349181948
  9
$EXTMAX
 10
168.80132629143441
 20
113.92117138030331
 30
0.0000000814935746
  9
$LIMMIN
 10
0.0
 20
0.0
  9
$LIMMAX
 10
297.0
 20
210.0
  9
$ORTHOMODE
 70
     1
  9
$REGENMODE
 70
     1
  9
$FILLMODE
 70
     1
  9
$QTEXTMODE
 70
     0
  9
$MIRRTEXT
 70
     1
  9
$DRAGMODE
 70
     2
  9
$LTSCALE
 40
1.0
  9
$OSMODE
 70
   105
  9
$ATTMODE
 70
     1
  9
$TEXTSIZE
 40
6.4000000000000012
  9
$TRACEWID
 40
0.05
  9
$TEXTSTYLE
  7
STANDARD
  9
$CLAYER
  8
0
  9
$CELTYPE
  6
CONTINUOUS
  9
$CECOLOR
 62
     7
  9
$DIMSCALE
 40
1.0
  9
$DIMASZ
 40
3.0
  9
$DIMEXO
 40
1.0
  9
$DIMDLI
 40
0.0
  9
$DIMRND
 40
0.0
  9
$DIMDLE
 40
0.0
  9
$DIMEXE
 40
1.0
  9
$DIMTP
 40
0.0
  9
$DIMTM
 40
0.0
  9
$DIMTXT
 40
3.2000000000000002
  9
$DIMCEN
 40
0.0
  9
$DIMTSZ
 40
0.0
  9
$DIMTOL
 70
     0
  9
$DIMLIM
 70
     0
  9
$DIMTIH
 70
     0
  9
$DIMTOH
 70
     0
  9
$DIMSE1
 70
     0
  9
$DIMSE2
 70
     0
  9
$DIMTAD
 70
     1
  9
$DIMZIN
 70
     8
  9
$DIMBLK
  1

  9
$DIMASO
 70
     1
  9
$DIMSHO
 70
     1
  9
$DIMPOST
  1

  9
$DIMAPOST
  1

  9
$DIMALT
 70
     0
  9
$DIMALTD
 70
     2
  9
$DIMALTF
 40
0.04
  9
$DIMLFAC
 40
1.0
  9
$DIMTOFL
 70
     1
  9
$DIMTVP
 40
1.0
  9
$DIMTIX
 70
     1
  9
$DIMSOXD
 70
     0
  9
$DIMSAH
 70
     0
  9
$DIMBLK1
  1

  9
$DIMBLK2
  1

  9
$DIMSTYLE
  2
MISUMI
  9
$DIMCLRD
 70
     0
  9
$DIMCLRE
 70
     0
  9
$DIMCLRT
 70
     0
  9
$DIMTFAC
 40
0.6
  9
$DIMGAP
 40
1.0
  9
$LUNITS
 70
     2
  9
$LUPREC
 70
     4
  9
$SKETCHINC
 40
0.1
  9
$FILLETRAD
 40
0.3
  9
$AUNITS
 70
     0
  9
$AUPREC
 70
     0
  9
$MENU
  1
acad
  9
$ELEVATION
 40
0.0
  9
$PELEVATION
 40
0.0
  9
$THICKNESS
 40
0.0
  9
$LIMCHECK
 70
     0
  9
$BLIPMODE
 70
     0
  9
$CHAMFERA
 40
0.5
  9
$CHAMFERB
 40
0.5
  9
$SKPOLY
 70
     0
  9
$TDCREATE
 40
2451464.60066493
  9
$TDUPDATE
 40
2453326.4357834142
  9
$TDINDWG
 40
0.2312214583
  9
$TDUSRTIMER
 40
0.2311664352
  9
$USRTIMER
 70
     1
  9
$ANGBASE
 50
0.0
  9
$ANGDIR
 70
     0
  9
$PDMODE
 70
     0
  9
$PDSIZE
 40
0.0
  9
$PLINEWID
 40
0.0
  9
$COORDS
 70
     1
  9
$SPLFRAME
 70
     0
  9
$SPLINETYPE
 70
     6
  9
$SPLINESEGS
 70
     8
  9
$ATTDIA
 70
     0
  9
$ATTREQ
 70
     1
  9
$HANDLING
 70
 10241
  9
$HANDSEED
  5
351A
  9
$SURFTAB1
 70
     6
  9
$SURFTAB2
 70
     6
  9
$SURFTYPE
 70
     6
  9
$SURFU
 70
     6
  9
$SURFV
 70
     6
  9
$UCSNAME
  2

  9
$UCSORG
 10
0.0
 20
0.0
 30
0.0
  9
$UCSXDIR
 10
1.0
 20
0.0
 30
0.0
  9
$UCSYDIR
 10
0.0
 20
1.0
 30
0.0
  9
$PUCSNAME
  2

  9
$PUCSORG
 10
0.0
 20
0.0
 30
0.0
  9
$PUCSXDIR
 10
1.0
 20
0.0
 30
0.0
  9
$PUCSYDIR
 10
0.0
 20
1.0
 30
0.0
  9
$USERI1
 70
     0
  9
$USERI2
 70
     0
  9
$USERI3
 70
     0
  9
$USERI4
 70
     0
  9
$USERI5
 70
     0
  9
$USERR1
 40
0.0
  9
$USERR2
 40
0.0
  9
$USERR3
 40
0.0
  9
$USERR4
 40
0.0
  9
$USERR5
 40
0.0
  9
$WORLDVIEW
 70
     1
  9
$SHADEDGE
 70
     3
  9
$SHADEDIF
 70
    70
  9
$TILEMODE
 70
     1
  9
$MAXACTVP
 70
    16
  9
$PLIMCHECK
 70
     0
  9
$PEXTMIN
 10
0.0
 20
0.0
 30
0.0
  9
$PEXTMAX
 10
0.0
 20
0.0
 30
0.0
  9
$PLIMMIN
 10
0.0
 20
0.0
  9
$PLIMMAX
 10
0.0
 20
0.0
  9
$UNITMODE
 70
     0
  9
$VISRETAIN
 70
     0
  9
$PLINEGEN
 70
     0
  9
$PSLTSCALE
 70
     1
  0
ENDSEC
  0
SECTION
  2
TABLES
  0
TABLE
  2
VPORT
 70
     5
  0
VPORT
  2
*ACTIVE
 70
     0
 10
0.0
 20
0.0
 11
1.0
 21
1.0
 12
84.395093935275199
 22
56.954177389908402
 13
0.0
 23
0.0
 14
10.0
 24
10.0
 15
10.0
 25
10.0
 16
0.0
 26
0.0
 36
1.0
 17
0.0
 27
0.0
 37
0.0
 40
114.8183397633058
 41
1.560880829015544
 42
50.0
 43
0.0
 44
0.0
 50
0.0
 51
0.0
 71
     0
 72
   100
 73
     1
 74
     0
 75
     0
 76
     0
 77
     0
 78
     0
  0
ENDTAB
  0
TABLE
  2
LTYPE
 70
     3
  0
LTYPE
  2
CONTINUOUS
 70
     0
  3
Solid line
 72
    65
 73
     0
 40
0.0
  0
LTYPE
  2
CENTER
 70
     0
  3
Center ____ _ ____ _ ____ _ ____ _ ____ _ ____
 72
    65
 73
     4
 40
2.0
 49
1.25
 49
-0.25
 49
0.25
 49
-0.25
  0
LTYPE
  2
DASHED
 70
     0
  3
Dashed __ __ __ __ __ __ __ __ __ __ __ __ __ _
 72
    65
 73
     2
 40
0.75
 49
0.5
 49
-0.25
  0
ENDTAB
  0
TABLE
  2
LAYER
 70
     3
  0
LAYER
  2
0
 70
     0
 62
     7
  6
CONTINUOUS
  0
LAYER
  2
DEFPOINTS
 70
     0
 62
     7
  6
CONTINUOUS
  0
LAYER
  2
CENTER
 70
     0
 62
     1
  6
CENTER
  0
ENDTAB
  0
TABLE
  2
STYLE
 70
     1
  0
STYLE
  2
STANDARD
 70
     0
 40
0.0
 41
1.0
 50
0.0
 71
     0
 42
6.4000000000000012
  3
txt
  4

  0
ENDTAB
  0
TABLE
  2
VIEW
 70
     0
  0
ENDTAB
  0
TABLE
  2
UCS
 70
     0
  0
ENDTAB
  0
TABLE
  2
APPID
 70
     8
  0
APPID
  2
ACAD
 70
     0
  0
APPID
  2
GENIUS_GENCFG_13
 70
     0
  0
APPID
  2
GENIUS_GENCFG0_13
 70
     0
  0
APPID
  2
GENIUS_GENCFG1_13
 70
     0
  0
APPID
  2
GENIUS_GENCFG2_13
 70
     0
  0
APPID
  2
GENIUS_GENCFG3_13
 70
     0
  0
APPID
  2
GENIUS_GENCFG4_13
 70
     0
  0
APPID
  2
GENIUS_GEVCFG0_13
 70
     0
  0
ENDTAB
  0
TABLE
  2
DIMSTYLE
 70
     2
  0
DIMSTYLE
  2
MISUMI
 70
     0
  3

  4

  5

  6

  7

 40
1.0
 41
3.0
 42
1.0
 43
0.0
 44
1.0
 45
0.0
 46
0.0
 47
0.0
 48
0.0
140
3.2000000000000002
141
0.0
142
0.0
143
0.04
144
1.0
145
1.0
146
0.6
147
1.0
 71
     0
 72
     0
 73
     0
 74
     0
 75
     0
 76
     0
 77
     1
 78
     8
170
     0
171
     2
172
     1
173
     0
174
     1
175
     0
176
     0
177
     0
178
     0
  0
DIMSTYLE
  2
STANDARD
 70
     0
  3

  4

  5

  6

  7

 40
1.0
 41
2.5
 42
0.625
 43
3.75
 44
1.25
 45
0.0
 46
0.0
 47
0.0
 48
0.0
140
2.5
141
2.5
142
0.0
143
0.0394
144
1.0
145
0.0
146
1.0
147
0.625
 71
     0
 72
     0
 73
     0
 74
     0
 75
     0
 76
     0
 77
     1
 78
     8
170
     0
171
     4
172
     1
173
     0
174
     0
175
     0
176
     0
177
     0
178
     0
  0
ENDTAB
  0
ENDSEC
  0
SECTION
  2
BLOCKS
  0
BLOCK
  8
0
  2
$MODEL_SPACE
 70
     0
 10
0.0
 20
0.0
 30
0.0
  3
$MODEL_SPACE
  1

  0
ENDBLK
  5
2BC9
  8
0
  0
BLOCK
 67
     1
  8
0
  2
$PAPER_SPACE
 70
     0
 10
0.0
 20
0.0
 30
0.0
  3
$PAPER_SPACE
  1

  0
ENDBLK
  5
2BC5
 67
     1
  8
0
  0
ENDSEC
  0
SECTION
  2
ENTITIES
  0
CIRCLE
  5
3111
  8
0
  6
CONTINUOUS
 62
     7
 10
139.79904262656251
 20
84.908606690722706
 30
0.0
 40
7.9999999999999982
  0
CIRCLE
  5
3112
  8
0
  6
CONTINUOUS
 62
     7
 10
139.79904262656251
 20
104.40860669072271
 30
0.0
 40
3.0
  0
CIRCLE
  5
3113
  8
0
  6
CONTINUOUS
 62
     7
 10
139.79904262656251
 20
65.408606690722706
 30
0.0
 40
3.0
  0
LINE
  5
3114
  8
0
  6
DASHED
 62
     3
 10
123.97775040833309
 20
65.551781333200921
 30
0.0
 11
136.1932627411224
 21
77.767293686956776
 31
0.0
  0
LINE
  5
3115
  8
0
  6
DASHED
 62
     3
 10
136.67631830592271
 20
77.543242285801199
 30
0.0
 11
124.3704341450502
 21
65.237358237703489
 31
0.0
  0
LINE
  5
3116
  8
0
  6
DASHED
 62
     3
 10
123.977750254477
 20
104.26543192249019
 30
0.0
 11
136.1932630677189
 21
92.0499198593931
 31
0.0
  0
LINE
  5
3117
  8
0
  6
DASHED
 62
     3
 10
136.67631857078601
 20
92.273971207939383
 30
0.0
 11
124.3704338922695
 21
104.57985494548019
 31
0.0
  0
LINE
  5
3118
  8
0
  6
DASHED
 62
     3
 10
132.4336777313224
 20
81.785883526565229
 30
0.0
 11
120.1277933505267
 21
69.47999925854441
 31
0.0
  0
LINE
  5
3119
  8
0
  6
DASHED
 62
     3
 10
120.4422165042938
 20
69.087315408135822
 30
0.0
 11
132.65772903822631
 21
81.3028279630349
 31
0.0
  0
LINE
  5
311A
  8
0
  6
DASHED
 62
     3
 10
132.4336780741979
 20
88.031330663598254
 30
0.0
 11
120.12779349267829
 21
100.33721430414209
 31
0.0
  0
LINE
  5
311B
  8
0
  6
DASHED
 62
     3
 10
120.4422166786016
 20
100.7298981865693
 30
0.0
 11
132.6577294269772
 21
88.514386188338648
 31
0.0
  0
CIRCLE
  5
311C
  8
0
  6
CONTINUOUS
 62
     7
 10
139.79904262656251
 20
84.908606690722706
 30
0.0
 40
24.999999507524048
  0
LINE
  5
311D
  8
CENTER
  6
CENTER
 62
     1
 10
139.79904262656251
 20
113.9086061982467
 30
0.0
 11
139.79904262656251
 21
55.908607183198647
 31
0.0
  0
LINE
  5
311E
  8
CENTER
  6
CENTER
 62
     1
 10
137.79904262656251
 20
86.908606690722706
 30
0.0
 11
120.7071598827588
 21
104.0004894345263
 31
0.0
  0
LINE
  5
311F
  8
CENTER
  6
CENTER
 62
     1
 10
137.79904262656251
 20
82.908606690722706
 30
0.0
 11
120.7071593987361
 21
65.816724430941747
 31
0.0
  0
LINE
  5
3120
  8
CENTER
  6
CENTER
 62
     1
 10
168.79904213408659
 20
84.908606690722706
 30
0.0
 11
110.7990431190385
 21
84.908606690722706
 31
0.0
  0
LINE
  5
3121
  8
0
  6
DASHED
 62
     3
 10
80.999999999999943
 20
76.908606690722706
 30
0.0
 11
62.999999999999972
 21
76.908606690722763
 31
0.0
  0
LINE
  5
3122
  8
0
  6
DASHED
 62
     3
 10
81.000000000000057
 20
92.908606690722706
 30
0.0
 11
63.000000000000028
 21
92.908606690722763
 31
0.0
  0
LINE
  5
3123
  8
0
  6
DASHED
 62
     3
 10
40.0
 20
92.908606690722706
 30
0.0
 11
58.0
 21
92.908606690722706
 31
0.0
  0
LINE
  5
3124
  8
0
  6
DASHED
 62
     3
 10
40.0
 20
76.908606690722706
 30
0.0
 11
58.0
 21
76.908606690722706
 31
0.0
  0
ARC
  5
3125
  8
0
  6
CONTINUOUS
 62
     7
 10
41.200000000000038
 20
61.108606690722752
 30
0.0
 40
1.1999999999999991
 50
180.0
 51
270.0
  0
ARC
  5
3126
  8
0
  6
CONTINUOUS
 62
     7
 10
79.799999999999955
 20
61.108606690722752
 30
0.0
 40
1.1999999999999991
 50
270.0
 51
0.0
  0
ARC
  5
3127
  8
0
  6
CONTINUOUS
 62
     7
 10
41.200000000000038
 20
108.7086066907226
 30
0.0
 40
1.1999999999999991
 50
90.0
 51
180.0
  0
ARC
  5
3128
  8
0
  6
CONTINUOUS
 62
     7
 10
79.799999999999955
 20
108.7086066907226
 30
0.0
 40
1.1999999999999991
 50
0.0
 51
90.0
  0
LINE
  5
3129
  8
0
  6
CONTINUOUS
 62
     7
 10
65.0
 20
109.5002726907227
 30
0.0
 11
65.0
 21
99.908606690722706
 31
0.0
  0
LINE
  5
312A
  8
0
  6
CONTINUOUS
 62
     7
 10
61.0
 20
101.40860669072271
 30
0.0
 11
61.0
 21
100.40860669072271
 31
0.0
  0
LINE
  5
312B
  8
0
  6
CONTINUOUS
 62
     7
 10
61.0
 20
107.40860669072271
 30
0.0
 11
61.0
 21
101.40860669072271
 31
0.0
  0
LINE
  5
312C
  8
0
  6
CONTINUOUS
 62
     7
 10
60.5
 20
108.40860669072271
 30
0.0
 11
60.5
 21
100.40860669072271
 31
0.0
  0
LINE
  5
312D
  8
0
  6
CONTINUOUS
 62
     7
 10
59.799999999999947
 20
109.8086066907225
 30
0.0
 11
59.799999999999947
 21
109.90860669072271
 31
0.0
  0
LINE
  5
312E
  8
0
  6
CONTINUOUS
 62
     7
 10
65.0
 20
109.5002726907227
 30
0.0
 11
63.0
 21
109.5002726907227
 31
0.0
  0
LINE
  5
312F
  8
0
  6
CONTINUOUS
 62
     7
 10
59.799999999999947
 20
109.8086066907225
 30
0.0
 11
60.5
 21
109.8086066907225
 31
0.0
  0
LINE
  5
3130
  8
0
  6
CONTINUOUS
 62
     7
 10
60.5
 20
108.40860669072271
 30
0.0
 11
61.0
 21
108.40860669072271
 31
0.0
  0
LINE
  5
3131
  8
0
  6
CONTINUOUS
 62
     7
 10
61.0
 20
107.40860669072271
 30
0.0
 11
61.700000000000053
 21
107.40860669072271
 31
0.0
  0
LINE
  5
3132
  8
0
  6
CONTINUOUS
 62
     7
 10
58.0
 20
109.90860669072271
 30
0.0
 11
59.799999999999947
 21
109.90860669072271
 31
0.0
  0
LINE
  5
3133
  8
0
  6
CONTINUOUS
 62
     7
 10
65.0
 20
109.90860669072271
 30
0.0
 11
79.799999999999955
 21
109.90860669072261
 31
0.0
  0
LINE
  5
3134
  8
0
  6
CONTINUOUS
 62
     7
 10
65.0
 20
99.908606690722706
 30
0.0
 11
63.0
 21
99.908606690722706
 31
0.0
  0
LINE
  5
3135
  8
0
  6
CONTINUOUS
 62
     7
 10
61.700000000000053
 20
101.40860669072271
 30
0.0
 11
61.0
 21
101.40860669072271
 31
0.0
  0
LINE
  5
3136
  8
0
  6
CONTINUOUS
 62
     7
 10
61.0
 20
100.40860669072271
 30
0.0
 11
60.5
 21
100.40860669072271
 31
0.0
  0
LINE
  5
3137
  8
0
  6
CONTINUOUS
 62
     7
 10
59.799999999999947
 20
100.2086066907226
 30
0.0
 11
58.0
 21
99.726298690722786
 31
0.0
  0
LINE
  5
3138
  8
CENTER
  6
CENTER
 62
     1
 10
76.0
 20
102.5862766907227
 30
0.0
 11
68.0
 21
102.5862766907227
 31
0.0
  0
LINE
  5
3139
  8
0
  6
CONTINUOUS
 62
     7
 10
61.0
 20
108.40860669072271
 30
0.0
 11
61.0
 21
107.40860669072271
 31
0.0
  0
LINE
  5
313A
  8
0
  6
CONTINUOUS
 62
     7
 10
61.700000000000053
 20
107.40860669072271
 30
0.0
 11
61.700000000000053
 21
101.40860669072271
 31
0.0
  0
LINE
  5
313B
  8
0
  6
CONTINUOUS
 62
     7
 10
65.0
 20
109.90860669072271
 30
0.0
 11
65.0
 21
109.5002726907227
 31
0.0
  0
LINE
  5
313C
  8
CENTER
  6
CENTER
 62
     1
 10
72.0
 20
106.5862766907227
 30
0.0
 11
72.0
 21
98.586276690722755
 31
0.0
  0
LINE
  5
313D
  8
0
  6
CONTINUOUS
 62
     7
 10
60.5
 20
109.8086066907225
 30
0.0
 11
60.5
 21
108.40860669072271
 31
0.0
  0
LINE
  5
313E
  8
0
  6
CONTINUOUS
 62
     7
 10
41.200000000000038
 20
109.90860669072261
 30
0.0
 11
58.0
 21
109.90860669072271
 31
0.0
  0
LINE
  5
313F
  8
0
  6
CONTINUOUS
 62
     7
 10
65.0
 20
60.316941690722778
 30
0.0
 11
65.0
 21
69.908606690722706
 31
0.0
  0
LINE
  5
3140
  8
0
  6
CONTINUOUS
 62
     7
 10
60.5
 20
80.408606690722706
 30
0.0
 11
60.5
 21
69.408606690722706
 31
0.0
  0
LINE
  5
3141
  8
0
  6
CONTINUOUS
 62
     7
 10
60.5
 20
69.408606690722706
 30
0.0
 11
60.5
 21
61.408606690722713
 31
0.0
  0
LINE
  5
3142
  8
0
  6
CONTINUOUS
 62
     7
 10
61.0
 20
68.408606690722706
 30
0.0
 11
61.0
 21
69.408606690722706
 31
0.0
  0
LINE
  5
3143
  8
0
  6
CONTINUOUS
 62
     7
 10
61.0
 20
62.408606690722699
 30
0.0
 11
61.0
 21
68.408606690722706
 31
0.0
  0
LINE
  5
3144
  8
0
  6
CONTINUOUS
 62
     7
 10
60.5
 20
61.408606690722713
 30
0.0
 11
60.5
 21
60.008606690722608
 31
0.0
  0
LINE
  5
3145
  8
0
  6
CONTINUOUS
 62
     7
 10
60.5
 20
89.408606690722706
 30
0.0
 11
60.5
 21
80.408606690722706
 31
0.0
  0
LINE
  5
3146
  8
0
  6
CONTINUOUS
 62
     7
 10
59.799999999999947
 20
88.908606690722706
 30
0.0
 11
59.299999999999962
 21
88.908606690722706
 31
0.0
  0
LINE
  5
3147
  8
0
  6
CONTINUOUS
 62
     7
 10
56.200000000000038
 20
89.408606690722706
 30
0.0
 11
58.0
 21
89.890915690722693
 31
0.0
  0
LINE
  5
3148
  8
0
  6
CONTINUOUS
 62
     7
 10
59.299999999999962
 20
87.908606690722706
 30
0.0
 11
58.599999999999909
 21
87.908606690722706
 31
0.0
  0
LINE
  5
3149
  8
0
  6
CONTINUOUS
 62
     7
 10
60.5
 20
89.408606690722706
 30
0.0
 11
63.0
 21
89.890915690722693
 31
0.0
  0
LINE
  5
314A
  8
0
  6
CONTINUOUS
 62
     7
 10
65.0
 20
69.908606690722706
 30
0.0
 11
63.0
 21
69.908606690722706
 31
0.0
  0
LINE
  5
314B
  8
0
  6
CONTINUOUS
 62
     7
 10
59.299999999999962
 20
80.908606690722706
 30
0.0
 11
59.799999999999947
 21
80.908606690722706
 31
0.0
  0
LINE
  5
314C
  8
0
  6
CONTINUOUS
 62
     7
 10
56.200000000000038
 20
80.408606690722706
 30
0.0
 11
58.0
 21
79.926298690722604
 31
0.0
  0
LINE
  5
314D
  8
0
  6
CONTINUOUS
 62
     7
 10
58.599999999999909
 20
81.908606690722706
 30
0.0
 11
59.299999999999962
 21
81.908606690722706
 31
0.0
  0
LINE
  5
314E
  8
0
  6
CONTINUOUS
 62
     7
 10
60.5
 20
80.408606690722706
 30
0.0
 11
63.0
 21
79.926298690722604
 31
0.0
  0
LINE
  5
314F
  8
0
  6
CONTINUOUS
 62
     7
 10
56.200000000000038
 20
80.408606690722706
 30
0.0
 11
56.200000000000038
 21
89.408606690722706
 31
0.0
  0
LINE
  5
3150
  8
0
  6
CONTINUOUS
 62
     7
 10
58.599999999999909
 20
87.908606690722706
 30
0.0
 11
58.599999999999909
 21
81.908606690722706
 31
0.0
  0
LINE
  5
3151
  8
0
  6
CONTINUOUS
 62
     7
 10
59.299999999999962
 20
88.908606690722706
 30
0.0
 11
59.299999999999962
 21
80.908606690722706
 31
0.0
  0
LINE
  5
3152
  8
0
  6
CONTINUOUS
 62
     7
 10
63.0
 20
79.926298690722604
 30
0.0
 11
63.0
 21
89.890915690722693
 31
0.0
  0
LINE
  5
3153
  8
0
  6
CONTINUOUS
 62
     7
 10
65.0
 20
60.316941690722778
 30
0.0
 11
63.0
 21
60.316941690722778
 31
0.0
  0
LINE
  5
3154
  8
0
  6
CONTINUOUS
 62
     7
 10
61.700000000000053
 20
68.408606690722706
 30
0.0
 11
61.0
 21
68.408606690722706
 31
0.0
  0
LINE
  5
3155
  8
0
  6
CONTINUOUS
 62
     7
 10
61.0
 20
69.408606690722706
 30
0.0
 11
60.5
 21
69.408606690722706
 31
0.0
  0
LINE
  5
3156
  8
0
  6
CONTINUOUS
 62
     7
 10
61.0
 20
62.408606690722699
 30
0.0
 11
61.700000000000053
 21
62.408606690722699
 31
0.0
  0
LINE
  5
3157
  8
0
  6
CONTINUOUS
 62
     7
 10
60.5
 20
61.408606690722713
 30
0.0
 11
61.0
 21
61.408606690722713
 31
0.0
  0
LINE
  5
3158
  8
0
  6
CONTINUOUS
 62
     7
 10
61.700000000000053
 20
62.408606690722699
 30
0.0
 11
61.700000000000053
 21
68.408606690722706
 31
0.0
  0
LINE
  5
3159
  8
0
  6
CONTINUOUS
 62
     7
 10
61.0
 20
61.408606690722713
 30
0.0
 11
61.0
 21
62.408606690722699
 31
0.0
  0
LINE
  5
315A
  8
0
  6
CONTINUOUS
 62
     7
 10
60.5
 20
60.008606690722608
 30
0.0
 11
59.799999999999947
 21
60.008606690722608
 31
0.0
  0
LINE
  5
315B
  8
0
  6
CONTINUOUS
 62
     7
 10
59.799999999999947
 20
60.008606690722608
 30
0.0
 11
60.5
 21
60.008606690722608
 31
0.0
  0
LINE
  5
315C
  8
0
  6
CONTINUOUS
 62
     7
 10
58.0
 20
59.908606690722699
 30
0.0
 11
59.799999999999947
 21
59.908606690722699
 31
0.0
  0
LINE
  5
315D
  8
0
  6
CONTINUOUS
 62
     7
 10
65.0
 20
59.908606690722699
 30
0.0
 11
79.799999999999955
 21
59.908606690722728
 31
0.0
  0
LINE
  5
315F
  8
0
  6
CONTINUOUS
 62
     7
 10
59.799999999999947
 20
59.908606690722699
 30
0.0
 11
59.799999999999947
 21
60.008606690722608
 31
0.0
  0
LINE
  5
3160
  8
0
  6
CONTINUOUS
 62
     7
 10
59.799999999999947
 20
69.608606690722752
 30
0.0
 11
58.0
 21
70.090915690722738
 31
0.0
  0
LINE
  5
3161
  8
0
  6
CONTINUOUS
 62
     7
 10
63.0
 20
60.316941690722778
 30
0.0
 11
63.0
 21
79.926298690722604
 31
0.0
  0
LINE
  5
3162
  8
0
  6
CONTINUOUS
 62
     7
 10
65.0
 20
59.908606690722699
 30
0.0
 11
65.0
 21
60.316941690722778
 31
0.0
  0
LINE
  5
3166
  8
CENTER
  6
CENTER
 62
     1
 10
36.000000000000028
 20
84.908606690722706
 30
0.0
 11
84.999999999999943
 21
84.908606690722706
 31
0.0
  0
LINE
  5
3167
  8
0
  6
CONTINUOUS
 62
     7
 10
41.200000000000038
 20
59.908606690722728
 30
0.0
 11
58.0
 21
59.908606690722699
 31
0.0
  0
LINE
  5
3168
  8
0
  6
CONTINUOUS
 62
     7
 10
59.799999999999947
 20
60.008606690722608
 30
0.0
 11
59.799999999999947
 21
109.8086066907225
 31
0.0
  0
LINE
  5
3169
  8
0
  6
CONTINUOUS
 62
     7
 10
60.5
 20
100.40860669072271
 30
0.0
 11
60.5
 21
89.408606690722706
 31
0.0
  0
LINE
  5
316A
  8
0
  6
CONTINUOUS
 62
     7
 10
63.0
 20
89.890915690722693
 30
0.0
 11
63.0
 21
109.5002726907227
 31
0.0
  0
LINE
  5
316B
  8
0
  6
CONTINUOUS
 62
     7
 10
58.0
 20
109.90860669072271
 30
0.0
 11
58.0
 21
59.908606690722699
 31
0.0
  0
LINE
  5
316C
  8
0
  6
CONTINUOUS
 62
     7
 10
80.999999999999943
 20
61.108606690722752
 30
0.0
 11
80.999999999999943
 21
108.7086066907226
 31
0.0
  0
LINE
  5
316D
  8
0
  6
CONTINUOUS
 62
     7
 10
40.000000000000021
 20
61.108606690722752
 30
0.0
 11
40.000000000000021
 21
108.7086066907226
 31
0.0
  0
TEXT
  5
316E
  8
0
  6
CONTINUOUS
 62
     7
 10
0.0
 20
10.0
 30
0.0
 40
2.0
  1
MCGS 50 - 16 - 16
  0
TEXT
  5
316F
  8
0
  6
CONTINUOUS
 62
     7
 10
0.0
 20
0.0
 30
0.0
 40
2.0
  1
MCGS50
  0
LINE
  5
31EB
  8
0
  6
DASHED
 62
     3
 10
75.0
 20
92.908606690722706
 30
0.0
 11
75.0
 21
102.58627587215319
 31
0.0
  0
LINE
  5
31EC
  8
0
  6
DASHED
 62
     3
 10
69.0
 20
92.908606690722749
 30
0.0
 11
69.0
 21
102.58627587215319
 31
0.0
  0
LINE
  5
31ED
  8
0
  6
DASHED
 62
     3
 10
69.5
 20
92.908606690722735
 30
0.0
 11
69.5
 21
101.4842835761315
 31
0.0
  0
LINE
  5
31EE
  8
0
  6
DASHED
 62
     3
 10
74.5
 20
92.908606690722735
 30
0.0
 11
74.5
 21
101.4842835761315
 31
0.0
  0
POLYLINE
  5
31EF
  8
0
  6
CONTINUOUS
 62
     3
 10
69.0
 20
102.58627587215319
 30
0.0
 66
     1
 70
     8
  0
VERTEX
  8
0
  5
320E
 10
69.0000
 20
102.586
 30
0.000000
  70
    32
  0
VERTEX
  8
0
  5
320F
 10
69.0036
 20
102.488
 30
0.000000
  70
    32
  0
VERTEX
  8
0
  5
3210
 10
69.0144
 20
102.391
 30
0.000000
  70
    32
  0
VERTEX
  8
0
  5
3211
 10
69.0325
 20
102.294
 30
0.000000
  70
    32
  0
VERTEX
  8
0
  5
3212
 10
69.0576
 20
102.197
 30
0.000000
  70
    32
  0
VERTEX
  8
0
  5
3213
 10
69.0899
 20
102.102
 30
0.000000
  70
    32
  0
VERTEX
  8
0
  5
3214
 10
69.1292
 20
102.008
 30
0.000000
  70
    32
  0
VERTEX
  8
0
  5
3215
 10
69.1754
 20
101.915
 30
0.000000
  70
    32
  0
VERTEX
  8
0
  5
3216
 10
69.2284
 20
101.823
 30
0.000000
  70
    32
  0
VERTEX
  8
0
  5
3217
 10
69.2880
 20
101.734
 30
0.000000
  70
    32
  0
VERTEX
  8
0
  5
3218
 10
69.3542
 20
101.647
 30
0.000000
  70
    32
  0
VERTEX
  8
0
  5
3219
 10
69.4268
 20
101.561
 30
0.000000
  70
    32
  0
VERTEX
  8
0
  5
321A
 10
69.5056
 20
101.479
 30
0.000000
  70
    32
  0
VERTEX
  8
0
  5
321B
 10
69.5904
 20
101.399
 30
0.000000
  70
    32
  0
VERTEX
  8
0
  5
321C
 10
69.6810
 20
101.322
 30
0.000000
  70
    32
  0
VERTEX
  8
0
  5
321D
 10
69.7771
 20
101.247
 30
0.000000
  70
    32
  0
VERTEX
  8
0
  5
321E
 10
69.8787
 20
101.177
 30
0.000000
  70
    32
  0
VERTEX
  8
0
  5
321F
 10
69.9853
 20
101.109
 30
0.000000
  70
    32
  0
VERTEX
  8
0
  5
3220
 10
70.0968
 20
101.045
 30
0.000000
  70
    32
  0
VERTEX
  8
0
  5
3221
 10
70.2129
 20
100.985
 30
0.000000
  70
    32
  0
VERTEX
  8
0
  5
3222
 10
70.3333
 20
100.929
 30
0.000000
  70
    32
  0
VERTEX
  8
0
  5
3223
 10
70.4577
 20
100.876
 30
0.000000
  70
    32
  0
VERTEX
  8
0
  5
3224
 10
70.5858
 20
100.828
 30
0.000000
  70
    32
  0
VERTEX
  8
0
  5
3225
 10
70.7173
 20
100.784
 30
0.000000
  70
    32
  0
VERTEX
  8
0
  5
3226
 10
70.8519
 20
100.744
 30
0.000000
  70
    32
  0
VERTEX
  8
0
  5
3227
 10
70.9893
 20
100.709
 30
0.000000
  70
    32
  0
VERTEX
  8
0
  5
3228
 10
71.1291
 20
100.679
 30
0.000000
  70
    32
  0
VERTEX
  8
0
  5
3229
 10
71.2711
 20
100.652
 30
0.000000
  70
    32
  0
VERTEX
  8
0
  5
322A
 10
71.4147
 20
100.631
 30
0.000000
  70
    32
  0
VERTEX
  8
0
  5
322B
 10
71.5598
 20
100.614
 30
0.000000
  70
    32
  0
VERTEX
  8
0
  5
322C
 10
71.7059
 20
100.602
 30
0.000000
  70
    32
  0
VERTEX
  8
0
  5
322D
 10
71.8528
 20
100.595
 30
0.000000
  70
    32
  0
VERTEX
  8
0
  5
322E
 10
72.0000
 20
100.593
 30
0.000000
  70
    32
  0
VERTEX
  8
0
  5
322F
 10
72.1472
 20
100.595
 30
0.000000
  70
    32
  0
VERTEX
  8
0
  5
3230
 10
72.2941
 20
100.602
 30
0.000000
  70
    32
  0
VERTEX
  8
0
  5
3231
 10
72.4402
 20
100.614
 30
0.000000
  70
    32
  0
VERTEX
  8
0
  5
3232
 10
72.5853
 20
100.631
 30
0.000000
  70
    32
  0
VERTEX
  8
0
  5
3233
 10
72.7289
 20
100.652
 30
0.000000
  70
    32
  0
VERTEX
  8
0
  5
3234
 10
72.8709
 20
100.679
 30
0.000000
  70
    32
  0
VERTEX
  8
0
  5
3235
 10
73.0107
 20
100.709
 30
0.000000
  70
    32
  0
VERTEX
  8
0
  5
3236
 10
73.1481
 20
100.744
 30
0.000000
  70
    32
  0
VERTEX
  8
0
  5
3237
 10
73.2827
 20
100.784
 30
0.000000
  70
    32
  0
VERTEX
  8
0
  5
3238
 10
73.4142
 20
100.828
 30
0.000000
  70
    32
  0
VERTEX
  8
0
  5
3239
 10
73.5423
 20
100.876
 30
0.000000
  70
    32
  0
VERTEX
  8
0
  5
323A
 10
73.6667
 20
100.929
 30
0.000000
  70
    32
  0
VERTEX
  8
0
  5
323B
 10
73.7871
 20
100.985
 30
0.000000
  70
    32
  0
VERTEX
  8
0
  5
323C
 10
73.9032
 20
101.045
 30
0.000000
  70
    32
  0
VERTEX
  8
0
  5
323D
 10
74.0147
 20
101.109
 30
0.000000
  70
    32
  0
VERTEX
  8
0
  5
323E
 10
74.1213
 20
101.177
 30
0.000000
  70
    32
  0
VERTEX
  8
0
  5
323F
 10
74.2229
 20
101.247
 30
0.000000
  70
    32
  0
VERTEX
  8
0
  5
3240
 10
74.3190
 20
101.322
 30
0.000000
  70
    32
  0
VERTEX
  8
0
  5
3241
 10
74.4096
 20
101.399
 30
0.000000
  70
    32
  0
VERTEX
  8
0
  5
3242
 10
74.4944
 20
101.479
 30
0.000000
  70
    32
  0
VERTEX
  8
0
  5
3243
 10
74.5732
 20
101.561
 30
0.000000
  70
    32
  0
VERTEX
  8
0
  5
3244
 10
74.6458
 20
101.647
 30
0.000000
  70
    32
  0
VERTEX
  8
0
  5
3245
 10
74.7120
 20
101.734
 30
0.000000
  70
    32
  0
VERTEX
  8
0
  5
3246
 10
74.7716
 20
101.823
 30
0.000000
  70
    32
  0
VERTEX
  8
0
  5
3247
 10
74.8246
 20
101.915
 30
0.000000
  70
    32
  0
VERTEX
  8
0
  5
3248
 10
74.8708
 20
102.008
 30
0.000000
  70
    32
  0
VERTEX
  8
0
  5
3249
 10
74.9101
 20
102.102
 30
0.000000
  70
    32
  0
VERTEX
  8
0
  5
324A
 10
74.9424
 20
102.197
 30
0.000000
  70
    32
  0
VERTEX
  8
0
  5
324B
 10
74.9675
 20
102.294
 30
0.000000
  70
    32
  0
VERTEX
  8
0
  5
324C
 10
74.9856
 20
102.391
 30
0.000000
  70
    32
  0
VERTEX
  8
0
  5
324D
 10
74.9964
 20
102.488
 30
0.000000
  70
    32
  0
VERTEX
  8
0
  5
324E
 10
75.0000
 20
102.586
 30
0.000000
  70
    32
  0
VERTEX
  8
0
  5
324F
 10
74.9964
 20
102.684
 30
0.000000
  70
    32
  0
VERTEX
  8
0
  5
3250
 10
74.9856
 20
102.782
 30
0.000000
  70
    32
  0
VERTEX
  8
0
  5
3251
 10
74.9675
 20
102.879
 30
0.000000
  70
    32
  0
VERTEX
  8
0
  5
3252
 10
74.9424
 20
102.975
 30
0.000000
  70
    32
  0
VERTEX
  8
0
  5
3253
 10
74.9101
 20
103.071
 30
0.000000
  70
    32
  0
VERTEX
  8
0
  5
3254
 10
74.8708
 20
103.165
 30
0.000000
  70
    32
  0
VERTEX
  8
0
  5
3255
 10
74.8246
 20
103.258
 30
0.000000
  70
    32
  0
VERTEX
  8
0
  5
3256
 10
74.7716
 20
103.349
 30
0.000000
  70
    32
  0
VERTEX
  8
0
  5
3257
 10
74.7120
 20
103.439
 30
0.000000
  70
    32
  0
VERTEX
  8
0
  5
3258
 10
74.6458
 20
103.526
 30
0.000000
  70
    32
  0
VERTEX
  8
0
  5
3259
 10
74.5732
 20
103.611
 30
0.000000
  70
    32
  0
VERTEX
  8
0
  5
325A
 10
74.4944
 20
103.694
 30
0.000000
  70
    32
  0
VERTEX
  8
0
  5
325B
 10
74.4096
 20
103.774
 30
0.000000
  70
    32
  0
VERTEX
  8
0
  5
325C
 10
74.3190
 20
103.851
 30
0.000000
  70
    32
  0
VERTEX
  8
0
  5
325D
 10
74.2229
 20
103.925
 30
0.000000
  70
    32
  0
VERTEX
  8
0
  5
325E
 10
74.1213
 20
103.996
 30
0.000000
  70
    32
  0
VERTEX
  8
0
  5
325F
 10
74.0147
 20
104.063
 30
0.000000
  70
    32
  0
VERTEX
  8
0
  5
3260
 10
73.9032
 20
104.127
 30
0.000000
  70
    32
  0
VERTEX
  8
0
  5
3261
 10
73.7871
 20
104.188
 30
0.000000
  70
    32
  0
VERTEX
  8
0
  5
3262
 10
73.6667
 20
104.244
 30
0.000000
  70
    32
  0
VERTEX
  8
0
  5
3263
 10
73.5423
 20
104.296
 30
0.000000
  70
    32
  0
VERTEX
  8
0
  5
3264
 10
73.4142
 20
104.344
 30
0.000000
  70
    32
  0
VERTEX
  8
0
  5
3265
 10
73.2827
 20
104.388
 30
0.000000
  70
    32
  0
VERTEX
  8
0
  5
3266
 10
73.1481
 20
104.428
 30
0.000000
  70
    32
  0
VERTEX
  8
0
  5
3267
 10
73.0107
 20
104.463
 30
0.000000
  70
    32
  0
VERTEX
  8
0
  5
3268
 10
72.8709
 20
104.494
 30
0.000000
  70
    32
  0
VERTEX
  8
0
  5
3269
 10
72.7289
 20
104.520
 30
0.000000
  70
    32
  0
VERTEX
  8
0
  5
326A
 10
72.5853
 20
104.542
 30
0.000000
  70
    32
  0
VERTEX
  8
0
  5
326B
 10
72.4402
 20
104.558
 30
0.000000
  70
    32
  0
VERTEX
  8
0
  5
326C
 10
72.2941
 20
104.570
 30
0.000000
  70
    32
  0
VERTEX
  8
0
  5
326D
 10
72.1472
 20
104.577
 30
0.000000
  70
    32
  0
VERTEX
  8
0
  5
326E
 10
72.0000
 20
104.580
 30
0.000000
  70
    32
  0
VERTEX
  8
0
  5
326F
 10
71.8528
 20
104.577
 30
0.000000
  70
    32
  0
VERTEX
  8
0
  5
3270
 10
71.7059
 20
104.570
 30
0.000000
  70
    32
  0
VERTEX
  8
0
  5
3271
 10
71.5598
 20
104.558
 30
0.000000
  70
    32
  0
VERTEX
  8
0
  5
3272
 10
71.4147
 20
104.542
 30
0.000000
  70
    32
  0
VERTEX
  8
0
  5
3273
 10
71.2711
 20
104.520
 30
0.000000
  70
    32
  0
VERTEX
  8
0
  5
3274
 10
71.1291
 20
104.494
 30
0.000000
  70
    32
  0
VERTEX
  8
0
  5
3275
 10
70.9893
 20
104.463
 30
0.000000
  70
    32
  0
VERTEX
  8
0
  5
3276
 10
70.8519
 20
104.428
 30
0.000000
  70
    32
  0
VERTEX
  8
0
  5
3277
 10
70.7173
 20
104.388
 30
0.000000
  70
    32
  0
VERTEX
  8
0
  5
3278
 10
70.5858
 20
104.344
 30
0.000000
  70
    32
  0
VERTEX
  8
0
  5
3279
 10
70.4577
 20
104.296
 30
0.000000
  70
    32
  0
VERTEX
  8
0
  5
327A
 10
70.3333
 20
104.244
 30
0.000000
  70
    32
  0
VERTEX
  8
0
  5
327B
 10
70.2129
 20
104.188
 30
0.000000
  70
    32
  0
VERTEX
  8
0
  5
327C
 10
70.0968
 20
104.127
 30
0.000000
  70
    32
  0
VERTEX
  8
0
  5
327D
 10
69.9853
 20
104.063
 30
0.000000
  70
    32
  0
VERTEX
  8
0
  5
327E
 10
69.8787
 20
103.996
 30
0.000000
  70
    32
  0
VERTEX
  8
0
  5
327F
 10
69.7771
 20
103.925
 30
0.000000
  70
    32
  0
VERTEX
  8
0
  5
3280
 10
69.6810
 20
103.851
 30
0.000000
  70
    32
  0
VERTEX
  8
0
  5
3281
 10
69.5904
 20
103.774
 30
0.000000
  70
    32
  0
VERTEX
  8
0
  5
3282
 10
69.5056
 20
103.694
 30
0.000000
  70
    32
  0
VERTEX
  8
0
  5
3283
 10
69.4268
 20
103.611
 30
0.000000
  70
    32
  0
VERTEX
  8
0
  5
3284
 10
69.3542
 20
103.526
 30
0.000000
  70
    32
  0
VERTEX
  8
0
  5
3285
 10
69.2880
 20
103.439
 30
0.000000
  70
    32
  0
VERTEX
  8
0
  5
3286
 10
69.2284
 20
103.349
 30
0.000000
  70
    32
  0
VERTEX
  8
0
  5
3287
 10
69.1754
 20
103.258
 30
0.000000
  70
    32
  0
VERTEX
  8
0
  5
3288
 10
69.1292
 20
103.165
 30
0.000000
  70
    32
  0
VERTEX
  8
0
  5
3289
 10
69.0899
 20
103.071
 30
0.000000
  70
    32
  0
VERTEX
  8
0
  5
328A
 10
69.0576
 20
102.975
 30
0.000000
  70
    32
  0
VERTEX
  8
0
  5
328B
 10
69.0325
 20
102.879
 30
0.000000
  70
    32
  0
VERTEX
  8
0
  5
328C
 10
69.0144
 20
102.782
 30
0.000000
  70
    32
  0
VERTEX
  8
0
  5
328D
 10
69.0036
 20
102.684
 30
0.000000
  70
    32
  0
VERTEX
  8
0
  5
328E
 10
69.0000
 20
102.586
 30
0.000000
  70
    32
  0
SEQEND
  8
0
  5
328F
  0
POLYLINE
  5
31F0
  8
0
  6
CONTINUOUS
 62
     7
 10
69.499999999999872
 20
102.58627587215319
 30
0.0
 66
     1
 70
     8
  0
VERTEX
  8
0
  5
3290
 10
69.5000
 20
102.586
 30
0.000000
  70
    32
  0
VERTEX
  8
0
  5
3291
 10
69.5030
 20
102.504
 30
0.000000
  70
    32
  0
VERTEX
  8
0
  5
3292
 10
69.5120
 20
102.422
 30
0.000000
  70
    32
  0
VERTEX
  8
0
  5
3293
 10
69.5271
 20
102.340
 30
0.000000
  70
    32
  0
VERTEX
  8
0
  5
3294
 10
69.5480
 20
102.259
 30
0.000000
  70
    32
  0
VERTEX
  8
0
  5
3295
 10
69.5749
 20
102.178
 30
0.000000
  70
    32
  0
VERTEX
  8
0
  5
3296
 10
69.6076
 20
102.099
 30
0.000000
  70
    32
  0
VERTEX
  8
0
  5
3297
 10
69.6461
 20
102.021
 30
0.000000
  70
    32
  0
VERTEX
  8
0
  5
3298
 10
69.6903
 20
101.944
 30
0.000000
  70
    32
  0
VERTEX
  8
0
  5
3299
 10
69.7400
 20
101.868
 30
0.000000
  70
    32
  0
VERTEX
  8
0
  5
329A
 10
69.7952
 20
101.795
 30
0.000000
  70
    32
  0
VERTEX
  8
0
  5
329B
 10
69.8557
 20
101.723
 30
0.000000
  70
    32
  0
VERTEX
  8
0
  5
329C
 10
69.9213
 20
101.653
 30
0.000000
  70
    32
  0
VERTEX
  8
0
  5
329D
 10
69.9920
 20
101.586
 30
0.000000
  70
    32
  0
VERTEX
  8
0
  5
329E
 10
70.0675
 20
101.521
 30
0.000000
  70
    32
  0
VERTEX
  8
0
  5
329F
 10
70.1476
 20
101.459
 30
0.000000
  70
    32
  0
VERTEX
  8
0
  5
32A0
 10
70.2322
 20
101.399
 30
0.000000
  70
    32
  0
VERTEX
  8
0
  5
32A1
 10
70.3211
 20
101.342
 30
0.000000
  70
    32
  0
VERTEX
  8
0
  5
32A2
 10
70.4140
 20
101.288
 30
0.000000
  70
    32
  0
VERTEX
  8
0
  5
32A3
 10
70.5108
 20
101.238
 30
0.000000
  70
    32
  0
VERTEX
  8
0
  5
32A4
 10
70.6111
 20
101.190
 30
0.000000
  70
    32
  0
VERTEX
  8
0
  5
32A5
 10
70.7147
 20
101.146
 30
0.000000
  70
    32
  0
VERTEX
  8
0
  5
32A6
 10
70.8215
 20
101.105
 30
0.000000
  70
    32
  0
VERTEX
  8
0
  5
32A7
 10
70.9311
 20
101.068
 30
0.000000
  70
    32
  0
VERTEX
  8
0
  5
32A8
 10
71.0433
 20
101.035
 30
0.000000
  70
    32
  0
VERTEX
  8
0
  5
32A9
 10
71.1578
 20
101.005
 30
0.000000
  70
    32
  0
VERTEX
  8
0
  5
32AA
 10
71.2743
 20
100.979
 30
0.000000
  70
    32
  0
VERTEX
  8
0
  5
32AB
 10
71.3925
 20
100.957
 30
0.000000
  70
    32
  0
VERTEX
  8
0
  5
32AC
 10
71.5123
 20
100.939
 30
0.000000
  70
    32
  0
VERTEX
  8
0
  5
32AD
 10
71.6332
 20
100.925
 30
0.000000
  70
    32
  0
VERTEX
  8
0
  5
32AE
 10
71.7550
 20
100.915
 30
0.000000
  70
    32
  0
VERTEX
  8
0
  5
32AF
 10
71.8773
 20
100.909
 30
0.000000
  70
    32
  0
VERTEX
  8
0
  5
32B0
 10
72.0000
 20
100.907
 30
0.000000
  70
    32
  0
VERTEX
  8
0
  5
32B1
 10
72.1227
 20
100.909
 30
0.000000
  70
    32
  0
VERTEX
  8
0
  5
32B2
 10
72.2450
 20
100.915
 30
0.000000
  70
    32
  0
VERTEX
  8
0
  5
32B3
 10
72.3668
 20
100.925
 30
0.000000
  70
    32
  0
VERTEX
  8
0
  5
32B4
 10
72.4877
 20
100.939
 30
0.000000
  70
    32
  0
VERTEX
  8
0
  5
32B5
 10
72.6075
 20
100.957
 30
0.000000
  70
    32
  0
VERTEX
  8
0
  5
32B6
 10
72.7257
 20
100.979
 30
0.000000
  70
    32
  0
VERTEX
  8
0
  5
32B7
 10
72.8422
 20
101.005
 30
0.000000
  70
    32
  0
VERTEX
  8
0
  5
32B8
 10
72.9567
 20
101.035
 30
0.000000
  70
    32
  0
VERTEX
  8
0
  5
32B9
 10
73.0689
 20
101.068
 30
0.000000
  70
    32
  0
VERTEX
  8
0
  5
32BA
 10
73.1785
 20
101.105
 30
0.000000
  70
    32
  0
VERTEX
  8
0
  5
32BB
 10
73.2853
 20
101.146
 30
0.000000
  70
    32
  0
VERTEX
  8
0
  5
32BC
 10
73.3889
 20
101.190
 30
0.000000
  70
    32
  0
VERTEX
  8
0
  5
32BD
 10
73.4892
 20
101.238
 30
0.000000
  70
    32
  0
VERTEX
  8
0
  5
32BE
 10
73.5860
 20
101.288
 30
0.000000
  70
    32
  0
VERTEX
  8
0
  5
32BF
 10
73.6789
 20
101.342
 30
0.000000
  70
    32
  0
VERTEX
  8
0
  5
32C0
 10
73.7678
 20
101.399
 30
0.000000
  70
    32
  0
VERTEX
  8
0
  5
32C1
 10
73.8524
 20
101.459
 30
0.000000
  70
    32
  0
VERTEX
  8
0
  5
32C2
 10
73.9325
 20
101.521
 30
0.000000
  70
    32
  0
VERTEX
  8
0
  5
32C3
 10
74.0080
 20
101.586
 30
0.000000
  70
    32
  0
VERTEX
  8
0
  5
32C4
 10
74.0787
 20
101.653
 30
0.000000
  70
    32
  0
VERTEX
  8
0
  5
32C5
 10
74.1443
 20
101.723
 30
0.000000
  70
    32
  0
VERTEX
  8
0
  5
32C6
 10
74.2048
 20
101.795
 30
0.000000
  70
    32
  0
VERTEX
  8
0
  5
32C7
 10
74.2600
 20
101.868
 30
0.000000
  70
    32
  0
VERTEX
  8
0
  5
32C8
 10
74.3097
 20
101.944
 30
0.000000
  70
    32
  0
VERTEX
  8
0
  5
32C9
 10
74.3539
 20
102.021
 30
0.000000
  70
    32
  0
VERTEX
  8
0
  5
32CA
 10
74.3924
 20
102.099
 30
0.000000
  70
    32
  0
VERTEX
  8
0
  5
32CB
 10
74.4251
 20
102.178
 30
0.000000
  70
    32
  0
VERTEX
  8
0
  5
32CC
 10
74.4520
 20
102.259
 30
0.000000
  70
    32
  0
VERTEX
  8
0
  5
32CD
 10
74.4729
 20
102.340
 30
0.000000
  70
    32
  0
VERTEX
  8
0
  5
32CE
 10
74.4880
 20
102.422
 30
0.000000
  70
    32
  0
VERTEX
  8
0
  5
32CF
 10
74.4970
 20
102.504
 30
0.000000
  70
    32
  0
VERTEX
  8
0
  5
32D0
 10
74.5000
 20
102.586
 30
0.000000
  70
    32
  0
VERTEX
  8
0
  5
32D1
 10
74.4970
 20
102.669
 30
0.000000
  70
    32
  0
VERTEX
  8
0
  5
32D2
 10
74.4880
 20
102.751
 30
0.000000
  70
    32
  0
VERTEX
  8
0
  5
32D3
 10
74.4729
 20
102.833
 30
0.000000
  70
    32
  0
VERTEX
  8
0
  5
32D4
 10
74.4520
 20
102.914
 30
0.000000
  70
    32
  0
VERTEX
  8
0
  5
32D5
 10
74.4251
 20
102.994
 30
0.000000
  70
    32
  0
VERTEX
  8
0
  5
32D6
 10
74.3924
 20
103.074
 30
0.000000
  70
    32
  0
VERTEX
  8
0
  5
32D7
 10
74.3539
 20
103.152
 30
0.000000
  70
    32
  0
VERTEX
  8
0
  5
32D8
 10
74.3097
 20
103.229
 30
0.000000
  70
    32
  0
VERTEX
  8
0
  5
32D9
 10
74.2600
 20
103.304
 30
0.000000
  70
    32
  0
VERTEX
  8
0
  5
32DA
 10
74.2048
 20
103.378
 30
0.000000
  70
    32
  0
VERTEX
  8
0
  5
32DB
 10
74.1443
 20
103.450
 30
0.000000
  70
    32
  0
VERTEX
  8
0
  5
32DC
 10
74.0787
 20
103.519
 30
0.000000
  70
    32
  0
VERTEX
  8
0
  5
32DD
 10
74.0080
 20
103.587
 30
0.000000
  70
    32
  0
VERTEX
  8
0
  5
32DE
 10
73.9325
 20
103.652
 30
0.000000
  70
    32
  0
VERTEX
  8
0
  5
32DF
 10
73.8524
 20
103.714
 30
0.000000
  70
    32
  0
VERTEX
  8
0
  5
32E0
 10
73.7678
 20
103.774
 30
0.000000
  70
    32
  0
VERTEX
  8
0
  5
32E1
 10
73.6789
 20
103.830
 30
0.000000
  70
    32
  0
VERTEX
  8
0
  5
32E2
 10
73.5860
 20
103.884
 30
0.000000
  70
    32
  0
VERTEX
  8
0
  5
32E3
 10
73.4892
 20
103.935
 30
0.000000
  70
    32
  0
VERTEX
  8
0
  5
32E4
 10
73.3889
 20
103.982
 30
0.000000
  70
    32
  0
VERTEX
  8
0
  5
32E5
 10
73.2853
 20
104.027
 30
0.000000
  70
    32
  0
VERTEX
  8
0
  5
32E6
 10
73.1785
 20
104.067
 30
0.000000
  70
    32
  0
VERTEX
  8
0
  5
32E7
 10
73.0689
 20
104.104
 30
0.000000
  70
    32
  0
VERTEX
  8
0
  5
32E8
 10
72.9567
 20
104.138
 30
0.000000
  70
    32
  0
VERTEX
  8
0
  5
32E9
 10
72.8422
 20
104.167
 30
0.000000
  70
    32
  0
VERTEX
  8
0
  5
32EA
 10
72.7257
 20
104.193
 30
0.000000
  70
    32
  0
VERTEX
  8
0
  5
32EB
 10
72.6075
 20
104.215
 30
0.000000
  70
    32
  0
VERTEX
  8
0
  5
32EC
 10
72.4877
 20
104.233
 30
0.000000
  70
    32
  0
VERTEX
  8
0
  5
32ED
 10
72.3668
 20
104.247
 30
0.000000
  70
    32
  0
VERTEX
  8
0
  5
32EE
 10
72.2450
 20
104.257
 30
0.000000
  70
    32
  0
VERTEX
  8
0
  5
32EF
 10
72.1227
 20
104.263
 30
0.000000
  70
    32
  0
VERTEX
  8
0
  5
32F0
 10
72.0000
 20
104.265
 30
0.000000
  70
    32
  0
VERTEX
  8
0
  5
32F1
 10
71.8773
 20
104.263
 30
0.000000
  70
    32
  0
VERTEX
  8
0
  5
32F2
 10
71.7550
 20
104.257
 30
0.000000
  70
    32
  0
VERTEX
  8
0
  5
32F3
 10
71.6332
 20
104.247
 30
0.000000
  70
    32
  0
VERTEX
  8
0
  5
32F4
 10
71.5123
 20
104.233
 30
0.000000
  70
    32
  0
VERTEX
  8
0
  5
32F5
 10
71.3925
 20
104.215
 30
0.000000
  70
    32
  0
VERTEX
  8
0
  5
32F6
 10
71.2743
 20
104.193
 30
0.000000
  70
    32
  0
VERTEX
  8
0
  5
32F7
 10
71.1578
 20
104.167
 30
0.000000
  70
    32
  0
VERTEX
  8
0
  5
32F8
 10
71.0433
 20
104.138
 30
0.000000
  70
    32
  0
VERTEX
  8
0
  5
32F9
 10
70.9311
 20
104.104
 30
0.000000
  70
    32
  0
VERTEX
  8
0
  5
32FA
 10
70.8215
 20
104.067
 30
0.000000
  70
    32
  0
VERTEX
  8
0
  5
32FB
 10
70.7147
 20
104.027
 30
0.000000
  70
    32
  0
VERTEX
  8
0
  5
32FC
 10
70.6111
 20
103.982
 30
0.000000
  70
    32
  0
VERTEX
  8
0
  5
32FD
 10
70.5108
 20
103.935
 30
0.000000
  70
    32
  0
VERTEX
  8
0
  5
32FE
 10
70.4140
 20
103.884
 30
0.000000
  70
    32
  0
VERTEX
  8
0
  5
32FF
 10
70.3211
 20
103.830
 30
0.000000
  70
    32
  0
VERTEX
  8
0
  5
3300
 10
70.2322
 20
103.774
 30
0.000000
  70
    32
  0
VERTEX
  8
0
  5
3301
 10
70.1476
 20
103.714
 30
0.000000
  70
    32
  0
VERTEX
  8
0
  5
3302
 10
70.0675
 20
103.652
 30
0.000000
  70
    32
  0
VERTEX
  8
0
  5
3303
 10
69.9920
 20
103.587
 30
0.000000
  70
    32
  0
VERTEX
  8
0
  5
3304
 10
69.9213
 20
103.519
 30
0.000000
  70
    32
  0
VERTEX
  8
0
  5
3305
 10
69.8557
 20
103.450
 30
0.000000
  70
    32
  0
VERTEX
  8
0
  5
3306
 10
69.7952
 20
103.378
 30
0.000000
  70
    32
  0
VERTEX
  8
0
  5
3307
 10
69.7400
 20
103.304
 30
0.000000
  70
    32
  0
VERTEX
  8
0
  5
3308
 10
69.6903
 20
103.229
 30
0.000000
  70
    32
  0
VERTEX
  8
0
  5
3309
 10
69.6461
 20
103.152
 30
0.000000
  70
    32
  0
VERTEX
  8
0
  5
330A
 10
69.6076
 20
103.074
 30
0.000000
  70
    32
  0
VERTEX
  8
0
  5
330B
 10
69.5749
 20
102.994
 30
0.000000
  70
    32
  0
VERTEX
  8
0
  5
330C
 10
69.5480
 20
102.914
 30
0.000000
  70
    32
  0
VERTEX
  8
0
  5
330D
 10
69.5271
 20
102.833
 30
0.000000
  70
    32
  0
VERTEX
  8
0
  5
330E
 10
69.5120
 20
102.751
 30
0.000000
  70
    32
  0
VERTEX
  8
0
  5
330F
 10
69.5030
 20
102.669
 30
0.000000
  70
    32
  0
VERTEX
  8
0
  5
3310
 10
69.5000
 20
102.586
 30
0.000000
  70
    32
  0
SEQEND
  8
0
  5
3311
  0
POLYLINE
  5
31F3
  8
0
  6
CONTINUOUS
 62
     3
 10
69.0
 20
67.230937509292175
 30
0.0
 66
     1
 70
     8
  0
VERTEX
  8
0
  5
3312
 10
69.0000
 20
67.2309
 30
0.000000
  70
    32
  0
VERTEX
  8
0
  5
3313
 10
69.0036
 20
67.3288
 30
0.000000
  70
    32
  0
VERTEX
  8
0
  5
3314
 10
69.0144
 20
67.4263
 30
0.000000
  70
    32
  0
VERTEX
  8
0
  5
3315
 10
69.0325
 20
67.5235
 30
0.000000
  70
    32
  0
VERTEX
  8
0
  5
3316
 10
69.0576
 20
67.6199
 30
0.000000
  70
    32
  0
VERTEX
  8
0
  5
3317
 10
69.0899
 20
67.7153
 30
0.000000
  70
    32
  0
VERTEX
  8
0
  5
3318
 10
69.1292
 20
67.8096
 30
0.000000
  70
    32
  0
VERTEX
  8
0
  5
3319
 10
69.1754
 20
67.9026
 30
0.000000
  70
    32
  0
VERTEX
  8
0
  5
331A
 10
69.2284
 20
67.9938
 30
0.000000
  70
    32
  0
VERTEX
  8
0
  5
331B
 10
69.2880
 20
68.0833
 30
0.000000
  70
    32
  0
VERTEX
  8
0
  5
331C
 10
69.3542
 20
68.1707
 30
0.000000
  70
    32
  0
VERTEX
  8
0
  5
331D
 10
69.4268
 20
68.2558
 30
0.000000
  70
    32
  0
VERTEX
  8
0
  5
331E
 10
69.5056
 20
68.3385
 30
0.000000
  70
    32
  0
VERTEX
  8
0
  5
331F
 10
69.5904
 20
68.4185
 30
0.000000
  70
    32
  0
VERTEX
  8
0
  5
3320
 10
69.6810
 20
68.4957
 30
0.000000
  70
    32
  0
VERTEX
  8
0
  5
3321
 10
69.7771
 20
68.5697
 30
0.000000
  70
    32
  0
VERTEX
  8
0
  5
3322
 10
69.8787
 20
68.6406
 30
0.000000
  70
    32
  0
VERTEX
  8
0
  5
3323
 10
69.9853
 20
68.7081
 30
0.000000
  70
    32
  0
VERTEX
  8
0
  5
3324
 10
70.0968
 20
68.7720
 30
0.000000
  70
    32
  0
VERTEX
  8
0
  5
3325
 10
70.2129
 20
68.8322
 30
0.000000
  70
    32
  0
VERTEX
  8
0
  5
3326
 10
70.3333
 20
68.8885
 30
0.000000
  70
    32
  0
VERTEX
  8
0
  5
3327
 10
70.4577
 20
68.9409
 30
0.000000
  70
    32
  0
VERTEX
  8
0
  5
3328
 10
70.5858
 20
68.9891
 30
0.000000
  70
    32
  0
VERTEX
  8
0
  5
3329
 10
70.7173
 20
69.0331
 30
0.000000
  70
    32
  0
VERTEX
  8
0
  5
332A
 10
70.8519
 20
69.0728
 30
0.000000
  70
    32
  0
VERTEX
  8
0
  5
332B
 10
70.9893
 20
69.1080
 30
0.000000
  70
    32
  0
VERTEX
  8
0
  5
332C
 10
71.1291
 20
69.1387
 30
0.000000
  70
    32
  0
VERTEX
  8
0
  5
332D
 10
71.2711
 20
69.1648
 30
0.000000
  70
    32
  0
VERTEX
  8
0
  5
332E
 10
71.4147
 20
69.1862
 30
0.000000
  70
    32
  0
VERTEX
  8
0
  5
332F
 10
71.5598
 20
69.2029
 30
0.000000
  70
    32
  0
VERTEX
  8
0
  5
3330
 10
71.7059
 20
69.2149
 30
0.000000
  70
    32
  0
VERTEX
  8
0
  5
3331
 10
71.8528
 20
69.2221
 30
0.000000
  70
    32
  0
VERTEX
  8
0
  5
3332
 10
72.0000
 20
69.2245
 30
0.000000
  70
    32
  0
VERTEX
  8
0
  5
3333
 10
72.1472
 20
69.2221
 30
0.000000
  70
    32
  0
VERTEX
  8
0
  5
3334
 10
72.2941
 20
69.2149
 30
0.000000
  70
    32
  0
VERTEX
  8
0
  5
3335
 10
72.4402
 20
69.2029
 30
0.000000
  70
    32
  0
VERTEX
  8
0
  5
3336
 10
72.5853
 20
69.1862
 30
0.000000
  70
    32
  0
VERTEX
  8
0
  5
3337
 10
72.7289
 20
69.1648
 30
0.000000
  70
    32
  0
VERTEX
  8
0
  5
3338
 10
72.8709
 20
69.1387
 30
0.000000
  70
    32
  0
VERTEX
  8
0
  5
3339
 10
73.0107
 20
69.1080
 30
0.000000
  70
    32
  0
VERTEX
  8
0
  5
333A
 10
73.1481
 20
69.0728
 30
0.000000
  70
    32
  0
VERTEX
  8
0
  5
333B
 10
73.2827
 20
69.0331
 30
0.000000
  70
    32
  0
VERTEX
  8
0
  5
333C
 10
73.4142
 20
68.9891
 30
0.000000
  70
    32
  0
VERTEX
  8
0
  5
333D
 10
73.5423
 20
68.9409
 30
0.000000
  70
    32
  0
VERTEX
  8
0
  5
333E
 10
73.6667
 20
68.8885
 30
0.000000
  70
    32
  0
VERTEX
  8
0
  5
333F
 10
73.7871
 20
68.8322
 30
0.000000
  70
    32
  0
VERTEX
  8
0
  5
3340
 10
73.9032
 20
68.7720
 30
0.000000
  70
    32
  0
VERTEX
  8
0
  5
3341
 10
74.0147
 20
68.7081
 30
0.000000
  70
    32
  0
VERTEX
  8
0
  5
3342
 10
74.1213
 20
68.6406
 30
0.000000
  70
    32
  0
VERTEX
  8
0
  5
3343
 10
74.2229
 20
68.5697
 30
0.000000
  70
    32
  0
VERTEX
  8
0
  5
3344
 10
74.3190
 20
68.4957
 30
0.000000
  70
    32
  0
VERTEX
  8
0
  5
3345
 10
74.4096
 20
68.4185
 30
0.000000
  70
    32
  0
VERTEX
  8
0
  5
3346
 10
74.4944
 20
68.3385
 30
0.000000
  70
    32
  0
VERTEX
  8
0
  5
3347
 10
74.5732
 20
68.2558
 30
0.000000
  70
    32
  0
VERTEX
  8
0
  5
3348
 10
74.6458
 20
68.1707
 30
0.000000
  70
    32
  0
VERTEX
  8
0
  5
3349
 10
74.7120
 20
68.0833
 30
0.000000
  70
    32
  0
VERTEX
  8
0
  5
334A
 10
74.7716
 20
67.9938
 30
0.000000
  70
    32
  0
VERTEX
  8
0
  5
334B
 10
74.8246
 20
67.9026
 30
0.000000
  70
    32
  0
VERTEX
  8
0
  5
334C
 10
74.8708
 20
67.8096
 30
0.000000
  70
    32
  0
VERTEX
  8
0
  5
334D
 10
74.9101
 20
67.7153
 30
0.000000
  70
    32
  0
VERTEX
  8
0
  5
334E
 10
74.9424
 20
67.6199
 30
0.000000
  70
    32
  0
VERTEX
  8
0
  5
334F
 10
74.9675
 20
67.5235
 30
0.000000
  70
    32
  0
VERTEX
  8
0
  5
3350
 10
74.9856
 20
67.4263
 30
0.000000
  70
    32
  0
VERTEX
  8
0
  5
3351
 10
74.9964
 20
67.3288
 30
0.000000
  70
    32
  0
VERTEX
  8
0
  5
3352
 10
75.0000
 20
67.2309
 30
0.000000
  70
    32
  0
VERTEX
  8
0
  5
3353
 10
74.9964
 20
67.1331
 30
0.000000
  70
    32
  0
VERTEX
  8
0
  5
3354
 10
74.9856
 20
67.0355
 30
0.000000
  70
    32
  0
VERTEX
  8
0
  5
3355
 10
74.9675
 20
66.9384
 30
0.000000
  70
    32
  0
VERTEX
  8
0
  5
3356
 10
74.9424
 20
66.8420
 30
0.000000
  70
    32
  0
VERTEX
  8
0
  5
3357
 10
74.9101
 20
66.7465
 30
0.000000
  70
    32
  0
VERTEX
  8
0
  5
3358
 10
74.8708
 20
66.6522
 30
0.000000
  70
    32
  0
VERTEX
  8
0
  5
3359
 10
74.8246
 20
66.5593
 30
0.000000
  70
    32
  0
VERTEX
  8
0
  5
335A
 10
74.7716
 20
66.4680
 30
0.000000
  70
    32
  0
VERTEX
  8
0
  5
335B
 10
74.7120
 20
66.3786
 30
0.000000
  70
    32
  0
VERTEX
  8
0
  5
335C
 10
74.6458
 20
66.2912
 30
0.000000
  70
    32
  0
VERTEX
  8
0
  5
335D
 10
74.5732
 20
66.2060
 30
0.000000
  70
    32
  0
VERTEX
  8
0
  5
335E
 10
74.4944
 20
66.1234
 30
0.000000
  70
    32
  0
VERTEX
  8
0
  5
335F
 10
74.4096
 20
66.0434
 30
0.000000
  70
    32
  0
VERTEX
  8
0
  5
3360
 10
74.3190
 20
65.9662
 30
0.000000
  70
    32
  0
VERTEX
  8
0
  5
3361
 10
74.2229
 20
65.8921
 30
0.000000
  70
    32
  0
VERTEX
  8
0
  5
3362
 10
74.1213
 20
65.8213
 30
0.000000
  70
    32
  0
VERTEX
  8
0
  5
3363
 10
74.0147
 20
65.7538
 30
0.000000
  70
    32
  0
VERTEX
  8
0
  5
3364
 10
73.9032
 20
65.6899
 30
0.000000
  70
    32
  0
VERTEX
  8
0
  5
3365
 10
73.7871
 20
65.6297
 30
0.000000
  70
    32
  0
VERTEX
  8
0
  5
3366
 10
73.6667
 20
65.5733
 30
0.000000
  70
    32
  0
VERTEX
  8
0
  5
3367
 10
73.5423
 20
65.5210
 30
0.000000
  70
    32
  0
VERTEX
  8
0
  5
3368
 10
73.4142
 20
65.4728
 30
0.000000
  70
    32
  0
VERTEX
  8
0
  5
3369
 10
73.2827
 20
65.4288
 30
0.000000
  70
    32
  0
VERTEX
  8
0
  5
336A
 10
73.1481
 20
65.3891
 30
0.000000
  70
    32
  0
VERTEX
  8
0
  5
336B
 10
73.0107
 20
65.3539
 30
0.000000
  70
    32
  0
VERTEX
  8
0
  5
336C
 10
72.8709
 20
65.3232
 30
0.000000
  70
    32
  0
VERTEX
  8
0
  5
336D
 10
72.7289
 20
65.2971
 30
0.000000
  70
    32
  0
VERTEX
  8
0
  5
336E
 10
72.5853
 20
65.2757
 30
0.000000
  70
    32
  0
VERTEX
  8
0
  5
336F
 10
72.4402
 20
65.2589
 30
0.000000
  70
    32
  0
VERTEX
  8
0
  5
3370
 10
72.2941
 20
65.2470
 30
0.000000
  70
    32
  0
VERTEX
  8
0
  5
3371
 10
72.1472
 20
65.2398
 30
0.000000
  70
    32
  0
VERTEX
  8
0
  5
3372
 10
72.0000
 20
65.2374
 30
0.000000
  70
    32
  0
VERTEX
  8
0
  5
3373
 10
71.8528
 20
65.2398
 30
0.000000
  70
    32
  0
VERTEX
  8
0
  5
3374
 10
71.7059
 20
65.2470
 30
0.000000
  70
    32
  0
VERTEX
  8
0
  5
3375
 10
71.5598
 20
65.2589
 30
0.000000
  70
    32
  0
VERTEX
  8
0
  5
3376
 10
71.4147
 20
65.2757
 30
0.000000
  70
    32
  0
VERTEX
  8
0
  5
3377
 10
71.2711
 20
65.2971
 30
0.000000
  70
    32
  0
VERTEX
  8
0
  5
3378
 10
71.1291
 20
65.3232
 30
0.000000
  70
    32
  0
VERTEX
  8
0
  5
3379
 10
70.9893
 20
65.3539
 30
0.000000
  70
    32
  0
VERTEX
  8
0
  5
337A
 10
70.8519
 20
65.3891
 30
0.000000
  70
    32
  0
VERTEX
  8
0
  5
337B
 10
70.7173
 20
65.4288
 30
0.000000
  70
    32
  0
VERTEX
  8
0
  5
337C
 10
70.5858
 20
65.4728
 30
0.000000
  70
    32
  0
VERTEX
  8
0
  5
337D
 10
70.4577
 20
65.5210
 30
0.000000
  70
    32
  0
VERTEX
  8
0
  5
337E
 10
70.3333
 20
65.5733
 30
0.000000
  70
    32
  0
VERTEX
  8
0
  5
337F
 10
70.2129
 20
65.6297
 30
0.000000
  70
    32
  0
VERTEX
  8
0
  5
3380
 10
70.0968
 20
65.6899
 30
0.000000
  70
    32
  0
VERTEX
  8
0
  5
3381
 10
69.9853
 20
65.7538
 30
0.000000
  70
    32
  0
VERTEX
  8
0
  5
3382
 10
69.8787
 20
65.8213
 30
0.000000
  70
    32
  0
VERTEX
  8
0
  5
3383
 10
69.7771
 20
65.8921
 30
0.000000
  70
    32
  0
VERTEX
  8
0
  5
3384
 10
69.6810
 20
65.9662
 30
0.000000
  70
    32
  0
VERTEX
  8
0
  5
3385
 10
69.5904
 20
66.0434
 30
0.000000
  70
    32
  0
VERTEX
  8
0
  5
3386
 10
69.5056
 20
66.1234
 30
0.000000
  70
    32
  0
VERTEX
  8
0
  5
3387
 10
69.4268
 20
66.2060
 30
0.000000
  70
    32
  0
VERTEX
  8
0
  5
3388
 10
69.3542
 20
66.2912
 30
0.000000
  70
    32
  0
VERTEX
  8
0
  5
3389
 10
69.2880
 20
66.3786
 30
0.000000
  70
    32
  0
VERTEX
  8
0
  5
338A
 10
69.2284
 20
66.4680
 30
0.000000
  70
    32
  0
VERTEX
  8
0
  5
338B
 10
69.1754
 20
66.5593
 30
0.000000
  70
    32
  0
VERTEX
  8
0
  5
338C
 10
69.1292
 20
66.6522
 30
0.000000
  70
    32
  0
VERTEX
  8
0
  5
338D
 10
69.0899
 20
66.7465
 30
0.000000
  70
    32
  0
VERTEX
  8
0
  5
338E
 10
69.0576
 20
66.8420
 30
0.000000
  70
    32
  0
VERTEX
  8
0
  5
338F
 10
69.0325
 20
66.9384
 30
0.000000
  70
    32
  0
VERTEX
  8
0
  5
3390
 10
69.0144
 20
67.0355
 30
0.000000
  70
    32
  0
VERTEX
  8
0
  5
3391
 10
69.0036
 20
67.1331
 30
0.000000
  70
    32
  0
VERTEX
  8
0
  5
3392
 10
69.0000
 20
67.2309
 30
0.000000
  70
    32
  0
SEQEND
  8
0
  5
3393
  0
LINE
  5
31F4
  8
CENTER
  6
CENTER
 62
     1
 10
76.0
 20
67.230936690722672
 30
0.0
 11
68.0
 21
67.230936690722672
 31
0.0
  0
LINE
  5
31F5
  8
0
  6
DASHED
 62
     3
 10
74.5
 20
76.908606690722678
 30
0.0
 11
74.5
 21
68.332929805313853
 31
0.0
  0
LINE
  5
31F6
  8
0
  6
DASHED
 62
     3
 10
69.5
 20
76.908606690722678
 30
0.0
 11
69.5
 21
68.332929805313853
 31
0.0
  0
LINE
  5
31F7
  8
0
  6
DASHED
 62
     3
 10
69.0
 20
76.908606690722664
 30
0.0
 11
69.0
 21
67.230937509292175
 31
0.0
  0
POLYLINE
  5
31F8
  8
0
  6
CONTINUOUS
 62
     7
 10
69.499999999999872
 20
67.230937509292175
 30
0.0
 66
     1
 70
     8
  0
VERTEX
  8
0
  5
3394
 10
69.5000
 20
67.2309
 30
0.000000
  70
    32
  0
VERTEX
  8
0
  5
3395
 10
69.5030
 20
67.3133
 30
0.000000
  70
    32
  0
VERTEX
  8
0
  5
3396
 10
69.5120
 20
67.3955
 30
0.000000
  70
    32
  0
VERTEX
  8
0
  5
3397
 10
69.5271
 20
67.4773
 30
0.000000
  70
    32
  0
VERTEX
  8
0
  5
3398
 10
69.5480
 20
67.5585
 30
0.000000
  70
    32
  0
VERTEX
  8
0
  5
3399
 10
69.5749
 20
67.6389
 30
0.000000
  70
    32
  0
VERTEX
  8
0
  5
339A
 10
69.6076
 20
67.7184
 30
0.000000
  70
    32
  0
VERTEX
  8
0
  5
339B
 10
69.6461
 20
67.7966
 30
0.000000
  70
    32
  0
VERTEX
  8
0
  5
339C
 10
69.6903
 20
67.8735
 30
0.000000
  70
    32
  0
VERTEX
  8
0
  5
339D
 10
69.7400
 20
67.9489
 30
0.000000
  70
    32
  0
VERTEX
  8
0
  5
339E
 10
69.7952
 20
68.0225
 30
0.000000
  70
    32
  0
VERTEX
  8
0
  5
339F
 10
69.8557
 20
68.0942
 30
0.000000
  70
    32
  0
VERTEX
  8
0
  5
33A0
 10
69.9213
 20
68.1638
 30
0.000000
  70
    32
  0
VERTEX
  8
0
  5
33A1
 10
69.9920
 20
68.2312
 30
0.000000
  70
    32
  0
VERTEX
  8
0
  5
33A2
 10
70.0675
 20
68.2962
 30
0.000000
  70
    32
  0
VERTEX
  8
0
  5
33A3
 10
70.1476
 20
68.3586
 30
0.000000
  70
    32
  0
VERTEX
  8
0
  5
33A4
 10
70.2322
 20
68.4183
 30
0.000000
  70
    32
  0
VERTEX
  8
0
  5
33A5
 10
70.3211
 20
68.4751
 30
0.000000
  70
    32
  0
VERTEX
  8
0
  5
33A6
 10
70.4140
 20
68.5289
 30
0.000000
  70
    32
  0
VERTEX
  8
0
  5
33A7
 10
70.5108
 20
68.5796
 30
0.000000
  70
    32
  0
VERTEX
  8
0
  5
33A8
 10
70.6111
 20
68.6271
 30
0.000000
  70
    32
  0
VERTEX
  8
0
  5
33A9
 10
70.7147
 20
68.6712
 30
0.000000
  70
    32
  0
VERTEX
  8
0
  5
33AA
 10
70.8215
 20
68.7118
 30
0.000000
  70
    32
  0
VERTEX
  8
0
  5
33AB
 10
70.9311
 20
68.7489
 30
0.000000
  70
    32
  0
VERTEX
  8
0
  5
33AC
 10
71.0433
 20
68.7823
 30
0.000000
  70
    32
  0
VERTEX
  8
0
  5
33AD
 10
71.1578
 20
68.8119
 30
0.000000
  70
    32
  0
VERTEX
  8
0
  5
33AE
 10
71.2743
 20
68.8378
 30
0.000000
  70
    32
  0
VERTEX
  8
0
  5
33AF
 10
71.3925
 20
68.8598
 30
0.000000
  70
    32
  0
VERTEX
  8
0
  5
33B0
 10
71.5123
 20
68.8778
 30
0.000000
  70
    32
  0
VERTEX
  8
0
  5
33B1
 10
71.6332
 20
68.8919
 30
0.000000
  70
    32
  0
VERTEX
  8
0
  5
33B2
 10
71.7550
 20
68.9020
 30
0.000000
  70
    32
  0
VERTEX
  8
0
  5
33B3
 10
71.8773
 20
68.9081
 30
0.000000
  70
    32
  0
VERTEX
  8
0
  5
33B4
 10
72.0000
 20
68.9101
 30
0.000000
  70
    32
  0
VERTEX
  8
0
  5
33B5
 10
72.1227
 20
68.9081
 30
0.000000
  70
    32
  0
VERTEX
  8
0
  5
33B6
 10
72.2450
 20
68.9020
 30
0.000000
  70
    32
  0
VERTEX
  8
0
  5
33B7
 10
72.3668
 20
68.8919
 30
0.000000
  70
    32
  0
VERTEX
  8
0
  5
33B8
 10
72.4877
 20
68.8778
 30
0.000000
  70
    32
  0
VERTEX
  8
0
  5
33B9
 10
72.6075
 20
68.8598
 30
0.000000
  70
    32
  0
VERTEX
  8
0
  5
33BA
 10
72.7257
 20
68.8378
 30
0.000000
  70
    32
  0
VERTEX
  8
0
  5
33BB
 10
72.8422
 20
68.8119
 30
0.000000
  70
    32
  0
VERTEX
  8
0
  5
33BC
 10
72.9567
 20
68.7823
 30
0.000000
  70
    32
  0
VERTEX
  8
0
  5
33BD
 10
73.0689
 20
68.7489
 30
0.000000
  70
    32
  0
VERTEX
  8
0
  5
33BE
 10
73.1785
 20
68.7118
 30
0.000000
  70
    32
  0
VERTEX
  8
0
  5
33BF
 10
73.2853
 20
68.6712
 30
0.000000
  70
    32
  0
VERTEX
  8
0
  5
33C0
 10
73.3889
 20
68.6271
 30
0.000000
  70
    32
  0
VERTEX
  8
0
  5
33C1
 10
73.4892
 20
68.5796
 30
0.000000
  70
    32
  0
VERTEX
  8
0
  5
33C2
 10
73.5860
 20
68.5289
 30
0.000000
  70
    32
  0
VERTEX
  8
0
  5
33C3
 10
73.6789
 20
68.4751
 30
0.000000
  70
    32
  0
VERTEX
  8
0
  5
33C4
 10
73.7678
 20
68.4183
 30
0.000000
  70
    32
  0
VERTEX
  8
0
  5
33C5
 10
73.8524
 20
68.3586
 30
0.000000
  70
    32
  0
VERTEX
  8
0
  5
33C6
 10
73.9325
 20
68.2962
 30
0.000000
  70
    32
  0
VERTEX
  8
0
  5
33C7
 10
74.0080
 20
68.2312
 30
0.000000
  70
    32
  0
VERTEX
  8
0
  5
33C8
 10
74.0787
 20
68.1638
 30
0.000000
  70
    32
  0
VERTEX
  8
0
  5
33C9
 10
74.1443
 20
68.0942
 30
0.000000
  70
    32
  0
VERTEX
  8
0
  5
33CA
 10
74.2048
 20
68.0225
 30
0.000000
  70
    32
  0
VERTEX
  8
0
  5
33CB
 10
74.2600
 20
67.9489
 30
0.000000
  70
    32
  0
VERTEX
  8
0
  5
33CC
 10
74.3097
 20
67.8735
 30
0.000000
  70
    32
  0
VERTEX
  8
0
  5
33CD
 10
74.3539
 20
67.7966
 30
0.000000
  70
    32
  0
VERTEX
  8
0
  5
33CE
 10
74.3924
 20
67.7184
 30
0.000000
  70
    32
  0
VERTEX
  8
0
  5
33CF
 10
74.4251
 20
67.6389
 30
0.000000
  70
    32
  0
VERTEX
  8
0
  5
33D0
 10
74.4520
 20
67.5585
 30
0.000000
  70
    32
  0
VERTEX
  8
0
  5
33D1
 10
74.4729
 20
67.4773
 30
0.000000
  70
    32
  0
VERTEX
  8
0
  5
33D2
 10
74.4880
 20
67.3955
 30
0.000000
  70
    32
  0
VERTEX
  8
0
  5
33D3
 10
74.4970
 20
67.3133
 30
0.000000
  70
    32
  0
VERTEX
  8
0
  5
33D4
 10
74.5000
 20
67.2309
 30
0.000000
  70
    32
  0
VERTEX
  8
0
  5
33D5
 10
74.4970
 20
67.1485
 30
0.000000
  70
    32
  0
VERTEX
  8
0
  5
33D6
 10
74.4880
 20
67.0664
 30
0.000000
  70
    32
  0
VERTEX
  8
0
  5
33D7
 10
74.4729
 20
66.9846
 30
0.000000
  70
    32
  0
VERTEX
  8
0
  5
33D8
 10
74.4520
 20
66.9034
 30
0.000000
  70
    32
  0
VERTEX
  8
0
  5
33D9
 10
74.4251
 20
66.8229
 30
0.000000
  70
    32
  0
VERTEX
  8
0
  5
33DA
 10
74.3924
 20
66.7435
 30
0.000000
  70
    32
  0
VERTEX
  8
0
  5
33DB
 10
74.3539
 20
66.6652
 30
0.000000
  70
    32
  0
VERTEX
  8
0
  5
33DC
 10
74.3097
 20
66.5884
 30
0.000000
  70
    32
  0
VERTEX
  8
0
  5
33DD
 10
74.2600
 20
66.5130
 30
0.000000
  70
    32
  0
VERTEX
  8
0
  5
33DE
 10
74.2048
 20
66.4394
 30
0.000000
  70
    32
  0
VERTEX
  8
0
  5
33DF
 10
74.1443
 20
66.3677
 30
0.000000
  70
    32
  0
VERTEX
  8
0
  5
33E0
 10
74.0787
 20
66.2980
 30
0.000000
  70
    32
  0
VERTEX
  8
0
  5
33E1
 10
74.0080
 20
66.2307
 30
0.000000
  70
    32
  0
VERTEX
  8
0
  5
33E2
 10
73.9325
 20
66.1657
 30
0.000000
  70
    32
  0
VERTEX
  8
0
  5
33E3
 10
73.8524
 20
66.1033
 30
0.000000
  70
    32
  0
VERTEX
  8
0
  5
33E4
 10
73.7678
 20
66.0436
 30
0.000000
  70
    32
  0
VERTEX
  8
0
  5
33E5
 10
73.6789
 20
65.9868
 30
0.000000
  70
    32
  0
VERTEX
  8
0
  5
33E6
 10
73.5860
 20
65.9329
 30
0.000000
  70
    32
  0
VERTEX
  8
0
  5
33E7
 10
73.4892
 20
65.8822
 30
0.000000
  70
    32
  0
VERTEX
  8
0
  5
33E8
 10
73.3889
 20
65.8348
 30
0.000000
  70
    32
  0
VERTEX
  8
0
  5
33E9
 10
73.2853
 20
65.7907
 30
0.000000
  70
    32
  0
VERTEX
  8
0
  5
33EA
 10
73.1785
 20
65.7501
 30
0.000000
  70
    32
  0
VERTEX
  8
0
  5
33EB
 10
73.0689
 20
65.7130
 30
0.000000
  70
    32
  0
VERTEX
  8
0
  5
33EC
 10
72.9567
 20
65.6796
 30
0.000000
  70
    32
  0
VERTEX
  8
0
  5
33ED
 10
72.8422
 20
65.6499
 30
0.000000
  70
    32
  0
VERTEX
  8
0
  5
33EE
 10
72.7257
 20
65.6241
 30
0.000000
  70
    32
  0
VERTEX
  8
0
  5
33EF
 10
72.6075
 20
65.6021
 30
0.000000
  70
    32
  0
VERTEX
  8
0
  5
33F0
 10
72.4877
 20
65.5840
 30
0.000000
  70
    32
  0
VERTEX
  8
0
  5
33F1
 10
72.3668
 20
65.5700
 30
0.000000
  70
    32
  0
VERTEX
  8
0
  5
33F2
 10
72.2450
 20
65.5599
 30
0.000000
  70
    32
  0
VERTEX
  8
0
  5
33F3
 10
72.1227
 20
65.5538
 30
0.000000
  70
    32
  0
VERTEX
  8
0
  5
33F4
 10
72.0000
 20
65.5518
 30
0.000000
  70
    32
  0
VERTEX
  8
0
  5
33F5
 10
71.8773
 20
65.5538
 30
0.000000
  70
    32
  0
VERTEX
  8
0
  5
33F6
 10
71.7550
 20
65.5599
 30
0.000000
  70
    32
  0
VERTEX
  8
0
  5
33F7
 10
71.6332
 20
65.5700
 30
0.000000
  70
    32
  0
VERTEX
  8
0
  5
33F8
 10
71.5123
 20
65.5840
 30
0.000000
  70
    32
  0
VERTEX
  8
0
  5
33F9
 10
71.3925
 20
65.6021
 30
0.000000
  70
    32
  0
VERTEX
  8
0
  5
33FA
 10
71.2743
 20
65.6241
 30
0.000000
  70
    32
  0
VERTEX
  8
0
  5
33FB
 10
71.1578
 20
65.6499
 30
0.000000
  70
    32
  0
VERTEX
  8
0
  5
33FC
 10
71.0433
 20
65.6796
 30
0.000000
  70
    32
  0
VERTEX
  8
0
  5
33FD
 10
70.9311
 20
65.7130
 30
0.000000
  70
    32
  0
VERTEX
  8
0
  5
33FE
 10
70.8215
 20
65.7501
 30
0.000000
  70
    32
  0
VERTEX
  8
0
  5
33FF
 10
70.7147
 20
65.7907
 30
0.000000
  70
    32
  0
VERTEX
  8
0
  5
3400
 10
70.6111
 20
65.8348
 30
0.000000
  70
    32
  0
VERTEX
  8
0
  5
3401
 10
70.5108
 20
65.8822
 30
0.000000
  70
    32
  0
VERTEX
  8
0
  5
3402
 10
70.4140
 20
65.9329
 30
0.000000
  70
    32
  0
VERTEX
  8
0
  5
3403
 10
70.3211
 20
65.9868
 30
0.000000
  70
    32
  0
VERTEX
  8
0
  5
3404
 10
70.2322
 20
66.0436
 30
0.000000
  70
    32
  0
VERTEX
  8
0
  5
3405
 10
70.1476
 20
66.1033
 30
0.000000
  70
    32
  0
VERTEX
  8
0
  5
3406
 10
70.0675
 20
66.1657
 30
0.000000
  70
    32
  0
VERTEX
  8
0
  5
3407
 10
69.9920
 20
66.2307
 30
0.000000
  70
    32
  0
VERTEX
  8
0
  5
3408
 10
69.9213
 20
66.2980
 30
0.000000
  70
    32
  0
VERTEX
  8
0
  5
3409
 10
69.8557
 20
66.3677
 30
0.000000
  70
    32
  0
VERTEX
  8
0
  5
340A
 10
69.7952
 20
66.4394
 30
0.000000
  70
    32
  0
VERTEX
  8
0
  5
340B
 10
69.7400
 20
66.5130
 30
0.000000
  70
    32
  0
VERTEX
  8
0
  5
340C
 10
69.6903
 20
66.5884
 30
0.000000
  70
    32
  0
VERTEX
  8
0
  5
340D
 10
69.6461
 20
66.6652
 30
0.000000
  70
    32
  0
VERTEX
  8
0
  5
340E
 10
69.6076
 20
66.7435
 30
0.000000
  70
    32
  0
VERTEX
  8
0
  5
340F
 10
69.5749
 20
66.8229
 30
0.000000
  70
    32
  0
VERTEX
  8
0
  5
3410
 10
69.5480
 20
66.9034
 30
0.000000
  70
    32
  0
VERTEX
  8
0
  5
3411
 10
69.5271
 20
66.9846
 30
0.000000
  70
    32
  0
VERTEX
  8
0
  5
3412
 10
69.5120
 20
67.0664
 30
0.000000
  70
    32
  0
VERTEX
  8
0
  5
3413
 10
69.5030
 20
67.1485
 30
0.000000
  70
    32
  0
VERTEX
  8
0
  5
3414
 10
69.5000
 20
67.2309
 30
0.000000
  70
    32
  0
SEQEND
  8
0
  5
3415
  0
LINE
  5
31F9
  8
CENTER
  6
CENTER
 62
     1
 10
72.0
 20
63.230936690722672
 30
0.0
 11
72.0
 21
71.230936690722672
 31
0.0
  0
LINE
  5
31FA
  8
0
  6
DASHED
 62
     3
 10
75.0
 20
76.908606690722692
 30
0.0
 11
75.0
 21
67.230937509292175
 31
0.0
  0
LINE
  5
31FC
  8
CENTER
  6
CENTER
 62
     1
 10
53.000000000000028
 20
67.230936690722672
 30
0.0
 11
45.000000000000021
 21
67.230936690722672
 31
0.0
  0
POLYLINE
  5
31FD
  8
0
  6
CONTINUOUS
 62
     3
 10
46.000000000000028
 20
67.230937509292175
 30
0.0
 66
     1
 70
     8
  0
VERTEX
  8
0
  5
3416
 10
46.0000
 20
67.2309
 30
0.000000
  70
    32
  0
VERTEX
  8
0
  5
3417
 10
46.0036
 20
67.3288
 30
0.000000
  70
    32
  0
VERTEX
  8
0
  5
3418
 10
46.0144
 20
67.4263
 30
0.000000
  70
    32
  0
VERTEX
  8
0
  5
3419
 10
46.0325
 20
67.5235
 30
0.000000
  70
    32
  0
VERTEX
  8
0
  5
341A
 10
46.0576
 20
67.6199
 30
0.000000
  70
    32
  0
VERTEX
  8
0
  5
341B
 10
46.0899
 20
67.7153
 30
0.000000
  70
    32
  0
VERTEX
  8
0
  5
341C
 10
46.1292
 20
67.8096
 30
0.000000
  70
    32
  0
VERTEX
  8
0
  5
341D
 10
46.1754
 20
67.9026
 30
0.000000
  70
    32
  0
VERTEX
  8
0
  5
341E
 10
46.2284
 20
67.9938
 30
0.000000
  70
    32
  0
VERTEX
  8
0
  5
341F
 10
46.2880
 20
68.0833
 30
0.000000
  70
    32
  0
VERTEX
  8
0
  5
3420
 10
46.3542
 20
68.1707
 30
0.000000
  70
    32
  0
VERTEX
  8
0
  5
3421
 10
46.4268
 20
68.2558
 30
0.000000
  70
    32
  0
VERTEX
  8
0
  5
3422
 10
46.5056
 20
68.3385
 30
0.000000
  70
    32
  0
VERTEX
  8
0
  5
3423
 10
46.5904
 20
68.4185
 30
0.000000
  70
    32
  0
VERTEX
  8
0
  5
3424
 10
46.6810
 20
68.4957
 30
0.000000
  70
    32
  0
VERTEX
  8
0
  5
3425
 10
46.7771
 20
68.5697
 30
0.000000
  70
    32
  0
VERTEX
  8
0
  5
3426
 10
46.8787
 20
68.6406
 30
0.000000
  70
    32
  0
VERTEX
  8
0
  5
3427
 10
46.9853
 20
68.7081
 30
0.000000
  70
    32
  0
VERTEX
  8
0
  5
3428
 10
47.0968
 20
68.7720
 30
0.000000
  70
    32
  0
VERTEX
  8
0
  5
3429
 10
47.2129
 20
68.8322
 30
0.000000
  70
    32
  0
VERTEX
  8
0
  5
342A
 10
47.3333
 20
68.8885
 30
0.000000
  70
    32
  0
VERTEX
  8
0
  5
342B
 10
47.4577
 20
68.9409
 30
0.000000
  70
    32
  0
VERTEX
  8
0
  5
342C
 10
47.5858
 20
68.9891
 30
0.000000
  70
    32
  0
VERTEX
  8
0
  5
342D
 10
47.7173
 20
69.0331
 30
0.000000
  70
    32
  0
VERTEX
  8
0
  5
342E
 10
47.8519
 20
69.0728
 30
0.000000
  70
    32
  0
VERTEX
  8
0
  5
342F
 10
47.9893
 20
69.1080
 30
0.000000
  70
    32
  0
VERTEX
  8
0
  5
3430
 10
48.1291
 20
69.1387
 30
0.000000
  70
    32
  0
VERTEX
  8
0
  5
3431
 10
48.2711
 20
69.1648
 30
0.000000
  70
    32
  0
VERTEX
  8
0
  5
3432
 10
48.4147
 20
69.1862
 30
0.000000
  70
    32
  0
VERTEX
  8
0
  5
3433
 10
48.5598
 20
69.2029
 30
0.000000
  70
    32
  0
VERTEX
  8
0
  5
3434
 10
48.7059
 20
69.2149
 30
0.000000
  70
    32
  0
VERTEX
  8
0
  5
3435
 10
48.8528
 20
69.2221
 30
0.000000
  70
    32
  0
VERTEX
  8
0
  5
3436
 10
49.0000
 20
69.2245
 30
0.000000
  70
    32
  0
VERTEX
  8
0
  5
3437
 10
49.1472
 20
69.2221
 30
0.000000
  70
    32
  0
VERTEX
  8
0
  5
3438
 10
49.2941
 20
69.2149
 30
0.000000
  70
    32
  0
VERTEX
  8
0
  5
3439
 10
49.4402
 20
69.2029
 30
0.000000
  70
    32
  0
VERTEX
  8
0
  5
343A
 10
49.5853
 20
69.1862
 30
0.000000
  70
    32
  0
VERTEX
  8
0
  5
343B
 10
49.7289
 20
69.1648
 30
0.000000
  70
    32
  0
VERTEX
  8
0
  5
343C
 10
49.8709
 20
69.1387
 30
0.000000
  70
    32
  0
VERTEX
  8
0
  5
343D
 10
50.0107
 20
69.1080
 30
0.000000
  70
    32
  0
VERTEX
  8
0
  5
343E
 10
50.1481
 20
69.0728
 30
0.000000
  70
    32
  0
VERTEX
  8
0
  5
343F
 10
50.2827
 20
69.0331
 30
0.000000
  70
    32
  0
VERTEX
  8
0
  5
3440
 10
50.4142
 20
68.9891
 30
0.000000
  70
    32
  0
VERTEX
  8
0
  5
3441
 10
50.5423
 20
68.9409
 30
0.000000
  70
    32
  0
VERTEX
  8
0
  5
3442
 10
50.6667
 20
68.8885
 30
0.000000
  70
    32
  0
VERTEX
  8
0
  5
3443
 10
50.7871
 20
68.8322
 30
0.000000
  70
    32
  0
VERTEX
  8
0
  5
3444
 10
50.9032
 20
68.7720
 30
0.000000
  70
    32
  0
VERTEX
  8
0
  5
3445
 10
51.0147
 20
68.7081
 30
0.000000
  70
    32
  0
VERTEX
  8
0
  5
3446
 10
51.1213
 20
68.6406
 30
0.000000
  70
    32
  0
VERTEX
  8
0
  5
3447
 10
51.2229
 20
68.5697
 30
0.000000
  70
    32
  0
VERTEX
  8
0
  5
3448
 10
51.3190
 20
68.4957
 30
0.000000
  70
    32
  0
VERTEX
  8
0
  5
3449
 10
51.4096
 20
68.4185
 30
0.000000
  70
    32
  0
VERTEX
  8
0
  5
344A
 10
51.4944
 20
68.3385
 30
0.000000
  70
    32
  0
VERTEX
  8
0
  5
344B
 10
51.5732
 20
68.2558
 30
0.000000
  70
    32
  0
VERTEX
  8
0
  5
344C
 10
51.6458
 20
68.1707
 30
0.000000
  70
    32
  0
VERTEX
  8
0
  5
344D
 10
51.7120
 20
68.0833
 30
0.000000
  70
    32
  0
VERTEX
  8
0
  5
344E
 10
51.7716
 20
67.9938
 30
0.000000
  70
    32
  0
VERTEX
  8
0
  5
344F
 10
51.8246
 20
67.9026
 30
0.000000
  70
    32
  0
VERTEX
  8
0
  5
3450
 10
51.8708
 20
67.8096
 30
0.000000
  70
    32
  0
VERTEX
  8
0
  5
3451
 10
51.9101
 20
67.7153
 30
0.000000
  70
    32
  0
VERTEX
  8
0
  5
3452
 10
51.9424
 20
67.6199
 30
0.000000
  70
    32
  0
VERTEX
  8
0
  5
3453
 10
51.9675
 20
67.5235
 30
0.000000
  70
    32
  0
VERTEX
  8
0
  5
3454
 10
51.9856
 20
67.4263
 30
0.000000
  70
    32
  0
VERTEX
  8
0
  5
3455
 10
51.9964
 20
67.3288
 30
0.000000
  70
    32
  0
VERTEX
  8
0
  5
3456
 10
52.0000
 20
67.2309
 30
0.000000
  70
    32
  0
VERTEX
  8
0
  5
3457
 10
51.9964
 20
67.1331
 30
0.000000
  70
    32
  0
VERTEX
  8
0
  5
3458
 10
51.9856
 20
67.0355
 30
0.000000
  70
    32
  0
VERTEX
  8
0
  5
3459
 10
51.9675
 20
66.9384
 30
0.000000
  70
    32
  0
VERTEX
  8
0
  5
345A
 10
51.9424
 20
66.8420
 30
0.000000
  70
    32
  0
VERTEX
  8
0
  5
345B
 10
51.9101
 20
66.7465
 30
0.000000
  70
    32
  0
VERTEX
  8
0
  5
345C
 10
51.8708
 20
66.6522
 30
0.000000
  70
    32
  0
VERTEX
  8
0
  5
345D
 10
51.8246
 20
66.5593
 30
0.000000
  70
    32
  0
VERTEX
  8
0
  5
345E
 10
51.7716
 20
66.4680
 30
0.000000
  70
    32
  0
VERTEX
  8
0
  5
345F
 10
51.7120
 20
66.3786
 30
0.000000
  70
    32
  0
VERTEX
  8
0
  5
3460
 10
51.6458
 20
66.2912
 30
0.000000
  70
    32
  0
VERTEX
  8
0
  5
3461
 10
51.5732
 20
66.2060
 30
0.000000
  70
    32
  0
VERTEX
  8
0
  5
3462
 10
51.4944
 20
66.1234
 30
0.000000
  70
    32
  0
VERTEX
  8
0
  5
3463
 10
51.4096
 20
66.0434
 30
0.000000
  70
    32
  0
VERTEX
  8
0
  5
3464
 10
51.3190
 20
65.9662
 30
0.000000
  70
    32
  0
VERTEX
  8
0
  5
3465
 10
51.2229
 20
65.8921
 30
0.000000
  70
    32
  0
VERTEX
  8
0
  5
3466
 10
51.1213
 20
65.8213
 30
0.000000
  70
    32
  0
VERTEX
  8
0
  5
3467
 10
51.0147
 20
65.7538
 30
0.000000
  70
    32
  0
VERTEX
  8
0
  5
3468
 10
50.9032
 20
65.6899
 30
0.000000
  70
    32
  0
VERTEX
  8
0
  5
3469
 10
50.7871
 20
65.6297
 30
0.000000
  70
    32
  0
VERTEX
  8
0
  5
346A
 10
50.6667
 20
65.5733
 30
0.000000
  70
    32
  0
VERTEX
  8
0
  5
346B
 10
50.5423
 20
65.5210
 30
0.000000
  70
    32
  0
VERTEX
  8
0
  5
346C
 10
50.4142
 20
65.4728
 30
0.000000
  70
    32
  0
VERTEX
  8
0
  5
346D
 10
50.2827
 20
65.4288
 30
0.000000
  70
    32
  0
VERTEX
  8
0
  5
346E
 10
50.1481
 20
65.3891
 30
0.000000
  70
    32
  0
VERTEX
  8
0
  5
346F
 10
50.0107
 20
65.3539
 30
0.000000
  70
    32
  0
VERTEX
  8
0
  5
3470
 10
49.8709
 20
65.3232
 30
0.000000
  70
    32
  0
VERTEX
  8
0
  5
3471
 10
49.7289
 20
65.2971
 30
0.000000
  70
    32
  0
VERTEX
  8
0
  5
3472
 10
49.5853
 20
65.2757
 30
0.000000
  70
    32
  0
VERTEX
  8
0
  5
3473
 10
49.4402
 20
65.2589
 30
0.000000
  70
    32
  0
VERTEX
  8
0
  5
3474
 10
49.2941
 20
65.2470
 30
0.000000
  70
    32
  0
VERTEX
  8
0
  5
3475
 10
49.1472
 20
65.2398
 30
0.000000
  70
    32
  0
VERTEX
  8
0
  5
3476
 10
49.0000
 20
65.2374
 30
0.000000
  70
    32
  0
VERTEX
  8
0
  5
3477
 10
48.8528
 20
65.2398
 30
0.000000
  70
    32
  0
VERTEX
  8
0
  5
3478
 10
48.7059
 20
65.2470
 30
0.000000
  70
    32
  0
VERTEX
  8
0
  5
3479
 10
48.5598
 20
65.2589
 30
0.000000
  70
    32
  0
VERTEX
  8
0
  5
347A
 10
48.4147
 20
65.2757
 30
0.000000
  70
    32
  0
VERTEX
  8
0
  5
347B
 10
48.2711
 20
65.2971
 30
0.000000
  70
    32
  0
VERTEX
  8
0
  5
347C
 10
48.1291
 20
65.3232
 30
0.000000
  70
    32
  0
VERTEX
  8
0
  5
347D
 10
47.9893
 20
65.3539
 30
0.000000
  70
    32
  0
VERTEX
  8
0
  5
347E
 10
47.8519
 20
65.3891
 30
0.000000
  70
    32
  0
VERTEX
  8
0
  5
347F
 10
47.7173
 20
65.4288
 30
0.000000
  70
    32
  0
VERTEX
  8
0
  5
3480
 10
47.5858
 20
65.4728
 30
0.000000
  70
    32
  0
VERTEX
  8
0
  5
3481
 10
47.4577
 20
65.5210
 30
0.000000
  70
    32
  0
VERTEX
  8
0
  5
3482
 10
47.3333
 20
65.5733
 30
0.000000
  70
    32
  0
VERTEX
  8
0
  5
3483
 10
47.2129
 20
65.6297
 30
0.000000
  70
    32
  0
VERTEX
  8
0
  5
3484
 10
47.0968
 20
65.6899
 30
0.000000
  70
    32
  0
VERTEX
  8
0
  5
3485
 10
46.9853
 20
65.7538
 30
0.000000
  70
    32
  0
VERTEX
  8
0
  5
3486
 10
46.8787
 20
65.8213
 30
0.000000
  70
    32
  0
VERTEX
  8
0
  5
3487
 10
46.7771
 20
65.8921
 30
0.000000
  70
    32
  0
VERTEX
  8
0
  5
3488
 10
46.6810
 20
65.9662
 30
0.000000
  70
    32
  0
VERTEX
  8
0
  5
3489
 10
46.5904
 20
66.0434
 30
0.000000
  70
    32
  0
VERTEX
  8
0
  5
348A
 10
46.5056
 20
66.1234
 30
0.000000
  70
    32
  0
VERTEX
  8
0
  5
348B
 10
46.4268
 20
66.2060
 30
0.000000
  70
    32
  0
VERTEX
  8
0
  5
348C
 10
46.3542
 20
66.2912
 30
0.000000
  70
    32
  0
VERTEX
  8
0
  5
348D
 10
46.2880
 20
66.3786
 30
0.000000
  70
    32
  0
VERTEX
  8
0
  5
348E
 10
46.2284
 20
66.4680
 30
0.000000
  70
    32
  0
VERTEX
  8
0
  5
348F
 10
46.1754
 20
66.5593
 30
0.000000
  70
    32
  0
VERTEX
  8
0
  5
3490
 10
46.1292
 20
66.6522
 30
0.000000
  70
    32
  0
VERTEX
  8
0
  5
3491
 10
46.0899
 20
66.7465
 30
0.000000
  70
    32
  0
VERTEX
  8
0
  5
3492
 10
46.0576
 20
66.8420
 30
0.000000
  70
    32
  0
VERTEX
  8
0
  5
3493
 10
46.0325
 20
66.9384
 30
0.000000
  70
    32
  0
VERTEX
  8
0
  5
3494
 10
46.0144
 20
67.0355
 30
0.000000
  70
    32
  0
VERTEX
  8
0
  5
3495
 10
46.0036
 20
67.1331
 30
0.000000
  70
    32
  0
VERTEX
  8
0
  5
3496
 10
46.0000
 20
67.2309
 30
0.000000
  70
    32
  0
SEQEND
  8
0
  5
3497
  0
LINE
  5
31FE
  8
0
  6
DASHED
 62
     3
 10
46.000000000000028
 20
76.908606690722664
 30
0.0
 11
46.000000000000028
 21
67.230937509292175
 31
0.0
  0
LINE
  5
31FF
  8
0
  6
DASHED
 62
     3
 10
46.500000000000028
 20
76.908606690722678
 30
0.0
 11
46.500000000000028
 21
68.332929805313853
 31
0.0
  0
LINE
  5
3200
  8
0
  6
DASHED
 62
     3
 10
51.500000000000028
 20
76.908606690722678
 30
0.0
 11
51.500000000000028
 21
68.332929805313853
 31
0.0
  0
LINE
  5
3201
  8
CENTER
  6
CENTER
 62
     1
 10
49.000000000000028
 20
63.230936690722672
 30
0.0
 11
49.000000000000028
 21
71.230936690722672
 31
0.0
  0
POLYLINE
  5
3202
  8
0
  6
CONTINUOUS
 62
     7
 10
46.499999999999893
 20
67.230937509292175
 30
0.0
 66
     1
 70
     8
  0
VERTEX
  8
0
  5
3498
 10
46.5000
 20
67.2309
 30
0.000000
  70
    32
  0
VERTEX
  8
0
  5
3499
 10
46.5030
 20
67.3133
 30
0.000000
  70
    32
  0
VERTEX
  8
0
  5
349A
 10
46.5120
 20
67.3955
 30
0.000000
  70
    32
  0
VERTEX
  8
0
  5
349B
 10
46.5271
 20
67.4773
 30
0.000000
  70
    32
  0
VERTEX
  8
0
  5
349C
 10
46.5480
 20
67.5585
 30
0.000000
  70
    32
  0
VERTEX
  8
0
  5
349D
 10
46.5749
 20
67.6389
 30
0.000000
  70
    32
  0
VERTEX
  8
0
  5
349E
 10
46.6076
 20
67.7184
 30
0.000000
  70
    32
  0
VERTEX
  8
0
  5
349F
 10
46.6461
 20
67.7966
 30
0.000000
  70
    32
  0
VERTEX
  8
0
  5
34A0
 10
46.6903
 20
67.8735
 30
0.000000
  70
    32
  0
VERTEX
  8
0
  5
34A1
 10
46.7400
 20
67.9489
 30
0.000000
  70
    32
  0
VERTEX
  8
0
  5
34A2
 10
46.7952
 20
68.0225
 30
0.000000
  70
    32
  0
VERTEX
  8
0
  5
34A3
 10
46.8557
 20
68.0942
 30
0.000000
  70
    32
  0
VERTEX
  8
0
  5
34A4
 10
46.9213
 20
68.1638
 30
0.000000
  70
    32
  0
VERTEX
  8
0
  5
34A5
 10
46.9920
 20
68.2312
 30
0.000000
  70
    32
  0
VERTEX
  8
0
  5
34A6
 10
47.0675
 20
68.2962
 30
0.000000
  70
    32
  0
VERTEX
  8
0
  5
34A7
 10
47.1476
 20
68.3586
 30
0.000000
  70
    32
  0
VERTEX
  8
0
  5
34A8
 10
47.2322
 20
68.4183
 30
0.000000
  70
    32
  0
VERTEX
  8
0
  5
34A9
 10
47.3211
 20
68.4751
 30
0.000000
  70
    32
  0
VERTEX
  8
0
  5
34AA
 10
47.4140
 20
68.5289
 30
0.000000
  70
    32
  0
VERTEX
  8
0
  5
34AB
 10
47.5108
 20
68.5796
 30
0.000000
  70
    32
  0
VERTEX
  8
0
  5
34AC
 10
47.6111
 20
68.6271
 30
0.000000
  70
    32
  0
VERTEX
  8
0
  5
34AD
 10
47.7147
 20
68.6712
 30
0.000000
  70
    32
  0
VERTEX
  8
0
  5
34AE
 10
47.8215
 20
68.7118
 30
0.000000
  70
    32
  0
VERTEX
  8
0
  5
34AF
 10
47.9311
 20
68.7489
 30
0.000000
  70
    32
  0
VERTEX
  8
0
  5
34B0
 10
48.0433
 20
68.7823
 30
0.000000
  70
    32
  0
VERTEX
  8
0
  5
34B1
 10
48.1578
 20
68.8119
 30
0.000000
  70
    32
  0
VERTEX
  8
0
  5
34B2
 10
48.2743
 20
68.8378
 30
0.000000
  70
    32
  0
VERTEX
  8
0
  5
34B3
 10
48.3925
 20
68.8598
 30
0.000000
  70
    32
  0
VERTEX
  8
0
  5
34B4
 10
48.5123
 20
68.8778
 30
0.000000
  70
    32
  0
VERTEX
  8
0
  5
34B5
 10
48.6332
 20
68.8919
 30
0.000000
  70
    32
  0
VERTEX
  8
0
  5
34B6
 10
48.7550
 20
68.9020
 30
0.000000
  70
    32
  0
VERTEX
  8
0
  5
34B7
 10
48.8773
 20
68.9081
 30
0.000000
  70
    32
  0
VERTEX
  8
0
  5
34B8
 10
49.0000
 20
68.9101
 30
0.000000
  70
    32
  0
VERTEX
  8
0
  5
34B9
 10
49.1227
 20
68.9081
 30
0.000000
  70
    32
  0
VERTEX
  8
0
  5
34BA
 10
49.2450
 20
68.9020
 30
0.000000
  70
    32
  0
VERTEX
  8
0
  5
34BB
 10
49.3668
 20
68.8919
 30
0.000000
  70
    32
  0
VERTEX
  8
0
  5
34BC
 10
49.4877
 20
68.8778
 30
0.000000
  70
    32
  0
VERTEX
  8
0
  5
34BD
 10
49.6075
 20
68.8598
 30
0.000000
  70
    32
  0
VERTEX
  8
0
  5
34BE
 10
49.7257
 20
68.8378
 30
0.000000
  70
    32
  0
VERTEX
  8
0
  5
34BF
 10
49.8422
 20
68.8119
 30
0.000000
  70
    32
  0
VERTEX
  8
0
  5
34C0
 10
49.9567
 20
68.7823
 30
0.000000
  70
    32
  0
VERTEX
  8
0
  5
34C1
 10
50.0689
 20
68.7489
 30
0.000000
  70
    32
  0
VERTEX
  8
0
  5
34C2
 10
50.1785
 20
68.7118
 30
0.000000
  70
    32
  0
VERTEX
  8
0
  5
34C3
 10
50.2853
 20
68.6712
 30
0.000000
  70
    32
  0
VERTEX
  8
0
  5
34C4
 10
50.3889
 20
68.6271
 30
0.000000
  70
    32
  0
VERTEX
  8
0
  5
34C5
 10
50.4892
 20
68.5796
 30
0.000000
  70
    32
  0
VERTEX
  8
0
  5
34C6
 10
50.5860
 20
68.5289
 30
0.000000
  70
    32
  0
VERTEX
  8
0
  5
34C7
 10
50.6789
 20
68.4751
 30
0.000000
  70
    32
  0
VERTEX
  8
0
  5
34C8
 10
50.7678
 20
68.4183
 30
0.000000
  70
    32
  0
VERTEX
  8
0
  5
34C9
 10
50.8524
 20
68.3586
 30
0.000000
  70
    32
  0
VERTEX
  8
0
  5
34CA
 10
50.9325
 20
68.2962
 30
0.000000
  70
    32
  0
VERTEX
  8
0
  5
34CB
 10
51.0080
 20
68.2312
 30
0.000000
  70
    32
  0
VERTEX
  8
0
  5
34CC
 10
51.0787
 20
68.1638
 30
0.000000
  70
    32
  0
VERTEX
  8
0
  5
34CD
 10
51.1443
 20
68.0942
 30
0.000000
  70
    32
  0
VERTEX
  8
0
  5
34CE
 10
51.2048
 20
68.0225
 30
0.000000
  70
    32
  0
VERTEX
  8
0
  5
34CF
 10
51.2600
 20
67.9489
 30
0.000000
  70
    32
  0
VERTEX
  8
0
  5
34D0
 10
51.3097
 20
67.8735
 30
0.000000
  70
    32
  0
VERTEX
  8
0
  5
34D1
 10
51.3539
 20
67.7966
 30
0.000000
  70
    32
  0
VERTEX
  8
0
  5
34D2
 10
51.3924
 20
67.7184
 30
0.000000
  70
    32
  0
VERTEX
  8
0
  5
34D3
 10
51.4251
 20
67.6389
 30
0.000000
  70
    32
  0
VERTEX
  8
0
  5
34D4
 10
51.4520
 20
67.5585
 30
0.000000
  70
    32
  0
VERTEX
  8
0
  5
34D5
 10
51.4729
 20
67.4773
 30
0.000000
  70
    32
  0
VERTEX
  8
0
  5
34D6
 10
51.4880
 20
67.3955
 30
0.000000
  70
    32
  0
VERTEX
  8
0
  5
34D7
 10
51.4970
 20
67.3133
 30
0.000000
  70
    32
  0
VERTEX
  8
0
  5
34D8
 10
51.5000
 20
67.2309
 30
0.000000
  70
    32
  0
VERTEX
  8
0
  5
34D9
 10
51.4970
 20
67.1485
 30
0.000000
  70
    32
  0
VERTEX
  8
0
  5
34DA
 10
51.4880
 20
67.0664
 30
0.000000
  70
    32
  0
VERTEX
  8
0
  5
34DB
 10
51.4729
 20
66.9846
 30
0.000000
  70
    32
  0
VERTEX
  8
0
  5
34DC
 10
51.4520
 20
66.9034
 30
0.000000
  70
    32
  0
VERTEX
  8
0
  5
34DD
 10
51.4251
 20
66.8229
 30
0.000000
  70
    32
  0
VERTEX
  8
0
  5
34DE
 10
51.3924
 20
66.7435
 30
0.000000
  70
    32
  0
VERTEX
  8
0
  5
34DF
 10
51.3539
 20
66.6652
 30
0.000000
  70
    32
  0
VERTEX
  8
0
  5
34E0
 10
51.3097
 20
66.5884
 30
0.000000
  70
    32
  0
VERTEX
  8
0
  5
34E1
 10
51.2600
 20
66.5130
 30
0.000000
  70
    32
  0
VERTEX
  8
0
  5
34E2
 10
51.2048
 20
66.4394
 30
0.000000
  70
    32
  0
VERTEX
  8
0
  5
34E3
 10
51.1443
 20
66.3677
 30
0.000000
  70
    32
  0
VERTEX
  8
0
  5
34E4
 10
51.0787
 20
66.2980
 30
0.000000
  70
    32
  0
VERTEX
  8
0
  5
34E5
 10
51.0080
 20
66.2307
 30
0.000000
  70
    32
  0
VERTEX
  8
0
  5
34E6
 10
50.9325
 20
66.1657
 30
0.000000
  70
    32
  0
VERTEX
  8
0
  5
34E7
 10
50.8524
 20
66.1033
 30
0.000000
  70
    32
  0
VERTEX
  8
0
  5
34E8
 10
50.7678
 20
66.0436
 30
0.000000
  70
    32
  0
VERTEX
  8
0
  5
34E9
 10
50.6789
 20
65.9868
 30
0.000000
  70
    32
  0
VERTEX
  8
0
  5
34EA
 10
50.5860
 20
65.9329
 30
0.000000
  70
    32
  0
VERTEX
  8
0
  5
34EB
 10
50.4892
 20
65.8822
 30
0.000000
  70
    32
  0
VERTEX
  8
0
  5
34EC
 10
50.3889
 20
65.8348
 30
0.000000
  70
    32
  0
VERTEX
  8
0
  5
34ED
 10
50.2853
 20
65.7907
 30
0.000000
  70
    32
  0
VERTEX
  8
0
  5
34EE
 10
50.1785
 20
65.7501
 30
0.000000
  70
    32
  0
VERTEX
  8
0
  5
34EF
 10
50.0689
 20
65.7130
 30
0.000000
  70
    32
  0
VERTEX
  8
0
  5
34F0
 10
49.9567
 20
65.6796
 30
0.000000
  70
    32
  0
VERTEX
  8
0
  5
34F1
 10
49.8422
 20
65.6499
 30
0.000000
  70
    32
  0
VERTEX
  8
0
  5
34F2
 10
49.7257
 20
65.6241
 30
0.000000
  70
    32
  0
VERTEX
  8
0
  5
34F3
 10
49.6075
 20
65.6021
 30
0.000000
  70
    32
  0
VERTEX
  8
0
  5
34F4
 10
49.4877
 20
65.5840
 30
0.000000
  70
    32
  0
VERTEX
  8
0
  5
34F5
 10
49.3668
 20
65.5700
 30
0.000000
  70
    32
  0
VERTEX
  8
0
  5
34F6
 10
49.2450
 20
65.5599
 30
0.000000
  70
    32
  0
VERTEX
  8
0
  5
34F7
 10
49.1227
 20
65.5538
 30
0.000000
  70
    32
  0
VERTEX
  8
0
  5
34F8
 10
49.0000
 20
65.5518
 30
0.000000
  70
    32
  0
VERTEX
  8
0
  5
34F9
 10
48.8773
 20
65.5538
 30
0.000000
  70
    32
  0
VERTEX
  8
0
  5
34FA
 10
48.7550
 20
65.5599
 30
0.000000
  70
    32
  0
VERTEX
  8
0
  5
34FB
 10
48.6332
 20
65.5700
 30
0.000000
  70
    32
  0
VERTEX
  8
0
  5
34FC
 10
48.5123
 20
65.5840
 30
0.000000
  70
    32
  0
VERTEX
  8
0
  5
34FD
 10
48.3925
 20
65.6021
 30
0.000000
  70
    32
  0
VERTEX
  8
0
  5
34FE
 10
48.2743
 20
65.6241
 30
0.000000
  70
    32
  0
VERTEX
  8
0
  5
34FF
 10
48.1578
 20
65.6499
 30
0.000000
  70
    32
  0
VERTEX
  8
0
  5
3500
 10
48.0433
 20
65.6796
 30
0.000000
  70
    32
  0
VERTEX
  8
0
  5
3501
 10
47.9311
 20
65.7130
 30
0.000000
  70
    32
  0
VERTEX
  8
0
  5
3502
 10
47.8215
 20
65.7501
 30
0.000000
  70
    32
  0
VERTEX
  8
0
  5
3503
 10
47.7147
 20
65.7907
 30
0.000000
  70
    32
  0
VERTEX
  8
0
  5
3504
 10
47.6111
 20
65.8348
 30
0.000000
  70
    32
  0
VERTEX
  8
0
  5
3505
 10
47.5108
 20
65.8822
 30
0.000000
  70
    32
  0
VERTEX
  8
0
  5
3506
 10
47.4140
 20
65.9329
 30
0.000000
  70
    32
  0
VERTEX
  8
0
  5
3507
 10
47.3211
 20
65.9868
 30
0.000000
  70
    32
  0
VERTEX
  8
0
  5
3508
 10
47.2322
 20
66.0436
 30
0.000000
  70
    32
  0
VERTEX
  8
0
  5
3509
 10
47.1476
 20
66.1033
 30
0.000000
  70
    32
  0
VERTEX
  8
0
  5
350A
 10
47.0675
 20
66.1657
 30
0.000000
  70
    32
  0
VERTEX
  8
0
  5
350B
 10
46.9920
 20
66.2307
 30
0.000000
  70
    32
  0
VERTEX
  8
0
  5
350C
 10
46.9213
 20
66.2980
 30
0.000000
  70
    32
  0
VERTEX
  8
0
  5
350D
 10
46.8557
 20
66.3677
 30
0.000000
  70
    32
  0
VERTEX
  8
0
  5
350E
 10
46.7952
 20
66.4394
 30
0.000000
  70
    32
  0
VERTEX
  8
0
  5
350F
 10
46.7400
 20
66.5130
 30
0.000000
  70
    32
  0
VERTEX
  8
0
  5
3510
 10
46.6903
 20
66.5884
 30
0.000000
  70
    32
  0
VERTEX
  8
0
  5
3511
 10
46.6461
 20
66.6652
 30
0.000000
  70
    32
  0
VERTEX
  8
0
  5
3512
 10
46.6076
 20
66.7435
 30
0.000000
  70
    32
  0
VERTEX
  8
0
  5
3513
 10
46.5749
 20
66.8229
 30
0.000000
  70
    32
  0
VERTEX
  8
0
  5
3514
 10
46.5480
 20
66.9034
 30
0.000000
  70
    32
  0
VERTEX
  8
0
  5
3515
 10
46.5271
 20
66.9846
 30
0.000000
  70
    32
  0
VERTEX
  8
0
  5
3516
 10
46.5120
 20
67.0664
 30
0.000000
  70
    32
  0
VERTEX
  8
0
  5
3517
 10
46.5030
 20
67.1485
 30
0.000000
  70
    32
  0
VERTEX
  8
0
  5
3518
 10
46.5000
 20
67.2309
 30
0.000000
  70
    32
  0
SEQEND
  8
0
  5
3519
  0
LINE
  5
3203
  8
0
  6
DASHED
 62
     3
 10
52.000000000000021
 20
76.908606690722692
 30
0.0
 11
52.000000000000021
 21
67.230937509292175
 31
0.0
  0
VIEWPORT
  5
3173
 67
     1
  8
0
  6
CONTINUOUS
 62
     7
 10
0.0
 20
0.0
 30
0.0
 40
0.0
 41
0.0
 68
     1
 69
     1
1001
ACAD
1000
MVIEW
1002
{
1070
    16
1010
0.0
1020
0.0
1030
0.0
1010
0.0
1020
0.0
1030
1.0
1040
0.0
1040
0.0
1040
0.0
1040
0.0
1040
50.0
1040
0.0
1040
0.0
1070
     0
1070
   100
1070
     1
1070
     1
1070
     0
1070
     0
1070
     0
1070
     0
1040
0.0
1040
0.0
1040
0.0
1040
10.0
1040
10.0
1040
10.0
1040
10.0
1070
     0
1002
{
1002
}
1002
}
  0
VIEWPORT
  5
3175
 67
     1
  8
0
  6
CONTINUOUS
 62
     7
 10
0.0
 20
0.0
 30
0.0
 40
0.0
 41
0.0
 68
    -1
 69
     2
1001
ACAD
1000
MVIEW
1002
{
1070
    16
1010
0.0
1020
0.0
1030
0.0
1010
0.0
1020
0.0
1030
1.0
1040
0.0
1040
257.24525747649841
1040
88.941440264198505
1040
-10.20602474164002
1040
50.0
1040
0.0
1040
0.0
1070
     0
1070
   100
1070
     1
1070
     0
1070
     0
1070
     0
1070
     0
1070
     0
1040
0.0
1040
0.0
1040
0.0
1040
10.0
1040
10.0
1040
10.0
1040
10.0
1070
     0
1002
{
1002
}
1002
}
  0
ENDSEC
  0
EOF
