  0
SECTION
  2
HEADER
  9
$ACADVER
  1
AC1009
  9
$INSBASE
 10
0.0
 20
0.0
 30
0.0
  9
$EXTMIN
 10
-3.7267820187138341
 20
-8.0093071512054621
 30
-0.0015258207003583
  9
$EXTMAX
 10
33.739980440411053
 20
84.208328709481634
 30
0.0000000349246037
  9
$LIMMIN
 10
0.0
 20
0.0
  9
$LIMMAX
 10
420.0
 20
297.0
  9
$ORTHOMODE
 70
     0
  9
$REGENMODE
 70
     1
  9
$FILLMODE
 70
     1
  9
$QTEXTMODE
 70
     0
  9
$MIRRTEXT
 70
     0
  9
$DRAGMODE
 70
     2
  9
$LTSCALE
 40
0.5
  9
$OSMODE
 70
   317
  9
$ATTMODE
 70
     1
  9
$TEXTSIZE
 40
3.0
  9
$TRACEWID
 40
1.0
  9
$TEXTSTYLE
  7
STANDARD
  9
$CLAYER
  8
MSM_CONTINUOUS
  9
$CELTYPE
  6
BYLAYER
  9
$CECOLOR
 62
   256
  9
$DIMSCALE
 40
1.0
  9
$DIMASZ
 40
2.5
  9
$DIMEXO
 40
0.625
  9
$DIMDLI
 40
3.75
  9
$DIMRND
 40
0.0
  9
$DIMDLE
 40
0.0
  9
$DIMEXE
 40
1.25
  9
$DIMTP
 40
0.0
  9
$DIMTM
 40
0.0
  9
$DIMTXT
 40
3.0
  9
$DIMCEN
 40
2.5
  9
$DIMTSZ
 40
0.0
  9
$DIMTOL
 70
     0
  9
$DIMLIM
 70
     0
  9
$DIMTIH
 70
     0
  9
$DIMTOH
 70
     0
  9
$DIMSE1
 70
     0
  9
$DIMSE2
 70
     0
  9
$DIMTAD
 70
     1
  9
$DIMZIN
 70
     8
  9
$DIMBLK
  1
OPEN30
  9
$DIMASO
 70
     1
  9
$DIMSHO
 70
     1
  9
$DIMPOST
  1

  9
$DIMAPOST
  1

  9
$DIMALT
 70
     0
  9
$DIMALTD
 70
     3
  9
$DIMALTF
 40
0.03937007874016
  9
$DIMLFAC
 40
1.0
  9
$DIMTOFL
 70
     1
  9
$DIMTVP
 40
0.0
  9
$DIMTIX
 70
     0
  9
$DIMSOXD
 70
     0
  9
$DIMSAH
 70
     0
  9
$DIMBLK1
  1

  9
$DIMBLK2
  1

  9
$DIMSTYLE
  2
MISUMI
  9
$DIMCLRD
 70
   256
  9
$DIMCLRE
 70
   256
  9
$DIMCLRT
 70
   256
  9
$DIMTFAC
 40
1.0
  9
$DIMGAP
 40
0.625
  9
$LUNITS
 70
     2
  9
$LUPREC
 70
     2
  9
$SKETCHINC
 40
1.0
  9
$FILLETRAD
 40
0.0
  9
$AUNITS
 70
     0
  9
$AUPREC
 70
     0
  9
$MENU
  1
.
  9
$ELEVATION
 40
0.0
  9
$PELEVATION
 40
0.0
  9
$THICKNESS
 40
0.0
  9
$LIMCHECK
 70
     0
  9
$BLIPMODE
 70
     0
  9
$CHAMFERA
 40
0.5
  9
$CHAMFERB
 40
0.5
  9
$SKPOLY
 70
     0
  9
$TDCREATE
 40
2455135.5720697111
  9
$TDUPDATE
 40
2458151.6119042598
  9
$TDINDWG
 40
0.7033746528
  9
$TDUSRTIMER
 40
2458087.262405972
  9
$USRTIMER
 70
     1
  9
$ANGBASE
 50
0.0
  9
$ANGDIR
 70
     0
  9
$PDMODE
 70
    35
  9
$PDSIZE
 40
0.0
  9
$PLINEWID
 40
0.0
  9
$COORDS
 70
     0
  9
$SPLFRAME
 70
     0
  9
$SPLINETYPE
 70
     6
  9
$SPLINESEGS
 70
     8
  9
$ATTDIA
 70
     0
  9
$ATTREQ
 70
     1
  9
$HANDLING
 70
     1
  9
$HANDSEED
  5
E613
  9
$SURFTAB1
 70
     6
  9
$SURFTAB2
 70
     6
  9
$SURFTYPE
 70
     6
  9
$SURFU
 70
     6
  9
$SURFV
 70
     6
  9
$UCSNAME
  2

  9
$UCSORG
 10
0.0
 20
0.0
 30
0.0
  9
$UCSXDIR
 10
1.0
 20
0.0
 30
0.0
  9
$UCSYDIR
 10
0.0
 20
1.0
 30
0.0
  9
$PUCSNAME
  2

  9
$PUCSORG
 10
0.0
 20
0.0
 30
0.0
  9
$PUCSXDIR
 10
1.0
 20
0.0
 30
0.0
  9
$PUCSYDIR
 10
0.0
 20
1.0
 30
0.0
  9
$USERI1
 70
     0
  9
$USERI2
 70
     0
  9
$USERI3
 70
     0
  9
$USERI4
 70
     0
  9
$USERI5
 70
     0
  9
$USERR1
 40
0.0
  9
$USERR2
 40
0.0
  9
$USERR3
 40
0.0
  9
$USERR4
 40
0.0
  9
$USERR5
 40
0.0
  9
$WORLDVIEW
 70
     1
  9
$SHADEDGE
 70
     3
  9
$SHADEDIF
 70
    70
  9
$TILEMODE
 70
     1
  9
$MAXACTVP
 70
    64
  9
$PLIMCHECK
 70
     0
  9
$PEXTMIN
 10
0.0
 20
0.0
 30
0.0
  9
$PEXTMAX
 10
0.0
 20
0.0
 30
0.0
  9
$PLIMMIN
 10
0.0
 20
0.0
  9
$PLIMMAX
 10
12.0
 20
9.0
  9
$UNITMODE
 70
     0
  9
$VISRETAIN
 70
     1
  9
$PLINEGEN
 70
     0
  9
$PSLTSCALE
 70
     1
  0
ENDSEC
  0
SECTION
  2
TABLES
  0
TABLE
  2
VPORT
 70
     1
  0
VPORT
  2
*ACTIVE
 70
     0
 10
0.0
 20
0.0
 11
1.0
 21
1.0
 12
15.006599210848609
 22
38.099510779138079
 13
0.0
 23
0.0
 14
10.0
 24
10.0
 15
10.0
 25
10.0
 16
0.0
 26
0.0
 36
1.0
 17
0.0
 27
0.0
 37
0.0
 40
92.916254314177124
 41
1.667509481668773
 42
50.0
 43
0.0
 44
0.0
 50
0.0
 51
0.0
 71
    16
 72
  1000
 73
     1
 74
     3
 75
     0
 76
     0
 77
     0
 78
     0
  0
ENDTAB
  0
TABLE
  2
LTYPE
 70
     3
  0
LTYPE
  2
CONTINUOUS
 70
     0
  3
Solid line
 72
    65
 73
     0
 40
0.0
  0
LTYPE
  2
CENTER
 70
     0
  3
Center ____ _ ____ _ ____ _ ____ _ ____ _ ____
 72
    65
 73
     4
 40
50.799999999999997
 49
31.75
 49
-6.3499999999999988
 49
6.3499999999999988
 49
-6.3499999999999988
  0
LTYPE
  2
DASHED
 70
     0
  3
Dashed __ __ __ __ __ __ __ __ __ __ __ __ __ _
 72
    65
 73
     2
 40
19.050000000000001
 49
12.699999999999999
 49
-6.3499999999999988
  0
ENDTAB
  0
TABLE
  2
LAYER
 70
     6
  0
LAYER
  2
0
 70
     0
 62
     7
  6
CONTINUOUS
  0
LAYER
  2
MSM_CENTER
 70
     0
 62
     1
  6
CENTER
  0
LAYER
  2
MSM_CONTINUOUS
 70
     0
 62
     7
  6
CONTINUOUS
  0
LAYER
  2
MSM_DASHED
 70
     0
 62
     4
  6
DASHED
  0
LAYER
  2
MSM_NARROW
 70
     0
 62
     5
  6
CONTINUOUS
  0
LAYER
  2
MSM_PART_NUMBER
 70
     0
 62
     7
  6
CONTINUOUS
  0
ENDTAB
  0
TABLE
  2
STYLE
 70
     1
  0
STYLE
  2
STANDARD
 70
     0
 40
3.0
 41
1.0
 50
0.0
 71
     0
 42
3.0
  3
txt.shx
  4
bigfont.shx
  0
ENDTAB
  0
TABLE
  2
VIEW
 70
     0
  0
ENDTAB
  0
TABLE
  2
UCS
 70
     0
  0
ENDTAB
  0
TABLE
  2
APPID
 70
    25
  0
APPID
  2
ACAD
 70
     0
  0
APPID
  2
ACAD_MLEADERVER
 70
     0
  0
APPID
  2
ACAD_EXEMPT_FROM_CAD_STANDARDS
 70
     0
  0
APPID
  2
ACDBBLOCKREPETAG
 70
     0
  0
APPID
  2
ACAD_DSTYLE_DIMJOGGED_JOGA
 70
     0
  0
APPID
  2
ACAECLAYERSTANDARD
 70
     0
  0
APPID
  2
GENIUS_GENODEF_13
 70
     0
  0
APPID
  2
GENIUS_GENOBJ-N-FIL_13
 70
     0
  0
APPID
  2
ACAD_PSEXT
 70
     0
  0
APPID
  2
ACAD_DSTYLE_DIMRADIAL_EXTENSION
 70
     0
  0
APPID
  2
ACDBDYNAMICBLOCKTRUENAME
 70
     0
  0
APPID
  2
ACDBDYNAMICBLOCKGUID
 70
     0
  0
APPID
  2
ACDBBLOCKREPBTAG
 70
     0
  0
APPID
  2
ACAUTHENVIRON
 70
     0
  0
APPID
  2
GRADIENTCOLOR1ACI
 70
     0
  0
APPID
  2
GRADIENTCOLOR2ACI
 70
     0
  0
APPID
  2
ACAD_DSTYLE_DIMJAG
 70
     0
  0
APPID
  2
ACAD_DSTYLE_DIMTALN
 70
     0
  0
APPID
  2
ACCMTRANSPARENCY
 70
     0
  0
APPID
  2
ACAD_DSTYLE_DIMBREAK
 70
     0
  0
APPID
  2
ACAD_DSTYLE_DIMFLIPARROW_W
 70
     0
  0
APPID
  2
ACAD_DSTYLE_DIM_LINETYPE
 70
     0
  0
APPID
  2
ACAD_DSTYLE_DIM_EXT1_LINETYPE
 70
     0
  0
APPID
  2
ACAD_DSTYLE_DIM_EXT2_LINETYPE
 70
     0
  0
APPID
  2
ACAD_NAV_VCDISPLAY
 70
     0
  0
ENDTAB
  0
TABLE
  2
DIMSTYLE
 70
     1
  0
DIMSTYLE
  2
MISUMI
 70
     0
  3

  4

  5
OPEN30
  6

  7

 40
1.0
 41
2.5
 42
0.625
 43
3.75
 44
1.25
 45
0.0
 46
0.0
 47
0.0
 48
0.0
140
3.0
141
2.5
142
0.0
143
0.03937007874016
144
1.0
145
0.0
146
1.0
147
0.625
 71
     0
 72
     0
 73
     0
 74
     0
 75
     0
 76
     0
 77
     1
 78
     8
170
     0
171
     3
172
     1
173
     0
174
     0
175
     0
176
   256
177
   256
178
   256
  0
ENDTAB
  0
ENDSEC
  0
SECTION
  2
BLOCKS
  0
BLOCK
  8
0
  2
$MODEL_SPACE
 70
     0
 10
0.0
 20
0.0
 30
0.0
  3
$MODEL_SPACE
  1

  0
ENDBLK
  5
21
  8
0
  0
BLOCK
 67
     1
  8
0
  2
$PAPER_SPACE
 70
     0
 10
0.0
 20
0.0
 30
0.0
  3
$PAPER_SPACE
  1

  0
ENDBLK
  5
E5C3
 67
     1
  8
0
  0
BLOCK
  8
0
 62
     7
  2
_OPEN30
 70
     0
 10
0.0
 20
0.0
 30
0.0
  3
_OPEN30
  1

  0
LINE
  5
D7
  8
0
  6
BYBLOCK
 62
     0
 10
-1.0
 20
0.26794919
 30
0.0
 11
0.0
 21
0.0
 31
0.0
  0
LINE
  5
D8
  8
0
  6
BYBLOCK
 62
     0
 10
0.0
 20
0.0
 30
0.0
 11
-1.0
 21
-0.26794919
 31
0.0
  0
LINE
  5
D9
  8
0
  6
BYBLOCK
 62
     0
 10
0.0
 20
0.0
 30
0.0
 11
-1.0
 21
0.0
 31
0.0
  0
ENDBLK
  5
DB
  8
0
 62
     7
  0
BLOCK
  8
0
  2
*U2
 70
     1
 10
0.0
 20
0.0
 30
0.0
  3
*U2
  1

  0
TEXT
  5
E608
  8
MSM_PART_NUMBER
 10
0.0
 20
-8.0
 30
0.0
 40
3.0
  1
LPDRR30
  0
ENDBLK
  5
E60A
  8
0
  0
BLOCK
  8
0
  2
*U3
 70
     1
 10
0.0
 20
0.0
 30
0.0
  3
*U3
  1

  0
TEXT
  5
E60C
  8
MSM_PART_NUMBER
 10
0.0
 20
-3.0
 30
0.0
 40
3.0
  1
LPDRR30-90
  0
ENDBLK
  5
E60E
  8
0
  0
ENDSEC
  0
SECTION
  2
ENTITIES
  0
LINE
  5
E42B
  8
MSM_CENTER
 10
15.0
 20
84.206381408434609
 30
0.0
 11
15.0
 21
39.904450997081938
 31
0.0
  0
LINE
  5
E42C
  8
MSM_CENTER
 10
33.713852284644652
 20
58.61830328172671
 30
0.0
 11
-3.7138522846447581
 21
58.61830328172671
 31
0.0
  0
CIRCLE
  5
E42D
  8
MSM_CONTINUOUS
 10
15.0
 20
58.61830328172671
 30
0.0
 40
15.0
  0
CIRCLE
  5
E42E
  8
MSM_CONTINUOUS
 10
15.0
 20
58.61830328172671
 30
0.0
 40
8.0500000000000007
  0
CIRCLE
  5
E42F
  8
MSM_CONTINUOUS
 10
15.0
 20
58.61830328172671
 30
0.0
 40
5.0
  0
CIRCLE
  5
E430
  8
MSM_CENTER
 10
15.0
 20
58.61830328172671
 30
0.0
 40
11.5
  0
LINE
  5
E431
  8
MSM_CENTER
 10
15.0
 20
31.19267930806609
 30
0.0
 11
15.0
 21
5.7051357592175123
 31
0.0
  0
LINE
  5
E432
  8
MSM_CONTINUOUS
 10
0.0
 20
28.0
 30
0.0
 11
30.0
 21
28.0
 31
0.0
  0
LINE
  5
E433
  8
MSM_CONTINUOUS
 10
0.0
 20
10.0
 30
0.0
 11
30.0
 21
10.0
 31
0.0
  0
LINE
  5
E434
  8
MSM_CONTINUOUS
 10
0.0
 20
28.0
 30
0.0
 11
0.0
 21
10.0
 31
0.0
  0
LINE
  5
E435
  8
MSM_DASHED
 10
6.9499999999999309
 20
28.0
 30
0.0
 11
6.9499999999999309
 21
21.0
 31
0.0
  0
LINE
  5
E436
  8
MSM_DASHED
 10
9.9999999999998863
 20
21.0
 30
0.0
 11
9.9999999999998863
 21
17.0
 31
0.0
  0
LINE
  5
E437
  8
MSM_DASHED
 10
6.9499999999999309
 20
21.0
 30
0.0
 11
23.049999999999962
 21
21.0
 31
0.0
  0
LINE
  5
E438
  8
MSM_DASHED
 10
1.0
 20
20.0
 30
0.0
 11
1.0
 21
10.0
 31
0.0
  0
LINE
  5
E439
  8
MSM_DASHED
 10
1.5
 20
17.0
 30
0.0
 11
28.5
 21
17.0
 31
0.0
  0
LINE
  5
E43A
  8
MSM_DASHED
 10
1.0
 20
20.0
 30
0.0
 11
8.5
 21
20.0
 31
0.0
  0
LINE
  5
E43B
  8
MSM_DASHED
 10
8.5
 20
20.0
 30
0.0
 11
8.5
 21
17.0
 31
0.0
  0
LINE
  5
E43C
  8
MSM_DASHED
 10
1.5
 20
17.0
 30
0.0
 11
1.5
 21
16.0
 31
0.0
  0
LINE
  5
E43D
  8
MSM_DASHED
 10
1.5
 20
16.0
 30
0.0
 11
28.5
 21
16.0
 31
0.0
  0
LINE
  5
E43E
  8
MSM_DASHED
 10
1.665999876165756
 20
16.0
 30
0.0
 11
1.665999876165756
 21
13.0
 31
0.0
  0
LINE
  5
E43F
  8
MSM_DASHED
 10
4.6659998761657562
 20
16.0
 30
0.0
 11
4.6659998761657562
 21
13.0
 31
0.0
  0
ARC
  5
E440
  8
MSM_DASHED
 10
3.1659998761657562
 20
13.0
 30
0.0
 40
1.5
 50
180.0
 51
0.0
  0
ARC
  5
E441
  8
MSM_DASHED
 10
6.7424247834601374
 20
13.0
 30
0.0
 40
1.5
 50
180.0
 51
0.0
  0
LINE
  5
E442
  8
MSM_DASHED
 10
5.2424247834601374
 20
16.0
 30
0.0
 11
5.2424247834601374
 21
13.0
 31
0.0
  0
LINE
  5
E443
  8
MSM_DASHED
 10
8.2424247834601374
 20
16.0
 30
0.0
 11
8.2424247834601374
 21
13.0
 31
0.0
  0
LINE
  5
E444
  8
MSM_CONTINUOUS
 10
30.0
 20
28.0
 30
0.0
 11
30.0
 21
10.0
 31
0.0
  0
LINE
  5
E445
  8
MSM_DASHED
 10
23.049999999999962
 20
28.0
 30
0.0
 11
23.049999999999962
 21
21.0
 31
0.0
  0
ARC
  5
E446
  8
MSM_DASHED
 10
26.83400012383413
 20
13.0
 30
0.0
 40
1.5
 50
180.0
 51
0.0
  0
LINE
  5
E447
  8
MSM_DASHED
 10
29.0
 20
20.0
 30
0.0
 11
21.5
 21
20.0
 31
0.0
  0
LINE
  5
E448
  8
MSM_DASHED
 10
28.33400012383413
 20
16.0
 30
0.0
 11
28.33400012383413
 21
13.0
 31
0.0
  0
LINE
  5
E449
  8
MSM_DASHED
 10
29.0
 20
20.0
 30
0.0
 11
29.0
 21
10.0
 31
0.0
  0
LINE
  5
E44A
  8
MSM_DASHED
 10
28.5
 20
17.0
 30
0.0
 11
28.5
 21
16.0
 31
0.0
  0
LINE
  5
E44B
  8
MSM_DASHED
 10
21.757575216539749
 20
16.0
 30
0.0
 11
21.757575216539749
 21
13.0
 31
0.0
  0
LINE
  5
E44C
  8
MSM_DASHED
 10
24.757575216539749
 20
16.0
 30
0.0
 11
24.757575216539749
 21
13.0
 31
0.0
  0
LINE
  5
E44D
  8
MSM_DASHED
 10
25.33400012383413
 20
16.0
 30
0.0
 11
25.33400012383413
 21
13.0
 31
0.0
  0
ARC
  5
E44E
  8
MSM_DASHED
 10
23.257575216539749
 20
13.0
 30
0.0
 40
1.5
 50
180.0
 51
0.0
  0
LINE
  5
E44F
  8
MSM_DASHED
 10
21.5
 20
20.0
 30
0.0
 11
21.5
 21
17.0
 31
0.0
  0
LINE
  5
E450
  8
MSM_DASHED
 10
20.0
 20
21.0
 30
0.0
 11
20.0
 21
17.0
 31
0.0
  0
LINE
  5
E451
  8
MSM_CENTER
 10
22.190364223299191
 20
24.5
 30
0.0
 11
28.67511896299084
 21
24.5
 31
0.0
  0
CIRCLE
  5
E452
  8
MSM_NARROW
 10
15.0
 20
70.11830328172671
 30
0.0
 40
1.5
  0
CIRCLE
  5
E453
  8
MSM_CONTINUOUS
 10
15.0
 20
70.11830328172671
 30
0.0
 40
1.2294999999999989
  0
CIRCLE
  5
E454
  8
MSM_NARROW
 10
3.5
 20
58.61830328172671
 30
0.0
 40
1.5
  0
CIRCLE
  5
E455
  8
MSM_CONTINUOUS
 10
3.5
 20
58.61830328172671
 30
0.0
 40
1.2294999999999989
  0
CIRCLE
  5
E456
  8
MSM_CONTINUOUS
 10
15.0
 20
47.11830328172671
 30
0.0
 40
1.2294999999999989
  0
CIRCLE
  5
E457
  8
MSM_NARROW
 10
15.0
 20
47.11830328172671
 30
0.0
 40
1.5
  0
CIRCLE
  5
E458
  8
MSM_NARROW
 10
26.5
 20
58.61830328172671
 30
0.0
 40
1.5
  0
CIRCLE
  5
E459
  8
MSM_CONTINUOUS
 10
26.5
 20
58.61830328172671
 30
0.0
 40
1.2294999999999989
  0
LINE
  5
E45A
  8
MSM_CENTER
 10
19.646489375699389
 20
53.971813906027208
 30
0.0
 11
26.926127553909058
 21
46.692175727817478
 31
0.0
  0
LINE
  5
E45F
  8
MSM_CENTER
 10
10.35351062430049
 20
53.971813906027208
 30
0.0
 11
3.0738724460908311
 21
46.692175727817478
 31
0.0
  0
LINE
  5
E464
  8
MSM_CENTER
 10
25.606601717798188
 20
26.483841135894529
 30
0.0
 11
25.606601717798188
 21
22.350494371990749
 31
0.0
  0
LINE
  5
E465
  8
MSM_CENTER
 10
7.8096357767008149
 20
24.5
 30
0.0
 11
1.3248810370090489
 21
24.5
 31
0.0
  0
LINE
  5
E466
  8
MSM_CENTER
 10
4.3933982822017006
 20
26.483841135894529
 30
0.0
 11
4.3933982822017006
 21
22.350494371990749
 31
0.0
  0
LINE
  5
E467
  8
MSM_CONTINUOUS
 10
16.499999999999879
 20
82.078319979124416
 30
0.0
 11
16.5
 21
73.543114838326019
 31
0.0
  0
LINE
  5
E468
  8
MSM_CONTINUOUS
 10
13.5
 20
81.031172257096003
 30
0.0
 11
13.499999999999879
 21
73.543114838326019
 31
0.0
  0
LINE
  5
E469
  8
MSM_NARROW
 10
19.882357454680118
 20
83.258929280375597
 30
0.0
 11
10.042730246397349
 21
79.824414874788502
 31
0.0
  0
LINE
  5
E46A
  8
MSM_CENTER
 10
26.5
 20
31.979736299818509
 30
0.0
 11
26.5
 21
18.043876003468249
 31
0.0
  0
LINE
  5
E46B
  8
MSM_CENTER
 10
3.5
 20
31.979736299818509
 30
0.0
 11
3.5
 21
18.043876003468249
 31
0.0
  0
LINE
  5
E4BB
  8
MSM_DASHED
 10
21.494195941795169
 20
53.861422048232292
 30
0.0
 11
26.439628662458802
 21
48.915989327568603
 31
0.0
  0
LINE
  5
E4BC
  8
MSM_DASHED
 10
21.65210228557379
 20
54.084868029926618
 30
0.0
 11
26.612902226096079
 21
49.124068089404332
 31
0.0
  0
LINE
  5
E4BD
  8
MSM_DASHED
 10
19.756881233494308
 20
52.124107339931449
 30
0.0
 11
24.70231395415794
 21
47.17867461926776
 31
0.0
  0
LINE
  5
E4BE
  8
MSM_DASHED
 10
19.533435251799911
 20
51.9662009961528
 30
0.0
 11
24.494235192322211
 21
47.005401055630493
 31
0.0
  0
LINE
  5
E4C1
  8
MSM_DASHED
 10
8.5058040582047738
 20
53.861422048232342
 30
0.0
 11
3.5603713375411412
 21
48.915989327568681
 31
0.0
  0
LINE
  5
E4C2
  8
MSM_DASHED
 10
8.3478977144261535
 20
54.08486802992671
 30
0.0
 11
3.3870977739038599
 21
49.124068089404382
 31
0.0
  0
LINE
  5
E4C3
  8
MSM_DASHED
 10
10.24311876650563
 20
52.124107339931513
 30
0.0
 11
5.2976860458419992
 21
47.178674619267817
 31
0.0
  0
LINE
  5
E4C4
  8
MSM_DASHED
 10
10.46656474819997
 20
51.966200996152843
 30
0.0
 11
5.5057648076777346
 21
47.005401055630543
 31
0.0
  0
INSERT
  5
E504
  8
MSM_CONTINUOUS
  2
*U2
 10
0.0
 20
0.0
 30
0.0
  0
INSERT
  5
E505
  8
MSM_CONTINUOUS
  2
*U3
 10
0.0
 20
0.0
 30
0.0
  0
ENDSEC
  0
EOF
