  0
SECTION
  2
HEADER
  9
$ACADVER
  1
AC1009
  9
$INSBASE
 10
0.0
 20
0.0
 30
0.0
  9
$EXTMIN
 10
10.0
 20
9.9999999999999982
 30
0.0
  9
$EXTMAX
 10
130.49593904161881
 20
56.89999999999997
 30
0.0
  9
$LIMMIN
 10
0.0
 20
0.0
  9
$LIMMAX
 10
420.0
 20
297.0
  9
$ORTHOMODE
 70
     1
  9
$REGENMODE
 70
     1
  9
$FILLMODE
 70
     1
  9
$QTEXTMODE
 70
     0
  9
$MIRRTEXT
 70
     0
  9
$DRAGMODE
 70
     2
  9
$LTSCALE
 40
1.0
  9
$OSMODE
 70
    37
  9
$ATTMODE
 70
     1
  9
$TEXTSIZE
 40
2.5
  9
$TRACEWID
 40
1.0
  9
$TEXTSTYLE
  7
STANDARD
  9
$CLAYER
  8
0
  9
$CELTYPE
  6
CONTINUOUS
  9
$CECOLOR
 62
     7
  9
$DIMSCALE
 40
1.0
  9
$DIMASZ
 40
1.5
  9
$DIMEXO
 40
0.625
  9
$DIMDLI
 40
3.75
  9
$DIMRND
 40
0.0
  9
$DIMDLE
 40
0.0
  9
$DIMEXE
 40
1.25
  9
$DIMTP
 40
0.0
  9
$DIMTM
 40
0.0
  9
$DIMTXT
 40
2.5
  9
$DIMCEN
 40
0.0
  9
$DIMTSZ
 40
0.0
  9
$DIMTOL
 70
     0
  9
$DIMLIM
 70
     0
  9
$DIMTIH
 70
     0
  9
$DIMTOH
 70
     0
  9
$DIMSE1
 70
     0
  9
$DIMSE2
 70
     0
  9
$DIMTAD
 70
     1
  9
$DIMZIN
 70
     8
  9
$DIMBLK
  1

  9
$DIMASO
 70
     1
  9
$DIMSHO
 70
     1
  9
$DIMPOST
  1

  9
$DIMAPOST
  1

  9
$DIMALT
 70
     0
  9
$DIMALTD
 70
     3
  9
$DIMALTF
 40
0.03937007874016
  9
$DIMLFAC
 40
1.0
  9
$DIMTOFL
 70
     1
  9
$DIMTVP
 40
0.0
  9
$DIMTIX
 70
     1
  9
$DIMSOXD
 70
     0
  9
$DIMSAH
 70
     0
  9
$DIMBLK1
  1

  9
$DIMBLK2
  1

  9
$DIMSTYLE
  2
MISUMI
  9
$DIMCLRD
 70
     0
  9
$DIMCLRE
 70
     0
  9
$DIMCLRT
 70
     0
  9
$DIMTFAC
 40
1.0
  9
$DIMGAP
 40
0.625
  9
$LUNITS
 70
     2
  9
$LUPREC
 70
     4
  9
$SKETCHINC
 40
1.0
  9
$FILLETRAD
 40
0.0
  9
$AUNITS
 70
     0
  9
$AUPREC
 70
     0
  9
$MENU
  1
.
  9
$ELEVATION
 40
0.0
  9
$PELEVATION
 40
0.0
  9
$THICKNESS
 40
0.0
  9
$LIMCHECK
 70
     0
  9
$BLIPMODE
 70
     0
  9
$CHAMFERA
 40
1.0
  9
$CHAMFERB
 40
1.0
  9
$SKPOLY
 70
     0
  9
$TDCREATE
 40
2454424.6116537959
  9
$TDUPDATE
 40
2454509.7804502202
  9
$TDINDWG
 40
0.5446763773
  9
$TDUSRTIMER
 40
0.5446763773
  9
$USRTIMER
 70
     1
  9
$ANGBASE
 50
0.0
  9
$ANGDIR
 70
     0
  9
$PDMODE
 70
     0
  9
$PDSIZE
 40
0.0
  9
$PLINEWID
 40
0.0
  9
$COORDS
 70
     2
  9
$SPLFRAME
 70
     0
  9
$SPLINETYPE
 70
     6
  9
$SPLINESEGS
 70
     8
  9
$ATTDIA
 70
     0
  9
$ATTREQ
 70
     1
  9
$HANDLING
 70
     1
  9
$HANDSEED
  5
B8CA
  9
$SURFTAB1
 70
     6
  9
$SURFTAB2
 70
     6
  9
$SURFTYPE
 70
     6
  9
$SURFU
 70
     6
  9
$SURFV
 70
     6
  9
$UCSNAME
  2

  9
$UCSORG
 10
0.0
 20
0.0
 30
0.0
  9
$UCSXDIR
 10
1.0
 20
0.0
 30
0.0
  9
$UCSYDIR
 10
0.0
 20
1.0
 30
0.0
  9
$PUCSNAME
  2

  9
$PUCSORG
 10
0.0
 20
0.0
 30
0.0
  9
$PUCSXDIR
 10
1.0
 20
0.0
 30
0.0
  9
$PUCSYDIR
 10
0.0
 20
1.0
 30
0.0
  9
$USERI1
 70
     0
  9
$USERI2
 70
     0
  9
$USERI3
 70
     0
  9
$USERI4
 70
     0
  9
$USERI5
 70
     0
  9
$USERR1
 40
0.0
  9
$USERR2
 40
0.0
  9
$USERR3
 40
0.0
  9
$USERR4
 40
0.0
  9
$USERR5
 40
0.0
  9
$WORLDVIEW
 70
     1
  9
$SHADEDGE
 70
     3
  9
$SHADEDIF
 70
    70
  9
$TILEMODE
 70
     1
  9
$MAXACTVP
 70
    64
  9
$PLIMCHECK
 70
     0
  9
$PEXTMIN
 10
0.0
 20
0.0
 30
0.0
  9
$PEXTMAX
 10
0.0
 20
0.0
 30
0.0
  9
$PLIMMIN
 10
0.0
 20
0.0
  9
$PLIMMAX
 10
12.0
 20
9.0
  9
$UNITMODE
 70
     0
  9
$VISRETAIN
 70
     1
  9
$PLINEGEN
 70
     0
  9
$PSLTSCALE
 70
     1
  0
ENDSEC
  0
SECTION
  2
TABLES
  0
TABLE
  2
VPORT
 70
     1
  0
VPORT
  2
*ACTIVE
 70
     0
 10
0.0
 20
0.0
 11
1.0
 21
1.0
 12
70.242462973392662
 22
33.583351692980322
 13
0.0
 23
0.0
 14
10.0
 24
10.0
 15
10.0
 25
10.0
 16
0.0
 26
0.0
 36
1.0
 17
0.0
 27
0.0
 37
0.0
 40
114.2281480950065
 41
1.0628272251308899
 42
50.0
 43
0.0
 44
0.0
 50
0.0
 51
0.0
 71
     0
 72
  1000
 73
     1
 74
     3
 75
     0
 76
     0
 77
     0
 78
     0
  0
ENDTAB
  0
TABLE
  2
LTYPE
 70
     5
  0
LTYPE
  2
CONTINUOUS
 70
     0
  3
Solid line
 72
    65
 73
     0
 40
0.0
  0
LTYPE
  2
CENTER
 70
     0
  3
Center ____ _ ____ _ ____ _ ____ _ ____ _ ____
 72
    65
 73
     4
 40
2.0
 49
1.25
 49
-0.25
 49
0.25
 49
-0.25
  0
LTYPE
  2
DASHED
 70
     0
  3
Dashed __ __ __ __ __ __ __ __ __ __ __ __ __ _
 72
    65
 73
     2
 40
0.75
 49
0.5
 49
-0.25
  0
LTYPE
  2
PHANTOM
 70
     0
  3
Phantom ______  __  __  ______  __  __  ______
 72
    65
 73
     6
 40
2.5
 49
1.25
 49
-0.25
 49
0.25
 49
-0.25
 49
0.25
 49
-0.25
  0
ENDTAB
  0
TABLE
  2
LAYER
 70
     4
  0
LAYER
  2
0
 70
     0
 62
     7
  6
CONTINUOUS
  0
LAYER
  2
CENTER
 70
     0
 62
     1
  6
CENTER
  0
ENDTAB
  0
TABLE
  2
STYLE
 70
     3
  0
STYLE
  2
STANDARD
 70
     0
 40
0.0
 41
1.0
 50
0.0
 71
     0
 42
2.5
  3
txt.shx
  4

  0
ENDTAB
  0
TABLE
  2
VIEW
 70
     0
  0
ENDTAB
  0
TABLE
  2
UCS
 70
     0
  0
ENDTAB
  0
TABLE
  2
APPID
 70
     4
  0
APPID
  2
ACAD
 70
     0
  0
APPID
  2
ACAD_PSEXT
 70
     0
  0
APPID
  2
ACAECLAYERSTANDARD
 70
     0
  0
APPID
  2
ACAD_EXEMPT_FROM_CAD_STANDARDS
 70
     0
  0
ENDTAB
  0
TABLE
  2
DIMSTYLE
 70
     2
  0
DIMSTYLE
  2
MISUMI
 70
     0
  3

  4

  5

  6

  7

 40
1.0
 41
1.5
 42
0.625
 43
3.75
 44
1.25
 45
0.0
 46
0.0
 47
0.0
 48
0.0
140
2.5
141
0.0
142
0.0
143
0.03937007874016
144
1.0
145
0.0
146
1.0
147
0.625
 71
     0
 72
     0
 73
     0
 74
     0
 75
     0
 76
     0
 77
     1
 78
     8
170
     0
171
     3
172
     1
173
     0
174
     1
175
     0
176
     0
177
     0
178
     0
  0
ENDTAB
  0
ENDSEC
  0
SECTION
  2
BLOCKS
  0
BLOCK
  8
0
  2
$MODEL_SPACE
 70
     0
 10
0.0
 20
0.0
 30
0.0
  3
$MODEL_SPACE
  1

  0
ENDBLK
  5
21
  8
0
  0
BLOCK
 67
     1
  8
0
  2
$PAPER_SPACE
 70
     0
 10
0.0
 20
0.0
 30
0.0
  3
$PAPER_SPACE
  1

  0
ENDBLK
  5
D5
 67
     1
  8
0
  0
BLOCK
  8
0
 62
     7
  2
*U620
 70
     1
 10
0.0
 20
0.0
 30
0.0
  3
*U620
  1

  0
TEXT
  5
AF3B
  8
0
  6
CONTINUOUS
 62
     0
 10
36.623375192078854
 20
48.541666666666671
 30
0.0
 40
2.5
  1
10
 50
90.0
  0
ENDBLK
  5
AF3D
  8
0
 62
     7
  0
BLOCK
  8
0
 62
     7
  2
*U621
 70
     1
 10
0.0
 20
0.0
 30
0.0
  3
*U621
  1

  0
TEXT
  5
AF3F
  8
0
  6
CONTINUOUS
 62
     0
 10
57.333334833333353
 20
24.38093524457781
 30
0.0
 40
2.5
  1
18
  0
ENDBLK
  5
AF41
  8
0
 62
     7
  0
BLOCK
  8
0
 62
     7
  2
*U622
 70
     1
 10
0.0
 20
0.0
 30
0.0
  3
*U622
  1

  0
TEXT
  5
AF43
  8
0
  6
CONTINUOUS
 62
     0
 10
71.541668166666682
 20
24.38093524457781
 30
0.0
 40
2.5
  1
10
  0
ENDBLK
  5
AF45
  8
0
 62
     7
  0
BLOCK
  8
0
 62
     7
  2
*U623
 70
     1
 10
0.0
 20
0.0
 30
0.0
  3
*U623
  1

  0
TEXT
  5
AF47
  8
0
  6
CONTINUOUS
 62
     0
 10
74.666665666666674
 20
32.24929478522651
 30
0.0
 40
2.5
  1
3
  0
ENDBLK
  5
AF49
  8
0
 62
     7
  0
BLOCK
  8
0
 62
     7
  2
*U624
 70
     1
 10
0.0
 20
0.0
 30
0.0
  3
*U624
  1

  0
TEXT
  5
AF4B
  8
0
  6
CONTINUOUS
 62
     0
 10
82.833331333333334
 20
32.24929478522651
 30
0.0
 40
2.5
  1
15
  0
ENDBLK
  5
AF4D
  8
0
 62
     7
  0
BLOCK
  8
0
 62
     7
  2
*U625
 70
     1
 10
0.0
 20
0.0
 30
0.0
  3
*U625
  1

  0
TEXT
  5
AF4F
  8
0
  6
CONTINUOUS
 62
     0
 10
69.166666666666671
 20
32.24929478522651
 30
0.0
 40
2.5
  1
8
  0
ENDBLK
  5
AF51
  8
0
 62
     7
  0
BLOCK
  8
0
 62
     7
  2
*U626
 70
     1
 10
0.0
 20
0.0
 30
0.0
  3
*U626
  1

  0
TEXT
  5
AF53
  8
0
  6
CONTINUOUS
 62
     0
 10
61.166666666666671
 20
32.24929478522651
 30
0.0
 40
2.5
  1
8
  0
ENDBLK
  5
AF55
  8
0
 62
     7
  0
BLOCK
  8
0
 62
     7
  2
*U627
 70
     1
 10
0.0
 20
0.0
 30
0.0
  3
*U627
  1

  0
TEXT
  5
AF57
  8
0
  6
CONTINUOUS
 62
     0
 10
53.166666666666657
 20
32.24929478522651
 30
0.0
 40
2.5
  1
8
  0
ENDBLK
  5
AF59
  8
0
 62
     7
  0
BLOCK
  8
0
 62
     7
  2
*U628
 70
     1
 10
0.0
 20
0.0
 30
0.0
  3
*U628
  1

  0
TEXT
  5
AF5B
  8
0
  6
CONTINUOUS
 62
     0
 10
39.242155916671877
 20
49.166666666666671
 30
0.0
 40
2.5
  1
6
 50
90.0
  0
ENDBLK
  5
AF5D
  8
0
 62
     7
  0
BLOCK
  8
0
 62
     7
  2
*U629
 70
     1
 10
0.0
 20
0.0
 30
0.0
  3
*U629
  1

  0
TEXT
  5
AF5F
  8
0
  6
CONTINUOUS
 62
     0
 10
63.758781798597717
 20
49.166666666666657
 30
0.0
 40
2.5
  1
4
 50
90.0
  0
ENDBLK
  5
AF61
  8
0
 62
     7
  0
BLOCK
  8
0
 62
     7
  2
*U630
 70
     1
 10
0.0
 20
0.0
 30
0.0
  3
*U630
  1

  0
TEXT
  5
AF63
  8
0
  6
CONTINUOUS
 62
     0
 10
83.055345631986569
 20
47.29166669377873
 30
0.0
 40
2.5
  1
30Åã
 50
90.0
  0
ENDBLK
  5
AF65
  8
0
 62
     7
  0
BLOCK
  8
0
 62
     7
  2
*U631
 70
     1
 10
0.0
 20
0.0
 30
0.0
  3
*U631
  1

  0
TEXT
  5
AF67
  8
0
  6
CONTINUOUS
 62
     0
 10
131.88667821891849
 20
34.38620486121593
 30
0.0
 40
2.5
  1
8
  0
ENDBLK
  5
AF69
  8
0
 62
     7
  0
BLOCK
  8
0
 62
     7
  2
*U632
 70
     1
 10
0.0
 20
0.0
 30
0.0
  3
*U632
  1

  0
TEXT
  5
AF6B
  8
0
  6
CONTINUOUS
 62
     0
 10
144.8614507794907
 20
47.291666666666679
 30
0.0
 40
2.5
  1
4,6
 50
90.0
  0
ENDBLK
  5
AF6D
  8
0
 62
     7
  0
BLOCK
  8
0
 62
     7
  2
*U633
 70
     1
 10
0.0
 20
0.0
 30
0.0
  3
*U633
  1

  0
TEXT
  5
AF6F
  8
0
  6
CONTINUOUS
 62
     0
 10
139.5560505987699
 20
39.744912363669272
 30
0.0
 40
2.5
  1
1
  0
ENDBLK
  5
AF71
  8
0
 62
     7
  0
BLOCK
  8
0
 62
     7
  2
*U634
 70
     1
 10
0.0
 20
0.0
 30
0.0
  3
*U634
  1

  0
TEXT
  5
AF73
  8
0
  6
CONTINUOUS
 62
     0
 10
129.51167821891889
 20
60.408983190988089
 30
0.0
 40
2.5
  1
60Åã
  0
ENDBLK
  5
AF75
  8
0
 62
     7
  0
BLOCK
  8
0
 62
     7
  2
*U635
 70
     1
 10
0.0
 20
0.0
 30
0.0
  3
*U635
  1

  0
TEXT
  5
AF77
  8
0
  6
CONTINUOUS
 62
     0
 10
92.666664666666676
 20
32.24929478522651
 30
0.0
 40
2.5
  1
3
  0
ENDBLK
  5
AF79
  8
0
 62
     7
  0
BLOCK
  8
0
 62
     7
  2
*U636
 70
     1
 10
0.0
 20
0.0
 30
0.0
  3
*U636
  1

  0
TEXT
  5
AF7B
  8
0
  6
CONTINUOUS
 62
     0
 10
74.666665666666674
 20
32.24929478522651
 30
0.0
 40
2.5
  1
3
  0
ENDBLK
  5
AF7D
  8
0
 62
     7
  0
BLOCK
  8
0
 62
     7
  2
*U637
 70
     1
 10
0.0
 20
0.0
 30
0.0
  3
*U637
  1

  0
TEXT
  5
AF7F
  8
0
  6
CONTINUOUS
 62
     0
 10
82.833331333333334
 20
32.24929478522651
 30
0.0
 40
2.5
  1
15
  0
ENDBLK
  5
AF81
  8
0
 62
     7
  0
BLOCK
  8
0
 62
     7
  2
*U638
 70
     1
 10
0.0
 20
0.0
 30
0.0
  3
*U638
  1

  0
TEXT
  5
AF83
  8
0
  6
CONTINUOUS
 62
     0
 10
69.166666666666671
 20
32.24929478522651
 30
0.0
 40
2.5
  1
8
  0
ENDBLK
  5
AF85
  8
0
 62
     7
  0
BLOCK
  8
0
 62
     7
  2
*U639
 70
     1
 10
0.0
 20
0.0
 30
0.0
  3
*U639
  1

  0
TEXT
  5
AF87
  8
0
  6
CONTINUOUS
 62
     0
 10
61.166666666666671
 20
32.24929478522651
 30
0.0
 40
2.5
  1
8
  0
ENDBLK
  5
AF89
  8
0
 62
     7
  0
BLOCK
  8
0
 62
     7
  2
*U640
 70
     1
 10
0.0
 20
0.0
 30
0.0
  3
*U640
  1

  0
TEXT
  5
AF8B
  8
0
  6
CONTINUOUS
 62
     0
 10
53.166666666666657
 20
32.24929478522651
 30
0.0
 40
2.5
  1
8
  0
ENDBLK
  5
AF8D
  8
0
 62
     7
  0
BLOCK
  8
0
 62
     7
  2
*U641
 70
     1
 10
0.0
 20
0.0
 30
0.0
  3
*U641
  1

  0
TEXT
  5
AF8F
  8
0
  6
CONTINUOUS
 62
     0
 10
44.299208250465419
 20
49.166666666666671
 30
0.0
 40
2.5
  1
8
 50
90.0
  0
ENDBLK
  5
AF91
  8
0
 62
     7
  0
BLOCK
  8
0
 62
     7
  2
*U642
 70
     1
 10
0.0
 20
0.0
 30
0.0
  3
*U642
  1

  0
TEXT
  5
AF93
  8
0
  6
CONTINUOUS
 62
     0
 10
62.014208904534129
 20
49.166666666666671
 30
0.0
 40
2.5
  1
5
 50
90.0
  0
ENDBLK
  5
AF95
  8
0
 62
     7
  0
BLOCK
  8
0
 62
     7
  2
*U643
 70
     1
 10
0.0
 20
0.0
 30
0.0
  3
*U643
  1

  0
TEXT
  5
AF97
  8
0
  6
CONTINUOUS
 62
     0
 10
81.718944961439817
 20
47.291666731710443
 30
0.0
 40
2.5
  1
30Åã
 50
90.0
  0
ENDBLK
  5
AF99
  8
0
 62
     7
  0
BLOCK
  8
0
 62
     7
  2
*U644
 70
     1
 10
0.0
 20
0.0
 30
0.0
  3
*U644
  1

  0
TEXT
  5
AF9B
  8
0
  6
CONTINUOUS
 62
     0
 10
140.80110785845059
 20
34.386204861215909
 30
0.0
 40
2.5
  1
10
  0
ENDBLK
  5
AF9D
  8
0
 62
     7
  0
BLOCK
  8
0
 62
     7
  2
*U645
 70
     1
 10
0.0
 20
0.0
 30
0.0
  3
*U645
  1

  0
TEXT
  5
AF9F
  8
0
  6
CONTINUOUS
 62
     0
 10
154.400880419023
 20
47.291666666666657
 30
0.0
 40
2.5
  1
7,8
 50
90.0
  0
ENDBLK
  5
AFA1
  8
0
 62
     7
  0
BLOCK
  8
0
 62
     7
  2
*U646
 70
     1
 10
0.0
 20
0.0
 30
0.0
  3
*U646
  1

  0
TEXT
  5
AFA3
  8
0
  6
CONTINUOUS
 62
     0
 10
140.92610785845059
 20
39.744912363669251
 30
0.0
 40
2.5
  1
2
  0
ENDBLK
  5
AFA5
  8
0
 62
     7
  0
BLOCK
  8
0
 62
     7
  2
*U647
 70
     1
 10
0.0
 20
0.0
 30
0.0
  3
*U647
  1

  0
TEXT
  5
AFA7
  8
0
  6
CONTINUOUS
 62
     0
 10
139.05110785845059
 20
60.424330473854909
 30
0.0
 40
2.5
  1
60Åã
  0
ENDBLK
  5
AFA9
  8
0
 62
     7
  0
BLOCK
  8
0
 62
     7
  2
*U648
 70
     1
 10
0.0
 20
0.0
 30
0.0
  3
*U648
  1

  0
TEXT
  5
AFAB
  8
0
  6
CONTINUOUS
 62
     0
 10
92.666664666666605
 20
32.24929478522651
 30
0.0
 40
2.5
  1
3
  0
ENDBLK
  5
AFAD
  8
0
 62
     7
  0
BLOCK
  8
0
 62
     7
  2
*U649
 70
     1
 10
0.0
 20
0.0
 30
0.0
  3
*U649
  1

  0
TEXT
  5
AFAF
  8
0
  6
CONTINUOUS
 62
     0
 10
76.666665666666674
 20
32.24929478522651
 30
0.0
 40
2.5
  1
3
  0
ENDBLK
  5
AFB1
  8
0
 62
     7
  0
BLOCK
  8
0
 62
     7
  2
*U650
 70
     1
 10
0.0
 20
0.0
 30
0.0
  3
*U650
  1

  0
TEXT
  5
AFB3
  8
0
  6
CONTINUOUS
 62
     0
 10
84.833331333333334
 20
32.24929478522651
 30
0.0
 40
2.5
  1
15
  0
ENDBLK
  5
AFB5
  8
0
 62
     7
  0
BLOCK
  8
0
 62
     7
  2
*U651
 70
     1
 10
0.0
 20
0.0
 30
0.0
  3
*U651
  1

  0
TEXT
  5
AFB7
  8
0
  6
CONTINUOUS
 62
     0
 10
43.340924158416549
 20
48.541666666666707
 30
0.0
 40
2.5
  1
10
 50
90.0
  0
ENDBLK
  5
AFB9
  8
0
 62
     7
  0
BLOCK
  8
0
 62
     7
  2
*U652
 70
     1
 10
0.0
 20
0.0
 30
0.0
  3
*U652
  1

  0
TEXT
  5
AFBB
  8
0
  6
CONTINUOUS
 62
     0
 10
53.166666666666657
 20
32.917328629283261
 30
0.0
 40
2.5
  1
8
  0
ENDBLK
  5
AFBD
  8
0
 62
     7
  0
BLOCK
  8
0
 62
     7
  2
*U653
 70
     1
 10
0.0
 20
0.0
 30
0.0
  3
*U653
  1

  0
TEXT
  5
AFBF
  8
0
  6
CONTINUOUS
 62
     0
 10
61.166666666666671
 20
32.917328629283261
 30
0.0
 40
2.5
  1
8
  0
ENDBLK
  5
AFC1
  8
0
 62
     7
  0
BLOCK
  8
0
 62
     7
  2
*U654
 70
     1
 10
0.0
 20
0.0
 30
0.0
  3
*U654
  1

  0
TEXT
  5
AFC3
  8
0
  6
CONTINUOUS
 62
     0
 10
69.541666666666671
 20
32.917328629283261
 30
0.0
 40
2.5
  1
10
  0
ENDBLK
  5
AFC5
  8
0
 62
     7
  0
BLOCK
  8
0
 62
     7
  2
*U655
 70
     1
 10
0.0
 20
0.0
 30
0.0
  3
*U655
  1

  0
TEXT
  5
AFC7
  8
0
  6
CONTINUOUS
 62
     0
 10
84.090992283522297
 20
47.29166672824698
 30
0.0
 40
2.5
  1
30Åã
 50
90.0
  0
ENDBLK
  5
AFC9
  8
0
 62
     7
  0
BLOCK
  8
0
 62
     7
  2
*U656
 70
     1
 10
0.0
 20
0.0
 30
0.0
  3
*U656
  1

  0
TEXT
  5
AFCB
  8
0
  6
CONTINUOUS
 62
     0
 10
147.8929736801081
 20
34.386204861215909
 30
0.0
 40
2.5
  1
12
  0
ENDBLK
  5
AFCD
  8
0
 62
     7
  0
BLOCK
  8
0
 62
     7
  2
*U657
 70
     1
 10
0.0
 20
0.0
 30
0.0
  3
*U657
  1

  0
TEXT
  5
AFCF
  8
0
  6
CONTINUOUS
 62
     0
 10
161.7010795740137
 20
47.291666666666657
 30
0.0
 40
2.5
  1
9,8
 50
90.0
  0
ENDBLK
  5
AFD1
  8
0
 62
     7
  0
BLOCK
  8
0
 62
     7
  2
*U658
 70
     1
 10
0.0
 20
0.0
 30
0.0
  3
*U658
  1

  0
TEXT
  5
AFD3
  8
0
  6
CONTINUOUS
 62
     0
 10
148.2263070134415
 20
39.744912363669251
 30
0.0
 40
2.5
  1
3
  0
ENDBLK
  5
AFD5
  8
0
 62
     7
  0
BLOCK
  8
0
 62
     7
  2
*U659
 70
     1
 10
0.0
 20
0.0
 30
0.0
  3
*U659
  1

  0
TEXT
  5
AFD7
  8
0
  6
CONTINUOUS
 62
     0
 10
146.35130701344119
 20
60.42733691831107
 30
0.0
 40
2.5
  1
60Åã
  0
ENDBLK
  5
AFD9
  8
0
 62
     7
  0
BLOCK
  8
0
 62
     7
  2
*U660
 70
     1
 10
0.0
 20
0.0
 30
0.0
  3
*U660
  1

  0
TEXT
  5
AFDB
  8
0
  6
CONTINUOUS
 62
     0
 10
94.666664666666733
 20
32.24929478522651
 30
0.0
 40
2.5
  1
3
  0
ENDBLK
  5
AFDD
  8
0
 62
     7
  0
BLOCK
  8
0
 62
     7
  2
*U661
 70
     1
 10
0.0
 20
0.0
 30
0.0
  3
*U661
  1

  0
TEXT
  5
AFDF
  8
0
  6
CONTINUOUS
 62
     0
 10
71.666665666666674
 20
32.456027968973331
 30
0.0
 40
2.5
  1
3
  0
ENDBLK
  5
AFE1
  8
0
 62
     7
  0
BLOCK
  8
0
 62
     7
  2
*U662
 70
     1
 10
0.0
 20
0.0
 30
0.0
  3
*U662
  1

  0
TEXT
  5
AFE3
  8
0
  6
CONTINUOUS
 62
     0
 10
79.833331333333277
 20
32.456027968973331
 30
0.0
 40
2.5
  1
15
  0
ENDBLK
  5
AFE5
  8
0
 62
     7
  0
BLOCK
  8
0
 62
     7
  2
*U663
 70
     1
 10
0.0
 20
0.0
 30
0.0
  3
*U663
  1

  0
TEXT
  5
AFE7
  8
0
  6
CONTINUOUS
 62
     0
 10
79.090992283522283
 20
47.291666728247023
 30
0.0
 40
2.5
  1
30Åã
 50
90.0
  0
ENDBLK
  5
AFE9
  8
0
 62
     7
  0
BLOCK
  8
0
 62
     7
  2
*U664
 70
     1
 10
0.0
 20
0.0
 30
0.0
  3
*U664
  1

  0
TEXT
  5
AFEB
  8
0
  6
CONTINUOUS
 62
     0
 10
67.666666666666714
 20
32.456027968973331
 30
0.0
 40
2.5
  1
5
  0
ENDBLK
  5
AFED
  8
0
 62
     7
  0
BLOCK
  8
0
 62
     7
  2
*U665
 70
     1
 10
0.0
 20
0.0
 30
0.0
  3
*U665
  1

  0
TEXT
  5
AFEF
  8
0
  6
CONTINUOUS
 62
     0
 10
61.166666666666721
 20
32.456027968973331
 30
0.0
 40
2.5
  1
8
  0
ENDBLK
  5
AFF1
  8
0
 62
     7
  0
BLOCK
  8
0
 62
     7
  2
*U666
 70
     1
 10
0.0
 20
0.0
 30
0.0
  3
*U666
  1

  0
TEXT
  5
AFF3
  8
0
  6
CONTINUOUS
 62
     0
 10
53.166666666666657
 20
32.456027968973331
 30
0.0
 40
2.5
  1
8
  0
ENDBLK
  5
AFF5
  8
0
 62
     7
  0
BLOCK
  8
0
 62
     7
  2
*U667
 70
     1
 10
0.0
 20
0.0
 30
0.0
  3
*U667
  1

  0
TEXT
  5
AFF7
  8
0
  6
CONTINUOUS
 62
     0
 10
43.993604847736819
 20
48.541666666666671
 30
0.0
 40
2.5
  1
10
 50
90.0
  0
ENDBLK
  5
AFF9
  8
0
 62
     7
  0
BLOCK
  8
0
 62
     7
  2
*U668
 70
     1
 10
0.0
 20
0.0
 30
0.0
  3
*U668
  1

  0
TEXT
  5
AFFB
  8
0
  6
CONTINUOUS
 62
     0
 10
153.8929736801081
 20
34.386204861215923
 30
0.0
 40
2.5
  1
12
  0
ENDBLK
  5
AFFD
  8
0
 62
     7
  0
BLOCK
  8
0
 62
     7
  2
*U669
 70
     1
 10
0.0
 20
0.0
 30
0.0
  3
*U669
  1

  0
TEXT
  5
AFFF
  8
0
  6
CONTINUOUS
 62
     0
 10
167.7010795740137
 20
47.291666666666671
 30
0.0
 40
2.5
  1
9,8
 50
90.0
  0
ENDBLK
  5
B001
  8
0
 62
     7
  0
BLOCK
  8
0
 62
     7
  2
*U670
 70
     1
 10
0.0
 20
0.0
 30
0.0
  3
*U670
  1

  0
TEXT
  5
B003
  8
0
  6
CONTINUOUS
 62
     0
 10
154.22630701344141
 20
39.744912363669258
 30
0.0
 40
2.5
  1
3
  0
ENDBLK
  5
B005
  8
0
 62
     7
  0
BLOCK
  8
0
 62
     7
  2
*U671
 70
     1
 10
0.0
 20
0.0
 30
0.0
  3
*U671
  1

  0
TEXT
  5
B007
  8
0
  6
CONTINUOUS
 62
     0
 10
152.35130701344119
 20
60.427336918311092
 30
0.0
 40
2.5
  1
60Åã
  0
ENDBLK
  5
B009
  8
0
 62
     7
  0
BLOCK
  8
0
 62
     7
  2
*U672
 70
     1
 10
0.0
 20
0.0
 30
0.0
  3
*U672
  1

  0
TEXT
  5
B00B
  8
0
  6
CONTINUOUS
 62
     0
 10
89.666664666666392
 20
32.456027968973331
 30
0.0
 40
2.5
  1
3
  0
ENDBLK
  5
B00D
  8
0
 62
     7
  0
BLOCK
  8
0
 62
     7
  2
*U673
 70
     1
 10
0.0
 20
0.0
 30
0.0
  3
*U673
  1

  0
TEXT
  5
B00F
  8
0
  6
CONTINUOUS
 62
     0
 10
82.666665666666674
 20
32.456027968973387
 30
0.0
 40
2.5
  1
3
  0
ENDBLK
  5
B011
  8
0
 62
     7
  0
BLOCK
  8
0
 62
     7
  2
*U674
 70
     1
 10
0.0
 20
0.0
 30
0.0
  3
*U674
  1

  0
TEXT
  5
B013
  8
0
  6
CONTINUOUS
 62
     0
 10
90.833331333333334
 20
32.456027968973387
 30
0.0
 40
2.5
  1
15
  0
ENDBLK
  5
B015
  8
0
 62
     7
  0
BLOCK
  8
0
 62
     7
  2
*U675
 70
     1
 10
0.0
 20
0.0
 30
0.0
  3
*U675
  1

  0
TEXT
  5
B017
  8
0
  6
CONTINUOUS
 62
     0
 10
74.333333333333329
 20
32.456027968973387
 30
0.0
 40
2.5
  1
12
  0
ENDBLK
  5
B019
  8
0
 62
     7
  0
BLOCK
  8
0
 62
     7
  2
*U676
 70
     1
 10
0.0
 20
0.0
 30
0.0
  3
*U676
  1

  0
TEXT
  5
B01B
  8
0
  6
CONTINUOUS
 62
     0
 10
63.541666666666657
 20
32.456027968973387
 30
0.0
 40
2.5
  1
10
  0
ENDBLK
  5
B01D
  8
0
 62
     7
  0
BLOCK
  8
0
 62
     7
  2
*U677
 70
     1
 10
0.0
 20
0.0
 30
0.0
  3
*U677
  1

  0
TEXT
  5
B01F
  8
0
  6
CONTINUOUS
 62
     0
 10
53.541666666666657
 20
32.456027968973387
 30
0.0
 40
2.5
  1
10
  0
ENDBLK
  5
B021
  8
0
 62
     7
  0
BLOCK
  8
0
 62
     7
  2
*U678
 70
     1
 10
0.0
 20
0.0
 30
0.0
  3
*U678
  1

  0
TEXT
  5
B023
  8
0
  6
CONTINUOUS
 62
     0
 10
93.823043091090014
 20
47.291666695846622
 30
0.0
 40
2.5
  1
30Åã
 50
90.0
  0
ENDBLK
  5
B025
  8
0
 62
     7
  0
BLOCK
  8
0
 62
     7
  2
*U679
 70
     1
 10
0.0
 20
0.0
 30
0.0
  3
*U679
  1

  0
TEXT
  5
B027
  8
0
  6
CONTINUOUS
 62
     0
 10
40.946654437664598
 20
48.333333333333407
 30
0.0
 40
2.5
  1
12
 50
90.0
  0
ENDBLK
  5
B029
  8
0
 62
     7
  0
BLOCK
  8
0
 62
     7
  2
*U680
 70
     1
 10
0.0
 20
0.0
 30
0.0
  3
*U680
  1

  0
TEXT
  5
B02B
  8
0
  6
CONTINUOUS
 62
     0
 10
154.76132118252059
 20
34.386204861215901
 30
0.0
 40
2.5
  1
14
  0
ENDBLK
  5
B02D
  8
0
 62
     7
  0
BLOCK
  8
0
 62
     7
  2
*U681
 70
     1
 10
0.0
 20
0.0
 30
0.0
  3
*U681
  1

  0
TEXT
  5
B02F
  8
0
  6
CONTINUOUS
 62
     0
 10
168.56942707642639
 20
46.875000000000007
 30
0.0
 40
2.5
  1
11,8
 50
90.0
  0
ENDBLK
  5
B031
  8
0
 62
     7
  0
BLOCK
  8
0
 62
     7
  2
*U682
 70
     1
 10
0.0
 20
0.0
 30
0.0
  3
*U682
  1

  0
TEXT
  5
B033
  8
0
  6
CONTINUOUS
 62
     0
 10
155.0946545158539
 20
39.744912363669251
 30
0.0
 40
2.5
  1
4
  0
ENDBLK
  5
B035
  8
0
 62
     7
  0
BLOCK
  8
0
 62
     7
  2
*U683
 70
     1
 10
0.0
 20
0.0
 30
0.0
  3
*U683
  1

  0
TEXT
  5
B037
  8
0
  6
CONTINUOUS
 62
     0
 10
153.2196545158539
 20
60.380870397343351
 30
0.0
 40
2.5
  1
60Åã
  0
ENDBLK
  5
B039
  8
0
 62
     7
  0
BLOCK
  8
0
 62
     7
  2
*U684
 70
     1
 10
0.0
 20
0.0
 30
0.0
  3
*U684
  1

  0
TEXT
  5
B03B
  8
0
  6
CONTINUOUS
 62
     0
 10
100.66666466666661
 20
32.456027968973387
 30
0.0
 40
2.5
  1
3
  0
ENDBLK
  5
B03D
  8
0
 62
     7
  0
BLOCK
  8
0
 62
     7
  2
*U685
 70
     1
 10
0.0
 20
0.0
 30
0.0
  3
*U685
  1

  0
TEXT
  5
B03F
  8
0
  6
CONTINUOUS
 62
     0
 10
82.666665666666674
 20
32.456027968973331
 30
0.0
 40
2.5
  1
3
  0
ENDBLK
  5
B041
  8
0
 62
     7
  0
BLOCK
  8
0
 62
     7
  2
*U686
 70
     1
 10
0.0
 20
0.0
 30
0.0
  3
*U686
  1

  0
TEXT
  5
B043
  8
0
  6
CONTINUOUS
 62
     0
 10
90.833331333333334
 20
32.456027968973331
 30
0.0
 40
2.5
  1
15
  0
ENDBLK
  5
B045
  8
0
 62
     7
  0
BLOCK
  8
0
 62
     7
  2
*U687
 70
     1
 10
0.0
 20
0.0
 30
0.0
  3
*U687
  1

  0
TEXT
  5
B047
  8
0
  6
CONTINUOUS
 62
     0
 10
93.823043091090895
 20
47.291666695846587
 30
0.0
 40
2.5
  1
30Åã
 50
90.0
  0
ENDBLK
  5
B049
  8
0
 62
     7
  0
BLOCK
  8
0
 62
     7
  2
*U688
 70
     1
 10
0.0
 20
0.0
 30
0.0
  3
*U688
  1

  0
TEXT
  5
B04B
  8
0
  6
CONTINUOUS
 62
     0
 10
74.333333333333329
 20
32.456027968973331
 30
0.0
 40
2.5
  1
12
  0
ENDBLK
  5
B04D
  8
0
 62
     7
  0
BLOCK
  8
0
 62
     7
  2
*U689
 70
     1
 10
0.0
 20
0.0
 30
0.0
  3
*U689
  1

  0
TEXT
  5
B04F
  8
0
  6
CONTINUOUS
 62
     0
 10
63.541666666666657
 20
32.456027968973331
 30
0.0
 40
2.5
  1
10
  0
ENDBLK
  5
B051
  8
0
 62
     7
  0
BLOCK
  8
0
 62
     7
  2
*U690
 70
     1
 10
0.0
 20
0.0
 30
0.0
  3
*U690
  1

  0
TEXT
  5
B053
  8
0
  6
CONTINUOUS
 62
     0
 10
53.541666666666657
 20
32.456027968973331
 30
0.0
 40
2.5
  1
10
  0
ENDBLK
  5
B055
  8
0
 62
     7
  0
BLOCK
  8
0
 62
     7
  2
*U691
 70
     1
 10
0.0
 20
0.0
 30
0.0
  3
*U691
  1

  0
TEXT
  5
B057
  8
0
  6
CONTINUOUS
 62
     0
 10
41.690008694602717
 20
48.33333333333335
 30
0.0
 40
2.5
  1
16
 50
90.0
  0
ENDBLK
  5
B059
  8
0
 62
     7
  0
BLOCK
  8
0
 62
     7
  2
*U692
 70
     1
 10
0.0
 20
0.0
 30
0.0
  3
*U692
  1

  0
TEXT
  5
B05B
  8
0
  6
CONTINUOUS
 62
     0
 10
162.76132118252059
 20
31.926455111175361
 30
0.0
 40
2.5
  1
18
  0
ENDBLK
  5
B05D
  8
0
 62
     7
  0
BLOCK
  8
0
 62
     7
  2
*U693
 70
     1
 10
0.0
 20
0.0
 30
0.0
  3
*U693
  1

  0
TEXT
  5
B05F
  8
0
  6
CONTINUOUS
 62
     0
 10
176.56942707642639
 20
46.458333333333329
 30
0.0
 40
2.5
  1
14,8
 50
90.0
  0
ENDBLK
  5
B061
  8
0
 62
     7
  0
BLOCK
  8
0
 62
     7
  2
*U694
 70
     1
 10
0.0
 20
0.0
 30
0.0
  3
*U694
  1

  0
TEXT
  5
B063
  8
0
  6
CONTINUOUS
 62
     0
 10
163.0946545158539
 20
36.213252317015247
 30
0.0
 40
2.5
  1
5
  0
ENDBLK
  5
B065
  8
0
 62
     7
  0
BLOCK
  8
0
 62
     7
  2
*U695
 70
     1
 10
0.0
 20
0.0
 30
0.0
  3
*U695
  1

  0
TEXT
  5
B067
  8
0
  6
CONTINUOUS
 62
     0
 10
161.2196545158539
 20
62.876696422559732
 30
0.0
 40
2.5
  1
60Åã
  0
ENDBLK
  5
B069
  8
0
 62
     7
  0
BLOCK
  8
0
 62
     7
  2
*U696
 70
     1
 10
0.0
 20
0.0
 30
0.0
  3
*U696
  1

  0
TEXT
  5
B06B
  8
0
  6
CONTINUOUS
 62
     0
 10
100.66666466666661
 20
32.456027968973331
 30
0.0
 40
2.5
  1
3
  0
ENDBLK
  5
B06D
  8
0
 62
     7
  0
BLOCK
  8
0
 62
     7
  2
*U697
 70
     1
 10
0.0
 20
0.0
 30
0.0
  3
*U697
  1

  0
TEXT
  5
B06F
  8
0
  6
CONTINUOUS
 62
     0
 10
795.0389521037788
 20
23.663920726775888
 30
0.0
 40
2.5
  1
8,8
  0
ENDBLK
  5
B071
  8
0
 62
     7
  0
BLOCK
  8
0
 62
     7
  2
*U698
 70
     1
 10
0.0
 20
0.0
 30
0.0
  3
*U698
  1

  0
TEXT
  5
B073
  8
0
  6
CONTINUOUS
 62
     0
 10
805.72036164846543
 20
-60.463247085604443
 30
0.0
 40
2.5
  1
11,8
  0
ENDBLK
  5
B075
  8
0
 62
     7
  0
BLOCK
  8
0
 62
     7
  2
*U699
 70
     1
 10
0.0
 20
0.0
 30
0.0
  3
*U699
  1

  0
TEXT
  5
B077
  8
0
  6
CONTINUOUS
 62
     0
 10
820.03574578936775
 20
-144.59041489798469
 30
0.0
 40
2.5
  1
13,8
  0
ENDBLK
  5
B079
  8
0
 62
     7
  0
BLOCK
  8
0
 62
     7
  2
*U700
 70
     1
 10
0.0
 20
0.0
 30
0.0
  3
*U700
  1

  0
TEXT
  5
B07B
  8
0
  6
CONTINUOUS
 62
     0
 10
814.30833917905522
 20
-228.71758271036501
 30
0.0
 40
2.5
  1
13,8
  0
ENDBLK
  5
B07D
  8
0
 62
     7
  0
BLOCK
  8
0
 62
     7
  2
*U701
 70
     1
 10
0.0
 20
0.0
 30
0.0
  3
*U701
  1

  0
TEXT
  5
B07F
  8
0
  6
CONTINUOUS
 62
     0
 10
818.04038998662395
 20
-312.84475052274553
 30
0.0
 40
2.5
  1
15,8
  0
ENDBLK
  5
B081
  8
0
 62
     7
  0
BLOCK
  8
0
 62
     7
  2
*U702
 70
     1
 10
0.0
 20
0.0
 30
0.0
  3
*U702
  1

  0
TEXT
  5
B083
  8
0
  6
CONTINUOUS
 62
     0
 10
832.79848036705675
 20
-400.68166808516622
 30
0.0
 40
2.5
  1
20,8
  0
ENDBLK
  5
B085
  8
0
 62
     7
  0
BLOCK
  8
0
 62
     7
  2
*U703
 70
     1
 10
0.0
 20
0.0
 30
0.0
  3
*U703
  1

  0
TEXT
  5
B087
  8
0
  6
CONTINUOUS
 62
     0
 10
846.05424864886106
 20
-491.12531593929617
 30
0.0
 40
2.5
  1
24,8
  0
ENDBLK
  5
B089
  8
0
 62
     7
  0
BLOCK
  8
0
 62
     7
  2
*U704
 70
     1
 10
0.0
 20
0.0
 30
0.0
  3
*U704
  1

  0
TEXT
  5
B08B
  8
0
  6
CONTINUOUS
 62
     0
 10
878.00543424762168
 20
-469.86029100872179
 30
0.0
 40
2.5
  1
25,8
 50
90.0
  0
ENDBLK
  5
B08D
  8
0
 62
     7
  0
BLOCK
  8
0
 62
     7
  2
*U705
 70
     1
 10
0.0
 20
0.0
 30
0.0
  3
*U705
  1

  0
TEXT
  5
B08F
  8
0
  6
CONTINUOUS
 62
     0
 10
860.95155726005066
 20
-385.31645652967489
 30
0.0
 40
2.5
  1
21,8
 50
90.0
  0
ENDBLK
  5
B091
  8
0
 62
     7
  0
BLOCK
  8
0
 62
     7
  2
*U706
 70
     1
 10
0.0
 20
0.0
 30
0.0
  3
*U706
  1

  0
TEXT
  5
B093
  8
0
  6
CONTINUOUS
 62
     0
 10
836.27918512540805
 20
-301.18928871729457
 30
0.0
 40
2.5
  1
16,8
 50
90.0
  0
ENDBLK
  5
B095
  8
0
 62
     7
  0
BLOCK
  8
0
 62
     7
  2
*U707
 70
     1
 10
0.0
 20
0.0
 30
0.0
  3
*U707
  1

  0
TEXT
  5
B097
  8
0
  6
CONTINUOUS
 62
     0
 10
832.54713431783921
 20
-217.0621209049142
 30
0.0
 40
2.5
  1
14,8
 50
90.0
  0
ENDBLK
  5
B099
  8
0
 62
     7
  0
BLOCK
  8
0
 62
     7
  2
*U708
 70
     1
 10
0.0
 20
0.0
 30
0.0
  3
*U708
  1

  0
TEXT
  5
B09B
  8
0
  6
CONTINUOUS
 62
     0
 10
838.27454092815174
 20
-132.9349530925339
 30
0.0
 40
2.5
  1
14,8
 50
90.0
  0
ENDBLK
  5
B09D
  8
0
 62
     7
  0
BLOCK
  8
0
 62
     7
  2
*U709
 70
     1
 10
0.0
 20
0.0
 30
0.0
  3
*U709
  1

  0
TEXT
  5
B09F
  8
0
  6
CONTINUOUS
 62
     0
 10
823.54249012058278
 20
-48.807785280153567
 30
0.0
 40
2.5
  1
12,8
 50
90.0
  0
ENDBLK
  5
B0A1
  8
0
 62
     7
  0
BLOCK
  8
0
 62
     7
  2
*U710
 70
     1
 10
0.0
 20
0.0
 30
0.0
  3
*U710
  1

  0
TEXT
  5
B0A3
  8
0
  6
CONTINUOUS
 62
     0
 10
812.44441390922952
 20
36.15271586556009
 30
0.0
 40
2.5
  1
9,8
 50
90.0
  0
ENDBLK
  5
B0A5
  8
0
 62
     7
  0
BLOCK
  8
0
 62
     7
  2
*U711
 70
     1
 10
0.0
 20
0.0
 30
0.0
  3
*U711
  1

  0
TEXT
  5
B0A7
  8
0
  6
CONTINUOUS
 62
     0
 10
848.67924864886118
 20
-446.00614143703928
 30
0.0
 40
2.5
  1
9
  0
ENDBLK
  5
B0A9
  8
0
 62
     7
  0
BLOCK
  8
0
 62
     7
  2
*U712
 70
     1
 10
0.0
 20
0.0
 30
0.0
  3
*U712
  1

  0
TEXT
  5
B0AB
  8
0
  6
CONTINUOUS
 62
     0
 10
835.21514703372327
 20
-361.1107746140728
 30
0.0
 40
2.5
  1
8
  0
ENDBLK
  5
B0AD
  8
0
 62
     7
  0
BLOCK
  8
0
 62
     7
  2
*U713
 70
     1
 10
0.0
 20
0.0
 30
0.0
  3
*U713
  1

  0
TEXT
  5
B0AF
  8
0
  6
CONTINUOUS
 62
     0
 10
820.24872331995732
 20
-283.77844547327459
 30
0.0
 40
2.5
  1
6
  0
ENDBLK
  5
B0B1
  8
0
 62
     7
  0
BLOCK
  8
0
 62
     7
  2
*U714
 70
     1
 10
0.0
 20
0.0
 30
0.0
  3
*U714
  1

  0
TEXT
  5
B0B3
  8
0
  6
CONTINUOUS
 62
     0
 10
816.51667251238848
 20
-201.05359796447689
 30
0.0
 40
2.5
  1
5
  0
ENDBLK
  5
B0B5
  8
0
 62
     7
  0
BLOCK
  8
0
 62
     7
  2
*U715
 70
     1
 10
0.0
 20
0.0
 30
0.0
  3
*U715
  1

  0
TEXT
  5
B0B7
  8
0
  6
CONTINUOUS
 62
     0
 10
822.2440791227009
 20
-115.8357271446707
 30
0.0
 40
2.5
  1
4
  0
ENDBLK
  5
B0B9
  8
0
 62
     7
  0
BLOCK
  8
0
 62
     7
  2
*U716
 70
     1
 10
0.0
 20
0.0
 30
0.0
  3
*U716
  1

  0
TEXT
  5
B0BB
  8
0
  6
CONTINUOUS
 62
     0
 10
805.63702831513206
 20
-34.720662584849222
 30
0.0
 40
2.5
  1
3,5
  0
ENDBLK
  5
B0BD
  8
0
 62
     7
  0
BLOCK
  8
0
 62
     7
  2
*U717
 70
     1
 10
0.0
 20
0.0
 30
0.0
  3
*U717
  1

  0
TEXT
  5
B0BF
  8
0
  6
CONTINUOUS
 62
     0
 10
796.4139521037788
 20
47.853550148759922
 30
0.0
 40
2.5
  1
3
  0
ENDBLK
  5
B0C1
  8
0
 62
     7
  0
BLOCK
  8
0
 62
     7
  2
*U718
 70
     1
 10
0.0
 20
0.0
 30
0.0
  3
*U718
  1

  0
TEXT
  5
B0C3
  8
0
  6
CONTINUOUS
 62
     0
 10
846.80424864886106
 20
-439.55565670435158
 30
0.0
 40
2.5
  1
60Åã
  0
ENDBLK
  5
B0C5
  8
0
 62
     7
  0
BLOCK
  8
0
 62
     7
  2
*U719
 70
     1
 10
0.0
 20
0.0
 30
0.0
  3
*U719
  1

  0
TEXT
  5
B0C7
  8
0
  6
CONTINUOUS
 62
     0
 10
833.34014703372316
 20
-352.73331324274
 30
0.0
 40
2.5
  1
60Åã
  0
ENDBLK
  5
B0C9
  8
0
 62
     7
  0
BLOCK
  8
0
 62
     7
  2
*U720
 70
     1
 10
0.0
 20
0.0
 30
0.0
  3
*U720
  1

  0
TEXT
  5
B0CB
  8
0
  6
CONTINUOUS
 62
     0
 10
818.37372331995743
 20
-273.72766466852471
 30
0.0
 40
2.5
  1
60Åã
  0
ENDBLK
  5
B0CD
  8
0
 62
     7
  0
BLOCK
  8
0
 62
     7
  2
*U721
 70
     1
 10
0.0
 20
0.0
 30
0.0
  3
*U721
  1

  0
TEXT
  5
B0CF
  8
0
  6
CONTINUOUS
 62
     0
 10
814.64167251238837
 20
-195.18518998706929
 30
0.0
 40
2.5
  1
60Åã
  0
ENDBLK
  5
B0D1
  8
0
 62
     7
  0
BLOCK
  8
0
 62
     7
  2
*U722
 70
     1
 10
0.0
 20
0.0
 30
0.0
  3
*U722
  1

  0
TEXT
  5
B0D3
  8
0
  6
CONTINUOUS
 62
     0
 10
820.36907912270101
 20
-107.8825875174614
 30
0.0
 40
2.5
  1
60Åã
  0
ENDBLK
  5
B0D5
  8
0
 62
     7
  0
BLOCK
  8
0
 62
     7
  2
*U723
 70
     1
 10
0.0
 20
0.0
 30
0.0
  3
*U723
  1

  0
TEXT
  5
B0D7
  8
0
  6
CONTINUOUS
 62
     0
 10
805.63702831513206
 20
-27.778441502549651
 30
0.0
 40
2.5
  1
60Åã
  0
ENDBLK
  5
B0D9
  8
0
 62
     7
  0
BLOCK
  8
0
 62
     7
  2
*U724
 70
     1
 10
0.0
 20
0.0
 30
0.0
  3
*U724
  1

  0
TEXT
  5
B0DB
  8
0
  6
CONTINUOUS
 62
     0
 10
794.53895210377914
 20
53.270753427571833
 30
0.0
 40
2.5
  1
60Åã
  0
ENDBLK
  5
B0DD
  8
0
 62
     7
  0
BLOCK
  8
0
 62
     7
  2
*U725
 70
     1
 10
0.0
 20
0.0
 30
0.0
  3
*U725
  1

  0
TEXT
  5
B0DF
  8
0
  6
CONTINUOUS
 62
     0
 10
1019.019939635639
 20
21.110343984119819
 30
0.0
 40
2.5
  1
5
  0
ENDBLK
  5
B0E1
  8
0
 62
     7
  0
BLOCK
  8
0
 62
     7
  2
*U726
 70
     1
 10
0.0
 20
0.0
 30
0.0
  3
*U726
  1

  0
TEXT
  5
B0E3
  8
0
  6
CONTINUOUS
 62
     0
 10
1012.519939635639
 20
21.110343984119819
 30
0.0
 40
2.5
  1
8
  0
ENDBLK
  5
B0E5
  8
0
 62
     7
  0
BLOCK
  8
0
 62
     7
  2
*U727
 70
     1
 10
0.0
 20
0.0
 30
0.0
  3
*U727
  1

  0
TEXT
  5
B0E7
  8
0
  6
CONTINUOUS
 62
     0
 10
1004.519939635639
 20
21.110343984119819
 30
0.0
 40
2.5
  1
8
  0
ENDBLK
  5
B0E9
  8
0
 62
     7
  0
BLOCK
  8
0
 62
     7
  2
*U728
 70
     1
 10
0.0
 20
0.0
 30
0.0
  3
*U728
  1

  0
TEXT
  5
B0EB
  8
0
  6
CONTINUOUS
 62
     0
 10
990.5954288856442
 20
38.027715865560133
 30
0.0
 40
2.5
  1
6
 50
90.0
  0
ENDBLK
  5
B0ED
  8
0
 62
     7
  0
BLOCK
  8
0
 62
     7
  2
*U729
 70
     1
 10
0.0
 20
0.0
 30
0.0
  3
*U729
  1

  0
TEXT
  5
B0EF
  8
0
  6
CONTINUOUS
 62
     0
 10
1015.11205476757
 20
38.027715865560118
 30
0.0
 40
2.5
  1
4
 50
90.0
  0
ENDBLK
  5
B0F1
  8
0
 62
     7
  0
BLOCK
  8
0
 62
     7
  2
*U730
 70
     1
 10
0.0
 20
0.0
 30
0.0
  3
*U730
  1

  0
TEXT
  5
B0F3
  8
0
  6
CONTINUOUS
 62
     0
 10
1019.019939635639
 20
-63.016823828260527
 30
0.0
 40
2.5
  1
5
  0
ENDBLK
  5
B0F5
  8
0
 62
     7
  0
BLOCK
  8
0
 62
     7
  2
*U731
 70
     1
 10
0.0
 20
0.0
 30
0.0
  3
*U731
  1

  0
TEXT
  5
B0F7
  8
0
  6
CONTINUOUS
 62
     0
 10
1012.519939635639
 20
-63.016823828260527
 30
0.0
 40
2.5
  1
8
  0
ENDBLK
  5
B0F9
  8
0
 62
     7
  0
BLOCK
  8
0
 62
     7
  2
*U732
 70
     1
 10
0.0
 20
0.0
 30
0.0
  3
*U732
  1

  0
TEXT
  5
B0FB
  8
0
  6
CONTINUOUS
 62
     0
 10
1004.519939635639
 20
-63.016823828260527
 30
0.0
 40
2.5
  1
8
  0
ENDBLK
  5
B0FD
  8
0
 62
     7
  0
BLOCK
  8
0
 62
     7
  2
*U733
 70
     1
 10
0.0
 20
0.0
 30
0.0
  3
*U733
  1

  0
TEXT
  5
B0FF
  8
0
  6
CONTINUOUS
 62
     0
 10
995.65248121943773
 20
-46.099451946820217
 30
0.0
 40
2.5
  1
8
 50
90.0
  0
ENDBLK
  5
B101
  8
0
 62
     7
  0
BLOCK
  8
0
 62
     7
  2
*U734
 70
     1
 10
0.0
 20
0.0
 30
0.0
  3
*U734
  1

  0
TEXT
  5
B103
  8
0
  6
CONTINUOUS
 62
     0
 10
1013.367481873506
 20
-46.09945194682021
 30
0.0
 40
2.5
  1
5
 50
90.0
  0
ENDBLK
  5
B105
  8
0
 62
     7
  0
BLOCK
  8
0
 62
     7
  2
*U735
 70
     1
 10
0.0
 20
0.0
 30
0.0
  3
*U735
  1

  0
TEXT
  5
B107
  8
0
  6
CONTINUOUS
 62
     0
 10
994.69419712738875
 20
-130.8516197592005
 30
0.0
 40
2.5
  1
10
 50
90.0
  0
ENDBLK
  5
B109
  8
0
 62
     7
  0
BLOCK
  8
0
 62
     7
  2
*U736
 70
     1
 10
0.0
 20
0.0
 30
0.0
  3
*U736
  1

  0
TEXT
  5
B10B
  8
0
  6
CONTINUOUS
 62
     0
 10
1004.519939635639
 20
-146.47595779658411
 30
0.0
 40
2.5
  1
8
  0
ENDBLK
  5
B10D
  8
0
 62
     7
  0
BLOCK
  8
0
 62
     7
  2
*U737
 70
     1
 10
0.0
 20
0.0
 30
0.0
  3
*U737
  1

  0
TEXT
  5
B10F
  8
0
  6
CONTINUOUS
 62
     0
 10
1012.519939635639
 20
-146.47595779658411
 30
0.0
 40
2.5
  1
8
  0
ENDBLK
  5
B111
  8
0
 62
     7
  0
BLOCK
  8
0
 62
     7
  2
*U738
 70
     1
 10
0.0
 20
0.0
 30
0.0
  3
*U738
  1

  0
TEXT
  5
B113
  8
0
  6
CONTINUOUS
 62
     0
 10
1020.894939635639
 20
-146.47595779658411
 30
0.0
 40
2.5
  1
10
  0
ENDBLK
  5
B115
  8
0
 62
     7
  0
BLOCK
  8
0
 62
     7
  2
*U739
 70
     1
 10
0.0
 20
0.0
 30
0.0
  3
*U739
  1

  0
TEXT
  5
B117
  8
0
  6
CONTINUOUS
 62
     0
 10
1019.019939635639
 20
-231.06442626927429
 30
0.0
 40
2.5
  1
5
  0
ENDBLK
  5
B119
  8
0
 62
     7
  0
BLOCK
  8
0
 62
     7
  2
*U740
 70
     1
 10
0.0
 20
0.0
 30
0.0
  3
*U740
  1

  0
TEXT
  5
B11B
  8
0
  6
CONTINUOUS
 62
     0
 10
1012.519939635639
 20
-231.06442626927429
 30
0.0
 40
2.5
  1
8
  0
ENDBLK
  5
B11D
  8
0
 62
     7
  0
BLOCK
  8
0
 62
     7
  2
*U741
 70
     1
 10
0.0
 20
0.0
 30
0.0
  3
*U741
  1

  0
TEXT
  5
B11F
  8
0
  6
CONTINUOUS
 62
     0
 10
1004.519939635639
 20
-231.06442626927429
 30
0.0
 40
2.5
  1
8
  0
ENDBLK
  5
B121
  8
0
 62
     7
  0
BLOCK
  8
0
 62
     7
  2
*U742
 70
     1
 10
0.0
 20
0.0
 30
0.0
  3
*U742
  1

  0
TEXT
  5
B123
  8
0
  6
CONTINUOUS
 62
     0
 10
995.34687781670902
 20
-214.97878757158091
 30
0.0
 40
2.5
  1
10
 50
90.0
  0
ENDBLK
  5
B125
  8
0
 62
     7
  0
BLOCK
  8
0
 62
     7
  2
*U743
 70
     1
 10
0.0
 20
0.0
 30
0.0
  3
*U743
  1

  0
TEXT
  5
B127
  8
0
  6
CONTINUOUS
 62
     0
 10
1025.6866063023051
 20
-315.19159408165461
 30
0.0
 40
2.5
  1
12
  0
ENDBLK
  5
B129
  8
0
 62
     7
  0
BLOCK
  8
0
 62
     7
  2
*U744
 70
     1
 10
0.0
 20
0.0
 30
0.0
  3
*U744
  1

  0
TEXT
  5
B12B
  8
0
  6
CONTINUOUS
 62
     0
 10
1014.894939635639
 20
-315.19159408165461
 30
0.0
 40
2.5
  1
10
  0
ENDBLK
  5
B12D
  8
0
 62
     7
  0
BLOCK
  8
0
 62
     7
  2
*U745
 70
     1
 10
0.0
 20
0.0
 30
0.0
  3
*U745
  1

  0
TEXT
  5
B12F
  8
0
  6
CONTINUOUS
 62
     0
 10
1004.894939635639
 20
-315.19159408165461
 30
0.0
 40
2.5
  1
10
  0
ENDBLK
  5
B131
  8
0
 62
     7
  0
BLOCK
  8
0
 62
     7
  2
*U746
 70
     1
 10
0.0
 20
0.0
 30
0.0
  3
*U746
  1

  0
TEXT
  5
B133
  8
0
  6
CONTINUOUS
 62
     0
 10
992.29992740663704
 20
-299.31428871729452
 30
0.0
 40
2.5
  1
12
 50
90.0
  0
ENDBLK
  5
B135
  8
0
 62
     7
  0
BLOCK
  8
0
 62
     7
  2
*U747
 70
     1
 10
0.0
 20
0.0
 30
0.0
  3
*U747
  1

  0
TEXT
  5
B137
  8
0
  6
CONTINUOUS
 62
     0
 10
1025.6866063023051
 20
-399.31876189403499
 30
0.0
 40
2.5
  1
12
  0
ENDBLK
  5
B139
  8
0
 62
     7
  0
BLOCK
  8
0
 62
     7
  2
*U748
 70
     1
 10
0.0
 20
0.0
 30
0.0
  3
*U748
  1

  0
TEXT
  5
B13B
  8
0
  6
CONTINUOUS
 62
     0
 10
1014.894939635639
 20
-399.31876189403499
 30
0.0
 40
2.5
  1
10
  0
ENDBLK
  5
B13D
  8
0
 62
     7
  0
BLOCK
  8
0
 62
     7
  2
*U749
 70
     1
 10
0.0
 20
0.0
 30
0.0
  3
*U749
  1

  0
TEXT
  5
B13F
  8
0
  6
CONTINUOUS
 62
     0
 10
1004.894939635639
 20
-399.31876189403499
 30
0.0
 40
2.5
  1
10
  0
ENDBLK
  5
B141
  8
0
 62
     7
  0
BLOCK
  8
0
 62
     7
  2
*U750
 70
     1
 10
0.0
 20
0.0
 30
0.0
  3
*U750
  1

  0
TEXT
  5
B143
  8
0
  6
CONTINUOUS
 62
     0
 10
993.04328166357516
 20
-383.44145652967478
 30
0.0
 40
2.5
  1
16
 50
90.0
  0
ENDBLK
  5
B145
  8
0
 62
     7
  0
BLOCK
  8
0
 62
     7
  2
*U751
 70
     1
 10
0.0
 20
0.0
 30
0.0
  3
*U751
  1

  0
TEXT
  5
B147
  8
0
  6
CONTINUOUS
 62
     0
 10
1012.277923364827
 20
-130.2266197592005
 30
0.0
 40
2.5
  1
7
 50
90.0
  0
ENDBLK
  5
B149
  8
0
 62
     7
  0
BLOCK
  8
0
 62
     7
  2
*U752
 70
     1
 10
0.0
 20
0.0
 30
0.0
  3
*U752
  1

  0
TEXT
  5
B14B
  8
0
  6
CONTINUOUS
 62
     0
 10
1079.240878677258
 20
23.66392072677591
 30
0.0
 40
2.5
  1
9,8
  0
ENDBLK
  5
B14D
  8
0
 62
     7
  0
BLOCK
  8
0
 62
     7
  2
*U753
 70
     1
 10
0.0
 20
0.0
 30
0.0
  3
*U753
  1

  0
TEXT
  5
B14F
  8
0
  6
CONTINUOUS
 62
     0
 10
1423.287474815136
 20
23.66392072677591
 30
0.0
 40
2.5
  1
8,8
  0
ENDBLK
  5
B151
  8
0
 62
     7
  0
BLOCK
  8
0
 62
     7
  2
*U754
 70
     1
 10
0.0
 20
0.0
 30
0.0
  3
*U754
  1

  0
TEXT
  5
B153
  8
0
  6
CONTINUOUS
 62
     0
 10
1440.692936620587
 20
36.152715865560211
 30
0.0
 40
2.5
  1
9,8
 50
90.0
  0
ENDBLK
  5
B155
  8
0
 62
     7
  0
BLOCK
  8
0
 62
     7
  2
*U755
 70
     1
 10
0.0
 20
0.0
 30
0.0
  3
*U755
  1

  0
TEXT
  5
B157
  8
0
  6
CONTINUOUS
 62
     0
 10
1424.662474815136
 20
47.85355014875995
 30
0.0
 40
2.5
  1
3
  0
ENDBLK
  5
B159
  8
0
 62
     7
  0
BLOCK
  8
0
 62
     7
  2
*U756
 70
     1
 10
0.0
 20
0.0
 30
0.0
  3
*U756
  1

  0
TEXT
  5
B15B
  8
0
  6
CONTINUOUS
 62
     0
 10
1422.7874748151371
 20
53.270753427571883
 30
0.0
 40
2.5
  1
60Åã
  0
ENDBLK
  5
B15D
  8
0
 62
     7
  0
BLOCK
  8
0
 62
     7
  2
*U757
 70
     1
 10
0.0
 20
0.0
 30
0.0
  3
*U757
  1

  0
TEXT
  5
B15F
  8
0
  6
CONTINUOUS
 62
     0
 10
1085.505621555277
 20
-60.463247085604429
 30
0.0
 40
2.5
  1
12,8
  0
ENDBLK
  5
B161
  8
0
 62
     7
  0
BLOCK
  8
0
 62
     7
  2
*U758
 70
     1
 10
0.0
 20
0.0
 30
0.0
  3
*U758
  1

  0
TEXT
  5
B163
  8
0
  6
CONTINUOUS
 62
     0
 10
1429.9688843598231
 20
-60.463247085604429
 30
0.0
 40
2.5
  1
11,8
  0
ENDBLK
  5
B165
  8
0
 62
     7
  0
BLOCK
  8
0
 62
     7
  2
*U759
 70
     1
 10
0.0
 20
0.0
 30
0.0
  3
*U759
  1

  0
TEXT
  5
B167
  8
0
  6
CONTINUOUS
 62
     0
 10
1447.79101283194
 20
-48.80778528015346
 30
0.0
 40
2.5
  1
12,8
 50
90.0
  0
ENDBLK
  5
B169
  8
0
 62
     7
  0
BLOCK
  8
0
 62
     7
  2
*U760
 70
     1
 10
0.0
 20
0.0
 30
0.0
  3
*U760
  1

  0
TEXT
  5
B16B
  8
0
  6
CONTINUOUS
 62
     0
 10
1429.88555102649
 20
-34.720662584849222
 30
0.0
 40
2.5
  1
3,5
  0
ENDBLK
  5
B16D
  8
0
 62
     7
  0
BLOCK
  8
0
 62
     7
  2
*U761
 70
     1
 10
0.0
 20
0.0
 30
0.0
  3
*U761
  1

  0
TEXT
  5
B16F
  8
0
  6
CONTINUOUS
 62
     0
 10
1429.88555102649
 20
-27.778441502549612
 30
0.0
 40
2.5
  1
60Åã
  0
ENDBLK
  5
B171
  8
0
 62
     7
  0
BLOCK
  8
0
 62
     7
  2
*U762
 70
     1
 10
0.0
 20
0.0
 30
0.0
  3
*U762
  1

  0
TEXT
  5
B173
  8
0
  6
CONTINUOUS
 62
     0
 10
1095.2376723628461
 20
-144.59041489798469
 30
0.0
 40
2.5
  1
14,8
  0
ENDBLK
  5
B175
  8
0
 62
     7
  0
BLOCK
  8
0
 62
     7
  2
*U763
 70
     1
 10
0.0
 20
0.0
 30
0.0
  3
*U763
  1

  0
TEXT
  5
B177
  8
0
  6
CONTINUOUS
 62
     0
 10
1439.2842685007249
 20
-144.59041489798469
 30
0.0
 40
2.5
  1
13,8
  0
ENDBLK
  5
B179
  8
0
 62
     7
  0
BLOCK
  8
0
 62
     7
  2
*U764
 70
     1
 10
0.0
 20
0.0
 30
0.0
  3
*U764
  1

  0
TEXT
  5
B17B
  8
0
  6
CONTINUOUS
 62
     0
 10
1457.523063639509
 20
-132.93495309253379
 30
0.0
 40
2.5
  1
14,8
 50
90.0
  0
ENDBLK
  5
B17D
  8
0
 62
     7
  0
BLOCK
  8
0
 62
     7
  2
*U765
 70
     1
 10
0.0
 20
0.0
 30
0.0
  3
*U765
  1

  0
TEXT
  5
B17F
  8
0
  6
CONTINUOUS
 62
     0
 10
1441.4926018340591
 20
-115.8357271446707
 30
0.0
 40
2.5
  1
4
  0
ENDBLK
  5
B181
  8
0
 62
     7
  0
BLOCK
  8
0
 62
     7
  2
*U766
 70
     1
 10
0.0
 20
0.0
 30
0.0
  3
*U766
  1

  0
TEXT
  5
B183
  8
0
  6
CONTINUOUS
 62
     0
 10
1439.6176018340591
 20
-107.8825875174614
 30
0.0
 40
2.5
  1
60Åã
  0
ENDBLK
  5
B185
  8
0
 62
     7
  0
BLOCK
  8
0
 62
     7
  2
*U767
 70
     1
 10
0.0
 20
0.0
 30
0.0
  3
*U767
  1

  0
TEXT
  5
B187
  8
0
  6
CONTINUOUS
 62
     0
 10
1084.510265752534
 20
-228.71758271036501
 30
0.0
 40
2.5
  1
14,8
  0
ENDBLK
  5
B189
  8
0
 62
     7
  0
BLOCK
  8
0
 62
     7
  2
*U768
 70
     1
 10
0.0
 20
0.0
 30
0.0
  3
*U768
  1

  0
TEXT
  5
B18B
  8
0
  6
CONTINUOUS
 62
     0
 10
1428.5568618904131
 20
-228.71758271036501
 30
0.0
 40
2.5
  1
13,8
  0
ENDBLK
  5
B18D
  8
0
 62
     7
  0
BLOCK
  8
0
 62
     7
  2
*U769
 70
     1
 10
0.0
 20
0.0
 30
0.0
  3
*U769
  1

  0
TEXT
  5
B18F
  8
0
  6
CONTINUOUS
 62
     0
 10
1446.7956570291969
 20
-217.06212090491411
 30
0.0
 40
2.5
  1
14,8
 50
90.0
  0
ENDBLK
  5
B191
  8
0
 62
     7
  0
BLOCK
  8
0
 62
     7
  2
*U770
 70
     1
 10
0.0
 20
0.0
 30
0.0
  3
*U770
  1

  0
TEXT
  5
B193
  8
0
  6
CONTINUOUS
 62
     0
 10
1430.7651952237461
 20
-201.05359796447701
 30
0.0
 40
2.5
  1
5
  0
ENDBLK
  5
B195
  8
0
 62
     7
  0
BLOCK
  8
0
 62
     7
  2
*U771
 70
     1
 10
0.0
 20
0.0
 30
0.0
  3
*U771
  1

  0
TEXT
  5
B197
  8
0
  6
CONTINUOUS
 62
     0
 10
1428.8901952237461
 20
-195.18518998706941
 30
0.0
 40
2.5
  1
60Åã
  0
ENDBLK
  5
B199
  8
0
 62
     7
  0
BLOCK
  8
0
 62
     7
  2
*U772
 70
     1
 10
0.0
 20
0.0
 30
0.0
  3
*U772
  1

  0
TEXT
  5
B19B
  8
0
  6
CONTINUOUS
 62
     0
 10
1100.2423165601031
 20
-312.84475052274541
 30
0.0
 40
2.5
  1
16,8
  0
ENDBLK
  5
B19D
  8
0
 62
     7
  0
BLOCK
  8
0
 62
     7
  2
*U773
 70
     1
 10
0.0
 20
0.0
 30
0.0
  3
*U773
  1

  0
TEXT
  5
B19F
  8
0
  6
CONTINUOUS
 62
     0
 10
1444.288912697981
 20
-312.84475052274541
 30
0.0
 40
2.5
  1
15,8
  0
ENDBLK
  5
B1A1
  8
0
 62
     7
  0
BLOCK
  8
0
 62
     7
  2
*U774
 70
     1
 10
0.0
 20
0.0
 30
0.0
  3
*U774
  1

  0
TEXT
  5
B1A3
  8
0
  6
CONTINUOUS
 62
     0
 10
1462.5277078367651
 20
-301.1892887172944
 30
0.0
 40
2.5
  1
16,8
 50
90.0
  0
ENDBLK
  5
B1A5
  8
0
 62
     7
  0
BLOCK
  8
0
 62
     7
  2
*U775
 70
     1
 10
0.0
 20
0.0
 30
0.0
  3
*U775
  1

  0
TEXT
  5
B1A7
  8
0
  6
CONTINUOUS
 62
     0
 10
1446.4972460313149
 20
-283.77844547327447
 30
0.0
 40
2.5
  1
6
  0
ENDBLK
  5
B1A9
  8
0
 62
     7
  0
BLOCK
  8
0
 62
     7
  2
*U776
 70
     1
 10
0.0
 20
0.0
 30
0.0
  3
*U776
  1

  0
TEXT
  5
B1AB
  8
0
  6
CONTINUOUS
 62
     0
 10
1444.6222460313161
 20
-273.72766466852448
 30
0.0
 40
2.5
  1
60Åã
  0
ENDBLK
  5
B1AD
  8
0
 62
     7
  0
BLOCK
  8
0
 62
     7
  2
*U777
 70
     1
 10
0.0
 20
0.0
 30
0.0
  3
*U777
  1

  0
TEXT
  5
B1AF
  8
0
  6
CONTINUOUS
 62
     0
 10
1109.208740273868
 20
-400.68166808516622
 30
0.0
 40
2.5
  1
21,8
  0
ENDBLK
  5
B1B1
  8
0
 62
     7
  0
BLOCK
  8
0
 62
     7
  2
*U778
 70
     1
 10
0.0
 20
0.0
 30
0.0
  3
*U778
  1

  0
TEXT
  5
B1B3
  8
0
  6
CONTINUOUS
 62
     0
 10
1453.047003078414
 20
-400.68166808516622
 30
0.0
 40
2.5
  1
20,8
  0
ENDBLK
  5
B1B5
  8
0
 62
     7
  0
BLOCK
  8
0
 62
     7
  2
*U779
 70
     1
 10
0.0
 20
0.0
 30
0.0
  3
*U779
  1

  0
TEXT
  5
B1B7
  8
0
  6
CONTINUOUS
 62
     0
 10
1481.2000799714081
 20
-385.31645652967472
 30
0.0
 40
2.5
  1
21,8
 50
90.0
  0
ENDBLK
  5
B1B9
  8
0
 62
     7
  0
BLOCK
  8
0
 62
     7
  2
*U780
 70
     1
 10
0.0
 20
0.0
 30
0.0
  3
*U780
  1

  0
TEXT
  5
B1BB
  8
0
  6
CONTINUOUS
 62
     0
 10
1455.463669745081
 20
-361.1107746140728
 30
0.0
 40
2.5
  1
8
  0
ENDBLK
  5
B1BD
  8
0
 62
     7
  0
BLOCK
  8
0
 62
     7
  2
*U781
 70
     1
 10
0.0
 20
0.0
 30
0.0
  3
*U781
  1

  0
TEXT
  5
B1BF
  8
0
  6
CONTINUOUS
 62
     0
 10
1453.588669745081
 20
-352.73331324274
 30
0.0
 40
2.5
  1
60Åã
  0
ENDBLK
  5
B1C1
  8
0
 62
     7
  0
BLOCK
  8
0
 62
     7
  2
*U782
 70
     1
 10
0.0
 20
0.0
 30
0.0
  3
*U782
  1

  0
TEXT
  5
B1C3
  8
0
  6
CONTINUOUS
 62
     0
 10
1118.2561752223401
 20
-491.12531593929617
 30
0.0
 40
2.5
  1
25,8
  0
ENDBLK
  5
B1C5
  8
0
 62
     7
  0
BLOCK
  8
0
 62
     7
  2
*U783
 70
     1
 10
0.0
 20
0.0
 30
0.0
  3
*U783
  1

  0
TEXT
  5
B1C7
  8
0
  6
CONTINUOUS
 62
     0
 10
1462.3027713602189
 20
-491.12531593929617
 30
0.0
 40
2.5
  1
24,8
  0
ENDBLK
  5
B1C9
  8
0
 62
     7
  0
BLOCK
  8
0
 62
     7
  2
*U784
 70
     1
 10
0.0
 20
0.0
 30
0.0
  3
*U784
  1

  0
TEXT
  5
B1CB
  8
0
  6
CONTINUOUS
 62
     0
 10
1494.253956958979
 20
-469.86029100872167
 30
0.0
 40
2.5
  1
25,8
 50
90.0
  0
ENDBLK
  5
B1CD
  8
0
 62
     7
  0
BLOCK
  8
0
 62
     7
  2
*U785
 70
     1
 10
0.0
 20
0.0
 30
0.0
  3
*U785
  1

  0
TEXT
  5
B1CF
  8
0
  6
CONTINUOUS
 62
     0
 10
1464.9277713602189
 20
-446.00614143703928
 30
0.0
 40
2.5
  1
9
  0
ENDBLK
  5
B1D1
  8
0
 62
     7
  0
BLOCK
  8
0
 62
     7
  2
*U786
 70
     1
 10
0.0
 20
0.0
 30
0.0
  3
*U786
  1

  0
TEXT
  5
B1D3
  8
0
  6
CONTINUOUS
 62
     0
 10
1463.0527713602189
 20
-439.55565670435158
 30
0.0
 40
2.5
  1
60Åã
  0
ENDBLK
  5
B1D5
  8
0
 62
     7
  0
BLOCK
  8
0
 62
     7
  2
*U787
 70
     1
 10
0.0
 20
0.0
 30
0.0
  3
*U787
  1

  0
TEXT
  5
B1D7
  8
0
  6
CONTINUOUS
 62
     0
 10
984.78560383850618
 20
-467.77695767538847
 30
0.0
 40
2.5
  1
20
 50
90.0
  0
ENDBLK
  5
B1D9
  8
0
 62
     7
  0
BLOCK
  8
0
 62
     7
  2
*U788
 70
     1
 10
0.0
 20
0.0
 30
0.0
  3
*U788
  1

  0
TEXT
  5
B1DB
  8
0
  6
CONTINUOUS
 62
     0
 10
1004.894939635639
 20
-490.65503786327639
 30
0.0
 40
2.5
  1
10
  0
ENDBLK
  5
B1DD
  8
0
 62
     7
  0
BLOCK
  8
0
 62
     7
  2
*U789
 70
     1
 10
0.0
 20
0.0
 30
0.0
  3
*U789
  1

  0
TEXT
  5
B1DF
  8
0
  6
CONTINUOUS
 62
     0
 10
1014.894939635639
 20
-490.65503786327639
 30
0.0
 40
2.5
  1
10
  0
ENDBLK
  5
B1E1
  8
0
 62
     7
  0
BLOCK
  8
0
 62
     7
  2
*U790
 70
     1
 10
0.0
 20
0.0
 30
0.0
  3
*U790
  1

  0
TEXT
  5
B1E3
  8
0
  6
CONTINUOUS
 62
     0
 10
1025.6866063023051
 20
-491.19439531098249
 30
0.0
 40
2.5
  1
12
  0
ENDBLK
  5
B1E5
  8
0
 62
     7
  0
BLOCK
  8
0
 62
     7
  2
*U791
 70
     1
 10
0.0
 20
0.0
 30
0.0
  3
*U791
  1

  0
TEXT
  5
B1E7
  8
0
  6
CONTINUOUS
 62
     0
 10
383.64641792428148
 20
-726.25328828324336
 30
0.0
 40
2.5
  1
10
  0
ENDBLK
  5
B1E9
  8
0
 62
     7
  0
BLOCK
  8
0
 62
     7
  2
*U792
 70
     1
 10
0.0
 20
0.0
 30
0.0
  3
*U792
  1

  0
TEXT
  5
B1EB
  8
0
  6
CONTINUOUS
 62
     0
 10
393.27141792428148
 20
-726.25328828324336
 30
0.0
 40
2.5
  1
8
  0
ENDBLK
  5
B1ED
  8
0
 62
     7
  0
BLOCK
  8
0
 62
     7
  2
*U793
 70
     1
 10
0.0
 20
0.0
 30
0.0
  3
*U793
  1

  0
TEXT
  5
B1EF
  8
0
  6
CONTINUOUS
 62
     0
 10
372.8917297588726
 20
-709.33591640180316
 30
0.0
 40
2.5
  1
8
 50
90.0
  0
ENDBLK
  5
B1F1
  8
0
 62
     7
  0
BLOCK
  8
0
 62
     7
  2
*U794
 70
     1
 10
0.0
 20
0.0
 30
0.0
  3
*U794
  1

  0
TEXT
  5
B1F3
  8
0
  6
CONTINUOUS
 62
     0
 10
461.25709884392012
 20
-723.69971154058726
 30
0.0
 40
2.5
  1
12,8
  0
ENDBLK
  5
B1F5
  8
0
 62
     7
  0
BLOCK
  8
0
 62
     7
  2
*U795
 70
     1
 10
0.0
 20
0.0
 30
0.0
  3
*U795
  1

  0
TEXT
  5
B1F7
  8
0
  6
CONTINUOUS
 62
     0
 10
387.43808459094811
 20
-810.3804560956238
 30
0.0
 40
2.5
  1
18
  0
ENDBLK
  5
B1F9
  8
0
 62
     7
  0
BLOCK
  8
0
 62
     7
  2
*U796
 70
     1
 10
0.0
 20
0.0
 30
0.0
  3
*U796
  1

  0
TEXT
  5
B1FB
  8
0
  6
CONTINUOUS
 62
     0
 10
401.64641792428148
 20
-810.3804560956238
 30
0.0
 40
2.5
  1
10
  0
ENDBLK
  5
B1FD
  8
0
 62
     7
  0
BLOCK
  8
0
 62
     7
  2
*U797
 70
     1
 10
0.0
 20
0.0
 30
0.0
  3
*U797
  1

  0
TEXT
  5
B1FF
  8
0
  6
CONTINUOUS
 62
     0
 10
372.8917297588726
 20
-794.0880842141836
 30
0.0
 40
2.5
  1
10
 50
90.0
  0
ENDBLK
  5
B201
  8
0
 62
     7
  0
BLOCK
  8
0
 62
     7
  2
*U798
 70
     1
 10
0.0
 20
0.0
 30
0.0
  3
*U798
  1

  0
TEXT
  5
B203
  8
0
  6
CONTINUOUS
 62
     0
 10
475.98914965148907
 20
-807.82687935296747
 30
0.0
 40
2.5
  1
14,8
  0
ENDBLK
  5
B205
  8
0
 62
     7
  0
BLOCK
  8
0
 62
     7
  2
*U799
 70
     1
 10
0.0
 20
0.0
 30
0.0
  3
*U799
  1

  0
TEXT
  5
B207
  8
0
  6
CONTINUOUS
 62
     0
 10
470.26174304117649
 20
-891.95404716534779
 30
0.0
 40
2.5
  1
14,8
  0
ENDBLK
  5
B209
  8
0
 62
     7
  0
BLOCK
  8
0
 62
     7
  2
*U800
 70
     1
 10
0.0
 20
0.0
 30
0.0
  3
*U800
  1

  0
TEXT
  5
B20B
  8
0
  6
CONTINUOUS
 62
     0
 10
366.72812544969378
 20
-878.2152520265638
 30
0.0
 40
2.5
  1
10
 50
90.0
  0
ENDBLK
  5
B20D
  8
0
 62
     7
  0
BLOCK
  8
0
 62
     7
  2
*U801
 70
     1
 10
0.0
 20
0.0
 30
0.0
  3
*U801
  1

  0
TEXT
  5
B20F
  8
0
  6
CONTINUOUS
 62
     0
 10
387.43808509094811
 20
-894.30089072425733
 30
0.0
 40
2.5
  1
18
  0
ENDBLK
  5
B211
  8
0
 62
     7
  0
BLOCK
  8
0
 62
     7
  2
*U802
 70
     1
 10
0.0
 20
0.0
 30
0.0
  3
*U802
  1

  0
TEXT
  5
B213
  8
0
  6
CONTINUOUS
 62
     0
 10
401.64641842428142
 20
-894.30089072425733
 30
0.0
 40
2.5
  1
10
  0
ENDBLK
  5
B215
  8
0
 62
     7
  0
BLOCK
  8
0
 62
     7
  2
*U803
 70
     1
 10
0.0
 20
0.0
 30
0.0
  3
*U803
  1

  0
TEXT
  5
B217
  8
0
  6
CONTINUOUS
 62
     0
 10
473.99379384874538
 20
-976.08121497772834
 30
0.0
 40
2.5
  1
16,8
  0
ENDBLK
  5
B219
  8
0
 62
     7
  0
BLOCK
  8
0
 62
     7
  2
*U804
 70
     1
 10
0.0
 20
0.0
 30
0.0
  3
*U804
  1

  0
TEXT
  5
B21B
  8
0
  6
CONTINUOUS
 62
     0
 10
366.72812544969389
 20
-962.55075317227738
 30
0.0
 40
2.5
  1
12
 50
90.0
  0
ENDBLK
  5
B21D
  8
0
 62
     7
  0
BLOCK
  8
0
 62
     7
  2
*U805
 70
     1
 10
0.0
 20
0.0
 30
0.0
  3
*U805
  1

  0
TEXT
  5
B21F
  8
0
  6
CONTINUOUS
 62
     0
 10
385.93808509094811
 20
-978.42805853663765
 30
0.0
 40
2.5
  1
15
  0
ENDBLK
  5
B221
  8
0
 62
     7
  0
BLOCK
  8
0
 62
     7
  2
*U806
 70
     1
 10
0.0
 20
0.0
 30
0.0
  3
*U806
  1

  0
TEXT
  5
B223
  8
0
  6
CONTINUOUS
 62
     0
 10
399.43808509094811
 20
-978.42805853663765
 30
0.0
 40
2.5
  1
12
  0
ENDBLK
  5
B225
  8
0
 62
     7
  0
BLOCK
  8
0
 62
     7
  2
*U807
 70
     1
 10
0.0
 20
0.0
 30
0.0
  3
*U807
  1

  0
TEXT
  5
B227
  8
0
  6
CONTINUOUS
 62
     0
 10
488.96021756251127
 20
-1063.9181325401489
 30
0.0
 40
2.5
  1
21,8
  0
ENDBLK
  5
B229
  8
0
 62
     7
  0
BLOCK
  8
0
 62
     7
  2
*U808
 70
     1
 10
0.0
 20
0.0
 30
0.0
  3
*U808
  1

  0
TEXT
  5
B22B
  8
0
  6
CONTINUOUS
 62
     0
 10
366.72812544969389
 20
-1046.6779209846579
 30
0.0
 40
2.5
  1
16
 50
90.0
  0
ENDBLK
  5
B22D
  8
0
 62
     7
  0
BLOCK
  8
0
 62
     7
  2
*U809
 70
     1
 10
0.0
 20
0.0
 30
0.0
  3
*U809
  1

  0
TEXT
  5
B22F
  8
0
  6
CONTINUOUS
 62
     0
 10
387.43808509094811
 20
-1062.5552263490181
 30
0.0
 40
2.5
  1
18
  0
ENDBLK
  5
B231
  8
0
 62
     7
  0
BLOCK
  8
0
 62
     7
  2
*U810
 70
     1
 10
0.0
 20
0.0
 30
0.0
  3
*U810
  1

  0
TEXT
  5
B233
  8
0
  6
CONTINUOUS
 62
     0
 10
403.93808509094811
 20
-1062.5552263490181
 30
0.0
 40
2.5
  1
15
  0
ENDBLK
  5
B235
  8
0
 62
     7
  0
BLOCK
  8
0
 62
     7
  2
*U811
 70
     1
 10
0.0
 20
0.0
 30
0.0
  3
*U811
  1

  0
TEXT
  5
B237
  8
0
  6
CONTINUOUS
 62
     0
 10
502.00765251098261
 20
-1154.3617803942791
 30
0.0
 40
2.5
  1
25,8
  0
ENDBLK
  5
B239
  8
0
 62
     7
  0
BLOCK
  8
0
 62
     7
  2
*U812
 70
     1
 10
0.0
 20
0.0
 30
0.0
  3
*U812
  1

  0
TEXT
  5
B23B
  8
0
  6
CONTINUOUS
 62
     0
 10
795.0389521037788
 20
-639.57254372820705
 30
0.0
 40
2.5
  1
8,8
  0
ENDBLK
  5
B23D
  8
0
 62
     7
  0
BLOCK
  8
0
 62
     7
  2
*U813
 70
     1
 10
0.0
 20
0.0
 30
0.0
  3
*U813
  1

  0
TEXT
  5
B23F
  8
0
  6
CONTINUOUS
 62
     0
 10
805.72036164846543
 20
-723.69971154058726
 30
0.0
 40
2.5
  1
11,8
  0
ENDBLK
  5
B241
  8
0
 62
     7
  0
BLOCK
  8
0
 62
     7
  2
*U814
 70
     1
 10
0.0
 20
0.0
 30
0.0
  3
*U814
  1

  0
TEXT
  5
B243
  8
0
  6
CONTINUOUS
 62
     0
 10
820.03574578936775
 20
-807.82687935296747
 30
0.0
 40
2.5
  1
13,8
  0
ENDBLK
  5
B245
  8
0
 62
     7
  0
BLOCK
  8
0
 62
     7
  2
*U815
 70
     1
 10
0.0
 20
0.0
 30
0.0
  3
*U815
  1

  0
TEXT
  5
B247
  8
0
  6
CONTINUOUS
 62
     0
 10
814.30833917905522
 20
-891.95404716534779
 30
0.0
 40
2.5
  1
13,8
  0
ENDBLK
  5
B249
  8
0
 62
     7
  0
BLOCK
  8
0
 62
     7
  2
*U816
 70
     1
 10
0.0
 20
0.0
 30
0.0
  3
*U816
  1

  0
TEXT
  5
B24B
  8
0
  6
CONTINUOUS
 62
     0
 10
818.04038998662395
 20
-976.08121497772834
 30
0.0
 40
2.5
  1
15,8
  0
ENDBLK
  5
B24D
  8
0
 62
     7
  0
BLOCK
  8
0
 62
     7
  2
*U817
 70
     1
 10
0.0
 20
0.0
 30
0.0
  3
*U817
  1

  0
TEXT
  5
B24F
  8
0
  6
CONTINUOUS
 62
     0
 10
832.79848036705675
 20
-1063.9181325401489
 30
0.0
 40
2.5
  1
20,8
  0
ENDBLK
  5
B251
  8
0
 62
     7
  0
BLOCK
  8
0
 62
     7
  2
*U818
 70
     1
 10
0.0
 20
0.0
 30
0.0
  3
*U818
  1

  0
TEXT
  5
B253
  8
0
  6
CONTINUOUS
 62
     0
 10
846.05424864886106
 20
-1154.3617803942791
 30
0.0
 40
2.5
  1
24,8
  0
ENDBLK
  5
B255
  8
0
 62
     7
  0
BLOCK
  8
0
 62
     7
  2
*U819
 70
     1
 10
0.0
 20
0.0
 30
0.0
  3
*U819
  1

  0
TEXT
  5
B257
  8
0
  6
CONTINUOUS
 62
     0
 10
878.00543424762168
 20
-1133.096755463705
 30
0.0
 40
2.5
  1
25,8
 50
90.0
  0
ENDBLK
  5
B259
  8
0
 62
     7
  0
BLOCK
  8
0
 62
     7
  2
*U820
 70
     1
 10
0.0
 20
0.0
 30
0.0
  3
*U820
  1

  0
TEXT
  5
B25B
  8
0
  6
CONTINUOUS
 62
     0
 10
860.95155726005066
 20
-1048.5529209846579
 30
0.0
 40
2.5
  1
21,8
 50
90.0
  0
ENDBLK
  5
B25D
  8
0
 62
     7
  0
BLOCK
  8
0
 62
     7
  2
*U821
 70
     1
 10
0.0
 20
0.0
 30
0.0
  3
*U821
  1

  0
TEXT
  5
B25F
  8
0
  6
CONTINUOUS
 62
     0
 10
836.27918512540805
 20
-964.42575317227727
 30
0.0
 40
2.5
  1
16,8
 50
90.0
  0
ENDBLK
  5
B261
  8
0
 62
     7
  0
BLOCK
  8
0
 62
     7
  2
*U822
 70
     1
 10
0.0
 20
0.0
 30
0.0
  3
*U822
  1

  0
TEXT
  5
B263
  8
0
  6
CONTINUOUS
 62
     0
 10
832.54713431783944
 20
-880.29858535989695
 30
0.0
 40
2.5
  1
14,8
 50
90.0
  0
ENDBLK
  5
B265
  8
0
 62
     7
  0
BLOCK
  8
0
 62
     7
  2
*U823
 70
     1
 10
0.0
 20
0.0
 30
0.0
  3
*U823
  1

  0
TEXT
  5
B267
  8
0
  6
CONTINUOUS
 62
     0
 10
838.27454092815196
 20
-796.17141754751674
 30
0.0
 40
2.5
  1
14,8
 50
90.0
  0
ENDBLK
  5
B269
  8
0
 62
     7
  0
BLOCK
  8
0
 62
     7
  2
*U824
 70
     1
 10
0.0
 20
0.0
 30
0.0
  3
*U824
  1

  0
TEXT
  5
B26B
  8
0
  6
CONTINUOUS
 62
     0
 10
823.54249012058278
 20
-712.04424973513642
 30
0.0
 40
2.5
  1
12,8
 50
90.0
  0
ENDBLK
  5
B26D
  8
0
 62
     7
  0
BLOCK
  8
0
 62
     7
  2
*U825
 70
     1
 10
0.0
 20
0.0
 30
0.0
  3
*U825
  1

  0
TEXT
  5
B26F
  8
0
  6
CONTINUOUS
 62
     0
 10
812.44441390922975
 20
-627.08374858942284
 30
0.0
 40
2.5
  1
9,8
 50
90.0
  0
ENDBLK
  5
B271
  8
0
 62
     7
  0
BLOCK
  8
0
 62
     7
  2
*U826
 70
     1
 10
0.0
 20
0.0
 30
0.0
  3
*U826
  1

  0
TEXT
  5
B273
  8
0
  6
CONTINUOUS
 62
     0
 10
364.48797031452722
 20
-1131.0134221303711
 30
0.0
 40
2.5
  1
20
 50
90.0
  0
ENDBLK
  5
B275
  8
0
 62
     7
  0
BLOCK
  8
0
 62
     7
  2
*U827
 70
     1
 10
0.0
 20
0.0
 30
0.0
  3
*U827
  1

  0
TEXT
  5
B277
  8
0
  6
CONTINUOUS
 62
     0
 10
389.02141692428148
 20
-1154.4308597659649
 30
0.0
 40
2.5
  1
22
  0
ENDBLK
  5
B279
  8
0
 62
     7
  0
BLOCK
  8
0
 62
     7
  2
*U828
 70
     1
 10
0.0
 20
0.0
 30
0.0
  3
*U828
  1

  0
TEXT
  5
B27B
  8
0
  6
CONTINUOUS
 62
     0
 10
407.938083590948
 20
-1154.4308597659649
 30
0.0
 40
2.5
  1
15
  0
ENDBLK
  5
B27D
  8
0
 62
     7
  0
BLOCK
  8
0
 62
     7
  2
*U829
 70
     1
 10
0.0
 20
0.0
 30
0.0
  3
*U829
  1

  0
TEXT
  5
B27F
  8
0
  6
CONTINUOUS
 62
     0
 10
848.67924864886118
 20
-1109.2426058920221
 30
0.0
 40
2.5
  1
9
  0
ENDBLK
  5
B281
  8
0
 62
     7
  0
BLOCK
  8
0
 62
     7
  2
*U830
 70
     1
 10
0.0
 20
0.0
 30
0.0
  3
*U830
  1

  0
TEXT
  5
B283
  8
0
  6
CONTINUOUS
 62
     0
 10
835.21514703372327
 20
-1024.3472390690561
 30
0.0
 40
2.5
  1
8
  0
ENDBLK
  5
B285
  8
0
 62
     7
  0
BLOCK
  8
0
 62
     7
  2
*U831
 70
     1
 10
0.0
 20
0.0
 30
0.0
  3
*U831
  1

  0
TEXT
  5
B287
  8
0
  6
CONTINUOUS
 62
     0
 10
820.24872331995732
 20
-947.01490992825757
 30
0.0
 40
2.5
  1
6
  0
ENDBLK
  5
B289
  8
0
 62
     7
  0
BLOCK
  8
0
 62
     7
  2
*U832
 70
     1
 10
0.0
 20
0.0
 30
0.0
  3
*U832
  1

  0
TEXT
  5
B28B
  8
0
  6
CONTINUOUS
 62
     0
 10
816.51667251238848
 20
-864.2900624194599
 30
0.0
 40
2.5
  1
5
  0
ENDBLK
  5
B28D
  8
0
 62
     7
  0
BLOCK
  8
0
 62
     7
  2
*U833
 70
     1
 10
0.0
 20
0.0
 30
0.0
  3
*U833
  1

  0
TEXT
  5
B28F
  8
0
  6
CONTINUOUS
 62
     0
 10
822.2440791227009
 20
-779.07219159965359
 30
0.0
 40
2.5
  1
4
  0
ENDBLK
  5
B291
  8
0
 62
     7
  0
BLOCK
  8
0
 62
     7
  2
*U834
 70
     1
 10
0.0
 20
0.0
 30
0.0
  3
*U834
  1

  0
TEXT
  5
B293
  8
0
  6
CONTINUOUS
 62
     0
 10
805.63702831513206
 20
-697.95712703983213
 30
0.0
 40
2.5
  1
3,5
  0
ENDBLK
  5
B295
  8
0
 62
     7
  0
BLOCK
  8
0
 62
     7
  2
*U835
 70
     1
 10
0.0
 20
0.0
 30
0.0
  3
*U835
  1

  0
TEXT
  5
B297
  8
0
  6
CONTINUOUS
 62
     0
 10
796.41395210377891
 20
-615.38291430622303
 30
0.0
 40
2.5
  1
3
  0
ENDBLK
  5
B299
  8
0
 62
     7
  0
BLOCK
  8
0
 62
     7
  2
*U836
 70
     1
 10
0.0
 20
0.0
 30
0.0
  3
*U836
  1

  0
TEXT
  5
B29B
  8
0
  6
CONTINUOUS
 62
     0
 10
846.80424864886106
 20
-1102.792121159335
 30
0.0
 40
2.5
  1
60Åã
  0
ENDBLK
  5
B29D
  8
0
 62
     7
  0
BLOCK
  8
0
 62
     7
  2
*U837
 70
     1
 10
0.0
 20
0.0
 30
0.0
  3
*U837
  1

  0
TEXT
  5
B29F
  8
0
  6
CONTINUOUS
 62
     0
 10
833.34014703372316
 20
-1015.969777697723
 30
0.0
 40
2.5
  1
60Åã
  0
ENDBLK
  5
B2A1
  8
0
 62
     7
  0
BLOCK
  8
0
 62
     7
  2
*U838
 70
     1
 10
0.0
 20
0.0
 30
0.0
  3
*U838
  1

  0
TEXT
  5
B2A3
  8
0
  6
CONTINUOUS
 62
     0
 10
818.37372331995743
 20
-936.96412912350775
 30
0.0
 40
2.5
  1
60Åã
  0
ENDBLK
  5
B2A5
  8
0
 62
     7
  0
BLOCK
  8
0
 62
     7
  2
*U839
 70
     1
 10
0.0
 20
0.0
 30
0.0
  3
*U839
  1

  0
TEXT
  5
B2A7
  8
0
  6
CONTINUOUS
 62
     0
 10
814.64167251238837
 20
-858.42165444205239
 30
0.0
 40
2.5
  1
60Åã
  0
ENDBLK
  5
B2A9
  8
0
 62
     7
  0
BLOCK
  8
0
 62
     7
  2
*U840
 70
     1
 10
0.0
 20
0.0
 30
0.0
  3
*U840
  1

  0
TEXT
  5
B2AB
  8
0
  6
CONTINUOUS
 62
     0
 10
820.36907912270101
 20
-771.11905197244437
 30
0.0
 40
2.5
  1
60Åã
  0
ENDBLK
  5
B2AD
  8
0
 62
     7
  0
BLOCK
  8
0
 62
     7
  2
*U841
 70
     1
 10
0.0
 20
0.0
 30
0.0
  3
*U841
  1

  0
TEXT
  5
B2AF
  8
0
  6
CONTINUOUS
 62
     0
 10
805.63702831513206
 20
-691.01490595753273
 30
0.0
 40
2.5
  1
60Åã
  0
ENDBLK
  5
B2B1
  8
0
 62
     7
  0
BLOCK
  8
0
 62
     7
  2
*U842
 70
     1
 10
0.0
 20
0.0
 30
0.0
  3
*U842
  1

  0
TEXT
  5
B2B3
  8
0
  6
CONTINUOUS
 62
     0
 10
794.53895210377914
 20
-609.96571102741109
 30
0.0
 40
2.5
  1
60Åã
  0
ENDBLK
  5
B2B5
  8
0
 62
     7
  0
BLOCK
  8
0
 62
     7
  2
*U843
 70
     1
 10
0.0
 20
0.0
 30
0.0
  3
*U843
  1

  0
TEXT
  5
B2B7
  8
0
  6
CONTINUOUS
 62
     0
 10
1019.019939635639
 20
-642.12612047086316
 30
0.0
 40
2.5
  1
5
  0
ENDBLK
  5
B2B9
  8
0
 62
     7
  0
BLOCK
  8
0
 62
     7
  2
*U844
 70
     1
 10
0.0
 20
0.0
 30
0.0
  3
*U844
  1

  0
TEXT
  5
B2BB
  8
0
  6
CONTINUOUS
 62
     0
 10
1012.519939635639
 20
-642.12612047086316
 30
0.0
 40
2.5
  1
8
  0
ENDBLK
  5
B2BD
  8
0
 62
     7
  0
BLOCK
  8
0
 62
     7
  2
*U845
 70
     1
 10
0.0
 20
0.0
 30
0.0
  3
*U845
  1

  0
TEXT
  5
B2BF
  8
0
  6
CONTINUOUS
 62
     0
 10
1004.519939635639
 20
-642.12612047086316
 30
0.0
 40
2.5
  1
8
  0
ENDBLK
  5
B2C1
  8
0
 62
     7
  0
BLOCK
  8
0
 62
     7
  2
*U846
 70
     1
 10
0.0
 20
0.0
 30
0.0
  3
*U846
  1

  0
TEXT
  5
B2C3
  8
0
  6
CONTINUOUS
 62
     0
 10
990.59542888564442
 20
-625.20874858942295
 30
0.0
 40
2.5
  1
6
 50
90.0
  0
ENDBLK
  5
B2C5
  8
0
 62
     7
  0
BLOCK
  8
0
 62
     7
  2
*U847
 70
     1
 10
0.0
 20
0.0
 30
0.0
  3
*U847
  1

  0
TEXT
  5
B2C7
  8
0
  6
CONTINUOUS
 62
     0
 10
1015.11205476757
 20
-625.20874858942295
 30
0.0
 40
2.5
  1
4
 50
90.0
  0
ENDBLK
  5
B2C9
  8
0
 62
     7
  0
BLOCK
  8
0
 62
     7
  2
*U848
 70
     1
 10
0.0
 20
0.0
 30
0.0
  3
*U848
  1

  0
TEXT
  5
B2CB
  8
0
  6
CONTINUOUS
 62
     0
 10
1019.019939635639
 20
-726.25328828324336
 30
0.0
 40
2.5
  1
5
  0
ENDBLK
  5
B2CD
  8
0
 62
     7
  0
BLOCK
  8
0
 62
     7
  2
*U849
 70
     1
 10
0.0
 20
0.0
 30
0.0
  3
*U849
  1

  0
TEXT
  5
B2CF
  8
0
  6
CONTINUOUS
 62
     0
 10
1012.519939635639
 20
-726.25328828324336
 30
0.0
 40
2.5
  1
8
  0
ENDBLK
  5
B2D1
  8
0
 62
     7
  0
BLOCK
  8
0
 62
     7
  2
*U850
 70
     1
 10
0.0
 20
0.0
 30
0.0
  3
*U850
  1

  0
TEXT
  5
B2D3
  8
0
  6
CONTINUOUS
 62
     0
 10
1004.519939635639
 20
-726.25328828324336
 30
0.0
 40
2.5
  1
8
  0
ENDBLK
  5
B2D5
  8
0
 62
     7
  0
BLOCK
  8
0
 62
     7
  2
*U851
 70
     1
 10
0.0
 20
0.0
 30
0.0
  3
*U851
  1

  0
TEXT
  5
B2D7
  8
0
  6
CONTINUOUS
 62
     0
 10
995.65248121943785
 20
-709.33591640180316
 30
0.0
 40
2.5
  1
8
 50
90.0
  0
ENDBLK
  5
B2D9
  8
0
 62
     7
  0
BLOCK
  8
0
 62
     7
  2
*U852
 70
     1
 10
0.0
 20
0.0
 30
0.0
  3
*U852
  1

  0
TEXT
  5
B2DB
  8
0
  6
CONTINUOUS
 62
     0
 10
1013.367481873507
 20
-709.33591640180316
 30
0.0
 40
2.5
  1
5
 50
90.0
  0
ENDBLK
  5
B2DD
  8
0
 62
     7
  0
BLOCK
  8
0
 62
     7
  2
*U853
 70
     1
 10
0.0
 20
0.0
 30
0.0
  3
*U853
  1

  0
TEXT
  5
B2DF
  8
0
  6
CONTINUOUS
 62
     0
 10
994.69419712738897
 20
-794.08808421418348
 30
0.0
 40
2.5
  1
10
 50
90.0
  0
ENDBLK
  5
B2E1
  8
0
 62
     7
  0
BLOCK
  8
0
 62
     7
  2
*U854
 70
     1
 10
0.0
 20
0.0
 30
0.0
  3
*U854
  1

  0
TEXT
  5
B2E3
  8
0
  6
CONTINUOUS
 62
     0
 10
1004.519939635639
 20
-809.71242225156698
 30
0.0
 40
2.5
  1
8
  0
ENDBLK
  5
B2E5
  8
0
 62
     7
  0
BLOCK
  8
0
 62
     7
  2
*U855
 70
     1
 10
0.0
 20
0.0
 30
0.0
  3
*U855
  1

  0
TEXT
  5
B2E7
  8
0
  6
CONTINUOUS
 62
     0
 10
1012.519939635639
 20
-809.71242225156698
 30
0.0
 40
2.5
  1
8
  0
ENDBLK
  5
B2E9
  8
0
 62
     7
  0
BLOCK
  8
0
 62
     7
  2
*U856
 70
     1
 10
0.0
 20
0.0
 30
0.0
  3
*U856
  1

  0
TEXT
  5
B2EB
  8
0
  6
CONTINUOUS
 62
     0
 10
1020.894939635639
 20
-809.71242225156698
 30
0.0
 40
2.5
  1
10
  0
ENDBLK
  5
B2ED
  8
0
 62
     7
  0
BLOCK
  8
0
 62
     7
  2
*U857
 70
     1
 10
0.0
 20
0.0
 30
0.0
  3
*U857
  1

  0
TEXT
  5
B2EF
  8
0
  6
CONTINUOUS
 62
     0
 10
1019.019939635639
 20
-894.30089072425733
 30
0.0
 40
2.5
  1
5
  0
ENDBLK
  5
B2F1
  8
0
 62
     7
  0
BLOCK
  8
0
 62
     7
  2
*U858
 70
     1
 10
0.0
 20
0.0
 30
0.0
  3
*U858
  1

  0
TEXT
  5
B2F3
  8
0
  6
CONTINUOUS
 62
     0
 10
1012.519939635639
 20
-894.30089072425733
 30
0.0
 40
2.5
  1
8
  0
ENDBLK
  5
B2F5
  8
0
 62
     7
  0
BLOCK
  8
0
 62
     7
  2
*U859
 70
     1
 10
0.0
 20
0.0
 30
0.0
  3
*U859
  1

  0
TEXT
  5
B2F7
  8
0
  6
CONTINUOUS
 62
     0
 10
1004.519939635639
 20
-894.30089072425733
 30
0.0
 40
2.5
  1
8
  0
ENDBLK
  5
B2F9
  8
0
 62
     7
  0
BLOCK
  8
0
 62
     7
  2
*U860
 70
     1
 10
0.0
 20
0.0
 30
0.0
  3
*U860
  1

  0
TEXT
  5
B2FB
  8
0
  6
CONTINUOUS
 62
     0
 10
995.34687781670937
 20
-878.2152520265638
 30
0.0
 40
2.5
  1
10
 50
90.0
  0
ENDBLK
  5
B2FD
  8
0
 62
     7
  0
BLOCK
  8
0
 62
     7
  2
*U861
 70
     1
 10
0.0
 20
0.0
 30
0.0
  3
*U861
  1

  0
TEXT
  5
B2FF
  8
0
  6
CONTINUOUS
 62
     0
 10
1025.6866063023051
 20
-978.42805853663742
 30
0.0
 40
2.5
  1
12
  0
ENDBLK
  5
B301
  8
0
 62
     7
  0
BLOCK
  8
0
 62
     7
  2
*U862
 70
     1
 10
0.0
 20
0.0
 30
0.0
  3
*U862
  1

  0
TEXT
  5
B303
  8
0
  6
CONTINUOUS
 62
     0
 10
1014.894939635639
 20
-978.42805853663742
 30
0.0
 40
2.5
  1
10
  0
ENDBLK
  5
B305
  8
0
 62
     7
  0
BLOCK
  8
0
 62
     7
  2
*U863
 70
     1
 10
0.0
 20
0.0
 30
0.0
  3
*U863
  1

  0
TEXT
  5
B307
  8
0
  6
CONTINUOUS
 62
     0
 10
1004.894939635639
 20
-978.42805853663742
 30
0.0
 40
2.5
  1
10
  0
ENDBLK
  5
B309
  8
0
 62
     7
  0
BLOCK
  8
0
 62
     7
  2
*U864
 70
     1
 10
0.0
 20
0.0
 30
0.0
  3
*U864
  1

  0
TEXT
  5
B30B
  8
0
  6
CONTINUOUS
 62
     0
 10
992.29992740663704
 20
-962.55075317227727
 30
0.0
 40
2.5
  1
12
 50
90.0
  0
ENDBLK
  5
B30D
  8
0
 62
     7
  0
BLOCK
  8
0
 62
     7
  2
*U865
 70
     1
 10
0.0
 20
0.0
 30
0.0
  3
*U865
  1

  0
TEXT
  5
B30F
  8
0
  6
CONTINUOUS
 62
     0
 10
1025.6866063023051
 20
-1062.5552263490181
 30
0.0
 40
2.5
  1
12
  0
ENDBLK
  5
B311
  8
0
 62
     7
  0
BLOCK
  8
0
 62
     7
  2
*U866
 70
     1
 10
0.0
 20
0.0
 30
0.0
  3
*U866
  1

  0
TEXT
  5
B313
  8
0
  6
CONTINUOUS
 62
     0
 10
1014.894939635639
 20
-1062.5552263490181
 30
0.0
 40
2.5
  1
10
  0
ENDBLK
  5
B315
  8
0
 62
     7
  0
BLOCK
  8
0
 62
     7
  2
*U867
 70
     1
 10
0.0
 20
0.0
 30
0.0
  3
*U867
  1

  0
TEXT
  5
B317
  8
0
  6
CONTINUOUS
 62
     0
 10
1004.894939635639
 20
-1062.5552263490181
 30
0.0
 40
2.5
  1
10
  0
ENDBLK
  5
B319
  8
0
 62
     7
  0
BLOCK
  8
0
 62
     7
  2
*U868
 70
     1
 10
0.0
 20
0.0
 30
0.0
  3
*U868
  1

  0
TEXT
  5
B31B
  8
0
  6
CONTINUOUS
 62
     0
 10
993.04328166357516
 20
-1046.677920984657
 30
0.0
 40
2.5
  1
16
 50
90.0
  0
ENDBLK
  5
B31D
  8
0
 62
     7
  0
BLOCK
  8
0
 62
     7
  2
*U869
 70
     1
 10
0.0
 20
0.0
 30
0.0
  3
*U869
  1

  0
TEXT
  5
B31F
  8
0
  6
CONTINUOUS
 62
     0
 10
1012.277923364827
 20
-793.4630842141836
 30
0.0
 40
2.5
  1
7
 50
90.0
  0
ENDBLK
  5
B321
  8
0
 62
     7
  0
BLOCK
  8
0
 62
     7
  2
*U870
 70
     1
 10
0.0
 20
0.0
 30
0.0
  3
*U870
  1

  0
TEXT
  5
B323
  8
0
  6
CONTINUOUS
 62
     0
 10
1079.240878677258
 20
-639.57254372820694
 30
0.0
 40
2.5
  1
9,8
  0
ENDBLK
  5
B325
  8
0
 62
     7
  0
BLOCK
  8
0
 62
     7
  2
*U871
 70
     1
 10
0.0
 20
0.0
 30
0.0
  3
*U871
  1

  0
TEXT
  5
B327
  8
0
  6
CONTINUOUS
 62
     0
 10
1423.287474815136
 20
-639.57254372820694
 30
0.0
 40
2.5
  1
8,8
  0
ENDBLK
  5
B329
  8
0
 62
     7
  0
BLOCK
  8
0
 62
     7
  2
*U872
 70
     1
 10
0.0
 20
0.0
 30
0.0
  3
*U872
  1

  0
TEXT
  5
B32B
  8
0
  6
CONTINUOUS
 62
     0
 10
1440.692936620587
 20
-627.08374858942284
 30
0.0
 40
2.5
  1
9,8
 50
90.0
  0
ENDBLK
  5
B32D
  8
0
 62
     7
  0
BLOCK
  8
0
 62
     7
  2
*U873
 70
     1
 10
0.0
 20
0.0
 30
0.0
  3
*U873
  1

  0
TEXT
  5
B32F
  8
0
  6
CONTINUOUS
 62
     0
 10
1424.662474815136
 20
-615.38291430622314
 30
0.0
 40
2.5
  1
3
  0
ENDBLK
  5
B331
  8
0
 62
     7
  0
BLOCK
  8
0
 62
     7
  2
*U874
 70
     1
 10
0.0
 20
0.0
 30
0.0
  3
*U874
  1

  0
TEXT
  5
B333
  8
0
  6
CONTINUOUS
 62
     0
 10
1422.7874748151371
 20
-609.9657110274112
 30
0.0
 40
2.5
  1
60Åã
  0
ENDBLK
  5
B335
  8
0
 62
     7
  0
BLOCK
  8
0
 62
     7
  2
*U875
 70
     1
 10
0.0
 20
0.0
 30
0.0
  3
*U875
  1

  0
TEXT
  5
B337
  8
0
  6
CONTINUOUS
 62
     0
 10
1085.505621555277
 20
-723.69971154058726
 30
0.0
 40
2.5
  1
12,8
  0
ENDBLK
  5
B339
  8
0
 62
     7
  0
BLOCK
  8
0
 62
     7
  2
*U876
 70
     1
 10
0.0
 20
0.0
 30
0.0
  3
*U876
  1

  0
TEXT
  5
B33B
  8
0
  6
CONTINUOUS
 62
     0
 10
1429.9688843598231
 20
-723.69971154058726
 30
0.0
 40
2.5
  1
11,8
  0
ENDBLK
  5
B33D
  8
0
 62
     7
  0
BLOCK
  8
0
 62
     7
  2
*U877
 70
     1
 10
0.0
 20
0.0
 30
0.0
  3
*U877
  1

  0
TEXT
  5
B33F
  8
0
  6
CONTINUOUS
 62
     0
 10
1447.79101283194
 20
-712.04424973513642
 30
0.0
 40
2.5
  1
12,8
 50
90.0
  0
ENDBLK
  5
B341
  8
0
 62
     7
  0
BLOCK
  8
0
 62
     7
  2
*U878
 70
     1
 10
0.0
 20
0.0
 30
0.0
  3
*U878
  1

  0
TEXT
  5
B343
  8
0
  6
CONTINUOUS
 62
     0
 10
1429.88555102649
 20
-697.95712703983213
 30
0.0
 40
2.5
  1
3,5
  0
ENDBLK
  5
B345
  8
0
 62
     7
  0
BLOCK
  8
0
 62
     7
  2
*U879
 70
     1
 10
0.0
 20
0.0
 30
0.0
  3
*U879
  1

  0
TEXT
  5
B347
  8
0
  6
CONTINUOUS
 62
     0
 10
1429.88555102649
 20
-691.01490595753239
 30
0.0
 40
2.5
  1
60Åã
  0
ENDBLK
  5
B349
  8
0
 62
     7
  0
BLOCK
  8
0
 62
     7
  2
*U880
 70
     1
 10
0.0
 20
0.0
 30
0.0
  3
*U880
  1

  0
TEXT
  5
B34B
  8
0
  6
CONTINUOUS
 62
     0
 10
1095.2376723628461
 20
-807.82687935296747
 30
0.0
 40
2.5
  1
14,8
  0
ENDBLK
  5
B34D
  8
0
 62
     7
  0
BLOCK
  8
0
 62
     7
  2
*U881
 70
     1
 10
0.0
 20
0.0
 30
0.0
  3
*U881
  1

  0
TEXT
  5
B34F
  8
0
  6
CONTINUOUS
 62
     0
 10
1439.2842685007249
 20
-807.82687935296747
 30
0.0
 40
2.5
  1
13,8
  0
ENDBLK
  5
B351
  8
0
 62
     7
  0
BLOCK
  8
0
 62
     7
  2
*U882
 70
     1
 10
0.0
 20
0.0
 30
0.0
  3
*U882
  1

  0
TEXT
  5
B353
  8
0
  6
CONTINUOUS
 62
     0
 10
1457.523063639509
 20
-796.17141754751674
 30
0.0
 40
2.5
  1
14,8
 50
90.0
  0
ENDBLK
  5
B355
  8
0
 62
     7
  0
BLOCK
  8
0
 62
     7
  2
*U883
 70
     1
 10
0.0
 20
0.0
 30
0.0
  3
*U883
  1

  0
TEXT
  5
B357
  8
0
  6
CONTINUOUS
 62
     0
 10
1441.4926018340591
 20
-779.07219159965359
 30
0.0
 40
2.5
  1
4
  0
ENDBLK
  5
B359
  8
0
 62
     7
  0
BLOCK
  8
0
 62
     7
  2
*U884
 70
     1
 10
0.0
 20
0.0
 30
0.0
  3
*U884
  1

  0
TEXT
  5
B35B
  8
0
  6
CONTINUOUS
 62
     0
 10
1439.6176018340591
 20
-771.11905197244437
 30
0.0
 40
2.5
  1
60Åã
  0
ENDBLK
  5
B35D
  8
0
 62
     7
  0
BLOCK
  8
0
 62
     7
  2
*U885
 70
     1
 10
0.0
 20
0.0
 30
0.0
  3
*U885
  1

  0
TEXT
  5
B35F
  8
0
  6
CONTINUOUS
 62
     0
 10
1084.510265752534
 20
-891.95404716534779
 30
0.0
 40
2.5
  1
14,8
  0
ENDBLK
  5
B361
  8
0
 62
     7
  0
BLOCK
  8
0
 62
     7
  2
*U886
 70
     1
 10
0.0
 20
0.0
 30
0.0
  3
*U886
  1

  0
TEXT
  5
B363
  8
0
  6
CONTINUOUS
 62
     0
 10
1428.5568618904131
 20
-891.95404716534779
 30
0.0
 40
2.5
  1
13,8
  0
ENDBLK
  5
B365
  8
0
 62
     7
  0
BLOCK
  8
0
 62
     7
  2
*U887
 70
     1
 10
0.0
 20
0.0
 30
0.0
  3
*U887
  1

  0
TEXT
  5
B367
  8
0
  6
CONTINUOUS
 62
     0
 10
1446.7956570291969
 20
-880.29858535989695
 30
0.0
 40
2.5
  1
14,8
 50
90.0
  0
ENDBLK
  5
B369
  8
0
 62
     7
  0
BLOCK
  8
0
 62
     7
  2
*U888
 70
     1
 10
0.0
 20
0.0
 30
0.0
  3
*U888
  1

  0
TEXT
  5
B36B
  8
0
  6
CONTINUOUS
 62
     0
 10
1430.7651952237461
 20
-864.2900624194599
 30
0.0
 40
2.5
  1
5
  0
ENDBLK
  5
B36D
  8
0
 62
     7
  0
BLOCK
  8
0
 62
     7
  2
*U889
 70
     1
 10
0.0
 20
0.0
 30
0.0
  3
*U889
  1

  0
TEXT
  5
B36F
  8
0
  6
CONTINUOUS
 62
     0
 10
1428.8901952237461
 20
-858.42165444205239
 30
0.0
 40
2.5
  1
60Åã
  0
ENDBLK
  5
B371
  8
0
 62
     7
  0
BLOCK
  8
0
 62
     7
  2
*U890
 70
     1
 10
0.0
 20
0.0
 30
0.0
  3
*U890
  1

  0
TEXT
  5
B373
  8
0
  6
CONTINUOUS
 62
     0
 10
1100.2423165601031
 20
-976.08121497772811
 30
0.0
 40
2.5
  1
16,8
  0
ENDBLK
  5
B375
  8
0
 62
     7
  0
BLOCK
  8
0
 62
     7
  2
*U891
 70
     1
 10
0.0
 20
0.0
 30
0.0
  3
*U891
  1

  0
TEXT
  5
B377
  8
0
  6
CONTINUOUS
 62
     0
 10
1444.288912697981
 20
-976.08121497772811
 30
0.0
 40
2.5
  1
15,8
  0
ENDBLK
  5
B379
  8
0
 62
     7
  0
BLOCK
  8
0
 62
     7
  2
*U892
 70
     1
 10
0.0
 20
0.0
 30
0.0
  3
*U892
  1

  0
TEXT
  5
B37B
  8
0
  6
CONTINUOUS
 62
     0
 10
1462.527707836766
 20
-964.42575317227727
 30
0.0
 40
2.5
  1
16,8
 50
90.0
  0
ENDBLK
  5
B37D
  8
0
 62
     7
  0
BLOCK
  8
0
 62
     7
  2
*U893
 70
     1
 10
0.0
 20
0.0
 30
0.0
  3
*U893
  1

  0
TEXT
  5
B37F
  8
0
  6
CONTINUOUS
 62
     0
 10
1446.4972460313149
 20
-947.01490992825745
 30
0.0
 40
2.5
  1
6
  0
ENDBLK
  5
B381
  8
0
 62
     7
  0
BLOCK
  8
0
 62
     7
  2
*U894
 70
     1
 10
0.0
 20
0.0
 30
0.0
  3
*U894
  1

  0
TEXT
  5
B383
  8
0
  6
CONTINUOUS
 62
     0
 10
1444.6222460313149
 20
-936.9641291235074
 30
0.0
 40
2.5
  1
60Åã
  0
ENDBLK
  5
B385
  8
0
 62
     7
  0
BLOCK
  8
0
 62
     7
  2
*U895
 70
     1
 10
0.0
 20
0.0
 30
0.0
  3
*U895
  1

  0
TEXT
  5
B387
  8
0
  6
CONTINUOUS
 62
     0
 10
1109.208740273868
 20
-1063.9181325401489
 30
0.0
 40
2.5
  1
21,8
  0
ENDBLK
  5
B389
  8
0
 62
     7
  0
BLOCK
  8
0
 62
     7
  2
*U896
 70
     1
 10
0.0
 20
0.0
 30
0.0
  3
*U896
  1

  0
TEXT
  5
B38B
  8
0
  6
CONTINUOUS
 62
     0
 10
1453.047003078414
 20
-1063.9181325401489
 30
0.0
 40
2.5
  1
20,8
  0
ENDBLK
  5
B38D
  8
0
 62
     7
  0
BLOCK
  8
0
 62
     7
  2
*U897
 70
     1
 10
0.0
 20
0.0
 30
0.0
  3
*U897
  1

  0
TEXT
  5
B38F
  8
0
  6
CONTINUOUS
 62
     0
 10
1481.2000799714081
 20
-1048.5529209846579
 30
0.0
 40
2.5
  1
21,8
 50
90.0
  0
ENDBLK
  5
B391
  8
0
 62
     7
  0
BLOCK
  8
0
 62
     7
  2
*U898
 70
     1
 10
0.0
 20
0.0
 30
0.0
  3
*U898
  1

  0
TEXT
  5
B393
  8
0
  6
CONTINUOUS
 62
     0
 10
1455.463669745081
 20
-1024.3472390690561
 30
0.0
 40
2.5
  1
8
  0
ENDBLK
  5
B395
  8
0
 62
     7
  0
BLOCK
  8
0
 62
     7
  2
*U899
 70
     1
 10
0.0
 20
0.0
 30
0.0
  3
*U899
  1

  0
TEXT
  5
B397
  8
0
  6
CONTINUOUS
 62
     0
 10
1453.588669745081
 20
-1015.969777697723
 30
0.0
 40
2.5
  1
60Åã
  0
ENDBLK
  5
B399
  8
0
 62
     7
  0
BLOCK
  8
0
 62
     7
  2
*U900
 70
     1
 10
0.0
 20
0.0
 30
0.0
  3
*U900
  1

  0
TEXT
  5
B39B
  8
0
  6
CONTINUOUS
 62
     0
 10
1118.2561752223401
 20
-1154.3617803942791
 30
0.0
 40
2.5
  1
25,8
  0
ENDBLK
  5
B39D
  8
0
 62
     7
  0
BLOCK
  8
0
 62
     7
  2
*U901
 70
     1
 10
0.0
 20
0.0
 30
0.0
  3
*U901
  1

  0
TEXT
  5
B39F
  8
0
  6
CONTINUOUS
 62
     0
 10
1462.3027713602189
 20
-1154.3617803942791
 30
0.0
 40
2.5
  1
24,8
  0
ENDBLK
  5
B3A1
  8
0
 62
     7
  0
BLOCK
  8
0
 62
     7
  2
*U902
 70
     1
 10
0.0
 20
0.0
 30
0.0
  3
*U902
  1

  0
TEXT
  5
B3A3
  8
0
  6
CONTINUOUS
 62
     0
 10
1494.2539569589801
 20
-1133.096755463705
 30
0.0
 40
2.5
  1
25,8
 50
90.0
  0
ENDBLK
  5
B3A5
  8
0
 62
     7
  0
BLOCK
  8
0
 62
     7
  2
*U903
 70
     1
 10
0.0
 20
0.0
 30
0.0
  3
*U903
  1

  0
TEXT
  5
B3A7
  8
0
  6
CONTINUOUS
 62
     0
 10
1464.9277713602189
 20
-1109.2426058920221
 30
0.0
 40
2.5
  1
9
  0
ENDBLK
  5
B3A9
  8
0
 62
     7
  0
BLOCK
  8
0
 62
     7
  2
*U904
 70
     1
 10
0.0
 20
0.0
 30
0.0
  3
*U904
  1

  0
TEXT
  5
B3AB
  8
0
  6
CONTINUOUS
 62
     0
 10
1463.0527713602189
 20
-1102.792121159335
 30
0.0
 40
2.5
  1
60Åã
  0
ENDBLK
  5
B3AD
  8
0
 62
     7
  0
BLOCK
  8
0
 62
     7
  2
*U905
 70
     1
 10
0.0
 20
0.0
 30
0.0
  3
*U905
  1

  0
TEXT
  5
B3AF
  8
0
  6
CONTINUOUS
 62
     0
 10
984.78560383850618
 20
-1131.0134221303711
 30
0.0
 40
2.5
  1
20
 50
90.0
  0
ENDBLK
  5
B3B1
  8
0
 62
     7
  0
BLOCK
  8
0
 62
     7
  2
*U906
 70
     1
 10
0.0
 20
0.0
 30
0.0
  3
*U906
  1

  0
TEXT
  5
B3B3
  8
0
  6
CONTINUOUS
 62
     0
 10
1004.894939635639
 20
-1153.891502318259
 30
0.0
 40
2.5
  1
10
  0
ENDBLK
  5
B3B5
  8
0
 62
     7
  0
BLOCK
  8
0
 62
     7
  2
*U907
 70
     1
 10
0.0
 20
0.0
 30
0.0
  3
*U907
  1

  0
TEXT
  5
B3B7
  8
0
  6
CONTINUOUS
 62
     0
 10
1014.894939635639
 20
-1153.891502318259
 30
0.0
 40
2.5
  1
10
  0
ENDBLK
  5
B3B9
  8
0
 62
     7
  0
BLOCK
  8
0
 62
     7
  2
*U908
 70
     1
 10
0.0
 20
0.0
 30
0.0
  3
*U908
  1

  0
TEXT
  5
B3BB
  8
0
  6
CONTINUOUS
 62
     0
 10
1025.6866063023051
 20
-1154.4308597659649
 30
0.0
 40
2.5
  1
12
  0
ENDBLK
  5
B3BD
  8
0
 62
     7
  0
BLOCK
  8
0
 62
     7
  2
*U909
 70
     1
 10
0.0
 20
0.0
 30
0.0
  3
*U909
  1

  0
TEXT
  5
B3BF
  8
0
  6
CONTINUOUS
 62
     0
 10
725.81801406216005
 20
21.11034398411979
 30
0.0
 40
2.5
  1
6
  0
ENDBLK
  5
B3C1
  8
0
 62
     7
  0
BLOCK
  8
0
 62
     7
  2
*U910
 70
     1
 10
0.0
 20
0.0
 30
0.0
  3
*U910
  1

  0
TEXT
  5
B3C3
  8
0
  6
CONTINUOUS
 62
     0
 10
732.81801406216005
 20
21.11034398411979
 30
0.0
 40
2.5
  1
8
  0
ENDBLK
  5
B3C5
  8
0
 62
     7
  0
BLOCK
  8
0
 62
     7
  2
*U911
 70
     1
 10
0.0
 20
0.0
 30
0.0
  3
*U911
  1

  0
TEXT
  5
B3C7
  8
0
  6
CONTINUOUS
 62
     0
 10
716.43832589675105
 20
38.027715865560069
 30
0.0
 40
2.5
  1
6
 50
90.0
  0
ENDBLK
  5
B3C9
  8
0
 62
     7
  0
BLOCK
  8
0
 62
     7
  2
*U912
 70
     1
 10
0.0
 20
0.0
 30
0.0
  3
*U912
  1

  0
TEXT
  5
B3CB
  8
0
  6
CONTINUOUS
 62
     0
 10
727.19301406216005
 20
-63.016823828260527
 30
0.0
 40
2.5
  1
10
  0
ENDBLK
  5
B3CD
  8
0
 62
     7
  0
BLOCK
  8
0
 62
     7
  2
*U913
 70
     1
 10
0.0
 20
0.0
 30
0.0
  3
*U913
  1

  0
TEXT
  5
B3CF
  8
0
  6
CONTINUOUS
 62
     0
 10
736.81801406216005
 20
-63.016823828260527
 30
0.0
 40
2.5
  1
8
  0
ENDBLK
  5
B3D1
  8
0
 62
     7
  0
BLOCK
  8
0
 62
     7
  2
*U914
 70
     1
 10
0.0
 20
0.0
 30
0.0
  3
*U914
  1

  0
TEXT
  5
B3D3
  8
0
  6
CONTINUOUS
 62
     0
 10
716.43832589675105
 20
-46.099451946820253
 30
0.0
 40
2.5
  1
8
 50
90.0
  0
ENDBLK
  5
B3D5
  8
0
 62
     7
  0
BLOCK
  8
0
 62
     7
  2
*U915
 70
     1
 10
0.0
 20
0.0
 30
0.0
  3
*U915
  1

  0
TEXT
  5
B3D7
  8
0
  6
CONTINUOUS
 62
     0
 10
730.98468072882667
 20
-147.14399164064079
 30
0.0
 40
2.5
  1
18
  0
ENDBLK
  5
B3D9
  8
0
 62
     7
  0
BLOCK
  8
0
 62
     7
  2
*U916
 70
     1
 10
0.0
 20
0.0
 30
0.0
  3
*U916
  1

  0
TEXT
  5
B3DB
  8
0
  6
CONTINUOUS
 62
     0
 10
745.19301406216005
 20
-147.14399164064079
 30
0.0
 40
2.5
  1
10
  0
ENDBLK
  5
B3DD
  8
0
 62
     7
  0
BLOCK
  8
0
 62
     7
  2
*U917
 70
     1
 10
0.0
 20
0.0
 30
0.0
  3
*U917
  1

  0
TEXT
  5
B3DF
  8
0
  6
CONTINUOUS
 62
     0
 10
716.43832589675105
 20
-130.85161975920059
 30
0.0
 40
2.5
  1
10
 50
90.0
  0
ENDBLK
  5
B3E1
  8
0
 62
     7
  0
BLOCK
  8
0
 62
     7
  2
*U918
 70
     1
 10
0.0
 20
0.0
 30
0.0
  3
*U918
  1

  0
TEXT
  5
B3E3
  8
0
  6
CONTINUOUS
 62
     0
 10
710.27472158757223
 20
-214.97878757158091
 30
0.0
 40
2.5
  1
10
 50
90.0
  0
ENDBLK
  5
B3E5
  8
0
 62
     7
  0
BLOCK
  8
0
 62
     7
  2
*U919
 70
     1
 10
0.0
 20
0.0
 30
0.0
  3
*U919
  1

  0
TEXT
  5
B3E7
  8
0
  6
CONTINUOUS
 62
     0
 10
730.98468122882684
 20
-231.06442626927429
 30
0.0
 40
2.5
  1
18
  0
ENDBLK
  5
B3E9
  8
0
 62
     7
  0
BLOCK
  8
0
 62
     7
  2
*U920
 70
     1
 10
0.0
 20
0.0
 30
0.0
  3
*U920
  1

  0
TEXT
  5
B3EB
  8
0
  6
CONTINUOUS
 62
     0
 10
745.19301456215999
 20
-231.06442626927429
 30
0.0
 40
2.5
  1
10
  0
ENDBLK
  5
B3ED
  8
0
 62
     7
  0
BLOCK
  8
0
 62
     7
  2
*U921
 70
     1
 10
0.0
 20
0.0
 30
0.0
  3
*U921
  1

  0
TEXT
  5
B3EF
  8
0
  6
CONTINUOUS
 62
     0
 10
710.27472158757234
 20
-299.31428871729457
 30
0.0
 40
2.5
  1
12
 50
90.0
  0
ENDBLK
  5
B3F1
  8
0
 62
     7
  0
BLOCK
  8
0
 62
     7
  2
*U922
 70
     1
 10
0.0
 20
0.0
 30
0.0
  3
*U922
  1

  0
TEXT
  5
B3F3
  8
0
  6
CONTINUOUS
 62
     0
 10
729.48468122882684
 20
-315.19159408165473
 30
0.0
 40
2.5
  1
15
  0
ENDBLK
  5
B3F5
  8
0
 62
     7
  0
BLOCK
  8
0
 62
     7
  2
*U923
 70
     1
 10
0.0
 20
0.0
 30
0.0
  3
*U923
  1

  0
TEXT
  5
B3F7
  8
0
  6
CONTINUOUS
 62
     0
 10
742.98468122882684
 20
-315.19159408165473
 30
0.0
 40
2.5
  1
12
  0
ENDBLK
  5
B3F9
  8
0
 62
     7
  0
BLOCK
  8
0
 62
     7
  2
*U924
 70
     1
 10
0.0
 20
0.0
 30
0.0
  3
*U924
  1

  0
TEXT
  5
B3FB
  8
0
  6
CONTINUOUS
 62
     0
 10
710.27472158757234
 20
-383.44145652967489
 30
0.0
 40
2.5
  1
16
 50
90.0
  0
ENDBLK
  5
B3FD
  8
0
 62
     7
  0
BLOCK
  8
0
 62
     7
  2
*U925
 70
     1
 10
0.0
 20
0.0
 30
0.0
  3
*U925
  1

  0
TEXT
  5
B3FF
  8
0
  6
CONTINUOUS
 62
     0
 10
730.98468122882684
 20
-399.31876189403499
 30
0.0
 40
2.5
  1
18
  0
ENDBLK
  5
B401
  8
0
 62
     7
  0
BLOCK
  8
0
 62
     7
  2
*U926
 70
     1
 10
0.0
 20
0.0
 30
0.0
  3
*U926
  1

  0
TEXT
  5
B403
  8
0
  6
CONTINUOUS
 62
     0
 10
747.48468122882684
 20
-399.31876189403499
 30
0.0
 40
2.5
  1
15
  0
ENDBLK
  5
B405
  8
0
 62
     7
  0
BLOCK
  8
0
 62
     7
  2
*U927
 70
     1
 10
0.0
 20
0.0
 30
0.0
  3
*U927
  1

  0
TEXT
  5
B407
  8
0
  6
CONTINUOUS
 62
     0
 10
708.03456645240578
 20
-467.77695767538847
 30
0.0
 40
2.5
  1
20
 50
90.0
  0
ENDBLK
  5
B409
  8
0
 62
     7
  0
BLOCK
  8
0
 62
     7
  2
*U928
 70
     1
 10
0.0
 20
0.0
 30
0.0
  3
*U928
  1

  0
TEXT
  5
B40B
  8
0
  6
CONTINUOUS
 62
     0
 10
732.56801306216005
 20
-491.19439531098249
 30
0.0
 40
2.5
  1
22
  0
ENDBLK
  5
B40D
  8
0
 62
     7
  0
BLOCK
  8
0
 62
     7
  2
*U929
 70
     1
 10
0.0
 20
0.0
 30
0.0
  3
*U929
  1

  0
TEXT
  5
B40F
  8
0
  6
CONTINUOUS
 62
     0
 10
751.48467972882668
 20
-491.19439531098249
 30
0.0
 40
2.5
  1
15
  0
ENDBLK
  5
B411
  8
0
 62
     7
  0
BLOCK
  8
0
 62
     7
  2
*U930
 70
     1
 10
0.0
 20
0.0
 30
0.0
  3
*U930
  1

  0
TEXT
  5
B413
  8
0
  6
CONTINUOUS
 62
     0
 10
1362.566535773517
 20
21.110343984119819
 30
0.0
 40
2.5
  1
5
  0
ENDBLK
  5
B415
  8
0
 62
     7
  0
BLOCK
  8
0
 62
     7
  2
*U931
 70
     1
 10
0.0
 20
0.0
 30
0.0
  3
*U931
  1

  0
TEXT
  5
B417
  8
0
  6
CONTINUOUS
 62
     0
 10
1356.066535773517
 20
21.110343984119819
 30
0.0
 40
2.5
  1
8
  0
ENDBLK
  5
B419
  8
0
 62
     7
  0
BLOCK
  8
0
 62
     7
  2
*U932
 70
     1
 10
0.0
 20
0.0
 30
0.0
  3
*U932
  1

  0
TEXT
  5
B41B
  8
0
  6
CONTINUOUS
 62
     0
 10
1348.066535773517
 20
21.110343984119819
 30
0.0
 40
2.5
  1
8
  0
ENDBLK
  5
B41D
  8
0
 62
     7
  0
BLOCK
  8
0
 62
     7
  2
*U933
 70
     1
 10
0.0
 20
0.0
 30
0.0
  3
*U933
  1

  0
TEXT
  5
B41F
  8
0
  6
CONTINUOUS
 62
     0
 10
1334.142025023523
 20
38.027715865560197
 30
0.0
 40
2.5
  1
6
 50
90.0
  0
ENDBLK
  5
B421
  8
0
 62
     7
  0
BLOCK
  8
0
 62
     7
  2
*U934
 70
     1
 10
0.0
 20
0.0
 30
0.0
  3
*U934
  1

  0
TEXT
  5
B423
  8
0
  6
CONTINUOUS
 62
     0
 10
1358.6586509054489
 20
38.027715865560182
 30
0.0
 40
2.5
  1
4
 50
90.0
  0
ENDBLK
  5
B425
  8
0
 62
     7
  0
BLOCK
  8
0
 62
     7
  2
*U935
 70
     1
 10
0.0
 20
0.0
 30
0.0
  3
*U935
  1

  0
TEXT
  5
B427
  8
0
  6
CONTINUOUS
 62
     0
 10
1362.566535773517
 20
-63.016823828260527
 30
0.0
 40
2.5
  1
5
  0
ENDBLK
  5
B429
  8
0
 62
     7
  0
BLOCK
  8
0
 62
     7
  2
*U936
 70
     1
 10
0.0
 20
0.0
 30
0.0
  3
*U936
  1

  0
TEXT
  5
B42B
  8
0
  6
CONTINUOUS
 62
     0
 10
1356.066535773517
 20
-63.016823828260527
 30
0.0
 40
2.5
  1
8
  0
ENDBLK
  5
B42D
  8
0
 62
     7
  0
BLOCK
  8
0
 62
     7
  2
*U937
 70
     1
 10
0.0
 20
0.0
 30
0.0
  3
*U937
  1

  0
TEXT
  5
B42F
  8
0
  6
CONTINUOUS
 62
     0
 10
1348.066535773517
 20
-63.016823828260527
 30
0.0
 40
2.5
  1
8
  0
ENDBLK
  5
B431
  8
0
 62
     7
  0
BLOCK
  8
0
 62
     7
  2
*U938
 70
     1
 10
0.0
 20
0.0
 30
0.0
  3
*U938
  1

  0
TEXT
  5
B433
  8
0
  6
CONTINUOUS
 62
     0
 10
1339.1990773573159
 20
-46.09945194682016
 30
0.0
 40
2.5
  1
8
 50
90.0
  0
ENDBLK
  5
B435
  8
0
 62
     7
  0
BLOCK
  8
0
 62
     7
  2
*U939
 70
     1
 10
0.0
 20
0.0
 30
0.0
  3
*U939
  1

  0
TEXT
  5
B437
  8
0
  6
CONTINUOUS
 62
     0
 10
1356.9140780113851
 20
-46.099451946820153
 30
0.0
 40
2.5
  1
5
 50
90.0
  0
ENDBLK
  5
B439
  8
0
 62
     7
  0
BLOCK
  8
0
 62
     7
  2
*U940
 70
     1
 10
0.0
 20
0.0
 30
0.0
  3
*U940
  1

  0
TEXT
  5
B43B
  8
0
  6
CONTINUOUS
 62
     0
 10
1338.240793265267
 20
-130.85161975920039
 30
0.0
 40
2.5
  1
10
 50
90.0
  0
ENDBLK
  5
B43D
  8
0
 62
     7
  0
BLOCK
  8
0
 62
     7
  2
*U941
 70
     1
 10
0.0
 20
0.0
 30
0.0
  3
*U941
  1

  0
TEXT
  5
B43F
  8
0
  6
CONTINUOUS
 62
     0
 10
1348.066535773517
 20
-146.47595779658411
 30
0.0
 40
2.5
  1
8
  0
ENDBLK
  5
B441
  8
0
 62
     7
  0
BLOCK
  8
0
 62
     7
  2
*U942
 70
     1
 10
0.0
 20
0.0
 30
0.0
  3
*U942
  1

  0
TEXT
  5
B443
  8
0
  6
CONTINUOUS
 62
     0
 10
1356.066535773517
 20
-146.47595779658411
 30
0.0
 40
2.5
  1
8
  0
ENDBLK
  5
B445
  8
0
 62
     7
  0
BLOCK
  8
0
 62
     7
  2
*U943
 70
     1
 10
0.0
 20
0.0
 30
0.0
  3
*U943
  1

  0
TEXT
  5
B447
  8
0
  6
CONTINUOUS
 62
     0
 10
1364.4415357735179
 20
-146.47595779658411
 30
0.0
 40
2.5
  1
10
  0
ENDBLK
  5
B449
  8
0
 62
     7
  0
BLOCK
  8
0
 62
     7
  2
*U944
 70
     1
 10
0.0
 20
0.0
 30
0.0
  3
*U944
  1

  0
TEXT
  5
B44B
  8
0
  6
CONTINUOUS
 62
     0
 10
1362.566535773517
 20
-231.06442626927429
 30
0.0
 40
2.5
  1
5
  0
ENDBLK
  5
B44D
  8
0
 62
     7
  0
BLOCK
  8
0
 62
     7
  2
*U945
 70
     1
 10
0.0
 20
0.0
 30
0.0
  3
*U945
  1

  0
TEXT
  5
B44F
  8
0
  6
CONTINUOUS
 62
     0
 10
1356.066535773517
 20
-231.06442626927429
 30
0.0
 40
2.5
  1
8
  0
ENDBLK
  5
B451
  8
0
 62
     7
  0
BLOCK
  8
0
 62
     7
  2
*U946
 70
     1
 10
0.0
 20
0.0
 30
0.0
  3
*U946
  1

  0
TEXT
  5
B453
  8
0
  6
CONTINUOUS
 62
     0
 10
1348.066535773517
 20
-231.06442626927429
 30
0.0
 40
2.5
  1
8
  0
ENDBLK
  5
B455
  8
0
 62
     7
  0
BLOCK
  8
0
 62
     7
  2
*U947
 70
     1
 10
0.0
 20
0.0
 30
0.0
  3
*U947
  1

  0
TEXT
  5
B457
  8
0
  6
CONTINUOUS
 62
     0
 10
1338.893473954588
 20
-214.9787875715808
 30
0.0
 40
2.5
  1
10
 50
90.0
  0
ENDBLK
  5
B459
  8
0
 62
     7
  0
BLOCK
  8
0
 62
     7
  2
*U948
 70
     1
 10
0.0
 20
0.0
 30
0.0
  3
*U948
  1

  0
TEXT
  5
B45B
  8
0
  6
CONTINUOUS
 62
     0
 10
1369.233202440184
 20
-315.19159408165461
 30
0.0
 40
2.5
  1
12
  0
ENDBLK
  5
B45D
  8
0
 62
     7
  0
BLOCK
  8
0
 62
     7
  2
*U949
 70
     1
 10
0.0
 20
0.0
 30
0.0
  3
*U949
  1

  0
TEXT
  5
B45F
  8
0
  6
CONTINUOUS
 62
     0
 10
1358.4415357735179
 20
-315.19159408165461
 30
0.0
 40
2.5
  1
10
  0
ENDBLK
  5
B461
  8
0
 62
     7
  0
BLOCK
  8
0
 62
     7
  2
*U950
 70
     1
 10
0.0
 20
0.0
 30
0.0
  3
*U950
  1

  0
TEXT
  5
B463
  8
0
  6
CONTINUOUS
 62
     0
 10
1348.441535773517
 20
-315.19159408165461
 30
0.0
 40
2.5
  1
10
  0
ENDBLK
  5
B465
  8
0
 62
     7
  0
BLOCK
  8
0
 62
     7
  2
*U951
 70
     1
 10
0.0
 20
0.0
 30
0.0
  3
*U951
  1

  0
TEXT
  5
B467
  8
0
  6
CONTINUOUS
 62
     0
 10
1335.8465235445151
 20
-299.3142887172944
 30
0.0
 40
2.5
  1
12
 50
90.0
  0
ENDBLK
  5
B469
  8
0
 62
     7
  0
BLOCK
  8
0
 62
     7
  2
*U952
 70
     1
 10
0.0
 20
0.0
 30
0.0
  3
*U952
  1

  0
TEXT
  5
B46B
  8
0
  6
CONTINUOUS
 62
     0
 10
1369.233202440184
 20
-399.31876189403499
 30
0.0
 40
2.5
  1
12
  0
ENDBLK
  5
B46D
  8
0
 62
     7
  0
BLOCK
  8
0
 62
     7
  2
*U953
 70
     1
 10
0.0
 20
0.0
 30
0.0
  3
*U953
  1

  0
TEXT
  5
B46F
  8
0
  6
CONTINUOUS
 62
     0
 10
1358.4415357735179
 20
-399.31876189403499
 30
0.0
 40
2.5
  1
10
  0
ENDBLK
  5
B471
  8
0
 62
     7
  0
BLOCK
  8
0
 62
     7
  2
*U954
 70
     1
 10
0.0
 20
0.0
 30
0.0
  3
*U954
  1

  0
TEXT
  5
B473
  8
0
  6
CONTINUOUS
 62
     0
 10
1348.441535773517
 20
-399.31876189403499
 30
0.0
 40
2.5
  1
10
  0
ENDBLK
  5
B475
  8
0
 62
     7
  0
BLOCK
  8
0
 62
     7
  2
*U955
 70
     1
 10
0.0
 20
0.0
 30
0.0
  3
*U955
  1

  0
TEXT
  5
B477
  8
0
  6
CONTINUOUS
 62
     0
 10
1336.589877801453
 20
-383.44145652967478
 30
0.0
 40
2.5
  1
16
 50
90.0
  0
ENDBLK
  5
B479
  8
0
 62
     7
  0
BLOCK
  8
0
 62
     7
  2
*U956
 70
     1
 10
0.0
 20
0.0
 30
0.0
  3
*U956
  1

  0
TEXT
  5
B47B
  8
0
  6
CONTINUOUS
 62
     0
 10
1328.332199976385
 20
-467.77695767538842
 30
0.0
 40
2.5
  1
20
 50
90.0
  0
ENDBLK
  5
B47D
  8
0
 62
     7
  0
BLOCK
  8
0
 62
     7
  2
*U957
 70
     1
 10
0.0
 20
0.0
 30
0.0
  3
*U957
  1

  0
TEXT
  5
B47F
  8
0
  6
CONTINUOUS
 62
     0
 10
1348.441535773517
 20
-490.65503786327639
 30
0.0
 40
2.5
  1
10
  0
ENDBLK
  5
B481
  8
0
 62
     7
  0
BLOCK
  8
0
 62
     7
  2
*U958
 70
     1
 10
0.0
 20
0.0
 30
0.0
  3
*U958
  1

  0
TEXT
  5
B483
  8
0
  6
CONTINUOUS
 62
     0
 10
1358.4415357735179
 20
-490.65503786327639
 30
0.0
 40
2.5
  1
10
  0
ENDBLK
  5
B485
  8
0
 62
     7
  0
BLOCK
  8
0
 62
     7
  2
*U959
 70
     1
 10
0.0
 20
0.0
 30
0.0
  3
*U959
  1

  0
TEXT
  5
B487
  8
0
  6
CONTINUOUS
 62
     0
 10
1369.233202440184
 20
-491.19439531098249
 30
0.0
 40
2.5
  1
12
  0
ENDBLK
  5
B489
  8
0
 62
     7
  0
BLOCK
  8
0
 62
     7
  2
*U960
 70
     1
 10
0.0
 20
0.0
 30
0.0
  3
*U960
  1

  0
TEXT
  5
B48B
  8
0
  6
CONTINUOUS
 62
     0
 10
725.81801406216005
 20
-642.12612047086316
 30
0.0
 40
2.5
  1
6
  0
ENDBLK
  5
B48D
  8
0
 62
     7
  0
BLOCK
  8
0
 62
     7
  2
*U961
 70
     1
 10
0.0
 20
0.0
 30
0.0
  3
*U961
  1

  0
TEXT
  5
B48F
  8
0
  6
CONTINUOUS
 62
     0
 10
732.81801406216005
 20
-642.12612047086316
 30
0.0
 40
2.5
  1
8
  0
ENDBLK
  5
B491
  8
0
 62
     7
  0
BLOCK
  8
0
 62
     7
  2
*U962
 70
     1
 10
0.0
 20
0.0
 30
0.0
  3
*U962
  1

  0
TEXT
  5
B493
  8
0
  6
CONTINUOUS
 62
     0
 10
716.43832589675105
 20
-625.20874858942295
 30
0.0
 40
2.5
  1
6
 50
90.0
  0
ENDBLK
  5
B495
  8
0
 62
     7
  0
BLOCK
  8
0
 62
     7
  2
*U963
 70
     1
 10
0.0
 20
0.0
 30
0.0
  3
*U963
  1

  0
TEXT
  5
B497
  8
0
  6
CONTINUOUS
 62
     0
 10
727.19301406216005
 20
-726.25328828324336
 30
0.0
 40
2.5
  1
10
  0
ENDBLK
  5
B499
  8
0
 62
     7
  0
BLOCK
  8
0
 62
     7
  2
*U964
 70
     1
 10
0.0
 20
0.0
 30
0.0
  3
*U964
  1

  0
TEXT
  5
B49B
  8
0
  6
CONTINUOUS
 62
     0
 10
736.81801406216005
 20
-726.25328828324336
 30
0.0
 40
2.5
  1
8
  0
ENDBLK
  5
B49D
  8
0
 62
     7
  0
BLOCK
  8
0
 62
     7
  2
*U965
 70
     1
 10
0.0
 20
0.0
 30
0.0
  3
*U965
  1

  0
TEXT
  5
B49F
  8
0
  6
CONTINUOUS
 62
     0
 10
716.43832589675105
 20
-709.33591640180316
 30
0.0
 40
2.5
  1
8
 50
90.0
  0
ENDBLK
  5
B4A1
  8
0
 62
     7
  0
BLOCK
  8
0
 62
     7
  2
*U966
 70
     1
 10
0.0
 20
0.0
 30
0.0
  3
*U966
  1

  0
TEXT
  5
B4A3
  8
0
  6
CONTINUOUS
 62
     0
 10
730.98468072882667
 20
-810.3804560956238
 30
0.0
 40
2.5
  1
18
  0
ENDBLK
  5
B4A5
  8
0
 62
     7
  0
BLOCK
  8
0
 62
     7
  2
*U967
 70
     1
 10
0.0
 20
0.0
 30
0.0
  3
*U967
  1

  0
TEXT
  5
B4A7
  8
0
  6
CONTINUOUS
 62
     0
 10
745.19301406216005
 20
-810.3804560956238
 30
0.0
 40
2.5
  1
10
  0
ENDBLK
  5
B4A9
  8
0
 62
     7
  0
BLOCK
  8
0
 62
     7
  2
*U968
 70
     1
 10
0.0
 20
0.0
 30
0.0
  3
*U968
  1

  0
TEXT
  5
B4AB
  8
0
  6
CONTINUOUS
 62
     0
 10
716.43832589675128
 20
-794.0880842141836
 30
0.0
 40
2.5
  1
10
 50
90.0
  0
ENDBLK
  5
B4AD
  8
0
 62
     7
  0
BLOCK
  8
0
 62
     7
  2
*U969
 70
     1
 10
0.0
 20
0.0
 30
0.0
  3
*U969
  1

  0
TEXT
  5
B4AF
  8
0
  6
CONTINUOUS
 62
     0
 10
710.27472158757234
 20
-878.2152520265638
 30
0.0
 40
2.5
  1
10
 50
90.0
  0
ENDBLK
  5
B4B1
  8
0
 62
     7
  0
BLOCK
  8
0
 62
     7
  2
*U970
 70
     1
 10
0.0
 20
0.0
 30
0.0
  3
*U970
  1

  0
TEXT
  5
B4B3
  8
0
  6
CONTINUOUS
 62
     0
 10
730.98468122882684
 20
-894.30089072425733
 30
0.0
 40
2.5
  1
18
  0
ENDBLK
  5
B4B5
  8
0
 62
     7
  0
BLOCK
  8
0
 62
     7
  2
*U971
 70
     1
 10
0.0
 20
0.0
 30
0.0
  3
*U971
  1

  0
TEXT
  5
B4B7
  8
0
  6
CONTINUOUS
 62
     0
 10
745.19301456215999
 20
-894.30089072425733
 30
0.0
 40
2.5
  1
10
  0
ENDBLK
  5
B4B9
  8
0
 62
     7
  0
BLOCK
  8
0
 62
     7
  2
*U972
 70
     1
 10
0.0
 20
0.0
 30
0.0
  3
*U972
  1

  0
TEXT
  5
B4BB
  8
0
  6
CONTINUOUS
 62
     0
 10
710.27472158757234
 20
-962.55075317227738
 30
0.0
 40
2.5
  1
12
 50
90.0
  0
ENDBLK
  5
B4BD
  8
0
 62
     7
  0
BLOCK
  8
0
 62
     7
  2
*U973
 70
     1
 10
0.0
 20
0.0
 30
0.0
  3
*U973
  1

  0
TEXT
  5
B4BF
  8
0
  6
CONTINUOUS
 62
     0
 10
729.48468122882684
 20
-978.42805853663765
 30
0.0
 40
2.5
  1
15
  0
ENDBLK
  5
B4C1
  8
0
 62
     7
  0
BLOCK
  8
0
 62
     7
  2
*U974
 70
     1
 10
0.0
 20
0.0
 30
0.0
  3
*U974
  1

  0
TEXT
  5
B4C3
  8
0
  6
CONTINUOUS
 62
     0
 10
742.98468122882684
 20
-978.42805853663765
 30
0.0
 40
2.5
  1
12
  0
ENDBLK
  5
B4C5
  8
0
 62
     7
  0
BLOCK
  8
0
 62
     7
  2
*U975
 70
     1
 10
0.0
 20
0.0
 30
0.0
  3
*U975
  1

  0
TEXT
  5
B4C7
  8
0
  6
CONTINUOUS
 62
     0
 10
710.27472158757234
 20
-1046.677920984657
 30
0.0
 40
2.5
  1
16
 50
90.0
  0
ENDBLK
  5
B4C9
  8
0
 62
     7
  0
BLOCK
  8
0
 62
     7
  2
*U976
 70
     1
 10
0.0
 20
0.0
 30
0.0
  3
*U976
  1

  0
TEXT
  5
B4CB
  8
0
  6
CONTINUOUS
 62
     0
 10
730.98468122882684
 20
-1062.5552263490181
 30
0.0
 40
2.5
  1
18
  0
ENDBLK
  5
B4CD
  8
0
 62
     7
  0
BLOCK
  8
0
 62
     7
  2
*U977
 70
     1
 10
0.0
 20
0.0
 30
0.0
  3
*U977
  1

  0
TEXT
  5
B4CF
  8
0
  6
CONTINUOUS
 62
     0
 10
747.48468122882684
 20
-1062.5552263490181
 30
0.0
 40
2.5
  1
15
  0
ENDBLK
  5
B4D1
  8
0
 62
     7
  0
BLOCK
  8
0
 62
     7
  2
*U978
 70
     1
 10
0.0
 20
0.0
 30
0.0
  3
*U978
  1

  0
TEXT
  5
B4D3
  8
0
  6
CONTINUOUS
 62
     0
 10
708.03456645240578
 20
-1131.0134221303711
 30
0.0
 40
2.5
  1
20
 50
90.0
  0
ENDBLK
  5
B4D5
  8
0
 62
     7
  0
BLOCK
  8
0
 62
     7
  2
*U979
 70
     1
 10
0.0
 20
0.0
 30
0.0
  3
*U979
  1

  0
TEXT
  5
B4D7
  8
0
  6
CONTINUOUS
 62
     0
 10
732.56801306216005
 20
-1154.4308597659649
 30
0.0
 40
2.5
  1
22
  0
ENDBLK
  5
B4D9
  8
0
 62
     7
  0
BLOCK
  8
0
 62
     7
  2
*U980
 70
     1
 10
0.0
 20
0.0
 30
0.0
  3
*U980
  1

  0
TEXT
  5
B4DB
  8
0
  6
CONTINUOUS
 62
     0
 10
751.48467972882668
 20
-1154.4308597659649
 30
0.0
 40
2.5
  1
15
  0
ENDBLK
  5
B4DD
  8
0
 62
     7
  0
BLOCK
  8
0
 62
     7
  2
*U981
 70
     1
 10
0.0
 20
0.0
 30
0.0
  3
*U981
  1

  0
TEXT
  5
B4DF
  8
0
  6
CONTINUOUS
 62
     0
 10
1362.566535773517
 20
-642.12612047086316
 30
0.0
 40
2.5
  1
5
  0
ENDBLK
  5
B4E1
  8
0
 62
     7
  0
BLOCK
  8
0
 62
     7
  2
*U982
 70
     1
 10
0.0
 20
0.0
 30
0.0
  3
*U982
  1

  0
TEXT
  5
B4E3
  8
0
  6
CONTINUOUS
 62
     0
 10
1356.066535773517
 20
-642.12612047086316
 30
0.0
 40
2.5
  1
8
  0
ENDBLK
  5
B4E5
  8
0
 62
     7
  0
BLOCK
  8
0
 62
     7
  2
*U983
 70
     1
 10
0.0
 20
0.0
 30
0.0
  3
*U983
  1

  0
TEXT
  5
B4E7
  8
0
  6
CONTINUOUS
 62
     0
 10
1348.066535773517
 20
-642.12612047086316
 30
0.0
 40
2.5
  1
8
  0
ENDBLK
  5
B4E9
  8
0
 62
     7
  0
BLOCK
  8
0
 62
     7
  2
*U984
 70
     1
 10
0.0
 20
0.0
 30
0.0
  3
*U984
  1

  0
TEXT
  5
B4EB
  8
0
  6
CONTINUOUS
 62
     0
 10
1334.142025023523
 20
-625.20874858942284
 30
0.0
 40
2.5
  1
6
 50
90.0
  0
ENDBLK
  5
B4ED
  8
0
 62
     7
  0
BLOCK
  8
0
 62
     7
  2
*U985
 70
     1
 10
0.0
 20
0.0
 30
0.0
  3
*U985
  1

  0
TEXT
  5
B4EF
  8
0
  6
CONTINUOUS
 62
     0
 10
1358.6586509054489
 20
-625.20874858942284
 30
0.0
 40
2.5
  1
4
 50
90.0
  0
ENDBLK
  5
B4F1
  8
0
 62
     7
  0
BLOCK
  8
0
 62
     7
  2
*U986
 70
     1
 10
0.0
 20
0.0
 30
0.0
  3
*U986
  1

  0
TEXT
  5
B4F3
  8
0
  6
CONTINUOUS
 62
     0
 10
1362.566535773517
 20
-726.25328828324336
 30
0.0
 40
2.5
  1
5
  0
ENDBLK
  5
B4F5
  8
0
 62
     7
  0
BLOCK
  8
0
 62
     7
  2
*U987
 70
     1
 10
0.0
 20
0.0
 30
0.0
  3
*U987
  1

  0
TEXT
  5
B4F7
  8
0
  6
CONTINUOUS
 62
     0
 10
1356.066535773517
 20
-726.25328828324336
 30
0.0
 40
2.5
  1
8
  0
ENDBLK
  5
B4F9
  8
0
 62
     7
  0
BLOCK
  8
0
 62
     7
  2
*U988
 70
     1
 10
0.0
 20
0.0
 30
0.0
  3
*U988
  1

  0
TEXT
  5
B4FB
  8
0
  6
CONTINUOUS
 62
     0
 10
1348.066535773517
 20
-726.25328828324336
 30
0.0
 40
2.5
  1
8
  0
ENDBLK
  5
B4FD
  8
0
 62
     7
  0
BLOCK
  8
0
 62
     7
  2
*U989
 70
     1
 10
0.0
 20
0.0
 30
0.0
  3
*U989
  1

  0
TEXT
  5
B4FF
  8
0
  6
CONTINUOUS
 62
     0
 10
1339.199077357317
 20
-709.33591640180305
 30
0.0
 40
2.5
  1
8
 50
90.0
  0
ENDBLK
  5
B501
  8
0
 62
     7
  0
BLOCK
  8
0
 62
     7
  2
*U990
 70
     1
 10
0.0
 20
0.0
 30
0.0
  3
*U990
  1

  0
TEXT
  5
B503
  8
0
  6
CONTINUOUS
 62
     0
 10
1356.9140780113851
 20
-709.33591640180305
 30
0.0
 40
2.5
  1
5
 50
90.0
  0
ENDBLK
  5
B505
  8
0
 62
     7
  0
BLOCK
  8
0
 62
     7
  2
*U991
 70
     1
 10
0.0
 20
0.0
 30
0.0
  3
*U991
  1

  0
TEXT
  5
B507
  8
0
  6
CONTINUOUS
 62
     0
 10
1338.2407932652679
 20
-794.08808421418348
 30
0.0
 40
2.5
  1
10
 50
90.0
  0
ENDBLK
  5
B509
  8
0
 62
     7
  0
BLOCK
  8
0
 62
     7
  2
*U992
 70
     1
 10
0.0
 20
0.0
 30
0.0
  3
*U992
  1

  0
TEXT
  5
B50B
  8
0
  6
CONTINUOUS
 62
     0
 10
1348.066535773517
 20
-809.71242225156698
 30
0.0
 40
2.5
  1
8
  0
ENDBLK
  5
B50D
  8
0
 62
     7
  0
BLOCK
  8
0
 62
     7
  2
*U993
 70
     1
 10
0.0
 20
0.0
 30
0.0
  3
*U993
  1

  0
TEXT
  5
B50F
  8
0
  6
CONTINUOUS
 62
     0
 10
1356.066535773517
 20
-809.71242225156698
 30
0.0
 40
2.5
  1
8
  0
ENDBLK
  5
B511
  8
0
 62
     7
  0
BLOCK
  8
0
 62
     7
  2
*U994
 70
     1
 10
0.0
 20
0.0
 30
0.0
  3
*U994
  1

  0
TEXT
  5
B513
  8
0
  6
CONTINUOUS
 62
     0
 10
1364.4415357735179
 20
-809.71242225156698
 30
0.0
 40
2.5
  1
10
  0
ENDBLK
  5
B515
  8
0
 62
     7
  0
BLOCK
  8
0
 62
     7
  2
*U995
 70
     1
 10
0.0
 20
0.0
 30
0.0
  3
*U995
  1

  0
TEXT
  5
B517
  8
0
  6
CONTINUOUS
 62
     0
 10
1362.566535773517
 20
-894.30089072425733
 30
0.0
 40
2.5
  1
5
  0
ENDBLK
  5
B519
  8
0
 62
     7
  0
BLOCK
  8
0
 62
     7
  2
*U996
 70
     1
 10
0.0
 20
0.0
 30
0.0
  3
*U996
  1

  0
TEXT
  5
B51B
  8
0
  6
CONTINUOUS
 62
     0
 10
1356.066535773517
 20
-894.30089072425733
 30
0.0
 40
2.5
  1
8
  0
ENDBLK
  5
B51D
  8
0
 62
     7
  0
BLOCK
  8
0
 62
     7
  2
*U997
 70
     1
 10
0.0
 20
0.0
 30
0.0
  3
*U997
  1

  0
TEXT
  5
B51F
  8
0
  6
CONTINUOUS
 62
     0
 10
1348.066535773517
 20
-894.30089072425733
 30
0.0
 40
2.5
  1
8
  0
ENDBLK
  5
B521
  8
0
 62
     7
  0
BLOCK
  8
0
 62
     7
  2
*U998
 70
     1
 10
0.0
 20
0.0
 30
0.0
  3
*U998
  1

  0
TEXT
  5
B523
  8
0
  6
CONTINUOUS
 62
     0
 10
1338.893473954588
 20
-878.2152520265638
 30
0.0
 40
2.5
  1
10
 50
90.0
  0
ENDBLK
  5
B525
  8
0
 62
     7
  0
BLOCK
  8
0
 62
     7
  2
*U999
 70
     1
 10
0.0
 20
0.0
 30
0.0
  3
*U999
  1

  0
TEXT
  5
B527
  8
0
  6
CONTINUOUS
 62
     0
 10
1369.233202440184
 20
-978.42805853663742
 30
0.0
 40
2.5
  1
12
  0
ENDBLK
  5
B529
  8
0
 62
     7
  0
BLOCK
  8
0
 62
     7
  2
*U1000
 70
     1
 10
0.0
 20
0.0
 30
0.0
  3
*U1000
  1

  0
TEXT
  5
B52B
  8
0
  6
CONTINUOUS
 62
     0
 10
1358.4415357735179
 20
-978.42805853663742
 30
0.0
 40
2.5
  1
10
  0
ENDBLK
  5
B52D
  8
0
 62
     7
  0
BLOCK
  8
0
 62
     7
  2
*U1001
 70
     1
 10
0.0
 20
0.0
 30
0.0
  3
*U1001
  1

  0
TEXT
  5
B52F
  8
0
  6
CONTINUOUS
 62
     0
 10
1348.441535773517
 20
-978.42805853663742
 30
0.0
 40
2.5
  1
10
  0
ENDBLK
  5
B531
  8
0
 62
     7
  0
BLOCK
  8
0
 62
     7
  2
*U1002
 70
     1
 10
0.0
 20
0.0
 30
0.0
  3
*U1002
  1

  0
TEXT
  5
B533
  8
0
  6
CONTINUOUS
 62
     0
 10
1335.846523544516
 20
-962.55075317227727
 30
0.0
 40
2.5
  1
12
 50
90.0
  0
ENDBLK
  5
B535
  8
0
 62
     7
  0
BLOCK
  8
0
 62
     7
  2
*U1003
 70
     1
 10
0.0
 20
0.0
 30
0.0
  3
*U1003
  1

  0
TEXT
  5
B537
  8
0
  6
CONTINUOUS
 62
     0
 10
1369.233202440184
 20
-1062.5552263490181
 30
0.0
 40
2.5
  1
12
  0
ENDBLK
  5
B539
  8
0
 62
     7
  0
BLOCK
  8
0
 62
     7
  2
*U1004
 70
     1
 10
0.0
 20
0.0
 30
0.0
  3
*U1004
  1

  0
TEXT
  5
B53B
  8
0
  6
CONTINUOUS
 62
     0
 10
1358.4415357735179
 20
-1062.5552263490181
 30
0.0
 40
2.5
  1
10
  0
ENDBLK
  5
B53D
  8
0
 62
     7
  0
BLOCK
  8
0
 62
     7
  2
*U1005
 70
     1
 10
0.0
 20
0.0
 30
0.0
  3
*U1005
  1

  0
TEXT
  5
B53F
  8
0
  6
CONTINUOUS
 62
     0
 10
1348.441535773517
 20
-1062.5552263490181
 30
0.0
 40
2.5
  1
10
  0
ENDBLK
  5
B541
  8
0
 62
     7
  0
BLOCK
  8
0
 62
     7
  2
*U1006
 70
     1
 10
0.0
 20
0.0
 30
0.0
  3
*U1006
  1

  0
TEXT
  5
B543
  8
0
  6
CONTINUOUS
 62
     0
 10
1336.5898778014539
 20
-1046.677920984657
 30
0.0
 40
2.5
  1
16
 50
90.0
  0
ENDBLK
  5
B545
  8
0
 62
     7
  0
BLOCK
  8
0
 62
     7
  2
*U1007
 70
     1
 10
0.0
 20
0.0
 30
0.0
  3
*U1007
  1

  0
TEXT
  5
B547
  8
0
  6
CONTINUOUS
 62
     0
 10
1355.8245195027059
 20
-793.46308421418337
 30
0.0
 40
2.5
  1
7
 50
90.0
  0
ENDBLK
  5
B549
  8
0
 62
     7
  0
BLOCK
  8
0
 62
     7
  2
*U1008
 70
     1
 10
0.0
 20
0.0
 30
0.0
  3
*U1008
  1

  0
TEXT
  5
B54B
  8
0
  6
CONTINUOUS
 62
     0
 10
1382.733202440184
 20
-978.42805853663742
 30
0.0
 40
2.5
  1
15
  0
ENDBLK
  5
B54D
  8
0
 62
     7
  0
BLOCK
  8
0
 62
     7
  2
*U1009
 70
     1
 10
0.0
 20
0.0
 30
0.0
  3
*U1009
  1

  0
TEXT
  5
B54F
  8
0
  6
CONTINUOUS
 62
     0
 10
1328.332199976385
 20
-1131.0134221303711
 30
0.0
 40
2.5
  1
20
 50
90.0
  0
ENDBLK
  5
B551
  8
0
 62
     7
  0
BLOCK
  8
0
 62
     7
  2
*U1010
 70
     1
 10
0.0
 20
0.0
 30
0.0
  3
*U1010
  1

  0
TEXT
  5
B553
  8
0
  6
CONTINUOUS
 62
     0
 10
1348.441535773517
 20
-1153.891502318259
 30
0.0
 40
2.5
  1
10
  0
ENDBLK
  5
B555
  8
0
 62
     7
  0
BLOCK
  8
0
 62
     7
  2
*U1011
 70
     1
 10
0.0
 20
0.0
 30
0.0
  3
*U1011
  1

  0
TEXT
  5
B557
  8
0
  6
CONTINUOUS
 62
     0
 10
1358.4415357735179
 20
-1153.891502318259
 30
0.0
 40
2.5
  1
10
  0
ENDBLK
  5
B559
  8
0
 62
     7
  0
BLOCK
  8
0
 62
     7
  2
*U1012
 70
     1
 10
0.0
 20
0.0
 30
0.0
  3
*U1012
  1

  0
TEXT
  5
B55B
  8
0
  6
CONTINUOUS
 62
     0
 10
1369.233202440184
 20
-1154.4308597659649
 30
0.0
 40
2.5
  1
12
  0
ENDBLK
  5
B55D
  8
0
 62
     7
  0
BLOCK
  8
0
 62
     7
  2
*U1013
 70
     1
 10
0.0
 20
0.0
 30
0.0
  3
*U1013
  1

  0
TEXT
  5
B55F
  8
0
  6
CONTINUOUS
 62
     0
 10
738.31801306216005
 20
27.409798590455011
 30
0.0
 40
2.5
  1
3
  0
ENDBLK
  5
B561
  8
0
 62
     7
  0
BLOCK
  8
0
 62
     7
  2
*U1014
 70
     1
 10
0.0
 20
0.0
 30
0.0
  3
*U1014
  1

  0
TEXT
  5
B563
  8
0
  6
CONTINUOUS
 62
     0
 10
742.31801306216005
 20
-56.870323827276927
 30
0.0
 40
2.5
  1
3
  0
ENDBLK
  5
B565
  8
0
 62
     7
  0
BLOCK
  8
0
 62
     7
  2
*U1015
 70
     1
 10
0.0
 20
0.0
 30
0.0
  3
*U1015
  1

  0
TEXT
  5
B567
  8
0
  6
CONTINUOUS
 62
     0
 10
752.31801306216005
 20
-141.9974916396572
 30
0.0
 40
2.5
  1
3
  0
ENDBLK
  5
B569
  8
0
 62
     7
  0
BLOCK
  8
0
 62
     7
  2
*U1016
 70
     1
 10
0.0
 20
0.0
 30
0.0
  3
*U1016
  1

  0
TEXT
  5
B56B
  8
0
  6
CONTINUOUS
 62
     0
 10
752.31801306216005
 20
-226.1246594520376
 30
0.0
 40
2.5
  1
3
  0
ENDBLK
  5
B56D
  8
0
 62
     7
  0
BLOCK
  8
0
 62
     7
  2
*U1017
 70
     1
 10
0.0
 20
0.0
 30
0.0
  3
*U1017
  1

  0
TEXT
  5
B56F
  8
0
  6
CONTINUOUS
 62
     0
 10
751.31801306216005
 20
-311.2518272644179
 30
0.0
 40
2.5
  1
3
  0
ENDBLK
  5
B571
  8
0
 62
     7
  0
BLOCK
  8
0
 62
     7
  2
*U1018
 70
     1
 10
0.0
 20
0.0
 30
0.0
  3
*U1018
  1

  0
TEXT
  5
B573
  8
0
  6
CONTINUOUS
 62
     0
 10
757.31801306216005
 20
-397.87899507679822
 30
0.0
 40
2.5
  1
3
  0
ENDBLK
  5
B575
  8
0
 62
     7
  0
BLOCK
  8
0
 62
     7
  2
*U1019
 70
     1
 10
0.0
 20
0.0
 30
0.0
  3
*U1019
  1

  0
TEXT
  5
B577
  8
0
  6
CONTINUOUS
 62
     0
 10
761.31801306216005
 20
-484.00616288917848
 30
0.0
 40
2.5
  1
3
  0
ENDBLK
  5
B579
  8
0
 62
     7
  0
BLOCK
  8
0
 62
     7
  2
*U1020
 70
     1
 10
0.0
 20
0.0
 30
0.0
  3
*U1020
  1

  0
TEXT
  5
B57B
  8
0
  6
CONTINUOUS
 62
     0
 10
738.31801306216005
 20
-634.47962046987959
 30
0.0
 40
2.5
  1
3
  0
ENDBLK
  5
B57D
  8
0
 62
     7
  0
BLOCK
  8
0
 62
     7
  2
*U1021
 70
     1
 10
0.0
 20
0.0
 30
0.0
  3
*U1021
  1

  0
TEXT
  5
B57F
  8
0
  6
CONTINUOUS
 62
     0
 10
742.31801306216005
 20
-720.10678828225991
 30
0.0
 40
2.5
  1
3
  0
ENDBLK
  5
B581
  8
0
 62
     7
  0
BLOCK
  8
0
 62
     7
  2
*U1022
 70
     1
 10
0.0
 20
0.0
 30
0.0
  3
*U1022
  1

  0
TEXT
  5
B583
  8
0
  6
CONTINUOUS
 62
     0
 10
752.31801306216005
 20
-805.23395609464023
 30
0.0
 40
2.5
  1
3
  0
ENDBLK
  5
B585
  8
0
 62
     7
  0
BLOCK
  8
0
 62
     7
  2
*U1023
 70
     1
 10
0.0
 20
0.0
 30
0.0
  3
*U1023
  1

  0
TEXT
  5
B587
  8
0
  6
CONTINUOUS
 62
     0
 10
752.31801306216005
 20
-889.36112390702056
 30
0.0
 40
2.5
  1
3
  0
ENDBLK
  5
B589
  8
0
 62
     7
  0
BLOCK
  8
0
 62
     7
  2
*U1024
 70
     1
 10
0.0
 20
0.0
 30
0.0
  3
*U1024
  1

  0
TEXT
  5
B58B
  8
0
  6
CONTINUOUS
 62
     0
 10
751.31801306216005
 20
-974.48829171940076
 30
0.0
 40
2.5
  1
3
  0
ENDBLK
  5
B58D
  8
0
 62
     7
  0
BLOCK
  8
0
 62
     7
  2
*U1025
 70
     1
 10
0.0
 20
0.0
 30
0.0
  3
*U1025
  1

  0
TEXT
  5
B58F
  8
0
  6
CONTINUOUS
 62
     0
 10
757.31801306216005
 20
-1061.115459531781
 30
0.0
 40
2.5
  1
3
  0
ENDBLK
  5
B591
  8
0
 62
     7
  0
BLOCK
  8
0
 62
     7
  2
*U1026
 70
     1
 10
0.0
 20
0.0
 30
0.0
  3
*U1026
  1

  0
TEXT
  5
B593
  8
0
  6
CONTINUOUS
 62
     0
 10
761.31801306216005
 20
-1147.2426273441611
 30
0.0
 40
2.5
  1
3
  0
ENDBLK
  5
B595
  8
0
 62
     7
  0
BLOCK
  8
0
 62
     7
  2
*U1027
 70
     1
 10
0.0
 20
0.0
 30
0.0
  3
*U1027
  1

  0
TEXT
  5
B597
  8
0
  6
CONTINUOUS
 62
     0
 10
1377.5665357735179
 20
-1147.2426273441611
 30
0.0
 40
2.5
  1
3
  0
ENDBLK
  5
B599
  8
0
 62
     7
  0
BLOCK
  8
0
 62
     7
  2
*U1028
 70
     1
 10
0.0
 20
0.0
 30
0.0
  3
*U1028
  1

  0
TEXT
  5
B59B
  8
0
  6
CONTINUOUS
 62
     0
 10
1377.5665357735179
 20
-1061.115459531781
 30
0.0
 40
2.5
  1
3
  0
ENDBLK
  5
B59D
  8
0
 62
     7
  0
BLOCK
  8
0
 62
     7
  2
*U1029
 70
     1
 10
0.0
 20
0.0
 30
0.0
  3
*U1029
  1

  0
TEXT
  5
B59F
  8
0
  6
CONTINUOUS
 62
     0
 10
1377.5665357735179
 20
-974.48829171940076
 30
0.0
 40
2.5
  1
3
  0
ENDBLK
  5
B5A1
  8
0
 62
     7
  0
BLOCK
  8
0
 62
     7
  2
*U1030
 70
     1
 10
0.0
 20
0.0
 30
0.0
  3
*U1030
  1

  0
TEXT
  5
B5A3
  8
0
  6
CONTINUOUS
 62
     0
 10
1366.566535773517
 20
-889.36112390702056
 30
0.0
 40
2.5
  1
3
  0
ENDBLK
  5
B5A5
  8
0
 62
     7
  0
BLOCK
  8
0
 62
     7
  2
*U1031
 70
     1
 10
0.0
 20
0.0
 30
0.0
  3
*U1031
  1

  0
TEXT
  5
B5A7
  8
0
  6
CONTINUOUS
 62
     0
 10
1371.566535773517
 20
-805.23395609464023
 30
0.0
 40
2.5
  1
3
  0
ENDBLK
  5
B5A9
  8
0
 62
     7
  0
BLOCK
  8
0
 62
     7
  2
*U1032
 70
     1
 10
0.0
 20
0.0
 30
0.0
  3
*U1032
  1

  0
TEXT
  5
B5AB
  8
0
  6
CONTINUOUS
 62
     0
 10
1366.566535773517
 20
-720.10678828225991
 30
0.0
 40
2.5
  1
3
  0
ENDBLK
  5
B5AD
  8
0
 62
     7
  0
BLOCK
  8
0
 62
     7
  2
*U1033
 70
     1
 10
0.0
 20
0.0
 30
0.0
  3
*U1033
  1

  0
TEXT
  5
B5AF
  8
0
  6
CONTINUOUS
 62
     0
 10
1366.566535773517
 20
-634.47962046987959
 30
0.0
 40
2.5
  1
3
  0
ENDBLK
  5
B5B1
  8
0
 62
     7
  0
BLOCK
  8
0
 62
     7
  2
*U1034
 70
     1
 10
0.0
 20
0.0
 30
0.0
  3
*U1034
  1

  0
TEXT
  5
B5B3
  8
0
  6
CONTINUOUS
 62
     0
 10
1377.5665357735179
 20
-484.00616288917848
 30
0.0
 40
2.5
  1
3
  0
ENDBLK
  5
B5B5
  8
0
 62
     7
  0
BLOCK
  8
0
 62
     7
  2
*U1035
 70
     1
 10
0.0
 20
0.0
 30
0.0
  3
*U1035
  1

  0
TEXT
  5
B5B7
  8
0
  6
CONTINUOUS
 62
     0
 10
1377.5665357735179
 20
-397.87899507679822
 30
0.0
 40
2.5
  1
3
  0
ENDBLK
  5
B5B9
  8
0
 62
     7
  0
BLOCK
  8
0
 62
     7
  2
*U1036
 70
     1
 10
0.0
 20
0.0
 30
0.0
  3
*U1036
  1

  0
TEXT
  5
B5BB
  8
0
  6
CONTINUOUS
 62
     0
 10
1377.5665357735179
 20
-311.25182726441778
 30
0.0
 40
2.5
  1
3
  0
ENDBLK
  5
B5BD
  8
0
 62
     7
  0
BLOCK
  8
0
 62
     7
  2
*U1037
 70
     1
 10
0.0
 20
0.0
 30
0.0
  3
*U1037
  1

  0
TEXT
  5
B5BF
  8
0
  6
CONTINUOUS
 62
     0
 10
1366.566535773517
 20
-226.1246594520376
 30
0.0
 40
2.5
  1
3
  0
ENDBLK
  5
B5C1
  8
0
 62
     7
  0
BLOCK
  8
0
 62
     7
  2
*U1038
 70
     1
 10
0.0
 20
0.0
 30
0.0
  3
*U1038
  1

  0
TEXT
  5
B5C3
  8
0
  6
CONTINUOUS
 62
     0
 10
1371.566535773517
 20
-141.9974916396572
 30
0.0
 40
2.5
  1
3
  0
ENDBLK
  5
B5C5
  8
0
 62
     7
  0
BLOCK
  8
0
 62
     7
  2
*U1039
 70
     1
 10
0.0
 20
0.0
 30
0.0
  3
*U1039
  1

  0
TEXT
  5
B5C7
  8
0
  6
CONTINUOUS
 62
     0
 10
1366.566535773517
 20
-56.870323827276927
 30
0.0
 40
2.5
  1
3
  0
ENDBLK
  5
B5C9
  8
0
 62
     7
  0
BLOCK
  8
0
 62
     7
  2
*U1040
 70
     1
 10
0.0
 20
0.0
 30
0.0
  3
*U1040
  1

  0
TEXT
  5
B5CB
  8
0
  6
CONTINUOUS
 62
     0
 10
1366.566535773517
 20
28.756843985103419
 30
0.0
 40
2.5
  1
3
  0
ENDBLK
  5
B5CD
  8
0
 62
     7
  0
BLOCK
  8
0
 62
     7
  2
*U1041
 70
     1
 10
0.0
 20
0.0
 30
0.0
  3
*U1041
  1

  0
TEXT
  5
B5CF
  8
0
  6
CONTINUOUS
 62
     0
 10
1355.8245195027059
 20
-130.22661975920039
 30
0.0
 40
2.5
  1
7
 50
90.0
  0
ENDBLK
  5
B5D1
  8
0
 62
     7
  0
BLOCK
  8
0
 62
     7
  2
*U1042
 70
     1
 10
0.0
 20
0.0
 30
0.0
  3
*U1042
  1

  0
TEXT
  5
B5D3
  8
0
  6
CONTINUOUS
 62
     0
 10
1016.2095383307339
 20
-298.48095538396109
 30
0.0
 40
2.5
  1
9
 50
90.0
  0
ENDBLK
  5
B5D5
  8
0
 62
     7
  0
BLOCK
  8
0
 62
     7
  2
*U1043
 70
     1
 10
0.0
 20
0.0
 30
0.0
  3
*U1043
  1

  0
TEXT
  5
B5D7
  8
0
  6
CONTINUOUS
 62
     0
 10
1012.805959509181
 20
-214.35378757158091
 30
0.0
 40
2.5
  1
7
 50
90.0
  0
ENDBLK
  5
B5D9
  8
0
 62
     7
  0
BLOCK
  8
0
 62
     7
  2
*U1044
 70
     1
 10
0.0
 20
0.0
 30
0.0
  3
*U1044
  1

  0
TEXT
  5
B5DB
  8
0
  6
CONTINUOUS
 62
     0
 10
1015.741289720186
 20
-383.44145652967478
 30
0.0
 40
2.5
  1
13
 50
90.0
  0
ENDBLK
  5
B5DD
  8
0
 62
     7
  0
BLOCK
  8
0
 62
     7
  2
*U1045
 70
     1
 10
0.0
 20
0.0
 30
0.0
  3
*U1045
  1

  0
TEXT
  5
B5DF
  8
0
  6
CONTINUOUS
 62
     0
 10
1016.490973172315
 20
-467.5686243420551
 30
0.0
 40
2.5
  1
17
 50
90.0
  0
ENDBLK
  5
B5E1
  8
0
 62
     7
  0
BLOCK
  8
0
 62
     7
  2
*U1046
 70
     1
 10
0.0
 20
0.0
 30
0.0
  3
*U1046
  1

  0
TEXT
  5
B5E3
  8
0
  6
CONTINUOUS
 62
     0
 10
1013.463752122484
 20
-877.5902520265638
 30
0.0
 40
2.5
  1
7
 50
90.0
  0
ENDBLK
  5
B5E5
  8
0
 62
     7
  0
BLOCK
  8
0
 62
     7
  2
*U1047
 70
     1
 10
0.0
 20
0.0
 30
0.0
  3
*U1047
  1

  0
TEXT
  5
B5E7
  8
0
  6
CONTINUOUS
 62
     0
 10
1015.49063533609
 20
-961.71741983894424
 30
0.0
 40
2.5
  1
9
 50
90.0
  0
ENDBLK
  5
B5E9
  8
0
 62
     7
  0
BLOCK
  8
0
 62
     7
  2
*U1048
 70
     1
 10
0.0
 20
0.0
 30
0.0
  3
*U1048
  1

  0
TEXT
  5
B5EB
  8
0
  6
CONTINUOUS
 62
     0
 10
1016.272464362597
 20
-1046.6779209846579
 30
0.0
 40
2.5
  1
13
 50
90.0
  0
ENDBLK
  5
B5ED
  8
0
 62
     7
  0
BLOCK
  8
0
 62
     7
  2
*U1049
 70
     1
 10
0.0
 20
0.0
 30
0.0
  3
*U1049
  1

  0
TEXT
  5
B5EF
  8
0
  6
CONTINUOUS
 62
     0
 10
1015.982744207592
 20
-1130.805088797038
 30
0.0
 40
2.5
  1
17
 50
90.0
  0
ENDBLK
  5
B5F1
  8
0
 62
     7
  0
BLOCK
  8
0
 62
     7
  2
*U1050
 70
     1
 10
0.0
 20
0.0
 30
0.0
  3
*U1050
  1

  0
TEXT
  5
B5F3
  8
0
  6
CONTINUOUS
 62
     0
 10
1358.5483312482811
 20
-1130.805088797038
 30
0.0
 40
2.5
  1
17
 50
90.0
  0
ENDBLK
  5
B5F5
  8
0
 62
     7
  0
BLOCK
  8
0
 62
     7
  2
*U1051
 70
     1
 10
0.0
 20
0.0
 30
0.0
  3
*U1051
  1

  0
TEXT
  5
B5F7
  8
0
  6
CONTINUOUS
 62
     0
 10
1360.2485910973901
 20
-1046.6779209846579
 30
0.0
 40
2.5
  1
13
 50
90.0
  0
ENDBLK
  5
B5F9
  8
0
 62
     7
  0
BLOCK
  8
0
 62
     7
  2
*U1052
 70
     1
 10
0.0
 20
0.0
 30
0.0
  3
*U1052
  1

  0
TEXT
  5
B5FB
  8
0
  6
CONTINUOUS
 62
     0
 10
753.31801306216005
 20
21.110343984119709
 30
0.0
 40
2.5
  1
3
  0
ENDBLK
  5
B5FD
  8
0
 62
     7
  0
BLOCK
  8
0
 62
     7
  2
*U1053
 70
     1
 10
0.0
 20
0.0
 30
0.0
  3
*U1053
  1

  0
TEXT
  5
B5FF
  8
0
  6
CONTINUOUS
 62
     0
 10
1049.019939635639
 20
-491.19439531098237
 30
0.0
 40
2.5
  1
3
  0
ENDBLK
  5
B601
  8
0
 62
     7
  0
BLOCK
  8
0
 62
     7
  2
*U1054
 70
     1
 10
0.0
 20
0.0
 30
0.0
  3
*U1054
  1

  0
TEXT
  5
B603
  8
0
  6
CONTINUOUS
 62
     0
 10
52.166667666666662
 20
32.24929478522651
 30
0.0
 40
2.5
  1
6
  0
ENDBLK
  5
B605
  8
0
 62
     7
  0
BLOCK
  8
0
 62
     7
  2
*U1055
 70
     1
 10
0.0
 20
0.0
 30
0.0
  3
*U1055
  1

  0
TEXT
  5
B607
  8
0
  6
CONTINUOUS
 62
     0
 10
59.166667666666662
 20
32.24929478522651
 30
0.0
 40
2.5
  1
8
  0
ENDBLK
  5
B609
  8
0
 62
     7
  0
BLOCK
  8
0
 62
     7
  2
*U1056
 70
     1
 10
0.0
 20
0.0
 30
0.0
  3
*U1056
  1

  0
TEXT
  5
B60B
  8
0
  6
CONTINUOUS
 62
     0
 10
42.786979501257619
 20
49.166666666666671
 30
0.0
 40
2.5
  1
6
 50
90.0
  0
ENDBLK
  5
B60D
  8
0
 62
     7
  0
BLOCK
  8
0
 62
     7
  2
*U1057
 70
     1
 10
0.0
 20
0.0
 30
0.0
  3
*U1057
  1

  0
TEXT
  5
B60F
  8
0
  6
CONTINUOUS
 62
     0
 10
120.88760570828541
 20
34.802871527882623
 30
0.0
 40
2.5
  1
9,8
  0
ENDBLK
  5
B611
  8
0
 62
     7
  0
BLOCK
  8
0
 62
     7
  2
*U1058
 70
     1
 10
0.0
 20
0.0
 30
0.0
  3
*U1058
  1

  0
TEXT
  5
B613
  8
0
  6
CONTINUOUS
 62
     0
 10
69.833333333333329
 20
32.24929478522651
 30
0.0
 40
2.5
  1
15
  0
ENDBLK
  5
B615
  8
0
 62
     7
  0
BLOCK
  8
0
 62
     7
  2
*U1059
 70
     1
 10
0.0
 20
0.0
 30
0.0
  3
*U1059
  1

  0
TEXT
  5
B617
  8
0
  6
CONTINUOUS
 62
     0
 10
79.6666666666667
 20
32.249294785226532
 30
0.0
 40
2.5
  1
3
  0
ENDBLK
  5
B619
  8
0
 62
     7
  0
BLOCK
  8
0
 62
     7
  2
*U1060
 70
     1
 10
0.0
 20
0.0
 30
0.0
  3
*U1060
  1

  0
TEXT
  5
B61B
  8
0
  6
CONTINUOUS
 62
     0
 10
93.745382290421034
 20
23.636268993570141
 30
0.0
 40
2.5
  1
150Åã
  0
ENDBLK
  5
B61D
  8
0
 62
     7
  0
BLOCK
  8
0
 62
     7
  2
*U1061
 70
     1
 10
0.0
 20
0.0
 30
0.0
  3
*U1061
  1

  0
TEXT
  5
B61F
  8
0
  6
CONTINUOUS
 62
     0
 10
403.93808359094811
 20
-726.25328828324348
 30
0.0
 40
2.5
  1
15
  0
ENDBLK
  5
B621
  8
0
 62
     7
  0
BLOCK
  8
0
 62
     7
  2
*U1062
 70
     1
 10
0.0
 20
0.0
 30
0.0
  3
*U1062
  1

  0
TEXT
  5
B623
  8
0
  6
CONTINUOUS
 62
     0
 10
413.93808359094811
 20
-810.3804560956238
 30
0.0
 40
2.5
  1
15
  0
ENDBLK
  5
B625
  8
0
 62
     7
  0
BLOCK
  8
0
 62
     7
  2
*U1063
 70
     1
 10
0.0
 20
0.0
 30
0.0
  3
*U1063
  1

  0
TEXT
  5
B627
  8
0
  6
CONTINUOUS
 62
     0
 10
413.93808359094811
 20
-894.30089072425733
 30
0.0
 40
2.5
  1
15
  0
ENDBLK
  5
B629
  8
0
 62
     7
  0
BLOCK
  8
0
 62
     7
  2
*U1064
 70
     1
 10
0.0
 20
0.0
 30
0.0
  3
*U1064
  1

  0
TEXT
  5
B62B
  8
0
  6
CONTINUOUS
 62
     0
 10
412.93808359094811
 20
-978.42805853663765
 30
0.0
 40
2.5
  1
15
  0
ENDBLK
  5
B62D
  8
0
 62
     7
  0
BLOCK
  8
0
 62
     7
  2
*U1065
 70
     1
 10
0.0
 20
0.0
 30
0.0
  3
*U1065
  1

  0
TEXT
  5
B62F
  8
0
  6
CONTINUOUS
 62
     0
 10
418.93808359094811
 20
-1062.5552263490181
 30
0.0
 40
2.5
  1
15
  0
ENDBLK
  5
B631
  8
0
 62
     7
  0
BLOCK
  8
0
 62
     7
  2
*U1066
 70
     1
 10
0.0
 20
0.0
 30
0.0
  3
*U1066
  1

  0
TEXT
  5
B633
  8
0
  6
CONTINUOUS
 62
     0
 10
422.93808359094811
 20
-1154.4308597659649
 30
0.0
 40
2.5
  1
15
  0
ENDBLK
  5
B635
  8
0
 62
     7
  0
BLOCK
  8
0
 62
     7
  2
*U1067
 70
     1
 10
0.0
 20
0.0
 30
0.0
  3
*U1067
  1

  0
TEXT
  5
B637
  8
0
  6
CONTINUOUS
 62
     0
 10
743.48467972882668
 20
21.110343984119709
 30
0.0
 40
2.5
  1
15
  0
ENDBLK
  5
B639
  8
0
 62
     7
  0
BLOCK
  8
0
 62
     7
  2
*U1068
 70
     1
 10
0.0
 20
0.0
 30
0.0
  3
*U1068
  1

  0
TEXT
  5
B63B
  8
0
  6
CONTINUOUS
 62
     0
 10
747.48467972882668
 20
-63.016823828260499
 30
0.0
 40
2.5
  1
15
  0
ENDBLK
  5
B63D
  8
0
 62
     7
  0
BLOCK
  8
0
 62
     7
  2
*U1069
 70
     1
 10
0.0
 20
0.0
 30
0.0
  3
*U1069
  1

  0
TEXT
  5
B63F
  8
0
  6
CONTINUOUS
 62
     0
 10
757.31801306216005
 20
-62.990711616814451
 30
0.0
 40
2.5
  1
3
  0
ENDBLK
  5
B641
  8
0
 62
     7
  0
BLOCK
  8
0
 62
     7
  2
*U1070
 70
     1
 10
0.0
 20
0.0
 30
0.0
  3
*U1070
  1

  0
TEXT
  5
B643
  8
0
  6
CONTINUOUS
 62
     0
 10
757.48467972882679
 20
-147.14399164064079
 30
0.0
 40
2.5
  1
15
  0
ENDBLK
  5
B645
  8
0
 62
     7
  0
BLOCK
  8
0
 62
     7
  2
*U1071
 70
     1
 10
0.0
 20
0.0
 30
0.0
  3
*U1071
  1

  0
TEXT
  5
B647
  8
0
  6
CONTINUOUS
 62
     0
 10
767.31801306216005
 20
-147.11787942919599
 30
0.0
 40
2.5
  1
3
  0
ENDBLK
  5
B649
  8
0
 62
     7
  0
BLOCK
  8
0
 62
     7
  2
*U1072
 70
     1
 10
0.0
 20
0.0
 30
0.0
  3
*U1072
  1

  0
TEXT
  5
B64B
  8
0
  6
CONTINUOUS
 62
     0
 10
757.48467972882679
 20
-231.06442626927429
 30
0.0
 40
2.5
  1
15
  0
ENDBLK
  5
B64D
  8
0
 62
     7
  0
BLOCK
  8
0
 62
     7
  2
*U1073
 70
     1
 10
0.0
 20
0.0
 30
0.0
  3
*U1073
  1

  0
TEXT
  5
B64F
  8
0
  6
CONTINUOUS
 62
     0
 10
767.31801306216005
 20
-231.0383140578291
 30
0.0
 40
2.5
  1
3
  0
ENDBLK
  5
B651
  8
0
 62
     7
  0
BLOCK
  8
0
 62
     7
  2
*U1074
 70
     1
 10
0.0
 20
0.0
 30
0.0
  3
*U1074
  1

  0
TEXT
  5
B653
  8
0
  6
CONTINUOUS
 62
     0
 10
756.48467972882679
 20
-315.19159408165473
 30
0.0
 40
2.5
  1
15
  0
ENDBLK
  5
B655
  8
0
 62
     7
  0
BLOCK
  8
0
 62
     7
  2
*U1075
 70
     1
 10
0.0
 20
0.0
 30
0.0
  3
*U1075
  1

  0
TEXT
  5
B657
  8
0
  6
CONTINUOUS
 62
     0
 10
766.31801306216005
 20
-315.16548187020823
 30
0.0
 40
2.5
  1
3
  0
ENDBLK
  5
B659
  8
0
 62
     7
  0
BLOCK
  8
0
 62
     7
  2
*U1076
 70
     1
 10
0.0
 20
0.0
 30
0.0
  3
*U1076
  1

  0
TEXT
  5
B65B
  8
0
  6
CONTINUOUS
 62
     0
 10
762.48467972882679
 20
-399.31876189403499
 30
0.0
 40
2.5
  1
15
  0
ENDBLK
  5
B65D
  8
0
 62
     7
  0
BLOCK
  8
0
 62
     7
  2
*U1077
 70
     1
 10
0.0
 20
0.0
 30
0.0
  3
*U1077
  1

  0
TEXT
  5
B65F
  8
0
  6
CONTINUOUS
 62
     0
 10
772.31801306216005
 20
-399.29264968258849
 30
0.0
 40
2.5
  1
3
  0
ENDBLK
  5
B661
  8
0
 62
     7
  0
BLOCK
  8
0
 62
     7
  2
*U1078
 70
     1
 10
0.0
 20
0.0
 30
0.0
  3
*U1078
  1

  0
TEXT
  5
B663
  8
0
  6
CONTINUOUS
 62
     0
 10
766.48467972882679
 20
-491.19439531098249
 30
0.0
 40
2.5
  1
15
  0
ENDBLK
  5
B665
  8
0
 62
     7
  0
BLOCK
  8
0
 62
     7
  2
*U1079
 70
     1
 10
0.0
 20
0.0
 30
0.0
  3
*U1079
  1

  0
TEXT
  5
B667
  8
0
  6
CONTINUOUS
 62
     0
 10
776.31801306216005
 20
-490.9443953109826
 30
0.0
 40
2.5
  1
3
  0
ENDBLK
  5
B669
  8
0
 62
     7
  0
BLOCK
  8
0
 62
     7
  2
*U1080
 70
     1
 10
0.0
 20
0.0
 30
0.0
  3
*U1080
  1

  0
TEXT
  5
B66B
  8
0
  6
CONTINUOUS
 62
     0
 10
743.48467972882668
 20
-642.12612047086304
 30
0.0
 40
2.5
  1
15
  0
ENDBLK
  5
B66D
  8
0
 62
     7
  0
BLOCK
  8
0
 62
     7
  2
*U1081
 70
     1
 10
0.0
 20
0.0
 30
0.0
  3
*U1081
  1

  0
TEXT
  5
B66F
  8
0
  6
CONTINUOUS
 62
     0
 10
747.48467972882668
 20
-726.25328828324336
 30
0.0
 40
2.5
  1
15
  0
ENDBLK
  5
B671
  8
0
 62
     7
  0
BLOCK
  8
0
 62
     7
  2
*U1082
 70
     1
 10
0.0
 20
0.0
 30
0.0
  3
*U1082
  1

  0
TEXT
  5
B673
  8
0
  6
CONTINUOUS
 62
     0
 10
757.48467972882679
 20
-810.3804560956238
 30
0.0
 40
2.5
  1
15
  0
ENDBLK
  5
B675
  8
0
 62
     7
  0
BLOCK
  8
0
 62
     7
  2
*U1083
 70
     1
 10
0.0
 20
0.0
 30
0.0
  3
*U1083
  1

  0
TEXT
  5
B677
  8
0
  6
CONTINUOUS
 62
     0
 10
757.48467972882679
 20
-894.30089072425733
 30
0.0
 40
2.5
  1
15
  0
ENDBLK
  5
B679
  8
0
 62
     7
  0
BLOCK
  8
0
 62
     7
  2
*U1084
 70
     1
 10
0.0
 20
0.0
 30
0.0
  3
*U1084
  1

  0
TEXT
  5
B67B
  8
0
  6
CONTINUOUS
 62
     0
 10
756.48467972882679
 20
-978.42805853663742
 30
0.0
 40
2.5
  1
15
  0
ENDBLK
  5
B67D
  8
0
 62
     7
  0
BLOCK
  8
0
 62
     7
  2
*U1085
 70
     1
 10
0.0
 20
0.0
 30
0.0
  3
*U1085
  1

  0
TEXT
  5
B67F
  8
0
  6
CONTINUOUS
 62
     0
 10
762.48467972882679
 20
-1062.5552263490181
 30
0.0
 40
2.5
  1
15
  0
ENDBLK
  5
B681
  8
0
 62
     7
  0
BLOCK
  8
0
 62
     7
  2
*U1086
 70
     1
 10
0.0
 20
0.0
 30
0.0
  3
*U1086
  1

  0
TEXT
  5
B683
  8
0
  6
CONTINUOUS
 62
     0
 10
766.48467972882679
 20
-1154.4308597659649
 30
0.0
 40
2.5
  1
15
  0
ENDBLK
  5
B685
  8
0
 62
     7
  0
BLOCK
  8
0
 62
     7
  2
*U1087
 70
     1
 10
0.0
 20
0.0
 30
0.0
  3
*U1087
  1

  0
TEXT
  5
B687
  8
0
  6
CONTINUOUS
 62
     0
 10
1028.1866063023051
 20
21.110343984119709
 30
0.0
 40
2.5
  1
15
  0
ENDBLK
  5
B689
  8
0
 62
     7
  0
BLOCK
  8
0
 62
     7
  2
*U1088
 70
     1
 10
0.0
 20
0.0
 30
0.0
  3
*U1088
  1

  0
TEXT
  5
B68B
  8
0
  6
CONTINUOUS
 62
     0
 10
1038.019939635639
 20
21.136456195566328
 30
0.0
 40
2.5
  1
3
  0
ENDBLK
  5
B68D
  8
0
 62
     7
  0
BLOCK
  8
0
 62
     7
  2
*U1089
 70
     1
 10
0.0
 20
0.0
 30
0.0
  3
*U1089
  1

  0
TEXT
  5
B68F
  8
0
  6
CONTINUOUS
 62
     0
 10
1028.1866063023051
 20
-63.016823828260499
 30
0.0
 40
2.5
  1
15
  0
ENDBLK
  5
B691
  8
0
 62
     7
  0
BLOCK
  8
0
 62
     7
  2
*U1090
 70
     1
 10
0.0
 20
0.0
 30
0.0
  3
*U1090
  1

  0
TEXT
  5
B693
  8
0
  6
CONTINUOUS
 62
     0
 10
1038.019939635639
 20
-62.990711616814338
 30
0.0
 40
2.5
  1
3
  0
ENDBLK
  5
B695
  8
0
 62
     7
  0
BLOCK
  8
0
 62
     7
  2
*U1091
 70
     1
 10
0.0
 20
0.0
 30
0.0
  3
*U1091
  1

  0
TEXT
  5
B697
  8
0
  6
CONTINUOUS
 62
     0
 10
1033.1866063023051
 20
-147.14399164064079
 30
0.0
 40
2.5
  1
15
  0
ENDBLK
  5
B699
  8
0
 62
     7
  0
BLOCK
  8
0
 62
     7
  2
*U1092
 70
     1
 10
0.0
 20
0.0
 30
0.0
  3
*U1092
  1

  0
TEXT
  5
B69B
  8
0
  6
CONTINUOUS
 62
     0
 10
1043.019939635639
 20
-147.11787942919599
 30
0.0
 40
2.5
  1
3
  0
ENDBLK
  5
B69D
  8
0
 62
     7
  0
BLOCK
  8
0
 62
     7
  2
*U1093
 70
     1
 10
0.0
 20
0.0
 30
0.0
  3
*U1093
  1

  0
TEXT
  5
B69F
  8
0
  6
CONTINUOUS
 62
     0
 10
1028.1866063023051
 20
-231.06442626927429
 30
0.0
 40
2.5
  1
15
  0
ENDBLK
  5
B6A1
  8
0
 62
     7
  0
BLOCK
  8
0
 62
     7
  2
*U1094
 70
     1
 10
0.0
 20
0.0
 30
0.0
  3
*U1094
  1

  0
TEXT
  5
B6A3
  8
0
  6
CONTINUOUS
 62
     0
 10
1038.019939635639
 20
-231.0383140578291
 30
0.0
 40
2.5
  1
3
  0
ENDBLK
  5
B6A5
  8
0
 62
     7
  0
BLOCK
  8
0
 62
     7
  2
*U1095
 70
     1
 10
0.0
 20
0.0
 30
0.0
  3
*U1095
  1

  0
TEXT
  5
B6A7
  8
0
  6
CONTINUOUS
 62
     0
 10
1039.1866063023051
 20
-315.19159408165439
 30
0.0
 40
2.5
  1
15
  0
ENDBLK
  5
B6A9
  8
0
 62
     7
  0
BLOCK
  8
0
 62
     7
  2
*U1096
 70
     1
 10
0.0
 20
0.0
 30
0.0
  3
*U1096
  1

  0
TEXT
  5
B6AB
  8
0
  6
CONTINUOUS
 62
     0
 10
1049.019939635639
 20
-315.165481870208
 30
0.0
 40
2.5
  1
3
  0
ENDBLK
  5
B6AD
  8
0
 62
     7
  0
BLOCK
  8
0
 62
     7
  2
*U1097
 70
     1
 10
0.0
 20
0.0
 30
0.0
  3
*U1097
  1

  0
TEXT
  5
B6AF
  8
0
  6
CONTINUOUS
 62
     0
 10
1039.1866063023051
 20
-399.31876189403488
 30
0.0
 40
2.5
  1
15
  0
ENDBLK
  5
B6B1
  8
0
 62
     7
  0
BLOCK
  8
0
 62
     7
  2
*U1098
 70
     1
 10
0.0
 20
0.0
 30
0.0
  3
*U1098
  1

  0
TEXT
  5
B6B3
  8
0
  6
CONTINUOUS
 62
     0
 10
1049.019939635639
 20
-399.29264968258838
 30
0.0
 40
2.5
  1
3
  0
ENDBLK
  5
B6B5
  8
0
 62
     7
  0
BLOCK
  8
0
 62
     7
  2
*U1099
 70
     1
 10
0.0
 20
0.0
 30
0.0
  3
*U1099
  1

  0
TEXT
  5
B6B7
  8
0
  6
CONTINUOUS
 62
     0
 10
1039.1866063023051
 20
-491.19439531098237
 30
0.0
 40
2.5
  1
15
  0
ENDBLK
  5
B6B9
  8
0
 62
     7
  0
BLOCK
  8
0
 62
     7
  2
*U1100
 70
     1
 10
0.0
 20
0.0
 30
0.0
  3
*U1100
  1

  0
TEXT
  5
B6BB
  8
0
  6
CONTINUOUS
 62
     0
 10
1028.1866063023051
 20
-642.12612047086316
 30
0.0
 40
2.5
  1
15
  0
ENDBLK
  5
B6BD
  8
0
 62
     7
  0
BLOCK
  8
0
 62
     7
  2
*U1101
 70
     1
 10
0.0
 20
0.0
 30
0.0
  3
*U1101
  1

  0
TEXT
  5
B6BF
  8
0
  6
CONTINUOUS
 62
     0
 10
1028.1866063023051
 20
-726.25328828324348
 30
0.0
 40
2.5
  1
15
  0
ENDBLK
  5
B6C1
  8
0
 62
     7
  0
BLOCK
  8
0
 62
     7
  2
*U1102
 70
     1
 10
0.0
 20
0.0
 30
0.0
  3
*U1102
  1

  0
TEXT
  5
B6C3
  8
0
  6
CONTINUOUS
 62
     0
 10
1033.1866063023051
 20
-810.38045609562391
 30
0.0
 40
2.5
  1
15
  0
ENDBLK
  5
B6C5
  8
0
 62
     7
  0
BLOCK
  8
0
 62
     7
  2
*U1103
 70
     1
 10
0.0
 20
0.0
 30
0.0
  3
*U1103
  1

  0
TEXT
  5
B6C7
  8
0
  6
CONTINUOUS
 62
     0
 10
1028.1866063023051
 20
-894.30089072425733
 30
0.0
 40
2.5
  1
15
  0
ENDBLK
  5
B6C9
  8
0
 62
     7
  0
BLOCK
  8
0
 62
     7
  2
*U1104
 70
     1
 10
0.0
 20
0.0
 30
0.0
  3
*U1104
  1

  0
TEXT
  5
B6CB
  8
0
  6
CONTINUOUS
 62
     0
 10
1039.1866063023051
 20
-978.42805853663742
 30
0.0
 40
2.5
  1
15
  0
ENDBLK
  5
B6CD
  8
0
 62
     7
  0
BLOCK
  8
0
 62
     7
  2
*U1105
 70
     1
 10
0.0
 20
0.0
 30
0.0
  3
*U1105
  1

  0
TEXT
  5
B6CF
  8
0
  6
CONTINUOUS
 62
     0
 10
1039.1866063023051
 20
-1062.5552263490181
 30
0.0
 40
2.5
  1
15
  0
ENDBLK
  5
B6D1
  8
0
 62
     7
  0
BLOCK
  8
0
 62
     7
  2
*U1106
 70
     1
 10
0.0
 20
0.0
 30
0.0
  3
*U1106
  1

  0
TEXT
  5
B6D3
  8
0
  6
CONTINUOUS
 62
     0
 10
1039.1866063023051
 20
-1154.4308597659649
 30
0.0
 40
2.5
  1
15
  0
ENDBLK
  5
B6D5
  8
0
 62
     7
  0
BLOCK
  8
0
 62
     7
  2
*U1107
 70
     1
 10
0.0
 20
0.0
 30
0.0
  3
*U1107
  1

  0
TEXT
  5
B6D7
  8
0
  6
CONTINUOUS
 62
     0
 10
1382.733202440184
 20
-1154.4308597659649
 30
0.0
 40
2.5
  1
15
  0
ENDBLK
  5
B6D9
  8
0
 62
     7
  0
BLOCK
  8
0
 62
     7
  2
*U1108
 70
     1
 10
0.0
 20
0.0
 30
0.0
  3
*U1108
  1

  0
TEXT
  5
B6DB
  8
0
  6
CONTINUOUS
 62
     0
 10
1382.733202440184
 20
-1062.5552263490181
 30
0.0
 40
2.5
  1
15
  0
ENDBLK
  5
B6DD
  8
0
 62
     7
  0
BLOCK
  8
0
 62
     7
  2
*U1109
 70
     1
 10
0.0
 20
0.0
 30
0.0
  3
*U1109
  1

  0
TEXT
  5
B6DF
  8
0
  6
CONTINUOUS
 62
     0
 10
1371.733202440184
 20
-894.30089072425756
 30
0.0
 40
2.5
  1
15
  0
ENDBLK
  5
B6E1
  8
0
 62
     7
  0
BLOCK
  8
0
 62
     7
  2
*U1110
 70
     1
 10
0.0
 20
0.0
 30
0.0
  3
*U1110
  1

  0
TEXT
  5
B6E3
  8
0
  6
CONTINUOUS
 62
     0
 10
1376.733202440184
 20
-810.38045609562391
 30
0.0
 40
2.5
  1
15
  0
ENDBLK
  5
B6E5
  8
0
 62
     7
  0
BLOCK
  8
0
 62
     7
  2
*U1111
 70
     1
 10
0.0
 20
0.0
 30
0.0
  3
*U1111
  1

  0
TEXT
  5
B6E7
  8
0
  6
CONTINUOUS
 62
     0
 10
1371.733202440184
 20
-726.25328828324348
 30
0.0
 40
2.5
  1
15
  0
ENDBLK
  5
B6E9
  8
0
 62
     7
  0
BLOCK
  8
0
 62
     7
  2
*U1112
 70
     1
 10
0.0
 20
0.0
 30
0.0
  3
*U1112
  1

  0
TEXT
  5
B6EB
  8
0
  6
CONTINUOUS
 62
     0
 10
1371.733202440184
 20
-642.12612047086316
 30
0.0
 40
2.5
  1
15
  0
ENDBLK
  5
B6ED
  8
0
 62
     7
  0
BLOCK
  8
0
 62
     7
  2
*U1113
 70
     1
 10
0.0
 20
0.0
 30
0.0
  3
*U1113
  1

  0
TEXT
  5
B6EF
  8
0
  6
CONTINUOUS
 62
     0
 10
1382.733202440184
 20
-491.19439531098232
 30
0.0
 40
2.5
  1
15
  0
ENDBLK
  5
B6F1
  8
0
 62
     7
  0
BLOCK
  8
0
 62
     7
  2
*U1114
 70
     1
 10
0.0
 20
0.0
 30
0.0
  3
*U1114
  1

  0
TEXT
  5
B6F3
  8
0
  6
CONTINUOUS
 62
     0
 10
1392.5665357735179
 20
-491.19439531098232
 30
0.0
 40
2.5
  1
3
  0
ENDBLK
  5
B6F5
  8
0
 62
     7
  0
BLOCK
  8
0
 62
     7
  2
*U1115
 70
     1
 10
0.0
 20
0.0
 30
0.0
  3
*U1115
  1

  0
TEXT
  5
B6F7
  8
0
  6
CONTINUOUS
 62
     0
 10
1382.733202440184
 20
-399.31876189403499
 30
0.0
 40
2.5
  1
15
  0
ENDBLK
  5
B6F9
  8
0
 62
     7
  0
BLOCK
  8
0
 62
     7
  2
*U1116
 70
     1
 10
0.0
 20
0.0
 30
0.0
  3
*U1116
  1

  0
TEXT
  5
B6FB
  8
0
  6
CONTINUOUS
 62
     0
 10
1392.566535773517
 20
-399.29264968258832
 30
0.0
 40
2.5
  1
3
  0
ENDBLK
  5
B6FD
  8
0
 62
     7
  0
BLOCK
  8
0
 62
     7
  2
*U1117
 70
     1
 10
0.0
 20
0.0
 30
0.0
  3
*U1117
  1

  0
TEXT
  5
B6FF
  8
0
  6
CONTINUOUS
 62
     0
 10
1382.733202440184
 20
-315.19159408165439
 30
0.0
 40
2.5
  1
15
  0
ENDBLK
  5
B701
  8
0
 62
     7
  0
BLOCK
  8
0
 62
     7
  2
*U1118
 70
     1
 10
0.0
 20
0.0
 30
0.0
  3
*U1118
  1

  0
TEXT
  5
B703
  8
0
  6
CONTINUOUS
 62
     0
 10
1392.566535773517
 20
-315.16548187020749
 30
0.0
 40
2.5
  1
3
  0
ENDBLK
  5
B705
  8
0
 62
     7
  0
BLOCK
  8
0
 62
     7
  2
*U1119
 70
     1
 10
0.0
 20
0.0
 30
0.0
  3
*U1119
  1

  0
TEXT
  5
B707
  8
0
  6
CONTINUOUS
 62
     0
 10
1371.733202440184
 20
-231.06442626927429
 30
0.0
 40
2.5
  1
15
  0
ENDBLK
  5
B709
  8
0
 62
     7
  0
BLOCK
  8
0
 62
     7
  2
*U1120
 70
     1
 10
0.0
 20
0.0
 30
0.0
  3
*U1120
  1

  0
TEXT
  5
B70B
  8
0
  6
CONTINUOUS
 62
     0
 10
1381.5665357735179
 20
-231.0383140578287
 30
0.0
 40
2.5
  1
3
  0
ENDBLK
  5
B70D
  8
0
 62
     7
  0
BLOCK
  8
0
 62
     7
  2
*U1121
 70
     1
 10
0.0
 20
0.0
 30
0.0
  3
*U1121
  1

  0
TEXT
  5
B70F
  8
0
  6
CONTINUOUS
 62
     0
 10
1376.733202440184
 20
-147.14399164064091
 30
0.0
 40
2.5
  1
15
  0
ENDBLK
  5
B711
  8
0
 62
     7
  0
BLOCK
  8
0
 62
     7
  2
*U1122
 70
     1
 10
0.0
 20
0.0
 30
0.0
  3
*U1122
  1

  0
TEXT
  5
B713
  8
0
  6
CONTINUOUS
 62
     0
 10
1386.566535773517
 20
-147.11787942919591
 30
0.0
 40
2.5
  1
3
  0
ENDBLK
  5
B715
  8
0
 62
     7
  0
BLOCK
  8
0
 62
     7
  2
*U1123
 70
     1
 10
0.0
 20
0.0
 30
0.0
  3
*U1123
  1

  0
TEXT
  5
B717
  8
0
  6
CONTINUOUS
 62
     0
 10
1371.733202440184
 20
-63.016823828260613
 30
0.0
 40
2.5
  1
15
  0
ENDBLK
  5
B719
  8
0
 62
     7
  0
BLOCK
  8
0
 62
     7
  2
*U1124
 70
     1
 10
0.0
 20
0.0
 30
0.0
  3
*U1124
  1

  0
TEXT
  5
B71B
  8
0
  6
CONTINUOUS
 62
     0
 10
1381.566535773517
 20
-62.990711616814671
 30
0.0
 40
2.5
  1
3
  0
ENDBLK
  5
B71D
  8
0
 62
     7
  0
BLOCK
  8
0
 62
     7
  2
*U1125
 70
     1
 10
0.0
 20
0.0
 30
0.0
  3
*U1125
  1

  0
TEXT
  5
B71F
  8
0
  6
CONTINUOUS
 62
     0
 10
1371.733202440184
 20
21.110343984119709
 30
0.0
 40
2.5
  1
15
  0
ENDBLK
  5
B721
  8
0
 62
     7
  0
BLOCK
  8
0
 62
     7
  2
*U1126
 70
     1
 10
0.0
 20
0.0
 30
0.0
  3
*U1126
  1

  0
TEXT
  5
B723
  8
0
  6
CONTINUOUS
 62
     0
 10
1381.5665357735179
 20
21.136456195566101
 30
0.0
 40
2.5
  1
3
  0
ENDBLK
  5
B725
  8
0
 62
     7
  0
BLOCK
  8
0
 62
     7
  2
*U1127
 70
     1
 10
0.0
 20
0.0
 30
0.0
  3
*U1127
  1

  0
TEXT
  5
B727
  8
0
  6
CONTINUOUS
 62
     0
 10
72.707154168493389
 20
47.291666666666679
 30
0.0
 40
2.5
  1
30Åã
 50
90.0
  0
ENDBLK
  5
B729
  8
0
 62
     7
  0
BLOCK
  8
0
 62
     7
  2
*U1128
 70
     1
 10
0.0
 20
0.0
 30
0.0
  3
*U1128
  1

  0
TEXT
  5
B72B
  8
0
  6
CONTINUOUS
 62
     0
 10
747.2200972411996
 20
36.15271586556004
 30
0.0
 40
2.5
  1
30Åã
 50
90.0
  0
ENDBLK
  5
B72D
  8
0
 62
     7
  0
BLOCK
  8
0
 62
     7
  2
*U1129
 70
     1
 10
0.0
 20
0.0
 30
0.0
  3
*U1129
  1

  0
TEXT
  5
B72F
  8
0
  6
CONTINUOUS
 62
     0
 10
748.75700790058193
 20
-47.974451946820238
 30
0.0
 40
2.5
  1
30Åã
 50
90.0
  0
ENDBLK
  5
B731
  8
0
 62
     7
  0
BLOCK
  8
0
 62
     7
  2
*U1130
 70
     1
 10
0.0
 20
0.0
 30
0.0
  3
*U1130
  1

  0
TEXT
  5
B733
  8
0
  6
CONTINUOUS
 62
     0
 10
761.00076669073974
 20
-132.10161977330699
 30
0.0
 40
2.5
  1
30Åã
 50
90.0
  0
ENDBLK
  5
B735
  8
0
 62
     7
  0
BLOCK
  8
0
 62
     7
  2
*U1131
 70
     1
 10
0.0
 20
0.0
 30
0.0
  3
*U1131
  1

  0
TEXT
  5
B737
  8
0
  6
CONTINUOUS
 62
     0
 10
759.71726916484522
 20
-216.22878757158091
 30
0.0
 40
2.5
  1
30Åã
 50
90.0
  0
ENDBLK
  5
B739
  8
0
 62
     7
  0
BLOCK
  8
0
 62
     7
  2
*U1132
 70
     1
 10
0.0
 20
0.0
 30
0.0
  3
*U1132
  1

  0
TEXT
  5
B73B
  8
0
  6
CONTINUOUS
 62
     0
 10
758.76114873066695
 20
-300.3559553839612
 30
0.0
 40
2.5
  1
30Åã
 50
90.0
  0
ENDBLK
  5
B73D
  8
0
 62
     7
  0
BLOCK
  8
0
 62
     7
  2
*U1133
 70
     1
 10
0.0
 20
0.0
 30
0.0
  3
*U1133
  1

  0
TEXT
  5
B73F
  8
0
  6
CONTINUOUS
 62
     0
 10
765.88773730725575
 20
-384.48312319634152
 30
0.0
 40
2.5
  1
30Åã
 50
90.0
  0
ENDBLK
  5
B741
  8
0
 62
     7
  0
BLOCK
  8
0
 62
     7
  2
*U1134
 70
     1
 10
0.0
 20
0.0
 30
0.0
  3
*U1134
  1

  0
TEXT
  5
B743
  8
0
  6
CONTINUOUS
 62
     0
 10
767.90360058726947
 20
-468.61029100872167
 30
0.0
 40
2.5
  1
30Åã
 50
90.0
  0
ENDBLK
  5
B745
  8
0
 62
     7
  0
BLOCK
  8
0
 62
     7
  2
*U1135
 70
     1
 10
0.0
 20
0.0
 30
0.0
  3
*U1135
  1

  0
TEXT
  5
B747
  8
0
  6
CONTINUOUS
 62
     0
 10
402.85594366216782
 20
-711.21091640180305
 30
0.0
 40
2.5
  1
30Åã
 50
90.0
  0
ENDBLK
  5
B749
  8
0
 62
     7
  0
BLOCK
  8
0
 62
     7
  2
*U1136
 70
     1
 10
0.0
 20
0.0
 30
0.0
  3
*U1136
  1

  0
TEXT
  5
B74B
  8
0
  6
CONTINUOUS
 62
     0
 10
415.01148903363548
 20
-795.33808423827304
 30
0.0
 40
2.5
  1
30Åã
 50
90.0
  0
ENDBLK
  5
B74D
  8
0
 62
     7
  0
BLOCK
  8
0
 62
     7
  2
*U1137
 70
     1
 10
0.0
 20
0.0
 30
0.0
  3
*U1137
  1

  0
TEXT
  5
B74F
  8
0
  6
CONTINUOUS
 62
     0
 10
412.58808113231828
 20
-879.46525202656392
 30
0.0
 40
2.5
  1
30Åã
 50
90.0
  0
ENDBLK
  5
B751
  8
0
 62
     7
  0
BLOCK
  8
0
 62
     7
  2
*U1138
 70
     1
 10
0.0
 20
0.0
 30
0.0
  3
*U1138
  1

  0
TEXT
  5
B753
  8
0
  6
CONTINUOUS
 62
     0
 10
412.75973319193912
 20
-963.59241983894424
 30
0.0
 40
2.5
  1
30Åã
 50
90.0
  0
ENDBLK
  5
B755
  8
0
 62
     7
  0
BLOCK
  8
0
 62
     7
  2
*U1139
 70
     1
 10
0.0
 20
0.0
 30
0.0
  3
*U1139
  1

  0
TEXT
  5
B757
  8
0
  6
CONTINUOUS
 62
     0
 10
420.3811872453195
 20
-1047.719587651324
 30
0.0
 40
2.5
  1
30Åã
 50
90.0
  0
ENDBLK
  5
B759
  8
0
 62
     7
  0
BLOCK
  8
0
 62
     7
  2
*U1140
 70
     1
 10
0.0
 20
0.0
 30
0.0
  3
*U1140
  1

  0
TEXT
  5
B75B
  8
0
  6
CONTINUOUS
 62
     0
 10
421.84550604945241
 20
-1131.846755463705
 30
0.0
 40
2.5
  1
30Åã
 50
90.0
  0
ENDBLK
  5
B75D
  8
0
 62
     7
  0
BLOCK
  8
0
 62
     7
  2
*U1141
 70
     1
 10
0.0
 20
0.0
 30
0.0
  3
*U1141
  1

  0
TEXT
  5
B75F
  8
0
  6
CONTINUOUS
 62
     0
 10
745.34347596200803
 20
-627.08374858942284
 30
0.0
 40
2.5
  1
30Åã
 50
90.0
  0
ENDBLK
  5
B761
  8
0
 62
     7
  0
BLOCK
  8
0
 62
     7
  2
*U1142
 70
     1
 10
0.0
 20
0.0
 30
0.0
  3
*U1142
  1

  0
TEXT
  5
B763
  8
0
  6
CONTINUOUS
 62
     0
 10
750.15063016364445
 20
-711.21091640180327
 30
0.0
 40
2.5
  1
30Åã
 50
90.0
  0
ENDBLK
  5
B765
  8
0
 62
     7
  0
BLOCK
  8
0
 62
     7
  2
*U1143
 70
     1
 10
0.0
 20
0.0
 30
0.0
  3
*U1143
  1

  0
TEXT
  5
B767
  8
0
  6
CONTINUOUS
 62
     0
 10
759.10514841428835
 20
-795.33808423603716
 30
0.0
 40
2.5
  1
30Åã
 50
90.0
  0
ENDBLK
  5
B769
  8
0
 62
     7
  0
BLOCK
  8
0
 62
     7
  2
*U1144
 70
     1
 10
0.0
 20
0.0
 30
0.0
  3
*U1144
  1

  0
TEXT
  5
B76B
  8
0
  6
CONTINUOUS
 62
     0
 10
760.64241157996537
 20
-879.46525202656392
 30
0.0
 40
2.5
  1
30Åã
 50
90.0
  0
ENDBLK
  5
B76D
  8
0
 62
     7
  0
BLOCK
  8
0
 62
     7
  2
*U1145
 70
     1
 10
0.0
 20
0.0
 30
0.0
  3
*U1145
  1

  0
TEXT
  5
B76F
  8
0
  6
CONTINUOUS
 62
     0
 10
758.70212877955339
 20
-963.59241983894424
 30
0.0
 40
2.5
  1
30Åã
 50
90.0
  0
ENDBLK
  5
B771
  8
0
 62
     7
  0
BLOCK
  8
0
 62
     7
  2
*U1146
 70
     1
 10
0.0
 20
0.0
 30
0.0
  3
*U1146
  1

  0
TEXT
  5
B773
  8
0
  6
CONTINUOUS
 62
     0
 10
765.14677181730951
 20
-1047.719587651324
 30
0.0
 40
2.5
  1
30Åã
 50
90.0
  0
ENDBLK
  5
B775
  8
0
 62
     7
  0
BLOCK
  8
0
 62
     7
  2
*U1147
 70
     1
 10
0.0
 20
0.0
 30
0.0
  3
*U1147
  1

  0
TEXT
  5
B777
  8
0
  6
CONTINUOUS
 62
     0
 10
768.51554021331162
 20
-1131.846755463705
 30
0.0
 40
2.5
  1
30Åã
 50
90.0
  0
ENDBLK
  5
B779
  8
0
 62
     7
  0
BLOCK
  8
0
 62
     7
  2
*U1148
 70
     1
 10
0.0
 20
0.0
 30
0.0
  3
*U1148
  1

  0
TEXT
  5
B77B
  8
0
  6
CONTINUOUS
 62
     0
 10
1038.782874197077
 20
-1131.8467554637041
 30
0.0
 40
2.5
  1
30Åã
 50
90.0
  0
ENDBLK
  5
B77D
  8
0
 62
     7
  0
BLOCK
  8
0
 62
     7
  2
*U1149
 70
     1
 10
0.0
 20
0.0
 30
0.0
  3
*U1149
  1

  0
TEXT
  5
B77F
  8
0
  6
CONTINUOUS
 62
     0
 10
1040.0515958959579
 20
-1047.719587651324
 30
0.0
 40
2.5
  1
30Åã
 50
90.0
  0
ENDBLK
  5
B781
  8
0
 62
     7
  0
BLOCK
  8
0
 62
     7
  2
*U1150
 70
     1
 10
0.0
 20
0.0
 30
0.0
  3
*U1150
  1

  0
TEXT
  5
B783
  8
0
  6
CONTINUOUS
 62
     0
 10
1039.773176782569
 20
-963.59241983894412
 30
0.0
 40
2.5
  1
30Åã
 50
90.0
  0
ENDBLK
  5
B785
  8
0
 62
     7
  0
BLOCK
  8
0
 62
     7
  2
*U1151
 70
     1
 10
0.0
 20
0.0
 30
0.0
  3
*U1151
  1

  0
TEXT
  5
B787
  8
0
  6
CONTINUOUS
 62
     0
 10
1028.428069720926
 20
-879.46525202656392
 30
0.0
 40
2.5
  1
30Åã
 50
90.0
  0
ENDBLK
  5
B789
  8
0
 62
     7
  0
BLOCK
  8
0
 62
     7
  2
*U1152
 70
     1
 10
0.0
 20
0.0
 30
0.0
  3
*U1152
  1

  0
TEXT
  5
B78B
  8
0
  6
CONTINUOUS
 62
     0
 10
1033.098573895546
 20
-795.33808424301958
 30
0.0
 40
2.5
  1
30Åã
 50
90.0
  0
ENDBLK
  5
B78D
  8
0
 62
     7
  0
BLOCK
  8
0
 62
     7
  2
*U1153
 70
     1
 10
0.0
 20
0.0
 30
0.0
  3
*U1153
  1

  0
TEXT
  5
B78F
  8
0
  6
CONTINUOUS
 62
     0
 10
1027.77723185176
 20
-711.21091640180327
 30
0.0
 40
2.5
  1
30Åã
 50
90.0
  0
ENDBLK
  5
B791
  8
0
 62
     7
  0
BLOCK
  8
0
 62
     7
  2
*U1154
 70
     1
 10
0.0
 20
0.0
 30
0.0
  3
*U1154
  1

  0
TEXT
  5
B793
  8
0
  6
CONTINUOUS
 62
     0
 10
1030.690515382488
 20
-627.08374858942295
 30
0.0
 40
2.5
  1
30Åã
 50
90.0
  0
ENDBLK
  5
B795
  8
0
 62
     7
  0
BLOCK
  8
0
 62
     7
  2
*U1155
 70
     1
 10
0.0
 20
0.0
 30
0.0
  3
*U1155
  1

  0
TEXT
  5
B797
  8
0
  6
CONTINUOUS
 62
     0
 10
1029.657870806019
 20
36.152715865560133
 30
0.0
 40
2.5
  1
30Åã
 50
90.0
  0
ENDBLK
  5
B799
  8
0
 62
     7
  0
BLOCK
  8
0
 62
     7
  2
*U1156
 70
     1
 10
0.0
 20
0.0
 30
0.0
  3
*U1156
  1

  0
TEXT
  5
B79B
  8
0
  6
CONTINUOUS
 62
     0
 10
1031.15924582498
 20
-47.974451946820118
 30
0.0
 40
2.5
  1
30Åã
 50
90.0
  0
ENDBLK
  5
B79D
  8
0
 62
     7
  0
BLOCK
  8
0
 62
     7
  2
*U1157
 70
     1
 10
0.0
 20
0.0
 30
0.0
  3
*U1157
  1

  0
TEXT
  5
B79F
  8
0
  6
CONTINUOUS
 62
     0
 10
1032.9320553161349
 20
-132.1016197887173
 30
0.0
 40
2.5
  1
30Åã
 50
90.0
  0
ENDBLK
  5
B7A1
  8
0
 62
     7
  0
BLOCK
  8
0
 62
     7
  2
*U1158
 70
     1
 10
0.0
 20
0.0
 30
0.0
  3
*U1158
  1

  0
TEXT
  5
B7A3
  8
0
  6
CONTINUOUS
 62
     0
 10
1029.6037140369369
 20
-216.22878757158091
 30
0.0
 40
2.5
  1
30Åã
 50
90.0
  0
ENDBLK
  5
B7A5
  8
0
 62
     7
  0
BLOCK
  8
0
 62
     7
  2
*U1159
 70
     1
 10
0.0
 20
0.0
 30
0.0
  3
*U1159
  1

  0
TEXT
  5
B7A7
  8
0
  6
CONTINUOUS
 62
     0
 10
1040.588134699143
 20
-300.3559553839612
 30
0.0
 40
2.5
  1
30Åã
 50
90.0
  0
ENDBLK
  5
B7A9
  8
0
 62
     7
  0
BLOCK
  8
0
 62
     7
  2
*U1160
 70
     1
 10
0.0
 20
0.0
 30
0.0
  3
*U1160
  1

  0
TEXT
  5
B7AB
  8
0
  6
CONTINUOUS
 62
     0
 10
1040.361949905456
 20
-384.4831231963413
 30
0.0
 40
2.5
  1
30Åã
 50
90.0
  0
ENDBLK
  5
B7AD
  8
0
 62
     7
  0
BLOCK
  8
0
 62
     7
  2
*U1161
 70
     1
 10
0.0
 20
0.0
 30
0.0
  3
*U1161
  1

  0
TEXT
  5
B7AF
  8
0
  6
CONTINUOUS
 62
     0
 10
1040.593114908803
 20
-468.61029100872179
 30
0.0
 40
2.5
  1
30Åã
 50
90.0
  0
ENDBLK
  5
B7B1
  8
0
 62
     7
  0
BLOCK
  8
0
 62
     7
  2
*U1162
 70
     1
 10
0.0
 20
0.0
 30
0.0
  3
*U1162
  1

  0
TEXT
  5
B7B3
  8
0
  6
CONTINUOUS
 62
     0
 10
1403.3877308359499
 20
-1131.846755463705
 30
0.0
 40
2.5
  1
30Åã
 50
90.0
  0
ENDBLK
  5
B7B5
  8
0
 62
     7
  0
BLOCK
  8
0
 62
     7
  2
*U1163
 70
     1
 10
0.0
 20
0.0
 30
0.0
  3
*U1163
  1

  0
TEXT
  5
B7B7
  8
0
  6
CONTINUOUS
 62
     0
 10
1402.0439900035899
 20
-1047.719587651324
 30
0.0
 40
2.5
  1
30Åã
 50
90.0
  0
ENDBLK
  5
B7B9
  8
0
 62
     7
  0
BLOCK
  8
0
 62
     7
  2
*U1164
 70
     1
 10
0.0
 20
0.0
 30
0.0
  3
*U1164
  1

  0
TEXT
  5
B7BB
  8
0
  6
CONTINUOUS
 62
     0
 10
1399.5030637296891
 20
-963.59241983894412
 30
0.0
 40
2.5
  1
30Åã
 50
90.0
  0
ENDBLK
  5
B7BD
  8
0
 62
     7
  0
BLOCK
  8
0
 62
     7
  2
*U1165
 70
     1
 10
0.0
 20
0.0
 30
0.0
  3
*U1165
  1

  0
TEXT
  5
B7BF
  8
0
  6
CONTINUOUS
 62
     0
 10
1404.975378416194
 20
-894.7921727310752
 30
0.0
 40
2.5
  1
150Åã
  0
ENDBLK
  5
B7C1
  8
0
 62
     7
  0
BLOCK
  8
0
 62
     7
  2
*U1166
 70
     1
 10
0.0
 20
0.0
 30
0.0
  3
*U1166
  1

  0
TEXT
  5
B7C3
  8
0
  6
CONTINUOUS
 62
     0
 10
1386.7776706374741
 20
-879.46525202656369
 30
0.0
 40
2.5
  1
30Åã
 50
90.0
  0
ENDBLK
  5
B7C5
  8
0
 62
     7
  0
BLOCK
  8
0
 62
     7
  2
*U1167
 70
     1
 10
0.0
 20
0.0
 30
0.0
  3
*U1167
  1

  0
TEXT
  5
B7C7
  8
0
  6
CONTINUOUS
 62
     0
 10
1394.273133195099
 20
-795.33808417097612
 30
0.0
 40
2.5
  1
30Åã
 50
90.0
  0
ENDBLK
  5
B7C9
  8
0
 62
     7
  0
BLOCK
  8
0
 62
     7
  2
*U1168
 70
     1
 10
0.0
 20
0.0
 30
0.0
  3
*U1168
  1

  0
TEXT
  5
B7CB
  8
0
  6
CONTINUOUS
 62
     0
 10
1388.0883125985799
 20
-711.21091640180305
 30
0.0
 40
2.5
  1
30Åã
 50
90.0
  0
ENDBLK
  5
B7CD
  8
0
 62
     7
  0
BLOCK
  8
0
 62
     7
  2
*U1169
 70
     1
 10
0.0
 20
0.0
 30
0.0
  3
*U1169
  1

  0
TEXT
  5
B7CF
  8
0
  6
CONTINUOUS
 62
     0
 10
1385.262176785265
 20
-627.08374858942273
 30
0.0
 40
2.5
  1
30Åã
 50
90.0
  0
ENDBLK
  5
B7D1
  8
0
 62
     7
  0
BLOCK
  8
0
 62
     7
  2
*U1170
 70
     1
 10
0.0
 20
0.0
 30
0.0
  3
*U1170
  1

  0
TEXT
  5
B7D3
  8
0
  6
CONTINUOUS
 62
     0
 10
1369.803732919283
 20
-468.61029100872167
 30
0.0
 40
2.5
  1
30Åã
 50
90.0
  0
ENDBLK
  5
B7D5
  8
0
 62
     7
  0
BLOCK
  8
0
 62
     7
  2
*U1171
 70
     1
 10
0.0
 20
0.0
 30
0.0
  3
*U1171
  1

  0
TEXT
  5
B7D7
  8
0
  6
CONTINUOUS
 62
     0
 10
1429.0375562426841
 20
-319.30053874933373
 30
0.0
 40
2.5
  1
150Åã
  0
ENDBLK
  5
B7D9
  8
0
 62
     7
  0
BLOCK
  8
0
 62
     7
  2
*U1172
 70
     1
 10
0.0
 20
0.0
 30
0.0
  3
*U1172
  1

  0
TEXT
  5
B7DB
  8
0
  6
CONTINUOUS
 62
     0
 10
1370.2184569592371
 20
-384.48312319634141
 30
0.0
 40
2.5
  1
30Åã
 50
90.0
  0
ENDBLK
  5
B7DD
  8
0
 62
     7
  0
BLOCK
  8
0
 62
     7
  2
*U1173
 70
     1
 10
0.0
 20
0.0
 30
0.0
  3
*U1173
  1

  0
TEXT
  5
B7DF
  8
0
  6
CONTINUOUS
 62
     0
 10
1372.9188149068509
 20
-300.35595538396097
 30
0.0
 40
2.5
  1
30Åã
 50
90.0
  0
ENDBLK
  5
B7E1
  8
0
 62
     7
  0
BLOCK
  8
0
 62
     7
  2
*U1174
 70
     1
 10
0.0
 20
0.0
 30
0.0
  3
*U1174
  1

  0
TEXT
  5
B7E3
  8
0
  6
CONTINUOUS
 62
     0
 10
1373.637202208155
 20
-216.2287875715808
 30
0.0
 40
2.5
  1
30Åã
 50
90.0
  0
ENDBLK
  5
B7E5
  8
0
 62
     7
  0
BLOCK
  8
0
 62
     7
  2
*U1175
 70
     1
 10
0.0
 20
0.0
 30
0.0
  3
*U1175
  1

  0
TEXT
  5
B7E7
  8
0
  6
CONTINUOUS
 62
     0
 10
1367.796087329579
 20
-132.1016198242018
 30
0.0
 40
2.5
  1
30Åã
 50
90.0
  0
ENDBLK
  5
B7E9
  8
0
 62
     7
  0
BLOCK
  8
0
 62
     7
  2
*U1176
 70
     1
 10
0.0
 20
0.0
 30
0.0
  3
*U1176
  1

  0
TEXT
  5
B7EB
  8
0
  6
CONTINUOUS
 62
     0
 10
1374.6468062398069
 20
36.152715865560111
 30
0.0
 40
2.5
  1
30Åã
 50
90.0
  0
ENDBLK
  5
B7ED
  8
0
 62
     7
  0
BLOCK
  8
0
 62
     7
  2
*U1177
 70
     1
 10
0.0
 20
0.0
 30
0.0
  3
*U1177
  1

  0
TEXT
  5
B7EF
  8
0
  6
CONTINUOUS
 62
     0
 10
1374.3324642272769
 20
-47.974451946820182
 30
0.0
 40
2.5
  1
30Åã
 50
90.0
  0
ENDBLK
  5
B7F1
  8
0
 62
     7
  0
BLOCK
  8
0
 62
     7
  2
*U1178
 70
     1
 10
0.0
 20
0.0
 30
0.0
  3
*U1178
  1

  0
TEXT
  5
B7F3
  8
0
  6
CONTINUOUS
 62
     0
 10
1359.7452277286729
 20
-961.71741983894424
 30
0.0
 40
2.5
  1
9
 50
90.0
  0
ENDBLK
  5
B7F5
  8
0
 62
     7
  0
BLOCK
  8
0
 62
     7
  2
*U1179
 70
     1
 10
0.0
 20
0.0
 30
0.0
  3
*U1179
  1

  0
TEXT
  5
B7F7
  8
0
  6
CONTINUOUS
 62
     0
 10
1357.7358961243799
 20
-877.5902520265638
 30
0.0
 40
2.5
  1
7
 50
90.0
  0
ENDBLK
  5
B7F9
  8
0
 62
     7
  0
BLOCK
  8
0
 62
     7
  2
*U1180
 70
     1
 10
0.0
 20
0.0
 30
0.0
  3
*U1180
  1

  0
TEXT
  5
B7FB
  8
0
  6
CONTINUOUS
 62
     0
 10
1360.3498581372489
 20
-467.5686243420551
 30
0.0
 40
2.5
  1
17
 50
90.0
  0
ENDBLK
  5
B7FD
  8
0
 62
     7
  0
BLOCK
  8
0
 62
     7
  2
*U1181
 70
     1
 10
0.0
 20
0.0
 30
0.0
  3
*U1181
  1

  0
TEXT
  5
B7FF
  8
0
  6
CONTINUOUS
 62
     0
 10
1361.209467763882
 20
-383.44145652967478
 30
0.0
 40
2.5
  1
13
 50
90.0
  0
ENDBLK
  5
B801
  8
0
 62
     7
  0
BLOCK
  8
0
 62
     7
  2
*U1182
 70
     1
 10
0.0
 20
0.0
 30
0.0
  3
*U1182
  1

  0
TEXT
  5
B803
  8
0
  6
CONTINUOUS
 62
     0
 10
1360.363910891137
 20
-298.48095538396097
 30
0.0
 40
2.5
  1
9
 50
90.0
  0
ENDBLK
  5
B805
  8
0
 62
     7
  0
BLOCK
  8
0
 62
     7
  2
*U1183
 70
     1
 10
0.0
 20
0.0
 30
0.0
  3
*U1183
  1

  0
TEXT
  5
B807
  8
0
  6
CONTINUOUS
 62
     0
 10
1358.104325928284
 20
-214.3537875715808
 30
0.0
 40
2.5
  1
7
 50
90.0
  0
ENDBLK
  5
B809
  8
0
 62
     7
  0
BLOCK
  8
0
 62
     7
  2
*U1184
 70
     1
 10
0.0
 20
0.0
 30
0.0
  3
*U1184
  1

  0
TEXT
  5
B80B
  8
0
  6
CONTINUOUS
 62
     0
 10
53.541667666666662
 20
32.24929478522651
 30
0.0
 40
2.5
  1
10
  0
ENDBLK
  5
B80D
  8
0
 62
     7
  0
BLOCK
  8
0
 62
     7
  2
*U1185
 70
     1
 10
0.0
 20
0.0
 30
0.0
  3
*U1185
  1

  0
TEXT
  5
B80F
  8
0
  6
CONTINUOUS
 62
     0
 10
63.166667666666662
 20
32.24929478522651
 30
0.0
 40
2.5
  1
8
  0
ENDBLK
  5
B811
  8
0
 62
     7
  0
BLOCK
  8
0
 62
     7
  2
*U1186
 70
     1
 10
0.0
 20
0.0
 30
0.0
  3
*U1186
  1

  0
TEXT
  5
B813
  8
0
  6
CONTINUOUS
 62
     0
 10
42.786979501257619
 20
49.166666666666671
 30
0.0
 40
2.5
  1
8
 50
90.0
  0
ENDBLK
  5
B815
  8
0
 62
     7
  0
BLOCK
  8
0
 62
     7
  2
*U1187
 70
     1
 10
0.0
 20
0.0
 30
0.0
  3
*U1187
  1

  0
TEXT
  5
B817
  8
0
  6
CONTINUOUS
 62
     0
 10
131.15234858630529
 20
34.802871527882601
 30
0.0
 40
2.5
  1
12,8
  0
ENDBLK
  5
B819
  8
0
 62
     7
  0
BLOCK
  8
0
 62
     7
  2
*U1188
 70
     1
 10
0.0
 20
0.0
 30
0.0
  3
*U1188
  1

  0
TEXT
  5
B81B
  8
0
  6
CONTINUOUS
 62
     0
 10
73.833333333333357
 20
32.249294785226539
 30
0.0
 40
2.5
  1
15
  0
ENDBLK
  5
B81D
  8
0
 62
     7
  0
BLOCK
  8
0
 62
     7
  2
*U1189
 70
     1
 10
0.0
 20
0.0
 30
0.0
  3
*U1189
  1

  0
TEXT
  5
B81F
  8
0
  6
CONTINUOUS
 62
     0
 10
83.666666666666714
 20
32.275406996672587
 30
0.0
 40
2.5
  1
3
  0
ENDBLK
  5
B821
  8
0
 62
     7
  0
BLOCK
  8
0
 62
     7
  2
*U1190
 70
     1
 10
0.0
 20
0.0
 30
0.0
  3
*U1190
  1

  0
TEXT
  5
B823
  8
0
  6
CONTINUOUS
 62
     0
 10
75.098767424806653
 20
47.291666666666693
 30
0.0
 40
2.5
  1
30Åã
 50
90.0
  0
ENDBLK
  5
B825
  8
0
 62
     7
  0
BLOCK
  8
0
 62
     7
  2
*U1191
 70
     1
 10
0.0
 20
0.0
 30
0.0
  3
*U1191
  1

  0
TEXT
  5
B827
  8
0
  6
CONTINUOUS
 62
     0
 10
57.333334333333333
 20
32.24929478522651
 30
0.0
 40
2.5
  1
18
  0
ENDBLK
  5
B829
  8
0
 62
     7
  0
BLOCK
  8
0
 62
     7
  2
*U1192
 70
     1
 10
0.0
 20
0.0
 30
0.0
  3
*U1192
  1

  0
TEXT
  5
B82B
  8
0
  6
CONTINUOUS
 62
     0
 10
71.541667666666669
 20
32.24929478522651
 30
0.0
 40
2.5
  1
10
  0
ENDBLK
  5
B82D
  8
0
 62
     7
  0
BLOCK
  8
0
 62
     7
  2
*U1193
 70
     1
 10
0.0
 20
0.0
 30
0.0
  3
*U1193
  1

  0
TEXT
  5
B82F
  8
0
  6
CONTINUOUS
 62
     0
 10
42.786979501257619
 20
48.541666666666693
 30
0.0
 40
2.5
  1
10
 50
90.0
  0
ENDBLK
  5
B831
  8
0
 62
     7
  0
BLOCK
  8
0
 62
     7
  2
*U1194
 70
     1
 10
0.0
 20
0.0
 30
0.0
  3
*U1194
  1

  0
TEXT
  5
B833
  8
0
  6
CONTINUOUS
 62
     0
 10
145.88439939387419
 20
34.80287152788263
 30
0.0
 40
2.5
  1
14,8
  0
ENDBLK
  5
B835
  8
0
 62
     7
  0
BLOCK
  8
0
 62
     7
  2
*U1195
 70
     1
 10
0.0
 20
0.0
 30
0.0
  3
*U1195
  1

  0
TEXT
  5
B837
  8
0
  6
CONTINUOUS
 62
     0
 10
83.833333333333314
 20
32.249294785226482
 30
0.0
 40
2.5
  1
15
  0
ENDBLK
  5
B839
  8
0
 62
     7
  0
BLOCK
  8
0
 62
     7
  2
*U1196
 70
     1
 10
0.0
 20
0.0
 30
0.0
  3
*U1196
  1

  0
TEXT
  5
B83B
  8
0
  6
CONTINUOUS
 62
     0
 10
93.666666666666643
 20
32.275406996671279
 30
0.0
 40
2.5
  1
3
  0
ENDBLK
  5
B83D
  8
0
 62
     7
  0
BLOCK
  8
0
 62
     7
  2
*U1197
 70
     1
 10
0.0
 20
0.0
 30
0.0
  3
*U1197
  1

  0
TEXT
  5
B83F
  8
0
  6
CONTINUOUS
 62
     0
 10
86.774995203463916
 20
47.291666650212562
 30
0.0
 40
2.5
  1
30Åã
 50
90.0
  0
ENDBLK
  5
B841
  8
0
 62
     7
  0
BLOCK
  8
0
 62
     7
  2
*U1198
 70
     1
 10
0.0
 20
0.0
 30
0.0
  3
*U1198
  1

  0
TEXT
  5
B843
  8
0
  6
CONTINUOUS
 62
     0
 10
140.1569927835618
 20
34.80287152788263
 30
0.0
 40
2.5
  1
14,8
  0
ENDBLK
  5
B845
  8
0
 62
     7
  0
BLOCK
  8
0
 62
     7
  2
*U1199
 70
     1
 10
0.0
 20
0.0
 30
0.0
  3
*U1199
  1

  0
TEXT
  5
B847
  8
0
  6
CONTINUOUS
 62
     0
 10
36.623375192078854
 20
48.541666666666671
 30
0.0
 40
2.5
  1
10
 50
90.0
  0
ENDBLK
  5
B849
  8
0
 62
     7
  0
BLOCK
  8
0
 62
     7
  2
*U1200
 70
     1
 10
0.0
 20
0.0
 30
0.0
  3
*U1200
  1

  0
TEXT
  5
B84B
  8
0
  6
CONTINUOUS
 62
     0
 10
57.333334833333332
 20
32.456027968973331
 30
0.0
 40
2.5
  1
18
  0
ENDBLK
  5
B84D
  8
0
 62
     7
  0
BLOCK
  8
0
 62
     7
  2
*U1201
 70
     1
 10
0.0
 20
0.0
 30
0.0
  3
*U1201
  1

  0
TEXT
  5
B84F
  8
0
  6
CONTINUOUS
 62
     0
 10
71.541668166666653
 20
32.456027968973331
 30
0.0
 40
2.5
  1
10
  0
ENDBLK
  5
B851
  8
0
 62
     7
  0
BLOCK
  8
0
 62
     7
  2
*U1202
 70
     1
 10
0.0
 20
0.0
 30
0.0
  3
*U1202
  1

  0
TEXT
  5
B853
  8
0
  6
CONTINUOUS
 62
     0
 10
83.833333333333314
 20
32.456027968973331
 30
0.0
 40
2.5
  1
15
  0
ENDBLK
  5
B855
  8
0
 62
     7
  0
BLOCK
  8
0
 62
     7
  2
*U1203
 70
     1
 10
0.0
 20
0.0
 30
0.0
  3
*U1203
  1

  0
TEXT
  5
B857
  8
0
  6
CONTINUOUS
 62
     0
 10
93.6666666666667
 20
32.482140180418469
 30
0.0
 40
2.5
  1
3
  0
ENDBLK
  5
B859
  8
0
 62
     7
  0
BLOCK
  8
0
 62
     7
  2
*U1204
 70
     1
 10
0.0
 20
0.0
 30
0.0
  3
*U1204
  1

  0
TEXT
  5
B85B
  8
0
  6
CONTINUOUS
 62
     0
 10
86.539197517247899
 20
47.291666666666707
 30
0.0
 40
2.5
  1
30Åã
 50
90.0
  0
ENDBLK
  5
B85D
  8
0
 62
     7
  0
BLOCK
  8
0
 62
     7
  2
*U1205
 70
     1
 10
0.0
 20
0.0
 30
0.0
  3
*U1205
  1

  0
TEXT
  5
B85F
  8
0
  6
CONTINUOUS
 62
     0
 10
143.88904359113059
 20
34.802871527882573
 30
0.0
 40
2.5
  1
16,8
  0
ENDBLK
  5
B861
  8
0
 62
     7
  0
BLOCK
  8
0
 62
     7
  2
*U1206
 70
     1
 10
0.0
 20
0.0
 30
0.0
  3
*U1206
  1

  0
TEXT
  5
B863
  8
0
  6
CONTINUOUS
 62
     0
 10
36.62337519207891
 20
48.33333333333335
 30
0.0
 40
2.5
  1
12
 50
90.0
  0
ENDBLK
  5
B865
  8
0
 62
     7
  0
BLOCK
  8
0
 62
     7
  2
*U1207
 70
     1
 10
0.0
 20
0.0
 30
0.0
  3
*U1207
  1

  0
TEXT
  5
B867
  8
0
  6
CONTINUOUS
 62
     0
 10
55.833334833333332
 20
32.456027968973331
 30
0.0
 40
2.5
  1
15
  0
ENDBLK
  5
B869
  8
0
 62
     7
  0
BLOCK
  8
0
 62
     7
  2
*U1208
 70
     1
 10
0.0
 20
0.0
 30
0.0
  3
*U1208
  1

  0
TEXT
  5
B86B
  8
0
  6
CONTINUOUS
 62
     0
 10
69.333334833333325
 20
32.456027968973331
 30
0.0
 40
2.5
  1
12
  0
ENDBLK
  5
B86D
  8
0
 62
     7
  0
BLOCK
  8
0
 62
     7
  2
*U1209
 70
     1
 10
0.0
 20
0.0
 30
0.0
  3
*U1209
  1

  0
TEXT
  5
B86F
  8
0
  6
CONTINUOUS
 62
     0
 10
82.833333333333329
 20
32.456027968973331
 30
0.0
 40
2.5
  1
15
  0
ENDBLK
  5
B871
  8
0
 62
     7
  0
BLOCK
  8
0
 62
     7
  2
*U1210
 70
     1
 10
0.0
 20
0.0
 30
0.0
  3
*U1210
  1

  0
TEXT
  5
B873
  8
0
  6
CONTINUOUS
 62
     0
 10
92.666666666666671
 20
32.456027968973331
 30
0.0
 40
2.5
  1
3
  0
ENDBLK
  5
B875
  8
0
 62
     7
  0
BLOCK
  8
0
 62
     7
  2
*U1211
 70
     1
 10
0.0
 20
0.0
 30
0.0
  3
*U1211
  1

  0
TEXT
  5
B877
  8
0
  6
CONTINUOUS
 62
     0
 10
87.097781752015379
 20
47.291666666666671
 30
0.0
 40
2.5
  1
30Åã
 50
90.0
  0
ENDBLK
  5
B879
  8
0
 62
     7
  0
BLOCK
  8
0
 62
     7
  2
*U1212
 70
     1
 10
0.0
 20
0.0
 30
0.0
  3
*U1212
  1

  0
TEXT
  5
B87B
  8
0
  6
CONTINUOUS
 62
     0
 10
158.85546730489659
 20
31.093121777842089
 30
0.0
 40
2.5
  1
21,8
  0
ENDBLK
  5
B87D
  8
0
 62
     7
  0
BLOCK
  8
0
 62
     7
  2
*U1213
 70
     1
 10
0.0
 20
0.0
 30
0.0
  3
*U1213
  1

  0
TEXT
  5
B87F
  8
0
  6
CONTINUOUS
 62
     0
 10
36.62337519207891
 20
48.33333333333335
 30
0.0
 40
2.5
  1
16
 50
90.0
  0
ENDBLK
  5
B881
  8
0
 62
     7
  0
BLOCK
  8
0
 62
     7
  2
*U1214
 70
     1
 10
0.0
 20
0.0
 30
0.0
  3
*U1214
  1

  0
TEXT
  5
B883
  8
0
  6
CONTINUOUS
 62
     0
 10
57.333334833333332
 20
32.456027968973331
 30
0.0
 40
2.5
  1
18
  0
ENDBLK
  5
B885
  8
0
 62
     7
  0
BLOCK
  8
0
 62
     7
  2
*U1215
 70
     1
 10
0.0
 20
0.0
 30
0.0
  3
*U1215
  1

  0
TEXT
  5
B887
  8
0
  6
CONTINUOUS
 62
     0
 10
73.833334833333325
 20
32.456027968973331
 30
0.0
 40
2.5
  1
15
  0
ENDBLK
  5
B889
  8
0
 62
     7
  0
BLOCK
  8
0
 62
     7
  2
*U1216
 70
     1
 10
0.0
 20
0.0
 30
0.0
  3
*U1216
  1

  0
TEXT
  5
B88B
  8
0
  6
CONTINUOUS
 62
     0
 10
88.833333333333314
 20
32.456027968973281
 30
0.0
 40
2.5
  1
15
  0
ENDBLK
  5
B88D
  8
0
 62
     7
  0
BLOCK
  8
0
 62
     7
  2
*U1217
 70
     1
 10
0.0
 20
0.0
 30
0.0
  3
*U1217
  1

  0
TEXT
  5
B88F
  8
0
  6
CONTINUOUS
 62
     0
 10
98.666666666666643
 20
32.482140180419783
 30
0.0
 40
2.5
  1
3
  0
ENDBLK
  5
B891
  8
0
 62
     7
  0
BLOCK
  8
0
 62
     7
  2
*U1218
 70
     1
 10
0.0
 20
0.0
 30
0.0
  3
*U1218
  1

  0
TEXT
  5
B893
  8
0
  6
CONTINUOUS
 62
     0
 10
89.557291977609893
 20
47.29166666666665
 30
0.0
 40
2.5
  1
30Åã
 50
90.0
  0
ENDBLK
  5
B895
  8
0
 62
     7
  0
BLOCK
  8
0
 62
     7
  2
*U1219
 70
     1
 10
0.0
 20
0.0
 30
0.0
  3
*U1219
  1

  0
TEXT
  5
B897
  8
0
  6
CONTINUOUS
 62
     0
 10
171.9029022533677
 20
24.776641736092451
 30
0.0
 40
2.5
  1
25,8
  0
ENDBLK
  5
B899
  8
0
 62
     7
  0
BLOCK
  8
0
 62
     7
  2
*U1220
 70
     1
 10
0.0
 20
0.0
 30
0.0
  3
*U1220
  1

  0
TEXT
  5
B89B
  8
0
  6
CONTINUOUS
 62
     0
 10
34.383220056912243
 20
48.125000000000007
 30
0.0
 40
2.5
  1
20
 50
90.0
  0
ENDBLK
  5
B89D
  8
0
 62
     7
  0
BLOCK
  8
0
 62
     7
  2
*U1221
 70
     1
 10
0.0
 20
0.0
 30
0.0
  3
*U1221
  1

  0
TEXT
  5
B89F
  8
0
  6
CONTINUOUS
 62
     0
 10
58.916666666666657
 20
24.707562364406051
 30
0.0
 40
2.5
  1
22
  0
ENDBLK
  5
B8A1
  8
0
 62
     7
  0
BLOCK
  8
0
 62
     7
  2
*U1222
 70
     1
 10
0.0
 20
0.0
 30
0.0
  3
*U1222
  1

  0
TEXT
  5
B8A3
  8
0
  6
CONTINUOUS
 62
     0
 10
77.833333333333329
 20
24.707562364406051
 30
0.0
 40
2.5
  1
15
  0
ENDBLK
  5
B8A5
  8
0
 62
     7
  0
BLOCK
  8
0
 62
     7
  2
*U1223
 70
     1
 10
0.0
 20
0.0
 30
0.0
  3
*U1223
  1

  0
TEXT
  5
B8A7
  8
0
  6
CONTINUOUS
 62
     0
 10
92.833333333333329
 20
24.707562364406051
 30
0.0
 40
2.5
  1
15
  0
ENDBLK
  5
B8A9
  8
0
 62
     7
  0
BLOCK
  8
0
 62
     7
  2
*U1224
 70
     1
 10
0.0
 20
0.0
 30
0.0
  3
*U1224
  1

  0
TEXT
  5
B8AB
  8
0
  6
CONTINUOUS
 62
     0
 10
102.6666666666667
 20
24.957562364406041
 30
0.0
 40
2.5
  1
3
  0
ENDBLK
  5
B8AD
  8
0
 62
     7
  0
BLOCK
  8
0
 62
     7
  2
*U1225
 70
     1
 10
0.0
 20
0.0
 30
0.0
  3
*U1225
  1

  0
TEXT
  5
B8AF
  8
0
  6
CONTINUOUS
 62
     0
 10
92.529428904387046
 20
47.291666666666657
 30
0.0
 40
2.5
  1
30Åã
 50
90.0
  0
ENDBLK
  5
B8B1
  8
0
 62
     7
  0
BLOCK
  8
0
 62
     7
  2
*U1226
 70
     1
 10
0.0
 20
0.0
 30
0.0
  3
*U1226
  1

  0
TEXT
  5
B8B3
  8
0
  6
CONTINUOUS
 62
     0
 10
52.166667666666662
 20
32.249294785226539
 30
0.0
 40
2.5
  1
6
  0
ENDBLK
  5
B8B5
  8
0
 62
     7
  0
BLOCK
  8
0
 62
     7
  2
*U1227
 70
     1
 10
0.0
 20
0.0
 30
0.0
  3
*U1227
  1

  0
TEXT
  5
B8B7
  8
0
  6
CONTINUOUS
 62
     0
 10
59.166667666666662
 20
32.249294785226539
 30
0.0
 40
2.5
  1
8
  0
ENDBLK
  5
B8B9
  8
0
 62
     7
  0
BLOCK
  8
0
 62
     7
  2
*U1228
 70
     1
 10
0.0
 20
0.0
 30
0.0
  3
*U1228
  1

  0
TEXT
  5
B8BB
  8
0
  6
CONTINUOUS
 62
     0
 10
42.786979501257619
 20
49.166666666666671
 30
0.0
 40
2.5
  1
6
 50
90.0
  0
ENDBLK
  5
B8BD
  8
0
 62
     7
  0
BLOCK
  8
0
 62
     7
  2
*U1229
 70
     1
 10
0.0
 20
0.0
 30
0.0
  3
*U1229
  1

  0
TEXT
  5
B8BF
  8
0
  6
CONTINUOUS
 62
     0
 10
120.88760570828541
 20
34.802871527882573
 30
0.0
 40
2.5
  1
9,8
  0
ENDBLK
  5
B8C1
  8
0
 62
     7
  0
BLOCK
  8
0
 62
     7
  2
*U1230
 70
     1
 10
0.0
 20
0.0
 30
0.0
  3
*U1230
  1

  0
TEXT
  5
B8C3
  8
0
  6
CONTINUOUS
 62
     0
 10
69.833333333333329
 20
32.249294785226432
 30
0.0
 40
2.5
  1
15
  0
ENDBLK
  5
B8C5
  8
0
 62
     7
  0
BLOCK
  8
0
 62
     7
  2
*U1231
 70
     1
 10
0.0
 20
0.0
 30
0.0
  3
*U1231
  1

  0
TEXT
  5
B8C7
  8
0
  6
CONTINUOUS
 62
     0
 10
70.242266825571164
 20
47.29166666666675
 30
0.0
 40
2.5
  1
30Åã
 50
90.0
  0
ENDBLK
  5
B8C9
  8
0
 62
     7
  0
ENDSEC
  0
SECTION
  2
ENTITIES
  0
TEXT
  5
5914
  8
0
  6
CONTINUOUS
 62
     7
 10
10.0
 20
10.0
 30
0.0
 40
2.0
  1
RNNAB6 
  0
TEXT
  5
5915
  8
0
  6
CONTINUOUS
 62
     7
 10
10.0
 20
20.0
 30
0.0
 40
2.0
  1
RNNAB6-P9.8-B15-L8-A30 
  0
LINE
  5
5916
  8
CENTER
  6
CENTER
 62
     1
 10
48.164132797551929
 20
50.0
 30
0.0
 11
90.695939041618772
 21
50.0
 31
0.0
  0
LINE
  5
5917
  8
0
  6
CONTINUOUS
 62
     7
 10
64.0
 20
45.100000000000023
 30
0.0
 11
64.0
 21
54.899999999999977
 31
0.0
  0
LINE
  5
5919
  8
0
  6
CONTINUOUS
 62
     7
 10
56.000002000000002
 20
47.0
 30
0.0
 11
56.000002000000002
 21
53.0
 31
0.0
  0
LINE
  5
591A
  8
0
  6
CONTINUOUS
 62
     7
 10
50.0
 20
47.541500000000042
 30
0.0
 11
50.0
 21
52.458499999999958
 31
0.0
  0
LINE
  5
591B
  8
0
  6
CONTINUOUS
 62
     3
 10
50.541499999999992
 20
47.0
 30
0.0
 11
50.541499999999992
 21
53.0
 31
0.0
  0
LINE
  5
591F
  8
CENTER
  6
CENTER
 62
     1
 10
123.59593904161881
 20
56.89999999999997
 30
0.0
 11
123.59593904161881
 21
43.100000000000023
 31
0.0
  0
CIRCLE
  5
5920
  8
0
  6
CONTINUOUS
 62
     7
 10
123.59593904161881
 20
50.0
 30
0.0
 40
4.9000000000000004
  0
CIRCLE
  5
5921
  8
0
  6
DASHED
 62
     3
 10
123.59593904161881
 20
50.0
 30
0.0
 40
3.0
  0
LINE
  5
5922
  8
CENTER
  6
CENTER
 62
     1
 10
116.6959390416187
 20
50.0
 30
0.0
 11
130.49593904161881
 21
50.0
 31
0.0
  0
ARC
  5
5924
  8
0
  6
CONTINUOUS
 62
     7
 10
63.5
 20
53.5
 30
0.0
 40
0.5
 50
270.0
 51
0.0
  0
ARC
  5
5925
  8
0
  6
CONTINUOUS
 62
     7
 10
63.5
 20
46.5
 30
0.0
 40
0.5
 50
0.0
 51
90.0
  0
LINE
  5
5926
  8
0
  6
DASHED
 62
     3
 10
50.0
 20
49.5
 30
0.0
 11
50.866025403784761
 21
50.000000000000341
 31
0.0
  0
LINE
  5
5927
  8
0
  6
DASHED
 62
     3
 10
50.0
 20
50.5
 30
0.0
 11
50.866025403784761
 21
50.000000000000341
 31
0.0
  0
CIRCLE
  5
5928
  8
0
  6
CONTINUOUS
 62
     7
 10
123.59593904161881
 20
50.0
 30
0.0
 40
0.5
  0
LINE
  5
5929
  8
0
  6
CONTINUOUS
 62
     7
 10
50.541499999999992
 20
47.0
 30
0.0
 11
63.5
 21
47.0
 31
0.0
  0
LINE
  5
592A
  8
0
  6
CONTINUOUS
 62
     3
 10
50.0
 20
47.541500000000042
 30
0.0
 11
56.000002000000002
 21
47.541500000000042
 31
0.0
  0
LINE
  5
592B
  8
0
  6
CONTINUOUS
 62
     3
 10
50.0
 20
52.458499999999958
 30
0.0
 11
56.000002000000002
 21
52.458499999999958
 31
0.0
  0
LINE
  5
592C
  8
0
  6
CONTINUOUS
 62
     7
 10
50.541499999999992
 20
53.0
 30
0.0
 11
63.5
 21
53.0
 31
0.0
  0
LINE
  5
592D
  8
0
  6
CONTINUOUS
 62
     7
 10
50.541499999999992
 20
53.0
 30
0.0
 11
50.0
 21
52.458499999999958
 31
0.0
  0
LINE
  5
592E
  8
0
  6
CONTINUOUS
 62
     7
 10
50.0
 20
47.541500000000042
 30
0.0
 11
50.541499999999992
 21
47.0
 31
0.0
  0
LINE
  5
592F
  8
0
  6
CONTINUOUS
 62
     3
 10
56.54150199999998
 20
53.0
 30
0.0
 11
56.000002000000002
 21
52.458499999999958
 31
0.0
  0
LINE
  5
5930
  8
0
  6
CONTINUOUS
 62
     3
 10
56.000002000000002
 20
47.541500000000042
 30
0.0
 11
56.54150199999998
 21
47.0
 31
0.0
  0
LINE
  5
59BB
  8
0
  6
CONTINUOUS
 62
     7
 10
79.0
 20
45.126112211446639
 30
0.0
 11
79.0
 21
54.873887788553702
 31
0.0
  0
LINE
  5
59C1
  8
0
  6
CONTINUOUS
 62
     7
 10
78.60504250723784
 20
54.899999999999977
 30
0.0
 11
64.0
 21
54.899999999999977
 31
0.0
  0
LINE
  5
59C2
  8
0
  6
CONTINUOUS
 62
     7
 10
78.605042507237954
 20
45.100000000000023
 30
0.0
 11
64.0
 21
45.100000000000023
 31
0.0
  0
LINE
  5
59E5
  8
0
  6
CONTINUOUS
 62
     7
 10
79.381499642545407
 20
54.79777747886726
 30
0.0
 11
86.472396176926395
 21
52.897777478867162
 31
0.0
  0
ARC
  5
59E6
  8
0
  6
CONTINUOUS
 62
     7
 10
85.695939041618772
 20
50.0
 30
0.0
 40
3.0
 50
284.99999999999761
 51
75.000000000002402
  0
LINE
  5
59E7
  8
0
  6
CONTINUOUS
 62
     7
 10
79.381499642545521
 20
45.202222521132853
 30
0.0
 11
86.472396176926395
 21
47.10222252113283
 31
0.0
  0
ARC
  5
59FF
  8
0
  6
CONTINUOUS
 62
     7
 10
78.605042507237783
 20
51.899999999999629
 30
0.0
 40
3.0
 50
75.000000000002402
 51
89.999999999996746
  0
ARC
  5
5A00
  8
0
  6
CONTINUOUS
 62
     7
 10
78.605042507237897
 20
48.100000000000698
 30
0.0
 40
3.0
 50
270.0
 51
284.99999999999761
  0
LINE
  5
6618
  8
0
  6
DASHED
 62
     3
 10
88.695939041618772
 20
49.50000014924796
 30
0.0
 11
87.829913637833997
 21
50.000000149248422
 31
0.0
  0
LINE
  5
6619
  8
0
  6
DASHED
 62
     3
 10
88.695939041618772
 20
50.500000149247967
 30
0.0
 11
87.829913637833997
 21
50.000000149248422
 31
0.0
  0
ENDSEC
  0
EOF
