  0
SECTION
  2
HEADER
  9
$ACADVER
  1
AC1009
  9
$INSBASE
 10
0.0
 20
0.0
 30
0.0
  9
$EXTMIN
 10
-0.0123586401596185
 20
-8.0175843126105502
 30
-0.0015258207003583
  9
$EXTMAX
 10
160.0276626077069
 20
555.03110123431838
 30
0.0000000349246037
  9
$LIMMIN
 10
0.0
 20
0.0
  9
$LIMMAX
 10
420.0
 20
297.0
  9
$ORTHOMODE
 70
     1
  9
$REGENMODE
 70
     1
  9
$FILLMODE
 70
     1
  9
$QTEXTMODE
 70
     0
  9
$MIRRTEXT
 70
     0
  9
$DRAGMODE
 70
     2
  9
$LTSCALE
 40
0.5
  9
$OSMODE
 70
  2879
  9
$ATTMODE
 70
     1
  9
$TEXTSIZE
 40
3.0
  9
$TRACEWID
 40
1.0
  9
$TEXTSTYLE
  7
STANDARD
  9
$CLAYER
  8
MSM_CONTINUOUS
  9
$CELTYPE
  6
BYLAYER
  9
$CECOLOR
 62
   256
  9
$DIMSCALE
 40
1.0
  9
$DIMASZ
 40
2.5
  9
$DIMEXO
 40
0.625
  9
$DIMDLI
 40
3.75
  9
$DIMRND
 40
0.0
  9
$DIMDLE
 40
0.0
  9
$DIMEXE
 40
1.25
  9
$DIMTP
 40
0.0
  9
$DIMTM
 40
0.0
  9
$DIMTXT
 40
3.0
  9
$DIMCEN
 40
2.5
  9
$DIMTSZ
 40
0.0
  9
$DIMTOL
 70
     0
  9
$DIMLIM
 70
     0
  9
$DIMTIH
 70
     0
  9
$DIMTOH
 70
     0
  9
$DIMSE1
 70
     0
  9
$DIMSE2
 70
     0
  9
$DIMTAD
 70
     1
  9
$DIMZIN
 70
     8
  9
$DIMBLK
  1
OPEN30
  9
$DIMASO
 70
     1
  9
$DIMSHO
 70
     1
  9
$DIMPOST
  1

  9
$DIMAPOST
  1

  9
$DIMALT
 70
     0
  9
$DIMALTD
 70
     3
  9
$DIMALTF
 40
0.03937007874016
  9
$DIMLFAC
 40
1.0
  9
$DIMTOFL
 70
     1
  9
$DIMTVP
 40
0.0
  9
$DIMTIX
 70
     0
  9
$DIMSOXD
 70
     0
  9
$DIMSAH
 70
     0
  9
$DIMBLK1
  1

  9
$DIMBLK2
  1

  9
$DIMSTYLE
  2
MISUMI
  9
$DIMCLRD
 70
   256
  9
$DIMCLRE
 70
   256
  9
$DIMCLRT
 70
   256
  9
$DIMTFAC
 40
1.0
  9
$DIMGAP
 40
0.625
  9
$LUNITS
 70
     2
  9
$LUPREC
 70
     2
  9
$SKETCHINC
 40
1.0
  9
$FILLETRAD
 40
0.0
  9
$AUNITS
 70
     0
  9
$AUPREC
 70
     0
  9
$MENU
  1
.
  9
$ELEVATION
 40
0.0
  9
$PELEVATION
 40
0.0
  9
$THICKNESS
 40
0.0
  9
$LIMCHECK
 70
     0
  9
$BLIPMODE
 70
     0
  9
$CHAMFERA
 40
0.5
  9
$CHAMFERB
 40
0.5
  9
$SKPOLY
 70
     0
  9
$TDCREATE
 40
2455135.5720697111
  9
$TDUPDATE
 40
2458611.461973229
  9
$TDINDWG
 40
0.730325706
  9
$TDUSRTIMER
 40
2458584.186722917
  9
$USRTIMER
 70
     1
  9
$ANGBASE
 50
0.0
  9
$ANGDIR
 70
     0
  9
$PDMODE
 70
    35
  9
$PDSIZE
 40
0.0
  9
$PLINEWID
 40
0.0
  9
$COORDS
 70
     2
  9
$SPLFRAME
 70
     0
  9
$SPLINETYPE
 70
     6
  9
$SPLINESEGS
 70
     8
  9
$ATTDIA
 70
     0
  9
$ATTREQ
 70
     1
  9
$HANDLING
 70
     1
  9
$HANDSEED
  5
F1D7
  9
$SURFTAB1
 70
     6
  9
$SURFTAB2
 70
     6
  9
$SURFTYPE
 70
     6
  9
$SURFU
 70
     6
  9
$SURFV
 70
     6
  9
$UCSNAME
  2

  9
$UCSORG
 10
0.0
 20
0.0
 30
0.0
  9
$UCSXDIR
 10
1.0
 20
0.0
 30
0.0
  9
$UCSYDIR
 10
0.0
 20
1.0
 30
0.0
  9
$PUCSNAME
  2

  9
$PUCSORG
 10
0.0
 20
0.0
 30
0.0
  9
$PUCSXDIR
 10
1.0
 20
0.0
 30
0.0
  9
$PUCSYDIR
 10
0.0
 20
1.0
 30
0.0
  9
$USERI1
 70
     0
  9
$USERI2
 70
     0
  9
$USERI3
 70
     0
  9
$USERI4
 70
     0
  9
$USERI5
 70
     0
  9
$USERR1
 40
0.0
  9
$USERR2
 40
0.0
  9
$USERR3
 40
0.0
  9
$USERR4
 40
0.0
  9
$USERR5
 40
0.0
  9
$WORLDVIEW
 70
     1
  9
$SHADEDGE
 70
     3
  9
$SHADEDIF
 70
    70
  9
$TILEMODE
 70
     1
  9
$MAXACTVP
 70
    64
  9
$PLIMCHECK
 70
     0
  9
$PEXTMIN
 10
0.0
 20
0.0
 30
0.0
  9
$PEXTMAX
 10
0.0
 20
0.0
 30
0.0
  9
$PLIMMIN
 10
0.0
 20
0.0
  9
$PLIMMAX
 10
12.0
 20
9.0
  9
$UNITMODE
 70
     0
  9
$VISRETAIN
 70
     1
  9
$PLINEGEN
 70
     0
  9
$PSLTSCALE
 70
     1
  0
ENDSEC
  0
SECTION
  2
TABLES
  0
TABLE
  2
VPORT
 70
     1
  0
VPORT
  2
*ACTIVE
 70
     0
 10
0.0
 20
0.0
 11
1.0
 21
1.0
 12
80.007651983773656
 22
273.50675846085392
 13
0.0
 23
0.0
 14
10.0
 24
10.0
 15
10.0
 25
10.0
 16
0.0
 26
0.0
 36
1.0
 17
0.0
 27
0.0
 37
0.0
 40
567.43607790184001
 41
2.074122236671001
 42
50.0
 43
0.0
 44
0.0
 50
0.0
 51
0.0
 71
    16
 72
  1000
 73
     1
 74
     3
 75
     0
 76
     0
 77
     0
 78
     0
  0
ENDTAB
  0
TABLE
  2
LTYPE
 70
     3
  0
LTYPE
  2
CONTINUOUS
 70
     0
  3
Solid line
 72
    65
 73
     0
 40
0.0
  0
LTYPE
  2
CENTER
 70
     0
  3
Center ____ _ ____ _ ____ _ ____ _ ____ _ ____
 72
    65
 73
     4
 40
50.799999999999997
 49
31.75
 49
-6.3499999999999988
 49
6.3499999999999988
 49
-6.3499999999999988
  0
LTYPE
  2
DASHED
 70
     0
  3
Dashed __ __ __ __ __ __ __ __ __ __ __ __ __ _
 72
    65
 73
     2
 40
19.050000000000001
 49
12.699999999999999
 49
-6.3499999999999988
  0
ENDTAB
  0
TABLE
  2
LAYER
 70
     8
  0
LAYER
  2
0
 70
     0
 62
     7
  6
CONTINUOUS
  0
LAYER
  2
MSM_CENTER
 70
     0
 62
     1
  6
CENTER
  0
LAYER
  2
MSM_CONTINUOUS
 70
     0
 62
     7
  6
CONTINUOUS
  0
LAYER
  2
MSM_DASHED
 70
     0
 62
     4
  6
DASHED
  0
LAYER
  2
MSM_NARROW
 70
     0
 62
     5
  6
CONTINUOUS
  0
LAYER
  2
MSM_PART_NUMBER
 70
     0
 62
     7
  6
CONTINUOUS
  0
ENDTAB
  0
TABLE
  2
STYLE
 70
     1
  0
STYLE
  2
STANDARD
 70
     0
 40
3.0
 41
1.0
 50
0.0
 71
     0
 42
3.0
  3
txt.shx
  4
bigfont.shx
  0
ENDTAB
  0
TABLE
  2
VIEW
 70
     0
  0
ENDTAB
  0
TABLE
  2
UCS
 70
     0
  0
ENDTAB
  0
TABLE
  2
APPID
 70
    25
  0
APPID
  2
ACAD
 70
     0
  0
APPID
  2
ACAD_MLEADERVER
 70
     0
  0
APPID
  2
ACAD_EXEMPT_FROM_CAD_STANDARDS
 70
     0
  0
APPID
  2
ACDBBLOCKREPETAG
 70
     0
  0
APPID
  2
ACAD_DSTYLE_DIMJOGGED_JOGA
 70
     0
  0
APPID
  2
ACAECLAYERSTANDARD
 70
     0
  0
APPID
  2
GENIUS_GENODEF_13
 70
     0
  0
APPID
  2
GENIUS_GENOBJ-N-FIL_13
 70
     0
  0
APPID
  2
ACAD_PSEXT
 70
     0
  0
APPID
  2
ACAD_DSTYLE_DIMRADIAL_EXTENSION
 70
     0
  0
APPID
  2
ACDBDYNAMICBLOCKTRUENAME
 70
     0
  0
APPID
  2
ACDBDYNAMICBLOCKGUID
 70
     0
  0
APPID
  2
ACDBBLOCKREPBTAG
 70
     0
  0
APPID
  2
ACAUTHENVIRON
 70
     0
  0
APPID
  2
GRADIENTCOLOR1ACI
 70
     0
  0
APPID
  2
GRADIENTCOLOR2ACI
 70
     0
  0
APPID
  2
ACAD_DSTYLE_DIMJAG
 70
     0
  0
APPID
  2
ACAD_DSTYLE_DIMTALN
 70
     0
  0
APPID
  2
ACCMTRANSPARENCY
 70
     0
  0
APPID
  2
ACAD_DSTYLE_DIMBREAK
 70
     0
  0
APPID
  2
ACAD_DSTYLE_DIMFLIPARROW_W
 70
     0
  0
APPID
  2
ACAD_DSTYLE_DIM_LINETYPE
 70
     0
  0
APPID
  2
ACAD_DSTYLE_DIM_EXT1_LINETYPE
 70
     0
  0
APPID
  2
ACAD_DSTYLE_DIM_EXT2_LINETYPE
 70
     0
  0
APPID
  2
ACAD_NAV_VCDISPLAY
 70
     0
  0
ENDTAB
  0
TABLE
  2
DIMSTYLE
 70
     1
  0
DIMSTYLE
  2
MISUMI
 70
     0
  3

  4

  5
OPEN30
  6

  7

 40
1.0
 41
2.5
 42
0.625
 43
3.75
 44
1.25
 45
0.0
 46
0.0
 47
0.0
 48
0.0
140
3.0
141
2.5
142
0.0
143
0.03937007874016
144
1.0
145
0.0
146
1.0
147
0.625
 71
     0
 72
     0
 73
     0
 74
     0
 75
     0
 76
     0
 77
     1
 78
     8
170
     0
171
     3
172
     1
173
     0
174
     0
175
     0
176
   256
177
   256
178
   256
  0
ENDTAB
  0
ENDSEC
  0
SECTION
  2
BLOCKS
  0
BLOCK
  8
0
  2
$MODEL_SPACE
 70
     0
 10
0.0
 20
0.0
 30
0.0
  3
$MODEL_SPACE
  1

  0
ENDBLK
  5
21
  8
0
  0
BLOCK
 67
     1
  8
0
  2
$PAPER_SPACE
 70
     0
 10
0.0
 20
0.0
 30
0.0
  3
$PAPER_SPACE
  1

  0
ENDBLK
  5
F187
 67
     1
  8
0
  0
BLOCK
  8
0
 62
     7
  2
_OPEN30
 70
     0
 10
0.0
 20
0.0
 30
0.0
  3
_OPEN30
  1

  0
LINE
  5
D7
  8
0
  6
BYBLOCK
 62
     0
 10
-1.0
 20
0.26794919
 30
0.0
 11
0.0
 21
0.0
 31
0.0
  0
LINE
  5
D8
  8
0
  6
BYBLOCK
 62
     0
 10
0.0
 20
0.0
 30
0.0
 11
-1.0
 21
-0.26794919
 31
0.0
  0
LINE
  5
D9
  8
0
  6
BYBLOCK
 62
     0
 10
0.0
 20
0.0
 30
0.0
 11
-1.0
 21
0.0
 31
0.0
  0
ENDBLK
  5
DB
  8
0
 62
     7
  0
BLOCK
  8
0
  2
*U49
 70
     1
 10
0.0
 20
0.0
 30
0.0
  3
*U49
  1

  0
TEXT
  5
F1CA
  8
MSM_PART_NUMBER
 10
0.0
 20
-3.0
 30
0.0
 40
3.0
  1
RBSWM160-DS2A-H105
  0
ENDBLK
  5
F1CC
  8
0
  0
BLOCK
  8
0
  2
*U50
 70
     1
 10
0.0
 20
0.0
 30
0.0
  3
*U50
  1

  0
TEXT
  5
F1CE
  8
MSM_PART_NUMBER
 10
0.0
 20
-8.0
 30
0.0
 40
3.0
  1
RBSWM160-DS2A-H105
  0
ENDBLK
  5
F1D0
  8
0
  0
ENDSEC
  0
SECTION
  2
ENTITIES
  0
INSERT
  5
DCB4
  8
MSM_CONTINUOUS
  2
*U49
 10
0.0
 20
0.0
 30
0.0
  0
INSERT
  5
DCB5
  8
MSM_CONTINUOUS
  2
*U50
 10
0.0
 20
0.0
 30
0.0
  0
CIRCLE
  5
E383
  8
MSM_DASHED
 10
80.0
 20
90.0
 30
0.0
 40
63.300000000000523
  0
CIRCLE
  5
E384
  8
MSM_DASHED
 10
80.0
 20
90.0
 30
0.0
 40
69.90000000000056
  0
LINE
  5
E399
  8
MSM_CENTER
 10
4.9999999999999503
 20
22.5
 30
0.0
 11
20.00000000000005
 21
22.5
 31
0.0
  0
LINE
  5
E39A
  8
MSM_CENTER
 10
12.5
 20
14.99999999999995
 30
0.0
 11
12.5
 21
30.00000000000005
 31
0.0
  0
LINE
  5
E39F
  8
MSM_CONTINUOUS
 10
0.0
 20
12.0
 30
0.0
 11
0.0
 21
168.0
 31
0.0
  0
LINE
  5
E3A0
  8
MSM_CONTINUOUS
 10
160.0
 20
168.0
 30
0.0
 11
160.0
 21
12.0
 31
0.0
  0
CIRCLE
  5
E3A1
  8
MSM_CONTINUOUS
 10
147.5
 20
157.5
 30
0.0
 40
5.5000000000000488
  0
CIRCLE
  5
E3A2
  8
MSM_CONTINUOUS
 10
12.5
 20
22.5
 30
0.0
 40
5.5000000000000488
  0
CIRCLE
  5
E3A3
  8
MSM_CONTINUOUS
 10
147.5
 20
22.5
 30
0.0
 40
5.5000000000000488
  0
CIRCLE
  5
E3A4
  8
MSM_CONTINUOUS
 10
12.5
 20
157.5
 30
0.0
 40
5.5000000000000488
  0
CIRCLE
  5
E3A5
  8
MSM_CONTINUOUS
 10
80.0
 20
90.0
 30
0.0
 40
25.000000000000199
  0
LINE
  5
E3A6
  8
MSM_CONTINUOUS
 10
2.0
 20
10.0
 30
0.0
 11
0.0
 21
12.0
 31
0.0
  0
LINE
  5
E3A7
  8
MSM_CONTINUOUS
 10
158.0
 20
10.0
 30
0.0
 11
2.0
 21
10.0
 31
0.0
  0
LINE
  5
E3A8
  8
MSM_CONTINUOUS
 10
160.0
 20
12.0
 30
0.0
 11
158.0
 21
10.0
 31
0.0
  0
LINE
  5
E3A9
  8
MSM_CONTINUOUS
 10
158.0
 20
170.0
 30
0.0
 11
160.0
 21
168.0
 31
0.0
  0
LINE
  5
E3AA
  8
MSM_CONTINUOUS
 10
2.0
 20
170.0
 30
0.0
 11
158.0
 21
170.0
 31
0.0
  0
LINE
  5
E3AB
  8
MSM_CONTINUOUS
 10
0.0
 20
168.0
 30
0.0
 11
2.0
 21
170.0
 31
0.0
  0
LINE
  5
E3AC
  8
MSM_DASHED
 10
55.0
 20
244.0
 30
0.0
 11
55.0
 21
230.0
 31
0.0
  0
LINE
  5
E3AD
  8
MSM_DASHED
 10
105.0
 20
230.0
 30
0.0
 11
105.0
 21
244.0
 31
0.0
  0
LINE
  5
E3AE
  8
MSM_DASHED
 10
55.0
 20
335.0
 30
0.0
 11
55.0
 21
321.0
 31
0.0
  0
LINE
  5
E3AF
  8
MSM_DASHED
 10
105.0
 20
321.0
 30
0.0
 11
105.0
 21
335.0
 31
0.0
  0
LINE
  5
E3B4
  8
MSM_DASHED
 10
16.699999999999989
 20
321.0
 30
0.0
 11
16.699999999999989
 21
244.0
 31
0.0
  0
LINE
  5
E3B5
  8
MSM_DASHED
 10
143.30000000000001
 20
244.0
 30
0.0
 11
143.30000000000001
 21
321.0
 31
0.0
  0
LINE
  5
E3C6
  8
MSM_DASHED
 10
142.0
 20
244.0
 30
0.0
 11
142.0
 21
230.0
 31
0.0
  0
LINE
  5
E3C7
  8
MSM_DASHED
 10
153.0
 20
230.0
 30
0.0
 11
153.0
 21
244.0
 31
0.0
  0
LINE
  5
E3C8
  8
MSM_DASHED
 10
7.0
 20
244.0
 30
0.0
 11
7.0
 21
230.0
 31
0.0
  0
LINE
  5
E3C9
  8
MSM_DASHED
 10
18.0
 20
230.0
 30
0.0
 11
18.0
 21
244.0
 31
0.0
  0
LINE
  5
E3CE
  8
MSM_CENTER
 10
80.0
 20
340.0
 30
0.0
 11
80.0
 21
225.0
 31
0.0
  0
LINE
  5
E3CF
  8
MSM_CENTER
 10
12.5
 20
246.0
 30
0.0
 11
12.5
 21
228.0
 31
0.0
  0
LINE
  5
E3D0
  8
MSM_CENTER
 10
147.5
 20
246.0
 30
0.0
 11
147.5
 21
228.0
 31
0.0
  0
LINE
  5
E3D1
  8
MSM_CENTER
 10
20.0
 20
337.0
 30
0.0
 11
20.0
 21
319.0
 31
0.0
  0
LINE
  5
E3D2
  8
MSM_CENTER
 10
140.0
 20
337.0
 30
0.0
 11
140.0
 21
319.0
 31
0.0
  0
LINE
  5
E3D3
  8
MSM_CENTER
 10
13.0
 20
337.0
 30
0.0
 11
13.0
 21
319.0
 31
0.0
  0
LINE
  5
E3D4
  8
MSM_CENTER
 10
147.0
 20
337.0
 30
0.0
 11
147.0
 21
319.0
 31
0.0
  0
LINE
  5
E3D5
  8
MSM_CONTINUOUS
 10
10.099999999999991
 20
321.0
 30
0.0
 11
10.099999999999991
 21
244.0
 31
0.0
  0
LINE
  5
E3D6
  8
MSM_CONTINUOUS
 10
149.90000000000001
 20
244.0
 30
0.0
 11
149.90000000000001
 21
321.0
 31
0.0
  0
LINE
  5
E3D7
  8
MSM_CONTINUOUS
 10
2.0
 20
335.0
 30
0.0
 11
2.0
 21
321.0
 31
0.0
  0
LINE
  5
E3D8
  8
MSM_CONTINUOUS
 10
0.0
 20
335.0
 30
0.0
 11
0.0
 21
321.0
 31
0.0
  0
LINE
  5
E3D9
  8
MSM_CONTINUOUS
 10
0.0
 20
321.0
 30
0.0
 11
160.0
 21
321.0
 31
0.0
  0
LINE
  5
E3DA
  8
MSM_CONTINUOUS
 10
160.0
 20
335.0
 30
0.0
 11
160.0
 21
321.0
 31
0.0
  0
LINE
  5
E3DB
  8
MSM_CONTINUOUS
 10
0.0
 20
335.0
 30
0.0
 11
160.0
 21
335.0
 31
0.0
  0
LINE
  5
E3DC
  8
MSM_CONTINUOUS
 10
158.0
 20
335.0
 30
0.0
 11
158.0
 21
321.0
 31
0.0
  0
LINE
  5
E3DD
  8
MSM_CONTINUOUS
 10
160.0
 20
230.0
 30
0.0
 11
160.0
 21
244.0
 31
0.0
  0
LINE
  5
E3DE
  8
MSM_CONTINUOUS
 10
0.0
 20
244.0
 30
0.0
 11
160.0
 21
244.0
 31
0.0
  0
LINE
  5
E3DF
  8
MSM_CONTINUOUS
 10
0.0
 20
230.0
 30
0.0
 11
160.0
 21
230.0
 31
0.0
  0
LINE
  5
E3E0
  8
MSM_CONTINUOUS
 10
0.0
 20
230.0
 30
0.0
 11
0.0
 21
244.0
 31
0.0
  0
LINE
  5
E3E1
  8
MSM_CONTINUOUS
 10
2.0
 20
230.0
 30
0.0
 11
2.0
 21
244.0
 31
0.0
  0
LINE
  5
E3E2
  8
MSM_CONTINUOUS
 10
158.0
 20
230.0
 30
0.0
 11
158.0
 21
244.0
 31
0.0
  0
CIRCLE
  5
E3E7
  8
MSM_DASHED
 10
80.0
 20
475.0
 30
0.0
 40
63.300000000000523
  0
CIRCLE
  5
E3E8
  8
MSM_DASHED
 10
80.0
 20
475.0
 30
0.0
 40
69.90000000000056
  0
LINE
  5
E3F1
  8
MSM_CENTER
 10
5.0999999999994401
 20
475.0
 30
0.0
 11
154.90000000000049
 21
475.0
 31
0.0
  0
LINE
  5
E3F2
  8
MSM_CENTER
 10
80.0
 20
400.09999999999951
 30
0.0
 11
80.0
 21
549.90000000000055
 31
0.0
  0
LINE
  5
E3F5
  8
MSM_CENTER
 10
7.9999999999999734
 20
432.0
 30
0.0
 11
18.000000000000028
 21
432.0
 31
0.0
  0
LINE
  5
E3F6
  8
MSM_CENTER
 10
13.0
 20
427.0
 30
0.0
 11
13.0
 21
437.0
 31
0.0
  0
LINE
  5
E403
  8
MSM_CONTINUOUS
 10
160.0
 20
397.0
 30
0.0
 11
160.0
 21
553.0
 31
0.0
  0
CIRCLE
  5
E406
  8
MSM_CONTINUOUS
 10
80.0
 20
475.0
 30
0.0
 40
25.000000000000199
  0
LINE
  5
E407
  8
MSM_CONTINUOUS
 10
0.0
 20
553.0
 30
0.0
 11
0.0
 21
397.0
 31
0.0
  0
LINE
  5
E408
  8
MSM_CONTINUOUS
 10
0.0
 20
397.0
 30
0.0
 11
2.0
 21
395.0
 31
0.0
  0
LINE
  5
E409
  8
MSM_CONTINUOUS
 10
2.0
 20
395.0
 30
0.0
 11
158.0
 21
395.0
 31
0.0
  0
LINE
  5
E40A
  8
MSM_CONTINUOUS
 10
158.0
 20
395.0
 30
0.0
 11
160.0
 21
397.0
 31
0.0
  0
LINE
  5
E40B
  8
MSM_CONTINUOUS
 10
160.0
 20
553.0
 30
0.0
 11
158.0
 21
555.0
 31
0.0
  0
LINE
  5
E40C
  8
MSM_CONTINUOUS
 10
158.0
 20
555.0
 30
0.0
 11
2.0
 21
555.0
 31
0.0
  0
LINE
  5
E40D
  8
MSM_CONTINUOUS
 10
2.0
 20
555.0
 30
0.0
 11
0.0
 21
553.0
 31
0.0
  0
LINE
  5
E56B
  8
MSM_CENTER
 10
13.0
 20
415.0
 30
0.0
 11
27.0
 21
415.0
 31
0.0
  0
CIRCLE
  5
E56C
  8
MSM_CONTINUOUS
 10
20.0
 20
415.0
 30
0.0
 40
4.1879999999999988
  0
CIRCLE
  5
E56D
  8
MSM_NARROW
 10
20.0
 20
415.0
 30
0.0
 40
5.0
  0
LINE
  5
E56E
  8
MSM_CENTER
 10
20.0
 20
408.0
 30
0.0
 11
20.0
 21
422.0
 31
0.0
  0
LINE
  5
E5AB
  8
MSM_CENTER
 10
133.0
 20
415.0
 30
0.0
 11
147.0
 21
415.0
 31
0.0
  0
CIRCLE
  5
E5AC
  8
MSM_CONTINUOUS
 10
140.0
 20
415.0
 30
0.0
 40
4.1879999999999988
  0
CIRCLE
  5
E5AD
  8
MSM_NARROW
 10
140.0
 20
415.0
 30
0.0
 40
5.0
  0
LINE
  5
E5AE
  8
MSM_CENTER
 10
140.0
 20
408.0
 30
0.0
 11
140.0
 21
422.0
 31
0.0
  0
LINE
  5
E5EB
  8
MSM_CENTER
 10
133.0
 20
535.00000000000011
 30
0.0
 11
147.0
 21
535.0
 31
0.0
  0
CIRCLE
  5
E5EC
  8
MSM_CONTINUOUS
 10
140.0
 20
535.0
 30
0.0
 40
4.1879999999999988
  0
CIRCLE
  5
E5ED
  8
MSM_NARROW
 10
140.0
 20
535.0
 30
0.0
 40
5.0
  0
LINE
  5
E5EE
  8
MSM_CENTER
 10
140.0
 20
528.0
 30
0.0
 11
140.0
 21
542.0
 31
0.0
  0
LINE
  5
E62B
  8
MSM_CENTER
 10
13.0
 20
535.00000000000011
 30
0.0
 11
27.0
 21
535.0
 31
0.0
  0
CIRCLE
  5
E62C
  8
MSM_CONTINUOUS
 10
20.0
 20
535.0
 30
0.0
 40
4.1879999999999988
  0
CIRCLE
  5
E62D
  8
MSM_NARROW
 10
20.0
 20
535.0
 30
0.0
 40
5.0
  0
LINE
  5
E62E
  8
MSM_CENTER
 10
20.0
 20
528.0
 30
0.0
 11
20.0
 21
542.0
 31
0.0
  0
LINE
  5
E66B
  8
MSM_CENTER
 10
147.0
 20
427.0
 30
0.0
 11
147.0
 21
437.0
 31
0.0
  0
LINE
  5
E66C
  8
MSM_CENTER
 10
141.99999999999989
 20
432.0
 30
0.0
 11
152.0
 21
432.0
 31
0.0
  0
LINE
  5
E7EC
  8
MSM_CENTER
 10
5.0999999999994401
 20
90.0
 30
0.0
 11
154.90000000000049
 21
90.0
 31
0.0
  0
LINE
  5
E7ED
  8
MSM_CENTER
 10
80.0
 20
15.099999999999451
 30
0.0
 11
80.0
 21
164.90000000000049
 31
0.0
  0
LINE
  5
E82A
  8
MSM_CENTER
 10
147.5
 20
14.99999999999995
 30
0.0
 11
147.5
 21
30.00000000000005
 31
0.0
  0
LINE
  5
E82B
  8
MSM_CENTER
 10
139.99999999999989
 20
22.5
 30
0.0
 11
155.0
 21
22.5
 31
0.0
  0
LINE
  5
E868
  8
MSM_CENTER
 10
147.5
 20
149.99999999999989
 30
0.0
 11
147.5
 21
165.0
 31
0.0
  0
LINE
  5
E869
  8
MSM_CENTER
 10
139.99999999999989
 20
157.5
 30
0.0
 11
155.0
 21
157.5
 31
0.0
  0
LINE
  5
E8A6
  8
MSM_CENTER
 10
12.5
 20
149.99999999999989
 30
0.0
 11
12.5
 21
165.0
 31
0.0
  0
LINE
  5
E8A7
  8
MSM_CENTER
 10
4.9999999999999503
 20
157.5
 30
0.0
 11
20.00000000000005
 21
157.5
 31
0.0
  0
LINE
  5
E8E3
  8
MSM_DASHED
 10
135.81200000000001
 20
335.0
 30
0.0
 11
135.81200000000001
 21
321.0
 31
0.0
  0
LINE
  5
E8E4
  8
MSM_DASHED
 10
135.0
 20
335.0
 30
0.0
 11
135.0
 21
321.0
 31
0.0
  0
LINE
  5
E8E5
  8
MSM_DASHED
 10
145.0
 20
335.0
 30
0.0
 11
145.0
 21
321.0
 31
0.0
  0
LINE
  5
E8E6
  8
MSM_DASHED
 10
144.18799999999999
 20
335.0
 30
0.0
 11
144.18799999999999
 21
321.0
 31
0.0
  0
LINE
  5
E922
  8
MSM_DASHED
 10
15.0
 20
335.0
 30
0.0
 11
15.0
 21
321.0
 31
0.0
  0
LINE
  5
E923
  8
MSM_DASHED
 10
15.81200000000001
 20
335.0
 30
0.0
 11
15.81200000000001
 21
321.0
 31
0.0
  0
LINE
  5
E924
  8
MSM_DASHED
 10
25.0
 20
335.0
 30
0.0
 11
25.0
 21
321.0
 31
0.0
  0
LINE
  5
E925
  8
MSM_DASHED
 10
24.187999999999992
 20
335.0
 30
0.0
 11
24.187999999999992
 21
321.0
 31
0.0
  0
LINE
  5
EEC0
  8
MSM_DASHED
 10
10.5
 20
323.0
 30
0.0
 11
10.5
 21
321.0
 31
0.0
  0
LINE
  5
EEC1
  8
MSM_DASHED
 10
15.5
 20
321.0
 30
0.0
 11
15.5
 21
323.0
 31
0.0
  0
LINE
  5
EEC2
  8
MSM_DASHED
 10
15.599999999999991
 20
323.0
 30
0.0
 11
10.4
 21
323.0
 31
0.0
  0
ARC
  5
EEC3
  8
MSM_DASHED
 10
10.400000000000089
 20
323.40000000000009
 30
0.0
 40
0.4000000000000625
 50
180.00000000001631
 51
269.99999999998778
  0
ARC
  5
EEC4
  8
MSM_DASHED
 10
15.599999999999991
 20
323.39999999999998
 30
0.0
 40
0.4000000000000341
 50
270.00000000000409
 51
359.99999999999193
  0
LINE
  5
EEC5
  8
MSM_DASHED
 10
10.0
 20
334.80000000000001
 30
0.0
 11
10.0
 21
323.39999999999998
 31
0.0
  0
LINE
  5
EEC6
  8
MSM_DASHED
 10
16.0
 20
323.39999999999998
 30
0.0
 11
16.0
 21
334.80000000000001
 31
0.0
  0
LINE
  5
EEC7
  8
MSM_DASHED
 10
16.0
 20
334.80000000000001
 30
0.0
 11
16.199999999999989
 21
335.0
 31
0.0
  0
LINE
  5
EEC8
  8
MSM_DASHED
 10
9.8000000000000114
 20
335.0
 30
0.0
 11
10.0
 21
334.80000000000001
 31
0.0
  0
LINE
  5
EEC9
  8
MSM_DASHED
 10
16.0
 20
334.80000000000001
 30
0.0
 11
10.0
 21
334.80000000000001
 31
0.0
  0
CIRCLE
  5
EF8B
  8
MSM_CONTINUOUS
 10
13.0
 20
432.0
 30
0.0
 40
2.5000000000000222
  0
CIRCLE
  5
EF8C
  8
MSM_CONTINUOUS
 10
13.0
 20
432.0
 30
0.0
 40
3.2000000000000259
  0
CIRCLE
  5
EF8D
  8
MSM_CONTINUOUS
 10
13.0
 20
432.0
 30
0.0
 40
3.0000000000000191
  0
CIRCLE
  5
F023
  8
MSM_CONTINUOUS
 10
147.0
 20
432.0
 30
0.0
 40
2.5000000000000222
  0
CIRCLE
  5
F024
  8
MSM_CONTINUOUS
 10
147.0
 20
432.0
 30
0.0
 40
3.2000000000000259
  0
CIRCLE
  5
F025
  8
MSM_CONTINUOUS
 10
147.0
 20
432.0
 30
0.0
 40
3.0000000000000191
  0
LINE
  5
F114
  8
MSM_DASHED
 10
144.5
 20
323.0
 30
0.0
 11
144.5
 21
321.0
 31
0.0
  0
LINE
  5
F115
  8
MSM_DASHED
 10
149.5
 20
321.0
 30
0.0
 11
149.5
 21
323.0
 31
0.0
  0
LINE
  5
F116
  8
MSM_DASHED
 10
149.59999999999999
 20
323.0
 30
0.0
 11
144.40000000000001
 21
323.0
 31
0.0
  0
ARC
  5
F117
  8
MSM_DASHED
 10
144.40000000000009
 20
323.40000000000009
 30
0.0
 40
0.4000000000000625
 50
180.00000000001631
 51
269.99999999998778
  0
ARC
  5
F118
  8
MSM_DASHED
 10
149.59999999999999
 20
323.39999999999998
 30
0.0
 40
0.4000000000000341
 50
270.00000000000409
 51
359.99999999999193
  0
LINE
  5
F119
  8
MSM_DASHED
 10
144.0
 20
334.80000000000001
 30
0.0
 11
144.0
 21
323.39999999999998
 31
0.0
  0
LINE
  5
F11A
  8
MSM_DASHED
 10
150.0
 20
323.39999999999998
 30
0.0
 11
150.0
 21
334.80000000000001
 31
0.0
  0
LINE
  5
F11B
  8
MSM_DASHED
 10
150.0
 20
334.80000000000001
 30
0.0
 11
150.19999999999999
 21
335.0
 31
0.0
  0
LINE
  5
F11C
  8
MSM_DASHED
 10
143.80000000000001
 20
335.0
 30
0.0
 11
144.0
 21
334.80000000000001
 31
0.0
  0
LINE
  5
F11D
  8
MSM_DASHED
 10
150.0
 20
334.80000000000001
 30
0.0
 11
144.0
 21
334.80000000000001
 31
0.0
  0
ENDSEC
  0
EOF
