  0
SECTION
  2
HEADER
  9
$ACADVER
  1
AC1009
  9
$INSBASE
 10
0.0
 20
0.0
 30
0.0
  9
$EXTMIN
 10
4.9986426650996227
 20
2.4609379918092591
 30
-0.0015258207003583
  9
$EXTMAX
 10
86.640106647787775
 20
89.971619001556689
 30
0.0000000349246037
  9
$LIMMIN
 10
0.0
 20
0.0
  9
$LIMMAX
 10
297.0
 20
210.0
  9
$ORTHOMODE
 70
     1
  9
$REGENMODE
 70
     1
  9
$FILLMODE
 70
     1
  9
$QTEXTMODE
 70
     0
  9
$MIRRTEXT
 70
     1
  9
$DRAGMODE
 70
     2
  9
$LTSCALE
 40
1.0
  9
$OSMODE
 70
   183
  9
$ATTMODE
 70
     1
  9
$TEXTSIZE
 40
6.4000000000000012
  9
$TRACEWID
 40
0.05
  9
$TEXTSTYLE
  7
STANDARD
  9
$CLAYER
  8
0
  9
$CELTYPE
  6
CONTINUOUS
  9
$CECOLOR
 62
     7
  9
$DIMSCALE
 40
1.0
  9
$DIMASZ
 40
3.0
  9
$DIMEXO
 40
1.0
  9
$DIMDLI
 40
0.0
  9
$DIMRND
 40
0.0
  9
$DIMDLE
 40
0.0
  9
$DIMEXE
 40
1.0
  9
$DIMTP
 40
0.0
  9
$DIMTM
 40
0.0
  9
$DIMTXT
 40
3.2000000000000002
  9
$DIMCEN
 40
0.0
  9
$DIMTSZ
 40
0.0
  9
$DIMTOL
 70
     0
  9
$DIMLIM
 70
     0
  9
$DIMTIH
 70
     0
  9
$DIMTOH
 70
     0
  9
$DIMSE1
 70
     0
  9
$DIMSE2
 70
     0
  9
$DIMTAD
 70
     1
  9
$DIMZIN
 70
     8
  9
$DIMBLK
  1

  9
$DIMASO
 70
     1
  9
$DIMSHO
 70
     1
  9
$DIMPOST
  1

  9
$DIMAPOST
  1

  9
$DIMALT
 70
     0
  9
$DIMALTD
 70
     2
  9
$DIMALTF
 40
0.04
  9
$DIMLFAC
 40
1.0
  9
$DIMTOFL
 70
     1
  9
$DIMTVP
 40
1.0
  9
$DIMTIX
 70
     1
  9
$DIMSOXD
 70
     0
  9
$DIMSAH
 70
     0
  9
$DIMBLK1
  1

  9
$DIMBLK2
  1

  9
$DIMSTYLE
  2
MISUMI
  9
$DIMCLRD
 70
     0
  9
$DIMCLRE
 70
     0
  9
$DIMCLRT
 70
     0
  9
$DIMTFAC
 40
0.6
  9
$DIMGAP
 40
1.0
  9
$LUNITS
 70
     2
  9
$LUPREC
 70
     4
  9
$SKETCHINC
 40
0.1
  9
$FILLETRAD
 40
0.3
  9
$AUNITS
 70
     0
  9
$AUPREC
 70
     0
  9
$MENU
  1
acad
  9
$ELEVATION
 40
0.0
  9
$PELEVATION
 40
0.0
  9
$THICKNESS
 40
0.0
  9
$LIMCHECK
 70
     0
  9
$BLIPMODE
 70
     0
  9
$CHAMFERA
 40
0.0
  9
$CHAMFERB
 40
0.0
  9
$SKPOLY
 70
     0
  9
$TDCREATE
 40
2451464.60066493
  9
$TDUPDATE
 40
2453748.391028102
  9
$TDINDWG
 40
0.1933020949
  9
$TDUSRTIMER
 40
0.1933004167
  9
$USRTIMER
 70
     1
  9
$ANGBASE
 50
0.0
  9
$ANGDIR
 70
     0
  9
$PDMODE
 70
     0
  9
$PDSIZE
 40
0.0
  9
$PLINEWID
 40
0.0
  9
$COORDS
 70
     0
  9
$SPLFRAME
 70
     0
  9
$SPLINETYPE
 70
     6
  9
$SPLINESEGS
 70
     8
  9
$ATTDIA
 70
     0
  9
$ATTREQ
 70
     1
  9
$HANDLING
 70
 22529
  9
$HANDSEED
  5
CCD
  9
$SURFTAB1
 70
     6
  9
$SURFTAB2
 70
     6
  9
$SURFTYPE
 70
     6
  9
$SURFU
 70
     6
  9
$SURFV
 70
     6
  9
$UCSNAME
  2

  9
$UCSORG
 10
0.0
 20
0.0
 30
0.0
  9
$UCSXDIR
 10
1.0
 20
0.0
 30
0.0
  9
$UCSYDIR
 10
0.0
 20
1.0
 30
0.0
  9
$PUCSNAME
  2

  9
$PUCSORG
 10
0.0
 20
0.0
 30
0.0
  9
$PUCSXDIR
 10
1.0
 20
0.0
 30
0.0
  9
$PUCSYDIR
 10
0.0
 20
1.0
 30
0.0
  9
$USERI1
 70
     0
  9
$USERI2
 70
     0
  9
$USERI3
 70
     0
  9
$USERI4
 70
     0
  9
$USERI5
 70
     0
  9
$USERR1
 40
0.0
  9
$USERR2
 40
0.0
  9
$USERR3
 40
0.0
  9
$USERR4
 40
0.0
  9
$USERR5
 40
0.0
  9
$WORLDVIEW
 70
     1
  9
$SHADEDGE
 70
     3
  9
$SHADEDIF
 70
    70
  9
$TILEMODE
 70
     1
  9
$MAXACTVP
 70
    16
  9
$PLIMCHECK
 70
     0
  9
$PEXTMIN
 10
1.0000000000000000E+020
 20
1.0000000000000000E+020
 30
1.0000000000000000E+020
  9
$PEXTMAX
 10
-1.0000000000000000E+020
 20
-1.0000000000000000E+020
 30
-1.0000000000000000E+020
  9
$PLIMMIN
 10
0.0
 20
0.0
  9
$PLIMMAX
 10
12.0
 20
9.0
  9
$UNITMODE
 70
     0
  9
$VISRETAIN
 70
     0
  9
$PLINEGEN
 70
     0
  9
$PSLTSCALE
 70
     1
  0
ENDSEC
  0
SECTION
  2
TABLES
  0
TABLE
  2
VPORT
 70
     2
  0
VPORT
  2
*ACTIVE
 70
     0
 10
0.0
 20
0.0
 11
1.0
 21
1.0
 12
45.819374656443699
 22
46.216278496682961
 13
0.0
 23
0.0
 14
10.0
 24
10.0
 15
10.0
 25
10.0
 16
0.0
 26
0.0
 36
1.0
 17
0.0
 27
0.0
 37
0.0
 40
88.371441806564604
 41
1.474548440065681
 42
50.0
 43
0.0
 44
0.0
 50
0.0
 51
0.0
 71
     0
 72
   100
 73
     1
 74
     0
 75
     0
 76
     0
 77
     0
 78
     0
  0
ENDTAB
  0
TABLE
  2
LTYPE
 70
     4
  0
LTYPE
  2
CONTINUOUS
 70
     0
  3
Solid line
 72
    65
 73
     0
 40
0.0
  0
LTYPE
  2
CENTER
 70
     0
  3
Center ____ _ ____ _ ____ _ ____ _ ____ _ ____
 72
    65
 73
     4
 40
2.0
 49
1.25
 49
-0.25
 49
0.25
 49
-0.25
  0
ENDTAB
  0
TABLE
  2
LAYER
 70
     4
  0
LAYER
  2
0
 70
     0
 62
     7
  6
CONTINUOUS
  0
LAYER
  2
CENTER
 70
     0
 62
     1
  6
CENTER
  0
ENDTAB
  0
TABLE
  2
STYLE
 70
     2
  0
STYLE
  2
STANDARD
 70
     0
 40
0.0
 41
1.0
 50
0.0
 71
     0
 42
6.4000000000000012
  3
txt
  4

  0
ENDTAB
  0
TABLE
  2
VIEW
 70
     0
  0
ENDTAB
  0
TABLE
  2
UCS
 70
     0
  0
ENDTAB
  0
TABLE
  2
APPID
 70
     1
  0
APPID
  2
ACAD
 70
     0
  0
ENDTAB
  0
TABLE
  2
DIMSTYLE
 70
     2
  0
DIMSTYLE
  2
MISUMI
 70
     0
  3

  4

  5

  6

  7

 40
1.0
 41
3.0
 42
1.0
 43
0.0
 44
1.0
 45
0.0
 46
0.0
 47
0.0
 48
0.0
140
3.2000000000000002
141
0.0
142
0.0
143
0.04
144
1.0
145
1.0
146
0.6
147
1.0
 71
     0
 72
     0
 73
     0
 74
     0
 75
     0
 76
     0
 77
     1
 78
     8
170
     0
171
     2
172
     1
173
     0
174
     1
175
     0
176
     0
177
     0
178
     0
  0
ENDTAB
  0
ENDSEC
  0
SECTION
  2
BLOCKS
  0
BLOCK
  8
0
  2
$MODEL_SPACE
 70
     0
 10
0.0
 20
0.0
 30
0.0
  3
$MODEL_SPACE
  1

  0
ENDBLK
  5
B80
  8
0
  0
BLOCK
 67
     1
  8
0
  2
$PAPER_SPACE
 70
     0
 10
0.0
 20
0.0
 30
0.0
  3
$PAPER_SPACE
  1

  0
ENDBLK
  5
B7C
 67
     1
  8
0
  0
ENDSEC
  0
SECTION
  2
ENTITIES
  0
LINE
  5
BED
  8
0
  6
CONTINUOUS
 62
     7
 10
77.131955532023227
 20
41.720830197343147
 30
0.0
 11
80.631955532023227
 21
41.720830197343147
 31
0.0
  0
LINE
  5
BEE
  8
0
  6
CONTINUOUS
 62
     7
 10
63.381955532023213
 20
40.970830197343147
 30
0.0
 11
79.881955532023227
 21
40.970830197343147
 31
0.0
  0
ARC
  5
BEF
  8
0
  6
CONTINUOUS
 62
     7
 10
81.253153832023244
 20
66.023954197343159
 30
0.0
 40
7.0022409999999988
 50
82.790200300000024
 51
120.6643569
  0
ARC
  5
BF0
  8
0
  6
CONTINUOUS
 62
     7
 10
81.253153832023244
 20
58.417706197343151
 30
0.0
 40
7.0022409999999988
 50
239.3356431
 51
277.20979970000002
  0
LINE
  5
BF1
  8
0
  6
CONTINUOUS
 62
     7
 10
82.131955532023227
 20
51.47083019734314
 30
0.0
 11
61.13195553202322
 21
51.47083019734314
 31
0.0
  0
LINE
  5
BF2
  8
0
  6
CONTINUOUS
 62
     7
 10
83.731955532023221
 20
56.47083019734314
 30
0.0
 11
59.531955532023233
 21
56.47083019734314
 31
0.0
  0
LINE
  5
BF3
  8
0
  6
CONTINUOUS
 62
     7
 10
61.13195553202322
 20
72.970830197343133
 30
0.0
 11
82.131955532023227
 21
72.970830197343133
 31
0.0
  0
LINE
  5
BF4
  8
0
  6
CONTINUOUS
 62
     7
 10
59.531955532023233
 20
67.970830197343133
 30
0.0
 11
83.731955532023221
 21
67.970830197343133
 31
0.0
  0
LINE
  5
BF5
  8
0
  6
CONTINUOUS
 62
     7
 10
64.131955532023227
 20
78.970830197343133
 30
0.0
 11
79.131955532023227
 21
78.970830197343133
 31
0.0
  0
LINE
  5
BF6
  8
0
  6
CONTINUOUS
 62
     7
 10
63.63195553202322
 20
78.470830197343133
 30
0.0
 11
79.631955532023227
 21
78.470830197343133
 31
0.0
  0
LINE
  5
BF7
  8
0
  6
CONTINUOUS
 62
     7
 10
62.63195553202322
 20
75.220830197343133
 30
0.0
 11
80.631955532023227
 21
75.220830197343133
 31
0.0
  0
LINE
  5
BF8
  8
0
  6
CONTINUOUS
 62
     7
 10
63.381955532023213
 20
75.970830197343133
 30
0.0
 11
79.881955532023227
 21
75.970830197343133
 31
0.0
  0
LINE
  5
BF9
  8
0
  6
CONTINUOUS
 62
     7
 10
64.131955532023227
 20
78.970830197343133
 30
0.0
 11
79.131955532023227
 21
78.970830197343133
 31
0.0
  0
CIRCLE
  5
BFA
  8
0
  6
CONTINUOUS
 62
     3
 10
71.631955532023227
 20
17.470830197343151
 30
0.0
 40
8.25
  0
CIRCLE
  5
BFB
  8
0
  6
CONTINUOUS
 62
     7
 10
71.631955532023227
 20
17.470830197343151
 30
0.0
 40
9.0
  0
LINE
  5
BFC
  8
0
  6
CONTINUOUS
 62
     7
 10
83.756311185005373
 20
17.470830197343179
 30
0.0
 11
77.694133358514293
 21
27.970830197343162
 31
0.0
  0
LINE
  5
BFD
  8
0
  6
CONTINUOUS
 62
     7
 10
77.694133358514293
 20
6.9708301973431528
 30
0.0
 11
83.756311185005373
 21
17.470830197343179
 31
0.0
  0
CIRCLE
  5
BFE
  8
0
  6
CONTINUOUS
 62
     7
 10
71.631955532023227
 20
17.470830197343151
 30
0.0
 40
10.49999999999998
  0
LINE
  5
BFF
  8
CENTER
  6
CENTER
 62
     1
 10
56.63195553202322
 20
17.470830197343151
 30
0.0
 11
86.631955532023227
 21
17.470830197343151
 31
0.0
  0
LINE
  5
C00
  8
CENTER
  6
CENTER
 62
     1
 10
56.63195553202322
 20
17.470830197343151
 30
0.0
 11
86.631955532023227
 21
17.470830197343151
 31
0.0
  0
LINE
  5
C01
  8
0
  6
CONTINUOUS
 62
     7
 10
77.681955532023238
 20
52.394590647343151
 30
0.0
 11
77.681955532023238
 21
56.47083019734314
 31
0.0
  0
LINE
  5
C02
  8
0
  6
CONTINUOUS
 62
     7
 10
59.531955532023233
 20
52.394590647343151
 30
0.0
 11
59.531955532023233
 21
56.47083019734314
 31
0.0
  0
LINE
  5
C03
  8
0
  6
CONTINUOUS
 62
     7
 10
65.581955532023215
 20
52.394590647343151
 30
0.0
 11
65.581955532023215
 21
56.47083019734314
 31
0.0
  0
LINE
  5
C04
  8
CENTER
  6
CENTER
 62
     1
 10
71.631955532023227
 20
89.970830197343133
 30
0.0
 11
71.631955532023227
 21
39.970830197343147
 31
0.0
  0
TEXT
  5
C05
  8
0
  6
CONTINUOUS
 62
     7
 10
5.0
 20
5.0
 30
0.0
 40
2.0
  1
OPCP1210
  0
TEXT
  5
C06
  8
0
  6
CONTINUOUS
 62
     7
 10
5.0
 20
12.5
 30
0.0
 40
2.0
  1
OPCP1210
  0
LINE
  5
C07
  8
0
  6
CONTINUOUS
 62
     7
 10
65.569777705532175
 20
6.970830197343151
 30
0.0
 11
59.507599879041088
 21
17.47083019734314
 31
0.0
  0
LINE
  5
C08
  8
CENTER
  6
CENTER
 62
     1
 10
71.631955532023227
 20
2.470830197343155
 30
0.0
 11
71.631955532023227
 21
32.470830197343147
 31
0.0
  0
LINE
  5
C09
  8
0
  6
CONTINUOUS
 62
     7
 10
65.569777705532175
 20
6.970830197343151
 30
0.0
 11
77.694133358514293
 21
6.9708301973431528
 31
0.0
  0
LINE
  5
C0A
  8
0
  6
CONTINUOUS
 62
     7
 10
59.507599879041088
 20
17.47083019734314
 30
0.0
 11
65.569777705532175
 21
27.97083019734314
 31
0.0
  0
LINE
  5
C0B
  8
0
  6
CONTINUOUS
 62
     7
 10
65.975101282530858
 20
10.47083019734314
 30
0.0
 11
77.28880978151561
 21
10.47083019734314
 31
0.0
  0
LINE
  5
C0C
  8
0
  6
CONTINUOUS
 62
     7
 10
65.569777705532175
 20
27.97083019734314
 30
0.0
 11
77.694133358514293
 21
27.970830197343162
 31
0.0
  0
LINE
  5
C0D
  8
0
  6
CONTINUOUS
 62
     7
 10
65.975101282530858
 20
24.47083019734314
 30
0.0
 11
77.28880978151561
 21
24.47083019734314
 31
0.0
  0
ARC
  5
C0E
  8
0
  6
CONTINUOUS
 62
     7
 10
62.010757232023217
 20
58.417706197343151
 30
0.0
 40
7.0022409999999988
 50
262.79020029999992
 51
300.66435689999992
  0
LINE
  5
C0F
  8
0
  6
CONTINUOUS
 62
     7
 10
61.13195553202322
 20
51.47083019734314
 30
0.0
 11
59.531955532023233
 21
52.394590647343151
 31
0.0
  0
LINE
  5
C10
  8
0
  6
CONTINUOUS
 62
     3
 10
63.381955532023213
 20
51.47083019734314
 30
0.0
 11
63.381955532023213
 21
40.970830197343147
 31
0.0
  0
LINE
  5
C11
  8
0
  6
CONTINUOUS
 62
     7
 10
62.63195553202322
 20
51.47083019734314
 30
0.0
 11
62.63195553202322
 21
41.720830197343147
 31
0.0
  0
LINE
  5
C12
  8
0
  6
CONTINUOUS
 62
     3
 10
77.131955532023227
 20
40.970830197343147
 30
0.0
 11
66.131955532023227
 21
48.97083019734314
 31
0.0
  0
LINE
  5
C13
  8
0
  6
CONTINUOUS
 62
     3
 10
66.131955532023227
 20
40.970830197343147
 30
0.0
 11
77.131955532023227
 21
48.97083019734314
 31
0.0
  0
LINE
  5
C14
  8
0
  6
CONTINUOUS
 62
     7
 10
77.131955532023227
 20
48.97083019734314
 30
0.0
 11
77.131955532023227
 21
40.970830197343147
 31
0.0
  0
LINE
  5
C15
  8
0
  6
CONTINUOUS
 62
     7
 10
66.131955532023227
 20
48.97083019734314
 30
0.0
 11
66.131955532023227
 21
40.970830197343147
 31
0.0
  0
LINE
  5
C16
  8
0
  6
CONTINUOUS
 62
     7
 10
62.63195553202322
 20
41.720830197343147
 30
0.0
 11
66.131955532023227
 21
41.720830197343147
 31
0.0
  0
LINE
  5
C17
  8
0
  6
CONTINUOUS
 62
     7
 10
63.381955532023213
 20
40.970830197343147
 30
0.0
 11
62.63195553202322
 21
41.720830197343147
 31
0.0
  0
ARC
  5
C18
  8
0
  6
CONTINUOUS
 62
     7
 10
71.631955532023227
 20
71.744394697343154
 30
0.0
 40
20.273564499999999
 50
252.63738050000001
 51
287.36261949999988
  0
LINE
  5
C19
  8
0
  6
CONTINUOUS
 62
     7
 10
66.131955532023227
 20
48.97083019734314
 30
0.0
 11
77.131955532023227
 21
48.97083019734314
 31
0.0
  0
LINE
  5
C1A
  8
0
  6
CONTINUOUS
 62
     7
 10
63.63195553202322
 20
78.470830197343133
 30
0.0
 11
64.131955532023227
 21
78.970830197343133
 31
0.0
  0
ARC
  5
C1B
  8
0
  6
CONTINUOUS
 62
     7
 10
62.010757232023217
 20
66.023954197343159
 30
0.0
 40
7.0022409999999988
 50
59.335643099999992
 51
97.209799700000005
  0
LINE
  5
C1C
  8
0
  6
CONTINUOUS
 62
     7
 10
61.13195553202322
 20
72.970830197343133
 30
0.0
 11
59.531955532023233
 21
72.047069747343158
 31
0.0
  0
LINE
  5
C1D
  8
0
  6
CONTINUOUS
 62
     7
 10
59.531955532023233
 20
72.047069747343158
 30
0.0
 11
59.531955532023233
 21
67.970830197343133
 31
0.0
  0
LINE
  5
C1E
  8
0
  6
CONTINUOUS
 62
     7
 10
62.63195553202322
 20
67.970830197343133
 30
0.0
 11
62.63195553202322
 21
56.47083019734314
 31
0.0
  0
LINE
  5
C1F
  8
0
  6
CONTINUOUS
 62
     3
 10
63.381955532023213
 20
67.970830197343133
 30
0.0
 11
63.381955532023213
 21
56.47083019734314
 31
0.0
  0
ARC
  5
C20
  8
0
  6
CONTINUOUS
 62
     7
 10
71.631955532023227
 20
52.697265697343163
 30
0.0
 40
20.273564499999999
 50
72.637380500000006
 51
107.3626194999997
  0
LINE
  5
C21
  8
0
  6
CONTINUOUS
 62
     3
 10
63.381955532023213
 20
75.970830197343133
 30
0.0
 11
63.381955532023213
 21
72.970830197343133
 31
0.0
  0
LINE
  5
C22
  8
0
  6
CONTINUOUS
 62
     7
 10
62.63195553202322
 20
75.220830197343133
 30
0.0
 11
62.63195553202322
 21
72.970830197343133
 31
0.0
  0
LINE
  5
C23
  8
0
  6
CONTINUOUS
 62
     7
 10
65.581955532023215
 20
72.047069747343158
 30
0.0
 11
65.581955532023215
 21
67.970830197343133
 31
0.0
  0
LINE
  5
C24
  8
0
  6
CONTINUOUS
 62
     7
 10
63.381955532023213
 20
75.970830197343133
 30
0.0
 11
62.63195553202322
 21
75.220830197343133
 31
0.0
  0
LINE
  5
C25
  8
0
  6
CONTINUOUS
 62
     7
 10
63.63195553202322
 20
78.470830197343133
 30
0.0
 11
63.63195553202322
 21
75.970830197343133
 31
0.0
  0
LINE
  5
C26
  8
0
  6
CONTINUOUS
 62
     7
 10
77.681955532023238
 20
72.047069747343158
 30
0.0
 11
77.681955532023238
 21
67.970830197343133
 31
0.0
  0
LINE
  5
C27
  8
0
  6
CONTINUOUS
 62
     7
 10
66.631955532023227
 20
87.631084247343153
 30
0.0
 11
76.631955532023227
 21
87.631084247343153
 31
0.0
  0
ARC
  5
C28
  8
0
  6
CONTINUOUS
 62
     7
 10
71.631955532023227
 20
78.970830197343133
 30
0.0
 40
10.0
 50
60.0
 51
119.9999999999999
  0
LINE
  5
C29
  8
0
  6
CONTINUOUS
 62
     7
 10
66.631955532023227
 20
87.631084247343153
 30
0.0
 11
66.631955532023227
 21
78.970830197343133
 31
0.0
  0
LINE
  5
C2A
  8
0
  6
CONTINUOUS
 62
     7
 10
76.631955532023227
 20
87.631084247343153
 30
0.0
 11
76.631955532023227
 21
78.970830197343133
 31
0.0
  0
LINE
  5
C2B
  8
0
  6
CONTINUOUS
 62
     7
 10
83.731955532023221
 20
52.394590647343151
 30
0.0
 11
83.731955532023221
 21
56.47083019734314
 31
0.0
  0
LINE
  5
C2C
  8
0
  6
CONTINUOUS
 62
     7
 10
80.631955532023227
 20
51.47083019734314
 30
0.0
 11
80.631955532023227
 21
41.720830197343147
 31
0.0
  0
LINE
  5
C2D
  8
0
  6
CONTINUOUS
 62
     3
 10
79.881955532023227
 20
51.47083019734314
 30
0.0
 11
79.881955532023227
 21
40.970830197343147
 31
0.0
  0
LINE
  5
C2E
  8
0
  6
CONTINUOUS
 62
     7
 10
79.881955532023227
 20
40.970830197343147
 30
0.0
 11
80.631955532023227
 21
41.720830197343147
 31
0.0
  0
LINE
  5
C2F
  8
0
  6
CONTINUOUS
 62
     7
 10
80.631955532023184
 20
46.595830197343098
 30
0.0
 11
80.632055532023216
 21
46.595830197343098
 31
0.0
  0
LINE
  5
C30
  8
0
  6
CONTINUOUS
 62
     7
 10
80.631955532023184
 20
49.033330197343112
 30
0.0
 11
80.631955532023184
 21
49.033430197343208
 31
0.0
  0
LINE
  5
C31
  8
0
  6
CONTINUOUS
 62
     7
 10
82.131955532023227
 20
51.47083019734314
 30
0.0
 11
83.731955532023221
 21
52.394590647343151
 31
0.0
  0
LINE
  5
C32
  8
0
  6
CONTINUOUS
 62
     7
 10
79.631955532023227
 20
78.470830197343133
 30
0.0
 11
79.131955532023227
 21
78.970830197343133
 31
0.0
  0
LINE
  5
C33
  8
0
  6
CONTINUOUS
 62
     7
 10
80.631955532023227
 20
67.970830197343133
 30
0.0
 11
80.631955532023227
 21
56.47083019734314
 31
0.0
  0
LINE
  5
C34
  8
0
  6
CONTINUOUS
 62
     3
 10
79.881955532023227
 20
67.970830197343133
 30
0.0
 11
79.881955532023227
 21
56.47083019734314
 31
0.0
  0
LINE
  5
C35
  8
0
  6
CONTINUOUS
 62
     3
 10
79.881955532023227
 20
75.970830197343133
 30
0.0
 11
79.881955532023227
 21
72.970830197343133
 31
0.0
  0
LINE
  5
C36
  8
0
  6
CONTINUOUS
 62
     7
 10
80.631955532023227
 20
75.220830197343133
 30
0.0
 11
80.631955532023227
 21
72.970830197343133
 31
0.0
  0
LINE
  5
C37
  8
0
  6
CONTINUOUS
 62
     7
 10
82.131955532023227
 20
72.970830197343133
 30
0.0
 11
83.731955532023221
 21
72.047069747343158
 31
0.0
  0
LINE
  5
C38
  8
0
  6
CONTINUOUS
 62
     7
 10
83.731955532023221
 20
72.047069747343158
 30
0.0
 11
83.731955532023221
 21
67.970830197343133
 31
0.0
  0
LINE
  5
C39
  8
0
  6
CONTINUOUS
 62
     7
 10
79.881955532023227
 20
75.970830197343133
 30
0.0
 11
80.631955532023227
 21
75.220830197343133
 31
0.0
  0
LINE
  5
C3A
  8
0
  6
CONTINUOUS
 62
     7
 10
79.631955532023227
 20
78.470830197343133
 30
0.0
 11
79.631955532023227
 21
75.970830197343133
 31
0.0
  0
CIRCLE
  5
CC4
  8
0
  6
CONTINUOUS
 62
     3
 10
71.631955532023227
 20
17.470830197343151
 30
0.0
 40
6.0
  0
CIRCLE
  5
CC5
  8
0
  6
CONTINUOUS
 62
     7
 10
71.631955532023227
 20
17.470830197343151
 30
0.0
 40
5.052999999999999
  0
ENDSEC
  0
EOF
