  0
SECTION
  2
HEADER
  9
$ACADVER
  1
AC1009
  9
$INSBASE
 10
0.0
 20
0.0
 30
0.0
  9
$EXTMIN
 10
-1.0
 20
-13.0
 30
0.0
  9
$EXTMAX
 10
107.5
 20
55.499999999993818
 30
0.0
  9
$LIMMIN
 10
0.0
 20
0.0
  9
$LIMMAX
 10
420.0
 20
297.0
  9
$ORTHOMODE
 70
     1
  9
$REGENMODE
 70
     1
  9
$FILLMODE
 70
     1
  9
$QTEXTMODE
 70
     0
  9
$MIRRTEXT
 70
     0
  9
$DRAGMODE
 70
     2
  9
$LTSCALE
 40
0.5
  9
$OSMODE
 70
  3071
  9
$ATTMODE
 70
     1
  9
$TEXTSIZE
 40
3.0
  9
$TRACEWID
 40
1.0
  9
$TEXTSTYLE
  7
STANDARD
  9
$CLAYER
  8
MSM_CONTINUOUS
  9
$CELTYPE
  6
BYLAYER
  9
$CECOLOR
 62
   256
  9
$DIMSCALE
 40
1.0
  9
$DIMASZ
 40
1.0
  9
$DIMEXO
 40
0.3
  9
$DIMDLI
 40
1.5
  9
$DIMRND
 40
0.0
  9
$DIMDLE
 40
0.0
  9
$DIMEXE
 40
0.5
  9
$DIMTP
 40
0.0
  9
$DIMTM
 40
0.0
  9
$DIMTXT
 40
3.0
  9
$DIMCEN
 40
2.5
  9
$DIMTSZ
 40
0.0
  9
$DIMTOL
 70
     0
  9
$DIMLIM
 70
     0
  9
$DIMTIH
 70
     0
  9
$DIMTOH
 70
     0
  9
$DIMSE1
 70
     0
  9
$DIMSE2
 70
     0
  9
$DIMTAD
 70
     1
  9
$DIMZIN
 70
     8
  9
$DIMBLK
  1
OPEN30
  9
$DIMASO
 70
     1
  9
$DIMSHO
 70
     1
  9
$DIMPOST
  1

  9
$DIMAPOST
  1

  9
$DIMALT
 70
     0
  9
$DIMALTD
 70
     3
  9
$DIMALTF
 40
0.03937007874016
  9
$DIMLFAC
 40
1.0
  9
$DIMTOFL
 70
     1
  9
$DIMTVP
 40
0.0
  9
$DIMTIX
 70
     0
  9
$DIMSOXD
 70
     0
  9
$DIMSAH
 70
     0
  9
$DIMBLK1
  1

  9
$DIMBLK2
  1

  9
$DIMSTYLE
  2
MISUMI
  9
$DIMCLRD
 70
   256
  9
$DIMCLRE
 70
   256
  9
$DIMCLRT
 70
   256
  9
$DIMTFAC
 40
1.0
  9
$DIMGAP
 40
0.625
  9
$LUNITS
 70
     2
  9
$LUPREC
 70
     2
  9
$SKETCHINC
 40
1.0
  9
$FILLETRAD
 40
0.0
  9
$AUNITS
 70
     0
  9
$AUPREC
 70
     0
  9
$MENU
  1
.
  9
$ELEVATION
 40
0.0
  9
$PELEVATION
 40
0.0
  9
$THICKNESS
 40
0.0
  9
$LIMCHECK
 70
     0
  9
$BLIPMODE
 70
     0
  9
$CHAMFERA
 40
0.5
  9
$CHAMFERB
 40
0.5
  9
$SKPOLY
 70
     0
  9
$TDCREATE
 40
2455135.5720697111
  9
$TDUPDATE
 40
2457715.8097381359
  9
$TDINDWG
 40
0.8677299769
  9
$TDUSRTIMER
 40
2457639.1145625231
  9
$USRTIMER
 70
     1
  9
$ANGBASE
 50
0.0
  9
$ANGDIR
 70
     0
  9
$PDMODE
 70
    35
  9
$PDSIZE
 40
0.0
  9
$PLINEWID
 40
0.0
  9
$COORDS
 70
     0
  9
$SPLFRAME
 70
     0
  9
$SPLINETYPE
 70
     6
  9
$SPLINESEGS
 70
     8
  9
$ATTDIA
 70
     0
  9
$ATTREQ
 70
     1
  9
$HANDLING
 70
     1
  9
$HANDSEED
  5
129AD
  9
$SURFTAB1
 70
     6
  9
$SURFTAB2
 70
     6
  9
$SURFTYPE
 70
     6
  9
$SURFU
 70
     6
  9
$SURFV
 70
     6
  9
$UCSNAME
  2

  9
$UCSORG
 10
0.0
 20
0.0
 30
0.0
  9
$UCSXDIR
 10
1.0
 20
0.0
 30
0.0
  9
$UCSYDIR
 10
0.0
 20
1.0
 30
0.0
  9
$PUCSNAME
  2

  9
$PUCSORG
 10
0.0
 20
0.0
 30
0.0
  9
$PUCSXDIR
 10
1.0
 20
0.0
 30
0.0
  9
$PUCSYDIR
 10
0.0
 20
1.0
 30
0.0
  9
$USERI1
 70
     0
  9
$USERI2
 70
     0
  9
$USERI3
 70
     0
  9
$USERI4
 70
     0
  9
$USERI5
 70
     0
  9
$USERR1
 40
0.0
  9
$USERR2
 40
0.0
  9
$USERR3
 40
0.0
  9
$USERR4
 40
0.0
  9
$USERR5
 40
0.0
  9
$WORLDVIEW
 70
     1
  9
$SHADEDGE
 70
     3
  9
$SHADEDIF
 70
    70
  9
$TILEMODE
 70
     1
  9
$MAXACTVP
 70
    64
  9
$PLIMCHECK
 70
     0
  9
$PEXTMIN
 10
0.0
 20
0.0
 30
0.0
  9
$PEXTMAX
 10
0.0
 20
0.0
 30
0.0
  9
$PLIMMIN
 10
0.0
 20
0.0
  9
$PLIMMAX
 10
12.0
 20
9.0
  9
$UNITMODE
 70
     0
  9
$VISRETAIN
 70
     1
  9
$PLINEGEN
 70
     0
  9
$PSLTSCALE
 70
     1
  0
ENDSEC
  0
SECTION
  2
TABLES
  0
TABLE
  2
VPORT
 70
     1
  0
VPORT
  2
*ACTIVE
 70
     0
 10
0.0
 20
0.0
 11
1.0
 21
1.0
 12
53.247149963131328
 22
21.256014965529349
 13
0.0
 23
0.0
 14
10.0
 24
10.0
 15
10.0
 25
10.0
 16
0.0
 26
0.0
 36
1.0
 17
0.0
 27
0.0
 37
0.0
 40
69.022861613470042
 41
1.947496947496947
 42
50.0
 43
0.0
 44
0.0
 50
0.0
 51
0.0
 71
    16
 72
  1000
 73
     1
 74
     3
 75
     0
 76
     0
 77
     0
 78
     0
  0
ENDTAB
  0
TABLE
  2
LTYPE
 70
     2
  0
LTYPE
  2
CONTINUOUS
 70
     0
  3
Solid line
 72
    65
 73
     0
 40
0.0
  0
LTYPE
  2
CENTER
 70
     0
  3
Center ____ _ ____ _ ____ _ ____ _ ____ _ ____
 72
    65
 73
     4
 40
50.799999999999997
 49
31.75
 49
-6.3499999999999988
 49
6.3499999999999988
 49
-6.3499999999999988
  0
ENDTAB
  0
TABLE
  2
LAYER
 70
     6
  0
LAYER
  2
0
 70
     0
 62
     7
  6
CONTINUOUS
  0
LAYER
  2
MSM_CENTER
 70
     0
 62
     1
  6
CENTER
  0
LAYER
  2
DEFPOINTS
 70
     0
 62
     7
  6
CONTINUOUS
  0
LAYER
  2
MSM_CONTINUOUS
 70
     0
 62
     7
  6
CONTINUOUS
  0
LAYER
  2
MSM_PART_NUMBER
 70
     0
 62
     7
  6
CONTINUOUS
  0
LAYER
  2
MSM_NARROW
 70
     0
 62
     5
  6
CONTINUOUS
  0
ENDTAB
  0
TABLE
  2
STYLE
 70
     1
  0
STYLE
  2
STANDARD
 70
     0
 40
1.0
 41
1.0
 50
0.0
 71
     0
 42
3.0
  3
txt.shx
  4
bigfont.shx
  0
ENDTAB
  0
TABLE
  2
VIEW
 70
     0
  0
ENDTAB
  0
TABLE
  2
UCS
 70
     0
  0
ENDTAB
  0
TABLE
  2
APPID
 70
    25
  0
APPID
  2
ACAD
 70
     0
  0
APPID
  2
ACAD_MLEADERVER
 70
     0
  0
APPID
  2
ACAD_EXEMPT_FROM_CAD_STANDARDS
 70
     0
  0
APPID
  2
ACDBBLOCKREPETAG
 70
     0
  0
APPID
  2
ACAD_DSTYLE_DIMJOGGED_JOGA
 70
     0
  0
APPID
  2
ACAECLAYERSTANDARD
 70
     0
  0
APPID
  2
GENIUS_GENODEF_13
 70
     0
  0
APPID
  2
GENIUS_GENOBJ-N-FIL_13
 70
     0
  0
APPID
  2
ACAD_PSEXT
 70
     0
  0
APPID
  2
ACAD_DSTYLE_DIMRADIAL_EXTENSION
 70
     0
  0
APPID
  2
ACDBDYNAMICBLOCKTRUENAME
 70
     0
  0
APPID
  2
ACDBDYNAMICBLOCKGUID
 70
     0
  0
APPID
  2
ACDBBLOCKREPBTAG
 70
     0
  0
APPID
  2
ACAUTHENVIRON
 70
     0
  0
APPID
  2
GRADIENTCOLOR1ACI
 70
     0
  0
APPID
  2
GRADIENTCOLOR2ACI
 70
     0
  0
APPID
  2
ACAD_DSTYLE_DIMJAG
 70
     0
  0
APPID
  2
ACAD_DSTYLE_DIMTALN
 70
     0
  0
APPID
  2
ACCMTRANSPARENCY
 70
     0
  0
APPID
  2
ACAD_DSTYLE_DIMBREAK
 70
     0
  0
APPID
  2
ACAD_DSTYLE_DIMFLIPARROW_W
 70
     0
  0
APPID
  2
ACAD_DSTYLE_DIM_LINETYPE
 70
     0
  0
APPID
  2
ACAD_DSTYLE_DIM_EXT1_LINETYPE
 70
     0
  0
APPID
  2
ACAD_DSTYLE_DIM_EXT2_LINETYPE
 70
     0
  0
APPID
  2
ACAD_NAV_VCDISPLAY
 70
     0
  0
ENDTAB
  0
TABLE
  2
DIMSTYLE
 70
     2
  0
DIMSTYLE
  2
MISUMI
 70
     0
  3

  4

  5
OPEN30
  6

  7

 40
1.0
 41
1.0
 42
0.3
 43
1.5
 44
0.5
 45
0.0
 46
0.0
 47
0.0
 48
0.0
140
3.0
141
2.5
142
0.0
143
0.03937007874016
144
1.0
145
0.0
146
1.0
147
0.625
 71
     0
 72
     0
 73
     0
 74
     0
 75
     0
 76
     0
 77
     1
 78
     8
170
     0
171
     3
172
     1
173
     0
174
     0
175
     0
176
   256
177
   256
178
   256
  0
ENDTAB
  0
ENDSEC
  0
SECTION
  2
BLOCKS
  0
BLOCK
  8
0
  2
$MODEL_SPACE
 70
     0
 10
0.0
 20
0.0
 30
0.0
  3
$MODEL_SPACE
  1

  0
ENDBLK
  5
21
  8
0
  0
BLOCK
 67
     1
  8
0
  2
$PAPER_SPACE
 70
     0
 10
0.0
 20
0.0
 30
0.0
  3
$PAPER_SPACE
  1

  0
ENDBLK
  5
12982
 67
     1
  8
0
  0
BLOCK
  8
0
 62
     7
  2
_OPEN30
 70
     0
 10
0.0
 20
0.0
 30
0.0
  3
_OPEN30
  1

  0
LINE
  5
10519
  8
0
  6
BYBLOCK
 62
     0
 10
-1.0
 20
0.26794919
 30
0.0
 11
0.0
 21
0.0
 31
0.0
  0
LINE
  5
1051A
  8
0
  6
BYBLOCK
 62
     0
 10
0.0
 20
0.0
 30
0.0
 11
-1.0
 21
-0.26794919
 31
0.0
  0
LINE
  5
1051B
  8
0
  6
BYBLOCK
 62
     0
 10
0.0
 20
0.0
 30
0.0
 11
-1.0
 21
0.0
 31
0.0
  0
ENDBLK
  5
1051C
  8
0
 62
     7
  0
BLOCK
  8
0
  2
*U2
 70
     1
 10
0.0
 20
0.0
 30
0.0
  3
*U2
  1

  0
TEXT
  5
12990
  8
MSM_PART_NUMBER
 10
230.78420101418749
 20
4.7390233652656937
 30
0.0
 40
3.0
  1
geakb1.5-21-15.dwg
  0
ENDBLK
  5
12992
  8
0
  0
BLOCK
  8
0
  2
*U3
 70
     1
 10
0.0
 20
0.0
 30
0.0
  3
*U3
  1

  0
TEXT
  5
12994
  8
MSM_PART_NUMBER
 10
0.0
 20
-3.0
 30
0.0
 40
3.0
  1
GEAKB1.5-21-15-A-8N
  0
ENDBLK
  5
12996
  8
0
  0
BLOCK
  8
0
  2
*U4
 70
     1
 10
0.0
 20
0.0
 30
0.0
  3
*U4
  1

  0
TEXT
  5
12998
  8
MSM_PART_NUMBER
 10
0.0
 20
-8.0000000000000036
 30
0.0
 40
3.0
  1
GEAKB1.5-21-15-B-8N
  0
ENDBLK
  5
1299A
  8
0
  0
BLOCK
  8
0
  2
*U5
 70
     1
 10
0.0
 20
0.0
 30
0.0
  3
*U5
  1

  0
TEXT
  5
1299C
  8
MSM_PART_NUMBER
 10
0.0
 20
-13.0
 30
0.0
 40
3.0
  1
GEAKB1.5-21-15
  0
ENDBLK
  5
1299E
  8
0
  0
BLOCK
  8
0
  2
*U6
 70
     1
 10
0.0
 20
0.0
 30
0.0
  3
*U6
  1

  0
TEXT
  5
129A2
  8
MSM_PART_NUMBER
 10
49.500000000000021
 20
52.499999999993811
 30
0.0
 40
3.0
  1
A
  0
ENDBLK
  5
129A4
  8
0
  0
BLOCK
  8
0
  2
*U7
 70
     1
 10
0.0
 20
0.0
 30
0.0
  3
*U7
  1

  0
TEXT
  5
129A6
  8
MSM_PART_NUMBER
 10
79.500000000000014
 20
52.499999999993811
 30
0.0
 40
3.0
  1
B
  0
ENDBLK
  5
129A8
  8
0
  0
ENDSEC
  0
SECTION
  2
ENTITIES
  0
INSERT
  5
10CDF
  8
MSM_CONTINUOUS
  2
*U3
 10
0.0
 20
0.0
 30
0.0
  0
INSERT
  5
10CE0
  8
MSM_CONTINUOUS
  2
*U4
 10
0.0
 20
0.0
 30
0.0
  0
INSERT
  5
10CE1
  8
MSM_CONTINUOUS
  2
*U5
 10
0.0
 20
0.0
 30
0.0
  0
INSERT
  5
1138F
  8
MSM_CONTINUOUS
  2
*U6
 10
0.0
 20
0.0
 30
0.0
  0
INSERT
  5
116E8
  8
MSM_CONTINUOUS
  2
*U7
 10
0.0
 20
0.0
 30
0.0
  0
LINE
  5
125BA
  8
MSM_CENTER
 10
-1.0
 20
27.250000000000011
 30
0.0
 11
35.500000000000028
 21
27.250000000000011
 31
0.0
  0
LINE
  5
125BB
  8
MSM_CENTER
 10
17.250000000000011
 20
9.0
 30
0.0
 11
17.250000000000011
 21
45.500000000000028
 31
0.0
  0
ARC
  5
125BD
  8
MSM_CONTINUOUS
 10
17.24999999997512
 20
27.250000000001911
 30
0.0
 40
13.875000000024951
 50
355.14802020495949
 51
356.28055039691083
  0
ARC
  5
125BE
  8
MSM_CONTINUOUS
 10
17.250000000000028
 20
27.250000000009781
 30
0.0
 40
17.249999999990251
 50
88.733044256312425
 51
91.266955722256114
  0
ARC
  5
125BF
  8
MSM_CONTINUOUS
 10
16.871906229184191
 20
44.345819521171599
 30
0.0
 40
0.1499999999999633
 50
91.26695572224925
 51
146.5418410786769
  0
ARC
  5
125C0
  8
MSM_CONTINUOUS
 10
21.126778393731101
 20
41.534047328520622
 30
0.0
 40
5.2500000000001084
 50
146.54184107866411
 51
164.28571400000001
  0
ARC
  5
125C1
  8
MSM_CONTINUOUS
 10
17.250000000000039
 20
42.624803663045142
 30
0.0
 40
1.2226981618701021
 50
164.28571400000189
 51
181.7124469863345
  0
ARC
  5
125C2
  8
MSM_CONTINUOUS
 10
11.363185242975019
 20
42.451505885516397
 30
0.0
 40
4.6666669999998778
 50
349.42168923098677
 51
1.679326850054401
  0
ARC
  5
125C3
  8
MSM_CONTINUOUS
 10
15.21328812908423
 20
41.73248700171591
 30
0.0
 40
0.7499999999999943
 50
278.00517524395582
 51
349.42169687429413
  0
ARC
  5
125C4
  8
MSM_CONTINUOUS
 10
17.25000000000664
 20
27.24999999995628
 30
0.0
 40
13.87500000004423
 50
98.005163275012194
 51
99.137693254053104
  0
ARC
  5
125C5
  8
MSM_CONTINUOUS
 10
14.92743849497452
 20
41.689402101727552
 30
0.0
 40
0.7500000000000014
 50
207.72117566230591
 51
279.13769325405468
  0
ARC
  5
125C6
  8
MSM_CONTINUOUS
 10
18.394557575920121
 20
43.511314741629128
 30
0.0
 40
4.666667000000146
 50
195.46353029270301
 51
207.72117038586401
  0
ARC
  5
125C7
  8
MSM_CONTINUOUS
 10
12.718197064765819
 20
41.941744274707119
 30
0.0
 40
1.222698161869977
 50
15.43041015690393
 51
32.857143142857289
  0
ARC
  5
125C8
  8
MSM_CONTINUOUS
 10
9.33515913127966
 20
39.756746692099902
 30
0.0
 40
5.2500000000000249
 50
32.857143142857232
 51
50.601016064193367
  0
ARC
  5
125C9
  8
MSM_CONTINUOUS
 10
12.57221486076846
 20
43.69774532241987
 30
0.0
 40
0.1500000000000076
 50
50.601016064193651
 51
105.8759014205995
  0
ARC
  5
125CA
  8
MSM_CONTINUOUS
 10
17.250000000003169
 20
27.249999999989871
 30
0.0
 40
17.25000000001063
 50
105.8759014206027
 51
108.4098128651118
  0
ARC
  5
125CB
  8
MSM_CONTINUOUS
 10
11.849622609911011
 20
43.474855131698931
 30
0.0
 40
0.1499999999999753
 50
108.4098128651051
 51
163.6846982215321
  0
ARC
  5
125CC
  8
MSM_CONTINUOUS
 10
16.744247145496949
 20
42.042147675293123
 30
0.0
 40
5.2500000000000391
 50
163.6846982215211
 51
181.42857114285761
  0
ARC
  5
125CD
  8
MSM_CONTINUOUS
 10
12.71819706476575
 20
41.941744274707077
 30
0.0
 40
1.2226981618700741
 50
181.42857114286011
 51
198.8553041292746
  0
ARC
  5
125CE
  8
MSM_CONTINUOUS
 10
7.143997386892301
 20
40.040976520765803
 30
0.0
 40
4.6666670000001984
 50
6.5645463738444283
 51
18.822183992889212
  0
ARC
  5
125CF
  8
MSM_CONTINUOUS
 10
11.03498554083664
 20
40.488739376254458
 30
0.0
 40
0.7500000000000001
 50
295.1480330520597
 51
6.5645540171511101
  0
ARC
  5
125D0
  8
MSM_CONTINUOUS
 10
17.249999999993349
 20
27.250000000013589
 30
0.0
 40
13.87499999998489
 50
115.1480203819071
 51
116.2805503969121
  0
ARC
  5
125D1
  8
MSM_CONTINUOUS
 10
10.774534901148041
 20
40.363312958728272
 30
0.0
 40
0.7500000000000096
 50
224.8640319777451
 51
296.28055039691139
  0
ARC
  5
125D2
  8
MSM_CONTINUOUS
 10
13.550601431386291
 20
43.126234421343732
 30
0.0
 40
4.6666670000001593
 50
212.60638743563791
 51
224.86402739574291
  0
ARC
  5
125D3
  8
MSM_CONTINUOUS
 10
8.5890647078167817
 20
39.953258933903612
 30
0.0
 40
1.2226981618698891
 50
32.573267299463282
 51
50.000000285714798
  0
ARC
  5
125D4
  8
MSM_CONTINUOUS
 10
6.0003650011830914
 20
36.868166727132049
 30
0.0
 40
5.2500000000002158
 50
50.000000285714727
 51
67.743873207050143
  0
ARC
  5
125D5
  8
MSM_CONTINUOUS
 10
7.9319776884638102
 20
41.58821677202971
 30
0.0
 40
0.1500000000000046
 50
67.743873207050655
 51
123.01875856346101
  0
ARC
  5
125D6
  8
MSM_CONTINUOUS
 10
17.250000000014829
 20
27.249999999978382
 30
0.0
 40
17.250000000026219
 50
123.01875856346111
 51
125.5526700079679
  0
ARC
  5
125D7
  8
MSM_CONTINUOUS
 10
7.3071862209130742
 20
41.162241162170808
 30
0.0
 40
0.1499999999999874
 50
125.5526700079669
 51
180.8275553643883
  0
ARC
  5
125D8
  8
MSM_CONTINUOUS
 10
12.40665425784529
 20
41.235900786844923
 30
0.0
 40
5.2500000000000391
 50
180.82755536437821
 51
198.5714282857144
  0
ARC
  5
125D9
  8
MSM_CONTINUOUS
 10
8.5890647078168953
 20
39.953258933903612
 30
0.0
 40
1.2226981618703461
 50
198.5714282857179
 51
215.998161272223
  0
ARC
  5
125DA
  8
MSM_CONTINUOUS
 10
3.8227722124467931
 20
36.49391275986936
 30
0.0
 40
4.6666669999998698
 50
23.70740351670128
 51
35.965041135722629
  0
ARC
  5
125DB
  8
MSM_CONTINUOUS
 10
7.408914261427455
 20
38.06867165996195
 30
0.0
 40
0.7500000000000049
 50
312.29089087634208
 51
23.70741116000816
  0
ARC
  5
125DC
  8
MSM_CONTINUOUS
 10
17.24999999997787
 20
27.250000000023661
 30
0.0
 40
13.874999999967621
 50
132.29087748792941
 51
133.42340753976981
  0
ARC
  5
125DD
  8
MSM_CONTINUOUS
 10
7.1970047984650911
 20
37.872048412519881
 30
0.0
 40
0.7499999999999865
 50
242.0068899480209
 51
313.42340753976998
  0
ARC
  5
125DE
  8
MSM_CONTINUOUS
 10
9.035353084216851
 20
41.330481001014519
 30
0.0
 40
4.6666669999998813
 50
229.7492445784944
 51
242.00688467157829
  0
ARC
  5
125DF
  8
MSM_CONTINUOUS
 10
5.2294944594664718
 20
36.836033289488803
 30
0.0
 40
1.2226981618702411
 50
49.716124442323647
 51
67.142857428570167
  0
ARC
  5
125E0
  8
MSM_CONTINUOUS
 10
3.6651503089416191
 20
33.124970439829283
 30
0.0
 40
5.2500000000001181
 50
67.142857428571659
 51
84.886730349907367
  0
ARC
  5
125E1
  8
MSM_CONTINUOUS
 10
4.1196876900065291
 20
38.204674739216792
 30
0.0
 40
0.1499999999999909
 50
84.886730349903686
 51
140.16161570631851
  0
ARC
  5
125E2
  8
MSM_CONTINUOUS
 10
17.250000000013841
 20
27.24999999998909
 30
0.0
 40
17.250000000017629
 50
140.1616157063176
 51
142.69552715082571
  0
ARC
  5
125E3
  8
MSM_CONTINUOUS
 10
3.6482124695065989
 20
37.61346351251909
 30
0.0
 40
0.1499999999999911
 50
142.69552715082381
 51
197.97041250724439
  0
ARC
  5
125E4
  8
MSM_CONTINUOUS
 10
8.4994138940567439
 20
39.18694523737085
 30
0.0
 40
5.2499999999999751
 50
197.97041250723541
 51
215.71428542857171
  0
ARC
  5
125E5
  8
MSM_CONTINUOUS
 10
5.2294944594665891
 20
36.836033289488981
 30
0.0
 40
1.222698161870124
 50
215.71428542857279
 51
233.14101841519241
  0
ARC
  5
125E6
  8
MSM_CONTINUOUS
 10
1.6946151513434911
 20
32.125486784015301
 30
0.0
 40
4.6666670000001433
 50
40.85026065955865
 51
53.107898278550103
  0
ARC
  5
125E7
  8
MSM_CONTINUOUS
 10
4.6572666367838691
 20
34.687317489723227
 30
0.0
 40
0.7500000000000048
 50
329.43374801919992
 51
40.850268302865693
  0
ARC
  5
125E8
  8
MSM_CONTINUOUS
 10
17.24999999998559
 20
27.250000000008239
 30
0.0
 40
13.8749999999834
 50
149.43373463078751
 51
150.56626468262641
  0
ARC
  5
125E9
  8
MSM_CONTINUOUS
 10
4.5127274362813203
 20
34.436968250767443
 30
0.0
 40
0.749999999999989
 50
259.14974528579933
 51
330.56626468262618
  0
ARC
  5
125EA
  8
MSM_CONTINUOUS
 10
5.2500121648991671
 20
38.283615052572273
 30
0.0
 40
4.6666669999999213
 50
246.89210172135199
 51
259.14974152433382
  0
ARC
  5
125EB
  8
MSM_CONTINUOUS
 10
2.93799887951258
 20
32.86704651968919
 30
0.0
 40
1.222698161869997
 50
66.858981585178029
 51
84.285714571428514
  0
ARC
  5
125EC
  8
MSM_CONTINUOUS
 10
2.537009127881571
 20
28.859757247064589
 30
0.0
 40
5.2499999999999982
 50
84.285714571428599
 51
102.0295874927647
  0
ARC
  5
125ED
  8
MSM_CONTINUOUS
 10
1.4740835617186709
 20
33.847761782026183
 30
0.0
 40
0.1499999999999898
 50
102.0295874927606
 51
157.3044728491769
  0
ARC
  5
125EE
  8
MSM_CONTINUOUS
 10
17.250000000004519
 20
27.249999999998408
 30
0.0
 40
17.250000000004789
 50
157.30447284917409
 51
159.83838429368399
  0
ARC
  5
125EF
  8
MSM_CONTINUOUS
 10
1.197817230645899
 20
33.143846650469513
 30
0.0
 40
0.1500000000000119
 50
159.83838429368481
 51
215.1132696500944
  0
ARC
  5
125F0
  8
MSM_CONTINUOUS
 10
5.3697015070959706
 20
36.077339719135061
 30
0.0
 40
5.2500000000000293
 50
215.11326965009249
 51
232.8571425714286
  0
ARC
  5
125F1
  8
MSM_CONTINUOUS
 10
2.937998879512512
 20
32.867046519689069
 30
0.0
 40
1.222698161870003
 50
232.8571425714301
 51
250.28387555794009
  0
ARC
  5
125F2
  8
MSM_CONTINUOUS
 10
0.9486222977257696
 20
27.323852411680601
 30
0.0
 40
4.6666669999997534
 50
57.993117373733298
 51
70.250755421437091
  0
ARC
  5
125F3
  8
MSM_CONTINUOUS
 10
3.02453863376219
 20
30.645125022392381
 30
0.0
 40
0.7500000000000002
 50
346.57660516205732
 51
57.99312277836777
  0
ARC
  5
125F4
  8
MSM_CONTINUOUS
 10
17.250000000046171
 20
27.24999999998948
 30
0.0
 40
13.875000000047351
 50
166.57659177364769
 51
167.70912182548139
  0
ARC
  5
125F5
  8
MSM_CONTINUOUS
 10
2.9602126379839211
 20
30.363294420443641
 30
0.0
 40
0.7500000000000048
 50
276.29260297379329
 51
347.7091218254829
  0
ARC
  5
125F6
  8
MSM_CONTINUOUS
 10
2.5309228258094398
 20
34.256363986487102
 30
0.0
 40
4.6666670000002233
 50
264.03495886420922
 51
276.29259875480147
  0
ARC
  5
125F7
  8
MSM_CONTINUOUS
 10
1.9181874062963009
 20
28.398960516612259
 30
0.0
 40
1.2226981618700861
 50
84.001838728036162
 51
101.4285717142848
  0
ARC
  5
125F8
  8
MSM_CONTINUOUS
 10
2.71618175270617
 20
24.45151005859481
 30
0.0
 40
5.2499999999999618
 50
101.4285717142856
 51
119.1724446356219
  0
ARC
  5
125F9
  8
MSM_CONTINUOUS
 10
0.230238840441082
 20
28.904608736701871
 30
0.0
 40
0.1499999999999782
 50
119.172444635617
 51
174.44732999203529
  0
ARC
  5
125FA
  8
MSM_CONTINUOUS
 10
17.249999999994699
 20
27.250000000000359
 30
0.0
 40
17.249999999994682
 50
174.44732999202981
 51
176.9812414365411
  0
ARC
  5
125FB
  8
MSM_CONTINUOUS
 10
0.1737288746860699
 20
28.150535648805711
 30
0.0
 40
0.1499999999999866
 50
176.9812414365411
 51
232.25612679296151
  0
ARC
  5
125FC
  8
MSM_CONTINUOUS
 10
3.2956057770608811
 20
32.183386328711777
 30
0.0
 40
5.2500000000000071
 50
232.25612679294949
 51
249.99999971428571
  0
ARC
  5
125FD
  8
MSM_CONTINUOUS
 10
1.9181874062963009
 20
28.39896051661233
 30
0.0
 40
1.222698161870124
 50
249.99999971428761
 51
267.42673270090762
  0
ARC
  5
125FE
  8
MSM_CONTINUOUS
 10
1.6510783903725681
 20
22.515655928471659
 30
0.0
 40
4.6666669999999382
 50
75.135974516590537
 51
87.393612564264586
  0
ARC
  5
125FF
  8
MSM_CONTINUOUS
 10
2.6558053005397109
 20
26.301260797561209
 30
0.0
 40
0.7499999999999985
 50
3.719463498602197
 51
75.135979921225044
  0
ARC
  5
12600
  8
MSM_CONTINUOUS
 10
17.24999999998867
 20
27.249999999999162
 30
0.0
 40
13.87499999998863
 50
183.7194488519786
 51
184.8519789683408
  0
ARC
  5
12601
  8
MSM_CONTINUOUS
 10
2.6774081565006109
 20
26.012990718395869
 30
0.0
 40
0.7500000000000008
 50
293.435459571514
 51
4.851978968341645
  0
ARC
  5
12602
  8
MSM_CONTINUOUS
 10
1.1196880872528601
 20
29.606566733279859
 30
0.0
 40
4.666666999999709
 50
281.17781600706593
 51
293.43545581004832
  0
ARC
  5
12603
  8
MSM_CONTINUOUS
 10
2.2606747645819598
 20
23.82878432950427
 30
0.0
 40
1.2226981618700401
 50
101.14469587089241
 51
118.571428857142
  0
ARC
  5
12604
  8
MSM_CONTINUOUS
 10
4.1867479094137003
 20
20.291920982389641
 30
0.0
 40
5.2499999999999973
 50
118.57142885714281
 51
136.3153017784789
  0
ARC
  5
12605
  8
MSM_CONTINUOUS
 10
0.4986745881820021
 20
23.814436443990719
 30
0.0
 40
0.1500000000000275
 50
136.3153017784802
 51
191.5901871348814
  0
ARC
  5
12606
  8
MSM_CONTINUOUS
 10
17.250000000002419
 20
27.2500000000006
 30
0.0
 40
17.25000000000248
 50
191.5901871348878
 51
194.12409857939801
  0
ARC
  5
12607
  8
MSM_CONTINUOUS
 10
0.6669421461919712
 20
23.077208102809941
 30
0.0
 40
0.1500000000000071
 50
194.12409857939809
 51
249.39898393581211
  0
ARC
  5
12608
  8
MSM_CONTINUOUS
 10
2.4614192115843418
 20
27.851079913173251
 30
0.0
 40
5.2500000000000799
 50
249.39898393580711
 51
267.14285685714287
  0
ARC
  5
12609
  8
MSM_CONTINUOUS
 10
2.2606747645819989
 20
23.828784329504181
 30
0.0
 40
1.222698161869997
 50
267.14285685714339
 51
284.5695898437649
  0
ARC
  5
1260A
  8
MSM_CONTINUOUS
 10
3.7395671227749001
 20
18.128126692344601
 30
0.0
 40
4.6666670000002624
 50
92.278832088130486
 51
104.5364697071216
  0
ARC
  5
1260B
  8
MSM_CONTINUOUS
 10
3.5838302119328089
 20
22.041696214340138
 30
0.0
 40
0.7500000000000111
 50
20.862320641459551
 51
92.278839731436676
  0
ARC
  5
1260C
  8
MSM_CONTINUOUS
 10
17.250000000009631
 20
27.250000000003819
 30
0.0
 40
13.87500000001034
 50
200.86230599483679
 51
201.99483611119729
  0
ARC
  5
1260D
  8
MSM_CONTINUOUS
 10
3.6894424110782
 20
21.77260071954446
 30
0.0
 40
0.7499999999999985
 50
310.57831671437151
 51
21.994836111197571
  0
ARC
  5
1260E
  8
MSM_CONTINUOUS
 10
1.14170234885162
 20
24.747378184198681
 30
0.0
 40
4.6666669999999852
 50
298.32067314992332
 51
310.57831295290492
  0
ARC
  5
1260F
  8
MSM_CONTINUOUS
 10
3.9350294496049889
 20
19.562598168477351
 30
0.0
 40
1.2226981618702111
 50
118.287553013752
 51
135.71428599999899
  0
ARC
  5
12610
  8
MSM_CONTINUOUS
 10
6.8180413415074588
 20
16.750587761925949
 30
0.0
 40
5.2500000000000959
 50
135.7142860000001
 51
153.45815892133589
  0
ARC
  5
12611
  8
MSM_CONTINUOUS
 10
2.25553911074363
 20
19.029529049953371
 30
0.0
 40
0.150000000000002
 50
153.4581589213324
 51
208.7330442777421
  0
ARC
  5
12612
  8
MSM_CONTINUOUS
 10
17.249999999999542
 20
27.249999999999719
 30
0.0
 40
17.249999999999449
 50
208.7330442777444
 51
211.2669557222552
  0
ARC
  5
12613
  8
MSM_CONTINUOUS
 10
2.633632881559421
 20
18.374651428875069
 30
0.0
 40
0.1499999999999763
 50
211.26695572224509
 51
266.54184107867439
  0
ARC
  5
12614
  8
MSM_CONTINUOUS
 10
2.9412629477763899
 20
23.465364909553301
 30
0.0
 40
5.2499999999999423
 50
266.54184107866388
 51
284.28571400000033
  0
ARC
  5
12615
  8
MSM_CONTINUOUS
 10
3.935029449604829
 20
19.562598168477582
 30
0.0
 40
1.2226981618702011
 50
284.28571400000288
 51
301.7124469866215
  0
ARC
  5
12616
  8
MSM_CONTINUOUS
 10
7.0285171058767899
 20
14.551115930284761
 30
0.0
 40
4.6666670000002171
 50
109.4216892309872
 51
121.67932684997849
  0
ARC
  5
12617
  8
MSM_CONTINUOUS
 10
5.7261542819940132
 20
18.244912278739669
 30
0.0
 40
0.7499999999999915
 50
38.005149993287752
 51
109.4216968742947
  0
ARC
  5
12618
  8
MSM_CONTINUOUS
 10
17.24999999997457
 20
27.24999999997981
 30
0.0
 40
13.874999999967519
 50
218.00516463990999
 51
219.13769325405619
  0
ARC
  5
12619
  8
MSM_CONTINUOUS
 10
5.9063917169582894
 20
18.018901683932349
 30
0.0
 40
0.7500000000000062
 50
327.72117440236531
 51
39.13769325405508
  0
ARC
  5
1261A
  8
MSM_CONTINUOUS
 10
2.5950095468550378
 20
20.110558566026011
 30
0.0
 40
4.6666669999998049
 50
315.46353029278038
 51
327.72117018337349
  0
ARC
  5
1261B
  8
MSM_CONTINUOUS
 10
6.7924776998161391
 20
15.979471395788799
 30
0.0
 40
1.2226981618699291
 50
135.430410156606
 51
152.8571431428573
  0
ARC
  5
1261C
  8
MSM_CONTINUOUS
 10
10.37626008030472
 20
14.14217339472696
 30
0.0
 40
5.2500000000000568
 50
152.8571431428573
 51
170.6010160641932
  0
ARC
  5
1261D
  8
MSM_CONTINUOUS
 10
5.3447272854235086
 20
14.975046574770239
 30
0.0
 40
0.1500000000000043
 50
170.60101606418971
 51
225.8759014206004
  0
ARC
  5
1261E
  8
MSM_CONTINUOUS
 10
17.250000000007351
 20
27.250000000007919
 30
0.0
 40
17.250000000010779
 50
225.8759014206025
 51
228.4098128651116
  0
ARC
  5
1261F
  8
MSM_CONTINUOUS
 10
5.8990519782709612
 20
14.460708424310409
 30
0.0
 40
0.1500000000000007
 50
228.40981286510541
 51
283.68469822152781
  0
ARC
  5
12620
  8
MSM_CONTINUOUS
 10
4.6925007639167333
 20
19.41593134231745
 30
0.0
 40
5.2500000000001847
 50
283.6846982215215
 51
301.42857114285692
  0
ARC
  5
12621
  8
MSM_CONTINUOUS
 10
6.7924776998162519
 20
15.9794713957887
 30
0.0
 40
1.2226981618700581
 50
301.42857114285891
 51
318.85530412952608
  0
ARC
  5
12622
  8
MSM_CONTINUOUS
 10
11.22569070036012
 20
12.10245674595428
 30
0.0
 40
4.6666669999997579
 50
126.5645463738441
 51
138.82218399282439
  0
ARC
  5
12623
  8
MSM_CONTINUOUS
 10
8.8924226156639872
 20
15.248269905349749
 30
0.0
 40
0.749999999999988
 50
55.148006542639422
 51
126.56455401715159
  0
ARC
  5
12624
  8
MSM_CONTINUOUS
 10
17.250000000032699
 20
27.250000000048072
 30
0.0
 40
13.87500000005811
 50
235.1480218148524
 51
236.2805503969098
  0
ARC
  5
12625
  8
MSM_CONTINUOUS
 10
9.1312703993916582
 20
15.085426243710581
 30
0.0
 40
0.7499999999999988
 50
344.8640324334562
 51
56.280550396912872
  0
ARC
  5
12626
  8
MSM_CONTINUOUS
 10
5.35047695898617
 20
16.108109650184929
 30
0.0
 40
4.6666670000002721
 50
332.60638743563823
 51
344.86402746898221
  0
ARC
  5
12627
  8
MSM_CONTINUOUS
 10
10.57912269847985
 20
13.39778054948423
 30
0.0
 40
1.222698161870265
 50
152.5732672994653
 51
170.0000002857121
  0
ARC
  5
12628
  8
MSM_CONTINUOUS
 10
14.545240775877661
 20
12.698446944156039
 30
0.0
 40
5.2499999999999787
 50
170.00000028571429
 51
187.7438732070504
  0
ARC
  5
12629
  8
MSM_CONTINUOUS
 10
9.4917511862223023
 20
12.01124757916463
 30
0.0
 40
0.1500000000000106
 50
187.74387320704821
 51
243.0187585634558
  0
ARC
  5
1262A
  8
MSM_CONTINUOUS
 10
17.250000000004491
 20
27.25000000000913
 30
0.0
 40
17.25000000001015
 50
243.01875856345939
 51
245.55267000796849
  0
ARC
  5
1262B
  8
MSM_CONTINUOUS
 10
10.173052619528031
 20
11.683150101127371
 30
0.0
 40
0.1499999999999834
 50
245.55267000796701
 51
300.82755536439061
  0
ARC
  5
1262C
  8
MSM_CONTINUOUS
 10
7.5595274948610403
 20
16.062589154560229
 30
0.0
 40
5.2499999999998437
 50
300.82755536437787
 51
318.57142828571477
  0
ARC
  5
1262D
  8
MSM_CONTINUOUS
 10
10.57912269847955
 20
13.39778054948437
 30
0.0
 40
1.2226981618702091
 50
318.57142828571722
 51
335.99816127238199
  0
ARC
  5
1262E
  8
MSM_CONTINUOUS
 10
15.95815061336244
 20
10.999723253644079
 30
0.0
 40
4.6666669999996282
 50
143.70740351670099
 51
155.96504113568179
  0
ARC
  5
1262F
  8
MSM_CONTINUOUS
 10
12.80129837655649
 20
13.31803391959448
 30
0.0
 40
0.7500000000000108
 50
72.290892663535743
 51
143.7074111600075
  0
ARC
  5
12630
  8
MSM_CONTINUOUS
 10
17.249999999993651
 20
27.249999999979231
 30
0.0
 40
13.87499999997825
 50
252.29087739132521
 51
253.4234065552379
  0
ARC
  5
12631
  8
MSM_CONTINUOUS
 10
13.0775338352971
 20
13.232826565087819
 30
0.0
 40
0.7499999999999906
 50
2.0068777460752032
 51
73.423425753605557
  0
ARC
  5
12632
  8
MSM_CONTINUOUS
 10
9.1632692135089044
 20
13.095666587305059
 30
0.0
 40
4.6666669999998751
 50
349.74924457849471
 51
2.0068827105521532
  0
ARC
  5
12633
  8
MSM_CONTINUOUS
 10
14.958504420046079
 20
12.046920190821981
 30
0.0
 40
1.22269816187013
 50
169.7161244423219
 51
187.14285742857069
  0
ARC
  5
12634
  8
MSM_CONTINUOUS
 10
18.954551198154341
 20
12.54768984103562
 30
0.0
 40
5.2500000000000293
 50
187.14285742857149
 51
204.88673034990731
  0
ARC
  5
12635
  8
MSM_CONTINUOUS
 10
14.32812954063936
 20
10.401478610313751
 30
0.0
 40
0.1499999999999947
 50
204.88673034989961
 51
260.16161570631419
  0
ARC
  5
12636
  8
MSM_CONTINUOUS
 10
17.250000000000789
 20
27.250000000004931
 30
0.0
 40
17.25000000000497
 50
260.16161570631618
 51
262.69552715082619
  0
ARC
  5
12637
  8
MSM_CONTINUOUS
 10
15.0758710922121
 20
10.28877470545477
 30
0.0
 40
0.1499999999999877
 50
262.69552715081528
 51
317.97041250724499
  0
ARC
  5
12638
  8
MSM_CONTINUOUS
 10
11.28759523382478
 20
13.70329751556463
 30
0.0
 40
5.2500000000000444
 50
317.97041250723572
 51
335.7142854285716
  0
ARC
  5
12639
  8
MSM_CONTINUOUS
 10
14.95850442004601
 20
12.046920190821981
 30
0.0
 40
1.2226981618700781
 50
335.71428542857348
 51
353.14101841537951
  0
ARC
  5
1263A
  8
MSM_CONTINUOUS
 10
20.805397013555829
 20
11.34089816341225
 30
0.0
 40
4.6666670000002188
 50
160.8502606595587
 51
173.10789827850141
  0
ARC
  5
1263B
  8
MSM_CONTINUOUS
 10
17.105460799497461
 20
12.62571425950939
 30
0.0
 40
0.7499999999999939
 50
89.433750072268495
 51
160.850268302866
  0
ARC
  5
1263C
  8
MSM_CONTINUOUS
 10
17.250000000000071
 20
27.250000000050051
 30
0.0
 40
13.87500000005004
 50
269.43373451981381
 51
270.5662636980922
  0
ARC
  5
1263D
  8
MSM_CONTINUOUS
 10
17.39453920050256
 20
12.625714259509429
 30
0.0
 40
0.7499999999999809
 50
19.149747490429132
 51
90.566282896464088
  0
ARC
  5
1263E
  8
MSM_CONTINUOUS
 10
13.69460298644476
 20
11.34089816341241
 30
0.0
 40
4.6666669999996397
 50
6.8921017213514499
 51
19.149741878650008
  0
ARC
  5
1263F
  8
MSM_CONTINUOUS
 10
19.541495579954049
 20
12.046920190822
 30
0.0
 40
1.222698161870114
 50
186.85898158517909
 51
204.2857145714278
  0
ARC
  5
12640
  8
MSM_CONTINUOUS
 10
23.212404766175041
 20
13.7032975155645
 30
0.0
 40
5.2499999999998108
 50
204.28571457142829
 51
222.0295874927649
  0
ARC
  5
12641
  8
MSM_CONTINUOUS
 10
19.424128907787939
 20
10.288774705454809
 30
0.0
 40
0.1500000000000251
 50
222.02958749276479
 51
277.3044728491692
  0
ARC
  5
12642
  8
MSM_CONTINUOUS
 10
17.250000000000341
 20
27.249999999998149
 30
0.0
 40
17.24999999999811
 50
277.30447284917301
 51
279.8383842936837
  0
ARC
  5
12643
  8
MSM_CONTINUOUS
 10
20.171870459360669
 20
10.401478610313751
 30
0.0
 40
0.1500000000000002
 50
279.83838429367989
 51
335.1132696501013
  0
ARC
  5
12644
  8
MSM_CONTINUOUS
 10
15.545448801845639
 20
12.54768984103562
 30
0.0
 40
5.2500000000000808
 50
335.11326965009278
 51
352.8571425714286
  0
ARC
  5
12645
  8
MSM_CONTINUOUS
 10
19.541495579954042
 20
12.04692019082197
 30
0.0
 40
1.2226981618700341
 50
352.85714257143093
 51
10.283875558237529
  0
ARC
  5
12646
  8
MSM_CONTINUOUS
 10
25.33673078649133
 20
13.09566658730505
 30
0.0
 40
4.6666670000000821
 50
177.9931173737337
 51
190.25075542135849
  0
ARC
  5
12647
  8
MSM_CONTINUOUS
 10
21.422466164702929
 20
13.2328265650878
 30
0.0
 40
0.7500000000000006
 50
106.5766072151264
 51
177.99312277836799
  0
ARC
  5
12648
  8
MSM_CONTINUOUS
 10
17.250000000013578
 20
27.249999999956351
 30
0.0
 40
13.874999999954269
 50
286.57659166266671
 51
287.70912084095301
  0
ARC
  5
12649
  8
MSM_CONTINUOUS
 10
21.698701623443519
 20
13.3180339195945
 30
0.0
 40
0.7499999999999926
 50
36.292603862024492
 51
107.7091400393214
  0
ARC
  5
1264A
  8
MSM_CONTINUOUS
 10
18.541849386637281
 20
10.999723253643889
 30
0.0
 40
4.6666669999999773
 50
24.034958864209251
 51
36.292598897553987
  0
ARC
  5
1264B
  8
MSM_CONTINUOUS
 10
23.92087730152026
 20
13.39778054948424
 30
0.0
 40
1.2226981618699571
 50
204.0018387280347
 51
221.4285717142856
  0
ARC
  5
1264C
  8
MSM_CONTINUOUS
 10
26.940472505139041
 20
16.0625891545603
 30
0.0
 40
5.2499999999999272
 50
221.4285717142856
 51
239.1724446356219
  0
ARC
  5
1264D
  8
MSM_CONTINUOUS
 10
24.326947380471999
 20
11.683150101127371
 30
0.0
 40
0.1499999999999818
 50
239.17244463561181
 51
294.44732999203291
  0
ARC
  5
1264E
  8
MSM_CONTINUOUS
 10
17.249999999993388
 20
27.250000000013809
 30
0.0
 40
17.250000000015291
 50
294.44732999203143
 51
296.98124143653979
  0
ARC
  5
1264F
  8
MSM_CONTINUOUS
 10
25.008248813777751
 20
12.01124757916463
 30
0.0
 40
0.1499999999999936
 50
296.98124143653212
 51
352.25612679295767
  0
ARC
  5
12650
  8
MSM_CONTINUOUS
 10
19.95475922412227
 20
12.698446944156039
 30
0.0
 40
5.2500000000000782
 50
352.25612679294971
 51
9.9999997142856376
  0
ARC
  5
12651
  8
MSM_CONTINUOUS
 10
23.92087730152042
 20
13.39778054948429
 30
0.0
 40
1.222698161870017
 50
9.9999997142877195
 51
27.42673270120639
  0
ARC
  5
12652
  8
MSM_CONTINUOUS
 10
29.149523041013492
 20
16.108109650184758
 30
0.0
 40
4.666666999999884
 50
195.13597494527241
 51
207.39361256418661
  0
ARC
  5
12653
  8
MSM_CONTINUOUS
 10
25.368729600608351
 20
15.0854262437106
 30
0.0
 40
0.7500000000000023
 50
123.7194643579835
 51
195.13598258857959
  0
ARC
  5
12654
  8
MSM_CONTINUOUS
 10
17.249999999995261
 20
27.250000000007169
 30
0.0
 40
13.87500000000859
 50
303.7194488055261
 51
304.85197798380801
  0
ARC
  5
12655
  8
MSM_CONTINUOUS
 10
25.607577384336011
 20
15.248269905349741
 30
0.0
 40
0.7499999999999986
 50
53.435462378855682
 51
124.851997182177
  0
ARC
  5
12656
  8
MSM_CONTINUOUS
 10
23.274309299639839
 20
12.102456745954211
 30
0.0
 40
4.6666669999998458
 50
41.177816007066113
 51
53.435456261228431
  0
ARC
  5
12657
  8
MSM_CONTINUOUS
 10
27.707522300183712
 20
15.979471395788661
 30
0.0
 40
1.222698161869973
 50
221.14469587089201
 51
238.57142885714251
  0
ARC
  5
12658
  8
MSM_CONTINUOUS
 10
29.80749923608316
 20
19.41593134231714
 30
0.0
 40
5.2499999999998277
 50
238.57142885714271
 51
256.31530177847912
  0
ARC
  5
12659
  8
MSM_CONTINUOUS
 10
28.600948021729081
 20
14.4607084243104
 30
0.0
 40
0.1499999999999856
 50
256.31530177846798
 51
311.59018713488751
  0
ARC
  5
1265A
  8
MSM_CONTINUOUS
 10
17.24999999999832
 20
27.250000000001879
 30
0.0
 40
17.250000000002512
 50
311.59018713488763
 51
314.12409857939792
  0
ARC
  5
1265B
  8
MSM_CONTINUOUS
 10
29.155272714576508
 20
14.975046574770239
 30
0.0
 40
0.1500000000000034
 50
314.12409857939929
 51
9.3989839358143961
  0
ARC
  5
1265C
  8
MSM_CONTINUOUS
 10
24.123739919695609
 20
14.14217339472706
 30
0.0
 40
5.249999999999738
 50
9.3989839358063172
 51
27.14285685714351
  0
ARC
  5
1265D
  8
MSM_CONTINUOUS
 10
27.707522300183761
 20
15.97947139578868
 30
0.0
 40
1.222698161870112
 50
27.142856857146
 51
44.569589843951569
  0
ARC
  5
1265E
  8
MSM_CONTINUOUS
 10
31.904990453145249
 20
20.11055856602621
 30
0.0
 40
4.6666670000001478
 50
212.27883165944809
 51
224.5364697070728
  0
ARC
  5
1265F
  8
MSM_CONTINUOUS
 10
28.593608283041721
 20
18.01890168393237
 30
0.0
 40
0.7500000000000063
 50
140.86232150084001
 51
212.27883706408161
  0
ARC
  5
12660
  8
MSM_CONTINUOUS
 10
17.249999999973539
 20
27.250000000021281
 30
0.0
 40
13.875000000033941
 50
320.86230594838412
 51
321.99483512666399
  0
ARC
  5
12661
  8
MSM_CONTINUOUS
 10
28.773845718006001
 20
18.244912278739669
 30
0.0
 40
0.75
 50
70.578318919001816
 51
141.99485432503491
  0
ARC
  5
12662
  8
MSM_CONTINUOUS
 10
27.471482894123358
 20
14.5511159302851
 30
0.0
 40
4.6666669999998573
 50
58.320673149923309
 51
70.57831330722118
  0
ARC
  5
12663
  8
MSM_CONTINUOUS
 10
30.564970550395099
 20
19.562598168477429
 30
0.0
 40
1.2226981618700381
 50
238.28755301375011
 51
255.71428599999979
  0
ARC
  5
12664
  8
MSM_CONTINUOUS
 10
31.558737052223648
 20
23.4653649095535
 30
0.0
 40
5.2500000000001217
 50
255.71428600000019
 51
273.45815892133572
  0
ARC
  5
12665
  8
MSM_CONTINUOUS
 10
31.8663671184406
 20
18.374651428875101
 30
0.0
 40
0.1499999999999896
 50
273.4581589213239
 51
328.73304427774389
  0
ARC
  5
12666
  8
MSM_CONTINUOUS
 10
17.250000000001261
 20
27.249999999999321
 30
0.0
 40
17.249999999998561
 50
328.73304427774463
 51
331.26695572225532
  0
ARC
  5
12667
  8
MSM_CONTINUOUS
 10
32.244460889256388
 20
19.029529049953378
 30
0.0
 40
0.1500000000000073
 50
331.26695572225321
 51
26.54184107866962
  0
ARC
  5
12668
  8
MSM_CONTINUOUS
 10
27.681958658492789
 20
16.750587761926141
 30
0.0
 40
5.2499999999998161
 50
26.541841078663619
 51
44.285714000000532
  0
ARC
  5
12669
  8
MSM_CONTINUOUS
 10
30.56497055039501
 20
19.56259816847729
 30
0.0
 40
1.222698161870277
 50
44.285714000004148
 51
61.712446986807358
  0
ARC
  5
1266A
  8
MSM_CONTINUOUS
 10
33.358297651148497
 20
24.747378184198809
 30
0.0
 40
4.6666670000001478
 50
229.42168880230531
 51
241.67932684992999
  0
ARC
  5
1266B
  8
MSM_CONTINUOUS
 10
30.8105575889218
 20
21.772600719544471
 30
0.0
 40
0.75
 50
158.00517918276739
 51
229.4216942069387
  0
ARC
  5
1266C
  8
MSM_CONTINUOUS
 10
17.24999999993868
 20
27.25000000002396
 30
0.0
 40
13.875000000065841
 50
338.00516306210488
 51
339.13769325405258
  0
ARC
  5
1266D
  8
MSM_CONTINUOUS
 10
30.916169788067229
 20
22.041696214340149
 30
0.0
 40
0.7500000000000023
 50
87.721175662307473
 51
159.13769325405519
  0
ARC
  5
1266E
  8
MSM_CONTINUOUS
 10
30.760432877225171
 20
18.128126692344839
 30
0.0
 40
4.6666670000000261
 50
75.463530292780874
 51
87.721170385864227
  0
ARC
  5
1266F
  8
MSM_CONTINUOUS
 10
32.239325235418029
 20
23.828784329504131
 30
0.0
 40
1.2226981618699331
 50
255.4304101566058
 51
272.85714314285701
  0
ARC
  5
12670
  8
MSM_CONTINUOUS
 10
32.038580788415679
 20
27.851079913173141
 30
0.0
 40
5.249999999999968
 50
272.85714314285718
 51
290.60101606419317
  0
ARC
  5
12671
  8
MSM_CONTINUOUS
 10
33.83305785380805
 20
23.077208102809951
 30
0.0
 40
0.1500000000000155
 50
290.60101606418829
 51
345.875901420594
  0
ARC
  5
12672
  8
MSM_CONTINUOUS
 10
17.249999999986152
 20
27.25000000000324
 30
0.0
 40
17.250000000014229
 50
345.87590142060259
 51
348.40981286511118
  0
ARC
  5
12673
  8
MSM_CONTINUOUS
 10
34.00132541181803
 20
23.814436443990729
 30
0.0
 40
0.1500000000000201
 50
348.40981286511271
 51
43.684698221526098
  0
ARC
  5
12674
  8
MSM_CONTINUOUS
 10
30.313252090586339
 20
20.291920982389701
 30
0.0
 40
5.2499999999999512
 50
43.684698221520911
 51
61.428571142857322
  0
ARC
  5
12675
  8
MSM_CONTINUOUS
 10
32.239325235418072
 20
23.828784329504249
 30
0.0
 40
1.2226981618700741
 50
61.428571142860832
 51
78.855304129666806
  0
ARC
  5
12676
  8
MSM_CONTINUOUS
 10
33.380311912747231
 20
29.60656673328009
 30
0.0
 40
4.6666669999999524
 50
246.56454594516219
 51
258.82218399278747
  0
ARC
  5
12677
  8
MSM_CONTINUOUS
 10
31.822591843499389
 20
26.01299071839588
 30
0.0
 40
0.7500000000000068
 50
175.1480363256249
 51
246.5645513497962
  0
ARC
  5
12678
  8
MSM_CONTINUOUS
 10
31.844194699460338
 20
26.301260797561209
 30
0.0
 40
0.7500000000000082
 50
104.8640335356922
 51
176.28055039691191
  0
ARC
  5
12679
  8
MSM_CONTINUOUS
 10
32.848921609627432
 20
22.51565592847162
 30
0.0
 40
4.6666669999999701
 50
92.606387435637856
 51
104.8640276461274
  0
ARC
  5
1267A
  8
MSM_CONTINUOUS
 10
32.581812593703731
 20
28.398960516612242
 30
0.0
 40
1.222698161870015
 50
272.57326729946362
 51
290.00000028571401
  0
ARC
  5
1267B
  8
MSM_CONTINUOUS
 10
31.2043942229392
 20
32.183386328711663
 30
0.0
 40
5.2499999999998694
 50
290.00000028571412
 51
307.7438732070508
  0
ARC
  5
1267C
  8
MSM_CONTINUOUS
 10
34.326271125313951
 20
28.150535648805729
 30
0.0
 40
0.1499999999999883
 50
307.74387320703789
 51
3.0187585634562071
  0
ARC
  5
1267D
  8
MSM_CONTINUOUS
 10
17.249999999994539
 20
27.24999999999952
 30
0.0
 40
17.250000000005489
 50
3.0187585634597558
 51
5.5526700079696321
  0
ARC
  5
1267E
  8
MSM_CONTINUOUS
 10
34.269761159558911
 20
28.90460873670186
 30
0.0
 40
0.150000000000004
 50
5.5526700079774312
 51
60.82755536438497
  0
ARC
  5
1267F
  8
MSM_CONTINUOUS
 10
31.783818247293748
 20
24.451510058594561
 30
0.0
 40
5.2500000000002363
 50
60.827555364378668
 51
78.571428285714077
  0
ARC
  5
12680
  8
MSM_CONTINUOUS
 10
32.581812593703738
 20
28.398960516612391
 30
0.0
 40
1.2226981618699651
 50
78.571428285716721
 51
95.998161272524584
  0
ARC
  5
12681
  8
MSM_CONTINUOUS
 10
31.969077174190581
 20
34.256363986486747
 30
0.0
 40
4.666666999999868
 50
263.7074030880193
 51
275.96504113564481
  0
ARC
  5
12682
  8
MSM_CONTINUOUS
 10
31.539787362016071
 20
30.363294420443619
 30
0.0
 40
0.7499999999999981
 50
192.29086238034461
 51
263.70740849265371
  0
ARC
  5
12683
  8
MSM_CONTINUOUS
 10
17.249999999940499
 20
27.249999999986329
 30
0.0
 40
13.87500000006106
 50
12.290879028258599
 51
13.42340655523526
  0
ARC
  5
12684
  8
MSM_CONTINUOUS
 10
31.475461366237798
 20
30.645125022392381
 30
0.0
 40
0.7499999999999997
 50
122.00688994801899
 51
193.42342575360681
  0
ARC
  5
12685
  8
MSM_CONTINUOUS
 10
33.551377702274543
 20
27.323852411679962
 30
0.0
 40
4.6666670000004524
 50
109.74924457861221
 51
122.00688467157769
  0
ARC
  5
12686
  8
MSM_CONTINUOUS
 10
31.562001120487441
 20
32.867046519689112
 30
0.0
 40
1.2226981618700661
 50
289.7161244418765
 51
307.14285742857157
  0
ARC
  5
12687
  8
MSM_CONTINUOUS
 10
29.130298492904078
 20
36.07733971913504
 30
0.0
 40
5.2499999999999831
 50
307.14285742857152
 51
324.8867303499074
  0
ARC
  5
12688
  8
MSM_CONTINUOUS
 10
33.302182769354111
 20
33.143846650469527
 30
0.0
 40
0.150000000000017
 50
324.88673034990347
 51
20.161615706308829
  0
ARC
  5
12689
  8
MSM_CONTINUOUS
 10
17.249999999995531
 20
27.249999999998369
 30
0.0
 40
17.250000000004771
 50
20.16161570631613
 51
22.695527150826059
  0
ARC
  5
1268A
  8
MSM_CONTINUOUS
 10
33.025916438281342
 20
33.847761782026183
 30
0.0
 40
0.149999999999996
 50
22.695527150822599
 51
77.970412507243353
  0
ARC
  5
1268B
  8
MSM_CONTINUOUS
 10
31.962990872118429
 20
28.859757247064351
 30
0.0
 40
5.2500000000002469
 50
77.97041250723592
 51
95.714285428571358
  0
ARC
  5
1268C
  8
MSM_CONTINUOUS
 10
31.562001120487469
 20
32.86704651968914
 30
0.0
 40
1.2226981618700561
 50
95.714285428574385
 51
113.1410184154923
  0
ARC
  5
1268D
  8
MSM_CONTINUOUS
 10
29.249987835100828
 20
38.283615052572301
 30
0.0
 40
4.6666669999999577
 50
280.85025919594671
 51
293.10789827847242
  0
ARC
  5
1268E
  8
MSM_CONTINUOUS
 10
29.987272563718669
 20
34.436968250767443
 30
0.0
 40
0.7499999999999991
 50
209.43375163614289
 51
280.8502591959471
  0
ARC
  5
1268F
  8
MSM_CONTINUOUS
 10
17.249999999973209
 20
27.249999999984411
 30
0.0
 40
13.87500000003101
 50
29.433734435279948
 51
30.56626468262542
  0
ARC
  5
12690
  8
MSM_CONTINUOUS
 10
29.842733363216158
 20
34.687317489723242
 30
0.0
 40
0.7500000000000093
 50
139.14974626346009
 51
210.5662646826255
  0
ARC
  5
12691
  8
MSM_CONTINUOUS
 10
32.805384848656701
 20
32.125486784015081
 30
0.0
 40
4.6666670000004187
 50
126.8921017214695
 51
139.14974168145679
  0
ARC
  5
12692
  8
MSM_CONTINUOUS
 10
29.27050554053357
 20
36.836033289488817
 30
0.0
 40
1.2226981618699111
 50
306.85898158473202
 51
324.28571457142988
  0
ARC
  5
12693
  8
MSM_CONTINUOUS
 10
26.000586105943299
 20
39.186945237370843
 30
0.0
 40
5.2499999999999467
 50
324.2857145714284
 51
342.02958749276451
  0
ARC
  5
12694
  8
MSM_CONTINUOUS
 10
30.85178753049339
 20
37.613463512519111
 30
0.0
 40
0.1500000000000198
 50
342.02958749275638
 51
37.304472849161293
  0
ARC
  5
12695
  8
MSM_CONTINUOUS
 10
17.24999999999627
 20
27.24999999999703
 30
0.0
 40
17.250000000004789
 50
37.304472849173671
 51
39.838384293683568
  0
ARC
  5
12696
  8
MSM_CONTINUOUS
 10
30.380312309993499
 20
38.204674739216799
 30
0.0
 40
0.1499999999999914
 50
39.838384293681742
 51
95.113269650104456
  0
ARC
  5
12697
  8
MSM_CONTINUOUS
 10
30.834849691058292
 20
33.124970439829582
 30
0.0
 40
5.2499999999998082
 50
95.113269650091922
 51
112.85714257142889
  0
ARC
  5
12698
  8
MSM_CONTINUOUS
 10
29.270505540533492
 20
36.836033289488967
 30
0.0
 40
1.2226981618700761
 50
112.85714257143199
 51
130.2838755583962
  0
ARC
  5
12699
  8
MSM_CONTINUOUS
 10
25.464646915783032
 20
41.330481001014732
 30
0.0
 40
4.666667000000146
 50
297.99311737373381
 51
310.25075542131731
  0
ARC
  5
1269A
  8
MSM_CONTINUOUS
 10
27.302995201534898
 20
37.87204841251986
 30
0.0
 40
0.7499999999999958
 50
226.5765761414616
 51
297.99312277836862
  0
ARC
  5
1269B
  8
MSM_CONTINUOUS
 10
17.249999999971092
 20
27.249999999968921
 30
0.0
 40
13.87500000004246
 50
46.576593342328081
 51
47.709121825481432
  0
ARC
  5
1269C
  8
MSM_CONTINUOUS
 10
27.09108573857257
 20
38.068671659961979
 30
0.0
 40
0.7500000000000066
 50
156.2926038620293
 51
227.70912182548309
  0
ARC
  5
1269D
  8
MSM_CONTINUOUS
 10
30.677227787553289
 20
36.49391275986931
 30
0.0
 40
4.6666669999999684
 50
144.0349588643262
 51
156.29259889755389
  0
ARC
  5
1269E
  8
MSM_CONTINUOUS
 10
25.9109352921834
 20
39.95325893390347
 30
0.0
 40
1.2226981618700361
 50
324.00183872758942
 51
341.42857171428568
  0
ARC
  5
1269F
  8
MSM_CONTINUOUS
 10
22.09334574215482
 20
41.235900786844887
 30
0.0
 40
5.2499999999999281
 50
341.42857171428562
 51
359.17244463562258
  0
ARC
  5
126A0
  8
MSM_CONTINUOUS
 10
27.192813779086929
 20
41.162241162170822
 30
0.0
 40
0.1499999999999966
 50
359.17244463562258
 51
54.447329992026702
  0
ARC
  5
126A1
  8
MSM_CONTINUOUS
 10
17.249999999998629
 20
27.249999999998
 30
0.0
 40
17.250000000002441
 50
54.447329992030589
 51
56.981241436540827
  0
ARC
  5
126A2
  8
MSM_CONTINUOUS
 10
26.568022311536211
 20
41.588216772029689
 30
0.0
 40
0.1500000000000124
 50
56.981241436542199
 51
112.2561267929559
  0
ARC
  5
126A3
  8
MSM_CONTINUOUS
 10
28.499634998816781
 20
36.868166727132241
 30
0.0
 40
5.2499999999999867
 50
112.2561267929493
 51
129.99999971428579
  0
ARC
  5
126A4
  8
MSM_CONTINUOUS
 10
25.910935292183499
 20
39.953258933903442
 30
0.0
 40
1.2226981618701871
 50
129.99999971429111
 51
147.426732701254
  0
ARC
  5
126A5
  8
MSM_CONTINUOUS
 10
20.949398568613582
 20
43.126234421343867
 30
0.0
 40
4.6666670000003627
 50
315.13597451659109
 51
327.39361256417402
  0
ARC
  5
126A6
  8
MSM_CONTINUOUS
 10
23.725465098851959
 20
40.363312958728223
 30
0.0
 40
0.7499999999999952
 50
243.71943279533221
 51
315.13597992122533
  0
ARC
  5
126A7
  8
MSM_CONTINUOUS
 10
17.249999999985182
 20
27.249999999969209
 30
0.0
 40
13.87500000003419
 50
63.719450511616841
 51
64.851977983807359
  0
ARC
  5
126A8
  8
MSM_CONTINUOUS
 10
23.46501445916337
 20
40.488739376254443
 30
0.0
 40
0.7500000000000031
 50
173.43546100488291
 51
244.8519971821778
  0
ARC
  5
126A9
  8
MSM_CONTINUOUS
 10
27.3560026131073
 20
40.040976520765852
 30
0.0
 40
4.6666669999997881
 50
161.1778160071828
 51
173.4354560404112
  0
ARC
  5
126AA
  8
MSM_CONTINUOUS
 10
21.781802935234179
 20
41.941744274707062
 30
0.0
 40
1.222698161870164
 50
341.14469587044852
 51
358.57142885714228
  0
ARC
  5
126AB
  8
MSM_CONTINUOUS
 10
17.755752854503228
 20
42.042147675293137
 30
0.0
 40
5.2499999999998783
 50
358.57142885714262
 51
16.315301778479061
  0
ARC
  5
126AC
  8
MSM_CONTINUOUS
 10
22.650377390088991
 20
43.474855131698931
 30
0.0
 40
0.1499999999999811
 50
16.315301778461489
 51
71.590187134885625
  0
ARC
  5
126AD
  8
MSM_CONTINUOUS
 10
17.250000000000401
 20
27.250000000000611
 30
0.0
 40
17.249999999999311
 50
71.59018713488814
 51
74.124098579398861
  0
ARC
  5
126AE
  8
MSM_CONTINUOUS
 10
21.927785139231538
 20
43.697745322419891
 30
0.0
 40
0.1499999999999889
 50
74.124098579389738
 51
129.3989839358143
  0
ARC
  5
126AF
  8
MSM_CONTINUOUS
 10
25.164840868720251
 20
39.756746692099973
 30
0.0
 40
5.2499999999999094
 50
129.39898393580631
 51
147.1428568571431
  0
ARC
  5
126B0
  8
MSM_CONTINUOUS
 10
21.78180293523414
 20
41.941744274707169
 30
0.0
 40
1.2226981618699051
 50
147.1428568571452
 51
164.56958984411199
  0
ARC
  5
126B1
  8
MSM_CONTINUOUS
 10
16.105442424080319
 20
43.511314741628951
 30
0.0
 40
4.6666669999996984
 50
332.27883165944752
 51
344.5364697070321
  0
ARC
  5
126B2
  8
MSM_CONTINUOUS
 10
19.572561505025501
 20
41.689402101727509
 30
0.0
 40
0.7499999999999846
 50
260.86228993818838
 51
332.27883706408278
  0
ARC
  5
126B3
  8
MSM_CONTINUOUS
 10
17.24999999999385
 20
27.249999999958138
 30
0.0
 40
13.875000000042331
 50
80.862307654474918
 51
81.994836111196506
  0
ARC
  5
126B4
  8
MSM_CONTINUOUS
 10
19.286711870915791
 20
41.732487001715931
 30
0.0
 40
0.749999999999996
 50
190.57830554624459
 51
261.9948361111978
  0
ARC
  5
126B5
  8
MSM_CONTINUOUS
 10
23.13681475702505
 20
42.451505885516397
 30
0.0
 40
4.6666669999999302
 50
178.32067314992321
 51
190.5783111580277
  0
ARC
  5
126B6
  8
MSM_CONTINUOUS
 10
17.249999999999979
 20
42.624803663045107
 30
0.0
 40
1.2226981618700921
 50
358.28755301375207
 51
15.714286000000239
  0
ARC
  5
126B7
  8
MSM_CONTINUOUS
 10
13.37322160626897
 20
41.534047328520657
 30
0.0
 40
5.2500000000000417
 50
15.71428600000006
 51
33.45815892133615
  0
ARC
  5
126B8
  8
MSM_CONTINUOUS
 10
17.628093770815841
 20
44.345819521171627
 30
0.0
 40
0.1499999999999451
 50
33.458158921324546
 51
88.733041813122313
  0
LINE
  5
12705
  8
MSM_CENTER
 10
48.500000000000021
 20
27.250000000000011
 30
0.0
 11
65.500000000000028
 21
27.250000000000011
 31
0.0
  0
LINE
  5
1271C
  8
MSM_CONTINUOUS
 10
64.366025403787773
 20
44.500000000000007
 30
0.0
 11
64.500000000000014
 21
44.000000000000007
 31
0.0
  0
LINE
  5
1271D
  8
MSM_CONTINUOUS
 10
49.633974596212262
 20
44.499999999987622
 30
0.0
 11
64.366025403787773
 21
44.500000000000007
 31
0.0
  0
LINE
  5
12722
  8
MSM_CONTINUOUS
 10
49.500000000000021
 20
44.000000000000007
 30
0.0
 11
49.633974596212262
 21
44.499999999987622
 31
0.0
  0
LINE
  5
12723
  8
MSM_CONTINUOUS
 10
64.500000000000014
 20
44.000000000000007
 30
0.0
 11
64.500000000000014
 21
10.500000000000011
 31
0.0
  0
LINE
  5
12727
  8
MSM_CONTINUOUS
 10
49.500000000000021
 20
10.5
 30
0.0
 11
49.500000000000021
 21
44.000000000000007
 31
0.0
  0
LINE
  5
1277A
  8
MSM_CENTER
 10
107.5
 20
27.250000000000011
 30
0.0
 11
78.500000000000028
 21
27.250000000000011
 31
0.0
  0
LINE
  5
12790
  8
MSM_CONTINUOUS
 10
94.500000000000014
 20
14.750000000000011
 30
0.0
 11
94.500000000000014
 21
10.500000000000011
 31
0.0
  0
LINE
  5
12791
  8
MSM_CONTINUOUS
 10
106.2
 20
14.750000000000069
 30
0.0
 11
94.500000000000014
 21
14.750000000000011
 31
0.0
  0
LINE
  5
12792
  8
MSM_CONTINUOUS
 10
106.5
 20
15.05000000000002
 30
0.0
 11
106.2
 21
14.750000000000069
 31
0.0
  0
LINE
  5
12793
  8
MSM_CONTINUOUS
 10
106.5
 20
39.450000000000003
 30
0.0
 11
106.5
 21
15.05000000000002
 31
0.0
  0
LINE
  5
12797
  8
MSM_CONTINUOUS
 10
79.500000000000014
 20
10.500000000000011
 30
0.0
 11
79.500000000000014
 21
44.000000000006779
 31
0.0
  0
LINE
  5
12798
  8
MSM_CONTINUOUS
 10
79.633974596212255
 20
10.000000000012401
 30
0.0
 11
79.500000000000014
 21
10.500000000000011
 31
0.0
  0
LINE
  5
12799
  8
MSM_CONTINUOUS
 10
94.366025403787802
 20
10.000000000000011
 30
0.0
 11
79.633974596212255
 21
10.000000000012401
 31
0.0
  0
LINE
  5
1279A
  8
MSM_CONTINUOUS
 10
94.500000000000014
 20
10.500000000000011
 30
0.0
 11
94.366025403787802
 21
10.000000000000011
 31
0.0
  0
LINE
  5
1279B
  8
MSM_CONTINUOUS
 10
94.500000000000014
 20
39.750000000000007
 30
0.0
 11
106.2
 21
39.749999999999957
 31
0.0
  0
LINE
  5
127A3
  8
MSM_CONTINUOUS
 10
106.2
 20
39.749999999999957
 30
0.0
 11
106.5
 21
39.450000000000003
 31
0.0
  0
CIRCLE
  5
127A5
  8
MSM_CENTER
 10
17.250000000000011
 20
27.250000000000011
 30
0.0
 40
15.75
  0
LINE
  5
127AA
  8
MSM_CONTINUOUS
 10
94.499999999997655
 20
39.74999999999774
 30
0.0
 11
94.499999999996845
 21
43.999999999997733
 31
0.0
  0
LINE
  5
127AB
  8
MSM_CONTINUOUS
 10
79.633974596208972
 20
44.499999999982542
 30
0.0
 11
79.499999999996845
 21
43.999999999994891
 31
0.0
  0
LINE
  5
127AC
  8
MSM_CONTINUOUS
 10
94.366025403784505
 20
44.499999999997712
 30
0.0
 11
79.633974596208972
 21
44.499999999982542
 31
0.0
  0
LINE
  5
127AD
  8
MSM_CONTINUOUS
 10
94.499999999996845
 20
43.999999999997733
 30
0.0
 11
94.366025403784505
 21
44.499999999997712
 31
0.0
  0
LINE
  5
127AE
  8
MSM_CONTINUOUS
 10
94.499999999997385
 20
41.125
 30
0.0
 11
79.500000000000014
 21
41.125
 31
0.0
  0
LINE
  5
127B0
  8
MSM_CENTER
 10
95.499999999997044
 20
43.000000000000007
 30
0.0
 11
78.500000000000028
 21
43.000000000000007
 31
0.0
  0
LINE
  5
127B2
  8
MSM_CONTINUOUS
 10
64.500000000000014
 20
41.125
 30
0.0
 11
49.500000000000021
 21
41.125
 31
0.0
  0
LINE
  5
127B3
  8
MSM_CENTER
 10
65.500000000000028
 20
43.000000000000007
 30
0.0
 11
48.500000000000028
 21
43.000000000000007
 31
0.0
  0
LINE
  5
127B4
  8
MSM_CONTINUOUS
 10
64.366025403787773
 20
10.0
 30
0.0
 11
64.500000000000014
 21
10.5
 31
0.0
  0
LINE
  5
127B5
  8
MSM_CONTINUOUS
 10
49.633974596212262
 20
10.000000000012379
 30
0.0
 11
64.366025403787773
 21
10.0
 31
0.0
  0
LINE
  5
127B6
  8
MSM_CONTINUOUS
 10
49.500000000000021
 20
10.5
 30
0.0
 11
49.633974596212262
 21
10.000000000012379
 31
0.0
  0
LINE
  5
127B7
  8
MSM_CONTINUOUS
 10
64.500000000000014
 20
13.375000000000011
 30
0.0
 11
49.500000000000021
 21
13.375000000000011
 31
0.0
  0
LINE
  5
127B8
  8
MSM_CENTER
 10
65.500000000000028
 20
11.5
 30
0.0
 11
48.500000000000028
 21
11.5
 31
0.0
  0
LINE
  5
127B9
  8
MSM_CONTINUOUS
 10
94.499999999997385
 20
13.375000000000011
 30
0.0
 11
79.500000000000014
 21
13.375000000000011
 31
0.0
  0
LINE
  5
127BA
  8
MSM_CENTER
 10
95.499999999997044
 20
11.5
 30
0.0
 11
78.500000000000028
 21
11.5
 31
0.0
  0
LINE
  5
12881
  8
MSM_CONTINUOUS
 10
18.750000000000011
 20
32.450000002980246
 30
0.0
 11
18.750000000000011
 21
30.958099243547839
 31
0.0
  0
LINE
  5
12882
  8
MSM_CONTINUOUS
 10
15.750000000000011
 20
30.958099243547839
 30
0.0
 11
15.750000000000011
 21
32.450000000000017
 31
0.0
  0
ARC
  5
12883
  8
MSM_CONTINUOUS
 10
15.95000000000001
 20
32.450000000000017
 30
0.0
 40
0.200000000000002
 50
90.0
 51
180.0
  0
LINE
  5
12884
  8
MSM_CONTINUOUS
 10
15.95000000000001
 20
32.650000000000013
 30
0.0
 11
18.550000000000011
 21
32.650000000000013
 31
0.0
  0
ARC
  5
12885
  8
MSM_CONTINUOUS
 10
18.550000000000011
 20
32.450000000000017
 30
0.0
 40
0.1999999999999998
 50
0.000000853772832
 51
90.0
  0
ARC
  5
12886
  8
MSM_CONTINUOUS
 10
17.250000000000011
 20
27.250000000000011
 30
0.0
 40
3.999999999999996
 50
112.0243128370421
 51
67.975687162957854
  0
ARC
  5
12887
  8
MSM_CONTINUOUS
 10
17.250000000000011
 20
27.250000000000011
 30
0.0
 40
4.299999999999998
 50
110.4162101289144
 51
69.583789871085585
  0
LINE
  5
12888
  8
MSM_CONTINUOUS
 10
49.800000000000033
 20
31.25000000000697
 30
0.0
 11
49.800000000000033
 21
23.249999999993129
 31
0.0
  0
LINE
  5
12889
  8
MSM_CONTINUOUS
 10
64.200000000000031
 20
31.25000000000697
 30
0.0
 11
64.200000000000031
 21
23.249999999993129
 31
0.0
  0
LINE
  5
1288A
  8
MSM_CONTINUOUS
 10
64.500000000000014
 20
22.949999999993128
 30
0.0
 11
64.200000000000031
 21
23.249999999993129
 31
0.0
  0
LINE
  5
1288B
  8
MSM_CONTINUOUS
 10
64.200000000000031
 20
23.249999999993129
 30
0.0
 11
49.800000000000033
 21
23.249999999993129
 31
0.0
  0
LINE
  5
1288C
  8
MSM_CONTINUOUS
 10
49.800000000000033
 20
23.249999999993129
 30
0.0
 11
49.500000000000021
 21
22.949999999993121
 31
0.0
  0
LINE
  5
1288D
  8
MSM_CONTINUOUS
 10
64.500000000000014
 20
31.550000000006971
 30
0.0
 11
64.200000000000031
 21
31.25000000000697
 31
0.0
  0
LINE
  5
1288E
  8
MSM_CONTINUOUS
 10
64.200000000000031
 20
31.25000000000697
 30
0.0
 11
49.800000000000033
 21
31.25000000000697
 31
0.0
  0
LINE
  5
1288F
  8
MSM_CONTINUOUS
 10
49.800000000000033
 20
31.25000000000697
 30
0.0
 11
49.500000000000021
 21
31.550000000006971
 31
0.0
  0
LINE
  5
12890
  8
MSM_CONTINUOUS
 10
49.500000000000021
 20
32.649999999993128
 30
0.0
 11
64.500000000000014
 21
32.649999999993128
 31
0.0
  0
LINE
  5
12891
  8
MSM_CONTINUOUS
 10
79.800000000000011
 20
31.25000000000702
 30
0.0
 11
79.800000000000011
 21
23.249999999993179
 31
0.0
  0
LINE
  5
12892
  8
MSM_CONTINUOUS
 10
106.2
 20
31.250000000007059
 30
0.0
 11
106.2
 21
23.249999999993221
 31
0.0
  0
LINE
  5
12893
  8
MSM_CONTINUOUS
 10
106.5
 20
22.949999999993221
 30
0.0
 11
106.2
 21
23.249999999993221
 31
0.0
  0
LINE
  5
12894
  8
MSM_CONTINUOUS
 10
106.2
 20
23.249999999993179
 30
0.0
 11
79.800000000000011
 21
23.249999999993179
 31
0.0
  0
LINE
  5
12895
  8
MSM_CONTINUOUS
 10
79.800000000000011
 20
23.249999999993179
 30
0.0
 11
79.500000000000014
 21
22.949999999993171
 31
0.0
  0
LINE
  5
12896
  8
MSM_CONTINUOUS
 10
106.5
 20
31.550000000007049
 30
0.0
 11
106.2
 21
31.250000000007059
 31
0.0
  0
LINE
  5
12897
  8
MSM_CONTINUOUS
 10
106.2
 20
31.25000000000702
 30
0.0
 11
79.800000000000011
 21
31.25000000000702
 31
0.0
  0
LINE
  5
12898
  8
MSM_CONTINUOUS
 10
79.800000000000011
 20
31.25000000000702
 30
0.0
 11
79.500000000000014
 21
31.550000000007021
 31
0.0
  0
LINE
  5
12899
  8
MSM_CONTINUOUS
 10
79.500000000000014
 20
32.64999999999317
 30
0.0
 11
106.4999999999999
 21
32.64999999999317
 31
0.0
  0
LINE
  5
1289A
  8
MSM_NARROW
 10
103.4999999999999
 20
39.749999999999957
 30
0.0
 11
103.5
 21
32.649999999993177
 31
0.0
  0
LINE
  5
1289B
  8
MSM_CONTINUOUS
 10
103.121
 20
39.749999999999957
 30
0.0
 11
103.1209999999999
 21
32.649999999993177
 31
0.0
  0
LINE
  5
1289C
  8
MSM_CONTINUOUS
 10
99.878999999999976
 20
39.749999999999993
 30
0.0
 11
99.878999999999976
 21
32.649999999993177
 31
0.0
  0
LINE
  5
1289D
  8
MSM_NARROW
 10
99.499999999999986
 20
39.749999999999993
 30
0.0
 11
99.499999999999986
 21
32.649999999993177
 31
0.0
  0
LINE
  5
1289E
  8
MSM_CENTER
 10
101.5
 20
40.749999999999979
 30
0.0
 11
101.5
 21
31.64999999999317
 31
0.0
  0
ENDSEC
  0
EOF
