  0
SECTION
  2
HEADER
  9
$ACADVER
  1
AC1009
  9
$INSBASE
 10
0.0
 20
0.0
 30
0.0
  9
$EXTMIN
 10
-1.0000000000000071
 20
-13.0
 30
0.0
  9
$EXTMAX
 10
113.5
 20
61.499999999999979
 30
0.0
  9
$LIMMIN
 10
0.0
 20
0.0
  9
$LIMMAX
 10
420.0
 20
297.0
  9
$ORTHOMODE
 70
     1
  9
$REGENMODE
 70
     1
  9
$FILLMODE
 70
     1
  9
$QTEXTMODE
 70
     0
  9
$MIRRTEXT
 70
     0
  9
$DRAGMODE
 70
     2
  9
$LTSCALE
 40
0.5
  9
$OSMODE
 70
  3071
  9
$ATTMODE
 70
     1
  9
$TEXTSIZE
 40
3.0
  9
$TRACEWID
 40
1.0
  9
$TEXTSTYLE
  7
STANDARD
  9
$CLAYER
  8
MSM_CONTINUOUS
  9
$CELTYPE
  6
BYLAYER
  9
$CECOLOR
 62
   256
  9
$DIMSCALE
 40
1.0
  9
$DIMASZ
 40
1.0
  9
$DIMEXO
 40
0.3
  9
$DIMDLI
 40
1.5
  9
$DIMRND
 40
0.0
  9
$DIMDLE
 40
0.0
  9
$DIMEXE
 40
0.5
  9
$DIMTP
 40
0.0
  9
$DIMTM
 40
0.0
  9
$DIMTXT
 40
3.0
  9
$DIMCEN
 40
2.5
  9
$DIMTSZ
 40
0.0
  9
$DIMTOL
 70
     0
  9
$DIMLIM
 70
     0
  9
$DIMTIH
 70
     0
  9
$DIMTOH
 70
     0
  9
$DIMSE1
 70
     0
  9
$DIMSE2
 70
     0
  9
$DIMTAD
 70
     1
  9
$DIMZIN
 70
     8
  9
$DIMBLK
  1
OPEN30
  9
$DIMASO
 70
     1
  9
$DIMSHO
 70
     1
  9
$DIMPOST
  1

  9
$DIMAPOST
  1

  9
$DIMALT
 70
     0
  9
$DIMALTD
 70
     3
  9
$DIMALTF
 40
0.03937007874016
  9
$DIMLFAC
 40
1.0
  9
$DIMTOFL
 70
     1
  9
$DIMTVP
 40
0.0
  9
$DIMTIX
 70
     0
  9
$DIMSOXD
 70
     0
  9
$DIMSAH
 70
     0
  9
$DIMBLK1
  1

  9
$DIMBLK2
  1

  9
$DIMSTYLE
  2
MISUMI
  9
$DIMCLRD
 70
   256
  9
$DIMCLRE
 70
   256
  9
$DIMCLRT
 70
   256
  9
$DIMTFAC
 40
1.0
  9
$DIMGAP
 40
0.625
  9
$LUNITS
 70
     2
  9
$LUPREC
 70
     2
  9
$SKETCHINC
 40
1.0
  9
$FILLETRAD
 40
0.0
  9
$AUNITS
 70
     0
  9
$AUPREC
 70
     0
  9
$MENU
  1
.
  9
$ELEVATION
 40
0.0
  9
$PELEVATION
 40
0.0
  9
$THICKNESS
 40
0.0
  9
$LIMCHECK
 70
     0
  9
$BLIPMODE
 70
     0
  9
$CHAMFERA
 40
0.5
  9
$CHAMFERB
 40
0.5
  9
$SKPOLY
 70
     0
  9
$TDCREATE
 40
2455135.5720697111
  9
$TDUPDATE
 40
2457715.8120531128
  9
$TDINDWG
 40
0.9379168866000001
  9
$TDUSRTIMER
 40
2457639.3073227899
  9
$USRTIMER
 70
     1
  9
$ANGBASE
 50
0.0
  9
$ANGDIR
 70
     0
  9
$PDMODE
 70
    35
  9
$PDSIZE
 40
0.0
  9
$PLINEWID
 40
0.0
  9
$COORDS
 70
     0
  9
$SPLFRAME
 70
     0
  9
$SPLINETYPE
 70
     6
  9
$SPLINESEGS
 70
     8
  9
$ATTDIA
 70
     0
  9
$ATTREQ
 70
     1
  9
$HANDLING
 70
     1
  9
$HANDSEED
  5
13681
  9
$SURFTAB1
 70
     6
  9
$SURFTAB2
 70
     6
  9
$SURFTYPE
 70
     6
  9
$SURFU
 70
     6
  9
$SURFV
 70
     6
  9
$UCSNAME
  2

  9
$UCSORG
 10
0.0
 20
0.0
 30
0.0
  9
$UCSXDIR
 10
1.0
 20
0.0
 30
0.0
  9
$UCSYDIR
 10
0.0
 20
1.0
 30
0.0
  9
$PUCSNAME
  2

  9
$PUCSORG
 10
0.0
 20
0.0
 30
0.0
  9
$PUCSXDIR
 10
1.0
 20
0.0
 30
0.0
  9
$PUCSYDIR
 10
0.0
 20
1.0
 30
0.0
  9
$USERI1
 70
     0
  9
$USERI2
 70
     0
  9
$USERI3
 70
     0
  9
$USERI4
 70
     0
  9
$USERI5
 70
     0
  9
$USERR1
 40
0.0
  9
$USERR2
 40
0.0
  9
$USERR3
 40
0.0
  9
$USERR4
 40
0.0
  9
$USERR5
 40
0.0
  9
$WORLDVIEW
 70
     1
  9
$SHADEDGE
 70
     3
  9
$SHADEDIF
 70
    70
  9
$TILEMODE
 70
     1
  9
$MAXACTVP
 70
    64
  9
$PLIMCHECK
 70
     0
  9
$PEXTMIN
 10
0.0
 20
0.0
 30
0.0
  9
$PEXTMAX
 10
0.0
 20
0.0
 30
0.0
  9
$PLIMMIN
 10
0.0
 20
0.0
  9
$PLIMMAX
 10
12.0
 20
9.0
  9
$UNITMODE
 70
     0
  9
$VISRETAIN
 70
     1
  9
$PLINEGEN
 70
     0
  9
$PSLTSCALE
 70
     1
  0
ENDSEC
  0
SECTION
  2
TABLES
  0
TABLE
  2
VPORT
 70
     1
  0
VPORT
  2
*ACTIVE
 70
     0
 10
0.0
 20
0.0
 11
1.0
 21
1.0
 12
56.250529972329161
 22
24.248064632370301
 13
0.0
 23
0.0
 14
10.0
 24
10.0
 15
10.0
 25
10.0
 16
0.0
 26
0.0
 36
1.0
 17
0.0
 27
0.0
 37
0.0
 40
75.050747039837432
 41
1.947496947496947
 42
50.0
 43
0.0
 44
0.0
 50
0.0
 51
0.0
 71
    16
 72
  1000
 73
     1
 74
     3
 75
     0
 76
     0
 77
     0
 78
     0
  0
ENDTAB
  0
TABLE
  2
LTYPE
 70
     2
  0
LTYPE
  2
CONTINUOUS
 70
     0
  3
Solid line
 72
    65
 73
     0
 40
0.0
  0
LTYPE
  2
CENTER
 70
     0
  3
Center ____ _ ____ _ ____ _ ____ _ ____ _ ____
 72
    65
 73
     4
 40
50.799999999999997
 49
31.75
 49
-6.3499999999999988
 49
6.3499999999999988
 49
-6.3499999999999988
  0
ENDTAB
  0
TABLE
  2
LAYER
 70
     6
  0
LAYER
  2
0
 70
     0
 62
     7
  6
CONTINUOUS
  0
LAYER
  2
MSM_CENTER
 70
     0
 62
     1
  6
CENTER
  0
LAYER
  2
DEFPOINTS
 70
     0
 62
     7
  6
CONTINUOUS
  0
LAYER
  2
MSM_CONTINUOUS
 70
     0
 62
     7
  6
CONTINUOUS
  0
LAYER
  2
MSM_PART_NUMBER
 70
     0
 62
     7
  6
CONTINUOUS
  0
LAYER
  2
MSM_NARROW
 70
     0
 62
     5
  6
CONTINUOUS
  0
ENDTAB
  0
TABLE
  2
STYLE
 70
     1
  0
STYLE
  2
STANDARD
 70
     0
 40
1.0
 41
1.0
 50
0.0
 71
     0
 42
3.0
  3
txt.shx
  4
bigfont.shx
  0
ENDTAB
  0
TABLE
  2
VIEW
 70
     0
  0
ENDTAB
  0
TABLE
  2
UCS
 70
     0
  0
ENDTAB
  0
TABLE
  2
APPID
 70
    25
  0
APPID
  2
ACAD
 70
     0
  0
APPID
  2
ACAD_MLEADERVER
 70
     0
  0
APPID
  2
ACAD_EXEMPT_FROM_CAD_STANDARDS
 70
     0
  0
APPID
  2
ACDBBLOCKREPETAG
 70
     0
  0
APPID
  2
ACAD_DSTYLE_DIMJOGGED_JOGA
 70
     0
  0
APPID
  2
ACAECLAYERSTANDARD
 70
     0
  0
APPID
  2
GENIUS_GENODEF_13
 70
     0
  0
APPID
  2
GENIUS_GENOBJ-N-FIL_13
 70
     0
  0
APPID
  2
ACAD_PSEXT
 70
     0
  0
APPID
  2
ACAD_DSTYLE_DIMRADIAL_EXTENSION
 70
     0
  0
APPID
  2
ACDBDYNAMICBLOCKTRUENAME
 70
     0
  0
APPID
  2
ACDBDYNAMICBLOCKGUID
 70
     0
  0
APPID
  2
ACDBBLOCKREPBTAG
 70
     0
  0
APPID
  2
ACAUTHENVIRON
 70
     0
  0
APPID
  2
GRADIENTCOLOR1ACI
 70
     0
  0
APPID
  2
GRADIENTCOLOR2ACI
 70
     0
  0
APPID
  2
ACAD_DSTYLE_DIMJAG
 70
     0
  0
APPID
  2
ACAD_DSTYLE_DIMTALN
 70
     0
  0
APPID
  2
ACCMTRANSPARENCY
 70
     0
  0
APPID
  2
ACAD_DSTYLE_DIMBREAK
 70
     0
  0
APPID
  2
ACAD_DSTYLE_DIMFLIPARROW_W
 70
     0
  0
APPID
  2
ACAD_DSTYLE_DIM_LINETYPE
 70
     0
  0
APPID
  2
ACAD_DSTYLE_DIM_EXT1_LINETYPE
 70
     0
  0
APPID
  2
ACAD_DSTYLE_DIM_EXT2_LINETYPE
 70
     0
  0
APPID
  2
ACAD_NAV_VCDISPLAY
 70
     0
  0
ENDTAB
  0
TABLE
  2
DIMSTYLE
 70
     2
  0
DIMSTYLE
  2
MISUMI
 70
     0
  3

  4

  5
OPEN30
  6

  7

 40
1.0
 41
1.0
 42
0.3
 43
1.5
 44
0.5
 45
0.0
 46
0.0
 47
0.0
 48
0.0
140
3.0
141
2.5
142
0.0
143
0.03937007874016
144
1.0
145
0.0
146
1.0
147
0.625
 71
     0
 72
     0
 73
     0
 74
     0
 75
     0
 76
     0
 77
     1
 78
     8
170
     0
171
     3
172
     1
173
     0
174
     0
175
     0
176
   256
177
   256
178
   256
  0
ENDTAB
  0
ENDSEC
  0
SECTION
  2
BLOCKS
  0
BLOCK
  8
0
  2
$MODEL_SPACE
 70
     0
 10
0.0
 20
0.0
 30
0.0
  3
$MODEL_SPACE
  1

  0
ENDBLK
  5
21
  8
0
  0
BLOCK
 67
     1
  8
0
  2
$PAPER_SPACE
 70
     0
 10
0.0
 20
0.0
 30
0.0
  3
$PAPER_SPACE
  1

  0
ENDBLK
  5
13656
 67
     1
  8
0
  0
BLOCK
  8
0
 62
     7
  2
_OPEN30
 70
     0
 10
0.0
 20
0.0
 30
0.0
  3
_OPEN30
  1

  0
LINE
  5
10519
  8
0
  6
BYBLOCK
 62
     0
 10
-1.0
 20
0.26794919
 30
0.0
 11
0.0
 21
0.0
 31
0.0
  0
LINE
  5
1051A
  8
0
  6
BYBLOCK
 62
     0
 10
0.0
 20
0.0
 30
0.0
 11
-1.0
 21
-0.26794919
 31
0.0
  0
LINE
  5
1051B
  8
0
  6
BYBLOCK
 62
     0
 10
0.0
 20
0.0
 30
0.0
 11
-1.0
 21
0.0
 31
0.0
  0
ENDBLK
  5
1051C
  8
0
 62
     7
  0
BLOCK
  8
0
  2
*U2
 70
     1
 10
0.0
 20
0.0
 30
0.0
  3
*U2
  1

  0
TEXT
  5
13664
  8
MSM_PART_NUMBER
 10
230.78420101418749
 20
4.7390233652656937
 30
0.0
 40
3.0
  1
geakb1.5-25-15.dwg
  0
ENDBLK
  5
13666
  8
0
  0
BLOCK
  8
0
  2
*U3
 70
     1
 10
0.0
 20
0.0
 30
0.0
  3
*U3
  1

  0
TEXT
  5
13668
  8
MSM_PART_NUMBER
 10
0.0
 20
-3.0
 30
0.0
 40
3.0
  1
GEAKB1.5-25-15-A-8N
  0
ENDBLK
  5
1366A
  8
0
  0
BLOCK
  8
0
  2
*U4
 70
     1
 10
0.0
 20
0.0
 30
0.0
  3
*U4
  1

  0
TEXT
  5
1366C
  8
MSM_PART_NUMBER
 10
0.0
 20
-8.0000000000000036
 30
0.0
 40
3.0
  1
GEAKB1.5-25-15-B-8N
  0
ENDBLK
  5
1366E
  8
0
  0
BLOCK
  8
0
  2
*U5
 70
     1
 10
0.0
 20
0.0
 30
0.0
  3
*U5
  1

  0
TEXT
  5
13670
  8
MSM_PART_NUMBER
 10
0.0
 20
-13.0
 30
0.0
 40
3.0
  1
GEAKB1.5-25-15
  0
ENDBLK
  5
13672
  8
0
  0
BLOCK
  8
0
  2
*U6
 70
     1
 10
0.0
 20
0.0
 30
0.0
  3
*U6
  1

  0
TEXT
  5
13676
  8
MSM_PART_NUMBER
 10
55.500000000000007
 20
58.499999999999979
 30
0.0
 40
3.0
  1
A
  0
ENDBLK
  5
13678
  8
0
  0
BLOCK
  8
0
  2
*U7
 70
     1
 10
0.0
 20
0.0
 30
0.0
  3
*U7
  1

  0
TEXT
  5
1367A
  8
MSM_PART_NUMBER
 10
85.5
 20
58.499999999999979
 30
0.0
 40
3.0
  1
B
  0
ENDBLK
  5
1367C
  8
0
  0
ENDSEC
  0
SECTION
  2
ENTITIES
  0
INSERT
  5
10CDF
  8
MSM_CONTINUOUS
  2
*U3
 10
0.0
 20
0.0
 30
0.0
  0
INSERT
  5
10CE0
  8
MSM_CONTINUOUS
  2
*U4
 10
0.0
 20
0.0
 30
0.0
  0
INSERT
  5
10CE1
  8
MSM_CONTINUOUS
  2
*U5
 10
0.0
 20
0.0
 30
0.0
  0
INSERT
  5
1138F
  8
MSM_CONTINUOUS
  2
*U6
 10
0.0
 20
0.0
 30
0.0
  0
INSERT
  5
116E8
  8
MSM_CONTINUOUS
  2
*U7
 10
0.0
 20
0.0
 30
0.0
  0
LINE
  5
13299
  8
MSM_CENTER
 10
-1.0000000000000071
 20
30.25
 30
0.0
 11
41.5
 21
30.25
 31
0.0
  0
LINE
  5
1329A
  8
MSM_CENTER
 10
20.25
 20
9.0
 30
0.0
 11
20.25
 21
51.500000000000007
 31
0.0
  0
ARC
  5
1329C
  8
MSM_CONTINUOUS
 10
20.250000000179678
 20
30.249999999989068
 30
0.0
 40
16.874999999819991
 50
355.96226659138682
 51
356.83773167486282
  0
ARC
  5
1329D
  8
MSM_CONTINUOUS
 10
20.250000000000039
 20
30.250000000014008
 30
0.0
 40
20.249999999985992
 50
88.840175833114387
 51
91.159824207708738
  0
ARC
  5
1329E
  8
MSM_CONTINUOUS
 10
19.843148488689259
 20
50.345881962425622
 30
0.0
 40
0.1500000000000102
 50
91.159824207708439
 51
148.9366132081982
  0
ARC
  5
1329F
  8
MSM_CONTINUOUS
 10
25.0683900997007
 20
47.198367052762123
 30
0.0
 40
6.2499999999999547
 50
148.93661320819771
 51
163.5999999999998
  0
ARC
  5
132A0
  8
MSM_CONTINUOUS
 10
20.24999999999984
 20
48.616496379022657
 30
0.0
 40
1.227254342603457
 50
163.59999999999809
 51
179.1441581818751
  0
ARC
  5
132A1
  8
MSM_CONTINUOUS
 10
13.46801674464049
 20
48.722395482533571
 30
0.0
 40
5.5555560000000819
 50
348.35475938063172
 51
359.09685314405641
  0
ARC
  5
132A2
  8
MSM_CONTINUOUS
 10
18.17465601405496
 20
47.752387618265139
 30
0.0
 40
0.7499999999999885
 50
276.76226196368452
 51
348.35475938063189
  0
ARC
  5
132A3
  8
MSM_CONTINUOUS
 10
20.25000000001307
 20
30.24999999989382
 30
0.0
 40
16.875000000106979
 50
96.762267412181913
 51
97.637732819666624
  0
ARC
  5
132A4
  8
MSM_CONTINUOUS
 10
17.907476436434042
 20
47.71863498829083
 30
0.0
 40
0.7500000000000111
 50
206.04524061936991
 51
277.63773281967099
  0
ARC
  5
132A5
  8
MSM_CONTINUOUS
 10
22.225016831981439
 20
49.828661860619768
 30
0.0
 40
5.5555559999997861
 50
195.30314685594459
 51
206.045240619368
  0
ARC
  5
132A6
  8
MSM_CONTINUOUS
 10
15.682438087887149
 20
48.03947912165134
 30
0.0
 40
1.2272543426036091
 50
15.255841818117339
 51
30.799999999998551
  0
ARC
  5
132A7
  8
MSM_CONTINUOUS
 10
11.368100995700731
 20
45.467618045721601
 30
0.0
 40
6.2500000000003677
 50
30.800000000000519
 51
45.463386791801902
  0
ARC
  5
132A8
  8
MSM_CONTINUOUS
 10
15.646426905221441
 20
49.815712733274793
 30
0.0
 40
0.1499999999999958
 50
45.463386791799678
 51
103.2401757922934
  0
ARC
  5
132A9
  8
MSM_CONTINUOUS
 10
20.249999999997211
 20
30.250000000010761
 30
0.0
 40
20.249999999988891
 50
103.2401757922915
 51
105.5598242077083
  0
ARC
  5
132AA
  8
MSM_CONTINUOUS
 10
14.858287859350821
 20
49.61335302039334
 30
0.0
 40
0.1500000000000176
 50
105.5598242077112
 51
163.3366132082057
  0
ARC
  5
132AB
  8
MSM_CONTINUOUS
 10
20.702124024339039
 20
47.864187826143493
 30
0.0
 40
6.2499999999999494
 50
163.33661320819769
 51
178.0
  0
ARC
  5
132AC
  8
MSM_CONTINUOUS
 10
15.68243808788721
 20
48.039479121651318
 30
0.0
 40
1.227254342603689
 50
178.00000000000071
 51
193.5441581818622
  0
ARC
  5
132AD
  8
MSM_CONTINUOUS
 10
9.0871872715861581
 20
46.455440559561247
 30
0.0
 40
5.5555560000005304
 50
2.7547593806324442
 51
13.49685314405871
  0
ARC
  5
132AE
  8
MSM_CONTINUOUS
 10
13.88718995976212
 20
46.686400864904947
 30
0.0
 40
0.7500000000000112
 50
291.16227239697128
 51
2.7547593806313682
  0
ARC
  5
132AF
  8
MSM_CONTINUOUS
 10
20.250000000031719
 20
30.249999999919879
 30
0.0
 40
16.875000000086171
 50
111.16226694848091
 51
112.03773281966831
  0
ARC
  5
132B0
  8
MSM_CONTINUOUS
 10
13.636798257620891
 20
46.587263776856709
 30
0.0
 40
0.7500000000000152
 50
220.4452406193696
 51
292.03773281967142
  0
ARC
  5
132B1
  8
MSM_CONTINUOUS
 10
17.293952837447119
 20
49.704728908722331
 30
0.0
 40
5.5555560000006254
 50
209.7031468559457
 51
220.44524061936761
  0
ARC
  5
132B2
  8
MSM_CONTINUOUS
 10
11.40187288903034
 20
46.344683465939283
 30
0.0
 40
1.227254342603163
 50
29.65584181811376
 51
45.20000000000099
  0
ARC
  5
132B3
  8
MSM_CONTINUOUS
 10
7.8626744708821681
 20
42.780690130384322
 30
0.0
 40
6.2500000000003899
 50
45.200000000000259
 51
59.863386791801553
  0
ARC
  5
132B4
  8
MSM_CONTINUOUS
 10
10.925261727434609
 20
48.056157815434339
 30
0.0
 40
0.1500000000000152
 50
59.863386791810257
 51
117.6401757922918
  0
ARC
  5
132B5
  8
MSM_CONTINUOUS
 10
20.24999999998062
 20
30.25000000003536
 30
0.0
 40
20.249999999959691
 50
117.64017579229009
 51
119.9598242077102
  0
ARC
  5
132B6
  8
MSM_CONTINUOUS
 10
10.212208333139531
 20
47.664153394658783
 30
0.0
 40
0.1500000000000106
 50
119.9598242077098
 51
177.7366132082004
  0
ARC
  5
132B7
  8
MSM_CONTINUOUS
 10
16.307449333732109
 20
47.423244397956893
 30
0.0
 40
6.2499999999997424
 50
177.7366132081973
 51
192.4000013384383
  0
ARC
  5
132B8
  8
MSM_CONTINUOUS
 10
11.40187288902986
 20
46.344683465938949
 30
0.0
 40
1.2272543426035041
 50
192.4000068162234
 51
207.94415818200139
  0
ARC
  5
132B9
  8
MSM_CONTINUOUS
 10
5.4077583762120014
 20
43.170238206790387
 30
0.0
 40
5.555556000000462
 50
17.154759380631951
 51
27.896853144028078
  0
ARC
  5
132BA
  8
MSM_CONTINUOUS
 10
9.9995226610758792
 20
44.587654596348841
 30
0.0
 40
0.7500000000000026
 50
305.56227446941961
 51
17.15475938063128
  0
ARC
  5
132BB
  8
MSM_CONTINUOUS
 10
20.249999999959432
 20
30.25000000005582
 30
0.0
 40
16.874999999930999
 50
125.5622668563679
 51
126.43773281967231
  0
ARC
  5
132BC
  8
MSM_CONTINUOUS
 10
9.7816518659361122
 20
44.429362198069448
 30
0.0
 40
0.7499999999999957
 50
234.8452406193687
 51
306.43773281967248
  0
ARC
  5
132BD
  8
MSM_CONTINUOUS
 10
12.548628157715751
 20
48.358383790001
 30
0.0
 40
5.55555599999989
 50
224.10314685601099
 51
234.84524061936801
  0
ARC
  5
132BE
  8
MSM_CONTINUOUS
 10
7.6772680576902088
 20
43.638599655956341
 30
0.0
 40
1.2272543426037741
 50
44.055841817819292
 51
59.599999999998687
  0
ARC
  5
132BF
  8
MSM_CONTINUOUS
 10
5.135589166454877
 20
39.306412869500861
 30
0.0
 40
6.2499999999998179
 50
59.599999999999909
 51
74.263386791802532
  0
ARC
  5
132C0
  8
MSM_CONTINUOUS
 10
6.7900041493015086
 20
45.177776515582622
 30
0.0
 40
0.1499999999999862
 50
74.263386791797473
 51
132.04017579229441
  0
ARC
  5
132C1
  8
MSM_CONTINUOUS
 10
20.250000000004221
 20
30.249999999995492
 30
0.0
 40
20.250000000006171
 50
132.0401757922925
 51
134.35982420770739
  0
ARC
  5
132C2
  8
MSM_CONTINUOUS
 10
6.1968401737724781
 20
44.620758466361629
 30
0.0
 40
0.1500000000000054
 50
134.3598242077035
 51
192.13661320820381
  0
ARC
  5
132C3
  8
MSM_CONTINUOUS
 10
12.16049960117407
 20
45.903242865471753
 30
0.0
 40
6.2499999999997264
 50
192.1366132081975
 51
206.8000010928304
  0
ARC
  5
132C4
  8
MSM_CONTINUOUS
 10
7.677268057690469
 20
43.638599655956583
 30
0.0
 40
1.227254342603826
 50
206.80000556542331
 51
222.3441581819979
  0
ARC
  5
132C5
  8
MSM_CONTINUOUS
 10
2.6609221080068681
 20
39.073209770174657
 30
0.0
 40
5.5555560000003119
 50
31.554759380632088
 51
42.296853144028809
  0
ARC
  5
132C6
  8
MSM_CONTINUOUS
 10
6.7559305522128197
 20
41.58802075929907
 30
0.0
 40
0.7500000000000073
 50
319.96227446941992
 51
31.554759380629879
  0
ARC
  5
132C7
  8
MSM_CONTINUOUS
 10
20.250000000001251
 20
30.24999999999898
 30
0.0
 40
16.87500000000162
 50
139.96226685636989
 51
140.83773281967061
  0
ARC
  5
132C8
  8
MSM_CONTINUOUS
 10
6.5842702874058778
 20
41.380519144331153
 30
0.0
 40
0.7500000000000028
 50
249.24524061936941
 51
320.8377328196716
  0
ARC
  5
132C9
  8
MSM_CONTINUOUS
 10
8.2872089944999594
 20
45.874222319777161
 30
0.0
 40
5.5555559999996724
 50
238.5031468560108
 51
249.24524061936839
  0
ARC
  5
132CA
  8
MSM_CONTINUOUS
 10
4.7426542135596099
 20
40.091260889765252
 30
0.0
 40
1.227254342603403
 50
58.455841817816399
 51
74.000000000000284
  0
ARC
  5
132CB
  8
MSM_CONTINUOUS
 10
3.3581978816135312
 20
35.263087880869527
 30
0.0
 40
6.2499999999998481
 50
73.999999999999972
 51
88.663386791802495
  0
ARC
  5
132CC
  8
MSM_CONTINUOUS
 10
3.5004876128697999
 20
41.361428116735098
 30
0.0
 40
0.1500000000000161
 50
88.663386791805479
 51
146.4401757922881
  0
ARC
  5
132CD
  8
MSM_CONTINUOUS
 10
20.249999999968331
 20
30.25000000001997
 30
0.0
 40
20.249999999962569
 50
146.44017579228981
 51
148.75982420770961
  0
ARC
  5
132CE
  8
MSM_CONTINUOUS
 10
3.064483730193821
 20
40.674395931670396
 30
0.0
 40
0.1500000000000225
 50
148.7598242077168
 51
206.5366132082039
  0
ARC
  5
132CF
  8
MSM_CONTINUOUS
 10
8.5218429297755698
 20
43.399690515148741
 30
0.0
 40
6.24999999999969
 50
206.53661320819771
 51
221.20000109283049
  0
ARC
  5
132D0
  8
MSM_CONTINUOUS
 10
4.7426542135595389
 20
40.091260889765053
 30
0.0
 40
1.2272543426036231
 50
221.2000055654222
 51
236.74415818199941
  0
ARC
  5
132D1
  8
MSM_CONTINUOUS
 10
1.0192722918595889
 20
34.421786614203917
 30
0.0
 40
5.555555999999366
 50
45.954759380631273
 51
56.696853144029511
  0
ARC
  5
132D2
  8
MSM_CONTINUOUS
 10
4.3602204544701593
 20
37.87597737961903
 30
0.0
 40
0.7499999999999958
 50
334.36227446941842
 51
45.954759380631423
  0
ARC
  5
132D3
  8
MSM_CONTINUOUS
 10
20.249999999934332
 20
30.250000000030969
 30
0.0
 40
16.87499999992739
 50
154.36226685636819
 51
155.23773281967269
  0
ARC
  5
132D4
  8
MSM_CONTINUOUS
 10
4.2455567657561701
 20
37.632304637568581
 30
0.0
 40
0.7499999999999945
 50
263.64524061936868
 51
335.237732819673
  0
ARC
  5
132D5
  8
MSM_CONTINUOUS
 10
4.77745598622759
 20
42.408333499331498
 30
0.0
 40
5.5555559999994344
 50
252.90314685607669
 51
263.64524061936851
  0
ARC
  5
132D6
  8
MSM_CONTINUOUS
 10
2.7824239372192312
 20
35.925559508244319
 30
0.0
 40
1.2272543426032341
 50
72.855841817516293
 51
88.400000000002066
  0
ARC
  5
132D7
  8
MSM_CONTINUOUS
 10
2.642180647572999
 20
30.904772143835331
 30
0.0
 40
6.250000000000167
 50
88.400000000000233
 51
103.063386791802
  0
ARC
  5
132D8
  8
MSM_CONTINUOUS
 10
1.2634045401190079
 20
36.846907824339112
 30
0.0
 40
0.1499999999999955
 50
103.0633867918
 51
160.84017579229439
  0
ARC
  5
132D9
  8
MSM_CONTINUOUS
 10
20.250000000024212
 20
30.24999999999212
 30
0.0
 40
20.250000000025459
 50
160.84017579229371
 51
163.15982303928811
  0
ARC
  5
132DA
  8
MSM_CONTINUOUS
 10
1.01195647775426
 20
36.073030262346379
 30
0.0
 40
0.1499999999999961
 50
163.1596664713785
 51
220.93661320846249
  0
ARC
  5
132DB
  8
MSM_CONTINUOUS
 10
5.6201095002440304
 20
40.069894748580353
 30
0.0
 40
6.2499999999999822
 50
220.93661320819791
 51
235.6000010928299
  0
ARC
  5
132DC
  8
MSM_CONTINUOUS
 10
2.7824239372191601
 20
35.92555950824395
 30
0.0
 40
1.2272543426036371
 50
235.60000556542289
 51
251.14415818200041
  0
ARC
  5
132DD
  8
MSM_CONTINUOUS
 10
0.5859598232830799
 20
29.508234762504031
 30
0.0
 40
5.5555559999996067
 50
60.354759380631457
 51
71.096853144029396
  0
ARC
  5
132DE
  8
MSM_CONTINUOUS
 10
2.96292364409442
 20
33.684765794794579
 30
0.0
 40
0.7500000000000313
 50
348.76227693977512
 51
60.354759380629638
  0
ARC
  5
132DF
  8
MSM_CONTINUOUS
 10
20.24999999999395
 20
30.250000000000998
 30
0.0
 40
16.874999999993879
 50
168.76226674657559
 51
169.63773281967019
  0
ARC
  5
132E0
  8
MSM_CONTINUOUS
 10
2.912461272738859
 20
33.420232780210291
 30
0.0
 40
0.749999999999985
 50
278.04524061936849
 51
349.63773281967332
  0
ARC
  5
132E1
  8
MSM_CONTINUOUS
 10
2.2398998223769899
 20
38.178491869901158
 30
0.0
 40
5.5555560000002657
 50
267.30314685601132
 51
278.04524061936758
  0
ARC
  5
132E2
  8
MSM_CONTINUOUS
 10
1.919745706154341
 20
31.403241849571948
 30
0.0
 40
1.2272543426037541
 50
87.255841817818705
 51
102.79999999999851
  0
ARC
  5
132E3
  8
MSM_CONTINUOUS
 10
3.032527460475289
 20
26.505314664920729
 30
0.0
 40
6.2500000000002132
 50
102.8000000000003
 51
117.46338679180209
  0
ARC
  5
132E4
  8
MSM_CONTINUOUS
 10
0.2193190879261095
 20
31.91787955161001
 30
0.0
 40
0.1499999999999974
 50
117.4633867917984
 51
175.24017579229249
  0
ARC
  5
132E5
  8
MSM_CONTINUOUS
 10
20.249999999985629
 20
30.250000000000931
 30
0.0
 40
20.249999999985601
 50
175.24017579229161
 51
177.5598242077086
  0
ARC
  5
132E6
  8
MSM_CONTINUOUS
 10
0.1682262523931399
 20
31.105782186030911
 30
0.0
 40
0.1500000000000037
 50
177.55982420771031
 51
235.3366132082063
  0
ARC
  5
132E7
  8
MSM_CONTINUOUS
 10
3.6376258957855292
 20
36.123078879912072
 30
0.0
 40
6.2500000000001741
 50
235.33661320819789
 51
249.99999999999949
  0
ARC
  5
132E8
  8
MSM_CONTINUOUS
 10
1.919745706154401
 20
31.403241849572471
 30
0.0
 40
1.227254342604005
 50
250.00000000000259
 51
265.54415818199777
  0
ARC
  5
132E9
  8
MSM_CONTINUOUS
 10
1.3882113182907001
 20
24.641290748697362
 30
0.0
 40
5.5555560000001831
 50
74.754759380631896
 51
85.496853144028705
  0
ARC
  5
132EA
  8
MSM_CONTINUOUS
 10
2.6518374185798201
 20
29.27773524289827
 30
0.0
 40
0.7499999999999951
 50
3.1622769397733701
 51
74.754759380630986
  0
ARC
  5
132EB
  8
MSM_CONTINUOUS
 10
20.250000000009688
 20
30.250000000000909
 30
0.0
 40
16.875000000009731
 50
183.16226674657739
 51
184.03773281967119
  0
ARC
  5
132EC
  8
MSM_CONTINUOUS
 10
2.6687471009625088
 20
29.008963537970828
 30
0.0
 40
0.7499999999999991
 50
292.4452406193692
 51
4.0377328196728604
  0
ARC
  5
132ED
  8
MSM_CONTINUOUS
 10
0.8339844892014482
 20
33.450473937330493
 30
0.0
 40
5.5555560000000277
 50
281.70314685601119
 51
292.44524061936801
  0
ARC
  5
132EE
  8
MSM_CONTINUOUS
 10
2.2088247663313889
 20
26.808461764164871
 30
0.0
 40
1.2272543426035241
 50
101.6558418178175
 51
117.2000000000001
  0
ARC
  5
132EF
  8
MSM_CONTINUOUS
 10
4.5047113944702906
 20
22.341149537598849
 30
0.0
 40
6.2499999999998179
 50
117.2
 51
131.86338679180261
  0
ARC
  5
132F0
  8
MSM_CONTINUOUS
 10
0.4338349851300798
 20
26.884052272621371
 30
0.0
 40
0.1499999999999998
 50
131.863386791804
 51
189.64017579229409
  0
ARC
  5
132F1
  8
MSM_CONTINUOUS
 10
20.249999999992951
 20
30.24999999999855
 30
0.0
 40
20.249999999992799
 50
189.64017579229139
 51
191.95982303928949
  0
ARC
  5
132F2
  8
MSM_CONTINUOUS
 10
0.5863077271906683
 20
26.08476216762115
 30
0.0
 40
0.150000000000035
 50
191.9596664713863
 51
249.7366132084554
  0
ARC
  5
132F3
  8
MSM_CONTINUOUS
 10
2.6989588523329
 20
31.80723586554565
 30
0.0
 40
6.250000000000238
 50
249.73661320819821
 51
264.39999999999969
  0
ARC
  5
132F4
  8
MSM_CONTINUOUS
 10
2.208824766331428
 20
26.808461764164651
 30
0.0
 40
1.2272543426034861
 50
264.39999999999918
 51
279.94415818203203
  0
ARC
  5
132F5
  8
MSM_CONTINUOUS
 10
3.3756183649766589
 20
20.126762564540609
 30
0.0
 40
5.5555559999998394
 50
89.154759380631504
 51
99.896853144022046
  0
ARC
  5
132F6
  8
MSM_CONTINUOUS
 10
3.4465084695704489
 20
24.931795661430289
 30
0.0
 40
0.7499999999999939
 50
17.562276939773241
 51
89.154759380631376
  0
ARC
  5
132F7
  8
MSM_CONTINUOUS
 10
20.249999999948901
 20
30.249999999983292
 30
0.0
 40
16.87499999994624
 50
197.56226674657449
 51
198.43773281967151
  0
ARC
  5
132F8
  8
MSM_CONTINUOUS
 10
3.5297277081578708
 20
24.675673180853479
 30
0.0
 40
0.7499999999999935
 50
306.84524061936958
 51
18.43773281967357
  0
ARC
  5
132F9
  8
MSM_CONTINUOUS
 10
0.6480488176796692
 20
28.52135845675744
 30
0.0
 40
5.555555999999604
 50
296.10314685601048
 51
306.84524061936833
  0
ARC
  5
132FA
  8
MSM_CONTINUOUS
 10
3.6314972172412499
 20
22.42992618320703
 30
0.0
 40
1.2272543426038871
 50
116.0558418178195
 51
131.5999999999967
  0
ARC
  5
132FB
  8
MSM_CONTINUOUS
 10
6.9662297186718396
 20
18.673926571546438
 30
0.0
 40
6.2500000000000524
 50
131.60000000000011
 51
146.26338679180219
  0
ARC
  5
132FC
  8
MSM_CONTINUOUS
 10
1.8934734089752709
 20
22.061719868433741
 30
0.0
 40
0.1499999999999797
 50
146.26338679179571
 51
204.0401757922981
  0
ARC
  5
132FD
  8
MSM_CONTINUOUS
 10
20.250000000005841
 20
30.25000000000281
 30
0.0
 40
20.25000000000648
 50
204.04017579229281
 51
206.35982420770759
  0
ARC
  5
132FE
  8
MSM_CONTINUOUS
 10
2.2399313054914098
 20
21.32545936089242
 30
0.0
 40
0.1499999999999762
 50
206.35982420770449
 51
264.13661320821137
  0
ARC
  5
132FF
  8
MSM_CONTINUOUS
 10
2.8630882724023499
 20
27.393545994633609
 30
0.0
 40
6.249999999999825
 50
264.1366132081975
 51
278.79999999999978
  0
ARC
  5
13300
  8
MSM_CONTINUOUS
 10
3.6314972172411402
 20
22.429926183207211
 30
0.0
 40
1.22725434260357
 50
278.79999999999899
 51
294.34415818203092
  0
ARC
  5
13301
  8
MSM_CONTINUOUS
 10
6.4233048694255501
 20
16.248314619116659
 30
0.0
 40
5.5555559999995774
 50
103.55475938063149
 51
114.29685314402261
  0
ARC
  5
13302
  8
MSM_CONTINUOUS
 10
5.2970046923368983
 20
20.920018417542011
 30
0.0
 40
0.7500000000000124
 50
31.96227818779245
 51
103.5547593806305
  0
ARC
  5
13303
  8
MSM_CONTINUOUS
 10
20.250000000037559
 20
30.250000000023931
 30
0.0
 40
16.87500000004454
 50
211.96226669111019
 51
212.83773281966961
  0
ARC
  5
13304
  8
MSM_CONTINUOUS
 10
5.4413045163096596
 20
20.692638278723091
 30
0.0
 40
0.7499999999999939
 50
321.24524061936899
 51
32.837732819674017
  0
ARC
  5
13305
  8
MSM_CONTINUOUS
 10
1.693775829875789
 20
23.700859881846341
 30
0.0
 40
5.5555560000006414
 50
310.50314685607788
 51
321.24524061936722
  0
ARC
  5
13306
  8
MSM_CONTINUOUS
 10
6.0983713165693798
 20
18.542754600378601
 30
0.0
 40
1.2272543426035001
 50
130.45584181751781
 51
146.00000000000011
  0
ARC
  5
13307
  8
MSM_CONTINUOUS
 10
10.262416183938811
 20
15.73407087282394
 30
0.0
 40
6.2500000000000684
 50
146.00000000000011
 51
160.6633867918022
  0
ARC
  5
13308
  8
MSM_CONTINUOUS
 10
4.5065199091169488
 20
17.753887219300189
 30
0.0
 40
0.1499999999999997
 50
160.66338679180021
 51
218.44017579229239
  0
ARC
  5
13309
  8
MSM_CONTINUOUS
 10
20.250000000000082
 20
30.250000000000039
 30
0.0
 40
20.250000000000089
 50
218.44017579229219
 51
220.75982420770771
  0
ARC
  5
1330A
  8
MSM_CONTINUOUS
 10
5.0251937362668988
 20
17.126918264683621
 30
0.0
 40
0.1499999999999742
 50
220.75982420770771
 51
278.53661320821459
  0
ARC
  5
1330B
  8
MSM_CONTINUOUS
 10
4.1197013009050201
 20
23.15933763418256
 30
0.0
 40
6.2500000000002647
 50
278.53661320819828
 51
293.19999999999959
  0
ARC
  5
1330C
  8
MSM_CONTINUOUS
 10
6.098371316569497
 20
18.542754600378469
 30
0.0
 40
1.227254342603564
 50
293.19999999999942
 51
308.74415818208718
  0
ARC
  5
1330D
  8
MSM_CONTINUOUS
 10
10.339773479956291
 20
13.249644060769601
 30
0.0
 40
5.5555560000001032
 50
117.9547593806318
 51
128.6968531440094
  0
ARC
  5
1330E
  8
MSM_CONTINUOUS
 10
8.0870526035537402
 20
17.494478229751611
 30
0.0
 40
0.7499999999999996
 50
46.362278187792292
 51
117.9547593806312
  0
ARC
  5
1330F
  8
MSM_CONTINUOUS
 10
20.250000000028479
 20
30.250000000030429
 30
0.0
 40
16.87500000004167
 50
226.36226669111019
 51
227.23773281966959
  0
ARC
  5
13310
  8
MSM_CONTINUOUS
 10
8.2833661242739822
 20
17.310127563058192
 30
0.0
 40
0.7500000000000011
 50
335.64524061936942
 51
47.237732819673653
  0
ARC
  5
13311
  8
MSM_CONTINUOUS
 10
3.905458651700481
 20
19.29186786661019
 30
0.0
 40
5.5555560000001307
 50
324.90314685607729
 51
335.64524061936783
  0
ARC
  5
13312
  8
MSM_CONTINUOUS
 10
9.4544442921273681
 20
15.39119230224474
 30
0.0
 40
1.2272543426036111
 50
144.85584181751861
 51
160.39999999999921
  0
ARC
  5
13313
  8
MSM_CONTINUOUS
 10
14.18615927213251
 20
13.706304387014921
 30
0.0
 40
6.2499999999998224
 50
160.40000000000001
 51
175.06338679180271
  0
ARC
  5
13314
  8
MSM_CONTINUOUS
 10
8.1087871638383504
 20
14.231231293666029
 30
0.0
 40
0.1499999999999805
 50
175.06338679179009
 51
232.84017579229379
  0
ARC
  5
13315
  8
MSM_CONTINUOUS
 10
20.24999999999072
 20
30.24999999998743
 30
0.0
 40
20.249999999984379
 50
232.8401757922916
 51
235.15982420770899
  0
ARC
  5
13316
  8
MSM_CONTINUOUS
 10
8.7670867375134094
 20
13.75294865722331
 30
0.0
 40
0.1499999999999863
 50
235.15982420770399
 51
292.93661320821099
  0
ARC
  5
13317
  8
MSM_CONTINUOUS
 10
6.3898403197609213
 20
19.370661667807038
 30
0.0
 40
6.2499999999998828
 50
292.9366132081982
 51
307.60000000000031
  0
ARC
  5
13318
  8
MSM_CONTINUOUS
 10
9.4544442921274623
 20
15.39119230224472
 30
0.0
 40
1.227254342603546
 50
307.59999999999758
 51
323.14415818214832
  0
ARC
  5
13319
  8
MSM_CONTINUOUS
 10
14.87893807000424
 20
11.31916838902109
 30
0.0
 40
5.5555559999992621
 50
132.35475938063121
 51
143.09685314399661
  0
ARC
  5
1331A
  8
MSM_CONTINUOUS
 10
11.64134323188075
 20
14.87041438631347
 30
0.0
 40
0.749999999999993
 50
60.762278187792099
 51
132.35475938063149
  0
ARC
  5
1331B
  8
MSM_CONTINUOUS
 10
20.24999999988172
 20
30.24999999978424
 30
0.0
 40
16.87499999975395
 50
240.76226669110139
 51
241.6377328196759
  0
ARC
  5
1331C
  8
MSM_CONTINUOUS
 10
11.877335348851
 20
14.74067662212822
 30
0.0
 40
0.7500000000000008
 50
350.04524061936951
 51
61.637732819673133
  0
ARC
  5
1331D
  8
MSM_CONTINUOUS
 10
7.14412911745654
 20
15.571415594506201
 30
0.0
 40
5.5555560000003128
 50
339.3031468560776
 51
350.04524061936758
  0
ARC
  5
1331E
  8
MSM_CONTINUOUS
 10
13.48884173608786
 20
13.173263538632931
 30
0.0
 40
1.227254342603961
 50
159.25584181752029
 51
174.7999999999968
  0
ARC
  5
1331F
  8
MSM_CONTINUOUS
 10
18.490915774504568
 20
12.71803914002605
 30
0.0
 40
6.2499999999998641
 50
174.80000000000021
 51
189.46338679180269
  0
ARC
  5
13320
  8
MSM_CONTINUOUS
 10
12.47393147331314
 20
11.715093518761121
 30
0.0
 40
0.1499999999999784
 50
189.46338679179181
 51
247.2401757922913
  0
ARC
  5
13321
  8
MSM_CONTINUOUS
 10
20.2500000000006
 20
30.250000000001851
 30
0.0
 40
20.25000000000194
 50
247.24017579229269
 51
249.55982420770809
  0
ARC
  5
13322
  8
MSM_CONTINUOUS
 10
13.230493410242801
 20
11.41554945754045
 30
0.0
 40
0.1500000000000075
 50
249.5598242077138
 51
307.3366132082071
  0
ARC
  5
13323
  8
MSM_CONTINUOUS
 10
9.530864145427671
 20
16.265574540251269
 30
0.0
 40
6.2500000000000613
 50
307.33661320819812
 51
322.00000109283008
  0
ARC
  5
13324
  8
MSM_CONTINUOUS
 10
13.488841736087689
 20
13.173263538632931
 30
0.0
 40
1.227254342603447
 50
322.00000556542102
 51
337.54415818215091
  0
ARC
  5
13325
  8
MSM_CONTINUOUS
 10
19.755586234498651
 20
10.578186490117909
 30
0.0
 40
5.5555559999996982
 50
146.7547593806315
 51
157.49685314399611
  0
ARC
  5
13326
  8
MSM_CONTINUOUS
 10
15.736547425373599
 20
13.212706469142541
 30
0.0
 40
0.7499999999999952
 50
75.162279361363431
 51
146.75475938063141
  0
ARC
  5
13327
  8
MSM_CONTINUOUS
 10
20.250000000025931
 20
30.250000000102158
 30
0.0
 40
16.875000000105398
 50
255.16226663895381
 51
256.03773281966892
  0
ARC
  5
13328
  8
MSM_CONTINUOUS
 10
15.99738988596633
 20
13.14573350833137
 30
0.0
 40
0.7499999999999963
 50
4.4452406193692724
 51
76.037732819673906
  0
ARC
  5
13329
  8
MSM_CONTINUOUS
 10
11.20628965078428
 20
12.77327276465649
 30
0.0
 40
5.5555560000004443
 50
353.70314685607792
 51
4.4452406193675902
  0
ARC
  5
1332A
  8
MSM_CONTINUOUS
 10
17.948067619569851
 20
12.028328930732529
 30
0.0
 40
1.227254342603461
 50
173.65584181751859
 51
189.20000000000121
  0
ARC
  5
1332B
  8
MSM_CONTINUOUS
 10
22.906202008223719
 20
12.831371471911041
 30
0.0
 40
6.2499999999998774
 50
189.1999999999999
 51
203.86338679180241
  0
ARC
  5
1332C
  8
MSM_CONTINUOUS
 10
17.327674766699221
 20
10.363572084690171
 30
0.0
 40
0.1499999999999849
 50
203.86338679179289
 51
261.64017579229011
  0
ARC
  5
1332D
  8
MSM_CONTINUOUS
 10
20.250000000001279
 20
30.250000000008939
 30
0.0
 40
20.250000000009031
 50
261.64017579229233
 51
263.95982420770679
  0
ARC
  5
1332E
  8
MSM_CONTINUOUS
 10
18.134961497946009
 20
10.26158805370399
 30
0.0
 40
0.1500000000000073
 50
263.9598242077077
 51
321.73661320821071
  0
ARC
  5
1332F
  8
MSM_CONTINUOUS
 10
13.34541069906134
 20
14.039180295450519
 30
0.0
 40
6.2500000000000444
 50
321.73661320819809
 51
336.39999999999981
  0
ARC
  5
13330
  8
MSM_CONTINUOUS
 10
17.948067619570111
 20
12.02832893073248
 30
0.0
 40
1.2272543426035141
 50
336.3999999999989
 51
351.94415818214981
  0
ARC
  5
13331
  8
MSM_CONTINUOUS
 10
24.663300234206162
 20
11.07325698191012
 30
0.0
 40
5.5555560000000392
 50
161.1547593806315
 51
171.8968531439954
  0
ARC
  5
13332
  8
MSM_CONTINUOUS
 10
20.115348443447669
 20
12.625514363297929
 30
0.0
 40
0.750000000000007
 50
89.562279361364446
 51
161.15475938063059
  0
ARC
  5
13333
  8
MSM_CONTINUOUS
 10
20.249999999999911
 20
30.249999999971429
 30
0.0
 40
16.874999999971429
 50
269.56226663894972
 51
270.43773281967162
  0
ARC
  5
13334
  8
MSM_CONTINUOUS
 10
20.38465155655236
 20
12.625514363297921
 30
0.0
 40
0.7499999999999985
 50
18.845240619368731
 51
90.437732819673428
  0
ARC
  5
13335
  8
MSM_CONTINUOUS
 10
15.83669976579405
 20
11.07325698191022
 30
0.0
 40
5.5555559999998252
 50
8.1031468560769682
 51
18.845240619368049
  0
ARC
  5
13336
  8
MSM_CONTINUOUS
 10
22.551932380430252
 20
12.0283289307326
 30
0.0
 40
1.2272543426038789
 50
188.0558418175211
 51
203.5999999999984
  0
ARC
  5
13337
  8
MSM_CONTINUOUS
 10
27.15458930093838
 20
14.039180295450359
 30
0.0
 40
6.2499999999997238
 50
203.5999999999998
 51
218.2633867918025
  0
ARC
  5
13338
  8
MSM_CONTINUOUS
 10
22.365038502053991
 20
10.26158805370401
 30
0.0
 40
0.1500000000000221
 50
218.26338679180441
 51
276.04017579228622
  0
ARC
  5
13339
  8
MSM_CONTINUOUS
 10
20.249999999999432
 20
30.25000000000432
 30
0.0
 40
20.250000000004349
 50
276.04017579229247
 51
278.35982420770767
  0
ARC
  5
1333A
  8
MSM_CONTINUOUS
 10
23.1723252333008
 20
10.363572084690171
 30
0.0
 40
0.149999999999979
 50
278.35982420770472
 51
336.1366132082145
  0
ARC
  5
1333B
  8
MSM_CONTINUOUS
 10
17.593797991776391
 20
12.831371471910989
 30
0.0
 40
6.2499999999997611
 50
336.13661320819767
 51
350.80000133843851
  0
ARC
  5
1333C
  8
MSM_CONTINUOUS
 10
22.551932380430362
 20
12.028328930732499
 30
0.0
 40
1.227254342603268
 50
350.80000681622062
 51
6.344158182183234
  0
ARC
  5
1333D
  8
MSM_CONTINUOUS
 10
29.29371034921569
 20
12.773272764656481
 30
0.0
 40
5.5555560000004061
 50
175.55475938063199
 51
186.29685314398839
  0
ARC
  5
1333E
  8
MSM_CONTINUOUS
 10
24.502610114033711
 20
13.14573350833137
 30
0.0
 40
0.7500000000000239
 50
103.9622793613652
 51
175.5547593806298
  0
ARC
  5
1333F
  8
MSM_CONTINUOUS
 10
20.25000000003374
 20
30.249999999868589
 30
0.0
 40
16.874999999864329
 50
283.96226663894657
 51
284.83773396448549
  0
ARC
  5
13340
  8
MSM_CONTINUOUS
 10
24.763452574626381
 20
13.21270646914259
 30
0.0
 40
0.7500000000000037
 50
33.245240619363237
 51
104.837707061415
  0
ARC
  5
13341
  8
MSM_CONTINUOUS
 10
20.744413765501012
 20
10.57818649011775
 30
0.0
 40
5.5555560000000934
 50
22.503146856077549
 51
33.245240619368033
  0
ARC
  5
13342
  8
MSM_CONTINUOUS
 10
27.011158263912421
 20
13.173263538633
 30
0.0
 40
1.227254342603556
 50
202.45584181751769
 51
217.99999999999949
  0
ARC
  5
13343
  8
MSM_CONTINUOUS
 10
30.96913585457202
 20
16.265574540250999
 30
0.0
 40
6.2499999999996474
 50
217.9999999999996
 51
232.66338679180271
  0
ARC
  5
13344
  8
MSM_CONTINUOUS
 10
27.26950658975721
 20
11.415549457540431
 30
0.0
 40
0.1499999999999921
 50
232.66338679179219
 51
290.44017579229097
  0
ARC
  5
13345
  8
MSM_CONTINUOUS
 10
20.250000000002021
 20
30.249999999995019
 30
0.0
 40
20.249999999994628
 50
290.44017579229183
 51
292.75982420770799
  0
ARC
  5
13346
  8
MSM_CONTINUOUS
 10
28.02606852668686
 20
11.71509351876113
 30
0.0
 40
0.1499999999999934
 50
292.7598242077122
 51
350.53661320821442
  0
ARC
  5
13347
  8
MSM_CONTINUOUS
 10
22.009084225495631
 20
12.71803914002601
 30
0.0
 40
6.249999999999674
 50
350.53661320819748
 51
5.2000000000000028
  0
ARC
  5
13348
  8
MSM_CONTINUOUS
 10
27.011158263912471
 20
13.17326353863303
 30
0.0
 40
1.2272543426036251
 50
5.1999999999995961
 51
20.744158182305942
  0
ARC
  5
13349
  8
MSM_CONTINUOUS
 10
33.355870882543726
 20
15.57141559450624
 30
0.0
 40
5.5555560000005704
 50
189.95475938063211
 51
200.6968531439606
  0
ARC
  5
1334A
  8
MSM_CONTINUOUS
 10
28.622664651148991
 20
14.740676622128261
 30
0.0
 40
0.7499999999999888
 50
118.3622793613627
 51
189.95475938063171
  0
ARC
  5
1334B
  8
MSM_CONTINUOUS
 10
20.250000000103199
 20
30.249999999813081
 30
0.0
 40
16.874999999786489
 50
298.36226663894331
 51
299.23773396448621
  0
ARC
  5
1334C
  8
MSM_CONTINUOUS
 10
28.858656768119221
 20
14.870414386313509
 30
0.0
 40
0.7499999999999958
 50
47.64524061936276
 51
119.2377070614168
  0
ARC
  5
1334D
  8
MSM_CONTINUOUS
 10
25.621061929995559
 20
11.31916838902093
 30
0.0
 40
5.555555999999533
 50
36.903146856076731
 51
47.645240619368259
  0
ARC
  5
1334E
  8
MSM_CONTINUOUS
 10
31.045555707872762
 20
15.391192302244891
 30
0.0
 40
1.2272543426038161
 50
216.8558418175196
 51
232.3999999999983
  0
ARC
  5
1334F
  8
MSM_CONTINUOUS
 10
34.110159680239242
 20
19.37066166780744
 30
0.0
 40
6.2500000000003002
 50
232.40000000000049
 51
247.06338679180189
  0
ARC
  5
13350
  8
MSM_CONTINUOUS
 10
31.732913262486608
 20
13.752948657223319
 30
0.0
 40
0.1499999999999834
 50
247.06338679179149
 51
304.84017579229157
  0
ARC
  5
13351
  8
MSM_CONTINUOUS
 10
20.250000000006271
 20
30.24999999999126
 30
0.0
 40
20.249999999989249
 50
304.8401757922918
 51
307.15982420770871
  0
ARC
  5
13352
  8
MSM_CONTINUOUS
 10
32.39121283616165
 20
14.231231293666051
 30
0.0
 40
0.1499999999999921
 50
307.15982420771172
 51
4.9366132082122176
  0
ARC
  5
13353
  8
MSM_CONTINUOUS
 10
26.313840727866982
 20
13.706304387014789
 30
0.0
 40
6.2500000000003491
 50
4.9366132081984082
 51
19.600001092829729
  0
ARC
  5
13354
  8
MSM_CONTINUOUS
 10
31.04555570787274
 20
15.3911923022448
 30
0.0
 40
1.2272543426034961
 50
19.600005565421888
 51
35.144158182244396
  0
ARC
  5
13355
  8
MSM_CONTINUOUS
 10
36.594541348299067
 20
19.29186786660992
 30
0.0
 40
5.5555559999996023
 50
204.35475938063129
 51
215.09685314397541
  0
ARC
  5
13356
  8
MSM_CONTINUOUS
 10
32.216633875726018
 20
17.31012756305822
 30
0.0
 40
0.7499999999999968
 50
132.7622793613628
 51
204.35475938063061
  0
ARC
  5
13357
  8
MSM_CONTINUOUS
 10
20.25000000004324
 20
30.249999999954468
 30
0.0
 40
16.874999999937209
 50
312.76226663894732
 51
313.63773396448238
  0
ARC
  5
13358
  8
MSM_CONTINUOUS
 10
32.412947396446221
 20
17.49447822975166
 30
0.0
 40
0.7499999999999906
 50
62.045240619363177
 51
133.63770706141611
  0
ARC
  5
13359
  8
MSM_CONTINUOUS
 10
30.16022652004386
 20
13.24964406076989
 30
0.0
 40
5.5555559999997914
 50
51.303146856010962
 51
62.045240619368137
  0
ARC
  5
1335A
  8
MSM_CONTINUOUS
 10
34.401628683430587
 20
18.542754600378579
 30
0.0
 40
1.227254342603703
 50
231.25584181781781
 51
246.79999999999791
  0
ARC
  5
1335B
  8
MSM_CONTINUOUS
 10
36.380298699094908
 20
23.15933763418235
 30
0.0
 40
6.2500000000000444
 50
246.80000000000001
 51
261.46338679180212
  0
ARC
  5
1335C
  8
MSM_CONTINUOUS
 10
35.474806263733107
 20
17.126918264683638
 30
0.0
 40
0.1499999999999842
 50
261.46338679179001
 51
319.24017579229309
  0
ARC
  5
1335D
  8
MSM_CONTINUOUS
 10
20.250000000007152
 20
30.24999999999396
 30
0.0
 40
20.249999999990639
 50
319.24017579229189
 51
321.55982420770857
  0
ARC
  5
1335E
  8
MSM_CONTINUOUS
 10
35.993480090883068
 20
17.753887219300189
 30
0.0
 40
0.1499999999999801
 50
321.55982420770562
 51
19.3366132082141
  0
ARC
  5
1335F
  8
MSM_CONTINUOUS
 10
30.23758381606131
 20
15.734070872824001
 30
0.0
 40
6.2499999999999423
 50
19.33661320819796
 51
34.000001338438182
  0
ARC
  5
13360
  8
MSM_CONTINUOUS
 10
34.401628683430609
 20
18.542754600378569
 30
0.0
 40
1.22725434260354
 50
34.000006816222623
 51
49.544158182244722
  0
ARC
  5
13361
  8
MSM_CONTINUOUS
 10
38.80622417012377
 20
23.70085988184589
 30
0.0
 40
5.5555559999999948
 50
218.7547593806317
 51
229.4968531439751
  0
ARC
  5
13362
  8
MSM_CONTINUOUS
 10
35.058695483690343
 20
20.69263827872312
 30
0.0
 40
0.7499999999999996
 50
147.16228043140339
 51
218.75475938063141
  0
ARC
  5
13363
  8
MSM_CONTINUOUS
 10
20.24999999993128
 20
30.25000000004383
 30
0.0
 40
16.87500000008151
 50
327.1622665913942
 51
328.03773167485639
  0
ARC
  5
13364
  8
MSM_CONTINUOUS
 10
35.202995307663038
 20
20.920018417542071
 30
0.0
 40
0.7499999999999926
 50
76.445240619363361
 51
148.0377585779276
  0
ARC
  5
13365
  8
MSM_CONTINUOUS
 10
34.076695130574187
 20
16.24831461911592
 30
0.0
 40
5.5555560000003661
 50
65.703146856077637
 51
76.445240619367581
  0
ARC
  5
13366
  8
MSM_CONTINUOUS
 10
36.868502782758831
 20
22.429926183207151
 30
0.0
 40
1.2272543426034961
 50
245.65584181751811
 51
261.20000000000039
  0
ARC
  5
13367
  8
MSM_CONTINUOUS
 10
37.636911727597649
 20
27.393545994633641
 30
0.0
 40
6.249999999999841
 50
261.19999999999982
 51
275.86338679180261
  0
ARC
  5
13368
  8
MSM_CONTINUOUS
 10
38.260068694508568
 20
21.325459360892449
 30
0.0
 40
0.1499999999999971
 50
275.86338679179312
 51
333.64017579228999
  0
ARC
  5
13369
  8
MSM_CONTINUOUS
 10
20.249999999983661
 20
30.250000000007681
 30
0.0
 40
20.250000000018051
 50
333.64017579229329
 51
335.95982420770679
  0
ARC
  5
1336A
  8
MSM_CONTINUOUS
 10
38.606526591024711
 20
22.061719868433741
 30
0.0
 40
0.1499999999999929
 50
335.9598242077102
 51
33.736613208212177
  0
ARC
  5
1336B
  8
MSM_CONTINUOUS
 10
33.533770281328081
 20
18.67392657154636
 30
0.0
 40
6.2500000000001661
 50
33.73661320819825
 51
48.399999999999743
  0
ARC
  5
1336C
  8
MSM_CONTINUOUS
 10
36.868502782758817
 20
22.42992618320724
 30
0.0
 40
1.227254342603685
 50
48.399999999999032
 51
63.94415818224158
  0
ARC
  5
1336D
  8
MSM_CONTINUOUS
 10
39.851951182320711
 20
28.52135845675804
 30
0.0
 40
5.555556000000287
 50
233.15475938063179
 51
243.89685314397491
  0
ARC
  5
1336E
  8
MSM_CONTINUOUS
 10
36.970272291842129
 20
24.675673180853511
 30
0.0
 40
0.7500000000000079
 50
161.56228043140311
 51
233.15475938062971
  0
ARC
  5
1336F
  8
MSM_CONTINUOUS
 10
20.24999999985241
 20
30.250000000047859
 30
0.0
 40
16.875000000155151
 50
341.56226659139708
 51
342.43773167485551
  0
ARC
  5
13370
  8
MSM_CONTINUOUS
 10
37.05349153042949
 20
24.9317956614303
 30
0.0
 40
0.7500000000000013
 50
90.845240619363494
 51
162.43775857792809
  0
ARC
  5
13371
  8
MSM_CONTINUOUS
 10
37.124381635023227
 20
20.126762564539789
 30
0.0
 40
5.5555560000006832
 50
80.103146856077899
 51
90.845240619367175
  0
ARC
  5
13372
  8
MSM_CONTINUOUS
 10
38.291175233668582
 20
26.808461764164932
 30
0.0
 40
1.2272543426037601
 50
260.05584181751891
 51
275.59999999999781
  0
ARC
  5
13373
  8
MSM_CONTINUOUS
 10
37.801041147667142
 20
31.807235865545351
 30
0.0
 40
6.2499999999999281
 50
275.60000000000019
 51
290.26338679180247
  0
ARC
  5
13374
  8
MSM_CONTINUOUS
 10
39.913692272808753
 20
26.084762167620902
 30
0.0
 40
0.1499999999999885
 50
290.26338679179111
 51
348.04017579229242
  0
ARC
  5
13375
  8
MSM_CONTINUOUS
 10
20.250000000006072
 20
30.24999999999871
 30
0.0
 40
20.249999999993801
 50
348.0401757922923
 51
350.35982420770853
  0
ARC
  5
13376
  8
MSM_CONTINUOUS
 10
40.066165014869888
 20
26.884052272621361
 30
0.0
 40
0.150000000000032
 50
350.35982420771637
 51
48.136613208202888
  0
ARC
  5
13377
  8
MSM_CONTINUOUS
 10
35.995288605529971
 20
22.341149537599179
 30
0.0
 40
6.249999999999396
 50
48.136613208197403
 51
62.80000133843901
  0
ARC
  5
13378
  8
MSM_CONTINUOUS
 10
38.291175233668632
 20
26.808461764164971
 30
0.0
 40
1.227254342603439
 50
62.800006816221483
 51
78.344158182306828
  0
ARC
  5
13379
  8
MSM_CONTINUOUS
 10
39.666015510798481
 20
33.450473937330287
 30
0.0
 40
5.5555559999998074
 50
247.55475938063151
 51
258.29685314396153
  0
ARC
  5
1337A
  8
MSM_CONTINUOUS
 10
37.831252899037459
 20
29.00896353797085
 30
0.0
 40
0.7499999999999945
 50
175.9622804314034
 51
247.5547593806306
  0
ARC
  5
1337B
  8
MSM_CONTINUOUS
 10
37.848162581420141
 20
29.277735242898249
 30
0.0
 40
0.750000000000023
 50
105.24524061936449
 51
176.83775857792389
  0
ARC
  5
1337C
  8
MSM_CONTINUOUS
 10
39.11178868170925
 20
24.641290748697561
 30
0.0
 40
5.5555559999999957
 50
94.503146856077507
 51
105.245240619368
  0
ARC
  5
1337D
  8
MSM_CONTINUOUS
 10
38.580254293845627
 20
31.40324184957224
 30
0.0
 40
1.2272543426037781
 50
274.455841817519
 51
289.99999999999829
  0
ARC
  5
1337E
  8
MSM_CONTINUOUS
 10
36.86237410421456
 20
36.12307887991193
 30
0.0
 40
6.2500000000000044
 50
289.99999999999989
 51
304.66338679180222
  0
ARC
  5
1337F
  8
MSM_CONTINUOUS
 10
40.331773747606853
 20
31.105782186030911
 30
0.0
 40
0.1499999999999993
 50
304.66338679179643
 51
2.4401757922924121
  0
ARC
  5
13380
  8
MSM_CONTINUOUS
 10
20.250000000009639
 20
30.250000000000519
 30
0.0
 40
20.249999999990351
 50
2.4401757922918921
 51
4.7598242077087072
  0
ARC
  5
13381
  8
MSM_CONTINUOUS
 10
40.28068091207389
 20
31.917879551610032
 30
0.0
 40
0.1499999999999905
 50
4.7598242077188297
 51
62.536613208213652
  0
ARC
  5
13382
  8
MSM_CONTINUOUS
 10
37.467472539524778
 20
26.505314664920949
 30
0.0
 40
6.2499999999999947
 50
62.536613208198027
 51
77.199999999999804
  0
ARC
  5
13383
  8
MSM_CONTINUOUS
 10
38.580254293845627
 20
31.403241849572009
 30
0.0
 40
1.227254342603697
 50
77.199999999999136
 51
92.744158182366917
  0
ARC
  5
13384
  8
MSM_CONTINUOUS
 10
38.260100177623031
 20
38.178491869900753
 30
0.0
 40
5.5555559999998421
 50
261.95475938063129
 51
272.69685314394741
  0
ARC
  5
13385
  8
MSM_CONTINUOUS
 10
37.587538727261098
 20
33.420232780210313
 30
0.0
 40
0.7499999999999779
 50
190.36228278879969
 51
261.95475938063248
  0
ARC
  5
13386
  8
MSM_CONTINUOUS
 10
20.249999999944631
 20
30.249999999989068
 30
0.0
 40
16.875000000056431
 50
10.362266486622239
 51
11.23773281967032
  0
ARC
  5
13387
  8
MSM_CONTINUOUS
 10
37.537076355905562
 20
33.684765794794608
 30
0.0
 40
0.750000000000004
 50
119.6452406193692
 51
191.2377328196732
  0
ARC
  5
13388
  8
MSM_CONTINUOUS
 10
39.914040176716973
 20
29.508234762503871
 30
0.0
 40
5.5555559999997959
 50
108.90314685601091
 51
119.645240619368
  0
ARC
  5
13389
  8
MSM_CONTINUOUS
 10
37.717576062780928
 20
35.925559508243751
 30
0.0
 40
1.227254342603401
 50
288.85584181781581
 51
304.39999999999958
  0
ARC
  5
1338A
  8
MSM_CONTINUOUS
 10
34.879890499755952
 20
40.069894748580353
 30
0.0
 40
6.2499999999999938
 50
304.40000000000009
 51
319.06338679180232
  0
ARC
  5
1338B
  8
MSM_CONTINUOUS
 10
39.488043522245341
 20
36.073030262345881
 30
0.0
 40
0.1499999999999549
 50
319.06338679178123
 51
16.8401757922996
  0
ARC
  5
1338C
  8
MSM_CONTINUOUS
 10
20.250000000002021
 20
30.250000000000529
 30
0.0
 40
20.249999999997922
 50
16.84017579229246
 51
19.15982420770829
  0
ARC
  5
1338D
  8
MSM_CONTINUOUS
 10
39.236595459880988
 20
36.846907824339112
 30
0.0
 40
0.1499999999999915
 50
19.159824207709072
 51
76.936613208213842
  0
ARC
  5
1338E
  8
MSM_CONTINUOUS
 10
37.857819352426993
 20
30.90477214383543
 30
0.0
 40
6.2500000000000764
 50
76.936613208197926
 51
91.599999999999653
  0
ARC
  5
1338F
  8
MSM_CONTINUOUS
 10
37.717576062780857
 20
35.925559508243637
 30
0.0
 40
1.2272543426039251
 50
91.600000000001842
 51
107.1441581823788
  0
ARC
  5
13390
  8
MSM_CONTINUOUS
 10
35.72254401377235
 20
42.408333499331803
 30
0.0
 40
5.5555559999997257
 50
276.35475938063138
 51
287.09685314394511
  0
ARC
  5
13391
  8
MSM_CONTINUOUS
 10
36.254443234243801
 20
37.632304637568581
 30
0.0
 40
0.7500000000000008
 50
204.76228278879989
 51
276.3547593806307
  0
ARC
  5
13392
  8
MSM_CONTINUOUS
 10
20.25000000002219
 20
30.250000000010601
 30
0.0
 40
16.874999999975412
 50
24.762266486618479
 51
25.637732819670731
  0
ARC
  5
13393
  8
MSM_CONTINUOUS
 10
36.139779545529848
 20
37.875977379619052
 30
0.0
 40
0.7500000000000032
 50
134.04524061936991
 51
205.637732819673
  0
ARC
  5
13394
  8
MSM_CONTINUOUS
 10
39.480727708141181
 20
34.421786614202951
 30
0.0
 40
5.5555560000006157
 50
123.3031468560781
 51
134.04524061936749
  0
ARC
  5
13395
  8
MSM_CONTINUOUS
 10
35.757345786440368
 20
40.091260889765167
 30
0.0
 40
1.2272543426037581
 50
303.2558418175189
 51
318.79999999999768
  0
ARC
  5
13396
  8
MSM_CONTINUOUS
 10
31.978157070224491
 20
43.399690515148663
 30
0.0
 40
6.2499999999995879
 50
318.79999999999973
 51
333.46338679180292
  0
ARC
  5
13397
  8
MSM_CONTINUOUS
 10
37.435516269806193
 20
40.674395931670411
 30
0.0
 40
0.150000000000005
 50
333.46338679179308
 51
31.240175792286671
  0
ARC
  5
13398
  8
MSM_CONTINUOUS
 10
20.249999999994461
 20
30.249999999996479
 30
0.0
 40
20.250000000006569
 50
31.240175792292639
 51
33.559824207707429
  0
ARC
  5
13399
  8
MSM_CONTINUOUS
 10
36.999512387130203
 20
41.361428116735098
 30
0.0
 40
0.1500000000000166
 50
33.559824207712623
 51
91.336613208206742
  0
ARC
  5
1339A
  8
MSM_CONTINUOUS
 10
37.141802118386543
 20
35.263087880869243
 30
0.0
 40
6.250000000000143
 50
91.336613208198315
 51
105.9999999999998
  0
ARC
  5
1339B
  8
MSM_CONTINUOUS
 10
35.757345786440219
 20
40.091260889765508
 30
0.0
 40
1.2272543426031091
 50
105.99999999999559
 51
121.54415818253889
  0
ARC
  5
1339C
  8
MSM_CONTINUOUS
 10
32.212791005500151
 20
45.874222319776962
 30
0.0
 40
5.555555999999422
 50
290.75475938063067
 51
301.49685314391053
  0
ARC
  5
1339D
  8
MSM_CONTINUOUS
 10
33.915729712594079
 20
41.380519144331132
 30
0.0
 40
0.7499999999999912
 50
219.1622827887993
 51
290.75475938063198
  0
ARC
  5
1339E
  8
MSM_CONTINUOUS
 10
20.250000000021679
 20
30.2500000000183
 30
0.0
 40
16.874999999971639
 50
39.162266486617902
 51
40.037731674858911
  0
ARC
  5
1339F
  8
MSM_CONTINUOUS
 10
33.744069447787098
 20
41.58802075929902
 30
0.0
 40
0.7499999999999825
 50
148.44524061936389
 51
220.03775857792979
  0
ARC
  5
133A0
  8
MSM_CONTINUOUS
 10
37.83907789199268
 20
39.073209770174962
 30
0.0
 40
5.5555559999997914
 50
137.70314685607721
 51
148.44524061936789
  0
ARC
  5
133A1
  8
MSM_CONTINUOUS
 10
32.822731942309687
 20
43.638599655956483
 30
0.0
 40
1.2272543426036271
 50
317.65584181751728
 51
333.19999999999749
  0
ARC
  5
133A2
  8
MSM_CONTINUOUS
 10
28.339500398825852
 20
45.903242865471761
 30
0.0
 40
6.2499999999998082
 50
333.1999999999997
 51
347.86338679180272
  0
ARC
  5
133A3
  8
MSM_CONTINUOUS
 10
34.303159826227528
 20
44.62075846636165
 30
0.0
 40
0.1499999999999917
 50
347.86338679178971
 51
45.640175792292659
  0
ARC
  5
133A4
  8
MSM_CONTINUOUS
 10
20.249999999988169
 20
30.249999999987232
 30
0.0
 40
20.250000000017401
 50
45.64017579229354
 51
47.959824207707179
  0
ARC
  5
133A5
  8
MSM_CONTINUOUS
 10
33.709995850698483
 20
45.177776515582607
 30
0.0
 40
0.1499999999999959
 50
47.959824207708152
 51
105.736613208213
  0
ARC
  5
133A6
  8
MSM_CONTINUOUS
 10
35.364410833545222
 20
39.306412869500612
 30
0.0
 40
6.2500000000000817
 50
105.73661320819809
 51
120.39999999999981
  0
ARC
  5
133A7
  8
MSM_CONTINUOUS
 10
32.822731942309623
 20
43.638599655956519
 30
0.0
 40
1.2272543426035321
 50
120.3999999999989
 51
135.9441581825057
  0
ARC
  5
133A8
  8
MSM_CONTINUOUS
 10
27.951371842284129
 20
48.35838379000112
 30
0.0
 40
5.5555560000000579
 50
305.15475938063162
 51
315.89685314391681
  0
ARC
  5
133A9
  8
MSM_CONTINUOUS
 10
30.718348134063859
 20
44.42936219806942
 30
0.0
 40
0.7499999999999991
 50
233.5622836177798
 51
305.15475938063111
  0
ARC
  5
133AA
  8
MSM_CONTINUOUS
 10
20.250000000033779
 20
30.250000000046331
 30
0.0
 40
16.87499999994267
 50
53.562266449774917
 51
54.437731674860963
  0
ARC
  5
133AB
  8
MSM_CONTINUOUS
 10
30.500477338924071
 20
44.587654596348777
 30
0.0
 40
0.7500000000000044
 50
162.8452406193642
 51
234.43775857792849
  0
ARC
  5
133AC
  8
MSM_CONTINUOUS
 10
35.092241623787423
 20
43.170238206790557
 30
0.0
 40
5.5555559999998918
 50
152.1031468560773
 51
162.8452406193681
  0
ARC
  5
133AD
  8
MSM_CONTINUOUS
 10
29.098127110969859
 20
46.344683465939021
 30
0.0
 40
1.2272543426037761
 50
332.05584181751919
 51
347.59999999999769
  0
ARC
  5
133AE
  8
MSM_CONTINUOUS
 10
24.192550666267419
 20
47.423244397956942
 30
0.0
 40
6.2500000000002043
 50
347.60000000000008
 51
2.263386791801846
  0
ARC
  5
133AF
  8
MSM_CONTINUOUS
 10
30.287791666860489
 20
47.664153394658811
 30
0.0
 40
0.1499999999999794
 50
2.2633867917891188
 51
60.040175792290789
  0
ARC
  5
133B0
  8
MSM_CONTINUOUS
 10
20.250000000019948
 20
30.250000000036049
 30
0.0
 40
20.249999999958799
 50
60.040175792290192
 51
62.359824207710503
  0
ARC
  5
133B1
  8
MSM_CONTINUOUS
 10
29.574738272565391
 20
48.05615781543441
 30
0.0
 40
0.1499999999999624
 50
62.359824207698111
 51
120.1366132082202
  0
ARC
  5
133B2
  8
MSM_CONTINUOUS
 10
32.637325529117639
 20
42.780690130384507
 30
0.0
 40
6.2500000000001119
 50
120.1366132081981
 51
134.79999999999961
  0
ARC
  5
133B3
  8
MSM_CONTINUOUS
 10
29.09812711096972
 20
46.344683465939191
 30
0.0
 40
1.227254342603266
 50
134.79999999999831
 51
150.3441581825081
  0
ARC
  5
133B4
  8
MSM_CONTINUOUS
 10
23.206047162553212
 20
49.704728908722032
 30
0.0
 40
5.5555560000001822
 50
319.55475938063199
 51
330.29685314391691
  0
ARC
  5
133B5
  8
MSM_CONTINUOUS
 10
26.86320174237909
 20
46.587263776856673
 30
0.0
 40
0.7500000000000016
 50
247.9622836177802
 51
319.55475938063091
  0
ARC
  5
133B6
  8
MSM_CONTINUOUS
 10
20.250000000075278
 20
30.25000000018936
 30
0.0
 40
16.874999999796231
 50
67.962266449771761
 51
68.837731674865438
  0
ARC
  5
133B7
  8
MSM_CONTINUOUS
 10
26.612810040237829
 20
46.686400864904883
 30
0.0
 40
0.7499999999999978
 50
177.24524061936421
 51
248.8377585779277
  0
ARC
  5
133B8
  8
MSM_CONTINUOUS
 10
31.412812728412781
 20
46.455440559561382
 30
0.0
 40
5.5555559999994717
 50
166.5031468560768
 51
177.2452406193685
  0
ARC
  5
133B9
  8
MSM_CONTINUOUS
 10
24.817561912112531
 20
48.039479121651347
 30
0.0
 40
1.2272543426039371
 50
346.45584181751963
 51
1.9999999999962299
  0
ARC
  5
133BA
  8
MSM_CONTINUOUS
 10
19.797875975660631
 20
47.864187826143421
 30
0.0
 40
6.2500000000002851
 50
2.0000000000001701
 51
16.663386791801919
  0
ARC
  5
133BB
  8
MSM_CONTINUOUS
 10
25.64171214064919
 20
49.613353020393369
 30
0.0
 40
0.1499999999999855
 50
16.66338679178099
 51
74.440175792288485
  0
ARC
  5
133BC
  8
MSM_CONTINUOUS
 10
20.24999999999693
 20
30.24999999998801
 30
0.0
 40
20.250000000012381
 50
74.440175792292948
 51
76.759824207707098
  0
ARC
  5
133BD
  8
MSM_CONTINUOUS
 10
24.85357309477855
 20
49.815712733274758
 30
0.0
 40
0.1500000000000174
 50
76.759824207711034
 51
134.536613208208
  0
ARC
  5
133BE
  8
MSM_CONTINUOUS
 10
29.131899004298909
 20
45.467618045721871
 30
0.0
 40
6.2499999999999192
 50
134.53661320819779
 51
149.1999999999999
  0
ARC
  5
133BF
  8
MSM_CONTINUOUS
 10
24.81756191211278
 20
48.039479121651318
 30
0.0
 40
1.227254342603558
 50
149.19999999999919
 51
164.74415818250631
  0
ARC
  5
133C0
  8
MSM_CONTINUOUS
 10
18.274983168018611
 20
49.828661860619732
 30
0.0
 40
5.5555559999997319
 50
333.95475938063151
 51
344.69685314391779
  0
ARC
  5
133C1
  8
MSM_CONTINUOUS
 10
22.592523563565958
 20
47.718634988290788
 30
0.0
 40
0.7499999999999921
 50
262.36228361777921
 51
333.95475938063061
  0
ARC
  5
133C2
  8
MSM_CONTINUOUS
 10
20.250000000014481
 20
30.25000000011817
 30
0.0
 40
16.874999999880959
 50
82.362266449771454
 51
83.237732819672175
  0
ARC
  5
133C3
  8
MSM_CONTINUOUS
 10
22.32534398594504
 20
47.752387618265139
 30
0.0
 40
0.7499999999999854
 50
191.645240619367
 51
263.23773281967237
  0
ARC
  5
133C4
  8
MSM_CONTINUOUS
 10
27.03198325535919
 20
48.722395482533507
 30
0.0
 40
5.555555999999763
 50
180.90314685594501
 51
191.645240619368
  0
ARC
  5
133C5
  8
MSM_CONTINUOUS
 10
20.250000000000071
 20
48.616496379022657
 30
0.0
 40
1.22725434260355
 50
0.8558418181155886
 51
16.399999999999959
  0
ARC
  5
133C6
  8
MSM_CONTINUOUS
 10
15.431609900298859
 20
47.198367052761917
 30
0.0
 40
6.2500000000004494
 50
16.400000000000642
 51
31.063386791801811
  0
ARC
  5
133C7
  8
MSM_CONTINUOUS
 10
20.656851511310741
 20
50.345881962425622
 30
0.0
 40
0.1500000000000226
 50
31.063386791805058
 51
88.840181303374962
  0
LINE
  5
13414
  8
MSM_CENTER
 10
54.499999999999993
 20
30.249999999999989
 30
0.0
 11
71.5
 21
30.249999999999989
 31
0.0
  0
LINE
  5
1342A
  8
MSM_CONTINUOUS
 10
70.366025403789678
 20
50.499999999999979
 30
0.0
 11
70.5
 21
49.999999999999993
 31
0.0
  0
LINE
  5
1342B
  8
MSM_CONTINUOUS
 10
55.633974596210322
 20
50.499999999980432
 30
0.0
 11
70.366025403789678
 21
50.499999999999979
 31
0.0
  0
LINE
  5
1342E
  8
MSM_CONTINUOUS
 10
55.5
 20
49.999999999999993
 30
0.0
 11
55.633974596210322
 21
50.499999999980432
 31
0.0
  0
LINE
  5
13432
  8
MSM_CONTINUOUS
 10
70.5
 20
49.999999999999993
 30
0.0
 11
70.5
 21
10.49999999999998
 31
0.0
  0
LINE
  5
13436
  8
MSM_CONTINUOUS
 10
55.5
 20
10.49999999999998
 30
0.0
 11
55.5
 21
49.999999999999993
 31
0.0
  0
LINE
  5
13489
  8
MSM_CENTER
 10
113.5
 20
30.25
 30
0.0
 11
84.500000000000014
 21
30.25
 31
0.0
  0
LINE
  5
1349F
  8
MSM_CONTINUOUS
 10
100.5
 20
15.25
 30
0.0
 11
100.5
 21
10.5
 31
0.0
  0
LINE
  5
134A0
  8
MSM_CONTINUOUS
 10
112.2
 20
15.25000000000005
 30
0.0
 11
100.5
 21
15.25
 31
0.0
  0
LINE
  5
134A1
  8
MSM_CONTINUOUS
 10
112.5
 20
15.54999999999999
 30
0.0
 11
112.2
 21
15.25000000000005
 31
0.0
  0
LINE
  5
134A2
  8
MSM_CONTINUOUS
 10
112.5
 20
44.949999999999989
 30
0.0
 11
112.5
 21
15.54999999999999
 31
0.0
  0
LINE
  5
134A6
  8
MSM_CONTINUOUS
 10
85.5
 20
10.50000000000011
 30
0.0
 11
85.5
 21
49.999999999999893
 31
0.0
  0
LINE
  5
134A7
  8
MSM_CONTINUOUS
 10
85.633974596210336
 20
10.000000000019559
 30
0.0
 11
85.5
 21
10.50000000000011
 31
0.0
  0
LINE
  5
134A8
  8
MSM_CONTINUOUS
 10
100.36602540378971
 20
10.0
 30
0.0
 11
85.633974596210336
 21
10.000000000019559
 31
0.0
  0
LINE
  5
134A9
  8
MSM_CONTINUOUS
 10
100.5
 20
10.5
 30
0.0
 11
100.36602540378971
 21
10.0
 31
0.0
  0
LINE
  5
134AA
  8
MSM_CONTINUOUS
 10
100.5
 20
45.25
 30
0.0
 11
112.2
 21
45.249999999999943
 31
0.0
  0
LINE
  5
134B2
  8
MSM_CONTINUOUS
 10
112.2
 20
45.249999999999943
 30
0.0
 11
112.5
 21
44.949999999999989
 31
0.0
  0
CIRCLE
  5
134B4
  8
MSM_CENTER
 10
20.25
 20
30.25
 30
0.0
 40
18.75
  0
LINE
  5
134BA
  8
MSM_CONTINUOUS
 10
100.5
 20
45.25
 30
0.0
 11
100.5
 21
50.0
 31
0.0
  0
LINE
  5
134BB
  8
MSM_CONTINUOUS
 10
85.633974596210336
 20
50.499999999980439
 30
0.0
 11
85.5
 21
49.999999999999893
 31
0.0
  0
LINE
  5
134BC
  8
MSM_CONTINUOUS
 10
100.36602540378971
 20
50.5
 30
0.0
 11
85.633974596210336
 21
50.499999999980439
 31
0.0
  0
LINE
  5
134BD
  8
MSM_CONTINUOUS
 10
100.5
 20
50.0
 30
0.0
 11
100.36602540378971
 21
50.5
 31
0.0
  0
LINE
  5
134BE
  8
MSM_CONTINUOUS
 10
100.5
 20
47.125
 30
0.0
 11
85.5
 21
47.125
 31
0.0
  0
LINE
  5
134C0
  8
MSM_CENTER
 10
101.5
 20
49.0
 30
0.0
 11
84.500000000000014
 21
49.0
 31
0.0
  0
LINE
  5
134C1
  8
MSM_CONTINUOUS
 10
70.5
 20
47.125
 30
0.0
 11
55.5
 21
47.125
 31
0.0
  0
LINE
  5
134C2
  8
MSM_CENTER
 10
71.5
 20
49.0
 30
0.0
 11
54.5
 21
49.0
 31
0.0
  0
LINE
  5
134CA
  8
MSM_CONTINUOUS
 10
70.366025403789678
 20
9.9999999999999858
 30
0.0
 11
70.5
 21
10.49999999999998
 31
0.0
  0
LINE
  5
134CB
  8
MSM_CONTINUOUS
 10
55.633974596210322
 20
10.00000000001954
 30
0.0
 11
70.366025403789678
 21
9.9999999999999858
 31
0.0
  0
LINE
  5
134CC
  8
MSM_CONTINUOUS
 10
55.5
 20
10.49999999999998
 30
0.0
 11
55.633974596210322
 21
10.00000000001954
 31
0.0
  0
LINE
  5
134CD
  8
MSM_CONTINUOUS
 10
70.5
 20
13.37499999999997
 30
0.0
 11
55.5
 21
13.37499999999997
 31
0.0
  0
LINE
  5
134CE
  8
MSM_CENTER
 10
71.5
 20
11.49999999999997
 30
0.0
 11
54.5
 21
11.49999999999997
 31
0.0
  0
LINE
  5
134CF
  8
MSM_CENTER
 10
101.5
 20
11.49999999999997
 30
0.0
 11
84.500000000000014
 21
11.49999999999997
 31
0.0
  0
LINE
  5
134D0
  8
MSM_CONTINUOUS
 10
100.5
 20
13.37499999999997
 30
0.0
 11
85.5
 21
13.37499999999997
 31
0.0
  0
LINE
  5
13591
  8
MSM_CONTINUOUS
 10
21.75
 20
35.450000002980232
 30
0.0
 11
21.75
 21
33.958099243547842
 31
0.0
  0
LINE
  5
13592
  8
MSM_CONTINUOUS
 10
18.75
 20
33.958099243547842
 30
0.0
 11
18.75
 21
35.450000000000017
 31
0.0
  0
ARC
  5
13593
  8
MSM_CONTINUOUS
 10
18.949999999999999
 20
35.450000000000017
 30
0.0
 40
0.200000000000002
 50
90.0
 51
180.0
  0
LINE
  5
13594
  8
MSM_CONTINUOUS
 10
18.949999999999999
 20
35.650000000000013
 30
0.0
 11
21.550000000000001
 21
35.650000000000013
 31
0.0
  0
ARC
  5
13595
  8
MSM_CONTINUOUS
 10
21.550000000000001
 20
35.450000000000017
 30
0.0
 40
0.1999999999999998
 50
0.000000853772832
 51
90.0
  0
ARC
  5
13596
  8
MSM_CONTINUOUS
 10
20.25
 20
30.25
 30
0.0
 40
3.999999999999996
 50
112.0243128370421
 51
67.975687162957854
  0
ARC
  5
13597
  8
MSM_CONTINUOUS
 10
20.25
 20
30.25
 30
0.0
 40
4.299999999999998
 50
110.4162101289144
 51
69.583789871085585
  0
LINE
  5
13598
  8
MSM_CONTINUOUS
 10
55.799999999999997
 20
34.25000000000697
 30
0.0
 11
55.799999999999997
 21
26.249999999993118
 31
0.0
  0
LINE
  5
13599
  8
MSM_CONTINUOUS
 10
70.200000000000017
 20
34.25000000000697
 30
0.0
 11
70.200000000000017
 21
26.249999999993118
 31
0.0
  0
LINE
  5
1359A
  8
MSM_CONTINUOUS
 10
70.5
 20
25.949999999993128
 30
0.0
 11
70.200000000000017
 21
26.249999999993118
 31
0.0
  0
LINE
  5
1359B
  8
MSM_CONTINUOUS
 10
70.200000000000017
 20
26.249999999993118
 30
0.0
 11
55.799999999999997
 21
26.249999999993118
 31
0.0
  0
LINE
  5
1359C
  8
MSM_CONTINUOUS
 10
55.799999999999997
 20
26.249999999993118
 30
0.0
 11
55.5
 21
25.949999999993111
 31
0.0
  0
LINE
  5
1359D
  8
MSM_CONTINUOUS
 10
70.5
 20
34.55000000000696
 30
0.0
 11
70.200000000000017
 21
34.25000000000697
 31
0.0
  0
LINE
  5
1359E
  8
MSM_CONTINUOUS
 10
70.200000000000017
 20
34.25000000000697
 30
0.0
 11
55.799999999999997
 21
34.25000000000697
 31
0.0
  0
LINE
  5
1359F
  8
MSM_CONTINUOUS
 10
55.799999999999997
 20
34.25000000000697
 30
0.0
 11
55.5
 21
34.55000000000696
 31
0.0
  0
LINE
  5
135A0
  8
MSM_CONTINUOUS
 10
55.5
 20
35.649999999993128
 30
0.0
 11
70.5
 21
35.649999999993128
 31
0.0
  0
LINE
  5
135A1
  8
MSM_CONTINUOUS
 10
85.799999999999983
 20
34.250000000007013
 30
0.0
 11
85.799999999999983
 21
26.249999999993172
 31
0.0
  0
LINE
  5
135A2
  8
MSM_CONTINUOUS
 10
112.2
 20
34.250000000007049
 30
0.0
 11
112.2
 21
26.249999999993211
 31
0.0
  0
LINE
  5
135A3
  8
MSM_CONTINUOUS
 10
112.5
 20
25.949999999993221
 30
0.0
 11
112.2
 21
26.249999999993211
 31
0.0
  0
LINE
  5
135A4
  8
MSM_CONTINUOUS
 10
112.2
 20
26.249999999993172
 30
0.0
 11
85.799999999999983
 21
26.249999999993172
 31
0.0
  0
LINE
  5
135A5
  8
MSM_CONTINUOUS
 10
85.799999999999983
 20
26.249999999993172
 30
0.0
 11
85.5
 21
25.949999999993171
 31
0.0
  0
LINE
  5
135A6
  8
MSM_CONTINUOUS
 10
112.5
 20
34.550000000007053
 30
0.0
 11
112.2
 21
34.250000000007049
 31
0.0
  0
LINE
  5
135A7
  8
MSM_CONTINUOUS
 10
112.2
 20
34.250000000007013
 30
0.0
 11
85.799999999999983
 21
34.250000000007013
 31
0.0
  0
LINE
  5
135A8
  8
MSM_CONTINUOUS
 10
85.799999999999983
 20
34.250000000007013
 30
0.0
 11
85.5
 21
34.550000000007003
 31
0.0
  0
LINE
  5
135A9
  8
MSM_CONTINUOUS
 10
85.5
 20
35.649999999993163
 30
0.0
 11
112.4999999999999
 21
35.649999999993163
 31
0.0
  0
LINE
  5
135B6
  8
MSM_CENTER
 10
107.5
 20
46.24999999999995
 30
0.0
 11
107.5
 21
34.649999999993163
 31
0.0
  0
LINE
  5
135B7
  8
MSM_NARROW
 10
109.9999999999999
 20
45.24999999999995
 30
0.0
 11
109.9999999999999
 21
35.649999999993163
 31
0.0
  0
LINE
  5
135B8
  8
MSM_CONTINUOUS
 10
109.56699999999989
 20
45.24999999999995
 30
0.0
 11
109.56699999999989
 21
35.649999999993163
 31
0.0
  0
LINE
  5
135B9
  8
MSM_CONTINUOUS
 10
105.43299999999989
 20
45.249999999999972
 30
0.0
 11
105.43299999999989
 21
35.649999999993163
 31
0.0
  0
LINE
  5
135BA
  8
MSM_NARROW
 10
104.9999999999999
 20
45.249999999999972
 30
0.0
 11
104.9999999999999
 21
35.649999999993163
 31
0.0
  0
ENDSEC
  0
EOF
