  0
SECTION
  2
HEADER
  9
$ACADVER
  1
AC1009
  9
$INSBASE
 10
0.0
 20
0.0
 30
0.0
  9
$EXTMIN
 10
-34.92633735534605
 20
-48.827757893513983
 30
0.0
  9
$EXTMAX
 10
42.499999999999773
 20
137.5000000000002
 30
0.0
  9
$LIMMIN
 10
0.0
 20
0.0
  9
$LIMMAX
 10
420.0
 20
297.0
  9
$ORTHOMODE
 70
     1
  9
$REGENMODE
 70
     1
  9
$FILLMODE
 70
     1
  9
$QTEXTMODE
 70
     0
  9
$MIRRTEXT
 70
     0
  9
$DRAGMODE
 70
     2
  9
$LTSCALE
 40
1.0
  9
$OSMODE
 70
    52
  9
$ATTMODE
 70
     1
  9
$TEXTSIZE
 40
3.0
  9
$TRACEWID
 40
1.0
  9
$TEXTSTYLE
  7
STANDARD
  9
$CLAYER
  8
0
  9
$CELTYPE
  6
CONTINUOUS
  9
$CECOLOR
 62
     7
  9
$DIMSCALE
 40
1.0
  9
$DIMASZ
 40
2.5
  9
$DIMEXO
 40
0.625
  9
$DIMDLI
 40
3.75
  9
$DIMRND
 40
0.0
  9
$DIMDLE
 40
0.0
  9
$DIMEXE
 40
1.25
  9
$DIMTP
 40
0.0
  9
$DIMTM
 40
0.0
  9
$DIMTXT
 40
2.5
  9
$DIMCEN
 40
2.5
  9
$DIMTSZ
 40
0.0
  9
$DIMTOL
 70
     0
  9
$DIMLIM
 70
     0
  9
$DIMTIH
 70
     0
  9
$DIMTOH
 70
     0
  9
$DIMSE1
 70
     0
  9
$DIMSE2
 70
     0
  9
$DIMTAD
 70
     1
  9
$DIMZIN
 70
     8
  9
$DIMBLK
  1
OPEN30
  9
$DIMASO
 70
     1
  9
$DIMSHO
 70
     1
  9
$DIMPOST
  1

  9
$DIMAPOST
  1

  9
$DIMALT
 70
     0
  9
$DIMALTD
 70
     3
  9
$DIMALTF
 40
0.03937007874016
  9
$DIMLFAC
 40
1.0
  9
$DIMTOFL
 70
     1
  9
$DIMTVP
 40
0.0
  9
$DIMTIX
 70
     0
  9
$DIMSOXD
 70
     0
  9
$DIMSAH
 70
     0
  9
$DIMBLK1
  1

  9
$DIMBLK2
  1

  9
$DIMSTYLE
  2
MISUMI
  9
$DIMCLRD
 70
   137
  9
$DIMCLRE
 70
   137
  9
$DIMCLRT
 70
   137
  9
$DIMTFAC
 40
1.0
  9
$DIMGAP
 40
0.625
  9
$LUNITS
 70
     2
  9
$LUPREC
 70
     2
  9
$SKETCHINC
 40
1.0
  9
$FILLETRAD
 40
0.5
  9
$AUNITS
 70
     0
  9
$AUPREC
 70
     0
  9
$MENU
  1
.
  9
$ELEVATION
 40
0.0
  9
$PELEVATION
 40
0.0
  9
$THICKNESS
 40
0.0
  9
$LIMCHECK
 70
     0
  9
$BLIPMODE
 70
     0
  9
$CHAMFERA
 40
0.0
  9
$CHAMFERB
 40
0.0
  9
$SKPOLY
 70
     0
  9
$TDCREATE
 40
2455135.5720697101
  9
$TDUPDATE
 40
2455352.4712937609
  9
$TDINDWG
 40
0.2644248264
  9
$TDUSRTIMER
 40
0.2644246412
  9
$USRTIMER
 70
     1
  9
$ANGBASE
 50
0.0
  9
$ANGDIR
 70
     0
  9
$PDMODE
 70
    35
  9
$PDSIZE
 40
0.0
  9
$PLINEWID
 40
0.0
  9
$COORDS
 70
     2
  9
$SPLFRAME
 70
     0
  9
$SPLINETYPE
 70
     6
  9
$SPLINESEGS
 70
     8
  9
$ATTDIA
 70
     0
  9
$ATTREQ
 70
     1
  9
$HANDLING
 70
 22529
  9
$HANDSEED
  5
26F2
  9
$SURFTAB1
 70
     6
  9
$SURFTAB2
 70
     6
  9
$SURFTYPE
 70
     6
  9
$SURFU
 70
     6
  9
$SURFV
 70
     6
  9
$UCSNAME
  2

  9
$UCSORG
 10
0.0
 20
0.0
 30
0.0
  9
$UCSXDIR
 10
1.0
 20
0.0
 30
0.0
  9
$UCSYDIR
 10
0.0
 20
1.0
 30
0.0
  9
$PUCSNAME
  2

  9
$PUCSORG
 10
0.0
 20
0.0
 30
0.0
  9
$PUCSXDIR
 10
1.0
 20
0.0
 30
0.0
  9
$PUCSYDIR
 10
0.0
 20
1.0
 30
0.0
  9
$USERI1
 70
     0
  9
$USERI2
 70
     0
  9
$USERI3
 70
     0
  9
$USERI4
 70
     0
  9
$USERI5
 70
     0
  9
$USERR1
 40
0.0
  9
$USERR2
 40
0.0
  9
$USERR3
 40
0.0
  9
$USERR4
 40
0.0
  9
$USERR5
 40
0.0
  9
$WORLDVIEW
 70
     1
  9
$SHADEDGE
 70
     3
  9
$SHADEDIF
 70
    70
  9
$TILEMODE
 70
     1
  9
$MAXACTVP
 70
    64
  9
$PLIMCHECK
 70
     0
  9
$PEXTMIN
 10
0.0
 20
0.0
 30
0.0
  9
$PEXTMAX
 10
0.0
 20
0.0
 30
0.0
  9
$PLIMMIN
 10
0.0
 20
0.0
  9
$PLIMMAX
 10
12.0
 20
9.0
  9
$UNITMODE
 70
     0
  9
$VISRETAIN
 70
     1
  9
$PLINEGEN
 70
     0
  9
$PSLTSCALE
 70
     1
  0
ENDSEC
  0
SECTION
  2
TABLES
  0
TABLE
  2
VPORT
 70
     2
  0
VPORT
  2
*ACTIVE
 70
     0
 10
0.0
 20
0.0
 11
1.0
 21
1.0
 12
27.28111989853323
 22
44.336549740904388
 13
0.0
 23
0.0
 14
10.0
 24
10.0
 15
10.0
 25
10.0
 16
0.0
 26
0.0
 36
1.0
 17
0.0
 27
0.0
 37
0.0
 40
188.01707560473139
 41
1.180203045685279
 42
50.0
 43
0.0
 44
0.0
 50
0.0
 51
0.0
 71
     0
 72
  1000
 73
     1
 74
     3
 75
     0
 76
     0
 77
     0
 78
     0
  0
ENDTAB
  0
TABLE
  2
LTYPE
 70
     4
  0
LTYPE
  2
CONTINUOUS
 70
     0
  3
Solid line
 72
    65
 73
     0
 40
0.0
  0
LTYPE
  2
CENTER
 70
     0
  3
Center ____ _ ____ _ ____ _ ____ _ ____ _ ____
 72
    65
 73
     4
 40
50.799999999999997
 49
31.75
 49
-6.3499999999999988
 49
6.3499999999999988
 49
-6.3499999999999988
  0
LTYPE
  2
DASHED
 70
     0
  3
Dashed __ __ __ __ __ __ __ __ __ __ __ __ __ _
 72
    65
 73
     2
 40
19.04999999999999
 49
12.699999999999999
 49
-6.3499999999999988
  0
ENDTAB
  0
TABLE
  2
LAYER
 70
     3
  0
LAYER
  2
0
 70
     0
 62
     7
  6
CONTINUOUS
  0
LAYER
  2
CENTER
 70
     0
 62
     1
  6
CENTER
  0
LAYER
  2
DEFPOINTS
 70
     0
 62
     7
  6
CONTINUOUS
  0
ENDTAB
  0
TABLE
  2
STYLE
 70
     1
  0
STYLE
  2
STANDARD
 70
     0
 40
3.0
 41
1.0
 50
0.0
 71
     0
 42
3.0
  3
txt.shx
  4
bigfont.shx
  0
ENDTAB
  0
TABLE
  2
VIEW
 70
     0
  0
ENDTAB
  0
TABLE
  2
UCS
 70
     0
  0
ENDTAB
  0
TABLE
  2
APPID
 70
     2
  0
APPID
  2
ACAD
 70
     0
  0
APPID
  2
ACAD_PSEXT
 70
     0
  0
ENDTAB
  0
TABLE
  2
DIMSTYLE
 70
     1
  0
DIMSTYLE
  2
MISUMI
 70
     0
  3

  4

  5
OPEN30
  6

  7

 40
1.0
 41
2.5
 42
0.625
 43
3.75
 44
1.25
 45
0.0
 46
0.0
 47
0.0
 48
0.0
140
2.5
141
2.5
142
0.0
143
0.03937007874016
144
1.0
145
0.0
146
1.0
147
0.625
 71
     0
 72
     0
 73
     0
 74
     0
 75
     0
 76
     0
 77
     1
 78
     8
170
     0
171
     3
172
     1
173
     0
174
     0
175
     0
176
   137
177
   137
178
   137
  0
ENDTAB
  0
ENDSEC
  0
SECTION
  2
BLOCKS
  0
BLOCK
  8
0
  2
$MODEL_SPACE
 70
     0
 10
0.0
 20
0.0
 30
0.0
  3
$MODEL_SPACE
  1

  0
ENDBLK
  5
21
  8
0
  0
BLOCK
 67
     1
  8
0
  2
$PAPER_SPACE
 70
     0
 10
0.0
 20
0.0
 30
0.0
  3
$PAPER_SPACE
  1

  0
ENDBLK
  5
53
 67
     1
  8
0
  0
BLOCK
  8
0
 62
     7
  2
_OPEN30
 70
     0
 10
0.0
 20
0.0
 30
0.0
  3
_OPEN30
  1

  0
LINE
  5
D7
  8
0
  6
BYBLOCK
 62
     0
 10
-1.0
 20
0.26794919
 30
0.0
 11
0.0
 21
0.0
 31
0.0
  0
LINE
  5
D8
  8
0
  6
BYBLOCK
 62
     0
 10
0.0
 20
0.0
 30
0.0
 11
-1.0
 21
-0.26794919
 31
0.0
  0
LINE
  5
D9
  8
0
  6
BYBLOCK
 62
     0
 10
0.0
 20
0.0
 30
0.0
 11
-1.0
 21
0.0
 31
0.0
  0
ENDBLK
  5
DB
  8
0
 62
     7
  0
ENDSEC
  0
SECTION
  2
ENTITIES
  0
ARC
  5
D6B
  8
0
  6
CONTINUOUS
 62
     7
 10
34.999999999999879
 20
106.4415442889493
 30
0.0
 40
8.562499999999801
 50
50.033786956200288
 51
129.96621304379971
  0
LINE
  5
D6D
  8
0
  6
CONTINUOUS
 62
     7
 10
29.499999999999801
 20
102.5762192564338
 30
0.0
 11
29.500000000000341
 21
113.0040442889495
 31
0.0
  0
LINE
  5
D6E
  8
0
  6
CONTINUOUS
 62
     7
 10
40.499999999999773
 20
113.0040442889491
 30
0.0
 11
40.499999999999773
 21
102.5762192564337
 31
0.0
  0
LINE
  5
D70
  8
0
  6
CONTINUOUS
 62
     7
 10
30.74999999999984
 20
102.0040442889491
 30
0.0
 11
30.74999999999984
 21
94.004044288949174
 31
0.0
  0
LINE
  5
D71
  8
0
  6
CONTINUOUS
 62
     7
 10
30.74999999999984
 20
94.004044288949174
 30
0.0
 11
39.249999999999837
 21
94.004044288949174
 31
0.0
  0
LINE
  5
D74
  8
0
  6
CONTINUOUS
 62
     7
 10
39.249999999999943
 20
102.0040442889491
 30
0.0
 11
30.750000000000089
 21
102.004044288949
 31
0.0
  0
LINE
  5
D75
  8
0
  6
CONTINUOUS
 62
     7
 10
39.249999999999837
 20
94.004044288949174
 30
0.0
 11
39.249999999999837
 21
102.0040442889491
 31
0.0
  0
LINE
  5
D76
  8
0
  6
CONTINUOUS
 62
     7
 10
-4.25
 20
94.004044288949174
 30
0.0
 11
4.25
 21
94.004044288949174
 31
0.0
  0
LINE
  5
D77
  8
0
  6
CONTINUOUS
 62
     7
 10
5.5000000000005471
 20
102.5762192564338
 30
0.0
 11
5.5000000000005471
 21
113.0040442889491
 31
0.0
  0
LINE
  5
D78
  8
0
  6
CONTINUOUS
 62
     7
 10
-5.4999999999995657
 20
113.0040442889491
 30
0.0
 11
-5.4999999999995657
 21
102.5762192564338
 31
0.0
  0
LINE
  5
D79
  8
0
  6
CONTINUOUS
 62
     7
 10
-4.2499999999995941
 20
102.0040442889491
 30
0.0
 11
4.2500000000004716
 21
102.0040442889491
 31
0.0
  0
LINE
  5
D7A
  8
0
  6
CONTINUOUS
 62
     7
 10
-4.25
 20
102.0040442889491
 30
0.0
 11
-4.25
 21
94.004044288949174
 31
0.0
  0
LINE
  5
D7D
  8
0
  6
CONTINUOUS
 62
     7
 10
-2.149999999999451
 20
104.0040442889488
 30
0.0
 11
-2.149999999997724
 21
115.0040442889491
 31
0.0
  0
LINE
  5
D7E
  8
0
  6
CONTINUOUS
 62
     7
 10
2.1500000000005448
 20
104.0040442889491
 30
0.0
 11
2.1500000000004809
 21
115.0040442889491
 31
0.0
  0
ARC
  5
D7F
  8
0
  6
CONTINUOUS
 62
     7
 10
1.512005330501395
 20
110.129778217538
 30
0.0
 40
4.9158424438969819
 50
35.78141122342231
 51
82.542924887204606
  0
LINE
  5
D80
  8
0
  6
CONTINUOUS
 62
     7
 10
-2.149999999999451
 20
104.0040442889488
 30
0.0
 11
2.1500000000005448
 21
104.0040442889491
 31
0.0
  0
LINE
  5
D81
  8
0
  6
CONTINUOUS
 62
     7
 10
4.25
 20
94.004044288949174
 30
0.0
 11
4.25
 21
102.0040442889491
 31
0.0
  0
ARC
  5
D82
  8
0
  6
CONTINUOUS
 62
     7
 10
-1.5120053305024961
 20
110.1297782175406
 30
0.0
 40
4.9158424438938892
 50
97.457075112754055
 51
144.21858877658639
  0
LINE
  5
D89
  8
0
  6
DASHED
 62
     3
 10
32.999999999999773
 20
104.0040442889491
 30
0.0
 11
32.999999999999773
 21
94.004044288949174
 31
0.0
  0
LINE
  5
D8A
  8
0
  6
DASHED
 62
     3
 10
33.378999999999792
 20
104.0040442889491
 30
0.0
 11
33.378999999999792
 21
94.004044288949174
 31
0.0
  0
LINE
  5
D8B
  8
0
  6
DASHED
 62
     3
 10
36.62099999999986
 20
104.0040442889491
 30
0.0
 11
36.62099999999986
 21
94.004044288949174
 31
0.0
  0
LINE
  5
D8C
  8
0
  6
DASHED
 62
     3
 10
36.999999999999773
 20
104.0040442889491
 30
0.0
 11
36.999999999999773
 21
94.004044288949174
 31
0.0
  0
LINE
  5
D8D
  8
0
  6
DASHED
 62
     3
 10
-1.999999999999452
 20
104.0040442889488
 30
0.0
 11
-1.99999999999968
 21
94.004044288949174
 31
0.0
  0
LINE
  5
D8E
  8
0
  6
DASHED
 62
     3
 10
-1.620999999999547
 20
104.0040442889488
 30
0.0
 11
-1.6209999999996609
 21
94.004044288949174
 31
0.0
  0
LINE
  5
D8F
  8
0
  6
DASHED
 62
     3
 10
1.6210000000003
 20
104.0040442889491
 30
0.0
 11
1.6210000000003
 21
94.004044288949174
 31
0.0
  0
LINE
  5
D90
  8
0
  6
DASHED
 62
     3
 10
2.0000000000002061
 20
104.0040442889491
 30
0.0
 11
2.0000000000003189
 21
94.004044288949174
 31
0.0
  0
LINE
  5
D91
  8
0
  6
CONTINUOUS
 62
     7
 10
-5.4999999999992264
 20
135.5000000000002
 30
0.0
 11
-5.4999999999992264
 21
124.4999999999995
 31
0.0
  0
LINE
  5
D92
  8
0
  6
CONTINUOUS
 62
     7
 10
-2.1499999999977248
 20
135.5000000000002
 30
0.0
 11
-2.1499999999977248
 21
124.4999999999995
 31
0.0
  0
LINE
  5
D93
  8
0
  6
CONTINUOUS
 62
     7
 10
2.150000000000182
 20
135.5000000000002
 30
0.0
 11
2.150000000000182
 21
124.4999999999995
 31
0.0
  0
LINE
  5
D94
  8
0
  6
CONTINUOUS
 62
     7
 10
5.5000000000016831
 20
135.5000000000002
 30
0.0
 11
5.5000000000016831
 21
124.4999999999995
 31
0.0
  0
LINE
  5
D95
  8
CENTER
  6
CENTER
 62
     1
 10
0.0000000000007741
 20
137.5000000000002
 30
0.0
 11
0.0000000000007741
 21
122.4999999999995
 31
0.0
  0
LINE
  5
D96
  8
CENTER
  6
CENTER
 62
     1
 10
7.5000000000016831
 20
130.0
 30
0.0
 11
-7.4999999999992264
 21
130.0
 31
0.0
  0
LINE
  5
D97
  8
0
  6
CONTINUOUS
 62
     7
 10
5.5000000000016831
 20
135.5000000000002
 30
0.0
 11
-5.4999999999992264
 21
135.5000000000002
 31
0.0
  0
LINE
  5
D98
  8
0
  6
CONTINUOUS
 62
     7
 10
5.5000000000016831
 20
124.4999999999995
 30
0.0
 11
-5.4999999999992264
 21
124.4999999999995
 31
0.0
  0
LINE
  5
D99
  8
0
  6
DASHED
 62
     3
 10
5.5000000000016831
 20
127.90000000000001
 30
0.0
 11
2.150000000000182
 21
127.90000000000001
 31
0.0
  0
LINE
  5
D9A
  8
0
  6
DASHED
 62
     3
 10
5.5000000000016822
 20
132.09999999999991
 30
0.0
 11
2.150000000000182
 21
132.09999999999991
 31
0.0
  0
LINE
  5
D9B
  8
0
  6
DASHED
 62
     3
 10
-2.1499999999977248
 20
132.09999999999991
 30
0.0
 11
-5.4999999999992264
 21
132.09999999999991
 31
0.0
  0
LINE
  5
D9C
  8
0
  6
DASHED
 62
     3
 10
-2.1499999999977248
 20
127.90000000000001
 30
0.0
 11
-5.4999999999992264
 21
127.90000000000001
 31
0.0
  0
CIRCLE
  5
D9D
  8
0
  6
CONTINUOUS
 62
     7
 10
0.0000000000012289
 20
130.0
 30
0.0
 40
1.6210000000003211
  0
CIRCLE
  5
D9E
  8
0
  6
CONTINUOUS
 62
     3
 10
0.0000000000007741
 20
129.9999999999998
 30
0.0
 40
2.0
  0
CIRCLE
  5
D9F
  8
0
  6
DASHED
 62
     3
 10
0.0000000000012289
 20
130.0
 30
0.0
 40
4.2500000000004539
  0
CIRCLE
  5
DA1
  8
0
  6
DASHED
 62
     3
 10
34.99999999999968
 20
50.004044288949167
 30
0.0
 40
1.5
  0
CIRCLE
  5
DA2
  8
0
  6
CONTINUOUS
 62
     7
 10
34.99999999999968
 20
50.004044288949167
 30
0.0
 40
2.0
  0
ARC
  5
DA3
  8
0
  6
CONTINUOUS
 62
     7
 10
34.999999999999559
 20
49.254044288949387
 30
0.0
 40
4.75
 50
0.0
 51
180.0
  0
LINE
  5
DA4
  8
0
  6
DASHED
 62
     3
 10
39.249999999999559
 20
49.254044288949387
 30
0.0
 11
39.249999999999559
 21
46.004044288949387
 31
0.0
  0
LINE
  5
DA5
  8
0
  6
CONTINUOUS
 62
     7
 10
39.749999999999567
 20
49.254044288949387
 30
0.0
 11
39.749999999999567
 21
46.004044288949387
 31
0.0
  0
LINE
  5
DA6
  8
0
  6
DASHED
 62
     3
 10
30.749999999999559
 20
49.254044288949387
 30
0.0
 11
30.749999999999559
 21
46.004044288949387
 31
0.0
  0
LINE
  5
DA7
  8
0
  6
CONTINUOUS
 62
     7
 10
30.249999999999559
 20
49.254044288949387
 30
0.0
 11
30.249999999999559
 21
46.004044288949387
 31
0.0
  0
ARC
  5
DA8
  8
0
  6
CONTINUOUS
 62
     7
 10
31.249999999999559
 20
46.004044288949387
 30
0.0
 40
1.0
 50
180.0
 51
270.0
  0
LINE
  5
DA9
  8
0
  6
CONTINUOUS
 62
     7
 10
39.99999999999968
 20
36.00404428894938
 30
0.0
 11
27.185356477060068
 21
36.00404428894938
 31
0.0
  0
LINE
  5
DAA
  8
0
  6
CONTINUOUS
 62
     7
 10
28.01219637088299
 20
41.182155427562797
 30
0.0
 11
26.20916941687609
 21
37.220974746768029
 31
0.0
  0
ARC
  5
DAB
  8
0
  6
CONTINUOUS
 62
     7
 10
27.185356477060068
 20
37.00404428894938
 30
0.0
 40
1.0
 50
167.4711922908489
 51
270.0
  0
LINE
  5
DB7
  8
0
  6
CONTINUOUS
 62
     7
 10
39.99999999999968
 20
42.00404428894938
 30
0.0
 11
39.99999999999968
 21
36.00404428894938
 31
0.0
  0
LINE
  5
DB8
  8
0
  6
CONTINUOUS
 62
     7
 10
28.996206748014298
 20
42.00404428894938
 30
0.0
 11
39.99999999999968
 21
42.00404428894938
 31
0.0
  0
LINE
  5
DBB
  8
0
  6
CONTINUOUS
 62
     7
 10
38.749999999999567
 20
45.004044288949267
 30
0.0
 11
38.499999999999567
 21
45.004044288949267
 31
0.0
  0
ARC
  5
DBC
  8
0
  6
DASHED
 62
     3
 10
38.156934895224701
 20
46.042593117530807
 30
0.0
 40
1.0937446390549801
 50
288.28000222789052
 51
357.98020248038102
  0
ARC
  5
DBD
  8
0
  6
CONTINUOUS
 62
     7
 10
38.749999999999567
 20
46.004044288949387
 30
0.0
 40
1.0
 50
270.0
 51
0.0
  0
ARC
  5
DBE
  8
0
  6
DASHED
 62
     3
 10
31.843065104775128
 20
46.042593117531098
 30
0.0
 40
1.0937446390556831
 50
182.01979751963211
 51
251.71999777206381
  0
LINE
  5
DBF
  8
0
  6
CONTINUOUS
 62
     7
 10
32.49999999999968
 20
44.004044288949387
 30
0.0
 11
32.49999999999968
 21
43.00404428894938
 31
0.0
  0
LINE
  5
DC0
  8
0
  6
CONTINUOUS
 62
     7
 10
37.49999999999968
 20
44.004044288949387
 30
0.0
 11
37.49999999999968
 21
43.00404428894938
 31
0.0
  0
ARC
  5
DC1
  8
0
  6
CONTINUOUS
 62
     7
 10
31.49999999999968
 20
44.004044288949387
 30
0.0
 40
1.0
 50
0.0
 51
90.0
  0
ARC
  5
DC2
  8
0
  6
CONTINUOUS
 62
     7
 10
38.499999999999567
 20
44.004044288949501
 30
0.0
 40
1.0
 50
90.0
 51
180.00000000000651
  0
ARC
  5
DC3
  8
0
  6
CONTINUOUS
 62
     7
 10
31.49999999999968
 20
43.00404428894938
 30
0.0
 40
1.0
 50
269.99999999999341
 51
0.0
  0
ARC
  5
DC4
  8
0
  6
CONTINUOUS
 62
     7
 10
38.499999999999567
 20
43.00404428894938
 30
0.0
 40
1.0
 50
180.0
 51
270.0
  0
ARC
  5
DC9
  8
0
  6
CONTINUOUS
 62
     7
 10
28.996206748014298
 20
41.004044288949387
 30
0.0
 40
1.0
 50
90.0
 51
169.74024173744991
  0
ARC
  5
DCA
  8
0
  6
DASHED
 62
     3
 10
34.999999999999559
 20
49.254044288949387
 30
0.0
 40
4.25
 50
0.0
 51
180.0
  0
LINE
  5
DF6
  8
CENTER
  6
CENTER
 62
     1
 10
0.0
 20
59.185356477060338
 30
0.0
 11
0.0
 21
77.0
 31
0.0
  0
LINE
  5
DF7
  8
CENTER
  6
CENTER
 62
     1
 10
-9.7499907568518438
 20
70.0
 30
0.0
 11
9.2500092431481562
 21
70.0
 31
0.0
  0
LINE
  5
DF9
  8
CENTER
  6
CENTER
 62
     1
 10
34.999999999999673
 20
56.004044288949387
 30
0.0
 11
34.999999999999673
 21
34.00404428894938
 31
0.0
  0
LINE
  5
DFA
  8
CENTER
  6
CENTER
 62
     1
 10
28.249999999999559
 20
50.004044288949167
 30
0.0
 11
41.749999999999567
 21
50.004044288949167
 31
0.0
  0
LINE
  5
DFD
  8
0
  6
DASHED
 62
     3
 10
-5.7499907568518429
 20
71.5
 30
0.0
 11
-6.2499907568518429
 21
71.5
 31
0.0
  0
LINE
  5
DFE
  8
0
  6
DASHED
 62
     3
 10
-6.2499907568518429
 20
68.5
 30
0.0
 11
-5.7499907568518429
 21
68.5
 31
0.0
  0
LINE
  5
DFF
  8
0
  6
CONTINUOUS
 62
     7
 10
-7.749990756851842
 20
74.749999999999886
 30
0.0
 11
-7.749990756851842
 21
65.249999999999886
 31
0.0
  0
LINE
  5
E00
  8
0
  6
DASHED
 62
     3
 10
-6.2499907568518429
 20
73.749999999999886
 30
0.0
 11
-6.2499907568518429
 21
66.249999999999886
 31
0.0
  0
LINE
  5
E01
  8
0
  6
CONTINUOUS
 62
     7
 10
-5.7499907568518429
 20
73.75
 30
0.0
 11
-5.7499907568518429
 21
66.25
 31
0.0
  0
LINE
  5
E02
  8
0
  6
CONTINUOUS
 62
     7
 10
-5.7499907568518429
 20
67.5
 30
0.0
 11
-4.3301270189220977
 21
67.5
 31
0.0
  0
LINE
  5
E03
  8
0
  6
CONTINUOUS
 62
     7
 10
-5.7499907568516164
 20
72.5
 30
0.0
 11
-4.3301270189220977
 21
72.499999999999886
 31
0.0
  0
LINE
  5
E04
  8
0
  6
CONTINUOUS
 62
     7
 10
-6.749990756851842
 20
65.249999999999886
 30
0.0
 11
-7.749990756851842
 21
65.249999999999886
 31
0.0
  0
LINE
  5
E05
  8
0
  6
CONTINUOUS
 62
     7
 10
-6.749990756851842
 20
74.749999999999886
 30
0.0
 11
-7.749990756851842
 21
74.749999999999886
 31
0.0
  0
LINE
  5
E06
  8
0
  6
DASHED
 62
     3
 10
-6.7499907568518429
 20
74.249999999999886
 30
0.0
 11
-7.749990756851842
 21
74.249999999999886
 31
0.0
  0
LINE
  5
E07
  8
0
  6
DASHED
 62
     3
 10
-6.7499907568518429
 20
65.749999999999886
 30
0.0
 11
-7.749990756851842
 21
65.749999999999886
 31
0.0
  0
ARC
  5
E08
  8
0
  6
CONTINUOUS
 62
     7
 10
-6.749990756851842
 20
73.75
 30
0.0
 40
1.0
 50
0.0
 51
90.0
  0
ARC
  5
E0B
  8
0
  6
CONTINUOUS
 62
     7
 10
-6.749990756851842
 20
66.25
 30
0.0
 40
1.0
 50
270.0
 51
0.0
  0
LINE
  5
E0C
  8
0
  6
CONTINUOUS
 62
     7
 10
-2.14576113780572
 20
63.783432688413662
 30
0.0
 11
-3.6457611378057351
 21
61.185356477060331
 31
0.0
  0
LINE
  5
E0D
  8
0
  6
CONTINUOUS
 62
     7
 10
-2.5787738396979871
 20
64.033432688413654
 30
0.0
 11
-4.0787738396979689
 21
61.435356477060381
 31
0.0
  0
LINE
  5
E0E
  8
0
  6
CONTINUOUS
 62
     7
 10
7.2500092431481562
 20
70.999999999999886
 30
0.0
 11
7.2500092431481562
 21
68.999999999999886
 31
0.0
  0
LINE
  5
E0F
  8
0
  6
CONTINUOUS
 62
     7
 10
-5.7499907568518429
 20
67.999999999999886
 30
0.0
 11
6.2500092431481562
 21
67.999999999999886
 31
0.0
  0
LINE
  5
E10
  8
0
  6
CONTINUOUS
 62
     7
 10
-5.7499907568518429
 20
71.999999999999886
 30
0.0
 11
6.2500092431481562
 21
71.999999999999886
 31
0.0
  0
ARC
  5
E11
  8
0
  6
DASHED
 62
     3
 10
0.0000000000000004
 20
70.0
 30
0.0
 40
4.5
 50
337.18075578146107
 51
26.38779996124379
  0
ARC
  5
E12
  8
0
  6
CONTINUOUS
 62
     7
 10
0.0000000000000004
 20
70.0
 30
0.0
 40
4.5
 50
26.38779996124379
 51
153.61220003875621
  0
ARC
  5
E13
  8
0
  6
DASHED
 62
     3
 10
0.0000000000000004
 20
70.0
 30
0.0
 40
4.5
 50
153.61220003875621
 51
206.3877999612437
  0
ARC
  5
E14
  8
0
  6
CONTINUOUS
 62
     7
 10
0.0000000000000004
 20
70.0
 30
0.0
 40
4.5
 50
206.3877999612437
 51
233.3741904351775
  0
LINE
  5
E15
  8
0
  6
CONTINUOUS
 62
     7
 10
4.9912641282272707
 20
65.747085422645682
 30
0.0
 11
7.5893403395804313
 21
64.247085422645853
 31
0.0
  0
LINE
  5
E16
  8
0
  6
CONTINUOUS
 62
     7
 10
5.2412641282273853
 20
66.180098124537949
 30
0.0
 11
7.839340339580505
 21
64.680098124538048
 31
0.0
  0
ARC
  5
E17
  8
0
  6
DASHED
 62
     3
 10
5.991264128227157
 20
67.479136230214635
 30
0.0
 40
1.499999999999998
 50
157.1807557814611
 51
159.68125264165661
  0
ARC
  5
E18
  8
0
  6
CONTINUOUS
 62
     7
 10
5.991264128227157
 20
67.479136230214635
 30
0.0
 40
1.499999999999998
 50
159.68125264165661
 51
239.9999999999994
  0
ARC
  5
E19
  8
0
  6
DASHED
 62
     3
 10
5.9912641282273853
 20
67.479136230214635
 30
0.0
 40
1.999999999999998
 50
157.1807557814611
 51
164.90430979813561
  0
ARC
  5
E1A
  8
0
  6
CONTINUOUS
 62
     7
 10
5.9912641282273853
 20
67.479136230214635
 30
0.0
 40
1.999999999999998
 50
164.90430979813561
 51
239.9999999999994
  0
LINE
  5
E1B
  8
0
  6
CONTINUOUS
 62
     7
 10
7.8393403395803123
 20
64.680098124537722
 30
0.0
 11
7.5893403395803123
 21
64.247085422645341
 31
0.0
  0
ARC
  5
E1C
  8
0
  6
DASHED
 62
     3
 10
0.0000000000000004
 20
70.0
 30
0.0
 40
5.0
 50
337.18075578146107
 51
23.578178478201291
  0
ARC
  5
E1D
  8
0
  6
CONTINUOUS
 62
     7
 10
0.0000000000000004
 20
70.0
 30
0.0
 40
5.0
 50
23.578178478201291
 51
149.99999999999901
  0
ARC
  5
E1F
  8
0
  6
DASHED
 62
     3
 10
0.0000000000000004
 20
70.0
 30
0.0
 40
5.0
 50
150.00000000000151
 51
210.0
  0
ARC
  5
E21
  8
0
  6
CONTINUOUS
 62
     7
 10
0.0000000000000004
 20
70.0
 30
0.0
 40
5.0
 50
210.00000000000071
 51
233.3741904351775
  0
LINE
  5
E22
  8
0
  6
CONTINUOUS
 62
     7
 10
-4.0787738396979689
 20
61.435356477060381
 30
0.0
 11
-3.6457611378057031
 21
61.185356477060388
 31
0.0
  0
ARC
  5
E23
  8
0
  6
CONTINUOUS
 62
     7
 10
-3.8778119453745599
 20
64.783432688413654
 30
0.0
 40
1.5
 50
329.99999999999898
 51
53.374190435180388
  0
ARC
  5
E24
  8
0
  6
CONTINUOUS
 62
     7
 10
-3.8778119453745599
 20
64.783432688413654
 30
0.0
 40
2.0
 50
329.99999999999898
 51
53.374190435180388
  0
LINE
  5
E28
  8
0
  6
CONTINUOUS
 62
     7
 10
6.2500092431481562
 20
71.999999999999886
 30
0.0
 11
6.2500092431481562
 21
67.999999999999886
 31
0.0
  0
LINE
  5
E29
  8
0
  6
CONTINUOUS
 62
     7
 10
6.2500092431481562
 20
67.999999999999886
 30
0.0
 11
7.2500092431481562
 21
68.999999999999886
 31
0.0
  0
LINE
  5
E2A
  8
0
  6
CONTINUOUS
 62
     7
 10
7.2500092431481562
 20
70.999999999999886
 30
0.0
 11
6.2500092431481562
 21
71.999999999999886
 31
0.0
  0
LINE
  5
E73
  8
0
  6
DASHED
 62
     3
 10
29.49596909772697
 20
104.0040442889491
 30
0.0
 11
40.49596909772697
 21
104.0040442889491
 31
0.0
  0
LINE
  5
EB7
  8
CENTER
  6
CENTER
 62
     1
 10
-7.4999999999995657
 20
110.0040442889491
 30
0.0
 11
7.5000000000005471
 21
110.0040442889491
 31
0.0
  0
LINE
  5
EB8
  8
CENTER
  6
CENTER
 62
     1
 10
27.500000000000188
 20
110.0040442889491
 30
0.0
 11
42.499999999999758
 21
110.0040442889491
 31
0.0
  0
LINE
  5
EB9
  8
CENTER
  6
CENTER
 62
     1
 10
34.999999999999709
 20
117.0040442889491
 30
0.0
 11
34.999999999999922
 21
92.004044288949174
 31
0.0
  0
LINE
  5
EBA
  8
CENTER
  6
CENTER
 62
     1
 10
0.0000000000003394
 20
117.0040442889491
 30
0.0
 11
0.0000000000005471
 21
92.004044288949174
 31
0.0
  0
LINE
  5
EC1
  8
0
  6
CONTINUOUS
 62
     7
 10
29.27271535786004
 20
37.229904246952003
 30
0.0
 11
30.196188122362589
 21
41.229904246952003
 31
0.0
  0
ARC
  5
EC2
  8
0
  6
CONTINUOUS
 62
     7
 10
30.247085422645529
 20
37.004953192608177
 30
0.0
 40
1.0
 50
166.99999999999659
 51
270.0
  0
ARC
  5
EC3
  8
0
  6
CONTINUOUS
 62
     7
 10
31.170558187147961
 20
41.004953192607957
 30
0.0
 40
1.0
 50
90.0
 51
166.99999999999659
  0
LINE
  5
EC4
  8
0
  6
DASHED
 62
     3
 10
39.499514194211329
 20
42.00404428894938
 30
0.0
 11
39.499514194211329
 21
36.00404428894938
 31
0.0
  0
CIRCLE
  5
ECE
  8
0
  6
CONTINUOUS
 62
     7
 10
34.99999999999968
 20
50.004044288949167
 30
0.0
 40
1.0
  0
TEXT
  5
ED1
  8
0
  6
CONTINUOUS
 62
     7
 10
-34.92633735534605
 20
-42.977260696963867
 30
0.0
 40
3.0
  1
NJUT4
  0
TEXT
  5
ED2
  8
0
  6
CONTINUOUS
 62
     7
 10
-34.92633735534605
 20
-48.827757893513983
 30
0.0
 40
3.0
  1
NJUT04
  0
LINE
  5
11A1
  8
0
  6
DASHED
 62
     3
 10
-5.4999999999995657
 20
112.1040442889491
 30
0.0
 11
-2.149999999997724
 21
112.1040442889491
 31
0.0
  0
LINE
  5
11A2
  8
0
  6
DASHED
 62
     3
 10
-5.4999999999995657
 20
107.90404428894909
 30
0.0
 11
-2.149999999997724
 21
107.90404428894909
 31
0.0
  0
LINE
  5
11A3
  8
0
  6
DASHED
 62
     3
 10
2.1500000000001829
 20
112.1040442889491
 30
0.0
 11
5.5000000000005498
 21
112.1040442889491
 31
0.0
  0
LINE
  5
11A4
  8
0
  6
DASHED
 62
     3
 10
2.1500000000001829
 20
107.90404428894909
 30
0.0
 11
5.5000000000005498
 21
107.90404428894909
 31
0.0
  0
CIRCLE
  5
11CD
  8
0
  6
CONTINUOUS
 62
     7
 10
35.0
 20
110.0040442889491
 30
0.0
 40
2.1000000000000001
  0
ARC
  5
2287
  8
0
  6
DASHED
 62
     3
 10
-6.7499907568518429
 20
66.249999999999886
 30
0.0
 40
0.5
 50
270.0
 51
0.0
  0
ARC
  5
2288
  8
0
  6
DASHED
 62
     3
 10
-6.7499907568518429
 20
73.749999999999886
 30
0.0
 40
0.5
 50
0.0
 51
90.0
  0
ARC
  5
2294
  8
0
  6
CONTINUOUS
 62
     7
 10
-0.2500036196450139
 20
113.4864526336321
 30
0.0
 40
12.332709919999999
 50
291.40041955738502
 51
297.79050724738022
  0
ARC
  5
2295
  8
0
  6
CONTINUOUS
 62
     7
 10
0.0000000000004547
 20
113.1352571291109
 30
0.0
 40
10.556597609073769
 50
238.60056613871771
 51
301.39943386128402
  0
ARC
  5
2296
  8
0
  6
CONTINUOUS
 62
     7
 10
0.250003619645895
 20
113.4864526336321
 30
0.0
 40
12.332709919999999
 50
242.20949275262021
 51
248.5995804426166
  0
ARC
  5
229E
  8
0
  6
CONTINUOUS
 62
     7
 10
34.74999638035446
 20
113.4864526336321
 30
0.0
 40
12.332709919999999
 50
291.40041955738519
 51
297.79050724737891
  0
ARC
  5
229F
  8
0
  6
CONTINUOUS
 62
     7
 10
34.999999999999922
 20
113.1352571291109
 30
0.0
 40
10.556597609073769
 50
238.6005661387178
 51
301.39943386128391
  0
ARC
  5
22A0
  8
0
  6
CONTINUOUS
 62
     7
 10
35.250003619645362
 20
113.4864526336321
 30
0.0
 40
12.332709919999999
 50
242.2094927526197
 51
248.5995804426166
  0
ARC
  5
22A2
  8
0
  6
CONTINUOUS
 62
     7
 10
34.999999999999758
 20
102.87283144878749
 30
0.0
 40
10.556597609073769
 50
58.600566138716033
 51
121.39943386128211
  0
ARC
  5
22A3
  8
0
  6
CONTINUOUS
 62
     7
 10
0.0000000000003197
 20
102.87283144878749
 30
0.0
 40
10.556597609073769
 50
58.600566138716033
 51
78.24869182407744
  0
ARC
  5
22A4
  8
0
  6
CONTINUOUS
 62
     7
 10
0.0000000000003197
 20
102.87283144878749
 30
0.0
 40
10.556597609073769
 50
101.7513081759123
 51
121.39943386128211
  0
LINE
  5
238A
  8
CENTER
  6
CENTER
 62
     1
 10
34.999999999999709
 20
-12.99595571105082
 30
0.0
 11
34.999999999999922
 21
-37.995955711050819
 31
0.0
  0
LINE
  5
238B
  8
0
  6
DASHED
 62
     3
 10
36.999999999999773
 20
-25.995955711050819
 30
0.0
 11
36.999999999999773
 21
-35.995955711050819
 31
0.0
  0
LINE
  5
238C
  8
0
  6
DASHED
 62
     3
 10
36.62099999999986
 20
-25.995955711050819
 30
0.0
 11
36.62099999999986
 21
-35.995955711050819
 31
0.0
  0
LINE
  5
238D
  8
0
  6
DASHED
 62
     3
 10
33.378999999999792
 20
-25.995955711050819
 30
0.0
 11
33.378999999999792
 21
-35.995955711050819
 31
0.0
  0
LINE
  5
238E
  8
0
  6
DASHED
 62
     3
 10
32.999999999999773
 20
-25.995955711050819
 30
0.0
 11
32.999999999999773
 21
-35.995955711050819
 31
0.0
  0
LINE
  5
238F
  8
0
  6
CONTINUOUS
 62
     7
 10
39.249999999999837
 20
-35.995955711050819
 30
0.0
 11
39.249999999999837
 21
-33.995955711050613
 31
0.0
  0
LINE
  5
2390
  8
0
  6
CONTINUOUS
 62
     7
 10
30.74999999999984
 20
-27.995955711050819
 30
0.0
 11
30.749999999999851
 21
-28.087781239202279
 31
0.0
  0
LINE
  5
2391
  8
0
  6
CONTINUOUS
 62
     7
 10
30.74999999999984
 20
-35.995955711050819
 30
0.0
 11
39.249999999999837
 21
-35.995955711050819
 31
0.0
  0
ARC
  5
2392
  8
0
  6
CONTINUOUS
 62
     7
 10
34.999999999999773
 20
-27.127168551212431
 30
0.0
 40
10.556597609073769
 50
58.600566138716033
 51
121.39943386128211
  0
LINE
  5
2393
  8
0
  6
CONTINUOUS
 62
     7
 10
39.99999999999968
 20
-27.995955711050819
 30
0.0
 11
28.996206748014291
 21
-27.995955711050929
 31
0.0
  0
ARC
  5
2394
  8
0
  6
CONTINUOUS
 62
     7
 10
34.999999999999922
 20
-16.864742870889071
 30
0.0
 40
10.556597609073769
 50
238.6005661387178
 51
301.39943386128391
  0
LINE
  5
2395
  8
CENTER
  6
CENTER
 62
     1
 10
27.500000000000188
 20
-19.995955711050819
 30
0.0
 11
42.499999999999773
 21
-19.995955711050819
 31
0.0
  0
LINE
  5
2396
  8
0
  6
DASHED
 62
     3
 10
29.49596909772697
 20
-25.995955711050819
 30
0.0
 11
40.49596909772697
 21
-25.995955711050819
 31
0.0
  0
ARC
  5
2397
  8
0
  6
CONTINUOUS
 62
     7
 10
34.999999999999879
 20
-23.55845571105062
 30
0.0
 40
8.562499999999801
 50
50.033786956200288
 51
129.96621304379971
  0
LINE
  5
2398
  8
0
  6
CONTINUOUS
 62
     7
 10
29.499999999999801
 20
-27.423780743566098
 30
0.0
 11
29.500000000000341
 21
-16.995955711050492
 31
0.0
  0
ARC
  5
2399
  8
0
  6
CONTINUOUS
 62
     7
 10
35.250003619645362
 20
-16.513547366367899
 30
0.0
 40
12.332709919999999
 50
242.2094927526197
 51
248.5995804426166
  0
LINE
  5
239A
  8
0
  6
CONTINUOUS
 62
     7
 10
40.499999999999773
 20
-16.99595571105084
 30
0.0
 11
40.499999999999773
 21
-27.423780743566219
 31
0.0
  0
CIRCLE
  5
239B
  8
0
  6
CONTINUOUS
 62
     7
 10
35.0
 20
-19.995955711050819
 30
0.0
 40
2.1000000000000001
  0
ARC
  5
239C
  8
0
  6
CONTINUOUS
 62
     7
 10
34.74999638035446
 20
-16.513547366367899
 30
0.0
 40
12.332709919999999
 50
291.40041955738519
 51
297.79050724737891
  0
LINE
  5
239F
  8
0
  6
CONTINUOUS
 62
     7
 10
5.500000000001676
 20
5.5000000000002274
 30
0.0
 11
-5.4999999999992317
 21
5.5000000000002274
 31
0.0
  0
LINE
  5
23A0
  8
0
  6
CONTINUOUS
 62
     7
 10
5.500000000001676
 20
-5.5000000000004539
 30
0.0
 11
-5.4999999999992317
 21
-5.5000000000004539
 31
0.0
  0
LINE
  5
23A1
  8
0
  6
DASHED
 62
     3
 10
-2.1499999999977311
 20
2.0999999999999939
 30
0.0
 11
-5.4999999999992317
 21
2.0999999999999939
 31
0.0
  0
LINE
  5
23A2
  8
0
  6
DASHED
 62
     3
 10
-2.1499999999977311
 20
-2.0999999999999939
 30
0.0
 11
-5.4999999999992317
 21
-2.0999999999999939
 31
0.0
  0
CIRCLE
  5
23A3
  8
0
  6
DASHED
 62
     3
 10
0.0000000000012221
 20
0.0
 30
0.0
 40
4.2500000000004539
  0
LINE
  5
23A4
  8
0
  6
CONTINUOUS
 62
     7
 10
-5.4999999999992317
 20
5.5000000000002274
 30
0.0
 11
-5.4999999999992317
 21
-5.5000000000004539
 31
0.0
  0
LINE
  5
23A5
  8
0
  6
CONTINUOUS
 62
     7
 10
-2.1499999999977311
 20
5.5000000000002274
 30
0.0
 11
-2.1499999999977311
 21
-5.5000000000004539
 31
0.0
  0
LINE
  5
23A6
  8
0
  6
CONTINUOUS
 62
     7
 10
2.1500000000001762
 20
5.5000000000002274
 30
0.0
 11
2.1500000000001762
 21
-5.5000000000004539
 31
0.0
  0
LINE
  5
23A7
  8
0
  6
CONTINUOUS
 62
     7
 10
5.500000000001676
 20
5.5000000000002274
 30
0.0
 11
5.500000000001676
 21
-5.5000000000004539
 31
0.0
  0
CIRCLE
  5
23A8
  8
0
  6
DASHED
 62
     3
 10
0.0000000000012221
 20
0.0
 30
0.0
 40
1.6210000000003211
  0
CIRCLE
  5
23A9
  8
0
  6
DASHED
 62
     3
 10
0.0000000000007674
 20
-0.0000000000001137
 30
0.0
 40
2.0
  0
LINE
  5
23AA
  8
0
  6
DASHED
 62
     3
 10
5.500000000001676
 20
-2.0999999999999939
 30
0.0
 11
2.1500000000001762
 21
-2.0999999999999939
 31
0.0
  0
LINE
  5
23AB
  8
0
  6
DASHED
 62
     3
 10
5.500000000001676
 20
2.0999999999999939
 30
0.0
 11
2.1500000000001762
 21
2.0999999999999939
 31
0.0
  0
LINE
  5
23AC
  8
0
  6
DASHED
 62
     3
 10
32.49999999999968
 20
-25.995955711050609
 30
0.0
 11
32.49999999999968
 21
-26.995955711050609
 31
0.0
  0
LINE
  5
23AD
  8
0
  6
DASHED
 62
     3
 10
37.49999999999968
 20
-25.995955711050609
 30
0.0
 11
37.49999999999968
 21
-26.995955711050609
 31
0.0
  0
LINE
  5
23AF
  8
0
  6
CONTINUOUS
 62
     7
 10
39.99999999999968
 20
-33.995955711050613
 30
0.0
 11
27.185356477060068
 21
-33.995955711050613
 31
0.0
  0
ARC
  5
23B0
  8
0
  6
DASHED
 62
     3
 10
31.49999999999968
 20
-26.995955711050609
 30
0.0
 40
1.0
 50
269.99999999999341
 51
0.0
  0
ARC
  5
23B2
  8
0
  6
CONTINUOUS
 62
     7
 10
27.185356477060068
 20
-32.995955711050613
 30
0.0
 40
1.0
 50
167.4711922908489
 51
270.0
  0
ARC
  5
23B3
  8
0
  6
CONTINUOUS
 62
     7
 10
30.247085422645519
 20
-32.995046807391809
 30
0.0
 40
1.0
 50
166.99999999999659
 51
270.0
  0
LINE
  5
23B5
  8
0
  6
CONTINUOUS
 62
     7
 10
28.01219637088299
 20
-28.817844572437188
 30
0.0
 11
26.20916941687609
 21
-32.779025253231957
 31
0.0
  0
ARC
  5
23B7
  8
0
  6
CONTINUOUS
 62
     7
 10
28.996206748014298
 20
-28.995955711050609
 30
0.0
 40
1.0
 50
90.0
 51
169.74024173744991
  0
LINE
  5
23B8
  8
0
  6
CONTINUOUS
 62
     7
 10
29.272715357860029
 20
-32.77009575304799
 30
0.0
 11
30.196188122362582
 21
-28.770095753048
 31
0.0
  0
ARC
  5
23B9
  8
0
  6
CONTINUOUS
 62
     7
 10
31.170558187147972
 20
-28.99504680739204
 30
0.0
 40
1.0
 50
90.0
 51
166.99999999999659
  0
LINE
  5
23BC
  8
0
  6
CONTINUOUS
 62
     7
 10
39.99999999999968
 20
-27.995955711050609
 30
0.0
 11
39.99999999999968
 21
-33.995955711050613
 31
0.0
  0
LINE
  5
23BD
  8
0
  6
DASHED
 62
     3
 10
39.499514194211343
 20
-27.995955711050609
 30
0.0
 11
39.499514194211343
 21
-33.995955711050613
 31
0.0
  0
ARC
  5
23BF
  8
0
  6
DASHED
 62
     3
 10
38.499999999999567
 20
-26.995955711050609
 30
0.0
 40
1.0
 50
180.0
 51
270.0
  0
ARC
  5
23C0
  8
0
  6
DASHED
 62
     3
 10
34.999999999999567
 20
-20.745955711050609
 30
0.0
 40
4.75
 50
0.0
 51
180.0
  0
ARC
  5
23C1
  8
0
  6
DASHED
 62
     3
 10
31.49999999999968
 20
-25.995955711050609
 30
0.0
 40
1.0
 50
0.0
 51
90.0
  0
LINE
  5
23C4
  8
0
  6
DASHED
 62
     3
 10
38.749999999999567
 20
-24.995955711050719
 30
0.0
 11
38.499999999999567
 21
-24.995955711050719
 31
0.0
  0
LINE
  5
23C5
  8
0
  6
DASHED
 62
     3
 10
30.249999999999549
 20
-20.745955711050609
 30
0.0
 11
30.249999999999549
 21
-23.995955711050609
 31
0.0
  0
ARC
  5
23C6
  8
0
  6
DASHED
 62
     3
 10
31.24999999999957
 20
-23.995955711050609
 30
0.0
 40
1.0
 50
180.0
 51
270.0
  0
CIRCLE
  5
23CA
  8
0
  6
CONTINUOUS
 62
     7
 10
34.99999999999968
 20
-19.995955711050819
 30
0.0
 40
2.0
  0
CIRCLE
  5
23CB
  8
0
  6
CONTINUOUS
 62
     7
 10
34.99999999999968
 20
-19.995955711050819
 30
0.0
 40
1.0
  0
LINE
  5
23CC
  8
0
  6
DASHED
 62
     3
 10
39.749999999999567
 20
-20.745955711050609
 30
0.0
 11
39.749999999999567
 21
-23.995955711050609
 31
0.0
  0
ARC
  5
23CD
  8
0
  6
DASHED
 62
     3
 10
38.749999999999567
 20
-23.995955711050609
 30
0.0
 40
1.0
 50
270.0
 51
0.0
  0
ARC
  5
23CE
  8
0
  6
DASHED
 62
     3
 10
38.499999999999567
 20
-25.995955711050499
 30
0.0
 40
1.0
 50
90.0
 51
180.00000000000651
  0
LINE
  5
23D1
  8
CENTER
  6
CENTER
 62
     1
 10
0.0
 20
-10.814643522939599
 30
0.0
 11
0.0000000000012221
 21
7.5000000000002274
 31
0.0
  0
LINE
  5
23D2
  8
0
  6
CONTINUOUS
 62
     7
 10
6.2500092431481562
 20
1.9999999999998861
 30
0.0
 11
6.2500092431481562
 21
-2.0000000000001128
 31
0.0
  0
ARC
  5
23D3
  8
0
  6
DASHED
 62
     3
 10
0.0
 20
0.0
 30
0.0
 40
5.0
 50
337.18075578145528
 51
233.3741904351775
  0
ARC
  5
23D5
  8
0
  6
DASHED
 62
     3
 10
0.0
 20
0.0
 30
0.0
 40
4.5
 50
337.18075578145601
 51
233.3741904351775
  0
LINE
  5
23D7
  8
0
  6
CONTINUOUS
 62
     7
 10
7.2500092431481562
 20
0.9999999999998863
 30
0.0
 11
7.2500092431481562
 21
-1.000000000000113
 31
0.0
  0
LINE
  5
23D8
  8
0
  6
CONTINUOUS
 62
     7
 10
-5.7499907568518429
 20
3.75
 30
0.0
 11
-5.7499907568518429
 21
-3.75
 31
0.0
  0
LINE
  5
23D9
  8
0
  6
CONTINUOUS
 62
     7
 10
-7.7499907568518429
 20
4.7499999999998863
 30
0.0
 11
-7.7499907568518429
 21
-4.7500000000001128
 31
0.0
  0
LINE
  5
23DA
  8
0
  6
DASHED
 62
     3
 10
-6.2499907568518429
 20
3.7499999999998859
 30
0.0
 11
-6.2499907568518429
 21
-3.7500000000001128
 31
0.0
  0
ARC
  5
23DB
  8
0
  6
CONTINUOUS
 62
     7
 10
-3.8778119453745599
 20
-5.2165673115863447
 30
0.0
 40
1.5
 50
329.99999999999898
 51
349.10818719056772
  0
LINE
  5
23DD
  8
0
  6
CONTINUOUS
 62
     7
 10
-5.7499907568518429
 20
-2.0000000000001128
 30
0.0
 11
-5.4999999999992317
 21
-2.0000000000001128
 31
0.0
  0
LINE
  5
23DE
  8
0
  6
CONTINUOUS
 62
     7
 10
-2.5787738396979871
 20
-5.9665673115863447
 30
0.0
 11
-4.0787738396979734
 21
-8.5646435229396047
 31
0.0
  0
LINE
  5
23DF
  8
0
  6
CONTINUOUS
 62
     7
 10
-2.14576113780572
 20
-6.2165673115863447
 30
0.0
 11
-3.6457611378057351
 21
-8.8146435229396616
 31
0.0
  0
LINE
  5
23E0
  8
CENTER
  6
CENTER
 62
     1
 10
-9.7499907568518438
 20
0.0
 30
0.0
 11
9.2500092431481562
 21
0.0
 31
0.0
  0
LINE
  5
23E1
  8
0
  6
CONTINUOUS
 62
     7
 10
-4.0787738396979734
 20
-8.5646435229396047
 30
0.0
 11
-3.6457611378057062
 21
-8.8146435229396047
 31
0.0
  0
LINE
  5
23E2
  8
0
  6
CONTINUOUS
 62
     7
 10
-6.7499907568518429
 20
-4.7500000000001128
 30
0.0
 11
-7.7499907568518429
 21
-4.7500000000001128
 31
0.0
  0
LINE
  5
23E3
  8
0
  6
DASHED
 62
     3
 10
-6.7499907568518429
 20
-4.2500000000001128
 30
0.0
 11
-7.7499907568518429
 21
-4.2500000000001128
 31
0.0
  0
ARC
  5
23E6
  8
0
  6
CONTINUOUS
 62
     7
 10
-6.7499907568518429
 20
-3.75
 30
0.0
 40
1.0
 50
270.0
 51
0.0
  0
LINE
  5
23E7
  8
0
  6
CONTINUOUS
 62
     7
 10
-5.7499907568518429
 20
-2.5
 30
0.0
 11
-5.4999999999992317
 21
-2.5
 31
0.0
  0
LINE
  5
23E8
  8
0
  6
DASHED
 62
     3
 10
-6.2499907568518429
 20
-1.5
 30
0.0
 11
-5.7499907568518429
 21
-1.5
 31
0.0
  0
ARC
  5
23E9
  8
0
  6
DASHED
 62
     3
 10
-6.7499907568518429
 20
-3.7500000000001128
 30
0.0
 40
0.5
 50
270.0
 51
0.0
  0
LINE
  5
23EA
  8
0
  6
DASHED
 62
     3
 10
5.2412641282273853
 20
-3.8199018754620511
 30
0.0
 11
5.500000000001676
 21
-3.9692831006799509
 31
0.0
  0
LINE
  5
23EB
  8
0
  6
DASHED
 62
     3
 10
4.9912641282272707
 20
-4.2529145773543169
 30
0.0
 11
5.5000000000016769
 21
-4.5466333698696744
 31
0.0
  0
ARC
  5
23EC
  8
0
  6
CONTINUOUS
 62
     7
 10
-3.8778119453745599
 20
-5.2165673115863447
 30
0.0
 40
2.0
 50
329.99999999999898
 51
351.85282412261029
  0
ARC
  5
23EE
  8
0
  6
DASHED
 62
     3
 10
5.9912641282273853
 20
-2.5208637697853642
 30
0.0
 40
1.999999999999998
 50
157.1807557814611
 51
240.00000000000131
  0
ARC
  5
23F0
  8
0
  6
DASHED
 62
     3
 10
5.991264128227157
 20
-2.5208637697853642
 30
0.0
 40
1.499999999999998
 50
157.1807557814611
 51
239.99999999999969
  0
LINE
  5
23F1
  8
0
  6
CONTINUOUS
 62
     7
 10
6.2500092431481562
 20
-2.0000000000001128
 30
0.0
 11
7.2500092431481562
 21
-1.000000000000113
 31
0.0
  0
LINE
  5
23F2
  8
0
  6
CONTINUOUS
 62
     7
 10
7.8393403395803167
 20
-5.3199018754622784
 30
0.0
 11
7.5893403395803167
 21
-5.7529145773546579
 31
0.0
  0
LINE
  5
23F5
  8
0
  6
CONTINUOUS
 62
     7
 10
-5.7499907568518429
 20
1.9999999999998861
 30
0.0
 11
-5.4999999999992317
 21
1.9999999999998861
 31
0.0
  0
LINE
  5
23F6
  8
0
  6
CONTINUOUS
 62
     7
 10
-6.7499907568518429
 20
4.7499999999998863
 30
0.0
 11
-7.7499907568518429
 21
4.7499999999998863
 31
0.0
  0
LINE
  5
23F7
  8
0
  6
DASHED
 62
     3
 10
-6.7499907568518429
 20
4.2499999999998863
 30
0.0
 11
-7.7499907568518429
 21
4.2499999999998863
 31
0.0
  0
ARC
  5
23F9
  8
0
  6
CONTINUOUS
 62
     7
 10
-6.7499907568518429
 20
3.75
 30
0.0
 40
1.0
 50
0.0
 51
90.0
  0
LINE
  5
23FA
  8
0
  6
CONTINUOUS
 62
     7
 10
-5.7499907568516164
 20
2.5
 30
0.0
 11
-5.4999999999992326
 21
2.49999999999998
 31
0.0
  0
LINE
  5
23FB
  8
0
  6
DASHED
 62
     3
 10
-5.7499907568518429
 20
1.5
 30
0.0
 11
-6.2499907568518429
 21
1.5
 31
0.0
  0
ARC
  5
23FC
  8
0
  6
DASHED
 62
     3
 10
-6.7499907568518429
 20
3.7499999999998859
 30
0.0
 40
0.5
 50
0.0
 51
90.0
  0
LINE
  5
23FD
  8
0
  6
CONTINUOUS
 62
     7
 10
7.2500092431481562
 20
0.9999999999998863
 30
0.0
 11
6.2500092431481562
 21
1.9999999999998861
 31
0.0
  0
LINE
  5
23FE
  8
0
  6
DASHED
 62
     3
 10
-5.4999999999992317
 20
-2.5
 30
0.0
 11
-4.3301270189220977
 21
-2.5
 31
0.0
  0
LINE
  5
23FF
  8
0
  6
DASHED
 62
     3
 10
-5.4999999999992326
 20
2.49999999999998
 30
0.0
 11
-4.3301270189220977
 21
2.4999999999998859
 31
0.0
  0
ARC
  5
2400
  8
0
  6
DASHED
 62
     3
 10
-3.8778119453745599
 20
-5.2165673115863447
 30
0.0
 40
1.5
 50
349.10818719056772
 51
53.374190435180388
  0
ARC
  5
2401
  8
0
  6
DASHED
 62
     3
 10
-3.8778119453745599
 20
-5.2165673115863447
 30
0.0
 40
2.0
 50
351.85282412261029
 51
53.374190435180388
  0
LINE
  5
2402
  8
0
  6
CONTINUOUS
 62
     7
 10
5.5000000000016769
 20
-4.5466333698696744
 30
0.0
 11
7.5893403395804313
 21
-5.7529145773541472
 31
0.0
  0
LINE
  5
2403
  8
0
  6
CONTINUOUS
 62
     7
 10
5.500000000001676
 20
-3.9692831006799509
 30
0.0
 11
7.8393403395805024
 21
-5.3199018754619507
 31
0.0
  0
LINE
  5
2404
  8
0
  6
DASHED
 62
     3
 10
-5.4999999999992317
 20
-2.0000000000001128
 30
0.0
 11
-2.1499999999977311
 21
-2.0000000000001128
 31
0.0
  0
LINE
  5
2405
  8
0
  6
CONTINUOUS
 62
     7
 10
-2.1499999999977311
 20
-2.0000000000001128
 30
0.0
 11
2.1500000000001762
 21
-2.0000000000001128
 31
0.0
  0
LINE
  5
2406
  8
0
  6
DASHED
 62
     3
 10
2.1500000000001762
 20
-2.0000000000001128
 30
0.0
 11
5.500000000001676
 21
-2.0000000000001128
 31
0.0
  0
LINE
  5
2407
  8
0
  6
CONTINUOUS
 62
     7
 10
5.500000000001676
 20
-2.0000000000001128
 30
0.0
 11
6.2500092431481562
 21
-2.0000000000001128
 31
0.0
  0
LINE
  5
2408
  8
0
  6
DASHED
 62
     3
 10
-5.4999999999992317
 20
1.9999999999998861
 30
0.0
 11
-2.1499999999977311
 21
1.9999999999998861
 31
0.0
  0
LINE
  5
2409
  8
0
  6
CONTINUOUS
 62
     7
 10
-2.1499999999977311
 20
1.9999999999998861
 30
0.0
 11
2.1500000000001762
 21
1.9999999999998861
 31
0.0
  0
LINE
  5
240A
  8
0
  6
DASHED
 62
     3
 10
2.1500000000001762
 20
1.9999999999998861
 30
0.0
 11
5.500000000001676
 21
1.9999999999998861
 31
0.0
  0
LINE
  5
240B
  8
0
  6
CONTINUOUS
 62
     7
 10
5.500000000001676
 20
1.9999999999998861
 30
0.0
 11
6.2500092431481562
 21
1.9999999999998861
 31
0.0
  0
LINE
  5
240C
  8
0
  6
DASHED
 62
     3
 10
39.249999999999837
 20
-33.995955711050613
 30
0.0
 11
39.249999999999837
 21
-27.995955711050819
 31
0.0
  0
LINE
  5
240D
  8
0
  6
CONTINUOUS
 62
     7
 10
30.74999999999984
 20
-33.995955711050613
 30
0.0
 11
30.74999999999984
 21
-35.995955711050819
 31
0.0
  0
LINE
  5
240E
  8
0
  6
DASHED
 62
     3
 10
30.749999999999851
 20
-28.087781239202279
 30
0.0
 11
30.74999999999984
 21
-33.995955711050613
 31
0.0
  0
ARC
  5
243F
  8
0
  6
CONTINUOUS
 62
     7
 10
-2.6457611378057351
 20
-32.995955711050478
 30
0.0
 40
1.0
 50
166.99999999999679
 51
270.0
  0
LINE
  5
2440
  8
0
  6
CONTINUOUS
 62
     7
 10
-3.620131202591224
 20
-32.771004656706658
 30
0.0
 11
-2.6966584380886749
 21
-28.771004656706658
 31
0.0
  0
ARC
  5
2441
  8
0
  6
CONTINUOUS
 62
     7
 10
-2.1553010751955308
 20
-28.995955711050708
 30
0.0
 40
1.0
 50
90.0
 51
166.99999999999679
  0
LINE
  5
2442
  8
0
  6
CONTINUOUS
 62
     7
 10
-5.0000000000002274
 20
-33.995955711050819
 30
0.0
 11
-1.8778119453745601
 21
-33.995955711050733
 31
0.0
  0
ARC
  5
2444
  8
0
  6
CONTINUOUS
 62
     7
 10
-3.0787738396979658
 20
-32.995955711050478
 30
0.0
 40
1.0
 50
166.99999999999679
 51
270.0
  0
LINE
  5
2445
  8
0
  6
CONTINUOUS
 62
     7
 10
-4.9999999999999343
 20
-28.573305980240409
 30
0.0
 11
-5.0000000000002274
 21
-33.995955711050819
 31
0.0
  0
LINE
  5
2446
  8
0
  6
CONTINUOUS
 62
     7
 10
-4.0531439044834618
 20
-32.771004656706658
 30
0.0
 11
-3.1296711399809061
 21
-28.771004656706658
 31
0.0
  0
ARC
  5
2447
  8
0
  6
CONTINUOUS
 62
     7
 10
5.6658675750783507
 20
-28.995955711050708
 30
0.0
 40
1.0
 50
13.000000000003149
 51
90.0
  0
ARC
  5
2448
  8
0
  6
CONTINUOUS
 62
     7
 10
5.9158675750782939
 20
-28.995955711050708
 30
0.0
 40
1.0
 50
13.000000000003149
 51
90.0
  0
LINE
  5
244B
  8
0
  6
CONTINUOUS
 62
     7
 10
3.9937745031849659
 20
-33.99595571105057
 30
0.0
 11
3.993774503184965
 21
-27.995955711050708
 31
0.0
  0
LINE
  5
244C
  8
0
  6
CONTINUOUS
 62
     7
 10
-1.8778119453745601
 20
-33.995955711050733
 30
0.0
 11
-1.8778119453745601
 21
-28.008123529690842
 31
0.0
  0
LINE
  5
244D
  8
0
  6
CONTINUOUS
 62
     7
 10
5.9158675750782939
 20
-27.995955711050708
 30
0.0
 11
-4.6835034190722418
 21
-27.995955711050708
 31
0.0
  0
ARC
  5
244E
  8
0
  6
CONTINUOUS
 62
     7
 10
-1.7222883733033001
 20
-28.995955711050708
 30
0.0
 40
1.0
 50
90.0
 51
166.99999999999679
  0
ARC
  5
244F
  8
0
  6
CONTINUOUS
 62
     7
 10
6.5893403395805592
 20
-32.995955711050478
 30
0.0
 40
1.0
 50
270.0
 51
13.000000000003149
  0
ARC
  5
2450
  8
0
  6
CONTINUOUS
 62
     7
 10
6.8393403395805024
 20
-32.995955711050478
 30
0.0
 40
1.0
 50
270.0
 51
13.000000000003149
  0
LINE
  5
2451
  8
0
  6
CONTINUOUS
 62
     7
 10
7.5637104043660477
 20
-32.771004656706658
 30
0.0
 11
6.6402376398638401
 21
-28.771004656706658
 31
0.0
  0
LINE
  5
2452
  8
0
  6
CONTINUOUS
 62
     7
 10
7.8137104043659908
 20
-32.771004656706658
 30
0.0
 11
6.8902376398637841
 21
-28.771004656706658
 31
0.0
  0
LINE
  5
2453
  8
CENTER
  6
CENTER
 62
     1
 10
-9.7499907568518402
 20
-19.995955711050819
 30
0.0
 11
9.2500092431480425
 21
-19.995955711050819
 31
0.0
  0
LINE
  5
2454
  8
0
  6
CONTINUOUS
 62
     7
 10
6.2500092431481562
 20
-21.995955711050819
 30
0.0
 11
5.5000000000005471
 21
-21.995955711050819
 31
0.0
  0
LINE
  5
2455
  8
0
  6
CONTINUOUS
 62
     7
 10
6.2500092431481562
 20
-17.995955711050819
 30
0.0
 11
5.5000000000005471
 21
-17.995955711050819
 31
0.0
  0
LINE
  5
2456
  8
0
  6
DASHED
 62
     3
 10
-6.2499907568519566
 20
-16.995955711050819
 30
0.0
 11
-6.2499907568519566
 21
-24.932447384154369
 31
0.0
  0
LINE
  5
2457
  8
0
  6
CONTINUOUS
 62
     7
 10
-7.7499907568518429
 20
-22.995955711050819
 30
0.0
 11
-7.7499907568518429
 21
-15.99595571105082
 31
0.0
  0
LINE
  5
2458
  8
0
  6
CONTINUOUS
 62
     7
 10
-5.7499907568518429
 20
-16.995955711050819
 30
0.0
 11
-5.7499907568518429
 21
-26.985598076502939
 31
0.0
  0
ARC
  5
2459
  8
0
  6
CONTINUOUS
 62
     7
 10
-5.7499907568518429
 20
-22.995955711050819
 30
0.0
 40
2.0
 50
180.0
 51
270.0
  0
LINE
  5
245B
  8
0
  6
CONTINUOUS
 62
     7
 10
-6.2499907568519566
 20
-24.932447384154369
 30
0.0
 11
-6.2499907568519557
 21
-26.985598076502939
 31
0.0
  0
LINE
  5
245C
  8
0
  6
DASHED
 62
     3
 10
-6.2499907568519566
 20
-21.495955711050819
 30
0.0
 11
-5.7499907568518429
 21
-21.495955711050819
 31
0.0
  0
LINE
  5
245D
  8
0
  6
DASHED
 62
     3
 10
-7.7499907568518429
 20
-16.495955711050819
 30
0.0
 11
-6.7499907568519566
 21
-16.495955711050819
 31
0.0
  0
LINE
  5
245E
  8
0
  6
CONTINUOUS
 62
     7
 10
-7.7499907568518429
 20
-15.99595571105082
 30
0.0
 11
-6.7499907568518429
 21
-15.99595571105082
 31
0.0
  0
ARC
  5
245F
  8
0
  6
DASHED
 62
     3
 10
-6.7499907568519566
 20
-16.995955711050819
 30
0.0
 40
0.5
 50
0.0
 51
90.0
  0
LINE
  5
2460
  8
0
  6
DASHED
 62
     3
 10
-6.2499907568519566
 20
-18.495955711050481
 30
0.0
 11
-5.7499907568518429
 21
-18.495955711050481
 31
0.0
  0
ARC
  5
2461
  8
0
  6
CONTINUOUS
 62
     7
 10
-6.7499907568518429
 20
-16.995955711050819
 30
0.0
 40
1.0
 50
0.0
 51
90.0
  0
LINE
  5
2462
  8
0
  6
CONTINUOUS
 62
     7
 10
6.2500092431481562
 20
-17.995955711050819
 30
0.0
 11
6.2500092431481562
 21
-21.995955711050819
 31
0.0
  0
LINE
  5
2463
  8
0
  6
CONTINUOUS
 62
     7
 10
7.2500092431480416
 20
-18.995955711050819
 30
0.0
 11
7.2500092431480416
 21
-20.995955711050819
 31
0.0
  0
LINE
  5
2464
  8
0
  6
CONTINUOUS
 62
     7
 10
6.2500092431481562
 20
-21.995955711050819
 30
0.0
 11
7.2500092431480416
 21
-20.995955711050819
 31
0.0
  0
LINE
  5
2465
  8
0
  6
CONTINUOUS
 62
     7
 10
6.2500092431481562
 20
-17.995955711050819
 30
0.0
 11
7.2500092431480416
 21
-18.995955711050819
 31
0.0
  0
LINE
  5
246E
  8
0
  6
DASHED
 62
     3
 10
31.49999999999968
 20
-24.995955711050719
 30
0.0
 11
31.24999999999957
 21
-24.995955711050719
 31
0.0
  0
LINE
  5
2470
  8
0
  6
CONTINUOUS
 62
     7
 10
37.539510869833329
 20
42.725726788902243
 30
0.0
 11
32.460489130165932
 21
42.725726788902243
 31
0.0
  0
LINE
  5
2471
  8
0
  6
CONTINUOUS
 62
     7
 10
31.49999999999968
 20
45.004044288949281
 30
0.0
 11
31.249999999999559
 21
45.004044288949267
 31
0.0
  0
LINE
  5
2472
  8
0
  6
CONTINUOUS
 62
     7
 10
5.9158675750782939
 20
42.004044288949288
 30
0.0
 11
-4.6835034190722409
 21
42.004044288949288
 31
0.0
  0
LINE
  5
2473
  8
0
  6
CONTINUOUS
 62
     7
 10
6.2500092431481562
 20
52.004044288949167
 30
0.0
 11
-5.7499907568518429
 21
52.004044288949167
 31
0.0
  0
LINE
  5
2474
  8
0
  6
CONTINUOUS
 62
     7
 10
6.2500092431481562
 20
48.004044288949181
 30
0.0
 11
-5.7499907568518429
 21
48.004044288949181
 31
0.0
  0
LINE
  5
2475
  8
CENTER
  6
CENTER
 62
     1
 10
-9.7499907568518402
 20
50.004044288949167
 30
0.0
 11
9.2500092431480425
 21
50.004044288949167
 31
0.0
  0
LINE
  5
2476
  8
0
  6
CONTINUOUS
 62
     7
 10
-5.0000000000002274
 20
36.004044288949167
 30
0.0
 11
6.8393403395805024
 21
36.004044288949508
 31
0.0
  0
ARC
  5
2477
  8
0
  6
CONTINUOUS
 62
     7
 10
-2.1553010751955308
 20
41.004044288949281
 30
0.0
 40
1.0
 50
90.0
 51
166.99999999999679
  0
LINE
  5
2478
  8
0
  6
CONTINUOUS
 62
     7
 10
-3.620131202591224
 20
37.228995343293327
 30
0.0
 11
-2.6966584380886749
 21
41.228995343293327
 31
0.0
  0
ARC
  5
2479
  8
0
  6
CONTINUOUS
 62
     7
 10
-2.6457611378057351
 20
37.004044288949508
 30
0.0
 40
1.0
 50
166.99999999999679
 51
270.0
  0
LINE
  5
247A
  8
0
  6
CONTINUOUS
 62
     7
 10
-5.7499907568518429
 20
53.004044288949181
 30
0.0
 11
-5.7499907568518429
 21
43.014401923497061
 31
0.0
  0
ARC
  5
247B
  8
0
  6
CONTINUOUS
 62
     7
 10
-5.7499907568518429
 20
47.004044288949167
 30
0.0
 40
2.0
 50
180.0
 51
270.0
  0
LINE
  5
247C
  8
0
  6
DASHED
 62
     3
 10
-6.2499907568519566
 20
53.004044288949181
 30
0.0
 11
-6.2499907568519566
 21
45.067552615845621
 31
0.0
  0
LINE
  5
247D
  8
0
  6
DASHED
 62
     3
 10
-4.5000000000000027
 20
41.426694019759609
 30
0.0
 11
-4.5000000000000071
 21
36.004044288949181
 31
0.0
  0
LINE
  5
247E
  8
0
  6
CONTINUOUS
 62
     7
 10
-4.9999999999999343
 20
41.42669401975958
 30
0.0
 11
-5.0000000000002274
 21
36.004044288949167
 31
0.0
  0
LINE
  5
247F
  8
0
  6
CONTINUOUS
 62
     7
 10
-4.0531439044834618
 20
37.228995343293327
 30
0.0
 11
-3.1296711399809061
 21
41.228995343293327
 31
0.0
  0
ARC
  5
2480
  8
0
  6
CONTINUOUS
 62
     7
 10
-3.0787738396979658
 20
37.004044288949508
 30
0.0
 40
1.0
 50
166.99999999999679
 51
270.0
  0
LINE
  5
2481
  8
0
  6
CONTINUOUS
 62
     7
 10
-4.9999999999999316
 20
42.29271942354405
 30
0.0
 11
-5.4999907568518447
 21
42.58138922160483
 31
0.0
  0
ARC
  5
2482
  8
0
  6
DASHED
 62
     3
 10
-5.4999999999999343
 20
41.426694019759609
 30
0.0
 40
1.0
 50
359.99999999999687
 51
35.264389682758143
  0
ARC
  5
2483
  8
0
  6
CONTINUOUS
 62
     7
 10
-5.4999999999999343
 20
41.426694019759609
 30
0.0
 40
1.0
 50
35.264389682758143
 51
59.99999999999978
  0
LINE
  5
2484
  8
0
  6
CONTINUOUS
 62
     7
 10
-5.2499999999999316
 20
41.859706721651833
 30
0.0
 11
-5.7499907568518518
 21
42.14837651971262
 31
0.0
  0
LINE
  5
2485
  8
0
  6
CONTINUOUS
 62
     7
 10
-6.2499907568519566
 20
45.067552615845621
 30
0.0
 11
-6.2499907568519566
 21
43.014401923497061
 31
0.0
  0
ARC
  5
2486
  8
0
  6
CONTINUOUS
 62
     7
 10
-5.2499907568518429
 20
43.014401923497061
 30
0.0
 40
1.0
 50
180.0
 51
239.99999999999989
  0
ARC
  5
2487
  8
0
  6
CONTINUOUS
 62
     7
 10
-5.4999999999999343
 20
41.426694019759609
 30
0.0
 40
0.5
 50
359.99999999999687
 51
59.999999999999751
  0
ARC
  5
2488
  8
0
  6
CONTINUOUS
 62
     7
 10
-5.2499907568518429
 20
43.014401923497061
 30
0.0
 40
0.5
 50
180.0
 51
239.99999999999989
  0
LINE
  5
248A
  8
0
  6
CONTINUOUS
 62
     7
 10
-7.7499907568518429
 20
47.004044288949167
 30
0.0
 11
-7.7499907568518429
 21
54.004044288949167
 31
0.0
  0
LINE
  5
248B
  8
0
  6
DASHED
 62
     3
 10
-6.2499907568519566
 20
51.504044288949508
 30
0.0
 11
-5.7499907568518429
 21
51.504044288949508
 31
0.0
  0
LINE
  5
248C
  8
0
  6
DASHED
 62
     3
 10
-6.2499907568519566
 20
48.504044288949167
 30
0.0
 11
-5.7499907568518429
 21
48.504044288949167
 31
0.0
  0
LINE
  5
248D
  8
0
  6
CONTINUOUS
 62
     7
 10
-7.7499907568518429
 20
54.004044288949167
 30
0.0
 11
-6.7499907568518429
 21
54.004044288949167
 31
0.0
  0
LINE
  5
248E
  8
0
  6
DASHED
 62
     3
 10
-7.7499907568518429
 20
53.504044288949167
 30
0.0
 11
-6.7499907568519566
 21
53.504044288949167
 31
0.0
  0
ARC
  5
248F
  8
0
  6
CONTINUOUS
 62
     7
 10
-6.7499907568518429
 20
53.004044288949181
 30
0.0
 40
1.0
 50
0.0
 51
90.0
  0
ARC
  5
2490
  8
0
  6
DASHED
 62
     3
 10
-6.7499907568519566
 20
53.004044288949181
 30
0.0
 40
0.5
 50
0.0
 51
90.0
  0
ARC
  5
2491
  8
0
  6
CONTINUOUS
 62
     7
 10
5.9158675750782939
 20
41.004044288949281
 30
0.0
 40
1.0
 50
13.000000000003149
 51
90.0
  0
ARC
  5
2492
  8
0
  6
CONTINUOUS
 62
     7
 10
5.6658675750783507
 20
41.004044288949281
 30
0.0
 40
1.0
 50
13.000000000003149
 51
90.0
  0
LINE
  5
2493
  8
0
  6
CONTINUOUS
 62
     7
 10
-1.8778119453745601
 20
36.004044288949252
 30
0.0
 11
-1.8778119453745601
 21
41.991876470309158
 31
0.0
  0
LINE
  5
2494
  8
0
  6
CONTINUOUS
 62
     7
 10
3.993774503184965
 20
36.004044288949167
 30
0.0
 11
3.993774503184965
 21
42.004044288949288
 31
0.0
  0
LINE
  5
2495
  8
0
  6
DASHED
 62
     3
 10
5.003153043233552
 20
42.004044288949508
 30
0.0
 11
5.003153043233552
 21
36.004044288949487
 31
0.0
  0
LINE
  5
2496
  8
0
  6
DASHED
 62
     3
 10
4.5
 20
42.004044288949501
 30
0.0
 11
4.5
 21
36.004044288949473
 31
0.0
  0
LINE
  5
2497
  8
CENTER
  6
CENTER
 62
     1
 10
0.0
 20
44.004044288949288
 30
0.0
 11
0.0
 21
34.004044288949309
 31
0.0
  0
ARC
  5
2498
  8
0
  6
CONTINUOUS
 62
     7
 10
-1.7222883733033001
 20
41.004044288949281
 30
0.0
 40
1.0
 50
90.0
 51
166.99999999999679
  0
LINE
  5
2499
  8
0
  6
CONTINUOUS
 62
     7
 10
7.8137104043659908
 20
37.228995343293327
 30
0.0
 11
6.8902376398637841
 21
41.228995343293327
 31
0.0
  0
LINE
  5
249A
  8
0
  6
CONTINUOUS
 62
     7
 10
7.5637104043660477
 20
37.228995343293327
 30
0.0
 11
6.6402376398638401
 21
41.228995343293327
 31
0.0
  0
ARC
  5
249B
  8
0
  6
CONTINUOUS
 62
     7
 10
6.8393403395805024
 20
37.004044288949508
 30
0.0
 40
1.0
 50
270.0
 51
13.000000000003149
  0
ARC
  5
249C
  8
0
  6
CONTINUOUS
 62
     7
 10
6.5893403395805592
 20
37.004044288949508
 30
0.0
 40
1.0
 50
270.0
 51
13.000000000003149
  0
LINE
  5
249D
  8
0
  6
CONTINUOUS
 62
     7
 10
6.2500092431481562
 20
52.004044288949167
 30
0.0
 11
7.2500092431480416
 21
51.004044288949167
 31
0.0
  0
LINE
  5
249E
  8
0
  6
CONTINUOUS
 62
     7
 10
6.2500092431481562
 20
48.004044288949181
 30
0.0
 11
7.2500092431480416
 21
49.004044288949167
 31
0.0
  0
LINE
  5
249F
  8
0
  6
CONTINUOUS
 62
     7
 10
7.2500092431480416
 20
51.004044288949167
 30
0.0
 11
7.2500092431480416
 21
49.004044288949167
 31
0.0
  0
LINE
  5
24A0
  8
0
  6
CONTINUOUS
 62
     7
 10
6.2500092431481562
 20
52.004044288949167
 30
0.0
 11
6.2500092431481562
 21
48.004044288949181
 31
0.0
  0
LINE
  5
24A2
  8
CENTER
  6
CENTER
 62
     1
 10
0.0000000000003197
 20
-12.99595571105082
 30
0.0
 11
0.0000000000005471
 21
-37.995955711050819
 31
0.0
  0
LINE
  5
24A3
  8
0
  6
DASHED
 62
     3
 10
2.0000000000002061
 20
-25.995955711050819
 30
0.0
 11
2.0000000000003189
 21
-35.995955711050819
 31
0.0
  0
LINE
  5
24A4
  8
0
  6
DASHED
 62
     3
 10
1.6210000000003
 20
-25.995955711050819
 30
0.0
 11
1.6210000000003
 21
-35.995955711050819
 31
0.0
  0
LINE
  5
24A5
  8
0
  6
DASHED
 62
     3
 10
-1.620999999999547
 20
-25.99595571105116
 30
0.0
 11
-1.6209999999996609
 21
-35.995955711050819
 31
0.0
  0
LINE
  5
24A6
  8
0
  6
DASHED
 62
     3
 10
-1.999999999999452
 20
-25.99595571105116
 30
0.0
 11
-1.99999999999968
 21
-35.995955711050819
 31
0.0
  0
LINE
  5
24A7
  8
0
  6
CONTINUOUS
 62
     7
 10
4.25
 20
-35.995955711050819
 30
0.0
 11
4.25
 21
-33.995955711050549
 31
0.0
  0
LINE
  5
24A8
  8
0
  6
DASHED
 62
     3
 10
-4.25
 20
-27.995955711050819
 30
0.0
 11
-4.25
 21
-33.995955711050797
 31
0.0
  0
LINE
  5
24A9
  8
0
  6
CONTINUOUS
 62
     7
 10
-4.25
 20
-35.995955711050819
 30
0.0
 11
4.25
 21
-35.995955711050819
 31
0.0
  0
ARC
  5
24AA
  8
0
  6
CONTINUOUS
 62
     7
 10
0.0000000000003197
 20
-27.127168551212431
 30
0.0
 40
10.556597609073769
 50
101.7513081759123
 51
121.39943386128211
  0
ARC
  5
24AC
  8
0
  6
CONTINUOUS
 62
     7
 10
0.0000000000004547
 20
-16.864742870889071
 30
0.0
 40
10.556597609073769
 50
238.60056613871771
 51
301.39943386128402
  0
LINE
  5
24AD
  8
0
  6
DASHED
 62
     3
 10
-5.4999999999995657
 20
-22.09595571105082
 30
0.0
 11
-2.149999999997724
 21
-22.09595571105082
 31
0.0
  0
LINE
  5
24AE
  8
0
  6
DASHED
 62
     3
 10
-5.4999999999995657
 20
-17.895955711050831
 30
0.0
 11
-2.149999999997724
 21
-17.895955711050831
 31
0.0
  0
ARC
  5
24B0
  8
0
  6
CONTINUOUS
 62
     7
 10
-1.5120053305024961
 20
-19.87022178245935
 30
0.0
 40
4.9158424438938892
 50
97.457075112754055
 51
144.21858877658639
  0
LINE
  5
24B1
  8
0
  6
CONTINUOUS
 62
     7
 10
-5.4999999999995657
 20
-16.99595571105084
 30
0.0
 11
-5.4999999999995657
 21
-27.423780743566141
 31
0.0
  0
ARC
  5
24B2
  8
0
  6
CONTINUOUS
 62
     7
 10
0.250003619645895
 20
-16.513547366367899
 30
0.0
 40
12.332709919999999
 50
242.20949275262021
 51
248.5995804426166
  0
LINE
  5
24B3
  8
0
  6
CONTINUOUS
 62
     7
 10
5.5000000000005471
 20
-27.423780743566098
 30
0.0
 11
5.5000000000005471
 21
-16.99595571105084
 31
0.0
  0
LINE
  5
24B4
  8
0
  6
CONTINUOUS
 62
     7
 10
2.1500000000005448
 20
-25.995955711050819
 30
0.0
 11
2.1500000000004809
 21
-14.99595571105082
 31
0.0
  0
LINE
  5
24B5
  8
0
  6
CONTINUOUS
 62
     7
 10
-2.149999999999451
 20
-25.99595571105116
 30
0.0
 11
-2.149999999997724
 21
-14.99595571105082
 31
0.0
  0
LINE
  5
24B6
  8
0
  6
CONTINUOUS
 62
     7
 10
-2.149999999999451
 20
-25.99595571105116
 30
0.0
 11
2.1500000000005448
 21
-25.995955711050819
 31
0.0
  0
LINE
  5
24B7
  8
0
  6
DASHED
 62
     3
 10
2.1500000000001829
 20
-22.09595571105082
 30
0.0
 11
5.5000000000005498
 21
-22.09595571105082
 31
0.0
  0
ARC
  5
24B8
  8
0
  6
CONTINUOUS
 62
     7
 10
-0.2500036196450139
 20
-16.513547366367899
 30
0.0
 40
12.332709919999999
 50
291.40041955738502
 51
297.79050724738022
  0
ARC
  5
24B9
  8
0
  6
CONTINUOUS
 62
     7
 10
0.0000000000003197
 20
-27.127168551212431
 30
0.0
 40
10.556597609073769
 50
58.600566138716033
 51
78.24869182407744
  0
LINE
  5
24BA
  8
0
  6
DASHED
 62
     3
 10
2.1500000000001829
 20
-17.895955711050831
 30
0.0
 11
5.5000000000005498
 21
-17.895955711050831
 31
0.0
  0
ARC
  5
24BB
  8
0
  6
CONTINUOUS
 62
     7
 10
1.512005330501395
 20
-19.870221782461961
 30
0.0
 40
4.9158424438969819
 50
35.78141122342231
 51
82.542924887204606
  0
LINE
  5
24BC
  8
0
  6
CONTINUOUS
 62
     7
 10
-5.4999999999995657
 20
-21.995955711050819
 30
0.0
 11
-5.7499907568518429
 21
-21.995955711050819
 31
0.0
  0
LINE
  5
24BD
  8
0
  6
CONTINUOUS
 62
     7
 10
-5.4999999999995657
 20
-17.995955711050819
 30
0.0
 11
-5.7499907568518429
 21
-17.995955711050819
 31
0.0
  0
LINE
  5
24BE
  8
0
  6
DASHED
 62
     3
 10
-2.1499999999981951
 20
-17.995955711050819
 30
0.0
 11
-5.4999999999995657
 21
-17.995955711050819
 31
0.0
  0
LINE
  5
24BF
  8
0
  6
DASHED
 62
     3
 10
-2.1499999999988231
 20
-21.995955711050819
 30
0.0
 11
-5.4999999999995657
 21
-21.995955711050819
 31
0.0
  0
LINE
  5
24C0
  8
0
  6
CONTINUOUS
 62
     7
 10
2.1500000000004991
 20
-17.995955711050819
 30
0.0
 11
-2.1499999999981951
 21
-17.995955711050819
 31
0.0
  0
LINE
  5
24C1
  8
0
  6
DASHED
 62
     3
 10
5.5000000000005471
 20
-17.995955711050819
 30
0.0
 11
2.1500000000004991
 21
-17.995955711050819
 31
0.0
  0
LINE
  5
24C2
  8
0
  6
CONTINUOUS
 62
     7
 10
2.1500000000005222
 20
-21.995955711050819
 30
0.0
 11
-2.1499999999988231
 21
-21.995955711050819
 31
0.0
  0
LINE
  5
24C3
  8
0
  6
DASHED
 62
     3
 10
5.5000000000005471
 20
-21.995955711050819
 30
0.0
 11
2.1500000000005222
 21
-21.995955711050819
 31
0.0
  0
LINE
  5
24C4
  8
0
  6
CONTINUOUS
 62
     7
 10
-4.25
 20
-33.995955711050797
 30
0.0
 11
-4.25
 21
-35.995955711050819
 31
0.0
  0
LINE
  5
24C5
  8
0
  6
DASHED
 62
     3
 10
4.25
 20
-33.995955711050549
 30
0.0
 11
4.25
 21
-27.995955711050819
 31
0.0
  0
LINE
  5
250D
  8
0
  6
DASHED
 62
     3
 10
-1.8778119453745601
 20
-33.995955711050733
 30
0.0
 11
3.993774503184965
 21
-33.99595571105057
 31
0.0
  0
LINE
  5
250E
  8
0
  6
CONTINUOUS
 62
     7
 10
3.993774503184965
 20
-33.99595571105057
 30
0.0
 11
6.8393403395805024
 21
-33.995955711050478
 31
0.0
  0
ARC
  5
254B
  8
0
  6
CONTINUOUS
 62
     7
 10
-5.2499907568518429
 20
-26.985598076502939
 30
0.0
 40
0.5
 50
180.0
 51
239.99999999999989
  0
ARC
  5
254C
  8
0
  6
CONTINUOUS
 62
     7
 10
-5.4999999999999343
 20
-28.573305980240381
 30
0.0
 40
0.5
 50
359.99999999999687
 51
59.999999999999751
  0
ARC
  5
254D
  8
0
  6
CONTINUOUS
 62
     7
 10
-5.2499907568518429
 20
-26.985598076502939
 30
0.0
 40
1.0
 50
180.0
 51
239.99999999999989
  0
LINE
  5
254E
  8
0
  6
CONTINUOUS
 62
     7
 10
-5.2499999999999316
 20
-28.14029327834816
 30
0.0
 11
-5.7499907568518518
 21
-27.851623480287369
 31
0.0
  0
ARC
  5
254F
  8
0
  6
CONTINUOUS
 62
     7
 10
-5.4999999999999343
 20
-28.573305980240381
 30
0.0
 40
1.0
 50
35.264389682758143
 51
59.99999999999978
  0
LINE
  5
2551
  8
0
  6
CONTINUOUS
 62
     7
 10
-4.9999999999999316
 20
-27.70728057645594
 30
0.0
 11
-5.4999907568518447
 21
-27.418610778395159
 31
0.0
  0
ARC
  5
25A3
  8
0
  6
CONTINUOUS
 62
     7
 10
30.680098124537711
 20
37.004953192608177
 30
0.0
 40
1.0
 50
166.99999999999659
 51
270.0
  0
LINE
  5
25A7
  8
0
  6
CONTINUOUS
 62
     7
 10
29.705728059752211
 20
37.229904246952003
 30
0.0
 11
30.62920082425476
 21
41.229904246952003
 31
0.0
  0
ARC
  5
25A8
  8
0
  6
CONTINUOUS
 62
     7
 10
31.603570889040149
 20
41.004953192607957
 30
0.0
 40
1.0
 50
92.443033688842945
 51
166.99999999999659
  0
LINE
  5
25C5
  8
0
  6
CONTINUOUS
 62
     7
 10
29.705728059752211
 20
-32.770095753047997
 30
0.0
 11
30.62920082425476
 21
-28.770095753048
 31
0.0
  0
ARC
  5
25C6
  8
0
  6
CONTINUOUS
 62
     7
 10
31.603570889040149
 20
-28.99504680739205
 30
0.0
 40
1.0
 50
92.443033688842945
 51
166.99999999999659
  0
ARC
  5
25C7
  8
0
  6
CONTINUOUS
 62
     7
 10
30.680098124537711
 20
-32.995046807391823
 30
0.0
 40
1.0
 50
166.99999999999659
 51
270.0
  0
CIRCLE
  5
26D7
  8
0
  6
DASHED
 62
     3
 10
35.0
 20
-19.995955711050819
 30
0.0
 40
1.5
  0
ENDSEC
  0
EOF
