  0
SECTION
  2
HEADER
  9
$ACADVER
  1
AC1009
  9
$INSBASE
 10
0.0
 20
0.0
 30
0.0
  9
$EXTMIN
 10
40.70970227698524
 20
173.54279128320141
 30
-0.0015258207003583
  9
$EXTMAX
 10
87.501160115587027
 20
214.4838092259011
 30
0.0000000349246037
  9
$LIMMIN
 10
0.0
 20
0.0
  9
$LIMMAX
 10
297.0
 20
210.0
  9
$ORTHOMODE
 70
     1
  9
$REGENMODE
 70
     1
  9
$FILLMODE
 70
     1
  9
$QTEXTMODE
 70
     0
  9
$MIRRTEXT
 70
     1
  9
$DRAGMODE
 70
     2
  9
$LTSCALE
 40
1.0
  9
$OSMODE
 70
   959
  9
$ATTMODE
 70
     1
  9
$TEXTSIZE
 40
8.0
  9
$TRACEWID
 40
1.0
  9
$TEXTSTYLE
  7
STANDARD
  9
$CLAYER
  8
0
  9
$CELTYPE
  6
CONTINUOUS
  9
$CECOLOR
 62
     7
  9
$DIMSCALE
 40
1.0
  9
$DIMASZ
 40
3.0
  9
$DIMEXO
 40
1.0
  9
$DIMDLI
 40
0.0
  9
$DIMRND
 40
0.0
  9
$DIMDLE
 40
0.0
  9
$DIMEXE
 40
1.0
  9
$DIMTP
 40
0.0
  9
$DIMTM
 40
0.0
  9
$DIMTXT
 40
3.2000000000000002
  9
$DIMCEN
 40
0.0
  9
$DIMTSZ
 40
0.0
  9
$DIMTOL
 70
     0
  9
$DIMLIM
 70
     0
  9
$DIMTIH
 70
     0
  9
$DIMTOH
 70
     0
  9
$DIMSE1
 70
     0
  9
$DIMSE2
 70
     0
  9
$DIMTAD
 70
     1
  9
$DIMZIN
 70
     8
  9
$DIMBLK
  1

  9
$DIMASO
 70
     1
  9
$DIMSHO
 70
     1
  9
$DIMPOST
  1

  9
$DIMAPOST
  1

  9
$DIMALT
 70
     0
  9
$DIMALTD
 70
     2
  9
$DIMALTF
 40
0.04
  9
$DIMLFAC
 40
1.0
  9
$DIMTOFL
 70
     1
  9
$DIMTVP
 40
1.0
  9
$DIMTIX
 70
     1
  9
$DIMSOXD
 70
     0
  9
$DIMSAH
 70
     0
  9
$DIMBLK1
  1

  9
$DIMBLK2
  1

  9
$DIMSTYLE
  2
MISUMI
  9
$DIMCLRD
 70
     0
  9
$DIMCLRE
 70
     0
  9
$DIMCLRT
 70
     0
  9
$DIMTFAC
 40
0.6
  9
$DIMGAP
 40
1.0
  9
$LUNITS
 70
     2
  9
$LUPREC
 70
     2
  9
$SKETCHINC
 40
1.0
  9
$FILLETRAD
 40
10.0
  9
$AUNITS
 70
     0
  9
$AUPREC
 70
     0
  9
$MENU
  1
acad
  9
$ELEVATION
 40
0.0
  9
$PELEVATION
 40
0.0
  9
$THICKNESS
 40
0.0
  9
$LIMCHECK
 70
     0
  9
$BLIPMODE
 70
     0
  9
$CHAMFERA
 40
0.0
  9
$CHAMFERB
 40
0.0
  9
$SKPOLY
 70
     0
  9
$TDCREATE
 40
2451466.6344030439
  9
$TDUPDATE
 40
2454853.8538772222
  9
$TDINDWG
 40
0.2038966088
  9
$TDUSRTIMER
 40
0.2038871644
  9
$USRTIMER
 70
     1
  9
$ANGBASE
 50
0.0
  9
$ANGDIR
 70
     0
  9
$PDMODE
 70
    64
  9
$PDSIZE
 40
0.0
  9
$PLINEWID
 40
0.0
  9
$COORDS
 70
     1
  9
$SPLFRAME
 70
     0
  9
$SPLINETYPE
 70
     6
  9
$SPLINESEGS
 70
     8
  9
$ATTDIA
 70
     0
  9
$ATTREQ
 70
     1
  9
$HANDLING
 70
     1
  9
$HANDSEED
  5
1534
  9
$SURFTAB1
 70
     6
  9
$SURFTAB2
 70
     6
  9
$SURFTYPE
 70
     6
  9
$SURFU
 70
     6
  9
$SURFV
 70
     6
  9
$UCSNAME
  2

  9
$UCSORG
 10
0.0
 20
0.0
 30
0.0
  9
$UCSXDIR
 10
1.0
 20
0.0
 30
0.0
  9
$UCSYDIR
 10
0.0
 20
1.0
 30
0.0
  9
$PUCSNAME
  2

  9
$PUCSORG
 10
0.0
 20
0.0
 30
0.0
  9
$PUCSXDIR
 10
1.0
 20
0.0
 30
0.0
  9
$PUCSYDIR
 10
0.0
 20
1.0
 30
0.0
  9
$USERI1
 70
     0
  9
$USERI2
 70
     0
  9
$USERI3
 70
     0
  9
$USERI4
 70
     0
  9
$USERI5
 70
     0
  9
$USERR1
 40
0.0
  9
$USERR2
 40
0.0
  9
$USERR3
 40
0.0
  9
$USERR4
 40
0.0
  9
$USERR5
 40
0.0
  9
$WORLDVIEW
 70
     1
  9
$SHADEDGE
 70
     3
  9
$SHADEDIF
 70
    70
  9
$TILEMODE
 70
     1
  9
$MAXACTVP
 70
    16
  9
$PLIMCHECK
 70
     0
  9
$PEXTMIN
 10
0.0
 20
0.0
 30
0.0
  9
$PEXTMAX
 10
0.0
 20
0.0
 30
0.0
  9
$PLIMMIN
 10
0.0
 20
0.0
  9
$PLIMMAX
 10
12.0
 20
9.0
  9
$UNITMODE
 70
     0
  9
$VISRETAIN
 70
     0
  9
$PLINEGEN
 70
     0
  9
$PSLTSCALE
 70
     1
  0
ENDSEC
  0
SECTION
  2
TABLES
  0
TABLE
  2
VPORT
 70
     1
  0
VPORT
  2
*ACTIVE
 70
     0
 10
0.0
 20
0.0
 11
1.0
 21
1.0
 12
64.105431196286133
 22
194.01330025455121
 13
0.0
 23
0.0
 14
10.0
 24
10.0
 15
0.0
 25
0.0
 16
0.0
 26
0.0
 36
1.0
 17
0.0
 27
0.0
 37
0.0
 40
41.252356482187849
 41
1.4974619289340101
 42
50.0
 43
0.0
 44
0.0
 50
0.0
 51
0.0
 71
     0
 72
   100
 73
     1
 74
     0
 75
     0
 76
     0
 77
     0
 78
     1
  0
ENDTAB
  0
TABLE
  2
LTYPE
 70
     4
  0
LTYPE
  2
CONTINUOUS
 70
     0
  3
Solid line
 72
    65
 73
     0
 40
0.0
  0
LTYPE
  2
CENTER
 70
     0
  3
____ _ ____ _ ____ _ ____ _ ____ _ ____ _ ____
 72
    65
 73
     4
 40
17.5
 49
13.0
 49
-1.5
 49
1.5
 49
-1.5
  0
ENDTAB
  0
TABLE
  2
LAYER
 70
     4
  0
LAYER
  2
0
 70
     0
 62
     7
  6
CONTINUOUS
  0
LAYER
  2
CENTER
 70
     0
 62
     1
  6
CENTER
  0
ENDTAB
  0
TABLE
  2
STYLE
 70
     2
  0
STYLE
  2
STANDARD
 70
     0
 40
0.0
 41
1.0
 50
0.0
 71
     0
 42
8.0
  3
txt.shx
  4
@extfont2.shx
  0
ENDTAB
  0
TABLE
  2
VIEW
 70
     1
  0
ENDTAB
  0
TABLE
  2
UCS
 70
     0
  0
ENDTAB
  0
TABLE
  2
APPID
 70
     4
  0
APPID
  2
ACAD
 70
     0
  0
APPID
  2
ACAECLAYERSTANDARD
 70
     0
  0
APPID
  2
ACAD_EXEMPT_FROM_CAD_STANDARDS
 70
     0
  0
APPID
  2
ACAD_PSEXT
 70
     0
  0
ENDTAB
  0
TABLE
  2
DIMSTYLE
 70
     2
  0
DIMSTYLE
  2
MISUMI
 70
     0
  3

  4

  5

  6

  7

 40
1.0
 41
3.0
 42
1.0
 43
0.0
 44
1.0
 45
0.0
 46
0.0
 47
0.0
 48
0.0
140
3.2000000000000002
141
0.0
142
0.0
143
0.04
144
1.0
145
1.0
146
0.6
147
1.0
 71
     0
 72
     0
 73
     0
 74
     0
 75
     0
 76
     0
 77
     1
 78
     8
170
     0
171
     2
172
     1
173
     0
174
     1
175
     0
176
     0
177
     0
178
     0
  0
ENDTAB
  0
ENDSEC
  0
SECTION
  2
BLOCKS
  0
BLOCK
  8
0
  2
$MODEL_SPACE
 70
     0
 10
0.0
 20
0.0
 30
0.0
  3
$MODEL_SPACE
  1

  0
ENDBLK
  5
14C8
  8
0
  0
BLOCK
 67
     1
  8
0
 62
     7
  2
$PAPER_SPACE
 70
     0
 10
0.0
 20
0.0
 30
0.0
  3
$PAPER_SPACE
  1

  0
ENDBLK
  5
1518
 67
     1
  8
0
 62
     7
  0
ENDSEC
  0
SECTION
  2
ENTITIES
  0
TEXT
  5
E59
  8
0
  6
CONTINUOUS
 62
     7
 10
40.722362558253927
 20
183.55052283323229
 30
0.0
 40
2.0
  1
MBF23-2.1
  0
TEXT
  5
E5A
  8
0
  6
CONTINUOUS
 62
     7
 10
40.722362558253927
 20
173.55052283323209
 30
0.0
 40
2.0
  1
MBF23-2.1
  0
ARC
  5
FEC
  8
0
  6
CONTINUOUS
 62
     7
 10
82.990738922737421
 20
188.85226339988279
 30
0.0
 40
2.1000000000000001
 50
0.0
 51
180.0
  0
ARC
  5
FED
  8
0
  6
CONTINUOUS
 62
     7
 10
82.990738922737421
 20
212.0522633998828
 30
0.0
 40
2.1000000000000001
 50
180.0
 51
0.0
  0
LINE
  5
FEE
  8
CENTER
  6
CENTER
 62
     1
 10
78.490738922737421
 20
188.85226339988279
 30
0.0
 11
87.490738922737421
 21
188.85226339988279
 31
0.0
  0
LINE
  5
FEF
  8
CENTER
  6
CENTER
 62
     1
 10
78.490738922737421
 20
212.0522633998828
 30
0.0
 11
87.490738922737449
 21
212.0522633998828
 31
0.0
  0
LINE
  5
FF2
  8
CENTER
  6
CENTER
 62
     1
 10
82.990738922737421
 20
214.47726339988279
 30
0.0
 11
82.990738922737421
 21
186.4272633998828
 31
0.0
  0
LINE
  5
FF3
  8
0
  6
CONTINUOUS
 62
     7
 10
80.890738922737413
 20
187.95226339988281
 30
0.0
 11
80.890738922737413
 21
188.85226339988279
 31
0.0
  0
LINE
  5
FF4
  8
0
  6
CONTINUOUS
 62
     7
 10
80.490738922737421
 20
187.95226339988281
 30
0.0
 11
80.890738922737413
 21
187.95226339988281
 31
0.0
  0
LINE
  5
FF5
  8
0
  6
CONTINUOUS
 62
     7
 10
80.490738922737421
 20
187.95226339988281
 30
0.0
 11
80.490738922737421
 21
212.95226339988281
 31
0.0
  0
LINE
  5
FF6
  8
0
  6
CONTINUOUS
 62
     7
 10
80.890738922737413
 20
212.95226339988281
 30
0.0
 11
80.890738922737413
 21
212.0522633998828
 31
0.0
  0
LINE
  5
FF7
  8
0
  6
CONTINUOUS
 62
     7
 10
80.490738922737421
 20
212.95226339988281
 30
0.0
 11
80.890738922737413
 21
212.95226339988281
 31
0.0
  0
LINE
  5
FF9
  8
0
  6
CONTINUOUS
 62
     7
 10
85.09073892273743
 20
187.95226339988281
 30
0.0
 11
85.09073892273743
 21
188.85226339988279
 31
0.0
  0
LINE
  5
FFA
  8
0
  6
CONTINUOUS
 62
     7
 10
85.490738922737421
 20
187.95226339988281
 30
0.0
 11
85.09073892273743
 21
187.95226339988281
 31
0.0
  0
LINE
  5
FFB
  8
0
  6
CONTINUOUS
 62
     7
 10
85.490738922737421
 20
187.95226339988281
 30
0.0
 11
85.490738922737407
 21
212.95226339988281
 31
0.0
  0
LINE
  5
FFC
  8
0
  6
CONTINUOUS
 62
     7
 10
85.09073892273743
 20
212.95226339988281
 30
0.0
 11
85.09073892273743
 21
212.0522633998828
 31
0.0
  0
LINE
  5
FFD
  8
0
  6
CONTINUOUS
 62
     7
 10
85.490738922737421
 20
212.95226339988281
 30
0.0
 11
85.09073892273743
 21
212.95226339988281
 31
0.0
  0
ARC
  5
1276
  8
0
 10
84.940738922737438
 20
193.9272633998828
 30
0.0
 40
0.25
 50
180.0
 51
319.19441000000018
  0
LINE
  5
1277
  8
0
 10
80.690738922737438
 20
192.95226339988281
 30
0.0
 11
85.290738922737404
 21
192.95226339988281
 31
0.0
  0
ARC
  5
1278
  8
0
 10
84.940738922737438
 20
193.9272633998828
 30
0.0
 40
0.1
 50
180.0
 51
347.12491999999992
  0
ARC
  5
1279
  8
0
 10
84.940738922737438
 20
193.83265339988279
 30
0.0
 40
0.25
 50
179.99955999999969
 51
330.00020999999907
  0
LINE
  5
127A
  8
0
 10
84.940738922737438
 20
196.20226339988281
 30
0.0
 11
85.190738922737424
 21
196.20226339988281
 31
0.0
  0
LINE
  5
127B
  8
0
 10
84.940738922737438
 20
196.35226339988279
 30
0.0
 11
85.140738922737398
 21
196.35226339988279
 31
0.0
  0
LINE
  5
127C
  8
0
 10
84.690737910446416
 20
196.55226339987769
 30
0.0
 11
85.390738922737413
 21
196.5522633998828
 31
0.0
  0
LINE
  5
127D
  8
0
 10
84.690738922737438
 20
194.43887339988279
 30
0.0
 11
85.190738922737424
 21
194.72754339988279
 31
0.0
  0
LINE
  5
127E
  8
0
 10
84.840738922737387
 20
194.35227339988279
 30
0.0
 11
85.340738922737401
 21
194.64094339988279
 31
0.0
  0
LINE
  5
127F
  8
0
 10
80.690738922737438
 20
203.45226339988281
 30
0.0
 11
85.290738922737404
 21
203.45226339988281
 31
0.0
  0
LINE
  5
1280
  8
0
 10
80.690738922737438
 20
197.45226339988281
 30
0.0
 11
85.290738922737404
 21
197.45226339988281
 31
0.0
  0
LINE
  5
1281
  8
0
 10
80.690738922737438
 20
207.95226339988281
 30
0.0
 11
85.290738922737404
 21
207.95226339988281
 31
0.0
  0
ARC
  5
1282
  8
0
 10
84.940738922737438
 20
206.97726339988279
 30
0.0
 40
0.25
 50
40.805589999999761
 51
180.0
  0
LINE
  5
1283
  8
0
 10
84.840738922737387
 20
206.5522533998828
 30
0.0
 11
85.340738922737401
 21
206.2635833998828
 31
0.0
  0
LINE
  5
1284
  8
0
 10
84.690738922737438
 20
206.4656533998828
 30
0.0
 11
85.190738922737424
 21
206.1769833998828
 31
0.0
  0
LINE
  5
1285
  8
0
 10
84.690737910446416
 20
204.3522633998879
 30
0.0
 11
85.390738922737413
 21
204.35226339988279
 31
0.0
  0
LINE
  5
1286
  8
0
 10
84.940738922737438
 20
204.5522633998828
 30
0.0
 11
85.140738922737398
 21
204.5522633998828
 31
0.0
  0
LINE
  5
1287
  8
0
 10
84.940738922737438
 20
204.70226339988281
 30
0.0
 11
85.190738922737424
 21
204.70226339988281
 31
0.0
  0
ARC
  5
1288
  8
0
 10
84.940738922737438
 20
207.0718733998828
 30
0.0
 40
0.25
 50
29.99979000000101
 51
180.00043999999869
  0
ARC
  5
1289
  8
0
 10
84.940738922737438
 20
206.97726339988279
 30
0.0
 40
0.1
 50
12.87508000000024
 51
180.0
  0
LINE
  5
128A
  8
CENTER
  6
CENTER
 62
     1
 10
79.234825202904062
 20
200.45226339988281
 30
0.0
 11
86.746652642570794
 21
200.45226339988281
 31
0.0
  0
LINE
  5
128B
  8
0
 10
80.490738922737421
 20
200.45226339988281
 30
0.0
 11
80.490738922737421
 21
207.75226339988279
 31
0.0
  0
LINE
  5
128C
  8
0
 10
80.490738922737421
 20
200.45226339988281
 30
0.0
 11
80.490738922737421
 21
193.1522633998828
 31
0.0
  0
ARC
  5
128D
  8
0
 10
80.690738922737438
 20
193.1522633998828
 30
0.0
 40
0.2
 50
180.0
 51
270.0
  0
ARC
  5
128E
  8
0
 10
80.690738922737438
 20
197.25226339988279
 30
0.0
 40
0.2
 50
90.0
 51
180.0
  0
LINE
  5
128F
  8
0
 10
82.157018922737421
 20
194.35226339988279
 30
0.0
 11
81.390728922737424
 21
194.35226339988279
 31
0.0
  0
LINE
  5
1290
  8
0
 10
82.157018922737421
 20
196.0522633998828
 30
0.0
 11
81.490738922737421
 21
196.0522633998828
 31
0.0
  0
CIRCLE
  5
1291
  8
0
 10
82.990738922737421
 20
195.20226339988281
 30
0.0
 40
1.19062
  0
LINE
  5
1292
  8
0
 10
80.640738922737413
 20
194.64094339988279
 30
0.0
 11
80.640738922740496
 21
196.1522645168935
 31
0.0
  0
LINE
  5
1293
  8
0
 10
80.790738922737418
 20
194.72754339988279
 30
0.0
 11
80.790738922737418
 21
196.20226339988281
 31
0.0
  0
LINE
  5
1294
  8
0
 10
80.740738922737435
 20
193.85226339988279
 30
0.0
 11
80.590728922737412
 21
193.85226339988279
 31
0.0
  0
LINE
  5
1295
  8
0
 10
80.590728922737412
 20
193.85226339988279
 30
0.0
 11
80.490738922737421
 21
193.7522733998828
 31
0.0
  0
LINE
  5
1296
  8
0
 10
81.140738922737427
 20
193.9272633998828
 30
0.0
 11
81.140738922737427
 21
194.35227339988279
 31
0.0
  0
LINE
  5
1297
  8
0
 10
81.290738922737404
 20
193.9272633998828
 30
0.0
 11
81.290738922737404
 21
194.43887339988279
 31
0.0
  0
LINE
  5
1298
  8
0
 10
81.390728922737424
 20
194.35226339988279
 30
0.0
 11
81.290738922737404
 21
194.2522733998828
 31
0.0
  0
LINE
  5
1299
  8
0
 10
80.790738922737418
 20
194.33414339988281
 30
0.0
 11
80.640738922737413
 21
194.3887433998828
 31
0.0
  0
LINE
  5
129A
  8
0
 10
80.640738922737413
 20
194.15574339988279
 30
0.0
 11
80.640738922737413
 21
194.3887433998828
 31
0.0
  0
ARC
  5
129B
  8
0
 10
81.040738922737447
 20
193.9272633998828
 30
0.0
 40
0.25
 50
220.80558999999971
 51
0.0
  0
LINE
  5
129C
  8
0
 10
80.790738922737418
 20
194.19593339988279
 30
0.0
 11
80.790738922737418
 21
194.33414339988281
 31
0.0
  0
ARC
  5
129D
  8
0
 10
80.890738922737413
 20
194.19593339988279
 30
0.0
 40
0.1
 50
179.99939999999981
 51
209.99968000000089
  0
ARC
  5
129E
  8
0
 10
80.740738922737435
 20
194.15574339988279
 30
0.0
 40
0.1
 50
179.99939999999981
 51
209.99968000000089
  0
LINE
  5
129F
  8
0
 10
80.824228922737419
 20
193.70765339988279
 30
0.0
 11
80.740738922737435
 21
193.85226339988279
 31
0.0
  0
ARC
  5
12A0
  8
0
 10
81.040738922737447
 20
193.83265339988279
 30
0.0
 40
0.25
 50
209.99979000000101
 51
0.0004400000003192
  0
ARC
  5
12A1
  8
0
 10
81.040738922737447
 20
193.9272633998828
 30
0.0
 40
0.1
 50
192.8750800000002
 51
0.0
  0
LINE
  5
12A2
  8
0
 10
80.654138922737403
 20
194.10575339988279
 30
0.0
 11
80.851508922737423
 21
193.76389339988279
 31
0.0
  0
LINE
  5
12A3
  8
0
 10
80.804138922737422
 20
194.14594339988281
 30
0.0
 11
80.943258922737414
 21
193.90498339988281
 31
0.0
  0
LINE
  5
12A4
  8
0
 10
81.290738922737404
 20
193.83265339988279
 30
0.0
 11
81.290738922737404
 21
194.25226339988279
 31
0.0
  0
LINE
  5
12A5
  8
0
 10
81.140738922737427
 20
194.35227339988279
 30
0.0
 11
80.640738922737413
 21
194.64094339988279
 31
0.0
  0
LINE
  5
12A6
  8
0
 10
81.290738922737404
 20
194.43887339988279
 30
0.0
 11
80.790738922737418
 21
194.72754339988279
 31
0.0
  0
LINE
  5
12A7
  8
0
 10
81.290739935028427
 20
196.55226339987769
 30
0.0
 11
80.590738922737401
 21
196.5522633998828
 31
0.0
  0
ARC
  5
12A8
  8
0
 10
80.840738922737415
 20
196.1522633998828
 30
0.0
 40
0.2
 50
89.999689999999731
 51
179.9996800000003
  0
LINE
  5
12A9
  8
0
 10
80.590738922737401
 20
196.55227339988281
 30
0.0
 11
80.490738922737421
 21
196.6522633998828
 31
0.0
  0
LINE
  5
12AA
  8
0
 10
81.390738922737398
 20
196.1522633998828
 30
0.0
 11
81.390738922737398
 21
196.45226339988281
 31
0.0
  0
LINE
  5
12AB
  8
0
 10
81.040738922737447
 20
196.20226339988281
 30
0.0
 11
81.040738922737447
 21
196.35226339988279
 31
0.0
  0
LINE
  5
12AC
  8
0
 10
81.040738922737447
 20
196.35226339988279
 30
0.0
 11
80.840738922737415
 21
196.35226339988279
 31
0.0
  0
LINE
  5
12AD
  8
0
 10
81.040738922737447
 20
196.20226339988281
 30
0.0
 11
80.790738922737418
 21
196.20226339988281
 31
0.0
  0
LINE
  5
12AE
  8
0
 10
81.490738922737421
 20
196.0522633998828
 30
0.0
 11
81.390738922737398
 21
196.1522633998828
 31
0.0
  0
ARC
  5
12AF
  8
0
 10
81.290738922737404
 20
196.45226339988281
 30
0.0
 40
0.1
 50
0.0
 51
89.999420000000214
  0
LINE
  5
12B0
  8
0
 10
84.590748922737419
 20
194.35226339988279
 30
0.0
 11
84.690738922737438
 21
194.2522733998828
 31
0.0
  0
LINE
  5
12B1
  8
0
 10
84.690738922737438
 20
193.9272633998828
 30
0.0
 11
84.690738922737438
 21
194.43887339988279
 31
0.0
  0
LINE
  5
12B2
  8
0
 10
84.840738922737387
 20
193.9272633998828
 30
0.0
 11
84.840738922737387
 21
194.35227339988279
 31
0.0
  0
LINE
  5
12B3
  8
0
 10
84.690738922737438
 20
193.83265339988279
 30
0.0
 11
84.690738922737438
 21
194.25226339988279
 31
0.0
  0
LINE
  5
12B4
  8
0
 10
83.824458922737406
 20
194.35226339988279
 30
0.0
 11
84.590748922737419
 21
194.35226339988279
 31
0.0
  0
LINE
  5
12B5
  8
0
 10
84.590738922737415
 20
196.1522633998828
 30
0.0
 11
84.590738922737415
 21
196.45226339988281
 31
0.0
  0
LINE
  5
12B6
  8
0
 10
83.824458922737406
 20
196.0522633998828
 30
0.0
 11
84.490738922737435
 21
196.0522633998828
 31
0.0
  0
LINE
  5
12B7
  8
0
 10
84.490738922737435
 20
196.0522633998828
 30
0.0
 11
84.590738922737415
 21
196.1522633998828
 31
0.0
  0
LINE
  5
12B8
  8
0
 10
84.940738922737438
 20
196.20226339988281
 30
0.0
 11
84.940738922737438
 21
196.35226339988279
 31
0.0
  0
ARC
  5
12B9
  8
0
 10
84.690738922737438
 20
196.45226339988281
 30
0.0
 40
0.1
 50
90.000579999999786
 51
180.0
  0
CIRCLE
  5
12BA
  8
0
 10
82.990738922737421
 20
205.70226339988281
 30
0.0
 40
1.19062
  0
LINE
  5
12BB
  8
0
 10
80.790738922737418
 20
206.1769833998828
 30
0.0
 11
80.790738922737418
 21
204.70226339988281
 31
0.0
  0
LINE
  5
12BC
  8
0
 10
80.640738922737413
 20
206.2635833998828
 30
0.0
 11
80.640738922740496
 21
204.7522622828721
 31
0.0
  0
LINE
  5
12BD
  8
0
 10
82.157018922737421
 20
204.85226339988279
 30
0.0
 11
81.490738922737421
 21
204.85226339988279
 31
0.0
  0
ARC
  5
12BE
  8
0
 10
80.690738922737438
 20
203.6522633998828
 30
0.0
 40
0.2
 50
180.0
 51
270.0
  0
LINE
  5
12BF
  8
0
 10
80.490738922737421
 20
202.2772633998828
 30
0.0
 11
80.490738922737421
 21
202.2773633998828
 31
0.0
  0
ARC
  5
12C0
  8
0
 10
80.840738922737415
 20
204.75226339988279
 30
0.0
 40
0.2
 50
180.00031999999959
 51
270.0003100000003
  0
LINE
  5
12C1
  8
0
 10
81.290739935028427
 20
204.3522633998879
 30
0.0
 11
80.590738922737401
 21
204.35226339988279
 31
0.0
  0
LINE
  5
12C2
  8
0
 10
80.490738922737421
 20
204.10226339988279
 30
0.0
 11
80.490838922737396
 21
204.10226339988279
 31
0.0
  0
LINE
  5
12C3
  8
0
 10
80.590738922737401
 20
204.35225339988281
 30
0.0
 11
80.490738922737421
 21
204.25226339988279
 31
0.0
  0
LINE
  5
12C4
  8
0
 10
81.390738922737398
 20
204.75226339988279
 30
0.0
 11
81.390738922737398
 21
204.45226339988281
 31
0.0
  0
LINE
  5
12C5
  8
0
 10
81.040738922737447
 20
204.70226339988281
 30
0.0
 11
81.040738922737447
 21
204.5522633998828
 31
0.0
  0
ARC
  5
12C6
  8
0
 10
81.290738922737404
 20
204.45226339988281
 30
0.0
 40
0.1
 50
270.00057999999967
 51
0.0
  0
LINE
  5
12C7
  8
0
 10
81.040738922737447
 20
204.5522633998828
 30
0.0
 11
80.840738922737415
 21
204.5522633998828
 31
0.0
  0
LINE
  5
12C8
  8
0
 10
81.040738922737447
 20
204.70226339988281
 30
0.0
 11
80.790738922737418
 21
204.70226339988281
 31
0.0
  0
LINE
  5
12C9
  8
0
 10
81.490738922737421
 20
204.85226339988279
 30
0.0
 11
81.390738922737398
 21
204.75226339988279
 31
0.0
  0
LINE
  5
12CA
  8
0
 10
84.590738922737415
 20
204.75226339988279
 30
0.0
 11
84.590738922737415
 21
204.45226339988281
 31
0.0
  0
LINE
  5
12CB
  8
0
 10
84.940738922737438
 20
204.70226339988281
 30
0.0
 11
84.940738922737438
 21
204.5522633998828
 31
0.0
  0
ARC
  5
12CC
  8
0
 10
84.690738922737438
 20
204.45226339988281
 30
0.0
 40
0.1
 50
180.0
 51
269.99941999999862
  0
LINE
  5
12CD
  8
0
 10
83.824458922737406
 20
204.85226339988279
 30
0.0
 11
84.490738922737435
 21
204.85226339988279
 31
0.0
  0
LINE
  5
12CE
  8
0
 10
84.490738922737435
 20
204.85226339988279
 30
0.0
 11
84.590738922737415
 21
204.75226339988279
 31
0.0
  0
LINE
  5
12CF
  8
0
 10
82.157018922737421
 20
206.5522633998828
 30
0.0
 11
81.390728922737424
 21
206.5522633998828
 31
0.0
  0
LINE
  5
12D0
  8
0
 10
80.740738922737435
 20
207.0522633998828
 30
0.0
 11
80.590728922737412
 21
207.0522633998828
 31
0.0
  0
LINE
  5
12D1
  8
0
 10
80.590728922737412
 20
207.0522633998828
 30
0.0
 11
80.490738922737421
 21
207.1522533998828
 31
0.0
  0
LINE
  5
12D2
  8
0
 10
81.290738922737404
 20
207.0718733998828
 30
0.0
 11
81.290738922737404
 21
206.6522633998828
 31
0.0
  0
LINE
  5
12D3
  8
0
 10
80.790738922737418
 20
206.7085933998828
 30
0.0
 11
80.790738922737418
 21
206.57038339988279
 31
0.0
  0
LINE
  5
12D4
  8
0
 10
80.640738922737413
 20
206.7487833998828
 30
0.0
 11
80.640738922737413
 21
206.51578339988279
 31
0.0
  0
LINE
  5
12D5
  8
0
 10
81.290738922737404
 20
206.97726339988279
 30
0.0
 11
81.290738922737404
 21
206.4656533998828
 31
0.0
  0
LINE
  5
12D6
  8
0
 10
81.140738922737427
 20
206.97726339988279
 30
0.0
 11
81.140738922737427
 21
206.5522533998828
 31
0.0
  0
LINE
  5
12D7
  8
0
 10
81.390728922737424
 20
206.5522633998828
 30
0.0
 11
81.290738922737404
 21
206.6522533998828
 31
0.0
  0
LINE
  5
12D8
  8
0
 10
80.790738922737418
 20
206.57038339988279
 30
0.0
 11
80.640738922737413
 21
206.51578339988279
 31
0.0
  0
LINE
  5
12D9
  8
0
 10
81.290738922737404
 20
206.4656533998828
 30
0.0
 11
80.790738922737418
 21
206.1769833998828
 31
0.0
  0
LINE
  5
12DA
  8
0
 10
81.140738922737427
 20
206.5522533998828
 30
0.0
 11
80.640738922737413
 21
206.2635833998828
 31
0.0
  0
ARC
  5
12DB
  8
0
 10
81.040738922737447
 20
206.97726339988279
 30
0.0
 40
0.25
 50
0.0
 51
139.1944100000002
  0
LINE
  5
12DC
  8
0
 10
80.804138922737422
 20
206.75858339988281
 30
0.0
 11
80.943258922737414
 21
206.99954339988281
 31
0.0
  0
LINE
  5
12DD
  8
0
 10
80.654138922737403
 20
206.7987733998828
 30
0.0
 11
80.851508922737423
 21
207.1406333998828
 31
0.0
  0
ARC
  5
12DE
  8
0
 10
81.040738922737447
 20
206.97726339988279
 30
0.0
 40
0.1
 50
0.0
 51
167.1249199999998
  0
ARC
  5
12DF
  8
0
 10
81.040738922737447
 20
207.0718733998828
 30
0.0
 40
0.25
 50
359.99955999999969
 51
150.00020999999899
  0
LINE
  5
12E0
  8
0
 10
80.824228922737419
 20
207.1968733998828
 30
0.0
 11
80.740738922737435
 21
207.0522633998828
 31
0.0
  0
ARC
  5
12E1
  8
0
 10
80.740738922737435
 20
206.7487833998828
 30
0.0
 40
0.1
 50
150.00031999999899
 51
180.00060000000011
  0
ARC
  5
12E2
  8
0
 10
80.890738922737413
 20
206.7085933998828
 30
0.0
 40
0.1
 50
150.00031999999899
 51
180.00060000000011
  0
ARC
  5
12E3
  8
0
 10
80.690738922737438
 20
207.75226339988279
 30
0.0
 40
0.2
 50
90.0
 51
180.0
  0
LINE
  5
12E4
  8
0
 10
84.840738922737387
 20
206.97726339988279
 30
0.0
 11
84.840738922737387
 21
206.5522533998828
 31
0.0
  0
LINE
  5
12E5
  8
0
 10
84.690738922737438
 20
206.97726339988279
 30
0.0
 11
84.690738922737438
 21
206.4656533998828
 31
0.0
  0
LINE
  5
12E6
  8
0
 10
84.690738922737438
 20
207.0718733998828
 30
0.0
 11
84.690738922737438
 21
206.6522633998828
 31
0.0
  0
LINE
  5
12E7
  8
0
 10
83.824458922737406
 20
206.5522633998828
 30
0.0
 11
84.590748922737419
 21
206.5522633998828
 31
0.0
  0
LINE
  5
12E8
  8
0
 10
84.590748922737419
 20
206.5522633998828
 30
0.0
 11
84.690738922737438
 21
206.6522533998828
 31
0.0
  0
LINE
  5
12E9
  8
0
 10
85.490738922737421
 20
200.45226339988281
 30
0.0
 11
85.490738922737421
 21
207.75226339988279
 31
0.0
  0
LINE
  5
12EA
  8
0
 10
85.490738922737421
 20
200.45226339988281
 30
0.0
 11
85.490738922737421
 21
193.1522633998828
 31
0.0
  0
ARC
  5
12EB
  8
0
 10
85.290738922737404
 20
193.1522633998828
 30
0.0
 40
0.2
 50
270.0
 51
0.0
  0
ARC
  5
12EC
  8
0
 10
85.290738922737404
 20
197.25226339988279
 30
0.0
 40
0.2
 50
0.0
 51
90.0
  0
LINE
  5
12ED
  8
0
 10
85.190738922737424
 20
194.72754339988279
 30
0.0
 11
85.190738922737424
 21
196.20226339988281
 31
0.0
  0
LINE
  5
12EE
  8
0
 10
85.340738922737401
 20
194.64094339988279
 30
0.0
 11
85.340738922734303
 21
196.1522645168935
 31
0.0
  0
LINE
  5
12EF
  8
0
 10
85.340738922737401
 20
194.15574339988279
 30
0.0
 11
85.340738922737401
 21
194.3887433998828
 31
0.0
  0
LINE
  5
12F0
  8
0
 10
85.190738922737424
 20
194.33414339988281
 30
0.0
 11
85.340738922737401
 21
194.3887433998828
 31
0.0
  0
LINE
  5
12F1
  8
0
 10
85.17733892273742
 20
194.14594339988281
 30
0.0
 11
85.038218922737443
 21
193.90498339988281
 31
0.0
  0
LINE
  5
12F2
  8
0
 10
85.327338922737411
 20
194.10575339988279
 30
0.0
 11
85.129968922737419
 21
193.76389339988279
 31
0.0
  0
LINE
  5
12F3
  8
0
 10
85.157248922737423
 20
193.70765339988279
 30
0.0
 11
85.240738922737421
 21
193.85226339988279
 31
0.0
  0
ARC
  5
12F4
  8
0
 10
85.240738922737421
 20
194.15574339988279
 30
0.0
 40
0.1
 50
330.00031999999902
 51
0.0006000000001443
  0
ARC
  5
12F5
  8
0
 10
85.090738922737401
 20
194.19593339988279
 30
0.0
 40
0.1
 50
330.00031999999902
 51
0.0006000000001443
  0
LINE
  5
12F6
  8
0
 10
85.190738922737424
 20
194.19593339988279
 30
0.0
 11
85.190738922737424
 21
194.33414339988281
 31
0.0
  0
LINE
  5
12F7
  8
0
 10
85.240738922737421
 20
193.85226339988279
 30
0.0
 11
85.390748922737444
 21
193.85226339988279
 31
0.0
  0
LINE
  5
12F8
  8
0
 10
85.390748922737444
 20
193.85226339988279
 30
0.0
 11
85.490738922737421
 21
193.7522733998828
 31
0.0
  0
ARC
  5
12F9
  8
0
 10
85.140738922737398
 20
196.1522633998828
 30
0.0
 40
0.2
 50
0.0003199999996385
 51
90.000310000000226
  0
LINE
  5
12FA
  8
0
 10
85.390738922737413
 20
196.55227339988281
 30
0.0
 11
85.490738922737421
 21
196.6522633998828
 31
0.0
  0
LINE
  5
12FB
  8
0
 10
85.340738922737401
 20
206.2635833998828
 30
0.0
 11
85.340738922734303
 21
204.7522622828721
 31
0.0
  0
LINE
  5
12FC
  8
0
 10
85.190738922737424
 20
206.1769833998828
 30
0.0
 11
85.190738922737424
 21
204.70226339988281
 31
0.0
  0
ARC
  5
12FD
  8
0
 10
85.290738922737404
 20
203.6522633998828
 30
0.0
 40
0.2
 50
270.0
 51
0.0
  0
ARC
  5
12FE
  8
0
 10
85.140738922737398
 20
204.75226339988279
 30
0.0
 40
0.2
 50
269.99968999999987
 51
359.99967999999882
  0
LINE
  5
12FF
  8
0
 10
85.390738922737413
 20
204.35225339988281
 30
0.0
 11
85.490738922737421
 21
204.25226339988279
 31
0.0
  0
LINE
  5
1300
  8
0
 10
85.340738922737401
 20
206.7487833998828
 30
0.0
 11
85.340738922737401
 21
206.51578339988279
 31
0.0
  0
LINE
  5
1301
  8
0
 10
85.190738922737424
 20
206.7085933998828
 30
0.0
 11
85.190738922737424
 21
206.57038339988279
 31
0.0
  0
LINE
  5
1302
  8
0
 10
85.190738922737424
 20
206.57038339988279
 30
0.0
 11
85.340738922737401
 21
206.51578339988279
 31
0.0
  0
LINE
  5
1303
  8
0
 10
85.390748922737444
 20
207.0522633998828
 30
0.0
 11
85.490738922737421
 21
207.1522533998828
 31
0.0
  0
LINE
  5
1304
  8
0
 10
85.240738922737421
 20
207.0522633998828
 30
0.0
 11
85.390748922737444
 21
207.0522633998828
 31
0.0
  0
ARC
  5
1305
  8
0
 10
85.090738922737401
 20
206.7085933998828
 30
0.0
 40
0.1
 50
359.99939999999992
 51
29.99968000000095
  0
ARC
  5
1306
  8
0
 10
85.240738922737421
 20
206.7487833998828
 30
0.0
 40
0.1
 50
359.99939999999992
 51
29.99968000000095
  0
LINE
  5
1307
  8
0
 10
85.157248922737423
 20
207.1968733998828
 30
0.0
 11
85.240738922737421
 21
207.0522633998828
 31
0.0
  0
LINE
  5
1308
  8
0
 10
85.327338922737411
 20
206.7987733998828
 30
0.0
 11
85.129968922737419
 21
207.1406333998828
 31
0.0
  0
LINE
  5
1309
  8
0
 10
85.17733892273742
 20
206.75858339988281
 30
0.0
 11
85.038218922737443
 21
206.99954339988281
 31
0.0
  0
ARC
  5
130A
  8
0
 10
85.290738922737404
 20
207.75226339988279
 30
0.0
 40
0.2
 50
0.0
 51
90.0
  0
ENDSEC
  0
EOF
