  0
SECTION
  2
HEADER
  9
$ACADVER
  1
AC1009
  9
$INSBASE
 10
0.0
 20
0.0
 30
0.0
  9
$EXTMIN
 10
121.93750559911911
 20
153.33358103397339
 30
0.0
  9
$EXTMAX
 10
175.06188556053829
 20
207.36962207900649
 30
0.0
  9
$LIMMIN
 10
0.0
 20
0.0
  9
$LIMMAX
 10
297.0
 20
210.0
  9
$ORTHOMODE
 70
     1
  9
$REGENMODE
 70
     1
  9
$FILLMODE
 70
     1
  9
$QTEXTMODE
 70
     0
  9
$MIRRTEXT
 70
     1
  9
$DRAGMODE
 70
     2
  9
$LTSCALE
 40
1.0
  9
$OSMODE
 70
   951
  9
$ATTMODE
 70
     1
  9
$TEXTSIZE
 40
6.4000000000000012
  9
$TRACEWID
 40
0.05
  9
$TEXTSTYLE
  7
STANDARD
  9
$CLAYER
  8
0
  9
$CELTYPE
  6
CONTINUOUS
  9
$CECOLOR
 62
     7
  9
$DIMSCALE
 40
1.0
  9
$DIMASZ
 40
3.0
  9
$DIMEXO
 40
1.0
  9
$DIMDLI
 40
0.0
  9
$DIMRND
 40
0.0
  9
$DIMDLE
 40
0.0
  9
$DIMEXE
 40
1.0
  9
$DIMTP
 40
0.0
  9
$DIMTM
 40
0.0
  9
$DIMTXT
 40
3.2000000000000002
  9
$DIMCEN
 40
0.0
  9
$DIMTSZ
 40
0.0
  9
$DIMTOL
 70
     0
  9
$DIMLIM
 70
     0
  9
$DIMTIH
 70
     0
  9
$DIMTOH
 70
     0
  9
$DIMSE1
 70
     0
  9
$DIMSE2
 70
     0
  9
$DIMTAD
 70
     1
  9
$DIMZIN
 70
     8
  9
$DIMBLK
  1

  9
$DIMASO
 70
     1
  9
$DIMSHO
 70
     1
  9
$DIMPOST
  1

  9
$DIMAPOST
  1

  9
$DIMALT
 70
     0
  9
$DIMALTD
 70
     2
  9
$DIMALTF
 40
0.04
  9
$DIMLFAC
 40
1.0
  9
$DIMTOFL
 70
     1
  9
$DIMTVP
 40
1.0
  9
$DIMTIX
 70
     1
  9
$DIMSOXD
 70
     0
  9
$DIMSAH
 70
     0
  9
$DIMBLK1
  1

  9
$DIMBLK2
  1

  9
$DIMSTYLE
  2
MISUMI
  9
$DIMCLRD
 70
     0
  9
$DIMCLRE
 70
     0
  9
$DIMCLRT
 70
     0
  9
$DIMTFAC
 40
0.6
  9
$DIMGAP
 40
1.0
  9
$LUNITS
 70
     2
  9
$LUPREC
 70
     4
  9
$SKETCHINC
 40
0.1
  9
$FILLETRAD
 40
0.0
  9
$AUNITS
 70
     0
  9
$AUPREC
 70
     0
  9
$MENU
  1
acad
  9
$ELEVATION
 40
0.0
  9
$PELEVATION
 40
0.0
  9
$THICKNESS
 40
0.0
  9
$LIMCHECK
 70
     0
  9
$BLIPMODE
 70
     0
  9
$CHAMFERA
 40
0.2
  9
$CHAMFERB
 40
0.2
  9
$SKPOLY
 70
     0
  9
$TDCREATE
 40
2451464.6006649309
  9
$TDUPDATE
 40
2454488.5967546068
  9
$TDINDWG
 40
0.2415922222
  9
$TDUSRTIMER
 40
0.2415898032
  9
$USRTIMER
 70
     1
  9
$ANGBASE
 50
0.0
  9
$ANGDIR
 70
     0
  9
$PDMODE
 70
     0
  9
$PDSIZE
 40
0.0
  9
$PLINEWID
 40
0.0
  9
$COORDS
 70
     1
  9
$SPLFRAME
 70
     0
  9
$SPLINETYPE
 70
     6
  9
$SPLINESEGS
 70
     8
  9
$ATTDIA
 70
     0
  9
$ATTREQ
 70
     1
  9
$HANDLING
 70
     1
  9
$HANDSEED
  5
173F
  9
$SURFTAB1
 70
     6
  9
$SURFTAB2
 70
     6
  9
$SURFTYPE
 70
     6
  9
$SURFU
 70
     6
  9
$SURFV
 70
     6
  9
$UCSNAME
  2

  9
$UCSORG
 10
0.0
 20
0.0
 30
0.0
  9
$UCSXDIR
 10
1.0
 20
0.0
 30
0.0
  9
$UCSYDIR
 10
0.0
 20
1.0
 30
0.0
  9
$PUCSNAME
  2

  9
$PUCSORG
 10
0.0
 20
0.0
 30
0.0
  9
$PUCSXDIR
 10
1.0
 20
0.0
 30
0.0
  9
$PUCSYDIR
 10
0.0
 20
1.0
 30
0.0
  9
$USERI1
 70
     0
  9
$USERI2
 70
     0
  9
$USERI3
 70
     0
  9
$USERI4
 70
     0
  9
$USERI5
 70
     0
  9
$USERR1
 40
0.0
  9
$USERR2
 40
0.0
  9
$USERR3
 40
0.0
  9
$USERR4
 40
0.0
  9
$USERR5
 40
0.0
  9
$WORLDVIEW
 70
     1
  9
$SHADEDGE
 70
     3
  9
$SHADEDIF
 70
    70
  9
$TILEMODE
 70
     1
  9
$MAXACTVP
 70
    16
  9
$PLIMCHECK
 70
     0
  9
$PEXTMIN
 10
1.0000000000000000E+020
 20
1.0000000000000000E+020
 30
1.0000000000000000E+020
  9
$PEXTMAX
 10
-1.0000000000000000E+020
 20
-1.0000000000000000E+020
 30
-1.0000000000000000E+020
  9
$PLIMMIN
 10
0.0
 20
0.0
  9
$PLIMMAX
 10
12.0
 20
9.0
  9
$UNITMODE
 70
     0
  9
$VISRETAIN
 70
     0
  9
$PLINEGEN
 70
     0
  9
$PSLTSCALE
 70
     1
  0
ENDSEC
  0
SECTION
  2
TABLES
  0
TABLE
  2
VPORT
 70
     1
  0
VPORT
  2
*ACTIVE
 70
     0
 10
0.0
 20
0.0
 11
1.0
 21
1.0
 12
157.7578241346734
 22
169.8700276880146
 13
0.0
 23
0.0
 14
10.0
 24
10.0
 15
10.0
 25
10.0
 16
0.0
 26
0.0
 36
1.0
 17
0.0
 27
0.0
 37
0.0
 40
69.65864738667706
 41
1.3763837638376379
 42
50.0
 43
0.0
 44
0.0
 50
0.0
 51
0.0
 71
     0
 72
   100
 73
     1
 74
     0
 75
     0
 76
     0
 77
     0
 78
     0
  0
ENDTAB
  0
TABLE
  2
LTYPE
 70
     4
  0
LTYPE
  2
CONTINUOUS
 70
     0
  3
Solid line
 72
    65
 73
     0
 40
0.0
  0
LTYPE
  2
CENTER
 70
     0
  3
Center ____ _ ____ _ ____ _ ____ _ ____ _ ____
 72
    65
 73
     4
 40
2.0
 49
1.25
 49
-0.25
 49
0.25
 49
-0.25
  0
LTYPE
  2
DASHED
 70
     0
  3
Dashed __ __ __ __ __ __ __ __ __ __ __ __ __ _
 72
    65
 73
     2
 40
0.75
 49
0.5
 49
-0.25
  0
ENDTAB
  0
TABLE
  2
LAYER
 70
     3
  0
LAYER
  2
0
 70
     0
 62
     7
  6
CONTINUOUS
  0
LAYER
  2
CENTER
 70
     0
 62
     1
  6
CENTER
  0
LAYER
  2
DEFPOINTS
 70
     0
 62
     7
  6
CONTINUOUS
  0
ENDTAB
  0
TABLE
  2
STYLE
 70
     1
  0
STYLE
  2
STANDARD
 70
     0
 40
0.0
 41
1.0
 50
0.0
 71
     0
 42
6.4000000000000012
  3
txt
  4

  0
ENDTAB
  0
TABLE
  2
VIEW
 70
     0
  0
ENDTAB
  0
TABLE
  2
UCS
 70
     0
  0
ENDTAB
  0
TABLE
  2
APPID
 70
     2
  0
APPID
  2
ACAD
 70
     0
  0
APPID
  2
ACAD_EXEMPT_FROM_CAD_STANDARDS
 70
     0
  0
ENDTAB
  0
TABLE
  2
DIMSTYLE
 70
     2
  0
DIMSTYLE
  2
MISUMI
 70
     0
  3

  4

  5

  6

  7

 40
1.0
 41
3.0
 42
1.0
 43
0.0
 44
1.0
 45
0.0
 46
0.0
 47
0.0
 48
0.0
140
3.2000000000000002
141
0.0
142
0.0
143
0.04
144
1.0
145
1.0
146
0.6
147
1.0
 71
     0
 72
     0
 73
     0
 74
     0
 75
     0
 76
     0
 77
     1
 78
     8
170
     0
171
     2
172
     1
173
     0
174
     1
175
     0
176
     0
177
     0
178
     0
  0
ENDTAB
  0
ENDSEC
  0
SECTION
  2
BLOCKS
  0
BLOCK
  8
0
  2
$MODEL_SPACE
 70
     0
 10
0.0
 20
0.0
 30
0.0
  3
$MODEL_SPACE
  1

  0
ENDBLK
  5
134D
  8
0
  0
BLOCK
 67
     1
  8
0
  2
$PAPER_SPACE
 70
     0
 10
0.0
 20
0.0
 30
0.0
  3
$PAPER_SPACE
  1

  0
ENDBLK
  5
1349
 67
     1
  8
0
  0
BLOCK
  8
0
 62
     7
  2
*X8
 70
     1
 10
0.0
 20
0.0
 30
0.0
  3
*X8
  1

  0
LINE
  5
1706
  8
0
  6
CONTINUOUS
 62
     0
 10
169.19968938043439
 20
177.154640668783
 30
0.0
 11
171.7341645372654
 21
179.68911582561401
 31
0.0
  0
LINE
  5
1707
  8
0
  6
CONTINUOUS
 62
     0
 10
171.70886307016141
 20
180.54769783499319
 30
0.0
 11
171.8386983698644
 21
180.6775331346962
 31
0.0
  0
LINE
  5
1708
  8
0
  6
CONTINUOUS
 62
     0
 10
168.2112720713522
 20
177.050106836184
 30
0.0
 11
171.70886307016141
 21
180.54769783499319
 31
0.0
  0
LINE
  5
1709
  8
0
  6
CONTINUOUS
 62
     0
 10
170.2595009425371
 20
179.9822191838521
 30
0.0
 11
170.82497959367819
 21
180.54769783499319
 31
0.0
  0
LINE
  5
170A
  8
0
  6
CONTINUOUS
 62
     0
 10
168.90658602219619
 20
178.62930426351119
 30
0.0
 11
170.2595009425371
 21
179.9822191838521
 31
0.0
  0
LINE
  5
170B
  8
0
  6
CONTINUOUS
 62
     0
 10
170.82497959367819
 20
180.54769783499319
 30
0.0
 11
171.7237430632095
 21
181.44646130452441
 31
0.0
  0
LINE
  5
170C
  8
0
  6
CONTINUOUS
 62
     0
 10
167.44234390152391
 20
177.16506214283891
 30
0.0
 11
168.90658602219619
 21
178.62930426351119
 31
0.0
  0
LINE
  5
170D
  8
0
  6
CONTINUOUS
 62
     0
 10
169.941096117195
 20
180.54769783499319
 30
0.0
 11
169.94110737101559
 21
180.5477090888138
 31
0.0
  0
LINE
  5
170E
  8
0
  6
CONTINUOUS
 62
     0
 10
168.3410961172346
 20
178.94769783503281
 30
0.0
 11
169.941096117195
 21
180.54769783499319
 31
0.0
  0
LINE
  5
170F
  8
0
  6
CONTINUOUS
 62
     0
 10
169.94110737101559
 20
180.5477090888138
 30
0.0
 11
170.30729598311629
 21
180.9138977009145
 31
0.0
  0
LINE
  5
1710
  8
0
  6
CONTINUOUS
 62
     0
 10
167.97490750513381
 20
178.581509222932
 30
0.0
 11
168.3410961172346
 21
178.94769783503281
 31
0.0
  0
LINE
  5
1711
  8
0
  6
CONTINUOUS
 62
     0
 10
170.30729598311629
 20
180.9138977009145
 30
0.0
 11
171.48311135193131
 21
182.0897130697295
 31
0.0
  0
LINE
  5
1712
  8
0
  6
CONTINUOUS
 62
     0
 10
166.7990921363189
 20
177.40569385411709
 30
0.0
 11
167.97490750513381
 21
178.581509222932
 31
0.0
  0
LINE
  5
1713
  8
0
  6
CONTINUOUS
 62
     0
 10
169.05721264071181
 20
180.54769783499319
 30
0.0
 11
169.77237867451191
 21
181.2628638687932
 31
0.0
  0
LINE
  5
1714
  8
0
  6
CONTINUOUS
 62
     0
 10
167.62594133725511
 20
179.11642653153649
 30
0.0
 11
169.05721264071181
 21
180.54769783499319
 31
0.0
  0
LINE
  5
1715
  8
0
  6
CONTINUOUS
 62
     0
 10
169.77237867451191
 20
181.2628638687932
 30
0.0
 11
170.0672968085068
 21
181.5577820027882
 31
0.0
  0
LINE
  5
1716
  8
0
  6
CONTINUOUS
 62
     0
 10
167.33102320326009
 20
178.82150839754149
 30
0.0
 11
167.62594133725511
 21
179.11642653153649
 31
0.0
  0
LINE
  5
1717
  8
0
  6
CONTINUOUS
 62
     0
 10
170.0672968085068
 20
181.5577820027882
 30
0.0
 11
171.1479961193653
 21
182.63848131364671
 31
0.0
  0
LINE
  5
1718
  8
0
  6
CONTINUOUS
 62
     0
 10
166.2503238924017
 20
177.7408090866831
 30
0.0
 11
167.33102320326009
 21
178.82150839754149
 31
0.0
  0
LINE
  5
1719
  8
0
  6
CONTINUOUS
 62
     0
 10
168.1733291642287
 20
180.54769783499319
 30
0.0
 11
169.38547471824549
 21
181.75984338901
 31
0.0
  0
LINE
  5
171A
  8
0
  6
CONTINUOUS
 62
     0
 10
167.1289618170384
 20
179.50333048780291
 30
0.0
 11
168.17332916422859
 21
180.54769783499319
 31
0.0
  0
LINE
  5
171B
  8
0
  6
CONTINUOUS
 62
     0
 10
169.38547471824549
 20
181.75984338901
 30
0.0
 11
169.66894154729991
 21
182.04331021806451
 31
0.0
  0
LINE
  5
171C
  8
0
  6
CONTINUOUS
 62
     0
 10
166.84549498798381
 20
179.21986365874841
 30
0.0
 11
167.1289618170384
 21
179.50333048780291
 31
0.0
  0
LINE
  5
171D
  8
0
  6
CONTINUOUS
 62
     0
 10
169.66894154729991
 20
182.04331021806451
 30
0.0
 11
170.73066982737151
 21
183.105038498136
 31
0.0
  0
LINE
  5
171E
  8
0
  6
CONTINUOUS
 62
     0
 10
165.78376670791229
 20
178.15813537867689
 30
0.0
 11
166.84549498798381
 21
179.21986365874841
 31
0.0
  0
LINE
  5
171F
  8
0
  6
CONTINUOUS
 62
     0
 10
167.28944568774551
 20
180.54769783499319
 30
0.0
 11
168.8170259621252
 21
182.0752781093729
 31
0.0
  0
LINE
  5
1720
  8
0
  6
CONTINUOUS
 62
     0
 10
166.8135270966755
 20
180.0717792439232
 30
0.0
 11
167.2894456877454
 21
180.54769783499319
 31
0.0
  0
LINE
  5
1721
  8
0
  6
CONTINUOUS
 62
     0
 10
168.8170259621252
 20
182.0752781093729
 30
0.0
 11
169.12809865214371
 21
182.38635079939149
 31
0.0
  0
LINE
  5
1722
  8
0
  6
CONTINUOUS
 62
     0
 10
166.5024544066568
 20
179.76070655390461
 30
0.0
 11
166.8135270966755
 21
180.0717792439232
 31
0.0
  0
LINE
  5
1723
  8
0
  6
CONTINUOUS
 62
     0
 10
169.12809865214371
 20
182.38635079939149
 30
0.0
 11
170.23364414536869
 21
183.4918962926165
 31
0.0
  0
LINE
  5
1724
  8
0
  6
CONTINUOUS
 62
     0
 10
165.3969089134319
 20
178.65516106067969
 30
0.0
 11
166.5024544066568
 21
179.76070655390461
 31
0.0
  0
LINE
  5
1725
  8
0
  6
CONTINUOUS
 62
     0
 10
166.78731752724869
 20
180.9294531509797
 30
0.0
 11
167.95935205506871
 21
182.1014876787996
 31
0.0
  0
LINE
  5
1726
  8
0
  6
CONTINUOUS
 62
     0
 10
166.40556221126229
 20
180.54769783499319
 30
0.0
 11
166.78731752724869
 21
180.9294531509797
 31
0.0
  0
LINE
  5
1727
  8
0
  6
CONTINUOUS
 62
     0
 10
167.95935205506871
 20
182.1014876787996
 30
0.0
 11
168.40455554036839
 21
182.5466911640994
 31
0.0
  0
LINE
  5
1728
  8
0
  6
CONTINUOUS
 62
     0
 10
166.342114041949
 20
180.4842496656799
 30
0.0
 11
166.40556221126229
 21
180.54769783499319
 31
0.0
  0
LINE
  5
1729
  8
0
  6
CONTINUOUS
 62
     0
 10
168.40455554036839
 20
182.5466911640994
 30
0.0
 11
169.65114431647041
 21
183.7932799402013
 31
0.0
  0
LINE
  5
172A
  8
0
  6
CONTINUOUS
 62
     0
 10
165.09552526584699
 20
179.237660889578
 30
0.0
 11
166.342114041949
 21
180.4842496656799
 31
0.0
  0
LINE
  5
172B
  8
0
  6
CONTINUOUS
 62
     0
 10
166.81867419363971
 20
181.84469329385379
 30
0.0
 11
167.0441119121945
 21
182.07013101240861
 31
0.0
  0
LINE
  5
172C
  8
0
  6
CONTINUOUS
 62
     0
 10
165.5216787347791
 20
180.54769783499319
 30
0.0
 11
166.81867419363971
 21
181.84469329385379
 31
0.0
  0
LINE
  5
172D
  8
0
  6
CONTINUOUS
 62
     0
 10
167.0441119121945
 20
182.07013101240861
 30
0.0
 11
168.96552813723099
 21
183.9915472374451
 31
0.0
  0
LINE
  5
172E
  8
0
  6
CONTINUOUS
 62
     0
 10
164.8972579686033
 20
179.92327706881741
 30
0.0
 11
165.5216787347791
 21
180.54769783499319
 31
0.0
  0
LINE
  5
172F
  8
0
  6
CONTINUOUS
 62
     0
 10
164.8473886335112
 20
180.75729121020851
 30
0.0
 11
168.1315139958399
 21
184.0414165725372
 31
0.0
  0
LINE
  5
1730
  8
0
  6
CONTINUOUS
 62
     0
 10
165.1177735082357
 20
181.9115595614162
 30
0.0
 11
166.97724564463221
 21
183.77103169781259
 31
0.0
  0
LINE
  5
1731
  8
0
  6
CONTINUOUS
 62
     0
 10
152.29896049346411
 20
177.04769783499319
 30
0.0
 11
152.30507864392561
 21
177.05381598545469
 31
0.0
  0
LINE
  5
1732
  8
0
  6
CONTINUOUS
 62
     0
 10
151.41507701698089
 20
177.0476978349933
 30
0.0
 11
152.30507864392561
 21
177.93769946193791
 31
0.0
  0
LINE
  5
1733
  8
0
  6
CONTINUOUS
 62
     0
 10
151.10507864392559
 20
177.62158293842111
 30
0.0
 11
152.30507864392561
 21
178.8215829384211
 31
0.0
  0
LINE
  5
1734
  8
0
  6
CONTINUOUS
 62
     0
 10
151.10507864392551
 20
178.5054664149043
 30
0.0
 11
152.30507864392561
 21
179.70546641490429
 31
0.0
  0
LINE
  5
1735
  8
0
  6
CONTINUOUS
 62
     0
 10
152.26342658753131
 20
180.54769783499319
 30
0.0
 11
152.3050786439255
 21
180.5893498913874
 31
0.0
  0
LINE
  5
1736
  8
0
  6
CONTINUOUS
 62
     0
 10
151.10507864392551
 20
179.38934989138741
 30
0.0
 11
152.26342658753131
 21
180.54769783499319
 31
0.0
  0
LINE
  5
1737
  8
0
  6
CONTINUOUS
 62
     0
 10
151.37954311104809
 20
180.54769783499319
 30
0.0
 11
152.30507864392561
 21
181.47323336787059
 31
0.0
  0
LINE
  5
1738
  8
0
  6
CONTINUOUS
 62
     0
 10
151.10507864392551
 20
180.2732333678706
 30
0.0
 11
151.37954311104809
 21
180.54769783499319
 31
0.0
  0
LINE
  5
1739
  8
0
  6
CONTINUOUS
 62
     0
 10
151.10507864392551
 20
181.15711684435379
 30
0.0
 11
152.3050786439255
 21
182.35711684435381
 31
0.0
  0
LINE
  5
173A
  8
0
  6
CONTINUOUS
 62
     0
 10
151.10507864392551
 20
182.04100032083699
 30
0.0
 11
152.3050786439255
 21
183.241000320837
 31
0.0
  0
LINE
  5
173B
  8
0
  6
CONTINUOUS
 62
     0
 10
151.10507864392559
 20
182.92488379732021
 30
0.0
 11
152.2278926815986
 21
184.04769783499319
 31
0.0
  0
LINE
  5
173C
  8
0
  6
CONTINUOUS
 62
     0
 10
151.10507864392559
 20
183.8087672738034
 30
0.0
 11
151.34400920511541
 21
184.04769783499319
 31
0.0
  0
ENDBLK
  5
173E
  8
0
 62
     7
  0
ENDSEC
  0
SECTION
  2
ENTITIES
  0
TEXT
  5
E73
  8
0
  6
CONTINUOUS
 62
     7
 10
121.93750559911911
 20
161.88287773039761
 30
0.0
 40
4.0
  1
HXK10
  0
TEXT
  5
E74
  8
0
  6
CONTINUOUS
 62
     7
 10
121.93750559911911
 20
153.33358103397339
 30
0.0
 40
4.0
  1
HXK10
  0
LINE
  5
1100
  8
CENTER
  6
CENTER
 62
     1
 10
175.06188556053829
 20
180.54769783499319
 30
0.0
 11
161.6203291815718
 21
180.54769783499319
 31
0.0
1001
ACAD
1000
ASC_BOUNDS
1002
{
1070
    19
1005
1655
1005
1655
1005
1655
1005
1655
1005
1655
1005
1655
1005
1210
1005
1210
1005
1210
1005
1210
1005
0
1005
0
1005
0
1005
0
1002
}
  0
LINE
  5
1101
  8
CENTER
  6
CENTER
 62
     1
 10
155.47540030062351
 20
180.54769783499319
 30
0.0
 11
144.82410700477681
 21
180.54769783499319
 31
0.0
1001
ACAD
1000
ASC_BOUNDS
1002
{
1070
    19
1005
1655
1005
1655
1005
1210
1005
1210
1005
D1E
1005
D1E
1005
D1E
1005
D1E
1002
}
  0
LINE
  5
1102
  8
CENTER
  6
CENTER
 62
     1
 10
168.34110737105519
 20
187.26847602447651
 30
0.0
 11
168.34110737105519
 21
173.82691964551
 31
0.0
1001
ACAD
1000
ASC_BOUNDS
1002
{
1070
    19
1005
1210
1005
1210
1005
1210
1005
1210
1005
0
1005
0
1005
0
1005
0
1002
}
  0
CIRCLE
  5
1109
  8
0
  6
CONTINUOUS
 62
     7
 10
168.34110737105519
 20
180.54769783499319
 30
0.0
 40
5.0
  0
CIRCLE
  5
110A
  8
0
  6
CONTINUOUS
 62
     7
 10
168.34110737105519
 20
180.54769783499319
 30
0.0
 40
4.0
  0
CIRCLE
  5
110B
  8
0
  6
CONTINUOUS
 62
     7
 10
168.34110737105519
 20
180.54769783499319
 30
0.0
 40
3.5
1001
ACAD
1000
ASC_BOUNDS
1002
{
1070
    19
1005
1655
1005
1655
1005
1210
1005
1210
1005
1210
1005
1210
1002
}
  0
LINE
  5
110C
  8
0
  6
CONTINUOUS
 62
     7
 10
146.60507864392559
 20
185.04769783499319
 30
0.0
 11
146.60507864392559
 21
176.04769783499319
 31
0.0
  0
LINE
  5
110D
  8
0
  6
CONTINUOUS
 62
     7
 10
152.60507864392551
 20
185.3476978349932
 30
0.0
 11
152.60507864392551
 21
176.54769783499319
 31
0.0
  0
LINE
  5
1111
  8
0
  6
CONTINUOUS
 62
     7
 10
147.10507864392551
 20
175.54769783499319
 30
0.0
 11
152.40507864392549
 21
175.54769783499319
 31
0.0
  0
LINE
  5
1112
  8
0
  6
DASHED
 62
     3
 10
152.60507864392551
 20
184.54769783499319
 30
0.0
 11
151.60507864392551
 21
184.54769783499319
 31
0.0
  0
LINE
  5
1113
  8
0
  6
DASHED
 62
     3
 10
152.60507864392551
 20
176.54769783499319
 30
0.0
 11
151.60507864392551
 21
176.54769783499319
 31
0.0
  0
LINE
  5
1114
  8
0
  6
DASHED
 62
     3
 10
152.3050786439255
 20
184.04769783499319
 30
0.0
 11
151.10507864392551
 21
184.04769783499319
 31
0.0
1001
ACAD
1000
ASC_BOUNDS
1002
{
1070
    19
1005
1655
1005
1210
1002
}
  0
LINE
  5
1115
  8
0
  6
DASHED
 62
     3
 10
152.3050786439255
 20
177.04769783499319
 30
0.0
 11
151.10507864392551
 21
177.04769783499319
 31
0.0
1001
ACAD
1000
ASC_BOUNDS
1002
{
1070
    19
1005
1655
1005
1210
1002
}
  0
LINE
  5
1116
  8
0
  6
DASHED
 62
     3
 10
151.10507864392551
 20
184.04769783499319
 30
0.0
 11
151.10507864392551
 21
177.04769783499319
 31
0.0
1001
ACAD
1000
ASC_BOUNDS
1002
{
1070
    19
1005
1655
1005
1655
1005
1210
1005
1210
1002
}
  0
LINE
  5
1118
  8
0
  6
CONTINUOUS
 62
     7
 10
146.60507864392559
 20
176.04769783499319
 30
0.0
 11
147.10507864392551
 21
175.54769783499319
 31
0.0
  0
LINE
  5
111A
  8
0
  6
CONTINUOUS
 62
     7
 10
152.60507864392551
 20
175.7476978349932
 30
0.0
 11
152.40507864392549
 21
175.54769783499319
 31
0.0
  0
LINE
  5
111B
  8
0
  6
CONTINUOUS
 62
     7
 10
152.60507864392551
 20
176.54769783499319
 30
0.0
 11
152.60507864392551
 21
175.7476978349932
 31
0.0
  0
LINE
  5
111D
  8
0
  6
DASHED
 62
     3
 10
151.60507864392551
 20
184.54769783499319
 30
0.0
 11
151.60507864392551
 21
184.04769783499319
 31
0.0
  0
LINE
  5
111F
  8
0
  6
DASHED
 62
     3
 10
152.3050786439255
 20
184.04769783499319
 30
0.0
 11
152.3050786439255
 21
177.04769783499319
 31
0.0
1001
ACAD
1000
ASC_BOUNDS
1002
{
1070
    19
1005
1655
1005
1655
1005
1210
1005
1210
1002
}
  0
LINE
  5
1120
  8
0
  6
DASHED
 62
     3
 10
151.60507864392551
 20
177.04769783499319
 30
0.0
 11
151.60507864392551
 21
176.54769783499319
 31
0.0
  0
LINE
  5
11F1
  8
0
  6
CONTINUOUS
 62
     7
 10
147.10507864392551
 20
185.54769783499319
 30
0.0
 11
152.40507864392549
 21
185.54769783499319
 31
0.0
  0
LINE
  5
11F2
  8
0
  6
CONTINUOUS
 62
     7
 10
147.10507864392551
 20
185.54769783499319
 30
0.0
 11
146.60507864392559
 21
185.04769783499319
 31
0.0
  0
LINE
  5
11F3
  8
0
  6
CONTINUOUS
 62
     7
 10
152.40507864392549
 20
185.54769783499319
 30
0.0
 11
152.60507864392551
 21
185.3476978349932
 31
0.0
  0
CIRCLE
  5
1623
  8
0
  6
DASHED
 62
     3
 10
168.34110737105519
 20
180.54769783499319
 30
0.0
 40
1.6000000000000001
1001
ACAD
1000
ASC_BOUNDS
1002
{
1070
    19
1005
1655
1005
1655
1005
1655
1005
1655
1002
}
  0
CIRCLE
  5
1624
  8
0
  6
DASHED
 62
     3
 10
168.3411073710551
 20
180.54769783499319
 30
0.0
 40
2.0
1001
ACAD
1000
ASC_BOUNDS
1002
{
1070
    19
1005
1655
1005
1655
1005
1655
1005
1655
1002
}
  0
LINE
  5
1625
  8
0
  6
DASHED
 62
     3
 10
146.60507864392559
 20
182.14769783499321
 30
0.0
 11
151.10507864392551
 21
182.14769783499321
 31
0.0
  0
LINE
  5
1626
  8
0
  6
DASHED
 62
     3
 10
146.60507864392559
 20
178.94769783499319
 30
0.0
 11
151.10507864392551
 21
178.94769783499319
 31
0.0
  0
LINE
  5
1627
  8
0
  6
DASHED
 62
     3
 10
146.60507864392559
 20
178.54769783499319
 30
0.0
 11
151.10507864392551
 21
178.54769783499319
 31
0.0
  0
LINE
  5
1628
  8
0
  6
DASHED
 62
     3
 10
146.60507864392559
 20
182.54769783499319
 30
0.0
 11
151.10507864392551
 21
182.54769783499319
 31
0.0
  0
INSERT
  5
1655
  8
0
  6
CONTINUOUS
 62
     3
  2
*X8
 10
0.0
 20
0.0
 30
0.0
1001
ACAD
1000
HATCH
1002
{
1070
    19
1000
ANSI31
1040
5.0
1040
0.0
1000
ASC_BOUNDS
1070
     8
1070
     1
1070
     2
1005
1623
1005
1100
1070
     1
1070
     2
1005
1623
1005
1100
1070
     1
1070
     3
1005
1624
1005
1623
1005
1100
1070
     1
1070
     3
1005
1623
1005
1624
1005
1100
1070
     1
1070
     3
1005
110B
1005
1624
1005
1100
1070
     1
1070
     3
1005
1624
1005
110B
1005
1100
1070
     1
1070
     4
1005
111F
1005
1115
1005
1116
1005
1101
1070
     1
1070
     4
1005
111F
1005
1101
1005
1116
1005
1114
1000
ASC_SEEDPOINT
1011
151.4640184636111
1021
-1.#QNAN00000000000E+000
1031
-1.#QNAN00000000000E+000
1021
181.37134975943579
1031
0.0
1000
R14_HATCH_DATA
1000
1655
1011
1.0
1021
-1.#QNAN00000000000E+000
1031
-1.#QNAN00000000000E+000
1021
0.0
1031
0.0
1011
0.0
1021
-1.#QNAN00000000000E+000
1031
-1.#QNAN00000000000E+000
1021
1.0
1031
0.0
1011
0.0
1021
-1.#QNAN00000000000E+000
1031
-1.#QNAN00000000000E+000
1021
0.0
1031
1.0
1040
0.0
1010
0.0
1020
0.0
1030
1.0
1000
ANSI31
1070
     0
1070
     1
1071
        8
1071
        7
1070
     0
1070
     1
1071
        4
1040
151.10507864392551
1040
180.54769783499319
1040
152.3050786439255
1040
180.54769783499319
1040
152.3050786439255
1040
184.04769783499319
1040
151.10507864392559
1040
184.04769783499319
1071
        4
1005
1114
1005
1116
1005
1101
1005
111F
1071
        7
1070
     0
1070
     1
1071
        4
1040
151.10507864392551
1040
177.0476978349933
1040
152.3050786439255
1040
177.04769783499319
1040
152.3050786439255
1040
180.54769783499319
1040
151.10507864392551
1040
180.54769783499319
1071
        4
1005
1101
1005
1116
1005
1115
1005
111F
1071
        7
1070
     1
1070
     1
1071
        4
1040
170.3411073710551
1040
180.54769783499319
1040
0.0
1040
171.84110737105519
1040
180.54769783499319
1040
1.0
1040
164.84110737105519
1040
180.54769783499319
1040
0.0
1040
166.3411073710551
1040
180.54769783499319
1040
-1.0
1071
        3
1005
1100
1005
110B
1005
1624
1071
        7
1070
     1
1070
     1
1071
        4
1040
171.84110737105519
1040
180.54769783499319
1040
0.0
1040
170.3411073710551
1040
180.54769783499319
1040
-1.0
1040
166.3411073710551
1040
180.54769783499319
1040
0.0
1040
164.84110737105519
1040
180.54769783499319
1040
1.0
1071
        3
1005
1100
1005
1624
1005
110B
1071
       23
1070
     1
1070
     1
1071
        4
1040
166.3411073710551
1040
180.54769783499319
1040
0.0
1040
166.74110737105519
1040
180.54769783499319
1040
-1.0
1040
169.94110737105521
1040
180.54769783499319
1040
0.0
1040
170.3411073710551
1040
180.54769783499319
1040
1.0
1071
        3
1005
1100
1005
1624
1005
1623
1071
       23
1070
     1
1070
     1
1071
        4
1040
166.74110737105519
1040
180.54769783499319
1040
0.0
1040
166.3411073710551
1040
180.54769783499319
1040
1.0
1040
170.3411073710551
1040
180.54769783499319
1040
0.0
1040
169.94110737105521
1040
180.54769783499319
1040
-1.0
1071
        3
1005
1100
1005
1623
1005
1624
1071
        7
1070
     1
1070
     1
1071
        2
1040
166.74110737105519
1040
180.54769783499319
1040
1.0
1040
169.94110737105521
1040
180.54769783499319
1040
0.0
1071
        2
1005
1100
1005
1623
1071
       22
1070
     1
1070
     1
1071
        2
1040
169.94110737105521
1040
180.54769783499319
1040
1.0
1040
166.74110737105519
1040
180.54769783499319
1040
0.0
1071
        2
1005
1100
1005
1623
1070
     0
1070
     1
1040
0.0
1040
5.0
1070
     0
1070
     1
1040
0.7853981633974483
1040
0.0
1040
0.0
1040
-0.4419417382415922
1040
0.4419417382415923
1070
     0
1040
0.0159521547959513
1071
        8
1040
151.4640184636111
1040
181.37134975943579
1040
0.0
1040
151.69045746431109
1040
179.52841781328581
1040
0.0
1040
165.8737261959013
1040
181.46774966447049
1040
0.0
1040
171.27591409332919
1040
179.6248177183206
1040
0.0
1040
166.70219179807219
1040
181.39135360463209
1040
0.0
1040
167.78748482865919
1040
178.9028174587813
1040
0.0
1040
167.5002014218388
1040
180.21089414007531
1040
0.0
1040
167.4363605364662
1040
181.07231056278891
1040
0.0
1002
}
  0
CIRCLE
  5
1657
  8
0
  6
CONTINUOUS
 62
     7
 10
168.34110737105519
 20
180.54769783499319
 30
0.0
 40
4.8000000000000114
  0
ENDSEC
  0
EOF
