  0
SECTION
  2
HEADER
  9
$ACADVER
  1
AC1009
  9
$INSBASE
 10
0.0
 20
0.0
 30
0.0
  9
$EXTMIN
 10
-47.431029830254147
 20
343.00342657446322
 30
-0.0015258207003583
  9
$EXTMAX
 10
91.601636709820582
 20
393.04363022387719
 30
0.0000000349246037
  9
$LIMMIN
 10
0.0
 20
0.0
  9
$LIMMAX
 10
297.0
 20
210.0
  9
$ORTHOMODE
 70
     1
  9
$REGENMODE
 70
     1
  9
$FILLMODE
 70
     1
  9
$QTEXTMODE
 70
     0
  9
$MIRRTEXT
 70
     1
  9
$DRAGMODE
 70
     2
  9
$LTSCALE
 40
1.0
  9
$OSMODE
 70
   695
  9
$ATTMODE
 70
     1
  9
$TEXTSIZE
 40
6.4000000000000012
  9
$TRACEWID
 40
0.05
  9
$TEXTSTYLE
  7
STANDARD
  9
$CLAYER
  8
0
  9
$CELTYPE
  6
CONTINUOUS
  9
$CECOLOR
 62
     7
  9
$DIMSCALE
 40
1.0
  9
$DIMASZ
 40
3.0
  9
$DIMEXO
 40
1.0
  9
$DIMDLI
 40
0.0
  9
$DIMRND
 40
0.0
  9
$DIMDLE
 40
0.0
  9
$DIMEXE
 40
1.0
  9
$DIMTP
 40
0.0
  9
$DIMTM
 40
0.0
  9
$DIMTXT
 40
3.2000000000000002
  9
$DIMCEN
 40
0.0
  9
$DIMTSZ
 40
0.0
  9
$DIMTOL
 70
     0
  9
$DIMLIM
 70
     0
  9
$DIMTIH
 70
     0
  9
$DIMTOH
 70
     0
  9
$DIMSE1
 70
     0
  9
$DIMSE2
 70
     0
  9
$DIMTAD
 70
     1
  9
$DIMZIN
 70
     8
  9
$DIMBLK
  1

  9
$DIMASO
 70
     1
  9
$DIMSHO
 70
     1
  9
$DIMPOST
  1

  9
$DIMAPOST
  1

  9
$DIMALT
 70
     0
  9
$DIMALTD
 70
     2
  9
$DIMALTF
 40
0.04
  9
$DIMLFAC
 40
1.0
  9
$DIMTOFL
 70
     1
  9
$DIMTVP
 40
1.0
  9
$DIMTIX
 70
     1
  9
$DIMSOXD
 70
     0
  9
$DIMSAH
 70
     0
  9
$DIMBLK1
  1

  9
$DIMBLK2
  1

  9
$DIMSTYLE
  2
MISUMI
  9
$DIMCLRD
 70
     0
  9
$DIMCLRE
 70
     0
  9
$DIMCLRT
 70
     0
  9
$DIMTFAC
 40
0.6
  9
$DIMGAP
 40
1.0
  9
$LUNITS
 70
     2
  9
$LUPREC
 70
     4
  9
$SKETCHINC
 40
0.1
  9
$FILLETRAD
 40
0.0
  9
$AUNITS
 70
     0
  9
$AUPREC
 70
     0
  9
$MENU
  1
acad
  9
$ELEVATION
 40
0.0
  9
$PELEVATION
 40
0.0
  9
$THICKNESS
 40
0.0
  9
$LIMCHECK
 70
     0
  9
$BLIPMODE
 70
     0
  9
$CHAMFERA
 40
0.5
  9
$CHAMFERB
 40
0.5
  9
$SKPOLY
 70
     0
  9
$TDCREATE
 40
2451464.6006649309
  9
$TDUPDATE
 40
2454740.7008693172
  9
$TDINDWG
 40
0.2720663773
  9
$TDUSRTIMER
 40
0.2720650694
  9
$USRTIMER
 70
     1
  9
$ANGBASE
 50
0.0
  9
$ANGDIR
 70
     0
  9
$PDMODE
 70
     0
  9
$PDSIZE
 40
0.0
  9
$PLINEWID
 40
0.0
  9
$COORDS
 70
     1
  9
$SPLFRAME
 70
     0
  9
$SPLINETYPE
 70
     6
  9
$SPLINESEGS
 70
     8
  9
$ATTDIA
 70
     0
  9
$ATTREQ
 70
     1
  9
$HANDLING
 70
     1
  9
$HANDSEED
  5
18F2
  9
$SURFTAB1
 70
     6
  9
$SURFTAB2
 70
     6
  9
$SURFTYPE
 70
     6
  9
$SURFU
 70
     6
  9
$SURFV
 70
     6
  9
$UCSNAME
  2

  9
$UCSORG
 10
0.0
 20
0.0
 30
0.0
  9
$UCSXDIR
 10
1.0
 20
0.0
 30
0.0
  9
$UCSYDIR
 10
0.0
 20
1.0
 30
0.0
  9
$PUCSNAME
  2

  9
$PUCSORG
 10
0.0
 20
0.0
 30
0.0
  9
$PUCSXDIR
 10
1.0
 20
0.0
 30
0.0
  9
$PUCSYDIR
 10
0.0
 20
1.0
 30
0.0
  9
$USERI1
 70
     0
  9
$USERI2
 70
     0
  9
$USERI3
 70
     0
  9
$USERI4
 70
     0
  9
$USERI5
 70
     0
  9
$USERR1
 40
0.0
  9
$USERR2
 40
0.0
  9
$USERR3
 40
0.0
  9
$USERR4
 40
0.0
  9
$USERR5
 40
0.0
  9
$WORLDVIEW
 70
     1
  9
$SHADEDGE
 70
     3
  9
$SHADEDIF
 70
    70
  9
$TILEMODE
 70
     1
  9
$MAXACTVP
 70
    16
  9
$PLIMCHECK
 70
     0
  9
$PEXTMIN
 10
1.0000000000000000E+020
 20
1.0000000000000000E+020
 30
1.0000000000000000E+020
  9
$PEXTMAX
 10
-1.0000000000000000E+020
 20
-1.0000000000000000E+020
 30
-1.0000000000000000E+020
  9
$PLIMMIN
 10
0.0
 20
0.0
  9
$PLIMMAX
 10
12.0
 20
9.0
  9
$UNITMODE
 70
     0
  9
$VISRETAIN
 70
     0
  9
$PLINEGEN
 70
     0
  9
$PSLTSCALE
 70
     1
  0
ENDSEC
  0
SECTION
  2
TABLES
  0
TABLE
  2
VPORT
 70
     1
  0
VPORT
  2
*ACTIVE
 70
     0
 10
0.0
 20
0.0
 11
1.0
 21
1.0
 12
22.08530343978321
 22
368.02352839917017
 13
0.0
 23
0.0
 14
10.0
 24
10.0
 15
10.0
 25
10.0
 16
0.0
 26
0.0
 36
1.0
 17
0.0
 27
0.0
 37
0.0
 40
95.627095316040183
 41
1.461441213653603
 42
50.0
 43
0.0
 44
0.0
 50
0.0
 51
0.0
 71
     0
 72
   100
 73
     1
 74
     0
 75
     0
 76
     0
 77
     0
 78
     0
  0
ENDTAB
  0
TABLE
  2
LTYPE
 70
     4
  0
LTYPE
  2
CONTINUOUS
 70
     0
  3
Solid line
 72
    65
 73
     0
 40
0.0
  0
LTYPE
  2
CENTER
 70
     0
  3
Center ____ _ ____ _ ____ _ ____ _ ____ _ ____
 72
    65
 73
     4
 40
2.0
 49
1.25
 49
-0.25
 49
0.25
 49
-0.25
  0
LTYPE
  2
DASHED
 70
     0
  3
Dashed __ __ __ __ __ __ __ __ __ __ __ __ __ _
 72
    65
 73
     2
 40
0.75
 49
0.5
 49
-0.25
  0
ENDTAB
  0
TABLE
  2
LAYER
 70
     2
  0
LAYER
  2
0
 70
     0
 62
     7
  6
CONTINUOUS
  0
LAYER
  2
CENTER
 70
     0
 62
     1
  6
CENTER
  0
ENDTAB
  0
TABLE
  2
STYLE
 70
     1
  0
STYLE
  2
STANDARD
 70
     0
 40
0.0
 41
1.0
 50
0.0
 71
     0
 42
6.4000000000000012
  3
txt
  4

  0
ENDTAB
  0
TABLE
  2
VIEW
 70
     0
  0
ENDTAB
  0
TABLE
  2
UCS
 70
     0
  0
ENDTAB
  0
TABLE
  2
APPID
 70
     2
  0
APPID
  2
ACAD
 70
     0
  0
APPID
  2
ACAD_PSEXT
 70
     0
  0
ENDTAB
  0
TABLE
  2
DIMSTYLE
 70
     1
  0
DIMSTYLE
  2
MISUMI
 70
     0
  3

  4

  5

  6

  7

 40
1.0
 41
3.0
 42
1.0
 43
0.0
 44
1.0
 45
0.0
 46
0.0
 47
0.0
 48
0.0
140
3.2000000000000002
141
0.0
142
0.0
143
0.04
144
1.0
145
1.0
146
0.6
147
1.0
 71
     0
 72
     0
 73
     0
 74
     0
 75
     0
 76
     0
 77
     1
 78
     8
170
     0
171
     2
172
     1
173
     0
174
     1
175
     0
176
     0
177
     0
178
     0
  0
ENDTAB
  0
ENDSEC
  0
SECTION
  2
BLOCKS
  0
BLOCK
  8
0
  2
$MODEL_SPACE
 70
     0
 10
0.0
 20
0.0
 30
0.0
  3
$MODEL_SPACE
  1

  0
ENDBLK
  5
18B5
  8
0
  0
BLOCK
 67
     1
  8
0
  2
$PAPER_SPACE
 70
     0
 10
0.0
 20
0.0
 30
0.0
  3
$PAPER_SPACE
  1

  0
ENDBLK
  5
18B1
 67
     1
  8
0
  0
BLOCK
  8
0
 62
     7
  2
A$C71836642
 70
     0
 10
0.0
 20
0.0
 30
0.0
  3
A$C71836642
  1

  0
LINE
  5
177F
  8
0
  6
DASHED
 62
     3
 10
0.0000000000000639
 20
1.59999999999978
 30
0.0
 11
10.00000005773507
 21
1.59999999999978
 31
0.0
  0
LINE
  5
1780
  8
0
  6
DASHED
 62
     3
 10
0.0000000000000639
 20
2.0
 30
0.0
 11
8.0000000000001688
 21
2.0
 31
0.0
  0
LINE
  5
1781
  8
0
  6
DASHED
 62
     3
 10
8.0000000000001688
 20
-2.0000104000000918
 30
0.0
 11
8.6062267893134372
 21
-1.650005200000207
 31
0.0
  0
LINE
  5
1782
  8
0
  6
DASHED
 62
     3
 10
8.0000000000001688
 20
2.0
 30
0.0
 11
8.6062267893134372
 21
1.6499948000000011
 31
0.0
  0
LINE
  5
1783
  8
0
  6
DASHED
 62
     3
 10
0.0000000000000639
 20
-1.6000000000000141
 30
0.0
 11
10.00000005773507
 21
-1.6000000000000141
 31
0.0
  0
LINE
  5
1784
  8
0
  6
DASHED
 62
     3
 10
0.0000000000000639
 20
-2.0
 30
0.0
 11
8.0000000000001688
 21
-2.0
 31
0.0
  0
LINE
  5
1785
  8
0
  6
DASHED
 62
     3
 10
8.0000000000001688
 20
2.0
 30
0.0
 11
8.0000000000001688
 21
-2.0
 31
0.0
  0
LINE
  5
1786
  8
0
  6
DASHED
 62
     3
 10
10.92375802712348
 20
0.0
 30
0.0
 11
10.000000000000069
 21
-1.6000001000001021
 31
0.0
  0
LINE
  5
1787
  8
0
  6
DASHED
 62
     3
 10
10.000000000000069
 20
-1.6000000000000141
 30
0.0
 11
10.000000000000069
 21
1.600000099999987
 31
0.0
  0
LINE
  5
1788
  8
0
  6
DASHED
 62
     3
 10
10.92375802712348
 20
0.0
 30
0.0
 11
10.000000000000069
 21
1.600000099999987
 31
0.0
  0
ENDBLK
  5
178A
  8
0
 62
     7
  0
BLOCK
  8
0
 62
     7
  2
A$C1525664D
 70
     0
 10
0.0
 20
0.0
 30
0.0
  3
A$C1525664D
  1

  0
LINE
  5
178D
  8
0
  6
DASHED
 62
     3
 10
-10.923758027123471
 20
-0.0000000000000426
 30
0.0
 11
-10.00000000000005
 21
1.6000000999999451
 31
0.0
  0
LINE
  5
178E
  8
0
  6
DASHED
 62
     3
 10
-10.00000000000005
 20
-1.600000000000058
 30
0.0
 11
-10.00000000000005
 21
1.6000000999999451
 31
0.0
  0
LINE
  5
178F
  8
0
  6
DASHED
 62
     3
 10
-10.923758027123471
 20
-0.0000000000000426
 30
0.0
 11
-10.00000000000005
 21
-1.6000001000001429
 31
0.0
  0
LINE
  5
1790
  8
0
  6
DASHED
 62
     3
 10
-8.0000000000001972
 20
1.999999999999956
 30
0.0
 11
-8.0000000000001972
 21
-2.0000000000000422
 31
0.0
  0
LINE
  5
1791
  8
0
  6
DASHED
 62
     3
 10
-0.0000000000001137
 20
-2.0000000000000422
 30
0.0
 11
-8.0000000000001972
 21
-2.0000000000000422
 31
0.0
  0
LINE
  5
1792
  8
0
  6
DASHED
 62
     3
 10
-0.0000000000001137
 20
1.999999999999956
 30
0.0
 11
-8.0000000000001972
 21
1.999999999999956
 31
0.0
  0
LINE
  5
1793
  8
0
  6
DASHED
 62
     3
 10
-0.0000000000001137
 20
-1.600000000000058
 30
0.0
 11
-10.000000057735051
 21
-1.600000000000058
 31
0.0
  0
LINE
  5
1794
  8
0
  6
DASHED
 62
     3
 10
-0.0000000000001137
 20
1.5999999999997381
 30
0.0
 11
-10.000000057735051
 21
1.5999999999997381
 31
0.0
  0
LINE
  5
1795
  8
0
  6
DASHED
 62
     3
 10
-8.0000000000001972
 20
1.999999999999956
 30
0.0
 11
-8.60622678931351
 21
1.649994799999958
 31
0.0
  0
LINE
  5
1796
  8
0
  6
DASHED
 62
     3
 10
-8.0000000000001972
 20
-2.000010400000134
 30
0.0
 11
-8.60622678931351
 21
-1.650005200000251
 31
0.0
  0
ENDBLK
  5
1798
  8
0
 62
     7
  0
ENDSEC
  0
SECTION
  2
ENTITIES
  0
TEXT
  5
B25
  8
0
  6
CONTINUOUS
 62
     7
 10
-47.420519752038963
 20
353.02491481277218
 30
0.0
 40
2.0
  1
BYHY 8-60-20-15
  0
TEXT
  5
B26
  8
0
  6
CONTINUOUS
 62
     7
 10
-47.420519752038963
 20
343.02491481277241
 30
0.0
 40
2.0
  1
BYHY08-60-20
  0
LINE
  5
15EF
  8
0
  6
CONTINUOUS
 62
     7
 10
52.279480247961253
 20
388.02491481277218
 30
0.0
 11
52.579480247961158
 21
387.72491481277223
 31
0.0
  0
LINE
  5
15F0
  8
0
  6
CONTINUOUS
 62
     7
 10
52.579480247961072
 20
384.02491481277229
 30
0.0
 11
52.579480247961158
 21
387.72491481277223
 31
0.0
  0
LINE
  5
15F1
  8
0
  6
CONTINUOUS
 62
     7
 10
52.579480247961072
 20
380.32491481277242
 30
0.0
 11
52.279480247961253
 21
380.02491481277218
 31
0.0
  0
LINE
  5
15F2
  8
0
  6
CONTINUOUS
 62
     7
 10
52.579480247961072
 20
384.02491481277229
 30
0.0
 11
52.579480247961072
 21
380.32491481277242
 31
0.0
  0
LINE
  5
15F3
  8
0
  6
CONTINUOUS
 62
     7
 10
52.279480247961253
 20
388.02491481277241
 30
0.0
 11
52.27948024796116
 21
380.02491481277218
 31
0.0
  0
LINE
  5
15F4
  8
0
  6
CONTINUOUS
 62
     7
 10
-7.1205197520388523
 20
388.02491481277218
 30
0.0
 11
-7.4205197520388406
 21
387.72491481277223
 31
0.0
  0
LINE
  5
15F5
  8
0
  6
CONTINUOUS
 62
     7
 10
-7.4205197520388406
 20
384.02491481277229
 30
0.0
 11
-7.4205197520388406
 21
387.72491481277223
 31
0.0
  0
LINE
  5
15F6
  8
0
  6
CONTINUOUS
 62
     7
 10
-7.4205197520388406
 20
380.32491481277242
 30
0.0
 11
-7.1205197520388452
 21
380.02491481277218
 31
0.0
  0
LINE
  5
15F7
  8
0
  6
CONTINUOUS
 62
     7
 10
-7.4205197520388406
 20
384.02491481277229
 30
0.0
 11
-7.4205197520388406
 21
380.32491481277242
 31
0.0
  0
LINE
  5
15F8
  8
0
  6
CONTINUOUS
 62
     7
 10
-7.1205197520388301
 20
388.02491481277241
 30
0.0
 11
-7.1205197520388452
 21
380.02491481277218
 31
0.0
  0
LINE
  5
1605
  8
CENTER
  6
CENTER
 62
     1
 10
73.579480247961143
 20
384.02491481277229
 30
0.0
 11
91.579480247961158
 21
384.02491481277229
 31
0.0
  0
CIRCLE
  5
1607
  8
0
  6
CONTINUOUS
 62
     7
 10
82.579480247961158
 20
384.02491481277229
 30
0.0
 40
4.5999999999999979
  0
CIRCLE
  5
1609
  8
0
  6
CONTINUOUS
 62
     7
 10
82.579480247961158
 20
384.02491481277229
 30
0.0
 40
4.0
  0
LINE
  5
160C
  8
0
  6
CONTINUOUS
 62
     7
 10
52.279480247961253
 20
388.02491481277241
 30
0.0
 11
32.579480247961158
 21
388.02491481277241
 31
0.0
  0
LINE
  5
160D
  8
0
  6
CONTINUOUS
 62
     7
 10
52.27948024796116
 20
380.02491481277218
 30
0.0
 11
32.579480247961158
 21
380.02491481277218
 31
0.0
  0
LINE
  5
160E
  8
CENTER
  6
CENTER
 62
     1
 10
82.579480247961158
 20
393.02491481277241
 30
0.0
 11
82.579480247961158
 21
375.02491481277241
 31
0.0
  0
CIRCLE
  5
1610
  8
0
  6
CONTINUOUS
 62
     7
 10
82.579480247961158
 20
384.02491481277229
 30
0.0
 40
5.5
  0
CIRCLE
  5
1611
  8
0
  6
CONTINUOUS
 62
     7
 10
82.579480247961158
 20
384.02491481277229
 30
0.0
 40
7.0
  0
LINE
  5
1613
  8
0
  6
CONTINUOUS
 62
     7
 10
12.579480247961159
 20
390.52491481277218
 30
0.0
 11
16.579480247961161
 21
390.52491481277218
 31
0.0
  0
LINE
  5
1614
  8
0
  6
CONTINUOUS
 62
     7
 10
16.579480247961161
 20
390.52491481277229
 30
0.0
 11
16.579480247961161
 21
377.52491481277229
 31
0.0
  0
LINE
  5
1616
  8
0
  6
CONTINUOUS
 62
     7
 10
12.579480247961159
 20
377.52491481277229
 30
0.0
 11
16.579480247961161
 21
377.52491481277229
 31
0.0
  0
LINE
  5
1618
  8
0
  6
CONTINUOUS
 62
     7
 10
12.579480247961159
 20
384.02491481277229
 30
0.0
 11
12.579480247961159
 21
377.52491481277229
 31
0.0
  0
LINE
  5
1619
  8
0
  6
CONTINUOUS
 62
     7
 10
-7.1205197520388301
 20
388.02491481277241
 30
0.0
 11
12.579480247961159
 21
388.02491481277241
 31
0.0
  0
LINE
  5
161A
  8
0
  6
CONTINUOUS
 62
     7
 10
-7.1205197520388452
 20
380.02491481277218
 30
0.0
 11
12.579480247961159
 21
380.02491481277218
 31
0.0
  0
LINE
  5
161E
  8
0
  6
CONTINUOUS
 62
     7
 10
12.579480247961159
 20
384.02491481277229
 30
0.0
 11
12.579480247961159
 21
390.52491481277218
 31
0.0
  0
LINE
  5
161F
  8
CENTER
  6
CENTER
 62
     1
 10
-9.4205197520388424
 20
384.02491481277229
 30
0.0
 11
54.579480247961058
 21
384.02491481277229
 31
0.0
  0
LINE
  5
1637
  8
0
  6
DASHED
 62
     3
 10
31.579480247961161
 20
379.42491481277222
 30
0.0
 11
32.579480247961158
 21
379.24858783206389
 31
0.0
  0
LINE
  5
1638
  8
0
  6
DASHED
 62
     3
 10
31.579480247961161
 20
388.62491481277232
 30
0.0
 11
32.579480247961158
 21
388.80124179348081
 31
0.0
  0
LINE
  5
1639
  8
0
  6
DASHED
 62
     3
 10
13.57948024796115
 20
388.62491481277232
 30
0.0
 11
12.579480247961159
 21
388.80124179348081
 31
0.0
  0
LINE
  5
163A
  8
0
  6
DASHED
 62
     3
 10
13.57948024796115
 20
379.42491481277222
 30
0.0
 11
12.579480247961159
 21
379.24858783206389
 31
0.0
  0
ARC
  5
163B
  8
0
  6
DASHED
 62
     3
 10
12.77948024796116
 20
378.72491481277223
 30
0.0
 40
0.2
 50
180.0
 51
270.0
  0
ARC
  5
163C
  8
0
  6
DASHED
 62
     3
 10
12.77948024796116
 20
389.32491481277242
 30
0.0
 40
0.2
 50
90.0
 51
180.0
  0
ARC
  5
163D
  8
0
  6
CONTINUOUS
 62
     7
 10
32.379480247961162
 20
378.72491481277223
 30
0.0
 40
0.2
 50
270.0
 51
0.0
  0
ARC
  5
163E
  8
0
  6
CONTINUOUS
 62
     7
 10
32.379480247961162
 20
389.32491481277242
 30
0.0
 40
0.2
 50
0.0
 51
90.0
  0
LINE
  5
163F
  8
0
  6
CONTINUOUS
 62
     7
 10
32.579480247961158
 20
389.32491481277242
 30
0.0
 11
32.579480247961158
 21
384.02491481277229
 31
0.0
  0
LINE
  5
1640
  8
0
  6
CONTINUOUS
 62
     7
 10
32.579480247961158
 20
378.72491481277223
 30
0.0
 11
32.579480247961158
 21
384.02491481277229
 31
0.0
  0
LINE
  5
1644
  8
0
  6
DASHED
 62
     3
 10
31.579480247961161
 20
388.62491481277232
 30
0.0
 11
13.579480247961181
 21
388.62491481277232
 31
0.0
  0
LINE
  5
1645
  8
0
  6
DASHED
 62
     3
 10
31.57948024796115
 20
379.42491481277222
 30
0.0
 11
13.579480247961159
 21
379.42491481277239
 31
0.0
  0
LINE
  5
1646
  8
0
  6
DASHED
 62
     3
 10
12.77948024796116
 20
389.52491481277241
 30
0.0
 11
16.579480247961161
 21
389.52491481277252
 31
0.0
  0
LINE
  5
1647
  8
0
  6
CONTINUOUS
 62
     7
 10
16.579480247961161
 20
378.52491481277241
 30
0.0
 11
32.379480247961162
 21
378.52491481277241
 31
0.0
  0
ARC
  5
165E
  8
0
  6
CONTINUOUS
 62
     7
 10
86.303389484234216
 20
386.17491481277222
 30
0.0
 40
0.3
 50
355.35341641663962
 51
64.646583583360282
  0
ARC
  5
165F
  8
0
  6
CONTINUOUS
 62
     7
 10
86.303389484234216
 20
386.17491481277222
 30
0.0
 40
0.3
 50
177.56412382046139
 51
242.4358761795375
  0
ARC
  5
1660
  8
0
  6
CONTINUOUS
 62
     7
 10
86.303389484234259
 20
381.87491481277237
 30
0.0
 40
0.3
 50
295.35341641663967
 51
4.6465835833603677
  0
ARC
  5
1661
  8
0
  6
CONTINUOUS
 62
     7
 10
86.303389484234259
 20
381.87491481277237
 30
0.0
 40
0.3
 50
117.5641238204625
 51
182.4358761795385
  0
ARC
  5
1662
  8
0
  6
CONTINUOUS
 62
     7
 10
82.579480247961158
 20
379.72491481277223
 30
0.0
 40
0.3
 50
235.35341641663911
 51
304.64658358336078
  0
ARC
  5
1663
  8
0
  6
CONTINUOUS
 62
     7
 10
82.579480247961158
 20
379.72491481277223
 30
0.0
 40
0.3
 50
57.564123820462811
 51
122.4358761795371
  0
ARC
  5
1664
  8
0
  6
CONTINUOUS
 62
     7
 10
78.855571011688085
 20
381.87491481277237
 30
0.0
 40
0.3
 50
175.35341641663959
 51
244.6465835833603
  0
ARC
  5
1665
  8
0
  6
CONTINUOUS
 62
     7
 10
78.855571011688085
 20
381.87491481277237
 30
0.0
 40
0.3
 50
357.56412382046142
 51
62.435876179537502
  0
ARC
  5
1666
  8
0
  6
CONTINUOUS
 62
     7
 10
78.855571011688085
 20
386.17491481277222
 30
0.0
 40
0.3
 50
115.3534164166397
 51
184.6465835833603
  0
ARC
  5
1667
  8
0
  6
CONTINUOUS
 62
     7
 10
78.855571011688085
 20
386.17491481277222
 30
0.0
 40
0.3
 50
297.56412382046238
 51
2.435876179538556
  0
ARC
  5
1668
  8
0
  6
CONTINUOUS
 62
     7
 10
82.579480247961158
 20
388.32491481277242
 30
0.0
 40
0.3
 50
237.56412382046281
 51
302.4358761795371
  0
ARC
  5
1669
  8
0
  6
CONTINUOUS
 62
     7
 10
82.579480247961158
 20
388.32491481277242
 30
0.0
 40
0.3
 50
55.353416416639121
 51
124.64658358336089
  0
CIRCLE
  5
166A
  8
0
  6
CONTINUOUS
 62
     7
 10
82.579480247961158
 20
384.02491481277229
 30
0.0
 40
4.549999999999998
  0
CIRCLE
  5
166B
  8
0
  6
CONTINUOUS
 62
     7
 10
82.579480247961158
 20
384.02491481277229
 30
0.0
 40
4.049999999999998
  0
LINE
  5
1696
  8
0
  6
DASHED
 62
     3
 10
29.879480247961141
 20
388.07491481277242
 30
0.0
 11
30.07948024796114
 21
388.27491481277218
 31
0.0
  0
LINE
  5
1697
  8
0
  6
DASHED
 62
     3
 10
29.879480247961158
 20
379.9749148127724
 30
0.0
 11
30.079480247961161
 21
379.77491481277229
 31
0.0
  0
LINE
  5
1698
  8
0
  6
DASHED
 62
     3
 10
15.279480247961169
 20
379.9749148127724
 30
0.0
 11
15.079480247961159
 21
379.77491481277229
 31
0.0
  0
LINE
  5
1699
  8
0
  6
DASHED
 62
     3
 10
15.27948024796116
 20
388.07491481277242
 30
0.0
 11
15.079480247961159
 21
388.27491481277218
 31
0.0
  0
LINE
  5
169A
  8
0
  6
DASHED
 62
     3
 10
15.279480247961169
 20
379.47491481277223
 30
0.0
 11
15.079480247961159
 21
379.67491481277239
 31
0.0
  0
LINE
  5
169B
  8
0
  6
DASHED
 62
     3
 10
29.879480247961141
 20
379.47491481277223
 30
0.0
 11
30.07948024796114
 21
379.67491481277239
 31
0.0
  0
LINE
  5
169C
  8
0
  6
DASHED
 62
     3
 10
30.079480247961161
 20
388.37491481277237
 30
0.0
 11
29.879480247961158
 21
388.57491481277231
 31
0.0
  0
LINE
  5
169D
  8
0
  6
DASHED
 62
     3
 10
15.27948024796116
 20
388.57491481277231
 30
0.0
 11
15.079480247961159
 21
388.37491481277237
 31
0.0
  0
LINE
  5
169E
  8
0
  6
DASHED
 62
     3
 10
30.079480247961161
 20
388.37491481277237
 30
0.0
 11
30.079480247960529
 21
384.02491481277229
 31
0.0
  0
LINE
  5
169F
  8
0
  6
DASHED
 62
     3
 10
30.07948024796114
 20
379.67491481277239
 30
0.0
 11
30.079480247961762
 21
384.02491481277229
 31
0.0
  0
LINE
  5
16A0
  8
0
  6
DASHED
 62
     3
 10
15.079480247961159
 20
388.37491481277237
 30
0.0
 11
15.079480247961159
 21
384.02491481277229
 31
0.0
  0
LINE
  5
16A1
  8
0
  6
DASHED
 62
     3
 10
15.079480247961159
 20
379.67491481277239
 30
0.0
 11
15.079480247961159
 21
384.02491481277229
 31
0.0
  0
LINE
  5
16A2
  8
0
  6
DASHED
 62
     3
 10
15.279480247961169
 20
379.9749148127724
 30
0.0
 11
29.879480247961158
 21
379.9749148127724
 31
0.0
  0
LINE
  5
16A3
  8
0
  6
DASHED
 62
     3
 10
15.27948024796116
 20
388.07491481277242
 30
0.0
 11
29.879480247961141
 21
388.07491481277242
 31
0.0
  0
LINE
  5
16A4
  8
0
  6
DASHED
 62
     3
 10
15.27948024796116
 20
388.57491481277231
 30
0.0
 11
29.879480247961158
 21
388.57491481277231
 31
0.0
  0
LINE
  5
16A5
  8
0
  6
DASHED
 62
     3
 10
15.279480247961169
 20
379.47491481277223
 30
0.0
 11
29.879480247961141
 21
379.47491481277223
 31
0.0
  0
LINE
  5
1772
  8
0
  6
CONTINUOUS
 62
     7
 10
16.579480247961161
 20
389.52491481277241
 30
0.0
 11
32.379480247961162
 21
389.52491481277218
 31
0.0
  0
LINE
  5
1773
  8
0
  6
DASHED
 62
     3
 10
12.77948024796116
 20
378.52491481277218
 30
0.0
 11
16.579480247961161
 21
378.52491481277241
 31
0.0
  0
INSERT
  5
178B
  8
0
  6
CONTINUOUS
 62
     7
  2
A$C71836642
 10
-7.4205197520388406
 20
384.02491481277229
 30
0.0
  0
INSERT
  5
1799
  8
0
  6
CONTINUOUS
 62
     7
  2
A$C1525664D
 10
52.579480247961072
 20
384.02491481277229
 30
0.0
  0
CIRCLE
  5
17A0
  8
0
  6
CONTINUOUS
 62
     3
 10
82.579480247961158
 20
384.02491481277229
 30
0.0
 40
2.0
  0
CIRCLE
  5
17A1
  8
0
  6
CONTINUOUS
 62
     7
 10
82.579480247961158
 20
384.02491481277229
 30
0.0
 40
1.599999999999794
  0
LINE
  5
1836
  8
0
  6
DASHED
 62
     3
 10
32.579480247961158
 20
388.02491481277241
 30
0.0
 11
12.579480247961159
 21
388.02491481277241
 31
0.0
  0
LINE
  5
1837
  8
0
  6
DASHED
 62
     3
 10
32.579480247961158
 20
380.02491481277218
 30
0.0
 11
12.579480247961159
 21
380.02491481277218
 31
0.0
  0
ENDSEC
  0
EOF
