  0
SECTION
  2
HEADER
  9
$ACADVER
  1
AC1009
  9
$INSBASE
 10
0.0
 20
0.0
 30
0.0
  9
$EXTMIN
 10
-2.999999999999992
 20
-8.0
 30
-0.5
  9
$EXTMAX
 10
101.6389229487523
 20
63.000000000000007
 30
0.5
  9
$LIMMIN
 10
0.0
 20
0.0
  9
$LIMMAX
 10
420.0
 20
297.0
  9
$ORTHOMODE
 70
     0
  9
$REGENMODE
 70
     1
  9
$FILLMODE
 70
     1
  9
$QTEXTMODE
 70
     0
  9
$MIRRTEXT
 70
     0
  9
$DRAGMODE
 70
     2
  9
$LTSCALE
 40
0.5
  9
$OSMODE
 70
   317
  9
$ATTMODE
 70
     1
  9
$TEXTSIZE
 40
3.0
  9
$TRACEWID
 40
1.0
  9
$TEXTSTYLE
  7
STANDARD
  9
$CLAYER
  8
MSM_CONTINUOUS
  9
$CELTYPE
  6
BYLAYER
  9
$CECOLOR
 62
   256
  9
$DIMSCALE
 40
1.0
  9
$DIMASZ
 40
2.5
  9
$DIMEXO
 40
0.625
  9
$DIMDLI
 40
3.75
  9
$DIMRND
 40
0.0
  9
$DIMDLE
 40
0.0
  9
$DIMEXE
 40
1.25
  9
$DIMTP
 40
0.0
  9
$DIMTM
 40
0.0
  9
$DIMTXT
 40
3.0
  9
$DIMCEN
 40
2.5
  9
$DIMTSZ
 40
0.0
  9
$DIMTOL
 70
     0
  9
$DIMLIM
 70
     0
  9
$DIMTIH
 70
     0
  9
$DIMTOH
 70
     0
  9
$DIMSE1
 70
     0
  9
$DIMSE2
 70
     0
  9
$DIMTAD
 70
     1
  9
$DIMZIN
 70
     8
  9
$DIMBLK
  1
OPEN30
  9
$DIMASO
 70
     1
  9
$DIMSHO
 70
     1
  9
$DIMPOST
  1

  9
$DIMAPOST
  1

  9
$DIMALT
 70
     0
  9
$DIMALTD
 70
     3
  9
$DIMALTF
 40
0.03937007874016
  9
$DIMLFAC
 40
1.0
  9
$DIMTOFL
 70
     1
  9
$DIMTVP
 40
0.0
  9
$DIMTIX
 70
     0
  9
$DIMSOXD
 70
     0
  9
$DIMSAH
 70
     0
  9
$DIMBLK1
  1

  9
$DIMBLK2
  1

  9
$DIMSTYLE
  2
MISUMI
  9
$DIMCLRD
 70
   256
  9
$DIMCLRE
 70
   256
  9
$DIMCLRT
 70
   256
  9
$DIMTFAC
 40
1.0
  9
$DIMGAP
 40
0.625
  9
$LUNITS
 70
     2
  9
$LUPREC
 70
     2
  9
$SKETCHINC
 40
1.0
  9
$FILLETRAD
 40
0.0
  9
$AUNITS
 70
     0
  9
$AUPREC
 70
     0
  9
$MENU
  1
.
  9
$ELEVATION
 40
0.0
  9
$PELEVATION
 40
0.0
  9
$THICKNESS
 40
0.0
  9
$LIMCHECK
 70
     0
  9
$BLIPMODE
 70
     0
  9
$CHAMFERA
 40
0.5
  9
$CHAMFERB
 40
0.5
  9
$SKPOLY
 70
     0
  9
$TDCREATE
 40
2455135.5720697111
  9
$TDUPDATE
 40
2457676.6037400579
  9
$TDINDWG
 40
0.7088547569
  9
$TDUSRTIMER
 40
2457485.1007913779
  9
$USRTIMER
 70
     1
  9
$ANGBASE
 50
0.0
  9
$ANGDIR
 70
     0
  9
$PDMODE
 70
    35
  9
$PDSIZE
 40
0.0
  9
$PLINEWID
 40
0.0
  9
$COORDS
 70
     1
  9
$SPLFRAME
 70
     0
  9
$SPLINETYPE
 70
     6
  9
$SPLINESEGS
 70
     8
  9
$ATTDIA
 70
     0
  9
$ATTREQ
 70
     1
  9
$HANDLING
 70
     1
  9
$HANDSEED
  5
EB12
  9
$SURFTAB1
 70
     6
  9
$SURFTAB2
 70
     6
  9
$SURFTYPE
 70
     6
  9
$SURFU
 70
     6
  9
$SURFV
 70
     6
  9
$UCSNAME
  2

  9
$UCSORG
 10
0.0
 20
0.0
 30
0.0
  9
$UCSXDIR
 10
1.0
 20
0.0
 30
0.0
  9
$UCSYDIR
 10
0.0
 20
1.0
 30
0.0
  9
$PUCSNAME
  2

  9
$PUCSORG
 10
0.0
 20
0.0
 30
0.0
  9
$PUCSXDIR
 10
1.0
 20
0.0
 30
0.0
  9
$PUCSYDIR
 10
0.0
 20
1.0
 30
0.0
  9
$USERI1
 70
     0
  9
$USERI2
 70
     0
  9
$USERI3
 70
     0
  9
$USERI4
 70
     0
  9
$USERI5
 70
     0
  9
$USERR1
 40
0.0
  9
$USERR2
 40
0.0
  9
$USERR3
 40
0.0
  9
$USERR4
 40
0.0
  9
$USERR5
 40
0.0
  9
$WORLDVIEW
 70
     1
  9
$SHADEDGE
 70
     3
  9
$SHADEDIF
 70
    70
  9
$TILEMODE
 70
     1
  9
$MAXACTVP
 70
    64
  9
$PLIMCHECK
 70
     0
  9
$PEXTMIN
 10
0.0
 20
0.0
 30
0.0
  9
$PEXTMAX
 10
0.0
 20
0.0
 30
0.0
  9
$PLIMMIN
 10
0.0
 20
0.0
  9
$PLIMMAX
 10
12.0
 20
9.0
  9
$UNITMODE
 70
     0
  9
$VISRETAIN
 70
     1
  9
$PLINEGEN
 70
     0
  9
$PSLTSCALE
 70
     1
  0
ENDSEC
  0
SECTION
  2
TABLES
  0
TABLE
  2
VPORT
 70
     1
  0
VPORT
  2
*ACTIVE
 70
     0
 10
0.0
 20
0.0
 11
1.0
 21
1.0
 12
49.323767536318137
 22
27.50018367939651
 13
0.0
 23
0.0
 14
10.0
 24
10.0
 15
10.0
 25
10.0
 16
0.0
 26
0.0
 36
1.0
 17
0.0
 27
0.0
 37
0.0
 40
71.528078303936596
 41
1.9078947368421051
 42
50.0
 43
0.0
 44
0.0
 50
0.0
 51
0.0
 71
    16
 72
  1000
 73
     1
 74
     3
 75
     0
 76
     0
 77
     0
 78
     0
  0
ENDTAB
  0
TABLE
  2
LTYPE
 70
     2
  0
LTYPE
  2
CONTINUOUS
 70
     0
  3
Solid line
 72
    65
 73
     0
 40
0.0
  0
LTYPE
  2
CENTER
 70
     0
  3
Center ____ _ ____ _ ____ _ ____ _ ____ _ ____
 72
    65
 73
     4
 40
50.799999999999997
 49
31.75
 49
-6.3499999999999988
 49
6.3499999999999988
 49
-6.3499999999999988
  0
ENDTAB
  0
TABLE
  2
LAYER
 70
     6
  0
LAYER
  2
0
 70
     0
 62
     7
  6
CONTINUOUS
  0
LAYER
  2
MSM_CENTER
 70
     0
 62
     1
  6
CENTER
  0
LAYER
  2
MSM_CONTINUOUS
 70
     0
 62
     7
  6
CONTINUOUS
  0
LAYER
  2
MSM_PART_NUMBER
 70
     0
 62
     7
  6
CONTINUOUS
  0
ENDTAB
  0
TABLE
  2
STYLE
 70
     1
  0
STYLE
  2
STANDARD
 70
     0
 40
3.0
 41
1.0
 50
0.0
 71
     0
 42
3.0
  3
txt.shx
  4
bigfont.shx
  0
ENDTAB
  0
TABLE
  2
VIEW
 70
     0
  0
ENDTAB
  0
TABLE
  2
UCS
 70
     0
  0
ENDTAB
  0
TABLE
  2
APPID
 70
    25
  0
APPID
  2
ACAD
 70
     0
  0
APPID
  2
ACAD_MLEADERVER
 70
     0
  0
APPID
  2
ACAD_EXEMPT_FROM_CAD_STANDARDS
 70
     0
  0
APPID
  2
ACDBBLOCKREPETAG
 70
     0
  0
APPID
  2
ACAD_DSTYLE_DIMJOGGED_JOGA
 70
     0
  0
APPID
  2
ACAECLAYERSTANDARD
 70
     0
  0
APPID
  2
GENIUS_GENODEF_13
 70
     0
  0
APPID
  2
GENIUS_GENOBJ-N-FIL_13
 70
     0
  0
APPID
  2
ACAD_PSEXT
 70
     0
  0
APPID
  2
ACAD_DSTYLE_DIMRADIAL_EXTENSION
 70
     0
  0
APPID
  2
ACDBDYNAMICBLOCKTRUENAME
 70
     0
  0
APPID
  2
ACDBDYNAMICBLOCKGUID
 70
     0
  0
APPID
  2
ACDBBLOCKREPBTAG
 70
     0
  0
APPID
  2
ACAUTHENVIRON
 70
     0
  0
APPID
  2
GRADIENTCOLOR1ACI
 70
     0
  0
APPID
  2
GRADIENTCOLOR2ACI
 70
     0
  0
APPID
  2
ACAD_DSTYLE_DIMJAG
 70
     0
  0
APPID
  2
ACAD_DSTYLE_DIMTALN
 70
     0
  0
APPID
  2
ACCMTRANSPARENCY
 70
     0
  0
APPID
  2
ACAD_DSTYLE_DIMBREAK
 70
     0
  0
APPID
  2
ACAD_DSTYLE_DIMFLIPARROW_W
 70
     0
  0
APPID
  2
ACAD_DSTYLE_DIM_LINETYPE
 70
     0
  0
APPID
  2
ACAD_DSTYLE_DIM_EXT1_LINETYPE
 70
     0
  0
APPID
  2
ACAD_DSTYLE_DIM_EXT2_LINETYPE
 70
     0
  0
APPID
  2
ACAD_NAV_VCDISPLAY
 70
     0
  0
ENDTAB
  0
TABLE
  2
DIMSTYLE
 70
     1
  0
DIMSTYLE
  2
MISUMI
 70
     0
  3

  4

  5
OPEN30
  6

  7

 40
1.0
 41
2.5
 42
0.625
 43
3.75
 44
1.25
 45
0.0
 46
0.0
 47
0.0
 48
0.0
140
3.0
141
2.5
142
0.0
143
0.03937007874016
144
1.0
145
0.0
146
1.0
147
0.625
 71
     0
 72
     0
 73
     0
 74
     0
 75
     0
 76
     0
 77
     1
 78
     8
170
     0
171
     3
172
     1
173
     0
174
     0
175
     0
176
   256
177
   256
178
   256
  0
ENDTAB
  0
ENDSEC
  0
SECTION
  2
BLOCKS
  0
BLOCK
  8
0
  2
$MODEL_SPACE
 70
     0
 10
0.0
 20
0.0
 30
0.0
  3
$MODEL_SPACE
  1

  0
ENDBLK
  5
21
  8
0
  0
BLOCK
 67
     1
  8
0
  2
$PAPER_SPACE
 70
     0
 10
0.0
 20
0.0
 30
0.0
  3
$PAPER_SPACE
  1

  0
ENDBLK
  5
EAF3
 67
     1
  8
0
  0
BLOCK
  8
0
 62
     7
  2
_OPEN30
 70
     0
 10
0.0
 20
0.0
 30
0.0
  3
_OPEN30
  1

  0
LINE
  5
D7
  8
0
  6
BYBLOCK
 62
     0
 10
-1.0
 20
0.26794919
 30
0.0
 11
0.0
 21
0.0
 31
0.0
  0
LINE
  5
D8
  8
0
  6
BYBLOCK
 62
     0
 10
0.0
 20
0.0
 30
0.0
 11
-1.0
 21
-0.26794919
 31
0.0
  0
LINE
  5
D9
  8
0
  6
BYBLOCK
 62
     0
 10
0.0
 20
0.0
 30
0.0
 11
-1.0
 21
0.0
 31
0.0
  0
ENDBLK
  5
DB
  8
0
 62
     7
  0
BLOCK
  8
0
  2
*U6
 70
     1
 10
0.0
 20
0.0
 30
0.0
  3
*U6
  1

  0
TEXT
  5
EB03
  8
MSM_PART_NUMBER
 10
0.0
 20
-3.0
 30
0.0
 40
3.0
  1
BGSZ6802ZZ-25
  0
ENDBLK
  5
EB05
  8
0
  0
BLOCK
  8
0
  2
*U7
 70
     1
 10
0.0
 20
0.0
 30
0.0
  3
*U7
  1

  0
TEXT
  5
EB07
  8
MSM_PART_NUMBER
 10
0.0
 20
-8.0
 30
0.0
 40
3.0
  1
BGSZ6802
  0
ENDBLK
  5
EB09
  8
0
  0
BLOCK
  8
0
  2
*U8
 70
     1
 10
0.0
 20
0.0
 30
0.0
  3
*U8
  1

  0
TEXT
  5
EB0B
  8
MSM_PART_NUMBER
 10
230.78420101418749
 20
4.7390233652656937
 30
0.0
 40
3.0
  1
bgsz6802.dwg
  0
ENDBLK
  5
EB0D
  8
0
  0
ENDSEC
  0
SECTION
  2
ENTITIES
  0
INSERT
  5
DCB4
  8
MSM_CONTINUOUS
  2
*U6
 10
0.0
 20
0.0
 30
0.0
  0
INSERT
  5
DCB5
  8
MSM_CONTINUOUS
  2
*U7
 10
0.0
 20
0.0
 30
0.0
  0
LINE
  5
E231
  8
MSM_CONTINUOUS
  6
CONTINUOUS
 62
     7
 10
22.150000000000009
 20
47.599999999999987
 30
0.0
 11
22.150000000000009
 21
22.399999999999991
 31
0.0
  0
LINE
  5
E232
  8
MSM_CONTINUOUS
  6
CONTINUOUS
 62
     7
 10
17.149999999999999
 20
47.0
 30
0.0
 11
17.149999999999999
 21
22.999999999999972
 31
0.0
  0
LINE
  5
E233
  8
MSM_CONTINUOUS
  6
CONTINUOUS
 62
     7
 10
17.149999999999999
 20
22.999999999999972
 30
0.0
 11
22.150000000000009
 21
23.000000000000021
 31
0.0
  0
LINE
  5
E234
  8
MSM_CENTER
  6
CENTER
 62
     1
 10
7.0000000000000071
 20
54.999999999999993
 30
0.0
 11
20.999999999999989
 21
55.0
 31
0.0
  0
LINE
  5
E235
  8
MSM_CONTINUOUS
  6
CONTINUOUS
 62
     7
 10
18.0
 20
51.0
 30
0.0
 11
13.6
 21
51.0
 31
0.0
  0
LINE
  5
E236
  8
MSM_CONTINUOUS
  6
CONTINUOUS
 62
     7
 10
13.6
 20
59.0
 30
0.0
 11
13.6
 21
51.0
 31
0.0
  0
LINE
  5
E237
  8
MSM_CONTINUOUS
  6
CONTINUOUS
 62
     7
 10
18.0
 20
59.0
 30
0.0
 11
13.6
 21
59.0
 31
0.0
  0
LINE
  5
E238
  8
MSM_CONTINUOUS
  6
CONTINUOUS
 62
     7
 10
10.00000000000003
 20
60.0
 30
0.0
 11
18.0
 21
60.0
 31
0.0
  0
LINE
  5
E239
  8
MSM_CONTINUOUS
  6
CONTINUOUS
 62
     7
 10
0.0000000000000071
 20
50.0
 30
0.0
 11
10.0
 21
50.0
 31
0.0
  0
LINE
  5
E23B
  8
MSM_CONTINUOUS
  6
CONTINUOUS
 62
     7
 10
2.850000000000001
 20
47.599999999999987
 30
0.0
 11
2.850000000000001
 21
22.400000000000009
 31
0.0
  0
LINE
  5
E23C
  8
MSM_CONTINUOUS
  6
CONTINUOUS
 62
     7
 10
0.0000000000000071
 20
20.000000000000011
 30
0.0
 11
0.0000000000000071
 21
50.0
 31
0.0
  0
LINE
  5
E23D
  8
MSM_CENTER
  6
CENTER
 62
     1
 10
-2.999999999999992
 20
35.000000000000021
 30
0.0
 11
28.000000000000021
 21
35.000000000000021
 31
0.0
  0
LINE
  5
E23E
  8
MSM_CONTINUOUS
  6
CONTINUOUS
 62
     7
 10
10.0
 20
17.199999999999999
 30
0.0
 11
13.6
 21
17.199999999999999
 31
0.0
  0
LINE
  5
E23F
  8
MSM_CONTINUOUS
  6
CONTINUOUS
 62
     7
 10
10.0
 20
12.800000000000001
 30
0.0
 11
13.6
 21
12.800000000000001
 31
0.0
  0
LINE
  5
E240
  8
MSM_CONTINUOUS
  6
CONTINUOUS
 62
     7
 10
10.0
 20
10.0
 30
0.0
 11
10.0
 21
20.000000000000011
 31
0.0
  0
LINE
  5
E241
  8
MSM_CONTINUOUS
  6
CONTINUOUS
 62
     7
 10
10.0
 20
10.0
 30
0.0
 11
18.0
 21
10.0
 31
0.0
  0
LINE
  5
E244
  8
MSM_CONTINUOUS
  6
CONTINUOUS
 62
     7
 10
10.0
 20
52.799999999999997
 30
0.0
 11
13.6
 21
52.799999999999997
 31
0.0
  0
LINE
  5
E245
  8
MSM_CONTINUOUS
  6
CONTINUOUS
 62
     7
 10
10.0
 20
57.200000000000003
 30
0.0
 11
13.6
 21
57.200000000000003
 31
0.0
  0
LINE
  5
E246
  8
MSM_CONTINUOUS
  6
CONTINUOUS
 62
     7
 10
10.0
 20
50.0
 30
0.0
 11
10.0
 21
60.0
 31
0.0
  0
LINE
  5
E247
  8
MSM_CONTINUOUS
  6
CONTINUOUS
 62
     7
 10
18.0
 20
11.0
 30
0.0
 11
13.6
 21
11.0
 31
0.0
  0
LINE
  5
E248
  8
MSM_CONTINUOUS
  6
CONTINUOUS
 62
     7
 10
25.0
 20
50.0
 30
0.0
 11
25.0
 21
20.000000000000011
 31
0.0
  0
LINE
  5
E24B
  8
MSM_CONTINUOUS
  6
CONTINUOUS
 62
     7
 10
7.8500000000000014
 20
47.0
 30
0.0
 11
2.850000000000001
 21
47.0
 31
0.0
  0
LINE
  5
E24C
  8
MSM_CONTINUOUS
  6
CONTINUOUS
 62
     7
 10
7.8500000000000014
 20
47.0
 30
0.0
 11
7.8500000000000014
 21
22.999999999999972
 31
0.0
  0
LINE
  5
E24D
  8
MSM_CONTINUOUS
  6
CONTINUOUS
 62
     7
 10
7.8500000000000014
 20
22.999999999999972
 30
0.0
 11
2.850000000000001
 21
23.000000000000021
 31
0.0
  0
LINE
  5
E24E
  8
MSM_CONTINUOUS
  6
CONTINUOUS
 62
     7
 10
7.8500000000000014
 20
25.000000000000021
 30
0.0
 11
17.149999999999999
 21
25.000000000000021
 31
0.0
  0
LINE
  5
E24F
  8
MSM_CONTINUOUS
  6
CONTINUOUS
 62
     7
 10
7.8500000000000014
 20
45.0
 30
0.0
 11
17.149999999999999
 21
45.0
 31
0.0
  0
LINE
  5
E250
  8
MSM_CONTINUOUS
  6
CONTINUOUS
 62
     7
 10
10.0
 20
20.000000000000011
 30
0.0
 11
0.0000000000000071
 21
20.000000000000011
 31
0.0
  0
LINE
  5
E251
  8
MSM_CONTINUOUS
  6
CONTINUOUS
 62
     7
 10
18.0
 20
20.000000000000011
 30
0.0
 11
25.0
 21
20.000000000000011
 31
0.0
  0
LINE
  5
E252
  8
MSM_CONTINUOUS
  6
CONTINUOUS
 62
     7
 10
18.0
 20
10.0
 30
0.0
 11
18.0
 21
20.000000000000011
 31
0.0
  0
LINE
  5
E253
  8
MSM_CENTER
  6
CENTER
 62
     1
 10
6.999999999999992
 20
15.0
 30
0.0
 11
21.0
 21
15.0
 31
0.0
  0
LINE
  5
E254
  8
MSM_CONTINUOUS
  6
CONTINUOUS
 62
     7
 10
13.6
 20
18.999999999999979
 30
0.0
 11
13.6
 21
11.0
 31
0.0
  0
LINE
  5
E255
  8
MSM_CONTINUOUS
  6
CONTINUOUS
 62
     7
 10
18.0
 20
18.999999999999979
 30
0.0
 11
13.6
 21
18.999999999999979
 31
0.0
  0
LINE
  5
E257
  8
MSM_CONTINUOUS
  6
CONTINUOUS
 62
     7
 10
17.149999999999999
 20
47.0
 30
0.0
 11
22.150000000000009
 21
47.0
 31
0.0
  0
LINE
  5
E259
  8
MSM_CONTINUOUS
  6
CONTINUOUS
 62
     7
 10
18.0
 20
50.0
 30
0.0
 11
25.0
 21
50.0
 31
0.0
  0
LINE
  5
E25A
  8
MSM_CONTINUOUS
  6
CONTINUOUS
 62
     7
 10
18.0
 20
60.0
 30
0.0
 11
18.0
 21
50.0
 31
0.0
  0
ARC
  5
E25B
  8
MSM_CONTINUOUS
  6
CONTINUOUS
 62
     7
 10
73.638922948752338
 20
35.000000000000021
 30
0.0
 40
25.0
 50
267.65035228186588
 51
272.34964771813412
  0
ARC
  5
E25C
  8
MSM_CONTINUOUS
  6
CONTINUOUS
 62
     7
 10
73.638922948752338
 20
35.000000000000021
 30
0.0
 40
25.0
 50
357.65035228186588
 51
3.116002856618616
  0
ARC
  5
E25D
  8
MSM_CONTINUOUS
  6
CONTINUOUS
 62
     7
 10
73.638922948752338
 20
35.000000000000021
 30
0.0
 40
25.0
 50
86.883997143381364
 51
93.116002856617797
  0
ARC
  5
E25E
  8
MSM_CONTINUOUS
  6
CONTINUOUS
 62
     7
 10
73.638922948752338
 20
35.000000000000021
 30
0.0
 40
25.0
 50
176.88399714338141
 51
182.34964771813401
  0
LINE
  5
E25F
  8
MSM_CENTER
  6
CENTER
 62
     1
 10
73.638922948752338
 20
63.000000000000007
 30
0.0
 11
73.638922948752338
 21
7.0000000000000142
 31
0.0
  0
LINE
  5
E260
  8
MSM_CONTINUOUS
  6
CONTINUOUS
 62
     7
 10
48.67588477303164
 20
36.358942617445813
 30
0.0
 11
72.279980331306547
 21
59.963038175720691
 31
0.0
  0
LINE
  5
E261
  8
MSM_CONTINUOUS
  6
CONTINUOUS
 62
     7
 10
74.997865566198044
 20
59.963038175720691
 30
0.0
 11
98.601961124473064
 21
36.358942617445813
 31
0.0
  0
LINE
  5
E262
  8
MSM_CONTINUOUS
  6
CONTINUOUS
 62
     7
 10
98.617904077499645
 20
33.975060114109212
 30
0.0
 11
74.66386283464314
 21
10.02101887125276
 31
0.0
  0
LINE
  5
E263
  8
MSM_CONTINUOUS
  6
CONTINUOUS
 62
     7
 10
72.613983062861564
 20
10.02101887125276
 30
0.0
 11
48.659941820005052
 21
33.97506011410924
 31
0.0
  0
CIRCLE
  5
E264
  8
MSM_CONTINUOUS
  6
CONTINUOUS
 62
     7
 10
53.638922948752338
 20
35.000000000000021
 30
0.0
 40
4.0
  0
CIRCLE
  5
E265
  8
MSM_CONTINUOUS
  6
CONTINUOUS
 62
     7
 10
93.638922948752267
 20
35.000000000000021
 30
0.0
 40
2.25
  0
CIRCLE
  5
E266
  8
MSM_CONTINUOUS
  6
CONTINUOUS
 62
     7
 10
93.638922948752267
 20
35.000000000000021
 30
0.0
 40
4.0
  0
CIRCLE
  5
E267
  8
MSM_CONTINUOUS
  6
CONTINUOUS
 62
     7
 10
73.638922948752338
 20
15.0
 30
0.0
 40
4.0000000000000071
  0
CIRCLE
  5
E268
  8
MSM_CENTER
  6
CENTER
 62
     1
 10
73.638922948752338
 20
35.000000000000028
 30
0.0
 40
19.999999999999989
  0
LINE
  5
E26A
  8
MSM_CENTER
  6
CENTER
 62
     1
 10
101.6389229487523
 20
35.000000000000021
 30
0.0
 11
45.638922948752331
 21
35.000000000000021
 31
0.0
  0
CIRCLE
  5
E26B
  8
MSM_CONTINUOUS
  6
CONTINUOUS
 62
     7
 10
73.638922948752338
 20
35.000000000000021
 30
0.0
 40
12.0
  0
CIRCLE
  5
E26D
  8
MSM_CONTINUOUS
  6
CONTINUOUS
 62
     7
 10
73.638922948752338
 20
15.0
 30
0.0
 40
2.2500000000000071
  0
CIRCLE
  5
E26E
  8
MSM_CONTINUOUS
  6
CONTINUOUS
 62
     7
 10
73.638922948752338
 20
55.0
 30
0.0
 40
2.2500000000000071
  0
CIRCLE
  5
E26F
  8
MSM_CONTINUOUS
  6
CONTINUOUS
 62
     7
 10
73.638922948752338
 20
55.0
 30
0.0
 40
4.0000000000000071
  0
CIRCLE
  5
E270
  8
MSM_CONTINUOUS
  6
CONTINUOUS
 62
     7
 10
53.638922948752338
 20
35.000000000000021
 30
0.0
 40
2.25
  0
LINE
  5
E452
  8
MSM_CONTINUOUS
 10
23.350000000000051
 20
45.09999999999998
 30
0.5
 11
22.150000000000009
 21
45.09999999999998
 31
0.5
  0
LINE
  5
E453
  8
MSM_CONTINUOUS
 10
23.350000000000051
 20
28.085646741217531
 30
0.5
 11
22.150000000000009
 21
28.085646741217531
 31
0.5
  0
LINE
  5
E454
  8
MSM_CONTINUOUS
 10
23.350000000000051
 20
23.715131474529031
 30
0.5
 11
22.150000000000009
 21
23.715131474529031
 31
0.5
  0
LINE
  5
E455
  8
MSM_CONTINUOUS
 10
23.500000000000139
 20
47.59999999999998
 30
0.0
 11
23.500000000000139
 21
22.399999999999991
 31
0.0
  0
LINE
  5
E456
  8
MSM_CONTINUOUS
 10
23.500000000000139
 20
47.59999999999998
 30
0.5
 11
22.150000000000009
 21
47.59999999999998
 31
0.5
  0
LINE
  5
E457
  8
MSM_CONTINUOUS
 10
23.500000000000139
 20
22.399999999999991
 30
0.5
 11
22.150000000000009
 21
22.399999999999991
 31
0.5
  0
LINE
  5
E458
  8
MSM_CONTINUOUS
 10
25.0
 20
47.000000000000007
 30
0.0
 11
23.500000000000139
 21
47.000000000000007
 31
0.0
  0
LINE
  5
E459
  8
MSM_CONTINUOUS
 10
25.0
 20
22.999999999999979
 30
0.0
 11
23.500000000000139
 21
22.999999999999979
 31
0.0
  0
LINE
  5
E45A
  8
MSM_CONTINUOUS
 10
23.350000000000051
 20
47.59999999999998
 30
0.0
 11
23.350000000000051
 21
23.715131474529031
 31
0.0
  0
LINE
  5
E57C
  8
MSM_CONTINUOUS
 10
1.649999999999948
 20
45.100000000000001
 30
0.0
 11
2.8499999999999939
 21
45.100000000000001
 31
0.0
  0
LINE
  5
E57D
  8
MSM_CONTINUOUS
 10
1.649999999999948
 20
28.085646741217559
 30
0.0
 11
2.8499999999999939
 21
28.085646741217559
 31
0.0
  0
LINE
  5
E57E
  8
MSM_CONTINUOUS
 10
1.649999999999948
 20
23.715131474529059
 30
0.0
 11
2.8499999999999939
 21
23.715131474529059
 31
0.0
  0
LINE
  5
E580
  8
MSM_CONTINUOUS
 10
1.499999999999857
 20
47.600000000000001
 30
-0.5
 11
1.499999999999857
 21
22.40000000000002
 31
-0.5
  0
LINE
  5
E588
  8
MSM_CONTINUOUS
 10
1.499999999999857
 20
47.600000000000001
 30
0.0
 11
2.8499999999999939
 21
47.600000000000001
 31
0.0
  0
LINE
  5
E589
  8
MSM_CONTINUOUS
 10
1.499999999999857
 20
22.40000000000002
 30
0.0
 11
2.8499999999999939
 21
22.40000000000002
 31
0.0
  0
LINE
  5
E58B
  8
MSM_CONTINUOUS
 10
-0.0000000000001421
 20
47.000000000000043
 30
-0.5
 11
1.499999999999857
 21
47.000000000000043
 31
-0.5
  0
LINE
  5
E58C
  8
MSM_CONTINUOUS
 10
-0.0000000000001421
 20
23.000000000000021
 30
-0.5
 11
1.499999999999857
 21
23.000000000000021
 31
-0.5
  0
LINE
  5
E59B
  8
MSM_CONTINUOUS
 10
1.649999999999948
 20
47.600000000000001
 30
-0.5
 11
1.649999999999948
 21
23.715131474529059
 31
-0.5
  0
CIRCLE
  5
E76C
  8
MSM_CONTINUOUS
 10
73.638922948752338
 20
35.000000000000021
 30
0.0
 40
12.0
  0
ARC
  5
E76D
  8
MSM_CONTINUOUS
 10
78.752748959159476
 20
25.71513147452912
 30
0.0
 40
1.999999999999996
 50
197.96893296389709
 51
249.5286589099826
  0
LINE
  5
E76E
  8
MSM_CONTINUOUS
 10
76.79379149427848
 20
25.272369021162049
 30
0.0
 11
76.850301094532924
 21
25.09812894424487
 31
0.0
  0
ARC
  5
E76F
  8
MSM_CONTINUOUS
 10
78.838922948752156
 20
25.93564674121761
 30
0.0
 40
2.1500000000000008
 50
62.104328028737569
 51
197.96893296389581
  0
ARC
  5
E770
  8
MSM_CONTINUOUS
 10
80.850734084077075
 20
29.735990930338279
 30
0.0
 40
2.1500000000000221
 50
242.1043280287376
 51
327.24878464430731
  0
ARC
  5
E771
  8
MSM_CONTINUOUS
 10
73.638922948752338
 20
34.375000000000071
 30
0.0
 40
10.724999999999991
 50
327.24878464430782
 51
212.7512153556892
  0
ARC
  5
E772
  8
MSM_CONTINUOUS
 10
66.427111813427359
 20
29.735990930338279
 30
0.0
 40
2.1500000000000048
 50
212.75121535569221
 51
297.89567084807959
  0
ARC
  5
E773
  8
MSM_CONTINUOUS
 10
68.438922948752065
 20
25.93564674121761
 30
0.0
 40
2.1499999999999999
 50
342.03106703610632
 51
117.895673094438
  0
LINE
  5
E774
  8
MSM_CONTINUOUS
 10
70.427544802971724
 20
25.09812894424487
 30
0.0
 11
70.484054403225954
 21
25.272369021162049
 31
0.0
  0
ARC
  5
E775
  8
MSM_CONTINUOUS
 10
68.525096938344745
 20
25.71513147452912
 30
0.0
 40
2.0000000000000009
 50
290.47134109002423
 51
342.03106703610632
  0
CIRCLE
  5
E776
  8
MSM_CONTINUOUS
 10
78.838922948752156
 20
25.93564674121761
 30
0.0
 40
1.0
  0
CIRCLE
  5
E777
  8
MSM_CONTINUOUS
 10
68.438922948752065
 20
25.935646741217639
 30
0.0
 40
1.0
  0
CIRCLE
  5
E7A6
  8
MSM_CONTINUOUS
 10
73.638922948752338
 20
35.000000000000021
 30
0.0
 40
14.99999999999998
  0
ENDSEC
  0
EOF
