  0
SECTION
  2
HEADER
  9
$ACADVER
  1
AC1009
  9
$INSBASE
 10
0.0
 20
0.0
 30
0.0
  9
$EXTMIN
 10
-2.9999999999999889
 20
-8.0
 30
-1.25
  9
$EXTMAX
 10
236.60916137431329
 20
127.0
 30
1.25
  9
$LIMMIN
 10
0.0
 20
0.0
  9
$LIMMAX
 10
420.0
 20
297.0
  9
$ORTHOMODE
 70
     1
  9
$REGENMODE
 70
     1
  9
$FILLMODE
 70
     1
  9
$QTEXTMODE
 70
     0
  9
$MIRRTEXT
 70
     0
  9
$DRAGMODE
 70
     2
  9
$LTSCALE
 40
0.5
  9
$OSMODE
 70
   317
  9
$ATTMODE
 70
     1
  9
$TEXTSIZE
 40
3.0
  9
$TRACEWID
 40
1.0
  9
$TEXTSTYLE
  7
STANDARD
  9
$CLAYER
  8
MSM_CONTINUOUS
  9
$CELTYPE
  6
BYLAYER
  9
$CECOLOR
 62
   256
  9
$DIMSCALE
 40
1.0
  9
$DIMASZ
 40
2.5
  9
$DIMEXO
 40
0.625
  9
$DIMDLI
 40
3.75
  9
$DIMRND
 40
0.0
  9
$DIMDLE
 40
0.0
  9
$DIMEXE
 40
1.25
  9
$DIMTP
 40
0.0
  9
$DIMTM
 40
0.0
  9
$DIMTXT
 40
3.0
  9
$DIMCEN
 40
2.5
  9
$DIMTSZ
 40
0.0
  9
$DIMTOL
 70
     0
  9
$DIMLIM
 70
     0
  9
$DIMTIH
 70
     0
  9
$DIMTOH
 70
     0
  9
$DIMSE1
 70
     0
  9
$DIMSE2
 70
     0
  9
$DIMTAD
 70
     1
  9
$DIMZIN
 70
     8
  9
$DIMBLK
  1
OPEN30
  9
$DIMASO
 70
     1
  9
$DIMSHO
 70
     1
  9
$DIMPOST
  1

  9
$DIMAPOST
  1

  9
$DIMALT
 70
     0
  9
$DIMALTD
 70
     3
  9
$DIMALTF
 40
0.03937007874016
  9
$DIMLFAC
 40
1.0
  9
$DIMTOFL
 70
     1
  9
$DIMTVP
 40
0.0
  9
$DIMTIX
 70
     0
  9
$DIMSOXD
 70
     0
  9
$DIMSAH
 70
     0
  9
$DIMBLK1
  1

  9
$DIMBLK2
  1

  9
$DIMSTYLE
  2
MISUMI
  9
$DIMCLRD
 70
   256
  9
$DIMCLRE
 70
   256
  9
$DIMCLRT
 70
   256
  9
$DIMTFAC
 40
1.0
  9
$DIMGAP
 40
0.625
  9
$LUNITS
 70
     2
  9
$LUPREC
 70
     2
  9
$SKETCHINC
 40
1.0
  9
$FILLETRAD
 40
0.0
  9
$AUNITS
 70
     0
  9
$AUPREC
 70
     0
  9
$MENU
  1
.
  9
$ELEVATION
 40
0.0
  9
$PELEVATION
 40
0.0
  9
$THICKNESS
 40
0.0
  9
$LIMCHECK
 70
     0
  9
$BLIPMODE
 70
     0
  9
$CHAMFERA
 40
0.5
  9
$CHAMFERB
 40
0.5
  9
$SKPOLY
 70
     0
  9
$TDCREATE
 40
2455135.5720697111
  9
$TDUPDATE
 40
2457676.598902408
  9
$TDINDWG
 40
0.7232575347
  9
$TDUSRTIMER
 40
2457485.0811431021
  9
$USRTIMER
 70
     1
  9
$ANGBASE
 50
0.0
  9
$ANGDIR
 70
     0
  9
$PDMODE
 70
    35
  9
$PDSIZE
 40
0.0
  9
$PLINEWID
 40
0.0
  9
$COORDS
 70
     1
  9
$SPLFRAME
 70
     0
  9
$SPLINETYPE
 70
     6
  9
$SPLINESEGS
 70
     8
  9
$ATTDIA
 70
     0
  9
$ATTREQ
 70
     1
  9
$HANDLING
 70
     1
  9
$HANDSEED
  5
EC3F
  9
$SURFTAB1
 70
     6
  9
$SURFTAB2
 70
     6
  9
$SURFTYPE
 70
     6
  9
$SURFU
 70
     6
  9
$SURFV
 70
     6
  9
$UCSNAME
  2

  9
$UCSORG
 10
0.0
 20
0.0
 30
0.0
  9
$UCSXDIR
 10
1.0
 20
0.0
 30
0.0
  9
$UCSYDIR
 10
0.0
 20
1.0
 30
0.0
  9
$PUCSNAME
  2

  9
$PUCSORG
 10
0.0
 20
0.0
 30
0.0
  9
$PUCSXDIR
 10
1.0
 20
0.0
 30
0.0
  9
$PUCSYDIR
 10
0.0
 20
1.0
 30
0.0
  9
$USERI1
 70
     0
  9
$USERI2
 70
     0
  9
$USERI3
 70
     0
  9
$USERI4
 70
     0
  9
$USERI5
 70
     0
  9
$USERR1
 40
0.0
  9
$USERR2
 40
0.0
  9
$USERR3
 40
0.0
  9
$USERR4
 40
0.0
  9
$USERR5
 40
0.0
  9
$WORLDVIEW
 70
     1
  9
$SHADEDGE
 70
     3
  9
$SHADEDIF
 70
    70
  9
$TILEMODE
 70
     1
  9
$MAXACTVP
 70
    64
  9
$PLIMCHECK
 70
     0
  9
$PEXTMIN
 10
0.0
 20
0.0
 30
0.0
  9
$PEXTMAX
 10
0.0
 20
0.0
 30
0.0
  9
$PLIMMIN
 10
0.0
 20
0.0
  9
$PLIMMAX
 10
12.0
 20
9.0
  9
$UNITMODE
 70
     0
  9
$VISRETAIN
 70
     1
  9
$PLINEGEN
 70
     0
  9
$PSLTSCALE
 70
     1
  0
ENDSEC
  0
SECTION
  2
TABLES
  0
TABLE
  2
VPORT
 70
     1
  0
VPORT
  2
*ACTIVE
 70
     0
 10
0.0
 20
0.0
 11
1.0
 21
1.0
 12
116.8002531798483
 22
59.5047328940177
 13
0.0
 23
0.0
 14
10.0
 24
10.0
 15
10.0
 25
10.0
 16
0.0
 26
0.0
 36
1.0
 17
0.0
 27
0.0
 37
0.0
 40
135.98664472721731
 41
1.9078947368421051
 42
50.0
 43
0.0
 44
0.0
 50
0.0
 51
0.0
 71
    16
 72
  1000
 73
     1
 74
     3
 75
     0
 76
     0
 77
     0
 78
     0
  0
ENDTAB
  0
TABLE
  2
LTYPE
 70
     2
  0
LTYPE
  2
CONTINUOUS
 70
     0
  3
Solid line
 72
    65
 73
     0
 40
0.0
  0
LTYPE
  2
CENTER
 70
     0
  3
Center ____ _ ____ _ ____ _ ____ _ ____ _ ____
 72
    65
 73
     4
 40
50.799999999999997
 49
31.75
 49
-6.3499999999999988
 49
6.3499999999999988
 49
-6.3499999999999988
  0
ENDTAB
  0
TABLE
  2
LAYER
 70
     6
  0
LAYER
  2
0
 70
     0
 62
     7
  6
CONTINUOUS
  0
LAYER
  2
MSM_CENTER
 70
     0
 62
     1
  6
CENTER
  0
LAYER
  2
MSM_CONTINUOUS
 70
     0
 62
     7
  6
CONTINUOUS
  0
LAYER
  2
MSM_PART_NUMBER
 70
     0
 62
     7
  6
CONTINUOUS
  0
ENDTAB
  0
TABLE
  2
STYLE
 70
     1
  0
STYLE
  2
STANDARD
 70
     0
 40
3.0
 41
1.0
 50
0.0
 71
     0
 42
3.0
  3
txt.shx
  4
bigfont.shx
  0
ENDTAB
  0
TABLE
  2
VIEW
 70
     0
  0
ENDTAB
  0
TABLE
  2
UCS
 70
     0
  0
ENDTAB
  0
TABLE
  2
APPID
 70
    25
  0
APPID
  2
ACAD
 70
     0
  0
APPID
  2
ACAD_MLEADERVER
 70
     0
  0
APPID
  2
ACAD_EXEMPT_FROM_CAD_STANDARDS
 70
     0
  0
APPID
  2
ACDBBLOCKREPETAG
 70
     0
  0
APPID
  2
ACAD_DSTYLE_DIMJOGGED_JOGA
 70
     0
  0
APPID
  2
ACAECLAYERSTANDARD
 70
     0
  0
APPID
  2
GENIUS_GENODEF_13
 70
     0
  0
APPID
  2
GENIUS_GENOBJ-N-FIL_13
 70
     0
  0
APPID
  2
ACAD_PSEXT
 70
     0
  0
APPID
  2
ACAD_DSTYLE_DIMRADIAL_EXTENSION
 70
     0
  0
APPID
  2
ACDBDYNAMICBLOCKTRUENAME
 70
     0
  0
APPID
  2
ACDBDYNAMICBLOCKGUID
 70
     0
  0
APPID
  2
ACDBBLOCKREPBTAG
 70
     0
  0
APPID
  2
ACAUTHENVIRON
 70
     0
  0
APPID
  2
GRADIENTCOLOR1ACI
 70
     0
  0
APPID
  2
GRADIENTCOLOR2ACI
 70
     0
  0
APPID
  2
ACAD_DSTYLE_DIMJAG
 70
     0
  0
APPID
  2
ACAD_DSTYLE_DIMTALN
 70
     0
  0
APPID
  2
ACCMTRANSPARENCY
 70
     0
  0
APPID
  2
ACAD_DSTYLE_DIMBREAK
 70
     0
  0
APPID
  2
ACAD_DSTYLE_DIMFLIPARROW_W
 70
     0
  0
APPID
  2
ACAD_DSTYLE_DIM_LINETYPE
 70
     0
  0
APPID
  2
ACAD_DSTYLE_DIM_EXT1_LINETYPE
 70
     0
  0
APPID
  2
ACAD_DSTYLE_DIM_EXT2_LINETYPE
 70
     0
  0
APPID
  2
ACAD_NAV_VCDISPLAY
 70
     0
  0
ENDTAB
  0
TABLE
  2
DIMSTYLE
 70
     1
  0
DIMSTYLE
  2
MISUMI
 70
     0
  3

  4

  5
OPEN30
  6

  7

 40
1.0
 41
2.5
 42
0.625
 43
3.75
 44
1.25
 45
0.0
 46
0.0
 47
0.0
 48
0.0
140
3.0
141
2.5
142
0.0
143
0.03937007874016
144
1.0
145
0.0
146
1.0
147
0.625
 71
     0
 72
     0
 73
     0
 74
     0
 75
     0
 76
     0
 77
     1
 78
     8
170
     0
171
     3
172
     1
173
     0
174
     0
175
     0
176
   256
177
   256
178
   256
  0
ENDTAB
  0
ENDSEC
  0
SECTION
  2
BLOCKS
  0
BLOCK
  8
0
  2
$MODEL_SPACE
 70
     0
 10
0.0
 20
0.0
 30
0.0
  3
$MODEL_SPACE
  1

  0
ENDBLK
  5
21
  8
0
  0
BLOCK
 67
     1
  8
0
  2
$PAPER_SPACE
 70
     0
 10
0.0
 20
0.0
 30
0.0
  3
$PAPER_SPACE
  1

  0
ENDBLK
  5
EC20
 67
     1
  8
0
  0
BLOCK
  8
0
 62
     7
  2
_OPEN30
 70
     0
 10
0.0
 20
0.0
 30
0.0
  3
_OPEN30
  1

  0
LINE
  5
D7
  8
0
  6
BYBLOCK
 62
     0
 10
-1.0
 20
0.26794919
 30
0.0
 11
0.0
 21
0.0
 31
0.0
  0
LINE
  5
D8
  8
0
  6
BYBLOCK
 62
     0
 10
0.0
 20
0.0
 30
0.0
 11
-1.0
 21
-0.26794919
 31
0.0
  0
LINE
  5
D9
  8
0
  6
BYBLOCK
 62
     0
 10
0.0
 20
0.0
 30
0.0
 11
-1.0
 21
0.0
 31
0.0
  0
ENDBLK
  5
DB
  8
0
 62
     7
  0
BLOCK
  8
0
  2
*U6
 70
     1
 10
0.0
 20
0.0
 30
0.0
  3
*U6
  1

  0
TEXT
  5
EC30
  8
MSM_PART_NUMBER
 10
0.0
 20
-3.0
 30
0.0
 40
3.0
  1
BGSZ6008ZZ-80
  0
ENDBLK
  5
EC32
  8
0
  0
BLOCK
  8
0
  2
*U7
 70
     1
 10
0.0
 20
0.0
 30
0.0
  3
*U7
  1

  0
TEXT
  5
EC34
  8
MSM_PART_NUMBER
 10
0.0
 20
-8.0
 30
0.0
 40
3.0
  1
BGSZ6008
  0
ENDBLK
  5
EC36
  8
0
  0
BLOCK
  8
0
  2
*U8
 70
     1
 10
0.0
 20
0.0
 30
0.0
  3
*U8
  1

  0
TEXT
  5
EC38
  8
MSM_PART_NUMBER
 10
230.78420101418749
 20
4.7390233652656937
 30
0.0
 40
3.0
  1
bgsz6008.dwg
  0
ENDBLK
  5
EC3A
  8
0
  0
ENDSEC
  0
SECTION
  2
ENTITIES
  0
INSERT
  5
DCB4
  8
MSM_CONTINUOUS
  2
*U6
 10
0.0
 20
0.0
 30
0.0
  0
INSERT
  5
DCB5
  8
MSM_CONTINUOUS
  2
*U7
 10
0.0
 20
0.0
 30
0.0
  0
LINE
  5
E352
  8
MSM_CONTINUOUS
 10
119.7460563743133
 20
70.94807800000001
 30
0.0
 11
172.66108337431331
 21
123.863105
 31
0.0
  0
CIRCLE
  5
E353
  8
MSM_CONTINUOUS
 10
128.60916137431329
 20
67.0
 30
0.0
 40
7.0
  0
LINE
  5
E354
  8
MSM_CONTINUOUS
 10
119.7460563743133
 20
63.05192199999999
 30
0.0
 11
172.66108337431331
 21
10.13689499999999
 31
0.0
  0
CIRCLE
  5
E355
  8
MSM_CONTINUOUS
 10
128.60916137431329
 20
67.0
 30
0.0
 40
4.5
  0
LINE
  5
E356
  8
MSM_CENTER
 10
236.60916137431329
 20
67.0
 30
0.0
 11
116.6091613743133
 21
67.0
 31
0.0
  0
LINE
  5
E358
  8
MSM_CONTINUOUS
 10
20.20000000000001
 20
100.0
 30
0.0
 11
20.20000000000001
 21
33.999999999999908
 31
0.0
  0
LINE
  5
E35A
  8
MSM_CONTINUOUS
 10
59.800000000000011
 20
100.0
 30
0.0
 11
59.800000000000011
 21
33.999999999999908
 31
0.0
  0
LINE
  5
E35C
  8
MSM_CONTINUOUS
 10
0.0000000000000107
 20
106.0
 30
0.0
 11
0.0000000000000107
 21
28.0
 31
0.0
  0
LINE
  5
E35D
  8
MSM_CONTINUOUS
 10
80.000000000000028
 20
28.0
 30
0.0
 11
80.000000000000028
 21
106.0
 31
0.0
  0
ARC
  5
E35E
  8
MSM_CONTINUOUS
 10
176.60916137431329
 20
67.0
 30
0.0
 40
57.0
 50
176.02825400000009
 51
183.9717459999998
  0
LINE
  5
E360
  8
MSM_CONTINUOUS
 10
74.800000000000011
 20
31.5
 30
0.0
 11
74.800000000000011
 21
102.5000000000001
 31
0.0
  0
LINE
  5
E361
  8
MSM_CONTINUOUS
 10
5.2000000000000126
 20
31.49999999999989
 30
0.0
 11
5.2000000000000126
 21
102.5
 31
0.0
  0
LINE
  5
E363
  8
MSM_CONTINUOUS
 10
38.000000000000028
 20
28.0
 30
0.0
 11
80.000000000000028
 21
28.0
 31
0.0
  0
LINE
  5
E364
  8
MSM_CONTINUOUS
 10
20.20000000000001
 20
37.0
 30
0.0
 11
59.800000000000011
 21
37.0
 31
0.0
  0
LINE
  5
E365
  8
MSM_CONTINUOUS
 10
25.000000000000028
 20
28.0
 30
0.0
 11
25.000000000000028
 21
10.0
 31
0.0
  0
LINE
  5
E366
  8
MSM_CONTINUOUS
 10
38.000000000000028
 20
10.0
 30
0.0
 11
38.000000000000028
 21
28.0
 31
0.0
  0
LINE
  5
E367
  8
MSM_CONTINUOUS
 10
29.900000000000031
 20
12.0
 30
0.0
 11
29.900000000000031
 21
26.0
 31
0.0
  0
LINE
  5
E369
  8
MSM_CONTINUOUS
 10
38.000000000000028
 20
10.13689499999999
 30
0.0
 11
25.000000000000028
 21
10.13689499999999
 31
0.0
  0
LINE
  5
E36A
  8
MSM_CONTINUOUS
 10
25.000000000000028
 20
10.0
 30
0.0
 11
38.000000000000028
 21
10.0
 31
0.0
  0
LINE
  5
E36B
  8
MSM_CONTINUOUS
 10
38.000000000000028
 20
12.0
 30
0.0
 11
29.900000000000031
 21
12.0
 31
0.0
  0
LINE
  5
E36C
  8
MSM_CONTINUOUS
 10
29.900000000000031
 20
14.5
 30
0.0
 11
25.000000000000028
 21
14.5
 31
0.0
  0
LINE
  5
E36D
  8
MSM_CONTINUOUS
 10
18.254888636947719
 20
42.700009999999793
 30
0.0
 11
15.539005283527811
 21
42.700009999999708
 31
0.0
  0
LINE
  5
E36E
  8
MSM_CONTINUOUS
 10
6.2000000000000126
 20
46.999999999999709
 30
0.0
 11
19.20000000000001
 21
46.999999999999908
 31
0.0
  0
LINE
  5
E36F
  8
MSM_CONTINUOUS
 10
18.22872246583503
 20
38.299999999999812
 30
0.0
 11
15.90312347560922
 21
38.299999999999898
 31
0.0
  0
LINE
  5
E370
  8
MSM_CONTINUOUS
 10
5.2000000000000126
 20
32.999999999999801
 30
0.0
 11
19.20000000000001
 21
32.999999999999801
 31
0.0
  0
LINE
  5
E371
  8
MSM_CONTINUOUS
 10
0.0000000000000107
 20
28.0
 30
0.0
 11
25.000000000000028
 21
28.0
 31
0.0
  0
CIRCLE
  5
E372
  8
MSM_CONTINUOUS
 10
12.70000000000001
 20
40.249999999999602
 30
0.0
 40
3.75
  0
LINE
  5
E373
  8
MSM_CONTINUOUS
 10
5.5420000000000122
 20
39.62591999963621
 30
0.0
 11
5.5420000000000122
 21
42.800009999999901
 31
0.0
  0
LINE
  5
E374
  8
MSM_CONTINUOUS
 10
5.8420000000000227
 20
39.750000000181821
 30
0.0
 11
5.8420000000000227
 21
42.799999999999891
 31
0.0
  0
LINE
  5
E376
  8
MSM_CONTINUOUS
 10
7.1712775341649113
 20
38.299999999999812
 30
0.0
 11
9.4968765243906113
 21
38.299999999999812
 31
0.0
  0
ARC
  5
E378
  8
MSM_CONTINUOUS
 10
6.2000000000000126
 20
33.999999999999801
 30
0.0
 40
1.0
 50
180.0
 51
270.0
  0
LINE
  5
E379
  8
MSM_CONTINUOUS
 10
6.893204617033315
 20
37.228003421560722
 30
0.0
 11
6.9720585402360156
 21
38.117657645878893
 31
0.0
  0
LINE
  5
E37A
  8
MSM_CONTINUOUS
 10
6.942000000000017
 20
38.650009999999902
 30
0.0
 11
5.8420000000000227
 21
39.750000000181821
 31
0.0
  0
ARC
  5
E37B
  8
MSM_CONTINUOUS
 10
6.365274283122015
 20
37.274796183140012
 30
0.0
 40
0.5300000000000003
 50
215.06444677895399
 51
354.93486218463789
  0
LINE
  5
E37C
  8
MSM_CONTINUOUS
 10
5.6999293851200106
 20
37.300190607456301
 30
0.0
 11
5.9314659109496217
 21
36.970312528023499
 31
0.0
  0
LINE
  5
E37D
  8
MSM_CONTINUOUS
 10
5.9460275416345167
 20
37.472026513137713
 30
0.0
 11
6.1770246614954187
 21
37.14291694400481
 31
0.0
  0
ARC
  5
E37E
  8
MSM_CONTINUOUS
 10
6.3652811248910233
 20
37.27505136037621
 30
0.0
 40
0.23
 50
215.064446778953
 51
357.8689206934244
  0
LINE
  5
E37F
  8
MSM_CONTINUOUS
 10
5.4000000000000163
 20
37.299999999999898
 30
0.0
 11
5.7000631696636184
 21
37.299999999999898
 31
0.0
  0
LINE
  5
E380
  8
MSM_CONTINUOUS
 10
6.1910007651481136
 20
37.645034665030892
 30
0.0
 11
5.9460275416345167
 21
37.472026513137713
 31
0.0
  0
ARC
  5
E381
  8
MSM_CONTINUOUS
 10
5.9454812938970143
 20
37.472539846201499
 30
0.0
 40
0.3
 50
124.96230952945869
 51
215.06444677895399
  0
LINE
  5
E382
  8
MSM_CONTINUOUS
 10
6.0190188347942204
 20
37.890023169808607
 30
0.0
 11
5.773570057280021
 21
37.718398599807699
 31
0.0
  0
LINE
  5
E383
  8
MSM_CONTINUOUS
 10
6.0190188347942204
 20
37.890023169808607
 30
0.0
 11
6.1910007651481136
 21
37.645034665030892
 31
0.0
  0
LINE
  5
E384
  8
MSM_CONTINUOUS
 10
6.641987129874618
 20
38.525922869969207
 30
0.0
 11
5.5420000000000122
 21
39.62591999963621
 31
0.0
  0
LINE
  5
E385
  8
MSM_CONTINUOUS
 10
6.5951220499643126
 20
37.26649863207669
 30
0.0
 11
6.641987129874618
 21
38.525922869969207
 31
0.0
  0
ARC
  5
E386
  8
MSM_CONTINUOUS
 10
5.4000000000000163
 20
37.099999999999909
 30
0.0
 40
0.2
 50
90.0
 51
180.0
  0
LINE
  5
E387
  8
MSM_CONTINUOUS
 10
6.942000000000017
 20
37.77901
 30
0.0
 11
6.942000000000017
 21
38.650009999999902
 31
0.0
  0
ARC
  5
E388
  8
MSM_CONTINUOUS
 10
7.1712775341649113
 20
38.099999999999802
 30
0.0
 40
0.2
 50
90.0
 51
174.93486218463789
  0
LINE
  5
E389
  8
MSM_CONTINUOUS
 10
7.145111363052318
 20
42.700009999999708
 30
0.0
 11
9.8609947164720175
 21
42.700009999999708
 31
0.0
  0
ARC
  5
E38A
  8
MSM_CONTINUOUS
 10
6.2000000000000126
 20
45.999999999999723
 30
0.0
 40
1.0
 50
90.0
 51
180.0
  0
LINE
  5
E38B
  8
MSM_CONTINUOUS
 10
6.6338454617903109
 20
43.718511337697493
 30
0.0
 11
6.9572082850210206
 21
42.831508662302213
 31
0.0
  0
LINE
  5
E38C
  8
MSM_CONTINUOUS
 10
6.3620000000000188
 20
43.100009999999713
 30
0.0
 11
6.3620000000000188
 21
42.799999999999891
 31
0.0
  0
ARC
  5
E38D
  8
MSM_CONTINUOUS
 10
5.8420000000000227
 20
42.800009999999901
 30
0.0
 40
0.3
 50
90.0
 51
180.0
  0
ARC
  5
E38E
  8
MSM_CONTINUOUS
 10
6.4459423837590144
 20
43.650009999999888
 30
0.0
 40
0.2
 50
20.02966886428591
 51
90.0
  0
ARC
  5
E38F
  8
MSM_CONTINUOUS
 10
6.270788882525518
 20
43.650009999999888
 30
0.0
 40
0.2
 50
90.0
 51
140.00091992993299
  0
LINE
  5
E390
  8
MSM_CONTINUOUS
 10
5.7999428742183126
 20
43.400009999999888
 30
0.0
 11
6.1175779298267194
 21
43.778565062028399
 31
0.0
  0
LINE
  5
E391
  8
MSM_CONTINUOUS
 10
5.4000000000000163
 20
43.400009999999888
 30
0.0
 11
5.7999428742183126
 21
43.400009999999888
 31
0.0
  0
LINE
  5
E392
  8
MSM_CONTINUOUS
 10
6.270788882525518
 20
43.850009999999912
 30
0.0
 11
6.4459423837590144
 21
43.850009999999912
 31
0.0
  0
LINE
  5
E393
  8
MSM_CONTINUOUS
 10
5.8420000000000227
 20
43.100009999999713
 30
0.0
 11
6.3620000000000188
 21
43.100009999999713
 31
0.0
  0
LINE
  5
E394
  8
MSM_CONTINUOUS
 10
6.3620000000000188
 20
42.799999999999891
 30
0.0
 11
5.8420000000000227
 21
42.799999999999891
 31
0.0
  0
ARC
  5
E395
  8
MSM_CONTINUOUS
 10
5.4000000000000163
 20
43.600009999999713
 30
0.0
 40
0.2
 50
180.0
 51
270.0
  0
ARC
  5
E396
  8
MSM_CONTINUOUS
 10
7.145111363052318
 20
42.90000999999981
 30
0.0
 40
0.2
 50
200.0296688642859
 51
270.0
  0
LINE
  5
E397
  8
MSM_CONTINUOUS
 10
19.55800000000001
 20
39.750000000181821
 30
0.0
 11
19.55800000000001
 21
42.799999999999891
 31
0.0
  0
LINE
  5
E398
  8
MSM_CONTINUOUS
 10
19.858000000000029
 20
39.62591999963621
 30
0.0
 11
19.858000000000029
 21
42.800009999999901
 31
0.0
  0
LINE
  5
E399
  8
MSM_CONTINUOUS
 10
38.000000000000028
 20
26.0
 30
0.0
 11
29.900000000000031
 21
26.0
 31
0.0
  0
LINE
  5
E39A
  8
MSM_CENTER
 10
41.000000000000028
 20
19.0
 30
0.0
 11
22.000000000000021
 21
19.0
 31
0.0
  0
LINE
  5
E39C
  8
MSM_CONTINUOUS
 10
29.900000000000031
 20
23.5
 30
0.0
 11
25.000000000000028
 21
23.5
 31
0.0
  0
ARC
  5
E39D
  8
MSM_CONTINUOUS
 10
19.20000000000001
 20
33.999999999999801
 30
0.0
 40
1.0
 50
270.0
 51
0.0
  0
ARC
  5
E39E
  8
MSM_CONTINUOUS
 10
20.000000000000028
 20
37.099999999999909
 30
0.0
 40
0.2
 50
0.0
 51
90.0
  0
LINE
  5
E39F
  8
MSM_CONTINUOUS
 10
19.700070614879809
 20
37.300190607456301
 30
0.0
 11
19.46853408905022
 21
36.970312528023499
 31
0.0
  0
ARC
  5
E3A0
  8
MSM_CONTINUOUS
 10
19.454518706103009
 20
37.472539846201499
 30
0.0
 40
0.3
 50
324.93555322104538
 51
55.0376904705412
  0
LINE
  5
E3A1
  8
MSM_CONTINUOUS
 10
20.000000000000028
 20
37.299999999999898
 30
0.0
 11
19.69993683033632
 21
37.299999999999898
 31
0.0
  0
LINE
  5
E3A2
  8
MSM_CONTINUOUS
 10
19.380981165205721
 20
37.890023169808607
 30
0.0
 11
19.20899923485171
 21
37.645034665030892
 31
0.0
  0
ARC
  5
E3A3
  8
MSM_CONTINUOUS
 10
19.034718875109
 20
37.27505136037621
 30
0.0
 40
0.23
 50
182.13107930657549
 51
324.935553221048
  0
LINE
  5
E3A4
  8
MSM_CONTINUOUS
 10
18.506795382966509
 20
37.228003421560722
 30
0.0
 11
18.427941459763609
 21
38.117657645878893
 31
0.0
  0
LINE
  5
E3A5
  8
MSM_CONTINUOUS
 10
18.804877950035429
 20
37.26649863207669
 30
0.0
 11
18.758012870124919
 21
38.525922869969207
 31
0.0
  0
ARC
  5
E3A6
  8
MSM_CONTINUOUS
 10
18.22872246583503
 20
38.099999999999802
 30
0.0
 40
0.2
 50
5.0651378153621458
 51
90.0
  0
LINE
  5
E3A7
  8
MSM_CONTINUOUS
 10
18.45800000000002
 20
37.77901
 30
0.0
 11
18.45800000000002
 21
38.650009999999902
 31
0.0
  0
LINE
  5
E3A8
  8
MSM_CONTINUOUS
 10
19.453972458365509
 20
37.472026513137713
 30
0.0
 11
19.222975338504622
 21
37.14291694400481
 31
0.0
  0
LINE
  5
E3A9
  8
MSM_CONTINUOUS
 10
18.45800000000002
 20
38.650009999999902
 30
0.0
 11
19.55800000000001
 21
39.750000000181821
 31
0.0
  0
LINE
  5
E3AA
  8
MSM_CONTINUOUS
 10
19.20899923485171
 20
37.645034665030892
 30
0.0
 11
19.453972458365509
 21
37.472026513137713
 31
0.0
  0
ARC
  5
E3AB
  8
MSM_CONTINUOUS
 10
19.034725716878022
 20
37.274796183140012
 30
0.0
 40
0.5300000000000003
 50
185.06513781536211
 51
324.93555322104601
  0
LINE
  5
E3AC
  8
MSM_CONTINUOUS
 10
18.758012870124919
 20
38.525922869969207
 30
0.0
 11
19.858000000000029
 21
39.62591999963621
 31
0.0
  0
LINE
  5
E3AD
  8
MSM_CONTINUOUS
 10
19.380981165205721
 20
37.890023169808607
 30
0.0
 11
19.626429942720101
 21
37.718398599807699
 31
0.0
  0
ARC
  5
E3AE
  8
MSM_CONTINUOUS
 10
20.000000000000028
 20
43.600009999999713
 30
0.0
 40
0.2
 50
270.0
 51
0.0
  0
LINE
  5
E3AF
  8
MSM_CONTINUOUS
 10
20.000000000000028
 20
43.400009999999888
 30
0.0
 11
19.60005712578171
 21
43.400009999999888
 31
0.0
  0
ARC
  5
E3B0
  8
MSM_CONTINUOUS
 10
19.55800000000001
 20
42.800009999999901
 30
0.0
 40
0.3
 50
0.0
 51
90.0
  0
ARC
  5
E3B1
  8
MSM_CONTINUOUS
 10
19.129211117474512
 20
43.650009999999888
 30
0.0
 40
0.2
 50
39.999080070065837
 51
90.0
  0
ARC
  5
E3B2
  8
MSM_CONTINUOUS
 10
18.254888636947719
 20
42.90000999999981
 30
0.0
 40
0.2
 50
270.0
 51
339.97033113570581
  0
ARC
  5
E3B3
  8
MSM_CONTINUOUS
 10
18.954057616240611
 20
43.650009999999888
 30
0.0
 40
0.2
 50
90.0
 51
159.9703311357149
  0
LINE
  5
E3B4
  8
MSM_CONTINUOUS
 10
19.129211117474512
 20
43.850009999999912
 30
0.0
 11
18.954057616240611
 21
43.850009999999912
 31
0.0
  0
LINE
  5
E3B5
  8
MSM_CONTINUOUS
 10
19.038000000000011
 20
43.100009999999713
 30
0.0
 11
19.038000000000011
 21
42.799999999999891
 31
0.0
  0
LINE
  5
E3B6
  8
MSM_CONTINUOUS
 10
18.76615453820963
 20
43.718511337697493
 30
0.0
 11
18.442791714978821
 21
42.831508662302213
 31
0.0
  0
ARC
  5
E3B7
  8
MSM_CONTINUOUS
 10
19.20000000000001
 20
45.999999999999908
 30
0.0
 40
1.0
 50
0.0
 51
90.0
  0
LINE
  5
E3B8
  8
MSM_CONTINUOUS
 10
19.038000000000011
 20
42.799999999999891
 30
0.0
 11
19.55800000000001
 21
42.799999999999891
 31
0.0
  0
LINE
  5
E3B9
  8
MSM_CONTINUOUS
 10
19.55800000000001
 20
43.100009999999713
 30
0.0
 11
19.038000000000011
 21
43.100009999999713
 31
0.0
  0
LINE
  5
E3BA
  8
MSM_CONTINUOUS
 10
19.60005712578171
 20
43.400009999999888
 30
0.0
 11
19.282422070173219
 21
43.778565062028399
 31
0.0
  0
LINE
  5
E3BB
  8
MSM_CONTINUOUS
 10
74.458000000000027
 20
39.62591999963621
 30
0.0
 11
74.458000000000027
 21
42.800009999999901
 31
0.0
  0
LINE
  5
E3BC
  8
MSM_CONTINUOUS
 10
74.158000000000015
 20
39.750000000181821
 30
0.0
 11
74.158000000000015
 21
42.799999999999891
 31
0.0
  0
LINE
  5
E3BD
  8
MSM_CONTINUOUS
 10
60.442
 20
39.750000000181821
 30
0.0
 11
60.442
 21
42.799999999999891
 31
0.0
  0
LINE
  5
E3BE
  8
MSM_CONTINUOUS
 10
60.142000000000017
 20
39.62591999963621
 30
0.0
 11
60.142000000000017
 21
42.800009999999901
 31
0.0
  0
CIRCLE
  5
E3BF
  8
MSM_CONTINUOUS
 10
67.300000000000011
 20
40.249999999999602
 30
0.0
 40
3.75
  0
LINE
  5
E3C0
  8
MSM_CONTINUOUS
 10
60.800000000000011
 20
32.999999999999801
 30
0.0
 11
74.800000000000011
 21
32.999999999999822
 31
0.0
  0
ARC
  5
E3C1
  8
MSM_CONTINUOUS
 10
60.800000000000011
 20
33.999999999999801
 30
0.0
 40
1.0
 50
180.0
 51
270.0
  0
ARC
  5
E3C2
  8
MSM_CONTINUOUS
 10
61.771277534164909
 20
38.099999999999802
 30
0.0
 40
0.2
 50
90.0
 51
174.93486218463789
  0
LINE
  5
E3C3
  8
MSM_CONTINUOUS
 10
61.54200000000003
 20
37.77901
 30
0.0
 11
61.54200000000003
 21
38.650009999999902
 31
0.0
  0
ARC
  5
E3C4
  8
MSM_CONTINUOUS
 10
60.000000000000028
 20
37.099999999999909
 30
0.0
 40
0.2
 50
90.0
 51
180.0
  0
LINE
  5
E3C5
  8
MSM_CONTINUOUS
 10
61.195122049964311
 20
37.26649863207669
 30
0.0
 11
61.241987129874609
 21
38.525922869969207
 31
0.0
  0
LINE
  5
E3C6
  8
MSM_CONTINUOUS
 10
61.241987129874609
 20
38.525922869969207
 30
0.0
 11
60.142000000000017
 21
39.62591999963621
 31
0.0
  0
LINE
  5
E3C7
  8
MSM_CONTINUOUS
 10
60.619018834794211
 20
37.890023169808607
 30
0.0
 11
60.791000765148112
 21
37.645034665030892
 31
0.0
  0
LINE
  5
E3C8
  8
MSM_CONTINUOUS
 10
60.619018834794211
 20
37.890023169808607
 30
0.0
 11
60.373570057280027
 21
37.718398599807699
 31
0.0
  0
ARC
  5
E3C9
  8
MSM_CONTINUOUS
 10
60.545481293897012
 20
37.472539846201499
 30
0.0
 40
0.3
 50
124.96230952945869
 51
215.06444677895399
  0
LINE
  5
E3CA
  8
MSM_CONTINUOUS
 10
60.791000765148112
 20
37.645034665030892
 30
0.0
 11
60.546027541634508
 21
37.472026513137713
 31
0.0
  0
LINE
  5
E3CB
  8
MSM_CONTINUOUS
 10
60.000000000000028
 20
37.299999999999898
 30
0.0
 11
60.300063169663609
 21
37.299999999999898
 31
0.0
  0
ARC
  5
E3CC
  8
MSM_CONTINUOUS
 10
60.965281124891021
 20
37.27505136037621
 30
0.0
 40
0.23
 50
215.06444677895399
 51
357.8689206934244
  0
LINE
  5
E3CD
  8
MSM_CONTINUOUS
 10
60.546027541634508
 20
37.472026513137713
 30
0.0
 11
60.777024661495432
 21
37.14291694400481
 31
0.0
  0
LINE
  5
E3CE
  8
MSM_CONTINUOUS
 10
60.299929385120009
 20
37.300190607456301
 30
0.0
 11
60.531465910949642
 21
36.970312528023499
 31
0.0
  0
ARC
  5
E3CF
  8
MSM_CONTINUOUS
 10
60.965274283122028
 20
37.274796183140012
 30
0.0
 40
0.5300000000000003
 50
215.06444677895399
 51
354.93486218463789
  0
LINE
  5
E3D0
  8
MSM_CONTINUOUS
 10
61.54200000000003
 20
38.650009999999902
 30
0.0
 11
60.442
 21
39.750000000181821
 31
0.0
  0
LINE
  5
E3D1
  8
MSM_CONTINUOUS
 10
61.493204617033307
 20
37.228003421560722
 30
0.0
 11
61.572058540236007
 21
38.117657645878893
 31
0.0
  0
LINE
  5
E3D2
  8
MSM_CONTINUOUS
 10
61.771277534164909
 20
38.299999999999812
 30
0.0
 11
64.096876524390595
 21
38.299999999999812
 31
0.0
  0
LINE
  5
E3D3
  8
MSM_CONTINUOUS
 10
73.980981165205833
 20
37.890023169808607
 30
0.0
 11
74.226429942720131
 21
37.718398599807699
 31
0.0
  0
LINE
  5
E3D4
  8
MSM_CONTINUOUS
 10
73.358012870124995
 20
38.525922869969207
 30
0.0
 11
74.458000000000027
 21
39.62591999963621
 31
0.0
  0
ARC
  5
E3D5
  8
MSM_CONTINUOUS
 10
73.634725716878023
 20
37.274796183140012
 30
0.0
 40
0.5300000000000003
 50
185.06513781536211
 51
324.93555322104601
  0
LINE
  5
E3D6
  8
MSM_CONTINUOUS
 10
73.808999234851711
 20
37.645034665030892
 30
0.0
 11
74.053972458365493
 21
37.472026513137713
 31
0.0
  0
LINE
  5
E3D7
  8
MSM_CONTINUOUS
 10
73.058000000000021
 20
38.650009999999902
 30
0.0
 11
74.158000000000015
 21
39.750000000181821
 31
0.0
  0
LINE
  5
E3D8
  8
MSM_CONTINUOUS
 10
74.053972458365493
 20
37.472026513137713
 30
0.0
 11
73.822975338504605
 21
37.14291694400481
 31
0.0
  0
ARC
  5
E3D9
  8
MSM_CONTINUOUS
 10
73.800000000000011
 20
33.999999999999801
 30
0.0
 40
1.0
 50
270.0
 51
0.0
  0
LINE
  5
E3DA
  8
MSM_CONTINUOUS
 10
72.828722465835028
 20
38.299999999999812
 30
0.0
 11
70.503123475609314
 21
38.299999999999898
 31
0.0
  0
LINE
  5
E3DB
  8
MSM_CONTINUOUS
 10
73.058000000000021
 20
37.77901
 30
0.0
 11
73.058000000000021
 21
38.650009999999902
 31
0.0
  0
ARC
  5
E3DC
  8
MSM_CONTINUOUS
 10
72.828722465835028
 20
38.099999999999802
 30
0.0
 40
0.2
 50
5.0651378153621458
 51
90.0
  0
LINE
  5
E3DD
  8
MSM_CONTINUOUS
 10
73.404877950035512
 20
37.26649863207669
 30
0.0
 11
73.358012870124995
 21
38.525922869969207
 31
0.0
  0
LINE
  5
E3DE
  8
MSM_CONTINUOUS
 10
73.10679538296651
 20
37.228003421560722
 30
0.0
 11
73.027941459763611
 21
38.117657645878893
 31
0.0
  0
ARC
  5
E3DF
  8
MSM_CONTINUOUS
 10
73.63471887510903
 20
37.27505136037621
 30
0.0
 40
0.23
 50
182.13107930657549
 51
324.935553221048
  0
LINE
  5
E3E0
  8
MSM_CONTINUOUS
 10
73.980981165205833
 20
37.890023169808607
 30
0.0
 11
73.808999234851711
 21
37.645034665030892
 31
0.0
  0
LINE
  5
E3E3
  8
MSM_CONTINUOUS
 10
74.600000000000023
 20
37.299999999999898
 30
0.0
 11
74.299936830336321
 21
37.299999999999898
 31
0.0
  0
ARC
  5
E3E4
  8
MSM_CONTINUOUS
 10
74.054518706103011
 20
37.472539846201499
 30
0.0
 40
0.3
 50
324.93555322104447
 51
55.0376904705412
  0
LINE
  5
E3E5
  8
MSM_CONTINUOUS
 10
74.300070614879814
 20
37.300190607456301
 30
0.0
 11
74.068534089050331
 21
36.970312528023499
 31
0.0
  0
ARC
  5
E3E6
  8
MSM_CONTINUOUS
 10
74.600000000000023
 20
37.099999999999909
 30
0.0
 40
0.2
 50
0.0
 51
90.0
  0
LINE
  5
E3E7
  8
MSM_CONTINUOUS
 10
60.800000000000011
 20
46.999999999999709
 30
0.0
 11
73.800000000000011
 21
46.999999999999908
 31
0.0
  0
ARC
  5
E3E8
  8
MSM_CONTINUOUS
 10
61.745111363052331
 20
42.90000999999981
 30
0.0
 40
0.2
 50
200.0296688642851
 51
270.0
  0
ARC
  5
E3E9
  8
MSM_CONTINUOUS
 10
60.000000000000028
 20
43.600009999999713
 30
0.0
 40
0.2
 50
180.0
 51
270.0
  0
LINE
  5
E3EA
  8
MSM_CONTINUOUS
 10
60.962000000000018
 20
42.799999999999891
 30
0.0
 11
60.442
 21
42.799999999999891
 31
0.0
  0
LINE
  5
E3EB
  8
MSM_CONTINUOUS
 10
60.442
 20
43.100009999999713
 30
0.0
 11
60.962000000000018
 21
43.100009999999713
 31
0.0
  0
LINE
  5
E3EC
  8
MSM_CONTINUOUS
 10
60.870788882525517
 20
43.850009999999912
 30
0.0
 11
61.045942383759012
 21
43.850009999999912
 31
0.0
  0
LINE
  5
E3ED
  8
MSM_CONTINUOUS
 10
60.000000000000028
 20
43.400009999999888
 30
0.0
 11
60.399942874218311
 21
43.400009999999888
 31
0.0
  0
LINE
  5
E3EE
  8
MSM_CONTINUOUS
 10
60.399942874218311
 20
43.400009999999888
 30
0.0
 11
60.717577929826717
 21
43.778565062028399
 31
0.0
  0
ARC
  5
E3EF
  8
MSM_CONTINUOUS
 10
60.870788882525517
 20
43.650009999999888
 30
0.0
 40
0.2
 50
90.0
 51
140.00091992993151
  0
ARC
  5
E3F0
  8
MSM_CONTINUOUS
 10
61.045942383759012
 20
43.650009999999888
 30
0.0
 40
0.2
 50
20.029668864285071
 51
90.0
  0
ARC
  5
E3F1
  8
MSM_CONTINUOUS
 10
60.442
 20
42.800009999999901
 30
0.0
 40
0.3
 50
90.0
 51
180.0
  0
LINE
  5
E3F2
  8
MSM_CONTINUOUS
 10
60.962000000000018
 20
43.100009999999713
 30
0.0
 11
60.962000000000018
 21
42.799999999999891
 31
0.0
  0
LINE
  5
E3F3
  8
MSM_CONTINUOUS
 10
61.23384546179031
 20
43.718511337697493
 30
0.0
 11
61.557208285021026
 21
42.831508662302213
 31
0.0
  0
ARC
  5
E3F4
  8
MSM_CONTINUOUS
 10
60.800000000000011
 20
45.999999999999723
 30
0.0
 40
1.0
 50
90.0
 51
180.0
  0
LINE
  5
E3F5
  8
MSM_CONTINUOUS
 10
61.745111363052331
 20
42.700009999999708
 30
0.0
 11
64.460994716472015
 21
42.700009999999708
 31
0.0
  0
LINE
  5
E3F6
  8
MSM_CONTINUOUS
 10
74.200057125781711
 20
43.400009999999888
 30
0.0
 11
73.88242207017322
 21
43.778565062028399
 31
0.0
  0
LINE
  5
E3F7
  8
MSM_CONTINUOUS
 10
74.158000000000015
 20
43.100009999999713
 30
0.0
 11
73.638000000000034
 21
43.100009999999713
 31
0.0
  0
LINE
  5
E3F8
  8
MSM_CONTINUOUS
 10
73.638000000000034
 20
42.799999999999891
 30
0.0
 11
74.158000000000015
 21
42.799999999999891
 31
0.0
  0
ARC
  5
E3F9
  8
MSM_CONTINUOUS
 10
73.800000000000011
 20
45.999999999999908
 30
0.0
 40
1.0
 50
0.0
 51
90.0
  0
LINE
  5
E3FA
  8
MSM_CONTINUOUS
 10
72.85488863694772
 20
42.700009999999793
 30
0.0
 11
70.139005283527808
 21
42.700009999999708
 31
0.0
  0
LINE
  5
E3FB
  8
MSM_CONTINUOUS
 10
73.366154538209628
 20
43.718511337697493
 30
0.0
 11
73.042791714978932
 21
42.831508662302213
 31
0.0
  0
LINE
  5
E3FC
  8
MSM_CONTINUOUS
 10
73.638000000000034
 20
43.100009999999713
 30
0.0
 11
73.638000000000034
 21
42.799999999999891
 31
0.0
  0
LINE
  5
E3FD
  8
MSM_CONTINUOUS
 10
73.729211117474534
 20
43.850009999999912
 30
0.0
 11
73.554057616240613
 21
43.850009999999912
 31
0.0
  0
ARC
  5
E3FE
  8
MSM_CONTINUOUS
 10
73.554057616240613
 20
43.650009999999888
 30
0.0
 40
0.2
 50
90.0
 51
159.9703311357149
  0
ARC
  5
E3FF
  8
MSM_CONTINUOUS
 10
72.85488863694772
 20
42.90000999999981
 30
0.0
 40
0.2
 50
270.0
 51
339.97033113570581
  0
ARC
  5
E400
  8
MSM_CONTINUOUS
 10
73.729211117474534
 20
43.650009999999888
 30
0.0
 40
0.2
 50
39.999080070065837
 51
90.0
  0
ARC
  5
E401
  8
MSM_CONTINUOUS
 10
74.158000000000015
 20
42.800009999999901
 30
0.0
 40
0.3
 50
0.0
 51
90.0
  0
LINE
  5
E402
  8
MSM_CONTINUOUS
 10
74.600000000000023
 20
43.400009999999888
 30
0.0
 11
74.200057125781711
 21
43.400009999999888
 31
0.0
  0
ARC
  5
E403
  8
MSM_CONTINUOUS
 10
74.600000000000023
 20
43.600009999999713
 30
0.0
 40
0.2
 50
270.0
 51
0.0
  0
LINE
  5
E404
  8
MSM_CONTINUOUS
 10
38.000000000000028
 20
106.0
 30
0.0
 11
80.000000000000028
 21
106.0
 31
0.0
  0
LINE
  5
E405
  8
MSM_CONTINUOUS
 10
20.20000000000001
 20
97.0
 30
0.0
 11
59.800000000000011
 21
97.0
 31
0.0
  0
LINE
  5
E406
  8
MSM_CENTER
 10
-2.9999999999999889
 20
67.0
 30
0.0
 11
83.000000000000014
 21
67.0
 31
0.0
  0
LINE
  5
E407
  8
MSM_CONTINUOUS
 10
25.000000000000028
 20
106.0
 30
0.0
 11
25.000000000000028
 21
124.0
 31
0.0
  0
LINE
  5
E408
  8
MSM_CONTINUOUS
 10
38.000000000000028
 20
124.0
 30
0.0
 11
38.000000000000028
 21
106.0
 31
0.0
  0
LINE
  5
E409
  8
MSM_CONTINUOUS
 10
29.900000000000031
 20
108.0
 30
0.0
 11
29.900000000000031
 21
122.0
 31
0.0
  0
LINE
  5
E40A
  8
MSM_CONTINUOUS
 10
18.22872246583503
 20
95.699999999999974
 30
0.0
 11
15.90312347560922
 21
95.699999999999775
 31
0.0
  0
LINE
  5
E40B
  8
MSM_CONTINUOUS
 10
18.254888636947719
 20
91.299989999999809
 30
0.0
 11
15.539005283527811
 21
91.299989999999895
 31
0.0
  0
LINE
  5
E40C
  8
MSM_CONTINUOUS
 10
5.2000000000000126
 20
101.0000000000001
 30
0.0
 11
19.20000000000001
 21
101.0000000000001
 31
0.0
  0
LINE
  5
E40D
  8
MSM_CONTINUOUS
 10
6.2000000000000126
 20
87.0
 30
0.0
 11
19.20000000000001
 21
86.999999999999716
 31
0.0
  0
LINE
  5
E40E
  8
MSM_CONTINUOUS
 10
0.0000000000000107
 20
106.0
 30
0.0
 11
25.000000000000028
 21
106.0
 31
0.0
  0
LINE
  5
E40F
  8
MSM_CONTINUOUS
 10
5.2000000000000126
 20
67.0
 30
0.0
 11
5.2000000000000126
 21
102.5
 31
0.0
  0
ARC
  5
E412
  8
MSM_CONTINUOUS
 10
6.2000000000000126
 20
88.0
 30
0.0
 40
1.0
 50
180.0
 51
270.0
  0
LINE
  5
E414
  8
MSM_CONTINUOUS
 10
7.1712775341649113
 20
95.699999999999974
 30
0.0
 11
9.4968765243906113
 21
95.699999999999974
 31
0.0
  0
LINE
  5
E415
  8
MSM_CONTINUOUS
 10
7.145111363052318
 20
91.299989999999895
 30
0.0
 11
9.8609947164720175
 21
91.299989999999895
 31
0.0
  0
LINE
  5
E416
  8
MSM_CONTINUOUS
 10
6.5951220499643126
 20
96.733501367923111
 30
0.0
 11
6.641987129874618
 21
95.474077130030594
 31
0.0
  0
LINE
  5
E417
  8
MSM_CONTINUOUS
 10
6.942000000000017
 20
96.220989999999802
 30
0.0
 11
6.942000000000017
 21
95.349989999999906
 31
0.0
  0
LINE
  5
E418
  8
MSM_CONTINUOUS
 10
6.641987129874618
 20
95.474077130030594
 30
0.0
 11
5.5420000000000122
 21
94.374080000363591
 31
0.0
  0
LINE
  5
E419
  8
MSM_CONTINUOUS
 10
6.942000000000017
 20
95.349989999999906
 30
0.0
 11
5.8420000000000227
 21
94.249999999818016
 31
0.0
  0
LINE
  5
E41A
  8
MSM_CONTINUOUS
 10
6.6338454617903109
 20
90.281488662302195
 30
0.0
 11
6.9572082850210206
 21
91.168491337697304
 31
0.0
  0
ARC
  5
E41B
  8
MSM_CONTINUOUS
 10
6.4459423837590144
 20
90.349989999999906
 30
0.0
 40
0.2
 50
269.99999999999591
 51
339.97033113570581
  0
LINE
  5
E41C
  8
MSM_CONTINUOUS
 10
6.3620000000000188
 20
90.899989999999889
 30
0.0
 11
6.3620000000000188
 21
91.199999999999903
 31
0.0
  0
ARC
  5
E41D
  8
MSM_CONTINUOUS
 10
5.4000000000000163
 20
90.399989999999988
 30
0.0
 40
0.2
 50
90.0
 51
180.0
  0
ARC
  5
E41E
  8
MSM_CONTINUOUS
 10
6.270788882525518
 20
90.349989999999906
 30
0.0
 40
0.2
 50
219.99908007006701
 51
270.0
  0
LINE
  5
E41F
  8
MSM_CONTINUOUS
 10
5.7999428742183126
 20
90.599989999999707
 30
0.0
 11
6.1175779298267194
 21
90.221434937971196
 31
0.0
  0
ARC
  5
E420
  8
MSM_CONTINUOUS
 10
5.8420000000000227
 20
91.199989999999687
 30
0.0
 40
0.3
 50
180.0
 51
270.0
  0
LINE
  5
E421
  8
MSM_CONTINUOUS
 10
5.4000000000000163
 20
90.599989999999707
 30
0.0
 11
5.7999428742183126
 21
90.599989999999707
 31
0.0
  0
LINE
  5
E422
  8
MSM_CONTINUOUS
 10
6.270788882525518
 20
90.149989999999875
 30
0.0
 11
6.4459423837590144
 21
90.149989999999875
 31
0.0
  0
LINE
  5
E423
  8
MSM_CONTINUOUS
 10
5.8420000000000227
 20
90.899989999999889
 30
0.0
 11
6.3620000000000188
 21
90.899989999999889
 31
0.0
  0
LINE
  5
E424
  8
MSM_CONTINUOUS
 10
6.3620000000000188
 20
91.199999999999903
 30
0.0
 11
5.8420000000000227
 21
91.199999999999903
 31
0.0
  0
LINE
  5
E425
  8
MSM_CONTINUOUS
 10
5.5420000000000122
 20
94.374080000363591
 30
0.0
 11
5.5420000000000122
 21
91.199989999999687
 31
0.0
  0
LINE
  5
E426
  8
MSM_CONTINUOUS
 10
5.8420000000000227
 20
94.249999999818016
 30
0.0
 11
5.8420000000000227
 21
91.199999999999903
 31
0.0
  0
ARC
  5
E427
  8
MSM_CONTINUOUS
 10
7.145111363052318
 20
91.099989999999906
 30
0.0
 40
0.2
 50
90.0
 51
159.9703311357141
  0
ARC
  5
E428
  8
MSM_CONTINUOUS
 10
6.365274283122015
 20
96.725203816859789
 30
0.0
 40
0.5300000000000003
 50
5.0651378153621467
 51
144.93555322104601
  0
LINE
  5
E429
  8
MSM_CONTINUOUS
 10
6.893204617033315
 20
96.771996578439115
 30
0.0
 11
6.9720585402360156
 21
95.882342354120794
 31
0.0
  0
ARC
  5
E42A
  8
MSM_CONTINUOUS
 10
6.2000000000000126
 20
100.0
 30
0.0
 40
1.0
 50
90.0
 51
180.0
  0
ARC
  5
E42B
  8
MSM_CONTINUOUS
 10
5.4000000000000163
 20
96.899999999999906
 30
0.0
 40
0.2
 50
180.0
 51
269.99999999999591
  0
LINE
  5
E42C
  8
MSM_CONTINUOUS
 10
5.6999293851200106
 20
96.699809392543301
 30
0.0
 11
5.9314659109496217
 21
97.029687471976104
 31
0.0
  0
LINE
  5
E42D
  8
MSM_CONTINUOUS
 10
5.4000000000000163
 20
96.699999999999704
 30
0.0
 11
5.7000631696636184
 21
96.699999999999704
 31
0.0
  0
LINE
  5
E42E
  8
MSM_CONTINUOUS
 10
6.1910007651481136
 20
96.354965334968711
 30
0.0
 11
5.9460275416345167
 21
96.527973486862095
 31
0.0
  0
LINE
  5
E42F
  8
MSM_CONTINUOUS
 10
5.9460275416345167
 20
96.527973486862095
 30
0.0
 11
6.1770246614954187
 21
96.857083055994991
 31
0.0
  0
ARC
  5
E430
  8
MSM_CONTINUOUS
 10
5.9454812938970143
 20
96.527460153798174
 30
0.0
 40
0.3
 50
144.93555322104601
 51
235.03769047054121
  0
ARC
  5
E431
  8
MSM_CONTINUOUS
 10
6.3652811248910233
 20
96.724948639623591
 30
0.0
 40
0.23
 50
2.1310793065755762
 51
144.93555322104689
  0
LINE
  5
E432
  8
MSM_CONTINUOUS
 10
6.0190188347942204
 20
96.109976830191215
 30
0.0
 11
5.773570057280021
 21
96.281601400191988
 31
0.0
  0
LINE
  5
E433
  8
MSM_CONTINUOUS
 10
6.0190188347942204
 20
96.109976830191215
 30
0.0
 11
6.1910007651481136
 21
96.354965334968711
 31
0.0
  0
ARC
  5
E434
  8
MSM_CONTINUOUS
 10
7.1712775341649113
 20
95.900000000000006
 30
0.0
 40
0.2
 50
185.06513781536211
 51
270.0
  0
CIRCLE
  5
E435
  8
MSM_CONTINUOUS
 10
12.70000000000001
 20
93.75
 30
0.0
 40
3.75
  0
ARC
  5
E437
  8
MSM_CONTINUOUS
 10
19.20000000000001
 20
87.999999999999716
 30
0.0
 40
1.0
 50
270.0
 51
0.0
  0
LINE
  5
E438
  8
MSM_CONTINUOUS
 10
38.000000000000028
 20
108.0
 30
0.0
 11
29.900000000000031
 21
108.0
 31
0.0
  0
LINE
  5
E439
  8
MSM_CONTINUOUS
 10
18.804877950035429
 20
96.733501367923111
 30
0.0
 11
18.758012870124919
 21
95.474077130030594
 31
0.0
  0
LINE
  5
E43A
  8
MSM_CONTINUOUS
 10
18.45800000000002
 20
96.220989999999802
 30
0.0
 11
18.45800000000002
 21
95.349989999999906
 31
0.0
  0
ARC
  5
E43B
  8
MSM_CONTINUOUS
 10
20.000000000000028
 20
90.399989999999988
 30
0.0
 40
0.2
 50
0.0
 51
90.0
  0
ARC
  5
E43C
  8
MSM_CONTINUOUS
 10
19.55800000000001
 20
91.199989999999687
 30
0.0
 40
0.3
 50
270.0
 51
0.0
  0
LINE
  5
E43D
  8
MSM_CONTINUOUS
 10
20.000000000000028
 20
90.599989999999707
 30
0.0
 11
19.60005712578171
 21
90.599989999999707
 31
0.0
  0
LINE
  5
E43E
  8
MSM_CONTINUOUS
 10
19.55800000000001
 20
94.249999999818016
 30
0.0
 11
19.55800000000001
 21
91.199999999999903
 31
0.0
  0
LINE
  5
E43F
  8
MSM_CONTINUOUS
 10
19.858000000000029
 20
94.374080000363591
 30
0.0
 11
19.858000000000029
 21
91.199989999999687
 31
0.0
  0
ARC
  5
E440
  8
MSM_CONTINUOUS
 10
19.129211117474512
 20
90.349989999999906
 30
0.0
 40
0.2
 50
270.0
 51
320.00091992993413
  0
LINE
  5
E441
  8
MSM_CONTINUOUS
 10
19.038000000000011
 20
90.899989999999889
 30
0.0
 11
19.038000000000011
 21
91.199999999999903
 31
0.0
  0
LINE
  5
E442
  8
MSM_CONTINUOUS
 10
19.129211117474512
 20
90.149989999999875
 30
0.0
 11
18.954057616240611
 21
90.149989999999875
 31
0.0
  0
ARC
  5
E443
  8
MSM_CONTINUOUS
 10
18.954057616240611
 20
90.349989999999906
 30
0.0
 40
0.2
 50
200.0296688642851
 51
270.0
  0
ARC
  5
E444
  8
MSM_CONTINUOUS
 10
18.254888636947719
 20
91.099989999999906
 30
0.0
 40
0.2
 50
20.029668864285071
 51
90.0
  0
LINE
  5
E445
  8
MSM_CONTINUOUS
 10
18.76615453820963
 20
90.281488662302195
 30
0.0
 11
18.442791714978821
 21
91.168491337697304
 31
0.0
  0
LINE
  5
E446
  8
MSM_CONTINUOUS
 10
18.758012870124919
 20
95.474077130030594
 30
0.0
 11
19.858000000000029
 21
94.374080000363591
 31
0.0
  0
LINE
  5
E447
  8
MSM_CONTINUOUS
 10
18.45800000000002
 20
95.349989999999906
 30
0.0
 11
19.55800000000001
 21
94.249999999818016
 31
0.0
  0
LINE
  5
E448
  8
MSM_CONTINUOUS
 10
19.038000000000011
 20
91.199999999999903
 30
0.0
 11
19.55800000000001
 21
91.199999999999903
 31
0.0
  0
LINE
  5
E449
  8
MSM_CONTINUOUS
 10
19.55800000000001
 20
90.899989999999889
 30
0.0
 11
19.038000000000011
 21
90.899989999999889
 31
0.0
  0
LINE
  5
E44A
  8
MSM_CONTINUOUS
 10
19.60005712578171
 20
90.599989999999707
 30
0.0
 11
19.282422070173219
 21
90.221434937971196
 31
0.0
  0
ARC
  5
E44B
  8
MSM_CONTINUOUS
 10
20.000000000000028
 20
96.899999999999906
 30
0.0
 40
0.2
 50
270.0
 51
0.0
  0
LINE
  5
E44C
  8
MSM_CONTINUOUS
 10
19.700070614879809
 20
96.699809392543301
 30
0.0
 11
19.46853408905022
 21
97.029687471976104
 31
0.0
  0
ARC
  5
E44D
  8
MSM_CONTINUOUS
 10
19.454518706103009
 20
96.527460153798174
 30
0.0
 40
0.3
 50
304.96230952945859
 51
35.064446778954562
  0
LINE
  5
E44E
  8
MSM_CONTINUOUS
 10
20.000000000000028
 20
96.699999999999704
 30
0.0
 11
19.69993683033632
 21
96.699999999999704
 31
0.0
  0
LINE
  5
E44F
  8
MSM_CONTINUOUS
 10
19.380981165205721
 20
96.109976830191215
 30
0.0
 11
19.20899923485171
 21
96.354965334968711
 31
0.0
  0
ARC
  5
E450
  8
MSM_CONTINUOUS
 10
19.034718875109
 20
96.724948639623591
 30
0.0
 40
0.23
 50
35.064446778952053
 51
177.8689206934244
  0
ARC
  5
E451
  8
MSM_CONTINUOUS
 10
18.22872246583503
 20
95.900000000000006
 30
0.0
 40
0.2
 50
270.0
 51
354.93486218463789
  0
LINE
  5
E452
  8
MSM_CONTINUOUS
 10
18.506795382966509
 20
96.771996578439115
 30
0.0
 11
18.427941459763609
 21
95.882342354120794
 31
0.0
  0
ARC
  5
E453
  8
MSM_CONTINUOUS
 10
19.20000000000001
 20
100.0
 30
0.0
 40
1.0
 50
0.0
 51
90.0
  0
LINE
  5
E454
  8
MSM_CONTINUOUS
 10
19.20899923485171
 20
96.354965334968711
 30
0.0
 11
19.453972458365509
 21
96.527973486862095
 31
0.0
  0
LINE
  5
E455
  8
MSM_CONTINUOUS
 10
19.453972458365509
 20
96.527973486862095
 30
0.0
 11
19.222975338504622
 21
96.857083055994991
 31
0.0
  0
ARC
  5
E456
  8
MSM_CONTINUOUS
 10
19.034725716878022
 20
96.725203816859789
 30
0.0
 40
0.5300000000000003
 50
35.064446778954
 51
174.93486218463789
  0
LINE
  5
E457
  8
MSM_CONTINUOUS
 10
19.380981165205721
 20
96.109976830191215
 30
0.0
 11
19.626429942720101
 21
96.281601400191988
 31
0.0
  0
LINE
  5
E458
  8
MSM_CONTINUOUS
 10
29.900000000000031
 20
110.5
 30
0.0
 11
25.000000000000028
 21
110.5
 31
0.0
  0
LINE
  5
E459
  8
MSM_CONTINUOUS
 10
38.000000000000028
 20
123.863105
 30
0.0
 11
25.000000000000028
 21
123.863105
 31
0.0
  0
LINE
  5
E45A
  8
MSM_CONTINUOUS
 10
25.000000000000028
 20
124.0
 30
0.0
 11
38.000000000000028
 21
124.0
 31
0.0
  0
LINE
  5
E45B
  8
MSM_CONTINUOUS
 10
38.000000000000028
 20
122.0
 30
0.0
 11
29.900000000000031
 21
122.0
 31
0.0
  0
LINE
  5
E45C
  8
MSM_CENTER
 10
41.000000000000028
 20
115.0
 30
0.0
 11
22.000000000000021
 21
115.0
 31
0.0
  0
LINE
  5
E45E
  8
MSM_CONTINUOUS
 10
29.900000000000031
 20
119.4999999999999
 30
0.0
 11
25.000000000000028
 21
119.4999999999999
 31
0.0
  0
LINE
  5
E460
  8
MSM_CONTINUOUS
 10
74.800000000000011
 20
102.5000000000001
 30
0.0
 11
74.800000000000011
 21
67.0
 31
0.0
  0
LINE
  5
E462
  8
MSM_CONTINUOUS
 10
60.800000000000011
 20
87.0
 30
0.0
 11
73.800000000000011
 21
86.999999999999716
 31
0.0
  0
ARC
  5
E463
  8
MSM_CONTINUOUS
 10
60.800000000000011
 20
88.0
 30
0.0
 40
1.0
 50
180.0
 51
270.0
  0
ARC
  5
E464
  8
MSM_CONTINUOUS
 10
73.800000000000011
 20
87.999999999999716
 30
0.0
 40
1.0
 50
270.0
 51
0.0
  0
LINE
  5
E465
  8
MSM_CONTINUOUS
 10
60.800000000000011
 20
101.0000000000001
 30
0.0
 11
74.800000000000011
 21
101.0000000000001
 31
0.0
  0
CIRCLE
  5
E466
  8
MSM_CONTINUOUS
 10
67.300000000000011
 20
93.75
 30
0.0
 40
3.75
  0
LINE
  5
E467
  8
MSM_CONTINUOUS
 10
61.54200000000003
 20
96.220989999999802
 30
0.0
 11
61.54200000000003
 21
95.349989999999906
 31
0.0
  0
LINE
  5
E468
  8
MSM_CONTINUOUS
 10
61.195122049964311
 20
96.733501367923111
 30
0.0
 11
61.241987129874609
 21
95.474077130030594
 31
0.0
  0
ARC
  5
E469
  8
MSM_CONTINUOUS
 10
61.745111363052331
 20
91.099989999999906
 30
0.0
 40
0.2
 50
90.0
 51
159.9703311357149
  0
LINE
  5
E46A
  8
MSM_CONTINUOUS
 10
60.442
 20
94.249999999818016
 30
0.0
 11
60.442
 21
91.199999999999903
 31
0.0
  0
LINE
  5
E46B
  8
MSM_CONTINUOUS
 10
60.142000000000017
 20
94.374080000363591
 30
0.0
 11
60.142000000000017
 21
91.199989999999687
 31
0.0
  0
LINE
  5
E46C
  8
MSM_CONTINUOUS
 10
60.962000000000018
 20
91.199999999999903
 30
0.0
 11
60.442
 21
91.199999999999903
 31
0.0
  0
LINE
  5
E46D
  8
MSM_CONTINUOUS
 10
60.442
 20
90.899989999999889
 30
0.0
 11
60.962000000000018
 21
90.899989999999889
 31
0.0
  0
LINE
  5
E46E
  8
MSM_CONTINUOUS
 10
60.870788882525517
 20
90.149989999999875
 30
0.0
 11
61.045942383759012
 21
90.149989999999875
 31
0.0
  0
LINE
  5
E46F
  8
MSM_CONTINUOUS
 10
60.000000000000028
 20
90.599989999999707
 30
0.0
 11
60.399942874218311
 21
90.599989999999707
 31
0.0
  0
ARC
  5
E470
  8
MSM_CONTINUOUS
 10
60.442
 20
91.199989999999687
 30
0.0
 40
0.3
 50
180.0
 51
270.0
  0
LINE
  5
E471
  8
MSM_CONTINUOUS
 10
60.399942874218311
 20
90.599989999999707
 30
0.0
 11
60.717577929826717
 21
90.221434937971196
 31
0.0
  0
ARC
  5
E472
  8
MSM_CONTINUOUS
 10
60.870788882525517
 20
90.349989999999906
 30
0.0
 40
0.2
 50
219.9990800700684
 51
270.0
  0
ARC
  5
E473
  8
MSM_CONTINUOUS
 10
60.000000000000028
 20
90.399989999999988
 30
0.0
 40
0.2
 50
90.0
 51
180.0
  0
LINE
  5
E474
  8
MSM_CONTINUOUS
 10
60.962000000000018
 20
90.899989999999889
 30
0.0
 11
60.962000000000018
 21
91.199999999999903
 31
0.0
  0
ARC
  5
E475
  8
MSM_CONTINUOUS
 10
61.045942383759012
 20
90.349989999999906
 30
0.0
 40
0.2
 50
270.0
 51
339.97033113570581
  0
LINE
  5
E476
  8
MSM_CONTINUOUS
 10
61.23384546179031
 20
90.281488662302195
 30
0.0
 11
61.557208285021026
 21
91.168491337697304
 31
0.0
  0
LINE
  5
E477
  8
MSM_CONTINUOUS
 10
61.54200000000003
 20
95.349989999999906
 30
0.0
 11
60.442
 21
94.249999999818016
 31
0.0
  0
LINE
  5
E478
  8
MSM_CONTINUOUS
 10
61.241987129874609
 20
95.474077130030594
 30
0.0
 11
60.142000000000017
 21
94.374080000363591
 31
0.0
  0
LINE
  5
E479
  8
MSM_CONTINUOUS
 10
61.745111363052331
 20
91.299989999999895
 30
0.0
 11
64.460994716472015
 21
91.299989999999895
 31
0.0
  0
ARC
  5
E47A
  8
MSM_CONTINUOUS
 10
61.771277534164909
 20
95.900000000000006
 30
0.0
 40
0.2
 50
185.06513781536211
 51
270.0
  0
LINE
  5
E47B
  8
MSM_CONTINUOUS
 10
60.619018834794211
 20
96.109976830191215
 30
0.0
 11
60.791000765148112
 21
96.354965334968711
 31
0.0
  0
LINE
  5
E47C
  8
MSM_CONTINUOUS
 10
60.619018834794211
 20
96.109976830191215
 30
0.0
 11
60.373570057280027
 21
96.281601400191988
 31
0.0
  0
ARC
  5
E47D
  8
MSM_CONTINUOUS
 10
60.965281124891021
 20
96.724948639623591
 30
0.0
 40
0.23
 50
2.1310793065755762
 51
144.93555322104601
  0
ARC
  5
E47E
  8
MSM_CONTINUOUS
 10
60.545481293897012
 20
96.527460153798174
 30
0.0
 40
0.3
 50
144.93555322104601
 51
235.03769047054121
  0
LINE
  5
E47F
  8
MSM_CONTINUOUS
 10
60.546027541634508
 20
96.527973486862095
 30
0.0
 11
60.777024661495432
 21
96.857083055994991
 31
0.0
  0
LINE
  5
E480
  8
MSM_CONTINUOUS
 10
60.791000765148112
 20
96.354965334968711
 30
0.0
 11
60.546027541634508
 21
96.527973486862095
 31
0.0
  0
LINE
  5
E481
  8
MSM_CONTINUOUS
 10
60.000000000000028
 20
96.699999999999704
 30
0.0
 11
60.300063169663609
 21
96.699999999999704
 31
0.0
  0
LINE
  5
E482
  8
MSM_CONTINUOUS
 10
60.299929385120009
 20
96.699809392543301
 30
0.0
 11
60.531465910949642
 21
97.029687471976104
 31
0.0
  0
ARC
  5
E483
  8
MSM_CONTINUOUS
 10
60.000000000000028
 20
96.899999999999906
 30
0.0
 40
0.2
 50
180.0
 51
270.0
  0
ARC
  5
E484
  8
MSM_CONTINUOUS
 10
60.800000000000011
 20
100.0
 30
0.0
 40
1.0
 50
90.0
 51
180.0
  0
LINE
  5
E485
  8
MSM_CONTINUOUS
 10
61.493204617033307
 20
96.771996578439115
 30
0.0
 11
61.572058540236007
 21
95.882342354120794
 31
0.0
  0
ARC
  5
E486
  8
MSM_CONTINUOUS
 10
60.965274283122028
 20
96.725203816859789
 30
0.0
 40
0.5300000000000003
 50
5.0651378153621467
 51
144.93555322104601
  0
LINE
  5
E487
  8
MSM_CONTINUOUS
 10
61.771277534164909
 20
95.699999999999974
 30
0.0
 11
64.096876524390595
 21
95.699999999999974
 31
0.0
  0
LINE
  5
E488
  8
MSM_CONTINUOUS
 10
73.980981165205833
 20
96.109976830191215
 30
0.0
 11
74.226429942720131
 21
96.281601400191988
 31
0.0
  0
ARC
  5
E489
  8
MSM_CONTINUOUS
 10
73.634725716878023
 20
96.725203816859789
 30
0.0
 40
0.5300000000000003
 50
35.064446778954
 51
174.93486218463789
  0
LINE
  5
E48A
  8
MSM_CONTINUOUS
 10
74.053972458365493
 20
96.527973486862095
 30
0.0
 11
73.822975338504605
 21
96.857083055994991
 31
0.0
  0
LINE
  5
E48B
  8
MSM_CONTINUOUS
 10
73.808999234851711
 20
96.354965334968711
 30
0.0
 11
74.053972458365493
 21
96.527973486862095
 31
0.0
  0
ARC
  5
E48C
  8
MSM_CONTINUOUS
 10
73.800000000000011
 20
100.0
 30
0.0
 40
1.0
 50
0.0
 51
90.0
  0
LINE
  5
E48D
  8
MSM_CONTINUOUS
 10
74.200057125781711
 20
90.599989999999707
 30
0.0
 11
73.88242207017322
 21
90.221434937971196
 31
0.0
  0
LINE
  5
E48E
  8
MSM_CONTINUOUS
 10
74.158000000000015
 20
90.899989999999889
 30
0.0
 11
73.638000000000034
 21
90.899989999999889
 31
0.0
  0
LINE
  5
E48F
  8
MSM_CONTINUOUS
 10
73.638000000000034
 20
91.199999999999903
 30
0.0
 11
74.158000000000015
 21
91.199999999999903
 31
0.0
  0
LINE
  5
E490
  8
MSM_CONTINUOUS
 10
73.058000000000021
 20
95.349989999999906
 30
0.0
 11
74.158000000000015
 21
94.249999999818016
 31
0.0
  0
LINE
  5
E491
  8
MSM_CONTINUOUS
 10
73.358012870124995
 20
95.474077130030594
 30
0.0
 11
74.458000000000027
 21
94.374080000363591
 31
0.0
  0
LINE
  5
E492
  8
MSM_CONTINUOUS
 10
73.058000000000021
 20
96.220989999999802
 30
0.0
 11
73.058000000000021
 21
95.349989999999906
 31
0.0
  0
LINE
  5
E493
  8
MSM_CONTINUOUS
 10
73.404877950035512
 20
96.733501367923111
 30
0.0
 11
73.358012870124995
 21
95.474077130030594
 31
0.0
  0
LINE
  5
E494
  8
MSM_CONTINUOUS
 10
73.366154538209628
 20
90.281488662302195
 30
0.0
 11
73.042791714978932
 21
91.168491337697304
 31
0.0
  0
LINE
  5
E495
  8
MSM_CONTINUOUS
 10
72.85488863694772
 20
91.299989999999809
 30
0.0
 11
70.139005283527808
 21
91.299989999999895
 31
0.0
  0
ARC
  5
E496
  8
MSM_CONTINUOUS
 10
72.85488863694772
 20
91.099989999999906
 30
0.0
 40
0.2
 50
20.029668864285071
 51
90.0
  0
ARC
  5
E497
  8
MSM_CONTINUOUS
 10
73.554057616240613
 20
90.349989999999906
 30
0.0
 40
0.2
 50
200.0296688642851
 51
270.0
  0
LINE
  5
E498
  8
MSM_CONTINUOUS
 10
73.729211117474534
 20
90.149989999999875
 30
0.0
 11
73.554057616240613
 21
90.149989999999875
 31
0.0
  0
LINE
  5
E499
  8
MSM_CONTINUOUS
 10
73.638000000000034
 20
90.899989999999889
 30
0.0
 11
73.638000000000034
 21
91.199999999999903
 31
0.0
  0
ARC
  5
E49A
  8
MSM_CONTINUOUS
 10
73.729211117474534
 20
90.349989999999906
 30
0.0
 40
0.2
 50
270.0
 51
320.00091992993413
  0
LINE
  5
E49B
  8
MSM_CONTINUOUS
 10
73.10679538296651
 20
96.771996578439115
 30
0.0
 11
73.027941459763611
 21
95.882342354120794
 31
0.0
  0
LINE
  5
E49C
  8
MSM_CONTINUOUS
 10
72.828722465835028
 20
95.699999999999974
 30
0.0
 11
70.503123475609314
 21
95.699999999999775
 31
0.0
  0
ARC
  5
E49D
  8
MSM_CONTINUOUS
 10
72.828722465835028
 20
95.900000000000006
 30
0.0
 40
0.2
 50
270.0
 51
354.93486218463789
  0
ARC
  5
E49E
  8
MSM_CONTINUOUS
 10
73.63471887510903
 20
96.724948639623591
 30
0.0
 40
0.23
 50
35.064446778952053
 51
177.8689206934244
  0
LINE
  5
E49F
  8
MSM_CONTINUOUS
 10
73.980981165205833
 20
96.109976830191215
 30
0.0
 11
73.808999234851711
 21
96.354965334968711
 31
0.0
  0
LINE
  5
E4A0
  8
MSM_CONTINUOUS
 10
74.458000000000027
 20
94.374080000363591
 30
0.0
 11
74.458000000000027
 21
91.199989999999687
 31
0.0
  0
LINE
  5
E4A1
  8
MSM_CONTINUOUS
 10
74.158000000000015
 20
94.249999999818016
 30
0.0
 11
74.158000000000015
 21
91.199999999999903
 31
0.0
  0
LINE
  5
E4A2
  8
MSM_CONTINUOUS
 10
74.600000000000023
 20
90.599989999999707
 30
0.0
 11
74.200057125781711
 21
90.599989999999707
 31
0.0
  0
ARC
  5
E4A3
  8
MSM_CONTINUOUS
 10
74.158000000000015
 20
91.199989999999687
 30
0.0
 40
0.3
 50
270.0
 51
0.0
  0
ARC
  5
E4A4
  8
MSM_CONTINUOUS
 10
74.600000000000023
 20
90.399989999999988
 30
0.0
 40
0.2
 50
0.0
 51
90.0
  0
LINE
  5
E4A6
  8
MSM_CONTINUOUS
 10
74.600000000000023
 20
96.699999999999704
 30
0.0
 11
74.299936830336321
 21
96.699999999999704
 31
0.0
  0
ARC
  5
E4A7
  8
MSM_CONTINUOUS
 10
74.054518706103011
 20
96.527460153798174
 30
0.0
 40
0.3
 50
304.96230952945859
 51
35.064446778955478
  0
LINE
  5
E4A8
  8
MSM_CONTINUOUS
 10
74.300070614879814
 20
96.699809392543301
 30
0.0
 11
74.068534089050331
 21
97.029687471976104
 31
0.0
  0
ARC
  5
E4A9
  8
MSM_CONTINUOUS
 10
74.600000000000023
 20
96.899999999999906
 30
0.0
 40
0.2
 50
270.0
 51
0.0
  0
CIRCLE
  5
E4AB
  8
MSM_CONTINUOUS
 10
176.60916137431329
 20
67.0
 30
0.0
 40
34.0
  0
CIRCLE
  5
E4AC
  8
MSM_CONTINUOUS
 10
176.60916137431329
 20
67.0
 30
0.0
 40
39.0
  0
ARC
  5
E4AE
  8
MSM_CONTINUOUS
 10
176.60916137431329
 20
67.0
 30
0.0
 40
57.0
 50
356.02825400000017
 51
3.9717459999998299
  0
CIRCLE
  5
E4AF
  8
MSM_CONTINUOUS
 10
224.60916137431329
 20
67.0
 30
0.0
 40
4.5
  0
CIRCLE
  5
E4B0
  8
MSM_CONTINUOUS
 10
224.60916137431329
 20
67.0
 30
0.0
 40
7.0
  0
LINE
  5
E4B3
  8
MSM_CENTER
 10
176.60916137431329
 20
127.0
 30
0.0
 11
176.60916137431329
 21
7.0
 31
0.0
  0
LINE
  5
E4B4
  8
MSM_CONTINUOUS
 10
233.47226637431319
 20
63.05192199999999
 30
0.0
 11
180.55723937431321
 21
10.13689499999999
 31
0.0
  0
CIRCLE
  5
E4B5
  8
MSM_CONTINUOUS
 10
176.60916137431329
 20
19.0
 30
0.0
 40
7.0
  0
CIRCLE
  5
E4B6
  8
MSM_CONTINUOUS
 10
176.60916137431329
 20
19.0
 30
0.0
 40
4.5
  0
ARC
  5
E4B7
  8
MSM_CONTINUOUS
 10
176.60916137431329
 20
67.0
 30
0.0
 40
57.0
 50
266.02825399999989
 51
273.97174599999983
  0
LINE
  5
E4B9
  8
MSM_CONTINUOUS
 10
233.47226637431319
 20
70.94807800000001
 30
0.0
 11
180.55723937431321
 21
123.863105
 31
0.0
  0
CIRCLE
  5
E4BA
  8
MSM_CONTINUOUS
 10
176.60916137431329
 20
115.0
 30
0.0
 40
4.5
  0
CIRCLE
  5
E4BB
  8
MSM_CONTINUOUS
 10
176.60916137431329
 20
115.0
 30
0.0
 40
7.0
  0
ARC
  5
E4BD
  8
MSM_CONTINUOUS
 10
176.60916137431329
 20
67.0
 30
0.0
 40
57.0
 50
86.028254000000189
 51
93.971745999999811
  0
CIRCLE
  5
E6C9
  8
MSM_CONTINUOUS
 10
176.60916137431329
 20
67.0
 30
0.0
 40
20.0
  0
ARC
  5
E6CA
  8
MSM_CONTINUOUS
 10
189.17734026867711
 20
36.487037520436282
 30
0.0
 40
2.4999999999999858
 50
198.0418335409675
 51
223.990114508408
  0
LINE
  5
E6CB
  8
MSM_CONTINUOUS
 10
186.39108800890281
 20
36.96895087887367
 30
0.0
 11
186.8002636704272
 21
35.712759246137807
 31
0.0
  0
ARC
  5
E6CC
  8
MSM_CONTINUOUS
 10
189.90916137431299
 20
38.114882724835638
 30
0.0
 40
3.6999999999999971
 50
57.535890254369662
 51
198.0418335409743
  0
ARC
  5
E6CD
  8
MSM_CONTINUOUS
 10
193.88126796066891
 20
44.358468975271421
 30
0.0
 40
3.700000000000069
 50
237.53589563633309
 51
309.2479778015948
  0
ARC
  5
E6CE
  8
MSM_CONTINUOUS
 10
176.60916137431329
 20
65.500000000000114
 30
0.0
 40
31.0
 50
309.24797041760729
 51
230.7520298407502
  0
ARC
  5
E6CF
  8
MSM_CONTINUOUS
 10
159.33705478795741
 20
44.358468975271187
 30
0.0
 40
3.7000000000000051
 50
230.7520317470177
 51
302.46410532787428
  0
ARC
  5
E6D0
  8
MSM_CONTINUOUS
 10
163.30916137431311
 20
38.114882724835638
 30
0.0
 40
3.6999999999999988
 50
341.95816645902562
 51
122.4641087814188
  0
LINE
  5
E6D1
  8
MSM_CONTINUOUS
 10
166.41805907819929
 20
35.712759246137807
 30
0.0
 11
166.82723473972339
 21
36.96895087887367
 31
0.0
  0
ARC
  5
E6D2
  8
MSM_CONTINUOUS
 10
164.04098247994889
 20
36.487037520436282
 30
0.0
 40
2.5000000000000022
 50
316.00988549159939
 51
341.95816645903068
  0
CIRCLE
  5
E6D3
  8
MSM_CONTINUOUS
 10
189.90916137431299
 20
38.114882724835638
 30
0.0
 40
1.25
  0
CIRCLE
  5
E6D4
  8
MSM_CONTINUOUS
 10
163.30916137431311
 20
38.114882724835638
 30
0.0
 40
1.25
  0
LINE
  5
E6D5
  8
MSM_CONTINUOUS
 10
74.800000000000011
 20
41.814882724835677
 30
1.25
 11
77.300000000000011
 21
41.814882724835677
 31
1.25
  0
LINE
  5
E6D6
  8
MSM_CONTINUOUS
 10
74.800000000000011
 20
96.500000000000114
 30
1.25
 11
77.300000000000011
 21
96.500000000000114
 31
1.25
  0
LINE
  5
E6D7
  8
MSM_CONTINUOUS
 10
74.800000000000011
 20
102.5000000000001
 30
1.25
 11
77.500000000000057
 21
102.5000000000001
 31
1.25
  0
LINE
  5
E6D8
  8
MSM_CONTINUOUS
 10
77.300000000000011
 20
102.5000000000001
 30
0.75
 11
77.300000000000011
 21
33.987037520436282
 31
0.75
  0
LINE
  5
E6D9
  8
MSM_CONTINUOUS
 10
77.300000000000011
 20
33.987037520436282
 30
0.75
 11
74.800000000000011
 21
33.987037520436282
 31
0.75
  0
LINE
  5
E6DA
  8
MSM_CONTINUOUS
 10
74.800000000000011
 20
31.5
 30
1.25
 11
77.500000000000057
 21
31.5
 31
1.25
  0
LINE
  5
E6DB
  8
MSM_CONTINUOUS
 10
77.500000000000057
 20
102.5000000000001
 30
0.0
 11
77.500000000000057
 21
31.5
 31
0.0
  0
LINE
  5
E6DC
  8
MSM_CONTINUOUS
 10
77.500000000000057
 20
101.0
 30
1.25
 11
80.000000000000014
 21
101.0
 31
1.25
  0
LINE
  5
E6DD
  8
MSM_CONTINUOUS
 10
77.500000000000057
 20
33.0
 30
1.25
 11
80.000000000000014
 21
33.000000000000021
 31
1.25
  0
LINE
  5
E7FD
  8
MSM_CONTINUOUS
 10
5.2000000000000268
 20
41.81488272483557
 30
0.0
 11
2.7000000000000268
 21
41.81488272483557
 31
0.0
  0
LINE
  5
E7FE
  8
MSM_CONTINUOUS
 10
5.2000000000000268
 20
96.5
 30
0.0
 11
2.7000000000000268
 21
96.5
 31
0.0
  0
LINE
  5
E7FF
  8
MSM_CONTINUOUS
 10
5.2000000000000268
 20
102.5
 30
0.0
 11
2.4999999999999818
 21
102.5
 31
0.0
  0
LINE
  5
E800
  8
MSM_CONTINUOUS
 10
2.7000000000000268
 20
102.5
 30
-0.5
 11
2.7000000000000268
 21
33.987037520436161
 31
-0.5
  0
LINE
  5
E801
  8
MSM_CONTINUOUS
 10
2.7000000000000268
 20
33.987037520436161
 30
-0.5
 11
5.2000000000000268
 21
33.987037520436161
 31
-0.5
  0
LINE
  5
E803
  8
MSM_CONTINUOUS
 10
5.2000000000000268
 20
31.49999999999989
 30
0.0
 11
2.4999999999999818
 21
31.49999999999989
 31
0.0
  0
LINE
  5
E804
  8
MSM_CONTINUOUS
 10
5.2000000000000268
 20
102.5
 30
-1.25
 11
5.2000000000000268
 21
31.49999999999989
 31
-1.25
  0
LINE
  5
E805
  8
MSM_CONTINUOUS
 10
2.4999999999999818
 20
102.5
 30
-1.25
 11
2.4999999999999818
 21
31.49999999999989
 31
-1.25
  0
LINE
  5
E80C
  8
MSM_CONTINUOUS
 10
2.4999999999999818
 20
100.9999999999999
 30
0.0
 11
-0.0000000000000178
 21
100.9999999999999
 31
0.0
  0
LINE
  5
E80D
  8
MSM_CONTINUOUS
 10
2.4999999999999818
 20
32.999999999999893
 30
0.0
 11
-0.0000000000000178
 21
32.999999999999893
 31
0.0
  0
CIRCLE
  5
E8A9
  8
MSM_CENTER
 10
176.60916137431329
 20
67.0
 30
0.0
 40
48.0
  0
ENDSEC
  0
EOF
