  0
SECTION
  2
HEADER
  9
$ACADVER
  1
AC1009
  9
$INSBASE
 10
0.0
 20
0.0
 30
0.0
  9
$EXTMIN
 10
-0.0091078716189941
 20
-8.0093071512054621
 30
-0.0015258207003583
  9
$EXTMAX
 10
135.925676819279
 20
118.46125843685731
 30
0.0000000349246037
  9
$LIMMIN
 10
0.0
 20
0.0
  9
$LIMMAX
 10
420.0
 20
297.0
  9
$ORTHOMODE
 70
     0
  9
$REGENMODE
 70
     1
  9
$FILLMODE
 70
     1
  9
$QTEXTMODE
 70
     0
  9
$MIRRTEXT
 70
     0
  9
$DRAGMODE
 70
     2
  9
$LTSCALE
 40
0.5
  9
$OSMODE
 70
  3071
  9
$ATTMODE
 70
     1
  9
$TEXTSIZE
 40
3.0
  9
$TRACEWID
 40
1.0
  9
$TEXTSTYLE
  7
STANDARD
  9
$CLAYER
  8
MSM_CONTINUOUS
  9
$CELTYPE
  6
BYLAYER
  9
$CECOLOR
 62
   256
  9
$DIMSCALE
 40
1.0
  9
$DIMASZ
 40
2.5
  9
$DIMEXO
 40
0.625
  9
$DIMDLI
 40
3.75
  9
$DIMRND
 40
0.0
  9
$DIMDLE
 40
0.0
  9
$DIMEXE
 40
1.25
  9
$DIMTP
 40
0.0
  9
$DIMTM
 40
0.0
  9
$DIMTXT
 40
3.0
  9
$DIMCEN
 40
2.5
  9
$DIMTSZ
 40
0.0
  9
$DIMTOL
 70
     0
  9
$DIMLIM
 70
     0
  9
$DIMTIH
 70
     0
  9
$DIMTOH
 70
     0
  9
$DIMSE1
 70
     0
  9
$DIMSE2
 70
     0
  9
$DIMTAD
 70
     1
  9
$DIMZIN
 70
     8
  9
$DIMBLK
  1
OPEN30
  9
$DIMASO
 70
     1
  9
$DIMSHO
 70
     1
  9
$DIMPOST
  1

  9
$DIMAPOST
  1

  9
$DIMALT
 70
     0
  9
$DIMALTD
 70
     3
  9
$DIMALTF
 40
0.03937007874016
  9
$DIMLFAC
 40
1.0
  9
$DIMTOFL
 70
     1
  9
$DIMTVP
 40
0.0
  9
$DIMTIX
 70
     0
  9
$DIMSOXD
 70
     0
  9
$DIMSAH
 70
     0
  9
$DIMBLK1
  1

  9
$DIMBLK2
  1

  9
$DIMSTYLE
  2
MISUMI
  9
$DIMCLRD
 70
   256
  9
$DIMCLRE
 70
   256
  9
$DIMCLRT
 70
   256
  9
$DIMTFAC
 40
1.0
  9
$DIMGAP
 40
0.625
  9
$LUNITS
 70
     2
  9
$LUPREC
 70
     2
  9
$SKETCHINC
 40
1.0
  9
$FILLETRAD
 40
0.0
  9
$AUNITS
 70
     0
  9
$AUPREC
 70
     0
  9
$MENU
  1
.
  9
$ELEVATION
 40
0.0
  9
$PELEVATION
 40
0.0
  9
$THICKNESS
 40
0.0
  9
$LIMCHECK
 70
     0
  9
$BLIPMODE
 70
     0
  9
$CHAMFERA
 40
0.5
  9
$CHAMFERB
 40
0.5
  9
$SKPOLY
 70
     0
  9
$TDCREATE
 40
2455135.5720697111
  9
$TDUPDATE
 40
2458143.6405226039
  9
$TDINDWG
 40
0.7068752894
  9
$TDUSRTIMER
 40
2458143.1873280909
  9
$USRTIMER
 70
     1
  9
$ANGBASE
 50
0.0
  9
$ANGDIR
 70
     0
  9
$PDMODE
 70
    35
  9
$PDSIZE
 40
0.0
  9
$PLINEWID
 40
0.0
  9
$COORDS
 70
     0
  9
$SPLFRAME
 70
     0
  9
$SPLINETYPE
 70
     6
  9
$SPLINESEGS
 70
     8
  9
$ATTDIA
 70
     0
  9
$ATTREQ
 70
     1
  9
$HANDLING
 70
     1
  9
$HANDSEED
  5
F0CE
  9
$SURFTAB1
 70
     6
  9
$SURFTAB2
 70
     6
  9
$SURFTYPE
 70
     6
  9
$SURFU
 70
     6
  9
$SURFV
 70
     6
  9
$UCSNAME
  2

  9
$UCSORG
 10
0.0
 20
0.0
 30
0.0
  9
$UCSXDIR
 10
1.0
 20
0.0
 30
0.0
  9
$UCSYDIR
 10
0.0
 20
1.0
 30
0.0
  9
$PUCSNAME
  2

  9
$PUCSORG
 10
0.0
 20
0.0
 30
0.0
  9
$PUCSXDIR
 10
1.0
 20
0.0
 30
0.0
  9
$PUCSYDIR
 10
0.0
 20
1.0
 30
0.0
  9
$USERI1
 70
     0
  9
$USERI2
 70
     0
  9
$USERI3
 70
     0
  9
$USERI4
 70
     0
  9
$USERI5
 70
     0
  9
$USERR1
 40
0.0
  9
$USERR2
 40
0.0
  9
$USERR3
 40
0.0
  9
$USERR4
 40
0.0
  9
$USERR5
 40
0.0
  9
$WORLDVIEW
 70
     1
  9
$SHADEDGE
 70
     3
  9
$SHADEDIF
 70
    70
  9
$TILEMODE
 70
     1
  9
$MAXACTVP
 70
    64
  9
$PLIMCHECK
 70
     0
  9
$PEXTMIN
 10
0.0
 20
0.0
 30
0.0
  9
$PEXTMAX
 10
0.0
 20
0.0
 30
0.0
  9
$PLIMMIN
 10
0.0
 20
0.0
  9
$PLIMMAX
 10
12.0
 20
9.0
  9
$UNITMODE
 70
     0
  9
$VISRETAIN
 70
     1
  9
$PLINEGEN
 70
     0
  9
$PSLTSCALE
 70
     1
  0
ENDSEC
  0
SECTION
  2
TABLES
  0
TABLE
  2
VPORT
 70
     1
  0
VPORT
  2
*ACTIVE
 70
     0
 10
0.0
 20
0.0
 11
1.0
 21
1.0
 12
67.958284473830005
 22
55.225975642825908
 13
0.0
 23
0.0
 14
10.0
 24
10.0
 15
10.0
 25
10.0
 16
0.0
 26
0.0
 36
1.0
 17
0.0
 27
0.0
 37
0.0
 40
127.4863934241114
 41
2.0898123324396778
 42
50.0
 43
0.0
 44
0.0
 50
0.0
 51
0.0
 71
    16
 72
  1000
 73
     1
 74
     3
 75
     0
 76
     0
 77
     0
 78
     0
  0
ENDTAB
  0
TABLE
  2
LTYPE
 70
     4
  0
LTYPE
  2
CONTINUOUS
 70
     0
  3
Solid line
 72
    65
 73
     0
 40
0.0
  0
LTYPE
  2
CENTER
 70
     0
  3
Center ____ _ ____ _ ____ _ ____ _ ____ _ ____
 72
    65
 73
     4
 40
50.799999999999997
 49
31.75
 49
-6.3499999999999988
 49
6.3499999999999988
 49
-6.3499999999999988
  0
LTYPE
  2
DASHED
 70
     0
  3
Dashed __ __ __ __ __ __ __ __ __ __ __ __ __ _
 72
    65
 73
     2
 40
19.050000000000001
 49
12.699999999999999
 49
-6.3499999999999988
  0
LTYPE
  2
PHANTOM
 70
     0
  3
Phantom ______  __  __  ______  __  __  ______
 72
    65
 73
     6
 40
63.5
 49
31.75
 49
-6.3499999999999988
 49
6.3499999999999988
 49
-6.3499999999999988
 49
6.3499999999999988
 49
-6.3499999999999988
  0
ENDTAB
  0
TABLE
  2
LAYER
 70
     8
  0
LAYER
  2
0
 70
     0
 62
     7
  6
CONTINUOUS
  0
LAYER
  2
MSM_CENTER
 70
     0
 62
     1
  6
CENTER
  0
LAYER
  2
MSM_CONTINUOUS
 70
     0
 62
     7
  6
CONTINUOUS
  0
LAYER
  2
MSM_DASHED
 70
     0
 62
     4
  6
DASHED
  0
LAYER
  2
MSM_IMAGINARY
 70
     0
 62
     6
  6
PHANTOM
  0
LAYER
  2
MSM_PART_NUMBER
 70
     0
 62
     7
  6
CONTINUOUS
  0
ENDTAB
  0
TABLE
  2
STYLE
 70
     1
  0
STYLE
  2
STANDARD
 70
     0
 40
3.0
 41
1.0
 50
0.0
 71
     0
 42
3.0
  3
txt.shx
  4
bigfont.shx
  0
ENDTAB
  0
TABLE
  2
VIEW
 70
     0
  0
ENDTAB
  0
TABLE
  2
UCS
 70
     0
  0
ENDTAB
  0
TABLE
  2
APPID
 70
    25
  0
APPID
  2
ACAD
 70
     0
  0
APPID
  2
ACAD_MLEADERVER
 70
     0
  0
APPID
  2
ACAD_EXEMPT_FROM_CAD_STANDARDS
 70
     0
  0
APPID
  2
ACDBBLOCKREPETAG
 70
     0
  0
APPID
  2
ACAD_DSTYLE_DIMJOGGED_JOGA
 70
     0
  0
APPID
  2
ACAECLAYERSTANDARD
 70
     0
  0
APPID
  2
GENIUS_GENODEF_13
 70
     0
  0
APPID
  2
GENIUS_GENOBJ-N-FIL_13
 70
     0
  0
APPID
  2
ACAD_PSEXT
 70
     0
  0
APPID
  2
ACAD_DSTYLE_DIMRADIAL_EXTENSION
 70
     0
  0
APPID
  2
ACDBDYNAMICBLOCKTRUENAME
 70
     0
  0
APPID
  2
ACDBDYNAMICBLOCKGUID
 70
     0
  0
APPID
  2
ACDBBLOCKREPBTAG
 70
     0
  0
APPID
  2
ACAUTHENVIRON
 70
     0
  0
APPID
  2
GRADIENTCOLOR1ACI
 70
     0
  0
APPID
  2
GRADIENTCOLOR2ACI
 70
     0
  0
APPID
  2
ACAD_DSTYLE_DIMJAG
 70
     0
  0
APPID
  2
ACAD_DSTYLE_DIMTALN
 70
     0
  0
APPID
  2
ACCMTRANSPARENCY
 70
     0
  0
APPID
  2
ACAD_DSTYLE_DIMBREAK
 70
     0
  0
APPID
  2
ACAD_DSTYLE_DIMFLIPARROW_W
 70
     0
  0
APPID
  2
ACAD_DSTYLE_DIM_LINETYPE
 70
     0
  0
APPID
  2
ACAD_DSTYLE_DIM_EXT1_LINETYPE
 70
     0
  0
APPID
  2
ACAD_DSTYLE_DIM_EXT2_LINETYPE
 70
     0
  0
APPID
  2
ACAD_NAV_VCDISPLAY
 70
     0
  0
ENDTAB
  0
TABLE
  2
DIMSTYLE
 70
     1
  0
DIMSTYLE
  2
MISUMI
 70
     0
  3

  4

  5
OPEN30
  6

  7

 40
1.0
 41
2.5
 42
0.625
 43
3.75
 44
1.25
 45
0.0
 46
0.0
 47
0.0
 48
0.0
140
3.0
141
2.5
142
0.0
143
0.03937007874016
144
1.0
145
0.0
146
1.0
147
0.625
 71
     0
 72
     0
 73
     0
 74
     0
 75
     0
 76
     0
 77
     1
 78
     8
170
     0
171
     3
172
     1
173
     0
174
     0
175
     0
176
   256
177
   256
178
   256
  0
ENDTAB
  0
ENDSEC
  0
SECTION
  2
BLOCKS
  0
BLOCK
  8
0
  2
$MODEL_SPACE
 70
     0
 10
0.0
 20
0.0
 30
0.0
  3
$MODEL_SPACE
  1

  0
ENDBLK
  5
21
  8
0
  0
BLOCK
 67
     1
  8
0
  2
$PAPER_SPACE
 70
     0
 10
0.0
 20
0.0
 30
0.0
  3
$PAPER_SPACE
  1

  0
ENDBLK
  5
EFAE
 67
     1
  8
0
  0
BLOCK
  8
0
 62
     7
  2
_OPEN30
 70
     0
 10
0.0
 20
0.0
 30
0.0
  3
_OPEN30
  1

  0
LINE
  5
D7
  8
0
  6
BYBLOCK
 62
     0
 10
-1.0
 20
0.26794919
 30
0.0
 11
0.0
 21
0.0
 31
0.0
  0
LINE
  5
D8
  8
0
  6
BYBLOCK
 62
     0
 10
0.0
 20
0.0
 30
0.0
 11
-1.0
 21
-0.26794919
 31
0.0
  0
LINE
  5
D9
  8
0
  6
BYBLOCK
 62
     0
 10
0.0
 20
0.0
 30
0.0
 11
-1.0
 21
0.0
 31
0.0
  0
ENDBLK
  5
DB
  8
0
 62
     7
  0
BLOCK
  8
0
  2
*U80
 70
     1
 10
0.0
 20
0.0
 30
0.0
  3
*U80
  1

  0
TEXT
  5
EFF3
  8
MSM_PART_NUMBER
 10
0.0
 20
-3.0
 30
0.0
 40
3.0
  1
UKS2B20-L40-H15-W20-A30.3-B30.95-D31.17-N7-P10
  0
ENDBLK
  5
EFF5
  8
0
  0
BLOCK
  8
0
  2
*U81
 70
     1
 10
0.0
 20
0.0
 30
0.0
  3
*U81
  1

  0
TEXT
  5
EFF7
  8
MSM_PART_NUMBER
 10
0.0
 20
-8.0
 30
0.0
 40
3.0
  1
UKS2B20
  0
ENDBLK
  5
EFF9
  8
0
  0
BLOCK
  8
0
  2
*U82
 70
     1
 10
0.0
 20
0.0
 30
0.0
  3
*U82
  1

  0
TEXT
  5
EFFB
  8
MSM_CONTINUOUS
 10
76.975236481515253
 20
19.725000000000001
 30
0.0
 40
3.0
  1
30.95
 50
90.0
  0
ENDBLK
  5
EFFD
  8
0
  0
BLOCK
  8
0
  2
*U83
 70
     1
 10
0.0
 20
0.0
 30
0.0
  3
*U83
  1

  0
TEXT
  5
EFFF
  8
MSM_CONTINUOUS
 10
85.92974132174372
 20
20.899999999999999
 30
0.0
 40
3.0
  1
30.3
 50
90.0
  0
ENDBLK
  5
F001
  8
0
  0
BLOCK
  8
0
  2
*U84
 70
     1
 10
0.0
 20
0.0
 30
0.0
  3
*U84
  1

  0
TEXT
  5
F003
  8
MSM_CONTINUOUS
 10
149.2261397222376
 20
19.789513078335968
 30
0.0
 40
3.0
  1
31.17
 50
90.0
  0
ENDBLK
  5
F005
  8
0
  0
BLOCK
  8
0
  2
*U85
 70
     1
 10
0.0
 20
0.0
 30
0.0
  3
*U85
  1

  0
TEXT
  5
F007
  8
MSM_CONTINUOUS
 10
113.671028105612
 20
3.7558044960333632
 30
0.0
 40
3.0
  1
40
  0
ENDBLK
  5
F009
  8
0
  0
BLOCK
  8
0
  2
*U86
 70
     1
 10
0.0
 20
0.0
 30
0.0
  3
*U86
  1

  0
TEXT
  5
F00B
  8
MSM_CONTINUOUS
 10
129.17102810561201
 20
36.405306759635643
 30
0.0
 40
3.0
  1
10
  0
ENDBLK
  5
F00D
  8
0
  0
BLOCK
  8
0
  2
*U87
 70
     1
 10
0.0
 20
0.0
 30
0.0
  3
*U87
  1

  0
TEXT
  5
F00F
  8
MSM_CONTINUOUS
 10
123.671028105612
 20
49.354898374735271
 30
0.0
 40
3.0
  1
20
  0
ENDBLK
  5
F011
  8
0
  0
BLOCK
  8
0
  2
*U88
 70
     1
 10
0.0
 20
0.0
 30
0.0
  3
*U88
  1

  0
TEXT
  5
F013
  8
MSM_CONTINUOUS
 10
132.54602810561201
 20
29.65498772623263
 30
0.0
 40
3.0
  1
7
  0
ENDBLK
  5
F015
  8
0
  0
BLOCK
  8
0
  2
*U89
 70
     1
 10
0.0
 20
0.0
 30
0.0
  3
*U89
  1

  0
TEXT
  5
F017
  8
MSM_CONTINUOUS
 10
84.241403874521879
 20
89.080643883965806
 30
0.0
 40
3.0
  1
20
 50
90.0
  0
ENDBLK
  5
F019
  8
0
  0
BLOCK
  8
0
  2
*U90
 70
     1
 10
0.0
 20
0.0
 30
0.0
  3
*U90
  1

  0
TEXT
  5
F01B
  8
MSM_CONTINUOUS
 10
113.671028105612
 20
112.01060195391079
 30
0.0
 40
3.0
  1
40
  0
ENDBLK
  5
F01D
  8
0
  0
BLOCK
  8
0
  2
*U91
 70
     1
 10
0.0
 20
0.0
 30
0.0
  3
*U91
  1

  0
TEXT
  5
F01F
  8
MSM_CONTINUOUS
 10
123.671028105612
 20
107.43648589970761
 30
0.0
 40
3.0
  1
20
  0
ENDBLK
  5
F021
  8
0
  0
BLOCK
  8
0
  2
*U92
 70
     1
 10
0.0
 20
0.0
 30
0.0
  3
*U92
  1

  0
TEXT
  5
F023
  8
MSM_CONTINUOUS
 10
129.17102810561201
 20
71.650754416823361
 30
0.0
 40
3.0
  1
10
  0
ENDBLK
  5
F025
  8
0
  0
BLOCK
  8
0
  2
*U93
 70
     1
 10
0.0
 20
0.0
 30
0.0
  3
*U93
  1

  0
TEXT
  5
F027
  8
MSM_CONTINUOUS
 10
140.18841675084019
 20
98.773285866949664
 30
0.0
 40
3.0
  1
\U+22057
 50
25.323096952735821
  0
ENDBLK
  5
F029
  8
0
  0
BLOCK
  8
0
  2
*U94
 70
     1
 10
0.0
 20
0.0
 30
0.0
  3
*U94
  1

  0
TEXT
  5
F02B
  8
MSM_CONTINUOUS
 10
143.02686714054099
 20
15.90143243200639
 30
0.0
 40
3.0
  1
15
 50
90.0
  0
ENDBLK
  5
F02D
  8
0
  0
BLOCK
  8
0
  2
*U95
 70
     1
 10
0.0
 20
0.0
 30
0.0
  3
*U95
  1

  0
TEXT
  5
F02F
  8
MSM_CONTINUOUS
 10
57.695791624096728
 20
19.725000000000001
 30
0.0
 40
3.0
  1
30.95
 50
90.000000000000028
  0
ENDBLK
  5
F031
  8
0
  0
BLOCK
  8
0
  2
*U96
 70
     1
 10
0.0
 20
0.0
 30
0.0
  3
*U96
  1

  0
TEXT
  5
F033
  8
MSM_CONTINUOUS
 10
48.74128678386824
 20
20.899999999999999
 30
0.0
 40
3.0
  1
30.3
 50
90.000000000000028
  0
ENDBLK
  5
F035
  8
0
  0
BLOCK
  8
0
  2
*U97
 70
     1
 10
0.0
 20
0.0
 30
0.0
  3
*U97
  1

  0
TEXT
  5
F037
  8
MSM_CONTINUOUS
 10
-14.55511161662568
 20
19.789513078335968
 30
0.0
 40
3.0
  1
31.17
 50
90.0
  0
ENDBLK
  5
F039
  8
0
  0
BLOCK
  8
0
  2
*U98
 70
     1
 10
0.0
 20
0.0
 30
0.0
  3
*U98
  1

  0
TEXT
  5
F03B
  8
MSM_CONTINUOUS
 10
17.75
 20
3.7558044960333601
 30
0.0
 40
3.0
  1
40
  0
ENDBLK
  5
F03D
  8
0
  0
BLOCK
  8
0
  2
*U99
 70
     1
 10
0.0
 20
0.0
 30
0.0
  3
*U99
  1

  0
TEXT
  5
F03F
  8
MSM_CONTINUOUS
 10
3.25
 20
36.405306759635643
 30
0.0
 40
3.0
  1
10
  0
ENDBLK
  5
F041
  8
0
  0
BLOCK
  8
0
  2
*U100
 70
     1
 10
0.0
 20
0.0
 30
0.0
  3
*U100
  1

  0
TEXT
  5
F043
  8
MSM_CONTINUOUS
 10
7.75
 20
49.354898374735271
 30
0.0
 40
3.0
  1
20
  0
ENDBLK
  5
F045
  8
0
  0
BLOCK
  8
0
  2
*U101
 70
     1
 10
0.0
 20
0.0
 30
0.0
  3
*U101
  1

  0
TEXT
  5
F047
  8
MSM_CONTINUOUS
 10
1.375
 20
29.65498772623263
 30
0.0
 40
3.0
  1
7
  0
ENDBLK
  5
F049
  8
0
  0
BLOCK
  8
0
  2
*U102
 70
     1
 10
0.0
 20
0.0
 30
0.0
  3
*U102
  1

  0
TEXT
  5
F04B
  8
MSM_CONTINUOUS
 10
50.42962423109006
 20
89.080643883965806
 30
0.0
 40
3.0
  1
20
 50
90.0
  0
ENDBLK
  5
F04D
  8
0
  0
BLOCK
  8
0
  2
*U103
 70
     1
 10
0.0
 20
0.0
 30
0.0
  3
*U103
  1

  0
TEXT
  5
F04F
  8
MSM_CONTINUOUS
 10
17.75
 20
112.01060195391079
 30
0.0
 40
3.0
  1
40
  0
ENDBLK
  5
F051
  8
0
  0
BLOCK
  8
0
  2
*U104
 70
     1
 10
0.0
 20
0.0
 30
0.0
  3
*U104
  1

  0
TEXT
  5
F053
  8
MSM_CONTINUOUS
 10
7.75
 20
107.43648589970761
 30
0.0
 40
3.0
  1
20
  0
ENDBLK
  5
F055
  8
0
  0
BLOCK
  8
0
  2
*U105
 70
     1
 10
0.0
 20
0.0
 30
0.0
  3
*U105
  1

  0
TEXT
  5
F057
  8
MSM_CONTINUOUS
 10
3.25
 20
71.650754416823361
 30
0.0
 40
3.0
  1
10
  0
ENDBLK
  5
F059
  8
0
  0
BLOCK
  8
0
  2
*U106
 70
     1
 10
0.0
 20
0.0
 30
0.0
  3
*U106
  1

  0
TEXT
  5
F05B
  8
MSM_CONTINUOUS
 10
-8.7869396482995761
 20
100.9118972693874
 30
0.0
 40
3.0
  1
\U+22057
 50
334.6769030472642
  0
ENDBLK
  5
F05D
  8
0
  0
BLOCK
  8
0
  2
*U107
 70
     1
 10
0.0
 20
0.0
 30
0.0
  3
*U107
  1

  0
TEXT
  5
F05F
  8
MSM_CONTINUOUS
 10
-8.3558390349290335
 20
15.90143243200639
 30
0.0
 40
3.0
  1
15
 50
90.000000000000028
  0
ENDBLK
  5
F061
  8
0
  0
BLOCK
  8
0
  2
*U108
 70
     1
 10
0.0
 20
0.0
 30
0.0
  3
*U108
  1

  0
TEXT
  5
F063
  8
MSM_CONTINUOUS
 10
76.975236481515253
 20
27.725000000000001
 30
0.0
 40
3.0
  1
30.95
 50
90.0
  0
ENDBLK
  5
F065
  8
0
  0
BLOCK
  8
0
  2
*U109
 70
     1
 10
0.0
 20
0.0
 30
0.0
  3
*U109
  1

  0
TEXT
  5
F067
  8
MSM_CONTINUOUS
 10
85.92974132174372
 20
28.899999999999999
 30
0.0
 40
3.0
  1
30.3
 50
90.0
  0
ENDBLK
  5
F069
  8
0
  0
BLOCK
  8
0
  2
*U110
 70
     1
 10
0.0
 20
0.0
 30
0.0
  3
*U110
  1

  0
TEXT
  5
F06B
  8
MSM_CONTINUOUS
 10
149.2261397222376
 20
27.789513078335968
 30
0.0
 40
3.0
  1
31.17
 50
90.0
  0
ENDBLK
  5
F06D
  8
0
  0
BLOCK
  8
0
  2
*U111
 70
     1
 10
0.0
 20
0.0
 30
0.0
  3
*U111
  1

  0
TEXT
  5
F06F
  8
MSM_CONTINUOUS
 10
113.671028105612
 20
11.75580449603336
 30
0.0
 40
3.0
  1
40
  0
ENDBLK
  5
F071
  8
0
  0
BLOCK
  8
0
  2
*U112
 70
     1
 10
0.0
 20
0.0
 30
0.0
  3
*U112
  1

  0
TEXT
  5
F073
  8
MSM_CONTINUOUS
 10
129.17102810561201
 20
44.405306759635643
 30
0.0
 40
3.0
  1
10
  0
ENDBLK
  5
F075
  8
0
  0
BLOCK
  8
0
  2
*U113
 70
     1
 10
0.0
 20
0.0
 30
0.0
  3
*U113
  1

  0
TEXT
  5
F077
  8
MSM_CONTINUOUS
 10
123.671028105612
 20
57.354898374735271
 30
0.0
 40
3.0
  1
20
  0
ENDBLK
  5
F079
  8
0
  0
BLOCK
  8
0
  2
*U114
 70
     1
 10
0.0
 20
0.0
 30
0.0
  3
*U114
  1

  0
TEXT
  5
F07B
  8
MSM_CONTINUOUS
 10
132.54602810561201
 20
37.65498772623264
 30
0.0
 40
3.0
  1
7
  0
ENDBLK
  5
F07D
  8
0
  0
BLOCK
  8
0
  2
*U115
 70
     1
 10
0.0
 20
0.0
 30
0.0
  3
*U115
  1

  0
TEXT
  5
F07F
  8
MSM_CONTINUOUS
 10
84.241403874521879
 20
97.08064388396582
 30
0.0
 40
3.0
  1
20
 50
90.0
  0
ENDBLK
  5
F081
  8
0
  0
BLOCK
  8
0
  2
*U116
 70
     1
 10
0.0
 20
0.0
 30
0.0
  3
*U116
  1

  0
TEXT
  5
F083
  8
MSM_CONTINUOUS
 10
113.671028105612
 20
120.01060195391079
 30
0.0
 40
3.0
  1
40
  0
ENDBLK
  5
F085
  8
0
  0
BLOCK
  8
0
  2
*U117
 70
     1
 10
0.0
 20
0.0
 30
0.0
  3
*U117
  1

  0
TEXT
  5
F087
  8
MSM_CONTINUOUS
 10
123.671028105612
 20
115.43648589970761
 30
0.0
 40
3.0
  1
20
  0
ENDBLK
  5
F089
  8
0
  0
BLOCK
  8
0
  2
*U118
 70
     1
 10
0.0
 20
0.0
 30
0.0
  3
*U118
  1

  0
TEXT
  5
F08B
  8
MSM_CONTINUOUS
 10
129.17102810561201
 20
79.650754416823361
 30
0.0
 40
3.0
  1
10
  0
ENDBLK
  5
F08D
  8
0
  0
BLOCK
  8
0
  2
*U119
 70
     1
 10
0.0
 20
0.0
 30
0.0
  3
*U119
  1

  0
TEXT
  5
F08F
  8
MSM_CONTINUOUS
 10
140.18841675084019
 20
106.77328586694961
 30
0.0
 40
3.0
  1
\U+22057
 50
25.323096952735821
  0
ENDBLK
  5
F091
  8
0
  0
BLOCK
  8
0
  2
*U120
 70
     1
 10
0.0
 20
0.0
 30
0.0
  3
*U120
  1

  0
TEXT
  5
F093
  8
MSM_CONTINUOUS
 10
143.02686714054099
 20
23.901432432006391
 30
0.0
 40
3.0
  1
15
 50
90.0
  0
ENDBLK
  5
F095
  8
0
  0
BLOCK
  8
0
  2
*U121
 70
     1
 10
0.0
 20
0.0
 30
0.0
  3
*U121
  1

  0
TEXT
  5
F097
  8
MSM_CONTINUOUS
 10
57.695791624096728
 20
27.725000000000001
 30
0.0
 40
3.0
  1
30.95
 50
90.000000000000028
  0
ENDBLK
  5
F099
  8
0
  0
BLOCK
  8
0
  2
*U122
 70
     1
 10
0.0
 20
0.0
 30
0.0
  3
*U122
  1

  0
TEXT
  5
F09B
  8
MSM_CONTINUOUS
 10
48.74128678386824
 20
28.899999999999999
 30
0.0
 40
3.0
  1
30.3
 50
90.000000000000028
  0
ENDBLK
  5
F09D
  8
0
  0
BLOCK
  8
0
  2
*U123
 70
     1
 10
0.0
 20
0.0
 30
0.0
  3
*U123
  1

  0
TEXT
  5
F09F
  8
MSM_CONTINUOUS
 10
-14.55511161662568
 20
27.789513078335968
 30
0.0
 40
3.0
  1
31.17
 50
90.0
  0
ENDBLK
  5
F0A1
  8
0
  0
BLOCK
  8
0
  2
*U124
 70
     1
 10
0.0
 20
0.0
 30
0.0
  3
*U124
  1

  0
TEXT
  5
F0A3
  8
MSM_CONTINUOUS
 10
17.75
 20
11.75580449603336
 30
0.0
 40
3.0
  1
40
  0
ENDBLK
  5
F0A5
  8
0
  0
BLOCK
  8
0
  2
*U125
 70
     1
 10
0.0
 20
0.0
 30
0.0
  3
*U125
  1

  0
TEXT
  5
F0A7
  8
MSM_CONTINUOUS
 10
3.25
 20
44.405306759635643
 30
0.0
 40
3.0
  1
10
  0
ENDBLK
  5
F0A9
  8
0
  0
BLOCK
  8
0
  2
*U126
 70
     1
 10
0.0
 20
0.0
 30
0.0
  3
*U126
  1

  0
TEXT
  5
F0AB
  8
MSM_CONTINUOUS
 10
7.75
 20
57.354898374735271
 30
0.0
 40
3.0
  1
20
  0
ENDBLK
  5
F0AD
  8
0
  0
BLOCK
  8
0
  2
*U127
 70
     1
 10
0.0
 20
0.0
 30
0.0
  3
*U127
  1

  0
TEXT
  5
F0AF
  8
MSM_CONTINUOUS
 10
1.375
 20
37.65498772623264
 30
0.0
 40
3.0
  1
7
  0
ENDBLK
  5
F0B1
  8
0
  0
BLOCK
  8
0
  2
*U128
 70
     1
 10
0.0
 20
0.0
 30
0.0
  3
*U128
  1

  0
TEXT
  5
F0B3
  8
MSM_CONTINUOUS
 10
50.42962423109006
 20
97.08064388396582
 30
0.0
 40
3.0
  1
20
 50
90.0
  0
ENDBLK
  5
F0B5
  8
0
  0
BLOCK
  8
0
  2
*U129
 70
     1
 10
0.0
 20
0.0
 30
0.0
  3
*U129
  1

  0
TEXT
  5
F0B7
  8
MSM_CONTINUOUS
 10
17.75
 20
120.01060195391079
 30
0.0
 40
3.0
  1
40
  0
ENDBLK
  5
F0B9
  8
0
  0
BLOCK
  8
0
  2
*U130
 70
     1
 10
0.0
 20
0.0
 30
0.0
  3
*U130
  1

  0
TEXT
  5
F0BB
  8
MSM_CONTINUOUS
 10
7.75
 20
115.43648589970761
 30
0.0
 40
3.0
  1
20
  0
ENDBLK
  5
F0BD
  8
0
  0
BLOCK
  8
0
  2
*U131
 70
     1
 10
0.0
 20
0.0
 30
0.0
  3
*U131
  1

  0
TEXT
  5
F0BF
  8
MSM_CONTINUOUS
 10
3.25
 20
79.650754416823361
 30
0.0
 40
3.0
  1
10
  0
ENDBLK
  5
F0C1
  8
0
  0
BLOCK
  8
0
  2
*U132
 70
     1
 10
0.0
 20
0.0
 30
0.0
  3
*U132
  1

  0
TEXT
  5
F0C3
  8
MSM_CONTINUOUS
 10
-8.7869396482995761
 20
108.9118972693874
 30
0.0
 40
3.0
  1
\U+22057
 50
334.6769030472642
  0
ENDBLK
  5
F0C5
  8
0
  0
BLOCK
  8
0
  2
*U133
 70
     1
 10
0.0
 20
0.0
 30
0.0
  3
*U133
  1

  0
TEXT
  5
F0C7
  8
MSM_CONTINUOUS
 10
-8.3558390349290335
 20
23.901432432006391
 30
0.0
 40
3.0
  1
15
 50
90.000000000000028
  0
ENDBLK
  5
F0C9
  8
0
  0
ENDSEC
  0
SECTION
  2
ENTITIES
  0
INSERT
  5
E3B8
  8
MSM_CONTINUOUS
  2
*U80
 10
0.0
 20
0.0
 30
0.0
  0
INSERT
  5
E3B9
  8
MSM_CONTINUOUS
  2
*U81
 10
0.0
 20
0.0
 30
0.0
  0
LINE
  5
EDC1
  8
MSM_CONTINUOUS
 10
95.921028105611967
 20
10.0
 30
0.0
 11
135.9210281056119
 21
10.0
 31
0.0
  0
LINE
  5
EDC2
  8
MSM_CENTER
 10
125.9210281056119
 20
85.83064388396582
 30
0.0
 11
125.9210281056119
 21
96.83064388396582
 31
0.0
  0
LINE
  5
EDC3
  8
MSM_CENTER
 10
120.4210281056119
 20
91.330643883965806
 30
0.0
 11
131.42102810561201
 21
91.330643883965806
 31
0.0
  0
CIRCLE
  5
EDC4
  8
MSM_CONTINUOUS
 10
125.9210281056119
 20
91.330643883965806
 30
0.0
 40
3.5
  0
LINE
  5
EDC5
  8
MSM_CENTER
 10
125.9210281056119
 20
26.0
 30
0.0
 11
125.9210281056119
 21
9.0
 31
0.0
  0
LINE
  5
EDC6
  8
MSM_DASHED
 10
122.4210281056119
 20
25.0
 30
0.0
 11
122.4210281056119
 21
10.0
 31
0.0
  0
LINE
  5
EDC7
  8
MSM_DASHED
 10
129.42102810561201
 20
25.0
 30
0.0
 11
129.42102810561201
 21
10.0
 31
0.0
  0
LINE
  5
EDC8
  8
MSM_CONTINUOUS
 10
95.921028105611967
 20
81.330643883965806
 30
0.0
 11
135.9210281056119
 21
81.330643883965806
 31
0.0
  0
LINE
  5
EDC9
  8
MSM_CONTINUOUS
 10
135.9210281056119
 20
101.33064388396581
 30
0.0
 11
95.921028105611967
 21
101.33064388396581
 31
0.0
  0
LINE
  5
EDCA
  8
MSM_CONTINUOUS
 10
115.921028105612
 20
25.0
 30
0.0
 11
135.9210281056119
 21
25.0
 31
0.0
  0
LINE
  5
EDCB
  8
MSM_IMAGINARY
 10
68.018472297299141
 20
2.91720496656185
 30
0.0
 11
68.018472297299141
 21
118.4503040220802
 31
0.0
  0
LINE
  5
EDCC
  8
MSM_CONTINUOUS
 10
135.9210281056119
 20
10.0
 30
0.0
 11
135.9210281056119
 21
25.0
 31
0.0
  0
LINE
  5
EDCD
  8
MSM_CONTINUOUS
 10
135.9210281056119
 20
101.33064388396581
 30
0.0
 11
135.9210281056119
 21
81.330643883965806
 31
0.0
  0
LINE
  5
EDF3
  8
MSM_CONTINUOUS
 10
40.0
 20
10.0
 30
0.0
 11
0.0
 21
10.0
 31
0.0
  0
LINE
  5
EDF4
  8
MSM_CENTER
 10
10.0
 20
85.83064388396582
 30
0.0
 11
10.0
 21
96.83064388396582
 31
0.0
  0
LINE
  5
EDF5
  8
MSM_CENTER
 10
15.5
 20
91.330643883965806
 30
0.0
 11
4.5
 21
91.330643883965806
 31
0.0
  0
CIRCLE
  5
EDF6
  8
MSM_CONTINUOUS
 10
10.0
 20
91.330643883965806
 30
0.0
 40
3.5
  0
LINE
  5
EDF7
  8
MSM_CENTER
 10
10.0
 20
26.0
 30
0.0
 11
10.0
 21
9.0
 31
0.0
  0
LINE
  5
EDF8
  8
MSM_DASHED
 10
13.5
 20
25.0
 30
0.0
 11
13.49999999999998
 21
10.0
 31
0.0
  0
LINE
  5
EDF9
  8
MSM_DASHED
 10
6.5
 20
25.0
 30
0.0
 11
6.5
 21
10.0
 31
0.0
  0
LINE
  5
EDFA
  8
MSM_CONTINUOUS
 10
0.0
 20
101.33064388396581
 30
0.0
 11
0.0
 21
81.330643883965806
 31
0.0
  0
LINE
  5
EDFB
  8
MSM_CONTINUOUS
 10
40.0
 20
81.330643883965806
 30
0.0
 11
0.0
 21
81.330643883965806
 31
0.0
  0
LINE
  5
EDFC
  8
MSM_CONTINUOUS
 10
0.0
 20
101.33064388396581
 30
0.0
 11
40.0
 21
101.33064388396581
 31
0.0
  0
LINE
  5
EDFD
  8
MSM_CONTINUOUS
 10
20.0
 20
25.0
 30
0.0
 11
0.0
 21
25.0
 31
0.0
  0
LINE
  5
EDFE
  8
MSM_CONTINUOUS
 10
0.0
 20
10.0
 30
0.0
 11
0.0
 21
25.0
 31
0.0
  0
LINE
  5
EE24
  8
MSM_DASHED
 10
40.0
 20
39.799527161126491
 30
0.0
 11
20.0
 21
40.6695271152646
 31
0.0
  0
LINE
  5
EE25
  8
MSM_DASHED
 10
40.0
 20
39.799742784598102
 30
0.0
 11
39.500471897076892
 21
40.337970910616797
 31
0.0
  0
LINE
  5
EE26
  8
MSM_DASHED
 10
20.499528052885491
 20
41.16451192426819
 30
0.0
 11
20.0
 21
40.669742786086402
 31
0.0
  0
LINE
  5
EE27
  8
MSM_DASHED
 10
39.500471897076892
 20
40.337970910616797
 30
0.0
 11
20.499528052885491
 21
41.16451192426819
 31
0.0
  0
LINE
  5
EE28
  8
MSM_DASHED
 10
39.500472016253902
 20
40.955488026862383
 30
0.0
 11
39.500471897076892
 21
40.337970910616797
 31
0.0
  0
LINE
  5
EE29
  8
MSM_DASHED
 10
20.499528052885491
 20
41.16451192426819
 30
0.0
 11
20.49952810568178
 21
41.782029210038893
 31
0.0
  0
LINE
  5
EE2A
  8
MSM_CONTINUOUS
 10
20.49952810568178
 20
41.782029210038893
 30
0.0
 11
39.500472016253902
 21
40.955488026862383
 31
0.0
  0
LINE
  5
EE2B
  8
MSM_CONTINUOUS
 10
20.49952810568178
 20
41.782029210038893
 30
0.0
 11
20.0
 21
41.319729353025593
 31
0.0
  0
LINE
  5
EE2C
  8
MSM_CONTINUOUS
 10
39.500472016253902
 20
40.955488026862383
 30
0.0
 11
40.0
 21
40.449729354513892
 31
0.0
  0
LINE
  5
EE2D
  8
MSM_CONTINUOUS
 10
40.0
 20
10.0
 30
0.0
 11
40.0
 21
40.44952716112649
 31
0.0
  0
LINE
  5
EE2E
  8
MSM_CONTINUOUS
 10
20.0
 20
41.319527115264599
 30
0.0
 11
40.0
 21
40.44952716112649
 31
0.0
  0
LINE
  5
EE2F
  8
MSM_CONTINUOUS
 10
20.0
 20
41.319527115264599
 30
0.0
 11
20.0
 21
25.0
 31
0.0
  0
LINE
  5
EE30
  8
MSM_CONTINUOUS
 10
96.036944594598296
 20
10.0
 30
0.0
 11
96.036944594598296
 21
40.44952716112649
 31
0.0
  0
LINE
  5
EE31
  8
MSM_CONTINUOUS
 10
116.0369445945983
 20
41.319527115264599
 30
0.0
 11
116.0369445945983
 21
25.0
 31
0.0
  0
LINE
  5
EE32
  8
MSM_DASHED
 10
96.036944594598296
 20
39.799527161126491
 30
0.0
 11
116.0369445945983
 21
40.6695271152646
 31
0.0
  0
LINE
  5
EE33
  8
MSM_DASHED
 10
96.536472697521404
 20
40.337970910616797
 30
0.0
 11
115.5374165417128
 21
41.16451192426819
 31
0.0
  0
LINE
  5
EE34
  8
MSM_CONTINUOUS
 10
115.53741648891651
 20
41.782029210038893
 30
0.0
 11
96.536472578344387
 21
40.955488026862383
 31
0.0
  0
LINE
  5
EE35
  8
MSM_CONTINUOUS
 10
116.0369445945983
 20
41.319527115264599
 30
0.0
 11
96.036944594598296
 21
40.44952716112649
 31
0.0
  0
LINE
  5
EE36
  8
MSM_DASHED
 10
96.036944594598296
 20
39.799742784598102
 30
0.0
 11
96.536472697521404
 21
40.337970910616797
 31
0.0
  0
LINE
  5
EE37
  8
MSM_DASHED
 10
115.5374165417128
 20
41.16451192426819
 30
0.0
 11
116.0369445945983
 21
40.669742786086402
 31
0.0
  0
LINE
  5
EE38
  8
MSM_DASHED
 10
96.536472578344387
 20
40.955488026862383
 30
0.0
 11
96.536472697521404
 21
40.337970910616797
 31
0.0
  0
LINE
  5
EE39
  8
MSM_DASHED
 10
115.5374165417128
 20
41.16451192426819
 30
0.0
 11
115.53741648891651
 21
41.782029210038893
 31
0.0
  0
LINE
  5
EE3A
  8
MSM_CONTINUOUS
 10
115.53741648891651
 20
41.782029210038893
 30
0.0
 11
116.0369445945983
 21
41.319729353025593
 31
0.0
  0
LINE
  5
EE3B
  8
MSM_CONTINUOUS
 10
96.536472578344387
 20
40.955488026862383
 30
0.0
 11
96.036944594598296
 21
40.449729354513892
 31
0.0
  0
LINE
  5
EE48
  8
MSM_CONTINUOUS
 10
40.0
 20
101.33064388396581
 30
0.0
 11
40.0
 21
81.330643883965806
 31
0.0
  0
LINE
  5
EE49
  8
MSM_CONTINUOUS
 10
39.50047189707692
 20
81.830380528462797
 30
0.0
 11
40.0
 21
81.330852422716788
 31
0.0
  0
LINE
  5
EE4A
  8
MSM_CONTINUOUS
 10
40.0
 20
101.3304352162811
 30
0.0
 11
39.50047189431811
 21
100.8309072394688
 31
0.0
  0
LINE
  5
EE4B
  8
MSM_CONTINUOUS
 10
20.0
 20
101.33064388396581
 30
0.0
 11
20.0
 21
81.330643883965806
 31
0.0
  0
LINE
  5
EE4C
  8
MSM_CONTINUOUS
 10
20.0
 20
81.330852468511154
 30
0.0
 11
20.499528105681861
 21
81.830380528462797
 31
0.0
  0
LINE
  5
EE4D
  8
MSM_CONTINUOUS
 10
20.0
 20
101.33043517048679
 30
0.0
 11
20.499527933708581
 21
100.8309072394688
 31
0.0
  0
LINE
  5
EE4E
  8
MSM_CONTINUOUS
 10
20.499527933708581
 20
100.8309072394688
 30
0.0
 11
20.499528105681861
 21
81.830380528462797
 31
0.0
  0
LINE
  5
EE4F
  8
MSM_CONTINUOUS
 10
39.50047189707692
 20
81.830380528462797
 30
0.0
 11
20.499528105681861
 21
81.830380528462797
 31
0.0
  0
LINE
  5
EE50
  8
MSM_CONTINUOUS
 10
39.50047189431811
 20
100.8309072394688
 30
0.0
 11
39.50047189707692
 21
81.830380528462797
 31
0.0
  0
LINE
  5
EE51
  8
MSM_CONTINUOUS
 10
20.499527933708581
 20
100.8309072394688
 30
0.0
 11
39.50047189431811
 21
100.8309072394688
 31
0.0
  0
LINE
  5
EE52
  8
MSM_CONTINUOUS
 10
95.921028105611967
 20
101.33064388396581
 30
0.0
 11
95.921028105611967
 21
81.330643883965806
 31
0.0
  0
LINE
  5
EE53
  8
MSM_CONTINUOUS
 10
96.420556039320545
 20
100.8309072394688
 30
0.0
 11
96.420556211293828
 21
81.830380528462797
 31
0.0
  0
LINE
  5
EE54
  8
MSM_CONTINUOUS
 10
95.921028105611967
 20
101.33043517048679
 30
0.0
 11
96.420556039320545
 21
100.8309072394688
 31
0.0
  0
LINE
  5
EE55
  8
MSM_CONTINUOUS
 10
115.921028105612
 20
101.3304352162811
 30
0.0
 11
115.42149999993001
 21
100.8309072394688
 31
0.0
  0
LINE
  5
EE56
  8
MSM_CONTINUOUS
 10
115.921028105612
 20
101.33064388396581
 30
0.0
 11
115.921028105612
 21
81.330643883965806
 31
0.0
  0
LINE
  5
EE57
  8
MSM_CONTINUOUS
 10
115.4215000026889
 20
81.830380528462797
 30
0.0
 11
115.921028105612
 21
81.330852422716788
 31
0.0
  0
LINE
  5
EE58
  8
MSM_CONTINUOUS
 10
95.921028105611967
 20
81.330852468511154
 30
0.0
 11
96.420556211293828
 21
81.830380528462797
 31
0.0
  0
LINE
  5
EE59
  8
MSM_CONTINUOUS
 10
115.4215000026889
 20
81.830380528462797
 30
0.0
 11
96.420556211293828
 21
81.830380528462797
 31
0.0
  0
LINE
  5
EE5A
  8
MSM_CONTINUOUS
 10
115.42149999993001
 20
100.8309072394688
 30
0.0
 11
115.4215000026889
 21
81.830380528462797
 31
0.0
  0
LINE
  5
EE5B
  8
MSM_CONTINUOUS
 10
96.420556039320545
 20
100.8309072394688
 30
0.0
 11
115.42149999993001
 21
100.8309072394688
 31
0.0
  0
ENDSEC
  0
EOF
