  0
SECTION
  2
HEADER
  9
$ACADVER
  1
AC1009
  9
$INSBASE
 10
0.0
 20
0.0
 30
0.0
  9
$EXTMIN
 10
-2033.5989283367919
 20
-834.21742044065002
 30
-0.000000000000013
  9
$EXTMAX
 10
-1883.3535694793229
 20
-795.57987926233272
 30
0.0000000000000023
  9
$LIMMIN
 10
0.0
 20
0.0
  9
$LIMMAX
 10
297.0
 20
210.0
  9
$ORTHOMODE
 70
     1
  9
$REGENMODE
 70
     1
  9
$FILLMODE
 70
     1
  9
$QTEXTMODE
 70
     0
  9
$MIRRTEXT
 70
     1
  9
$DRAGMODE
 70
     2
  9
$LTSCALE
 40
1.0
  9
$OSMODE
 70
   125
  9
$ATTMODE
 70
     1
  9
$TEXTSIZE
 40
3.0
  9
$TRACEWID
 40
0.05
  9
$TEXTSTYLE
  7
STANDARD
  9
$CLAYER
  8
0
  9
$CELTYPE
  6
BYLAYER
  9
$CECOLOR
 62
   256
  9
$DIMSCALE
 40
1.0
  9
$DIMASZ
 40
1.5
  9
$DIMEXO
 40
1.0
  9
$DIMDLI
 40
0.0
  9
$DIMRND
 40
0.0
  9
$DIMDLE
 40
0.0
  9
$DIMEXE
 40
1.0
  9
$DIMTP
 40
0.0
  9
$DIMTM
 40
0.0
  9
$DIMTXT
 40
3.2000000000000002
  9
$DIMCEN
 40
0.0
  9
$DIMTSZ
 40
0.0
  9
$DIMTOL
 70
     0
  9
$DIMLIM
 70
     0
  9
$DIMTIH
 70
     0
  9
$DIMTOH
 70
     0
  9
$DIMSE1
 70
     0
  9
$DIMSE2
 70
     0
  9
$DIMTAD
 70
     1
  9
$DIMZIN
 70
     8
  9
$DIMBLK
  1

  9
$DIMASO
 70
     1
  9
$DIMSHO
 70
     1
  9
$DIMPOST
  1

  9
$DIMAPOST
  1

  9
$DIMALT
 70
     0
  9
$DIMALTD
 70
     2
  9
$DIMALTF
 40
0.04
  9
$DIMLFAC
 40
1.0
  9
$DIMTOFL
 70
     1
  9
$DIMTVP
 40
1.0
  9
$DIMTIX
 70
     1
  9
$DIMSOXD
 70
     0
  9
$DIMSAH
 70
     0
  9
$DIMBLK1
  1

  9
$DIMBLK2
  1

  9
$DIMSTYLE
  2
MISUMI
  9
$DIMCLRD
 70
     0
  9
$DIMCLRE
 70
     0
  9
$DIMCLRT
 70
     0
  9
$DIMTFAC
 40
0.6
  9
$DIMGAP
 40
1.0
  9
$LUNITS
 70
     2
  9
$LUPREC
 70
     4
  9
$SKETCHINC
 40
0.1
  9
$FILLETRAD
 40
0.0
  9
$AUNITS
 70
     0
  9
$AUPREC
 70
     0
  9
$MENU
  1
acad
  9
$ELEVATION
 40
0.0
  9
$PELEVATION
 40
0.0
  9
$THICKNESS
 40
0.0
  9
$LIMCHECK
 70
     0
  9
$BLIPMODE
 70
     0
  9
$CHAMFERA
 40
1.0
  9
$CHAMFERB
 40
1.0
  9
$SKPOLY
 70
     0
  9
$TDCREATE
 40
2451464.6006649309
  9
$TDUPDATE
 40
2454127.5602260991
  9
$TDINDWG
 40
2.0336677777999999
  9
$TDUSRTIMER
 40
2.0336626619999998
  9
$USRTIMER
 70
     1
  9
$ANGBASE
 50
0.0
  9
$ANGDIR
 70
     0
  9
$PDMODE
 70
     0
  9
$PDSIZE
 40
0.0
  9
$PLINEWID
 40
0.0
  9
$COORDS
 70
     0
  9
$SPLFRAME
 70
     0
  9
$SPLINETYPE
 70
     6
  9
$SPLINESEGS
 70
     8
  9
$ATTDIA
 70
     0
  9
$ATTREQ
 70
     1
  9
$HANDLING
 70
     1
  9
$HANDSEED
  5
21F0A
  9
$SURFTAB1
 70
     6
  9
$SURFTAB2
 70
     6
  9
$SURFTYPE
 70
     6
  9
$SURFU
 70
     6
  9
$SURFV
 70
     6
  9
$UCSNAME
  2

  9
$UCSORG
 10
0.0
 20
0.0
 30
0.0
  9
$UCSXDIR
 10
1.0
 20
0.0
 30
0.0
  9
$UCSYDIR
 10
0.0
 20
1.0
 30
0.0
  9
$PUCSNAME
  2

  9
$PUCSORG
 10
0.0
 20
0.0
 30
0.0
  9
$PUCSXDIR
 10
1.0
 20
0.0
 30
0.0
  9
$PUCSYDIR
 10
0.0
 20
1.0
 30
0.0
  9
$USERI1
 70
     0
  9
$USERI2
 70
     0
  9
$USERI3
 70
     0
  9
$USERI4
 70
     0
  9
$USERI5
 70
     0
  9
$USERR1
 40
0.0
  9
$USERR2
 40
0.0
  9
$USERR3
 40
0.0
  9
$USERR4
 40
0.0
  9
$USERR5
 40
0.0
  9
$WORLDVIEW
 70
     1
  9
$SHADEDGE
 70
     3
  9
$SHADEDIF
 70
    70
  9
$TILEMODE
 70
     1
  9
$MAXACTVP
 70
    16
  9
$PLIMCHECK
 70
     0
  9
$PEXTMIN
 10
1.0000000000000000E+020
 20
1.0000000000000000E+020
 30
1.0000000000000000E+020
  9
$PEXTMAX
 10
-1.0000000000000000E+020
 20
-1.0000000000000000E+020
 30
-1.0000000000000000E+020
  9
$PLIMMIN
 10
0.0
 20
0.0
  9
$PLIMMAX
 10
12.0
 20
9.0
  9
$UNITMODE
 70
     0
  9
$VISRETAIN
 70
     0
  9
$PLINEGEN
 70
     0
  9
$PSLTSCALE
 70
     1
  0
ENDSEC
  0
SECTION
  2
TABLES
  0
TABLE
  2
VPORT
 70
     2
  0
VPORT
  2
*ACTIVE
 70
     0
 10
0.0
 20
0.0
 11
1.0
 21
1.0
 12
-1958.476248908057
 22
-814.89864985149131
 13
0.0
 23
0.0
 14
10.0
 24
10.0
 15
10.0
 25
10.0
 16
0.0
 26
0.0
 36
1.0
 17
0.0
 27
0.0
 37
0.0
 40
88.849617494752735
 41
1.6990553306342771
 42
50.0
 43
0.0
 44
0.0
 50
0.0
 51
0.0
 71
     0
 72
   100
 73
     1
 74
     0
 75
     0
 76
     0
 77
     0
 78
     0
  0
ENDTAB
  0
TABLE
  2
LTYPE
 70
     3
  0
LTYPE
  2
CONTINUOUS
 70
     0
  3
Solid line
 72
    65
 73
     0
 40
0.0
  0
LTYPE
  2
CENTER
 70
     0
  3
Center ____ _ ____ _ ____ _ ____ _ ____ _ ____
 72
    65
 73
     4
 40
2.0
 49
1.25
 49
-0.25
 49
0.25
 49
-0.25
  0
LTYPE
  2
DASHED
 70
     0
  3
Dashed __ __ __ __ __ __ __ __ __ __ __ __ __ _
 72
    65
 73
     2
 40
0.75
 49
0.5
 49
-0.25
  0
ENDTAB
  0
TABLE
  2
LAYER
 70
     3
  0
LAYER
  2
0
 70
     0
 62
     7
  6
CONTINUOUS
  0
LAYER
  2
DEFPOINTS
 70
     0
 62
     7
  6
CONTINUOUS
  0
LAYER
  2
CENTER
 70
     0
 62
     1
  6
CENTER
  0
ENDTAB
  0
TABLE
  2
STYLE
 70
     1
  0
STYLE
  2
STANDARD
 70
     0
 40
0.0
 41
1.0
 50
0.0
 71
     0
 42
3.0
  3
txt
  4

  0
ENDTAB
  0
TABLE
  2
VIEW
 70
     2
  0
VIEW
  2
OLE1
 70
     0
 40
11.602815740587831
 10
-2013.198843694342
 20
-353.94683516776092
 41
18.523276905659252
 11
0.0
 21
0.0
 31
1.0
 12
0.0
 22
0.0
 32
0.0
 42
50.0
 43
0.0
 44
0.0
 50
0.0
 71
     0
  0
VIEW
  2
OLE2
 70
     0
 40
914.94083804538411
 10
-1633.832198913982
 20
-590.64678212664307
 41
1486.3361485150169
 11
0.0
 21
0.0
 31
1.0
 12
0.0
 22
0.0
 32
0.0
 42
50.0
 43
0.0
 44
0.0
 50
0.0
 71
     0
  0
ENDTAB
  0
TABLE
  2
UCS
 70
     0
  0
ENDTAB
  0
TABLE
  2
APPID
 70
    12
  0
APPID
  2
ACAD
 70
     0
  0
APPID
  2
GENIUS_GENCFG_13
 70
     0
  0
APPID
  2
GENIUS_GENCFG0_13
 70
     0
  0
APPID
  2
GENIUS_GENCFG1_13
 70
     0
  0
APPID
  2
GENIUS_GENCFG2_13
 70
     0
  0
APPID
  2
GENIUS_GENCFG3_13
 70
     0
  0
APPID
  2
GENIUS_GENCFG4_13
 70
     0
  0
APPID
  2
GENIUS_GEVCFG0_13
 70
     0
  0
APPID
  2
GENIUS_GENOENT_13
 70
     0
  0
APPID
  2
GENIUS_GENODEF_13
 70
     0
  0
APPID
  2
GENIUS_GENOBJ-N-LEADER_13
 70
     0
  0
APPID
  2
GENIUS_GENOLIS_13
 70
     0
  0
ENDTAB
  0
TABLE
  2
DIMSTYLE
 70
     1
  0
DIMSTYLE
  2
MISUMI
 70
     0
  3

  4

  5

  6

  7

 40
1.0
 41
1.5
 42
1.0
 43
0.0
 44
1.0
 45
0.0
 46
0.0
 47
0.0
 48
0.0
140
3.2000000000000002
141
0.0
142
0.0
143
0.04
144
1.0
145
1.0
146
0.6
147
1.0
 71
     0
 72
     0
 73
     0
 74
     0
 75
     0
 76
     0
 77
     1
 78
     8
170
     0
171
     2
172
     1
173
     0
174
     1
175
     0
176
     0
177
     0
178
     0
  0
ENDTAB
  0
ENDSEC
  0
SECTION
  2
BLOCKS
  0
BLOCK
  8
0
  2
$MODEL_SPACE
 70
     0
 10
0.0
 20
0.0
 30
0.0
  3
$MODEL_SPACE
  1

  0
ENDBLK
  5
21EDE
  8
0
  0
BLOCK
 67
     1
  8
0
  2
$PAPER_SPACE
 70
     0
 10
0.0
 20
0.0
 30
0.0
  3
$PAPER_SPACE
  1

  0
ENDBLK
  5
21EDA
 67
     1
  8
0
  0
ENDSEC
  0
SECTION
  2
ENTITIES
  0
LINE
  5
20F21
  8
0
  6
CONTINUOUS
 62
     7
 10
-1938.456100599519
 20
-800.14234667951223
 30
0.0
 11
-1938.456100599519
 21
-808.14234667951223
 31
0.0
  0
LINE
  5
20F26
  8
0
  6
CONTINUOUS
 62
     7
 10
-1918.456100599519
 20
-801.6782450643741
 30
0.0
 11
-1918.4561005995199
 21
-806.60644829465014
 31
0.0
  0
LINE
  5
20F27
  8
0
  6
CONTINUOUS
 62
     7
 10
-1920.456100599519
 20
-807.14234667951223
 30
0.0
 11
-1938.456100599519
 21
-807.14234667951223
 31
0.0
  0
LINE
  5
20F28
  8
0
  6
CONTINUOUS
 62
     7
 10
-1920.456100599519
 20
-801.142346679512
 30
0.0
 11
-1938.456100599519
 21
-801.14234667951223
 31
0.0
  0
LINE
  5
20F29
  8
0
  6
CONTINUOUS
 62
     7
 10
-1948.456100599519
 20
-799.14234667951223
 30
0.0
 11
-1998.4561005995199
 21
-799.14234667951234
 31
0.0
  0
LINE
  5
20F37
  8
0
  6
CONTINUOUS
 62
     7
 10
-1998.456100599519
 20
-809.14234667951223
 30
0.0
 11
-1998.4561005995199
 21
-799.14234667951234
 31
0.0
  0
LINE
  5
20F38
  8
0
  6
CONTINUOUS
 62
     7
 10
-1948.456100599519
 20
-809.14234667951223
 30
0.0
 11
-1998.456100599519
 21
-809.14234667951223
 31
0.0
  0
LINE
  5
20F40
  8
0
  6
CONTINUOUS
 62
     7
 10
-1948.456100599519
 20
-810.64234667951223
 30
0.0
 11
-1948.4561005995199
 21
-797.64234667951234
 31
0.0
  0
LINE
  5
20F45
  8
CENTER
  6
CENTER
 62
     1
 10
-1915.4561005995199
 20
-804.14234667951212
 30
0.0
 11
-2001.456100599519
 21
-804.14234667951212
 31
0.0
  0
TEXT
  5
20F46
  8
0
  6
CONTINUOUS
 62
     7
 10
-2030.5268148137909
 20
-829.14234667951212
 30
0.0
 40
2.0
  1
KJPDTK10L-P12.00-S6.00-F2.0-B20
  0
TEXT
  5
20F47
  8
0
  6
CONTINUOUS
 62
     7
 10
-2030.5268148137909
 20
-834.142346679512
 30
0.0
 40
2.0
  1
DTK10L
  0
LINE
  5
20FB0
  8
0
  6
DASHED
 62
     3
 10
-1985.456100599519
 20
-802.07534667951199
 30
0.0
 11
-1984.2627175931041
 21
-804.14234667951212
 31
0.0
  0
LINE
  5
20FB1
  8
0
  6
DASHED
 62
     3
 10
-1985.456100599519
 20
-806.20934667951201
 30
0.0
 11
-1985.456100599519
 21
-802.07534667951199
 31
0.0
  0
LINE
  5
20FB2
  8
0
  6
DASHED
 62
     3
 10
-1985.456100599519
 20
-806.20934667951201
 30
0.0
 11
-1984.2627175931041
 21
-804.14234667951212
 31
0.0
  0
LINE
  5
20FB3
  8
0
  6
DASHED
 62
     3
 10
-1988.456100599519
 20
-806.64234667951223
 30
0.0
 11
-1988.4561005995199
 21
-801.64234667951234
 31
0.0
  0
LINE
  5
20FB4
  8
0
  6
DASHED
 62
     3
 10
-1998.456100599519
 20
-801.64234667951234
 30
0.0
 11
-1988.456100599519
 21
-801.64234667951234
 31
0.0
  0
LINE
  5
20FB5
  8
0
  6
DASHED
 62
     3
 10
-1998.456100599519
 20
-802.07534667951199
 30
0.0
 11
-1985.456100599519
 21
-802.07534667951199
 31
0.0
  0
LINE
  5
20FB6
  8
0
  6
DASHED
 62
     3
 10
-1998.456100599519
 20
-806.64234667951223
 30
0.0
 11
-1988.456100599519
 21
-806.64234667951223
 31
0.0
  0
LINE
  5
20FB7
  8
0
  6
DASHED
 62
     3
 10
-1998.456100599519
 20
-806.20934667951201
 30
0.0
 11
-1985.456100599519
 21
-806.20934667951201
 31
0.0
  0
LINE
  5
21036
  8
0
  6
CONTINUOUS
 62
     7
 10
-1938.456100599519
 20
-809.64234667951234
 30
0.0
 11
-1938.4561005995199
 21
-798.64234667951234
 31
0.0
  0
LINE
  5
21045
  8
0
  6
CONTINUOUS
 62
     7
 10
-1948.4561005995199
 20
-797.64234667951234
 30
0.0
 11
-1938.4561005995199
 21
-798.64234667951234
 31
0.0
  0
LINE
  5
21046
  8
0
  6
CONTINUOUS
 62
     7
 10
-1948.456100599519
 20
-810.64234667951223
 30
0.0
 11
-1938.456100599519
 21
-809.64234667951234
 31
0.0
  0
ARC
  5
2165A
  8
0
  6
CONTINUOUS
 62
     7
 10
-1891.9561005995199
 20
-804.14234667951212
 30
0.0
 40
3.0
 50
228.1896851042205
 51
131.8103148957795
  0
ARC
  5
2165C
  8
0
  6
CONTINUOUS
 62
     7
 10
-1891.9561005995199
 20
-804.14234667951212
 30
0.0
 40
6.4999999999998863
 50
252.07978686061151
 51
287.92021313939478
  0
ARC
  5
2165D
  8
0
  6
CONTINUOUS
 62
     7
 10
-1891.9561005995199
 20
-804.14234667951212
 30
0.0
 40
5.0
 50
314.76932935234157
 51
345.2306706476586
  0
LINE
  5
2165E
  8
CENTER
  6
CENTER
 62
     1
 10
-1891.9561005995199
 20
-812.642346679512
 30
0.0
 11
-1891.9561005995199
 21
-795.64234667951234
 31
0.0
  0
LINE
  5
2165F
  8
CENTER
  6
CENTER
 62
     1
 10
-1900.456100599519
 20
-804.14234667951212
 30
0.0
 11
-1883.4561005995199
 21
-804.14234667951212
 31
0.0
  0
LINE
  5
21662
  8
0
  6
CONTINUOUS
 62
     7
 10
-1893.956100599519
 20
-810.32700511793882
 30
0.0
 11
-1897.5268148137909
 21
-804.14234667951212
 31
0.0
  0
LINE
  5
21663
  8
0
  6
CONTINUOUS
 62
     7
 10
-1893.9561005995199
 20
-797.95768824108575
 30
0.0
 11
-1897.5268148137909
 21
-804.14234667951212
 31
0.0
  0
LINE
  5
21664
  8
0
  6
CONTINUOUS
 62
     7
 10
-1889.956100599519
 20
-797.95768824108575
 30
0.0
 11
-1886.385386385248
 21
-804.14234667951212
 31
0.0
  0
LINE
  5
21665
  8
0
  6
CONTINUOUS
 62
     7
 10
-1889.956100599519
 20
-810.32700511793882
 30
0.0
 11
-1886.385386385248
 21
-804.14234667951212
 31
0.0
  0
ARC
  5
21666
  8
0
  6
CONTINUOUS
 62
     7
 10
-1891.9561005995199
 20
-804.14234667951212
 30
0.0
 40
6.4999999999998863
 50
72.079786860605154
 51
107.9202131393907
  0
ARC
  5
21668
  8
0
  6
CONTINUOUS
 62
     7
 10
-1891.9561005995199
 20
-804.14234667951212
 30
0.0
 40
2.4641016151377921
 50
215.7420697962294
 51
144.2579302037706
  0
ARC
  5
21669
  8
0
  6
CONTINUOUS
 62
     7
 10
-1891.9561005995199
 20
-804.14234667951212
 30
0.0
 40
5.0
 50
194.7693293523439
 51
225.23067064765749
  0
ARC
  5
2166A
  8
0
  6
CONTINUOUS
 62
     7
 10
-1891.9561005995199
 20
-804.14234667951212
 30
0.0
 40
5.0
 50
134.76932935234251
 51
165.23067064765479
  0
ARC
  5
2166B
  8
0
  6
CONTINUOUS
 62
     7
 10
-1891.9561005995199
 20
-804.14234667951212
 30
0.0
 40
5.0
 50
14.769329352359129
 51
45.230670647642746
  0
ARC
  5
2166C
  8
0
  6
DASHED
 62
     3
 10
-1891.9561005995199
 20
-804.14234667951212
 30
0.0
 40
4.999999999999952
 50
45.230670647642746
 51
134.76932935234251
  0
ARC
  5
2166D
  8
0
  6
DASHED
 62
     3
 10
-1891.9561005995199
 20
-804.14234667951212
 30
0.0
 40
5.0000000000000311
 50
165.23067064765479
 51
194.7693293523439
  0
ARC
  5
2166E
  8
0
  6
DASHED
 62
     3
 10
-1891.9561005995199
 20
-804.14234667951212
 30
0.0
 40
5.0000000000000311
 50
345.23067064765598
 51
14.769329352345199
  0
ARC
  5
2166F
  8
0
  6
DASHED
 62
     3
 10
-1891.9561005995199
 20
-804.14234667951212
 30
0.0
 40
4.999999999999952
 50
225.23067064765749
 51
314.76932935235732
  0
LINE
  5
21670
  8
0
  6
CONTINUOUS
 62
     7
 10
-1920.4561005995199
 20
-801.14234667951223
 30
0.0
 11
-1920.456100599519
 21
-801.90627870201229
 31
0.0
  0
LINE
  5
21671
  8
0
  6
CONTINUOUS
 62
     7
 10
-1920.4561005995199
 20
-801.14234667951223
 30
0.0
 11
-1918.456100599519
 21
-801.6782450643741
 31
0.0
  0
LINE
  5
21672
  8
0
  6
CONTINUOUS
 62
     7
 10
-1920.4561005995199
 20
-807.14234667951223
 30
0.0
 11
-1918.4561005995199
 21
-806.60644829465014
 31
0.0
  0
ARC
  5
216B5
  8
0
  6
CONTINUOUS
 62
     7
 10
-2024.956100599519
 20
-804.14234667951212
 30
0.0
 40
6.4999999999998863
 50
72.079786860609289
 51
107.9202131393948
  0
LINE
  5
216B6
  8
0
  6
CONTINUOUS
 62
     7
 10
-2026.9561005995199
 20
-810.32700511793882
 30
0.0
 11
-2028.477371965138
 21
-807.69208582058593
 31
0.0
  0
LINE
  5
216B7
  8
0
  6
CONTINUOUS
 62
     7
 10
-2026.9561005995199
 20
-797.95768824108575
 30
0.0
 11
-2028.4773719651389
 21
-800.59260753843876
 31
0.0
  0
LINE
  5
216B8
  8
0
  6
CONTINUOUS
 62
     7
 10
-2022.9561005995199
 20
-797.95768824108575
 30
0.0
 11
-2021.4348292338991
 21
-800.59260753843989
 31
0.0
  0
LINE
  5
216B9
  8
0
  6
CONTINUOUS
 62
     7
 10
-2022.9561005995199
 20
-810.32700511793882
 30
0.0
 11
-2021.4348292338991
 21
-807.69208582058445
 31
0.0
  0
LINE
  5
216BA
  8
CENTER
  6
CENTER
 62
     1
 10
-2016.456100599519
 20
-804.14234667951212
 30
0.0
 11
-2033.456100599519
 21
-804.14234667951212
 31
0.0
  0
LINE
  5
216BB
  8
CENTER
  6
CENTER
 62
     1
 10
-2024.956100599519
 20
-812.642346679512
 30
0.0
 11
-2024.956100599519
 21
-795.64234667951234
 31
0.0
  0
ARC
  5
216BD
  8
0
  6
CONTINUOUS
 62
     7
 10
-2024.956100599519
 20
-804.14234667951212
 30
0.0
 40
6.4999999999998863
 50
252.0797868606052
 51
287.92021313938852
  0
CIRCLE
  5
216BF
  8
0
  6
CONTINUOUS
 62
     7
 10
-2024.956100599519
 20
-804.14234667951212
 30
0.0
 40
5.0
  0
CIRCLE
  5
216C0
  8
0
  6
CONTINUOUS
 62
     3
 10
-2024.956100599519
 20
-804.14234667951212
 30
0.0
 40
2.5
  0
CIRCLE
  5
216C1
  8
0
  6
CONTINUOUS
 62
     7
 10
-2024.956100599519
 20
-804.14234667951212
 30
0.0
 40
2.0670000000000002
  0
LINE
  5
216C2
  8
0
  6
CONTINUOUS
 62
     7
 10
-2020.1213006437331
 20
-802.86770579380175
 30
0.0
 11
-2019.385386385248
 21
-804.14234667951212
 31
0.0
  0
LINE
  5
216C3
  8
0
  6
CONTINUOUS
 62
     7
 10
-2020.1213006437331
 20
-805.41698756522237
 30
0.0
 11
-2019.385386385248
 21
-804.14234667951212
 31
0.0
  0
LINE
  5
216C4
  8
0
  6
CONTINUOUS
 62
     7
 10
-2029.7909005553061
 20
-805.41698756522032
 30
0.0
 11
-2030.5268148137909
 21
-804.14234667951212
 31
0.0
  0
LINE
  5
216C5
  8
0
  6
CONTINUOUS
 62
     7
 10
-2029.7909005553061
 20
-802.86770579380357
 30
0.0
 11
-2030.5268148137909
 21
-804.14234667951212
 31
0.0
  0
LINE
  5
216C6
  8
0
  6
DASHED
 62
     3
 10
-2029.7909005553061
 20
-802.86770579380357
 30
0.0
 11
-2028.4773719651389
 21
-800.59260753843876
 31
0.0
  0
LINE
  5
216C7
  8
0
  6
DASHED
 62
     3
 10
-2021.4348292338991
 20
-800.59260753843989
 30
0.0
 11
-2020.121300643732
 21
-802.86770579380288
 31
0.0
  0
LINE
  5
216C8
  8
0
  6
DASHED
 62
     3
 10
-2020.1213006437331
 20
-805.41698756522294
 30
0.0
 11
-2021.4348292338991
 21
-807.69208582058445
 31
0.0
  0
LINE
  5
216C9
  8
0
  6
DASHED
 62
     3
 10
-2028.477371965138
 20
-807.69208582058593
 30
0.0
 11
-2029.7909005553061
 21
-805.41698756522032
 31
0.0
  0
LINE
  5
216E9
  8
0
  6
CONTINUOUS
 62
     7
 10
-1938.456100599519
 20
-804.14234667951234
 30
0.0
 11
-1948.4561005995199
 21
-804.14234667951212
 31
0.0
  0
LINE
  5
216EA
  8
0
  6
CONTINUOUS
 62
     3
 10
-1948.4561005995199
 20
-797.95768824108575
 30
0.0
 11
-1938.456100599519
 21
-804.14234667951234
 31
0.0
  0
LINE
  5
216EB
  8
0
  6
CONTINUOUS
 62
     3
 10
-1938.4561005995199
 20
-798.95768824108575
 30
0.0
 11
-1948.4561005995199
 21
-804.14234667951212
 31
0.0
  0
LINE
  5
21A9D
  8
0
  6
CONTINUOUS
 62
     7
 10
-1893.9561005995199
 20
-806.3784146570116
 30
0.0
 11
-1893.9561005995199
 21
-801.90627870201229
 31
0.0
  0
LINE
  5
21AAD
  8
0
  6
CONTINUOUS
 62
     7
 10
-1918.456100599519
 20
-801.90627870201229
 30
0.0
 11
-1938.456100599519
 21
-801.90627870201229
 31
0.0
  0
LINE
  5
21AAE
  8
0
  6
CONTINUOUS
 62
     7
 10
-1918.4561005995199
 20
-806.37841465701206
 30
0.0
 11
-1938.456100599519
 21
-806.3784146570116
 31
0.0
  0
LINE
  5
21AAF
  8
0
  6
CONTINUOUS
 62
     7
 10
-1920.4561005995199
 20
-806.37841465701206
 30
0.0
 11
-1920.4561005995199
 21
-807.14234667951223
 31
0.0
  0
LINE
  5
21AB1
  8
0
  6
CONTINUOUS
 62
     3
 10
-1938.456100599519
 20
-806.3784146570116
 30
0.0
 11
-1918.456100599519
 21
-801.90627870201229
 31
0.0
  0
LINE
  5
21AB2
  8
0
  6
CONTINUOUS
 62
     3
 10
-1918.456100599519
 20
-806.3784146570116
 30
0.0
 11
-1938.456100599519
 21
-801.90627870201229
 31
0.0
  0
LINE
  5
21EFA
  8
0
  6
CONTINUOUS
 62
     7
 10
-1948.4561005995199
 20
-797.95768824108575
 30
0.0
 11
-1938.4561005995199
 21
-798.95768824108575
 31
0.0
  0
LINE
  5
21EFB
  8
0
  6
CONTINUOUS
 62
     3
 10
-1938.4561005995199
 20
-809.3270051179386
 30
0.0
 11
-1948.4561005995199
 21
-804.14234667951212
 31
0.0
  0
LINE
  5
21EFC
  8
0
  6
CONTINUOUS
 62
     3
 10
-1948.4561005995199
 20
-810.3270051179386
 30
0.0
 11
-1938.456100599519
 21
-804.14234667951212
 31
0.0
  0
LINE
  5
21EFD
  8
0
  6
CONTINUOUS
 62
     7
 10
-1948.4561005995199
 20
-810.3270051179386
 30
0.0
 11
-1938.4561005995199
 21
-809.3270051179386
 31
0.0
  0
ENDSEC
  0
EOF
