  0
SECTION
  2
HEADER
  9
$ACADVER
  1
AC1009
  9
$INSBASE
 10
0.0
 20
0.0
 30
0.0
  9
$EXTMIN
 10
-32.85040944088189
 20
-121.92760969015519
 30
-0.000000000000013
  9
$EXTMAX
 10
82.023984783805759
 20
27.009088224152151
 30
0.0000000000000023
  9
$LIMMIN
 10
0.0
 20
0.0
  9
$LIMMAX
 10
420.0
 20
297.0
  9
$ORTHOMODE
 70
     1
  9
$REGENMODE
 70
     1
  9
$FILLMODE
 70
     1
  9
$QTEXTMODE
 70
     0
  9
$MIRRTEXT
 70
     0
  9
$DRAGMODE
 70
     2
  9
$LTSCALE
 40
1.0
  9
$OSMODE
 70
    55
  9
$ATTMODE
 70
     1
  9
$TEXTSIZE
 40
3.0
  9
$TRACEWID
 40
1.0
  9
$TEXTSTYLE
  7
STANDARD
  9
$CLAYER
  8
0
  9
$CELTYPE
  6
CONTINUOUS
  9
$CECOLOR
 62
     7
  9
$DIMSCALE
 40
1.0
  9
$DIMASZ
 40
2.5
  9
$DIMEXO
 40
0.625
  9
$DIMDLI
 40
3.75
  9
$DIMRND
 40
0.0
  9
$DIMDLE
 40
0.0
  9
$DIMEXE
 40
1.25
  9
$DIMTP
 40
0.0
  9
$DIMTM
 40
0.0
  9
$DIMTXT
 40
2.5
  9
$DIMCEN
 40
2.5
  9
$DIMTSZ
 40
0.0
  9
$DIMTOL
 70
     0
  9
$DIMLIM
 70
     0
  9
$DIMTIH
 70
     0
  9
$DIMTOH
 70
     0
  9
$DIMSE1
 70
     0
  9
$DIMSE2
 70
     0
  9
$DIMTAD
 70
     1
  9
$DIMZIN
 70
     8
  9
$DIMBLK
  1
OPEN30
  9
$DIMASO
 70
     1
  9
$DIMSHO
 70
     1
  9
$DIMPOST
  1

  9
$DIMAPOST
  1

  9
$DIMALT
 70
     0
  9
$DIMALTD
 70
     3
  9
$DIMALTF
 40
0.03937007874016
  9
$DIMLFAC
 40
1.0
  9
$DIMTOFL
 70
     1
  9
$DIMTVP
 40
0.0
  9
$DIMTIX
 70
     0
  9
$DIMSOXD
 70
     0
  9
$DIMSAH
 70
     0
  9
$DIMBLK1
  1

  9
$DIMBLK2
  1

  9
$DIMSTYLE
  2
MISUMI
  9
$DIMCLRD
 70
   137
  9
$DIMCLRE
 70
   137
  9
$DIMCLRT
 70
   137
  9
$DIMTFAC
 40
1.0
  9
$DIMGAP
 40
0.625
  9
$LUNITS
 70
     2
  9
$LUPREC
 70
     2
  9
$SKETCHINC
 40
1.0
  9
$FILLETRAD
 40
0.0
  9
$AUNITS
 70
     0
  9
$AUPREC
 70
     0
  9
$MENU
  1
.
  9
$ELEVATION
 40
0.0
  9
$PELEVATION
 40
0.0
  9
$THICKNESS
 40
0.0
  9
$LIMCHECK
 70
     0
  9
$BLIPMODE
 70
     0
  9
$CHAMFERA
 40
0.0
  9
$CHAMFERB
 40
0.0
  9
$SKPOLY
 70
     0
  9
$TDCREATE
 40
2455135.5720697101
  9
$TDUPDATE
 40
2455567.455576492
  9
$TDINDWG
 40
0.0649933333
  9
$TDUSRTIMER
 40
0.0649931481
  9
$USRTIMER
 70
     1
  9
$ANGBASE
 50
0.0
  9
$ANGDIR
 70
     0
  9
$PDMODE
 70
    35
  9
$PDSIZE
 40
0.0
  9
$PLINEWID
 40
0.0
  9
$COORDS
 70
     2
  9
$SPLFRAME
 70
     0
  9
$SPLINETYPE
 70
     6
  9
$SPLINESEGS
 70
     8
  9
$ATTDIA
 70
     0
  9
$ATTREQ
 70
     1
  9
$HANDLING
 70
 22529
  9
$HANDSEED
  5
E6E
  9
$SURFTAB1
 70
     6
  9
$SURFTAB2
 70
     6
  9
$SURFTYPE
 70
     6
  9
$SURFU
 70
     6
  9
$SURFV
 70
     6
  9
$UCSNAME
  2

  9
$UCSORG
 10
0.0
 20
0.0
 30
0.0
  9
$UCSXDIR
 10
1.0
 20
0.0
 30
0.0
  9
$UCSYDIR
 10
0.0
 20
1.0
 30
0.0
  9
$PUCSNAME
  2

  9
$PUCSORG
 10
0.0
 20
0.0
 30
0.0
  9
$PUCSXDIR
 10
1.0
 20
0.0
 30
0.0
  9
$PUCSYDIR
 10
0.0
 20
1.0
 30
0.0
  9
$USERI1
 70
     0
  9
$USERI2
 70
     0
  9
$USERI3
 70
     0
  9
$USERI4
 70
     0
  9
$USERI5
 70
     0
  9
$USERR1
 40
0.0
  9
$USERR2
 40
0.0
  9
$USERR3
 40
0.0
  9
$USERR4
 40
0.0
  9
$USERR5
 40
0.0
  9
$WORLDVIEW
 70
     1
  9
$SHADEDGE
 70
     3
  9
$SHADEDIF
 70
    70
  9
$TILEMODE
 70
     1
  9
$MAXACTVP
 70
    64
  9
$PLIMCHECK
 70
     0
  9
$PEXTMIN
 10
0.0
 20
0.0
 30
0.0
  9
$PEXTMAX
 10
0.0
 20
0.0
 30
0.0
  9
$PLIMMIN
 10
0.0
 20
0.0
  9
$PLIMMAX
 10
12.0
 20
9.0
  9
$UNITMODE
 70
     0
  9
$VISRETAIN
 70
     1
  9
$PLINEGEN
 70
     0
  9
$PSLTSCALE
 70
     1
  0
ENDSEC
  0
SECTION
  2
TABLES
  0
TABLE
  2
VPORT
 70
     2
  0
VPORT
  2
*ACTIVE
 70
     0
 10
0.0
 20
0.0
 11
1.0
 21
1.0
 12
24.586787671461931
 22
-47.459260733001543
 13
0.0
 23
0.0
 14
10.0
 24
10.0
 15
10.0
 25
10.0
 16
0.0
 26
0.0
 36
1.0
 17
0.0
 27
0.0
 37
0.0
 40
150.08827032086131
 41
1.5535483870967739
 42
50.0
 43
0.0
 44
0.0
 50
0.0
 51
0.0
 71
     0
 72
  1000
 73
     1
 74
     3
 75
     0
 76
     0
 77
     0
 78
     0
  0
ENDTAB
  0
TABLE
  2
LTYPE
 70
     4
  0
LTYPE
  2
CONTINUOUS
 70
     0
  3
Solid line
 72
    65
 73
     0
 40
0.0
  0
LTYPE
  2
CENTER
 70
     0
  3
Center ____ _ ____ _ ____ _ ____ _ ____ _ ____
 72
    65
 73
     4
 40
50.799999999999997
 49
31.75
 49
-6.3499999999999988
 49
6.3499999999999988
 49
-6.3499999999999988
  0
LTYPE
  2
DASHED
 70
     0
  3
Dashed __ __ __ __ __ __ __ __ __ __ __ __ __ _
 72
    65
 73
     2
 40
19.04999999999999
 49
12.699999999999999
 49
-6.3499999999999988
  0
ENDTAB
  0
TABLE
  2
LAYER
 70
     2
  0
LAYER
  2
0
 70
     0
 62
     7
  6
CONTINUOUS
  0
LAYER
  2
CENTER
 70
     0
 62
     1
  6
CENTER
  0
ENDTAB
  0
TABLE
  2
STYLE
 70
     1
  0
STYLE
  2
STANDARD
 70
     0
 40
3.0
 41
1.0
 50
0.0
 71
     0
 42
3.0
  3
txt.shx
  4
bigfont.shx
  0
ENDTAB
  0
TABLE
  2
VIEW
 70
     0
  0
ENDTAB
  0
TABLE
  2
UCS
 70
     0
  0
ENDTAB
  0
TABLE
  2
APPID
 70
     1
  0
APPID
  2
ACAD
 70
     0
  0
ENDTAB
  0
TABLE
  2
DIMSTYLE
 70
     1
  0
DIMSTYLE
  2
MISUMI
 70
     0
  3

  4

  5
OPEN30
  6

  7

 40
1.0
 41
2.5
 42
0.625
 43
3.75
 44
1.25
 45
0.0
 46
0.0
 47
0.0
 48
0.0
140
2.5
141
2.5
142
0.0
143
0.03937007874016
144
1.0
145
0.0
146
1.0
147
0.625
 71
     0
 72
     0
 73
     0
 74
     0
 75
     0
 76
     0
 77
     1
 78
     8
170
     0
171
     3
172
     1
173
     0
174
     0
175
     0
176
   137
177
   137
178
   137
  0
ENDTAB
  0
ENDSEC
  0
SECTION
  2
BLOCKS
  0
BLOCK
  8
0
  2
$MODEL_SPACE
 70
     0
 10
0.0
 20
0.0
 30
0.0
  3
$MODEL_SPACE
  1

  0
ENDBLK
  5
21
  8
0
  0
BLOCK
 67
     1
  8
0
  2
$PAPER_SPACE
 70
     0
 10
0.0
 20
0.0
 30
0.0
  3
$PAPER_SPACE
  1

  0
ENDBLK
  5
53
 67
     1
  8
0
  0
BLOCK
  8
0
 62
     7
  2
_OPEN30
 70
     0
 10
0.0
 20
0.0
 30
0.0
  3
_OPEN30
  1

  0
LINE
  5
D7
  8
0
  6
BYBLOCK
 62
     0
 10
-1.0
 20
0.26794919
 30
0.0
 11
0.0
 21
0.0
 31
0.0
  0
LINE
  5
D8
  8
0
  6
BYBLOCK
 62
     0
 10
0.0
 20
0.0
 30
0.0
 11
-1.0
 21
-0.26794919
 31
0.0
  0
LINE
  5
D9
  8
0
  6
BYBLOCK
 62
     0
 10
0.0
 20
0.0
 30
0.0
 11
-1.0
 21
0.0
 31
0.0
  0
ENDBLK
  5
DB
  8
0
 62
     7
  0
ENDSEC
  0
SECTION
  2
ENTITIES
  0
LINE
  5
C56
  8
CENTER
  6
CENTER
 62
     1
 10
-18.999999999999979
 20
6.75
 30
0.0
 11
-18.999999999999979
 21
-6.75
 31
0.0
  0
LINE
  5
C57
  8
CENTER
  6
CENTER
 62
     1
 10
-6.75
 20
19.0
 30
0.0
 11
6.75
 21
19.0
 31
0.0
  0
LINE
  5
C58
  8
0
  6
DASHED
 62
     3
 10
72.196620980405172
 20
-6.3060000000000116
 30
0.0
 11
70.713985489126216
 21
-5.4500000000000002
 31
0.0
  0
LINE
  5
C59
  8
0
  6
DASHED
 62
     3
 10
72.196620980405129
 20
6.3060000000000098
 30
0.0
 11
72.196620980405172
 21
-6.3060000000000116
 31
0.0
  0
LINE
  5
C5B
  8
0
  6
DASHED
 62
     3
 10
72.196620980405129
 20
6.3060000000000098
 30
0.0
 11
70.713985489126173
 21
5.4500000000000002
 31
0.0
  0
LINE
  5
C5C
  8
0
  6
DASHED
 62
     3
 10
79.113026192109231
 20
5.6915261921094631
 30
0.0
 11
72.196620980405129
 21
5.4500000000000002
 31
0.0
  0
LINE
  5
C5D
  8
0
  6
DASHED
 62
     3
 10
79.999999999999801
 20
6.5785000000000329
 30
0.0
 11
72.196620980405129
 21
6.3060000000000098
 31
0.0
  0
LINE
  5
C5E
  8
0
  6
DASHED
 62
     3
 10
79.999999999999801
 20
6.5785000000000329
 30
0.0
 11
79.113026192109231
 21
5.6915261921094631
 31
0.0
  0
LINE
  5
C5F
  8
0
  6
DASHED
 62
     3
 10
79.999999999999801
 20
-6.5785000000000329
 30
0.0
 11
72.196620980405172
 21
-6.3060000000000116
 31
0.0
  0
LINE
  5
C60
  8
0
  6
DASHED
 62
     3
 10
79.113026192109231
 20
-5.6915261921094631
 30
0.0
 11
72.196620980405129
 21
-5.4500000000000002
 31
0.0
  0
LINE
  5
C61
  8
0
  6
DASHED
 62
     3
 10
79.999999999999801
 20
-6.5785000000000329
 30
0.0
 11
79.113026192109231
 21
-5.6915261921094631
 31
0.0
  0
LINE
  5
C62
  8
0
  6
DASHED
 62
     3
 10
79.11302619210916
 20
5.6915261921094613
 30
0.0
 11
79.11302619210916
 21
-5.6915261921094622
 31
0.0
  0
LINE
  5
C63
  8
0
  6
DASHED
 62
     3
 10
50.886973807890563
 20
5.6915261921094622
 30
0.0
 11
50.886973807890563
 21
-5.6915261921094622
 31
0.0
  0
LINE
  5
C64
  8
0
  6
DASHED
 62
     3
 10
49.999999999999957
 20
6.5785000000000329
 30
0.0
 11
50.886973807890527
 21
5.6915261921094631
 31
0.0
  0
LINE
  5
C65
  8
0
  6
DASHED
 62
     3
 10
49.999999999999957
 20
-6.5785000000000329
 30
0.0
 11
50.886973807890527
 21
-5.6915261921094631
 31
0.0
  0
LINE
  5
C66
  8
0
  6
DASHED
 62
     3
 10
57.803379019594693
 20
6.3060000000000089
 30
0.0
 11
59.286014510873663
 21
5.4500000000000002
 31
0.0
  0
LINE
  5
C67
  8
0
  6
DASHED
 62
     3
 10
49.999999999999957
 20
6.5785000000000329
 30
0.0
 11
57.803379019594693
 21
6.3060000000000089
 31
0.0
  0
LINE
  5
C68
  8
0
  6
DASHED
 62
     3
 10
50.886973807890527
 20
5.6915261921094631
 30
0.0
 11
57.803379019594622
 21
5.4500000000000002
 31
0.0
  0
LINE
  5
C69
  8
0
  6
DASHED
 62
     3
 10
50.886973807890527
 20
-5.6915261921094631
 30
0.0
 11
57.803379019594622
 21
-5.4500000000000002
 31
0.0
  0
LINE
  5
C6A
  8
0
  6
DASHED
 62
     3
 10
57.803379019594622
 20
-6.3060000000000116
 30
0.0
 11
59.286014510873592
 21
-5.4500000000000002
 31
0.0
  0
LINE
  5
C6B
  8
0
  6
DASHED
 62
     3
 10
49.999999999999957
 20
-6.5785000000000329
 30
0.0
 11
57.803379019594622
 21
-6.3060000000000116
 31
0.0
  0
LINE
  5
C6C
  8
0
  6
DASHED
 62
     3
 10
57.803379019594693
 20
6.3060000000000089
 30
0.0
 11
57.803379019594622
 21
-6.3060000000000116
 31
0.0
  0
LINE
  5
C6D
  8
0
  6
CONTINUOUS
 62
     7
 10
79.499999999999844
 20
12.50000000000008
 30
0.0
 11
80.000000000000028
 21
12.0
 31
0.0
  0
LINE
  5
C6E
  8
0
  6
DASHED
 62
     3
 10
55.399999999999963
 20
16.249999999999879
 30
0.0
 11
58.000000000000149
 21
16.25000000000021
 31
0.0
  0
LINE
  5
C6F
  8
0
  6
DASHED
 62
     3
 10
55.399999999999963
 20
21.75
 30
0.0
 11
58.000000000000149
 21
21.749999999999879
 31
0.0
  0
LINE
  5
C70
  8
0
  6
DASHED
 62
     3
 10
55.399999999999963
 20
14.25
 30
0.0
 11
55.400000000000048
 21
19.0
 31
0.0
  0
LINE
  5
C71
  8
0
  6
CONTINUOUS
 62
     7
 10
58.000000000000149
 20
11.50000000000008
 30
0.0
 11
59.500000000000142
 21
11.50000000000008
 31
0.0
  0
LINE
  5
C73
  8
0
  6
DASHED
 62
     3
 10
55.399999999999963
 20
23.75
 30
0.0
 11
55.400000000000048
 21
19.0
 31
0.0
  0
LINE
  5
C74
  8
0
  6
CONTINUOUS
 62
     7
 10
61.232050807568989
 20
12.50000000000008
 30
0.0
 11
79.499999999999844
 21
12.50000000000008
 31
0.0
  0
LINE
  5
C75
  8
0
  6
CONTINUOUS
 62
     7
 10
79.999999999999744
 20
-12.000000000000011
 30
0.0
 11
79.499999999999744
 21
-12.50000000000002
 31
0.0
  0
LINE
  5
C76
  8
0
  6
CONTINUOUS
 62
     7
 10
57.99999999999973
 20
-11.499999999999931
 30
0.0
 11
59.499999999999737
 21
-11.49999999999987
 31
0.0
  0
LINE
  5
C77
  8
0
  6
DASHED
 62
     3
 10
55.399999999999963
 20
-16.249999999999918
 30
0.0
 11
57.999999999999957
 21
-16.250000000000121
 31
0.0
  0
LINE
  5
C78
  8
0
  6
DASHED
 62
     3
 10
55.399999999999963
 20
-23.749999999999901
 30
0.0
 11
55.400000000000048
 21
-18.999999999999901
 31
0.0
  0
LINE
  5
C79
  8
0
  6
DASHED
 62
     3
 10
55.399999999999963
 20
-21.74999999999994
 30
0.0
 11
57.999999999999957
 21
-21.749999999999769
 31
0.0
  0
LINE
  5
C7A
  8
0
  6
DASHED
 62
     3
 10
55.399999999999963
 20
-14.25000000000002
 30
0.0
 11
55.400000000000048
 21
-19.0
 31
0.0
  0
LINE
  5
C7C
  8
0
  6
CONTINUOUS
 62
     7
 10
61.232050807569003
 20
-12.49999999999994
 30
0.0
 11
79.499999999999744
 21
-12.50000000000002
 31
0.0
  0
LINE
  5
C7D
  8
0
  6
CONTINUOUS
 62
     7
 10
79.499999999999844
 20
12.50000000000008
 30
0.0
 11
79.499999999999744
 21
-12.50000000000002
 31
0.0
  0
LINE
  5
C7E
  8
0
  6
CONTINUOUS
 62
     7
 10
59.500000000000128
 20
11.500000000000091
 30
0.0
 11
59.499999999999751
 21
-11.49999999999987
 31
0.0
  0
LINE
  5
C7F
  8
0
  6
CONTINUOUS
 62
     7
 10
80.000000000000028
 20
12.0
 30
0.0
 11
79.999999999999744
 21
-12.000000000000011
 31
0.0
  0
LINE
  5
C81
  8
0
  6
CONTINUOUS
 62
     7
 10
58.000000000000149
 20
25.0
 30
0.0
 11
57.99999999999973
 21
-24.99999999999994
 31
0.0
  0
LINE
  5
C82
  8
0
  6
CONTINUOUS
 62
     7
 10
50.000000000000149
 20
25.0
 30
0.0
 11
49.999999999999837
 21
-25.0
 31
0.0
  0
LINE
  5
C83
  8
0
  6
DASHED
 62
     3
 10
50.000000000000149
 20
-23.749999999999901
 30
0.0
 11
55.400000000000048
 21
-23.749999999999901
 31
0.0
  0
LINE
  5
C84
  8
0
  6
DASHED
 62
     3
 10
50.000000000000149
 20
-14.25000000000002
 30
0.0
 11
55.400000000000048
 21
-14.25000000000002
 31
0.0
  0
LINE
  5
C85
  8
0
  6
CONTINUOUS
 62
     7
 10
49.99999999999973
 20
-25.00000000000005
 30
0.0
 11
57.999999999999957
 21
-24.99999999999994
 31
0.0
  0
LINE
  5
C86
  8
0
  6
DASHED
 62
     3
 10
50.000000000000149
 20
14.25
 30
0.0
 11
55.400000000000048
 21
14.25
 31
0.0
  0
LINE
  5
C87
  8
0
  6
DASHED
 62
     3
 10
50.000000000000149
 20
23.75
 30
0.0
 11
55.400000000000048
 21
23.75
 31
0.0
  0
LINE
  5
C88
  8
0
  6
CONTINUOUS
 62
     7
 10
50.000000000000149
 20
25.000000000000082
 30
0.0
 11
58.000000000000149
 21
25.0
 31
0.0
  0
LINE
  5
C89
  8
CENTER
  6
CENTER
 62
     1
 10
48.000000000000099
 20
18.999999999999979
 30
0.0
 11
60.000000000000128
 21
19.0
 31
0.0
  0
LINE
  5
C8A
  8
CENTER
  6
CENTER
 62
     1
 10
48.000000000000007
 20
0.0
 30
0.0
 11
81.999999999999915
 21
0.0000000000000142
 31
0.0
  0
LINE
  5
C8B
  8
CENTER
  6
CENTER
 62
     1
 10
47.999999999999872
 20
-18.99999999999994
 30
0.0
 11
59.999999999999822
 21
-18.99999999999994
 31
0.0
  0
CIRCLE
  5
C8C
  8
0
  6
CONTINUOUS
 62
     7
 10
18.999999999999869
 20
0.0
 30
0.0
 40
2.75
  0
CIRCLE
  5
C8D
  8
0
  6
CONTINUOUS
 62
     7
 10
18.999999999999869
 20
0.0
 30
0.0
 40
4.75
  0
LINE
  5
C8E
  8
CENTER
  6
CENTER
 62
     1
 10
18.999999999999869
 20
6.75
 30
0.0
 11
18.999999999999869
 21
-6.75
 31
0.0
  0
CIRCLE
  5
C8F
  8
0
  6
CONTINUOUS
 62
     7
 10
0.0
 20
19.0
 30
0.0
 40
2.75
  0
CIRCLE
  5
C90
  8
0
  6
CONTINUOUS
 62
     7
 10
0.0
 20
19.0
 30
0.0
 40
4.75
  0
CIRCLE
  5
C91
  8
0
  6
CONTINUOUS
 62
     7
 10
0.0
 20
-18.999999999999929
 30
0.0
 40
4.75
  0
CIRCLE
  5
C92
  8
0
  6
CONTINUOUS
 62
     7
 10
0.0
 20
-18.999999999999929
 30
0.0
 40
2.75
  0
LINE
  5
C93
  8
CENTER
  6
CENTER
 62
     1
 10
-6.75
 20
-18.999999999999929
 30
0.0
 11
6.75
 21
-18.999999999999929
 31
0.0
  0
CIRCLE
  5
C94
  8
0
  6
CONTINUOUS
 62
     7
 10
0.0
 20
0.0
 30
0.0
 40
5.4500000000000002
  0
CIRCLE
  5
C95
  8
0
  6
CONTINUOUS
 62
     7
 10
-18.999999999999979
 20
0.0
 30
0.0
 40
2.75
  0
CIRCLE
  5
C96
  8
0
  6
CONTINUOUS
 62
     7
 10
-18.999999999999979
 20
0.0
 30
0.0
 40
4.75
  0
CIRCLE
  5
C97
  8
0
  6
CONTINUOUS
 62
     7
 10
0.0
 20
0.0
 30
0.0
 40
5.7225000000000099
  0
CIRCLE
  5
C98
  8
0
  6
CONTINUOUS
 62
     3
 10
0.0
 20
0.0
 30
0.0
 40
6.5785000000000062
  0
LINE
  5
C99
  8
CENTER
  6
CENTER
 62
     1
 10
0.0
 20
-27.0
 30
0.0
 11
0.0
 21
27.0
 31
0.0
  0
CIRCLE
  5
C9A
  8
0
  6
DASHED
 62
     3
 10
0.0
 20
0.0
 30
0.0
 40
12.5
  0
CIRCLE
  5
C9B
  8
0
  6
CONTINUOUS
 62
     7
 10
0.0
 20
0.0
 30
0.0
 40
25.0
  0
LINE
  5
C9C
  8
CENTER
  6
CENTER
 62
     1
 10
-27.0
 20
0.0
 30
0.0
 11
27.0
 21
0.0
 31
0.0
  0
TEXT
  5
C9F
  8
0
  6
CONTINUOUS
 62
     7
 10
-32.830212731017689
 20
-116.9042920091143
 30
0.0
 40
3.0
  1
BTLF2
  0
TEXT
  5
CA0
  8
0
  6
CONTINUOUS
 62
     7
 10
-32.830212731017689
 20
-121.9042920091143
 30
0.0
 40
3.0
  1
BTLF02
  0
LINE
  5
D4D
  8
0
  6
CONTINUOUS
 62
     7
 10
64.968940997543953
 20
-52.498059002456088
 30
0.0
 11
64.968940997543953
 21
-47.498059002456131
 31
0.0
  0
LINE
  5
D4E
  8
0
  6
CONTINUOUS
 62
     7
 10
65.400000000000063
 20
-47.932999999999993
 30
0.0
 11
64.965059002456215
 21
-47.498059002456131
 31
0.0
  0
LINE
  5
D4F
  8
0
  6
CONTINUOUS
 62
     7
 10
65.400000000000063
 20
-52.066999999999993
 30
0.0
 11
64.968940997543953
 21
-52.498059002456088
 31
0.0
  0
LINE
  5
D50
  8
0
  6
DASHED
 62
     3
 10
50.400000000000048
 20
-51.0
 30
0.0
 11
52.900000000000048
 21
-51.0
 31
0.0
  0
LINE
  5
D51
  8
0
  6
DASHED
 62
     3
 10
50.400000000000048
 20
-52.0
 30
0.0
 11
52.900000000000048
 21
-52.0
 31
0.0
  0
LINE
  5
D52
  8
0
  6
DASHED
 62
     3
 10
54.054700538379286
 20
-50.0
 30
0.0
 11
52.900000000000048
 21
-52.0
 31
0.0
  0
LINE
  5
D54
  8
0
  6
CONTINUOUS
 62
     7
 10
50.900000000000048
 20
-45.75
 30
0.0
 11
50.900000000000048
 21
-54.25
 31
0.0
  0
LINE
  5
D57
  8
0
  6
CONTINUOUS
 62
     7
 10
50.900000000000048
 20
-45.75
 30
0.0
 11
50.400000000000048
 21
-46.25
 31
0.0
  0
LINE
  5
D58
  8
0
  6
CONTINUOUS
 62
     7
 10
50.900000000000048
 20
-54.25
 30
0.0
 11
50.400000000000048
 21
-53.75
 31
0.0
  0
LINE
  5
D5A
  8
0
  6
CONTINUOUS
 62
     7
 10
56.146616093313867
 20
-47.498059002456131
 30
0.0
 11
56.146616093313909
 21
-52.49805900245611
 31
0.0
  0
LINE
  5
D5B
  8
0
  6
CONTINUOUS
 62
     3
 10
55.400000000000048
 20
-47.498059002456131
 30
0.0
 11
56.153339906040742
 21
-47.933000000000021
 31
0.0
  0
LINE
  5
D5C
  8
0
  6
CONTINUOUS
 62
     3
 10
55.400000000000048
 20
-52.49805900245611
 30
0.0
 11
56.146616093313888
 21
-52.067000000000043
 31
0.0
  0
LINE
  5
D5D
  8
0
  6
CONTINUOUS
 62
     3
 10
65.400000000000063
 20
-47.932999999999993
 30
0.0
 11
56.153339906040742
 21
-47.933000000000021
 31
0.0
  0
LINE
  5
D5E
  8
0
  6
CONTINUOUS
 62
     3
 10
65.400000000000048
 20
-52.066999999999993
 30
0.0
 11
56.146616093313888
 21
-52.067000000000043
 31
0.0
  0
LINE
  5
D5F
  8
0
  6
CONTINUOUS
 62
     7
 10
65.400000000000063
 20
-52.066999999999993
 30
0.0
 11
65.400000000000063
 21
-47.932999999999993
 31
0.0
  0
LINE
  5
D60
  8
0
  6
CONTINUOUS
 62
     7
 10
64.968940997543953
 20
-52.498059002456088
 30
0.0
 11
55.400000000000048
 21
-52.49805900245611
 31
0.0
  0
LINE
  5
D61
  8
0
  6
CONTINUOUS
 62
     7
 10
64.965059002456215
 20
-47.498059002456131
 30
0.0
 11
55.400000000000048
 21
-47.498059002456131
 31
0.0
  0
LINE
  5
D62
  8
0
  6
CONTINUOUS
 62
     7
 10
50.400000000000048
 20
-46.25
 30
0.0
 11
50.400000000000048
 21
-53.75
 31
0.0
  0
LINE
  5
D63
  8
0
  6
DASHED
 62
     3
 10
54.054700538379286
 20
-50.0
 30
0.0
 11
52.900000000000048
 21
-48.0
 31
0.0
  0
LINE
  5
D64
  8
0
  6
DASHED
 62
     3
 10
52.900000000000048
 20
-51.999999999999993
 30
0.0
 11
52.900000000000048
 21
-48.0
 31
0.0
  0
LINE
  5
D65
  8
0
  6
CONTINUOUS
 62
     7
 10
55.400000000000048
 20
-54.250000000000021
 30
0.0
 11
55.400000000000048
 21
-45.750000000000007
 31
0.0
  0
LINE
  5
D66
  8
0
  6
CONTINUOUS
 62
     7
 10
50.900000000000048
 20
-54.25
 30
0.0
 11
55.400000000000048
 21
-54.250000000000021
 31
0.0
  0
LINE
  5
D67
  8
0
  6
CONTINUOUS
 62
     7
 10
50.900000000000048
 20
-45.75
 30
0.0
 11
55.400000000000048
 21
-45.750000000000007
 31
0.0
  0
LINE
  5
D68
  8
0
  6
DASHED
 62
     3
 10
50.400000000000048
 20
-49.0
 30
0.0
 11
52.900000000000048
 21
-49.0
 31
0.0
  0
LINE
  5
D69
  8
0
  6
DASHED
 62
     3
 10
50.400000000000048
 20
-48.0
 30
0.0
 11
52.900000000000048
 21
-48.0
 31
0.0
  0
LINE
  5
D6A
  8
CENTER
  6
CENTER
 62
     1
 10
67.400000000000063
 20
-50.0
 30
0.0
 11
48.400000000000048
 21
-50.0
 31
0.0
  0
LINE
  5
D6B
  8
CENTER
  6
CENTER
 62
     1
 10
6.25
 20
-50.0
 30
0.0
 11
-6.25
 21
-50.0
 31
0.0
  0
LINE
  5
D6C
  8
0
  6
CONTINUOUS
 62
     7
 10
1.7320508075688781
 20
-49.0
 30
0.0
 11
0.0
 21
-48.0
 31
0.0
  0
LINE
  5
D6D
  8
0
  6
CONTINUOUS
 62
     7
 10
1.7320508075688741
 20
-51.0
 30
0.0
 11
1.7320508075688781
 21
-49.0
 31
0.0
  0
LINE
  5
D6E
  8
0
  6
CONTINUOUS
 62
     7
 10
-0.0000000000000018
 20
-52.0
 30
0.0
 11
1.7320508075688741
 21
-51.0
 31
0.0
  0
LINE
  5
D6F
  8
0
  6
CONTINUOUS
 62
     7
 10
-1.7320508075688781
 20
-51.0
 30
0.0
 11
-0.0000000000000018
 21
-52.0
 31
0.0
  0
LINE
  5
D70
  8
0
  6
CONTINUOUS
 62
     7
 10
-1.7320508075688761
 20
-49.0
 30
0.0
 11
-1.7320508075688781
 21
-51.0
 31
0.0
  0
LINE
  5
D71
  8
0
  6
CONTINUOUS
 62
     7
 10
0.0
 20
-48.0
 30
0.0
 11
-1.7320508075688761
 21
-49.0
 31
0.0
  0
CIRCLE
  5
D72
  8
0
  6
CONTINUOUS
 62
     7
 10
0.0
 20
-50.0
 30
0.0
 40
2.0
  0
LINE
  5
D73
  8
CENTER
  6
CENTER
 62
     1
 10
0.0
 20
-56.25
 30
0.0
 11
0.0
 21
-43.75
 31
0.0
  0
CIRCLE
  5
D74
  8
0
  6
CONTINUOUS
 62
     7
 10
0.0
 20
-50.0
 30
0.0
 40
3.75
  0
CIRCLE
  5
D75
  8
0
  6
CONTINUOUS
 62
     7
 10
0.0
 20
-50.0
 30
0.0
 40
4.25
  0
CIRCLE
  5
D76
  8
0
  6
CONTINUOUS
 62
     7
 10
0.0
 20
-65.0
 30
0.0
 40
4.25
  0
CIRCLE
  5
D77
  8
0
  6
CONTINUOUS
 62
     7
 10
0.0
 20
-65.0
 30
0.0
 40
3.75
  0
LINE
  5
D78
  8
CENTER
  6
CENTER
 62
     1
 10
0.0
 20
-71.25
 30
0.0
 11
0.0
 21
-58.75
 31
0.0
  0
CIRCLE
  5
D79
  8
0
  6
CONTINUOUS
 62
     7
 10
0.0
 20
-65.0
 30
0.0
 40
2.0
  0
LINE
  5
D7A
  8
0
  6
CONTINUOUS
 62
     7
 10
0.0
 20
-63.0
 30
0.0
 11
-1.7320508075688741
 21
-64.0
 31
0.0
  0
LINE
  5
D7B
  8
0
  6
CONTINUOUS
 62
     7
 10
-1.7320508075688741
 20
-64.0
 30
0.0
 11
-1.7320508075688781
 21
-66.0
 31
0.0
  0
LINE
  5
D7C
  8
0
  6
CONTINUOUS
 62
     7
 10
-1.7320508075688781
 20
-66.0
 30
0.0
 11
-0.0000000000000036
 21
-67.0
 31
0.0
  0
LINE
  5
D7D
  8
0
  6
CONTINUOUS
 62
     7
 10
-0.0000000000000036
 20
-67.0
 30
0.0
 11
1.7320508075688741
 21
-66.0
 31
0.0
  0
LINE
  5
D7E
  8
0
  6
CONTINUOUS
 62
     7
 10
1.7320508075688741
 20
-66.0
 30
0.0
 11
1.7320508075688781
 21
-64.0
 31
0.0
  0
LINE
  5
D7F
  8
0
  6
CONTINUOUS
 62
     7
 10
1.7320508075688781
 20
-64.0
 30
0.0
 11
0.0
 21
-63.0
 31
0.0
  0
LINE
  5
D80
  8
CENTER
  6
CENTER
 62
     1
 10
6.25
 20
-65.0
 30
0.0
 11
-6.25
 21
-65.0
 31
0.0
  0
LINE
  5
D81
  8
CENTER
  6
CENTER
 62
     1
 10
67.400000000000063
 20
-65.0
 30
0.0
 11
48.400000000000048
 21
-65.0
 31
0.0
  0
LINE
  5
D82
  8
0
  6
DASHED
 62
     3
 10
50.400000000000048
 20
-63.0
 30
0.0
 11
52.900000000000048
 21
-63.0
 31
0.0
  0
LINE
  5
D83
  8
0
  6
DASHED
 62
     3
 10
50.400000000000048
 20
-64.0
 30
0.0
 11
52.900000000000048
 21
-64.0
 31
0.0
  0
LINE
  5
D84
  8
0
  6
CONTINUOUS
 62
     7
 10
50.900000000000048
 20
-60.75
 30
0.0
 11
55.400000000000048
 21
-60.750000000000007
 31
0.0
  0
LINE
  5
D85
  8
0
  6
CONTINUOUS
 62
     7
 10
50.900000000000048
 20
-69.25
 30
0.0
 11
55.400000000000048
 21
-69.250000000000028
 31
0.0
  0
LINE
  5
D86
  8
0
  6
CONTINUOUS
 62
     7
 10
55.400000000000048
 20
-69.250000000000028
 30
0.0
 11
55.400000000000048
 21
-60.750000000000007
 31
0.0
  0
LINE
  5
D87
  8
0
  6
DASHED
 62
     3
 10
52.900000000000048
 20
-66.999999999999986
 30
0.0
 11
52.900000000000048
 21
-63.0
 31
0.0
  0
LINE
  5
D88
  8
0
  6
DASHED
 62
     3
 10
54.054700538379286
 20
-65.0
 30
0.0
 11
52.900000000000048
 21
-63.0
 31
0.0
  0
LINE
  5
D89
  8
0
  6
CONTINUOUS
 62
     7
 10
50.400000000000048
 20
-61.25
 30
0.0
 11
50.400000000000048
 21
-68.75
 31
0.0
  0
LINE
  5
D8A
  8
0
  6
CONTINUOUS
 62
     7
 10
64.965059002456215
 20
-62.498059002456131
 30
0.0
 11
55.400000000000048
 21
-62.498059002456131
 31
0.0
  0
LINE
  5
D8B
  8
0
  6
CONTINUOUS
 62
     7
 10
64.968940997543953
 20
-67.498059002456088
 30
0.0
 11
55.400000000000048
 21
-67.498059002456117
 31
0.0
  0
LINE
  5
D8C
  8
0
  6
CONTINUOUS
 62
     7
 10
65.400000000000063
 20
-67.066999999999993
 30
0.0
 11
65.400000000000063
 21
-62.932999999999993
 31
0.0
  0
LINE
  5
D8D
  8
0
  6
CONTINUOUS
 62
     3
 10
65.400000000000048
 20
-67.066999999999993
 30
0.0
 11
56.146616093313888
 21
-67.067000000000036
 31
0.0
  0
LINE
  5
D8E
  8
0
  6
CONTINUOUS
 62
     3
 10
65.400000000000063
 20
-62.932999999999993
 30
0.0
 11
56.153339906040742
 21
-62.933000000000021
 31
0.0
  0
LINE
  5
D8F
  8
0
  6
CONTINUOUS
 62
     3
 10
55.400000000000048
 20
-67.498059002456117
 30
0.0
 11
56.146616093313888
 21
-67.067000000000036
 31
0.0
  0
LINE
  5
D90
  8
0
  6
CONTINUOUS
 62
     3
 10
55.400000000000048
 20
-62.498059002456131
 30
0.0
 11
56.153339906040742
 21
-62.933000000000021
 31
0.0
  0
LINE
  5
D91
  8
0
  6
CONTINUOUS
 62
     7
 10
56.146616093313867
 20
-62.498059002456131
 30
0.0
 11
56.146616093313909
 21
-67.498059002456117
 31
0.0
  0
LINE
  5
D92
  8
0
  6
CONTINUOUS
 62
     7
 10
50.900000000000048
 20
-69.25
 30
0.0
 11
50.400000000000048
 21
-68.75
 31
0.0
  0
LINE
  5
D93
  8
0
  6
CONTINUOUS
 62
     7
 10
50.900000000000048
 20
-60.75
 30
0.0
 11
50.400000000000048
 21
-61.25
 31
0.0
  0
LINE
  5
D94
  8
0
  6
CONTINUOUS
 62
     7
 10
50.900000000000048
 20
-60.75
 30
0.0
 11
50.900000000000048
 21
-69.25
 31
0.0
  0
LINE
  5
D95
  8
0
  6
DASHED
 62
     3
 10
54.054700538379286
 20
-65.0
 30
0.0
 11
52.900000000000048
 21
-67.0
 31
0.0
  0
LINE
  5
D96
  8
0
  6
DASHED
 62
     3
 10
50.400000000000048
 20
-67.0
 30
0.0
 11
52.900000000000048
 21
-67.0
 31
0.0
  0
LINE
  5
D97
  8
0
  6
DASHED
 62
     3
 10
50.400000000000048
 20
-66.0
 30
0.0
 11
52.900000000000048
 21
-66.0
 31
0.0
  0
LINE
  5
D98
  8
0
  6
CONTINUOUS
 62
     7
 10
65.400000000000063
 20
-67.066999999999993
 30
0.0
 11
64.968940997543953
 21
-67.498059002456088
 31
0.0
  0
LINE
  5
D99
  8
0
  6
CONTINUOUS
 62
     7
 10
65.400000000000063
 20
-62.932999999999993
 30
0.0
 11
64.965059002456215
 21
-62.498059002456131
 31
0.0
  0
LINE
  5
D9A
  8
0
  6
CONTINUOUS
 62
     7
 10
64.968940997543953
 20
-67.498059002456088
 30
0.0
 11
64.968940997543953
 21
-62.498059002456131
 31
0.0
  0
CIRCLE
  5
D9B
  8
0
  6
CONTINUOUS
 62
     7
 10
0.0
 20
-80.0
 30
0.0
 40
4.25
  0
CIRCLE
  5
D9C
  8
0
  6
CONTINUOUS
 62
     7
 10
0.0
 20
-80.0
 30
0.0
 40
3.75
  0
LINE
  5
D9D
  8
CENTER
  6
CENTER
 62
     1
 10
0.0
 20
-86.25
 30
0.0
 11
0.0
 21
-73.75
 31
0.0
  0
CIRCLE
  5
D9E
  8
0
  6
CONTINUOUS
 62
     7
 10
0.0
 20
-80.0
 30
0.0
 40
2.0
  0
LINE
  5
D9F
  8
0
  6
CONTINUOUS
 62
     7
 10
0.0
 20
-78.0
 30
0.0
 11
-1.7320508075688741
 21
-79.0
 31
0.0
  0
LINE
  5
DA0
  8
0
  6
CONTINUOUS
 62
     7
 10
-1.7320508075688741
 20
-79.0
 30
0.0
 11
-1.7320508075688781
 21
-81.0
 31
0.0
  0
LINE
  5
DA1
  8
0
  6
CONTINUOUS
 62
     7
 10
-1.7320508075688781
 20
-81.0
 30
0.0
 11
-0.0000000000000036
 21
-82.0
 31
0.0
  0
LINE
  5
DA2
  8
0
  6
CONTINUOUS
 62
     7
 10
-0.0000000000000036
 20
-82.0
 30
0.0
 11
1.7320508075688741
 21
-81.0
 31
0.0
  0
LINE
  5
DA3
  8
0
  6
CONTINUOUS
 62
     7
 10
1.7320508075688741
 20
-81.0
 30
0.0
 11
1.7320508075688781
 21
-79.0
 31
0.0
  0
LINE
  5
DA4
  8
0
  6
CONTINUOUS
 62
     7
 10
1.7320508075688781
 20
-79.0
 30
0.0
 11
0.0
 21
-78.0
 31
0.0
  0
LINE
  5
DA5
  8
CENTER
  6
CENTER
 62
     1
 10
6.25
 20
-80.0
 30
0.0
 11
-6.25
 21
-80.0
 31
0.0
  0
LINE
  5
DA6
  8
CENTER
  6
CENTER
 62
     1
 10
67.400000000000063
 20
-80.0
 30
0.0
 11
48.400000000000048
 21
-80.0
 31
0.0
  0
LINE
  5
DA7
  8
0
  6
DASHED
 62
     3
 10
50.400000000000048
 20
-78.0
 30
0.0
 11
52.900000000000048
 21
-78.0
 31
0.0
  0
LINE
  5
DA8
  8
0
  6
DASHED
 62
     3
 10
50.400000000000048
 20
-79.0
 30
0.0
 11
52.900000000000048
 21
-79.0
 31
0.0
  0
LINE
  5
DA9
  8
0
  6
CONTINUOUS
 62
     7
 10
50.900000000000048
 20
-75.75
 30
0.0
 11
55.400000000000048
 21
-75.75
 31
0.0
  0
LINE
  5
DAA
  8
0
  6
CONTINUOUS
 62
     7
 10
50.900000000000048
 20
-84.25
 30
0.0
 11
55.400000000000048
 21
-84.250000000000014
 31
0.0
  0
LINE
  5
DAB
  8
0
  6
CONTINUOUS
 62
     7
 10
55.400000000000048
 20
-84.250000000000014
 30
0.0
 11
55.400000000000048
 21
-75.75
 31
0.0
  0
LINE
  5
DAC
  8
0
  6
DASHED
 62
     3
 10
52.900000000000048
 20
-81.999999999999986
 30
0.0
 11
52.900000000000048
 21
-78.0
 31
0.0
  0
LINE
  5
DAD
  8
0
  6
DASHED
 62
     3
 10
54.054700538379286
 20
-80.0
 30
0.0
 11
52.900000000000048
 21
-78.0
 31
0.0
  0
LINE
  5
DAE
  8
0
  6
CONTINUOUS
 62
     7
 10
50.400000000000048
 20
-76.25
 30
0.0
 11
50.400000000000048
 21
-83.75
 31
0.0
  0
LINE
  5
DAF
  8
0
  6
CONTINUOUS
 62
     7
 10
64.965059002456215
 20
-77.498059002456131
 30
0.0
 11
55.400000000000048
 21
-77.498059002456131
 31
0.0
  0
LINE
  5
DB0
  8
0
  6
CONTINUOUS
 62
     7
 10
64.968940997543953
 20
-82.498059002456088
 30
0.0
 11
55.400000000000048
 21
-82.498059002456117
 31
0.0
  0
LINE
  5
DB1
  8
0
  6
CONTINUOUS
 62
     7
 10
65.400000000000063
 20
-82.066999999999993
 30
0.0
 11
65.400000000000063
 21
-77.932999999999993
 31
0.0
  0
LINE
  5
DB2
  8
0
  6
CONTINUOUS
 62
     3
 10
65.400000000000048
 20
-82.066999999999993
 30
0.0
 11
56.146616093313888
 21
-82.067000000000036
 31
0.0
  0
LINE
  5
DB3
  8
0
  6
CONTINUOUS
 62
     3
 10
65.400000000000063
 20
-77.932999999999993
 30
0.0
 11
56.153339906040742
 21
-77.933000000000021
 31
0.0
  0
LINE
  5
DB4
  8
0
  6
CONTINUOUS
 62
     3
 10
55.400000000000048
 20
-82.498059002456117
 30
0.0
 11
56.146616093313888
 21
-82.067000000000036
 31
0.0
  0
LINE
  5
DB5
  8
0
  6
CONTINUOUS
 62
     3
 10
55.400000000000048
 20
-77.498059002456131
 30
0.0
 11
56.153339906040742
 21
-77.933000000000021
 31
0.0
  0
LINE
  5
DB6
  8
0
  6
CONTINUOUS
 62
     7
 10
56.146616093313867
 20
-77.498059002456131
 30
0.0
 11
56.146616093313909
 21
-82.498059002456117
 31
0.0
  0
LINE
  5
DB7
  8
0
  6
CONTINUOUS
 62
     7
 10
50.900000000000048
 20
-84.25
 30
0.0
 11
50.400000000000048
 21
-83.75
 31
0.0
  0
LINE
  5
DB8
  8
0
  6
CONTINUOUS
 62
     7
 10
50.900000000000048
 20
-75.75
 30
0.0
 11
50.400000000000048
 21
-76.25
 31
0.0
  0
LINE
  5
DB9
  8
0
  6
CONTINUOUS
 62
     7
 10
50.900000000000048
 20
-75.75
 30
0.0
 11
50.900000000000048
 21
-84.25
 31
0.0
  0
LINE
  5
DBA
  8
0
  6
DASHED
 62
     3
 10
54.054700538379286
 20
-80.0
 30
0.0
 11
52.900000000000048
 21
-82.0
 31
0.0
  0
LINE
  5
DBB
  8
0
  6
DASHED
 62
     3
 10
50.400000000000048
 20
-82.0
 30
0.0
 11
52.900000000000048
 21
-82.0
 31
0.0
  0
LINE
  5
DBC
  8
0
  6
DASHED
 62
     3
 10
50.400000000000048
 20
-81.0
 30
0.0
 11
52.900000000000048
 21
-81.0
 31
0.0
  0
LINE
  5
DBD
  8
0
  6
CONTINUOUS
 62
     7
 10
65.400000000000063
 20
-82.066999999999993
 30
0.0
 11
64.968940997543953
 21
-82.498059002456088
 31
0.0
  0
LINE
  5
DBE
  8
0
  6
CONTINUOUS
 62
     7
 10
65.400000000000063
 20
-77.932999999999993
 30
0.0
 11
64.965059002456215
 21
-77.498059002456131
 31
0.0
  0
LINE
  5
DBF
  8
0
  6
CONTINUOUS
 62
     7
 10
64.968940997543953
 20
-82.498059002456088
 30
0.0
 11
64.968940997543953
 21
-77.498059002456131
 31
0.0
  0
CIRCLE
  5
DC0
  8
0
  6
CONTINUOUS
 62
     7
 10
0.0
 20
-95.0
 30
0.0
 40
4.25
  0
CIRCLE
  5
DC1
  8
0
  6
CONTINUOUS
 62
     7
 10
0.0
 20
-95.0
 30
0.0
 40
3.75
  0
LINE
  5
DC2
  8
CENTER
  6
CENTER
 62
     1
 10
0.0
 20
-101.2499999999999
 30
0.0
 11
0.0
 21
-88.75
 31
0.0
  0
CIRCLE
  5
DC3
  8
0
  6
CONTINUOUS
 62
     7
 10
0.0
 20
-95.0
 30
0.0
 40
2.0
  0
LINE
  5
DC4
  8
0
  6
CONTINUOUS
 62
     7
 10
0.0
 20
-93.0
 30
0.0
 11
-1.7320508075688741
 21
-94.0
 31
0.0
  0
LINE
  5
DC5
  8
0
  6
CONTINUOUS
 62
     7
 10
-1.7320508075688741
 20
-94.0
 30
0.0
 11
-1.7320508075688781
 21
-96.0
 31
0.0
  0
LINE
  5
DC6
  8
0
  6
CONTINUOUS
 62
     7
 10
-1.7320508075688781
 20
-96.0
 30
0.0
 11
-0.0000000000000036
 21
-97.0
 31
0.0
  0
LINE
  5
DC7
  8
0
  6
CONTINUOUS
 62
     7
 10
-0.0000000000000036
 20
-97.0
 30
0.0
 11
1.7320508075688741
 21
-96.0
 31
0.0
  0
LINE
  5
DC8
  8
0
  6
CONTINUOUS
 62
     7
 10
1.7320508075688741
 20
-96.0
 30
0.0
 11
1.7320508075688781
 21
-94.0
 31
0.0
  0
LINE
  5
DC9
  8
0
  6
CONTINUOUS
 62
     7
 10
1.7320508075688781
 20
-94.0
 30
0.0
 11
0.0
 21
-93.0
 31
0.0
  0
LINE
  5
DCA
  8
CENTER
  6
CENTER
 62
     1
 10
6.25
 20
-95.0
 30
0.0
 11
-6.25
 21
-95.0
 31
0.0
  0
LINE
  5
DCB
  8
CENTER
  6
CENTER
 62
     1
 10
67.400000000000063
 20
-95.0
 30
0.0
 11
48.400000000000048
 21
-95.0
 31
0.0
  0
LINE
  5
DCC
  8
0
  6
DASHED
 62
     3
 10
50.400000000000048
 20
-93.0
 30
0.0
 11
52.900000000000048
 21
-93.0
 31
0.0
  0
LINE
  5
DCD
  8
0
  6
DASHED
 62
     3
 10
50.400000000000048
 20
-94.0
 30
0.0
 11
52.900000000000048
 21
-94.0
 31
0.0
  0
LINE
  5
DCE
  8
0
  6
CONTINUOUS
 62
     7
 10
50.900000000000048
 20
-90.750000000000014
 30
0.0
 11
55.400000000000048
 21
-90.750000000000014
 31
0.0
  0
LINE
  5
DCF
  8
0
  6
CONTINUOUS
 62
     7
 10
50.900000000000048
 20
-99.25
 30
0.0
 11
55.400000000000048
 21
-99.250000000000043
 31
0.0
  0
LINE
  5
DD0
  8
0
  6
CONTINUOUS
 62
     7
 10
55.400000000000048
 20
-99.250000000000043
 30
0.0
 11
55.400000000000048
 21
-90.750000000000014
 31
0.0
  0
LINE
  5
DD1
  8
0
  6
DASHED
 62
     3
 10
52.900000000000048
 20
-96.999999999999986
 30
0.0
 11
52.900000000000048
 21
-93.0
 31
0.0
  0
LINE
  5
DD2
  8
0
  6
DASHED
 62
     3
 10
54.054700538379286
 20
-95.0
 30
0.0
 11
52.900000000000048
 21
-93.0
 31
0.0
  0
LINE
  5
DD3
  8
0
  6
CONTINUOUS
 62
     7
 10
50.400000000000048
 20
-91.25
 30
0.0
 11
50.400000000000048
 21
-98.75
 31
0.0
  0
LINE
  5
DD4
  8
0
  6
CONTINUOUS
 62
     7
 10
64.965059002456215
 20
-92.498059002456131
 30
0.0
 11
55.400000000000048
 21
-92.498059002456131
 31
0.0
  0
LINE
  5
DD5
  8
0
  6
CONTINUOUS
 62
     7
 10
64.968940997543953
 20
-97.498059002456088
 30
0.0
 11
55.400000000000048
 21
-97.498059002456117
 31
0.0
  0
LINE
  5
DD6
  8
0
  6
CONTINUOUS
 62
     7
 10
65.400000000000063
 20
-97.066999999999993
 30
0.0
 11
65.400000000000063
 21
-92.933000000000007
 31
0.0
  0
LINE
  5
DD7
  8
0
  6
CONTINUOUS
 62
     3
 10
65.400000000000048
 20
-97.066999999999993
 30
0.0
 11
56.146616093313888
 21
-97.067000000000036
 31
0.0
  0
LINE
  5
DD8
  8
0
  6
CONTINUOUS
 62
     3
 10
65.400000000000063
 20
-92.933000000000007
 30
0.0
 11
56.153339906040742
 21
-92.933000000000021
 31
0.0
  0
LINE
  5
DD9
  8
0
  6
CONTINUOUS
 62
     3
 10
55.400000000000048
 20
-97.498059002456117
 30
0.0
 11
56.146616093313888
 21
-97.067000000000036
 31
0.0
  0
LINE
  5
DDA
  8
0
  6
CONTINUOUS
 62
     3
 10
55.400000000000048
 20
-92.498059002456131
 30
0.0
 11
56.153339906040742
 21
-92.933000000000021
 31
0.0
  0
LINE
  5
DDB
  8
0
  6
CONTINUOUS
 62
     7
 10
56.146616093313867
 20
-92.498059002456131
 30
0.0
 11
56.146616093313909
 21
-97.498059002456117
 31
0.0
  0
LINE
  5
DDC
  8
0
  6
CONTINUOUS
 62
     7
 10
50.900000000000048
 20
-99.25
 30
0.0
 11
50.400000000000048
 21
-98.75
 31
0.0
  0
LINE
  5
DDD
  8
0
  6
CONTINUOUS
 62
     7
 10
50.900000000000048
 20
-90.750000000000014
 30
0.0
 11
50.400000000000048
 21
-91.25
 31
0.0
  0
LINE
  5
DDE
  8
0
  6
CONTINUOUS
 62
     7
 10
50.900000000000048
 20
-90.750000000000014
 30
0.0
 11
50.900000000000048
 21
-99.25
 31
0.0
  0
LINE
  5
DDF
  8
0
  6
DASHED
 62
     3
 10
54.054700538379286
 20
-95.0
 30
0.0
 11
52.900000000000048
 21
-97.0
 31
0.0
  0
LINE
  5
DE0
  8
0
  6
DASHED
 62
     3
 10
50.400000000000048
 20
-97.0
 30
0.0
 11
52.900000000000048
 21
-97.0
 31
0.0
  0
LINE
  5
DE1
  8
0
  6
DASHED
 62
     3
 10
50.400000000000048
 20
-96.0
 30
0.0
 11
52.900000000000048
 21
-96.0
 31
0.0
  0
LINE
  5
DE2
  8
0
  6
CONTINUOUS
 62
     7
 10
65.400000000000063
 20
-97.066999999999993
 30
0.0
 11
64.968940997543953
 21
-97.498059002456088
 31
0.0
  0
LINE
  5
DE3
  8
0
  6
CONTINUOUS
 62
     7
 10
65.400000000000063
 20
-92.933000000000007
 30
0.0
 11
64.965059002456215
 21
-92.498059002456131
 31
0.0
  0
LINE
  5
DE4
  8
0
  6
CONTINUOUS
 62
     7
 10
64.968940997543953
 20
-97.498059002456088
 30
0.0
 11
64.968940997543953
 21
-92.498059002456131
 31
0.0
  0
LINE
  5
DFA
  8
0
  6
DASHED
 62
     3
 10
72.196620980405129
 20
-5.4500000000000002
 30
0.0
 11
57.803379019594622
 21
-5.4500000000000002
 31
0.0
  0
LINE
  5
DFB
  8
0
  6
DASHED
 62
     3
 10
57.803379019594622
 20
5.4500000000000002
 30
0.0
 11
72.196620980405129
 21
5.4500000000000002
 31
0.0
  0
LINE
  5
E5E
  8
0
  6
CONTINUOUS
 62
     7
 10
59.500000000000128
 20
11.500000000000091
 30
0.0
 11
61.232050807569003
 21
12.50000000000008
 31
0.0
  0
LINE
  5
E60
  8
0
  6
CONTINUOUS
 62
     7
 10
61.232050807569003
 20
-12.49999999999994
 30
0.0
 11
61.232050807569003
 21
12.50000000000008
 31
0.0
  0
LINE
  5
E61
  8
0
  6
CONTINUOUS
 62
     7
 10
59.499999999999751
 20
-11.49999999999987
 30
0.0
 11
61.232050807569003
 21
-12.49999999999994
 31
0.0
  0
ENDSEC
  0
EOF
