  0
SECTION
  2
HEADER
  9
$ACADVER
  1
AC1009
  9
$INSBASE
 10
0.0
 20
0.0
 30
0.0
  9
$EXTMIN
 10
-2.0094508352432281
 20
-8.0232661024199388
 30
-0.000000000000013
  9
$EXTMAX
 10
86.084933297828115
 20
59.019672960090929
 30
0.0000000000000023
  9
$LIMMIN
 10
0.0
 20
0.0
  9
$LIMMAX
 10
420.0
 20
297.0
  9
$ORTHOMODE
 70
     1
  9
$REGENMODE
 70
     1
  9
$FILLMODE
 70
     1
  9
$QTEXTMODE
 70
     0
  9
$MIRRTEXT
 70
     0
  9
$DRAGMODE
 70
     2
  9
$LTSCALE
 40
0.5
  9
$OSMODE
 70
   317
  9
$ATTMODE
 70
     1
  9
$TEXTSIZE
 40
3.0
  9
$TRACEWID
 40
1.0
  9
$TEXTSTYLE
  7
STANDARD
  9
$CLAYER
  8
MSM_CONTINUOUS
  9
$CELTYPE
  6
BYLAYER
  9
$CECOLOR
 62
   256
  9
$DIMSCALE
 40
1.0
  9
$DIMASZ
 40
2.5
  9
$DIMEXO
 40
0.625
  9
$DIMDLI
 40
3.75
  9
$DIMRND
 40
0.0
  9
$DIMDLE
 40
0.0
  9
$DIMEXE
 40
1.25
  9
$DIMTP
 40
0.0
  9
$DIMTM
 40
0.0
  9
$DIMTXT
 40
3.0
  9
$DIMCEN
 40
2.5
  9
$DIMTSZ
 40
0.0
  9
$DIMTOL
 70
     0
  9
$DIMLIM
 70
     0
  9
$DIMTIH
 70
     0
  9
$DIMTOH
 70
     0
  9
$DIMSE1
 70
     0
  9
$DIMSE2
 70
     0
  9
$DIMTAD
 70
     1
  9
$DIMZIN
 70
     8
  9
$DIMBLK
  1
OPEN30
  9
$DIMASO
 70
     1
  9
$DIMSHO
 70
     1
  9
$DIMPOST
  1

  9
$DIMAPOST
  1

  9
$DIMALT
 70
     0
  9
$DIMALTD
 70
     3
  9
$DIMALTF
 40
0.03937007874016
  9
$DIMLFAC
 40
1.0
  9
$DIMTOFL
 70
     1
  9
$DIMTVP
 40
0.0
  9
$DIMTIX
 70
     0
  9
$DIMSOXD
 70
     0
  9
$DIMSAH
 70
     0
  9
$DIMBLK1
  1

  9
$DIMBLK2
  1

  9
$DIMSTYLE
  2
MISUMI
  9
$DIMCLRD
 70
   256
  9
$DIMCLRE
 70
   256
  9
$DIMCLRT
 70
   256
  9
$DIMTFAC
 40
1.0
  9
$DIMGAP
 40
0.625
  9
$LUNITS
 70
     2
  9
$LUPREC
 70
     2
  9
$SKETCHINC
 40
1.0
  9
$FILLETRAD
 40
0.0
  9
$AUNITS
 70
     0
  9
$AUPREC
 70
     0
  9
$MENU
  1
.
  9
$ELEVATION
 40
0.0
  9
$PELEVATION
 40
0.0
  9
$THICKNESS
 40
0.0
  9
$LIMCHECK
 70
     0
  9
$BLIPMODE
 70
     0
  9
$CHAMFERA
 40
0.5
  9
$CHAMFERB
 40
0.5
  9
$SKPOLY
 70
     0
  9
$TDCREATE
 40
2455135.5720697111
  9
$TDUPDATE
 40
2457676.6274389131
  9
$TDINDWG
 40
0.7178753241
  9
$TDUSRTIMER
 40
2457499.0216473849
  9
$USRTIMER
 70
     1
  9
$ANGBASE
 50
0.0
  9
$ANGDIR
 70
     0
  9
$PDMODE
 70
    35
  9
$PDSIZE
 40
0.0
  9
$PLINEWID
 40
0.0
  9
$COORDS
 70
     1
  9
$SPLFRAME
 70
     0
  9
$SPLINETYPE
 70
     6
  9
$SPLINESEGS
 70
     8
  9
$ATTDIA
 70
     0
  9
$ATTREQ
 70
     1
  9
$HANDLING
 70
     1
  9
$HANDSEED
  5
ED7D
  9
$SURFTAB1
 70
     6
  9
$SURFTAB2
 70
     6
  9
$SURFTYPE
 70
     6
  9
$SURFU
 70
     6
  9
$SURFV
 70
     6
  9
$UCSNAME
  2

  9
$UCSORG
 10
0.0
 20
0.0
 30
0.0
  9
$UCSXDIR
 10
1.0
 20
0.0
 30
0.0
  9
$UCSYDIR
 10
0.0
 20
1.0
 30
0.0
  9
$PUCSNAME
  2

  9
$PUCSORG
 10
0.0
 20
0.0
 30
0.0
  9
$PUCSXDIR
 10
1.0
 20
0.0
 30
0.0
  9
$PUCSYDIR
 10
0.0
 20
1.0
 30
0.0
  9
$USERI1
 70
     0
  9
$USERI2
 70
     0
  9
$USERI3
 70
     0
  9
$USERI4
 70
     0
  9
$USERI5
 70
     0
  9
$USERR1
 40
0.0
  9
$USERR2
 40
0.0
  9
$USERR3
 40
0.0
  9
$USERR4
 40
0.0
  9
$USERR5
 40
0.0
  9
$WORLDVIEW
 70
     1
  9
$SHADEDGE
 70
     3
  9
$SHADEDIF
 70
    70
  9
$TILEMODE
 70
     1
  9
$MAXACTVP
 70
    64
  9
$PLIMCHECK
 70
     0
  9
$PEXTMIN
 10
0.0
 20
0.0
 30
0.0
  9
$PEXTMAX
 10
0.0
 20
0.0
 30
0.0
  9
$PLIMMIN
 10
0.0
 20
0.0
  9
$PLIMMAX
 10
12.0
 20
9.0
  9
$UNITMODE
 70
     0
  9
$VISRETAIN
 70
     1
  9
$PLINEGEN
 70
     0
  9
$PSLTSCALE
 70
     1
  0
ENDSEC
  0
SECTION
  2
TABLES
  0
TABLE
  2
VPORT
 70
     1
  0
VPORT
  2
*ACTIVE
 70
     0
 10
0.0
 20
0.0
 11
1.0
 21
1.0
 12
42.037741231292422
 22
25.498203428835499
 13
0.0
 23
0.0
 14
10.0
 24
10.0
 15
10.0
 25
10.0
 16
0.0
 26
0.0
 36
1.0
 17
0.0
 27
0.0
 37
0.0
 40
67.523533607761848
 41
1.9078947368421051
 42
50.0
 43
0.0
 44
0.0
 50
0.0
 51
0.0
 71
    16
 72
  1000
 73
     1
 74
     3
 75
     0
 76
     0
 77
     0
 78
     0
  0
ENDTAB
  0
TABLE
  2
LTYPE
 70
     2
  0
LTYPE
  2
CONTINUOUS
 70
     0
  3
Solid line
 72
    65
 73
     0
 40
0.0
  0
LTYPE
  2
CENTER
 70
     0
  3
Center ____ _ ____ _ ____ _ ____ _ ____ _ ____
 72
    65
 73
     4
 40
50.799999999999997
 49
31.75
 49
-6.3499999999999988
 49
6.3499999999999988
 49
-6.3499999999999988
  0
ENDTAB
  0
TABLE
  2
LAYER
 70
     6
  0
LAYER
  2
0
 70
     0
 62
     7
  6
CONTINUOUS
  0
LAYER
  2
MSM_CENTER
 70
     0
 62
     1
  6
CENTER
  0
LAYER
  2
DEFPOINTS
 70
     0
 62
     7
  6
CONTINUOUS
  0
LAYER
  2
MSM_CONTINUOUS
 70
     0
 62
     7
  6
CONTINUOUS
  0
LAYER
  2
MSM_PART_NUMBER
 70
     0
 62
     7
  6
CONTINUOUS
  0
ENDTAB
  0
TABLE
  2
STYLE
 70
     1
  0
STYLE
  2
STANDARD
 70
     0
 40
3.0
 41
1.0
 50
0.0
 71
     0
 42
3.0
  3
txt.shx
  4
bigfont.shx
  0
ENDTAB
  0
TABLE
  2
VIEW
 70
     0
  0
ENDTAB
  0
TABLE
  2
UCS
 70
     0
  0
ENDTAB
  0
TABLE
  2
APPID
 70
    25
  0
APPID
  2
ACAD
 70
     0
  0
APPID
  2
ACAD_MLEADERVER
 70
     0
  0
APPID
  2
ACAD_EXEMPT_FROM_CAD_STANDARDS
 70
     0
  0
APPID
  2
ACDBBLOCKREPETAG
 70
     0
  0
APPID
  2
ACAD_DSTYLE_DIMJOGGED_JOGA
 70
     0
  0
APPID
  2
ACAECLAYERSTANDARD
 70
     0
  0
APPID
  2
GENIUS_GENODEF_13
 70
     0
  0
APPID
  2
GENIUS_GENOBJ-N-FIL_13
 70
     0
  0
APPID
  2
ACAD_PSEXT
 70
     0
  0
APPID
  2
ACAD_DSTYLE_DIMRADIAL_EXTENSION
 70
     0
  0
APPID
  2
ACDBDYNAMICBLOCKTRUENAME
 70
     0
  0
APPID
  2
ACDBDYNAMICBLOCKGUID
 70
     0
  0
APPID
  2
ACDBBLOCKREPBTAG
 70
     0
  0
APPID
  2
ACAUTHENVIRON
 70
     0
  0
APPID
  2
GRADIENTCOLOR1ACI
 70
     0
  0
APPID
  2
GRADIENTCOLOR2ACI
 70
     0
  0
APPID
  2
ACAD_DSTYLE_DIMJAG
 70
     0
  0
APPID
  2
ACAD_DSTYLE_DIMTALN
 70
     0
  0
APPID
  2
ACCMTRANSPARENCY
 70
     0
  0
APPID
  2
ACAD_DSTYLE_DIMBREAK
 70
     0
  0
APPID
  2
ACAD_DSTYLE_DIMFLIPARROW_W
 70
     0
  0
APPID
  2
ACAD_DSTYLE_DIM_LINETYPE
 70
     0
  0
APPID
  2
ACAD_DSTYLE_DIM_EXT1_LINETYPE
 70
     0
  0
APPID
  2
ACAD_DSTYLE_DIM_EXT2_LINETYPE
 70
     0
  0
APPID
  2
ACAD_NAV_VCDISPLAY
 70
     0
  0
ENDTAB
  0
TABLE
  2
DIMSTYLE
 70
     1
  0
DIMSTYLE
  2
MISUMI
 70
     0
  3

  4

  5
OPEN30
  6

  7

 40
1.0
 41
2.5
 42
0.625
 43
3.75
 44
1.25
 45
0.0
 46
0.0
 47
0.0
 48
0.0
140
3.0
141
2.5
142
0.0
143
0.03937007874016
144
1.0
145
0.0
146
1.0
147
0.625
 71
     0
 72
     0
 73
     0
 74
     0
 75
     0
 76
     0
 77
     1
 78
     8
170
     0
171
     3
172
     1
173
     0
174
     0
175
     0
176
   256
177
   256
178
   256
  0
ENDTAB
  0
ENDSEC
  0
SECTION
  2
BLOCKS
  0
BLOCK
  8
0
  2
$MODEL_SPACE
 70
     0
 10
0.0
 20
0.0
 30
0.0
  3
$MODEL_SPACE
  1

  0
ENDBLK
  5
21
  8
0
  0
BLOCK
 67
     1
  8
0
  2
$PAPER_SPACE
 70
     0
 10
0.0
 20
0.0
 30
0.0
  3
$PAPER_SPACE
  1

  0
ENDBLK
  5
EC88
 67
     1
  8
0
  0
BLOCK
  8
0
 62
     7
  2
_OPEN30
 70
     0
 10
0.0
 20
0.0
 30
0.0
  3
_OPEN30
  1

  0
LINE
  5
D7
  8
0
  6
BYBLOCK
 62
     0
 10
-1.0
 20
0.26794919
 30
0.0
 11
0.0
 21
0.0
 31
0.0
  0
LINE
  5
D8
  8
0
  6
BYBLOCK
 62
     0
 10
0.0
 20
0.0
 30
0.0
 11
-1.0
 21
-0.26794919
 31
0.0
  0
LINE
  5
D9
  8
0
  6
BYBLOCK
 62
     0
 10
0.0
 20
0.0
 30
0.0
 11
-1.0
 21
0.0
 31
0.0
  0
ENDBLK
  5
DB
  8
0
 62
     7
  0
BLOCK
  8
0
  2
*U6
 70
     1
 10
0.0
 20
0.0
 30
0.0
  3
*U6
  1

  0
TEXT
  5
ED6E
  8
MSM_PART_NUMBER
 10
0.0
 20
-3.0
 30
0.0
 40
3.0
  1
BGCZ608ZZ-25
  0
ENDBLK
  5
ED70
  8
0
  0
BLOCK
  8
0
  2
*U7
 70
     1
 10
0.0
 20
0.0
 30
0.0
  3
*U7
  1

  0
TEXT
  5
ED72
  8
MSM_PART_NUMBER
 10
0.0
 20
-8.0
 30
0.0
 40
3.0
  1
BGCZ0608
  0
ENDBLK
  5
ED74
  8
0
  0
BLOCK
  8
0
  2
*U8
 70
     1
 10
0.0
 20
0.0
 30
0.0
  3
*U8
  1

  0
TEXT
  5
ED76
  8
MSM_PART_NUMBER
 10
230.78420101418749
 20
4.7390233652656937
 30
0.0
 40
3.0
  1
bgcz0608.dwg
  0
ENDBLK
  5
ED78
  8
0
  0
ENDSEC
  0
SECTION
  2
ENTITIES
  0
INSERT
  5
DCB4
  8
MSM_CONTINUOUS
  2
*U6
 10
0.0
 20
0.0
 30
0.0
  0
INSERT
  5
DCB5
  8
MSM_CONTINUOUS
  2
*U7
 10
0.0
 20
0.0
 30
0.0
  0
LINE
  5
E328
  8
MSM_CONTINUOUS
 10
25.000000000000011
 20
47.000000000000192
 30
0.0
 11
25.000000000000011
 21
20.000000000000309
 31
0.0
  0
LINE
  5
E32A
  8
MSM_CONTINUOUS
 10
22.34999999999992
 20
22.000000000000199
 30
0.0
 11
22.35000000000003
 21
45.000000000000313
 31
0.0
  0
LINE
  5
E32B
  8
MSM_CONTINUOUS
 10
15.35000000000003
 20
44.200000000000301
 30
0.0
 11
15.35000000000003
 21
22.800000000000011
 31
0.0
  0
LINE
  5
E32C
  8
MSM_CONTINUOUS
 10
0.0000000000000071
 20
47.000000000000192
 30
0.0
 11
0.0000000000000071
 21
20.000000000000512
 31
0.0
  0
LINE
  5
E32D
  8
MSM_CONTINUOUS
 10
2.6500000000000119
 20
45.000000000000313
 30
0.0
 11
2.6500000000000119
 21
22.00000000000011
 31
0.0
  0
LINE
  5
E32F
  8
MSM_CONTINUOUS
 10
9.6500000000002117
 20
22.800000000000331
 30
0.0
 11
9.6500000000002117
 21
44.200000000000301
 31
0.0
  0
LINE
  5
E332
  8
MSM_CENTER
 10
-1.999999999999992
 20
33.500000000000213
 30
0.0
 11
27.000000000000011
 21
33.500000000000199
 31
0.0
  0
LINE
  5
E333
  8
MSM_CONTINUOUS
 10
9.3500000000000298
 20
37.500000000000199
 30
0.0
 11
2.9500000000000242
 21
37.500000000000199
 31
0.0
  0
ARC
  5
E334
  8
MSM_CONTINUOUS
 10
2.9500000000000242
 20
37.800000000000331
 30
0.0
 40
0.3
 50
180.0
 51
270.0
  0
ARC
  5
E335
  8
MSM_CONTINUOUS
 10
9.3500000000000298
 20
37.800000000000331
 30
0.0
 40
0.3
 50
270.0
 51
0.0
  0
LINE
  5
E336
  8
MSM_CONTINUOUS
 10
22.04999999999982
 20
37.500000000000199
 30
0.0
 11
15.650000000000009
 21
37.500000000000199
 31
0.0
  0
ARC
  5
E337
  8
MSM_CONTINUOUS
 10
15.650000000000009
 20
37.800000000000331
 30
0.0
 40
0.3
 50
180.0
 51
270.0
  0
ARC
  5
E338
  8
MSM_CONTINUOUS
 10
22.04999999999982
 20
37.800000000000331
 30
0.0
 40
0.3
 50
270.0
 51
0.0
  0
LINE
  5
E339
  8
MSM_CONTINUOUS
 10
0.0000000000000071
 20
47.000000000000192
 30
0.0
 11
4.999999999999921
 21
47.000000000000192
 31
0.0
  0
LINE
  5
E33B
  8
MSM_CENTER
 10
2.999999999999921
 20
52.000000000000199
 30
0.0
 11
15.000000000000201
 21
52.000000000000199
 31
0.0
  0
LINE
  5
E33D
  8
MSM_CONTINUOUS
 10
13.000000000000201
 20
47.000000000000192
 30
0.0
 11
25.000000000000011
 21
47.000000000000192
 31
0.0
  0
LINE
  5
E33E
  8
MSM_CONTINUOUS
 10
8.9000000000000128
 20
56.000000000000313
 30
0.0
 11
8.9000000000000128
 21
48.000000000000199
 31
0.0
  0
LINE
  5
E33F
  8
MSM_CONTINUOUS
 10
4.999999999999921
 20
57.000000000000313
 30
0.0
 11
4.999999999999921
 21
47.000000000000192
 31
0.0
  0
LINE
  5
E340
  8
MSM_CONTINUOUS
 10
13.000000000000201
 20
57.000000000000313
 30
0.0
 11
13.000000000000201
 21
47.000000000000192
 31
0.0
  0
LINE
  5
E341
  8
MSM_CONTINUOUS
 10
8.9000000000000128
 20
48.000000000000199
 30
0.0
 11
13.000000000000201
 21
48.000000000000199
 31
0.0
  0
LINE
  5
E342
  8
MSM_CONTINUOUS
 10
9.6500000000002117
 20
42.500000000000199
 30
0.0
 11
15.35000000000003
 21
42.500000000000199
 31
0.0
  0
CIRCLE
  5
E343
  8
MSM_CONTINUOUS
 10
6.1500000000000119
 20
41.099990000000297
 30
0.0
 40
2.0
  0
LINE
  5
E344
  8
MSM_CONTINUOUS
 10
2.6500000000000119
 20
44.500000000000192
 30
0.0
 11
9.3500000000000298
 21
44.500000000000192
 31
0.0
  0
LINE
  5
E345
  8
MSM_CONTINUOUS
 10
3.2500000000000071
 20
42.183320000000201
 30
0.0
 11
3.2500000000000071
 21
39.998320000000213
 31
0.0
  0
LINE
  5
E346
  8
MSM_CONTINUOUS
 10
3.6500000000000119
 20
42.39476000000041
 30
0.0
 11
3.3833500000001271
 21
42.128100000750401
 31
0.0
  0
ARC
  5
E347
  8
MSM_CONTINUOUS
 10
3.3692119138616059
 20
39.48126679458241
 30
0.0
 40
0.2235688896466488
 50
219.99773644402109
 51
343.16565675332117
  0
LINE
  5
E348
  8
MSM_CONTINUOUS
 10
3.583340000000113
 20
39.998320000000213
 30
0.0
 11
3.3833500000001271
 21
39.998320000000213
 31
0.0
  0
LINE
  5
E349
  8
MSM_CONTINUOUS
 10
3.3833400000002101
 20
39.864990000000212
 30
0.0
 11
3.583340000000113
 21
39.864990000000212
 31
0.0
  0
ARC
  5
E34A
  8
MSM_CONTINUOUS
 10
3.3832987992691712
 20
39.998288796554249
 30
0.0
 40
0.1332988029213168
 50
179.9865878332233
 51
270.01770929661188
  0
LINE
  5
E34B
  8
MSM_CONTINUOUS
 10
3.3833500000001271
 20
39.998320000000213
 30
0.0
 11
3.3833500000001271
 21
42.128100000750401
 31
0.0
  0
LINE
  5
E34C
  8
MSM_CONTINUOUS
 10
2.7499699979999108
 20
39.599990000000297
 30
0.0
 11
2.9833300000000298
 21
39.599990000000297
 31
0.0
  0
LINE
  5
E34D
  8
MSM_CONTINUOUS
 10
2.6499900000000092
 20
39.500020000000212
 30
0.0
 11
2.7499699979999108
 21
39.599990000000297
 31
0.0
  0
LINE
  5
E34E
  8
MSM_CONTINUOUS
 10
2.9833300000000298
 20
39.599990000000297
 30
0.0
 11
3.1979425310536049
 21
39.337566248548711
 31
0.0
  0
LINE
  5
E34F
  8
MSM_CONTINUOUS
 10
3.7885800000000311
 20
39.799990000000321
 30
0.0
 11
4.630131584642931
 21
39.799990000000321
 31
0.0
  0
LINE
  5
E350
  8
MSM_CONTINUOUS
 10
3.68856340510888
 20
39.706004405781123
 30
0.0
 11
3.7885800000000311
 21
39.799990000000321
 31
0.0
  0
LINE
  5
E351
  8
MSM_CONTINUOUS
 10
3.583340000000113
 20
39.864990000000212
 30
0.0
 11
3.583340000000113
 21
39.998320000000213
 31
0.0
  0
LINE
  5
E352
  8
MSM_CONTINUOUS
 10
3.5832000000000122
 20
39.416520000000311
 30
0.0
 11
3.68856340510888
 21
39.706004405781123
 31
0.0
  0
ARC
  5
E353
  8
MSM_CONTINUOUS
 10
3.3510471664449182
 20
43.184357472404329
 30
0.0
 40
0.1656228340289963
 50
0.0043338129180491
 51
149.99556168328931
  0
LINE
  5
E354
  8
MSM_CONTINUOUS
 10
3.5166700000001252
 20
42.449990000000298
 30
0.0
 11
3.2500000000000071
 21
42.183320000000201
 31
0.0
  0
ARC
  5
E355
  8
MSM_CONTINUOUS
 10
3.3510399087959271
 20
43.184362256735113
 30
0.0
 40
0.2989600913044581
 50
0.0014839987964882
 51
150.004935365661
  0
LINE
  5
E356
  8
MSM_CONTINUOUS
 10
2.6500300000001071
 20
43.2499800000001
 30
0.0
 11
2.7499900089982039
 21
43.149990000000308
 31
0.0
  0
LINE
  5
E357
  8
MSM_CONTINUOUS
 10
3.032130000000115
 20
42.967820000000209
 30
0.0
 11
3.1476024998327601
 21
42.901174328768491
 31
0.0
  0
ARC
  5
E358
  8
MSM_CONTINUOUS
 10
2.9500000000000242
 20
44.200000000000301
 30
0.0
 40
0.3
 50
90.0
 51
180.0
  0
LINE
  5
E359
  8
MSM_CONTINUOUS
 10
2.9833277542696299
 20
43.149990000000308
 30
0.0
 11
3.0921200000000288
 21
43.333820000000202
 31
0.0
  0
LINE
  5
E35A
  8
MSM_CONTINUOUS
 10
2.7499900089982039
 20
43.149990000000308
 30
0.0
 11
2.9833277542696299
 21
43.149990000000308
 31
0.0
  0
ARC
  5
E35B
  8
MSM_CONTINUOUS
 10
3.0988252779735479
 20
43.083309177081532
 30
0.0
 40
0.1333642010693796
 50
150.00063379915929
 51
239.99346270558129
  0
LINE
  5
E35C
  8
MSM_CONTINUOUS
 10
3.0987886301593122
 20
43.083310790799509
 30
0.0
 11
3.207620000000027
 21
43.267180000000302
 31
0.0
  0
LINE
  5
E35D
  8
MSM_CONTINUOUS
 10
3.214281655183941
 20
43.016637498618373
 30
0.0
 11
3.0987886301593122
 21
43.083310790799509
 31
0.0
  0
LINE
  5
E35E
  8
MSM_CONTINUOUS
 10
3.1476024998327641
 20
42.901174328768491
 30
0.0
 11
3.2142816551839442
 21
43.016637498618373
 31
0.0
  0
LINE
  5
E361
  8
MSM_CONTINUOUS
 10
3.7499900019997181
 20
42.450000000000301
 30
0.0
 11
4.674373692325875
 21
42.450000000000301
 31
0.0
  0
LINE
  5
E362
  8
MSM_CONTINUOUS
 10
3.6500000000000141
 20
42.550000001000207
 30
0.0
 11
3.7499900019997181
 21
42.450000000000301
 31
0.0
  0
LINE
  5
E363
  8
MSM_CONTINUOUS
 10
3.6500000000000119
 20
43.184370000000307
 30
0.0
 11
3.6500000000000119
 21
42.39476000000041
 31
0.0
  0
LINE
  5
E364
  8
MSM_CONTINUOUS
 10
3.5166700000001252
 20
43.184370000000307
 30
0.0
 11
3.5166700000001252
 21
42.449990000000298
 31
0.0
  0
ARC
  5
E381
  8
MSM_CONTINUOUS
 10
9.3500000000000298
 20
44.200000000000301
 30
0.0
 40
0.3
 50
0.0
 51
90.0
  0
LINE
  5
E385
  8
MSM_CONTINUOUS
 10
4.999999999999921
 20
54.250000000000199
 30
0.0
 11
8.9000000000000128
 21
54.250000000000199
 31
0.0
  0
LINE
  5
E386
  8
MSM_CONTINUOUS
 10
4.999999999999921
 20
49.750000000000199
 30
0.0
 11
8.9000000000000128
 21
49.750000000000199
 31
0.0
  0
LINE
  5
E387
  8
MSM_CONTINUOUS
 10
15.650000000000009
 20
44.500000000000192
 30
0.0
 11
22.35000000000003
 21
44.500000000000192
 31
0.0
  0
ARC
  5
E396
  8
MSM_CONTINUOUS
 10
15.650000000000009
 20
44.200000000000301
 30
0.0
 40
0.3
 50
90.0
 51
180.0
  0
ARC
  5
E3B5
  8
MSM_CONTINUOUS
 10
22.04999999999982
 20
44.200000000000301
 30
0.0
 40
0.3
 50
0.0
 51
90.0
  0
LINE
  5
E3C5
  8
MSM_CONTINUOUS
 10
4.999999999999921
 20
57.000000000000313
 30
0.0
 11
13.000000000000201
 21
57.000000000000313
 31
0.0
  0
LINE
  5
E3C6
  8
MSM_CONTINUOUS
 10
8.9000000000000128
 20
56.000000000000313
 30
0.0
 11
13.000000000000201
 21
56.000000000000313
 31
0.0
  0
LINE
  5
E3C7
  8
MSM_CONTINUOUS
 10
55.059553336183768
 20
51.993242008907202
 30
0.0
 11
55.059553336183768
 21
15.006757991093311
 31
0.0
  0
LINE
  5
E3C8
  8
MSM_CONTINUOUS
 10
84.059553336183882
 20
51.993242008907202
 30
0.0
 11
84.059553336183882
 21
15.006757991093311
 31
0.0
  0
CIRCLE
  5
E3C9
  8
MSM_CONTINUOUS
 10
69.559553336183754
 20
33.500000000000199
 30
0.0
 40
11.0
  0
CIRCLE
  5
E3CA
  8
MSM_CONTINUOUS
 10
69.559553336183754
 20
33.500000000000199
 30
0.0
 40
13.5
  0
LINE
  5
E3CB
  8
MSM_CENTER
 10
69.559553336183754
 20
59.000000000000192
 30
0.0
 11
69.559553336183754
 21
8.0000000000001972
 31
0.0
  0
ARC
  5
E3CC
  8
MSM_CONTINUOUS
 10
69.559553336183754
 20
33.500000000000199
 30
0.0
 40
23.5
 50
231.9010628945324
 51
308.0989371054664
  0
LINE
  5
E3CD
  8
MSM_CENTER
 10
63.559553336183782
 20
15.000000000000311
 30
0.0
 11
75.559553336183768
 21
15.00000000000033
 31
0.0
  0
LINE
  5
E3CE
  8
MSM_CENTER
 10
53.059553336183782
 20
33.500000000000192
 30
0.0
 11
86.059553336183853
 21
33.500000000000121
 31
0.0
  0
CIRCLE
  5
E3CF
  8
MSM_CONTINUOUS
 10
69.559553336183754
 20
15.000000000003411
 30
0.0
 40
4.0
  0
CIRCLE
  5
E3D0
  8
MSM_CONTINUOUS
 10
69.559553336183754
 20
15.000000000000311
 30
0.0
 40
2.25
  0
CIRCLE
  5
E3D1
  8
MSM_CONTINUOUS
 10
69.559553336183754
 20
33.500000000000199
 30
0.0
 40
4.0
  0
ARC
  5
E3D2
  8
MSM_CONTINUOUS
 10
69.559553336183754
 20
33.500000000000199
 30
0.0
 40
23.5
 50
51.901062894532508
 51
128.09893710546709
  0
LINE
  5
E3D3
  8
MSM_CENTER
 10
63.559553336183782
 20
52.000000000000171
 30
0.0
 11
75.559553336183768
 21
52.000000000000142
 31
0.0
  0
CIRCLE
  5
E3D4
  8
MSM_CONTINUOUS
 10
69.559553336183754
 20
52.000000000000199
 30
0.0
 40
4.0
  0
CIRCLE
  5
E3D5
  8
MSM_CONTINUOUS
 10
69.559553336183754
 20
52.000000000000107
 30
0.0
 40
2.25
  0
LINE
  5
E3D6
  8
MSM_CONTINUOUS
 10
8.9000000000000128
 20
11.0
 30
0.0
 11
13.000000000000201
 21
11.0
 31
0.0
  0
LINE
  5
E3D7
  8
MSM_CONTINUOUS
 10
4.999999999999921
 20
10.0
 30
0.0
 11
13.000000000000201
 21
10.0
 31
0.0
  0
ARC
  5
E3E7
  8
MSM_CONTINUOUS
 10
22.04999999999982
 20
22.800000000000011
 30
0.0
 40
0.3
 50
270.0
 51
0.0
  0
ARC
  5
E406
  8
MSM_CONTINUOUS
 10
15.650000000000009
 20
22.800000000000011
 30
0.0
 40
0.3
 50
180.0
 51
270.0
  0
LINE
  5
E415
  8
MSM_CONTINUOUS
 10
15.650000000000009
 20
22.5
 30
0.0
 11
22.35000000000003
 21
22.5
 31
0.0
  0
LINE
  5
E416
  8
MSM_CONTINUOUS
 10
4.999999999999921
 20
17.25
 30
0.0
 11
8.9000000000000128
 21
17.25
 31
0.0
  0
LINE
  5
E417
  8
MSM_CONTINUOUS
 10
4.999999999999921
 20
12.75000000000011
 30
0.0
 11
8.9000000000000128
 21
12.75000000000011
 31
0.0
  0
ARC
  5
E41B
  8
MSM_CONTINUOUS
 10
9.3500000000000298
 20
22.800000000000011
 30
0.0
 40
0.3
 50
270.0
 51
0.0
  0
ARC
  5
E444
  8
MSM_CONTINUOUS
 10
2.9500000000000242
 20
22.800000000000011
 30
0.0
 40
0.3
 50
180.0
 51
270.0
  0
LINE
  5
E458
  8
MSM_CONTINUOUS
 10
2.6500000000000119
 20
22.499999999999989
 30
0.0
 11
9.3500000000000298
 21
22.5
 31
0.0
  0
LINE
  5
E45A
  8
MSM_CONTINUOUS
 10
9.6500000000002117
 20
24.5
 30
0.0
 11
15.35000000000003
 21
24.5
 31
0.0
  0
LINE
  5
E45B
  8
MSM_CONTINUOUS
 10
8.9000000000000128
 20
19.00000000000011
 30
0.0
 11
13.000000000000201
 21
19.00000000000011
 31
0.0
  0
LINE
  5
E45C
  8
MSM_CONTINUOUS
 10
13.000000000000201
 20
10.0
 30
0.0
 11
13.000000000000201
 21
20.00000000000011
 31
0.0
  0
LINE
  5
E45D
  8
MSM_CONTINUOUS
 10
4.999999999999921
 20
10.0
 30
0.0
 11
4.999999999999921
 21
20.00000000000011
 31
0.0
  0
LINE
  5
E45E
  8
MSM_CONTINUOUS
 10
8.9000000000000128
 20
11.0
 30
0.0
 11
8.9000000000000128
 21
19.00000000000011
 31
0.0
  0
LINE
  5
E45F
  8
MSM_CONTINUOUS
 10
13.000000000000201
 20
20.00000000000011
 30
0.0
 11
25.000000000000011
 21
20.00000000000011
 31
0.0
  0
LINE
  5
E461
  8
MSM_CENTER
 10
2.9999999999999138
 20
15.00000000000011
 30
0.0
 11
15.000000000000201
 21
15.000000000000099
 31
0.0
  0
LINE
  5
E463
  8
MSM_CONTINUOUS
 10
0.0000000000000071
 20
20.00000000000011
 30
0.0
 11
4.999999999999921
 21
20.00000000000011
 31
0.0
  0
ARC
  5
E464
  8
MSM_CONTINUOUS
 10
22.04999999999982
 20
29.200000000000021
 30
0.0
 40
0.3
 50
0.0
 51
90.0
  0
ARC
  5
E465
  8
MSM_CONTINUOUS
 10
15.650000000000009
 20
29.200000000000021
 30
0.0
 40
0.3
 50
90.0
 51
180.0
  0
LINE
  5
E466
  8
MSM_CONTINUOUS
 10
22.04999999999982
 20
29.500000000000199
 30
0.0
 11
15.650000000000009
 21
29.500000000000199
 31
0.0
  0
ARC
  5
E467
  8
MSM_CONTINUOUS
 10
9.3500000000000298
 20
29.200000000000021
 30
0.0
 40
0.3
 50
0.0
 51
90.0
  0
ARC
  5
E468
  8
MSM_CONTINUOUS
 10
2.9500000000000242
 20
29.200000000000021
 30
0.0
 40
0.3
 50
90.0
 51
180.0
  0
LINE
  5
E469
  8
MSM_CONTINUOUS
 10
9.3500000000000298
 20
29.500000000000199
 30
0.0
 11
2.9500000000000242
 21
29.500000000000199
 31
0.0
  0
LINE
  5
E753
  8
MSM_CONTINUOUS
 10
23.349999999999941
 20
45.000000000000199
 30
0.0
 11
23.349999999999941
 21
23.143855146036831
 31
0.0
  0
LINE
  5
E754
  8
MSM_CONTINUOUS
 10
23.349999999999941
 20
23.143855146036831
 30
0.0
 11
22.349999999999941
 21
23.143855146036831
 31
0.0
  0
LINE
  5
E755
  8
MSM_CONTINUOUS
 10
23.349999999999941
 20
27.26748830366077
 30
0.0
 11
22.349999999999941
 21
27.26748830366077
 31
0.0
  0
LINE
  5
E756
  8
MSM_CONTINUOUS
 10
23.349999999999941
 20
42.500000000000199
 30
0.0
 11
22.349999999999941
 21
42.500000000000199
 31
0.0
  0
LINE
  5
E757
  8
MSM_CONTINUOUS
 10
23.500000000000028
 20
45.000000000000199
 30
0.0
 11
22.349999999999941
 21
45.000000000000199
 31
0.0
  0
LINE
  5
E758
  8
MSM_CONTINUOUS
 10
23.500000000000028
 20
22.000000000000199
 30
0.0
 11
22.349999999999941
 21
22.000000000000199
 31
0.0
  0
LINE
  5
E759
  8
MSM_CONTINUOUS
 10
23.500000000000028
 20
45.000000000000199
 30
0.0
 11
23.500000000000028
 21
22.000000000000199
 31
0.0
  0
LINE
  5
E75A
  8
MSM_CONTINUOUS
 10
25.000000000000171
 20
44.500000000000192
 30
0.0
 11
23.500000000000028
 21
44.500000000000192
 31
0.0
  0
LINE
  5
E75B
  8
MSM_CONTINUOUS
 10
25.000000000000171
 20
22.500000000000199
 30
0.0
 11
23.500000000000028
 21
22.500000000000199
 31
0.0
  0
LINE
  5
E761
  8
MSM_CONTINUOUS
 10
1.6500000000000119
 20
45.000000000000199
 30
0.0
 11
1.6500000000000119
 21
23.143855146036831
 31
0.0
  0
LINE
  5
E762
  8
MSM_CONTINUOUS
 10
1.6500000000000119
 20
23.143855146036831
 30
0.0
 11
2.6500000000000119
 21
23.143855146036831
 31
0.0
  0
LINE
  5
E764
  8
MSM_CONTINUOUS
 10
1.6500000000000119
 20
42.500000000000199
 30
0.0
 11
2.6500000000000119
 21
42.500000000000199
 31
0.0
  0
LINE
  5
E765
  8
MSM_CONTINUOUS
 10
1.499999999999921
 20
45.000000000000199
 30
0.0
 11
2.6500000000000119
 21
45.000000000000199
 31
0.0
  0
LINE
  5
E766
  8
MSM_CONTINUOUS
 10
1.499999999999921
 20
22.000000000000199
 30
0.0
 11
2.6500000000000119
 21
22.000000000000199
 31
0.0
  0
LINE
  5
E767
  8
MSM_CONTINUOUS
 10
1.499999999999921
 20
45.000000000000199
 30
0.0
 11
1.499999999999921
 21
22.000000000000199
 31
0.0
  0
LINE
  5
E768
  8
MSM_CONTINUOUS
 10
-0.0000000000000782
 20
44.500000000000192
 30
0.0
 11
1.499999999999921
 21
44.500000000000192
 31
0.0
  0
LINE
  5
E769
  8
MSM_CONTINUOUS
 10
-0.0000000000000782
 20
22.500000000000199
 30
0.0
 11
1.499999999999921
 21
22.500000000000199
 31
0.0
  0
ARC
  5
E771
  8
MSM_CONTINUOUS
 10
74.078938601856549
 20
25.143855146036842
 30
0.0
 40
2.0000000000000071
 50
196.2533524164958
 51
253.15111604349801
  0
LINE
  5
E772
  8
MSM_CONTINUOUS
 10
72.14148470269734
 20
24.643723670830461
 30
0.0
 11
72.158871642357695
 21
24.58408477254385
 31
0.0
  0
ARC
  5
E773
  8
MSM_CONTINUOUS
 10
74.109553336183723
 20
25.217488303660719
 30
0.0
 40
2.0500000000000012
 50
62.777607471167059
 51
196.2533524164941
  0
ARC
  5
E774
  8
MSM_CONTINUOUS
 10
75.985079873197179
 20
28.863362713038999
 30
0.0
 40
2.05000000000001
 50
242.7776074711598
 51
328.02230512368692
  0
ARC
  5
E775
  8
MSM_CONTINUOUS
 10
69.559553336183754
 20
32.875000000000213
 30
0.0
 40
9.6249999999999982
 50
328.02230512368891
 51
211.97769487631109
  0
ARC
  5
E776
  8
MSM_CONTINUOUS
 10
63.134026799170357
 20
28.863362713038999
 30
0.0
 40
2.050000000000002
 50
211.9776948763149
 51
297.22239252884009
  0
ARC
  5
E777
  8
MSM_CONTINUOUS
 10
65.009553336183814
 20
25.217488303660769
 30
0.0
 40
2.0499999999999998
 50
343.74664758350252
 51
117.2223925288329
  0
LINE
  5
E778
  8
MSM_CONTINUOUS
 10
66.960235030009841
 20
24.58408477254385
 30
0.0
 11
66.977621969670196
 21
24.643723670830461
 31
0.0
  0
ARC
  5
E779
  8
MSM_CONTINUOUS
 10
65.040168070510987
 20
25.143855146036788
 30
0.0
 40
2.0000000000000009
 50
286.8488839565087
 51
343.74664758350423
  0
CIRCLE
  5
E77A
  8
MSM_CONTINUOUS
 10
74.109553336183723
 20
25.217488303660719
 30
0.0
 40
1.0
  0
CIRCLE
  5
E77B
  8
MSM_CONTINUOUS
 10
65.009553336183814
 20
25.217488303660769
 30
0.0
 40
1.0
  0
LINE
  5
EB18
  8
MSM_CONTINUOUS
 10
2.6500000000000048
 20
27.26748830366077
 30
0.0
 11
1.6500000000000119
 21
27.26748830366077
 31
0.0
  0
CIRCLE
  5
EBAB
  8
MSM_CONTINUOUS
 10
6.1500000000000119
 20
41.099990000000297
 30
0.0
 40
2.0
  0
LINE
  5
EBAC
  8
MSM_CONTINUOUS
 10
9.0500000000000185
 20
42.183320000000201
 30
0.0
 11
9.0500000000000185
 21
39.998320000000213
 31
0.0
  0
LINE
  5
EBAD
  8
MSM_CONTINUOUS
 10
8.6500000000000128
 20
42.39476000000041
 30
0.0
 11
8.9166499999998976
 21
42.128100000750401
 31
0.0
  0
ARC
  5
EBAE
  8
MSM_CONTINUOUS
 10
8.9307880861384188
 20
39.48126679458241
 30
0.0
 40
0.2235688896466488
 50
196.83434324667871
 51
320.00226355597903
  0
LINE
  5
EBAF
  8
MSM_CONTINUOUS
 10
8.9166599999998155
 20
39.864990000000212
 30
0.0
 11
8.7166599999999121
 21
39.864990000000212
 31
0.0
  0
ARC
  5
EBB0
  8
MSM_CONTINUOUS
 10
8.9167012007308522
 20
39.998288796554249
 30
0.0
 40
0.1332988029213168
 50
269.98229070338812
 51
0.0134121667767401
  0
LINE
  5
EBB1
  8
MSM_CONTINUOUS
 10
9.5500300020001134
 20
39.599990000000297
 30
0.0
 11
9.3166699999999931
 21
39.599990000000297
 31
0.0
  0
LINE
  5
EBB2
  8
MSM_CONTINUOUS
 10
9.3166699999999931
 20
39.599990000000297
 30
0.0
 11
9.1020574689464198
 21
39.337566248548711
 31
0.0
  0
LINE
  5
EBB3
  8
MSM_CONTINUOUS
 10
8.5114199999999922
 20
39.799990000000321
 30
0.0
 11
7.6698684153570929
 21
39.799990000000321
 31
0.0
  0
LINE
  5
EBB4
  8
MSM_CONTINUOUS
 10
8.6114365948911455
 20
39.706004405781123
 30
0.0
 11
8.5114199999999922
 21
39.799990000000321
 31
0.0
  0
LINE
  5
EBB5
  8
MSM_CONTINUOUS
 10
8.7166599999999121
 20
39.864990000000212
 30
0.0
 11
8.7166599999999121
 21
39.998320000000213
 31
0.0
  0
ARC
  5
EBB6
  8
MSM_CONTINUOUS
 10
8.9489528335551078
 20
43.184357472404329
 30
0.0
 40
0.1656228340289963
 50
30.00443831671091
 51
179.99566618708201
  0
LINE
  5
EBB7
  8
MSM_CONTINUOUS
 10
8.7833299999998982
 20
42.449990000000298
 30
0.0
 11
9.0500000000000185
 21
42.183320000000201
 31
0.0
  0
ARC
  5
EBB8
  8
MSM_CONTINUOUS
 10
8.9489600912040981
 20
43.184362256735113
 30
0.0
 40
0.2989600913044581
 50
29.995064634338799
 51
179.99851600120351
  0
LINE
  5
EBB9
  8
MSM_CONTINUOUS
 10
9.3166722457303948
 20
43.149990000000308
 30
0.0
 11
9.2078799999999958
 21
43.333820000000202
 31
0.0
  0
LINE
  5
EBBA
  8
MSM_CONTINUOUS
 10
9.5500099910018221
 20
43.149990000000308
 30
0.0
 11
9.3166722457303948
 21
43.149990000000308
 31
0.0
  0
ARC
  5
EBBB
  8
MSM_CONTINUOUS
 10
9.2011747220264741
 20
43.083309177081532
 30
0.0
 40
0.1333642010693796
 50
300.00653729441831
 51
29.99936620084064
  0
LINE
  5
EBBC
  8
MSM_CONTINUOUS
 10
9.2012113698407134
 20
43.083310790799509
 30
0.0
 11
9.0923799999999986
 21
43.267180000000302
 31
0.0
  0
LINE
  5
EBBD
  8
MSM_CONTINUOUS
 10
8.5500099980003075
 20
42.450000000000301
 30
0.0
 11
7.6256263076741488
 21
42.450000000000301
 31
0.0
  0
LINE
  5
EBBE
  8
MSM_CONTINUOUS
 10
8.6500000000000128
 20
43.184370000000307
 30
0.0
 11
8.6500000000000128
 21
42.39476000000041
 31
0.0
  0
LINE
  5
EBBF
  8
MSM_CONTINUOUS
 10
8.7833299999998982
 20
43.184370000000307
 30
0.0
 11
8.7833299999998982
 21
42.449990000000298
 31
0.0
  0
LINE
  5
EBC0
  8
MSM_CONTINUOUS
 10
9.6500000000002117
 20
43.250010009001301
 30
0.0
 11
9.5500099910018221
 21
43.149990000000308
 31
0.0
  0
LINE
  5
EBC1
  8
MSM_CONTINUOUS
 10
9.2678699999999097
 20
42.967820000000209
 30
0.0
 11
9.1523975001672646
 21
42.901174328768491
 31
0.0
  0
LINE
  5
EBC2
  8
MSM_CONTINUOUS
 10
9.1523975001672611
 20
42.901174328768491
 30
0.0
 11
9.0857183448160814
 21
43.016637498618373
 31
0.0
  0
LINE
  5
EBC3
  8
MSM_CONTINUOUS
 10
8.9166499999998976
 20
39.998320000000213
 30
0.0
 11
8.9166499999998976
 21
42.128100000750401
 31
0.0
  0
LINE
  5
EBC4
  8
MSM_CONTINUOUS
 10
8.650000000000011
 20
42.550000001000207
 30
0.0
 11
8.5500099980003075
 21
42.450000000000301
 31
0.0
  0
LINE
  5
EBC5
  8
MSM_CONTINUOUS
 10
8.7168000000000134
 20
39.416520000000311
 30
0.0
 11
8.6114365948911455
 21
39.706004405781123
 31
0.0
  0
LINE
  5
EBC6
  8
MSM_CONTINUOUS
 10
9.6500000000002082
 20
39.50002999900002
 30
0.0
 11
9.5500300020001134
 21
39.599990000000297
 31
0.0
  0
LINE
  5
EBC7
  8
MSM_CONTINUOUS
 10
8.7166599999999121
 20
39.998320000000213
 30
0.0
 11
8.9166499999998976
 21
39.998320000000213
 31
0.0
  0
LINE
  5
EBC8
  8
MSM_CONTINUOUS
 10
9.0857183448160832
 20
43.016637498618373
 30
0.0
 11
9.2012113698407134
 21
43.083310790799509
 31
0.0
  0
CIRCLE
  5
EBC9
  8
MSM_CONTINUOUS
 10
18.849999999999898
 20
41.099990000000297
 30
0.0
 40
2.0
  0
LINE
  5
EBCA
  8
MSM_CONTINUOUS
 10
15.949999999999889
 20
42.183320000000201
 30
0.0
 11
15.949999999999889
 21
39.998320000000213
 31
0.0
  0
LINE
  5
EBCB
  8
MSM_CONTINUOUS
 10
16.349999999999898
 20
42.39476000000041
 30
0.0
 11
16.083350000000021
 21
42.128100000750401
 31
0.0
  0
ARC
  5
EBCC
  8
MSM_CONTINUOUS
 10
16.069211913861491
 20
39.48126679458241
 30
0.0
 40
0.2235688896466488
 50
219.9977364440212
 51
343.16565675332163
  0
LINE
  5
EBCD
  8
MSM_CONTINUOUS
 10
16.083340000000099
 20
39.864990000000212
 30
0.0
 11
16.283339999999999
 21
39.864990000000212
 31
0.0
  0
ARC
  5
EBCE
  8
MSM_CONTINUOUS
 10
16.083298799269059
 20
39.998288796554249
 30
0.0
 40
0.1332988029213168
 50
179.9865878332233
 51
270.01770929661262
  0
LINE
  5
EBCF
  8
MSM_CONTINUOUS
 10
15.4499699979998
 20
39.599990000000297
 30
0.0
 11
15.68332999999992
 21
39.599990000000297
 31
0.0
  0
LINE
  5
EBD0
  8
MSM_CONTINUOUS
 10
15.68332999999992
 20
39.599990000000297
 30
0.0
 11
15.89794253105349
 21
39.337566248548711
 31
0.0
  0
LINE
  5
EBD1
  8
MSM_CONTINUOUS
 10
16.488579999999921
 20
39.799990000000321
 30
0.0
 11
17.330131584642821
 21
39.799990000000321
 31
0.0
  0
LINE
  5
EBD2
  8
MSM_CONTINUOUS
 10
16.388563405108769
 20
39.706004405781123
 30
0.0
 11
16.488579999999921
 21
39.799990000000321
 31
0.0
  0
LINE
  5
EBD3
  8
MSM_CONTINUOUS
 10
16.283339999999999
 20
39.864990000000212
 30
0.0
 11
16.283339999999999
 21
39.998320000000213
 31
0.0
  0
ARC
  5
EBD4
  8
MSM_CONTINUOUS
 10
16.0510471664448
 20
43.184357472404329
 30
0.0
 40
0.1656228340289963
 50
0.0043338129180491
 51
149.99556168328911
  0
LINE
  5
EBD5
  8
MSM_CONTINUOUS
 10
16.216670000000011
 20
42.449990000000298
 30
0.0
 11
15.949999999999889
 21
42.183320000000201
 31
0.0
  0
ARC
  5
EBD6
  8
MSM_CONTINUOUS
 10
16.051039908795811
 20
43.184362256735113
 30
0.0
 40
0.2989600913044581
 50
0.0014839987964882
 51
150.004935365661
  0
LINE
  5
EBD7
  8
MSM_CONTINUOUS
 10
15.68332775426952
 20
43.149990000000308
 30
0.0
 11
15.792119999999921
 21
43.333820000000202
 31
0.0
  0
LINE
  5
EBD8
  8
MSM_CONTINUOUS
 10
15.449990008998091
 20
43.149990000000308
 30
0.0
 11
15.68332775426952
 21
43.149990000000308
 31
0.0
  0
ARC
  5
EBD9
  8
MSM_CONTINUOUS
 10
15.798825277973441
 20
43.083309177081532
 30
0.0
 40
0.1333642010693796
 50
150.00063379915929
 51
239.99346270558161
  0
LINE
  5
EBDA
  8
MSM_CONTINUOUS
 10
15.7987886301592
 20
43.083310790799509
 30
0.0
 11
15.907619999999911
 21
43.267180000000302
 31
0.0
  0
LINE
  5
EBDB
  8
MSM_CONTINUOUS
 10
16.449990001999609
 20
42.450000000000301
 30
0.0
 11
17.374373692325761
 21
42.450000000000301
 31
0.0
  0
LINE
  5
EBDC
  8
MSM_CONTINUOUS
 10
16.349999999999898
 20
43.184370000000307
 30
0.0
 11
16.349999999999898
 21
42.39476000000041
 31
0.0
  0
LINE
  5
EBDD
  8
MSM_CONTINUOUS
 10
16.216670000000011
 20
43.184370000000307
 30
0.0
 11
16.216670000000011
 21
42.449990000000298
 31
0.0
  0
LINE
  5
EBDE
  8
MSM_CONTINUOUS
 10
15.73213
 20
42.967820000000209
 30
0.0
 11
15.84760249983265
 21
42.901174328768491
 31
0.0
  0
LINE
  5
EBDF
  8
MSM_CONTINUOUS
 10
15.35002999999999
 20
43.2499800000001
 30
0.0
 11
15.449990008998091
 21
43.149990000000308
 31
0.0
  0
LINE
  5
EBE0
  8
MSM_CONTINUOUS
 10
15.84760249983265
 20
42.901174328768491
 30
0.0
 11
15.91428165518383
 21
43.016637498618373
 31
0.0
  0
LINE
  5
EBE1
  8
MSM_CONTINUOUS
 10
16.283199999999901
 20
39.416520000000311
 30
0.0
 11
16.388563405108769
 21
39.706004405781123
 31
0.0
  0
LINE
  5
EBE2
  8
MSM_CONTINUOUS
 10
15.349989999999901
 20
39.500020000000212
 30
0.0
 11
15.4499699979998
 21
39.599990000000297
 31
0.0
  0
LINE
  5
EBE3
  8
MSM_CONTINUOUS
 10
16.283339999999999
 20
39.998320000000213
 30
0.0
 11
16.083350000000021
 21
39.998320000000213
 31
0.0
  0
LINE
  5
EBE4
  8
MSM_CONTINUOUS
 10
15.91428165518383
 20
43.016637498618373
 30
0.0
 11
15.7987886301592
 21
43.083310790799509
 31
0.0
  0
LINE
  5
EBE5
  8
MSM_CONTINUOUS
 10
16.083350000000021
 20
39.998320000000213
 30
0.0
 11
16.083350000000021
 21
42.128100000750401
 31
0.0
  0
CIRCLE
  5
EBE6
  8
MSM_CONTINUOUS
 10
18.849999999999898
 20
41.099990000000297
 30
0.0
 40
2.0
  0
LINE
  5
EBE7
  8
MSM_CONTINUOUS
 10
16.349999999999898
 20
42.550000001000207
 30
0.0
 11
16.449990001999609
 21
42.450000000000301
 31
0.0
  0
LINE
  5
EBE8
  8
MSM_CONTINUOUS
 10
21.749999999999911
 20
42.183320000000201
 30
0.0
 11
21.749999999999911
 21
39.998320000000213
 31
0.0
  0
LINE
  5
EBE9
  8
MSM_CONTINUOUS
 10
21.349999999999898
 20
42.39476000000041
 30
0.0
 11
21.61664999999979
 21
42.128100000750401
 31
0.0
  0
ARC
  5
EBEA
  8
MSM_CONTINUOUS
 10
21.63078808613831
 20
39.48126679458241
 30
0.0
 40
0.2235688896466488
 50
196.8343432466784
 51
320.0022635559784
  0
LINE
  5
EBEB
  8
MSM_CONTINUOUS
 10
21.616659999999701
 20
39.864990000000212
 30
0.0
 11
21.416659999999801
 21
39.864990000000212
 31
0.0
  0
ARC
  5
EBEC
  8
MSM_CONTINUOUS
 10
21.616701200730748
 20
39.998288796554249
 30
0.0
 40
0.1332988029213168
 50
269.98229070338732
 51
0.0134121667767403
  0
LINE
  5
EBED
  8
MSM_CONTINUOUS
 10
22.250030001999999
 20
39.599990000000297
 30
0.0
 11
22.016669999999881
 21
39.599990000000297
 31
0.0
  0
LINE
  5
EBEE
  8
MSM_CONTINUOUS
 10
22.016669999999881
 20
39.599990000000297
 30
0.0
 11
21.802057468946309
 21
39.337566248548711
 31
0.0
  0
LINE
  5
EBEF
  8
MSM_CONTINUOUS
 10
21.21141999999988
 20
39.799990000000321
 30
0.0
 11
20.369868415356979
 21
39.799990000000321
 31
0.0
  0
LINE
  5
EBF0
  8
MSM_CONTINUOUS
 10
21.311436594891038
 20
39.706004405781123
 30
0.0
 11
21.21141999999988
 21
39.799990000000321
 31
0.0
  0
LINE
  5
EBF1
  8
MSM_CONTINUOUS
 10
21.416659999999801
 20
39.864990000000212
 30
0.0
 11
21.416659999999801
 21
39.998320000000213
 31
0.0
  0
ARC
  5
EBF2
  8
MSM_CONTINUOUS
 10
21.648952833555001
 20
43.184357472404329
 30
0.0
 40
0.1656228340289963
 50
30.00443831671091
 51
179.99566618708201
  0
LINE
  5
EBF3
  8
MSM_CONTINUOUS
 10
21.483329999999789
 20
42.449990000000298
 30
0.0
 11
21.749999999999911
 21
42.183320000000201
 31
0.0
  0
ARC
  5
EBF4
  8
MSM_CONTINUOUS
 10
21.648960091203989
 20
43.184362256735113
 30
0.0
 40
0.2989600913044581
 50
29.99506463433914
 51
179.99851600120351
  0
LINE
  5
EBF5
  8
MSM_CONTINUOUS
 10
22.016672245730291
 20
43.149990000000308
 30
0.0
 11
21.907879999999881
 21
43.333820000000202
 31
0.0
  0
LINE
  5
EBF6
  8
MSM_CONTINUOUS
 10
22.250009991001711
 20
43.149990000000308
 30
0.0
 11
22.016672245730291
 21
43.149990000000308
 31
0.0
  0
ARC
  5
EBF7
  8
MSM_CONTINUOUS
 10
21.901174722026362
 20
43.083309177081532
 30
0.0
 40
0.1333642010693796
 50
300.00653729441768
 51
29.99936620084064
  0
LINE
  5
EBF8
  8
MSM_CONTINUOUS
 10
21.901211369840599
 20
43.083310790799509
 30
0.0
 11
21.792379999999891
 21
43.267180000000302
 31
0.0
  0
LINE
  5
EBF9
  8
MSM_CONTINUOUS
 10
21.250009998000198
 20
42.450000000000301
 30
0.0
 11
20.325626307674039
 21
42.450000000000301
 31
0.0
  0
LINE
  5
EBFA
  8
MSM_CONTINUOUS
 10
21.349999999999898
 20
43.184370000000307
 30
0.0
 11
21.349999999999898
 21
42.39476000000041
 31
0.0
  0
LINE
  5
EBFB
  8
MSM_CONTINUOUS
 10
21.483329999999789
 20
43.184370000000307
 30
0.0
 11
21.483329999999789
 21
42.449990000000298
 31
0.0
  0
LINE
  5
EBFC
  8
MSM_CONTINUOUS
 10
22.350000000000101
 20
43.250010009001301
 30
0.0
 11
22.250009991001711
 21
43.149990000000308
 31
0.0
  0
LINE
  5
EBFD
  8
MSM_CONTINUOUS
 10
21.967869999999799
 20
42.967820000000209
 30
0.0
 11
21.85239750016715
 21
42.901174328768491
 31
0.0
  0
LINE
  5
EBFE
  8
MSM_CONTINUOUS
 10
21.85239750016715
 20
42.901174328768491
 30
0.0
 11
21.785718344815969
 21
43.016637498618373
 31
0.0
  0
LINE
  5
EBFF
  8
MSM_CONTINUOUS
 10
21.61664999999979
 20
39.998320000000213
 30
0.0
 11
21.61664999999979
 21
42.128100000750401
 31
0.0
  0
LINE
  5
EC00
  8
MSM_CONTINUOUS
 10
21.349999999999898
 20
42.550000001000207
 30
0.0
 11
21.250009998000198
 21
42.450000000000301
 31
0.0
  0
LINE
  5
EC01
  8
MSM_CONTINUOUS
 10
21.416799999999899
 20
39.416520000000311
 30
0.0
 11
21.311436594891038
 21
39.706004405781123
 31
0.0
  0
LINE
  5
EC02
  8
MSM_CONTINUOUS
 10
21.416659999999801
 20
39.998320000000213
 30
0.0
 11
21.61664999999979
 21
39.998320000000213
 31
0.0
  0
LINE
  5
EC03
  8
MSM_CONTINUOUS
 10
21.785718344815969
 20
43.016637498618373
 30
0.0
 11
21.901211369840599
 21
43.083310790799509
 31
0.0
  0
LINE
  5
EC04
  8
MSM_CONTINUOUS
 10
22.350000000000101
 20
39.50002999900002
 30
0.0
 11
22.250030001999999
 21
39.599990000000297
 31
0.0
  0
CIRCLE
  5
EC05
  8
MSM_CONTINUOUS
 10
6.1499999999995953
 20
25.90001000000051
 30
0.0
 40
2.0
  0
LINE
  5
EC06
  8
MSM_CONTINUOUS
 10
3.2499999999995302
 20
24.816680000000769
 30
0.0
 11
3.2499999999996501
 21
27.001680000000771
 31
0.0
  0
LINE
  5
EC07
  8
MSM_CONTINUOUS
 10
3.6499999999995238
 20
24.605240000000538
 30
0.0
 11
3.3833499999996541
 21
24.871899999250559
 31
0.0
  0
ARC
  5
EC08
  8
MSM_CONTINUOUS
 10
3.3692119138612768
 20
27.51873320541856
 30
0.0
 40
0.2235688896466488
 50
16.834343246674869
 51
140.0022635559763
  0
LINE
  5
EC09
  8
MSM_CONTINUOUS
 10
3.3833399999998601
 20
27.135010000000761
 30
0.0
 11
3.583339999999763
 21
27.135010000000751
 31
0.0
  0
ARC
  5
EC0A
  8
MSM_CONTINUOUS
 10
3.3832987992688142
 20
27.001711203446721
 30
0.0
 40
0.1332988029213168
 50
89.982290703385075
 51
180.01341216677369
  0
LINE
  5
EC0B
  8
MSM_CONTINUOUS
 10
2.7499699979995751
 20
27.400010000000702
 30
0.0
 11
2.9833299999996949
 21
27.400010000000691
 31
0.0
  0
LINE
  5
EC0C
  8
MSM_CONTINUOUS
 10
2.9833299999996949
 20
27.400010000000691
 30
0.0
 11
3.1979425310532839
 21
27.662433751452259
 31
0.0
  0
LINE
  5
EC0D
  8
MSM_CONTINUOUS
 10
3.7885799999996852
 20
27.200010000000621
 30
0.0
 11
4.6301315846425846
 21
27.200010000000582
 31
0.0
  0
LINE
  5
EC0E
  8
MSM_CONTINUOUS
 10
3.688563405108539
 20
27.29399559421984
 30
0.0
 11
3.7885799999996852
 21
27.200010000000621
 31
0.0
  0
LINE
  5
EC0F
  8
MSM_CONTINUOUS
 10
3.583339999999763
 20
27.135010000000751
 30
0.0
 11
3.5833399999997559
 21
27.00168000000075
 31
0.0
  0
ARC
  5
EC10
  8
MSM_CONTINUOUS
 10
3.3510471664443862
 20
23.81564252759663
 30
0.0
 40
0.1656228340289963
 50
210.00443831670771
 51
359.99566618707951
  0
LINE
  5
EC11
  8
MSM_CONTINUOUS
 10
3.516669999999634
 20
24.550010000000661
 30
0.0
 11
3.2499999999995302
 21
24.816680000000769
 31
0.0
  0
ARC
  5
EC12
  8
MSM_CONTINUOUS
 10
3.351039908795395
 20
23.815637743265849
 30
0.0
 40
0.2989600913044581
 50
209.99506463433571
 51
359.99851600120081
  0
LINE
  5
EC13
  8
MSM_CONTINUOUS
 10
2.983327754269101
 20
23.850010000000669
 30
0.0
 11
3.0921199999994888
 21
23.666180000000779
 31
0.0
  0
LINE
  5
EC14
  8
MSM_CONTINUOUS
 10
2.7499900089976741
 20
23.85001000000069
 30
0.0
 11
2.983327754269101
 21
23.850010000000669
 31
0.0
  0
ARC
  5
EC15
  8
MSM_CONTINUOUS
 10
3.0988252779730221
 20
23.916690822919438
 30
0.0
 40
0.1333642010693796
 50
120.0065372944143
 51
209.9993662008373
  0
LINE
  5
EC16
  8
MSM_CONTINUOUS
 10
3.098788630158785
 20
23.916689209201461
 30
0.0
 11
3.2076199999994901
 21
23.732820000000672
 31
0.0
  0
LINE
  5
EC17
  8
MSM_CONTINUOUS
 10
3.7499900019992261
 20
24.55000000000064
 30
0.0
 11
4.6743736923253838
 21
24.550000000000601
 31
0.0
  0
LINE
  5
EC18
  8
MSM_CONTINUOUS
 10
3.6499999999994799
 20
23.815630000000638
 30
0.0
 11
3.6499999999995238
 21
24.605240000000538
 31
0.0
  0
LINE
  5
EC19
  8
MSM_CONTINUOUS
 10
3.5166699999995932
 20
23.815630000000649
 30
0.0
 11
3.516669999999634
 21
24.550010000000661
 31
0.0
  0
LINE
  5
EC1A
  8
MSM_CONTINUOUS
 10
3.032129999999595
 20
24.032180000000771
 30
0.0
 11
3.1476024998322432
 21
24.09882567123249
 31
0.0
  0
LINE
  5
EC1B
  8
MSM_CONTINUOUS
 10
2.650029999999572
 20
23.750020000000902
 30
0.0
 11
2.7499900089976741
 21
23.85001000000069
 31
0.0
  0
LINE
  5
EC1C
  8
MSM_CONTINUOUS
 10
3.1476024998322472
 20
24.09882567123249
 30
0.0
 11
3.214281655183421
 21
23.983362501382601
 31
0.0
  0
LINE
  5
EC1D
  8
MSM_CONTINUOUS
 10
3.5831999999996871
 20
27.583480000000652
 30
0.0
 11
3.6885634051085381
 21
27.29399559421984
 31
0.0
  0
LINE
  5
EC1E
  8
MSM_CONTINUOUS
 10
2.6499899999996792
 20
27.4999800000008
 30
0.0
 11
2.7499699979995751
 21
27.400010000000702
 31
0.0
  0
LINE
  5
EC1F
  8
MSM_CONTINUOUS
 10
3.5833399999997559
 20
27.00168000000075
 30
0.0
 11
3.38334999999977
 21
27.001680000000761
 31
0.0
  0
LINE
  5
EC20
  8
MSM_CONTINUOUS
 10
3.2142816551834188
 20
23.983362501382601
 30
0.0
 11
3.098788630158785
 21
23.916689209201461
 31
0.0
  0
LINE
  5
EC21
  8
MSM_CONTINUOUS
 10
3.38334999999977
 20
27.001680000000761
 30
0.0
 11
3.3833499999996541
 21
24.871899999250559
 31
0.0
  0
CIRCLE
  5
EC22
  8
MSM_CONTINUOUS
 10
6.1499999999995953
 20
25.90001000000051
 30
0.0
 40
2.0
  0
LINE
  5
EC23
  8
MSM_CONTINUOUS
 10
3.6499999999995172
 20
24.449999999000749
 30
0.0
 11
3.7499900019992261
 21
24.55000000000064
 31
0.0
  0
LINE
  5
EC24
  8
MSM_CONTINUOUS
 10
9.0499999999995406
 20
24.816680000000449
 30
0.0
 11
9.0499999999996614
 21
27.001680000000452
 31
0.0
  0
LINE
  5
EC25
  8
MSM_CONTINUOUS
 10
8.6499999999995243
 20
24.605240000000261
 30
0.0
 11
8.9166499999994233
 21
24.87189999925025
 31
0.0
  0
ARC
  5
EC26
  8
MSM_CONTINUOUS
 10
8.9307880861380902
 20
27.518733205418261
 30
0.0
 40
0.2235688896466488
 50
39.997736444018379
 51
163.16565675331771
  0
LINE
  5
EC27
  8
MSM_CONTINUOUS
 10
8.9166599999994656
 20
27.135010000000459
 30
0.0
 11
8.7166599999995622
 21
27.13501000000047
 31
0.0
  0
ARC
  5
EC28
  8
MSM_CONTINUOUS
 10
8.9167012007304969
 20
27.001711203446408
 30
0.0
 40
0.1332988029213168
 50
359.9865878332202
 51
90.017709296608814
  0
LINE
  5
EC29
  8
MSM_CONTINUOUS
 10
9.5500300019997777
 20
27.400010000000321
 30
0.0
 11
9.3166699999996592
 21
27.400010000000339
 31
0.0
  0
LINE
  5
EC2A
  8
MSM_CONTINUOUS
 10
9.3166699999996592
 20
27.400010000000339
 30
0.0
 11
9.1020574689460982
 21
27.662433751451939
 31
0.0
  0
LINE
  5
EC2B
  8
MSM_CONTINUOUS
 10
8.5114199999996476
 20
27.200010000000361
 30
0.0
 11
7.6698684153567473
 21
27.200010000000411
 31
0.0
  0
LINE
  5
EC2C
  8
MSM_CONTINUOUS
 10
8.6114365948908045
 20
27.29399559421957
 30
0.0
 11
8.5114199999996476
 21
27.200010000000361
 31
0.0
  0
LINE
  5
EC2D
  8
MSM_CONTINUOUS
 10
8.7166599999995622
 20
27.13501000000047
 30
0.0
 11
8.7166599999995551
 21
27.001680000000469
 31
0.0
  0
ARC
  5
EC2E
  8
MSM_CONTINUOUS
 10
8.9489528335545767
 20
23.815642527596321
 30
0.0
 40
0.1656228340289963
 50
180.0043338129156
 51
329.99556168328638
  0
LINE
  5
EC2F
  8
MSM_CONTINUOUS
 10
8.7833299999994061
 20
24.55001000000037
 30
0.0
 11
9.0499999999995406
 21
24.816680000000449
 31
0.0
  0
ARC
  5
EC30
  8
MSM_CONTINUOUS
 10
8.9489600912035652
 20
23.815637743265551
 30
0.0
 40
0.2989600913044581
 50
180.0014839987937
 51
330.00493536565801
  0
LINE
  5
EC31
  8
MSM_CONTINUOUS
 10
9.3166722457298654
 20
23.850010000000321
 30
0.0
 11
9.2078799999994558
 21
23.666180000000448
 31
0.0
  0
LINE
  5
EC32
  8
MSM_CONTINUOUS
 10
9.5500099910012928
 20
23.85001000000031
 30
0.0
 11
9.3166722457298654
 21
23.850010000000321
 31
0.0
  0
ARC
  5
EC33
  8
MSM_CONTINUOUS
 10
9.2011747220259501
 20
23.916690822919112
 30
0.0
 40
0.1333642010693796
 50
330.00063379915588
 51
59.993462705578793
  0
LINE
  5
EC34
  8
MSM_CONTINUOUS
 10
9.2012113698401876
 20
23.916689209201131
 30
0.0
 11
9.0923799999994621
 21
23.732820000000348
 31
0.0
  0
LINE
  5
EC35
  8
MSM_CONTINUOUS
 10
8.5500099979998154
 20
24.550000000000381
 30
0.0
 11
7.6256263076736577
 21
24.550000000000431
 31
0.0
  0
LINE
  5
EC36
  8
MSM_CONTINUOUS
 10
8.6499999999994817
 20
23.815630000000361
 30
0.0
 11
8.6499999999995243
 21
24.605240000000261
 31
0.0
  0
LINE
  5
EC37
  8
MSM_CONTINUOUS
 10
8.7833299999993688
 20
23.81563000000035
 30
0.0
 11
8.7833299999994061
 21
24.55001000000037
 31
0.0
  0
LINE
  5
EC38
  8
MSM_CONTINUOUS
 10
9.6499999999996771
 20
23.749989990999332
 30
0.0
 11
9.5500099910012928
 21
23.85001000000031
 31
0.0
  0
LINE
  5
EC39
  8
MSM_CONTINUOUS
 10
9.2678699999993892
 20
24.03218000000042
 30
0.0
 11
9.1523975001667477
 21
24.098825671232159
 31
0.0
  0
LINE
  5
EC3A
  8
MSM_CONTINUOUS
 10
9.1523975001667441
 20
24.098825671232159
 30
0.0
 11
9.0857183448155592
 21
23.983362501382281
 31
0.0
  0
LINE
  5
EC3B
  8
MSM_CONTINUOUS
 10
8.9166499999995406
 20
27.001680000000459
 30
0.0
 11
8.9166499999994233
 21
24.87189999925025
 31
0.0
  0
LINE
  5
EC3C
  8
MSM_CONTINUOUS
 10
8.6499999999995136
 20
24.449999999000472
 30
0.0
 11
8.5500099979998154
 21
24.550000000000381
 31
0.0
  0
LINE
  5
EC3D
  8
MSM_CONTINUOUS
 10
8.7167999999996884
 20
27.583480000000371
 30
0.0
 11
8.6114365948908045
 21
27.29399559421957
 31
0.0
  0
LINE
  5
EC3E
  8
MSM_CONTINUOUS
 10
8.7166599999995551
 20
27.001680000000469
 30
0.0
 11
8.9166499999995406
 21
27.001680000000459
 31
0.0
  0
LINE
  5
EC3F
  8
MSM_CONTINUOUS
 10
9.0857183448155592
 20
23.983362501382281
 30
0.0
 11
9.2012113698401876
 21
23.916689209201131
 31
0.0
  0
LINE
  5
EC40
  8
MSM_CONTINUOUS
 10
9.6499999999998796
 20
27.499970001000609
 30
0.0
 11
9.5500300019997777
 21
27.400010000000321
 31
0.0
  0
CIRCLE
  5
EC41
  8
MSM_CONTINUOUS
 10
18.849999999999479
 20
25.90000999999981
 30
0.0
 40
2.0
  0
LINE
  5
EC42
  8
MSM_CONTINUOUS
 10
15.94999999999942
 20
24.816680000000069
 30
0.0
 11
15.949999999999539
 21
27.001680000000071
 31
0.0
  0
LINE
  5
EC43
  8
MSM_CONTINUOUS
 10
16.349999999999412
 20
24.605239999999839
 30
0.0
 11
16.083349999999541
 21
24.871899999249859
 31
0.0
  0
ARC
  5
EC44
  8
MSM_CONTINUOUS
 10
16.06921191386116
 20
27.51873320541787
 30
0.0
 40
0.2235688896466488
 50
16.83434324667493
 51
140.0022635559759
  0
LINE
  5
EC45
  8
MSM_CONTINUOUS
 10
16.083339999999751
 20
27.135010000000069
 30
0.0
 11
16.283339999999651
 21
27.135010000000051
 31
0.0
  0
ARC
  5
EC46
  8
MSM_CONTINUOUS
 10
16.0832987992687
 20
27.001711203446021
 30
0.0
 40
0.1332988029213168
 50
89.982290703382787
 51
180.01341216677369
  0
LINE
  5
EC47
  8
MSM_CONTINUOUS
 10
15.44996999799946
 20
27.400010000000002
 30
0.0
 11
15.683329999999581
 21
27.400009999999991
 31
0.0
  0
LINE
  5
EC48
  8
MSM_CONTINUOUS
 10
15.683329999999581
 20
27.400009999999991
 30
0.0
 11
15.89794253105317
 21
27.662433751451569
 31
0.0
  0
LINE
  5
EC49
  8
MSM_CONTINUOUS
 10
16.488579999999569
 20
27.200009999999931
 30
0.0
 11
17.330131584642469
 21
27.200009999999882
 31
0.0
  0
LINE
  5
EC4A
  8
MSM_CONTINUOUS
 10
16.388563405108432
 20
27.29399559421914
 30
0.0
 11
16.488579999999569
 21
27.200009999999931
 31
0.0
  0
LINE
  5
EC4B
  8
MSM_CONTINUOUS
 10
16.283339999999651
 20
27.135010000000051
 30
0.0
 11
16.28333999999964
 21
27.00168000000005
 31
0.0
  0
ARC
  5
EC4C
  8
MSM_CONTINUOUS
 10
16.05104716644427
 20
23.81564252759593
 30
0.0
 40
0.1656228340289963
 50
210.00443831670779
 51
359.99566618707951
  0
LINE
  5
EC4D
  8
MSM_CONTINUOUS
 10
16.216669999999521
 20
24.550009999999968
 30
0.0
 11
15.94999999999942
 21
24.816680000000069
 31
0.0
  0
ARC
  5
EC4E
  8
MSM_CONTINUOUS
 10
16.051039908795278
 20
23.81563774326516
 30
0.0
 40
0.2989600913044581
 50
209.99506463433571
 51
359.99851600120081
  0
LINE
  5
EC4F
  8
MSM_CONTINUOUS
 10
15.683327754268991
 20
23.85000999999998
 30
0.0
 11
15.792119999999381
 21
23.666180000000079
 31
0.0
  0
LINE
  5
EC50
  8
MSM_CONTINUOUS
 10
15.44999000899756
 20
23.85000999999999
 30
0.0
 11
15.683327754268991
 21
23.85000999999998
 31
0.0
  0
ARC
  5
EC51
  8
MSM_CONTINUOUS
 10
15.798825277972909
 20
23.916690822918738
 30
0.0
 40
0.1333642010693796
 50
120.0065372944148
 51
209.99936620083719
  0
LINE
  5
EC52
  8
MSM_CONTINUOUS
 10
15.79878863015867
 20
23.916689209200769
 30
0.0
 11
15.90761999999938
 21
23.732819999999968
 31
0.0
  0
LINE
  5
EC53
  8
MSM_CONTINUOUS
 10
16.449990001999119
 20
24.549999999999951
 30
0.0
 11
17.374373692325271
 21
24.549999999999901
 31
0.0
  0
LINE
  5
EC54
  8
MSM_CONTINUOUS
 10
16.349999999999369
 20
23.815629999999938
 30
0.0
 11
16.349999999999412
 21
24.605239999999839
 31
0.0
  0
LINE
  5
EC55
  8
MSM_CONTINUOUS
 10
16.216669999999478
 20
23.815629999999949
 30
0.0
 11
16.216669999999521
 21
24.550009999999968
 31
0.0
  0
LINE
  5
EC56
  8
MSM_CONTINUOUS
 10
15.732129999999479
 20
24.032180000000078
 30
0.0
 11
15.84760249983213
 21
24.098825671231801
 31
0.0
  0
LINE
  5
EC57
  8
MSM_CONTINUOUS
 10
15.35002999999946
 20
23.750020000000209
 30
0.0
 11
15.44999000899756
 21
23.85000999999999
 31
0.0
  0
LINE
  5
EC58
  8
MSM_CONTINUOUS
 10
15.84760249983214
 20
24.098825671231801
 30
0.0
 11
15.914281655183309
 21
23.983362501381912
 31
0.0
  0
LINE
  5
EC59
  8
MSM_CONTINUOUS
 10
16.283199999999571
 20
27.583479999999948
 30
0.0
 11
16.388563405108432
 21
27.29399559421914
 31
0.0
  0
LINE
  5
EC5A
  8
MSM_CONTINUOUS
 10
15.34998999999957
 20
27.499980000000111
 30
0.0
 11
15.44996999799946
 21
27.400010000000002
 31
0.0
  0
LINE
  5
EC5B
  8
MSM_CONTINUOUS
 10
16.28333999999964
 20
27.00168000000005
 30
0.0
 11
16.083349999999658
 21
27.001680000000071
 31
0.0
  0
LINE
  5
EC5C
  8
MSM_CONTINUOUS
 10
15.914281655183309
 20
23.983362501381912
 30
0.0
 11
15.79878863015867
 21
23.916689209200769
 31
0.0
  0
LINE
  5
EC5D
  8
MSM_CONTINUOUS
 10
16.083349999999658
 20
27.001680000000071
 30
0.0
 11
16.083349999999541
 21
24.871899999249859
 31
0.0
  0
CIRCLE
  5
EC5E
  8
MSM_CONTINUOUS
 10
18.849999999999479
 20
25.90000999999981
 30
0.0
 40
2.0
  0
LINE
  5
EC5F
  8
MSM_CONTINUOUS
 10
16.349999999999401
 20
24.449999999000049
 30
0.0
 11
16.449990001999119
 21
24.549999999999951
 31
0.0
  0
LINE
  5
EC60
  8
MSM_CONTINUOUS
 10
21.749999999999432
 20
24.816679999999749
 30
0.0
 11
21.749999999999549
 21
27.001679999999752
 31
0.0
  0
LINE
  5
EC61
  8
MSM_CONTINUOUS
 10
21.349999999999412
 20
24.605239999999561
 30
0.0
 11
21.616649999999311
 21
24.87189999924956
 31
0.0
  0
ARC
  5
EC62
  8
MSM_CONTINUOUS
 10
21.630788086137979
 20
27.518733205417561
 30
0.0
 40
0.2235688896466488
 50
39.997736444018379
 51
163.16565675331759
  0
LINE
  5
EC63
  8
MSM_CONTINUOUS
 10
21.61665999999936
 20
27.13500999999976
 30
0.0
 11
21.41665999999945
 21
27.135009999999781
 31
0.0
  0
ARC
  5
EC64
  8
MSM_CONTINUOUS
 10
21.61670120073039
 20
27.001711203445719
 30
0.0
 40
0.1332988029213168
 50
359.9865878332202
 51
90.017709296608047
  0
LINE
  5
EC65
  8
MSM_CONTINUOUS
 10
22.250030001999669
 20
27.400009999999629
 30
0.0
 11
22.01666999999955
 21
27.400009999999639
 31
0.0
  0
LINE
  5
EC66
  8
MSM_CONTINUOUS
 10
22.01666999999955
 20
27.400009999999639
 30
0.0
 11
21.802057468945989
 21
27.66243375145125
 31
0.0
  0
LINE
  5
EC67
  8
MSM_CONTINUOUS
 10
21.211419999999539
 20
27.200009999999669
 30
0.0
 11
20.369868415356638
 21
27.200009999999711
 31
0.0
  0
LINE
  5
EC68
  8
MSM_CONTINUOUS
 10
21.31143659489069
 20
27.29399559421886
 30
0.0
 11
21.211419999999539
 21
27.200009999999669
 31
0.0
  0
LINE
  5
EC69
  8
MSM_CONTINUOUS
 10
21.41665999999945
 20
27.135009999999781
 30
0.0
 11
21.416659999999439
 21
27.001679999999769
 31
0.0
  0
ARC
  5
EC6A
  8
MSM_CONTINUOUS
 10
21.648952833554471
 20
23.815642527595632
 30
0.0
 40
0.1656228340289963
 50
180.0043338129156
 51
329.99556168328638
  0
LINE
  5
EC6B
  8
MSM_CONTINUOUS
 10
21.483329999999299
 20
24.55000999999967
 30
0.0
 11
21.749999999999432
 21
24.816679999999749
 31
0.0
  0
ARC
  5
EC6C
  8
MSM_CONTINUOUS
 10
21.648960091203449
 20
23.815637743264851
 30
0.0
 40
0.2989600913044581
 50
180.0014839987937
 51
330.00493536565818
  0
LINE
  5
EC6D
  8
MSM_CONTINUOUS
 10
22.016672245729751
 20
23.850009999999632
 30
0.0
 11
21.907879999999349
 21
23.666179999999748
 31
0.0
  0
LINE
  5
EC6E
  8
MSM_CONTINUOUS
 10
22.250009991001178
 20
23.85000999999961
 30
0.0
 11
22.016672245729751
 21
23.850009999999632
 31
0.0
  0
ARC
  5
EC6F
  8
MSM_CONTINUOUS
 10
21.901174722025839
 20
23.916690822918412
 30
0.0
 40
0.1333642010693796
 50
330.00063379915588
 51
59.993462705578118
  0
LINE
  5
EC70
  8
MSM_CONTINUOUS
 10
21.90121136984008
 20
23.916689209200431
 30
0.0
 11
21.792379999999351
 21
23.732819999999649
 31
0.0
  0
LINE
  5
EC71
  8
MSM_CONTINUOUS
 10
21.250009997999701
 20
24.549999999999681
 30
0.0
 11
20.325626307673549
 21
24.549999999999731
 31
0.0
  0
LINE
  5
EC72
  8
MSM_CONTINUOUS
 10
21.349999999999369
 20
23.815629999999668
 30
0.0
 11
21.349999999999412
 21
24.605239999999561
 31
0.0
  0
LINE
  5
EC73
  8
MSM_CONTINUOUS
 10
21.48332999999926
 20
23.815629999999661
 30
0.0
 11
21.483329999999299
 21
24.55000999999967
 31
0.0
  0
LINE
  5
EC74
  8
MSM_CONTINUOUS
 10
22.349999999999561
 20
23.749989990998621
 30
0.0
 11
22.250009991001178
 21
23.85000999999961
 31
0.0
  0
LINE
  5
EC75
  8
MSM_CONTINUOUS
 10
21.96786999999928
 20
24.03217999999973
 30
0.0
 11
21.852397500166639
 21
24.098825671231459
 31
0.0
  0
LINE
  5
EC76
  8
MSM_CONTINUOUS
 10
21.852397500166639
 20
24.098825671231459
 30
0.0
 11
21.78571834481545
 21
23.983362501381588
 31
0.0
  0
LINE
  5
EC77
  8
MSM_CONTINUOUS
 10
21.616649999999431
 20
27.001679999999759
 30
0.0
 11
21.616649999999311
 21
24.87189999924956
 31
0.0
  0
LINE
  5
EC78
  8
MSM_CONTINUOUS
 10
21.349999999999412
 20
24.449999998999768
 30
0.0
 11
21.250009997999701
 21
24.549999999999681
 31
0.0
  0
LINE
  5
EC79
  8
MSM_CONTINUOUS
 10
21.416799999999579
 20
27.583479999999678
 30
0.0
 11
21.31143659489069
 21
27.29399559421886
 31
0.0
  0
LINE
  5
EC7A
  8
MSM_CONTINUOUS
 10
21.416659999999439
 20
27.001679999999769
 30
0.0
 11
21.616649999999431
 21
27.001679999999759
 31
0.0
  0
LINE
  5
EC7B
  8
MSM_CONTINUOUS
 10
21.78571834481545
 20
23.983362501381588
 30
0.0
 11
21.90121136984008
 21
23.916689209200431
 31
0.0
  0
LINE
  5
EC7C
  8
MSM_CONTINUOUS
 10
22.34999999999977
 20
27.499970000999909
 30
0.0
 11
22.250030001999669
 21
27.400009999999629
 31
0.0
  0
ENDSEC
  0
EOF
