  0
SECTION
  2
HEADER
  9
$ACADVER
  1
AC1009
  9
$INSBASE
 10
0.0
 20
0.0
 30
0.0
  9
$EXTMIN
 10
-52.55598386674648
 20
116.19918885663991
 30
-0.0015258207003583
  9
$EXTMAX
 10
37.288147361818908
 20
169.85595747346051
 30
0.0000000349246037
  9
$LIMMIN
 10
0.0
 20
0.0
  9
$LIMMAX
 10
297.0
 20
210.0
  9
$ORTHOMODE
 70
     1
  9
$REGENMODE
 70
     1
  9
$FILLMODE
 70
     1
  9
$QTEXTMODE
 70
     0
  9
$MIRRTEXT
 70
     1
  9
$DRAGMODE
 70
     2
  9
$LTSCALE
 40
1.0
  9
$OSMODE
 70
   167
  9
$ATTMODE
 70
     1
  9
$TEXTSIZE
 40
6.4000000000000012
  9
$TRACEWID
 40
0.05
  9
$TEXTSTYLE
  7
STANDARD
  9
$CLAYER
  8
0
  9
$CELTYPE
  6
BYLAYER
  9
$CECOLOR
 62
   256
  9
$DIMSCALE
 40
1.0
  9
$DIMASZ
 40
3.0
  9
$DIMEXO
 40
1.0
  9
$DIMDLI
 40
0.0
  9
$DIMRND
 40
0.0
  9
$DIMDLE
 40
0.0
  9
$DIMEXE
 40
1.0
  9
$DIMTP
 40
0.0
  9
$DIMTM
 40
0.0
  9
$DIMTXT
 40
3.2000000000000002
  9
$DIMCEN
 40
0.0
  9
$DIMTSZ
 40
0.0
  9
$DIMTOL
 70
     0
  9
$DIMLIM
 70
     0
  9
$DIMTIH
 70
     0
  9
$DIMTOH
 70
     0
  9
$DIMSE1
 70
     0
  9
$DIMSE2
 70
     0
  9
$DIMTAD
 70
     1
  9
$DIMZIN
 70
     8
  9
$DIMBLK
  1

  9
$DIMASO
 70
     1
  9
$DIMSHO
 70
     1
  9
$DIMPOST
  1

  9
$DIMAPOST
  1

  9
$DIMALT
 70
     0
  9
$DIMALTD
 70
     2
  9
$DIMALTF
 40
0.04
  9
$DIMLFAC
 40
1.0
  9
$DIMTOFL
 70
     1
  9
$DIMTVP
 40
1.0
  9
$DIMTIX
 70
     1
  9
$DIMSOXD
 70
     0
  9
$DIMSAH
 70
     0
  9
$DIMBLK1
  1

  9
$DIMBLK2
  1

  9
$DIMSTYLE
  2
MISUMI
  9
$DIMCLRD
 70
     0
  9
$DIMCLRE
 70
     0
  9
$DIMCLRT
 70
     0
  9
$DIMTFAC
 40
0.6
  9
$DIMGAP
 40
1.0
  9
$LUNITS
 70
     2
  9
$LUPREC
 70
     4
  9
$SKETCHINC
 40
0.1
  9
$FILLETRAD
 40
0.3
  9
$AUNITS
 70
     0
  9
$AUPREC
 70
     0
  9
$MENU
  1
acad
  9
$ELEVATION
 40
0.0
  9
$PELEVATION
 40
0.0
  9
$THICKNESS
 40
0.0
  9
$LIMCHECK
 70
     0
  9
$BLIPMODE
 70
     0
  9
$CHAMFERA
 40
0.5
  9
$CHAMFERB
 40
0.5
  9
$SKPOLY
 70
     0
  9
$TDCREATE
 40
2451464.60066493
  9
$TDUPDATE
 40
2453070.7716122218
  9
$TDINDWG
 40
0.1113657407
  9
$TDUSRTIMER
 40
0.1113635301
  9
$USRTIMER
 70
     1
  9
$ANGBASE
 50
0.0
  9
$ANGDIR
 70
     0
  9
$PDMODE
 70
     0
  9
$PDSIZE
 40
0.0
  9
$PLINEWID
 40
0.0
  9
$COORDS
 70
     2
  9
$SPLFRAME
 70
     0
  9
$SPLINETYPE
 70
     6
  9
$SPLINESEGS
 70
     8
  9
$ATTDIA
 70
     0
  9
$ATTREQ
 70
     1
  9
$HANDLING
 70
 10241
  9
$HANDSEED
  5
D52
  9
$SURFTAB1
 70
     6
  9
$SURFTAB2
 70
     6
  9
$SURFTYPE
 70
     6
  9
$SURFU
 70
     6
  9
$SURFV
 70
     6
  9
$UCSNAME
  2

  9
$UCSORG
 10
0.0
 20
0.0
 30
0.0
  9
$UCSXDIR
 10
1.0
 20
0.0
 30
0.0
  9
$UCSYDIR
 10
0.0
 20
1.0
 30
0.0
  9
$PUCSNAME
  2

  9
$PUCSORG
 10
0.0
 20
0.0
 30
0.0
  9
$PUCSXDIR
 10
1.0
 20
0.0
 30
0.0
  9
$PUCSYDIR
 10
0.0
 20
1.0
 30
0.0
  9
$USERI1
 70
     0
  9
$USERI2
 70
     0
  9
$USERI3
 70
     0
  9
$USERI4
 70
     0
  9
$USERI5
 70
     0
  9
$USERR1
 40
0.0
  9
$USERR2
 40
0.0
  9
$USERR3
 40
0.0
  9
$USERR4
 40
0.0
  9
$USERR5
 40
0.0
  9
$WORLDVIEW
 70
     1
  9
$SHADEDGE
 70
     3
  9
$SHADEDIF
 70
    70
  9
$TILEMODE
 70
     1
  9
$MAXACTVP
 70
    16
  9
$PLIMCHECK
 70
     0
  9
$PEXTMIN
 10
1.0000000000000000E+020
 20
1.0000000000000000E+020
 30
1.0000000000000000E+020
  9
$PEXTMAX
 10
-1.0000000000000000E+020
 20
-1.0000000000000000E+020
 30
-1.0000000000000000E+020
  9
$PLIMMIN
 10
0.0
 20
0.0
  9
$PLIMMAX
 10
12.0
 20
9.0
  9
$UNITMODE
 70
     0
  9
$VISRETAIN
 70
     0
  9
$PLINEGEN
 70
     0
  9
$PSLTSCALE
 70
     1
  0
ENDSEC
  0
SECTION
  2
TABLES
  0
TABLE
  2
VPORT
 70
     3
  0
VPORT
  2
*ACTIVE
 70
     0
 10
0.0
 20
0.0
 11
1.0
 21
1.0
 12
-7.6339182524637881
 22
143.0275731650502
 13
0.0
 23
0.0
 14
10.0
 24
10.0
 15
10.0
 25
10.0
 16
0.0
 26
0.0
 36
1.0
 17
0.0
 27
0.0
 37
0.0
 40
54.362778730199821
 41
2.2043956043956041
 42
50.0
 43
0.0
 44
0.0
 50
0.0
 51
0.0
 71
     0
 72
   100
 73
     1
 74
     0
 75
     0
 76
     0
 77
     0
 78
     0
  0
ENDTAB
  0
TABLE
  2
LTYPE
 70
    10
  0
LTYPE
  2
CONTINUOUS
 70
     0
  3
Solid line
 72
    65
 73
     0
 40
0.0
  0
LTYPE
  2
CENTER
 70
     0
  3
Center ____ _ ____ _ ____ _ ____ _ ____ _ ____
 72
    65
 73
     4
 40
2.0
 49
1.25
 49
-0.25
 49
0.25
 49
-0.25
  0
ENDTAB
  0
TABLE
  2
LAYER
 70
     4
  0
LAYER
  2
0
 70
     0
 62
     7
  6
CONTINUOUS
  0
LAYER
  2
DEFPOINTS
 70
     0
 62
     7
  6
CONTINUOUS
  0
LAYER
  2
CENTER
 70
     0
 62
     1
  6
CENTER
  0
ENDTAB
  0
TABLE
  2
STYLE
 70
     2
  0
STYLE
  2
STANDARD
 70
     0
 40
0.0
 41
1.0
 50
0.0
 71
     0
 42
6.4000000000000012
  3
txt
  4

  0
ENDTAB
  0
TABLE
  2
VIEW
 70
     0
  0
ENDTAB
  0
TABLE
  2
UCS
 70
     0
  0
ENDTAB
  0
TABLE
  2
APPID
 70
     3
  0
APPID
  2
ACAD
 70
     0
  0
APPID
  2
GENIUS_GENODEF_13
 70
     0
  0
APPID
  2
GENIUS_GENOBJ-N-CEN_13
 70
     0
  0
ENDTAB
  0
TABLE
  2
DIMSTYLE
 70
     2
  0
DIMSTYLE
  2
MISUMI
 70
     0
  3

  4

  5

  6

  7

 40
1.0
 41
3.0
 42
1.0
 43
0.0
 44
1.0
 45
0.0
 46
0.0
 47
0.0
 48
0.0
140
3.2000000000000002
141
0.0
142
0.0
143
0.04
144
1.0
145
1.0
146
0.6
147
1.0
 71
     0
 72
     0
 73
     0
 74
     0
 75
     0
 76
     0
 77
     1
 78
     8
170
     0
171
     2
172
     1
173
     0
174
     1
175
     0
176
     0
177
     0
178
     0
  0
ENDTAB
  0
ENDSEC
  0
SECTION
  2
BLOCKS
  0
BLOCK
  8
0
  2
$MODEL_SPACE
 70
     0
 10
0.0
 20
0.0
 30
0.0
  3
$MODEL_SPACE
  1

  0
ENDBLK
  5
971
  8
0
  0
BLOCK
 67
     1
  8
0
  2
$PAPER_SPACE
 70
     0
 10
0.0
 20
0.0
 30
0.0
  3
$PAPER_SPACE
  1

  0
ENDBLK
  5
96D
 67
     1
  8
0
  0
ENDSEC
  0
SECTION
  2
ENTITIES
  0
INSERT
  5
981
  8
0
  6
CONTINUOUS
 62
     7
  2
$MODEL_SPACE
 10
156.2079025429731
 20
133.22844557700421
 30
0.0
  0
LINE
  5
98D
  8
0
  6
CONTINUOUS
 62
     7
 10
30.36842628682756
 20
168.49183490597949
 30
0.0
 11
30.36842628682756
 21
169.25773890597949
 31
0.0
  0
ARC
  5
98E
  8
0
  6
CONTINUOUS
 62
     7
 10
30.968426286827562
 20
166.92801990597951
 30
0.0
 40
1.0
 50
0.0
 51
89.999998999999818
  0
LINE
  5
98F
  8
0
  6
CONTINUOUS
 62
     7
 10
29.414873286827561
 20
166.28650290597949
 30
0.0
 11
29.414873286827561
 21
167.6280199059795
 31
0.0
  0
ARC
  5
990
  8
0
  6
CONTINUOUS
 62
     7
 10
29.714873286827562
 20
167.6280199059795
 30
0.0
 40
0.3
 50
89.999998999999818
 51
179.9999980000004
  0
LINE
  5
991
  8
0
  6
CONTINUOUS
 62
     7
 10
29.714873286827562
 20
167.92801990597951
 30
0.0
 11
30.968426286827562
 21
167.92801990597951
 31
0.0
  0
ARC
  5
992
  8
0
  6
CONTINUOUS
 62
     7
 10
29.714873286827562
 20
162.30773890597951
 30
0.0
 40
0.3
 50
89.999998999999818
 51
179.9999980000004
  0
POLYLINE
  5
993
  8
0
  6
CONTINUOUS
 62
     7
 66
     1
 10
0.0
 20
0.0
 30
0.0
  0
VERTEX
  5
C9C
  8
0
  6
CONTINUOUS
 62
     7
 10
29.714873286827562
 20
162.60773890597949
 30
0.0
  0
VERTEX
  5
C9D
  8
0
  6
CONTINUOUS
 62
     7
 10
30.968426286827562
 20
162.60773890597949
 30
0.0
  0
VERTEX
  5
C9E
  8
0
  6
CONTINUOUS
 62
     7
 10
31.031217286827559
 20
162.60773890597949
 30
0.0
  0
VERTEX
  5
C9F
  8
0
  6
CONTINUOUS
 62
     7
 10
31.155808286827561
 20
162.59986890597949
 30
0.0
  0
VERTEX
  5
CA0
  8
0
  6
CONTINUOUS
 62
     7
 10
31.277443286827559
 20
162.58425390597949
 30
0.0
  0
VERTEX
  5
CA1
  8
0
  6
CONTINUOUS
 62
     7
 10
31.394206286827561
 20
162.5611389059795
 30
0.0
  0
VERTEX
  5
CA2
  8
0
  6
CONTINUOUS
 62
     7
 10
31.504253286827559
 20
162.53088990597951
 30
0.0
  0
VERTEX
  5
CA3
  8
0
  6
CONTINUOUS
 62
     7
 10
31.605850286827561
 20
162.4939819059795
 30
0.0
  0
VERTEX
  5
CA4
  8
0
  6
CONTINUOUS
 62
     7
 10
31.697395286827561
 20
162.4509989059795
 30
0.0
  0
VERTEX
  5
CA5
  8
0
  6
CONTINUOUS
 62
     7
 10
31.777443286827559
 20
162.4026179059795
 30
0.0
  0
VERTEX
  5
CA6
  8
0
  6
CONTINUOUS
 62
     7
 10
31.844733286827559
 20
162.34960190597951
 30
0.0
  0
VERTEX
  5
CA7
  8
0
  6
CONTINUOUS
 62
     7
 10
31.89820328682756
 20
162.29278790597951
 30
0.0
  0
VERTEX
  5
CA8
  8
0
  6
CONTINUOUS
 62
     7
 10
31.937009286827561
 20
162.2330709059795
 30
0.0
  0
VERTEX
  5
CA9
  8
0
  6
CONTINUOUS
 62
     7
 10
31.96054128682756
 20
162.1713919059795
 30
0.0
  0
VERTEX
  5
CAA
  8
0
  6
CONTINUOUS
 62
     7
 10
31.968426286827562
 20
162.1087259059795
 30
0.0
  0
SEQEND
  5
CAB
  8
0
  6
CONTINUOUS
 62
     7
  0
ARC
  5
994
  8
0
  6
CONTINUOUS
 62
     7
 10
29.714873286827562
 20
159.06307090597949
 30
0.0
 40
0.3
 50
179.9999980000004
 51
270.00000100000011
  0
LINE
  5
995
  8
0
  6
CONTINUOUS
 62
     7
 10
29.414873286827561
 20
159.06307090597949
 30
0.0
 11
29.414873286827561
 21
162.30773890597951
 31
0.0
  0
LINE
  5
996
  8
0
  6
CONTINUOUS
 62
     7
 10
30.36842628682756
 20
162.9077389059795
 30
0.0
 11
30.36842628682756
 21
166.28650290597949
 31
0.0
  0
LINE
  5
997
  8
0
  6
CONTINUOUS
 62
     7
 10
28.855132286827558
 20
168.30056790597951
 30
0.0
 11
29.414873286827561
 21
167.92801990597951
 31
0.0
  0
LINE
  5
998
  8
0
  6
CONTINUOUS
 62
     7
 10
28.895831286827558
 20
162.72228290597951
 30
0.0
 11
29.328786286827562
 21
162.55090490597951
 31
0.0
  0
ARC
  5
999
  8
0
  6
CONTINUOUS
 62
     7
 10
28.968426286827562
 20
162.60773890597949
 30
0.0
 40
0.3
 50
89.999998999999818
 51
179.9999980000004
  0
LINE
  5
99A
  8
0
  6
CONTINUOUS
 62
     7
 10
28.668426286827561
 20
162.60773890597949
 30
0.0
 11
28.668426286827561
 21
159.06307090597949
 31
0.0
  0
ARC
  5
99B
  8
0
  6
CONTINUOUS
 62
     7
 10
28.968426286827562
 20
159.06307090597949
 30
0.0
 40
0.3
 50
179.9999980000004
 51
270.00000100000011
  0
POLYLINE
  5
99C
  8
0
  6
CONTINUOUS
 62
     7
 66
     1
 10
0.0
 20
0.0
 30
0.0
  0
VERTEX
  5
CAC
  8
0
  6
CONTINUOUS
 62
     7
 10
28.968426286827562
 20
158.7630709059795
 30
0.0
  0
VERTEX
  5
CAD
  8
0
  6
CONTINUOUS
 62
     7
 10
30.36842628682756
 20
158.7630709059795
 30
0.0
  0
VERTEX
  5
CAE
  8
0
  6
CONTINUOUS
 62
     7
 10
31.31044628682756
 20
158.70046790597951
 30
0.0
  0
VERTEX
  5
CAF
  8
0
  6
CONTINUOUS
 62
     7
 10
31.394206286827561
 20
158.6944139059795
 30
0.0
  0
VERTEX
  5
CB0
  8
0
  6
CONTINUOUS
 62
     7
 10
31.504253286827559
 20
158.68390790597951
 30
0.0
  0
VERTEX
  5
CB1
  8
0
  6
CONTINUOUS
 62
     7
 10
31.605850286827561
 20
158.6710899059795
 30
0.0
  0
VERTEX
  5
CB2
  8
0
  6
CONTINUOUS
 62
     7
 10
31.697395286827561
 20
158.6561629059795
 30
0.0
  0
VERTEX
  5
CB3
  8
0
  6
CONTINUOUS
 62
     7
 10
31.777443286827559
 20
158.63935990597949
 30
0.0
  0
VERTEX
  5
CB4
  8
0
  6
CONTINUOUS
 62
     7
 10
31.844733286827559
 20
158.62094790597951
 30
0.0
  0
VERTEX
  5
CB5
  8
0
  6
CONTINUOUS
 62
     7
 10
31.89820328682756
 20
158.6012159059795
 30
0.0
  0
VERTEX
  5
CB6
  8
0
  6
CONTINUOUS
 62
     7
 10
31.937009286827561
 20
158.58047690597951
 30
0.0
  0
VERTEX
  5
CB7
  8
0
  6
CONTINUOUS
 62
     7
 10
31.96054128682756
 20
158.55905590597951
 30
0.0
  0
VERTEX
  5
CB8
  8
0
  6
CONTINUOUS
 62
     7
 10
31.968426286827562
 20
158.53729190597949
 30
0.0
  0
SEQEND
  5
CB9
  8
0
  6
CONTINUOUS
 62
     7
  0
POLYLINE
  5
99D
  8
0
  6
CONTINUOUS
 62
     7
 66
     1
 10
0.0
 20
0.0
 30
0.0
  0
VERTEX
  5
CBA
  8
0
  6
CONTINUOUS
 62
     7
 10
31.968426286827562
 20
162.2576349059795
 30
0.0
  0
VERTEX
  5
CBB
  8
0
  6
CONTINUOUS
 62
     7
 10
31.96054128682756
 20
162.32030190597951
 30
0.0
  0
VERTEX
  5
CBC
  8
0
  6
CONTINUOUS
 62
     7
 10
31.937009286827561
 20
162.38197990597951
 30
0.0
  0
VERTEX
  5
CBD
  8
0
  6
CONTINUOUS
 62
     7
 10
31.89820328682756
 20
162.44169790597951
 30
0.0
  0
VERTEX
  5
CBE
  8
0
  6
CONTINUOUS
 62
     7
 10
31.844733286827559
 20
162.49851190597951
 30
0.0
  0
VERTEX
  5
CBF
  8
0
  6
CONTINUOUS
 62
     7
 10
31.777443286827559
 20
162.5515279059795
 30
0.0
  0
VERTEX
  5
CC0
  8
0
  6
CONTINUOUS
 62
     7
 10
31.697395286827561
 20
162.5999089059795
 30
0.0
  0
VERTEX
  5
CC1
  8
0
  6
CONTINUOUS
 62
     7
 10
31.605850286827561
 20
162.6428919059795
 30
0.0
  0
VERTEX
  5
CC2
  8
0
  6
CONTINUOUS
 62
     7
 10
31.504253286827559
 20
162.67979890597951
 30
0.0
  0
VERTEX
  5
CC3
  8
0
  6
CONTINUOUS
 62
     7
 10
31.394206286827561
 20
162.71004890597951
 30
0.0
  0
VERTEX
  5
CC4
  8
0
  6
CONTINUOUS
 62
     7
 10
31.31044628682756
 20
162.72748190597949
 30
0.0
  0
VERTEX
  5
CC5
  8
0
  6
CONTINUOUS
 62
     7
 10
30.36842628682756
 20
162.9077389059795
 30
0.0
  0
VERTEX
  5
CC6
  8
0
  6
CONTINUOUS
 62
     7
 10
28.968426286827562
 20
162.9077389059795
 30
0.0
  0
SEQEND
  5
CC7
  8
0
  6
CONTINUOUS
 62
     7
  0
ARC
  5
99E
  8
0
  6
CONTINUOUS
 62
     7
 10
30.968426286827562
 20
167.2131679059795
 30
0.0
 40
1.0
 50
0.0
 51
71.118277999999904
  0
POLYLINE
  5
99F
  8
0
  6
CONTINUOUS
 62
     7
 66
     1
 10
0.0
 20
0.0
 30
0.0
  0
VERTEX
  5
CC8
  8
0
  6
CONTINUOUS
 62
     7
 10
31.292042286827559
 20
168.15935690597951
 30
0.0
  0
VERTEX
  5
CC9
  8
0
  6
CONTINUOUS
 62
     7
 10
30.36842628682756
 20
168.49183490597949
 30
0.0
  0
VERTEX
  5
CCA
  8
0
  6
CONTINUOUS
 62
     7
 10
28.968426286827562
 20
168.49183490597949
 30
0.0
  0
SEQEND
  5
CCB
  8
0
  6
CONTINUOUS
 62
     7
  0
ARC
  5
9A0
  8
0
  6
CONTINUOUS
 62
     7
 10
28.968426286827562
 20
168.1918349059795
 30
0.0
 40
0.3
 50
89.999998999999818
 51
179.9999980000004
  0
LINE
  5
9A1
  8
0
  6
CONTINUOUS
 62
     7
 10
28.668426286827561
 20
168.1918349059795
 30
0.0
 11
28.668426286827561
 21
166.5865029059795
 31
0.0
  0
ARC
  5
9A2
  8
0
  6
CONTINUOUS
 62
     7
 10
28.968426286827562
 20
166.5865029059795
 30
0.0
 40
0.3
 50
179.9999980000004
 51
270.00000100000011
  0
POLYLINE
  5
9A3
  8
0
  6
CONTINUOUS
 62
     7
 66
     1
 10
0.0
 20
0.0
 30
0.0
  0
VERTEX
  5
CCC
  8
0
  6
CONTINUOUS
 62
     7
 10
28.968426286827562
 20
166.28650290597949
 30
0.0
  0
VERTEX
  5
CCD
  8
0
  6
CONTINUOUS
 62
     7
 10
30.36842628682756
 20
166.28650290597949
 30
0.0
  0
VERTEX
  5
CCE
  8
0
  6
CONTINUOUS
 62
     7
 10
31.31044628682756
 20
166.01033290597951
 30
0.0
  0
VERTEX
  5
CCF
  8
0
  6
CONTINUOUS
 62
     7
 10
31.394206286827561
 20
165.9836239059795
 30
0.0
  0
VERTEX
  5
CD0
  8
0
  6
CONTINUOUS
 62
     7
 10
31.504253286827559
 20
165.9372789059795
 30
0.0
  0
VERTEX
  5
CD1
  8
0
  6
CONTINUOUS
 62
     7
 10
31.605850286827561
 20
165.8807339059795
 30
0.0
  0
VERTEX
  5
CD2
  8
0
  6
CONTINUOUS
 62
     7
 10
31.697395286827561
 20
165.8148799059795
 30
0.0
  0
VERTEX
  5
CD3
  8
0
  6
CONTINUOUS
 62
     7
 10
31.777443286827559
 20
165.74075590597951
 30
0.0
  0
VERTEX
  5
CD4
  8
0
  6
CONTINUOUS
 62
     7
 10
31.844733286827559
 20
165.65953090597949
 30
0.0
  0
VERTEX
  5
CD5
  8
0
  6
CONTINUOUS
 62
     7
 10
31.89820328682756
 20
165.57248590597951
 30
0.0
  0
VERTEX
  5
CD6
  8
0
  6
CONTINUOUS
 62
     7
 10
31.937009286827561
 20
165.48099390597949
 30
0.0
  0
VERTEX
  5
CD7
  8
0
  6
CONTINUOUS
 62
     7
 10
31.96054128682756
 20
165.3864969059795
 30
0.0
  0
VERTEX
  5
CD8
  8
0
  6
CONTINUOUS
 62
     7
 10
31.968426286827562
 20
165.29048690597949
 30
0.0
  0
SEQEND
  5
CD9
  8
0
  6
CONTINUOUS
 62
     7
  0
ARC
  5
9A4
  8
0
  6
CONTINUOUS
 62
     7
 10
29.714873286827562
 20
150.80773890597951
 30
0.0
 40
0.3
 50
179.9999980000004
 51
270.00000100000011
  0
POLYLINE
  5
9A5
  8
0
  6
CONTINUOUS
 62
     7
 66
     1
 10
0.0
 20
0.0
 30
0.0
  0
VERTEX
  5
CDA
  8
0
  6
CONTINUOUS
 62
     7
 10
29.714873286827562
 20
150.50773890597949
 30
0.0
  0
VERTEX
  5
CDB
  8
0
  6
CONTINUOUS
 62
     7
 10
30.968426286827562
 20
150.50773890597949
 30
0.0
  0
VERTEX
  5
CDC
  8
0
  6
CONTINUOUS
 62
     7
 10
31.031217286827559
 20
150.50773890597949
 30
0.0
  0
VERTEX
  5
CDD
  8
0
  6
CONTINUOUS
 62
     7
 10
31.155808286827561
 20
150.51560890597949
 30
0.0
  0
VERTEX
  5
CDE
  8
0
  6
CONTINUOUS
 62
     7
 10
31.277443286827559
 20
150.53122390597949
 30
0.0
  0
VERTEX
  5
CDF
  8
0
  6
CONTINUOUS
 62
     7
 10
31.394206286827561
 20
150.55433890597951
 30
0.0
  0
VERTEX
  5
CE0
  8
0
  6
CONTINUOUS
 62
     7
 10
31.504253286827559
 20
150.5845879059795
 30
0.0
  0
VERTEX
  5
CE1
  8
0
  6
CONTINUOUS
 62
     7
 10
31.605850286827561
 20
150.62149590597949
 30
0.0
  0
VERTEX
  5
CE2
  8
0
  6
CONTINUOUS
 62
     7
 10
31.697395286827561
 20
150.66447890597951
 30
0.0
  0
VERTEX
  5
CE3
  8
0
  6
CONTINUOUS
 62
     7
 10
31.777443286827559
 20
150.71285990597951
 30
0.0
  0
VERTEX
  5
CE4
  8
0
  6
CONTINUOUS
 62
     7
 10
31.844733286827559
 20
150.7658759059795
 30
0.0
  0
VERTEX
  5
CE5
  8
0
  6
CONTINUOUS
 62
     7
 10
31.89820328682756
 20
150.8226899059795
 30
0.0
  0
VERTEX
  5
CE6
  8
0
  6
CONTINUOUS
 62
     7
 10
31.937009286827561
 20
150.88240690597951
 30
0.0
  0
VERTEX
  5
CE7
  8
0
  6
CONTINUOUS
 62
     7
 10
31.96054128682756
 20
150.94408590597951
 30
0.0
  0
VERTEX
  5
CE8
  8
0
  6
CONTINUOUS
 62
     7
 10
31.968426286827562
 20
151.00675190597951
 30
0.0
  0
SEQEND
  5
CE9
  8
0
  6
CONTINUOUS
 62
     7
  0
ARC
  5
9A6
  8
0
  6
CONTINUOUS
 62
     7
 10
29.714873286827562
 20
154.0524069059795
 30
0.0
 40
0.3
 50
89.999998999999818
 51
179.9999980000004
  0
LINE
  5
9A7
  8
0
  6
CONTINUOUS
 62
     7
 10
29.414873286827561
 20
154.0524069059795
 30
0.0
 11
29.414873286827561
 21
150.80773890597951
 31
0.0
  0
LINE
  5
9A8
  8
0
  6
CONTINUOUS
 62
     7
 10
30.36842628682756
 20
144.62364290597949
 30
0.0
 11
30.36842628682756
 21
143.85773890597949
 31
0.0
  0
ARC
  5
9A9
  8
0
  6
CONTINUOUS
 62
     7
 10
30.968426286827562
 20
146.1874579059795
 30
0.0
 40
1.0
 50
270.00000100000011
 51
0.0
  0
LINE
  5
9AA
  8
0
  6
CONTINUOUS
 62
     7
 10
29.414873286827561
 20
146.82897490597949
 30
0.0
 11
29.414873286827561
 21
145.48745790597951
 31
0.0
  0
ARC
  5
9AB
  8
0
  6
CONTINUOUS
 62
     7
 10
29.714873286827562
 20
145.48745790597951
 30
0.0
 40
0.3
 50
179.9999980000004
 51
270.00000100000011
  0
LINE
  5
9AC
  8
0
  6
CONTINUOUS
 62
     7
 10
29.714873286827562
 20
145.1874579059795
 30
0.0
 11
30.968426286827562
 21
145.1874579059795
 31
0.0
  0
LINE
  5
9AD
  8
0
  6
CONTINUOUS
 62
     7
 10
30.36842628682756
 20
150.20773890597951
 30
0.0
 11
30.36842628682756
 21
146.82897490597949
 31
0.0
  0
LINE
  5
9B9
  8
0
  6
CONTINUOUS
 62
     7
 10
28.895831286827558
 20
150.3931949059795
 30
0.0
 11
29.328786286827562
 21
150.5645729059795
 31
0.0
  0
ARC
  5
9BA
  8
0
  6
CONTINUOUS
 62
     7
 10
30.968426286827562
 20
145.90230990597951
 30
0.0
 40
1.0
 50
288.88172200000002
 51
0.0
  0
POLYLINE
  5
9BB
  8
0
  6
CONTINUOUS
 62
     7
 66
     1
 10
0.0
 20
0.0
 30
0.0
  0
VERTEX
  5
CEA
  8
0
  6
CONTINUOUS
 62
     7
 10
31.292042286827559
 20
144.9561209059795
 30
0.0
  0
VERTEX
  5
CEB
  8
0
  6
CONTINUOUS
 62
     7
 10
30.36842628682756
 20
144.62364290597949
 30
0.0
  0
VERTEX
  5
CEC
  8
0
  6
CONTINUOUS
 62
     7
 10
28.968426286827562
 20
144.62364290597949
 30
0.0
  0
SEQEND
  5
CED
  8
0
  6
CONTINUOUS
 62
     7
  0
ARC
  5
9BC
  8
0
  6
CONTINUOUS
 62
     7
 10
28.968426286827562
 20
144.92364290597951
 30
0.0
 40
0.3
 50
179.9999980000004
 51
270.00000100000011
  0
LINE
  5
9BD
  8
0
  6
CONTINUOUS
 62
     7
 10
28.668426286827561
 20
144.92364290597951
 30
0.0
 11
28.668426286827561
 21
146.52897490597951
 31
0.0
  0
ARC
  5
9BE
  8
0
  6
CONTINUOUS
 62
     7
 10
28.968426286827562
 20
146.52897490597951
 30
0.0
 40
0.3
 50
89.999998999999818
 51
179.9999980000004
  0
POLYLINE
  5
9BF
  8
0
  6
CONTINUOUS
 62
     7
 66
     1
 10
0.0
 20
0.0
 30
0.0
  0
VERTEX
  5
CEE
  8
0
  6
CONTINUOUS
 62
     7
 10
28.968426286827562
 20
146.82897490597949
 30
0.0
  0
VERTEX
  5
CEF
  8
0
  6
CONTINUOUS
 62
     7
 10
30.36842628682756
 20
146.82897490597949
 30
0.0
  0
VERTEX
  5
CF0
  8
0
  6
CONTINUOUS
 62
     7
 10
31.31044628682756
 20
147.1051449059795
 30
0.0
  0
VERTEX
  5
CF1
  8
0
  6
CONTINUOUS
 62
     7
 10
31.394206286827561
 20
147.13185390597951
 30
0.0
  0
VERTEX
  5
CF2
  8
0
  6
CONTINUOUS
 62
     7
 10
31.504253286827559
 20
147.17819890597951
 30
0.0
  0
VERTEX
  5
CF3
  8
0
  6
CONTINUOUS
 62
     7
 10
31.605850286827561
 20
147.23474390597951
 30
0.0
  0
VERTEX
  5
CF4
  8
0
  6
CONTINUOUS
 62
     7
 10
31.697395286827561
 20
147.30059790597949
 30
0.0
  0
VERTEX
  5
CF5
  8
0
  6
CONTINUOUS
 62
     7
 10
31.777443286827559
 20
147.3747219059795
 30
0.0
  0
VERTEX
  5
CF6
  8
0
  6
CONTINUOUS
 62
     7
 10
31.844733286827559
 20
147.45594690597949
 30
0.0
  0
VERTEX
  5
CF7
  8
0
  6
CONTINUOUS
 62
     7
 10
31.89820328682756
 20
147.54299190597951
 30
0.0
  0
VERTEX
  5
CF8
  8
0
  6
CONTINUOUS
 62
     7
 10
31.937009286827561
 20
147.63448390597949
 30
0.0
  0
VERTEX
  5
CF9
  8
0
  6
CONTINUOUS
 62
     7
 10
31.96054128682756
 20
147.72898090597951
 30
0.0
  0
VERTEX
  5
CFA
  8
0
  6
CONTINUOUS
 62
     7
 10
31.968426286827562
 20
147.82499090597949
 30
0.0
  0
SEQEND
  5
CFB
  8
0
  6
CONTINUOUS
 62
     7
  0
LINE
  5
9C0
  8
0
  6
CONTINUOUS
 62
     7
 10
28.855132286827558
 20
144.8149099059795
 30
0.0
 11
29.414873286827561
 21
145.1874579059795
 31
0.0
  0
ARC
  5
9C1
  8
0
  6
CONTINUOUS
 62
     7
 10
28.968426286827562
 20
150.50773890597949
 30
0.0
 40
0.3
 50
179.9999980000004
 51
270.00000100000011
  0
LINE
  5
9C2
  8
0
  6
CONTINUOUS
 62
     7
 10
28.668426286827561
 20
150.50773890597949
 30
0.0
 11
28.668426286827561
 21
154.0524069059795
 31
0.0
  0
ARC
  5
9C3
  8
0
  6
CONTINUOUS
 62
     7
 10
28.968426286827562
 20
154.0524069059795
 30
0.0
 40
0.3
 50
89.999998999999818
 51
179.9999980000004
  0
POLYLINE
  5
9C4
  8
0
  6
CONTINUOUS
 62
     7
 66
     1
 10
0.0
 20
0.0
 30
0.0
  0
VERTEX
  5
CFC
  8
0
  6
CONTINUOUS
 62
     7
 10
28.968426286827562
 20
154.35240690597951
 30
0.0
  0
VERTEX
  5
CFD
  8
0
  6
CONTINUOUS
 62
     7
 10
30.36842628682756
 20
154.35240690597951
 30
0.0
  0
VERTEX
  5
CFE
  8
0
  6
CONTINUOUS
 62
     7
 10
31.31044628682756
 20
154.4150099059795
 30
0.0
  0
VERTEX
  5
CFF
  8
0
  6
CONTINUOUS
 62
     7
 10
31.394206286827561
 20
154.42106390597951
 30
0.0
  0
VERTEX
  5
D00
  8
0
  6
CONTINUOUS
 62
     7
 10
31.504253286827559
 20
154.4315699059795
 30
0.0
  0
VERTEX
  5
D01
  8
0
  6
CONTINUOUS
 62
     7
 10
31.605850286827561
 20
154.44438790597951
 30
0.0
  0
VERTEX
  5
D02
  8
0
  6
CONTINUOUS
 62
     7
 10
31.697395286827561
 20
154.45931490597951
 30
0.0
  0
VERTEX
  5
D03
  8
0
  6
CONTINUOUS
 62
     7
 10
31.777443286827559
 20
154.47611790597949
 30
0.0
  0
VERTEX
  5
D04
  8
0
  6
CONTINUOUS
 62
     7
 10
31.844733286827559
 20
154.4945299059795
 30
0.0
  0
VERTEX
  5
D05
  8
0
  6
CONTINUOUS
 62
     7
 10
31.89820328682756
 20
154.51426190597951
 30
0.0
  0
VERTEX
  5
D06
  8
0
  6
CONTINUOUS
 62
     7
 10
31.937009286827561
 20
154.5350009059795
 30
0.0
  0
VERTEX
  5
D07
  8
0
  6
CONTINUOUS
 62
     7
 10
31.96054128682756
 20
154.55642190597951
 30
0.0
  0
VERTEX
  5
D08
  8
0
  6
CONTINUOUS
 62
     7
 10
31.968426286827562
 20
154.5781859059795
 30
0.0
  0
SEQEND
  5
D09
  8
0
  6
CONTINUOUS
 62
     7
  0
POLYLINE
  5
9C5
  8
0
  6
CONTINUOUS
 62
     7
 66
     1
 10
0.0
 20
0.0
 30
0.0
  0
VERTEX
  5
D0A
  8
0
  6
CONTINUOUS
 62
     7
 10
31.968426286827562
 20
150.85784290597951
 30
0.0
  0
VERTEX
  5
D0B
  8
0
  6
CONTINUOUS
 62
     7
 10
31.96054128682756
 20
150.79517590597951
 30
0.0
  0
VERTEX
  5
D0C
  8
0
  6
CONTINUOUS
 62
     7
 10
31.937009286827561
 20
150.7334979059795
 30
0.0
  0
VERTEX
  5
D0D
  8
0
  6
CONTINUOUS
 62
     7
 10
31.89820328682756
 20
150.6737799059795
 30
0.0
  0
VERTEX
  5
D0E
  8
0
  6
CONTINUOUS
 62
     7
 10
31.844733286827559
 20
150.6169659059795
 30
0.0
  0
VERTEX
  5
D0F
  8
0
  6
CONTINUOUS
 62
     7
 10
31.777443286827559
 20
150.56394990597951
 30
0.0
  0
VERTEX
  5
D10
  8
0
  6
CONTINUOUS
 62
     7
 10
31.697395286827561
 20
150.51556890597951
 30
0.0
  0
VERTEX
  5
D11
  8
0
  6
CONTINUOUS
 62
     7
 10
31.605850286827561
 20
150.47258590597951
 30
0.0
  0
VERTEX
  5
D12
  8
0
  6
CONTINUOUS
 62
     7
 10
31.504253286827559
 20
150.4356789059795
 30
0.0
  0
VERTEX
  5
D13
  8
0
  6
CONTINUOUS
 62
     7
 10
31.394206286827561
 20
150.40542890597951
 30
0.0
  0
VERTEX
  5
D14
  8
0
  6
CONTINUOUS
 62
     7
 10
31.31044628682756
 20
150.38799590597949
 30
0.0
  0
VERTEX
  5
D15
  8
0
  6
CONTINUOUS
 62
     7
 10
30.36842628682756
 20
150.20773890597951
 30
0.0
  0
VERTEX
  5
D16
  8
0
  6
CONTINUOUS
 62
     7
 10
28.968426286827562
 20
150.20773890597951
 30
0.0
  0
SEQEND
  5
D17
  8
0
  6
CONTINUOUS
 62
     7
  0
LINE
  5
9C6
  8
0
  6
CONTINUOUS
 62
     7
 10
30.36842628682756
 20
156.55773890597951
 30
0.0
 11
30.36842628682756
 21
158.7630709059795
 31
0.0
  0
LINE
  5
9C7
  8
0
  6
CONTINUOUS
 62
     7
 10
30.36842628682756
 20
156.55773890597951
 30
0.0
 11
30.36842628682756
 21
154.35240690597951
 31
0.0
  0
LINE
  5
9C8
  8
0
  6
CONTINUOUS
 62
     7
 10
31.968426286827562
 20
156.55773890597951
 30
0.0
 11
31.968426286827562
 21
145.55773890597951
 31
0.0
  0
LINE
  5
9C9
  8
0
  6
CONTINUOUS
 62
     7
 10
31.968426286827562
 20
156.55773890597951
 30
0.0
 11
31.968426286827562
 21
145.55773890597951
 31
0.0
  0
LINE
  5
9CA
  8
0
  6
CONTINUOUS
 62
     7
 10
31.968426286827562
 20
156.55773890597951
 30
0.0
 11
31.968426286827562
 21
145.55773890597951
 31
0.0
  0
LINE
  5
9CB
  8
0
  6
CONTINUOUS
 62
     7
 10
27.598368286827561
 20
156.55773890597951
 30
0.0
 11
27.598368286827561
 21
143.66040390597951
 31
0.0
  0
LINE
  5
9CC
  8
0
  6
CONTINUOUS
 62
     7
 10
28.168426286827561
 20
143.95333790597951
 30
0.0
 11
28.168426286827561
 21
156.55773890597951
 31
0.0
  0
LINE
  5
9CD
  8
0
  6
CONTINUOUS
 62
     7
 10
24.425533286827552
 20
156.55773890597951
 30
0.0
 11
24.425533286827552
 21
143.7044129059795
 31
0.0
  0
LINE
  5
9CE
  8
0
  6
CONTINUOUS
 62
     7
 10
23.461320286827561
 20
156.55773890597951
 30
0.0
 11
23.461320286827561
 21
144.20050690597949
 31
0.0
  0
LINE
  5
9CF
  8
0
  6
CONTINUOUS
 62
     7
 10
23.461320286827561
 20
156.55773890597951
 30
0.0
 11
23.461320286827561
 21
168.91497090597949
 31
0.0
  0
LINE
  5
9D0
  8
0
  6
CONTINUOUS
 62
     7
 10
24.425533286827552
 20
156.55773890597951
 30
0.0
 11
24.425533286827552
 21
169.41106490597949
 31
0.0
  0
LINE
  5
9D1
  8
0
  6
CONTINUOUS
 62
     7
 10
28.168426286827561
 20
169.1621399059795
 30
0.0
 11
28.168426286827561
 21
156.55773890597951
 31
0.0
  0
LINE
  5
9D2
  8
0
  6
CONTINUOUS
 62
     7
 10
31.968426286827562
 20
156.55773890597951
 30
0.0
 11
31.968426286827562
 21
167.55773890597951
 31
0.0
  0
LINE
  5
9D3
  8
0
  6
CONTINUOUS
 62
     7
 10
31.968426286827562
 20
156.55773890597951
 30
0.0
 11
31.968426286827562
 21
167.55773890597951
 31
0.0
  0
LINE
  5
9D4
  8
0
  6
CONTINUOUS
 62
     7
 10
31.968426286827562
 20
156.55773890597951
 30
0.0
 11
31.968426286827562
 21
167.55773890597951
 31
0.0
  0
LINE
  5
9D5
  8
0
  6
CONTINUOUS
 62
     7
 10
27.598368286827561
 20
156.55773890597951
 30
0.0
 11
27.598368286827561
 21
169.4550739059795
 31
0.0
  0
ARC
  5
9D6
  8
0
  6
CONTINUOUS
 62
     7
 10
32.250049286827561
 20
146.4077389059795
 30
0.0
 40
0.7
 50
246.27682300000001
 51
270.00000100000011
  0
LINE
  5
9D7
  8
0
  6
CONTINUOUS
 62
     7
 10
32.250049286827561
 20
145.70773890597951
 30
0.0
 11
34.250049286827561
 21
145.70773890597951
 31
0.0
  0
ARC
  5
9D8
  8
0
  6
CONTINUOUS
 62
     7
 10
34.250049286827561
 20
146.20773890597951
 30
0.0
 40
0.5
 50
270.00000100000011
 51
0.0
  0
LINE
  5
9D9
  8
0
  6
CONTINUOUS
 62
     7
 10
34.750049286827561
 20
146.20773890597951
 30
0.0
 11
34.750049286827561
 21
156.55773890597951
 31
0.0
  0
ARC
  5
9DA
  8
0
  6
CONTINUOUS
 62
     7
 10
32.250049286827561
 20
166.70773890597951
 30
0.0
 40
0.7
 50
89.999998999999818
 51
113.72317699999989
  0
LINE
  5
9DB
  8
0
  6
CONTINUOUS
 62
     7
 10
32.250049286827561
 20
167.4077389059795
 30
0.0
 11
34.250049286827561
 21
167.4077389059795
 31
0.0
  0
ARC
  5
9DC
  8
0
  6
CONTINUOUS
 62
     7
 10
34.250049286827561
 20
166.9077389059795
 30
0.0
 40
0.5
 50
0.0
 51
89.999998999999818
  0
LINE
  5
9DD
  8
0
  6
CONTINUOUS
 62
     7
 10
34.750049286827561
 20
166.9077389059795
 30
0.0
 11
34.750049286827561
 21
156.55773890597951
 31
0.0
  0
ARC
  5
9DE
  8
0
  6
CONTINUOUS
 62
     7
 10
8.5683322868275589
 20
158.54084690597949
 30
0.0
 40
0.3
 50
179.9999980000004
 51
270.00000100000011
  0
LINE
  5
9DF
  8
0
  6
CONTINUOUS
 62
     7
 10
8.5683322868275589
 20
158.24084690597951
 30
0.0
 11
10.929102286827559
 21
158.24084690597951
 31
0.0
  0
ARC
  5
9E0
  8
0
  6
CONTINUOUS
 62
     7
 10
10.929102286827559
 20
158.54084690597949
 30
0.0
 40
0.3
 50
270.00000100000011
 51
0.0
  0
LINE
  5
9E1
  8
0
  6
CONTINUOUS
 62
     7
 10
11.22910228682756
 20
158.54084690597949
 30
0.0
 11
11.22910228682756
 21
160.6332189059795
 31
0.0
  0
LINE
  5
9E2
  8
0
  6
CONTINUOUS
 62
     7
 10
8.2683322868275617
 20
160.6332189059795
 30
0.0
 11
8.2683322868275617
 21
158.54084690597949
 31
0.0
  0
ARC
  5
9E3
  8
0
  6
CONTINUOUS
 62
     7
 10
8.5683322868275589
 20
158.54084690597949
 30
0.0
 40
0.3
 50
179.9999980000004
 51
270.00000100000011
  0
LINE
  5
9E4
  8
0
  6
CONTINUOUS
 62
     7
 10
8.5683322868275589
 20
158.24084690597951
 30
0.0
 11
10.929102286827559
 21
158.24084690597951
 31
0.0
  0
ARC
  5
9E5
  8
0
  6
CONTINUOUS
 62
     7
 10
10.929102286827559
 20
158.54084690597949
 30
0.0
 40
0.3
 50
270.00000100000011
 51
0.0
  0
LINE
  5
9E6
  8
0
  6
CONTINUOUS
 62
     7
 10
11.22910228682756
 20
158.54084690597949
 30
0.0
 11
11.22910228682756
 21
160.6332189059795
 31
0.0
  0
LINE
  5
9E7
  8
0
  6
CONTINUOUS
 62
     7
 10
8.2683322868275617
 20
160.6332189059795
 30
0.0
 11
8.2683322868275617
 21
158.54084690597949
 31
0.0
  0
ARC
  5
9E8
  8
0
  6
CONTINUOUS
 62
     7
 10
7.9621152868275571
 20
158.24084690597951
 30
0.0
 40
0.3
 50
179.9999980000004
 51
270.00000100000011
  0
LINE
  5
9E9
  8
0
  6
CONTINUOUS
 62
     7
 10
7.9621152868275571
 20
157.9408469059795
 30
0.0
 11
11.535320286827551
 21
157.9408469059795
 31
0.0
  0
ARC
  5
9EA
  8
0
  6
CONTINUOUS
 62
     7
 10
11.535320286827551
 20
158.24084690597951
 30
0.0
 40
0.3
 50
270.00000100000011
 51
0.0
  0
LINE
  5
9EB
  8
0
  6
CONTINUOUS
 62
     7
 10
11.83532028682755
 20
158.24084690597951
 30
0.0
 11
11.83532028682755
 21
160.6332189059795
 31
0.0
  0
LINE
  5
9EC
  8
0
  6
CONTINUOUS
 62
     7
 10
7.6621152868275573
 20
160.6332189059795
 30
0.0
 11
7.6621152868275573
 21
158.24084690597951
 31
0.0
  0
ARC
  5
9ED
  8
0
  6
CONTINUOUS
 62
     7
 10
7.9621152868275571
 20
158.24084690597951
 30
0.0
 40
0.3
 50
179.9999980000004
 51
270.00000100000011
  0
LINE
  5
9EE
  8
0
  6
CONTINUOUS
 62
     7
 10
7.9621152868275571
 20
157.9408469059795
 30
0.0
 11
11.535320286827551
 21
157.9408469059795
 31
0.0
  0
ARC
  5
9EF
  8
0
  6
CONTINUOUS
 62
     7
 10
11.535320286827551
 20
158.24084690597951
 30
0.0
 40
0.3
 50
270.00000100000011
 51
0.0
  0
LINE
  5
9F0
  8
0
  6
CONTINUOUS
 62
     7
 10
11.83532028682755
 20
158.24084690597951
 30
0.0
 11
11.83532028682755
 21
160.6332189059795
 31
0.0
  0
LINE
  5
9F1
  8
0
  6
CONTINUOUS
 62
     7
 10
7.6621152868275573
 20
160.6332189059795
 30
0.0
 11
7.6621152868275573
 21
158.24084690597951
 31
0.0
  0
ARC
  5
9F2
  8
0
  6
CONTINUOUS
 62
     7
 10
8.5683322868275589
 20
162.72559190597951
 30
0.0
 40
0.3
 50
89.999998999999818
 51
179.9999980000004
  0
LINE
  5
9F3
  8
0
  6
CONTINUOUS
 62
     7
 10
8.5683322868275589
 20
163.0255919059795
 30
0.0
 11
10.929102286827559
 21
163.0255919059795
 31
0.0
  0
ARC
  5
9F4
  8
0
  6
CONTINUOUS
 62
     7
 10
10.929102286827559
 20
162.72559190597951
 30
0.0
 40
0.3
 50
0.0
 51
89.999998999999818
  0
LINE
  5
9F5
  8
0
  6
CONTINUOUS
 62
     7
 10
11.22910228682756
 20
162.72559190597951
 30
0.0
 11
11.22910228682756
 21
160.6332189059795
 31
0.0
  0
LINE
  5
9F6
  8
0
  6
CONTINUOUS
 62
     7
 10
8.2683322868275617
 20
160.6332189059795
 30
0.0
 11
8.2683322868275617
 21
162.72559190597951
 31
0.0
  0
ARC
  5
9F7
  8
0
  6
CONTINUOUS
 62
     7
 10
8.5683322868275589
 20
162.72559190597951
 30
0.0
 40
0.3
 50
89.999998999999818
 51
179.9999980000004
  0
LINE
  5
9F8
  8
0
  6
CONTINUOUS
 62
     7
 10
8.5683322868275589
 20
163.0255919059795
 30
0.0
 11
10.929102286827559
 21
163.0255919059795
 31
0.0
  0
ARC
  5
9F9
  8
0
  6
CONTINUOUS
 62
     7
 10
10.929102286827559
 20
162.72559190597951
 30
0.0
 40
0.3
 50
0.0
 51
89.999998999999818
  0
LINE
  5
9FA
  8
0
  6
CONTINUOUS
 62
     7
 10
11.22910228682756
 20
162.72559190597951
 30
0.0
 11
11.22910228682756
 21
160.6332189059795
 31
0.0
  0
LINE
  5
9FB
  8
0
  6
CONTINUOUS
 62
     7
 10
8.2683322868275617
 20
160.6332189059795
 30
0.0
 11
8.2683322868275617
 21
162.72559190597951
 31
0.0
  0
ARC
  5
9FC
  8
0
  6
CONTINUOUS
 62
     7
 10
7.9621152868275571
 20
163.0255919059795
 30
0.0
 40
0.3
 50
89.999998999999818
 51
179.9999980000004
  0
LINE
  5
9FD
  8
0
  6
CONTINUOUS
 62
     7
 10
7.9621152868275571
 20
163.32559190597951
 30
0.0
 11
11.535320286827551
 21
163.32559190597951
 31
0.0
  0
ARC
  5
9FE
  8
0
  6
CONTINUOUS
 62
     7
 10
11.535320286827551
 20
163.0255919059795
 30
0.0
 40
0.3
 50
0.0
 51
89.999998999999818
  0
LINE
  5
9FF
  8
0
  6
CONTINUOUS
 62
     7
 10
11.83532028682755
 20
163.0255919059795
 30
0.0
 11
11.83532028682755
 21
160.6332189059795
 31
0.0
  0
LINE
  5
A00
  8
0
  6
CONTINUOUS
 62
     7
 10
7.6621152868275573
 20
160.6332189059795
 30
0.0
 11
7.6621152868275573
 21
163.0255919059795
 31
0.0
  0
ARC
  5
A01
  8
0
  6
CONTINUOUS
 62
     7
 10
7.9621152868275571
 20
163.0255919059795
 30
0.0
 40
0.3
 50
89.999998999999818
 51
179.9999980000004
  0
LINE
  5
A02
  8
0
  6
CONTINUOUS
 62
     7
 10
7.9621152868275571
 20
163.32559190597951
 30
0.0
 11
11.535320286827551
 21
163.32559190597951
 31
0.0
  0
ARC
  5
A03
  8
0
  6
CONTINUOUS
 62
     7
 10
11.535320286827551
 20
163.0255919059795
 30
0.0
 40
0.3
 50
0.0
 51
89.999998999999818
  0
LINE
  5
A04
  8
0
  6
CONTINUOUS
 62
     7
 10
11.83532028682755
 20
163.0255919059795
 30
0.0
 11
11.83532028682755
 21
160.6332189059795
 31
0.0
  0
LINE
  5
A05
  8
0
  6
CONTINUOUS
 62
     7
 10
7.6621152868275573
 20
160.6332189059795
 30
0.0
 11
7.6621152868275573
 21
163.0255919059795
 31
0.0
  0
ARC
  5
A06
  8
0
  6
CONTINUOUS
 62
     7
 10
10.929102286827559
 20
165.7398049059795
 30
0.0
 40
0.3
 50
270.00000100000011
 51
0.0
  0
LINE
  5
A07
  8
0
  6
CONTINUOUS
 62
     7
 10
11.22910228682756
 20
165.7398049059795
 30
0.0
 11
11.22910228682756
 21
167.3303549059795
 31
0.0
  0
LINE
  5
A08
  8
0
  6
CONTINUOUS
 62
     7
 10
8.2683322868275617
 20
167.3303549059795
 30
0.0
 11
8.2683322868275617
 21
165.7398049059795
 31
0.0
  0
ARC
  5
A09
  8
0
  6
CONTINUOUS
 62
     7
 10
8.5683322868275589
 20
165.7398049059795
 30
0.0
 40
0.3
 50
179.9999980000004
 51
270.00000100000011
  0
LINE
  5
A0A
  8
0
  6
CONTINUOUS
 62
     7
 10
8.5683322868275589
 20
165.43980490597951
 30
0.0
 11
10.929102286827559
 21
165.43980490597951
 31
0.0
  0
ARC
  5
A0B
  8
0
  6
CONTINUOUS
 62
     7
 10
10.929102286827559
 20
165.7398049059795
 30
0.0
 40
0.3
 50
270.00000100000011
 51
0.0
  0
LINE
  5
A0C
  8
0
  6
CONTINUOUS
 62
     7
 10
11.22910228682756
 20
165.7398049059795
 30
0.0
 11
11.22910228682756
 21
167.3303549059795
 31
0.0
  0
LINE
  5
A0D
  8
0
  6
CONTINUOUS
 62
     7
 10
8.2683322868275617
 20
167.3303549059795
 30
0.0
 11
8.2683322868275617
 21
165.7398049059795
 31
0.0
  0
ARC
  5
A0E
  8
0
  6
CONTINUOUS
 62
     7
 10
8.5683322868275589
 20
165.7398049059795
 30
0.0
 40
0.3
 50
179.9999980000004
 51
270.00000100000011
  0
LINE
  5
A0F
  8
0
  6
CONTINUOUS
 62
     7
 10
8.5683322868275589
 20
165.43980490597951
 30
0.0
 11
10.929102286827559
 21
165.43980490597951
 31
0.0
  0
ARC
  5
A10
  8
0
  6
CONTINUOUS
 62
     7
 10
11.535320286827551
 20
165.53980490597951
 30
0.0
 40
0.3
 50
270.00000100000011
 51
0.0
  0
LINE
  5
A11
  8
0
  6
CONTINUOUS
 62
     7
 10
11.83532028682755
 20
165.53980490597951
 30
0.0
 11
11.83532028682755
 21
167.45773890597951
 31
0.0
  0
LINE
  5
A12
  8
0
  6
CONTINUOUS
 62
     7
 10
7.6621152868275573
 20
167.45773890597951
 30
0.0
 11
7.6621152868275573
 21
165.53980490597951
 31
0.0
  0
ARC
  5
A13
  8
0
  6
CONTINUOUS
 62
     7
 10
7.9621152868275571
 20
165.53980490597951
 30
0.0
 40
0.3
 50
179.9999980000004
 51
270.00000100000011
  0
LINE
  5
A14
  8
0
  6
CONTINUOUS
 62
     7
 10
7.9621152868275571
 20
165.2398049059795
 30
0.0
 11
11.535320286827551
 21
165.2398049059795
 31
0.0
  0
ARC
  5
A15
  8
0
  6
CONTINUOUS
 62
     7
 10
11.535320286827551
 20
165.53980490597951
 30
0.0
 40
0.3
 50
270.00000100000011
 51
0.0
  0
LINE
  5
A16
  8
0
  6
CONTINUOUS
 62
     7
 10
11.83532028682755
 20
165.53980490597951
 30
0.0
 11
11.83532028682755
 21
167.45773890597951
 31
0.0
  0
LINE
  5
A17
  8
0
  6
CONTINUOUS
 62
     7
 10
7.6621152868275573
 20
167.45773890597951
 30
0.0
 11
7.6621152868275573
 21
165.53980490597951
 31
0.0
  0
ARC
  5
A18
  8
0
  6
CONTINUOUS
 62
     7
 10
7.9621152868275571
 20
165.53980490597951
 30
0.0
 40
0.3
 50
179.9999980000004
 51
270.00000100000011
  0
LINE
  5
A19
  8
0
  6
CONTINUOUS
 62
     7
 10
7.9621152868275571
 20
165.2398049059795
 30
0.0
 11
11.535320286827551
 21
165.2398049059795
 31
0.0
  0
ARC
  5
A1C
  8
0
  6
CONTINUOUS
 62
     7
 10
11.535320286827551
 20
147.5756729059795
 30
0.0
 40
0.3
 50
0.0
 51
89.999998999999818
  0
LINE
  5
A1D
  8
0
  6
CONTINUOUS
 62
     7
 10
11.83532028682755
 20
147.5756729059795
 30
0.0
 11
11.83532028682755
 21
145.6577389059795
 31
0.0
  0
LINE
  5
A1E
  8
0
  6
CONTINUOUS
 62
     7
 10
7.6621152868275573
 20
145.6577389059795
 30
0.0
 11
7.6621152868275573
 21
147.5756729059795
 31
0.0
  0
ARC
  5
A1F
  8
0
  6
CONTINUOUS
 62
     7
 10
7.9621152868275571
 20
147.5756729059795
 30
0.0
 40
0.3
 50
89.999998999999818
 51
179.9999980000004
  0
LINE
  5
A20
  8
0
  6
CONTINUOUS
 62
     7
 10
7.9621152868275571
 20
147.87567290597951
 30
0.0
 11
11.535320286827551
 21
147.87567290597951
 31
0.0
  0
ARC
  5
A21
  8
0
  6
CONTINUOUS
 62
     7
 10
11.535320286827551
 20
147.5756729059795
 30
0.0
 40
0.3
 50
0.0
 51
89.999998999999818
  0
LINE
  5
A22
  8
0
  6
CONTINUOUS
 62
     7
 10
11.83532028682755
 20
147.5756729059795
 30
0.0
 11
11.83532028682755
 21
145.6577389059795
 31
0.0
  0
LINE
  5
A23
  8
0
  6
CONTINUOUS
 62
     7
 10
7.6621152868275573
 20
145.6577389059795
 30
0.0
 11
7.6621152868275573
 21
147.5756729059795
 31
0.0
  0
ARC
  5
A24
  8
0
  6
CONTINUOUS
 62
     7
 10
7.9621152868275571
 20
147.5756729059795
 30
0.0
 40
0.3
 50
89.999998999999818
 51
179.9999980000004
  0
LINE
  5
A25
  8
0
  6
CONTINUOUS
 62
     7
 10
7.9621152868275571
 20
147.87567290597951
 30
0.0
 11
11.535320286827551
 21
147.87567290597951
 31
0.0
  0
ARC
  5
A26
  8
0
  6
CONTINUOUS
 62
     7
 10
10.929102286827559
 20
147.37567290597951
 30
0.0
 40
0.3
 50
0.0
 51
89.999998999999818
  0
LINE
  5
A27
  8
0
  6
CONTINUOUS
 62
     7
 10
11.22910228682756
 20
147.37567290597951
 30
0.0
 11
11.22910228682756
 21
145.78512290597951
 31
0.0
  0
LINE
  5
A28
  8
0
  6
CONTINUOUS
 62
     7
 10
8.2683322868275617
 20
145.78512290597951
 30
0.0
 11
8.2683322868275617
 21
147.37567290597951
 31
0.0
  0
ARC
  5
A29
  8
0
  6
CONTINUOUS
 62
     7
 10
8.5683322868275589
 20
147.37567290597951
 30
0.0
 40
0.3
 50
89.999998999999818
 51
179.9999980000004
  0
LINE
  5
A2A
  8
0
  6
CONTINUOUS
 62
     7
 10
8.5683322868275589
 20
147.6756729059795
 30
0.0
 11
10.929102286827559
 21
147.6756729059795
 31
0.0
  0
ARC
  5
A2B
  8
0
  6
CONTINUOUS
 62
     7
 10
10.929102286827559
 20
147.37567290597951
 30
0.0
 40
0.3
 50
0.0
 51
89.999998999999818
  0
LINE
  5
A2C
  8
0
  6
CONTINUOUS
 62
     7
 10
11.22910228682756
 20
147.37567290597951
 30
0.0
 11
11.22910228682756
 21
145.78512290597951
 31
0.0
  0
LINE
  5
A2D
  8
0
  6
CONTINUOUS
 62
     7
 10
8.2683322868275617
 20
145.78512290597951
 30
0.0
 11
8.2683322868275617
 21
147.37567290597951
 31
0.0
  0
ARC
  5
A2E
  8
0
  6
CONTINUOUS
 62
     7
 10
8.5683322868275589
 20
147.37567290597951
 30
0.0
 40
0.3
 50
89.999998999999818
 51
179.9999980000004
  0
LINE
  5
A2F
  8
0
  6
CONTINUOUS
 62
     7
 10
8.5683322868275589
 20
147.6756729059795
 30
0.0
 11
10.929102286827559
 21
147.6756729059795
 31
0.0
  0
ARC
  5
A30
  8
0
  6
CONTINUOUS
 62
     7
 10
7.9621152868275571
 20
150.08988590597949
 30
0.0
 40
0.3
 50
179.9999980000004
 51
270.00000100000011
  0
LINE
  5
A31
  8
0
  6
CONTINUOUS
 62
     7
 10
7.9621152868275571
 20
149.7898859059795
 30
0.0
 11
11.535320286827551
 21
149.7898859059795
 31
0.0
  0
ARC
  5
A32
  8
0
  6
CONTINUOUS
 62
     7
 10
11.535320286827551
 20
150.08988590597949
 30
0.0
 40
0.3
 50
270.00000100000011
 51
0.0
  0
LINE
  5
A33
  8
0
  6
CONTINUOUS
 62
     7
 10
11.83532028682755
 20
150.08988590597949
 30
0.0
 11
11.83532028682755
 21
152.48225890597951
 31
0.0
  0
LINE
  5
A34
  8
0
  6
CONTINUOUS
 62
     7
 10
7.6621152868275573
 20
152.48225890597951
 30
0.0
 11
7.6621152868275573
 21
150.08988590597949
 31
0.0
  0
ARC
  5
A35
  8
0
  6
CONTINUOUS
 62
     7
 10
7.9621152868275571
 20
150.08988590597949
 30
0.0
 40
0.3
 50
179.9999980000004
 51
270.00000100000011
  0
LINE
  5
A36
  8
0
  6
CONTINUOUS
 62
     7
 10
7.9621152868275571
 20
149.7898859059795
 30
0.0
 11
11.535320286827551
 21
149.7898859059795
 31
0.0
  0
ARC
  5
A37
  8
0
  6
CONTINUOUS
 62
     7
 10
11.535320286827551
 20
150.08988590597949
 30
0.0
 40
0.3
 50
270.00000100000011
 51
0.0
  0
LINE
  5
A38
  8
0
  6
CONTINUOUS
 62
     7
 10
11.83532028682755
 20
150.08988590597949
 30
0.0
 11
11.83532028682755
 21
152.48225890597951
 31
0.0
  0
LINE
  5
A39
  8
0
  6
CONTINUOUS
 62
     7
 10
7.6621152868275573
 20
152.48225890597951
 30
0.0
 11
7.6621152868275573
 21
150.08988590597949
 31
0.0
  0
ARC
  5
A3A
  8
0
  6
CONTINUOUS
 62
     7
 10
8.5683322868275589
 20
150.3898859059795
 30
0.0
 40
0.3
 50
179.9999980000004
 51
270.00000100000011
  0
LINE
  5
A3B
  8
0
  6
CONTINUOUS
 62
     7
 10
8.5683322868275589
 20
150.08988590597949
 30
0.0
 11
10.929102286827559
 21
150.08988590597949
 31
0.0
  0
ARC
  5
A3C
  8
0
  6
CONTINUOUS
 62
     7
 10
10.929102286827559
 20
150.3898859059795
 30
0.0
 40
0.3
 50
270.00000100000011
 51
0.0
  0
LINE
  5
A3D
  8
0
  6
CONTINUOUS
 62
     7
 10
11.22910228682756
 20
150.3898859059795
 30
0.0
 11
11.22910228682756
 21
152.48225890597951
 31
0.0
  0
LINE
  5
A3E
  8
0
  6
CONTINUOUS
 62
     7
 10
8.2683322868275617
 20
152.48225890597951
 30
0.0
 11
8.2683322868275617
 21
150.3898859059795
 31
0.0
  0
ARC
  5
A3F
  8
0
  6
CONTINUOUS
 62
     7
 10
8.5683322868275589
 20
150.3898859059795
 30
0.0
 40
0.3
 50
179.9999980000004
 51
270.00000100000011
  0
LINE
  5
A40
  8
0
  6
CONTINUOUS
 62
     7
 10
8.5683322868275589
 20
150.08988590597949
 30
0.0
 11
10.929102286827559
 21
150.08988590597949
 31
0.0
  0
ARC
  5
A41
  8
0
  6
CONTINUOUS
 62
     7
 10
10.929102286827559
 20
150.3898859059795
 30
0.0
 40
0.3
 50
270.00000100000011
 51
0.0
  0
LINE
  5
A42
  8
0
  6
CONTINUOUS
 62
     7
 10
11.22910228682756
 20
150.3898859059795
 30
0.0
 11
11.22910228682756
 21
152.48225890597951
 31
0.0
  0
LINE
  5
A43
  8
0
  6
CONTINUOUS
 62
     7
 10
8.2683322868275617
 20
152.48225890597951
 30
0.0
 11
8.2683322868275617
 21
150.3898859059795
 31
0.0
  0
ARC
  5
A44
  8
0
  6
CONTINUOUS
 62
     7
 10
7.9621152868275571
 20
154.8746309059795
 30
0.0
 40
0.3
 50
89.999998999999818
 51
179.9999980000004
  0
LINE
  5
A45
  8
0
  6
CONTINUOUS
 62
     7
 10
7.9621152868275571
 20
155.17463090597951
 30
0.0
 11
11.535320286827551
 21
155.17463090597951
 31
0.0
  0
ARC
  5
A46
  8
0
  6
CONTINUOUS
 62
     7
 10
11.535320286827551
 20
154.8746309059795
 30
0.0
 40
0.3
 50
0.0
 51
89.999998999999818
  0
LINE
  5
A47
  8
0
  6
CONTINUOUS
 62
     7
 10
11.83532028682755
 20
154.8746309059795
 30
0.0
 11
11.83532028682755
 21
152.48225890597951
 31
0.0
  0
LINE
  5
A48
  8
0
  6
CONTINUOUS
 62
     7
 10
7.6621152868275573
 20
152.48225890597951
 30
0.0
 11
7.6621152868275573
 21
154.8746309059795
 31
0.0
  0
ARC
  5
A49
  8
0
  6
CONTINUOUS
 62
     7
 10
7.9621152868275571
 20
154.8746309059795
 30
0.0
 40
0.3
 50
89.999998999999818
 51
179.9999980000004
  0
LINE
  5
A4A
  8
0
  6
CONTINUOUS
 62
     7
 10
7.9621152868275571
 20
155.17463090597951
 30
0.0
 11
11.535320286827551
 21
155.17463090597951
 31
0.0
  0
ARC
  5
A4B
  8
0
  6
CONTINUOUS
 62
     7
 10
11.535320286827551
 20
154.8746309059795
 30
0.0
 40
0.3
 50
0.0
 51
89.999998999999818
  0
LINE
  5
A4C
  8
0
  6
CONTINUOUS
 62
     7
 10
11.83532028682755
 20
154.8746309059795
 30
0.0
 11
11.83532028682755
 21
152.48225890597951
 31
0.0
  0
LINE
  5
A4D
  8
0
  6
CONTINUOUS
 62
     7
 10
7.6621152868275573
 20
152.48225890597951
 30
0.0
 11
7.6621152868275573
 21
154.8746309059795
 31
0.0
  0
ARC
  5
A4E
  8
0
  6
CONTINUOUS
 62
     7
 10
8.5683322868275589
 20
154.57463090597949
 30
0.0
 40
0.3
 50
89.999998999999818
 51
179.9999980000004
  0
LINE
  5
A4F
  8
0
  6
CONTINUOUS
 62
     7
 10
8.5683322868275589
 20
154.8746309059795
 30
0.0
 11
10.929102286827559
 21
154.8746309059795
 31
0.0
  0
ARC
  5
A50
  8
0
  6
CONTINUOUS
 62
     7
 10
10.929102286827559
 20
154.57463090597949
 30
0.0
 40
0.3
 50
0.0
 51
89.999998999999818
  0
LINE
  5
A51
  8
0
  6
CONTINUOUS
 62
     7
 10
11.22910228682756
 20
154.57463090597949
 30
0.0
 11
11.22910228682756
 21
152.48225890597951
 31
0.0
  0
LINE
  5
A52
  8
0
  6
CONTINUOUS
 62
     7
 10
8.2683322868275617
 20
152.48225890597951
 30
0.0
 11
8.2683322868275617
 21
154.57463090597949
 31
0.0
  0
ARC
  5
A53
  8
0
  6
CONTINUOUS
 62
     7
 10
8.5683322868275589
 20
154.57463090597949
 30
0.0
 40
0.3
 50
89.999998999999818
 51
179.9999980000004
  0
LINE
  5
A54
  8
0
  6
CONTINUOUS
 62
     7
 10
8.5683322868275589
 20
154.8746309059795
 30
0.0
 11
10.929102286827559
 21
154.8746309059795
 31
0.0
  0
ARC
  5
A55
  8
0
  6
CONTINUOUS
 62
     7
 10
10.929102286827559
 20
154.57463090597949
 30
0.0
 40
0.3
 50
0.0
 51
89.999998999999818
  0
LINE
  5
A56
  8
0
  6
CONTINUOUS
 62
     7
 10
11.22910228682756
 20
154.57463090597949
 30
0.0
 11
11.22910228682756
 21
152.48225890597951
 31
0.0
  0
LINE
  5
A57
  8
0
  6
CONTINUOUS
 62
     7
 10
8.2683322868275617
 20
152.48225890597951
 30
0.0
 11
8.2683322868275617
 21
154.57463090597949
 31
0.0
  0
ARC
  5
A83
  8
0
  6
CONTINUOUS
 62
     7
 10
13.668426286827559
 20
144.35773890597949
 30
0.0
 40
0.5
 50
179.9999980000004
 51
270.00000100000011
  0
LINE
  5
A84
  8
0
  6
CONTINUOUS
 62
     7
 10
13.668426286827559
 20
143.85773890597949
 30
0.0
 11
23.461320286827561
 21
143.85773890597949
 31
0.0
  0
ARC
  5
A85
  8
0
  6
CONTINUOUS
 62
     7
 10
23.461320286827561
 20
143.35773890597949
 30
0.0
 40
0.5
 50
45.000000000000291
 51
89.999998999999818
  0
LINE
  5
A86
  8
0
  6
CONTINUOUS
 62
     7
 10
23.814873286827559
 20
143.71129190597949
 30
0.0
 11
24.071980286827561
 21
143.4541859059795
 31
0.0
  0
ARC
  5
A87
  8
0
  6
CONTINUOUS
 62
     7
 10
24.425533286827552
 20
143.80773890597951
 30
0.0
 40
0.5
 50
225.00000099999971
 51
270.00000100000011
  0
LINE
  5
A88
  8
0
  6
CONTINUOUS
 62
     7
 10
24.425533286827552
 20
143.30773890597951
 30
0.0
 11
27.411320286827561
 21
143.30773890597951
 31
0.0
  0
ARC
  5
A89
  8
0
  6
CONTINUOUS
 62
     7
 10
27.411320286827561
 20
143.80773890597951
 30
0.0
 40
0.5
 50
270.00000100000011
 51
314.99999999999972
  0
LINE
  5
A8A
  8
0
  6
CONTINUOUS
 62
     7
 10
27.764873286827559
 20
143.4541859059795
 30
0.0
 11
28.02198028682756
 21
143.71129190597949
 31
0.0
  0
ARC
  5
A8B
  8
0
  6
CONTINUOUS
 62
     7
 10
28.375533286827562
 20
143.35773890597949
 30
0.0
 40
0.5
 50
89.999998999999818
 51
134.9999990000002
  0
POLYLINE
  5
A8C
  8
0
  6
CONTINUOUS
 62
     7
 66
     1
 10
0.0
 20
0.0
 30
0.0
  0
VERTEX
  5
D18
  8
0
  6
CONTINUOUS
 62
     7
 10
28.375533286827562
 20
143.85773890597949
 30
0.0
  0
VERTEX
  5
D19
  8
0
  6
CONTINUOUS
 62
     7
 10
30.36842628682756
 20
143.85773890597949
 30
0.0
  0
VERTEX
  5
D1A
  8
0
  6
CONTINUOUS
 62
     7
 10
31.31044628682756
 20
144.2006059059795
 30
0.0
  0
SEQEND
  5
D1B
  8
0
  6
CONTINUOUS
 62
     7
  0
ARC
  5
A8D
  8
0
  6
CONTINUOUS
 62
     7
 10
30.968426286827562
 20
145.14029890597951
 30
0.0
 40
1.0
 50
290.0
 51
0.0
  0
LINE
  5
A8E
  8
0
  6
CONTINUOUS
 62
     7
 10
31.968426286827562
 20
145.14029890597951
 30
0.0
 11
31.968426286827562
 21
156.55773890597951
 31
0.0
  0
LINE
  5
A8F
  8
0
  6
CONTINUOUS
 62
     7
 10
13.168426286827559
 20
156.55773890597951
 30
0.0
 11
13.168426286827559
 21
144.35773890597949
 31
0.0
  0
ARC
  5
A90
  8
0
  6
CONTINUOUS
 62
     7
 10
13.668426286827559
 20
168.75773890597949
 30
0.0
 40
0.5
 50
89.999998999999818
 51
179.9999980000004
  0
LINE
  5
A91
  8
0
  6
CONTINUOUS
 62
     7
 10
13.668426286827559
 20
169.25773890597949
 30
0.0
 11
23.461320286827561
 21
169.25773890597949
 31
0.0
  0
ARC
  5
A92
  8
0
  6
CONTINUOUS
 62
     7
 10
23.461320286827561
 20
169.75773890597949
 30
0.0
 40
0.5
 50
270.00000100000011
 51
314.99999999999972
  0
LINE
  5
A93
  8
0
  6
CONTINUOUS
 62
     7
 10
23.814873286827559
 20
169.40418590597949
 30
0.0
 11
24.071980286827561
 21
169.66129190597951
 31
0.0
  0
ARC
  5
A94
  8
0
  6
CONTINUOUS
 62
     7
 10
24.425533286827552
 20
169.30773890597951
 30
0.0
 40
0.5
 50
89.999998999999818
 51
134.9999990000002
  0
LINE
  5
A95
  8
0
  6
CONTINUOUS
 62
     7
 10
24.425533286827552
 20
169.80773890597951
 30
0.0
 11
27.411320286827561
 21
169.80773890597951
 31
0.0
  0
ARC
  5
A96
  8
0
  6
CONTINUOUS
 62
     7
 10
27.411320286827561
 20
169.30773890597951
 30
0.0
 40
0.5
 50
45.000000000000291
 51
89.999998999999818
  0
LINE
  5
A97
  8
0
  6
CONTINUOUS
 62
     7
 10
27.764873286827559
 20
169.66129190597951
 30
0.0
 11
28.02198028682756
 21
169.40418590597949
 31
0.0
  0
ARC
  5
A98
  8
0
  6
CONTINUOUS
 62
     7
 10
28.375533286827562
 20
169.75773890597949
 30
0.0
 40
0.5
 50
225.00000099999971
 51
270.00000100000011
  0
POLYLINE
  5
A99
  8
0
  6
CONTINUOUS
 62
     7
 66
     1
 10
0.0
 20
0.0
 30
0.0
  0
VERTEX
  5
D1C
  8
0
  6
CONTINUOUS
 62
     7
 10
28.375533286827562
 20
169.25773890597949
 30
0.0
  0
VERTEX
  5
D1D
  8
0
  6
CONTINUOUS
 62
     7
 10
30.36842628682756
 20
169.25773890597949
 30
0.0
  0
VERTEX
  5
D1E
  8
0
  6
CONTINUOUS
 62
     7
 10
31.31044628682756
 20
168.91487190597951
 30
0.0
  0
SEQEND
  5
D1F
  8
0
  6
CONTINUOUS
 62
     7
  0
ARC
  5
A9A
  8
0
  6
CONTINUOUS
 62
     7
 10
30.968426286827562
 20
167.9751789059795
 30
0.0
 40
1.0
 50
0.0
 51
69.999999999999915
  0
LINE
  5
A9B
  8
0
  6
CONTINUOUS
 62
     7
 10
31.968426286827562
 20
167.9751789059795
 30
0.0
 11
31.968426286827562
 21
156.55773890597951
 31
0.0
  0
LINE
  5
A9C
  8
0
  6
CONTINUOUS
 62
     7
 10
13.168426286827559
 20
156.55773890597951
 30
0.0
 11
13.168426286827559
 21
168.75773890597949
 31
0.0
  0
LINE
  5
A9D
  8
0
  6
CONTINUOUS
 62
     7
 10
-12.172600713172431
 20
162.54891190597951
 30
0.0
 11
-12.172600713172431
 21
161.02987490597951
 31
0.0
  0
ARC
  5
A9E
  8
0
  6
CONTINUOUS
 62
     7
 10
-7.7564567131724402
 20
164.8817249059795
 30
0.0
 40
4.9944309999999987
 50
160.3924029999998
 51
207.8451029999998
  0
ARC
  5
A9F
  8
0
  6
CONTINUOUS
 62
     7
 10
-17.07663271317243
 20
163.98599190597949
 30
0.0
 40
4.3287259999999996
 50
334.09182500000043
 51
21.654747000000711
  0
LINE
  5
AA0
  8
0
  6
CONTINUOUS
 62
     7
 10
-12.172600713172431
 20
162.54891190597951
 30
0.0
 11
-4.2499507131724377
 21
162.54891190597951
 31
0.0
  0
LINE
  5
AA1
  8
0
  6
CONTINUOUS
 62
     7
 10
-12.172600713172431
 20
161.02987490597951
 30
0.0
 11
-4.2499507131724377
 21
161.02987490597951
 31
0.0
  0
LINE
  5
AA2
  8
0
  6
CONTINUOUS
 62
     7
 10
-12.172600713172431
 20
150.5665659059795
 30
0.0
 11
-12.172600713172431
 21
152.0856029059795
 31
0.0
  0
ARC
  5
AA3
  8
0
  6
CONTINUOUS
 62
     7
 10
-17.07663271317243
 20
149.12948590597949
 30
0.0
 40
4.3287259999999996
 50
338.34525299999922
 51
25.908174999999559
  0
ARC
  5
AA4
  8
0
  6
CONTINUOUS
 62
     7
 10
-7.7564567131724402
 20
148.23375290597949
 30
0.0
 40
4.9944309999999987
 50
152.15489700000009
 51
199.60759700000011
  0
LINE
  5
AA5
  8
0
  6
CONTINUOUS
 62
     7
 10
-12.172600713172431
 20
150.5665659059795
 30
0.0
 11
-4.2499507131724377
 21
150.5665659059795
 31
0.0
  0
LINE
  5
AA6
  8
0
  6
CONTINUOUS
 62
     7
 10
-12.172600713172431
 20
152.0856029059795
 30
0.0
 11
-4.2499507131724377
 21
152.0856029059795
 31
0.0
  0
ARC
  5
AA7
  8
0
  6
CONTINUOUS
 62
     7
 10
4.859232286827563
 20
156.55773890597951
 30
0.0
 40
17.609182999999991
 50
165.28766700000011
 51
179.9999980000004
  0
ARC
  5
AA8
  8
0
  6
CONTINUOUS
 62
     7
 10
-28.338410713172429
 20
156.55773890597951
 30
0.0
 40
15.58846
 50
0.0
 51
13.53620300000037
  0
LINE
  5
AA9
  8
0
  6
CONTINUOUS
 62
     7
 10
-3.9643207131724401
 20
156.55773890597951
 30
0.0
 11
-3.9643207131724401
 21
145.7632509059795
 31
0.0
  0
LINE
  5
AAA
  8
0
  6
CONTINUOUS
 62
     7
 10
-4.2499507131724377
 20
146.05773890597951
 30
0.0
 11
-4.2499507131724377
 21
156.55773890597951
 31
0.0
  0
LINE
  5
AAB
  8
0
  6
CONTINUOUS
 62
     7
 10
-4.2499507131724377
 20
146.05773890597951
 30
0.0
 11
-4.2499507131724377
 21
156.55773890597951
 31
0.0
  0
ARC
  5
AAC
  8
0
  6
CONTINUOUS
 62
     7
 10
-28.338410713172429
 20
156.55773890597951
 30
0.0
 40
15.58846
 50
346.4637969999996
 51
0.0
  0
ARC
  5
AAD
  8
0
  6
CONTINUOUS
 62
     7
 10
4.859232286827563
 20
156.55773890597951
 30
0.0
 40
17.609182999999991
 50
180.00000199999951
 51
194.7123329999998
  0
LINE
  5
AAE
  8
0
  6
CONTINUOUS
 62
     7
 10
-4.2499507131724377
 20
167.05773890597951
 30
0.0
 11
-4.2499507131724377
 21
156.55773890597951
 31
0.0
  0
LINE
  5
AAF
  8
0
  6
CONTINUOUS
 62
     7
 10
-4.2499507131724377
 20
167.05773890597951
 30
0.0
 11
-4.2499507131724377
 21
156.55773890597951
 31
0.0
  0
LINE
  5
AB0
  8
0
  6
CONTINUOUS
 62
     7
 10
-3.9643207131724401
 20
156.55773890597951
 30
0.0
 11
-3.9643207131724401
 21
167.35222690597951
 31
0.0
  0
ARC
  5
AB1
  8
0
  6
CONTINUOUS
 62
     7
 10
-21.870659713172429
 20
163.72508690597951
 30
0.0
 40
1.852433
 50
118.3378029999996
 51
241.6621970000003
  0
ARC
  5
AB2
  8
0
  6
CONTINUOUS
 62
     7
 10
-21.870659713172429
 20
149.3903909059795
 30
0.0
 40
1.852433
 50
118.3378029999996
 51
241.6621970000003
  0
ARC
  5
AB3
  8
0
  6
CONTINUOUS
 62
     7
 10
-16.35388371317244
 20
156.55773890597951
 30
0.0
 40
7.3635729999999988
 50
150.29744999999991
 51
179.9999980000004
  0
ARC
  5
AB4
  8
0
  6
CONTINUOUS
 62
     7
 10
-16.35388371317244
 20
156.55773890597951
 30
0.0
 40
7.3635729999999988
 50
179.9999980000004
 51
209.70255
  0
POLYLINE
  5
AB5
  8
0
  6
CONTINUOUS
 62
     7
 66
     1
 10
0.0
 20
0.0
 30
0.0
 70
     1
  0
VERTEX
  5
D20
  8
0
  6
CONTINUOUS
 62
     7
 10
-22.749952713172441
 20
160.2063699059795
 30
0.0
  0
VERTEX
  5
D21
  8
0
  6
CONTINUOUS
 62
     7
 10
-13.182963713172439
 20
160.2063699059795
 30
0.0
  0
VERTEX
  5
D22
  8
0
  6
CONTINUOUS
 62
     7
 10
-13.182963713172439
 20
162.0946409059795
 30
0.0
  0
VERTEX
  5
D23
  8
0
  6
CONTINUOUS
 62
     7
 10
-22.749952713172441
 20
162.0946409059795
 30
0.0
  0
VERTEX
  5
D24
  8
0
  6
CONTINUOUS
 62
     7
 10
-22.749952713172441
 20
160.2063699059795
 30
0.0
  0
SEQEND
  5
D25
  8
0
  6
CONTINUOUS
 62
     7
  0
POLYLINE
  5
AB6
  8
0
  6
CONTINUOUS
 62
     7
 66
     1
 10
0.0
 20
0.0
 30
0.0
 70
     1
  0
VERTEX
  5
D26
  8
0
  6
CONTINUOUS
 62
     7
 10
-22.749952713172441
 20
152.90910790597951
 30
0.0
  0
VERTEX
  5
D27
  8
0
  6
CONTINUOUS
 62
     7
 10
-13.182963713172439
 20
152.90910790597951
 30
0.0
  0
VERTEX
  5
D28
  8
0
  6
CONTINUOUS
 62
     7
 10
-13.182963713172439
 20
151.02083690597951
 30
0.0
  0
VERTEX
  5
D29
  8
0
  6
CONTINUOUS
 62
     7
 10
-22.749952713172441
 20
151.02083690597951
 30
0.0
  0
VERTEX
  5
D2A
  8
0
  6
CONTINUOUS
 62
     7
 10
-22.749952713172441
 20
152.90910790597951
 30
0.0
  0
SEQEND
  5
D2B
  8
0
  6
CONTINUOUS
 62
     7
  0
ARC
  5
AB7
  8
0
  6
CONTINUOUS
 62
     7
 10
-29.249950713172439
 20
150.65784290597949
 30
0.0
 40
0.5
 50
179.9999980000004
 51
250.0000010000002
  0
LINE
  5
AB8
  8
0
  6
CONTINUOUS
 62
     7
 10
-29.749950713172431
 20
150.65784290597949
 30
0.0
 11
-29.749950713172431
 21
156.55773890597951
 31
0.0
  0
POLYLINE
  5
AB9
  8
0
  6
CONTINUOUS
 62
     7
 66
     1
 10
0.0
 20
0.0
 30
0.0
  0
VERTEX
  5
D2C
  8
0
  6
CONTINUOUS
 62
     7
 10
-12.74995071317243
 20
156.55773890597951
 30
0.0
  0
VERTEX
  5
D2D
  8
0
  6
CONTINUOUS
 62
     7
 10
-12.74995071317243
 20
148.05773890597951
 30
0.0
  0
VERTEX
  5
D2E
  8
0
  6
CONTINUOUS
 62
     7
 10
-13.182963713172439
 20
147.30773890597951
 30
0.0
  0
VERTEX
  5
D2F
  8
0
  6
CONTINUOUS
 62
     7
 10
-21.507518713172441
 20
147.30773890597951
 30
0.0
  0
VERTEX
  5
D30
  8
0
  6
CONTINUOUS
 62
     7
 10
-29.42096071317243
 20
150.18799590597951
 30
0.0
  0
SEQEND
  5
D31
  8
0
  6
CONTINUOUS
 62
     7
  0
ARC
  5
ABA
  8
0
  6
CONTINUOUS
 62
     7
 10
-29.249950713172439
 20
162.45763490597949
 30
0.0
 40
0.5
 50
109.9999989999998
 51
179.9999980000004
  0
LINE
  5
ABB
  8
0
  6
CONTINUOUS
 62
     7
 10
-29.749950713172431
 20
162.45763490597949
 30
0.0
 11
-29.749950713172431
 21
156.55773890597951
 31
0.0
  0
POLYLINE
  5
ABC
  8
0
  6
CONTINUOUS
 62
     7
 66
     1
 10
0.0
 20
0.0
 30
0.0
  0
VERTEX
  5
D32
  8
0
  6
CONTINUOUS
 62
     7
 10
-12.74995071317243
 20
156.55773890597951
 30
0.0
  0
VERTEX
  5
D33
  8
0
  6
CONTINUOUS
 62
     7
 10
-12.74995071317243
 20
165.05773890597951
 30
0.0
  0
VERTEX
  5
D34
  8
0
  6
CONTINUOUS
 62
     7
 10
-13.182963713172439
 20
165.80773890597951
 30
0.0
  0
VERTEX
  5
D35
  8
0
  6
CONTINUOUS
 62
     7
 10
-21.507518713172441
 20
165.80773890597951
 30
0.0
  0
VERTEX
  5
D36
  8
0
  6
CONTINUOUS
 62
     7
 10
-29.42096071317243
 20
162.9274819059795
 30
0.0
  0
SEQEND
  5
D37
  8
0
  6
CONTINUOUS
 62
     7
  0
ARC
  5
ABE
  8
0
  6
CONTINUOUS
 62
     7
 10
-3.9035407131724389
 20
145.85773890597949
 30
0.0
 40
0.2
 50
210.00000100000059
 51
270.00000100000011
  0
POLYLINE
  5
ABF
  8
0
  6
CONTINUOUS
 62
     7
 66
     1
 10
0.0
 20
0.0
 30
0.0
  0
VERTEX
  5
D38
  8
0
  6
CONTINUOUS
 62
     7
 10
-4.0767457131724418
 20
145.75773890597949
 30
0.0
  0
VERTEX
  5
D39
  8
0
  6
CONTINUOUS
 62
     7
 10
-4.2499507131724377
 20
146.05773890597951
 30
0.0
  0
VERTEX
  5
D3A
  8
0
  6
CONTINUOUS
 62
     7
 10
-12.172600713172431
 20
146.05773890597951
 30
0.0
  0
VERTEX
  5
D3B
  8
0
  6
CONTINUOUS
 62
     7
 10
-12.74995071317243
 20
147.05773890597951
 30
0.0
  0
VERTEX
  5
D3C
  8
0
  6
CONTINUOUS
 62
     7
 10
-12.74995071317243
 20
156.55773890597951
 30
0.0
  0
SEQEND
  5
D3D
  8
0
  6
CONTINUOUS
 62
     7
  0
POLYLINE
  5
AC0
  8
0
  6
CONTINUOUS
 62
     7
 66
     1
 10
0.0
 20
0.0
 30
0.0
  0
VERTEX
  5
D3E
  8
0
  6
CONTINUOUS
 62
     7
 10
13.168426286827559
 20
145.6577389059795
 30
0.0
  0
VERTEX
  5
D3F
  8
0
  6
CONTINUOUS
 62
     7
 10
11.83532028682755
 20
145.6577389059795
 30
0.0
  0
VERTEX
  5
D40
  8
0
  6
CONTINUOUS
 62
     7
 10
11.22910228682756
 20
145.78512290597951
 30
0.0
  0
VERTEX
  5
D41
  8
0
  6
CONTINUOUS
 62
     7
 10
8.2683322868275617
 20
145.78512290597951
 30
0.0
  0
VERTEX
  5
D42
  8
0
  6
CONTINUOUS
 62
     7
 10
7.6621152868275573
 20
145.6577389059795
 30
0.0
  0
VERTEX
  5
D43
  8
0
  6
CONTINUOUS
 62
     7
 10
-3.9035407131724389
 20
145.6577389059795
 30
0.0
  0
SEQEND
  5
D44
  8
0
  6
CONTINUOUS
 62
     7
  0
ARC
  5
AC1
  8
0
  6
CONTINUOUS
 62
     7
 10
-3.9035407131724389
 20
167.25773890597949
 30
0.0
 40
0.2
 50
89.999998999999818
 51
149.99999899999929
  0
POLYLINE
  5
AC2
  8
0
  6
CONTINUOUS
 62
     7
 66
     1
 10
0.0
 20
0.0
 30
0.0
  0
VERTEX
  5
D45
  8
0
  6
CONTINUOUS
 62
     7
 10
-4.0767457131724418
 20
167.35773890597949
 30
0.0
  0
VERTEX
  5
D46
  8
0
  6
CONTINUOUS
 62
     7
 10
-4.2499507131724377
 20
167.05773890597951
 30
0.0
  0
VERTEX
  5
D47
  8
0
  6
CONTINUOUS
 62
     7
 10
-12.172600713172431
 20
167.05773890597951
 30
0.0
  0
VERTEX
  5
D48
  8
0
  6
CONTINUOUS
 62
     7
 10
-12.74995071317243
 20
166.05773890597951
 30
0.0
  0
VERTEX
  5
D49
  8
0
  6
CONTINUOUS
 62
     7
 10
-12.74995071317243
 20
156.55773890597951
 30
0.0
  0
SEQEND
  5
D4A
  8
0
  6
CONTINUOUS
 62
     7
  0
POLYLINE
  5
AC3
  8
0
  6
CONTINUOUS
 62
     7
 66
     1
 10
0.0
 20
0.0
 30
0.0
  0
VERTEX
  5
D4B
  8
0
  6
CONTINUOUS
 62
     7
 10
13.168426286827559
 20
167.45773890597951
 30
0.0
  0
VERTEX
  5
D4C
  8
0
  6
CONTINUOUS
 62
     7
 10
11.83532028682755
 20
167.45773890597951
 30
0.0
  0
VERTEX
  5
D4D
  8
0
  6
CONTINUOUS
 62
     7
 10
11.22910228682756
 20
167.3303549059795
 30
0.0
  0
VERTEX
  5
D4E
  8
0
  6
CONTINUOUS
 62
     7
 10
8.2683322868275617
 20
167.3303549059795
 30
0.0
  0
VERTEX
  5
D4F
  8
0
  6
CONTINUOUS
 62
     7
 10
7.6621152868275573
 20
167.45773890597951
 30
0.0
  0
VERTEX
  5
D50
  8
0
  6
CONTINUOUS
 62
     7
 10
-3.9035407131724389
 20
167.45773890597951
 30
0.0
  0
SEQEND
  5
D51
  8
0
  6
CONTINUOUS
 62
     7
  0
LINE
  5
AC4
  8
CENTER
  6
CENTER
 62
     1
 10
-31.96473471317243
 20
156.55773890597951
 30
0.0
 11
37.272255286827559
 21
156.55773890597951
 31
0.0
  0
TEXT
  5
ACB
  8
0
  6
CONTINUOUS
 62
     7
 10
-52.548768934344601
 20
131.20135940292221
 30
0.0
 40
4.0
  1
MCSCN8
  0
TEXT
  5
ACC
  8
0
  6
CONTINUOUS
 62
     7
 10
-52.548768934344601
 20
116.20135940292219
 30
0.0
 40
4.0
  1
MCSCN8
  0
ENDSEC
  0
EOF
