  0
SECTION
  2
HEADER
  9
$ACADVER
  1
AC1009
  9
$INSBASE
 10
0.0
 20
0.0
 30
0.0
  9
$EXTMIN
 10
51.962605254737127
 20
-22.536218247021061
 30
0.0
  9
$EXTMAX
 10
411.4684394285714
 20
194.33520999999999
 30
0.0
  9
$LIMMIN
 10
102.74122199999999
 20
11.184374999999999
  9
$LIMMAX
 10
398.79994199999999
 20
194.33520999999999
  9
$ORTHOMODE
 70
     0
  9
$REGENMODE
 70
     1
  9
$FILLMODE
 70
     1
  9
$QTEXTMODE
 70
     0
  9
$MIRRTEXT
 70
     1
  9
$DRAGMODE
 70
     2
  9
$LTSCALE
 40
10.0
  9
$OSMODE
 70
    51
  9
$ATTMODE
 70
     1
  9
$TEXTSIZE
 40
0.0
  9
$TRACEWID
 40
0.05
  9
$TEXTSTYLE
  7
STANDARD
  9
$CLAYER
  8
0
  9
$CELTYPE
  6
CONTINUOUS
  9
$CECOLOR
 62
   256
  9
$DIMSCALE
 40
1.0
  9
$DIMASZ
 40
1.399999999999999
  9
$DIMEXO
 40
1.399999999999999
  9
$DIMDLI
 40
0.38
  9
$DIMRND
 40
0.0
  9
$DIMDLE
 40
0.0
  9
$DIMEXE
 40
1.05
  9
$DIMTP
 40
0.0
  9
$DIMTM
 40
0.0
  9
$DIMTXT
 40
3.5
  9
$DIMCEN
 40
0.09
  9
$DIMTSZ
 40
0.0
  9
$DIMTOL
 70
     0
  9
$DIMLIM
 70
     0
  9
$DIMTIH
 70
     0
  9
$DIMTOH
 70
     0
  9
$DIMSE1
 70
     0
  9
$DIMSE2
 70
     0
  9
$DIMTAD
 70
     1
  9
$DIMZIN
 70
     0
  9
$DIMBLK
  1

  9
$DIMASO
 70
     1
  9
$DIMSHO
 70
     1
  9
$DIMPOST
  1

  9
$DIMAPOST
  1

  9
$DIMALT
 70
     0
  9
$DIMALTD
 70
     2
  9
$DIMALTF
 40
25.399999999999999
  9
$DIMLFAC
 40
1.0
  9
$DIMTOFL
 70
     0
  9
$DIMTVP
 40
0.0
  9
$DIMTIX
 70
     0
  9
$DIMSOXD
 70
     0
  9
$DIMSAH
 70
     0
  9
$DIMBLK1
  1

  9
$DIMBLK2
  1

  9
$DIMSTYLE
  2
STANDARD
  9
$DIMCLRD
 70
     7
  9
$DIMCLRE
 70
     7
  9
$DIMCLRT
 70
     7
  9
$DIMTFAC
 40
0.5
  9
$DIMGAP
 40
1.75
  9
$LUNITS
 70
     2
  9
$LUPREC
 70
     4
  9
$SKETCHINC
 40
0.1
  9
$FILLETRAD
 40
0.0
  9
$AUNITS
 70
     0
  9
$AUPREC
 70
     0
  9
$MENU
  1
acad
  9
$ELEVATION
 40
0.0
  9
$PELEVATION
 40
0.0
  9
$THICKNESS
 40
0.0
  9
$LIMCHECK
 70
     0
  9
$BLIPMODE
 70
     0
  9
$CHAMFERA
 40
0.0
  9
$CHAMFERB
 40
0.0
  9
$SKPOLY
 70
     0
  9
$TDCREATE
 40
2454665.5595138888
  9
$TDUPDATE
 40
2454788.4969070251
  9
$TDINDWG
 40
0.0018411343
  9
$TDUSRTIMER
 40
0.0018409606
  9
$USRTIMER
 70
     1
  9
$ANGBASE
 50
0.0
  9
$ANGDIR
 70
     0
  9
$PDMODE
 70
     0
  9
$PDSIZE
 40
0.0
  9
$PLINEWID
 40
0.0
  9
$COORDS
 70
     1
  9
$SPLFRAME
 70
     0
  9
$SPLINETYPE
 70
     6
  9
$SPLINESEGS
 70
     8
  9
$ATTDIA
 70
     0
  9
$ATTREQ
 70
     1
  9
$HANDLING
 70
     1
  9
$HANDSEED
  5
2EA
  9
$SURFTAB1
 70
     6
  9
$SURFTAB2
 70
     6
  9
$SURFTYPE
 70
     6
  9
$SURFU
 70
     6
  9
$SURFV
 70
     6
  9
$UCSNAME
  2

  9
$UCSORG
 10
0.0
 20
0.0
 30
0.0
  9
$UCSXDIR
 10
1.0
 20
0.0
 30
0.0
  9
$UCSYDIR
 10
0.0
 20
1.0
 30
0.0
  9
$PUCSNAME
  2

  9
$PUCSORG
 10
0.0
 20
0.0
 30
0.0
  9
$PUCSXDIR
 10
1.0
 20
0.0
 30
0.0
  9
$PUCSYDIR
 10
0.0
 20
1.0
 30
0.0
  9
$USERI1
 70
     0
  9
$USERI2
 70
     0
  9
$USERI3
 70
     0
  9
$USERI4
 70
     0
  9
$USERI5
 70
     0
  9
$USERR1
 40
0.0
  9
$USERR2
 40
0.0
  9
$USERR3
 40
0.0
  9
$USERR4
 40
0.0
  9
$USERR5
 40
0.0
  9
$WORLDVIEW
 70
     1
  9
$SHADEDGE
 70
     3
  9
$SHADEDIF
 70
    70
  9
$TILEMODE
 70
     1
  9
$MAXACTVP
 70
    16
  9
$PLIMCHECK
 70
     0
  9
$PEXTMIN
 10
1.0000000000000000E+020
 20
1.0000000000000000E+020
 30
1.0000000000000000E+020
  9
$PEXTMAX
 10
-1.0000000000000000E+020
 20
-1.0000000000000000E+020
 30
-1.0000000000000000E+020
  9
$PLIMMIN
 10
0.0
 20
0.0
  9
$PLIMMAX
 10
12.0
 20
9.0
  9
$UNITMODE
 70
     0
  9
$VISRETAIN
 70
     0
  9
$PLINEGEN
 70
     1
  9
$PSLTSCALE
 70
     0
  0
ENDSEC
  0
SECTION
  2
TABLES
  0
TABLE
  2
VPORT
 70
     1
  0
VPORT
  2
*ACTIVE
 70
     0
 10
0.0
 20
0.0
 11
1.0
 21
1.0
 12
223.84715978645869
 22
87.797575137710453
 13
0.0
 23
0.0
 14
1.0
 24
1.0
 15
0.0
 25
0.0
 16
0.0
 26
0.0
 36
1.0
 17
0.0
 27
0.0
 37
0.0
 40
256.11733997637748
 41
1.535064935064935
 42
50.0
 43
0.0
 44
0.0
 50
0.0
 51
0.0
 71
     0
 72
   100
 73
     1
 74
     1
 75
     0
 76
     0
 77
     0
 78
     0
  0
ENDTAB
  0
TABLE
  2
LTYPE
 70
     4
  0
LTYPE
  2
CONTINUOUS
 70
     0
  3
Solid line
 72
    65
 73
     0
 40
0.0
  0
LTYPE
  2
CENTER
 70
     0
  3
____ _ ____ _ ____ _ ____ _ ____ _ ____ _ ____
 72
    65
 73
     4
 40
2.0
 49
1.25
 49
-0.25
 49
0.25
 49
-0.25
  0
LTYPE
  2
DASHED
 70
     0
  3
__ __ __ __ __ __ __ __ __ __ __ __ __ __ __
 72
    65
 73
     2
 40
3.5
 49
2.0
 49
-1.5
  0
ENDTAB
  0
TABLE
  2
LAYER
 70
     5
  0
LAYER
  2
0
 70
     0
 62
     7
  6
CONTINUOUS
  0
LAYER
  2
DEFPOINTS
 70
     0
 62
     7
  6
CONTINUOUS
  0
LAYER
  2
CENTER
 70
     0
 62
     1
  6
CENTER
  0
ENDTAB
  0
TABLE
  2
STYLE
 70
     1
  0
STYLE
  2
STANDARD
 70
     0
 40
0.0
 41
1.0
 50
0.0
 71
     0
 42
0.0
  3
FGPã≥â»èëëÃNT-M
  4

  0
ENDTAB
  0
TABLE
  2
VIEW
 70
     0
  0
ENDTAB
  0
TABLE
  2
UCS
 70
     0
  0
ENDTAB
  0
TABLE
  2
APPID
 70
     2
  0
APPID
  2
ACAD
 70
     0
  0
APPID
  2
TOPSOLID_DRAFT
 70
     0
  0
ENDTAB
  0
TABLE
  2
DIMSTYLE
 70
     2
  0
DIMSTYLE
  2
STANDARD
 70
     0
  3

  4

  5

  6

  7

 40
1.0
 41
1.399999999999999
 42
1.399999999999999
 43
0.38
 44
1.05
 45
0.0
 46
0.0
 47
0.0
 48
0.0
140
3.5
141
0.09
142
0.0
143
25.399999999999999
144
1.0
145
0.0
146
0.5
147
1.75
 71
     0
 72
     0
 73
     0
 74
     0
 75
     0
 76
     0
 77
     1
 78
     0
170
     0
171
     2
172
     0
173
     0
174
     0
175
     0
176
     7
177
     7
178
     7
  0
ENDTAB
  0
ENDSEC
  0
SECTION
  2
BLOCKS
  0
BLOCK
  8
0
  2
$MODEL_SPACE
 70
     0
 10
0.0
 20
0.0
 30
0.0
  3
$MODEL_SPACE
  1

  0
ENDBLK
  5
295
  8
0
  0
BLOCK
 67
     1
  8
0
  2
$PAPER_SPACE
 70
     0
 10
0.0
 20
0.0
 30
0.0
  3
$PAPER_SPACE
  1

  0
ENDBLK
  5
291
 67
     1
  8
0
  0
ENDSEC
  0
SECTION
  2
ENTITIES
  0
TEXT
  5
21
  8
0
 62
     7
 10
51.962605254737127
 20
-13.8694375897744
 30
0.0
 40
4.5
  1
XEG60
  0
CIRCLE
  5
23
  8
0
  6
CONTINUOUS
 62
     3
 10
168.60801900000001
 20
121.460093
 30
0.0
 40
1.5
  0
CIRCLE
  5
24
  8
0
  6
CONTINUOUS
 62
     3
 10
200.60801900000001
 20
121.460093
 30
0.0
 40
1.5
  0
CIRCLE
  5
25
  8
0
  6
CONTINUOUS
 62
     3
 10
200.60801900000001
 20
89.460093000000001
 30
0.0
 40
1.5
  0
CIRCLE
  5
26
  8
0
  6
CONTINUOUS
 62
     3
 10
168.60801900000001
 20
89.460093000000001
 30
0.0
 40
1.5
  0
CIRCLE
  5
27
  8
0
  6
CONTINUOUS
 62
     3
 10
159.60801900000001
 20
105.460093
 30
0.0
 40
2.0
  0
CIRCLE
  5
28
  8
0
  6
CONTINUOUS
 62
     3
 10
159.60801900000001
 20
130.460093
 30
0.0
 40
2.0
  0
CIRCLE
  5
29
  8
0
  6
CONTINUOUS
 62
     3
 10
184.60801900000001
 20
130.460093
 30
0.0
 40
2.0
  0
CIRCLE
  5
2A
  8
0
  6
CONTINUOUS
 62
     3
 10
209.60801900000001
 20
130.460093
 30
0.0
 40
2.0
  0
CIRCLE
  5
2B
  8
0
  6
CONTINUOUS
 62
     3
 10
209.60801900000001
 20
105.460093
 30
0.0
 40
2.0
  0
CIRCLE
  5
2C
  8
0
  6
CONTINUOUS
 62
     3
 10
209.60801900000001
 20
80.460092999999986
 30
0.0
 40
2.0
  0
CIRCLE
  5
2D
  8
0
  6
CONTINUOUS
 62
     3
 10
184.60801900000001
 20
80.460092999999986
 30
0.0
 40
2.0
  0
CIRCLE
  5
2E
  8
0
  6
CONTINUOUS
 62
     3
 10
159.60801900000001
 20
80.460092999999986
 30
0.0
 40
2.0
  0
LINE
  5
2F
  8
0
  6
CONTINUOUS
 62
     7
 10
156.10801900000001
 20
75.310092999999981
 30
0.0
 11
156.10801900000001
 21
75.460093000000001
 31
0.0
  0
LINE
  5
30
  8
0
  6
CONTINUOUS
 62
     7
 10
213.10801900000001
 20
75.460093000000001
 30
0.0
 11
213.10801900000001
 21
75.310092999999981
 31
0.0
  0
LINE
  5
31
  8
0
  6
CONTINUOUS
 62
     7
 10
213.10801900000001
 20
75.310092999999981
 30
0.0
 11
156.10801900000001
 21
75.310092999999981
 31
0.0
  0
LINE
  5
32
  8
0
  6
CONTINUOUS
 62
     7
 10
214.60801900000001
 20
134.460093
 30
0.0
 11
213.60801900000001
 21
135.460093
 31
0.0
  0
LINE
  5
33
  8
0
  6
CONTINUOUS
 62
     7
 10
214.60801900000001
 20
134.460093
 30
0.0
 11
214.60801900000001
 21
76.460093000000001
 31
0.0
  0
LINE
  5
34
  8
0
  6
CONTINUOUS
 62
     7
 10
213.60801900000001
 20
75.460093000000001
 30
0.0
 11
214.60801900000001
 21
76.460093000000001
 31
0.0
  0
LINE
  5
35
  8
0
  6
CONTINUOUS
 62
     7
 10
154.60801900000001
 20
76.460093000000001
 30
0.0
 11
155.60801900000001
 21
75.460093000000001
 31
0.0
  0
CIRCLE
  5
36
  8
0
  6
CONTINUOUS
 62
     7
 10
159.60801900000001
 20
80.460092999999986
 30
0.0
 40
1.649999999999999
  0
CIRCLE
  5
37
  8
0
  6
CONTINUOUS
 62
     7
 10
184.60801900000001
 20
80.460092999999986
 30
0.0
 40
1.649999999999999
  0
CIRCLE
  5
38
  8
0
  6
CONTINUOUS
 62
     7
 10
209.60801900000001
 20
80.460092999999986
 30
0.0
 40
1.649999999999999
  0
CIRCLE
  5
39
  8
0
  6
CONTINUOUS
 62
     7
 10
209.60801900000001
 20
130.460093
 30
0.0
 40
1.649999999999999
  0
CIRCLE
  5
3A
  8
0
  6
CONTINUOUS
 62
     7
 10
184.60801900000001
 20
130.460093
 30
0.0
 40
1.649999999999999
  0
CIRCLE
  5
3B
  8
0
  6
CONTINUOUS
 62
     7
 10
159.60801900000001
 20
130.460093
 30
0.0
 40
1.649999999999999
  0
CIRCLE
  5
3C
  8
0
  6
CONTINUOUS
 62
     7
 10
159.60801900000001
 20
105.460093
 30
0.0
 40
1.649999999999999
  0
CIRCLE
  5
3D
  8
0
  6
CONTINUOUS
 62
     7
 10
168.60801900000001
 20
89.460093000000001
 30
0.0
 40
1.25
  0
CIRCLE
  5
3E
  8
0
  6
CONTINUOUS
 62
     7
 10
200.60801900000001
 20
89.460093000000001
 30
0.0
 40
1.25
  0
CIRCLE
  5
3F
  8
0
  6
CONTINUOUS
 62
     7
 10
200.60801900000001
 20
121.460093
 30
0.0
 40
1.25
  0
CIRCLE
  5
40
  8
0
  6
CONTINUOUS
 62
     7
 10
168.60801900000001
 20
121.460093
 30
0.0
 40
1.25
  0
LINE
  5
41
  8
0
  6
CONTINUOUS
 62
     7
 10
213.60801900000001
 20
75.460093000000001
 30
0.0
 11
155.60801900000001
 21
75.460093000000001
 31
0.0
  0
LINE
  5
42
  8
0
  6
CONTINUOUS
 62
     7
 10
155.60801900000001
 20
135.460093
 30
0.0
 11
154.60801900000001
 21
134.460093
 31
0.0
  0
CIRCLE
  5
43
  8
0
  6
CONTINUOUS
 62
     7
 10
209.60801900000001
 20
105.460093
 30
0.0
 40
1.649999999999999
  0
LINE
  5
44
  8
0
  6
CONTINUOUS
 62
     7
 10
154.60801900000001
 20
76.460093000000001
 30
0.0
 11
154.60801900000001
 21
134.460093
 31
0.0
  0
LINE
  5
45
  8
0
  6
CONTINUOUS
 62
     7
 10
155.60801900000001
 20
135.460093
 30
0.0
 11
213.60801900000001
 21
135.460093
 31
0.0
  0
LINE
  5
46
  8
0
  6
CONTINUOUS
 62
     7
 10
199.6080189999999
 20
146.460093
 30
0.0
 11
189.60801900000001
 21
146.460093
 31
0.0
  0
LINE
  5
47
  8
0
  6
CONTINUOUS
 62
     7
 10
190.10801900000001
 20
146.960093
 30
0.0
 11
199.10801900000001
 21
146.960093
 31
0.0
  0
LINE
  5
48
  8
0
  6
CONTINUOUS
 62
     7
 10
199.10801900000001
 20
140.960093
 30
0.0
 11
190.10801900000001
 21
140.960093
 31
0.0
  0
LINE
  5
49
  8
0
  6
CONTINUOUS
 62
     7
 10
189.60801900000001
 20
141.460093
 30
0.0
 11
199.6080189999999
 21
141.460093
 31
0.0
  0
LINE
  5
4A
  8
0
  6
CONTINUOUS
 62
     7
 10
207.60801699999999
 20
135.460094
 30
0.0
 11
207.60801699999999
 21
135.960094
 31
0.0
  0
LINE
  5
4B
  8
0
  6
CONTINUOUS
 62
     7
 10
181.60801900000001
 20
135.460094
 30
0.0
 11
181.60801900000001
 21
135.960094
 31
0.0
  0
LINE
  5
4C
  8
0
  6
CONTINUOUS
 62
     7
 10
233.60801900000001
 20
99.460094000000012
 30
0.0
 11
233.60801900000001
 21
111.460094
 31
0.0
  0
LINE
  5
4D
  8
0
  6
CONTINUOUS
 62
     7
 10
227.10801900000001
 20
111.460094
 30
0.0
 11
227.10801900000001
 21
99.460094000000012
 31
0.0
  0
LINE
  5
4E
  8
0
  6
CONTINUOUS
 62
     7
 10
226.60801900000001
 20
99.960093999999998
 30
0.0
 11
226.60801900000001
 21
110.960094
 31
0.0
  0
LINE
  5
4F
  8
0
  6
CONTINUOUS
 62
     7
 10
234.60801900000001
 20
110.460094
 30
0.0
 11
234.60801900000001
 21
100.460094
 31
0.0
  0
LINE
  5
50
  8
0
  6
CONTINUOUS
 62
     7
 10
216.60801900000001
 20
108.105847
 30
0.0
 11
214.60801900000001
 21
108.105847
 31
0.0
  0
LINE
  5
51
  8
0
  6
CONTINUOUS
 62
     7
 10
216.60801900000001
 20
102.814342
 30
0.0
 11
216.60801900000001
 21
108.105847
 31
0.0
  0
LINE
  5
52
  8
0
  6
CONTINUOUS
 62
     7
 10
214.60801900000001
 20
102.814342
 30
0.0
 11
216.60801900000001
 21
102.814342
 31
0.0
  0
LINE
  5
53
  8
0
  6
CONTINUOUS
 62
     7
 10
214.60801900000001
 20
99.960094999999995
 30
0.0
 11
222.60801900000001
 21
99.960094999999995
 31
0.0
  0
LINE
  5
54
  8
0
  6
CONTINUOUS
 62
     7
 10
214.60801900000001
 20
110.960093
 30
0.0
 11
222.60801900000001
 21
110.960093
 31
0.0
  0
LINE
  5
55
  8
0
  6
CONTINUOUS
 62
     7
 10
214.60801900000001
 20
111.960093
 30
0.0
 11
222.60801900000001
 21
111.960093
 31
0.0
  0
LINE
  5
56
  8
0
  6
CONTINUOUS
 62
     7
 10
214.60801900000001
 20
98.960094999999995
 30
0.0
 11
222.60801900000001
 21
98.960094999999995
 31
0.0
  0
LINE
  5
57
  8
0
  6
CONTINUOUS
 62
     7
 10
214.60801900000001
 20
96.960094999999995
 30
0.0
 11
222.60801900000001
 21
96.960094999999995
 31
0.0
  0
LINE
  5
58
  8
0
  6
CONTINUOUS
 62
     7
 10
214.60801900000001
 20
95.460094999999995
 30
0.0
 11
222.60801900000001
 21
95.460094999999995
 31
0.0
  0
LINE
  5
59
  8
0
  6
CONTINUOUS
 62
     7
 10
214.60801900000001
 20
115.460093
 30
0.0
 11
222.60801900000001
 21
115.460093
 31
0.0
  0
LINE
  5
5A
  8
0
  6
CONTINUOUS
 62
     7
 10
214.60801900000001
 20
113.960092
 30
0.0
 11
222.60801900000001
 21
113.960092
 31
0.0
  0
LINE
  5
5B
  8
0
  6
CONTINUOUS
 62
     7
 10
197.60801900000001
 20
137.182593
 30
0.0
 11
202.10801900000001
 21
137.182593
 31
0.0
  0
LINE
  5
5C
  8
0
  6
CONTINUOUS
 62
     7
 10
186.10801900000001
 20
137.182593
 30
0.0
 11
191.10801900000001
 21
137.182593
 31
0.0
  0
LINE
  5
5D
  8
0
  6
CONTINUOUS
 62
     7
 10
199.6080189999999
 20
146.460093
 30
0.0
 11
199.10801900000001
 21
146.960093
 31
0.0
  0
LINE
  5
5E
  8
0
  6
CONTINUOUS
 62
     7
 10
190.10801900000001
 20
146.960093
 30
0.0
 11
189.60801900000001
 21
146.460093
 31
0.0
  0
LINE
  5
5F
  8
0
  6
CONTINUOUS
 62
     7
 10
189.60801900000001
 20
141.460093
 30
0.0
 11
190.10801900000001
 21
140.960093
 31
0.0
  0
LINE
  5
60
  8
0
  6
CONTINUOUS
 62
     7
 10
199.10801900000001
 20
140.960093
 30
0.0
 11
199.6080189999999
 21
141.460093
 31
0.0
  0
LINE
  5
61
  8
0
  6
CONTINUOUS
 62
     7
 10
189.60801900000001
 20
146.460093
 30
0.0
 11
189.60801900000001
 21
141.460093
 31
0.0
  0
LINE
  5
62
  8
0
  6
CONTINUOUS
 62
     7
 10
199.6080189999999
 20
141.460093
 30
0.0
 11
199.6080189999999
 21
146.460093
 31
0.0
  0
LINE
  5
63
  8
0
  6
CONTINUOUS
 62
     7
 10
191.60801900000001
 20
140.960093
 30
0.0
 11
191.60801900000001
 21
135.960093
 31
0.0
  0
LINE
  5
64
  8
0
  6
CONTINUOUS
 62
     7
 10
197.60801900000001
 20
135.960093
 30
0.0
 11
197.60801900000001
 21
140.960093
 31
0.0
  0
LINE
  5
65
  8
0
  6
CONTINUOUS
 62
     7
 10
233.60801900000001
 20
111.460094
 30
0.0
 11
227.10801900000001
 21
111.460094
 31
0.0
  0
LINE
  5
66
  8
0
  6
CONTINUOUS
 62
     7
 10
227.10801900000001
 20
99.460094000000012
 30
0.0
 11
233.60801900000001
 21
99.460094000000012
 31
0.0
  0
LINE
  5
67
  8
0
  6
CONTINUOUS
 62
     7
 10
227.10801900000001
 20
111.460094
 30
0.0
 11
226.60801900000001
 21
110.960094
 31
0.0
  0
LINE
  5
68
  8
0
  6
CONTINUOUS
 62
     7
 10
226.60801900000001
 20
99.960093999999998
 30
0.0
 11
227.10801900000001
 21
99.460094000000012
 31
0.0
  0
LINE
  5
69
  8
0
  6
CONTINUOUS
 62
     7
 10
233.60801900000001
 20
99.460094000000012
 30
0.0
 11
234.60801900000001
 21
100.460094
 31
0.0
  0
LINE
  5
6A
  8
0
  6
CONTINUOUS
 62
     7
 10
234.60801900000001
 20
110.460094
 30
0.0
 11
233.60801900000001
 21
111.460094
 31
0.0
  0
LINE
  5
6B
  8
0
  6
CONTINUOUS
 62
     7
 10
226.60801900000001
 20
109.460094
 30
0.0
 11
222.60801900000001
 21
109.460094
 31
0.0
  0
LINE
  5
6C
  8
0
  6
CONTINUOUS
 62
     7
 10
222.60801900000001
 20
101.460094
 30
0.0
 11
226.60801900000001
 21
101.460094
 31
0.0
  0
LINE
  5
6D
  8
0
  6
CONTINUOUS
 62
     7
 10
202.10801900000001
 20
135.960094
 30
0.0
 11
202.10801900000001
 21
137.182593
 31
0.0
  0
LINE
  5
6E
  8
0
  6
CONTINUOUS
 62
     7
 10
186.10801900000001
 20
137.182593
 30
0.0
 11
186.10801900000001
 21
135.960094
 31
0.0
  0
LINE
  5
6F
  8
0
  6
CONTINUOUS
 62
     7
 10
191.10801900000001
 20
135.960094
 30
0.0
 11
191.10801900000001
 21
137.182593
 31
0.0
  0
LINE
  5
70
  8
0
  6
CONTINUOUS
 62
     7
 10
172.10801900000001
 20
28.784967000000002
 30
0.0
 11
172.10801900000001
 21
22.784967000000002
 31
0.0
  0
LINE
  5
71
  8
0
  6
CONTINUOUS
 62
     7
 10
172.10801900000001
 20
22.784967000000002
 30
0.0
 11
156.10801900000001
 21
22.784967000000002
 31
0.0
  0
LINE
  5
72
  8
0
  6
CONTINUOUS
 62
     7
 10
197.10801900000001
 20
22.784967000000002
 30
0.0
 11
197.10801900000001
 21
28.784967000000002
 31
0.0
  0
LINE
  5
73
  8
0
  6
CONTINUOUS
 62
     7
 10
213.10801900000001
 20
22.784967000000002
 30
0.0
 11
197.10801900000001
 21
22.784967000000002
 31
0.0
  0
LINE
  5
74
  8
0
  6
CONTINUOUS
 62
     7
 10
213.10801900000001
 20
34.784967000000002
 30
0.0
 11
156.10801900000001
 21
34.784967000000002
 31
0.0
  0
LINE
  5
75
  8
0
  6
CONTINUOUS
 62
     7
 10
214.60801900000001
 20
26.784965
 30
0.0
 11
222.60801900000001
 21
26.784965
 31
0.0
  0
LINE
  5
76
  8
0
  6
CONTINUOUS
 62
     7
 10
214.60801900000001
 20
22.284967000000002
 30
0.0
 11
222.60801900000001
 21
22.284967000000002
 31
0.0
  0
LINE
  5
77
  8
0
  6
CONTINUOUS
 62
     7
 10
214.60801900000001
 20
28.284966000000001
 30
0.0
 11
222.60801900000001
 21
28.284966000000001
 31
0.0
  0
LINE
  5
78
  8
0
  6
CONTINUOUS
 62
     7
 10
214.60801900000001
 20
31.28496500000001
 30
0.0
 11
222.60801900000001
 21
31.28496500000001
 31
0.0
  0
LINE
  5
79
  8
0
  6
CONTINUOUS
 62
     7
 10
214.60801900000001
 20
30.28496500000001
 30
0.0
 11
222.60801900000001
 21
30.28496500000001
 31
0.0
  0
LINE
  5
7A
  8
0
  6
CONTINUOUS
 62
     7
 10
234.60801900000001
 20
33.284965999999997
 30
0.0
 11
234.60801900000001
 21
23.284966000000001
 31
0.0
  0
LINE
  5
7B
  8
0
  6
CONTINUOUS
 62
     7
 10
233.60801900000001
 20
22.284966000000001
 30
0.0
 11
233.60801900000001
 21
34.284965999999997
 31
0.0
  0
LINE
  5
7C
  8
0
  6
CONTINUOUS
 62
     7
 10
227.10801900000001
 20
34.284965999999997
 30
0.0
 11
227.10801900000001
 21
22.284966000000001
 31
0.0
  0
LINE
  5
7D
  8
0
  6
CONTINUOUS
 62
     7
 10
226.60801900000001
 20
22.784966000000001
 30
0.0
 11
226.60801900000001
 21
33.784965999999997
 31
0.0
  0
LINE
  5
7E
  8
0
  6
CONTINUOUS
 62
     7
 10
216.60801900000001
 20
31.28496500000001
 30
0.0
 11
216.60801900000001
 21
32.284965999999997
 31
0.0
  0
LINE
  5
7F
  8
0
  6
CONTINUOUS
 62
     7
 10
233.60801900000001
 20
22.284966000000001
 30
0.0
 11
234.60801900000001
 21
23.284966000000001
 31
0.0
  0
LINE
  5
80
  8
0
  6
CONTINUOUS
 62
     7
 10
234.60801900000001
 20
33.284965999999997
 30
0.0
 11
233.60801900000001
 21
34.284965999999997
 31
0.0
  0
LINE
  5
81
  8
0
  6
CONTINUOUS
 62
     7
 10
233.60801900000001
 20
34.284965999999997
 30
0.0
 11
227.10801900000001
 21
34.284965999999997
 31
0.0
  0
LINE
  5
82
  8
0
  6
CONTINUOUS
 62
     7
 10
227.10801900000001
 20
22.284966000000001
 30
0.0
 11
233.60801900000001
 21
22.284966000000001
 31
0.0
  0
LINE
  5
83
  8
0
  6
CONTINUOUS
 62
     7
 10
227.10801900000001
 20
34.284965999999997
 30
0.0
 11
226.60801900000001
 21
33.784965999999997
 31
0.0
  0
LINE
  5
84
  8
0
  6
CONTINUOUS
 62
     7
 10
226.60801900000001
 20
22.784966000000001
 30
0.0
 11
227.10801900000001
 21
22.284966000000001
 31
0.0
  0
LINE
  5
85
  8
0
  6
CONTINUOUS
 62
     7
 10
226.60801900000001
 20
32.284965999999997
 30
0.0
 11
222.60801900000001
 21
32.284965999999997
 31
0.0
  0
LINE
  5
86
  8
0
  6
CONTINUOUS
 62
     7
 10
222.60801900000001
 20
24.284966000000001
 30
0.0
 11
226.60801900000001
 21
24.284966000000001
 31
0.0
  0
LINE
  5
87
  8
0
  6
CONTINUOUS
 62
     7
 10
216.60801900000001
 20
32.284965999999997
 30
0.0
 11
214.60801900000001
 21
32.284965999999997
 31
0.0
  0
LINE
  5
88
  8
0
  6
CONTINUOUS
 62
     7
 10
103.74122199999999
 20
75.460093000000001
 30
0.0
 11
103.74122199999999
 21
75.310092999999981
 31
0.0
  0
LINE
  5
89
  8
0
  6
CONTINUOUS
 62
     7
 10
115.74122199999999
 20
75.310092999999981
 30
0.0
 11
115.74122199999999
 21
75.460093000000001
 31
0.0
  0
LINE
  5
8A
  8
0
  6
CONTINUOUS
 62
     7
 10
113.24122199999999
 20
126.090093
 30
0.0
 11
113.24122199999999
 21
84.829367000000005
 31
0.0
  0
LINE
  5
8B
  8
0
  6
CONTINUOUS
 62
     7
 10
118.24122199999999
 20
146.460093
 30
0.0
 11
108.24122199999999
 21
146.460093
 31
0.0
  0
LINE
  5
8C
  8
0
  6
CONTINUOUS
 62
     7
 10
108.74122199999999
 20
146.960093
 30
0.0
 11
117.74122199999999
 21
146.960093
 31
0.0
  0
LINE
  5
8D
  8
0
  6
CONTINUOUS
 62
     7
 10
117.74122199999999
 20
140.960093
 30
0.0
 11
108.74122199999999
 21
140.960093
 31
0.0
  0
LINE
  5
8E
  8
0
  6
CONTINUOUS
 62
     7
 10
108.24122199999999
 20
141.460093
 30
0.0
 11
118.24122199999999
 21
141.460093
 31
0.0
  0
LINE
  5
8F
  8
0
  6
CONTINUOUS
 62
     7
 10
102.74122199999999
 20
86.960093000000001
 30
0.0
 11
103.24122199999999
 21
87.460093000000001
 31
0.0
  0
LINE
  5
90
  8
0
  6
CONTINUOUS
 62
     7
 10
103.24122199999999
 20
87.460093000000001
 30
0.0
 11
103.24122199999999
 21
123.460093
 31
0.0
  0
LINE
  5
91
  8
0
  6
CONTINUOUS
 62
     7
 10
103.24122199999999
 20
123.460093
 30
0.0
 11
102.74122199999999
 21
123.960093
 31
0.0
  0
LINE
  5
92
  8
0
  6
CONTINUOUS
 62
     7
 10
103.24122199999999
 20
135.460094
 30
0.0
 11
103.24122199999999
 21
135.960094
 31
0.0
  0
LINE
  5
93
  8
0
  6
CONTINUOUS
 62
     7
 10
117.74122300000001
 20
135.460094
 30
0.0
 11
117.74122300000001
 21
135.960094
 31
0.0
  0
ARC
  5
94
  8
0
  6
CONTINUOUS
 62
     7
 10
109.241221
 20
105.460094
 30
0.0
 40
5.5
 50
309.52121
 51
316.65825699999999
  0
ARC
  5
95
  8
0
  6
CONTINUOUS
 62
     7
 10
109.241221
 20
105.460094
 30
0.0
 40
5.5
 50
43.341742999999987
 51
50.478789999999996
  0
ARC
  5
96
  8
0
  6
CONTINUOUS
 62
     7
 10
109.241221
 20
105.460094
 30
0.0
 40
6.0
 50
48.189671999999987
 51
54.314653999999997
  0
ARC
  5
97
  8
0
  6
CONTINUOUS
 62
     7
 10
109.241221
 20
105.460094
 30
0.0
 40
6.0
 50
305.68534599999998
 51
311.81032800000008
  0
LINE
  5
98
  8
0
  6
CONTINUOUS
 62
     7
 10
118.24122199999999
 20
146.460093
 30
0.0
 11
117.74122199999999
 21
146.960093
 31
0.0
  0
LINE
  5
99
  8
0
  6
CONTINUOUS
 62
     7
 10
108.74122199999999
 20
146.960093
 30
0.0
 11
108.24122199999999
 21
146.460093
 31
0.0
  0
LINE
  5
9A
  8
0
  6
CONTINUOUS
 62
     7
 10
108.24122199999999
 20
141.460093
 30
0.0
 11
108.74122199999999
 21
140.960093
 31
0.0
  0
LINE
  5
9B
  8
0
  6
CONTINUOUS
 62
     7
 10
117.74122199999999
 20
140.960093
 30
0.0
 11
118.24122199999999
 21
141.460093
 31
0.0
  0
LINE
  5
9C
  8
0
  6
CONTINUOUS
 62
     7
 10
108.24122199999999
 20
146.460093
 30
0.0
 11
108.24122199999999
 21
141.460093
 31
0.0
  0
LINE
  5
9D
  8
0
  6
CONTINUOUS
 62
     7
 10
118.24122199999999
 20
141.460093
 30
0.0
 11
118.24122199999999
 21
146.460093
 31
0.0
  0
LINE
  5
9E
  8
0
  6
CONTINUOUS
 62
     7
 10
110.24122199999999
 20
140.960093
 30
0.0
 11
110.24122199999999
 21
135.960093
 31
0.0
  0
LINE
  5
9F
  8
0
  6
CONTINUOUS
 62
     7
 10
116.24122199999999
 20
135.960093
 30
0.0
 11
116.24122199999999
 21
140.960093
 31
0.0
  0
LINE
  5
A0
  8
0
  6
CONTINUOUS
 62
     7
 10
102.99122199999999
 20
137.182593
 30
0.0
 11
102.99122199999999
 21
135.460094
 31
0.0
  0
LINE
  5
A1
  8
0
  6
CONTINUOUS
 62
     7
 10
107.99122199999999
 20
135.960094
 30
0.0
 11
107.99122199999999
 21
137.182593
 31
0.0
  0
CIRCLE
  5
A2
  8
0
  6
CONTINUOUS
 62
     7
 10
194.60801900000001
 20
183.83520999999999
 30
0.0
 40
4.5
  0
CIRCLE
  5
A3
  8
0
  6
CONTINUOUS
 62
     7
 10
194.60801900000001
 20
183.83520999999999
 30
0.0
 40
5.0
  0
CIRCLE
  5
A4
  8
0
  6
CONTINUOUS
 62
     7
 10
199.6080189999999
 20
191.58520999999999
 30
0.0
 40
2.5
  0
CIRCLE
  5
A5
  8
0
  6
CONTINUOUS
 62
     7
 10
188.60801900000001
 20
191.58520999999999
 30
0.0
 40
2.5
  0
CIRCLE
  5
A6
  8
0
  6
CONTINUOUS
 62
     7
 10
194.10801900000001
 20
191.58520999999999
 30
0.0
 40
2.5
  0
LINE
  5
A7
  8
0
  6
CONTINUOUS
 62
     7
 10
185.10801799999999
 20
182.18520899999999
 30
0.0
 11
189.888115
 21
182.18520899999999
 31
0.0
  0
LINE
  5
A8
  8
0
  6
CONTINUOUS
 62
     7
 10
199.327923
 20
182.18520899999999
 30
0.0
 11
204.10801799999999
 21
182.18520899999999
 31
0.0
  0
ARC
  5
A9
  8
0
  6
CONTINUOUS
 62
     7
 10
204.10801799999999
 20
183.83520899999999
 30
0.0
 40
1.649999999999999
 50
270.0
 51
90.0
  0
LINE
  5
AA
  8
0
  6
CONTINUOUS
 62
     7
 10
204.10801799999999
 20
185.485209
 30
0.0
 11
199.327924
 21
185.485209
 31
0.0
  0
LINE
  5
AB
  8
0
  6
CONTINUOUS
 62
     7
 10
189.888114
 20
185.485209
 30
0.0
 11
185.10801799999999
 21
185.485209
 31
0.0
  0
ARC
  5
AC
  8
0
  6
CONTINUOUS
 62
     7
 10
185.10801799999999
 20
183.83520899999999
 30
0.0
 40
1.649999999999999
 50
90.0
 51
270.0
  0
LINE
  5
AD
  8
0
  6
CONTINUOUS
 62
     7
 10
195.197744
 20
193.83520999999999
 30
0.0
 11
198.518294
 21
193.83520999999999
 31
0.0
  0
LINE
  5
AE
  8
0
  6
CONTINUOUS
 62
     7
 10
200.697744
 20
193.83520999999999
 30
0.0
 11
205.60801699999999
 21
193.83520999999999
 31
0.0
  0
LINE
  5
AF
  8
0
  6
CONTINUOUS
 62
     7
 10
205.60801699999999
 20
179.33520899999999
 30
0.0
 11
196.78746599999999
 21
179.33520899999999
 31
0.0
  0
LINE
  5
B0
  8
0
  6
CONTINUOUS
 62
     7
 10
192.42856800000001
 20
179.33520899999999
 30
0.0
 11
183.60801900000001
 21
179.33520899999999
 31
0.0
  0
ARC
  5
B1
  8
0
  6
CONTINUOUS
 62
     7
 10
183.60801900000001
 20
181.33520899999999
 30
0.0
 40
2.0
 50
180.0
 51
270.0
  0
LINE
  5
B2
  8
0
  6
CONTINUOUS
 62
     7
 10
181.60801900000001
 20
181.33520899999999
 30
0.0
 11
181.60801900000001
 21
191.83520999999999
 31
0.0
  0
LINE
  5
B3
  8
0
  6
CONTINUOUS
 62
     7
 10
189.697744
 20
193.83520999999999
 30
0.0
 11
193.018294
 21
193.83520999999999
 31
0.0
  0
LINE
  5
B4
  8
0
  6
CONTINUOUS
 62
     7
 10
183.60801900000001
 20
193.83520999999999
 30
0.0
 11
187.518294
 21
193.83520999999999
 31
0.0
  0
ARC
  5
B5
  8
0
  6
CONTINUOUS
 62
     7
 10
183.60801900000001
 20
191.83520999999999
 30
0.0
 40
2.0
 50
90.0
 51
180.0
  0
ARC
  5
B6
  8
0
  6
CONTINUOUS
 62
     7
 10
205.60801699999999
 20
191.83520999999999
 30
0.0
 40
2.0
 50
0.0
 51
90.0
  0
LINE
  5
B7
  8
0
  6
CONTINUOUS
 62
     7
 10
207.60801699999999
 20
191.83520999999999
 30
0.0
 11
207.60801699999999
 21
181.33520899999999
 31
0.0
  0
ARC
  5
B8
  8
0
  6
CONTINUOUS
 62
     7
 10
205.60801699999999
 20
181.33520899999999
 30
0.0
 40
2.0
 50
270.0
 51
0.0
  0
LINE
  5
B9
  8
0
  6
CONTINUOUS
 62
     7
 10
214.60801900000001
 20
189.33521200000001
 30
0.0
 11
222.60801900000001
 21
189.33521200000001
 31
0.0
  0
LINE
  5
BA
  8
0
  6
CONTINUOUS
 62
     7
 10
214.60801900000001
 20
187.8352109999999
 30
0.0
 11
222.60801900000001
 21
187.8352109999999
 31
0.0
  0
LINE
  5
BB
  8
0
  6
CONTINUOUS
 62
     7
 10
214.60801900000001
 20
193.83520999999999
 30
0.0
 11
222.60801900000001
 21
193.83520999999999
 31
0.0
  0
LINE
  5
BC
  8
0
  6
CONTINUOUS
 62
     7
 10
214.60801900000001
 20
185.83521200000001
 30
0.0
 11
222.60801900000001
 21
185.83521200000001
 31
0.0
  0
LINE
  5
BD
  8
0
  6
CONTINUOUS
 62
     7
 10
214.60801900000001
 20
184.83521200000001
 30
0.0
 11
222.60801900000001
 21
184.83521200000001
 31
0.0
  0
LINE
  5
BE
  8
0
  6
CONTINUOUS
 62
     7
 10
226.60801900000001
 20
182.33521099999999
 30
0.0
 11
226.60801900000001
 21
193.33521099999999
 31
0.0
  0
LINE
  5
BF
  8
0
  6
CONTINUOUS
 62
     7
 10
227.10801900000001
 20
193.83521099999999
 30
0.0
 11
227.10801900000001
 21
181.83521099999999
 31
0.0
  0
LINE
  5
C0
  8
0
  6
CONTINUOUS
 62
     7
 10
233.60801900000001
 20
181.83521099999999
 30
0.0
 11
233.60801900000001
 21
193.83521099999999
 31
0.0
  0
LINE
  5
C1
  8
0
  6
CONTINUOUS
 62
     7
 10
234.60801900000001
 20
192.83521099999999
 30
0.0
 11
234.60801900000001
 21
182.83521099999999
 31
0.0
  0
LINE
  5
C2
  8
0
  6
CONTINUOUS
 62
     7
 10
216.60801900000001
 20
183.83521099999999
 30
0.0
 11
216.60801900000001
 21
184.83521200000001
 31
0.0
  0
LINE
  5
C3
  8
0
  6
CONTINUOUS
 62
     7
 10
227.10801900000001
 20
193.83521099999999
 30
0.0
 11
226.60801900000001
 21
193.33521099999999
 31
0.0
  0
LINE
  5
C4
  8
0
  6
CONTINUOUS
 62
     7
 10
226.60801900000001
 20
182.33521099999999
 30
0.0
 11
227.10801900000001
 21
181.83521099999999
 31
0.0
  0
LINE
  5
C5
  8
0
  6
CONTINUOUS
 62
     7
 10
233.60801900000001
 20
193.83521099999999
 30
0.0
 11
227.10801900000001
 21
193.83521099999999
 31
0.0
  0
LINE
  5
C6
  8
0
  6
CONTINUOUS
 62
     7
 10
227.10801900000001
 20
181.83521099999999
 30
0.0
 11
233.60801900000001
 21
181.83521099999999
 31
0.0
  0
LINE
  5
C7
  8
0
  6
CONTINUOUS
 62
     7
 10
233.60801900000001
 20
181.83521099999999
 30
0.0
 11
234.60801900000001
 21
182.83521099999999
 31
0.0
  0
LINE
  5
C8
  8
0
  6
CONTINUOUS
 62
     7
 10
234.60801900000001
 20
192.83521099999999
 30
0.0
 11
233.60801900000001
 21
193.83521099999999
 31
0.0
  0
LINE
  5
C9
  8
0
  6
CONTINUOUS
 62
     7
 10
226.60801900000001
 20
191.83521099999999
 30
0.0
 11
222.60801900000001
 21
191.83521099999999
 31
0.0
  0
LINE
  5
CA
  8
0
  6
CONTINUOUS
 62
     7
 10
222.60801900000001
 20
183.83521099999999
 30
0.0
 11
226.60801900000001
 21
183.83521099999999
 31
0.0
  0
LINE
  5
CB
  8
0
  6
CONTINUOUS
 62
     7
 10
214.60801900000001
 20
183.83521099999999
 30
0.0
 11
216.60801900000001
 21
183.83521099999999
 31
0.0
  0
LINE
  5
CC
  8
0
  6
CONTINUOUS
 62
     7
 10
285.47481499999998
 20
75.460093000000001
 30
0.0
 11
285.47481499999998
 21
75.310092999999981
 31
0.0
  0
LINE
  5
CD
  8
0
  6
CONTINUOUS
 62
     7
 10
273.47481499999998
 20
75.460093000000001
 30
0.0
 11
273.47481499999998
 21
75.310092999999981
 31
0.0
  0
LINE
  5
CE
  8
0
  6
CONTINUOUS
 62
     7
 10
275.97481499999998
 20
84.829367000000005
 30
0.0
 11
275.97481499999998
 21
100.987959
 31
0.0
  0
LINE
  5
CF
  8
0
  6
CONTINUOUS
 62
     7
 10
275.97481499999998
 20
109.93222900000001
 30
0.0
 11
275.97481499999998
 21
126.090093
 31
0.0
  0
LINE
  5
D0
  8
0
  6
CONTINUOUS
 62
     7
 10
271.47481499999998
 20
146.960093
 30
0.0
 11
280.47481499999998
 21
146.960093
 31
0.0
  0
LINE
  5
D1
  8
0
  6
CONTINUOUS
 62
     7
 10
280.97481499999998
 20
146.460093
 30
0.0
 11
270.97481499999998
 21
146.460093
 31
0.0
  0
LINE
  5
D2
  8
0
  6
CONTINUOUS
 62
     7
 10
270.97481499999998
 20
141.460093
 30
0.0
 11
280.97481499999998
 21
141.460093
 31
0.0
  0
LINE
  5
D3
  8
0
  6
CONTINUOUS
 62
     7
 10
280.47481499999998
 20
140.960093
 30
0.0
 11
271.47481499999998
 21
140.960093
 31
0.0
  0
CIRCLE
  5
D4
  8
0
  6
CONTINUOUS
 62
     7
 10
279.97481599999998
 20
105.460094
 30
0.0
 40
5.0
  0
CIRCLE
  5
D5
  8
0
  6
CONTINUOUS
 62
     7
 10
279.97481599999998
 20
105.460094
 30
0.0
 40
6.0
  0
LINE
  5
D6
  8
0
  6
CONTINUOUS
 62
     7
 10
281.47481699999997
 20
115.460093
 30
0.0
 11
279.97481599999998
 21
113.960092
 31
0.0
  0
LINE
  5
D7
  8
0
  6
CONTINUOUS
 62
     7
 10
279.97481599999998
 20
96.960094999999995
 30
0.0
 11
281.47481699999997
 21
95.460094999999995
 31
0.0
  0
LINE
  5
D8
  8
0
  6
CONTINUOUS
 62
     7
 10
279.97481599999998
 20
98.960094999999995
 30
0.0
 11
279.97481599999998
 21
96.960094999999995
 31
0.0
  0
LINE
  5
D9
  8
0
  6
CONTINUOUS
 62
     7
 10
281.47481699999997
 20
95.460094999999995
 30
0.0
 11
285.97481499999998
 21
95.460094999999995
 31
0.0
  0
LINE
  5
DA
  8
0
  6
CONTINUOUS
 62
     7
 10
277.97481699999997
 20
111.960093
 30
0.0
 11
276.97481699999997
 21
110.960093
 31
0.0
  0
LINE
  5
DB
  8
0
  6
CONTINUOUS
 62
     7
 10
279.97481599999998
 20
113.960092
 30
0.0
 11
279.97481599999998
 21
111.960093
 31
0.0
  0
LINE
  5
DC
  8
0
  6
CONTINUOUS
 62
     7
 10
277.97481699999997
 20
98.960094999999995
 30
0.0
 11
279.97481599999998
 21
98.960094999999995
 31
0.0
  0
LINE
  5
DD
  8
0
  6
CONTINUOUS
 62
     7
 10
285.97481499999998
 20
115.460093
 30
0.0
 11
281.47481699999997
 21
115.460093
 31
0.0
  0
LINE
  5
DE
  8
0
  6
CONTINUOUS
 62
     7
 10
279.97481599999998
 20
111.960093
 30
0.0
 11
277.97481699999997
 21
111.960093
 31
0.0
  0
LINE
  5
DF
  8
0
  6
CONTINUOUS
 62
     7
 10
276.97481699999997
 20
99.960094999999995
 30
0.0
 11
277.97481699999997
 21
98.960094999999995
 31
0.0
  0
LINE
  5
E0
  8
0
  6
CONTINUOUS
 62
     7
 10
285.97481499999998
 20
87.460093000000001
 30
0.0
 11
286.47481499999998
 21
86.960093000000001
 31
0.0
  0
LINE
  5
E1
  8
0
  6
CONTINUOUS
 62
     7
 10
286.47481499999998
 20
123.960093
 30
0.0
 11
285.97481499999998
 21
123.460093
 31
0.0
  0
LINE
  5
E2
  8
0
  6
CONTINUOUS
 62
     7
 10
271.47481400000009
 20
135.460094
 30
0.0
 11
271.47481400000009
 21
135.960094
 31
0.0
  0
LINE
  5
E3
  8
0
  6
CONTINUOUS
 62
     7
 10
285.97481499999998
 20
135.460094
 30
0.0
 11
285.97481499999998
 21
135.960094
 31
0.0
  0
LINE
  5
E4
  8
0
  6
CONTINUOUS
 62
     7
 10
281.22481499999998
 20
137.182593
 30
0.0
 11
286.22481499999998
 21
137.182593
 31
0.0
  0
LINE
  5
E5
  8
0
  6
CONTINUOUS
 62
     7
 10
280.97481499999998
 20
146.460093
 30
0.0
 11
280.47481499999998
 21
146.960093
 31
0.0
  0
LINE
  5
E6
  8
0
  6
CONTINUOUS
 62
     7
 10
271.47481499999998
 20
146.960093
 30
0.0
 11
270.97481499999998
 21
146.460093
 31
0.0
  0
LINE
  5
E7
  8
0
  6
CONTINUOUS
 62
     7
 10
270.97481499999998
 20
146.460093
 30
0.0
 11
270.97481499999998
 21
141.460093
 31
0.0
  0
LINE
  5
E8
  8
0
  6
CONTINUOUS
 62
     7
 10
280.97481499999998
 20
141.460093
 30
0.0
 11
280.97481499999998
 21
146.460093
 31
0.0
  0
LINE
  5
E9
  8
0
  6
CONTINUOUS
 62
     7
 10
270.97481499999998
 20
141.460093
 30
0.0
 11
271.47481499999998
 21
140.960093
 31
0.0
  0
LINE
  5
EA
  8
0
  6
CONTINUOUS
 62
     7
 10
280.47481499999998
 20
140.960093
 30
0.0
 11
280.97481499999998
 21
141.460093
 31
0.0
  0
LINE
  5
EB
  8
0
  6
CONTINUOUS
 62
     7
 10
272.97481499999998
 20
140.960093
 30
0.0
 11
272.97481499999998
 21
135.960093
 31
0.0
  0
LINE
  5
EC
  8
0
  6
CONTINUOUS
 62
     7
 10
278.97481499999998
 20
135.960093
 30
0.0
 11
278.97481499999998
 21
140.960093
 31
0.0
  0
LINE
  5
ED
  8
0
  6
CONTINUOUS
 62
     7
 10
281.22481499999998
 20
137.182593
 30
0.0
 11
281.22481499999998
 21
135.960094
 31
0.0
  0
LINE
  5
EE
  8
0
  6
CONTINUOUS
 62
     7
 10
286.22481499999998
 20
135.460094
 30
0.0
 11
286.22481499999998
 21
137.182593
 31
0.0
  0
LINE
  5
EF
  8
0
  6
CONTINUOUS
 62
     7
 10
397.29994099999999
 20
75.460093000000001
 30
0.0
 11
397.29994099999999
 21
75.310092999999981
 31
0.0
  0
LINE
  5
F0
  8
0
  6
CONTINUOUS
 62
     7
 10
381.29994099999999
 20
75.310092999999981
 30
0.0
 11
397.29994099999999
 21
75.310092999999981
 31
0.0
  0
LINE
  5
F1
  8
0
  6
CONTINUOUS
 62
     7
 10
381.29994099999999
 20
75.460093000000001
 30
0.0
 11
381.29994099999999
 21
75.310092999999981
 31
0.0
  0
LINE
  5
F2
  8
0
  6
CONTINUOUS
 62
     7
 10
356.29994099999999
 20
75.460093000000001
 30
0.0
 11
356.29994099999999
 21
75.310092999999981
 31
0.0
  0
LINE
  5
F3
  8
0
  6
CONTINUOUS
 62
     7
 10
340.29994099999999
 20
75.310092999999981
 30
0.0
 11
356.29994099999999
 21
75.310092999999981
 31
0.0
  0
LINE
  5
F4
  8
0
  6
CONTINUOUS
 62
     7
 10
340.29994099999999
 20
75.460093000000001
 30
0.0
 11
340.29994099999999
 21
75.310092999999981
 31
0.0
  0
LINE
  5
F5
  8
0
  6
CONTINUOUS
 62
     7
 10
398.79994199999999
 20
76.460093000000001
 30
0.0
 11
397.79994199999999
 21
75.460093000000001
 31
0.0
  0
LINE
  5
F6
  8
0
  6
CONTINUOUS
 62
     7
 10
397.79994199999999
 20
75.460093000000001
 30
0.0
 11
339.79994099999999
 21
75.460093000000001
 31
0.0
  0
LINE
  5
F7
  8
0
  6
CONTINUOUS
 62
     7
 10
339.79994099999999
 20
75.460093000000001
 30
0.0
 11
338.79994099999999
 21
76.460093000000001
 31
0.0
  0
LINE
  5
F8
  8
0
  6
CONTINUOUS
 62
     7
 10
338.79994099999999
 20
86.960093000000001
 30
0.0
 11
398.79994199999999
 21
86.960093000000001
 31
0.0
  0
CIRCLE
  5
F9
  8
0
  6
CONTINUOUS
 62
     7
 10
343.79994199999999
 20
80.460093999999998
 30
0.0
 40
2.25
  0
CIRCLE
  5
FA
  8
0
  6
CONTINUOUS
 62
     7
 10
393.79994199999999
 20
80.460093999999998
 30
0.0
 40
2.25
  0
LINE
  5
FB
  8
0
  6
CONTINUOUS
 62
     7
 10
338.79994099999999
 20
134.460094
 30
0.0
 11
339.79994099999999
 21
135.460094
 31
0.0
  0
LINE
  5
FC
  8
0
  6
CONTINUOUS
 62
     7
 10
339.79994099999999
 20
135.460094
 30
0.0
 11
397.79994199999999
 21
135.460094
 31
0.0
  0
LINE
  5
FD
  8
0
  6
CONTINUOUS
 62
     7
 10
397.79994199999999
 20
135.460094
 30
0.0
 11
398.79994199999999
 21
134.460094
 31
0.0
  0
LINE
  5
FE
  8
0
  6
CONTINUOUS
 62
     7
 10
398.79994199999999
 20
123.960093
 30
0.0
 11
338.79994099999999
 21
123.960093
 31
0.0
  0
CIRCLE
  5
FF
  8
0
  6
CONTINUOUS
 62
     7
 10
343.79994199999999
 20
130.460094
 30
0.0
 40
2.25
  0
CIRCLE
  5
100
  8
0
  6
CONTINUOUS
 62
     7
 10
393.79994199999999
 20
130.460094
 30
0.0
 40
2.25
  0
LINE
  5
101
  8
0
  6
CONTINUOUS
 62
     7
 10
338.79994099999999
 20
87.460093000000001
 30
0.0
 11
398.79994199999999
 21
87.460093000000001
 31
0.0
  0
LINE
  5
102
  8
0
  6
CONTINUOUS
 62
     7
 10
338.79994099999999
 20
123.460093
 30
0.0
 11
398.79994199999999
 21
123.460093
 31
0.0
  0
LINE
  5
103
  8
0
  6
CONTINUOUS
 62
     7
 10
351.29994099999999
 20
137.182593
 30
0.0
 11
356.29994099999999
 21
137.182593
 31
0.0
  0
LINE
  5
104
  8
0
  6
CONTINUOUS
 62
     7
 10
352.710216
 20
135.460094
 30
0.0
 11
352.710216
 21
135.960094
 31
0.0
  0
LINE
  5
105
  8
0
  6
CONTINUOUS
 62
     7
 10
354.88966599999998
 20
135.960094
 30
0.0
 11
354.88966599999998
 21
135.460094
 31
0.0
  0
LINE
  5
106
  8
0
  6
CONTINUOUS
 62
     7
 10
356.79994099999999
 20
137.182593
 30
0.0
 11
361.79994099999999
 21
137.182593
 31
0.0
  0
LINE
  5
107
  8
0
  6
CONTINUOUS
 62
     7
 10
358.210216
 20
135.460094
 30
0.0
 11
358.210216
 21
135.960094
 31
0.0
  0
LINE
  5
108
  8
0
  6
CONTINUOUS
 62
     7
 10
360.38966599999998
 20
135.960094
 30
0.0
 11
360.38966599999998
 21
135.460094
 31
0.0
  0
LINE
  5
109
  8
0
  6
CONTINUOUS
 62
     7
 10
362.29994099999999
 20
137.182593
 30
0.0
 11
367.29994099999999
 21
137.182593
 31
0.0
  0
LINE
  5
10A
  8
0
  6
CONTINUOUS
 62
     7
 10
363.710216
 20
135.460094
 30
0.0
 11
363.710216
 21
135.960094
 31
0.0
  0
LINE
  5
10B
  8
0
  6
CONTINUOUS
 62
     7
 10
365.88966599999998
 20
135.960094
 30
0.0
 11
365.88966599999998
 21
135.460094
 31
0.0
  0
LINE
  5
10C
  8
0
  6
CONTINUOUS
 62
     7
 10
330.79994099999999
 20
95.460094999999995
 30
0.0
 11
330.79994099999999
 21
115.460093
 31
0.0
  0
LINE
  5
10D
  8
0
  6
CONTINUOUS
 62
     7
 10
338.79994099999999
 20
115.460093
 30
0.0
 11
330.79994099999999
 21
115.460093
 31
0.0
  0
LINE
  5
10E
  8
0
  6
CONTINUOUS
 62
     7
 10
338.79994099999999
 20
95.460094999999995
 30
0.0
 11
330.79994099999999
 21
95.460094999999995
 31
0.0
  0
LINE
  5
10F
  8
0
  6
CONTINUOUS
 62
     7
 10
358.210216
 20
135.960094
 30
0.0
 11
354.88966599999998
 21
135.960094
 31
0.0
  0
LINE
  5
110
  8
0
  6
CONTINUOUS
 62
     7
 10
345.79994299999998
 20
135.460094
 30
0.0
 11
345.79994299999998
 21
135.960094
 31
0.0
  0
LINE
  5
111
  8
0
  6
CONTINUOUS
 62
     7
 10
363.710216
 20
135.960094
 30
0.0
 11
360.38966599999998
 21
135.960094
 31
0.0
  0
LINE
  5
112
  8
0
  6
CONTINUOUS
 62
     7
 10
371.79994099999999
 20
135.460094
 30
0.0
 11
371.79994099999999
 21
135.960094
 31
0.0
  0
LINE
  5
113
  8
0
  6
CONTINUOUS
 62
     7
 10
353.79994099999999
 20
141.460093
 30
0.0
 11
354.29994099999999
 21
140.960093
 31
0.0
  0
LINE
  5
114
  8
0
  6
CONTINUOUS
 62
     7
 10
363.29994099999999
 20
140.960093
 30
0.0
 11
363.79994099999999
 21
141.460093
 31
0.0
  0
LINE
  5
115
  8
0
  6
CONTINUOUS
 62
     7
 10
363.79994099999999
 20
146.460093
 30
0.0
 11
363.29994099999999
 21
146.960093
 31
0.0
  0
LINE
  5
116
  8
0
  6
CONTINUOUS
 62
     7
 10
354.29994099999999
 20
146.960093
 30
0.0
 11
353.79994099999999
 21
146.460093
 31
0.0
  0
LINE
  5
117
  8
0
  6
CONTINUOUS
 62
     7
 10
353.79994099999999
 20
146.460093
 30
0.0
 11
353.79994099999999
 21
141.460093
 31
0.0
  0
LINE
  5
118
  8
0
  6
CONTINUOUS
 62
     7
 10
363.79994099999999
 20
141.460093
 30
0.0
 11
363.79994099999999
 21
146.460093
 31
0.0
  0
LINE
  5
119
  8
0
  6
CONTINUOUS
 62
     7
 10
355.79994099999999
 20
140.960093
 30
0.0
 11
355.79994099999999
 21
137.52419599999999
 31
0.0
  0
LINE
  5
11A
  8
0
  6
CONTINUOUS
 62
     7
 10
351.29994099999999
 20
137.182593
 30
0.0
 11
351.29994099999999
 21
135.960094
 31
0.0
  0
LINE
  5
11B
  8
0
  6
CONTINUOUS
 62
     7
 10
356.29994099999999
 20
135.960094
 30
0.0
 11
356.29994099999999
 21
137.182593
 31
0.0
  0
LINE
  5
11C
  8
0
  6
CONTINUOUS
 62
     7
 10
356.79994099999999
 20
137.182593
 30
0.0
 11
356.79994099999999
 21
135.960094
 31
0.0
  0
LINE
  5
11D
  8
0
  6
CONTINUOUS
 62
     7
 10
362.29994099999999
 20
137.182593
 30
0.0
 11
362.29994099999999
 21
135.960094
 31
0.0
  0
LINE
  5
11E
  8
0
  6
CONTINUOUS
 62
     7
 10
367.29994099999999
 20
135.960094
 30
0.0
 11
367.29994099999999
 21
137.182593
 31
0.0
  0
LINE
  5
11F
  8
0
  6
CONTINUOUS
 62
     7
 10
319.79994099999999
 20
111.460094
 30
0.0
 11
318.79994099999999
 21
110.460094
 31
0.0
  0
LINE
  5
120
  8
0
  6
CONTINUOUS
 62
     7
 10
318.79994099999999
 20
100.460094
 30
0.0
 11
319.79994099999999
 21
99.460094000000012
 31
0.0
  0
LINE
  5
121
  8
0
  6
CONTINUOUS
 62
     7
 10
319.79994099999999
 20
99.460094000000012
 30
0.0
 11
326.29994099999999
 21
99.460094000000012
 31
0.0
  0
LINE
  5
122
  8
0
  6
CONTINUOUS
 62
     7
 10
326.29994099999999
 20
111.460094
 30
0.0
 11
319.79994099999999
 21
111.460094
 31
0.0
  0
LINE
  5
123
  8
0
  6
CONTINUOUS
 62
     7
 10
326.29994099999999
 20
99.460094000000012
 30
0.0
 11
326.79994099999999
 21
99.960093999999998
 31
0.0
  0
LINE
  5
124
  8
0
  6
CONTINUOUS
 62
     7
 10
326.79994099999999
 20
110.960094
 30
0.0
 11
326.29994099999999
 21
111.460094
 31
0.0
  0
LINE
  5
125
  8
0
  6
CONTINUOUS
 62
     7
 10
326.79994099999999
 20
101.460094
 30
0.0
 11
330.79994099999999
 21
101.460094
 31
0.0
  0
LINE
  5
126
  8
0
  6
CONTINUOUS
 62
     7
 10
330.79994099999999
 20
109.460094
 30
0.0
 11
326.79994099999999
 21
109.460094
 31
0.0
  0
LINE
  5
134
  8
0
  6
CONTINUOUS
 62
     7
 10
276.97481699999997
 20
100.263941
 30
0.0
 11
276.97481699999997
 21
99.960094999999995
 31
0.0
  0
LINE
  5
135
  8
0
  6
CONTINUOUS
 62
     7
 10
276.97481699999997
 20
110.960093
 30
0.0
 11
276.97481699999997
 21
110.65624699999999
 31
0.0
  0
LINE
  5
136
  8
0
  6
CONTINUOUS
 62
     7
 10
276.47481499999998
 20
85.118042999999986
 30
0.0
 11
276.47481499999998
 21
100.586698
 31
0.0
  0
LINE
  5
146
  8
CENTER
  6
CENTER
 62
     1
 10
156.20801900000001
 20
80.460092999999986
 30
0.0
 11
163.00801899999999
 21
80.460092999999986
 31
0.0
  0
LINE
  5
147
  8
CENTER
  6
CENTER
 62
     1
 10
159.60801900000001
 20
77.060093000000023
 30
0.0
 11
159.60801900000001
 21
83.860093000000006
 31
0.0
  0
LINE
  5
148
  8
CENTER
  6
CENTER
 62
     1
 10
165.808019
 20
89.460093000000001
 30
0.0
 11
171.408019
 21
89.460093000000001
 31
0.0
  0
LINE
  5
149
  8
CENTER
  6
CENTER
 62
     1
 10
168.60801900000001
 20
86.660093000000003
 30
0.0
 11
168.60801900000001
 21
92.260092999999983
 31
0.0
  0
LINE
  5
14A
  8
CENTER
  6
CENTER
 62
     1
 10
181.20801900000001
 20
80.460092999999986
 30
0.0
 11
188.00801899999999
 21
80.460092999999986
 31
0.0
  0
LINE
  5
14B
  8
CENTER
  6
CENTER
 62
     1
 10
184.60801900000001
 20
77.060093000000023
 30
0.0
 11
184.60801900000001
 21
83.860093000000006
 31
0.0
  0
LINE
  5
14C
  8
CENTER
  6
CENTER
 62
     1
 10
197.808019
 20
89.460093000000001
 30
0.0
 11
203.408019
 21
89.460093000000001
 31
0.0
  0
LINE
  5
14D
  8
CENTER
  6
CENTER
 62
     1
 10
200.60801900000001
 20
86.660093000000003
 30
0.0
 11
200.60801900000001
 21
92.260092999999983
 31
0.0
  0
LINE
  5
14E
  8
CENTER
  6
CENTER
 62
     1
 10
206.20801900000001
 20
80.460092999999986
 30
0.0
 11
213.00801899999999
 21
80.460092999999986
 31
0.0
  0
LINE
  5
14F
  8
CENTER
  6
CENTER
 62
     1
 10
209.60801900000001
 20
77.060093000000023
 30
0.0
 11
209.60801900000001
 21
83.860093000000006
 31
0.0
  0
LINE
  5
150
  8
CENTER
  6
CENTER
 62
     1
 10
206.20801900000001
 20
105.460093
 30
0.0
 11
213.00801899999999
 21
105.460093
 31
0.0
  0
LINE
  5
151
  8
CENTER
  6
CENTER
 62
     1
 10
209.60801900000001
 20
102.06009299999999
 30
0.0
 11
209.60801900000001
 21
108.86009300000001
 31
0.0
  0
LINE
  5
152
  8
CENTER
  6
CENTER
 62
     1
 10
156.20801900000001
 20
105.460093
 30
0.0
 11
163.00801899999999
 21
105.460093
 31
0.0
  0
LINE
  5
153
  8
CENTER
  6
CENTER
 62
     1
 10
159.60801900000001
 20
102.06009299999999
 30
0.0
 11
159.60801900000001
 21
108.86009300000001
 31
0.0
  0
LINE
  5
154
  8
CENTER
  6
CENTER
 62
     1
 10
156.20801900000001
 20
130.460093
 30
0.0
 11
163.00801899999999
 21
130.460093
 31
0.0
  0
LINE
  5
155
  8
CENTER
  6
CENTER
 62
     1
 10
159.60801900000001
 20
127.06009299999999
 30
0.0
 11
159.60801900000001
 21
133.86009300000001
 31
0.0
  0
LINE
  5
156
  8
CENTER
  6
CENTER
 62
     1
 10
165.808019
 20
121.460093
 30
0.0
 11
171.408019
 21
121.460093
 31
0.0
  0
LINE
  5
157
  8
CENTER
  6
CENTER
 62
     1
 10
168.60801900000001
 20
118.660093
 30
0.0
 11
168.60801900000001
 21
124.260093
 31
0.0
  0
LINE
  5
158
  8
CENTER
  6
CENTER
 62
     1
 10
181.20801900000001
 20
130.460093
 30
0.0
 11
188.00801899999999
 21
130.460093
 31
0.0
  0
LINE
  5
159
  8
CENTER
  6
CENTER
 62
     1
 10
184.60801900000001
 20
127.06009299999999
 30
0.0
 11
184.60801900000001
 21
133.86009300000001
 31
0.0
  0
LINE
  5
15A
  8
CENTER
  6
CENTER
 62
     1
 10
206.20801900000001
 20
130.460093
 30
0.0
 11
213.00801899999999
 21
130.460093
 31
0.0
  0
LINE
  5
15B
  8
CENTER
  6
CENTER
 62
     1
 10
209.60801900000001
 20
127.06009299999999
 30
0.0
 11
209.60801900000001
 21
133.86009300000001
 31
0.0
  0
LINE
  5
15C
  8
CENTER
  6
CENTER
 62
     1
 10
197.808019
 20
121.460093
 30
0.0
 11
203.408019
 21
121.460093
 31
0.0
  0
LINE
  5
15D
  8
CENTER
  6
CENTER
 62
     1
 10
200.60801900000001
 20
118.660093
 30
0.0
 11
200.60801900000001
 21
124.260093
 31
0.0
  0
LINE
  5
15E
  8
CENTER
  6
CENTER
 62
     1
 10
271.77481599999999
 20
105.460094
 30
0.0
 11
288.17481600000002
 21
105.460094
 31
0.0
  0
LINE
  5
15F
  8
CENTER
  6
CENTER
 62
     1
 10
279.97481599999998
 20
97.260093999999995
 30
0.0
 11
279.97481599999998
 21
113.660094
 31
0.0
  0
LINE
  5
160
  8
CENTER
  6
CENTER
 62
     1
 10
390.099942
 20
80.460093999999998
 30
0.0
 11
397.49994199999998
 21
80.460093999999998
 31
0.0
  0
LINE
  5
161
  8
CENTER
  6
CENTER
 62
     1
 10
393.79994199999999
 20
76.760093999999981
 30
0.0
 11
393.79994199999999
 21
84.160094000000001
 31
0.0
  0
LINE
  5
162
  8
CENTER
  6
CENTER
 62
     1
 10
340.099942
 20
80.460093999999998
 30
0.0
 11
347.49994199999998
 21
80.460093999999998
 31
0.0
  0
LINE
  5
163
  8
CENTER
  6
CENTER
 62
     1
 10
343.79994199999999
 20
76.760093999999981
 30
0.0
 11
343.79994199999999
 21
84.160094000000001
 31
0.0
  0
LINE
  5
164
  8
CENTER
  6
CENTER
 62
     1
 10
340.099942
 20
130.460094
 30
0.0
 11
347.49994199999998
 21
130.460094
 31
0.0
  0
LINE
  5
165
  8
CENTER
  6
CENTER
 62
     1
 10
343.79994199999999
 20
126.760094
 30
0.0
 11
343.79994199999999
 21
134.16009399999999
 31
0.0
  0
LINE
  5
166
  8
CENTER
  6
CENTER
 62
     1
 10
390.099942
 20
130.460094
 30
0.0
 11
397.49994199999998
 21
130.460094
 31
0.0
  0
LINE
  5
167
  8
CENTER
  6
CENTER
 62
     1
 10
393.79994199999999
 20
126.760094
 30
0.0
 11
393.79994199999999
 21
134.16009399999999
 31
0.0
  0
LINE
  5
168
  8
CENTER
  6
CENTER
 62
     1
 10
187.60801900000001
 20
183.83520999999999
 30
0.0
 11
201.60801900000001
 21
183.83520999999999
 31
0.0
  0
LINE
  5
169
  8
CENTER
  6
CENTER
 62
     1
 10
194.60801900000001
 20
176.83520999999999
 30
0.0
 11
194.60801900000001
 21
190.83520999999999
 31
0.0
  0
LINE
  5
16A
  8
CENTER
  6
CENTER
 62
     1
 10
214.60801900000001
 20
187.8352109999999
 30
0.0
 11
244.60801900000001
 21
187.8352109999999
 31
0.0
  0
LINE
  5
16B
  8
CENTER
  6
CENTER
 62
     1
 10
194.60801900000001
 20
131.11009300000001
 30
0.0
 11
194.60801900000001
 21
156.11009300000001
 31
0.0
  0
LINE
  5
16C
  8
CENTER
  6
CENTER
 62
     1
 10
113.24122199999999
 20
156.11009300000001
 30
0.0
 11
113.24122199999999
 21
131.11009300000001
 31
0.0
  0
LINE
  5
16D
  8
CENTER
  6
CENTER
 62
     1
 10
214.60801900000001
 20
28.284966000000001
 30
0.0
 11
244.60801900000001
 21
28.284966000000001
 31
0.0
  0
LINE
  5
16E
  8
CENTER
  6
CENTER
 62
     1
 10
214.60801900000001
 20
105.460094
 30
0.0
 11
244.60801900000001
 21
105.460094
 31
0.0
  0
LINE
  5
16F
  8
CENTER
  6
CENTER
 62
     1
 10
159.60801799999999
 20
35.284967000000002
 30
0.0
 11
159.60801799999999
 21
15.284967
 31
0.0
  0
LINE
  5
170
  8
CENTER
  6
CENTER
 62
     1
 10
209.60801799999999
 20
35.284967000000002
 30
0.0
 11
209.60801799999999
 21
15.284967
 31
0.0
  0
LINE
  5
171
  8
CENTER
  6
CENTER
 62
     1
 10
272.97481499999998
 20
80.460093999999998
 30
0.0
 11
292.97481499999998
 21
80.460093999999998
 31
0.0
  0
LINE
  5
172
  8
CENTER
  6
CENTER
 62
     1
 10
292.97481499999998
 20
130.460094
 30
0.0
 11
272.97481499999998
 21
130.460094
 31
0.0
  0
LINE
  5
173
  8
CENTER
  6
CENTER
 62
     1
 10
275.97481499999998
 20
131.11009300000001
 30
0.0
 11
275.97481499999998
 21
156.11009300000001
 31
0.0
  0
LINE
  5
174
  8
CENTER
  6
CENTER
 62
     1
 10
308.79994199999999
 20
105.460094
 30
0.0
 11
333.79994199999999
 21
105.460094
 31
0.0
  0
LINE
  5
175
  8
CENTER
  6
CENTER
 62
     1
 10
358.79994099999999
 20
156.11009300000001
 30
0.0
 11
358.79994099999999
 21
131.11009300000001
 31
0.0
  0
LINE
  5
176
  8
0
  6
CONTINUOUS
 62
     3
 10
326.29994099999999
 20
110.460094
 30
0.0
 11
319.79994099999999
 21
110.460094
 31
0.0
  0
LINE
  5
177
  8
0
  6
CONTINUOUS
 62
     3
 10
326.29994099999999
 20
109.460094
 30
0.0
 11
319.79994099999999
 21
109.460094
 31
0.0
  0
LINE
  5
178
  8
0
  6
CONTINUOUS
 62
     3
 10
322.79994099999999
 20
108.460094
 30
0.0
 11
319.79994099999999
 21
108.460094
 31
0.0
  0
LINE
  5
179
  8
0
  6
CONTINUOUS
 62
     3
 10
320.79994099999999
 20
107.460094
 30
0.0
 11
319.79994099999999
 21
107.460094
 31
0.0
  0
LINE
  5
17A
  8
0
  6
CONTINUOUS
 62
     3
 10
362.79994099999999
 20
141.460093
 30
0.0
 11
362.79994099999999
 21
146.460093
 31
0.0
  0
LINE
  5
17B
  8
0
  6
CONTINUOUS
 62
     3
 10
361.79994099999999
 20
141.460093
 30
0.0
 11
361.79994099999999
 21
146.460093
 31
0.0
  0
LINE
  5
17C
  8
0
  6
CONTINUOUS
 62
     3
 10
360.79994099999999
 20
143.460093
 30
0.0
 11
360.79994099999999
 21
146.460093
 31
0.0
  0
LINE
  5
17D
  8
0
  6
CONTINUOUS
 62
     3
 10
359.79994099999999
 20
145.460093
 30
0.0
 11
359.79994099999999
 21
146.460093
 31
0.0
  0
LINE
  5
17E
  8
0
  6
CONTINUOUS
 62
     3
 10
271.97481499999998
 20
146.460093
 30
0.0
 11
271.97481499999998
 21
141.460093
 31
0.0
  0
LINE
  5
17F
  8
0
  6
CONTINUOUS
 62
     3
 10
272.97481499999998
 20
146.460093
 30
0.0
 11
272.97481499999998
 21
141.460093
 31
0.0
  0
LINE
  5
180
  8
0
  6
CONTINUOUS
 62
     3
 10
273.97481499999998
 20
146.460093
 30
0.0
 11
273.97481499999998
 21
143.460093
 31
0.0
  0
LINE
  5
181
  8
0
  6
CONTINUOUS
 62
     3
 10
274.97481499999998
 20
146.460093
 30
0.0
 11
274.97481499999998
 21
145.460093
 31
0.0
  0
LINE
  5
182
  8
0
  6
CONTINUOUS
 62
     3
 10
233.60801900000001
 20
110.460094
 30
0.0
 11
227.10801900000001
 21
110.460094
 31
0.0
  0
LINE
  5
183
  8
0
  6
CONTINUOUS
 62
     3
 10
233.60801900000001
 20
109.460094
 30
0.0
 11
227.10801900000001
 21
109.460094
 31
0.0
  0
LINE
  5
184
  8
0
  6
CONTINUOUS
 62
     3
 10
233.60801900000001
 20
108.460094
 30
0.0
 11
230.60801900000001
 21
108.460094
 31
0.0
  0
LINE
  5
185
  8
0
  6
CONTINUOUS
 62
     3
 10
233.60801900000001
 20
107.460094
 30
0.0
 11
232.60801900000001
 21
107.460094
 31
0.0
  0
LINE
  5
186
  8
0
  6
CONTINUOUS
 62
     3
 10
190.60801900000001
 20
146.460093
 30
0.0
 11
190.60801900000001
 21
141.460093
 31
0.0
  0
LINE
  5
187
  8
0
  6
CONTINUOUS
 62
     3
 10
191.60801900000001
 20
146.460093
 30
0.0
 11
191.60801900000001
 21
141.460093
 31
0.0
  0
LINE
  5
188
  8
0
  6
CONTINUOUS
 62
     3
 10
192.60801900000001
 20
146.460093
 30
0.0
 11
192.60801900000001
 21
143.460093
 31
0.0
  0
LINE
  5
189
  8
0
  6
CONTINUOUS
 62
     3
 10
193.60801900000001
 20
146.460093
 30
0.0
 11
193.60801900000001
 21
145.460093
 31
0.0
  0
LINE
  5
18A
  8
0
  6
CONTINUOUS
 62
     3
 10
117.24122199999999
 20
141.460093
 30
0.0
 11
117.24122199999999
 21
146.460093
 31
0.0
  0
LINE
  5
18B
  8
0
  6
CONTINUOUS
 62
     3
 10
116.24122199999999
 20
141.460093
 30
0.0
 11
116.24122199999999
 21
146.460093
 31
0.0
  0
LINE
  5
18C
  8
0
  6
CONTINUOUS
 62
     3
 10
115.24122199999999
 20
143.460093
 30
0.0
 11
115.24122199999999
 21
146.460093
 31
0.0
  0
LINE
  5
18D
  8
0
  6
CONTINUOUS
 62
     3
 10
114.24122199999999
 20
145.460093
 30
0.0
 11
114.24122199999999
 21
146.460093
 31
0.0
  0
LINE
  5
18E
  8
0
  6
CONTINUOUS
 62
     3
 10
227.10801900000001
 20
182.83521099999999
 30
0.0
 11
233.60801900000001
 21
182.83521099999999
 31
0.0
  0
LINE
  5
18F
  8
0
  6
CONTINUOUS
 62
     3
 10
227.10801900000001
 20
183.83521099999999
 30
0.0
 11
233.60801900000001
 21
183.83521099999999
 31
0.0
  0
LINE
  5
190
  8
0
  6
CONTINUOUS
 62
     3
 10
230.60801900000001
 20
184.83521099999999
 30
0.0
 11
233.60801900000001
 21
184.83521099999999
 31
0.0
  0
LINE
  5
191
  8
0
  6
CONTINUOUS
 62
     3
 10
232.60801900000001
 20
185.83521099999999
 30
0.0
 11
233.60801900000001
 21
185.83521099999999
 31
0.0
  0
LINE
  5
192
  8
0
  6
CONTINUOUS
 62
     3
 10
233.60801900000001
 20
33.284965999999997
 30
0.0
 11
227.10801900000001
 21
33.284965999999997
 31
0.0
  0
LINE
  5
193
  8
0
  6
CONTINUOUS
 62
     3
 10
233.60801900000001
 20
32.284965999999997
 30
0.0
 11
227.10801900000001
 21
32.284965999999997
 31
0.0
  0
LINE
  5
194
  8
0
  6
CONTINUOUS
 62
     3
 10
233.60801900000001
 20
31.284966000000001
 30
0.0
 11
230.60801900000001
 21
31.284966000000001
 31
0.0
  0
LINE
  5
195
  8
0
  6
CONTINUOUS
 62
     3
 10
233.60801900000001
 20
30.284966000000001
 30
0.0
 11
232.60801900000001
 21
30.284966000000001
 31
0.0
  0
LINE
  5
196
  8
0
  6
CONTINUOUS
 62
     7
 10
361.79994099999999
 20
135.960094
 30
0.0
 11
361.79994099999999
 21
140.960093
 31
0.0
  0
LINE
  5
197
  8
0
  6
CONTINUOUS
 62
     7
 10
371.79994099999999
 20
135.960094
 30
0.0
 11
365.88966599999998
 21
135.960094
 31
0.0
  0
LINE
  5
198
  8
0
  6
CONTINUOUS
 62
     7
 10
352.710216
 20
135.960094
 30
0.0
 11
345.79994299999998
 21
135.960094
 31
0.0
  0
LINE
  5
199
  8
0
  6
CONTINUOUS
 62
     7
 10
338.79994099999999
 20
134.460094
 30
0.0
 11
338.79994099999999
 21
115.460093
 31
0.0
  0
LINE
  5
19A
  8
0
  6
CONTINUOUS
 62
     7
 10
338.79994099999999
 20
95.460094999999995
 30
0.0
 11
338.79994099999999
 21
76.460093000000001
 31
0.0
  0
LINE
  5
19B
  8
0
  6
CONTINUOUS
 62
     7
 10
398.79994199999999
 20
76.460093000000001
 30
0.0
 11
398.79994199999999
 21
134.460094
 31
0.0
  0
LINE
  5
19C
  8
0
  6
CONTINUOUS
 62
     7
 10
326.79994099999999
 20
110.960094
 30
0.0
 11
326.79994099999999
 21
99.960093999999998
 31
0.0
  0
LINE
  5
19D
  8
0
  6
CONTINUOUS
 62
     7
 10
326.29994099999999
 20
99.460094000000012
 30
0.0
 11
326.29994099999999
 21
111.460094
 31
0.0
  0
LINE
  5
19E
  8
0
  6
CONTINUOUS
 62
     7
 10
319.79994099999999
 20
111.460094
 30
0.0
 11
319.79994099999999
 21
99.460094000000012
 31
0.0
  0
LINE
  5
19F
  8
0
  6
CONTINUOUS
 62
     7
 10
318.79994099999999
 20
100.460094
 30
0.0
 11
318.79994099999999
 21
110.460094
 31
0.0
  0
LINE
  5
1A0
  8
0
  6
CONTINUOUS
 62
     7
 10
354.29994099999999
 20
146.960093
 30
0.0
 11
363.29994099999999
 21
146.960093
 31
0.0
  0
LINE
  5
1A1
  8
0
  6
CONTINUOUS
 62
     7
 10
363.79994099999999
 20
146.460093
 30
0.0
 11
353.79994099999999
 21
146.460093
 31
0.0
  0
LINE
  5
1A2
  8
0
  6
CONTINUOUS
 62
     7
 10
353.79994099999999
 20
141.460093
 30
0.0
 11
363.79994099999999
 21
141.460093
 31
0.0
  0
LINE
  5
1A3
  8
0
  6
CONTINUOUS
 62
     7
 10
363.29994099999999
 20
140.960093
 30
0.0
 11
354.29994099999999
 21
140.960093
 31
0.0
  0
LINE
  5
1A4
  8
0
  6
CONTINUOUS
 62
     7
 10
381.289941
 20
75.310092999999981
 30
0.0
 11
356.30994099999998
 21
75.310092999999981
 31
0.0
  0
LINE
  5
1A5
  8
0
  6
CONTINUOUS
 62
     7
 10
285.97481499999998
 20
135.960094
 30
0.0
 11
271.47481400000009
 21
135.960094
 31
0.0
  0
LINE
  5
1A6
  8
0
  6
CONTINUOUS
 62
     7
 10
279.47481499999998
 20
124.069367
 30
0.0
 11
279.47481499999998
 21
135.460094
 31
0.0
  0
LINE
  5
1A7
  8
0
  6
CONTINUOUS
 62
     7
 10
286.47481499999998
 20
123.960093
 30
0.0
 11
286.47481499999998
 21
135.460094
 31
0.0
  0
LINE
  5
1A8
  8
0
  6
CONTINUOUS
 62
     7
 10
269.47481499999998
 20
135.460094
 30
0.0
 11
286.47481499999998
 21
135.460094
 31
0.0
  0
LINE
  5
1A9
  8
0
  6
CONTINUOUS
 62
     7
 10
286.47481499999998
 20
75.460093000000001
 30
0.0
 11
286.47481499999998
 21
86.960093000000001
 31
0.0
  0
LINE
  5
1AA
  8
0
  6
CONTINUOUS
 62
     7
 10
279.47481499999998
 20
75.310092999999981
 30
0.0
 11
279.47481499999998
 21
86.850093999999999
 31
0.0
  0
LINE
  5
1AB
  8
0
  6
CONTINUOUS
 62
     7
 10
269.47481499999998
 20
75.460094999999981
 30
0.0
 11
286.47481499999998
 21
75.460093000000001
 31
0.0
  0
LINE
  5
1AC
  8
0
  6
CONTINUOUS
 62
     7
 10
285.97481499999998
 20
123.460093
 30
0.0
 11
285.97481499999998
 21
87.460093000000001
 31
0.0
  0
LINE
  5
1AD
  8
0
  6
CONTINUOUS
 62
     7
 10
276.47481499999998
 20
110.333491
 30
0.0
 11
276.47481499999998
 21
125.802144
 31
0.0
  0
LINE
  5
1AE
  8
0
  6
CONTINUOUS
 62
     7
 10
269.47481499999998
 20
134.460094
 30
0.0
 11
286.47481499999998
 21
134.460094
 31
0.0
  0
LINE
  5
1AF
  8
0
  6
CONTINUOUS
 62
     7
 10
275.97512899999998
 20
126.0906379999999
 30
0.0
 11
279.47512999999998
 21
124.069912
 31
0.0
  0
LINE
  5
1B0
  8
0
  6
CONTINUOUS
 62
     7
 10
279.47481499999998
 20
86.850093999999999
 30
0.0
 11
275.97481499999998
 21
84.829368000000002
 31
0.0
  0
LINE
  5
1B1
  8
0
  6
CONTINUOUS
 62
     7
 10
269.47481499999998
 20
76.460093000000001
 30
0.0
 11
286.47481499999998
 21
76.460093000000001
 31
0.0
  0
LINE
  5
1B2
  8
0
  6
CONTINUOUS
 62
     7
 10
269.47481499999998
 20
75.460093000000001
 30
0.0
 11
269.47481499999998
 21
135.460093
 31
0.0
  0
LINE
  5
1B3
  8
0
  6
CONTINUOUS
 62
     7
 10
285.47481499999998
 20
75.310092999999981
 30
0.0
 11
273.47481499999998
 21
75.310092999999981
 31
0.0
  0
LINE
  5
1B4
  8
0
  6
CONTINUOUS
 62
     7
 10
222.60801900000001
 20
193.83520999999999
 30
0.0
 11
222.60801900000001
 21
183.83521099999999
 31
0.0
  0
LINE
  5
1B5
  8
0
  6
CONTINUOUS
 62
     7
 10
214.60801900000001
 20
187.33520999999999
 30
0.0
 11
207.60801699999999
 21
187.33520999999999
 31
0.0
  0
LINE
  5
1B6
  8
0
  6
CONTINUOUS
 62
     7
 10
214.60801900000001
 20
177.33520999999999
 30
0.0
 11
214.60801900000001
 21
194.33520999999999
 31
0.0
  0
LINE
  5
1B7
  8
0
  6
CONTINUOUS
 62
     7
 10
214.60801900000001
 20
194.33520999999999
 30
0.0
 11
154.60801799999999
 21
194.33520999999999
 31
0.0
  0
LINE
  5
1B8
  8
0
  6
CONTINUOUS
 62
     7
 10
181.60801900000001
 20
187.33520999999999
 30
0.0
 11
154.60801799999999
 21
187.33520999999999
 31
0.0
  0
LINE
  5
1B9
  8
0
  6
CONTINUOUS
 62
     7
 10
154.60801799999999
 20
177.33520999999999
 30
0.0
 11
154.60801799999999
 21
194.33520999999999
 31
0.0
  0
LINE
  5
1BA
  8
0
  6
CONTINUOUS
 62
     7
 10
213.60802100000001
 20
177.33520999999999
 30
0.0
 11
213.60801900000001
 21
194.33520999999999
 31
0.0
  0
LINE
  5
1BB
  8
0
  6
CONTINUOUS
 62
     7
 10
155.60801799999999
 20
177.33520999999999
 30
0.0
 11
155.60801799999999
 21
194.33520999999999
 31
0.0
  0
LINE
  5
1BC
  8
0
  6
CONTINUOUS
 62
     7
 10
214.60801900000001
 20
177.33520999999999
 30
0.0
 11
154.60801900000001
 21
177.33520999999999
 31
0.0
  0
LINE
  5
1BD
  8
0
  6
CONTINUOUS
 62
     7
 10
102.99122199999999
 20
137.182593
 30
0.0
 11
107.99122199999999
 21
137.182593
 31
0.0
  0
LINE
  5
1BE
  8
0
  6
CONTINUOUS
 62
     7
 10
117.74122300000001
 20
135.960094
 30
0.0
 11
103.24122199999999
 21
135.960094
 31
0.0
  0
LINE
  5
1BF
  8
0
  6
CONTINUOUS
 62
     7
 10
109.74122199999999
 20
86.850093999999999
 30
0.0
 11
109.74122199999999
 21
75.310092999999981
 31
0.0
  0
LINE
  5
1C0
  8
0
  6
CONTINUOUS
 62
     7
 10
102.74122199999999
 20
86.960093000000001
 30
0.0
 11
102.74122199999999
 21
75.460093000000001
 31
0.0
  0
LINE
  5
1C1
  8
0
  6
CONTINUOUS
 62
     7
 10
119.74122199999999
 20
75.460094999999981
 30
0.0
 11
102.74122199999999
 21
75.460093000000001
 31
0.0
  0
LINE
  5
1C2
  8
0
  6
CONTINUOUS
 62
     7
 10
109.74122199999999
 20
135.460094
 30
0.0
 11
109.74122199999999
 21
124.069367
 31
0.0
  0
LINE
  5
1C3
  8
0
  6
CONTINUOUS
 62
     7
 10
102.74122199999999
 20
135.460094
 30
0.0
 11
102.74122199999999
 21
123.960093
 31
0.0
  0
LINE
  5
1C4
  8
0
  6
CONTINUOUS
 62
     7
 10
119.74122199999999
 20
135.460094
 30
0.0
 11
102.74122199999999
 21
135.460094
 31
0.0
  0
LINE
  5
1C5
  8
0
  6
CONTINUOUS
 62
     7
 10
113.24122199999999
 20
84.829368000000002
 30
0.0
 11
109.74122199999999
 21
86.850093999999999
 31
0.0
  0
LINE
  5
1C6
  8
0
  6
CONTINUOUS
 62
     7
 10
119.74122199999999
 20
76.460093000000001
 30
0.0
 11
102.74122199999999
 21
76.460093000000001
 31
0.0
  0
LINE
  5
1C7
  8
0
  6
CONTINUOUS
 62
     7
 10
112.74122199999999
 20
125.802144
 30
0.0
 11
112.74122199999999
 21
85.118042999999986
 31
0.0
  0
LINE
  5
1C8
  8
0
  6
CONTINUOUS
 62
     7
 10
109.74090700000001
 20
124.069912
 30
0.0
 11
113.240908
 21
126.0906379999999
 31
0.0
  0
LINE
  5
1C9
  8
0
  6
CONTINUOUS
 62
     7
 10
119.74122199999999
 20
134.460094
 30
0.0
 11
102.74122199999999
 21
134.460094
 31
0.0
  0
LINE
  5
1CA
  8
0
  6
CONTINUOUS
 62
     7
 10
119.74122199999999
 20
135.460093
 30
0.0
 11
119.74122199999999
 21
75.460093000000001
 31
0.0
  0
LINE
  5
1CB
  8
0
  6
CONTINUOUS
 62
     7
 10
103.74122199999999
 20
75.310092999999981
 30
0.0
 11
115.74122199999999
 21
75.310092999999981
 31
0.0
  0
LINE
  5
1CC
  8
0
  6
CONTINUOUS
 62
     7
 10
222.60801900000001
 20
32.284965999999997
 30
0.0
 11
222.60801900000001
 21
22.284967000000002
 31
0.0
  0
LINE
  5
1CD
  8
0
  6
CONTINUOUS
 62
     7
 10
154.60801799999999
 20
21.784967000000002
 30
0.0
 11
214.60801900000001
 21
21.784967000000002
 31
0.0
  0
LINE
  5
1CE
  8
0
  6
CONTINUOUS
 62
     7
 10
213.118019
 20
28.784967000000002
 30
0.0
 11
214.60801900000001
 21
28.784967000000002
 31
0.0
  0
LINE
  5
1CF
  8
0
  6
CONTINUOUS
 62
     7
 10
214.60801900000001
 20
38.784967000000002
 30
0.0
 11
214.60801900000001
 21
21.784967000000002
 31
0.0
  0
LINE
  5
1D0
  8
0
  6
CONTINUOUS
 62
     7
 10
154.60801799999999
 20
28.784967000000002
 30
0.0
 11
156.09801899999999
 21
28.784967000000002
 31
0.0
  0
LINE
  5
1D1
  8
0
  6
CONTINUOUS
 62
     7
 10
154.60801799999999
 20
38.784967000000002
 30
0.0
 11
154.60801799999999
 21
21.784967000000002
 31
0.0
  0
LINE
  5
1D2
  8
0
  6
CONTINUOUS
 62
     7
 10
155.60801799999999
 20
38.784967000000002
 30
0.0
 11
155.60801799999999
 21
21.784967000000002
 31
0.0
  0
LINE
  5
1D3
  8
0
  6
CONTINUOUS
 62
     7
 10
213.60802100000001
 20
38.784967000000002
 30
0.0
 11
213.60801900000001
 21
21.784967000000002
 31
0.0
  0
LINE
  5
1D4
  8
0
  6
CONTINUOUS
 62
     7
 10
154.60801900000001
 20
38.784967000000002
 30
0.0
 11
214.60801900000001
 21
38.784967000000002
 31
0.0
  0
LINE
  5
1D5
  8
0
  6
CONTINUOUS
 62
     7
 10
213.10801900000001
 20
22.784967000000002
 30
0.0
 11
213.10801900000001
 21
34.784967000000002
 31
0.0
  0
LINE
  5
1D6
  8
0
  6
CONTINUOUS
 62
     7
 10
156.10801900000001
 20
22.784967000000002
 30
0.0
 11
156.10801900000001
 21
34.784967000000002
 31
0.0
  0
LINE
  5
1D7
  8
0
  6
CONTINUOUS
 62
     7
 10
156.10801900000001
 20
28.784967000000002
 30
0.0
 11
213.10801900000001
 21
28.784967000000002
 31
0.0
  0
LINE
  5
1D8
  8
0
  6
CONTINUOUS
 62
     7
 10
222.60801900000001
 20
115.460093
 30
0.0
 11
222.60801900000001
 21
95.460094999999995
 31
0.0
  0
LINE
  5
1D9
  8
0
  6
CONTINUOUS
 62
     7
 10
207.60801699999999
 20
135.960094
 30
0.0
 11
181.60801900000001
 21
135.960094
 31
0.0
  0
ARC
  5
1DA
  8
0
  6
CONTINUOUS
 62
     7
 10
364.79994099999999
 20
134.06009399999999
 30
0.0
 40
4.0
 50
51.317813000000001
 51
128.682187
  0
ARC
  5
1DB
  8
0
  6
CONTINUOUS
 62
     7
 10
359.29994099999999
 20
134.06009399999999
 30
0.0
 40
4.0
 50
51.317813000000001
 51
128.682187
  0
ARC
  5
1DC
  8
0
  6
CONTINUOUS
 62
     7
 10
353.79994099999999
 20
134.06009399999999
 30
0.0
 40
4.0
 50
51.317813000000001
 51
128.682187
  0
ARC
  5
1DD
  8
0
  6
CONTINUOUS
 62
     7
 10
283.72481499999998
 20
134.06009399999999
 30
0.0
 40
4.0
 50
51.317813000000001
 51
128.682187
  0
ARC
  5
1DE
  8
0
  6
CONTINUOUS
 62
     7
 10
105.49122199999999
 20
134.06009399999999
 30
0.0
 40
4.0
 50
51.317813000000001
 51
128.682187
  0
ARC
  5
1DF
  8
0
  6
CONTINUOUS
 62
     7
 10
109.241221
 20
105.460094
 30
0.0
 40
4.0
 50
331.045005
 51
28.954995
  0
ARC
  5
1E0
  8
0
  6
CONTINUOUS
 62
     7
 10
188.60801900000001
 20
134.06009399999999
 30
0.0
 40
4.0
 50
51.317813000000001
 51
128.682187
  0
ARC
  5
1E1
  8
0
  6
CONTINUOUS
 62
     7
 10
199.6080189999999
 20
134.06009399999999
 30
0.0
 40
4.0
 50
51.317813000000001
 51
120.0
  0
TEXT
  5
2AB
  8
0
 62
     7
 10
52.308262049027803
 20
-22.536218247021051
 30
0.0
 40
4.5
  1
XEG60
  0
LINE
  5
2AC
  8
0
  6
DASHED
 62
     3
 10
283.97481699999997
 20
78.210093999999998
 30
0.0
 11
286.47481499999998
 21
78.210093999999998
 31
0.0
  0
LINE
  5
2AD
  8
0
  6
DASHED
 62
     3
 10
283.97481699999997
 20
76.460093999999998
 30
0.0
 11
283.97481699999997
 21
80.460093999999998
 31
0.0
  0
LINE
  5
2AE
  8
0
  6
DASHED
 62
     3
 10
286.47481499999998
 20
82.710093999999998
 30
0.0
 11
283.97481699999997
 21
82.710093999999998
 31
0.0
  0
LINE
  5
2AF
  8
0
  6
DASHED
 62
     3
 10
283.97481699999997
 20
80.460093999999998
 30
0.0
 11
283.97481699999997
 21
84.460093999999984
 31
0.0
  0
LINE
  5
2B0
  8
0
  6
DASHED
 62
     3
 10
283.97481699999997
 20
84.460093999999984
 30
0.0
 11
279.47481699999997
 21
84.460093999999984
 31
0.0
  0
LINE
  5
2B1
  8
0
  6
DASHED
 62
     3
 10
279.47481699999997
 20
126.460094
 30
0.0
 11
283.97481699999997
 21
126.460094
 31
0.0
  0
LINE
  5
2B2
  8
0
  6
DASHED
 62
     3
 10
283.97481699999997
 20
126.460094
 30
0.0
 11
283.97481699999997
 21
130.460094
 31
0.0
  0
LINE
  5
2B3
  8
0
  6
DASHED
 62
     3
 10
283.97481699999997
 20
128.210094
 30
0.0
 11
286.47481499999998
 21
128.210094
 31
0.0
  0
LINE
  5
2B4
  8
0
  6
DASHED
 62
     3
 10
283.97481699999997
 20
130.460094
 30
0.0
 11
283.97481699999997
 21
134.460094
 31
0.0
  0
LINE
  5
2B5
  8
0
  6
DASHED
 62
     3
 10
286.47481499999998
 20
132.710094
 30
0.0
 11
283.97481699999997
 21
132.710094
 31
0.0
  0
LINE
  5
2B8
  8
0
  6
DASHED
 62
     3
 10
157.35801799999999
 20
24.284965
 30
0.0
 11
157.35801799999999
 21
21.784967000000002
 31
0.0
  0
LINE
  5
2B9
  8
0
  6
DASHED
 62
     3
 10
155.60801799999999
 20
24.284965
 30
0.0
 11
163.60801799999999
 21
24.284965
 31
0.0
  0
LINE
  5
2BA
  8
0
  6
DASHED
 62
     3
 10
161.85801799999999
 20
21.784967000000002
 30
0.0
 11
161.85801799999999
 21
24.284965
 31
0.0
  0
LINE
  5
2BB
  8
0
  6
DASHED
 62
     3
 10
163.60801799999999
 20
24.284965
 30
0.0
 11
163.60801799999999
 21
28.78496500000001
 31
0.0
  0
LINE
  5
2BC
  8
0
  6
DASHED
 62
     3
 10
211.85801799999999
 20
21.784967000000002
 30
0.0
 11
211.85801799999999
 21
24.284965
 31
0.0
  0
LINE
  5
2BD
  8
0
  6
DASHED
 62
     3
 10
205.60801799999999
 20
24.284965
 30
0.0
 11
213.60801799999999
 21
24.284965
 31
0.0
  0
LINE
  5
2BE
  8
0
  6
DASHED
 62
     3
 10
207.35801799999999
 20
24.284965
 30
0.0
 11
207.35801799999999
 21
21.784967000000002
 31
0.0
  0
LINE
  5
2BF
  8
0
  6
DASHED
 62
     3
 10
205.60801799999999
 20
28.78496500000001
 30
0.0
 11
205.60801799999999
 21
24.284965
 31
0.0
  0
ENDSEC
  0
EOF
