  0
SECTION
  2
HEADER
  9
$ACADVER
  1
AC1009
  9
$INSBASE
 10
0.0
 20
0.0
 30
0.0
  9
$EXTMIN
 10
-85.451917616366245
 20
-75.447558385605362
 30
-0.0000000000000058
  9
$EXTMAX
 10
652.01870250636705
 20
58.527405622902499
 30
0.0000000000000104
  9
$LIMMIN
 10
0.0
 20
0.0
  9
$LIMMAX
 10
420.0
 20
297.0
  9
$ORTHOMODE
 70
     1
  9
$REGENMODE
 70
     1
  9
$FILLMODE
 70
     1
  9
$QTEXTMODE
 70
     0
  9
$MIRRTEXT
 70
     0
  9
$DRAGMODE
 70
     2
  9
$LTSCALE
 40
1.0
  9
$OSMODE
 70
   119
  9
$ATTMODE
 70
     1
  9
$TEXTSIZE
 40
3.0
  9
$TRACEWID
 40
1.0
  9
$TEXTSTYLE
  7
STANDARD
  9
$CLAYER
  8
0
  9
$CELTYPE
  6
CONTINUOUS
  9
$CECOLOR
 62
     7
  9
$DIMSCALE
 40
1.0
  9
$DIMASZ
 40
2.5
  9
$DIMEXO
 40
0.625
  9
$DIMDLI
 40
3.75
  9
$DIMRND
 40
0.0
  9
$DIMDLE
 40
0.0
  9
$DIMEXE
 40
1.25
  9
$DIMTP
 40
0.0
  9
$DIMTM
 40
0.0
  9
$DIMTXT
 40
2.5
  9
$DIMCEN
 40
2.5
  9
$DIMTSZ
 40
0.0
  9
$DIMTOL
 70
     0
  9
$DIMLIM
 70
     0
  9
$DIMTIH
 70
     0
  9
$DIMTOH
 70
     0
  9
$DIMSE1
 70
     0
  9
$DIMSE2
 70
     0
  9
$DIMTAD
 70
     1
  9
$DIMZIN
 70
     8
  9
$DIMBLK
  1
OPEN30
  9
$DIMASO
 70
     1
  9
$DIMSHO
 70
     1
  9
$DIMPOST
  1

  9
$DIMAPOST
  1

  9
$DIMALT
 70
     0
  9
$DIMALTD
 70
     3
  9
$DIMALTF
 40
0.03937007874016
  9
$DIMLFAC
 40
1.0
  9
$DIMTOFL
 70
     1
  9
$DIMTVP
 40
0.0
  9
$DIMTIX
 70
     0
  9
$DIMSOXD
 70
     0
  9
$DIMSAH
 70
     0
  9
$DIMBLK1
  1

  9
$DIMBLK2
  1

  9
$DIMSTYLE
  2
MISUMI
  9
$DIMCLRD
 70
   137
  9
$DIMCLRE
 70
   137
  9
$DIMCLRT
 70
   137
  9
$DIMTFAC
 40
1.0
  9
$DIMGAP
 40
0.625
  9
$LUNITS
 70
     2
  9
$LUPREC
 70
     2
  9
$SKETCHINC
 40
1.0
  9
$FILLETRAD
 40
0.0
  9
$AUNITS
 70
     0
  9
$AUPREC
 70
     0
  9
$MENU
  1
.
  9
$ELEVATION
 40
0.0
  9
$PELEVATION
 40
0.0
  9
$THICKNESS
 40
0.0
  9
$LIMCHECK
 70
     0
  9
$BLIPMODE
 70
     0
  9
$CHAMFERA
 40
0.5
  9
$CHAMFERB
 40
0.5
  9
$SKPOLY
 70
     0
  9
$TDCREATE
 40
2455135.5720697101
  9
$TDUPDATE
 40
2455517.6172987269
  9
$TDINDWG
 40
0.0446106944
  9
$TDUSRTIMER
 40
0.0446105093
  9
$USRTIMER
 70
     1
  9
$ANGBASE
 50
0.0
  9
$ANGDIR
 70
     0
  9
$PDMODE
 70
    35
  9
$PDSIZE
 40
0.0
  9
$PLINEWID
 40
0.0
  9
$COORDS
 70
     2
  9
$SPLFRAME
 70
     0
  9
$SPLINETYPE
 70
     6
  9
$SPLINESEGS
 70
     8
  9
$ATTDIA
 70
     0
  9
$ATTREQ
 70
     1
  9
$HANDLING
 70
 22529
  9
$HANDSEED
  5
107C
  9
$SURFTAB1
 70
     6
  9
$SURFTAB2
 70
     6
  9
$SURFTYPE
 70
     6
  9
$SURFU
 70
     6
  9
$SURFV
 70
     6
  9
$UCSNAME
  2

  9
$UCSORG
 10
0.0
 20
0.0
 30
0.0
  9
$UCSXDIR
 10
1.0
 20
0.0
 30
0.0
  9
$UCSYDIR
 10
0.0
 20
1.0
 30
0.0
  9
$PUCSNAME
  2

  9
$PUCSORG
 10
0.0
 20
0.0
 30
0.0
  9
$PUCSXDIR
 10
1.0
 20
0.0
 30
0.0
  9
$PUCSYDIR
 10
0.0
 20
1.0
 30
0.0
  9
$USERI1
 70
     0
  9
$USERI2
 70
     0
  9
$USERI3
 70
     0
  9
$USERI4
 70
     0
  9
$USERI5
 70
     0
  9
$USERR1
 40
0.0
  9
$USERR2
 40
0.0
  9
$USERR3
 40
0.0
  9
$USERR4
 40
0.0
  9
$USERR5
 40
0.0
  9
$WORLDVIEW
 70
     1
  9
$SHADEDGE
 70
     3
  9
$SHADEDIF
 70
    70
  9
$TILEMODE
 70
     1
  9
$MAXACTVP
 70
    64
  9
$PLIMCHECK
 70
     0
  9
$PEXTMIN
 10
0.0
 20
0.0
 30
0.0
  9
$PEXTMAX
 10
0.0
 20
0.0
 30
0.0
  9
$PLIMMIN
 10
0.0
 20
0.0
  9
$PLIMMAX
 10
12.0
 20
9.0
  9
$UNITMODE
 70
     0
  9
$VISRETAIN
 70
     1
  9
$PLINEGEN
 70
     0
  9
$PSLTSCALE
 70
     1
  0
ENDSEC
  0
SECTION
  2
TABLES
  0
TABLE
  2
VPORT
 70
     2
  0
VPORT
  2
*ACTIVE
 70
     0
 10
0.0
 20
0.0
 11
1.0
 21
1.0
 12
283.2833924450004
 22
-8.4600763813514277
 13
0.0
 23
0.0
 14
10.0
 24
10.0
 15
10.0
 25
10.0
 16
0.0
 26
0.0
 36
1.0
 17
0.0
 27
0.0
 37
0.0
 40
676.3386545978093
 41
1.0980645161290321
 42
50.0
 43
0.0
 44
0.0
 50
0.0
 51
0.0
 71
     0
 72
  1000
 73
     1
 74
     3
 75
     0
 76
     0
 77
     0
 78
     0
  0
ENDTAB
  0
TABLE
  2
LTYPE
 70
     4
  0
LTYPE
  2
CONTINUOUS
 70
     0
  3
Solid line
 72
    65
 73
     0
 40
0.0
  0
LTYPE
  2
CENTER
 70
     0
  3
Center ____ _ ____ _ ____ _ ____ _ ____ _ ____
 72
    65
 73
     4
 40
50.799999999999997
 49
31.75
 49
-6.3499999999999988
 49
6.3499999999999988
 49
-6.3499999999999988
  0
LTYPE
  2
DASHED
 70
     0
  3
Dashed __ __ __ __ __ __ __ __ __ __ __ __ __ _
 72
    65
 73
     2
 40
19.04999999999999
 49
12.699999999999999
 49
-6.3499999999999988
  0
ENDTAB
  0
TABLE
  2
LAYER
 70
     2
  0
LAYER
  2
0
 70
     0
 62
     7
  6
CONTINUOUS
  0
LAYER
  2
CENTER
 70
     0
 62
     1
  6
CENTER
  0
ENDTAB
  0
TABLE
  2
STYLE
 70
     1
  0
STYLE
  2
STANDARD
 70
     0
 40
3.0
 41
1.0
 50
0.0
 71
     0
 42
3.0
  3
txt.shx
  4
bigfont.shx
  0
ENDTAB
  0
TABLE
  2
VIEW
 70
     0
  0
ENDTAB
  0
TABLE
  2
UCS
 70
     0
  0
ENDTAB
  0
TABLE
  2
APPID
 70
     1
  0
APPID
  2
ACAD
 70
     0
  0
ENDTAB
  0
TABLE
  2
DIMSTYLE
 70
     1
  0
DIMSTYLE
  2
MISUMI
 70
     0
  3

  4

  5
OPEN30
  6

  7

 40
1.0
 41
2.5
 42
0.625
 43
3.75
 44
1.25
 45
0.0
 46
0.0
 47
0.0
 48
0.0
140
2.5
141
2.5
142
0.0
143
0.03937007874016
144
1.0
145
0.0
146
1.0
147
0.625
 71
     0
 72
     0
 73
     0
 74
     0
 75
     0
 76
     0
 77
     1
 78
     8
170
     0
171
     3
172
     1
173
     0
174
     0
175
     0
176
   137
177
   137
178
   137
  0
ENDTAB
  0
ENDSEC
  0
SECTION
  2
BLOCKS
  0
BLOCK
  8
0
  2
$MODEL_SPACE
 70
     0
 10
0.0
 20
0.0
 30
0.0
  3
$MODEL_SPACE
  1

  0
ENDBLK
  5
21
  8
0
  0
BLOCK
 67
     1
  8
0
  2
$PAPER_SPACE
 70
     0
 10
0.0
 20
0.0
 30
0.0
  3
$PAPER_SPACE
  1

  0
ENDBLK
  5
53
 67
     1
  8
0
  0
BLOCK
  8
0
 62
     7
  2
_OPEN30
 70
     0
 10
0.0
 20
0.0
 30
0.0
  3
_OPEN30
  1

  0
LINE
  5
D7
  8
0
  6
BYBLOCK
 62
     0
 10
-1.0
 20
0.26794919
 30
0.0
 11
0.0
 21
0.0
 31
0.0
  0
LINE
  5
D8
  8
0
  6
BYBLOCK
 62
     0
 10
0.0
 20
0.0
 30
0.0
 11
-1.0
 21
-0.26794919
 31
0.0
  0
LINE
  5
D9
  8
0
  6
BYBLOCK
 62
     0
 10
0.0
 20
0.0
 30
0.0
 11
-1.0
 21
0.0
 31
0.0
  0
ENDBLK
  5
DB
  8
0
 62
     7
  0
ENDSEC
  0
SECTION
  2
ENTITIES
  0
LINE
  5
F68
  8
0
  6
CONTINUOUS
 62
     7
 10
592.94852089455946
 20
56.5
 30
0.0
 11
595.05147910544849
 21
56.5
 31
0.0
  0
ARC
  5
F69
  8
0
  6
CONTINUOUS
 62
     7
 10
594.00000000000409
 20
-61.277482335025191
 30
0.0
 40
6.8783861846606067
 50
43.99251754967905
 51
136.00748245032091
  0
LINE
  5
F6A
  8
0
  6
CONTINUOUS
 62
     7
 10
592.94852089455946
 20
56.5
 30
0.0
 11
598.94852089455958
 21
-56.5
 31
0.0
  0
LINE
  5
F6B
  8
CENTER
  6
CENTER
 62
     1
 10
148.0
 20
0.0
 30
0.0
 11
652.0
 21
0.0
 31
0.0
  0
LINE
  5
F6C
  8
0
  6
DASHED
 62
     3
 10
650.0
 20
-51.5
 30
0.0
 11
150.0
 21
-51.5
 31
0.0
  0
LINE
  5
F6D
  8
0
  6
DASHED
 62
     3
 10
650.0
 20
51.5
 30
0.0
 11
150.0
 21
51.5
 31
0.0
  0
CIRCLE
  5
F6E
  8
0
  6
CONTINUOUS
 62
     7
 10
0.0
 20
0.0
 30
0.0
 40
51.5
  0
CIRCLE
  5
F6F
  8
0
  6
CONTINUOUS
 62
     7
 10
0.0
 20
0.0
 30
0.0
 40
56.5
  0
LINE
  5
F70
  8
CENTER
  6
CENTER
 62
     1
 10
58.5
 20
0.0
 30
0.0
 11
-58.5
 21
0.0
 31
0.0
  0
TEXT
  5
F71
  8
0
  6
CONTINUOUS
 62
     7
 10
-85.438300100548076
 20
-75.430059748647182
 30
0.0
 40
3.0
  1
HOSEE100
  0
TEXT
  5
F72
  8
0
  6
CONTINUOUS
 62
     7
 10
-85.438300100548076
 20
-70.430059748647182
 30
0.0
 40
3.0
  1
HOSEE100-0.5
  0
LINE
  5
F73
  8
CENTER
  6
CENTER
 62
     1
 10
0.0
 20
-58.5
 30
0.0
 11
0.0
 21
58.5
 31
0.0
  0
ARC
  5
F74
  8
0
  6
CONTINUOUS
 62
     7
 10
300.00000000000142
 20
61.277482335025411
 30
0.0
 40
6.8783861846608474
 50
223.99251754968131
 51
316.007482450314
  0
ARC
  5
F75
  8
0
  6
CONTINUOUS
 62
     7
 10
306.00000000000131
 20
-61.277482335025191
 30
0.0
 40
6.8783861846606067
 50
43.99251754967905
 51
136.00748245032091
  0
ARC
  5
F76
  8
0
  6
CONTINUOUS
 62
     7
 10
156.00000000000011
 20
61.277482335025411
 30
0.0
 40
6.8783861846608474
 50
223.99251754968131
 51
316.007482450314
  0
ARC
  5
F77
  8
0
  6
CONTINUOUS
 62
     7
 10
150.0
 20
-61.277482335025191
 30
0.0
 40
6.8783861846606067
 50
43.99251754967905
 51
90.0
  0
LINE
  5
F78
  8
0
  6
CONTINUOUS
 62
     7
 10
150.0
 20
36.6971435141283
 30
0.0
 11
154.9485208945554
 21
-56.5
 31
0.0
  0
LINE
  5
F79
  8
0
  6
CONTINUOUS
 62
     7
 10
151.05147910544451
 20
56.5
 30
0.0
 11
157.05147910544451
 21
-56.5
 31
0.0
  0
LINE
  5
F7A
  8
0
  6
CONTINUOUS
 62
     7
 10
150.0
 20
56.5
 30
0.0
 11
150.0
 21
-54.399096150364592
 31
0.0
  0
LINE
  5
F7B
  8
0
  6
CONTINUOUS
 62
     7
 10
150.0
 20
56.5
 30
0.0
 11
151.05147910544451
 21
56.5
 31
0.0
  0
LINE
  5
F7C
  8
0
  6
CONTINUOUS
 62
     7
 10
292.94852089455668
 20
56.5
 30
0.0
 11
298.94852089455668
 21
-56.5
 31
0.0
  0
LINE
  5
F7D
  8
0
  6
CONTINUOUS
 62
     7
 10
283.05147910544559
 20
56.5
 30
0.0
 11
289.05147910544559
 21
-56.5
 31
0.0
  0
LINE
  5
F7E
  8
0
  6
CONTINUOUS
 62
     7
 10
280.94852089455662
 20
56.5
 30
0.0
 11
286.94852089455662
 21
-56.5
 31
0.0
  0
LINE
  5
F7F
  8
0
  6
CONTINUOUS
 62
     7
 10
271.05147910544548
 20
56.5
 30
0.0
 11
277.05147910544548
 21
-56.5
 31
0.0
  0
LINE
  5
F80
  8
0
  6
CONTINUOUS
 62
     7
 10
268.94852089455651
 20
56.5
 30
0.0
 11
274.94852089455651
 21
-56.5
 31
0.0
  0
LINE
  5
F81
  8
0
  6
CONTINUOUS
 62
     7
 10
259.05147910544542
 20
56.5
 30
0.0
 11
265.05147910544542
 21
-56.5
 31
0.0
  0
LINE
  5
F82
  8
0
  6
CONTINUOUS
 62
     7
 10
256.9485208945564
 20
56.5
 30
0.0
 11
262.94852089455628
 21
-56.5
 31
0.0
  0
LINE
  5
F83
  8
0
  6
CONTINUOUS
 62
     7
 10
247.05147910544531
 20
56.5
 30
0.0
 11
253.05147910544531
 21
-56.5
 31
0.0
  0
LINE
  5
F84
  8
0
  6
CONTINUOUS
 62
     7
 10
244.9485208945562
 20
56.5
 30
0.0
 11
250.9485208945562
 21
-56.5
 31
0.0
  0
LINE
  5
F85
  8
0
  6
CONTINUOUS
 62
     7
 10
235.0514791054452
 20
56.5
 30
0.0
 11
241.0514791054452
 21
-56.5
 31
0.0
  0
LINE
  5
F86
  8
0
  6
CONTINUOUS
 62
     7
 10
232.94852089455611
 20
56.5
 30
0.0
 11
238.94852089455611
 21
-56.5
 31
0.0
  0
LINE
  5
F87
  8
0
  6
CONTINUOUS
 62
     7
 10
223.051479105445
 20
56.5
 30
0.0
 11
229.051479105445
 21
-56.5
 31
0.0
  0
LINE
  5
F88
  8
0
  6
CONTINUOUS
 62
     7
 10
220.948520894556
 20
56.5
 30
0.0
 11
226.948520894556
 21
-56.5
 31
0.0
  0
LINE
  5
F89
  8
0
  6
CONTINUOUS
 62
     7
 10
211.05147910544491
 20
56.5
 30
0.0
 11
217.05147910544491
 21
-56.5
 31
0.0
  0
LINE
  5
F8A
  8
0
  6
CONTINUOUS
 62
     7
 10
208.94852089455591
 20
56.5
 30
0.0
 11
214.94852089455591
 21
-56.5
 31
0.0
  0
LINE
  5
F8B
  8
0
  6
CONTINUOUS
 62
     7
 10
199.0514791054448
 20
56.5
 30
0.0
 11
205.0514791054448
 21
-56.5
 31
0.0
  0
LINE
  5
F8C
  8
0
  6
CONTINUOUS
 62
     7
 10
196.9485208945558
 20
56.5
 30
0.0
 11
202.9485208945558
 21
-56.5
 31
0.0
  0
LINE
  5
F8D
  8
0
  6
CONTINUOUS
 62
     7
 10
295.05147910544571
 20
56.5
 30
0.0
 11
301.05147910544571
 21
-56.5
 31
0.0
  0
LINE
  5
F8E
  8
0
  6
CONTINUOUS
 62
     7
 10
184.94852089455571
 20
56.5
 30
0.0
 11
190.94852089455571
 21
-56.5
 31
0.0
  0
LINE
  5
F8F
  8
0
  6
CONTINUOUS
 62
     7
 10
175.0514791054446
 20
56.5
 30
0.0
 11
181.0514791054446
 21
-56.5
 31
0.0
  0
LINE
  5
F90
  8
0
  6
CONTINUOUS
 62
     7
 10
172.9485208945556
 20
56.5
 30
0.0
 11
178.94852089455549
 21
-56.5
 31
0.0
  0
LINE
  5
F91
  8
0
  6
CONTINUOUS
 62
     7
 10
160.9485208945554
 20
56.5
 30
0.0
 11
166.9485208945554
 21
-56.5
 31
0.0
  0
LINE
  5
F92
  8
0
  6
CONTINUOUS
 62
     7
 10
163.05147910544451
 20
56.5
 30
0.0
 11
169.05147910544451
 21
-56.5
 31
0.0
  0
LINE
  5
F93
  8
0
  6
CONTINUOUS
 62
     7
 10
187.05147910544471
 20
56.5
 30
0.0
 11
193.05147910544471
 21
-56.5
 31
0.0
  0
LINE
  5
F94
  8
0
  6
CONTINUOUS
 62
     7
 10
226.948520894556
 20
-56.5
 30
0.0
 11
229.051479105445
 21
-56.5
 31
0.0
  0
ARC
  5
F95
  8
0
  6
CONTINUOUS
 62
     7
 10
186.0000000000002
 20
-61.277482335025191
 30
0.0
 40
6.8783861846606067
 50
43.99251754967905
 51
136.00748245032091
  0
LINE
  5
F96
  8
0
  6
CONTINUOUS
 62
     7
 10
178.94852089455549
 20
-56.5
 30
0.0
 11
181.0514791054446
 21
-56.5
 31
0.0
  0
ARC
  5
F97
  8
0
  6
CONTINUOUS
 62
     7
 10
174.00000000000011
 20
-61.277482335025191
 30
0.0
 40
6.8783861846606067
 50
43.99251754967905
 51
136.00748245032091
  0
LINE
  5
F98
  8
0
  6
CONTINUOUS
 62
     7
 10
154.9485208945554
 20
-56.5
 30
0.0
 11
157.05147910544451
 21
-56.5
 31
0.0
  0
ARC
  5
F99
  8
0
  6
CONTINUOUS
 62
     7
 10
162.0
 20
-61.277482335025191
 30
0.0
 40
6.8783861846606067
 50
43.99251754967905
 51
136.00748245032091
  0
LINE
  5
F9A
  8
0
  6
CONTINUOUS
 62
     7
 10
166.9485208945554
 20
-56.5
 30
0.0
 11
169.05147910544451
 21
-56.5
 31
0.0
  0
LINE
  5
F9B
  8
0
  6
CONTINUOUS
 62
     7
 10
214.94852089455591
 20
-56.5
 30
0.0
 11
217.05147910544491
 21
-56.5
 31
0.0
  0
ARC
  5
F9C
  8
0
  6
CONTINUOUS
 62
     7
 10
222.00000000000051
 20
-61.277482335025191
 30
0.0
 40
6.8783861846606067
 50
43.99251754967905
 51
136.00748245032091
  0
LINE
  5
F9D
  8
0
  6
CONTINUOUS
 62
     7
 10
202.9485208945558
 20
-56.5
 30
0.0
 11
205.0514791054448
 21
-56.5
 31
0.0
  0
ARC
  5
F9E
  8
0
  6
CONTINUOUS
 62
     7
 10
198.00000000000031
 20
-61.277482335025191
 30
0.0
 40
6.8783861846606067
 50
43.99251754967905
 51
136.00748245032091
  0
LINE
  5
F9F
  8
0
  6
CONTINUOUS
 62
     7
 10
190.94852089455571
 20
-56.5
 30
0.0
 11
193.05147910544471
 21
-56.5
 31
0.0
  0
ARC
  5
FA0
  8
0
  6
CONTINUOUS
 62
     7
 10
210.0000000000004
 20
-61.277482335025191
 30
0.0
 40
6.8783861846606067
 50
43.99251754967905
 51
136.00748245032091
  0
LINE
  5
FA1
  8
0
  6
CONTINUOUS
 62
     7
 10
262.94852089455628
 20
-56.5
 30
0.0
 11
265.05147910544542
 21
-56.5
 31
0.0
  0
LINE
  5
FA2
  8
0
  6
CONTINUOUS
 62
     7
 10
250.9485208945562
 20
-56.5
 30
0.0
 11
253.05147910544531
 21
-56.5
 31
0.0
  0
LINE
  5
FA3
  8
0
  6
CONTINUOUS
 62
     7
 10
238.94852089455611
 20
-56.5
 30
0.0
 11
241.0514791054452
 21
-56.5
 31
0.0
  0
ARC
  5
FA4
  8
0
  6
CONTINUOUS
 62
     7
 10
234.0000000000006
 20
-61.277482335025191
 30
0.0
 40
6.8783861846606067
 50
43.99251754967905
 51
136.00748245032091
  0
ARC
  5
FA5
  8
0
  6
CONTINUOUS
 62
     7
 10
246.00000000000071
 20
-61.277482335025191
 30
0.0
 40
6.8783861846606067
 50
43.99251754967905
 51
136.00748245032091
  0
ARC
  5
FA6
  8
0
  6
CONTINUOUS
 62
     7
 10
258.0000000000008
 20
-61.277482335025191
 30
0.0
 40
6.8783861846606067
 50
43.99251754967905
 51
136.00748245032091
  0
ARC
  5
FA7
  8
0
  6
CONTINUOUS
 62
     7
 10
294.00000000000119
 20
-61.277482335025191
 30
0.0
 40
6.8783861846606067
 50
43.99251754967905
 51
136.00748245032091
  0
LINE
  5
FA8
  8
0
  6
CONTINUOUS
 62
     7
 10
286.94852089455662
 20
-56.5
 30
0.0
 11
289.05147910544559
 21
-56.5
 31
0.0
  0
ARC
  5
FA9
  8
0
  6
CONTINUOUS
 62
     7
 10
282.00000000000108
 20
-61.277482335025191
 30
0.0
 40
6.8783861846606067
 50
43.99251754967905
 51
136.00748245032091
  0
LINE
  5
FAA
  8
0
  6
CONTINUOUS
 62
     7
 10
274.94852089455651
 20
-56.5
 30
0.0
 11
277.05147910544548
 21
-56.5
 31
0.0
  0
ARC
  5
FAB
  8
0
  6
CONTINUOUS
 62
     7
 10
270.00000000000102
 20
-61.277482335025191
 30
0.0
 40
6.8783861846606067
 50
43.99251754967905
 51
136.00748245032091
  0
LINE
  5
FAC
  8
0
  6
CONTINUOUS
 62
     7
 10
298.94852089455668
 20
-56.5
 30
0.0
 11
301.05147910544571
 21
-56.5
 31
0.0
  0
ARC
  5
FAD
  8
0
  6
CONTINUOUS
 62
     7
 10
228.00000000000071
 20
61.277482335025411
 30
0.0
 40
6.8783861846608474
 50
223.99251754968131
 51
316.007482450314
  0
ARC
  5
FAE
  8
0
  6
CONTINUOUS
 62
     7
 10
192.0000000000004
 20
61.277482335025411
 30
0.0
 40
6.8783861846608474
 50
223.99251754968131
 51
316.007482450314
  0
LINE
  5
FAF
  8
0
  6
CONTINUOUS
 62
     7
 10
184.94852089455571
 20
56.5
 30
0.0
 11
187.05147910544471
 21
56.5
 31
0.0
  0
ARC
  5
FB0
  8
0
  6
CONTINUOUS
 62
     7
 10
180.00000000000031
 20
61.277482335025411
 30
0.0
 40
6.8783861846608474
 50
223.99251754968131
 51
316.007482450314
  0
LINE
  5
FB1
  8
0
  6
CONTINUOUS
 62
     7
 10
172.9485208945556
 20
56.5
 30
0.0
 11
175.0514791054446
 21
56.5
 31
0.0
  0
LINE
  5
FB2
  8
0
  6
CONTINUOUS
 62
     7
 10
160.9485208945554
 20
56.5
 30
0.0
 11
163.05147910544451
 21
56.5
 31
0.0
  0
ARC
  5
FB3
  8
0
  6
CONTINUOUS
 62
     7
 10
168.0000000000002
 20
61.277482335025411
 30
0.0
 40
6.8783861846608474
 50
223.99251754968131
 51
316.007482450314
  0
LINE
  5
FB4
  8
0
  6
CONTINUOUS
 62
     7
 10
220.948520894556
 20
56.5
 30
0.0
 11
223.051479105445
 21
56.5
 31
0.0
  0
LINE
  5
FB5
  8
0
  6
CONTINUOUS
 62
     7
 10
208.94852089455591
 20
56.5
 30
0.0
 11
211.05147910544491
 21
56.5
 31
0.0
  0
ARC
  5
FB6
  8
0
  6
CONTINUOUS
 62
     7
 10
204.00000000000051
 20
61.277482335025411
 30
0.0
 40
6.8783861846608474
 50
223.99251754968131
 51
316.007482450314
  0
LINE
  5
FB7
  8
0
  6
CONTINUOUS
 62
     7
 10
196.9485208945558
 20
56.5
 30
0.0
 11
199.0514791054448
 21
56.5
 31
0.0
  0
ARC
  5
FB8
  8
0
  6
CONTINUOUS
 62
     7
 10
216.0000000000006
 20
61.277482335025411
 30
0.0
 40
6.8783861846608474
 50
223.99251754968131
 51
316.007482450314
  0
ARC
  5
FB9
  8
0
  6
CONTINUOUS
 62
     7
 10
264.00000000000108
 20
61.277482335025411
 30
0.0
 40
6.8783861846608474
 50
223.99251754968131
 51
316.007482450314
  0
LINE
  5
FBA
  8
0
  6
CONTINUOUS
 62
     7
 10
256.9485208945564
 20
56.5
 30
0.0
 11
259.05147910544542
 21
56.5
 31
0.0
  0
ARC
  5
FBB
  8
0
  6
CONTINUOUS
 62
     7
 10
240.00000000000091
 20
61.277482335025411
 30
0.0
 40
6.8783861846608474
 50
223.99251754968131
 51
316.007482450314
  0
LINE
  5
FBC
  8
0
  6
CONTINUOUS
 62
     7
 10
232.94852089455611
 20
56.5
 30
0.0
 11
235.0514791054452
 21
56.5
 31
0.0
  0
LINE
  5
FBD
  8
0
  6
CONTINUOUS
 62
     7
 10
244.9485208945562
 20
56.5
 30
0.0
 11
247.05147910544531
 21
56.5
 31
0.0
  0
ARC
  5
FBE
  8
0
  6
CONTINUOUS
 62
     7
 10
252.00000000000099
 20
61.277482335025411
 30
0.0
 40
6.8783861846608474
 50
223.99251754968131
 51
316.007482450314
  0
LINE
  5
FBF
  8
0
  6
CONTINUOUS
 62
     7
 10
292.94852089455668
 20
56.5
 30
0.0
 11
295.05147910544571
 21
56.5
 31
0.0
  0
ARC
  5
FC0
  8
0
  6
CONTINUOUS
 62
     7
 10
288.00000000000131
 20
61.277482335025411
 30
0.0
 40
6.8783861846608474
 50
223.99251754968131
 51
316.007482450314
  0
LINE
  5
FC1
  8
0
  6
CONTINUOUS
 62
     7
 10
280.94852089455662
 20
56.5
 30
0.0
 11
283.05147910544559
 21
56.5
 31
0.0
  0
LINE
  5
FC2
  8
0
  6
CONTINUOUS
 62
     7
 10
268.94852089455651
 20
56.5
 30
0.0
 11
271.05147910544548
 21
56.5
 31
0.0
  0
ARC
  5
FC3
  8
0
  6
CONTINUOUS
 62
     7
 10
276.00000000000119
 20
61.277482335025411
 30
0.0
 40
6.8783861846608474
 50
223.99251754968131
 51
316.007482450314
  0
ARC
  5
FC4
  8
0
  6
CONTINUOUS
 62
     7
 10
444.00000000000279
 20
61.277482335025411
 30
0.0
 40
6.8783861846608474
 50
223.99251754968131
 51
316.007482450314
  0
ARC
  5
FC5
  8
0
  6
CONTINUOUS
 62
     7
 10
450.00000000000267
 20
-61.277482335025191
 30
0.0
 40
6.8783861846606067
 50
43.99251754967905
 51
136.00748245032091
  0
LINE
  5
FC6
  8
0
  6
CONTINUOUS
 62
     7
 10
439.05147910544707
 20
56.5
 30
0.0
 11
445.05147910544707
 21
-56.5
 31
0.0
  0
LINE
  5
FC7
  8
0
  6
CONTINUOUS
 62
     7
 10
436.94852089455799
 20
56.5
 30
0.0
 11
442.9485208945581
 21
-56.5
 31
0.0
  0
LINE
  5
FC8
  8
0
  6
CONTINUOUS
 62
     7
 10
427.05147910544702
 20
56.5
 30
0.0
 11
433.0514791054469
 21
-56.5
 31
0.0
  0
LINE
  5
FC9
  8
0
  6
CONTINUOUS
 62
     7
 10
424.94852089455787
 20
56.5
 30
0.0
 11
430.94852089455799
 21
-56.5
 31
0.0
  0
LINE
  5
FCA
  8
0
  6
CONTINUOUS
 62
     7
 10
415.0514791054469
 20
56.5
 30
0.0
 11
421.05147910544679
 21
-56.5
 31
0.0
  0
LINE
  5
FCB
  8
0
  6
CONTINUOUS
 62
     7
 10
412.94852089455782
 20
56.5
 30
0.0
 11
418.94852089455782
 21
-56.5
 31
0.0
  0
LINE
  5
FCC
  8
0
  6
CONTINUOUS
 62
     7
 10
400.9485208945577
 20
56.5
 30
0.0
 11
406.9485208945577
 21
-56.5
 31
0.0
  0
LINE
  5
FCD
  8
0
  6
CONTINUOUS
 62
     7
 10
391.05147910544662
 20
56.5
 30
0.0
 11
397.05147910544662
 21
-56.5
 31
0.0
  0
LINE
  5
FCE
  8
0
  6
CONTINUOUS
 62
     7
 10
388.94852089455759
 20
56.5
 30
0.0
 11
394.94852089455759
 21
-56.5
 31
0.0
  0
LINE
  5
FCF
  8
0
  6
CONTINUOUS
 62
     7
 10
379.0514791054465
 20
56.5
 30
0.0
 11
385.0514791054465
 21
-56.5
 31
0.0
  0
LINE
  5
FD0
  8
0
  6
CONTINUOUS
 62
     7
 10
376.94852089455748
 20
56.5
 30
0.0
 11
382.94852089455748
 21
-56.5
 31
0.0
  0
LINE
  5
FD1
  8
0
  6
CONTINUOUS
 62
     7
 10
367.05147910544639
 20
56.5
 30
0.0
 11
373.05147910544639
 21
-56.5
 31
0.0
  0
LINE
  5
FD2
  8
0
  6
CONTINUOUS
 62
     7
 10
364.94852089455742
 20
56.5
 30
0.0
 11
370.94852089455742
 21
-56.5
 31
0.0
  0
LINE
  5
FD3
  8
0
  6
CONTINUOUS
 62
     7
 10
355.05147910544628
 20
56.5
 30
0.0
 11
361.05147910544628
 21
-56.5
 31
0.0
  0
LINE
  5
FD4
  8
0
  6
CONTINUOUS
 62
     7
 10
352.9485208945573
 20
56.5
 30
0.0
 11
358.9485208945573
 21
-56.5
 31
0.0
  0
LINE
  5
FD5
  8
0
  6
CONTINUOUS
 62
     7
 10
403.05147910544679
 20
56.5
 30
0.0
 11
409.05147910544667
 21
-56.5
 31
0.0
  0
LINE
  5
FD6
  8
0
  6
CONTINUOUS
 62
     7
 10
331.05147910544611
 20
56.5
 30
0.0
 11
337.05147910544611
 21
-56.5
 31
0.0
  0
LINE
  5
FD7
  8
0
  6
CONTINUOUS
 62
     7
 10
328.94852089455708
 20
56.5
 30
0.0
 11
334.94852089455702
 21
-56.5
 31
0.0
  0
LINE
  5
FD8
  8
0
  6
CONTINUOUS
 62
     7
 10
319.05147910544599
 20
56.5
 30
0.0
 11
325.05147910544599
 21
-56.5
 31
0.0
  0
LINE
  5
FD9
  8
0
  6
CONTINUOUS
 62
     7
 10
316.94852089455691
 20
56.5
 30
0.0
 11
322.94852089455691
 21
-56.5
 31
0.0
  0
LINE
  5
FDA
  8
0
  6
CONTINUOUS
 62
     7
 10
307.05147910544588
 20
56.5
 30
0.0
 11
313.05147910544588
 21
-56.5
 31
0.0
  0
LINE
  5
FDB
  8
0
  6
CONTINUOUS
 62
     7
 10
304.94852089455679
 20
56.5
 30
0.0
 11
310.94852089455679
 21
-56.5
 31
0.0
  0
LINE
  5
FDC
  8
0
  6
CONTINUOUS
 62
     7
 10
343.05147910544622
 20
56.5
 30
0.0
 11
349.05147910544622
 21
-56.5
 31
0.0
  0
LINE
  5
FDD
  8
0
  6
CONTINUOUS
 62
     7
 10
340.94852089455719
 20
56.5
 30
0.0
 11
346.94852089455719
 21
-56.5
 31
0.0
  0
ARC
  5
FDE
  8
0
  6
CONTINUOUS
 62
     7
 10
378.00000000000199
 20
-61.277482335025191
 30
0.0
 40
6.8783861846606067
 50
43.99251754967905
 51
136.00748245032091
  0
ARC
  5
FDF
  8
0
  6
CONTINUOUS
 62
     7
 10
342.00000000000171
 20
-61.277482335025191
 30
0.0
 40
6.8783861846606067
 50
43.99251754967905
 51
136.00748245032091
  0
LINE
  5
FE0
  8
0
  6
CONTINUOUS
 62
     7
 10
334.94852089455702
 20
-56.5
 30
0.0
 11
337.05147910544611
 21
-56.5
 31
0.0
  0
LINE
  5
FE1
  8
0
  6
CONTINUOUS
 62
     7
 10
322.94852089455691
 20
-56.5
 30
0.0
 11
325.05147910544599
 21
-56.5
 31
0.0
  0
ARC
  5
FE2
  8
0
  6
CONTINUOUS
 62
     7
 10
318.00000000000142
 20
-61.277482335025191
 30
0.0
 40
6.8783861846606067
 50
43.99251754967905
 51
136.00748245032091
  0
LINE
  5
FE3
  8
0
  6
CONTINUOUS
 62
     7
 10
310.94852089455679
 20
-56.5
 30
0.0
 11
313.05147910544588
 21
-56.5
 31
0.0
  0
ARC
  5
FE4
  8
0
  6
CONTINUOUS
 62
     7
 10
330.00000000000148
 20
-61.277482335025191
 30
0.0
 40
6.8783861846606067
 50
43.99251754967905
 51
136.00748245032091
  0
LINE
  5
FE5
  8
0
  6
CONTINUOUS
 62
     7
 10
370.94852089455742
 20
-56.5
 30
0.0
 11
373.05147910544639
 21
-56.5
 31
0.0
  0
ARC
  5
FE6
  8
0
  6
CONTINUOUS
 62
     7
 10
366.00000000000188
 20
-61.277482335025191
 30
0.0
 40
6.8783861846606067
 50
43.99251754967905
 51
136.00748245032091
  0
LINE
  5
FE7
  8
0
  6
CONTINUOUS
 62
     7
 10
358.9485208945573
 20
-56.5
 30
0.0
 11
361.05147910544628
 21
-56.5
 31
0.0
  0
LINE
  5
FE8
  8
0
  6
CONTINUOUS
 62
     7
 10
346.94852089455719
 20
-56.5
 30
0.0
 11
349.05147910544622
 21
-56.5
 31
0.0
  0
ARC
  5
FE9
  8
0
  6
CONTINUOUS
 62
     7
 10
354.00000000000182
 20
-61.277482335025191
 30
0.0
 40
6.8783861846606067
 50
43.99251754967905
 51
136.00748245032091
  0
ARC
  5
FEA
  8
0
  6
CONTINUOUS
 62
     7
 10
414.00000000000227
 20
-61.277482335025191
 30
0.0
 40
6.8783861846606067
 50
43.99251754967905
 51
136.00748245032091
  0
ARC
  5
FEB
  8
0
  6
CONTINUOUS
 62
     7
 10
402.00000000000222
 20
-61.277482335025191
 30
0.0
 40
6.8783861846606067
 50
43.99251754967905
 51
136.00748245032091
  0
LINE
  5
FEC
  8
0
  6
CONTINUOUS
 62
     7
 10
394.94852089455759
 20
-56.5
 30
0.0
 11
397.05147910544662
 21
-56.5
 31
0.0
  0
LINE
  5
FED
  8
0
  6
CONTINUOUS
 62
     7
 10
406.9485208945577
 20
-56.5
 30
0.0
 11
409.05147910544667
 21
-56.5
 31
0.0
  0
LINE
  5
FEE
  8
0
  6
CONTINUOUS
 62
     7
 10
382.94852089455748
 20
-56.5
 30
0.0
 11
385.0514791054465
 21
-56.5
 31
0.0
  0
ARC
  5
FEF
  8
0
  6
CONTINUOUS
 62
     7
 10
390.0000000000021
 20
-61.277482335025191
 30
0.0
 40
6.8783861846606067
 50
43.99251754967905
 51
136.00748245032091
  0
LINE
  5
FF0
  8
0
  6
CONTINUOUS
 62
     7
 10
442.9485208945581
 20
-56.5
 30
0.0
 11
445.05147910544707
 21
-56.5
 31
0.0
  0
ARC
  5
FF1
  8
0
  6
CONTINUOUS
 62
     7
 10
438.00000000000261
 20
-61.277482335025191
 30
0.0
 40
6.8783861846606067
 50
43.99251754967905
 51
136.00748245032091
  0
ARC
  5
FF2
  8
0
  6
CONTINUOUS
 62
     7
 10
426.00000000000239
 20
-61.277482335025191
 30
0.0
 40
6.8783861846606067
 50
43.99251754967905
 51
136.00748245032091
  0
LINE
  5
FF3
  8
0
  6
CONTINUOUS
 62
     7
 10
418.94852089455782
 20
-56.5
 30
0.0
 11
421.05147910544679
 21
-56.5
 31
0.0
  0
LINE
  5
FF4
  8
0
  6
CONTINUOUS
 62
     7
 10
430.94852089455799
 20
-56.5
 30
0.0
 11
433.0514791054469
 21
-56.5
 31
0.0
  0
ARC
  5
FF5
  8
0
  6
CONTINUOUS
 62
     7
 10
372.0000000000021
 20
61.277482335025411
 30
0.0
 40
6.8783861846608474
 50
223.99251754968131
 51
316.007482450314
  0
ARC
  5
FF6
  8
0
  6
CONTINUOUS
 62
     7
 10
336.00000000000182
 20
61.277482335025411
 30
0.0
 40
6.8783861846608474
 50
223.99251754968131
 51
316.007482450314
  0
LINE
  5
FF7
  8
0
  6
CONTINUOUS
 62
     7
 10
328.94852089455708
 20
56.5
 30
0.0
 11
331.05147910544611
 21
56.5
 31
0.0
  0
LINE
  5
FF8
  8
0
  6
CONTINUOUS
 62
     7
 10
316.94852089455691
 20
56.5
 30
0.0
 11
319.05147910544599
 21
56.5
 31
0.0
  0
ARC
  5
FF9
  8
0
  6
CONTINUOUS
 62
     7
 10
312.00000000000159
 20
61.277482335025411
 30
0.0
 40
6.8783861846608474
 50
223.99251754968131
 51
316.007482450314
  0
LINE
  5
FFA
  8
0
  6
CONTINUOUS
 62
     7
 10
304.94852089455679
 20
56.5
 30
0.0
 11
307.05147910544588
 21
56.5
 31
0.0
  0
ARC
  5
FFB
  8
0
  6
CONTINUOUS
 62
     7
 10
324.00000000000171
 20
61.277482335025411
 30
0.0
 40
6.8783861846608474
 50
223.99251754968131
 51
316.007482450314
  0
LINE
  5
FFC
  8
0
  6
CONTINUOUS
 62
     7
 10
364.94852089455742
 20
56.5
 30
0.0
 11
367.05147910544639
 21
56.5
 31
0.0
  0
ARC
  5
FFD
  8
0
  6
CONTINUOUS
 62
     7
 10
360.00000000000199
 20
61.277482335025411
 30
0.0
 40
6.8783861846608474
 50
223.99251754968131
 51
316.007482450314
  0
LINE
  5
FFE
  8
0
  6
CONTINUOUS
 62
     7
 10
352.9485208945573
 20
56.5
 30
0.0
 11
355.05147910544628
 21
56.5
 31
0.0
  0
LINE
  5
FFF
  8
0
  6
CONTINUOUS
 62
     7
 10
340.94852089455719
 20
56.5
 30
0.0
 11
343.05147910544622
 21
56.5
 31
0.0
  0
ARC
  5
1000
  8
0
  6
CONTINUOUS
 62
     7
 10
348.00000000000188
 20
61.277482335025411
 30
0.0
 40
6.8783861846608474
 50
223.99251754968131
 51
316.007482450314
  0
ARC
  5
1001
  8
0
  6
CONTINUOUS
 62
     7
 10
408.00000000000239
 20
61.277482335025411
 30
0.0
 40
6.8783861846608474
 50
223.99251754968131
 51
316.007482450314
  0
LINE
  5
1002
  8
0
  6
CONTINUOUS
 62
     7
 10
400.9485208945577
 20
56.5
 30
0.0
 11
403.05147910544679
 21
56.5
 31
0.0
  0
ARC
  5
1003
  8
0
  6
CONTINUOUS
 62
     7
 10
396.00000000000227
 20
61.277482335025411
 30
0.0
 40
6.8783861846608474
 50
223.99251754968131
 51
316.007482450314
  0
LINE
  5
1004
  8
0
  6
CONTINUOUS
 62
     7
 10
388.94852089455759
 20
56.5
 30
0.0
 11
391.05147910544662
 21
56.5
 31
0.0
  0
LINE
  5
1005
  8
0
  6
CONTINUOUS
 62
     7
 10
376.94852089455748
 20
56.5
 30
0.0
 11
379.0514791054465
 21
56.5
 31
0.0
  0
ARC
  5
1006
  8
0
  6
CONTINUOUS
 62
     7
 10
384.00000000000222
 20
61.277482335025411
 30
0.0
 40
6.8783861846608474
 50
223.99251754968131
 51
316.007482450314
  0
LINE
  5
1007
  8
0
  6
CONTINUOUS
 62
     7
 10
436.94852089455799
 20
56.5
 30
0.0
 11
439.05147910544707
 21
56.5
 31
0.0
  0
LINE
  5
1008
  8
0
  6
CONTINUOUS
 62
     7
 10
424.94852089455787
 20
56.5
 30
0.0
 11
427.05147910544702
 21
56.5
 31
0.0
  0
ARC
  5
1009
  8
0
  6
CONTINUOUS
 62
     7
 10
420.0000000000025
 20
61.277482335025411
 30
0.0
 40
6.8783861846608474
 50
223.99251754968131
 51
316.007482450314
  0
LINE
  5
100A
  8
0
  6
CONTINUOUS
 62
     7
 10
412.94852089455782
 20
56.5
 30
0.0
 11
415.0514791054469
 21
56.5
 31
0.0
  0
ARC
  5
100B
  8
0
  6
CONTINUOUS
 62
     7
 10
432.00000000000267
 20
61.277482335025411
 30
0.0
 40
6.8783861846608474
 50
223.99251754968131
 51
316.007482450314
  0
LINE
  5
100C
  8
0
  6
CONTINUOUS
 62
     7
 10
583.05147910544849
 20
56.5
 30
0.0
 11
589.05147910544838
 21
-56.5
 31
0.0
  0
LINE
  5
100D
  8
0
  6
CONTINUOUS
 62
     7
 10
580.94852089455935
 20
56.5
 30
0.0
 11
586.94852089455946
 21
-56.5
 31
0.0
  0
LINE
  5
100E
  8
0
  6
CONTINUOUS
 62
     7
 10
571.05147910544838
 20
56.5
 30
0.0
 11
577.05147910544827
 21
-56.5
 31
0.0
  0
LINE
  5
100F
  8
0
  6
CONTINUOUS
 62
     7
 10
568.94852089455935
 20
56.5
 30
0.0
 11
574.94852089455935
 21
-56.5
 31
0.0
  0
LINE
  5
1010
  8
0
  6
CONTINUOUS
 62
     7
 10
559.05147910544827
 20
56.5
 30
0.0
 11
565.05147910544815
 21
-56.5
 31
0.0
  0
LINE
  5
1011
  8
0
  6
CONTINUOUS
 62
     7
 10
556.94852089455924
 20
56.5
 30
0.0
 11
562.94852089455924
 21
-56.5
 31
0.0
  0
LINE
  5
1012
  8
0
  6
CONTINUOUS
 62
     7
 10
547.05147910544815
 20
56.5
 30
0.0
 11
553.05147910544815
 21
-56.5
 31
0.0
  0
LINE
  5
1013
  8
0
  6
CONTINUOUS
 62
     7
 10
544.94852089455912
 20
56.5
 30
0.0
 11
550.94852089455912
 21
-56.5
 31
0.0
  0
LINE
  5
1014
  8
0
  6
CONTINUOUS
 62
     7
 10
535.05147910544804
 20
56.5
 30
0.0
 11
541.05147910544804
 21
-56.5
 31
0.0
  0
LINE
  5
1015
  8
0
  6
CONTINUOUS
 62
     7
 10
532.94852089455901
 20
56.5
 30
0.0
 11
538.94852089455901
 21
-56.5
 31
0.0
  0
LINE
  5
1016
  8
0
  6
CONTINUOUS
 62
     7
 10
523.05147910544792
 20
56.5
 30
0.0
 11
529.05147910544792
 21
-56.5
 31
0.0
  0
LINE
  5
1017
  8
0
  6
CONTINUOUS
 62
     7
 10
520.94852089455878
 20
56.5
 30
0.0
 11
526.9485208945589
 21
-56.5
 31
0.0
  0
LINE
  5
1018
  8
0
  6
CONTINUOUS
 62
     7
 10
508.94852089455873
 20
56.5
 30
0.0
 11
514.94852089455878
 21
-56.5
 31
0.0
  0
LINE
  5
1019
  8
0
  6
CONTINUOUS
 62
     7
 10
499.0514791054477
 20
56.5
 30
0.0
 11
505.05147910544758
 21
-56.5
 31
0.0
  0
LINE
  5
101A
  8
0
  6
CONTINUOUS
 62
     7
 10
496.94852089455861
 20
56.5
 30
0.0
 11
502.94852089455861
 21
-56.5
 31
0.0
  0
LINE
  5
101B
  8
0
  6
CONTINUOUS
 62
     7
 10
487.05147910544758
 20
56.5
 30
0.0
 11
493.05147910544753
 21
-56.5
 31
0.0
  0
LINE
  5
101C
  8
0
  6
CONTINUOUS
 62
     7
 10
484.9485208945585
 20
56.5
 30
0.0
 11
490.9485208945585
 21
-56.5
 31
0.0
  0
LINE
  5
101D
  8
0
  6
CONTINUOUS
 62
     7
 10
475.05147910544753
 20
56.5
 30
0.0
 11
481.05147910544741
 21
-56.5
 31
0.0
  0
LINE
  5
101E
  8
0
  6
CONTINUOUS
 62
     7
 10
472.94852089455838
 20
56.5
 30
0.0
 11
478.94852089455838
 21
-56.5
 31
0.0
  0
LINE
  5
101F
  8
0
  6
CONTINUOUS
 62
     7
 10
463.0514791054473
 20
56.5
 30
0.0
 11
469.0514791054473
 21
-56.5
 31
0.0
  0
LINE
  5
1020
  8
0
  6
CONTINUOUS
 62
     7
 10
460.94852089455833
 20
56.5
 30
0.0
 11
466.94852089455833
 21
-56.5
 31
0.0
  0
LINE
  5
1021
  8
0
  6
CONTINUOUS
 62
     7
 10
451.05147910544719
 20
56.5
 30
0.0
 11
457.05147910544719
 21
-56.5
 31
0.0
  0
LINE
  5
1022
  8
0
  6
CONTINUOUS
 62
     7
 10
448.9485208945581
 20
56.5
 30
0.0
 11
454.94852089455821
 21
-56.5
 31
0.0
  0
LINE
  5
1023
  8
0
  6
CONTINUOUS
 62
     7
 10
511.05147910544781
 20
56.5
 30
0.0
 11
517.05147910544781
 21
-56.5
 31
0.0
  0
ARC
  5
1024
  8
0
  6
CONTINUOUS
 62
     7
 10
522.00000000000341
 20
-61.277482335025191
 30
0.0
 40
6.8783861846606067
 50
43.99251754967905
 51
136.00748245032091
  0
ARC
  5
1025
  8
0
  6
CONTINUOUS
 62
     7
 10
486.00000000000301
 20
-61.277482335025191
 30
0.0
 40
6.8783861846606067
 50
43.99251754967905
 51
136.00748245032091
  0
LINE
  5
1026
  8
0
  6
CONTINUOUS
 62
     7
 10
478.94852089455838
 20
-56.5
 30
0.0
 11
481.05147910544741
 21
-56.5
 31
0.0
  0
LINE
  5
1027
  8
0
  6
CONTINUOUS
 62
     7
 10
466.94852089455833
 20
-56.5
 30
0.0
 11
469.0514791054473
 21
-56.5
 31
0.0
  0
LINE
  5
1028
  8
0
  6
CONTINUOUS
 62
     7
 10
454.94852089455821
 20
-56.5
 30
0.0
 11
457.05147910544719
 21
-56.5
 31
0.0
  0
ARC
  5
1029
  8
0
  6
CONTINUOUS
 62
     7
 10
462.00000000000279
 20
-61.277482335025191
 30
0.0
 40
6.8783861846606067
 50
43.99251754967905
 51
136.00748245032091
  0
ARC
  5
102A
  8
0
  6
CONTINUOUS
 62
     7
 10
474.0000000000029
 20
-61.277482335025191
 30
0.0
 40
6.8783861846606067
 50
43.99251754967905
 51
136.00748245032091
  0
ARC
  5
102B
  8
0
  6
CONTINUOUS
 62
     7
 10
510.0000000000033
 20
-61.277482335025191
 30
0.0
 40
6.8783861846606067
 50
43.99251754967905
 51
136.00748245032091
  0
LINE
  5
102C
  8
0
  6
CONTINUOUS
 62
     7
 10
502.94852089455861
 20
-56.5
 30
0.0
 11
505.05147910544758
 21
-56.5
 31
0.0
  0
ARC
  5
102D
  8
0
  6
CONTINUOUS
 62
     7
 10
498.00000000000313
 20
-61.277482335025191
 30
0.0
 40
6.8783861846606067
 50
43.99251754967905
 51
136.00748245032091
  0
LINE
  5
102E
  8
0
  6
CONTINUOUS
 62
     7
 10
490.9485208945585
 20
-56.5
 30
0.0
 11
493.05147910544753
 21
-56.5
 31
0.0
  0
LINE
  5
102F
  8
0
  6
CONTINUOUS
 62
     7
 10
514.94852089455878
 20
-56.5
 30
0.0
 11
517.05147910544781
 21
-56.5
 31
0.0
  0
ARC
  5
1030
  8
0
  6
CONTINUOUS
 62
     7
 10
558.00000000000375
 20
-61.277482335025191
 30
0.0
 40
6.8783861846606067
 50
43.99251754967905
 51
136.00748245032091
  0
LINE
  5
1031
  8
0
  6
CONTINUOUS
 62
     7
 10
550.94852089455912
 20
-56.5
 30
0.0
 11
553.05147910544815
 21
-56.5
 31
0.0
  0
LINE
  5
1032
  8
0
  6
CONTINUOUS
 62
     7
 10
538.94852089455901
 20
-56.5
 30
0.0
 11
541.05147910544804
 21
-56.5
 31
0.0
  0
ARC
  5
1033
  8
0
  6
CONTINUOUS
 62
     7
 10
534.00000000000352
 20
-61.277482335025191
 30
0.0
 40
6.8783861846606067
 50
43.99251754967905
 51
136.00748245032091
  0
LINE
  5
1034
  8
0
  6
CONTINUOUS
 62
     7
 10
526.9485208945589
 20
-56.5
 30
0.0
 11
529.05147910544792
 21
-56.5
 31
0.0
  0
ARC
  5
1035
  8
0
  6
CONTINUOUS
 62
     7
 10
546.00000000000364
 20
-61.277482335025191
 30
0.0
 40
6.8783861846606067
 50
43.99251754967905
 51
136.00748245032091
  0
LINE
  5
1036
  8
0
  6
CONTINUOUS
 62
     7
 10
586.94852089455946
 20
-56.5
 30
0.0
 11
589.05147910544838
 21
-56.5
 31
0.0
  0
ARC
  5
1037
  8
0
  6
CONTINUOUS
 62
     7
 10
582.00000000000398
 20
-61.277482335025191
 30
0.0
 40
6.8783861846606067
 50
43.99251754967905
 51
136.00748245032091
  0
LINE
  5
1038
  8
0
  6
CONTINUOUS
 62
     7
 10
574.94852089455935
 20
-56.5
 30
0.0
 11
577.05147910544827
 21
-56.5
 31
0.0
  0
ARC
  5
1039
  8
0
  6
CONTINUOUS
 62
     7
 10
570.00000000000375
 20
-61.277482335025191
 30
0.0
 40
6.8783861846606067
 50
43.99251754967905
 51
136.00748245032091
  0
LINE
  5
103A
  8
0
  6
CONTINUOUS
 62
     7
 10
562.94852089455924
 20
-56.5
 30
0.0
 11
565.05147910544815
 21
-56.5
 31
0.0
  0
LINE
  5
103B
  8
0
  6
CONTINUOUS
 62
     7
 10
520.94852089455878
 20
56.5
 30
0.0
 11
523.05147910544792
 21
56.5
 31
0.0
  0
ARC
  5
103C
  8
0
  6
CONTINUOUS
 62
     7
 10
480.00000000000313
 20
61.277482335025411
 30
0.0
 40
6.8783861846608474
 50
223.99251754968131
 51
316.007482450314
  0
LINE
  5
103D
  8
0
  6
CONTINUOUS
 62
     7
 10
472.94852089455838
 20
56.5
 30
0.0
 11
475.05147910544753
 21
56.5
 31
0.0
  0
ARC
  5
103E
  8
0
  6
CONTINUOUS
 62
     7
 10
468.00000000000301
 20
61.277482335025411
 30
0.0
 40
6.8783861846608474
 50
223.99251754968131
 51
316.007482450314
  0
ARC
  5
103F
  8
0
  6
CONTINUOUS
 62
     7
 10
456.0000000000029
 20
61.277482335025411
 30
0.0
 40
6.8783861846608474
 50
223.99251754968131
 51
316.007482450314
  0
LINE
  5
1040
  8
0
  6
CONTINUOUS
 62
     7
 10
448.9485208945581
 20
56.5
 30
0.0
 11
451.05147910544719
 21
56.5
 31
0.0
  0
LINE
  5
1041
  8
0
  6
CONTINUOUS
 62
     7
 10
460.94852089455833
 20
56.5
 30
0.0
 11
463.0514791054473
 21
56.5
 31
0.0
  0
LINE
  5
1042
  8
0
  6
CONTINUOUS
 62
     7
 10
508.94852089455873
 20
56.5
 30
0.0
 11
511.05147910544781
 21
56.5
 31
0.0
  0
ARC
  5
1043
  8
0
  6
CONTINUOUS
 62
     7
 10
504.0000000000033
 20
61.277482335025411
 30
0.0
 40
6.8783861846608474
 50
223.99251754968131
 51
316.007482450314
  0
LINE
  5
1044
  8
0
  6
CONTINUOUS
 62
     7
 10
496.94852089455861
 20
56.5
 30
0.0
 11
499.0514791054477
 21
56.5
 31
0.0
  0
LINE
  5
1045
  8
0
  6
CONTINUOUS
 62
     7
 10
484.9485208945585
 20
56.5
 30
0.0
 11
487.05147910544758
 21
56.5
 31
0.0
  0
ARC
  5
1046
  8
0
  6
CONTINUOUS
 62
     7
 10
492.00000000000318
 20
61.277482335025411
 30
0.0
 40
6.8783861846608474
 50
223.99251754968131
 51
316.007482450314
  0
ARC
  5
1047
  8
0
  6
CONTINUOUS
 62
     7
 10
516.00000000000352
 20
61.277482335025411
 30
0.0
 40
6.8783861846608474
 50
223.99251754968131
 51
316.007482450314
  0
LINE
  5
1048
  8
0
  6
CONTINUOUS
 62
     7
 10
556.94852089455924
 20
56.5
 30
0.0
 11
559.05147910544827
 21
56.5
 31
0.0
  0
ARC
  5
1049
  8
0
  6
CONTINUOUS
 62
     7
 10
552.00000000000375
 20
61.277482335025411
 30
0.0
 40
6.8783861846608474
 50
223.99251754968131
 51
316.007482450314
  0
LINE
  5
104A
  8
0
  6
CONTINUOUS
 62
     7
 10
544.94852089455912
 20
56.5
 30
0.0
 11
547.05147910544815
 21
56.5
 31
0.0
  0
LINE
  5
104B
  8
0
  6
CONTINUOUS
 62
     7
 10
532.94852089455901
 20
56.5
 30
0.0
 11
535.05147910544804
 21
56.5
 31
0.0
  0
ARC
  5
104C
  8
0
  6
CONTINUOUS
 62
     7
 10
528.00000000000364
 20
61.277482335025411
 30
0.0
 40
6.8783861846608474
 50
223.99251754968131
 51
316.007482450314
  0
ARC
  5
104D
  8
0
  6
CONTINUOUS
 62
     7
 10
540.00000000000375
 20
61.277482335025411
 30
0.0
 40
6.8783861846608474
 50
223.99251754968131
 51
316.007482450314
  0
ARC
  5
104E
  8
0
  6
CONTINUOUS
 62
     7
 10
588.00000000000421
 20
61.277482335025411
 30
0.0
 40
6.8783861846608474
 50
223.99251754968131
 51
316.007482450314
  0
LINE
  5
104F
  8
0
  6
CONTINUOUS
 62
     7
 10
580.94852089455935
 20
56.5
 30
0.0
 11
583.05147910544849
 21
56.5
 31
0.0
  0
ARC
  5
1050
  8
0
  6
CONTINUOUS
 62
     7
 10
576.00000000000398
 20
61.277482335025411
 30
0.0
 40
6.8783861846608474
 50
223.99251754968131
 51
316.007482450314
  0
LINE
  5
1051
  8
0
  6
CONTINUOUS
 62
     7
 10
568.94852089455935
 20
56.5
 30
0.0
 11
571.05147910544838
 21
56.5
 31
0.0
  0
ARC
  5
1052
  8
0
  6
CONTINUOUS
 62
     7
 10
564.00000000000387
 20
61.277482335025411
 30
0.0
 40
6.8783861846608474
 50
223.99251754968131
 51
316.007482450314
  0
LINE
  5
1053
  8
0
  6
CONTINUOUS
 62
     7
 10
650.0
 20
-55.681752131978151
 30
0.0
 11
650.0
 21
54.696282102138348
 31
0.0
  0
LINE
  5
1054
  8
0
  6
CONTINUOUS
 62
     7
 10
643.05147910544895
 20
56.5
 30
0.0
 11
649.05147910544895
 21
-56.5
 31
0.0
  0
LINE
  5
1055
  8
0
  6
CONTINUOUS
 62
     7
 10
640.94852089456003
 20
56.5
 30
0.0
 11
646.94852089456003
 21
-56.5
 31
0.0
  0
LINE
  5
1056
  8
0
  6
CONTINUOUS
 62
     7
 10
631.05147910544895
 20
56.5
 30
0.0
 11
637.05147910544895
 21
-56.5
 31
0.0
  0
LINE
  5
1057
  8
0
  6
CONTINUOUS
 62
     7
 10
628.94852089455992
 20
56.5
 30
0.0
 11
634.94852089455992
 21
-56.5
 31
0.0
  0
LINE
  5
1058
  8
0
  6
CONTINUOUS
 62
     7
 10
616.94852089455981
 20
56.5
 30
0.0
 11
622.94852089455981
 21
-56.5
 31
0.0
  0
LINE
  5
1059
  8
0
  6
CONTINUOUS
 62
     7
 10
607.05147910544861
 20
56.5
 30
0.0
 11
613.05147910544872
 21
-56.5
 31
0.0
  0
LINE
  5
105A
  8
0
  6
CONTINUOUS
 62
     7
 10
604.94852089455969
 20
56.5
 30
0.0
 11
610.94852089455969
 21
-56.5
 31
0.0
  0
LINE
  5
105B
  8
0
  6
CONTINUOUS
 62
     7
 10
595.05147910544849
 20
56.5
 30
0.0
 11
601.05147910544861
 21
-56.5
 31
0.0
  0
LINE
  5
105C
  8
0
  6
CONTINUOUS
 62
     7
 10
619.05147910544883
 20
56.5
 30
0.0
 11
625.05147910544883
 21
-56.5
 31
0.0
  0
ARC
  5
105D
  8
0
  6
CONTINUOUS
 62
     7
 10
630.00000000000443
 20
-61.277482335025191
 30
0.0
 40
6.8783861846606067
 50
43.99251754967905
 51
136.00748245032091
  0
ARC
  5
105E
  8
0
  6
CONTINUOUS
 62
     7
 10
618.00000000000432
 20
-61.277482335025191
 30
0.0
 40
6.8783861846606067
 50
43.99251754967905
 51
136.00748245032091
  0
LINE
  5
105F
  8
0
  6
CONTINUOUS
 62
     7
 10
610.94852089455969
 20
-56.5
 30
0.0
 11
613.05147910544872
 21
-56.5
 31
0.0
  0
LINE
  5
1060
  8
0
  6
CONTINUOUS
 62
     7
 10
622.94852089455981
 20
-56.5
 30
0.0
 11
625.05147910544883
 21
-56.5
 31
0.0
  0
LINE
  5
1061
  8
0
  6
CONTINUOUS
 62
     7
 10
598.94852089455958
 20
-56.5
 30
0.0
 11
601.05147910544861
 21
-56.5
 31
0.0
  0
ARC
  5
1062
  8
0
  6
CONTINUOUS
 62
     7
 10
606.00000000000421
 20
-61.277482335025191
 30
0.0
 40
6.8783861846606067
 50
43.99251754967905
 51
136.00748245032091
  0
ARC
  5
1063
  8
0
  6
CONTINUOUS
 62
     7
 10
654.00000000000466
 20
-61.277482335025191
 30
0.0
 40
6.8783861846606067
 50
125.5583505039765
 51
136.00748245032091
  0
LINE
  5
1064
  8
0
  6
CONTINUOUS
 62
     7
 10
646.94852089456003
 20
-56.5
 30
0.0
 11
649.05147910544895
 21
-56.5
 31
0.0
  0
ARC
  5
1065
  8
0
  6
CONTINUOUS
 62
     7
 10
642.00000000000455
 20
-61.277482335025191
 30
0.0
 40
6.8783861846606067
 50
43.99251754967905
 51
136.00748245032091
  0
LINE
  5
1066
  8
0
  6
CONTINUOUS
 62
     7
 10
634.94852089455992
 20
-56.5
 30
0.0
 11
637.05147910544895
 21
-56.5
 31
0.0
  0
ARC
  5
1067
  8
0
  6
CONTINUOUS
 62
     7
 10
636.00000000000455
 20
61.277482335025411
 30
0.0
 40
6.8783861846608474
 50
223.99251754968131
 51
316.007482450314
  0
LINE
  5
1068
  8
0
  6
CONTINUOUS
 62
     7
 10
628.94852089455992
 20
56.5
 30
0.0
 11
631.05147910544895
 21
56.5
 31
0.0
  0
LINE
  5
1069
  8
0
  6
CONTINUOUS
 62
     7
 10
616.94852089455981
 20
56.5
 30
0.0
 11
619.05147910544883
 21
56.5
 31
0.0
  0
ARC
  5
106A
  8
0
  6
CONTINUOUS
 62
     7
 10
624.00000000000455
 20
61.277482335025411
 30
0.0
 40
6.8783861846608474
 50
223.99251754968131
 51
316.007482450314
  0
LINE
  5
106B
  8
0
  6
CONTINUOUS
 62
     7
 10
604.94852089455969
 20
56.5
 30
0.0
 11
607.05147910544861
 21
56.5
 31
0.0
  0
ARC
  5
106C
  8
0
  6
CONTINUOUS
 62
     7
 10
600.00000000000432
 20
61.277482335025411
 30
0.0
 40
6.8783861846608474
 50
223.99251754968131
 51
316.007482450314
  0
ARC
  5
106D
  8
0
  6
CONTINUOUS
 62
     7
 10
612.00000000000443
 20
61.277482335025411
 30
0.0
 40
6.8783861846608474
 50
223.99251754968131
 51
316.007482450314
  0
ARC
  5
106E
  8
0
  6
CONTINUOUS
 62
     7
 10
648.00000000000466
 20
61.277482335025411
 30
0.0
 40
6.8783861846608474
 50
223.99251754968131
 51
286.90381359472991
  0
LINE
  5
106F
  8
0
  6
CONTINUOUS
 62
     7
 10
640.94852089456003
 20
56.5
 30
0.0
 11
643.05147910544895
 21
56.5
 31
0.0
  0
ENDSEC
  0
EOF
