  0
SECTION
  2
HEADER
  9
$ACADVER
  1
AC1009
  9
$INSBASE
 10
0.0
 20
0.0
 30
0.0
  9
$EXTMIN
 10
-2.0008792970492091
 20
-8.0093071512054621
 30
-0.0015258207003583
  9
$EXTMAX
 10
465.2303854242632
 20
179.35794124700811
 30
0.0000000349246037
  9
$LIMMIN
 10
0.0
 20
0.0
  9
$LIMMAX
 10
420.0
 20
297.0
  9
$ORTHOMODE
 70
     1
  9
$REGENMODE
 70
     1
  9
$FILLMODE
 70
     1
  9
$QTEXTMODE
 70
     0
  9
$MIRRTEXT
 70
     0
  9
$DRAGMODE
 70
     2
  9
$LTSCALE
 40
0.5
  9
$OSMODE
 70
  3071
  9
$ATTMODE
 70
     1
  9
$TEXTSIZE
 40
3.0
  9
$TRACEWID
 40
1.0
  9
$TEXTSTYLE
  7
STANDARD
  9
$CLAYER
  8
MSM_CONTINUOUS
  9
$CELTYPE
  6
BYLAYER
  9
$CECOLOR
 62
   256
  9
$DIMSCALE
 40
1.0
  9
$DIMASZ
 40
2.5
  9
$DIMEXO
 40
0.625
  9
$DIMDLI
 40
3.75
  9
$DIMRND
 40
0.0
  9
$DIMDLE
 40
0.0
  9
$DIMEXE
 40
1.25
  9
$DIMTP
 40
0.0
  9
$DIMTM
 40
0.0
  9
$DIMTXT
 40
3.0
  9
$DIMCEN
 40
2.5
  9
$DIMTSZ
 40
0.0
  9
$DIMTOL
 70
     0
  9
$DIMLIM
 70
     0
  9
$DIMTIH
 70
     0
  9
$DIMTOH
 70
     0
  9
$DIMSE1
 70
     0
  9
$DIMSE2
 70
     0
  9
$DIMTAD
 70
     1
  9
$DIMZIN
 70
     8
  9
$DIMBLK
  1
OPEN30
  9
$DIMASO
 70
     1
  9
$DIMSHO
 70
     1
  9
$DIMPOST
  1

  9
$DIMAPOST
  1

  9
$DIMALT
 70
     0
  9
$DIMALTD
 70
     3
  9
$DIMALTF
 40
0.03937007874016
  9
$DIMLFAC
 40
1.0
  9
$DIMTOFL
 70
     1
  9
$DIMTVP
 40
0.0
  9
$DIMTIX
 70
     0
  9
$DIMSOXD
 70
     0
  9
$DIMSAH
 70
     0
  9
$DIMBLK1
  1

  9
$DIMBLK2
  1

  9
$DIMSTYLE
  2
MISUMI
  9
$DIMCLRD
 70
   256
  9
$DIMCLRE
 70
   256
  9
$DIMCLRT
 70
   256
  9
$DIMTFAC
 40
1.0
  9
$DIMGAP
 40
0.625
  9
$LUNITS
 70
     2
  9
$LUPREC
 70
     2
  9
$SKETCHINC
 40
1.0
  9
$FILLETRAD
 40
0.0
  9
$AUNITS
 70
     0
  9
$AUPREC
 70
     0
  9
$MENU
  1
.
  9
$ELEVATION
 40
0.0
  9
$PELEVATION
 40
0.0
  9
$THICKNESS
 40
0.0
  9
$LIMCHECK
 70
     0
  9
$BLIPMODE
 70
     0
  9
$CHAMFERA
 40
0.5
  9
$CHAMFERB
 40
0.5
  9
$SKPOLY
 70
     0
  9
$TDCREATE
 40
2455135.5720697111
  9
$TDUPDATE
 40
2457963.607588287
  9
$TDINDWG
 40
0.7650000694
  9
$TDUSRTIMER
 40
2457955.3602331141
  9
$USRTIMER
 70
     1
  9
$ANGBASE
 50
0.0
  9
$ANGDIR
 70
     0
  9
$PDMODE
 70
    35
  9
$PDSIZE
 40
0.0
  9
$PLINEWID
 40
0.0
  9
$COORDS
 70
     0
  9
$SPLFRAME
 70
     0
  9
$SPLINETYPE
 70
     6
  9
$SPLINESEGS
 70
     8
  9
$ATTDIA
 70
     0
  9
$ATTREQ
 70
     1
  9
$HANDLING
 70
     1
  9
$HANDSEED
  5
11111
  9
$SURFTAB1
 70
     6
  9
$SURFTAB2
 70
     6
  9
$SURFTYPE
 70
     6
  9
$SURFU
 70
     6
  9
$SURFV
 70
     6
  9
$UCSNAME
  2

  9
$UCSORG
 10
0.0
 20
0.0
 30
0.0
  9
$UCSXDIR
 10
1.0
 20
0.0
 30
0.0
  9
$UCSYDIR
 10
0.0
 20
1.0
 30
0.0
  9
$PUCSNAME
  2

  9
$PUCSORG
 10
0.0
 20
0.0
 30
0.0
  9
$PUCSXDIR
 10
1.0
 20
0.0
 30
0.0
  9
$PUCSYDIR
 10
0.0
 20
1.0
 30
0.0
  9
$USERI1
 70
     0
  9
$USERI2
 70
     0
  9
$USERI3
 70
     0
  9
$USERI4
 70
     0
  9
$USERI5
 70
     0
  9
$USERR1
 40
0.0
  9
$USERR2
 40
0.0
  9
$USERR3
 40
0.0
  9
$USERR4
 40
0.0
  9
$USERR5
 40
0.0
  9
$WORLDVIEW
 70
     1
  9
$SHADEDGE
 70
     3
  9
$SHADEDIF
 70
    70
  9
$TILEMODE
 70
     1
  9
$MAXACTVP
 70
    64
  9
$PLIMCHECK
 70
     0
  9
$PEXTMIN
 10
0.0
 20
0.0
 30
0.0
  9
$PEXTMAX
 10
0.0
 20
0.0
 30
0.0
  9
$PLIMMIN
 10
0.0
 20
0.0
  9
$PLIMMAX
 10
12.0
 20
9.0
  9
$UNITMODE
 70
     0
  9
$VISRETAIN
 70
     1
  9
$PLINEGEN
 70
     0
  9
$PSLTSCALE
 70
     1
  0
ENDSEC
  0
SECTION
  2
TABLES
  0
TABLE
  2
VPORT
 70
     1
  0
VPORT
  2
*ACTIVE
 70
     0
 10
0.0
 20
0.0
 11
1.0
 21
1.0
 12
231.614753063607
 22
85.674317047901354
 13
0.0
 23
0.0
 14
10.0
 24
10.0
 15
10.0
 25
10.0
 16
0.0
 26
0.0
 36
1.0
 17
0.0
 27
0.0
 37
0.0
 40
242.17256701335111
 41
1.936868686868686
 42
50.0
 43
0.0
 44
0.0
 50
0.0
 51
0.0
 71
    16
 72
  1000
 73
     1
 74
     3
 75
     0
 76
     0
 77
     0
 78
     0
  0
ENDTAB
  0
TABLE
  2
LTYPE
 70
     3
  0
LTYPE
  2
CONTINUOUS
 70
     0
  3
Solid line
 72
    65
 73
     0
 40
0.0
  0
LTYPE
  2
CENTER
 70
     0
  3
Center ____ _ ____ _ ____ _ ____ _ ____ _ ____
 72
    65
 73
     4
 40
50.799999999999997
 49
31.75
 49
-6.3499999999999988
 49
6.3499999999999988
 49
-6.3499999999999988
  0
LTYPE
  2
DASHED
 70
     0
  3
Dashed __ __ __ __ __ __ __ __ __ __ __ __ __ _
 72
    65
 73
     2
 40
19.050000000000001
 49
12.699999999999999
 49
-6.3499999999999988
  0
ENDTAB
  0
TABLE
  2
LAYER
 70
     8
  0
LAYER
  2
0
 70
     0
 62
     7
  6
CONTINUOUS
  0
LAYER
  2
MSM_CENTER
 70
     0
 62
     1
  6
CENTER
  0
LAYER
  2
MSM_CONTINUOUS
 70
     0
 62
     7
  6
CONTINUOUS
  0
LAYER
  2
MSM_DASHED
 70
     0
 62
     4
  6
DASHED
  0
LAYER
  2
MSM_NARROW
 70
     0
 62
     5
  6
CONTINUOUS
  0
LAYER
  2
MSM_PART_NUMBER
 70
     0
 62
     7
  6
CONTINUOUS
  0
ENDTAB
  0
TABLE
  2
STYLE
 70
     2
  0
STYLE
  2
STANDARD
 70
     0
 40
3.0
 41
1.0
 50
0.0
 71
     0
 42
3.0
  3
txt.shx
  4
bigfont.shx
  0
ENDTAB
  0
TABLE
  2
VIEW
 70
     0
  0
ENDTAB
  0
TABLE
  2
UCS
 70
     0
  0
ENDTAB
  0
TABLE
  2
APPID
 70
    25
  0
APPID
  2
ACAD
 70
     0
  0
APPID
  2
ACAD_MLEADERVER
 70
     0
  0
APPID
  2
ACAD_EXEMPT_FROM_CAD_STANDARDS
 70
     0
  0
APPID
  2
ACDBBLOCKREPETAG
 70
     0
  0
APPID
  2
ACAD_DSTYLE_DIMJOGGED_JOGA
 70
     0
  0
APPID
  2
ACAECLAYERSTANDARD
 70
     0
  0
APPID
  2
GENIUS_GENODEF_13
 70
     0
  0
APPID
  2
GENIUS_GENOBJ-N-FIL_13
 70
     0
  0
APPID
  2
ACAD_PSEXT
 70
     0
  0
APPID
  2
ACAD_DSTYLE_DIMRADIAL_EXTENSION
 70
     0
  0
APPID
  2
ACDBDYNAMICBLOCKTRUENAME
 70
     0
  0
APPID
  2
ACDBDYNAMICBLOCKGUID
 70
     0
  0
APPID
  2
ACDBBLOCKREPBTAG
 70
     0
  0
APPID
  2
ACAUTHENVIRON
 70
     0
  0
APPID
  2
GRADIENTCOLOR1ACI
 70
     0
  0
APPID
  2
GRADIENTCOLOR2ACI
 70
     0
  0
APPID
  2
ACAD_DSTYLE_DIMJAG
 70
     0
  0
APPID
  2
ACAD_DSTYLE_DIMTALN
 70
     0
  0
APPID
  2
ACCMTRANSPARENCY
 70
     0
  0
APPID
  2
ACAD_DSTYLE_DIMBREAK
 70
     0
  0
APPID
  2
ACAD_DSTYLE_DIMFLIPARROW_W
 70
     0
  0
APPID
  2
ACAD_DSTYLE_DIM_LINETYPE
 70
     0
  0
APPID
  2
ACAD_DSTYLE_DIM_EXT1_LINETYPE
 70
     0
  0
APPID
  2
ACAD_DSTYLE_DIM_EXT2_LINETYPE
 70
     0
  0
APPID
  2
ACAD_NAV_VCDISPLAY
 70
     0
  0
ENDTAB
  0
TABLE
  2
DIMSTYLE
 70
     1
  0
DIMSTYLE
  2
MISUMI
 70
     0
  3

  4

  5
OPEN30
  6

  7

 40
1.0
 41
2.5
 42
0.625
 43
3.75
 44
1.25
 45
0.0
 46
0.0
 47
0.0
 48
0.0
140
3.0
141
2.5
142
0.0
143
0.03937007874016
144
1.0
145
0.0
146
1.0
147
0.625
 71
     0
 72
     0
 73
     0
 74
     0
 75
     0
 76
     0
 77
     1
 78
     8
170
     0
171
     3
172
     1
173
     0
174
     0
175
     0
176
   256
177
   256
178
   256
  0
ENDTAB
  0
ENDSEC
  0
SECTION
  2
BLOCKS
  0
BLOCK
  8
0
  2
$MODEL_SPACE
 70
     0
 10
0.0
 20
0.0
 30
0.0
  3
$MODEL_SPACE
  1

  0
ENDBLK
  5
21
  8
0
  0
BLOCK
 67
     1
  8
0
  2
$PAPER_SPACE
 70
     0
 10
0.0
 20
0.0
 30
0.0
  3
$PAPER_SPACE
  1

  0
ENDBLK
  5
110AE
 67
     1
  8
0
  0
BLOCK
  8
0
 62
     7
  2
_OPEN30
 70
     0
 10
0.0
 20
0.0
 30
0.0
  3
_OPEN30
  1

  0
LINE
  5
D7
  8
0
  6
BYBLOCK
 62
     0
 10
-1.0
 20
0.26794919
 30
0.0
 11
0.0
 21
0.0
 31
0.0
  0
LINE
  5
D8
  8
0
  6
BYBLOCK
 62
     0
 10
0.0
 20
0.0
 30
0.0
 11
-1.0
 21
-0.26794919
 31
0.0
  0
LINE
  5
D9
  8
0
  6
BYBLOCK
 62
     0
 10
0.0
 20
0.0
 30
0.0
 11
-1.0
 21
0.0
 31
0.0
  0
ENDBLK
  5
DB
  8
0
 62
     7
  0
BLOCK
  8
0
  2
*U15
 70
     1
 10
0.0
 20
0.0
 30
0.0
  3
*U15
  1

  0
TEXT
  5
110F3
  8
MSM_PART_NUMBER
 10
0.0
 20
-3.0
 30
0.0
 40
3.0
  1
ABGC7002-60
  0
ENDBLK
  5
110F5
  8
0
  0
BLOCK
  8
0
  2
*U16
 70
     1
 10
0.0
 20
0.0
 30
0.0
  3
*U16
  1

  0
TEXT
  5
110F7
  8
MSM_PART_NUMBER
 10
0.0
 20
-8.0
 30
0.0
 40
3.0
  1
ABGC7002-60
  0
ENDBLK
  5
110F9
  8
0
  0
BLOCK
  8
0
  2
*U17
 70
     1
 10
0.0
 20
0.0
 30
0.0
  3
*U17
  1

  0
TEXT
  5
110FE
  8
MSM_PART_NUMBER
 10
0.0
 20
109.53877715047329
 30
0.0
 40
3.0
  1
BEARING COVER7002
  0
ENDBLK
  5
11100
  8
0
  0
BLOCK
  8
0
  2
*U18
 70
     1
 10
0.0
 20
0.0
 30
0.0
  3
*U18
  1

  0
TEXT
  5
11102
  8
MSM_PART_NUMBER
 10
121.4629456709042
 20
109.53877715047329
 30
0.0
 40
3.0
  1
BEARING COVER7002-N
  0
ENDBLK
  5
11104
  8
0
  0
BLOCK
  8
0
  2
*U19
 70
     1
 10
0.0
 20
0.0
 30
0.0
  3
*U19
  1

  0
TEXT
  5
11106
  8
MSM_PART_NUMBER
 10
248.0691050878446
 20
109.53877715047329
 30
0.0
 40
3.0
  1
BEARING COVER7002-S
  0
ENDBLK
  5
11108
  8
0
  0
BLOCK
  8
0
  2
*U20
 70
     1
 10
0.0
 20
0.0
 30
0.0
  3
*U20
  1

  0
TEXT
  5
1110A
  8
MSM_PART_NUMBER
 10
380.15893761855563
 20
109.53877715047329
 30
0.0
 40
3.0
  1
BEARING COVER7002-R
  0
ENDBLK
  5
1110C
  8
0
  0
ENDSEC
  0
SECTION
  2
ENTITIES
  0
INSERT
  5
10A23
  8
MSM_CONTINUOUS
  2
*U15
 10
0.0
 20
0.0
 30
0.0
  0
INSERT
  5
10A24
  8
MSM_CONTINUOUS
  2
*U16
 10
0.0
 20
0.0
 30
0.0
  0
LINE
  5
10A25
  8
MSM_CONTINUOUS
 10
34.0
 20
63.500000000000007
 30
0.0
 11
54.0
 21
63.500000000000007
 31
0.0
  0
LINE
  5
10A26
  8
MSM_CONTINUOUS
 10
48.0
 20
85.000000000000014
 30
0.0
 11
48.0
 21
72.500000000000014
 31
0.0
  0
LINE
  5
10A27
  8
MSM_CONTINUOUS
 10
54.0
 20
71.500000000000014
 30
0.0
 11
60.0
 21
71.500000000000014
 31
0.0
  0
LINE
  5
10A28
  8
MSM_CONTINUOUS
 10
48.0
 20
85.000000000000014
 30
0.0
 11
60.0
 21
85.000000000000014
 31
0.0
  0
LINE
  5
10A29
  8
MSM_CONTINUOUS
 10
54.0
 20
23.500000000000011
 30
0.0
 11
60.0
 21
23.500000000000011
 31
0.0
  0
LINE
  5
10A2A
  8
MSM_CONTINUOUS
 10
60.0
 20
10.000000000000011
 30
0.0
 11
48.0
 21
10.000000000000011
 31
0.0
  0
LINE
  5
10A2B
  8
MSM_CONTINUOUS
 10
0.0
 20
63.500000000000007
 30
0.0
 11
13.0
 21
63.500000000000007
 31
0.0
  0
LINE
  5
10A2C
  8
MSM_CONTINUOUS
 10
0.0
 20
72.500000000000014
 30
0.0
 11
48.0
 21
72.500000000000014
 31
0.0
  0
LINE
  5
10A2D
  8
MSM_CONTINUOUS
 10
0.0
 20
31.500000000000021
 30
0.0
 11
13.0
 21
31.500000000000021
 31
0.0
  0
LINE
  5
10A2E
  8
MSM_CENTER
 10
-2.0
 20
47.5
 30
0.0
 11
62.0
 21
47.500000000000007
 31
0.0
  0
LINE
  5
10A2F
  8
MSM_CONTINUOUS
 10
0.0
 20
22.499999999999989
 30
0.0
 11
48.0
 21
22.499999999999989
 31
0.0
  0
LINE
  5
10A30
  8
MSM_CONTINUOUS
 10
13.0
 20
33.499999999999993
 30
0.0
 11
34.0
 21
33.499999999999993
 31
0.0
  0
LINE
  5
10A31
  8
MSM_CENTER
 10
46.0
 20
16.500000000000011
 30
0.0
 11
62.0
 21
16.500000000000011
 31
0.0
  0
LINE
  5
10A32
  8
MSM_CONTINUOUS
 10
34.0
 20
31.500000000000021
 30
0.0
 11
54.0
 21
31.500000000000021
 31
0.0
  0
LINE
  5
10A33
  8
MSM_CONTINUOUS
 10
48.0
 20
22.499999999999989
 30
0.0
 11
48.0
 21
10.000000000000011
 31
0.0
  0
LINE
  5
10A34
  8
MSM_CONTINUOUS
 10
13.0
 20
61.500000000000021
 30
0.0
 11
34.0
 21
61.500000000000021
 31
0.0
  0
LINE
  5
10A35
  8
MSM_CONTINUOUS
 10
13.0
 20
31.500000000000021
 30
0.0
 11
13.0
 21
63.500000000000007
 31
0.0
  0
LINE
  5
10A36
  8
MSM_CONTINUOUS
 10
0.0
 20
22.499999999999989
 30
0.0
 11
0.0
 21
72.500000000000014
 31
0.0
  0
LINE
  5
10A37
  8
MSM_CONTINUOUS
 10
60.0
 20
85.000000000000014
 30
0.0
 11
60.0
 21
10.000000000000011
 31
0.0
  0
LINE
  5
10A38
  8
MSM_CONTINUOUS
 10
34.0
 20
63.500000000000007
 30
0.0
 11
34.0
 21
31.500000000000021
 31
0.0
  0
LINE
  5
10A39
  8
MSM_CONTINUOUS
 10
54.0
 20
71.500000000000014
 30
0.0
 11
54.0
 21
23.500000000000011
 31
0.0
  0
CIRCLE
  5
10A3A
  8
MSM_CONTINUOUS
 10
147.51493471531961
 20
47.5
 30
0.0
 40
7.5000000000001199
  0
CIRCLE
  5
10A3B
  8
MSM_CENTER
 10
147.51493471531961
 20
47.5
 30
0.0
 40
20.0
  0
CIRCLE
  5
10A3C
  8
MSM_CENTER
 10
147.51493471531961
 20
47.5
 30
0.0
 40
31.0
  0
CIRCLE
  5
10A3D
  8
MSM_CONTINUOUS
 10
147.51493471531961
 20
47.5
 30
0.0
 40
16.0
  0
CIRCLE
  5
10A3E
  8
MSM_CONTINUOUS
 10
147.51493471531961
 20
47.5
 30
0.0
 40
24.0
  0
CIRCLE
  5
10A3F
  8
MSM_CONTINUOUS
 10
147.51493471531961
 20
47.5
 30
0.0
 40
37.5
  0
CIRCLE
  5
10A40
  8
MSM_DASHED
 10
147.51493471531961
 20
47.5
 30
0.0
 40
25.0
  0
LINE
  5
10A41
  8
MSM_CENTER
 10
187.01493471531961
 20
47.5
 30
0.0
 11
108.0149347153196
 21
47.5
 31
0.0
  0
LINE
  5
10A42
  8
MSM_CENTER
 10
147.5149347153197
 20
90.0
 30
0.0
 11
147.51493471531961
 21
8.0
 31
0.0
  0
LINE
  5
10A43
  8
MSM_CONTINUOUS
 10
53.5
 20
11.000000000000011
 30
0.0
 11
53.5
 21
22.000000000000011
 31
0.0
  0
LINE
  5
10A44
  8
MSM_CONTINUOUS
 10
48.0
 20
13.200000000000021
 30
0.0
 11
53.5
 21
13.200000000000021
 31
0.0
  0
LINE
  5
10A45
  8
MSM_CONTINUOUS
 10
48.0
 20
19.800000000000011
 30
0.0
 11
53.5
 21
19.800000000000011
 31
0.0
  0
LINE
  5
10A46
  8
MSM_CONTINUOUS
 10
53.5
 20
22.000000000000011
 30
0.0
 11
60.0
 21
22.000000000000011
 31
0.0
  0
LINE
  5
10A47
  8
MSM_CONTINUOUS
 10
53.5
 20
11.000000000000011
 30
0.0
 11
60.0
 21
11.000000000000011
 31
0.0
  0
CIRCLE
  5
10A48
  8
MSM_CONTINUOUS
 10
125.5946244985367
 20
69.420310216782994
 30
0.0
 40
5.5
  0
CIRCLE
  5
10A49
  8
MSM_CONTINUOUS
 10
125.5946244985367
 20
69.420310216782994
 30
0.0
 40
3.299999999999998
  0
CIRCLE
  5
10A4A
  8
MSM_CONTINUOUS
 10
47.5
 20
35.749999999999993
 30
0.0
 40
2.549999999999998
  0
CIRCLE
  5
10A4B
  8
MSM_CONTINUOUS
 10
47.5
 20
59.250000000000128
 30
0.0
 40
2.549999999999998
  0
CIRCLE
  5
10A4C
  8
MSM_CONTINUOUS
 10
38.5
 20
35.749999999999993
 30
0.0
 40
2.549999999999998
  0
CIRCLE
  5
10A4D
  8
MSM_CONTINUOUS
 10
38.5
 20
59.250000000000128
 30
0.0
 40
2.549999999999998
  0
LINE
  5
10A4E
  8
MSM_CONTINUOUS
 10
43.0
 20
63.200000000000003
 30
0.0
 11
43.0
 21
31.800000000000139
 31
0.0
  0
LINE
  5
10A4F
  8
MSM_CONTINUOUS
 10
37.512349148495673
 20
61.60096699158526
 30
0.0
 11
34.0
 21
61.800000000000132
 31
0.0
  0
LINE
  5
10A50
  8
MSM_CONTINUOUS
 10
45.306258903151949
 20
60.550000000000132
 30
0.0
 11
40.693741096848044
 21
60.550000000000132
 31
0.0
  0
ARC
  5
10A51
  8
MSM_CONTINUOUS
 10
42.699999999999932
 20
63.200000000000003
 30
0.0
 40
0.3
 50
0.0
 51
90.0
  0
ARC
  5
10A52
  8
MSM_CONTINUOUS
 10
34.149999999999977
 20
63.350000000000122
 30
0.0
 40
0.15
 50
90.0
 51
180.0
  0
LINE
  5
10A53
  8
MSM_CONTINUOUS
 10
34.0
 20
57.950000000000003
 30
0.0
 11
36.30625890315207
 21
57.950000000000003
 31
0.0
  0
LINE
  5
10A54
  8
MSM_CONTINUOUS
 10
42.850000000000023
 20
55.000000000000128
 30
0.0
 11
34.299999999999962
 21
55.000000000000128
 31
0.0
  0
LINE
  5
10A55
  8
MSM_CONTINUOUS
 10
42.850000000000023
 20
39.999999999999993
 30
0.0
 11
34.299999999999962
 21
39.999999999999993
 31
0.0
  0
LINE
  5
10A56
  8
MSM_CONTINUOUS
 10
45.30625890315207
 20
57.950000000000003
 30
0.0
 11
40.69374109684793
 21
57.950000000000003
 31
0.0
  0
ARC
  5
10A57
  8
MSM_CONTINUOUS
 10
42.850000000000023
 20
55.150000000000119
 30
0.0
 40
0.15
 50
270.0
 51
0.0
  0
LINE
  5
10A58
  8
MSM_CONTINUOUS
 10
45.30625890315207
 20
37.050000000000139
 30
0.0
 11
40.69374109684793
 21
37.050000000000139
 31
0.0
  0
ARC
  5
10A59
  8
MSM_CONTINUOUS
 10
42.850000000000023
 20
39.849999999999987
 30
0.0
 40
0.15
 50
0.0
 51
90.0
  0
ARC
  5
10A5A
  8
MSM_CONTINUOUS
 10
34.299999999999962
 20
55.300000000000118
 30
0.0
 40
0.3
 50
180.0
 51
270.0
  0
ARC
  5
10A5B
  8
MSM_CONTINUOUS
 10
34.299999999999962
 20
39.699999999999989
 30
0.0
 40
0.3
 50
90.0
 51
180.0
  0
LINE
  5
10A5C
  8
MSM_CONTINUOUS
 10
37.512349148495559
 20
33.399033008414897
 30
0.0
 11
34.0
 21
33.20000000000006
 31
0.0
  0
LINE
  5
10A5D
  8
MSM_CONTINUOUS
 10
34.0
 20
37.050000000000139
 30
0.0
 11
36.30625890315207
 21
37.050000000000139
 31
0.0
  0
LINE
  5
10A5E
  8
MSM_CONTINUOUS
 10
45.306258903151949
 20
34.45000000000006
 30
0.0
 11
40.693741096848044
 21
34.45000000000006
 31
0.0
  0
ARC
  5
10A5F
  8
MSM_CONTINUOUS
 10
42.699999999999932
 20
31.800000000000139
 30
0.0
 40
0.3
 50
270.0
 51
0.0
  0
ARC
  5
10A60
  8
MSM_CONTINUOUS
 10
34.149999999999977
 20
31.650000000000119
 30
0.0
 40
0.15
 50
180.0
 51
270.0
  0
LINE
  5
10A61
  8
MSM_CONTINUOUS
 10
52.0
 20
63.350000000000122
 30
0.0
 11
52.0
 21
31.650000000000119
 31
0.0
  0
LINE
  5
10A62
  8
MSM_CONTINUOUS
 10
48.487650851504441
 20
33.399033008414897
 30
0.0
 11
52.0
 21
33.20000000000006
 31
0.0
  0
ARC
  5
10A63
  8
MSM_CONTINUOUS
 10
43.299999999999947
 20
31.800000000000139
 30
0.0
 40
0.3
 50
180.0
 51
270.0
  0
ARC
  5
10A64
  8
MSM_CONTINUOUS
 10
51.850000000000023
 20
31.650000000000119
 30
0.0
 40
0.15
 50
270.0
 51
0.0
  0
LINE
  5
10A65
  8
MSM_CONTINUOUS
 10
52.0
 20
37.050000000000139
 30
0.0
 11
49.693741096847923
 21
37.050000000000139
 31
0.0
  0
LINE
  5
10A66
  8
MSM_CONTINUOUS
 10
43.14999999999997
 20
39.999999999999993
 30
0.0
 11
51.699999999999932
 21
39.999999999999993
 31
0.0
  0
LINE
  5
10A67
  8
MSM_CONTINUOUS
 10
43.14999999999997
 20
55.000000000000128
 30
0.0
 11
51.699999999999932
 21
55.000000000000128
 31
0.0
  0
ARC
  5
10A68
  8
MSM_CONTINUOUS
 10
43.14999999999997
 20
39.849999999999987
 30
0.0
 40
0.15
 50
90.0
 51
180.0
  0
ARC
  5
10A69
  8
MSM_CONTINUOUS
 10
43.14999999999997
 20
55.150000000000119
 30
0.0
 40
0.15
 50
180.0
 51
270.0
  0
ARC
  5
10A6A
  8
MSM_CONTINUOUS
 10
51.699999999999932
 20
39.699999999999989
 30
0.0
 40
0.3
 50
0.0
 51
90.0
  0
ARC
  5
10A6B
  8
MSM_CONTINUOUS
 10
51.699999999999932
 20
55.300000000000118
 30
0.0
 40
0.3
 50
270.0
 51
0.0
  0
LINE
  5
10A6C
  8
MSM_CONTINUOUS
 10
48.48765085150432
 20
61.60096699158526
 30
0.0
 11
52.0
 21
61.800000000000132
 31
0.0
  0
LINE
  5
10A6D
  8
MSM_CONTINUOUS
 10
52.0
 20
57.950000000000003
 30
0.0
 11
49.693741096847923
 21
57.95000000000001
 31
0.0
  0
ARC
  5
10A6E
  8
MSM_CONTINUOUS
 10
43.299999999999947
 20
63.200000000000003
 30
0.0
 40
0.3
 50
90.0
 51
180.0
  0
ARC
  5
10A6F
  8
MSM_CONTINUOUS
 10
51.850000000000023
 20
63.350000000000122
 30
0.0
 40
0.15
 50
0.0
 51
90.0
  0
LINE
  5
10A70
  8
MSM_CENTER
 10
44.836593197775862
 20
62.689014277597117
 30
0.0
 11
50.015860777731518
 21
56.001498446335631
 31
0.0
  0
LINE
  5
10A71
  8
MSM_CENTER
 10
49.895628024956629
 20
38.843255966290158
 30
0.0
 11
44.922150173560233
 21
32.421457641684938
 31
0.0
  0
LINE
  5
10A72
  8
MSM_CENTER
 10
41.163406802224017
 20
62.689014277597117
 30
0.0
 11
35.984139222268368
 21
56.001498446335631
 31
0.0
  0
LINE
  5
10A73
  8
MSM_CENTER
 10
36.104371975043371
 20
38.843255966290158
 30
0.0
 11
41.077849826439767
 21
32.421457641684938
 31
0.0
  0
ARC
  5
10A76
  8
MSM_CONTINUOUS
 10
4.29999999999984
 20
55.300000000000011
 30
0.0
 40
0.3
 50
180.0
 51
270.0
  0
ARC
  5
10A77
  8
MSM_CONTINUOUS
 10
12.69999999999993
 20
55.300000000000011
 30
0.0
 40
0.3
 50
270.0
 51
0.0
  0
ARC
  5
10A78
  8
MSM_CONTINUOUS
 10
12.69999999999993
 20
63.200000000000003
 30
0.0
 40
0.3
 50
0.0
 51
90.0
  0
ARC
  5
10A79
  8
MSM_CONTINUOUS
 10
4.29999999999984
 20
63.200000000000003
 30
0.0
 40
0.3
 50
90.0
 51
180.0
  0
LINE
  5
10A7A
  8
MSM_CONTINUOUS
 10
12.899999999999981
 20
61.449979999999911
 30
0.0
 11
12.439981607663411
 21
61.449979999999911
 31
0.0
  0
LINE
  5
10A7B
  8
MSM_CONTINUOUS
 10
12.13397999999995
 20
61.192960000000021
 30
0.0
 11
12.286989999999941
 21
61.320949999999911
 31
0.0
  0
LINE
  5
10A7C
  8
MSM_CONTINUOUS
 10
12.26198999999985
 20
61.039950000000012
 30
0.0
 11
12.13397999999995
 21
61.192949999999911
 31
0.0
  0
LINE
  5
10A7D
  8
MSM_CONTINUOUS
 10
12.43996826715818
 20
61.449995900395102
 30
0.0
 11
12.190358232152789
 21
61.747471886845709
 31
0.0
  0
LINE
  5
10A7E
  8
MSM_CONTINUOUS
 10
12.26198999999985
 20
61.039960000000022
 30
0.0
 11
12.415089445925901
 21
61.168039926066122
 31
0.0
  0
ARC
  5
10A7F
  8
MSM_CONTINUOUS
 10
12.286758882611821
 20
61.321438969477512
 30
0.0
 40
0.2
 50
309.91517656589139
 51
39.999778975717859
  0
LINE
  5
10A80
  8
MSM_CONTINUOUS
 10
12.286989999999941
 20
61.320970000000003
 30
0.0
 11
12.03667478838417
 21
61.619319002529508
 31
0.0
  0
ARC
  5
10A81
  8
MSM_CONTINUOUS
 10
12.899999999999981
 20
61.549979999999998
 30
0.0
 40
0.1
 50
270.0
 51
0.0
  0
LINE
  5
10A82
  8
MSM_CONTINUOUS
 10
11.66168426812442
 20
61.580766316673412
 30
0.0
 11
11.59702885783588
 21
60.841270061498911
 31
0.0
  0
ARC
  5
10A83
  8
MSM_CONTINUOUS
 10
11.497408895432841
 20
60.849980003566927
 30
0.0
 40
0.1
 50
270.00049927487157
 51
355.00323933542938
  0
LINE
  5
10A84
  8
MSM_CONTINUOUS
 10
11.86018771815804
 20
61.559964184400407
 30
0.0
 11
11.81699375541745
 21
60.683016244582497
 31
0.0
  0
LINE
  5
10A85
  8
MSM_CONTINUOUS
 10
11.61699999999996
 20
61.069690000000421
 30
0.0
 11
11.61699999999996
 21
60.600050000266698
 31
0.0
  0
LINE
  5
10A86
  8
MSM_CONTINUOUS
 10
11.497409766831881
 20
60.749980003570712
 30
0.0
 11
10.349443581454461
 21
60.749970000205487
 31
0.0
  0
LINE
  5
10A87
  8
MSM_CONTINUOUS
 10
11.36190250675372
 20
57.750000000000021
 30
0.0
 11
10.34941925006194
 21
57.750000000000021
 31
0.0
  0
LINE
  5
10A88
  8
MSM_CONTINUOUS
 10
11.81699375541745
 20
60.683016244582497
 30
0.0
 11
12.56699999999989
 21
59.933009999999911
 31
0.0
  0
LINE
  5
10A89
  8
MSM_CONTINUOUS
 10
11.61699999999996
 20
60.600050000266698
 30
0.0
 11
12.36699999999985
 21
59.850030000533309
 31
0.0
  0
ARC
  5
10A8A
  8
MSM_CONTINUOUS
 10
11.96006663628145
 20
61.555044660592714
 30
0.0
 40
0.1
 50
39.996694894783751
 51
177.18018229812819
  0
LINE
  5
10A8B
  8
MSM_CONTINUOUS
 10
12.799999999999841
 20
57.149980000000014
 30
0.0
 11
12.50001516961515
 21
57.149980000000014
 31
0.0
  0
ARC
  5
10A8C
  8
MSM_CONTINUOUS
 10
12.36699999999985
 20
57.549990000000022
 30
0.0
 40
0.2
 50
270.0
 51
0.0
  0
LINE
  5
10A8D
  8
MSM_CONTINUOUS
 10
12.50001516961515
 20
57.149980000000014
 30
0.0
 11
12.22438488655928
 21
56.821452589689812
 31
0.0
  0
ARC
  5
10A8E
  8
MSM_CONTINUOUS
 10
12.07116751384137
 20
56.950000000000003
 30
0.0
 40
0.2
 50
270.0
 51
320.00378135708661
  0
LINE
  5
10A8F
  8
MSM_CONTINUOUS
 10
12.07116751384137
 20
56.750000000000007
 30
0.0
 11
12.006073797593899
 21
56.750000000000007
 31
0.0
  0
ARC
  5
10A90
  8
MSM_CONTINUOUS
 10
12.799999999999841
 20
56.949979999999911
 30
0.0
 40
0.2
 50
0.0
 51
90.0
  0
LINE
  5
10A91
  8
MSM_CONTINUOUS
 10
11.916999999999801
 20
57.349989999999913
 30
0.0
 11
11.916999999999801
 21
57.549990000000022
 31
0.0
  0
LINE
  5
10A92
  8
MSM_CONTINUOUS
 10
11.916999999999801
 20
57.549990000000022
 30
0.0
 11
12.36699999999985
 21
57.549990000000022
 31
0.0
  0
LINE
  5
10A93
  8
MSM_CONTINUOUS
 10
12.36699999999985
 20
57.349989999999913
 30
0.0
 11
11.916999999999801
 21
57.349989999999913
 31
0.0
  0
LINE
  5
10A94
  8
MSM_CONTINUOUS
 10
11.81814495129481
 20
56.88156938748871
 30
0.0
 11
11.54983135305303
 21
57.618430612511133
 31
0.0
  0
ARC
  5
10A95
  8
MSM_CONTINUOUS
 10
12.006073797593899
 20
56.950000000000003
 30
0.0
 40
0.2
 50
200.00810467891611
 51
270.0
  0
LINE
  5
10A96
  8
MSM_CONTINUOUS
 10
12.36699999999985
 20
59.850030000533309
 30
0.0
 11
12.36699999999985
 21
57.549990000000022
 31
0.0
  0
LINE
  5
10A97
  8
MSM_CONTINUOUS
 10
12.56699999999989
 20
59.933009999999911
 30
0.0
 11
12.56699999999989
 21
57.549990000000022
 31
0.0
  0
ARC
  5
10A98
  8
MSM_CONTINUOUS
 10
11.36190250675372
 20
57.550000000000011
 30
0.0
 40
0.2
 50
20.00810467891613
 51
90.0
  0
LINE
  5
10A99
  8
MSM_CONTINUOUS
 10
5.3383157318754684
 20
61.580766316673412
 30
0.0
 11
5.402971142164005
 21
60.841270061498911
 31
0.0
  0
ARC
  5
10A9A
  8
MSM_CONTINUOUS
 10
5.0399333637184318
 20
61.555044660592714
 30
0.0
 40
0.1
 50
2.8198177018717598
 51
140.0033051052163
  0
LINE
  5
10A9B
  8
MSM_CONTINUOUS
 10
4.7130099999998256
 20
61.320970000000003
 30
0.0
 11
4.9633252116157101
 21
61.619319002529508
 31
0.0
  0
LINE
  5
10A9C
  8
MSM_CONTINUOUS
 10
4.7380099999999166
 20
61.039950000000012
 30
0.0
 11
4.8660199999998213
 21
61.192960000000021
 31
0.0
  0
LINE
  5
10A9D
  8
MSM_CONTINUOUS
 10
4.8660199999998213
 20
61.192960000000021
 30
0.0
 11
4.7130099999998256
 21
61.320970000000003
 31
0.0
  0
LINE
  5
10A9E
  8
MSM_CONTINUOUS
 10
5.3829999999999236
 20
61.06969000000116
 30
0.0
 11
5.3829999999999236
 21
60.600050000266698
 31
0.0
  0
LINE
  5
10A9F
  8
MSM_CONTINUOUS
 10
5.1398122818417269
 20
61.559964184400407
 30
0.0
 11
5.1830062445824288
 21
60.683016244582497
 31
0.0
  0
ARC
  5
10AA0
  8
MSM_CONTINUOUS
 10
5.5025911045669309
 20
60.849980003566927
 30
0.0
 40
0.1
 50
184.99676066457539
 51
269.99950072519351
  0
ARC
  5
10AA1
  8
MSM_CONTINUOUS
 10
4.1000000000000218
 20
61.549979999999998
 30
0.0
 40
0.1
 50
180.0
 51
270.0
  0
ARC
  5
10AA2
  8
MSM_CONTINUOUS
 10
4.7132411173880646
 20
61.321438969477512
 30
0.0
 40
0.2
 50
140.0002210242821
 51
230.0848234341085
  0
LINE
  5
10AA3
  8
MSM_CONTINUOUS
 10
4.0999999999997954
 20
61.449979999999911
 30
0.0
 11
4.5600183923363602
 21
61.449979999999911
 31
0.0
  0
LINE
  5
10AA4
  8
MSM_CONTINUOUS
 10
5.3829999999999236
 20
60.600050000266698
 30
0.0
 11
4.6329999999999236
 21
59.850030000533309
 31
0.0
  0
LINE
  5
10AA5
  8
MSM_CONTINUOUS
 10
5.1830062445824288
 20
60.683016244582497
 30
0.0
 11
4.432999999999879
 21
59.933009999999911
 31
0.0
  0
LINE
  5
10AA6
  8
MSM_CONTINUOUS
 10
4.7380099999999166
 20
61.039950000000012
 30
0.0
 11
4.584910554073871
 21
61.168039926066122
 31
0.0
  0
LINE
  5
10AA7
  8
MSM_CONTINUOUS
 10
4.560031732841594
 20
61.449995900395102
 30
0.0
 11
4.8096417678470971
 21
61.747471886845709
 31
0.0
  0
LINE
  5
10AA8
  8
MSM_CONTINUOUS
 10
5.6380974932460504
 20
57.750000000000021
 30
0.0
 11
6.6505807499378298
 21
57.750000000000021
 31
0.0
  0
LINE
  5
10AA9
  8
MSM_CONTINUOUS
 10
5.5025902331680072
 20
60.749980003570712
 30
0.0
 11
6.6505564185453059
 21
60.749970000205479
 31
0.0
  0
LINE
  5
10AAA
  8
MSM_CONTINUOUS
 10
5.1818550487050743
 20
56.88156938748871
 30
0.0
 11
5.4501686469469632
 21
57.618430612511133
 31
0.0
  0
ARC
  5
10AAB
  8
MSM_CONTINUOUS
 10
4.9939262024058726
 20
56.950000000000003
 30
0.0
 40
0.2
 50
270.0
 51
339.99189532108392
  0
LINE
  5
10AAC
  8
MSM_CONTINUOUS
 10
4.9288324861583979
 20
56.750000000000007
 30
0.0
 11
4.9939262024058726
 21
56.750000000000007
 31
0.0
  0
LINE
  5
10AAD
  8
MSM_CONTINUOUS
 10
5.0829999999998563
 20
57.349989999999913
 30
0.0
 11
5.0829999999998563
 21
57.549990000000022
 31
0.0
  0
ARC
  5
10AAE
  8
MSM_CONTINUOUS
 10
4.9288324861583979
 20
56.950000000000003
 30
0.0
 40
0.2
 50
219.99621864291339
 51
270.0
  0
ARC
  5
10AAF
  8
MSM_CONTINUOUS
 10
4.1999999999999309
 20
56.949979999999911
 30
0.0
 40
0.2
 50
90.0
 51
180.0
  0
ARC
  5
10AB0
  8
MSM_CONTINUOUS
 10
4.6329999999999236
 20
57.549990000000022
 30
0.0
 40
0.2
 50
180.0
 51
270.0
  0
LINE
  5
10AB1
  8
MSM_CONTINUOUS
 10
4.1999999999999309
 20
57.149980000000014
 30
0.0
 11
4.4999848303847321
 21
57.149980000000014
 31
0.0
  0
LINE
  5
10AB2
  8
MSM_CONTINUOUS
 10
4.4999848303847321
 20
57.149980000000014
 30
0.0
 11
4.7756151134406082
 21
56.821452589689812
 31
0.0
  0
LINE
  5
10AB3
  8
MSM_CONTINUOUS
 10
4.6329999999999236
 20
57.349989999999913
 30
0.0
 11
5.0829999999998563
 21
57.349989999999913
 31
0.0
  0
LINE
  5
10AB4
  8
MSM_CONTINUOUS
 10
5.0829999999998563
 20
57.549990000000022
 30
0.0
 11
4.6329999999999236
 21
57.549990000000022
 31
0.0
  0
LINE
  5
10AB5
  8
MSM_CONTINUOUS
 10
4.29999999999984
 20
55.000000000000007
 30
0.0
 11
12.69999999999993
 21
55.000000000000007
 31
0.0
  0
ARC
  5
10AB6
  8
MSM_CONTINUOUS
 10
5.6380974932460504
 20
57.550000000000011
 30
0.0
 40
0.2
 50
90.0
 51
159.99189532108389
  0
LINE
  5
10AB7
  8
MSM_CONTINUOUS
 10
4.432999999999879
 20
59.933009999999911
 30
0.0
 11
4.432999999999879
 21
57.549990000000022
 31
0.0
  0
LINE
  5
10AB8
  8
MSM_CONTINUOUS
 10
4.6329999999999236
 20
59.850030000533309
 30
0.0
 11
4.6329999999999236
 21
57.549990000000022
 31
0.0
  0
CIRCLE
  5
10AB9
  8
MSM_CONTINUOUS
 10
8.4999999999998863
 20
59.250000000000007
 30
0.0
 40
2.3812500000000001
  0
ARC
  5
10ABA
  8
MSM_CONTINUOUS
 10
11.96054415533342
 20
61.554636490469299
 30
0.0
 40
0.3
 50
39.999778975749749
 51
175.00323933543021
  0
ARC
  5
10ABB
  8
MSM_CONTINUOUS
 10
5.0394558446664632
 20
61.554636490469299
 30
0.0
 40
0.3
 50
4.9967606645697531
 51
140.0002210242711
  0
LINE
  5
10ABC
  8
MSM_CONTINUOUS
 10
3.9999999999998859
 20
63.200000000000003
 30
0.0
 11
3.9999999999998859
 21
31.800000000000072
 31
0.0
  0
LINE
  5
10ABE
  8
MSM_CONTINUOUS
 10
68.932499669519984
 20
175.09710222569501
 30
0.0
 11
71.832499669519962
 21
175.09710222569501
 31
0.0
  0
LINE
  5
10ABF
  8
MSM_CONTINUOUS
 10
68.932499669519984
 20
171.5971022256949
 30
0.0
 11
71.832499669519962
 21
171.5971022256949
 31
0.0
  0
LINE
  5
10AC0
  8
MSM_CONTINUOUS
 10
65.832499669519962
 20
176.59710222569501
 30
0.0
 11
68.932499669519984
 21
176.59710222569501
 31
0.0
  0
LINE
  5
10AC1
  8
MSM_CONTINUOUS
 10
65.832499669519962
 20
170.09710222569501
 30
0.0
 11
68.932499669519984
 21
170.09710222569501
 31
0.0
  0
LINE
  5
10AC2
  8
MSM_CONTINUOUS
 10
68.932499669519984
 20
170.09710222569501
 30
0.0
 11
68.932499669519984
 21
176.59710222569501
 31
0.0
  0
LINE
  5
10AC3
  8
MSM_CONTINUOUS
 10
68.932499669519984
 20
131.5971022256949
 30
0.0
 11
71.832499669519962
 21
131.5971022256949
 31
0.0
  0
LINE
  5
10AC4
  8
MSM_CONTINUOUS
 10
68.932499669519984
 20
135.0971022256949
 30
0.0
 11
71.832499669519962
 21
135.0971022256949
 31
0.0
  0
LINE
  5
10AC5
  8
MSM_CONTINUOUS
 10
65.832499669519962
 20
130.0971022256949
 30
0.0
 11
68.932499669519984
 21
130.0971022256949
 31
0.0
  0
LINE
  5
10AC6
  8
MSM_CONTINUOUS
 10
65.832499669519962
 20
136.5971022256949
 30
0.0
 11
68.932499669519984
 21
136.5971022256949
 31
0.0
  0
LINE
  5
10AC7
  8
MSM_CONTINUOUS
 10
68.932499669519984
 20
136.5971022256949
 30
0.0
 11
68.932499669519984
 21
130.0971022256949
 31
0.0
  0
LINE
  5
10AC8
  8
MSM_CENTER
 10
63.832499669519962
 20
133.3471022256949
 30
0.0
 11
73.832499669519962
 21
133.3471022256949
 31
0.0
  0
LINE
  5
10AC9
  8
MSM_CENTER
 10
63.832499669519962
 20
173.3471022256949
 30
0.0
 11
73.832499669519962
 21
173.3471022256949
 31
0.0
  0
LINE
  5
10ACA
  8
MSM_CONTINUOUS
 10
65.832499669519962
 20
177.3471022256949
 30
0.0
 11
71.832499669519962
 21
177.3471022256949
 31
0.0
  0
LINE
  5
10ACB
  8
MSM_CONTINUOUS
 10
65.832499669519962
 20
167.3471022256949
 30
0.0
 11
73.832499669519962
 21
167.3471022256949
 31
0.0
  0
LINE
  5
10ACC
  8
MSM_CONTINUOUS
 10
71.832499669519962
 20
129.3471022256949
 30
0.0
 11
65.832499669519962
 21
129.3471022256949
 31
0.0
  0
LINE
  5
10ACD
  8
MSM_CENTER
 10
63.832499669519962
 20
153.3471022256949
 30
0.0
 11
75.832499669519962
 21
153.3471022256949
 31
0.0
  0
LINE
  5
10ACE
  8
MSM_CONTINUOUS
 10
65.832499669519962
 20
139.3471022256949
 30
0.0
 11
73.832499669519962
 21
139.3471022256949
 31
0.0
  0
LINE
  5
10ACF
  8
MSM_CONTINUOUS
 10
73.832499669519962
 20
169.3471022256949
 30
0.0
 11
73.832499669519962
 21
137.3471022256949
 31
0.0
  0
LINE
  5
10AD0
  8
MSM_CONTINUOUS
 10
65.832499669519962
 20
129.3471022256949
 30
0.0
 11
65.832499669519962
 21
177.3471022256949
 31
0.0
  0
LINE
  5
10AD1
  8
MSM_CONTINUOUS
 10
71.832499669519962
 20
137.3471022256949
 30
0.0
 11
73.832499669519962
 21
137.3471022256949
 31
0.0
  0
LINE
  5
10AD2
  8
MSM_CONTINUOUS
 10
71.832499669519962
 20
129.3471022256949
 30
0.0
 11
71.832499669519962
 21
137.3471022256949
 31
0.0
  0
LINE
  5
10AD3
  8
MSM_CONTINUOUS
 10
71.832499669519962
 20
169.3471022256949
 30
0.0
 11
73.832499669519962
 21
169.3471022256949
 31
0.0
  0
LINE
  5
10AD4
  8
MSM_CONTINUOUS
 10
71.832499669519962
 20
169.3471022256949
 30
0.0
 11
71.832499669519962
 21
177.3471022256949
 31
0.0
  0
CIRCLE
  5
10AD6
  8
MSM_CONTINUOUS
 10
24.0
 20
133.34710222569501
 30
0.0
 40
1.75
  0
CIRCLE
  5
10AD7
  8
MSM_CONTINUOUS
 10
24.0
 20
133.34710222569501
 30
0.0
 40
3.25
  0
CIRCLE
  5
10AD8
  8
MSM_CONTINUOUS
 10
24.0
 20
173.34710222569501
 30
0.0
 40
1.75
  0
CIRCLE
  5
10AD9
  8
MSM_CONTINUOUS
 10
24.0
 20
173.34710222569501
 30
0.0
 40
3.25
  0
CIRCLE
  5
10ADA
  8
MSM_CONTINUOUS
 10
44.0
 20
153.34710222569501
 30
0.0
 40
1.75
  0
CIRCLE
  5
10ADB
  8
MSM_CONTINUOUS
 10
44.0
 20
153.34710222569501
 30
0.0
 40
3.25
  0
CIRCLE
  5
10ADC
  8
MSM_CONTINUOUS
 10
4.0
 20
153.34710222569501
 30
0.0
 40
1.75
  0
CIRCLE
  5
10ADD
  8
MSM_CONTINUOUS
 10
4.0
 20
153.34710222569501
 30
0.0
 40
3.25
  0
CIRCLE
  5
10ADE
  8
MSM_CONTINUOUS
 10
24.0
 20
153.34710222569501
 30
0.0
 40
24.0
  0
CIRCLE
  5
10ADF
  8
MSM_CONTINUOUS
 10
24.0
 20
153.34710222569501
 30
0.0
 40
13.999999999999909
  0
CIRCLE
  5
10AE0
  8
MSM_CENTER
 10
24.0
 20
153.34710222569501
 30
0.0
 40
20.0
  0
CIRCLE
  5
10AE1
  8
MSM_DASHED
 10
24.0
 20
153.34710222569501
 30
0.0
 40
16.0
  0
LINE
  5
10AE2
  8
MSM_CENTER
 10
50.0
 20
153.34710222569501
 30
0.0
 11
-2.0
 21
153.34710222569501
 31
0.0
  0
LINE
  5
10AE3
  8
MSM_CENTER
 10
24.0
 20
179.34710222569501
 30
0.0
 11
24.0
 21
127.347102225695
 31
0.0
  0
CIRCLE
  5
10AE4
  8
MSM_CONTINUOUS
 10
147.51493471531961
 20
67.499999999999943
 30
0.0
 40
1.2295
  0
CIRCLE
  5
10AE5
  8
MSM_NARROW
 10
147.51493471531961
 20
67.499999999999943
 30
0.0
 40
1.5
  0
LINE
  5
10AE6
  8
MSM_CENTER
 10
-1.0
 20
67.500000000000014
 30
0.0
 11
11.70985215596863
 21
67.500000000000014
 31
0.0
  0
LINE
  5
10AE7
  8
MSM_NARROW
 10
0.0
 20
68.999999999999943
 30
0.0
 11
6.0
 21
68.999999999999943
 31
0.0
  0
LINE
  5
10AE8
  8
MSM_CONTINUOUS
 10
0.0
 20
68.729499999999945
 30
0.0
 11
10.0
 21
68.729499999999945
 31
0.0
  0
LINE
  5
10AE9
  8
MSM_CONTINUOUS
 10
0.0
 20
66.270499999999956
 30
0.0
 11
10.0
 21
66.270499999999956
 31
0.0
  0
LINE
  5
10AEA
  8
MSM_NARROW
 10
6.0
 20
68.999999999999943
 30
0.0
 11
7.0
 21
68.729499999999945
 31
0.0
  0
LINE
  5
10AEB
  8
MSM_CONTINUOUS
 10
10.0
 20
66.270499999999984
 30
0.0
 11
10.0
 21
68.729499999999945
 31
0.0
  0
LINE
  5
10AEC
  8
MSM_CONTINUOUS
 10
10.0
 20
66.270499999999956
 30
0.0
 11
10.70985215596863
 21
67.499999999999986
 31
0.0
  0
LINE
  5
10AED
  8
MSM_CONTINUOUS
 10
10.0
 20
68.729499999999945
 30
0.0
 11
10.70985215596863
 21
67.499999999999986
 31
0.0
  0
LINE
  5
10AEE
  8
MSM_NARROW
 10
6.0
 20
65.999999999999957
 30
0.0
 11
7.0
 21
66.270499999999956
 31
0.0
  0
LINE
  5
10AEF
  8
MSM_CONTINUOUS
 10
6.0
 20
65.999999999999957
 30
0.0
 11
6.0
 21
68.999999999999943
 31
0.0
  0
LINE
  5
10AF0
  8
MSM_NARROW
 10
6.0
 20
65.999999999999957
 30
0.0
 11
0.0
 21
65.999999999999957
 31
0.0
  0
LINE
  5
10AF1
  8
MSM_CENTER
 10
55.0
 20
67.500000000000014
 30
0.0
 11
42.29014784403136
 21
67.500000000000014
 31
0.0
  0
LINE
  5
10AF2
  8
MSM_NARROW
 10
54.0
 20
66.000000000000071
 30
0.0
 11
48.0
 21
66.000000000000085
 31
0.0
  0
LINE
  5
10AF3
  8
MSM_CONTINUOUS
 10
54.0
 20
66.270500000000069
 30
0.0
 11
44.0
 21
66.270500000000069
 31
0.0
  0
LINE
  5
10AF4
  8
MSM_CONTINUOUS
 10
54.0
 20
68.729500000000073
 30
0.0
 11
44.0
 21
68.729500000000073
 31
0.0
  0
LINE
  5
10AF5
  8
MSM_NARROW
 10
54.0
 20
69.000000000000071
 30
0.0
 11
48.0
 21
69.000000000000071
 31
0.0
  0
LINE
  5
10AF6
  8
MSM_NARROW
 10
48.0
 20
66.000000000000071
 30
0.0
 11
47.531480256552641
 21
66.270500000000069
 31
0.0
  0
LINE
  5
10AF7
  8
MSM_CONTINUOUS
 10
44.0
 20
68.729500000000044
 30
0.0
 11
44.0
 21
66.270500000000084
 31
0.0
  0
LINE
  5
10AF8
  8
MSM_CONTINUOUS
 10
44.0
 20
68.729500000000073
 30
0.0
 11
43.290147844031367
 21
67.500000000000043
 31
0.0
  0
LINE
  5
10AF9
  8
MSM_CONTINUOUS
 10
44.0
 20
66.270500000000069
 30
0.0
 11
43.290147844031367
 21
67.500000000000043
 31
0.0
  0
LINE
  5
10AFA
  8
MSM_NARROW
 10
48.0
 20
69.000000000000071
 30
0.0
 11
47.531480256552641
 21
68.729500000000073
 31
0.0
  0
LINE
  5
10AFB
  8
MSM_CONTINUOUS
 10
48.0
 20
69.000000000000071
 30
0.0
 11
48.0
 21
66.000000000000071
 31
0.0
  0
LINE
  5
10B05
  8
MSM_CENTER
 10
175.44565257218829
 20
75.430717856868569
 30
0.0
 11
117.4628965148914
 21
17.447961799571711
 31
0.0
  0
LINE
  5
10B06
  8
MSM_CONTINUOUS
 10
147.5149347153197
 20
90.0
 30
0.0
 11
147.5149347153197
 21
92.0
 31
0.0
  0
LINE
  5
10B08
  8
MSM_CONTINUOUS
 10
116.0486829525185
 20
16.033748237198779
 30
0.0
 11
117.4628965148914
 21
17.447961799571662
 31
0.0
  0
LINE
  5
10B0A
  8
MSM_CONTINUOUS
 10
147.51493471531961
 20
47.500000000000057
 30
0.0
 11
147.51493471531961
 21
49.500000000000057
 31
0.0
  0
LINE
  5
10B0B
  8
MSM_CONTINUOUS
 10
146.10072115294679
 20
46.085786437627121
 30
0.0
 11
147.51493471531961
 21
47.5
 31
0.0
  0
CIRCLE
  5
10B0C
  8
MSM_CONTINUOUS
 10
127.5149347153196
 20
47.5
 30
0.0
 40
1.2295
  0
CIRCLE
  5
10B0D
  8
MSM_NARROW
 10
127.5149347153196
 20
47.5
 30
0.0
 40
1.5
  0
CIRCLE
  5
10B0E
  8
MSM_CONTINUOUS
 10
167.51493471531961
 20
47.5
 30
0.0
 40
1.2295
  0
CIRCLE
  5
10B0F
  8
MSM_NARROW
 10
167.51493471531961
 20
47.5
 30
0.0
 40
1.5
  0
CIRCLE
  5
10B10
  8
MSM_CONTINUOUS
 10
147.51493471531961
 20
27.5
 30
0.0
 40
1.2295
  0
CIRCLE
  5
10B11
  8
MSM_NARROW
 10
147.51493471531961
 20
27.5
 30
0.0
 40
1.5
  0
CIRCLE
  5
10B12
  8
MSM_CONTINUOUS
 10
169.43524493210259
 20
69.42031021678298
 30
0.0
 40
5.5
  0
CIRCLE
  5
10B13
  8
MSM_CONTINUOUS
 10
169.43524493210259
 20
69.42031021678298
 30
0.0
 40
3.299999999999998
  0
CIRCLE
  5
10B14
  8
MSM_CONTINUOUS
 10
125.5946244985367
 20
25.579689783216981
 30
0.0
 40
5.5
  0
CIRCLE
  5
10B15
  8
MSM_CONTINUOUS
 10
125.5946244985367
 20
25.579689783216981
 30
0.0
 40
3.299999999999998
  0
CIRCLE
  5
10B16
  8
MSM_CONTINUOUS
 10
169.43524493210259
 20
25.579689783217081
 30
0.0
 40
5.5
  0
CIRCLE
  5
10B17
  8
MSM_CONTINUOUS
 10
169.43524493210259
 20
25.579689783217081
 30
0.0
 40
3.299999999999998
  0
LINE
  5
10B18
  8
MSM_CENTER
 10
175.44565257218829
 20
19.569282143131399
 30
0.0
 11
119.5842168584511
 21
75.430717856868682
 31
0.0
  0
LINE
  5
10B1A
  8
MSM_CONTINUOUS
 10
123.4629456709042
 20
169.3471022256949
 30
0.0
 11
123.4629456709042
 21
177.3471022256949
 31
0.0
  0
LINE
  5
10B1B
  8
MSM_CONTINUOUS
 10
123.4629456709042
 20
169.3471022256949
 30
0.0
 11
121.4629456709042
 21
169.3471022256949
 31
0.0
  0
LINE
  5
10B1C
  8
MSM_CONTINUOUS
 10
123.4629456709042
 20
129.34710222569501
 30
0.0
 11
123.4629456709042
 21
137.3471022256949
 31
0.0
  0
LINE
  5
10B1D
  8
MSM_CONTINUOUS
 10
123.4629456709042
 20
137.3471022256949
 30
0.0
 11
121.4629456709042
 21
137.3471022256949
 31
0.0
  0
LINE
  5
10B1E
  8
MSM_CONTINUOUS
 10
129.46294567090419
 20
129.34710222569501
 30
0.0
 11
129.46294567090419
 21
177.3471022256949
 31
0.0
  0
LINE
  5
10B1F
  8
MSM_CONTINUOUS
 10
121.4629456709042
 20
169.3471022256949
 30
0.0
 11
121.4629456709042
 21
137.3471022256949
 31
0.0
  0
LINE
  5
10B20
  8
MSM_CONTINUOUS
 10
126.4629456709042
 20
139.3471022256949
 30
0.0
 11
121.4629456709042
 21
139.3471022256949
 31
0.0
  0
LINE
  5
10B21
  8
MSM_CONTINUOUS
 10
123.4629456709042
 20
129.34710222569501
 30
0.0
 11
129.46294567090419
 21
129.34710222569501
 31
0.0
  0
LINE
  5
10B22
  8
MSM_CONTINUOUS
 10
126.4629456709042
 20
167.3471022256949
 30
0.0
 11
121.4629456709042
 21
167.3471022256949
 31
0.0
  0
LINE
  5
10B23
  8
MSM_CONTINUOUS
 10
129.46294567090419
 20
177.3471022256949
 30
0.0
 11
123.4629456709042
 21
177.3471022256949
 31
0.0
  0
LINE
  5
10B24
  8
MSM_CONTINUOUS
 10
126.3629456709044
 20
136.5971022256949
 30
0.0
 11
126.3629456709044
 21
130.09710222569501
 31
0.0
  0
LINE
  5
10B25
  8
MSM_CONTINUOUS
 10
129.46294567090419
 20
136.5971022256949
 30
0.0
 11
126.3629456709044
 21
136.5971022256949
 31
0.0
  0
LINE
  5
10B26
  8
MSM_CONTINUOUS
 10
129.46294567090419
 20
130.09710222569501
 30
0.0
 11
126.3629456709044
 21
130.09710222569501
 31
0.0
  0
LINE
  5
10B27
  8
MSM_CONTINUOUS
 10
126.3629456709044
 20
135.0971022256949
 30
0.0
 11
123.4629456709042
 21
135.0971022256949
 31
0.0
  0
LINE
  5
10B28
  8
MSM_CONTINUOUS
 10
126.3629456709044
 20
131.5971022256949
 30
0.0
 11
123.4629456709042
 21
131.5971022256949
 31
0.0
  0
LINE
  5
10B29
  8
MSM_CONTINUOUS
 10
126.3629456709044
 20
170.0971022256949
 30
0.0
 11
126.3629456709044
 21
176.59710222569501
 31
0.0
  0
LINE
  5
10B2A
  8
MSM_CONTINUOUS
 10
129.46294567090419
 20
170.0971022256949
 30
0.0
 11
126.3629456709044
 21
170.0971022256949
 31
0.0
  0
LINE
  5
10B2B
  8
MSM_CONTINUOUS
 10
129.46294567090419
 20
176.59710222569501
 30
0.0
 11
126.3629456709044
 21
176.59710222569501
 31
0.0
  0
LINE
  5
10B2C
  8
MSM_CONTINUOUS
 10
126.3629456709044
 20
171.5971022256949
 30
0.0
 11
123.4629456709042
 21
171.5971022256949
 31
0.0
  0
LINE
  5
10B2D
  8
MSM_CONTINUOUS
 10
126.3629456709044
 20
175.0971022256949
 30
0.0
 11
123.4629456709042
 21
175.0971022256949
 31
0.0
  0
LINE
  5
10B2E
  8
MSM_CENTER
 10
131.46294567090419
 20
153.3471022256949
 30
0.0
 11
119.4629456709042
 21
153.3471022256949
 31
0.0
  0
LINE
  5
10B2F
  8
MSM_CENTER
 10
131.46294567090419
 20
173.34710222569501
 30
0.0
 11
121.4629456709042
 21
173.3471022256949
 31
0.0
  0
LINE
  5
10B30
  8
MSM_CENTER
 10
131.46294567090419
 20
133.3471022256949
 30
0.0
 11
121.4629456709042
 21
133.3471022256949
 31
0.0
  0
LINE
  5
10B31
  8
MSM_CONTINUOUS
 10
126.4629456709042
 20
139.3471022256949
 30
0.0
 11
126.4629456709042
 21
167.3471022256949
 31
0.0
  0
LINE
  5
10B32
  8
MSM_CONTINUOUS
 10
129.46294567090419
 20
163.8471022256949
 30
0.0
 11
126.4629456709042
 21
163.8471022256949
 31
0.0
  0
LINE
  5
10B33
  8
MSM_CONTINUOUS
 10
129.46294567090419
 20
142.8471022256949
 30
0.0
 11
126.4629456709042
 21
142.8471022256949
 31
0.0
  0
LINE
  5
10B34
  8
MSM_CENTER
 10
201.99757924539691
 20
153.3471022256949
 30
0.0
 11
149.99757924539679
 21
153.3471022256949
 31
0.0
  0
LINE
  5
10B35
  8
MSM_CENTER
 10
175.99757924539679
 20
179.3471022256949
 30
0.0
 11
175.99757924539679
 21
127.3471022256949
 31
0.0
  0
CIRCLE
  5
10B36
  8
MSM_CONTINUOUS
 10
175.99757924539679
 20
153.3471022256949
 30
0.0
 40
10.5
  0
CIRCLE
  5
10B37
  8
MSM_CONTINUOUS
 10
175.99757924539679
 20
153.3471022256949
 30
0.0
 40
24.0
  0
CIRCLE
  5
10B38
  8
MSM_CENTER
 10
175.99757924539679
 20
153.3471022256949
 30
0.0
 40
20.0
  0
CIRCLE
  5
10B39
  8
MSM_CONTINUOUS
 10
175.99757924539679
 20
173.3471022256949
 30
0.0
 40
1.75
  0
CIRCLE
  5
10B3A
  8
MSM_CONTINUOUS
 10
175.99757924539679
 20
173.3471022256949
 30
0.0
 40
3.25
  0
CIRCLE
  5
10B3B
  8
MSM_DASHED
 10
175.99757924539679
 20
153.3471022256949
 30
0.0
 40
16.0
  0
CIRCLE
  5
10B3C
  8
MSM_CONTINUOUS
 10
155.99757924539679
 20
153.3471022256949
 30
0.0
 40
1.75
  0
CIRCLE
  5
10B3D
  8
MSM_CONTINUOUS
 10
155.99757924539679
 20
153.3471022256949
 30
0.0
 40
3.25
  0
CIRCLE
  5
10B3E
  8
MSM_CONTINUOUS
 10
175.99757924539679
 20
133.3471022256949
 30
0.0
 40
1.75
  0
CIRCLE
  5
10B3F
  8
MSM_CONTINUOUS
 10
175.99757924539679
 20
133.3471022256949
 30
0.0
 40
3.25
  0
CIRCLE
  5
10B40
  8
MSM_CONTINUOUS
 10
195.99757924539691
 20
153.3471022256949
 30
0.0
 40
1.75
  0
CIRCLE
  5
10B41
  8
MSM_CONTINUOUS
 10
195.99757924539691
 20
153.3471022256949
 30
0.0
 40
3.25
  0
LINE
  5
10B43
  8
MSM_CENTER
 10
332.47797807289152
 20
153.3471022256949
 30
0.0
 11
280.47797807289152
 21
153.3471022256949
 31
0.0
  0
LINE
  5
10B44
  8
MSM_CENTER
 10
306.4779780728914
 20
179.3471022256949
 30
0.0
 11
306.4779780728914
 21
127.3471022256949
 31
0.0
  0
CIRCLE
  5
10B45
  8
MSM_CONTINUOUS
 10
306.4779780728914
 20
153.3471022256949
 30
0.0
 40
10.000000000000229
  0
CIRCLE
  5
10B46
  8
MSM_CONTINUOUS
 10
306.4779780728914
 20
153.3471022256949
 30
0.0
 40
16.0
  0
CIRCLE
  5
10B47
  8
MSM_CENTER
 10
306.4779780728914
 20
153.3471022256949
 30
0.0
 40
20.0
  0
CIRCLE
  5
10B48
  8
MSM_CONTINUOUS
 10
306.4779780728914
 20
153.3471022256949
 30
0.0
 40
24.0
  0
CIRCLE
  5
10B49
  8
MSM_CONTINUOUS
 10
306.4779780728914
 20
173.3471022256949
 30
0.0
 40
3.25
  0
CIRCLE
  5
10B4A
  8
MSM_CONTINUOUS
 10
306.4779780728914
 20
173.3471022256949
 30
0.0
 40
1.75
  0
CIRCLE
  5
10B4B
  8
MSM_CONTINUOUS
 10
286.47797807289152
 20
153.3471022256949
 30
0.0
 40
3.25
  0
CIRCLE
  5
10B4C
  8
MSM_CONTINUOUS
 10
286.47797807289152
 20
153.3471022256949
 30
0.0
 40
1.75
  0
CIRCLE
  5
10B4D
  8
MSM_CONTINUOUS
 10
306.4779780728914
 20
133.3471022256949
 30
0.0
 40
3.25
  0
CIRCLE
  5
10B4E
  8
MSM_CONTINUOUS
 10
306.4779780728914
 20
133.3471022256949
 30
0.0
 40
1.75
  0
CIRCLE
  5
10B4F
  8
MSM_CONTINUOUS
 10
326.47797807289152
 20
153.3471022256949
 30
0.0
 40
3.25
  0
CIRCLE
  5
10B50
  8
MSM_CONTINUOUS
 10
326.47797807289152
 20
153.3471022256949
 30
0.0
 40
1.75
  0
LINE
  5
10B51
  8
MSM_CONTINUOUS
 10
382.95893761855541
 20
163.34710222569501
 30
0.0
 11
381.15893761855551
 21
163.34710222569501
 31
0.0
  0
LINE
  5
10B52
  8
MSM_CONTINUOUS
 10
388.15893761855523
 20
163.34710222569501
 30
0.0
 11
386.15893761855523
 21
163.34710222569501
 31
0.0
  0
LINE
  5
10B53
  8
MSM_CONTINUOUS
 10
386.15893761855523
 20
165.34710222569501
 30
0.0
 11
382.95893761855541
 21
165.34710222569501
 31
0.0
  0
LINE
  5
10B54
  8
MSM_CONTINUOUS
 10
381.15893761855551
 20
167.3471022256951
 30
0.0
 11
381.15893761855551
 21
139.34710222569501
 31
0.0
  0
LINE
  5
10B55
  8
MSM_CONTINUOUS
 10
386.15893761855523
 20
141.34710222569501
 30
0.0
 11
382.95893761855541
 21
141.34710222569501
 31
0.0
  0
LINE
  5
10B56
  8
MSM_CONTINUOUS
 10
382.15893761855529
 20
129.34710222569501
 30
0.0
 11
388.15893761855523
 21
129.34710222569501
 31
0.0
  0
LINE
  5
10B57
  8
MSM_CONTINUOUS
 10
382.15893761855529
 20
137.34710222569521
 30
0.0
 11
382.15893761855529
 21
129.34710222569501
 31
0.0
  0
LINE
  5
10B58
  8
MSM_CONTINUOUS
 10
382.95893761855541
 20
143.34710222569501
 30
0.0
 11
381.15893761855551
 21
143.34710222569501
 31
0.0
  0
LINE
  5
10B59
  8
MSM_CONTINUOUS
 10
388.15893761855523
 20
143.34710222569501
 30
0.0
 11
386.15893761855523
 21
143.34710222569501
 31
0.0
  0
LINE
  5
10B5A
  8
MSM_CONTINUOUS
 10
388.15893761855523
 20
177.34710222569521
 30
0.0
 11
382.15893761855529
 21
177.34710222569521
 31
0.0
  0
LINE
  5
10B5B
  8
MSM_CONTINUOUS
 10
382.15893761855529
 20
177.34710222569521
 30
0.0
 11
382.15893761855529
 21
169.34710222569521
 31
0.0
  0
LINE
  5
10B5C
  8
MSM_CONTINUOUS
 10
381.15893761855551
 20
167.3471022256951
 30
0.0
 11
380.15893761855563
 21
167.3471022256951
 31
0.0
  0
LINE
  5
10B5D
  8
MSM_CONTINUOUS
 10
381.15893761855551
 20
139.34710222569501
 30
0.0
 11
380.15893761855563
 21
139.34710222569501
 31
0.0
  0
LINE
  5
10B5E
  8
MSM_CONTINUOUS
 10
380.15893761855563
 20
169.34710222569521
 30
0.0
 11
380.15893761855563
 21
137.34710222569521
 31
0.0
  0
LINE
  5
10B5F
  8
MSM_CONTINUOUS
 10
382.15893761855529
 20
169.34710222569521
 30
0.0
 11
380.15893761855563
 21
169.34710222569521
 31
0.0
  0
LINE
  5
10B60
  8
MSM_CENTER
 10
390.15893761855523
 20
153.3471022256949
 30
0.0
 11
378.15893761855563
 21
153.3471022256949
 31
0.0
  0
LINE
  5
10B61
  8
MSM_CONTINUOUS
 10
382.15893761855529
 20
137.34710222569521
 30
0.0
 11
380.15893761855563
 21
137.34710222569521
 31
0.0
  0
LINE
  5
10B62
  8
MSM_CONTINUOUS
 10
388.15893761855523
 20
129.34710222569501
 30
0.0
 11
388.15893761855523
 21
177.34710222569521
 31
0.0
  0
LINE
  5
10B63
  8
MSM_CONTINUOUS
 10
386.15893761855523
 20
141.34710222569501
 30
0.0
 11
386.15893761855523
 21
165.34710222569501
 31
0.0
  0
LINE
  5
10B64
  8
MSM_CONTINUOUS
 10
382.95893761855541
 20
141.34710222569501
 30
0.0
 11
382.95893761855541
 21
165.34710222569501
 31
0.0
  0
LINE
  5
10B65
  8
MSM_CENTER
 10
390.15893761855523
 20
173.34710222569521
 30
0.0
 11
380.1589376185554
 21
173.34710222569521
 31
0.0
  0
LINE
  5
10B66
  8
MSM_CENTER
 10
390.15893761855523
 20
133.3471022256951
 30
0.0
 11
380.1589376185554
 21
133.3471022256951
 31
0.0
  0
LINE
  5
10B67
  8
MSM_CONTINUOUS
 10
385.05893761855532
 20
170.09710222569529
 30
0.0
 11
385.05893761855532
 21
176.59710222569529
 31
0.0
  0
LINE
  5
10B68
  8
MSM_CONTINUOUS
 10
388.15893761855523
 20
170.09710222569529
 30
0.0
 11
385.05893761855532
 21
170.09710222569529
 31
0.0
  0
LINE
  5
10B69
  8
MSM_CONTINUOUS
 10
388.15893761855523
 20
176.59710222569529
 30
0.0
 11
385.05893761855532
 21
176.59710222569529
 31
0.0
  0
LINE
  5
10B6A
  8
MSM_CONTINUOUS
 10
385.05893761855532
 20
171.59710222569501
 30
0.0
 11
382.15893761855529
 21
171.59710222569501
 31
0.0
  0
LINE
  5
10B6B
  8
MSM_CONTINUOUS
 10
385.05893761855532
 20
175.09710222569521
 30
0.0
 11
382.15893761855529
 21
175.09710222569521
 31
0.0
  0
LINE
  5
10B6C
  8
MSM_CONTINUOUS
 10
385.05893761855532
 20
136.59710222569501
 30
0.0
 11
385.05893761855532
 21
130.09710222569501
 31
0.0
  0
LINE
  5
10B6D
  8
MSM_CONTINUOUS
 10
388.15893761855523
 20
136.59710222569501
 30
0.0
 11
385.05893761855532
 21
136.59710222569501
 31
0.0
  0
LINE
  5
10B6E
  8
MSM_CONTINUOUS
 10
388.15893761855523
 20
130.09710222569501
 30
0.0
 11
385.05893761855532
 21
130.09710222569501
 31
0.0
  0
LINE
  5
10B6F
  8
MSM_CONTINUOUS
 10
385.05893761855532
 20
135.09710222569501
 30
0.0
 11
382.15893761855529
 21
135.09710222569501
 31
0.0
  0
LINE
  5
10B70
  8
MSM_CONTINUOUS
 10
385.05893761855532
 20
131.59710222569521
 30
0.0
 11
382.15893761855529
 21
131.59710222569521
 31
0.0
  0
LINE
  5
10B71
  8
MSM_CENTER
 10
465.21603447487178
 20
153.3471022256949
 30
0.0
 11
413.216034474872
 21
153.3471022256949
 31
0.0
  0
LINE
  5
10B72
  8
MSM_CENTER
 10
439.21603447487189
 20
179.3471022256949
 30
0.0
 11
439.21603447487189
 21
127.3471022256949
 31
0.0
  0
CIRCLE
  5
10B73
  8
MSM_CONTINUOUS
 10
439.21603447487189
 20
153.3471022256949
 30
0.0
 40
24.0
  0
CIRCLE
  5
10B74
  8
MSM_CONTINUOUS
 10
439.21603447487189
 20
153.3471022256949
 30
0.0
 40
10.0
  0
CIRCLE
  5
10B75
  8
MSM_CONTINUOUS
 10
439.21603447487189
 20
173.3471022256949
 30
0.0
 40
3.25
  0
CIRCLE
  5
10B76
  8
MSM_CONTINUOUS
 10
439.21603447487189
 20
173.3471022256949
 30
0.0
 40
1.75
  0
CIRCLE
  5
10B77
  8
MSM_DASHED
 10
439.21603447487189
 20
153.3471022256949
 30
0.0
 40
16.0
  0
CIRCLE
  5
10B78
  8
MSM_CENTER
 10
439.21603447487189
 20
153.3471022256949
 30
0.0
 40
20.0
  0
CIRCLE
  5
10B79
  8
MSM_CONTINUOUS
 10
419.21603447487189
 20
153.3471022256949
 30
0.0
 40
3.25
  0
CIRCLE
  5
10B7A
  8
MSM_CONTINUOUS
 10
419.21603447487189
 20
153.3471022256949
 30
0.0
 40
1.75
  0
CIRCLE
  5
10B7B
  8
MSM_CONTINUOUS
 10
459.21603447487189
 20
153.3471022256949
 30
0.0
 40
3.25
  0
CIRCLE
  5
10B7C
  8
MSM_CONTINUOUS
 10
459.21603447487189
 20
153.3471022256949
 30
0.0
 40
1.75
  0
CIRCLE
  5
10B7D
  8
MSM_CONTINUOUS
 10
439.21603447487189
 20
133.3471022256949
 30
0.0
 40
3.25
  0
CIRCLE
  5
10B7E
  8
MSM_CONTINUOUS
 10
439.21603447487189
 20
133.3471022256949
 30
0.0
 40
1.75
  0
CIRCLE
  5
10B7F
  8
MSM_CONTINUOUS
 10
439.21603447487189
 20
153.3471022256949
 30
0.0
 40
9.9000000000000341
  0
CIRCLE
  5
10B80
  8
MSM_CONTINUOUS
 10
306.4779780728914
 20
153.3471022256949
 30
0.0
 40
16.577350000000141
  0
ARC
  5
10B81
  8
MSM_CONTINUOUS
 10
4.29999999999984
 20
39.699999999999989
 30
0.0
 40
0.3
 50
90.0
 51
180.0
  0
ARC
  5
10B82
  8
MSM_CONTINUOUS
 10
12.69999999999993
 20
39.699999999999989
 30
0.0
 40
0.3
 50
0.0
 51
90.0
  0
ARC
  5
10B83
  8
MSM_CONTINUOUS
 10
12.69999999999993
 20
31.800000000000001
 30
0.0
 40
0.3
 50
270.0
 51
0.0
  0
ARC
  5
10B84
  8
MSM_CONTINUOUS
 10
4.29999999999984
 20
31.800000000000001
 30
0.0
 40
0.3
 50
180.0
 51
270.0
  0
LINE
  5
10B85
  8
MSM_CONTINUOUS
 10
12.899999999999981
 20
33.550020000000089
 30
0.0
 11
12.439981607663411
 21
33.550020000000089
 31
0.0
  0
LINE
  5
10B86
  8
MSM_CONTINUOUS
 10
12.13397999999995
 20
33.807039999999994
 30
0.0
 11
12.286989999999941
 21
33.679050000000089
 31
0.0
  0
LINE
  5
10B87
  8
MSM_CONTINUOUS
 10
12.26198999999985
 20
33.960050000000003
 30
0.0
 11
12.13397999999995
 21
33.807050000000089
 31
0.0
  0
LINE
  5
10B88
  8
MSM_CONTINUOUS
 10
12.43996826715818
 20
33.550004099604891
 30
0.0
 11
12.190358232152789
 21
33.252528113154277
 31
0.0
  0
LINE
  5
10B89
  8
MSM_CONTINUOUS
 10
12.26198999999985
 20
33.960039999999978
 30
0.0
 11
12.415089445925901
 21
33.831960073933892
 31
0.0
  0
ARC
  5
10B8A
  8
MSM_CONTINUOUS
 10
12.286758882611821
 20
33.678561030522488
 30
0.0
 40
0.2
 50
320.0002210242821
 51
50.084823434108571
  0
LINE
  5
10B8B
  8
MSM_CONTINUOUS
 10
12.286989999999941
 20
33.679029999999997
 30
0.0
 11
12.03667478838417
 21
33.380680997470492
 31
0.0
  0
ARC
  5
10B8C
  8
MSM_CONTINUOUS
 10
12.899999999999981
 20
33.450020000000002
 30
0.0
 40
0.1
 50
0.0
 51
90.0
  0
LINE
  5
10B8D
  8
MSM_CONTINUOUS
 10
11.66168426812442
 20
33.419233683326581
 30
0.0
 11
11.59702885783588
 21
34.158729938501082
 31
0.0
  0
ARC
  5
10B8E
  8
MSM_CONTINUOUS
 10
11.497408895432841
 20
34.150019996433073
 30
0.0
 40
0.1
 50
4.9967606645697531
 51
89.999500725128357
  0
LINE
  5
10B8F
  8
MSM_CONTINUOUS
 10
11.86018771815804
 20
33.440035815599593
 30
0.0
 11
11.81699375541745
 21
34.316983755417503
 31
0.0
  0
LINE
  5
10B90
  8
MSM_CONTINUOUS
 10
11.61699999999996
 20
33.930309999999579
 30
0.0
 11
11.61699999999996
 21
34.399949999733288
 31
0.0
  0
LINE
  5
10B91
  8
MSM_CONTINUOUS
 10
11.497409766831881
 20
34.250019996429288
 30
0.0
 11
10.349443581454461
 21
34.250029999794513
 31
0.0
  0
LINE
  5
10B92
  8
MSM_CONTINUOUS
 10
11.36190250675372
 20
37.249999999999993
 30
0.0
 11
10.34941925006194
 21
37.249999999999993
 31
0.0
  0
LINE
  5
10B93
  8
MSM_CONTINUOUS
 10
11.81699375541745
 20
34.316983755417503
 30
0.0
 11
12.56699999999989
 21
35.066990000000089
 31
0.0
  0
LINE
  5
10B94
  8
MSM_CONTINUOUS
 10
11.61699999999996
 20
34.399949999733288
 30
0.0
 11
12.36699999999985
 21
35.149969999466691
 31
0.0
  0
ARC
  5
10B95
  8
MSM_CONTINUOUS
 10
11.96006663628145
 20
33.444955339407286
 30
0.0
 40
0.1
 50
182.8198177018717
 51
320.00330510521633
  0
LINE
  5
10B96
  8
MSM_CONTINUOUS
 10
12.799999999999841
 20
37.850019999999986
 30
0.0
 11
12.50001516961515
 21
37.850019999999986
 31
0.0
  0
ARC
  5
10B97
  8
MSM_CONTINUOUS
 10
12.36699999999985
 20
37.450009999999978
 30
0.0
 40
0.2
 50
0.0
 51
90.0
  0
LINE
  5
10B98
  8
MSM_CONTINUOUS
 10
12.50001516961515
 20
37.850019999999986
 30
0.0
 11
12.22438488655928
 21
38.178547410310188
 31
0.0
  0
ARC
  5
10B99
  8
MSM_CONTINUOUS
 10
12.07116751384137
 20
38.049999999999997
 30
0.0
 40
0.2
 50
39.996218642913398
 51
90.0
  0
LINE
  5
10B9A
  8
MSM_CONTINUOUS
 10
12.07116751384137
 20
38.249999999999993
 30
0.0
 11
12.006073797593899
 21
38.249999999999993
 31
0.0
  0
ARC
  5
10B9B
  8
MSM_CONTINUOUS
 10
12.799999999999841
 20
38.050020000000089
 30
0.0
 40
0.2
 50
270.0
 51
0.0
  0
LINE
  5
10B9C
  8
MSM_CONTINUOUS
 10
11.916999999999801
 20
37.650010000000101
 30
0.0
 11
11.916999999999801
 21
37.450009999999978
 31
0.0
  0
LINE
  5
10B9D
  8
MSM_CONTINUOUS
 10
11.916999999999801
 20
37.450009999999978
 30
0.0
 11
12.36699999999985
 21
37.450009999999978
 31
0.0
  0
LINE
  5
10B9E
  8
MSM_CONTINUOUS
 10
12.36699999999985
 20
37.650010000000101
 30
0.0
 11
11.916999999999801
 21
37.650010000000101
 31
0.0
  0
LINE
  5
10B9F
  8
MSM_CONTINUOUS
 10
11.81814495129481
 20
38.11843061251129
 30
0.0
 11
11.54983135305303
 21
37.381569387488867
 31
0.0
  0
ARC
  5
10BA0
  8
MSM_CONTINUOUS
 10
12.006073797593899
 20
38.049999999999997
 30
0.0
 40
0.2
 50
90.0
 51
159.99189532108389
  0
LINE
  5
10BA1
  8
MSM_CONTINUOUS
 10
12.36699999999985
 20
35.149969999466691
 30
0.0
 11
12.36699999999985
 21
37.450009999999978
 31
0.0
  0
LINE
  5
10BA2
  8
MSM_CONTINUOUS
 10
12.56699999999989
 20
35.066990000000089
 30
0.0
 11
12.56699999999989
 21
37.450009999999978
 31
0.0
  0
ARC
  5
10BA3
  8
MSM_CONTINUOUS
 10
11.36190250675372
 20
37.449999999999989
 30
0.0
 40
0.2
 50
270.0
 51
339.99189532108392
  0
LINE
  5
10BA4
  8
MSM_CONTINUOUS
 10
5.3383157318754684
 20
33.419233683326581
 30
0.0
 11
5.402971142164005
 21
34.158729938501082
 31
0.0
  0
ARC
  5
10BA5
  8
MSM_CONTINUOUS
 10
5.0399333637184318
 20
33.444955339407286
 30
0.0
 40
0.1
 50
219.9966948947837
 51
357.18018229812822
  0
LINE
  5
10BA6
  8
MSM_CONTINUOUS
 10
4.7130099999998256
 20
33.679029999999997
 30
0.0
 11
4.9633252116157101
 21
33.380680997470492
 31
0.0
  0
LINE
  5
10BA7
  8
MSM_CONTINUOUS
 10
4.7380099999999166
 20
33.960050000000003
 30
0.0
 11
4.8660199999998213
 21
33.807039999999994
 31
0.0
  0
LINE
  5
10BA8
  8
MSM_CONTINUOUS
 10
4.8660199999998213
 20
33.807039999999994
 30
0.0
 11
4.7130099999998256
 21
33.679029999999997
 31
0.0
  0
LINE
  5
10BA9
  8
MSM_CONTINUOUS
 10
5.3829999999999236
 20
33.93030999999884
 30
0.0
 11
5.3829999999999236
 21
34.399949999733288
 31
0.0
  0
LINE
  5
10BAA
  8
MSM_CONTINUOUS
 10
5.1398122818417269
 20
33.440035815599593
 30
0.0
 11
5.1830062445824288
 21
34.316983755417503
 31
0.0
  0
ARC
  5
10BAB
  8
MSM_CONTINUOUS
 10
5.5025911045669309
 20
34.150019996433073
 30
0.0
 40
0.1
 50
90.000499274806515
 51
175.0032393354237
  0
ARC
  5
10BAC
  8
MSM_CONTINUOUS
 10
4.1000000000000218
 20
33.450020000000002
 30
0.0
 40
0.1
 50
90.0
 51
180.0
  0
ARC
  5
10BAD
  8
MSM_CONTINUOUS
 10
4.7132411173880646
 20
33.678561030522488
 30
0.0
 40
0.2
 50
129.91517656589139
 51
219.9997789757179
  0
LINE
  5
10BAE
  8
MSM_CONTINUOUS
 10
4.0999999999997954
 20
33.550020000000089
 30
0.0
 11
4.5600183923363602
 21
33.550020000000089
 31
0.0
  0
LINE
  5
10BAF
  8
MSM_CONTINUOUS
 10
5.3829999999999236
 20
34.399949999733288
 30
0.0
 11
4.6329999999999236
 21
35.149969999466691
 31
0.0
  0
LINE
  5
10BB0
  8
MSM_CONTINUOUS
 10
5.1830062445824288
 20
34.316983755417503
 30
0.0
 11
4.432999999999879
 21
35.066990000000089
 31
0.0
  0
LINE
  5
10BB1
  8
MSM_CONTINUOUS
 10
4.7380099999999166
 20
33.960050000000003
 30
0.0
 11
4.584910554073871
 21
33.831960073933892
 31
0.0
  0
LINE
  5
10BB2
  8
MSM_CONTINUOUS
 10
4.560031732841594
 20
33.550004099604891
 30
0.0
 11
4.8096417678470971
 21
33.252528113154277
 31
0.0
  0
LINE
  5
10BB3
  8
MSM_CONTINUOUS
 10
5.6380974932460504
 20
37.249999999999993
 30
0.0
 11
6.6505807499378298
 21
37.249999999999993
 31
0.0
  0
LINE
  5
10BB4
  8
MSM_CONTINUOUS
 10
5.5025902331680072
 20
34.250019996429288
 30
0.0
 11
6.6505564185453059
 21
34.250029999794521
 31
0.0
  0
LINE
  5
10BB5
  8
MSM_CONTINUOUS
 10
5.1818550487050743
 20
38.11843061251129
 30
0.0
 11
5.4501686469469632
 21
37.381569387488867
 31
0.0
  0
ARC
  5
10BB6
  8
MSM_CONTINUOUS
 10
4.9939262024058726
 20
38.049999999999997
 30
0.0
 40
0.2
 50
20.00810467891613
 51
90.0
  0
LINE
  5
10BB7
  8
MSM_CONTINUOUS
 10
4.9288324861583979
 20
38.249999999999993
 30
0.0
 11
4.9939262024058726
 21
38.249999999999993
 31
0.0
  0
LINE
  5
10BB8
  8
MSM_CONTINUOUS
 10
5.0829999999998563
 20
37.650010000000101
 30
0.0
 11
5.0829999999998563
 21
37.450009999999978
 31
0.0
  0
ARC
  5
10BB9
  8
MSM_CONTINUOUS
 10
4.9288324861583979
 20
38.049999999999997
 30
0.0
 40
0.2
 50
90.0
 51
140.00378135708661
  0
ARC
  5
10BBA
  8
MSM_CONTINUOUS
 10
4.1999999999999309
 20
38.050020000000089
 30
0.0
 40
0.2
 50
180.0
 51
270.0
  0
ARC
  5
10BBB
  8
MSM_CONTINUOUS
 10
4.6329999999999236
 20
37.450009999999978
 30
0.0
 40
0.2
 50
90.0
 51
180.0
  0
LINE
  5
10BBC
  8
MSM_CONTINUOUS
 10
4.1999999999999309
 20
37.850019999999986
 30
0.0
 11
4.4999848303847321
 21
37.850019999999986
 31
0.0
  0
LINE
  5
10BBD
  8
MSM_CONTINUOUS
 10
4.4999848303847321
 20
37.850019999999986
 30
0.0
 11
4.7756151134406082
 21
38.178547410310188
 31
0.0
  0
LINE
  5
10BBE
  8
MSM_CONTINUOUS
 10
4.6329999999999236
 20
37.650010000000101
 30
0.0
 11
5.0829999999998563
 21
37.650010000000101
 31
0.0
  0
LINE
  5
10BBF
  8
MSM_CONTINUOUS
 10
5.0829999999998563
 20
37.450009999999978
 30
0.0
 11
4.6329999999999236
 21
37.450009999999978
 31
0.0
  0
LINE
  5
10BC0
  8
MSM_CONTINUOUS
 10
4.29999999999984
 20
39.999999999999993
 30
0.0
 11
12.69999999999993
 21
39.999999999999993
 31
0.0
  0
ARC
  5
10BC1
  8
MSM_CONTINUOUS
 10
5.6380974932460504
 20
37.449999999999989
 30
0.0
 40
0.2
 50
200.00810467891611
 51
270.0
  0
LINE
  5
10BC2
  8
MSM_CONTINUOUS
 10
4.432999999999879
 20
35.066990000000089
 30
0.0
 11
4.432999999999879
 21
37.450009999999978
 31
0.0
  0
LINE
  5
10BC3
  8
MSM_CONTINUOUS
 10
4.6329999999999236
 20
35.149969999466691
 30
0.0
 11
4.6329999999999236
 21
37.450009999999978
 31
0.0
  0
CIRCLE
  5
10BC4
  8
MSM_CONTINUOUS
 10
8.4999999999998863
 20
35.749999999999993
 30
0.0
 40
2.3812500000000001
  0
ARC
  5
10BC5
  8
MSM_CONTINUOUS
 10
11.96054415533342
 20
33.445363509530686
 30
0.0
 40
0.3
 50
184.99676066456891
 51
320.00022102425021
  0
ARC
  5
10BC6
  8
MSM_CONTINUOUS
 10
5.0394558446664632
 20
33.445363509530686
 30
0.0
 40
0.3
 50
219.9997789757289
 51
355.00323933543029
  0
LINE
  5
10BC8
  8
MSM_CONTINUOUS
 10
383.75893761855519
 20
142.39710222569491
 30
0.0
 11
383.75893761855519
 21
164.297102225695
 31
0.0
  0
ARC
  5
10BC9
  8
MSM_CONTINUOUS
 10
384.9589376185553
 20
164.09211961674319
 30
0.0
 40
1.2549826089517531
 50
45.269592348974903
 51
134.7304076510251
  0
ARC
  5
10BCA
  8
MSM_CONTINUOUS
 10
384.9589376185553
 20
164.50208483464669
 30
0.0
 40
1.2549826089517531
 50
225.2695923489749
 51
314.73040765102462
  0
ARC
  5
10BCB
  8
MSM_CONTINUOUS
 10
384.6613884020515
 20
164.297102225695
 30
0.0
 40
0.9024507834962886
 50
130.4647162204582
 51
229.5352837795418
  0
ARC
  5
10BCC
  8
MSM_CONTINUOUS
 10
385.25648683505881
 20
164.297102225695
 30
0.0
 40
0.9024507834962886
 50
310.46471622045817
 51
49.535283779533152
  0
ARC
  5
10BCD
  8
MSM_CONTINUOUS
 10
384.9589376185553
 20
142.60208483464669
 30
0.0
 40
1.2549826089517531
 50
225.2695923489749
 51
314.73040765102462
  0
ARC
  5
10BCE
  8
MSM_CONTINUOUS
 10
384.9589376185553
 20
142.1921196167431
 30
0.0
 40
1.2549826089517531
 50
45.269592348974903
 51
134.7304076510251
  0
ARC
  5
10BCF
  8
MSM_CONTINUOUS
 10
384.6613884020515
 20
142.39710222569491
 30
0.0
 40
0.9024507834962886
 50
130.4647162204582
 51
229.5352837795418
  0
ARC
  5
10BD0
  8
MSM_CONTINUOUS
 10
385.25648683505881
 20
142.39710222569491
 30
0.0
 40
0.9024507834962886
 50
310.46471622046681
 51
49.5352837795418
  0
LINE
  5
10BD6
  8
MSM_CONTINUOUS
 10
255.0691050878446
 20
169.34710222569521
 30
0.0
 11
256.0691050878446
 21
169.92445222569509
 31
0.0
  0
LINE
  5
10BD7
  8
MSM_CONTINUOUS
 10
249.06910508784469
 20
167.34710222569521
 30
0.0
 11
248.0691050878446
 21
167.34710222569521
 31
0.0
  0
LINE
  5
10BD8
  8
MSM_CONTINUOUS
 10
256.0691050878446
 20
177.34710222569521
 30
0.0
 11
250.0691050878446
 21
177.34710222569521
 31
0.0
  0
LINE
  5
10BD9
  8
MSM_CONTINUOUS
 10
250.0691050878446
 20
177.34710222569521
 30
0.0
 11
250.0691050878446
 21
169.34710222569521
 31
0.0
  0
LINE
  5
10BDA
  8
MSM_CONTINUOUS
 10
250.0691050878446
 20
169.34710222569521
 30
0.0
 11
248.0691050878446
 21
169.34710222569521
 31
0.0
  0
LINE
  5
10BDB
  8
MSM_CONTINUOUS
 10
250.0691050878446
 20
137.34710222569501
 30
0.0
 11
250.0691050878446
 21
129.3471022256951
 31
0.0
  0
LINE
  5
10BDC
  8
MSM_CONTINUOUS
 10
250.0691050878446
 20
137.34710222569501
 30
0.0
 11
248.0691050878446
 21
137.34710222569501
 31
0.0
  0
LINE
  5
10BDD
  8
MSM_CONTINUOUS
 10
255.0691050878446
 20
137.34710222569501
 30
0.0
 11
256.0691050878446
 21
136.7697522256951
 31
0.0
  0
LINE
  5
10BDE
  8
MSM_CONTINUOUS
 10
249.06910508784469
 20
139.3471022256949
 30
0.0
 11
248.0691050878446
 21
139.3471022256949
 31
0.0
  0
LINE
  5
10BDF
  8
MSM_CONTINUOUS
 10
250.0691050878446
 20
129.3471022256951
 30
0.0
 11
256.0691050878446
 21
129.3471022256951
 31
0.0
  0
LINE
  5
10BE0
  8
MSM_CENTER
 10
258.0691050878446
 20
153.3471022256949
 30
0.0
 11
246.0691050878446
 21
153.34710222569501
 31
0.0
  0
LINE
  5
10BE1
  8
MSM_CONTINUOUS
 10
251.0691050878446
 20
137.34710222569501
 30
0.0
 11
251.0691050878446
 21
169.34710222569521
 31
0.0
  0
LINE
  5
10BE2
  8
MSM_CONTINUOUS
 10
248.0691050878446
 20
169.34710222569521
 30
0.0
 11
248.0691050878446
 21
137.34710222569501
 31
0.0
  0
LINE
  5
10BE3
  8
MSM_CONTINUOUS
 10
256.0691050878446
 20
129.3471022256951
 30
0.0
 11
256.0691050878446
 21
177.34710222569521
 31
0.0
  0
LINE
  5
10BE4
  8
MSM_CONTINUOUS
 10
249.06910508784469
 20
167.34710222569521
 30
0.0
 11
249.06910508784469
 21
139.3471022256949
 31
0.0
  0
LINE
  5
10BE5
  8
MSM_CENTER
 10
258.0691050878446
 20
133.3471022256949
 30
0.0
 11
248.0691050878446
 21
133.34710222569501
 31
0.0
  0
LINE
  5
10BE6
  8
MSM_CENTER
 10
258.0691050878446
 20
173.34710222569521
 30
0.0
 11
248.0691050878446
 21
173.34710222569521
 31
0.0
  0
LINE
  5
10BE7
  8
MSM_CONTINUOUS
 10
252.9691050878447
 20
136.5971022256949
 30
0.0
 11
252.9691050878447
 21
130.0971022256949
 31
0.0
  0
LINE
  5
10BE8
  8
MSM_CONTINUOUS
 10
256.0691050878446
 20
136.5971022256949
 30
0.0
 11
252.9691050878447
 21
136.5971022256949
 31
0.0
  0
LINE
  5
10BE9
  8
MSM_CONTINUOUS
 10
256.0691050878446
 20
130.0971022256949
 30
0.0
 11
252.9691050878447
 21
130.0971022256949
 31
0.0
  0
LINE
  5
10BEA
  8
MSM_CONTINUOUS
 10
252.9691050878447
 20
135.0971022256949
 30
0.0
 11
250.0691050878446
 21
135.0971022256949
 31
0.0
  0
LINE
  5
10BEB
  8
MSM_CONTINUOUS
 10
252.9691050878447
 20
131.5971022256949
 30
0.0
 11
250.0691050878446
 21
131.5971022256949
 31
0.0
  0
LINE
  5
10BEC
  8
MSM_CONTINUOUS
 10
252.9691050878447
 20
170.09710222569501
 30
0.0
 11
252.9691050878447
 21
176.59710222569521
 31
0.0
  0
LINE
  5
10BED
  8
MSM_CONTINUOUS
 10
256.0691050878446
 20
170.09710222569501
 30
0.0
 11
252.9691050878447
 21
170.09710222569501
 31
0.0
  0
LINE
  5
10BEE
  8
MSM_CONTINUOUS
 10
256.0691050878446
 20
176.59710222569521
 30
0.0
 11
252.9691050878447
 21
176.59710222569521
 31
0.0
  0
LINE
  5
10BEF
  8
MSM_CONTINUOUS
 10
252.9691050878447
 20
171.5971022256951
 30
0.0
 11
250.0691050878446
 21
171.5971022256951
 31
0.0
  0
LINE
  5
10BF0
  8
MSM_CONTINUOUS
 10
252.9691050878447
 20
175.09710222569521
 30
0.0
 11
250.0691050878446
 21
175.09710222569521
 31
0.0
  0
LINE
  5
10BF4
  8
MSM_CONTINUOUS
 10
256.0691050878446
 20
163.34710222569521
 30
0.0
 11
251.0691050878446
 21
163.34710222569521
 31
0.0
  0
LINE
  5
10BF5
  8
MSM_CONTINUOUS
 10
256.0691050878446
 20
143.3471022256951
 30
0.0
 11
251.0691050878446
 21
143.3471022256951
 31
0.0
  0
LINE
  5
10BF6
  8
MSM_CONTINUOUS
 10
251.0691050878446
 20
142.34710222569501
 30
0.0
 11
249.06910508784469
 21
142.3471022256949
 31
0.0
  0
LINE
  5
10BF7
  8
MSM_CONTINUOUS
 10
251.0691050878446
 20
164.34710222569521
 30
0.0
 11
249.06910508784469
 21
164.34710222569521
 31
0.0
  0
LINE
  5
10BF8
  8
MSM_CONTINUOUS
 10
256.0691050878446
 20
169.34710222569521
 30
0.0
 11
251.0691050878446
 21
169.34710222569521
 31
0.0
  0
LINE
  5
10BF9
  8
MSM_CONTINUOUS
 10
256.0691050878446
 20
137.34710222569501
 30
0.0
 11
251.0691050878446
 21
137.34710222569501
 31
0.0
  0
POLYLINE
  5
10F93
  8
MSM_CONTINUOUS
 66
     1
 10
0.0
 20
0.0
 30
0.0
  0
VERTEX
  5
110FA
  8
MSM_CONTINUOUS
 10
147.51493471531981
 20
90.999999999999943
 30
0.0
  0
VERTEX
  5
110FB
  8
MSM_CONTINUOUS
 10
139.51493471531981
 20
90.999999999999943
 30
0.0
  0
SEQEND
  5
110FC
  8
MSM_CONTINUOUS
  0
LINE
  5
10F94
  8
MSM_CONTINUOUS
 10
145.01493471531981
 20
90.330127024999925
 30
0.0
 11
147.51493471531981
 21
90.999999999999943
 31
0.0
  0
LINE
  5
10F95
  8
MSM_CONTINUOUS
 10
147.51493471531981
 20
90.999999999999943
 30
0.0
 11
145.01493471531981
 21
91.669872974999947
 31
0.0
  0
LINE
  5
10FA1
  8
MSM_CONTINUOUS
 10
114.5143510575824
 20
18.034950248195361
 30
0.0
 11
116.7557897337049
 21
16.740855018385169
 31
0.0
  0
LINE
  5
10FA2
  8
MSM_CONTINUOUS
 10
116.7557897337049
 20
16.740855018385169
 30
0.0
 11
115.46169450389451
 21
18.9822936945076
 31
0.0
  0
LINE
  5
10FA3
  8
MSM_CONTINUOUS
 10
116.7557897337049
 20
16.740855018385169
 30
0.0
 11
111.09893548421221
 21
22.397709267877321
 31
0.0
  0
INSERT
  5
1107D
  8
MSM_CONTINUOUS
  2
*U17
 10
0.0
 20
0.0
 30
0.0
  0
INSERT
  5
1107E
  8
MSM_CONTINUOUS
  2
*U18
 10
0.0
 20
0.0
 30
0.0
  0
INSERT
  5
1107F
  8
MSM_CONTINUOUS
  2
*U19
 10
0.0
 20
0.0
 30
0.0
  0
INSERT
  5
11080
  8
MSM_CONTINUOUS
  2
*U20
 10
0.0
 20
0.0
 30
0.0
  0
ENDSEC
  0
EOF
