  0
SECTION
  2
HEADER
  9
$ACADVER
  1
AC1009
  9
$INSBASE
 10
0.0
 20
0.0
 30
0.0
  9
$EXTMIN
 10
40.0
 20
40.0
 30
0.0
  9
$EXTMAX
 10
858.36265998750048
 20
431.10986080901222
 30
0.0
  9
$LIMMIN
 10
0.0
 20
0.0
  9
$LIMMAX
 10
1680.0
 20
1188.0
  9
$ORTHOMODE
 70
     1
  9
$REGENMODE
 70
     1
  9
$FILLMODE
 70
     1
  9
$QTEXTMODE
 70
     0
  9
$MIRRTEXT
 70
     1
  9
$DRAGMODE
 70
     2
  9
$LTSCALE
 40
1.0
  9
$OSMODE
 70
   183
  9
$ATTMODE
 70
     1
  9
$TEXTSIZE
 40
4.0
  9
$TRACEWID
 40
1.0
  9
$TEXTSTYLE
  7
STANDARD
  9
$CLAYER
  8
0
  9
$CELTYPE
  6
CONTINUOUS
  9
$CECOLOR
 62
     7
  9
$DIMSCALE
 40
1.0
  9
$DIMASZ
 40
3.0
  9
$DIMEXO
 40
1.0
  9
$DIMDLI
 40
0.0
  9
$DIMRND
 40
0.0
  9
$DIMDLE
 40
0.0
  9
$DIMEXE
 40
1.0
  9
$DIMTP
 40
0.0
  9
$DIMTM
 40
0.0
  9
$DIMTXT
 40
3.2000000000000002
  9
$DIMCEN
 40
0.0
  9
$DIMTSZ
 40
0.0
  9
$DIMTOL
 70
     0
  9
$DIMLIM
 70
     0
  9
$DIMTIH
 70
     0
  9
$DIMTOH
 70
     0
  9
$DIMSE1
 70
     0
  9
$DIMSE2
 70
     0
  9
$DIMTAD
 70
     1
  9
$DIMZIN
 70
     8
  9
$DIMBLK
  1

  9
$DIMASO
 70
     1
  9
$DIMSHO
 70
     1
  9
$DIMPOST
  1

  9
$DIMAPOST
  1

  9
$DIMALT
 70
     0
  9
$DIMALTD
 70
     2
  9
$DIMALTF
 40
0.04
  9
$DIMLFAC
 40
1.0
  9
$DIMTOFL
 70
     1
  9
$DIMTVP
 40
1.0
  9
$DIMTIX
 70
     1
  9
$DIMSOXD
 70
     0
  9
$DIMSAH
 70
     0
  9
$DIMBLK1
  1

  9
$DIMBLK2
  1

  9
$DIMSTYLE
  2
MISUMI
  9
$DIMCLRD
 70
     0
  9
$DIMCLRE
 70
     0
  9
$DIMCLRT
 70
     0
  9
$DIMTFAC
 40
0.6
  9
$DIMGAP
 40
1.0
  9
$LUNITS
 70
     2
  9
$LUPREC
 70
     2
  9
$SKETCHINC
 40
1.0
  9
$FILLETRAD
 40
0.4
  9
$AUNITS
 70
     0
  9
$AUPREC
 70
     0
  9
$MENU
  1
acad
  9
$ELEVATION
 40
0.0
  9
$PELEVATION
 40
0.0
  9
$THICKNESS
 40
0.0
  9
$LIMCHECK
 70
     0
  9
$BLIPMODE
 70
     0
  9
$CHAMFERA
 40
0.0
  9
$CHAMFERB
 40
0.0
  9
$SKPOLY
 70
     0
  9
$TDCREATE
 40
2451466.6556420261
  9
$TDUPDATE
 40
2453825.5528191901
  9
$TDINDWG
 40
0.0456949421
  9
$TDUSRTIMER
 40
0.0456945833
  9
$USRTIMER
 70
     1
  9
$ANGBASE
 50
0.0
  9
$ANGDIR
 70
     0
  9
$PDMODE
 70
     1
  9
$PDSIZE
 40
0.0
  9
$PLINEWID
 40
0.0
  9
$COORDS
 70
     0
  9
$SPLFRAME
 70
     0
  9
$SPLINETYPE
 70
     6
  9
$SPLINESEGS
 70
     8
  9
$ATTDIA
 70
     0
  9
$ATTREQ
 70
     1
  9
$HANDLING
 70
     1
  9
$HANDSEED
  5
1E1
  9
$SURFTAB1
 70
     6
  9
$SURFTAB2
 70
     6
  9
$SURFTYPE
 70
     6
  9
$SURFU
 70
     6
  9
$SURFV
 70
     6
  9
$UCSNAME
  2

  9
$UCSORG
 10
0.0
 20
0.0
 30
0.0
  9
$UCSXDIR
 10
1.0
 20
0.0
 30
0.0
  9
$UCSYDIR
 10
0.0
 20
1.0
 30
0.0
  9
$PUCSNAME
  2

  9
$PUCSORG
 10
0.0
 20
0.0
 30
0.0
  9
$PUCSXDIR
 10
1.0
 20
0.0
 30
0.0
  9
$PUCSYDIR
 10
0.0
 20
1.0
 30
0.0
  9
$USERI1
 70
     0
  9
$USERI2
 70
     0
  9
$USERI3
 70
     0
  9
$USERI4
 70
     0
  9
$USERI5
 70
     0
  9
$USERR1
 40
0.0
  9
$USERR2
 40
0.0
  9
$USERR3
 40
0.0
  9
$USERR4
 40
0.0
  9
$USERR5
 40
0.0
  9
$WORLDVIEW
 70
     1
  9
$SHADEDGE
 70
     3
  9
$SHADEDIF
 70
    70
  9
$TILEMODE
 70
     1
  9
$MAXACTVP
 70
    16
  9
$PLIMCHECK
 70
     0
  9
$PEXTMIN
 10
1.0000000000000000E+020
 20
1.0000000000000000E+020
 30
1.0000000000000000E+020
  9
$PEXTMAX
 10
-1.0000000000000000E+020
 20
-1.0000000000000000E+020
 30
-1.0000000000000000E+020
  9
$PLIMMIN
 10
0.0
 20
0.0
  9
$PLIMMAX
 10
420.0
 20
297.0
  9
$UNITMODE
 70
     0
  9
$VISRETAIN
 70
     0
  9
$PLINEGEN
 70
     0
  9
$PSLTSCALE
 70
     0
  0
ENDSEC
  0
SECTION
  2
TABLES
  0
TABLE
  2
VPORT
 70
     2
  0
VPORT
  2
*ACTIVE
 70
     0
 10
0.0
 20
0.0
 11
1.0
 21
1.0
 12
463.45112464422618
 22
238.19723105352901
 13
0.0
 23
0.0
 14
10.0
 24
10.0
 15
0.0
 25
0.0
 16
0.0
 26
0.0
 36
1.0
 17
0.0
 27
0.0
 37
0.0
 40
661.9023303989585
 41
1.7546125461254609
 42
50.0
 43
0.0
 44
0.0
 50
0.0
 51
0.0
 71
     0
 72
   100
 73
     1
 74
     0
 75
     0
 76
     0
 77
     0
 78
     1
  0
ENDTAB
  0
TABLE
  2
LTYPE
 70
     3
  0
LTYPE
  2
CONTINUOUS
 70
     0
  3
Solid line
 72
    65
 73
     0
 40
0.0
  0
LTYPE
  2
CENTER
 70
     0
  3
____ _ ____ _ ____ _ ____ _ ____ _ ____ _ ____ 
 72
    65
 73
     4
 40
50.799999999999997
 49
31.75
 49
-6.3499999999999979
 49
6.3499999999999979
 49
-6.3499999999999979
  0
LTYPE
  2
DASHED
 70
     0
  3
__ __ __ __ __ __ __ __ __ __ __ __ __ __ __ __
 72
    65
 73
     2
 40
19.049999999999969
 49
12.699999999999999
 49
-6.3499999999999979
  0
ENDTAB
  0
TABLE
  2
LAYER
 70
     3
  0
LAYER
  2
0
 70
     0
 62
     7
  6
CONTINUOUS
  0
LAYER
  2
CENTER
 70
     0
 62
     1
  6
CENTER
  0
LAYER
  2
DEFPOINTS
 70
     0
 62
     7
  6
CONTINUOUS
  0
ENDTAB
  0
TABLE
  2
STYLE
 70
     1
  0
STYLE
  2
STANDARD
 70
     0
 40
0.0
 41
1.0
 50
0.0
 71
     0
 42
4.0
  3
txt
  4
BIGFONT
  0
ENDTAB
  0
TABLE
  2
VIEW
 70
     0
  0
ENDTAB
  0
TABLE
  2
UCS
 70
     0
  0
ENDTAB
  0
TABLE
  2
APPID
 70
     1
  0
APPID
  2
ACAD
 70
     0
  0
ENDTAB
  0
TABLE
  2
DIMSTYLE
 70
     1
  0
DIMSTYLE
  2
MISUMI
 70
     0
  3

  4

  5

  6

  7

 40
1.0
 41
3.0
 42
1.0
 43
0.0
 44
1.0
 45
0.0
 46
0.0
 47
0.0
 48
0.0
140
3.2000000000000002
141
0.0
142
0.0
143
0.04
144
1.0
145
1.0
146
0.6
147
1.0
 71
     0
 72
     0
 73
     0
 74
     0
 75
     0
 76
     0
 77
     1
 78
     8
170
     0
171
     2
172
     1
173
     0
174
     1
175
     0
176
     0
177
     0
178
     0
  0
ENDTAB
  0
ENDSEC
  0
SECTION
  2
BLOCKS
  0
BLOCK
  8
0
  2
$MODEL_SPACE
 70
     0
 10
0.0
 20
0.0
 30
0.0
  3
$MODEL_SPACE
  1

  0
ENDBLK
  5
B3
  8
0
  0
BLOCK
 67
     1
  8
0
  2
$PAPER_SPACE
 70
     0
 10
0.0
 20
0.0
 30
0.0
  3
$PAPER_SPACE
  1

  0
ENDBLK
  5
AF
 67
     1
  8
0
  0
BLOCK
  8
0
 62
     7
  2
*D0
 70
     1
 10
0.0
 20
0.0
 30
0.0
  3
*D0
  1

  0
LINE
  5
D3
  8
0
  6
CONTINUOUS
 62
     0
 10
591.06406181059515
 20
373.26853221988279
 30
0.0
 11
850.58712750862458
 21
373.26853221988267
 31
0.0
  0
LINE
  5
D4
  8
0
  6
CONTINUOUS
 62
     0
 10
591.06406181059515
 20
357.2685322198829
 30
0.0
 11
850.58712750862458
 21
357.26853221988279
 31
0.0
  0
LINE
  5
D5
  8
0
  6
CONTINUOUS
 62
     0
 10
849.58712750862458
 20
370.26853221988267
 30
0.0
 11
849.58712750862458
 21
360.2685322198829
 31
0.0
  0
SOLID
  5
D6
  8
0
  6
CONTINUOUS
 62
     0
 10
849.08712750862469
 20
370.26853221988267
 30
0.0
 11
850.08712750862469
 21
370.26853221988267
 31
0.0
 12
849.58712750862458
 22
373.26853221988267
 32
0.0
 13
849.58712750862458
 23
373.26853221988267
 33
0.0
  0
SOLID
  5
D7
  8
0
  6
CONTINUOUS
 62
     0
 10
849.08712750862469
 20
360.2685322198829
 30
0.0
 11
850.08712750862469
 21
360.2685322198829
 31
0.0
 12
849.58712750862458
 22
357.26853221988279
 32
0.0
 13
849.58712750862458
 23
357.26853221988279
 33
0.0
  0
INSERT
  5
D8
  8
0
  6
CONTINUOUS
 62
     7
  2
*U14
 10
0.0
 20
0.0
 30
0.0
  0
POINT
  5
D9
  8
DEFPOINTS
  6
CONTINUOUS
 62
     0
 10
590.06406181059515
 20
373.26853221988279
 30
0.0
  0
POINT
  5
DA
  8
DEFPOINTS
  6
CONTINUOUS
 62
     0
 10
590.06406181059515
 20
357.2685322198829
 30
0.0
  0
POINT
  5
DB
  8
DEFPOINTS
  6
CONTINUOUS
 62
     0
 10
849.58712750862458
 20
357.26853221988279
 30
0.0
  0
ENDBLK
  5
DD
  8
0
 62
     7
  0
BLOCK
  8
0
 62
     7
  2
*D1
 70
     1
 10
0.0
 20
0.0
 30
0.0
  3
*D1
  1

  0
LINE
  5
E0
  8
0
  6
CONTINUOUS
 62
     0
 10
840.69321015090929
 20
396.76853221986443
 30
0.0
 11
858.36265998750048
 21
396.76853221986443
 31
0.0
  0
LINE
  5
E1
  8
0
  6
CONTINUOUS
 62
     0
 10
840.6932101509102
 20
333.76853221986448
 30
0.0
 11
858.36265998750048
 21
333.76853221986448
 31
0.0
  0
LINE
  5
E2
  8
0
  6
CONTINUOUS
 62
     0
 10
857.36265998750048
 20
393.76853221986443
 30
0.0
 11
857.36265998750048
 21
336.76853221986448
 31
0.0
  0
SOLID
  5
E3
  8
0
  6
CONTINUOUS
 62
     0
 10
856.86265998750059
 20
393.76853221986443
 30
0.0
 11
857.86265998750059
 21
393.76853221986443
 31
0.0
 12
857.36265998750048
 22
396.76853221986443
 32
0.0
 13
857.36265998750048
 23
396.76853221986443
 33
0.0
  0
SOLID
  5
E4
  8
0
  6
CONTINUOUS
 62
     0
 10
856.86265998750059
 20
336.76853221986448
 30
0.0
 11
857.86265998750059
 21
336.76853221986448
 31
0.0
 12
857.36265998750048
 22
333.76853221986448
 32
0.0
 13
857.36265998750048
 23
333.76853221986448
 33
0.0
  0
INSERT
  5
E5
  8
0
  6
CONTINUOUS
 62
     7
  2
*U15
 10
0.0
 20
0.0
 30
0.0
  0
POINT
  5
E6
  8
DEFPOINTS
  6
CONTINUOUS
 62
     0
 10
839.69321015090941
 20
396.76853221986443
 30
0.0
  0
POINT
  5
E7
  8
DEFPOINTS
  6
CONTINUOUS
 62
     0
 10
839.6932101509102
 20
333.76853221986448
 30
0.0
  0
POINT
  5
E8
  8
DEFPOINTS
  6
CONTINUOUS
 62
     0
 10
857.36265998750048
 20
333.76853221986448
 30
0.0
  0
ENDBLK
  5
EA
  8
0
 62
     7
  0
BLOCK
  8
0
 62
     7
  2
*D2
 70
     1
 10
0.0
 20
0.0
 30
0.0
  3
*D2
  1

  0
LINE
  5
ED
  8
0
  6
CONTINUOUS
 62
     0
 10
834.19321015090941
 20
372.26853221986443
 30
0.0
 11
834.19321015090941
 21
356.2685322198829
 31
0.0
  0
LINE
  5
EE
  8
0
  6
CONTINUOUS
 62
     0
 10
829.19321015090929
 20
372.26853221988267
 30
0.0
 11
829.19321015090929
 21
356.2685322198829
 31
0.0
  0
LINE
  5
EF
  8
0
  6
CONTINUOUS
 62
     0
 10
837.19321015090929
 20
357.26853221988279
 30
0.0
 11
840.19321015090941
 21
357.26853221988279
 31
0.0
  0
LINE
  5
F0
  8
0
  6
CONTINUOUS
 62
     0
 10
826.19321015090918
 20
357.26853221988279
 30
0.0
 11
823.19321015090929
 21
357.26853221988279
 31
0.0
  0
LINE
  5
F1
  8
0
  6
CONTINUOUS
 62
     0
 10
834.19321015090941
 20
357.26853221988279
 30
0.0
 11
829.19321015090929
 21
357.26853221988279
 31
0.0
  0
SOLID
  5
F2
  8
0
  6
CONTINUOUS
 62
     0
 10
837.19321015090929
 20
357.76853221988279
 30
0.0
 11
837.19321015090929
 21
356.76853221988279
 31
0.0
 12
834.19321015090941
 22
357.26853221988279
 32
0.0
 13
834.19321015090941
 23
357.26853221988279
 33
0.0
  0
SOLID
  5
F3
  8
0
  6
CONTINUOUS
 62
     0
 10
826.19321015090918
 20
357.76853221988279
 30
0.0
 11
826.19321015090918
 21
356.76853221988279
 31
0.0
 12
829.19321015090929
 22
357.26853221988279
 32
0.0
 13
829.19321015090929
 23
357.26853221988279
 33
0.0
  0
INSERT
  5
F4
  8
0
  6
CONTINUOUS
 62
     7
  2
*U16
 10
0.0
 20
0.0
 30
0.0
  0
POINT
  5
F5
  8
DEFPOINTS
  6
CONTINUOUS
 62
     0
 10
834.19321015090941
 20
373.26853221986443
 30
0.0
  0
POINT
  5
F6
  8
DEFPOINTS
  6
CONTINUOUS
 62
     0
 10
829.19321015090929
 20
373.26853221988267
 30
0.0
  0
POINT
  5
F7
  8
DEFPOINTS
  6
CONTINUOUS
 62
     0
 10
829.19321015090929
 20
357.26853221988279
 30
0.0
  0
ENDBLK
  5
F9
  8
0
 62
     7
  0
BLOCK
  8
0
 62
     7
  2
*D3
 70
     1
 10
0.0
 20
0.0
 30
0.0
  3
*D3
  1

  0
LINE
  5
FC
  8
0
  6
CONTINUOUS
 62
     0
 10
571.06406181059515
 20
372.26853221988279
 30
0.0
 11
571.06406181059515
 21
356.2685322198829
 31
0.0
  0
LINE
  5
FD
  8
0
  6
CONTINUOUS
 62
     0
 10
576.06406181059515
 20
372.26853221988279
 30
0.0
 11
576.06406181059515
 21
356.2685322198829
 31
0.0
  0
LINE
  5
FE
  8
0
  6
CONTINUOUS
 62
     0
 10
568.06406181059515
 20
357.2685322198829
 30
0.0
 11
565.06406181059515
 21
357.2685322198829
 31
0.0
  0
LINE
  5
FF
  8
0
  6
CONTINUOUS
 62
     0
 10
579.06406181059515
 20
357.2685322198829
 30
0.0
 11
582.06406181059526
 21
357.2685322198829
 31
0.0
  0
LINE
  5
100
  8
0
  6
CONTINUOUS
 62
     0
 10
571.06406181059515
 20
357.2685322198829
 30
0.0
 11
576.06406181059515
 21
357.2685322198829
 31
0.0
  0
SOLID
  5
101
  8
0
  6
CONTINUOUS
 62
     0
 10
568.06406181059515
 20
357.7685322198829
 30
0.0
 11
568.06406181059515
 21
356.7685322198829
 31
0.0
 12
571.06406181059515
 22
357.2685322198829
 32
0.0
 13
571.06406181059515
 23
357.2685322198829
 33
0.0
  0
SOLID
  5
102
  8
0
  6
CONTINUOUS
 62
     0
 10
579.06406181059515
 20
357.7685322198829
 30
0.0
 11
579.06406181059515
 21
356.7685322198829
 31
0.0
 12
576.06406181059515
 22
357.2685322198829
 32
0.0
 13
576.06406181059515
 23
357.2685322198829
 33
0.0
  0
INSERT
  5
103
  8
0
  6
CONTINUOUS
 62
     7
  2
*U17
 10
0.0
 20
0.0
 30
0.0
  0
POINT
  5
104
  8
DEFPOINTS
  6
CONTINUOUS
 62
     0
 10
571.06406181059515
 20
373.26853221988279
 30
0.0
  0
POINT
  5
105
  8
DEFPOINTS
  6
CONTINUOUS
 62
     0
 10
576.06406181059515
 20
373.26853221988279
 30
0.0
  0
POINT
  5
106
  8
DEFPOINTS
  6
CONTINUOUS
 62
     0
 10
576.06406181059515
 20
357.2685322198829
 30
0.0
  0
ENDBLK
  5
108
  8
0
 62
     7
  0
BLOCK
  8
0
 62
     7
  2
*D4
 70
     1
 10
0.0
 20
0.0
 30
0.0
  3
*D4
  1

  0
LINE
  5
10B
  8
0
  6
CONTINUOUS
 62
     0
 10
790.69321015090975
 20
398.76853221986443
 30
0.0
 11
556.06406181059458
 21
398.76853221986443
 31
0.0
  0
LINE
  5
10C
  8
0
  6
CONTINUOUS
 62
     0
 10
790.69321015090975
 20
331.76853221986448
 30
0.0
 11
556.06406181059458
 21
331.76853221986448
 31
0.0
  0
LINE
  5
10D
  8
0
  6
CONTINUOUS
 62
     0
 10
557.06406181059458
 20
395.76853221986443
 30
0.0
 11
557.06406181059458
 21
334.76853221986448
 31
0.0
  0
SOLID
  5
10E
  8
0
  6
CONTINUOUS
 62
     0
 10
556.56406181059458
 20
395.76853221986443
 30
0.0
 11
557.56406181059447
 21
395.76853221986443
 31
0.0
 12
557.06406181059458
 22
398.76853221986443
 32
0.0
 13
557.06406181059458
 23
398.76853221986443
 33
0.0
  0
SOLID
  5
10F
  8
0
  6
CONTINUOUS
 62
     0
 10
556.56406181059458
 20
334.76853221986448
 30
0.0
 11
557.56406181059447
 21
334.76853221986448
 31
0.0
 12
557.06406181059458
 22
331.76853221986448
 32
0.0
 13
557.06406181059458
 23
331.76853221986448
 33
0.0
  0
INSERT
  5
110
  8
0
  6
CONTINUOUS
 62
     7
  2
*U18
 10
0.0
 20
0.0
 30
0.0
  0
POINT
  5
111
  8
DEFPOINTS
  6
CONTINUOUS
 62
     0
 10
791.69321015090975
 20
398.76853221986443
 30
0.0
  0
POINT
  5
112
  8
DEFPOINTS
  6
CONTINUOUS
 62
     0
 10
791.69321015090975
 20
331.76853221986448
 30
0.0
  0
POINT
  5
113
  8
DEFPOINTS
  6
CONTINUOUS
 62
     0
 10
557.06406181059458
 20
331.76853221986448
 30
0.0
  0
ENDBLK
  5
115
  8
0
 62
     7
  0
BLOCK
  8
0
 62
     7
  2
*D5
 70
     1
 10
0.0
 20
0.0
 30
0.0
  3
*D5
  1

  0
LINE
  5
118
  8
0
  6
CONTINUOUS
 62
     0
 10
793.19321015090975
 20
405.32853221894959
 30
0.0
 11
546.10562249715122
 21
405.3285322189497
 31
0.0
  0
LINE
  5
119
  8
0
  6
CONTINUOUS
 62
     0
 10
793.19321015090975
 20
325.2085322207792
 30
0.0
 11
546.10562249715122
 21
325.20853222077932
 31
0.0
  0
LINE
  5
11A
  8
0
  6
CONTINUOUS
 62
     0
 10
547.10562249715122
 20
402.32853221894959
 30
0.0
 11
547.10562249715122
 21
328.20853222077932
 31
0.0
  0
SOLID
  5
11B
  8
0
  6
CONTINUOUS
 62
     0
 10
546.60562249715122
 20
402.32853221894959
 30
0.0
 11
547.60562249715122
 21
402.32853221894959
 31
0.0
 12
547.10562249715122
 22
405.3285322189497
 32
0.0
 13
547.10562249715122
 23
405.3285322189497
 33
0.0
  0
SOLID
  5
11C
  8
0
  6
CONTINUOUS
 62
     0
 10
546.60562249715122
 20
328.20853222077932
 30
0.0
 11
547.60562249715122
 21
328.20853222077932
 31
0.0
 12
547.10562249715122
 22
325.20853222077932
 32
0.0
 13
547.10562249715122
 23
325.20853222077932
 33
0.0
  0
INSERT
  5
11D
  8
0
  6
CONTINUOUS
 62
     7
  2
*U19
 10
0.0
 20
0.0
 30
0.0
  0
POINT
  5
11E
  8
DEFPOINTS
  6
CONTINUOUS
 62
     0
 10
794.19321015090975
 20
405.32853221894959
 30
0.0
  0
POINT
  5
11F
  8
DEFPOINTS
  6
CONTINUOUS
 62
     0
 10
794.19321015090975
 20
325.2085322207792
 30
0.0
  0
POINT
  5
120
  8
DEFPOINTS
  6
CONTINUOUS
 62
     0
 10
547.10562249715122
 20
325.20853222077932
 30
0.0
  0
ENDBLK
  5
122
  8
0
 62
     7
  0
BLOCK
  8
0
 62
     7
  2
*D6
 70
     1
 10
0.0
 20
0.0
 30
0.0
  3
*D6
  1

  0
LINE
  5
125
  8
0
  6
CONTINUOUS
 62
     0
 10
793.19321015090975
 20
406.01353221986449
 30
0.0
 11
536.59977740159411
 21
406.01353221986449
 31
0.0
  0
LINE
  5
126
  8
0
  6
CONTINUOUS
 62
     0
 10
793.19321015090975
 20
324.52353221986431
 30
0.0
 11
536.59977740159411
 21
324.52353221986442
 31
0.0
  0
LINE
  5
127
  8
0
  6
CONTINUOUS
 62
     0
 10
537.59977740159411
 20
403.01353221986449
 30
0.0
 11
537.59977740159411
 21
327.52353221986442
 31
0.0
  0
SOLID
  5
128
  8
0
  6
CONTINUOUS
 62
     0
 10
537.09977740159411
 20
403.01353221986449
 30
0.0
 11
538.099777401594
 21
403.01353221986449
 31
0.0
 12
537.59977740159411
 22
406.01353221986449
 32
0.0
 13
537.59977740159411
 23
406.01353221986449
 33
0.0
  0
SOLID
  5
129
  8
0
  6
CONTINUOUS
 62
     0
 10
537.09977740159411
 20
327.52353221986442
 30
0.0
 11
538.099777401594
 21
327.52353221986442
 31
0.0
 12
537.59977740159411
 22
324.52353221986442
 32
0.0
 13
537.59977740159411
 23
324.52353221986442
 33
0.0
  0
INSERT
  5
12A
  8
0
  6
CONTINUOUS
 62
     7
  2
*U20
 10
0.0
 20
0.0
 30
0.0
  0
POINT
  5
12B
  8
DEFPOINTS
  6
CONTINUOUS
 62
     0
 10
794.19321015090975
 20
406.01353221986449
 30
0.0
  0
POINT
  5
12C
  8
DEFPOINTS
  6
CONTINUOUS
 62
     0
 10
794.19321015090975
 20
324.52353221986431
 30
0.0
  0
POINT
  5
12D
  8
DEFPOINTS
  6
CONTINUOUS
 62
     0
 10
537.59977740159411
 20
324.52353221986442
 30
0.0
  0
ENDBLK
  5
12F
  8
0
 62
     7
  0
BLOCK
  8
0
 62
     7
  2
*D7
 70
     1
 10
0.0
 20
0.0
 30
0.0
  3
*D7
  1

  0
LINE
  5
132
  8
0
  6
CONTINUOUS
 62
     0
 10
790.61502304004352
 20
408.76853221986448
 30
0.0
 11
523.55050962473615
 21
408.76853221986448
 31
0.0
  0
LINE
  5
133
  8
0
  6
CONTINUOUS
 62
     0
 10
790.61502304004352
 20
321.76853221986448
 30
0.0
 11
523.55050962473615
 21
321.76853221986448
 31
0.0
  0
LINE
  5
134
  8
0
  6
CONTINUOUS
 62
     0
 10
524.55050962473615
 20
405.76853221986448
 30
0.0
 11
524.55050962473615
 21
324.76853221986448
 31
0.0
  0
SOLID
  5
135
  8
0
  6
CONTINUOUS
 62
     0
 10
524.05050962473615
 20
405.76853221986448
 30
0.0
 11
525.05050962473615
 21
405.76853221986448
 31
0.0
 12
524.55050962473615
 22
408.76853221986448
 32
0.0
 13
524.55050962473615
 23
408.76853221986448
 33
0.0
  0
SOLID
  5
136
  8
0
  6
CONTINUOUS
 62
     0
 10
524.05050962473615
 20
324.76853221986448
 30
0.0
 11
525.05050962473615
 21
324.76853221986448
 31
0.0
 12
524.55050962473615
 22
321.76853221986448
 32
0.0
 13
524.55050962473615
 23
321.76853221986448
 33
0.0
  0
INSERT
  5
137
  8
0
  6
CONTINUOUS
 62
     7
  2
*U21
 10
0.0
 20
0.0
 30
0.0
  0
POINT
  5
138
  8
DEFPOINTS
  6
CONTINUOUS
 62
     0
 10
791.61502304004352
 20
408.76853221986448
 30
0.0
  0
POINT
  5
139
  8
DEFPOINTS
  6
CONTINUOUS
 62
     0
 10
791.61502304004352
 20
321.76853221986448
 30
0.0
  0
POINT
  5
13A
  8
DEFPOINTS
  6
CONTINUOUS
 62
     0
 10
524.55050962473615
 20
321.76853221986448
 30
0.0
  0
ENDBLK
  5
13C
  8
0
 62
     7
  0
BLOCK
  8
0
 62
     7
  2
*D8
 70
     1
 10
0.0
 20
0.0
 30
0.0
  3
*D8
  1

  0
LINE
  5
13F
  8
0
  6
CONTINUOUS
 62
     0
 10
822.19321015090929
 20
403.4985322198641
 30
0.0
 11
822.19321015090929
 21
415.65343938951207
 31
0.0
  0
LINE
  5
140
  8
0
  6
CONTINUOUS
 62
     0
 10
794.19321015090975
 20
403.49853221986422
 30
0.0
 11
794.19321015090975
 21
415.65343938951207
 31
0.0
  0
LINE
  5
141
  8
0
  6
CONTINUOUS
 62
     0
 10
819.19321015090941
 20
414.65343938951207
 30
0.0
 11
797.19321015090975
 21
414.65343938951207
 31
0.0
  0
SOLID
  5
142
  8
0
  6
CONTINUOUS
 62
     0
 10
819.19321015090941
 20
415.15343938951207
 30
0.0
 11
819.19321015090941
 21
414.15343938951207
 31
0.0
 12
822.19321015090929
 22
414.65343938951207
 32
0.0
 13
822.19321015090929
 23
414.65343938951207
 33
0.0
  0
SOLID
  5
143
  8
0
  6
CONTINUOUS
 62
     0
 10
797.19321015090975
 20
415.15343938951207
 30
0.0
 11
797.19321015090975
 21
414.15343938951207
 31
0.0
 12
794.19321015090975
 22
414.65343938951207
 32
0.0
 13
794.19321015090975
 23
414.65343938951207
 33
0.0
  0
INSERT
  5
144
  8
0
  6
CONTINUOUS
 62
     7
  2
*U22
 10
0.0
 20
0.0
 30
0.0
  0
POINT
  5
145
  8
DEFPOINTS
  6
CONTINUOUS
 62
     0
 10
822.19321015090929
 20
402.49853221986422
 30
0.0
  0
POINT
  5
146
  8
DEFPOINTS
  6
CONTINUOUS
 62
     0
 10
794.19321015090975
 20
402.49853221986422
 30
0.0
  0
POINT
  5
147
  8
DEFPOINTS
  6
CONTINUOUS
 62
     0
 10
794.19321015090975
 20
414.65343938951207
 30
0.0
  0
ENDBLK
  5
149
  8
0
 62
     7
  0
BLOCK
  8
0
 62
     7
  2
*D9
 70
     1
 10
0.0
 20
0.0
 30
0.0
  3
*D9
  1

  0
LINE
  5
14C
  8
0
  6
CONTINUOUS
 62
     0
 10
824.6932101509102
 20
397.76853221986448
 30
0.0
 11
824.6932101509102
 21
420.49645742147658
 31
0.0
  0
LINE
  5
14D
  8
0
  6
CONTINUOUS
 62
     0
 10
791.69321015090975
 20
397.76853221986448
 30
0.0
 11
791.69321015090975
 21
420.49645742147658
 31
0.0
  0
LINE
  5
14E
  8
0
  6
CONTINUOUS
 62
     0
 10
821.69321015091009
 20
419.49645742147658
 30
0.0
 11
794.69321015090975
 21
419.49645742147658
 31
0.0
  0
SOLID
  5
14F
  8
0
  6
CONTINUOUS
 62
     0
 10
821.69321015091009
 20
419.99645742147652
 30
0.0
 11
821.69321015091009
 21
418.99645742147658
 31
0.0
 12
824.6932101509102
 22
419.49645742147658
 32
0.0
 13
824.6932101509102
 23
419.49645742147658
 33
0.0
  0
SOLID
  5
150
  8
0
  6
CONTINUOUS
 62
     0
 10
794.69321015090975
 20
419.99645742147652
 30
0.0
 11
794.69321015090975
 21
418.99645742147658
 31
0.0
 12
791.69321015090975
 22
419.49645742147658
 32
0.0
 13
791.69321015090975
 23
419.49645742147658
 33
0.0
  0
INSERT
  5
151
  8
0
  6
CONTINUOUS
 62
     7
  2
*U23
 10
0.0
 20
0.0
 30
0.0
  0
POINT
  5
152
  8
DEFPOINTS
  6
CONTINUOUS
 62
     0
 10
824.6932101509102
 20
396.76853221986448
 30
0.0
  0
POINT
  5
153
  8
DEFPOINTS
  6
CONTINUOUS
 62
     0
 10
791.69321015090975
 20
396.76853221986448
 30
0.0
  0
POINT
  5
154
  8
DEFPOINTS
  6
CONTINUOUS
 62
     0
 10
791.69321015090975
 20
419.49645742147658
 30
0.0
  0
ENDBLK
  5
156
  8
0
 62
     7
  0
BLOCK
  8
0
 62
     7
  2
*D10
 70
     1
 10
0.0
 20
0.0
 30
0.0
  3
*D10
  1

  0
LINE
  5
159
  8
0
  6
CONTINUOUS
 62
     0
 10
839.69321015090941
 20
397.76853221986443
 30
0.0
 11
839.69321015090941
 21
427.90986080901212
 31
0.0
  0
LINE
  5
15A
  8
0
  6
CONTINUOUS
 62
     0
 10
791.69321015090975
 20
397.76853221986443
 30
0.0
 11
791.69321015090975
 21
427.90986080901212
 31
0.0
  0
LINE
  5
15B
  8
0
  6
CONTINUOUS
 62
     0
 10
836.69321015090941
 20
426.909860809012
 30
0.0
 11
794.69321015090975
 21
426.909860809012
 31
0.0
  0
SOLID
  5
15C
  8
0
  6
CONTINUOUS
 62
     0
 10
836.69321015090941
 20
427.409860809012
 30
0.0
 11
836.69321015090941
 21
426.40986080901212
 31
0.0
 12
839.69321015090941
 22
426.909860809012
 32
0.0
 13
839.69321015090941
 23
426.909860809012
 33
0.0
  0
SOLID
  5
15D
  8
0
  6
CONTINUOUS
 62
     0
 10
794.69321015090975
 20
427.409860809012
 30
0.0
 11
794.69321015090975
 21
426.40986080901212
 31
0.0
 12
791.69321015090975
 22
426.909860809012
 32
0.0
 13
791.69321015090975
 23
426.909860809012
 33
0.0
  0
INSERT
  5
15E
  8
0
  6
CONTINUOUS
 62
     7
  2
*U24
 10
0.0
 20
0.0
 30
0.0
  0
POINT
  5
15F
  8
DEFPOINTS
  6
CONTINUOUS
 62
     0
 10
839.69321015090941
 20
396.76853221986443
 30
0.0
  0
POINT
  5
160
  8
DEFPOINTS
  6
CONTINUOUS
 62
     0
 10
791.69321015090975
 20
396.76853221986443
 30
0.0
  0
POINT
  5
161
  8
DEFPOINTS
  6
CONTINUOUS
 62
     0
 10
791.69321015090975
 20
426.909860809012
 30
0.0
  0
ENDBLK
  5
163
  8
0
 62
     7
  0
BLOCK
  8
0
 62
     7
  2
*D11
 70
     1
 10
0.0
 20
0.0
 30
0.0
  3
*D11
  1

  0
LINE
  5
166
  8
0
  6
CONTINUOUS
 62
     0
 10
587.56406181059435
 20
399.76853221986443
 30
0.0
 11
587.56406181059435
 21
415.74443257639558
 31
0.0
  0
LINE
  5
167
  8
0
  6
CONTINUOUS
 62
     0
 10
559.56406181059481
 20
399.76853221988227
 30
0.0
 11
559.56406181059481
 21
415.74443257639558
 31
0.0
  0
LINE
  5
168
  8
0
  6
CONTINUOUS
 62
     0
 10
584.56406181059435
 20
414.74443257639558
 30
0.0
 11
562.56406181059481
 21
414.74443257639558
 31
0.0
  0
SOLID
  5
169
  8
0
  6
CONTINUOUS
 62
     0
 10
584.56406181059435
 20
415.24443257639558
 30
0.0
 11
584.56406181059435
 21
414.24443257639558
 31
0.0
 12
587.56406181059435
 22
414.74443257639558
 32
0.0
 13
587.56406181059435
 23
414.74443257639558
 33
0.0
  0
SOLID
  5
16A
  8
0
  6
CONTINUOUS
 62
     0
 10
562.56406181059481
 20
415.24443257639558
 30
0.0
 11
562.56406181059481
 21
414.24443257639558
 31
0.0
 12
559.56406181059481
 22
414.74443257639558
 32
0.0
 13
559.56406181059481
 23
414.74443257639558
 33
0.0
  0
INSERT
  5
16B
  8
0
  6
CONTINUOUS
 62
     7
  2
*U25
 10
0.0
 20
0.0
 30
0.0
  0
POINT
  5
16C
  8
DEFPOINTS
  6
CONTINUOUS
 62
     0
 10
587.56406181059435
 20
398.76853221986443
 30
0.0
  0
POINT
  5
16D
  8
DEFPOINTS
  6
CONTINUOUS
 62
     0
 10
559.56406181059481
 20
398.76853221988227
 30
0.0
  0
POINT
  5
16E
  8
DEFPOINTS
  6
CONTINUOUS
 62
     0
 10
559.56406181059481
 20
414.74443257639558
 30
0.0
  0
ENDBLK
  5
170
  8
0
 62
     7
  0
BLOCK
  8
0
 62
     7
  2
*D12
 70
     1
 10
0.0
 20
0.0
 30
0.0
  3
*D12
  1

  0
LINE
  5
173
  8
0
  6
CONTINUOUS
 62
     0
 10
590.06406181059515
 20
399.76853221988279
 30
0.0
 11
590.06406181059515
 21
421.38620510384771
 31
0.0
  0
LINE
  5
174
  8
0
  6
CONTINUOUS
 62
     0
 10
557.06406181059458
 20
399.76853221988279
 30
0.0
 11
557.06406181059458
 21
421.38620510384771
 31
0.0
  0
LINE
  5
175
  8
0
  6
CONTINUOUS
 62
     0
 10
587.06406181059515
 20
420.38620510384771
 30
0.0
 11
560.06406181059458
 21
420.38620510384771
 31
0.0
  0
SOLID
  5
176
  8
0
  6
CONTINUOUS
 62
     0
 10
587.06406181059515
 20
420.88620510384771
 30
0.0
 11
587.06406181059515
 21
419.88620510384771
 31
0.0
 12
590.06406181059515
 22
420.38620510384771
 32
0.0
 13
590.06406181059515
 23
420.38620510384771
 33
0.0
  0
SOLID
  5
177
  8
0
  6
CONTINUOUS
 62
     0
 10
560.06406181059458
 20
420.88620510384771
 30
0.0
 11
560.06406181059458
 21
419.88620510384771
 31
0.0
 12
557.06406181059458
 22
420.38620510384771
 32
0.0
 13
557.06406181059458
 23
420.38620510384771
 33
0.0
  0
INSERT
  5
178
  8
0
  6
CONTINUOUS
 62
     7
  2
*U26
 10
0.0
 20
0.0
 30
0.0
  0
POINT
  5
179
  8
DEFPOINTS
  6
CONTINUOUS
 62
     0
 10
590.06406181059515
 20
398.76853221988279
 30
0.0
  0
POINT
  5
17A
  8
DEFPOINTS
  6
CONTINUOUS
 62
     0
 10
557.06406181059458
 20
398.76853221988279
 30
0.0
  0
POINT
  5
17B
  8
DEFPOINTS
  6
CONTINUOUS
 62
     0
 10
557.06406181059458
 20
420.38620510384771
 30
0.0
  0
ENDBLK
  5
17D
  8
0
 62
     7
  0
BLOCK
  8
0
 62
     7
  2
*U14
 70
     1
 10
0.0
 20
0.0
 30
0.0
  3
*U14
  1

  0
TEXT
  5
1AE
  8
0
  6
CONTINUOUS
 62
     0
 10
848.58712750862458
 20
363.13519888654957
 30
0.0
 40
3.2000000000000002
  1
16
 50
90.0
  0
ENDBLK
  5
1B0
  8
0
 62
     7
  0
BLOCK
  8
0
 62
     7
  2
*U15
 70
     1
 10
0.0
 20
0.0
 30
0.0
  3
*U15
  1

  0
TEXT
  5
1B2
  8
0
  6
CONTINUOUS
 62
     0
 10
856.36265998750048
 20
362.60186555319791
 30
0.0
 40
3.2000000000000002
  1
63
 50
90.0
  0
ENDBLK
  5
1B4
  8
0
 62
     7
  0
BLOCK
  8
0
 62
     7
  2
*U16
 70
     1
 10
0.0
 20
0.0
 30
0.0
  3
*U16
  1

  0
TEXT
  5
1B6
  8
0
  6
CONTINUOUS
 62
     0
 10
830.62654348424257
 20
358.2685322198829
 30
0.0
 40
3.2000000000000002
  1
5
  0
ENDBLK
  5
1B8
  8
0
 62
     7
  0
BLOCK
  8
0
 62
     7
  2
*U17
 70
     1
 10
0.0
 20
0.0
 30
0.0
  3
*U17
  1

  0
TEXT
  5
1BA
  8
0
  6
CONTINUOUS
 62
     0
 10
572.49739514392854
 20
358.2685322198829
 30
0.0
 40
3.2000000000000002
  1
5
  0
ENDBLK
  5
1BC
  8
0
 62
     7
  0
BLOCK
  8
0
 62
     7
  2
*U18
 70
     1
 10
0.0
 20
0.0
 30
0.0
  3
*U18
  1

  0
TEXT
  5
1BE
  8
0
  6
CONTINUOUS
 62
     0
 10
556.06406181059435
 20
362.60186555319791
 30
0.0
 40
3.2000000000000002
  1
67
 50
90.0
  0
ENDBLK
  5
1C0
  8
0
 62
     7
  0
BLOCK
  8
0
 62
     7
  2
*U19
 70
     1
 10
0.0
 20
0.0
 30
0.0
  3
*U19
  1

  0
TEXT
  5
1C2
  8
0
  6
CONTINUOUS
 62
     0
 10
546.10562249715099
 20
359.66853221986452
 30
0.0
 40
3.2000000000000002
  1
80.12
 50
90.0
  0
ENDBLK
  5
1C4
  8
0
 62
     7
  0
BLOCK
  8
0
 62
     7
  2
*U20
 70
     1
 10
0.0
 20
0.0
 30
0.0
  3
*U20
  1

  0
TEXT
  5
1C6
  8
0
  6
CONTINUOUS
 62
     0
 10
536.599777401594
 20
359.40186555319792
 30
0.0
 40
3.2000000000000002
  1
81.49
 50
90.0
  0
ENDBLK
  5
1C8
  8
0
 62
     7
  0
BLOCK
  8
0
 62
     7
  2
*U21
 70
     1
 10
0.0
 20
0.0
 30
0.0
  3
*U21
  1

  0
TEXT
  5
1CA
  8
0
  6
CONTINUOUS
 62
     0
 10
523.55050962473604
 20
362.60186555319791
 30
0.0
 40
3.2000000000000002
  1
87
 50
90.0
  0
ENDBLK
  5
1CC
  8
0
 62
     7
  0
BLOCK
  8
0
 62
     7
  2
*U22
 70
     1
 10
0.0
 20
0.0
 30
0.0
  3
*U22
  1

  0
TEXT
  5
1CE
  8
0
  6
CONTINUOUS
 62
     0
 10
805.52654348424301
 20
415.65343938951207
 30
0.0
 40
3.2000000000000002
  1
28
  0
ENDBLK
  5
1D0
  8
0
 62
     7
  0
BLOCK
  8
0
 62
     7
  2
*U23
 70
     1
 10
0.0
 20
0.0
 30
0.0
  3
*U23
  1

  0
TEXT
  5
1D2
  8
0
  6
CONTINUOUS
 62
     0
 10
805.52654348424335
 20
420.49645742147658
 30
0.0
 40
3.2000000000000002
  1
33
  0
ENDBLK
  5
1D4
  8
0
 62
     7
  0
BLOCK
  8
0
 62
     7
  2
*U24
 70
     1
 10
0.0
 20
0.0
 30
0.0
  3
*U24
  1

  0
TEXT
  5
1D6
  8
0
  6
CONTINUOUS
 62
     0
 10
813.02654348424301
 20
427.90986080901212
 30
0.0
 40
3.2000000000000002
  1
48
  0
ENDBLK
  5
1D8
  8
0
 62
     7
  0
BLOCK
  8
0
 62
     7
  2
*U25
 70
     1
 10
0.0
 20
0.0
 30
0.0
  3
*U25
  1

  0
TEXT
  5
1DA
  8
0
  6
CONTINUOUS
 62
     0
 10
570.89739514392795
 20
415.74443257639558
 30
0.0
 40
3.2000000000000002
  1
28
  0
ENDBLK
  5
1DC
  8
0
 62
     7
  0
BLOCK
  8
0
 62
     7
  2
*U26
 70
     1
 10
0.0
 20
0.0
 30
0.0
  3
*U26
  1

  0
TEXT
  5
1DE
  8
0
  6
CONTINUOUS
 62
     0
 10
570.89739514392829
 20
421.38620510384771
 30
0.0
 40
3.2000000000000002
  1
33
  0
ENDBLK
  5
1E0
  8
0
 62
     7
  0
ENDSEC
  0
SECTION
  2
ENTITIES
  0
LINE
  5
24
  8
CENTER
  6
CENTER
 62
     1
 10
781.69321015090975
 20
365.26853221986448
 30
0.0
 11
849.69321015090929
 21
365.26853221986448
 31
0.0
  0
TEXT
  5
29
  8
0
  6
CONTINUOUS
 62
     7
 10
40.0
 20
71.773344534810349
 30
0.0
 40
16.0
  1
HTPA32S8M250-B-P16
  0
TEXT
  5
2A
  8
0
  6
CONTINUOUS
 62
     7
 10
40.0
 20
100.0
 30
0.0
 40
16.0
  1
HTPA32S8M250-A-P16
  0
TEXT
  5
2C
  8
0
  6
CONTINUOUS
 62
     7
 10
40.0
 20
40.0
 30
0.0
 40
16.0
  1
S8M32250
  0
LINE
  5
37
  8
CENTER
  6
CENTER
 62
     1
 10
547.06406181059435
 20
365.26853221988279
 30
0.0
 11
600.06406181059515
 21
365.26853221988279
 31
0.0
  0
LINE
  5
38
  8
CENTER
  6
CENTER
 62
     1
 10
559.56406181059481
 20
406.0135322198829
 30
0.0
 11
587.56406181059435
 21
406.0135322198829
 31
0.0
  0
LINE
  5
39
  8
CENTER
  6
CENTER
 62
     1
 10
559.56406181059481
 20
324.5235322198829
 30
0.0
 11
587.56406181059435
 21
324.5235322198829
 31
0.0
  0
LINE
  5
3A
  8
0
  6
CONTINUOUS
 62
     7
 10
559.56406181059481
 20
328.03853221988282
 30
0.0
 11
587.56406181059435
 21
328.038532219883
 31
0.0
  0
LINE
  5
3B
  8
0
  6
CONTINUOUS
 62
     7
 10
559.56406181059481
 20
325.2085322198829
 30
0.0
 11
587.56406181059435
 21
325.2085322198829
 31
0.0
  0
LINE
  5
3C
  8
0
  6
CONTINUOUS
 62
     7
 10
559.56406181059481
 20
402.4985322198828
 30
0.0
 11
587.56406181059435
 21
402.4985322198828
 31
0.0
  0
LINE
  5
3D
  8
0
  6
CONTINUOUS
 62
     7
 10
559.56406181059481
 20
405.32853221988279
 30
0.0
 11
587.56406181059435
 21
405.32853221988279
 31
0.0
  0
LINE
  5
3E
  8
0
  6
CONTINUOUS
 62
     7
 10
557.06406181059458
 20
357.2685322198829
 30
0.0
 11
590.06406181059515
 21
357.2685322198829
 31
0.0
  0
LINE
  5
3F
  8
0
  6
CONTINUOUS
 62
     7
 10
557.06406181059458
 20
373.26853221988279
 30
0.0
 11
590.06406181059515
 21
373.26853221988279
 31
0.0
  0
LINE
  5
40
  8
CENTER
  6
CENTER
 62
     1
 10
573.56406181059458
 20
408.51353221988262
 30
0.0
 11
573.56406181059526
 21
370.26853221988301
 31
0.0
  0
LINE
  5
41
  8
0
  6
CONTINUOUS
 62
     7
 10
556.9858746997287
 20
408.76853221988279
 30
0.0
 11
557.9640618105949
 21
405.11788822282068
 31
0.0
  0
LINE
  5
42
  8
0
  6
CONTINUOUS
 62
     7
 10
558.64231658838685
 20
408.76853221988279
 30
0.0
 11
559.56406181059481
 21
405.32853221896789
 31
0.0
  0
LINE
  5
43
  8
0
  6
CONTINUOUS
 62
     7
 10
557.06406181059458
 20
398.76853221988279
 30
0.0
 11
557.06406181059458
 21
331.76853221988301
 31
0.0
  0
LINE
  5
44
  8
0
  6
CONTINUOUS
 62
     7
 10
557.06406181059458
 20
331.76853221988301
 30
0.0
 11
559.56406181059481
 21
331.76853221988318
 31
0.0
  0
LINE
  5
45
  8
0
  6
CONTINUOUS
 62
     7
 10
556.9858746997287
 20
321.76853221988267
 30
0.0
 11
558.64231658838685
 21
321.76853221988267
 31
0.0
  0
LINE
  5
46
  8
0
  6
CONTINUOUS
 62
     7
 10
558.64231658838685
 20
321.76853221988267
 30
0.0
 11
559.56406181059481
 21
325.20853222079762
 31
0.0
  0
LINE
  5
47
  8
0
  6
CONTINUOUS
 62
     7
 10
559.56406181059481
 20
325.20853222079762
 30
0.0
 11
559.56406181059481
 21
331.76853221988318
 31
0.0
  0
LINE
  5
48
  8
0
  6
CONTINUOUS
 62
     7
 10
556.9858746997287
 20
321.76853221988267
 30
0.0
 11
557.9640618105949
 21
325.41917621694478
 31
0.0
  0
LINE
  5
49
  8
0
  6
CONTINUOUS
 62
     7
 10
557.9640618105949
 20
325.41917621694478
 30
0.0
 11
557.96406181059479
 21
331.76853221988318
 31
0.0
  0
LINE
  5
4A
  8
0
  6
DASHED
 62
     3
 10
571.49706181059503
 20
388.26853221988301
 30
0.0
 11
571.49706181059526
 21
373.26853221988301
 31
0.0
  0
LINE
  5
4C
  8
0
  6
DASHED
 62
     3
 10
575.63106181059504
 20
388.26853221988301
 30
0.0
 11
575.63106181059527
 21
373.26853221988301
 31
0.0
  0
LINE
  5
4D
  8
0
  6
DASHED
 62
     3
 10
571.06406181059481
 20
388.26853221988301
 30
0.0
 11
571.06406181059515
 21
373.26853221988301
 31
0.0
  0
LINE
  5
4E
  8
0
  6
DASHED
 62
     3
 10
576.06406181059504
 20
388.26853221988301
 30
0.0
 11
576.06406181059515
 21
373.26853221988301
 31
0.0
  0
LINE
  5
4F
  8
0
  6
CONTINUOUS
 62
     7
 10
557.06406181059458
 20
398.76853221988279
 30
0.0
 11
559.56406181059481
 21
398.76853221988227
 31
0.0
  0
LINE
  5
50
  8
0
  6
CONTINUOUS
 62
     7
 10
557.9640618105949
 20
405.11788822282068
 30
0.0
 11
557.96406181059479
 21
398.7685322198825
 31
0.0
  0
LINE
  5
51
  8
0
  6
CONTINUOUS
 62
     7
 10
559.56406181059481
 20
405.32853221896789
 30
0.0
 11
559.56406181059481
 21
398.76853221988227
 31
0.0
  0
LINE
  5
52
  8
0
  6
DASHED
 62
     3
 10
570.81406181059458
 20
402.4985322198828
 30
0.0
 11
570.81406181059504
 21
388.26853221988279
 31
0.0
  0
LINE
  5
53
  8
0
  6
DASHED
 62
     3
 10
576.31406181059481
 20
402.4985322198828
 30
0.0
 11
576.31406181059481
 21
388.26853221988279
 31
0.0
  0
LINE
  5
54
  8
0
  6
DASHED
 62
     3
 10
570.81406181059504
 20
388.26853221988279
 30
0.0
 11
576.31406181059481
 21
388.26853221988279
 31
0.0
  0
LINE
  5
55
  8
0
  6
CONTINUOUS
 62
     7
 10
556.9858746997287
 20
408.76853221988279
 30
0.0
 11
558.64231658838685
 21
408.76853221988279
 31
0.0
  0
LINE
  5
56
  8
0
  6
CONTINUOUS
 62
     7
 10
793.27146492870168
 20
408.76853221986448
 30
0.0
 11
794.19321015090975
 21
405.32853221894959
 31
0.0
  0
LINE
  5
57
  8
0
  6
CONTINUOUS
 62
     7
 10
791.61502304004352
 20
408.76853221986448
 30
0.0
 11
792.59321015090973
 21
405.11788822280249
 31
0.0
  0
LINE
  5
58
  8
0
  6
CONTINUOUS
 62
     7
 10
824.77139726177563
 20
408.76853221986448
 30
0.0
 11
823.79321015090977
 21
405.11788822280249
 31
0.0
  0
LINE
  5
59
  8
0
  6
CONTINUOUS
 62
     7
 10
823.1149553731176
 20
408.76853221986448
 30
0.0
 11
822.19321015090929
 21
405.32853221894959
 31
0.0
  0
LINE
  5
5A
  8
0
  6
CONTINUOUS
 62
     7
 10
588.48580703280277
 20
408.76853221988279
 30
0.0
 11
587.56406181059435
 21
405.32853221896789
 31
0.0
  0
LINE
  5
5B
  8
0
  6
CONTINUOUS
 62
     7
 10
590.14224892146092
 20
408.76853221988279
 30
0.0
 11
589.16406181059483
 21
405.11788822282068
 31
0.0
  0
LINE
  5
5C
  8
0
  6
CONTINUOUS
 62
     7
 10
590.06406181059515
 20
398.76853221988279
 30
0.0
 11
590.06406181059515
 21
331.76853221988301
 31
0.0
  0
LINE
  5
5D
  8
0
  6
CONTINUOUS
 62
     7
 10
589.16406181059483
 20
325.41917621694478
 30
0.0
 11
589.16406181059483
 21
331.76853221988318
 31
0.0
  0
LINE
  5
5E
  8
0
  6
CONTINUOUS
 62
     7
 10
590.14224892146092
 20
321.76853221988267
 30
0.0
 11
589.16406181059483
 21
325.41917621694478
 31
0.0
  0
LINE
  5
5F
  8
0
  6
CONTINUOUS
 62
     7
 10
588.48580703280277
 20
321.76853221988267
 30
0.0
 11
587.56406181059435
 21
325.20853222079762
 31
0.0
  0
LINE
  5
60
  8
0
  6
CONTINUOUS
 62
     7
 10
590.14224892146092
 20
321.76853221988267
 30
0.0
 11
588.48580703280277
 21
321.76853221988267
 31
0.0
  0
LINE
  5
61
  8
0
  6
CONTINUOUS
 62
     7
 10
590.06406181059515
 20
331.76853221988301
 30
0.0
 11
587.56406181059435
 21
331.76853221988318
 31
0.0
  0
LINE
  5
62
  8
0
  6
CONTINUOUS
 62
     7
 10
587.56406181059435
 20
325.2085322198829
 30
0.0
 11
587.56406181059435
 21
331.76853221988318
 31
0.0
  0
LINE
  5
63
  8
0
  6
CONTINUOUS
 62
     7
 10
590.06406181059515
 20
398.76853221988279
 30
0.0
 11
587.56406181059435
 21
398.76853221988227
 31
0.0
  0
LINE
  5
64
  8
0
  6
CONTINUOUS
 62
     7
 10
587.56406181059435
 20
405.32853221988279
 30
0.0
 11
587.56406181059435
 21
398.76853221988227
 31
0.0
  0
LINE
  5
65
  8
0
  6
CONTINUOUS
 62
     7
 10
589.16406181059483
 20
405.11788822282068
 30
0.0
 11
589.16406181059483
 21
398.7685322198825
 31
0.0
  0
LINE
  5
66
  8
0
  6
CONTINUOUS
 62
     7
 10
839.69321015090941
 20
396.76853221986443
 30
0.0
 11
839.69321015090895
 21
333.76853221986448
 31
0.0
  0
LINE
  5
67
  8
0
  6
CONTINUOUS
 62
     7
 10
791.69321015090975
 20
398.76853221986443
 30
0.0
 11
791.69321015090975
 21
331.76853221986448
 31
0.0
  0
LINE
  5
68
  8
CENTER
  6
CENTER
 62
     1
 10
794.19321015090975
 20
324.52353221986431
 30
0.0
 11
822.19321015090929
 21
324.52353221986431
 31
0.0
  0
LINE
  5
69
  8
0
  6
CONTINUOUS
 62
     7
 10
794.19321015090975
 20
325.20853221986442
 30
0.0
 11
822.19321015090929
 21
325.20853221986442
 31
0.0
  0
LINE
  5
6A
  8
0
  6
CONTINUOUS
 62
     7
 10
794.19321015090975
 20
328.03853221986441
 30
0.0
 11
822.19321015090929
 21
328.03853221986452
 31
0.0
  0
LINE
  5
6B
  8
0
  6
CONTINUOUS
 62
     7
 10
791.69321015090975
 20
357.26853221986443
 30
0.0
 11
839.69321015090941
 21
357.26853221986443
 31
0.0
  0
LINE
  5
6C
  8
0
  6
CONTINUOUS
 62
     7
 10
792.59321015090973
 20
325.4191762169263
 30
0.0
 11
792.59321015090973
 21
331.76853221986482
 31
0.0
  0
LINE
  5
6D
  8
0
  6
CONTINUOUS
 62
     7
 10
791.61502304004352
 20
321.76853221986448
 30
0.0
 11
792.59321015090973
 21
325.4191762169263
 31
0.0
  0
LINE
  5
6E
  8
0
  6
CONTINUOUS
 62
     7
 10
794.19321015090975
 20
325.2085322207792
 30
0.0
 11
794.19321015090975
 21
331.76853221986488
 31
0.0
  0
LINE
  5
6F
  8
0
  6
CONTINUOUS
 62
     7
 10
793.27146492870168
 20
321.76853221986448
 30
0.0
 11
794.19321015090975
 21
325.2085322207792
 31
0.0
  0
LINE
  5
70
  8
0
  6
CONTINUOUS
 62
     7
 10
791.61502304004352
 20
321.76853221986448
 30
0.0
 11
793.27146492870168
 21
321.76853221986448
 31
0.0
  0
LINE
  5
71
  8
0
  6
CONTINUOUS
 62
     7
 10
791.69321015090975
 20
331.76853221986448
 30
0.0
 11
794.19321015090975
 21
331.76853221986488
 31
0.0
  0
LINE
  5
72
  8
0
  6
CONTINUOUS
 62
     7
 10
824.77139726177563
 20
321.76853221986448
 30
0.0
 11
823.1149553731176
 21
321.76853221986448
 31
0.0
  0
LINE
  5
73
  8
0
  6
CONTINUOUS
 62
     7
 10
824.6932101509102
 20
331.76853221986448
 30
0.0
 11
822.19321015090929
 21
331.76853221986488
 31
0.0
  0
LINE
  5
74
  8
0
  6
CONTINUOUS
 62
     7
 10
822.19321015090929
 20
325.20853221986442
 30
0.0
 11
822.19321015090929
 21
331.76853221986488
 31
0.0
  0
LINE
  5
75
  8
0
  6
CONTINUOUS
 62
     7
 10
823.1149553731176
 20
321.76853221986448
 30
0.0
 11
822.19321015090929
 21
325.2085322207792
 31
0.0
  0
LINE
  5
76
  8
0
  6
CONTINUOUS
 62
     7
 10
824.6932101509102
 20
333.76853221986431
 30
0.0
 11
839.69321015090895
 21
333.76853221986448
 31
0.0
  0
LINE
  5
77
  8
0
  6
CONTINUOUS
 62
     7
 10
824.77139726177563
 20
321.76853221986448
 30
0.0
 11
823.79321015090977
 21
325.4191762169263
 31
0.0
  0
LINE
  5
78
  8
0
  6
CONTINUOUS
 62
     7
 10
823.79321015090977
 20
325.4191762169263
 30
0.0
 11
823.79321015090977
 21
331.76853221986482
 31
0.0
  0
LINE
  5
79
  8
0
  6
CONTINUOUS
 62
     7
 10
824.6932101509102
 20
333.76853221986431
 30
0.0
 11
824.6932101509102
 21
331.76853221986448
 31
0.0
  0
LINE
  5
7A
  8
CENTER
  6
CENTER
 62
     1
 10
794.19321015090975
 20
406.01353221986449
 30
0.0
 11
822.19321015090929
 21
406.01353221986449
 31
0.0
  0
LINE
  5
7B
  8
0
  6
CONTINUOUS
 62
     7
 10
794.19321015090975
 20
402.49853221986422
 30
0.0
 11
822.19321015090929
 21
402.49853221986422
 31
0.0
  0
LINE
  5
7C
  8
0
  6
CONTINUOUS
 62
     7
 10
794.19321015090975
 20
405.32853221986431
 30
0.0
 11
822.19321015090929
 21
405.32853221986431
 31
0.0
  0
LINE
  5
7D
  8
0
  6
CONTINUOUS
 62
     7
 10
791.69321015090975
 20
373.26853221986443
 30
0.0
 11
839.69321015090941
 21
373.26853221986443
 31
0.0
  0
LINE
  5
7E
  8
0
  6
CONTINUOUS
 62
     7
 10
791.6932101509102
 20
382.01853221986403
 30
0.0
 11
791.6932101509102
 21
382.01863221986389
 31
0.0
  0
LINE
  5
7F
  8
0
  6
CONTINUOUS
 62
     7
 10
791.6932101509102
 20
365.26853221986403
 30
0.0
 11
791.69331015090984
 21
365.26853221986403
 31
0.0
  0
LINE
  5
80
  8
0
  6
CONTINUOUS
 62
     7
 10
791.69321015090975
 20
398.76853221986443
 30
0.0
 11
794.19321015090975
 21
398.76853221986403
 31
0.0
  0
LINE
  5
81
  8
0
  6
CONTINUOUS
 62
     7
 10
794.19321015090975
 20
405.32853221894959
 30
0.0
 11
794.19321015090975
 21
398.76853221986403
 31
0.0
  0
LINE
  5
82
  8
0
  6
CONTINUOUS
 62
     7
 10
792.59321015090973
 20
405.11788822280249
 30
0.0
 11
792.59321015090973
 21
398.76853221986408
 31
0.0
  0
LINE
  5
83
  8
CENTER
  6
CENTER
 62
     1
 10
831.69321015090941
 20
399.26853221986443
 30
0.0
 11
831.69321015090941
 21
370.76853221986443
 31
0.0
  0
LINE
  5
84
  8
0
  6
DASHED
 62
     3
 10
829.62621015090895
 20
396.76853221986448
 30
0.0
 11
829.6262101509094
 21
373.2685322198646
 31
0.0
  0
LINE
  5
85
  8
0
  6
DASHED
 62
     3
 10
829.19321015090895
 20
396.76853221986448
 30
0.0
 11
829.19321015090929
 21
373.2685322198646
 31
0.0
  0
LINE
  5
86
  8
0
  6
DASHED
 62
     3
 10
833.76021015090873
 20
396.76853221986448
 30
0.0
 11
833.76021015090942
 21
373.2685322198646
 31
0.0
  0
LINE
  5
87
  8
0
  6
DASHED
 62
     3
 10
834.19321015090895
 20
396.76853221986448
 30
0.0
 11
834.19321015090941
 21
373.2685322198646
 31
0.0
  0
LINE
  5
88
  8
0
  6
CONTINUOUS
 62
     7
 10
824.6932101509102
 20
398.76853221986443
 30
0.0
 11
822.19321015090929
 21
398.76853221986403
 31
0.0
  0
LINE
  5
89
  8
0
  6
CONTINUOUS
 62
     7
 10
822.19321015090929
 20
405.32853221986431
 30
0.0
 11
822.19321015090929
 21
398.76853221986403
 31
0.0
  0
LINE
  5
8A
  8
0
  6
CONTINUOUS
 62
     7
 10
824.6932101509102
 20
396.76853221986448
 30
0.0
 11
839.69321015090941
 21
396.76853221986443
 31
0.0
  0
LINE
  5
8B
  8
0
  6
CONTINUOUS
 62
     7
 10
823.79321015090977
 20
405.11788822280249
 30
0.0
 11
823.79321015090977
 21
398.76853221986408
 31
0.0
  0
LINE
  5
8C
  8
0
  6
CONTINUOUS
 62
     7
 10
824.6932101509102
 20
398.76853221986443
 30
0.0
 11
824.6932101509102
 21
396.76853221986448
 31
0.0
  0
LINE
  5
8D
  8
0
  6
CONTINUOUS
 62
     7
 10
590.14224892146092
 20
408.76853221988279
 30
0.0
 11
588.48580703280277
 21
408.76853221988279
 31
0.0
  0
LINE
  5
8E
  8
0
  6
CONTINUOUS
 62
     7
 10
791.61502304004352
 20
408.76853221986448
 30
0.0
 11
793.27146492870168
 21
408.76853221986448
 31
0.0
  0
LINE
  5
8F
  8
0
  6
CONTINUOUS
 62
     7
 10
824.77139726177563
 20
408.76853221986448
 30
0.0
 11
823.1149553731176
 21
408.76853221986448
 31
0.0
  0
ARC
  5
195
  8
0
  6
CONTINUOUS
 62
     7
 10
349.75956535913252
 20
365.26853214617438
 30
0.0
 40
40.058999999999997
 50
49.999999999999908
 51
85.237024068108454
  0
ARC
  5
196
  8
0
  6
CONTINUOUS
 62
     7
 10
349.75956535913252
 20
365.26853214617438
 30
0.0
 40
37.229000000000013
 50
90.0
 51
91.877043090736066
  0
ARC
  5
197
  8
0
  6
CONTINUOUS
 62
     7
 10
352.35956535913249
 20
405.93049256374388
 30
0.0
 40
5.2999999999999989
 50
194.24489816572111
 51
218.54229064755529
  0
ARC
  5
198
  8
0
  6
CONTINUOUS
 62
     7
 10
348.52703791110508
 20
402.87734118195561
 30
0.0
 40
0.4
 50
218.54229064755779
 51
271.8770430907328
  0
ARC
  5
199
  8
0
  6
CONTINUOUS
 62
     7
 10
346.49558577217562
 20
404.44178728607727
 30
0.0
 40
0.75
 50
14.24489816572118
 51
94.762975931891546
  0
ARC
  5
19A
  8
0
  6
CONTINUOUS
 62
     7
 10
350.99209280715991
 20
402.87734118195561
 30
0.0
 40
0.4
 50
268.1229569092672
 51
321.45770935244218
  0
ARC
  5
19B
  8
0
  6
CONTINUOUS
 62
     7
 10
353.02354494608937
 20
404.44178728607727
 30
0.0
 40
0.75
 50
85.237024068108454
 51
165.7551018342788
  0
ARC
  5
19C
  8
0
  6
CONTINUOUS
 62
     7
 10
347.1595653591325
 20
405.93049256374388
 30
0.0
 40
5.2999999999999989
 50
321.45770935244468
 51
345.75510183427878
  0
ARC
  5
19D
  8
0
  6
CONTINUOUS
 62
     7
 10
349.75956535913252
 20
365.26853214617438
 30
0.0
 40
37.229000000000013
 50
88.122956909263948
 51
90.0
  0
ARC
  5
19E
  8
0
  6
CONTINUOUS
 62
     7
 10
349.75956535913252
 20
365.26853214617438
 30
0.0
 40
40.058999999999997
 50
94.762975931891546
 51
130.00000000000011
  0
ARC
  5
19F
  8
CENTER
  6
CENTER
 62
     1
 10
349.75956535913252
 20
365.26853214617438
 30
0.0
 40
40.744999999999997
 50
45.0
 51
135.0
  0
LINE
  5
1A0
  8
CENTER
  6
CENTER
 62
     1
 10
349.75956535913252
 20
365.26853214617438
 30
0.0
 11
349.75956535913252
 21
414.17319053146969
 31
0.0
  0
ENDSEC
  0
EOF
