  0
SECTION
  2
HEADER
  9
$ACADVER
  1
AC1009
  9
$INSBASE
 10
0.0
 20
0.0
 30
0.0
  9
$EXTMIN
 10
10.0
 20
9.9999999999999982
 30
0.0
  9
$EXTMAX
 10
151.0589890623246
 20
78.995598244409123
 30
0.0
  9
$LIMMIN
 10
0.0
 20
0.0
  9
$LIMMAX
 10
420.0
 20
297.0
  9
$ORTHOMODE
 70
     1
  9
$REGENMODE
 70
     1
  9
$FILLMODE
 70
     1
  9
$QTEXTMODE
 70
     0
  9
$MIRRTEXT
 70
     1
  9
$DRAGMODE
 70
     2
  9
$LTSCALE
 40
1.0
  9
$OSMODE
 70
   183
  9
$ATTMODE
 70
     1
  9
$TEXTSIZE
 40
2.0
  9
$TRACEWID
 40
1.0
  9
$TEXTSTYLE
  7
STANDARD
  9
$CLAYER
  8
0
  9
$CELTYPE
  6
CONTINUOUS
  9
$CECOLOR
 62
     7
  9
$DIMSCALE
 40
1.0
  9
$DIMASZ
 40
3.0
  9
$DIMEXO
 40
1.0
  9
$DIMDLI
 40
0.0
  9
$DIMRND
 40
0.0
  9
$DIMDLE
 40
0.0
  9
$DIMEXE
 40
1.0
  9
$DIMTP
 40
0.0
  9
$DIMTM
 40
0.0
  9
$DIMTXT
 40
3.2000000000000002
  9
$DIMCEN
 40
0.0
  9
$DIMTSZ
 40
0.0
  9
$DIMTOL
 70
     0
  9
$DIMLIM
 70
     0
  9
$DIMTIH
 70
     0
  9
$DIMTOH
 70
     0
  9
$DIMSE1
 70
     0
  9
$DIMSE2
 70
     0
  9
$DIMTAD
 70
     1
  9
$DIMZIN
 70
     8
  9
$DIMBLK
  1

  9
$DIMASO
 70
     1
  9
$DIMSHO
 70
     1
  9
$DIMPOST
  1

  9
$DIMAPOST
  1

  9
$DIMALT
 70
     0
  9
$DIMALTD
 70
     2
  9
$DIMALTF
 40
0.04
  9
$DIMLFAC
 40
1.0
  9
$DIMTOFL
 70
     1
  9
$DIMTVP
 40
1.0
  9
$DIMTIX
 70
     1
  9
$DIMSOXD
 70
     0
  9
$DIMSAH
 70
     0
  9
$DIMBLK1
  1

  9
$DIMBLK2
  1

  9
$DIMSTYLE
  2
MISUMI
  9
$DIMCLRD
 70
     0
  9
$DIMCLRE
 70
     0
  9
$DIMCLRT
 70
     0
  9
$DIMTFAC
 40
0.6
  9
$DIMGAP
 40
1.0
  9
$LUNITS
 70
     2
  9
$LUPREC
 70
     2
  9
$SKETCHINC
 40
1.0
  9
$FILLETRAD
 40
2.5
  9
$AUNITS
 70
     0
  9
$AUPREC
 70
     0
  9
$MENU
  1
.
  9
$ELEVATION
 40
0.0
  9
$PELEVATION
 40
0.0
  9
$THICKNESS
 40
0.0
  9
$LIMCHECK
 70
     0
  9
$BLIPMODE
 70
     0
  9
$CHAMFERA
 40
2.5
  9
$CHAMFERB
 40
2.5
  9
$SKPOLY
 70
     1
  9
$TDCREATE
 40
2451809.7114388891
  9
$TDUPDATE
 40
2453804.5435642712
  9
$TDINDWG
 40
0.0022466435
  9
$TDUSRTIMER
 40
0.0022460995
  9
$USRTIMER
 70
     1
  9
$ANGBASE
 50
0.0
  9
$ANGDIR
 70
     0
  9
$PDMODE
 70
     0
  9
$PDSIZE
 40
0.0
  9
$PLINEWID
 40
0.0
  9
$COORDS
 70
     0
  9
$SPLFRAME
 70
     0
  9
$SPLINETYPE
 70
     6
  9
$SPLINESEGS
 70
     8
  9
$ATTDIA
 70
     0
  9
$ATTREQ
 70
     1
  9
$HANDLING
 70
     1
  9
$HANDSEED
  5
29E
  9
$SURFTAB1
 70
     6
  9
$SURFTAB2
 70
     6
  9
$SURFTYPE
 70
     6
  9
$SURFU
 70
     6
  9
$SURFV
 70
     6
  9
$UCSNAME
  2

  9
$UCSORG
 10
0.0
 20
0.0
 30
0.0
  9
$UCSXDIR
 10
1.0
 20
0.0
 30
0.0
  9
$UCSYDIR
 10
0.0
 20
1.0
 30
0.0
  9
$PUCSNAME
  2

  9
$PUCSORG
 10
0.0
 20
0.0
 30
0.0
  9
$PUCSXDIR
 10
1.0
 20
0.0
 30
0.0
  9
$PUCSYDIR
 10
0.0
 20
1.0
 30
0.0
  9
$USERI1
 70
     0
  9
$USERI2
 70
     0
  9
$USERI3
 70
     0
  9
$USERI4
 70
     0
  9
$USERI5
 70
     0
  9
$USERR1
 40
0.0
  9
$USERR2
 40
0.0
  9
$USERR3
 40
0.0
  9
$USERR4
 40
0.0
  9
$USERR5
 40
0.0
  9
$WORLDVIEW
 70
     1
  9
$SHADEDGE
 70
     3
  9
$SHADEDIF
 70
    70
  9
$TILEMODE
 70
     1
  9
$MAXACTVP
 70
    48
  9
$PLIMCHECK
 70
     0
  9
$PEXTMIN
 10
1.0000000000000000E+020
 20
1.0000000000000000E+020
 30
1.0000000000000000E+020
  9
$PEXTMAX
 10
-1.0000000000000000E+020
 20
-1.0000000000000000E+020
 30
-1.0000000000000000E+020
  9
$PLIMMIN
 10
0.0
 20
0.0
  9
$PLIMMAX
 10
420.0
 20
297.0
  9
$UNITMODE
 70
     0
  9
$VISRETAIN
 70
     1
  9
$PLINEGEN
 70
     0
  9
$PSLTSCALE
 70
     1
  0
ENDSEC
  0
SECTION
  2
TABLES
  0
TABLE
  2
VPORT
 70
     2
  0
VPORT
  2
*ACTIVE
 70
     0
 10
0.0
 20
0.0
 11
1.0
 21
1.0
 12
85.843345880429538
 22
35.347537707127842
 13
0.0
 23
0.0
 14
1.0
 24
1.0
 15
10.0
 25
10.0
 16
0.0
 26
0.0
 36
1.0
 17
0.0
 27
0.0
 37
0.0
 40
109.7607951996112
 41
1.662337662337662
 42
50.0
 43
0.0
 44
0.0
 50
0.0
 51
0.0
 71
     0
 72
   100
 73
     1
 74
     1
 75
     0
 76
     0
 77
     0
 78
     0
  0
ENDTAB
  0
TABLE
  2
LTYPE
 70
     3
  0
LTYPE
  2
CONTINUOUS
 70
     0
  3
Solid line
 72
    65
 73
     0
 40
0.0
  0
LTYPE
  2
CENTER
 70
     0
  3
Center ____ _ ____ _ ____ _ ____ _ ____ _ ____
 72
    65
 73
     4
 40
50.799999999999997
 49
31.75
 49
-6.349999999999997
 49
6.349999999999997
 49
-6.349999999999997
  0
LTYPE
  2
DASHED
 70
     0
  3
Dashed __ __ __ __ __ __ __ __ __ __ __ __ __ _
 72
    65
 73
     2
 40
19.04999999999999
 49
12.699999999999999
 49
-6.349999999999997
  0
ENDTAB
  0
TABLE
  2
LAYER
 70
     4
  0
LAYER
  2
0
 70
     0
 62
     7
  6
CONTINUOUS
  0
LAYER
  2
CENTER
 70
     0
 62
     1
  6
CENTER
  0
LAYER
  2
DEFPOINTS
 70
     0
 62
     7
  6
CONTINUOUS
  0
ENDTAB
  0
TABLE
  2
STYLE
 70
     1
  0
STYLE
  2
STANDARD
 70
     0
 40
0.0
 41
1.0
 50
0.0
 71
     0
 42
2.0
  3
txt.shx
  4
extfont.shx
  0
ENDTAB
  0
TABLE
  2
VIEW
 70
     0
  0
ENDTAB
  0
TABLE
  2
UCS
 70
     0
  0
ENDTAB
  0
TABLE
  2
APPID
 70
     1
  0
APPID
  2
ACAD
 70
     0
  0
ENDTAB
  0
TABLE
  2
DIMSTYLE
 70
     2
  0
DIMSTYLE
  2
MISUMI
 70
     0
  3

  4

  5

  6

  7

 40
1.0
 41
3.0
 42
1.0
 43
0.0
 44
1.0
 45
0.0
 46
0.0
 47
0.0
 48
0.0
140
3.2000000000000002
141
0.0
142
0.0
143
0.04
144
1.0
145
1.0
146
0.6
147
1.0
 71
     0
 72
     0
 73
     0
 74
     0
 75
     0
 76
     0
 77
     1
 78
     8
170
     0
171
     2
172
     1
173
     0
174
     1
175
     0
176
     0
177
     0
178
     0
  0
ENDTAB
  0
ENDSEC
  0
SECTION
  2
BLOCKS
  0
BLOCK
  8
0
  2
$MODEL_SPACE
 70
     0
 10
0.0
 20
0.0
 30
0.0
  3
$MODEL_SPACE
  1

  0
ENDBLK
  5
27F
  8
0
  0
BLOCK
 67
     1
  8
0
  2
$PAPER_SPACE
 70
     0
 10
0.0
 20
0.0
 30
0.0
  3
$PAPER_SPACE
  1

  0
ENDBLK
  5
27B
 67
     1
  8
0
  0
ENDSEC
  0
SECTION
  2
ENTITIES
  0
LINE
  5
1D
  8
CENTER
  6
CENTER
 62
     1
 10
47.0
 20
50.0
 30
0.0
 11
83.0
 21
50.0
 31
0.0
  0
ARC
  5
27
  8
0
  6
CONTINUOUS
 62
     7
 10
65.000000000000483
 20
-300.15000000001322
 30
0.0
 40
375.15000000001322
 50
87.70847432364998
 51
92.291525676350204
  0
ARC
  5
28
  8
0
  6
CONTINUOUS
 62
     7
 10
65.000000000000483
 20
400.15000000001328
 30
0.0
 40
375.15000000001322
 50
267.70847432364968
 51
272.29152567634998
  0
LINE
  5
2B
  8
0
  6
CONTINUOUS
 62
     7
 10
50.0
 20
50.0
 30
0.0
 11
50.0
 21
74.700000000000003
 31
0.0
  0
TEXT
  5
2C
  8
0
  6
CONTINUOUS
 62
     7
 10
10.0
 20
10.0
 30
0.0
 40
2.0
  1
ROCRB50
  0
TEXT
  5
2D
  8
0
  6
CONTINUOUS
 62
     7
 10
10.0
 20
20.0
 30
0.0
 40
2.0
  1
ROCRB50-30
  0
LINE
  5
2E
  8
0
  6
CONTINUOUS
 62
     7
 10
50.0
 20
50.0
 30
0.0
 11
50.0
 21
25.29999999999999
 31
0.0
  0
LINE
  5
2F
  8
0
  6
CONTINUOUS
 62
     7
 10
71.000000000000043
 20
36.0
 30
0.0
 11
59.0
 21
36.0
 31
0.0
  0
LINE
  5
34
  8
0
  6
CONTINUOUS
 62
     7
 10
71.000000000000043
 20
64.0
 30
0.0
 11
59.0
 21
64.0
 31
0.0
  0
LINE
  5
37
  8
0
  6
CONTINUOUS
 62
     7
 10
80.0
 20
74.699999999999974
 30
0.0
 11
80.0
 21
50.0
 31
0.0
  0
LINE
  5
38
  8
0
  6
CONTINUOUS
 62
     7
 10
80.0
 20
25.300000000000018
 30
0.0
 11
80.0
 21
50.0
 31
0.0
  0
ARC
  5
111
  8
0
  6
CONTINUOUS
 62
     7
 10
58.40000000000002
 20
65.400000000000006
 30
0.0
 40
0.6
 50
359.9999999999996
 51
90.0
  0
ARC
  5
112
  8
0
  6
CONTINUOUS
 62
     7
 10
50.600000000000037
 20
65.400000000000006
 30
0.0
 40
0.6
 50
90.0
 51
179.9999999999996
  0
LINE
  5
113
  8
0
  6
CONTINUOUS
 62
     7
 10
54.500000000000021
 20
66.0
 30
0.0
 11
50.600000000000037
 21
66.0
 31
0.0
  0
LINE
  5
114
  8
0
  6
CONTINUOUS
 62
     7
 10
58.40000000000002
 20
66.0
 30
0.0
 11
54.500000000000021
 21
66.0
 31
0.0
  0
ARC
  5
115
  8
0
  6
CONTINUOUS
 62
     7
 10
58.900000000000041
 20
64.049980000000005
 30
0.0
 40
0.1
 50
270.0
 51
0.0
  0
LINE
  5
116
  8
0
  6
CONTINUOUS
 62
     7
 10
58.286990000000017
 20
63.820969999999988
 30
0.0
 11
58.036674788384282
 21
64.119319002529522
 31
0.0
  0
ARC
  5
117
  8
0
  6
CONTINUOUS
 62
     7
 10
58.286758882612013
 20
63.821438969477519
 30
0.0
 40
0.2
 50
309.91517656587229
 51
39.999778975732013
  0
LINE
  5
118
  8
0
  6
CONTINUOUS
 62
     7
 10
58.26198999999999
 20
63.539959999999979
 30
0.0
 11
58.415089445926
 21
63.668039926066207
 31
0.0
  0
LINE
  5
119
  8
0
  6
CONTINUOUS
 62
     7
 10
58.439968267158321
 20
63.949995900395102
 30
0.0
 11
58.19035823215286
 21
64.247471886845688
 31
0.0
  0
LINE
  5
11A
  8
0
  6
CONTINUOUS
 62
     7
 10
58.26198999999999
 20
63.539950000000012
 30
0.0
 11
58.133980000000022
 21
63.69295000000001
 31
0.0
  0
LINE
  5
11B
  8
0
  6
CONTINUOUS
 62
     7
 10
58.133980000000022
 20
63.692960000000006
 30
0.0
 11
58.286990000000017
 21
63.820950000000003
 31
0.0
  0
LINE
  5
11C
  8
0
  6
CONTINUOUS
 62
     7
 10
58.900000000000041
 20
63.949980000000011
 30
0.0
 11
58.439999999999969
 21
63.949980000000011
 31
0.0
  0
LINE
  5
11D
  8
0
  6
CONTINUOUS
 62
     7
 10
57.617000000000019
 20
63.569989999999997
 30
0.0
 11
57.617000000000019
 21
63.100050000266663
 31
0.0
  0
LINE
  5
11E
  8
0
  6
CONTINUOUS
 62
     7
 10
57.860187718158102
 20
64.059964184400371
 30
0.0
 11
57.816993755417521
 21
63.183016244582497
 31
0.0
  0
ARC
  5
11F
  8
0
  6
CONTINUOUS
 62
     7
 10
57.497408895432997
 20
63.349980003566913
 30
0.0
 40
0.1
 50
270.00049927481712
 51
355.00323933542808
  0
LINE
  5
120
  8
0
  6
CONTINUOUS
 62
     7
 10
57.661684268124482
 20
64.080766316673405
 30
0.0
 11
57.59702885783598
 21
63.341270061498882
 31
0.0
  0
LINE
  5
121
  8
0
  6
CONTINUOUS
 62
     7
 10
57.49740976683195
 20
63.249980003570691
 30
0.0
 11
56.349420000000038
 21
63.24996999999999
 31
0.0
  0
LINE
  5
122
  8
0
  6
CONTINUOUS
 62
     7
 10
57.361902506753808
 20
60.249999999999993
 30
0.0
 11
56.349420000000038
 21
60.249999999999993
 31
0.0
  0
ARC
  5
123
  8
0
  6
CONTINUOUS
 62
     7
 10
57.960066636281553
 20
64.055044660592756
 30
0.0
 40
0.1
 50
39.996694894790991
 51
177.18018229812279
  0
LINE
  5
124
  8
0
  6
CONTINUOUS
 62
     7
 10
57.617000000000019
 20
63.100050000266663
 30
0.0
 11
58.367000000000033
 21
62.350030000533337
 31
0.0
  0
LINE
  5
125
  8
0
  6
CONTINUOUS
 62
     7
 10
57.816993755417521
 20
63.183016244582497
 30
0.0
 11
58.567000000000021
 21
62.433010000000003
 31
0.0
  0
LINE
  5
126
  8
0
  6
CONTINUOUS
 62
     7
 10
58.367000000000033
 20
59.849989999999998
 30
0.0
 11
57.917000000000023
 21
59.849989999999998
 31
0.0
  0
LINE
  5
127
  8
0
  6
CONTINUOUS
 62
     7
 10
57.917000000000023
 20
60.049990000000001
 30
0.0
 11
58.367000000000033
 21
60.049990000000001
 31
0.0
  0
LINE
  5
128
  8
0
  6
CONTINUOUS
 62
     7
 10
57.917000000000023
 20
59.849989999999998
 30
0.0
 11
57.917000000000023
 21
60.049990000000001
 31
0.0
  0
ARC
  5
129
  8
0
  6
CONTINUOUS
 62
     7
 10
58.800000000000018
 20
59.449979999999996
 30
0.0
 40
0.2
 50
0.0
 51
90.0
  0
LINE
  5
12A
  8
0
  6
CONTINUOUS
 62
     7
 10
58.07116751384153
 20
59.249999999999993
 30
0.0
 11
58.006073797594041
 21
59.249999999999993
 31
0.0
  0
ARC
  5
12B
  8
0
  6
CONTINUOUS
 62
     7
 10
58.07116751384153
 20
59.45000000000001
 30
0.0
 40
0.2
 50
270.0
 51
320.00378135709332
  0
LINE
  5
12C
  8
0
  6
CONTINUOUS
 62
     7
 10
58.500015169615182
 20
59.649980000000021
 30
0.0
 11
58.224384886559363
 21
59.321452589689819
 31
0.0
  0
ARC
  5
12D
  8
0
  6
CONTINUOUS
 62
     7
 10
58.367000000000033
 20
60.049990000000001
 30
0.0
 40
0.2
 50
270.0000000000004
 51
0.0
  0
LINE
  5
12E
  8
0
  6
CONTINUOUS
 62
     7
 10
58.800000000000018
 20
59.649980000000021
 30
0.0
 11
58.500015169615182
 21
59.649980000000021
 31
0.0
  0
ARC
  5
12F
  8
0
  6
CONTINUOUS
 62
     7
 10
58.40000000000002
 20
58.100000000000001
 30
0.0
 40
0.6
 50
270.0
 51
359.9999999999996
  0
LINE
  5
130
  8
0
  6
CONTINUOUS
 62
     7
 10
57.81814495129484
 20
59.381569387488852
 30
0.0
 11
57.549831353053037
 21
60.118430612511141
 31
0.0
  0
ARC
  5
131
  8
0
  6
CONTINUOUS
 62
     7
 10
58.006073797594041
 20
59.45000000000001
 30
0.0
 40
0.2
 50
200.00810467891441
 51
270.0
  0
ARC
  5
132
  8
0
  6
CONTINUOUS
 62
     7
 10
57.361902506753808
 20
60.04999999999999
 30
0.0
 40
0.2
 50
20.008104678914378
 51
90.0
  0
LINE
  5
133
  8
0
  6
CONTINUOUS
 62
     7
 10
58.567000000000021
 20
62.433010000000003
 30
0.0
 11
58.567000000000021
 21
60.049990000000001
 31
0.0
  0
LINE
  5
134
  8
0
  6
CONTINUOUS
 62
     7
 10
58.367000000000033
 20
62.350030000533337
 30
0.0
 11
58.367000000000033
 21
60.049990000000001
 31
0.0
  0
ARC
  5
135
  8
0
  6
CONTINUOUS
 62
     7
 10
51.502591104567031
 20
63.349980003566913
 30
0.0
 40
0.1
 50
184.9967606645713
 51
269.99950072518288
  0
LINE
  5
136
  8
0
  6
CONTINUOUS
 62
     7
 10
51.139812281841898
 20
64.059964184400371
 30
0.0
 11
51.183006244582501
 21
63.183016244582497
 31
0.0
  0
LINE
  5
137
  8
0
  6
CONTINUOUS
 62
     7
 10
51.383000000000003
 20
63.569989999999997
 30
0.0
 11
51.383000000000003
 21
63.100050000266663
 31
0.0
  0
LINE
  5
138
  8
0
  6
CONTINUOUS
 62
     7
 10
50.866019999999978
 20
63.692960000000006
 30
0.0
 11
50.713010000000011
 21
63.820950000000003
 31
0.0
  0
LINE
  5
139
  8
0
  6
CONTINUOUS
 62
     7
 10
50.738009999999989
 20
63.539950000000012
 30
0.0
 11
50.866019999999978
 21
63.69295000000001
 31
0.0
  0
LINE
  5
13A
  8
0
  6
CONTINUOUS
 62
     7
 10
50.713010000000011
 20
63.820969999999988
 30
0.0
 11
50.963325211615782
 21
64.119319002529522
 31
0.0
  0
ARC
  5
13B
  8
0
  6
CONTINUOUS
 62
     7
 10
51.03993336371849
 20
64.055044660592756
 30
0.0
 40
0.1
 50
2.8198177018767892
 51
140.00330510520899
  0
LINE
  5
13C
  8
0
  6
CONTINUOUS
 62
     7
 10
51.338315731875561
 20
64.080766316673405
 30
0.0
 11
51.402971142164049
 21
63.341270061498882
 31
0.0
  0
LINE
  5
13D
  8
0
  6
CONTINUOUS
 62
     7
 10
50.09999999999998
 20
63.949980000000011
 30
0.0
 11
50.560000000000002
 21
63.949980000000011
 31
0.0
  0
ARC
  5
13E
  8
0
  6
CONTINUOUS
 62
     7
 10
50.713241117388023
 20
63.821438969477519
 30
0.0
 40
0.2
 50
140.0002210242678
 51
230.08482343412771
  0
ARC
  5
13F
  8
0
  6
CONTINUOUS
 62
     7
 10
50.100000000000009
 20
64.049980000000005
 30
0.0
 40
0.1
 50
180.0
 51
270.0
  0
LINE
  5
140
  8
0
  6
CONTINUOUS
 62
     7
 10
50.560031732841722
 20
63.949995900395102
 30
0.0
 11
50.80964176784714
 21
64.247471886845688
 31
0.0
  0
LINE
  5
141
  8
0
  6
CONTINUOUS
 62
     7
 10
50.738009999999989
 20
63.539959999999979
 30
0.0
 11
50.584910554074
 21
63.668039926066207
 31
0.0
  0
LINE
  5
142
  8
0
  6
CONTINUOUS
 62
     7
 10
51.183006244582501
 20
63.183016244582497
 30
0.0
 11
50.432999999999979
 21
62.433010000000003
 31
0.0
  0
LINE
  5
143
  8
0
  6
CONTINUOUS
 62
     7
 10
51.383000000000003
 20
63.100050000266663
 30
0.0
 11
50.632999999999988
 21
62.350030000533337
 31
0.0
  0
LINE
  5
144
  8
0
  6
CONTINUOUS
 62
     7
 10
51.502590233168078
 20
63.249980003570691
 30
0.0
 11
52.650579999999991
 21
63.24996999999999
 31
0.0
  0
LINE
  5
145
  8
0
  6
CONTINUOUS
 62
     7
 10
51.6380974932462
 20
60.249999999999993
 30
0.0
 11
52.650579999999991
 21
60.249999999999993
 31
0.0
  0
ARC
  5
146
  8
0
  6
CONTINUOUS
 62
     7
 10
50.928832486158512
 20
59.45000000000001
 30
0.0
 40
0.2
 50
219.9962186429068
 51
270.0
  0
LINE
  5
147
  8
0
  6
CONTINUOUS
 62
     7
 10
51.083000000000013
 20
59.849989999999998
 30
0.0
 11
51.083000000000013
 21
60.049990000000001
 31
0.0
  0
LINE
  5
148
  8
0
  6
CONTINUOUS
 62
     7
 10
50.928832486158512
 20
59.249999999999993
 30
0.0
 11
50.993926202406001
 21
59.249999999999993
 31
0.0
  0
ARC
  5
149
  8
0
  6
CONTINUOUS
 62
     7
 10
50.993926202406001
 20
59.45000000000001
 30
0.0
 40
0.2
 50
270.0
 51
339.99189532108562
  0
LINE
  5
14A
  8
0
  6
CONTINUOUS
 62
     7
 10
51.181855048705202
 20
59.381569387488852
 30
0.0
 11
51.45016864694702
 21
60.118430612511141
 31
0.0
  0
LINE
  5
14B
  8
0
  6
CONTINUOUS
 62
     7
 10
50.199999999999989
 20
59.649980000000021
 30
0.0
 11
50.499984830384861
 21
59.649980000000021
 31
0.0
  0
ARC
  5
14C
  8
0
  6
CONTINUOUS
 62
     7
 10
50.632999999999988
 20
60.049990000000001
 30
0.0
 40
0.2
 50
180.0
 51
269.9999999999996
  0
ARC
  5
14D
  8
0
  6
CONTINUOUS
 62
     7
 10
50.199999999999989
 20
59.449979999999996
 30
0.0
 40
0.2
 50
90.0
 51
180.0
  0
LINE
  5
14E
  8
0
  6
CONTINUOUS
 62
     7
 10
51.083000000000013
 20
60.049990000000001
 30
0.0
 11
50.632999999999988
 21
60.049990000000001
 31
0.0
  0
LINE
  5
14F
  8
0
  6
CONTINUOUS
 62
     7
 10
50.632999999999988
 20
59.849989999999998
 30
0.0
 11
51.083000000000013
 21
59.849989999999998
 31
0.0
  0
LINE
  5
150
  8
0
  6
CONTINUOUS
 62
     7
 10
50.499984830384861
 20
59.649980000000021
 30
0.0
 11
50.775615113440679
 21
59.321452589689819
 31
0.0
  0
ARC
  5
151
  8
0
  6
CONTINUOUS
 62
     7
 10
50.59999999999998
 20
58.100000000000001
 30
0.0
 40
0.6
 50
179.9999999999996
 51
270.0
  0
LINE
  5
152
  8
0
  6
CONTINUOUS
 62
     7
 10
50.59999999999998
 20
57.5
 30
0.0
 11
54.500000000000021
 21
57.5
 31
0.0
  0
LINE
  5
153
  8
0
  6
CONTINUOUS
 62
     7
 10
50.632999999999988
 20
62.350030000533337
 30
0.0
 11
50.632999999999988
 21
60.049990000000001
 31
0.0
  0
LINE
  5
154
  8
0
  6
CONTINUOUS
 62
     7
 10
50.432999999999979
 20
62.433010000000003
 30
0.0
 11
50.432999999999979
 21
60.049990000000001
 31
0.0
  0
ARC
  5
155
  8
0
  6
CONTINUOUS
 62
     7
 10
51.6380974932462
 20
60.04999999999999
 30
0.0
 40
0.2
 50
90.0
 51
159.99189532108559
  0
CIRCLE
  5
156
  8
0
  6
CONTINUOUS
 62
     7
 10
54.500000000000021
 20
61.749999999999993
 30
0.0
 40
2.3812500000000001
  0
LINE
  5
157
  8
0
  6
CONTINUOUS
 62
     7
 10
58.40000000000002
 20
57.5
 30
0.0
 11
54.500000000000021
 21
57.5
 31
0.0
  0
ARC
  5
158
  8
0
  6
CONTINUOUS
 62
     7
 10
51.039455844666612
 20
64.054636490469363
 30
0.0
 40
0.3
 50
4.9967606645713758
 51
140.00022102426831
  0
ARC
  5
159
  8
0
  6
CONTINUOUS
 62
     7
 10
57.960544155333423
 20
64.054636490469363
 30
0.0
 40
0.3
 50
39.99977897573158
 51
175.00323933542819
  0
ARC
  5
15A
  8
0
  6
CONTINUOUS
 62
     7
 10
58.40000000000002
 20
41.899999999999999
 30
0.0
 40
0.6
 50
0.0
 51
90.0
  0
LINE
  5
15B
  8
0
  6
CONTINUOUS
 62
     7
 10
57.917000000000023
 20
39.950009999999999
 30
0.0
 11
58.367000000000033
 21
39.950009999999999
 31
0.0
  0
LINE
  5
15C
  8
0
  6
CONTINUOUS
 62
     7
 10
57.917000000000023
 20
40.150010000000002
 30
0.0
 11
57.917000000000023
 21
39.950009999999999
 31
0.0
  0
LINE
  5
15D
  8
0
  6
CONTINUOUS
 62
     7
 10
58.800000000000018
 20
40.350020000000008
 30
0.0
 11
58.500015169615182
 21
40.350020000000008
 31
0.0
  0
LINE
  5
15E
  8
0
  6
CONTINUOUS
 62
     7
 10
58.367000000000033
 20
40.150009999999973
 30
0.0
 11
57.917000000000023
 21
40.150010000000002
 31
0.0
  0
ARC
  5
15F
  8
0
  6
CONTINUOUS
 62
     7
 10
58.367000000000033
 20
39.950009999999999
 30
0.0
 40
0.2
 50
0.0
 51
89.999999999999574
  0
LINE
  5
160
  8
0
  6
CONTINUOUS
 62
     7
 10
58.500015169615182
 20
40.350020000000008
 30
0.0
 11
58.224384886559363
 21
40.678547410310152
 31
0.0
  0
ARC
  5
161
  8
0
  6
CONTINUOUS
 62
     7
 10
58.07116751384153
 20
40.54999999999999
 30
0.0
 40
0.2
 50
39.996218642906769
 51
90.0
  0
LINE
  5
162
  8
0
  6
CONTINUOUS
 62
     7
 10
58.07116751384153
 20
40.750000000000007
 30
0.0
 11
58.006073797594041
 21
40.750000000000007
 31
0.0
  0
ARC
  5
163
  8
0
  6
CONTINUOUS
 62
     7
 10
58.800000000000018
 20
40.550019999999989
 30
0.0
 40
0.2
 50
270.0
 51
0.0
  0
LINE
  5
164
  8
0
  6
CONTINUOUS
 62
     7
 10
57.81814495129484
 20
40.618430612511133
 30
0.0
 11
57.549831353053037
 21
39.881569387488888
 31
0.0
  0
ARC
  5
165
  8
0
  6
CONTINUOUS
 62
     7
 10
57.361902506753808
 20
39.950000000000003
 30
0.0
 40
0.2
 50
270.0
 51
339.99189532108562
  0
LINE
  5
166
  8
0
  6
CONTINUOUS
 62
     7
 10
57.361902506753808
 20
39.750000000000007
 30
0.0
 11
56.349420000000038
 21
39.750000000000007
 31
0.0
  0
ARC
  5
167
  8
0
  6
CONTINUOUS
 62
     7
 10
58.006073797594041
 20
40.54999999999999
 30
0.0
 40
0.2
 50
90.0
 51
159.99189532108559
  0
LINE
  5
168
  8
0
  6
CONTINUOUS
 62
     7
 10
52.54999999999999
 20
42.5
 30
0.0
 11
52.550099999999979
 21
42.5
 31
0.0
  0
LINE
  5
169
  8
0
  6
CONTINUOUS
 62
     7
 10
51.574999999999982
 20
42.5
 30
0.0
 11
51.574999999999982
 21
42.500100000000003
 31
0.0
  0
ARC
  5
16A
  8
0
  6
CONTINUOUS
 62
     7
 10
50.59999999999998
 20
41.899999999999999
 30
0.0
 40
0.6
 50
90.0
 51
180.0
  0
ARC
  5
16B
  8
0
  6
CONTINUOUS
 62
     7
 10
51.6380974932462
 20
39.950000000000003
 30
0.0
 40
0.2
 50
200.00810467891441
 51
270.0
  0
LINE
  5
16C
  8
0
  6
CONTINUOUS
 62
     7
 10
51.181855048705202
 20
40.618430612511133
 30
0.0
 11
51.45016864694702
 21
39.881569387488888
 31
0.0
  0
ARC
  5
16D
  8
0
  6
CONTINUOUS
 62
     7
 10
50.993926202406001
 20
40.54999999999999
 30
0.0
 40
0.2
 50
20.008104678914378
 51
90.0
  0
LINE
  5
16E
  8
0
  6
CONTINUOUS
 62
     7
 10
50.928832486158512
 20
40.750000000000007
 30
0.0
 11
50.993926202406001
 21
40.750000000000007
 31
0.0
  0
ARC
  5
16F
  8
0
  6
CONTINUOUS
 62
     7
 10
50.928832486158512
 20
40.54999999999999
 30
0.0
 40
0.2
 50
90.0
 51
140.0037813570932
  0
LINE
  5
170
  8
0
  6
CONTINUOUS
 62
     7
 10
51.083000000000013
 20
40.150010000000002
 30
0.0
 11
51.083000000000013
 21
39.950009999999999
 31
0.0
  0
ARC
  5
171
  8
0
  6
CONTINUOUS
 62
     7
 10
50.199999999999989
 20
40.550019999999989
 30
0.0
 40
0.2
 50
180.0
 51
270.0
  0
ARC
  5
172
  8
0
  6
CONTINUOUS
 62
     7
 10
50.632999999999988
 20
39.950009999999999
 30
0.0
 40
0.2
 50
90.000000000000384
 51
180.0
  0
LINE
  5
173
  8
0
  6
CONTINUOUS
 62
     7
 10
50.199999999999989
 20
40.350020000000008
 30
0.0
 11
50.499984830384861
 21
40.350020000000008
 31
0.0
  0
LINE
  5
174
  8
0
  6
CONTINUOUS
 62
     7
 10
50.499984830384861
 20
40.350020000000008
 30
0.0
 11
50.775615113440679
 21
40.678547410310152
 31
0.0
  0
LINE
  5
175
  8
0
  6
CONTINUOUS
 62
     7
 10
50.632999999999988
 20
40.150009999999973
 30
0.0
 11
51.083000000000013
 21
40.150010000000002
 31
0.0
  0
LINE
  5
176
  8
0
  6
CONTINUOUS
 62
     7
 10
51.083000000000013
 20
39.950009999999999
 30
0.0
 11
50.632999999999988
 21
39.950009999999999
 31
0.0
  0
LINE
  5
177
  8
0
  6
CONTINUOUS
 62
     7
 10
50.59999999999998
 20
42.5
 30
0.0
 11
54.500000000000021
 21
42.5
 31
0.0
  0
LINE
  5
178
  8
0
  6
CONTINUOUS
 62
     7
 10
51.6380974932462
 20
39.750000000000007
 30
0.0
 11
52.650579999999991
 21
39.750000000000007
 31
0.0
  0
LINE
  5
179
  8
0
  6
CONTINUOUS
 62
     7
 10
58.40000000000002
 20
42.5
 30
0.0
 11
54.500000000000021
 21
42.5
 31
0.0
  0
LINE
  5
17B
  8
0
  6
CONTINUOUS
 62
     7
 10
58.900000000000041
 20
36.050020000000011
 30
0.0
 11
58.439999999999969
 21
36.050020000000011
 31
0.0
  0
LINE
  5
17C
  8
0
  6
CONTINUOUS
 62
     7
 10
58.133980000000022
 20
36.307040000000008
 30
0.0
 11
58.286990000000017
 21
36.179049999999997
 31
0.0
  0
LINE
  5
17D
  8
0
  6
CONTINUOUS
 62
     7
 10
58.26198999999999
 20
36.46005000000001
 30
0.0
 11
58.133980000000022
 21
36.307049999999997
 31
0.0
  0
LINE
  5
17E
  8
0
  6
CONTINUOUS
 62
     7
 10
58.439968267158321
 20
36.050004099604891
 30
0.0
 11
58.19035823215286
 21
35.75252811315432
 31
0.0
  0
LINE
  5
17F
  8
0
  6
CONTINUOUS
 62
     7
 10
58.26198999999999
 20
36.460040000000014
 30
0.0
 11
58.415089445926
 21
36.331960073933772
 31
0.0
  0
ARC
  5
180
  8
0
  6
CONTINUOUS
 62
     7
 10
58.286758882612013
 20
36.178561030522467
 30
0.0
 40
0.2
 50
320.00022102426789
 51
50.084823434127713
  0
LINE
  5
181
  8
0
  6
CONTINUOUS
 62
     7
 10
58.286990000000017
 20
36.179029999999997
 30
0.0
 11
58.036674788384282
 21
35.880680997470492
 31
0.0
  0
ARC
  5
182
  8
0
  6
CONTINUOUS
 62
     7
 10
58.900000000000041
 20
35.950020000000002
 30
0.0
 40
0.1
 50
0.0
 51
90.0
  0
LINE
  5
183
  8
0
  6
CONTINUOUS
 62
     7
 10
57.661684268124482
 20
35.919233683326581
 30
0.0
 11
57.59702885783598
 21
36.658729938501139
 31
0.0
  0
ARC
  5
184
  8
0
  6
CONTINUOUS
 62
     7
 10
57.497408895432997
 20
36.650019996433109
 30
0.0
 40
0.1
 50
4.9967606645713758
 51
89.999500725182912
  0
LINE
  5
185
  8
0
  6
CONTINUOUS
 62
     7
 10
57.860187718158102
 20
35.94003581559965
 30
0.0
 11
57.816993755417521
 21
36.816983755417532
 31
0.0
  0
LINE
  5
186
  8
0
  6
CONTINUOUS
 62
     7
 10
57.617000000000019
 20
36.430009999999989
 30
0.0
 11
57.617000000000019
 21
36.89994999973333
 31
0.0
  0
LINE
  5
187
  8
0
  6
CONTINUOUS
 62
     7
 10
57.49740976683195
 20
36.750019996429302
 30
0.0
 11
56.349420000000038
 21
36.750030000000002
 31
0.0
  0
ARC
  5
188
  8
0
  6
CONTINUOUS
 62
     7
 10
57.960066636281553
 20
35.944955339407301
 30
0.0
 40
0.1
 50
182.81981770187679
 51
320.00330510520899
  0
LINE
  5
189
  8
0
  6
CONTINUOUS
 62
     7
 10
57.816993755417521
 20
36.816983755417532
 30
0.0
 11
58.567000000000021
 21
37.566990000000011
 31
0.0
  0
LINE
  5
18A
  8
0
  6
CONTINUOUS
 62
     7
 10
57.617000000000019
 20
36.89994999973333
 30
0.0
 11
58.367000000000033
 21
37.649969999466691
 31
0.0
  0
ARC
  5
18B
  8
0
  6
CONTINUOUS
 62
     7
 10
58.40000000000002
 20
34.60000000000003
 30
0.0
 40
0.6
 50
270.0
 51
0.0
  0
ARC
  5
18C
  8
0
  6
CONTINUOUS
 62
     7
 10
57.960544155333423
 20
35.945363509530651
 30
0.0
 40
0.3
 50
184.9967606645713
 51
320.00022102426828
  0
LINE
  5
18D
  8
0
  6
CONTINUOUS
 62
     7
 10
51.383000000000003
 20
36.430009999999989
 30
0.0
 11
51.383000000000003
 21
36.89994999973333
 31
0.0
  0
LINE
  5
18E
  8
0
  6
CONTINUOUS
 62
     7
 10
51.139812281841898
 20
35.94003581559965
 30
0.0
 11
51.183006244582501
 21
36.816983755417532
 31
0.0
  0
ARC
  5
18F
  8
0
  6
CONTINUOUS
 62
     7
 10
51.502591104567031
 20
36.650019996433109
 30
0.0
 40
0.1
 50
90.000499274817088
 51
175.00323933542819
  0
LINE
  5
190
  8
0
  6
CONTINUOUS
 62
     7
 10
51.338315731875561
 20
35.919233683326581
 30
0.0
 11
51.402971142164049
 21
36.658729938501139
 31
0.0
  0
ARC
  5
191
  8
0
  6
CONTINUOUS
 62
     7
 10
51.03993336371849
 20
35.944955339407301
 30
0.0
 40
0.1
 50
219.99669489479101
 51
357.18018229812282
  0
LINE
  5
192
  8
0
  6
CONTINUOUS
 62
     7
 10
50.713010000000011
 20
36.179029999999997
 30
0.0
 11
50.963325211615782
 21
35.880680997470492
 31
0.0
  0
LINE
  5
193
  8
0
  6
CONTINUOUS
 62
     7
 10
50.738009999999989
 20
36.46005000000001
 30
0.0
 11
50.866019999999978
 21
36.307049999999997
 31
0.0
  0
LINE
  5
194
  8
0
  6
CONTINUOUS
 62
     7
 10
50.866019999999978
 20
36.307040000000008
 30
0.0
 11
50.713010000000011
 21
36.179049999999997
 31
0.0
  0
ARC
  5
195
  8
0
  6
CONTINUOUS
 62
     7
 10
50.100000000000009
 20
35.950020000000002
 30
0.0
 40
0.1
 50
90.0
 51
180.0
  0
ARC
  5
196
  8
0
  6
CONTINUOUS
 62
     7
 10
50.713241117388023
 20
36.178561030522467
 30
0.0
 40
0.2
 50
129.91517656587229
 51
219.99977897573169
  0
LINE
  5
197
  8
0
  6
CONTINUOUS
 62
     7
 10
50.09999999999998
 20
36.050020000000011
 30
0.0
 11
50.560000000000002
 21
36.050020000000011
 31
0.0
  0
LINE
  5
198
  8
0
  6
CONTINUOUS
 62
     7
 10
51.183006244582501
 20
36.816983755417532
 30
0.0
 11
50.432999999999979
 21
37.566990000000011
 31
0.0
  0
LINE
  5
199
  8
0
  6
CONTINUOUS
 62
     7
 10
50.738009999999989
 20
36.460040000000014
 30
0.0
 11
50.584910554074
 21
36.331960073933772
 31
0.0
  0
LINE
  5
19A
  8
0
  6
CONTINUOUS
 62
     7
 10
50.560031732841722
 20
36.050004099604891
 30
0.0
 11
50.80964176784714
 21
35.75252811315432
 31
0.0
  0
LINE
  5
19B
  8
0
  6
CONTINUOUS
 62
     7
 10
51.383000000000003
 20
36.89994999973333
 30
0.0
 11
50.632999999999988
 21
37.649969999466691
 31
0.0
  0
LINE
  5
19C
  8
0
  6
CONTINUOUS
 62
     7
 10
51.502590233168078
 20
36.750019996429302
 30
0.0
 11
52.650579999999991
 21
36.750030000000002
 31
0.0
  0
ARC
  5
19D
  8
0
  6
CONTINUOUS
 62
     7
 10
50.600000000000037
 20
34.600000000000001
 30
0.0
 40
0.6
 50
180.0
 51
270.0
  0
LINE
  5
19E
  8
0
  6
CONTINUOUS
 62
     7
 10
54.500000000000021
 20
34.000000000000007
 30
0.0
 11
50.600000000000037
 21
34.000000000000007
 31
0.0
  0
ARC
  5
19F
  8
0
  6
CONTINUOUS
 62
     7
 10
51.039455844666612
 20
35.945363509530651
 30
0.0
 40
0.3
 50
219.9997789757316
 51
355.00323933542808
  0
LINE
  5
1A0
  8
0
  6
CONTINUOUS
 62
     7
 10
58.40000000000002
 20
34.000000000000021
 30
0.0
 11
54.500000000000021
 21
34.000000000000007
 31
0.0
  0
CIRCLE
  5
1A1
  8
0
  6
CONTINUOUS
 62
     7
 10
54.500000000000021
 20
38.250000000000007
 30
0.0
 40
2.3812500000000001
  0
LINE
  5
1A2
  8
0
  6
CONTINUOUS
 62
     7
 10
50.432999999999979
 20
37.566990000000011
 30
0.0
 11
50.432999999999979
 21
39.950009999999999
 31
0.0
  0
LINE
  5
1A3
  8
0
  6
CONTINUOUS
 62
     7
 10
50.632999999999988
 20
37.649969999466691
 30
0.0
 11
50.632999999999988
 21
39.950009999999999
 31
0.0
  0
LINE
  5
1A4
  8
0
  6
CONTINUOUS
 62
     7
 10
58.367000000000033
 20
37.649969999466691
 30
0.0
 11
58.367000000000033
 21
39.950009999999999
 31
0.0
  0
LINE
  5
1A5
  8
0
  6
CONTINUOUS
 62
     7
 10
58.567000000000021
 20
37.566990000000011
 30
0.0
 11
58.567000000000021
 21
39.950009999999999
 31
0.0
  0
LINE
  5
1A6
  8
0
  6
CONTINUOUS
 62
     7
 10
59.0
 20
65.400000000000006
 30
0.0
 11
58.99999999999995
 21
34.60000000000003
 31
0.0
  0
LINE
  5
1A7
  8
0
  6
CONTINUOUS
 62
     7
 10
50.0
 20
65.400000000000006
 30
0.0
 11
50.0
 21
34.600000000000001
 31
0.0
  0
LINE
  5
1AE
  8
CENTER
  6
CENTER
 62
     1
 10
93.067668185169964
 20
50.0
 30
0.0
 11
151.0589890623246
 21
50.0
 31
0.0
  0
LINE
  5
1AF
  8
CENTER
  6
CENTER
 62
     1
 10
122.0633286237473
 20
78.995598244409123
 30
0.0
 11
122.0633286237473
 21
21.0043395614227
 31
0.0
  0
CIRCLE
  5
1B7
  8
0
  6
CONTINUOUS
 62
     7
 10
122.0633286237473
 20
50.0
 30
0.0
 40
7.5
  0
CIRCLE
  5
1B8
  8
0
  6
DASHED
 62
     3
 10
122.0633286237473
 20
50.0
 30
0.0
 40
14.0
  0
CIRCLE
  5
1B9
  8
0
  6
CONTINUOUS
 62
     7
 10
122.0633286237473
 20
50.0
 30
0.0
 40
16.0
  0
CIRCLE
  5
1BA
  8
0
  6
CONTINUOUS
 62
     7
 10
122.0633286237473
 20
50.0
 30
0.0
 40
24.699999999999989
  0
CIRCLE
  5
1BB
  8
0
  6
CONTINUOUS
 62
     7
 10
122.0633286237473
 20
50.0
 30
0.0
 40
25.0
  0
LINE
  5
1BC
  8
0
  6
CONTINUOUS
 62
     7
 10
80.000000000000952
 20
65.399999999999935
 30
0.0
 11
80.000000000000881
 21
34.59999999999993
 31
0.0
  0
LINE
  5
1BD
  8
0
  6
CONTINUOUS
 62
     7
 10
71.000000000000995
 20
65.399999999999991
 30
0.0
 11
71.000000000000909
 21
34.599999999999987
 31
0.0
  0
LINE
  5
1BE
  8
0
  6
CONTINUOUS
 62
     7
 10
71.433000000000845
 20
37.566989999999983
 30
0.0
 11
71.43300000000086
 21
39.950009999999978
 31
0.0
  0
LINE
  5
1BF
  8
0
  6
CONTINUOUS
 62
     7
 10
71.633000000000834
 20
37.649969999466663
 30
0.0
 11
71.633000000000834
 21
39.950009999999978
 31
0.0
  0
LINE
  5
1C0
  8
0
  6
CONTINUOUS
 62
     7
 10
79.367000000000857
 20
37.64996999946662
 30
0.0
 11
79.367000000000871
 21
39.950009999999942
 31
0.0
  0
LINE
  5
1C1
  8
0
  6
CONTINUOUS
 62
     7
 10
79.567000000000903
 20
37.566989999999947
 30
0.0
 11
79.567000000000903
 21
39.950009999999942
 31
0.0
  0
CIRCLE
  5
1C2
  8
0
  6
CONTINUOUS
 62
     7
 10
75.500000000000838
 20
38.249999999999972
 30
0.0
 40
2.3812500000000001
  0
LINE
  5
1C3
  8
0
  6
CONTINUOUS
 62
     7
 10
71.600000000000833
 20
33.999999999999993
 30
0.0
 11
75.50000000000081
 21
33.999999999999972
 31
0.0
  0
ARC
  5
1C4
  8
0
  6
CONTINUOUS
 62
     7
 10
78.960544155334219
 20
35.945363509530601
 30
0.0
 40
0.3
 50
184.9967606645715
 51
320.00022102426828
  0
LINE
  5
1C5
  8
0
  6
CONTINUOUS
 62
     7
 10
75.50000000000081
 20
33.999999999999972
 30
0.0
 11
79.400000000000816
 21
33.99999999999995
 31
0.0
  0
ARC
  5
1C6
  8
0
  6
CONTINUOUS
 62
     7
 10
79.400000000000816
 20
34.59999999999993
 30
0.0
 40
0.6
 50
269.99999999999977
 51
359.99999999999977
  0
LINE
  5
1C7
  8
0
  6
CONTINUOUS
 62
     7
 10
78.49740976683276
 20
36.750019996429259
 30
0.0
 11
77.34942000000089
 21
36.750029999999938
 31
0.0
  0
LINE
  5
1C8
  8
0
  6
CONTINUOUS
 62
     7
 10
78.617000000000857
 20
36.89994999973328
 30
0.0
 11
79.367000000000857
 21
37.64996999946662
 31
0.0
  0
LINE
  5
1C9
  8
0
  6
CONTINUOUS
 62
     7
 10
79.439968267159131
 20
36.050004099604848
 30
0.0
 11
79.190358232153699
 21
35.752528113154241
 31
0.0
  0
LINE
  5
1CA
  8
0
  6
CONTINUOUS
 62
     7
 10
79.261990000000864
 20
36.46003999999995
 30
0.0
 11
79.415089445926853
 21
36.331960073933722
 31
0.0
  0
LINE
  5
1CB
  8
0
  6
CONTINUOUS
 62
     7
 10
78.81699375541838
 20
36.816983755417468
 30
0.0
 11
79.567000000000903
 21
37.566989999999947
 31
0.0
  0
LINE
  5
1CC
  8
0
  6
CONTINUOUS
 62
     7
 10
79.900000000000858
 20
36.05001999999994
 30
0.0
 11
79.440000000000836
 21
36.05001999999994
 31
0.0
  0
ARC
  5
1CD
  8
0
  6
CONTINUOUS
 62
     7
 10
79.28675888261283
 20
36.178561030522403
 30
0.0
 40
0.2
 50
320.00022102426811
 51
50.084823434127472
  0
ARC
  5
1CE
  8
0
  6
CONTINUOUS
 62
     7
 10
79.90000000000083
 20
35.950019999999938
 30
0.0
 40
0.1
 50
359.99999999999977
 51
89.999999999999787
  0
LINE
  5
1CF
  8
0
  6
CONTINUOUS
 62
     7
 10
79.133980000000903
 20
36.307039999999937
 30
0.0
 11
79.286990000000841
 21
36.179049999999933
 31
0.0
  0
LINE
  5
1D0
  8
0
  6
CONTINUOUS
 62
     7
 10
79.261990000000864
 20
36.460049999999939
 30
0.0
 11
79.133980000000903
 21
36.30704999999994
 31
0.0
  0
LINE
  5
1D1
  8
0
  6
CONTINUOUS
 62
     7
 10
79.286990000000841
 20
36.179029999999941
 30
0.0
 11
79.036674788385099
 21
35.880680997470442
 31
0.0
  0
ARC
  5
1D2
  8
0
  6
CONTINUOUS
 62
     7
 10
78.960066636282377
 20
35.944955339407223
 30
0.0
 40
0.1
 50
182.8198177018769
 51
320.00330510520882
  0
LINE
  5
1D3
  8
0
  6
CONTINUOUS
 62
     7
 10
78.661684268125313
 20
35.919233683326532
 30
0.0
 11
78.597028857836833
 21
36.658729938501061
 31
0.0
  0
ARC
  5
1D4
  8
0
  6
CONTINUOUS
 62
     7
 10
78.497408895433821
 20
36.650019996433052
 30
0.0
 40
0.1
 50
4.996760664571573
 51
89.999500725182699
  0
LINE
  5
1D5
  8
0
  6
CONTINUOUS
 62
     7
 10
78.86018771815894
 20
35.9400358155996
 30
0.0
 11
78.81699375541838
 21
36.816983755417468
 31
0.0
  0
LINE
  5
1D6
  8
0
  6
CONTINUOUS
 62
     7
 10
78.617000000000857
 20
36.430009999999939
 30
0.0
 11
78.617000000000857
 21
36.89994999973328
 31
0.0
  0
ARC
  5
1D7
  8
0
  6
CONTINUOUS
 62
     7
 10
72.03945584466743
 20
35.945363509530608
 30
0.0
 40
0.3
 50
219.99977897573149
 51
355.00323933542842
  0
ARC
  5
1D8
  8
0
  6
CONTINUOUS
 62
     7
 10
71.600000000000833
 20
34.599999999999987
 30
0.0
 40
0.6
 50
179.9999999999998
 51
269.99999999999977
  0
LINE
  5
1D9
  8
0
  6
CONTINUOUS
 62
     7
 10
72.383000000000834
 20
36.899949999733302
 30
0.0
 11
71.633000000000834
 21
37.649969999466663
 31
0.0
  0
LINE
  5
1DA
  8
0
  6
CONTINUOUS
 62
     7
 10
72.183006244583339
 20
36.816983755417482
 30
0.0
 11
71.433000000000845
 21
37.566989999999983
 31
0.0
  0
ARC
  5
1DB
  8
0
  6
CONTINUOUS
 62
     7
 10
72.039933363719314
 20
35.944955339407258
 30
0.0
 40
0.1
 50
219.99669489479089
 51
357.18018229812287
  0
LINE
  5
1DC
  8
0
  6
CONTINUOUS
 62
     7
 10
72.502590233168903
 20
36.750019996429273
 30
0.0
 11
73.650580000000815
 21
36.750029999999967
 31
0.0
  0
LINE
  5
1DD
  8
0
  6
CONTINUOUS
 62
     7
 10
72.383000000000834
 20
36.430009999999953
 30
0.0
 11
72.383000000000834
 21
36.899949999733302
 31
0.0
  0
LINE
  5
1DE
  8
0
  6
CONTINUOUS
 62
     7
 10
72.139812281842751
 20
35.9400358155996
 30
0.0
 11
72.183006244583339
 21
36.816983755417482
 31
0.0
  0
ARC
  5
1DF
  8
0
  6
CONTINUOUS
 62
     7
 10
72.50259110456787
 20
36.650019996433073
 30
0.0
 40
0.1
 50
90.000499274816832
 51
175.00323933542839
  0
LINE
  5
1E0
  8
0
  6
CONTINUOUS
 62
     7
 10
72.338315731876378
 20
35.919233683326532
 30
0.0
 11
72.402971142164873
 21
36.658729938501097
 31
0.0
  0
ARC
  5
1E1
  8
0
  6
CONTINUOUS
 62
     7
 10
71.100000000000833
 20
35.950019999999967
 30
0.0
 40
0.1
 50
89.999999999999787
 51
179.9999999999998
  0
LINE
  5
1E2
  8
0
  6
CONTINUOUS
 62
     7
 10
71.713010000000835
 20
36.179029999999983
 30
0.0
 11
71.963325211616564
 21
35.880680997470471
 31
0.0
  0
ARC
  5
1E3
  8
0
  6
CONTINUOUS
 62
     7
 10
71.713241117388861
 20
36.178561030522459
 30
0.0
 40
0.2
 50
129.915176565872
 51
219.99977897573191
  0
LINE
  5
1E4
  8
0
  6
CONTINUOUS
 62
     7
 10
71.738010000000884
 20
36.460039999999978
 30
0.0
 11
71.584910554074838
 21
36.331960073933757
 31
0.0
  0
LINE
  5
1E5
  8
0
  6
CONTINUOUS
 62
     7
 10
71.560031732842546
 20
36.05000409960487
 30
0.0
 11
71.809641767848021
 21
35.752528113154277
 31
0.0
  0
LINE
  5
1E6
  8
0
  6
CONTINUOUS
 62
     7
 10
71.738010000000884
 20
36.460049999999967
 30
0.0
 11
71.866020000000844
 21
36.307049999999983
 31
0.0
  0
LINE
  5
1E7
  8
0
  6
CONTINUOUS
 62
     7
 10
71.866020000000844
 20
36.307040000000001
 30
0.0
 11
71.713010000000835
 21
36.179049999999989
 31
0.0
  0
LINE
  5
1E8
  8
0
  6
CONTINUOUS
 62
     7
 10
71.100000000000833
 20
36.050019999999982
 30
0.0
 11
71.560000000000912
 21
36.050019999999982
 31
0.0
  0
LINE
  5
1E9
  8
0
  6
CONTINUOUS
 62
     7
 10
71.600000000000875
 20
42.499999999999993
 30
0.0
 11
75.500000000000853
 21
42.499999999999957
 31
0.0
  0
LINE
  5
1EA
  8
0
  6
CONTINUOUS
 62
     7
 10
78.361902506754674
 20
39.749999999999957
 30
0.0
 11
77.34942000000089
 21
39.749999999999957
 31
0.0
  0
LINE
  5
1EB
  8
0
  6
CONTINUOUS
 62
     7
 10
79.400000000000901
 20
42.499999999999929
 30
0.0
 11
75.500000000000853
 21
42.499999999999957
 31
0.0
  0
LINE
  5
1EC
  8
0
  6
CONTINUOUS
 62
     7
 10
78.917000000000854
 20
39.950009999999949
 30
0.0
 11
79.367000000000871
 21
39.950009999999942
 31
0.0
  0
LINE
  5
1ED
  8
0
  6
CONTINUOUS
 62
     7
 10
79.367000000000871
 20
40.150009999999916
 30
0.0
 11
78.917000000000854
 21
40.150009999999952
 31
0.0
  0
LINE
  5
1EE
  8
0
  6
CONTINUOUS
 62
     7
 10
79.500015169616034
 20
40.350019999999937
 30
0.0
 11
79.224384886560202
 21
40.678547410310088
 31
0.0
  0
LINE
  5
1EF
  8
0
  6
CONTINUOUS
 62
     7
 10
79.800000000000907
 20
40.350019999999937
 30
0.0
 11
79.500015169616034
 21
40.350019999999937
 31
0.0
  0
ARC
  5
1F0
  8
0
  6
CONTINUOUS
 62
     7
 10
79.367000000000871
 20
39.950009999999942
 30
0.0
 40
0.2
 50
359.99999999999977
 51
89.999999999999389
  0
ARC
  5
1F1
  8
0
  6
CONTINUOUS
 62
     7
 10
79.800000000000907
 20
40.550019999999918
 30
0.0
 40
0.2
 50
269.99999999999977
 51
359.99999999999977
  0
LINE
  5
1F2
  8
0
  6
CONTINUOUS
 62
     7
 10
78.917000000000854
 20
40.150009999999952
 30
0.0
 11
78.917000000000854
 21
39.950009999999949
 31
0.0
  0
ARC
  5
1F3
  8
0
  6
CONTINUOUS
 62
     7
 10
79.071167513842354
 20
40.549999999999947
 30
0.0
 40
0.2
 50
39.99621864290657
 51
89.999999999999787
  0
LINE
  5
1F4
  8
0
  6
CONTINUOUS
 62
     7
 10
79.071167513842354
 20
40.749999999999943
 30
0.0
 11
79.006073797594908
 21
40.749999999999943
 31
0.0
  0
ARC
  5
1F5
  8
0
  6
CONTINUOUS
 62
     7
 10
79.006073797594908
 20
40.549999999999947
 30
0.0
 40
0.2
 50
89.999999999999787
 51
159.99189532108531
  0
LINE
  5
1F6
  8
0
  6
CONTINUOUS
 62
     7
 10
78.818144951295693
 20
40.618430612511062
 30
0.0
 11
78.549831353053861
 21
39.881569387488831
 31
0.0
  0
ARC
  5
1F7
  8
0
  6
CONTINUOUS
 62
     7
 10
78.361902506754674
 20
39.94999999999996
 30
0.0
 40
0.2
 50
269.99999999999977
 51
339.99189532108528
  0
ARC
  5
1F8
  8
0
  6
CONTINUOUS
 62
     7
 10
79.400000000000873
 20
41.899999999999949
 30
0.0
 40
0.6
 50
359.99999999999977
 51
89.999999999999787
  0
LINE
  5
1F9
  8
0
  6
CONTINUOUS
 62
     7
 10
78.425000000000907
 20
42.49999999999995
 30
0.0
 11
78.425000000000907
 21
42.500099999999946
 31
0.0
  0
LINE
  5
1FA
  8
0
  6
CONTINUOUS
 62
     7
 10
77.450000000000912
 20
42.49999999999995
 30
0.0
 11
77.449900000000909
 21
42.49999999999995
 31
0.0
  0
ARC
  5
1FB
  8
0
  6
CONTINUOUS
 62
     7
 10
71.99392620240684
 20
40.549999999999969
 30
0.0
 40
0.2
 50
20.008104678914179
 51
89.999999999999787
  0
LINE
  5
1FC
  8
0
  6
CONTINUOUS
 62
     7
 10
72.638097493247059
 20
39.749999999999957
 30
0.0
 11
73.650580000000815
 21
39.749999999999957
 31
0.0
  0
ARC
  5
1FD
  8
0
  6
CONTINUOUS
 62
     7
 10
72.638097493247059
 20
39.949999999999967
 30
0.0
 40
0.2
 50
200.00810467891421
 51
269.99999999999977
  0
LINE
  5
1FE
  8
0
  6
CONTINUOUS
 62
     7
 10
72.181855048706041
 20
40.618430612511091
 30
0.0
 11
72.45016864694783
 21
39.881569387488852
 31
0.0
  0
ARC
  5
1FF
  8
0
  6
CONTINUOUS
 62
     7
 10
71.200000000000884
 20
40.550019999999968
 30
0.0
 40
0.2
 50
179.9999999999998
 51
269.99999999999977
  0
LINE
  5
200
  8
0
  6
CONTINUOUS
 62
     7
 10
71.928832486159379
 20
40.749999999999979
 30
0.0
 11
71.99392620240684
 21
40.749999999999957
 31
0.0
  0
ARC
  5
201
  8
0
  6
CONTINUOUS
 62
     7
 10
71.928832486159379
 20
40.549999999999983
 30
0.0
 40
0.2
 50
89.999999999999787
 51
140.003781357093
  0
LINE
  5
202
  8
0
  6
CONTINUOUS
 62
     7
 10
71.499984830385699
 20
40.350019999999972
 30
0.0
 11
71.775615113441546
 21
40.678547410310131
 31
0.0
  0
ARC
  5
203
  8
0
  6
CONTINUOUS
 62
     7
 10
71.633000000000834
 20
39.950009999999978
 30
0.0
 40
0.2
 50
90.000000000000185
 51
179.9999999999998
  0
LINE
  5
204
  8
0
  6
CONTINUOUS
 62
     7
 10
71.633000000000834
 20
40.150009999999952
 30
0.0
 11
72.083000000000865
 21
40.150009999999973
 31
0.0
  0
LINE
  5
205
  8
0
  6
CONTINUOUS
 62
     7
 10
71.200000000000884
 20
40.350019999999972
 30
0.0
 11
71.499984830385699
 21
40.350019999999972
 31
0.0
  0
LINE
  5
206
  8
0
  6
CONTINUOUS
 62
     7
 10
72.083000000000865
 20
40.150009999999973
 30
0.0
 11
72.083000000000865
 21
39.95000999999997
 31
0.0
  0
LINE
  5
207
  8
0
  6
CONTINUOUS
 62
     7
 10
72.083000000000865
 20
39.95000999999997
 30
0.0
 11
71.633000000000834
 21
39.950009999999978
 31
0.0
  0
ARC
  5
208
  8
0
  6
CONTINUOUS
 62
     7
 10
71.600000000000875
 20
41.899999999999963
 30
0.0
 40
0.6
 50
89.999999999999787
 51
179.9999999999998
  0
ARC
  5
209
  8
0
  6
CONTINUOUS
 62
     7
 10
72.039455844667543
 20
64.054636490469335
 30
0.0
 40
0.3
 50
4.996760664571573
 51
140.0002210242682
  0
ARC
  5
20A
  8
0
  6
CONTINUOUS
 62
     7
 10
78.960544155334375
 20
64.054636490469292
 30
0.0
 40
0.3
 50
39.999778975731488
 51
175.00323933542839
  0
LINE
  5
20B
  8
0
  6
CONTINUOUS
 62
     7
 10
71.600000000000932
 20
57.499999999999972
 30
0.0
 11
75.500000000000924
 21
57.499999999999957
 31
0.0
  0
CIRCLE
  5
20C
  8
0
  6
CONTINUOUS
 62
     7
 10
75.500000000000924
 20
61.749999999999972
 30
0.0
 40
2.3812500000000001
  0
ARC
  5
20D
  8
0
  6
CONTINUOUS
 62
     7
 10
78.361902506754774
 20
60.049999999999933
 30
0.0
 40
0.2
 50
20.008104678914179
 51
89.999999999999787
  0
LINE
  5
20E
  8
0
  6
CONTINUOUS
 62
     7
 10
79.567000000000988
 20
62.433009999999932
 30
0.0
 11
79.567000000000988
 21
60.04998999999993
 31
0.0
  0
LINE
  5
20F
  8
0
  6
CONTINUOUS
 62
     7
 10
79.367000000000985
 20
62.35003000053328
 30
0.0
 11
79.367000000000985
 21
60.04998999999993
 31
0.0
  0
LINE
  5
210
  8
0
  6
CONTINUOUS
 62
     7
 10
79.400000000000958
 20
57.499999999999922
 30
0.0
 11
75.500000000000924
 21
57.499999999999957
 31
0.0
  0
ARC
  5
211
  8
0
  6
CONTINUOUS
 62
     7
 10
79.400000000000986
 20
58.09999999999993
 30
0.0
 40
0.6
 50
269.99999999999977
 51
0.0000000000001861
  0
LINE
  5
212
  8
0
  6
CONTINUOUS
 62
     7
 10
79.500015169616105
 20
59.649979999999942
 30
0.0
 11
79.224384886560273
 21
59.321452589689763
 31
0.0
  0
LINE
  5
213
  8
0
  6
CONTINUOUS
 62
     7
 10
79.367000000000985
 20
59.849989999999927
 30
0.0
 11
78.91700000000094
 21
59.849989999999927
 31
0.0
  0
LINE
  5
214
  8
0
  6
CONTINUOUS
 62
     7
 10
78.91700000000094
 20
60.049989999999951
 30
0.0
 11
79.367000000000985
 21
60.04998999999993
 31
0.0
  0
ARC
  5
215
  8
0
  6
CONTINUOUS
 62
     7
 10
79.800000000000978
 20
59.449979999999933
 30
0.0
 40
0.2
 50
359.99999999999977
 51
89.999999999999787
  0
ARC
  5
216
  8
0
  6
CONTINUOUS
 62
     7
 10
79.367000000000985
 20
60.04998999999993
 30
0.0
 40
0.2
 50
270.00000000000028
 51
359.99999999999977
  0
LINE
  5
217
  8
0
  6
CONTINUOUS
 62
     7
 10
79.800000000000978
 20
59.649979999999942
 30
0.0
 11
79.500015169616105
 21
59.649979999999942
 31
0.0
  0
LINE
  5
218
  8
0
  6
CONTINUOUS
 62
     7
 10
78.818144951295736
 20
59.381569387488781
 30
0.0
 11
78.549831353053946
 21
60.118430612511091
 31
0.0
  0
ARC
  5
219
  8
0
  6
CONTINUOUS
 62
     7
 10
79.006073797594937
 20
59.44999999999996
 30
0.0
 40
0.2
 50
200.00810467891421
 51
269.99999999999977
  0
LINE
  5
21A
  8
0
  6
CONTINUOUS
 62
     7
 10
79.071167513842454
 20
59.249999999999929
 30
0.0
 11
79.006073797594937
 21
59.249999999999929
 31
0.0
  0
LINE
  5
21B
  8
0
  6
CONTINUOUS
 62
     7
 10
78.91700000000094
 20
59.849989999999927
 30
0.0
 11
78.91700000000094
 21
60.049989999999951
 31
0.0
  0
ARC
  5
21C
  8
0
  6
CONTINUOUS
 62
     7
 10
79.071167513842454
 20
59.44999999999996
 30
0.0
 40
0.2
 50
269.99999999999977
 51
320.00378135709292
  0
LINE
  5
21D
  8
0
  6
CONTINUOUS
 62
     7
 10
78.361902506754774
 20
60.24999999999995
 30
0.0
 11
77.349420000000976
 21
60.24999999999995
 31
0.0
  0
LINE
  5
21E
  8
0
  6
CONTINUOUS
 62
     7
 10
78.497409766832902
 20
63.249980003570649
 30
0.0
 11
77.349420000000976
 21
63.249969999999927
 31
0.0
  0
LINE
  5
21F
  8
0
  6
CONTINUOUS
 62
     7
 10
78.617000000000985
 20
63.10005000026662
 30
0.0
 11
79.367000000000985
 21
62.35003000053328
 31
0.0
  0
LINE
  5
220
  8
0
  6
CONTINUOUS
 62
     7
 10
78.81699375541848
 20
63.183016244582447
 30
0.0
 11
79.567000000000988
 21
62.433009999999932
 31
0.0
  0
LINE
  5
221
  8
0
  6
CONTINUOUS
 62
     7
 10
79.261990000000978
 20
63.539959999999923
 30
0.0
 11
79.415089445926981
 21
63.668039926066157
 31
0.0
  0
LINE
  5
222
  8
0
  6
CONTINUOUS
 62
     7
 10
79.439968267159259
 20
63.949995900395031
 30
0.0
 11
79.190358232153812
 21
64.247471886845631
 31
0.0
  0
ARC
  5
223
  8
0
  6
CONTINUOUS
 62
     7
 10
79.900000000000958
 20
64.049979999999934
 30
0.0
 40
0.1
 50
269.99999999999977
 51
359.99999999999977
  0
ARC
  5
224
  8
0
  6
CONTINUOUS
 62
     7
 10
79.286758882612929
 20
63.82143896947747
 30
0.0
 40
0.2
 50
309.91517656587212
 51
39.999778975731942
  0
LINE
  5
225
  8
0
  6
CONTINUOUS
 62
     7
 10
79.900000000000986
 20
63.949979999999933
 30
0.0
 11
79.440000000000936
 21
63.949979999999933
 31
0.0
  0
LINE
  5
226
  8
0
  6
CONTINUOUS
 62
     7
 10
78.661684268125413
 20
64.080766316673362
 30
0.0
 11
78.597028857836932
 21
63.341270061498832
 31
0.0
  0
ARC
  5
227
  8
0
  6
CONTINUOUS
 62
     7
 10
78.960066636282505
 20
64.055044660592685
 30
0.0
 40
0.1
 50
39.996694894790771
 51
177.1801822981229
  0
LINE
  5
228
  8
0
  6
CONTINUOUS
 62
     7
 10
79.286990000000984
 20
63.820969999999932
 30
0.0
 11
79.036674788385213
 21
64.119319002529465
 31
0.0
  0
LINE
  5
229
  8
0
  6
CONTINUOUS
 62
     7
 10
79.261990000000978
 20
63.539949999999941
 30
0.0
 11
79.133980000000989
 21
63.692949999999932
 31
0.0
  0
LINE
  5
22A
  8
0
  6
CONTINUOUS
 62
     7
 10
79.133980000000989
 20
63.692959999999943
 30
0.0
 11
79.286990000000984
 21
63.820949999999932
 31
0.0
  0
LINE
  5
22B
  8
0
  6
CONTINUOUS
 62
     7
 10
78.617000000000985
 20
63.569989999999933
 30
0.0
 11
78.617000000000985
 21
63.10005000026662
 31
0.0
  0
LINE
  5
22C
  8
0
  6
CONTINUOUS
 62
     7
 10
78.860187718159068
 20
64.059964184400314
 30
0.0
 11
78.81699375541848
 21
63.183016244582447
 31
0.0
  0
ARC
  5
22D
  8
0
  6
CONTINUOUS
 62
     7
 10
78.497408895433949
 20
63.349980003566849
 30
0.0
 40
0.1
 50
270.00049927481678
 51
355.00323933542842
  0
LINE
  5
22E
  8
0
  6
CONTINUOUS
 62
     7
 10
71.633000000000948
 20
62.350030000533323
 30
0.0
 11
71.633000000000933
 21
60.049989999999973
 31
0.0
  0
LINE
  5
22F
  8
0
  6
CONTINUOUS
 62
     7
 10
71.433000000000945
 20
62.433009999999982
 30
0.0
 11
71.433000000000945
 21
60.049989999999973
 31
0.0
  0
ARC
  5
230
  8
0
  6
CONTINUOUS
 62
     7
 10
72.63809749324713
 20
60.049999999999969
 30
0.0
 40
0.2
 50
89.999999999999787
 51
159.99189532108531
  0
ARC
  5
231
  8
0
  6
CONTINUOUS
 62
     7
 10
71.993926202406925
 20
59.449999999999967
 30
0.0
 40
0.2
 50
269.99999999999977
 51
339.99189532108528
  0
LINE
  5
232
  8
0
  6
CONTINUOUS
 62
     7
 10
72.181855048706112
 20
59.381569387488817
 30
0.0
 11
72.450168646947915
 21
60.118430612511091
 31
0.0
  0
ARC
  5
233
  8
0
  6
CONTINUOUS
 62
     7
 10
71.600000000000932
 20
58.09999999999998
 30
0.0
 40
0.6
 50
180.0000000000002
 51
269.99999999999977
  0
LINE
  5
234
  8
0
  6
CONTINUOUS
 62
     7
 10
71.200000000000941
 20
59.649979999999971
 30
0.0
 11
71.499984830385756
 21
59.649979999999971
 31
0.0
  0
ARC
  5
235
  8
0
  6
CONTINUOUS
 62
     7
 10
71.633000000000933
 20
60.049989999999973
 30
0.0
 40
0.2
 50
179.9999999999998
 51
269.99999999999937
  0
LINE
  5
236
  8
0
  6
CONTINUOUS
 62
     7
 10
71.499984830385756
 20
59.649979999999971
 30
0.0
 11
71.775615113441575
 21
59.321452589689791
 31
0.0
  0
ARC
  5
237
  8
0
  6
CONTINUOUS
 62
     7
 10
71.928832486159422
 20
59.449999999999989
 30
0.0
 40
0.2
 50
219.99621864290651
 51
269.99999999999977
  0
LINE
  5
238
  8
0
  6
CONTINUOUS
 62
     7
 10
71.928832486159422
 20
59.249999999999972
 30
0.0
 11
71.993926202406925
 21
59.249999999999972
 31
0.0
  0
ARC
  5
239
  8
0
  6
CONTINUOUS
 62
     7
 10
71.200000000000941
 20
59.449979999999982
 30
0.0
 40
0.2
 50
89.999999999999787
 51
179.9999999999998
  0
LINE
  5
23A
  8
0
  6
CONTINUOUS
 62
     7
 10
72.083000000000936
 20
59.849989999999963
 30
0.0
 11
72.083000000000936
 21
60.049989999999973
 31
0.0
  0
LINE
  5
23B
  8
0
  6
CONTINUOUS
 62
     7
 10
72.083000000000936
 20
60.049989999999973
 30
0.0
 11
71.633000000000933
 21
60.049989999999973
 31
0.0
  0
LINE
  5
23C
  8
0
  6
CONTINUOUS
 62
     7
 10
71.633000000000933
 20
59.849989999999977
 30
0.0
 11
72.083000000000936
 21
59.849989999999963
 31
0.0
  0
LINE
  5
23D
  8
0
  6
CONTINUOUS
 62
     7
 10
72.183006244583453
 20
63.183016244582461
 30
0.0
 11
71.433000000000945
 21
62.433009999999982
 31
0.0
  0
LINE
  5
23E
  8
0
  6
CONTINUOUS
 62
     7
 10
72.383000000000933
 20
63.100050000266627
 30
0.0
 11
71.633000000000948
 21
62.350030000533323
 31
0.0
  0
ARC
  5
23F
  8
0
  6
CONTINUOUS
 62
     7
 10
72.039933363719442
 20
64.055044660592728
 30
0.0
 40
0.1
 50
2.819817701876969
 51
140.00330510520871
  0
LINE
  5
240
  8
0
  6
CONTINUOUS
 62
     7
 10
72.63809749324713
 20
60.24999999999995
 30
0.0
 11
73.650580000000929
 21
60.24999999999995
 31
0.0
  0
LINE
  5
241
  8
0
  6
CONTINUOUS
 62
     7
 10
72.50259023316903
 20
63.24998000357067
 30
0.0
 11
73.650580000000929
 21
63.249969999999962
 31
0.0
  0
LINE
  5
242
  8
0
  6
CONTINUOUS
 62
     7
 10
72.338315731876492
 20
64.08076631667339
 30
0.0
 11
72.402971142164986
 21
63.34127006149884
 31
0.0
  0
ARC
  5
243
  8
0
  6
CONTINUOUS
 62
     7
 10
72.502591104567983
 20
63.349980003566863
 30
0.0
 40
0.1
 50
184.9967606645715
 51
269.99950072518271
  0
LINE
  5
244
  8
0
  6
CONTINUOUS
 62
     7
 10
72.139812281842865
 20
64.059964184400343
 30
0.0
 11
72.183006244583453
 21
63.183016244582461
 31
0.0
  0
LINE
  5
245
  8
0
  6
CONTINUOUS
 62
     7
 10
72.383000000000933
 20
63.569989999999962
 30
0.0
 11
72.383000000000933
 21
63.100050000266627
 31
0.0
  0
LINE
  5
246
  8
0
  6
CONTINUOUS
 62
     7
 10
71.100000000000961
 20
63.949979999999982
 30
0.0
 11
71.560000000001011
 21
63.949979999999982
 31
0.0
  0
LINE
  5
247
  8
0
  6
CONTINUOUS
 62
     7
 10
71.866020000000958
 20
63.692959999999978
 30
0.0
 11
71.713010000000949
 21
63.820949999999982
 31
0.0
  0
LINE
  5
248
  8
0
  6
CONTINUOUS
 62
     7
 10
71.738010000000983
 20
63.53994999999999
 30
0.0
 11
71.866020000000958
 21
63.692949999999982
 31
0.0
  0
LINE
  5
249
  8
0
  6
CONTINUOUS
 62
     7
 10
71.56003173284266
 20
63.949995900395081
 30
0.0
 11
71.809641767848134
 21
64.247471886845659
 31
0.0
  0
LINE
  5
24A
  8
0
  6
CONTINUOUS
 62
     7
 10
71.738010000000983
 20
63.539959999999958
 30
0.0
 11
71.584910554074966
 21
63.668039926066193
 31
0.0
  0
ARC
  5
24B
  8
0
  6
CONTINUOUS
 62
     7
 10
71.713241117388989
 20
63.821438969477512
 30
0.0
 40
0.2
 50
140.00022102426769
 51
230.08482343412749
  0
LINE
  5
24C
  8
0
  6
CONTINUOUS
 62
     7
 10
71.713010000000949
 20
63.820969999999981
 30
0.0
 11
71.963325211616691
 21
64.119319002529494
 31
0.0
  0
ARC
  5
24D
  8
0
  6
CONTINUOUS
 62
     7
 10
71.100000000000961
 20
64.049979999999977
 30
0.0
 40
0.1
 50
179.9999999999998
 51
269.99999999999977
  0
LINE
  5
24E
  8
0
  6
CONTINUOUS
 62
     7
 10
71.600000000000961
 20
65.999999999999972
 30
0.0
 11
75.500000000000952
 21
65.999999999999957
 31
0.0
  0
LINE
  5
24F
  8
0
  6
CONTINUOUS
 62
     7
 10
75.500000000000952
 20
65.999999999999957
 30
0.0
 11
79.400000000000929
 21
65.999999999999929
 31
0.0
  0
ARC
  5
250
  8
0
  6
CONTINUOUS
 62
     7
 10
79.400000000000929
 20
65.399999999999935
 30
0.0
 40
0.6
 50
0.0000000000001861
 51
89.999999999999787
  0
ARC
  5
251
  8
0
  6
CONTINUOUS
 62
     7
 10
71.600000000000961
 20
65.399999999999977
 30
0.0
 40
0.6
 50
89.999999999999787
 51
180.0000000000002
  0
ENDSEC
  0
EOF
