  0
SECTION
  2
HEADER
  9
$ACADVER
  1
AC1009
  9
$INSBASE
 10
0.0
 20
0.0
 30
0.0
  9
$EXTMIN
 10
-1.1890651297533299
 20
-8.0
 30
0.0
  9
$EXTMAX
 10
28.761548719558551
 20
29.000000000000099
 30
0.0
  9
$LIMMIN
 10
0.0
 20
0.0
  9
$LIMMAX
 10
420.0
 20
297.0
  9
$ORTHOMODE
 70
     1
  9
$REGENMODE
 70
     1
  9
$FILLMODE
 70
     1
  9
$QTEXTMODE
 70
     0
  9
$MIRRTEXT
 70
     0
  9
$DRAGMODE
 70
     2
  9
$LTSCALE
 40
0.5
  9
$OSMODE
 70
  2109
  9
$ATTMODE
 70
     1
  9
$TEXTSIZE
 40
3.0
  9
$TRACEWID
 40
1.0
  9
$TEXTSTYLE
  7
STANDARD
  9
$CLAYER
  8
MSM_CONTINUOUS
  9
$CELTYPE
  6
BYLAYER
  9
$CECOLOR
 62
   256
  9
$DIMSCALE
 40
1.0
  9
$DIMASZ
 40
2.5
  9
$DIMEXO
 40
0.625
  9
$DIMDLI
 40
3.75
  9
$DIMRND
 40
0.0
  9
$DIMDLE
 40
0.0
  9
$DIMEXE
 40
1.25
  9
$DIMTP
 40
0.0
  9
$DIMTM
 40
0.0
  9
$DIMTXT
 40
3.0
  9
$DIMCEN
 40
2.5
  9
$DIMTSZ
 40
0.0
  9
$DIMTOL
 70
     0
  9
$DIMLIM
 70
     0
  9
$DIMTIH
 70
     0
  9
$DIMTOH
 70
     0
  9
$DIMSE1
 70
     0
  9
$DIMSE2
 70
     0
  9
$DIMTAD
 70
     1
  9
$DIMZIN
 70
     8
  9
$DIMBLK
  1
OPEN30
  9
$DIMASO
 70
     1
  9
$DIMSHO
 70
     1
  9
$DIMPOST
  1

  9
$DIMAPOST
  1

  9
$DIMALT
 70
     0
  9
$DIMALTD
 70
     3
  9
$DIMALTF
 40
0.03937007874016
  9
$DIMLFAC
 40
1.0
  9
$DIMTOFL
 70
     1
  9
$DIMTVP
 40
0.0
  9
$DIMTIX
 70
     0
  9
$DIMSOXD
 70
     0
  9
$DIMSAH
 70
     0
  9
$DIMBLK1
  1

  9
$DIMBLK2
  1

  9
$DIMSTYLE
  2
MISUMI
  9
$DIMCLRD
 70
   256
  9
$DIMCLRE
 70
   256
  9
$DIMCLRT
 70
   256
  9
$DIMTFAC
 40
1.0
  9
$DIMGAP
 40
0.625
  9
$LUNITS
 70
     2
  9
$LUPREC
 70
     2
  9
$SKETCHINC
 40
1.0
  9
$FILLETRAD
 40
0.1
  9
$AUNITS
 70
     0
  9
$AUPREC
 70
     0
  9
$MENU
  1
.
  9
$ELEVATION
 40
0.0
  9
$PELEVATION
 40
0.0
  9
$THICKNESS
 40
0.0
  9
$LIMCHECK
 70
     0
  9
$BLIPMODE
 70
     0
  9
$CHAMFERA
 40
0.5
  9
$CHAMFERB
 40
0.5
  9
$SKPOLY
 70
     0
  9
$TDCREATE
 40
2455135.5720697111
  9
$TDUPDATE
 40
2457217.403890023
  9
$TDINDWG
 40
0.731072419
  9
$TDUSRTIMER
 40
2457156.3226127662
  9
$USRTIMER
 70
     1
  9
$ANGBASE
 50
0.0
  9
$ANGDIR
 70
     0
  9
$PDMODE
 70
    35
  9
$PDSIZE
 40
0.0
  9
$PLINEWID
 40
0.0
  9
$COORDS
 70
     1
  9
$SPLFRAME
 70
     0
  9
$SPLINETYPE
 70
     6
  9
$SPLINESEGS
 70
     8
  9
$ATTDIA
 70
     1
  9
$ATTREQ
 70
     1
  9
$HANDLING
 70
     1
  9
$HANDSEED
  5
E7D3
  9
$SURFTAB1
 70
     6
  9
$SURFTAB2
 70
     6
  9
$SURFTYPE
 70
     6
  9
$SURFU
 70
     6
  9
$SURFV
 70
     6
  9
$UCSNAME
  2

  9
$UCSORG
 10
0.0
 20
0.0
 30
0.0
  9
$UCSXDIR
 10
1.0
 20
0.0
 30
0.0
  9
$UCSYDIR
 10
0.0
 20
1.0
 30
0.0
  9
$PUCSNAME
  2

  9
$PUCSORG
 10
0.0
 20
0.0
 30
0.0
  9
$PUCSXDIR
 10
1.0
 20
0.0
 30
0.0
  9
$PUCSYDIR
 10
0.0
 20
1.0
 30
0.0
  9
$USERI1
 70
     0
  9
$USERI2
 70
     0
  9
$USERI3
 70
     0
  9
$USERI4
 70
     0
  9
$USERI5
 70
     0
  9
$USERR1
 40
0.0
  9
$USERR2
 40
0.0
  9
$USERR3
 40
0.0
  9
$USERR4
 40
0.0
  9
$USERR5
 40
0.0
  9
$WORLDVIEW
 70
     1
  9
$SHADEDGE
 70
     3
  9
$SHADEDIF
 70
    70
  9
$TILEMODE
 70
     1
  9
$MAXACTVP
 70
    64
  9
$PLIMCHECK
 70
     0
  9
$PEXTMIN
 10
0.0
 20
0.0
 30
0.0
  9
$PEXTMAX
 10
0.0
 20
0.0
 30
0.0
  9
$PLIMMIN
 10
0.0
 20
0.0
  9
$PLIMMAX
 10
12.0
 20
9.0
  9
$UNITMODE
 70
     0
  9
$VISRETAIN
 70
     1
  9
$PLINEGEN
 70
     0
  9
$PSLTSCALE
 70
     1
  0
ENDSEC
  0
SECTION
  2
TABLES
  0
TABLE
  2
VPORT
 70
     1
  0
VPORT
  2
*ACTIVE
 70
     0
 10
0.0
 20
0.0
 11
1.0
 21
1.0
 12
23.097183288544219
 22
8.4138855475720646
 13
0.0
 23
0.0
 14
10.0
 24
10.0
 15
10.0
 25
10.0
 16
0.0
 26
0.0
 36
1.0
 17
0.0
 27
0.0
 37
0.0
 40
60.394848923386363
 41
2.1662303664921461
 42
50.0
 43
0.0
 44
0.0
 50
0.0
 51
0.0
 71
    16
 72
  1000
 73
     1
 74
     3
 75
     0
 76
     0
 77
     0
 78
     0
  0
ENDTAB
  0
TABLE
  2
LTYPE
 70
     3
  0
LTYPE
  2
CONTINUOUS
 70
     0
  3
Solid line
 72
    65
 73
     0
 40
0.0
  0
LTYPE
  2
CENTER
 70
     0
  3
Center ____ _ ____ _ ____ _ ____ _ ____ _ ____
 72
    65
 73
     4
 40
50.799999999999997
 49
31.75
 49
-6.3499999999999988
 49
6.3499999999999988
 49
-6.3499999999999988
  0
LTYPE
  2
DASHED
 70
     0
  3
Dashed __ __ __ __ __ __ __ __ __ __ __ __ __ _
 72
    65
 73
     2
 40
19.050000000000001
 49
12.699999999999999
 49
-6.3499999999999988
  0
ENDTAB
  0
TABLE
  2
LAYER
 70
     8
  0
LAYER
  2
0
 70
     0
 62
     7
  6
CONTINUOUS
  0
LAYER
  2
MSM_CENTER
 70
     0
 62
     1
  6
CENTER
  0
LAYER
  2
DEFPOINTS
 70
     0
 62
     7
  6
CONTINUOUS
  0
LAYER
  2
MSM_CONTINUOUS
 70
     0
 62
     7
  6
CONTINUOUS
  0
LAYER
  2
MSM_DASHED
 70
     0
 62
     4
  6
DASHED
  0
LAYER
  2
MSM_NARROW
 70
     0
 62
     5
  6
CONTINUOUS
  0
LAYER
  2
MSM_PART_NUMBER
 70
     0
 62
     7
  6
CONTINUOUS
  0
ENDTAB
  0
TABLE
  2
STYLE
 70
     1
  0
STYLE
  2
STANDARD
 70
     0
 40
3.0
 41
1.0
 50
0.0
 71
     0
 42
3.0
  3
txt.shx
  4
bigfont.shx
  0
ENDTAB
  0
TABLE
  2
VIEW
 70
     0
  0
ENDTAB
  0
TABLE
  2
UCS
 70
     0
  0
ENDTAB
  0
TABLE
  2
APPID
 70
    25
  0
APPID
  2
ACAD
 70
     0
  0
APPID
  2
ACAD_MLEADERVER
 70
     0
  0
APPID
  2
ACAD_EXEMPT_FROM_CAD_STANDARDS
 70
     0
  0
APPID
  2
ACDBBLOCKREPETAG
 70
     0
  0
APPID
  2
ACAD_DSTYLE_DIMJOGGED_JOGA
 70
     0
  0
APPID
  2
ACAECLAYERSTANDARD
 70
     0
  0
APPID
  2
GENIUS_GENODEF_13
 70
     0
  0
APPID
  2
GENIUS_GENOBJ-N-FIL_13
 70
     0
  0
APPID
  2
ACAD_PSEXT
 70
     0
  0
APPID
  2
ACAD_DSTYLE_DIMRADIAL_EXTENSION
 70
     0
  0
APPID
  2
ACDBDYNAMICBLOCKTRUENAME
 70
     0
  0
APPID
  2
ACDBDYNAMICBLOCKGUID
 70
     0
  0
APPID
  2
ACDBBLOCKREPBTAG
 70
     0
  0
APPID
  2
ACAUTHENVIRON
 70
     0
  0
APPID
  2
GRADIENTCOLOR1ACI
 70
     0
  0
APPID
  2
GRADIENTCOLOR2ACI
 70
     0
  0
APPID
  2
ACAD_DSTYLE_DIMJAG
 70
     0
  0
APPID
  2
ACAD_DSTYLE_DIMTALN
 70
     0
  0
APPID
  2
ACCMTRANSPARENCY
 70
     0
  0
APPID
  2
ACAD_DSTYLE_DIMBREAK
 70
     0
  0
APPID
  2
ACAD_DSTYLE_DIMFLIPARROW_W
 70
     0
  0
APPID
  2
ACAD_DSTYLE_DIM_LINETYPE
 70
     0
  0
APPID
  2
ACAD_DSTYLE_DIM_EXT1_LINETYPE
 70
     0
  0
APPID
  2
ACAD_DSTYLE_DIM_EXT2_LINETYPE
 70
     0
  0
APPID
  2
ACAD_NAV_VCDISPLAY
 70
     0
  0
ENDTAB
  0
TABLE
  2
DIMSTYLE
 70
     1
  0
DIMSTYLE
  2
MISUMI
 70
     0
  3

  4

  5
OPEN30
  6

  7

 40
1.0
 41
2.5
 42
0.625
 43
3.75
 44
1.25
 45
0.0
 46
0.0
 47
0.0
 48
0.0
140
3.0
141
2.5
142
0.0
143
0.03937007874016
144
1.0
145
0.0
146
1.0
147
0.625
 71
     0
 72
     0
 73
     0
 74
     0
 75
     0
 76
     0
 77
     1
 78
     8
170
     0
171
     3
172
     1
173
     0
174
     0
175
     0
176
   256
177
   256
178
   256
  0
ENDTAB
  0
ENDSEC
  0
SECTION
  2
BLOCKS
  0
BLOCK
  8
0
  2
$MODEL_SPACE
 70
     0
 10
0.0
 20
0.0
 30
0.0
  3
$MODEL_SPACE
  1

  0
ENDBLK
  5
21
  8
0
  0
BLOCK
 67
     1
  8
0
  2
$PAPER_SPACE
 70
     0
 10
0.0
 20
0.0
 30
0.0
  3
$PAPER_SPACE
  1

  0
ENDBLK
  5
E778
 67
     1
  8
0
  0
BLOCK
  8
0
 62
     7
  2
_OPEN30
 70
     0
 10
0.0
 20
0.0
 30
0.0
  3
_OPEN30
  1

  0
LINE
  5
D7
  8
0
  6
BYBLOCK
 62
     0
 10
-1.0
 20
0.26794919
 30
0.0
 11
0.0
 21
0.0
 31
0.0
  0
LINE
  5
D8
  8
0
  6
BYBLOCK
 62
     0
 10
0.0
 20
0.0
 30
0.0
 11
-1.0
 21
-0.26794919
 31
0.0
  0
LINE
  5
D9
  8
0
  6
BYBLOCK
 62
     0
 10
0.0
 20
0.0
 30
0.0
 11
-1.0
 21
0.0
 31
0.0
  0
ENDBLK
  5
DB
  8
0
 62
     7
  0
BLOCK
  8
0
  2
*U3
 70
     1
 10
0.0
 20
0.0
 30
0.0
  3
*U3
  1

  0
TEXT
  5
E7BE
  8
MSM_PART_NUMBER
 10
0.0
 20
-3.0
 30
0.0
 40
3.0
  1
EBH19
  0
ENDBLK
  5
E7C0
  8
0
  0
BLOCK
  8
0
  2
*U4
 70
     1
 10
0.0
 20
0.0
 30
0.0
  3
*U4
  1

  0
TEXT
  5
E7C2
  8
MSM_PART_NUMBER
 10
0.0
 20
-8.0
 30
0.0
 40
3.0
  1
EBH19
  0
ENDBLK
  5
E7C4
  8
0
  0
BLOCK
  8
0
  2
*U5
 70
     1
 10
0.0
 20
0.0
 30
0.0
  3
*U5
  1

  0
TEXT
  5
E7C6
  8
MSM_PART_NUMBER
 10
230.78420101418749
 20
4.7390233652656937
 30
0.0
 40
3.0
  1
ebh19.dwg
  0
ENDBLK
  5
E7C8
  8
0
  0
ENDSEC
  0
SECTION
  2
ENTITIES
  0
INSERT
  5
DCB4
  8
MSM_CONTINUOUS
  2
*U3
 10
0.0
 20
0.0
 30
0.0
  0
INSERT
  5
DCB5
  8
MSM_CONTINUOUS
  2
*U4
 10
0.0
 20
0.0
 30
0.0
  0
LINE
  5
E2C3
  8
MSM_CONTINUOUS
 10
18.785520717029179
 20
28.700000000000099
 30
0.0
 11
18.785520717029449
 21
22.950004590284319
 31
0.0
  0
LINE
  5
E2C4
  8
MSM_CENTER
 10
15.78552071702917
 20
23.018911373296621
 30
0.0
 11
15.78552071702917
 21
26.482070484801561
 31
0.0
  0
LINE
  5
E2C6
  8
MSM_CONTINUOUS
 10
18.285520717029161
 20
16.050004590284431
 30
0.0
 11
19.785520717029179
 21
16.050004590284431
 31
0.0
  0
LINE
  5
E2C7
  8
MSM_CONTINUOUS
 10
18.285520717029151
 20
22.950004590284319
 30
0.0
 11
19.785520717029179
 21
22.950004590284319
 31
0.0
  0
LINE
  5
E2CA
  8
MSM_NARROW
 10
18.410565378898191
 20
26.200000000000031
 30
0.0
 11
18.785520717029179
 21
26.574955338131581
 31
0.0
  0
LINE
  5
E2CB
  8
MSM_CONTINUOUS
 10
18.285520717029151
 20
26.199999999999999
 30
0.0
 11
18.785520717029179
 21
26.200000000000038
 31
0.0
  0
LINE
  5
E2D1
  8
MSM_CONTINUOUS
 10
12.785520717029179
 20
26.200000000000038
 30
0.0
 11
13.285523127157131
 21
26.200000000000038
 31
0.0
  0
LINE
  5
E2D2
  8
MSM_NARROW
 10
12.797905303229509
 20
26.200000000000038
 30
0.0
 11
13.285520717029179
 21
26.68761541379973
 31
0.0
  0
LINE
  5
E2D6
  8
MSM_CONTINUOUS
 10
13.28552312715701
 20
12.199509070951059
 30
0.0
 11
13.285523127157139
 21
26.800490929049019
 31
0.0
  0
LINE
  5
E2D7
  8
MSM_CENTER
 10
14.053938751147079
 20
24.750490929049089
 30
0.0
 11
17.517097862655369
 21
24.750490929049089
 31
0.0
  0
LINE
  5
E2D8
  8
MSM_CONTINUOUS
 10
19.785520717029179
 20
16.050004590284431
 30
0.0
 11
19.785520717029179
 21
22.950004590284319
 31
0.0
  0
LINE
  5
E2DB
  8
MSM_CONTINUOUS
 10
18.285520717029161
 20
12.800004590284489
 30
0.0
 11
18.785520717029179
 21
12.800004590284489
 31
0.0
  0
LINE
  5
E2DC
  8
MSM_CENTER
 10
15.78552071702917
 20
15.982070484801589
 30
0.0
 11
15.78552071702917
 21
12.51891137329666
 31
0.0
  0
ARC
  5
E2DF
  8
MSM_CONTINUOUS
 10
18.485520717029221
 20
10.29999999999996
 30
0.0
 40
0.3
 50
270.0
 51
0.0
  0
LINE
  5
E2E0
  8
MSM_CONTINUOUS
 10
18.785520717029229
 20
10.29999999999996
 30
0.0
 11
18.785520717029179
 21
16.050004590284431
 31
0.0
  0
LINE
  5
E2E1
  8
MSM_NARROW
 10
15.68094956050142
 20
10.00000000000003
 30
0.0
 11
17.680949560501489
 21
12.00000000000005
 31
0.0
  0
LINE
  5
E2E2
  8
MSM_NARROW
 10
16.803481575635171
 20
10.00000000000003
 30
0.0
 11
18.785520717029179
 21
11.982039141394161
 31
0.0
  0
LINE
  5
E2E3
  8
MSM_NARROW
 10
17.92601359076879
 20
10.00000000000003
 30
0.0
 11
18.785520717029179
 21
10.85950712626053
 31
0.0
  0
LINE
  5
E2E6
  8
MSM_CONTINUOUS
 10
12.785520717029179
 20
12.80000000000004
 30
0.0
 11
13.28552312715701
 21
12.80000000000004
 31
0.0
  0
LINE
  5
E2E7
  8
MSM_NARROW
 10
12.785520717029179
 20
11.59469921706231
 30
0.0
 11
13.304911907794819
 21
12.114090407827939
 31
0.0
  0
ARC
  5
E2E9
  8
MSM_CONTINUOUS
 10
13.085520717029119
 20
10.29999999999996
 30
0.0
 40
0.3
 50
180.0
 51
270.0
  0
LINE
  5
E2EA
  8
MSM_NARROW
 10
12.785520717029179
 20
10.47216720192867
 30
0.0
 11
14.313353515100539
 21
12.000000000000041
 31
0.0
  0
LINE
  5
E2EB
  8
MSM_NARROW
 10
13.43588553023416
 20
10.00000000000003
 30
0.0
 11
15.43588553023414
 21
12.000000000000041
 31
0.0
  0
LINE
  5
E2EC
  8
MSM_CONTINUOUS
 10
13.085520717029119
 20
10.0
 30
0.0
 11
18.485520717029221
 21
10.0
 31
0.0
  0
LINE
  5
E2ED
  8
MSM_NARROW
 10
14.558417545367799
 20
10.00000000000003
 30
0.0
 11
16.558417545367789
 21
12.000000000000041
 31
0.0
  0
LINE
  5
E2EF
  8
MSM_CONTINUOUS
 10
12.78552071702914
 20
10.29999999999996
 30
0.0
 11
12.785520717029121
 21
28.700000000000099
 31
0.0
  0
LINE
  5
E2F4
  8
MSM_CENTER
 10
11.54785777070096
 20
19.500000000000039
 30
0.0
 11
28.761548719558551
 21
19.500000000000039
 31
0.0
  0
LINE
  5
E2F9
  8
MSM_DASHED
 10
13.28552312715707
 20
20.943375672974121
 30
0.0
 11
14.53552312715707
 21
20.943375672974121
 31
0.0
  0
LINE
  5
E2FA
  8
MSM_DASHED
 10
13.28552312715707
 20
20.221687836487071
 30
0.0
 11
14.53552312715707
 21
20.221687836487071
 31
0.0
  0
LINE
  5
E2FB
  8
MSM_DASHED
 10
13.28552312715707
 20
18.778312163513011
 30
0.0
 11
14.53552312715707
 21
18.778312163513011
 31
0.0
  0
LINE
  5
E2FC
  8
MSM_DASHED
 10
13.28552312715707
 20
18.056624327025968
 30
0.0
 11
14.53552312715707
 21
18.056624327025968
 31
0.0
  0
LINE
  5
E2FD
  8
MSM_DASHED
 10
14.53552312715707
 20
20.943375672974121
 30
0.0
 11
14.53552312715707
 21
18.056624327025968
 31
0.0
  0
LINE
  5
E2FE
  8
MSM_DASHED
 10
14.53552312715707
 20
20.943375672974121
 30
0.0
 11
15.36885646049042
 21
19.500000000000039
 31
0.0
  0
LINE
  5
E2FF
  8
MSM_DASHED
 10
14.53552312715707
 20
18.056624327025968
 30
0.0
 11
15.36885646049042
 21
19.500000000000039
 31
0.0
  0
LINE
  5
E300
  8
MSM_NARROW
 10
15.843460262545809
 20
27.000490929049089
 30
0.0
 11
17.842969333496772
 21
29.000000000000039
 31
0.0
  0
ARC
  5
E301
  8
MSM_CONTINUOUS
 10
18.485520717029221
 20
28.700000000000099
 30
0.0
 40
0.3
 50
0.0
 51
90.0
  0
LINE
  5
E302
  8
MSM_NARROW
 10
18.088499697319222
 20
27.000468742009542
 30
0.0
 11
18.785520717029179
 21
27.697487353265188
 31
0.0
  0
LINE
  5
E303
  8
MSM_NARROW
 10
16.96599227767944
 20
27.000490929049089
 30
0.0
 11
18.76760929690888
 21
28.802107948278291
 31
0.0
  0
LINE
  5
E304
  8
MSM_NARROW
 10
13.598396232278541
 20
27.000490929049089
 30
0.0
 11
15.597905303229499
 21
29.000000000000039
 31
0.0
  0
LINE
  5
E305
  8
MSM_NARROW
 10
12.785520717029179
 20
27.31014742893332
 30
0.0
 11
14.47537328809587
 21
29.000000000000039
 31
0.0
  0
LINE
  5
E306
  8
MSM_NARROW
 10
12.785520717029179
 20
28.43267944406697
 30
0.0
 11
13.352841272962261
 21
29.000000000000039
 31
0.0
  0
ARC
  5
E307
  8
MSM_CONTINUOUS
 10
13.085520717029119
 20
28.700000000000099
 30
0.0
 40
0.3
 50
90.0
 51
180.0
  0
LINE
  5
E308
  8
MSM_CONTINUOUS
 10
13.085520717029119
 20
29.000000000000071
 30
0.0
 11
18.485520717029221
 21
29.000000000000071
 31
0.0
  0
LINE
  5
E309
  8
MSM_NARROW
 10
14.72092824741218
 20
27.000490929049089
 30
0.0
 11
16.720437318363139
 21
29.000000000000039
 31
0.0
  0
ARC
  5
E30C
  8
MSM_CONTINUOUS
 10
18.085520717029159
 20
26.800490929049118
 30
0.0
 40
0.2
 50
0.0
 51
90.0
  0
ARC
  5
E319
  8
MSM_CONTINUOUS
 10
18.085520717029159
 20
22.700490929049099
 30
0.0
 40
0.2
 50
270.0
 51
0.0
  0
ARC
  5
E32A
  8
MSM_CONTINUOUS
 10
18.085520717029159
 20
16.300490929049129
 30
0.0
 40
0.2
 50
0.0
 51
90.0
  0
ARC
  5
E32B
  8
MSM_CONTINUOUS
 10
18.085520717029159
 20
12.200490929049121
 30
0.0
 40
0.2
 50
270.0
 51
0.0
  0
LINE
  5
E32D
  8
MSM_CONTINUOUS
 10
18.285520717029161
 20
12.200490929049121
 30
0.0
 11
18.285520717029151
 21
26.800490929049118
 31
0.0
  0
ARC
  5
E333
  8
MSM_CONTINUOUS
 10
13.48552071702918
 20
26.800490929049118
 30
0.0
 40
0.2
 50
90.0
 51
180.0
  0
LINE
  5
E336
  8
MSM_CONTINUOUS
 10
13.61901396256653
 20
26.245106550526611
 30
0.0
 11
13.53552071702917
 21
26.100490929049101
 31
0.0
  0
ARC
  5
E338
  8
MSM_CONTINUOUS
 10
13.83552071702916
 20
26.025490929049109
 30
0.0
 40
0.1
 50
0.0
 51
167.1372659732645
  0
LINE
  5
E339
  8
MSM_CONTINUOUS
 10
13.44891785162517
 20
25.846995965949301
 30
0.0
 11
13.646302716382291
 21
26.188881712850399
 31
0.0
  0
LINE
  5
E33A
  8
MSM_CONTINUOUS
 10
13.59891843797085
 20
25.806806981651931
 30
0.0
 11
13.73803009773054
 21
26.047752536106358
 31
0.0
  0
ARC
  5
E33B
  8
MSM_CONTINUOUS
 10
13.83552071702916
 20
26.025490929049109
 30
0.0
 40
0.25
 50
0.0
 51
139.18921115694789
  0
LINE
  5
E33C
  8
MSM_CONTINUOUS
 10
13.935520717029171
 20
25.600480929049102
 30
0.0
 11
13.435520717029171
 21
25.311810929049098
 31
0.0
  0
LINE
  5
E33D
  8
MSM_CONTINUOUS
 10
14.08552071702916
 20
25.51388092904909
 30
0.0
 11
13.58552071702916
 21
25.225210929049108
 31
0.0
  0
LINE
  5
E33E
  8
MSM_CONTINUOUS
 10
13.58552071702916
 20
25.618610929049112
 30
0.0
 11
13.435520717029171
 21
25.564010929049111
 31
0.0
  0
LINE
  5
E33F
  8
MSM_CONTINUOUS
 10
14.18551071702916
 20
25.600490929049109
 30
0.0
 11
14.08552071702916
 21
25.70048092904911
 31
0.0
  0
LINE
  5
E340
  8
MSM_CONTINUOUS
 10
13.935520717029171
 20
26.025490929049109
 30
0.0
 11
13.935520717029171
 21
25.600480929049102
 31
0.0
  0
LINE
  5
E342
  8
MSM_CONTINUOUS
 10
13.435520717029171
 20
25.796996528914288
 30
0.0
 11
13.435520717029171
 21
25.564010929049111
 31
0.0
  0
LINE
  5
E343
  8
MSM_CONTINUOUS
 10
13.58552071702916
 20
25.756806529034929
 30
0.0
 11
13.58552071702916
 21
25.618610929049112
 31
0.0
  0
LINE
  5
E344
  8
MSM_CONTINUOUS
 10
14.08552071702916
 20
26.120107249440341
 30
0.0
 11
14.08552071702916
 21
25.51388092904909
 31
0.0
  0
LINE
  5
E345
  8
MSM_CONTINUOUS
 10
13.385510717029121
 20
26.100490929049101
 30
0.0
 11
13.285523127157131
 21
26.200478518921152
 31
0.0
  0
LINE
  5
E346
  8
MSM_CONTINUOUS
 10
13.53552071702917
 20
26.100490929049101
 30
0.0
 11
13.385510717029121
 21
26.100490929049101
 31
0.0
  0
LINE
  5
E347
  8
MSM_CONTINUOUS
 10
14.951806135705461
 20
25.600490929049109
 30
0.0
 11
14.18551071702916
 21
25.600490929049109
 31
0.0
  0
LINE
  5
E34D
  8
MSM_CONTINUOUS
 10
14.285520717029151
 20
23.900490929049109
 30
0.0
 11
14.18552071702916
 21
23.800490929049118
 31
0.0
  0
LINE
  5
E34E
  8
MSM_CONTINUOUS
 10
13.83552071702916
 20
23.750490929049089
 30
0.0
 11
13.58552071702916
 21
23.750490929049089
 31
0.0
  0
LINE
  5
E34F
  8
MSM_CONTINUOUS
 10
13.83552071702916
 20
23.600490929049101
 30
0.0
 11
13.63552071703227
 21
23.600490929049101
 31
0.0
  0
ARC
  5
E350
  8
MSM_CONTINUOUS
 10
14.08552071702916
 20
23.500490929049079
 30
0.0
 40
0.1
 50
270.00057999999967
 51
0.0
  0
LINE
  5
E351
  8
MSM_CONTINUOUS
 10
13.83552071702916
 20
23.750490929049089
 30
0.0
 11
13.83552071702916
 21
23.600490929049101
 31
0.0
  0
LINE
  5
E352
  8
MSM_CONTINUOUS
 10
14.18552071702916
 20
23.800490929049118
 30
0.0
 11
14.18552071702916
 21
23.500490929049079
 31
0.0
  0
LINE
  5
E353
  8
MSM_CONTINUOUS
 10
13.38553071802926
 20
23.400490929049099
 30
0.0
 11
13.2855231271571
 21
23.30049333893605
 31
0.0
  0
LINE
  5
E355
  8
MSM_CONTINUOUS
 10
14.085521729320149
 20
23.400490929054211
 30
0.0
 11
13.38553071802926
 21
23.400490929049099
 31
0.0
  0
ARC
  5
E357
  8
MSM_CONTINUOUS
 10
13.48552071702918
 20
22.700490929049099
 30
0.0
 40
0.2
 50
180.0
 51
270.0
  0
LINE
  5
E358
  8
MSM_CONTINUOUS
 10
14.95180613570542
 20
23.900490929049109
 30
0.0
 11
14.285520717029151
 21
23.900490929049109
 31
0.0
  0
LINE
  5
E359
  8
MSM_CONTINUOUS
 10
13.435520717029171
 20
25.311810929049098
 30
0.0
 11
13.43552071703227
 21
23.800490929048689
 31
0.0
  0
LINE
  5
E35A
  8
MSM_CONTINUOUS
 10
13.58552071702916
 20
25.225210929049108
 30
0.0
 11
13.58552071702916
 21
23.750490929049089
 31
0.0
  0
CIRCLE
  5
E35B
  8
MSM_CONTINUOUS
 10
15.785518306901229
 20
24.750490929049089
 30
0.0
 40
1.19062
  0
ARC
  5
E387
  8
MSM_CONTINUOUS
 10
13.48552071702918
 20
16.300490929049101
 30
0.0
 40
0.2
 50
90.0
 51
180.0
  0
ARC
  5
E388
  8
MSM_CONTINUOUS
 10
13.48552071702918
 20
12.200490929049121
 30
0.0
 40
0.2
 50
180.0
 51
270.0
  0
LINE
  5
E391
  8
MSM_CONTINUOUS
 10
13.48552071702918
 20
27.000490929049089
 30
0.0
 11
18.085520717029159
 21
27.000490929049089
 31
0.0
  0
LINE
  5
E392
  8
MSM_CONTINUOUS
 10
13.28593223469794
 20
16.500490929049089
 30
0.0
 11
18.285520717029161
 21
16.500490929049089
 31
0.0
  0
LINE
  5
E393
  8
MSM_CONTINUOUS
 10
13.2855231271571
 20
22.500490929049089
 30
0.0
 11
18.285520717029151
 21
22.500490929049089
 31
0.0
  0
LINE
  5
E39B
  8
MSM_CONTINUOUS
 10
13.48552071702918
 20
12.000490929049089
 30
0.0
 11
18.085520717029159
 21
12.000490929049089
 31
0.0
  0
LINE
  5
E39E
  8
MSM_NARROW
 10
18.285518306901238
 20
12.60456874639986
 30
0.0
 11
18.48095415078588
 21
12.80000459028445
 31
0.0
  0
LINE
  5
E487
  8
MSM_DASHED
 10
13.28552312715707
 20
17.100000000000041
 30
0.0
 11
13.78552312715707
 21
17.100000000000041
 31
0.0
  0
LINE
  5
E488
  8
MSM_DASHED
 10
13.28552312715707
 20
16.50000000000005
 30
0.0
 11
13.78552312715707
 21
17.100000000000041
 31
0.0
  0
LINE
  5
E489
  8
MSM_DASHED
 10
13.78552312715707
 20
21.900000000000048
 30
0.0
 11
13.28552312715707
 21
22.50000000000005
 31
0.0
  0
LINE
  5
E48A
  8
MSM_DASHED
 10
13.78552312715707
 20
21.900000000000048
 30
0.0
 11
13.28552312715707
 21
21.900000000000048
 31
0.0
  0
LINE
  5
E4CE
  8
MSM_NARROW
 10
19.785520717029179
 20
16.500000000000071
 30
0.0
 11
20.723426229327671
 21
17.041500000000031
 31
0.0
  0
LINE
  5
E4CF
  8
MSM_NARROW
 10
20.7234262293277
 20
17.041500000000038
 30
0.0
 11
27.7855207170292
 21
17.041500000000038
 31
0.0
  0
LINE
  5
E4D0
  8
MSM_NARROW
 10
20.7234262293277
 20
21.95850000000004
 30
0.0
 11
27.785520717029168
 21
21.95850000000004
 31
0.0
  0
LINE
  5
E4D1
  8
MSM_NARROW
 10
19.785520717029179
 20
22.500000000000039
 30
0.0
 11
20.723426229327671
 21
21.958500000000061
 31
0.0
  0
LINE
  5
E4D2
  8
MSM_CONTINUOUS
 10
27.244020717029219
 20
16.50000000000005
 30
0.0
 11
27.244020717029159
 21
22.50000000000006
 31
0.0
  0
LINE
  5
E4D3
  8
MSM_CONTINUOUS
 10
27.785520717029168
 20
21.95850000000004
 30
0.0
 11
27.244020717029159
 21
22.50000000000006
 31
0.0
  0
LINE
  5
E4D4
  8
MSM_CONTINUOUS
 10
27.7855207170292
 20
17.041500000000038
 30
0.0
 11
27.244020717029219
 21
16.50000000000005
 31
0.0
  0
LINE
  5
E4D5
  8
MSM_CONTINUOUS
 10
20.7234262293277
 20
22.500000000000039
 30
0.0
 11
20.7234262293277
 21
16.500000000000039
 31
0.0
  0
LINE
  5
E4D6
  8
MSM_CONTINUOUS
 10
19.785520717029179
 20
16.50000000000005
 30
0.0
 11
27.244020717029219
 21
16.50000000000005
 31
0.0
  0
LINE
  5
E4D7
  8
MSM_CONTINUOUS
 10
27.7855207170292
 20
17.041500000000038
 30
0.0
 11
27.785520717029168
 21
21.95850000000004
 31
0.0
  0
LINE
  5
E4D8
  8
MSM_CONTINUOUS
 10
19.785520717029179
 20
22.500000000000039
 30
0.0
 11
27.244020717029159
 21
22.50000000000006
 31
0.0
  0
ARC
  5
E4DB
  8
MSM_CONTINUOUS
 10
13.83552071702916
 20
26.120107249440341
 30
0.0
 40
0.25
 50
0.0
 51
150.00018495886741
  0
ARC
  5
E4DC
  8
MSM_CONTINUOUS
 10
13.63552071703227
 20
23.800490929049101
 30
0.0
 40
0.2
 50
180.00000000011801
 51
270.0
  0
ARC
  5
E4DD
  8
MSM_CONTINUOUS
 10
13.68552071702916
 20
25.756806529034929
 30
0.0
 40
0.0999999999999999
 50
149.99970055055209
 51
180.0
  0
ARC
  5
E4DE
  8
MSM_CONTINUOUS
 10
13.53552071702917
 20
25.796996528914288
 30
0.0
 40
0.1000000000000001
 50
150.00037245394341
 51
180.0
  0
LINE
  5
E4E0
  8
MSM_CONTINUOUS
 10
17.95202747149181
 20
26.245106550526611
 30
0.0
 11
18.035520717029168
 21
26.100490929049101
 31
0.0
  0
ARC
  5
E4E1
  8
MSM_CONTINUOUS
 10
17.735520717029178
 20
26.025490929049109
 30
0.0
 40
0.1
 50
12.862734026735451
 51
180.0
  0
LINE
  5
E4E2
  8
MSM_CONTINUOUS
 10
18.122123582433169
 20
25.846995965949301
 30
0.0
 11
17.92473871767605
 21
26.188881712850399
 31
0.0
  0
LINE
  5
E4E3
  8
MSM_CONTINUOUS
 10
17.635520717029181
 20
25.600480929049102
 30
0.0
 11
18.135520717029181
 21
25.311810929049098
 31
0.0
  0
LINE
  5
E4E4
  8
MSM_CONTINUOUS
 10
17.485520717029178
 20
25.51388092904909
 30
0.0
 11
17.985520717029178
 21
25.225210929049108
 31
0.0
  0
LINE
  5
E4E5
  8
MSM_CONTINUOUS
 10
17.985520717029178
 20
25.618610929049112
 30
0.0
 11
18.135520717029181
 21
25.564010929049111
 31
0.0
  0
LINE
  5
E4E6
  8
MSM_CONTINUOUS
 10
17.38553071702918
 20
25.600490929049109
 30
0.0
 11
17.485520717029178
 21
25.70048092904911
 31
0.0
  0
LINE
  5
E4E7
  8
MSM_CONTINUOUS
 10
17.635520717029181
 20
26.025490929049109
 30
0.0
 11
17.635520717029181
 21
25.600480929049102
 31
0.0
  0
LINE
  5
E4E8
  8
MSM_CONTINUOUS
 10
18.135520717029181
 20
25.796996528914288
 30
0.0
 11
18.135520717029181
 21
25.564010929049111
 31
0.0
  0
LINE
  5
E4E9
  8
MSM_CONTINUOUS
 10
17.985520717029178
 20
25.756806529034929
 30
0.0
 11
17.985520717029178
 21
25.618610929049112
 31
0.0
  0
LINE
  5
E4EA
  8
MSM_CONTINUOUS
 10
17.485520717029178
 20
26.120107249440341
 30
0.0
 11
17.485520717029178
 21
25.51388092904909
 31
0.0
  0
LINE
  5
E4EB
  8
MSM_CONTINUOUS
 10
18.035520717029168
 20
26.100490929049101
 30
0.0
 11
18.18553071702922
 21
26.100490929049101
 31
0.0
  0
LINE
  5
E4EC
  8
MSM_CONTINUOUS
 10
17.28552071702919
 20
23.900490929049109
 30
0.0
 11
17.38552071702917
 21
23.800490929049118
 31
0.0
  0
LINE
  5
E4ED
  8
MSM_CONTINUOUS
 10
17.735520717029178
 20
23.750490929049089
 30
0.0
 11
17.985520717029178
 21
23.750490929049089
 31
0.0
  0
LINE
  5
E4EE
  8
MSM_CONTINUOUS
 10
17.735520717029178
 20
23.600490929049101
 30
0.0
 11
17.935520717026069
 21
23.600490929049101
 31
0.0
  0
ARC
  5
E4EF
  8
MSM_CONTINUOUS
 10
17.485520717029178
 20
23.500490929049079
 30
0.0
 40
0.1
 50
180.0
 51
269.99942000000033
  0
LINE
  5
E4F0
  8
MSM_CONTINUOUS
 10
17.735520717029178
 20
23.750490929049089
 30
0.0
 11
17.735520717029178
 21
23.600490929049101
 31
0.0
  0
LINE
  5
E4F1
  8
MSM_CONTINUOUS
 10
17.38552071702917
 20
23.800490929049118
 30
0.0
 11
17.38552071702917
 21
23.500490929049079
 31
0.0
  0
LINE
  5
E4F2
  8
MSM_CONTINUOUS
 10
18.135520717029181
 20
25.311810929049098
 30
0.0
 11
18.135520717026068
 21
23.800490929048689
 31
0.0
  0
LINE
  5
E4F3
  8
MSM_CONTINUOUS
 10
17.985520717029178
 20
25.225210929049108
 30
0.0
 11
17.985520717029178
 21
23.750490929049089
 31
0.0
  0
ARC
  5
E4F4
  8
MSM_CONTINUOUS
 10
17.735520717029178
 20
26.120107249440341
 30
0.0
 40
0.25
 50
29.99981504113234
 51
180.0
  0
ARC
  5
E4F5
  8
MSM_CONTINUOUS
 10
17.935520717026069
 20
23.800490929049101
 30
0.0
 40
0.2
 50
270.0
 51
359.99999999988188
  0
LINE
  5
E4F6
  8
MSM_CONTINUOUS
 10
17.972122996087499
 20
25.806806981651931
 30
0.0
 11
17.8330113363278
 21
26.047752536106358
 31
0.0
  0
ARC
  5
E4F7
  8
MSM_CONTINUOUS
 10
17.885520717029181
 20
25.756806529034929
 30
0.0
 40
0.0999999999999999
 50
0.0
 51
30.00029944944735
  0
ARC
  5
E4F8
  8
MSM_CONTINUOUS
 10
18.035520717029179
 20
25.796996528914288
 30
0.0
 40
0.1000000000000001
 50
0.0
 51
29.999627546056121
  0
ARC
  5
E4F9
  8
MSM_CONTINUOUS
 10
17.735520717029178
 20
26.025490929049109
 30
0.0
 40
0.25
 50
40.810788843052357
 51
180.0
  0
LINE
  5
E4FA
  8
MSM_CONTINUOUS
 10
18.18553071702922
 20
26.100490929049101
 30
0.0
 11
18.28551830690121
 21
26.200478518921152
 31
0.0
  0
LINE
  5
E4FB
  8
MSM_CONTINUOUS
 10
16.61923529835288
 20
25.600490929049109
 30
0.0
 11
17.38553071702918
 21
25.600490929049109
 31
0.0
  0
LINE
  5
E4FC
  8
MSM_CONTINUOUS
 10
16.619235298352919
 20
23.900490929049109
 30
0.0
 11
17.28552071702919
 21
23.900490929049109
 31
0.0
  0
LINE
  5
E4FD
  8
MSM_CONTINUOUS
 10
18.185510716029079
 20
23.400490929049099
 30
0.0
 11
18.285518306901238
 21
23.30049333893605
 31
0.0
  0
LINE
  5
E4FE
  8
MSM_CONTINUOUS
 10
17.485519704738191
 20
23.400490929054211
 30
0.0
 11
18.185510716029079
 21
23.400490929049099
 31
0.0
  0
LINE
  5
E5E0
  8
MSM_CENTER
 10
1.25
 20
21.93906512975337
 30
0.0
 11
1.25
 21
17.060934870246712
 31
0.0
  0
LINE
  5
E5E1
  8
MSM_CENTER
 10
3.6890651297533301
 20
19.500000000000039
 30
0.0
 11
-1.1890651297533299
 21
19.500000000000039
 31
0.0
  0
LINE
  5
E5E2
  8
MSM_CONTINUOUS
 10
2.5
 20
20.221687836487082
 30
0.0
 11
1.25
 21
20.943375672974121
 31
0.0
  0
LINE
  5
E5E3
  8
MSM_CONTINUOUS
 10
1.25
 20
20.943375672974121
 30
0.0
 11
0.0
 21
20.221687836487082
 31
0.0
  0
LINE
  5
E5E4
  8
MSM_CONTINUOUS
 10
0.0
 20
20.221687836487082
 30
0.0
 11
0.0
 21
18.778312163513011
 31
0.0
  0
LINE
  5
E5E5
  8
MSM_CONTINUOUS
 10
2.5
 20
18.778312163513011
 30
0.0
 11
2.5
 21
20.221687836487082
 31
0.0
  0
LINE
  5
E5E6
  8
MSM_CONTINUOUS
 10
0.0
 20
18.778312163513011
 30
0.0
 11
1.25
 21
18.056624327025968
 31
0.0
  0
LINE
  5
E5E7
  8
MSM_CONTINUOUS
 10
1.25
 20
18.056624327025968
 30
0.0
 11
2.5
 21
18.778312163513011
 31
0.0
  0
LINE
  5
E72A
  8
MSM_CENTER
 10
14.053938751147079
 20
14.249509070951
 30
0.0
 11
17.517097862655369
 21
14.249509070951
 31
0.0
  0
LINE
  5
E72B
  8
MSM_CONTINUOUS
 10
13.61901396256653
 20
12.754893449473469
 30
0.0
 11
13.53552071702917
 21
12.899509070950989
 31
0.0
  0
ARC
  5
E72C
  8
MSM_CONTINUOUS
 10
13.83552071702916
 20
12.97450907095098
 30
0.0
 40
0.1
 50
192.86273402673541
 51
0.0
  0
LINE
  5
E72D
  8
MSM_CONTINUOUS
 10
13.44891785162517
 20
13.153004034050779
 30
0.0
 11
13.646302716382291
 21
12.811118287149689
 31
0.0
  0
LINE
  5
E72E
  8
MSM_CONTINUOUS
 10
13.59891843797085
 20
13.193193018348159
 30
0.0
 11
13.73803009773054
 21
12.95224746389373
 31
0.0
  0
ARC
  5
E72F
  8
MSM_CONTINUOUS
 10
13.83552071702916
 20
12.97450907095098
 30
0.0
 40
0.25
 50
220.81078884305211
 51
0.0
  0
LINE
  5
E730
  8
MSM_CONTINUOUS
 10
13.935520717029171
 20
13.39951907095098
 30
0.0
 11
13.435520717029171
 21
13.68818907095099
 31
0.0
  0
LINE
  5
E731
  8
MSM_CONTINUOUS
 10
14.08552071702916
 20
13.486119070951
 30
0.0
 11
13.58552071702916
 21
13.77478907095098
 31
0.0
  0
LINE
  5
E732
  8
MSM_CONTINUOUS
 10
13.58552071702916
 20
13.381389070950981
 30
0.0
 11
13.435520717029171
 21
13.435989070950979
 31
0.0
  0
LINE
  5
E733
  8
MSM_CONTINUOUS
 10
14.18551071702916
 20
13.39950907095097
 30
0.0
 11
14.08552071702916
 21
13.29951907095098
 31
0.0
  0
LINE
  5
E734
  8
MSM_CONTINUOUS
 10
13.935520717029171
 20
12.97450907095098
 30
0.0
 11
13.935520717029171
 21
13.39951907095098
 31
0.0
  0
LINE
  5
E735
  8
MSM_CONTINUOUS
 10
13.435520717029171
 20
13.20300347108579
 30
0.0
 11
13.435520717029171
 21
13.435989070950979
 31
0.0
  0
LINE
  5
E736
  8
MSM_CONTINUOUS
 10
13.58552071702916
 20
13.243193470965149
 30
0.0
 11
13.58552071702916
 21
13.381389070950981
 31
0.0
  0
LINE
  5
E737
  8
MSM_CONTINUOUS
 10
14.08552071702916
 20
12.879892750559749
 30
0.0
 11
14.08552071702916
 21
13.486119070951
 31
0.0
  0
LINE
  5
E738
  8
MSM_CONTINUOUS
 10
13.385510717029121
 20
12.899509070950989
 30
0.0
 11
13.285523127157131
 21
12.79952148107893
 31
0.0
  0
LINE
  5
E739
  8
MSM_CONTINUOUS
 10
13.53552071702917
 20
12.899509070950989
 30
0.0
 11
13.385510717029121
 21
12.899509070950989
 31
0.0
  0
LINE
  5
E73A
  8
MSM_CONTINUOUS
 10
14.951806135705461
 20
13.39950907095097
 30
0.0
 11
14.18551071702916
 21
13.39950907095097
 31
0.0
  0
LINE
  5
E73B
  8
MSM_CONTINUOUS
 10
14.285520717029151
 20
15.09950907095098
 30
0.0
 11
14.18552071702916
 21
15.19950907095096
 31
0.0
  0
LINE
  5
E73C
  8
MSM_CONTINUOUS
 10
13.83552071702916
 20
15.249509070951
 30
0.0
 11
13.58552071702916
 21
15.249509070951
 31
0.0
  0
LINE
  5
E73D
  8
MSM_CONTINUOUS
 10
13.83552071702916
 20
15.399509070950989
 30
0.0
 11
13.63552071703227
 21
15.399509070950989
 31
0.0
  0
ARC
  5
E73E
  8
MSM_CONTINUOUS
 10
14.08552071702916
 20
15.499509070951
 30
0.0
 40
0.1
 50
0.0
 51
89.999420000000228
  0
LINE
  5
E73F
  8
MSM_CONTINUOUS
 10
13.83552071702916
 20
15.249509070951
 30
0.0
 11
13.83552071702916
 21
15.399509070950989
 31
0.0
  0
LINE
  5
E740
  8
MSM_CONTINUOUS
 10
14.18552071702916
 20
15.19950907095096
 30
0.0
 11
14.18552071702916
 21
15.499509070951
 31
0.0
  0
LINE
  5
E741
  8
MSM_CONTINUOUS
 10
13.38553071802926
 20
15.59950907095098
 30
0.0
 11
13.2855231271571
 21
15.69950666106404
 31
0.0
  0
LINE
  5
E742
  8
MSM_CONTINUOUS
 10
14.085521729320149
 20
15.59950907094588
 30
0.0
 11
13.38553071802926
 21
15.59950907095098
 31
0.0
  0
LINE
  5
E743
  8
MSM_CONTINUOUS
 10
14.95180613570542
 20
15.09950907095098
 30
0.0
 11
14.285520717029151
 21
15.09950907095098
 31
0.0
  0
LINE
  5
E744
  8
MSM_CONTINUOUS
 10
13.435520717029171
 20
13.68818907095099
 30
0.0
 11
13.43552071703227
 21
15.1995090709514
 31
0.0
  0
LINE
  5
E745
  8
MSM_CONTINUOUS
 10
13.58552071702916
 20
13.77478907095098
 30
0.0
 11
13.58552071702916
 21
15.249509070951
 31
0.0
  0
CIRCLE
  5
E746
  8
MSM_CONTINUOUS
 10
15.785518306901229
 20
14.249509070951
 30
0.0
 40
1.19062
  0
ARC
  5
E747
  8
MSM_CONTINUOUS
 10
13.83552071702916
 20
12.879892750559749
 30
0.0
 40
0.25
 50
209.99981504113251
 51
0.0
  0
ARC
  5
E748
  8
MSM_CONTINUOUS
 10
13.63552071703227
 20
15.19950907095099
 30
0.0
 40
0.2
 50
90.0
 51
179.99999999988191
  0
ARC
  5
E749
  8
MSM_CONTINUOUS
 10
13.68552071702916
 20
13.243193470965149
 30
0.0
 40
0.0999999999999999
 50
180.0
 51
210.00029944944791
  0
ARC
  5
E74A
  8
MSM_CONTINUOUS
 10
13.53552071702917
 20
13.20300347108579
 30
0.0
 40
0.1000000000000001
 50
180.0
 51
209.99962754605659
  0
LINE
  5
E74B
  8
MSM_CONTINUOUS
 10
17.95202747149181
 20
12.754893449473469
 30
0.0
 11
18.035520717029168
 21
12.899509070950989
 31
0.0
  0
ARC
  5
E74C
  8
MSM_CONTINUOUS
 10
17.735520717029178
 20
12.97450907095098
 30
0.0
 40
0.1
 50
180.0
 51
347.1372659732645
  0
LINE
  5
E74D
  8
MSM_CONTINUOUS
 10
18.122123582433169
 20
13.153004034050779
 30
0.0
 11
17.92473871767605
 21
12.811118287149689
 31
0.0
  0
LINE
  5
E74E
  8
MSM_CONTINUOUS
 10
17.635520717029181
 20
13.39951907095098
 30
0.0
 11
18.135520717029181
 21
13.68818907095099
 31
0.0
  0
LINE
  5
E74F
  8
MSM_CONTINUOUS
 10
17.485520717029178
 20
13.486119070951
 30
0.0
 11
17.985520717029178
 21
13.77478907095098
 31
0.0
  0
LINE
  5
E750
  8
MSM_CONTINUOUS
 10
17.985520717029178
 20
13.381389070950981
 30
0.0
 11
18.135520717029181
 21
13.435989070950979
 31
0.0
  0
LINE
  5
E751
  8
MSM_CONTINUOUS
 10
17.38553071702918
 20
13.39950907095097
 30
0.0
 11
17.485520717029178
 21
13.29951907095098
 31
0.0
  0
LINE
  5
E752
  8
MSM_CONTINUOUS
 10
17.635520717029181
 20
12.97450907095098
 30
0.0
 11
17.635520717029181
 21
13.39951907095098
 31
0.0
  0
LINE
  5
E753
  8
MSM_CONTINUOUS
 10
18.135520717029181
 20
13.20300347108579
 30
0.0
 11
18.135520717029181
 21
13.435989070950979
 31
0.0
  0
LINE
  5
E754
  8
MSM_CONTINUOUS
 10
17.985520717029178
 20
13.243193470965149
 30
0.0
 11
17.985520717029178
 21
13.381389070950981
 31
0.0
  0
LINE
  5
E755
  8
MSM_CONTINUOUS
 10
17.485520717029178
 20
12.879892750559749
 30
0.0
 11
17.485520717029178
 21
13.486119070951
 31
0.0
  0
LINE
  5
E756
  8
MSM_CONTINUOUS
 10
18.035520717029168
 20
12.899509070950989
 30
0.0
 11
18.18553071702922
 21
12.899509070950989
 31
0.0
  0
LINE
  5
E757
  8
MSM_CONTINUOUS
 10
17.28552071702919
 20
15.09950907095098
 30
0.0
 11
17.38552071702917
 21
15.19950907095096
 31
0.0
  0
LINE
  5
E758
  8
MSM_CONTINUOUS
 10
17.735520717029178
 20
15.249509070951
 30
0.0
 11
17.985520717029178
 21
15.249509070951
 31
0.0
  0
LINE
  5
E759
  8
MSM_CONTINUOUS
 10
17.735520717029178
 20
15.399509070950989
 30
0.0
 11
17.935520717026069
 21
15.399509070950989
 31
0.0
  0
ARC
  5
E75A
  8
MSM_CONTINUOUS
 10
17.485520717029178
 20
15.499509070951
 30
0.0
 40
0.1
 50
90.000579999999758
 51
180.0
  0
LINE
  5
E75B
  8
MSM_CONTINUOUS
 10
17.735520717029178
 20
15.249509070951
 30
0.0
 11
17.735520717029178
 21
15.399509070950989
 31
0.0
  0
LINE
  5
E75C
  8
MSM_CONTINUOUS
 10
17.38552071702917
 20
15.19950907095096
 30
0.0
 11
17.38552071702917
 21
15.499509070951
 31
0.0
  0
LINE
  5
E75D
  8
MSM_CONTINUOUS
 10
18.135520717029181
 20
13.68818907095099
 30
0.0
 11
18.135520717026068
 21
15.1995090709514
 31
0.0
  0
LINE
  5
E75E
  8
MSM_CONTINUOUS
 10
17.985520717029178
 20
13.77478907095098
 30
0.0
 11
17.985520717029178
 21
15.249509070951
 31
0.0
  0
ARC
  5
E75F
  8
MSM_CONTINUOUS
 10
17.735520717029178
 20
12.879892750559749
 30
0.0
 40
0.25
 50
180.0
 51
330.00018495886769
  0
ARC
  5
E760
  8
MSM_CONTINUOUS
 10
17.935520717026069
 20
15.19950907095099
 30
0.0
 40
0.2
 50
0.0000000001180622
 51
90.0
  0
LINE
  5
E761
  8
MSM_CONTINUOUS
 10
17.972122996087499
 20
13.193193018348159
 30
0.0
 11
17.8330113363278
 21
12.95224746389373
 31
0.0
  0
ARC
  5
E762
  8
MSM_CONTINUOUS
 10
17.885520717029181
 20
13.243193470965149
 30
0.0
 40
0.0999999999999999
 50
329.99970055055257
 51
0.0
  0
ARC
  5
E763
  8
MSM_CONTINUOUS
 10
18.035520717029179
 20
13.20300347108579
 30
0.0
 40
0.1000000000000001
 50
330.00037245394378
 51
0.0
  0
ARC
  5
E764
  8
MSM_CONTINUOUS
 10
17.735520717029178
 20
12.97450907095098
 30
0.0
 40
0.25
 50
180.0
 51
319.18921115694758
  0
LINE
  5
E765
  8
MSM_CONTINUOUS
 10
18.18553071702922
 20
12.899509070950989
 30
0.0
 11
18.28551830690121
 21
12.79952148107893
 31
0.0
  0
LINE
  5
E766
  8
MSM_CONTINUOUS
 10
16.61923529835288
 20
13.39950907095097
 30
0.0
 11
17.38553071702918
 21
13.39950907095097
 31
0.0
  0
LINE
  5
E767
  8
MSM_CONTINUOUS
 10
16.619235298352919
 20
15.09950907095098
 30
0.0
 11
17.28552071702919
 21
15.09950907095098
 31
0.0
  0
LINE
  5
E768
  8
MSM_CONTINUOUS
 10
18.185510716029079
 20
15.59950907095098
 30
0.0
 11
18.285518306901238
 21
15.69950666106404
 31
0.0
  0
LINE
  5
E769
  8
MSM_CONTINUOUS
 10
17.485519704738191
 20
15.59950907094588
 30
0.0
 11
18.185510716029079
 21
15.59950907095098
 31
0.0
  0
ENDSEC
  0
EOF
