  0
SECTION
  2
HEADER
  9
$ACADVER
  1
AC1009
  9
$INSBASE
 10
0.0
 20
0.0
 30
0.0
  9
$EXTMIN
 10
-326.00729225667868
 20
-456.06698746436513
 30
0.0
  9
$EXTMAX
 10
301.99999999999989
 20
54.77383373218867
 30
0.0
  9
$LIMMIN
 10
0.0
 20
0.0
  9
$LIMMAX
 10
420.0
 20
297.0
  9
$ORTHOMODE
 70
     0
  9
$REGENMODE
 70
     1
  9
$FILLMODE
 70
     1
  9
$QTEXTMODE
 70
     0
  9
$MIRRTEXT
 70
     0
  9
$DRAGMODE
 70
     2
  9
$LTSCALE
 40
1.0
  9
$OSMODE
 70
    61
  9
$ATTMODE
 70
     1
  9
$TEXTSIZE
 40
3.0
  9
$TRACEWID
 40
1.0
  9
$TEXTSTYLE
  7
STANDARD
  9
$CLAYER
  8
0
  9
$CELTYPE
  6
CONTINUOUS
  9
$CECOLOR
 62
     7
  9
$DIMSCALE
 40
1.0
  9
$DIMASZ
 40
2.5
  9
$DIMEXO
 40
0.625
  9
$DIMDLI
 40
3.75
  9
$DIMRND
 40
0.0
  9
$DIMDLE
 40
0.0
  9
$DIMEXE
 40
1.25
  9
$DIMTP
 40
0.0
  9
$DIMTM
 40
0.0
  9
$DIMTXT
 40
2.5
  9
$DIMCEN
 40
2.5
  9
$DIMTSZ
 40
0.0
  9
$DIMTOL
 70
     0
  9
$DIMLIM
 70
     0
  9
$DIMTIH
 70
     0
  9
$DIMTOH
 70
     0
  9
$DIMSE1
 70
     0
  9
$DIMSE2
 70
     0
  9
$DIMTAD
 70
     1
  9
$DIMZIN
 70
     8
  9
$DIMBLK
  1
OPEN30
  9
$DIMASO
 70
     1
  9
$DIMSHO
 70
     1
  9
$DIMPOST
  1

  9
$DIMAPOST
  1

  9
$DIMALT
 70
     0
  9
$DIMALTD
 70
     3
  9
$DIMALTF
 40
0.03937007874016
  9
$DIMLFAC
 40
1.0
  9
$DIMTOFL
 70
     1
  9
$DIMTVP
 40
0.0
  9
$DIMTIX
 70
     0
  9
$DIMSOXD
 70
     0
  9
$DIMSAH
 70
     0
  9
$DIMBLK1
  1

  9
$DIMBLK2
  1

  9
$DIMSTYLE
  2
MISUMI
  9
$DIMCLRD
 70
   137
  9
$DIMCLRE
 70
   137
  9
$DIMCLRT
 70
   137
  9
$DIMTFAC
 40
1.0
  9
$DIMGAP
 40
0.625
  9
$LUNITS
 70
     2
  9
$LUPREC
 70
     2
  9
$SKETCHINC
 40
1.0
  9
$FILLETRAD
 40
0.0
  9
$AUNITS
 70
     0
  9
$AUPREC
 70
     0
  9
$MENU
  1
.
  9
$ELEVATION
 40
0.0
  9
$PELEVATION
 40
0.0
  9
$THICKNESS
 40
0.0
  9
$LIMCHECK
 70
     0
  9
$BLIPMODE
 70
     0
  9
$CHAMFERA
 40
0.5
  9
$CHAMFERB
 40
0.5
  9
$SKPOLY
 70
     0
  9
$TDCREATE
 40
2455135.5720697111
  9
$TDUPDATE
 40
2456191.4674605671
  9
$TDINDWG
 40
0.4457314005
  9
$TDUSRTIMER
 40
0.4457312153
  9
$USRTIMER
 70
     1
  9
$ANGBASE
 50
0.0
  9
$ANGDIR
 70
     0
  9
$PDMODE
 70
    35
  9
$PDSIZE
 40
0.0
  9
$PLINEWID
 40
0.0
  9
$COORDS
 70
     1
  9
$SPLFRAME
 70
     0
  9
$SPLINETYPE
 70
     6
  9
$SPLINESEGS
 70
     8
  9
$ATTDIA
 70
     0
  9
$ATTREQ
 70
     1
  9
$HANDLING
 70
     1
  9
$HANDSEED
  5
B387
  9
$SURFTAB1
 70
     6
  9
$SURFTAB2
 70
     6
  9
$SURFTYPE
 70
     6
  9
$SURFU
 70
     6
  9
$SURFV
 70
     6
  9
$UCSNAME
  2

  9
$UCSORG
 10
0.0
 20
0.0
 30
0.0
  9
$UCSXDIR
 10
1.0
 20
0.0
 30
0.0
  9
$UCSYDIR
 10
0.0
 20
1.0
 30
0.0
  9
$PUCSNAME
  2

  9
$PUCSORG
 10
0.0
 20
0.0
 30
0.0
  9
$PUCSXDIR
 10
1.0
 20
0.0
 30
0.0
  9
$PUCSYDIR
 10
0.0
 20
1.0
 30
0.0
  9
$USERI1
 70
     0
  9
$USERI2
 70
     0
  9
$USERI3
 70
     0
  9
$USERI4
 70
     0
  9
$USERI5
 70
     0
  9
$USERR1
 40
0.0
  9
$USERR2
 40
0.0
  9
$USERR3
 40
0.0
  9
$USERR4
 40
0.0
  9
$USERR5
 40
0.0
  9
$WORLDVIEW
 70
     1
  9
$SHADEDGE
 70
     3
  9
$SHADEDIF
 70
    70
  9
$TILEMODE
 70
     1
  9
$MAXACTVP
 70
    64
  9
$PLIMCHECK
 70
     0
  9
$PEXTMIN
 10
25.699999999999989
 20
19.5
 30
0.0
  9
$PEXTMAX
 10
231.30000000000001
 20
175.5
 30
0.0
  9
$PLIMMIN
 10
-20.0
 20
-7.5
  9
$PLIMMAX
 10
277.0
 20
202.5
  9
$UNITMODE
 70
     0
  9
$VISRETAIN
 70
     1
  9
$PLINEGEN
 70
     0
  9
$PSLTSCALE
 70
     1
  0
ENDSEC
  0
SECTION
  2
TABLES
  0
TABLE
  2
VPORT
 70
     1
  0
VPORT
  2
*ACTIVE
 70
     0
 10
0.0
 20
0.0
 11
1.0
 21
1.0
 12
1.734714899290736
 22
-191.39152969939761
 13
0.0
 23
0.0
 14
10.0
 24
10.0
 15
10.0
 25
10.0
 16
0.0
 26
0.0
 36
1.0
 17
0.0
 27
0.0
 37
0.0
 40
601.38696455945808
 41
1.2576530612244889
 42
50.0
 43
0.0
 44
0.0
 50
0.0
 51
0.0
 71
     0
 72
  1000
 73
     1
 74
     3
 75
     0
 76
     0
 77
     0
 78
     0
  0
ENDTAB
  0
TABLE
  2
LTYPE
 70
     4
  0
LTYPE
  2
CONTINUOUS
 70
     0
  3
Solid line
 72
    65
 73
     0
 40
0.0
  0
LTYPE
  2
CENTER
 70
     0
  3
Center ____ _ ____ _ ____ _ ____ _ ____ _ ____
 72
    65
 73
     4
 40
50.799999999999997
 49
31.75
 49
-6.3499999999999988
 49
6.3499999999999988
 49
-6.3499999999999988
  0
LTYPE
  2
DASHED
 70
     0
  3
Dashed __ __ __ __ __ __ __ __ __ __ __ __ __ _
 72
    65
 73
     2
 40
19.050000000000001
 49
12.699999999999999
 49
-6.3499999999999988
  0
LTYPE
  2
PHANTOM
 70
     0
  3
Phantom ______  __  __  ______  __  __  ______
 72
    65
 73
     6
 40
63.5
 49
31.75
 49
-6.3499999999999988
 49
6.3499999999999988
 49
-6.3499999999999988
 49
6.3499999999999988
 49
-6.3499999999999988
  0
ENDTAB
  0
TABLE
  2
LAYER
 70
     3
  0
LAYER
  2
0
 70
     0
 62
     7
  6
CONTINUOUS
  0
LAYER
  2
CENTER
 70
     0
 62
     1
  6
CENTER
  0
LAYER
  2
DEFPOINTS
 70
     0
 62
     7
  6
CONTINUOUS
  0
ENDTAB
  0
TABLE
  2
STYLE
 70
     1
  0
STYLE
  2
STANDARD
 70
     0
 40
3.0
 41
1.0
 50
0.0
 71
     0
 42
3.0
  3
txt.shx
  4
bigfont.shx
  0
ENDTAB
  0
TABLE
  2
VIEW
 70
     0
  0
ENDTAB
  0
TABLE
  2
UCS
 70
     0
  0
ENDTAB
  0
TABLE
  2
APPID
 70
    16
  0
APPID
  2
ACAD
 70
     0
  0
APPID
  2
ACAD_MLEADERVER
 70
     0
  0
APPID
  2
ACAD_EXEMPT_FROM_CAD_STANDARDS
 70
     0
  0
APPID
  2
ACDBBLOCKREPETAG
 70
     0
  0
APPID
  2
ACAD_DSTYLE_DIMJOGGED_JOGA
 70
     0
  0
APPID
  2
ACAECLAYERSTANDARD
 70
     0
  0
APPID
  2
GENIUS_GENODEF_13
 70
     0
  0
APPID
  2
GENIUS_GENOBJ-N-FIL_13
 70
     0
  0
APPID
  2
ACAD_PSEXT
 70
     0
  0
APPID
  2
ACAD_DSTYLE_DIMRADIAL_EXTENSION
 70
     0
  0
APPID
  2
ACDBDYNAMICBLOCKTRUENAME
 70
     0
  0
APPID
  2
ACDBDYNAMICBLOCKGUID
 70
     0
  0
APPID
  2
ACDBBLOCKREPBTAG
 70
     0
  0
APPID
  2
ACAUTHENVIRON
 70
     0
  0
APPID
  2
GRADIENTCOLOR1ACI
 70
     0
  0
APPID
  2
GRADIENTCOLOR2ACI
 70
     0
  0
ENDTAB
  0
TABLE
  2
DIMSTYLE
 70
     1
  0
DIMSTYLE
  2
MISUMI
 70
     0
  3

  4

  5
OPEN30
  6

  7

 40
1.0
 41
2.5
 42
0.625
 43
3.75
 44
1.25
 45
0.0
 46
0.0
 47
0.0
 48
0.0
140
2.5
141
2.5
142
0.0
143
0.03937007874016
144
1.0
145
0.0
146
1.0
147
0.625
 71
     0
 72
     0
 73
     0
 74
     0
 75
     0
 76
     0
 77
     1
 78
     8
170
     0
171
     3
172
     1
173
     0
174
     0
175
     0
176
   137
177
   137
178
   137
  0
ENDTAB
  0
ENDSEC
  0
SECTION
  2
BLOCKS
  0
BLOCK
  8
0
  2
$MODEL_SPACE
 70
     0
 10
0.0
 20
0.0
 30
0.0
  3
$MODEL_SPACE
  1

  0
ENDBLK
  5
21
  8
0
  0
BLOCK
 67
     1
  8
0
  2
$PAPER_SPACE
 70
     0
 10
0.0
 20
0.0
 30
0.0
  3
$PAPER_SPACE
  1

  0
ENDBLK
  5
58
 67
     1
  8
0
  0
BLOCK
  8
0
 62
     7
  2
_OPEN30
 70
     0
 10
0.0
 20
0.0
 30
0.0
  3
_OPEN30
  1

  0
LINE
  5
D7
  8
0
  6
BYBLOCK
 62
     0
 10
-1.0
 20
0.26794919
 30
0.0
 11
0.0
 21
0.0
 31
0.0
  0
LINE
  5
D8
  8
0
  6
BYBLOCK
 62
     0
 10
0.0
 20
0.0
 30
0.0
 11
-1.0
 21
-0.26794919
 31
0.0
  0
LINE
  5
D9
  8
0
  6
BYBLOCK
 62
     0
 10
0.0
 20
0.0
 30
0.0
 11
-1.0
 21
0.0
 31
0.0
  0
ENDBLK
  5
DB
  8
0
 62
     7
  0
BLOCK
  8
0
 62
     7
  2
*U2
 70
     1
 10
0.0
 20
0.0
 30
0.0
  3
*U2
  1

  0
TEXT
  5
B360
  8
0
  6
CONTINUOUS
 62
     7
 10
-326.00729225667868
 20
-451.41726364969821
 30
0.0
 40
3.0
  1
MAT40CN-50-150-160
  0
ENDBLK
  5
B362
  8
0
 62
     7
  0
BLOCK
  8
0
 62
     7
  2
*U3
 70
     1
 10
0.0
 20
0.0
 30
0.0
  3
*U3
  1

  0
TEXT
  5
B364
  8
0
  6
CONTINUOUS
 62
     7
 10
-326.00729225667868
 20
-456.06698746436513
 30
0.0
 40
3.0
  1
MAT40CN-50-150
  0
ENDBLK
  5
B366
  8
0
 62
     7
  0
BLOCK
  8
0
 62
     7
  2
*U4
 70
     1
 10
0.0
 20
0.0
 30
0.0
  3
*U4
  1

  0
TEXT
  5
B368
  8
0
  6
CONTINUOUS
 62
   137
 10
-206.60875623331839
 20
51.773833732188677
 30
0.0
 40
3.0
  1
A View
  0
ENDBLK
  5
B36A
  8
0
 62
     7
  0
BLOCK
  8
0
 62
     7
  2
*U5
 70
     1
 10
0.0
 20
0.0
 30
0.0
  3
*U5
  1

  0
TEXT
  5
B36C
  8
0
  6
CONTINUOUS
 62
   137
 10
-7.4247618171323211
 20
51.773833732188677
 30
0.0
 40
3.0
  1
B View
  0
ENDBLK
  5
B36E
  8
0
 62
     7
  0
BLOCK
  8
0
 62
     7
  2
*U6
 70
     1
 10
0.0
 20
0.0
 30
0.0
  3
*U6
  1

  0
TEXT
  5
B370
  8
0
  6
CONTINUOUS
 62
   137
 10
175.92176754869931
 20
-285.3651641222591
 30
0.0
 40
3.0
  1
A
 50
90.0
  0
ENDBLK
  5
B372
  8
0
 62
     7
  0
BLOCK
  8
0
 62
     7
  2
*U7
 70
     1
 10
0.0
 20
0.0
 30
0.0
  3
*U7
  1

  0
INSERT
  5
B374
  8
0
  6
CONTINUOUS
 62
   137
  2
_OPEN30
 10
175.0
 20
-270.69799999999998
 30
0.0
 41
2.5
 42
2.5
 43
2.5
 50
90.0
  0
POLYLINE
  5
B375
  8
0
  6
CONTINUOUS
 62
   137
 66
     1
 10
0.0
 20
0.0
 30
0.0
  0
VERTEX
  5
B376
  8
0
  6
CONTINUOUS
 62
   137
 10
175.0
 20
-273.19799999999998
 30
0.0
  0
VERTEX
  5
B377
  8
0
  6
CONTINUOUS
 62
   137
 10
175.0
 20
-280.69799999999998
 30
0.0
  0
SEQEND
  5
B378
  8
0
  6
CONTINUOUS
 62
   137
  0
ENDBLK
  5
B37A
  8
0
 62
     7
  0
BLOCK
  8
0
 62
     7
  2
*U8
 70
     1
 10
0.0
 20
0.0
 30
0.0
  3
*U8
  1

  0
INSERT
  5
B37C
  8
0
  6
CONTINUOUS
 62
   137
  2
_OPEN30
 10
255.0
 20
-295.69799999999998
 30
0.0
 41
2.5
 42
2.5
 43
2.5
 50
270.0
  0
POLYLINE
  5
B37D
  8
0
  6
CONTINUOUS
 62
   137
 66
     1
 10
0.0
 20
0.0
 30
0.0
  0
VERTEX
  5
B37E
  8
0
  6
CONTINUOUS
 62
   137
 10
255.0
 20
-293.19799999999998
 30
0.0
  0
VERTEX
  5
B37F
  8
0
  6
CONTINUOUS
 62
   137
 10
255.0
 20
-285.69799999999998
 30
0.0
  0
SEQEND
  5
B380
  8
0
  6
CONTINUOUS
 62
   137
  0
ENDBLK
  5
B382
  8
0
 62
     7
  0
BLOCK
  8
0
 62
     7
  2
*U9
 70
     1
 10
0.0
 20
0.0
 30
0.0
  3
*U9
  1

  0
TEXT
  5
B384
  8
0
  6
CONTINUOUS
 62
   137
 10
256.15338926163889
 20
-283.70956711361799
 30
0.0
 40
3.0
  1
B
 50
90.0
  0
ENDBLK
  5
B386
  8
0
 62
     7
  0
ENDSEC
  0
SECTION
  2
ENTITIES
  0
CIRCLE
  5
A121
  8
0
  6
CONTINUOUS
 62
     7
 10
0.0
 20
0.0
 30
0.0
 40
12.5
  0
CIRCLE
  5
A122
  8
0
  6
CONTINUOUS
 62
     7
 10
0.0
 20
0.0
 30
0.0
 40
19.0
  0
ARC
  5
A123
  8
0
  6
CONTINUOUS
 62
     7
 10
0.0
 20
0.0
 30
0.0
 40
37.5
 50
228.18968510422101
 51
311.81031489577958
  0
ARC
  5
A124
  8
0
  6
CONTINUOUS
 62
     7
 10
0.0
 20
0.0
 30
0.0
 40
37.5
 50
48.189685104220978
 51
131.81031489577839
  0
LINE
  5
A125
  8
0
  6
CONTINUOUS
 62
     7
 10
-22.5
 20
-342.0
 30
0.0
 11
22.5
 21
-342.0
 31
0.0
  0
LINE
  5
A126
  8
0
  6
CONTINUOUS
 62
     7
 10
-22.5
 20
-330.0
 30
0.0
 11
22.5
 21
-330.0
 31
0.0
  0
LINE
  5
A127
  8
0
  6
CONTINUOUS
 62
     7
 10
-22.5
 20
-327.0
 30
0.0
 11
22.5
 21
-327.0
 31
0.0
  0
LINE
  5
A128
  8
CENTER
  6
CENTER
 62
     1
 10
27.0
 20
0.0
 30
0.0
 11
-27.0
 21
0.0
 31
0.0
  0
LINE
  5
A129
  8
0
  6
CONTINUOUS
 62
     7
 10
-37.499999999999801
 20
-402.00000000000011
 30
0.0
 11
37.500000000000192
 21
-402.00000000000011
 31
0.0
  0
LINE
  5
A12A
  8
0
  6
CONTINUOUS
 62
     7
 10
-37.499999999999801
 20
-417.00000000000011
 30
0.0
 11
37.500000000000192
 21
-417.00000000000011
 31
0.0
  0
LINE
  5
A12B
  8
0
  6
CONTINUOUS
 62
     7
 10
-18.999999999999801
 20
-355.00000000000028
 30
0.0
 11
19.000000000000181
 21
-355.00000000000028
 31
0.0
  0
LINE
  5
A12D
  8
0
  6
CONTINUOUS
 62
     7
 10
-31.999999999999918
 20
-257.00000000000028
 30
0.0
 11
28.000000000000071
 21
-257.00000000000028
 31
0.0
  0
LINE
  5
A12E
  8
0
  6
CONTINUOUS
 62
     7
 10
-31.999999999999918
 20
-189.0000000000002
 30
0.0
 11
28.000000000000071
 21
-189.0000000000002
 31
0.0
  0
LINE
  5
A12F
  8
0
  6
CONTINUOUS
 62
     7
 10
31.0
 20
-60.5
 30
0.0
 11
-26.0
 21
-60.5
 31
0.0
  0
LINE
  5
A130
  8
0
  6
CONTINUOUS
 62
     7
 10
31.0
 20
-150.0
 30
0.0
 11
-26.0
 21
-150.0
 31
0.0
  0
LINE
  5
A131
  8
0
  6
CONTINUOUS
 62
     7
 10
25.0
 20
-162.0
 30
0.0
 11
-25.0
 21
-162.0
 31
0.0
  0
LINE
  5
A132
  8
0
  6
CONTINUOUS
 62
     7
 10
-113.9999999999997
 20
-189.0
 30
0.0
 11
-113.9999999999997
 21
-257.0
 31
0.0
  0
LINE
  5
A133
  8
0
  6
CONTINUOUS
 62
     7
 10
-286.00000000000011
 20
-189.0
 30
0.0
 11
-286.00000000000011
 21
-257.0
 31
0.0
  0
LINE
  5
A134
  8
0
  6
CONTINUOUS
 62
     7
 10
-99.999999994955829
 20
-189.0
 30
0.0
 11
-99.999999994955829
 21
-257.0
 31
0.0
  0
LINE
  5
A135
  8
0
  6
CONTINUOUS
 62
     7
 10
-300.000000005044
 20
-189.0
 30
0.0
 11
-300.000000005044
 21
-257.0
 31
0.0
  0
LINE
  5
A136
  8
CENTER
  6
CENTER
 62
     1
 10
-125.0
 20
-138.40000000000001
 30
0.0
 11
-125.0
 21
-419.0
 31
0.0
  0
LINE
  5
A137
  8
CENTER
  6
CENTER
 62
     1
 10
-275.0
 20
-138.40000000000001
 30
0.0
 11
-275.0
 21
-419.0
 31
0.0
  0
LINE
  5
A138
  8
CENTER
  6
CENTER
 62
     1
 10
-200.0
 20
-58.5
 30
0.0
 11
-200.0
 21
-418.99999999999989
 31
0.0
  0
LINE
  5
A139
  8
0
  6
CONTINUOUS
 62
     7
 10
-18.0
 20
-189.0000000000002
 30
0.0
 11
-18.0
 21
-257.00000000000028
 31
0.0
  0
LINE
  5
A13A
  8
0
  6
CONTINUOUS
 62
     7
 10
-31.999999999999918
 20
-189.0000000000002
 30
0.0
 11
-31.999999999999918
 21
-257.00000000000028
 31
0.0
  0
LINE
  5
A13B
  8
0
  6
CONTINUOUS
 62
     7
 10
-300.0
 20
-417.0
 30
0.0
 11
-250.0
 21
-417.0
 31
0.0
  0
LINE
  5
A13D
  8
0
  6
CONTINUOUS
 62
     7
 10
-300.000000005044
 20
-257.0
 30
0.0
 11
-99.999999994955829
 21
-257.0
 31
0.0
  0
LINE
  5
A13E
  8
0
  6
CONTINUOUS
 62
     7
 10
-262.5
 20
-257.0
 30
0.0
 11
-262.5
 21
-355.0
 31
0.0
  0
LINE
  5
A13F
  8
0
  6
CONTINUOUS
 62
     7
 10
-287.5
 20
-257.0
 30
0.0
 11
-287.5
 21
-355.0
 31
0.0
  0
LINE
  5
A140
  8
0
  6
CONTINUOUS
 62
     7
 10
-294.0
 20
-355.0
 30
0.0
 11
-256.0
 21
-355.0
 31
0.0
  0
LINE
  5
A141
  8
0
  6
CONTINUOUS
 62
     7
 10
-300.0
 20
-402.0
 30
0.0
 11
-250.0
 21
-402.0
 31
0.0
  0
LINE
  5
A142
  8
0
  6
CONTINUOUS
 62
     7
 10
-294.0
 20
-355.0
 30
0.0
 11
-294.0
 21
-402.0
 31
0.0
  0
LINE
  5
A144
  8
0
  6
CONTINUOUS
 62
     7
 10
-300.0
 20
-402.0
 30
0.0
 11
-300.0
 21
-417.0
 31
0.0
  0
LINE
  5
A148
  8
CENTER
  6
CENTER
 62
     1
 10
-292.5
 20
-400.0
 30
0.0
 11
-292.5
 21
-419.0
 31
0.0
  0
LINE
  5
A14A
  8
0
  6
CONTINUOUS
 62
     7
 10
-256.0
 20
-355.0
 30
0.0
 11
-256.0
 21
-402.0
 31
0.0
  0
LINE
  5
A14B
  8
0
  6
CONTINUOUS
 62
     7
 10
-250.0
 20
-402.0
 30
0.0
 11
-250.0
 21
-417.0
 31
0.0
  0
LINE
  5
A14C
  8
CENTER
  6
CENTER
 62
     1
 10
-257.5
 20
-400.0
 30
0.0
 11
-257.5
 21
-419.0
 31
0.0
  0
LINE
  5
A150
  8
CENTER
  6
CENTER
 62
     1
 10
-224.9999999993039
 20
-247.0
 30
0.0
 11
-234.9999999993039
 21
-247.0
 31
0.0
  0
LINE
  5
A151
  8
CENTER
  6
CENTER
 62
     1
 10
-229.9999999993039
 20
-242.0
 30
0.0
 11
-229.9999999993039
 21
-252.0
 31
0.0
  0
CIRCLE
  5
A152
  8
0
  6
CONTINUOUS
 62
     7
 10
-229.9999999993039
 20
-227.0
 30
0.0
 40
2.458499999999999
  0
CIRCLE
  5
A153
  8
0
  6
CONTINUOUS
 62
     3
 10
-229.9999999993039
 20
-227.0
 30
0.0
 40
3.0
  0
CIRCLE
  5
A154
  8
0
  6
CONTINUOUS
 62
     3
 10
-108.0
 20
-336.0
 30
0.0
 40
2.5
  0
CIRCLE
  5
A155
  8
0
  6
CONTINUOUS
 62
     7
 10
-108.0
 20
-336.0
 30
0.0
 40
2.066999999999998
  0
LINE
  5
A156
  8
CENTER
  6
CENTER
 62
     1
 10
-112.5
 20
-336.0
 30
0.0
 11
-103.4999999999999
 21
-336.0
 31
0.0
  0
LINE
  5
A157
  8
0
  6
CONTINUOUS
 62
     7
 10
-147.5
 20
-342.0
 30
0.0
 11
-102.4999999999999
 21
-342.0
 31
0.0
  0
LINE
  5
A158
  8
0
  6
CONTINUOUS
 62
     7
 10
-147.5
 20
-330.0
 30
0.0
 11
-102.4999999999999
 21
-330.0
 31
0.0
  0
LINE
  5
A159
  8
0
  6
CONTINUOUS
 62
     7
 10
-147.5
 20
-327.0
 30
0.0
 11
-102.4999999999999
 21
-327.0
 31
0.0
  0
LINE
  5
A15B
  8
0
  6
CONTINUOUS
 62
     7
 10
-106.0
 20
-355.0
 30
0.0
 11
-144.0
 21
-355.0
 31
0.0
  0
LINE
  5
A15C
  8
0
  6
CONTINUOUS
 62
     7
 10
-100.0
 20
-402.0
 30
0.0
 11
-150.0
 21
-402.0
 31
0.0
  0
LINE
  5
A160
  8
0
  6
CONTINUOUS
 62
     7
 10
-147.5
 20
-327.0
 30
0.0
 11
-147.5
 21
-342.0
 31
0.0
  0
LINE
  5
A161
  8
0
  6
CONTINUOUS
 62
     7
 10
-144.0
 20
-355.0
 30
0.0
 11
-144.0
 21
-402.0
 31
0.0
  0
LINE
  5
A162
  8
0
  6
CONTINUOUS
 62
     7
 10
-150.0
 20
-402.0
 30
0.0
 11
-150.0
 21
-417.0
 31
0.0
  0
LINE
  5
A163
  8
CENTER
  6
CENTER
 62
     1
 10
-142.49999999999989
 20
-400.0
 30
0.0
 11
-142.4999999999996
 21
-419.0
 31
0.0
  0
LINE
  5
A168
  8
0
  6
CONTINUOUS
 62
     7
 10
-137.5
 20
-342.0
 30
0.0
 11
-137.5
 21
-355.0
 31
0.0
  0
LINE
  5
A169
  8
0
  6
CONTINUOUS
 62
     7
 10
-112.5
 20
-342.0
 30
0.0
 11
-112.5
 21
-355.0
 31
0.0
  0
CIRCLE
  5
A16A
  8
0
  6
CONTINUOUS
 62
     7
 10
-170.00000000069599
 20
-247.0
 30
0.0
 40
2.458499999999999
  0
CIRCLE
  5
A16B
  8
0
  6
CONTINUOUS
 62
     3
 10
-170.00000000069599
 20
-247.0
 30
0.0
 40
3.0
  0
CIRCLE
  5
A16C
  8
0
  6
CONTINUOUS
 62
     3
 10
-170.00000000069599
 20
-227.0
 30
0.0
 40
3.0
  0
CIRCLE
  5
A16D
  8
0
  6
CONTINUOUS
 62
     7
 10
-170.00000000069599
 20
-227.0
 30
0.0
 40
2.458499999999999
  0
LINE
  5
A16E
  8
0
  6
CONTINUOUS
 62
     7
 10
-112.5
 20
-257.0
 30
0.0
 11
-112.5
 21
-327.0
 31
0.0
  0
LINE
  5
A16F
  8
0
  6
CONTINUOUS
 62
     7
 10
-137.5
 20
-257.0
 30
0.0
 11
-137.5
 21
-327.0
 31
0.0
  0
LINE
  5
A170
  8
CENTER
  6
CENTER
 62
     1
 10
-142.0
 20
-331.5
 30
0.0
 11
-142.0
 21
-340.49999999999989
 31
0.0
  0
CIRCLE
  5
A171
  8
0
  6
CONTINUOUS
 62
     3
 10
-142.0
 20
-336.0
 30
0.0
 40
2.5
  0
CIRCLE
  5
A172
  8
0
  6
CONTINUOUS
 62
     7
 10
-142.0
 20
-336.0
 30
0.0
 40
2.066999999999998
  0
LINE
  5
A173
  8
CENTER
  6
CENTER
 62
     1
 10
-146.5
 20
-336.0
 30
0.0
 11
-137.5
 21
-336.0
 31
0.0
  0
LINE
  5
A174
  8
CENTER
  6
CENTER
 62
     1
 10
-108.0
 20
-331.5
 30
0.0
 11
-108.0
 21
-340.49999999999989
 31
0.0
  0
LINE
  5
A175
  8
0
  6
CONTINUOUS
 62
     7
 10
-22.5
 20
-327.0
 30
0.0
 11
-22.5
 21
-342.0
 31
0.0
  0
LINE
  5
A176
  8
0
  6
CONTINUOUS
 62
     7
 10
-102.4999999999999
 20
-327.0
 30
0.0
 11
-102.4999999999999
 21
-342.0
 31
0.0
  0
LINE
  5
A177
  8
0
  6
CONTINUOUS
 62
     7
 10
-106.0
 20
-355.0
 30
0.0
 11
-106.0
 21
-402.0
 31
0.0
  0
LINE
  5
A178
  8
0
  6
CONTINUOUS
 62
     7
 10
-100.0
 20
-402.0
 30
0.0
 11
-100.0
 21
-417.0
 31
0.0
  0
LINE
  5
A179
  8
CENTER
  6
CENTER
 62
     1
 10
-107.4999999999999
 20
-400.0
 30
0.0
 11
-107.4999999999999
 21
-419.0
 31
0.0
  0
LINE
  5
A17D
  8
0
  6
CONTINUOUS
 62
     7
 10
-18.999999999999801
 20
-355.00000000000028
 30
0.0
 11
-18.999999999999801
 21
-402.00000000000023
 31
0.0
  0
LINE
  5
A17F
  8
0
  6
CONTINUOUS
 62
     7
 10
-37.499999999999801
 20
-402.00000000000011
 30
0.0
 11
-37.499999999999801
 21
-417.00000000000011
 31
0.0
  0
LINE
  5
A183
  8
CENTER
  6
CENTER
 62
     1
 10
-22.499999999999801
 20
-400.00000000000011
 30
0.0
 11
-22.499999999999801
 21
-419.00000000000023
 31
0.0
  0
LINE
  5
A185
  8
0
  6
CONTINUOUS
 62
     7
 10
-12.50000024999968
 20
-355.00000000000028
 30
0.0
 11
-12.50000024999968
 21
-342.0
 31
0.0
  0
LINE
  5
A186
  8
0
  6
CONTINUOUS
 62
     7
 10
-12.50000024999968
 20
-327.0
 30
0.0
 11
-12.50000024999968
 21
-257.00000000000028
 31
0.0
  0
LINE
  5
A187
  8
0
  6
DASHED
 62
     3
 10
-31.999999999999929
 20
-244.54150000000021
 30
0.0
 11
-16.999999999999911
 21
-244.5415000000003
 31
0.0
  0
LINE
  5
A188
  8
0
  6
DASHED
 62
     3
 10
-31.999999999999929
 20
-249.45850000000021
 30
0.0
 11
-16.999999999999929
 21
-249.4585000000003
 31
0.0
  0
LINE
  5
A189
  8
0
  6
DASHED
 62
     3
 10
-31.999999999999918
 20
-250.00000000000031
 30
0.0
 11
-19.999999999999911
 21
-250.00000000000031
 31
0.0
  0
LINE
  5
A18A
  8
0
  6
DASHED
 62
     3
 10
-31.999999999999918
 20
-244.00000000000031
 30
0.0
 11
-19.999999999999911
 21
-244.00000000000031
 31
0.0
  0
LINE
  5
A18B
  8
CENTER
  6
CENTER
 62
     1
 10
-33.999999999999908
 20
-247.0000000000002
 30
0.0
 11
-13.58058436319717
 21
-247.0000000000002
 31
0.0
  0
LINE
  5
A18C
  8
CENTER
  6
CENTER
 62
     1
 10
-33.999999999999908
 20
-227.0000000000002
 30
0.0
 11
-13.580584363197231
 21
-227.0000000000002
 31
0.0
  0
LINE
  5
A18D
  8
CENTER
  6
CENTER
 62
     1
 10
-302.0
 20
0.0
 30
0.0
 11
-98.0
 21
0.0
 31
0.0
  0
LINE
  5
A18E
  8
0
  6
CONTINUOUS
 62
     7
 10
-286.00000000000011
 20
-26.99999999999989
 30
0.0
 11
-113.9999999999998
 21
-26.99999999999989
 31
0.0
  0
LINE
  5
A18F
  8
0
  6
CONTINUOUS
 62
     7
 10
-250.0
 20
15.00000000000006
 30
0.0
 11
-150.00000000000011
 21
15.00000000000006
 31
0.0
  0
LINE
  5
A190
  8
0
  6
CONTINUOUS
 62
     7
 10
-226.0
 20
-60.5
 30
0.0
 11
-174.0000000000008
 21
-60.5
 31
0.0
  0
LINE
  5
A191
  8
0
  6
CONTINUOUS
 62
     7
 10
-226.9999999993039
 20
-201.0
 30
0.0
 11
-173.00000000069599
 21
-201.0
 31
0.0
  0
LINE
  5
A192
  8
0
  6
CONTINUOUS
 62
     7
 10
-300.0
 20
-150.0
 30
0.0
 11
-100.0
 21
-150.0
 31
0.0
  0
LINE
  5
A193
  8
0
  6
CONTINUOUS
 62
     7
 10
-300.0
 20
-162.0
 30
0.0
 11
-100.0
 21
-162.0
 31
0.0
  0
LINE
  5
A195
  8
0
  6
CONTINUOUS
 62
     7
 10
-223.4307490277198
 20
-60.5
 30
0.0
 11
-223.4307490277198
 21
-150.0
 31
0.0
  0
LINE
  5
A196
  8
0
  6
CONTINUOUS
 62
     7
 10
-226.0
 20
-150.0
 30
0.0
 11
-226.0
 21
-60.5
 31
0.0
  0
LINE
  5
A197
  8
0
  6
CONTINUOUS
 62
     7
 10
-300.000000005044
 20
-189.0
 30
0.0
 11
-229.9999999993039
 21
-189.0
 31
0.0
  0
LINE
  5
A198
  8
0
  6
CONTINUOUS
 62
     7
 10
-283.49999999999989
 20
-148.39999999999981
 30
0.0
 11
-266.5
 21
-148.39999999999981
 31
0.0
  0
LINE
  5
A199
  8
0
  6
CONTINUOUS
 62
     7
 10
-287.5
 20
-162.0
 30
0.0
 11
-287.5
 21
-189.0
 31
0.0
  0
LINE
  5
A19A
  8
0
  6
CONTINUOUS
 62
     3
 10
-280.9371710435189
 20
-172.0000000000002
 30
0.0
 11
-269.0628289564811
 21
-182.0000000000002
 31
0.0
  0
LINE
  5
A19B
  8
0
  6
CONTINUOUS
 62
     3
 10
-280.93717104351862
 20
-182.00000000000031
 30
0.0
 11
-269.06282895648081
 21
-172.0000000000002
 31
0.0
  0
LINE
  5
A19C
  8
0
  6
CONTINUOUS
 62
     7
 10
-269.06282895648098
 20
-172.0
 30
0.0
 11
-269.06282895648098
 21
-182.0
 31
0.0
  0
LINE
  5
A19D
  8
0
  6
CONTINUOUS
 62
     7
 10
-280.9371710435189
 20
-172.0
 30
0.0
 11
-280.9371710435189
 21
-182.0
 31
0.0
  0
LINE
  5
A19E
  8
0
  6
CONTINUOUS
 62
     7
 10
-280.9371710435189
 20
-182.0
 30
0.0
 11
-269.06282895648098
 21
-182.0
 31
0.0
  0
LINE
  5
A19F
  8
0
  6
CONTINUOUS
 62
     7
 10
-280.9371710435189
 20
-172.0
 30
0.0
 11
-269.06282895648098
 21
-172.0
 31
0.0
  0
LINE
  5
A1A0
  8
0
  6
CONTINUOUS
 62
     7
 10
-298.0
 20
-150.0
 30
0.0
 11
-298.0
 21
-162.0
 31
0.0
  0
LINE
  5
A1A1
  8
0
  6
CONTINUOUS
 62
     7
 10
-300.0
 20
-150.0
 30
0.0
 11
-300.0
 21
-162.0
 31
0.0
  0
LINE
  5
A1A2
  8
0
  6
CONTINUOUS
 62
     7
 10
-281.49999999999989
 20
-140.40000000000001
 30
0.0
 11
-281.49999999999989
 21
-148.39999999999981
 31
0.0
  0
LINE
  5
A1A3
  8
0
  6
CONTINUOUS
 62
     7
 10
-268.5
 20
-140.40000000000001
 30
0.0
 11
-268.5
 21
-148.39999999999981
 31
0.0
  0
LINE
  5
A1A4
  8
0
  6
CONTINUOUS
 62
     7
 10
-283.49999999999989
 20
-148.39999999999981
 30
0.0
 11
-283.49999999999989
 21
-150.0
 31
0.0
  0
LINE
  5
A1A5
  8
0
  6
CONTINUOUS
 62
     7
 10
-281.49999999999989
 20
-140.40000000000001
 30
0.0
 11
-268.5
 21
-140.40000000000001
 31
0.0
  0
LINE
  5
A1A6
  8
0
  6
CONTINUOUS
 62
     7
 10
-262.5
 20
-162.0
 30
0.0
 11
-262.5
 21
-189.0
 31
0.0
  0
LINE
  5
A1A7
  8
0
  6
CONTINUOUS
 62
     7
 10
-229.9999999993039
 20
-189.0
 30
0.0
 11
-229.9999999993039
 21
-198.0
 31
0.0
  0
LINE
  5
A1A8
  8
CENTER
  6
CENTER
 62
     1
 10
-217.32050807568859
 20
-202.99999999999989
 30
0.0
 11
-217.32050807568859
 21
-187.0000000000002
 31
0.0
  0
LINE
  5
A1A9
  8
0
  6
CONTINUOUS
 62
     7
 10
-226.0
 20
-201.0000000000002
 30
0.0
 11
-226.0
 21
-189.0000000000002
 31
0.0
  0
ARC
  5
A1AA
  8
0
  6
CONTINUOUS
 62
     7
 10
-226.9999999993039
 20
-198.0
 30
0.0
 40
3.0
 50
180.0
 51
270.0
  0
LINE
  5
A1AB
  8
0
  6
CONTINUOUS
 62
     7
 10
-266.5
 20
-148.39999999999981
 30
0.0
 11
-266.5
 21
-150.0
 31
0.0
  0
CIRCLE
  5
A1AC
  8
0
  6
CONTINUOUS
 62
     7
 10
-275.0
 20
0.0
 30
0.0
 40
14.0
  0
LINE
  5
A1AD
  8
0
  6
CONTINUOUS
 62
     7
 10
-285.0
 20
25.00000000000006
 30
0.0
 11
-259.0
 21
25.00000000000006
 31
0.0
  0
LINE
  5
A1AE
  8
CENTER
  6
CENTER
 62
     1
 10
-275.0
 20
16.0
 30
0.0
 11
-275.0
 21
-16.0
 31
0.0
  0
LINE
  5
A1AF
  8
0
  6
CONTINUOUS
 62
     7
 10
-300.0
 20
10.00000000000005
 30
0.0
 11
-300.0
 21
-13.0
 31
0.0
  0
LINE
  5
A1B0
  8
0
  6
CONTINUOUS
 62
     7
 10
-286.00000000000011
 20
-26.99999999999989
 30
0.0
 11
-300.0
 21
-12.999999999999879
 31
0.0
  0
LINE
  5
A1B1
  8
0
  6
CONTINUOUS
 62
     7
 10
-300.0
 20
10.00000000000005
 30
0.0
 11
-285.0
 21
25.00000000000006
 31
0.0
  0
LINE
  5
A1B2
  8
CENTER
  6
CENTER
 62
     1
 10
-229.99999999999989
 20
17.00000000000011
 30
0.0
 11
-230.0
 21
-3.4194156368024551
 31
0.0
  0
LINE
  5
A1B3
  8
CENTER
  6
CENTER
 62
     1
 10
-239.99999999999989
 20
5.6499999999999773
 30
0.0
 11
-240.0
 21
-5.6499999999999773
 31
0.0
  0
LINE
  5
A1B4
  8
0
  6
CONTINUOUS
 62
     7
 10
-250.00000000000011
 20
16.00000000000006
 30
0.0
 11
-259.00000000000011
 21
25.00000000000006
 31
0.0
  0
LINE
  5
A1B5
  8
0
  6
CONTINUOUS
 62
     7
 10
-99.999999994955829
 20
-189.0
 30
0.0
 11
-170.00000000069599
 21
-189.0
 31
0.0
  0
LINE
  5
A1B8
  8
0
  6
CONTINUOUS
 62
     7
 10
-194.9999999999996
 20
-60.5
 30
0.0
 11
-194.9999999999996
 21
-150.0
 31
0.0
  0
LINE
  5
A1B9
  8
0
  6
CONTINUOUS
 62
     7
 10
-192.4999999999996
 20
-60.5
 30
0.0
 11
-192.4999999999996
 21
-150.0
 31
0.0
  0
LINE
  5
A1BA
  8
0
  6
CONTINUOUS
 62
     7
 10
-190.69999999999999
 20
-60.5
 30
0.0
 11
-190.69999999999999
 21
-150.0
 31
0.0
  0
LINE
  5
A1BB
  8
0
  6
CONTINUOUS
 62
     7
 10
-187.29999999999899
 20
-60.5
 30
0.0
 11
-187.29999999999899
 21
-150.0
 31
0.0
  0
LINE
  5
A1BC
  8
0
  6
CONTINUOUS
 62
     7
 10
-176.56925097228009
 20
-60.5
 30
0.0
 11
-176.56925097228009
 21
-150.0
 31
0.0
  0
LINE
  5
A1BD
  8
0
  6
CONTINUOUS
 62
     7
 10
-205.0000000000002
 20
-60.5
 30
0.0
 11
-205.0000000000002
 21
-150.0
 31
0.0
  0
LINE
  5
A1BE
  8
0
  6
CONTINUOUS
 62
     7
 10
-207.5000000000002
 20
-60.5
 30
0.0
 11
-207.5000000000002
 21
-150.0
 31
0.0
  0
LINE
  5
A1BF
  8
0
  6
CONTINUOUS
 62
     7
 10
-209.2999999999999
 20
-60.5
 30
0.0
 11
-209.2999999999999
 21
-150.0
 31
0.0
  0
LINE
  5
A1C0
  8
0
  6
CONTINUOUS
 62
     7
 10
-212.7000000000009
 20
-60.5
 30
0.0
 11
-212.7000000000009
 21
-150.0
 31
0.0
  0
LINE
  5
A1C1
  8
0
  6
CONTINUOUS
 62
     7
 10
-174.0000000000008
 20
-60.5
 30
0.0
 11
-174.0000000000008
 21
-150.0
 31
0.0
  0
LINE
  5
A1C5
  8
0
  6
CONTINUOUS
 62
     7
 10
-226.0
 20
-189.00000000000031
 30
0.0
 11
-174.0
 21
-189.0000000000002
 31
0.0
  0
LINE
  5
A1CA
  8
0
  6
CONTINUOUS
 62
     7
 10
-170.00000000069599
 20
-189.0
 30
0.0
 11
-170.00000000069599
 21
-198.0
 31
0.0
  0
LINE
  5
A1CB
  8
CENTER
  6
CENTER
 62
     1
 10
-182.67949192431129
 20
-202.99999999999989
 30
0.0
 11
-182.67949192431129
 21
-187.0000000000002
 31
0.0
  0
LINE
  5
A1CC
  8
0
  6
CONTINUOUS
 62
     7
 10
-174.0
 20
-201.0000000000002
 30
0.0
 11
-174.0
 21
-189.0000000000002
 31
0.0
  0
ARC
  5
A1CD
  8
0
  6
CONTINUOUS
 62
     7
 10
-173.00000000069599
 20
-198.0
 30
0.0
 40
3.0
 50
270.0
 51
0.0
  0
ARC
  5
A1CE
  8
0
  6
CONTINUOUS
 62
     7
 10
-205.50000000000051
 20
-152.11405023265459
 30
0.0
 40
15.88594976734538
 50
249.74384199958519
 51
290.25615800041561
  0
LINE
  5
A1D0
  8
0
  6
CONTINUOUS
 62
     7
 10
-211.00000000000051
 20
-167.01751962775251
 30
0.0
 11
-211.00000000000051
 21
-162.0
 31
0.0
  0
LINE
  5
A1D1
  8
0
  6
CONTINUOUS
 62
     7
 10
-211.00000000000031
 20
-167.01751962775251
 30
0.0
 11
-209.29829407782859
 21
-167.9999999999998
 31
0.0
  0
ARC
  5
A1D2
  8
0
  6
CONTINUOUS
 62
     7
 10
-194.5000000000004
 20
-152.11405023265459
 30
0.0
 40
15.88594976734538
 50
249.74384199958519
 51
290.25615800041561
  0
LINE
  5
A1D3
  8
0
  6
CONTINUOUS
 62
     7
 10
-200.0000000000004
 20
-167.01751962775251
 30
0.0
 11
-200.0000000000004
 21
-162.0
 31
0.0
  0
LINE
  5
A1D4
  8
0
  6
CONTINUOUS
 62
     7
 10
-189.0000000000004
 20
-167.01751962775251
 30
0.0
 11
-190.7017059221721
 21
-168.0
 31
0.0
  0
LINE
  5
A1D5
  8
0
  6
CONTINUOUS
 62
     7
 10
-189.0000000000004
 20
-167.01751962775251
 30
0.0
 11
-189.0000000000004
 21
-162.0
 31
0.0
  0
LINE
  5
A1D6
  8
0
  6
CONTINUOUS
 62
     7
 10
-112.5
 20
-162.0
 30
0.0
 11
-112.5
 21
-189.0
 31
0.0
  0
LINE
  5
A1D7
  8
0
  6
CONTINUOUS
 62
     7
 10
-137.5
 20
-162.0
 30
0.0
 11
-137.5
 21
-189.0
 31
0.0
  0
LINE
  5
A1D8
  8
0
  6
CONTINUOUS
 62
     7
 10
-119.062828956481
 20
-182.0
 30
0.0
 11
-130.9371710435189
 21
-182.0
 31
0.0
  0
LINE
  5
A1D9
  8
0
  6
CONTINUOUS
 62
     3
 10
-130.93717104351879
 20
-172.0
 30
0.0
 11
-119.062828956481
 21
-182.0
 31
0.0
  0
LINE
  5
A1DA
  8
0
  6
CONTINUOUS
 62
     7
 10
-119.062828956481
 20
-172.0
 30
0.0
 11
-130.9371710435189
 21
-172.0
 31
0.0
  0
LINE
  5
A1DB
  8
0
  6
CONTINUOUS
 62
     3
 10
-130.9371710435189
 20
-181.99999999999989
 30
0.0
 11
-119.0628289564811
 21
-171.99999999999989
 31
0.0
  0
LINE
  5
A1DC
  8
0
  6
CONTINUOUS
 62
     7
 10
-130.9371710435189
 20
-172.0
 30
0.0
 11
-130.9371710435189
 21
-182.0
 31
0.0
  0
LINE
  5
A1DD
  8
0
  6
CONTINUOUS
 62
     7
 10
-119.062828956481
 20
-172.0
 30
0.0
 11
-119.062828956481
 21
-182.0
 31
0.0
  0
LINE
  5
A1DE
  8
0
  6
CONTINUOUS
 62
     7
 10
-118.5
 20
-140.40000000000001
 30
0.0
 11
-118.5
 21
-148.39999999999981
 31
0.0
  0
LINE
  5
A1DF
  8
0
  6
CONTINUOUS
 62
     7
 10
-131.4999999999998
 20
-140.40000000000001
 30
0.0
 11
-131.4999999999998
 21
-148.39999999999981
 31
0.0
  0
LINE
  5
A1E0
  8
0
  6
CONTINUOUS
 62
     7
 10
-116.5
 20
-148.39999999999981
 30
0.0
 11
-133.4999999999998
 21
-148.39999999999981
 31
0.0
  0
LINE
  5
A1E1
  8
0
  6
CONTINUOUS
 62
     7
 10
-133.4999999999998
 20
-148.39999999999981
 30
0.0
 11
-133.4999999999998
 21
-150.0
 31
0.0
  0
LINE
  5
A1E2
  8
0
  6
CONTINUOUS
 62
     7
 10
-116.5
 20
-148.39999999999981
 30
0.0
 11
-116.5
 21
-150.0
 31
0.0
  0
LINE
  5
A1E3
  8
0
  6
CONTINUOUS
 62
     7
 10
-118.5
 20
-140.40000000000001
 30
0.0
 11
-131.4999999999998
 21
-140.40000000000001
 31
0.0
  0
LINE
  5
A1E4
  8
0
  6
CONTINUOUS
 62
     7
 10
-23.430749027720029
 20
-60.5
 30
0.0
 11
-23.430749027720029
 21
-150.0
 31
0.0
  0
LINE
  5
A1E5
  8
0
  6
CONTINUOUS
 62
     7
 10
-9.3000000000000114
 20
-60.5
 30
0.0
 11
-9.3000000000000114
 21
-150.0
 31
0.0
  0
LINE
  5
A1E6
  8
0
  6
CONTINUOUS
 62
     7
 10
-12.70000000000007
 20
-60.5
 30
0.0
 11
-12.70000000000007
 21
-150.0
 31
0.0
  0
LINE
  5
A1E7
  8
0
  6
CONTINUOUS
 62
     7
 10
-7.5000000000001981
 20
-60.5
 30
0.0
 11
-7.5000000000001981
 21
-148.39999999999981
 31
0.0
  0
LINE
  5
A1E8
  8
0
  6
CONTINUOUS
 62
     7
 10
-5.0000000000000853
 20
-60.5
 30
0.0
 11
-5.0000000000000853
 21
-140.40000000000001
 31
0.0
  0
LINE
  5
A1E9
  8
0
  6
CONTINUOUS
 62
     7
 10
-26.0
 20
-60.5
 30
0.0
 11
-26.0
 21
-150.0
 31
0.0
  0
LINE
  5
A1EA
  8
0
  6
CONTINUOUS
 62
     7
 10
-102.0
 20
-150.0
 30
0.0
 11
-102.0
 21
-162.0
 31
0.0
  0
LINE
  5
A1EB
  8
0
  6
CONTINUOUS
 62
     7
 10
-100.0
 20
-150.0
 30
0.0
 11
-100.0
 21
-162.0
 31
0.0
  0
LINE
  5
A1EC
  8
0
  6
CONTINUOUS
 62
     7
 10
-12.50000024999968
 20
-172.0
 30
0.0
 11
-12.50000024999968
 21
-162.0
 31
0.0
  0
LINE
  5
A1ED
  8
0
  6
CONTINUOUS
 62
     7
 10
-11.00000024999968
 20
-182.0
 30
0.0
 11
-11.00000024999968
 21
-172.0
 31
0.0
  0
LINE
  5
A1EE
  8
0
  6
CONTINUOUS
 62
     7
 10
-12.50000024999968
 20
-189.0000000000002
 30
0.0
 11
-12.50000024999968
 21
-182.0
 31
0.0
  0
LINE
  5
A1EF
  8
0
  6
CONTINUOUS
 62
     7
 10
-11.00000024999968
 20
-182.0
 30
0.0
 11
-12.50000024999968
 21
-182.0
 31
0.0
  0
LINE
  5
A1F0
  8
0
  6
CONTINUOUS
 62
     7
 10
-11.00000024999968
 20
-172.0
 30
0.0
 11
-12.50000024999968
 21
-172.0
 31
0.0
  0
LINE
  5
A1F1
  8
0
  6
CONTINUOUS
 62
     7
 10
-23.0
 20
-150.0
 30
0.0
 11
-23.0
 21
-162.0
 31
0.0
  0
LINE
  5
A1F2
  8
0
  6
CONTINUOUS
 62
     7
 10
-25.0
 20
-150.0
 30
0.0
 11
-25.0
 21
-162.0
 31
0.0
  0
LINE
  5
A1F3
  8
0
  6
CONTINUOUS
 62
     7
 10
-100.0
 20
10.00000000000005
 30
0.0
 11
-115.0
 21
25.00000000000006
 31
0.0
  0
LINE
  5
A1F4
  8
0
  6
CONTINUOUS
 62
     7
 10
-114.0
 20
-27.0
 30
0.0
 11
-100.0
 21
-12.999999999999879
 31
0.0
  0
LINE
  5
A1F7
  8
CENTER
  6
CENTER
 62
     1
 10
-200.0
 20
17.00000000000005
 30
0.0
 11
-200.0
 21
-28.99999999999989
 31
0.0
  0
LINE
  5
A1F8
  8
CENTER
  6
CENTER
 62
     1
 10
-170.0
 20
17.00000000000005
 30
0.0
 11
-170.0
 21
-3.4194156368024551
 31
0.0
  0
CIRCLE
  5
A1F9
  8
0
  6
CONTINUOUS
 62
     7
 10
-125.0
 20
0.0
 30
0.0
 40
14.0
  0
LINE
  5
A1FA
  8
CENTER
  6
CENTER
 62
     1
 10
-125.0
 20
16.0
 30
0.0
 11
-125.0
 21
-16.0
 31
0.0
  0
LINE
  5
A1FB
  8
0
  6
CONTINUOUS
 62
     7
 10
-115.0
 20
25.00000000000006
 30
0.0
 11
-141.0
 21
25.00000000000006
 31
0.0
  0
LINE
  5
A1FC
  8
0
  6
CONTINUOUS
 62
     7
 10
-150.00000000000011
 20
16.00000000000006
 30
0.0
 11
-141.00000000000011
 21
25.00000000000006
 31
0.0
  0
LINE
  5
A1FD
  8
0
  6
CONTINUOUS
 62
     7
 10
-100.0
 20
10.00000000000005
 30
0.0
 11
-100.0
 21
-13.0
 31
0.0
  0
LINE
  5
A1FE
  8
0
  6
CONTINUOUS
 62
     7
 10
-25.0
 20
-27.95084971874741
 30
0.0
 11
-25.0
 21
27.95084971874741
 31
0.0
  0
CIRCLE
  5
A1FF
  8
0
  6
CONTINUOUS
 62
     7
 10
-17.5
 20
-22.5
 30
0.0
 40
4.5
  0
LINE
  5
A200
  8
CENTER
  6
CENTER
 62
     1
 10
-17.5
 20
29.0
 30
0.0
 11
-17.5
 21
16.0
 31
0.0
  0
CIRCLE
  5
A201
  8
0
  6
CONTINUOUS
 62
     7
 10
-17.5
 20
22.5
 30
0.0
 40
4.5
  0
LINE
  5
A202
  8
CENTER
  6
CENTER
 62
     1
 10
-11.0
 20
22.5
 30
0.0
 11
-24.0
 21
22.5
 31
0.0
  0
LINE
  5
A203
  8
0
  6
CONTINUOUS
 62
     7
 10
12.999999999999909
 20
-189.0000000000002
 30
0.0
 11
12.999999999999909
 21
-257.00000000000028
 31
0.0
  0
LINE
  5
A204
  8
0
  6
CONTINUOUS
 62
     7
 10
28.000000000000071
 20
-257.00000000000028
 30
0.0
 11
28.000000000000071
 21
-189.0000000000002
 31
0.0
  0
LINE
  5
A205
  8
0
  6
DASHED
 62
     3
 10
18.000000000000082
 20
-189.0000000000002
 30
0.0
 11
18.000000000000082
 21
-257.00000000000028
 31
0.0
  0
LINE
  5
A206
  8
CENTER
  6
CENTER
 62
     1
 10
0.0
 20
-58.50000000000005
 30
0.0
 11
0.0
 21
-419.00000000000011
 31
0.0
  0
LINE
  5
A207
  8
0
  6
CONTINUOUS
 62
     7
 10
287.5
 20
-156.0
 30
0.0
 11
287.5
 21
-393.0
 31
0.0
  0
LINE
  5
A208
  8
0
  6
CONTINUOUS
 62
     7
 10
262.5
 20
-156.0
 30
0.0
 11
262.5
 21
-393.0
 31
0.0
  0
LINE
  5
A209
  8
0
  6
CONTINUOUS
 62
     7
 10
140.9999999949558
 20
-189.0
 30
0.0
 11
140.9999999949558
 21
-257.0
 31
0.0
  0
LINE
  5
A20A
  8
0
  6
CONTINUOUS
 62
     7
 10
149.9999999949558
 20
-189.0
 30
0.0
 11
149.9999999949558
 21
-257.0
 31
0.0
  0
LINE
  5
A20B
  8
0
  6
CONTINUOUS
 62
     7
 10
114.9999999949558
 20
-189.0
 30
0.0
 11
114.9999999949558
 21
-257.0
 31
0.0
  0
LINE
  5
A20C
  8
0
  6
CONTINUOUS
 62
     7
 10
300.00000000504423
 20
-189.0
 30
0.0
 11
300.00000000504423
 21
-257.0
 31
0.0
  0
LINE
  5
A20D
  8
0
  6
CONTINUOUS
 62
     7
 10
99.999999994955786
 20
-189.0
 30
0.0
 11
99.999999994955786
 21
-257.0
 31
0.0
  0
LINE
  5
A20E
  8
0
  6
CONTINUOUS
 62
     7
 10
255.0000000050442
 20
-193.0
 30
0.0
 11
255.0000000050442
 21
-252.0
 31
0.0
  0
LINE
  5
A20F
  8
0
  6
CONTINUOUS
 62
     7
 10
295.00000000504423
 20
-193.0
 30
0.0
 11
295.00000000504423
 21
-252.0
 31
0.0
  0
LINE
  5
A210
  8
CENTER
  6
CENTER
 62
     1
 10
275.0
 20
-138.40000000000001
 30
0.0
 11
275.0
 21
-419.0
 31
0.0
  0
LINE
  5
A211
  8
CENTER
  6
CENTER
 62
     1
 10
125.0
 20
-138.40000000000001
 30
0.0
 11
125.0
 21
-419.0
 31
0.0
  0
LINE
  5
A212
  8
CENTER
  6
CENTER
 62
     1
 10
200.0
 20
-58.5
 30
0.0
 11
200.0
 21
-418.99999999999989
 31
0.0
  0
LINE
  5
A214
  8
0
  6
CONTINUOUS
 62
     7
 10
300.0
 20
-417.0
 30
0.0
 11
250.0
 21
-417.0
 31
0.0
  0
LINE
  5
A215
  8
0
  6
CONTINUOUS
 62
     7
 10
262.50000000504411
 20
-257.0
 30
0.0
 11
99.999999994955786
 21
-257.0
 31
0.0
  0
CIRCLE
  5
A216
  8
0
  6
CONTINUOUS
 62
     7
 10
108.0
 20
-336.0
 30
0.0
 40
4.25
  0
LINE
  5
A217
  8
CENTER
  6
CENTER
 62
     1
 10
101.75
 20
-336.0
 30
0.0
 11
114.25
 21
-336.0
 31
0.0
  0
LINE
  5
A218
  8
0
  6
CONTINUOUS
 62
     7
 10
108.0
 20
-340.49999999999989
 30
0.0
 11
103.6165952196568
 21
-340.49999999999989
 31
0.0
  0
LINE
  5
A219
  8
0
  6
CONTINUOUS
 62
     7
 10
108.0
 20
-331.5
 30
0.0
 11
103.6165952196568
 21
-331.5
 31
0.0
  0
LINE
  5
A21A
  8
0
  6
CONTINUOUS
 62
     7
 10
106.8452994616207
 20
-334.0
 30
0.0
 11
109.1547005383792
 21
-334.0
 31
0.0
  0
LINE
  5
A21B
  8
0
  6
CONTINUOUS
 62
     7
 10
106.8452994616207
 20
-338.0
 30
0.0
 11
109.1547005383792
 21
-338.0
 31
0.0
  0
LINE
  5
A21C
  8
0
  6
CONTINUOUS
 62
     7
 10
102.4999999999999
 20
-342.0
 30
0.0
 11
147.5
 21
-342.0
 31
0.0
  0
LINE
  5
A21D
  8
0
  6
CONTINUOUS
 62
     7
 10
102.4999999999999
 20
-330.0
 30
0.0
 11
147.5
 21
-330.0
 31
0.0
  0
LINE
  5
A21E
  8
0
  6
CONTINUOUS
 62
     7
 10
102.4999999999999
 20
-327.0
 30
0.0
 11
147.5
 21
-327.0
 31
0.0
  0
LINE
  5
A220
  8
0
  6
CONTINUOUS
 62
     7
 10
106.0
 20
-355.0
 30
0.0
 11
144.0
 21
-355.0
 31
0.0
  0
LINE
  5
A221
  8
0
  6
CONTINUOUS
 62
     7
 10
100.0
 20
-402.0
 30
0.0
 11
150.0
 21
-402.0
 31
0.0
  0
LINE
  5
A225
  8
0
  6
CONTINUOUS
 62
     7
 10
22.5
 20
-327.0
 30
0.0
 11
22.5
 21
-342.0
 31
0.0
  0
LINE
  5
A226
  8
0
  6
CONTINUOUS
 62
     7
 10
102.4999999999999
 20
-327.0
 30
0.0
 11
102.4999999999999
 21
-342.0
 31
0.0
  0
LINE
  5
A227
  8
0
  6
CONTINUOUS
 62
     7
 10
19.000000000000181
 20
-355.00000000000028
 30
0.0
 11
19.000000000000188
 21
-402.00000000000023
 31
0.0
  0
LINE
  5
A229
  8
CENTER
  6
CENTER
 62
     1
 10
22.500000000000181
 20
-400.00000000000011
 30
0.0
 11
22.500000000000188
 21
-419.00000000000023
 31
0.0
  0
LINE
  5
A22B
  8
0
  6
CONTINUOUS
 62
     7
 10
37.500000000000192
 20
-402.00000000000011
 30
0.0
 11
37.500000000000192
 21
-417.00000000000011
 31
0.0
  0
LINE
  5
A22F
  8
0
  6
CONTINUOUS
 62
     7
 10
12.500000249999999
 20
-355.00000000000028
 30
0.0
 11
12.500000249999999
 21
-342.0
 31
0.0
  0
LINE
  5
A230
  8
0
  6
CONTINUOUS
 62
     7
 10
106.0
 20
-355.0
 30
0.0
 11
106.0
 21
-402.0
 31
0.0
  0
LINE
  5
A232
  8
0
  6
CONTINUOUS
 62
     7
 10
100.0
 20
-402.0
 30
0.0
 11
100.0
 21
-417.0
 31
0.0
  0
LINE
  5
A235
  8
0
  6
CONTINUOUS
 62
     7
 10
12.500000249999999
 20
-327.0
 30
0.0
 11
12.500000249999999
 21
-257.00000000000028
 31
0.0
  0
LINE
  5
A236
  8
CENTER
  6
CENTER
 62
     1
 10
20.000000000000082
 20
-247.0000000000002
 30
0.0
 11
-0.4194156368026399
 21
-247.00000000000031
 31
0.0
  0
LINE
  5
A237
  8
CENTER
  6
CENTER
 62
     1
 10
20.000000000000082
 20
-227.0000000000002
 30
0.0
 11
-0.4194156368026114
 21
-227.0000000000002
 31
0.0
  0
LINE
  5
A238
  8
0
  6
CONTINUOUS
 62
     7
 10
103.6165952196568
 20
-331.5
 30
0.0
 11
103.6165952196568
 21
-340.49999999999989
 31
0.0
  0
LINE
  5
A239
  8
0
  6
CONTINUOUS
 62
     7
 10
106.8452994616207
 20
-334.0
 30
0.0
 11
105.6905989232415
 21
-336.0
 31
0.0
  0
LINE
  5
A23A
  8
0
  6
CONTINUOUS
 62
     7
 10
105.6905989232414
 20
-336.0
 30
0.0
 11
106.8452994616207
 21
-338.0
 31
0.0
  0
LINE
  5
A23B
  8
0
  6
CONTINUOUS
 62
     7
 10
147.5
 20
-327.0
 30
0.0
 11
147.5
 21
-342.0
 31
0.0
  0
LINE
  5
A23C
  8
0
  6
CONTINUOUS
 62
     7
 10
144.0
 20
-355.0
 30
0.0
 11
144.0
 21
-402.0
 31
0.0
  0
LINE
  5
A23D
  8
CENTER
  6
CENTER
 62
     1
 10
107.4999999999999
 20
-400.0
 30
0.0
 11
107.4999999999999
 21
-419.0
 31
0.0
  0
LINE
  5
A23F
  8
0
  6
CONTINUOUS
 62
     7
 10
150.0
 20
-402.0
 30
0.0
 11
150.0
 21
-417.0
 31
0.0
  0
LINE
  5
A240
  8
CENTER
  6
CENTER
 62
     1
 10
142.49999999999989
 20
-400.0
 30
0.0
 11
142.49999999999969
 21
-419.0
 31
0.0
  0
LINE
  5
A244
  8
0
  6
CONTINUOUS
 62
     7
 10
112.5
 20
-342.0
 30
0.0
 11
112.5
 21
-355.0
 31
0.0
  0
LINE
  5
A245
  8
0
  6
CONTINUOUS
 62
     7
 10
137.5
 20
-342.0
 30
0.0
 11
137.5
 21
-355.0
 31
0.0
  0
LINE
  5
A246
  8
0
  6
CONTINUOUS
 62
     7
 10
137.5
 20
-257.0
 30
0.0
 11
137.5
 21
-327.0
 31
0.0
  0
LINE
  5
A247
  8
0
  6
CONTINUOUS
 62
     7
 10
112.5
 20
-257.0
 30
0.0
 11
112.5
 21
-327.0
 31
0.0
  0
LINE
  5
A248
  8
CENTER
  6
CENTER
 62
     1
 10
107.9999999999999
 20
-329.74999999999989
 30
0.0
 11
108.0
 21
-342.24999999999989
 31
0.0
  0
ARC
  5
A249
  8
0
  6
CONTINUOUS
 62
     7
 10
108.0
 20
-336.0
 30
0.0
 40
4.5
 50
270.0
 51
90.0
  0
LINE
  5
A24A
  8
0
  6
CONTINUOUS
 62
     7
 10
110.30940107675841
 20
-336.0
 30
0.0
 11
109.1547005383792
 21
-338.0
 31
0.0
  0
LINE
  5
A24B
  8
0
  6
CONTINUOUS
 62
     7
 10
109.1547005383792
 20
-334.0
 30
0.0
 11
110.3094010767585
 21
-336.0
 31
0.0
  0
LINE
  5
A24C
  8
CENTER
  6
CENTER
 62
     1
 10
135.7499999999998
 20
-336.0
 30
0.0
 11
148.2499999999998
 21
-336.0
 31
0.0
  0
LINE
  5
A24D
  8
CENTER
  6
CENTER
 62
     1
 10
142.0
 20
-329.74999999999989
 30
0.0
 11
142.0
 21
-342.24999999999989
 31
0.0
  0
CIRCLE
  5
A24E
  8
0
  6
CONTINUOUS
 62
     7
 10
142.0
 20
-336.0
 30
0.0
 40
4.25
  0
ARC
  5
A24F
  8
0
  6
CONTINUOUS
 62
     7
 10
142.0
 20
-336.0
 30
0.0
 40
4.5
 50
90.0
 51
270.0
  0
LINE
  5
A250
  8
0
  6
CONTINUOUS
 62
     7
 10
140.8452994616207
 20
-334.0
 30
0.0
 11
139.69059892324151
 21
-336.0
 31
0.0
  0
LINE
  5
A251
  8
0
  6
CONTINUOUS
 62
     7
 10
139.69059892324151
 20
-336.0
 30
0.0
 11
140.8452994616207
 21
-338.0
 31
0.0
  0
LINE
  5
A252
  8
0
  6
CONTINUOUS
 62
     7
 10
142.0
 20
-340.49999999999989
 30
0.0
 11
146.38340478034311
 21
-340.49999999999989
 31
0.0
  0
LINE
  5
A253
  8
0
  6
CONTINUOUS
 62
     7
 10
142.0
 20
-331.5
 30
0.0
 11
146.38340478034311
 21
-331.5
 31
0.0
  0
LINE
  5
A254
  8
0
  6
CONTINUOUS
 62
     7
 10
146.38340478034311
 20
-331.5
 30
0.0
 11
146.38340478034311
 21
-340.49999999999989
 31
0.0
  0
LINE
  5
A255
  8
0
  6
CONTINUOUS
 62
     7
 10
144.30940107675841
 20
-336.0
 30
0.0
 11
143.15470053837919
 21
-338.0
 31
0.0
  0
LINE
  5
A256
  8
0
  6
CONTINUOUS
 62
     7
 10
143.15470053837919
 20
-334.0
 30
0.0
 11
144.30940107675841
 21
-336.0
 31
0.0
  0
LINE
  5
A257
  8
0
  6
CONTINUOUS
 62
     7
 10
140.8452994616207
 20
-334.0
 30
0.0
 11
143.15470053837919
 21
-334.0
 31
0.0
  0
LINE
  5
A258
  8
0
  6
CONTINUOUS
 62
     7
 10
140.8452994616207
 20
-338.0
 30
0.0
 11
143.15470053837919
 21
-338.0
 31
0.0
  0
LINE
  5
A259
  8
CENTER
  6
CENTER
 62
     1
 10
160.00000000069591
 20
-243.0
 30
0.0
 11
160.00000000069591
 21
-259.0
 31
0.0
  0
LINE
  5
A25A
  8
CENTER
  6
CENTER
 62
     1
 10
175.00000000069591
 20
-247.0
 30
0.0
 11
165.00000000069591
 21
-247.0
 31
0.0
  0
CIRCLE
  5
A25B
  8
0
  6
CONTINUOUS
 62
     7
 10
170.00000000069591
 20
-247.0
 30
0.0
 40
2.458499999999999
  0
CIRCLE
  5
A25C
  8
0
  6
CONTINUOUS
 62
     3
 10
170.00000000069591
 20
-247.0
 30
0.0
 40
3.0
  0
LINE
  5
A25D
  8
CENTER
  6
CENTER
 62
     1
 10
170.00000000069591
 20
-242.0
 30
0.0
 11
170.00000000069591
 21
-252.0
 31
0.0
  0
CIRCLE
  5
A25E
  8
0
  6
CONTINUOUS
 62
     3
 10
170.00000000069591
 20
-227.0
 30
0.0
 40
3.0
  0
CIRCLE
  5
A25F
  8
0
  6
CONTINUOUS
 62
     7
 10
170.00000000069591
 20
-227.0
 30
0.0
 40
2.458499999999999
  0
LINE
  5
A261
  8
0
  6
CONTINUOUS
 62
     7
 10
266.0
 20
-415.0
 30
0.0
 11
284.0
 21
-415.0
 31
0.0
  0
LINE
  5
A263
  8
0
  6
CONTINUOUS
 62
     7
 10
256.0
 20
-355.0
 30
0.0
 11
256.0
 21
-402.0
 31
0.0
  0
LINE
  5
A264
  8
0
  6
CONTINUOUS
 62
     7
 10
266.0
 20
-403.0
 30
0.0
 11
266.0
 21
-415.0
 31
0.0
  0
LINE
  5
A265
  8
0
  6
CONTINUOUS
 62
     7
 10
265.0
 20
-403.0
 30
0.0
 11
265.0
 21
-417.0
 31
0.0
  0
LINE
  5
A266
  8
0
  6
CONTINUOUS
 62
     7
 10
250.0
 20
-402.0
 30
0.0
 11
250.0
 21
-417.0
 31
0.0
  0
LINE
  5
A268
  8
0
  6
CONTINUOUS
 62
     7
 10
250.0
 20
-402.0
 30
0.0
 11
256.0
 21
-402.0
 31
0.0
  0
LINE
  5
A26A
  8
0
  6
CONTINUOUS
 62
     7
 10
256.0
 20
-355.0
 30
0.0
 11
262.5
 21
-355.0
 31
0.0
  0
LINE
  5
A26B
  8
0
  6
CONTINUOUS
 62
     7
 10
294.0
 20
-355.0
 30
0.0
 11
294.0
 21
-402.0
 31
0.0
  0
LINE
  5
A26C
  8
0
  6
CONTINUOUS
 62
     7
 10
294.0
 20
-402.0
 30
0.0
 11
300.0
 21
-402.0
 31
0.0
  0
LINE
  5
A26E
  8
0
  6
CONTINUOUS
 62
     7
 10
284.0
 20
-403.0
 30
0.0
 11
284.0
 21
-415.0
 31
0.0
  0
LINE
  5
A26F
  8
0
  6
CONTINUOUS
 62
     7
 10
285.0
 20
-403.0
 30
0.0
 11
285.0
 21
-417.0
 31
0.0
  0
LINE
  5
A270
  8
0
  6
CONTINUOUS
 62
     7
 10
287.5
 20
-393.0
 30
0.0
 11
262.5
 21
-393.0
 31
0.0
  0
LINE
  5
A271
  8
0
  6
CONTINUOUS
 62
     7
 10
265.0
 20
-403.0
 30
0.0
 11
285.0
 21
-403.0
 31
0.0
  0
LINE
  5
A272
  8
0
  6
CONTINUOUS
 62
     3
 10
280.053
 20
-393.0
 30
0.0
 11
280.053
 21
-403.0
 31
0.0
  0
LINE
  5
A273
  8
0
  6
CONTINUOUS
 62
     3
 10
269.947
 20
-393.0
 30
0.0
 11
269.947
 21
-403.0
 31
0.0
  0
LINE
  5
A274
  8
0
  6
CONTINUOUS
 62
     7
 10
281.0
 20
-393.0
 30
0.0
 11
281.0
 21
-403.0
 31
0.0
  0
LINE
  5
A275
  8
0
  6
CONTINUOUS
 62
     7
 10
269.0
 20
-393.0
 30
0.0
 11
269.0
 21
-403.0
 31
0.0
  0
LINE
  5
A276
  8
0
  6
CONTINUOUS
 62
     7
 10
268.0
 20
-393.0
 30
0.0
 11
268.0
 21
-403.0
 31
0.0
  0
LINE
  5
A277
  8
0
  6
CONTINUOUS
 62
     7
 10
282.0
 20
-393.0
 30
0.0
 11
282.0
 21
-403.0
 31
0.0
  0
LINE
  5
A278
  8
0
  6
CONTINUOUS
 62
     7
 10
300.0
 20
-402.0
 30
0.0
 11
300.0
 21
-417.0
 31
0.0
  0
LINE
  5
A27B
  8
0
  6
CONTINUOUS
 62
     7
 10
287.5
 20
-355.0
 30
0.0
 11
294.0
 21
-355.0
 31
0.0
  0
CIRCLE
  5
A27C
  8
0
  6
CONTINUOUS
 62
     7
 10
229.99999999930401
 20
-247.0
 30
0.0
 40
2.458499999999999
  0
CIRCLE
  5
A27D
  8
0
  6
CONTINUOUS
 62
     3
 10
229.99999999930401
 20
-247.0
 30
0.0
 40
3.0
  0
CIRCLE
  5
A27E
  8
0
  6
CONTINUOUS
 62
     7
 10
229.99999999930401
 20
-227.0
 30
0.0
 40
2.458499999999999
  0
CIRCLE
  5
A27F
  8
0
  6
CONTINUOUS
 62
     3
 10
229.99999999930401
 20
-227.0
 30
0.0
 40
3.0
  0
LINE
  5
A280
  8
0
  6
CONTINUOUS
 62
     7
 10
262.50000000504411
 20
-252.0
 30
0.0
 11
255.0000000050442
 21
-252.0
 31
0.0
  0
LINE
  5
A281
  8
0
  6
CONTINUOUS
 62
     7
 10
261.00000000504411
 20
-252.0
 30
0.0
 11
261.00000000504411
 21
-257.0
 31
0.0
  0
LINE
  5
A282
  8
0
  6
CONTINUOUS
 62
     7
 10
300.00000000504423
 20
-257.0
 30
0.0
 11
287.50000000504423
 21
-257.0
 31
0.0
  0
LINE
  5
A283
  8
0
  6
CONTINUOUS
 62
     7
 10
295.00000000504423
 20
-252.0
 30
0.0
 11
287.50000000504423
 21
-252.0
 31
0.0
  0
LINE
  5
A284
  8
0
  6
CONTINUOUS
 62
     7
 10
289.00000000504423
 20
-252.0
 30
0.0
 11
289.00000000504423
 21
-257.0
 31
0.0
  0
ARC
  5
A285
  8
0
  6
CONTINUOUS
 62
     7
 10
200.0
 20
0.0
 30
0.0
 40
18.649999999999999
 50
270.0
 51
90.0
  0
ARC
  5
A286
  8
0
  6
CONTINUOUS
 62
     7
 10
200.0
 20
0.0
 30
0.0
 40
18.649999999999999
 50
90.0
 51
270.0
  0
LINE
  5
A288
  8
0
  6
CONTINUOUS
 62
     7
 10
286.00000000000028
 20
26.99999999999989
 30
0.0
 11
113.9999999999994
 21
26.99999999999989
 31
0.0
  0
LINE
  5
A289
  8
0
  6
CONTINUOUS
 62
     7
 10
223.43074902771991
 20
-26.0
 30
0.0
 11
212.7000000000009
 21
-26.0
 31
0.0
  0
LINE
  5
A28C
  8
0
  6
CONTINUOUS
 62
     7
 10
212.7000000000009
 20
26.00000000000006
 30
0.0
 11
223.43074902771991
 21
26.00000000000006
 31
0.0
  0
LINE
  5
A28D
  8
CENTER
  6
CENTER
 62
     1
 10
301.99999999999989
 20
0.0
 30
0.0
 11
98.0
 21
0.0
 31
0.0
  0
LINE
  5
A28E
  8
0
  6
CONTINUOUS
 62
     7
 10
174.0
 20
-60.5
 30
0.0
 11
225.99999999999901
 21
-60.5
 31
0.0
  0
LINE
  5
A28F
  8
0
  6
CONTINUOUS
 62
     7
 10
226.99999999930401
 20
-201.0
 30
0.0
 11
173.00000000069599
 21
-201.0
 31
0.0
  0
LINE
  5
A290
  8
0
  6
CONTINUOUS
 62
     7
 10
262.39999999999998
 20
-162.0
 30
0.0
 11
100.0
 21
-162.0
 31
0.0
  0
LINE
  5
A291
  8
0
  6
CONTINUOUS
 62
     7
 10
300.0
 20
-150.0
 30
0.0
 11
100.0
 21
-150.0
 31
0.0
  0
LINE
  5
A292
  8
0
  6
CONTINUOUS
 62
     7
 10
174.0
 20
-189.0000000000002
 30
0.0
 11
226.0
 21
-189.0000000000002
 31
0.0
  0
ARC
  5
A293
  8
0
  6
CONTINUOUS
 62
     7
 10
124.99999999822251
 20
0.0
 30
0.0
 40
37.5
 50
228.18968510422101
 51
311.81031489577958
  0
LINE
  5
A295
  8
CENTER
  6
CENTER
 62
     1
 10
199.9999999998536
 20
-33.0
 30
0.0
 11
199.99999999845869
 21
28.99999999999989
 31
0.0
  0
LINE
  5
A297
  8
CENTER
  6
CENTER
 62
     1
 10
124.99999999822251
 20
39.5
 30
0.0
 11
124.99999999822251
 21
-39.5
 31
0.0
  0
LINE
  5
A298
  8
CENTER
  6
CENTER
 62
     1
 10
0.0
 20
39.5
 30
0.0
 11
0.0
 21
-39.5
 31
0.0
  0
LINE
  5
A29A
  8
0
  6
CONTINUOUS
 62
     7
 10
99.999999994955786
 20
-189.0
 30
0.0
 11
170.00000000069591
 21
-189.0
 31
0.0
  0
LINE
  5
A29D
  8
0
  6
CONTINUOUS
 62
     7
 10
26.000000000000071
 20
-60.5
 30
0.0
 11
26.000000000000071
 21
-150.0
 31
0.0
  0
LINE
  5
A29E
  8
0
  6
CONTINUOUS
 62
     7
 10
9.3000000000000114
 20
-60.5
 30
0.0
 11
9.3000000000000114
 21
-150.0
 31
0.0
  0
LINE
  5
A29F
  8
0
  6
CONTINUOUS
 62
     7
 10
12.69999999999999
 20
-60.5
 30
0.0
 11
12.69999999999999
 21
-150.0
 31
0.0
  0
LINE
  5
A2A0
  8
0
  6
CONTINUOUS
 62
     7
 10
5.000000000000596
 20
-60.5
 30
0.0
 11
5.000000000000596
 21
-140.40000000000001
 31
0.0
  0
LINE
  5
A2A1
  8
0
  6
CONTINUOUS
 62
     7
 10
7.500000000000596
 20
-60.5
 30
0.0
 11
7.500000000000596
 21
-148.39999999999981
 31
0.0
  0
LINE
  5
A2A2
  8
0
  6
CONTINUOUS
 62
     7
 10
23.43074902771999
 20
-60.5
 30
0.0
 11
23.43074902771999
 21
-150.0
 31
0.0
  0
LINE
  5
A2A3
  8
0
  6
CONTINUOUS
 62
     7
 10
31.0
 20
-60.5
 30
0.0
 11
31.0
 21
-150.0
 31
0.0
  0
LINE
  5
A2A4
  8
0
  6
CONTINUOUS
 62
     7
 10
12.500000249999999
 20
-172.0
 30
0.0
 11
12.500000249999999
 21
-162.0
 31
0.0
  0
LINE
  5
A2A5
  8
0
  6
CONTINUOUS
 62
     7
 10
11.00000024999998
 20
-182.0
 30
0.0
 11
11.00000024999998
 21
-172.0
 31
0.0
  0
LINE
  5
A2A6
  8
0
  6
CONTINUOUS
 62
     7
 10
12.500000249999999
 20
-189.0000000000002
 30
0.0
 11
12.500000249999999
 21
-182.0
 31
0.0
  0
LINE
  5
A2A7
  8
0
  6
CONTINUOUS
 62
     7
 10
12.500000249999999
 20
-182.0
 30
0.0
 11
11.00000024999998
 21
-182.0
 31
0.0
  0
LINE
  5
A2A8
  8
0
  6
CONTINUOUS
 62
     7
 10
12.500000249999999
 20
-172.0
 30
0.0
 11
11.00000024999998
 21
-172.0
 31
0.0
  0
LINE
  5
A2A9
  8
CENTER
  6
CENTER
 62
     1
 10
33.0
 20
-139.0
 30
0.0
 11
22.71537497071116
 21
-139.0
 31
0.0
  0
LINE
  5
A2AA
  8
0
  6
CONTINUOUS
 62
     7
 10
23.0
 20
-150.0
 30
0.0
 11
23.0
 21
-162.0
 31
0.0
  0
LINE
  5
A2AB
  8
0
  6
CONTINUOUS
 62
     7
 10
25.0
 20
-150.0
 30
0.0
 11
25.0
 21
-162.0
 31
0.0
  0
LINE
  5
A2AC
  8
0
  6
CONTINUOUS
 62
     7
 10
102.0
 20
-150.0
 30
0.0
 11
102.0
 21
-162.0
 31
0.0
  0
LINE
  5
A2AD
  8
0
  6
CONTINUOUS
 62
     7
 10
100.0
 20
-150.0
 30
0.0
 11
100.0
 21
-162.0
 31
0.0
  0
LINE
  5
A2AE
  8
CENTER
  6
CENTER
 62
     1
 10
33.0
 20
-68.5
 30
0.0
 11
22.71537497071116
 21
-68.499999999999943
 31
0.0
  0
LINE
  5
A2B1
  8
0
  6
CONTINUOUS
 62
     7
 10
187.2999999999989
 20
-150.0
 30
0.0
 11
187.2999999999989
 21
-60.5
 31
0.0
  0
LINE
  5
A2B2
  8
0
  6
CONTINUOUS
 62
     7
 10
174.0
 20
-150.0
 30
0.0
 11
174.0
 21
-60.5
 31
0.0
  0
LINE
  5
A2B3
  8
0
  6
CONTINUOUS
 62
     7
 10
209.3000000000001
 20
-150.0
 30
0.0
 11
209.3000000000001
 21
-60.5
 31
0.0
  0
LINE
  5
A2B4
  8
0
  6
CONTINUOUS
 62
     7
 10
212.69999999999999
 20
-60.5
 30
0.0
 11
212.69999999999999
 21
-150.0
 31
0.0
  0
LINE
  5
A2B5
  8
0
  6
CONTINUOUS
 62
     7
 10
176.56925097228
 20
-60.5
 30
0.0
 11
176.56925097228
 21
-150.0
 31
0.0
  0
LINE
  5
A2B6
  8
0
  6
CONTINUOUS
 62
     7
 10
190.69999999999999
 20
-60.5
 30
0.0
 11
190.69999999999999
 21
-150.0
 31
0.0
  0
LINE
  5
A2B7
  8
0
  6
CONTINUOUS
 62
     7
 10
207.0
 20
-60.5
 30
0.0
 11
207.0
 21
-150.0
 31
0.0
  0
LINE
  5
A2B8
  8
0
  6
CONTINUOUS
 62
     7
 10
192.99999999999989
 20
-60.5
 30
0.0
 11
192.99999999999989
 21
-150.0
 31
0.0
  0
LINE
  5
A2B9
  8
0
  6
CONTINUOUS
 62
     7
 10
137.5
 20
-162.0
 30
0.0
 11
137.5
 21
-189.0
 31
0.0
  0
LINE
  5
A2BA
  8
0
  6
CONTINUOUS
 62
     7
 10
112.5
 20
-162.0
 30
0.0
 11
112.5
 21
-189.0
 31
0.0
  0
LINE
  5
A2BB
  8
0
  6
CONTINUOUS
 62
     3
 10
119.0628289564808
 20
-172.0000000000002
 30
0.0
 11
130.93717104351879
 21
-182.0000000000002
 31
0.0
  0
LINE
  5
A2BC
  8
0
  6
CONTINUOUS
 62
     3
 10
119.0628289564811
 20
-182.0000000000002
 30
0.0
 11
130.9371710435191
 21
-172.0000000000002
 31
0.0
  0
LINE
  5
A2BD
  8
0
  6
CONTINUOUS
 62
     7
 10
119.062828956481
 20
-182.0
 30
0.0
 11
130.9371710435189
 21
-182.0
 31
0.0
  0
LINE
  5
A2BE
  8
0
  6
CONTINUOUS
 62
     7
 10
119.062828956481
 20
-172.0
 30
0.0
 11
130.9371710435189
 21
-172.0
 31
0.0
  0
LINE
  5
A2BF
  8
0
  6
CONTINUOUS
 62
     7
 10
119.062828956481
 20
-172.0
 30
0.0
 11
119.062828956481
 21
-182.0
 31
0.0
  0
LINE
  5
A2C0
  8
0
  6
CONTINUOUS
 62
     7
 10
130.9371710435189
 20
-172.0
 30
0.0
 11
130.9371710435189
 21
-182.0
 31
0.0
  0
LINE
  5
A2C1
  8
0
  6
CONTINUOUS
 62
     7
 10
118.5
 20
-140.40000000000001
 30
0.0
 11
118.5
 21
-148.39999999999981
 31
0.0
  0
LINE
  5
A2C2
  8
0
  6
CONTINUOUS
 62
     7
 10
131.4999999999998
 20
-140.40000000000001
 30
0.0
 11
131.4999999999998
 21
-148.39999999999981
 31
0.0
  0
LINE
  5
A2C3
  8
0
  6
CONTINUOUS
 62
     7
 10
116.5
 20
-148.39999999999981
 30
0.0
 11
133.4999999999998
 21
-148.39999999999981
 31
0.0
  0
LINE
  5
A2C4
  8
0
  6
CONTINUOUS
 62
     7
 10
116.5
 20
-148.39999999999981
 30
0.0
 11
116.5
 21
-150.0
 31
0.0
  0
LINE
  5
A2C5
  8
0
  6
CONTINUOUS
 62
     7
 10
133.4999999999998
 20
-148.39999999999981
 30
0.0
 11
133.4999999999998
 21
-150.0
 31
0.0
  0
LINE
  5
A2C6
  8
0
  6
CONTINUOUS
 62
     7
 10
118.5
 20
-140.40000000000001
 30
0.0
 11
131.4999999999998
 21
-140.40000000000001
 31
0.0
  0
LINE
  5
A2C7
  8
0
  6
CONTINUOUS
 62
     7
 10
190.5
 20
-178.0
 30
0.0
 11
190.5
 21
-168.0
 31
0.0
  0
LINE
  5
A2C8
  8
0
  6
CONTINUOUS
 62
     7
 10
209.5
 20
-178.0
 30
0.0
 11
209.5
 21
-168.0
 31
0.0
  0
LINE
  5
A2CB
  8
0
  6
CONTINUOUS
 62
     7
 10
170.00000000069591
 20
-189.0
 30
0.0
 11
170.00000000069591
 21
-198.0
 31
0.0
  0
LINE
  5
A2CC
  8
CENTER
  6
CENTER
 62
     1
 10
182.67949192431121
 20
-203.0
 30
0.0
 11
182.67949192431121
 21
-187.0000000000002
 31
0.0
  0
LINE
  5
A2CD
  8
0
  6
CONTINUOUS
 62
     7
 10
174.0
 20
-201.0000000000002
 30
0.0
 11
174.0
 21
-189.0000000000002
 31
0.0
  0
ARC
  5
A2CE
  8
0
  6
CONTINUOUS
 62
     7
 10
173.00000000069599
 20
-198.0
 30
0.0
 40
3.0
 50
180.0
 51
270.0
  0
LINE
  5
A2D0
  8
0
  6
CONTINUOUS
 62
     7
 10
188.99999975000031
 20
-178.0
 30
0.0
 11
190.5
 21
-178.0
 31
0.0
  0
LINE
  5
A2D1
  8
0
  6
CONTINUOUS
 62
     7
 10
211.00000025
 20
-189.0000000000002
 30
0.0
 11
211.00000025
 21
-178.0
 31
0.0
  0
LINE
  5
A2D2
  8
0
  6
CONTINUOUS
 62
     7
 10
209.5
 20
-178.0
 30
0.0
 11
211.00000025
 21
-178.0
 31
0.0
  0
ARC
  5
A2D3
  8
0
  6
CONTINUOUS
 62
     7
 10
205.49999999999949
 20
-152.11405023265459
 30
0.0
 40
15.88594976734538
 50
249.74384199958519
 51
290.25615800041561
  0
LINE
  5
A2D4
  8
0
  6
CONTINUOUS
 62
     7
 10
190.5
 20
-168.0
 30
0.0
 11
209.5
 21
-168.0
 31
0.0
  0
ARC
  5
A2D5
  8
0
  6
CONTINUOUS
 62
     7
 10
194.4999999999994
 20
-152.11405023265459
 30
0.0
 40
15.88594976734538
 50
249.74384199958519
 51
290.25615800041561
  0
LINE
  5
A2D6
  8
0
  6
CONTINUOUS
 62
     7
 10
188.9999999999994
 20
-167.01751962775251
 30
0.0
 11
188.9999999999994
 21
-162.0
 31
0.0
  0
LINE
  5
A2D7
  8
0
  6
CONTINUOUS
 62
     7
 10
188.9999999999994
 20
-167.01751962775251
 30
0.0
 11
190.7017059221713
 21
-168.0
 31
0.0
  0
LINE
  5
A2D8
  8
0
  6
CONTINUOUS
 62
     7
 10
199.9999999999994
 20
-167.01751962775251
 30
0.0
 11
199.9999999999994
 21
-162.0
 31
0.0
  0
LINE
  5
A2D9
  8
0
  6
CONTINUOUS
 62
     7
 10
210.9999999999994
 20
-167.01751962775251
 30
0.0
 11
209.29829407782779
 21
-168.0
 31
0.0
  0
LINE
  5
A2DA
  8
0
  6
CONTINUOUS
 62
     7
 10
210.9999999999994
 20
-167.01751962775251
 30
0.0
 11
210.9999999999994
 21
-162.0
 31
0.0
  0
CIRCLE
  5
A2DB
  8
0
  6
CONTINUOUS
 62
     3
 10
200.0
 20
-139.0
 30
0.0
 40
4.8639999999999981
  0
LINE
  5
A2DC
  8
CENTER
  6
CENTER
 62
     1
 10
206.84999999999991
 20
-139.0
 30
0.0
 11
193.14999999999989
 21
-139.0
 31
0.0
  0
LINE
  5
A2DD
  8
CENTER
  6
CENTER
 62
     1
 10
206.84999999999991
 20
-68.5
 30
0.0
 11
193.14999999999989
 21
-68.5
 31
0.0
  0
ARC
  5
A2E0
  8
0
  6
CONTINUOUS
 62
     7
 10
124.99999999822251
 20
0.0
 30
0.0
 40
37.5
 50
48.189685104220978
 51
131.81031489577839
  0
LINE
  5
A2E1
  8
0
  6
DASHED
 62
     3
 10
111.9999999999996
 20
25.0
 30
0.0
 11
99.999999999999787
 21
13.000000000000229
 31
0.0
  0
LINE
  5
A2E2
  8
0
  6
DASHED
 62
     3
 10
100.0
 20
-10.00000000000005
 30
0.0
 11
115.0
 21
-25.00000000000011
 31
0.0
  0
LINE
  5
A2E3
  8
0
  6
CONTINUOUS
 62
     7
 10
175.5051025721682
 20
-25.0
 30
0.0
 11
101.9999999999997
 21
-25.0
 31
0.0
  0
LINE
  5
A2E4
  8
0
  6
CONTINUOUS
 62
     7
 10
175.5051025721682
 20
25.0
 30
0.0
 11
101.9999999999995
 21
25.0
 31
0.0
  0
LINE
  5
A2E6
  8
0
  6
CONTINUOUS
 62
     7
 10
25.0
 20
-27.95084971874741
 30
0.0
 11
25.0
 21
27.95084971874741
 31
0.0
  0
CIRCLE
  5
A2E7
  8
0
  6
CONTINUOUS
 62
     7
 10
17.5
 20
-22.5
 30
0.0
 40
4.5
  0
CIRCLE
  5
A2E8
  8
0
  6
CONTINUOUS
 62
     7
 10
17.5
 20
22.5
 30
0.0
 40
4.5
  0
LINE
  5
A2E9
  8
0
  6
DASHED
 62
     3
 10
100.0
 20
-10.00000000000005
 30
0.0
 11
100.0
 21
13.0
 31
0.0
  0
LINE
  5
A2EA
  8
0
  6
CONTINUOUS
 62
     7
 10
100.0
 20
23.000000000000291
 30
0.0
 11
100.0
 21
-23.000000000000231
 31
0.0
  0
LINE
  5
A2ED
  8
0
  6
CONTINUOUS
 62
     7
 10
99.999999999999787
 20
-23.00000000000011
 30
0.0
 11
101.9999999999997
 21
-25.00000000000011
 31
0.0
  0
LINE
  5
A2EE
  8
0
  6
CONTINUOUS
 62
     7
 10
99.999999998222506
 20
-27.95084971874741
 30
0.0
 11
99.999999998222506
 21
-22.999999998222791
 31
0.0
  0
LINE
  5
A2F3
  8
0
  6
CONTINUOUS
 62
     7
 10
99.999999999999716
 20
23.000000000000171
 30
0.0
 11
101.9999999999997
 21
25.000000000000171
 31
0.0
  0
LINE
  5
A2F4
  8
0
  6
CONTINUOUS
 62
     7
 10
99.999999998222506
 20
22.999999998222961
 30
0.0
 11
99.999999998222506
 21
27.95084971874741
 31
0.0
  0
LINE
  5
A2F5
  8
0
  6
DASHED
 62
     3
 10
150.00000000069591
 20
-15.00000000000006
 30
0.0
 11
249.99999999930401
 21
-15.00000000000006
 31
0.0
  0
LINE
  5
A2F7
  8
0
  6
DASHED
 62
     3
 10
115.0
 20
-25.0
 30
0.0
 11
141.0
 21
-25.0
 31
0.0
  0
CIRCLE
  5
A2F8
  8
0
  6
CONTINUOUS
 62
     7
 10
125.0
 20
0.0
 30
0.0
 40
8.5
  0
CIRCLE
  5
A2F9
  8
0
  6
CONTINUOUS
 62
     7
 10
125.0
 20
0.0
 30
0.0
 40
6.5
  0
LINE
  5
A2FA
  8
0
  6
CONTINUOUS
 62
     7
 10
126.71497149410391
 20
-2.9704549640870819
 30
0.0
 11
128.42996973694579
 21
0.0000224646731226
 31
0.0
  0
LINE
  5
A2FB
  8
0
  6
CONTINUOUS
 62
     7
 10
121.5699795381566
 20
0.0000024763440365
 30
0.0
 11
123.28498902544069
 21
-2.9704684101951671
 31
0.0
  0
LINE
  5
A2FC
  8
0
  6
CONTINUOUS
 62
     7
 10
123.2850036621093
 20
-2.9704742431640621
 30
0.0
 11
126.7149963378906
 21
-2.9704742431640621
 31
0.0
  0
LINE
  5
A2FD
  8
0
  6
CONTINUOUS
 62
     7
 10
128.4299720161132
 20
-0.0000110342368203
 30
0.0
 11
126.7149737732714
 21
2.9704663945233838
 31
0.0
  0
LINE
  5
A2FE
  8
0
  6
CONTINUOUS
 62
     7
 10
123.284989566193
 20
2.970479580562368
 30
0.0
 11
121.5699724494899
 21
-0.0000045204620278
 31
0.0
  0
LINE
  5
A2FF
  8
0
  6
CONTINUOUS
 62
     7
 10
126.7149963378906
 20
2.9704742431640621
 30
0.0
 11
123.2850036621093
 21
2.9704742431640621
 31
0.0
  0
LINE
  5
A301
  8
0
  6
DASHED
 62
     3
 10
140.9999999999998
 20
-25.0
 30
0.0
 11
149.9999999999998
 21
-16.0
 31
0.0
  0
LINE
  5
A302
  8
0
  6
CONTINUOUS
 62
     7
 10
149.99999999822251
 20
-27.95084971874741
 30
0.0
 11
149.99999999822251
 21
-25.0
 31
0.0
  0
LINE
  5
A303
  8
0
  6
DASHED
 62
     3
 10
150.00000000069591
 20
-15.00000000000006
 30
0.0
 11
150.00000000069591
 21
-16.00000000000006
 31
0.0
  0
LINE
  5
A304
  8
0
  6
CONTINUOUS
 62
     7
 10
113.9999999999996
 20
27.00000000000006
 30
0.0
 11
111.9999999999996
 21
25.0
 31
0.0
  0
LINE
  5
A306
  8
0
  6
CONTINUOUS
 62
     7
 10
149.99999999822251
 20
26.99999999999989
 30
0.0
 11
149.99999999822251
 21
27.95084971874741
 31
0.0
  0
ARC
  5
A307
  8
0
  6
CONTINUOUS
 62
     7
 10
177.60000000000011
 20
10.55000000000001
 30
0.0
 40
1.7
 50
270.0
 51
0.0
  0
LINE
  5
A308
  8
0
  6
CONTINUOUS
 62
     7
 10
174.0
 20
9.3000000000000114
 30
0.0
 11
174.0
 21
7.500000000000056
 31
0.0
  0
LINE
  5
A309
  8
0
  6
CONTINUOUS
 62
     7
 10
175.5
 20
8.8499999999997954
 30
0.0
 11
175.00000000000011
 21
9.2999999999998977
 31
0.0
  0
ARC
  5
A30A
  8
0
  6
CONTINUOUS
 62
     7
 10
188.55000000000001
 20
-22.39999999999992
 30
0.0
 40
1.7
 50
90.0
 51
180.0
  0
LINE
  5
A30B
  8
0
  6
CONTINUOUS
 62
     7
 10
176.56925097228
 20
-26.0
 30
0.0
 11
187.2999999999989
 21
-26.0
 31
0.0
  0
LINE
  5
A30C
  8
0
  6
CONTINUOUS
 62
     7
 10
187.2999999999987
 20
-24.999999999999769
 30
0.0
 11
186.8499999999988
 21
-24.5
 31
0.0
  0
LINE
  5
A30D
  8
CENTER
  6
CENTER
 62
     1
 10
173.5
 20
-20.0
 30
0.0
 11
186.5
 21
-20.0
 31
0.0
  0
ARC
  5
A30E
  8
0
  6
CONTINUOUS
 62
     7
 10
177.60000000000011
 20
-11.44999999999999
 30
0.0
 40
1.7
 50
270.0
 51
0.0
  0
LINE
  5
A30F
  8
0
  6
CONTINUOUS
 62
     7
 10
174.0
 20
-12.69999999999999
 30
0.0
 11
174.0
 21
-23.430749027719969
 31
0.0
  0
LINE
  5
A310
  8
0
  6
CONTINUOUS
 62
     7
 10
175.5000000000002
 20
-13.14999999999986
 30
0.0
 11
175.0000000000002
 21
-12.69999999999987
 31
0.0
  0
LINE
  5
A311
  8
CENTER
  6
CENTER
 62
     1
 10
180.0
 20
-26.5
 30
0.0
 11
180.0
 21
-13.5
 31
0.0
  0
CIRCLE
  5
A312
  8
0
  6
CONTINUOUS
 62
     7
 10
180.0
 20
-20.0
 30
0.0
 40
4.25
  0
CIRCLE
  5
A313
  8
0
  6
CONTINUOUS
 62
     7
 10
180.0
 20
-20.0
 30
0.0
 40
4.5
  0
ARC
  5
A314
  8
0
  6
CONTINUOUS
 62
     7
 10
200.0
 20
0.0
 30
0.0
 40
35.0
 50
222.0246275793755
 51
227.97537242062671
  0
LINE
  5
A315
  8
0
  6
CONTINUOUS
 62
     7
 10
186.849999999999
 20
-22.39999999999992
 30
0.0
 11
186.849999999999
 21
-24.5
 31
0.0
  0
LINE
  5
A316
  8
0
  6
CONTINUOUS
 62
     7
 10
181.1547005383791
 20
-18.0
 30
0.0
 11
178.84529946162061
 21
-18.0
 31
0.0
  0
LINE
  5
A317
  8
0
  6
CONTINUOUS
 62
     7
 10
181.1547005383791
 20
-22.0
 30
0.0
 11
178.84529946162061
 21
-22.0
 31
0.0
  0
LINE
  5
A318
  8
0
  6
CONTINUOUS
 62
     7
 10
177.6905989232414
 20
-20.0
 30
0.0
 11
178.84529946162061
 21
-22.0
 31
0.0
  0
LINE
  5
A319
  8
0
  6
CONTINUOUS
 62
     7
 10
178.84529946162061
 20
-18.0
 30
0.0
 11
177.69059892324151
 21
-20.0
 31
0.0
  0
LINE
  5
A31A
  8
0
  6
CONTINUOUS
 62
     7
 10
175.5
 20
-13.14999999999997
 30
0.0
 11
177.60000000000011
 21
-13.14999999999997
 31
0.0
  0
LINE
  5
A31B
  8
0
  6
CONTINUOUS
 62
     7
 10
181.1547005383791
 20
-18.0
 30
0.0
 11
182.30940107675841
 21
-20.0
 31
0.0
  0
LINE
  5
A31C
  8
0
  6
CONTINUOUS
 62
     7
 10
182.30940107675841
 20
-20.0
 30
0.0
 11
181.1547005383791
 21
-22.0
 31
0.0
  0
LINE
  5
A31D
  8
0
  6
PHANTOM
 62
     3
 10
172.29999799999899
 20
-11.0
 30
0.0
 11
181.2999999999989
 21
-11.0
 31
0.0
  0
LINE
  5
A31E
  8
0
  6
CONTINUOUS
 62
     7
 10
176.5
 20
-4.9999999999998863
 30
0.0
 11
176.5
 21
5.0
 31
0.0
  0
ARC
  5
A31F
  8
0
  6
CONTINUOUS
 62
     7
 10
177.60000000000011
 20
-10.55000000000001
 30
0.0
 40
1.7
 50
0.0
 51
90.0
  0
LINE
  5
A320
  8
0
  6
CONTINUOUS
 62
     7
 10
174.0
 20
-12.69999999999999
 30
0.0
 11
175.0
 21
-12.69999999999999
 31
0.0
  0
LINE
  5
A321
  8
0
  6
CONTINUOUS
 62
     7
 10
177.60000000000011
 20
-8.8500000000000227
 30
0.0
 11
175.5
 21
-8.8500000000000227
 31
0.0
  0
LINE
  5
A322
  8
0
  6
CONTINUOUS
 62
     7
 10
175.00000000000011
 20
-9.2999999999998977
 30
0.0
 11
175.5
 21
-8.8500000000000227
 31
0.0
  0
LINE
  5
A323
  8
0
  6
CONTINUOUS
 62
     7
 10
175.0
 20
-9.3000000000000114
 30
0.0
 11
174.0
 21
-9.3000000000000114
 31
0.0
  0
LINE
  5
A324
  8
0
  6
CONTINUOUS
 62
     7
 10
174.0000000000002
 20
-7.500000000000397
 30
0.0
 11
176.5000000000004
 21
-5.0000000000002842
 31
0.0
  0
LINE
  5
A325
  8
0
  6
CONTINUOUS
 62
     7
 10
174.0
 20
-7.5
 30
0.0
 11
174.0
 21
-9.3000000000000114
 31
0.0
  0
LINE
  5
A326
  8
0
  6
CONTINUOUS
 62
     7
 10
179.29999999999899
 20
-11.44999999999999
 30
0.0
 11
179.29999999999899
 21
-10.55000000000001
 31
0.0
  0
LINE
  5
A327
  8
0
  6
CONTINUOUS
 62
     7
 10
176.50000000000011
 20
5.0
 30
0.0
 11
174.0
 21
7.5000000000001696
 31
0.0
  0
LINE
  5
A328
  8
0
  6
CONTINUOUS
 62
     7
 10
175.5
 20
8.8499999999999091
 30
0.0
 11
177.60000000000011
 21
8.8499999999999091
 31
0.0
  0
LINE
  5
A329
  8
0
  6
CONTINUOUS
 62
     7
 10
207.0
 20
-31.0
 30
0.0
 11
200.0
 21
-31.0
 31
0.0
  0
LINE
  5
A32A
  8
CENTER
  6
CENTER
 62
     1
 10
189.0
 20
-28.0
 30
0.0
 11
189.0
 21
-18.699999999999989
 31
0.0
  0
LINE
  5
A32B
  8
0
  6
CONTINUOUS
 62
     7
 10
191.15000000000001
 20
-24.5
 30
0.0
 11
191.15000000000001
 21
-22.39999999999992
 31
0.0
  0
LINE
  5
A32C
  8
0
  6
CONTINUOUS
 62
     7
 10
193.0
 20
-31.0
 30
0.0
 11
200.0
 21
-31.0
 31
0.0
  0
LINE
  5
A32D
  8
0
  6
CONTINUOUS
 62
     7
 10
190.69999999999999
 20
-25.0
 30
0.0
 11
187.2999999999989
 21
-25.0
 31
0.0
  0
LINE
  5
A32E
  8
0
  6
CONTINUOUS
 62
     7
 10
187.2999999999989
 20
-25.0
 30
0.0
 11
187.2999999999989
 21
-26.0
 31
0.0
  0
LINE
  5
A32F
  8
0
  6
CONTINUOUS
 62
     7
 10
191.15000000000001
 20
-24.5
 30
0.0
 11
190.69999999999999
 21
-25.0
 31
0.0
  0
LINE
  5
A330
  8
0
  6
CONTINUOUS
 62
     7
 10
192.5
 20
-26.0
 30
0.0
 11
193.0
 21
-31.0
 31
0.0
  0
LINE
  5
A331
  8
0
  6
CONTINUOUS
 62
     7
 10
190.69999999999999
 20
-26.0
 30
0.0
 11
192.5
 21
-26.0
 31
0.0
  0
LINE
  5
A332
  8
0
  6
CONTINUOUS
 62
     7
 10
190.69999999999999
 20
-26.0
 30
0.0
 11
190.69999999999999
 21
-25.0
 31
0.0
  0
ARC
  5
A333
  8
0
  6
CONTINUOUS
 62
     7
 10
189.44999999999999
 20
-22.39999999999992
 30
0.0
 40
1.7
 50
0.0
 51
90.0
  0
LINE
  5
A334
  8
0
  6
CONTINUOUS
 62
     7
 10
189.44999999999999
 20
-20.699999999999989
 30
0.0
 11
188.55000000000001
 21
-20.699999999999989
 31
0.0
  0
LINE
  5
A335
  8
CENTER
  6
CENTER
 62
     1
 10
211.0
 20
-28.0
 30
0.0
 11
211.0
 21
-18.699999999999989
 31
0.0
  0
LINE
  5
A336
  8
0
  6
CONTINUOUS
 62
     7
 10
213.150000000001
 20
-22.39999999999992
 30
0.0
 11
213.150000000001
 21
-24.5
 31
0.0
  0
LINE
  5
A337
  8
0
  6
CONTINUOUS
 62
     7
 10
208.8499999999998
 20
-24.5
 30
0.0
 11
208.8499999999998
 21
-22.39999999999992
 31
0.0
  0
LINE
  5
A338
  8
0
  6
CONTINUOUS
 62
     7
 10
207.5
 20
-26.0
 30
0.0
 11
207.0
 21
-31.0
 31
0.0
  0
LINE
  5
A339
  8
0
  6
CONTINUOUS
 62
     7
 10
209.2999999999999
 20
-25.0
 30
0.0
 11
212.7000000000009
 21
-25.0
 31
0.0
  0
LINE
  5
A33A
  8
0
  6
CONTINUOUS
 62
     7
 10
212.7000000000009
 20
-25.0
 30
0.0
 11
212.7000000000009
 21
-26.0
 31
0.0
  0
LINE
  5
A33B
  8
0
  6
CONTINUOUS
 62
     7
 10
212.70000000000121
 20
-24.999999999999769
 30
0.0
 11
213.15000000000111
 21
-24.5
 31
0.0
  0
LINE
  5
A33C
  8
0
  6
CONTINUOUS
 62
     7
 10
208.8499999999998
 20
-24.5
 30
0.0
 11
209.2999999999999
 21
-25.0
 31
0.0
  0
LINE
  5
A33D
  8
0
  6
CONTINUOUS
 62
     7
 10
209.2999999999999
 20
-26.0
 30
0.0
 11
207.5
 21
-26.0
 31
0.0
  0
LINE
  5
A33E
  8
0
  6
CONTINUOUS
 62
     7
 10
209.2999999999999
 20
-26.0
 30
0.0
 11
209.2999999999999
 21
-25.0
 31
0.0
  0
ARC
  5
A33F
  8
0
  6
CONTINUOUS
 62
     7
 10
210.5499999999999
 20
-22.39999999999992
 30
0.0
 40
1.7
 50
90.0
 51
180.0
  0
ARC
  5
A340
  8
0
  6
CONTINUOUS
 62
     7
 10
211.4499999999997
 20
-22.39999999999992
 30
0.0
 40
1.7
 50
0.0
 51
90.0
  0
LINE
  5
A341
  8
0
  6
CONTINUOUS
 62
     7
 10
210.5499999999999
 20
-20.699999999999989
 30
0.0
 11
211.4499999999997
 21
-20.699999999999989
 31
0.0
  0
ARC
  5
A342
  8
0
  6
CONTINUOUS
 62
     7
 10
188.55000000000001
 20
22.399999999999981
 30
0.0
 40
1.7
 50
180.0
 51
270.0
  0
LINE
  5
A343
  8
0
  6
CONTINUOUS
 62
     7
 10
187.2999999999989
 20
26.00000000000006
 30
0.0
 11
176.56925097228
 21
26.00000000000006
 31
0.0
  0
LINE
  5
A344
  8
0
  6
CONTINUOUS
 62
     7
 10
186.84999999999889
 20
24.500000000000401
 30
0.0
 11
187.2999999999987
 21
25.000000000000171
 31
0.0
  0
LINE
  5
A345
  8
0
  6
PHANTOM
 62
     3
 10
172.29999799999899
 20
11.0
 30
0.0
 11
181.2999999999989
 21
11.0
 31
0.0
  0
LINE
  5
A346
  8
0
  6
CONTINUOUS
 62
     7
 10
170.00000000069591
 20
26.99999999999989
 30
0.0
 11
170.00000000069591
 21
25.0
 31
0.0
  0
CIRCLE
  5
A347
  8
0
  6
CONTINUOUS
 62
     7
 10
180.0
 20
20.00000000000006
 30
0.0
 40
4.25
  0
CIRCLE
  5
A348
  8
0
  6
CONTINUOUS
 62
     7
 10
180.0
 20
20.00000000000006
 30
0.0
 40
4.5
  0
LINE
  5
A349
  8
0
  6
CONTINUOUS
 62
     7
 10
181.1547005383791
 20
22.00000000000006
 30
0.0
 11
182.30940107675841
 21
20.00000000000006
 31
0.0
  0
LINE
  5
A34A
  8
0
  6
CONTINUOUS
 62
     7
 10
178.84529946162061
 20
22.00000000000006
 30
0.0
 11
177.69059892324151
 21
20.00000000000006
 31
0.0
  0
LINE
  5
A34B
  8
0
  6
CONTINUOUS
 62
     7
 10
174.0
 20
23.430749027719969
 30
0.0
 11
174.0
 21
12.700000000000101
 31
0.0
  0
LINE
  5
A34C
  8
0
  6
CONTINUOUS
 62
     7
 10
181.1547005383791
 20
18.00000000000006
 30
0.0
 11
178.84529946162061
 21
18.00000000000006
 31
0.0
  0
ARC
  5
A34D
  8
0
  6
CONTINUOUS
 62
     7
 10
177.60000000000011
 20
11.44999999999999
 30
0.0
 40
1.7
 50
0.0
 51
90.0
  0
LINE
  5
A34E
  8
0
  6
CONTINUOUS
 62
     7
 10
177.69059892324151
 20
20.00000000000006
 30
0.0
 11
178.84529946162061
 21
18.00000000000006
 31
0.0
  0
LINE
  5
A34F
  8
0
  6
CONTINUOUS
 62
     7
 10
174.0
 20
9.3000000000000114
 30
0.0
 11
175.0
 21
9.3000000000000114
 31
0.0
  0
LINE
  5
A350
  8
0
  6
CONTINUOUS
 62
     7
 10
179.29999999999899
 20
10.55000000000001
 30
0.0
 11
179.29999999999899
 21
11.44999999999999
 31
0.0
  0
LINE
  5
A351
  8
0
  6
CONTINUOUS
 62
     7
 10
177.60000000000011
 20
13.14999999999997
 30
0.0
 11
175.5
 21
13.14999999999997
 31
0.0
  0
LINE
  5
A352
  8
0
  6
CONTINUOUS
 62
     7
 10
175.00000000000011
 20
12.69999999999999
 30
0.0
 11
175.5
 21
13.14999999999981
 31
0.0
  0
LINE
  5
A353
  8
0
  6
CONTINUOUS
 62
     7
 10
175.0
 20
12.700000000000101
 30
0.0
 11
174.0
 21
12.700000000000101
 31
0.0
  0
LINE
  5
A354
  8
0
  6
CONTINUOUS
 62
     7
 10
182.30940107675841
 20
20.00000000000006
 30
0.0
 11
181.1547005383791
 21
18.00000000000006
 31
0.0
  0
LINE
  5
A355
  8
0
  6
CONTINUOUS
 62
     7
 10
181.1547005383791
 20
22.00000000000006
 30
0.0
 11
178.84529946162061
 21
22.00000000000006
 31
0.0
  0
ARC
  5
A356
  8
0
  6
CONTINUOUS
 62
     7
 10
200.0
 20
0.0
 30
0.0
 40
35.0
 50
132.0246275793732
 51
137.97537242062441
  0
LINE
  5
A357
  8
0
  6
CONTINUOUS
 62
     7
 10
186.849999999999
 20
24.50000000000006
 30
0.0
 11
186.849999999999
 21
22.399999999999981
 31
0.0
  0
LINE
  5
A358
  8
0
  6
CONTINUOUS
 62
     7
 10
200.0
 20
25.0
 30
0.0
 11
206.5000000000008
 21
25.0
 31
0.0
  0
LINE
  5
A359
  8
0
  6
CONTINUOUS
 62
     7
 10
205.0
 20
23.499999999999769
 30
0.0
 11
200.0
 21
23.499999999999769
 31
0.0
  0
LINE
  5
A35A
  8
CENTER
  6
CENTER
 62
     1
 10
189.0
 20
18.699999999999989
 30
0.0
 11
189.0
 21
28.00000000000006
 31
0.0
  0
LINE
  5
A35B
  8
0
  6
CONTINUOUS
 62
     7
 10
200.0
 20
25.0
 30
0.0
 11
193.49999999999909
 21
25.0
 31
0.0
  0
LINE
  5
A35C
  8
0
  6
CONTINUOUS
 62
     7
 10
192.4999999999996
 20
25.999999999999488
 30
0.0
 11
194.9999999999994
 21
23.499999999999549
 31
0.0
  0
ARC
  5
A35D
  8
0
  6
CONTINUOUS
 62
     7
 10
189.44999999999999
 20
22.399999999999981
 30
0.0
 40
1.7
 50
270.0
 51
0.0
  0
LINE
  5
A35E
  8
0
  6
CONTINUOUS
 62
     7
 10
190.69999999999999
 20
25.0
 30
0.0
 11
187.2999999999989
 21
25.0
 31
0.0
  0
LINE
  5
A35F
  8
0
  6
CONTINUOUS
 62
     7
 10
192.5
 20
26.00000000000006
 30
0.0
 11
190.69999999999999
 21
26.00000000000006
 31
0.0
  0
LINE
  5
A360
  8
0
  6
CONTINUOUS
 62
     7
 10
187.2999999999989
 20
26.00000000000006
 30
0.0
 11
187.2999999999989
 21
25.00000000000006
 31
0.0
  0
LINE
  5
A361
  8
0
  6
CONTINUOUS
 62
     7
 10
188.55000000000001
 20
20.699999999999989
 30
0.0
 11
189.44999999999999
 21
20.699999999999989
 31
0.0
  0
LINE
  5
A362
  8
0
  6
CONTINUOUS
 62
     7
 10
191.15000000000001
 20
22.399999999999981
 30
0.0
 11
191.15000000000001
 21
24.50000000000006
 31
0.0
  0
LINE
  5
A363
  8
0
  6
CONTINUOUS
 62
     7
 10
190.6999999999997
 20
25.00000000000006
 30
0.0
 11
191.14999999999981
 21
24.50000000000006
 31
0.0
  0
LINE
  5
A364
  8
0
  6
CONTINUOUS
 62
     7
 10
190.69999999999999
 20
25.00000000000006
 30
0.0
 11
190.69999999999999
 21
26.00000000000006
 31
0.0
  0
LINE
  5
A365
  8
0
  6
CONTINUOUS
 62
     7
 10
195.0
 20
23.499999999999769
 30
0.0
 11
200.0
 21
23.499999999999769
 31
0.0
  0
LINE
  5
A366
  8
CENTER
  6
CENTER
 62
     1
 10
210.99999999999989
 20
18.699999999999989
 30
0.0
 11
211.0
 21
28.00000000000006
 31
0.0
  0
LINE
  5
A367
  8
0
  6
CONTINUOUS
 62
     7
 10
207.50000000000031
 20
25.999999999999488
 30
0.0
 11
205.0000000000004
 21
23.499999999999549
 31
0.0
  0
ARC
  5
A368
  8
0
  6
CONTINUOUS
 62
     7
 10
211.4499999999997
 20
22.399999999999981
 30
0.0
 40
1.7
 50
270.0
 51
0.0
  0
ARC
  5
A369
  8
0
  6
CONTINUOUS
 62
     7
 10
210.5499999999999
 20
22.399999999999981
 30
0.0
 40
1.7
 50
180.0
 51
270.0
  0
LINE
  5
A36A
  8
0
  6
CONTINUOUS
 62
     7
 10
209.2999999999999
 20
25.0
 30
0.0
 11
212.7000000000009
 21
25.0
 31
0.0
  0
LINE
  5
A36B
  8
0
  6
CONTINUOUS
 62
     7
 10
207.5
 20
26.00000000000006
 30
0.0
 11
209.2999999999999
 21
26.00000000000006
 31
0.0
  0
LINE
  5
A36C
  8
0
  6
CONTINUOUS
 62
     7
 10
212.7000000000009
 20
26.00000000000006
 30
0.0
 11
212.7000000000009
 21
25.00000000000006
 31
0.0
  0
LINE
  5
A36D
  8
0
  6
CONTINUOUS
 62
     7
 10
213.15000000000111
 20
24.500000000000401
 30
0.0
 11
212.70000000000121
 21
25.000000000000171
 31
0.0
  0
LINE
  5
A36E
  8
0
  6
CONTINUOUS
 62
     7
 10
213.150000000001
 20
24.50000000000006
 30
0.0
 11
213.150000000001
 21
22.399999999999981
 31
0.0
  0
LINE
  5
A36F
  8
0
  6
CONTINUOUS
 62
     7
 10
211.4499999999997
 20
20.699999999999989
 30
0.0
 11
210.5499999999999
 21
20.699999999999989
 31
0.0
  0
LINE
  5
A370
  8
0
  6
CONTINUOUS
 62
     7
 10
208.8499999999998
 20
22.399999999999981
 30
0.0
 11
208.8499999999998
 21
24.50000000000006
 31
0.0
  0
LINE
  5
A371
  8
0
  6
CONTINUOUS
 62
     7
 10
209.3000000000001
 20
25.00000000000006
 30
0.0
 11
208.85000000000011
 21
24.50000000000006
 31
0.0
  0
LINE
  5
A372
  8
0
  6
CONTINUOUS
 62
     7
 10
209.2999999999999
 20
25.00000000000006
 30
0.0
 11
209.2999999999999
 21
26.00000000000006
 31
0.0
  0
ARC
  5
A373
  8
0
  6
CONTINUOUS
 62
     7
 10
275.00000000177738
 20
0.0
 30
0.0
 40
37.5
 50
228.18968510422101
 51
311.81031489577958
  0
LINE
  5
A376
  8
CENTER
  6
CENTER
 62
     1
 10
275.00000000177738
 20
39.499999998222513
 30
0.0
 11
275.00000000177738
 21
-39.500000001777501
 31
0.0
  0
LINE
  5
A377
  8
0
  6
CONTINUOUS
 62
     7
 10
225.99999999999901
 20
-60.5
 30
0.0
 11
225.99999999999901
 21
-150.0
 31
0.0
  0
LINE
  5
A378
  8
0
  6
CONTINUOUS
 62
     7
 10
223.43074902772011
 20
-60.5
 30
0.0
 11
223.43074902772011
 21
-150.0
 31
0.0
  0
LINE
  5
A379
  8
0
  6
CONTINUOUS
 62
     7
 10
287.5
 20
-156.0
 30
0.0
 11
262.5
 21
-156.0
 31
0.0
  0
LINE
  5
A37A
  8
0
  6
CONTINUOUS
 62
     7
 10
283.49999999999989
 20
-148.39999999999981
 30
0.0
 11
266.5
 21
-148.39999999999981
 31
0.0
  0
LINE
  5
A37B
  8
0
  6
CONTINUOUS
 62
     7
 10
262.50000000504411
 20
-189.0
 30
0.0
 11
229.99999999930401
 21
-189.0
 31
0.0
  0
LINE
  5
A37C
  8
0
  6
CONTINUOUS
 62
     7
 10
229.99999999930401
 20
-189.0
 30
0.0
 11
229.99999999930401
 21
-198.0
 31
0.0
  0
LINE
  5
A37D
  8
CENTER
  6
CENTER
 62
     1
 10
217.32050807568871
 20
-203.0
 30
0.0
 11
217.32050807568879
 21
-187.0000000000002
 31
0.0
  0
LINE
  5
A37E
  8
0
  6
CONTINUOUS
 62
     7
 10
226.0
 20
-201.0000000000002
 30
0.0
 11
226.0
 21
-189.0000000000002
 31
0.0
  0
ARC
  5
A37F
  8
0
  6
CONTINUOUS
 62
     7
 10
226.99999999930401
 20
-198.0
 30
0.0
 40
3.0
 50
270.0
 51
0.0
  0
LINE
  5
A380
  8
0
  6
CONTINUOUS
 62
     7
 10
255.0000000050442
 20
-189.0
 30
0.0
 11
255.0000000050442
 21
-191.0
 31
0.0
  0
LINE
  5
A381
  8
0
  6
CONTINUOUS
 62
     7
 10
262.50000000504411
 20
-193.0
 30
0.0
 11
253.75000000504409
 21
-193.0
 31
0.0
  0
LINE
  5
A382
  8
0
  6
CONTINUOUS
 62
     7
 10
262.50000000504411
 20
-191.0
 30
0.0
 11
253.75000000504409
 21
-191.0
 31
0.0
  0
LINE
  5
A383
  8
0
  6
CONTINUOUS
 62
     7
 10
253.75000000504409
 20
-191.0
 30
0.0
 11
253.75000000504409
 21
-193.0
 31
0.0
  0
LINE
  5
A384
  8
0
  6
CONTINUOUS
 62
     7
 10
266.5
 20
-148.39999999999981
 30
0.0
 11
266.5
 21
-150.0
 31
0.0
  0
LINE
  5
A385
  8
0
  6
CONTINUOUS
 62
     7
 10
296.25000000504423
 20
-193.0
 30
0.0
 11
287.50000000504423
 21
-193.0
 31
0.0
  0
LINE
  5
A386
  8
0
  6
CONTINUOUS
 62
     7
 10
296.25000000504423
 20
-191.0
 30
0.0
 11
287.50000000504423
 21
-191.0
 31
0.0
  0
LINE
  5
A387
  8
0
  6
CONTINUOUS
 62
     7
 10
300.00000000504423
 20
-189.0
 30
0.0
 11
287.50000000504423
 21
-189.0
 31
0.0
  0
LINE
  5
A388
  8
0
  6
CONTINUOUS
 62
     3
 10
269.06282895648093
 20
-172.0
 30
0.0
 11
280.93717104351879
 21
-182.0
 31
0.0
  0
LINE
  5
A389
  8
0
  6
CONTINUOUS
 62
     7
 10
280.9371710435189
 20
-172.0
 30
0.0
 11
280.9371710435189
 21
-182.0
 31
0.0
  0
LINE
  5
A38A
  8
0
  6
CONTINUOUS
 62
     3
 10
269.06282895648093
 20
-181.99999999999989
 30
0.0
 11
280.93717104351879
 21
-171.99999999999989
 31
0.0
  0
LINE
  5
A38B
  8
0
  6
CONTINUOUS
 62
     7
 10
269.06282895648098
 20
-172.0
 30
0.0
 11
269.06282895648098
 21
-182.0
 31
0.0
  0
LINE
  5
A38C
  8
0
  6
CONTINUOUS
 62
     7
 10
280.9371710435189
 20
-182.0
 30
0.0
 11
269.06282895648098
 21
-182.0
 31
0.0
  0
LINE
  5
A38D
  8
0
  6
CONTINUOUS
 62
     7
 10
280.9371710435189
 20
-172.0
 30
0.0
 11
269.06282895648098
 21
-172.0
 31
0.0
  0
LINE
  5
A38E
  8
0
  6
CONTINUOUS
 62
     7
 10
295.00000000504423
 20
-189.0
 30
0.0
 11
295.00000000504423
 21
-191.0
 31
0.0
  0
LINE
  5
A38F
  8
0
  6
CONTINUOUS
 62
     7
 10
296.25000000504423
 20
-191.0
 30
0.0
 11
296.25000000504423
 21
-193.0
 31
0.0
  0
LINE
  5
A390
  8
0
  6
CONTINUOUS
 62
     7
 10
300.0
 20
-162.0
 30
0.0
 11
287.59999999999991
 21
-162.0
 31
0.0
  0
LINE
  5
A391
  8
0
  6
CONTINUOUS
 62
     7
 10
281.49999999999989
 20
-140.40000000000001
 30
0.0
 11
281.49999999999989
 21
-148.39999999999981
 31
0.0
  0
LINE
  5
A392
  8
0
  6
CONTINUOUS
 62
     7
 10
268.5
 20
-140.40000000000001
 30
0.0
 11
268.5
 21
-148.39999999999981
 31
0.0
  0
LINE
  5
A394
  8
0
  6
CONTINUOUS
 62
     3
 10
271.67649999999992
 20
-150.0
 30
0.0
 11
271.67649999999992
 21
-156.0
 31
0.0
  0
LINE
  5
A395
  8
0
  6
CONTINUOUS
 62
     7
 10
271.0
 20
-150.0
 30
0.0
 11
271.0
 21
-156.0
 31
0.0
  0
LINE
  5
A396
  8
0
  6
CONTINUOUS
 62
     7
 10
270.5
 20
-150.0
 30
0.0
 11
270.5
 21
-156.0
 31
0.0
  0
LINE
  5
A397
  8
0
  6
CONTINUOUS
 62
     3
 10
278.32350000000002
 20
-150.0
 30
0.0
 11
278.32350000000002
 21
-156.0
 31
0.0
  0
LINE
  5
A398
  8
0
  6
CONTINUOUS
 62
     7
 10
279.0
 20
-150.0
 30
0.0
 11
279.0
 21
-156.0
 31
0.0
  0
LINE
  5
A399
  8
0
  6
CONTINUOUS
 62
     7
 10
279.49999999999989
 20
-150.0
 30
0.0
 11
279.49999999999989
 21
-156.0
 31
0.0
  0
LINE
  5
A39A
  8
0
  6
CONTINUOUS
 62
     7
 10
283.49999999999989
 20
-148.39999999999981
 30
0.0
 11
283.49999999999989
 21
-150.0
 31
0.0
  0
LINE
  5
A39B
  8
0
  6
CONTINUOUS
 62
     7
 10
281.49999999999989
 20
-140.40000000000001
 30
0.0
 11
268.5
 21
-140.40000000000001
 31
0.0
  0
LINE
  5
A39C
  8
0
  6
CONTINUOUS
 62
     7
 10
300.0
 20
-150.0
 30
0.0
 11
300.0
 21
-162.0
 31
0.0
  0
CIRCLE
  5
A39E
  8
0
  6
CONTINUOUS
 62
     7
 10
275.0
 20
0.0
 30
0.0
 40
8.5
  0
ARC
  5
A39F
  8
0
  6
CONTINUOUS
 62
     7
 10
275.00000000177738
 20
0.0
 30
0.0
 40
37.5
 50
48.189685104220978
 51
131.81031489577839
  0
LINE
  5
A3A0
  8
0
  6
DASHED
 62
     3
 10
284.99999999999989
 20
-25.0
 30
0.0
 11
259.0
 21
-25.0
 31
0.0
  0
LINE
  5
A3A1
  8
0
  6
CONTINUOUS
 62
     7
 10
224.49489742783169
 20
-25.0
 30
0.0
 11
298.00000000000028
 21
-25.0
 31
0.0
  0
LINE
  5
A3A2
  8
0
  6
CONTINUOUS
 62
     7
 10
224.49489742783169
 20
25.0
 30
0.0
 11
298.0000000000004
 21
25.0
 31
0.0
  0
ARC
  5
A3A3
  8
0
  6
CONTINUOUS
 62
     7
 10
222.39999999999981
 20
10.55000000000001
 30
0.0
 40
1.7
 50
180.0
 51
270.0
  0
LINE
  5
A3A4
  8
0
  6
CONTINUOUS
 62
     7
 10
226.0
 20
9.3000000000000114
 30
0.0
 11
226.0
 21
7.500000000000056
 31
0.0
  0
LINE
  5
A3A5
  8
0
  6
CONTINUOUS
 62
     7
 10
224.49999999999989
 20
8.8499999999997954
 30
0.0
 11
224.99999999999989
 21
9.2999999999998977
 31
0.0
  0
ARC
  5
A3A6
  8
0
  6
CONTINUOUS
 62
     7
 10
222.39999999999981
 20
-11.44999999999999
 30
0.0
 40
1.7
 50
180.0
 51
270.0
  0
LINE
  5
A3A7
  8
0
  6
CONTINUOUS
 62
     7
 10
226.0
 20
-12.69999999999999
 30
0.0
 11
226.0
 21
-23.430749027719969
 31
0.0
  0
LINE
  5
A3A8
  8
0
  6
CONTINUOUS
 62
     7
 10
224.49999999999969
 20
-13.14999999999986
 30
0.0
 11
224.99999999999969
 21
-12.69999999999987
 31
0.0
  0
CIRCLE
  5
A3A9
  8
0
  6
CONTINUOUS
 62
     7
 10
220.0
 20
-20.0
 30
0.0
 40
4.25
  0
CIRCLE
  5
A3AA
  8
0
  6
CONTINUOUS
 62
     7
 10
220.0
 20
-20.0
 30
0.0
 40
4.5
  0
ARC
  5
A3AB
  8
0
  6
CONTINUOUS
 62
     7
 10
200.0
 20
0.0
 30
0.0
 40
35.0
 50
312.02462757937383
 51
317.97537242062498
  0
LINE
  5
A3AC
  8
0
  6
CONTINUOUS
 62
     7
 10
218.8452994616207
 20
-18.0
 30
0.0
 11
221.15470053837919
 21
-18.0
 31
0.0
  0
LINE
  5
A3AD
  8
0
  6
CONTINUOUS
 62
     7
 10
218.8452994616207
 20
-22.0
 30
0.0
 11
221.15470053837919
 21
-22.0
 31
0.0
  0
LINE
  5
A3AE
  8
0
  6
CONTINUOUS
 62
     7
 10
218.8452994616207
 20
-18.0
 30
0.0
 11
217.69059892324159
 21
-20.0
 31
0.0
  0
LINE
  5
A3AF
  8
0
  6
CONTINUOUS
 62
     7
 10
217.69059892324159
 20
-20.0
 30
0.0
 11
218.8452994616207
 21
-22.0
 31
0.0
  0
LINE
  5
A3B0
  8
0
  6
CONTINUOUS
 62
     7
 10
222.30940107675849
 20
-20.0
 30
0.0
 11
221.15470053837919
 21
-22.0
 31
0.0
  0
LINE
  5
A3B1
  8
0
  6
CONTINUOUS
 62
     7
 10
221.15470053837919
 20
-18.0
 30
0.0
 11
222.30940107675849
 21
-20.0
 31
0.0
  0
LINE
  5
A3B2
  8
0
  6
CONTINUOUS
 62
     7
 10
224.5
 20
-13.14999999999997
 30
0.0
 11
222.39999999999981
 21
-13.14999999999997
 31
0.0
  0
LINE
  5
A3B3
  8
0
  6
CONTINUOUS
 62
     7
 10
223.49999999999989
 20
-4.9999999999998863
 30
0.0
 11
223.49999999999989
 21
5.0
 31
0.0
  0
ARC
  5
A3B4
  8
0
  6
CONTINUOUS
 62
     7
 10
222.39999999999981
 20
-10.55000000000001
 30
0.0
 40
1.7
 50
90.0
 51
180.0
  0
LINE
  5
A3B5
  8
CENTER
  6
CENTER
 62
     1
 10
228.0
 20
-11.0
 30
0.0
 11
218.7000000000009
 21
-11.0
 31
0.0
  0
LINE
  5
A3B6
  8
0
  6
CONTINUOUS
 62
     7
 10
220.7000000000009
 20
-11.44999999999999
 30
0.0
 11
220.7000000000009
 21
-10.55000000000001
 31
0.0
  0
LINE
  5
A3B7
  8
0
  6
CONTINUOUS
 62
     7
 10
226.0
 20
-12.69999999999999
 30
0.0
 11
225.0
 21
-12.69999999999999
 31
0.0
  0
LINE
  5
A3B8
  8
0
  6
CONTINUOUS
 62
     7
 10
222.39999999999981
 20
-8.8500000000000227
 30
0.0
 11
224.5
 21
-8.8500000000000227
 31
0.0
  0
LINE
  5
A3B9
  8
0
  6
CONTINUOUS
 62
     7
 10
224.99999999999989
 20
-9.2999999999998977
 30
0.0
 11
224.49999999999989
 21
-8.8500000000000227
 31
0.0
  0
LINE
  5
A3BA
  8
0
  6
CONTINUOUS
 62
     7
 10
225.0
 20
-9.3000000000000114
 30
0.0
 11
226.0
 21
-9.3000000000000114
 31
0.0
  0
LINE
  5
A3BB
  8
0
  6
CONTINUOUS
 62
     7
 10
225.99999999999969
 20
-7.500000000000397
 30
0.0
 11
223.4999999999994
 21
-5.0000000000001696
 31
0.0
  0
LINE
  5
A3BC
  8
0
  6
CONTINUOUS
 62
     7
 10
226.0
 20
-7.5
 30
0.0
 11
226.0
 21
-9.3000000000000114
 31
0.0
  0
LINE
  5
A3BD
  8
0
  6
CONTINUOUS
 62
     7
 10
223.4999999999998
 20
5.0
 30
0.0
 11
225.99999999999989
 21
7.5000000000001696
 31
0.0
  0
LINE
  5
A3BE
  8
0
  6
CONTINUOUS
 62
     7
 10
224.5
 20
8.8499999999999091
 30
0.0
 11
222.39999999999981
 21
8.8499999999999091
 31
0.0
  0
LINE
  5
A3C0
  8
0
  6
DASHED
 62
     3
 10
259.0
 20
-25.0
 30
0.0
 11
250.0
 21
-16.0
 31
0.0
  0
LINE
  5
A3C1
  8
0
  6
CONTINUOUS
 62
     7
 10
250.00000000177749
 20
-27.95084971874741
 30
0.0
 11
250.00000000177749
 21
-25.0
 31
0.0
  0
LINE
  5
A3C2
  8
0
  6
DASHED
 62
     3
 10
249.99999999930401
 20
-15.00000000000006
 30
0.0
 11
249.99999999930401
 21
-16.00000000000006
 31
0.0
  0
CIRCLE
  5
A3C3
  8
0
  6
CONTINUOUS
 62
     7
 10
220.0
 20
20.00000000000006
 30
0.0
 40
4.25
  0
CIRCLE
  5
A3C4
  8
0
  6
CONTINUOUS
 62
     7
 10
220.0
 20
20.00000000000006
 30
0.0
 40
4.5
  0
LINE
  5
A3C5
  8
0
  6
CONTINUOUS
 62
     7
 10
218.8452994616207
 20
22.00000000000006
 30
0.0
 11
217.69059892324159
 21
20.00000000000006
 31
0.0
  0
LINE
  5
A3C6
  8
0
  6
CONTINUOUS
 62
     7
 10
221.15470053837919
 20
22.00000000000006
 30
0.0
 11
222.30940107675849
 21
20.00000000000006
 31
0.0
  0
LINE
  5
A3C7
  8
0
  6
CONTINUOUS
 62
     7
 10
226.0
 20
23.430749027719969
 30
0.0
 11
226.0
 21
12.700000000000101
 31
0.0
  0
ARC
  5
A3C8
  8
0
  6
CONTINUOUS
 62
     7
 10
222.39999999999981
 20
11.44999999999999
 30
0.0
 40
1.7
 50
90.0
 51
180.0
  0
LINE
  5
A3C9
  8
0
  6
CONTINUOUS
 62
     7
 10
218.8452994616207
 20
18.00000000000006
 30
0.0
 11
221.15470053837919
 21
18.00000000000006
 31
0.0
  0
LINE
  5
A3CA
  8
CENTER
  6
CENTER
 62
     1
 10
228.0
 20
11.0
 30
0.0
 11
218.7000000000009
 21
11.0
 31
0.0
  0
LINE
  5
A3CB
  8
0
  6
CONTINUOUS
 62
     7
 10
217.69059892324159
 20
20.00000000000006
 30
0.0
 11
218.8452994616207
 21
18.00000000000006
 31
0.0
  0
LINE
  5
A3CC
  8
0
  6
CONTINUOUS
 62
     7
 10
220.7000000000009
 20
10.55000000000001
 30
0.0
 11
220.7000000000009
 21
11.44999999999999
 31
0.0
  0
LINE
  5
A3CD
  8
0
  6
CONTINUOUS
 62
     7
 10
222.30940107675849
 20
20.00000000000006
 30
0.0
 11
221.15470053837919
 21
18.00000000000006
 31
0.0
  0
LINE
  5
A3CE
  8
0
  6
CONTINUOUS
 62
     7
 10
226.0
 20
9.3000000000000114
 30
0.0
 11
225.0
 21
9.3000000000000114
 31
0.0
  0
LINE
  5
A3CF
  8
0
  6
CONTINUOUS
 62
     7
 10
222.39999999999981
 20
13.14999999999997
 30
0.0
 11
224.5
 21
13.14999999999997
 31
0.0
  0
LINE
  5
A3D0
  8
0
  6
CONTINUOUS
 62
     7
 10
224.99999999999989
 20
12.69999999999999
 30
0.0
 11
224.49999999999989
 21
13.14999999999981
 31
0.0
  0
LINE
  5
A3D1
  8
0
  6
CONTINUOUS
 62
     7
 10
225.0
 20
12.700000000000101
 30
0.0
 11
226.0
 21
12.700000000000101
 31
0.0
  0
LINE
  5
A3D2
  8
0
  6
CONTINUOUS
 62
     7
 10
218.8452994616207
 20
22.00000000000006
 30
0.0
 11
221.15470053837919
 21
22.00000000000006
 31
0.0
  0
ARC
  5
A3D3
  8
0
  6
CONTINUOUS
 62
     7
 10
200.0
 20
0.0
 30
0.0
 40
35.0
 50
42.024627579375547
 51
47.975372420626748
  0
LINE
  5
A3D4
  8
0
  6
CONTINUOUS
 62
     7
 10
229.99999999930401
 20
26.99999999999989
 30
0.0
 11
229.99999999930401
 21
25.0
 31
0.0
  0
LINE
  5
A3D6
  8
0
  6
CONTINUOUS
 62
     7
 10
250.00000000177749
 20
26.99999999999989
 30
0.0
 11
250.00000000177749
 21
27.95084971874741
 31
0.0
  0
LINE
  5
A3D7
  8
0
  6
DASHED
 62
     3
 10
299.99999999999989
 20
-10.00000000000005
 30
0.0
 11
299.99999999999989
 21
13.0
 31
0.0
  0
LINE
  5
A3D8
  8
0
  6
CONTINUOUS
 62
     7
 10
300.0
 20
23.000000000000291
 30
0.0
 11
300.0
 21
-23.000000000000231
 31
0.0
  0
LINE
  5
A3DA
  8
0
  6
DASHED
 62
     3
 10
299.99999999999989
 20
-10.00000000000005
 30
0.0
 11
284.99999999999989
 21
-25.00000000000011
 31
0.0
  0
CIRCLE
  5
A3DB
  8
0
  6
CONTINUOUS
 62
     7
 10
275.0
 20
0.0
 30
0.0
 40
6.5
  0
LINE
  5
A3DC
  8
0
  6
CONTINUOUS
 62
     7
 10
273.28503284451801
 20
-2.97045513994459
 30
0.0
 11
271.5700345001448
 21
0.0000224646739184
 31
0.0
  0
LINE
  5
A3DD
  8
0
  6
CONTINUOUS
 62
     7
 10
278.43002311531768
 20
0.0000024763439228
 30
0.0
 11
276.7150135700108
 21
-2.9704685106933648
 31
0.0
  0
LINE
  5
A3DE
  8
0
  6
CONTINUOUS
 62
     7
 10
276.71499633789062
 20
-2.9704742431640621
 30
0.0
 11
273.28500366210932
 21
-2.9704742431640621
 31
0.0
  0
LINE
  5
A3DF
  8
0
  6
CONTINUOUS
 62
     7
 10
273.28500366210932
 20
2.9704742431640621
 30
0.0
 11
276.71499633789062
 21
2.9704742431640621
 31
0.0
  0
LINE
  5
A3E0
  8
0
  6
CONTINUOUS
 62
     7
 10
271.57003222097711
 20
-0.0000110342379571
 30
0.0
 11
273.28503056535038
 21
2.970466570380494
 31
0.0
  0
LINE
  5
A3E1
  8
0
  6
CONTINUOUS
 62
     7
 10
276.71501302925839
 20
2.9704796810605671
 30
0.0
 11
278.4300302039847
 21
-0.000004520462312
 31
0.0
  0
LINE
  5
A3E4
  8
0
  6
CONTINUOUS
 62
     7
 10
300.00000000000028
 20
-23.00000000000011
 30
0.0
 11
298.00000000000028
 21
-25.00000000000011
 31
0.0
  0
LINE
  5
A3E5
  8
0
  6
CONTINUOUS
 62
     7
 10
300.00000000177749
 20
-27.95084971874741
 30
0.0
 11
300.00000000177749
 21
-22.999999998222791
 31
0.0
  0
LINE
  5
A3E7
  8
0
  6
DASHED
 62
     3
 10
288.00000000000028
 20
25.00000000000006
 30
0.0
 11
300.00000000000028
 21
13.000000000000229
 31
0.0
  0
LINE
  5
A3E8
  8
0
  6
CONTINUOUS
 62
     7
 10
286.00000000000028
 20
27.00000000000006
 30
0.0
 11
288.00000000000028
 21
25.00000000000006
 31
0.0
  0
LINE
  5
A3EC
  8
0
  6
CONTINUOUS
 62
     7
 10
300.00000000177749
 20
22.999999998222961
 30
0.0
 11
300.00000000177749
 21
27.95084971874741
 31
0.0
  0
LINE
  5
A3ED
  8
0
  6
CONTINUOUS
 62
     7
 10
300.00000000000028
 20
23.000000000000171
 30
0.0
 11
298.00000000000028
 21
25.000000000000171
 31
0.0
  0
LINE
  5
A3EF
  8
0
  6
PHANTOM
 62
     3
 10
-9.4905624389648437
 20
-65.25
 30
0.0
 11
-12.509437561035149
 21
-65.25
 31
0.0
  0
LINE
  5
A3F0
  8
0
  6
PHANTOM
 62
     3
 10
-9.3000037670135498
 20
-63.5
 30
0.0
 11
-10.550002753734571
 21
-63.5
 31
0.0
  0
LINE
  5
A3F1
  8
0
  6
PHANTOM
 62
     3
 10
-9.4000012874603271
 20
-63.600006103515618
 30
0.0
 11
-10.230262458324431
 21
-63.600006103515618
 31
0.0
  0
LINE
  5
A3F2
  8
0
  6
PHANTOM
 62
     3
 10
-9.4905624389648437
 20
-65.75
 30
0.0
 11
-12.509437561035149
 21
-65.75
 31
0.0
  0
LINE
  5
A3F3
  8
0
  6
PHANTOM
 62
     3
 10
-9.4000017642974854
 20
-67.400009155273423
 30
0.0
 11
-10.23026305437088
 21
-67.400009155273423
 31
0.0
  0
LINE
  5
A3F4
  8
0
  6
PHANTOM
 62
     3
 10
-9.3000037670135498
 20
-67.600006103515625
 30
0.0
 11
-12.70000386238098
 21
-67.600006103515625
 31
0.0
  0
LINE
  5
A3F5
  8
0
  6
PHANTOM
 62
     3
 10
-9.5999984741210937
 20
-67.600006341934204
 30
0.0
 11
-9.5999984741210937
 21
-87.500003814697266
 31
0.0
  0
LINE
  5
A3F6
  8
0
  6
PHANTOM
 62
     3
 10
-12.400001525878899
 20
-67.600005865097046
 30
0.0
 11
-12.400001525878899
 21
-87.500003814697266
 31
0.0
  0
LINE
  5
A3F7
  8
0
  6
PHANTOM
 62
     3
 10
-11.769745171070079
 20
-67.400009155273423
 30
0.0
 11
-12.599998712539669
 21
-67.400009155273423
 31
0.0
  0
LINE
  5
A3F8
  8
0
  6
PHANTOM
 62
     3
 10
-11.45000427961349
 20
-63.5
 30
0.0
 11
-12.70000386238098
 21
-63.5
 31
0.0
  0
LINE
  5
A3F9
  8
0
  6
PHANTOM
 62
     3
 10
-11.769744575023649
 20
-63.600006103515618
 30
0.0
 11
-12.599998235702509
 21
-63.600006103515618
 31
0.0
  0
LINE
  5
A3FA
  8
0
  6
PHANTOM
 62
     3
 10
-10.40000331401823
 20
-77.5
 30
0.0
 11
-11.60000026226043
 21
-77.5
 31
0.0
  0
LINE
  5
A3FB
  8
0
  6
PHANTOM
 62
     3
 10
-10.400001525878899
 20
-77.5
 30
0.0
 11
-10.400001525878899
 21
-79.300003051757813
 31
0.0
  0
LINE
  5
A3FC
  8
0
  6
PHANTOM
 62
     3
 10
-10.40000361204147
 20
-79.300003051757813
 30
0.0
 11
-11.600000560283659
 21
-79.300003051757813
 31
0.0
  0
LINE
  5
A3FD
  8
0
  6
PHANTOM
 62
     3
 10
-11.59999847412109
 20
-77.5
 30
0.0
 11
-11.59999847412109
 21
-79.300003051757813
 31
0.0
  0
LINE
  5
A3FE
  8
0
  6
PHANTOM
 62
     3
 10
-9.3000037670135498
 20
-87.500003814697266
 30
0.0
 11
-12.70000386238098
 21
-87.500003814697266
 31
0.0
  0
LINE
  5
A3FF
  8
0
  6
PHANTOM
 62
     3
 10
-9.7000045776367187
 20
-87.500003814697266
 30
0.0
 11
-9.7000045776367187
 21
-92.485752105712891
 31
0.0
  0
LINE
  5
A400
  8
0
  6
PHANTOM
 62
     3
 10
-12.300003051757811
 20
-87.500003814697266
 30
0.0
 11
-12.300003051757811
 21
-92.485752105712891
 31
0.0
  0
LINE
  5
A401
  8
0
  6
PHANTOM
 62
     3
 10
-11.0
 20
-61.450000047683709
 30
0.0
 11
-11.0
 21
-94.486784928425166
 31
0.0
  0
CIRCLE
  5
A402
  8
0
  6
PHANTOM
 62
     3
 10
-11.0
 20
-65.5
 30
0.0
 40
1.5300000905990601
  0
ARC
  5
A403
  8
0
  6
PHANTOM
 62
     3
 10
-11.0
 20
-65.5
 30
0.0
 40
2.0499999523162842
 50
33.976537880222978
 51
146.02384119527559
  0
ARC
  5
A404
  8
0
  6
PHANTOM
 62
     3
 10
-9.4000012874603271
 20
-63.900009393692009
 30
0.0
 40
0.3000000119209289
 50
70.529282185883602
 51
90.000027320756686
  0
ARC
  5
A405
  8
0
  6
PHANTOM
 62
     3
 10
-9.4000017642974854
 20
-67.100006341934204
 30
0.0
 40
0.3000000119209289
 50
270.00000500895692
 51
289.47077063440003
  0
ARC
  5
A406
  8
0
  6
PHANTOM
 62
     3
 10
-12.599998712539669
 20
-67.100005865097046
 30
0.0
 40
0.3000000119209289
 50
250.52776406265349
 51
269.99996402782108
  0
ARC
  5
A407
  8
0
  6
PHANTOM
 62
     3
 10
-12.599998235702509
 20
-63.900008916854858
 30
0.0
 40
0.3000000119209289
 50
90.0
 51
109.472360474613
  0
ARC
  5
A408
  8
0
  6
PHANTOM
 62
     3
 10
-11.0
 20
-65.5
 30
0.0
 40
2.0499999523162842
 50
213.97617064386989
 51
326.0234159023147
  0
LINE
  5
A50F
  8
0
  6
PHANTOM
 62
     3
 10
9.4905624389648437
 20
-142.25
 30
0.0
 11
12.509437561035149
 21
-142.25
 31
0.0
  0
LINE
  5
A510
  8
0
  6
PHANTOM
 62
     3
 10
9.3000037670135498
 20
-144.0
 30
0.0
 11
10.550002753734571
 21
-144.0
 31
0.0
  0
LINE
  5
A511
  8
0
  6
PHANTOM
 62
     3
 10
9.4000012874603271
 20
-143.89999389648429
 30
0.0
 11
10.230262458324431
 21
-143.89999389648429
 31
0.0
  0
LINE
  5
A512
  8
0
  6
PHANTOM
 62
     3
 10
9.4905624389648437
 20
-141.7499999999998
 30
0.0
 11
12.509437561035149
 21
-141.7499999999998
 31
0.0
  0
LINE
  5
A513
  8
0
  6
PHANTOM
 62
     3
 10
9.4000017642974854
 20
-140.09999084472651
 30
0.0
 11
10.23026305437088
 21
-140.09999084472651
 31
0.0
  0
LINE
  5
A514
  8
0
  6
PHANTOM
 62
     3
 10
9.3000037670135498
 20
-139.89999389648429
 30
0.0
 11
12.70000386238098
 21
-139.89999389648429
 31
0.0
  0
LINE
  5
A515
  8
0
  6
PHANTOM
 62
     3
 10
9.5999984741210937
 20
-139.8999936580658
 30
0.0
 11
9.5999984741210937
 21
-119.99999618530271
 31
0.0
  0
LINE
  5
A516
  8
0
  6
PHANTOM
 62
     3
 10
12.400001525878899
 20
-139.8999941349029
 30
0.0
 11
12.400001525878899
 21
-119.99999618530271
 31
0.0
  0
LINE
  5
A517
  8
0
  6
PHANTOM
 62
     3
 10
11.769745171070079
 20
-140.09999084472651
 30
0.0
 11
12.599998712539669
 21
-140.09999084472651
 31
0.0
  0
LINE
  5
A518
  8
0
  6
PHANTOM
 62
     3
 10
11.45000427961349
 20
-144.0
 30
0.0
 11
12.700003862380971
 21
-144.0
 31
0.0
  0
LINE
  5
A519
  8
0
  6
PHANTOM
 62
     3
 10
11.769744575023649
 20
-143.89999389648429
 30
0.0
 11
12.599998235702509
 21
-143.89999389648429
 31
0.0
  0
LINE
  5
A51A
  8
0
  6
PHANTOM
 62
     3
 10
10.40000331401825
 20
-130.0
 30
0.0
 11
11.60000026226043
 21
-130.0
 31
0.0
  0
LINE
  5
A51B
  8
0
  6
PHANTOM
 62
     3
 10
10.400001525878899
 20
-130.0
 30
0.0
 11
10.400001525878899
 21
-128.19999694824219
 31
0.0
  0
LINE
  5
A51C
  8
0
  6
PHANTOM
 62
     3
 10
10.40000361204147
 20
-128.19999694824219
 30
0.0
 11
11.600000560283659
 21
-128.19999694824219
 31
0.0
  0
LINE
  5
A51D
  8
0
  6
PHANTOM
 62
     3
 10
11.59999847412109
 20
-130.0
 30
0.0
 11
11.59999847412109
 21
-128.19999694824219
 31
0.0
  0
LINE
  5
A51E
  8
0
  6
PHANTOM
 62
     3
 10
9.3000037670135498
 20
-119.99999618530271
 30
0.0
 11
12.70000386238098
 21
-119.99999618530271
 31
0.0
  0
LINE
  5
A51F
  8
0
  6
PHANTOM
 62
     3
 10
9.7000045776367187
 20
-119.99999618530271
 30
0.0
 11
9.7000045776367187
 21
-115.0142478942871
 31
0.0
  0
LINE
  5
A520
  8
0
  6
PHANTOM
 62
     3
 10
12.300003051757811
 20
-119.99999618530271
 30
0.0
 11
12.300003051757811
 21
-115.01425249782019
 31
0.0
  0
LINE
  5
A521
  8
0
  6
PHANTOM
 62
     3
 10
11.0
 20
-146.0499999523162
 30
0.0
 11
11.0
 21
-113.01321507157481
 31
0.0
  0
CIRCLE
  5
A522
  8
0
  6
PHANTOM
 62
     3
 10
11.0
 20
-142.0
 30
0.0
 40
1.5300000905990601
  0
ARC
  5
A523
  8
0
  6
PHANTOM
 62
     3
 10
11.0
 20
-142.0
 30
0.0
 40
2.0499999523162842
 50
213.97653788022299
 51
326.02384119527562
  0
ARC
  5
A524
  8
0
  6
PHANTOM
 62
     3
 10
9.4000012874603271
 20
-143.5999906063079
 30
0.0
 40
0.3000000119209289
 50
250.52928218588281
 51
270.0000273207566
  0
ARC
  5
A525
  8
0
  6
PHANTOM
 62
     3
 10
9.4000017642974854
 20
-140.39999365806571
 30
0.0
 40
0.3000000119209289
 50
90.000005008956947
 51
109.4707706344
  0
ARC
  5
A526
  8
0
  6
PHANTOM
 62
     3
 10
12.599998712539669
 20
-140.3999941349029
 30
0.0
 40
0.3000000119209289
 50
70.527764062653532
 51
89.999964027821107
  0
ARC
  5
A527
  8
0
  6
PHANTOM
 62
     3
 10
12.599998235702509
 20
-143.59999108314511
 30
0.0
 40
0.3000000119209289
 50
270.0
 51
289.47236047461291
  0
ARC
  5
A528
  8
0
  6
PHANTOM
 62
     3
 10
11.0
 20
-142.0
 30
0.0
 40
2.0499999523162842
 50
33.976170643869928
 51
146.0234159023147
  0
LINE
  5
A62F
  8
0
  6
PHANTOM
 62
     3
 10
177.29999999999899
 20
15.0
 30
0.0
 11
177.29999999999899
 21
7.0
 31
0.0
  0
LINE
  5
A630
  8
0
  6
PHANTOM
 62
     3
 10
174.29999799999899
 20
12.39999299999999
 30
0.0
 11
174.29999799999899
 21
9.5999949999999785
 31
0.0
  0
LINE
  5
A631
  8
0
  6
PHANTOM
 62
     3
 10
174.29999799999899
 20
9.5999949999999785
 30
0.0
 11
174.39999899999901
 21
9.5999949999999785
 31
0.0
  0
LINE
  5
A632
  8
0
  6
PHANTOM
 62
     3
 10
174.29999799999899
 20
12.39999299999999
 30
0.0
 11
174.39999899999901
 21
12.39999299999999
 31
0.0
  0
LINE
  5
A633
  8
0
  6
PHANTOM
 62
     3
 10
174.39999899999901
 20
12.529997999999971
 30
0.0
 11
174.39999899999901
 21
11.25
 31
0.0
  0
LINE
  5
A634
  8
0
  6
PHANTOM
 62
     3
 10
176.29999799999899
 20
13.04999799999996
 30
0.0
 11
176.29999799999899
 21
12.732049652866801
 31
0.0
  0
LINE
  5
A635
  8
0
  6
PHANTOM
 62
     3
 10
174.89999899999901
 20
12.529997999999971
 30
0.0
 11
174.89999899999901
 21
9.4700010000000248
 31
0.0
  0
LINE
  5
A636
  8
0
  6
PHANTOM
 62
     3
 10
174.39999899999901
 20
9.4700010000000248
 30
0.0
 11
174.89999899999901
 21
9.4700010000000248
 31
0.0
  0
LINE
  5
A637
  8
0
  6
PHANTOM
 62
     3
 10
174.39999899999901
 20
12.529997999999971
 30
0.0
 11
174.89999899999901
 21
12.529997999999971
 31
0.0
  0
LINE
  5
A638
  8
0
  6
PHANTOM
 62
     3
 10
175.419998999999
 20
13.04999399999997
 30
0.0
 11
174.89999999999901
 21
12.52999499999993
 31
0.0
  0
LINE
  5
A639
  8
0
  6
PHANTOM
 62
     3
 10
174.89999999999901
 20
9.4699949999999831
 30
0.0
 11
175.41999399999901
 21
8.9500009999999861
 31
0.0
  0
LINE
  5
A63A
  8
0
  6
PHANTOM
 62
     3
 10
174.39999899999901
 20
11.25
 30
0.0
 11
174.89999899999901
 21
11.25
 31
0.0
  0
LINE
  5
A63B
  8
0
  6
PHANTOM
 62
     3
 10
174.39999899999901
 20
10.75
 30
0.0
 11
174.89999899999901
 21
10.75
 31
0.0
  0
LINE
  5
A63C
  8
0
  6
PHANTOM
 62
     3
 10
174.39999899999901
 20
10.75
 30
0.0
 11
174.39999899999901
 21
9.4700010000000248
 31
0.0
  0
LINE
  5
A63D
  8
0
  6
PHANTOM
 62
     3
 10
175.419997999999
 20
13.04999799999996
 30
0.0
 11
176.29999799999899
 21
13.04999799999996
 31
0.0
  0
LINE
  5
A63E
  8
0
  6
PHANTOM
 62
     3
 10
175.419997999999
 20
8.9499910000000114
 30
0.0
 11
176.29999799999899
 21
8.9499910000000114
 31
0.0
  0
LINE
  5
A63F
  8
0
  6
PHANTOM
 62
     3
 10
175.419997999999
 20
13.04999799999996
 30
0.0
 11
175.419997999999
 21
11.682343373966489
 31
0.0
  0
LINE
  5
A640
  8
0
  6
PHANTOM
 62
     3
 10
175.419997999999
 20
10.317656626033511
 30
0.0
 11
175.419997999999
 21
8.9499910000000114
 31
0.0
  0
LINE
  5
A641
  8
0
  6
PHANTOM
 62
     3
 10
176.29999799999899
 20
9.2679503471331941
 30
0.0
 11
176.29999799999899
 21
8.9499910000000114
 31
0.0
  0
CIRCLE
  5
A642
  8
0
  6
PHANTOM
 62
     3
 10
177.29999999999899
 20
11.0
 30
0.0
 40
2.0
  0
LINE
  5
A643
  8
0
  6
PHANTOM
 62
     3
 10
177.29999999999899
 20
-9.0
 30
0.0
 11
177.29999999999899
 21
-13.0
 31
0.0
  0
LINE
  5
A644
  8
0
  6
PHANTOM
 62
     3
 10
174.29999799999899
 20
-9.6000070000000051
 30
0.0
 11
174.29999799999899
 21
-12.40000500000002
 31
0.0
  0
LINE
  5
A645
  8
0
  6
PHANTOM
 62
     3
 10
177.599997999999
 20
-9.0226339999999823
 30
0.0
 11
177.599997999999
 21
-12.97737699999999
 31
0.0
  0
LINE
  5
A646
  8
0
  6
PHANTOM
 62
     3
 10
176.79999999999899
 20
-9.1000070000000051
 30
0.0
 11
176.79999999999899
 21
-12.90000500000002
 31
0.0
  0
LINE
  5
A647
  8
0
  6
PHANTOM
 62
     3
 10
174.29999799999899
 20
-12.40000500000002
 30
0.0
 11
174.39999899999901
 21
-12.40000500000002
 31
0.0
  0
LINE
  5
A648
  8
0
  6
PHANTOM
 62
     3
 10
174.29999799999899
 20
-9.6000070000000051
 30
0.0
 11
174.39999899999901
 21
-9.6000070000000051
 31
0.0
  0
LINE
  5
A649
  8
0
  6
PHANTOM
 62
     3
 10
174.39999899999901
 20
-9.4700020000000222
 30
0.0
 11
174.39999899999901
 21
-10.75
 31
0.0
  0
LINE
  5
A64A
  8
0
  6
PHANTOM
 62
     3
 10
176.29999799999899
 20
-8.9500020000000404
 30
0.0
 11
176.29999799999899
 21
-13.05000899999999
 31
0.0
  0
LINE
  5
A64B
  8
0
  6
PHANTOM
 62
     3
 10
174.89999899999901
 20
-9.4700020000000222
 30
0.0
 11
174.89999899999901
 21
-12.52999899999997
 31
0.0
  0
LINE
  5
A64C
  8
0
  6
PHANTOM
 62
     3
 10
174.39999899999901
 20
-12.52999899999997
 30
0.0
 11
174.89999899999901
 21
-12.52999899999997
 31
0.0
  0
LINE
  5
A64D
  8
0
  6
PHANTOM
 62
     3
 10
174.39999899999901
 20
-9.4700020000000222
 30
0.0
 11
174.89999899999901
 21
-9.4700020000000222
 31
0.0
  0
LINE
  5
A64E
  8
0
  6
PHANTOM
 62
     3
 10
175.419998999999
 20
-8.9500060000000303
 30
0.0
 11
174.89999999999901
 21
-9.4700050000000715
 31
0.0
  0
LINE
  5
A64F
  8
0
  6
PHANTOM
 62
     3
 10
174.89999999999901
 20
-12.53000500000001
 30
0.0
 11
175.41999399999901
 21
-13.04999900000001
 31
0.0
  0
LINE
  5
A650
  8
0
  6
PHANTOM
 62
     3
 10
174.39999899999901
 20
-10.75
 30
0.0
 11
174.89999899999901
 21
-10.75
 31
0.0
  0
LINE
  5
A651
  8
0
  6
PHANTOM
 62
     3
 10
174.39999899999901
 20
-11.25
 30
0.0
 11
174.89999899999901
 21
-11.25
 31
0.0
  0
LINE
  5
A652
  8
0
  6
PHANTOM
 62
     3
 10
174.39999899999901
 20
-11.25
 30
0.0
 11
174.39999899999901
 21
-12.52999899999997
 31
0.0
  0
LINE
  5
A653
  8
0
  6
PHANTOM
 62
     3
 10
176.29999799999899
 20
-11.75
 30
0.0
 11
176.79999999999899
 21
-11.75
 31
0.0
  0
LINE
  5
A654
  8
0
  6
PHANTOM
 62
     3
 10
176.29999799999899
 20
-10.25
 30
0.0
 11
176.79999999999899
 21
-10.25
 31
0.0
  0
LINE
  5
A655
  8
0
  6
PHANTOM
 62
     3
 10
175.419997999999
 20
-8.9500020000000404
 30
0.0
 11
176.29999799999899
 21
-8.9500020000000404
 31
0.0
  0
LINE
  5
A656
  8
0
  6
PHANTOM
 62
     3
 10
175.419997999999
 20
-13.05000899999999
 30
0.0
 11
176.29999799999899
 21
-13.05000899999999
 31
0.0
  0
LINE
  5
A657
  8
0
  6
PHANTOM
 62
     3
 10
175.419997999999
 20
-8.9500020000000404
 30
0.0
 11
175.419997999999
 21
-13.05000899999999
 31
0.0
  0
LINE
  5
A658
  8
0
  6
PHANTOM
 62
     3
 10
176.79999999999899
 20
-12.90000500000002
 30
0.0
 11
177.599997999999
 21
-12.90000500000002
 31
0.0
  0
LINE
  5
A659
  8
0
  6
PHANTOM
 62
     3
 10
176.79999999999899
 20
-9.1000070000000051
 30
0.0
 11
177.599997999999
 21
-9.1000070000000051
 31
0.0
  0
ARC
  5
A65A
  8
0
  6
PHANTOM
 62
     3
 10
177.29999999999899
 20
-11.0
 30
0.0
 40
2.0
 50
239.99993384050919
 51
120.0000661594908
  0
CIRCLE
  5
A65F
  8
0
  6
CONTINUOUS
 62
     3
 10
-240.0
 20
0.0
 30
0.0
 40
3.0
  0
CIRCLE
  5
A660
  8
0
  6
CONTINUOUS
 62
     7
 10
-240.0
 20
0.0
 30
0.0
 40
2.458499999999999
  0
CIRCLE
  5
A661
  8
0
  6
CONTINUOUS
 62
     7
 10
-160.0
 20
0.0
 30
0.0
 40
2.458499999999999
  0
CIRCLE
  5
A662
  8
0
  6
CONTINUOUS
 62
     3
 10
-160.0
 20
0.0
 30
0.0
 40
3.0
  0
CIRCLE
  5
A663
  8
0
  6
CONTINUOUS
 62
     7
 10
200.0
 20
-139.0
 30
0.0
 40
4.2830000000000004
  0
CIRCLE
  5
A664
  8
0
  6
CONTINUOUS
 62
     7
 10
-275.0
 20
0.0
 30
0.0
 40
12.5
  0
CIRCLE
  5
A665
  8
0
  6
CONTINUOUS
 62
     7
 10
-125.0
 20
0.0
 30
0.0
 40
12.5
  0
CIRCLE
  5
A666
  8
0
  6
CONTINUOUS
 62
     7
 10
-229.9999999993039
 20
-247.0
 30
0.0
 40
2.458499999999999
  0
CIRCLE
  5
A667
  8
0
  6
CONTINUOUS
 62
     3
 10
-229.9999999993039
 20
-247.0
 30
0.0
 40
3.0
  0
LINE
  5
A668
  8
0
  6
DASHED
 62
     3
 10
-3.0
 20
-245.0000000000002
 30
0.0
 11
-3.0
 21
-257.00000000000028
 31
0.0
  0
LINE
  5
A669
  8
0
  6
DASHED
 62
     3
 10
-2.4584999999999861
 20
-242.0
 30
0.0
 11
-2.4584999999999861
 21
-257.00000000000028
 31
0.0
  0
LINE
  5
A66A
  8
0
  6
DASHED
 62
     3
 10
3.0
 20
-245.0000000000002
 30
0.0
 11
3.0
 21
-257.00000000000028
 31
0.0
  0
LINE
  5
A66B
  8
0
  6
DASHED
 62
     3
 10
2.4584999999999582
 20
-241.99999999999989
 30
0.0
 11
2.4584999999999582
 21
-257.00000000000028
 31
0.0
  0
LINE
  5
A66C
  8
0
  6
DASHED
 62
     3
 10
157.00000000069599
 20
-245.0
 30
0.0
 11
157.00000000069599
 21
-257.0
 31
0.0
  0
LINE
  5
A66D
  8
0
  6
DASHED
 62
     3
 10
157.541500000696
 20
-245.0
 30
0.0
 11
157.541500000696
 21
-257.0
 31
0.0
  0
LINE
  5
A66E
  8
0
  6
DASHED
 62
     3
 10
163.00000000069591
 20
-245.0
 30
0.0
 11
163.00000000069591
 21
-257.0
 31
0.0
  0
LINE
  5
A66F
  8
0
  6
DASHED
 62
     3
 10
162.45850000069581
 20
-245.0
 30
0.0
 11
162.45850000069581
 21
-257.0
 31
0.0
  0
LINE
  5
A670
  8
0
  6
DASHED
 62
     3
 10
-31.999999999999929
 20
-224.54150000000021
 30
0.0
 11
-16.999999999999911
 21
-224.5415000000003
 31
0.0
  0
LINE
  5
A671
  8
0
  6
DASHED
 62
     3
 10
-31.999999999999929
 20
-229.45850000000021
 30
0.0
 11
-16.999999999999911
 21
-229.4585000000003
 31
0.0
  0
LINE
  5
A672
  8
0
  6
DASHED
 62
     3
 10
-31.999999999999918
 20
-224.0000000000002
 30
0.0
 11
-19.999999999999911
 21
-224.00000000000031
 31
0.0
  0
LINE
  5
A673
  8
0
  6
DASHED
 62
     3
 10
-31.999999999999918
 20
-230.0000000000002
 30
0.0
 11
-19.999999999999911
 21
-230.0000000000002
 31
0.0
  0
LINE
  5
A674
  8
0
  6
DASHED
 62
     3
 10
6.0000000000000853
 20
-230.0000000000002
 30
0.0
 11
18.000000000000082
 21
-230.0000000000002
 31
0.0
  0
LINE
  5
A675
  8
0
  6
DASHED
 62
     3
 10
3.0000000000000848
 20
-229.45850000000021
 30
0.0
 11
18.000000000000082
 21
-229.45850000000021
 31
0.0
  0
LINE
  5
A676
  8
0
  6
DASHED
 62
     3
 10
6.0000000000000853
 20
-224.0000000000002
 30
0.0
 11
18.000000000000082
 21
-224.0000000000002
 31
0.0
  0
LINE
  5
A677
  8
0
  6
DASHED
 62
     3
 10
3.0000000000000848
 20
-224.54150000000021
 30
0.0
 11
18.000000000000082
 21
-224.54150000000021
 31
0.0
  0
LINE
  5
A678
  8
0
  6
DASHED
 62
     3
 10
6.0000000000000853
 20
-250.00000000000031
 30
0.0
 11
18.000000000000082
 21
-250.00000000000031
 31
0.0
  0
LINE
  5
A679
  8
0
  6
DASHED
 62
     3
 10
3.0000000000000711
 20
-249.45850000000021
 30
0.0
 11
18.000000000000082
 21
-249.45850000000021
 31
0.0
  0
LINE
  5
A67A
  8
0
  6
DASHED
 62
     3
 10
6.0000000000000853
 20
-244.00000000000031
 30
0.0
 11
18.000000000000082
 21
-244.00000000000031
 31
0.0
  0
LINE
  5
A67B
  8
0
  6
DASHED
 62
     3
 10
3.000000000000056
 20
-244.5415000000003
 30
0.0
 11
18.000000000000082
 21
-244.54150000000021
 31
0.0
  0
CIRCLE
  5
A692
  8
0
  6
CONTINUOUS
 62
     3
 10
200.0
 20
-68.5
 30
0.0
 40
4.8639999999999981
  0
CIRCLE
  5
A693
  8
0
  6
CONTINUOUS
 62
     7
 10
200.0
 20
-68.5
 30
0.0
 40
4.2830000000000004
  0
LINE
  5
A694
  8
0
  6
DASHED
 62
     3
 10
-2.4584999999999582
 20
-242.0
 30
0.0
 11
-0.0000000000000853
 21
-240.5805843631974
 31
0.0
  0
LINE
  5
A695
  8
0
  6
DASHED
 62
     3
 10
-2.458500000000043
 20
-242.0
 30
0.0
 11
2.4584999999999289
 21
-242.0
 31
0.0
  0
LINE
  5
A696
  8
0
  6
DASHED
 62
     3
 10
-2.9999999999999711
 20
-245.0
 30
0.0
 11
3.000000000000028
 21
-245.0
 31
0.0
  0
LINE
  5
A697
  8
0
  6
DASHED
 62
     3
 10
-2.9999999999999711
 20
-245.0
 30
0.0
 11
-2.4584999999999289
 21
-244.0620944877013
 31
0.0
  0
LINE
  5
A698
  8
0
  6
DASHED
 62
     3
 10
2.4584999999999009
 20
-242.0
 30
0.0
 11
-0.0000000000000568
 21
-240.58058436319729
 31
0.0
  0
LINE
  5
A699
  8
0
  6
DASHED
 62
     3
 10
3.0
 20
-244.99999999999989
 30
0.0
 11
2.4584999999999009
 21
-244.0620944877013
 31
0.0
  0
LINE
  5
A69A
  8
0
  6
DASHED
 62
     3
 10
-19.999999999999911
 20
-224.00000000000031
 30
0.0
 11
-19.999999999999911
 21
-230.0000000000002
 31
0.0
  0
LINE
  5
A69B
  8
0
  6
DASHED
 62
     3
 10
-16.999999999999911
 20
-224.5415000000003
 30
0.0
 11
-16.999999999999911
 21
-229.4585000000003
 31
0.0
  0
LINE
  5
A69C
  8
0
  6
DASHED
 62
     3
 10
-16.999999999999911
 20
-224.5415000000003
 30
0.0
 11
-15.58058436319722
 21
-227.00000000000031
 31
0.0
  0
LINE
  5
A69D
  8
0
  6
DASHED
 62
     3
 10
-16.999999999999911
 20
-229.4585000000003
 30
0.0
 11
-15.5805843631972
 21
-227.00000000000031
 31
0.0
  0
LINE
  5
A69E
  8
0
  6
DASHED
 62
     3
 10
-19.999999999999911
 20
-224.00000000000031
 30
0.0
 11
-19.062094487701469
 21
-224.5415000000003
 31
0.0
  0
LINE
  5
A69F
  8
0
  6
DASHED
 62
     3
 10
-19.999999999999911
 20
-230.0000000000002
 30
0.0
 11
-19.06209448770144
 21
-229.4585000000003
 31
0.0
  0
LINE
  5
A6A0
  8
0
  6
DASHED
 62
     3
 10
-19.999999999999911
 20
-244.00000000000031
 30
0.0
 11
-19.999999999999911
 21
-250.00000000000031
 31
0.0
  0
LINE
  5
A6A1
  8
0
  6
DASHED
 62
     3
 10
-19.999999999999911
 20
-250.00000000000031
 30
0.0
 11
-19.06209448770144
 21
-249.45850000000021
 31
0.0
  0
LINE
  5
A6A2
  8
0
  6
DASHED
 62
     3
 10
-19.999999999999911
 20
-244.00000000000031
 30
0.0
 11
-19.062094487701469
 21
-244.5415000000003
 31
0.0
  0
LINE
  5
A6A3
  8
0
  6
DASHED
 62
     3
 10
-16.999999999999911
 20
-249.45850000000021
 30
0.0
 11
-15.5805843631972
 21
-247.00000000000031
 31
0.0
  0
LINE
  5
A6A4
  8
0
  6
DASHED
 62
     3
 10
-16.999999999999911
 20
-244.5415000000003
 30
0.0
 11
-16.999999999999911
 21
-249.45850000000021
 31
0.0
  0
LINE
  5
A6A5
  8
0
  6
DASHED
 62
     3
 10
-16.999999999999911
 20
-244.5415000000003
 30
0.0
 11
-15.58058436319722
 21
-247.00000000000031
 31
0.0
  0
LINE
  5
A6A6
  8
0
  6
DASHED
 62
     3
 10
6.0000000000000853
 20
-244.00000000000031
 30
0.0
 11
5.062094487701656
 21
-244.54150000000021
 31
0.0
  0
LINE
  5
A6A7
  8
0
  6
DASHED
 62
     3
 10
6.0000000000000853
 20
-250.0000000000002
 30
0.0
 11
5.0620944877016143
 21
-249.45850000000021
 31
0.0
  0
LINE
  5
A6A8
  8
0
  6
DASHED
 62
     3
 10
6.0000000000000853
 20
-244.00000000000031
 30
0.0
 11
6.0000000000000711
 21
-250.0000000000002
 31
0.0
  0
LINE
  5
A6A9
  8
0
  6
DASHED
 62
     3
 10
3.0000000000000848
 20
-244.54150000000021
 30
0.0
 11
1.5805843631973879
 21
-247.0000000000002
 31
0.0
  0
LINE
  5
A6AA
  8
0
  6
DASHED
 62
     3
 10
3.0000000000000848
 20
-244.54150000000021
 30
0.0
 11
3.0000000000000848
 21
-249.45850000000021
 31
0.0
  0
LINE
  5
A6AB
  8
0
  6
DASHED
 62
     3
 10
3.0000000000000848
 20
-249.45850000000021
 30
0.0
 11
1.5805843631973739
 21
-247.0000000000002
 31
0.0
  0
LINE
  5
A6AC
  8
0
  6
DASHED
 62
     3
 10
6.0000000000000853
 20
-224.0000000000002
 30
0.0
 11
6.0000000000000853
 21
-230.0000000000002
 31
0.0
  0
LINE
  5
A6AD
  8
0
  6
DASHED
 62
     3
 10
6.0000000000000853
 20
-230.0000000000002
 30
0.0
 11
5.0620944877016276
 21
-229.45850000000021
 31
0.0
  0
LINE
  5
A6AE
  8
0
  6
DASHED
 62
     3
 10
6.0000000000000853
 20
-224.0000000000002
 30
0.0
 11
5.062094487701656
 21
-224.54150000000021
 31
0.0
  0
LINE
  5
A6AF
  8
0
  6
DASHED
 62
     3
 10
3.0000000000000848
 20
-229.45850000000021
 30
0.0
 11
1.5805843631973739
 21
-227.0000000000002
 31
0.0
  0
LINE
  5
A6B0
  8
0
  6
DASHED
 62
     3
 10
3.0000000000000848
 20
-224.54150000000021
 30
0.0
 11
3.0000000000000848
 21
-229.45850000000021
 31
0.0
  0
LINE
  5
A6B1
  8
0
  6
DASHED
 62
     3
 10
3.0000000000000848
 20
-224.54150000000021
 30
0.0
 11
1.5805843631973879
 21
-227.0000000000002
 31
0.0
  0
LINE
  5
A6B2
  8
0
  6
DASHED
 62
     3
 10
-227.5415000000001
 20
-11.999999999999879
 30
0.0
 11
-227.5415000000001
 21
-26.99999999999989
 31
0.0
  0
LINE
  5
A6B3
  8
0
  6
DASHED
 62
     3
 10
-232.4584999999999
 20
-11.999999999999879
 30
0.0
 11
-232.4584999999999
 21
-26.99999999999989
 31
0.0
  0
LINE
  5
A6B4
  8
0
  6
DASHED
 62
     3
 10
-233.0
 20
-14.999999999999879
 30
0.0
 11
-233.0
 21
-26.99999999999989
 31
0.0
  0
LINE
  5
A6B5
  8
0
  6
DASHED
 62
     3
 10
-227.0
 20
-14.999999999999829
 30
0.0
 11
-227.0
 21
-26.99999999999989
 31
0.0
  0
LINE
  5
A6B6
  8
0
  6
DASHED
 62
     3
 10
-232.4584999999999
 20
-11.999999999999879
 30
0.0
 11
-230.00000000000011
 21
-10.580584363197261
 31
0.0
  0
LINE
  5
A6B7
  8
0
  6
DASHED
 62
     3
 10
-232.4584999999999
 20
-11.999999999999879
 30
0.0
 11
-227.5415000000001
 21
-11.999999999999879
 31
0.0
  0
LINE
  5
A6B8
  8
0
  6
DASHED
 62
     3
 10
-233.0
 20
-14.999999999999879
 30
0.0
 11
-227.0
 21
-14.999999999999879
 31
0.0
  0
LINE
  5
A6B9
  8
0
  6
DASHED
 62
     3
 10
-233.0
 20
-14.999999999999879
 30
0.0
 11
-232.4584999999999
 21
-14.062094487701239
 31
0.0
  0
LINE
  5
A6BA
  8
0
  6
DASHED
 62
     3
 10
-227.5415000000001
 20
-11.999999999999879
 30
0.0
 11
-230.0
 21
-10.580584363197261
 31
0.0
  0
LINE
  5
A6BB
  8
0
  6
DASHED
 62
     3
 10
-227.0
 20
-14.999999999999829
 30
0.0
 11
-227.5415000000001
 21
-14.062094487701239
 31
0.0
  0
LINE
  5
A6BC
  8
0
  6
DASHED
 62
     3
 10
-167.0
 20
-14.999999999999879
 30
0.0
 11
-167.0
 21
-26.99999999999994
 31
0.0
  0
LINE
  5
A6BD
  8
0
  6
DASHED
 62
     3
 10
-173.0
 20
-14.99999999999994
 30
0.0
 11
-173.0
 21
-26.99999999999994
 31
0.0
  0
LINE
  5
A6BE
  8
0
  6
DASHED
 62
     3
 10
-172.45849999999999
 20
-11.99999999999994
 30
0.0
 11
-172.45849999999999
 21
-26.99999999999994
 31
0.0
  0
LINE
  5
A6BF
  8
0
  6
DASHED
 62
     3
 10
-167.5415000000001
 20
-11.99999999999994
 30
0.0
 11
-167.54150000000001
 21
-26.99999999999994
 31
0.0
  0
LINE
  5
A6C0
  8
0
  6
DASHED
 62
     3
 10
-173.0
 20
-14.99999999999994
 30
0.0
 11
-167.0
 21
-14.99999999999994
 31
0.0
  0
LINE
  5
A6C1
  8
0
  6
DASHED
 62
     3
 10
-172.45849999999999
 20
-11.99999999999994
 30
0.0
 11
-167.5415000000001
 21
-11.99999999999994
 31
0.0
  0
LINE
  5
A6C2
  8
0
  6
DASHED
 62
     3
 10
-172.45849999999999
 20
-11.99999999999994
 30
0.0
 11
-170.00000000000011
 21
-10.580584363197319
 31
0.0
  0
LINE
  5
A6C3
  8
0
  6
DASHED
 62
     3
 10
-173.0
 20
-14.99999999999994
 30
0.0
 11
-172.4584999999999
 21
-14.0620944877013
 31
0.0
  0
LINE
  5
A6C4
  8
0
  6
DASHED
 62
     3
 10
-167.0
 20
-14.999999999999879
 30
0.0
 11
-167.5415000000001
 21
-14.0620944877013
 31
0.0
  0
LINE
  5
A6C5
  8
0
  6
DASHED
 62
     3
 10
-167.5415000000001
 20
-11.99999999999994
 30
0.0
 11
-170.00000000000011
 21
-10.580584363197319
 31
0.0
  0
LINE
  5
A6C6
  8
0
  6
DASHED
 62
     3
 10
-227.0
 20
3.000000000000056
 30
0.0
 11
-227.0
 21
15.00000000000006
 31
0.0
  0
LINE
  5
A6C7
  8
0
  6
DASHED
 62
     3
 10
-233.0
 20
3.000000000000056
 30
0.0
 11
-233.0
 21
15.00000000000006
 31
0.0
  0
LINE
  5
A6C8
  8
0
  6
DASHED
 62
     3
 10
-232.4584999999999
 20
0.0000000000000568
 30
0.0
 11
-232.4584999999999
 21
15.00000000000006
 31
0.0
  0
LINE
  5
A6C9
  8
0
  6
DASHED
 62
     3
 10
-227.5415000000001
 20
0.0000000000000568
 30
0.0
 11
-227.5415000000001
 21
15.00000000000006
 31
0.0
  0
LINE
  5
A6CA
  8
0
  6
DASHED
 62
     3
 10
-233.0
 20
3.000000000000056
 30
0.0
 11
-227.0
 21
3.000000000000056
 31
0.0
  0
LINE
  5
A6CB
  8
0
  6
DASHED
 62
     3
 10
-232.4584999999999
 20
0.0000000000000568
 30
0.0
 11
-227.5415000000001
 21
0.0000000000001137
 31
0.0
  0
LINE
  5
A6CC
  8
0
  6
DASHED
 62
     3
 10
-232.4584999999999
 20
0.0000000000000568
 30
0.0
 11
-230.00000000000011
 21
-1.419415636802511
 31
0.0
  0
LINE
  5
A6CD
  8
0
  6
DASHED
 62
     3
 10
-233.0
 20
3.000000000000056
 30
0.0
 11
-232.4584999999999
 21
2.0620944877014149
 31
0.0
  0
LINE
  5
A6CE
  8
0
  6
DASHED
 62
     3
 10
-227.0
 20
3.000000000000056
 30
0.0
 11
-227.5415000000001
 21
2.0620944877014722
 31
0.0
  0
LINE
  5
A6CF
  8
0
  6
DASHED
 62
     3
 10
-227.5415000000001
 20
0.0000000000000568
 30
0.0
 11
-230.0
 21
-1.4194156368025681
 31
0.0
  0
LINE
  5
A6D0
  8
0
  6
DASHED
 62
     3
 10
-167.5415000000001
 20
0.0000000000001137
 30
0.0
 11
-167.54150000000001
 21
15.00000000000011
 31
0.0
  0
LINE
  5
A6D1
  8
0
  6
DASHED
 62
     3
 10
-172.45849999999999
 20
0.0000000000001137
 30
0.0
 11
-172.45849999999999
 21
15.00000000000011
 31
0.0
  0
LINE
  5
A6D2
  8
0
  6
DASHED
 62
     3
 10
-173.0
 20
3.0000000000001128
 30
0.0
 11
-173.0
 21
15.00000000000011
 31
0.0
  0
LINE
  5
A6D3
  8
0
  6
DASHED
 62
     3
 10
-167.0
 20
3.000000000000056
 30
0.0
 11
-167.0
 21
15.00000000000011
 31
0.0
  0
LINE
  5
A6D4
  8
0
  6
DASHED
 62
     3
 10
-172.45849999999999
 20
0.0000000000001137
 30
0.0
 11
-170.00000000000011
 21
-1.419415636802511
 31
0.0
  0
LINE
  5
A6D5
  8
0
  6
DASHED
 62
     3
 10
-172.45849999999999
 20
0.0000000000001137
 30
0.0
 11
-167.5415000000001
 21
0.0000000000001137
 31
0.0
  0
LINE
  5
A6D6
  8
0
  6
DASHED
 62
     3
 10
-173.0
 20
3.0000000000001128
 30
0.0
 11
-167.0
 21
3.0000000000001128
 31
0.0
  0
LINE
  5
A6D7
  8
0
  6
DASHED
 62
     3
 10
-173.0
 20
3.0000000000001128
 30
0.0
 11
-172.4584999999999
 21
2.0620944877014722
 31
0.0
  0
LINE
  5
A6D8
  8
0
  6
DASHED
 62
     3
 10
-167.5415000000001
 20
0.0000000000001137
 30
0.0
 11
-170.00000000000011
 21
-1.419415636802511
 31
0.0
  0
LINE
  5
A6D9
  8
0
  6
DASHED
 62
     3
 10
-167.0
 20
3.000000000000056
 30
0.0
 11
-167.5415000000001
 21
2.0620944877014722
 31
0.0
  0
LINE
  5
A6E4
  8
CENTER
  6
CENTER
 62
     1
 10
-230.0
 20
-8.5805843631973175
 30
0.0
 11
-230.0
 21
-28.99999999999989
 31
0.0
  0
LINE
  5
A6E5
  8
CENTER
  6
CENTER
 62
     1
 10
-170.0
 20
-8.5805843631973744
 30
0.0
 11
-170.0
 21
-28.99999999999989
 31
0.0
  0
LINE
  5
A6E6
  8
CENTER
  6
CENTER
 62
     1
 10
24.0
 20
22.5
 30
0.0
 11
11.0
 21
22.5
 31
0.0
  0
LINE
  5
A6E7
  8
CENTER
  6
CENTER
 62
     1
 10
17.5
 20
29.0
 30
0.0
 11
17.5
 21
16.0
 31
0.0
  0
LINE
  5
A6E8
  8
CENTER
  6
CENTER
 62
     1
 10
24.0
 20
-22.5
 30
0.0
 11
11.0
 21
-22.5
 31
0.0
  0
LINE
  5
A6E9
  8
CENTER
  6
CENTER
 62
     1
 10
17.5
 20
-16.0
 30
0.0
 11
17.5
 21
-29.0
 31
0.0
  0
LINE
  5
A6EA
  8
CENTER
  6
CENTER
 62
     1
 10
-11.0
 20
-22.5
 30
0.0
 11
-24.0
 21
-22.5
 31
0.0
  0
LINE
  5
A6EB
  8
CENTER
  6
CENTER
 62
     1
 10
-17.5
 20
-16.0
 30
0.0
 11
-17.5
 21
-29.0
 31
0.0
  0
LINE
  5
A6EC
  8
CENTER
  6
CENTER
 62
     1
 10
213.5
 20
-20.0
 30
0.0
 11
226.5
 21
-20.0
 31
0.0
  0
LINE
  5
A6ED
  8
CENTER
  6
CENTER
 62
     1
 10
220.0
 20
-26.5
 30
0.0
 11
220.0
 21
-13.5
 31
0.0
  0
LINE
  5
A6EE
  8
CENTER
  6
CENTER
 62
     1
 10
213.5
 20
20.00000000000006
 30
0.0
 11
226.5
 21
20.00000000000006
 31
0.0
  0
LINE
  5
A6EF
  8
CENTER
  6
CENTER
 62
     1
 10
220.0
 20
13.50000000000006
 30
0.0
 11
220.0
 21
26.50000000000006
 31
0.0
  0
LINE
  5
A6F0
  8
CENTER
  6
CENTER
 62
     1
 10
173.5
 20
20.00000000000006
 30
0.0
 11
186.5
 21
20.00000000000006
 31
0.0
  0
LINE
  5
A6F1
  8
CENTER
  6
CENTER
 62
     1
 10
180.0
 20
13.50000000000006
 30
0.0
 11
180.0
 21
26.50000000000006
 31
0.0
  0
LINE
  5
A6F2
  8
0
  6
CONTINUOUS
 62
     3
 10
243.88777155470791
 20
-191.65465031714581
 30
0.0
 11
246.5424218718538
 21
-189.0
 31
0.0
  0
LINE
  5
A6F3
  8
0
  6
CONTINUOUS
 62
     3
 10
241.5561250637233
 20
-198.47642486866491
 30
0.0
 11
251.03254993238841
 21
-189.0
 31
0.0
  0
LINE
  5
A6F4
  8
0
  6
CONTINUOUS
 62
     3
 10
240.78887139360299
 20
-203.73380659931991
 30
0.0
 11
255.00000000504409
 21
-189.52267798787889
 31
0.0
  0
LINE
  5
A6F5
  8
0
  6
CONTINUOUS
 62
     3
 10
240.78624702062029
 20
-208.22655903283729
 30
0.0
 11
255.00000000504409
 21
-194.0128060484133
 31
0.0
  0
LINE
  5
A6F6
  8
0
  6
CONTINUOUS
 62
     3
 10
241.2864061510989
 20
-212.21652796289331
 30
0.0
 11
255.00000000504409
 21
-198.50293410894801
 31
0.0
  0
LINE
  5
A6F7
  8
0
  6
CONTINUOUS
 62
     3
 10
242.1647669838336
 20
-215.82829519069301
 30
0.0
 11
255.00000000504409
 21
-202.99306216948261
 31
0.0
  0
LINE
  5
A6F8
  8
0
  6
CONTINUOUS
 62
     3
 10
243.35151670889289
 20
-219.13167352616841
 30
0.0
 11
255.00000000504409
 21
-207.48319023001719
 31
0.0
  0
LINE
  5
A6F9
  8
0
  6
CONTINUOUS
 62
     3
 10
244.80411812890341
 20
-222.16920016669249
 30
0.0
 11
255.0000000050442
 21
-211.9733182905517
 31
0.0
  0
LINE
  5
A6FA
  8
0
  6
CONTINUOUS
 62
     3
 10
246.3777843322743
 20
-225.0856620238562
 30
0.0
 11
255.0000000050442
 21
-216.4634463510863
 31
0.0
  0
LINE
  5
A6FB
  8
0
  6
CONTINUOUS
 62
     3
 10
247.7219047673473
 20
-228.23166964931781
 30
0.0
 11
255.0000000050442
 21
-220.95357441162079
 31
0.0
  0
LINE
  5
A6FC
  8
0
  6
CONTINUOUS
 62
     3
 10
248.7845660725321
 20
-231.65913640466749
 30
0.0
 11
255.0000000050442
 21
-225.44370247215539
 31
0.0
  0
LINE
  5
A6FD
  8
0
  6
CONTINUOUS
 62
     3
 10
249.51366284769179
 20
-235.42016769004229
 30
0.0
 11
255.0000000050442
 21
-229.93383053269
 31
0.0
  0
LINE
  5
A6FE
  8
0
  6
CONTINUOUS
 62
     3
 10
295.00000000504411
 20
-189.93383053268991
 30
0.0
 11
295.9338305377342
 21
-189.0
 31
0.0
  0
LINE
  5
A6FF
  8
0
  6
CONTINUOUS
 62
     3
 10
249.8212084764582
 20
-239.6027501218106
 30
0.0
 11
255.0000000050442
 21
-234.4239585932246
 31
0.0
  0
LINE
  5
A700
  8
0
  6
CONTINUOUS
 62
     3
 10
295.00000000504411
 20
-194.4239585932246
 30
0.0
 11
300.00000000504423
 21
-189.42395859322451
 31
0.0
  0
LINE
  5
A701
  8
0
  6
CONTINUOUS
 62
     3
 10
249.54114219707509
 20
-244.3729444617282
 30
0.0
 11
255.0000000050442
 21
-238.91408665375911
 31
0.0
  0
LINE
  5
A702
  8
0
  6
CONTINUOUS
 62
     3
 10
295.00000000504411
 20
-198.9140866537592
 30
0.0
 11
300.00000000504423
 21
-193.91408665375911
 31
0.0
  0
LINE
  5
A703
  8
0
  6
CONTINUOUS
 62
     3
 10
248.28174548055509
 20
-250.1224692387828
 30
0.0
 11
255.0000000050442
 21
-243.40421471429369
 31
0.0
  0
LINE
  5
A704
  8
0
  6
CONTINUOUS
 62
     3
 10
295.00000000504411
 20
-203.4042147142938
 30
0.0
 11
300.00000000504423
 21
-198.4042147142936
 31
0.0
  0
LINE
  5
A705
  8
0
  6
CONTINUOUS
 62
     3
 10
245.89434277987249
 20
-257.0
 30
0.0
 11
255.0000000050442
 21
-247.89434277482829
 31
0.0
  0
LINE
  5
A706
  8
0
  6
CONTINUOUS
 62
     3
 10
295.00000000504411
 20
-207.89434277482829
 30
0.0
 11
300.00000000504423
 21
-202.8943427748282
 31
0.0
  0
LINE
  5
A707
  8
0
  6
CONTINUOUS
 62
     3
 10
250.384470840407
 20
-257.0
 30
0.0
 11
255.384470840407
 21
-252.0
 31
0.0
  0
LINE
  5
A708
  8
0
  6
CONTINUOUS
 62
     3
 10
295.00000000504411
 20
-212.38447083536289
 30
0.0
 11
300.00000000504423
 21
-207.38447083536289
 31
0.0
  0
LINE
  5
A709
  8
0
  6
CONTINUOUS
 62
     3
 10
254.87459890094161
 20
-257.0
 30
0.0
 11
259.87459890094169
 21
-252.0
 31
0.0
  0
LINE
  5
A70A
  8
0
  6
CONTINUOUS
 62
     3
 10
295.00000000504411
 20
-216.87459889589749
 30
0.0
 11
300.00000000504423
 21
-211.87459889589741
 31
0.0
  0
LINE
  5
A70B
  8
0
  6
CONTINUOUS
 62
     3
 10
259.36472696147609
 20
-257.0
 30
0.0
 11
261.00000000504411
 21
-255.36472695643209
 31
0.0
  0
LINE
  5
A70C
  8
0
  6
CONTINUOUS
 62
     3
 10
295.00000000504411
 20
-221.36472695643209
 30
0.0
 11
300.000000005044
 21
-216.36472695643209
 31
0.0
  0
LINE
  5
A70D
  8
0
  6
CONTINUOUS
 62
     3
 10
295.00000000504423
 20
-225.85485501696661
 30
0.0
 11
300.00000000504423
 21
-220.85485501696661
 31
0.0
  0
LINE
  5
A70E
  8
0
  6
CONTINUOUS
 62
     3
 10
295.00000000504411
 20
-230.34498307750121
 30
0.0
 11
300.000000005044
 21
-225.34498307750121
 31
0.0
  0
LINE
  5
A70F
  8
0
  6
CONTINUOUS
 62
     3
 10
295.00000000504423
 20
-234.83511113803581
 30
0.0
 11
300.00000000504423
 21
-229.83511113803581
 31
0.0
  0
LINE
  5
A710
  8
0
  6
CONTINUOUS
 62
     3
 10
295.00000000504411
 20
-239.3252391985703
 30
0.0
 11
300.000000005044
 21
-234.32523919857039
 31
0.0
  0
LINE
  5
A711
  8
0
  6
CONTINUOUS
 62
     3
 10
295.00000000504423
 20
-243.8153672591049
 30
0.0
 11
300.00000000504423
 21
-238.8153672591049
 31
0.0
  0
LINE
  5
A712
  8
0
  6
CONTINUOUS
 62
     3
 10
289.00000000504411
 20
-254.3054953196395
 30
0.0
 11
291.3054953246837
 21
-252.0
 31
0.0
  0
LINE
  5
A713
  8
0
  6
CONTINUOUS
 62
     3
 10
295.00000000504411
 20
-248.3054953196395
 30
0.0
 11
300.000000005044
 21
-243.3054953196395
 31
0.0
  0
LINE
  5
A714
  8
0
  6
CONTINUOUS
 62
     3
 10
290.79562338521822
 20
-257.0
 30
0.0
 11
300.00000000504423
 21
-247.79562338017399
 31
0.0
  0
LINE
  5
A715
  8
0
  6
CONTINUOUS
 62
     3
 10
295.28575144575279
 20
-257.0
 30
0.0
 11
300.000000005044
 21
-252.28575144070851
 31
0.0
  0
LINE
  5
A716
  8
0
  6
CONTINUOUS
 62
     3
 10
299.77587950628742
 20
-257.0
 30
0.0
 11
300.00000000504423
 21
-256.7758795012432
 31
0.0
  0
LINE
  5
A717
  8
0
  6
CONTINUOUS
 62
     3
 10
255.99999999999989
 20
-358.73639174842577
 30
0.0
 11
259.73639174842577
 21
-354.99999999999989
 31
0.0
  0
LINE
  5
A718
  8
0
  6
CONTINUOUS
 62
     3
 10
256.0
 20
-363.2265198089604
 30
0.0
 11
262.5
 21
-356.72651980896029
 31
0.0
  0
LINE
  5
A719
  8
0
  6
CONTINUOUS
 62
     3
 10
255.99999999999989
 20
-367.71664786949492
 30
0.0
 11
262.5
 21
-361.21664786949492
 31
0.0
  0
LINE
  5
A71A
  8
0
  6
CONTINUOUS
 62
     3
 10
256.0
 20
-372.20677593002949
 30
0.0
 11
262.5
 21
-365.70677593002949
 31
0.0
  0
LINE
  5
A71B
  8
0
  6
CONTINUOUS
 62
     3
 10
255.99999999999989
 20
-376.69690399056412
 30
0.0
 11
262.5
 21
-370.19690399056412
 31
0.0
  0
LINE
  5
A71C
  8
0
  6
CONTINUOUS
 62
     3
 10
256.0
 20
-381.1870320510987
 30
0.0
 11
262.5
 21
-374.6870320510987
 31
0.0
  0
LINE
  5
A71D
  8
0
  6
CONTINUOUS
 62
     3
 10
255.99999999999989
 20
-385.67716011163321
 30
0.0
 11
262.5
 21
-379.17716011163321
 31
0.0
  0
LINE
  5
A71E
  8
0
  6
CONTINUOUS
 62
     3
 10
256.0
 20
-390.16728817216779
 30
0.0
 11
262.5
 21
-383.66728817216767
 31
0.0
  0
LINE
  5
A71F
  8
0
  6
CONTINUOUS
 62
     3
 10
287.5
 20
-358.66728817216767
 30
0.0
 11
291.16728817216767
 21
-355.0
 31
0.0
  0
LINE
  5
A720
  8
0
  6
CONTINUOUS
 62
     3
 10
255.99999999999989
 20
-394.65741623270242
 30
0.0
 11
262.5
 21
-388.1574162327023
 31
0.0
  0
LINE
  5
A721
  8
0
  6
CONTINUOUS
 62
     3
 10
287.5
 20
-363.1574162327023
 30
0.0
 11
293.99999999999989
 21
-356.6574162327023
 31
0.0
  0
LINE
  5
A722
  8
0
  6
CONTINUOUS
 62
     3
 10
250.0
 20
-405.14754429323682
 30
0.0
 11
253.1475442932369
 21
-402.0
 31
0.0
  0
LINE
  5
A723
  8
0
  6
CONTINUOUS
 62
     3
 10
287.5
 20
-367.64754429323688
 30
0.0
 11
294.0
 21
-361.14754429323688
 31
0.0
  0
LINE
  5
A724
  8
0
  6
CONTINUOUS
 62
     3
 10
256.0
 20
-399.14754429323682
 30
0.0
 11
262.5
 21
-392.64754429323682
 31
0.0
  0
LINE
  5
A725
  8
0
  6
CONTINUOUS
 62
     3
 10
249.99999999999989
 20
-409.63767235377151
 30
0.0
 11
266.63767235377151
 21
-393.0
 31
0.0
  0
LINE
  5
A726
  8
0
  6
CONTINUOUS
 62
     3
 10
287.5
 20
-372.13767235377128
 30
0.0
 11
293.99999999999989
 21
-365.63767235377151
 31
0.0
  0
LINE
  5
A727
  8
0
  6
CONTINUOUS
 62
     3
 10
250.0
 20
-414.12780041430591
 30
0.0
 11
268.0
 21
-396.12780041430602
 31
0.0
  0
LINE
  5
A728
  8
0
  6
CONTINUOUS
 62
     3
 10
287.5
 20
-376.62780041430608
 30
0.0
 11
294.0
 21
-370.12780041430608
 31
0.0
  0
LINE
  5
A729
  8
0
  6
CONTINUOUS
 62
     3
 10
251.6179284748406
 20
-417.0
 30
0.0
 11
264.99999999999989
 21
-403.61792847484071
 31
0.0
  0
LINE
  5
A72A
  8
0
  6
CONTINUOUS
 62
     3
 10
287.5
 20
-381.1179284748406
 30
0.0
 11
293.99999999999989
 21
-374.61792847484071
 31
0.0
  0
LINE
  5
A72B
  8
0
  6
CONTINUOUS
 62
     3
 10
265.6179284748406
 20
-403.0
 30
0.0
 11
268.0
 21
-400.61792847484048
 31
0.0
  0
LINE
  5
A72C
  8
0
  6
CONTINUOUS
 62
     3
 10
256.10805653537523
 20
-417.0
 30
0.0
 11
265.0
 21
-408.10805653537523
 31
0.0
  0
LINE
  5
A72D
  8
0
  6
CONTINUOUS
 62
     3
 10
287.5
 20
-385.60805653537523
 30
0.0
 11
294.0
 21
-379.10805653537523
 31
0.0
  0
LINE
  5
A72E
  8
0
  6
CONTINUOUS
 62
     3
 10
260.5981845959098
 20
-417.0
 30
0.0
 11
264.99999999999989
 21
-412.59818459590969
 31
0.0
  0
LINE
  5
A72F
  8
0
  6
CONTINUOUS
 62
     3
 10
287.49999999999989
 20
-390.0981845959098
 30
0.0
 11
293.99999999999989
 21
-383.5981845959098
 31
0.0
  0
LINE
  5
A730
  8
0
  6
CONTINUOUS
 62
     3
 10
282.0
 20
-395.5981845959098
 30
0.0
 11
284.5981845959098
 21
-392.99999999999977
 31
0.0
  0
LINE
  5
A731
  8
0
  6
CONTINUOUS
 62
     3
 10
282.0
 20
-400.08831265644437
 30
0.0
 11
294.0
 21
-388.08831265644437
 31
0.0
  0
LINE
  5
A732
  8
0
  6
CONTINUOUS
 62
     3
 10
283.57844071697889
 20
-403.0
 30
0.0
 11
293.99999999999989
 21
-392.578440716979
 31
0.0
  0
LINE
  5
A733
  8
0
  6
CONTINUOUS
 62
     3
 10
285.0
 20
-406.06856877751341
 30
0.0
 11
294.0
 21
-397.06856877751352
 31
0.0
  0
LINE
  5
A734
  8
0
  6
CONTINUOUS
 62
     3
 10
285.0
 20
-410.55869683804809
 30
0.0
 11
293.99999999999989
 21
-401.55869683804798
 31
0.0
  0
LINE
  5
A735
  8
0
  6
CONTINUOUS
 62
     3
 10
285.0
 20
-415.0488248985825
 30
0.0
 11
298.04882489858261
 21
-402.0
 31
0.0
  0
LINE
  5
A736
  8
0
  6
CONTINUOUS
 62
     3
 10
287.53895295911718
 20
-417.0
 30
0.0
 11
299.99999999999989
 21
-404.53895295911741
 31
0.0
  0
LINE
  5
A737
  8
0
  6
CONTINUOUS
 62
     3
 10
292.02908101965181
 20
-417.0
 30
0.0
 11
299.99999999999989
 21
-409.02908101965193
 31
0.0
  0
LINE
  5
A738
  8
0
  6
CONTINUOUS
 62
     3
 10
296.5192090801865
 20
-417.0
 30
0.0
 11
300.0
 21
-413.51920908018639
 31
0.0
  0
LINE
  5
A739
  8
CENTER
  6
CENTER
 62
     1
 10
234.99999999930401
 20
-247.0
 30
0.0
 11
224.99999999930401
 21
-247.0
 31
0.0
  0
LINE
  5
A73A
  8
CENTER
  6
CENTER
 62
     1
 10
229.99999999930401
 20
-242.0
 30
0.0
 11
229.99999999930401
 21
-252.0
 31
0.0
  0
LINE
  5
A73B
  8
CENTER
  6
CENTER
 62
     1
 10
175.00000000069591
 20
-227.0
 30
0.0
 11
165.00000000069591
 21
-227.0
 31
0.0
  0
LINE
  5
A73C
  8
CENTER
  6
CENTER
 62
     1
 10
170.00000000069591
 20
-222.0
 30
0.0
 11
170.00000000069591
 21
-232.0
 31
0.0
  0
LINE
  5
A73D
  8
CENTER
  6
CENTER
 62
     1
 10
229.99999999930401
 20
-222.0
 30
0.0
 11
229.99999999930401
 21
-232.0
 31
0.0
  0
LINE
  5
A73E
  8
CENTER
  6
CENTER
 62
     1
 10
234.99999999930401
 20
-227.0
 30
0.0
 11
224.99999999930401
 21
-227.0
 31
0.0
  0
LINE
  5
A73F
  8
CENTER
  6
CENTER
 62
     1
 10
-224.9999999993039
 20
-227.0
 30
0.0
 11
-234.9999999993039
 21
-227.0
 31
0.0
  0
LINE
  5
A740
  8
CENTER
  6
CENTER
 62
     1
 10
-229.9999999993039
 20
-222.0
 30
0.0
 11
-229.9999999993039
 21
-232.0
 31
0.0
  0
LINE
  5
A741
  8
CENTER
  6
CENTER
 62
     1
 10
-165.00000000069599
 20
-227.0
 30
0.0
 11
-175.00000000069599
 21
-227.0
 31
0.0
  0
LINE
  5
A742
  8
CENTER
  6
CENTER
 62
     1
 10
-170.00000000069599
 20
-222.0
 30
0.0
 11
-170.00000000069599
 21
-232.0
 31
0.0
  0
LINE
  5
A743
  8
CENTER
  6
CENTER
 62
     1
 10
-165.00000000069599
 20
-247.0
 30
0.0
 11
-175.00000000069599
 21
-247.0
 31
0.0
  0
LINE
  5
A744
  8
CENTER
  6
CENTER
 62
     1
 10
-170.00000000069599
 20
-242.0
 30
0.0
 11
-170.00000000069599
 21
-252.0
 31
0.0
  0
LINE
  5
A745
  8
0
  6
DASHED
 62
     3
 10
112.5
 20
-189.0
 30
0.0
 11
112.5
 21
-257.0
 31
0.0
  0
LINE
  5
A746
  8
0
  6
DASHED
 62
     3
 10
137.5
 20
-189.0
 30
0.0
 11
137.5
 21
-257.0
 31
0.0
  0
LINE
  5
A747
  8
0
  6
DASHED
 62
     3
 10
-12.50000024999968
 20
-189.0000000000002
 30
0.0
 11
-12.50000024999968
 21
-257.00000000000028
 31
0.0
  0
LINE
  5
A748
  8
0
  6
DASHED
 62
     3
 10
12.500000249999999
 20
-189.0
 30
0.0
 11
12.500000249999999
 21
-257.0
 31
0.0
  0
LINE
  5
A749
  8
0
  6
DASHED
 62
     3
 10
-137.5
 20
-189.0
 30
0.0
 11
-137.5
 21
-257.0
 31
0.0
  0
LINE
  5
A74A
  8
0
  6
DASHED
 62
     3
 10
-112.5
 20
-189.0
 30
0.0
 11
-112.5
 21
-257.0
 31
0.0
  0
LINE
  5
A74B
  8
0
  6
DASHED
 62
     3
 10
-287.5
 20
-189.0
 30
0.0
 11
-287.5
 21
-257.0
 31
0.0
  0
LINE
  5
A74C
  8
0
  6
DASHED
 62
     3
 10
-262.5
 20
-189.0
 30
0.0
 11
-262.5
 21
-257.0
 31
0.0
  0
LINE
  5
A74D
  8
0
  6
DASHED
 62
     3
 10
156.3500000006959
 20
-245.0
 30
0.0
 11
163.650000000696
 21
-245.0
 31
0.0
  0
LINE
  5
A74E
  8
0
  6
DASHED
 62
     3
 10
156.3500000006959
 20
-257.0
 30
0.0
 11
156.3500000006959
 21
-245.0
 31
0.0
  0
LINE
  5
A74F
  8
0
  6
DASHED
 62
     3
 10
163.650000000696
 20
-257.0
 30
0.0
 11
163.650000000696
 21
-245.0
 31
0.0
  0
LINE
  5
A750
  8
CENTER
  6
CENTER
 62
     1
 10
239.99999999930401
 20
-243.0
 30
0.0
 11
239.99999999930401
 21
-259.0
 31
0.0
  0
LINE
  5
A751
  8
0
  6
DASHED
 62
     3
 10
243.64999999930399
 20
-257.0
 30
0.0
 11
243.64999999930399
 21
-245.0
 31
0.0
  0
LINE
  5
A752
  8
0
  6
DASHED
 62
     3
 10
236.34999999930389
 20
-257.0
 30
0.0
 11
236.34999999930389
 21
-245.0
 31
0.0
  0
LINE
  5
A753
  8
0
  6
DASHED
 62
     3
 10
242.458499999304
 20
-245.0
 30
0.0
 11
242.45849999930391
 21
-257.0
 31
0.0
  0
LINE
  5
A754
  8
0
  6
DASHED
 62
     3
 10
237.54149999930399
 20
-245.0
 30
0.0
 11
237.54149999930399
 21
-257.0
 31
0.0
  0
LINE
  5
A755
  8
0
  6
DASHED
 62
     3
 10
242.9999999993039
 20
-245.0
 30
0.0
 11
242.9999999993039
 21
-257.0
 31
0.0
  0
LINE
  5
A756
  8
0
  6
DASHED
 62
     3
 10
236.99999999930401
 20
-245.0
 30
0.0
 11
236.99999999930401
 21
-257.0
 31
0.0
  0
LINE
  5
A757
  8
0
  6
DASHED
 62
     3
 10
236.34999999930389
 20
-245.0
 30
0.0
 11
243.64999999930399
 21
-245.0
 31
0.0
  0
LINE
  5
A758
  8
CENTER
  6
CENTER
 62
     1
 10
-160.00000000069599
 20
-243.0
 30
0.0
 11
-160.00000000069599
 21
-259.0
 31
0.0
  0
LINE
  5
A759
  8
0
  6
DASHED
 62
     3
 10
-156.35000000069601
 20
-257.0
 30
0.0
 11
-156.35000000069601
 21
-245.0
 31
0.0
  0
LINE
  5
A75A
  8
0
  6
DASHED
 62
     3
 10
-163.650000000696
 20
-257.0
 30
0.0
 11
-163.650000000696
 21
-245.0
 31
0.0
  0
LINE
  5
A75B
  8
0
  6
DASHED
 62
     3
 10
-157.541500000696
 20
-245.0
 30
0.0
 11
-157.541500000696
 21
-257.0
 31
0.0
  0
LINE
  5
A75C
  8
0
  6
DASHED
 62
     3
 10
-162.45850000069589
 20
-245.0
 30
0.0
 11
-162.45850000069589
 21
-257.0
 31
0.0
  0
LINE
  5
A75D
  8
0
  6
DASHED
 62
     3
 10
-157.00000000069599
 20
-245.0
 30
0.0
 11
-157.00000000069599
 21
-257.0
 31
0.0
  0
LINE
  5
A75E
  8
0
  6
DASHED
 62
     3
 10
-163.00000000069599
 20
-245.0
 30
0.0
 11
-163.00000000069599
 21
-257.0
 31
0.0
  0
LINE
  5
A75F
  8
0
  6
DASHED
 62
     3
 10
-163.650000000696
 20
-245.0
 30
0.0
 11
-156.35000000069601
 21
-245.0
 31
0.0
  0
LINE
  5
A760
  8
CENTER
  6
CENTER
 62
     1
 10
-239.9999999993039
 20
-243.0
 30
0.0
 11
-239.9999999993039
 21
-259.0
 31
0.0
  0
LINE
  5
A761
  8
0
  6
DASHED
 62
     3
 10
-236.34999999930389
 20
-257.0
 30
0.0
 11
-236.34999999930389
 21
-245.0
 31
0.0
  0
LINE
  5
A762
  8
0
  6
DASHED
 62
     3
 10
-243.6499999993039
 20
-257.0
 30
0.0
 11
-243.6499999993039
 21
-245.0
 31
0.0
  0
LINE
  5
A763
  8
0
  6
DASHED
 62
     3
 10
-237.54149999930391
 20
-245.0
 30
0.0
 11
-237.54149999930399
 21
-257.0
 31
0.0
  0
LINE
  5
A764
  8
0
  6
DASHED
 62
     3
 10
-242.4584999993038
 20
-245.0
 30
0.0
 11
-242.4584999993038
 21
-257.0
 31
0.0
  0
LINE
  5
A765
  8
0
  6
DASHED
 62
     3
 10
-236.9999999993039
 20
-245.0
 30
0.0
 11
-236.9999999993039
 21
-257.0
 31
0.0
  0
LINE
  5
A766
  8
0
  6
DASHED
 62
     3
 10
-242.9999999993039
 20
-245.0
 30
0.0
 11
-242.9999999993039
 21
-257.0
 31
0.0
  0
LINE
  5
A767
  8
0
  6
DASHED
 62
     3
 10
-243.6499999993039
 20
-245.0
 30
0.0
 11
-236.34999999930389
 21
-245.0
 31
0.0
  0
CIRCLE
  5
A768
  8
0
  6
CONTINUOUS
 62
     7
 10
-239.9999999993039
 20
0.0
 30
0.0
 40
3.649999999999999
  0
LINE
  5
A769
  8
CENTER
  6
CENTER
 62
     1
 10
-159.9999999999998
 20
5.6499999999999773
 30
0.0
 11
-160.0
 21
-5.6499999999999773
 31
0.0
  0
CIRCLE
  5
A76A
  8
0
  6
CONTINUOUS
 62
     7
 10
-159.9999999993039
 20
0.0
 30
0.0
 40
3.649999999999999
  0
LINE
  5
A76B
  8
0
  6
CONTINUOUS
 62
     7
 10
-250.0
 20
16.00000000000006
 30
0.0
 11
-250.0
 21
15.00000000000006
 31
0.0
  0
LINE
  5
A76C
  8
0
  6
CONTINUOUS
 62
     7
 10
-150.00000000000011
 20
16.00000000000006
 30
0.0
 11
-150.00000000000011
 21
15.00000000000006
 31
0.0
  0
LINE
  5
A76D
  8
0
  6
CONTINUOUS
 62
     7
 10
-8.5
 20
-148.39999999999981
 30
0.0
 11
8.5
 21
-148.39999999999981
 31
0.0
  0
LINE
  5
A76E
  8
0
  6
CONTINUOUS
 62
     7
 10
6.5
 20
-140.40000000000001
 30
0.0
 11
6.5
 21
-148.39999999999981
 31
0.0
  0
LINE
  5
A76F
  8
0
  6
CONTINUOUS
 62
     7
 10
-6.5
 20
-140.40000000000001
 30
0.0
 11
-6.5
 21
-148.39999999999981
 31
0.0
  0
LINE
  5
A770
  8
0
  6
CONTINUOUS
 62
     7
 10
-8.5
 20
-148.39999999999981
 30
0.0
 11
-8.5
 21
-150.0
 31
0.0
  0
LINE
  5
A771
  8
0
  6
CONTINUOUS
 62
     7
 10
-6.5
 20
-140.40000000000001
 30
0.0
 11
6.5
 21
-140.40000000000001
 31
0.0
  0
LINE
  5
A772
  8
0
  6
CONTINUOUS
 62
     7
 10
8.5
 20
-148.39999999999981
 30
0.0
 11
8.5
 21
-150.0
 31
0.0
  0
LINE
  5
A773
  8
0
  6
DASHED
 62
     3
 10
-5.0000000000000853
 20
-140.40000000000001
 30
0.0
 11
-5.0000000000000853
 21
-150.0
 31
0.0
  0
LINE
  5
A774
  8
0
  6
DASHED
 62
     3
 10
5.000000000000596
 20
-140.40000000000001
 30
0.0
 11
5.000000000000596
 21
-150.0
 31
0.0
  0
LINE
  5
A775
  8
0
  6
DASHED
 62
     3
 10
7.500000000000596
 20
-148.39999999999981
 30
0.0
 11
7.500000000000596
 21
-150.0
 31
0.0
  0
LINE
  5
A776
  8
0
  6
DASHED
 62
     3
 10
-7.5000000000001981
 20
-148.39999999999981
 30
0.0
 11
-7.5000000000001981
 21
-150.0
 31
0.0
  0
LINE
  5
A78E
  8
0
  6
CONTINUOUS
 62
     3
 10
246.45197909449931
 20
-153.1694182930778
 30
0.0
 11
249.62139738757719
 21
-150.0
 31
0.0
  0
LINE
  5
A790
  8
0
  6
CONTINUOUS
 62
     3
 10
246.60165350864639
 20
-162.0
 30
0.0
 11
258.60165350864639
 21
-150.0
 31
0.0
  0
LINE
  5
A791
  8
0
  6
CONTINUOUS
 62
     3
 10
244.8522806752905
 20
-159.25924477282129
 30
0.0
 11
254.11152544811171
 21
-150.0
 31
0.0
  0
LINE
  5
A792
  8
0
  6
CONTINUOUS
 62
     3
 10
255.5819096297156
 20
-162.0
 30
0.0
 11
267.5819096297156
 21
-150.0
 31
0.0
  0
LINE
  5
A793
  8
0
  6
CONTINUOUS
 62
     3
 10
251.09178156918099
 20
-162.0
 30
0.0
 11
263.09178156918102
 21
-150.0
 31
0.0
  0
LINE
  5
A794
  8
0
  6
CONTINUOUS
 62
     3
 10
266.07203769025023
 20
-155.9999999999998
 30
0.0
 11
270.5
 21
-151.5720376902502
 31
0.0
  0
LINE
  5
A795
  8
0
  6
CONTINUOUS
 62
     3
 10
260.07203769025023
 20
-161.9999999999998
 30
0.0
 11
262.49999999999989
 21
-159.5720376902502
 31
0.0
  0
LINE
  5
A796
  8
0
  6
CONTINUOUS
 62
     3
 10
291.50293411399218
 20
-162.0
 30
0.0
 11
300.0
 21
-153.50293411399221
 31
0.0
  0
LINE
  5
A797
  8
0
  6
CONTINUOUS
 62
     3
 10
287.5
 20
-161.5128060534575
 30
0.0
 11
299.01280605345772
 21
-150.0
 31
0.0
  0
LINE
  5
A798
  8
0
  6
CONTINUOUS
 62
     3
 10
287.5
 20
-157.02267799292289
 30
0.0
 11
294.52267799292292
 21
-150.0
 31
0.0
  0
LINE
  5
A799
  8
0
  6
CONTINUOUS
 62
     3
 10
295.99306217452681
 20
-162.0
 30
0.0
 11
300.0
 21
-157.99306217452681
 31
0.0
  0
LINE
  5
A79A
  8
0
  6
CONTINUOUS
 62
     3
 10
284.03254993238852
 20
-156.0
 30
0.0
 11
290.03254993238852
 21
-150.0
 31
0.0
  0
LINE
  5
A79B
  8
0
  6
CONTINUOUS
 62
     3
 10
279.54242187185389
 20
-156.0
 30
0.0
 11
285.54242187185389
 21
-150.0
 31
0.0
  0
LINE
  5
A79C
  8
0
  6
CONTINUOUS
 62
     3
 10
279.49999999999989
 20
-151.55229381131929
 30
0.0
 11
281.05229381131932
 21
-150.0
 31
0.0
  0
LINE
  5
A79D
  8
0
  6
CONTINUOUS
 62
     7
 10
-12.50000024999968
 20
-167.13397445187809
 30
0.0
 11
-12.701705922171669
 21
-167.01751962775251
 31
0.0
  0
LINE
  5
A79E
  8
0
  6
CONTINUOUS
 62
     7
 10
-12.70170592217181
 20
-162.0
 30
0.0
 11
-12.70170592217181
 21
-167.01751962775251
 31
0.0
  0
LINE
  5
A79F
  8
0
  6
CONTINUOUS
 62
     7
 10
12.500000249999999
 20
-167.133974451878
 30
0.0
 11
12.701705922171669
 21
-167.01751962775251
 31
0.0
  0
LINE
  5
A7A0
  8
0
  6
CONTINUOUS
 62
     7
 10
12.701705922171669
 20
-162.0
 30
0.0
 11
12.701705922171669
 21
-167.01751962775251
 31
0.0
  0
INSERT
  5
ACCF
  8
0
  6
CONTINUOUS
 62
     7
  2
*U2
 10
0.0
 20
0.0
 30
0.0
  0
INSERT
  5
ACD0
  8
0
  6
CONTINUOUS
 62
     7
  2
*U3
 10
0.0
 20
0.0
 30
0.0
  0
LINE
  5
ACD7
  8
0
  6
CONTINUOUS
 62
     7
 10
188.99999975000031
 20
-178.0
 30
0.0
 11
188.99999975000031
 21
-189.0000000000002
 31
0.0
  0
ARC
  5
AD1F
  8
0
  6
CONTINUOUS
 62
     3
 10
240.4543714512827
 20
-153.0000000000002
 30
0.0
 40
5.9999999999999778
 50
329.99999999999812
 51
30.000000000001961
  0
ARC
  5
AD20
  8
0
  6
CONTINUOUS
 62
     3
 10
250.8466811829681
 20
-159.0000009999022
 30
0.0
 40
6.0000037316856449
 50
150.00000954835099
 51
209.99996840066379
  0
ARC
  5
AD29
  8
0
  6
CONTINUOUS
 62
     3
 10
274.71326331845108
 20
-206.0000000000008
 30
0.0
 40
33.999999999999801
 50
149.99999999999801
 51
210.00000000000199
  0
ARC
  5
AD2A
  8
0
  6
CONTINUOUS
 62
     3
 10
215.8235081722342
 20
-240.0000056661126
 30
0.0
 40
34.000021146218579
 50
330.00003159933391
 51
29.999990451651222
  0
INSERT
  5
AD6C
  8
0
  6
CONTINUOUS
 62
     7
  2
*U4
 10
0.0
 20
0.0
 30
0.0
  0
INSERT
  5
AD6D
  8
0
  6
CONTINUOUS
 62
     7
  2
*U5
 10
0.0
 20
0.0
 30
0.0
  0
INSERT
  5
AD6E
  8
0
  6
CONTINUOUS
 62
     7
  2
*U6
 10
0.0
 20
0.0
 30
0.0
  0
INSERT
  5
AD6F
  8
0
  6
CONTINUOUS
 62
     7
  2
*U7
 10
0.0
 20
0.0
 30
0.0
1001
ACAD
1000
DSTYLE
1002
{
1070
   147
1040
0.625
1070
    77
1070
     1
1002
}
  0
INSERT
  5
AD70
  8
0
  6
CONTINUOUS
 62
     7
  2
*U8
 10
0.0
 20
0.0
 30
0.0
1001
ACAD
1000
DSTYLE
1002
{
1070
   147
1040
0.625
1070
    77
1070
     1
1002
}
  0
INSERT
  5
AD71
  8
0
  6
CONTINUOUS
 62
     7
  2
*U9
 10
0.0
 20
0.0
 30
0.0
  0
LINE
  5
AE5B
  8
0
  6
CONTINUOUS
 62
     7
 10
150.0
 20
-417.0
 30
0.0
 11
100.0
 21
-417.0
 31
0.0
  0
LINE
  5
AE5C
  8
0
  6
CONTINUOUS
 62
     7
 10
-150.0
 20
-417.0
 30
0.0
 11
-100.0
 21
-416.99999999999989
 31
0.0
  0
LINE
  5
AEB1
  8
0
  6
DASHED
 62
     3
 10
137.99999999999969
 20
-417.0
 30
0.0
 11
137.99999999999969
 21
-402.0
 31
0.0
  0
LINE
  5
AEB2
  8
0
  6
DASHED
 62
     3
 10
146.99999999999969
 20
-417.0
 30
0.0
 11
146.99999999999969
 21
-402.0
 31
0.0
  0
LINE
  5
AEB3
  8
0
  6
DASHED
 62
     3
 10
102.9999999999997
 20
-417.0
 30
0.0
 11
102.9999999999997
 21
-402.0
 31
0.0
  0
LINE
  5
AEB4
  8
0
  6
DASHED
 62
     3
 10
111.9999999999997
 20
-417.0
 30
0.0
 11
111.9999999999997
 21
-402.0
 31
0.0
  0
LINE
  5
AEB5
  8
0
  6
DASHED
 62
     3
 10
18.000000000000011
 20
-417.00000000000011
 30
0.0
 11
18.000000000000011
 21
-402.00000000000011
 31
0.0
  0
LINE
  5
AEB6
  8
0
  6
DASHED
 62
     3
 10
27.000000000000011
 20
-417.00000000000011
 30
0.0
 11
27.000000000000011
 21
-402.00000000000011
 31
0.0
  0
LINE
  5
AEB7
  8
0
  6
DASHED
 62
     3
 10
-26.999999999999972
 20
-417.00000000000011
 30
0.0
 11
-26.999999999999972
 21
-402.00000000000011
 31
0.0
  0
LINE
  5
AEB8
  8
0
  6
DASHED
 62
     3
 10
-17.999999999999972
 20
-417.00000000000011
 30
0.0
 11
-17.999999999999972
 21
-402.00000000000011
 31
0.0
  0
LINE
  5
AEB9
  8
0
  6
DASHED
 62
     3
 10
-112.0
 20
-417.0
 30
0.0
 11
-112.0
 21
-402.0
 31
0.0
  0
LINE
  5
AEBA
  8
0
  6
DASHED
 62
     3
 10
-103.0
 20
-417.0
 30
0.0
 11
-103.0
 21
-402.0
 31
0.0
  0
LINE
  5
AEBB
  8
0
  6
DASHED
 62
     3
 10
-147.0
 20
-417.0
 30
0.0
 11
-147.0
 21
-402.0
 31
0.0
  0
LINE
  5
AEBC
  8
0
  6
DASHED
 62
     3
 10
-138.0
 20
-417.0
 30
0.0
 11
-138.0
 21
-402.0
 31
0.0
  0
LINE
  5
AEBD
  8
0
  6
DASHED
 62
     3
 10
-262.00000000000023
 20
-416.99999999999989
 30
0.0
 11
-262.00000000000023
 21
-401.99999999999989
 31
0.0
  0
LINE
  5
AEBE
  8
0
  6
DASHED
 62
     3
 10
-253.0000000000002
 20
-416.99999999999989
 30
0.0
 11
-253.0000000000002
 21
-401.99999999999989
 31
0.0
  0
LINE
  5
AEBF
  8
0
  6
DASHED
 62
     3
 10
-297.00000000000023
 20
-417.0
 30
0.0
 11
-297.00000000000023
 21
-402.0
 31
0.0
  0
LINE
  5
AEC0
  8
0
  6
DASHED
 62
     3
 10
-288.00000000000023
 20
-417.0
 30
0.0
 11
-288.00000000000023
 21
-402.0
 31
0.0
  0
LINE
  5
AEDB
  8
0
  6
CONTINUOUS
 62
     7
 10
-27.95084971874703
 20
-417.00000000000011
 30
0.0
 11
-27.95084971874703
 21
-402.00000000000011
 31
0.0
  0
LINE
  5
AEDC
  8
0
  6
CONTINUOUS
 62
     7
 10
27.950849718746809
 20
-402.00000000000011
 30
0.0
 11
27.950849718746809
 21
-417.00000000000011
 31
0.0
  0
LINE
  5
B088
  8
0
  6
CONTINUOUS
 62
     7
 10
-209.5
 20
-178.0
 30
0.0
 11
-209.5
 21
-168.0
 31
0.0
  0
LINE
  5
B089
  8
0
  6
CONTINUOUS
 62
     7
 10
-190.5
 20
-178.0
 30
0.0
 11
-190.5
 21
-168.0
 31
0.0
  0
LINE
  5
B08A
  8
0
  6
CONTINUOUS
 62
     7
 10
-211.00000024999969
 20
-178.0
 30
0.0
 11
-209.5
 21
-178.0
 31
0.0
  0
LINE
  5
B08B
  8
0
  6
CONTINUOUS
 62
     7
 10
-188.99999975
 20
-189.0000000000002
 30
0.0
 11
-188.99999975
 21
-178.0
 31
0.0
  0
LINE
  5
B08C
  8
0
  6
CONTINUOUS
 62
     7
 10
-190.5
 20
-178.0
 30
0.0
 11
-188.99999975
 21
-178.0
 31
0.0
  0
LINE
  5
B08D
  8
0
  6
CONTINUOUS
 62
     7
 10
-209.5
 20
-168.0
 30
0.0
 11
-190.5
 21
-168.0
 31
0.0
  0
LINE
  5
B08E
  8
0
  6
CONTINUOUS
 62
     7
 10
-211.00000024999969
 20
-178.0
 30
0.0
 11
-211.00000024999969
 21
-189.0000000000002
 31
0.0
  0
LINE
  5
B0B0
  8
0
  6
DASHED
 62
     3
 10
24.799999999999951
 20
-134.3525087708488
 30
0.0
 11
31.0
 21
-134.13599999999991
 31
0.0
  0
LINE
  5
B0B1
  8
0
  6
DASHED
 62
     3
 10
23.728893062925859
 20
-134.97091264929941
 30
0.0
 11
30.39797688973783
 21
-134.73802311026211
 31
0.0
  0
LINE
  5
B0B2
  8
0
  6
DASHED
 62
     3
 10
23.728893062925859
 20
-143.02908735070059
 30
0.0
 11
30.39797688973772
 21
-143.26197688973781
 31
0.0
  0
LINE
  5
B0B3
  8
0
  6
DASHED
 62
     3
 10
24.799999999999951
 20
-143.64749122915109
 30
0.0
 11
31.0
 21
-143.86399999999989
 31
0.0
  0
LINE
  5
B0B4
  8
0
  6
DASHED
 62
     3
 10
24.799999999999951
 20
-134.3525087708488
 30
0.0
 11
23.728893062925859
 21
-134.97091264929941
 31
0.0
  0
LINE
  5
B0B5
  8
0
  6
DASHED
 62
     3
 10
23.728893062925859
 20
-143.02908735070051
 30
0.0
 11
24.799999999999951
 21
-143.64749122915109
 31
0.0
  0
LINE
  5
B0B6
  8
0
  6
DASHED
 62
     3
 10
24.799999999999951
 20
-134.3525087708488
 30
0.0
 11
24.799999999999951
 21
-143.64749122915109
 31
0.0
  0
LINE
  5
B0B7
  8
0
  6
DASHED
 62
     3
 10
23.728893062925859
 20
-134.97091264929941
 30
0.0
 11
23.728893062925859
 21
-143.02908735070059
 31
0.0
  0
LINE
  5
B0B8
  8
0
  6
DASHED
 62
     3
 10
30.39797688973783
 20
-134.73802311026211
 30
0.0
 11
31.0
 21
-134.13599999999991
 31
0.0
  0
LINE
  5
B0B9
  8
0
  6
DASHED
 62
     3
 10
30.39797688973772
 20
-143.26197688973781
 30
0.0
 11
31.0
 21
-143.864
 31
0.0
  0
LINE
  5
B0BA
  8
0
  6
DASHED
 62
     3
 10
30.39797688973772
 20
-134.73802311026219
 30
0.0
 11
30.39797688973772
 21
-143.26197688973781
 31
0.0
  0
LINE
  5
B0CC
  8
0
  6
DASHED
 62
     3
 10
24.799999999999951
 20
-63.852508770848821
 30
0.0
 11
31.0
 21
-63.635999999999953
 31
0.0
  0
LINE
  5
B0CD
  8
0
  6
DASHED
 62
     3
 10
23.728893062925859
 20
-64.470912649299393
 30
0.0
 11
30.39797688973783
 21
-64.23802311026212
 31
0.0
  0
LINE
  5
B0CE
  8
0
  6
DASHED
 62
     3
 10
23.728893062925859
 20
-72.529087350700564
 30
0.0
 11
30.39797688973772
 21
-72.761976889737795
 31
0.0
  0
LINE
  5
B0CF
  8
0
  6
DASHED
 62
     3
 10
24.799999999999951
 20
-73.1474912291511
 30
0.0
 11
31.0
 21
-73.363999999999962
 31
0.0
  0
LINE
  5
B0D0
  8
0
  6
DASHED
 62
     3
 10
24.799999999999951
 20
-63.852508770848821
 30
0.0
 11
23.728893062925859
 21
-64.470912649299393
 31
0.0
  0
LINE
  5
B0D1
  8
0
  6
DASHED
 62
     3
 10
23.728893062925859
 20
-72.529087350700522
 30
0.0
 11
24.799999999999951
 21
-73.1474912291511
 31
0.0
  0
LINE
  5
B0D2
  8
0
  6
DASHED
 62
     3
 10
24.799999999999951
 20
-63.852508770848821
 30
0.0
 11
24.799999999999951
 21
-73.1474912291511
 31
0.0
  0
LINE
  5
B0D3
  8
0
  6
DASHED
 62
     3
 10
23.728893062925859
 20
-64.470912649299393
 30
0.0
 11
23.728893062925859
 21
-72.529087350700564
 31
0.0
  0
LINE
  5
B0D4
  8
0
  6
DASHED
 62
     3
 10
30.39797688973783
 20
-64.23802311026212
 30
0.0
 11
31.0
 21
-63.635999999999953
 31
0.0
  0
LINE
  5
B0D5
  8
0
  6
DASHED
 62
     3
 10
30.39797688973772
 20
-72.761976889737852
 30
0.0
 11
31.0
 21
-73.364000000000019
 31
0.0
  0
LINE
  5
B0D6
  8
0
  6
DASHED
 62
     3
 10
30.39797688973772
 20
-64.238023110262176
 30
0.0
 11
30.39797688973772
 21
-72.761976889737852
 31
0.0
  0
LINE
  5
B0D8
  8
0
  6
DASHED
 62
     3
 10
204.6474912291512
 20
-24.799999999808591
 30
0.0
 11
204.864
 21
-30.99999999980864
 31
0.0
  0
LINE
  5
B0D9
  8
0
  6
DASHED
 62
     3
 10
204.02908735070059
 20
-23.7288930627345
 30
0.0
 11
204.26197688973789
 21
-30.39797688954647
 31
0.0
  0
LINE
  5
B0DA
  8
0
  6
DASHED
 62
     3
 10
195.97091264929941
 20
-23.7288930627345
 30
0.0
 11
195.73802311026219
 21
-30.39797688954636
 31
0.0
  0
LINE
  5
B0DB
  8
0
  6
DASHED
 62
     3
 10
195.35250877084891
 20
-24.799999999808591
 30
0.0
 11
195.136
 21
-30.99999999980864
 31
0.0
  0
LINE
  5
B0DC
  8
0
  6
DASHED
 62
     3
 10
204.6474912291512
 20
-24.799999999808591
 30
0.0
 11
204.02908735070059
 21
-23.7288930627345
 31
0.0
  0
LINE
  5
B0DD
  8
0
  6
DASHED
 62
     3
 10
195.97091264929941
 20
-23.7288930627345
 30
0.0
 11
195.35250877084891
 21
-24.799999999808591
 31
0.0
  0
LINE
  5
B0DE
  8
0
  6
DASHED
 62
     3
 10
204.6474912291512
 20
-24.799999999808591
 30
0.0
 11
195.35250877084891
 21
-24.799999999808591
 31
0.0
  0
LINE
  5
B0DF
  8
0
  6
DASHED
 62
     3
 10
204.02908735070059
 20
-23.7288930627345
 30
0.0
 11
195.97091264929941
 21
-23.7288930627345
 31
0.0
  0
LINE
  5
B0E0
  8
0
  6
DASHED
 62
     3
 10
204.26197688973789
 20
-30.39797688954647
 30
0.0
 11
204.864
 21
-30.99999999980864
 31
0.0
  0
LINE
  5
B0E1
  8
0
  6
DASHED
 62
     3
 10
195.73802311026211
 20
-30.39797688954636
 30
0.0
 11
195.136
 21
-30.99999999980864
 31
0.0
  0
LINE
  5
B0E2
  8
0
  6
DASHED
 62
     3
 10
204.26197688973781
 20
-30.39797688954636
 30
0.0
 11
195.73802311026211
 21
-30.39797688954636
 31
0.0
  0
ARC
  5
B177
  8
0
  6
PHANTOM
 62
     3
 10
-11.65000152587891
 20
-91.408518948599067
 30
0.0
 40
1.2581467555219139
 50
238.89325632920401
 51
301.10674367079599
  0
ARC
  5
B178
  8
0
  6
PHANTOM
 62
     3
 10
-10.350002288818359
 20
-93.562971557062909
 30
0.0
 40
1.2581330497639089
 50
58.893082606676479
 51
121.1069173933235
  0
ARC
  5
B179
  8
0
  6
PHANTOM
 62
     3
 10
-10.35000228881835
 20
-91.408532654362858
 30
0.0
 40
1.2581330497639089
 50
238.89308260667639
 51
301.10691739332339
  0
ARC
  5
B17A
  8
0
  6
PHANTOM
 62
     3
 10
11.650009155273411
 20
-113.9370147371734
 30
0.0
 40
1.2581467555219139
 50
238.8932563292035
 51
301.1063378801195
  0
ARC
  5
B17B
  8
0
  6
PHANTOM
 62
     3
 10
10.350006103515611
 20
-116.091481051401
 30
0.0
 40
1.2581467555219139
 50
58.893256329204902
 51
121.1067436707951
  0
ARC
  5
B17C
  8
0
  6
PHANTOM
 62
     3
 10
10.350006103515611
 20
-113.9370147371734
 30
0.0
 40
1.2581467555219139
 50
238.893256329205
 51
301.10674367079429
  0
ARC
  5
B1C6
  8
0
  6
CONTINUOUS
 62
     7
 10
107.49999999822251
 20
-22.5
 30
0.0
 40
4.5
 50
213.74898859588859
 51
326.25101140411141
  0
ARC
  5
B1C7
  8
0
  6
CONTINUOUS
 62
     7
 10
107.49999999822251
 20
22.5
 30
0.0
 40
4.5
 50
33.748988595888619
 51
146.25101140411141
  0
ARC
  5
B1C8
  8
0
  6
CONTINUOUS
 62
     7
 10
142.49999999822251
 20
-22.5
 30
0.0
 40
4.5
 50
213.74898859588859
 51
326.25101140411141
  0
ARC
  5
B1C9
  8
0
  6
CONTINUOUS
 62
     7
 10
257.50000000177738
 20
-22.5
 30
0.0
 40
4.5
 50
213.74898859588859
 51
326.25101140411158
  0
ARC
  5
B1CA
  8
0
  6
CONTINUOUS
 62
     7
 10
292.50000000177738
 20
-22.5
 30
0.0
 40
4.5
 50
213.74898859588839
 51
326.25101140411158
  0
ARC
  5
B1CB
  8
0
  6
CONTINUOUS
 62
     7
 10
292.50000000177738
 20
22.5
 30
0.0
 40
4.5
 50
33.748988595888413
 51
146.25101140411161
  0
VIEWPORT
  5
6D16
 67
     1
  8
0
  6
CONTINUOUS
 62
     7
 10
128.5
 20
97.5
 30
0.0
 40
622.87456647398835
 41
222.18000000000001
 68
     1
 69
     1
1001
ACAD
1000
MVIEW
1002
{
1070
    16
1010
0.0
1020
0.0
1030
0.0
1010
0.0
1020
0.0
1030
1.0
1040
0.0
1040
222.18000000000001
1040
128.5
1040
97.5
1040
50.0
1040
0.0
1040
0.0
1070
     0
1070
  1000
1070
     1
1070
     1
1070
     0
1070
     0
1070
     0
1070
     0
1040
0.0
1040
0.0
1040
0.0
1040
10.0
1040
10.0
1040
10.0
1040
10.0
1070
     0
1002
{
1002
}
1002
}
  0
VIEWPORT
  5
6D1B
 67
     1
  8
0
  6
CONTINUOUS
 62
     7
 10
128.5
 20
97.5
 30
0.0
 40
205.59999999999999
 41
156.0
 68
     2
 69
     2
1001
ACAD
1000
MVIEW
1002
{
1070
    16
1010
0.0
1020
0.0
1030
0.0
1010
0.0
1020
0.0
1030
1.0
1040
0.0
1040
268.34382130111919
1040
166.06711243968169
1040
53.835407184513031
1040
50.0
1040
0.0
1040
0.0
1070
     0
1070
  1000
1070
     1
1070
     3
1070
     0
1070
     0
1070
     0
1070
     0
1040
0.0
1040
0.0
1040
0.0
1040
10.0
1040
10.0
1040
10.0
1040
10.0
1070
     0
1002
{
1002
}
1002
}
  0
ENDSEC
  0
EOF
