  0
SECTION
  2
HEADER
  9
$ACADVER
  1
AC1009
  9
$INSBASE
 10
0.0
 20
0.0
 30
0.0
  9
$EXTMIN
 10
7.8918466436348353
 20
35.094162673100527
 30
-0.0000000349181948
  9
$EXTMAX
 10
92.578125573436395
 20
84.187103691961511
 30
0.0000000814935747
  9
$LIMMIN
 10
0.0
 20
0.0
  9
$LIMMAX
 10
400.0
 20
277.0
  9
$ORTHOMODE
 70
     0
  9
$REGENMODE
 70
     1
  9
$FILLMODE
 70
     1
  9
$QTEXTMODE
 70
     0
  9
$MIRRTEXT
 70
     1
  9
$DRAGMODE
 70
     2
  9
$LTSCALE
 40
0.25
  9
$OSMODE
 70
  2999
  9
$ATTMODE
 70
     1
  9
$TEXTSIZE
 40
2.5
  9
$TRACEWID
 40
1.0
  9
$TEXTSTYLE
  7
STANDARD
  9
$CLAYER
  8
0
  9
$CELTYPE
  6
BYLAYER
  9
$CECOLOR
 62
   256
  9
$DIMSCALE
 40
1.0
  9
$DIMASZ
 40
0.18
  9
$DIMEXO
 40
0.0625
  9
$DIMDLI
 40
0.38
  9
$DIMRND
 40
0.0
  9
$DIMDLE
 40
0.0
  9
$DIMEXE
 40
0.18
  9
$DIMTP
 40
0.0
  9
$DIMTM
 40
0.0
  9
$DIMTXT
 40
0.18
  9
$DIMCEN
 40
0.09
  9
$DIMTSZ
 40
0.0
  9
$DIMTOL
 70
     0
  9
$DIMLIM
 70
     0
  9
$DIMTIH
 70
     1
  9
$DIMTOH
 70
     1
  9
$DIMSE1
 70
     0
  9
$DIMSE2
 70
     0
  9
$DIMTAD
 70
     0
  9
$DIMZIN
 70
     0
  9
$DIMBLK
  1

  9
$DIMASO
 70
     0
  9
$DIMSHO
 70
     1
  9
$DIMPOST
  1

  9
$DIMAPOST
  1

  9
$DIMALT
 70
     0
  9
$DIMALTD
 70
     2
  9
$DIMALTF
 40
25.399999999999999
  9
$DIMLFAC
 40
1.0
  9
$DIMTOFL
 70
     0
  9
$DIMTVP
 40
0.0
  9
$DIMTIX
 70
     0
  9
$DIMSOXD
 70
     0
  9
$DIMSAH
 70
     0
  9
$DIMBLK1
  1

  9
$DIMBLK2
  1

  9
$DIMSTYLE
  2
STANDARD
  9
$DIMCLRD
 70
     0
  9
$DIMCLRE
 70
     0
  9
$DIMCLRT
 70
     0
  9
$DIMTFAC
 40
1.0
  9
$DIMGAP
 40
0.09
  9
$LUNITS
 70
     2
  9
$LUPREC
 70
     2
  9
$SKETCHINC
 40
1.0
  9
$FILLETRAD
 40
0.0
  9
$AUNITS
 70
     0
  9
$AUPREC
 70
     0
  9
$MENU
  1
.
  9
$ELEVATION
 40
0.0
  9
$PELEVATION
 40
0.0
  9
$THICKNESS
 40
0.0
  9
$LIMCHECK
 70
     0
  9
$BLIPMODE
 70
     0
  9
$CHAMFERA
 40
10.0
  9
$CHAMFERB
 40
10.0
  9
$SKPOLY
 70
     0
  9
$TDCREATE
 40
2451346.6334000002
  9
$TDUPDATE
 40
2454726.5976982061
  9
$TDINDWG
 40
0.0040964236
  9
$TDUSRTIMER
 40
0.0020514236
  9
$USRTIMER
 70
     1
  9
$ANGBASE
 50
0.0
  9
$ANGDIR
 70
     0
  9
$PDMODE
 70
     0
  9
$PDSIZE
 40
0.0
  9
$PLINEWID
 40
0.0
  9
$COORDS
 70
     2
  9
$SPLFRAME
 70
     0
  9
$SPLINETYPE
 70
     6
  9
$SPLINESEGS
 70
     8
  9
$ATTDIA
 70
     0
  9
$ATTREQ
 70
     1
  9
$HANDLING
 70
     1
  9
$HANDSEED
  5
174
  9
$SURFTAB1
 70
     6
  9
$SURFTAB2
 70
     6
  9
$SURFTYPE
 70
     6
  9
$SURFU
 70
     6
  9
$SURFV
 70
     6
  9
$UCSNAME
  2

  9
$UCSORG
 10
0.0
 20
0.0
 30
0.0
  9
$UCSXDIR
 10
1.0
 20
0.0
 30
0.0
  9
$UCSYDIR
 10
0.0
 20
1.0
 30
0.0
  9
$PUCSNAME
  2

  9
$PUCSORG
 10
0.0
 20
0.0
 30
0.0
  9
$PUCSXDIR
 10
1.0
 20
0.0
 30
0.0
  9
$PUCSYDIR
 10
0.0
 20
1.0
 30
0.0
  9
$USERI1
 70
     3
  9
$USERI2
 70
     1
  9
$USERI3
 70
     1
  9
$USERI4
 70
     0
  9
$USERI5
 70
     0
  9
$USERR1
 40
1.0
  9
$USERR2
 40
3.0
  9
$USERR3
 40
3.0
  9
$USERR4
 40
2.5
  9
$USERR5
 40
10.0
  9
$WORLDVIEW
 70
     1
  9
$SHADEDGE
 70
     3
  9
$SHADEDIF
 70
    70
  9
$TILEMODE
 70
     1
  9
$MAXACTVP
 70
    16
  9
$PLIMCHECK
 70
     0
  9
$PEXTMIN
 10
1.0000000000000000E+020
 20
1.0000000000000000E+020
 30
1.0000000000000000E+020
  9
$PEXTMAX
 10
-1.0000000000000000E+020
 20
-1.0000000000000000E+020
 30
-1.0000000000000000E+020
  9
$PLIMMIN
 10
0.0
 20
0.0
  9
$PLIMMAX
 10
420.0
 20
297.0
  9
$UNITMODE
 70
     0
  9
$VISRETAIN
 70
     0
  9
$PLINEGEN
 70
     0
  9
$PSLTSCALE
 70
     1
  0
ENDSEC
  0
SECTION
  2
TABLES
  0
TABLE
  2
VPORT
 70
     1
  0
VPORT
  2
*ACTIVE
 70
     0
 10
0.0
 20
0.0
 11
1.0
 21
1.0
 12
50.23498610853563
 22
59.640633182531019
 13
0.0
 23
0.0
 14
10.0
 24
10.0
 15
10.0
 25
10.0
 16
0.0
 26
0.0
 36
1.0
 17
0.0
 27
0.0
 37
0.0
 40
57.512747892885358
 41
1.4799498746867159
 42
50.0
 43
0.0
 44
0.0
 50
0.0
 51
0.0
 71
     0
 72
   100
 73
     1
 74
     0
 75
     0
 76
     0
 77
     0
 78
     0
  0
ENDTAB
  0
TABLE
  2
LTYPE
 70
     4
  0
LTYPE
  2
CONTINUOUS
 70
     0
  3
Solid line
 72
    65
 73
     0
 40
0.0
  0
LTYPE
  2
CENTER
 70
     0
  3
____ _ ____ _ ____ _ ____ _ ____ _ ____ _ ____
 72
    65
 73
     4
 40
2.0
 49
1.25
 49
-0.25
 49
0.25
 49
-0.25
  0
LTYPE
  2
DASHED
 70
     0
  3
Dashed __ __ __ __ __ __ __ __ __ __ __ __ __ _
 72
    65
 73
     2
 40
0.75
 49
0.5
 49
-0.25
  0
ENDTAB
  0
TABLE
  2
LAYER
 70
     2
  0
LAYER
  2
0
 70
     0
 62
     7
  6
CONTINUOUS
  0
LAYER
  2
CENTER
 70
     0
 62
     1
  6
CENTER
  0
ENDTAB
  0
TABLE
  2
STYLE
 70
     2
  0
STYLE
  2
STANDARD
 70
     0
 40
0.0
 41
1.0
 50
0.0
 71
     0
 42
2.5
  3
TXT.shx
  4

  0
ENDTAB
  0
TABLE
  2
VIEW
 70
     0
  0
ENDTAB
  0
TABLE
  2
UCS
 70
     0
  0
ENDTAB
  0
TABLE
  2
APPID
 70
     1
  0
APPID
  2
ACAD
 70
     0
  0
ENDTAB
  0
TABLE
  2
DIMSTYLE
 70
     1
  0
DIMSTYLE
  2
STANDARD
 70
     0
  3

  4

  5

  6

  7

 40
1.0
 41
0.18
 42
0.0625
 43
0.38
 44
0.18
 45
0.0
 46
0.0
 47
0.0
 48
0.0
140
0.18
141
0.09
142
0.0
143
25.399999999999999
144
1.0
145
0.0
146
1.0
147
0.09
 71
     0
 72
     0
 73
     1
 74
     1
 75
     0
 76
     0
 77
     0
 78
     0
170
     0
171
     2
172
     0
173
     0
174
     0
175
     0
176
     0
177
     0
178
     0
  0
ENDTAB
  0
ENDSEC
  0
SECTION
  2
BLOCKS
  0
BLOCK
  8
0
  2
$MODEL_SPACE
 70
     0
 10
0.0
 20
0.0
 30
0.0
  3
$MODEL_SPACE
  1

  0
ENDBLK
  5
12B
  8
0
  0
BLOCK
 67
     1
  8
0
  2
$PAPER_SPACE
 70
     0
 10
0.0
 20
0.0
 30
0.0
  3
$PAPER_SPACE
  1

  0
ENDBLK
  5
127
 67
     1
  8
0
  0
ENDSEC
  0
SECTION
  2
ENTITIES
  0
LINE
  5
94
  8
0
  6
CONTINUOUS
 62
     7
 10
88.252930000000006
 20
80.040431000000027
 30
0.0
 11
51.474662000000002
 21
69.418699000000004
 31
0.0
  0
ARC
  5
95
  8
0
  6
CONTINUOUS
 62
     7
 10
409.65129200000001
 20
-873.28830000000005
 30
0.0
 40
1000.0
 50
108.98995499999999
 51
110.3099399999999
  0
LINE
  5
96
  8
0
  6
CONTINUOUS
 62
     7
 10
92.552929999999989
 20
79.590431000000024
 30
0.0
 11
54.419911999999997
 21
68.577441000000007
 31
0.0
  0
LINE
  5
97
  8
0
  6
DASHED
 62
     3
 10
88.252930000000006
 20
83.540431000000012
 30
0.0
 11
67.552930000000003
 21
77.562175999999994
 31
0.0
  0
LINE
  5
98
  8
0
  6
DASHED
 62
     3
 10
44.552930000000003
 20
45.340431000000002
 30
0.0
 11
44.552930000000003
 21
53.340431000000002
 31
0.0
  0
LINE
  5
99
  8
0
  6
DASHED
 62
     3
 10
50.552929999999982
 20
53.340431000000002
 30
0.0
 11
50.552929999999982
 21
45.340431000000002
 31
0.0
  0
LINE
  5
9A
  8
0
  6
DASHED
 62
     3
 10
50.052929999999989
 20
45.340431000000002
 30
0.0
 11
50.052929999999989
 21
55.340431000000002
 31
0.0
  0
LINE
  5
9B
  8
0
  6
DASHED
 62
     3
 10
45.052929999999989
 20
55.340431000000002
 30
0.0
 11
45.052929999999989
 21
45.340431000000002
 31
0.0
  0
LINE
  5
9C
  8
0
  6
CONTINUOUS
 62
     7
 10
54.454518999999998
 20
61.040431000000012
 30
0.0
 11
54.069780999999992
 21
50.022981000000001
 31
0.0
  0
LINE
  5
9D
  8
CENTER
 10
47.552929999999989
 20
44.340431000000002
 30
0.0
 11
47.552929999999989
 21
70.840431000000024
 31
0.0
  0
LINE
  5
9E
  8
0
  6
CONTINUOUS
 62
     7
 10
40.518737000000002
 20
64.837726000000004
 30
0.0
 11
41.036079000000001
 21
50.022981000000001
 31
0.0
  0
LINE
  5
9F
  8
0
  6
CONTINUOUS
 62
     7
 10
43.352930000000001
 20
45.340431000000002
 30
0.0
 11
47.552929999999989
 21
45.340431000000002
 31
0.0
  0
LINE
  5
A0
  8
0
  6
CONTINUOUS
 62
     7
 10
41.535773999999982
 20
49.540430999999991
 30
0.0
 11
53.570086000000003
 21
49.540430999999991
 31
0.0
  0
LINE
  5
A1
  8
0
  6
CONTINUOUS
 62
     7
 10
42.552929999999989
 20
46.140430999999992
 30
0.0
 11
52.552930000000003
 21
46.140430999999992
 31
0.0
  0
LINE
  5
A2
  8
0
  6
CONTINUOUS
 62
     7
 10
42.552929999999989
 20
49.540430999999991
 30
0.0
 11
42.552929999999989
 21
46.140430999999992
 31
0.0
  0
LINE
  5
A3
  8
0
  6
CONTINUOUS
 62
     7
 10
43.352930000000001
 20
45.340431000000002
 30
0.0
 11
42.552929999999989
 21
46.140430999999992
 31
0.0
  0
ARC
  5
A4
  8
0
  6
CONTINUOUS
 62
     7
 10
41.535773999999982
 20
50.040430999999998
 30
0.0
 40
0.5
 50
182.0
 51
270.0
  0
LINE
  5
A5
  8
0
  6
CONTINUOUS
 62
     7
 10
51.752929999999992
 20
45.340431000000002
 30
0.0
 11
47.552929999999989
 21
45.340431000000002
 31
0.0
  0
LINE
  5
A6
  8
0
  6
CONTINUOUS
 62
     7
 10
52.552930000000003
 20
49.540430999999991
 30
0.0
 11
52.552930000000003
 21
46.140430999999992
 31
0.0
  0
LINE
  5
A7
  8
0
  6
CONTINUOUS
 62
     7
 10
51.752929999999992
 20
45.340431000000002
 30
0.0
 11
52.552930000000003
 21
46.140430999999992
 31
0.0
  0
ARC
  5
A8
  8
0
  6
CONTINUOUS
 62
     7
 10
53.570086000000003
 20
50.040430999999998
 30
0.0
 40
0.5
 50
270.0
 51
358.0
  0
LINE
  5
A9
  8
0
  6
CONTINUOUS
 62
     7
 10
44.052929999999989
 20
69.840430999999995
 30
0.0
 11
43.552929999999982
 21
69.340431000000009
 31
0.0
  0
LINE
  5
AA
  8
0
  6
CONTINUOUS
 62
     7
 10
51.552930000000003
 20
69.340431000000009
 30
0.0
 11
43.552929999999982
 21
69.340431000000009
 31
0.0
  0
ARC
  5
AB
  8
0
  6
CONTINUOUS
 62
     7
 10
32.483468999999999
 20
114.51448000000001
 30
0.0
 40
50.531315999999997
 50
282.85704399999992
 51
284.76077199999997
  0
ARC
  5
AC
  8
0
  6
CONTINUOUS
 62
     7
 10
42.21664899999999
 20
78.604120999999964
 30
0.0
 40
11.673353000000001
 50
275.523144
 51
281.68241699999987
  0
LINE
  5
AD
  8
0
  6
CONTINUOUS
 62
     7
 10
43.552929999999982
 20
69.340431000000009
 30
0.0
 11
43.552929999999982
 21
67.007505000000009
 31
0.0
  0
ARC
  5
AE
  8
0
  6
CONTINUOUS
 62
     7
 10
43.33223799999999
 20
67.067130000000006
 30
0.0
 40
0.08255
 50
196.10895899999991
 51
275.523144
  0
ARC
  5
AF
  8
0
  6
CONTINUOUS
 62
     7
 10
42.317639999999997
 20
64.900544999999994
 30
0.0
 40
1.8
 50
106.108959
 51
182.0
  0
ARC
  5
B0
  8
0
  6
CONTINUOUS
 62
     7
 10
39.196047
 20
85.104519999999994
 30
0.0
 40
20.365036
 50
273.729354
 51
282.85704399999992
  0
LINE
  5
B1
  8
0
  6
CONTINUOUS
 62
     7
 10
43.552929999999982
 20
67.130865999999997
 30
0.0
 11
41.818202999999997
 21
66.629868999999985
 31
0.0
  0
POLYLINE
  5
B2
  8
0
  6
CONTINUOUS
 62
     7
 66
     1
 10
0.0
 20
0.0
 30
0.0
  0
VERTEX
  5
15B
  8
0
  6
CONTINUOUS
 62
     7
 10
62.552930000000003
 20
64.540431000000012
 30
0.0
 42
0.018386
  0
VERTEX
  5
15C
  8
0
  6
CONTINUOUS
 62
     7
 10
54.454518999999998
 20
61.040431000000012
 30
0.0
 42
35.237248000000001
  0
SEQEND
  5
15D
  8
0
  6
CONTINUOUS
 62
     7
  0
LINE
  5
B6
  8
0
  6
DASHED
 62
     3
 10
50.552929999999982
 20
53.340431000000002
 30
0.0
 11
44.552930000000003
 21
53.340431000000002
 31
0.0
  0
LINE
  5
B7
  8
0
  6
DASHED
 62
     3
 10
45.052929999999989
 20
55.340431000000002
 30
0.0
 11
50.052929999999989
 21
55.340431000000002
 31
0.0
  0
LINE
  5
B8
  8
0
  6
DASHED
 62
     3
 10
47.552929999999989
 20
56.783805999999998
 30
0.0
 11
50.052929999999989
 21
55.340431000000002
 31
0.0
  0
LINE
  5
B9
  8
0
  6
DASHED
 62
     3
 10
44.552930000000003
 20
53.340431000000002
 30
0.0
 11
45.052929999999989
 21
54.206456000000003
 31
0.0
  0
LINE
  5
BA
  8
0
  6
DASHED
 62
     3
 10
45.052929999999989
 20
55.340431000000002
 30
0.0
 11
47.552929999999989
 21
56.783805999999998
 31
0.0
  0
LINE
  5
BB
  8
0
  6
DASHED
 62
     3
 10
50.552929999999982
 20
53.340431000000002
 30
0.0
 11
50.052929999999989
 21
54.206456000000003
 31
0.0
  0
ARC
  5
BC
  8
0
  6
CONTINUOUS
 62
     7
 10
46.566597999999992
 20
79.860406000000026
 30
0.0
 40
11.673353000000001
 50
290.53550200000001
 51
296.694774
  0
ARC
  5
BD
  8
0
  6
CONTINUOUS
 62
     7
 10
44.754478999999982
 20
86.709820999999977
 30
0.0
 40
20.365036
 50
289.36087500000002
 51
293.91947599999992
  0
ARC
  5
BE
  8
0
  6
CONTINUOUS
 62
     7
 10
31.608509000000002
 20
123.49442500000001
 30
0.0
 40
57.811120000000003
 50
286.10895899999991
 51
287.94552099999993
  0
ARC
  5
BF
  8
0
  6
CONTINUOUS
 62
     7
 10
19.688236
 20
163.0770949999999
 30
0.0
 40
100.7512879999999
 50
286.10895899999991
 51
287.45714600000002
  0
ARC
  5
C0
  8
0
  6
CONTINUOUS
 62
     7
 10
31.608509000000002
 20
123.49442500000001
 30
0.0
 40
57.811120000000003
 50
284.27239800000001
 51
286.10895899999991
  0
ARC
  5
C1
  8
0
  6
CONTINUOUS
 62
     7
 10
38.693775999999993
 20
95.641762
 30
0.0
 40
29.071394000000002
 50
281.68241699999987
 51
284.27239800000001
  0
ARC
  5
C2
  8
0
  6
CONTINUOUS
 62
     7
 10
19.688236
 20
163.0770949999999
 30
0.0
 40
100.7512879999999
 50
284.76077199999997
 51
286.10895899999991
  0
ARC
  5
C3
  8
0
  6
CONTINUOUS
 62
     7
 10
34.753846000000003
 20
115.1701749999999
 30
0.0
 40
50.531315999999997
 50
287.45714600000002
 51
289.36087500000002
  0
LINE
  5
C4
  8
0
  6
CONTINUOUS
 62
     7
 10
44.052929999999989
 20
69.840430999999995
 30
0.0
 11
51.052929999999989
 21
69.840430999999995
 31
0.0
  0
LINE
  5
C5
  8
0
  6
CONTINUOUS
 62
     7
 10
51.552930000000003
 20
69.340431000000009
 30
0.0
 11
51.552930000000003
 21
69.305612999999994
 31
0.0
  0
LINE
  5
C6
  8
0
  6
CONTINUOUS
 62
     7
 10
51.052929999999989
 20
69.840430999999995
 30
0.0
 11
51.552930000000003
 21
69.340431000000009
 31
0.0
  0
ARC
  5
C7
  8
0
  6
CONTINUOUS
 62
     7
 10
40.463578999999989
 20
96.152889000000016
 30
0.0
 40
29.071394000000002
 50
287.94552099999993
 51
290.53550200000001
  0
ARC
  5
C8
  8
0
  6
CONTINUOUS
 62
     7
 10
58.581885
 20
54.166404000000007
 30
0.0
 40
15.0
 50
106.108959
 51
111.80973400000001
  0
ARC
  5
C9
  8
0
  6
CONTINUOUS
 62
     7
 10
51.77362200000001
 20
69.505040000000008
 30
0.0
 40
0.08255
 50
296.694774
 51
16.108958999999999
  0
TEXT
  5
CA
  8
0
  6
CONTINUOUS
 62
     7
 10
7.8949409442266747
 20
40.257202971516747
 30
0.0
 40
3.0
  1
LNF6-8
 11
7.8949409442266747
 21
41.757202971516747
 31
0.0
 73
     2
  0
TEXT
  5
CB
  8
0
  6
CONTINUOUS
 62
     7
 10
7.8949409442266747
 20
35.114345971516762
 30
0.0
 40
3.0
  1
LNF06
 11
7.8949409442266747
 21
36.614345971516748
 31
0.0
 73
     2
  0
ARC
  5
CC
  8
0
  6
CONTINUOUS
 62
     7
 10
90.787025
 20
74.140431000000007
 30
0.0
 40
1.1999999999999991
 50
270.0
 51
348.61367999999999
  0
LINE
  5
CD
  8
0
  6
CONTINUOUS
 62
     7
 10
88.153734
 20
72.940431000000004
 30
0.0
 11
90.787025
 21
72.940431000000004
 31
0.0
  0
ARC
  5
CE
  8
0
  6
CONTINUOUS
 62
     7
 10
88.153734
 20
60.940430999999997
 30
0.0
 40
12.0
 50
90.0
 51
108.98995499999999
  0
POLYLINE
  5
CF
  8
0
  6
CONTINUOUS
 62
     7
 66
     1
 10
0.0
 20
0.0
 30
0.0
  0
VERTEX
  5
15E
  8
0
  6
CONTINUOUS
 62
     7
 10
91.073133999999996
 20
80.664625000000001
 30
0.0
 42
0.032859
  0
VERTEX
  5
15F
  8
0
  6
CONTINUOUS
 62
     7
 10
88.252930000000006
 20
80.040431000000027
 30
0.0
 42
-0.262219
  0
SEQEND
  5
160
  8
0
  6
CONTINUOUS
 62
     7
  0
POLYLINE
  5
D3
  8
0
  6
DASHED
 62
     3
 66
     1
 10
0.0
 20
0.0
 30
0.0
  0
VERTEX
  5
161
  8
0
  6
DASHED
 62
     3
 10
91.073133999999996
 20
84.164624999999987
 30
0.0
 42
0.032859
  0
VERTEX
  5
162
  8
0
  6
DASHED
 62
     3
 10
88.252930000000006
 20
83.540431000000012
 30
0.0
 42
-0.262219
  0
SEQEND
  5
163
  8
0
  6
DASHED
 62
     3
  0
ARC
  5
D7
  8
0
  6
DASHED
 62
     3
 10
91.270133999999999
 20
82.879638999999983
 30
0.0
 40
1.3
 50
9.3315870000000007
 51
98.716077000000027
  0
ARC
  5
D8
  8
0
  6
CONTINUOUS
 62
     7
 10
62.553856999999986
 20
79.826222000000001
 30
0.0
 40
30.0
 50
348.61367999999999
 51
359.549668
  0
ARC
  5
D9
  8
0
  6
CONTINUOUS
 62
     7
 10
91.270133999999999
 20
79.379638999999983
 30
0.0
 40
1.3
 50
9.3315870000000007
 51
98.716077000000027
  0
ENDSEC
  0
EOF
