  0
SECTION
  2
HEADER
  9
$ACADVER
  1
AC1009
  9
$INSBASE
 10
0.0
 20
0.0
 30
0.0
  9
$EXTMIN
 10
-14.97768506685645
 20
-35.605416622661323
 30
0.0
  9
$EXTMAX
 10
432.87875914043269
 20
21.169237570746411
 30
0.0
  9
$LIMMIN
 10
0.0
 20
0.0
  9
$LIMMAX
 10
420.0
 20
297.0
  9
$ORTHOMODE
 70
     0
  9
$REGENMODE
 70
     1
  9
$FILLMODE
 70
     1
  9
$QTEXTMODE
 70
     0
  9
$MIRRTEXT
 70
     0
  9
$DRAGMODE
 70
     2
  9
$LTSCALE
 40
1.0
  9
$OSMODE
 70
    61
  9
$ATTMODE
 70
     1
  9
$TEXTSIZE
 40
3.0
  9
$TRACEWID
 40
1.0
  9
$TEXTSTYLE
  7
STANDARD
  9
$CLAYER
  8
0
  9
$CELTYPE
  6
CONTINUOUS
  9
$CECOLOR
 62
     7
  9
$DIMSCALE
 40
1.0
  9
$DIMASZ
 40
2.5
  9
$DIMEXO
 40
0.625
  9
$DIMDLI
 40
3.75
  9
$DIMRND
 40
0.0
  9
$DIMDLE
 40
0.0
  9
$DIMEXE
 40
1.25
  9
$DIMTP
 40
0.0
  9
$DIMTM
 40
0.0
  9
$DIMTXT
 40
2.5
  9
$DIMCEN
 40
2.5
  9
$DIMTSZ
 40
0.0
  9
$DIMTOL
 70
     0
  9
$DIMLIM
 70
     0
  9
$DIMTIH
 70
     0
  9
$DIMTOH
 70
     0
  9
$DIMSE1
 70
     0
  9
$DIMSE2
 70
     0
  9
$DIMTAD
 70
     1
  9
$DIMZIN
 70
     8
  9
$DIMBLK
  1
OPEN30
  9
$DIMASO
 70
     1
  9
$DIMSHO
 70
     1
  9
$DIMPOST
  1

  9
$DIMAPOST
  1

  9
$DIMALT
 70
     0
  9
$DIMALTD
 70
     3
  9
$DIMALTF
 40
0.03937007874016
  9
$DIMLFAC
 40
1.0
  9
$DIMTOFL
 70
     1
  9
$DIMTVP
 40
0.0
  9
$DIMTIX
 70
     0
  9
$DIMSOXD
 70
     0
  9
$DIMSAH
 70
     0
  9
$DIMBLK1
  1

  9
$DIMBLK2
  1

  9
$DIMSTYLE
  2
MISUMI
  9
$DIMCLRD
 70
   137
  9
$DIMCLRE
 70
   137
  9
$DIMCLRT
 70
   137
  9
$DIMTFAC
 40
1.0
  9
$DIMGAP
 40
0.625
  9
$LUNITS
 70
     2
  9
$LUPREC
 70
     2
  9
$SKETCHINC
 40
1.0
  9
$FILLETRAD
 40
0.0
  9
$AUNITS
 70
     0
  9
$AUPREC
 70
     0
  9
$MENU
  1
.
  9
$ELEVATION
 40
0.0
  9
$PELEVATION
 40
0.0
  9
$THICKNESS
 40
0.0
  9
$LIMCHECK
 70
     0
  9
$BLIPMODE
 70
     0
  9
$CHAMFERA
 40
0.5
  9
$CHAMFERB
 40
0.5
  9
$SKPOLY
 70
     0
  9
$TDCREATE
 40
2455135.5720697111
  9
$TDUPDATE
 40
2455855.576851632
  9
$TDINDWG
 40
0.1276882176
  9
$TDUSRTIMER
 40
0.1276880324
  9
$USRTIMER
 70
     1
  9
$ANGBASE
 50
0.0
  9
$ANGDIR
 70
     0
  9
$PDMODE
 70
    35
  9
$PDSIZE
 40
0.0
  9
$PLINEWID
 40
0.0
  9
$COORDS
 70
     1
  9
$SPLFRAME
 70
     0
  9
$SPLINETYPE
 70
     6
  9
$SPLINESEGS
 70
     8
  9
$ATTDIA
 70
     0
  9
$ATTREQ
 70
     1
  9
$HANDLING
 70
     1
  9
$HANDSEED
  5
729D
  9
$SURFTAB1
 70
     6
  9
$SURFTAB2
 70
     6
  9
$SURFTYPE
 70
     6
  9
$SURFU
 70
     6
  9
$SURFV
 70
     6
  9
$UCSNAME
  2

  9
$UCSORG
 10
0.0
 20
0.0
 30
0.0
  9
$UCSXDIR
 10
1.0
 20
0.0
 30
0.0
  9
$UCSYDIR
 10
0.0
 20
1.0
 30
0.0
  9
$PUCSNAME
  2

  9
$PUCSORG
 10
0.0
 20
0.0
 30
0.0
  9
$PUCSXDIR
 10
1.0
 20
0.0
 30
0.0
  9
$PUCSYDIR
 10
0.0
 20
1.0
 30
0.0
  9
$USERI1
 70
     0
  9
$USERI2
 70
     0
  9
$USERI3
 70
     0
  9
$USERI4
 70
     0
  9
$USERI5
 70
     0
  9
$USERR1
 40
0.0
  9
$USERR2
 40
0.0
  9
$USERR3
 40
0.0
  9
$USERR4
 40
0.0
  9
$USERR5
 40
0.0
  9
$WORLDVIEW
 70
     1
  9
$SHADEDGE
 70
     3
  9
$SHADEDIF
 70
    70
  9
$TILEMODE
 70
     1
  9
$MAXACTVP
 70
    64
  9
$PLIMCHECK
 70
     0
  9
$PEXTMIN
 10
25.699999999999989
 20
19.5
 30
0.0
  9
$PEXTMAX
 10
231.30000000000001
 20
175.5
 30
0.0
  9
$PLIMMIN
 10
-20.0
 20
-7.5
  9
$PLIMMAX
 10
277.0
 20
202.5
  9
$UNITMODE
 70
     0
  9
$VISRETAIN
 70
     1
  9
$PLINEGEN
 70
     0
  9
$PSLTSCALE
 70
     1
  0
ENDSEC
  0
SECTION
  2
TABLES
  0
TABLE
  2
VPORT
 70
     1
  0
VPORT
  2
*ACTIVE
 70
     0
 10
0.0
 20
0.0
 11
1.0
 21
1.0
 12
271.40224283680442
 22
-69.930062406165064
 13
0.0
 23
0.0
 14
10.0
 24
10.0
 15
10.0
 25
10.0
 16
0.0
 26
0.0
 36
1.0
 17
0.0
 27
0.0
 37
0.0
 40
553.83992848124103
 41
1.255102040816326
 42
50.0
 43
0.0
 44
0.0
 50
0.0
 51
0.0
 71
     0
 72
  1000
 73
     1
 74
     3
 75
     0
 76
     0
 77
     0
 78
     0
  0
ENDTAB
  0
TABLE
  2
LTYPE
 70
     4
  0
LTYPE
  2
CONTINUOUS
 70
     0
  3
Solid line
 72
    65
 73
     0
 40
0.0
  0
LTYPE
  2
CENTER
 70
     0
  3
Center ____ _ ____ _ ____ _ ____ _ ____ _ ____
 72
    65
 73
     4
 40
50.799999999999997
 49
31.75
 49
-6.3499999999999988
 49
6.3499999999999988
 49
-6.3499999999999988
  0
LTYPE
  2
DASHED
 70
     0
  3
Dashed __ __ __ __ __ __ __ __ __ __ __ __ __ _
 72
    65
 73
     2
 40
19.050000000000001
 49
12.699999999999999
 49
-6.3499999999999988
  0
LTYPE
  2
PHANTOM
 70
     0
  3
Phantom ______  __  __  ______  __  __  ______
 72
    65
 73
     6
 40
63.5
 49
31.75
 49
-6.3499999999999988
 49
6.3499999999999988
 49
-6.3499999999999988
 49
6.3499999999999988
 49
-6.3499999999999988
  0
ENDTAB
  0
TABLE
  2
LAYER
 70
     3
  0
LAYER
  2
0
 70
     0
 62
     7
  6
CONTINUOUS
  0
LAYER
  2
CENTER
 70
     0
 62
     1
  6
CENTER
  0
LAYER
  2
DEFPOINTS
 70
     0
 62
     7
  6
CONTINUOUS
  0
ENDTAB
  0
TABLE
  2
STYLE
 70
     1
  0
STYLE
  2
STANDARD
 70
     0
 40
3.0
 41
1.0
 50
0.0
 71
     0
 42
3.0
  3
txt.shx
  4
bigfont.shx
  0
ENDTAB
  0
TABLE
  2
VIEW
 70
     0
  0
ENDTAB
  0
TABLE
  2
UCS
 70
     0
  0
ENDTAB
  0
TABLE
  2
APPID
 70
     9
  0
APPID
  2
ACAD
 70
     0
  0
APPID
  2
ACAD_MLEADERVER
 70
     0
  0
APPID
  2
ACAD_EXEMPT_FROM_CAD_STANDARDS
 70
     0
  0
APPID
  2
ACDBBLOCKREPETAG
 70
     0
  0
APPID
  2
ACAD_DSTYLE_DIMJOGGED_JOGA
 70
     0
  0
APPID
  2
ACAECLAYERSTANDARD
 70
     0
  0
APPID
  2
GENIUS_GENODEF_13
 70
     0
  0
APPID
  2
GENIUS_GENOBJ-N-FIL_13
 70
     0
  0
APPID
  2
ACAD_PSEXT
 70
     0
  0
ENDTAB
  0
TABLE
  2
DIMSTYLE
 70
     1
  0
DIMSTYLE
  2
MISUMI
 70
     0
  3

  4

  5
OPEN30
  6

  7

 40
1.0
 41
2.5
 42
0.625
 43
3.75
 44
1.25
 45
0.0
 46
0.0
 47
0.0
 48
0.0
140
2.5
141
2.5
142
0.0
143
0.03937007874016
144
1.0
145
0.0
146
1.0
147
0.625
 71
     0
 72
     0
 73
     0
 74
     0
 75
     0
 76
     0
 77
     1
 78
     8
170
     0
171
     3
172
     1
173
     0
174
     0
175
     0
176
   137
177
   137
178
   137
  0
ENDTAB
  0
ENDSEC
  0
SECTION
  2
BLOCKS
  0
BLOCK
  8
0
  2
$MODEL_SPACE
 70
     0
 10
0.0
 20
0.0
 30
0.0
  3
$MODEL_SPACE
  1

  0
ENDBLK
  5
21
  8
0
  0
BLOCK
 67
     1
  8
0
  2
$PAPER_SPACE
 70
     0
 10
0.0
 20
0.0
 30
0.0
  3
$PAPER_SPACE
  1

  0
ENDBLK
  5
58
 67
     1
  8
0
  0
BLOCK
  8
0
 62
     7
  2
_OPEN30
 70
     0
 10
0.0
 20
0.0
 30
0.0
  3
_OPEN30
  1

  0
LINE
  5
D7
  8
0
  6
BYBLOCK
 62
     0
 10
-1.0
 20
0.26794919
 30
0.0
 11
0.0
 21
0.0
 31
0.0
  0
LINE
  5
D8
  8
0
  6
BYBLOCK
 62
     0
 10
0.0
 20
0.0
 30
0.0
 11
-1.0
 21
-0.26794919
 31
0.0
  0
LINE
  5
D9
  8
0
  6
BYBLOCK
 62
     0
 10
0.0
 20
0.0
 30
0.0
 11
-1.0
 21
0.0
 31
0.0
  0
ENDBLK
  5
DB
  8
0
 62
     7
  0
BLOCK
  8
0
 62
     7
  2
*U3
 70
     1
 10
0.0
 20
0.0
 30
0.0
  3
*U3
  1

  0
TEXT
  5
7296
  8
0
  6
CONTINUOUS
 62
     7
 10
-14.97768506685645
 20
-29.484440556946542
 30
0.0
 40
3.0
  1
BSFS8-400-M3
  0
ENDBLK
  5
7298
  8
0
 62
     7
  0
BLOCK
  8
0
 62
     7
  2
*U4
 70
     1
 10
0.0
 20
0.0
 30
0.0
  3
*U4
  1

  0
TEXT
  5
729A
  8
0
  6
CONTINUOUS
 62
     7
 10
-14.97768506685645
 20
-35.605416622661323
 30
0.0
 40
3.0
  1
BSFS08
  0
ENDBLK
  5
729C
  8
0
 62
     7
  0
ENDSEC
  0
SECTION
  2
ENTITIES
  0
LINE
  5
6F0B
  8
CENTER
  6
CENTER
 62
     1
 10
432.87875914043269
 20
0.0
 30
0.0
 11
28.878759140432749
 21
0.0
 31
0.0
  0
LINE
  5
6F0C
  8
0
  6
CONTINUOUS
 62
     7
 10
206.47875914043269
 20
-8.0
 30
0.0
 11
217.47875914043269
 21
-8.0
 31
0.0
  0
LINE
  5
6F0D
  8
0
  6
CONTINUOUS
 62
     7
 10
206.47875914043269
 20
8.0
 30
0.0
 11
213.12875914043269
 21
8.0
 31
0.0
  0
LINE
  5
6F0E
  8
0
  6
CONTINUOUS
 62
     7
 10
205.87875914043269
 20
7.400000000000003
 30
0.0
 11
205.87875914043269
 21
-7.3999999999999897
 31
0.0
  0
LINE
  5
6F0F
  8
0
  6
CONTINUOUS
 62
     7
 10
206.47875914043269
 20
8.0
 30
0.0
 11
206.47875914043269
 21
-8.0
 31
0.0
  0
LINE
  5
6F10
  8
0
  6
CONTINUOUS
 62
     7
 10
205.87875914043269
 20
-7.3999999999999897
 30
0.0
 11
206.47875914043269
 21
-8.0
 31
0.0
  0
LINE
  5
6F11
  8
0
  6
CONTINUOUS
 62
     7
 10
206.47875914043269
 20
8.0
 30
0.0
 11
205.87875914043269
 21
7.400000000000003
 31
0.0
  0
LINE
  5
6F12
  8
CENTER
  6
CENTER
 62
     1
 10
218.37875914043281
 20
21.169237570746411
 30
0.0
 11
218.37875914043261
 21
-10.0
 31
0.0
  0
LINE
  5
6F13
  8
0
  6
CONTINUOUS
 62
     7
 10
217.47875914043269
 20
-1.25
 30
0.0
 11
217.47875914043269
 21
-8.0
 31
0.0
  0
LINE
  5
6F14
  8
0
  6
CONTINUOUS
 62
     7
 10
219.2787591404327
 20
-1.25
 30
0.0
 11
219.2787591404327
 21
-8.0
 31
0.0
  0
LINE
  5
6F15
  8
0
  6
CONTINUOUS
 62
     7
 10
230.87875914043269
 20
-7.3999999999999897
 30
0.0
 11
230.87875914043269
 21
7.400000000000003
 31
0.0
  0
LINE
  5
6F16
  8
0
  6
CONTINUOUS
 62
     7
 10
230.2787591404327
 20
8.0
 30
0.0
 11
230.2787591404327
 21
-8.0
 31
0.0
  0
LINE
  5
6F17
  8
0
  6
CONTINUOUS
 62
     7
 10
230.2787591404327
 20
-8.0
 30
0.0
 11
219.2787591404327
 21
-8.0
 31
0.0
  0
ARC
  5
6F18
  8
0
  6
CONTINUOUS
 62
     7
 10
218.37875914043269
 20
-8.8125
 30
0.0
 40
1.212499999999999
 50
42.075022089300468
 51
137.92497807519999
  0
LINE
  5
6F19
  8
0
  6
CONTINUOUS
 62
     7
 10
230.87875914043269
 20
-7.3999999999999897
 30
0.0
 11
230.2787591404327
 21
-8.0
 31
0.0
  0
LINE
  5
6F1A
  8
0
  6
CONTINUOUS
 62
     7
 10
230.2787591404327
 20
8.0
 30
0.0
 11
223.62875914043269
 21
8.0
 31
0.0
  0
ARC
  5
6F1B
  8
0
  6
CONTINUOUS
 62
     7
 10
218.37875914043269
 20
8.7009687278186618
 30
0.0
 40
1.203646981333879
 50
221.60608777244761
 51
318.3939122275533
  0
LINE
  5
6F1C
  8
0
  6
CONTINUOUS
 62
     7
 10
217.47875914043269
 20
7.9017403151141332
 30
0.0
 11
217.47875914043269
 21
-1.25
 31
0.0
  0
LINE
  5
6F1D
  8
0
  6
CONTINUOUS
 62
     7
 10
219.2787591404327
 20
7.9017403151141332
 30
0.0
 11
219.2787591404327
 21
-1.25
 31
0.0
  0
LINE
  5
6FA2
  8
0
  6
CONTINUOUS
 62
     7
 10
230.87875914043269
 20
7.400000000000003
 30
0.0
 11
230.2787591404327
 21
8.0
 31
0.0
  0
LINE
  5
6FA3
  8
CENTER
  6
CENTER
 62
     1
 10
0.0
 20
11.299999999499979
 30
0.0
 11
0.0
 21
-10.0
 31
0.0
  0
CIRCLE
  5
6FA4
  8
0
  6
CONTINUOUS
 62
     7
 10
0.0
 20
0.0
 30
0.0
 40
8.0
  0
LINE
  5
6FA5
  8
0
  6
DASHED
 62
     3
 10
4.9522669166338211
 20
5.7649850291578417
 30
0.0
 11
2.8679793549658541
 21
2.7883139026102399
 31
0.0
  0
LINE
  5
6FA6
  8
0
  6
DASHED
 62
     3
 10
3.7235388501918911
 20
6.6253496836854993
 30
0.0
 11
1.6392512885659849
 21
3.6486785570853879
 31
0.0
  0
LINE
  5
6FA7
  8
CENTER
  6
CENTER
 62
     1
 10
0.8603646544763323
 20
1.2287280664686639
 30
0.0
 11
5.7357643635455746
 21
8.1915204428653325
 31
0.0
  0
LINE
  5
6FA8
  8
0
  6
DASHED
 62
     3
 10
1.2499999970000031
 20
6.7999999994999882
 30
0.0
 11
-1.2500000029999949
 21
6.7999999994999882
 31
0.0
  0
LINE
  5
6FA9
  8
0
  6
DASHED
 62
     3
 10
-1.25
 20
7.901740314600004
 30
0.0
 11
-1.25
 21
6.8000000000000114
 31
0.0
  0
LINE
  5
6FAA
  8
0
  6
DASHED
 62
     3
 10
1.2499999970000031
 20
7.9017403140999818
 30
0.0
 11
1.2499999970000031
 21
6.7999999994999882
 31
0.0
  0
LINE
  5
6FAB
  8
CENTER
  6
CENTER
 62
     1
 10
10.0
 20
0.0
 30
0.0
 11
-10.0
 21
0.0
 31
0.0
  0
ARC
  5
6FAC
  8
0
  6
CONTINUOUS
 62
     7
 10
0.0
 20
0.0
 30
0.0
 40
4.0
 50
122.8516901884999
 51
227.14831022670049
  0
LINE
  5
6FAD
  8
CENTER
  6
CENTER
 62
     1
 10
-1.4942920471428429
 20
0.1307336140617714
 30
0.0
 11
-9.9619469809100885
 21
0.8715574275607597
 31
0.0
  0
LINE
  5
6FAE
  8
0
  6
DASHED
 62
     3
 10
-7.5994905601231091
 20
-0.0879956055700403
 30
0.0
 11
-3.9794739649753681
 21
-0.4047060193316696
 31
0.0
  0
LINE
  5
6FAF
  8
0
  6
DASHED
 62
     3
 10
-7.4687569459918519
 20
1.406296441614765
 30
0.0
 11
-3.8487403508361231
 21
1.089586027739827
 31
0.0
  0
LINE
  5
6FB0
  8
CENTER
  6
CENTER
 62
     1
 10
0.6387577052709297
 20
-1.357198804139252
 30
0.0
 11
4.2583847020691517
 21
-9.0479920274712562
 31
0.0
  0
LINE
  5
6FB1
  8
0
  6
DASHED
 62
     3
 10
2.5419755914698952
 20
-7.1622873505864861
 30
0.0
 11
0.9945448212609447
 21
-3.8743877707972119
 31
0.0
  0
ARC
  5
6FB2
  8
0
  6
CONTINUOUS
 62
     7
 10
4.7817345507999951
 20
-0.4183475652000084
 30
0.0
 40
1.0
 50
141.87705997410001
 51
208.1229404411001
  0
ARC
  5
6FB3
  8
0
  6
CONTINUOUS
 62
     7
 10
0.0
 20
0.0
 30
0.0
 40
4.0
 50
2.851690094299721
 51
107.1483101324999
  0
LINE
  5
6FB4
  8
CENTER
  6
CENTER
 62
     1
 10
-2.5357095704547401
 20
5.4378467222149851
 30
0.0
 11
-0.7607128711765938
 21
1.631354016690663
 31
0.0
  0
ARC
  5
6FB5
  8
0
  6
CONTINUOUS
 62
     7
 10
-2.0285676563999839
 20
4.350277377800011
 30
0.0
 40
1.0
 50
261.87706006769957
 51
328.12294025329948
  0
LINE
  5
6FB6
  8
CENTER
  6
CENTER
 62
     1
 10
5.9771681885467283
 20
-0.522934456528617
 30
0.0
 11
1.793150456529474
 21
-0.1568803369031002
 31
0.0
  0
ARC
  5
6FB7
  8
0
  6
CONTINUOUS
 62
     7
 10
0.0
 20
0.0
 30
0.0
 40
4.0
 50
242.8516902827003
 51
347.14831003889981
  0
LINE
  5
6FB8
  8
CENTER
  6
CENTER
 62
     1
 10
-3.441458618162613
 20
-4.914912265694511
 30
0.0
 11
-1.032437585397872
 21
-1.474473679767341
 31
0.0
  0
ARC
  5
6FB9
  8
0
  6
CONTINUOUS
 62
     7
 10
-2.7531668944999961
 20
-3.9319298126000031
 30
0.0
 40
1.0
 50
21.87705987989963
 51
88.122940347499622
  0
LINE
  5
6FBA
  8
0
  6
DASHED
 62
     3
 10
3.899174395569903
 20
-6.523529645286513
 30
0.0
 11
2.3517436253514159
 21
-3.2356300654770518
 31
0.0
  0
LINE
  5
6FBB
  8
0
  6
DASHED
 62
     3
 10
223.62875914043269
 20
6.7999999994999882
 30
0.0
 11
223.62875914043269
 21
7.9017403151141332
 31
0.0
  0
LINE
  5
6FBC
  8
0
  6
DASHED
 62
     3
 10
213.12875914043269
 20
7.9017403151141332
 30
0.0
 11
213.12875914043269
 21
6.7999999994999882
 31
0.0
  0
LINE
  5
6FBD
  8
0
  6
DASHED
 62
     3
 10
213.12875914043269
 20
6.7999999994999882
 30
0.0
 11
223.62875914043269
 21
6.7999999994999882
 31
0.0
  0
CIRCLE
  5
6FBE
  8
0
  6
CONTINUOUS
 62
     7
 10
0.0
 20
0.0
 30
0.0
 40
7.400000000000003
  0
CIRCLE
  5
6FBF
  8
0
  6
DASHED
 62
     3
 10
0.0
 20
0.0
 30
0.0
 40
7.5999999999999934
  0
LINE
  5
6FC0
  8
0
  6
CONTINUOUS
 62
     7
 10
30.87875914043272
 20
3.5
 30
0.0
 11
30.87875914043271
 21
-3.5
 31
0.0
  0
LINE
  5
6FC1
  8
0
  6
CONTINUOUS
 62
     7
 10
31.37875914043272
 20
4.0
 30
0.0
 11
205.87875914043269
 21
4.0
 31
0.0
  0
LINE
  5
6FC2
  8
0
  6
CONTINUOUS
 62
     7
 10
31.37875914043271
 20
-4.0
 30
0.0
 11
205.87875914043269
 21
-4.0
 31
0.0
  0
LINE
  5
6FC3
  8
0
  6
CONTINUOUS
 62
     7
 10
430.87875914043269
 20
3.5
 30
0.0
 11
430.87875914043269
 21
-3.5
 31
0.0
  0
LINE
  5
6FC4
  8
0
  6
CONTINUOUS
 62
     7
 10
31.37875914043272
 20
-0.8897126001056644
 30
0.0
 11
205.87875914043269
 21
-0.8897126001056644
 31
0.0
  0
LINE
  5
6FC5
  8
0
  6
CONTINUOUS
 62
     7
 10
31.37875914043272
 20
0.1990033327192158
 30
0.0
 11
205.87875914043269
 21
0.1990033327192158
 31
0.0
  0
LINE
  5
6FC6
  8
0
  6
DASHED
 62
     3
 10
205.87875914043269
 20
-0.8897126001056641
 30
0.0
 11
230.87875914043261
 21
-0.8897126001056641
 31
0.0
  0
LINE
  5
6FC7
  8
0
  6
DASHED
 62
     3
 10
205.87875914043269
 20
-4.0
 30
0.0
 11
230.87875914043261
 21
-4.0
 31
0.0
  0
LINE
  5
6FC8
  8
0
  6
DASHED
 62
     3
 10
205.87875914043269
 20
0.1990033327192151
 30
0.0
 11
230.87875914043261
 21
0.1990033327192151
 31
0.0
  0
LINE
  5
6FC9
  8
0
  6
DASHED
 62
     3
 10
205.87875914043269
 20
4.0
 30
0.0
 11
230.87875914043261
 21
4.0
 31
0.0
  0
LINE
  5
6FCA
  8
0
  6
CONTINUOUS
 62
     7
 10
230.87875914043261
 20
-4.0
 30
0.0
 11
430.37875914043269
 21
-4.0
 31
0.0
  0
LINE
  5
6FCB
  8
0
  6
CONTINUOUS
 62
     7
 10
230.87875914043261
 20
-0.8897126001056644
 30
0.0
 11
430.37875914043269
 21
-0.8897126001056644
 31
0.0
  0
LINE
  5
6FCC
  8
0
  6
CONTINUOUS
 62
     7
 10
230.87875914043261
 20
0.1990033327192158
 30
0.0
 11
430.37875914043269
 21
0.1990033327192158
 31
0.0
  0
LINE
  5
6FCD
  8
0
  6
CONTINUOUS
 62
     7
 10
230.87875914043261
 20
4.0
 30
0.0
 11
430.37875914043269
 21
4.0
 31
0.0
  0
ARC
  5
6FD0
  8
0
  6
CONTINUOUS
 62
     7
 10
222.37875914043269
 20
17.919237570746411
 30
0.0
 40
1.25
 50
270.0
 51
90.0
  0
LINE
  5
6FD1
  8
0
  6
CONTINUOUS
 62
     7
 10
214.37875914043269
 20
16.669237570746411
 30
0.0
 11
222.37875914043269
 21
16.669237570746411
 31
0.0
  0
ARC
  5
6FD2
  8
0
  6
CONTINUOUS
 62
     7
 10
214.37875914043269
 20
17.919237570746411
 30
0.0
 40
1.25
 50
90.0
 51
270.0
  0
LINE
  5
6FD3
  8
0
  6
CONTINUOUS
 62
     7
 10
214.37875914043269
 20
19.1692375707464
 30
0.0
 11
222.37875914043269
 21
19.1692375707464
 31
0.0
  0
LINE
  5
6FD5
  8
CENTER
  6
CENTER
 62
     1
 10
225.62875914043269
 20
17.919237570746411
 30
0.0
 11
211.12875914043269
 21
17.919237570746411
 31
0.0
  0
LINE
  5
705A
  8
0
  6
CONTINUOUS
 62
     7
 10
30.87875914043272
 20
3.5
 30
0.0
 11
31.37875914043272
 21
4.0
 31
0.0
  0
LINE
  5
705B
  8
0
  6
CONTINUOUS
 62
     7
 10
30.87875914043271
 20
-3.5
 30
0.0
 11
31.37875914043271
 21
-4.0
 31
0.0
  0
LINE
  5
705C
  8
0
  6
CONTINUOUS
 62
     7
 10
430.37875914043269
 20
4.0
 30
0.0
 11
430.87875914043269
 21
3.5
 31
0.0
  0
LINE
  5
705D
  8
0
  6
CONTINUOUS
 62
     7
 10
430.87875914043269
 20
-3.5
 30
0.0
 11
430.37875914043269
 21
-4.0
 31
0.0
  0
LINE
  5
705E
  8
0
  6
CONTINUOUS
 62
     7
 10
430.37875914043269
 20
4.0
 30
0.0
 11
430.37875914043269
 21
-4.0
 31
0.0
  0
LINE
  5
705F
  8
0
  6
CONTINUOUS
 62
     7
 10
31.37875914043272
 20
4.0
 30
0.0
 11
31.37875914043272
 21
-4.0
 31
0.0
  0
CIRCLE
  5
7060
  8
0
  6
CONTINUOUS
 62
     7
 10
0.0
 20
0.0
 30
0.0
 40
3.5
  0
LINE
  5
7061
  8
0
  6
CONTINUOUS
 62
     7
 10
213.12875914043269
 20
9.2999999994999882
 30
0.0
 11
223.62875914043269
 21
9.2999999994999882
 31
0.0
  0
LINE
  5
7068
  8
0
  6
CONTINUOUS
 62
     7
 10
213.12875914043269
 20
7.9017403151141332
 30
0.0
 11
213.12875914043269
 21
9.2999999994999882
 31
0.0
  0
LINE
  5
7069
  8
0
  6
CONTINUOUS
 62
     7
 10
223.62875914043269
 20
7.9017403151141332
 30
0.0
 11
223.62875914043269
 21
9.2999999994999882
 31
0.0
  0
LINE
  5
706A
  8
0
  6
CONTINUOUS
 62
     7
 10
-1.25
 20
9.2999999994999882
 30
0.0
 11
1.2499999970000031
 21
9.2999999994999882
 31
0.0
  0
LINE
  5
706B
  8
0
  6
CONTINUOUS
 62
     7
 10
1.2499999970000031
 20
7.9017403140999818
 30
0.0
 11
1.2499999970000031
 21
9.2999999994999882
 31
0.0
  0
LINE
  5
706C
  8
0
  6
CONTINUOUS
 62
     7
 10
-1.25
 20
7.901740314600004
 30
0.0
 11
-1.25
 21
9.2999999994999882
 31
0.0
  0
INSERT
  5
706E
  8
0
  6
CONTINUOUS
 62
     7
  2
*U3
 10
0.0
 20
0.0
 30
0.0
  0
INSERT
  5
706F
  8
0
  6
CONTINUOUS
 62
     7
  2
*U4
 10
0.0
 20
0.0
 30
0.0
  0
LINE
  5
713E
  8
0
  6
CONTINUOUS
 62
     7
 10
217.47875914043269
 20
7.9017403151141332
 30
0.0
 11
213.12875914043269
 21
7.9017403151141332
 31
0.0
  0
LINE
  5
7147
  8
0
  6
CONTINUOUS
 62
     7
 10
219.2787591404327
 20
7.9017403151141332
 30
0.0
 11
223.62875914043269
 21
7.9017403151141332
 31
0.0
  0
CIRCLE
  5
719D
  8
0
  6
CONTINUOUS
 62
     7
 10
0.0
 20
0.0
 30
0.0
 40
1.2295
  0
CIRCLE
  5
719E
  8
0
  6
CONTINUOUS
 62
     3
 10
0.0
 20
0.0
 30
0.0
 40
1.5
  0
LINE
  5
719F
  8
0
  6
DASHED
 62
     3
 10
30.87875914043272
 20
1.4999999999999429
 30
0.0
 11
36.878759140432713
 21
1.4999999999999429
 31
0.0
  0
LINE
  5
71A0
  8
0
  6
DASHED
 62
     3
 10
30.87875914043272
 20
1.229499999999943
 30
0.0
 11
38.378759140432713
 21
1.229499999999943
 31
0.0
  0
LINE
  5
71A1
  8
0
  6
DASHED
 62
     3
 10
30.87875914043272
 20
-1.229500000000056
 30
0.0
 11
38.378759140432713
 21
-1.2295000000000571
 31
0.0
  0
LINE
  5
71A2
  8
0
  6
DASHED
 62
     3
 10
30.87875914043272
 20
-1.500000000000056
 30
0.0
 11
36.878759140432713
 21
-1.500000000000056
 31
0.0
  0
LINE
  5
71A3
  8
0
  6
DASHED
 62
     3
 10
36.878759140432713
 20
1.4999999999999429
 30
0.0
 11
37.34727888388008
 21
1.229499999999943
 31
0.0
  0
LINE
  5
71A4
  8
0
  6
DASHED
 62
     3
 10
38.378759140432713
 20
-1.229500000000038
 30
0.0
 11
38.378759140432713
 21
1.229499999999933
 31
0.0
  0
LINE
  5
71A5
  8
0
  6
DASHED
 62
     3
 10
38.378759140432713
 20
-1.229500000000056
 30
0.0
 11
39.088611296401368
 21
-0.0000000000000332
 31
0.0
  0
LINE
  5
71A6
  8
0
  6
DASHED
 62
     3
 10
38.378759140432713
 20
1.229499999999943
 30
0.0
 11
39.088611296401368
 21
-0.0000000000000332
 31
0.0
  0
LINE
  5
71A7
  8
0
  6
DASHED
 62
     3
 10
36.878759140432713
 20
-1.500000000000056
 30
0.0
 11
36.878759140432713
 21
1.4999999999999429
 31
0.0
  0
LINE
  5
71A8
  8
0
  6
DASHED
 62
     3
 10
36.878759140432713
 20
-1.4999999999999429
 30
0.0
 11
37.34727888388008
 21
-1.229499999999943
 31
0.0
  0
LINE
  5
7203
  8
CENTER
  6
CENTER
 62
     1
 10
221.1283122680727
 20
6.2255555365886188
 30
0.0
 11
215.62875914043269
 21
6.2255555365886188
 31
0.0
  0
LINE
  5
7204
  8
CENTER
  6
CENTER
 62
     1
 10
215.6285060982909
 20
-6.8764739408833897
 30
0.0
 11
221.12901218257429
 21
-6.8764739408833897
 31
0.0
  0
ARC
  5
7205
  8
0
  6
CONTINUOUS
 62
     7
 10
218.00147412566571
 20
6.2193137361446791
 30
0.0
 40
0.3727672468042545
 50
115.632552387847
 51
179.04056609301651
  0
ARC
  5
7206
  8
0
  6
CONTINUOUS
 62
     7
 10
218.06494878637119
 20
6.2262384900061907
 30
0.0
 40
0.436190180597091
 50
180.08970941154411
 51
241.70182963268681
  0
ARC
  5
7207
  8
0
  6
CONTINUOUS
 62
     7
 10
218.7560441551997
 20
6.2193137361446791
 30
0.0
 40
0.3727672468042545
 50
0.9594339069834916
 51
64.367447612153029
  0
ARC
  5
7208
  8
0
  6
CONTINUOUS
 62
     7
 10
218.69256949449419
 20
6.2262384900061907
 30
0.0
 40
0.436190180597091
 50
298.29817036731322
 51
359.91029058845589
  0
ARC
  5
7209
  8
0
  6
CONTINUOUS
 62
     7
 10
218.37875914043269
 20
7.5590554004991661
 30
0.0
 40
1.794070371341322
 50
253.13168878976001
 51
286.86831121023999
  0
ARC
  5
720A
  8
0
  6
CONTINUOUS
 62
     7
 10
218.37875914043269
 20
4.5173713742678867
 30
0.0
 40
2.107978309417617
 50
75.19805224033999
 51
104.8019477596617
  0
ARC
  5
720B
  8
0
  6
CONTINUOUS
 62
     7
 10
217.9446179822701
 20
-6.8867031130448471
 30
0.0
 40
0.3160244356534031
 50
98.559051365750676
 51
178.1451093132348
  0
ARC
  5
720C
  8
0
  6
CONTINUOUS
 62
     7
 10
217.91349691640281
 20
-6.8465250511721774
 30
0.0
 40
0.2863084648754301
 50
186.00432745517719
 51
215.93727732784859
  0
ARC
  5
720D
  8
0
  6
CONTINUOUS
 62
     7
 10
218.81290029859511
 20
-6.8867031130448471
 30
0.0
 40
0.3160244356534031
 50
1.8548906867651589
 51
81.440948634249324
  0
ARC
  5
720E
  8
0
  6
CONTINUOUS
 62
     7
 10
218.84402136446249
 20
-6.8465250511721774
 30
0.0
 40
0.2863084648754301
 50
324.06272267215132
 51
353.99567254482258
  0
ARC
  5
720F
  8
0
  6
CONTINUOUS
 62
     7
 10
218.37875914043261
 20
-8.833603009227728
 30
0.0
 40
2.3100733639412181
 50
77.977599225408355
 51
102.02240077459329
  0
ARC
  5
7210
  8
0
  6
CONTINUOUS
 62
     7
 10
218.37875914043261
 20
-4.978298325447545
 30
0.0
 40
2.1839890251389469
 50
253.5840297591526
 51
286.41597024084729
  0
ARC
  5
7211
  8
0
  6
CONTINUOUS
 62
     7
 10
217.83961063725459
 20
-6.8833724129799387
 30
0.0
 40
0.2053063201015278
 50
219.71588633162659
 51
247.65132258632701
  0
ARC
  5
7212
  8
0
  6
CONTINUOUS
 62
     7
 10
218.91790764361059
 20
-6.8833724129799387
 30
0.0
 40
0.2053063201015278
 50
292.34867741367469
 51
320.28411366837338
  0
VIEWPORT
  5
6D16
 67
     1
  8
0
  6
CONTINUOUS
 62
     7
 10
128.5
 20
97.5
 30
0.0
 40
622.87456647398835
 41
222.18000000000001
 68
     1
 69
     1
1001
ACAD
1000
MVIEW
1002
{
1070
    16
1010
0.0
1020
0.0
1030
0.0
1010
0.0
1020
0.0
1030
1.0
1040
0.0
1040
222.18000000000001
1040
128.5
1040
97.5
1040
50.0
1040
0.0
1040
0.0
1070
     0
1070
  1000
1070
     1
1070
     1
1070
     0
1070
     0
1070
     0
1070
     0
1040
0.0
1040
0.0
1040
0.0
1040
10.0
1040
10.0
1040
10.0
1040
10.0
1070
     0
1002
{
1002
}
1002
}
  0
VIEWPORT
  5
6D1B
 67
     1
  8
0
  6
CONTINUOUS
 62
     7
 10
128.5
 20
97.5
 30
0.0
 40
205.59999999999999
 41
156.0
 68
     2
 69
     2
1001
ACAD
1000
MVIEW
1002
{
1070
    16
1010
0.0
1020
0.0
1030
0.0
1010
0.0
1020
0.0
1030
1.0
1040
0.0
1040
268.34382130111919
1040
166.06711243968169
1040
53.835407184513031
1040
50.0
1040
0.0
1040
0.0
1070
     0
1070
  1000
1070
     1
1070
     3
1070
     0
1070
     0
1070
     0
1070
     0
1040
0.0
1040
0.0
1040
0.0
1040
10.0
1040
10.0
1040
10.0
1040
10.0
1070
     0
1002
{
1002
}
1002
}
  0
ENDSEC
  0
EOF
