  0
SECTION
  2
HEADER
  9
$ACADVER
  1
AC1009
  9
$INSBASE
 10
94.999583940144717
 20
44.741213303955639
 30
0.0
  9
$EXTMIN
 10
-12.82039782796102
 20
1.568258701775221
 30
-0.0000000349181948
  9
$EXTMAX
 10
90.066388137576041
 20
51.202691971895348
 30
0.0000000814935747
  9
$LIMMIN
 10
0.0
 20
0.0
  9
$LIMMAX
 10
74.25
 20
52.5
  9
$ORTHOMODE
 70
     0
  9
$REGENMODE
 70
     1
  9
$FILLMODE
 70
     1
  9
$QTEXTMODE
 70
     0
  9
$MIRRTEXT
 70
     1
  9
$DRAGMODE
 70
     2
  9
$LTSCALE
 40
1.0
  9
$OSMODE
 70
   695
  9
$ATTMODE
 70
     1
  9
$TEXTSIZE
 40
4.0
  9
$TRACEWID
 40
1.0
  9
$TEXTSTYLE
  7
STANDARD
  9
$CLAYER
  8
0
  9
$CELTYPE
  6
CONTINUOUS
  9
$CECOLOR
 62
     7
  9
$DIMSCALE
 40
1.0
  9
$DIMASZ
 40
3.0
  9
$DIMEXO
 40
1.0
  9
$DIMDLI
 40
0.0
  9
$DIMRND
 40
0.0
  9
$DIMDLE
 40
0.0
  9
$DIMEXE
 40
1.0
  9
$DIMTP
 40
0.0
  9
$DIMTM
 40
0.0
  9
$DIMTXT
 40
4.0
  9
$DIMCEN
 40
0.0
  9
$DIMTSZ
 40
0.0
  9
$DIMTOL
 70
     0
  9
$DIMLIM
 70
     0
  9
$DIMTIH
 70
     0
  9
$DIMTOH
 70
     0
  9
$DIMSE1
 70
     0
  9
$DIMSE2
 70
     0
  9
$DIMTAD
 70
     1
  9
$DIMZIN
 70
     8
  9
$DIMBLK
  1

  9
$DIMASO
 70
     1
  9
$DIMSHO
 70
     1
  9
$DIMPOST
  1

  9
$DIMAPOST
  1

  9
$DIMALT
 70
     0
  9
$DIMALTD
 70
     2
  9
$DIMALTF
 40
0.04
  9
$DIMLFAC
 40
1.0
  9
$DIMTOFL
 70
     1
  9
$DIMTVP
 40
1.0
  9
$DIMTIX
 70
     1
  9
$DIMSOXD
 70
     0
  9
$DIMSAH
 70
     0
  9
$DIMBLK1
  1

  9
$DIMBLK2
  1

  9
$DIMSTYLE
  2
MISUMI
  9
$DIMCLRD
 70
     0
  9
$DIMCLRE
 70
     0
  9
$DIMCLRT
 70
     0
  9
$DIMTFAC
 40
0.6
  9
$DIMGAP
 40
1.0
  9
$LUNITS
 70
     2
  9
$LUPREC
 70
     2
  9
$SKETCHINC
 40
1.0
  9
$FILLETRAD
 40
0.0
  9
$AUNITS
 70
     0
  9
$AUPREC
 70
     0
  9
$MENU
  1
acad
  9
$ELEVATION
 40
0.0
  9
$PELEVATION
 40
0.0
  9
$THICKNESS
 40
0.0
  9
$LIMCHECK
 70
     0
  9
$BLIPMODE
 70
     0
  9
$CHAMFERA
 40
0.0
  9
$CHAMFERB
 40
0.0
  9
$SKPOLY
 70
     0
  9
$TDCREATE
 40
2451466.6336337621
  9
$TDUPDATE
 40
2454748.7437672801
  9
$TDINDWG
 40
0.4439681134
  9
$TDUSRTIMER
 40
0.4439653472
  9
$USRTIMER
 70
     1
  9
$ANGBASE
 50
0.0
  9
$ANGDIR
 70
     0
  9
$PDMODE
 70
     1
  9
$PDSIZE
 40
0.0
  9
$PLINEWID
 40
0.0
  9
$COORDS
 70
     1
  9
$SPLFRAME
 70
     0
  9
$SPLINETYPE
 70
     6
  9
$SPLINESEGS
 70
     8
  9
$ATTDIA
 70
     0
  9
$ATTREQ
 70
     1
  9
$HANDLING
 70
     1
  9
$HANDSEED
  5
42D7
  9
$SURFTAB1
 70
     6
  9
$SURFTAB2
 70
     6
  9
$SURFTYPE
 70
     6
  9
$SURFU
 70
     6
  9
$SURFV
 70
     6
  9
$UCSNAME
  2

  9
$UCSORG
 10
0.0
 20
0.0
 30
0.0
  9
$UCSXDIR
 10
1.0
 20
0.0
 30
0.0
  9
$UCSYDIR
 10
0.0
 20
1.0
 30
0.0
  9
$PUCSNAME
  2

  9
$PUCSORG
 10
0.0
 20
0.0
 30
0.0
  9
$PUCSXDIR
 10
1.0
 20
0.0
 30
0.0
  9
$PUCSYDIR
 10
0.0
 20
1.0
 30
0.0
  9
$USERI1
 70
     0
  9
$USERI2
 70
     0
  9
$USERI3
 70
     0
  9
$USERI4
 70
     0
  9
$USERI5
 70
     0
  9
$USERR1
 40
0.0
  9
$USERR2
 40
0.0
  9
$USERR3
 40
0.0
  9
$USERR4
 40
0.0
  9
$USERR5
 40
0.0
  9
$WORLDVIEW
 70
     1
  9
$SHADEDGE
 70
     3
  9
$SHADEDIF
 70
    70
  9
$TILEMODE
 70
     1
  9
$MAXACTVP
 70
    16
  9
$PLIMCHECK
 70
     0
  9
$PEXTMIN
 10
1.0000000000000000E+020
 20
1.0000000000000000E+020
 30
1.0000000000000000E+020
  9
$PEXTMAX
 10
-1.0000000000000000E+020
 20
-1.0000000000000000E+020
 30
-1.0000000000000000E+020
  9
$PLIMMIN
 10
0.0
 20
0.0
  9
$PLIMMAX
 10
420.0
 20
297.0
  9
$UNITMODE
 70
     0
  9
$VISRETAIN
 70
     0
  9
$PLINEGEN
 70
     0
  9
$PSLTSCALE
 70
     1
  0
ENDSEC
  0
SECTION
  2
TABLES
  0
TABLE
  2
VPORT
 70
     1
  0
VPORT
  2
*ACTIVE
 70
     0
 10
0.0
 20
0.0
 11
1.0
 21
1.0
 12
38.622995154807512
 22
26.385475336835281
 13
0.0
 23
0.0
 14
2.0
 24
2.0
 15
5.0
 25
5.0
 16
0.0
 26
0.0
 36
1.0
 17
0.0
 27
0.0
 37
0.0
 40
69.260278913113936
 41
1.4930467762326161
 42
50.0
 43
0.0
 44
0.0
 50
0.0
 51
0.0
 71
     0
 72
   100
 73
     1
 74
     0
 75
     0
 76
     0
 77
     0
 78
     1
  0
ENDTAB
  0
TABLE
  2
LTYPE
 70
     4
  0
LTYPE
  2
CONTINUOUS
 70
     0
  3
Solid line
 72
    65
 73
     0
 40
0.0
  0
LTYPE
  2
CENTER
 70
     0
  3
Center ____ _ ____ _ ____ _ ____ _ ____ _ ____
 72
    65
 73
     4
 40
2.0
 49
1.25
 49
-0.25
 49
0.25
 49
-0.25
  0
LTYPE
  2
DASHED
 70
     0
  3
__ __ __ __ __ __ __ __ __ __ __ __ __ __ __
 72
    65
 73
     2
 40
0.75
 49
0.5
 49
-0.25
  0
ENDTAB
  0
TABLE
  2
LAYER
 70
     9
  0
LAYER
  2
0
 70
     0
 62
     7
  6
CONTINUOUS
  0
LAYER
  2
CENTER
 70
     0
 62
     1
  6
CENTER
  0
LAYER
  2
DASHED
 70
     0
 62
     3
  6
DASHED
  0
ENDTAB
  0
TABLE
  2
STYLE
 70
     4
  0
STYLE
  2
STANDARD
 70
     0
 40
0.0
 41
1.0
 50
0.0
 71
     0
 42
4.0
  3
txt.shx
  4
bigfont.shx
  0
STYLE
  2
MISUMI
 70
     0
 40
0.0
 41
1.0
 50
0.0
 71
     0
 42
4.0
  3
txt
  4

  0
ENDTAB
  0
TABLE
  2
VIEW
 70
     0
  0
ENDTAB
  0
TABLE
  2
UCS
 70
     0
  0
ENDTAB
  0
TABLE
  2
APPID
 70
     5
  0
APPID
  2
ACAD
 70
     0
  0
APPID
  2
GENIUS_GENOREF_13
 70
     0
  0
APPID
  2
_CALL_MAC$
 70
     0
  0
APPID
  2
ACAD_PSEXT
 70
     0
  0
APPID
  2
ACAECLAYERSTANDARD
 70
     0
  0
ENDTAB
  0
TABLE
  2
DIMSTYLE
 70
     6
  0
DIMSTYLE
  2
MISUMI
 70
     0
  3

  4

  5

  6

  7

 40
1.0
 41
3.0
 42
1.0
 43
0.0
 44
1.0
 45
0.0
 46
0.0
 47
0.0
 48
0.0
140
4.0
141
0.0
142
0.0
143
0.04
144
1.0
145
1.0
146
0.6
147
1.0
 71
     0
 72
     0
 73
     0
 74
     0
 75
     0
 76
     0
 77
     1
 78
     8
170
     0
171
     2
172
     1
173
     0
174
     1
175
     0
176
     0
177
     0
178
     0
  0
ENDTAB
  0
ENDSEC
  0
SECTION
  2
BLOCKS
  0
BLOCK
  8
0
  2
$MODEL_SPACE
 70
     0
 10
0.0
 20
0.0
 30
0.0
  3
$MODEL_SPACE
  1

  0
ENDBLK
  5
381
  8
0
  0
BLOCK
 67
     1
  8
0
  2
$PAPER_SPACE
 70
     0
 10
0.0
 20
0.0
 30
0.0
  3
$PAPER_SPACE
  1

  0
ENDBLK
  5
37D
 67
     1
  8
0
  0
BLOCK
  8
0
 62
     7
  2
*U54
 70
     1
 10
0.0
 20
0.0
 30
0.0
  3
*U54
  1

  0
TEXT
  5
41AB
  8
0
  6
CONTINUOUS
 10
-0.3267774737248601
 20
0.225585305160223
 30
0.0
 40
1.0
  1
+0.1
  0
ENDBLK
  5
41AD
  8
0
 62
     7
  0
BLOCK
  8
0
 62
     7
  2
*U55
 70
     1
 10
0.0
 20
0.0
 30
0.0
  3
*U55
  1

  0
TEXT
  5
41AF
  8
0
  6
CONTINUOUS
 10
0.7169472437163762
 20
-1.180962716056114
 30
0.0
 40
1.0
  1
0
  0
ENDBLK
  5
41B1
  8
0
 62
     7
  0
BLOCK
  8
0
 62
     7
  2
*U56
 70
     1
 10
0.0
 20
0.0
 30
0.0
  3
*U56
  1

  0
TEXT
  5
41B3
  8
0
  6
CONTINUOUS
 10
-0.9296861715604337
 20
-3.3985289847238951
 30
0.0
 40
1.0
  1
1.6
  0
ENDBLK
  5
41B5
  8
0
 62
     7
  0
BLOCK
  8
0
 62
     7
  2
*U57
 70
     1
 10
0.0
 20
0.0
 30
0.0
  3
*U57
  1

  0
TEXT
  5
41B7
  8
0
  6
CONTINUOUS
 10
10.1001394647363
 20
34.250956564686241
 30
0.0
 40
2.0
  1
21.95
  0
ENDBLK
  5
41B9
  8
0
 62
     7
  0
BLOCK
  8
0
 62
     7
  2
*U58
 70
     1
 10
0.0
 20
0.0
 30
0.0
  3
*U58
  1

  0
TEXT
  5
41BB
  8
0
  6
CONTINUOUS
 10
1.8999998137849099
 20
6.2521765038492401
 30
0.0
 40
2.0
  1
6.78
 50
90.0
  0
ENDBLK
  5
41BD
  8
0
 62
     7
  0
BLOCK
  8
0
 62
     7
  2
*U59
 70
     1
 10
0.0
 20
0.0
 30
0.0
  3
*U59
  1

  0
TEXT
  5
41BF
  8
0
  6
CONTINUOUS
 10
74.199999999999974
 20
137.8802089995234
 30
0.0
 40
1.6000000000000001
  1
d
 50
90.0
  0
ENDBLK
  5
41C1
  8
0
 62
     7
  0
BLOCK
  8
0
 62
     7
  2
*U60
 70
     1
 10
0.0
 20
0.0
 30
0.0
  3
*U60
  1

  0
TEXT
  5
41C3
  8
0
  6
CONTINUOUS
 10
105.2
 20
137.8802089995234
 30
0.0
 40
1.6000000000000001
  1
d
 50
90.0
  0
ENDBLK
  5
41C5
  8
0
 62
     7
  0
BLOCK
  8
0
 62
     7
  2
*U61
 70
     1
 10
0.0
 20
0.0
 30
0.0
  3
*U61
  1

  0
TEXT
  5
41C7
  8
0
  6
CONTINUOUS
 10
109.2
 20
137.8802089995234
 30
0.0
 40
1.6000000000000001
  1
D
 50
90.0
  0
ENDBLK
  5
41C9
  8
0
 62
     7
  0
BLOCK
  8
0
 62
     7
  2
*U62
 70
     1
 10
0.0
 20
0.0
 30
0.0
  3
*U62
  1

  0
TEXT
  5
41CB
  8
0
  6
CONTINUOUS
 10
83.249979223673506
 20
126.8
 30
0.0
 40
1.6000000000000001
  1
L
  0
ENDBLK
  5
41CD
  8
0
 62
     7
  0
BLOCK
  8
0
 62
     7
  2
*U63
 70
     1
 10
0.0
 20
0.0
 30
0.0
  3
*U63
  1

  0
TEXT
  5
41CF
  8
0
  6
CONTINUOUS
 10
83.387711067396054
 20
122.8
 30
0.0
 40
1.6000000000000001
  1
L
  0
ENDBLK
  5
41D1
  8
0
 62
     7
  0
BLOCK
  8
0
 62
     7
  2
*U64
 70
     1
 10
0.0
 20
0.0
 30
0.0
  3
*U64
  1

  0
TEXT
  5
41D3
  8
0
  6
CONTINUOUS
 10
90.360645890340976
 20
126.8
 30
0.0
 40
1.6000000000000001
  1
16
  0
ENDBLK
  5
41D5
  8
0
 62
     7
  0
BLOCK
  8
0
 62
     7
  2
*U65
 70
     1
 10
0.0
 20
0.0
 30
0.0
  3
*U65
  1

  0
TEXT
  5
41D7
  8
0
  6
CONTINUOUS
 10
98.478609077627297
 20
122.8
 30
0.0
 40
1.6000000000000001
  1
L
  0
ENDBLK
  5
41D9
  8
0
 62
     7
  0
BLOCK
  8
0
 62
     7
  2
*U66
 70
     1
 10
0.0
 20
0.0
 30
0.0
  3
*U66
  1

  0
TEXT
  5
41DB
  8
0
  6
CONTINUOUS
 10
97.882779223674248
 20
126.8
 30
0.0
 40
1.6000000000000001
  1
L
  0
ENDBLK
  5
41DD
  8
0
 62
     7
  0
BLOCK
  8
0
 62
     7
  2
*U67
 70
     1
 10
0.0
 20
0.0
 30
0.0
  3
*U67
  1

  0
TEXT
  5
41DF
  8
0
  6
CONTINUOUS
 10
71.199999999999974
 20
135.74687566618999
 30
0.0
 40
1.6000000000000001
  1
P.C.D
 50
90.0
  0
ENDBLK
  5
41E1
  8
0
 62
     7
  0
BLOCK
  8
0
 62
     7
  2
*U68
 70
     1
 10
0.0
 20
0.0
 30
0.0
  3
*U68
  1

  0
TEXT
  5
41E3
  8
0
  6
CONTINUOUS
 10
67.199999999999974
 20
137.8802089995234
 30
0.0
 40
1.6000000000000001
  1
D
 50
90.0
  0
ENDBLK
  5
41E5
  8
0
 62
     7
  0
BLOCK
  8
0
 62
     7
  2
*U69
 70
     1
 10
0.0
 20
0.0
 30
0.0
  3
*U69
  1

  0
TEXT
  5
41E7
  8
0
  6
CONTINUOUS
 10
125.3504000000035
 20
137.8802089995234
 30
0.0
 40
1.6000000000000001
  1
d
 50
90.0
  0
ENDBLK
  5
41E9
  8
0
 62
     7
  0
BLOCK
  8
0
 62
     7
  2
*U70
 70
     1
 10
0.0
 20
0.0
 30
0.0
  3
*U70
  1

  0
TEXT
  5
41EB
  8
0
  6
CONTINUOUS
 10
122.3504000000035
 20
135.74687566618999
 30
0.0
 40
1.6000000000000001
  1
P.C.D
 50
90.0
  0
ENDBLK
  5
41ED
  8
0
 62
     7
  0
BLOCK
  8
0
 62
     7
  2
*U71
 70
     1
 10
0.0
 20
0.0
 30
0.0
  3
*U71
  1

  0
TEXT
  5
41EF
  8
0
  6
CONTINUOUS
 10
118.3504000000034
 20
137.8802089995234
 30
0.0
 40
1.6000000000000001
  1
D
 50
90.0
  0
ENDBLK
  5
41F1
  8
0
 62
     7
  0
BLOCK
  8
0
 62
     7
  2
*U72
 70
     1
 10
0.0
 20
0.0
 30
0.0
  3
*U72
  1

  0
TEXT
  5
41F3
  8
0
  6
CONTINUOUS
 10
134.40037922367711
 20
126.7999999999999
 30
0.0
 40
1.6000000000000001
  1
L
  0
ENDBLK
  5
41F5
  8
0
 62
     7
  0
BLOCK
  8
0
 62
     7
  2
*U73
 70
     1
 10
0.0
 20
0.0
 30
0.0
  3
*U73
  1

  0
TEXT
  5
41F7
  8
0
  6
CONTINUOUS
 10
134.5381110673996
 20
122.7999999999999
 30
0.0
 40
1.6000000000000001
  1
L
  0
ENDBLK
  5
41F9
  8
0
 62
     7
  0
BLOCK
  8
0
 62
     7
  2
*U74
 70
     1
 10
0.0
 20
0.0
 30
0.0
  3
*U74
  1

  0
TEXT
  5
41FB
  8
0
  6
CONTINUOUS
 10
143.09269922367781
 20
126.7999999999999
 30
0.0
 40
1.6000000000000001
  1
L
  0
ENDBLK
  5
41FD
  8
0
 62
     7
  0
BLOCK
  8
0
 62
     7
  2
*U75
 70
     1
 10
0.0
 20
0.0
 30
0.0
  3
*U75
  1

  0
TEXT
  5
41FF
  8
0
  6
CONTINUOUS
 10
150.4099200000035
 20
137.8802089995234
 30
0.0
 40
1.6000000000000001
  1
d
 50
90.0
  0
ENDBLK
  5
4201
  8
0
 62
     7
  0
BLOCK
  8
0
 62
     7
  2
*U76
 70
     1
 10
0.0
 20
0.0
 30
0.0
  3
*U76
  1

  0
TEXT
  5
4203
  8
0
  6
CONTINUOUS
 10
154.4099200000035
 20
137.8802089995234
 30
0.0
 40
1.6000000000000001
  1
D
 50
90.0
  0
ENDBLK
  5
4205
  8
0
 62
     7
  0
BLOCK
  8
0
 62
     7
  2
*U77
 70
     1
 10
0.0
 20
0.0
 30
0.0
  3
*U77
  1

  0
TEXT
  5
4207
  8
0
  6
CONTINUOUS
 10
-27.812463695976248
 20
94.756735458543673
 30
0.0
 40
1.0
  1
1
 50
90.0
  0
ENDBLK
  5
4209
  8
0
 62
     7
  0
BLOCK
  8
0
 62
     7
  2
*U78
 70
     1
 10
0.0
 20
0.0
 30
0.0
  3
*U78
  1

  0
TEXT
  5
420B
  8
0
  6
CONTINUOUS
 10
-10.32515907293752
 20
82.053281726817403
 30
0.0
 40
1.0
  1
2
  0
ENDBLK
  5
420D
  8
0
 62
     7
  0
BLOCK
  8
0
 62
     7
  2
*U79
 70
     1
 10
0.0
 20
0.0
 30
0.0
  3
*U79
  1

  0
TEXT
  5
420F
  8
0
  6
CONTINUOUS
 10
-20.812463695976248
 20
94.756735458543673
 30
0.0
 40
1.0
  1
1
 50
90.0
  0
ENDBLK
  5
4211
  8
0
 62
     7
  0
BLOCK
  8
0
 62
     7
  2
*U80
 70
     1
 10
0.0
 20
0.0
 30
0.0
  3
*U80
  1

  0
TEXT
  5
4213
  8
0
  6
CONTINUOUS
 10
10.18753630402375
 20
94.756735458543673
 30
0.0
 40
1.0
  1
2
 50
90.0
  0
ENDBLK
  5
4215
  8
0
 62
     7
  0
BLOCK
  8
0
 62
     7
  2
*U81
 70
     1
 10
0.0
 20
0.0
 30
0.0
  3
*U81
  1

  0
TEXT
  5
4217
  8
0
  6
CONTINUOUS
 10
4.3076409270632459
 20
82.053281726817403
 30
0.0
 40
1.0
  1
2
  0
ENDBLK
  5
4219
  8
0
 62
     7
  0
BLOCK
  8
0
 62
     7
  2
*U82
 70
     1
 10
0.0
 20
0.0
 30
0.0
  3
*U82
  1

  0
TEXT
  5
421B
  8
0
  6
CONTINUOUS
 10
-10.35217290772486
 20
78.056924904701432
 30
0.0
 40
1.0
  1
3
  0
ENDBLK
  5
421D
  8
0
 62
     7
  0
BLOCK
  8
0
 62
     7
  2
*U83
 70
     1
 10
0.0
 20
0.0
 30
0.0
  3
*U83
  1

  0
TEXT
  5
421F
  8
0
  6
CONTINUOUS
 10
4.7745766988955722
 20
78.035325227971711
 30
0.0
 40
1.0
  1
3
  0
ENDBLK
  5
4221
  8
0
 62
     7
  0
BLOCK
  8
0
 62
     7
  2
*U84
 70
     1
 10
0.0
 20
0.0
 30
0.0
  3
*U84
  1

  0
TEXT
  5
4223
  8
0
  6
CONTINUOUS
 10
30.337936304027242
 20
94.756735458543659
 30
0.0
 40
1.0
  1
1
 50
90.0
  0
ENDBLK
  5
4225
  8
0
 62
     7
  0
BLOCK
  8
0
 62
     7
  2
*U85
 70
     1
 10
0.0
 20
0.0
 30
0.0
  3
*U85
  1

  0
TEXT
  5
4227
  8
0
  6
CONTINUOUS
 10
23.337936304027242
 20
94.756735458543659
 30
0.0
 40
1.0
  1
1
 50
90.0
  0
ENDBLK
  5
4229
  8
0
 62
     7
  0
BLOCK
  8
0
 62
     7
  2
*U86
 70
     1
 10
0.0
 20
0.0
 30
0.0
  3
*U86
  1

  0
TEXT
  5
422B
  8
0
  6
CONTINUOUS
 10
40.825240927066069
 20
82.053281726817374
 30
0.0
 40
1.0
  1
2
  0
ENDBLK
  5
422D
  8
0
 62
     7
  0
BLOCK
  8
0
 62
     7
  2
*U87
 70
     1
 10
0.0
 20
0.0
 30
0.0
  3
*U87
  1

  0
TEXT
  5
422F
  8
0
  6
CONTINUOUS
 10
40.798227092278751
 20
78.056924904701404
 30
0.0
 40
1.0
  1
3
  0
ENDBLK
  5
4231
  8
0
 62
     7
  0
BLOCK
  8
0
 62
     7
  2
*U88
 70
     1
 10
0.0
 20
0.0
 30
0.0
  3
*U88
  1

  0
TEXT
  5
4233
  8
0
  6
CONTINUOUS
 10
49.517560927066818
 20
82.053281726817374
 30
0.0
 40
1.0
  1
2
  0
ENDBLK
  5
4235
  8
0
 62
     7
  0
BLOCK
  8
0
 62
     7
  2
*U89
 70
     1
 10
0.0
 20
0.0
 30
0.0
  3
*U89
  1

  0
TEXT
  5
4237
  8
0
  6
CONTINUOUS
 10
55.397456304027287
 20
94.756735458543673
 30
0.0
 40
1.0
  1
2
 50
90.0
  0
ENDBLK
  5
4239
  8
0
 62
     7
  0
BLOCK
  8
0
 62
     7
  2
*X90
 70
     1
 10
0.0
 20
0.0
 30
0.0
  3
*X90
  1

  0
LINE
  5
424F
  8
0
  6
CONTINUOUS
 62
     0
 10
9.9332029661289916
 20
43.274075931389099
 30
0.0
 11
10.34185621189482
 21
43.682729177154933
 31
0.0
  0
LINE
  5
4250
  8
0
  6
CONTINUOUS
 62
     0
 10
8.1654360131626227
 20
43.274075931389099
 30
0.0
 11
10.16543601316261
 21
45.274075931389092
 31
0.0
  0
LINE
  5
4251
  8
0
  6
CONTINUOUS
 62
     0
 10
7.341915316463254
 20
44.218322187656099
 30
0.0
 11
8.3976690601962396
 21
45.274075931389092
 31
0.0
  0
LINE
  5
4252
  8
0
  6
CONTINUOUS
 62
     0
 10
6.3976690601962529
 20
43.274075931389099
 30
0.0
 11
7.341915316463254
 21
44.218322187656099
 31
0.0
  0
LINE
  5
4253
  8
0
  6
CONTINUOUS
 62
     0
 10
4.629902107229884
 20
43.274075931389099
 30
0.0
 11
6.6299021072298698
 21
45.274075931389092
 31
0.0
  0
LINE
  5
4254
  8
0
  6
CONTINUOUS
 62
     0
 10
2.8621351542635192
 20
43.274075931389099
 30
0.0
 11
4.862135154263501
 21
45.274075931389092
 31
0.0
  0
LINE
  5
4255
  8
0
  6
CONTINUOUS
 62
     0
 10
2.341915316463254
 20
44.521623046555199
 30
0.0
 11
3.0943682012971321
 21
45.274075931389092
 31
0.0
  0
ENDBLK
  5
4257
  8
0
 62
     7
  0
BLOCK
  8
0
 62
     7
  2
*U91
 70
     1
 10
0.0
 20
0.0
 30
0.0
  3
*U91
  1

  0
TEXT
  5
4263
  8
0
  6
CONTINUOUS
 62
     0
 10
129.9557566670241
 20
72.375051826995445
 30
0.0
 40
4.0
  1
H
  7
MISUMI
  0
ENDBLK
  5
4265
  8
0
 62
     7
  0
BLOCK
  8
0
 62
     7
  2
*U92
 70
     1
 10
0.0
 20
0.0
 30
0.0
  3
*U92
  1

  0
TEXT
  5
4267
  8
0
  6
CONTINUOUS
 62
     0
 10
138.18545209849611
 20
56.977302112417192
 30
0.0
 40
4.0
  1
\U+2113
  7
MISUMI
  0
ENDBLK
  5
4269
  8
0
 62
     7
  0
BLOCK
  8
0
 62
     7
  2
*U93
 70
     1
 10
0.0
 20
0.0
 30
0.0
  3
*U93
  1

  0
TEXT
  5
426B
  8
0
  6
CONTINUOUS
 62
     0
 10
125.715908951288
 20
63.880877197356639
 30
0.0
 40
4.0
  1
W
  7
MISUMI
  0
ENDBLK
  5
426D
  8
0
 62
     7
  0
BLOCK
  8
0
 62
     7
  2
*U94
 70
     1
 10
0.0
 20
0.0
 30
0.0
  3
*U94
  1

  0
TEXT
  5
426F
  8
0
  6
CONTINUOUS
 62
     0
 10
100.6936481566616
 20
36.004278977074321
 30
0.0
 40
4.0
  1
D
 50
90.0
  7
MISUMI
  0
ENDBLK
  5
4271
  8
0
 62
     7
  0
BLOCK
  8
0
 62
     7
  2
*U95
 70
     1
 10
0.0
 20
0.0
 30
0.0
  3
*U95
  1

  0
TEXT
  5
4273
  8
0
  6
CONTINUOUS
 62
     0
 10
109.2163968707583
 20
36.004278977074321
 30
0.0
 40
4.0
  1
D
 50
90.0
  7
MISUMI
  0
ENDBLK
  5
4275
  8
0
 62
     7
  0
BLOCK
  8
0
 62
     7
  2
*U96
 70
     1
 10
0.0
 20
0.0
 30
0.0
  3
*U96
  1

  0
TEXT
  5
4277
  8
0
  6
CONTINUOUS
 62
     0
 10
153.71578846008049
 20
36.08549725118597
 30
0.0
 40
4.0
  1
d
 50
90.0
  7
MISUMI
  0
ENDBLK
  5
4279
  8
0
 62
     7
  0
BLOCK
  8
0
 62
     7
  2
*U97
 70
     1
 10
0.0
 20
0.0
 30
0.0
  3
*U97
  1

  0
TEXT
  5
427B
  8
0
  6
CONTINUOUS
 62
     0
 10
162.3457360220535
 20
36.004278977074449
 30
0.0
 40
4.0
  1
D
 50
90.0
  7
MISUMI
  0
ENDBLK
  5
427D
  8
0
 62
     7
  0
BLOCK
  8
0
 62
     7
  2
*X98
 70
     1
 10
0.0
 20
0.0
 30
0.0
  3
*X98
  1

  0
LINE
  5
4284
  8
0
  6
CONTINUOUS
 62
     0
 10
2.341915316463254
 20
30.12652881622277
 30
0.0
 11
3.0943682012971152
 21
29.374075931388909
 31
0.0
  0
LINE
  5
4285
  8
0
  6
CONTINUOUS
 62
     0
 10
2.8621351542634801
 20
31.374075931388901
 30
0.0
 11
4.8621351542634841
 21
29.374075931388909
 31
0.0
  0
LINE
  5
4286
  8
0
  6
CONTINUOUS
 62
     0
 10
4.6299021072298494
 20
31.374075931388901
 30
0.0
 11
6.6299021072298521
 21
29.374075931388909
 31
0.0
  0
LINE
  5
4287
  8
0
  6
CONTINUOUS
 62
     0
 10
7.341915316463254
 20
30.429829675121869
 30
0.0
 11
8.3976690601962183
 21
29.374075931388909
 31
0.0
  0
LINE
  5
4288
  8
0
  6
CONTINUOUS
 62
     0
 10
6.3976690601962183
 20
31.374075931388901
 30
0.0
 11
7.341915316463254
 21
30.429829675121869
 31
0.0
  0
LINE
  5
4289
  8
0
  6
CONTINUOUS
 62
     0
 10
8.1654360131625907
 20
31.374075931388901
 30
0.0
 11
10.16543601316258
 21
29.374075931388909
 31
0.0
  0
LINE
  5
428A
  8
0
  6
CONTINUOUS
 62
     0
 10
9.9332029661289596
 20
31.374075931388901
 30
0.0
 11
10.34185621189482
 21
30.965422685623039
 31
0.0
  0
ENDBLK
  5
428C
  8
0
 62
     7
  0
BLOCK
  8
0
 62
     7
  2
*U99
 70
     1
 10
0.0
 20
0.0
 30
0.0
  3
*U99
  1

  0
TEXT
  5
428E
  8
0
  6
CONTINUOUS
 62
     0
 10
32.062607007996803
 20
36.085497251185963
 30
0.0
 40
4.0
  1
d
 50
90.0
  7
MISUMI
  0
ENDBLK
  5
4290
  8
0
 62
     7
  0
BLOCK
  8
0
 62
     7
  2
*U100
 70
     1
 10
0.0
 20
0.0
 30
0.0
  3
*U100
  1

  0
TEXT
  5
4292
  8
0
  6
CONTINUOUS
 62
     0
 10
40.69255456996985
 20
36.004278977074442
 30
0.0
 40
4.0
  1
D
 50
90.0
  7
MISUMI
  0
ENDBLK
  5
4294
  8
0
 62
     7
  0
BLOCK
  8
0
 62
     7
  2
*U101
 70
     1
 10
0.0
 20
0.0
 30
0.0
  3
*U101
  1

  0
TEXT
  5
4296
  8
0
  6
CONTINUOUS
 62
     0
 10
-10.43678458132535
 20
36.004278977074172
 30
0.0
 40
4.0
  1
D
 50
90.0
  7
MISUMI
  0
ENDBLK
  5
4298
  8
0
 62
     7
  0
BLOCK
  8
0
 62
     7
  2
*U102
 70
     1
 10
0.0
 20
0.0
 30
0.0
  3
*U102
  1

  0
TEXT
  5
429A
  8
0
  6
CONTINUOUS
 62
     0
 10
16.532270646412488
 20
53.398972045678931
 30
0.0
 40
4.0
  1
\U+2113
  7
MISUMI
  0
ENDBLK
  5
429C
  8
0
 62
     7
  0
BLOCK
  8
0
 62
     7
  2
*U103
 70
     1
 10
0.0
 20
0.0
 30
0.0
  3
*U103
  1

  0
TEXT
  5
429E
  8
0
  6
CONTINUOUS
 62
     0
 10
74.052965867850631
 20
16.337893837009432
 30
0.0
 40
4.0
  1
23
  7
MISUMI
  0
ENDBLK
  5
42A0
  8
0
 62
     7
  0
BLOCK
  8
0
 62
     7
  2
*U104
 70
     1
 10
0.0
 20
0.0
 30
0.0
  3
*U104
  1

  0
TEXT
  5
42A2
  8
0
  6
CONTINUOUS
 62
     0
 10
74.002204446530826
 20
18.94787177915785
 30
0.0
 40
4.0
  1
20
  7
MISUMI
  0
ENDBLK
  5
42A4
  8
0
 62
     7
  0
BLOCK
  8
0
 62
     7
  2
*U105
 70
     1
 10
0.0
 20
0.0
 30
0.0
  3
*U105
  1

  0
TEXT
  5
42A6
  8
0
  6
CONTINUOUS
 62
     0
 10
5.0627274992043754
 20
60.330877197356642
 30
0.0
 40
4.0
  1
W
  7
MISUMI
  0
ENDBLK
  5
42A8
  8
0
 62
     7
  0
BLOCK
  8
0
 62
     7
  2
*U106
 70
     1
 10
0.0
 20
0.0
 30
0.0
  3
*U106
  1

  0
TEXT
  5
42AA
  8
0
  6
CONTINUOUS
 62
     0
 10
9.3025752149404362
 20
68.641629423327942
 30
0.0
 40
4.0
  1
H
  7
MISUMI
  0
ENDBLK
  5
42AC
  8
0
 62
     7
  0
BLOCK
  8
0
 62
     7
  2
*U107
 70
     1
 10
0.0
 20
0.0
 30
0.0
  3
*U107
  1

  0
TEXT
  5
42AE
  8
0
  6
CONTINUOUS
 62
     0
 10
25.073924246359521
 20
32.024583545602198
 30
0.0
 40
4.0
  1
15.9
 50
90.0
  7
MISUMI
  0
ENDBLK
  5
42B0
  8
0
 62
     7
  0
BLOCK
  8
0
 62
     7
  2
*U108
 70
     1
 10
0.0
 20
0.0
 30
0.0
  3
*U108
  1

  0
TEXT
  5
42B2
  8
0
  6
CONTINUOUS
 62
     0
 10
5.2924229306764774
 20
84.284507839673694
 30
0.0
 40
4.0
  1
19.5
  7
MISUMI
  0
ENDBLK
  5
42B4
  8
0
 62
     7
  0
BLOCK
  8
0
 62
     7
  2
*U109
 70
     1
 10
0.0
 20
0.0
 30
0.0
  3
*U109
  1

  0
TEXT
  5
42B6
  8
0
  6
CONTINUOUS
 62
     0
 10
16.58303206773229
 20
74.485602732032447
 30
0.0
 40
4.0
  1
5
  7
MISUMI
  0
ENDBLK
  5
42B8
  8
0
 62
     7
  0
BLOCK
  8
0
 62
     7
  2
*U110
 70
     1
 10
0.0
 20
0.0
 30
0.0
  3
*U110
  1

  0
TEXT
  5
42BA
  8
0
  6
CONTINUOUS
 62
     0
 10
-6.5291162997153052
 20
60.58971970943125
 30
0.0
 40
4.0
  1
8
  7
MISUMI
  0
ENDBLK
  5
42BC
  8
0
 62
     7
  0
BLOCK
  8
0
 62
     7
  2
*U111
 70
     1
 10
0.0
 20
0.0
 30
0.0
  3
*U111
  1

  0
TEXT
  5
42BE
  8
0
  6
CONTINUOUS
 62
     0
 10
-33.693400998745133
 20
32.024583545602198
 30
0.0
 40
4.0
  1
15.9
 50
90.0
  7
MISUMI
  0
ENDBLK
  5
42C0
  8
0
 62
     7
  0
BLOCK
  8
0
 62
     7
  2
*U112
 70
     1
 10
0.0
 20
0.0
 30
0.0
  3
*U112
  1

  0
TEXT
  5
42C2
  8
0
  6
CONTINUOUS
 62
     0
 10
-25.798821414552389
 20
34.613416032911729
 30
0.0
 40
4.0
  1
12
 50
90.0
  7
MISUMI
  0
ENDBLK
  5
42C4
  8
0
 62
     7
  0
BLOCK
  8
0
 62
     7
  2
*U113
 70
     1
 10
0.0
 20
0.0
 30
0.0
  3
*U113
  1

  0
TEXT
  5
42C6
  8
0
  6
CONTINUOUS
 62
     0
 10
46.255289948708707
 20
36.044888114130117
 30
0.0
 40
4.0
  1
8
 50
90.0
  7
MISUMI
  0
ENDBLK
  5
42C8
  8
0
 62
     7
  0
BLOCK
  8
0
 62
     7
  2
*U114
 70
     1
 10
0.0
 20
0.0
 30
0.0
  3
*U114
  1

  0
TEXT
  5
42CA
  8
0
  6
CONTINUOUS
 62
     0
 10
52.1448966351142
 20
34.623568317175959
 30
0.0
 40
4.0
  1
13
 50
90.0
  7
MISUMI
  0
ENDBLK
  5
42CC
  8
0
 62
     7
  0
BLOCK
  8
0
 62
     7
  2
*U115
 70
     1
 10
0.0
 20
0.0
 30
0.0
  3
*U115
  1

  0
TEXT
  5
42CE
  8
0
  6
CONTINUOUS
 62
     0
 10
-18.95953329542203
 20
36.054278977074283
 30
0.0
 40
4.0
  1
D
 50
90.0
  7
MISUMI
  0
ENDBLK
  5
42D0
  8
0
 62
     7
  0
BLOCK
  8
0
 62
     7
  2
*U116
 70
     1
 10
0.0
 20
0.0
 30
0.0
  3
*U116
  1

  0
TEXT
  5
42D2
  8
0
  6
CONTINUOUS
 62
     0
 10
-34.256377600338404
 20
34.663416032911847
 30
0.0
 40
4.0
  1
16
 50
90.0
  7
MISUMI
  0
ENDBLK
  5
42D4
  8
0
 62
     7
  0
ENDSEC
  0
SECTION
  2
ENTITIES
  0
LINE
  5
222D
  8
0
  6
CONTINUOUS
 62
     7
 10
0.8419153164632579
 20
33.324075931388982
 30
0.0
 11
1.841915316463238
 21
33.324075931388982
 31
0.0
  0
LINE
  5
222F
  8
0
  6
CONTINUOUS
 62
     7
 10
10.341915316463229
 20
30.824075931389221
 30
0.0
 11
20.341915316463179
 21
30.824075931389221
 31
0.0
  0
LINE
  5
2230
  8
0
  6
CONTINUOUS
 62
     7
 10
10.341915316463361
 20
43.824075931389068
 30
0.0
 11
20.341915316463311
 21
43.824075931389068
 31
0.0
  0
LINE
  5
2231
  8
CENTER
  6
CENTER
 62
     1
 10
6.3419153164632531
 20
51.200473740985679
 30
0.0
 11
6.3419153164632531
 21
23.44767812179229
 31
0.0
  0
LINE
  5
2232
  8
CENTER
  6
CENTER
 62
     1
 10
15.341915316463201
 20
44.631915189129337
 30
0.0
 11
15.341915316463201
 21
29.754083119103399
 31
0.0
  0
LINE
  5
223F
  8
0
  6
CONTINUOUS
 62
     7
 10
14.141915316463271
 20
43.824075931389068
 30
0.0
 11
14.141915316463271
 21
41.32407593138899
 31
0.0
  0
LINE
  5
2240
  8
0
  6
CONTINUOUS
 62
     3
 10
13.841915316463201
 20
43.824075931389068
 30
0.0
 11
13.841915316463201
 21
41.32407593138899
 31
0.0
  0
LINE
  5
224A
  8
CENTER
  6
CENTER
 62
     1
 10
76.621493786632357
 20
50.432972512481001
 30
0.0
 11
76.621493786632357
 21
24.215179350297291
 31
0.0
  0
CIRCLE
  5
224B
  8
0
  6
CONTINUOUS
 62
     7
 10
76.621493786632357
 20
37.324075931388997
 30
0.0
 40
6.5
  0
CIRCLE
  5
224C
  8
0
  6
CONTINUOUS
 62
     7
 10
76.621493786632357
 20
37.324075931388997
 30
0.0
 40
4.0
  0
LINE
  5
224D
  8
0
  6
CONTINUOUS
 62
     7
 10
20.341915316463311
 20
43.824075931389068
 30
0.0
 11
20.341915316463179
 21
30.824075931389221
 31
0.0
  0
LINE
  5
224F
  8
DASHED
  6
DASHED
 62
     3
 10
80.437250592300174
 20
36.124075931389108
 30
0.0
 11
83.00976428810614
 21
36.124075931389072
 31
0.0
  0
LINE
  5
2250
  8
DASHED
  6
DASHED
 62
     3
 10
80.329593030180192
 20
35.824075931388997
 30
0.0
 11
82.946049106969113
 21
35.824075931389011
 31
0.0
  0
LINE
  5
2251
  8
0
  6
CONTINUOUS
 62
     7
 10
16.541915316463189
 20
43.824075931389068
 30
0.0
 11
16.541915316463189
 21
41.32407593138899
 31
0.0
  0
LINE
  5
2252
  8
0
  6
CONTINUOUS
 62
     3
 10
16.841915316463261
 20
43.824075931389068
 30
0.0
 11
16.841915316463261
 21
41.32407593138899
 31
0.0
  0
LINE
  5
2254
  8
CENTER
  6
CENTER
 62
     1
 10
63.184460499262343
 20
37.324075931388997
 30
0.0
 11
90.058527074002285
 21
37.324075931388997
 31
0.0
  0
LINE
  5
2255
  8
DASHED
  6
DASHED
 62
     3
 10
80.329593030180192
 20
38.824075931388997
 30
0.0
 11
82.946049106969113
 21
38.824075931388997
 31
0.0
  0
LINE
  5
2256
  8
DASHED
  6
DASHED
 62
     3
 10
80.437250592300117
 20
38.524075931389113
 30
0.0
 11
83.009764288106126
 21
38.524075931389113
 31
0.0
  0
LINE
  5
2257
  8
DASHED
  6
DASHED
 62
     3
 10
75.421493786632197
 20
43.712346432862738
 30
0.0
 11
75.421493786632197
 21
41.139832737056729
 31
0.0
  0
LINE
  5
2258
  8
DASHED
  6
DASHED
 62
     3
 10
77.821493786632374
 20
43.712346432862759
 30
0.0
 11
77.821493786632374
 21
41.139832737056757
 31
0.0
  0
LINE
  5
2259
  8
DASHED
  6
DASHED
 62
     3
 10
75.12149378663247
 20
43.648631251725782
 30
0.0
 11
75.12149378663247
 21
41.03217517493686
 31
0.0
  0
LINE
  5
225A
  8
DASHED
  6
DASHED
 62
     3
 10
78.121493786632456
 20
43.648631251725732
 30
0.0
 11
78.12149378663247
 21
41.032175174936782
 31
0.0
  0
CIRCLE
  5
225C
  8
0
  6
CONTINUOUS
 62
     7
 10
15.341915316463201
 20
37.324075931388997
 30
0.0
 40
1.199999483684592
  0
CIRCLE
  5
225D
  8
0
  6
CONTINUOUS
 62
     3
 10
15.341915316463201
 20
37.324075931388997
 30
0.0
 40
1.5
  0
TEXT
  5
2266
  8
0
  6
CONTINUOUS
 62
     7
 10
-12.81785425074372
 20
1.56914318427573
 30
0.0
 40
8.0
  1
MDQ16-8
  0
POLYLINE
  5
2E55
  8
0
  6
CONTINUOUS
 62
     7
 66
     1
 10
0.0
 20
0.0
 30
0.0
 70
     1
  0
VERTEX
  5
423A
  8
0
  6
CONTINUOUS
 62
     7
 10
10.34184103401253
 20
43.274075931389099
 30
0.0
  0
VERTEX
  5
423B
  8
0
  6
CONTINUOUS
 62
     7
 10
2.341915316463254
 20
43.274075931389099
 30
0.0
  0
VERTEX
  5
423C
  8
0
  6
CONTINUOUS
 62
     7
 10
2.341915316463254
 20
45.374075931389108
 30
0.0
  0
VERTEX
  5
423D
  8
0
  6
CONTINUOUS
 62
     7
 10
10.341919030585791
 20
45.374075931389108
 30
0.0
  0
SEQEND
  5
423E
  8
0
  6
CONTINUOUS
 62
     7
  0
LINE
  5
2E89
  8
0
  6
CONTINUOUS
 62
     7
 10
2.341915316463254
 20
44.574075931389089
 30
0.0
 11
2.341915316463254
 21
29.374075931388901
 31
0.0
  0
POLYLINE
  5
2E96
  8
0
  6
CONTINUOUS
 62
     7
 66
     1
 10
0.0
 20
0.0
 30
0.0
 70
     1
  0
VERTEX
  5
423F
  8
0
  6
CONTINUOUS
 62
     7
 10
1.841915316463254
 20
44.774075931389092
 30
0.0
  0
VERTEX
  5
4240
  8
0
  6
CONTINUOUS
 62
     7
 10
2.341915316463254
 20
44.774075931389092
 30
0.0
  0
VERTEX
  5
4241
  8
0
  6
CONTINUOUS
 62
     7
 10
2.3419153164632398
 20
29.87407593138888
 30
0.0
  0
VERTEX
  5
4242
  8
0
  6
CONTINUOUS
 62
     7
 10
1.8419153164632449
 20
29.87407593138888
 30
0.0
  0
SEQEND
  5
4243
  8
0
  6
CONTINUOUS
 62
     7
  0
POLYLINE
  5
2E98
  8
0
  6
CONTINUOUS
 62
     7
 66
     1
 10
0.0
 20
0.0
 30
0.0
 70
     1
  0
VERTEX
  5
4244
  8
0
  6
CONTINUOUS
 62
     7
 10
1.841915316463254
 20
42.774075931389092
 30
0.0
  0
VERTEX
  5
4245
  8
0
  6
CONTINUOUS
 62
     7
 10
2.341915316463254
 20
42.774075931389092
 30
0.0
  0
VERTEX
  5
4246
  8
0
  6
CONTINUOUS
 62
     7
 10
2.341915316463254
 20
44.774075931389092
 30
0.0
  0
VERTEX
  5
4247
  8
0
  6
CONTINUOUS
 62
     7
 10
1.841915316463254
 20
44.774075931389092
 30
0.0
  0
SEQEND
  5
4248
  8
0
  6
CONTINUOUS
 62
     7
  0
POLYLINE
  5
2E99
  8
0
  6
CONTINUOUS
 62
     7
 66
     1
 10
0.0
 20
0.0
 30
0.0
 70
     1
  0
VERTEX
  5
4249
  8
0
  6
CONTINUOUS
 62
     7
 10
1.8419153164632449
 20
31.87407593138888
 30
0.0
  0
VERTEX
  5
424A
  8
0
  6
CONTINUOUS
 62
     7
 10
2.3419153164632451
 20
31.87407593138888
 30
0.0
  0
VERTEX
  5
424B
  8
0
  6
CONTINUOUS
 62
     7
 10
2.3419153164632398
 20
29.87407593138888
 30
0.0
  0
VERTEX
  5
424C
  8
0
  6
CONTINUOUS
 62
     7
 10
1.841915316463238
 20
29.87407593138888
 30
0.0
  0
SEQEND
  5
424D
  8
0
  6
CONTINUOUS
 62
     7
  0
INSERT
  5
2EAD
  8
0
  6
CONTINUOUS
 62
     3
  2
*X90
 10
0.0
 20
0.0
 30
0.0
1001
ACAD
1000
HATCH
1002
{
1070
    19
1000
ANSI31
1040
10.0
1040
0.0
1000
R14_HATCH_DATA
1000
2EAD
1011
1.0
1021
-3.2105321664723959E+206
1031
0.0
1021
0.0
1031
0.0
1011
0.0
1021
-3.2105321664723959E+206
1031
0.0
1021
1.0
1031
0.0
1011
0.0
1021
-3.2105321664723959E+206
1031
0.0
1021
0.0
1031
1.0
1040
0.0
1010
0.0
1020
0.0
1030
1.0
1000
ANSI31
1070
     0
1070
     0
1071
        2
1071
        7
1070
     0
1070
     1
1071
        4
1040
7.3419153164632531
1040
43.274075931389099
1040
7.3419153164632531
1040
45.274075931389092
1040
2.341915316463254
1040
45.274075931389092
1040
2.341915316463254
1040
43.274075931389099
1071
        0
1071
        7
1070
     0
1070
     1
1071
        4
1040
7.3419153164632531
1040
45.274075931389092
1040
7.3419153164632531
1040
43.274075931389099
1040
10.34184103401253
1040
43.274075931389099
1040
10.34191531646325
1040
45.274075931389092
1071
        0
1070
     0
1070
     1
1040
0.0
1040
10.0
1070
     0
1070
     1
1040
0.7853981633974483
1040
2.0
1040
-3.5499999999999972
1040
-0.8838834764831842
1040
0.8838834764831844
1070
     0
1040
0.0314955911908394
1071
        2
1040
6.0873176313853019
1040
44.126087675359202
1040
0.0
1040
9.0486052620235569
1040
44.535531030110917
1040
0.0
1002
}
  0
CIRCLE
  5
2EB0
  8
0
  6
CONTINUOUS
 62
     7
 10
76.621493786632357
 20
37.324075931388997
 30
0.0
 40
8.0000000000000995
  0
POLYLINE
  5
2EB3
  8
0
  6
CONTINUOUS
 62
     7
 66
     1
 10
0.0
 20
0.0
 30
0.0
 70
     1
  0
VERTEX
  5
4258
  8
0
  6
CONTINUOUS
 62
     7
 10
0.8419153164632579
 20
43.32407593138889
 30
0.0
  0
VERTEX
  5
4259
  8
0
  6
CONTINUOUS
 62
     7
 10
1.841915316463254
 20
43.324075931388897
 30
0.0
  0
VERTEX
  5
425A
  8
0
  6
CONTINUOUS
 62
     7
 10
1.841915316463254
 20
31.324075931388911
 30
0.0
  0
VERTEX
  5
425B
  8
0
  6
CONTINUOUS
 62
     7
 10
0.8419153164632579
 20
31.324075931388869
 30
0.0
  0
SEQEND
  5
425C
  8
0
  6
CONTINUOUS
 62
     7
  0
LINE
  5
3764
  8
0
  6
CONTINUOUS
 62
     7
 10
0.8419153164632579
 20
41.32407593138899
 30
0.0
 11
1.841915316463254
 21
41.32407593138899
 31
0.0
  0
LINE
  5
3765
  8
0
  6
CONTINUOUS
 62
     7
 10
2.34191531646325
 20
41.32407593138899
 30
0.0
 11
20.341915316463201
 21
41.32407593138899
 31
0.0
  0
LINE
  5
3766
  8
0
  6
CONTINUOUS
 62
     7
 10
2.341915316463246
 20
33.324075931388982
 30
0.0
 11
20.341915316463201
 21
33.32407593138899
 31
0.0
  0
POLYLINE
  5
3EF7
  8
0
  6
CONTINUOUS
 62
     7
 66
     1
 10
0.0
 20
0.0
 30
0.0
 70
     1
  0
VERTEX
  5
427E
  8
0
  6
CONTINUOUS
 62
     7
 10
10.34184103401253
 20
31.374075931388901
 30
0.0
  0
VERTEX
  5
427F
  8
0
  6
CONTINUOUS
 62
     7
 10
2.341915316463254
 20
31.374075931388901
 30
0.0
  0
VERTEX
  5
4280
  8
0
  6
CONTINUOUS
 62
     7
 10
2.341915316463254
 20
29.374075931388901
 30
0.0
  0
VERTEX
  5
4281
  8
0
  6
CONTINUOUS
 62
     7
 10
10.34191531646325
 20
29.374075931388901
 30
0.0
  0
SEQEND
  5
4282
  8
0
  6
CONTINUOUS
 62
     7
  0
INSERT
  5
3EF8
  8
0
  6
CONTINUOUS
 62
     3
  2
*X98
 10
0.0
 20
0.0
 30
0.0
1001
ACAD
1000
HATCH
1002
{
1070
    19
1000
ANSI31
1040
10.0
1040
0.0
1000
R14_HATCH_DATA
1000
3EF8
1011
1.0
1021
-3.2105321664723959E+206
1031
0.0
1021
0.0
1031
0.0
1011
0.0
1021
-3.2105321664723959E+206
1031
0.0
1021
1.0
1031
0.0
1011
0.0
1021
-3.2105321664723959E+206
1031
0.0
1021
0.0
1031
1.0
1040
0.0
1010
0.0
1020
0.0
1030
1.0
1000
ANSI31
1070
     0
1070
     0
1071
        2
1071
        7
1070
     0
1070
     1
1071
        4
1040
7.3419153164632531
1040
31.374075931388901
1040
7.3419153164632531
1040
29.374075931388901
1040
2.341915316463254
1040
29.374075931388901
1040
2.341915316463254
1040
31.374075931388901
1071
        0
1071
        7
1070
     0
1070
     1
1071
        4
1040
7.3419153164632531
1040
29.374075931388901
1040
7.3419153164632531
1040
31.374075931388901
1040
10.34184103401253
1040
31.374075931388901
1040
10.34191531646325
1040
29.374075931388901
1071
        0
1070
     0
1070
     1
1040
0.0
1040
10.0
1070
     0
1070
     1
1040
5.4977871437821371
1040
2.0
1040
78.198151862777991
1040
-0.8838834764831842
1040
-0.8838834764831844
1070
     0
1040
0.0314955911908394
1071
        2
1040
6.0873176313853019
1040
30.522064187418781
1040
0.0
1040
9.0486052620235569
1040
30.11262083266708
1040
0.0
1002
}
  0
ENDSEC
  0
EOF
