  0
SECTION
  2
HEADER
  9
$ACADVER
  1
AC1009
  9
$INSBASE
 10
0.0
 20
0.0
 30
0.0
  9
$EXTMIN
 10
10.0
 20
9.9999999999999982
 30
0.0
  9
$EXTMAX
 10
160.99999808749999
 20
62.000000000000107
 30
0.0
  9
$LIMMIN
 10
0.0
 20
0.0
  9
$LIMMAX
 10
420.0
 20
297.0
  9
$ORTHOMODE
 70
     1
  9
$REGENMODE
 70
     1
  9
$FILLMODE
 70
     1
  9
$QTEXTMODE
 70
     0
  9
$MIRRTEXT
 70
     0
  9
$DRAGMODE
 70
     2
  9
$LTSCALE
 40
1.0
  9
$OSMODE
 70
    37
  9
$ATTMODE
 70
     1
  9
$TEXTSIZE
 40
2.5
  9
$TRACEWID
 40
1.0
  9
$TEXTSTYLE
  7
STANDARD
  9
$CLAYER
  8
0
  9
$CELTYPE
  6
CONTINUOUS
  9
$CECOLOR
 62
     7
  9
$DIMSCALE
 40
1.0
  9
$DIMASZ
 40
1.5
  9
$DIMEXO
 40
0.625
  9
$DIMDLI
 40
3.75
  9
$DIMRND
 40
0.0
  9
$DIMDLE
 40
0.0
  9
$DIMEXE
 40
1.25
  9
$DIMTP
 40
0.0
  9
$DIMTM
 40
0.0
  9
$DIMTXT
 40
2.5
  9
$DIMCEN
 40
0.0
  9
$DIMTSZ
 40
0.0
  9
$DIMTOL
 70
     0
  9
$DIMLIM
 70
     0
  9
$DIMTIH
 70
     0
  9
$DIMTOH
 70
     0
  9
$DIMSE1
 70
     0
  9
$DIMSE2
 70
     0
  9
$DIMTAD
 70
     1
  9
$DIMZIN
 70
     8
  9
$DIMBLK
  1

  9
$DIMASO
 70
     1
  9
$DIMSHO
 70
     1
  9
$DIMPOST
  1

  9
$DIMAPOST
  1

  9
$DIMALT
 70
     0
  9
$DIMALTD
 70
     3
  9
$DIMALTF
 40
0.03937007874016
  9
$DIMLFAC
 40
1.0
  9
$DIMTOFL
 70
     1
  9
$DIMTVP
 40
0.0
  9
$DIMTIX
 70
     1
  9
$DIMSOXD
 70
     0
  9
$DIMSAH
 70
     0
  9
$DIMBLK1
  1

  9
$DIMBLK2
  1

  9
$DIMSTYLE
  2
MISUMI
  9
$DIMCLRD
 70
     0
  9
$DIMCLRE
 70
     0
  9
$DIMCLRT
 70
     0
  9
$DIMTFAC
 40
1.0
  9
$DIMGAP
 40
0.625
  9
$LUNITS
 70
     2
  9
$LUPREC
 70
     4
  9
$SKETCHINC
 40
1.0
  9
$FILLETRAD
 40
0.0
  9
$AUNITS
 70
     0
  9
$AUPREC
 70
     0
  9
$MENU
  1
.
  9
$ELEVATION
 40
0.0
  9
$PELEVATION
 40
0.0
  9
$THICKNESS
 40
0.0
  9
$LIMCHECK
 70
     0
  9
$BLIPMODE
 70
     0
  9
$CHAMFERA
 40
1.0
  9
$CHAMFERB
 40
1.0
  9
$SKPOLY
 70
     0
  9
$TDCREATE
 40
2454424.6116537959
  9
$TDUPDATE
 40
2454509.7728008451
  9
$TDINDWG
 40
0.4693819792
  9
$TDUSRTIMER
 40
0.4693819792
  9
$USRTIMER
 70
     1
  9
$ANGBASE
 50
0.0
  9
$ANGDIR
 70
     0
  9
$PDMODE
 70
     0
  9
$PDSIZE
 40
0.0
  9
$PLINEWID
 40
0.0
  9
$COORDS
 70
     2
  9
$SPLFRAME
 70
     0
  9
$SPLINETYPE
 70
     6
  9
$SPLINESEGS
 70
     8
  9
$ATTDIA
 70
     0
  9
$ATTREQ
 70
     1
  9
$HANDLING
 70
     1
  9
$HANDSEED
  5
B279
  9
$SURFTAB1
 70
     6
  9
$SURFTAB2
 70
     6
  9
$SURFTYPE
 70
     6
  9
$SURFU
 70
     6
  9
$SURFV
 70
     6
  9
$UCSNAME
  2

  9
$UCSORG
 10
0.0
 20
0.0
 30
0.0
  9
$UCSXDIR
 10
1.0
 20
0.0
 30
0.0
  9
$UCSYDIR
 10
0.0
 20
1.0
 30
0.0
  9
$PUCSNAME
  2

  9
$PUCSORG
 10
0.0
 20
0.0
 30
0.0
  9
$PUCSXDIR
 10
1.0
 20
0.0
 30
0.0
  9
$PUCSYDIR
 10
0.0
 20
1.0
 30
0.0
  9
$USERI1
 70
     0
  9
$USERI2
 70
     0
  9
$USERI3
 70
     0
  9
$USERI4
 70
     0
  9
$USERI5
 70
     0
  9
$USERR1
 40
0.0
  9
$USERR2
 40
0.0
  9
$USERR3
 40
0.0
  9
$USERR4
 40
0.0
  9
$USERR5
 40
0.0
  9
$WORLDVIEW
 70
     1
  9
$SHADEDGE
 70
     3
  9
$SHADEDIF
 70
    70
  9
$TILEMODE
 70
     1
  9
$MAXACTVP
 70
    64
  9
$PLIMCHECK
 70
     0
  9
$PEXTMIN
 10
0.0
 20
0.0
 30
0.0
  9
$PEXTMAX
 10
0.0
 20
0.0
 30
0.0
  9
$PLIMMIN
 10
0.0
 20
0.0
  9
$PLIMMAX
 10
12.0
 20
9.0
  9
$UNITMODE
 70
     0
  9
$VISRETAIN
 70
     1
  9
$PLINEGEN
 70
     0
  9
$PSLTSCALE
 70
     1
  0
ENDSEC
  0
SECTION
  2
TABLES
  0
TABLE
  2
VPORT
 70
     1
  0
VPORT
  2
*ACTIVE
 70
     0
 10
0.0
 20
0.0
 11
1.0
 21
1.0
 12
91.759644394926354
 22
35.99656733299674
 13
0.0
 23
0.0
 14
10.0
 24
10.0
 15
10.0
 25
10.0
 16
0.0
 26
0.0
 36
1.0
 17
0.0
 27
0.0
 37
0.0
 40
155.0174072053465
 41
1.0628272251308899
 42
50.0
 43
0.0
 44
0.0
 50
0.0
 51
0.0
 71
     0
 72
  1000
 73
     1
 74
     3
 75
     0
 76
     0
 77
     0
 78
     0
  0
ENDTAB
  0
TABLE
  2
LTYPE
 70
     4
  0
LTYPE
  2
CONTINUOUS
 70
     0
  3
Solid line
 72
    65
 73
     0
 40
0.0
  0
LTYPE
  2
CENTER
 70
     0
  3
Center ____ _ ____ _ ____ _ ____ _ ____ _ ____
 72
    65
 73
     4
 40
2.0
 49
1.25
 49
-0.25
 49
0.25
 49
-0.25
  0
LTYPE
  2
DASHED
 70
     0
  3
Dashed __ __ __ __ __ __ __ __ __ __ __ __ __ _
 72
    65
 73
     2
 40
0.75
 49
0.5
 49
-0.25
  0
LTYPE
  2
PHANTOM
 70
     0
  3
Phantom ______  __  __  ______  __  __  ______
 72
    65
 73
     6
 40
2.5
 49
1.25
 49
-0.25
 49
0.25
 49
-0.25
 49
0.25
 49
-0.25
  0
ENDTAB
  0
TABLE
  2
LAYER
 70
     4
  0
LAYER
  2
0
 70
     0
 62
     7
  6
CONTINUOUS
  0
LAYER
  2
CENTER
 70
     0
 62
     1
  6
CENTER
  0
ENDTAB
  0
TABLE
  2
STYLE
 70
     1
  0
STYLE
  2
STANDARD
 70
     0
 40
0.0
 41
1.0
 50
0.0
 71
     0
 42
2.5
  3
txt.shx
  4

  0
ENDTAB
  0
TABLE
  2
VIEW
 70
     0
  0
ENDTAB
  0
TABLE
  2
UCS
 70
     0
  0
ENDTAB
  0
TABLE
  2
APPID
 70
     4
  0
APPID
  2
ACAD
 70
     0
  0
APPID
  2
ACAD_PSEXT
 70
     0
  0
APPID
  2
ACAECLAYERSTANDARD
 70
     0
  0
APPID
  2
ACAD_EXEMPT_FROM_CAD_STANDARDS
 70
     0
  0
ENDTAB
  0
TABLE
  2
DIMSTYLE
 70
     1
  0
DIMSTYLE
  2
MISUMI
 70
     0
  3

  4

  5

  6

  7

 40
1.0
 41
1.5
 42
0.625
 43
3.75
 44
1.25
 45
0.0
 46
0.0
 47
0.0
 48
0.0
140
2.5
141
0.0
142
0.0
143
0.03937007874016
144
1.0
145
0.0
146
1.0
147
0.625
 71
     0
 72
     0
 73
     0
 74
     0
 75
     0
 76
     0
 77
     1
 78
     8
170
     0
171
     3
172
     1
173
     0
174
     1
175
     0
176
     0
177
     0
178
     0
  0
ENDTAB
  0
ENDSEC
  0
SECTION
  2
BLOCKS
  0
BLOCK
  8
0
  2
$MODEL_SPACE
 70
     0
 10
0.0
 20
0.0
 30
0.0
  3
$MODEL_SPACE
  1

  0
ENDBLK
  5
21
  8
0
  0
BLOCK
 67
     1
  8
0
  2
$PAPER_SPACE
 70
     0
 10
0.0
 20
0.0
 30
0.0
  3
$PAPER_SPACE
  1

  0
ENDBLK
  5
D5
 67
     1
  8
0
  0
BLOCK
  8
0
 62
     7
  2
A$C5D363A22
 70
     0
 10
0.0
 20
0.0
 30
0.0
  3
A$C5D363A22
  1

  0
LINE
  5
359F
  8
0
  6
DASHED
 62
     3
 10
0.0000000000000568
 20
-0.5
 30
0.0
 11
-0.8660254037843628
 21
0.0
 31
0.0
  0
LINE
  5
35A0
  8
0
  6
DASHED
 62
     3
 10
0.0000000000000568
 20
0.5
 30
0.0
 11
-0.8660254037843628
 21
0.0
 31
0.0
  0
ENDBLK
  5
35A4
  8
0
 62
     7
  0
BLOCK
  8
0
 62
     7
  2
*U15
 70
     1
 10
0.0
 20
0.0
 30
0.0
  3
*U15
  1

  0
TEXT
  5
B246
  8
0
  6
CONTINUOUS
 62
     0
 10
40.62337519207879
 20
48.541666666666671
 30
0.0
 40
2.5
  1
10
 50
90.0
  0
ENDBLK
  5
B248
  8
0
 62
     7
  0
BLOCK
  8
0
 62
     7
  2
*U16
 70
     1
 10
0.0
 20
0.0
 30
0.0
  3
*U16
  1

  0
TEXT
  5
B24A
  8
0
  6
CONTINUOUS
 62
     0
 10
61.166666666666842
 20
24.209393091561878
 30
0.0
 40
2.5
  1
8
  0
ENDBLK
  5
B24C
  8
0
 62
     7
  0
BLOCK
  8
0
 62
     7
  2
*U17
 70
     1
 10
0.0
 20
0.0
 30
0.0
  3
*U17
  1

  0
TEXT
  5
B24E
  8
0
  6
CONTINUOUS
 62
     0
 10
69.541666666666785
 20
24.209393091561878
 30
0.0
 40
2.5
  1
10
  0
ENDBLK
  5
B250
  8
0
 62
     7
  0
BLOCK
  8
0
 62
     7
  2
*U18
 70
     1
 10
0.0
 20
0.0
 30
0.0
  3
*U18
  1

  0
TEXT
  5
B252
  8
0
  6
CONTINUOUS
 62
     0
 10
81.833332333333345
 20
24.209393091561878
 30
0.0
 40
2.5
  1
15
  0
ENDBLK
  5
B254
  8
0
 62
     7
  0
BLOCK
  8
0
 62
     7
  2
*U19
 70
     1
 10
0.0
 20
0.0
 30
0.0
  3
*U19
  1

  0
TEXT
  5
B256
  8
0
  6
CONTINUOUS
 62
     0
 10
96.833331333333334
 20
24.209393091561878
 30
0.0
 40
2.5
  1
15
  0
ENDBLK
  5
B258
  8
0
 62
     7
  0
BLOCK
  8
0
 62
     7
  2
*U20
 70
     1
 10
0.0
 20
0.0
 30
0.0
  3
*U20
  1

  0
TEXT
  5
B25A
  8
0
  6
CONTINUOUS
 62
     0
 10
94.858063939747581
 20
47.291666669822021
 30
0.0
 40
2.5
  1
30Åã
 50
90.0
  0
ENDBLK
  5
B25C
  8
0
 62
     7
  0
BLOCK
  8
0
 62
     7
  2
*U21
 70
     1
 10
0.0
 20
0.0
 30
0.0
  3
*U21
  1

  0
TEXT
  5
B25E
  8
0
  6
CONTINUOUS
 62
     0
 10
147.12499800000001
 20
17.47618252585653
 30
0.0
 40
2.5
  1
20
  0
ENDBLK
  5
B260
  8
0
 62
     7
  0
BLOCK
  8
0
 62
     7
  2
*U22
 70
     1
 10
0.0
 20
0.0
 30
0.0
  3
*U22
  1

  0
TEXT
  5
B262
  8
0
  6
CONTINUOUS
 62
     0
 10
171.21302309810881
 20
47.291666666666814
 30
0.0
 40
2.5
  1
9,8
 50
90.0
  0
ENDBLK
  5
B264
  8
0
 62
     7
  0
BLOCK
  8
0
 62
     7
  2
*U23
 70
     1
 10
0.0
 20
0.0
 30
0.0
  3
*U23
  1

  0
TEXT
  5
B266
  8
0
  6
CONTINUOUS
 62
     0
 10
53.166666666666721
 20
24.209393091561878
 30
0.0
 40
2.5
  1
8
  0
ENDBLK
  5
B268
  8
0
 62
     7
  0
BLOCK
  8
0
 62
     7
  2
*U24
 70
     1
 10
0.0
 20
0.0
 30
0.0
  3
*U24
  1

  0
TEXT
  5
B26A
  8
0
  6
CONTINUOUS
 62
     0
 10
72.089899044972285
 20
49.166666666666728
 30
0.0
 40
2.5
  1
7
 50
90.0
  0
ENDBLK
  5
B26C
  8
0
 62
     7
  0
BLOCK
  8
0
 62
     7
  2
*U25
 70
     1
 10
0.0
 20
0.0
 30
0.0
  3
*U25
  1

  0
TEXT
  5
B26E
  8
0
  6
CONTINUOUS
 62
     0
 10
106.66666466666661
 20
24.209393091561878
 30
0.0
 40
2.5
  1
3
  0
ENDBLK
  5
B270
  8
0
 62
     7
  0
BLOCK
  8
0
 62
     7
  2
*U26
 70
     1
 10
0.0
 20
0.0
 30
0.0
  3
*U26
  1

  0
TEXT
  5
B272
  8
0
  6
CONTINUOUS
 62
     0
 10
147.83333128958341
 20
23.872222738554509
 30
0.0
 40
2.5
  1
19
  0
ENDBLK
  5
B274
  8
0
 62
     7
  0
BLOCK
  8
0
 62
     7
  2
*U27
 70
     1
 10
0.0
 20
0.0
 30
0.0
  3
*U27
  1

  0
TEXT
  5
B276
  8
0
  6
CONTINUOUS
 62
     0
 10
77.666666666666671
 20
29.516885769173768
 30
0.0
 40
2.5
  1
5
  0
ENDBLK
  5
B278
  8
0
 62
     7
  0
ENDSEC
  0
SECTION
  2
ENTITIES
  0
LINE
  5
4592
  8
CENTER
  6
CENTER
 62
     1
 10
48.0
 20
50.0
 30
0.0
 11
110.99999800000001
 21
50.000000000000107
 31
0.0
  0
LINE
  5
4594
  8
0
  6
CONTINUOUS
 62
     7
 10
107.2716635466986
 20
54.559258222393218
 30
0.0
 11
108.99999800000001
 21
54.096152371842209
 31
0.0
  0
ARC
  5
4595
  8
0
  6
CONTINUOUS
 62
     7
 10
104.6834729445349
 20
44.89999999999997
 30
0.0
 40
10.0
 50
74.999999103490495
 51
90.0
  0
LINE
  5
4596
  8
0
  6
CONTINUOUS
 62
     7
 10
105.99999800000001
 20
45.18704071539014
 30
0.0
 11
105.99999800000001
 21
54.81295928460986
 31
0.0
  0
LINE
  5
459B
  8
0
  6
CONTINUOUS
 62
     7
 10
90.999998000000005
 20
40.0
 30
0.0
 11
90.999998000000005
 21
60.0
 31
0.0
  0
LINE
  5
459C
  8
0
  6
CONTINUOUS
 62
     7
 10
76.0
 20
40.0
 30
0.0
 11
76.0
 21
60.0
 31
0.0
  0
LINE
  5
459E
  8
0
  6
CONTINUOUS
 62
     7
 10
76.0
 20
40.0
 30
0.0
 11
90.999998000000005
 21
40.0
 31
0.0
  0
LINE
  5
45A0
  8
0
  6
CONTINUOUS
 62
     7
 10
76.0
 20
60.0
 30
0.0
 11
90.999998000000005
 21
60.0
 31
0.0
  0
LINE
  5
45A1
  8
0
  6
CONTINUOUS
 62
     7
 10
90.999998000000005
 20
54.89999999999997
 30
0.0
 11
104.6834729445349
 21
54.899999999999977
 31
0.0
  0
LINE
  5
45A3
  8
0
  6
CONTINUOUS
 62
     7
 10
107.2716635466986
 20
45.440741777606718
 30
0.0
 11
108.99999800000001
 21
45.903847627051441
 31
0.0
  0
LINE
  5
45A5
  8
0
  6
CONTINUOUS
 62
     7
 10
90.999998000000005
 20
45.10000000000003
 30
0.0
 11
104.6834729445349
 21
45.100000000000023
 31
0.0
  0
ARC
  5
45A6
  8
0
  6
CONTINUOUS
 62
     7
 10
104.6834729445349
 20
55.100000000000023
 30
0.0
 40
10.0
 50
270.0
 51
285.0000008965032
  0
INSERT
  5
45BA
  8
0
  6
CONTINUOUS
 62
     7
  2
A$C5D363A22
 10
108.99999800000001
 20
50.000000000000107
 30
0.0
  0
CIRCLE
  5
45C5
  8
0
  6
CONTINUOUS
 62
     7
 10
148.99999800000001
 20
50.000000000000107
 30
0.0
 40
4.9000000000000004
  0
CIRCLE
  5
45C6
  8
0
  6
DASHED
 62
     3
 10
148.99999800000001
 20
50.000000000000107
 30
0.0
 40
5.0
  0
CIRCLE
  5
45C7
  8
0
  6
CONTINUOUS
 62
     7
 10
148.99999800000001
 20
50.000000000000107
 30
0.0
 40
10.0
  0
LINE
  5
45C8
  8
CENTER
  6
CENTER
 62
     1
 10
148.99999808749999
 20
62.000000000000107
 30
0.0
 11
148.99999808749979
 21
38.000000000000107
 31
0.0
  0
LINE
  5
45C9
  8
CENTER
  6
CENTER
 62
     1
 10
136.99999808749999
 20
50.000000000000107
 30
0.0
 11
160.99999808749999
 21
50.000000000000107
 31
0.0
  0
CIRCLE
  5
45CC
  8
0
  6
CONTINUOUS
 62
     7
 10
148.99999808749999
 20
50.000000000000107
 30
0.0
 40
0.5
  0
LINE
  5
4D0A
  8
0
  6
CONTINUOUS
 62
     7
 10
49.999999999999893
 20
54.00000000000005
 30
0.0
 11
50.0
 21
46.00000000000005
 31
0.0
  0
LINE
  5
4D0B
  8
0
  6
CONTINUOUS
 62
     7
 10
57.999999999999893
 20
55.000000000000057
 30
0.0
 11
58.000000000000107
 21
45.000000000000057
 31
0.0
  0
LINE
  5
4D0C
  8
0
  6
CONTINUOUS
 62
     7
 10
66.0
 20
53.50000000000005
 30
0.0
 11
66.000000000000213
 21
46.50000000000005
 31
0.0
  0
LINE
  5
4D0D
  8
0
  6
CONTINUOUS
 62
     7
 10
50.999999999999879
 20
55.000000000000057
 30
0.0
 11
49.999999999999893
 21
54.00000000000005
 31
0.0
  0
LINE
  5
4D0F
  8
0
  6
CONTINUOUS
 62
     7
 10
66.000000000000114
 20
46.50000000000005
 30
0.0
 11
76.000000000000213
 21
46.50000000000005
 31
0.0
  0
LINE
  5
4D10
  8
0
  6
CONTINUOUS
 62
     7
 10
65.999999999999886
 20
53.50000000000005
 30
0.0
 11
76.000000000000114
 21
53.50000000000005
 31
0.0
  0
LINE
  5
4D11
  8
0
  6
CONTINUOUS
 62
     7
 10
51.0
 20
45.000000000000057
 30
0.0
 11
58.00000000000022
 21
45.000000000000057
 31
0.0
  0
LINE
  5
4D12
  8
0
  6
CONTINUOUS
 62
     7
 10
50.0
 20
46.00000000000005
 30
0.0
 11
51.0
 21
45.000000000000057
 31
0.0
  0
LINE
  5
4D13
  8
0
  6
CONTINUOUS
 62
     7
 10
50.999999999999879
 20
55.000000000000057
 30
0.0
 11
57.999999999999893
 21
55.000000000000057
 31
0.0
  0
LINE
  5
4D14
  8
0
  6
CONTINUOUS
 62
     7
 10
51.0
 20
45.000000000000057
 30
0.0
 11
50.999999999999879
 21
55.000000000000057
 31
0.0
  0
LINE
  5
4D15
  8
0
  6
DASHED
 62
     3
 10
50.0
 20
50.500000000000057
 30
0.0
 11
50.86602540378442
 21
50.000000000000057
 31
0.0
  0
LINE
  5
4D16
  8
0
  6
DASHED
 62
     3
 10
50.0
 20
49.500000000000057
 30
0.0
 11
50.86602540378442
 21
50.000000000000057
 31
0.0
  0
LINE
  5
4D17
  8
0
  6
CONTINUOUS
 62
     7
 10
66.0
 20
53.50000000000005
 30
0.0
 11
57.999999999999893
 21
55.000000000000057
 31
0.0
  0
LINE
  5
4D18
  8
0
  6
CONTINUOUS
 62
     7
 10
66.000000000000114
 20
46.50000000000005
 30
0.0
 11
58.000000000000107
 21
45.000000000000057
 31
0.0
  0
LINE
  5
5FA7
  8
0
  6
CONTINUOUS
 62
     7
 10
108.99999800000001
 20
45.903847627051441
 30
0.0
 11
108.99999800000001
 21
54.096152371842209
 31
0.0
  0
TEXT
  5
9704
  8
0
  6
CONTINUOUS
 62
     7
 10
10.0
 20
10.0
 30
0.0
 40
2.0
  1
HUPTAA10
  0
TEXT
  5
9705
  8
0
  6
CONTINUOUS
 62
     7
 10
10.0
 20
20.0
 30
0.0
 40
2.0
  1
HUPTAA10-P9.8-B15-T15-H20-A30-E3 
  0
ENDSEC
  0
EOF
