  0
SECTION
  2
HEADER
  9
$ACADVER
  1
AC1009
  9
$INSBASE
 10
0.0
 20
0.0
 30
0.0
  9
$EXTMIN
 10
10.93574862934593
 20
11.28120727594596
 30
0.0
  9
$EXTMAX
 10
194.9736799498597
 20
85.592722988345969
 30
0.0
  9
$LIMMIN
 10
0.0
 20
0.0
  9
$LIMMAX
 10
420.0
 20
297.0
  9
$ORTHOMODE
 70
     0
  9
$REGENMODE
 70
     1
  9
$FILLMODE
 70
     1
  9
$QTEXTMODE
 70
     0
  9
$MIRRTEXT
 70
     1
  9
$DRAGMODE
 70
     2
  9
$LTSCALE
 40
0.25
  9
$OSMODE
 70
  2085
  9
$ATTMODE
 70
     1
  9
$TEXTSIZE
 40
2.5
  9
$TRACEWID
 40
1.0
  9
$TEXTSTYLE
  7
STANDARD
  9
$CLAYER
  8
0
  9
$CELTYPE
  6
BYLAYER
  9
$CECOLOR
 62
   256
  9
$DIMSCALE
 40
1.0
  9
$DIMASZ
 40
2.5
  9
$DIMEXO
 40
1.0
  9
$DIMDLI
 40
7.0
  9
$DIMRND
 40
0.0
  9
$DIMDLE
 40
0.0
  9
$DIMEXE
 40
0.9999999999999998
  9
$DIMTP
 40
0.0
  9
$DIMTM
 40
0.0
  9
$DIMTXT
 40
2.5
  9
$DIMCEN
 40
0.0
  9
$DIMTSZ
 40
0.0
  9
$DIMTOL
 70
     0
  9
$DIMLIM
 70
     0
  9
$DIMTIH
 70
     0
  9
$DIMTOH
 70
     0
  9
$DIMSE1
 70
     0
  9
$DIMSE2
 70
     0
  9
$DIMTAD
 70
     1
  9
$DIMZIN
 70
     9
  9
$DIMBLK
  1

  9
$DIMASO
 70
     1
  9
$DIMSHO
 70
     1
  9
$DIMPOST
  1

  9
$DIMAPOST
  1

  9
$DIMALT
 70
     0
  9
$DIMALTD
 70
     3
  9
$DIMALTF
 40
0.03937007874016
  9
$DIMLFAC
 40
1.0
  9
$DIMTOFL
 70
     1
  9
$DIMTVP
 40
0.0
  9
$DIMTIX
 70
     0
  9
$DIMSOXD
 70
     0
  9
$DIMSAH
 70
     0
  9
$DIMBLK1
  1

  9
$DIMBLK2
  1

  9
$DIMSTYLE
  2
DIM
  9
$DIMCLRD
 70
     0
  9
$DIMCLRE
 70
     0
  9
$DIMCLRT
 70
     0
  9
$DIMTFAC
 40
1.0
  9
$DIMGAP
 40
1.0
  9
$LUNITS
 70
     2
  9
$LUPREC
 70
     2
  9
$SKETCHINC
 40
1.0
  9
$FILLETRAD
 40
10.0
  9
$AUNITS
 70
     0
  9
$AUPREC
 70
     2
  9
$MENU
  1
.
  9
$ELEVATION
 40
0.0
  9
$PELEVATION
 40
0.0
  9
$THICKNESS
 40
0.0
  9
$LIMCHECK
 70
     0
  9
$BLIPMODE
 70
     0
  9
$CHAMFERA
 40
10.0
  9
$CHAMFERB
 40
10.0
  9
$SKPOLY
 70
     0
  9
$TDCREATE
 40
2452717.9109858791
  9
$TDUPDATE
 40
2452718.8297956712
  9
$TDINDWG
 40
0.0050221528
  9
$TDUSRTIMER
 40
0.0050219213
  9
$USRTIMER
 70
     1
  9
$ANGBASE
 50
0.0
  9
$ANGDIR
 70
     0
  9
$PDMODE
 70
     0
  9
$PDSIZE
 40
0.0
  9
$PLINEWID
 40
0.0
  9
$COORDS
 70
     2
  9
$SPLFRAME
 70
     0
  9
$SPLINETYPE
 70
     6
  9
$SPLINESEGS
 70
     8
  9
$ATTDIA
 70
     0
  9
$ATTREQ
 70
     1
  9
$HANDLING
 70
-16383
  9
$HANDSEED
  5
28F
  9
$SURFTAB1
 70
     6
  9
$SURFTAB2
 70
     6
  9
$SURFTYPE
 70
     6
  9
$SURFU
 70
     6
  9
$SURFV
 70
     6
  9
$UCSNAME
  2

  9
$UCSORG
 10
0.0
 20
0.0
 30
0.0
  9
$UCSXDIR
 10
1.0
 20
0.0
 30
0.0
  9
$UCSYDIR
 10
0.0
 20
1.0
 30
0.0
  9
$PUCSNAME
  2

  9
$PUCSORG
 10
0.0
 20
0.0
 30
0.0
  9
$PUCSXDIR
 10
1.0
 20
0.0
 30
0.0
  9
$PUCSYDIR
 10
0.0
 20
1.0
 30
0.0
  9
$USERI1
 70
     0
  9
$USERI2
 70
     0
  9
$USERI3
 70
     0
  9
$USERI4
 70
     0
  9
$USERI5
 70
     0
  9
$USERR1
 40
0.0
  9
$USERR2
 40
0.0
  9
$USERR3
 40
0.0
  9
$USERR4
 40
0.0
  9
$USERR5
 40
0.0
  9
$WORLDVIEW
 70
     1
  9
$SHADEDGE
 70
     3
  9
$SHADEDIF
 70
    70
  9
$TILEMODE
 70
     1
  9
$MAXACTVP
 70
    64
  9
$PLIMCHECK
 70
     0
  9
$PEXTMIN
 10
1.0000000000000000E+020
 20
1.0000000000000000E+020
 30
1.0000000000000000E+020
  9
$PEXTMAX
 10
-1.0000000000000000E+020
 20
-1.0000000000000000E+020
 30
-1.0000000000000000E+020
  9
$PLIMMIN
 10
0.0
 20
0.0
  9
$PLIMMAX
 10
420.0
 20
297.0
  9
$UNITMODE
 70
     0
  9
$VISRETAIN
 70
     1
  9
$PLINEGEN
 70
     0
  9
$PSLTSCALE
 70
     1
  0
ENDSEC
  0
SECTION
  2
TABLES
  0
TABLE
  2
VPORT
 70
     4
  0
VPORT
  2
*ACTIVE
 70
     0
 10
0.0
 20
0.0
 11
1.0
 21
1.0
 12
123.727071439716
 22
49.298388161411957
 13
0.0
 23
0.0
 14
10.0
 24
10.0
 15
10.0
 25
10.0
 16
0.0
 26
0.0
 36
1.0
 17
0.0
 27
0.0
 37
0.0
 40
238.1560804520509
 41
0.9930069930069929
 42
50.0
 43
0.0
 44
0.0
 50
0.0
 51
0.0
 71
     0
 72
   100
 73
     1
 74
     3
 75
     0
 76
     0
 77
     0
 78
     0
  0
ENDTAB
  0
TABLE
  2
LTYPE
 70
     3
  0
LTYPE
  2
CONTINUOUS
 70
     0
  3
Solid line
 72
    65
 73
     0
 40
0.0
  0
LTYPE
  2
CENTER
 70
     0
  3
Center ____ _ ____ _ ____ _ ____ _ ____ _ ____
 72
    65
 73
     4
 40
50.799999999999997
 49
31.75
 49
-6.3499999999999979
 49
6.3499999999999979
 49
-6.3499999999999979
  0
LTYPE
  2
DASHED
 70
     0
  3
Dashed __ __ __ __ __ __ __ __ __ __ __ __ __ _
 72
    65
 73
     2
 40
19.049999999999979
 49
12.699999999999999
 49
-6.3499999999999979
  0
ENDTAB
  0
TABLE
  2
LAYER
 70
     2
  0
LAYER
  2
0
 70
     0
 62
     7
  6
CONTINUOUS
  0
LAYER
  2
CENTER
 70
     0
 62
     1
  6
CONTINUOUS
  0
ENDTAB
  0
TABLE
  2
STYLE
 70
     1
  0
STYLE
  2
STANDARD
 70
     0
 40
0.0
 41
1.0
 50
0.0
 71
     0
 42
2.5
  3
txt.shx
  4
bigfont.shx
  0
ENDTAB
  0
TABLE
  2
VIEW
 70
     0
  0
ENDTAB
  0
TABLE
  2
UCS
 70
     0
  0
ENDTAB
  0
TABLE
  2
APPID
 70
     1
  0
APPID
  2
ACAD
 70
     0
  0
ENDTAB
  0
TABLE
  2
DIMSTYLE
 70
     1
  0
DIMSTYLE
  2
DIM
 70
     0
  3

  4

  5

  6

  7

 40
1.0
 41
2.5
 42
1.0
 43
7.0
 44
0.9999999999999998
 45
0.0
 46
0.0
 47
0.0
 48
0.0
140
2.5
141
0.0
142
0.0
143
0.03937007874016
144
1.0
145
0.0
146
1.0
147
1.0
 71
     0
 72
     0
 73
     0
 74
     0
 75
     0
 76
     0
 77
     1
 78
     9
170
     0
171
     3
172
     1
173
     0
174
     0
175
     0
176
     0
177
     0
178
     0
  0
ENDTAB
  0
ENDSEC
  0
SECTION
  2
BLOCKS
  0
BLOCK
  8
0
  2
$MODEL_SPACE
 70
     0
 10
0.0
 20
0.0
 30
0.0
  3
$MODEL_SPACE
  1

  0
ENDBLK
  5
1E4
  8
0
  0
BLOCK
 67
     1
  8
0
  2
$PAPER_SPACE
 70
     0
 10
0.0
 20
0.0
 30
0.0
  3
$PAPER_SPACE
  1

  0
ENDBLK
  5
1E0
 67
     1
  8
0
  0
ENDSEC
  0
SECTION
  2
ENTITIES
  0
LINE
  5
251
  8
CENTER
  6
CENTER
 10
194.9736799498597
 20
71.471402644786323
 30
0.0
 11
170.9736799498597
 21
71.471402644786323
 31
0.0
  0
TEXT
  5
252
  8
0
  6
CONTINUOUS
 10
45.885427513678898
 20
45.885460298232537
 30
0.0
 40
1.4969118485907811
  1
SUTPN 3 - 45 - P5 - H2 - N3.0
  0
CIRCLE
  5
253
  8
0
 10
60.200586756154223
 20
71.471402644786323
 30
0.0
 40
8.1467179454296001
  0
CIRCLE
  5
254
  8
0
 62
     3
 10
60.200586756154223
 20
71.471402644786323
 30
0.0
 40
7.2765625000000114
  0
CIRCLE
  5
255
  8
0
 10
60.200586756154223
 20
71.471402644786323
 30
0.0
 40
7.0
  0
CIRCLE
  5
256
  8
0
 10
60.200586756154223
 20
71.471402644786323
 30
0.0
 40
8.6500000000000004
  0
LINE
  5
257
  8
CENTER
  6
CENTER
 10
60.200586756154223
 20
59.821402644786332
 30
0.0
 11
60.200586756154223
 21
83.121402644786329
 31
0.0
  0
TEXT
  5
258
  8
0
  6
CONTINUOUS
 10
45.885427513678898
 20
41.513995595859512
 30
0.0
 40
1.4969118485907811
  1
SUTPN3
  0
LINE
  5
259
  8
CENTER
  6
CENTER
 10
71.850586756154215
 20
71.471402644786323
 30
0.0
 11
48.550586756154217
 21
71.471402644786323
 31
0.0
  0
LINE
  5
25A
  8
0
  6
DASHED
 62
     3
 10
68.719536221904093
 20
72.971402644786338
 30
0.0
 11
67.037983921742892
 21
72.971402644786338
 31
0.0
  0
LINE
  5
25B
  8
0
  6
DASHED
 62
     3
 10
68.719536221904093
 20
69.971402644786338
 30
0.0
 11
67.037983921742892
 21
69.971402644786366
 31
0.0
  0
LINE
  5
25C
  8
0
 10
97.063230505189438
 20
80.121402644786315
 30
0.0
 11
121.0572819976916
 21
80.121402644786315
 31
0.0
  0
LINE
  5
25D
  8
0
  6
DASHED
 62
     3
 10
86.560256251440535
 20
78.471402644786338
 30
0.0
 11
131.56025625144051
 21
78.471402644786338
 31
0.0
  0
CIRCLE
  5
25E
  8
0
 10
106.56025625144051
 20
71.471402644786323
 30
0.0
 40
1.5
  0
LINE
  5
25F
  8
CENTER
  6
CENTER
 10
134.56025625144051
 20
71.471402644786323
 30
0.0
 11
83.560256251440521
 21
71.471402644786323
 31
0.0
  0
LINE
  5
260
  8
0
 10
97.063230505189438
 20
62.82140264478636
 30
0.0
 11
121.0572819976916
 21
62.82140264478636
 31
0.0
  0
LINE
  5
261
  8
0
  6
DASHED
 62
     3
 10
86.560256251440535
 20
64.471402644786323
 30
0.0
 11
131.56025625144051
 21
64.471402644786323
 31
0.0
  0
LINE
  5
262
  8
0
 10
97.063230505189438
 20
62.82140264478636
 30
0.0
 11
97.063230505189438
 21
80.121402644786315
 31
0.0
  0
LINE
  5
263
  8
0
 10
86.560256251440535
 20
64.194840144786326
 30
0.0
 11
86.560256251440535
 21
78.747965144786349
 31
0.0
  0
LINE
  5
264
  8
0
 62
     3
 10
86.560256251440535
 20
64.194840144786383
 30
0.0
 11
97.063230505189395
 21
63.866622199356641
 31
0.0
  0
LINE
  5
265
  8
0
 10
87.013230505189355
 20
63.32468469935673
 30
0.0
 11
97.063230505189438
 21
63.010622199356703
 31
0.0
  0
LINE
  5
266
  8
0
 10
86.560256251440535
 20
64.194840144786383
 30
0.0
 11
87.013230505189355
 21
63.32468469935673
 31
0.0
  0
LINE
  5
267
  8
0
 62
     3
 10
96.610256251440561
 20
63.880777644786413
 30
0.0
 11
97.063230505189395
 21
63.01062219935676
 31
0.0
  0
LINE
  5
268
  8
CENTER
  6
CENTER
 10
106.56025625144051
 20
66.971402644786323
 30
0.0
 11
106.56025625144051
 21
75.971402644786338
 31
0.0
  0
LINE
  5
269
  8
0
 10
87.013230505189355
 20
79.618120590215923
 30
0.0
 11
97.063230505189438
 21
79.932183090215972
 31
0.0
  0
LINE
  5
26A
  8
0
 62
     3
 10
86.560256251440535
 20
78.747965144786292
 30
0.0
 11
97.063230505189395
 21
79.076183090216034
 31
0.0
  0
LINE
  5
26B
  8
0
 10
86.560256251440535
 20
78.747965144786292
 30
0.0
 11
87.013230505189355
 21
79.618120590215923
 31
0.0
  0
LINE
  5
26C
  8
0
 62
     3
 10
96.610256251440561
 20
79.062027644786269
 30
0.0
 11
97.063230505189395
 21
79.932183090215915
 31
0.0
  0
LINE
  5
26D
  8
0
 10
131.56025625144051
 20
64.194840144786326
 30
0.0
 11
131.56025625144051
 21
78.747965144786349
 31
0.0
  0
LINE
  5
26E
  8
0
 10
121.0572819976916
 20
62.82140264478636
 30
0.0
 11
121.0572819976916
 21
80.121402644786315
 31
0.0
  0
LINE
  5
26F
  8
0
 10
131.1072819976917
 20
63.32468469935673
 30
0.0
 11
121.0572819976916
 21
63.010622199356703
 31
0.0
  0
LINE
  5
270
  8
0
 62
     3
 10
131.56025625144051
 20
64.194840144786383
 30
0.0
 11
121.0572819976917
 21
63.866622199356641
 31
0.0
  0
LINE
  5
271
  8
0
 62
     3
 10
121.5102562514405
 20
63.880777644786413
 30
0.0
 11
121.0572819976917
 21
63.01062219935676
 31
0.0
  0
LINE
  5
272
  8
0
 10
131.56025625144051
 20
64.194840144786383
 30
0.0
 11
131.1072819976917
 21
63.32468469935673
 31
0.0
  0
LINE
  5
273
  8
0
 62
     3
 10
131.56025625144051
 20
78.747965144786292
 30
0.0
 11
121.0572819976917
 21
79.076183090216034
 31
0.0
  0
LINE
  5
274
  8
0
 10
131.1072819976917
 20
79.618120590215923
 30
0.0
 11
121.0572819976916
 21
79.932183090215972
 31
0.0
  0
LINE
  5
275
  8
CENTER
  6
CENTER
 10
111.56025625144051
 20
75.971402644786338
 30
0.0
 11
111.56025625144051
 21
66.971402644786323
 31
0.0
  0
CIRCLE
  5
276
  8
0
 10
111.56025625144051
 20
71.471402644786323
 30
0.0
 40
1.5
  0
LINE
  5
277
  8
0
 62
     3
 10
121.5102562514405
 20
79.062027644786269
 30
0.0
 11
121.0572819976917
 21
79.932183090215915
 31
0.0
  0
LINE
  5
278
  8
0
 10
131.56025625144051
 20
78.747965144786292
 30
0.0
 11
131.1072819976917
 21
79.618120590215923
 31
0.0
  0
LINE
  5
279
  8
0
 10
191.9736799498597
 20
81.971402644786323
 30
0.0
 11
191.9736799498597
 21
60.971402644786338
 31
0.0
  0
LINE
  5
27A
  8
0
 10
173.9736799498597
 20
84.971402644786338
 30
0.0
 11
173.9736799498597
 21
57.971402644786338
 31
0.0
  0
TEXT
  5
27B
  8
0
  6
CONTINUOUS
 10
176.29951969541889
 20
48.296326149889921
 30
0.0
 40
1.4969118485907811
  1
付属品キャップ
  0
LINE
  5
27C
  8
0
 10
188.9736799498597
 20
57.971402644786338
 30
0.0
 11
173.9736799498597
 21
57.971402644786338
 31
0.0
  0
ARC
  5
27D
  8
0
 10
188.9736799498597
 20
60.971402644786338
 30
0.0
 40
3.0
 50
270.0
 51
0.0
  0
LINE
  5
27E
  8
0
 10
188.9736799498597
 20
84.971402644786338
 30
0.0
 11
173.9736799498597
 21
84.971402644786338
 31
0.0
  0
ARC
  5
27F
  8
0
 10
188.9736799498597
 20
81.971402644786323
 30
0.0
 40
3.0
 50
0.0
 51
90.0
  0
ENDSEC
  0
EOF
