  0
SECTION
  2
HEADER
  9
$ACADVER
  1
AC1009
  9
$INSBASE
 10
0.0
 20
0.0
 30
0.0
  9
$EXTMIN
 10
-1.3382074481713739
 20
-8.0093071512054621
 30
-0.0015258207003583
  9
$EXTMAX
 10
57.501501165277318
 20
25.522262967333969
 30
0.0000000349246037
  9
$LIMMIN
 10
0.0
 20
0.0
  9
$LIMMAX
 10
420.0
 20
297.0
  9
$ORTHOMODE
 70
     1
  9
$REGENMODE
 70
     1
  9
$FILLMODE
 70
     1
  9
$QTEXTMODE
 70
     0
  9
$MIRRTEXT
 70
     0
  9
$DRAGMODE
 70
     2
  9
$LTSCALE
 40
0.5
  9
$OSMODE
 70
  3071
  9
$ATTMODE
 70
     1
  9
$TEXTSIZE
 40
3.0
  9
$TRACEWID
 40
1.0
  9
$TEXTSTYLE
  7
STANDARD
  9
$CLAYER
  8
MSM_CONTINUOUS
  9
$CELTYPE
  6
BYLAYER
  9
$CECOLOR
 62
   256
  9
$DIMSCALE
 40
1.0
  9
$DIMASZ
 40
1.5
  9
$DIMEXO
 40
0.625
  9
$DIMDLI
 40
3.75
  9
$DIMRND
 40
0.0
  9
$DIMDLE
 40
0.0
  9
$DIMEXE
 40
0.5
  9
$DIMTP
 40
0.0
  9
$DIMTM
 40
0.0
  9
$DIMTXT
 40
1.0
  9
$DIMCEN
 40
2.5
  9
$DIMTSZ
 40
0.0
  9
$DIMTOL
 70
     0
  9
$DIMLIM
 70
     0
  9
$DIMTIH
 70
     0
  9
$DIMTOH
 70
     0
  9
$DIMSE1
 70
     0
  9
$DIMSE2
 70
     0
  9
$DIMTAD
 70
     1
  9
$DIMZIN
 70
     8
  9
$DIMBLK
  1
OPEN30
  9
$DIMASO
 70
     1
  9
$DIMSHO
 70
     1
  9
$DIMPOST
  1

  9
$DIMAPOST
  1

  9
$DIMALT
 70
     0
  9
$DIMALTD
 70
     3
  9
$DIMALTF
 40
0.03937007874016
  9
$DIMLFAC
 40
1.0
  9
$DIMTOFL
 70
     1
  9
$DIMTVP
 40
0.0
  9
$DIMTIX
 70
     0
  9
$DIMSOXD
 70
     0
  9
$DIMSAH
 70
     0
  9
$DIMBLK1
  1

  9
$DIMBLK2
  1

  9
$DIMSTYLE
  2
MISUMI
  9
$DIMCLRD
 70
   256
  9
$DIMCLRE
 70
   256
  9
$DIMCLRT
 70
   256
  9
$DIMTFAC
 40
1.0
  9
$DIMGAP
 40
0.625
  9
$LUNITS
 70
     2
  9
$LUPREC
 70
     2
  9
$SKETCHINC
 40
1.0
  9
$FILLETRAD
 40
0.0
  9
$AUNITS
 70
     0
  9
$AUPREC
 70
     0
  9
$MENU
  1
.
  9
$ELEVATION
 40
0.0
  9
$PELEVATION
 40
0.0
  9
$THICKNESS
 40
0.0
  9
$LIMCHECK
 70
     0
  9
$BLIPMODE
 70
     0
  9
$CHAMFERA
 40
0.5
  9
$CHAMFERB
 40
0.5
  9
$SKPOLY
 70
     0
  9
$TDCREATE
 40
2455135.5720697111
  9
$TDUPDATE
 40
2458044.7766333101
  9
$TDINDWG
 40
0.9489021181
  9
$TDUSRTIMER
 40
2457988.193979538
  9
$USRTIMER
 70
     1
  9
$ANGBASE
 50
0.0
  9
$ANGDIR
 70
     0
  9
$PDMODE
 70
    35
  9
$PDSIZE
 40
0.0
  9
$PLINEWID
 40
0.0
  9
$COORDS
 70
     0
  9
$SPLFRAME
 70
     0
  9
$SPLINETYPE
 70
     6
  9
$SPLINESEGS
 70
     8
  9
$ATTDIA
 70
     0
  9
$ATTREQ
 70
     1
  9
$HANDLING
 70
     1
  9
$HANDSEED
  5
19C04
  9
$SURFTAB1
 70
     6
  9
$SURFTAB2
 70
     6
  9
$SURFTYPE
 70
     6
  9
$SURFU
 70
     6
  9
$SURFV
 70
     6
  9
$UCSNAME
  2

  9
$UCSORG
 10
0.0
 20
0.0
 30
0.0
  9
$UCSXDIR
 10
1.0
 20
0.0
 30
0.0
  9
$UCSYDIR
 10
0.0
 20
1.0
 30
0.0
  9
$PUCSNAME
  2

  9
$PUCSORG
 10
0.0
 20
0.0
 30
0.0
  9
$PUCSXDIR
 10
1.0
 20
0.0
 30
0.0
  9
$PUCSYDIR
 10
0.0
 20
1.0
 30
0.0
  9
$USERI1
 70
     0
  9
$USERI2
 70
     0
  9
$USERI3
 70
     0
  9
$USERI4
 70
     0
  9
$USERI5
 70
     0
  9
$USERR1
 40
0.0
  9
$USERR2
 40
0.0
  9
$USERR3
 40
0.0
  9
$USERR4
 40
0.0
  9
$USERR5
 40
0.0
  9
$WORLDVIEW
 70
     1
  9
$SHADEDGE
 70
     3
  9
$SHADEDIF
 70
    70
  9
$TILEMODE
 70
     1
  9
$MAXACTVP
 70
    64
  9
$PLIMCHECK
 70
     0
  9
$PEXTMIN
 10
0.0
 20
0.0
 30
0.0
  9
$PEXTMAX
 10
0.0
 20
0.0
 30
0.0
  9
$PLIMMIN
 10
0.0
 20
0.0
  9
$PLIMMAX
 10
12.0
 20
9.0
  9
$UNITMODE
 70
     0
  9
$VISRETAIN
 70
     1
  9
$PLINEGEN
 70
     0
  9
$PSLTSCALE
 70
     1
  0
ENDSEC
  0
SECTION
  2
TABLES
  0
TABLE
  2
VPORT
 70
     1
  0
VPORT
  2
*ACTIVE
 70
     0
 10
0.0
 20
0.0
 11
1.0
 21
1.0
 12
28.081646858552968
 22
8.7564779080642552
 13
0.0
 23
0.0
 14
10.0
 24
10.0
 15
10.0
 25
10.0
 16
0.0
 26
0.0
 36
1.0
 17
0.0
 27
0.0
 37
0.0
 40
33.80089999900963
 41
2.0898123324396778
 42
50.0
 43
0.0
 44
0.0
 50
0.0
 51
0.0
 71
    16
 72
  1000
 73
     1
 74
     3
 75
     0
 76
     0
 77
     0
 78
     0
  0
ENDTAB
  0
TABLE
  2
LTYPE
 70
     2
  0
LTYPE
  2
CONTINUOUS
 70
     0
  3
Solid line
 72
    65
 73
     0
 40
0.0
  0
LTYPE
  2
CENTER
 70
     0
  3
Center ____ _ ____ _ ____ _ ____ _ ____ _ ____
 72
    65
 73
     4
 40
50.799999999999997
 49
31.75
 49
-6.3499999999999988
 49
6.3499999999999988
 49
-6.3499999999999988
  0
ENDTAB
  0
TABLE
  2
LAYER
 70
     7
  0
LAYER
  2
0
 70
     0
 62
     7
  6
CONTINUOUS
  0
LAYER
  2
MSM_CENTER
 70
     0
 62
     1
  6
CENTER
  0
LAYER
  2
MSM_CONTINUOUS
 70
     0
 62
     7
  6
CONTINUOUS
  0
LAYER
  2
MSM_NARROW
 70
     0
 62
     5
  6
CONTINUOUS
  0
LAYER
  2
MSM_PART_NUMBER
 70
     0
 62
     7
  6
CONTINUOUS
  0
ENDTAB
  0
TABLE
  2
STYLE
 70
     1
  0
STYLE
  2
STANDARD
 70
     0
 40
1.0
 41
1.0
 50
0.0
 71
     0
 42
3.0
  3
txt.shx
  4
bigfont.shx
  0
ENDTAB
  0
TABLE
  2
VIEW
 70
     0
  0
ENDTAB
  0
TABLE
  2
UCS
 70
     0
  0
ENDTAB
  0
TABLE
  2
APPID
 70
    26
  0
APPID
  2
ACAD
 70
     0
  0
APPID
  2
ACAD_MLEADERVER
 70
     0
  0
APPID
  2
ACAD_EXEMPT_FROM_CAD_STANDARDS
 70
     0
  0
APPID
  2
ACDBBLOCKREPETAG
 70
     0
  0
APPID
  2
ACAD_DSTYLE_DIMJOGGED_JOGA
 70
     0
  0
APPID
  2
ACAECLAYERSTANDARD
 70
     0
  0
APPID
  2
GENIUS_GENODEF_13
 70
     0
  0
APPID
  2
GENIUS_GENOBJ-N-FIL_13
 70
     0
  0
APPID
  2
ACAD_PSEXT
 70
     0
  0
APPID
  2
ACAD_DSTYLE_DIMRADIAL_EXTENSION
 70
     0
  0
APPID
  2
ACDBDYNAMICBLOCKTRUENAME
 70
     0
  0
APPID
  2
ACDBDYNAMICBLOCKGUID
 70
     0
  0
APPID
  2
ACDBBLOCKREPBTAG
 70
     0
  0
APPID
  2
ACAUTHENVIRON
 70
     0
  0
APPID
  2
GRADIENTCOLOR1ACI
 70
     0
  0
APPID
  2
GRADIENTCOLOR2ACI
 70
     0
  0
APPID
  2
ACAD_DSTYLE_DIMJAG
 70
     0
  0
APPID
  2
ACAD_DSTYLE_DIMTALN
 70
     0
  0
APPID
  2
ACCMTRANSPARENCY
 70
     0
  0
APPID
  2
ACAD_DSTYLE_DIMBREAK
 70
     0
  0
APPID
  2
ACAD_DSTYLE_DIMFLIPARROW_W
 70
     0
  0
APPID
  2
ACAD_DSTYLE_DIM_LINETYPE
 70
     0
  0
APPID
  2
ACAD_DSTYLE_DIM_EXT1_LINETYPE
 70
     0
  0
APPID
  2
ACAD_DSTYLE_DIM_EXT2_LINETYPE
 70
     0
  0
APPID
  2
ACAD_NAV_VCDISPLAY
 70
     0
  0
APPID
  2
ACADANNOPO
 70
     0
  0
ENDTAB
  0
TABLE
  2
DIMSTYLE
 70
     1
  0
DIMSTYLE
  2
MISUMI
 70
     0
  3

  4

  5
OPEN30
  6

  7

 40
1.0
 41
1.5
 42
0.625
 43
3.75
 44
0.5
 45
0.0
 46
0.0
 47
0.0
 48
0.0
140
1.0
141
2.5
142
0.0
143
0.03937007874016
144
1.0
145
0.0
146
1.0
147
0.625
 71
     0
 72
     0
 73
     0
 74
     0
 75
     0
 76
     0
 77
     1
 78
     8
170
     0
171
     3
172
     1
173
     0
174
     0
175
     0
176
   256
177
   256
178
   256
  0
ENDTAB
  0
ENDSEC
  0
SECTION
  2
BLOCKS
  0
BLOCK
  8
0
  2
$MODEL_SPACE
 70
     0
 10
0.0
 20
0.0
 30
0.0
  3
$MODEL_SPACE
  1

  0
ENDBLK
  5
21
  8
0
  0
BLOCK
 67
     1
  8
0
  2
$PAPER_SPACE
 70
     0
 10
0.0
 20
0.0
 30
0.0
  3
$PAPER_SPACE
  1

  0
ENDBLK
  5
19BB4
 67
     1
  8
0
  0
BLOCK
  8
0
 62
     7
  2
_OPEN30
 70
     0
 10
0.0
 20
0.0
 30
0.0
  3
_OPEN30
  1

  0
LINE
  5
D7
  8
0
  6
BYBLOCK
 62
     0
 10
-1.0
 20
0.26794919
 30
0.0
 11
0.0
 21
0.0
 31
0.0
  0
LINE
  5
D8
  8
0
  6
BYBLOCK
 62
     0
 10
0.0
 20
0.0
 30
0.0
 11
-1.0
 21
-0.26794919
 31
0.0
  0
LINE
  5
D9
  8
0
  6
BYBLOCK
 62
     0
 10
0.0
 20
0.0
 30
0.0
 11
-1.0
 21
0.0
 31
0.0
  0
ENDBLK
  5
DB
  8
0
 62
     7
  0
BLOCK
  8
0
  2
*U15
 70
     1
 10
0.0
 20
0.0
 30
0.0
  3
*U15
  1

  0
TEXT
  5
19BF9
  8
MSM_PART_NUMBER
 10
0.0
 20
-3.0
 30
0.0
 40
3.0
  1
AQSD15-P13.00-L10-B10.0
  0
ENDBLK
  5
19BFB
  8
0
  0
BLOCK
  8
0
  2
*U16
 70
     1
 10
0.0
 20
0.0
 30
0.0
  3
*U16
  1

  0
TEXT
  5
19BFD
  8
MSM_PART_NUMBER
 10
0.0
 20
-8.0
 30
0.0
 40
3.0
  1
AQSD15
  0
ENDBLK
  5
19BFF
  8
0
  0
ENDSEC
  0
SECTION
  2
ENTITIES
  0
INSERT
  5
1779E
  8
MSM_CONTINUOUS
  2
*U15
 10
0.0
 20
0.0
 30
0.0
  0
INSERT
  5
1779F
  8
MSM_CONTINUOUS
  2
*U16
 10
0.0
 20
0.0
 30
0.0
  0
LINE
  5
17DD4
  8
MSM_CENTER
 10
40.313325522613461
 20
17.5
 30
0.0
 11
56.313325522613468
 21
17.5
 31
0.0
  0
LINE
  5
17DD5
  8
MSM_CENTER
 10
48.313325522613468
 20
9.5
 30
0.0
 11
48.313325522613468
 21
25.5
 31
0.0
  0
CIRCLE
  5
17DD6
  8
MSM_CONTINUOUS
 10
48.313325522613468
 20
17.5
 30
0.0
 40
7.499999999999976
  0
LINE
  5
17DDD
  8
MSM_CONTINUOUS
 10
49.813325522613468
 20
23.824555320336771
 30
0.0
 11
53.464809239314583
 21
17.5
 31
0.0
  0
ARC
  5
17DDE
  8
MSM_CONTINUOUS
 10
48.313325522613468
 20
17.500000000000028
 30
0.0
 40
6.4999999999999654
 50
76.657636202911817
 51
103.3423637970881
  0
LINE
  5
17DDF
  8
MSM_CONTINUOUS
 10
43.161841805912353
 20
17.5
 30
0.0
 11
46.813325522613468
 21
23.824555320336771
 31
0.0
  0
LINE
  5
17DE0
  8
MSM_CONTINUOUS
 10
46.813325522613461
 20
11.17544467966326
 30
0.0
 11
43.161841805912353
 21
17.5
 31
0.0
  0
ARC
  5
17DE1
  8
MSM_CONTINUOUS
 10
48.313325522613468
 20
17.499999999999741
 30
0.0
 40
6.4999999999997371
 50
256.65763620291131
 51
283.34236379708858
  0
LINE
  5
17DE2
  8
MSM_CONTINUOUS
 10
53.464809239314583
 20
17.5
 30
0.0
 11
49.813325522613468
 21
11.17544467966326
 31
0.0
  0
LINE
  5
17DF5
  8
MSM_CENTER
 10
-1.3249999999999991
 20
17.5
 30
0.0
 11
27.824999999999989
 21
17.5
 31
0.0
  0
LINE
  5
17DF6
  8
MSM_CONTINUOUS
 10
20.0
 20
24.0
 30
0.0
 11
11.0
 21
24.0
 31
0.0
  0
LINE
  5
17DF7
  8
MSM_CONTINUOUS
 10
11.0
 20
11.0
 30
0.0
 11
20.0
 21
11.0
 31
0.0
  0
LINE
  5
17DF8
  8
MSM_CONTINUOUS
 10
10.82679491924311
 20
23.900000000000009
 30
0.0
 11
10.199999999999999
 21
23.900000000000009
 31
0.0
  0
LINE
  5
17DF9
  8
MSM_CONTINUOUS
 10
10.199999999999999
 20
11.099999999999991
 30
0.0
 11
10.82679491924311
 21
11.099999999999991
 31
0.0
  0
ARC
  5
17DFA
  8
MSM_CONTINUOUS
 10
10.826794919243101
 20
24.100000000000019
 30
0.0
 40
0.2000000000000206
 50
270.0
 51
329.99999999999619
  0
LINE
  5
17DFC
  8
MSM_CONTINUOUS
 10
11.0
 20
24.0
 30
0.0
 11
11.0
 21
23.824555320336771
 31
0.0
  0
ARC
  5
17DFE
  8
MSM_CONTINUOUS
 10
10.20000000000001
 20
10.9
 30
0.0
 40
0.2000000000000064
 50
90.0
 51
180.0
  0
LINE
  5
17E00
  8
MSM_CONTINUOUS
 10
11.0
 20
11.175444679663229
 30
0.0
 11
11.0
 21
11.0
 31
0.0
  0
ARC
  5
17E01
  8
MSM_CONTINUOUS
 10
10.826794919243101
 20
10.899999999999981
 30
0.0
 40
0.2000000000000211
 50
30.000000000003698
 51
90.0
  0
ARC
  5
17E02
  8
MSM_CONTINUOUS
 10
10.20000000000001
 20
24.100000000000001
 30
0.0
 40
0.2000000000000064
 50
180.0
 51
270.0
  0
ARC
  5
17E05
  8
MSM_CONTINUOUS
 10
20.0
 20
17.5
 30
0.0
 40
6.4999999999999956
 50
270.0
 51
90.0
  0
LINE
  5
17E07
  8
MSM_CONTINUOUS
 10
10.82679491924311
 20
11.29536473565383
 30
0.0
 11
10.199999999999999
 21
11.29536473565383
 31
0.0
  0
LINE
  5
17E09
  8
MSM_CONTINUOUS
 10
20.0
 20
11.17544467966326
 30
0.0
 11
11.0
 21
11.175444679663229
 31
0.0
  0
LINE
  5
17E0C
  8
MSM_CONTINUOUS
 10
23.96386371064435
 20
17.5
 30
0.0
 11
10.0
 21
17.5
 31
0.0
  0
LINE
  5
17E0E
  8
MSM_CONTINUOUS
 10
11.0
 20
23.824555320336771
 30
0.0
 11
20.0
 21
23.824555320336771
 31
0.0
  0
LINE
  5
17E10
  8
MSM_CONTINUOUS
 10
10.199999999999999
 20
23.70463526434617
 30
0.0
 11
10.82679491924311
 21
23.70463526434617
 31
0.0
  0
LINE
  5
17E12
  8
MSM_CONTINUOUS
 10
0.0
 20
12.0
 30
0.0
 11
2.0
 21
10.0
 31
0.0
  0
LINE
  5
17E13
  8
MSM_CONTINUOUS
 10
2.0
 20
25.0
 30
0.0
 11
0.0
 21
23.0
 31
0.0
  0
LINE
  5
17E14
  8
MSM_CONTINUOUS
 10
0.0
 20
23.0
 30
0.0
 11
0.0
 21
12.0
 31
0.0
  0
LINE
  5
17E15
  8
MSM_CONTINUOUS
 10
2.0
 20
10.0
 30
0.0
 11
10.0
 21
10.0
 31
0.0
  0
LINE
  5
17E16
  8
MSM_CONTINUOUS
 10
10.0
 20
25.0
 30
0.0
 11
2.0
 21
25.0
 31
0.0
  0
LINE
  5
17E17
  8
MSM_CONTINUOUS
 10
10.0
 20
25.0
 30
0.0
 11
10.0
 21
10.0
 31
0.0
  0
LINE
  5
17E18
  8
MSM_CONTINUOUS
 10
2.0
 20
25.0
 30
0.0
 11
2.0
 21
10.0
 31
0.0
  0
ARC
  5
183A6
  8
MSM_CONTINUOUS
 10
10.23101597205458
 20
23.933740541341169
 30
0.0
 40
0.2311951956020529
 50
177.7438196003566
 51
262.29024437168488
  0
ARC
  5
183A7
  8
MSM_CONTINUOUS
 10
10.818362459089981
 20
23.901857944579518
 30
0.0
 40
0.1974028672098286
 50
272.44824931377542
 51
336.946014026939
  0
ARC
  5
183A8
  8
MSM_CONTINUOUS
 10
10.234832050438641
 20
11.063055455122109
 30
0.0
 40
0.2349060951932426
 50
98.527306251703067
 51
181.43862977624991
  0
ARC
  5
183A9
  8
MSM_CONTINUOUS
 10
10.816056654519199
 20
11.09481169450976
 30
0.0
 40
0.2008403162749406
 50
23.670613149130482
 51
86.935123510133707
  0
ARC
  5
183E1
  8
MSM_CONTINUOUS
 10
21.009610591888549
 20
19.759051594160859
 30
0.0
 40
3.7189952399484238
 50
322.5956608877558
 51
356.46397445639627
  0
ARC
  5
183E2
  8
MSM_CONTINUOUS
 10
21.03368491673789
 20
19.71473226125482
 30
0.0
 40
3.692480783785951
 50
357.1273381662574
 51
37.74065376810109
  0
ARC
  5
183E3
  8
MSM_CONTINUOUS
 10
20.14901246210227
 20
18.99281691517157
 30
0.0
 40
4.8340356566548239
 50
38.088948301445697
 51
91.766461501621194
  0
ARC
  5
18464
  8
MSM_CONTINUOUS
 10
21.009610591888549
 20
15.240948405839131
 30
0.0
 40
3.7189952399484238
 50
3.5360255436037451
 51
37.404339112244621
  0
ARC
  5
18465
  8
MSM_CONTINUOUS
 10
21.03368491673789
 20
15.285267738745169
 30
0.0
 40
3.692480783785951
 50
322.25934623189892
 51
2.872661833742602
  0
ARC
  5
18466
  8
MSM_CONTINUOUS
 10
20.14901246210227
 20
16.007183084828419
 30
0.0
 40
4.8340356566548239
 50
268.23353849837878
 51
321.91105169855422
  0
LINE
  5
18608
  8
MSM_NARROW
 10
10.0
 20
17.5
 30
0.0
 11
20.14901246210227
 21
23.826852571826411
 31
0.0
  0
LINE
  5
18609
  8
MSM_NARROW
 10
23.96386371064429
 20
17.50000000000006
 30
0.0
 11
11.00000000000002
 21
23.824555320336771
 31
0.0
  0
LINE
  5
1860A
  8
MSM_NARROW
 10
10.0
 20
17.5
 30
0.0
 11
20.14901246210227
 21
11.173147428173589
 31
0.0
  0
LINE
  5
1860B
  8
MSM_NARROW
 10
23.96386371064429
 20
17.49999999999994
 30
0.0
 11
11.00000000000002
 21
11.175444679663229
 31
0.0
  0
LINE
  5
18764
  8
MSM_NARROW
 10
3.0
 20
25.0
 30
0.0
 11
3.0
 21
10.0
 31
0.0
  0
ENDSEC
  0
EOF
