  0
SECTION
  2
HEADER
  9
$ACADVER
  1
AC1009
  9
$INSBASE
 10
0.0
 20
0.0
 30
0.0
  9
$EXTMIN
 10
-5.0129689811878961
 20
-8.0093071512054621
 30
-0.0015258207003583
  9
$EXTMAX
 10
414.30618384422991
 20
231.505234398536
 30
0.0000000349246037
  9
$LIMMIN
 10
0.0
 20
0.0
  9
$LIMMAX
 10
420.0
 20
297.0
  9
$ORTHOMODE
 70
     1
  9
$REGENMODE
 70
     1
  9
$FILLMODE
 70
     1
  9
$QTEXTMODE
 70
     0
  9
$MIRRTEXT
 70
     0
  9
$DRAGMODE
 70
     2
  9
$LTSCALE
 40
0.5
  9
$OSMODE
 70
   511
  9
$ATTMODE
 70
     1
  9
$TEXTSIZE
 40
3.0
  9
$TRACEWID
 40
1.0
  9
$TEXTSTYLE
  7
STANDARD
  9
$CLAYER
  8
MSM_CONTINUOUS
  9
$CELTYPE
  6
BYLAYER
  9
$CECOLOR
 62
   256
  9
$DIMSCALE
 40
1.0
  9
$DIMASZ
 40
2.5
  9
$DIMEXO
 40
0.625
  9
$DIMDLI
 40
3.75
  9
$DIMRND
 40
0.0
  9
$DIMDLE
 40
0.0
  9
$DIMEXE
 40
1.25
  9
$DIMTP
 40
0.0
  9
$DIMTM
 40
0.0
  9
$DIMTXT
 40
3.0
  9
$DIMCEN
 40
2.5
  9
$DIMTSZ
 40
0.0
  9
$DIMTOL
 70
     0
  9
$DIMLIM
 70
     0
  9
$DIMTIH
 70
     0
  9
$DIMTOH
 70
     0
  9
$DIMSE1
 70
     0
  9
$DIMSE2
 70
     0
  9
$DIMTAD
 70
     1
  9
$DIMZIN
 70
     8
  9
$DIMBLK
  1
OPEN30
  9
$DIMASO
 70
     1
  9
$DIMSHO
 70
     1
  9
$DIMPOST
  1

  9
$DIMAPOST
  1

  9
$DIMALT
 70
     0
  9
$DIMALTD
 70
     3
  9
$DIMALTF
 40
0.03937007874016
  9
$DIMLFAC
 40
1.0
  9
$DIMTOFL
 70
     1
  9
$DIMTVP
 40
0.0
  9
$DIMTIX
 70
     0
  9
$DIMSOXD
 70
     0
  9
$DIMSAH
 70
     0
  9
$DIMBLK1
  1

  9
$DIMBLK2
  1

  9
$DIMSTYLE
  2
MISUMI
  9
$DIMCLRD
 70
   256
  9
$DIMCLRE
 70
   256
  9
$DIMCLRT
 70
   256
  9
$DIMTFAC
 40
1.0
  9
$DIMGAP
 40
0.625
  9
$LUNITS
 70
     2
  9
$LUPREC
 70
     2
  9
$SKETCHINC
 40
1.0
  9
$FILLETRAD
 40
0.0
  9
$AUNITS
 70
     0
  9
$AUPREC
 70
     0
  9
$MENU
  1
.
  9
$ELEVATION
 40
0.0
  9
$PELEVATION
 40
0.0
  9
$THICKNESS
 40
0.0
  9
$LIMCHECK
 70
     0
  9
$BLIPMODE
 70
     0
  9
$CHAMFERA
 40
0.5
  9
$CHAMFERB
 40
0.5
  9
$SKPOLY
 70
     0
  9
$TDCREATE
 40
2455135.5720697111
  9
$TDUPDATE
 40
2459454.762031829
  9
$TDINDWG
 40
0.005132581
  9
$TDUSRTIMER
 40
2459398.3988391091
  9
$USRTIMER
 70
     1
  9
$ANGBASE
 50
0.0
  9
$ANGDIR
 70
     0
  9
$PDMODE
 70
    35
  9
$PDSIZE
 40
0.0
  9
$PLINEWID
 40
0.0
  9
$COORDS
 70
     1
  9
$SPLFRAME
 70
     0
  9
$SPLINETYPE
 70
     6
  9
$SPLINESEGS
 70
     8
  9
$ATTDIA
 70
     1
  9
$ATTREQ
 70
     1
  9
$HANDLING
 70
     1
  9
$HANDSEED
  5
EADD
  9
$SURFTAB1
 70
     6
  9
$SURFTAB2
 70
     6
  9
$SURFTYPE
 70
     6
  9
$SURFU
 70
     6
  9
$SURFV
 70
     6
  9
$UCSNAME
  2

  9
$UCSORG
 10
0.0
 20
0.0
 30
0.0
  9
$UCSXDIR
 10
1.0
 20
0.0
 30
0.0
  9
$UCSYDIR
 10
0.0
 20
1.0
 30
0.0
  9
$PUCSNAME
  2

  9
$PUCSORG
 10
0.0
 20
0.0
 30
0.0
  9
$PUCSXDIR
 10
1.0
 20
0.0
 30
0.0
  9
$PUCSYDIR
 10
0.0
 20
1.0
 30
0.0
  9
$USERI1
 70
     0
  9
$USERI2
 70
     0
  9
$USERI3
 70
     0
  9
$USERI4
 70
     0
  9
$USERI5
 70
     0
  9
$USERR1
 40
0.0
  9
$USERR2
 40
0.0
  9
$USERR3
 40
0.0
  9
$USERR4
 40
0.0
  9
$USERR5
 40
0.0
  9
$WORLDVIEW
 70
     1
  9
$SHADEDGE
 70
     3
  9
$SHADEDIF
 70
    70
  9
$TILEMODE
 70
     1
  9
$MAXACTVP
 70
    64
  9
$PLIMCHECK
 70
     0
  9
$PEXTMIN
 10
25.699999999999989
 20
19.5
 30
0.0
  9
$PEXTMAX
 10
231.30000000000001
 20
175.5
 30
0.0
  9
$PLIMMIN
 10
-4.90008544921875
 20
-4.9000830650329581
  9
$PLIMMAX
 10
292.11056518554688
 20
205.1155877113342
  9
$UNITMODE
 70
     0
  9
$VISRETAIN
 70
     1
  9
$PLINEGEN
 70
     0
  9
$PSLTSCALE
 70
     1
  0
ENDSEC
  0
SECTION
  2
TABLES
  0
TABLE
  2
VPORT
 70
     1
  0
VPORT
  2
*ACTIVE
 70
     0
 10
0.0
 20
0.0
 11
1.0
 21
1.0
 12
204.64660743152101
 22
111.7479636236652
 13
0.0
 23
0.0
 14
10.0
 24
10.0
 15
10.0
 25
10.0
 16
0.0
 26
0.0
 36
1.0
 17
0.0
 27
0.0
 37
0.0
 40
241.7288516411104
 41
2.5524691358024691
 42
50.0
 43
0.0
 44
0.0
 50
0.0
 51
0.0
 71
    16
 72
  1000
 73
     1
 74
     3
 75
     0
 76
     0
 77
     0
 78
     0
  0
ENDTAB
  0
TABLE
  2
LTYPE
 70
     4
  0
LTYPE
  2
CONTINUOUS
 70
     0
  3
Solid line
 72
    65
 73
     0
 40
0.0
  0
LTYPE
  2
CENTER
 70
     0
  3
Center ____ _ ____ _ ____ _ ____ _ ____ _ ____
 72
    65
 73
     4
 40
50.799999999999997
 49
31.75
 49
-6.3499999999999988
 49
6.3499999999999988
 49
-6.3499999999999988
  0
LTYPE
  2
DASHED
 70
     0
  3
Dashed __ __ __ __ __ __ __ __ __ __ __ __ __ _
 72
    65
 73
     2
 40
19.050000000000001
 49
12.699999999999999
 49
-6.3499999999999988
  0
LTYPE
  2
PHANTOM
 70
     0
  3
Phantom ______  __  __  ______  __  __  ______
 72
    65
 73
     6
 40
63.5
 49
31.75
 49
-6.3499999999999988
 49
6.3499999999999988
 49
-6.3499999999999988
 49
6.3499999999999988
 49
-6.3499999999999988
  0
ENDTAB
  0
TABLE
  2
LAYER
 70
     9
  0
LAYER
  2
0
 70
     0
 62
     7
  6
CONTINUOUS
  0
LAYER
  2
MSM_CENTER
 70
     0
 62
     1
  6
CENTER
  0
LAYER
  2
MSM_CONTINUOUS
 70
     0
 62
     7
  6
CONTINUOUS
  0
LAYER
  2
MSM_DASHED
 70
     0
 62
     4
  6
DASHED
  0
LAYER
  2
MSM_IMAGINARY
 70
     0
 62
     6
  6
PHANTOM
  0
LAYER
  2
MSM_NARROW
 70
     0
 62
     5
  6
CONTINUOUS
  0
LAYER
  2
MSM_PART_NUMBER
 70
     0
 62
     7
  6
CONTINUOUS
  0
ENDTAB
  0
TABLE
  2
STYLE
 70
     1
  0
STYLE
  2
STANDARD
 70
     0
 40
3.0
 41
1.0
 50
0.0
 71
     0
 42
3.0
  3
txt.shx
  4
bigfont.shx
  0
ENDTAB
  0
TABLE
  2
VIEW
 70
     0
  0
ENDTAB
  0
TABLE
  2
UCS
 70
     0
  0
ENDTAB
  0
TABLE
  2
APPID
 70
    25
  0
APPID
  2
ACAD
 70
     0
  0
APPID
  2
ACAD_MLEADERVER
 70
     0
  0
APPID
  2
ACAD_EXEMPT_FROM_CAD_STANDARDS
 70
     0
  0
APPID
  2
ACDBBLOCKREPETAG
 70
     0
  0
APPID
  2
ACAD_DSTYLE_DIMJOGGED_JOGA
 70
     0
  0
APPID
  2
ACAECLAYERSTANDARD
 70
     0
  0
APPID
  2
GENIUS_GENODEF_13
 70
     0
  0
APPID
  2
GENIUS_GENOBJ-N-FIL_13
 70
     0
  0
APPID
  2
ACAD_PSEXT
 70
     0
  0
APPID
  2
ACAD_DSTYLE_DIMRADIAL_EXTENSION
 70
     0
  0
APPID
  2
ACDBDYNAMICBLOCKTRUENAME
 70
     0
  0
APPID
  2
ACDBDYNAMICBLOCKGUID
 70
     0
  0
APPID
  2
ACDBBLOCKREPBTAG
 70
     0
  0
APPID
  2
ACAUTHENVIRON
 70
     0
  0
APPID
  2
GRADIENTCOLOR1ACI
 70
     0
  0
APPID
  2
GRADIENTCOLOR2ACI
 70
     0
  0
APPID
  2
ACAD_DSTYLE_DIMJAG
 70
     0
  0
APPID
  2
ACAD_DSTYLE_DIMTALN
 70
     0
  0
APPID
  2
ACCMTRANSPARENCY
 70
     0
  0
APPID
  2
ACAD_DSTYLE_DIMBREAK
 70
     0
  0
APPID
  2
ACAD_DSTYLE_DIMFLIPARROW_W
 70
     0
  0
APPID
  2
ACAD_DSTYLE_DIM_LINETYPE
 70
     0
  0
APPID
  2
ACAD_DSTYLE_DIM_EXT1_LINETYPE
 70
     0
  0
APPID
  2
ACAD_DSTYLE_DIM_EXT2_LINETYPE
 70
     0
  0
APPID
  2
ACAD_NAV_VCDISPLAY
 70
     0
  0
ENDTAB
  0
TABLE
  2
DIMSTYLE
 70
     1
  0
DIMSTYLE
  2
MISUMI
 70
     0
  3

  4

  5
OPEN30
  6

  7

 40
1.0
 41
2.5
 42
0.625
 43
3.75
 44
1.25
 45
0.0
 46
0.0
 47
0.0
 48
0.0
140
3.0
141
2.5
142
0.0
143
0.03937007874016
144
1.0
145
0.0
146
1.0
147
0.625
 71
     0
 72
     0
 73
     0
 74
     0
 75
     0
 76
     0
 77
     1
 78
     8
170
     0
171
     3
172
     1
173
     0
174
     0
175
     0
176
   256
177
   256
178
   256
  0
ENDTAB
  0
ENDSEC
  0
SECTION
  2
BLOCKS
  0
BLOCK
  8
0
  2
$MODEL_SPACE
 70
     0
 10
0.0
 20
0.0
 30
0.0
  3
$MODEL_SPACE
  1

  0
ENDBLK
  5
21
  8
0
  0
BLOCK
 67
     1
  8
0
  2
$PAPER_SPACE
 70
     0
 10
0.0
 20
0.0
 30
0.0
  3
$PAPER_SPACE
  1

  0
ENDBLK
  5
E1C3
 67
     1
  8
0
  0
BLOCK
  8
0
 62
     7
  2
_OPEN30
 70
     0
 10
0.0
 20
0.0
 30
0.0
  3
_OPEN30
  1

  0
LINE
  5
D7
  8
0
  6
BYBLOCK
 62
     0
 10
-1.0
 20
0.26794919
 30
0.0
 11
0.0
 21
0.0
 31
0.0
  0
LINE
  5
D8
  8
0
  6
BYBLOCK
 62
     0
 10
0.0
 20
0.0
 30
0.0
 11
-1.0
 21
-0.26794919
 31
0.0
  0
LINE
  5
D9
  8
0
  6
BYBLOCK
 62
     0
 10
0.0
 20
0.0
 30
0.0
 11
-1.0
 21
0.0
 31
0.0
  0
ENDBLK
  5
DB
  8
0
 62
     7
  0
BLOCK
  8
0
  2
*U2
 70
     1
 10
0.0
 20
0.0
 30
0.0
  3
*U2
  1

  0
TEXT
  5
EAD0
  8
MSM_PART_NUMBER
 10
0.0
 20
-3.0
 30
0.0
 40
3.0
  1
HOANPFM125
  0
ENDBLK
  5
EAD2
  8
0
  0
BLOCK
  8
0
  2
*U3
 70
     1
 10
0.0
 20
0.0
 30
0.0
  3
*U3
  1

  0
TEXT
  5
EAD4
  8
MSM_PART_NUMBER
 10
0.0
 20
-8.0
 30
0.0
 40
3.0
  1
HOAMPLM125
  0
ENDBLK
  5
EAD6
  8
0
  0
ENDSEC
  0
SECTION
  2
ENTITIES
  0
INSERT
  5
DCB4
  8
MSM_CONTINUOUS
  2
*U2
 10
0.0
 20
0.0
 30
0.0
  0
INSERT
  5
DCB5
  8
MSM_CONTINUOUS
  2
*U3
 10
0.0
 20
0.0
 30
0.0
  0
LINE
  5
EA1C
  8
MSM_CONTINUOUS
 10
362.28390832224409
 20
219.125
 30
0.0
 11
302.28390832224432
 21
219.125
 31
0.0
  0
LINE
  5
EA1D
  8
MSM_CONTINUOUS
 10
364.78390832224409
 20
221.125
 30
0.0
 11
299.78390832224432
 21
221.125
 31
0.0
  0
LINE
  5
EA1E
  8
MSM_CONTINUOUS
 10
364.78390832224409
 20
223.125
 30
0.0
 11
299.78390832224432
 21
223.125
 31
0.0
  0
LINE
  5
EA1F
  8
MSM_DASHED
 10
255.2839083222442
 20
34.0
 30
0.0
 11
409.28390832224409
 21
34.0
 31
0.0
  0
LINE
  5
EA20
  8
MSM_DASHED
 10
255.2839083222442
 20
154.0
 30
0.0
 11
409.28390832224409
 21
154.0
 31
0.0
  0
LINE
  5
EA21
  8
MSM_CONTINUOUS
 10
257.2839083222442
 20
32.0
 30
0.0
 11
407.28390832224397
 21
32.0
 31
0.0
  0
LINE
  5
EA22
  8
MSM_CONTINUOUS
 10
257.2839083222442
 20
156.0
 30
0.0
 11
407.28390832224397
 21
156.0
 31
0.0
  0
LINE
  5
EA23
  8
MSM_CENTER
 10
250.2839083222442
 20
94.0
 30
0.0
 11
414.28390832224409
 21
94.0
 31
0.0
  0
LINE
  5
EA24
  8
MSM_CENTER
 10
332.2839083222442
 20
27.0
 30
0.0
 11
332.2839083222442
 21
230.125
 31
0.0
  0
LINE
  5
EA25
  8
MSM_CONTINUOUS
 10
323.28390832224392
 20
219.125
 30
0.0
 11
323.2839083222442
 21
156.0
 31
0.0
  0
LINE
  5
EA26
  8
MSM_CONTINUOUS
 10
341.28390832224409
 20
219.125
 30
0.0
 11
341.28390832224409
 21
156.0
 31
0.0
  0
LINE
  5
EA27
  8
MSM_CONTINUOUS
 10
299.78390832224432
 20
223.125
 30
0.0
 11
299.78390832224432
 21
221.125
 31
0.0
  0
LINE
  5
EA28
  8
MSM_CONTINUOUS
 10
302.28390832224432
 20
219.125
 30
0.0
 11
302.28390832224432
 21
221.125
 31
0.0
  0
LINE
  5
EA29
  8
MSM_CONTINUOUS
 10
337.28390832224409
 20
225.125
 30
0.0
 11
327.28390832224432
 21
225.125
 31
0.0
  0
LINE
  5
EA2A
  8
MSM_CONTINUOUS
 10
327.28390832224432
 20
223.125
 30
0.0
 11
327.28390832224432
 21
225.125
 31
0.0
  0
LINE
  5
EA2B
  8
MSM_CONTINUOUS
 10
337.28390832224409
 20
223.125
 30
0.0
 11
337.28390832224409
 21
225.125
 31
0.0
  0
LINE
  5
EA2C
  8
MSM_CONTINUOUS
 10
362.28390832224409
 20
219.125
 30
0.0
 11
362.28390832224409
 21
221.125
 31
0.0
  0
LINE
  5
EA2D
  8
MSM_CONTINUOUS
 10
364.78390832224409
 20
223.125
 30
0.0
 11
364.78390832224409
 21
221.125
 31
0.0
  0
LINE
  5
EA2E
  8
MSM_CENTER
 10
173.0
 20
94.0
 30
0.0
 11
-5.0
 21
94.0
 31
0.0
  0
LINE
  5
EA2F
  8
MSM_CENTER
 10
83.999999999999986
 20
4.9999999999999707
 30
0.0
 11
83.999999999999986
 21
199.83120650197071
 31
0.0
  0
CIRCLE
  5
EA30
  8
MSM_CONTINUOUS
 10
83.999999999999986
 20
94.0
 30
0.0
 40
84.0
  0
ARC
  5
EA31
  8
MSM_CENTER
 10
83.999999999999986
 20
94.0
 30
0.0
 40
74.0
 50
129.96672553586771
 51
140.0332744641278
  0
CIRCLE
  5
EA32
  8
MSM_DASHED
 10
83.999999999999986
 20
94.0
 30
0.0
 40
62.0
  0
CIRCLE
  5
EA33
  8
MSM_CONTINUOUS
 10
83.999999999999986
 20
94.0
 30
0.0
 40
60.0
  0
LINE
  5
EA34
  8
MSM_CENTER
 10
36.270292269908047
 20
46.270292269907941
 30
0.0
 11
27.077904114482909
 21
37.077904114482862
 31
0.0
  0
LINE
  5
EA35
  8
MSM_CENTER
 10
36.270292269908047
 20
141.729707730092
 30
0.0
 11
27.077904114482969
 21
150.92209588551711
 31
0.0
  0
CIRCLE
  5
EA36
  8
MSM_CONTINUOUS
 10
136.32590180780451
 20
146.32590180780451
 30
0.0
 40
4.5
  0
CIRCLE
  5
EA37
  8
MSM_CONTINUOUS
 10
136.32590180780451
 20
41.674098192195508
 30
0.0
 40
4.5
  0
CIRCLE
  5
EA38
  8
MSM_CONTINUOUS
 10
31.674098192195508
 20
41.674098192195508
 30
0.0
 40
4.5
  0
CIRCLE
  5
EA39
  8
MSM_CONTINUOUS
 10
31.674098192195508
 20
146.32590180780451
 30
0.0
 40
4.5
  0
LINE
  5
EA3A
  8
MSM_CENTER
 10
131.72970773009189
 20
46.270292269907941
 30
0.0
 11
140.922095885517
 21
37.077904114482862
 31
0.0
  0
LINE
  5
EA3B
  8
MSM_CENTER
 10
131.72970773009189
 20
141.7297077300918
 30
0.0
 11
140.922095885517
 21
150.92209588551711
 31
0.0
  0
LINE
  5
EA3C
  8
MSM_CONTINUOUS
 10
255.2839083222442
 20
178.0
 30
0.0
 11
257.2839083222442
 21
178.0
 31
0.0
  0
LINE
  5
EA3D
  8
MSM_CENTER
 10
250.2839083222442
 20
168.0
 30
0.0
 11
262.2839083222442
 21
168.0
 31
0.0
  0
LINE
  5
EA3E
  8
MSM_CONTINUOUS
 10
257.2839083222442
 20
178.0
 30
0.0
 11
257.2839083222442
 21
10.0
 31
0.0
  0
LINE
  5
EA3F
  8
MSM_CONTINUOUS
 10
255.2839083222442
 20
178.0
 30
0.0
 11
255.2839083222442
 21
10.0
 31
0.0
  0
LINE
  5
EA40
  8
MSM_CONTINUOUS
 10
255.2839083222442
 20
10.0
 30
0.0
 11
257.2839083222442
 21
10.0
 31
0.0
  0
LINE
  5
EA41
  8
MSM_CENTER
 10
250.2839083222442
 20
20.0
 30
0.0
 11
262.2839083222442
 21
20.0
 31
0.0
  0
LINE
  5
EA42
  8
MSM_DASHED
 10
255.2839083222442
 20
24.5
 30
0.0
 11
257.2839083222442
 21
24.5
 31
0.0
  0
LINE
  5
EA43
  8
MSM_DASHED
 10
255.2839083222442
 20
15.5
 30
0.0
 11
257.2839083222442
 21
15.5
 31
0.0
  0
LINE
  5
EA44
  8
MSM_DASHED
 10
255.2839083222442
 20
172.5
 30
0.0
 11
257.2839083222442
 21
172.5
 31
0.0
  0
LINE
  5
EA45
  8
MSM_DASHED
 10
255.2839083222442
 20
163.5
 30
0.0
 11
257.2839083222442
 21
163.5
 31
0.0
  0
LINE
  5
EA46
  8
MSM_CONTINUOUS
 10
409.28390832224409
 20
178.0
 30
0.0
 11
409.28390832224409
 21
10.0
 31
0.0
  0
LINE
  5
EA47
  8
MSM_CONTINUOUS
 10
407.28390832224397
 20
178.0
 30
0.0
 11
407.28390832224397
 21
10.0
 31
0.0
  0
LINE
  5
EA48
  8
MSM_DASHED
 10
409.28390832224409
 20
15.5
 30
0.0
 11
407.28390832224397
 21
15.5
 31
0.0
  0
LINE
  5
EA49
  8
MSM_CONTINUOUS
 10
409.28390832224409
 20
10.0
 30
0.0
 11
407.28390832224397
 21
10.0
 31
0.0
  0
LINE
  5
EA4A
  8
MSM_CENTER
 10
414.28390832224409
 20
20.0
 30
0.0
 11
402.28390832224397
 21
20.0
 31
0.0
  0
LINE
  5
EA4B
  8
MSM_DASHED
 10
409.28390832224409
 20
24.5
 30
0.0
 11
407.28390832224397
 21
24.5
 31
0.0
  0
LINE
  5
EA4C
  8
MSM_DASHED
 10
409.28390832224409
 20
163.5
 30
0.0
 11
407.28390832224397
 21
163.5
 31
0.0
  0
LINE
  5
EA4D
  8
MSM_DASHED
 10
409.28390832224409
 20
172.5
 30
0.0
 11
407.28390832224397
 21
172.5
 31
0.0
  0
LINE
  5
EA4E
  8
MSM_CENTER
 10
414.28390832224409
 20
168.0
 30
0.0
 11
402.28390832224397
 21
168.0
 31
0.0
  0
LINE
  5
EA4F
  8
MSM_CONTINUOUS
 10
409.28390832224409
 20
178.0
 30
0.0
 11
407.28390832224397
 21
178.0
 31
0.0
  0
ARC
  5
EA50
  8
MSM_CENTER
 10
83.999999999999986
 20
94.0
 30
0.0
 40
74.0
 50
219.9667255358722
 51
230.03327446413201
  0
ARC
  5
EA51
  8
MSM_CENTER
 10
83.999999999999986
 20
94.0
 30
0.0
 40
74.0
 50
39.966725535872222
 51
50.033274464132212
  0
ARC
  5
EA52
  8
MSM_CENTER
 10
83.999999999999986
 20
94.0
 30
0.0
 40
74.0
 50
309.96672553586762
 51
320.03327446412783
  0
LINE
  5
EA53
  8
MSM_CONTINUOUS
 10
313.56128644940321
 20
231.0
 30
0.0
 11
310.63845071163081
 21
229.3125
 31
0.0
  0
LINE
  5
EA54
  8
MSM_CONTINUOUS
 10
310.63845071163081
 20
229.3125
 30
0.0
 11
314.63665250360083
 21
223.125
 31
0.0
  0
LINE
  5
EA55
  8
MSM_CENTER
 10
317.4491525036006
 20
231.5
 30
0.0
 11
317.4491525036006
 21
210.2500000000002
 31
0.0
  0
LINE
  5
EA56
  8
MSM_CONTINUOUS
 10
319.69915250360049
 20
226.5
 30
0.0
 11
320.26165250360083
 21
223.125
 31
0.0
  0
LINE
  5
EA57
  8
MSM_CONTINUOUS
 10
314.63665250360083
 20
223.125
 30
0.0
 11
315.19915250360071
 21
226.5
 31
0.0
  0
LINE
  5
EA58
  8
MSM_CONTINUOUS
 10
324.25985429557119
 20
229.3125
 30
0.0
 11
320.26165250360083
 21
223.125
 31
0.0
  0
LINE
  5
EA59
  8
MSM_CONTINUOUS
 10
315.76165250360089
 20
219.125
 30
0.0
 11
315.76165250360089
 21
215.5000000000002
 31
0.0
  0
LINE
  5
EA5A
  8
MSM_CONTINUOUS
 10
319.13665250360083
 20
215.5000000000002
 30
0.0
 11
319.13665250360083
 21
219.125
 31
0.0
  0
LINE
  5
EA5B
  8
MSM_NARROW
 10
318.88665250360083
 20
215.2500000000002
 30
0.0
 11
318.88665250360071
 21
219.125
 31
0.0
  0
LINE
  5
EA5C
  8
MSM_NARROW
 10
316.011652503601
 20
219.125
 30
0.0
 11
316.011652503601
 21
215.2500000000002
 31
0.0
  0
LINE
  5
EA5D
  8
MSM_CONTINUOUS
 10
315.76165250360089
 20
215.5000000000002
 30
0.0
 11
319.13665250360083
 21
215.5000000000002
 31
0.0
  0
LINE
  5
EA5E
  8
MSM_CONTINUOUS
 10
316.011652503601
 20
215.2500000000002
 30
0.0
 11
318.88665250360083
 21
215.2500000000002
 31
0.0
  0
LINE
  5
EA5F
  8
MSM_CONTINUOUS
 10
316.011652503601
 20
215.2500000000002
 30
0.0
 11
315.76165250360089
 21
215.5000000000002
 31
0.0
  0
LINE
  5
EA60
  8
MSM_CONTINUOUS
 10
318.88665250360083
 20
215.2500000000002
 30
0.0
 11
319.13665250360083
 21
215.5000000000002
 31
0.0
  0
LINE
  5
EA61
  8
MSM_CONTINUOUS
 10
321.33701855779839
 20
231.0
 30
0.0
 11
324.25985429557119
 21
229.3125
 31
0.0
  0
LINE
  5
EA62
  8
MSM_CONTINUOUS
 10
319.69915250360049
 20
226.5
 30
0.0
 11
315.19915250360071
 21
226.5
 31
0.0
  0
LINE
  5
EA63
  8
MSM_CONTINUOUS
 10
315.19915250360089
 20
226.5
 30
0.0
 11
313.56128644940321
 21
231.0
 31
0.0
  0
LINE
  5
EA64
  8
MSM_CONTINUOUS
 10
319.69915250360049
 20
226.5
 30
0.0
 11
321.33701855779839
 21
231.0
 31
0.0
  0
CIRCLE
  5
EA65
  8
MSM_IMAGINARY
 10
332.2839083222442
 20
94.0
 30
0.0
 40
60.0
  0
LINE
  5
EA66
  8
MSM_CONTINUOUS
 10
74.999999999999986
 20
177.5164654424502
 30
0.0
 11
74.999999999999986
 21
194.83120650197091
 31
0.0
  0
LINE
  5
EA67
  8
MSM_CONTINUOUS
 10
92.999999999999986
 20
177.5164654424502
 30
0.0
 11
92.999999999999986
 21
194.83120650197091
 31
0.0
  0
ARC
  5
EA68
  8
MSM_NARROW
 10
88.499999999999986
 20
191.1857465986115
 30
0.0
 40
5.7913191853842383
 50
29.117618161226321
 51
140.9889918046641
  0
ARC
  5
EA69
  8
MSM_NARROW
 10
79.499999999999986
 20
197.84120557212671
 30
0.0
 40
5.4138797920105111
 50
203.19498892528969
 51
326.22188368469239
  0
VIEWPORT
  5
E1E3
 67
     1
  8
0
 10
143.60523986816401
 20
100.10775232315061
 30
0.0
 40
558.71414768741977
 41
222.19657968139651
 68
     1
 69
     1
1001
ACAD
1000
MVIEW
1002
{
1070
    16
1010
0.0
1020
0.0
1030
0.0
1010
0.0
1020
0.0
1030
1.0
1040
0.0
1040
222.19657968139651
1040
143.60523986816401
1040
100.10775232315061
1040
50.0
1040
0.0
1040
0.0
1070
     0
1070
  1000
1070
     1
1070
     1
1070
     0
1070
     0
1070
     0
1070
     0
1040
0.0
1040
0.0
1040
0.0
1040
10.0
1040
10.0
1040
10.0
1040
10.0
1070
     0
1002
{
1002
}
1002
}
  0
VIEWPORT
  5
E1E7
 67
     1
  8
MSM_CONTINUOUS
 10
128.5
 20
97.5
 30
0.0
 40
205.59999999999999
 41
156.0
 68
     2
 69
     2
1001
ACAD
1000
MVIEW
1002
{
1070
    16
1010
0.0
1020
0.0
1030
0.0
1010
0.0
1020
0.0
1030
1.0
1040
0.0
1040
27.125862002542679
1040
17.70000000000001
1040
-4.0000000000000009
1040
50.0
1040
0.0
1040
0.0
1070
    16
1070
  1000
1070
     1
1070
     3
1070
     0
1070
     0
1070
     0
1070
     0
1040
0.0
1040
0.0
1040
0.0
1040
10.0
1040
10.0
1040
10.0
1040
10.0
1070
     0
1002
{
1002
}
1002
}
  0
ENDSEC
  0
EOF
