  0
SECTION
  2
HEADER
  9
$ACADVER
  1
AC1009
  9
$INSBASE
 10
0.0
 20
0.0
 30
0.0
  9
$EXTMIN
 10
-3.0304361270567588
 20
-8.0093071512054621
 30
-0.0015258207003583
  9
$EXTMAX
 10
72.516692801744966
 20
36.505539347307717
 30
0.0000000349246037
  9
$LIMMIN
 10
0.0
 20
0.0
  9
$LIMMAX
 10
420.0
 20
297.0
  9
$ORTHOMODE
 70
     1
  9
$REGENMODE
 70
     1
  9
$FILLMODE
 70
     1
  9
$QTEXTMODE
 70
     0
  9
$MIRRTEXT
 70
     0
  9
$DRAGMODE
 70
     2
  9
$LTSCALE
 40
0.5
  9
$OSMODE
 70
   511
  9
$ATTMODE
 70
     1
  9
$TEXTSIZE
 40
3.0
  9
$TRACEWID
 40
1.0
  9
$TEXTSTYLE
  7
STANDARD
  9
$CLAYER
  8
MSM_CONTINUOUS
  9
$CELTYPE
  6
BYLAYER
  9
$CECOLOR
 62
   256
  9
$DIMSCALE
 40
1.0
  9
$DIMASZ
 40
2.5
  9
$DIMEXO
 40
0.625
  9
$DIMDLI
 40
3.75
  9
$DIMRND
 40
0.0
  9
$DIMDLE
 40
0.0
  9
$DIMEXE
 40
1.25
  9
$DIMTP
 40
0.0
  9
$DIMTM
 40
0.0
  9
$DIMTXT
 40
3.0
  9
$DIMCEN
 40
2.5
  9
$DIMTSZ
 40
0.0
  9
$DIMTOL
 70
     0
  9
$DIMLIM
 70
     0
  9
$DIMTIH
 70
     0
  9
$DIMTOH
 70
     0
  9
$DIMSE1
 70
     0
  9
$DIMSE2
 70
     0
  9
$DIMTAD
 70
     1
  9
$DIMZIN
 70
     8
  9
$DIMBLK
  1
OPEN30
  9
$DIMASO
 70
     1
  9
$DIMSHO
 70
     1
  9
$DIMPOST
  1

  9
$DIMAPOST
  1

  9
$DIMALT
 70
     0
  9
$DIMALTD
 70
     3
  9
$DIMALTF
 40
0.03937007874016
  9
$DIMLFAC
 40
1.0
  9
$DIMTOFL
 70
     1
  9
$DIMTVP
 40
0.0
  9
$DIMTIX
 70
     0
  9
$DIMSOXD
 70
     0
  9
$DIMSAH
 70
     0
  9
$DIMBLK1
  1

  9
$DIMBLK2
  1

  9
$DIMSTYLE
  2
MISUMI
  9
$DIMCLRD
 70
   256
  9
$DIMCLRE
 70
   256
  9
$DIMCLRT
 70
   256
  9
$DIMTFAC
 40
1.0
  9
$DIMGAP
 40
0.625
  9
$LUNITS
 70
     2
  9
$LUPREC
 70
     2
  9
$SKETCHINC
 40
1.0
  9
$FILLETRAD
 40
0.2
  9
$AUNITS
 70
     0
  9
$AUPREC
 70
     0
  9
$MENU
  1
.
  9
$ELEVATION
 40
0.0
  9
$PELEVATION
 40
0.0
  9
$THICKNESS
 40
0.0
  9
$LIMCHECK
 70
     0
  9
$BLIPMODE
 70
     0
  9
$CHAMFERA
 40
0.5
  9
$CHAMFERB
 40
0.5
  9
$SKPOLY
 70
     0
  9
$TDCREATE
 40
2455135.5720697111
  9
$TDUPDATE
 40
2458647.4082718641
  9
$TDINDWG
 40
0.7122138773
  9
$TDUSRTIMER
 40
2458641.3851395492
  9
$USRTIMER
 70
     1
  9
$ANGBASE
 50
0.0
  9
$ANGDIR
 70
     0
  9
$PDMODE
 70
    35
  9
$PDSIZE
 40
0.0
  9
$PLINEWID
 40
0.0
  9
$COORDS
 70
     1
  9
$SPLFRAME
 70
     0
  9
$SPLINETYPE
 70
     6
  9
$SPLINESEGS
 70
     8
  9
$ATTDIA
 70
     1
  9
$ATTREQ
 70
     1
  9
$HANDLING
 70
     1
  9
$HANDSEED
  5
E676
  9
$SURFTAB1
 70
     6
  9
$SURFTAB2
 70
     6
  9
$SURFTYPE
 70
     6
  9
$SURFU
 70
     6
  9
$SURFV
 70
     6
  9
$UCSNAME
  2

  9
$UCSORG
 10
0.0
 20
0.0
 30
0.0
  9
$UCSXDIR
 10
1.0
 20
0.0
 30
0.0
  9
$UCSYDIR
 10
0.0
 20
1.0
 30
0.0
  9
$PUCSNAME
  2

  9
$PUCSORG
 10
0.0
 20
0.0
 30
0.0
  9
$PUCSXDIR
 10
1.0
 20
0.0
 30
0.0
  9
$PUCSYDIR
 10
0.0
 20
1.0
 30
0.0
  9
$USERI1
 70
     0
  9
$USERI2
 70
     0
  9
$USERI3
 70
     0
  9
$USERI4
 70
     0
  9
$USERI5
 70
     0
  9
$USERR1
 40
0.0
  9
$USERR2
 40
0.0
  9
$USERR3
 40
0.0
  9
$USERR4
 40
0.0
  9
$USERR5
 40
0.0
  9
$WORLDVIEW
 70
     1
  9
$SHADEDGE
 70
     3
  9
$SHADEDIF
 70
    70
  9
$TILEMODE
 70
     1
  9
$MAXACTVP
 70
    64
  9
$PLIMCHECK
 70
     0
  9
$PEXTMIN
 10
0.0
 20
0.0
 30
0.0
  9
$PEXTMAX
 10
0.0
 20
0.0
 30
0.0
  9
$PLIMMIN
 10
0.0
 20
0.0
  9
$PLIMMAX
 10
12.0
 20
9.0
  9
$UNITMODE
 70
     0
  9
$VISRETAIN
 70
     1
  9
$PLINEGEN
 70
     0
  9
$PSLTSCALE
 70
     1
  0
ENDSEC
  0
SECTION
  2
TABLES
  0
TABLE
  2
VPORT
 70
     1
  0
VPORT
  2
*ACTIVE
 70
     0
 10
0.0
 20
0.0
 11
1.0
 21
1.0
 12
34.74312833734411
 22
14.248116098051121
 13
0.0
 23
0.0
 14
10.0
 24
10.0
 15
10.0
 25
10.0
 16
0.0
 26
0.0
 36
1.0
 17
0.0
 27
0.0
 37
0.0
 40
44.921374777038409
 41
2.5213414634146338
 42
50.0
 43
0.0
 44
0.0
 50
0.0
 51
0.0
 71
    16
 72
  1000
 73
     1
 74
     3
 75
     0
 76
     0
 77
     0
 78
     0
  0
ENDTAB
  0
TABLE
  2
LTYPE
 70
     2
  0
LTYPE
  2
CONTINUOUS
 70
     0
  3
Solid line
 72
    65
 73
     0
 40
0.0
  0
LTYPE
  2
CENTER
 70
     0
  3
Center ____ _ ____ _ ____ _ ____ _ ____ _ ____
 72
    65
 73
     4
 40
50.799999999999997
 49
31.75
 49
-6.3499999999999988
 49
6.3499999999999988
 49
-6.3499999999999988
  0
ENDTAB
  0
TABLE
  2
LAYER
 70
     6
  0
LAYER
  2
0
 70
     0
 62
     7
  6
CONTINUOUS
  0
LAYER
  2
MSM_CENTER
 70
     0
 62
     1
  6
CENTER
  0
LAYER
  2
MSM_CONTINUOUS
 70
     0
 62
     7
  6
CONTINUOUS
  0
LAYER
  2
MSM_PART_NUMBER
 70
     0
 62
     7
  6
CONTINUOUS
  0
ENDTAB
  0
TABLE
  2
STYLE
 70
     1
  0
STYLE
  2
STANDARD
 70
     0
 40
3.0
 41
1.0
 50
0.0
 71
     0
 42
3.0
  3
txt.shx
  4
bigfont.shx
  0
ENDTAB
  0
TABLE
  2
VIEW
 70
     0
  0
ENDTAB
  0
TABLE
  2
UCS
 70
     0
  0
ENDTAB
  0
TABLE
  2
APPID
 70
    25
  0
APPID
  2
ACAD
 70
     0
  0
APPID
  2
ACAD_MLEADERVER
 70
     0
  0
APPID
  2
ACAD_EXEMPT_FROM_CAD_STANDARDS
 70
     0
  0
APPID
  2
ACDBBLOCKREPETAG
 70
     0
  0
APPID
  2
ACAD_DSTYLE_DIMJOGGED_JOGA
 70
     0
  0
APPID
  2
ACAECLAYERSTANDARD
 70
     0
  0
APPID
  2
GENIUS_GENODEF_13
 70
     0
  0
APPID
  2
GENIUS_GENOBJ-N-FIL_13
 70
     0
  0
APPID
  2
ACAD_PSEXT
 70
     0
  0
APPID
  2
ACAD_DSTYLE_DIMRADIAL_EXTENSION
 70
     0
  0
APPID
  2
ACDBDYNAMICBLOCKTRUENAME
 70
     0
  0
APPID
  2
ACDBDYNAMICBLOCKGUID
 70
     0
  0
APPID
  2
ACDBBLOCKREPBTAG
 70
     0
  0
APPID
  2
ACAUTHENVIRON
 70
     0
  0
APPID
  2
GRADIENTCOLOR1ACI
 70
     0
  0
APPID
  2
GRADIENTCOLOR2ACI
 70
     0
  0
APPID
  2
ACAD_DSTYLE_DIMJAG
 70
     0
  0
APPID
  2
ACAD_DSTYLE_DIMTALN
 70
     0
  0
APPID
  2
ACCMTRANSPARENCY
 70
     0
  0
APPID
  2
ACAD_DSTYLE_DIMBREAK
 70
     0
  0
APPID
  2
ACAD_DSTYLE_DIMFLIPARROW_W
 70
     0
  0
APPID
  2
ACAD_DSTYLE_DIM_LINETYPE
 70
     0
  0
APPID
  2
ACAD_DSTYLE_DIM_EXT1_LINETYPE
 70
     0
  0
APPID
  2
ACAD_DSTYLE_DIM_EXT2_LINETYPE
 70
     0
  0
APPID
  2
ACAD_NAV_VCDISPLAY
 70
     0
  0
ENDTAB
  0
TABLE
  2
DIMSTYLE
 70
     1
  0
DIMSTYLE
  2
MISUMI
 70
     0
  3

  4

  5
OPEN30
  6

  7

 40
1.0
 41
2.5
 42
0.625
 43
3.75
 44
1.25
 45
0.0
 46
0.0
 47
0.0
 48
0.0
140
3.0
141
2.5
142
0.0
143
0.03937007874016
144
1.0
145
0.0
146
1.0
147
0.625
 71
     0
 72
     0
 73
     0
 74
     0
 75
     0
 76
     0
 77
     1
 78
     8
170
     0
171
     3
172
     1
173
     0
174
     0
175
     0
176
   256
177
   256
178
   256
  0
ENDTAB
  0
ENDSEC
  0
SECTION
  2
BLOCKS
  0
BLOCK
  8
0
  2
$MODEL_SPACE
 70
     0
 10
0.0
 20
0.0
 30
0.0
  3
$MODEL_SPACE
  1

  0
ENDBLK
  5
21
  8
0
  0
BLOCK
 67
     1
  8
0
  2
$PAPER_SPACE
 70
     0
 10
0.0
 20
0.0
 30
0.0
  3
$PAPER_SPACE
  1

  0
ENDBLK
  5
E61D
 67
     1
  8
0
  0
BLOCK
  8
0
 62
     7
  2
_OPEN30
 70
     0
 10
0.0
 20
0.0
 30
0.0
  3
_OPEN30
  1

  0
LINE
  5
D7
  8
0
  6
BYBLOCK
 62
     0
 10
-1.0
 20
0.26794919
 30
0.0
 11
0.0
 21
0.0
 31
0.0
  0
LINE
  5
D8
  8
0
  6
BYBLOCK
 62
     0
 10
0.0
 20
0.0
 30
0.0
 11
-1.0
 21
-0.26794919
 31
0.0
  0
LINE
  5
D9
  8
0
  6
BYBLOCK
 62
     0
 10
0.0
 20
0.0
 30
0.0
 11
-1.0
 21
0.0
 31
0.0
  0
ENDBLK
  5
DB
  8
0
 62
     7
  0
BLOCK
  8
0
  2
*U8
 70
     1
 10
0.0
 20
0.0
 30
0.0
  3
*U8
  1

  0
TEXT
  5
E661
  8
MSM_PART_NUMBER
 10
0.0
 20
-3.0
 30
0.0
 40
3.0
  1
MCSH6.5
  0
ENDBLK
  5
E663
  8
0
  0
BLOCK
  8
0
  2
*U9
 70
     1
 10
0.0
 20
0.0
 30
0.0
  3
*U9
  1

  0
TEXT
  5
E665
  8
MSM_PART_NUMBER
 10
0.0
 20
-8.0
 30
0.0
 40
3.0
  1
MCSH6.5
  0
ENDBLK
  5
E667
  8
0
  0
BLOCK
  8
0
  2
*U10
 70
     1
 10
0.0
 20
0.0
 30
0.0
  3
*U10
  1

  0
TEXT
  5
E66F
  8
MSM_CONTINUOUS
 10
38.125
 20
37.189795112757423
 30
0.0
 40
3.0
  1
7.999995
  0
ENDBLK
  5
E671
  8
0
  0
ENDSEC
  0
SECTION
  2
ENTITIES
  0
INSERT
  5
DCB4
  8
MSM_CONTINUOUS
  2
*U8
 10
0.0
 20
0.0
 30
0.0
  0
INSERT
  5
DCB5
  8
MSM_CONTINUOUS
  2
*U9
 10
0.0
 20
0.0
 30
0.0
  0
LINE
  5
E33C
  8
MSM_CONTINUOUS
 10
66.342892999999975
 20
10.135813000000001
 30
0.0
 11
66.342892999999975
 21
36.364187000000001
 31
0.0
  0
LINE
  5
E33D
  8
MSM_CONTINUOUS
 10
66.892892999999972
 20
10.627720999999999
 30
0.0
 11
66.892892999999972
 21
35.872278999999992
 31
0.0
  0
LINE
  5
E33E
  8
MSM_CONTINUOUS
 10
62.442892999999977
 20
10.165692
 30
0.0
 11
62.442892999999977
 21
36.334307999999993
 31
0.0
  0
LINE
  5
E33F
  8
MSM_CONTINUOUS
 10
61.89289299999998
 20
10.66870799999999
 30
0.0
 11
61.89289299999998
 21
35.831292000000012
 31
0.0
  0
ARC
  5
E344
  8
MSM_CONTINUOUS
 10
37.47730538495378
 20
32.532477987716021
 30
0.0
 40
2.47733452707413
 50
179.72208863846649
 51
279.46875443146922
  0
ARC
  5
E346
  8
MSM_CONTINUOUS
 10
44.164447214246522
 20
32.543641843236067
 30
0.0
 40
2.4869286238654502
 50
260.77243295069172
 51
40.844002108245697
  0
LINE
  5
E347
  8
MSM_CONTINUOUS
 10
47.199999999999982
 20
33.75
 30
0.0
 11
43.765658999999999
 21
35.0
 31
0.0
  0
ARC
  5
E348
  8
MSM_CONTINUOUS
 10
37.482052443067133
 20
13.961945140947501
 30
0.0
 40
2.48206079585947
 50
80.660511928987702
 51
180.14864400109201
  0
LINE
  5
E34A
  8
MSM_CONTINUOUS
 10
47.199999999999982
 20
12.75
 30
0.0
 11
43.765658999999999
 21
11.5
 31
0.0
  0
ARC
  5
E34B
  8
MSM_CONTINUOUS
 10
44.174357209942812
 20
13.961894796808229
 30
0.0
 40
2.4830756839501129
 50
318.90976897001229
 51
99.473763400299859
  0
LINE
  5
E34D
  8
MSM_CONTINUOUS
 10
47.199999999999982
 20
12.75
 30
0.0
 11
47.199999999999982
 21
33.75
 31
0.0
  0
LINE
  5
E357
  8
MSM_CONTINUOUS
 10
68.392892999999972
 20
35.95000000000001
 30
0.0
 11
66.975736712475594
 21
35.95000000000001
 31
0.0
  0
LINE
  5
E359
  8
MSM_CONTINUOUS
 10
66.834315519601915
 20
36.008578480399258
 30
0.0
 11
66.401471480398016
 21
36.441421519600752
 31
0.0
  0
LINE
  5
E35B
  8
MSM_CONTINUOUS
 10
66.260050287524336
 20
36.5
 30
0.0
 11
62.525736712475627
 21
36.5
 31
0.0
  0
LINE
  5
E35D
  8
MSM_CONTINUOUS
 10
62.384315519601941
 20
36.441421519600752
 30
0.0
 11
61.951471480398041
 21
36.008578480399258
 31
0.0
  0
LINE
  5
E35F
  8
MSM_CONTINUOUS
 10
61.810050287524348
 20
35.95000000000001
 30
0.0
 11
52.592892999999982
 21
35.95000000000001
 31
0.0
  0
LINE
  5
E364
  8
MSM_CONTINUOUS
 10
68.392892999999972
 20
10.54999999999999
 30
0.0
 11
66.975736712475594
 21
10.54999999999999
 31
0.0
  0
LINE
  5
E366
  8
MSM_CONTINUOUS
 10
66.834315519601915
 20
10.491421519600729
 30
0.0
 11
66.40147148039803
 21
10.058578480399261
 31
0.0
  0
LINE
  5
E368
  8
MSM_CONTINUOUS
 10
66.260050287524351
 20
10.0
 30
0.0
 11
62.525736712475599
 21
10.0
 31
0.0
  0
LINE
  5
E36A
  8
MSM_CONTINUOUS
 10
62.38431551960192
 20
10.05857848039925
 30
0.0
 11
61.951471480398041
 21
10.491421519600729
 31
0.0
  0
LINE
  5
E36C
  8
MSM_CONTINUOUS
 10
61.810050287524348
 20
10.54999999999999
 30
0.0
 11
52.592892999999982
 21
10.54999999999999
 31
0.0
  0
LINE
  5
E36E
  8
MSM_CONTINUOUS
 10
52.092892999999989
 20
11.04999999999999
 30
0.0
 11
52.092892999999989
 21
35.450000000000003
 31
0.0
  0
LINE
  5
E36F
  8
MSM_CONTINUOUS
 10
69.392892999999972
 20
34.950000000000003
 30
0.0
 11
69.392892999999972
 21
11.54999999999999
 31
0.0
  0
LINE
  5
E38A
  8
MSM_CENTER
 10
-3.0
 20
23.25
 30
0.0
 11
72.5
 21
23.25
 31
0.0
  0
ARC
  5
E391
  8
MSM_CONTINUOUS
 10
25.500000000000011
 20
28.349999999999991
 30
0.0
 40
1.5
 50
270.00000099999983
 51
0.0
  0
ARC
  5
E394
  8
MSM_CONTINUOUS
 10
25.500000000000011
 20
18.149999999999991
 30
0.0
 40
1.5
 50
0.0
 51
89.99999900000023
  0
LINE
  5
E396
  8
MSM_CONTINUOUS
 10
0.0
 20
25.8710470947705
 30
0.0
 11
0.0
 21
20.62895290522949
 31
0.0
  0
LINE
  5
E399
  8
MSM_CONTINUOUS
 10
37.884850999999998
 20
28.105152000000011
 30
0.0
 11
37.884850999999998
 21
30.088895999999991
 31
0.0
  0
LINE
  5
E39A
  8
MSM_CONTINUOUS
 10
37.884850999999998
 20
30.088895999999991
 30
0.0
 11
43.765652999999979
 21
30.088895999999991
 31
0.0
  0
LINE
  5
E39B
  8
MSM_CONTINUOUS
 10
43.765652999999979
 20
30.088895999999991
 30
0.0
 11
43.765652999999979
 21
28.105152000000011
 31
0.0
  0
LINE
  5
E39C
  8
MSM_CONTINUOUS
 10
43.765652999999979
 20
28.105152000000011
 30
0.0
 11
37.884850999999998
 21
28.105152000000011
 31
0.0
  0
LINE
  5
E39E
  8
MSM_CONTINUOUS
 10
37.884850999999998
 20
18.394847999999978
 30
0.0
 11
37.884850999999998
 21
16.411104000000002
 31
0.0
  0
LINE
  5
E39F
  8
MSM_CONTINUOUS
 10
37.884850999999998
 20
16.411104000000002
 30
0.0
 11
43.765652999999979
 21
16.411104000000002
 31
0.0
  0
LINE
  5
E3A0
  8
MSM_CONTINUOUS
 10
43.765652999999979
 20
16.411104000000002
 30
0.0
 11
43.765652999999979
 21
18.394847999999978
 31
0.0
  0
LINE
  5
E3A1
  8
MSM_CONTINUOUS
 10
43.765652999999979
 20
18.394847999999978
 30
0.0
 11
37.884850999999998
 21
18.394847999999978
 31
0.0
  0
LINE
  5
E3A4
  8
MSM_CONTINUOUS
 10
35.0
 20
33.949999999999989
 30
0.0
 11
37.884850999999998
 21
35.0
 31
0.0
  0
LINE
  5
E3A5
  8
MSM_CONTINUOUS
 10
37.884850999999998
 20
35.0
 30
0.0
 11
43.765652999999979
 21
35.0
 31
0.0
  0
LINE
  5
E3A6
  8
MSM_CONTINUOUS
 10
43.765652999999979
 20
35.0
 30
0.0
 11
47.199999999999982
 21
33.75
 31
0.0
  0
LINE
  5
E3A7
  8
MSM_CONTINUOUS
 10
47.199999999999982
 20
33.75
 30
0.0
 11
52.092892999999989
 21
33.75
 31
0.0
  0
LINE
  5
E3A8
  8
MSM_CONTINUOUS
 10
69.392892999999972
 20
32.257106999999998
 30
0.0
 11
69.499999999999972
 21
32.149999999999991
 31
0.0
  0
LINE
  5
E3AA
  8
MSM_CONTINUOUS
 10
35.0
 20
33.949999999999989
 30
0.0
 11
35.0
 21
12.54999999999999
 31
0.0
  0
LINE
  5
E3AB
  8
MSM_CONTINUOUS
 10
35.0
 20
12.54999999999999
 30
0.0
 11
37.884850999999998
 21
11.5
 31
0.0
  0
LINE
  5
E3AC
  8
MSM_CONTINUOUS
 10
37.884850999999998
 20
11.5
 30
0.0
 11
43.765652999999979
 21
11.5
 31
0.0
  0
LINE
  5
E3AD
  8
MSM_CONTINUOUS
 10
43.765652999999979
 20
11.5
 30
0.0
 11
47.199999999999982
 21
12.75
 31
0.0
  0
LINE
  5
E3AE
  8
MSM_CONTINUOUS
 10
47.199999999999982
 20
12.75
 30
0.0
 11
52.092892999999989
 21
12.75
 31
0.0
  0
LINE
  5
E3AF
  8
MSM_CONTINUOUS
 10
69.392892999999972
 20
14.24289299999999
 30
0.0
 11
69.499999999999972
 21
14.35
 31
0.0
  0
LINE
  5
E3B0
  8
MSM_CONTINUOUS
 10
69.499999999999972
 20
14.35
 30
0.0
 11
69.499999999999972
 21
32.149999999999991
 31
0.0
  0
LINE
  5
E3B1
  8
MSM_CONTINUOUS
 10
0.3651377153612643
 20
26.26952497509734
 30
0.0
 11
6.9999999999999956
 21
26.850000000000001
 31
0.0
  0
LINE
  5
E3B3
  8
MSM_CONTINUOUS
 10
6.9999999999999956
 20
26.325067999999991
 30
0.0
 11
13.0
 21
26.850000000000001
 31
0.0
  0
LINE
  5
E3B5
  8
MSM_CONTINUOUS
 10
13.0
 20
26.325067999999991
 30
0.0
 11
19.0
 21
26.850000000000001
 31
0.0
  0
LINE
  5
E3B7
  8
MSM_CONTINUOUS
 10
19.0
 20
26.325067999999991
 30
0.0
 11
25.0
 21
26.850000000000001
 31
0.0
  0
LINE
  5
E3B9
  8
MSM_CONTINUOUS
 10
0.3651377153612643
 20
20.230475024902649
 30
0.0
 11
6.9999999999999956
 21
19.649999999999991
 31
0.0
  0
LINE
  5
E3BA
  8
MSM_CONTINUOUS
 10
6.9999999999999956
 20
19.649999999999991
 30
0.0
 11
6.9999999999999956
 21
26.850000000000001
 31
0.0
  0
LINE
  5
E3BB
  8
MSM_CONTINUOUS
 10
6.9999999999999956
 20
20.174931999999998
 30
0.0
 11
13.0
 21
19.649999999999991
 31
0.0
  0
LINE
  5
E3BC
  8
MSM_CONTINUOUS
 10
13.0
 20
19.649999999999991
 30
0.0
 11
13.0
 21
26.850000000000001
 31
0.0
  0
LINE
  5
E3BD
  8
MSM_CONTINUOUS
 10
13.0
 20
20.174931999999998
 30
0.0
 11
19.0
 21
19.649999999999991
 31
0.0
  0
LINE
  5
E3BE
  8
MSM_CONTINUOUS
 10
19.0
 20
19.649999999999991
 30
0.0
 11
19.0
 21
26.850000000000001
 31
0.0
  0
LINE
  5
E3BF
  8
MSM_CONTINUOUS
 10
19.0
 20
20.174931999999998
 30
0.0
 11
25.0
 21
19.649999999999991
 31
0.0
  0
LINE
  5
E47D
  8
MSM_CONTINUOUS
 10
27.0
 20
31.750000000000021
 30
0.0
 11
27.0
 21
14.750000000000011
 31
0.0
  0
ARC
  5
E480
  8
MSM_CONTINUOUS
 10
27.0924665989658
 20
28.405068340349541
 30
0.0
 40
8.7707111775013278
 50
25.6329274655848
 51
29.69553871944785
  0
LINE
  5
E481
  8
MSM_CONTINUOUS
 10
34.711324865414312
 20
32.749999999984212
 30
0.0
 11
34.999999999999993
 21
32.25
 31
0.0
  0
LINE
  5
E482
  8
MSM_CONTINUOUS
 10
27.0
 20
31.750000000000021
 30
0.0
 11
27.577350269180499
 21
32.749999999984233
 31
0.0
  0
ARC
  5
E483
  8
MSM_CONTINUOUS
 10
33.23374765192338
 20
29.470353110588238
 30
0.0
 40
6.538418092898147
 50
149.89432759230951
 51
162.440285851732
  0
ARC
  5
E484
  8
MSM_CONTINUOUS
 10
28.424147237934871
 20
31.646616701592642
 30
0.0
 40
7.2681858351708932
 50
329.88579848274321
 51
334.7889231232632
  0
ARC
  5
E485
  8
MSM_CONTINUOUS
 10
2.5188396665380308
 20
18.973674351747469
 30
0.0
 40
33.433970555093282
 50
13.71145915446662
 51
15.66273372211699
  0
ARC
  5
E486
  8
MSM_CONTINUOUS
 10
33.342743217305753
 20
31.327731037381579
 30
0.0
 40
6.6568498240113634
 50
197.67113534208079
 51
209.99325326221879
  0
ARC
  5
E487
  8
MSM_CONTINUOUS
 10
46.51993998121376
 20
22.445423904610621
 30
0.0
 40
19.740183734888291
 50
163.65720905384219
 51
171.4332034428877
  0
ARC
  5
E489
  8
MSM_CONTINUOUS
 10
28.424147237934871
 20
14.85338329840736
 30
0.0
 40
7.2681858351708932
 50
25.211076876736751
 51
30.114201517256831
  0
ARC
  5
E48A
  8
MSM_CONTINUOUS
 10
2.5188396665380308
 20
27.52632564825252
 30
0.0
 40
33.433970555093282
 50
344.33726627788297
 51
346.2885408455333
  0
ARC
  5
E48B
  8
MSM_CONTINUOUS
 10
33.342743217305753
 20
15.172268962618441
 30
0.0
 40
6.6568498240113634
 50
150.0067467377811
 51
162.3288646579191
  0
ARC
  5
E48C
  8
MSM_CONTINUOUS
 10
46.51993998121376
 20
24.054576095389411
 30
0.0
 40
19.740183734888291
 50
188.56679655711221
 51
196.34279094615769
  0
ARC
  5
E48E
  8
MSM_CONTINUOUS
 10
27.0924665989658
 20
18.094931659650449
 30
0.0
 40
8.7707111775013278
 50
330.30446128055189
 51
334.36707253441512
  0
LINE
  5
E48F
  8
MSM_CONTINUOUS
 10
34.711324865414312
 20
13.75000000001579
 30
0.0
 11
34.999999999999993
 21
14.25
 31
0.0
  0
LINE
  5
E490
  8
MSM_CONTINUOUS
 10
27.0
 20
14.750000000000011
 30
0.0
 11
27.577350269180499
 21
13.750000000015801
 31
0.0
  0
ARC
  5
E491
  8
MSM_CONTINUOUS
 10
33.23374765192338
 20
17.02964688941179
 30
0.0
 40
6.538418092898147
 50
197.5597141482678
 51
210.10567240769041
  0
ARC
  5
E4F6
  8
MSM_CONTINUOUS
 10
41.172597896037487
 20
23.249999999999989
 30
0.0
 40
5.5042198098631632
 50
298.10592603678577
 51
61.894073963214169
  0
ARC
  5
E4F7
  8
MSM_CONTINUOUS
 10
40.477231148560037
 20
23.249999999999989
 30
0.0
 40
5.5039018684704324
 50
118.09972828625941
 51
241.90027171374049
  0
ARC
  5
E4F8
  8
MSM_CONTINUOUS
 10
68.392892999999972
 20
34.950000000000003
 30
0.0
 40
0.9999999999999996
 50
0.0
 51
90.0
  0
ARC
  5
E4F9
  8
MSM_CONTINUOUS
 10
68.392892999999972
 20
11.54999999999999
 30
0.0
 40
0.9999999999999996
 50
270.0
 51
0.0
  0
ARC
  5
E502
  8
MSM_CONTINUOUS
 10
52.592892999999982
 20
35.450000000000003
 30
0.0
 40
0.4999999999999999
 50
90.0
 51
180.0
  0
ARC
  5
E503
  8
MSM_CONTINUOUS
 10
52.592892999999982
 20
11.04999999999999
 30
0.0
 40
0.4999999999999999
 50
180.0
 51
270.0
  0
ARC
  5
E505
  8
MSM_CONTINUOUS
 10
0.3999999999999986
 20
25.8710470947705
 30
0.0
 40
0.3999999999999998
 50
94.999998208371665
 51
180.0
  0
ARC
  5
E506
  8
MSM_CONTINUOUS
 10
0.3999999999999986
 20
20.62895290522949
 30
0.0
 40
0.3999999999999997
 50
180.0
 51
265.00000179162828
  0
ARC
  5
E569
  8
MSM_CONTINUOUS
 10
66.260050287524336
 20
36.299999999999997
 30
0.0
 40
0.1999999999999999
 50
45.000066185483242
 51
90.0
  0
ARC
  5
E56A
  8
MSM_CONTINUOUS
 10
66.975736712475594
 20
36.150000000000013
 30
0.0
 40
0.2000000000000001
 50
225.0000661854834
 51
270.0
  0
ARC
  5
E56B
  8
MSM_CONTINUOUS
 10
61.810050287524348
 20
36.150000000000013
 30
0.0
 40
0.1999999999999999
 50
270.0
 51
314.99993381451679
  0
ARC
  5
E56C
  8
MSM_CONTINUOUS
 10
62.525736712475627
 20
36.299999999999997
 30
0.0
 40
0.2000000000000001
 50
90.0
 51
134.99993381451671
  0
ARC
  5
E56D
  8
MSM_CONTINUOUS
 10
61.810050287524348
 20
10.349999999999991
 30
0.0
 40
0.1999999999999996
 50
45.00006618548263
 51
90.000000000000057
  0
ARC
  5
E56E
  8
MSM_CONTINUOUS
 10
62.525736712475599
 20
10.199999999999999
 30
0.0
 40
0.2000000000000002
 50
225.00006618548269
 51
269.99999999999989
  0
ARC
  5
E56F
  8
MSM_CONTINUOUS
 10
66.260050287524351
 20
10.199999999999999
 30
0.0
 40
0.2
 50
270.0
 51
314.99993381451748
  0
ARC
  5
E570
  8
MSM_CONTINUOUS
 10
66.975736712475594
 20
10.349999999999991
 30
0.0
 40
0.2
 50
90.000000000000099
 51
134.99993381451719
  0
LINE
  5
E5FD
  8
MSM_CONTINUOUS
 10
27.577350269180489
 20
32.749999999984212
 30
0.0
 11
35.0
 21
32.749999999984212
 31
0.0
  0
LINE
  5
E5FE
  8
MSM_CONTINUOUS
 10
27.577350269189591
 20
27.99998499339738
 30
0.0
 11
35.0
 21
27.99998499339738
 31
0.0
  0
LINE
  5
E5FF
  8
MSM_CONTINUOUS
 10
27.577350269189591
 20
18.500015006602659
 30
0.0
 11
35.0
 21
18.500015006602659
 31
0.0
  0
LINE
  5
E600
  8
MSM_CONTINUOUS
 10
27.577350269180531
 20
13.750000000015749
 30
0.0
 11
35.0
 21
13.75000000001576
 31
0.0
  0
LINE
  5
E601
  8
MSM_CONTINUOUS
 10
25.500000000000011
 20
26.850000000000001
 30
0.0
 11
25.0
 21
26.850000000000001
 31
0.0
  0
LINE
  5
E602
  8
MSM_CONTINUOUS
 10
25.50000002617994
 20
19.649999999999991
 30
0.0
 11
25.0
 21
19.649999999999991
 31
0.0
  0
ENDSEC
  0
EOF
