  0
SECTION
  2
HEADER
  9
$ACADVER
  1
AC1009
  9
$INSBASE
 10
0.0
 20
0.0
 30
0.0
  9
$EXTMIN
 10
10.0
 20
10.0
 30
0.0
  9
$EXTMAX
 10
111.2264948265174
 20
61.810174742693022
 30
0.0
  9
$LIMMIN
 10
0.0
 20
0.0
  9
$LIMMAX
 10
297.0
 20
210.0
  9
$ORTHOMODE
 70
     1
  9
$REGENMODE
 70
     1
  9
$FILLMODE
 70
     1
  9
$QTEXTMODE
 70
     0
  9
$MIRRTEXT
 70
     1
  9
$DRAGMODE
 70
     2
  9
$LTSCALE
 40
1.0
  9
$OSMODE
 70
   693
  9
$ATTMODE
 70
     1
  9
$TEXTSIZE
 40
6.4000000000000012
  9
$TRACEWID
 40
0.05
  9
$TEXTSTYLE
  7
STANDARD
  9
$CLAYER
  8
0
  9
$CELTYPE
  6
CONTINUOUS
  9
$CECOLOR
 62
     7
  9
$DIMSCALE
 40
1.0
  9
$DIMASZ
 40
3.0
  9
$DIMEXO
 40
1.0
  9
$DIMDLI
 40
0.0
  9
$DIMRND
 40
0.0
  9
$DIMDLE
 40
0.0
  9
$DIMEXE
 40
1.0
  9
$DIMTP
 40
0.0
  9
$DIMTM
 40
0.0
  9
$DIMTXT
 40
3.2000000000000002
  9
$DIMCEN
 40
0.0
  9
$DIMTSZ
 40
0.0
  9
$DIMTOL
 70
     0
  9
$DIMLIM
 70
     0
  9
$DIMTIH
 70
     0
  9
$DIMTOH
 70
     0
  9
$DIMSE1
 70
     0
  9
$DIMSE2
 70
     0
  9
$DIMTAD
 70
     1
  9
$DIMZIN
 70
     8
  9
$DIMBLK
  1

  9
$DIMASO
 70
     1
  9
$DIMSHO
 70
     1
  9
$DIMPOST
  1

  9
$DIMAPOST
  1

  9
$DIMALT
 70
     0
  9
$DIMALTD
 70
     2
  9
$DIMALTF
 40
0.04
  9
$DIMLFAC
 40
1.0
  9
$DIMTOFL
 70
     1
  9
$DIMTVP
 40
1.0
  9
$DIMTIX
 70
     1
  9
$DIMSOXD
 70
     0
  9
$DIMSAH
 70
     0
  9
$DIMBLK1
  1

  9
$DIMBLK2
  1

  9
$DIMSTYLE
  2
MISUMI
  9
$DIMCLRD
 70
     0
  9
$DIMCLRE
 70
     0
  9
$DIMCLRT
 70
     0
  9
$DIMTFAC
 40
0.6
  9
$DIMGAP
 40
1.0
  9
$LUNITS
 70
     2
  9
$LUPREC
 70
     4
  9
$SKETCHINC
 40
0.1
  9
$FILLETRAD
 40
0.3
  9
$AUNITS
 70
     0
  9
$AUPREC
 70
     0
  9
$MENU
  1
acad
  9
$ELEVATION
 40
0.0
  9
$PELEVATION
 40
0.0
  9
$THICKNESS
 40
0.0
  9
$LIMCHECK
 70
     0
  9
$BLIPMODE
 70
     0
  9
$CHAMFERA
 40
0.5
  9
$CHAMFERB
 40
0.5
  9
$SKPOLY
 70
     0
  9
$TDCREATE
 40
2451464.6006649309
  9
$TDUPDATE
 40
2454734.7446818291
  9
$TDINDWG
 40
0.1275622454
  9
$TDUSRTIMER
 40
0.1275611227
  9
$USRTIMER
 70
     1
  9
$ANGBASE
 50
0.0
  9
$ANGDIR
 70
     0
  9
$PDMODE
 70
     0
  9
$PDSIZE
 40
0.0
  9
$PLINEWID
 40
0.0
  9
$COORDS
 70
     1
  9
$SPLFRAME
 70
     0
  9
$SPLINETYPE
 70
     6
  9
$SPLINESEGS
 70
     8
  9
$ATTDIA
 70
     0
  9
$ATTREQ
 70
     1
  9
$HANDLING
 70
     1
  9
$HANDSEED
  5
77F
  9
$SURFTAB1
 70
     6
  9
$SURFTAB2
 70
     6
  9
$SURFTYPE
 70
     6
  9
$SURFU
 70
     6
  9
$SURFV
 70
     6
  9
$UCSNAME
  2

  9
$UCSORG
 10
0.0
 20
0.0
 30
0.0
  9
$UCSXDIR
 10
1.0
 20
0.0
 30
0.0
  9
$UCSYDIR
 10
0.0
 20
1.0
 30
0.0
  9
$PUCSNAME
  2

  9
$PUCSORG
 10
0.0
 20
0.0
 30
0.0
  9
$PUCSXDIR
 10
1.0
 20
0.0
 30
0.0
  9
$PUCSYDIR
 10
0.0
 20
1.0
 30
0.0
  9
$USERI1
 70
     0
  9
$USERI2
 70
     0
  9
$USERI3
 70
     0
  9
$USERI4
 70
     0
  9
$USERI5
 70
     0
  9
$USERR1
 40
0.0
  9
$USERR2
 40
0.0
  9
$USERR3
 40
0.0
  9
$USERR4
 40
0.0
  9
$USERR5
 40
0.0
  9
$WORLDVIEW
 70
     1
  9
$SHADEDGE
 70
     3
  9
$SHADEDIF
 70
    70
  9
$TILEMODE
 70
     1
  9
$MAXACTVP
 70
    16
  9
$PLIMCHECK
 70
     0
  9
$PEXTMIN
 10
1.0000000000000000E+020
 20
1.0000000000000000E+020
 30
1.0000000000000000E+020
  9
$PEXTMAX
 10
-1.0000000000000000E+020
 20
-1.0000000000000000E+020
 30
-1.0000000000000000E+020
  9
$PLIMMIN
 10
0.0
 20
0.0
  9
$PLIMMAX
 10
12.0
 20
9.0
  9
$UNITMODE
 70
     0
  9
$VISRETAIN
 70
     0
  9
$PLINEGEN
 70
     0
  9
$PSLTSCALE
 70
     1
  0
ENDSEC
  0
SECTION
  2
TABLES
  0
TABLE
  2
VPORT
 70
     1
  0
VPORT
  2
*ACTIVE
 70
     0
 10
0.0
 20
0.0
 11
1.0
 21
1.0
 12
72.731939946317951
 22
38.183329768905281
 13
0.0
 23
0.0
 14
10.0
 24
10.0
 15
10.0
 25
10.0
 16
0.0
 26
0.0
 36
1.0
 17
0.0
 27
0.0
 37
0.0
 40
89.832242207705846
 41
1.4930467762326161
 42
50.0
 43
0.0
 44
0.0
 50
0.0
 51
0.0
 71
     0
 72
   100
 73
     1
 74
     0
 75
     0
 76
     0
 77
     0
 78
     0
  0
ENDTAB
  0
TABLE
  2
LTYPE
 70
     3
  0
LTYPE
  2
CONTINUOUS
 70
     0
  3
Solid line
 72
    65
 73
     0
 40
0.0
  0
LTYPE
  2
CENTER
 70
     0
  3
Center ____ _ ____ _ ____ _ ____ _ ____ _ ____
 72
    65
 73
     4
 40
2.0
 49
1.25
 49
-0.25
 49
0.25
 49
-0.25
  0
LTYPE
  2
DASHED
 70
     0
  3
Dashed __ __ __ __ __ __ __ __ __ __ __ __ __ _
 72
    65
 73
     2
 40
0.75
 49
0.5
 49
-0.25
  0
ENDTAB
  0
TABLE
  2
LAYER
 70
     2
  0
LAYER
  2
0
 70
     0
 62
     7
  6
CONTINUOUS
  0
LAYER
  2
CENTER
 70
     0
 62
     1
  6
CENTER
  0
ENDTAB
  0
TABLE
  2
STYLE
 70
     1
  0
STYLE
  2
STANDARD
 70
     0
 40
0.0
 41
1.0
 50
0.0
 71
     0
 42
6.4000000000000012
  3
txt
  4

  0
ENDTAB
  0
TABLE
  2
VIEW
 70
     0
  0
ENDTAB
  0
TABLE
  2
UCS
 70
     0
  0
ENDTAB
  0
TABLE
  2
APPID
 70
     1
  0
APPID
  2
ACAD
 70
     0
  0
ENDTAB
  0
TABLE
  2
DIMSTYLE
 70
     1
  0
DIMSTYLE
  2
MISUMI
 70
     0
  3

  4

  5

  6

  7

 40
1.0
 41
3.0
 42
1.0
 43
0.0
 44
1.0
 45
0.0
 46
0.0
 47
0.0
 48
0.0
140
3.2000000000000002
141
0.0
142
0.0
143
0.04
144
1.0
145
1.0
146
0.6
147
1.0
 71
     0
 72
     0
 73
     0
 74
     0
 75
     0
 76
     0
 77
     1
 78
     8
170
     0
171
     2
172
     1
173
     0
174
     1
175
     0
176
     0
177
     0
178
     0
  0
ENDTAB
  0
ENDSEC
  0
SECTION
  2
BLOCKS
  0
BLOCK
  8
0
  2
$MODEL_SPACE
 70
     0
 10
0.0
 20
0.0
 30
0.0
  3
$MODEL_SPACE
  1

  0
ENDBLK
  5
75C
  8
0
  0
BLOCK
 67
     1
  8
0
  2
$PAPER_SPACE
 70
     0
 10
0.0
 20
0.0
 30
0.0
  3
$PAPER_SPACE
  1

  0
ENDBLK
  5
758
 67
     1
  8
0
  0
ENDSEC
  0
SECTION
  2
ENTITIES
  0
LINE
  5
6E4
  8
CENTER
  6
CENTER
 10
111.2264948265174
 20
42.310174742693022
 30
0.0
 11
89.0791902560387
 21
42.310174742693022
 31
0.0
  0
LINE
  5
6E5
  8
0
 10
46.731637771106513
 20
34.310174742693022
 30
0.0
 11
46.731637771106513
 21
50.310174742693192
 31
0.0
  0
LINE
  5
6E6
  8
0
 10
22.731637771106602
 20
34.810174742693022
 30
0.0
 11
22.731637771106602
 21
49.810174742693299
 31
0.0
  0
LINE
  5
6E7
  8
0
 10
34.7316377711062
 20
24.310174742693029
 30
0.0
 11
34.7316377711062
 21
60.310174742693292
 31
0.0
  0
LINE
  5
6E8
  8
0
 10
28.73163777110658
 20
24.310174742693029
 30
0.0
 11
28.73163777110658
 21
60.310174742693292
 31
0.0
  0
LINE
  5
6E9
  8
0
 10
28.23163777110658
 20
34.810174742693022
 30
0.0
 11
28.231637771106559
 21
49.810174742693299
 31
0.0
  0
LINE
  5
6EA
  8
CENTER
  6
CENTER
 10
37.985471798504101
 20
29.310174742693029
 30
0.0
 11
26.637172991451219
 21
29.310174742693029
 31
0.0
  0
LINE
  5
6EB
  8
0
 10
23.231637771106602
 20
34.310174742693022
 30
0.0
 11
27.731637771106559
 21
34.310174742693022
 31
0.0
  0
LINE
  5
6EC
  8
0
  6
DASHED
 62
     3
 10
27.231637771106559
 20
36.310174742693192
 30
0.0
 11
22.731637771106602
 21
36.310174742693192
 31
0.0
  0
TEXT
  5
6ED
  8
0
  6
CONTINUOUS
 62
     7
 10
10.0
 20
17.078388303781779
 30
0.0
 40
2.0
  1
STHIC12
  0
LINE
  5
6EE
  8
0
 10
22.731637771106602
 20
34.810174742693022
 30
0.0
 11
23.231637771106602
 21
34.310174742693022
 31
0.0
  0
LINE
  5
6EF
  8
0
 10
34.7316377711062
 20
34.310174742693022
 30
0.0
 11
46.731637771106513
 21
34.310174742693022
 31
0.0
  0
LINE
  5
6F0
  8
0
  6
DASHED
 62
     3
 10
27.731637771106559
 20
36.310174742693192
 30
0.0
 11
46.731637771106513
 21
36.310174742693192
 31
0.0
  0
LINE
  5
6F1
  8
0
  6
DASHED
 62
     3
 10
34.7316377711062
 20
27.060174742693029
 30
0.0
 11
28.73163777110658
 21
27.060174742693029
 31
0.0
  0
LINE
  5
6F2
  8
0
  6
DASHED
 62
     3
 10
34.7316377711062
 20
31.560174742693029
 30
0.0
 11
28.73163777110658
 21
31.560174742693029
 31
0.0
  0
LINE
  5
6F3
  8
0
 10
28.73163777110658
 20
24.310174742693029
 30
0.0
 11
34.7316377711062
 21
24.310174742693029
 31
0.0
  0
LINE
  5
6F4
  8
0
 10
28.23163777110658
 20
34.810174742693022
 30
0.0
 11
28.73163777110658
 21
34.810174742693022
 31
0.0
  0
LINE
  5
6F5
  8
0
 10
28.23163777110658
 20
34.810174742693022
 30
0.0
 11
27.731637771106559
 21
34.310174742693022
 31
0.0
  0
LINE
  5
6F6
  8
0
  6
DASHED
 62
     3
 10
38.731637771106492
 20
34.310174742693022
 30
0.0
 11
38.731637771106492
 21
36.310174742693192
 31
0.0
  0
LINE
  5
6F7
  8
CENTER
  6
CENTER
 10
40.731637771106492
 20
32.397340317125924
 30
0.0
 11
40.731637771106492
 21
40.009680900381703
 31
0.0
  0
LINE
  5
6F8
  8
0
  6
DASHED
 62
     3
 10
39.031637771106489
 20
34.310174742693022
 30
0.0
 11
39.031637771106489
 21
36.310174742693192
 31
0.0
  0
LINE
  5
6F9
  8
0
  6
DASHED
 62
     3
 10
42.431637771106509
 20
34.310174742693022
 30
0.0
 11
42.431637771106509
 21
36.310174742693192
 31
0.0
  0
LINE
  5
6FA
  8
0
  6
DASHED
 62
     3
 10
42.731637771106477
 20
34.310174742693022
 30
0.0
 11
42.731637771106477
 21
36.310174742693192
 31
0.0
  0
LINE
  5
6FB
  8
CENTER
  6
CENTER
 10
37.985471798504101
 20
55.310174742693292
 30
0.0
 11
26.637172991451219
 21
55.310174742693292
 31
0.0
  0
LINE
  5
6FC
  8
0
  6
DASHED
 62
     3
 10
27.231637771106559
 20
48.310174742693299
 30
0.0
 11
22.731637771106602
 21
48.310174742693299
 31
0.0
  0
LINE
  5
6FD
  8
0
 10
23.231637771106602
 20
50.310174742693192
 30
0.0
 11
27.731637771106559
 21
50.310174742693192
 31
0.0
  0
LINE
  5
6FE
  8
CENTER
  6
CENTER
 10
49.731637771106499
 20
42.310174742693178
 30
0.0
 11
19.4419379951091
 21
42.310174742693178
 31
0.0
  0
LINE
  5
6FF
  8
0
 10
23.231637771106602
 20
50.310174742693192
 30
0.0
 11
22.731637771106602
 21
49.810174742693299
 31
0.0
  0
LINE
  5
700
  8
0
  6
DASHED
 62
     3
 10
27.731637771106559
 20
48.310174742693299
 30
0.0
 11
46.731637771106513
 21
48.310174742693299
 31
0.0
  0
LINE
  5
701
  8
0
 10
34.7316377711062
 20
50.310174742693192
 30
0.0
 11
46.731637771106513
 21
50.310174742693192
 31
0.0
  0
LINE
  5
702
  8
0
  6
DASHED
 62
     3
 10
34.7316377711062
 20
53.06017474269332
 30
0.0
 11
28.73163777110658
 21
53.06017474269332
 31
0.0
  0
LINE
  5
703
  8
0
 10
28.231637771106559
 20
49.810174742693299
 30
0.0
 11
28.73163777110658
 21
49.810174742693299
 31
0.0
  0
LINE
  5
704
  8
0
 10
27.731637771106559
 20
50.310174742693192
 30
0.0
 11
28.231637771106559
 21
49.810174742693299
 31
0.0
  0
LINE
  5
705
  8
0
  6
DASHED
 62
     3
 10
34.7316377711062
 20
57.560174742693313
 30
0.0
 11
28.73163777110658
 21
57.560174742693313
 31
0.0
  0
LINE
  5
706
  8
0
 10
34.7316377711062
 20
60.310174742693292
 30
0.0
 11
28.73163777110658
 21
60.310174742693292
 31
0.0
  0
CIRCLE
  5
707
  8
0
 10
100.15284254127801
 20
42.310174742693178
 30
0.0
 40
6.0
  0
CIRCLE
  5
708
  8
0
 10
100.15284254127801
 20
42.310174742693178
 30
0.0
 40
8.0
  0
ARC
  5
709
  8
0
 10
100.15284254127801
 20
42.310174742693178
 30
0.0
 40
18.0
 50
56.251011404111388
 51
123.74898859588841
  0
LINE
  5
70A
  8
CENTER
  6
CENTER
 10
85.756431192984863
 20
27.91376339439989
 30
0.0
 11
100.15284254127801
 21
42.310174742693178
 31
0.0
  0
LINE
  5
70B
  8
CENTER
  6
CENTER
 10
100.15284254127801
 20
61.810174742693022
 30
0.0
 11
100.15284254127801
 21
22.810174742693029
 31
0.0
  0
LINE
  5
70C
  8
CENTER
  6
CENTER
 10
103.3820284531286
 20
29.310174742693029
 30
0.0
 11
96.923656629427484
 21
29.310174742693029
 31
0.0
  0
CIRCLE
  5
70D
  8
0
 10
100.15284254127801
 20
29.310174742693029
 30
0.0
 40
2.25
  0
LINE
  5
70E
  8
0
  6
DASHED
 62
     3
 10
95.82726633748841
 20
35.580435482869397
 30
0.0
 11
97.286140467283602
 21
37.039309612664312
 31
0.0
  0
LINE
  5
70F
  8
0
  6
DASHED
 62
     3
 10
96.089830528599464
 20
35.418735605268331
 30
0.0
 11
97.567056103651311
 21
36.895961180320228
 31
0.0
  0
LINE
  5
710
  8
0
  6
DASHED
 62
     3
 10
93.423103281454786
 20
37.984598538903612
 30
0.0
 11
94.881977411249196
 21
39.443472668698398
 31
0.0
  0
LINE
  5
711
  8
0
  6
DASHED
 62
     3
 10
93.261403403853436
 20
38.247162730014701
 30
0.0
 11
94.738628978905169
 21
39.72438830506632
 31
0.0
  0
CIRCLE
  5
712
  8
0
 10
100.15284254127801
 20
55.310174742693292
 30
0.0
 40
2.25
  0
LINE
  5
713
  8
CENTER
  6
CENTER
 10
85.756431192984863
 20
56.70658609098632
 30
0.0
 11
100.15284254127801
 21
42.310174742693178
 31
0.0
  0
LINE
  5
714
  8
0
  6
DASHED
 62
     3
 10
96.089830528599464
 20
49.201613880117989
 30
0.0
 11
97.567056103651311
 21
47.72438830506632
 31
0.0
  0
LINE
  5
715
  8
0
  6
DASHED
 62
     3
 10
95.82726633748841
 20
49.039914002516902
 30
0.0
 11
97.286140467283602
 21
47.5810398727223
 31
0.0
  0
LINE
  5
716
  8
0
  6
DASHED
 62
     3
 10
93.423103281454786
 20
46.635750946482403
 30
0.0
 11
94.881977411249196
 21
45.176876816687809
 31
0.0
  0
LINE
  5
717
  8
0
  6
DASHED
 62
     3
 10
93.261403403853436
 20
46.373186755371933
 30
0.0
 11
94.738628978905169
 21
44.895961180319887
 31
0.0
  0
LINE
  5
718
  8
CENTER
  6
CENTER
 10
96.923656629427484
 20
55.310174742693292
 30
0.0
 11
103.3820284531288
 21
55.310174742693292
 31
0.0
  0
LINE
  5
719
  8
0
 10
90.15284254127809
 20
57.276804289788899
 30
0.0
 11
90.15284254127809
 21
27.343545195597439
 31
0.0
  0
LINE
  5
71A
  8
0
 10
110.1528425412781
 20
57.276804289788899
 30
0.0
 11
110.1528425412781
 21
27.343545195597439
 31
0.0
  0
ARC
  5
71B
  8
0
 10
100.15284254127801
 20
42.310174742693178
 30
0.0
 40
18.0
 50
236.25101140411149
 51
303.74898859588831
  0
TEXT
  5
71C
  8
0
  6
CONTINUOUS
 62
     7
 10
10.0
 20
10.0
 30
0.0
 40
2.0
  1
STHIC12
  0
ENDSEC
  0
EOF
