  0
SECTION
  2
HEADER
  9
$ACADVER
  1
AC1009
  9
$INSBASE
 10
0.0
 20
0.0
 30
0.0
  9
$EXTMIN
 10
-32.914518485587891
 20
-29.134974040090871
 30
0.0
  9
$EXTMAX
 10
101.5
 20
109.0000000000001
 30
0.0
  9
$LIMMIN
 10
0.0
 20
0.0
  9
$LIMMAX
 10
420.0
 20
297.0
  9
$ORTHOMODE
 70
     1
  9
$REGENMODE
 70
     1
  9
$FILLMODE
 70
     1
  9
$QTEXTMODE
 70
     0
  9
$MIRRTEXT
 70
     0
  9
$DRAGMODE
 70
     2
  9
$LTSCALE
 40
1.0
  9
$OSMODE
 70
   183
  9
$ATTMODE
 70
     1
  9
$TEXTSIZE
 40
3.0
  9
$TRACEWID
 40
1.0
  9
$TEXTSTYLE
  7
STANDARD
  9
$CLAYER
  8
0
  9
$CELTYPE
  6
CONTINUOUS
  9
$CECOLOR
 62
     7
  9
$DIMSCALE
 40
1.0
  9
$DIMASZ
 40
2.5
  9
$DIMEXO
 40
0.625
  9
$DIMDLI
 40
3.75
  9
$DIMRND
 40
0.0
  9
$DIMDLE
 40
0.0
  9
$DIMEXE
 40
1.25
  9
$DIMTP
 40
0.0
  9
$DIMTM
 40
0.0
  9
$DIMTXT
 40
2.5
  9
$DIMCEN
 40
2.5
  9
$DIMTSZ
 40
0.0
  9
$DIMTOL
 70
     0
  9
$DIMLIM
 70
     0
  9
$DIMTIH
 70
     0
  9
$DIMTOH
 70
     0
  9
$DIMSE1
 70
     0
  9
$DIMSE2
 70
     0
  9
$DIMTAD
 70
     1
  9
$DIMZIN
 70
     8
  9
$DIMBLK
  1
OPEN30
  9
$DIMASO
 70
     1
  9
$DIMSHO
 70
     1
  9
$DIMPOST
  1

  9
$DIMAPOST
  1

  9
$DIMALT
 70
     0
  9
$DIMALTD
 70
     3
  9
$DIMALTF
 40
0.03937007874016
  9
$DIMLFAC
 40
1.0
  9
$DIMTOFL
 70
     1
  9
$DIMTVP
 40
0.0
  9
$DIMTIX
 70
     0
  9
$DIMSOXD
 70
     0
  9
$DIMSAH
 70
     0
  9
$DIMBLK1
  1

  9
$DIMBLK2
  1

  9
$DIMSTYLE
  2
MISUMI
  9
$DIMCLRD
 70
   137
  9
$DIMCLRE
 70
   137
  9
$DIMCLRT
 70
   137
  9
$DIMTFAC
 40
1.0
  9
$DIMGAP
 40
0.625
  9
$LUNITS
 70
     2
  9
$LUPREC
 70
     2
  9
$SKETCHINC
 40
1.0
  9
$FILLETRAD
 40
0.0
  9
$AUNITS
 70
     0
  9
$AUPREC
 70
     0
  9
$MENU
  1
.
  9
$ELEVATION
 40
0.0
  9
$PELEVATION
 40
0.0
  9
$THICKNESS
 40
0.0
  9
$LIMCHECK
 70
     0
  9
$BLIPMODE
 70
     0
  9
$CHAMFERA
 40
0.5
  9
$CHAMFERB
 40
0.5
  9
$SKPOLY
 70
     0
  9
$TDCREATE
 40
2455135.5720697101
  9
$TDUPDATE
 40
2455401.6658271062
  9
$TDINDWG
 40
0.0645193056
  9
$TDUSRTIMER
 40
0.0645191204
  9
$USRTIMER
 70
     1
  9
$ANGBASE
 50
0.0
  9
$ANGDIR
 70
     0
  9
$PDMODE
 70
    35
  9
$PDSIZE
 40
0.0
  9
$PLINEWID
 40
0.0
  9
$COORDS
 70
     2
  9
$SPLFRAME
 70
     0
  9
$SPLINETYPE
 70
     6
  9
$SPLINESEGS
 70
     8
  9
$ATTDIA
 70
     0
  9
$ATTREQ
 70
     1
  9
$HANDLING
 70
 22529
  9
$HANDSEED
  5
DCE
  9
$SURFTAB1
 70
     6
  9
$SURFTAB2
 70
     6
  9
$SURFTYPE
 70
     6
  9
$SURFU
 70
     6
  9
$SURFV
 70
     6
  9
$UCSNAME
  2

  9
$UCSORG
 10
0.0
 20
0.0
 30
0.0
  9
$UCSXDIR
 10
1.0
 20
0.0
 30
0.0
  9
$UCSYDIR
 10
0.0
 20
1.0
 30
0.0
  9
$PUCSNAME
  2

  9
$PUCSORG
 10
0.0
 20
0.0
 30
0.0
  9
$PUCSXDIR
 10
1.0
 20
0.0
 30
0.0
  9
$PUCSYDIR
 10
0.0
 20
1.0
 30
0.0
  9
$USERI1
 70
     0
  9
$USERI2
 70
     0
  9
$USERI3
 70
     0
  9
$USERI4
 70
     0
  9
$USERI5
 70
     0
  9
$USERR1
 40
0.0
  9
$USERR2
 40
0.0
  9
$USERR3
 40
0.0
  9
$USERR4
 40
0.0
  9
$USERR5
 40
0.0
  9
$WORLDVIEW
 70
     1
  9
$SHADEDGE
 70
     3
  9
$SHADEDIF
 70
    70
  9
$TILEMODE
 70
     1
  9
$MAXACTVP
 70
    64
  9
$PLIMCHECK
 70
     0
  9
$PEXTMIN
 10
0.0
 20
0.0
 30
0.0
  9
$PEXTMAX
 10
0.0
 20
0.0
 30
0.0
  9
$PLIMMIN
 10
0.0
 20
0.0
  9
$PLIMMAX
 10
12.0
 20
9.0
  9
$UNITMODE
 70
     0
  9
$VISRETAIN
 70
     1
  9
$PLINEGEN
 70
     0
  9
$PSLTSCALE
 70
     1
  0
ENDSEC
  0
SECTION
  2
TABLES
  0
TABLE
  2
VPORT
 70
     2
  0
VPORT
  2
*ACTIVE
 70
     0
 10
0.0
 20
0.0
 11
1.0
 21
1.0
 12
34.297311861582443
 22
39.93389184384398
 13
0.0
 23
0.0
 14
10.0
 24
10.0
 15
10.0
 25
10.0
 16
0.0
 26
0.0
 36
1.0
 17
0.0
 27
0.0
 37
0.0
 40
139.26072999749661
 41
1.1329032258064511
 42
50.0
 43
0.0
 44
0.0
 50
0.0
 51
0.0
 71
     0
 72
  1000
 73
     1
 74
     3
 75
     0
 76
     0
 77
     0
 78
     0
  0
ENDTAB
  0
TABLE
  2
LTYPE
 70
     4
  0
LTYPE
  2
CONTINUOUS
 70
     0
  3
Solid line
 72
    65
 73
     0
 40
0.0
  0
LTYPE
  2
CENTER
 70
     0
  3
Center ____ _ ____ _ ____ _ ____ _ ____ _ ____
 72
    65
 73
     4
 40
50.799999999999997
 49
31.75
 49
-6.3499999999999988
 49
6.3499999999999988
 49
-6.3499999999999988
  0
LTYPE
  2
DASHED
 70
     0
  3
Dashed __ __ __ __ __ __ __ __ __ __ __ __ __ _
 72
    65
 73
     2
 40
19.04999999999999
 49
12.699999999999999
 49
-6.3499999999999988
  0
ENDTAB
  0
TABLE
  2
LAYER
 70
     2
  0
LAYER
  2
0
 70
     0
 62
     7
  6
CONTINUOUS
  0
LAYER
  2
CENTER
 70
     0
 62
     1
  6
CENTER
  0
ENDTAB
  0
TABLE
  2
STYLE
 70
     1
  0
STYLE
  2
STANDARD
 70
     0
 40
3.0
 41
1.0
 50
0.0
 71
     0
 42
3.0
  3
txt.shx
  4
bigfont.shx
  0
ENDTAB
  0
TABLE
  2
VIEW
 70
     0
  0
ENDTAB
  0
TABLE
  2
UCS
 70
     0
  0
ENDTAB
  0
TABLE
  2
APPID
 70
     1
  0
APPID
  2
ACAD
 70
     0
  0
ENDTAB
  0
TABLE
  2
DIMSTYLE
 70
     1
  0
DIMSTYLE
  2
MISUMI
 70
     0
  3

  4

  5
OPEN30
  6

  7

 40
1.0
 41
2.5
 42
0.625
 43
3.75
 44
1.25
 45
0.0
 46
0.0
 47
0.0
 48
0.0
140
2.5
141
2.5
142
0.0
143
0.03937007874016
144
1.0
145
0.0
146
1.0
147
0.625
 71
     0
 72
     0
 73
     0
 74
     0
 75
     0
 76
     0
 77
     1
 78
     8
170
     0
171
     3
172
     1
173
     0
174
     0
175
     0
176
   137
177
   137
178
   137
  0
ENDTAB
  0
ENDSEC
  0
SECTION
  2
BLOCKS
  0
BLOCK
  8
0
  2
$MODEL_SPACE
 70
     0
 10
0.0
 20
0.0
 30
0.0
  3
$MODEL_SPACE
  1

  0
ENDBLK
  5
21
  8
0
  0
BLOCK
 67
     1
  8
0
  2
$PAPER_SPACE
 70
     0
 10
0.0
 20
0.0
 30
0.0
  3
$PAPER_SPACE
  1

  0
ENDBLK
  5
53
 67
     1
  8
0
  0
BLOCK
  8
0
 62
     7
  2
_OPEN30
 70
     0
 10
0.0
 20
0.0
 30
0.0
  3
_OPEN30
  1

  0
LINE
  5
D7
  8
0
  6
BYBLOCK
 62
     0
 10
-1.0
 20
0.26794919
 30
0.0
 11
0.0
 21
0.0
 31
0.0
  0
LINE
  5
D8
  8
0
  6
BYBLOCK
 62
     0
 10
0.0
 20
0.0
 30
0.0
 11
-1.0
 21
-0.26794919
 31
0.0
  0
LINE
  5
D9
  8
0
  6
BYBLOCK
 62
     0
 10
0.0
 20
0.0
 30
0.0
 11
-1.0
 21
0.0
 31
0.0
  0
ENDBLK
  5
DB
  8
0
 62
     7
  0
ENDSEC
  0
SECTION
  2
ENTITIES
  0
LINE
  5
C82
  8
CENTER
  6
CENTER
 62
     1
 10
0.0
 20
109.0000000000001
 30
0.0
 11
0.0
 21
31.0
 31
0.0
  0
LINE
  5
C83
  8
CENTER
  6
CENTER
 62
     1
 10
90.0
 20
31.0
 30
0.0
 11
90.0
 21
109.0000000000001
 31
0.0
  0
LINE
  5
C86
  8
0
  6
CONTINUOUS
 62
     7
 10
100.0
 20
43.958039891549802
 30
0.0
 11
100.0
 21
65.870834875401073
 31
0.0
  0
LINE
  5
C89
  8
0
  6
CONTINUOUS
 62
     7
 10
80.0
 20
65.870834875401073
 30
0.0
 11
80.0
 21
43.958039891549802
 31
0.0
  0
LINE
  5
C8A
  8
0
  6
CONTINUOUS
 62
     7
 10
10.0
 20
43.958039891549802
 30
0.0
 11
10.0
 21
71.861642852782779
 31
0.0
  0
LINE
  5
C8B
  8
0
  6
CONTINUOUS
 62
     7
 10
-10.0
 20
71.861642852782779
 30
0.0
 11
-10.0
 21
43.958039891549802
 31
0.0
  0
LINE
  5
C8C
  8
CENTER
  6
CENTER
 62
     1
 10
0.0
 20
13.00000000000021
 30
0.0
 11
0.0
 21
-12.99999999999981
 31
0.0
  0
ARC
  5
C8D
  8
0
  6
CONTINUOUS
 62
     7
 10
0.0
 20
0.0
 30
0.0
 40
12.500000000000201
 50
298.35763657633009
 51
61.642363423671803
  0
ARC
  5
C8E
  8
0
  6
CONTINUOUS
 62
     7
 10
0.0
 20
0.0
 30
0.0
 40
11.50000000000021
 50
286.95742629417288
 51
73.042573705828787
  0
ARC
  5
C8F
  8
0
  6
CONTINUOUS
 62
     7
 10
0.0
 20
0.0
 30
0.0
 40
11.500000000000201
 50
106.9574262941711
 51
253.04257370582721
  0
ARC
  5
C90
  8
0
  6
CONTINUOUS
 62
     7
 10
0.0
 20
0.0
 30
0.0
 40
12.500000000000171
 50
118.3576365763281
 51
241.64236342367181
  0
LINE
  5
C91
  8
CENTER
  6
CENTER
 62
     1
 10
-19.000000000000131
 20
0.0
 30
0.0
 11
19.00000000000016
 21
0.0
 31
0.0
  0
LINE
  5
C92
  8
0
  6
CONTINUOUS
 62
     7
 10
-12.37689379448673
 20
1.7500000000000031
 30
0.0
 11
-13.249999999999989
 21
1.7500000000000071
 31
0.0
  0
LINE
  5
C93
  8
0
  6
CONTINUOUS
 62
     7
 10
-12.37689379448674
 20
-1.749999999999992
 30
0.0
 11
-13.249999999999989
 21
-1.749999999999992
 31
0.0
  0
LINE
  5
C94
  8
0
  6
CONTINUOUS
 62
     7
 10
-10.520812706250579
 20
6.750000000000056
 30
0.0
 11
-15.602483776630059
 21
6.7500000000000142
 31
0.0
  0
LINE
  5
C95
  8
0
  6
CONTINUOUS
 62
     7
 10
-10.520812706250579
 20
-6.7500000000000986
 30
0.0
 11
-15.602483776629979
 21
-6.7500000000002132
 31
0.0
  0
ARC
  5
C96
  8
0
  6
CONTINUOUS
 62
     7
 10
-13.249999999999989
 20
0.0000000000000142
 30
0.0
 40
1.75
 50
90.0
 51
270.0
  0
ARC
  5
C97
  8
0
  6
CONTINUOUS
 62
     7
 10
0.0
 20
0.0
 30
0.0
 40
17.000000000000131
 50
156.60556037740571
 51
203.39443962259429
  0
ARC
  5
C98
  8
0
  6
CONTINUOUS
 62
     7
 10
0.0
 20
-0.0000000000000055
 30
0.0
 40
12.699999999999999
 50
311.57985347999028
 51
327.89340638801031
  0
ARC
  5
C99
  8
0
  6
CONTINUOUS
 62
     7
 10
0.0
 20
-0.0000000000000055
 30
0.0
 40
12.699999999999999
 50
212.1065936119912
 51
228.42014652000961
  0
LINE
  5
C9A
  8
0
  6
CONTINUOUS
 62
     7
 10
-5.9371710435196974
 20
-10.999999999999799
 30
0.0
 11
5.9371710435196974
 21
-10.99999999999981
 31
0.0
  0
LINE
  5
C9B
  8
0
  6
CONTINUOUS
 62
     7
 10
-8.4285230022821906
 20
-9.5
 30
0.0
 11
-8.1240384046362273
 21
-9.5
 31
0.0
  0
LINE
  5
C9C
  8
0
  6
CONTINUOUS
 62
     7
 10
8.1240384046362681
 20
-9.5
 30
0.0
 11
8.4285230022821906
 21
-9.5
 31
0.0
  0
LINE
  5
C9D
  8
0
  6
CONTINUOUS
 62
     7
 10
15.602483776630089
 20
6.7500000000000142
 30
0.0
 11
10.520812706250579
 21
6.750000000000056
 31
0.0
  0
LINE
  5
C9E
  8
0
  6
CONTINUOUS
 62
     7
 10
15.60248377663015
 20
-6.7499999999997859
 30
0.0
 11
10.52081270625075
 21
-6.7499999999998153
 31
0.0
  0
CIRCLE
  5
CA0
  8
0
  6
CONTINUOUS
 62
     7
 10
0.0
 20
0.0
 30
0.0
 40
2.0
  0
ARC
  5
CA3
  8
0
  6
CONTINUOUS
 62
     7
 10
0.0
 20
-0.0000000000000055
 30
0.0
 40
12.699999999999999
 50
131.57985347999031
 51
147.89340638800891
  0
LINE
  5
CA4
  8
0
  6
CONTINUOUS
 62
     7
 10
-8.1240384046362273
 20
9.5
 30
0.0
 11
-8.4285230022821906
 21
9.5
 31
0.0
  0
ARC
  5
CA5
  8
0
  6
CONTINUOUS
 62
     7
 10
0.0
 20
-0.0000000000000055
 30
0.0
 40
12.699999999999999
 50
32.10659361199103
 51
48.420146520009659
  0
LINE
  5
CA6
  8
0
  6
CONTINUOUS
 62
     7
 10
8.4285230022821906
 20
9.5
 30
0.0
 11
8.1240384046362681
 21
9.5
 31
0.0
  0
ARC
  5
CA7
  8
0
  6
CONTINUOUS
 62
     7
 10
0.0
 20
0.0
 30
0.0
 40
17.00000000000016
 50
336.60556037740719
 51
23.394439622594248
  0
LINE
  5
CA8
  8
0
  6
CONTINUOUS
 62
     7
 10
5.9371710435189584
 20
11.00000000000021
 30
0.0
 11
-5.9371710435189584
 21
11.00000000000021
 31
0.0
  0
ARC
  5
CA9
  8
0
  6
CONTINUOUS
 62
     7
 10
13.0
 20
43.958039891549802
 30
0.0
 40
2.999999999999988
 50
180.0
 51
260.40593177314008
  0
LINE
  5
CAA
  8
0
  6
CONTINUOUS
 62
     7
 10
5.9371710435189584
 20
33.999999999999979
 30
0.0
 11
12.5
 21
33.999999999999979
 31
0.0
  0
LINE
  5
CAB
  8
0
  6
CONTINUOUS
 62
     7
 10
-12.49999999999997
 20
41.0
 30
0.0
 11
12.5
 21
41.0
 31
0.0
  0
LINE
  5
CAC
  8
0
  6
CONTINUOUS
 62
     7
 10
11.5
 20
33.0
 30
0.0
 11
-11.5
 21
33.0
 31
0.0
  0
LINE
  5
CAD
  8
0
  6
CONTINUOUS
 62
     7
 10
5.9371710435189584
 20
33.999999999999979
 30
0.0
 11
5.9371710435189584
 21
41.0
 31
0.0
  0
LINE
  5
CAE
  8
0
  6
CONTINUOUS
 62
     7
 10
-5.9371710435189291
 20
33.999999999999979
 30
0.0
 11
-5.9371710435189291
 21
41.0
 31
0.0
  0
LINE
  5
CAF
  8
0
  6
CONTINUOUS
 62
     7
 10
-12.49999999999997
 20
41.0
 30
0.0
 11
-12.49999999999997
 21
33.999999999999979
 31
0.0
  0
LINE
  5
CB0
  8
0
  6
CONTINUOUS
 62
     3
 10
5.9371710435189584
 20
41.0
 30
0.0
 11
-5.9371710435189291
 21
33.999999999999979
 31
0.0
  0
LINE
  5
CB1
  8
0
  6
CONTINUOUS
 62
     3
 10
-5.9371710435189291
 20
41.0
 30
0.0
 11
5.9371710435191289
 21
34.000000000000057
 31
0.0
  0
ARC
  5
CB2
  8
0
  6
CONTINUOUS
 62
     7
 10
1.624070200776941
 20
49.695085514941717
 30
0.0
 40
17.421483245572851
 50
244.27716151441331
 51
253.39637231253911
  0
LINE
  5
CB3
  8
0
  6
CONTINUOUS
 62
     7
 10
-12.49999999999997
 20
33.999999999999979
 30
0.0
 11
-11.5
 21
33.0
 31
0.0
  0
LINE
  5
CB4
  8
0
  6
CONTINUOUS
 62
     7
 10
-12.49999999999997
 20
33.999999999999979
 30
0.0
 11
-5.9371710435189291
 21
33.999999999999979
 31
0.0
  0
ARC
  5
CB5
  8
0
  6
CONTINUOUS
 62
     7
 10
-1.624070200776941
 20
49.695085514941717
 30
0.0
 40
17.421483245572851
 50
286.6036276874591
 51
295.72283848558658
  0
ARC
  5
CB6
  8
0
  6
CONTINUOUS
 62
     7
 10
-13.0
 20
43.958039891549802
 30
0.0
 40
2.999999999999988
 50
279.59406822685992
 51
0.0
  0
LINE
  5
CB7
  8
0
  6
CONTINUOUS
 62
     7
 10
12.5
 20
33.999999999999979
 30
0.0
 11
12.5
 21
41.0
 31
0.0
  0
LINE
  5
CB8
  8
0
  6
CONTINUOUS
 62
     7
 10
11.5
 20
33.0
 30
0.0
 11
12.5
 21
33.999999999999979
 31
0.0
  0
LINE
  5
CB9
  8
0
  6
DASHED
 62
     3
 10
83.812000000000012
 20
35.0
 30
0.0
 11
81.811999999999998
 21
33.0
 31
0.0
  0
LINE
  5
CBA
  8
0
  6
CONTINUOUS
 62
     7
 10
79.0
 20
33.999999999999979
 30
0.0
 11
101.0
 21
33.999999999999979
 31
0.0
  0
LINE
  5
CBB
  8
0
  6
CONTINUOUS
 62
     7
 10
101.0
 20
33.0
 30
0.0
 11
79.0
 21
33.0
 31
0.0
  0
LINE
  5
CBC
  8
0
  6
CONTINUOUS
 62
     7
 10
79.0
 20
41.0
 30
0.0
 11
101.0
 21
41.0
 31
0.0
  0
LINE
  5
CBD
  8
0
  6
CONTINUOUS
 62
     7
 10
79.0
 20
33.0
 30
0.0
 11
79.0
 21
41.0
 31
0.0
  0
ARC
  5
CBE
  8
0
  6
CONTINUOUS
 62
     7
 10
75.125000000000057
 20
43.958039891549802
 30
0.0
 40
4.8749999999999662
 50
322.64314802709629
 51
0.0
  0
LINE
  5
CBF
  8
0
  6
CONTINUOUS
 62
     7
 10
101.0
 20
33.0
 30
0.0
 11
101.0
 21
41.0
 31
0.0
  0
LINE
  5
CC0
  8
0
  6
DASHED
 62
     3
 10
96.188000000000002
 20
34.999999999999993
 30
0.0
 11
83.812000000000012
 21
35.0
 31
0.0
  0
LINE
  5
CC1
  8
0
  6
DASHED
 62
     3
 10
96.188000000000002
 20
34.999999999999993
 30
0.0
 11
98.187999999999946
 21
32.999999999999993
 31
0.0
  0
ARC
  5
CC2
  8
0
  6
CONTINUOUS
 62
     7
 10
104.8749999999999
 20
43.958039891549802
 30
0.0
 40
4.8749999999999662
 50
180.0
 51
217.3568519729036
  0
CIRCLE
  5
CC3
  8
0
  6
CONTINUOUS
 62
     7
 10
0.0
 20
90.0
 30
0.0
 40
7.7000000000000002
  0
CIRCLE
  5
CC4
  8
0
  6
CONTINUOUS
 62
     7
 10
0.0
 20
90.0
 30
0.0
 40
7.0
  0
CIRCLE
  5
CC5
  8
0
  6
CONTINUOUS
 62
     7
 10
0.0
 20
90.0
 30
0.0
 40
10.75767168117715
  0
CIRCLE
  5
CC6
  8
0
  6
CONTINUOUS
 62
     7
 10
0.0
 20
90.0
 30
0.0
 40
8.4285230022821906
  0
CIRCLE
  5
CC7
  8
0
  6
DASHED
 62
     3
 10
0.0
 20
90.0
 30
0.0
 40
12.699999999999999
  0
ARC
  5
CC8
  8
0
  6
CONTINUOUS
 62
     7
 10
0.0
 20
90.0
 30
0.0
 40
15.60248377663002
 50
312.94875357193888
 51
227.05124642806121
  0
ARC
  5
CC9
  8
0
  6
CONTINUOUS
 62
     7
 10
0.0
 20
90.0
 30
0.0
 40
17.000000000000099
 50
317.79455359626911
 51
222.20544640373279
  0
ARC
  5
CCB
  8
0
  6
CONTINUOUS
 62
     7
 10
-20.0
 20
71.861642852782779
 30
0.0
 40
10.0
 50
0.0
 51
42.2054464037329
  0
ARC
  5
CD2
  8
0
  6
CONTINUOUS
 62
     7
 10
20.0
 20
71.861642852782779
 30
0.0
 40
9.9999999999999964
 50
137.79455359626701
 51
180.0
  0
ARC
  5
CD3
  8
0
  6
CONTINUOUS
 62
     7
 10
16.744100126796521
 20
71.47342540073916
 30
0.0
 40
9.3739651978562009
 50
130.7055989867583
 51
177.626448956438
  0
ARC
  5
CD4
  8
0
  6
CONTINUOUS
 62
     7
 10
-16.679461887130991
 20
71.50472004780778
 30
0.0
 40
9.3081302741304928
 50
2.1975611183233692
 51
49.470390938479909
  0
LINE
  5
CD5
  8
0
  6
CONTINUOUS
 62
     7
 10
-7.3781772816868161
 20
71.5
 30
0.0
 11
7.3781772816869298
 21
71.500000000000227
 31
0.0
  0
POLYLINE
  5
CD6
  8
0
  6
CONTINUOUS
 62
     7
 10
-5.33691562709447
 20
68.543749470663712
 30
0.0
 66
     1
 70
     8
  0
VERTEX
  8
0
  5
D4C
 10
-5.33692
 20
68.5437
 30
0.000000
  70
    32
  0
VERTEX
  8
0
  5
D4D
 10
-5.26232
 20
68.4630
 30
0.000000
  70
    32
  0
VERTEX
  8
0
  5
D4E
 10
-5.18732
 20
68.3834
 30
0.000000
  70
    32
  0
VERTEX
  8
0
  5
D4F
 10
-5.11192
 20
68.3049
 30
0.000000
  70
    32
  0
VERTEX
  8
0
  5
D50
 10
-5.03612
 20
68.2276
 30
0.000000
  70
    32
  0
VERTEX
  8
0
  5
D51
 10
-4.95993
 20
68.1515
 30
0.000000
  70
    32
  0
VERTEX
  8
0
  5
D52
 10
-4.88336
 20
68.0765
 30
0.000000
  70
    32
  0
VERTEX
  8
0
  5
D53
 10
-4.80641
 20
68.0027
 30
0.000000
  70
    32
  0
VERTEX
  8
0
  5
D54
 10
-4.72909
 20
67.9301
 30
0.000000
  70
    32
  0
VERTEX
  8
0
  5
D55
 10
-4.65141
 20
67.8586
 30
0.000000
  70
    32
  0
VERTEX
  8
0
  5
D56
 10
-4.57336
 20
67.7883
 30
0.000000
  70
    32
  0
VERTEX
  8
0
  5
D57
 10
-4.49496
 20
67.7192
 30
0.000000
  70
    32
  0
VERTEX
  8
0
  5
D58
 10
-4.41621
 20
67.6514
 30
0.000000
  70
    32
  0
VERTEX
  8
0
  5
D59
 10
-4.33712
 20
67.5847
 30
0.000000
  70
    32
  0
VERTEX
  8
0
  5
D5A
 10
-4.25770
 20
67.5192
 30
0.000000
  70
    32
  0
VERTEX
  8
0
  5
D5B
 10
-4.17794
 20
67.4549
 30
0.000000
  70
    32
  0
VERTEX
  8
0
  5
D5C
 10
-4.09786
 20
67.3919
 30
0.000000
  70
    32
  0
VERTEX
  8
0
  5
D5D
 10
-4.01747
 20
67.3301
 30
0.000000
  70
    32
  0
VERTEX
  8
0
  5
D5E
 10
-3.93676
 20
67.2695
 30
0.000000
  70
    32
  0
VERTEX
  8
0
  5
D5F
 10
-3.85575
 20
67.2101
 30
0.000000
  70
    32
  0
VERTEX
  8
0
  5
D60
 10
-3.77444
 20
67.1520
 30
0.000000
  70
    32
  0
VERTEX
  8
0
  5
D61
 10
-3.69284
 20
67.0951
 30
0.000000
  70
    32
  0
VERTEX
  8
0
  5
D62
 10
-3.61095
 20
67.0395
 30
0.000000
  70
    32
  0
VERTEX
  8
0
  5
D63
 10
-3.52879
 20
66.9851
 30
0.000000
  70
    32
  0
VERTEX
  8
0
  5
D64
 10
-3.44635
 20
66.9319
 30
0.000000
  70
    32
  0
VERTEX
  8
0
  5
D65
 10
-3.36364
 20
66.8801
 30
0.000000
  70
    32
  0
VERTEX
  8
0
  5
D66
 10
-3.28068
 20
66.8295
 30
0.000000
  70
    32
  0
VERTEX
  8
0
  5
D67
 10
-3.19746
 20
66.7801
 30
0.000000
  70
    32
  0
VERTEX
  8
0
  5
D68
 10
-3.11399
 20
66.7320
 30
0.000000
  70
    32
  0
VERTEX
  8
0
  5
D69
 10
-3.03028
 20
66.6852
 30
0.000000
  70
    32
  0
VERTEX
  8
0
  5
D6A
 10
-2.94634
 20
66.6397
 30
0.000000
  70
    32
  0
VERTEX
  8
0
  5
D6B
 10
-2.86217
 20
66.5954
 30
0.000000
  70
    32
  0
VERTEX
  8
0
  5
D6C
 10
-2.77778
 20
66.5525
 30
0.000000
  70
    32
  0
VERTEX
  8
0
  5
D6D
 10
-2.69317
 20
66.5108
 30
0.000000
  70
    32
  0
VERTEX
  8
0
  5
D6E
 10
-2.60835
 20
66.4704
 30
0.000000
  70
    32
  0
VERTEX
  8
0
  5
D6F
 10
-2.52334
 20
66.4313
 30
0.000000
  70
    32
  0
VERTEX
  8
0
  5
D70
 10
-2.43812
 20
66.3935
 30
0.000000
  70
    32
  0
VERTEX
  8
0
  5
D71
 10
-2.35272
 20
66.3570
 30
0.000000
  70
    32
  0
VERTEX
  8
0
  5
D72
 10
-2.26714
 20
66.3218
 30
0.000000
  70
    32
  0
VERTEX
  8
0
  5
D73
 10
-2.18138
 20
66.2879
 30
0.000000
  70
    32
  0
VERTEX
  8
0
  5
D74
 10
-2.09545
 20
66.2554
 30
0.000000
  70
    32
  0
VERTEX
  8
0
  5
D75
 10
-2.00936
 20
66.2241
 30
0.000000
  70
    32
  0
VERTEX
  8
0
  5
D76
 10
-1.92312
 20
66.1941
 30
0.000000
  70
    32
  0
VERTEX
  8
0
  5
D77
 10
-1.83672
 20
66.1655
 30
0.000000
  70
    32
  0
VERTEX
  8
0
  5
D78
 10
-1.75019
 20
66.1382
 30
0.000000
  70
    32
  0
VERTEX
  8
0
  5
D79
 10
-1.66352
 20
66.1122
 30
0.000000
  70
    32
  0
VERTEX
  8
0
  5
D7A
 10
-1.57672
 20
66.0875
 30
0.000000
  70
    32
  0
VERTEX
  8
0
  5
D7B
 10
-1.48980
 20
66.0641
 30
0.000000
  70
    32
  0
VERTEX
  8
0
  5
D7C
 10
-1.40276
 20
66.0421
 30
0.000000
  70
    32
  0
VERTEX
  8
0
  5
D7D
 10
-1.31561
 20
66.0214
 30
0.000000
  70
    32
  0
VERTEX
  8
0
  5
D7E
 10
-1.22836
 20
66.0020
 30
0.000000
  70
    32
  0
VERTEX
  8
0
  5
D7F
 10
-1.14102
 20
65.9840
 30
0.000000
  70
    32
  0
VERTEX
  8
0
  5
D80
 10
-1.05359
 20
65.9672
 30
0.000000
  70
    32
  0
VERTEX
  8
0
  5
D81
 10
-0.966078
 20
65.9519
 30
0.000000
  70
    32
  0
VERTEX
  8
0
  5
D82
 10
-0.878491
 20
65.9378
 30
0.000000
  70
    32
  0
VERTEX
  8
0
  5
D83
 10
-0.790836
 20
65.9251
 30
0.000000
  70
    32
  0
VERTEX
  8
0
  5
D84
 10
-0.703119
 20
65.9137
 30
0.000000
  70
    32
  0
VERTEX
  8
0
  5
D85
 10
-0.615348
 20
65.9037
 30
0.000000
  70
    32
  0
VERTEX
  8
0
  5
D86
 10
-0.527530
 20
65.8950
 30
0.000000
  70
    32
  0
VERTEX
  8
0
  5
D87
 10
-0.439671
 20
65.8876
 30
0.000000
  70
    32
  0
VERTEX
  8
0
  5
D88
 10
-0.351777
 20
65.8816
 30
0.000000
  70
    32
  0
VERTEX
  8
0
  5
D89
 10
-0.263857
 20
65.8769
 30
0.000000
  70
    32
  0
VERTEX
  8
0
  5
D8A
 10
-0.175916
 20
65.8735
 30
0.000000
  70
    32
  0
VERTEX
  8
0
  5
D8B
 10
-0.0879613
 20
65.8715
 30
0.000000
  70
    32
  0
VERTEX
  8
0
  5
D8C
 10
1.40884e-013
 20
65.8708
 30
0.000000
  70
    32
  0
VERTEX
  8
0
  5
D8D
 10
0.0879613
 20
65.8715
 30
0.000000
  70
    32
  0
VERTEX
  8
0
  5
D8E
 10
0.175916
 20
65.8735
 30
0.000000
  70
    32
  0
VERTEX
  8
0
  5
D8F
 10
0.263857
 20
65.8769
 30
0.000000
  70
    32
  0
VERTEX
  8
0
  5
D90
 10
0.351777
 20
65.8816
 30
0.000000
  70
    32
  0
VERTEX
  8
0
  5
D91
 10
0.439671
 20
65.8876
 30
0.000000
  70
    32
  0
VERTEX
  8
0
  5
D92
 10
0.527530
 20
65.8950
 30
0.000000
  70
    32
  0
VERTEX
  8
0
  5
D93
 10
0.615348
 20
65.9037
 30
0.000000
  70
    32
  0
VERTEX
  8
0
  5
D94
 10
0.703119
 20
65.9137
 30
0.000000
  70
    32
  0
VERTEX
  8
0
  5
D95
 10
0.790836
 20
65.9251
 30
0.000000
  70
    32
  0
VERTEX
  8
0
  5
D96
 10
0.878491
 20
65.9378
 30
0.000000
  70
    32
  0
VERTEX
  8
0
  5
D97
 10
0.966078
 20
65.9519
 30
0.000000
  70
    32
  0
VERTEX
  8
0
  5
D98
 10
1.05359
 20
65.9672
 30
0.000000
  70
    32
  0
VERTEX
  8
0
  5
D99
 10
1.14102
 20
65.9840
 30
0.000000
  70
    32
  0
VERTEX
  8
0
  5
D9A
 10
1.22836
 20
66.0020
 30
0.000000
  70
    32
  0
VERTEX
  8
0
  5
D9B
 10
1.31561
 20
66.0214
 30
0.000000
  70
    32
  0
VERTEX
  8
0
  5
D9C
 10
1.40276
 20
66.0421
 30
0.000000
  70
    32
  0
VERTEX
  8
0
  5
D9D
 10
1.48980
 20
66.0641
 30
0.000000
  70
    32
  0
VERTEX
  8
0
  5
D9E
 10
1.57672
 20
66.0875
 30
0.000000
  70
    32
  0
VERTEX
  8
0
  5
D9F
 10
1.66352
 20
66.1122
 30
0.000000
  70
    32
  0
VERTEX
  8
0
  5
DA0
 10
1.75019
 20
66.1382
 30
0.000000
  70
    32
  0
VERTEX
  8
0
  5
DA1
 10
1.83672
 20
66.1655
 30
0.000000
  70
    32
  0
VERTEX
  8
0
  5
DA2
 10
1.92312
 20
66.1941
 30
0.000000
  70
    32
  0
VERTEX
  8
0
  5
DA3
 10
2.00936
 20
66.2241
 30
0.000000
  70
    32
  0
VERTEX
  8
0
  5
DA4
 10
2.09545
 20
66.2554
 30
0.000000
  70
    32
  0
VERTEX
  8
0
  5
DA5
 10
2.18138
 20
66.2879
 30
0.000000
  70
    32
  0
VERTEX
  8
0
  5
DA6
 10
2.26714
 20
66.3218
 30
0.000000
  70
    32
  0
VERTEX
  8
0
  5
DA7
 10
2.35272
 20
66.3570
 30
0.000000
  70
    32
  0
VERTEX
  8
0
  5
DA8
 10
2.43812
 20
66.3935
 30
0.000000
  70
    32
  0
VERTEX
  8
0
  5
DA9
 10
2.52334
 20
66.4313
 30
0.000000
  70
    32
  0
VERTEX
  8
0
  5
DAA
 10
2.60835
 20
66.4704
 30
0.000000
  70
    32
  0
VERTEX
  8
0
  5
DAB
 10
2.69317
 20
66.5108
 30
0.000000
  70
    32
  0
VERTEX
  8
0
  5
DAC
 10
2.77778
 20
66.5525
 30
0.000000
  70
    32
  0
VERTEX
  8
0
  5
DAD
 10
2.86217
 20
66.5954
 30
0.000000
  70
    32
  0
VERTEX
  8
0
  5
DAE
 10
2.94634
 20
66.6397
 30
0.000000
  70
    32
  0
VERTEX
  8
0
  5
DAF
 10
3.03028
 20
66.6852
 30
0.000000
  70
    32
  0
VERTEX
  8
0
  5
DB0
 10
3.11399
 20
66.7320
 30
0.000000
  70
    32
  0
VERTEX
  8
0
  5
DB1
 10
3.19746
 20
66.7801
 30
0.000000
  70
    32
  0
VERTEX
  8
0
  5
DB2
 10
3.28068
 20
66.8295
 30
0.000000
  70
    32
  0
VERTEX
  8
0
  5
DB3
 10
3.36364
 20
66.8801
 30
0.000000
  70
    32
  0
VERTEX
  8
0
  5
DB4
 10
3.44635
 20
66.9319
 30
0.000000
  70
    32
  0
VERTEX
  8
0
  5
DB5
 10
3.52879
 20
66.9851
 30
0.000000
  70
    32
  0
VERTEX
  8
0
  5
DB6
 10
3.61095
 20
67.0395
 30
0.000000
  70
    32
  0
VERTEX
  8
0
  5
DB7
 10
3.69284
 20
67.0951
 30
0.000000
  70
    32
  0
VERTEX
  8
0
  5
DB8
 10
3.77444
 20
67.1520
 30
0.000000
  70
    32
  0
VERTEX
  8
0
  5
DB9
 10
3.85575
 20
67.2101
 30
0.000000
  70
    32
  0
VERTEX
  8
0
  5
DBA
 10
3.93676
 20
67.2695
 30
0.000000
  70
    32
  0
VERTEX
  8
0
  5
DBB
 10
4.01747
 20
67.3301
 30
0.000000
  70
    32
  0
VERTEX
  8
0
  5
DBC
 10
4.09786
 20
67.3919
 30
0.000000
  70
    32
  0
VERTEX
  8
0
  5
DBD
 10
4.17794
 20
67.4549
 30
0.000000
  70
    32
  0
VERTEX
  8
0
  5
DBE
 10
4.25770
 20
67.5192
 30
0.000000
  70
    32
  0
VERTEX
  8
0
  5
DBF
 10
4.33712
 20
67.5847
 30
0.000000
  70
    32
  0
VERTEX
  8
0
  5
DC0
 10
4.41621
 20
67.6514
 30
0.000000
  70
    32
  0
VERTEX
  8
0
  5
DC1
 10
4.49496
 20
67.7192
 30
0.000000
  70
    32
  0
VERTEX
  8
0
  5
DC2
 10
4.57336
 20
67.7883
 30
0.000000
  70
    32
  0
VERTEX
  8
0
  5
DC3
 10
4.65141
 20
67.8586
 30
0.000000
  70
    32
  0
VERTEX
  8
0
  5
DC4
 10
4.72909
 20
67.9301
 30
0.000000
  70
    32
  0
VERTEX
  8
0
  5
DC5
 10
4.80641
 20
68.0027
 30
0.000000
  70
    32
  0
VERTEX
  8
0
  5
DC6
 10
4.88336
 20
68.0765
 30
0.000000
  70
    32
  0
VERTEX
  8
0
  5
DC7
 10
4.95993
 20
68.1515
 30
0.000000
  70
    32
  0
VERTEX
  8
0
  5
DC8
 10
5.03612
 20
68.2276
 30
0.000000
  70
    32
  0
VERTEX
  8
0
  5
DC9
 10
5.11192
 20
68.3049
 30
0.000000
  70
    32
  0
VERTEX
  8
0
  5
DCA
 10
5.18732
 20
68.3834
 30
0.000000
  70
    32
  0
VERTEX
  8
0
  5
DCB
 10
5.26232
 20
68.4630
 30
0.000000
  70
    32
  0
VERTEX
  8
0
  5
DCC
 10
5.33692
 20
68.5437
 30
0.000000
  70
    32
  0
SEQEND
  8
0
  5
DCD
  0
LINE
  5
CD7
  8
0
  6
CONTINUOUS
 62
     7
 10
-7.3781772816868454
 20
71.861642852782779
 30
0.0
 11
-7.3781772816868161
 21
71.5
 31
0.0
  0
LINE
  5
CD8
  8
0
  6
CONTINUOUS
 62
     7
 10
7.3781772816869298
 20
71.500000000000227
 30
0.0
 11
7.3781772816868729
 21
71.861642852782779
 31
0.0
  0
LINE
  5
CD9
  8
CENTER
  6
CENTER
 62
     1
 10
19.00000000000011
 20
90.0
 30
0.0
 11
-19.000000000000099
 21
90.0
 31
0.0
  0
LINE
  5
CDA
  8
0
  6
DASHED
 62
     3
 10
98.800000000000026
 20
83.0
 30
0.0
 11
98.799999999999997
 21
97.0
 31
0.0
  0
LINE
  5
CDB
  8
0
  6
DASHED
 62
     3
 10
81.200000000000003
 20
97.000000000000014
 30
0.0
 11
81.199999999999989
 21
82.999999999999986
 31
0.0
  0
LINE
  5
CDC
  8
0
  6
CONTINUOUS
 62
     7
 10
80.5
 20
98.428523002282191
 30
0.0
 11
80.5
 21
81.571476997717824
 31
0.0
  0
LINE
  5
CDD
  8
0
  6
CONTINUOUS
 62
     7
 10
99.500000000000014
 20
81.571476997717824
 30
0.0
 11
99.500000000000014
 21
98.428523002282191
 31
0.0
  0
LINE
  5
CDE
  8
0
  6
CONTINUOUS
 62
     7
 10
96.750000000000057
 20
105.60248377663
 30
0.0
 11
96.75
 21
71.500000000000057
 31
0.0
  0
LINE
  5
CDF
  8
0
  6
CONTINUOUS
 62
     7
 10
83.250000000000057
 20
105.60248377663
 30
0.0
 11
83.250000000000057
 21
71.5
 31
0.0
  0
ARC
  5
CE0
  8
0
  6
CONTINUOUS
 62
     7
 10
90.0
 20
90.0
 30
0.0
 40
12.699999999999999
 50
221.57985347999031
 51
237.89340638800959
  0
LINE
  5
CE1
  8
0
  6
CONTINUOUS
 62
     7
 10
80.0
 20
65.870834875401073
 30
0.0
 11
83.250000000000057
 21
71.5
 31
0.0
  0
LINE
  5
CE2
  8
0
  6
DASHED
 62
     3
 10
81.200000000000003
 20
83.0
 30
0.0
 11
98.799999999999997
 21
83.0
 31
0.0
  0
LINE
  5
CE3
  8
0
  6
DASHED
 62
     3
 10
80.5
 20
82.299999999999997
 30
0.0
 11
81.200000000000003
 21
83.0
 31
0.0
  0
LINE
  5
CE7
  8
0
  6
DASHED
 62
     3
 10
92.000000000000014
 20
66.917942927366127
 30
0.0
 11
92.0
 21
77.458468992981764
 31
0.0
  0
LINE
  5
CE8
  8
0
  6
DASHED
 62
     3
 10
88.0
 20
66.917942927366141
 30
0.0
 11
88.0
 21
77.458468992981764
 31
0.0
  0
LINE
  5
CEB
  8
0
  6
DASHED
 62
     3
 10
88.000000000000014
 20
66.917942927366113
 30
0.0
 11
92.000000000000014
 21
66.917942927366127
 31
0.0
  0
LINE
  5
CED
  8
0
  6
CONTINUOUS
 62
     7
 10
100.0
 20
65.870834875401073
 30
0.0
 11
96.75
 21
71.500000000000057
 31
0.0
  0
ARC
  5
CEE
  8
0
  6
DASHED
 62
     3
 10
90.0
 20
90.0
 30
0.0
 40
12.699999999999999
 50
237.89340638800959
 51
302.10659361199077
  0
ARC
  5
CEF
  8
0
  6
CONTINUOUS
 62
     7
 10
90.0
 20
90.0
 30
0.0
 40
12.699999999999999
 50
302.10659361199077
 51
318.42014652000961
  0
LINE
  5
CF0
  8
0
  6
DASHED
 62
     3
 10
99.500000000000014
 20
82.299999999999997
 30
0.0
 11
98.799999999999983
 21
83.0
 31
0.0
  0
LINE
  5
CF1
  8
CENTER
  6
CENTER
 62
     1
 10
101.5
 20
90.0
 30
0.0
 11
78.5
 21
90.0
 31
0.0
  0
ARC
  5
CF2
  8
0
  6
CONTINUOUS
 62
     7
 10
90.0
 20
90.0
 30
0.0
 40
12.699999999999999
 50
122.10659361199031
 51
138.42014652000961
  0
LINE
  5
CF3
  8
0
  6
DASHED
 62
     3
 10
81.200000000000003
 20
97.0
 30
0.0
 11
98.799999999999997
 21
97.0
 31
0.0
  0
LINE
  5
CF4
  8
0
  6
DASHED
 62
     3
 10
80.5
 20
97.700000000000017
 30
0.0
 11
81.200000000000003
 21
97.0
 31
0.0
  0
ARC
  5
CF5
  8
0
  6
DASHED
 62
     3
 10
90.0
 20
90.0
 30
0.0
 40
12.699999999999999
 50
57.893406388009062
 51
122.10659361199031
  0
ARC
  5
CF6
  8
0
  6
CONTINUOUS
 62
     7
 10
90.0
 20
90.0
 30
0.0
 40
12.699999999999999
 50
41.579853479990341
 51
57.893406388009062
  0
LINE
  5
CF7
  8
0
  6
DASHED
 62
     3
 10
99.500000000000014
 20
97.700000000000017
 30
0.0
 11
98.799999999999997
 21
97.0
 31
0.0
  0
ARC
  5
CF8
  8
0
  6
CONTINUOUS
 62
     7
 10
90.000000000000057
 20
90.0
 30
0.0
 40
17.000000000000131
 50
66.605560377405851
 51
113.39443962259411
  0
TEXT
  5
CFF
  8
0
  6
CONTINUOUS
 62
     7
 10
-32.914518485587891
 20
-29.134974040090871
 30
0.0
 40
3.0
  1
PHSC14A
  0
TEXT
  5
D00
  8
0
  6
CONTINUOUS
 62
     7
 10
-32.914518485587891
 20
-24.134974040090871
 30
0.0
 40
3.0
  1
PHSC14A
  0
CIRCLE
  5
D0C
  8
0
  6
CONTINUOUS
 62
     3
 10
0.0
 20
0.0
 30
0.0
 40
7.0
  0
CIRCLE
  5
D0D
  8
0
  6
CONTINUOUS
 62
     7
 10
0.0
 20
0.0
 30
0.0
 40
6.1879999999999988
  0
CIRCLE
  5
D0E
  8
0
  6
CONTINUOUS
 62
     7
 10
0.0
 20
0.0
 30
0.0
 40
8.1879999999999988
  0
LINE
  5
D1D
  8
0
  6
DASHED
 62
     3
 10
97.0
 20
60.0
 30
0.0
 11
83.0
 21
60.0
 31
0.0
  0
LINE
  5
D1E
  8
0
  6
DASHED
 62
     3
 10
83.0
 20
34.187999999999988
 30
0.0
 11
83.0
 21
60.0
 31
0.0
  0
LINE
  5
D1F
  8
0
  6
DASHED
 62
     3
 10
83.812000000000012
 20
35.0
 30
0.0
 11
83.812000000000012
 21
64.5
 31
0.0
  0
LINE
  5
D20
  8
0
  6
DASHED
 62
     3
 10
83.0
 20
60.0
 30
0.0
 11
83.812000000000012
 21
61.40642525574583
 31
0.0
  0
LINE
  5
D21
  8
0
  6
DASHED
 62
     3
 10
96.188000000000002
 20
34.999999999999979
 30
0.0
 11
96.188000000000002
 21
64.5
 31
0.0
  0
LINE
  5
D22
  8
0
  6
DASHED
 62
     3
 10
97.0
 20
34.18799999999996
 30
0.0
 11
97.0
 21
60.0
 31
0.0
  0
LINE
  5
D23
  8
0
  6
DASHED
 62
     3
 10
97.0
 20
60.0
 30
0.0
 11
96.188000000000002
 21
61.406425255745951
 31
0.0
  0
LINE
  5
D24
  8
0
  6
DASHED
 62
     3
 10
96.188000000000002
 20
64.5
 30
0.0
 11
92.0
 21
66.917942927366127
 31
0.0
  0
LINE
  5
D25
  8
0
  6
DASHED
 62
     3
 10
96.188000000000002
 20
64.5
 30
0.0
 11
83.812000000000012
 21
64.5
 31
0.0
  0
LINE
  5
D26
  8
0
  6
DASHED
 62
     3
 10
83.812000000000012
 20
64.5
 30
0.0
 11
87.999999999999943
 21
66.917942927366127
 31
0.0
  0
ARC
  5
D38
  8
0
  6
CONTINUOUS
 62
     7
 10
-19.889540331981038
 20
62.000000000000007
 30
0.0
 40
10.00265004775633
 50
351.37537643533909
 51
8.6246235646608707
  0
LINE
  5
D39
  8
CENTER
  6
CENTER
 62
     1
 10
-7.8868902842247097
 20
61.999999999999957
 30
0.0
 11
-17.0
 21
62.0
 31
0.0
  0
LINE
  5
D3A
  8
0
  6
CONTINUOUS
 62
     7
 10
-11.5
 20
64.25
 30
0.0
 11
-11.5
 21
59.75
 31
0.0
  0
ARC
  5
D3B
  8
0
  6
CONTINUOUS
 62
     7
 10
-13.25
 20
62.000000000000007
 30
0.0
 40
1.75
 50
90.0
 51
270.0
  0
LINE
  5
D3C
  8
0
  6
CONTINUOUS
 62
     7
 10
-10.0
 20
59.750000000000007
 30
0.0
 11
-11.5
 21
59.75
 31
0.0
  0
LINE
  5
D3D
  8
0
  6
CONTINUOUS
 62
     7
 10
-11.5
 20
60.25
 30
0.0
 11
-13.25
 21
60.25
 31
0.0
  0
LINE
  5
D3E
  8
0
  6
CONTINUOUS
 62
     7
 10
-11.5
 20
63.75
 30
0.0
 11
-13.25
 21
63.75
 31
0.0
  0
LINE
  5
D3F
  8
0
  6
CONTINUOUS
 62
     7
 10
-10.0
 20
64.25
 30
0.0
 11
-11.5
 21
64.25
 31
0.0
  0
ENDSEC
  0
EOF
