  0
SECTION
  2
HEADER
  9
$ACADVER
  1
AC1009
  9
$INSBASE
 10
0.0
 20
0.0
 30
0.0
  9
$EXTMIN
 10
-3.0
 20
-8.0
 30
0.0
  9
$EXTMAX
 10
21.0
 20
39.000000000000021
 30
0.0
  9
$LIMMIN
 10
0.0
 20
0.0
  9
$LIMMAX
 10
420.0
 20
297.0
  9
$ORTHOMODE
 70
     0
  9
$REGENMODE
 70
     1
  9
$FILLMODE
 70
     1
  9
$QTEXTMODE
 70
     0
  9
$MIRRTEXT
 70
     0
  9
$DRAGMODE
 70
     2
  9
$LTSCALE
 40
0.5
  9
$OSMODE
 70
  2173
  9
$ATTMODE
 70
     1
  9
$TEXTSIZE
 40
3.0
  9
$TRACEWID
 40
1.0
  9
$TEXTSTYLE
  7
STANDARD
  9
$CLAYER
  8
MSM_CONTINUOUS
  9
$CELTYPE
  6
BYLAYER
  9
$CECOLOR
 62
   256
  9
$DIMSCALE
 40
1.0
  9
$DIMASZ
 40
2.5
  9
$DIMEXO
 40
0.625
  9
$DIMDLI
 40
3.75
  9
$DIMRND
 40
0.0
  9
$DIMDLE
 40
0.0
  9
$DIMEXE
 40
1.25
  9
$DIMTP
 40
0.0
  9
$DIMTM
 40
0.0
  9
$DIMTXT
 40
3.0
  9
$DIMCEN
 40
2.5
  9
$DIMTSZ
 40
0.0
  9
$DIMTOL
 70
     0
  9
$DIMLIM
 70
     0
  9
$DIMTIH
 70
     0
  9
$DIMTOH
 70
     0
  9
$DIMSE1
 70
     0
  9
$DIMSE2
 70
     0
  9
$DIMTAD
 70
     1
  9
$DIMZIN
 70
     8
  9
$DIMBLK
  1
OPEN30
  9
$DIMASO
 70
     1
  9
$DIMSHO
 70
     1
  9
$DIMPOST
  1

  9
$DIMAPOST
  1

  9
$DIMALT
 70
     0
  9
$DIMALTD
 70
     3
  9
$DIMALTF
 40
0.03937007874016
  9
$DIMLFAC
 40
1.0
  9
$DIMTOFL
 70
     1
  9
$DIMTVP
 40
0.0
  9
$DIMTIX
 70
     0
  9
$DIMSOXD
 70
     0
  9
$DIMSAH
 70
     0
  9
$DIMBLK1
  1

  9
$DIMBLK2
  1

  9
$DIMSTYLE
  2
MISUMI
  9
$DIMCLRD
 70
   256
  9
$DIMCLRE
 70
   256
  9
$DIMCLRT
 70
   256
  9
$DIMTFAC
 40
1.0
  9
$DIMGAP
 40
0.625
  9
$LUNITS
 70
     2
  9
$LUPREC
 70
     2
  9
$SKETCHINC
 40
1.0
  9
$FILLETRAD
 40
0.0
  9
$AUNITS
 70
     0
  9
$AUPREC
 70
     0
  9
$MENU
  1
.
  9
$ELEVATION
 40
0.0
  9
$PELEVATION
 40
0.0
  9
$THICKNESS
 40
0.0
  9
$LIMCHECK
 70
     0
  9
$BLIPMODE
 70
     0
  9
$CHAMFERA
 40
0.1
  9
$CHAMFERB
 40
0.1
  9
$SKPOLY
 70
     0
  9
$TDCREATE
 40
2455135.5720697111
  9
$TDUPDATE
 40
2456778.47839235
  9
$TDINDWG
 40
0.7198471644
  9
$TDUSRTIMER
 40
2456668.092231621
  9
$USRTIMER
 70
     1
  9
$ANGBASE
 50
0.0
  9
$ANGDIR
 70
     0
  9
$PDMODE
 70
    35
  9
$PDSIZE
 40
0.0
  9
$PLINEWID
 40
0.0
  9
$COORDS
 70
     1
  9
$SPLFRAME
 70
     0
  9
$SPLINETYPE
 70
     6
  9
$SPLINESEGS
 70
     8
  9
$ATTDIA
 70
     0
  9
$ATTREQ
 70
     1
  9
$HANDLING
 70
     1
  9
$HANDSEED
  5
E370
  9
$SURFTAB1
 70
     6
  9
$SURFTAB2
 70
     6
  9
$SURFTYPE
 70
     6
  9
$SURFU
 70
     6
  9
$SURFV
 70
     6
  9
$UCSNAME
  2

  9
$UCSORG
 10
0.0
 20
0.0
 30
0.0
  9
$UCSXDIR
 10
1.0
 20
0.0
 30
0.0
  9
$UCSYDIR
 10
0.0
 20
1.0
 30
0.0
  9
$PUCSNAME
  2

  9
$PUCSORG
 10
0.0
 20
0.0
 30
0.0
  9
$PUCSXDIR
 10
1.0
 20
0.0
 30
0.0
  9
$PUCSYDIR
 10
0.0
 20
1.0
 30
0.0
  9
$USERI1
 70
     0
  9
$USERI2
 70
     0
  9
$USERI3
 70
     0
  9
$USERI4
 70
     0
  9
$USERI5
 70
     0
  9
$USERR1
 40
0.0
  9
$USERR2
 40
0.0
  9
$USERR3
 40
0.0
  9
$USERR4
 40
0.0
  9
$USERR5
 40
0.0
  9
$WORLDVIEW
 70
     1
  9
$SHADEDGE
 70
     3
  9
$SHADEDIF
 70
    70
  9
$TILEMODE
 70
     1
  9
$MAXACTVP
 70
    64
  9
$PLIMCHECK
 70
     0
  9
$PEXTMIN
 10
0.0
 20
0.0
 30
0.0
  9
$PEXTMAX
 10
0.0
 20
0.0
 30
0.0
  9
$PLIMMIN
 10
0.0
 20
0.0
  9
$PLIMMAX
 10
12.0
 20
9.0
  9
$UNITMODE
 70
     0
  9
$VISRETAIN
 70
     1
  9
$PLINEGEN
 70
     0
  9
$PSLTSCALE
 70
     1
  0
ENDSEC
  0
SECTION
  2
TABLES
  0
TABLE
  2
VPORT
 70
     1
  0
VPORT
  2
*ACTIVE
 70
     0
 10
0.0
 20
0.0
 11
1.0
 21
1.0
 12
14.78846528190272
 22
19.804066106014631
 13
0.0
 23
0.0
 14
10.0
 24
10.0
 15
10.0
 25
10.0
 16
0.0
 26
0.0
 36
1.0
 17
0.0
 27
0.0
 37
0.0
 40
110.52935566153781
 41
1.886363636363636
 42
50.0
 43
0.0
 44
0.0
 50
0.0
 51
0.0
 71
    16
 72
  1000
 73
     1
 74
     3
 75
     0
 76
     0
 77
     0
 78
     0
  0
ENDTAB
  0
TABLE
  2
LTYPE
 70
     2
  0
LTYPE
  2
CONTINUOUS
 70
     0
  3
Solid line
 72
    65
 73
     0
 40
0.0
  0
LTYPE
  2
CENTER
 70
     0
  3
Center ____ _ ____ _ ____ _ ____ _ ____ _ ____
 72
    65
 73
     4
 40
50.799999999999997
 49
31.75
 49
-6.3499999999999988
 49
6.3499999999999988
 49
-6.3499999999999988
  0
ENDTAB
  0
TABLE
  2
LAYER
 70
     6
  0
LAYER
  2
0
 70
     0
 62
     7
  6
CONTINUOUS
  0
LAYER
  2
MSM_CENTER
 70
     0
 62
     1
  6
CENTER
  0
LAYER
  2
DEFPOINTS
 70
     0
 62
     7
  6
CONTINUOUS
  0
LAYER
  2
MSM_CONTINUOUS
 70
     0
 62
     7
  6
CONTINUOUS
  0
LAYER
  2
MSM_PART_NUMBER
 70
     0
 62
     7
  6
CONTINUOUS
  0
ENDTAB
  0
TABLE
  2
STYLE
 70
     1
  0
STYLE
  2
STANDARD
 70
     0
 40
3.0
 41
1.0
 50
0.0
 71
     0
 42
3.0
  3
txt.shx
  4
bigfont.shx
  0
ENDTAB
  0
TABLE
  2
VIEW
 70
     0
  0
ENDTAB
  0
TABLE
  2
UCS
 70
     0
  0
ENDTAB
  0
TABLE
  2
APPID
 70
    24
  0
APPID
  2
ACAD
 70
     0
  0
APPID
  2
ACAD_MLEADERVER
 70
     0
  0
APPID
  2
ACAD_EXEMPT_FROM_CAD_STANDARDS
 70
     0
  0
APPID
  2
ACDBBLOCKREPETAG
 70
     0
  0
APPID
  2
ACAD_DSTYLE_DIMJOGGED_JOGA
 70
     0
  0
APPID
  2
ACAECLAYERSTANDARD
 70
     0
  0
APPID
  2
GENIUS_GENODEF_13
 70
     0
  0
APPID
  2
GENIUS_GENOBJ-N-FIL_13
 70
     0
  0
APPID
  2
ACAD_PSEXT
 70
     0
  0
APPID
  2
ACAD_DSTYLE_DIMRADIAL_EXTENSION
 70
     0
  0
APPID
  2
ACDBDYNAMICBLOCKTRUENAME
 70
     0
  0
APPID
  2
ACDBDYNAMICBLOCKGUID
 70
     0
  0
APPID
  2
ACDBBLOCKREPBTAG
 70
     0
  0
APPID
  2
ACAUTHENVIRON
 70
     0
  0
APPID
  2
GRADIENTCOLOR1ACI
 70
     0
  0
APPID
  2
GRADIENTCOLOR2ACI
 70
     0
  0
APPID
  2
ACAD_DSTYLE_DIMJAG
 70
     0
  0
APPID
  2
ACAD_DSTYLE_DIMTALN
 70
     0
  0
APPID
  2
ACCMTRANSPARENCY
 70
     0
  0
APPID
  2
ACAD_DSTYLE_DIMBREAK
 70
     0
  0
APPID
  2
ACAD_DSTYLE_DIMFLIPARROW_W
 70
     0
  0
APPID
  2
ACAD_DSTYLE_DIM_LINETYPE
 70
     0
  0
APPID
  2
ACAD_DSTYLE_DIM_EXT1_LINETYPE
 70
     0
  0
APPID
  2
ACAD_DSTYLE_DIM_EXT2_LINETYPE
 70
     0
  0
ENDTAB
  0
TABLE
  2
DIMSTYLE
 70
     1
  0
DIMSTYLE
  2
MISUMI
 70
     0
  3

  4

  5
OPEN30
  6

  7

 40
1.0
 41
2.5
 42
0.625
 43
3.75
 44
1.25
 45
0.0
 46
0.0
 47
0.0
 48
0.0
140
3.0
141
2.5
142
0.0
143
0.03937007874016
144
1.0
145
0.0
146
1.0
147
0.625
 71
     0
 72
     0
 73
     0
 74
     0
 75
     0
 76
     0
 77
     1
 78
     8
170
     0
171
     3
172
     1
173
     0
174
     0
175
     0
176
   256
177
   256
178
   256
  0
ENDTAB
  0
ENDSEC
  0
SECTION
  2
BLOCKS
  0
BLOCK
  8
0
  2
$MODEL_SPACE
 70
     0
 10
0.0
 20
0.0
 30
0.0
  3
$MODEL_SPACE
  1

  0
ENDBLK
  5
21
  8
0
  0
BLOCK
 67
     1
  8
0
  2
$PAPER_SPACE
 70
     0
 10
0.0
 20
0.0
 30
0.0
  3
$PAPER_SPACE
  1

  0
ENDBLK
  5
E31D
 67
     1
  8
0
  0
BLOCK
  8
0
 62
     7
  2
_OPEN30
 70
     0
 10
0.0
 20
0.0
 30
0.0
  3
_OPEN30
  1

  0
LINE
  5
D7
  8
0
  6
BYBLOCK
 62
     0
 10
-1.0
 20
0.26794919
 30
0.0
 11
0.0
 21
0.0
 31
0.0
  0
LINE
  5
D8
  8
0
  6
BYBLOCK
 62
     0
 10
0.0
 20
0.0
 30
0.0
 11
-1.0
 21
-0.26794919
 31
0.0
  0
LINE
  5
D9
  8
0
  6
BYBLOCK
 62
     0
 10
0.0
 20
0.0
 30
0.0
 11
-1.0
 21
0.0
 31
0.0
  0
ENDBLK
  5
DB
  8
0
 62
     7
  0
BLOCK
  8
0
  2
*U6
 70
     1
 10
0.0
 20
0.0
 30
0.0
  3
*U6
  1

  0
TEXT
  5
E361
  8
MSM_PART_NUMBER
 10
0.0
 20
-3.0
 30
0.0
 40
3.0
  1
HBG25-11
  0
ENDBLK
  5
E363
  8
0
  0
BLOCK
  8
0
  2
*U7
 70
     1
 10
0.0
 20
0.0
 30
0.0
  3
*U7
  1

  0
TEXT
  5
E365
  8
MSM_PART_NUMBER
 10
0.0
 20
-8.0
 30
0.0
 40
3.0
  1
HBG25-11
  0
ENDBLK
  5
E367
  8
0
  0
BLOCK
  8
0
  2
*U8
 70
     1
 10
0.0
 20
0.0
 30
0.0
  3
*U8
  1

  0
TEXT
  5
E369
  8
MSM_PART_NUMBER
 10
230.78420101418749
 20
4.7390233652656937
 30
0.0
 40
3.0
  1
hbg25-11.dwg
  0
ENDBLK
  5
E36B
  8
0
  0
ENDSEC
  0
SECTION
  2
ENTITIES
  0
INSERT
  5
DCB4
  8
MSM_CONTINUOUS
  2
*U6
 10
0.0
 20
0.0
 30
0.0
  0
INSERT
  5
DCB5
  8
MSM_CONTINUOUS
  2
*U7
 10
0.0
 20
0.0
 30
0.0
  0
LINE
  5
DF3A
  8
MSM_CONTINUOUS
 10
12.99999999999997
 20
10.0
 30
0.0
 11
12.99999999999997
 21
39.0
 31
0.0
  0
LINE
  5
DF3B
  8
MSM_CONTINUOUS
 10
0.0
 20
39.0
 30
0.0
 11
0.0
 21
10.0
 31
0.0
  0
LINE
  5
DF3D
  8
MSM_CONTINUOUS
 10
9.5
 20
34.5
 30
0.0
 11
9.5
 21
14.5
 31
0.0
  0
LINE
  5
DF3E
  8
MSM_CONTINUOUS
 10
0.9999999999999715
 20
12.0
 30
0.0
 11
11.99999999999994
 21
12.0
 31
0.0
  0
LINE
  5
DF3F
  8
MSM_CONTINUOUS
 10
0.0
 20
10.0
 30
0.0
 11
0.9999999999999715
 21
10.0
 31
0.0
  0
LINE
  5
DF40
  8
MSM_CONTINUOUS
 10
0.9999999999999715
 20
10.0
 30
0.0
 11
0.9999999999999715
 21
12.0
 31
0.0
  0
LINE
  5
DF41
  8
MSM_CONTINUOUS
 10
11.99999999999994
 20
10.0
 30
0.0
 11
12.99999999999997
 21
10.0
 31
0.0
  0
LINE
  5
DF42
  8
MSM_CONTINUOUS
 10
11.99999999999994
 20
12.0
 30
0.0
 11
11.99999999999994
 21
10.0
 31
0.0
  0
LINE
  5
DF44
  8
MSM_CONTINUOUS
 10
12.99999999999994
 20
14.999999999999989
 30
0.0
 11
10.65
 21
14.999999999999989
 31
0.0
  0
LINE
  5
DF47
  8
MSM_CENTER
 10
-3.0
 20
24.5
 30
0.0
 11
15.99999999999997
 21
24.5
 31
0.0
  0
LINE
  5
DF4A
  8
MSM_CONTINUOUS
 10
3.5
 20
16.500000000000011
 30
0.0
 11
0.0
 21
16.500000000000011
 31
0.0
  0
LINE
  5
DF4B
  8
MSM_CONTINUOUS
 10
3.5
 20
32.499999999999993
 30
0.0
 11
0.0
 21
32.499999999999993
 31
0.0
  0
LINE
  5
DF4C
  8
MSM_CONTINUOUS
 10
12.99999999999994
 20
33.999999999999993
 30
0.0
 11
10.65
 21
33.999999999999993
 31
0.0
  0
LINE
  5
DF4E
  8
MSM_CONTINUOUS
 10
0.9999999999999715
 20
37.0
 30
0.0
 11
11.99999999999994
 21
37.0
 31
0.0
  0
LINE
  5
DF4F
  8
MSM_CONTINUOUS
 10
0.9999999999999715
 20
39.0
 30
0.0
 11
0.9999999999999715
 21
37.0
 31
0.0
  0
LINE
  5
DF50
  8
MSM_CONTINUOUS
 10
0.0
 20
39.0
 30
0.0
 11
0.9999999999999715
 21
39.0
 31
0.0
  0
LINE
  5
DF51
  8
MSM_CONTINUOUS
 10
11.99999999999994
 20
37.0
 30
0.0
 11
11.99999999999994
 21
39.000000000000021
 31
0.0
  0
LINE
  5
DF52
  8
MSM_CONTINUOUS
 10
11.99999999999994
 20
39.000000000000021
 30
0.0
 11
12.99999999999997
 21
39.0
 31
0.0
  0
ARC
  5
DF55
  8
MSM_CONTINUOUS
 10
9.2000000000000171
 20
33.700000000000003
 30
0.0
 40
0.3
 50
0.0
 51
90.0
  0
ARC
  5
DF71
  8
MSM_CONTINUOUS
 10
9.2000000000000171
 20
27.800000000000029
 30
0.0
 40
0.3
 50
270.0
 51
0.0
  0
ARC
  5
DF74
  8
MSM_CONTINUOUS
 10
9.2000000000000171
 20
21.20000000000001
 30
0.0
 40
0.3
 50
0.0
 51
90.0
  0
ARC
  5
DF8E
  8
MSM_CONTINUOUS
 10
9.2000000000000171
 20
15.300000000000029
 30
0.0
 40
0.3
 50
270.0
 51
0.0
  0
ARC
  5
DF93
  8
MSM_CONTINUOUS
 10
3.7999999999999821
 20
33.700000000000003
 30
0.0
 40
0.3
 50
90.0
 51
180.0
  0
ARC
  5
DFAF
  8
MSM_CONTINUOUS
 10
3.7999999999999821
 20
27.800000000000029
 30
0.0
 40
0.3
 50
180.0
 51
270.0
  0
CIRCLE
  5
DFB0
  8
MSM_CONTINUOUS
 10
6.5000000000000284
 20
30.750000000000011
 30
0.0
 40
1.399999999999999
  0
ARC
  5
DFB3
  8
MSM_CONTINUOUS
 10
3.7999999999999821
 20
21.20000000000001
 30
0.0
 40
0.3
 50
90.0
 51
180.0
  0
ARC
  5
DFCF
  8
MSM_CONTINUOUS
 10
3.7999999999999821
 20
15.300000000000029
 30
0.0
 40
0.3
 50
180.0
 51
270.0
  0
LINE
  5
DFD0
  8
MSM_CONTINUOUS
 10
3.5
 20
15.000000000000011
 30
0.0
 11
3.5
 21
34.000000000000021
 31
0.0
  0
LINE
  5
DFD5
  8
MSM_CONTINUOUS
 10
3.5
 20
15.000000000000011
 30
0.0
 11
9.5
 21
15.000000000000011
 31
0.0
  0
LINE
  5
DFD7
  8
MSM_CONTINUOUS
 10
9.2000000000000171
 20
21.500000000000011
 30
0.0
 11
3.7999999999999821
 21
21.500000000000011
 31
0.0
  0
LINE
  5
DFD9
  8
MSM_CONTINUOUS
 10
9.2000000000000171
 20
27.500000000000039
 30
0.0
 11
3.7999999999999821
 21
27.500000000000039
 31
0.0
  0
LINE
  5
DFDA
  8
MSM_CONTINUOUS
 10
8.7000000000000082
 20
29.550000000000029
 30
0.0
 11
7.2211102550928441
 21
29.550000000000029
 31
0.0
  0
LINE
  5
DFDB
  8
MSM_CONTINUOUS
 10
3.5
 20
34.000000000000021
 30
0.0
 11
9.5
 21
34.000000000000021
 31
0.0
  0
LINE
  5
DFDC
  8
MSM_CONTINUOUS
 10
8.7000000000000028
 20
31.950000000000031
 30
0.0
 11
7.221110255092797
 21
31.950000000000031
 31
0.0
  0
LINE
  5
E08B
  8
MSM_CONTINUOUS
 10
8.7000000000000028
 20
31.908578643762731
 30
0.0
 11
8.7000000000000028
 21
32.15000000000002
 31
0.0
  0
LINE
  5
E08C
  8
MSM_CONTINUOUS
 10
8.8000000000000043
 20
32.15000000000002
 30
0.0
 11
8.8000000000000043
 21
31.950000000000031
 31
0.0
  0
LINE
  5
E08D
  8
MSM_CONTINUOUS
 10
8.9000000000000057
 20
31.708578643762721
 30
0.0
 11
8.9000000000000057
 21
29.450000000000021
 31
0.0
  0
ARC
  5
E08E
  8
MSM_CONTINUOUS
 10
8.9000000000000057
 20
32.15000000000002
 30
0.0
 40
0.1000000000000014
 50
0.0
 51
180.0
  0
ARC
  5
E08F
  8
MSM_CONTINUOUS
 10
8.9000000000000057
 20
32.15000000000002
 30
0.0
 40
0.2000000000000028
 50
0.0
 51
180.0
  0
LINE
  5
E090
  8
MSM_CONTINUOUS
 10
9.0000000000000071
 20
32.15000000000002
 30
0.0
 11
9.0000000000000071
 21
31.950000000000021
 31
0.0
  0
LINE
  5
E091
  8
MSM_CONTINUOUS
 10
9.0999998152457238
 20
32.150271848633949
 30
0.0
 11
9.0999998152457238
 21
31.950000000000021
 31
0.0
  0
LINE
  5
E092
  8
MSM_CONTINUOUS
 10
8.8000000000000043
 20
31.950000000000031
 30
0.0
 11
9.0
 21
31.750000000000039
 31
0.0
  0
LINE
  5
E093
  8
MSM_CONTINUOUS
 10
8.7000000000000028
 20
31.908578643762731
 30
0.0
 11
8.9000000000000057
 21
31.708578643762721
 31
0.0
  0
LINE
  5
E094
  8
MSM_CONTINUOUS
 10
9.0
 20
31.750000000000039
 30
0.0
 11
9.0
 21
29.450000000000021
 31
0.0
  0
LINE
  5
E095
  8
MSM_CONTINUOUS
 10
8.9000000000000057
 20
29.350000000000019
 30
0.0
 11
8.7000000000000082
 21
29.350000000000019
 31
0.0
  0
ARC
  5
E096
  8
MSM_CONTINUOUS
 10
8.9000000000000057
 20
29.450000000000021
 30
0.0
 40
0.1
 50
270.0
 51
0.0000000000040711
  0
LINE
  5
E097
  8
MSM_CONTINUOUS
 10
8.7000000000000082
 20
29.450000000000021
 30
0.0
 11
8.9000000000000128
 21
29.450000000000021
 31
0.0
  0
LINE
  5
E098
  8
MSM_CONTINUOUS
 10
9.0000000000000071
 20
31.950000000000021
 30
0.0
 11
9.0999998152457238
 21
31.950000000000021
 31
0.0
  0
LINE
  5
E0B7
  8
MSM_CONTINUOUS
 10
8.7000000000000082
 20
29.250000000000021
 30
0.0
 11
8.7000000000000082
 21
29.550000000000029
 31
0.0
  0
LINE
  5
E0B8
  8
MSM_CONTINUOUS
 10
9.4000000000000004
 20
32.15000000000002
 30
0.0
 11
9.1000000000000085
 21
32.15000000000002
 31
0.0
  0
LINE
  5
E0B9
  8
MSM_CONTINUOUS
 10
9.4000000000000146
 20
29.250000000000021
 30
0.0
 11
8.7000000000000082
 21
29.250000000000021
 31
0.0
  0
LINE
  5
E0BA
  8
MSM_CONTINUOUS
 10
9.4000000000000004
 20
32.15000000000002
 30
0.0
 11
9.5
 21
32.250000000000007
 31
0.0
  0
LINE
  5
E0BB
  8
MSM_CONTINUOUS
 10
9.5000000000000142
 20
29.15000000000002
 30
0.0
 11
9.4000000000000146
 21
29.250000000000021
 31
0.0
  0
LINE
  5
E15A
  8
MSM_CONTINUOUS
 10
3.600000000000056
 20
32.15000000000002
 30
0.0
 11
3.500000000000056
 21
32.250000000000007
 31
0.0
  0
LINE
  5
E15B
  8
MSM_CONTINUOUS
 10
4.300000000000046
 20
29.550000000000029
 30
0.0
 11
5.778889744907211
 21
29.550000000000029
 31
0.0
  0
LINE
  5
E15C
  8
MSM_CONTINUOUS
 10
4.300000000000054
 20
31.950000000000031
 30
0.0
 11
5.778889744907258
 21
31.950000000000031
 31
0.0
  0
LINE
  5
E15D
  8
MSM_CONTINUOUS
 10
4.300000000000054
 20
31.908578643762731
 30
0.0
 11
4.300000000000054
 21
32.15000000000002
 31
0.0
  0
LINE
  5
E15E
  8
MSM_CONTINUOUS
 10
4.2000000000000517
 20
32.15000000000002
 30
0.0
 11
4.2000000000000517
 21
31.950000000000031
 31
0.0
  0
LINE
  5
E15F
  8
MSM_CONTINUOUS
 10
4.1000000000000512
 20
31.708578643762721
 30
0.0
 11
4.1000000000000512
 21
29.450000000000021
 31
0.0
  0
ARC
  5
E160
  8
MSM_CONTINUOUS
 10
4.1000000000000512
 20
32.15000000000002
 30
0.0
 40
0.1000000000000014
 50
0.000000000000007
 51
180.0
  0
ARC
  5
E161
  8
MSM_CONTINUOUS
 10
4.1000000000000512
 20
32.15000000000002
 30
0.0
 40
0.2000000000000028
 50
0.000000000000007
 51
180.0
  0
LINE
  5
E162
  8
MSM_CONTINUOUS
 10
4.0000000000000488
 20
32.15000000000002
 30
0.0
 11
4.0000000000000488
 21
31.950000000000021
 31
0.0
  0
LINE
  5
E163
  8
MSM_CONTINUOUS
 10
3.9000001847543331
 20
32.150271848633949
 30
0.0
 11
3.9000001847543331
 21
31.950000000000021
 31
0.0
  0
LINE
  5
E164
  8
MSM_CONTINUOUS
 10
4.2000000000000517
 20
31.950000000000031
 30
0.0
 11
4.000000000000056
 21
31.750000000000039
 31
0.0
  0
LINE
  5
E165
  8
MSM_CONTINUOUS
 10
4.300000000000054
 20
31.908578643762731
 30
0.0
 11
4.1000000000000512
 21
31.708578643762721
 31
0.0
  0
LINE
  5
E166
  8
MSM_CONTINUOUS
 10
4.000000000000056
 20
31.750000000000039
 30
0.0
 11
4.000000000000056
 21
29.450000000000021
 31
0.0
  0
LINE
  5
E167
  8
MSM_CONTINUOUS
 10
4.1000000000000512
 20
29.350000000000019
 30
0.0
 11
4.300000000000046
 21
29.350000000000019
 31
0.0
  0
ARC
  5
E168
  8
MSM_CONTINUOUS
 10
4.1000000000000512
 20
29.450000000000021
 30
0.0
 40
0.1
 50
179.99999999999591
 51
270.0
  0
LINE
  5
E169
  8
MSM_CONTINUOUS
 10
4.300000000000046
 20
29.450000000000021
 30
0.0
 11
4.1000000000000441
 21
29.450000000000021
 31
0.0
  0
LINE
  5
E16A
  8
MSM_CONTINUOUS
 10
4.0000000000000488
 20
31.950000000000021
 30
0.0
 11
3.9000001847543331
 21
31.950000000000021
 31
0.0
  0
LINE
  5
E16B
  8
MSM_CONTINUOUS
 10
4.300000000000046
 20
29.250000000000021
 30
0.0
 11
4.300000000000046
 21
29.550000000000029
 31
0.0
  0
LINE
  5
E16C
  8
MSM_CONTINUOUS
 10
3.600000000000056
 20
32.15000000000002
 30
0.0
 11
3.9000000000000479
 21
32.15000000000002
 31
0.0
  0
LINE
  5
E16D
  8
MSM_CONTINUOUS
 10
3.6000000000000418
 20
29.250000000000021
 30
0.0
 11
4.300000000000046
 21
29.250000000000021
 31
0.0
  0
LINE
  5
E16E
  8
MSM_CONTINUOUS
 10
3.5000000000000422
 20
29.15000000000002
 30
0.0
 11
3.6000000000000418
 21
29.250000000000021
 31
0.0
  0
LINE
  5
E171
  8
MSM_CONTINUOUS
 10
9.4000000000000004
 20
16.84999999999998
 30
0.0
 11
9.5
 21
16.749999999999979
 31
0.0
  0
CIRCLE
  5
E172
  8
MSM_CONTINUOUS
 10
6.5000000000000284
 20
18.249999999999979
 30
0.0
 40
1.399999999999999
  0
LINE
  5
E173
  8
MSM_CONTINUOUS
 10
8.7000000000000082
 20
19.449999999999971
 30
0.0
 11
7.2211102550928441
 21
19.449999999999971
 31
0.0
  0
LINE
  5
E174
  8
MSM_CONTINUOUS
 10
8.7000000000000028
 20
17.049999999999969
 30
0.0
 11
7.221110255092797
 21
17.049999999999969
 31
0.0
  0
LINE
  5
E175
  8
MSM_CONTINUOUS
 10
8.7000000000000028
 20
17.09142135623728
 30
0.0
 11
8.7000000000000028
 21
16.84999999999998
 31
0.0
  0
LINE
  5
E176
  8
MSM_CONTINUOUS
 10
8.8000000000000043
 20
16.84999999999998
 30
0.0
 11
8.8000000000000043
 21
17.049999999999969
 31
0.0
  0
LINE
  5
E177
  8
MSM_CONTINUOUS
 10
8.9000000000000057
 20
17.291421356237279
 30
0.0
 11
8.9000000000000057
 21
19.549999999999969
 31
0.0
  0
ARC
  5
E178
  8
MSM_CONTINUOUS
 10
8.9000000000000057
 20
16.84999999999998
 30
0.0
 40
0.1000000000000014
 50
180.0
 51
0.0
  0
ARC
  5
E179
  8
MSM_CONTINUOUS
 10
8.9000000000000057
 20
16.84999999999998
 30
0.0
 40
0.2000000000000028
 50
180.0
 51
0.0
  0
LINE
  5
E17A
  8
MSM_CONTINUOUS
 10
9.0000000000000071
 20
16.84999999999998
 30
0.0
 11
9.0000000000000071
 21
17.049999999999979
 31
0.0
  0
LINE
  5
E17B
  8
MSM_CONTINUOUS
 10
9.0999998152457238
 20
16.849728151366051
 30
0.0
 11
9.0999998152457238
 21
17.049999999999979
 31
0.0
  0
LINE
  5
E17C
  8
MSM_CONTINUOUS
 10
8.8000000000000043
 20
17.049999999999969
 30
0.0
 11
9.0
 21
17.249999999999961
 31
0.0
  0
LINE
  5
E17D
  8
MSM_CONTINUOUS
 10
8.7000000000000028
 20
17.09142135623728
 30
0.0
 11
8.9000000000000057
 21
17.291421356237279
 31
0.0
  0
LINE
  5
E17E
  8
MSM_CONTINUOUS
 10
9.0
 20
17.249999999999961
 30
0.0
 11
9.0
 21
19.549999999999979
 31
0.0
  0
LINE
  5
E17F
  8
MSM_CONTINUOUS
 10
8.9000000000000057
 20
19.649999999999981
 30
0.0
 11
8.7000000000000082
 21
19.649999999999981
 31
0.0
  0
ARC
  5
E180
  8
MSM_CONTINUOUS
 10
8.9000000000000057
 20
19.549999999999979
 30
0.0
 40
0.1
 50
359.99999999999591
 51
90.000000000000028
  0
LINE
  5
E181
  8
MSM_CONTINUOUS
 10
8.7000000000000082
 20
19.549999999999969
 30
0.0
 11
8.9000000000000128
 21
19.549999999999969
 31
0.0
  0
LINE
  5
E182
  8
MSM_CONTINUOUS
 10
9.0000000000000071
 20
17.049999999999979
 30
0.0
 11
9.0999998152457238
 21
17.049999999999979
 31
0.0
  0
LINE
  5
E183
  8
MSM_CONTINUOUS
 10
8.7000000000000082
 20
19.749999999999972
 30
0.0
 11
8.7000000000000082
 21
19.449999999999971
 31
0.0
  0
LINE
  5
E184
  8
MSM_CONTINUOUS
 10
9.4000000000000004
 20
16.84999999999998
 30
0.0
 11
9.1000000000000085
 21
16.84999999999998
 31
0.0
  0
LINE
  5
E185
  8
MSM_CONTINUOUS
 10
9.4000000000000146
 20
19.749999999999979
 30
0.0
 11
8.7000000000000082
 21
19.749999999999972
 31
0.0
  0
LINE
  5
E186
  8
MSM_CONTINUOUS
 10
9.5000000000000142
 20
19.84999999999998
 30
0.0
 11
9.4000000000000146
 21
19.749999999999979
 31
0.0
  0
LINE
  5
E187
  8
MSM_CONTINUOUS
 10
3.600000000000056
 20
16.84999999999998
 30
0.0
 11
3.500000000000056
 21
16.749999999999979
 31
0.0
  0
LINE
  5
E188
  8
MSM_CONTINUOUS
 10
4.300000000000046
 20
19.449999999999971
 30
0.0
 11
5.778889744907211
 21
19.449999999999971
 31
0.0
  0
LINE
  5
E189
  8
MSM_CONTINUOUS
 10
4.300000000000054
 20
17.049999999999969
 30
0.0
 11
5.778889744907258
 21
17.049999999999969
 31
0.0
  0
LINE
  5
E18A
  8
MSM_CONTINUOUS
 10
4.300000000000054
 20
17.09142135623728
 30
0.0
 11
4.300000000000054
 21
16.84999999999998
 31
0.0
  0
LINE
  5
E18B
  8
MSM_CONTINUOUS
 10
4.2000000000000517
 20
16.84999999999998
 30
0.0
 11
4.2000000000000517
 21
17.049999999999969
 31
0.0
  0
LINE
  5
E18C
  8
MSM_CONTINUOUS
 10
4.1000000000000512
 20
17.291421356237279
 30
0.0
 11
4.1000000000000512
 21
19.549999999999969
 31
0.0
  0
ARC
  5
E18D
  8
MSM_CONTINUOUS
 10
4.1000000000000512
 20
16.84999999999998
 30
0.0
 40
0.1000000000000014
 50
180.0
 51
0.0
  0
ARC
  5
E18E
  8
MSM_CONTINUOUS
 10
4.1000000000000512
 20
16.84999999999998
 30
0.0
 40
0.2000000000000028
 50
180.0
 51
0.0
  0
LINE
  5
E18F
  8
MSM_CONTINUOUS
 10
4.0000000000000488
 20
16.84999999999998
 30
0.0
 11
4.0000000000000488
 21
17.049999999999979
 31
0.0
  0
LINE
  5
E190
  8
MSM_CONTINUOUS
 10
3.9000001847543331
 20
16.849728151366051
 30
0.0
 11
3.9000001847543331
 21
17.049999999999979
 31
0.0
  0
LINE
  5
E191
  8
MSM_CONTINUOUS
 10
4.2000000000000517
 20
17.049999999999969
 30
0.0
 11
4.000000000000056
 21
17.249999999999961
 31
0.0
  0
LINE
  5
E192
  8
MSM_CONTINUOUS
 10
4.300000000000054
 20
17.09142135623728
 30
0.0
 11
4.1000000000000512
 21
17.291421356237279
 31
0.0
  0
LINE
  5
E193
  8
MSM_CONTINUOUS
 10
4.000000000000056
 20
17.249999999999961
 30
0.0
 11
4.000000000000056
 21
19.549999999999979
 31
0.0
  0
LINE
  5
E194
  8
MSM_CONTINUOUS
 10
4.1000000000000512
 20
19.649999999999981
 30
0.0
 11
4.300000000000046
 21
19.649999999999981
 31
0.0
  0
ARC
  5
E195
  8
MSM_CONTINUOUS
 10
4.1000000000000512
 20
19.549999999999979
 30
0.0
 40
0.1
 50
90.000000000000028
 51
180.00000000000401
  0
LINE
  5
E196
  8
MSM_CONTINUOUS
 10
4.300000000000046
 20
19.549999999999969
 30
0.0
 11
4.1000000000000441
 21
19.549999999999969
 31
0.0
  0
LINE
  5
E197
  8
MSM_CONTINUOUS
 10
4.0000000000000488
 20
17.049999999999979
 30
0.0
 11
3.9000001847543331
 21
17.049999999999979
 31
0.0
  0
LINE
  5
E198
  8
MSM_CONTINUOUS
 10
4.300000000000046
 20
19.749999999999972
 30
0.0
 11
4.300000000000046
 21
19.449999999999971
 31
0.0
  0
LINE
  5
E199
  8
MSM_CONTINUOUS
 10
3.600000000000056
 20
16.84999999999998
 30
0.0
 11
3.9000000000000479
 21
16.84999999999998
 31
0.0
  0
LINE
  5
E19A
  8
MSM_CONTINUOUS
 10
3.6000000000000418
 20
19.749999999999979
 30
0.0
 11
4.300000000000046
 21
19.749999999999972
 31
0.0
  0
LINE
  5
E19B
  8
MSM_CONTINUOUS
 10
3.5000000000000422
 20
19.84999999999998
 30
0.0
 11
3.6000000000000418
 21
19.749999999999979
 31
0.0
  0
LINE
  5
E1B4
  8
MSM_CONTINUOUS
 10
10.65
 20
34.5
 30
0.0
 11
10.65
 21
14.5
 31
0.0
  0
LINE
  5
E1B7
  8
MSM_CONTINUOUS
 10
9.5
 20
34.5
 30
0.0
 11
10.65
 21
34.5
 31
0.0
  0
LINE
  5
E1B8
  8
MSM_CONTINUOUS
 10
9.5
 20
14.5
 30
0.0
 11
10.65
 21
14.5
 31
0.0
  0
LINE
  5
E1B9
  8
MSM_CONTINUOUS
 10
10.5
 20
34.5
 30
0.0
 11
10.5
 21
14.5
 31
0.0
  0
LINE
  5
E1BA
  8
MSM_CONTINUOUS
 10
9.5
 20
32.0
 30
0.0
 11
10.5
 21
32.0
 31
0.0
  0
LINE
  5
E1BB
  8
MSM_CONTINUOUS
 10
9.5
 20
18.5
 30
0.0
 11
10.5
 21
18.5
 31
0.0
  0
ENDSEC
  0
EOF
