  0
SECTION
  2
HEADER
  9
$ACADVER
  1
AC1009
  9
$INSBASE
 10
0.0
 20
0.0
 30
0.0
  9
$EXTMIN
 10
-11.680379200439351
 20
-8.0093071512054621
 30
-0.0015258207003583
  9
$EXTMAX
 10
282.74595338087022
 20
192.87760984184871
 30
0.0000000349246037
  9
$LIMMIN
 10
0.0
 20
0.0
  9
$LIMMAX
 10
420.0
 20
297.0
  9
$ORTHOMODE
 70
     0
  9
$REGENMODE
 70
     1
  9
$FILLMODE
 70
     1
  9
$QTEXTMODE
 70
     0
  9
$MIRRTEXT
 70
     0
  9
$DRAGMODE
 70
     2
  9
$LTSCALE
 40
0.5
  9
$OSMODE
 70
  3071
  9
$ATTMODE
 70
     1
  9
$TEXTSIZE
 40
3.0
  9
$TRACEWID
 40
1.0
  9
$TEXTSTYLE
  7
STANDARD
  9
$CLAYER
  8
MSM_CONTINUOUS
  9
$CELTYPE
  6
BYLAYER
  9
$CECOLOR
 62
   256
  9
$DIMSCALE
 40
1.0
  9
$DIMASZ
 40
2.5
  9
$DIMEXO
 40
0.625
  9
$DIMDLI
 40
3.75
  9
$DIMRND
 40
0.0
  9
$DIMDLE
 40
0.0
  9
$DIMEXE
 40
1.25
  9
$DIMTP
 40
0.0
  9
$DIMTM
 40
0.0
  9
$DIMTXT
 40
3.0
  9
$DIMCEN
 40
2.5
  9
$DIMTSZ
 40
0.0
  9
$DIMTOL
 70
     0
  9
$DIMLIM
 70
     0
  9
$DIMTIH
 70
     0
  9
$DIMTOH
 70
     0
  9
$DIMSE1
 70
     0
  9
$DIMSE2
 70
     0
  9
$DIMTAD
 70
     1
  9
$DIMZIN
 70
     8
  9
$DIMBLK
  1
OPEN30
  9
$DIMASO
 70
     1
  9
$DIMSHO
 70
     1
  9
$DIMPOST
  1

  9
$DIMAPOST
  1

  9
$DIMALT
 70
     0
  9
$DIMALTD
 70
     3
  9
$DIMALTF
 40
0.03937007874016
  9
$DIMLFAC
 40
1.0
  9
$DIMTOFL
 70
     1
  9
$DIMTVP
 40
0.0
  9
$DIMTIX
 70
     0
  9
$DIMSOXD
 70
     0
  9
$DIMSAH
 70
     0
  9
$DIMBLK1
  1

  9
$DIMBLK2
  1

  9
$DIMSTYLE
  2
MISUMI
  9
$DIMCLRD
 70
   256
  9
$DIMCLRE
 70
   256
  9
$DIMCLRT
 70
   256
  9
$DIMTFAC
 40
1.0
  9
$DIMGAP
 40
0.625
  9
$LUNITS
 70
     2
  9
$LUPREC
 70
     2
  9
$SKETCHINC
 40
1.0
  9
$FILLETRAD
 40
0.0
  9
$AUNITS
 70
     0
  9
$AUPREC
 70
     0
  9
$MENU
  1
.
  9
$ELEVATION
 40
0.0
  9
$PELEVATION
 40
0.0
  9
$THICKNESS
 40
0.0
  9
$LIMCHECK
 70
     0
  9
$BLIPMODE
 70
     0
  9
$CHAMFERA
 40
0.5
  9
$CHAMFERB
 40
0.5
  9
$SKPOLY
 70
     0
  9
$TDCREATE
 40
2455135.5720697111
  9
$TDUPDATE
 40
2458135.6933261692
  9
$TDINDWG
 40
0.7023180903
  9
$TDUSRTIMER
 40
2458087.22155309
  9
$USRTIMER
 70
     1
  9
$ANGBASE
 50
0.0
  9
$ANGDIR
 70
     0
  9
$PDMODE
 70
    35
  9
$PDSIZE
 40
0.0
  9
$PLINEWID
 40
0.0
  9
$COORDS
 70
     0
  9
$SPLFRAME
 70
     0
  9
$SPLINETYPE
 70
     6
  9
$SPLINESEGS
 70
     8
  9
$ATTDIA
 70
     0
  9
$ATTREQ
 70
     1
  9
$HANDLING
 70
     1
  9
$HANDSEED
  5
E50D
  9
$SURFTAB1
 70
     6
  9
$SURFTAB2
 70
     6
  9
$SURFTYPE
 70
     6
  9
$SURFU
 70
     6
  9
$SURFV
 70
     6
  9
$UCSNAME
  2

  9
$UCSORG
 10
0.0
 20
0.0
 30
0.0
  9
$UCSXDIR
 10
1.0
 20
0.0
 30
0.0
  9
$UCSYDIR
 10
0.0
 20
1.0
 30
0.0
  9
$PUCSNAME
  2

  9
$PUCSORG
 10
0.0
 20
0.0
 30
0.0
  9
$PUCSXDIR
 10
1.0
 20
0.0
 30
0.0
  9
$PUCSYDIR
 10
0.0
 20
1.0
 30
0.0
  9
$USERI1
 70
     0
  9
$USERI2
 70
     0
  9
$USERI3
 70
     0
  9
$USERI4
 70
     0
  9
$USERI5
 70
     0
  9
$USERR1
 40
0.0
  9
$USERR2
 40
0.0
  9
$USERR3
 40
0.0
  9
$USERR4
 40
0.0
  9
$USERR5
 40
0.0
  9
$WORLDVIEW
 70
     1
  9
$SHADEDGE
 70
     3
  9
$SHADEDIF
 70
    70
  9
$TILEMODE
 70
     1
  9
$MAXACTVP
 70
    64
  9
$PLIMCHECK
 70
     0
  9
$PEXTMIN
 10
0.0
 20
0.0
 30
0.0
  9
$PEXTMAX
 10
0.0
 20
0.0
 30
0.0
  9
$PLIMMIN
 10
0.0
 20
0.0
  9
$PLIMMAX
 10
12.0
 20
9.0
  9
$UNITMODE
 70
     0
  9
$VISRETAIN
 70
     1
  9
$PLINEGEN
 70
     0
  9
$PSLTSCALE
 70
     1
  0
ENDSEC
  0
SECTION
  2
TABLES
  0
TABLE
  2
VPORT
 70
     1
  0
VPORT
  2
*ACTIVE
 70
     0
 10
0.0
 20
0.0
 11
1.0
 21
1.0
 12
135.53278709021541
 22
92.434151345321624
 13
0.0
 23
0.0
 14
10.0
 24
10.0
 15
10.0
 25
10.0
 16
0.0
 26
0.0
 36
1.0
 17
0.0
 27
0.0
 37
0.0
 40
202.50046652713499
 41
2.0898123324396778
 42
50.0
 43
0.0
 44
0.0
 50
0.0
 51
0.0
 71
    16
 72
  1000
 73
     1
 74
     3
 75
     0
 76
     0
 77
     0
 78
     0
  0
ENDTAB
  0
TABLE
  2
LTYPE
 70
     3
  0
LTYPE
  2
CONTINUOUS
 70
     0
  3
Solid line
 72
    65
 73
     0
 40
0.0
  0
LTYPE
  2
CENTER
 70
     0
  3
Center ____ _ ____ _ ____ _ ____ _ ____ _ ____
 72
    65
 73
     4
 40
50.799999999999997
 49
31.75
 49
-6.3499999999999988
 49
6.3499999999999988
 49
-6.3499999999999988
  0
LTYPE
  2
DASHED
 70
     0
  3
Dashed __ __ __ __ __ __ __ __ __ __ __ __ __ _
 72
    65
 73
     2
 40
19.050000000000001
 49
12.699999999999999
 49
-6.3499999999999988
  0
ENDTAB
  0
TABLE
  2
LAYER
 70
     6
  0
LAYER
  2
0
 70
     0
 62
     7
  6
CONTINUOUS
  0
LAYER
  2
MSM_CENTER
 70
     0
 62
     1
  6
CENTER
  0
LAYER
  2
MSM_CONTINUOUS
 70
     0
 62
     7
  6
CONTINUOUS
  0
LAYER
  2
MSM_DASHED
 70
     0
 62
     4
  6
DASHED
  0
LAYER
  2
MSM_NARROW
 70
     0
 62
     5
  6
CONTINUOUS
  0
LAYER
  2
MSM_PART_NUMBER
 70
     0
 62
     7
  6
CONTINUOUS
  0
ENDTAB
  0
TABLE
  2
STYLE
 70
     1
  0
STYLE
  2
STANDARD
 70
     0
 40
3.0
 41
1.0
 50
0.0
 71
     0
 42
3.0
  3
txt.shx
  4
bigfont.shx
  0
ENDTAB
  0
TABLE
  2
VIEW
 70
     0
  0
ENDTAB
  0
TABLE
  2
UCS
 70
     0
  0
ENDTAB
  0
TABLE
  2
APPID
 70
    25
  0
APPID
  2
ACAD
 70
     0
  0
APPID
  2
ACAD_MLEADERVER
 70
     0
  0
APPID
  2
ACAD_EXEMPT_FROM_CAD_STANDARDS
 70
     0
  0
APPID
  2
ACDBBLOCKREPETAG
 70
     0
  0
APPID
  2
ACAD_DSTYLE_DIMJOGGED_JOGA
 70
     0
  0
APPID
  2
ACAECLAYERSTANDARD
 70
     0
  0
APPID
  2
GENIUS_GENODEF_13
 70
     0
  0
APPID
  2
GENIUS_GENOBJ-N-FIL_13
 70
     0
  0
APPID
  2
ACAD_PSEXT
 70
     0
  0
APPID
  2
ACAD_DSTYLE_DIMRADIAL_EXTENSION
 70
     0
  0
APPID
  2
ACDBDYNAMICBLOCKTRUENAME
 70
     0
  0
APPID
  2
ACDBDYNAMICBLOCKGUID
 70
     0
  0
APPID
  2
ACDBBLOCKREPBTAG
 70
     0
  0
APPID
  2
ACAUTHENVIRON
 70
     0
  0
APPID
  2
GRADIENTCOLOR1ACI
 70
     0
  0
APPID
  2
GRADIENTCOLOR2ACI
 70
     0
  0
APPID
  2
ACAD_DSTYLE_DIMJAG
 70
     0
  0
APPID
  2
ACAD_DSTYLE_DIMTALN
 70
     0
  0
APPID
  2
ACCMTRANSPARENCY
 70
     0
  0
APPID
  2
ACAD_DSTYLE_DIMBREAK
 70
     0
  0
APPID
  2
ACAD_DSTYLE_DIMFLIPARROW_W
 70
     0
  0
APPID
  2
ACAD_DSTYLE_DIM_LINETYPE
 70
     0
  0
APPID
  2
ACAD_DSTYLE_DIM_EXT1_LINETYPE
 70
     0
  0
APPID
  2
ACAD_DSTYLE_DIM_EXT2_LINETYPE
 70
     0
  0
APPID
  2
ACAD_NAV_VCDISPLAY
 70
     0
  0
ENDTAB
  0
TABLE
  2
DIMSTYLE
 70
     1
  0
DIMSTYLE
  2
MISUMI
 70
     0
  3

  4

  5
OPEN30
  6

  7

 40
1.0
 41
2.5
 42
0.625
 43
3.75
 44
1.25
 45
0.0
 46
0.0
 47
0.0
 48
0.0
140
3.0
141
2.5
142
0.0
143
0.03937007874016
144
1.0
145
0.0
146
1.0
147
0.625
 71
     0
 72
     0
 73
     0
 74
     0
 75
     0
 76
     0
 77
     1
 78
     8
170
     0
171
     3
172
     1
173
     0
174
     0
175
     0
176
   256
177
   256
178
   256
  0
ENDTAB
  0
ENDSEC
  0
SECTION
  2
BLOCKS
  0
BLOCK
  8
0
  2
$MODEL_SPACE
 70
     0
 10
0.0
 20
0.0
 30
0.0
  3
$MODEL_SPACE
  1

  0
ENDBLK
  5
21
  8
0
  0
BLOCK
 67
     1
  8
0
  2
$PAPER_SPACE
 70
     0
 10
0.0
 20
0.0
 30
0.0
  3
$PAPER_SPACE
  1

  0
ENDBLK
  5
E4BD
 67
     1
  8
0
  0
BLOCK
  8
0
 62
     7
  2
_OPEN30
 70
     0
 10
0.0
 20
0.0
 30
0.0
  3
_OPEN30
  1

  0
LINE
  5
D7
  8
0
  6
BYBLOCK
 62
     0
 10
-1.0
 20
0.26794919
 30
0.0
 11
0.0
 21
0.0
 31
0.0
  0
LINE
  5
D8
  8
0
  6
BYBLOCK
 62
     0
 10
0.0
 20
0.0
 30
0.0
 11
-1.0
 21
-0.26794919
 31
0.0
  0
LINE
  5
D9
  8
0
  6
BYBLOCK
 62
     0
 10
0.0
 20
0.0
 30
0.0
 11
-1.0
 21
0.0
 31
0.0
  0
ENDBLK
  5
DB
  8
0
 62
     7
  0
BLOCK
  8
0
  2
*U2
 70
     1
 10
0.0
 20
0.0
 30
0.0
  3
*U2
  1

  0
TEXT
  5
E500
  8
MSM_PART_NUMBER
 10
0.0
 20
-3.0
 30
0.0
 40
3.0
  1
HTTA50T10400-E-20
  0
ENDBLK
  5
E502
  8
0
  0
BLOCK
  8
0
  2
*U3
 70
     1
 10
0.0
 20
0.0
 30
0.0
  3
*U3
  1

  0
TEXT
  5
E504
  8
MSM_PART_NUMBER
 10
0.0
 20
-8.0
 30
0.0
 40
3.0
  1
HTTA50T10400
  0
ENDBLK
  5
E506
  8
0
  0
ENDSEC
  0
SECTION
  2
ENTITIES
  0
INSERT
  5
DCB4
  8
MSM_CONTINUOUS
  2
*U2
 10
0.0
 20
0.0
 30
0.0
  0
INSERT
  5
DCB5
  8
MSM_CONTINUOUS
  2
*U3
 10
0.0
 20
0.0
 30
0.0
  0
LINE
  5
E390
  8
MSM_CENTER
 10
-11.667206767770891
 20
95.000006385626762
 30
0.0
 11
181.66720676777069
 21
94.999993349204928
 31
0.0
  0
LINE
  5
E391
  8
MSM_CENTER
 10
85.0
 20
192.8673444827142
 30
0.0
 11
85.0
 21
-2.867344747882469
 31
0.0
  0
CIRCLE
  5
E392
  8
MSM_CONTINUOUS
 10
85.0
 20
95.0
 30
0.0
 40
85.0
  0
CIRCLE
  5
E393
  8
MSM_CENTER
 10
85.0
 20
95.0
 30
0.0
 40
79.579999999999998
  0
CIRCLE
  5
E394
  8
MSM_DASHED
 10
85.0
 20
95.0
 30
0.0
 40
78.620000000000005
  0
CIRCLE
  5
E395
  8
MSM_DASHED
 10
85.0
 20
95.0
 30
0.0
 40
75.419968867416443
  0
CIRCLE
  5
E396
  8
MSM_CONTINUOUS
 10
85.0
 20
95.0
 30
0.0
 40
75.0
  0
CIRCLE
  5
E397
  8
MSM_CENTER
 10
85.0
 20
94.999999867415795
 30
0.0
 40
15.4
  0
CIRCLE
  5
E398
  8
MSM_CONTINUOUS
 10
100.40001699999981
 20
95.000022867415808
 30
0.0
 40
3.922499999999999
  0
CIRCLE
  5
E399
  8
MSM_CONTINUOUS
 10
100.40001699999981
 20
95.000022867415808
 30
0.0
 40
4.125
  0
CIRCLE
  5
E39A
  8
MSM_CONTINUOUS
 10
69.599998999999997
 20
94.999976867415896
 30
0.0
 40
3.922499999999999
  0
CIRCLE
  5
E39B
  8
MSM_CONTINUOUS
 10
69.599998999999997
 20
94.999976867415896
 30
0.0
 40
4.125
  0
CIRCLE
  5
E39C
  8
MSM_CONTINUOUS
 10
85.0
 20
94.999999867415795
 30
0.0
 40
21.0
  0
CIRCLE
  5
E39D
  8
MSM_CONTINUOUS
 10
85.0
 20
94.999999867415795
 30
0.0
 40
10.0
  0
CIRCLE
  5
E39E
  8
MSM_DASHED
 10
85.0
 20
94.999999867415795
 30
0.0
 40
19.0
  0
LINE
  5
E39F
  8
MSM_CONTINUOUS
 10
97.173278999999894
 20
83.603942867416038
 30
0.0
 11
95.688819999999907
 21
85.373038867415914
 31
0.0
  0
LINE
  5
E3A0
  8
MSM_CONTINUOUS
 10
96.383423000000036
 20
81.433814867415947
 30
0.0
 11
97.173278999999894
 21
83.603942867416038
 31
0.0
  0
CIRCLE
  5
E3A1
  8
MSM_CONTINUOUS
 10
94.898963999999765
 20
83.202918867415903
 30
0.0
 40
3.922499999999999
  0
CIRCLE
  5
E3A2
  8
MSM_CONTINUOUS
 10
94.898963999999765
 20
83.202918867415903
 30
0.0
 40
4.125
  0
LINE
  5
E3A3
  8
MSM_CONTINUOUS
 10
74.972030999999902
 20
86.585501867416028
 30
0.0
 11
72.80190300000001
 21
87.375365867416122
 31
0.0
  0
LINE
  5
E3A4
  8
MSM_CONTINUOUS
 10
71.433822999999933
 20
83.616591867415949
 30
0.0
 11
73.603951000000023
 21
82.826728867415895
 31
0.0
  0
CIRCLE
  5
E3A5
  8
MSM_CONTINUOUS
 10
73.202926999999903
 20
85.101043867416024
 30
0.0
 40
3.922499999999999
  0
CIRCLE
  5
E3A6
  8
MSM_CONTINUOUS
 10
73.202926999999903
 20
85.101043867416024
 30
0.0
 40
4.125
  0
LINE
  5
E3A7
  8
MSM_CONTINUOUS
 10
71.032798999999869
 20
85.890906867415936
 30
0.0
 11
71.433822999999933
 21
83.616591867415949
 31
0.0
  0
LINE
  5
E3A8
  8
MSM_CONTINUOUS
 10
72.80190300000001
 20
87.375365867416122
 30
0.0
 11
71.032798999999869
 21
85.890906867415936
 31
0.0
  0
LINE
  5
E3A9
  8
MSM_CONTINUOUS
 10
67.290596000000022
 20
94.999984867415989
 30
0.0
 11
68.445297000000011
 21
92.999976867415896
 31
0.0
  0
LINE
  5
E3AA
  8
MSM_CONTINUOUS
 10
68.445297000000011
 20
96.999984867416003
 30
0.0
 11
67.290596000000022
 21
94.999984867415989
 31
0.0
  0
LINE
  5
E3AB
  8
MSM_CONTINUOUS
 10
70.7546999999999
 20
92.999984867415947
 30
0.0
 11
71.909401000000003
 21
94.999984867415989
 31
0.0
  0
LINE
  5
E3AC
  8
MSM_CONTINUOUS
 10
68.445297000000011
 20
92.999976867415896
 30
0.0
 11
70.7546999999999
 21
92.999984867415947
 31
0.0
  0
LINE
  5
E3AD
  8
MSM_CONTINUOUS
 10
70.7546999999999
 20
96.999984867416003
 30
0.0
 11
68.445297000000011
 21
96.999984867416003
 31
0.0
  0
LINE
  5
E3AE
  8
MSM_CONTINUOUS
 10
71.909401000000003
 20
94.999984867415989
 30
0.0
 11
70.7546999999999
 21
96.999984867416003
 31
0.0
  0
CIRCLE
  5
E3AF
  8
MSM_NARROW
 10
78.491683999999907
 20
81.042838867415924
 30
0.0
 40
2.5
  0
CIRCLE
  5
E3B0
  8
MSM_CONTINUOUS
 10
78.491683999999907
 20
81.042838867415924
 30
0.0
 40
2.0669999999999988
  0
LINE
  5
E3B1
  8
MSM_CONTINUOUS
 10
85.000022999999885
 20
81.909385867416006
 30
0.0
 11
83.000022999999999
 21
80.754683867416006
 31
0.0
  0
LINE
  5
E3B2
  8
MSM_CONTINUOUS
 10
87.000022999999885
 20
80.754683867416006
 30
0.0
 11
85.000022999999885
 21
81.909385867416006
 31
0.0
  0
CIRCLE
  5
E3B3
  8
MSM_CONTINUOUS
 10
85.000031000000007
 20
79.599982867415903
 30
0.0
 40
3.922499999999999
  0
CIRCLE
  5
E3B4
  8
MSM_CONTINUOUS
 10
85.000031000000007
 20
79.599982867415903
 30
0.0
 40
4.125
  0
LINE
  5
E3B5
  8
MSM_CONTINUOUS
 10
83.000031000000007
 20
78.445281867416043
 30
0.0
 11
85.000031000000007
 21
77.290580867415883
 31
0.0
  0
LINE
  5
E3B6
  8
MSM_CONTINUOUS
 10
83.000022999999999
 20
80.754683867416006
 30
0.0
 11
83.000031000000007
 21
78.445281867416043
 31
0.0
  0
LINE
  5
E3B7
  8
MSM_CONTINUOUS
 10
87.000031000000007
 20
78.445281867416043
 30
0.0
 11
87.000022999999885
 21
80.754683867416006
 31
0.0
  0
LINE
  5
E3B8
  8
MSM_CONTINUOUS
 10
85.000031000000007
 20
77.290580867415883
 30
0.0
 11
87.000031000000007
 21
78.445281867416043
 31
0.0
  0
LINE
  5
E3B9
  8
MSM_CONTINUOUS
 10
75.373055000000022
 20
84.311187867415924
 30
0.0
 11
74.972030999999902
 21
86.585501867416028
 31
0.0
  0
LINE
  5
E3BA
  8
MSM_CONTINUOUS
 10
73.603951000000023
 20
82.826728867415895
 30
0.0
 11
75.373055000000022
 21
84.311187867415924
 31
0.0
  0
LINE
  5
E3BB
  8
MSM_CONTINUOUS
 10
95.688819999999907
 20
85.373038867415914
 30
0.0
 11
93.414504999999934
 21
84.972014867416021
 31
0.0
  0
LINE
  5
E3BC
  8
MSM_CONTINUOUS
 10
92.624641999999866
 20
82.801886867415917
 30
0.0
 11
94.109100999999995
 21
81.032790867415827
 31
0.0
  0
LINE
  5
E3BD
  8
MSM_CONTINUOUS
 10
93.414504999999934
 20
84.972014867416021
 30
0.0
 11
92.624641999999866
 21
82.801886867415917
 31
0.0
  0
LINE
  5
E3BE
  8
MSM_CONTINUOUS
 10
94.109100999999995
 20
81.032790867415827
 30
0.0
 11
96.383423000000036
 21
81.433814867415947
 31
0.0
  0
CIRCLE
  5
E3BF
  8
MSM_NARROW
 10
98.9571609999998
 20
88.491675867415907
 30
0.0
 40
2.5
  0
CIRCLE
  5
E3C0
  8
MSM_CONTINUOUS
 10
98.9571609999998
 20
88.491675867415907
 30
0.0
 40
2.0669999999999988
  0
LINE
  5
E3C1
  8
MSM_CONTINUOUS
 10
102.7094189999998
 20
95.000029867416004
 30
0.0
 11
101.5547179999997
 21
97.000022867415908
 31
0.0
  0
LINE
  5
E3C2
  8
MSM_CONTINUOUS
 10
101.5547179999997
 20
93.000022867415794
 30
0.0
 11
102.7094189999998
 21
95.000029867416004
 31
0.0
  0
LINE
  5
E3C3
  8
MSM_CONTINUOUS
 10
98.090621999999883
 20
95.000014867415814
 30
0.0
 11
99.245316000000017
 21
93.000014867415913
 31
0.0
  0
LINE
  5
E3C4
  8
MSM_CONTINUOUS
 10
99.245316000000017
 20
93.000014867415913
 30
0.0
 11
101.5547179999997
 21
93.000022867415794
 31
0.0
  0
LINE
  5
E3C5
  8
MSM_CONTINUOUS
 10
101.5547179999997
 20
97.000022867415908
 30
0.0
 11
99.245316000000017
 21
97.000014867415928
 31
0.0
  0
LINE
  5
E3C6
  8
MSM_CONTINUOUS
 10
99.245316000000017
 20
97.000014867415928
 30
0.0
 11
98.090621999999883
 21
95.000014867415814
 31
0.0
  0
LINE
  5
E3C7
  8
MSM_CONTINUOUS
 10
95.027984999999674
 20
103.41449686741601
 30
0.0
 11
97.198104999999885
 21
102.6246338674158
 31
0.0
  0
LINE
  5
E3C8
  8
MSM_CONTINUOUS
 10
98.566177999999894
 20
106.38341486741589
 30
0.0
 11
96.396050000000017
 21
107.17327086741579
 31
0.0
  0
CIRCLE
  5
E3C9
  8
MSM_CONTINUOUS
 10
96.797074000000009
 20
104.89895586741579
 30
0.0
 40
3.922499999999999
  0
CIRCLE
  5
E3CA
  8
MSM_CONTINUOUS
 10
96.797074000000009
 20
104.89895586741579
 30
0.0
 40
4.125
  0
CIRCLE
  5
E3CB
  8
MSM_NARROW
 10
71.0428619999999
 20
101.5083238674159
 30
0.0
 40
2.5
  0
LINE
  5
E3CC
  8
MSM_CONTINUOUS
 10
72.826751999999985
 20
106.39605686741589
 30
0.0
 11
74.311210999999901
 21
104.62695286741589
 31
0.0
  0
LINE
  5
E3CD
  8
MSM_CONTINUOUS
 10
73.616615000000024
 20
108.5661848674158
 30
0.0
 11
72.826751999999985
 21
106.39605686741589
 31
0.0
  0
CIRCLE
  5
E3CE
  8
MSM_CONTINUOUS
 10
75.101067
 20
106.7970808674159
 30
0.0
 40
3.922499999999999
  0
CIRCLE
  5
E3CF
  8
MSM_CONTINUOUS
 10
75.101067
 20
106.7970808674159
 30
0.0
 40
4.125
  0
CIRCLE
  5
E3D0
  8
MSM_CONTINUOUS
 10
71.0428619999999
 20
101.5083238674159
 30
0.0
 40
2.0669999999999988
  0
CIRCLE
  5
E3D1
  8
MSM_CONTINUOUS
 10
85.000007999999895
 20
110.4000008674159
 30
0.0
 40
3.922499999999999
  0
CIRCLE
  5
E3D2
  8
MSM_CONTINUOUS
 10
85.000007999999895
 20
110.4000008674159
 30
0.0
 40
4.125
  0
LINE
  5
E3D3
  8
MSM_CONTINUOUS
 10
83.000007999999966
 20
109.24529986741589
 30
0.0
 11
85.000007999999895
 21
108.09059886741591
 31
0.0
  0
LINE
  5
E3D4
  8
MSM_CONTINUOUS
 10
85.000007999999895
 20
112.7094038674159
 30
0.0
 11
83.000007999999966
 21
111.5547028674159
 31
0.0
  0
LINE
  5
E3D5
  8
MSM_CONTINUOUS
 10
76.585525999999902
 20
105.0279768674159
 30
0.0
 11
77.375388999999885
 21
107.19810486741591
 31
0.0
  0
LINE
  5
E3D6
  8
MSM_CONTINUOUS
 10
74.311210999999901
 20
104.62695286741589
 30
0.0
 11
76.585525999999902
 21
105.0279768674159
 31
0.0
  0
LINE
  5
E3D7
  8
MSM_CONTINUOUS
 10
77.375388999999885
 20
107.19810486741591
 30
0.0
 11
75.890929999999997
 21
108.96720886741591
 31
0.0
  0
LINE
  5
E3D8
  8
MSM_CONTINUOUS
 10
75.890929999999997
 20
108.96720886741591
 30
0.0
 11
73.616615000000024
 21
108.5661848674158
 31
0.0
  0
LINE
  5
E3D9
  8
MSM_CONTINUOUS
 10
83.000007999999966
 20
111.5547028674159
 30
0.0
 11
83.000007999999966
 21
109.24529986741589
 31
0.0
  0
LINE
  5
E3DA
  8
MSM_CONTINUOUS
 10
94.626952999999773
 20
105.68881186741589
 30
0.0
 11
95.027984999999674
 21
103.41449686741601
 31
0.0
  0
CIRCLE
  5
E3DB
  8
MSM_NARROW
 10
91.508308999999997
 20
108.9571528674159
 30
0.0
 40
2.5
  0
CIRCLE
  5
E3DC
  8
MSM_CONTINUOUS
 10
91.508308999999997
 20
108.9571528674159
 30
0.0
 40
2.0669999999999988
  0
LINE
  5
E3DD
  8
MSM_CONTINUOUS
 10
87.000007999999966
 20
109.24529986741589
 30
0.0
 11
87.000007999999966
 21
111.5547028674159
 31
0.0
  0
LINE
  5
E3DE
  8
MSM_CONTINUOUS
 10
85.000007999999895
 20
108.09059886741591
 30
0.0
 11
87.000007999999966
 21
109.24529986741589
 31
0.0
  0
LINE
  5
E3DF
  8
MSM_CONTINUOUS
 10
86.500007999999994
 20
111.8433781174156
 30
0.0
 11
86.500007999999994
 21
111.8434781174156
 31
0.0
  0
LINE
  5
E3E0
  8
MSM_CONTINUOUS
 10
86.000008000000008
 20
112.13205336741559
 30
0.0
 11
86.000107999999898
 21
112.13205336741559
 31
0.0
  0
LINE
  5
E3E1
  8
MSM_CONTINUOUS
 10
87.000007999999966
 20
111.5547028674159
 30
0.0
 11
85.000007999999895
 21
112.7094038674159
 31
0.0
  0
LINE
  5
E3E2
  8
MSM_CONTINUOUS
 10
96.396050000000017
 20
107.17327086741579
 30
0.0
 11
94.626952999999773
 21
105.68881186741589
 31
0.0
  0
LINE
  5
E3E3
  8
MSM_CONTINUOUS
 10
98.967200999999946
 20
104.1090928674159
 30
0.0
 11
98.566177999999894
 21
106.38341486741589
 31
0.0
  0
LINE
  5
E3E4
  8
MSM_CONTINUOUS
 10
97.198104999999885
 20
102.6246338674158
 30
0.0
 11
98.967200999999946
 21
104.1090928674159
 31
0.0
  0
LINE
  5
E3E5
  8
MSM_DASHED
 10
234.7960837547715
 20
82.599974867415938
 30
0.0
 11
234.79611475477131
 21
107.3999788674159
 31
0.0
  0
LINE
  5
E3E6
  8
MSM_DASHED
 10
253.0960717547712
 20
76.499953867415911
 30
0.0
 11
253.0961177547712
 21
113.4999538674157
 31
0.0
  0
LINE
  5
E3E7
  8
MSM_DASHED
 10
237.7960837547711
 20
76.49996886741593
 30
0.0
 11
237.7961147547712
 21
113.4999688674159
 31
0.0
  0
LINE
  5
E3E8
  8
MSM_DASHED
 10
233.7960687547712
 20
76.499984867416003
 30
0.0
 11
233.79611475477139
 21
113.4999688674159
 31
0.0
  0
LINE
  5
E3E9
  8
MSM_CONTINUOUS
 10
228.9960347547713
 20
74.499976867416024
 30
0.0
 11
228.99611175477139
 21
115.4999768674159
 31
0.0
  0
LINE
  5
E3EA
  8
MSM_CENTER
 10
222.9960807547711
 20
79.599974867415938
 30
0.0
 11
254.09608675477119
 21
79.59995286741605
 31
0.0
  0
LINE
  5
E3EB
  8
MSM_DASHED
 10
238.2960837547711
 20
75.99996886741593
 30
0.0
 11
252.59608675477111
 21
75.999945867416045
 31
0.0
  0
LINE
  5
E3EC
  8
MSM_CONTINUOUS
 10
224.11299375477131
 20
83.724982867415918
 30
0.0
 11
228.99608075477141
 21
83.724967867415899
 31
0.0
  0
LINE
  5
E3ED
  8
MSM_CONTINUOUS
 10
224.11299375477131
 20
75.474982867415918
 30
0.0
 11
228.99608075477141
 21
75.474967867415884
 31
0.0
  0
LINE
  5
E3EE
  8
MSM_CONTINUOUS
 10
223.99608075477121
 20
83.522483867415914
 30
0.0
 11
223.99608075477121
 21
75.677481867415906
 31
0.0
  0
LINE
  5
E3EF
  8
MSM_CONTINUOUS
 10
224.11299375477131
 20
83.724982867415918
 30
0.0
 11
224.11299375477131
 21
75.474982867415918
 31
0.0
  0
LINE
  5
E3F0
  8
MSM_CONTINUOUS
 10
223.99608075477121
 20
75.677481867415906
 30
0.0
 11
224.11299375477131
 21
75.474982867415918
 31
0.0
  0
LINE
  5
E3F1
  8
MSM_CONTINUOUS
 10
223.99608075477121
 20
83.522483867415914
 30
0.0
 11
224.11299375477131
 21
83.724982867415918
 31
0.0
  0
LINE
  5
E3F8
  8
MSM_DASHED
 10
237.7960687547712
 20
77.09995286741605
 30
0.0
 11
233.7960837547713
 21
77.099959867416032
 31
0.0
  0
LINE
  5
E3F9
  8
MSM_CONTINUOUS
 10
229.49603475477139
 20
73.999976867416024
 30
0.0
 11
231.49605075477129
 21
73.999984867416003
 31
0.0
  0
ARC
  5
E3FA
  8
MSM_CONTINUOUS
 10
229.49603475477139
 20
74.499976867416024
 30
0.0
 40
0.5
 50
180.0
 51
270.00000100000142
  0
ARC
  5
E3FB
  8
MSM_DASHED
 10
232.40606975477121
 20
75.589980867415932
 30
0.0
 40
0.41
 50
90.0
 51
180.0
  0
ARC
  5
E3FC
  8
MSM_DASHED
 10
233.2960687547712
 20
76.499984867416003
 30
0.0
 40
0.5
 50
270.00000100000142
 51
0.0
  0
ARC
  5
E3FD
  8
MSM_CONTINUOUS
 10
231.49605075477129
 20
74.499968867415916
 30
0.0
 40
0.5
 50
270.00000100000142
 51
0.0
  0
LINE
  5
E3FE
  8
MSM_DASHED
 10
232.40606975477121
 20
75.999984867416003
 30
0.0
 11
233.2960687547712
 21
75.999976867416024
 31
0.0
  0
ARC
  5
E3FF
  8
MSM_DASHED
 10
238.2960837547711
 20
76.49996886741593
 30
0.0
 40
0.5
 50
180.0
 51
270.00000100000142
  0
LINE
  5
E402
  8
MSM_DASHED
 10
237.7960837547711
 20
82.099944867416013
 30
0.0
 11
233.7960837547713
 21
82.099967867416026
 31
0.0
  0
ARC
  5
E403
  8
MSM_DASHED
 10
234.39608975477151
 20
81.999976867416024
 30
0.0
 40
0.6
 50
90.0
 51
179.9992670000004
  0
LINE
  5
E404
  8
MSM_DASHED
 10
234.7960837547715
 20
82.599974867415938
 30
0.0
 11
237.7960837547711
 21
82.933295867416007
 31
0.0
  0
LINE
  5
E405
  8
MSM_DASHED
 10
234.39608975477151
 20
82.599974867415938
 30
0.0
 11
234.7960837547715
 21
82.599974867415938
 31
0.0
  0
ARC
  5
E407
  8
MSM_DASHED
 10
252.5960717547712
 20
76.499953867415911
 30
0.0
 40
0.5
 50
270.0
 51
0.0
  0
LINE
  5
E408
  8
MSM_CENTER
 10
222.99611175477139
 20
110.3999938674159
 30
0.0
 11
254.0961177547712
 21
110.3999558674157
 31
0.0
  0
LINE
  5
E409
  8
MSM_DASHED
 10
238.29611475477111
 20
113.9999688674159
 30
0.0
 11
252.5961177547712
 21
113.999961867416
 31
0.0
  0
LINE
  5
E40A
  8
MSM_CONTINUOUS
 10
224.1130247547714
 20
106.27498586741589
 30
0.0
 11
228.99611175477139
 21
106.27498586741589
 31
0.0
  0
LINE
  5
E40B
  8
MSM_CONTINUOUS
 10
224.1130247547714
 20
114.52498586741569
 30
0.0
 11
228.99611175477139
 21
114.52498586741569
 31
0.0
  0
LINE
  5
E40C
  8
MSM_CONTINUOUS
 10
223.99611175477139
 20
106.47748586741579
 30
0.0
 11
223.99611175477139
 21
114.3224868674159
 31
0.0
  0
LINE
  5
E40D
  8
MSM_CONTINUOUS
 10
224.1130247547714
 20
106.27498586741589
 30
0.0
 11
224.1130247547714
 21
114.52498586741569
 31
0.0
  0
LINE
  5
E40E
  8
MSM_CONTINUOUS
 10
223.99611175477139
 20
106.47748586741579
 30
0.0
 11
224.1130247547714
 21
106.27498586741589
 31
0.0
  0
LINE
  5
E40F
  8
MSM_CONTINUOUS
 10
223.99611175477139
 20
114.3224868674159
 30
0.0
 11
224.1130247547714
 21
114.52498586741569
 31
0.0
  0
ARC
  5
E410
  8
MSM_DASHED
 10
233.29609875477129
 20
113.4999688674159
 30
0.0
 40
0.5
 50
0.0
 51
90.0
  0
ARC
  5
E411
  8
MSM_DASHED
 10
238.29611475477111
 20
113.4999688674159
 30
0.0
 40
0.5
 50
90.0
 51
180.0
  0
LINE
  5
E413
  8
MSM_DASHED
 10
237.7961147547712
 20
107.8999938674159
 30
0.0
 11
233.79611475477139
 21
107.89998586741579
 31
0.0
  0
LINE
  5
E415
  8
MSM_DASHED
 10
237.79609875477129
 20
112.89998586741589
 30
0.0
 11
233.79611475477139
 21
112.8999938674159
 31
0.0
  0
ARC
  5
E416
  8
MSM_DASHED
 10
234.3961207547712
 20
107.9999768674158
 30
0.0
 40
0.6
 50
180.0007319999992
 51
270.00000100000028
  0
LINE
  5
E417
  8
MSM_DASHED
 10
234.79611475477131
 20
107.3999788674159
 30
0.0
 11
237.7961147547712
 21
107.06664286741579
 31
0.0
  0
LINE
  5
E418
  8
MSM_DASHED
 10
234.3961207547712
 20
107.3999788674159
 30
0.0
 11
234.79611475477131
 21
107.3999788674159
 31
0.0
  0
LINE
  5
E419
  8
MSM_CONTINUOUS
 10
229.49609575477129
 20
115.9999768674159
 30
0.0
 11
231.49611175477139
 21
115.9999688674159
 31
0.0
  0
ARC
  5
E41A
  8
MSM_CONTINUOUS
 10
229.49609575477129
 20
115.4999768674159
 30
0.0
 40
0.5
 50
90.0
 51
180.0
  0
ARC
  5
E41B
  8
MSM_DASHED
 10
232.40609975477119
 20
114.4099728674159
 30
0.0
 40
0.41
 50
180.0
 51
270.00000099999971
  0
ARC
  5
E41C
  8
MSM_CONTINUOUS
 10
231.49611175477139
 20
115.499984867416
 30
0.0
 40
0.5
 50
0.0
 51
90.0
  0
LINE
  5
E41D
  8
MSM_DASHED
 10
232.40609975477119
 20
113.9999688674159
 30
0.0
 11
233.29609875477129
 21
113.9999768674159
 31
0.0
  0
ARC
  5
E41E
  8
MSM_DASHED
 10
252.59610275477129
 20
113.4999538674157
 30
0.0
 40
0.5
 50
0.0
 51
90.0
  0
LINE
  5
E41F
  8
MSM_CENTER
 10
226.33172042190799
 20
94.999984867415989
 30
0.0
 11
282.71569312579629
 21
94.999984867415989
 31
0.0
  0
LINE
  5
E420
  8
MSM_DASHED
 10
231.99611175477139
 20
84.999984867415947
 30
0.0
 11
279.99611175477122
 21
84.999984867415947
 31
0.0
  0
LINE
  5
E421
  8
MSM_DASHED
 10
231.99611175477139
 20
104.999984867416
 30
0.0
 11
279.99611175477122
 21
104.999984867416
 31
0.0
  0
LINE
  5
E422
  8
MSM_CONTINUOUS
 10
231.99611175477139
 20
19.999968867415902
 30
0.0
 11
231.99611175477119
 21
169.9999688674159
 31
0.0
  0
LINE
  5
E423
  8
MSM_CONTINUOUS
 10
279.99611175477122
 20
19.999968867415902
 30
0.0
 11
279.99611175477139
 21
169.9999688674159
 31
0.0
  0
LINE
  5
E424
  8
MSM_CENTER
 10
234.49611175477131
 20
174.57996886741711
 30
0.0
 11
277.49611175477139
 21
174.57996886741711
 31
0.0
  0
LINE
  5
E425
  8
MSM_CONTINUOUS
 10
234.4961117547715
 20
173.61996886741639
 30
0.0
 11
277.49611175477122
 21
173.6199688674165
 31
0.0
  0
LINE
  5
E426
  8
MSM_CONTINUOUS
 10
232.49611175477139
 20
179.99996886741579
 30
0.0
 11
232.49611175477139
 21
9.9999688674159017
 31
0.0
  0
LINE
  5
E427
  8
MSM_CONTINUOUS
 10
232.49611175477139
 20
179.99996886741579
 30
0.0
 11
233.49611175477139
 21
179.99996886741579
 31
0.0
  0
LINE
  5
E428
  8
MSM_CONTINUOUS
 10
233.49611175477139
 20
179.99996886741579
 30
0.0
 11
234.49611175477139
 21
174.99996886741579
 31
0.0
  0
LINE
  5
E429
  8
MSM_CONTINUOUS
 10
234.49611175477139
 20
174.99996886741579
 30
0.0
 11
234.49611175476591
 21
14.99996886738875
 31
0.0
  0
LINE
  5
E42A
  8
MSM_DASHED
 10
232.49611175477139
 20
169.9999688674159
 30
0.0
 11
234.4961117547715
 21
169.9999688674159
 31
0.0
  0
LINE
  5
E42B
  8
MSM_CONTINUOUS
 10
231.99611175477119
 20
169.9999688674159
 30
0.0
 11
232.49611175477139
 21
169.9999688674159
 31
0.0
  0
LINE
  5
E42C
  8
MSM_CONTINUOUS
 10
279.49611175477139
 20
179.99996886741579
 30
0.0
 11
279.49611175477139
 21
9.9999688674159017
 31
0.0
  0
LINE
  5
E42D
  8
MSM_CONTINUOUS
 10
279.49611175477139
 20
179.99996886741579
 30
0.0
 11
278.49611175477139
 21
179.99996886741579
 31
0.0
  0
LINE
  5
E42E
  8
MSM_CONTINUOUS
 10
278.49611175477139
 20
179.99996886741579
 30
0.0
 11
277.49611175477139
 21
174.99996886741579
 31
0.0
  0
LINE
  5
E42F
  8
MSM_CONTINUOUS
 10
277.49611175477139
 20
174.99996886741579
 30
0.0
 11
277.49611175477139
 21
14.99996886741584
 31
0.0
  0
LINE
  5
E430
  8
MSM_DASHED
 10
279.49611175477139
 20
169.9999688674159
 30
0.0
 11
277.49611175477082
 21
169.9999688674159
 31
0.0
  0
LINE
  5
E431
  8
MSM_CONTINUOUS
 10
279.49611175477139
 20
169.9999688674159
 30
0.0
 11
279.99611175477139
 21
169.9999688674159
 31
0.0
  0
LINE
  5
E432
  8
MSM_NARROW
 10
234.4961117547715
 20
170.4199688674164
 30
0.0
 11
277.49611175477122
 21
170.41996886741629
 31
0.0
  0
LINE
  5
E433
  8
MSM_CENTER
 10
234.49611175477131
 20
15.41996886741472
 30
0.0
 11
277.49611175477139
 21
15.41996886741461
 31
0.0
  0
LINE
  5
E434
  8
MSM_CONTINUOUS
 10
234.4961117547715
 20
16.379968867415378
 30
0.0
 11
277.49611175477122
 21
16.379968867415378
 31
0.0
  0
LINE
  5
E435
  8
MSM_CONTINUOUS
 10
278.49611175477139
 20
179.99996886741579
 30
0.0
 11
278.49611175477139
 21
9.9999688674159017
 31
0.0
  0
LINE
  5
E436
  8
MSM_CONTINUOUS
 10
233.49611175477139
 20
179.99996886741579
 30
0.0
 11
233.49611175477139
 21
9.9999688674159017
 31
0.0
  0
LINE
  5
E437
  8
MSM_DASHED
 10
232.49611175477139
 20
19.999968867415902
 30
0.0
 11
234.4961117547715
 21
19.999968867415902
 31
0.0
  0
LINE
  5
E438
  8
MSM_CONTINUOUS
 10
231.99611175477119
 20
19.999968867415902
 30
0.0
 11
232.49611175477139
 21
19.999968867415902
 31
0.0
  0
LINE
  5
E439
  8
MSM_DASHED
 10
279.49611175477139
 20
19.999968867415902
 30
0.0
 11
277.49611175477082
 21
19.999968867415902
 31
0.0
  0
LINE
  5
E43A
  8
MSM_CONTINUOUS
 10
279.49611175477139
 20
19.999968867415902
 30
0.0
 11
279.99611175477139
 21
19.999968867415902
 31
0.0
  0
LINE
  5
E43B
  8
MSM_NARROW
 10
234.4961117547715
 20
19.579968867415449
 30
0.0
 11
277.49611175477122
 21
19.579968867415449
 31
0.0
  0
LINE
  5
E43C
  8
MSM_CONTINUOUS
 10
232.49611175477139
 20
9.9999688674159017
 30
0.0
 11
233.49611175477139
 21
9.9999688674159017
 31
0.0
  0
LINE
  5
E43D
  8
MSM_CONTINUOUS
 10
279.49611175477139
 20
9.9999688674159017
 30
0.0
 11
278.49611175477139
 21
9.9999688674159017
 31
0.0
  0
LINE
  5
E43E
  8
MSM_CONTINUOUS
 10
233.49611175477139
 20
9.9999688674159017
 30
0.0
 11
234.49611175477139
 21
14.9999688674159
 31
0.0
  0
LINE
  5
E43F
  8
MSM_CONTINUOUS
 10
278.49611175477139
 20
9.9999688674159017
 30
0.0
 11
277.49611175477139
 21
14.9999688674159
 31
0.0
  0
LINE
  5
E49F
  8
MSM_DASHED
 10
237.7960743406156
 20
81.666967227551254
 30
0.0
 11
233.7960743406158
 21
81.666967227551254
 31
0.0
  0
LINE
  5
E4A0
  8
MSM_DASHED
 10
237.79607087699401
 20
77.53296722755239
 30
0.0
 11
233.79607087699421
 21
77.53296722755239
 31
0.0
  0
LINE
  5
E4A1
  8
MSM_DASHED
 10
237.79611263254091
 20
112.4669806712774
 30
0.0
 11
233.79611263254111
 21
112.4669806712774
 31
0.0
  0
LINE
  5
E4A2
  8
MSM_DASHED
 10
237.79610916891929
 20
108.33298067127851
 30
0.0
 11
233.7961091689194
 21
108.33298067127851
 31
0.0
  0
ENDSEC
  0
EOF
