  0
SECTION
  2
HEADER
  9
$ACADVER
  1
AC1009
  9
$INSBASE
 10
0.0
 20
0.0
 30
0.0
  9
$EXTMIN
 10
-13.67140743923437
 20
-8.0
 30
0.0
  9
$EXTMAX
 10
136.4311423415852
 20
76.701618775833921
 30
0.0
  9
$LIMMIN
 10
0.0
 20
0.0
  9
$LIMMAX
 10
420.0
 20
297.0
  9
$ORTHOMODE
 70
     1
  9
$REGENMODE
 70
     1
  9
$FILLMODE
 70
     1
  9
$QTEXTMODE
 70
     0
  9
$MIRRTEXT
 70
     0
  9
$DRAGMODE
 70
     2
  9
$LTSCALE
 40
0.5
  9
$OSMODE
 70
  3071
  9
$ATTMODE
 70
     1
  9
$TEXTSIZE
 40
3.0
  9
$TRACEWID
 40
1.0
  9
$TEXTSTYLE
  7
STANDARD
  9
$CLAYER
  8
MSM_CONTINUOUS
  9
$CELTYPE
  6
BYLAYER
  9
$CECOLOR
 62
   256
  9
$DIMSCALE
 40
1.0
  9
$DIMASZ
 40
2.5
  9
$DIMEXO
 40
0.625
  9
$DIMDLI
 40
3.75
  9
$DIMRND
 40
0.0
  9
$DIMDLE
 40
0.0
  9
$DIMEXE
 40
1.25
  9
$DIMTP
 40
0.0
  9
$DIMTM
 40
0.0
  9
$DIMTXT
 40
3.0
  9
$DIMCEN
 40
2.5
  9
$DIMTSZ
 40
0.0
  9
$DIMTOL
 70
     0
  9
$DIMLIM
 70
     0
  9
$DIMTIH
 70
     0
  9
$DIMTOH
 70
     0
  9
$DIMSE1
 70
     0
  9
$DIMSE2
 70
     0
  9
$DIMTAD
 70
     1
  9
$DIMZIN
 70
     8
  9
$DIMBLK
  1
OPEN30
  9
$DIMASO
 70
     1
  9
$DIMSHO
 70
     1
  9
$DIMPOST
  1

  9
$DIMAPOST
  1

  9
$DIMALT
 70
     0
  9
$DIMALTD
 70
     3
  9
$DIMALTF
 40
0.03937007874016
  9
$DIMLFAC
 40
1.0
  9
$DIMTOFL
 70
     1
  9
$DIMTVP
 40
0.0
  9
$DIMTIX
 70
     0
  9
$DIMSOXD
 70
     0
  9
$DIMSAH
 70
     0
  9
$DIMBLK1
  1

  9
$DIMBLK2
  1

  9
$DIMSTYLE
  2
MISUMI
  9
$DIMCLRD
 70
   256
  9
$DIMCLRE
 70
   256
  9
$DIMCLRT
 70
   256
  9
$DIMTFAC
 40
1.0
  9
$DIMGAP
 40
0.625
  9
$LUNITS
 70
     2
  9
$LUPREC
 70
     2
  9
$SKETCHINC
 40
1.0
  9
$FILLETRAD
 40
0.0
  9
$AUNITS
 70
     0
  9
$AUPREC
 70
     0
  9
$MENU
  1
.
  9
$ELEVATION
 40
0.0
  9
$PELEVATION
 40
0.0
  9
$THICKNESS
 40
0.0
  9
$LIMCHECK
 70
     0
  9
$BLIPMODE
 70
     0
  9
$CHAMFERA
 40
0.5
  9
$CHAMFERB
 40
0.5
  9
$SKPOLY
 70
     0
  9
$TDCREATE
 40
2455135.5720697111
  9
$TDUPDATE
 40
2458438.7211394678
  9
$TDINDWG
 40
0.8948169329
  9
$TDUSRTIMER
 40
2456776.3084550351
  9
$USRTIMER
 70
     1
  9
$ANGBASE
 50
0.0
  9
$ANGDIR
 70
     0
  9
$PDMODE
 70
    35
  9
$PDSIZE
 40
0.0
  9
$PLINEWID
 40
0.0
  9
$COORDS
 70
     2
  9
$SPLFRAME
 70
     0
  9
$SPLINETYPE
 70
     6
  9
$SPLINESEGS
 70
     8
  9
$ATTDIA
 70
     0
  9
$ATTREQ
 70
     1
  9
$HANDLING
 70
     1
  9
$HANDSEED
  5
12E4E
  9
$SURFTAB1
 70
     6
  9
$SURFTAB2
 70
     6
  9
$SURFTYPE
 70
     6
  9
$SURFU
 70
     6
  9
$SURFV
 70
     6
  9
$UCSNAME
  2

  9
$UCSORG
 10
0.0
 20
0.0
 30
0.0
  9
$UCSXDIR
 10
1.0
 20
0.0
 30
0.0
  9
$UCSYDIR
 10
0.0
 20
1.0
 30
0.0
  9
$PUCSNAME
  2

  9
$PUCSORG
 10
0.0
 20
0.0
 30
0.0
  9
$PUCSXDIR
 10
1.0
 20
0.0
 30
0.0
  9
$PUCSYDIR
 10
0.0
 20
1.0
 30
0.0
  9
$USERI1
 70
     0
  9
$USERI2
 70
     0
  9
$USERI3
 70
     0
  9
$USERI4
 70
     0
  9
$USERI5
 70
     0
  9
$USERR1
 40
0.0
  9
$USERR2
 40
0.0
  9
$USERR3
 40
0.0
  9
$USERR4
 40
0.0
  9
$USERR5
 40
0.0
  9
$WORLDVIEW
 70
     1
  9
$SHADEDGE
 70
     3
  9
$SHADEDIF
 70
    70
  9
$TILEMODE
 70
     1
  9
$MAXACTVP
 70
    64
  9
$PLIMCHECK
 70
     0
  9
$PEXTMIN
 10
28.517849826812729
 20
19.82258291244505
 30
0.0
  9
$PEXTMAX
 10
256.66064844131472
 20
178.4032462120056
 30
0.0
  9
$PLIMMIN
 10
-5.873748779296875
 20
-5.8737497329711923
  9
$PLIMMAX
 10
291.05224609375
 20
204.0995779037475
  9
$UNITMODE
 70
     0
  9
$VISRETAIN
 70
     1
  9
$PLINEGEN
 70
     0
  9
$PSLTSCALE
 70
     1
  0
ENDSEC
  0
SECTION
  2
TABLES
  0
TABLE
  2
VPORT
 70
     1
  0
VPORT
  2
*ACTIVE
 70
     0
 10
0.0
 20
0.0
 11
1.0
 21
1.0
 12
61.390514068430811
 22
34.345081854325478
 13
0.0
 23
0.0
 14
10.0
 24
10.0
 15
10.0
 25
10.0
 16
0.0
 26
0.0
 36
1.0
 17
0.0
 27
0.0
 37
0.0
 40
85.368457644782964
 41
2.297979797979798
 42
50.0
 43
0.0
 44
0.0
 50
0.0
 51
0.0
 71
    16
 72
  1000
 73
     1
 74
     3
 75
     0
 76
     0
 77
     0
 78
     0
  0
ENDTAB
  0
TABLE
  2
LTYPE
 70
     4
  0
LTYPE
  2
CONTINUOUS
 70
     0
  3
Solid line
 72
    65
 73
     0
 40
0.0
  0
LTYPE
  2
CENTER
 70
     0
  3
Center ____ _ ____ _ ____ _ ____ _ ____ _ ____
 72
    65
 73
     4
 40
50.799999999999997
 49
31.75
 49
-6.3499999999999979
 49
6.3499999999999979
 49
-6.3499999999999979
  0
LTYPE
  2
DASHED
 70
     0
  3
Dashed __ __ __ __ __ __ __ __ __ __ __ __ __ _
 72
    65
 73
     2
 40
19.050000000000001
 49
12.699999999999999
 49
-6.3499999999999979
  0
LTYPE
  2
PHANTOM
 70
     0
  3
Phantom ______  __  __  ______  __  __  ______
 72
    65
 73
     6
 40
63.5
 49
31.75
 49
-6.3499999999999979
 49
6.3499999999999979
 49
-6.3499999999999979
 49
6.3499999999999979
 49
-6.3499999999999979
  0
ENDTAB
  0
TABLE
  2
LAYER
 70
     8
  0
LAYER
  2
0
 70
     0
 62
     7
  6
CONTINUOUS
  0
LAYER
  2
MSM_CONTINUOUS
 70
     0
 62
     7
  6
CONTINUOUS
  0
LAYER
  2
MSM_CENTER
 70
     0
 62
     1
  6
CENTER
  0
LAYER
  2
DEFPOINTS
 70
     0
 62
     7
  6
CONTINUOUS
  0
LAYER
  2
MSM_DASHED
 70
     0
 62
     4
  6
DASHED
  0
LAYER
  2
MSM_IMAGINARY
 70
     0
 62
     6
  6
PHANTOM
  0
LAYER
  2
MSM_NARROW
 70
     0
 62
     5
  6
CONTINUOUS
  0
LAYER
  2
MSM_PART_NUMBER
 70
     0
 62
     7
  6
CONTINUOUS
  0
ENDTAB
  0
TABLE
  2
STYLE
 70
     2
  0
STYLE
  2
STANDARD
 70
     0
 40
3.0
 41
1.0
 50
0.0
 71
     0
 42
3.0
  3
txt.shx
  4
bigfont.shx
  0
ENDTAB
  0
TABLE
  2
VIEW
 70
     0
  0
ENDTAB
  0
TABLE
  2
UCS
 70
     0
  0
ENDTAB
  0
TABLE
  2
APPID
 70
    26
  0
APPID
  2
ACAD
 70
     0
  0
APPID
  2
ACADANNOTATIVE
 70
     0
  0
APPID
  2
ACAD_MLEADERVER
 70
     0
  0
APPID
  2
ACAD_EXEMPT_FROM_CAD_STANDARDS
 70
     0
  0
APPID
  2
ACDBBLOCKREPETAG
 70
     0
  0
APPID
  2
ACAD_DSTYLE_DIMJOGGED_JOGA
 70
     0
  0
APPID
  2
ACAECLAYERSTANDARD
 70
     0
  0
APPID
  2
GENIUS_GENODEF_13
 70
     0
  0
APPID
  2
GENIUS_GENOBJ-N-FIL_13
 70
     0
  0
APPID
  2
ACAD_PSEXT
 70
     0
  0
APPID
  2
ACAD_DSTYLE_DIMRADIAL_EXTENSION
 70
     0
  0
APPID
  2
ACDBDYNAMICBLOCKTRUENAME
 70
     0
  0
APPID
  2
ACDBDYNAMICBLOCKGUID
 70
     0
  0
APPID
  2
ACDBBLOCKREPBTAG
 70
     0
  0
APPID
  2
ACAUTHENVIRON
 70
     0
  0
APPID
  2
GRADIENTCOLOR1ACI
 70
     0
  0
APPID
  2
GRADIENTCOLOR2ACI
 70
     0
  0
APPID
  2
ACAD_DSTYLE_DIMJAG
 70
     0
  0
APPID
  2
ACAD_DSTYLE_DIMTALN
 70
     0
  0
APPID
  2
ACCMTRANSPARENCY
 70
     0
  0
APPID
  2
ACAD_DSTYLE_DIMBREAK
 70
     0
  0
APPID
  2
ACAD_DSTYLE_DIMFLIPARROW_W
 70
     0
  0
APPID
  2
ACAD_DSTYLE_DIM_LINETYPE
 70
     0
  0
APPID
  2
ACAD_DSTYLE_DIM_EXT1_LINETYPE
 70
     0
  0
APPID
  2
ACAD_DSTYLE_DIM_EXT2_LINETYPE
 70
     0
  0
APPID
  2
ACAD_NAV_VCDISPLAY
 70
     0
  0
ENDTAB
  0
TABLE
  2
DIMSTYLE
 70
     3
  0
DIMSTYLE
  2
STANDARD
 70
     0
  3

  4

  5

  6

  7

 40
1.0
 41
0.18
 42
0.0625
 43
0.38
 44
0.18
 45
0.0
 46
0.0
 47
0.0
 48
0.0
140
0.18
141
0.09
142
0.0
143
25.399999999999999
144
1.0
145
0.0
146
1.0
147
0.09
 71
     0
 72
     0
 73
     1
 74
     1
 75
     0
 76
     0
 77
     0
 78
     0
170
     0
171
     2
172
     0
173
     0
174
     0
175
     0
176
     0
177
     0
178
     0
  0
DIMSTYLE
  2
MISUMI
 70
     0
  3

  4

  5

  6

  7

 40
1.0
 41
2.5
 42
0.625
 43
3.75
 44
1.25
 45
0.0
 46
0.0
 47
0.0
 48
0.0
140
3.0
141
2.5
142
0.0
143
0.03937007874016
144
1.0
145
0.0
146
1.0
147
0.625
 71
     0
 72
     0
 73
     0
 74
     0
 75
     0
 76
     0
 77
     1
 78
     8
170
     0
171
     3
172
     1
173
     0
174
     0
175
     0
176
   256
177
   256
178
   256
  0
ENDTAB
  0
ENDSEC
  0
SECTION
  2
BLOCKS
  0
BLOCK
  8
0
  2
$MODEL_SPACE
 70
     0
 10
0.0
 20
0.0
 30
0.0
  3
$MODEL_SPACE
  1

  0
ENDBLK
  5
12DC4
  8
0
  0
BLOCK
 67
     1
  8
0
  2
$PAPER_SPACE
 70
     0
 10
0.0
 20
0.0
 30
0.0
  3
$PAPER_SPACE
  1

  0
ENDBLK
  5
12DC0
 67
     1
  8
0
  0
BLOCK
  8
0
 62
     7
  2
_OPEN30
 70
     0
 10
0.0
 20
0.0
 30
0.0
  3
_OPEN30
  1

  0
LINE
  5
D7
  8
0
  6
BYBLOCK
 62
     0
 10
-1.0
 20
0.26794919
 30
0.0
 11
0.0
 21
0.0
 31
0.0
  0
LINE
  5
D8
  8
0
  6
BYBLOCK
 62
     0
 10
0.0
 20
0.0
 30
0.0
 11
-1.0
 21
-0.26794919
 31
0.0
  0
LINE
  5
D9
  8
0
  6
BYBLOCK
 62
     0
 10
0.0
 20
0.0
 30
0.0
 11
-1.0
 21
0.0
 31
0.0
  0
ENDBLK
  5
DB
  8
0
 62
     7
  0
ENDSEC
  0
SECTION
  2
ENTITIES
  0
TEXT
  5
E22B
  8
MSM_PART_NUMBER
 10
0.0
 20
-8.0
 30
0.0
 40
3.0
  1
P16L075A
  0
TEXT
  5
E22C
  8
MSM_PART_NUMBER
 10
0.0
 20
-3.0
 30
0.0
 40
3.0
  1
P16L075A
  0
LINE
  5
12091
  8
MSM_CONTINUOUS
 10
106.1370075897
 20
9.999999999999984
 30
0.0
 11
106.99015923570001
 21
13.49999999999998
 31
0.0
  0
LINE
  5
12092
  8
MSM_CONTINUOUS
 10
106.99015923570001
 20
61.499999999999979
 30
0.0
 11
106.1370075897
 21
64.999999999999986
 31
0.0
  0
LINE
  5
12093
  8
MSM_CONTINUOUS
 10
104.49015923570001
 20
9.999999999999984
 30
0.0
 11
106.1370075897
 21
9.999999999999984
 31
0.0
  0
LINE
  5
12094
  8
MSM_CONTINUOUS
 10
106.1370075897
 20
64.999999999999986
 30
0.0
 11
104.49015923570001
 21
64.999999999999986
 31
0.0
  0
LINE
  5
120A3
  8
MSM_CONTINUOUS
 10
106.99015923570001
 20
13.49999999999998
 30
0.0
 11
106.99015923570001
 21
61.499999999999979
 31
0.0
  0
LINE
  5
120A5
  8
MSM_CONTINUOUS
 10
106.1370075897
 20
9.999999999999984
 30
0.0
 11
106.1370075897
 21
64.999999999999986
 31
0.0
  0
LINE
  5
120A7
  8
MSM_CONTINUOUS
 10
104.49015923570001
 20
9.999999999999984
 30
0.0
 11
104.49015923570001
 21
64.999999999999986
 31
0.0
  0
LINE
  5
120D3
  8
MSM_DASHED
 10
105.3901592357
 20
13.69219237290001
 30
0.0
 11
105.3901592357
 21
61.30780762709999
 31
0.0
  0
LINE
  5
1211D
  8
MSM_DASHED
 10
104.49015923570001
 20
9.999999999999984
 30
0.0
 11
105.3901592357
 21
13.69219237290001
 31
0.0
  0
LINE
  5
1211E
  8
MSM_DASHED
 10
105.3901592357
 20
61.30780762709999
 30
0.0
 11
104.49015923570001
 21
64.999999999999986
 31
0.0
  0
LINE
  5
1211F
  8
MSM_DASHED
 10
105.3901592357
 20
17.999999999999979
 30
0.0
 11
106.99015923570001
 21
17.999999999999979
 31
0.0
  0
LINE
  5
12120
  8
MSM_DASHED
 10
106.99015923570001
 20
56.999999999999993
 30
0.0
 11
105.3901592357
 21
56.999999999999993
 31
0.0
  0
LINE
  5
12125
  8
MSM_DASHED
 10
104.49015923570001
 20
17.999999999999979
 30
0.0
 11
106.99015923570001
 21
17.999999999999979
 31
0.0
  0
LINE
  5
12126
  8
MSM_DASHED
 10
106.99015923570001
 20
56.999999999999993
 30
0.0
 11
104.49015923570001
 21
56.999999999999993
 31
0.0
  0
LINE
  5
1212D
  8
MSM_NARROW
 10
106.99015923570001
 20
15.535000000000011
 30
0.0
 11
127.99015923569991
 21
15.535000000000011
 31
0.0
  0
LINE
  5
1212E
  8
MSM_NARROW
 10
127.99015923569991
 20
59.465000000000003
 30
0.0
 11
106.99015923570001
 21
59.464999999999989
 31
0.0
  0
CIRCLE
  5
1212F
  8
MSM_CONTINUOUS
 10
27.5
 20
37.5
 30
0.0
 40
23.807807627108009
  0
CIRCLE
  5
12130
  8
MSM_CONTINUOUS
 10
27.5
 20
37.5
 30
0.0
 40
27.499999999999989
  0
CIRCLE
  5
12131
  8
MSM_CONTINUOUS
 10
27.5
 20
37.5
 30
0.0
 40
19.5
  0
CIRCLE
  5
12132
  8
MSM_DASHED
 10
27.5
 20
37.5
 30
0.0
 40
24.0
  0
ARC
  5
12133
  8
MSM_DASHED
 10
27.5
 20
37.5
 30
0.0
 40
23.87499999999989
 50
51.479581659700237
 51
61.020418340300672
  0
ARC
  5
12134
  8
MSM_DASHED
 10
42.057797899599997
 20
55.788278905200031
 30
0.0
 40
0.5000000000001366
 50
335.00000000009908
 51
51.479581659799749
  0
LINE
  5
12135
  8
MSM_DASHED
 10
41.99851866329999
 20
54.478053381099997
 30
0.0
 11
42.510951793099998
 21
55.576969774299997
 31
0.0
  0
ARC
  5
12136
  8
MSM_DASHED
 10
42.451672556800013
 20
54.266744250299979
 30
0.0
 40
0.4999999999982895
 50
154.9999999998997
 51
228.27515254019951
  0
ARC
  5
12137
  8
MSM_DASHED
 10
27.499999999799989
 20
37.499999999800011
 30
0.0
 40
21.965000000232649
 50
41.724847521500642
 51
48.275152539998963
  0
ARC
  5
12138
  8
MSM_DASHED
 10
44.266744250199977
 20
52.451672556800013
 30
0.0
 40
0.4999999999984276
 50
221.7248447598997
 51
295.00000000010021
  0
LINE
  5
12139
  8
MSM_DASHED
 10
45.576969774299997
 20
52.510951793099998
 30
0.0
 11
44.478053381099997
 21
51.998518663299997
 31
0.0
  0
ARC
  5
1213A
  8
MSM_DASHED
 10
45.788278905199967
 20
52.057797899600011
 30
0.0
 40
0.5000000000001343
 50
38.520418340199257
 51
114.9999999998999
  0
ARC
  5
1213B
  8
MSM_DASHED
 10
27.5
 20
37.5
 30
0.0
 40
23.874999999999901
 50
28.979581659700791
 51
38.520418340299187
  0
ARC
  5
1213C
  8
MSM_DASHED
 10
47.948272861400007
 20
48.825138497499992
 30
0.0
 40
0.5000000000001219
 50
312.50000000010021
 51
28.97958165979945
  0
LINE
  5
1213D
  8
MSM_DASHED
 10
47.392104387500012
 20
47.637333134400031
 30
0.0
 11
48.28606796519999
 21
48.456499829099997
 31
0.0
  0
ARC
  5
1213E
  8
MSM_DASHED
 10
47.729899491300003
 20
47.268694466000007
 30
0.0
 40
0.4999999999983097
 50
132.49999999989981
 51
205.77515254020059
  0
ARC
  5
1213F
  8
MSM_DASHED
 10
27.499999999799989
 20
37.499999999899998
 30
0.0
 40
21.965000000232891
 50
19.22484752149936
 51
25.775152539999819
  0
ARC
  5
12140
  8
MSM_DASHED
 10
48.712209213299992
 20
44.897189012799977
 30
0.0
 40
0.4999999999984266
 50
199.22484475990029
 51
272.50000000009999
  0
LINE
  5
12141
  8
MSM_DASHED
 10
49.945384939599997
 20
44.450554285199992
 30
0.0
 11
48.734018906999978
 21
44.397664902000017
 31
0.0
  0
ARC
  5
12142
  8
MSM_DASHED
 10
49.967194633200009
 20
43.951030174400017
 30
0.0
 40
0.5000000000001135
 50
16.020418340199399
 51
92.499999999899956
  0
ARC
  5
12143
  8
MSM_DASHED
 10
27.5
 20
37.5
 30
0.0
 40
23.874999999999861
 50
6.4795816597001252
 51
16.020418340299361
  0
ARC
  5
12144
  8
MSM_DASHED
 10
50.725683643999993
 20
40.137848416099992
 30
0.0
 40
0.5000000000001307
 50
290.00000000010021
 51
6.4795816598000977
  0
LINE
  5
12145
  8
MSM_DASHED
 10
49.75729754109998
 20
39.253295813199983
 30
0.0
 11
50.896693715700003
 21
39.668002105699983
 31
0.0
  0
ARC
  5
12146
  8
MSM_DASHED
 10
49.928307612799998
 20
38.783449502800011
 30
0.0
 40
0.4999999999982951
 50
109.9999999999
 51
183.2751525402
  0
ARC
  5
12147
  8
MSM_DASHED
 10
27.499999999699991
 20
37.5
 30
0.0
 40
21.965000000234529
 50
356.72484752149978
 51
3.27515253999954
  0
ARC
  5
12148
  8
MSM_DASHED
 10
49.928307612799998
 20
36.216550497200011
 30
0.0
 40
0.4999999999984312
 50
176.72484475990001
 51
250.00000000009999
  0
LINE
  5
12149
  8
MSM_DASHED
 10
50.896693715700003
 20
35.331997894300002
 30
0.0
 11
49.75729754109998
 21
35.746704186800002
 31
0.0
  0
ARC
  5
1214A
  8
MSM_DASHED
 10
50.725683643999993
 20
34.862151583900001
 30
0.0
 40
0.5000000000001384
 50
353.52041834020002
 51
69.999999999899842
  0
ARC
  5
1214B
  8
MSM_DASHED
 10
27.5
 20
37.5
 30
0.0
 40
23.874999999999861
 50
343.97958165970078
 51
353.5204183402999
  0
ARC
  5
1214C
  8
MSM_DASHED
 10
49.967194633200009
 20
31.048969825600029
 30
0.0
 40
0.5000000000001135
 50
267.50000000009999
 51
343.97958165980071
  0
LINE
  5
1214D
  8
MSM_DASHED
 10
48.734018906999978
 20
30.602335098000012
 30
0.0
 11
49.945384939599997
 21
30.549445714800001
 31
0.0
  0
ARC
  5
1214E
  8
MSM_DASHED
 10
48.712209213299992
 20
30.102810987200019
 30
0.0
 40
0.4999999999982867
 50
87.499999999899984
 51
160.77515254020059
  0
ARC
  5
1214F
  8
MSM_DASHED
 10
27.499999999799989
 20
37.500000000100002
 30
0.0
 40
21.965000000231829
 50
334.22484752150069
 51
340.77515254000059
  0
ARC
  5
12150
  8
MSM_DASHED
 10
47.729899491300003
 20
27.731305534000011
 30
0.0
 40
0.4999999999984371
 50
154.2248447598995
 51
227.5000000000999
  0
LINE
  5
12151
  8
MSM_DASHED
 10
48.28606796519999
 20
26.5435001709
 30
0.0
 11
47.392104387500012
 21
27.362666865600008
 31
0.0
  0
ARC
  5
12152
  8
MSM_DASHED
 10
47.948272861400007
 20
26.174861502500011
 30
0.0
 40
0.5000000000001403
 50
331.02041834020048
 51
47.499999999899863
  0
ARC
  5
12153
  8
MSM_DASHED
 10
27.5
 20
37.5
 30
0.0
 40
23.874999999999901
 50
321.47958165970078
 51
331.02041834029922
  0
ARC
  5
12154
  8
MSM_DASHED
 10
45.788278905199967
 20
22.942202100399999
 30
0.0
 40
0.5000000000001409
 50
245.0000000001001
 51
321.47958165980077
  0
LINE
  5
12155
  8
MSM_DASHED
 10
44.478053381099997
 20
23.0014813367
 30
0.0
 11
45.576969774299997
 21
22.489048206899991
 31
0.0
  0
ARC
  5
12156
  8
MSM_DASHED
 10
44.266744250199977
 20
22.548327443199991
 30
0.0
 40
0.4999999999982789
 50
64.999999999899956
 51
138.27515254020051
  0
ARC
  5
12157
  8
MSM_DASHED
 10
27.499999999799989
 20
37.500000000200011
 30
0.0
 40
21.965000000233449
 50
311.72484752150018
 51
318.27515253999991
  0
ARC
  5
12158
  8
MSM_DASHED
 10
42.451672556800013
 20
20.73325574970001
 30
0.0
 40
0.4999999999984276
 50
131.72484475990061
 51
205.0000000001003
  0
LINE
  5
12159
  8
MSM_DASHED
 10
42.510951793099998
 20
19.4230302257
 30
0.0
 11
41.99851866329999
 21
20.521946618899999
 31
0.0
  0
ARC
  5
1215A
  8
MSM_DASHED
 10
42.057797899599997
 20
19.211721094800009
 30
0.0
 40
0.5000000000001144
 50
308.52041834020019
 51
24.99999999990089
  0
ARC
  5
1215B
  8
MSM_DASHED
 10
27.5
 20
37.5
 30
0.0
 40
23.87499999999989
 50
298.97958165969931
 51
308.52041834029978
  0
ARC
  5
1215C
  8
MSM_DASHED
 10
38.825138497399998
 20
17.051727138600011
 30
0.0
 40
0.5000000000001289
 50
222.5000000001001
 51
298.97958165979981
  0
LINE
  5
1215D
  8
MSM_DASHED
 10
37.637333134399988
 20
17.607895612499991
 30
0.0
 11
38.456499829000009
 21
16.71393203480001
 31
0.0
  0
ARC
  5
1215E
  8
MSM_DASHED
 10
37.268694465999978
 20
17.27010050869999
 30
0.0
 40
0.4999999999983148
 50
42.499999999899238
 51
115.7751525402001
  0
ARC
  5
1215F
  8
MSM_DASHED
 10
27.499999999899991
 20
37.500000000200011
 30
0.0
 40
21.965000000232859
 50
289.22484752149978
 51
295.77515253999991
  0
ARC
  5
12160
  8
MSM_DASHED
 10
34.897189012800013
 20
16.2877907867
 30
0.0
 40
0.4999999999984285
 50
109.22484475989999
 51
182.50000000009959
  0
LINE
  5
12161
  8
MSM_DASHED
 10
34.450554285199999
 20
15.054615060399991
 30
0.0
 11
34.397664902000002
 21
16.265981093000011
 31
0.0
  0
ARC
  5
12162
  8
MSM_DASHED
 10
33.951030174399989
 20
15.0328053667
 30
0.0
 40
0.5000000000001288
 50
286.0204183401998
 51
2.499999999900766
  0
ARC
  5
12163
  8
MSM_DASHED
 10
27.5
 20
37.5
 30
0.0
 40
23.87499999999989
 50
276.4795816597001
 51
286.02041834030018
  0
ARC
  5
12164
  8
MSM_DASHED
 10
30.13784841610001
 20
14.274316356
 30
0.0
 40
0.5000000000001154
 50
200.0000000001005
 51
276.47958165980009
  0
LINE
  5
12165
  8
MSM_DASHED
 10
29.253295813099989
 20
15.242702458900011
 30
0.0
 11
29.668002105700001
 21
14.10330628429999
 31
0.0
  0
ARC
  5
12166
  8
MSM_DASHED
 10
28.783449502700009
 20
15.071692387200001
 30
0.0
 40
0.4999999999983002
 50
19.999999999899519
 51
93.275152540200125
  0
ARC
  5
12167
  8
MSM_DASHED
 10
27.5
 20
37.500000000200011
 30
0.0
 40
21.965000000234561
 50
266.72484752150018
 51
273.27515253999991
  0
ARC
  5
12168
  8
MSM_DASHED
 10
26.2165504972
 20
15.071692387200001
 30
0.0
 40
0.499999999998413
 50
86.724844759899966
 51
160.0000000001005
  0
LINE
  5
12169
  8
MSM_DASHED
 10
25.331997894200001
 20
14.10330628429999
 30
0.0
 11
25.746704186799999
 21
15.242702458900011
 31
0.0
  0
ARC
  5
1216A
  8
MSM_DASHED
 10
24.862151583799999
 20
14.274316356
 30
0.0
 40
0.5000000000001154
 50
263.52041834019991
 51
339.99999999989939
  0
ARC
  5
1216B
  8
MSM_DASHED
 10
27.5
 20
37.5
 30
0.0
 40
23.874999999999901
 50
253.9795816597001
 51
263.52041834030001
  0
ARC
  5
1216C
  8
MSM_DASHED
 10
21.04896982559999
 20
15.0328053667
 30
0.0
 40
0.5000000000001147
 50
177.50000000009919
 51
253.97958165980009
  0
LINE
  5
1216D
  8
MSM_DASHED
 10
20.60233509799999
 20
16.265981093000011
 30
0.0
 11
20.549445714800001
 21
15.054615060399991
 31
0.0
  0
ARC
  5
1216E
  8
MSM_DASHED
 10
20.102810987200002
 20
16.2877907867
 30
0.0
 40
0.4999999999983019
 50
357.49999999990041
 51
70.775152540200352
  0
ARC
  5
1216F
  8
MSM_DASHED
 10
27.500000000099998
 20
37.500000000200011
 30
0.0
 40
21.965000000231768
 50
244.22484752149941
 51
250.77515254000011
  0
ARC
  5
12170
  8
MSM_DASHED
 10
17.73130553399999
 20
17.27010050869999
 30
0.0
 40
0.4999999999984371
 50
64.224844759900051
 51
137.5000000001007
  0
LINE
  5
12171
  8
MSM_DASHED
 10
16.5435001709
 20
16.71393203480001
 30
0.0
 11
17.362666865600001
 21
17.607895612499991
 31
0.0
  0
ARC
  5
12172
  8
MSM_DASHED
 10
16.17486150249999
 20
17.051727138600011
 30
0.0
 40
0.5000000000001296
 50
241.0204183402
 51
317.49999999989973
  0
ARC
  5
12173
  8
MSM_DASHED
 10
27.5
 20
37.5
 30
0.0
 40
23.87499999999989
 50
231.4795816597003
 51
241.02041834030069
  0
ARC
  5
12174
  8
MSM_DASHED
 10
12.942202100399991
 20
19.211721094800009
 30
0.0
 40
0.5000000000001005
 50
155.0000000001009
 51
231.47958165979969
  0
LINE
  5
12175
  8
MSM_DASHED
 10
13.001481336699991
 20
20.521946618899999
 30
0.0
 11
12.4890482069
 21
19.4230302257
 31
0.0
  0
ARC
  5
12176
  8
MSM_DASHED
 10
12.5483274432
 20
20.73325574970001
 30
0.0
 40
0.4999999999983018
 50
334.99999999989973
 51
48.2751525401995
  0
ARC
  5
12177
  8
MSM_DASHED
 10
27.500000000099998
 20
37.500000000200011
 30
0.0
 40
21.965000000232251
 50
221.72484752150069
 51
228.275152539999
  0
ARC
  5
12178
  8
MSM_DASHED
 10
10.7332557497
 20
22.548327443199991
 30
0.0
 40
0.4999999999984304
 50
41.724844759899689
 51
115.0000000001
  0
LINE
  5
12179
  8
MSM_DASHED
 10
9.4230302256999998
 20
22.489048206899991
 30
0.0
 11
10.521946618899999
 21
23.0014813367
 31
0.0
  0
ARC
  5
1217A
  8
MSM_DASHED
 10
9.2117210947999943
 20
22.942202100399999
 30
0.0
 40
0.5000000000001333
 50
218.5204183401992
 51
294.99999999989979
  0
ARC
  5
1217B
  8
MSM_DASHED
 10
27.5
 20
37.5
 30
0.0
 40
23.874999999999911
 50
208.97958165970081
 51
218.52041834029919
  0
ARC
  5
1217C
  8
MSM_DASHED
 10
7.051727138599996
 20
26.174861502500011
 30
0.0
 40
0.5000000000001449
 50
132.5000000001001
 51
208.97958165979949
  0
LINE
  5
1217D
  8
MSM_DASHED
 10
7.6078956124999904
 20
27.362666865600008
 30
0.0
 11
6.7139320347999991
 21
26.5435001709
 31
0.0
  0
ARC
  5
1217E
  8
MSM_DASHED
 10
7.2701005085999979
 20
27.731305534000011
 30
0.0
 40
0.4999999999983097
 50
312.49999999990013
 51
25.775152540200558
  0
ARC
  5
1217F
  8
MSM_DASHED
 10
27.5000000002
 20
37.500000000100002
 30
0.0
 40
21.965000000232909
 50
199.2248475214993
 51
205.77515253999979
  0
ARC
  5
12180
  8
MSM_DASHED
 10
6.287790786699996
 20
30.102810987200019
 30
0.0
 40
0.4999999999984271
 50
19.224844759900311
 51
92.500000000100002
  0
LINE
  5
12181
  8
MSM_DASHED
 10
5.0546150603999909
 20
30.549445714800001
 30
0.0
 11
6.2659810929999971
 21
30.602335098000012
 31
0.0
  0
ARC
  5
12182
  8
MSM_DASHED
 10
5.032805366699991
 20
31.048969825600029
 30
0.0
 40
0.5000000000001289
 50
196.0204183401994
 51
272.4999999998999
  0
ARC
  5
12183
  8
MSM_DASHED
 10
27.5
 20
37.5
 30
0.0
 40
23.87499999999989
 50
186.4795816597001
 51
196.0204183402993
  0
ARC
  5
12184
  8
MSM_DASHED
 10
4.2743163558999928
 20
34.862151583900001
 30
0.0
 40
0.5000000000001237
 50
110.0000000001001
 51
186.47958165980009
  0
LINE
  5
12185
  8
MSM_DASHED
 10
5.2427024588999931
 20
35.746704186800002
 30
0.0
 11
4.1033062843000003
 21
35.331997894300002
 31
0.0
  0
ARC
  5
12186
  8
MSM_DASHED
 10
5.071692387199997
 20
36.216550497200011
 30
0.0
 40
0.499999999998293
 50
289.99999999990001
 51
3.2751525402001671
  0
ARC
  5
12187
  8
MSM_DASHED
 10
27.5000000002
 20
37.5
 30
0.0
 40
21.96500000023304
 50
176.72484752149961
 51
183.27515253999951
  0
ARC
  5
12188
  8
MSM_DASHED
 10
5.071692387199997
 20
38.783449502800011
 30
0.0
 40
0.4999999999984288
 50
356.7248447598999
 51
70.000000000099988
  0
LINE
  5
12189
  8
MSM_DASHED
 10
4.1033062843000003
 20
39.668002105699983
 30
0.0
 11
5.2427024588999931
 21
39.253295813199983
 31
0.0
  0
ARC
  5
1218A
  8
MSM_DASHED
 10
4.2743163558999928
 20
40.137848416099992
 30
0.0
 40
0.5000000000001237
 50
173.52041834019991
 51
249.99999999989981
  0
ARC
  5
1218B
  8
MSM_DASHED
 10
5.032805366699991
 20
43.951030174400017
 30
0.0
 40
0.5000000000001144
 50
87.500000000100016
 51
163.97958165980049
  0
LINE
  5
1218C
  8
MSM_DASHED
 10
6.2659810929999971
 20
44.397664902000017
 30
0.0
 11
5.0546150603999909
 21
44.450554285199992
 31
0.0
  0
ARC
  5
1218D
  8
MSM_DASHED
 10
6.287790786699996
 20
44.897189012799977
 30
0.0
 40
0.4999999999983186
 50
267.49999999990001
 51
340.77515254020062
  0
ARC
  5
1218E
  8
MSM_DASHED
 10
27.5000000002
 20
37.499999999899998
 30
0.0
 40
21.965000000231768
 50
154.22484752150081
 51
160.77515254000051
  0
ARC
  5
1218F
  8
MSM_DASHED
 10
7.2701005085999979
 20
47.268694466000007
 30
0.0
 40
0.4999999999984332
 50
334.22484475989961
 51
47.500000000099881
  0
LINE
  5
12190
  8
MSM_DASHED
 10
6.7139320347999991
 20
48.456499829099997
 30
0.0
 11
7.6078956124999904
 21
47.637333134400031
 31
0.0
  0
ARC
  5
12191
  8
MSM_DASHED
 10
7.051727138599996
 20
48.825138497499992
 30
0.0
 40
0.5000000000001296
 50
151.02041834020051
 51
227.4999999998999
  0
ARC
  5
12192
  8
MSM_DASHED
 10
27.5
 20
37.5
 30
0.0
 40
23.874999999999901
 50
141.47958165970081
 51
151.02041834029919
  0
ARC
  5
12193
  8
MSM_DASHED
 10
9.2117210947999943
 20
52.057797899600011
 30
0.0
 40
0.5000000000001234
 50
65.000000000100101
 51
141.4795816598006
  0
LINE
  5
12194
  8
MSM_DASHED
 10
10.521946618899999
 20
51.998518663299997
 30
0.0
 11
9.4230302256999998
 21
52.510951793099998
 31
0.0
  0
ARC
  5
12195
  8
MSM_DASHED
 10
10.7332557497
 20
52.451672556800013
 30
0.0
 40
0.4999999999982789
 50
244.99999999989981
 51
318.27515254020051
  0
ARC
  5
12196
  8
MSM_DASHED
 10
27.500000000099998
 20
37.499999999800011
 30
0.0
 40
21.965000000233459
 50
131.7248475215001
 51
138.27515253999991
  0
ARC
  5
12197
  8
MSM_DASHED
 10
12.5483274432
 20
54.266744250299979
 30
0.0
 40
0.499999999998437
 50
311.72484475990058
 51
24.999999999999709
  0
LINE
  5
12198
  8
MSM_DASHED
 10
12.4890482069
 20
55.576969774299997
 30
0.0
 11
13.001481336699991
 21
54.478053381099997
 31
0.0
  0
ARC
  5
12199
  8
MSM_DASHED
 10
12.942202100399991
 20
55.788278905200031
 30
0.0
 40
0.5000000000001366
 50
128.52041834020019
 51
204.99999999990089
  0
ARC
  5
1219A
  8
MSM_DASHED
 10
27.5
 20
37.5
 30
0.0
 40
23.874999999999911
 50
118.97958165969931
 51
128.5204183402997
  0
ARC
  5
1219B
  8
MSM_DASHED
 10
16.17486150249999
 20
57.948272861399978
 30
0.0
 40
0.5000000000001358
 50
42.50000000010013
 51
118.9795816597999
  0
LINE
  5
1219C
  8
MSM_DASHED
 10
17.362666865600001
 20
57.392104387499991
 30
0.0
 11
16.5435001709
 21
58.28606796519999
 31
0.0
  0
ARC
  5
1219D
  8
MSM_DASHED
 10
17.73130553399999
 20
57.729899491300003
 30
0.0
 40
0.4999999999982896
 50
222.49999999989919
 51
295.77515254020022
  0
ARC
  5
1219E
  8
MSM_DASHED
 10
27.500000000099998
 20
37.499999999800011
 30
0.0
 40
21.96500000023293
 50
109.2248475214997
 51
115.77515253999979
  0
ARC
  5
1219F
  8
MSM_DASHED
 10
20.102810987200002
 20
58.712209213300028
 30
0.0
 40
0.499999999998413
 50
289.22484475990018
 51
2.5000000000996261
  0
LINE
  5
121A0
  8
MSM_DASHED
 10
20.549445714800001
 20
59.945384939599997
 30
0.0
 11
20.60233509799999
 21
58.734018907000021
 31
0.0
  0
ARC
  5
121A1
  8
MSM_DASHED
 10
21.04896982559999
 20
59.967194633300018
 30
0.0
 40
0.5000000000001387
 50
106.0204183401998
 51
182.49999999990069
  0
ARC
  5
121A2
  8
MSM_DASHED
 10
27.5
 20
37.5
 30
0.0
 40
23.87499999999989
 50
96.479581659700074
 51
106.0204183403002
  0
ARC
  5
121A3
  8
MSM_DASHED
 10
24.862151583799999
 20
60.725683644099988
 30
0.0
 40
0.5000000000001154
 50
20.000000000100549
 51
96.47958165980009
  0
LINE
  5
121A4
  8
MSM_DASHED
 10
25.746704186790051
 20
59.757297541127329
 30
0.0
 11
25.331997894200001
 21
60.896693715700003
 31
0.0
  0
ARC
  5
121A5
  8
MSM_DASHED
 10
26.2165504972
 20
59.928307612799998
 30
0.0
 40
0.4999999999982921
 50
199.9999999998995
 51
273.2751525402
  0
ARC
  5
121A6
  8
MSM_DASHED
 10
27.5
 20
37.499999999800011
 30
0.0
 40
21.965000000234529
 50
86.724847521500152
 51
93.275152539999922
  0
ARC
  5
121A7
  8
MSM_DASHED
 10
28.783449502700009
 20
59.928307612799998
 30
0.0
 40
0.4999999999984562
 50
266.7248447598999
 51
340.0000000001005
  0
LINE
  5
121A8
  8
MSM_DASHED
 10
29.668002105700001
 20
60.896693715700003
 30
0.0
 11
29.25329581309985
 21
59.757297541160611
 31
0.0
  0
ARC
  5
121A9
  8
MSM_DASHED
 10
30.13784841610001
 20
60.725683644099988
 30
0.0
 40
0.5000000000001154
 50
83.520418340199925
 51
159.99999999989939
  0
ARC
  5
121AA
  8
MSM_DASHED
 10
27.5
 20
37.5
 30
0.0
 40
23.874999999999861
 50
73.979581659699733
 51
83.520418340299884
  0
ARC
  5
121AB
  8
MSM_DASHED
 10
33.951030174399989
 20
59.967194633300018
 30
0.0
 40
0.5000000000001121
 50
357.50000000009931
 51
73.979581659800132
  0
LINE
  5
121AC
  8
MSM_DASHED
 10
34.397664902000002
 20
58.734018907000021
 30
0.0
 11
34.450554285199999
 21
59.945384939599997
 31
0.0
  0
ARC
  5
121AD
  8
MSM_DASHED
 10
34.897189012800013
 20
58.712209213300028
 30
0.0
 40
0.4999999999983019
 50
177.4999999999003
 51
250.77515254020031
  0
ARC
  5
121AE
  8
MSM_DASHED
 10
27.499999999899991
 20
37.499999999800011
 30
0.0
 40
21.9650000002318
 50
64.224847521499342
 51
70.775152540000079
  0
ARC
  5
121AF
  8
MSM_DASHED
 10
37.268694465999978
 20
57.729899491300003
 30
0.0
 40
0.4999999999984371
 50
244.22484475990001
 51
317.50000000010078
  0
LINE
  5
121B0
  8
MSM_DASHED
 10
38.456499829000009
 20
58.28606796519999
 30
0.0
 11
37.637333134399988
 21
57.392104387499991
 31
0.0
  0
ARC
  5
121B1
  8
MSM_DASHED
 10
38.825138497399998
 20
57.948272861399978
 30
0.0
 40
0.5000000000001488
 50
61.020418340200102
 51
137.49999999989981
  0
ARC
  5
121B2
  8
MSM_DASHED
 10
27.5
 20
37.5
 30
0.0
 40
23.874999999999879
 50
163.97958165970061
 51
173.52041834029981
  0
LINE
  5
122B7
  8
MSM_CENTER
 10
-13.67140743923437
 20
37.5
 30
0.0
 11
65.462581369442688
 21
37.5
 31
0.0
  0
LINE
  5
122B8
  8
MSM_CENTER
 10
27.5000000002
 20
6.4348236635722031
 30
0.0
 11
27.5000000002
 21
76.701618775833921
 31
0.0
  0
CIRCLE
  5
123FD
  8
MSM_CENTER
 10
27.5000000002
 20
37.500000000055927
 30
0.0
 40
24.254999999999999
  0
LINE
  5
1242E
  8
MSM_CENTER
 10
99.433383827050022
 20
37.5
 30
0.0
 11
136.4311423415852
 21
37.5
 31
0.0
  0
LINE
  5
1244A
  8
MSM_NARROW
 10
25.746704186808351
 20
59.757297541138577
 30
0.0
 11
25.874999999938069
 21
59.404807691500103
 31
0.0
  0
LINE
  5
1244B
  8
MSM_NARROW
 10
29.25329581309181
 20
59.757297541138527
 30
0.0
 11
29.124999999975088
 21
59.40480769153627
 31
0.0
  0
LINE
  5
1259C
  8
MSM_CENTER
 10
102.6944749186771
 20
61.754999999999981
 30
0.0
 11
131.9870693823197
 21
61.754999999999981
 31
0.0
  0
LINE
  5
125CE
  8
MSM_CENTER
 10
102.6944749186771
 20
13.24499999999999
 30
0.0
 11
134.38914359806981
 21
13.24499999999999
 31
0.0
  0
LINE
  5
125FF
  8
MSM_CONTINUOUS
 10
106.99015923570001
 20
61.374999999999993
 30
0.0
 11
127.99015923569991
 21
61.374999999999979
 31
0.0
  0
LINE
  5
12600
  8
MSM_CONTINUOUS
 10
106.99015923570001
 20
13.62499999999998
 30
0.0
 11
127.99015923569991
 21
13.62499999999998
 31
0.0
  0
CIRCLE
  5
12619
  8
MSM_IMAGINARY
 10
27.5000000002
 20
37.499999999728047
 30
0.0
 40
23.875
  0
CIRCLE
  5
1264C
  8
MSM_NARROW
 10
27.500000000200369
 20
37.500000000056033
 30
0.0
 40
21.965
  0
LINE
  5
12B5A
  8
MSM_CONTINUOUS
 10
128.8433108815999
 20
64.999999999999986
 30
0.0
 11
127.99015923569991
 21
61.499999999999979
 31
0.0
  0
LINE
  5
12B5B
  8
MSM_CONTINUOUS
 10
127.99015923569991
 20
13.49999999999998
 30
0.0
 11
128.8433108815999
 21
9.999999999999984
 31
0.0
  0
LINE
  5
12B5C
  8
MSM_CONTINUOUS
 10
130.49015923569991
 20
64.999999999999986
 30
0.0
 11
128.8433108815999
 21
64.999999999999986
 31
0.0
  0
LINE
  5
12B5D
  8
MSM_CONTINUOUS
 10
128.8433108815999
 20
9.999999999999984
 30
0.0
 11
130.49015923569991
 21
9.999999999999984
 31
0.0
  0
LINE
  5
12B5F
  8
MSM_CONTINUOUS
 10
127.99015923569991
 20
61.499999999999979
 30
0.0
 11
127.99015923569991
 21
13.49999999999998
 31
0.0
  0
LINE
  5
12B61
  8
MSM_CONTINUOUS
 10
128.8433108815999
 20
64.999999999999986
 30
0.0
 11
128.8433108815999
 21
9.999999999999984
 31
0.0
  0
LINE
  5
12B63
  8
MSM_CONTINUOUS
 10
130.49015923569991
 20
64.999999999999986
 30
0.0
 11
130.49015923569991
 21
9.999999999999984
 31
0.0
  0
LINE
  5
12B65
  8
MSM_DASHED
 10
129.5901592356999
 20
61.307807627099962
 30
0.0
 11
129.5901592356999
 21
13.69219237289998
 31
0.0
  0
LINE
  5
12B66
  8
MSM_DASHED
 10
130.49015923569991
 20
64.999999999999986
 30
0.0
 11
129.5901592356999
 21
61.307807627099962
 31
0.0
  0
LINE
  5
12B67
  8
MSM_DASHED
 10
129.5901592356999
 20
13.69219237289998
 30
0.0
 11
130.49015923569991
 21
9.999999999999984
 31
0.0
  0
LINE
  5
12B68
  8
MSM_DASHED
 10
129.5901592356999
 20
56.999999999999993
 30
0.0
 11
127.99015923569991
 21
56.999999999999993
 31
0.0
  0
LINE
  5
12B69
  8
MSM_DASHED
 10
127.99015923569991
 20
17.999999999999979
 30
0.0
 11
129.5901592356999
 21
17.999999999999979
 31
0.0
  0
LINE
  5
12B6A
  8
MSM_DASHED
 10
127.99015923569991
 20
17.999999999999979
 30
0.0
 11
130.49015923569991
 21
17.999999999999979
 31
0.0
  0
LINE
  5
12B6B
  8
MSM_DASHED
 10
130.49015923569991
 20
56.999999999999993
 30
0.0
 11
127.99015923569991
 21
56.999999999999993
 31
0.0
  0
VIEWPORT
  5
12CCD
 67
     1
  8
0
 10
142.58924865722659
 20
99.112914085388184
 30
0.0
 40
510.50030399515163
 41
222.15178063964851
 68
     1
 69
     1
1001
ACAD
1000
MVIEW
1002
{
1070
    16
1010
0.0
1020
0.0
1030
0.0
1010
0.0
1020
0.0
1030
1.0
1040
0.0
1040
222.15178063964851
1040
142.58924865722659
1040
99.112914085388184
1040
50.0
1040
0.0
1040
0.0
1070
     0
1070
  1000
1070
     1
1070
     1
1070
     0
1070
     0
1070
     0
1070
     0
1040
0.0
1040
0.0
1040
0.0
1040
10.0
1040
10.0
1040
10.0
1040
10.0
1070
     0
1002
{
1002
}
1002
}
  0
VIEWPORT
  5
12CD1
 67
     1
  8
MSM_CONTINUOUS
 10
142.58924913406369
 20
99.112914562225356
 30
0.0
 40
228.142798614502
 41
158.58066329956051
 68
     2
 69
     2
1001
ACAD
1000
MVIEW
1002
{
1070
    16
1010
0.0
1020
0.0
1030
0.0
1010
0.0
1020
0.0
1030
1.0
1040
0.0
1040
105.1053665528859
1040
61.3798674511754
1040
34.350809387916961
1040
50.0
1040
0.0
1040
0.0
1070
    16
1070
  1000
1070
     1
1070
     3
1070
     0
1070
     0
1070
     0
1070
     0
1040
0.0
1040
0.0
1040
0.0
1040
10.0
1040
10.0
1040
10.0
1040
10.0
1070
     0
1002
{
1002
}
1002
}
  0
ENDSEC
  0
EOF
