  0
SECTION
  2
HEADER
  9
$ACADVER
  1
AC1009
  9
$INSBASE
 10
0.0
 20
0.0
 30
0.0
  9
$EXTMIN
 10
11.979927665474291
 20
10.72239650733388
 30
-0.0000000349181948
  9
$EXTMAX
 10
74.297476118562031
 20
45.876214154870063
 30
0.0000000814935746
  9
$LIMMIN
 10
0.0
 20
0.0
  9
$LIMMAX
 10
297.0
 20
210.0
  9
$ORTHOMODE
 70
     0
  9
$REGENMODE
 70
     1
  9
$FILLMODE
 70
     1
  9
$QTEXTMODE
 70
     0
  9
$MIRRTEXT
 70
     1
  9
$DRAGMODE
 70
     2
  9
$LTSCALE
 40
3.0
  9
$OSMODE
 70
   183
  9
$ATTMODE
 70
     1
  9
$TEXTSIZE
 40
6.4000000000000012
  9
$TRACEWID
 40
0.05
  9
$TEXTSTYLE
  7
STANDARD
  9
$CLAYER
  8
0
  9
$CELTYPE
  6
CONTINUOUS
  9
$CECOLOR
 62
     7
  9
$DIMSCALE
 40
1.0
  9
$DIMASZ
 40
1.5
  9
$DIMEXO
 40
0.5
  9
$DIMDLI
 40
0.0
  9
$DIMRND
 40
0.0
  9
$DIMDLE
 40
0.0
  9
$DIMEXE
 40
1.0
  9
$DIMTP
 40
0.0
  9
$DIMTM
 40
0.0
  9
$DIMTXT
 40
2.0
  9
$DIMCEN
 40
0.0
  9
$DIMTSZ
 40
0.0
  9
$DIMTOL
 70
     0
  9
$DIMLIM
 70
     0
  9
$DIMTIH
 70
     0
  9
$DIMTOH
 70
     0
  9
$DIMSE1
 70
     0
  9
$DIMSE2
 70
     0
  9
$DIMTAD
 70
     1
  9
$DIMZIN
 70
     8
  9
$DIMBLK
  1

  9
$DIMASO
 70
     1
  9
$DIMSHO
 70
     1
  9
$DIMPOST
  1

  9
$DIMAPOST
  1

  9
$DIMALT
 70
     0
  9
$DIMALTD
 70
     2
  9
$DIMALTF
 40
0.04
  9
$DIMLFAC
 40
1.0
  9
$DIMTOFL
 70
     1
  9
$DIMTVP
 40
1.0
  9
$DIMTIX
 70
     0
  9
$DIMSOXD
 70
     0
  9
$DIMSAH
 70
     0
  9
$DIMBLK1
  1

  9
$DIMBLK2
  1

  9
$DIMSTYLE
  2
MISUMI
  9
$DIMCLRD
 70
     0
  9
$DIMCLRE
 70
     0
  9
$DIMCLRT
 70
     0
  9
$DIMTFAC
 40
0.6
  9
$DIMGAP
 40
1.0
  9
$LUNITS
 70
     2
  9
$LUPREC
 70
     3
  9
$SKETCHINC
 40
0.1
  9
$FILLETRAD
 40
3.2999999999999989
  9
$AUNITS
 70
     0
  9
$AUPREC
 70
     0
  9
$MENU
  1
acad
  9
$ELEVATION
 40
0.0
  9
$PELEVATION
 40
0.0
  9
$THICKNESS
 40
0.0
  9
$LIMCHECK
 70
     0
  9
$BLIPMODE
 70
     0
  9
$CHAMFERA
 40
0.0
  9
$CHAMFERB
 40
0.0
  9
$SKPOLY
 70
     0
  9
$TDCREATE
 40
2451464.60066493
  9
$TDUPDATE
 40
2453759.7314594099
  9
$TDINDWG
 40
0.5656973958
  9
$TDUSRTIMER
 40
0.5656959028
  9
$USRTIMER
 70
     1
  9
$ANGBASE
 50
0.0
  9
$ANGDIR
 70
     0
  9
$PDMODE
 70
     0
  9
$PDSIZE
 40
0.0
  9
$PLINEWID
 40
0.0
  9
$COORDS
 70
     0
  9
$SPLFRAME
 70
     0
  9
$SPLINETYPE
 70
     6
  9
$SPLINESEGS
 70
     8
  9
$ATTDIA
 70
     0
  9
$ATTREQ
 70
     1
  9
$HANDLING
 70
 22529
  9
$HANDSEED
  5
551B
  9
$SURFTAB1
 70
     6
  9
$SURFTAB2
 70
     6
  9
$SURFTYPE
 70
     6
  9
$SURFU
 70
     6
  9
$SURFV
 70
     6
  9
$UCSNAME
  2

  9
$UCSORG
 10
0.0
 20
0.0
 30
0.0
  9
$UCSXDIR
 10
1.0
 20
0.0
 30
0.0
  9
$UCSYDIR
 10
0.0
 20
1.0
 30
0.0
  9
$PUCSNAME
  2

  9
$PUCSORG
 10
0.0
 20
0.0
 30
0.0
  9
$PUCSXDIR
 10
1.0
 20
0.0
 30
0.0
  9
$PUCSYDIR
 10
0.0
 20
1.0
 30
0.0
  9
$USERI1
 70
     0
  9
$USERI2
 70
     0
  9
$USERI3
 70
     0
  9
$USERI4
 70
     0
  9
$USERI5
 70
     0
  9
$USERR1
 40
2.0
  9
$USERR2
 40
0.0
  9
$USERR3
 40
0.0
  9
$USERR4
 40
0.0
  9
$USERR5
 40
0.0
  9
$WORLDVIEW
 70
     1
  9
$SHADEDGE
 70
     3
  9
$SHADEDIF
 70
    70
  9
$TILEMODE
 70
     1
  9
$MAXACTVP
 70
    16
  9
$PLIMCHECK
 70
     0
  9
$PEXTMIN
 10
1.0000000000000000E+020
 20
1.0000000000000000E+020
 30
1.0000000000000000E+020
  9
$PEXTMAX
 10
-1.0000000000000000E+020
 20
-1.0000000000000000E+020
 30
-1.0000000000000000E+020
  9
$PLIMMIN
 10
0.0
 20
0.0
  9
$PLIMMAX
 10
12.0
 20
9.0
  9
$UNITMODE
 70
     0
  9
$VISRETAIN
 70
     0
  9
$PLINEGEN
 70
     0
  9
$PSLTSCALE
 70
     1
  0
ENDSEC
  0
SECTION
  2
TABLES
  0
TABLE
  2
VPORT
 70
     4
  0
VPORT
  2
*ACTIVE
 70
     0
 10
0.0
 20
0.0
 11
1.0
 21
1.0
 12
41.414161925543688
 22
25.660499383979541
 13
0.0
 23
0.0
 14
10.0
 24
10.0
 15
10.0
 25
10.0
 16
0.0
 26
0.0
 36
1.0
 17
0.0
 27
0.0
 37
0.0
 40
51.34005545316203
 41
1.474548440065681
 42
50.0
 43
0.0
 44
0.0
 50
0.0
 51
0.0
 71
     0
 72
   100
 73
     1
 74
     0
 75
     0
 76
     0
 77
     0
 78
     0
  0
ENDTAB
  0
TABLE
  2
LTYPE
 70
     3
  0
LTYPE
  2
CONTINUOUS
 70
     0
  3
Solid line
 72
    65
 73
     0
 40
0.0
  0
LTYPE
  2
CENTER
 70
     0
  3
Center ____ _ ____ _ ____ _ ____ _ ____ _ ____
 72
    65
 73
     4
 40
2.0
 49
1.25
 49
-0.25
 49
0.25
 49
-0.25
  0
LTYPE
  2
DASHED
 70
     0
  3
Dashed __ __ __ __ __ __ __ __ __ __ __ __ __ _
 72
    65
 73
     2
 40
0.75
 49
0.5
 49
-0.25
  0
ENDTAB
  0
TABLE
  2
LAYER
 70
     4
  0
LAYER
  2
0
 70
     0
 62
     7
  6
CONTINUOUS
  0
LAYER
  2
CENTER
 70
     0
 62
     1
  6
CENTER
  0
ENDTAB
  0
TABLE
  2
STYLE
 70
     3
  0
STYLE
  2
STANDARD
 70
     0
 40
0.0
 41
1.0
 50
0.0
 71
     0
 42
6.4000000000000012
  3
romans.shx
  4
bigfont.shx
  0
ENDTAB
  0
TABLE
  2
VIEW
 70
     0
  0
ENDTAB
  0
TABLE
  2
UCS
 70
     0
  0
ENDTAB
  0
TABLE
  2
APPID
 70
     1
  0
APPID
  2
ACAD
 70
     0
  0
ENDTAB
  0
TABLE
  2
DIMSTYLE
 70
     1
  0
DIMSTYLE
  2
MISUMI
 70
     0
  3

  4

  5

  6

  7

 40
1.0
 41
1.5
 42
0.5
 43
0.0
 44
1.0
 45
0.0
 46
0.0
 47
0.0
 48
0.0
140
2.0
141
0.0
142
0.0
143
0.04
144
1.0
145
1.0
146
0.6
147
1.0
 71
     0
 72
     0
 73
     0
 74
     0
 75
     0
 76
     0
 77
     1
 78
     8
170
     0
171
     2
172
     1
173
     0
174
     0
175
     0
176
     0
177
     0
178
     0
  0
ENDTAB
  0
ENDSEC
  0
SECTION
  2
BLOCKS
  0
BLOCK
  8
0
  2
$MODEL_SPACE
 70
     0
 10
0.0
 20
0.0
 30
0.0
  3
$MODEL_SPACE
  1

  0
ENDBLK
  5
B11
  8
0
  0
BLOCK
 67
     1
  8
0
  2
$PAPER_SPACE
 70
     0
 10
0.0
 20
0.0
 30
0.0
  3
$PAPER_SPACE
  1

  0
ENDBLK
  5
B0D
 67
     1
  8
0
  0
ENDSEC
  0
SECTION
  2
ENTITIES
  0
LINE
  5
44A5
  8
0
  6
CONTINUOUS
 62
     3
 10
67.293702583351148
 20
41.743378319965977
 30
0.0
 11
72.293702583351148
 21
41.743378319965977
 31
0.0
  0
LINE
  5
44A6
  8
0
  6
CONTINUOUS
 62
     7
 10
67.293702583351148
 20
42.122378319966003
 30
0.0
 11
71.914702475065269
 21
42.122378319966003
 31
0.0
  0
LINE
  5
44A7
  8
0
  6
CONTINUOUS
 62
     3
 10
67.293702583351148
 20
38.50137831996588
 30
0.0
 11
72.293702583351148
 21
38.501378319965987
 31
0.0
  0
LINE
  5
44A8
  8
0
  6
CONTINUOUS
 62
     7
 10
67.293702583351148
 20
38.122378319966089
 30
0.0
 11
71.914702745779579
 21
38.122378319966089
 31
0.0
  0
LINE
  5
44B2
  8
0
  6
CONTINUOUS
 62
     7
 10
67.293702583351148
 20
42.122378319966003
 30
0.0
 11
67.293702583351148
 21
38.122378319966089
 31
0.0
  0
LINE
  5
44C0
  8
0
  6
CONTINUOUS
 62
     7
 10
72.293702583351148
 20
41.743378319965977
 30
0.0
 11
72.293702583351148
 21
38.501378319965987
 31
0.0
  0
LINE
  5
44C1
  8
0
  6
CONTINUOUS
 62
     7
 10
71.914702475065269
 20
42.122378319966003
 30
0.0
 11
71.914702475065269
 21
38.122378319966089
 31
0.0
  0
LINE
  5
44C2
  8
0
  6
CONTINUOUS
 62
     7
 10
71.914702745779579
 20
38.122378319966089
 30
0.0
 11
72.293702583351148
 21
38.501378319965987
 31
0.0
  0
LINE
  5
44C3
  8
0
  6
CONTINUOUS
 62
     7
 10
72.293702583351148
 20
41.743378319965977
 30
0.0
 11
71.914702475065269
 21
42.122378319966003
 31
0.0
  0
LINE
  5
4A7F
  8
CENTER
 10
58.093702583351067
 20
40.12237831996606
 30
0.0
 11
74.293702583351148
 21
40.12237831996606
 31
0.0
  0
LINE
  5
4A84
  8
CENTER
 10
42.198385397139297
 20
45.872378319966053
 30
0.0
 11
42.198385397139297
 21
34.37237831996606
 31
0.0
  0
TEXT
  5
4A85
  8
0
  6
CONTINUOUS
 62
     7
 10
11.564745302911829
 20
15.72415195833053
 30
0.0
 40
3.0
  1
CBBT4-10
  0
TEXT
  5
4A86
  8
0
  6
CONTINUOUS
 62
     7
 10
11.564745302911829
 20
10.72415195833053
 30
0.0
 40
3.0
  1
CBBT04
  0
LINE
  5
4A88
  8
CENTER
 10
36.448385397139297
 20
40.12237831996606
 30
0.0
 11
47.948385397139297
 21
40.12237831996606
 31
0.0
  0
CIRCLE
  5
4A8C
  8
0
  6
CONTINUOUS
 62
     7
 10
42.198385397139297
 20
40.12237831996606
 30
0.0
 40
3.75
  0
LINE
  5
4A9D
  8
0
  6
CONTINUOUS
 62
     7
 10
62.293702583351092
 20
43.87237831996606
 30
0.0
 11
62.293702583351148
 21
36.37237831996606
 31
0.0
  0
LINE
  5
4AA1
  8
0
  6
CONTINUOUS
 62
     7
 10
67.293702583351148
 20
38.62237831996606
 30
0.0
 11
62.593702583351131
 21
38.62237831996606
 31
0.0
  0
ARC
  5
4AA2
  8
0
  6
CONTINUOUS
 62
     7
 10
62.593702583351131
 20
38.32237831996607
 30
0.0
 40
0.3
 50
90.0
 51
180.0
  0
LINE
  5
4AA6
  8
0
  6
CONTINUOUS
 62
     7
 10
67.293702583351148
 20
41.62237831996606
 30
0.0
 11
62.59370258335116
 21
41.62237831996606
 31
0.0
  0
ARC
  5
4AA8
  8
0
  6
CONTINUOUS
 62
     7
 10
62.59370258335116
 20
41.922378319966043
 30
0.0
 40
0.3
 50
180.00000000000011
 51
270.0
  0
LINE
  5
4C36
  8
0
  6
BYBLOCK
 62
     0
 10
43.448385397139297
 20
40.85066506313018
 30
0.0
 11
43.448385397139297
 21
39.394061059223873
 31
0.0
  0
LINE
  5
4C37
  8
0
  6
BYBLOCK
 62
     0
 10
43.448418853277069
 20
39.394093700557562
 30
0.0
 11
42.198406504212812
 21
38.672398814069197
 31
0.0
  0
LINE
  5
4C3A
  8
0
  6
BYBLOCK
 62
     0
 10
40.948385397139297
 20
40.850680321919121
 30
0.0
 11
40.948385397139297
 21
39.394076318012928
 31
0.0
  0
LINE
  5
4C3B
  8
0
  6
BYBLOCK
 62
     0
 10
40.948385596679373
 20
40.850682370487156
 30
0.0
 11
42.198384731244403
 21
41.572369627581637
 31
0.0
  0
LINE
  5
4C3C
  8
0
  6
BYBLOCK
 62
     0
 10
42.198395924918373
 20
38.672393764179041
 30
0.0
 11
40.948396790353513
 21
39.394081021273557
 31
0.0
  0
LINE
  5
4C3D
  8
0
  6
BYBLOCK
 62
     0
 10
42.198384116331397
 20
41.572367447886279
 30
0.0
 11
43.44839646539571
 21
40.850672561397857
 31
0.0
  0
CIRCLE
  5
4C54
  8
0
  6
CONTINUOUS
 62
     7
 10
42.198385397139297
 20
40.12237831996606
 30
0.0
 40
1.449988388445518
  0
ARC
  5
50E8
  8
0
  6
DASHED
 62
     3
 10
60.429915218714797
 20
41.204910074696613
 30
0.0
 40
0.9637873646362744
 50
338.01264230023469
 51
21.987357699765301
  0
LINE
  5
50E9
  8
0
  6
DASHED
 62
     3
 10
61.32360294432101
 20
41.565753992940103
 30
0.0
 11
62.156936277654317
 21
40.12237831996606
 31
0.0
  0
LINE
  5
50EA
  8
0
  6
CONTINUOUS
 62
     7
 10
60.093702583351067
 20
41.87237831996606
 30
0.0
 11
60.093702583351067
 21
38.37237831996606
 31
0.0
  0
CIRCLE
  5
50F0
  8
0
  6
CONTINUOUS
 62
     3
 10
42.198385397139297
 20
40.12237831996606
 30
0.0
 40
2.4299999999999971
  0
ARC
  5
50F8
  8
0
  6
CONTINUOUS
 62
     7
 10
62.545758166026047
 20
38.859639460908511
 30
0.0
 40
2.5
 50
191.23914225544621
 51
264.2134797323647
  0
LINE
  5
50F9
  8
0
  6
DASHED
 62
     3
 10
60.093702583351067
 20
40.844066156453088
 30
0.0
 11
61.32360294432101
 21
40.844066156453088
 31
0.0
  0
ARC
  5
50FA
  8
0
  6
DASHED
 62
     3
 10
60.429915218714797
 20
39.039846565235507
 30
0.0
 40
0.9637873646362744
 50
338.01264230023469
 51
21.987357699765301
  0
LINE
  5
50FB
  8
0
  6
DASHED
 62
     3
 10
60.093702583351067
 20
39.400690483479018
 30
0.0
 11
61.32360294432101
 21
39.400690483479018
 31
0.0
  0
LINE
  5
50FC
  8
0
  6
DASHED
 62
     3
 10
60.093702583351067
 20
38.679002646991989
 30
0.0
 11
61.32360294432101
 21
38.679002646991989
 31
0.0
  0
ARC
  5
50FD
  8
0
  6
DASHED
 62
     3
 10
57.643702583351093
 20
40.12237831996606
 30
0.0
 40
3.75
 50
348.90419671686368
 51
11.095803283136201
  0
LINE
  5
50FE
  8
0
  6
DASHED
 62
     3
 10
61.32360294432101
 20
38.679002646991989
 30
0.0
 11
62.156936277654317
 21
40.12237831996606
 31
0.0
  0
ARC
  5
5103
  8
0
  6
CONTINUOUS
 62
     7
 10
62.545758166026047
 20
41.385117179023602
 30
0.0
 40
2.5
 50
95.786520267633634
 51
168.7608577445537
  0
LINE
  5
5104
  8
0
  6
DASHED
 62
     3
 10
60.093702583351067
 20
41.565753992940103
 30
0.0
 11
61.32360294432101
 21
41.565753992940103
 31
0.0
  0
ENDSEC
  0
EOF
