  0
SECTION
  2
HEADER
  9
$ACADVER
  1
AC1009
  9
$INSBASE
 10
0.0
 20
0.0
 30
0.0
  9
$EXTMIN
 10
-432.86565917282451
 20
-27.52851565123569
 30
-0.0000000000112498
  9
$EXTMAX
 10
-319.82129357391022
 20
49.982773421759759
 30
0.0000000000002956
  9
$LIMMIN
 10
0.0
 20
0.0
  9
$LIMMAX
 10
297.0
 20
210.0
  9
$ORTHOMODE
 70
     1
  9
$REGENMODE
 70
     1
  9
$FILLMODE
 70
     1
  9
$QTEXTMODE
 70
     0
  9
$MIRRTEXT
 70
     1
  9
$DRAGMODE
 70
     2
  9
$LTSCALE
 40
2.0
  9
$OSMODE
 70
   125
  9
$ATTMODE
 70
     1
  9
$TEXTSIZE
 40
2.0
  9
$TRACEWID
 40
0.05
  9
$TEXTSTYLE
  7
STANDARD
  9
$CLAYER
  8
0
  9
$CELTYPE
  6
CONTINUOUS
  9
$CECOLOR
 62
     7
  9
$DIMSCALE
 40
1.0
  9
$DIMASZ
 40
1.5
  9
$DIMEXO
 40
0.5
  9
$DIMDLI
 40
0.0
  9
$DIMRND
 40
0.0
  9
$DIMDLE
 40
0.0
  9
$DIMEXE
 40
0.1
  9
$DIMTP
 40
0.0
  9
$DIMTM
 40
0.0
  9
$DIMTXT
 40
2.0
  9
$DIMCEN
 40
0.0
  9
$DIMTSZ
 40
0.0
  9
$DIMTOL
 70
     0
  9
$DIMLIM
 70
     0
  9
$DIMTIH
 70
     0
  9
$DIMTOH
 70
     0
  9
$DIMSE1
 70
     0
  9
$DIMSE2
 70
     0
  9
$DIMTAD
 70
     1
  9
$DIMZIN
 70
     9
  9
$DIMBLK
  1

  9
$DIMASO
 70
     1
  9
$DIMSHO
 70
     1
  9
$DIMPOST
  1

  9
$DIMAPOST
  1

  9
$DIMALT
 70
     0
  9
$DIMALTD
 70
     2
  9
$DIMALTF
 40
0.04
  9
$DIMLFAC
 40
1.0
  9
$DIMTOFL
 70
     1
  9
$DIMTVP
 40
1.0
  9
$DIMTIX
 70
     1
  9
$DIMSOXD
 70
     0
  9
$DIMSAH
 70
     0
  9
$DIMBLK1
  1

  9
$DIMBLK2
  1

  9
$DIMSTYLE
  2
MISUMI
  9
$DIMCLRD
 70
     0
  9
$DIMCLRE
 70
     0
  9
$DIMCLRT
 70
     0
  9
$DIMTFAC
 40
0.6
  9
$DIMGAP
 40
0.5
  9
$LUNITS
 70
     2
  9
$LUPREC
 70
     4
  9
$SKETCHINC
 40
0.1
  9
$FILLETRAD
 40
0.0
  9
$AUNITS
 70
     0
  9
$AUPREC
 70
     0
  9
$MENU
  1
acad
  9
$ELEVATION
 40
0.0
  9
$PELEVATION
 40
0.0
  9
$THICKNESS
 40
0.0
  9
$LIMCHECK
 70
     0
  9
$BLIPMODE
 70
     0
  9
$CHAMFERA
 40
0.0
  9
$CHAMFERB
 40
0.0
  9
$SKPOLY
 70
     0
  9
$TDCREATE
 40
2451464.6006649309
  9
$TDUPDATE
 40
2454133.4786264119
  9
$TDINDWG
 40
1.1374832523
  9
$TDUSRTIMER
 40
1.1374815856
  9
$USRTIMER
 70
     1
  9
$ANGBASE
 50
0.0
  9
$ANGDIR
 70
     0
  9
$PDMODE
 70
     0
  9
$PDSIZE
 40
0.0
  9
$PLINEWID
 40
0.0
  9
$COORDS
 70
     0
  9
$SPLFRAME
 70
     0
  9
$SPLINETYPE
 70
     6
  9
$SPLINESEGS
 70
     8
  9
$ATTDIA
 70
     0
  9
$ATTREQ
 70
     1
  9
$HANDLING
 70
     1
  9
$HANDSEED
  5
25EE5
  9
$SURFTAB1
 70
     6
  9
$SURFTAB2
 70
     6
  9
$SURFTYPE
 70
     6
  9
$SURFU
 70
     6
  9
$SURFV
 70
     6
  9
$UCSNAME
  2

  9
$UCSORG
 10
0.0
 20
0.0
 30
0.0
  9
$UCSXDIR
 10
1.0
 20
0.0
 30
0.0
  9
$UCSYDIR
 10
0.0
 20
1.0
 30
0.0
  9
$PUCSNAME
  2

  9
$PUCSORG
 10
0.0
 20
0.0
 30
0.0
  9
$PUCSXDIR
 10
1.0
 20
0.0
 30
0.0
  9
$PUCSYDIR
 10
0.0
 20
1.0
 30
0.0
  9
$USERI1
 70
     0
  9
$USERI2
 70
     0
  9
$USERI3
 70
     0
  9
$USERI4
 70
     0
  9
$USERI5
 70
     0
  9
$USERR1
 40
0.0
  9
$USERR2
 40
0.0
  9
$USERR3
 40
0.0
  9
$USERR4
 40
0.0
  9
$USERR5
 40
0.0
  9
$WORLDVIEW
 70
     1
  9
$SHADEDGE
 70
     3
  9
$SHADEDIF
 70
    70
  9
$TILEMODE
 70
     1
  9
$MAXACTVP
 70
    16
  9
$PLIMCHECK
 70
     0
  9
$PEXTMIN
 10
1.0000000000000000E+020
 20
1.0000000000000000E+020
 30
1.0000000000000000E+020
  9
$PEXTMAX
 10
-1.0000000000000000E+020
 20
-1.0000000000000000E+020
 30
-1.0000000000000000E+020
  9
$PLIMMIN
 10
0.0
 20
0.0
  9
$PLIMMAX
 10
12.0
 20
9.0
  9
$UNITMODE
 70
     0
  9
$VISRETAIN
 70
     0
  9
$PLINEGEN
 70
     0
  9
$PSLTSCALE
 70
     1
  0
ENDSEC
  0
SECTION
  2
TABLES
  0
TABLE
  2
VPORT
 70
     2
  0
VPORT
  2
*ACTIVE
 70
     0
 10
0.0
 20
0.0
 11
1.0
 21
1.0
 12
-376.34347637336742
 22
11.227128885262029
 13
0.0
 23
0.0
 14
10.0
 24
10.0
 15
10.0
 25
10.0
 16
0.0
 26
0.0
 36
1.0
 17
0.0
 27
0.0
 37
0.0
 40
78.138064995418603
 41
1.6990553306342771
 42
50.0
 43
0.0
 44
0.0
 50
0.0
 51
0.0
 71
     0
 72
   100
 73
     1
 74
     0
 75
     0
 76
     0
 77
     0
 78
     0
  0
ENDTAB
  0
TABLE
  2
LTYPE
 70
     3
  0
LTYPE
  2
CONTINUOUS
 70
     0
  3
Solid line
 72
    65
 73
     0
 40
0.0
  0
LTYPE
  2
CENTER
 70
     0
  3
Center ____ _ ____ _ ____ _ ____ _ ____ _ ____
 72
    65
 73
     4
 40
2.0
 49
1.25
 49
-0.25
 49
0.25
 49
-0.25
  0
LTYPE
  2
DASHED
 70
     0
  3
Dashed __ __ __ __ __ __ __ __ __ __ __ __ __ _
 72
    65
 73
     2
 40
0.75
 49
0.5
 49
-0.25
  0
ENDTAB
  0
TABLE
  2
LAYER
 70
     3
  0
LAYER
  2
0
 70
     0
 62
     7
  6
CONTINUOUS
  0
LAYER
  2
DEFPOINTS
 70
     0
 62
     7
  6
CONTINUOUS
  0
LAYER
  2
CENTER
 70
     0
 62
     1
  6
CENTER
  0
ENDTAB
  0
TABLE
  2
STYLE
 70
     1
  0
STYLE
  2
STANDARD
 70
     0
 40
0.0
 41
1.0
 50
0.0
 71
     0
 42
2.0
  3
txt.shx
  4
bigfont.shx
  0
ENDTAB
  0
TABLE
  2
VIEW
 70
     0
  0
ENDTAB
  0
TABLE
  2
UCS
 70
     0
  0
ENDTAB
  0
TABLE
  2
APPID
 70
     6
  0
APPID
  2
ACAD
 70
     0
  0
APPID
  2
GENIUS_GENODEF_13
 70
     0
  0
APPID
  2
GENIUS_GENOBJ-N-CEN_13
 70
     0
  0
APPID
  2
DRAWINGVARIABLESXDATA
 70
     0
  0
APPID
  2
CONTENTTABDATA
 70
     0
  0
APPID
  2
CONTENTCURRENTTAB
 70
     0
  0
ENDTAB
  0
TABLE
  2
DIMSTYLE
 70
     1
  0
DIMSTYLE
  2
MISUMI
 70
     0
  3

  4

  5

  6

  7

 40
1.0
 41
1.5
 42
0.5
 43
0.0
 44
0.1
 45
0.0
 46
0.0
 47
0.0
 48
0.0
140
2.0
141
0.0
142
0.0
143
0.04
144
1.0
145
1.0
146
0.6
147
0.5
 71
     0
 72
     0
 73
     0
 74
     0
 75
     0
 76
     0
 77
     1
 78
     9
170
     0
171
     2
172
     1
173
     0
174
     1
175
     0
176
     0
177
     0
178
     0
  0
ENDTAB
  0
ENDSEC
  0
SECTION
  2
BLOCKS
  0
BLOCK
  8
0
  2
$MODEL_SPACE
 70
     0
 10
0.0
 20
0.0
 30
0.0
  3
$MODEL_SPACE
  1

  0
ENDBLK
  5
25DD0
  8
0
  0
BLOCK
 67
     1
  8
0
  2
$PAPER_SPACE
 70
     0
 10
0.0
 20
0.0
 30
0.0
  3
$PAPER_SPACE
  1

  0
ENDBLK
  5
25DCC
 67
     1
  8
0
  0
BLOCK
  8
0
 62
     7
  2
*U2
 70
     1
 10
0.0
 20
0.0
 30
0.0
  3
*U2
  1

  0
TEXT
  5
25688
  8
0
  6
CONTINUOUS
 62
     0
 10
197.7000965912539
 20
146.30552978872461
 30
0.0
 40
2.0
  1
P
  0
ENDBLK
  5
2568A
  8
0
 62
     7
  0
BLOCK
  8
0
 62
     7
  2
*U3
 70
     1
 10
0.0
 20
0.0
 30
0.0
  3
*U3
  1

  0
TEXT
  5
2568C
  8
0
  6
CONTINUOUS
 62
     0
 10
197.7000965912539
 20
141.30552978872461
 30
0.0
 40
2.0
  1
B
  0
ENDBLK
  5
2568E
  8
0
 62
     7
  0
BLOCK
  8
0
 62
     7
  2
*U4
 70
     1
 10
0.0
 20
0.0
 30
0.0
  3
*U4
  1

  0
TEXT
  5
25690
  8
0
  6
CONTINUOUS
 62
     0
 10
197.7000965912539
 20
136.30552978872461
 30
0.0
 40
2.0
  1
D
  0
ENDBLK
  5
25692
  8
0
 62
     7
  0
BLOCK
  8
0
 62
     7
  2
*U5
 70
     1
 10
0.0
 20
0.0
 30
0.0
  3
*U5
  1

  0
TEXT
  5
25694
  8
0
  6
CONTINUOUS
 62
     0
 10
137.20432979131721
 20
193.58590536372981
 30
0.0
 40
2.0
  1
Z
 50
315.0
  0
ENDBLK
  5
25696
  8
0
 62
     7
  0
BLOCK
  8
0
 62
     7
  2
*U6
 70
     1
 10
0.0
 20
0.0
 30
0.0
  3
*U6
  1

  0
TEXT
  5
25698
  8
0
  6
CONTINUOUS
 62
     0
 10
122.7000965912539
 20
146.30552978872461
 30
0.0
 40
2.0
  1
P
  0
ENDBLK
  5
2569A
  8
0
 62
     7
  0
BLOCK
  8
0
 62
     7
  2
*U7
 70
     1
 10
0.0
 20
0.0
 30
0.0
  3
*U7
  1

  0
TEXT
  5
2569C
  8
0
  6
CONTINUOUS
 62
     0
 10
122.7000965912539
 20
141.30552978872461
 30
0.0
 40
2.0
  1
B
  0
ENDBLK
  5
2569E
  8
0
 62
     7
  0
BLOCK
  8
0
 62
     7
  2
*U8
 70
     1
 10
0.0
 20
0.0
 30
0.0
  3
*U8
  1

  0
TEXT
  5
256A0
  8
0
  6
CONTINUOUS
 62
     0
 10
122.7000965912539
 20
136.30552978872461
 30
0.0
 40
2.0
  1
D
  0
ENDBLK
  5
256A2
  8
0
 62
     7
  0
BLOCK
  8
0
 62
     7
  2
*U9
 70
     1
 10
0.0
 20
0.0
 30
0.0
  3
*U9
  1

  0
TEXT
  5
256A4
  8
0
  6
CONTINUOUS
 62
     0
 10
-23.133236742079411
 20
-182.0605995441172
 30
0.0
 40
2.0
  1
50
  0
ENDBLK
  5
256A6
  8
0
 62
     7
  0
BLOCK
  8
0
 62
     7
  2
*U10
 70
     1
 10
0.0
 20
0.0
 30
0.0
  3
*U10
  1

  0
TEXT
  5
256A8
  8
0
  6
CONTINUOUS
 62
     0
 10
-23.299903408746079
 20
-177.0605995441172
 30
0.0
 40
2.0
  1
25
  0
ENDBLK
  5
256AA
  8
0
 62
     7
  0
BLOCK
  8
0
 62
     7
  2
*U11
 70
     1
 10
0.0
 20
0.0
 30
0.0
  3
*U11
  1

  0
TEXT
  5
256AC
  8
0
  6
CONTINUOUS
 62
     0
 10
-22.79990340874609
 20
-172.0605995441172
 30
0.0
 40
2.0
  1
10
  0
ENDBLK
  5
256AE
  8
0
 62
     7
  0
BLOCK
  8
0
 62
     7
  2
*U12
 70
     1
 10
0.0
 20
0.0
 30
0.0
  3
*U12
  1

  0
TEXT
  5
256B0
  8
0
  6
CONTINUOUS
 62
     0
 10
141.58972074843879
 20
-172.0605995441172
 30
0.0
 40
2.0
  1
10
  0
ENDBLK
  5
256B2
  8
0
 62
     7
  0
BLOCK
  8
0
 62
     7
  2
*U13
 70
     1
 10
0.0
 20
0.0
 30
0.0
  3
*U13
  1

  0
TEXT
  5
256B4
  8
0
  6
CONTINUOUS
 62
     0
 10
141.25638741510551
 20
-183.25876475319851
 30
0.0
 40
2.0
  1
60
  0
ENDBLK
  5
256B6
  8
0
 62
     7
  0
BLOCK
  8
0
 62
     7
  2
*U14
 70
     1
 10
0.0
 20
0.0
 30
0.0
  3
*U14
  1

  0
TEXT
  5
256B8
  8
0
  6
CONTINUOUS
 62
     0
 10
141.25638741510551
 20
-177.2642517664564
 30
0.0
 40
2.0
  1
30
  0
ENDBLK
  5
256BA
  8
0
 62
     7
  0
BLOCK
  8
0
 62
     7
  2
*U15
 70
     1
 10
0.0
 20
0.0
 30
0.0
  3
*U15
  1

  0
TEXT
  5
256BC
  8
0
  6
CONTINUOUS
 62
     0
 10
-192.3917983991698
 20
-172.0605995441172
 30
0.0
 40
2.0
  1
10
  0
ENDBLK
  5
256BE
  8
0
 62
     7
  0
BLOCK
  8
0
 62
     7
  2
*U16
 70
     1
 10
0.0
 20
0.0
 30
0.0
  3
*U16
  1

  0
TEXT
  5
256C0
  8
0
  6
CONTINUOUS
 62
     0
 10
-192.8917983991698
 20
-177.0605995441172
 30
0.0
 40
2.0
  1
25
  0
ENDBLK
  5
256C2
  8
0
 62
     7
  0
BLOCK
  8
0
 62
     7
  2
*U17
 70
     1
 10
0.0
 20
0.0
 30
0.0
  3
*U17
  1

  0
TEXT
  5
256C4
  8
0
  6
CONTINUOUS
 62
     0
 10
-192.8917983991698
 20
-182.37240742677079
 30
0.0
 40
2.0
  1
45
  0
ENDBLK
  5
256C6
  8
0
 62
     7
  0
BLOCK
  8
0
 62
     7
  2
*U18
 70
     1
 10
0.0
 20
0.0
 30
0.0
  3
*U18
  1

  0
TEXT
  5
256C8
  8
0
  6
CONTINUOUS
 62
     0
 10
-349.06155769384742
 20
-172.0605995441172
 30
0.0
 40
2.0
  1
10
  0
ENDBLK
  5
256CA
  8
0
 62
     7
  0
BLOCK
  8
0
 62
     7
  2
*U19
 70
     1
 10
0.0
 20
0.0
 30
0.0
  3
*U19
  1

  0
TEXT
  5
256CC
  8
0
  6
CONTINUOUS
 62
     0
 10
-349.39489102718068
 20
-179.87993876002841
 30
0.0
 40
2.0
  1
40
  0
ENDBLK
  5
256CE
  8
0
 62
     7
  0
BLOCK
  8
0
 62
     7
  2
*U20
 70
     1
 10
0.0
 20
0.0
 30
0.0
  3
*U20
  1

  0
TEXT
  5
256D0
  8
0
  6
CONTINUOUS
 62
     0
 10
-349.39489102718068
 20
-177.0605995441172
 30
0.0
 40
2.0
  1
20
  0
ENDBLK
  5
256D2
  8
0
 62
     7
  0
BLOCK
  8
0
 62
     7
  2
*U21
 70
     1
 10
0.0
 20
0.0
 30
0.0
  3
*U21
  1

  0
TEXT
  5
256D4
  8
0
  6
CONTINUOUS
 62
     0
 10
-506.45478988581561
 20
-172.0605995441172
 30
0.0
 40
2.0
  1
8
  0
ENDBLK
  5
256D6
  8
0
 62
     7
  0
BLOCK
  8
0
 62
     7
  2
*U22
 70
     1
 10
0.0
 20
0.0
 30
0.0
  3
*U22
  1

  0
TEXT
  5
256D8
  8
0
  6
CONTINUOUS
 62
     0
 10
-507.12145655248219
 20
-177.0605995441172
 30
0.0
 40
2.0
  1
14
  0
ENDBLK
  5
256DA
  8
0
 62
     7
  0
BLOCK
  8
0
 62
     7
  2
*U23
 70
     1
 10
0.0
 20
0.0
 30
0.0
  3
*U23
  1

  0
TEXT
  5
256DC
  8
0
  6
CONTINUOUS
 62
     0
 10
-507.45478988581527
 20
-179.87993876002841
 30
0.0
 40
2.0
  1
32
  0
ENDBLK
  5
256DE
  8
0
 62
     7
  0
BLOCK
  8
0
 62
     7
  2
*U24
 70
     1
 10
0.0
 20
0.0
 30
0.0
  3
*U24
  1

  0
TEXT
  5
256E0
  8
0
  6
CONTINUOUS
 62
     0
 10
-623.66387096952383
 20
-181.57436909993649
 30
0.0
 40
2.0
  1
28
  0
ENDBLK
  5
256E2
  8
0
 62
     7
  0
BLOCK
  8
0
 62
     7
  2
*U25
 70
     1
 10
0.0
 20
0.0
 30
0.0
  3
*U25
  1

  0
TEXT
  5
256E4
  8
0
  6
CONTINUOUS
 62
     0
 10
-623.33053763619046
 20
-177.0605995441172
 30
0.0
 40
2.0
  1
14
  0
ENDBLK
  5
256E6
  8
0
 62
     7
  0
BLOCK
  8
0
 62
     7
  2
*U26
 70
     1
 10
0.0
 20
0.0
 30
0.0
  3
*U26
  1

  0
TEXT
  5
256E8
  8
0
  6
CONTINUOUS
 62
     0
 10
-622.66387096952383
 20
-172.0605995441172
 30
0.0
 40
2.0
  1
8
  0
ENDBLK
  5
256EA
  8
0
 62
     7
  0
BLOCK
  8
0
 62
     7
  2
*U27
 70
     1
 10
0.0
 20
0.0
 30
0.0
  3
*U27
  1

  0
TEXT
  5
256EC
  8
0
  6
CONTINUOUS
 62
     0
 10
-192.8917983991698
 20
-53.104162155927561
 30
0.0
 40
2.0
  1
25
  0
ENDBLK
  5
256EE
  8
0
 62
     7
  0
BLOCK
  8
0
 62
     7
  2
*U28
 70
     1
 10
0.0
 20
0.0
 30
0.0
  3
*U28
  1

  0
TEXT
  5
256F0
  8
0
  6
CONTINUOUS
 62
     0
 10
-192.3917983991698
 20
-48.104162155927561
 30
0.0
 40
2.0
  1
10
  0
ENDBLK
  5
256F2
  8
0
 62
     7
  0
BLOCK
  8
0
 62
     7
  2
*U29
 70
     1
 10
0.0
 20
0.0
 30
0.0
  3
*U29
  1

  0
TEXT
  5
256F4
  8
0
  6
CONTINUOUS
 62
     0
 10
-192.8917983991698
 20
-58.415970038581222
 30
0.0
 40
2.0
  1
45
  0
ENDBLK
  5
256F6
  8
0
 62
     7
  0
BLOCK
  8
0
 62
     7
  2
*U30
 70
     1
 10
0.0
 20
0.0
 30
0.0
  3
*U30
  1

  0
TEXT
  5
256F8
  8
0
  6
CONTINUOUS
 62
     0
 10
-193.22513173250309
 20
13.5337285312678
 30
0.0
 40
2.0
  1
2.5
  0
ENDBLK
  5
256FA
  8
0
 62
     7
  0
BLOCK
  8
0
 62
     7
  2
*U31
 70
     1
 10
0.0
 20
0.0
 30
0.0
  3
*U31
  1

  0
TEXT
  5
256FC
  8
0
  6
CONTINUOUS
 62
     0
 10
-58.78639334861802
 20
195.0555297887245
 30
0.0
 40
2.0
  1
8.5
 50
90.0
  0
ENDBLK
  5
256FE
  8
0
 62
     7
  0
BLOCK
  8
0
 62
     7
  2
*U32
 70
     1
 10
0.0
 20
0.0
 30
0.0
  3
*U32
  1

  0
TEXT
  5
25700
  8
0
  6
CONTINUOUS
 62
     0
 10
-288.55539546980481
 20
-137.4165298224016
 30
0.0
 40
2.0
  1
\U+22054
 50
17.649974680594848
  0
ENDBLK
  5
25702
  8
0
 62
     7
  0
BLOCK
  8
0
 62
     7
  2
*U33
 70
     1
 10
0.0
 20
0.0
 30
0.0
  3
*U33
  1

  0
TEXT
  5
25704
  8
0
  6
CONTINUOUS
 62
     0
 10
-286.72822436051399
 20
-172.0605995441172
 30
0.0
 40
2.0
  1
2.8
  0
ENDBLK
  5
25706
  8
0
 62
     7
  0
BLOCK
  8
0
 62
     7
  2
*U34
 70
     1
 10
0.0
 20
0.0
 30
0.0
  3
*U34
  1

  0
TEXT
  5
25708
  8
0
  6
CONTINUOUS
 62
     0
 10
215.92305408177219
 20
-177.0605995441172
 30
0.0
 40
2.0
  1
3.8
  0
ENDBLK
  5
2570A
  8
0
 62
     7
  0
BLOCK
  8
0
 62
     7
  2
*U35
 70
     1
 10
0.0
 20
0.0
 30
0.0
  3
*U35
  1

  0
TEXT
  5
2570C
  8
0
  6
CONTINUOUS
 62
     0
 10
206.00638741510551
 20
-182.0605995441172
 30
0.0
 40
2.0
  1
7.5
  0
ENDBLK
  5
2570E
  8
0
 62
     7
  0
BLOCK
  8
0
 62
     7
  2
*U36
 70
     1
 10
0.0
 20
0.0
 30
0.0
  3
*U36
  1

  0
TEXT
  5
25710
  8
0
  6
CONTINUOUS
 62
     0
 10
195.92305408177211
 20
-182.0605995441172
 30
0.0
 40
2.0
  1
1.5
  0
ENDBLK
  5
25712
  8
0
 62
     7
  0
BLOCK
  8
0
 62
     7
  2
*U37
 70
     1
 10
0.0
 20
0.0
 30
0.0
  3
*U37
  1

  0
TEXT
  5
25714
  8
0
  6
CONTINUOUS
 62
     0
 10
213.09588297248121
 20
-137.4165298224016
 30
0.0
 40
2.0
  1
\U+22054
 50
17.64997468059445
  0
ENDBLK
  5
25716
  8
0
 62
     7
  0
BLOCK
  8
0
 62
     7
  2
*U38
 70
     1
 10
0.0
 20
0.0
 30
0.0
  3
*U38
  1

  0
TEXT
  5
25718
  8
0
  6
CONTINUOUS
 62
     0
 10
43.706258815296309
 20
-137.41652982240171
 30
0.0
 40
2.0
  1
\U+22054
 50
17.649974680593939
  0
ENDBLK
  5
2571A
  8
0
 62
     7
  0
BLOCK
  8
0
 62
     7
  2
*U39
 70
     1
 10
0.0
 20
0.0
 30
0.0
  3
*U39
  1

  0
TEXT
  5
2571C
  8
0
  6
CONTINUOUS
 62
     0
 10
26.533429924587239
 20
-177.0605995441172
 30
0.0
 40
2.0
  1
1.5
  0
ENDBLK
  5
2571E
  8
0
 62
     7
  0
BLOCK
  8
0
 62
     7
  2
*U40
 70
     1
 10
0.0
 20
0.0
 30
0.0
  3
*U40
  1

  0
TEXT
  5
25720
  8
0
  6
CONTINUOUS
 62
     0
 10
36.616763257920582
 20
-177.0605995441172
 30
0.0
 40
2.0
  1
7.5
  0
ENDBLK
  5
25722
  8
0
 62
     7
  0
BLOCK
  8
0
 62
     7
  2
*U41
 70
     1
 10
0.0
 20
0.0
 30
0.0
  3
*U41
  1

  0
TEXT
  5
25724
  8
0
  6
CONTINUOUS
 62
     0
 10
46.533429924587267
 20
-172.0605995441172
 30
0.0
 40
2.0
  1
3.8
  0
ENDBLK
  5
25726
  8
0
 62
     7
  0
BLOCK
  8
0
 62
     7
  2
*U42
 70
     1
 10
0.0
 20
0.0
 30
0.0
  3
*U42
  1

  0
TEXT
  5
25728
  8
0
  6
CONTINUOUS
 62
     0
 10
-125.5584650658364
 20
-172.0605995441172
 30
0.0
 40
2.0
  1
3.8
  0
ENDBLK
  5
2572A
  8
0
 62
     7
  0
BLOCK
  8
0
 62
     7
  2
*U43
 70
     1
 10
0.0
 20
0.0
 30
0.0
  3
*U43
  1

  0
TEXT
  5
2572C
  8
0
  6
CONTINUOUS
 62
     0
 10
-135.475131732503
 20
-177.0605995441172
 30
0.0
 40
2.0
  1
7.5
  0
ENDBLK
  5
2572E
  8
0
 62
     7
  0
BLOCK
  8
0
 62
     7
  2
*U44
 70
     1
 10
0.0
 20
0.0
 30
0.0
  3
*U44
  1

  0
TEXT
  5
25730
  8
0
  6
CONTINUOUS
 62
     0
 10
-145.5584650658364
 20
-177.0605995441172
 30
0.0
 40
2.0
  1
1.5
  0
ENDBLK
  5
25732
  8
0
 62
     7
  0
BLOCK
  8
0
 62
     7
  2
*U45
 70
     1
 10
0.0
 20
0.0
 30
0.0
  3
*U45
  1

  0
TEXT
  5
25734
  8
0
  6
CONTINUOUS
 62
     0
 10
-128.3856361751273
 20
-137.4165298224018
 30
0.0
 40
2.0
  1
\U+22054
 50
17.649974680593481
  0
ENDBLK
  5
25736
  8
0
 62
     7
  0
BLOCK
  8
0
 62
     7
  2
*U46
 70
     1
 10
0.0
 20
0.0
 30
0.0
  3
*U46
  1

  0
TEXT
  5
25738
  8
0
  6
CONTINUOUS
 62
     0
 10
-304.72822436051399
 20
-177.0605995441172
 30
0.0
 40
2.0
  1
1.5
  0
ENDBLK
  5
2573A
  8
0
 62
     7
  0
BLOCK
  8
0
 62
     7
  2
*U47
 70
     1
 10
0.0
 20
0.0
 30
0.0
  3
*U47
  1

  0
TEXT
  5
2573C
  8
0
  6
CONTINUOUS
 62
     0
 10
-295.64489102718068
 20
-177.0605995441172
 30
0.0
 40
2.0
  1
5.5
  0
ENDBLK
  5
2573E
  8
0
 62
     7
  0
BLOCK
  8
0
 62
     7
  2
*U48
 70
     1
 10
0.0
 20
0.0
 30
0.0
  3
*U48
  1

  0
TEXT
  5
25740
  8
0
  6
CONTINUOUS
 62
     0
 10
-451.14673154164018
 20
-137.11812310925629
 30
0.0
 40
2.0
  1
\U+22053
 50
23.37206446223713
  0
ENDBLK
  5
25742
  8
0
 62
     7
  0
BLOCK
  8
0
 62
     7
  2
*U49
 70
     1
 10
0.0
 20
0.0
 30
0.0
  3
*U49
  1

  0
TEXT
  5
25744
  8
0
  6
CONTINUOUS
 62
     0
 10
-448.62145655248219
 20
-172.0605995441172
 30
0.0
 40
2.0
  1
2.8
  0
ENDBLK
  5
25746
  8
0
 62
     7
  0
BLOCK
  8
0
 62
     7
  2
*U50
 70
     1
 10
0.0
 20
0.0
 30
0.0
  3
*U50
  1

  0
TEXT
  5
25748
  8
0
  6
CONTINUOUS
 62
     0
 10
-457.53812321914882
 20
-177.0605995441172
 30
0.0
 40
2.0
  1
5.5
  0
ENDBLK
  5
2574A
  8
0
 62
     7
  0
BLOCK
  8
0
 62
     7
  2
*U51
 70
     1
 10
0.0
 20
0.0
 30
0.0
  3
*U51
  1

  0
TEXT
  5
2574C
  8
0
  6
CONTINUOUS
 62
     0
 10
-466.6214565524823
 20
-177.0605995441172
 30
0.0
 40
2.0
  1
1.5
  0
ENDBLK
  5
2574E
  8
0
 62
     7
  0
BLOCK
  8
0
 62
     7
  2
*U52
 70
     1
 10
0.0
 20
0.0
 30
0.0
  3
*U52
  1

  0
TEXT
  5
25750
  8
0
  6
CONTINUOUS
 62
     0
 10
-584.83053763619046
 20
-177.0605995441172
 30
0.0
 40
2.0
  1
1.5
  0
ENDBLK
  5
25752
  8
0
 62
     7
  0
BLOCK
  8
0
 62
     7
  2
*U53
 70
     1
 10
0.0
 20
0.0
 30
0.0
  3
*U53
  1

  0
TEXT
  5
25754
  8
0
  6
CONTINUOUS
 62
     0
 10
-575.74720430285686
 20
-177.0605995441172
 30
0.0
 40
2.0
  1
5.5
  0
ENDBLK
  5
25756
  8
0
 62
     7
  0
BLOCK
  8
0
 62
     7
  2
*U54
 70
     1
 10
0.0
 20
0.0
 30
0.0
  3
*U54
  1

  0
TEXT
  5
25758
  8
0
  6
CONTINUOUS
 62
     0
 10
-566.83053763619046
 20
-172.0605995441172
 30
0.0
 40
2.0
  1
2.8
  0
ENDBLK
  5
2575A
  8
0
 62
     7
  0
BLOCK
  8
0
 62
     7
  2
*U55
 70
     1
 10
0.0
 20
0.0
 30
0.0
  3
*U55
  1

  0
TEXT
  5
2575C
  8
0
  6
CONTINUOUS
 62
     0
 10
-569.35581262534845
 20
-137.11812310925649
 30
0.0
 40
2.0
  1
\U+22053
 50
23.37206446223643
  0
ENDBLK
  5
2575E
  8
0
 62
     7
  0
BLOCK
  8
0
 62
     7
  2
*U56
 70
     1
 10
0.0
 20
0.0
 30
0.0
  3
*U56
  1

  0
TEXT
  5
25760
  8
0
  6
CONTINUOUS
 62
     0
 10
-132.80765344461301
 20
0.6458378440723953
 30
0.0
 40
2.0
  1
8.5
 50
90.0
  0
ENDBLK
  5
25762
  8
0
 62
     7
  0
BLOCK
  8
0
 62
     7
  2
*U57
 70
     1
 10
0.0
 20
0.0
 30
0.0
  3
*U57
  1

  0
TEXT
  5
25764
  8
0
  6
CONTINUOUS
 62
     0
 10
-128.3856361751273
 20
-13.460092434212021
 30
0.0
 40
2.0
  1
\U+22054
 50
17.649974680593839
  0
ENDBLK
  5
25766
  8
0
 62
     7
  0
BLOCK
  8
0
 62
     7
  2
*U58
 70
     1
 10
0.0
 20
0.0
 30
0.0
  3
*U58
  1

  0
TEXT
  5
25768
  8
0
  6
CONTINUOUS
 62
     0
 10
-145.5584650658364
 20
-53.104162155927561
 30
0.0
 40
2.0
  1
1.5
  0
ENDBLK
  5
2576A
  8
0
 62
     7
  0
BLOCK
  8
0
 62
     7
  2
*U59
 70
     1
 10
0.0
 20
0.0
 30
0.0
  3
*U59
  1

  0
TEXT
  5
2576C
  8
0
  6
CONTINUOUS
 62
     0
 10
-135.475131732503
 20
-53.104162155927561
 30
0.0
 40
2.0
  1
7.5
  0
ENDBLK
  5
2576E
  8
0
 62
     7
  0
BLOCK
  8
0
 62
     7
  2
*U60
 70
     1
 10
0.0
 20
0.0
 30
0.0
  3
*U60
  1

  0
TEXT
  5
25770
  8
0
  6
CONTINUOUS
 62
     0
 10
-125.5584650658364
 20
-48.104162155927561
 30
0.0
 40
2.0
  1
3.8
  0
ENDBLK
  5
25772
  8
0
 62
     7
  0
BLOCK
  8
0
 62
     7
  2
*U61
 70
     1
 10
0.0
 20
0.0
 30
0.0
  3
*U61
  1

  0
TEXT
  5
25774
  8
0
  6
CONTINUOUS
 62
     0
 10
-123.470043316111
 20
66.161805999886241
 30
0.0
 40
2.0
  1
3.8
  0
ENDBLK
  5
25776
  8
0
 62
     7
  0
BLOCK
  8
0
 62
     7
  2
*U62
 70
     1
 10
0.0
 20
0.0
 30
0.0
  3
*U62
  1

  0
TEXT
  5
25778
  8
0
  6
CONTINUOUS
 62
     0
 10
-133.38670998277769
 20
61.161805999886241
 30
0.0
 40
2.0
  1
7.5
  0
ENDBLK
  5
2577A
  8
0
 62
     7
  0
BLOCK
  8
0
 62
     7
  2
*U63
 70
     1
 10
0.0
 20
0.0
 30
0.0
  3
*U63
  1

  0
TEXT
  5
2577C
  8
0
  6
CONTINUOUS
 62
     0
 10
-143.47004331611109
 20
61.161805999886241
 30
0.0
 40
2.0
  1
1.5
  0
ENDBLK
  5
2577E
  8
0
 62
     7
  0
BLOCK
  8
0
 62
     7
  2
*U64
 70
     1
 10
0.0
 20
0.0
 30
0.0
  3
*U64
  1

  0
TEXT
  5
25780
  8
0
  6
CONTINUOUS
 62
     0
 10
-126.2972144254018
 20
100.80587572160179
 30
0.0
 40
2.0
  1
\U+22054
 50
17.649974680593839
  0
ENDBLK
  5
25782
  8
0
 62
     7
  0
BLOCK
  8
0
 62
     7
  2
*U65
 70
     1
 10
0.0
 20
0.0
 30
0.0
  3
*U65
  1

  0
TEXT
  5
25784
  8
0
  6
CONTINUOUS
 62
     0
 10
-192.3033766494444
 20
56.161805999886241
 30
0.0
 40
2.0
  1
D
  0
ENDBLK
  5
25786
  8
0
 62
     7
  0
BLOCK
  8
0
 62
     7
  2
*U66
 70
     1
 10
0.0
 20
0.0
 30
0.0
  3
*U66
  1

  0
TEXT
  5
25788
  8
0
  6
CONTINUOUS
 62
     0
 10
-192.3033766494444
 20
61.161805999886241
 30
0.0
 40
2.0
  1
B
  0
ENDBLK
  5
2578A
  8
0
 62
     7
  0
BLOCK
  8
0
 62
     7
  2
*U67
 70
     1
 10
0.0
 20
0.0
 30
0.0
  3
*U67
  1

  0
TEXT
  5
2578C
  8
0
  6
CONTINUOUS
 62
     0
 10
-192.3033766494444
 20
66.161805999886255
 30
0.0
 40
2.0
  1
P
  0
ENDBLK
  5
2578E
  8
0
 62
     7
  0
BLOCK
  8
0
 62
     7
  2
*U68
 70
     1
 10
0.0
 20
0.0
 30
0.0
  3
*U68
  1

  0
TEXT
  5
25790
  8
0
  6
CONTINUOUS
 62
     0
 10
-206.41708555775651
 20
112.4993725333095
 30
0.0
 40
2.0
  1
Z
 50
45.0
  0
ENDBLK
  5
25792
  8
0
 62
     7
  0
BLOCK
  8
0
 62
     7
  2
*U69
 70
     1
 10
0.0
 20
0.0
 30
0.0
  3
*U69
  1

  0
TEXT
  5
25794
  8
0
  6
CONTINUOUS
 62
     0
 10
236.20890925519851
 20
-181.8136458434407
 30
0.0
 40
2.0
  1
t
  0
ENDBLK
  5
25796
  8
0
 62
     7
  0
BLOCK
  8
0
 62
     7
  2
*U70
 70
     1
 10
0.0
 20
0.0
 30
0.0
  3
*U70
  1

  0
TEXT
  5
25798
  8
0
  6
CONTINUOUS
 62
     0
 10
245.62557592186519
 20
-181.8136458434407
 30
0.0
 40
2.0
  1
A
  0
ENDBLK
  5
2579A
  8
0
 62
     7
  0
BLOCK
  8
0
 62
     7
  2
*U71
 70
     1
 10
0.0
 20
0.0
 30
0.0
  3
*U71
  1

  0
TEXT
  5
2579C
  8
0
  6
CONTINUOUS
 62
     0
 10
253.54224258853191
 20
-176.81364584344081
 30
0.0
 40
2.0
  1
A/2
  0
ENDBLK
  5
2579E
  8
0
 62
     7
  0
BLOCK
  8
0
 62
     7
  2
*U72
 70
     1
 10
0.0
 20
0.0
 30
0.0
  3
*U72
  1

  0
TEXT
  5
257A0
  8
0
  6
CONTINUOUS
 62
     0
 10
306.32904435642018
 20
-111.8449153991431
 30
0.0
 40
2.0
  1
S
  0
ENDBLK
  5
257A2
  8
0
 62
     7
  0
BLOCK
  8
0
 62
     7
  2
*U73
 70
     1
 10
0.0
 20
0.0
 30
0.0
  3
*U73
  1

  0
TEXT
  5
257A4
  8
0
  6
CONTINUOUS
 62
     0
 10
319.56076725143322
 20
-117.1275438666282
 30
0.0
 40
2.0
  1
C
 50
90.0
  0
ENDBLK
  5
257A6
  8
0
 62
     7
  0
BLOCK
  8
0
 62
     7
  2
*U74
 70
     1
 10
0.0
 20
0.0
 30
0.0
  3
*U74
  1

  0
TEXT
  5
257A8
  8
0
  6
CONTINUOUS
 62
     0
 10
306.32904435642013
 20
-176.81364584344081
 30
0.0
 40
2.0
  1
P
  0
ENDBLK
  5
257AA
  8
0
 62
     7
  0
BLOCK
  8
0
 62
     7
  2
*U75
 70
     1
 10
0.0
 20
0.0
 30
0.0
  3
*U75
  1

  0
TEXT
  5
257AC
  8
0
  6
CONTINUOUS
 62
     0
 10
306.32904435642013
 20
-181.8136458434407
 30
0.0
 40
2.0
  1
B
  0
ENDBLK
  5
257AE
  8
0
 62
     7
  0
BLOCK
  8
0
 62
     7
  2
*U76
 70
     1
 10
0.0
 20
0.0
 30
0.0
  3
*U76
  1

  0
TEXT
  5
257B0
  8
0
  6
CONTINUOUS
 62
     0
 10
306.32904435642013
 20
-186.81364584344081
 30
0.0
 40
2.0
  1
D
  0
ENDBLK
  5
257B2
  8
0
 62
     7
  0
BLOCK
  8
0
 62
     7
  2
*U77
 70
     1
 10
0.0
 20
0.0
 30
0.0
  3
*U77
  1

  0
TEXT
  5
257B4
  8
0
  6
CONTINUOUS
 62
     0
 10
376.32904435642018
 20
-111.8449153991431
 30
0.0
 40
2.0
  1
S
  0
ENDBLK
  5
257B6
  8
0
 62
     7
  0
BLOCK
  8
0
 62
     7
  2
*U78
 70
     1
 10
0.0
 20
0.0
 30
0.0
  3
*U78
  1

  0
TEXT
  5
257B8
  8
0
  6
CONTINUOUS
 62
     0
 10
389.56076725143299
 20
-117.1275438666282
 30
0.0
 40
2.0
  1
C
 50
90.0
  0
ENDBLK
  5
257BA
  8
0
 62
     7
  0
BLOCK
  8
0
 62
     7
  2
*U79
 70
     1
 10
0.0
 20
0.0
 30
0.0
  3
*U79
  1

  0
TEXT
  5
257BC
  8
0
  6
CONTINUOUS
 62
     0
 10
376.32904435642013
 20
-176.81364584344081
 30
0.0
 40
2.0
  1
P
  0
ENDBLK
  5
257BE
  8
0
 62
     7
  0
BLOCK
  8
0
 62
     7
  2
*U80
 70
     1
 10
0.0
 20
0.0
 30
0.0
  3
*U80
  1

  0
TEXT
  5
257C0
  8
0
  6
CONTINUOUS
 62
     0
 10
376.32904435642013
 20
-181.8136458434407
 30
0.0
 40
2.0
  1
B
  0
ENDBLK
  5
257C2
  8
0
 62
     7
  0
BLOCK
  8
0
 62
     7
  2
*U81
 70
     1
 10
0.0
 20
0.0
 30
0.0
  3
*U81
  1

  0
TEXT
  5
257C4
  8
0
  6
CONTINUOUS
 62
     0
 10
376.32904435642013
 20
-186.81364584344081
 30
0.0
 40
2.0
  1
D
  0
ENDBLK
  5
257C6
  8
0
 62
     7
  0
BLOCK
  8
0
 62
     7
  2
*U82
 70
     1
 10
0.0
 20
0.0
 30
0.0
  3
*U82
  1

  0
TEXT
  5
257C8
  8
0
  6
CONTINUOUS
 62
     0
 10
411.39571102308679
 20
-141.73031251009419
 30
0.0
 40
2.0
  1
Z
 50
90.0
  0
ENDBLK
  5
257CA
  8
0
 62
     7
  0
BLOCK
  8
0
 62
     7
  2
*U83
 70
     1
 10
0.0
 20
0.0
 30
0.0
  3
*U83
  1

  0
TEXT
  5
257CC
  8
0
  6
CONTINUOUS
 62
     0
 10
370.4623776897534
 20
-130.3383789527023
 30
0.0
 40
2.0
  1
b
  0
ENDBLK
  5
257CE
  8
0
 62
     7
  0
BLOCK
  8
0
 62
     7
  2
*U84
 70
     1
 10
0.0
 20
0.0
 30
0.0
  3
*U84
  1

  0
TEXT
  5
257D0
  8
0
  6
CONTINUOUS
 62
     7
 10
157.84858888404759
 20
-17.68338319332825
 30
0.0
 40
3.0
  1
\U+25A0キー逃がし溝付タイプ
  0
ENDBLK
  5
257D2
  8
0
 62
     7
  0
BLOCK
  8
0
 62
     7
  2
*U85
 70
     1
 10
0.0
 20
0.0
 30
0.0
  3
*U85
  1

  0
TEXT
  5
257D4
  8
0
  6
CONTINUOUS
 62
     7
 10
87.848588884047686
 20
-17.68338319332825
 30
0.0
 40
3.0
  1
\U+25A0スリット幅固定タイプ
  0
ENDBLK
  5
257D6
  8
0
 62
     7
  0
BLOCK
  8
0
 62
     7
  2
*U86
 70
     1
 10
0.0
 20
0.0
 30
0.0
  3
*U86
  1

  0
TEXT
  5
257D8
  8
0
  6
CONTINUOUS
 62
     7
 10
60.826708303595829
 20
-48.376681103926593
 30
0.0
 40
2.0
  1
2-M止めネジ付
  0
ENDBLK
  5
257DA
  8
0
 62
     7
  0
BLOCK
  8
0
 62
     7
  2
*U87
 70
     1
 10
0.0
 20
0.0
 30
0.0
  3
*U87
  1

  0
SOLID
  5
257DC
  8
0
  6
CONTINUOUS
 62
     7
 10
-53.532383269899697
 20
-59.706968003912699
 30
0.0
 11
-53.470011165754173
 21
-59.878460629481452
 31
0.0
 12
-53.584631034724943
 22
-59.736466666098757
 32
0.0
 13
-53.584631034724943
 23
-59.736466666098757
 33
0.0
210
0.0
220
0.0
230
-1.0
  0
POLYLINE
  5
257DD
  8
0
  6
CONTINUOUS
 62
     7
 66
     1
 10
0.0
 20
0.0
 30
0.0
210
0.0
220
0.0
230
-1.0
  0
VERTEX
  5
25ED9
  8
0
  6
CONTINUOUS
 62
     7
 10
-53.558507152312309
 20
-59.721717335005721
 30
0.0
  0
VERTEX
  5
25EDA
  8
0
  6
CONTINUOUS
 62
     7
 10
-59.681526218220171
 20
-48.8766811039266
 30
0.0
  0
VERTEX
  5
25EDB
  8
0
  6
CONTINUOUS
 62
     7
 10
-79.633862896436654
 20
-48.8766811039266
 30
0.0
  0
SEQEND
  5
25EDC
  8
0
  6
CONTINUOUS
 62
     7
  0
ENDBLK
  5
257E3
  8
0
 62
     7
  0
BLOCK
  8
0
 62
     7
  2
*U88
 70
     1
 10
0.0
 20
0.0
 30
0.0
  3
*U88
  1

  0
TEXT
  5
257E5
  8
0
  6
CONTINUOUS
 62
     0
 10
-447.02087793971327
 20
-20.024893410529561
 30
0.0
 40
2.0
  1
D
  0
ENDBLK
  5
257E7
  8
0
 62
     7
  0
BLOCK
  8
0
 62
     7
  2
*U89
 70
     1
 10
0.0
 20
0.0
 30
0.0
  3
*U89
  1

  0
TEXT
  5
257E9
  8
0
  6
CONTINUOUS
 62
     0
 10
-447.02087793971327
 20
-15.024893410529559
 30
0.0
 40
2.0
  1
B
  0
ENDBLK
  5
257EB
  8
0
 62
     7
  0
BLOCK
  8
0
 62
     7
  2
*U90
 70
     1
 10
0.0
 20
0.0
 30
0.0
  3
*U90
  1

  0
TEXT
  5
257ED
  8
0
  6
CONTINUOUS
 62
     0
 10
-447.02087793971327
 20
-10.024893410529559
 30
0.0
 40
2.0
  1
P
  0
ENDBLK
  5
257EF
  8
0
 62
     7
  0
BLOCK
  8
0
 62
     7
  2
*U91
 70
     1
 10
0.0
 20
0.0
 30
0.0
  3
*U91
  1

  0
TEXT
  5
257F1
  8
0
  6
CONTINUOUS
 62
     0
 10
-433.78915504470001
 20
49.661208566282959
 30
0.0
 40
2.0
  1
C
 50
90.0
  0
ENDBLK
  5
257F3
  8
0
 62
     7
  0
BLOCK
  8
0
 62
     7
  2
*U92
 70
     1
 10
0.0
 20
0.0
 30
0.0
  3
*U92
  1

  0
TEXT
  5
257F5
  8
0
  6
CONTINUOUS
 62
     0
 10
-447.02087793971322
 20
54.943837033768112
 30
0.0
 40
2.0
  1
S
  0
ENDBLK
  5
257F7
  8
0
 62
     7
  0
BLOCK
  8
0
 62
     7
  2
*U93
 70
     1
 10
0.0
 20
0.0
 30
0.0
  3
*U93
  1

  0
TEXT
  5
257F9
  8
0
  6
CONTINUOUS
 62
     0
 10
-499.80767970760161
 20
-10.024893410529559
 30
0.0
 40
2.0
  1
A/2
  0
ENDBLK
  5
257FB
  8
0
 62
     7
  0
BLOCK
  8
0
 62
     7
  2
*U94
 70
     1
 10
0.0
 20
0.0
 30
0.0
  3
*U94
  1

  0
TEXT
  5
257FD
  8
0
  6
CONTINUOUS
 62
     0
 10
-507.7243463742679
 20
-15.024893410529559
 30
0.0
 40
2.0
  1
A
  0
ENDBLK
  5
257FF
  8
0
 62
     7
  0
BLOCK
  8
0
 62
     7
  2
*U95
 70
     1
 10
0.0
 20
0.0
 30
0.0
  3
*U95
  1

  0
TEXT
  5
25801
  8
0
  6
CONTINUOUS
 62
     0
 10
-517.14101304093481
 20
-15.024893410529559
 30
0.0
 40
2.0
  1
t
  0
ENDBLK
  5
25803
  8
0
 62
     7
  0
BLOCK
  8
0
 62
     7
  2
*U96
 70
     1
 10
0.0
 20
0.0
 30
0.0
  3
*U96
  1

  0
TEXT
  5
25805
  8
0
  6
CONTINUOUS
 62
     0
 10
-311.01471571567072
 20
24.619176311185971
 30
0.0
 40
2.0
  1
\U+22054
 50
17.649974680593719
  0
ENDBLK
  5
25807
  8
0
 62
     7
  0
BLOCK
  8
0
 62
     7
  2
*U97
 70
     1
 10
0.0
 20
0.0
 30
0.0
  3
*U97
  1

  0
TEXT
  5
25809
  8
0
  6
CONTINUOUS
 62
     0
 10
-383.88754460638
 20
36.450373480208953
 30
0.0
 40
2.0
  1
1.4
  0
ENDBLK
  5
2580B
  8
0
 62
     7
  0
BLOCK
  8
0
 62
     7
  2
*U98
 70
     1
 10
0.0
 20
0.0
 30
0.0
  3
*U98
  1

  0
TEXT
  5
2580D
  8
0
  6
CONTINUOUS
 62
     0
 10
-341.95421127304661
 20
23.725106589483691
 30
0.0
 40
2.0
  1
6.5
 50
90.0
  0
ENDBLK
  5
2580F
  8
0
 62
     7
  0
BLOCK
  8
0
 62
     7
  2
*U99
 70
     1
 10
0.0
 20
0.0
 30
0.0
  3
*U99
  1

  0
TEXT
  5
25811
  8
0
  6
CONTINUOUS
 62
     0
 10
-315.35421127304647
 20
-15.024893410529559
 30
0.0
 40
2.0
  1
11
  0
ENDBLK
  5
25813
  8
0
 62
     7
  0
BLOCK
  8
0
 62
     7
  2
*U100
 70
     1
 10
0.0
 20
0.0
 30
0.0
  3
*U100
  1

  0
TEXT
  5
25815
  8
0
  6
CONTINUOUS
 62
     0
 10
-328.1875446063799
 20
-15.024893410529559
 30
0.0
 40
2.0
  1
1.5
  0
ENDBLK
  5
25817
  8
0
 62
     7
  0
BLOCK
  8
0
 62
     7
  2
*U101
 70
     1
 10
0.0
 20
0.0
 30
0.0
  3
*U101
  1

  0
TEXT
  5
25819
  8
0
  6
CONTINUOUS
 62
     0
 10
-315.43673298515648
 20
42.225106589523399
 30
0.0
 40
2.0
  1
6.5
 50
90.0
  0
ENDBLK
  5
2581B
  8
0
 62
     7
  0
BLOCK
  8
0
 62
     7
  2
*U102
 70
     1
 10
0.0
 20
0.0
 30
0.0
  3
*U102
  1

  0
TEXT
  5
2581D
  8
0
  6
CONTINUOUS
 62
     0
 10
-377.8542112730467
 20
-20.024893410529561
 30
0.0
 40
2.0
  1
50
  0
ENDBLK
  5
2581F
  8
0
 62
     7
  0
BLOCK
  8
0
 62
     7
  2
*U103
 70
     1
 10
0.0
 20
0.0
 30
0.0
  3
*U103
  1

  0
TEXT
  5
25821
  8
0
  6
CONTINUOUS
 62
     0
 10
-377.68754460638002
 20
-15.024893410529559
 30
0.0
 40
2.0
  1
31
  0
ENDBLK
  5
25823
  8
0
 62
     7
  0
BLOCK
  8
0
 62
     7
  2
*U104
 70
     1
 10
0.0
 20
0.0
 30
0.0
  3
*U104
  1

  0
TEXT
  5
25825
  8
0
  6
CONTINUOUS
 62
     0
 10
-377.52087793971327
 20
-10.024893410529559
 30
0.0
 40
2.0
  1
10
  0
ENDBLK
  5
25827
  8
0
 62
     7
  0
BLOCK
  8
0
 62
     7
  2
*U105
 70
     1
 10
0.0
 20
0.0
 30
0.0
  3
*U105
  1

  0
TEXT
  5
25829
  8
0
  6
CONTINUOUS
 62
     0
 10
-363.78915504470041
 20
51.443837033768062
 30
0.0
 40
2.0
  1
6.5
 50
90.0
  0
ENDBLK
  5
2582B
  8
0
 62
     7
  0
BLOCK
  8
0
 62
     7
  2
*U106
 70
     1
 10
0.0
 20
0.0
 30
0.0
  3
*U106
  1

  0
TEXT
  5
2582D
  8
0
  6
CONTINUOUS
 62
     0
 10
-378.35421127304659
 20
54.943837033768112
 30
0.0
 40
2.0
  1
2.5
  0
ENDBLK
  5
2582F
  8
0
 62
     7
  0
BLOCK
  8
0
 62
     7
  2
*U107
 70
     1
 10
0.0
 20
0.0
 30
0.0
  3
*U107
  1

  0
TEXT
  5
25831
  8
0
  6
CONTINUOUS
 62
     0
 10
-303.1875446063799
 20
-10.024893410529559
 30
0.0
 40
2.0
  1
4.75
  0
ENDBLK
  5
25833
  8
0
 62
     7
  0
ENDSEC
  0
SECTION
  2
ENTITIES
  0
LINE
  5
252B3
  8
0
  6
CONTINUOUS
 62
     7
 10
-377.6042112730467
 20
40.943837033768133
 30
0.0
 11
-375.1042112730467
 21
40.943837033768133
 31
0.0
  0
LINE
  5
252B5
  8
0
  6
DASHED
 62
     3
 10
-363.25421127304662
 20
30.760032660380151
 30
0.0
 11
-363.25421127304662
 21
23.166892170724449
 31
0.0
  0
LINE
  5
252B6
  8
0
  6
DASHED
 62
     3
 10
-366.45421127304661
 20
34.401547802197371
 30
0.0
 11
-366.45421127304672
 21
23.166892170717858
 31
0.0
  0
LINE
  5
252B7
  8
0
  6
DASHED
 62
     3
 10
-366.8542112730467
 20
34.722555303412811
 30
0.0
 11
-366.8542112730467
 21
23.225106589496932
 31
0.0
  0
LINE
  5
252B8
  8
0
  6
DASHED
 62
     3
 10
-362.8542112730467
 20
30.090879695360801
 30
0.0
 11
-362.8542112730467
 21
23.225106589505689
 31
0.0
  0
LINE
  5
252B9
  8
0
  6
CONTINUOUS
 62
     7
 10
-377.6042112730467
 20
47.443837033768112
 30
0.0
 11
-377.6042112730467
 21
40.943837033768133
 31
0.0
  0
LINE
  5
252BA
  8
0
  6
CONTINUOUS
 62
     7
 10
-375.1042112730467
 20
47.443837033768112
 30
0.0
 11
-375.1042112730467
 21
40.943837033768133
 31
0.0
  0
LINE
  5
252C0
  8
CENTER
  6
CENTER
 62
     1
 10
-376.35421127304659
 20
49.975106589470329
 30
0.0
 11
-376.35421127304659
 21
-5.0248934105295531
 31
0.0
  0
ARC
  5
252C1
  8
0
  6
CONTINUOUS
 62
     7
 10
-376.35421127304659
 20
22.475106589470411
 30
0.0
 40
25.0
 50
92.865983982602785
 51
87.134016017397215
  0
TEXT
  5
2544B
  8
0
  6
CONTINUOUS
 62
     7
 10
-431.35421127304647
 20
-27.52489341052955
 30
0.0
 40
3.0
  1
HPSCC50
  0
TEXT
  5
2544C
  8
0
  6
CONTINUOUS
 62
     7
 10
-431.35421127304647
 20
-22.52489341052955
 30
0.0
 40
3.0
  1
HPSCC50-10
  0
LINE
  5
2544E
  8
0
  6
DASHED
 62
     3
 10
-321.3542112730463
 20
40.975106589523442
 30
0.0
 11
-322.85421127304642
 21
40.975106589523442
 31
0.0
  0
LINE
  5
25454
  8
0
  6
CONTINUOUS
 62
     7
 10
-321.3542112730463
 20
47.475106589523449
 30
0.0
 11
-322.85421127304642
 21
47.475106589523449
 31
0.0
  0
LINE
  5
25455
  8
CENTER
  6
CENTER
 62
     1
 10
-329.10421127304642
 20
36.781574603849492
 30
0.0
 11
-329.10421127304642
 21
6.0518839677256224
 31
0.0
  0
LINE
  5
25457
  8
0
  6
DASHED
 62
     3
 10
-321.3542112730463
 20
17.475106589470411
 30
0.0
 11
-333.8542112730463
 21
17.475106589470411
 31
0.0
  0
LINE
  5
25458
  8
0
  6
DASHED
 62
     3
 10
-321.3542112730463
 20
27.475106589470411
 30
0.0
 11
-333.8542112730463
 21
27.475106589470411
 31
0.0
  0
LINE
  5
2545A
  8
0
  6
CONTINUOUS
 62
     7
 10
-322.85421127304642
 20
37.975106589496932
 30
0.0
 11
-333.8542112730463
 21
37.975106589496932
 31
0.0
  0
LINE
  5
2545B
  8
CENTER
  6
CENTER
 62
     1
 10
-319.85421127304642
 20
22.475106589496932
 30
0.0
 11
-335.35421127304642
 21
22.475106589496932
 31
0.0
  0
LINE
  5
2545C
  8
0
  6
CONTINUOUS
 62
     7
 10
-321.3542112730463
 20
-2.524893410529585
 30
0.0
 11
-322.85421127304642
 21
-2.524893410529585
 31
0.0
  0
LINE
  5
2545D
  8
0
  6
CONTINUOUS
 62
     7
 10
-324.35421127304619
 20
6.975106589496928
 30
0.0
 11
-333.8542112730463
 21
6.975106589496928
 31
0.0
  0
LINE
  5
2545E
  8
0
  6
CONTINUOUS
 62
     7
 10
-322.85421127304642
 20
47.475106589523449
 30
0.0
 11
-322.85421127304642
 21
-2.524893410529585
 31
0.0
  0
LINE
  5
2545F
  8
0
  6
CONTINUOUS
 62
     7
 10
-321.3542112730463
 20
47.475106589523449
 30
0.0
 11
-321.3542112730463
 21
-2.524893410529585
 31
0.0
  0
LINE
  5
25460
  8
0
  6
CONTINUOUS
 62
     7
 10
-333.8542112730463
 20
37.975106589496932
 30
0.0
 11
-333.8542112730463
 21
6.975106589496928
 31
0.0
  0
ARC
  5
2554B
  8
0
  6
CONTINUOUS
 62
     7
 10
-376.35421127304659
 20
22.475106589496932
 30
0.0
 40
5.0
 50
8.626926558678635
 51
351.37307344132142
  0
CIRCLE
  5
2555F
  8
0
  6
CONTINUOUS
 62
     7
 10
-376.35421127304659
 20
22.475106589496932
 30
0.0
 40
15.5
  0
LINE
  5
255C7
  8
0
  6
CONTINUOUS
 62
     7
 10
-371.41078128972532
 20
23.225106589496932
 30
0.0
 11
-360.87236706765572
 21
23.225106589496932
 31
0.0
  0
LINE
  5
255C8
  8
0
  6
CONTINUOUS
 62
     7
 10
-371.41078128972532
 20
21.725106589496932
 30
0.0
 11
-360.87236706765572
 21
21.725106589496932
 31
0.0
  0
LINE
  5
255CB
  8
CENTER
  6
CENTER
 62
     1
 10
-364.8542112730467
 20
36.966483335686348
 30
0.0
 11
-364.8542112730467
 21
7.9837298433074944
 31
0.0
  0
LINE
  5
255CE
  8
CENTER
  6
CENTER
 62
     1
 10
-404.35421127304659
 20
22.475106589496932
 30
0.0
 11
-348.3542112730467
 21
22.475106589496932
 31
0.0
  0
LINE
  5
255CF
  8
0
  6
DASHED
 62
     3
 10
-368.60421127304659
 20
17.675106589496931
 30
0.0
 11
-361.61616526959023
 21
17.675106589496931
 31
0.0
  0
LINE
  5
255D0
  8
0
  6
DASHED
 62
     3
 10
-368.60421127304659
 20
17.675106589496931
 30
0.0
 11
-368.60421127304659
 21
9.0517128308381274
 31
0.0
  0
LINE
  5
255D1
  8
0
  6
DASHED
 62
     3
 10
-367.1042112730467
 20
17.675106589496931
 30
0.0
 11
-367.1042112730467
 21
21.725106589496932
 31
0.0
  0
LINE
  5
255D2
  8
0
  6
DASHED
 62
     3
 10
-362.6042112730467
 20
17.675106589496931
 30
0.0
 11
-362.6042112730467
 21
21.725106589496932
 31
0.0
  0
LINE
  5
2562C
  8
0
  6
CONTINUOUS
 62
     7
 10
-324.35421127304619
 20
23.225106589496932
 30
0.0
 11
-333.8542112730463
 21
23.225106589496932
 31
0.0
  0
LINE
  5
2562D
  8
0
  6
CONTINUOUS
 62
     7
 10
-324.35421127304619
 20
21.725106589496932
 30
0.0
 11
-333.8542112730463
 21
21.725106589496932
 31
0.0
  0
LINE
  5
2562E
  8
0
  6
DASHED
 62
     3
 10
-327.10421127304642
 20
32.406717499386801
 30
0.0
 11
-327.10421127304642
 21
23.225106589496932
 31
0.0
  0
LINE
  5
25630
  8
0
  6
DASHED
 62
     3
 10
-331.10421127304642
 20
32.406717499386801
 30
0.0
 11
-331.10421127304642
 21
23.225106589505689
 31
0.0
  0
LINE
  5
25631
  8
0
  6
DASHED
 62
     3
 10
-330.70421127304638
 20
32.580790231288759
 30
0.0
 11
-330.70421127304638
 21
23.166892170724449
 31
0.0
  0
LINE
  5
25632
  8
0
  6
DASHED
 62
     3
 10
-331.35421127304642
 20
17.675106589496931
 30
0.0
 11
-331.35421127304642
 21
21.725106589496932
 31
0.0
  0
LINE
  5
25633
  8
0
  6
DASHED
 62
     3
 10
-326.8542112730463
 20
17.675106589496931
 30
0.0
 11
-326.8542112730463
 21
21.725106589496932
 31
0.0
  0
LINE
  5
25634
  8
0
  6
DASHED
 62
     3
 10
-325.35421127304642
 20
17.675106589496931
 30
0.0
 11
-325.35421127304642
 21
13.263409710154271
 31
0.0
  0
LINE
  5
25635
  8
0
  6
DASHED
 62
     3
 10
-325.35421127304642
 20
17.675106589496931
 30
0.0
 11
-332.85421127304642
 21
17.675106589496931
 31
0.0
  0
POLYLINE
  5
2563A
  8
0
  6
CONTINUOUS
 62
     3
 66
     1
 10
0.0
 20
0.0
 30
0.0
 70
     8
  0
VERTEX
  5
25834
  8
0
 62
     3
 10
-329.10442254609279
 20
34.7226
 30
0.0
 70
    32
  0
VERTEX
  5
25835
  8
0
 62
     3
 10
-329.00642254609289
 20
34.719799999999999
 30
0.0
 70
    32
  0
VERTEX
  5
25836
  8
0
 62
     3
 10
-328.90842254609288
 20
34.711399999999998
 30
0.0
 70
    32
  0
VERTEX
  5
25837
  8
0
 62
     3
 10
-328.81042254609292
 20
34.697499999999998
 30
0.0
 70
    32
  0
VERTEX
  5
25838
  8
0
 62
     3
 10
-328.71442254609292
 20
34.678100000000001
 30
0.0
 70
    32
  0
VERTEX
  5
25839
  8
0
 62
     3
 10
-328.61842254609292
 20
34.653199999999998
 30
0.0
 70
    32
  0
VERTEX
  5
2583A
  8
0
 62
     3
 10
-328.52342254609289
 20
34.622799999999998
 30
0.0
 70
    32
  0
VERTEX
  5
2583B
  8
0
 62
     3
 10
-328.43042254609293
 20
34.587200000000003
 30
0.0
 70
    32
  0
VERTEX
  5
2583C
  8
0
 62
     3
 10
-328.33842254609289
 20
34.546300000000002
 30
0.0
 70
    32
  0
VERTEX
  5
2583D
  8
0
 62
     3
 10
-328.24942254609289
 20
34.5002
 30
0.0
 70
    32
  0
VERTEX
  5
2583E
  8
0
 62
     3
 10
-328.16142254609292
 20
34.449100000000001
 30
0.0
 70
    32
  0
VERTEX
  5
2583F
  8
0
 62
     3
 10
-328.07642254609289
 20
34.393099999999997
 30
0.0
 70
    32
  0
VERTEX
  5
25840
  8
0
 62
     3
 10
-327.9934225460928
 20
34.332299999999996
 30
0.0
 70
    32
  0
VERTEX
  5
25841
  8
0
 62
     3
 10
-327.9124225460929
 20
34.266800000000011
 30
0.0
 70
    32
  0
VERTEX
  5
25842
  8
0
 62
     3
 10
-327.8354225460929
 20
34.196899999999999
 30
0.0
 70
    32
  0
VERTEX
  5
25843
  8
0
 62
     3
 10
-327.76142254609289
 20
34.122599999999998
 30
0.0
 70
    32
  0
VERTEX
  5
25844
  8
0
 62
     3
 10
-327.69042254609292
 20
34.0443
 30
0.0
 70
    32
  0
VERTEX
  5
25845
  8
0
 62
     3
 10
-327.62242254609288
 20
33.9619
 30
0.0
 70
    32
  0
VERTEX
  5
25846
  8
0
 62
     3
 10
-327.5584225460928
 20
33.875900000000001
 30
0.0
 70
    32
  0
VERTEX
  5
25847
  8
0
 62
     3
 10
-327.49742254609288
 20
33.786299999999997
 30
0.0
 70
    32
  0
VERTEX
  5
25848
  8
0
 62
     3
 10
-327.44142254609289
 20
33.693300000000001
 30
0.0
 70
    32
  0
VERTEX
  5
25849
  8
0
 62
     3
 10
-327.3884225460929
 20
33.597299999999997
 30
0.0
 70
    32
  0
VERTEX
  5
2584A
  8
0
 62
     3
 10
-327.3404225460929
 20
33.498399999999997
 30
0.0
 70
    32
  0
VERTEX
  5
2584B
  8
0
 62
     3
 10
-327.29642254609291
 20
33.396900000000002
 30
0.0
 70
    32
  0
VERTEX
  5
2584C
  8
0
 62
     3
 10
-327.25642254609289
 20
33.292999999999999
 30
0.0
 70
    32
  0
VERTEX
  5
2584D
  8
0
 62
     3
 10
-327.22142254609281
 20
33.186900000000001
 30
0.0
 70
    32
  0
VERTEX
  5
2584E
  8
0
 62
     3
 10
-327.19042254609292
 20
33.079000000000001
 30
0.0
 70
    32
  0
VERTEX
  5
2584F
  8
0
 62
     3
 10
-327.16442254609279
 20
32.9694
 30
0.0
 70
    32
  0
VERTEX
  5
25850
  8
0
 62
     3
 10
-327.14242254609292
 20
32.858499999999999
 30
0.0
 70
    32
  0
VERTEX
  5
25851
  8
0
 62
     3
 10
-327.12542254609292
 20
32.746499999999997
 30
0.0
 70
    32
  0
VERTEX
  5
25852
  8
0
 62
     3
 10
-327.11342254609292
 20
32.633699999999997
 30
0.0
 70
    32
  0
VERTEX
  5
25853
  8
0
 62
     3
 10
-327.10642254609292
 20
32.520400000000002
 30
0.0
 70
    32
  0
VERTEX
  5
25854
  8
0
 62
     3
 10
-327.10442254609279
 20
32.406700000000001
 30
0.0
 70
    32
  0
VERTEX
  5
25855
  8
0
 62
     3
 10
-327.10642254609292
 20
32.293100000000003
 30
0.0
 70
    32
  0
VERTEX
  5
25856
  8
0
 62
     3
 10
-327.11342254609292
 20
32.179699999999997
 30
0.0
 70
    32
  0
VERTEX
  5
25857
  8
0
 62
     3
 10
-327.12542254609292
 20
32.066899999999997
 30
0.0
 70
    32
  0
VERTEX
  5
25858
  8
0
 62
     3
 10
-327.14242254609292
 20
31.954899999999999
 30
0.0
 70
    32
  0
VERTEX
  5
25859
  8
0
 62
     3
 10
-327.16442254609279
 20
31.844000000000001
 30
0.0
 70
    32
  0
VERTEX
  5
2585A
  8
0
 62
     3
 10
-327.19042254609292
 20
31.734500000000001
 30
0.0
 70
    32
  0
VERTEX
  5
2585B
  8
0
 62
     3
 10
-327.22142254609281
 20
31.6265
 30
0.0
 70
    32
  0
VERTEX
  5
2585C
  8
0
 62
     3
 10
-327.25642254609289
 20
31.520499999999998
 30
0.0
 70
    32
  0
VERTEX
  5
2585D
  8
0
 62
     3
 10
-327.29642254609291
 20
31.416599999999999
 30
0.0
 70
    32
  0
VERTEX
  5
2585E
  8
0
 62
     3
 10
-327.3404225460929
 20
31.315000000000001
 30
0.0
 70
    32
  0
VERTEX
  5
2585F
  8
0
 62
     3
 10
-327.3884225460929
 20
31.216100000000001
 30
0.0
 70
    32
  0
VERTEX
  5
25860
  8
0
 62
     3
 10
-327.44142254609289
 20
31.120100000000001
 30
0.0
 70
    32
  0
VERTEX
  5
25861
  8
0
 62
     3
 10
-327.49742254609288
 20
31.027200000000001
 30
0.0
 70
    32
  0
VERTEX
  5
25862
  8
0
 62
     3
 10
-327.5584225460928
 20
30.9376
 30
0.0
 70
    32
  0
VERTEX
  5
25863
  8
0
 62
     3
 10
-327.62242254609288
 20
30.851500000000001
 30
0.0
 70
    32
  0
VERTEX
  5
25864
  8
0
 62
     3
 10
-327.69042254609292
 20
30.769200000000001
 30
0.0
 70
    32
  0
VERTEX
  5
25865
  8
0
 62
     3
 10
-327.76142254609289
 20
30.690799999999999
 30
0.0
 70
    32
  0
VERTEX
  5
25866
  8
0
 62
     3
 10
-327.8354225460929
 20
30.616599999999998
 30
0.0
 70
    32
  0
VERTEX
  5
25867
  8
0
 62
     3
 10
-327.9124225460929
 20
30.546600000000002
 30
0.0
 70
    32
  0
VERTEX
  5
25868
  8
0
 62
     3
 10
-327.9934225460928
 20
30.481200000000001
 30
0.0
 70
    32
  0
VERTEX
  5
25869
  8
0
 62
     3
 10
-328.07642254609289
 20
30.420400000000001
 30
0.0
 70
    32
  0
VERTEX
  5
2586A
  8
0
 62
     3
 10
-328.16142254609292
 20
30.3643
 30
0.0
 70
    32
  0
VERTEX
  5
2586B
  8
0
 62
     3
 10
-328.24942254609289
 20
30.313199999999998
 30
0.0
 70
    32
  0
VERTEX
  5
2586C
  8
0
 62
     3
 10
-328.33842254609289
 20
30.267199999999999
 30
0.0
 70
    32
  0
VERTEX
  5
2586D
  8
0
 62
     3
 10
-328.43042254609293
 20
30.226299999999998
 30
0.0
 70
    32
  0
VERTEX
  5
2586E
  8
0
 62
     3
 10
-328.52342254609289
 20
30.1906
 30
0.0
 70
    32
  0
VERTEX
  5
2586F
  8
0
 62
     3
 10
-328.61842254609292
 20
30.160299999999999
 30
0.0
 70
    32
  0
VERTEX
  5
25870
  8
0
 62
     3
 10
-328.71442254609292
 20
30.135400000000001
 30
0.0
 70
    32
  0
VERTEX
  5
25871
  8
0
 62
     3
 10
-328.81042254609292
 20
30.1159
 30
0.0
 70
    32
  0
VERTEX
  5
25872
  8
0
 62
     3
 10
-328.90842254609288
 20
30.102
 30
0.0
 70
    32
  0
VERTEX
  5
25873
  8
0
 62
     3
 10
-329.00642254609289
 20
30.093699999999998
 30
0.0
 70
    32
  0
VERTEX
  5
25874
  8
0
 62
     3
 10
-329.10442254609279
 20
30.090900000000001
 30
0.0
 70
    32
  0
VERTEX
  5
25875
  8
0
 62
     3
 10
-329.20242254609292
 20
30.093699999999998
 30
0.0
 70
    32
  0
VERTEX
  5
25876
  8
0
 62
     3
 10
-329.30042254609288
 20
30.102
 30
0.0
 70
    32
  0
VERTEX
  5
25877
  8
0
 62
     3
 10
-329.3974225460928
 20
30.1159
 30
0.0
 70
    32
  0
VERTEX
  5
25878
  8
0
 62
     3
 10
-329.49442254609289
 20
30.135400000000001
 30
0.0
 70
    32
  0
VERTEX
  5
25879
  8
0
 62
     3
 10
-329.5904225460929
 20
30.160299999999999
 30
0.0
 70
    32
  0
VERTEX
  5
2587A
  8
0
 62
     3
 10
-329.68442254609289
 20
30.1906
 30
0.0
 70
    32
  0
VERTEX
  5
2587B
  8
0
 62
     3
 10
-329.77842254609288
 20
30.226299999999998
 30
0.0
 70
    32
  0
VERTEX
  5
2587C
  8
0
 62
     3
 10
-329.86942254609289
 20
30.267199999999999
 30
0.0
 70
    32
  0
VERTEX
  5
2587D
  8
0
 62
     3
 10
-329.95942254609292
 20
30.313199999999998
 30
0.0
 70
    32
  0
VERTEX
  5
2587E
  8
0
 62
     3
 10
-330.04742254609289
 20
30.3643
 30
0.0
 70
    32
  0
VERTEX
  5
2587F
  8
0
 62
     3
 10
-330.13242254609293
 20
30.420400000000001
 30
0.0
 70
    32
  0
VERTEX
  5
25880
  8
0
 62
     3
 10
-330.2154225460929
 20
30.481200000000001
 30
0.0
 70
    32
  0
VERTEX
  5
25881
  8
0
 62
     3
 10
-330.29542254609288
 20
30.546600000000002
 30
0.0
 70
    32
  0
VERTEX
  5
25882
  8
0
 62
     3
 10
-330.3734225460928
 20
30.616599999999998
 30
0.0
 70
    32
  0
VERTEX
  5
25883
  8
0
 62
     3
 10
-330.44742254609292
 20
30.690799999999999
 30
0.0
 70
    32
  0
VERTEX
  5
25884
  8
0
 62
     3
 10
-330.51842254609289
 20
30.769200000000001
 30
0.0
 70
    32
  0
VERTEX
  5
25885
  8
0
 62
     3
 10
-330.58642254609288
 20
30.851500000000001
 30
0.0
 70
    32
  0
VERTEX
  5
25886
  8
0
 62
     3
 10
-330.6504225460929
 20
30.9376
 30
0.0
 70
    32
  0
VERTEX
  5
25887
  8
0
 62
     3
 10
-330.7104225460929
 20
31.027200000000001
 30
0.0
 70
    32
  0
VERTEX
  5
25888
  8
0
 62
     3
 10
-330.76742254609292
 20
31.120100000000001
 30
0.0
 70
    32
  0
VERTEX
  5
25889
  8
0
 62
     3
 10
-330.81942254609288
 20
31.216100000000001
 30
0.0
 70
    32
  0
VERTEX
  5
2588A
  8
0
 62
     3
 10
-330.8684225460928
 20
31.315000000000001
 30
0.0
 70
    32
  0
VERTEX
  5
2588B
  8
0
 62
     3
 10
-330.9124225460929
 20
31.416599999999999
 30
0.0
 70
    32
  0
VERTEX
  5
2588C
  8
0
 62
     3
 10
-330.95242254609292
 20
31.520499999999998
 30
0.0
 70
    32
  0
VERTEX
  5
2588D
  8
0
 62
     3
 10
-330.98742254609289
 20
31.6265
 30
0.0
 70
    32
  0
VERTEX
  5
2588E
  8
0
 62
     3
 10
-331.01842254609289
 20
31.734500000000001
 30
0.0
 70
    32
  0
VERTEX
  5
2588F
  8
0
 62
     3
 10
-331.04442254609279
 20
31.844000000000001
 30
0.0
 70
    32
  0
VERTEX
  5
25890
  8
0
 62
     3
 10
-331.06542254609292
 20
31.954899999999999
 30
0.0
 70
    32
  0
VERTEX
  5
25891
  8
0
 62
     3
 10
-331.08242254609291
 20
32.066899999999997
 30
0.0
 70
    32
  0
VERTEX
  5
25892
  8
0
 62
     3
 10
-331.09442254609291
 20
32.179699999999997
 30
0.0
 70
    32
  0
VERTEX
  5
25893
  8
0
 62
     3
 10
-331.10142254609292
 20
32.293100000000003
 30
0.0
 70
    32
  0
VERTEX
  5
25894
  8
0
 62
     3
 10
-331.10442254609279
 20
32.406700000000001
 30
0.0
 70
    32
  0
VERTEX
  5
25895
  8
0
 62
     3
 10
-331.10142254609292
 20
32.520400000000002
 30
0.0
 70
    32
  0
VERTEX
  5
25896
  8
0
 62
     3
 10
-331.09442254609291
 20
32.633699999999997
 30
0.0
 70
    32
  0
VERTEX
  5
25897
  8
0
 62
     3
 10
-331.08242254609291
 20
32.746499999999997
 30
0.0
 70
    32
  0
VERTEX
  5
25898
  8
0
 62
     3
 10
-331.06542254609292
 20
32.858499999999999
 30
0.0
 70
    32
  0
VERTEX
  5
25899
  8
0
 62
     3
 10
-331.04442254609279
 20
32.9694
 30
0.0
 70
    32
  0
VERTEX
  5
2589A
  8
0
 62
     3
 10
-331.01842254609289
 20
33.079000000000001
 30
0.0
 70
    32
  0
VERTEX
  5
2589B
  8
0
 62
     3
 10
-330.98742254609289
 20
33.186900000000001
 30
0.0
 70
    32
  0
VERTEX
  5
2589C
  8
0
 62
     3
 10
-330.95242254609292
 20
33.292999999999999
 30
0.0
 70
    32
  0
VERTEX
  5
2589D
  8
0
 62
     3
 10
-330.9124225460929
 20
33.396900000000002
 30
0.0
 70
    32
  0
VERTEX
  5
2589E
  8
0
 62
     3
 10
-330.8684225460928
 20
33.498399999999997
 30
0.0
 70
    32
  0
VERTEX
  5
2589F
  8
0
 62
     3
 10
-330.81942254609288
 20
33.597299999999997
 30
0.0
 70
    32
  0
VERTEX
  5
258A0
  8
0
 62
     3
 10
-330.76742254609292
 20
33.693300000000001
 30
0.0
 70
    32
  0
VERTEX
  5
258A1
  8
0
 62
     3
 10
-330.7104225460929
 20
33.786299999999997
 30
0.0
 70
    32
  0
VERTEX
  5
258A2
  8
0
 62
     3
 10
-330.6504225460929
 20
33.875900000000001
 30
0.0
 70
    32
  0
VERTEX
  5
258A3
  8
0
 62
     3
 10
-330.58642254609288
 20
33.9619
 30
0.0
 70
    32
  0
VERTEX
  5
258A4
  8
0
 62
     3
 10
-330.51842254609289
 20
34.0443
 30
0.0
 70
    32
  0
VERTEX
  5
258A5
  8
0
 62
     3
 10
-330.44742254609292
 20
34.122599999999998
 30
0.0
 70
    32
  0
VERTEX
  5
258A6
  8
0
 62
     3
 10
-330.3734225460928
 20
34.196899999999999
 30
0.0
 70
    32
  0
VERTEX
  5
258A7
  8
0
 62
     3
 10
-330.29542254609288
 20
34.266800000000011
 30
0.0
 70
    32
  0
VERTEX
  5
258A8
  8
0
 62
     3
 10
-330.2154225460929
 20
34.332299999999996
 30
0.0
 70
    32
  0
VERTEX
  5
258A9
  8
0
 62
     3
 10
-330.13242254609293
 20
34.393099999999997
 30
0.0
 70
    32
  0
VERTEX
  5
258AA
  8
0
 62
     3
 10
-330.04742254609289
 20
34.449100000000001
 30
0.0
 70
    32
  0
VERTEX
  5
258AB
  8
0
 62
     3
 10
-329.95942254609292
 20
34.5002
 30
0.0
 70
    32
  0
VERTEX
  5
258AC
  8
0
 62
     3
 10
-329.86942254609289
 20
34.546300000000002
 30
0.0
 70
    32
  0
VERTEX
  5
258AD
  8
0
 62
     3
 10
-329.77842254609288
 20
34.587200000000003
 30
0.0
 70
    32
  0
VERTEX
  5
258AE
  8
0
 62
     3
 10
-329.68442254609289
 20
34.622799999999998
 30
0.0
 70
    32
  0
VERTEX
  5
258AF
  8
0
 62
     3
 10
-329.5904225460929
 20
34.653199999999998
 30
0.0
 70
    32
  0
VERTEX
  5
258B0
  8
0
 62
     3
 10
-329.49442254609289
 20
34.678100000000001
 30
0.0
 70
    32
  0
VERTEX
  5
258B1
  8
0
 62
     3
 10
-329.3974225460928
 20
34.697499999999998
 30
0.0
 70
    32
  0
VERTEX
  5
258B2
  8
0
 62
     3
 10
-329.30042254609288
 20
34.711399999999998
 30
0.0
 70
    32
  0
VERTEX
  5
258B3
  8
0
 62
     3
 10
-329.20242254609292
 20
34.719799999999999
 30
0.0
 70
    32
  0
VERTEX
  5
258B4
  8
0
 62
     3
 10
-329.10442254609279
 20
34.7226
 30
0.0
 70
    32
  0
SEQEND
  5
258B5
  8
0
 62
     3
  0
LINE
  5
2563C
  8
0
  6
DASHED
 62
     3
 10
-327.50421127304639
 20
32.580790231288759
 30
0.0
 11
-327.50421127304628
 21
23.166892170717858
 31
0.0
  0
POLYLINE
  5
25647
  8
0
  6
CONTINUOUS
 62
     7
 66
     1
 10
0.0
 20
0.0
 30
0.0
 70
     8
  0
VERTEX
  5
258B6
  8
0
 62
     7
 10
-329.10442254609279
 20
34.401499999999999
 30
0.0
 70
    32
  0
VERTEX
  5
258B7
  8
0
 62
     7
 10
-329.0254225460929
 20
34.3994
 30
0.0
 70
    32
  0
VERTEX
  5
258B8
  8
0
 62
     7
 10
-328.94742254609292
 20
34.392800000000001
 30
0.0
 70
    32
  0
VERTEX
  5
258B9
  8
0
 62
     7
 10
-328.86942254609289
 20
34.381799999999998
 30
0.0
 70
    32
  0
VERTEX
  5
258BA
  8
0
 62
     7
 10
-328.79242254609289
 20
34.366599999999998
 30
0.0
 70
    32
  0
VERTEX
  5
258BB
  8
0
 62
     7
 10
-328.7154225460929
 20
34.347000000000001
 30
0.0
 70
    32
  0
VERTEX
  5
258BC
  8
0
 62
     7
 10
-328.63942254609287
 20
34.323099999999997
 30
0.0
 70
    32
  0
VERTEX
  5
258BD
  8
0
 62
     7
 10
-328.56542254609292
 20
34.295099999999998
 30
0.0
 70
    32
  0
VERTEX
  5
258BE
  8
0
 62
     7
 10
-328.49142254609291
 20
34.262999999999998
 30
0.0
 70
    32
  0
VERTEX
  5
258BF
  8
0
 62
     7
 10
-328.42042254609288
 20
34.226700000000001
 30
0.0
 70
    32
  0
VERTEX
  5
258C0
  8
0
 62
     7
 10
-328.35042254609289
 20
34.186599999999999
 30
0.0
 70
    32
  0
VERTEX
  5
258C1
  8
0
 62
     7
 10
-328.28142254609293
 20
34.142499999999998
 30
0.0
 70
    32
  0
VERTEX
  5
258C2
  8
0
 62
     7
 10
-328.2154225460929
 20
34.09470000000001
 30
0.0
 70
    32
  0
VERTEX
  5
258C3
  8
0
 62
     7
 10
-328.15142254609287
 20
34.043199999999999
 30
0.0
 70
    32
  0
VERTEX
  5
258C4
  8
0
 62
     7
 10
-328.08942254609292
 20
33.988300000000002
 30
0.0
 70
    32
  0
VERTEX
  5
258C5
  8
0
 62
     7
 10
-328.02942254609292
 20
33.929900000000011
 30
0.0
 70
    32
  0
VERTEX
  5
258C6
  8
0
 62
     7
 10
-327.9724225460929
 20
33.868299999999998
 30
0.0
 70
    32
  0
VERTEX
  5
258C7
  8
0
 62
     7
 10
-327.91842254609293
 20
33.8035
 30
0.0
 70
    32
  0
VERTEX
  5
258C8
  8
0
 62
     7
 10
-327.86742254609288
 20
33.735900000000001
 30
0.0
 70
    32
  0
VERTEX
  5
258C9
  8
0
 62
     7
 10
-327.81942254609288
 20
33.665399999999998
 30
0.0
 70
    32
  0
VERTEX
  5
258CA
  8
0
 62
     7
 10
-327.77342254609289
 20
33.592300000000002
 30
0.0
 70
    32
  0
VERTEX
  5
258CB
  8
0
 62
     7
 10
-327.73142254609292
 20
33.516800000000003
 30
0.0
 70
    32
  0
VERTEX
  5
258CC
  8
0
 62
     7
 10
-327.69342254609279
 20
33.43910000000001
 30
0.0
 70
    32
  0
VERTEX
  5
258CD
  8
0
 62
     7
 10
-327.6574225460929
 20
33.359299999999998
 30
0.0
 70
    32
  0
VERTEX
  5
258CE
  8
0
 62
     7
 10
-327.6264225460929
 20
33.2776
 30
0.0
 70
    32
  0
VERTEX
  5
258CF
  8
0
 62
     7
 10
-327.5974225460929
 20
33.194200000000002
 30
0.0
 70
    32
  0
VERTEX
  5
258D0
  8
0
 62
     7
 10
-327.5734225460929
 20
33.109299999999998
 30
0.0
 70
    32
  0
VERTEX
  5
258D1
  8
0
 62
     7
 10
-327.55242254609288
 20
33.023200000000003
 30
0.0
 70
    32
  0
VERTEX
  5
258D2
  8
0
 62
     7
 10
-327.53542254609289
 20
32.936
 30
0.0
 70
    32
  0
VERTEX
  5
258D3
  8
0
 62
     7
 10
-327.52142254609288
 20
32.847999999999999
 30
0.0
 70
    32
  0
VERTEX
  5
258D4
  8
0
 62
     7
 10
-327.51142254609289
 20
32.75930000000001
 30
0.0
 70
    32
  0
VERTEX
  5
258D5
  8
0
 62
     7
 10
-327.50642254609289
 20
32.670099999999998
 30
0.0
 70
    32
  0
VERTEX
  5
258D6
  8
0
 62
     7
 10
-327.50442254609288
 20
32.580800000000004
 30
0.0
 70
    32
  0
VERTEX
  5
258D7
  8
0
 62
     7
 10
-327.50642254609289
 20
32.491399999999999
 30
0.0
 70
    32
  0
VERTEX
  5
258D8
  8
0
 62
     7
 10
-327.51142254609289
 20
32.402299999999997
 30
0.0
 70
    32
  0
VERTEX
  5
258D9
  8
0
 62
     7
 10
-327.52142254609288
 20
32.313600000000001
 30
0.0
 70
    32
  0
VERTEX
  5
258DA
  8
0
 62
     7
 10
-327.53542254609289
 20
32.2256
 30
0.0
 70
    32
  0
VERTEX
  5
258DB
  8
0
 62
     7
 10
-327.55242254609288
 20
32.138399999999997
 30
0.0
 70
    32
  0
VERTEX
  5
258DC
  8
0
 62
     7
 10
-327.5734225460929
 20
32.052300000000002
 30
0.0
 70
    32
  0
VERTEX
  5
258DD
  8
0
 62
     7
 10
-327.5974225460929
 20
31.967400000000001
 30
0.0
 70
    32
  0
VERTEX
  5
258DE
  8
0
 62
     7
 10
-327.6264225460929
 20
31.884
 30
0.0
 70
    32
  0
VERTEX
  5
258DF
  8
0
 62
     7
 10
-327.6574225460929
 20
31.802299999999999
 30
0.0
 70
    32
  0
VERTEX
  5
258E0
  8
0
 62
     7
 10
-327.69342254609279
 20
31.7225
 30
0.0
 70
    32
  0
VERTEX
  5
258E1
  8
0
 62
     7
 10
-327.73142254609292
 20
31.6447
 30
0.0
 70
    32
  0
VERTEX
  5
258E2
  8
0
 62
     7
 10
-327.77342254609289
 20
31.569199999999999
 30
0.0
 70
    32
  0
VERTEX
  5
258E3
  8
0
 62
     7
 10
-327.81942254609288
 20
31.496200000000002
 30
0.0
 70
    32
  0
VERTEX
  5
258E4
  8
0
 62
     7
 10
-327.86742254609288
 20
31.425699999999999
 30
0.0
 70
    32
  0
VERTEX
  5
258E5
  8
0
 62
     7
 10
-327.91842254609293
 20
31.358000000000001
 30
0.0
 70
    32
  0
VERTEX
  5
258E6
  8
0
 62
     7
 10
-327.9724225460929
 20
31.293299999999999
 30
0.0
 70
    32
  0
VERTEX
  5
258E7
  8
0
 62
     7
 10
-328.02942254609292
 20
31.2317
 30
0.0
 70
    32
  0
VERTEX
  5
258E8
  8
0
 62
     7
 10
-328.08942254609292
 20
31.173300000000001
 30
0.0
 70
    32
  0
VERTEX
  5
258E9
  8
0
 62
     7
 10
-328.15142254609287
 20
31.118300000000001
 30
0.0
 70
    32
  0
VERTEX
  5
258EA
  8
0
 62
     7
 10
-328.2154225460929
 20
31.0669
 30
0.0
 70
    32
  0
VERTEX
  5
258EB
  8
0
 62
     7
 10
-328.28142254609293
 20
31.019100000000002
 30
0.0
 70
    32
  0
VERTEX
  5
258EC
  8
0
 62
     7
 10
-328.35042254609289
 20
30.975000000000001
 30
0.0
 70
    32
  0
VERTEX
  5
258ED
  8
0
 62
     7
 10
-328.42042254609288
 20
30.934799999999999
 30
0.0
 70
    32
  0
VERTEX
  5
258EE
  8
0
 62
     7
 10
-328.49142254609291
 20
30.898599999999998
 30
0.0
 70
    32
  0
VERTEX
  5
258EF
  8
0
 62
     7
 10
-328.56542254609292
 20
30.866499999999998
 30
0.0
 70
    32
  0
VERTEX
  5
258F0
  8
0
 62
     7
 10
-328.63942254609287
 20
30.8384
 30
0.0
 70
    32
  0
VERTEX
  5
258F1
  8
0
 62
     7
 10
-328.7154225460929
 20
30.814599999999999
 30
0.0
 70
    32
  0
VERTEX
  5
258F2
  8
0
 62
     7
 10
-328.79242254609289
 20
30.795000000000002
 30
0.0
 70
    32
  0
VERTEX
  5
258F3
  8
0
 62
     7
 10
-328.86942254609289
 20
30.779699999999998
 30
0.0
 70
    32
  0
VERTEX
  5
258F4
  8
0
 62
     7
 10
-328.94742254609292
 20
30.768799999999999
 30
0.0
 70
    32
  0
VERTEX
  5
258F5
  8
0
 62
     7
 10
-329.0254225460929
 20
30.7622
 30
0.0
 70
    32
  0
VERTEX
  5
258F6
  8
0
 62
     7
 10
-329.10442254609279
 20
30.760000000000002
 30
0.0
 70
    32
  0
VERTEX
  5
258F7
  8
0
 62
     7
 10
-329.18242254609288
 20
30.7622
 30
0.0
 70
    32
  0
VERTEX
  5
258F8
  8
0
 62
     7
 10
-329.26142254609289
 20
30.768799999999999
 30
0.0
 70
    32
  0
VERTEX
  5
258F9
  8
0
 62
     7
 10
-329.33942254609292
 20
30.779699999999998
 30
0.0
 70
    32
  0
VERTEX
  5
258FA
  8
0
 62
     7
 10
-329.4164225460928
 20
30.795000000000002
 30
0.0
 70
    32
  0
VERTEX
  5
258FB
  8
0
 62
     7
 10
-329.49342254609292
 20
30.814599999999999
 30
0.0
 70
    32
  0
VERTEX
  5
258FC
  8
0
 62
     7
 10
-329.5684225460929
 20
30.8384
 30
0.0
 70
    32
  0
VERTEX
  5
258FD
  8
0
 62
     7
 10
-329.64342254609289
 20
30.866499999999998
 30
0.0
 70
    32
  0
VERTEX
  5
258FE
  8
0
 62
     7
 10
-329.71642254609287
 20
30.898599999999998
 30
0.0
 70
    32
  0
VERTEX
  5
258FF
  8
0
 62
     7
 10
-329.78842254609287
 20
30.934799999999999
 30
0.0
 70
    32
  0
VERTEX
  5
25900
  8
0
 62
     7
 10
-329.85842254609281
 20
30.975000000000001
 30
0.0
 70
    32
  0
VERTEX
  5
25901
  8
0
 62
     7
 10
-329.92642254609291
 20
31.019100000000002
 30
0.0
 70
    32
  0
VERTEX
  5
25902
  8
0
 62
     7
 10
-329.9934225460928
 20
31.0669
 30
0.0
 70
    32
  0
VERTEX
  5
25903
  8
0
 62
     7
 10
-330.05742254609288
 20
31.118300000000001
 30
0.0
 70
    32
  0
VERTEX
  5
25904
  8
0
 62
     7
 10
-330.11942254609289
 20
31.173300000000001
 30
0.0
 70
    32
  0
VERTEX
  5
25905
  8
0
 62
     7
 10
-330.17842254609292
 20
31.2317
 30
0.0
 70
    32
  0
VERTEX
  5
25906
  8
0
 62
     7
 10
-330.23542254609288
 20
31.293299999999999
 30
0.0
 70
    32
  0
VERTEX
  5
25907
  8
0
 62
     7
 10
-330.28942254609279
 20
31.358000000000001
 30
0.0
 70
    32
  0
VERTEX
  5
25908
  8
0
 62
     7
 10
-330.34142254609287
 20
31.425699999999999
 30
0.0
 70
    32
  0
VERTEX
  5
25909
  8
0
 62
     7
 10
-330.38942254609287
 20
31.496200000000002
 30
0.0
 70
    32
  0
VERTEX
  5
2590A
  8
0
 62
     7
 10
-330.43442254609289
 20
31.569199999999999
 30
0.0
 70
    32
  0
VERTEX
  5
2590B
  8
0
 62
     7
 10
-330.47642254609292
 20
31.6447
 30
0.0
 70
    32
  0
VERTEX
  5
2590C
  8
0
 62
     7
 10
-330.51542254609279
 20
31.7225
 30
0.0
 70
    32
  0
VERTEX
  5
2590D
  8
0
 62
     7
 10
-330.55042254609288
 20
31.802299999999999
 30
0.0
 70
    32
  0
VERTEX
  5
2590E
  8
0
 62
     7
 10
-330.5824225460928
 20
31.884
 30
0.0
 70
    32
  0
VERTEX
  5
2590F
  8
0
 62
     7
 10
-330.61042254609288
 20
31.967400000000001
 30
0.0
 70
    32
  0
VERTEX
  5
25910
  8
0
 62
     7
 10
-330.63542254609291
 20
32.052300000000002
 30
0.0
 70
    32
  0
VERTEX
  5
25911
  8
0
 62
     7
 10
-330.65642254609293
 20
32.138399999999997
 30
0.0
 70
    32
  0
VERTEX
  5
25912
  8
0
 62
     7
 10
-330.67342254609292
 20
32.2256
 30
0.0
 70
    32
  0
VERTEX
  5
25913
  8
0
 62
     7
 10
-330.6864225460929
 20
32.313600000000001
 30
0.0
 70
    32
  0
VERTEX
  5
25914
  8
0
 62
     7
 10
-330.69642254609289
 20
32.402299999999997
 30
0.0
 70
    32
  0
VERTEX
  5
25915
  8
0
 62
     7
 10
-330.70242254609292
 20
32.491399999999999
 30
0.0
 70
    32
  0
VERTEX
  5
25916
  8
0
 62
     7
 10
-330.70442254609293
 20
32.580800000000004
 30
0.0
 70
    32
  0
VERTEX
  5
25917
  8
0
 62
     7
 10
-330.70242254609292
 20
32.670099999999998
 30
0.0
 70
    32
  0
VERTEX
  5
25918
  8
0
 62
     7
 10
-330.69642254609289
 20
32.75930000000001
 30
0.0
 70
    32
  0
VERTEX
  5
25919
  8
0
 62
     7
 10
-330.6864225460929
 20
32.847999999999999
 30
0.0
 70
    32
  0
VERTEX
  5
2591A
  8
0
 62
     7
 10
-330.67342254609292
 20
32.936
 30
0.0
 70
    32
  0
VERTEX
  5
2591B
  8
0
 62
     7
 10
-330.65642254609293
 20
33.023200000000003
 30
0.0
 70
    32
  0
VERTEX
  5
2591C
  8
0
 62
     7
 10
-330.63542254609291
 20
33.109299999999998
 30
0.0
 70
    32
  0
VERTEX
  5
2591D
  8
0
 62
     7
 10
-330.61042254609288
 20
33.194200000000002
 30
0.0
 70
    32
  0
VERTEX
  5
2591E
  8
0
 62
     7
 10
-330.5824225460928
 20
33.2776
 30
0.0
 70
    32
  0
VERTEX
  5
2591F
  8
0
 62
     7
 10
-330.55042254609288
 20
33.359299999999998
 30
0.0
 70
    32
  0
VERTEX
  5
25920
  8
0
 62
     7
 10
-330.51542254609279
 20
33.43910000000001
 30
0.0
 70
    32
  0
VERTEX
  5
25921
  8
0
 62
     7
 10
-330.47642254609292
 20
33.516800000000003
 30
0.0
 70
    32
  0
VERTEX
  5
25922
  8
0
 62
     7
 10
-330.43442254609289
 20
33.592300000000002
 30
0.0
 70
    32
  0
VERTEX
  5
25923
  8
0
 62
     7
 10
-330.38942254609287
 20
33.665399999999998
 30
0.0
 70
    32
  0
VERTEX
  5
25924
  8
0
 62
     7
 10
-330.34142254609287
 20
33.735900000000001
 30
0.0
 70
    32
  0
VERTEX
  5
25925
  8
0
 62
     7
 10
-330.28942254609279
 20
33.8035
 30
0.0
 70
    32
  0
VERTEX
  5
25926
  8
0
 62
     7
 10
-330.23542254609288
 20
33.868299999999998
 30
0.0
 70
    32
  0
VERTEX
  5
25927
  8
0
 62
     7
 10
-330.17842254609292
 20
33.929900000000011
 30
0.0
 70
    32
  0
VERTEX
  5
25928
  8
0
 62
     7
 10
-330.11942254609289
 20
33.988300000000002
 30
0.0
 70
    32
  0
VERTEX
  5
25929
  8
0
 62
     7
 10
-330.05742254609288
 20
34.043199999999999
 30
0.0
 70
    32
  0
VERTEX
  5
2592A
  8
0
 62
     7
 10
-329.9934225460928
 20
34.09470000000001
 30
0.0
 70
    32
  0
VERTEX
  5
2592B
  8
0
 62
     7
 10
-329.92642254609291
 20
34.142499999999998
 30
0.0
 70
    32
  0
VERTEX
  5
2592C
  8
0
 62
     7
 10
-329.85842254609281
 20
34.186599999999999
 30
0.0
 70
    32
  0
VERTEX
  5
2592D
  8
0
 62
     7
 10
-329.78842254609287
 20
34.226700000000001
 30
0.0
 70
    32
  0
VERTEX
  5
2592E
  8
0
 62
     7
 10
-329.71642254609287
 20
34.262999999999998
 30
0.0
 70
    32
  0
VERTEX
  5
2592F
  8
0
 62
     7
 10
-329.64342254609289
 20
34.295099999999998
 30
0.0
 70
    32
  0
VERTEX
  5
25930
  8
0
 62
     7
 10
-329.5684225460929
 20
34.323099999999997
 30
0.0
 70
    32
  0
VERTEX
  5
25931
  8
0
 62
     7
 10
-329.49342254609292
 20
34.347000000000001
 30
0.0
 70
    32
  0
VERTEX
  5
25932
  8
0
 62
     7
 10
-329.4164225460928
 20
34.366599999999998
 30
0.0
 70
    32
  0
VERTEX
  5
25933
  8
0
 62
     7
 10
-329.33942254609292
 20
34.381799999999998
 30
0.0
 70
    32
  0
VERTEX
  5
25934
  8
0
 62
     7
 10
-329.26142254609289
 20
34.392800000000001
 30
0.0
 70
    32
  0
VERTEX
  5
25935
  8
0
 62
     7
 10
-329.18242254609288
 20
34.3994
 30
0.0
 70
    32
  0
VERTEX
  5
25936
  8
0
 62
     7
 10
-329.10442254609279
 20
34.401499999999999
 30
0.0
 70
    32
  0
SEQEND
  5
25937
  8
0
 62
     7
  0
LINE
  5
2564A
  8
0
  6
DASHED
 62
     3
 10
-332.85421127304642
 20
17.675106589496931
 30
0.0
 11
-332.85421127304642
 21
13.263409710154271
 31
0.0
  0
POLYLINE
  5
2564B
  8
0
  6
CONTINUOUS
 62
     7
 66
     1
 10
0.0
 20
0.0
 30
0.0
 70
     8
  0
VERTEX
  5
25938
  8
0
 62
     7
 10
-329.10442254609279
 20
17.6751
 30
0.0
 70
    32
  0
VERTEX
  5
25939
  8
0
 62
     7
 10
-328.92042254609288
 20
17.669799999999999
 30
0.0
 70
    32
  0
VERTEX
  5
2593A
  8
0
 62
     7
 10
-328.73642254609291
 20
17.6539
 30
0.0
 70
    32
  0
VERTEX
  5
2593B
  8
0
 62
     7
 10
-328.55442254609289
 20
17.627400000000002
 30
0.0
 70
    32
  0
VERTEX
  5
2593C
  8
0
 62
     7
 10
-328.37242254609288
 20
17.590299999999999
 30
0.0
 70
    32
  0
VERTEX
  5
2593D
  8
0
 62
     7
 10
-328.1934225460929
 20
17.542899999999999
 30
0.0
 70
    32
  0
VERTEX
  5
2593E
  8
0
 62
     7
 10
-328.01542254609291
 20
17.485099999999999
 30
0.0
 70
    32
  0
VERTEX
  5
2593F
  8
0
 62
     7
 10
-327.8404225460929
 20
17.417200000000001
 30
0.0
 70
    32
  0
VERTEX
  5
25940
  8
0
 62
     7
 10
-327.6694225460929
 20
17.339300000000001
 30
0.0
 70
    32
  0
VERTEX
  5
25941
  8
0
 62
     7
 10
-327.50042254609292
 20
17.2515
 30
0.0
 70
    32
  0
VERTEX
  5
25942
  8
0
 62
     7
 10
-327.33642254609288
 20
17.154199999999999
 30
0.0
 70
    32
  0
VERTEX
  5
25943
  8
0
 62
     7
 10
-327.17642254609291
 20
17.0474
 30
0.0
 70
    32
  0
VERTEX
  5
25944
  8
0
 62
     7
 10
-327.0204225460929
 20
16.9316
 30
0.0
 70
    32
  0
VERTEX
  5
25945
  8
0
 62
     7
 10
-326.87042254609293
 20
16.806899999999999
 30
0.0
 70
    32
  0
VERTEX
  5
25946
  8
0
 62
     7
 10
-326.72542254609289
 20
16.6737
 30
0.0
 70
    32
  0
VERTEX
  5
25947
  8
0
 62
     7
 10
-326.5854225460929
 20
16.532299999999999
 30
0.0
 70
    32
  0
VERTEX
  5
25948
  8
0
 62
     7
 10
-326.45242254609292
 20
16.382999999999999
 30
0.0
 70
    32
  0
VERTEX
  5
25949
  8
0
 62
     7
 10
-326.3254225460928
 20
16.226099999999999
 30
0.0
 70
    32
  0
VERTEX
  5
2594A
  8
0
 62
     7
 10
-326.2054225460929
 20
16.062200000000001
 30
0.0
 70
    32
  0
VERTEX
  5
2594B
  8
0
 62
     7
 10
-326.09242254609291
 20
15.891500000000001
 30
0.0
 70
    32
  0
VERTEX
  5
2594C
  8
0
 62
     7
 10
-325.9864225460928
 20
15.714399999999999
 30
0.0
 70
    32
  0
VERTEX
  5
2594D
  8
0
 62
     7
 10
-325.88742254609292
 20
15.531499999999999
 30
0.0
 70
    32
  0
VERTEX
  5
2594E
  8
0
 62
     7
 10
-325.79742254609289
 20
15.3431
 30
0.0
 70
    32
  0
VERTEX
  5
2594F
  8
0
 62
     7
 10
-325.71442254609292
 20
15.149699999999999
 30
0.0
 70
    32
  0
VERTEX
  5
25950
  8
0
 62
     7
 10
-325.63942254609287
 20
14.951700000000001
 30
0.0
 70
    32
  0
VERTEX
  5
25951
  8
0
 62
     7
 10
-325.5734225460929
 20
14.749700000000001
 30
0.0
 70
    32
  0
VERTEX
  5
25952
  8
0
 62
     7
 10
-325.51542254609291
 20
14.5441
 30
0.0
 70
    32
  0
VERTEX
  5
25953
  8
0
 62
     7
 10
-325.46642254609287
 20
14.3354
 30
0.0
 70
    32
  0
VERTEX
  5
25954
  8
0
 62
     7
 10
-325.42642254609291
 20
14.1241
 30
0.0
 70
    32
  0
VERTEX
  5
25955
  8
0
 62
     7
 10
-325.39442254609293
 20
13.9107
 30
0.0
 70
    32
  0
VERTEX
  5
25956
  8
0
 62
     7
 10
-325.37242254609288
 20
13.6958
 30
0.0
 70
    32
  0
VERTEX
  5
25957
  8
0
 62
     7
 10
-325.35842254609292
 20
13.479900000000001
 30
0.0
 70
    32
  0
VERTEX
  5
25958
  8
0
 62
     7
 10
-325.35442254609279
 20
13.263400000000001
 30
0.0
 70
    32
  0
VERTEX
  5
25959
  8
0
 62
     7
 10
-325.35842254609292
 20
13.046900000000001
 30
0.0
 70
    32
  0
VERTEX
  5
2595A
  8
0
 62
     7
 10
-325.37242254609288
 20
12.831
 30
0.0
 70
    32
  0
VERTEX
  5
2595B
  8
0
 62
     7
 10
-325.39442254609293
 20
12.616099999999999
 30
0.0
 70
    32
  0
VERTEX
  5
2595C
  8
0
 62
     7
 10
-325.42642254609291
 20
12.402699999999999
 30
0.0
 70
    32
  0
VERTEX
  5
2595D
  8
0
 62
     7
 10
-325.46642254609287
 20
12.1915
 30
0.0
 70
    32
  0
VERTEX
  5
2595E
  8
0
 62
     7
 10
-325.51542254609291
 20
11.982799999999999
 30
0.0
 70
    32
  0
VERTEX
  5
2595F
  8
0
 62
     7
 10
-325.5734225460929
 20
11.777200000000001
 30
0.0
 70
    32
  0
VERTEX
  5
25960
  8
0
 62
     7
 10
-325.63942254609287
 20
11.575100000000001
 30
0.0
 70
    32
  0
VERTEX
  5
25961
  8
0
 62
     7
 10
-325.71442254609292
 20
11.3772
 30
0.0
 70
    32
  0
VERTEX
  5
25962
  8
0
 62
     7
 10
-325.79742254609289
 20
11.1838
 30
0.0
 70
    32
  0
VERTEX
  5
25963
  8
0
 62
     7
 10
-325.88742254609292
 20
10.9953
 30
0.0
 70
    32
  0
VERTEX
  5
25964
  8
0
 62
     7
 10
-325.9864225460928
 20
10.8124
 30
0.0
 70
    32
  0
VERTEX
  5
25965
  8
0
 62
     7
 10
-326.09242254609291
 20
10.635400000000001
 30
0.0
 70
    32
  0
VERTEX
  5
25966
  8
0
 62
     7
 10
-326.2054225460929
 20
10.464700000000001
 30
0.0
 70
    32
  0
VERTEX
  5
25967
  8
0
 62
     7
 10
-326.3254225460928
 20
10.300700000000001
 30
0.0
 70
    32
  0
VERTEX
  5
25968
  8
0
 62
     7
 10
-326.45242254609292
 20
10.1439
 30
0.0
 70
    32
  0
VERTEX
  5
25969
  8
0
 62
     7
 10
-326.5854225460929
 20
9.9945599999999981
 30
0.0
 70
    32
  0
VERTEX
  5
2596A
  8
0
 62
     7
 10
-326.72542254609289
 20
9.8531200000000005
 30
0.0
 70
    32
  0
VERTEX
  5
2596B
  8
0
 62
     7
 10
-326.87042254609293
 20
9.7199000000000009
 30
0.0
 70
    32
  0
VERTEX
  5
2596C
  8
0
 62
     7
 10
-327.0204225460929
 20
9.5952199999999994
 30
0.0
 70
    32
  0
VERTEX
  5
2596D
  8
0
 62
     7
 10
-327.17642254609291
 20
9.4793699999999994
 30
0.0
 70
    32
  0
VERTEX
  5
2596E
  8
0
 62
     7
 10
-327.33642254609288
 20
9.3726400000000005
 30
0.0
 70
    32
  0
VERTEX
  5
2596F
  8
0
 62
     7
 10
-327.50042254609292
 20
9.2752800000000004
 30
0.0
 70
    32
  0
VERTEX
  5
25970
  8
0
 62
     7
 10
-327.6694225460929
 20
9.1875300000000006
 30
0.0
 70
    32
  0
VERTEX
  5
25971
  8
0
 62
     7
 10
-327.8404225460929
 20
9.1096000000000004
 30
0.0
 70
    32
  0
VERTEX
  5
25972
  8
0
 62
     7
 10
-328.01542254609291
 20
9.0416799999999995
 30
0.0
 70
    32
  0
VERTEX
  5
25973
  8
0
 62
     7
 10
-328.1934225460929
 20
8.9839300000000009
 30
0.0
 70
    32
  0
VERTEX
  5
25974
  8
0
 62
     7
 10
-328.37242254609288
 20
8.9364799999999942
 30
0.0
 70
    32
  0
VERTEX
  5
25975
  8
0
 62
     7
 10
-328.55442254609289
 20
8.8994600000000013
 30
0.0
 70
    32
  0
VERTEX
  5
25976
  8
0
 62
     7
 10
-328.73642254609291
 20
8.8729600000000008
 30
0.0
 70
    32
  0
VERTEX
  5
25977
  8
0
 62
     7
 10
-328.92042254609288
 20
8.8570299999999982
 30
0.0
 70
    32
  0
VERTEX
  5
25978
  8
0
 62
     7
 10
-329.10442254609279
 20
8.8517100000000006
 30
0.0
 70
    32
  0
VERTEX
  5
25979
  8
0
 62
     7
 10
-329.28842254609287
 20
8.8570299999999982
 30
0.0
 70
    32
  0
VERTEX
  5
2597A
  8
0
 62
     7
 10
-329.47142254609292
 20
8.8729600000000008
 30
0.0
 70
    32
  0
VERTEX
  5
2597B
  8
0
 62
     7
 10
-329.6544225460928
 20
8.8994600000000013
 30
0.0
 70
    32
  0
VERTEX
  5
2597C
  8
0
 62
     7
 10
-329.8354225460929
 20
8.9364799999999942
 30
0.0
 70
    32
  0
VERTEX
  5
2597D
  8
0
 62
     7
 10
-330.01542254609291
 20
8.9839300000000009
 30
0.0
 70
    32
  0
VERTEX
  5
2597E
  8
0
 62
     7
 10
-330.19242254609298
 20
9.0416799999999995
 30
0.0
 70
    32
  0
VERTEX
  5
2597F
  8
0
 62
     7
 10
-330.36742254609288
 20
9.1096000000000004
 30
0.0
 70
    32
  0
VERTEX
  5
25980
  8
0
 62
     7
 10
-330.53942254609291
 20
9.1875300000000006
 30
0.0
 70
    32
  0
VERTEX
  5
25981
  8
0
 62
     7
 10
-330.70742254609291
 20
9.2752800000000004
 30
0.0
 70
    32
  0
VERTEX
  5
25982
  8
0
 62
     7
 10
-330.87242254609288
 20
9.3726400000000005
 30
0.0
 70
    32
  0
VERTEX
  5
25983
  8
0
 62
     7
 10
-331.0324225460929
 20
9.4793699999999994
 30
0.0
 70
    32
  0
VERTEX
  5
25984
  8
0
 62
     7
 10
-331.18742254609288
 20
9.5952199999999994
 30
0.0
 70
    32
  0
VERTEX
  5
25985
  8
0
 62
     7
 10
-331.33842254609289
 20
9.7199000000000009
 30
0.0
 70
    32
  0
VERTEX
  5
25986
  8
0
 62
     7
 10
-331.48342254609292
 20
9.8531200000000005
 30
0.0
 70
    32
  0
VERTEX
  5
25987
  8
0
 62
     7
 10
-331.62242254609288
 20
9.9945599999999981
 30
0.0
 70
    32
  0
VERTEX
  5
25988
  8
0
 62
     7
 10
-331.7554225460928
 20
10.1439
 30
0.0
 70
    32
  0
VERTEX
  5
25989
  8
0
 62
     7
 10
-331.88242254609293
 20
10.300700000000001
 30
0.0
 70
    32
  0
VERTEX
  5
2598A
  8
0
 62
     7
 10
-332.00342254609291
 20
10.464700000000001
 30
0.0
 70
    32
  0
VERTEX
  5
2598B
  8
0
 62
     7
 10
-332.11642254609291
 20
10.635400000000001
 30
0.0
 70
    32
  0
VERTEX
  5
2598C
  8
0
 62
     7
 10
-332.2224225460929
 20
10.8124
 30
0.0
 70
    32
  0
VERTEX
  5
2598D
  8
0
 62
     7
 10
-332.32042254609291
 20
10.9953
 30
0.0
 70
    32
  0
VERTEX
  5
2598E
  8
0
 62
     7
 10
-332.41142254609292
 20
11.1838
 30
0.0
 70
    32
  0
VERTEX
  5
2598F
  8
0
 62
     7
 10
-332.49442254609289
 20
11.3772
 30
0.0
 70
    32
  0
VERTEX
  5
25990
  8
0
 62
     7
 10
-332.56842254609279
 20
11.575100000000001
 30
0.0
 70
    32
  0
VERTEX
  5
25991
  8
0
 62
     7
 10
-332.6354225460928
 20
11.777200000000001
 30
0.0
 70
    32
  0
VERTEX
  5
25992
  8
0
 62
     7
 10
-332.69242254609293
 20
11.982799999999999
 30
0.0
 70
    32
  0
VERTEX
  5
25993
  8
0
 62
     7
 10
-332.74142254609291
 20
12.1915
 30
0.0
 70
    32
  0
VERTEX
  5
25994
  8
0
 62
     7
 10
-332.7824225460929
 20
12.402699999999999
 30
0.0
 70
    32
  0
VERTEX
  5
25995
  8
0
 62
     7
 10
-332.8134225460928
 20
12.616099999999999
 30
0.0
 70
    32
  0
VERTEX
  5
25996
  8
0
 62
     7
 10
-332.83642254609288
 20
12.831
 30
0.0
 70
    32
  0
VERTEX
  5
25997
  8
0
 62
     7
 10
-332.84942254609291
 20
13.046900000000001
 30
0.0
 70
    32
  0
VERTEX
  5
25998
  8
0
 62
     7
 10
-332.85442254609279
 20
13.263400000000001
 30
0.0
 70
    32
  0
VERTEX
  5
25999
  8
0
 62
     7
 10
-332.84942254609291
 20
13.479900000000001
 30
0.0
 70
    32
  0
VERTEX
  5
2599A
  8
0
 62
     7
 10
-332.83642254609288
 20
13.6958
 30
0.0
 70
    32
  0
VERTEX
  5
2599B
  8
0
 62
     7
 10
-332.8134225460928
 20
13.9107
 30
0.0
 70
    32
  0
VERTEX
  5
2599C
  8
0
 62
     7
 10
-332.7824225460929
 20
14.1241
 30
0.0
 70
    32
  0
VERTEX
  5
2599D
  8
0
 62
     7
 10
-332.74142254609291
 20
14.3354
 30
0.0
 70
    32
  0
VERTEX
  5
2599E
  8
0
 62
     7
 10
-332.69242254609293
 20
14.5441
 30
0.0
 70
    32
  0
VERTEX
  5
2599F
  8
0
 62
     7
 10
-332.6354225460928
 20
14.749700000000001
 30
0.0
 70
    32
  0
VERTEX
  5
259A0
  8
0
 62
     7
 10
-332.56842254609279
 20
14.951700000000001
 30
0.0
 70
    32
  0
VERTEX
  5
259A1
  8
0
 62
     7
 10
-332.49442254609289
 20
15.149699999999999
 30
0.0
 70
    32
  0
VERTEX
  5
259A2
  8
0
 62
     7
 10
-332.41142254609292
 20
15.3431
 30
0.0
 70
    32
  0
VERTEX
  5
259A3
  8
0
 62
     7
 10
-332.32042254609291
 20
15.531499999999999
 30
0.0
 70
    32
  0
VERTEX
  5
259A4
  8
0
 62
     7
 10
-332.2224225460929
 20
15.714399999999999
 30
0.0
 70
    32
  0
VERTEX
  5
259A5
  8
0
 62
     7
 10
-332.11642254609291
 20
15.891500000000001
 30
0.0
 70
    32
  0
VERTEX
  5
259A6
  8
0
 62
     7
 10
-332.00342254609291
 20
16.062200000000001
 30
0.0
 70
    32
  0
VERTEX
  5
259A7
  8
0
 62
     7
 10
-331.88242254609293
 20
16.226099999999999
 30
0.0
 70
    32
  0
VERTEX
  5
259A8
  8
0
 62
     7
 10
-331.7554225460928
 20
16.382999999999999
 30
0.0
 70
    32
  0
VERTEX
  5
259A9
  8
0
 62
     7
 10
-331.62242254609288
 20
16.532299999999999
 30
0.0
 70
    32
  0
VERTEX
  5
259AA
  8
0
 62
     7
 10
-331.48342254609292
 20
16.6737
 30
0.0
 70
    32
  0
VERTEX
  5
259AB
  8
0
 62
     7
 10
-331.33842254609289
 20
16.806899999999999
 30
0.0
 70
    32
  0
VERTEX
  5
259AC
  8
0
 62
     7
 10
-331.18742254609288
 20
16.9316
 30
0.0
 70
    32
  0
VERTEX
  5
259AD
  8
0
 62
     7
 10
-331.0324225460929
 20
17.0474
 30
0.0
 70
    32
  0
VERTEX
  5
259AE
  8
0
 62
     7
 10
-330.87242254609288
 20
17.154199999999999
 30
0.0
 70
    32
  0
VERTEX
  5
259AF
  8
0
 62
     7
 10
-330.70742254609291
 20
17.2515
 30
0.0
 70
    32
  0
VERTEX
  5
259B0
  8
0
 62
     7
 10
-330.53942254609291
 20
17.339300000000001
 30
0.0
 70
    32
  0
VERTEX
  5
259B1
  8
0
 62
     7
 10
-330.36742254609288
 20
17.417200000000001
 30
0.0
 70
    32
  0
VERTEX
  5
259B2
  8
0
 62
     7
 10
-330.19242254609298
 20
17.485099999999999
 30
0.0
 70
    32
  0
VERTEX
  5
259B3
  8
0
 62
     7
 10
-330.01542254609291
 20
17.542899999999999
 30
0.0
 70
    32
  0
VERTEX
  5
259B4
  8
0
 62
     7
 10
-329.8354225460929
 20
17.590299999999999
 30
0.0
 70
    32
  0
VERTEX
  5
259B5
  8
0
 62
     7
 10
-329.6544225460928
 20
17.627400000000002
 30
0.0
 70
    32
  0
VERTEX
  5
259B6
  8
0
 62
     7
 10
-329.47142254609292
 20
17.6539
 30
0.0
 70
    32
  0
VERTEX
  5
259B7
  8
0
 62
     7
 10
-329.28842254609287
 20
17.669799999999999
 30
0.0
 70
    32
  0
VERTEX
  5
259B8
  8
0
 62
     7
 10
-329.10442254609279
 20
17.6751
 30
0.0
 70
    32
  0
SEQEND
  5
259B9
  8
0
 62
     7
  0
LINE
  5
25C57
  8
0
  6
CONTINUOUS
 62
     7
 10
-418.85421127304647
 20
37.975106589496932
 30
0.0
 11
-418.85421127304647
 21
6.975106589496928
 31
0.0
  0
LINE
  5
25C58
  8
0
  6
CONTINUOUS
 62
     7
 10
-431.35421127304647
 20
47.475106589523449
 30
0.0
 11
-431.35421127304647
 21
-2.524893410529585
 31
0.0
  0
LINE
  5
25C59
  8
0
  6
CONTINUOUS
 62
     7
 10
-429.8542112730467
 20
47.475106589523449
 30
0.0
 11
-429.8542112730467
 21
-2.524893410529585
 31
0.0
  0
LINE
  5
25C5A
  8
0
  6
CONTINUOUS
 62
     7
 10
-428.3542112730467
 20
6.9751065894969289
 30
0.0
 11
-418.85421127304647
 21
6.975106589496928
 31
0.0
  0
LINE
  5
25C5B
  8
0
  6
CONTINUOUS
 62
     7
 10
-431.35421127304647
 20
-2.524893410529585
 30
0.0
 11
-429.8542112730467
 21
-2.524893410529585
 31
0.0
  0
LINE
  5
25C5C
  8
0
  6
CONTINUOUS
 62
     7
 10
-429.8542112730467
 20
37.975106589496932
 30
0.0
 11
-418.85421127304647
 21
37.975106589496932
 31
0.0
  0
LINE
  5
25C5D
  8
0
  6
DASHED
 62
     3
 10
-431.35421127304647
 20
27.475106589470411
 30
0.0
 11
-418.85421127304647
 21
27.475106589470411
 31
0.0
  0
LINE
  5
25C5E
  8
0
  6
DASHED
 62
     3
 10
-431.35421127304647
 20
17.475106589470411
 30
0.0
 11
-429.8542112730467
 21
17.475106589470411
 31
0.0
  0
LINE
  5
25C60
  8
0
  6
CONTINUOUS
 62
     7
 10
-431.35421127304647
 20
47.475106589523449
 30
0.0
 11
-429.8542112730467
 21
47.475106589523449
 31
0.0
  0
LINE
  5
25C61
  8
0
  6
DASHED
 62
     3
 10
-431.35421127304647
 20
40.975106589523442
 30
0.0
 11
-429.8542112730467
 21
40.975106589523442
 31
0.0
  0
LINE
  5
25D7B
  8
0
  6
CONTINUOUS
 62
     7
 10
-428.3542112730467
 20
23.975106589496932
 30
0.0
 11
-428.3542112730467
 21
6.975106589496928
 31
0.0
  0
LINE
  5
25D7C
  8
0
  6
CONTINUOUS
 62
     7
 10
-429.8542112730467
 20
23.975106589496932
 30
0.0
 11
-428.3542112730467
 21
23.975106589496932
 31
0.0
  0
LINE
  5
25D7D
  8
0
  6
DASHED
 62
     3
 10
-428.3542112730467
 20
17.475106589470411
 30
0.0
 11
-418.85421127304647
 21
17.475106589470411
 31
0.0
  0
LINE
  5
25D7E
  8
CENTER
  6
CENTER
 62
     1
 10
-432.8542112730467
 20
22.475106589496932
 30
0.0
 11
-417.3542112730467
 21
22.475106589496932
 31
0.0
  0
LINE
  5
25D82
  8
0
  6
DASHED
 62
     3
 10
-391.83605547843757
 20
23.225106589496932
 30
0.0
 11
-381.29764125636802
 21
23.225106589496932
 31
0.0
  0
LINE
  5
25EBB
  8
0
  6
CONTINUOUS
 62
     7
 10
-324.3542112730463
 20
23.975106589496932
 30
0.0
 11
-324.35421127304619
 21
23.225106589496921
 31
0.0
  0
LINE
  5
25EC8
  8
0
  6
CONTINUOUS
 62
     7
 10
-322.85421127304619
 20
23.975106589496932
 30
0.0
 11
-324.35421127304619
 21
23.975106589496932
 31
0.0
  0
LINE
  5
25ED4
  8
0
  6
CONTINUOUS
 62
     7
 10
-324.3542112730463
 20
21.725106589496932
 30
0.0
 11
-324.35421127304619
 21
6.9751065894969271
 31
0.0
  0
ENDSEC
  0
EOF
