  0
SECTION
  2
HEADER
  9
$ACADVER
  1
AC1009
  9
$INSBASE
 10
0.0
 20
0.0
 30
0.0
  9
$EXTMIN
 10
-55.622100915700457
 20
-28.565875552659922
 30
-0.0015258207003583
  9
$EXTMAX
 10
123.03481377339931
 20
41.74295114621566
 30
0.0000000349246037
  9
$LIMMIN
 10
0.0
 20
0.0
  9
$LIMMAX
 10
297.0
 20
210.0
  9
$ORTHOMODE
 70
     1
  9
$REGENMODE
 70
     1
  9
$FILLMODE
 70
     1
  9
$QTEXTMODE
 70
     0
  9
$MIRRTEXT
 70
     0
  9
$DRAGMODE
 70
     2
  9
$LTSCALE
 40
1.0
  9
$OSMODE
 70
   695
  9
$ATTMODE
 70
     1
  9
$TEXTSIZE
 40
6.4000000000000012
  9
$TRACEWID
 40
0.05
  9
$TEXTSTYLE
  7
STANDARD
  9
$CLAYER
  8
0
  9
$CELTYPE
  6
CONTINUOUS
  9
$CECOLOR
 62
     7
  9
$DIMSCALE
 40
1.0
  9
$DIMASZ
 40
3.0
  9
$DIMEXO
 40
1.0
  9
$DIMDLI
 40
0.0
  9
$DIMRND
 40
0.0
  9
$DIMDLE
 40
0.0
  9
$DIMEXE
 40
1.0
  9
$DIMTP
 40
0.0
  9
$DIMTM
 40
0.0
  9
$DIMTXT
 40
3.2000000000000002
  9
$DIMCEN
 40
0.0
  9
$DIMTSZ
 40
0.0
  9
$DIMTOL
 70
     0
  9
$DIMLIM
 70
     0
  9
$DIMTIH
 70
     0
  9
$DIMTOH
 70
     0
  9
$DIMSE1
 70
     0
  9
$DIMSE2
 70
     0
  9
$DIMTAD
 70
     1
  9
$DIMZIN
 70
     8
  9
$DIMBLK
  1

  9
$DIMASO
 70
     1
  9
$DIMSHO
 70
     1
  9
$DIMPOST
  1

  9
$DIMAPOST
  1

  9
$DIMALT
 70
     0
  9
$DIMALTD
 70
     2
  9
$DIMALTF
 40
0.04
  9
$DIMLFAC
 40
1.0
  9
$DIMTOFL
 70
     1
  9
$DIMTVP
 40
1.0
  9
$DIMTIX
 70
     1
  9
$DIMSOXD
 70
     0
  9
$DIMSAH
 70
     0
  9
$DIMBLK1
  1

  9
$DIMBLK2
  1

  9
$DIMSTYLE
  2
MISUMI
  9
$DIMCLRD
 70
     0
  9
$DIMCLRE
 70
     0
  9
$DIMCLRT
 70
     0
  9
$DIMTFAC
 40
0.6
  9
$DIMGAP
 40
1.0
  9
$LUNITS
 70
     2
  9
$LUPREC
 70
     4
  9
$SKETCHINC
 40
0.1
  9
$FILLETRAD
 40
0.3
  9
$AUNITS
 70
     0
  9
$AUPREC
 70
     0
  9
$MENU
  1
acad
  9
$ELEVATION
 40
0.0
  9
$PELEVATION
 40
0.0
  9
$THICKNESS
 40
0.0
  9
$LIMCHECK
 70
     0
  9
$BLIPMODE
 70
     0
  9
$CHAMFERA
 40
0.5
  9
$CHAMFERB
 40
0.5
  9
$SKPOLY
 70
     0
  9
$TDCREATE
 40
2453766.404361065
  9
$TDUPDATE
 40
2454736.4897756479
  9
$TDINDWG
 40
0.0468597801
  9
$TDUSRTIMER
 40
0.0468592477
  9
$USRTIMER
 70
     1
  9
$ANGBASE
 50
0.0
  9
$ANGDIR
 70
     0
  9
$PDMODE
 70
     0
  9
$PDSIZE
 40
0.0
  9
$PLINEWID
 40
0.0
  9
$COORDS
 70
     1
  9
$SPLFRAME
 70
     0
  9
$SPLINETYPE
 70
     6
  9
$SPLINESEGS
 70
     8
  9
$ATTDIA
 70
     0
  9
$ATTREQ
 70
     1
  9
$HANDLING
 70
     1
  9
$HANDSEED
  5
F6B
  9
$SURFTAB1
 70
     6
  9
$SURFTAB2
 70
     6
  9
$SURFTYPE
 70
     6
  9
$SURFU
 70
     6
  9
$SURFV
 70
     6
  9
$UCSNAME
  2

  9
$UCSORG
 10
0.0
 20
0.0
 30
0.0
  9
$UCSXDIR
 10
1.0
 20
0.0
 30
0.0
  9
$UCSYDIR
 10
0.0
 20
1.0
 30
0.0
  9
$PUCSNAME
  2

  9
$PUCSORG
 10
0.0
 20
0.0
 30
0.0
  9
$PUCSXDIR
 10
1.0
 20
0.0
 30
0.0
  9
$PUCSYDIR
 10
0.0
 20
1.0
 30
0.0
  9
$USERI1
 70
     0
  9
$USERI2
 70
     0
  9
$USERI3
 70
     0
  9
$USERI4
 70
     0
  9
$USERI5
 70
     0
  9
$USERR1
 40
0.0
  9
$USERR2
 40
0.0
  9
$USERR3
 40
0.0
  9
$USERR4
 40
0.0
  9
$USERR5
 40
0.0
  9
$WORLDVIEW
 70
     1
  9
$SHADEDGE
 70
     3
  9
$SHADEDIF
 70
    70
  9
$TILEMODE
 70
     1
  9
$MAXACTVP
 70
    16
  9
$PLIMCHECK
 70
     0
  9
$PEXTMIN
 10
1.0000000000000000E+020
 20
1.0000000000000000E+020
 30
1.0000000000000000E+020
  9
$PEXTMAX
 10
-1.0000000000000000E+020
 20
-1.0000000000000000E+020
 30
-1.0000000000000000E+020
  9
$PLIMMIN
 10
0.0
 20
0.0
  9
$PLIMMAX
 10
12.0
 20
9.0
  9
$UNITMODE
 70
     0
  9
$VISRETAIN
 70
     0
  9
$PLINEGEN
 70
     0
  9
$PSLTSCALE
 70
     1
  0
ENDSEC
  0
SECTION
  2
TABLES
  0
TABLE
  2
VPORT
 70
     1
  0
VPORT
  2
*ACTIVE
 70
     0
 10
0.0
 20
0.0
 11
1.0
 21
1.0
 12
33.706356428849453
 22
6.58853779677787
 13
0.0
 23
0.0
 14
10.0
 24
10.0
 15
10.0
 25
10.0
 16
0.0
 26
0.0
 36
1.0
 17
0.0
 27
0.0
 37
0.0
 40
122.8807749646361
 41
1.461441213653603
 42
50.0
 43
0.0
 44
0.0
 50
0.0
 51
0.0
 71
     0
 72
   100
 73
     1
 74
     3
 75
     0
 76
     0
 77
     0
 78
     0
  0
ENDTAB
  0
TABLE
  2
LTYPE
 70
     3
  0
LTYPE
  2
CONTINUOUS
 70
     0
  3
Solid line
 72
    65
 73
     0
 40
0.0
  0
LTYPE
  2
CENTER
 70
     0
  3
Center ____ _ ____ _ ____ _ ____ _ ____ _ ____
 72
    65
 73
     4
 40
2.0
 49
1.25
 49
-0.25
 49
0.25
 49
-0.25
  0
LTYPE
  2
DASHED
 70
     0
  3
Dashed __ __ __ __ __ __ __ __ __ __ __ __ __ _
 72
    65
 73
     2
 40
0.75
 49
0.5
 49
-0.25
  0
ENDTAB
  0
TABLE
  2
LAYER
 70
     3
  0
LAYER
  2
0
 70
     0
 62
     7
  6
CONTINUOUS
  0
LAYER
  2
CENTER
 70
     0
 62
     1
  6
CENTER
  0
ENDTAB
  0
TABLE
  2
STYLE
 70
     2
  0
STYLE
  2
STANDARD
 70
     0
 40
0.0
 41
1.0
 50
0.0
 71
     0
 42
6.4000000000000012
  3
txt.shx
  4
bigfont.shx
  0
ENDTAB
  0
TABLE
  2
VIEW
 70
     0
  0
ENDTAB
  0
TABLE
  2
UCS
 70
     0
  0
ENDTAB
  0
TABLE
  2
APPID
 70
     5
  0
APPID
  2
ACAD
 70
     0
  0
APPID
  2
ACAD_DSTYLE_DIMTEXT_FILL
 70
     0
  0
APPID
  2
ACAD_PSEXT
 70
     0
  0
APPID
  2
ACAECLAYERSTANDARD
 70
     0
  0
APPID
  2
ACAD_EXEMPT_FROM_CAD_STANDARDS
 70
     0
  0
ENDTAB
  0
TABLE
  2
DIMSTYLE
 70
     2
  0
DIMSTYLE
  2
MISUMI
 70
     0
  3

  4

  5

  6

  7

 40
1.0
 41
3.0
 42
1.0
 43
0.0
 44
1.0
 45
0.0
 46
0.0
 47
0.0
 48
0.0
140
3.2000000000000002
141
0.0
142
0.0
143
0.04
144
1.0
145
1.0
146
0.6
147
1.0
 71
     0
 72
     0
 73
     0
 74
     0
 75
     0
 76
     0
 77
     1
 78
     8
170
     0
171
     2
172
     1
173
     0
174
     1
175
     0
176
     0
177
     0
178
     0
  0
ENDTAB
  0
ENDSEC
  0
SECTION
  2
BLOCKS
  0
BLOCK
  8
0
  2
$MODEL_SPACE
 70
     0
 10
0.0
 20
0.0
 30
0.0
  3
$MODEL_SPACE
  1

  0
ENDBLK
  5
F2F
  8
0
  0
BLOCK
 67
     1
  8
0
  2
$PAPER_SPACE
 70
     0
 10
0.0
 20
0.0
 30
0.0
  3
$PAPER_SPACE
  1

  0
ENDBLK
  5
F2B
 67
     1
  8
0
  0
ENDSEC
  0
SECTION
  2
ENTITIES
  0
TEXT
  5
4A7
  8
0
  6
CONTINUOUS
 62
     7
 10
-55.611340892531722
 20
-23.097336020298709
 30
0.0
 40
3.2000000000000002
  1
HFFS6-3030-50
  0
TEXT
  5
79B
  8
0
  6
CONTINUOUS
 62
     7
 10
-55.611340892531722
 20
-28.558595877501851
 30
0.0
 40
3.2000000000000002
  1
HFFS6-3030
  0
LINE
  5
DBE
  8
0
  6
CONTINUOUS
 62
     7
 10
12.01098964844522
 20
6.7401018046408758
 30
0.0
 11
20.610989648445209
 21
6.7401018046408758
 31
0.0
  0
LINE
  5
DBF
  8
0
  6
CONTINUOUS
 62
     7
 10
40.010989648445218
 20
8.7401018046408776
 30
0.0
 11
40.010989648445218
 21
17.340101804640859
 31
0.0
  0
LINE
  5
DC0
  8
0
  6
CONTINUOUS
 62
     7
 10
38.010989648445218
 20
36.740101804640851
 30
0.0
 11
27.210989648445171
 21
36.740101804640851
 31
0.0
  0
LINE
  5
DC1
  8
0
  6
CONTINUOUS
 62
     7
 10
10.010989648445239
 20
34.740101804640858
 30
0.0
 11
10.010989648445239
 21
26.14010180464086
 31
0.0
  0
ARC
  5
DC2
  8
0
  6
CONTINUOUS
 62
     7
 10
12.01098964844522
 20
8.7401018046408776
 30
0.0
 40
2.0
 50
180.0
 51
270.0
  0
ARC
  5
DC3
  8
0
  6
CONTINUOUS
 62
     7
 10
12.01098964844522
 20
34.740101804640858
 30
0.0
 40
2.0
 50
90.0
 51
180.0
  0
ARC
  5
DC4
  8
0
  6
CONTINUOUS
 62
     7
 10
38.010989648445218
 20
34.740101804640858
 30
0.0
 40
2.0
 50
0.0
 51
90.0
  0
ARC
  5
DC5
  8
0
  6
CONTINUOUS
 62
     7
 10
38.010989648445218
 20
8.7401018046408776
 30
0.0
 40
2.0
 50
270.0
 51
0.0
  0
LINE
  5
DC6
  8
0
  6
CONTINUOUS
 62
     7
 10
20.549467279530258
 20
15.74010180464087
 30
0.0
 11
23.793088033448559
 21
15.74010180464087
 31
0.0
  0
ARC
  5
DC7
  8
0
  6
CONTINUOUS
 62
     7
 10
20.549467279530258
 20
15.440101804640859
 30
0.0
 40
0.3
 50
90.0
 51
134.9999999999994
  0
LINE
  5
DC8
  8
0
  6
CONTINUOUS
 62
     7
 10
31.010989648445211
 20
26.20162417355586
 30
0.0
 11
31.010989648445211
 21
22.95800342584505
 31
0.0
  0
ARC
  5
DC9
  8
0
  6
CONTINUOUS
 62
     7
 10
31.310989648445219
 20
26.20162417355586
 30
0.0
 40
0.3
 50
134.9999999999994
 51
180.0
  0
LINE
  5
DCA
  8
0
  6
CONTINUOUS
 62
     7
 10
19.010989648445172
 20
26.20162417355581
 30
0.0
 11
19.010989648445211
 21
22.958003419637599
 31
0.0
  0
LINE
  5
DCB
  8
0
  6
CONTINUOUS
 62
     7
 10
15.43464405171617
 20
29.902233838996811
 30
0.0
 11
18.923121682801121
 21
26.413756207911771
 31
0.0
  0
ARC
  5
DCC
  8
0
  6
CONTINUOUS
 62
     7
 10
18.710989648445171
 20
26.20162417355581
 30
0.0
 40
0.3
 50
0.0
 51
45.000000000000568
  0
LINE
  5
DCD
  8
0
  6
CONTINUOUS
 62
     7
 10
34.587335245174224
 20
29.902233838996771
 30
0.0
 11
31.09885761408928
 21
26.41375620791186
 31
0.0
  0
ARC
  5
DCE
  8
0
  6
CONTINUOUS
 62
     7
 10
34.799467279530163
 20
29.690101804640801
 30
0.0
 40
0.3
 50
89.999999999999204
 51
134.9999999999994
  0
LINE
  5
DCF
  8
0
  6
CONTINUOUS
 62
     7
 10
10.41098964844522
 20
25.740101804640869
 30
0.0
 11
11.6109896484452
 21
25.740101804640869
 31
0.0
  0
LINE
  5
DD0
  8
0
  6
CONTINUOUS
 62
     7
 10
10.41098964844522
 20
17.740101804640879
 30
0.0
 11
11.6109896484452
 21
17.740101804640879
 31
0.0
  0
LINE
  5
DD1
  8
0
  6
CONTINUOUS
 62
     7
 10
26.810989648445219
 20
36.340101804640852
 30
0.0
 11
26.810989648445219
 21
28.040101804640859
 31
0.0
  0
ARC
  5
DD2
  8
0
  6
CONTINUOUS
 62
     7
 10
26.510989648445221
 20
28.040101804640859
 30
0.0
 40
0.3
 50
270.0
 51
0.0
  0
LINE
  5
DD3
  8
0
  6
CONTINUOUS
 62
     7
 10
23.21098964844521
 20
36.340101804640852
 30
0.0
 11
23.21098964844521
 21
28.040101804640909
 31
0.0
  0
ARC
  5
DD4
  8
0
  6
CONTINUOUS
 62
     7
 10
23.510989648445221
 20
28.040101804640909
 30
0.0
 40
0.3
 50
180.0
 51
269.9999999999992
  0
LINE
  5
DD5
  8
0
  6
CONTINUOUS
 62
     7
 10
38.41098964844516
 20
25.740101804640869
 30
0.0
 11
39.610989648445219
 21
25.740101804640869
 31
0.0
  0
LINE
  5
DD6
  8
0
  6
CONTINUOUS
 62
     7
 10
29.010989648445221
 20
8.3401018046408666
 30
0.0
 11
29.010989648445221
 21
7.1401018046408771
 31
0.0
  0
LINE
  5
DD7
  8
0
  6
CONTINUOUS
 62
     7
 10
38.41098964844516
 20
17.740101804640879
 30
0.0
 11
39.610989648445219
 21
17.740101804640879
 31
0.0
  0
LINE
  5
DD8
  8
0
  6
CONTINUOUS
 62
     7
 10
21.010989648445221
 20
8.3401018046408666
 30
0.0
 11
21.010989648445221
 21
7.1401018046408771
 31
0.0
  0
LINE
  5
DD9
  8
0
  6
CONTINUOUS
 62
     7
 10
18.923121682801199
 20
17.066447401369931
 30
0.0
 11
15.43464405171615
 21
13.57796977028492
 31
0.0
  0
ARC
  5
DDA
  8
0
  6
CONTINUOUS
 62
     7
 10
15.2225120173602
 20
13.79010180464088
 30
0.0
 40
0.3
 50
270.0
 51
314.99999999999949
  0
LINE
  5
DDB
  8
0
  6
CONTINUOUS
 62
     7
 10
20.337335245174309
 20
15.65223383899683
 30
0.0
 11
16.848857614089269
 21
12.163756207911851
 31
0.0
  0
ARC
  5
DDC
  8
0
  6
CONTINUOUS
 62
     7
 10
17.060989648445211
 20
11.95162417355589
 30
0.0
 40
0.3
 50
134.9999999999994
 51
180.0000000000008
  0
LINE
  5
DDD
  8
0
  6
CONTINUOUS
 62
     7
 10
29.684644051716109
 20
15.65223383899685
 30
0.0
 11
33.173121682801181
 21
12.16375620791179
 31
0.0
  0
LINE
  5
DDE
  8
0
  6
CONTINUOUS
 62
     7
 10
31.098857614089329
 20
17.066447401369899
 30
0.0
 11
34.587335245174224
 21
13.57796977028492
 31
0.0
  0
ARC
  5
DDF
  8
0
  6
CONTINUOUS
 62
     7
 10
34.799467279530212
 20
13.79010180464088
 30
0.0
 40
0.3
 50
225.0000000000006
 51
270.0000000000008
  0
LINE
  5
DE0
  8
0
  6
CONTINUOUS
 62
     7
 10
38.010989648445218
 20
13.7901018046409
 30
0.0
 11
38.010989648445218
 21
17.340101804640859
 31
0.0
  0
ARC
  5
DE1
  8
0
  6
CONTINUOUS
 62
     7
 10
37.710989648445228
 20
13.7901018046409
 30
0.0
 40
0.3
 50
270.0
 51
0.0
  0
LINE
  5
DE2
  8
0
  6
CONTINUOUS
 62
     7
 10
12.01098964844528
 20
29.690101804640861
 30
0.0
 11
12.01098964844522
 21
26.14010180464086
 31
0.0
  0
ARC
  5
DE3
  8
0
  6
CONTINUOUS
 62
     7
 10
12.310989648445281
 20
29.690101804640861
 30
0.0
 40
0.3
 50
90.0
 51
180.0
  0
LINE
  5
DE4
  8
0
  6
CONTINUOUS
 62
     7
 10
17.060989648445268
 20
8.7401018046408776
 30
0.0
 11
20.610989648445209
 21
8.7401018046408776
 31
0.0
  0
LINE
  5
DE5
  8
0
  6
CONTINUOUS
 62
     7
 10
29.41098964844522
 20
8.7401018046408776
 30
0.0
 11
32.960989648445171
 21
8.7401018046408776
 31
0.0
  0
ARC
  5
DE6
  8
0
  6
CONTINUOUS
 62
     7
 10
32.960989648445171
 20
9.0401018046408872
 30
0.0
 40
0.3
 50
270.0
 51
359.9999999999992
  0
LINE
  5
DE7
  8
0
  6
CONTINUOUS
 62
     7
 10
29.41098964844522
 20
6.7401018046408758
 30
0.0
 11
38.010989648445218
 21
6.7401018046408758
 31
0.0
  0
LINE
  5
DE8
  8
0
  6
CONTINUOUS
 62
     7
 10
10.010989648445239
 20
17.340101804640859
 30
0.0
 11
10.010989648445239
 21
8.7401018046408776
 31
0.0
  0
LINE
  5
DE9
  8
0
  6
CONTINUOUS
 62
     7
 10
12.01098964844522
 20
17.340101804640859
 30
0.0
 11
12.01098964844522
 21
13.79010180464088
 31
0.0
  0
ARC
  5
DEA
  8
0
  6
CONTINUOUS
 62
     7
 10
12.31098964844522
 20
13.79010180464088
 30
0.0
 40
0.3
 50
180.0
 51
270.0
  0
LINE
  5
DEB
  8
0
  6
CONTINUOUS
 62
     7
 10
22.810989648445219
 20
36.740101804640851
 30
0.0
 11
12.01098964844522
 21
36.740101804640851
 31
0.0
  0
LINE
  5
DEC
  8
0
  6
CONTINUOUS
 62
     7
 10
40.010989648445218
 20
26.14010180464086
 30
0.0
 11
40.010989648445218
 21
34.740101804640858
 31
0.0
  0
LINE
  5
DED
  8
0
  6
CONTINUOUS
 62
     7
 10
38.010989648445218
 20
26.14010180464086
 30
0.0
 11
38.010989648445218
 21
29.690101804640801
 31
0.0
  0
ARC
  5
DEE
  8
0
  6
CONTINUOUS
 62
     7
 10
37.710989648445228
 20
29.690101804640801
 30
0.0
 40
0.3
 50
0.0
 51
90.0
  0
LINE
  5
DEF
  8
0
  6
CONTINUOUS
 62
     7
 10
12.310989648445281
 20
29.990101804640862
 30
0.0
 11
15.222512017360209
 21
29.990101804640862
 31
0.0
  0
ARC
  5
DF0
  8
0
  6
CONTINUOUS
 62
     7
 10
15.222512017360209
 20
29.690101804640861
 30
0.0
 40
0.3
 50
44.999999999999417
 51
90.0
  0
LINE
  5
DF1
  8
0
  6
CONTINUOUS
 62
     7
 10
12.31098964844522
 20
13.49010180464087
 30
0.0
 11
15.2225120173602
 21
13.49010180464087
 31
0.0
  0
LINE
  5
DF2
  8
0
  6
CONTINUOUS
 62
     7
 10
33.260989648445268
 20
11.95162417355583
 30
0.0
 11
33.260989648445182
 21
9.0401018046408872
 31
0.0
  0
ARC
  5
DF3
  8
0
  6
CONTINUOUS
 62
     7
 10
32.960989648445207
 20
11.95162417355583
 30
0.0
 40
0.3
 50
0.0
 51
45.000000000000568
  0
LINE
  5
DF4
  8
0
  6
CONTINUOUS
 62
     7
 10
16.760989648445221
 20
11.95162417355589
 30
0.0
 11
16.760989648445271
 21
9.0401018046408872
 31
0.0
  0
ARC
  5
DF5
  8
0
  6
CONTINUOUS
 62
     7
 10
17.060989648445268
 20
9.0401018046408872
 30
0.0
 40
0.3
 50
180.0
 51
270.0
  0
LINE
  5
DF6
  8
0
  6
CONTINUOUS
 62
     7
 10
34.799467279530163
 20
29.990101804640801
 30
0.0
 11
37.710989648445228
 21
29.990101804640801
 31
0.0
  0
LINE
  5
DF7
  8
0
  6
CONTINUOUS
 62
     7
 10
34.799467279530212
 20
13.49010180464087
 30
0.0
 11
37.710989648445228
 21
13.490101804640901
 31
0.0
  0
LINE
  5
DF8
  8
0
  6
CONTINUOUS
 62
     7
 10
19.010989648445211
 20
20.522200183436802
 30
0.0
 11
19.010989648445271
 21
17.27857943572587
 31
0.0
  0
ARC
  5
DF9
  8
0
  6
CONTINUOUS
 62
     7
 10
18.71098964844521
 20
17.27857943572587
 30
0.0
 40
0.3
 50
314.99999999999949
 51
0.0
  0
LINE
  5
DFA
  8
0
  6
CONTINUOUS
 62
     7
 10
26.22889126964942
 20
15.74010180464087
 30
0.0
 11
29.472512017360181
 21
15.740101804640879
 31
0.0
  0
ARC
  5
DFB
  8
0
  6
CONTINUOUS
 62
     7
 10
29.472512017360181
 20
15.44010180464088
 30
0.0
 40
0.3
 50
45.000000000000568
 51
90.0
  0
LINE
  5
DFC
  8
0
  6
CONTINUOUS
 62
     7
 10
31.010989648445211
 20
20.522200189644209
 30
0.0
 11
31.010989648445271
 21
17.27857943572586
 31
0.0
  0
ARC
  5
DFD
  8
0
  6
CONTINUOUS
 62
     7
 10
31.310989648445279
 20
17.27857943572586
 30
0.0
 40
0.3
 50
180.0
 51
225.0000000000006
  0
LINE
  5
DFE
  8
0
  6
CONTINUOUS
 62
     7
 10
23.510989648445221
 20
27.740101804640911
 30
0.0
 11
26.510989648445221
 21
27.740101804640801
 31
0.0
  0
LINE
  5
DFF
  8
0
  6
CONTINUOUS
 62
     7
 10
15.360989648445191
 20
7.7401018046408758
 30
0.0
 11
13.835987448445239
 21
7.7401018046413874
 31
0.0
  0
LINE
  5
E00
  8
0
  6
CONTINUOUS
 62
     7
 10
12.6359889151113
 20
7.7401018046408758
 30
0.0
 11
12.3693229151112
 21
7.7401018046408758
 31
0.0
  0
ARC
  5
E01
  8
0
  6
CONTINUOUS
 62
     7
 10
12.6359889151113
 20
7.9401018046408964
 30
0.0
 40
0.2
 50
270.0
 51
0.0
  0
LINE
  5
E02
  8
0
  6
CONTINUOUS
 62
     7
 10
11.969322915111199
 20
8.8466487171138386
 30
0.0
 11
11.21098964844521
 21
8.8466487171138386
 31
0.0
  0
LINE
  5
E03
  8
0
  6
CONTINUOUS
 62
     7
 10
11.21098964844521
 20
9.5133147171137686
 30
0.0
 11
11.21098964844521
 21
9.5133147171137686
 31
0.0
  0
ARC
  5
E04
  8
0
  6
CONTINUOUS
 62
     7
 10
11.21098964844521
 20
9.3133147171137587
 30
0.0
 40
0.2
 50
90.0
 51
180.0
  0
LINE
  5
E05
  8
0
  6
CONTINUOUS
 62
     7
 10
13.43598744844471
 20
8.5151018046417377
 30
0.0
 11
13.03598891511076
 21
8.5151018046407181
 31
0.0
  0
ARC
  5
E06
  8
0
  6
CONTINUOUS
 62
     7
 10
15.360989648445191
 20
8.1401018046408762
 30
0.0
 40
0.4
 50
270.0
 51
0.0
  0
LINE
  5
E07
  8
0
  6
CONTINUOUS
 62
     7
 10
11.01098964844522
 20
9.046648717113829
 30
0.0
 11
11.01098964844522
 21
9.3133147171137587
 31
0.0
  0
ARC
  5
E08
  8
0
  6
CONTINUOUS
 62
     7
 10
11.21098964844521
 20
9.046648717113829
 30
0.0
 40
0.2
 50
180.0
 51
270.0
  0
LINE
  5
E09
  8
0
  6
CONTINUOUS
 62
     7
 10
11.01098964844522
 20
10.513314117113611
 30
0.0
 11
11.01098964844522
 21
12.090101804640859
 31
0.0
  0
ARC
  5
E0A
  8
0
  6
CONTINUOUS
 62
     7
 10
11.21098964844521
 20
10.513314117113611
 30
0.0
 40
0.2
 50
180.0
 51
270.0
  0
LINE
  5
E0B
  8
0
  6
CONTINUOUS
 62
     7
 10
12.16932291511122
 20
7.9401018046408964
 30
0.0
 11
12.16932291511122
 21
8.6466487171138269
 31
0.0
  0
ARC
  5
E0C
  8
0
  6
CONTINUOUS
 62
     7
 10
12.3693229151112
 20
7.9401018046408964
 30
0.0
 40
0.2
 50
179.99999999999841
 51
270.0
  0
LINE
  5
E0D
  8
0
  6
CONTINUOUS
 62
     7
 10
12.83598891511129
 20
7.9401018046408964
 30
0.0
 11
12.83598891511129
 21
7.9401018046408964
 31
0.0
  0
LINE
  5
E0E
  8
0
  6
CONTINUOUS
 62
     7
 10
13.635987448445251
 20
7.940101804641408
 30
0.0
 11
13.635987448445251
 21
7.940101804641408
 31
0.0
  0
ARC
  5
E0F
  8
0
  6
CONTINUOUS
 62
     7
 10
13.835987448445239
 20
7.940101804641408
 30
0.0
 40
0.2
 50
180.0
 51
270.0
  0
LINE
  5
E10
  8
0
  6
CONTINUOUS
 62
     7
 10
11.83776684659661
 20
9.7133147171137662
 30
0.0
 11
11.83776684659661
 21
10.113314117113569
 31
0.0
  0
ARC
  5
E11
  8
0
  6
CONTINUOUS
 62
     7
 10
11.41098964844522
 20
12.090101804640859
 30
0.0
 40
0.4
 50
90.0
 51
180.0
  0
LINE
  5
E12
  8
0
  6
CONTINUOUS
 62
     7
 10
15.76098964844523
 20
11.99010180464087
 30
0.0
 11
15.76098964844523
 21
8.1401018046408762
 31
0.0
  0
LINE
  5
E13
  8
0
  6
CONTINUOUS
 62
     7
 10
22.210989648445221
 20
35.340101804640852
 30
0.0
 11
22.210989648445221
 21
28.1401018046408
 31
0.0
  0
LINE
  5
E14
  8
0
  6
CONTINUOUS
 62
     7
 10
15.26098964844523
 20
12.49010180464087
 30
0.0
 11
11.41098964844522
 21
12.49010180464084
 31
0.0
  0
ARC
  5
E15
  8
0
  6
CONTINUOUS
 62
     7
 10
15.26098964844523
 20
11.99010180464087
 30
0.0
 40
0.5
 50
0.0
 51
90.0
  0
LINE
  5
E16
  8
0
  6
CONTINUOUS
 62
     7
 10
15.595304223496001
 20
30.990101804640911
 30
0.0
 11
11.41098964844522
 21
30.990101804640869
 31
0.0
  0
ARC
  5
E17
  8
0
  6
CONTINUOUS
 62
     7
 10
25.010989648445221
 20
21.740101804640869
 30
0.0
 40
3.399999999999999
 50
67.619864948040288
 51
112.3801350519597
  0
LINE
  5
E18
  8
0
  6
CONTINUOUS
 62
     7
 10
22.805854728469921
 20
26.54010180464072
 30
0.0
 11
20.41098964844527
 21
26.54010180464072
 31
0.0
  0
LINE
  5
E19
  8
0
  6
CONTINUOUS
 62
     7
 10
29.610989648445049
 20
26.54010180464072
 30
0.0
 11
27.216124568420469
 21
26.54010180464072
 31
0.0
  0
ARC
  5
E1A
  8
0
  6
CONTINUOUS
 62
     7
 10
29.610989648445049
 20
26.340101804640859
 30
0.0
 40
0.2
 50
0.0
 51
90.0
  0
ARC
  5
E1B
  8
0
  6
CONTINUOUS
 62
     7
 10
29.41098964844522
 20
7.1401018046408771
 30
0.0
 40
0.4
 50
180.0
 51
270.0
  0
ARC
  5
E1C
  8
0
  6
CONTINUOUS
 62
     7
 10
29.41098964844522
 20
8.3401018046408666
 30
0.0
 40
0.4
 50
90.0
 51
180.0
  0
ARC
  5
E1D
  8
0
  6
CONTINUOUS
 62
     7
 10
20.610989648445209
 20
7.1401018046408771
 30
0.0
 40
0.4
 50
270.0
 51
0.0
  0
ARC
  5
E1E
  8
0
  6
CONTINUOUS
 62
     7
 10
20.610989648445209
 20
8.3401018046408666
 30
0.0
 40
0.4
 50
0.0
 51
90.0
  0
ARC
  5
E1F
  8
0
  6
CONTINUOUS
 62
     7
 10
10.41098964844522
 20
17.340101804640859
 30
0.0
 40
0.4
 50
90.0
 51
180.0
  0
ARC
  5
E20
  8
0
  6
CONTINUOUS
 62
     7
 10
11.6109896484452
 20
17.340101804640859
 30
0.0
 40
0.4
 50
0.0
 51
90.0
  0
ARC
  5
E21
  8
0
  6
CONTINUOUS
 62
     7
 10
11.6109896484452
 20
26.14010180464086
 30
0.0
 40
0.4
 50
270.0
 51
0.0
  0
ARC
  5
E22
  8
0
  6
CONTINUOUS
 62
     7
 10
10.41098964844522
 20
26.14010180464086
 30
0.0
 40
0.4
 50
180.0
 51
270.0
  0
ARC
  5
E23
  8
0
  6
CONTINUOUS
 62
     7
 10
22.810989648445219
 20
36.340101804640852
 30
0.0
 40
0.4
 50
0.0
 51
90.0
  0
ARC
  5
E24
  8
0
  6
CONTINUOUS
 62
     7
 10
27.210989648445171
 20
36.340101804640852
 30
0.0
 40
0.4
 50
90.0
 51
180.0
  0
ARC
  5
E25
  8
0
  6
CONTINUOUS
 62
     7
 10
39.610989648445219
 20
26.14010180464086
 30
0.0
 40
0.4
 50
270.0
 51
0.0
  0
ARC
  5
E26
  8
0
  6
CONTINUOUS
 62
     7
 10
38.41098964844516
 20
26.14010180464086
 30
0.0
 40
0.4
 50
180.0
 51
270.0
  0
ARC
  5
E27
  8
0
  6
CONTINUOUS
 62
     7
 10
38.41098964844516
 20
17.340101804640859
 30
0.0
 40
0.4
 50
90.0
 51
180.0
  0
ARC
  5
E28
  8
0
  6
CONTINUOUS
 62
     7
 10
39.610989648445219
 20
17.340101804640859
 30
0.0
 40
0.4
 50
0.0
 51
90.0
  0
LINE
  5
E29
  8
0
  6
CONTINUOUS
 62
     7
 10
11.21098964844521
 20
10.31331411711359
 30
0.0
 11
11.637766846596611
 21
10.31331411711359
 31
0.0
  0
LINE
  5
E2A
  8
0
  6
CONTINUOUS
 62
     7
 10
11.21098964844521
 20
9.5133147171137686
 30
0.0
 11
11.637766846596589
 21
9.5133147171137686
 31
0.0
  0
LINE
  5
E2B
  8
0
  6
CONTINUOUS
 62
     7
 10
12.83598891511129
 20
7.9401018046408964
 30
0.0
 11
12.83598891511129
 21
8.3151018046407241
 31
0.0
  0
LINE
  5
E2C
  8
0
  6
CONTINUOUS
 62
     7
 10
13.635987448445251
 20
7.940101804641408
 30
0.0
 11
13.635987448445251
 21
8.3151018046417491
 31
0.0
  0
LINE
  5
E2D
  8
0
  6
CONTINUOUS
 62
     7
 10
34.660989648445181
 20
7.7401018046408758
 30
0.0
 11
36.23777733597251
 21
7.7401018046408758
 31
0.0
  0
LINE
  5
E2E
  8
0
  6
CONTINUOUS
 62
     7
 10
37.437776735972321
 20
7.7401018046408758
 30
0.0
 11
37.7044427359724
 21
7.7401018046408758
 31
0.0
  0
ARC
  5
E2F
  8
0
  6
CONTINUOUS
 62
     7
 10
37.437776735972321
 20
7.9401018046408964
 30
0.0
 40
0.2
 50
180.0
 51
270.0
  0
LINE
  5
E30
  8
0
  6
CONTINUOUS
 62
     7
 10
38.104442735972363
 20
8.8984350713068583
 30
0.0
 11
38.810989648445222
 21
8.8984350713068583
 31
0.0
  0
LINE
  5
E31
  8
0
  6
CONTINUOUS
 62
     7
 10
38.810989648445222
 20
9.5651010713069606
 30
0.0
 11
38.810989648445222
 21
9.5651010713069606
 31
0.0
  0
ARC
  5
E32
  8
0
  6
CONTINUOUS
 62
     7
 10
38.810989648445222
 20
9.3651010713069383
 30
0.0
 40
0.2
 50
0.0
 51
90.0
  0
LINE
  5
E33
  8
0
  6
CONTINUOUS
 62
     7
 10
36.637777335972523
 20
8.566879002792259
 30
0.0
 11
37.037776735972322
 21
8.566879002792259
 31
0.0
  0
ARC
  5
E34
  8
0
  6
CONTINUOUS
 62
     7
 10
34.660989648445181
 20
8.1401018046408762
 30
0.0
 40
0.4
 50
180.0
 51
270.0
  0
LINE
  5
E35
  8
0
  6
CONTINUOUS
 62
     7
 10
39.010989648445232
 20
9.0984350713068665
 30
0.0
 11
39.010989648445232
 21
9.3651010713069383
 31
0.0
  0
ARC
  5
E36
  8
0
  6
CONTINUOUS
 62
     7
 10
38.810989648445222
 20
9.0984350713068665
 30
0.0
 40
0.2
 50
270.0
 51
0.0
  0
LINE
  5
E37
  8
0
  6
CONTINUOUS
 62
     7
 10
39.010989648445232
 20
10.56509960464097
 30
0.0
 11
39.010989648445232
 21
12.090101804640859
 31
0.0
  0
ARC
  5
E38
  8
0
  6
CONTINUOUS
 62
     7
 10
38.810989648445222
 20
10.56509960464097
 30
0.0
 40
0.2
 50
270.0
 51
0.0
  0
LINE
  5
E39
  8
0
  6
CONTINUOUS
 62
     7
 10
37.90444273597236
 20
7.9401018046408964
 30
0.0
 11
37.90444273597236
 21
8.6984350713068377
 31
0.0
  0
ARC
  5
E3A
  8
0
  6
CONTINUOUS
 62
     7
 10
37.7044427359724
 20
7.9401018046408964
 30
0.0
 40
0.2
 50
270.0
 51
0.0
  0
LINE
  5
E3B
  8
0
  6
CONTINUOUS
 62
     7
 10
37.237776735972332
 20
7.9401018046408964
 30
0.0
 11
37.237776735972332
 21
7.9401018046408964
 31
0.0
  0
LINE
  5
E3C
  8
0
  6
CONTINUOUS
 62
     7
 10
36.437777335972477
 20
7.9401018046408964
 30
0.0
 11
36.437777335972477
 21
7.9401018046408964
 31
0.0
  0
ARC
  5
E3D
  8
0
  6
CONTINUOUS
 62
     7
 10
36.23777733597251
 20
7.9401018046408964
 30
0.0
 40
0.2
 50
270.0
 51
359.99999999999841
  0
LINE
  5
E3E
  8
0
  6
CONTINUOUS
 62
     7
 10
38.235989648445099
 20
9.7651010713069475
 30
0.0
 11
38.235989648445099
 21
10.16509960464094
 31
0.0
  0
ARC
  5
E3F
  8
0
  6
CONTINUOUS
 62
     7
 10
38.610989648445219
 20
12.090101804640859
 30
0.0
 40
0.4
 50
0.0
 51
90.0
  0
LINE
  5
E40
  8
0
  6
CONTINUOUS
 62
     7
 10
34.260989648445211
 20
11.99010180464087
 30
0.0
 11
34.260989648445211
 21
8.1401018046408762
 31
0.0
  0
LINE
  5
E41
  8
0
  6
CONTINUOUS
 62
     7
 10
34.760989648445211
 20
12.49010180464087
 30
0.0
 11
38.610989648445219
 21
12.49010180464084
 31
0.0
  0
ARC
  5
E42
  8
0
  6
CONTINUOUS
 62
     7
 10
34.760989648445211
 20
11.99010180464087
 30
0.0
 40
0.5
 50
90.0
 51
180.0
  0
LINE
  5
E43
  8
0
  6
CONTINUOUS
 62
     7
 10
38.810989648445222
 20
10.36509960464095
 30
0.0
 11
38.435989648445052
 21
10.365099604640919
 31
0.0
  0
LINE
  5
E44
  8
0
  6
CONTINUOUS
 62
     7
 10
38.810989648445222
 20
9.5651010713069606
 30
0.0
 11
38.435989648445108
 21
9.5651010713069287
 31
0.0
  0
LINE
  5
E45
  8
0
  6
CONTINUOUS
 62
     7
 10
37.237776735972332
 20
7.9401018046408964
 30
0.0
 11
37.237776735972332
 21
8.3668790027922384
 31
0.0
  0
LINE
  5
E46
  8
0
  6
CONTINUOUS
 62
     7
 10
36.437777335972477
 20
7.9401018046408964
 30
0.0
 11
36.437777335972477
 21
8.3668790027922384
 31
0.0
  0
LINE
  5
E47
  8
0
  6
CONTINUOUS
 62
     7
 10
21.810989648445219
 20
35.740101804640851
 30
0.0
 11
13.78420196091783
 21
35.740101804640851
 31
0.0
  0
LINE
  5
E48
  8
0
  6
CONTINUOUS
 62
     7
 10
12.58420256091812
 20
35.740101804640851
 30
0.0
 11
12.31753656091805
 21
35.740101804640851
 31
0.0
  0
ARC
  5
E49
  8
0
  6
CONTINUOUS
 62
     7
 10
12.58420256091812
 20
35.540101804640862
 30
0.0
 40
0.2
 50
0.0
 51
90.0
  0
LINE
  5
E4A
  8
0
  6
CONTINUOUS
 62
     7
 10
11.91753656091802
 20
34.581768537974909
 30
0.0
 11
11.21098964844521
 21
34.581768537974909
 31
0.0
  0
LINE
  5
E4B
  8
0
  6
CONTINUOUS
 62
     7
 10
11.21098964844521
 20
33.91510253797496
 30
0.0
 11
11.21098964844521
 21
33.91510253797496
 31
0.0
  0
ARC
  5
E4C
  8
0
  6
CONTINUOUS
 62
     7
 10
11.21098964844521
 20
34.115102537974913
 30
0.0
 40
0.2
 50
180.0
 51
270.0
  0
LINE
  5
E4D
  8
0
  6
CONTINUOUS
 62
     7
 10
13.38420196091783
 20
34.91332460648961
 30
0.0
 11
12.984202560918121
 21
34.91332460648961
 31
0.0
  0
LINE
  5
E4E
  8
0
  6
CONTINUOUS
 62
     7
 10
11.01098964844522
 20
34.381768537974892
 30
0.0
 11
11.01098964844522
 21
34.115102537974913
 31
0.0
  0
ARC
  5
E4F
  8
0
  6
CONTINUOUS
 62
     7
 10
11.21098964844521
 20
34.381768537974892
 30
0.0
 40
0.2
 50
90.0
 51
180.0
  0
LINE
  5
E50
  8
0
  6
CONTINUOUS
 62
     7
 10
11.01098964844522
 20
32.915104004640909
 30
0.0
 11
11.01098964844522
 21
31.39010180464086
 31
0.0
  0
ARC
  5
E51
  8
0
  6
CONTINUOUS
 62
     7
 10
11.21098964844521
 20
32.915104004640909
 30
0.0
 40
0.2
 50
90.0
 51
180.0
  0
LINE
  5
E52
  8
0
  6
CONTINUOUS
 62
     7
 10
12.11753656091803
 20
35.540101804640862
 30
0.0
 11
12.11753656091803
 21
34.781768537974898
 31
0.0
  0
ARC
  5
E53
  8
0
  6
CONTINUOUS
 62
     7
 10
12.31753656091805
 20
35.540101804640862
 30
0.0
 40
0.2
 50
90.0
 51
180.0
  0
LINE
  5
E54
  8
0
  6
CONTINUOUS
 62
     7
 10
12.784202560918139
 20
35.540101804640862
 30
0.0
 11
12.784202560918139
 21
35.540101804640862
 31
0.0
  0
LINE
  5
E55
  8
0
  6
CONTINUOUS
 62
     7
 10
13.58420196091785
 20
35.540101804640862
 30
0.0
 11
13.58420196091785
 21
35.540101804640862
 31
0.0
  0
ARC
  5
E56
  8
0
  6
CONTINUOUS
 62
     7
 10
13.78420196091783
 20
35.540101804640862
 30
0.0
 40
0.2
 50
90.0
 51
179.99999999999841
  0
LINE
  5
E57
  8
0
  6
CONTINUOUS
 62
     7
 10
11.78598964844522
 20
33.715102537974893
 30
0.0
 11
11.78598964844522
 21
33.315104004640901
 31
0.0
  0
LINE
  5
E58
  8
0
  6
CONTINUOUS
 62
     7
 10
11.21098964844521
 20
33.115104004640898
 30
0.0
 11
11.585989648445221
 21
33.115104004640898
 31
0.0
  0
LINE
  5
E59
  8
0
  6
CONTINUOUS
 62
     7
 10
11.21098964844521
 20
33.91510253797496
 30
0.0
 11
11.585989648445221
 21
33.91510253797496
 31
0.0
  0
LINE
  5
E5A
  8
0
  6
CONTINUOUS
 62
     7
 10
12.784202560918139
 20
35.540101804640862
 30
0.0
 11
12.784202560918139
 21
35.113324606489613
 31
0.0
  0
LINE
  5
E5B
  8
0
  6
CONTINUOUS
 62
     7
 10
13.58420196091785
 20
35.540101804640862
 30
0.0
 11
13.58420196091785
 21
35.113324606489613
 31
0.0
  0
ARC
  5
E5C
  8
0
  6
CONTINUOUS
 62
     7
 10
11.41098964844522
 20
31.39010180464086
 30
0.0
 40
0.4
 50
180.0
 51
270.0
  0
ARC
  5
E5D
  8
0
  6
CONTINUOUS
 62
     7
 10
21.810989648445219
 20
35.340101804640852
 30
0.0
 40
0.4
 50
0.0
 51
90.0
  0
LINE
  5
E5E
  8
0
  6
CONTINUOUS
 62
     7
 10
15.87814693597058
 20
30.872944517115521
 30
0.0
 11
18.893832360919809
 21
27.85725909216627
 31
0.0
  0
ARC
  5
E5F
  8
0
  6
CONTINUOUS
 62
     7
 10
15.595304223496001
 20
30.590101804640859
 30
0.0
 40
0.4
 50
45.000000000000568
 51
90.0
  0
LINE
  5
E60
  8
0
  6
CONTINUOUS
 62
     7
 10
19.17667507339446
 20
27.740101804640851
 30
0.0
 11
21.810989648445219
 21
27.740101804640851
 31
0.0
  0
ARC
  5
E61
  8
0
  6
CONTINUOUS
 62
     7
 10
19.17667507339446
 20
28.1401018046408
 30
0.0
 40
0.4
 50
225.0000000000006
 51
270.0
  0
ARC
  5
E62
  8
0
  6
CONTINUOUS
 62
     7
 10
21.810989648445219
 20
28.1401018046408
 30
0.0
 40
0.4
 50
270.0
 51
0.0
  0
LINE
  5
E63
  8
0
  6
CONTINUOUS
 62
     7
 10
30.845304223495969
 20
27.740101804640851
 30
0.0
 11
28.210989648445171
 21
27.740101804640851
 31
0.0
  0
ARC
  5
E64
  8
0
  6
CONTINUOUS
 62
     7
 10
30.845304223495969
 20
28.1401018046408
 30
0.0
 40
0.4
 50
270.0
 51
314.99999999999949
  0
LINE
  5
E65
  8
0
  6
CONTINUOUS
 62
     7
 10
34.143832360919824
 20
30.872944517115521
 30
0.0
 11
31.12814693597057
 21
27.85725909216627
 31
0.0
  0
ARC
  5
E66
  8
0
  6
CONTINUOUS
 62
     7
 10
34.42667507339447
 20
30.590101804640859
 30
0.0
 40
0.4
 50
90.0
 51
134.9999999999994
  0
LINE
  5
E67
  8
0
  6
CONTINUOUS
 62
     7
 10
27.810989648445169
 20
35.340101804640852
 30
0.0
 11
27.810989648445219
 21
28.1401018046408
 31
0.0
  0
ARC
  5
E68
  8
0
  6
CONTINUOUS
 62
     7
 10
28.210989648445171
 20
28.1401018046408
 30
0.0
 40
0.4
 50
180.0
 51
270.0
  0
ARC
  5
E69
  8
0
  6
CONTINUOUS
 62
     7
 10
28.210989648445171
 20
35.340101804640852
 30
0.0
 40
0.4
 50
90.0
 51
180.0
  0
LINE
  5
E6A
  8
0
  6
CONTINUOUS
 62
     7
 10
34.42667507339447
 20
30.990101804640911
 30
0.0
 11
38.610989648445219
 21
30.990101804640869
 31
0.0
  0
ARC
  5
E6B
  8
0
  6
CONTINUOUS
 62
     7
 10
38.610989648445219
 20
31.39010180464086
 30
0.0
 40
0.4
 50
270.0
 51
0.0
  0
LINE
  5
E6C
  8
0
  6
CONTINUOUS
 62
     7
 10
28.210989648445171
 20
35.740101804640851
 30
0.0
 11
36.185991848445113
 21
35.740101804640851
 31
0.0
  0
LINE
  5
E6D
  8
0
  6
CONTINUOUS
 62
     7
 10
37.385990381779159
 20
35.740101804640851
 30
0.0
 11
37.652656381779281
 21
35.740101804640851
 31
0.0
  0
ARC
  5
E6E
  8
0
  6
CONTINUOUS
 62
     7
 10
37.385990381779159
 20
35.540101804640862
 30
0.0
 40
0.2
 50
90.0
 51
180.0
  0
LINE
  5
E6F
  8
0
  6
CONTINUOUS
 62
     7
 10
38.052656381779208
 20
34.633554892168021
 30
0.0
 11
38.810989648445222
 21
34.633554892168021
 31
0.0
  0
LINE
  5
E70
  8
0
  6
CONTINUOUS
 62
     7
 10
38.810989648445222
 20
33.966888892167958
 30
0.0
 11
38.810989648445222
 21
33.966888892167958
 31
0.0
  0
ARC
  5
E71
  8
0
  6
CONTINUOUS
 62
     7
 10
38.810989648445222
 20
34.166888892167947
 30
0.0
 40
0.2
 50
270.0
 51
0.0
  0
LINE
  5
E72
  8
0
  6
CONTINUOUS
 62
     7
 10
36.585991848445097
 20
34.965101804640852
 30
0.0
 11
36.98599038177916
 21
34.965101804640852
 31
0.0
  0
LINE
  5
E73
  8
0
  6
CONTINUOUS
 62
     7
 10
39.010989648445232
 20
34.433554892168019
 30
0.0
 11
39.010989648445232
 21
34.166888892167947
 31
0.0
  0
ARC
  5
E74
  8
0
  6
CONTINUOUS
 62
     7
 10
38.810989648445222
 20
34.433554892168019
 30
0.0
 40
0.2
 50
0.0
 51
90.0
  0
LINE
  5
E75
  8
0
  6
CONTINUOUS
 62
     7
 10
39.010989648445232
 20
32.966889492168221
 30
0.0
 11
39.010989648445232
 21
31.39010180464086
 31
0.0
  0
ARC
  5
E76
  8
0
  6
CONTINUOUS
 62
     7
 10
38.810989648445222
 20
32.966889492168221
 30
0.0
 40
0.2
 50
0.0
 51
90.0
  0
LINE
  5
E77
  8
0
  6
CONTINUOUS
 62
     7
 10
37.852656381779219
 20
35.540101804640862
 30
0.0
 11
37.852656381779219
 21
34.833554892168053
 31
0.0
  0
ARC
  5
E78
  8
0
  6
CONTINUOUS
 62
     7
 10
37.652656381779281
 20
35.540101804640862
 30
0.0
 40
0.2
 50
359.99999999999841
 51
90.0
  0
LINE
  5
E79
  8
0
  6
CONTINUOUS
 62
     7
 10
37.185990381779121
 20
35.540101804640862
 30
0.0
 11
37.185990381779163
 21
35.540101804640862
 31
0.0
  0
LINE
  5
E7A
  8
0
  6
CONTINUOUS
 62
     7
 10
36.385991848445109
 20
35.540101804640862
 30
0.0
 11
36.385991848445109
 21
35.540101804640862
 31
0.0
  0
ARC
  5
E7B
  8
0
  6
CONTINUOUS
 62
     7
 10
36.185991848445113
 20
35.540101804640862
 30
0.0
 40
0.2
 50
0.0
 51
90.0
  0
LINE
  5
E7C
  8
0
  6
CONTINUOUS
 62
     7
 10
38.18421245029382
 20
33.766888892168012
 30
0.0
 11
38.18421245029382
 21
33.366889492168269
 31
0.0
  0
LINE
  5
E7D
  8
0
  6
CONTINUOUS
 62
     7
 10
38.810989648445222
 20
33.166889492168202
 30
0.0
 11
38.38421245029383
 21
33.166889492168202
 31
0.0
  0
LINE
  5
E7E
  8
0
  6
CONTINUOUS
 62
     7
 10
38.810989648445222
 20
33.966888892167958
 30
0.0
 11
38.38421245029383
 21
33.966888892167958
 31
0.0
  0
LINE
  5
E7F
  8
0
  6
CONTINUOUS
 62
     7
 10
37.185990381779121
 20
35.540101804640862
 30
0.0
 11
37.185990381779121
 21
35.165101804640869
 31
0.0
  0
LINE
  5
E80
  8
0
  6
CONTINUOUS
 62
     7
 10
36.385991848445109
 20
35.540101804640862
 30
0.0
 11
36.385991848445109
 21
35.165101804640869
 31
0.0
  0
ARC
  5
E81
  8
0
  6
CONTINUOUS
 62
     7
 10
25.010989648445221
 20
21.740101804640869
 30
0.0
 40
3.399999999999999
 50
156.85522941196101
 51
202.38013505195971
  0
LINE
  5
E82
  8
0
  6
CONTINUOUS
 62
     7
 10
20.21098964844532
 20
19.534966884665572
 30
0.0
 11
20.21098964844532
 21
17.14010180464096
 31
0.0
  0
LINE
  5
E83
  8
0
  6
CONTINUOUS
 62
     7
 10
20.21098964844532
 20
26.340101804640749
 30
0.0
 11
20.21098964844532
 21
23.973274114159469
 31
0.0
  0
ARC
  5
E84
  8
0
  6
CONTINUOUS
 62
     7
 10
20.41098964844522
 20
17.14010180464096
 30
0.0
 40
0.2
 50
180.0
 51
270.0
  0
ARC
  5
E85
  8
0
  6
CONTINUOUS
 62
     7
 10
20.41098964844522
 20
26.340101804640749
 30
0.0
 40
0.2
 50
90.0
 51
180.0
  0
ARC
  5
E86
  8
0
  6
CONTINUOUS
 62
     7
 10
25.010989648445221
 20
21.740101804640869
 30
0.0
 40
3.399999999999999
 50
247.61986494804029
 51
292.38013505195971
  0
LINE
  5
E87
  8
0
  6
CONTINUOUS
 62
     7
 10
27.216124568420469
 20
16.940101804640971
 30
0.0
 11
29.610989648445109
 21
16.940101804640999
 31
0.0
  0
LINE
  5
E88
  8
0
  6
CONTINUOUS
 62
     7
 10
20.41098964844533
 20
16.940101804640999
 30
0.0
 11
22.805854728469921
 21
16.940101804640999
 31
0.0
  0
ARC
  5
E89
  8
0
  6
CONTINUOUS
 62
     7
 10
29.610989648445109
 20
17.140101804640882
 30
0.0
 40
0.2
 50
270.0
 51
0.0
  0
ARC
  5
E8A
  8
0
  6
CONTINUOUS
 62
     7
 10
25.010989648445221
 20
21.740101804640869
 30
0.0
 40
3.399999999999999
 50
337.61986494804017
 51
22.380135051959702
  0
LINE
  5
E8B
  8
0
  6
CONTINUOUS
 62
     7
 10
29.81098964844508
 20
23.945236724616109
 30
0.0
 11
29.81098964844508
 21
26.340101804640749
 31
0.0
  0
LINE
  5
E8C
  8
0
  6
CONTINUOUS
 62
     7
 10
29.81098964844508
 20
17.14010180464096
 30
0.0
 11
29.81098964844508
 21
19.534966884665611
 31
0.0
  0
ARC
  5
E8D
  8
0
  6
CONTINUOUS
 62
     7
 10
11.637766846596611
 20
10.113314117113569
 30
0.0
 40
0.2
 50
359.99999999999841
 51
90.0
  0
ARC
  5
E8E
  8
0
  6
CONTINUOUS
 62
     7
 10
11.637766846596589
 20
9.7133147171137981
 30
0.0
 40
0.2
 50
270.0
 51
359.99999999999841
  0
ARC
  5
E8F
  8
0
  6
CONTINUOUS
 62
     7
 10
11.969322915111199
 20
8.6466487171138269
 30
0.0
 40
0.2
 50
0.0
 51
90.0
  0
ARC
  5
E90
  8
0
  6
CONTINUOUS
 62
     7
 10
13.035988915111281
 20
8.3151018046407241
 30
0.0
 40
0.2
 50
90.000000000148162
 51
180.0
  0
ARC
  5
E91
  8
0
  6
CONTINUOUS
 62
     7
 10
13.435987448445241
 20
8.3151018046417491
 30
0.0
 40
0.2
 50
0.0
 51
90.000000000148162
  0
ARC
  5
E92
  8
0
  6
CONTINUOUS
 62
     7
 10
36.637777335972523
 20
8.3668790027922384
 30
0.0
 40
0.2
 50
89.99999999999838
 51
180.0
  0
ARC
  5
E93
  8
0
  6
CONTINUOUS
 62
     7
 10
37.037776735972322
 20
8.3668790027922384
 30
0.0
 40
0.2
 50
0.0
 51
89.99999999999838
  0
ARC
  5
E94
  8
0
  6
CONTINUOUS
 62
     7
 10
38.104442735972363
 20
8.6984350713068377
 30
0.0
 40
0.2
 50
90.0
 51
180.0
  0
ARC
  5
E95
  8
0
  6
CONTINUOUS
 62
     7
 10
38.435989648445108
 20
9.7651010713069475
 30
0.0
 40
0.2
 50
180.0
 51
270.0
  0
ARC
  5
E96
  8
0
  6
CONTINUOUS
 62
     7
 10
38.435989648445108
 20
10.16509960464094
 30
0.0
 40
0.2
 50
90.0
 51
180.0
  0
ARC
  5
E97
  8
0
  6
CONTINUOUS
 62
     7
 10
38.38421245029383
 20
33.366889492168212
 30
0.0
 40
0.2
 50
179.9999999999965
 51
270.0
  0
ARC
  5
E98
  8
0
  6
CONTINUOUS
 62
     7
 10
38.38421245029383
 20
33.766888892167962
 30
0.0
 40
0.2
 50
90.0
 51
179.9999999999965
  0
ARC
  5
E99
  8
0
  6
CONTINUOUS
 62
     7
 10
38.052656381779208
 20
34.833554892168053
 30
0.0
 40
0.2
 50
180.0
 51
270.0
  0
ARC
  5
E9A
  8
0
  6
CONTINUOUS
 62
     7
 10
36.98599038177916
 20
35.165101804640869
 30
0.0
 40
0.2
 50
270.0
 51
0.0
  0
ARC
  5
E9B
  8
0
  6
CONTINUOUS
 62
     7
 10
36.585991848445097
 20
35.165101804640869
 30
0.0
 40
0.2
 50
180.0
 51
270.0
  0
ARC
  5
E9C
  8
0
  6
CONTINUOUS
 62
     7
 10
11.585989648445221
 20
33.315104004640901
 30
0.0
 40
0.2
 50
270.0
 51
0.0
  0
ARC
  5
E9D
  8
0
  6
CONTINUOUS
 62
     7
 10
11.585989648445221
 20
33.715102537974893
 30
0.0
 40
0.2
 50
0.0
 51
90.000000000001606
  0
ARC
  5
E9E
  8
0
  6
CONTINUOUS
 62
     7
 10
11.91753656091802
 20
34.781768537974898
 30
0.0
 40
0.2
 50
270.0
 51
0.0
  0
ARC
  5
E9F
  8
0
  6
CONTINUOUS
 62
     7
 10
12.984202560918121
 20
35.113324606489613
 30
0.0
 40
0.2
 50
180.0
 51
270.0
  0
ARC
  5
EA0
  8
0
  6
CONTINUOUS
 62
     7
 10
13.38420196091786
 20
35.113324606489613
 30
0.0
 40
0.2
 50
269.99999999999841
 51
0.0
  0
LINE
  5
EA1
  8
0
  6
CONTINUOUS
 62
     7
 10
19.143844338387421
 20
20.710592081715841
 30
0.0
 11
19.81907538279971
 21
20.951253162430799
 31
0.0
  0
LINE
  5
EA2
  8
0
  6
CONTINUOUS
 62
     7
 10
19.143844338574961
 20
22.769611521291608
 30
0.0
 11
19.81907538298071
 21
22.528950441336811
 31
0.0
  0
LINE
  5
EA3
  8
0
  6
CONTINUOUS
 62
     7
 10
26.04049937137021
 20
15.872956494583059
 30
0.0
 11
25.799838290655281
 21
16.548187538995379
 31
0.0
  0
LINE
  5
EA4
  8
0
  6
CONTINUOUS
 62
     7
 10
23.981479931794571
 20
15.87295649477065
 30
0.0
 11
24.222141011749368
 21
16.548187539176329
 31
0.0
  0
LINE
  5
EA5
  8
0
  6
CONTINUOUS
 62
     7
 10
30.878134958503018
 20
22.769611527565861
 30
0.0
 11
30.202903914090658
 21
22.52895044685091
 31
0.0
  0
LINE
  5
EA6
  8
0
  6
CONTINUOUS
 62
     7
 10
30.878134958315421
 20
20.710592087990221
 30
0.0
 11
30.20290391436091
 21
20.951253167784259
 31
0.0
  0
ARC
  5
EA7
  8
0
  6
CONTINUOUS
 62
     7
 10
30.810989648445108
 20
22.95800342584505
 30
0.0
 40
0.2
 50
289.61672514070438
 51
0.0
  0
ARC
  5
EA8
  8
0
  6
CONTINUOUS
 62
     7
 10
30.810989648445108
 20
20.522200189644209
 30
0.0
 40
0.2
 50
0.0
 51
70.383274916347219
  0
ARC
  5
EA9
  8
0
  6
CONTINUOUS
 62
     7
 10
19.21098964844527
 20
22.958003419637599
 30
0.0
 40
0.2
 50
180.0
 51
250.3832749163472
  0
ARC
  5
EAA
  8
0
  6
CONTINUOUS
 62
     7
 10
19.21098964844527
 20
20.522200183436802
 30
0.0
 40
0.2
 50
109.61672514070411
 51
180.0
  0
ARC
  5
EAB
  8
0
  6
CONTINUOUS
 62
     7
 10
26.22889126964942
 20
15.940101804640911
 30
0.0
 40
0.2
 50
199.61672514070261
 51
270.0
  0
ARC
  5
EAC
  8
0
  6
CONTINUOUS
 62
     7
 10
23.793088033448559
 20
15.940101804640911
 30
0.0
 40
0.2
 50
270.0
 51
340.38327491634732
  0
ARC
  5
EAD
  8
0
  6
CONTINUOUS
 62
     7
 10
20.310989648445268
 20
22.340101804640849
 30
0.0
 40
0.3
 50
188.98825624428451
 51
209.9999999999925
  0
ARC
  5
EAE
  8
0
  6
CONTINUOUS
 62
     7
 10
19.718357418175199
 20
22.2463625938178
 30
0.0
 40
0.3
 50
8.9882562442870331
 51
70.383274916346409
  0
ARC
  5
EAF
  8
0
  6
CONTINUOUS
 62
     7
 10
29.710989648445221
 20
22.340101807332509
 30
0.0
 40
0.3
 50
330.00000000000171
 51
351.01174403827872
  0
ARC
  5
EB0
  8
0
  6
CONTINUOUS
 62
     7
 10
30.30362187917752
 20
22.24636259943216
 30
0.0
 40
0.3
 50
109.61672514070069
 51
171.01174403827679
  0
LINE
  5
EB1
  8
0
  6
CONTINUOUS
 62
     7
 10
29.710989648445221
 20
21.740101807332511
 30
0.0
 11
29.970797269580569
 21
22.19010180733256
 31
0.0
  0
LINE
  5
EB2
  8
0
  6
CONTINUOUS
 62
     7
 10
29.710989648445221
 20
21.740101807332511
 30
0.0
 11
29.970797269580519
 21
21.290101807332508
 31
0.0
  0
ARC
  5
EB3
  8
0
  6
CONTINUOUS
 62
     7
 10
29.710989648445171
 20
21.14010180733256
 30
0.0
 40
0.3
 50
8.9882559685256247
 51
29.999999999998401
  0
ARC
  5
EB4
  8
0
  6
CONTINUOUS
 62
     7
 10
30.303621879166371
 20
21.233841015303259
 30
0.0
 40
0.3
 50
188.9882559685264
 51
250.3832749163499
  0
LINE
  5
EB5
  8
0
  6
CONTINUOUS
 62
     7
 10
25.010989649791021
 20
17.040101805417859
 30
0.0
 11
24.560989648445169
 21
16.780294183505539
 31
0.0
  0
ARC
  5
EB6
  8
0
  6
CONTINUOUS
 62
     7
 10
24.41098964844517
 20
17.040101804640891
 30
0.0
 40
0.3
 50
278.9882562443068
 51
299.99999999999892
  0
ARC
  5
EB7
  8
0
  6
CONTINUOUS
 62
     7
 10
24.504728859268411
 20
16.447469574370839
 30
0.0
 40
0.3
 50
98.988256244302661
 51
160.3832749163478
  0
LINE
  5
EB8
  8
0
  6
CONTINUOUS
 62
     7
 10
25.010989649791021
 20
17.040101805417859
 30
0.0
 11
25.460989651136821
 21
16.780294183505521
 31
0.0
  0
ARC
  5
EB9
  8
0
  6
CONTINUOUS
 62
     7
 10
25.610989651136819
 20
17.040101804640841
 30
0.0
 40
0.3
 50
240.00000000000091
 51
261.0117440382835
  0
ARC
  5
EBA
  8
0
  6
CONTINUOUS
 62
     7
 10
25.51725044323652
 20
16.447469573908499
 30
0.0
 40
0.3
 50
19.616725140706109
 51
81.011744038282643
  0
LINE
  5
EBB
  8
0
  6
CONTINUOUS
 62
     7
 10
20.310989648445108
 20
21.740101801949208
 30
0.0
 11
20.051182027309821
 21
21.290101801949159
 31
0.0
  0
ARC
  5
EBC
  8
0
  6
CONTINUOUS
 62
     7
 10
20.310989648445219
 20
21.1401018019492
 30
0.0
 40
0.3
 50
150.00000000000929
 51
171.01174403828341
  0
ARC
  5
EBD
  8
0
  6
CONTINUOUS
 62
     7
 10
19.718357417712848
 20
21.23384100984951
 30
0.0
 40
0.3
 50
289.61672514070779
 51
351.01174403828247
  0
LINE
  5
EBE
  8
0
  6
CONTINUOUS
 62
     7
 10
20.310989648445108
 20
21.740101804640869
 30
0.0
 11
20.05118202730991
 21
22.190101804640861
 31
0.0
  0
ARC
  5
EBF
  8
0
  6
CONTINUOUS
 62
     7
 10
28.617234232496571
 20
20.255177564149111
 30
0.0
 40
0.4999999999999984
 50
157.61986494803941
 51
313.9281227348655
  0
ARC
  5
EC0
  8
0
  6
CONTINUOUS
 62
     7
 10
29.310989648445069
 20
19.534966884665611
 30
0.0
 40
0.5
 50
0.0
 51
133.928122734863
  0
ARC
  5
EC1
  8
0
  6
CONTINUOUS
 62
     7
 10
26.495913888936919
 20
25.346346388692261
 30
0.0
 40
0.4999999999999978
 50
247.61986494804381
 51
43.928122734859677
  0
ARC
  5
EC2
  8
0
  6
CONTINUOUS
 62
     7
 10
28.61723423249661
 20
23.225026045132608
 30
0.0
 40
0.4999999999999978
 50
46.071877265139179
 51
202.38013505195619
  0
ARC
  5
EC3
  8
0
  6
CONTINUOUS
 62
     7
 10
29.310989648445069
 20
23.945236724616109
 30
0.0
 40
0.5
 50
226.07187726513689
 51
0.0
  0
ARC
  5
EC4
  8
0
  6
CONTINUOUS
 62
     7
 10
27.216124568420469
 20
26.04010180464071
 30
0.0
 40
0.5
 50
90.0
 51
223.92812273485799
  0
ARC
  5
EC5
  8
0
  6
CONTINUOUS
 62
     7
 10
21.424882526678811
 20
23.273019190287052
 30
0.0
 40
0.4999999999999984
 50
336.85522941196342
 51
135.5525398416714
  0
ARC
  5
EC6
  8
0
  6
CONTINUOUS
 62
     7
 10
23.526065407953421
 20
25.346346388692261
 30
0.0
 40
0.4999999999999984
 50
136.0718772651378
 51
292.38013505196051
  0
ARC
  5
EC7
  8
0
  6
CONTINUOUS
 62
     7
 10
22.805854728469921
 20
26.04010180464071
 30
0.0
 40
0.5
 50
316.0718772651403
 51
90.0
  0
ARC
  5
EC8
  8
0
  6
CONTINUOUS
 62
     7
 10
20.71098964844532
 20
23.973274114159469
 30
0.0
 40
0.5
 50
180.0
 51
315.5525398416691
  0
ARC
  5
EC9
  8
0
  6
CONTINUOUS
 62
     7
 10
21.404745064393762
 20
20.25517756414914
 30
0.0
 40
0.4999999999999978
 50
226.07187726513899
 51
22.380135051956149
  0
ARC
  5
ECA
  8
0
  6
CONTINUOUS
 62
     7
 10
23.52606540795346
 20
18.133857220589451
 30
0.0
 40
0.4999999999999978
 50
67.619864948043855
 51
223.9281227348597
  0
ARC
  5
ECB
  8
0
  6
CONTINUOUS
 62
     7
 10
22.805854728469921
 20
17.440101804640999
 30
0.0
 40
0.4999999999999978
 50
270.0
 51
43.928122734857951
  0
ARC
  5
ECC
  8
0
  6
CONTINUOUS
 62
     7
 10
20.71098964844532
 20
19.534966884665572
 30
0.0
 40
0.4999999999999978
 50
46.071877265142597
 51
180.0
  0
ARC
  5
ECD
  8
0
  6
CONTINUOUS
 62
     7
 10
26.495913888936968
 20
18.133857220589491
 30
0.0
 40
0.5
 50
316.0718772651357
 51
112.3801350519602
  0
ARC
  5
ECE
  8
0
  6
CONTINUOUS
 62
     7
 10
27.216124568420469
 20
17.440101804640971
 30
0.0
 40
0.5
 50
136.0718772651378
 51
270.0
  0
LINE
  5
ECF
  8
CENTER
  6
CENTER
 62
     1
 10
5.0109896484452197
 20
21.740101804640869
 30
0.0
 11
45.010989648445218
 21
21.740101804640869
 31
0.0
  0
LINE
  5
ED0
  8
CENTER
  6
CENTER
 62
     1
 10
25.010989648445221
 20
1.7401018046408849
 30
0.0
 11
25.010989648445221
 21
41.740101804640851
 31
0.0
  0
LINE
  5
ED1
  8
0
  6
CONTINUOUS
 62
     7
 10
68.010989648445218
 20
6.7401018046408741
 30
0.0
 11
68.010989648445218
 21
36.740101804640851
 31
0.0
  0
LINE
  5
ED2
  8
0
  6
CONTINUOUS
 62
     7
 10
68.010989648445218
 20
36.740101804640851
 30
0.0
 11
118.0109896484452
 21
36.740101804640851
 31
0.0
  0
LINE
  5
ED3
  8
0
  6
CONTINUOUS
 62
     7
 10
118.0109896484452
 20
36.740101804640851
 30
0.0
 11
118.0109896484452
 21
6.7401018046408741
 31
0.0
  0
LINE
  5
ED4
  8
0
  6
CONTINUOUS
 62
     7
 10
118.0109896484452
 20
6.7401018046408741
 30
0.0
 11
68.010989648445218
 21
6.7401018046408741
 31
0.0
  0
LINE
  5
ED5
  8
0
  6
CONTINUOUS
 62
     7
 10
68.010989648445218
 20
25.740101804640851
 30
0.0
 11
118.0109896484452
 21
25.740101804640819
 31
0.0
  0
LINE
  5
ED6
  8
0
  6
CONTINUOUS
 62
     7
 10
68.010989648445218
 20
17.740101804640862
 30
0.0
 11
118.0109896484452
 21
17.74010180464084
 31
0.0
  0
LINE
  5
ED7
  8
0
  6
DASHED
 62
     3
 10
68.010989648445218
 20
29.990101804640791
 30
0.0
 11
118.0109896484452
 21
29.990101804640769
 31
0.0
  0
LINE
  5
ED8
  8
0
  6
DASHED
 62
     3
 10
68.010989648445218
 20
13.490101804640879
 30
0.0
 11
118.0109896484452
 21
13.49010180464086
 31
0.0
  0
LINE
  5
ED9
  8
CENTER
  6
CENTER
 62
     1
 10
63.010989648445218
 20
21.740101804640869
 30
0.0
 11
123.0109896484452
 21
21.740101804640869
 31
0.0
  0
ENDSEC
  0
EOF
