  0
SECTION
  2
HEADER
  9
$ACADVER
  1
AC1009
  9
$INSBASE
 10
0.0
 20
0.0
 30
0.0
  9
$EXTMIN
 10
3431.3248614522299
 20
16908.85751943658
 30
0.0
  9
$EXTMAX
 10
3657.546673675778
 20
16987.85751943658
 30
0.0
  9
$LIMMIN
 10
0.0
 20
0.0
  9
$LIMMAX
 10
420.0
 20
297.0
  9
$ORTHOMODE
 70
     0
  9
$REGENMODE
 70
     1
  9
$FILLMODE
 70
     1
  9
$QTEXTMODE
 70
     0
  9
$MIRRTEXT
 70
     0
  9
$DRAGMODE
 70
     2
  9
$LTSCALE
 40
1.0
  9
$OSMODE
 70
   691
  9
$ATTMODE
 70
     1
  9
$TEXTSIZE
 40
4.0
  9
$TRACEWID
 40
1.0
  9
$TEXTSTYLE
  7
MISUMI
  9
$CLAYER
  8
0
  9
$CELTYPE
  6
CONTINUOUS
  9
$CECOLOR
 62
     7
  9
$DIMSCALE
 40
1.0
  9
$DIMASZ
 40
3.0
  9
$DIMEXO
 40
1.0
  9
$DIMDLI
 40
0.0
  9
$DIMRND
 40
0.0
  9
$DIMDLE
 40
0.0
  9
$DIMEXE
 40
1.0
  9
$DIMTP
 40
0.0
  9
$DIMTM
 40
0.0
  9
$DIMTXT
 40
4.0
  9
$DIMCEN
 40
0.0
  9
$DIMTSZ
 40
0.0
  9
$DIMTOL
 70
     0
  9
$DIMLIM
 70
     0
  9
$DIMTIH
 70
     0
  9
$DIMTOH
 70
     0
  9
$DIMSE1
 70
     0
  9
$DIMSE2
 70
     0
  9
$DIMTAD
 70
     1
  9
$DIMZIN
 70
     8
  9
$DIMBLK
  1

  9
$DIMASO
 70
     1
  9
$DIMSHO
 70
     1
  9
$DIMPOST
  1

  9
$DIMAPOST
  1

  9
$DIMALT
 70
     0
  9
$DIMALTD
 70
     2
  9
$DIMALTF
 40
0.04
  9
$DIMLFAC
 40
1.0
  9
$DIMTOFL
 70
     1
  9
$DIMTVP
 40
1.0
  9
$DIMTIX
 70
     1
  9
$DIMSOXD
 70
     0
  9
$DIMSAH
 70
     0
  9
$DIMBLK1
  1

  9
$DIMBLK2
  1

  9
$DIMSTYLE
  2
MISUMI
  9
$DIMCLRD
 70
     0
  9
$DIMCLRE
 70
     0
  9
$DIMCLRT
 70
     0
  9
$DIMTFAC
 40
0.6
  9
$DIMGAP
 40
1.0
  9
$LUNITS
 70
     2
  9
$LUPREC
 70
     2
  9
$SKETCHINC
 40
1.0
  9
$FILLETRAD
 40
0.61
  9
$AUNITS
 70
     0
  9
$AUPREC
 70
     0
  9
$MENU
  1
acad
  9
$ELEVATION
 40
0.0
  9
$PELEVATION
 40
0.0
  9
$THICKNESS
 40
0.0
  9
$LIMCHECK
 70
     0
  9
$BLIPMODE
 70
     0
  9
$CHAMFERA
 40
0.0
  9
$CHAMFERB
 40
0.0
  9
$SKPOLY
 70
     0
  9
$TDCREATE
 40
2451466.662696389
  9
$TDUPDATE
 40
2454511.363876794
  9
$TDINDWG
 40
3.1241871991000001
  9
$TDUSRTIMER
 40
3.1241870254999999
  9
$USRTIMER
 70
     1
  9
$ANGBASE
 50
0.0
  9
$ANGDIR
 70
     0
  9
$PDMODE
 70
     1
  9
$PDSIZE
 40
0.0
  9
$PLINEWID
 40
0.0
  9
$COORDS
 70
     1
  9
$SPLFRAME
 70
     0
  9
$SPLINETYPE
 70
     6
  9
$SPLINESEGS
 70
     8
  9
$ATTDIA
 70
     0
  9
$ATTREQ
 70
     1
  9
$HANDLING
 70
     1
  9
$HANDSEED
  5
2CC7D
  9
$SURFTAB1
 70
     6
  9
$SURFTAB2
 70
     6
  9
$SURFTYPE
 70
     6
  9
$SURFU
 70
     6
  9
$SURFV
 70
     6
  9
$UCSNAME
  2

  9
$UCSORG
 10
0.0
 20
0.0
 30
0.0
  9
$UCSXDIR
 10
1.0
 20
0.0
 30
0.0
  9
$UCSYDIR
 10
0.0
 20
1.0
 30
0.0
  9
$PUCSNAME
  2

  9
$PUCSORG
 10
0.0
 20
0.0
 30
0.0
  9
$PUCSXDIR
 10
1.0
 20
0.0
 30
0.0
  9
$PUCSYDIR
 10
0.0
 20
1.0
 30
0.0
  9
$USERI1
 70
     0
  9
$USERI2
 70
     0
  9
$USERI3
 70
     0
  9
$USERI4
 70
     0
  9
$USERI5
 70
     0
  9
$USERR1
 40
0.0
  9
$USERR2
 40
0.0
  9
$USERR3
 40
0.0
  9
$USERR4
 40
0.0
  9
$USERR5
 40
0.0
  9
$WORLDVIEW
 70
     1
  9
$SHADEDGE
 70
     3
  9
$SHADEDIF
 70
    70
  9
$TILEMODE
 70
     1
  9
$MAXACTVP
 70
    16
  9
$PLIMCHECK
 70
     0
  9
$PEXTMIN
 10
1.0000000000000000E+020
 20
1.0000000000000000E+020
 30
1.0000000000000000E+020
  9
$PEXTMAX
 10
-1.0000000000000000E+020
 20
-1.0000000000000000E+020
 30
-1.0000000000000000E+020
  9
$PLIMMIN
 10
0.0
 20
0.0
  9
$PLIMMAX
 10
420.0
 20
297.0
  9
$UNITMODE
 70
     0
  9
$VISRETAIN
 70
     0
  9
$PLINEGEN
 70
     0
  9
$PSLTSCALE
 70
     0
  0
ENDSEC
  0
SECTION
  2
TABLES
  0
TABLE
  2
VPORT
 70
     1
  0
VPORT
  2
*ACTIVE
 70
     0
 10
0.0
 20
0.0
 11
1.0
 21
1.0
 12
3590.2776139154162
 22
16948.828356737889
 13
0.0
 23
0.0
 14
10.0
 24
10.0
 15
0.0
 25
0.0
 16
0.0
 26
0.0
 36
1.0
 17
0.0
 27
0.0
 37
0.0
 40
195.674233544478
 41
1.6552631578947361
 42
50.0
 43
0.0
 44
0.0
 50
0.0
 51
0.0
 71
     0
 72
   100
 73
     1
 74
     0
 75
     0
 76
     0
 77
     0
 78
     1
  0
ENDTAB
  0
TABLE
  2
LTYPE
 70
     3
  0
LTYPE
  2
CONTINUOUS
 70
     0
  3
Solid line
 72
    65
 73
     0
 40
0.0
  0
LTYPE
  2
CENTER
 70
     0
  3
Center ____ _ ____ _ ____ _ ____ _ ____ _ ____
 72
    65
 73
     4
 40
2.0
 49
1.25
 49
-0.25
 49
0.25
 49
-0.25
  0
LTYPE
  2
DASHED
 70
     0
  3
Dashed __ __ __ __ __ __ __ __ __ __ __ __ __ _
 72
    65
 73
     2
 40
0.75
 49
0.5
 49
-0.25
  0
ENDTAB
  0
TABLE
  2
LAYER
 70
     2
  0
LAYER
  2
0
 70
     0
 62
     7
  6
CONTINUOUS
  0
LAYER
  2
CENTER
 70
     0
 62
     1
  6
CENTER
  0
ENDTAB
  0
TABLE
  2
STYLE
 70
     2
  0
STYLE
  2
STANDARD
 70
     0
 40
0.0
 41
1.0
 50
0.0
 71
     0
 42
4.0
  3
txt
  4
BIGFONT
  0
STYLE
  2
MISUMI
 70
     0
 40
0.0
 41
1.0
 50
0.0
 71
     0
 42
4.0
  3
txt.shx
  4

  0
ENDTAB
  0
TABLE
  2
VIEW
 70
     0
  0
ENDTAB
  0
TABLE
  2
UCS
 70
     0
  0
ENDTAB
  0
TABLE
  2
APPID
 70
     3
  0
APPID
  2
ACAD
 70
     0
  0
APPID
  2
ACAD_EXEMPT_FROM_CAD_STANDARDS
 70
     0
  0
APPID
  2
ACAD_PSEXT
 70
     0
  0
ENDTAB
  0
TABLE
  2
DIMSTYLE
 70
     1
  0
DIMSTYLE
  2
MISUMI
 70
     0
  3

  4

  5

  6

  7

 40
1.0
 41
3.0
 42
1.0
 43
0.0
 44
1.0
 45
0.0
 46
0.0
 47
0.0
 48
0.0
140
4.0
141
0.0
142
0.0
143
0.04
144
1.0
145
1.0
146
0.6
147
1.0
 71
     0
 72
     0
 73
     0
 74
     0
 75
     0
 76
     0
 77
     1
 78
     8
170
     0
171
     2
172
     1
173
     0
174
     1
175
     0
176
     0
177
     0
178
     0
  0
ENDTAB
  0
ENDSEC
  0
SECTION
  2
BLOCKS
  0
BLOCK
  8
0
  2
$MODEL_SPACE
 70
     0
 10
0.0
 20
0.0
 30
0.0
  3
$MODEL_SPACE
  1

  0
ENDBLK
  5
492
  8
0
  0
BLOCK
 67
     1
  8
0
  2
$PAPER_SPACE
 70
     0
 10
0.0
 20
0.0
 30
0.0
  3
$PAPER_SPACE
  1

  0
ENDBLK
  5
48E
 67
     1
  8
0
  0
ENDSEC
  0
SECTION
  2
ENTITIES
  0
TEXT
  5
2C5C9
  8
0
  6
CONTINUOUS
 62
     7
 10
3434.324861452229
 20
16916.857519436569
 30
0.0
 40
2.0
  1
TTLA24T5100-E-10
  7
MISUMI
  0
LINE
  5
2C5CB
  8
0
  6
DASHED
 62
     3
 10
3440.324861452229
 20
16948.857519436569
 30
0.0
 11
3440.324861452229
 21
16954.35751943658
 31
0.0
  0
LINE
  5
2C5CC
  8
0
  6
DASHED
 62
     3
 10
3438.3248614522299
 20
16948.857519436569
 30
0.0
 11
3438.3248614522299
 21
16954.35751943658
 31
0.0
  0
LINE
  5
2C5CD
  8
0
  6
CONTINUOUS
 62
     7
 10
3456.824861452229
 20
16946.85751943658
 30
0.0
 11
3456.824861452229
 21
16954.35751943658
 31
0.0
  0
LINE
  5
2C5CE
  8
0
  6
CONTINUOUS
 62
     7
 10
3451.824861452229
 20
16948.357519436569
 30
0.0
 11
3451.824861452229
 21
16954.35751943658
 31
0.0
  0
LINE
  5
2C5CF
  8
CENTER
  6
CENTER
 62
     1
 10
3463.824861452229
 20
16943.357519436569
 30
0.0
 11
3434.7856314522292
 21
16943.357519436569
 31
0.0
  0
LINE
  5
2C5D0
  8
0
  6
DASHED
 62
     3
 10
3440.324861452229
 20
16949.357519436569
 30
0.0
 11
3456.824861452229
 21
16949.357519436569
 31
0.0
  0
LINE
  5
2C5D1
  8
0
  6
DASHED
 62
     3
 10
3440.324861452229
 20
16948.857519436569
 30
0.0
 11
3450.324861452229
 21
16948.422736436569
 31
0.0
  0
LINE
  5
2C5D2
  8
0
  6
DASHED
 62
     3
 10
3440.8248614522299
 20
16941.557519436581
 30
0.0
 11
3450.324861452229
 21
16941.557519436581
 31
0.0
  0
LINE
  5
2C5D3
  8
0
  6
DASHED
 62
     3
 10
3450.324861452229
 20
16941.357519436569
 30
0.0
 11
3441.0248614522288
 21
16941.357519436569
 31
0.0
  0
LINE
  5
2C5D4
  8
0
  6
DASHED
 62
     3
 10
3450.324861452229
 20
16945.357519436569
 30
0.0
 11
3441.0248614522288
 21
16945.357519436569
 31
0.0
  0
LINE
  5
2C5D5
  8
0
  6
DASHED
 62
     3
 10
3440.8248614522299
 20
16945.157519436569
 30
0.0
 11
3450.324861452229
 21
16945.157519436569
 31
0.0
  0
LINE
  5
2C5D6
  8
0
  6
DASHED
 62
     3
 10
3438.3248614522299
 20
16948.857519436569
 30
0.0
 11
3440.324861452229
 21
16948.857519436569
 31
0.0
  0
LINE
  5
2C5D7
  8
0
  6
DASHED
 62
     3
 10
3441.0248614522288
 20
16941.357519436569
 30
0.0
 11
3439.824861452229
 21
16941.357519436569
 31
0.0
  0
LINE
  5
2C5D8
  8
0
  6
DASHED
 62
     3
 10
3440.8248614522299
 20
16941.557519436581
 30
0.0
 11
3438.824861452229
 21
16941.557519436581
 31
0.0
  0
LINE
  5
2C5D9
  8
0
  6
DASHED
 62
     3
 10
3441.0248614522288
 20
16945.357519436569
 30
0.0
 11
3439.824861452229
 21
16945.357519436569
 31
0.0
  0
LINE
  5
2C5DA
  8
0
  6
DASHED
 62
     3
 10
3440.8248614522299
 20
16945.157519436569
 30
0.0
 11
3438.824861452229
 21
16945.157519436569
 31
0.0
  0
LINE
  5
2C5DB
  8
0
  6
DASHED
 62
     3
 10
3438.824861452229
 20
16945.157519436569
 30
0.0
 11
3437.7856314522292
 21
16943.357519436569
 31
0.0
  0
LINE
  5
2C5DC
  8
0
  6
DASHED
 62
     3
 10
3439.824861452229
 20
16945.357519436569
 30
0.0
 11
3439.824861452229
 21
16943.357519436569
 31
0.0
  0
LINE
  5
2C5DD
  8
0
  6
DASHED
 62
     3
 10
3438.824861452229
 20
16941.557519436581
 30
0.0
 11
3438.824861452229
 21
16945.157519436569
 31
0.0
  0
LINE
  5
2C5DE
  8
0
  6
DASHED
 62
     3
 10
3439.824861452229
 20
16941.357519436569
 30
0.0
 11
3439.824861452229
 21
16943.357519436569
 31
0.0
  0
LINE
  5
2C5DF
  8
0
  6
DASHED
 62
     3
 10
3438.824861452229
 20
16941.557519436581
 30
0.0
 11
3437.7856314522292
 21
16943.357519436569
 31
0.0
  0
LINE
  5
2C5E0
  8
0
  6
DASHED
 62
     3
 10
3434.324861452229
 20
16949.357519436569
 30
0.0
 11
3438.3248614522299
 21
16949.357519436569
 31
0.0
  0
LINE
  5
2C5E1
  8
0
  6
DASHED
 62
     3
 10
3441.0248614522288
 20
16945.357519436569
 30
0.0
 11
3440.8248614522299
 21
16945.157519436569
 31
0.0
  0
LINE
  5
2C5E2
  8
0
  6
DASHED
 62
     3
 10
3441.0248614522288
 20
16945.357519436569
 30
0.0
 11
3441.0248614522288
 21
16943.357519436569
 31
0.0
  0
LINE
  5
2C5E3
  8
0
  6
DASHED
 62
     3
 10
3440.8248614522299
 20
16945.157519436569
 30
0.0
 11
3440.8248614522299
 21
16943.357519436569
 31
0.0
  0
LINE
  5
2C5E4
  8
0
  6
DASHED
 62
     3
 10
3441.0248614522288
 20
16941.357519436569
 30
0.0
 11
3440.8248614522299
 21
16941.557519436581
 31
0.0
  0
LINE
  5
2C5E5
  8
0
  6
DASHED
 62
     3
 10
3441.0248614522288
 20
16941.357519436569
 30
0.0
 11
3441.0248614522288
 21
16943.357519436569
 31
0.0
  0
LINE
  5
2C5E6
  8
0
  6
DASHED
 62
     3
 10
3440.8248614522299
 20
16941.557519436581
 30
0.0
 11
3440.8248614522299
 21
16943.357519436569
 31
0.0
  0
LINE
  5
2C5E7
  8
0
  6
CONTINUOUS
 62
     7
 10
3456.824861452229
 20
16939.85751943658
 30
0.0
 11
3456.824861452229
 21
16946.85751943658
 31
0.0
  0
LINE
  5
2C5E8
  8
0
  6
CONTINUOUS
 62
     7
 10
3460.824861452229
 20
16939.85751943658
 30
0.0
 11
3460.824861452229
 21
16943.357519436569
 31
0.0
  0
LINE
  5
2C5E9
  8
0
  6
CONTINUOUS
 62
     7
 10
3451.824861452229
 20
16939.35751943658
 30
0.0
 11
3451.824861452229
 21
16941.357519436569
 31
0.0
  0
LINE
  5
2C5EA
  8
0
  6
CONTINUOUS
 62
     7
 10
3451.824861452229
 20
16939.35751943658
 30
0.0
 11
3456.824861452229
 21
16939.35751943658
 31
0.0
  0
LINE
  5
2C5EB
  8
0
  6
CONTINUOUS
 62
     7
 10
3456.824861452229
 20
16939.85751943658
 30
0.0
 11
3460.824861452229
 21
16939.85751943658
 31
0.0
  0
LINE
  5
2C5EC
  8
0
  6
CONTINUOUS
 62
     7
 10
3456.824861452229
 20
16939.35751943658
 30
0.0
 11
3456.824861452229
 21
16939.85751943658
 31
0.0
  0
LINE
  5
2C5ED
  8
0
  6
DASHED
 62
     3
 10
3456.824861452229
 20
16941.357519436569
 30
0.0
 11
3451.824861452229
 21
16941.357519436569
 31
0.0
  0
LINE
  5
2C5EE
  8
0
  6
DASHED
 62
     3
 10
3456.824861452229
 20
16945.357519436569
 30
0.0
 11
3451.824861452229
 21
16945.357519436569
 31
0.0
  0
LINE
  5
2C5EF
  8
0
  6
CONTINUOUS
 62
     7
 10
3451.824861452229
 20
16945.357519436569
 30
0.0
 11
3451.824861452229
 21
16948.357519436569
 31
0.0
  0
LINE
  5
2C5F0
  8
0
  6
DASHED
 62
     3
 10
3451.824861452229
 20
16945.157519436569
 30
0.0
 11
3453.491528452229
 21
16945.157519436569
 31
0.0
  0
LINE
  5
2C5F1
  8
0
  6
DASHED
 62
     3
 10
3451.824861452229
 20
16941.557519436581
 30
0.0
 11
3453.491528452229
 21
16941.557519436581
 31
0.0
  0
LINE
  5
2C5F2
  8
0
 62
     3
 10
3451.824861452229
 20
16945.157519436569
 30
0.0
 11
3450.324861452229
 21
16945.157519436569
 31
0.0
  0
LINE
  5
2C5F3
  8
0
  6
CONTINUOUS
 62
     7
 10
3451.824861452229
 20
16945.357519436569
 30
0.0
 11
3450.324861452229
 21
16945.357519436569
 31
0.0
  0
LINE
  5
2C5F4
  8
0
 62
     3
 10
3451.824861452229
 20
16941.557519436581
 30
0.0
 11
3450.324861452229
 21
16941.557519436581
 31
0.0
  0
LINE
  5
2C5F5
  8
0
  6
CONTINUOUS
 62
     7
 10
3451.824861452229
 20
16941.357519436569
 30
0.0
 11
3450.324861452229
 21
16941.357519436569
 31
0.0
  0
LINE
  5
2C5F6
  8
0
  6
CONTINUOUS
 62
     7
 10
3451.824861452229
 20
16941.357519436569
 30
0.0
 11
3451.824861452229
 21
16945.357519436569
 31
0.0
  0
LINE
  5
2C5F7
  8
0
  6
DASHED
 62
     3
 10
3453.491528452229
 20
16945.357519436569
 30
0.0
 11
3453.491528452229
 21
16943.357519436569
 31
0.0
  0
LINE
  5
2C5F8
  8
0
  6
DASHED
 62
     3
 10
3453.491528452229
 20
16941.357519436569
 30
0.0
 11
3453.491528452229
 21
16943.357519436569
 31
0.0
  0
LINE
  5
2C5F9
  8
0
  6
CONTINUOUS
 62
     7
 10
3451.824861452229
 20
16948.357519436569
 30
0.0
 11
3450.324861452229
 21
16948.422736436569
 31
0.0
  0
LINE
  5
2C5FA
  8
0
  6
CONTINUOUS
 62
     7
 10
3460.824861452229
 20
16946.85751943658
 30
0.0
 11
3460.824861452229
 21
16943.357519436569
 31
0.0
  0
LINE
  5
2C5FB
  8
0
  6
CONTINUOUS
 62
     7
 10
3456.824861452229
 20
16946.85751943658
 30
0.0
 11
3460.824861452229
 21
16946.85751943658
 31
0.0
  0
LINE
  5
2C5FC
  8
CENTER
  6
CENTER
 62
     1
 10
3463.824861452229
 20
16965.357519436569
 30
0.0
 11
3434.7856314522292
 21
16965.357519436569
 31
0.0
  0
LINE
  5
2C5FD
  8
0
  6
DASHED
 62
     3
 10
3440.324861452229
 20
16959.357519436569
 30
0.0
 11
3456.824861452229
 21
16959.357519436569
 31
0.0
  0
LINE
  5
2C5FE
  8
0
  6
DASHED
 62
     3
 10
3440.324861452229
 20
16959.85751943658
 30
0.0
 11
3450.324861452229
 21
16960.29230243657
 31
0.0
  0
LINE
  5
2C5FF
  8
0
  6
DASHED
 62
     3
 10
3450.324861452229
 20
16967.357519436569
 30
0.0
 11
3441.0248614522288
 21
16967.357519436569
 31
0.0
  0
LINE
  5
2C600
  8
0
  6
DASHED
 62
     3
 10
3440.8248614522299
 20
16967.157519436569
 30
0.0
 11
3450.324861452229
 21
16967.157519436569
 31
0.0
  0
LINE
  5
2C601
  8
0
  6
DASHED
 62
     3
 10
3440.8248614522299
 20
16963.557519436581
 30
0.0
 11
3450.324861452229
 21
16963.557519436581
 31
0.0
  0
LINE
  5
2C602
  8
0
  6
DASHED
 62
     3
 10
3450.324861452229
 20
16963.357519436569
 30
0.0
 11
3441.0248614522288
 21
16963.357519436569
 31
0.0
  0
LINE
  5
2C603
  8
0
  6
DASHED
 62
     3
 10
3441.0248614522288
 20
16963.357519436569
 30
0.0
 11
3441.0248614522288
 21
16965.357519436569
 31
0.0
  0
LINE
  5
2C604
  8
0
  6
DASHED
 62
     3
 10
3440.8248614522299
 20
16963.557519436581
 30
0.0
 11
3440.8248614522299
 21
16965.357519436569
 31
0.0
  0
LINE
  5
2C605
  8
0
  6
DASHED
 62
     3
 10
3439.824861452229
 20
16963.357519436569
 30
0.0
 11
3439.824861452229
 21
16965.357519436569
 31
0.0
  0
LINE
  5
2C606
  8
0
  6
DASHED
 62
     3
 10
3438.824861452229
 20
16963.557519436581
 30
0.0
 11
3437.7856314522292
 21
16965.357519436569
 31
0.0
  0
LINE
  5
2C607
  8
0
  6
DASHED
 62
     3
 10
3438.824861452229
 20
16967.157519436569
 30
0.0
 11
3438.824861452229
 21
16963.557519436581
 31
0.0
  0
LINE
  5
2C608
  8
0
  6
DASHED
 62
     3
 10
3438.3248614522299
 20
16959.85751943658
 30
0.0
 11
3440.324861452229
 21
16959.85751943658
 31
0.0
  0
LINE
  5
2C609
  8
0
  6
DASHED
 62
     3
 10
3441.0248614522288
 20
16963.357519436569
 30
0.0
 11
3439.824861452229
 21
16963.357519436569
 31
0.0
  0
LINE
  5
2C60A
  8
0
  6
DASHED
 62
     3
 10
3440.8248614522299
 20
16963.557519436581
 30
0.0
 11
3438.824861452229
 21
16963.557519436581
 31
0.0
  0
LINE
  5
2C60B
  8
0
  6
DASHED
 62
     3
 10
3438.3248614522299
 20
16959.85751943658
 30
0.0
 11
3438.3248614522299
 21
16954.35751943658
 31
0.0
  0
LINE
  5
2C60C
  8
0
  6
DASHED
 62
     3
 10
3434.324861452229
 20
16959.357519436569
 30
0.0
 11
3438.3248614522299
 21
16959.357519436569
 31
0.0
  0
LINE
  5
2C60D
  8
0
  6
DASHED
 62
     3
 10
3440.324861452229
 20
16959.85751943658
 30
0.0
 11
3440.324861452229
 21
16954.35751943658
 31
0.0
  0
LINE
  5
2C60E
  8
0
  6
DASHED
 62
     3
 10
3441.0248614522288
 20
16963.357519436569
 30
0.0
 11
3440.8248614522299
 21
16963.557519436581
 31
0.0
  0
LINE
  5
2C60F
  8
0
  6
DASHED
 62
     3
 10
3441.0248614522288
 20
16967.357519436569
 30
0.0
 11
3439.824861452229
 21
16967.357519436569
 31
0.0
  0
LINE
  5
2C610
  8
0
  6
DASHED
 62
     3
 10
3440.8248614522299
 20
16967.157519436569
 30
0.0
 11
3438.824861452229
 21
16967.157519436569
 31
0.0
  0
LINE
  5
2C611
  8
0
  6
DASHED
 62
     3
 10
3438.824861452229
 20
16967.157519436569
 30
0.0
 11
3437.7856314522292
 21
16965.357519436569
 31
0.0
  0
LINE
  5
2C612
  8
0
  6
DASHED
 62
     3
 10
3439.824861452229
 20
16967.357519436569
 30
0.0
 11
3439.824861452229
 21
16965.357519436569
 31
0.0
  0
LINE
  5
2C613
  8
0
  6
DASHED
 62
     3
 10
3441.0248614522288
 20
16967.357519436569
 30
0.0
 11
3440.8248614522299
 21
16967.157519436569
 31
0.0
  0
LINE
  5
2C614
  8
0
  6
DASHED
 62
     3
 10
3441.0248614522288
 20
16967.357519436569
 30
0.0
 11
3441.0248614522288
 21
16965.357519436569
 31
0.0
  0
LINE
  5
2C615
  8
0
  6
DASHED
 62
     3
 10
3440.8248614522299
 20
16967.157519436569
 30
0.0
 11
3440.8248614522299
 21
16965.357519436569
 31
0.0
  0
LINE
  5
2C616
  8
0
  6
CONTINUOUS
 62
     7
 10
3460.824861452229
 20
16961.85751943658
 30
0.0
 11
3460.824861452229
 21
16965.357519436569
 31
0.0
  0
LINE
  5
2C617
  8
0
  6
CONTINUOUS
 62
     7
 10
3456.824861452229
 20
16968.857519436569
 30
0.0
 11
3456.824861452229
 21
16961.85751943658
 31
0.0
  0
LINE
  5
2C618
  8
0
  6
DASHED
 62
     3
 10
3453.491528452229
 20
16963.357519436569
 30
0.0
 11
3453.491528452229
 21
16965.357519436569
 31
0.0
  0
LINE
  5
2C619
  8
0
  6
CONTINUOUS
 62
     7
 10
3451.824861452229
 20
16967.357519436569
 30
0.0
 11
3451.824861452229
 21
16963.357519436569
 31
0.0
  0
LINE
  5
2C61A
  8
0
  6
DASHED
 62
     3
 10
3456.824861452229
 20
16963.357519436569
 30
0.0
 11
3451.824861452229
 21
16963.357519436569
 31
0.0
  0
LINE
  5
2C61B
  8
0
  6
CONTINUOUS
 62
     7
 10
3451.824861452229
 20
16960.357519436569
 30
0.0
 11
3451.824861452229
 21
16954.35751943658
 31
0.0
  0
LINE
  5
2C61C
  8
0
  6
DASHED
 62
     3
 10
3451.824861452229
 20
16963.557519436581
 30
0.0
 11
3453.491528452229
 21
16963.557519436581
 31
0.0
  0
LINE
  5
2C61D
  8
0
  6
CONTINUOUS
 62
     7
 10
3451.824861452229
 20
16960.357519436569
 30
0.0
 11
3450.324861452229
 21
16960.29230243657
 31
0.0
  0
LINE
  5
2C61E
  8
0
 62
     3
 10
3451.824861452229
 20
16963.557519436581
 30
0.0
 11
3450.324861452229
 21
16963.557519436581
 31
0.0
  0
LINE
  5
2C61F
  8
0
  6
CONTINUOUS
 62
     7
 10
3451.824861452229
 20
16963.357519436569
 30
0.0
 11
3450.324861452229
 21
16963.357519436569
 31
0.0
  0
LINE
  5
2C620
  8
0
  6
CONTINUOUS
 62
     7
 10
3451.824861452229
 20
16963.357519436569
 30
0.0
 11
3451.824861452229
 21
16960.357519436569
 31
0.0
  0
LINE
  5
2C621
  8
0
  6
CONTINUOUS
 62
     7
 10
3456.824861452229
 20
16961.85751943658
 30
0.0
 11
3456.824861452229
 21
16954.35751943658
 31
0.0
  0
LINE
  5
2C622
  8
0
  6
CONTINUOUS
 62
     7
 10
3456.824861452229
 20
16961.85751943658
 30
0.0
 11
3460.824861452229
 21
16961.85751943658
 31
0.0
  0
LINE
  5
2C623
  8
0
  6
DASHED
 62
     3
 10
3456.824861452229
 20
16967.357519436569
 30
0.0
 11
3451.824861452229
 21
16967.357519436569
 31
0.0
  0
LINE
  5
2C624
  8
0
  6
CONTINUOUS
 62
     7
 10
3451.824861452229
 20
16969.357519436569
 30
0.0
 11
3456.824861452229
 21
16969.357519436569
 31
0.0
  0
LINE
  5
2C625
  8
0
  6
DASHED
 62
     3
 10
3451.824861452229
 20
16967.157519436569
 30
0.0
 11
3453.491528452229
 21
16967.157519436569
 31
0.0
  0
LINE
  5
2C626
  8
0
 62
     3
 10
3451.824861452229
 20
16967.157519436569
 30
0.0
 11
3450.324861452229
 21
16967.157519436569
 31
0.0
  0
LINE
  5
2C627
  8
0
  6
CONTINUOUS
 62
     7
 10
3451.824861452229
 20
16967.357519436569
 30
0.0
 11
3450.324861452229
 21
16967.357519436569
 31
0.0
  0
LINE
  5
2C628
  8
0
  6
CONTINUOUS
 62
     7
 10
3451.824861452229
 20
16969.357519436569
 30
0.0
 11
3451.824861452229
 21
16967.357519436569
 31
0.0
  0
LINE
  5
2C629
  8
0
  6
DASHED
 62
     3
 10
3453.491528452229
 20
16967.357519436569
 30
0.0
 11
3453.491528452229
 21
16965.357519436569
 31
0.0
  0
LINE
  5
2C62A
  8
0
  6
CONTINUOUS
 62
     7
 10
3456.824861452229
 20
16968.857519436569
 30
0.0
 11
3460.824861452229
 21
16968.857519436569
 31
0.0
  0
LINE
  5
2C62B
  8
0
  6
CONTINUOUS
 62
     7
 10
3456.824861452229
 20
16969.357519436569
 30
0.0
 11
3456.824861452229
 21
16968.857519436569
 31
0.0
  0
LINE
  5
2C62C
  8
0
  6
CONTINUOUS
 62
     7
 10
3460.824861452229
 20
16968.857519436569
 30
0.0
 11
3460.824861452229
 21
16965.357519436569
 31
0.0
  0
CIRCLE
  5
2C62D
  8
0
  6
CONTINUOUS
 62
     7
 10
3506.935767564004
 20
16965.357519436569
 30
0.0
 40
3.5
  0
CIRCLE
  5
2C62E
  8
0
  6
CONTINUOUS
 62
     7
 10
3506.935767564004
 20
16954.35751943658
 30
0.0
 40
5.0
  0
CIRCLE
  5
2C62F
  8
CENTER
  6
CENTER
 62
     1
 10
3506.935767564004
 20
16954.35751943658
 30
0.0
 40
11.0
  0
CIRCLE
  5
2C630
  8
0
  6
CONTINUOUS
 62
     7
 10
3506.935767564004
 20
16954.35751943658
 30
0.0
 40
15.0
  0
CIRCLE
  5
2C631
  8
0
  6
CONTINUOUS
 62
     7
 10
3506.935767564004
 20
16954.35751943658
 30
0.0
 40
15.0
  0
CIRCLE
  5
2C632
  8
0
  6
CONTINUOUS
 62
     7
 10
3506.935767564004
 20
16954.35751943658
 30
0.0
 40
15.0
  0
CIRCLE
  5
2C633
  8
0
  6
CONTINUOUS
 62
     7
 10
3497.4094885640052
 20
16948.857519436569
 30
0.0
 40
3.5
  0
LINE
  5
2C634
  8
CENTER
  6
CENTER
 62
     1
 10
3491.7803225640041
 20
16945.60751943658
 30
0.0
 11
3503.0386535640041
 21
16952.107519436569
 31
0.0
  0
LINE
  5
2C635
  8
CENTER
  6
CENTER
 62
     1
 10
3498.935767564004
 20
16940.501113436581
 30
0.0
 11
3503.935767564004
 21
16949.161367436569
 31
0.0
  0
ARC
  5
2C636
  8
0
  6
CONTINUOUS
 62
     3
 10
3501.435767564004
 20
16944.831240436579
 30
0.0
 40
2.0
 50
150.00000000000071
 51
62.000000000006921
  0
CIRCLE
  5
2C637
  8
0
  6
CONTINUOUS
 62
     7
 10
3501.435767564004
 20
16944.831240436579
 30
0.0
 40
1.8
  0
LINE
  5
2C638
  8
CENTER
  6
CENTER
 62
     1
 10
3506.935767564004
 20
16971.857519436569
 30
0.0
 11
3506.935767564004
 21
16958.857519436569
 31
0.0
  0
CIRCLE
  5
2C639
  8
0
  6
CONTINUOUS
 62
     7
 10
3516.4620465640028
 20
16948.857519436569
 30
0.0
 40
3.5
  0
LINE
  5
2C63A
  8
CENTER
  6
CENTER
 62
     1
 10
3522.0912125640029
 20
16945.60751943658
 30
0.0
 11
3510.8328815640039
 21
16952.107519436569
 31
0.0
  0
CIRCLE
  5
2C63B
  8
0
  6
CONTINUOUS
 62
     7
 10
3512.4357675640031
 20
16963.883798436571
 30
0.0
 40
1.8
  0
ARC
  5
2C63C
  8
0
  6
CONTINUOUS
 62
     3
 10
3512.4357675640031
 20
16963.883798436571
 30
0.0
 40
2.0
 50
150.00000000000071
 51
62.000000000006921
  0
LINE
  5
2C63D
  8
CENTER
  6
CENTER
 62
     1
 10
3509.935767564004
 20
16959.553671436581
 30
0.0
 11
3514.9357675640031
 21
16968.213925436568
 31
0.0
  0
CIRCLE
  5
2C63E
  8
0
  6
CONTINUOUS
 62
     7
 10
3506.935767564004
 20
16954.35751943658
 30
0.0
 40
22.5
  0
CIRCLE
  5
2C63F
  8
0
  6
CENTER
 62
     1
 10
3506.935767564004
 20
16954.35751943658
 30
0.0
 40
19.100000000000001
  0
CIRCLE
  5
2C640
  8
0
  6
DASHED
 62
     3
 10
3506.935767564004
 20
16954.35751943658
 30
0.0
 40
18.699999999999999
  0
CIRCLE
  5
2C641
  8
0
  6
DASHED
 62
     3
 10
3506.935767564004
 20
16954.35751943658
 30
0.0
 40
16.899999999999999
  0
CIRCLE
  5
2C642
  8
0
  6
CONTINUOUS
 62
     7
 10
3506.935767564004
 20
16954.35751943658
 30
0.0
 40
15.0
  0
LINE
  5
2C643
  8
0
  6
CENTER
 62
     1
 10
3481.435767564004
 20
16954.35751943658
 30
0.0
 11
3532.435767564004
 21
16954.35751943658
 31
0.0
  0
LINE
  5
2C644
  8
0
  6
CENTER
 62
     1
 10
3506.935767564004
 20
16979.85751943658
 30
0.0
 11
3506.935767564004
 21
16928.857519436569
 31
0.0
  0
LINE
  5
2C645
  8
0
  6
CONTINUOUS
 62
     7
 10
3449.0248614522288
 20
16976.857519436569
 30
0.0
 11
3450.0248614522288
 21
16976.857519436569
 31
0.0
  0
LINE
  5
2C646
  8
0
  6
DASHED
 62
     3
 10
3450.0248614522288
 20
16969.357519436569
 30
0.0
 11
3447.824861452229
 21
16969.357519436569
 31
0.0
  0
LINE
  5
2C647
  8
0
  6
CONTINUOUS
 62
     7
 10
3450.324861452229
 20
16969.357519436569
 30
0.0
 11
3450.0248614522288
 21
16969.357519436569
 31
0.0
  0
LINE
  5
2C648
  8
0
  6
DASHED
 62
     3
 10
3448.824861452229
 20
16969.357519436569
 30
0.0
 11
3448.824861452229
 21
16973.057519436581
 31
0.0
  0
LINE
  5
2C649
  8
0
  6
CONTINUOUS
 62
     7
 10
3447.824861452229
 20
16969.357519436569
 30
0.0
 11
3447.824861452229
 21
16973.057519436581
 31
0.0
  0
LINE
  5
2C64A
  8
0
  6
DASHED
 62
     3
 10
3448.824861452229
 20
16973.057519436581
 30
0.0
 11
3450.0248614522288
 21
16976.857519436569
 31
0.0
  0
LINE
  5
2C64B
  8
0
  6
CONTINUOUS
 62
     7
 10
3447.824861452229
 20
16973.057519436581
 30
0.0
 11
3449.0248614522288
 21
16976.857519436569
 31
0.0
  0
LINE
  5
2C64C
  8
0
  6
CONTINUOUS
 62
     7
 10
3450.324861452229
 20
16939.35751943658
 30
0.0
 11
3450.0248614522288
 21
16939.35751943658
 31
0.0
  0
LINE
  5
2C64D
  8
0
  6
DASHED
 62
     3
 10
3450.0248614522288
 20
16939.35751943658
 30
0.0
 11
3447.824861452229
 21
16939.35751943658
 31
0.0
  0
LINE
  5
2C64E
  8
0
  6
CONTINUOUS
 62
     7
 10
3450.324861452229
 20
16954.35751943658
 30
0.0
 11
3450.324861452229
 21
16939.35751943658
 31
0.0
  0
LINE
  5
2C64F
  8
0
  6
CONTINUOUS
 62
     7
 10
3447.824861452229
 20
16939.35751943658
 30
0.0
 11
3447.824861452229
 21
16954.35751943658
 31
0.0
  0
LINE
  5
2C650
  8
0
  6
CONTINUOUS
 62
     7
 10
3449.0248614522288
 20
16931.857519436569
 30
0.0
 11
3450.0248614522288
 21
16931.857519436569
 31
0.0
  0
LINE
  5
2C651
  8
0
  6
CONTINUOUS
 62
     7
 10
3447.824861452229
 20
16935.657519436569
 30
0.0
 11
3449.0248614522288
 21
16931.857519436569
 31
0.0
  0
LINE
  5
2C652
  8
0
  6
DASHED
 62
     3
 10
3448.824861452229
 20
16935.657519436569
 30
0.0
 11
3450.0248614522288
 21
16931.857519436569
 31
0.0
  0
LINE
  5
2C653
  8
0
  6
CONTINUOUS
 62
     7
 10
3450.0248614522288
 20
16931.857519436569
 30
0.0
 11
3450.0248614522288
 21
16954.35751943658
 31
0.0
  0
LINE
  5
2C654
  8
0
  6
CONTINUOUS
 62
     7
 10
3449.0248614522288
 20
16931.857519436569
 30
0.0
 11
3449.0248614522288
 21
16954.35751943658
 31
0.0
  0
LINE
  5
2C655
  8
0
  6
CONTINUOUS
 62
     7
 10
3447.824861452229
 20
16939.35751943658
 30
0.0
 11
3447.824861452229
 21
16935.657519436569
 31
0.0
  0
LINE
  5
2C656
  8
0
  6
DASHED
 62
     3
 10
3448.824861452229
 20
16939.35751943658
 30
0.0
 11
3448.824861452229
 21
16935.657519436569
 31
0.0
  0
LINE
  5
2C657
  8
0
  6
CONTINUOUS
 62
     7
 10
3447.824861452229
 20
16969.357519436569
 30
0.0
 11
3447.824861452229
 21
16954.35751943658
 31
0.0
  0
LINE
  5
2C658
  8
0
  6
CONTINUOUS
 62
     7
 10
3449.0248614522288
 20
16976.857519436569
 30
0.0
 11
3449.0248614522288
 21
16954.35751943658
 31
0.0
  0
LINE
  5
2C659
  8
0
  6
CONTINUOUS
 62
     7
 10
3450.0248614522288
 20
16976.857519436569
 30
0.0
 11
3450.0248614522288
 21
16954.35751943658
 31
0.0
  0
LINE
  5
2C65A
  8
0
  6
CONTINUOUS
 62
     7
 10
3450.324861452229
 20
16954.35751943658
 30
0.0
 11
3450.324861452229
 21
16969.357519436569
 31
0.0
  0
LINE
  5
2C65B
  8
0
  6
CONTINUOUS
 62
     7
 10
3435.6248614522292
 20
16976.857519436569
 30
0.0
 11
3434.6248614522292
 21
16976.857519436569
 31
0.0
  0
LINE
  5
2C65C
  8
0
  6
DASHED
 62
     3
 10
3434.6248614522292
 20
16969.357519436569
 30
0.0
 11
3436.8248614522299
 21
16969.357519436569
 31
0.0
  0
LINE
  5
2C65D
  8
0
  6
CONTINUOUS
 62
     7
 10
3434.324861452229
 20
16969.357519436569
 30
0.0
 11
3434.6248614522292
 21
16969.357519436569
 31
0.0
  0
LINE
  5
2C65E
  8
0
  6
DASHED
 62
     3
 10
3435.824861452229
 20
16969.357519436569
 30
0.0
 11
3435.824861452229
 21
16973.057519436581
 31
0.0
  0
LINE
  5
2C65F
  8
0
  6
CONTINUOUS
 62
     7
 10
3436.8248614522299
 20
16969.357519436569
 30
0.0
 11
3436.8248614522299
 21
16973.057519436581
 31
0.0
  0
LINE
  5
2C660
  8
0
  6
DASHED
 62
     3
 10
3435.824861452229
 20
16973.057519436581
 30
0.0
 11
3434.6248614522292
 21
16976.857519436569
 31
0.0
  0
LINE
  5
2C661
  8
0
  6
CONTINUOUS
 62
     7
 10
3436.8248614522299
 20
16973.057519436581
 30
0.0
 11
3435.6248614522292
 21
16976.857519436569
 31
0.0
  0
LINE
  5
2C662
  8
0
  6
CONTINUOUS
 62
     7
 10
3434.324861452229
 20
16939.35751943658
 30
0.0
 11
3434.6248614522292
 21
16939.35751943658
 31
0.0
  0
LINE
  5
2C663
  8
0
  6
DASHED
 62
     3
 10
3434.6248614522292
 20
16939.35751943658
 30
0.0
 11
3436.8248614522299
 21
16939.35751943658
 31
0.0
  0
LINE
  5
2C664
  8
0
  6
CONTINUOUS
 62
     7
 10
3434.324861452229
 20
16954.35751943658
 30
0.0
 11
3434.324861452229
 21
16939.35751943658
 31
0.0
  0
LINE
  5
2C665
  8
0
  6
CONTINUOUS
 62
     7
 10
3436.8248614522299
 20
16939.35751943658
 30
0.0
 11
3436.8248614522299
 21
16954.35751943658
 31
0.0
  0
LINE
  5
2C666
  8
0
  6
CONTINUOUS
 62
     7
 10
3435.6248614522292
 20
16931.857519436569
 30
0.0
 11
3434.6248614522292
 21
16931.857519436569
 31
0.0
  0
LINE
  5
2C667
  8
0
  6
CONTINUOUS
 62
     7
 10
3436.8248614522299
 20
16935.657519436569
 30
0.0
 11
3435.6248614522292
 21
16931.857519436569
 31
0.0
  0
LINE
  5
2C668
  8
0
  6
DASHED
 62
     3
 10
3435.824861452229
 20
16935.657519436569
 30
0.0
 11
3434.6248614522292
 21
16931.857519436569
 31
0.0
  0
LINE
  5
2C669
  8
0
  6
CONTINUOUS
 62
     7
 10
3435.6248614522292
 20
16931.857519436569
 30
0.0
 11
3435.6248614522292
 21
16954.35751943658
 31
0.0
  0
LINE
  5
2C66A
  8
0
  6
CONTINUOUS
 62
     7
 10
3434.6248614522292
 20
16931.857519436569
 30
0.0
 11
3434.6248614522292
 21
16954.35751943658
 31
0.0
  0
LINE
  5
2C66B
  8
0
  6
CONTINUOUS
 62
     7
 10
3436.8248614522299
 20
16939.35751943658
 30
0.0
 11
3436.8248614522299
 21
16935.657519436569
 31
0.0
  0
LINE
  5
2C66C
  8
0
  6
DASHED
 62
     3
 10
3435.824861452229
 20
16939.35751943658
 30
0.0
 11
3435.824861452229
 21
16935.657519436569
 31
0.0
  0
LINE
  5
2C66D
  8
0
  6
CONTINUOUS
 62
     7
 10
3434.6248614522292
 20
16976.857519436569
 30
0.0
 11
3434.6248614522292
 21
16954.35751943658
 31
0.0
  0
LINE
  5
2C66E
  8
0
  6
CONTINUOUS
 62
     7
 10
3435.6248614522292
 20
16976.857519436569
 30
0.0
 11
3435.6248614522292
 21
16954.35751943658
 31
0.0
  0
LINE
  5
2C66F
  8
0
  6
CONTINUOUS
 62
     7
 10
3436.8248614522299
 20
16969.357519436569
 30
0.0
 11
3436.8248614522299
 21
16954.35751943658
 31
0.0
  0
LINE
  5
2C670
  8
0
  6
CONTINUOUS
 62
     7
 10
3434.324861452229
 20
16954.35751943658
 30
0.0
 11
3434.324861452229
 21
16969.357519436569
 31
0.0
  0
LINE
  5
2C672
  8
0
  6
CONTINUOUS
 62
     7
 10
3436.8248614522299
 20
16935.657519436569
 30
0.0
 11
3447.824861452229
 21
16935.657519436569
 31
0.0
  0
LINE
  5
2C673
  8
0
  6
CONTINUOUS
 62
     3
 10
3436.8248614522299
 20
16937.457519436572
 30
0.0
 11
3447.824861452229
 21
16937.457519436572
 31
0.0
  0
LINE
  5
2C674
  8
0
  6
CONTINUOUS
 62
     3
 10
3436.8248614522299
 20
16971.257519436582
 30
0.0
 11
3447.824861452229
 21
16971.257519436582
 31
0.0
  0
LINE
  5
2C675
  8
0
  6
CONTINUOUS
 62
     7
 10
3436.8248614522299
 20
16973.057519436581
 30
0.0
 11
3447.824861452229
 21
16973.057519436581
 31
0.0
  0
LINE
  5
2C677
  8
0
  6
CENTER
 62
     1
 10
3431.3248614522299
 20
16954.35751943658
 30
0.0
 11
3460.6080020205409
 21
16954.35751943658
 31
0.0
  0
CIRCLE
  5
2CA55
  8
0
  6
CONTINUOUS
 62
     7
 10
3632.046673675778
 20
16954.35751943658
 30
0.0
 40
15.0
  0
CIRCLE
  5
2CA56
  8
0
  6
CONTINUOUS
 62
     7
 10
3632.046673675778
 20
16954.35751943658
 30
0.0
 40
15.0
  0
CIRCLE
  5
2CA57
  8
0
  6
CONTINUOUS
 62
     7
 10
3632.046673675778
 20
16954.35751943658
 30
0.0
 40
15.0
  0
CIRCLE
  5
2CA63
  8
0
  6
CONTINUOUS
 62
     7
 10
3632.046673675778
 20
16954.35751943658
 30
0.0
 40
22.5
  0
CIRCLE
  5
2CA64
  8
0
  6
CENTER
 62
     1
 10
3632.046673675778
 20
16954.35751943658
 30
0.0
 40
19.100000000000001
  0
CIRCLE
  5
2CA65
  8
0
  6
DASHED
 62
     3
 10
3632.046673675778
 20
16954.35751943658
 30
0.0
 40
18.699999999999999
  0
CIRCLE
  5
2CA66
  8
0
  6
DASHED
 62
     3
 10
3632.046673675778
 20
16954.35751943658
 30
0.0
 40
16.899999999999999
  0
CIRCLE
  5
2CA67
  8
0
  6
CONTINUOUS
 62
     7
 10
3632.046673675778
 20
16954.35751943658
 30
0.0
 40
15.0
  0
LINE
  5
2CA68
  8
0
  6
CENTER
 62
     1
 10
3606.546673675778
 20
16954.35751943658
 30
0.0
 11
3657.546673675778
 21
16954.35751943658
 31
0.0
  0
LINE
  5
2CA69
  8
0
  6
CENTER
 62
     1
 10
3632.046673675778
 20
16979.85751943658
 30
0.0
 11
3632.046673675778
 21
16928.857519436569
 31
0.0
  0
LINE
  5
2CA6A
  8
0
  6
CONTINUOUS
 62
     7
 10
3584.1357675640029
 20
16976.857519436569
 30
0.0
 11
3585.1357675640029
 21
16976.857519436569
 31
0.0
  0
LINE
  5
2CA6B
  8
0
  6
DASHED
 62
     3
 10
3585.1357675640029
 20
16969.357519436569
 30
0.0
 11
3582.9357675640031
 21
16969.357519436569
 31
0.0
  0
LINE
  5
2CA6C
  8
0
  6
CONTINUOUS
 62
     7
 10
3585.435767564004
 20
16969.357519436569
 30
0.0
 11
3585.1357675640029
 21
16969.357519436569
 31
0.0
  0
LINE
  5
2CA6D
  8
0
  6
DASHED
 62
     3
 10
3583.935767564004
 20
16969.357519436569
 30
0.0
 11
3583.935767564004
 21
16973.057519436581
 31
0.0
  0
LINE
  5
2CA6E
  8
0
  6
CONTINUOUS
 62
     7
 10
3582.9357675640031
 20
16969.357519436569
 30
0.0
 11
3582.9357675640031
 21
16973.057519436581
 31
0.0
  0
LINE
  5
2CA6F
  8
0
  6
DASHED
 62
     3
 10
3583.935767564004
 20
16973.057519436581
 30
0.0
 11
3585.1357675640029
 21
16976.857519436569
 31
0.0
  0
LINE
  5
2CA70
  8
0
  6
CONTINUOUS
 62
     7
 10
3582.9357675640031
 20
16973.057519436581
 30
0.0
 11
3584.1357675640029
 21
16976.857519436569
 31
0.0
  0
LINE
  5
2CA71
  8
0
  6
CONTINUOUS
 62
     7
 10
3585.435767564004
 20
16939.35751943658
 30
0.0
 11
3585.1357675640029
 21
16939.35751943658
 31
0.0
  0
LINE
  5
2CA72
  8
0
  6
DASHED
 62
     3
 10
3585.1357675640029
 20
16939.35751943658
 30
0.0
 11
3582.9357675640031
 21
16939.35751943658
 31
0.0
  0
LINE
  5
2CA75
  8
0
  6
CONTINUOUS
 62
     7
 10
3584.1357675640029
 20
16931.857519436569
 30
0.0
 11
3585.1357675640029
 21
16931.857519436569
 31
0.0
  0
LINE
  5
2CA76
  8
0
  6
CONTINUOUS
 62
     7
 10
3582.9357675640031
 20
16935.657519436569
 30
0.0
 11
3584.1357675640029
 21
16931.857519436569
 31
0.0
  0
LINE
  5
2CA77
  8
0
  6
DASHED
 62
     3
 10
3583.935767564004
 20
16935.657519436569
 30
0.0
 11
3585.1357675640029
 21
16931.857519436569
 31
0.0
  0
LINE
  5
2CA7A
  8
0
  6
CONTINUOUS
 62
     7
 10
3582.9357675640031
 20
16939.35751943658
 30
0.0
 11
3582.9357675640031
 21
16935.657519436569
 31
0.0
  0
LINE
  5
2CA7B
  8
0
  6
DASHED
 62
     3
 10
3583.935767564004
 20
16939.35751943658
 30
0.0
 11
3583.935767564004
 21
16935.657519436569
 31
0.0
  0
LINE
  5
2CA7C
  8
0
  6
CONTINUOUS
 62
     7
 10
3582.9357675640031
 20
16969.357519436569
 30
0.0
 11
3582.9357675640031
 21
16939.35751943658
 31
0.0
  0
LINE
  5
2CA7D
  8
0
  6
CONTINUOUS
 62
     7
 10
3584.1357675640029
 20
16976.857519436569
 30
0.0
 11
3584.1357675640029
 21
16931.857519436569
 31
0.0
  0
LINE
  5
2CA7E
  8
0
  6
CONTINUOUS
 62
     7
 10
3585.1357675640029
 20
16976.857519436569
 30
0.0
 11
3585.1357675640029
 21
16931.857519436569
 31
0.0
  0
LINE
  5
2CA7F
  8
0
  6
CONTINUOUS
 62
     7
 10
3585.435767564004
 20
16939.35751943658
 30
0.0
 11
3585.435767564004
 21
16969.357519436569
 31
0.0
  0
LINE
  5
2CA80
  8
0
  6
CONTINUOUS
 62
     7
 10
3570.7357675640028
 20
16976.857519436569
 30
0.0
 11
3569.7357675640042
 21
16976.857519436569
 31
0.0
  0
LINE
  5
2CA81
  8
0
  6
DASHED
 62
     3
 10
3569.7357675640042
 20
16969.357519436569
 30
0.0
 11
3571.9357675640031
 21
16969.357519436569
 31
0.0
  0
LINE
  5
2CA82
  8
0
  6
CONTINUOUS
 62
     7
 10
3569.435767564004
 20
16969.357519436569
 30
0.0
 11
3569.7357675640042
 21
16969.357519436569
 31
0.0
  0
LINE
  5
2CA83
  8
0
  6
DASHED
 62
     3
 10
3570.935767564004
 20
16969.357519436569
 30
0.0
 11
3570.935767564004
 21
16973.057519436581
 31
0.0
  0
LINE
  5
2CA84
  8
0
  6
CONTINUOUS
 62
     7
 10
3571.9357675640031
 20
16969.357519436569
 30
0.0
 11
3571.9357675640031
 21
16973.057519436581
 31
0.0
  0
LINE
  5
2CA85
  8
0
  6
DASHED
 62
     3
 10
3570.935767564004
 20
16973.057519436581
 30
0.0
 11
3569.7357675640042
 21
16976.857519436569
 31
0.0
  0
LINE
  5
2CA86
  8
0
  6
CONTINUOUS
 62
     7
 10
3571.9357675640031
 20
16973.057519436581
 30
0.0
 11
3570.7357675640028
 21
16976.857519436569
 31
0.0
  0
LINE
  5
2CA87
  8
0
  6
CONTINUOUS
 62
     7
 10
3569.435767564004
 20
16939.35751943658
 30
0.0
 11
3569.7357675640042
 21
16939.35751943658
 31
0.0
  0
LINE
  5
2CA88
  8
0
  6
DASHED
 62
     3
 10
3569.7357675640042
 20
16939.35751943658
 30
0.0
 11
3571.9357675640031
 21
16939.35751943658
 31
0.0
  0
LINE
  5
2CA8B
  8
0
  6
CONTINUOUS
 62
     7
 10
3570.7357675640028
 20
16931.857519436569
 30
0.0
 11
3569.7357675640042
 21
16931.857519436569
 31
0.0
  0
LINE
  5
2CA8C
  8
0
  6
CONTINUOUS
 62
     7
 10
3571.9357675640031
 20
16935.657519436569
 30
0.0
 11
3570.7357675640028
 21
16931.857519436569
 31
0.0
  0
LINE
  5
2CA8D
  8
0
  6
DASHED
 62
     3
 10
3570.935767564004
 20
16935.657519436569
 30
0.0
 11
3569.7357675640042
 21
16931.857519436569
 31
0.0
  0
LINE
  5
2CA90
  8
0
  6
CONTINUOUS
 62
     7
 10
3571.9357675640031
 20
16939.35751943658
 30
0.0
 11
3571.9357675640031
 21
16935.657519436569
 31
0.0
  0
LINE
  5
2CA91
  8
0
  6
DASHED
 62
     3
 10
3570.935767564004
 20
16939.35751943658
 30
0.0
 11
3570.935767564004
 21
16935.657519436569
 31
0.0
  0
LINE
  5
2CA92
  8
0
  6
CONTINUOUS
 62
     7
 10
3569.7357675640042
 20
16976.857519436569
 30
0.0
 11
3569.7357675640042
 21
16931.857519436569
 31
0.0
  0
LINE
  5
2CA93
  8
0
  6
CONTINUOUS
 62
     7
 10
3570.7357675640028
 20
16976.857519436569
 30
0.0
 11
3570.7357675640028
 21
16931.857519436569
 31
0.0
  0
LINE
  5
2CA94
  8
0
  6
CONTINUOUS
 62
     7
 10
3571.9357675640031
 20
16969.357519436569
 30
0.0
 11
3571.9357675640031
 21
16939.35751943658
 31
0.0
  0
LINE
  5
2CA95
  8
0
  6
CONTINUOUS
 62
     7
 10
3569.435767564004
 20
16939.35751943658
 30
0.0
 11
3569.435767564004
 21
16969.357519436569
 31
0.0
  0
LINE
  5
2CA96
  8
0
  6
CENTER
 62
     1
 10
3571.8094517745312
 20
16935.257519436582
 30
0.0
 11
3583.0620833534772
 21
16935.257519436582
 31
0.0
  0
LINE
  5
2CA97
  8
0
  6
CONTINUOUS
 62
     7
 10
3571.9357675640031
 20
16935.657519436569
 30
0.0
 11
3582.9357675640031
 21
16935.657519436569
 31
0.0
  0
LINE
  5
2CA98
  8
0
  6
CONTINUOUS
 62
     3
 10
3571.9357675640031
 20
16937.457519436572
 30
0.0
 11
3582.9357675640031
 21
16937.457519436572
 31
0.0
  0
LINE
  5
2CA99
  8
0
  6
CONTINUOUS
 62
     3
 10
3571.9357675640031
 20
16971.257519436582
 30
0.0
 11
3582.9357675640031
 21
16971.257519436582
 31
0.0
  0
LINE
  5
2CA9A
  8
0
  6
CONTINUOUS
 62
     7
 10
3571.9357675640031
 20
16973.057519436581
 30
0.0
 11
3582.9357675640031
 21
16973.057519436581
 31
0.0
  0
LINE
  5
2CA9B
  8
0
  6
CENTER
 62
     1
 10
3571.8094517745312
 20
16973.457519436572
 30
0.0
 11
3583.0620833534772
 21
16973.457519436572
 31
0.0
  0
LINE
  5
2CAC9
  8
0
  6
CENTER
 62
     1
 10
3436.6985456627558
 20
16935.257519436582
 30
0.0
 11
3447.9511772417022
 21
16935.257519436582
 31
0.0
  0
LINE
  5
2CACA
  8
0
  6
CENTER
 62
     1
 10
3436.6985456627558
 20
16973.457519436572
 30
0.0
 11
3447.9511772417022
 21
16973.457519436572
 31
0.0
  0
TEXT
  5
2CB0C
  8
0
  6
CONTINUOUS
 62
     7
 10
3434.324861452229
 20
16912.857519436569
 30
0.0
 40
2.0
  1
TTLA24T5100-F-8
  7
MISUMI
  0
TEXT
  5
2CB0D
  8
0
  6
CONTINUOUS
 62
     7
 10
3434.324861452229
 20
16908.85751943658
 30
0.0
 40
2.0
  1
TTLA24T5100
  7
MISUMI
  0
TEXT
  5
2CBB1
  8
0
  6
CONTINUOUS
 62
     7
 10
3436.658194785563
 20
16985.85751943658
 30
0.0
 40
2.0
  1
TYPE E
  7
MISUMI
 72
     1
 11
3442.3248614522299
 21
16986.857519436569
 31
0.0
 73
     2
  0
TEXT
  5
2CBB2
  8
0
  6
CONTINUOUS
 62
     7
 10
3571.769100897337
 20
16985.85751943658
 30
0.0
 40
2.0
  1
TYPE F
  7
MISUMI
 72
     1
 11
3577.4357675640031
 21
16986.857519436569
 31
0.0
 73
     2
  0
LINE
  5
2CBC7
  8
CENTER
  6
CENTER
 62
     1
 10
3642.6554849047761
 20
16948.232519493111
 30
0.0
 11
3637.026319686328
 21
16951.482519330559
 31
0.0
  0
CIRCLE
  5
2CBC8
  8
0
  6
CONTINUOUS
 62
     7
 10
3639.840902295552
 20
16949.857519411831
 30
0.0
 40
2.75
  0
CIRCLE
  5
2CBC9
  8
0
  6
CONTINUOUS
 62
     7
 10
3632.046673675778
 20
16954.35751943658
 30
0.0
 40
12.75
  0
CIRCLE
  5
2CBCA
  8
0
  6
CONTINUOUS
 62
     7
 10
3624.2524450560031
 20
16949.857519411831
 30
0.0
 40
2.75
  0
LINE
  5
2CBCB
  8
CENTER
  6
CENTER
 62
     1
 10
3621.4378624467759
 20
16948.232519493111
 30
0.0
 11
3627.0670276652249
 21
16951.482519330559
 31
0.0
  0
CIRCLE
  5
2CBCC
  8
0
  6
CONTINUOUS
 62
     7
 10
3632.046673675778
 20
16954.35751943658
 30
0.0
 40
4.0
  0
CIRCLE
  5
2CBCD
  8
0
  6
CONTINUOUS
 62
     7
 10
3632.046673675778
 20
16963.357519436569
 30
0.0
 40
2.75
  0
CIRCLE
  5
2CBCE
  8
CENTER
  6
CENTER
 62
     1
 10
3632.046673675778
 20
16954.35751943658
 30
0.0
 40
9.0
  0
CIRCLE
  5
2CBCF
  8
0
  6
CONTINUOUS
 62
     7
 10
3632.046673675778
 20
16954.35751943658
 30
0.0
 40
12.25
  0
LINE
  5
2CBD0
  8
CENTER
  6
CENTER
 62
     1
 10
3637.24282588713
 20
16957.357519070501
 30
0.0
 11
3642.6554849837262
 21
16960.482519243302
 31
0.0
  0
CIRCLE
  5
2CBD1
  8
0
  6
CONTINUOUS
 62
     7
 10
3639.840902418352
 20
16958.857519248621
 30
0.0
 40
1.2299999999999991
  0
CIRCLE
  5
2CBD2
  8
0
  6
DASHED
 62
     3
 10
3639.8409024183502
 20
16958.857519248621
 30
0.0
 40
1.5
  0
LINE
  5
2CBD3
  8
CENTER
  6
CENTER
 62
     1
 10
3626.8505216757771
 20
16957.357519436569
 30
0.0
 11
3621.4378625910081
 21
16960.482519629852
 31
0.0
  0
CIRCLE
  5
2CBD4
  8
0
  6
CONTINUOUS
 62
     7
 10
3624.2524451502331
 20
16958.857519624529
 30
0.0
 40
1.2299999999999991
  0
CIRCLE
  5
2CBD5
  8
0
  6
DASHED
 62
     3
 10
3624.2524451502318
 20
16958.857519624529
 30
0.0
 40
1.4999999999999989
  0
CIRCLE
  5
2CBD6
  8
0
  6
CONTINUOUS
 62
     7
 10
3632.0466734587471
 20
16945.357519436569
 30
0.0
 40
1.2299999999999991
  0
CIRCLE
  5
2CBD7
  8
0
  6
DASHED
 62
     3
 10
3632.0466734587471
 20
16945.357519436569
 30
0.0
 40
1.5
  0
LINE
  5
2CBD8
  8
0
  6
DASHED
 62
     3
 10
3569.435767564004
 20
16958.35751943658
 30
0.0
 11
3570.935767564004
 21
16958.35751943658
 31
0.0
  0
LINE
  5
2CBD9
  8
0
  6
DASHED
 62
     3
 10
3569.435767564004
 20
16950.35751943658
 30
0.0
 11
3570.935767564004
 21
16950.35751943658
 31
0.0
  0
LINE
  5
2CBDA
  8
0
  6
DASHED
 62
     3
 10
3577.9357675640031
 20
16941.607519436569
 30
0.0
 11
3585.435767564004
 21
16941.607519436569
 31
0.0
  0
LINE
  5
2CBDB
  8
0
  6
DASHED
 62
     3
 10
3577.9357675640031
 20
16967.107519436569
 30
0.0
 11
3585.435767564004
 21
16967.107519436569
 31
0.0
  0
LINE
  5
2CBDC
  8
0
  6
DASHED
 62
     3
 10
3570.935767564004
 20
16950.35751943658
 30
0.0
 11
3581.435767564004
 21
16950.35751943658
 31
0.0
  0
LINE
  5
2CBDD
  8
0
  6
DASHED
 62
     3
 10
3578.435767564004
 20
16942.107519436569
 30
0.0
 11
3581.435767564004
 21
16942.107519436569
 31
0.0
  0
LINE
  5
2CBDE
  8
0
  6
DASHED
 62
     3
 10
3578.435767564004
 20
16966.60751943658
 30
0.0
 11
3581.435767564004
 21
16966.60751943658
 31
0.0
  0
LINE
  5
2CBDF
  8
0
  6
DASHED
 62
     3
 10
3581.435767564004
 20
16966.60751943658
 30
0.0
 11
3581.435767564004
 21
16942.107519436569
 31
0.0
  0
LINE
  5
2CBE0
  8
0
  6
DASHED
 62
     3
 10
3570.935767564004
 20
16958.98251943658
 30
0.0
 11
3570.935767564004
 21
16949.732519436569
 31
0.0
  0
LINE
  5
2CBE1
  8
0
  6
DASHED
 62
     3
 10
3578.435767564004
 20
16966.60751943658
 30
0.0
 11
3578.435767564004
 21
16964.85751943658
 31
0.0
  0
LINE
  5
2CBE2
  8
0
  6
DASHED
 62
     3
 10
3578.435767564004
 20
16961.85751943658
 30
0.0
 11
3578.435767564004
 21
16958.35751943658
 31
0.0
  0
LINE
  5
2CBE3
  8
0
  6
DASHED
 62
     3
 10
3578.435767564004
 20
16950.35751943658
 30
0.0
 11
3578.435767564004
 21
16946.85751943658
 31
0.0
  0
LINE
  5
2CBE4
  8
0
  6
DASHED
 62
     3
 10
3578.435767564004
 20
16943.85751943658
 30
0.0
 11
3578.435767564004
 21
16942.107519436569
 31
0.0
  0
LINE
  5
2CBE5
  8
0
  6
DASHED
 62
     3
 10
3578.435767564004
 20
16949.107519436569
 30
0.0
 11
3570.935767564004
 21
16949.732519436569
 31
0.0
  0
LINE
  5
2CBE6
  8
0
  6
DASHED
 62
     3
 10
3570.935767564004
 20
16958.35751943658
 30
0.0
 11
3581.435767564004
 21
16958.35751943658
 31
0.0
  0
LINE
  5
2CBE7
  8
0
  6
DASHED
 62
     3
 10
3578.435767564004
 20
16959.607519436569
 30
0.0
 11
3570.935767564004
 21
16958.98251943658
 31
0.0
  0
LINE
  5
2CBE8
  8
0
  6
DASHED
 62
     3
 10
3584.1357675640029
 20
16966.10751943658
 30
0.0
 11
3581.435767564004
 21
16966.10751943658
 31
0.0
  0
LINE
  5
2CBE9
  8
0
  6
DASHED
 62
     3
 10
3584.1357675640029
 20
16960.607519436569
 30
0.0
 11
3581.435767564004
 21
16960.607519436569
 31
0.0
  0
LINE
  5
2CBEA
  8
CENTER
  6
CENTER
 62
     1
 10
3585.435767564004
 20
16963.357519436569
 30
0.0
 11
3569.5644522562052
 21
16963.357519436569
 31
0.0
  0
LINE
  5
2CBEB
  8
0
  6
DASHED
 62
     3
 10
3584.4357675640031
 20
16965.80751943657
 30
0.0
 11
3584.4357675640031
 21
16960.907519436569
 31
0.0
  0
LINE
  5
2CBEC
  8
0
  6
DASHED
 62
     3
 10
3584.1357675640029
 20
16966.10751943658
 30
0.0
 11
3584.1357675640029
 21
16960.607519436569
 31
0.0
  0
LINE
  5
2CBED
  8
0
  6
DASHED
 62
     3
 10
3584.1357675640029
 20
16960.607519436569
 30
0.0
 11
3584.4357675640031
 21
16960.907519436569
 31
0.0
  0
LINE
  5
2CBEE
  8
0
  6
DASHED
 62
     3
 10
3584.1357675640029
 20
16966.10751943658
 30
0.0
 11
3584.4357675640031
 21
16965.80751943657
 31
0.0
  0
LINE
  5
2CBEF
  8
0
  6
DASHED
 62
     3
 10
3580.935767564004
 20
16964.587019436582
 30
0.0
 11
3571.435767564004
 21
16964.587019436582
 31
0.0
  0
LINE
  5
2CBF0
  8
0
  6
DASHED
 62
     3
 10
3581.435767564004
 20
16964.85751943658
 30
0.0
 11
3571.7062675640018
 21
16964.85751943658
 31
0.0
  0
LINE
  5
2CBF1
  8
0
  6
DASHED
 62
     3
 10
3580.9357676040031
 20
16962.128019436572
 30
0.0
 11
3571.435767564004
 21
16962.128019436572
 31
0.0
  0
LINE
  5
2CBF2
  8
0
  6
DASHED
 62
     3
 10
3581.435767564004
 20
16961.85751943658
 30
0.0
 11
3571.7062675315419
 21
16961.85751943658
 31
0.0
  0
LINE
  5
2CBF3
  8
0
  6
DASHED
 62
     3
 10
3580.935767564004
 20
16964.85751943658
 30
0.0
 11
3580.935767564004
 21
16961.85751943658
 31
0.0
  0
LINE
  5
2CBF4
  8
0
  6
DASHED
 62
     3
 10
3580.9357676040031
 20
16962.128019436572
 30
0.0
 11
3581.40428734745
 21
16961.85751943658
 31
0.0
  0
LINE
  5
2CBF5
  8
0
  6
DASHED
 62
     3
 10
3580.935767564004
 20
16964.587019436582
 30
0.0
 11
3581.4042873074482
 21
16964.85751943658
 31
0.0
  0
LINE
  5
2CBF6
  8
0
  6
DASHED
 62
     3
 10
3571.435767564004
 20
16964.587019436582
 30
0.0
 11
3571.435767564004
 21
16962.128019436572
 31
0.0
  0
LINE
  5
2CBF7
  8
0
  6
DASHED
 62
     3
 10
3571.7062675640018
 20
16964.85751943658
 30
0.0
 11
3571.7062675640018
 21
16961.85751943658
 31
0.0
  0
LINE
  5
2CBF8
  8
0
  6
DASHED
 62
     3
 10
3571.7062675315419
 20
16961.85751943658
 30
0.0
 11
3571.435767564004
 21
16962.128019436572
 31
0.0
  0
LINE
  5
2CBF9
  8
0
  6
DASHED
 62
     3
 10
3571.435767564004
 20
16964.587019436582
 30
0.0
 11
3571.7062675640018
 21
16964.85751943658
 31
0.0
  0
LINE
  5
2CBFA
  8
0
  6
DASHED
 62
     3
 10
3571.435767564004
 20
16964.587019436582
 30
0.0
 11
3570.5968909007111
 21
16964.587019436582
 31
0.0
  0
LINE
  5
2CBFB
  8
0
  6
DASHED
 62
     3
 10
3571.7062675640018
 20
16964.85751943658
 30
0.0
 11
3571.1857675640031
 21
16964.85751943658
 31
0.0
  0
LINE
  5
2CBFC
  8
0
  6
DASHED
 62
     3
 10
3571.1857675640031
 20
16961.85751943658
 30
0.0
 11
3571.1857675640031
 21
16964.85751943658
 31
0.0
  0
LINE
  5
2CBFD
  8
0
  6
DASHED
 62
     3
 10
3570.5968909007111
 20
16962.128019436572
 30
0.0
 11
3570.5968909007111
 21
16964.587019436582
 31
0.0
  0
LINE
  5
2CBFE
  8
0
  6
DASHED
 62
     3
 10
3570.5828432816652
 20
16962.157519436569
 30
0.0
 11
3570.5828432816652
 21
16962.157519436569
 31
0.0
  0
LINE
  5
2CBFF
  8
0
  6
DASHED
 62
     3
 10
3571.1857675640031
 20
16964.85751943658
 30
0.0
 11
3570.7172478205571
 21
16964.587019436582
 31
0.0
  0
LINE
  5
2CC00
  8
0
  6
DASHED
 62
     3
 10
3570.0254623292831
 20
16963.357519436569
 30
0.0
 11
3570.0254623292831
 21
16963.357519436569
 31
0.0
  0
LINE
  5
2CC01
  8
0
  6
DASHED
 62
     3
 10
3570.5968909007111
 20
16964.587019436582
 30
0.0
 11
3570.0114147102381
 21
16963.357519436569
 31
0.0
  0
LINE
  5
2CC02
  8
0
  6
DASHED
 62
     3
 10
3571.435767564004
 20
16962.128019436572
 30
0.0
 11
3570.5968909007111
 21
16962.128019436572
 31
0.0
  0
LINE
  5
2CC03
  8
0
  6
DASHED
 62
     3
 10
3571.1717199449572
 20
16961.85751943658
 30
0.0
 11
3570.7032002015089
 21
16962.128019436572
 31
0.0
  0
LINE
  5
2CC04
  8
0
  6
DASHED
 62
     3
 10
3570.5968909007111
 20
16962.128019436572
 30
0.0
 11
3570.0114147102381
 21
16963.357519436569
 31
0.0
  0
LINE
  5
2CC05
  8
0
  6
DASHED
 62
     3
 10
3571.7062675640018
 20
16961.85751943658
 30
0.0
 11
3571.1717199449572
 21
16961.85751943658
 31
0.0
  0
LINE
  5
2CC06
  8
0
  6
DASHED
 62
     3
 10
3584.1357675640029
 20
16942.607519436569
 30
0.0
 11
3581.435767564004
 21
16942.607519436569
 31
0.0
  0
LINE
  5
2CC07
  8
0
  6
DASHED
 62
     3
 10
3584.1357675640029
 20
16948.107519436569
 30
0.0
 11
3581.435767564004
 21
16948.107519436569
 31
0.0
  0
LINE
  5
2CC08
  8
0
  6
DASHED
 62
     3
 10
3584.4357675640031
 20
16942.907519436569
 30
0.0
 11
3584.4357675640031
 21
16947.807519436581
 31
0.0
  0
LINE
  5
2CC09
  8
0
  6
DASHED
 62
     3
 10
3584.1357675640029
 20
16942.607519436569
 30
0.0
 11
3584.1357675640029
 21
16948.107519436569
 31
0.0
  0
LINE
  5
2CC0A
  8
0
  6
DASHED
 62
     3
 10
3584.1357675640029
 20
16948.107519436569
 30
0.0
 11
3584.4357675640031
 21
16947.807519436581
 31
0.0
  0
LINE
  5
2CC0B
  8
0
  6
DASHED
 62
     3
 10
3584.1357675640029
 20
16942.607519436569
 30
0.0
 11
3584.4357675640031
 21
16942.907519436569
 31
0.0
  0
LINE
  5
2CC0C
  8
0
  6
DASHED
 62
     3
 10
3580.935767564004
 20
16944.128019436572
 30
0.0
 11
3571.435767564004
 21
16944.128019436572
 31
0.0
  0
LINE
  5
2CC0D
  8
0
  6
DASHED
 62
     3
 10
3581.435767564004
 20
16943.85751943658
 30
0.0
 11
3571.7062675640018
 21
16943.85751943658
 31
0.0
  0
LINE
  5
2CC0E
  8
0
  6
DASHED
 62
     3
 10
3580.9357676040031
 20
16946.587019436582
 30
0.0
 11
3571.435767564004
 21
16946.587019436582
 31
0.0
  0
LINE
  5
2CC0F
  8
0
  6
DASHED
 62
     3
 10
3581.435767564004
 20
16946.85751943658
 30
0.0
 11
3571.7062675315419
 21
16946.85751943658
 31
0.0
  0
LINE
  5
2CC10
  8
0
  6
DASHED
 62
     3
 10
3580.935767564004
 20
16943.85751943658
 30
0.0
 11
3580.935767564004
 21
16946.85751943658
 31
0.0
  0
LINE
  5
2CC11
  8
0
  6
DASHED
 62
     3
 10
3580.9357676040031
 20
16946.587019436582
 30
0.0
 11
3581.40428734745
 21
16946.85751943658
 31
0.0
  0
LINE
  5
2CC12
  8
0
  6
DASHED
 62
     3
 10
3580.935767564004
 20
16944.128019436572
 30
0.0
 11
3581.4042873074482
 21
16943.85751943658
 31
0.0
  0
LINE
  5
2CC13
  8
0
  6
DASHED
 62
     3
 10
3571.435767564004
 20
16944.128019436572
 30
0.0
 11
3571.435767564004
 21
16946.587019436582
 31
0.0
  0
LINE
  5
2CC14
  8
0
  6
DASHED
 62
     3
 10
3571.7062675640018
 20
16943.85751943658
 30
0.0
 11
3571.7062675640018
 21
16946.85751943658
 31
0.0
  0
LINE
  5
2CC15
  8
0
  6
DASHED
 62
     3
 10
3571.7062675315419
 20
16946.85751943658
 30
0.0
 11
3571.435767564004
 21
16946.587019436582
 31
0.0
  0
LINE
  5
2CC16
  8
0
  6
DASHED
 62
     3
 10
3571.435767564004
 20
16944.128019436572
 30
0.0
 11
3571.7062675640018
 21
16943.85751943658
 31
0.0
  0
LINE
  5
2CC17
  8
0
  6
DASHED
 62
     3
 10
3577.9357675640031
 20
16941.607519436569
 30
0.0
 11
3577.9357675640031
 21
16943.85751943658
 31
0.0
  0
LINE
  5
2CC18
  8
0
  6
DASHED
 62
     3
 10
3577.9357675640031
 20
16946.85751943658
 30
0.0
 11
3577.9357675640031
 21
16949.149186103241
 31
0.0
  0
LINE
  5
2CC19
  8
0
  6
DASHED
 62
     3
 10
3577.9357675640031
 20
16959.565852769909
 30
0.0
 11
3577.9357675640031
 21
16961.85751943658
 31
0.0
  0
LINE
  5
2CC1A
  8
0
  6
DASHED
 62
     3
 10
3577.9357675640031
 20
16964.85751943658
 30
0.0
 11
3577.9357675640031
 21
16967.107519436569
 31
0.0
  0
LINE
  5
2CC1B
  8
0
  6
DASHED
 62
     3
 10
3581.435767564004
 20
16965.007519436582
 30
0.0
 11
3578.435767564004
 21
16965.007519436582
 31
0.0
  0
LINE
  5
2CC1C
  8
0
  6
DASHED
 62
     3
 10
3581.435767564004
 20
16961.707519436572
 30
0.0
 11
3578.435767564004
 21
16961.707519436572
 31
0.0
  0
LINE
  5
2CC1D
  8
0
  6
DASHED
 62
     3
 10
3581.435767564004
 20
16943.707519436572
 30
0.0
 11
3578.435767564004
 21
16943.707519436572
 31
0.0
  0
LINE
  5
2CC1E
  8
0
  6
DASHED
 62
     3
 10
3581.435767564004
 20
16947.007519436582
 30
0.0
 11
3578.435767564004
 21
16947.007519436582
 31
0.0
  0
LINE
  5
2CC1F
  8
CENTER
  6
CENTER
 62
     1
 10
3587.568393892589
 20
16954.35751943658
 30
0.0
 11
3567.1994144713558
 21
16954.35751943658
 31
0.0
  0
LINE
  5
2CC20
  8
CENTER
  6
CENTER
 62
     1
 10
3585.435767564004
 20
16945.357519436569
 30
0.0
 11
3569.5644522562052
 21
16945.357519436569
 31
0.0
  0
LINE
  5
2CC21
  8
0
  6
DASHED
 62
     3
 10
3571.435767564004
 20
16944.128019436572
 30
0.0
 11
3570.5968909007111
 21
16944.128019436572
 31
0.0
  0
LINE
  5
2CC22
  8
0
  6
DASHED
 62
     3
 10
3571.7062675640018
 20
16943.85751943658
 30
0.0
 11
3571.1857675640031
 21
16943.85751943658
 31
0.0
  0
LINE
  5
2CC23
  8
0
  6
DASHED
 62
     3
 10
3571.1857675640031
 20
16946.85751943658
 30
0.0
 11
3571.1857675640031
 21
16943.85751943658
 31
0.0
  0
LINE
  5
2CC24
  8
0
  6
DASHED
 62
     3
 10
3570.5968909007111
 20
16946.587019436582
 30
0.0
 11
3570.5968909007111
 21
16944.128019436572
 31
0.0
  0
LINE
  5
2CC25
  8
0
  6
DASHED
 62
     3
 10
3570.5828432816652
 20
16946.557519436581
 30
0.0
 11
3570.5828432816652
 21
16946.557519436581
 31
0.0
  0
LINE
  5
2CC26
  8
0
  6
DASHED
 62
     3
 10
3571.1857675640031
 20
16943.85751943658
 30
0.0
 11
3570.7172478205571
 21
16944.128019436572
 31
0.0
  0
LINE
  5
2CC27
  8
0
  6
DASHED
 62
     3
 10
3570.0254623292831
 20
16945.357519436569
 30
0.0
 11
3570.0254623292831
 21
16945.357519436569
 31
0.0
  0
LINE
  5
2CC28
  8
0
  6
DASHED
 62
     3
 10
3570.5968909007111
 20
16944.128019436572
 30
0.0
 11
3570.0114147102381
 21
16945.357519436569
 31
0.0
  0
LINE
  5
2CC29
  8
0
  6
DASHED
 62
     3
 10
3571.435767564004
 20
16946.587019436582
 30
0.0
 11
3570.5968909007111
 21
16946.587019436582
 31
0.0
  0
LINE
  5
2CC2A
  8
0
  6
DASHED
 62
     3
 10
3571.1717199449572
 20
16946.85751943658
 30
0.0
 11
3570.7032002015089
 21
16946.587019436582
 31
0.0
  0
LINE
  5
2CC2B
  8
0
  6
DASHED
 62
     3
 10
3570.5968909007111
 20
16946.587019436582
 30
0.0
 11
3570.0114147102381
 21
16945.357519436569
 31
0.0
  0
LINE
  5
2CC2C
  8
0
  6
DASHED
 62
     3
 10
3571.7062675640018
 20
16946.85751943658
 30
0.0
 11
3571.1717199449572
 21
16946.85751943658
 31
0.0
  0
ENDSEC
  0
EOF
