  0
SECTION
  2
HEADER
  9
$ACADVER
  1
AC1009
  9
$INSBASE
 10
0.0
 20
0.0
 30
0.0
  9
$EXTMIN
 10
9.9847422004500004
 20
9.9836890576217456
 30
-0.0015258207003583
  9
$EXTMAX
 10
203.39904857729451
 20
203.10891781853149
 30
0.0000000349246037
  9
$LIMMIN
 10
0.0
 20
0.0
  9
$LIMMAX
 10
420.0
 20
297.0
  9
$ORTHOMODE
 70
     0
  9
$REGENMODE
 70
     1
  9
$FILLMODE
 70
     1
  9
$QTEXTMODE
 70
     0
  9
$MIRRTEXT
 70
     1
  9
$DRAGMODE
 70
     2
  9
$LTSCALE
 40
0.25
  9
$OSMODE
 70
   691
  9
$ATTMODE
 70
     1
  9
$TEXTSIZE
 40
4.0
  9
$TRACEWID
 40
1.0
  9
$TEXTSTYLE
  7
STANDARD
  9
$CLAYER
  8
0
  9
$CELTYPE
  6
BYLAYER
  9
$CECOLOR
 62
   256
  9
$DIMSCALE
 40
1.0
  9
$DIMASZ
 40
0.18
  9
$DIMEXO
 40
0.0625
  9
$DIMDLI
 40
0.38
  9
$DIMRND
 40
0.0
  9
$DIMDLE
 40
0.0
  9
$DIMEXE
 40
0.18
  9
$DIMTP
 40
0.0
  9
$DIMTM
 40
0.0
  9
$DIMTXT
 40
0.18
  9
$DIMCEN
 40
0.09
  9
$DIMTSZ
 40
0.0
  9
$DIMTOL
 70
     0
  9
$DIMLIM
 70
     0
  9
$DIMTIH
 70
     1
  9
$DIMTOH
 70
     1
  9
$DIMSE1
 70
     0
  9
$DIMSE2
 70
     0
  9
$DIMTAD
 70
     0
  9
$DIMZIN
 70
     0
  9
$DIMBLK
  1

  9
$DIMASO
 70
     1
  9
$DIMSHO
 70
     1
  9
$DIMPOST
  1

  9
$DIMAPOST
  1

  9
$DIMALT
 70
     0
  9
$DIMALTD
 70
     2
  9
$DIMALTF
 40
25.399999999999999
  9
$DIMLFAC
 40
1.0
  9
$DIMTOFL
 70
     0
  9
$DIMTVP
 40
0.0
  9
$DIMTIX
 70
     0
  9
$DIMSOXD
 70
     0
  9
$DIMSAH
 70
     0
  9
$DIMBLK1
  1

  9
$DIMBLK2
  1

  9
$DIMSTYLE
  2
STANDARD
  9
$DIMCLRD
 70
     0
  9
$DIMCLRE
 70
     0
  9
$DIMCLRT
 70
     0
  9
$DIMTFAC
 40
1.0
  9
$DIMGAP
 40
0.09
  9
$LUNITS
 70
     2
  9
$LUPREC
 70
     2
  9
$SKETCHINC
 40
1.0
  9
$FILLETRAD
 40
0.4
  9
$AUNITS
 70
     0
  9
$AUPREC
 70
     0
  9
$MENU
  1
acad
  9
$ELEVATION
 40
0.0
  9
$PELEVATION
 40
0.0
  9
$THICKNESS
 40
0.0
  9
$LIMCHECK
 70
     0
  9
$BLIPMODE
 70
     0
  9
$CHAMFERA
 40
0.0
  9
$CHAMFERB
 40
0.0
  9
$SKPOLY
 70
     0
  9
$TDCREATE
 40
2451466.9875325458
  9
$TDUPDATE
 40
2454511.4450543518
  9
$TDINDWG
 40
0.2233661921
  9
$TDUSRTIMER
 40
0.2233605787
  9
$USRTIMER
 70
     1
  9
$ANGBASE
 50
0.0
  9
$ANGDIR
 70
     0
  9
$PDMODE
 70
     1
  9
$PDSIZE
 40
0.0
  9
$PLINEWID
 40
0.0
  9
$COORDS
 70
     1
  9
$SPLFRAME
 70
     0
  9
$SPLINETYPE
 70
     6
  9
$SPLINESEGS
 70
     8
  9
$ATTDIA
 70
     0
  9
$ATTREQ
 70
     1
  9
$HANDLING
 70
     1
  9
$HANDSEED
  5
22B1
  9
$SURFTAB1
 70
     6
  9
$SURFTAB2
 70
     6
  9
$SURFTYPE
 70
     6
  9
$SURFU
 70
     6
  9
$SURFV
 70
     6
  9
$UCSNAME
  2

  9
$UCSORG
 10
0.0
 20
0.0
 30
0.0
  9
$UCSXDIR
 10
1.0
 20
0.0
 30
0.0
  9
$UCSYDIR
 10
0.0
 20
1.0
 30
0.0
  9
$PUCSNAME
  2

  9
$PUCSORG
 10
0.0
 20
0.0
 30
0.0
  9
$PUCSXDIR
 10
1.0
 20
0.0
 30
0.0
  9
$PUCSYDIR
 10
0.0
 20
1.0
 30
0.0
  9
$USERI1
 70
     0
  9
$USERI2
 70
     0
  9
$USERI3
 70
     0
  9
$USERI4
 70
     0
  9
$USERI5
 70
     0
  9
$USERR1
 40
0.0
  9
$USERR2
 40
0.0
  9
$USERR3
 40
0.0
  9
$USERR4
 40
0.0
  9
$USERR5
 40
0.0
  9
$WORLDVIEW
 70
     1
  9
$SHADEDGE
 70
     3
  9
$SHADEDIF
 70
    70
  9
$TILEMODE
 70
     1
  9
$MAXACTVP
 70
    16
  9
$PLIMCHECK
 70
     0
  9
$PEXTMIN
 10
1.0000000000000000E+020
 20
1.0000000000000000E+020
 30
1.0000000000000000E+020
  9
$PEXTMAX
 10
-1.0000000000000000E+020
 20
-1.0000000000000000E+020
 30
-1.0000000000000000E+020
  9
$PLIMMIN
 10
0.0
 20
0.0
  9
$PLIMMAX
 10
420.0
 20
297.0
  9
$UNITMODE
 70
     0
  9
$VISRETAIN
 70
     0
  9
$PLINEGEN
 70
     0
  9
$PSLTSCALE
 70
     0
  0
ENDSEC
  0
SECTION
  2
TABLES
  0
TABLE
  2
VPORT
 70
     1
  0
VPORT
  2
*ACTIVE
 70
     0
 10
0.0
 20
0.0
 11
1.0
 21
1.0
 12
106.6918953888722
 22
106.54630343807661
 13
0.0
 23
0.0
 14
10.0
 24
10.0
 15
0.0
 25
0.0
 16
0.0
 26
0.0
 36
1.0
 17
0.0
 27
0.0
 37
0.0
 40
194.64789810725071
 41
1.6552631578947361
 42
50.0
 43
0.0
 44
0.0
 50
0.0
 51
0.0
 71
     0
 72
   100
 73
     1
 74
     0
 75
     0
 76
     0
 77
     0
 78
     1
  0
ENDTAB
  0
TABLE
  2
LTYPE
 70
     9
  0
LTYPE
  2
CONTINUOUS
 70
     0
  3
Solid line
 72
    65
 73
     0
 40
0.0
  0
LTYPE
  2
CENTER
 70
     0
  3
____ _ ____ _ ____ _ ____ _ ____ _ ____ _ ____ 
 72
    65
 73
     4
 40
50.799999999999997
 49
31.75
 49
-6.349999999999997
 49
6.349999999999997
 49
-6.349999999999997
  0
LTYPE
  2
DASHED
 70
     0
  3
__ __ __ __ __ __ __ __ __ __ __ __ __ __ __ __
 72
    65
 73
     2
 40
19.049999999999962
 49
12.699999999999999
 49
-6.349999999999997
  0
LTYPE
  2
AMCONSTR
 70
     0
  3
_______________________
 72
    65
 73
     2
 40
9999.0
 49
9999.0
 49
0.0
  0
LTYPE
  2
HIDDEN
 70
     0
  3
Hidden __ __ __ __ __ __ __ __ __ __ __ __ __ _
 72
    65
 73
     2
 40
0.375
 49
0.25
 49
-0.125
  0
LTYPE
  2
PHANTOM2
 70
     0
  3
Phantom (.5x) ___ _ _ ___ _ _ ___ _ _ ___ _ _
 72
    65
 73
     6
 40
1.25
 49
0.625
 49
-0.125
 49
0.125
 49
-0.125
 49
0.125
 49
-0.125
  0
LTYPE
  2
HIDDEN2
 70
     0
  3
Hidden (.5x) _ _ _ _ _ _ _ _ _ _ _ _ _ _ _ _ _
 72
    65
 73
     2
 40
0.1875
 49
0.125
 49
-0.0625
  0
LTYPE
  2
CENTER2
 70
     0
  3
Center (.5x) ___ _ ___ _ ___ _ ___ _ ___ _ ___
 72
    65
 73
     4
 40
1.125
 49
0.75
 49
-0.125
 49
0.125
 49
-0.125
  0
LTYPE
  2
AMZIGZAG2
 70
     0
  3
/\/-/\/-/\/-/\/-/\/-/\/
 72
    65
 73
     2
 40
0.4401
 49
0.0001
 49
-0.4400000000000003
  0
ENDTAB
  0
TABLE
  2
LAYER
 70
     3
  0
LAYER
  2
0
 70
     0
 62
     7
  6
CONTINUOUS
  0
LAYER
  2
CENTER
 70
     0
 62
     1
  6
CENTER
  0
LAYER
  2
DEFPOINTS
 70
     0
 62
     7
  6
CONTINUOUS
  0
ENDTAB
  0
TABLE
  2
STYLE
 70
     3
  0
STYLE
  2
STANDARD
 70
     0
 40
0.0
 41
1.0
 50
0.0
 71
     0
 42
4.0
  3
txt.shx
  4

  0
STYLE
  2

 70
     1
 40
0.0
 41
1.0
 50
0.0
 71
     0
 42
4.0
  3
ltypeshp.shx
  4

  0
STYLE
  2
ADPROMAND
 70
     0
 40
0.0
 41
1.0
 50
0.0
 71
     0
 42
2.5
  3
romand.shx
  4

  0
ENDTAB
  0
TABLE
  2
VIEW
 70
     0
  0
ENDTAB
  0
TABLE
  2
UCS
 70
     0
  0
ENDTAB
  0
TABLE
  2
APPID
 70
    14
  0
APPID
  2
ACAD
 70
     0
  0
APPID
  2
MCAD_NO_VIS
 70
     0
  0
APPID
  2
ACAD_TEMP_GRAPHIC
 70
     0
  0
APPID
  2
AD_DRAW
 70
     0
  0
APPID
  2
ACATTRIBSERVICES
 70
     0
  0
APPID
  2
ASURF_PCURVE_APPNAME
 70
     0
  0
APPID
  2
GENIUS_GENDIM_13
 70
     0
  0
APPID
  2
GENIUS_GENDTOL_13
 70
     0
  0
APPID
  2
GENIUS_GE3DTOL_13
 70
     0
  0
APPID
  2
DESIGNERASSEMBLIES
 70
     0
  0
APPID
  2
ACADM_DIM_EDIT
 70
     0
  0
APPID
  2
G3V_ENTHND
 70
     0
  0
APPID
  2
GENIUS_GENODEF_13
 70
     0
  0
APPID
  2
GENIUS_GENOBJ-N-FIL_13
 70
     0
  0
ENDTAB
  0
TABLE
  2
DIMSTYLE
 70
     1
  0
DIMSTYLE
  2
STANDARD
 70
     0
  3

  4

  5

  6

  7

 40
1.0
 41
0.18
 42
0.0625
 43
0.38
 44
0.18
 45
0.0
 46
0.0
 47
0.0
 48
0.0
140
0.18
141
0.09
142
0.0
143
25.399999999999999
144
1.0
145
0.0
146
1.0
147
0.09
 71
     0
 72
     0
 73
     1
 74
     1
 75
     0
 76
     0
 77
     0
 78
     0
170
     0
171
     2
172
     0
173
     0
174
     0
175
     0
176
     0
177
     0
178
     0
  0
ENDTAB
  0
ENDSEC
  0
SECTION
  2
BLOCKS
  0
BLOCK
  8
0
  2
$MODEL_SPACE
 70
     0
 10
0.0
 20
0.0
 30
0.0
  3
$MODEL_SPACE
  1

  0
ENDBLK
  5
1F68
  8
0
  0
BLOCK
 67
     1
  8
0
  2
$PAPER_SPACE
 70
     0
 10
0.0
 20
0.0
 30
0.0
  3
$PAPER_SPACE
  1

  0
ENDBLK
  5
1F64
 67
     1
  8
0
  0
BLOCK
  8
0
  2
*U2
 70
     1
 10
0.0
 20
0.0
 30
0.0
  3
*U2
  1

  0
ENDBLK
  5
1F8F
  8
0
  0
BLOCK
  8
0
  2
*D3
 70
     1
 10
0.0
 20
0.0
 30
0.0
  3
*D3
  1

  0
LINE
  5
2070
  8
0
 62
     0
 10
114.99265407399839
 20
156.40592259552051
 30
0.0
 11
114.99265407399839
 21
164.3730913453191
 31
0.0
  0
LINE
  5
2071
  8
0
 62
     0
 10
131.49265407399849
 20
156.40592259552051
 30
0.0
 11
131.49265407399849
 21
164.3730913453191
 31
0.0
  0
LINE
  5
2072
  8
0
 62
     0
 10
115.1726540739984
 20
164.1930913453192
 30
0.0
 11
122.6876540739984
 21
164.1930913453192
 31
0.0
  0
LINE
  5
2073
  8
0
 62
     0
 10
131.3126540739984
 20
164.1930913453192
 30
0.0
 11
123.7976540739984
 21
164.1930913453192
 31
0.0
  0
SOLID
  5
2074
  8
0
 62
     0
 10
115.1726540739984
 20
164.2230913453192
 30
0.0
 11
115.1726540739984
 21
164.1630913453192
 31
0.0
 12
114.99265407399839
 22
164.1930913453192
 32
0.0
 13
114.99265407399839
 23
164.1930913453192
 33
0.0
  0
SOLID
  5
2075
  8
0
 62
     0
 10
131.3126540739984
 20
164.2230913453192
 30
0.0
 11
131.3126540739984
 21
164.1630913453192
 31
0.0
 12
131.49265407399849
 22
164.1930913453192
 32
0.0
 13
131.49265407399849
 23
164.1930913453192
 33
0.0
  0
INSERT
  5
2076
  8
0
  2
*U24
 10
0.0
 20
0.0
 30
0.0
  0
POINT
  5
2077
  8
DEFPOINTS
 62
     0
 10
114.99265407399839
 20
156.34342259552051
 30
0.0
  0
POINT
  5
2078
  8
DEFPOINTS
 62
     0
 10
131.49265407399849
 20
156.34342259552051
 30
0.0
  0
POINT
  5
2079
  8
DEFPOINTS
 62
     0
 10
131.49265407399849
 20
164.1930913453192
 30
0.0
  0
ENDBLK
  5
200A
  8
0
  0
BLOCK
  8
0
  2
*D4
 70
     1
 10
0.0
 20
0.0
 30
0.0
  3
*D4
  1

  0
LINE
  5
205C
  8
0
 62
     0
 10
131.49265407399849
 20
156.40592259552051
 30
0.0
 11
131.49265407399849
 21
162.93256727185931
 31
0.0
  0
LINE
  5
205D
  8
0
 62
     0
 10
129.04265407399851
 20
156.40592259552051
 30
0.0
 11
129.04265407399851
 21
162.93256727185931
 31
0.0
  0
LINE
  5
205E
  8
0
 62
     0
 10
131.3126540739984
 20
162.75256727185931
 30
0.0
 11
130.77765407399841
 21
162.75256727185931
 31
0.0
  0
LINE
  5
205F
  8
0
 62
     0
 10
129.22265407399851
 20
162.75256727185931
 30
0.0
 11
129.75765407399851
 21
162.75256727185931
 31
0.0
  0
SOLID
  5
2060
  8
0
 62
     0
 10
131.3126540739984
 20
162.78256727185931
 30
0.0
 11
131.3126540739984
 21
162.7225672718593
 31
0.0
 12
131.49265407399849
 22
162.75256727185931
 32
0.0
 13
131.49265407399849
 23
162.75256727185931
 33
0.0
  0
SOLID
  5
2061
  8
0
 62
     0
 10
129.22265407399851
 20
162.78256727185931
 30
0.0
 11
129.22265407399851
 21
162.7225672718593
 31
0.0
 12
129.04265407399851
 22
162.75256727185931
 32
0.0
 13
129.04265407399851
 23
162.75256727185931
 33
0.0
  0
INSERT
  5
2062
  8
0
  2
*U23
 10
0.0
 20
0.0
 30
0.0
  0
POINT
  5
2063
  8
DEFPOINTS
 62
     0
 10
131.49265407399849
 20
156.34342259552051
 30
0.0
  0
POINT
  5
2064
  8
DEFPOINTS
 62
     0
 10
129.04265407399851
 20
156.34342259552051
 30
0.0
  0
POINT
  5
2065
  8
DEFPOINTS
 62
     0
 10
129.04265407399851
 20
162.75256727185931
 30
0.0
  0
ENDBLK
  5
2018
  8
0
  0
BLOCK
  8
0
  2
*D5
 70
     1
 10
0.0
 20
0.0
 30
0.0
  3
*D5
  1

  0
LINE
  5
207C
  8
0
 62
     0
 10
117.4426540739984
 20
156.90592259552079
 30
0.0
 11
117.4426540739984
 21
162.82211763733611
 31
0.0
  0
LINE
  5
207D
  8
0
 62
     0
 10
129.04265407399851
 20
156.90592259552079
 30
0.0
 11
129.04265407399851
 21
162.82211763733611
 31
0.0
  0
LINE
  5
207E
  8
0
 62
     0
 10
117.6226540739985
 20
162.64211763733601
 30
0.0
 11
122.7176540739984
 21
162.64211763733601
 31
0.0
  0
LINE
  5
207F
  8
0
 62
     0
 10
128.8626540739985
 20
162.64211763733601
 30
0.0
 11
123.7676540739985
 21
162.64211763733601
 31
0.0
  0
SOLID
  5
2080
  8
0
 62
     0
 10
117.6226540739985
 20
162.6721176373361
 30
0.0
 11
117.6226540739985
 21
162.61211763733601
 31
0.0
 12
117.4426540739984
 22
162.64211763733601
 32
0.0
 13
117.4426540739984
 23
162.64211763733601
 33
0.0
  0
SOLID
  5
2081
  8
0
 62
     0
 10
128.8626540739985
 20
162.6721176373361
 30
0.0
 11
128.8626540739985
 21
162.61211763733601
 31
0.0
 12
129.04265407399851
 22
162.64211763733601
 32
0.0
 13
129.04265407399851
 23
162.64211763733601
 33
0.0
  0
INSERT
  5
2082
  8
0
  2
*U25
 10
0.0
 20
0.0
 30
0.0
  0
POINT
  5
2083
  8
DEFPOINTS
 62
     0
 10
117.4426540739984
 20
156.84342259552079
 30
0.0
  0
POINT
  5
2084
  8
DEFPOINTS
 62
     0
 10
129.04265407399851
 20
156.84342259552079
 30
0.0
  0
POINT
  5
2085
  8
DEFPOINTS
 62
     0
 10
129.04265407399851
 20
162.64211763733601
 30
0.0
  0
ENDBLK
  5
2087
  8
0
  0
BLOCK
  8
0
  2
*D6
 70
     1
 10
0.0
 20
0.0
 30
0.0
  3
*D6
  1

  0
LINE
  5
208A
  8
0
 62
     0
 10
117.4426540739984
 20
156.40592259552051
 30
0.0
 11
117.4426540739984
 21
163.36733851977061
 31
0.0
  0
LINE
  5
208B
  8
0
 62
     0
 10
114.9926540739983
 20
156.40592259552051
 30
0.0
 11
114.9926540739983
 21
163.36733851977061
 31
0.0
  0
LINE
  5
208C
  8
0
 62
     0
 10
117.26265407399841
 20
163.18733851977061
 30
0.0
 11
116.72765407399839
 21
163.18733851977061
 31
0.0
  0
LINE
  5
208D
  8
0
 62
     0
 10
115.1726540739984
 20
163.18733851977061
 30
0.0
 11
115.7076540739984
 21
163.18733851977061
 31
0.0
  0
SOLID
  5
208E
  8
0
 62
     0
 10
117.26265407399841
 20
163.21733851977061
 30
0.0
 11
117.26265407399841
 21
163.1573385197706
 31
0.0
 12
117.4426540739984
 22
163.18733851977061
 32
0.0
 13
117.4426540739984
 23
163.18733851977061
 33
0.0
  0
SOLID
  5
208F
  8
0
 62
     0
 10
115.1726540739984
 20
163.21733851977061
 30
0.0
 11
115.1726540739984
 21
163.1573385197706
 31
0.0
 12
114.9926540739983
 22
163.18733851977061
 32
0.0
 13
114.9926540739983
 23
163.18733851977061
 33
0.0
  0
INSERT
  5
2090
  8
0
  2
*U26
 10
0.0
 20
0.0
 30
0.0
  0
POINT
  5
2091
  8
DEFPOINTS
 62
     0
 10
117.4426540739984
 20
156.34342259552051
 30
0.0
  0
POINT
  5
2092
  8
DEFPOINTS
 62
     0
 10
114.9926540739983
 20
156.34342259552051
 30
0.0
  0
POINT
  5
2093
  8
DEFPOINTS
 62
     0
 10
114.9926540739983
 20
163.18733851977061
 30
0.0
  0
ENDBLK
  5
2095
  8
0
  0
BLOCK
  8
0
  2
*D7
 70
     1
 10
0.0
 20
0.0
 30
0.0
  3
*D7
  1

  0
LINE
  5
210C
  8
0
 62
     0
 10
191.8897768752515
 20
156.40592259552051
 30
0.0
 11
191.8897768752515
 21
167.67098407528431
 31
0.0
  0
LINE
  5
210D
  8
0
 62
     0
 10
175.3897768752515
 20
156.40592259552051
 30
0.0
 11
175.3897768752515
 21
167.67098407528431
 31
0.0
  0
LINE
  5
210E
  8
0
 62
     0
 10
191.70977687525149
 20
167.4909840752843
 30
0.0
 11
184.19477687525151
 21
167.4909840752843
 31
0.0
  0
LINE
  5
210F
  8
0
 62
     0
 10
175.56977687525151
 20
167.4909840752843
 30
0.0
 11
183.08477687525129
 21
167.4909840752843
 31
0.0
  0
SOLID
  5
2110
  8
0
 62
     0
 10
191.70977687525149
 20
167.5209840752843
 30
0.0
 11
191.70977687525149
 21
167.4609840752843
 31
0.0
 12
191.8897768752515
 22
167.4909840752843
 32
0.0
 13
191.8897768752515
 23
167.4909840752843
 33
0.0
  0
SOLID
  5
2111
  8
0
 62
     0
 10
175.56977687525151
 20
167.5209840752843
 30
0.0
 11
175.56977687525151
 21
167.4609840752843
 31
0.0
 12
175.3897768752515
 22
167.4909840752843
 32
0.0
 13
175.3897768752515
 23
167.4909840752843
 33
0.0
  0
INSERT
  5
2112
  8
0
  2
*U27
 10
0.0
 20
0.0
 30
0.0
  0
POINT
  5
2113
  8
DEFPOINTS
 62
     0
 10
191.8897768752515
 20
156.34342259552051
 30
0.0
  0
POINT
  5
2114
  8
DEFPOINTS
 62
     0
 10
175.3897768752515
 20
156.34342259552051
 30
0.0
  0
POINT
  5
2115
  8
DEFPOINTS
 62
     0
 10
175.3897768752515
 20
167.4909840752843
 30
0.0
  0
ENDBLK
  5
2117
  8
0
  0
BLOCK
  8
0
  2
*D8
 70
     1
 10
0.0
 20
0.0
 30
0.0
  3
*D8
  1

  0
LINE
  5
211D
  8
0
 62
     0
 10
177.83977687525149
 20
156.40592259552051
 30
0.0
 11
177.83977687525149
 21
164.1103824156514
 31
0.0
  0
LINE
  5
211E
  8
0
 62
     0
 10
175.3897768752515
 20
156.40592259552051
 30
0.0
 11
175.3897768752515
 21
164.1103824156514
 31
0.0
  0
LINE
  5
211F
  8
0
 62
     0
 10
177.65977687525151
 20
163.93038241565131
 30
0.0
 11
177.12477687525151
 21
163.93038241565131
 31
0.0
  0
LINE
  5
2120
  8
0
 62
     0
 10
175.56977687525151
 20
163.93038241565131
 30
0.0
 11
176.1047768752515
 21
163.93038241565131
 31
0.0
  0
SOLID
  5
2121
  8
0
 62
     0
 10
177.65977687525151
 20
163.9603824156514
 30
0.0
 11
177.65977687525151
 21
163.90038241565131
 31
0.0
 12
177.83977687525149
 22
163.93038241565131
 32
0.0
 13
177.83977687525149
 23
163.93038241565131
 33
0.0
  0
SOLID
  5
2122
  8
0
 62
     0
 10
175.56977687525151
 20
163.9603824156514
 30
0.0
 11
175.56977687525151
 21
163.90038241565131
 31
0.0
 12
175.3897768752515
 22
163.93038241565131
 32
0.0
 13
175.3897768752515
 23
163.93038241565131
 33
0.0
  0
INSERT
  5
2123
  8
0
  2
*U28
 10
0.0
 20
0.0
 30
0.0
  0
POINT
  5
2124
  8
DEFPOINTS
 62
     0
 10
177.83977687525149
 20
156.34342259552051
 30
0.0
  0
POINT
  5
2125
  8
DEFPOINTS
 62
     0
 10
175.3897768752515
 20
156.34342259552051
 30
0.0
  0
POINT
  5
2126
  8
DEFPOINTS
 62
     0
 10
175.3897768752515
 20
163.93038241565131
 30
0.0
  0
ENDBLK
  5
2128
  8
0
  0
BLOCK
  8
0
  2
*D9
 70
     1
 10
0.0
 20
0.0
 30
0.0
  3
*D9
  1

  0
LINE
  5
212B
  8
0
 62
     0
 10
191.8897768752515
 20
156.40592259552051
 30
0.0
 11
191.8897768752515
 21
168.47697784513491
 31
0.0
  0
LINE
  5
212C
  8
0
 62
     0
 10
175.3897768752515
 20
156.40592259552051
 30
0.0
 11
175.3897768752515
 21
168.47697784513491
 31
0.0
  0
LINE
  5
212D
  8
0
 62
     0
 10
191.70977687525149
 20
168.2969778451349
 30
0.0
 11
184.19477687525151
 21
168.2969778451349
 31
0.0
  0
LINE
  5
212E
  8
0
 62
     0
 10
175.56977687525151
 20
168.2969778451349
 30
0.0
 11
183.08477687525129
 21
168.2969778451349
 31
0.0
  0
SOLID
  5
212F
  8
0
 62
     0
 10
191.70977687525149
 20
168.32697784513491
 30
0.0
 11
191.70977687525149
 21
168.2669778451349
 31
0.0
 12
191.8897768752515
 22
168.2969778451349
 32
0.0
 13
191.8897768752515
 23
168.2969778451349
 33
0.0
  0
SOLID
  5
2130
  8
0
 62
     0
 10
175.56977687525151
 20
168.32697784513491
 30
0.0
 11
175.56977687525151
 21
168.2669778451349
 31
0.0
 12
175.3897768752515
 22
168.2969778451349
 32
0.0
 13
175.3897768752515
 23
168.2969778451349
 33
0.0
  0
INSERT
  5
2131
  8
0
  2
*U29
 10
0.0
 20
0.0
 30
0.0
  0
POINT
  5
2132
  8
DEFPOINTS
 62
     0
 10
191.8897768752515
 20
156.34342259552051
 30
0.0
  0
POINT
  5
2133
  8
DEFPOINTS
 62
     0
 10
175.3897768752515
 20
156.34342259552051
 30
0.0
  0
POINT
  5
2134
  8
DEFPOINTS
 62
     0
 10
175.3897768752515
 20
168.2969778451349
 30
0.0
  0
ENDBLK
  5
2136
  8
0
  0
BLOCK
  8
0
  2
*D10
 70
     1
 10
0.0
 20
0.0
 30
0.0
  3
*D10
  1

  0
LINE
  5
213A
  8
0
 62
     0
 10
177.83977687525149
 20
156.46842259552059
 30
0.0
 11
177.83977687525149
 21
165.16040871173891
 31
0.0
  0
LINE
  5
213B
  8
0
 62
     0
 10
189.43977687525151
 20
156.40592259552051
 30
0.0
 11
189.43977687525151
 21
165.16040871173891
 31
0.0
  0
LINE
  5
213C
  8
0
 62
     0
 10
178.01977687525149
 20
164.9804087117389
 30
0.0
 11
183.11477687525149
 21
164.9804087117389
 31
0.0
  0
LINE
  5
213D
  8
0
 62
     0
 10
189.2597768752515
 20
164.9804087117389
 30
0.0
 11
184.1647768752515
 21
164.9804087117389
 31
0.0
  0
SOLID
  5
213E
  8
0
 62
     0
 10
178.01977687525149
 20
165.0104087117389
 30
0.0
 11
178.01977687525149
 21
164.9504087117389
 31
0.0
 12
177.83977687525149
 22
164.9804087117389
 32
0.0
 13
177.83977687525149
 23
164.9804087117389
 33
0.0
  0
SOLID
  5
213F
  8
0
 62
     0
 10
189.2597768752515
 20
165.0104087117389
 30
0.0
 11
189.2597768752515
 21
164.9504087117389
 31
0.0
 12
189.43977687525151
 22
164.9804087117389
 32
0.0
 13
189.43977687525151
 23
164.9804087117389
 33
0.0
  0
INSERT
  5
2140
  8
0
  2
*U30
 10
0.0
 20
0.0
 30
0.0
  0
POINT
  5
2141
  8
DEFPOINTS
 62
     0
 10
177.83977687525149
 20
156.40592259552051
 30
0.0
  0
POINT
  5
2142
  8
DEFPOINTS
 62
     0
 10
189.43977687525151
 20
156.34342259552051
 30
0.0
  0
POINT
  5
2143
  8
DEFPOINTS
 62
     0
 10
189.43977687525151
 20
164.9804087117389
 30
0.0
  0
ENDBLK
  5
2145
  8
0
  0
BLOCK
  8
0
  2
*D11
 70
     1
 10
0.0
 20
0.0
 30
0.0
  3
*D11
  1

  0
LINE
  5
2148
  8
0
 62
     0
 10
191.8897768752515
 20
156.40592259552051
 30
0.0
 11
191.8897768752515
 21
165.73271071445151
 31
0.0
  0
LINE
  5
2149
  8
0
 62
     0
 10
189.43977687525151
 20
156.40592259552051
 30
0.0
 11
189.43977687525151
 21
165.73271071445151
 31
0.0
  0
LINE
  5
214A
  8
0
 62
     0
 10
191.70977687525149
 20
165.55271071445139
 30
0.0
 11
191.1747768752515
 21
165.55271071445139
 31
0.0
  0
LINE
  5
214B
  8
0
 62
     0
 10
189.61977687525129
 20
165.55271071445139
 30
0.0
 11
190.15477687525151
 21
165.55271071445139
 31
0.0
  0
SOLID
  5
214C
  8
0
 62
     0
 10
191.70977687525149
 20
165.58271071445151
 30
0.0
 11
191.70977687525149
 21
165.52271071445151
 31
0.0
 12
191.8897768752515
 22
165.55271071445139
 32
0.0
 13
191.8897768752515
 23
165.55271071445139
 33
0.0
  0
SOLID
  5
214D
  8
0
 62
     0
 10
189.61977687525129
 20
165.58271071445151
 30
0.0
 11
189.61977687525129
 21
165.52271071445151
 31
0.0
 12
189.43977687525151
 22
165.55271071445139
 32
0.0
 13
189.43977687525151
 23
165.55271071445139
 33
0.0
  0
INSERT
  5
214E
  8
0
  2
*U31
 10
0.0
 20
0.0
 30
0.0
  0
POINT
  5
214F
  8
DEFPOINTS
 62
     0
 10
191.8897768752515
 20
156.34342259552051
 30
0.0
  0
POINT
  5
2150
  8
DEFPOINTS
 62
     0
 10
189.43977687525151
 20
156.34342259552051
 30
0.0
  0
POINT
  5
2151
  8
DEFPOINTS
 62
     0
 10
189.43977687525151
 20
165.55271071445139
 30
0.0
  0
ENDBLK
  5
2153
  8
0
  0
BLOCK
  8
0
  2
*D12
 70
     1
 10
0.0
 20
0.0
 30
0.0
  3
*D12
  1

  0
LINE
  5
2156
  8
0
 62
     0
 10
175.3897768752515
 20
156.46842259552059
 30
0.0
 11
175.3897768752515
 21
167.3267145876967
 31
0.0
  0
LINE
  5
2157
  8
0
 62
     0
 10
191.8897768752515
 20
156.40592259552051
 30
0.0
 11
191.8897768752515
 21
167.3267145876967
 31
0.0
  0
LINE
  5
2158
  8
0
 62
     0
 10
175.56977687525151
 20
167.14671458769669
 30
0.0
 11
183.08477687525129
 21
167.14671458769669
 31
0.0
  0
LINE
  5
2159
  8
0
 62
     0
 10
191.70977687525149
 20
167.14671458769669
 30
0.0
 11
184.19477687525151
 21
167.14671458769669
 31
0.0
  0
SOLID
  5
215A
  8
0
 62
     0
 10
175.56977687525151
 20
167.17671458769641
 30
0.0
 11
175.56977687525151
 21
167.11671458769669
 31
0.0
 12
175.3897768752515
 22
167.14671458769669
 32
0.0
 13
175.3897768752515
 23
167.14671458769669
 33
0.0
  0
SOLID
  5
215B
  8
0
 62
     0
 10
191.70977687525149
 20
167.17671458769641
 30
0.0
 11
191.70977687525149
 21
167.11671458769669
 31
0.0
 12
191.8897768752515
 22
167.14671458769669
 32
0.0
 13
191.8897768752515
 23
167.14671458769669
 33
0.0
  0
INSERT
  5
215C
  8
0
  2
*U32
 10
0.0
 20
0.0
 30
0.0
  0
POINT
  5
215D
  8
DEFPOINTS
 62
     0
 10
175.3897768752515
 20
156.40592259552051
 30
0.0
  0
POINT
  5
215E
  8
DEFPOINTS
 62
     0
 10
191.8897768752515
 20
156.34342259552051
 30
0.0
  0
POINT
  5
215F
  8
DEFPOINTS
 62
     0
 10
191.8897768752515
 20
167.14671458769669
 30
0.0
  0
ENDBLK
  5
2161
  8
0
  0
BLOCK
  8
0
  2
*D13
 70
     1
 10
0.0
 20
0.0
 30
0.0
  3
*D13
  1

  0
LINE
  5
2164
  8
0
 62
     0
 10
200.3897768752515
 20
154.90592259552059
 30
0.0
 11
200.3897768752515
 21
169.06588944067281
 31
0.0
  0
LINE
  5
2165
  8
0
 62
     0
 10
175.3897768752515
 20
156.40592259552051
 30
0.0
 11
175.3897768752515
 21
169.06588944067281
 31
0.0
  0
LINE
  5
2166
  8
0
 62
     0
 10
200.20977687525129
 20
168.8858894406728
 30
0.0
 11
188.45977687525149
 21
168.8858894406728
 31
0.0
  0
LINE
  5
2167
  8
0
 62
     0
 10
175.56977687525151
 20
168.8858894406728
 30
0.0
 11
187.31977687525151
 21
168.8858894406728
 31
0.0
  0
SOLID
  5
2168
  8
0
 62
     0
 10
200.20977687525129
 20
168.9158894406728
 30
0.0
 11
200.20977687525129
 21
168.8558894406728
 31
0.0
 12
200.3897768752515
 22
168.8858894406728
 32
0.0
 13
200.3897768752515
 23
168.8858894406728
 33
0.0
  0
SOLID
  5
2169
  8
0
 62
     0
 10
175.56977687525151
 20
168.9158894406728
 30
0.0
 11
175.56977687525151
 21
168.8558894406728
 31
0.0
 12
175.3897768752515
 22
168.8858894406728
 32
0.0
 13
175.3897768752515
 23
168.8858894406728
 33
0.0
  0
INSERT
  5
216A
  8
0
  2
*U33
 10
0.0
 20
0.0
 30
0.0
  0
POINT
  5
216B
  8
DEFPOINTS
 62
     0
 10
200.3897768752515
 20
154.84342259552051
 30
0.0
  0
POINT
  5
216C
  8
DEFPOINTS
 62
     0
 10
175.3897768752515
 20
156.34342259552051
 30
0.0
  0
POINT
  5
216D
  8
DEFPOINTS
 62
     0
 10
175.3897768752515
 20
168.8858894406728
 30
0.0
  0
ENDBLK
  5
216F
  8
0
  0
BLOCK
  8
0
  2
*D14
 70
     1
 10
0.0
 20
0.0
 30
0.0
  3
*D14
  1

  0
LINE
  5
217B
  8
0
 62
     0
 10
175.3272768752513
 20
162.34342259552051
 30
0.0
 11
169.7652633863546
 21
162.34342259552051
 31
0.0
  0
LINE
  5
217C
  8
0
 62
     0
 10
175.3272768752513
 20
130.34342259552071
 30
0.0
 11
169.7652633863546
 21
130.34342259552071
 31
0.0
  0
LINE
  5
217D
  8
0
 62
     0
 10
169.94526338635461
 20
162.1634225955205
 30
0.0
 11
169.94526338635461
 21
146.5234225955206
 31
0.0
  0
LINE
  5
217E
  8
0
 62
     0
 10
169.94526338635461
 20
130.52342259552071
 30
0.0
 11
169.94526338635461
 21
146.1634225955207
 31
0.0
  0
SOLID
  5
217F
  8
0
 62
     0
 10
169.9152633863547
 20
162.1634225955205
 30
0.0
 11
169.97526338635461
 21
162.1634225955205
 31
0.0
 12
169.94526338635461
 22
162.34342259552051
 32
0.0
 13
169.94526338635461
 23
162.34342259552051
 33
0.0
  0
SOLID
  5
2180
  8
0
 62
     0
 10
169.9152633863547
 20
130.52342259552071
 30
0.0
 11
169.97526338635461
 21
130.52342259552071
 31
0.0
 12
169.94526338635461
 22
130.34342259552071
 32
0.0
 13
169.94526338635461
 23
130.34342259552071
 33
0.0
  0
INSERT
  5
2181
  8
0
  2
*U34
 10
0.0
 20
0.0
 30
0.0
  0
POINT
  5
2182
  8
DEFPOINTS
 62
     0
 10
175.3897768752515
 20
162.34342259552051
 30
0.0
  0
POINT
  5
2183
  8
DEFPOINTS
 62
     0
 10
175.3897768752515
 20
130.34342259552071
 30
0.0
  0
POINT
  5
2184
  8
DEFPOINTS
 62
     0
 10
169.94526338635461
 20
130.34342259552071
 30
0.0
  0
ENDBLK
  5
2186
  8
0
  0
BLOCK
  8
0
  2
*D15
 70
     1
 10
0.0
 20
0.0
 30
0.0
  3
*D15
  1

  0
LINE
  5
2191
  8
0
 62
     0
 10
200.4522768752515
 20
137.84342259552079
 30
0.0
 11
207.7877228363258
 21
137.84342259552079
 31
0.0
  0
LINE
  5
2192
  8
0
 62
     0
 10
200.4522768752515
 20
154.84342259552051
 30
0.0
 11
207.7877228363258
 21
154.84342259552051
 31
0.0
  0
LINE
  5
2193
  8
0
 62
     0
 10
207.60772283632571
 20
138.0234225955208
 30
0.0
 11
207.60772283632571
 21
146.1634225955205
 31
0.0
  0
LINE
  5
2194
  8
0
 62
     0
 10
207.60772283632571
 20
154.6634225955205
 30
0.0
 11
207.60772283632571
 21
146.5234225955206
 31
0.0
  0
SOLID
  5
2195
  8
0
 62
     0
 10
207.57772283632579
 20
138.0234225955208
 30
0.0
 11
207.63772283632571
 21
138.0234225955208
 31
0.0
 12
207.60772283632571
 22
137.84342259552079
 32
0.0
 13
207.60772283632571
 23
137.84342259552079
 33
0.0
  0
SOLID
  5
2196
  8
0
 62
     0
 10
207.57772283632579
 20
154.6634225955205
 30
0.0
 11
207.63772283632571
 21
154.6634225955205
 31
0.0
 12
207.60772283632571
 22
154.84342259552051
 32
0.0
 13
207.60772283632571
 23
154.84342259552051
 33
0.0
  0
INSERT
  5
2197
  8
0
  2
*U35
 10
0.0
 20
0.0
 30
0.0
  0
POINT
  5
2198
  8
DEFPOINTS
 62
     0
 10
200.3897768752515
 20
137.84342259552079
 30
0.0
  0
POINT
  5
2199
  8
DEFPOINTS
 62
     0
 10
200.3897768752515
 20
154.84342259552051
 30
0.0
  0
POINT
  5
219A
  8
DEFPOINTS
 62
     0
 10
207.60772283632571
 20
154.84342259552051
 30
0.0
  0
ENDBLK
  5
219C
  8
0
  0
BLOCK
  8
0
  2
*D16
 70
     1
 10
0.0
 20
0.0
 30
0.0
  3
*D16
  1

  0
LINE
  5
21A1
  8
0
 62
     0
 10
177.83977687525149
 20
156.90592259552079
 30
0.0
 11
177.83977687525149
 21
163.5037970972474
 31
0.0
  0
LINE
  5
21A2
  8
0
 62
     0
 10
189.43977687525151
 20
156.90592259552079
 30
0.0
 11
189.43977687525151
 21
163.5037970972474
 31
0.0
  0
LINE
  5
21A3
  8
0
 62
     0
 10
178.01977687525149
 20
163.32379709724739
 30
0.0
 11
183.11477687525149
 21
163.32379709724739
 31
0.0
  0
LINE
  5
21A4
  8
0
 62
     0
 10
189.2597768752515
 20
163.32379709724739
 30
0.0
 11
184.1647768752515
 21
163.32379709724739
 31
0.0
  0
SOLID
  5
21A5
  8
0
 62
     0
 10
178.01977687525149
 20
163.35379709724731
 30
0.0
 11
178.01977687525149
 21
163.29379709724739
 31
0.0
 12
177.83977687525149
 22
163.32379709724739
 32
0.0
 13
177.83977687525149
 23
163.32379709724739
 33
0.0
  0
SOLID
  5
21A6
  8
0
 62
     0
 10
189.2597768752515
 20
163.35379709724731
 30
0.0
 11
189.2597768752515
 21
163.29379709724739
 31
0.0
 12
189.43977687525151
 22
163.32379709724739
 32
0.0
 13
189.43977687525151
 23
163.32379709724739
 33
0.0
  0
INSERT
  5
21A7
  8
0
  2
*U36
 10
0.0
 20
0.0
 30
0.0
  0
POINT
  5
21A8
  8
DEFPOINTS
 62
     0
 10
177.83977687525149
 20
156.84342259552079
 30
0.0
  0
POINT
  5
21A9
  8
DEFPOINTS
 62
     0
 10
189.43977687525151
 20
156.84342259552079
 30
0.0
  0
POINT
  5
21AA
  8
DEFPOINTS
 62
     0
 10
189.43977687525151
 20
163.32379709724739
 30
0.0
  0
ENDBLK
  5
21AC
  8
0
  0
BLOCK
  8
0
  2
*D17
 70
     1
 10
0.0
 20
0.0
 30
0.0
  3
*D17
  1

  0
LINE
  5
21AF
  8
0
 62
     0
 10
177.83977687525149
 20
156.40592259552051
 30
0.0
 11
177.83977687525149
 21
165.1930734563814
 31
0.0
  0
LINE
  5
21B0
  8
0
 62
     0
 10
175.3897768752513
 20
156.40592259552051
 30
0.0
 11
175.3897768752513
 21
165.1930734563814
 31
0.0
  0
LINE
  5
21B1
  8
0
 62
     0
 10
177.65977687525151
 20
165.01307345638139
 30
0.0
 11
177.1247768752514
 21
165.01307345638139
 31
0.0
  0
LINE
  5
21B2
  8
0
 62
     0
 10
175.56977687525131
 20
165.01307345638139
 30
0.0
 11
176.1047768752515
 21
165.01307345638139
 31
0.0
  0
SOLID
  5
21B3
  8
0
 62
     0
 10
177.65977687525151
 20
165.04307345638151
 30
0.0
 11
177.65977687525151
 21
164.98307345638139
 31
0.0
 12
177.83977687525149
 22
165.01307345638139
 32
0.0
 13
177.83977687525149
 23
165.01307345638139
 33
0.0
  0
SOLID
  5
21B4
  8
0
 62
     0
 10
175.56977687525131
 20
165.04307345638151
 30
0.0
 11
175.56977687525131
 21
164.98307345638139
 31
0.0
 12
175.3897768752513
 22
165.01307345638139
 32
0.0
 13
175.3897768752513
 23
165.01307345638139
 33
0.0
  0
INSERT
  5
21B5
  8
0
  2
*U37
 10
0.0
 20
0.0
 30
0.0
  0
POINT
  5
21B6
  8
DEFPOINTS
 62
     0
 10
177.83977687525149
 20
156.34342259552051
 30
0.0
  0
POINT
  5
21B7
  8
DEFPOINTS
 62
     0
 10
175.3897768752513
 20
156.34342259552051
 30
0.0
  0
POINT
  5
21B8
  8
DEFPOINTS
 62
     0
 10
175.3897768752513
 20
165.01307345638139
 30
0.0
  0
ENDBLK
  5
21BA
  8
0
  0
BLOCK
  8
0
  2
*D18
 70
     1
 10
0.0
 20
0.0
 30
0.0
  3
*D18
  1

  0
LINE
  5
21BD
  8
0
 62
     0
 10
189.43977687525151
 20
156.40592259552051
 30
0.0
 11
189.43977687525151
 21
165.0205640925746
 31
0.0
  0
LINE
  5
21BE
  8
0
 62
     0
 10
191.8897768752515
 20
156.40592259552051
 30
0.0
 11
191.8897768752515
 21
165.0205640925746
 31
0.0
  0
LINE
  5
21BF
  8
0
 62
     0
 10
189.6197768752514
 20
164.8405640925746
 30
0.0
 11
190.15477687525151
 21
164.8405640925746
 31
0.0
  0
LINE
  5
21C0
  8
0
 62
     0
 10
191.70977687525149
 20
164.8405640925746
 30
0.0
 11
191.1747768752515
 21
164.8405640925746
 31
0.0
  0
SOLID
  5
21C1
  8
0
 62
     0
 10
189.6197768752514
 20
164.8705640925746
 30
0.0
 11
189.6197768752514
 21
164.81056409257459
 31
0.0
 12
189.43977687525151
 22
164.8405640925746
 32
0.0
 13
189.43977687525151
 23
164.8405640925746
 33
0.0
  0
SOLID
  5
21C2
  8
0
 62
     0
 10
191.70977687525149
 20
164.8705640925746
 30
0.0
 11
191.70977687525149
 21
164.81056409257459
 31
0.0
 12
191.8897768752515
 22
164.8405640925746
 32
0.0
 13
191.8897768752515
 23
164.8405640925746
 33
0.0
  0
INSERT
  5
21C3
  8
0
  2
*U38
 10
0.0
 20
0.0
 30
0.0
  0
POINT
  5
21C4
  8
DEFPOINTS
 62
     0
 10
189.43977687525151
 20
156.34342259552051
 30
0.0
  0
POINT
  5
21C5
  8
DEFPOINTS
 62
     0
 10
191.8897768752515
 20
156.34342259552051
 30
0.0
  0
POINT
  5
21C6
  8
DEFPOINTS
 62
     0
 10
191.8897768752515
 20
164.8405640925746
 30
0.0
  0
ENDBLK
  5
21C8
  8
0
  0
BLOCK
  8
0
  2
*D19
 70
     1
 10
0.0
 20
0.0
 30
0.0
  3
*D19
  1

  0
LINE
  5
21D0
  8
0
 62
     0
 10
200.4522768752515
 20
154.34342259552059
 30
0.0
 11
208.1092912915073
 21
154.34342259552059
 31
0.0
  0
LINE
  5
21D1
  8
0
 62
     0
 10
200.4522768752515
 20
138.34342259552051
 30
0.0
 11
208.1092912915073
 21
138.34342259552051
 31
0.0
  0
LINE
  5
21D2
  8
0
 62
     0
 10
207.9292912915073
 20
154.16342259552039
 30
0.0
 11
207.9292912915073
 21
146.5234225955206
 31
0.0
  0
LINE
  5
21D3
  8
0
 62
     0
 10
207.9292912915073
 20
138.5234225955204
 30
0.0
 11
207.9292912915073
 21
146.1634225955205
 31
0.0
  0
SOLID
  5
21D4
  8
0
 62
     0
 10
207.8992912915071
 20
154.16342259552039
 30
0.0
 11
207.9592912915073
 21
154.16342259552039
 31
0.0
 12
207.9292912915073
 22
154.34342259552059
 32
0.0
 13
207.9292912915073
 23
154.34342259552059
 33
0.0
  0
SOLID
  5
21D5
  8
0
 62
     0
 10
207.8992912915071
 20
138.5234225955204
 30
0.0
 11
207.9592912915073
 21
138.5234225955204
 31
0.0
 12
207.9292912915073
 22
138.34342259552051
 32
0.0
 13
207.9292912915073
 23
138.34342259552051
 33
0.0
  0
INSERT
  5
21D6
  8
0
  2
*U39
 10
0.0
 20
0.0
 30
0.0
  0
POINT
  5
21D7
  8
DEFPOINTS
 62
     0
 10
200.3897768752515
 20
154.34342259552059
 30
0.0
  0
POINT
  5
21D8
  8
DEFPOINTS
 62
     0
 10
200.3897768752515
 20
138.34342259552051
 30
0.0
  0
POINT
  5
21D9
  8
DEFPOINTS
 62
     0
 10
207.9292912915073
 20
138.34342259552051
 30
0.0
  0
ENDBLK
  5
21DB
  8
0
  0
BLOCK
  8
0
  2
*D20
 70
     1
 10
0.0
 20
0.0
 30
0.0
  3
*D20
  1

  0
LINE
  5
21FA
  8
0
 62
     0
 10
177.77727687525149
 20
134.2434225955206
 30
0.0
 11
165.20509601549981
 21
134.2434225955206
 31
0.0
  0
LINE
  5
21FB
  8
0
 62
     0
 10
177.77727687525081
 20
158.4434225955205
 30
0.0
 11
165.20509601549981
 21
158.4434225955205
 31
0.0
  0
LINE
  5
21FC
  8
0
 62
     0
 10
165.38509601549981
 20
134.42342259552061
 30
0.0
 11
165.38509601549981
 21
146.1634225955205
 31
0.0
  0
LINE
  5
21FD
  8
0
 62
     0
 10
165.38509601549981
 20
158.2634225955205
 30
0.0
 11
165.38509601549981
 21
146.5234225955206
 31
0.0
  0
SOLID
  5
21FE
  8
0
 62
     0
 10
165.35509601549981
 20
134.42342259552061
 30
0.0
 11
165.41509601549981
 21
134.42342259552061
 31
0.0
 12
165.38509601549981
 22
134.2434225955206
 32
0.0
 13
165.38509601549981
 23
134.2434225955206
 33
0.0
  0
SOLID
  5
21FF
  8
0
 62
     0
 10
165.35509601549981
 20
158.2634225955205
 30
0.0
 11
165.41509601549981
 21
158.2634225955205
 31
0.0
 12
165.38509601549981
 22
158.4434225955205
 32
0.0
 13
165.38509601549981
 23
158.4434225955205
 33
0.0
  0
INSERT
  5
2200
  8
0
  2
*U40
 10
0.0
 20
0.0
 30
0.0
  0
POINT
  5
2201
  8
DEFPOINTS
 62
     0
 10
177.83977687525149
 20
134.2434225955206
 30
0.0
  0
POINT
  5
2202
  8
DEFPOINTS
 62
     0
 10
177.83977687525081
 20
158.4434225955205
 30
0.0
  0
POINT
  5
2203
  8
DEFPOINTS
 62
     0
 10
165.38509601549981
 20
158.4434225955205
 30
0.0
  0
ENDBLK
  5
2205
  8
0
  0
BLOCK
  8
0
  2
*D21
 70
     1
 10
0.0
 20
0.0
 30
0.0
  3
*D21
  1

  0
LINE
  5
220F
  8
0
 62
     0
 10
115.69061641602821
 20
162.1434225955208
 30
0.0
 11
101.90786758633089
 21
162.1434225955208
 31
0.0
  0
LINE
  5
2210
  8
0
 62
     0
 10
115.69061641602831
 20
130.34342259552071
 30
0.0
 11
101.90786758633089
 21
130.34342259552071
 31
0.0
  0
LINE
  5
2211
  8
0
 62
     0
 10
102.0878675863309
 20
161.9634225955208
 30
0.0
 11
102.0878675863309
 21
146.42342259552069
 31
0.0
  0
LINE
  5
2212
  8
0
 62
     0
 10
102.0878675863309
 20
130.52342259552071
 30
0.0
 11
102.0878675863309
 21
146.06342259552071
 31
0.0
  0
SOLID
  5
2213
  8
0
 62
     0
 10
102.0578675863309
 20
161.9634225955208
 30
0.0
 11
102.1178675863309
 21
161.9634225955208
 31
0.0
 12
102.0878675863309
 22
162.1434225955208
 32
0.0
 13
102.0878675863309
 23
162.1434225955208
 33
0.0
  0
SOLID
  5
2214
  8
0
 62
     0
 10
102.0578675863309
 20
130.52342259552071
 30
0.0
 11
102.1178675863309
 21
130.52342259552071
 31
0.0
 12
102.0878675863309
 22
130.34342259552071
 32
0.0
 13
102.0878675863309
 23
130.34342259552071
 33
0.0
  0
INSERT
  5
2215
  8
0
  2
*U41
 10
0.0
 20
0.0
 30
0.0
  0
POINT
  5
2216
  8
DEFPOINTS
 62
     0
 10
115.75311641602821
 20
162.1434225955208
 30
0.0
  0
POINT
  5
2217
  8
DEFPOINTS
 62
     0
 10
115.75311641602831
 20
130.34342259552071
 30
0.0
  0
POINT
  5
2218
  8
DEFPOINTS
 62
     0
 10
102.0878675863309
 20
130.34342259552071
 30
0.0
  0
ENDBLK
  5
221A
  8
0
  0
BLOCK
  8
0
  2
*D22
 70
     1
 10
0.0
 20
0.0
 30
0.0
  3
*D22
  1

  0
LINE
  5
221D
  8
0
 62
     0
 10
114.93015407399839
 20
156.34342259552051
 30
0.0
 11
109.3114521892884
 21
156.34342259552051
 31
0.0
  0
LINE
  5
221E
  8
0
 62
     0
 10
114.93015407399839
 20
136.34342259552071
 30
0.0
 11
109.3114521892884
 21
136.34342259552071
 31
0.0
  0
LINE
  5
221F
  8
0
 62
     0
 10
109.4914521892884
 20
156.16342259552039
 30
0.0
 11
109.4914521892884
 21
146.5234225955206
 31
0.0
  0
LINE
  5
2220
  8
0
 62
     0
 10
109.4914521892884
 20
136.52342259552071
 30
0.0
 11
109.4914521892884
 21
146.1634225955205
 31
0.0
  0
SOLID
  5
2221
  8
0
 62
     0
 10
109.46145218928839
 20
156.16342259552039
 30
0.0
 11
109.5214521892884
 21
156.16342259552039
 31
0.0
 12
109.4914521892884
 22
156.34342259552051
 32
0.0
 13
109.4914521892884
 23
156.34342259552051
 33
0.0
  0
SOLID
  5
2222
  8
0
 62
     0
 10
109.46145218928839
 20
136.52342259552071
 30
0.0
 11
109.5214521892884
 21
136.52342259552071
 31
0.0
 12
109.4914521892884
 22
136.34342259552071
 32
0.0
 13
109.4914521892884
 23
136.34342259552071
 33
0.0
  0
INSERT
  5
2223
  8
0
  2
*U42
 10
0.0
 20
0.0
 30
0.0
  0
POINT
  5
2224
  8
DEFPOINTS
 62
     0
 10
114.99265407399839
 20
156.34342259552051
 30
0.0
  0
POINT
  5
2225
  8
DEFPOINTS
 62
     0
 10
114.99265407399839
 20
136.34342259552071
 30
0.0
  0
POINT
  5
2226
  8
DEFPOINTS
 62
     0
 10
109.4914521892884
 20
136.34342259552071
 30
0.0
  0
ENDBLK
  5
2228
  8
0
  0
BLOCK
  8
0
  2
*U23
 70
     1
 10
0.0
 20
0.0
 30
0.0
  3
*U23
  1

  0
TEXT
  5
225A
  8
0
 62
     0
 10
129.8476540739984
 20
162.6625672718593
 30
0.0
 40
0.18
  1
2.4500
  0
ENDBLK
  5
225C
  8
0
  0
BLOCK
  8
0
  2
*U24
 70
     1
 10
0.0
 20
0.0
 30
0.0
  3
*U24
  1

  0
TEXT
  5
225E
  8
0
 62
     0
 10
122.77765407399841
 20
164.1030913453192
 30
0.0
 40
0.18
  1
16.5000
  0
ENDBLK
  5
2260
  8
0
  0
BLOCK
  8
0
  2
*U25
 70
     1
 10
0.0
 20
0.0
 30
0.0
  3
*U25
  1

  0
TEXT
  5
2262
  8
0
 62
     0
 10
122.80765407399851
 20
162.55211763733601
 30
0.0
 40
0.18
  1
11.6000
  0
ENDBLK
  5
2264
  8
0
  0
BLOCK
  8
0
  2
*U26
 70
     1
 10
0.0
 20
0.0
 30
0.0
  3
*U26
  1

  0
TEXT
  5
2266
  8
0
 62
     0
 10
115.7976540739984
 20
163.0973385197706
 30
0.0
 40
0.18
  1
2.4500
  0
ENDBLK
  5
2268
  8
0
  0
BLOCK
  8
0
  2
*U27
 70
     1
 10
0.0
 20
0.0
 30
0.0
  3
*U27
  1

  0
TEXT
  5
226A
  8
0
 62
     0
 10
183.1747768752513
 20
167.4009840752843
 30
0.0
 40
0.18
  1
16.5000
  0
ENDBLK
  5
226C
  8
0
  0
BLOCK
  8
0
  2
*U28
 70
     1
 10
0.0
 20
0.0
 30
0.0
  3
*U28
  1

  0
TEXT
  5
226E
  8
0
 62
     0
 10
176.19477687525131
 20
163.84038241565131
 30
0.0
 40
0.18
  1
2.4500
  0
ENDBLK
  5
2270
  8
0
  0
BLOCK
  8
0
  2
*U29
 70
     1
 10
0.0
 20
0.0
 30
0.0
  3
*U29
  1

  0
TEXT
  5
2272
  8
0
 62
     0
 10
183.1747768752513
 20
168.2069778451349
 30
0.0
 40
0.18
  1
16.5000
  0
ENDBLK
  5
2274
  8
0
  0
BLOCK
  8
0
  2
*U30
 70
     1
 10
0.0
 20
0.0
 30
0.0
  3
*U30
  1

  0
TEXT
  5
2276
  8
0
 62
     0
 10
183.2047768752513
 20
164.8904087117389
 30
0.0
 40
0.18
  1
11.6000
  0
ENDBLK
  5
2278
  8
0
  0
BLOCK
  8
0
  2
*U31
 70
     1
 10
0.0
 20
0.0
 30
0.0
  3
*U31
  1

  0
TEXT
  5
227A
  8
0
 62
     0
 10
190.24477687525149
 20
165.46271071445139
 30
0.0
 40
0.18
  1
2.4500
  0
ENDBLK
  5
227C
  8
0
  0
BLOCK
  8
0
  2
*U32
 70
     1
 10
0.0
 20
0.0
 30
0.0
  3
*U32
  1

  0
TEXT
  5
227E
  8
0
 62
     0
 10
183.1747768752513
 20
167.05671458769669
 30
0.0
 40
0.18
  1
16.5000
  0
ENDBLK
  5
2280
  8
0
  0
BLOCK
  8
0
  2
*U33
 70
     1
 10
0.0
 20
0.0
 30
0.0
  3
*U33
  1

  0
TEXT
  5
2282
  8
0
 62
     0
 10
187.40977687525151
 20
168.79588944067279
 30
0.0
 40
0.18
  1
25.0000
  0
ENDBLK
  5
2284
  8
0
  0
BLOCK
  8
0
  2
*U34
 70
     1
 10
0.0
 20
0.0
 30
0.0
  3
*U34
  1

  0
TEXT
  5
2286
  8
0
 62
     0
 10
169.46526338635459
 20
146.25342259552059
 30
0.0
 40
0.18
  1
32.0000
  0
ENDBLK
  5
2288
  8
0
  0
BLOCK
  8
0
  2
*U35
 70
     1
 10
0.0
 20
0.0
 30
0.0
  3
*U35
  1

  0
TEXT
  5
228A
  8
0
 62
     0
 10
207.1577228363256
 20
146.25342259552059
 30
0.0
 40
0.18
  1
17.0000
  0
ENDBLK
  5
228C
  8
0
  0
BLOCK
  8
0
  2
*U36
 70
     1
 10
0.0
 20
0.0
 30
0.0
  3
*U36
  1

  0
TEXT
  5
228E
  8
0
 62
     0
 10
183.20477687525141
 20
163.23379709724739
 30
0.0
 40
0.18
  1
11.6000
  0
ENDBLK
  5
2290
  8
0
  0
BLOCK
  8
0
  2
*U37
 70
     1
 10
0.0
 20
0.0
 30
0.0
  3
*U37
  1

  0
TEXT
  5
2292
  8
0
 62
     0
 10
176.19477687525131
 20
164.92307345638139
 30
0.0
 40
0.18
  1
2.4500
  0
ENDBLK
  5
2294
  8
0
  0
BLOCK
  8
0
  2
*U38
 70
     1
 10
0.0
 20
0.0
 30
0.0
  3
*U38
  1

  0
TEXT
  5
2296
  8
0
 62
     0
 10
190.24477687525149
 20
164.75056409257459
 30
0.0
 40
0.18
  1
2.4500
  0
ENDBLK
  5
2298
  8
0
  0
BLOCK
  8
0
  2
*U39
 70
     1
 10
0.0
 20
0.0
 30
0.0
  3
*U39
  1

  0
TEXT
  5
229A
  8
0
 62
     0
 10
207.47929129150711
 20
146.25342259552059
 30
0.0
 40
0.18
  1
16.0000
  0
ENDBLK
  5
229C
  8
0
  0
BLOCK
  8
0
  2
*U40
 70
     1
 10
0.0
 20
0.0
 30
0.0
  3
*U40
  1

  0
TEXT
  5
229E
  8
0
 62
     0
 10
164.89009601549969
 20
146.25342259552059
 30
0.0
 40
0.18
  1
24.2000
  0
ENDBLK
  5
22A0
  8
0
  0
BLOCK
  8
0
  2
*U41
 70
     1
 10
0.0
 20
0.0
 30
0.0
  3
*U41
  1

  0
TEXT
  5
22A2
  8
0
 62
     0
 10
101.6228675863309
 20
146.15342259552079
 30
0.0
 40
0.18
  1
31.8000
  0
ENDBLK
  5
22A4
  8
0
  0
BLOCK
  8
0
  2
*U42
 70
     1
 10
0.0
 20
0.0
 30
0.0
  3
*U42
  1

  0
TEXT
  5
22A6
  8
0
 62
     0
 10
109.02645218928841
 20
146.25342259552059
 30
0.0
 40
0.18
  1
20.0000
  0
ENDBLK
  5
22A8
  8
0
  0
ENDSEC
  0
SECTION
  2
ENTITIES
  0
TEXT
  5
1F90
  8
0
 10
10.0
 20
25.0
 30
0.0
 40
4.0
  1
TTPA16-AT5100-A
  0
TEXT
  5
1F91
  8
0
 10
10.0
 20
10.0
 30
0.0
 40
4.0
  1
TTPA16-AT5100
  0
TEXT
  5
1F92
  8
0
 10
114.5643329500964
 20
199.8975362088224
 30
0.0
 40
3.2000000000000002
  1
TYPE A
  0
TEXT
  5
1F93
  8
0
 10
176.97311669047329
 20
199.4762237540769
 30
0.0
 40
3.2000000000000002
  1
TYPE B
  0
TEXT
  5
1F9F
  8
0
 10
10.0
 20
17.764469588585879
 30
0.0
 40
4.0
  1
TTPA16-AT5100-A
  0
LINE
  5
1FA0
  8
CENTER
 10
111.9426540739985
 20
146.34342259552059
 30
0.0
 11
134.54265407399851
 21
146.34342259552059
 31
0.0
  0
LINE
  5
1FA1
  8
0
  6
DASHED
 62
     3
 10
120.24265407399849
 20
156.6434225955206
 30
0.0
 11
120.24265407399849
 21
154.14342259552041
 31
0.0
  0
LINE
  5
1FA2
  8
0
  6
DASHED
 62
     3
 10
126.24265407399849
 20
156.6434225955206
 30
0.0
 11
126.24265407399849
 21
154.14342259552041
 31
0.0
  0
LINE
  5
1FA3
  8
0
 10
114.99265407399839
 20
146.34342259552059
 30
0.0
 11
114.99265407399839
 21
156.34342259552051
 31
0.0
  0
LINE
  5
1FA4
  8
0
 10
131.49265407399849
 20
146.34342259552059
 30
0.0
 11
131.49265407399849
 21
156.34342259552051
 31
0.0
  0
LINE
  5
1FA5
  8
CENTER
 10
123.24265407399849
 20
159.07342259552081
 30
0.0
 11
123.24265407399849
 21
146.34342259552059
 31
0.0
  0
LINE
  5
1FA6
  8
0
 10
129.04265407399851
 20
136.34342259552071
 30
0.0
 11
129.04265407399851
 21
134.04342259552041
 31
0.0
  0
LINE
  5
1FA7
  8
0
 10
130.6426540739985
 20
136.34342259552071
 30
0.0
 11
130.6426540739985
 21
134.2285489118008
 31
0.0
  0
LINE
  5
1FA8
  8
0
 10
115.8426540739984
 20
136.34342259552071
 30
0.0
 11
115.8426540739984
 21
134.2285489118008
 31
0.0
  0
LINE
  5
1FA9
  8
0
 10
117.4426540739984
 20
136.34342259552071
 30
0.0
 11
117.4426540739984
 21
134.04342259552041
 31
0.0
  0
LINE
  5
1FAA
  8
CENTER
 10
114.9426540739985
 20
133.6134225955206
 30
0.0
 11
131.54265407399839
 21
133.6134225955206
 31
0.0
  0
LINE
  5
1FAB
  8
0
 10
117.4426540739984
 20
134.04342259552041
 30
0.0
 11
116.57482690876721
 21
130.34342259552071
 31
0.0
  0
LINE
  5
1FAC
  8
0
 10
115.8426540739984
 20
134.2285489118008
 30
0.0
 11
114.9314059232894
 21
130.34342259552071
 31
0.0
  0
LINE
  5
1FAD
  8
0
 10
116.57482690876721
 20
130.34342259552071
 30
0.0
 11
114.9314059232894
 21
130.34342259552071
 31
0.0
  0
LINE
  5
1FAE
  8
0
 10
129.04265407399851
 20
134.04342259552041
 30
0.0
 11
129.91048123922971
 21
130.34342259552071
 31
0.0
  0
LINE
  5
1FAF
  8
0
 10
129.91048123922971
 20
130.34342259552071
 30
0.0
 11
131.55390222470709
 21
130.34342259552071
 31
0.0
  0
LINE
  5
1FB0
  8
0
 10
130.6426540739985
 20
134.2285489118008
 30
0.0
 11
131.55390222470709
 21
130.34342259552071
 31
0.0
  0
LINE
  5
1FB1
  8
0
 10
117.4426540739984
 20
134.04342259552041
 30
0.0
 11
129.04265407399851
 21
134.04342259552041
 31
0.0
  0
LINE
  5
1FB2
  8
0
 10
131.49265407399849
 20
146.34342259552059
 30
0.0
 11
131.49265407399849
 21
136.34342259552071
 31
0.0
  0
LINE
  5
1FB3
  8
0
 10
114.99265407399839
 20
146.34342259552059
 30
0.0
 11
114.99265407399839
 21
136.34342259552071
 31
0.0
  0
LINE
  5
1FB4
  8
0
 10
114.99265407399839
 20
141.34342259552059
 30
0.0
 11
131.49265407399849
 21
141.34342259552059
 31
0.0
  0
LINE
  5
1FB5
  8
0
 10
114.99265407399839
 20
136.34342259552071
 30
0.0
 11
117.4426540739984
 21
136.34342259552071
 31
0.0
  0
LINE
  5
1FB6
  8
0
 10
131.49265407399849
 20
136.34342259552071
 30
0.0
 11
129.04265407399851
 21
136.34342259552071
 31
0.0
  0
LINE
  5
1FB7
  8
0
 10
117.4426540739984
 20
135.84342259552079
 30
0.0
 11
129.04265407399851
 21
135.84342259552079
 31
0.0
  0
LINE
  5
1FB8
  8
0
 10
114.99265407399849
 20
151.34342259552079
 30
0.0
 11
131.49265407399849
 21
151.34342259552079
 31
0.0
  0
LINE
  5
1FB9
  8
0
  6
DASHED
 62
     3
 10
121.24265407399849
 20
154.14342259552041
 30
0.0
 11
121.24265407399849
 21
151.34342259552079
 31
0.0
  0
LINE
  5
1FBA
  8
0
  6
DASHED
 62
     3
 10
121.6216540739985
 20
154.14342259552041
 30
0.0
 11
121.6216540739985
 21
151.34342259552079
 31
0.0
  0
LINE
  5
1FBB
  8
0
  6
DASHED
 62
     3
 10
124.8636540739985
 20
154.14342259552041
 30
0.0
 11
124.8636540739985
 21
151.34342259552079
 31
0.0
  0
LINE
  5
1FBC
  8
0
  6
DASHED
 62
     3
 10
125.24265407399849
 20
154.14342259552041
 30
0.0
 11
125.24265407399849
 21
151.34342259552079
 31
0.0
  0
LINE
  5
1FBD
  8
0
  6
DASHED
 62
     3
 10
120.24265407399849
 20
154.14342259552041
 30
0.0
 11
126.24265407399849
 21
154.14342259552041
 31
0.0
  0
LINE
  5
1FC2
  8
0
 10
114.99265407399839
 20
156.34342259552051
 30
0.0
 11
117.4426540739984
 21
156.34342259552051
 31
0.0
  0
LINE
  5
1FC3
  8
CENTER
 10
114.9426540739985
 20
159.07342259552081
 30
0.0
 11
131.54265407399839
 21
159.07342259552081
 31
0.0
  0
LINE
  5
1FC9
  8
0
 10
131.49265407399849
 20
156.34342259552051
 30
0.0
 11
129.04265407399851
 21
156.34342259552051
 31
0.0
  0
LINE
  5
1FCD
  8
0
 10
175.3897768752515
 20
141.34342259552059
 30
0.0
 11
200.3897768752515
 21
141.34342259552059
 31
0.0
  0
LINE
  5
1FCE
  8
0
 10
191.8897768752515
 20
138.34342259552051
 30
0.0
 11
200.3897768752515
 21
138.34342259552051
 31
0.0
  0
LINE
  5
1FCF
  8
0
 10
191.8897768752515
 20
154.34342259552059
 30
0.0
 11
200.3897768752515
 21
154.34342259552059
 31
0.0
  0
LINE
  5
1FD0
  8
0
 10
175.3897768752515
 20
151.34342259552079
 30
0.0
 11
200.3897768752515
 21
151.34342259552079
 31
0.0
  0
LINE
  5
1FD1
  8
CENTER
 10
172.33977687525149
 20
146.34342259552059
 30
0.0
 11
203.3897768752515
 21
146.34342259552059
 31
0.0
  0
LINE
  5
1FD6
  8
0
 10
175.3897768752515
 20
146.34342259552059
 30
0.0
 11
175.3897768752515
 21
136.34342259552071
 31
0.0
  0
LINE
  5
1FD7
  8
0
 10
177.83977687525149
 20
136.34342259552071
 30
0.0
 11
177.83977687525149
 21
134.2434225955206
 31
0.0
  0
LINE
  5
1FD8
  8
0
 10
176.23977687525129
 20
136.34342259552071
 30
0.0
 11
176.23977687525129
 21
134.4285489118005
 31
0.0
  0
LINE
  5
1FD9
  8
0
 10
191.0397768752515
 20
136.34342259552071
 30
0.0
 11
191.0397768752515
 21
134.4285489118005
 31
0.0
  0
LINE
  5
1FDA
  8
0
 10
189.43977687525151
 20
136.34342259552071
 30
0.0
 11
189.43977687525151
 21
134.2434225955202
 31
0.0
  0
LINE
  5
1FDB
  8
0
 10
177.83977687525149
 20
134.2434225955206
 30
0.0
 11
176.97194971002011
 21
130.34342259552051
 31
0.0
  0
LINE
  5
1FDC
  8
CENTER
 10
175.33977687525149
 20
133.6134225955208
 30
0.0
 11
191.93977687525151
 21
133.6134225955208
 31
0.0
  0
LINE
  5
1FDD
  8
0
 10
176.23977687525129
 20
134.4285489118005
 30
0.0
 11
175.32852872454251
 21
130.34342259552051
 31
0.0
  0
LINE
  5
1FDE
  8
0
 10
176.97194971002011
 20
130.34342259552051
 30
0.0
 11
175.32852872454251
 21
130.34342259552051
 31
0.0
  0
LINE
  5
1FDF
  8
0
 10
191.0397768752515
 20
134.4285489118005
 30
0.0
 11
191.95102502596029
 21
130.34342259552051
 31
0.0
  0
LINE
  5
1FE0
  8
0
 10
189.43977687525151
 20
134.2434225955202
 30
0.0
 11
190.30760404048289
 21
130.34342259552051
 31
0.0
  0
LINE
  5
1FE1
  8
0
 10
177.83977687525149
 20
134.2434225955206
 30
0.0
 11
189.43977687525151
 21
134.2434225955202
 31
0.0
  0
LINE
  5
1FE2
  8
0
 10
177.83977687525149
 20
136.04342259552041
 30
0.0
 11
189.43977687525151
 21
136.04342259552041
 31
0.0
  0
LINE
  5
1FE3
  8
0
 10
190.30760404048289
 20
130.34342259552051
 30
0.0
 11
191.95102502596029
 21
130.34342259552051
 31
0.0
  0
LINE
  5
1FE4
  8
0
 10
175.3897768752515
 20
136.34342259552071
 30
0.0
 11
177.83977687525149
 21
136.34342259552071
 31
0.0
  0
LINE
  5
1FE5
  8
0
 10
191.8897768752515
 20
136.34342259552071
 30
0.0
 11
189.43977687525151
 21
136.34342259552071
 31
0.0
  0
LINE
  5
1FE6
  8
0
 10
191.8897768752515
 20
138.34342259552051
 30
0.0
 11
191.8897768752515
 21
136.34342259552071
 31
0.0
  0
LINE
  5
1FE7
  8
0
  6
DASHED
 62
     3
 10
194.38977687525119
 20
154.34342259552059
 30
0.0
 11
194.38977687525119
 21
151.34342259552079
 31
0.0
  0
LINE
  5
1FE8
  8
0
  6
DASHED
 62
     3
 10
194.76877687525129
 20
154.34342259552059
 30
0.0
 11
194.76877687525129
 21
151.34342259552079
 31
0.0
  0
LINE
  5
1FE9
  8
0
  6
DASHED
 62
     3
 10
198.01077687525151
 20
154.34342259552059
 30
0.0
 11
198.01077687525151
 21
151.34342259552079
 31
0.0
  0
LINE
  5
1FEA
  8
0
  6
DASHED
 62
     3
 10
198.3897768752513
 20
154.34342259552059
 30
0.0
 11
198.3897768752513
 21
151.34342259552079
 31
0.0
  0
LINE
  5
1FEB
  8
CENTER
 10
196.3897768752515
 20
157.34342259552051
 30
0.0
 11
196.3897768752515
 21
148.34342259552079
 31
0.0
  0
LINE
  5
1FEC
  8
0
 10
175.3897768752515
 20
146.34342259552059
 30
0.0
 11
175.3897768752515
 21
156.34342259552051
 31
0.0
  0
LINE
  5
1FEE
  8
0
 10
175.3897768752515
 20
156.34342259552051
 30
0.0
 11
177.83977687525149
 21
156.34342259552051
 31
0.0
  0
LINE
  5
1FF0
  8
0
 10
191.8897768752515
 20
154.34342259552059
 30
0.0
 11
191.8897768752515
 21
156.34342259552051
 31
0.0
  0
LINE
  5
1FF2
  8
0
 10
191.8897768752515
 20
156.34342259552051
 30
0.0
 11
189.43977687525151
 21
156.34342259552051
 31
0.0
  0
LINE
  5
1FF9
  8
0
 10
200.3897768752515
 20
138.34342259552051
 30
0.0
 11
200.3897768752515
 21
146.34342259552059
 31
0.0
  0
LINE
  5
1FFA
  8
0
 10
200.3897768752515
 20
154.34342259552059
 30
0.0
 11
200.3897768752515
 21
146.34342259552059
 31
0.0
  0
LINE
  5
21DE
  8
CENTER
 10
175.33977687525149
 20
159.07342259552041
 30
0.0
 11
191.93977687525151
 21
159.07342259552041
 31
0.0
  0
LINE
  5
21DF
  8
0
 10
177.83977687525149
 20
156.64342259552041
 30
0.0
 11
189.43977687525151
 21
156.64342259552041
 31
0.0
  0
LINE
  5
21E0
  8
0
 10
177.83977687525149
 20
158.4434225955205
 30
0.0
 11
189.43977687525151
 21
158.4434225955209
 31
0.0
  0
LINE
  5
21E1
  8
0
 10
177.83977687525149
 20
158.4434225955205
 30
0.0
 11
176.97194971002011
 21
162.34342259552051
 31
0.0
  0
LINE
  5
21E2
  8
0
 10
176.23977687525129
 20
158.2582962792406
 30
0.0
 11
175.32852872454251
 21
162.34342259552051
 31
0.0
  0
LINE
  5
21E3
  8
0
 10
176.97194971002011
 20
162.34342259552051
 30
0.0
 11
175.32852872454251
 21
162.34342259552051
 31
0.0
  0
LINE
  5
21E4
  8
0
 10
176.23977687525129
 20
156.34342259552031
 30
0.0
 11
176.23977687525129
 21
158.2582962792406
 31
0.0
  0
LINE
  5
21E5
  8
0
 10
177.83977687525149
 20
156.34342259552031
 30
0.0
 11
177.83977687525149
 21
158.4434225955205
 31
0.0
  0
LINE
  5
21E6
  8
0
 10
191.0397768752515
 20
158.2582962792406
 30
0.0
 11
191.95102502596029
 21
162.34342259552051
 31
0.0
  0
LINE
  5
21E7
  8
0
 10
189.43977687525151
 20
158.4434225955209
 30
0.0
 11
190.30760404048289
 21
162.34342259552051
 31
0.0
  0
LINE
  5
21E8
  8
0
 10
190.30760404048289
 20
162.34342259552051
 30
0.0
 11
191.95102502596029
 21
162.34342259552051
 31
0.0
  0
LINE
  5
21E9
  8
0
 10
189.43977687525151
 20
156.34342259552031
 30
0.0
 11
189.43977687525151
 21
158.4434225955209
 31
0.0
  0
LINE
  5
21EA
  8
0
 10
191.0397768752515
 20
156.34342259552031
 30
0.0
 11
191.0397768752515
 21
158.2582962792406
 31
0.0
  0
LINE
  5
21EB
  8
0
 10
117.4426540739984
 20
158.4434225955207
 30
0.0
 11
116.57482690876689
 21
162.34342259552051
 31
0.0
  0
LINE
  5
21EC
  8
0
 10
115.8426540739982
 20
158.2582962792406
 30
0.0
 11
114.9314059232894
 21
162.34342259552051
 31
0.0
  0
LINE
  5
21ED
  8
0
 10
116.57482690876689
 20
162.34342259552051
 30
0.0
 11
114.9314059232894
 21
162.34342259552051
 31
0.0
  0
LINE
  5
21EE
  8
0
 10
129.04265407399831
 20
158.4434225955209
 30
0.0
 11
129.91048123922971
 21
162.34342259552051
 31
0.0
  0
LINE
  5
21EF
  8
0
 10
130.64265407399839
 20
158.2582962792406
 30
0.0
 11
131.553902224707
 21
162.34342259552051
 31
0.0
  0
LINE
  5
21F0
  8
0
 10
129.91048123922971
 20
162.34342259552051
 30
0.0
 11
131.553902224707
 21
162.34342259552051
 31
0.0
  0
LINE
  5
21F1
  8
0
 10
117.4426540739984
 20
158.4434225955207
 30
0.0
 11
129.04265407399831
 21
158.4434225955209
 31
0.0
  0
LINE
  5
21F2
  8
0
 10
117.4426540739984
 20
156.6434225955206
 30
0.0
 11
129.04265407399831
 21
156.6434225955206
 31
0.0
  0
LINE
  5
21F3
  8
0
 10
115.8426540739982
 20
156.34342259552051
 30
0.0
 11
115.8426540739982
 21
158.2582962792406
 31
0.0
  0
LINE
  5
21F4
  8
0
 10
117.4426540739984
 20
156.34342259552051
 30
0.0
 11
117.4426540739984
 21
158.4434225955207
 31
0.0
  0
LINE
  5
21F5
  8
0
 10
129.04265407399831
 20
156.34342259552051
 30
0.0
 11
129.04265407399831
 21
158.4434225955209
 31
0.0
  0
LINE
  5
21F6
  8
0
 10
130.64265407399839
 20
156.34342259552051
 30
0.0
 11
130.64265407399839
 21
158.2582962792406
 31
0.0
  0
ENDSEC
  0
EOF
