  0
SECTION
  2
HEADER
  9
$ACADVER
  1
AC1009
  9
$INSBASE
 10
0.0
 20
0.0
 30
0.0
  9
$EXTMIN
 10
-4.3777077200448948
 20
114.27224329551019
 30
-0.0000000000112498
  9
$EXTMAX
 10
207.9061037024733
 20
251.58473029530529
 30
0.0000000000002956
  9
$LIMMIN
 10
0.0
 20
0.0
  9
$LIMMAX
 10
297.0
 20
210.0
  9
$ORTHOMODE
 70
     1
  9
$REGENMODE
 70
     1
  9
$FILLMODE
 70
     1
  9
$QTEXTMODE
 70
     0
  9
$MIRRTEXT
 70
     1
  9
$DRAGMODE
 70
     2
  9
$LTSCALE
 40
1.0
  9
$OSMODE
 70
    36
  9
$ATTMODE
 70
     1
  9
$TEXTSIZE
 40
6.4000000000000012
  9
$TRACEWID
 40
0.05
  9
$TEXTSTYLE
  7
STANDARD
  9
$CLAYER
  8
0
  9
$CELTYPE
  6
CONTINUOUS
  9
$CECOLOR
 62
     7
  9
$DIMSCALE
 40
1.0
  9
$DIMASZ
 40
3.0
  9
$DIMEXO
 40
1.0
  9
$DIMDLI
 40
0.0
  9
$DIMRND
 40
0.0
  9
$DIMDLE
 40
0.0
  9
$DIMEXE
 40
1.0
  9
$DIMTP
 40
0.0
  9
$DIMTM
 40
0.0
  9
$DIMTXT
 40
3.2000000000000002
  9
$DIMCEN
 40
0.0
  9
$DIMTSZ
 40
0.0
  9
$DIMTOL
 70
     0
  9
$DIMLIM
 70
     0
  9
$DIMTIH
 70
     0
  9
$DIMTOH
 70
     0
  9
$DIMSE1
 70
     0
  9
$DIMSE2
 70
     0
  9
$DIMTAD
 70
     1
  9
$DIMZIN
 70
     8
  9
$DIMBLK
  1

  9
$DIMASO
 70
     1
  9
$DIMSHO
 70
     1
  9
$DIMPOST
  1

  9
$DIMAPOST
  1

  9
$DIMALT
 70
     0
  9
$DIMALTD
 70
     2
  9
$DIMALTF
 40
0.04
  9
$DIMLFAC
 40
1.0
  9
$DIMTOFL
 70
     1
  9
$DIMTVP
 40
1.0
  9
$DIMTIX
 70
     1
  9
$DIMSOXD
 70
     0
  9
$DIMSAH
 70
     0
  9
$DIMBLK1
  1

  9
$DIMBLK2
  1

  9
$DIMSTYLE
  2
MISUMI
  9
$DIMCLRD
 70
     0
  9
$DIMCLRE
 70
     0
  9
$DIMCLRT
 70
     0
  9
$DIMTFAC
 40
0.6
  9
$DIMGAP
 40
1.0
  9
$LUNITS
 70
     2
  9
$LUPREC
 70
     4
  9
$SKETCHINC
 40
0.1
  9
$FILLETRAD
 40
0.3
  9
$AUNITS
 70
     0
  9
$AUPREC
 70
     0
  9
$MENU
  1
acad
  9
$ELEVATION
 40
0.0
  9
$PELEVATION
 40
0.0
  9
$THICKNESS
 40
0.0
  9
$LIMCHECK
 70
     0
  9
$BLIPMODE
 70
     0
  9
$CHAMFERA
 40
0.5
  9
$CHAMFERB
 40
0.5
  9
$SKPOLY
 70
     0
  9
$TDCREATE
 40
2451464.6006649309
  9
$TDUPDATE
 40
2454146.6210068292
  9
$TDINDWG
 40
0.2281094907
  9
$TDUSRTIMER
 40
0.2281051157
  9
$USRTIMER
 70
     1
  9
$ANGBASE
 50
0.0
  9
$ANGDIR
 70
     0
  9
$PDMODE
 70
     0
  9
$PDSIZE
 40
0.0
  9
$PLINEWID
 40
0.0
  9
$COORDS
 70
     2
  9
$SPLFRAME
 70
     0
  9
$SPLINETYPE
 70
     6
  9
$SPLINESEGS
 70
     8
  9
$ATTDIA
 70
     0
  9
$ATTREQ
 70
     1
  9
$HANDLING
 70
     1
  9
$HANDSEED
  5
19B2
  9
$SURFTAB1
 70
     6
  9
$SURFTAB2
 70
     6
  9
$SURFTYPE
 70
     6
  9
$SURFU
 70
     6
  9
$SURFV
 70
     6
  9
$UCSNAME
  2

  9
$UCSORG
 10
0.0
 20
0.0
 30
0.0
  9
$UCSXDIR
 10
1.0
 20
0.0
 30
0.0
  9
$UCSYDIR
 10
0.0
 20
1.0
 30
0.0
  9
$PUCSNAME
  2

  9
$PUCSORG
 10
0.0
 20
0.0
 30
0.0
  9
$PUCSXDIR
 10
1.0
 20
0.0
 30
0.0
  9
$PUCSYDIR
 10
0.0
 20
1.0
 30
0.0
  9
$USERI1
 70
     0
  9
$USERI2
 70
     0
  9
$USERI3
 70
     0
  9
$USERI4
 70
     0
  9
$USERI5
 70
     0
  9
$USERR1
 40
0.0
  9
$USERR2
 40
0.0
  9
$USERR3
 40
0.0
  9
$USERR4
 40
0.0
  9
$USERR5
 40
0.0
  9
$WORLDVIEW
 70
     1
  9
$SHADEDGE
 70
     3
  9
$SHADEDIF
 70
    70
  9
$TILEMODE
 70
     1
  9
$MAXACTVP
 70
    16
  9
$PLIMCHECK
 70
     0
  9
$PEXTMIN
 10
1.0000000000000000E+020
 20
1.0000000000000000E+020
 30
1.0000000000000000E+020
  9
$PEXTMAX
 10
-1.0000000000000000E+020
 20
-1.0000000000000000E+020
 30
-1.0000000000000000E+020
  9
$PLIMMIN
 10
0.0
 20
0.0
  9
$PLIMMAX
 10
12.0
 20
9.0
  9
$UNITMODE
 70
     0
  9
$VISRETAIN
 70
     0
  9
$PLINEGEN
 70
     0
  9
$PSLTSCALE
 70
     0
  0
ENDSEC
  0
SECTION
  2
TABLES
  0
TABLE
  2
VPORT
 70
     5
  0
VPORT
  2
*ACTIVE
 70
     0
 10
0.0
 20
0.0
 11
1.0
 21
1.0
 12
101.7641979912142
 22
182.92848679540771
 13
0.0
 23
0.0
 14
10.0
 24
10.0
 15
10.0
 25
10.0
 16
0.0
 26
0.0
 36
1.0
 17
0.0
 27
0.0
 37
0.0
 40
144.8903410537377
 41
1.472568578553616
 42
50.0
 43
0.0
 44
0.0
 50
0.0
 51
0.0
 71
     0
 72
   100
 73
     1
 74
     0
 75
     0
 76
     0
 77
     0
 78
     0
  0
ENDTAB
  0
TABLE
  2
LTYPE
 70
     3
  0
LTYPE
  2
CONTINUOUS
 70
     0
  3
Solid line
 72
    65
 73
     0
 40
0.0
  0
LTYPE
  2
CENTER
 70
     0
  3
Center ____ _ ____ _ ____ _ ____ _ ____ _ ____
 72
    65
 73
     4
 40
2.0
 49
1.25
 49
-0.25
 49
0.25
 49
-0.25
  0
LTYPE
  2
DASHED
 70
     0
  3
Dashed __ __ __ __ __ __ __ __ __ __ __ __ __ _
 72
    65
 73
     2
 40
0.75
 49
0.5
 49
-0.25
  0
ENDTAB
  0
TABLE
  2
LAYER
 70
     3
  0
LAYER
  2
0
 70
     0
 62
     7
  6
CONTINUOUS
  0
LAYER
  2
DEFPOINTS
 70
     0
 62
     7
  6
CONTINUOUS
  0
LAYER
  2
CENTER
 70
     0
 62
     1
  6
CENTER
  0
ENDTAB
  0
TABLE
  2
STYLE
 70
     2
  0
STYLE
  2
STANDARD
 70
     0
 40
0.0
 41
1.0
 50
0.0
 71
     0
 42
6.4000000000000012
  3
txt
  4

  0
ENDTAB
  0
TABLE
  2
VIEW
 70
     0
  0
ENDTAB
  0
TABLE
  2
UCS
 70
     0
  0
ENDTAB
  0
TABLE
  2
APPID
 70
     1
  0
APPID
  2
ACAD
 70
     0
  0
ENDTAB
  0
TABLE
  2
DIMSTYLE
 70
     1
  0
DIMSTYLE
  2
MISUMI
 70
     0
  3

  4

  5

  6

  7

 40
1.0
 41
3.0
 42
1.0
 43
0.0
 44
1.0
 45
0.0
 46
0.0
 47
0.0
 48
0.0
140
3.2000000000000002
141
0.0
142
0.0
143
0.04
144
1.0
145
1.0
146
0.6
147
1.0
 71
     0
 72
     0
 73
     0
 74
     0
 75
     0
 76
     0
 77
     1
 78
     8
170
     0
171
     2
172
     1
173
     0
174
     1
175
     0
176
     0
177
     0
178
     0
  0
ENDTAB
  0
ENDSEC
  0
SECTION
  2
BLOCKS
  0
BLOCK
  8
0
  2
$MODEL_SPACE
 70
     0
 10
0.0
 20
0.0
 30
0.0
  3
$MODEL_SPACE
  1

  0
ENDBLK
  5
18C4
  8
0
  0
BLOCK
 67
     1
  8
0
  2
$PAPER_SPACE
 70
     0
 10
0.0
 20
0.0
 30
0.0
  3
$PAPER_SPACE
  1

  0
ENDBLK
  5
18C0
 67
     1
  8
0
  0
BLOCK
  8
0
 62
     7
  2
*U7
 70
     1
 10
0.0
 20
0.0
 30
0.0
  3
*U7
  1

  0
TEXT
  5
199F
  8
0
  6
CONTINUOUS
 62
     0
 10
165.61709441290259
 20
268.79583344549849
 30
0.0
 40
3.2000000000000002
  1
\U+220542.0701
 50
286.17014842414142
  0
ENDBLK
  5
19A1
  8
0
 62
     7
  0
BLOCK
  8
0
 62
     7
  2
*U8
 70
     1
 10
0.0
 20
0.0
 30
0.0
  3
*U8
  1

  0
TEXT
  5
19A3
  8
0
  6
CONTINUOUS
 62
     0
 10
134.38909424978499
 20
245.1181813757124
 30
0.0
 40
3.2000000000000002
  1
\U+220542.0375
 50
333.4799436481739
  0
ENDBLK
  5
19A5
  8
0
 62
     7
  0
BLOCK
  8
0
 62
     7
  2
*U9
 70
     1
 10
0.0
 20
0.0
 30
0.0
  3
*U9
  1

  0
TEXT
  5
19A7
  8
0
  6
CONTINUOUS
 62
     0
 10
160.89147781837491
 20
176.1415726222738
 30
0.0
 40
3.2000000000000002
  1
\U+220541.9598
 50
70.013767573243442
  0
ENDBLK
  5
19A9
  8
0
 62
     7
  0
BLOCK
  8
0
 62
     7
  2
*U10
 70
     1
 10
0.0
 20
0.0
 30
0.0
  3
*U10
  1

  0
TEXT
  5
19AB
  8
0
  6
CONTINUOUS
 62
     0
 10
205.16078695579
 20
213.5933698626651
 30
0.0
 40
3.2000000000000002
  1
\U+220542.0375
 50
339.68764915203298
  0
ENDBLK
  5
19AD
  8
0
 62
     7
  0
BLOCK
  8
0
 62
     7
  2
*U11
 70
     1
 10
0.0
 20
0.0
 30
0.0
  3
*U11
  1

  0
TEXT
  5
19AF
  8
0
  6
CONTINUOUS
 62
     0
 10
131.99078204665179
 20
219.49880255107061
 30
0.0
 40
3.2000000000000002
  1
29
 50
90.0
  0
ENDBLK
  5
19B1
  8
0
 62
     7
  0
ENDSEC
  0
SECTION
  2
ENTITIES
  0
LINE
  5
1854
  8
0
  6
CONTINUOUS
 62
     7
 10
101.11246922418999
 20
249.1654692177371
 30
0.0
 11
101.11246922418999
 21
195.16546921773721
 31
0.0
  0
LINE
  5
1855
  8
0
  6
CONTINUOUS
 62
     7
 10
103.11246922418999
 20
236.66546921773721
 30
0.0
 11
103.11246922418999
 21
207.66546921773721
 31
0.0
  0
LINE
  5
1856
  8
0
  6
CONTINUOUS
 62
     7
 10
86.112469224190107
 20
249.1654692177371
 30
0.0
 11
86.112469224190107
 21
195.16546921773721
 31
0.0
  0
LINE
  5
1857
  8
0
  6
CONTINUOUS
 62
     7
 10
86.112469224190107
 20
195.16546921773721
 30
0.0
 11
101.11246922418999
 21
195.16546921773721
 31
0.0
  0
LINE
  5
1858
  8
0
  6
DASHED
 62
     3
 10
86.112469224190107
 20
204.16546921773721
 30
0.0
 11
95.712469224190187
 21
204.16546921773721
 31
0.0
  0
LINE
  5
1859
  8
0
  6
DASHED
 62
     3
 10
86.112469224190107
 20
198.16546921773721
 30
0.0
 11
95.712469224190187
 21
198.16546921773721
 31
0.0
  0
LINE
  5
185A
  8
0
  6
DASHED
 62
     3
 10
86.112469224190107
 20
203.76546921773721
 30
0.0
 11
95.712469224190187
 21
203.76546921773721
 31
0.0
  0
LINE
  5
185B
  8
0
  6
DASHED
 62
     3
 10
86.112469224190107
 20
198.5654692177369
 30
0.0
 11
95.712469224190187
 21
198.5654692177369
 31
0.0
  0
LINE
  5
185C
  8
0
  6
DASHED
 62
     3
 10
95.712469224190187
 20
205.91546921773721
 30
0.0
 11
101.11246922418999
 21
205.91546921773721
 31
0.0
  0
LINE
  5
185D
  8
0
  6
DASHED
 62
     3
 10
95.712469224190187
 20
196.41546921773721
 30
0.0
 11
101.11246922418999
 21
196.41546921773721
 31
0.0
  0
LINE
  5
185E
  8
0
  6
DASHED
 62
     3
 10
95.712469224190187
 20
196.41546921773721
 30
0.0
 11
95.712469224190187
 21
205.91546921773721
 31
0.0
  0
LINE
  5
185F
  8
0
  6
CONTINUOUS
 62
     7
 10
101.11246922418999
 20
207.66546921773721
 30
0.0
 11
103.11246922418999
 21
207.66546921773721
 31
0.0
  0
LINE
  5
1860
  8
0
  6
CONTINUOUS
 62
     7
 10
86.112469224190107
 20
249.1654692177371
 30
0.0
 11
101.11246922418999
 21
249.1654692177371
 31
0.0
  0
LINE
  5
1861
  8
0
  6
DASHED
 62
     3
 10
86.112469224190107
 20
240.16546921773721
 30
0.0
 11
95.712469224190187
 21
240.16546921773721
 31
0.0
  0
LINE
  5
1862
  8
0
  6
DASHED
 62
     3
 10
86.112469224190107
 20
246.16546921773721
 30
0.0
 11
95.712469224190187
 21
246.16546921773721
 31
0.0
  0
LINE
  5
1863
  8
0
  6
DASHED
 62
     3
 10
86.112469224190107
 20
240.56546921773719
 30
0.0
 11
95.712469224190187
 21
240.56546921773719
 31
0.0
  0
LINE
  5
1864
  8
0
  6
DASHED
 62
     3
 10
86.112469224190107
 20
245.76546921773701
 30
0.0
 11
95.712469224190187
 21
245.76546921773701
 31
0.0
  0
LINE
  5
1865
  8
CENTER
  6
CENTER
 62
     1
 10
83.670547662206786
 20
243.16546921773721
 30
0.0
 11
104.4749905831569
 21
243.16546921773721
 31
0.0
  0
LINE
  5
1866
  8
CENTER
  6
CENTER
 62
     1
 10
80.912152548552015
 20
222.16546921773721
 30
0.0
 11
122.40562317133219
 21
222.16546921773721
 31
0.0
  0
LINE
  5
1867
  8
0
  6
DASHED
 62
     3
 10
95.712469224190187
 20
247.91546921773701
 30
0.0
 11
95.712469224190187
 21
238.4154692177371
 31
0.0
  0
LINE
  5
1868
  8
0
  6
CONTINUOUS
 62
     7
 10
103.3124692241901
 20
234.66546921773721
 30
0.0
 11
113.11246922418999
 21
234.66546921773721
 31
0.0
  0
LINE
  5
1869
  8
0
  6
CONTINUOUS
 62
     7
 10
103.3124692241901
 20
209.66546921773721
 30
0.0
 11
113.11246922418999
 21
209.66546921773721
 31
0.0
  0
ARC
  5
186A
  8
0
  6
CONTINUOUS
 62
     7
 10
103.3124692241901
 20
209.46546921773711
 30
0.0
 40
0.2
 50
90.000000000000384
 51
180.0
  0
LINE
  5
186B
  8
0
  6
CONTINUOUS
 62
     7
 10
101.1124692241897
 20
222.16546921773721
 30
0.0
 11
101.1125692241895
 21
222.16546921773721
 31
0.0
  0
LINE
  5
186C
  8
0
  6
DASHED
 62
     3
 10
95.712469224190187
 20
238.4154692177371
 30
0.0
 11
101.11246922418999
 21
238.4154692177371
 31
0.0
  0
LINE
  5
186D
  8
0
  6
CONTINUOUS
 62
     7
 10
101.11246922418999
 20
236.66546921773721
 30
0.0
 11
103.11246922418999
 21
236.66546921773721
 31
0.0
  0
LINE
  5
186E
  8
0
  6
CONTINUOUS
 62
     7
 10
101.1124692241897
 20
235.66546921773721
 30
0.0
 11
101.1124692241897
 21
235.66556921773699
 31
0.0
  0
ARC
  5
186F
  8
0
  6
CONTINUOUS
 62
     7
 10
103.3124692241901
 20
234.8654692177368
 30
0.0
 40
0.2
 50
180.0
 51
269.99999999999977
  0
LINE
  5
1870
  8
0
  6
CONTINUOUS
 62
     7
 10
113.11246922418999
 20
234.66546921773721
 30
0.0
 11
113.11246922418999
 21
209.66546921773721
 31
0.0
  0
LINE
  5
1871
  8
0
  6
CONTINUOUS
 62
     7
 10
114.4624692241899
 20
234.66546921773721
 30
0.0
 11
114.4624692241899
 21
209.66546921773721
 31
0.0
  0
LINE
  5
1872
  8
0
  6
CONTINUOUS
 62
     7
 10
118.11246922418999
 20
234.66546921773721
 30
0.0
 11
118.11246922418999
 21
209.66546921773721
 31
0.0
  0
LINE
  5
1873
  8
0
  6
CONTINUOUS
 62
     7
 10
114.4624692241899
 20
209.66546921773721
 30
0.0
 11
118.11246922418999
 21
209.66546921773721
 31
0.0
  0
LINE
  5
1874
  8
0
  6
CONTINUOUS
 62
     7
 10
113.11246922418999
 20
210.21546921773711
 30
0.0
 11
114.4624692241899
 21
210.21546921773711
 31
0.0
  0
LINE
  5
1875
  8
0
  6
CONTINUOUS
 62
     7
 10
114.4624692241899
 20
234.66546921773701
 30
0.0
 11
118.11246922418999
 21
234.66546921773721
 31
0.0
  0
LINE
  5
1876
  8
0
  6
CONTINUOUS
 62
     7
 10
113.11246922418999
 20
234.115469217737
 30
0.0
 11
114.4624692241899
 21
234.1154692177368
 31
0.0
  0
LINE
  5
1877
  8
0
  6
DASHED
 62
     3
 10
95.712469224190187
 20
247.91546921773701
 30
0.0
 11
101.11246922418999
 21
247.91546921773701
 31
0.0
  0
LINE
  5
187A
  8
CENTER
  6
CENTER
 62
     1
 10
178.47018464973709
 20
251.5671858583305
 30
0.0
 11
178.47018464973709
 21
192.7637525771438
 31
0.0
  0
LINE
  5
1884
  8
CENTER
  6
CENTER
 62
     1
 10
149.04374168191549
 20
222.16546921773721
 30
0.0
 11
207.89662761755869
 21
222.16546921773721
 31
0.0
  0
TEXT
  5
188B
  8
0
  6
CONTINUOUS
 62
     7
 10
-4.3731088687133024
 20
129.27758857773711
 30
0.0
 40
4.0
  1
FXFA 25-17-F10
  0
TEXT
  5
188C
  8
0
  6
CONTINUOUS
 62
     7
 10
-4.3731088687133024
 20
114.27758857773711
 30
0.0
 40
4.0
  1
FXFA25
  0
LINE
  5
188D
  8
CENTER
  6
CENTER
 62
     1
 10
83.670547662206786
 20
201.16546921773721
 30
0.0
 11
104.4749905831569
 21
201.16546921773721
 31
0.0
  0
CIRCLE
  5
1962
  8
0
  6
CONTINUOUS
 62
     7
 10
178.47018464973709
 20
222.16546921773721
 30
0.0
 40
12.5
  0
CIRCLE
  5
1963
  8
0
  6
CONTINUOUS
 62
     7
 10
178.47018464973709
 20
222.16546921773721
 30
0.0
 40
14.5
  0
CIRCLE
  5
1964
  8
CENTER
  6
CENTER
 62
     1
 10
178.47018464973709
 20
222.16546921773721
 30
0.0
 40
21.0
  0
CIRCLE
  5
1965
  8
0
  6
CONTINUOUS
 62
     7
 10
178.47018464973709
 20
222.16546921773721
 30
0.0
 40
26.99999999999989
  0
CIRCLE
  5
196A
  8
0
  6
CONTINUOUS
 62
     7
 10
178.47018464973709
 20
243.16546921773721
 30
0.0
 40
2.5999999999997949
  0
CIRCLE
  5
196B
  8
0
  6
CONTINUOUS
 62
     3
 10
178.47018464973709
 20
243.16546921773721
 30
0.0
 40
3.0
  0
CIRCLE
  5
196C
  8
0
  6
CONTINUOUS
 62
     7
 10
178.47018464973709
 20
243.16546921773721
 30
0.0
 40
4.749999999999801
  0
CIRCLE
  5
196D
  8
0
  6
CONTINUOUS
 62
     7
 10
157.47018464973709
 20
222.16546921773721
 30
0.0
 40
4.749999999999801
  0
CIRCLE
  5
196E
  8
0
  6
CONTINUOUS
 62
     3
 10
157.47018464973709
 20
222.16546921773721
 30
0.0
 40
3.0
  0
CIRCLE
  5
196F
  8
0
  6
CONTINUOUS
 62
     7
 10
157.47018464973709
 20
222.16546921773721
 30
0.0
 40
2.5999999999997949
  0
CIRCLE
  5
1970
  8
0
  6
CONTINUOUS
 62
     7
 10
178.47018464973709
 20
201.16546921773721
 30
0.0
 40
4.749999999999801
  0
CIRCLE
  5
1971
  8
0
  6
CONTINUOUS
 62
     3
 10
178.47018464973709
 20
201.16546921773721
 30
0.0
 40
3.0
  0
CIRCLE
  5
1972
  8
0
  6
CONTINUOUS
 62
     7
 10
178.47018464973709
 20
201.16546921773721
 30
0.0
 40
2.5999999999997949
  0
CIRCLE
  5
1973
  8
0
  6
CONTINUOUS
 62
     7
 10
199.47018464973709
 20
222.1654692177371
 30
0.0
 40
4.749999999999801
  0
CIRCLE
  5
1974
  8
0
  6
CONTINUOUS
 62
     3
 10
199.47018464973709
 20
222.1654692177371
 30
0.0
 40
3.0
  0
CIRCLE
  5
1975
  8
0
  6
CONTINUOUS
 62
     7
 10
199.47018464973709
 20
222.1654692177371
 30
0.0
 40
2.5999999999997949
  0
ENDSEC
  0
EOF
