  0
SECTION
  2
HEADER
  9
$ACADVER
  1
AC1009
  9
$INSBASE
 10
0.0
 20
0.0
 30
0.0
  9
$EXTMIN
 10
267.6479511736195
 20
50.608214759478493
 30
0.0
  9
$EXTMAX
 10
346.5687826496972
 20
115.7093926603437
 30
0.0
  9
$LIMMIN
 10
0.0
 20
0.0
  9
$LIMMAX
 10
297.0
 20
210.0
  9
$ORTHOMODE
 70
     1
  9
$REGENMODE
 70
     1
  9
$FILLMODE
 70
     1
  9
$QTEXTMODE
 70
     0
  9
$MIRRTEXT
 70
     1
  9
$DRAGMODE
 70
     2
  9
$LTSCALE
 40
1.0
  9
$OSMODE
 70
  2999
  9
$ATTMODE
 70
     1
  9
$TEXTSIZE
 40
6.4000000000000012
  9
$TRACEWID
 40
0.05
  9
$TEXTSTYLE
  7
STANDARD
  9
$CLAYER
  8
0
  9
$CELTYPE
  6
CONTINUOUS
  9
$CECOLOR
 62
     7
  9
$DIMSCALE
 40
1.0
  9
$DIMASZ
 40
3.0
  9
$DIMEXO
 40
1.0
  9
$DIMDLI
 40
0.0
  9
$DIMRND
 40
0.0
  9
$DIMDLE
 40
0.0
  9
$DIMEXE
 40
1.0
  9
$DIMTP
 40
0.0
  9
$DIMTM
 40
0.0
  9
$DIMTXT
 40
3.2000000000000002
  9
$DIMCEN
 40
0.0
  9
$DIMTSZ
 40
0.0
  9
$DIMTOL
 70
     0
  9
$DIMLIM
 70
     0
  9
$DIMTIH
 70
     0
  9
$DIMTOH
 70
     0
  9
$DIMSE1
 70
     0
  9
$DIMSE2
 70
     0
  9
$DIMTAD
 70
     1
  9
$DIMZIN
 70
     8
  9
$DIMBLK
  1

  9
$DIMASO
 70
     1
  9
$DIMSHO
 70
     1
  9
$DIMPOST
  1

  9
$DIMAPOST
  1

  9
$DIMALT
 70
     0
  9
$DIMALTD
 70
     2
  9
$DIMALTF
 40
0.04
  9
$DIMLFAC
 40
1.0
  9
$DIMTOFL
 70
     1
  9
$DIMTVP
 40
1.0
  9
$DIMTIX
 70
     1
  9
$DIMSOXD
 70
     0
  9
$DIMSAH
 70
     0
  9
$DIMBLK1
  1

  9
$DIMBLK2
  1

  9
$DIMSTYLE
  2
MISUMI
  9
$DIMCLRD
 70
     0
  9
$DIMCLRE
 70
     0
  9
$DIMCLRT
 70
     0
  9
$DIMTFAC
 40
0.6
  9
$DIMGAP
 40
1.0
  9
$LUNITS
 70
     2
  9
$LUPREC
 70
     4
  9
$SKETCHINC
 40
0.1
  9
$FILLETRAD
 40
0.3
  9
$AUNITS
 70
     0
  9
$AUPREC
 70
     0
  9
$MENU
  1
acad
  9
$ELEVATION
 40
0.0
  9
$PELEVATION
 40
0.0
  9
$THICKNESS
 40
0.0
  9
$LIMCHECK
 70
     0
  9
$BLIPMODE
 70
     0
  9
$CHAMFERA
 40
0.5
  9
$CHAMFERB
 40
0.5
  9
$SKPOLY
 70
     0
  9
$TDCREATE
 40
2451464.6006649309
  9
$TDUPDATE
 40
2454729.4745507641
  9
$TDINDWG
 40
0.2633375231
  9
$TDUSRTIMER
 40
0.2633340856
  9
$USRTIMER
 70
     1
  9
$ANGBASE
 50
0.0
  9
$ANGDIR
 70
     0
  9
$PDMODE
 70
     0
  9
$PDSIZE
 40
0.0
  9
$PLINEWID
 40
0.0
  9
$COORDS
 70
     2
  9
$SPLFRAME
 70
     0
  9
$SPLINETYPE
 70
     6
  9
$SPLINESEGS
 70
     8
  9
$ATTDIA
 70
     0
  9
$ATTREQ
 70
     1
  9
$HANDLING
 70
     1
  9
$HANDSEED
  5
2462
  9
$SURFTAB1
 70
     6
  9
$SURFTAB2
 70
     6
  9
$SURFTYPE
 70
     6
  9
$SURFU
 70
     6
  9
$SURFV
 70
     6
  9
$UCSNAME
  2

  9
$UCSORG
 10
0.0
 20
0.0
 30
0.0
  9
$UCSXDIR
 10
1.0
 20
0.0
 30
0.0
  9
$UCSYDIR
 10
0.0
 20
1.0
 30
0.0
  9
$PUCSNAME
  2

  9
$PUCSORG
 10
0.0
 20
0.0
 30
0.0
  9
$PUCSXDIR
 10
1.0
 20
0.0
 30
0.0
  9
$PUCSYDIR
 10
0.0
 20
1.0
 30
0.0
  9
$USERI1
 70
     0
  9
$USERI2
 70
     0
  9
$USERI3
 70
     0
  9
$USERI4
 70
     0
  9
$USERI5
 70
     0
  9
$USERR1
 40
0.0
  9
$USERR2
 40
0.0
  9
$USERR3
 40
0.0
  9
$USERR4
 40
0.0
  9
$USERR5
 40
0.0
  9
$WORLDVIEW
 70
     1
  9
$SHADEDGE
 70
     3
  9
$SHADEDIF
 70
    70
  9
$TILEMODE
 70
     1
  9
$MAXACTVP
 70
    16
  9
$PLIMCHECK
 70
     0
  9
$PEXTMIN
 10
1.0000000000000000E+020
 20
1.0000000000000000E+020
 30
1.0000000000000000E+020
  9
$PEXTMAX
 10
-1.0000000000000000E+020
 20
-1.0000000000000000E+020
 30
-1.0000000000000000E+020
  9
$PLIMMIN
 10
0.0
 20
0.0
  9
$PLIMMAX
 10
12.0
 20
9.0
  9
$UNITMODE
 70
     0
  9
$VISRETAIN
 70
     0
  9
$PLINEGEN
 70
     0
  9
$PSLTSCALE
 70
     1
  0
ENDSEC
  0
SECTION
  2
TABLES
  0
TABLE
  2
VPORT
 70
     1
  0
VPORT
  2
*ACTIVE
 70
     0
 10
0.0
 20
0.0
 11
1.0
 21
1.0
 12
313.83780679835212
 22
83.162384496725167
 13
0.0
 23
0.0
 14
10.0
 24
10.0
 15
10.0
 25
10.0
 16
0.0
 26
0.0
 36
1.0
 17
0.0
 27
0.0
 37
0.0
 40
65.593429921677
 41
1.4799498746867159
 42
50.0
 43
0.0
 44
0.0
 50
0.0
 51
0.0
 71
     0
 72
   100
 73
     1
 74
     0
 75
     0
 76
     0
 77
     0
 78
     0
  0
ENDTAB
  0
TABLE
  2
LTYPE
 70
     3
  0
LTYPE
  2
CONTINUOUS
 70
     0
  3
Solid line
 72
    65
 73
     0
 40
0.0
  0
LTYPE
  2
CENTER
 70
     0
  3
Center ____ _ ____ _ ____ _ ____ _ ____ _ ____
 72
    65
 73
     4
 40
2.0
 49
1.25
 49
-0.25
 49
0.25
 49
-0.25
  0
LTYPE
  2
DASHED
 70
     0
  3
__ __ __ __ __ __ __ __ __ __ __ __ __ __ __
 72
    65
 73
     2
 40
3.5
 49
2.0
 49
-1.5
  0
ENDTAB
  0
TABLE
  2
LAYER
 70
     3
  0
LAYER
  2
0
 70
     0
 62
     7
  6
CONTINUOUS
  0
LAYER
  2
CENTER
 70
     0
 62
     1
  6
CENTER
  0
ENDTAB
  0
TABLE
  2
STYLE
 70
     1
  0
STYLE
  2
STANDARD
 70
     0
 40
0.0
 41
1.0
 50
0.0
 71
     0
 42
6.4000000000000012
  3
txt
  4

  0
ENDTAB
  0
TABLE
  2
VIEW
 70
     0
  0
ENDTAB
  0
TABLE
  2
UCS
 70
     0
  0
ENDTAB
  0
TABLE
  2
APPID
 70
     3
  0
APPID
  2
ACAD
 70
     0
  0
APPID
  2
GENIUS_GENODEF_13
 70
     0
  0
APPID
  2
GENIUS_GENOBJ-N-FIL_13
 70
     0
  0
ENDTAB
  0
TABLE
  2
DIMSTYLE
 70
     1
  0
DIMSTYLE
  2
MISUMI
 70
     0
  3

  4

  5

  6

  7

 40
1.0
 41
3.0
 42
1.0
 43
0.0
 44
1.0
 45
0.0
 46
0.0
 47
0.0
 48
0.0
140
3.2000000000000002
141
0.0
142
0.0
143
0.04
144
1.0
145
1.0
146
0.6
147
1.0
 71
     0
 72
     0
 73
     0
 74
     0
 75
     0
 76
     0
 77
     1
 78
     8
170
     0
171
     2
172
     1
173
     0
174
     1
175
     0
176
     0
177
     0
178
     0
  0
ENDTAB
  0
ENDSEC
  0
SECTION
  2
BLOCKS
  0
BLOCK
  8
0
  2
$MODEL_SPACE
 70
     0
 10
0.0
 20
0.0
 30
0.0
  3
$MODEL_SPACE
  1

  0
ENDBLK
  5
243C
  8
0
  0
BLOCK
 67
     1
  8
0
  2
$PAPER_SPACE
 70
     0
 10
0.0
 20
0.0
 30
0.0
  3
$PAPER_SPACE
  1

  0
ENDBLK
  5
2438
 67
     1
  8
0
  0
ENDSEC
  0
SECTION
  2
ENTITIES
  0
LINE
  5
23BC
  8
0
  6
CONTINUOUS
 62
     7
 10
279.3121339011492
 20
114.7093926603437
 30
0.0
 11
313.81213390114931
 21
114.7093926603437
 31
0.0
  0
LINE
  5
23BD
  8
0
  6
CONTINUOUS
 62
     7
 10
279.3121339011492
 20
102.7093926603438
 30
0.0
 11
313.81213390114931
 21
102.7093926603438
 31
0.0
  0
TEXT
  5
23BE
  8
0
  6
CONTINUOUS
 62
     7
 10
270.82773915768308
 20
57.097257662517393
 30
0.0
 40
4.0
  1
SFTF 12-40-J5-M4
  0
LINE
  5
23BF
  8
CENTER
  6
CENTER
 10
277.81213390114931
 20
108.7093926603438
 30
0.0
 11
319.81213390114931
 21
108.7093926603438
 31
0.0
  0
LINE
  5
23C0
  8
0
  6
CONTINUOUS
 62
     7
 10
278.81213390114931
 20
97.420203888627725
 30
0.0
 11
278.81213390114931
 21
64.54677453607286
 31
0.0
  0
TEXT
  5
23C1
  8
0
  6
CONTINUOUS
 62
     7
 10
270.82773915768308
 20
50.6082147594785
 30
0.0
 40
4.0
  1
SFTF12
  0
TEXT
  5
23C2
  8
0
  6
CONTINUOUS
 62
     7
 10
270.16963772032949
 20
106.5127022836346
 30
0.0
 40
3.2000000000000002
  1
M4
  0
LINE
  5
23C3
  8
0
  6
CONTINUOUS
 62
     7
 10
278.81213390114931
 20
114.2093926603438
 30
0.0
 11
278.81213390114931
 21
103.2093926603438
 31
0.0
  0
LINE
  5
23C4
  8
0
  6
CONTINUOUS
 62
     7
 10
279.3121339011492
 20
114.7093926603437
 30
0.0
 11
279.3121339011492
 21
102.7093926603438
 31
0.0
  0
LINE
  5
23C5
  8
0
  6
DASHED
 62
     3
 10
289.8121339011492
 20
107.0593926603438
 30
0.0
 11
290.76476184531219
 21
108.7093926603438
 31
0.0
  0
LINE
  5
23C6
  8
0
  6
DASHED
 62
     3
 10
289.8121339011492
 20
107.0593926603438
 30
0.0
 11
289.8121339011492
 21
110.3593926603439
 31
0.0
  0
LINE
  5
23C7
  8
0
  6
DASHED
 62
     3
 10
286.8121339011492
 20
106.7093910603438
 30
0.0
 11
286.8121339011492
 21
110.7093910603438
 31
0.0
  0
LINE
  5
23C8
  8
CENTER
  6
CENTER
 10
276.02099431616301
 20
72.724180296823391
 30
0.0
 11
303.92629819360678
 21
72.724180296823391
 31
0.0
  0
LINE
  5
23C9
  8
CENTER
  6
CENTER
 10
277.0316813167459
 20
83.914314304305236
 30
0.0
 11
297.9606592248287
 21
83.914314304305236
 31
0.0
  0
TEXT
  5
23CA
  8
0
  6
CONTINUOUS
 62
     7
 10
267.6479511736195
 20
72.219210416808821
 30
0.0
 40
3.2000000000000002
  1
M8
  0
TEXT
  5
23CB
  8
0
  6
CONTINUOUS
 62
     7
 10
267.6479511736195
 20
83.409344424290779
 30
0.0
 40
3.2000000000000002
  1
M6
  0
TEXT
  5
23CC
  8
0
  6
CONTINUOUS
 62
     7
 10
267.6479511736195
 20
91.469524858023277
 30
0.0
 40
3.2000000000000002
  1
M5
  0
LINE
  5
23CD
  8
0
  6
DASHED
 62
     3
 10
278.81213390114931
 20
76.72418029682342
 30
0.0
 11
294.81213390114931
 21
76.72418029682342
 31
0.0
  0
LINE
  5
23CE
  8
0
  6
DASHED
 62
     3
 10
278.81213390114931
 20
68.72418029682342
 30
0.0
 11
294.81213390114931
 21
68.72418029682342
 31
0.0
  0
LINE
  5
23CF
  8
0
  6
DASHED
 62
     3
 10
278.81213390114931
 20
76.09918029682342
 30
0.0
 11
297.8121339011492
 21
76.09918029682342
 31
0.0
  0
LINE
  5
23D0
  8
0
  6
DASHED
 62
     3
 10
278.81213390114931
 20
69.34918029682342
 30
0.0
 11
297.8121339011492
 21
69.34918029682342
 31
0.0
  0
LINE
  5
23D1
  8
0
  6
DASHED
 62
     3
 10
278.81213390114931
 20
86.414314304305236
 30
0.0
 11
293.8121339011492
 21
86.414314304305236
 31
0.0
  0
LINE
  5
23D2
  8
0
  6
DASHED
 62
     3
 10
278.81213390114931
 20
81.414314304305236
 30
0.0
 11
293.8121339011492
 21
81.414314304305236
 31
0.0
  0
LINE
  5
23D3
  8
0
  6
DASHED
 62
     3
 10
278.81213390114931
 20
86.914314304305236
 30
0.0
 11
290.8121339011492
 21
86.914314304305236
 31
0.0
  0
LINE
  5
23D4
  8
0
  6
DASHED
 62
     3
 10
278.81213390114931
 20
80.914314304305236
 30
0.0
 11
290.8121339011492
 21
80.914314304305236
 31
0.0
  0
LINE
  5
23D5
  8
0
  6
DASHED
 62
     3
 10
290.8121339011492
 20
86.914314304305236
 30
0.0
 11
290.8121339011492
 21
80.914314304305236
 31
0.0
  0
LINE
  5
23D6
  8
0
  6
DASHED
 62
     3
 10
290.81211923448279
 20
80.914305836501384
 30
0.0
 11
291.67815930493367
 21
81.414314304305236
 31
0.0
  0
LINE
  5
23D7
  8
0
  6
DASHED
 62
     3
 10
290.81211923448279
 20
86.914322772109259
 30
0.0
 11
291.67815930493367
 21
86.414314304305236
 31
0.0
  0
LINE
  5
23D8
  8
0
  6
DASHED
 62
     3
 10
297.8121339011492
 20
76.09918029682342
 30
0.0
 11
299.7606910596644
 21
72.724180296823391
 31
0.0
  0
LINE
  5
23D9
  8
0
  6
DASHED
 62
     3
 10
297.8121339011492
 20
69.34918029682342
 30
0.0
 11
299.7606910596644
 21
72.724180296823391
 31
0.0
  0
LINE
  5
23DA
  8
0
  6
DASHED
 62
     3
 10
297.8121339011492
 20
76.09918029682342
 30
0.0
 11
297.8121339011492
 21
69.34918029682342
 31
0.0
  0
LINE
  5
23DB
  8
0
  6
DASHED
 62
     3
 10
294.81213390114931
 20
76.72418029682342
 30
0.0
 11
294.81213390114931
 21
68.72418029682342
 31
0.0
  0
LINE
  5
23DC
  8
0
  6
DASHED
 62
     3
 10
294.81213390114931
 20
68.72418029682342
 30
0.0
 11
295.89466565587992
 21
69.34918029682342
 31
0.0
  0
LINE
  5
23DD
  8
0
  6
DASHED
 62
     3
 10
294.81213390114931
 20
76.72418029682342
 30
0.0
 11
295.89466565587998
 21
76.09918029682342
 31
0.0
  0
LINE
  5
23DE
  8
0
  6
DASHED
 62
     3
 10
293.8121339011492
 20
86.414314304305236
 30
0.0
 11
293.8121339011492
 21
81.414314304305236
 31
0.0
  0
LINE
  5
23DF
  8
0
  6
DASHED
 62
     3
 10
293.8121339011492
 20
81.414314304305236
 30
0.0
 11
295.25550957412349
 21
83.914314304305236
 31
0.0
  0
LINE
  5
23E0
  8
0
  6
DASHED
 62
     3
 10
293.8121339011492
 20
86.414314304305236
 30
0.0
 11
295.25550957412349
 21
83.914314304305236
 31
0.0
  0
LINE
  5
23E1
  8
CENTER
  6
CENTER
 10
278.1382015567882
 20
93.087453014834153
 30
0.0
 11
293.81360217828239
 21
93.087453014834153
 31
0.0
  0
LINE
  5
23E2
  8
0
  6
DASHED
 62
     3
 10
291.8121339011492
 20
90.987453014834173
 30
0.0
 11
293.02456946644742
 21
93.087453014834153
 31
0.0
  0
LINE
  5
23E3
  8
0
  6
DASHED
 62
     3
 10
291.8121339011492
 20
95.187453014834347
 30
0.0
 11
293.02456946644742
 21
93.087453014834153
 31
0.0
  0
LINE
  5
23E4
  8
0
  6
DASHED
 62
     3
 10
278.81213390114931
 20
95.587453014834153
 30
0.0
 11
288.8121339011492
 21
95.587453014834153
 31
0.0
  0
LINE
  5
23E5
  8
0
  6
DASHED
 62
     3
 10
278.81213390114931
 20
95.187453014834347
 30
0.0
 11
291.8121339011492
 21
95.187453014834347
 31
0.0
  0
LINE
  5
23E6
  8
0
  6
DASHED
 62
     3
 10
278.81213390114931
 20
90.587453014834153
 30
0.0
 11
288.8121339011492
 21
90.587453014834153
 31
0.0
  0
LINE
  5
23E7
  8
0
  6
DASHED
 62
     3
 10
278.81213390114931
 20
90.987453014834173
 30
0.0
 11
291.8121339011492
 21
90.987453014834173
 31
0.0
  0
LINE
  5
23E8
  8
0
  6
DASHED
 62
     3
 10
291.8121339011492
 20
95.187453014834347
 30
0.0
 11
291.8121339011492
 21
90.987453014834173
 31
0.0
  0
LINE
  5
23E9
  8
0
  6
DASHED
 62
     3
 10
288.8121339011492
 20
95.587453014834153
 30
0.0
 11
288.8121339011492
 21
90.587453014834153
 31
0.0
  0
LINE
  5
23EA
  8
0
  6
DASHED
 62
     3
 10
288.81211923448279
 20
90.587444547030273
 30
0.0
 11
289.41834602379612
 21
90.937449747030414
 31
0.0
  0
LINE
  5
23EB
  8
0
  6
DASHED
 62
     3
 10
288.81211923448251
 20
95.587461482638076
 30
0.0
 11
289.41834602379612
 21
95.237456282638078
 31
0.0
  0
LINE
  5
23EC
  8
0
  6
DASHED
 62
     3
 10
278.81213390114931
 20
107.0593926603438
 30
0.0
 11
289.8121339011492
 21
107.0593926603438
 31
0.0
  0
LINE
  5
23ED
  8
0
  6
DASHED
 62
     3
 10
278.81213390114931
 20
106.7093926603438
 30
0.0
 11
286.8121339011492
 21
106.7093926603438
 31
0.0
  0
LINE
  5
23EE
  8
0
  6
CONTINUOUS
 62
     7
 10
278.81213390114931
 20
103.20938936034381
 30
0.0
 11
279.31212990114932
 21
102.7093916603438
 31
0.0
  0
LINE
  5
23EF
  8
0
  6
DASHED
 62
     3
 10
286.81211923448251
 20
106.70938746034381
 30
0.0
 11
287.41834602379612
 21
107.0593926603438
 31
0.0
  0
LINE
  5
23F0
  8
0
  6
DASHED
 62
     3
 10
278.81213390114931
 20
110.7093926603438
 30
0.0
 11
286.8121339011492
 21
110.7093926603438
 31
0.0
  0
LINE
  5
23F1
  8
0
  6
DASHED
 62
     3
 10
278.81213390114931
 20
110.3593926603439
 30
0.0
 11
289.8121339011492
 21
110.3593926603439
 31
0.0
  0
LINE
  5
23F2
  8
0
  6
CONTINUOUS
 62
     7
 10
279.3121379011493
 20
114.7093940603439
 30
0.0
 11
278.81213390114931
 21
114.20939076034379
 31
0.0
  0
LINE
  5
23F3
  8
0
  6
DASHED
 62
     3
 10
286.81211923448251
 20
110.7093978603439
 30
0.0
 11
287.41834602379612
 21
110.3593926603439
 31
0.0
  0
LINE
  5
23F4
  8
0
  6
DASHED
 62
     3
 10
289.8121339011492
 20
110.3593926603439
 30
0.0
 11
290.76476184531219
 21
108.7093926603438
 31
0.0
  0
CIRCLE
  5
23F5
  8
0
  6
CONTINUOUS
 62
     7
 10
339.56878264969708
 20
108.7093926603438
 30
0.0
 40
6.0
  0
CIRCLE
  5
23F6
  8
0
  6
CONTINUOUS
 62
     7
 10
339.56878264969731
 20
108.7093926603438
 30
0.0
 40
4.6600000000000001
  0
LINE
  5
23F7
  8
0
  6
CONTINUOUS
 62
     7
 10
318.8121339011492
 20
113.36964669818821
 30
0.0
 11
318.8121339011492
 21
104.0491386224995
 31
0.0
  0
LINE
  5
23F8
  8
0
  6
CONTINUOUS
 62
     7
 10
313.81213390114931
 20
114.7093926603437
 30
0.0
 11
313.81213390114931
 21
102.7093926603438
 31
0.0
  0
LINE
  5
23F9
  8
CENTER
  6
CENTER
 10
339.56878264969708
 20
115.7093926603437
 30
0.0
 11
339.56878264969708
 21
101.70939266034389
 31
0.0
  0
CIRCLE
  5
23FA
  8
0
  6
DASHED
 62
     3
 10
339.56878264969708
 20
108.7093926603438
 30
0.0
 40
2.5
  0
CIRCLE
  5
23FB
  8
0
  6
DASHED
 62
     3
 10
339.56878264969708
 20
108.7093926603438
 30
0.0
 40
2.1000000000000001
  0
LINE
  5
23FC
  8
0
  6
CONTINUOUS
 62
     7
 10
313.81213390114931
 20
102.7093926603438
 30
0.0
 11
318.81213390114948
 21
104.0491386224995
 31
0.0
  0
LINE
  5
23FD
  8
CENTER
  6
CENTER
 10
332.5687826496972
 20
108.7093926603438
 30
0.0
 11
346.5687826496972
 21
108.7093926603438
 31
0.0
  0
LINE
  5
23FE
  8
0
 10
318.81213390114948
 20
111.45939266034399
 30
0.0
 11
318.81213390114948
 21
111.4594926603442
 31
0.0
  0
LINE
  5
23FF
  8
0
  6
CONTINUOUS
 62
     7
 10
313.81213390114931
 20
114.7093926603437
 30
0.0
 11
318.81213390114948
 21
113.36964669818821
 31
0.0
  0
ENDSEC
  0
EOF
