  0
SECTION
  2
HEADER
  9
$ACADVER
  1
AC1009
  9
$INSBASE
 10
0.0
 20
0.0
 30
0.0
  9
$EXTMIN
 10
77.079927362843705
 20
98.433896171492165
 30
-0.0000000349181948
  9
$EXTMAX
 10
457.246942036245
 20
391.9991842527163
 30
0.0000000814935747
  9
$LIMMIN
 10
0.0
 20
0.0
  9
$LIMMAX
 10
297.0
 20
210.0
  9
$ORTHOMODE
 70
     1
  9
$REGENMODE
 70
     1
  9
$FILLMODE
 70
     1
  9
$QTEXTMODE
 70
     0
  9
$MIRRTEXT
 70
     1
  9
$DRAGMODE
 70
     2
  9
$LTSCALE
 40
1.0
  9
$OSMODE
 70
    36
  9
$ATTMODE
 70
     1
  9
$TEXTSIZE
 40
6.4000000000000012
  9
$TRACEWID
 40
0.05
  9
$TEXTSTYLE
  7
STANDARD
  9
$CLAYER
  8
0
  9
$CELTYPE
  6
CONTINUOUS
  9
$CECOLOR
 62
     7
  9
$DIMSCALE
 40
1.0
  9
$DIMASZ
 40
3.0
  9
$DIMEXO
 40
1.0
  9
$DIMDLI
 40
0.0
  9
$DIMRND
 40
0.0
  9
$DIMDLE
 40
0.0
  9
$DIMEXE
 40
1.0
  9
$DIMTP
 40
0.0
  9
$DIMTM
 40
0.0
  9
$DIMTXT
 40
3.2000000000000002
  9
$DIMCEN
 40
0.0
  9
$DIMTSZ
 40
0.0
  9
$DIMTOL
 70
     0
  9
$DIMLIM
 70
     0
  9
$DIMTIH
 70
     0
  9
$DIMTOH
 70
     0
  9
$DIMSE1
 70
     0
  9
$DIMSE2
 70
     0
  9
$DIMTAD
 70
     1
  9
$DIMZIN
 70
     8
  9
$DIMBLK
  1

  9
$DIMASO
 70
     1
  9
$DIMSHO
 70
     1
  9
$DIMPOST
  1

  9
$DIMAPOST
  1

  9
$DIMALT
 70
     0
  9
$DIMALTD
 70
     2
  9
$DIMALTF
 40
0.04
  9
$DIMLFAC
 40
1.0
  9
$DIMTOFL
 70
     1
  9
$DIMTVP
 40
1.0
  9
$DIMTIX
 70
     1
  9
$DIMSOXD
 70
     0
  9
$DIMSAH
 70
     0
  9
$DIMBLK1
  1

  9
$DIMBLK2
  1

  9
$DIMSTYLE
  2
MISUMI
  9
$DIMCLRD
 70
     0
  9
$DIMCLRE
 70
     0
  9
$DIMCLRT
 70
     0
  9
$DIMTFAC
 40
0.6
  9
$DIMGAP
 40
1.0
  9
$LUNITS
 70
     2
  9
$LUPREC
 70
     4
  9
$SKETCHINC
 40
0.1
  9
$FILLETRAD
 40
0.3
  9
$AUNITS
 70
     0
  9
$AUPREC
 70
     0
  9
$MENU
  1
acad
  9
$ELEVATION
 40
0.0
  9
$PELEVATION
 40
0.0
  9
$THICKNESS
 40
0.0
  9
$LIMCHECK
 70
     0
  9
$BLIPMODE
 70
     0
  9
$CHAMFERA
 40
0.5
  9
$CHAMFERB
 40
0.5
  9
$SKPOLY
 70
     0
  9
$TDCREATE
 40
2451464.6006649309
  9
$TDUPDATE
 40
2454138.7278671758
  9
$TDINDWG
 40
0.2109676968
  9
$TDUSRTIMER
 40
0.210963125
  9
$USRTIMER
 70
     1
  9
$ANGBASE
 50
0.0
  9
$ANGDIR
 70
     0
  9
$PDMODE
 70
     0
  9
$PDSIZE
 40
0.0
  9
$PLINEWID
 40
0.0
  9
$COORDS
 70
     2
  9
$SPLFRAME
 70
     0
  9
$SPLINETYPE
 70
     6
  9
$SPLINESEGS
 70
     8
  9
$ATTDIA
 70
     0
  9
$ATTREQ
 70
     1
  9
$HANDLING
 70
     1
  9
$HANDSEED
  5
27AC
  9
$SURFTAB1
 70
     6
  9
$SURFTAB2
 70
     6
  9
$SURFTYPE
 70
     6
  9
$SURFU
 70
     6
  9
$SURFV
 70
     6
  9
$UCSNAME
  2

  9
$UCSORG
 10
0.0
 20
0.0
 30
0.0
  9
$UCSXDIR
 10
1.0
 20
0.0
 30
0.0
  9
$UCSYDIR
 10
0.0
 20
1.0
 30
0.0
  9
$PUCSNAME
  2

  9
$PUCSORG
 10
0.0
 20
0.0
 30
0.0
  9
$PUCSXDIR
 10
1.0
 20
0.0
 30
0.0
  9
$PUCSYDIR
 10
0.0
 20
1.0
 30
0.0
  9
$USERI1
 70
     0
  9
$USERI2
 70
     0
  9
$USERI3
 70
     0
  9
$USERI4
 70
     0
  9
$USERI5
 70
     0
  9
$USERR1
 40
0.0
  9
$USERR2
 40
0.0
  9
$USERR3
 40
0.0
  9
$USERR4
 40
0.0
  9
$USERR5
 40
0.0
  9
$WORLDVIEW
 70
     1
  9
$SHADEDGE
 70
     3
  9
$SHADEDIF
 70
    70
  9
$TILEMODE
 70
     1
  9
$MAXACTVP
 70
    16
  9
$PLIMCHECK
 70
     0
  9
$PEXTMIN
 10
1.0000000000000000E+020
 20
1.0000000000000000E+020
 30
1.0000000000000000E+020
  9
$PEXTMAX
 10
-1.0000000000000000E+020
 20
-1.0000000000000000E+020
 30
-1.0000000000000000E+020
  9
$PLIMMIN
 10
0.0
 20
0.0
  9
$PLIMMAX
 10
12.0
 20
9.0
  9
$UNITMODE
 70
     0
  9
$VISRETAIN
 70
     0
  9
$PLINEGEN
 70
     0
  9
$PSLTSCALE
 70
     1
  0
ENDSEC
  0
SECTION
  2
TABLES
  0
TABLE
  2
VPORT
 70
     5
  0
VPORT
  2
*ACTIVE
 70
     0
 10
0.0
 20
0.0
 11
1.0
 21
1.0
 12
267.16343469954433
 22
245.21654021210421
 13
0.0
 23
0.0
 14
10.0
 24
10.0
 15
10.0
 25
10.0
 16
0.0
 26
0.0
 36
1.0
 17
0.0
 27
0.0
 37
0.0
 40
295.75880206439638
 41
1.472568578553616
 42
50.0
 43
0.0
 44
0.0
 50
0.0
 51
0.0
 71
     0
 72
   100
 73
     1
 74
     0
 75
     0
 76
     0
 77
     0
 78
     0
  0
ENDTAB
  0
TABLE
  2
LTYPE
 70
     3
  0
LTYPE
  2
CONTINUOUS
 70
     0
  3
Solid line
 72
    65
 73
     0
 40
0.0
  0
LTYPE
  2
CENTER
 70
     0
  3
Center ____ _ ____ _ ____ _ ____ _ ____ _ ____
 72
    65
 73
     4
 40
2.0
 49
1.25
 49
-0.25
 49
0.25
 49
-0.25
  0
LTYPE
  2
DASHED
 70
     0
  3
__ __ __ __ __ __ __ __ __ __ __ __ __ __ __
 72
    65
 73
     2
 40
3.5
 49
2.0
 49
-1.5
  0
ENDTAB
  0
TABLE
  2
LAYER
 70
     3
  0
LAYER
  2
0
 70
     0
 62
     7
  6
CONTINUOUS
  0
LAYER
  2
DEFPOINTS
 70
     0
 62
     7
  6
CONTINUOUS
  0
LAYER
  2
CENTER
 70
     0
 62
     1
  6
CENTER
  0
ENDTAB
  0
TABLE
  2
STYLE
 70
     1
  0
STYLE
  2
STANDARD
 70
     0
 40
0.0
 41
1.0
 50
0.0
 71
     0
 42
6.4000000000000012
  3
txt
  4

  0
ENDTAB
  0
TABLE
  2
VIEW
 70
     0
  0
ENDTAB
  0
TABLE
  2
UCS
 70
     0
  0
ENDTAB
  0
TABLE
  2
APPID
 70
     1
  0
APPID
  2
ACAD
 70
     0
  0
ENDTAB
  0
TABLE
  2
DIMSTYLE
 70
     1
  0
DIMSTYLE
  2
MISUMI
 70
     0
  3

  4

  5

  6

  7

 40
1.0
 41
3.0
 42
1.0
 43
0.0
 44
1.0
 45
0.0
 46
0.0
 47
0.0
 48
0.0
140
3.2000000000000002
141
0.0
142
0.0
143
0.04
144
1.0
145
1.0
146
0.6
147
1.0
 71
     0
 72
     0
 73
     0
 74
     0
 75
     0
 76
     0
 77
     1
 78
     8
170
     0
171
     2
172
     1
173
     0
174
     1
175
     0
176
     0
177
     0
178
     0
  0
ENDTAB
  0
ENDSEC
  0
SECTION
  2
BLOCKS
  0
BLOCK
  8
0
  2
$MODEL_SPACE
 70
     0
 10
0.0
 20
0.0
 30
0.0
  3
$MODEL_SPACE
  1

  0
ENDBLK
  5
275A
  8
0
  0
BLOCK
 67
     1
  8
0
  2
$PAPER_SPACE
 70
     0
 10
0.0
 20
0.0
 30
0.0
  3
$PAPER_SPACE
  1

  0
ENDBLK
  5
2756
 67
     1
  8
0
  0
BLOCK
  8
0
 62
     7
  2
*U3
 70
     1
 10
0.0
 20
0.0
 30
0.0
  3
*U3
  1

  0
TEXT
  5
27A9
  8
0
  6
CONTINUOUS
 62
     0
 10
452.08295874655698
 20
389.09419089963581
 30
0.0
 40
3.2000000000000002
  1
\U+22056
 50
41.250138609428149
  0
ENDBLK
  5
27AB
  8
0
 62
     7
  0
ENDSEC
  0
SECTION
  2
ENTITIES
  0
LINE
  5
2686
  8
0
  6
CONTINUOUS
 62
     7
 10
306.38086911306232
 20
389.99887559782121
 30
0.0
 11
370.3808691130622
 21
389.9988755978211
 31
0.0
  0
LINE
  5
2687
  8
0
  6
CONTINUOUS
 62
     7
 10
306.38086911306209
 20
369.99887559782098
 30
0.0
 11
370.3808691130622
 21
369.99887559782121
 31
0.0
  0
LINE
  5
2688
  8
0
  6
DASHED
 62
     3
 10
370.88086911306209
 20
207.5934990958537
 30
0.0
 11
346.8808691130622
 21
207.5934990958537
 31
0.0
  0
LINE
  5
2689
  8
0
  6
DASHED
 62
     3
 10
370.88086911306209
 20
195.59349909585359
 30
0.0
 11
346.8808691130622
 21
195.59349909585359
 31
0.0
  0
LINE
  5
268A
  8
0
  6
DASHED
 62
     3
 10
370.88086911306209
 20
206.7184990958537
 30
0.0
 11
343.88086911306209
 21
206.7184990958537
 31
0.0
  0
LINE
  5
268B
  8
0
  6
DASHED
 62
     3
 10
370.88086911306209
 20
196.46849909585359
 30
0.0
 11
343.88086911306209
 21
196.46849909585359
 31
0.0
  0
LINE
  5
268C
  8
0
  6
DASHED
 62
     3
 10
370.88086911306209
 20
222.99482985697949
 30
0.0
 11
347.88086911306198
 21
222.99482985697949
 31
0.0
  0
LINE
  5
268D
  8
0
  6
DASHED
 62
     3
 10
370.88086911306209
 20
231.49482985697961
 30
0.0
 11
347.88086911306198
 21
231.49482985697961
 31
0.0
  0
LINE
  5
268E
  8
0
  6
DASHED
 62
     3
 10
370.88086911306209
 20
232.24482985697949
 30
0.0
 11
350.8808691130622
 21
232.24482985697949
 31
0.0
  0
LINE
  5
268F
  8
0
  6
DASHED
 62
     3
 10
370.88086911306209
 20
222.24482985697961
 30
0.0
 11
350.8808691130622
 21
222.24482985697961
 31
0.0
  0
LINE
  5
2690
  8
0
  6
DASHED
 62
     3
 10
370.88086911306209
 20
247.76722240725181
 30
0.0
 11
351.8808691130622
 21
247.76722240725181
 31
0.0
  0
LINE
  5
2691
  8
0
  6
DASHED
 62
     3
 10
370.88086911306209
 20
254.51722240725181
 30
0.0
 11
351.8808691130622
 21
254.51722240725181
 31
0.0
  0
LINE
  5
2692
  8
0
  6
DASHED
 62
     3
 10
354.8808691130622
 20
247.14222240725181
 30
0.0
 11
353.79833711306208
 21
247.76722240725181
 31
0.0
  0
LINE
  5
2693
  8
0
  6
DASHED
 62
     3
 10
354.8808691130622
 20
255.14222240725181
 30
0.0
 11
353.79833711306208
 21
254.51722240725181
 31
0.0
  0
LINE
  5
2694
  8
0
  6
DASHED
 62
     3
 10
370.8808691130622
 20
179.22724291600309
 30
0.0
 11
335.88086911306232
 21
179.22724291600309
 31
0.0
  0
LINE
  5
2695
  8
0
  6
DASHED
 62
     3
 10
370.88086911306209
 20
180.22724291600309
 30
0.0
 11
338.8808691130622
 21
180.22724291600309
 31
0.0
  0
LINE
  5
2696
  8
0
  6
DASHED
 62
     3
 10
370.8808691130622
 20
165.22724291600329
 30
0.0
 11
335.88086911306209
 21
165.22724291600329
 31
0.0
  0
LINE
  5
2697
  8
0
  6
DASHED
 62
     3
 10
370.8808691130622
 20
164.22724291600329
 30
0.0
 11
338.8808691130622
 21
164.22724291600329
 31
0.0
  0
LINE
  5
2698
  8
CENTER
  6
CENTER
 62
     1
 10
373.6720086980485
 20
172.22724291600321
 30
0.0
 11
328.8836343522882
 21
172.22724291600321
 31
0.0
  0
LINE
  5
2699
  8
CENTER
  6
CENTER
 62
     1
 10
372.66132111306217
 20
273.28567674667079
 30
0.0
 11
351.7323441130622
 21
273.28567674667079
 31
0.0
  0
LINE
  5
269A
  8
CENTER
  6
CENTER
 62
     1
 10
373.67200911306207
 20
251.14222240725181
 30
0.0
 11
345.76670511306207
 21
251.14222240725181
 31
0.0
  0
LINE
  5
269B
  8
CENTER
  6
CENTER
 62
     1
 10
373.67200911306207
 20
227.24482985697961
 30
0.0
 11
343.26074111306218
 21
227.24482985697961
 31
0.0
  0
LINE
  5
269C
  8
CENTER
  6
CENTER
 62
     1
 10
373.67200911306207
 20
201.59349909585359
 30
0.0
 11
337.9296651130623
 21
201.59349909585359
 31
0.0
  0
LINE
  5
269D
  8
CENTER
  6
CENTER
 62
     1
 10
284.23597911306223
 20
379.99887559782121
 30
0.0
 11
372.88086911306198
 21
379.99887559782121
 31
0.0
  0
TEXT
  5
269E
  8
0
 10
77.098134881597375
 20
128.43843710123841
 30
0.0
 40
8.0
  1
SFRD 20-65-F20-B18-P6-N5
  0
TEXT
  5
269F
  8
0
 10
77.098134881597375
 20
98.438437101238435
 30
0.0
 40
8.0
  1
SFRD20
  0
TEXT
  5
26A0
  8
0
 10
258.31402940727969
 20
167.94062363569239
 30
0.0
 40
6.4000000000000012
  1
M16
  0
LINE
  5
26A1
  8
0
  6
DASHED
 62
     3
 10
350.8808691130622
 20
232.24482985697949
 30
0.0
 11
350.8808691130622
 21
222.24482985697961
 31
0.0
  0
LINE
  5
26A2
  8
0
  6
DASHED
 62
     3
 10
350.8808691130622
 20
222.24482985697961
 30
0.0
 11
349.58183111306221
 21
222.99482985697949
 31
0.0
  0
LINE
  5
26A3
  8
0
  6
CONTINUOUS
 62
     7
 10
300.88086810306231
 20
233.24482985697961
 30
0.0
 11
300.88086810306231
 21
221.24482985697961
 31
0.0
  0
LINE
  5
26A4
  8
0
 62
     7
 10
305.88086911306232
 20
233.5448298569795
 30
0.0
 11
305.88086911306232
 21
220.94482985697951
 31
0.0
  0
LINE
  5
26A5
  8
0
  6
CONTINUOUS
 62
     7
 10
286.75586810306231
 20
221.24482985697961
 30
0.0
 11
286.75586810306231
 21
233.24482985697961
 31
0.0
  0
LINE
  5
26A6
  8
0
 10
285.88086982043421
 20
232.36982885697961
 30
0.0
 11
285.88086982043421
 21
222.1198308569796
 31
0.0
  0
LINE
  5
26A7
  8
CENTER
  6
CENTER
 62
     1
 10
284.8675891030623
 20
172.22724291600321
 30
0.0
 11
308.05006189625129
 21
172.22724291600321
 31
0.0
  0
LINE
  5
26A8
  8
CENTER
  6
CENTER
 62
     1
 10
284.8675891030623
 20
201.59349909585359
 30
0.0
 11
308.05006189625129
 21
201.59349909585359
 31
0.0
  0
LINE
  5
26A9
  8
0
  6
CONTINUOUS
 62
     7
 10
300.88086810306231
 20
180.22724291600309
 30
0.0
 11
300.88086810306231
 21
164.22724291600329
 31
0.0
  0
LINE
  5
26AA
  8
0
  6
CONTINUOUS
 62
     7
 10
286.75586810306231
 20
164.22724291600329
 30
0.0
 11
286.75586810306231
 21
180.22724291600309
 31
0.0
  0
LINE
  5
26AB
  8
0
 10
285.88086982043421
 20
179.35224191600309
 30
0.0
 11
285.88086982043421
 21
165.10224391600329
 31
0.0
  0
LINE
  5
26AC
  8
0
 62
     7
 10
305.88086911306232
 20
180.52724291600319
 30
0.0
 11
305.88086911306232
 21
163.92724291600331
 31
0.0
  0
LINE
  5
26AD
  8
0
  6
CONTINUOUS
 62
     7
 10
286.75586810306231
 20
164.22724291600329
 30
0.0
 11
305.58086910306213
 21
164.22724291600329
 31
0.0
  0
LINE
  5
26AE
  8
0
  6
CONTINUOUS
 62
     3
 10
285.88086982043421
 20
165.10224391600329
 30
0.0
 11
300.88086810306231
 21
165.10224391600329
 31
0.0
  0
LINE
  5
26AF
  8
0
  6
CONTINUOUS
 62
     7
 10
285.88086982043421
 20
165.10224391600329
 30
0.0
 11
286.75586810306231
 21
164.2272440160032
 31
0.0
  0
LINE
  5
26B0
  8
0
  6
CONTINUOUS
 62
     3
 10
300.88086810306231
 20
165.10224291600329
 30
0.0
 11
301.75587101434729
 21
164.22724291600329
 31
0.0
  0
ARC
  5
26B1
  8
0
  6
CONTINUOUS
 62
     7
 10
305.58086910306213
 20
163.92724291600331
 30
0.0
 40
0.30000001
 50
0.0
 51
90.000003000000149
  0
LINE
  5
26B2
  8
0
  6
CONTINUOUS
 62
     7
 10
286.75586810306231
 20
180.22724291600309
 30
0.0
 11
305.58086910306213
 21
180.22724291600309
 31
0.0
  0
LINE
  5
26B3
  8
0
  6
CONTINUOUS
 62
     3
 10
285.88086982043421
 20
179.35224191600309
 30
0.0
 11
300.88086810306231
 21
179.35224191600309
 31
0.0
  0
LINE
  5
26B4
  8
0
  6
CONTINUOUS
 62
     7
 10
285.88086982043421
 20
179.35224191600309
 30
0.0
 11
286.75586810306231
 21
180.22724181600319
 31
0.0
  0
LINE
  5
26B5
  8
0
  6
CONTINUOUS
 62
     3
 10
300.88086810306231
 20
179.35224291600321
 30
0.0
 11
301.75587101434729
 21
180.22724291600309
 31
0.0
  0
ARC
  5
26B6
  8
0
  6
CONTINUOUS
 62
     7
 10
305.58086910306213
 20
180.52724291600319
 30
0.0
 40
0.30000001
 50
270.0
 51
0.0
  0
TEXT
  5
26B7
  8
0
 10
261.62670818656369
 20
198.9890117721018
 30
0.0
 40
6.4000000000000012
  1
M12
  0
LINE
  5
26B8
  8
0
 10
285.88086982043421
 20
208.7184980958537
 30
0.0
 11
285.88086982043421
 21
194.4685000958537
 31
0.0
  0
LINE
  5
26B9
  8
0
  6
CONTINUOUS
 62
     7
 10
286.75586810306231
 20
193.59349909585359
 30
0.0
 11
286.75586810306231
 21
209.5934990958537
 31
0.0
  0
LINE
  5
26BA
  8
0
 62
     7
 10
305.88086911306232
 20
209.89349909585371
 30
0.0
 11
305.88086911306232
 21
193.2934990958536
 31
0.0
  0
LINE
  5
26BB
  8
0
  6
CONTINUOUS
 62
     7
 10
300.88086810306231
 20
209.5934990958537
 30
0.0
 11
300.88086810306231
 21
193.59349909585359
 31
0.0
  0
LINE
  5
26BC
  8
0
  6
CONTINUOUS
 62
     3
 10
285.88086982043421
 20
194.4685000958537
 30
0.0
 11
300.88086810306231
 21
194.4685000958537
 31
0.0
  0
LINE
  5
26BD
  8
0
  6
CONTINUOUS
 62
     7
 10
286.75586810306231
 20
193.59349909585359
 30
0.0
 11
305.58086910306213
 21
193.59349909585359
 31
0.0
  0
LINE
  5
26BE
  8
0
  6
CONTINUOUS
 62
     7
 10
285.88086982043421
 20
194.4685000958537
 30
0.0
 11
286.75586810306231
 21
193.59350019585361
 31
0.0
  0
LINE
  5
26BF
  8
0
  6
CONTINUOUS
 62
     3
 10
300.88086810306231
 20
194.46849909585359
 30
0.0
 11
301.75587101434729
 21
193.59349909585359
 31
0.0
  0
ARC
  5
26C0
  8
0
  6
CONTINUOUS
 62
     7
 10
305.58086910306213
 20
193.2934990958536
 30
0.0
 40
0.30000001
 50
0.0
 51
90.000003000000149
  0
LINE
  5
26C1
  8
0
  6
CONTINUOUS
 62
     7
 10
286.75586810306231
 20
209.5934990958537
 30
0.0
 11
305.58086910306213
 21
209.5934990958537
 31
0.0
  0
LINE
  5
26C2
  8
0
  6
CONTINUOUS
 62
     3
 10
285.88086982043421
 20
208.7184980958537
 30
0.0
 11
300.88086810306231
 21
208.7184980958537
 31
0.0
  0
LINE
  5
26C3
  8
0
  6
CONTINUOUS
 62
     7
 10
286.75586810306231
 20
221.24482985697961
 30
0.0
 11
305.58086910306213
 21
221.24482985697961
 31
0.0
  0
LINE
  5
26C4
  8
0
  6
CONTINUOUS
 62
     3
 10
285.88086982043421
 20
222.1198308569796
 30
0.0
 11
300.88086810306231
 21
222.1198308569796
 31
0.0
  0
LINE
  5
26C5
  8
0
  6
CONTINUOUS
 62
     7
 10
285.88086982043421
 20
208.7184980958537
 30
0.0
 11
286.75586810306231
 21
209.59349799585371
 31
0.0
  0
LINE
  5
26C6
  8
0
  6
CONTINUOUS
 62
     7
 10
285.88086982043421
 20
222.1198308569796
 30
0.0
 11
286.75586810306231
 21
221.24483095697951
 31
0.0
  0
LINE
  5
26C7
  8
0
  6
CONTINUOUS
 62
     3
 10
300.88086810306231
 20
208.7184990958537
 30
0.0
 11
301.75587101434729
 21
209.5934990958537
 31
0.0
  0
ARC
  5
26C8
  8
0
  6
CONTINUOUS
 62
     7
 10
305.58086910306213
 20
209.89349909585371
 30
0.0
 40
0.30000001
 50
270.0
 51
0.0
  0
LINE
  5
26C9
  8
0
  6
CONTINUOUS
 62
     3
 10
300.88086810306231
 20
222.11982985697961
 30
0.0
 11
301.75587101434729
 21
221.24482985697961
 31
0.0
  0
ARC
  5
26CA
  8
0
  6
CONTINUOUS
 62
     7
 10
305.58086910306213
 20
220.94482985697951
 30
0.0
 40
0.30000001
 50
0.0
 51
90.000003000000149
  0
LINE
  5
26CB
  8
0
  6
DASHED
 62
     3
 10
335.88086911306232
 20
179.22724291600309
 30
0.0
 11
335.88086911306209
 21
165.22724291600329
 31
0.0
  0
LINE
  5
26CC
  8
0
  6
DASHED
 62
     3
 10
338.8808691130622
 20
180.22724291600309
 30
0.0
 11
338.8808691130622
 21
164.22724291600329
 31
0.0
  0
LINE
  5
26CD
  8
0
  6
DASHED
 62
     3
 10
335.88086911306232
 20
179.22724291600309
 30
0.0
 11
331.83941722873487
 21
172.22724291600321
 31
0.0
  0
LINE
  5
26CE
  8
0
  6
DASHED
 62
     3
 10
335.88086911306209
 20
165.22724291600329
 30
0.0
 11
331.83941722873487
 21
172.22724291600321
 31
0.0
  0
LINE
  5
26CF
  8
0
  6
DASHED
 62
     3
 10
338.8808691130622
 20
164.22724291600329
 30
0.0
 11
337.14881830549319
 21
165.22724291600329
 31
0.0
  0
LINE
  5
26D0
  8
0
  6
DASHED
 62
     3
 10
338.8808691130622
 20
180.22724291600309
 30
0.0
 11
337.14881830549302
 21
179.22724291600309
 31
0.0
  0
LINE
  5
26D1
  8
0
  6
DASHED
 62
     3
 10
343.88086911306209
 20
206.7184990958537
 30
0.0
 11
340.92194911306223
 21
201.59349909585359
 31
0.0
  0
LINE
  5
26D2
  8
0
  6
DASHED
 62
     3
 10
346.8808691130622
 20
207.5934990958537
 30
0.0
 11
346.8808691130622
 21
195.59349909585359
 31
0.0
  0
LINE
  5
26D3
  8
0
  6
DASHED
 62
     3
 10
343.88086911306209
 20
206.7184990958537
 30
0.0
 11
343.88086911306209
 21
196.46849909585359
 31
0.0
  0
LINE
  5
26D4
  8
0
  6
DASHED
 62
     3
 10
343.88086911306209
 20
196.46849909585359
 30
0.0
 11
340.92194911306223
 21
201.59349909585359
 31
0.0
  0
LINE
  5
26D5
  8
0
  6
DASHED
 62
     3
 10
346.8808691130622
 20
195.59349909585359
 30
0.0
 11
345.36532511306211
 21
196.46849909585359
 31
0.0
  0
LINE
  5
26D6
  8
0
  6
DASHED
 62
     3
 10
346.8808691130622
 20
207.5934990958537
 30
0.0
 11
345.36532511306211
 21
206.7184990958537
 31
0.0
  0
LINE
  5
26D7
  8
CENTER
  6
CENTER
 62
     1
 10
284.8675891030623
 20
227.24482985697961
 30
0.0
 11
308.05006189625129
 21
227.24482985697961
 31
0.0
  0
LINE
  5
26D8
  8
CENTER
  6
CENTER
 62
     1
 10
284.86708910306209
 20
251.14222240725181
 30
0.0
 11
308.05006189625129
 21
251.14222240725181
 31
0.0
  0
LINE
  5
26D9
  8
0
  6
CONTINUOUS
 62
     7
 10
286.63086810306231
 20
246.14222240725181
 30
0.0
 11
286.63086810306231
 21
256.14222240725172
 31
0.0
  0
LINE
  5
26DA
  8
0
  6
CONTINUOUS
 62
     7
 10
302.88086810306231
 20
256.14222240725172
 30
0.0
 11
302.88086810306231
 21
246.14222240725181
 31
0.0
  0
LINE
  5
26DB
  8
0
 62
     7
 10
305.8808691130622
 20
256.4422224072519
 30
0.0
 11
305.88086911306232
 21
245.8422224072518
 31
0.0
  0
LINE
  5
26DC
  8
0
  6
CONTINUOUS
 62
     7
 10
285.88087058937919
 20
255.39222240725181
 30
0.0
 11
286.63086810306231
 21
256.14222130725187
 31
0.0
  0
LINE
  5
26DD
  8
0
  6
CONTINUOUS
 62
     3
 10
302.88086810306231
 20
255.39222340725189
 30
0.0
 11
303.63086959844622
 21
256.14222240725172
 31
0.0
  0
TEXT
  5
26DE
  8
0
 10
261.62670818656329
 20
223.93734843464381
 30
0.0
 40
6.4000000000000012
  1
M10
  0
TEXT
  5
26DF
  8
0
 10
263.56571252504961
 20
247.8059241004982
 30
0.0
 40
6.4000000000000012
  1
M8
  0
LINE
  5
26E0
  8
0
  6
CONTINUOUS
 62
     7
 10
286.75586810306231
 20
233.24482985697961
 30
0.0
 11
305.58086910306213
 21
233.24482985697961
 31
0.0
  0
LINE
  5
26E1
  8
0
  6
CONTINUOUS
 62
     3
 10
285.88086982043421
 20
232.36982885697961
 30
0.0
 11
300.88086810306231
 21
232.36982885697961
 31
0.0
  0
LINE
  5
26E2
  8
0
  6
CONTINUOUS
 62
     7
 10
285.88086982043421
 20
232.36982885697961
 30
0.0
 11
286.75586810306231
 21
233.24482875697959
 31
0.0
  0
LINE
  5
26E3
  8
0
  6
CONTINUOUS
 62
     3
 10
300.88086810306231
 20
232.36982985697961
 30
0.0
 11
301.75587101434729
 21
233.24482985697961
 31
0.0
  0
ARC
  5
26E4
  8
0
  6
CONTINUOUS
 62
     7
 10
305.58086910306213
 20
233.5448298569795
 30
0.0
 40
0.30000001
 50
270.0
 51
0.0
  0
LINE
  5
26E5
  8
0
  6
CONTINUOUS
 62
     7
 10
286.63086810306231
 20
246.14222240725181
 30
0.0
 11
305.58086910306213
 21
246.14222240725181
 31
0.0
  0
LINE
  5
26E6
  8
0
  6
CONTINUOUS
 62
     3
 10
285.88087058937919
 20
246.89222240725181
 30
0.0
 11
302.88086810306231
 21
246.89222240725181
 31
0.0
  0
LINE
  5
26E7
  8
0
  6
CONTINUOUS
 62
     3
 10
285.88087058937919
 20
255.39222240725181
 30
0.0
 11
302.88086810306231
 21
255.39222240725181
 31
0.0
  0
LINE
  5
26E8
  8
0
 10
285.88087058937919
 20
255.39222240725181
 30
0.0
 11
285.88087058937919
 21
246.89222240725181
 31
0.0
  0
LINE
  5
26E9
  8
0
  6
CONTINUOUS
 62
     7
 10
285.88087058937919
 20
246.89222240725181
 30
0.0
 11
286.63086810306231
 21
246.14222350725191
 31
0.0
  0
LINE
  5
26EA
  8
0
  6
CONTINUOUS
 62
     3
 10
302.88086810306231
 20
246.89222140725181
 30
0.0
 11
303.63086959844622
 21
246.14222240725181
 31
0.0
  0
ARC
  5
26EB
  8
0
  6
CONTINUOUS
 62
     7
 10
305.58086910306213
 20
245.8422224072518
 30
0.0
 40
0.30000001
 50
0.0
 51
90.000003000000149
  0
LINE
  5
26EC
  8
0
  6
CONTINUOUS
 62
     7
 10
286.63086810306231
 20
256.14222240725172
 30
0.0
 11
305.58086910306213
 21
256.14222240725172
 31
0.0
  0
ARC
  5
26ED
  8
0
  6
CONTINUOUS
 62
     7
 10
305.58086910306213
 20
256.4422224072519
 30
0.0
 40
0.30000001
 50
270.0
 51
0.0
  0
LINE
  5
26EE
  8
0
  6
DASHED
 62
     3
 10
347.88086911306198
 20
231.49482985697961
 30
0.0
 11
345.42713111306227
 21
227.24482985697961
 31
0.0
  0
LINE
  5
26EF
  8
0
  6
DASHED
 62
     3
 10
347.88086911306198
 20
231.49482985697961
 30
0.0
 11
347.88086911306198
 21
222.99482985697949
 31
0.0
  0
LINE
  5
26F0
  8
0
  6
DASHED
 62
     3
 10
347.88086911306198
 20
222.99482985697949
 30
0.0
 11
345.42713111306227
 21
227.24482985697961
 31
0.0
  0
LINE
  5
26F1
  8
0
  6
DASHED
 62
     3
 10
350.8808691130622
 20
232.24482985697949
 30
0.0
 11
349.58183111306221
 21
231.49482985697961
 31
0.0
  0
LINE
  5
26F2
  8
0
  6
DASHED
 62
     3
 10
351.8808691130622
 20
247.76722240725181
 30
0.0
 11
349.93231211306221
 21
251.14222240725181
 31
0.0
  0
LINE
  5
26F3
  8
0
  6
DASHED
 62
     3
 10
351.8808691130622
 20
254.51722240725181
 30
0.0
 11
349.93231211306221
 21
251.14222240725181
 31
0.0
  0
LINE
  5
26F4
  8
0
  6
DASHED
 62
     3
 10
351.8808691130622
 20
254.51722240725181
 30
0.0
 11
351.8808691130622
 21
247.76722240725181
 31
0.0
  0
LINE
  5
26F5
  8
0
  6
CONTINUOUS
 62
     7
 10
305.88086911306232
 20
389.49887559782121
 30
0.0
 11
305.88086911306232
 21
370.49887559782098
 31
0.0
  0
LINE
  5
26F6
  8
0
  6
CONTINUOUS
 62
     7
 10
306.38086911306232
 20
389.99887559782121
 30
0.0
 11
306.38086911306232
 21
369.99887559782121
 31
0.0
  0
LINE
  5
26F7
  8
0
  6
CONTINUOUS
 62
     7
 10
305.8808691130622
 20
370.49887559782098
 30
0.0
 11
306.38086911306209
 21
369.99887559782098
 31
0.0
  0
LINE
  5
26F9
  8
0
  6
CONTINUOUS
 62
     3
 10
285.8808695099745
 20
382.49887549782119
 30
0.0
 11
303.88087000305183
 21
382.49887549782119
 31
0.0
  0
LINE
  5
26FA
  8
0
  6
CONTINUOUS
 62
     7
 10
286.38087000305171
 20
382.99887559782121
 30
0.0
 11
305.6808670130518
 21
382.99887559782098
 31
0.0
  0
LINE
  5
26FC
  8
0
 10
285.8808695099745
 20
382.49887549782119
 30
0.0
 11
285.88087162914923
 21
377.49887357865703
 31
0.0
  0
LINE
  5
26FD
  8
0
  6
CONTINUOUS
 62
     7
 10
286.38087211900728
 20
376.99887559782121
 30
0.0
 11
286.38087000305171
 21
382.99887559782121
 31
0.0
  0
LINE
  5
26FF
  8
0
  6
CONTINUOUS
 62
     7
 10
285.8808695099745
 20
382.49887549782119
 30
0.0
 11
286.38087000305171
 21
382.99887349782119
 31
0.0
  0
LINE
  5
2700
  8
0
  6
CONTINUOUS
 62
     7
 10
303.88087000305183
 20
382.99887559782121
 30
0.0
 11
303.88087211900751
 21
376.99887559782132
 31
0.0
  0
LINE
  5
2703
  8
0
  6
CONTINUOUS
 62
     3
 10
303.88087000305183
 20
382.49887339782123
 30
0.0
 11
304.38087580417482
 21
382.99887559782121
 31
0.0
  0
ARC
  5
2704
  8
0
  6
CONTINUOUS
 62
     7
 10
305.6808670130518
 20
383.1988755978212
 30
0.0
 40
0.2
 50
270.0
 51
359.9999999999992
  0
LINE
  5
2705
  8
0
  6
CONTINUOUS
 62
     7
 10
305.88086911306232
 20
389.49887559782121
 30
0.0
 11
306.38086911306232
 21
389.99887559782121
 31
0.0
  0
LINE
  5
2706
  8
0
  6
CONTINUOUS
 62
     7
 10
370.88086911306209
 20
232.24482985697949
 30
0.0
 11
370.88086911306209
 21
222.24482985697961
 31
0.0
  0
LINE
  5
2707
  8
0
  6
CONTINUOUS
 62
     7
 10
370.88086911306209
 20
180.22724291600309
 30
0.0
 11
370.8808691130622
 21
164.22724291600329
 31
0.0
  0
TEXT
  5
2708
  8
0
 10
380.45988476371002
 20
170.20319642873531
 30
0.0
 40
6.4000000000000012
  1
M16
  0
LINE
  5
2709
  8
0
  6
CONTINUOUS
 62
     7
 10
370.88086911306209
 20
207.5934990958537
 30
0.0
 11
370.8808691130622
 21
195.59349909585359
 31
0.0
  0
TEXT
  5
270A
  8
0
 10
380.45988476371002
 20
199.56945260858581
 30
0.0
 40
6.4000000000000012
  1
M12
  0
LINE
  5
270B
  8
0
  6
DASHED
 62
     3
 10
370.88086911306209
 20
247.14222240725181
 30
0.0
 11
354.8808691130622
 21
247.14222240725181
 31
0.0
  0
LINE
  5
270C
  8
0
  6
DASHED
 62
     3
 10
370.88086911306209
 20
255.14222240725181
 30
0.0
 11
354.8808691130622
 21
255.14222240725181
 31
0.0
  0
LINE
  5
270D
  8
0
  6
DASHED
 62
     3
 10
354.8808691130622
 20
255.14222240725181
 30
0.0
 11
354.8808691130622
 21
247.14222240725181
 31
0.0
  0
LINE
  5
270E
  8
0
  6
CONTINUOUS
 62
     7
 10
370.88086911306209
 20
255.14222240725181
 30
0.0
 11
370.88086911306209
 21
247.14222240725181
 31
0.0
  0
TEXT
  5
270F
  8
0
 10
380.45988476371002
 20
225.22078336971171
 30
0.0
 40
6.4000000000000012
  1
M10
  0
TEXT
  5
2710
  8
0
 10
380.45988476371002
 20
249.11817591998391
 30
0.0
 40
6.4000000000000012
  1
M8
  0
LINE
  5
2711
  8
0
  6
CONTINUOUS
 62
     7
 10
370.88086911306209
 20
276.28567674667067
 30
0.0
 11
370.88086911306209
 21
270.28567674667079
 31
0.0
  0
LINE
  5
2712
  8
0
  6
DASHED
 62
     3
 10
355.8808691130622
 20
270.78567674667079
 30
0.0
 11
354.43749311306232
 21
273.28567674667079
 31
0.0
  0
LINE
  5
2713
  8
0
  6
DASHED
 62
     3
 10
358.8808691130622
 20
276.28567674667067
 30
0.0
 11
358.8808691130622
 21
270.28567674667079
 31
0.0
  0
LINE
  5
2714
  8
0
  6
DASHED
 62
     3
 10
355.8808691130622
 20
275.78567674667079
 30
0.0
 11
355.8808691130622
 21
270.78567674667079
 31
0.0
  0
LINE
  5
2715
  8
0
  6
DASHED
 62
     3
 10
370.88086911306209
 20
270.78567674667079
 30
0.0
 11
355.8808691130622
 21
270.78567674667079
 31
0.0
  0
LINE
  5
2716
  8
0
  6
DASHED
 62
     3
 10
370.88086911306209
 20
270.28567674667079
 30
0.0
 11
358.8808691130622
 21
270.28567674667079
 31
0.0
  0
LINE
  5
2717
  8
0
  6
DASHED
 62
     3
 10
358.88088411306228
 20
270.28566774667058
 30
0.0
 11
358.01484311306228
 21
270.78567674667079
 31
0.0
  0
LINE
  5
2718
  8
0
  6
DASHED
 62
     3
 10
370.88086911306209
 20
275.78567674667079
 30
0.0
 11
355.8808691130622
 21
275.78567674667079
 31
0.0
  0
LINE
  5
2719
  8
0
  6
DASHED
 62
     3
 10
370.88086911306209
 20
276.28567674667067
 30
0.0
 11
358.8808691130622
 21
276.28567674667067
 31
0.0
  0
LINE
  5
271A
  8
0
  6
DASHED
 62
     3
 10
355.8808691130622
 20
275.78567674667079
 30
0.0
 11
354.43749311306232
 21
273.28567674667079
 31
0.0
  0
LINE
  5
271B
  8
0
  6
DASHED
 62
     3
 10
358.88088411306228
 20
276.28568474667082
 30
0.0
 11
358.01484311306228
 21
275.78567674667079
 31
0.0
  0
TEXT
  5
271C
  8
0
 10
380.45988476371002
 20
271.26163025940281
 30
0.0
 40
6.4000000000000012
  1
M6
  0
CIRCLE
  5
271D
  8
0
  6
CONTINUOUS
 62
     7
 10
445.2239242565654
 20
379.99887559782121
 30
0.0
 40
10.0
  0
CIRCLE
  5
271E
  8
0
  6
CONTINUOUS
 62
     3
 10
445.2239242565654
 20
379.99887559782121
 30
0.0
 40
2.5
  0
CIRCLE
  5
271F
  8
0
  6
CONTINUOUS
 62
     7
 10
445.2239242565654
 20
379.99887559782121
 30
0.0
 40
2.0999999999996808
  0
LINE
  5
2720
  8
CENTER
  6
CENTER
 62
     1
 10
433.2239242565654
 20
379.99887559782121
 30
0.0
 11
457.2239242565654
 21
379.99887559782121
 31
0.0
  0
LINE
  5
2721
  8
0
  6
CONTINUOUS
 62
     7
 10
370.88086911306209
 20
389.4988755978211
 30
0.0
 11
370.88086911306209
 21
370.49887559782121
 31
0.0
  0
LINE
  5
2722
  8
0
  6
CONTINUOUS
 62
     7
 10
370.3808691130622
 20
389.99887559782121
 30
0.0
 11
370.3808691130622
 21
369.99887559782121
 31
0.0
  0
LINE
  5
2723
  8
0
  6
CONTINUOUS
 62
     7
 10
370.88086911306209
 20
370.49887559782121
 30
0.0
 11
370.3808691130622
 21
369.99887559782121
 31
0.0
  0
LINE
  5
2724
  8
0
  6
DASHED
 62
     3
 10
370.88086911306209
 20
382.49887559782121
 30
0.0
 11
360.8808691130622
 21
382.49887559782121
 31
0.0
  0
LINE
  5
2725
  8
0
  6
DASHED
 62
     3
 10
370.88086911306209
 20
377.49887559782121
 30
0.0
 11
360.8808691130622
 21
377.49887559782121
 31
0.0
  0
LINE
  5
2726
  8
0
  6
DASHED
 62
     3
 10
370.88086911306209
 20
382.09887559782089
 30
0.0
 11
357.8808691130622
 21
382.09887559782089
 31
0.0
  0
LINE
  5
2727
  8
0
  6
DASHED
 62
     3
 10
370.88086911306209
 20
377.89887559782102
 30
0.0
 11
357.8808691130622
 21
377.89887559782102
 31
0.0
  0
LINE
  5
2728
  8
0
  6
DASHED
 62
     3
 10
357.8808691130622
 20
377.89887559782102
 30
0.0
 11
356.66843354776421
 21
379.99887559782121
 31
0.0
  0
LINE
  5
2729
  8
0
  6
DASHED
 62
     3
 10
357.8808691130622
 20
382.09887559782089
 30
0.0
 11
357.8808691130622
 21
377.89887559782102
 31
0.0
  0
LINE
  5
272A
  8
0
  6
DASHED
 62
     3
 10
360.8808691130622
 20
382.49887559782121
 30
0.0
 11
360.8808691130622
 21
377.49887559782121
 31
0.0
  0
LINE
  5
272B
  8
0
  6
DASHED
 62
     3
 10
360.88088377972878
 20
377.49886713001717
 30
0.0
 11
360.27465699041551
 21
377.84887233001717
 31
0.0
  0
LINE
  5
272C
  8
0
  6
DASHED
 62
     3
 10
357.8808691130622
 20
382.09887559782089
 30
0.0
 11
356.66843354776421
 21
379.99887559782121
 31
0.0
  0
LINE
  5
272D
  8
0
  6
DASHED
 62
     3
 10
360.880883779729
 20
382.49888406562491
 30
0.0
 11
360.27465699041551
 21
382.14887886562508
 31
0.0
  0
LINE
  5
272E
  8
0
 10
370.88086911306232
 20
379.99887559782132
 30
0.0
 11
370.88096911306229
 21
379.99887559782132
 31
0.0
  0
LINE
  5
272F
  8
0
 10
370.88086911306232
 20
384.74887559782132
 30
0.0
 11
370.88086911306232
 21
384.74897559782141
 31
0.0
  0
LINE
  5
2730
  8
0
  6
CONTINUOUS
 62
     7
 10
370.88086911306209
 20
389.4988755978211
 30
0.0
 11
370.3808691130622
 21
389.9988755978211
 31
0.0
  0
LINE
  5
2731
  8
CENTER
  6
CENTER
 62
     1
 10
445.2239242565654
 20
391.99887559782132
 30
0.0
 11
445.2239242565654
 21
367.99887559782138
 31
0.0
  0
ARC
  5
278D
  8
0
  6
CONTINUOUS
 62
     7
 10
305.6808670130518
 20
376.79887559782122
 30
0.0
 40
0.2
 50
0.0000000000008791
 51
90.000000000000028
  0
LINE
  5
278E
  8
0
  6
CONTINUOUS
 62
     3
 10
303.88087000305183
 20
377.49887779782119
 30
0.0
 11
304.38087580417482
 21
376.99887559782121
 31
0.0
  0
LINE
  5
278F
  8
0
  6
CONTINUOUS
 62
     7
 10
285.8808695099745
 20
377.49887569782129
 30
0.0
 11
286.38087000305171
 21
376.99887769782117
 31
0.0
  0
LINE
  5
2790
  8
0
  6
CONTINUOUS
 62
     7
 10
286.38087000305171
 20
376.99887559782121
 30
0.0
 11
305.6808670130518
 21
376.99887559782138
 31
0.0
  0
LINE
  5
2791
  8
0
  6
CONTINUOUS
 62
     3
 10
285.8808695099745
 20
377.49887569782129
 30
0.0
 11
303.88087000305183
 21
377.49887569782129
 31
0.0
  0
ENDSEC
  0
EOF
