  0
SECTION
  2
HEADER
  9
$ACADVER
  1
AC1009
  9
$INSBASE
 10
0.0
 20
0.0
 30
0.0
  9
$EXTMIN
 10
9.9836890576217456
 20
9.9911504029193452
 30
-0.0000000000112498
  9
$EXTMAX
 10
74.925247625360839
 20
76.881866789052594
 30
0.0000000000002956
  9
$LIMMIN
 10
0.0
 20
0.0
  9
$LIMMAX
 10
297.0
 20
210.0
  9
$ORTHOMODE
 70
     0
  9
$REGENMODE
 70
     1
  9
$FILLMODE
 70
     1
  9
$QTEXTMODE
 70
     0
  9
$MIRRTEXT
 70
     1
  9
$DRAGMODE
 70
     2
  9
$LTSCALE
 40
1.0
  9
$OSMODE
 70
    39
  9
$ATTMODE
 70
     1
  9
$TEXTSIZE
 40
6.4000000000000012
  9
$TRACEWID
 40
0.05
  9
$TEXTSTYLE
  7
STANDARD
  9
$CLAYER
  8
0
  9
$CELTYPE
  6
CONTINUOUS
  9
$CECOLOR
 62
     7
  9
$DIMSCALE
 40
1.0
  9
$DIMASZ
 40
3.0
  9
$DIMEXO
 40
1.0
  9
$DIMDLI
 40
0.0
  9
$DIMRND
 40
0.0
  9
$DIMDLE
 40
0.0
  9
$DIMEXE
 40
1.0
  9
$DIMTP
 40
0.0
  9
$DIMTM
 40
0.0
  9
$DIMTXT
 40
3.2000000000000002
  9
$DIMCEN
 40
0.0
  9
$DIMTSZ
 40
0.0
  9
$DIMTOL
 70
     0
  9
$DIMLIM
 70
     0
  9
$DIMTIH
 70
     0
  9
$DIMTOH
 70
     0
  9
$DIMSE1
 70
     0
  9
$DIMSE2
 70
     0
  9
$DIMTAD
 70
     1
  9
$DIMZIN
 70
     8
  9
$DIMBLK
  1

  9
$DIMASO
 70
     1
  9
$DIMSHO
 70
     1
  9
$DIMPOST
  1

  9
$DIMAPOST
  1

  9
$DIMALT
 70
     0
  9
$DIMALTD
 70
     2
  9
$DIMALTF
 40
0.04
  9
$DIMLFAC
 40
1.0
  9
$DIMTOFL
 70
     1
  9
$DIMTVP
 40
1.0
  9
$DIMTIX
 70
     1
  9
$DIMSOXD
 70
     0
  9
$DIMSAH
 70
     0
  9
$DIMBLK1
  1

  9
$DIMBLK2
  1

  9
$DIMSTYLE
  2
MISUMI
  9
$DIMCLRD
 70
     0
  9
$DIMCLRE
 70
     0
  9
$DIMCLRT
 70
     0
  9
$DIMTFAC
 40
0.6
  9
$DIMGAP
 40
1.0
  9
$LUNITS
 70
     2
  9
$LUPREC
 70
     4
  9
$SKETCHINC
 40
0.1
  9
$FILLETRAD
 40
0.0
  9
$AUNITS
 70
     0
  9
$AUPREC
 70
     0
  9
$MENU
  1
acad
  9
$ELEVATION
 40
0.0
  9
$PELEVATION
 40
0.0
  9
$THICKNESS
 40
0.0
  9
$LIMCHECK
 70
     0
  9
$BLIPMODE
 70
     0
  9
$CHAMFERA
 40
0.5
  9
$CHAMFERB
 40
0.5
  9
$SKPOLY
 70
     0
  9
$TDCREATE
 40
2451464.6006649309
  9
$TDUPDATE
 40
2454537.4130230909
  9
$TDINDWG
 40
0.1952577431
  9
$TDUSRTIMER
 40
0.1952559028
  9
$USRTIMER
 70
     1
  9
$ANGBASE
 50
0.0
  9
$ANGDIR
 70
     0
  9
$PDMODE
 70
     0
  9
$PDSIZE
 40
0.0
  9
$PLINEWID
 40
0.0
  9
$COORDS
 70
     1
  9
$SPLFRAME
 70
     0
  9
$SPLINETYPE
 70
     6
  9
$SPLINESEGS
 70
     8
  9
$ATTDIA
 70
     0
  9
$ATTREQ
 70
     1
  9
$HANDLING
 70
     1
  9
$HANDSEED
  5
F6B
  9
$SURFTAB1
 70
     6
  9
$SURFTAB2
 70
     6
  9
$SURFTYPE
 70
     6
  9
$SURFU
 70
     6
  9
$SURFV
 70
     6
  9
$UCSNAME
  2

  9
$UCSORG
 10
0.0
 20
0.0
 30
0.0
  9
$UCSXDIR
 10
1.0
 20
0.0
 30
0.0
  9
$UCSYDIR
 10
0.0
 20
1.0
 30
0.0
  9
$PUCSNAME
  2

  9
$PUCSORG
 10
0.0
 20
0.0
 30
0.0
  9
$PUCSXDIR
 10
1.0
 20
0.0
 30
0.0
  9
$PUCSYDIR
 10
0.0
 20
1.0
 30
0.0
  9
$USERI1
 70
     0
  9
$USERI2
 70
     0
  9
$USERI3
 70
     0
  9
$USERI4
 70
     0
  9
$USERI5
 70
     0
  9
$USERR1
 40
0.0
  9
$USERR2
 40
0.0
  9
$USERR3
 40
0.0
  9
$USERR4
 40
0.0
  9
$USERR5
 40
0.0
  9
$WORLDVIEW
 70
     1
  9
$SHADEDGE
 70
     3
  9
$SHADEDIF
 70
    70
  9
$TILEMODE
 70
     1
  9
$MAXACTVP
 70
    16
  9
$PLIMCHECK
 70
     0
  9
$PEXTMIN
 10
1.0000000000000000E+020
 20
1.0000000000000000E+020
 30
1.0000000000000000E+020
  9
$PEXTMAX
 10
-1.0000000000000000E+020
 20
-1.0000000000000000E+020
 30
-1.0000000000000000E+020
  9
$PLIMMIN
 10
0.0
 20
0.0
  9
$PLIMMAX
 10
12.0
 20
9.0
  9
$UNITMODE
 70
     0
  9
$VISRETAIN
 70
     0
  9
$PLINEGEN
 70
     0
  9
$PSLTSCALE
 70
     1
  0
ENDSEC
  0
SECTION
  2
TABLES
  0
TABLE
  2
VPORT
 70
     1
  0
VPORT
  2
*ACTIVE
 70
     0
 10
0.0
 20
0.0
 11
1.0
 21
1.0
 12
40.574467805820497
 22
42.748882261658117
 13
0.0
 23
0.0
 14
10.0
 24
10.0
 15
10.0
 25
10.0
 16
0.0
 26
0.0
 36
1.0
 17
0.0
 27
0.0
 37
0.0
 40
89.436034546321366
 41
1.2650602409638549
 42
50.0
 43
0.0
 44
0.0
 50
0.0
 51
0.0
 71
     0
 72
   100
 73
     1
 74
     0
 75
     0
 76
     0
 77
     0
 78
     0
  0
ENDTAB
  0
TABLE
  2
LTYPE
 70
     6
  0
LTYPE
  2
CONTINUOUS
 70
     0
  3
Solid line
 72
    65
 73
     0
 40
0.0
  0
LTYPE
  2
CENTER
 70
     0
  3
Center ____ _ ____ _ ____ _ ____ _ ____ _ ____
 72
    65
 73
     4
 40
2.0
 49
1.25
 49
-0.25
 49
0.25
 49
-0.25
  0
LTYPE
  2
PHANTOM
 70
     0
  3
Phantom ______  __  __  ______  __  __  ______
 72
    65
 73
     6
 40
2.5
 49
1.25
 49
-0.25
 49
0.25
 49
-0.25
 49
0.25
 49
-0.25
  0
LTYPE
  2
DASHED
 70
     0
  3
Dashed __ __ __ __ __ __ __ __ __ __ __ __ __ _
 72
    65
 73
     2
 40
0.75
 49
0.5
 49
-0.25
  0
ENDTAB
  0
TABLE
  2
LAYER
 70
     4
  0
LAYER
  2
0
 70
     0
 62
     7
  6
CONTINUOUS
  0
LAYER
  2
CENTER
 70
     0
 62
     1
  6
CENTER
  0
ENDTAB
  0
TABLE
  2
STYLE
 70
     2
  0
STYLE
  2
STANDARD
 70
     0
 40
0.0
 41
1.0
 50
0.0
 71
     0
 42
6.4000000000000012
  3
txt
  4

  0
ENDTAB
  0
TABLE
  2
VIEW
 70
     0
  0
ENDTAB
  0
TABLE
  2
UCS
 70
     0
  0
ENDTAB
  0
TABLE
  2
APPID
 70
     3
  0
APPID
  2
ACAD
 70
     0
  0
APPID
  2
ACAD_PSEXT
 70
     0
  0
APPID
  2
ACAD_EXEMPT_FROM_CAD_STANDARDS
 70
     0
  0
ENDTAB
  0
TABLE
  2
DIMSTYLE
 70
     4
  0
DIMSTYLE
  2
MISUMI
 70
     0
  3

  4

  5

  6

  7

 40
1.0
 41
3.0
 42
1.0
 43
0.0
 44
1.0
 45
0.0
 46
0.0
 47
0.0
 48
0.0
140
3.2000000000000002
141
0.0
142
0.0
143
0.04
144
1.0
145
1.0
146
0.6
147
1.0
 71
     0
 72
     0
 73
     0
 74
     0
 75
     0
 76
     0
 77
     1
 78
     8
170
     0
171
     2
172
     1
173
     0
174
     1
175
     0
176
     0
177
     0
178
     0
  0
ENDTAB
  0
ENDSEC
  0
SECTION
  2
BLOCKS
  0
BLOCK
  8
0
  2
$MODEL_SPACE
 70
     0
 10
0.0
 20
0.0
 30
0.0
  3
$MODEL_SPACE
  1

  0
ENDBLK
  5
E16
  8
0
  0
BLOCK
 67
     1
  8
0
  2
$PAPER_SPACE
 70
     0
 10
0.0
 20
0.0
 30
0.0
  3
$PAPER_SPACE
  1

  0
ENDBLK
  5
E12
 67
     1
  8
0
  0
BLOCK
  8
0
 62
     7
  2
*U7
 70
     1
 10
0.0
 20
0.0
 30
0.0
  3
*U7
  1

  0
TEXT
  5
F61
  8
0
  6
CONTINUOUS
 62
     0
 10
30.76176150208013
 20
56.744350906216852
 30
0.0
 40
2.5
  1
20
 50
90.0
  0
ENDBLK
  5
F63
  8
0
 62
     7
  0
BLOCK
  8
0
 62
     7
  2
*U8
 70
     1
 10
0.0
 20
0.0
 30
0.0
  3
*U8
  1

  0
TEXT
  5
F65
  8
0
  6
CONTINUOUS
 62
     0
 10
30.76176150208013
 20
56.744350906216773
 30
0.0
 40
2.5
  1
20
 50
90.0
  0
ENDBLK
  5
F67
  8
0
 62
     7
  0
ENDSEC
  0
SECTION
  2
ENTITIES
  0
TEXT
  5
CDD
  8
0
  6
CONTINUOUS
 62
     7
 10
10.0
 20
10.0
 30
0.0
 40
4.0
  1
BVGHS02
  0
LINE
  5
CDE
  8
0
  6
CONTINUOUS
 62
     7
 10
24.251706806582199
 20
45.919350906216962
 30
0.0
 11
21.5852068065821
 21
43.252850906216878
 31
0.0
  0
LINE
  5
CDF
  8
0
  6
CONTINUOUS
 62
     7
 10
24.251706806581989
 20
71.31935090621684
 30
0.0
 11
21.5852068065821
 21
73.985850906216925
 31
0.0
  0
LINE
  5
CE0
  8
CENTER
  6
CENTER
 62
     1
 10
10.010411806582191
 20
58.619350906216852
 30
0.0
 11
26.01022480658202
 21
58.619350906216852
 31
0.0
  0
LINE
  5
CE1
  8
CENTER
  6
CENTER
 62
     1
 10
23.416608806582168
 20
50.388350906216921
 30
0.0
 11
13.16271080658211
 21
50.388350906216921
 31
0.0
  0
LINE
  5
CE2
  8
0
  6
CONTINUOUS
 62
     7
 10
13.152706806582099
 20
51.888350906216942
 30
0.0
 11
24.251706806582199
 21
51.888350906216942
 31
0.0
  0
LINE
  5
CE3
  8
0
  6
CONTINUOUS
 62
     7
 10
13.352706806582191
 20
53.85685090621692
 30
0.0
 11
24.051706806582011
 21
53.85685090621692
 31
0.0
  0
LINE
  5
CE4
  8
0
  6
CONTINUOUS
 62
     7
 10
21.784706806582111
 20
49.388350906216942
 30
0.0
 11
24.113252806582089
 21
49.388350906216942
 31
0.0
  0
LINE
  5
CE5
  8
0
  6
CONTINUOUS
 62
     7
 10
22.384706806582081
 20
51.188350906216932
 30
0.0
 11
24.051706806582011
 21
51.188350906216932
 31
0.0
  0
LINE
  5
CE6
  8
0
  6
CONTINUOUS
 62
     7
 10
13.352706806582191
 20
63.381850906216961
 30
0.0
 11
24.051706806582011
 21
63.381850906216961
 31
0.0
  0
LINE
  5
CE7
  8
0
  6
CONTINUOUS
 62
     7
 10
13.152706806582099
 20
65.350350906216931
 30
0.0
 11
24.251706806582199
 21
65.350350906216931
 31
0.0
  0
LINE
  5
CE8
  8
CENTER
  6
CENTER
 62
     1
 10
23.416608806582168
 20
66.850350906216931
 30
0.0
 11
13.16271080658211
 21
66.850350906216931
 31
0.0
  0
LINE
  5
CE9
  8
0
  6
CONTINUOUS
 62
     7
 10
13.352706806582191
 20
63.381850906216961
 30
0.0
 11
24.051706806582011
 21
63.381850906216961
 31
0.0
  0
LINE
  5
CEA
  8
0
  6
CONTINUOUS
 62
     7
 10
22.384706806582081
 20
66.05035090621692
 30
0.0
 11
24.051706806582011
 21
66.05035090621692
 31
0.0
  0
LINE
  5
CEB
  8
0
  6
CONTINUOUS
 62
     7
 10
21.784706806582111
 20
67.850350906216931
 30
0.0
 11
24.113252806582089
 21
67.850350906216931
 31
0.0
  0
TEXT
  5
CEC
  8
0
  6
CONTINUOUS
 62
     7
 10
10.0
 20
18.242429753805371
 30
0.0
 40
4.0
  1
BVGHS 2
  0
LINE
  5
CED
  8
0
  6
CONTINUOUS
 62
     7
 10
13.152706806582099
 20
65.350350906216931
 30
0.0
 11
13.152706806582099
 21
51.888350906216942
 31
0.0
  0
LINE
  5
CEE
  8
0
  6
CONTINUOUS
 62
     7
 10
13.352706806582191
 20
53.85685090621692
 30
0.0
 11
13.352706806582191
 21
63.381850906216961
 31
0.0
  0
LINE
  5
CEF
  8
0
  6
CONTINUOUS
 62
     7
 10
13.152706806582099
 20
65.350350906216931
 30
0.0
 11
13.152706806582099
 21
51.888350906216942
 31
0.0
  0
LINE
  5
CF0
  8
CENTER
  6
CENTER
 62
     1
 10
18.70220680658198
 20
73.845519906216936
 30
0.0
 11
18.70220680658198
 21
43.895564906216883
 31
0.0
  0
LINE
  5
CF1
  8
0
  6
CONTINUOUS
 62
     7
 10
18.002206806582048
 20
45.206850906216779
 30
0.0
 11
16.048206806582169
 21
43.252850906216878
 31
0.0
  0
LINE
  5
CF2
  8
0
  6
CONTINUOUS
 62
     7
 10
19.402206806582051
 20
45.20685090621685
 30
0.0
 11
21.356206806582001
 21
43.252850906216878
 31
0.0
  0
LINE
  5
CF3
  8
0
  6
CONTINUOUS
 62
     7
 10
13.152706806582099
 20
45.91935090621692
 30
0.0
 11
15.819206806582191
 21
43.252850906216878
 31
0.0
  0
LINE
  5
CF4
  8
0
  6
CONTINUOUS
 62
     7
 10
16.048206806582169
 20
43.252850906216878
 30
0.0
 11
15.819206806582191
 21
43.252850906216878
 31
0.0
  0
LINE
  5
CF5
  8
0
  6
CONTINUOUS
 62
     7
 10
21.356206806582001
 20
43.252850906216878
 30
0.0
 11
21.5852068065821
 21
43.252850906216878
 31
0.0
  0
LINE
  5
CF6
  8
CENTER
  6
CENTER
 62
     1
 10
14.91937096909961
 20
51.762837970056069
 30
0.0
 11
16.43448417074719
 21
48.789260883473112
 31
0.0
  0
CIRCLE
  5
CF7
  8
0
  6
CONTINUOUS
 62
     7
 10
15.61970680658219
 20
50.388350906216921
 30
0.0
 40
1.0
  0
LINE
  5
CF8
  8
0
  6
CONTINUOUS
 62
     7
 10
13.29116180658221
 20
49.388350906216942
 30
0.0
 11
15.61970680658219
 21
49.388350906216942
 31
0.0
  0
LINE
  5
CF9
  8
0
  6
CONTINUOUS
 62
     7
 10
13.252706806582211
 20
51.188350906216932
 30
0.0
 11
13.252706806582211
 21
51.888350906216942
 31
0.0
  0
LINE
  5
CFA
  8
0
  6
CONTINUOUS
 62
     7
 10
13.352706806582191
 20
51.188350906216932
 30
0.0
 11
13.352706806582191
 21
51.888350906216942
 31
0.0
  0
LINE
  5
CFB
  8
0
  6
CONTINUOUS
 62
     7
 10
13.152706806582099
 20
48.619350906216852
 30
0.0
 11
13.152706806582099
 21
45.91935090621692
 31
0.0
  0
ARC
  5
CFC
  8
0
  6
CONTINUOUS
 62
     7
 10
18.8015958065821
 20
50.100989906216917
 30
0.0
 40
5.556324
 50
168.71450400000001
 51
191.28549599999991
  0
ARC
  5
CFD
  8
0
  6
CONTINUOUS
 62
     7
 10
18.70159580658213
 20
50.100989906216917
 30
0.0
 40
5.556324
 50
168.71450400000001
 51
191.28549599999991
  0
LINE
  5
CFF
  8
0
  6
CONTINUOUS
 62
     7
 10
13.352706806582191
 20
51.188350906216932
 30
0.0
 11
15.019706806582191
 21
51.188350906216932
 31
0.0
  0
LINE
  5
D00
  8
0
  6
CONTINUOUS
 62
     7
 10
13.352706806582191
 20
53.85685090621692
 30
0.0
 11
13.152706806582099
 21
53.656850906216938
 31
0.0
  0
LINE
  5
D01
  8
CENTER
  6
CENTER
 62
     1
 10
22.485042644064482
 20
51.762837970056069
 30
0.0
 11
20.969929442416891
 21
48.789260883473112
 31
0.0
  0
CIRCLE
  5
D02
  8
0
  6
CONTINUOUS
 62
     7
 10
21.784706806582111
 20
50.388350906216921
 30
0.0
 40
1.0
  0
LINE
  5
D03
  8
CENTER
  6
CENTER
 62
     1
 10
16.896754253834899
 20
45.919850906216929
 30
0.0
 11
20.50765935932921
 21
45.919850906216929
 31
0.0
  0
LINE
  5
D04
  8
0
  6
CONTINUOUS
 62
     7
 10
16.536222806581971
 20
49.988350906216922
 30
0.0
 11
20.868191806582089
 21
49.988350906216922
 31
0.0
  0
LINE
  5
D05
  8
0
  6
CONTINUOUS
 62
     7
 10
16.219706806582089
 20
49.588350906216917
 30
0.0
 11
21.184706806582192
 21
49.588350906216917
 31
0.0
  0
LINE
  5
D06
  8
0
  6
CONTINUOUS
 62
     7
 10
18.852206806581961
 20
50.188350906216918
 30
0.0
 11
20.804911806582179
 21
50.188350906216918
 31
0.0
  0
LINE
  5
D07
  8
0
  6
CONTINUOUS
 62
     7
 10
18.852206806581961
 20
51.188350906216932
 30
0.0
 11
21.184706806582192
 21
51.188350906216932
 31
0.0
  0
LINE
  5
D0B
  8
0
  6
CONTINUOUS
 62
     7
 10
18.552206806582191
 20
51.188350906216932
 30
0.0
 11
18.552206806582191
 21
50.188350906216918
 31
0.0
  0
LINE
  5
D0C
  8
0
  6
CONTINUOUS
 62
     7
 10
16.599502806582102
 20
50.188350906216918
 30
0.0
 11
18.552206806582191
 21
50.188350906216918
 31
0.0
  0
LINE
  5
D0D
  8
0
  6
CONTINUOUS
 62
     7
 10
16.219706806582089
 20
51.188350906216932
 30
0.0
 11
18.552206806582191
 21
51.188350906216932
 31
0.0
  0
LINE
  5
D0E
  8
0
  6
CONTINUOUS
 62
     7
 10
18.852206806581961
 20
51.188350906216932
 30
0.0
 11
18.852206806581961
 21
50.188350906216918
 31
0.0
  0
LINE
  5
D0F
  8
0
  6
CONTINUOUS
 62
     7
 10
15.61970680658219
 20
51.388350906216928
 30
0.0
 11
21.784706806582111
 21
51.388350906216928
 31
0.0
  0
LINE
  5
D10
  8
0
  6
CONTINUOUS
 62
     7
 10
13.152706806582099
 20
71.31935090621684
 30
0.0
 11
13.152706806582099
 21
68.619350906216852
 31
0.0
  0
LINE
  5
D11
  8
CENTER
  6
CENTER
 62
     1
 10
14.91937096909961
 20
65.475863842377535
 30
0.0
 11
16.43448417074719
 21
68.449440928960485
 31
0.0
  0
CIRCLE
  5
D12
  8
0
  6
CONTINUOUS
 62
     7
 10
15.61970680658219
 20
66.850350906216931
 30
0.0
 40
1.0
  0
LINE
  5
D13
  8
0
  6
CONTINUOUS
 62
     7
 10
13.29116180658221
 20
67.850350906216931
 30
0.0
 11
15.61970680658219
 21
67.850350906216931
 31
0.0
  0
ARC
  5
D14
  8
0
  6
CONTINUOUS
 62
     7
 10
18.70159580658213
 20
67.137712906216748
 30
0.0
 40
5.556324
 50
168.71450400000001
 51
191.28549599999991
  0
ARC
  5
D15
  8
0
  6
CONTINUOUS
 62
     7
 10
18.8015958065821
 20
67.137712906216748
 30
0.0
 40
5.556324
 50
168.71450400000001
 51
191.28549599999991
  0
LINE
  5
D16
  8
0
  6
CONTINUOUS
 62
     7
 10
13.352706806582191
 20
63.381850906216961
 30
0.0
 11
13.152706806582099
 21
63.58185090621685
 31
0.0
  0
LINE
  5
D17
  8
0
  6
CONTINUOUS
 62
     7
 10
13.352706806582191
 20
66.05035090621692
 30
0.0
 11
13.352706806582191
 21
65.350350906216931
 31
0.0
  0
LINE
  5
D18
  8
0
  6
CONTINUOUS
 62
     7
 10
13.252706806582211
 20
66.05035090621692
 30
0.0
 11
13.252706806582211
 21
65.350350906216931
 31
0.0
  0
LINE
  5
D19
  8
0
  6
CONTINUOUS
 62
     7
 10
13.352706806582191
 20
66.05035090621692
 30
0.0
 11
15.019706806582191
 21
66.05035090621692
 31
0.0
  0
LINE
  5
D1B
  8
0
  6
CONTINUOUS
 62
     7
 10
15.61970680658219
 20
65.850350906216931
 30
0.0
 11
21.784706806582111
 21
65.850350906216931
 31
0.0
  0
LINE
  5
D1C
  8
0
  6
CONTINUOUS
 62
     7
 10
16.536222806581971
 20
67.250350906216937
 30
0.0
 11
20.868191806582089
 21
67.250350906216937
 31
0.0
  0
LINE
  5
D1D
  8
0
  6
CONTINUOUS
 62
     7
 10
16.219706806582089
 20
67.650350906216943
 30
0.0
 11
21.184706806582192
 21
67.650350906216943
 31
0.0
  0
LINE
  5
D1E
  8
0
  6
CONTINUOUS
 62
     7
 10
18.852206806581961
 20
67.05035090621692
 30
0.0
 11
20.804911806582179
 21
67.05035090621692
 31
0.0
  0
LINE
  5
D1F
  8
0
  6
CONTINUOUS
 62
     7
 10
18.852206806581961
 20
66.05035090621692
 30
0.0
 11
21.184706806582192
 21
66.05035090621692
 31
0.0
  0
LINE
  5
D20
  8
0
  6
CONTINUOUS
 62
     7
 10
16.599502806582102
 20
67.05035090621692
 30
0.0
 11
18.552206806582191
 21
67.05035090621692
 31
0.0
  0
LINE
  5
D21
  8
0
  6
CONTINUOUS
 62
     7
 10
18.552206806582191
 20
66.05035090621692
 30
0.0
 11
18.552206806582191
 21
67.05035090621692
 31
0.0
  0
LINE
  5
D22
  8
0
  6
CONTINUOUS
 62
     7
 10
16.219706806582089
 20
66.05035090621692
 30
0.0
 11
18.552206806582191
 21
66.05035090621692
 31
0.0
  0
LINE
  5
D23
  8
0
  6
CONTINUOUS
 62
     7
 10
18.70220680658198
 20
66.35803090621684
 30
0.0
 11
18.70220680658198
 21
66.358130906216729
 31
0.0
  0
LINE
  5
D24
  8
0
  6
CONTINUOUS
 62
     7
 10
18.852206806581961
 20
66.05035090621692
 30
0.0
 11
18.852206806581961
 21
67.05035090621692
 31
0.0
  0
LINE
  5
D25
  8
CENTER
  6
CENTER
 62
     1
 10
22.485042644064482
 20
65.475863842377535
 30
0.0
 11
20.969929442416891
 21
68.449440928960485
 31
0.0
  0
CIRCLE
  5
D26
  8
0
  6
CONTINUOUS
 62
     7
 10
21.784706806582111
 20
66.850350906216931
 30
0.0
 40
1.0
  0
LINE
  5
D27
  8
0
  6
CONTINUOUS
 62
     7
 10
13.152706806582099
 20
71.31935090621684
 30
0.0
 11
15.819206806582191
 21
73.985850906216925
 31
0.0
  0
LINE
  5
D28
  8
CENTER
  6
CENTER
 62
     1
 10
16.896754253834899
 20
71.318850906216809
 30
0.0
 11
20.50765935932921
 21
71.318850906216809
 31
0.0
  0
LINE
  5
D29
  8
0
  6
CONTINUOUS
 62
     7
 10
19.402206806582061
 20
72.031850906216931
 30
0.0
 11
21.356206806582001
 21
73.985850906216925
 31
0.0
  0
LINE
  5
D2C
  8
0
  6
CONTINUOUS
 62
     7
 10
18.002206806582048
 20
72.031850906216974
 30
0.0
 11
16.048206806582169
 21
73.985850906216925
 31
0.0
  0
LINE
  5
D2D
  8
0
  6
CONTINUOUS
 62
     7
 10
16.048206806582169
 20
73.985850906216925
 30
0.0
 11
15.819206806582191
 21
73.985850906216925
 31
0.0
  0
LINE
  5
D2F
  8
0
  6
CONTINUOUS
 62
     7
 10
21.356206806582001
 20
73.985850906216925
 30
0.0
 11
21.5852068065821
 21
73.985850906216925
 31
0.0
  0
LINE
  5
D30
  8
0
  6
CONTINUOUS
 62
     7
 10
65.447270806582196
 20
43.252850906216878
 30
0.0
 11
65.447270806582196
 21
73.985850906216811
 31
0.0
  0
LINE
  5
D31
  8
0
  6
CONTINUOUS
 62
     7
 10
65.67627080658221
 20
43.252850906216878
 30
0.0
 11
65.67627080658221
 21
73.985850906216811
 31
0.0
  0
LINE
  5
D32
  8
0
  6
CONTINUOUS
 62
     7
 10
62.780770806582211
 20
71.31935090621684
 30
0.0
 11
62.780770806582211
 21
45.91935090621692
 31
0.0
  0
LINE
  5
D33
  8
0
  6
CONTINUOUS
 62
     7
 10
67.949313674869103
 20
45.525893774503757
 30
0.0
 11
67.949313674869018
 21
71.712808037930046
 31
0.0
  0
LINE
  5
D34
  8
0
  6
CONTINUOUS
 62
     7
 10
68.711227938295352
 20
45.525893774503757
 30
0.0
 11
68.711227938295352
 21
71.712808037930046
 31
0.0
  0
LINE
  5
D35
  8
0
  6
CONTINUOUS
 62
     7
 10
24.251706806582199
 20
65.350350906216931
 30
0.0
 11
24.251706806582199
 21
51.888350906216942
 31
0.0
  0
LINE
  5
D36
  8
0
  6
CONTINUOUS
 62
     7
 10
24.051706806582011
 20
53.85685090621692
 30
0.0
 11
24.051706806582011
 21
63.381850906216961
 31
0.0
  0
LINE
  5
D37
  8
0
  6
CONTINUOUS
 62
     7
 10
70.984270806582003
 20
43.252850906216878
 30
0.0
 11
70.984270806582003
 21
73.985850906216811
 31
0.0
  0
LINE
  5
D38
  8
0
  6
CONTINUOUS
 62
     7
 10
71.21327080658213
 20
43.252850906216878
 30
0.0
 11
71.21327080658213
 21
73.985850906216811
 31
0.0
  0
LINE
  5
D39
  8
0
  6
CONTINUOUS
 62
     7
 10
73.879770806582002
 20
71.31935090621684
 30
0.0
 11
73.879770806582002
 21
45.91935090621692
 31
0.0
  0
LINE
  5
D3A
  8
CENTER
  6
CENTER
 62
     1
 10
68.330270806582206
 20
76.86885090621692
 30
0.0
 11
68.330270806582206
 21
39.119564906216901
 31
0.0
  0
LINE
  5
D3B
  8
0
  6
CONTINUOUS
 62
     7
 10
24.051706806582011
 20
51.188350906216932
 30
0.0
 11
24.051706806582011
 21
51.888350906216942
 31
0.0
  0
LINE
  5
D3C
  8
0
  6
CONTINUOUS
 62
     7
 10
24.151706806582212
 20
51.888350906216942
 30
0.0
 11
24.151706806582212
 21
51.188350906216932
 31
0.0
  0
LINE
  5
D3D
  8
0
  6
CONTINUOUS
 62
     7
 10
24.251706806582199
 20
48.619350906216852
 30
0.0
 11
24.251706806582199
 21
45.919350906216962
 31
0.0
  0
ARC
  5
D3E
  8
0
  6
CONTINUOUS
 62
     7
 10
18.602818806582189
 20
50.100989906216917
 30
0.0
 40
5.556324
 50
348.71450399999992
 51
11.285496
  0
ARC
  5
D3F
  8
0
  6
CONTINUOUS
 62
     7
 10
18.70281880658219
 20
50.100989906216917
 30
0.0
 40
5.556324
 50
348.71450399999992
 51
11.285496
  0
LINE
  5
D41
  8
0
  6
CONTINUOUS
 62
     7
 10
24.051706806582011
 20
53.85685090621692
 30
0.0
 11
24.251706806582199
 21
53.656850906216938
 31
0.0
  0
LINE
  5
D42
  8
0
  6
CONTINUOUS
 62
     7
 10
73.879770806582002
 20
45.91935090621692
 30
0.0
 11
71.21327080658213
 21
43.252850906216878
 31
0.0
  0
LINE
  5
D43
  8
CENTER
  6
CENTER
 62
     1
 10
60.9225258065822
 20
40.383350906216883
 30
0.0
 11
74.910051806582203
 21
40.383350906216883
 31
0.0
  0
LINE
  5
D44
  8
CENTER
  6
CENTER
 62
     1
 10
60.9225258065822
 20
43.252850906216878
 30
0.0
 11
74.910051806582203
 21
43.252850906216878
 31
0.0
  0
LINE
  5
D45
  8
0
  6
CONTINUOUS
 62
     7
 10
68.711227938295352
 20
45.525893774503729
 30
0.0
 11
70.984270806582003
 21
43.252850906216878
 31
0.0
  0
LINE
  5
D46
  8
0
  6
CONTINUOUS
 62
     7
 10
67.949313674869018
 20
45.525893774503729
 30
0.0
 11
65.67627080658221
 21
43.252850906216878
 31
0.0
  0
LINE
  5
D47
  8
0
  6
CONTINUOUS
 62
     7
 10
62.780770806582211
 20
45.91935090621692
 30
0.0
 11
65.447270806582111
 21
43.252850906216878
 31
0.0
  0
LINE
  5
D48
  8
0
  6
PHANTOM
 62
     3
 10
71.003216321377195
 20
43.042796421011992
 30
0.0
 11
68.330270806582206
 21
40.369850906216961
 31
0.0
  0
LINE
  5
D49
  8
0
  6
PHANTOM
 62
     3
 10
65.733272331022604
 20
42.96684938177647
 30
0.0
 11
68.330270806582206
 21
40.369850906216911
 31
0.0
  0
LINE
  5
D4A
  8
0
  6
CONTINUOUS
 62
     7
 10
65.67627080658221
 20
43.252850906216878
 30
0.0
 11
65.447270806582196
 21
43.252850906216878
 31
0.0
  0
LINE
  5
D4B
  8
0
  6
CONTINUOUS
 62
     7
 10
70.984270806582003
 20
43.252850906216878
 30
0.0
 11
71.21327080658213
 21
43.252850906216878
 31
0.0
  0
LINE
  5
D4D
  8
0
  6
CONTINUOUS
 62
     7
 10
24.251706806581989
 20
71.31935090621684
 30
0.0
 11
24.251706806582199
 21
68.619350906216852
 31
0.0
  0
ARC
  5
D4E
  8
0
  6
CONTINUOUS
 62
     7
 10
18.602818806582189
 20
67.137712906216748
 30
0.0
 40
5.556324
 50
348.71450399999992
 51
11.285496
  0
ARC
  5
D4F
  8
0
  6
CONTINUOUS
 62
     7
 10
18.70281880658219
 20
67.137712906216748
 30
0.0
 40
5.556324
 50
348.71450399999992
 51
11.285496
  0
LINE
  5
D50
  8
0
  6
CONTINUOUS
 62
     7
 10
24.051706806582011
 20
63.381850906216961
 30
0.0
 11
24.251706806582199
 21
63.58185090621685
 31
0.0
  0
LINE
  5
D51
  8
0
  6
CONTINUOUS
 62
     7
 10
24.051706806582011
 20
66.05035090621692
 30
0.0
 11
24.051706806582011
 21
65.350350906216931
 31
0.0
  0
LINE
  5
D52
  8
0
  6
CONTINUOUS
 62
     7
 10
24.151706806582212
 20
65.350350906216931
 30
0.0
 11
24.151706806582212
 21
66.05035090621692
 31
0.0
  0
LINE
  5
D53
  8
0
  6
CONTINUOUS
 62
     7
 10
24.051706806582011
 20
68.619350906216852
 30
0.0
 11
24.251706806582199
 21
68.619350906216852
 31
0.0
  0
LINE
  5
D54
  8
CENTER
  6
CENTER
 62
     1
 10
60.9225258065822
 20
73.985850906216811
 30
0.0
 11
74.910051806582203
 21
73.985850906216811
 31
0.0
  0
LINE
  5
D55
  8
CENTER
  6
CENTER
 62
     1
 10
60.9225258065822
 20
58.619350906216852
 30
0.0
 11
74.910051806582203
 21
58.619350906216852
 31
0.0
  0
LINE
  5
D56
  8
0
  6
CONTINUOUS
 62
     7
 10
73.879770806582002
 20
71.31935090621684
 30
0.0
 11
71.21327080658213
 21
73.985850906216925
 31
0.0
  0
LINE
  5
D57
  8
0
  6
CONTINUOUS
 62
     7
 10
62.780770806582211
 20
71.31935090621684
 30
0.0
 11
65.447270806582196
 21
73.985850906216925
 31
0.0
  0
LINE
  5
D59
  8
0
  6
CONTINUOUS
 62
     7
 10
65.67627080658221
 20
73.985850906216925
 30
0.0
 11
65.447270806582196
 21
73.985850906216925
 31
0.0
  0
LINE
  5
D5A
  8
0
  6
CONTINUOUS
 62
     7
 10
67.949313674869018
 20
71.712808037930046
 30
0.0
 11
65.67627080658221
 21
73.985850906216925
 31
0.0
  0
LINE
  5
D5B
  8
0
  6
CONTINUOUS
 62
     7
 10
68.711227938295352
 20
71.712808037930046
 30
0.0
 11
70.984270806582003
 21
73.985850906216925
 31
0.0
  0
LINE
  5
D5C
  8
0
  6
CONTINUOUS
 62
     7
 10
70.984270806582003
 20
73.985850906216925
 30
0.0
 11
71.21327080658213
 21
73.985850906216925
 31
0.0
  0
ARC
  5
DA9
  8
0
  6
CONTINUOUS
 62
     7
 10
18.702206806582051
 20
71.318850906216809
 30
0.0
 40
0.7
 50
180.0
 51
0.0
  0
LINE
  5
DAA
  8
0
  6
CONTINUOUS
 62
     7
 10
18.002206806582048
 20
72.031850906216974
 30
0.0
 11
18.002206806582048
 21
71.318850906216809
 31
0.0
  0
LINE
  5
DAB
  8
0
  6
CONTINUOUS
 62
     7
 10
19.402206806582051
 20
72.031850906216931
 30
0.0
 11
19.402206806582051
 21
71.318850906216809
 31
0.0
  0
ARC
  5
DAC
  8
0
  6
CONTINUOUS
 62
     7
 10
18.702206806582051
 20
45.919850906216887
 30
0.0
 40
0.7
 50
0.0
 51
180.0
  0
LINE
  5
DAD
  8
0
  6
CONTINUOUS
 62
     7
 10
18.002206806582048
 20
45.206850906216708
 30
0.0
 11
18.002206806582048
 21
45.919850906216887
 31
0.0
  0
LINE
  5
DAE
  8
0
  6
CONTINUOUS
 62
     7
 10
19.402206806582051
 20
45.206850906216779
 30
0.0
 11
19.402206806582051
 21
45.919850906216887
 31
0.0
  0
ARC
  5
DB1
  8
0
  6
CONTINUOUS
 62
     7
 10
68.330270806582277
 20
71.318850906216809
 30
0.0
 40
0.7
 50
237.02831718952899
 51
302.97168281045259
  0
ARC
  5
DB2
  8
0
  6
CONTINUOUS
 62
     7
 10
68.330270806582277
 20
45.919850906216887
 30
0.0
 40
0.7
 50
57.028317189547053
 51
122.9716828104626
  0
LINE
  5
F30
  8
0
  6
CONTINUOUS
 62
     7
 10
24.05170700052874
 20
68.225073859555579
 30
0.0
 11
24.05170700052874
 21
68.619350906216852
 31
0.0
  0
LINE
  5
F31
  8
0
  6
CONTINUOUS
 62
     7
 10
24.151707000528742
 20
68.225073859555579
 30
0.0
 11
24.151707000528742
 21
68.619350906216852
 31
0.0
  0
LINE
  5
F39
  8
0
  6
CONTINUOUS
 62
     7
 10
13.3527068065821
 20
68.619350906216852
 30
0.0
 11
13.152706806581911
 21
68.619350906216852
 31
0.0
  0
LINE
  5
F3A
  8
0
  6
CONTINUOUS
 62
     7
 10
13.35270661263537
 20
68.225073859555579
 30
0.0
 11
13.35270661263537
 21
68.619350906216852
 31
0.0
  0
LINE
  5
F3B
  8
0
  6
CONTINUOUS
 62
     7
 10
13.25270661263537
 20
68.225073859555579
 30
0.0
 11
13.25270661263537
 21
68.619350906216852
 31
0.0
  0
LINE
  5
F3C
  8
0
  6
CONTINUOUS
 62
     7
 10
24.051706806582011
 20
48.619350906216852
 30
0.0
 11
24.251706806582199
 21
48.619350906216852
 31
0.0
  0
LINE
  5
F3D
  8
0
  6
CONTINUOUS
 62
     7
 10
24.05170700052874
 20
49.013627952878132
 30
0.0
 11
24.05170700052874
 21
48.619350906216852
 31
0.0
  0
LINE
  5
F3E
  8
0
  6
CONTINUOUS
 62
     7
 10
24.151707000528742
 20
49.013627952878132
 30
0.0
 11
24.151707000528742
 21
48.619350906216852
 31
0.0
  0
LINE
  5
F3F
  8
0
  6
CONTINUOUS
 62
     7
 10
13.3527068065821
 20
48.619350906216852
 30
0.0
 11
13.152706806581911
 21
48.619350906216852
 31
0.0
  0
LINE
  5
F40
  8
0
  6
CONTINUOUS
 62
     7
 10
13.35270661263537
 20
49.013627952878132
 30
0.0
 11
13.35270661263537
 21
48.619350906216852
 31
0.0
  0
LINE
  5
F41
  8
0
  6
CONTINUOUS
 62
     7
 10
13.25270661263537
 20
49.013627952878132
 30
0.0
 11
13.25270661263537
 21
48.619350906216852
 31
0.0
  0
ENDSEC
  0
EOF
