  0
SECTION
  2
HEADER
  9
$ACADVER
  1
AC1009
  9
$INSBASE
 10
0.0
 20
0.0
 30
0.0
  9
$EXTMIN
 10
37.493418427667571
 20
183.0030234549593
 30
0.0
  9
$EXTMAX
 10
120.8234441917388
 20
221.48868152522721
 30
0.0
  9
$LIMMIN
 10
0.0
 20
0.0
  9
$LIMMAX
 10
297.0
 20
210.0
  9
$ORTHOMODE
 70
     1
  9
$REGENMODE
 70
     1
  9
$FILLMODE
 70
     1
  9
$QTEXTMODE
 70
     0
  9
$MIRRTEXT
 70
     1
  9
$DRAGMODE
 70
     2
  9
$LTSCALE
 40
1.0
  9
$OSMODE
 70
    39
  9
$ATTMODE
 70
     1
  9
$TEXTSIZE
 40
6.4000000000000012
  9
$TRACEWID
 40
0.05
  9
$TEXTSTYLE
  7
STANDARD
  9
$CLAYER
  8
0
  9
$CELTYPE
  6
BYLAYER
  9
$CECOLOR
 62
   256
  9
$DIMSCALE
 40
1.0
  9
$DIMASZ
 40
3.0
  9
$DIMEXO
 40
1.0
  9
$DIMDLI
 40
0.0
  9
$DIMRND
 40
0.0
  9
$DIMDLE
 40
0.0
  9
$DIMEXE
 40
1.0
  9
$DIMTP
 40
0.0
  9
$DIMTM
 40
0.0
  9
$DIMTXT
 40
3.2000000000000002
  9
$DIMCEN
 40
0.0
  9
$DIMTSZ
 40
0.0
  9
$DIMTOL
 70
     0
  9
$DIMLIM
 70
     0
  9
$DIMTIH
 70
     0
  9
$DIMTOH
 70
     0
  9
$DIMSE1
 70
     0
  9
$DIMSE2
 70
     0
  9
$DIMTAD
 70
     1
  9
$DIMZIN
 70
     8
  9
$DIMBLK
  1

  9
$DIMASO
 70
     1
  9
$DIMSHO
 70
     1
  9
$DIMPOST
  1

  9
$DIMAPOST
  1

  9
$DIMALT
 70
     0
  9
$DIMALTD
 70
     2
  9
$DIMALTF
 40
0.04
  9
$DIMLFAC
 40
1.0
  9
$DIMTOFL
 70
     1
  9
$DIMTVP
 40
1.0
  9
$DIMTIX
 70
     1
  9
$DIMSOXD
 70
     0
  9
$DIMSAH
 70
     0
  9
$DIMBLK1
  1

  9
$DIMBLK2
  1

  9
$DIMSTYLE
  2
MISUMI
  9
$DIMCLRD
 70
     0
  9
$DIMCLRE
 70
     0
  9
$DIMCLRT
 70
     0
  9
$DIMTFAC
 40
0.6
  9
$DIMGAP
 40
1.0
  9
$LUNITS
 70
     2
  9
$LUPREC
 70
     4
  9
$SKETCHINC
 40
0.1
  9
$FILLETRAD
 40
0.0
  9
$AUNITS
 70
     0
  9
$AUPREC
 70
     0
  9
$MENU
  1
acad
  9
$ELEVATION
 40
0.0
  9
$PELEVATION
 40
0.0
  9
$THICKNESS
 40
0.0
  9
$LIMCHECK
 70
     0
  9
$BLIPMODE
 70
     0
  9
$CHAMFERA
 40
0.5
  9
$CHAMFERB
 40
0.5
  9
$SKPOLY
 70
     0
  9
$TDCREATE
 40
2451464.6006649309
  9
$TDUPDATE
 40
2454130.6936939121
  9
$TDINDWG
 40
0.2888033449
  9
$TDUSRTIMER
 40
0.2888007523
  9
$USRTIMER
 70
     1
  9
$ANGBASE
 50
0.0
  9
$ANGDIR
 70
     0
  9
$PDMODE
 70
     0
  9
$PDSIZE
 40
0.0
  9
$PLINEWID
 40
0.0
  9
$COORDS
 70
     0
  9
$SPLFRAME
 70
     0
  9
$SPLINETYPE
 70
     6
  9
$SPLINESEGS
 70
     8
  9
$ATTDIA
 70
     0
  9
$ATTREQ
 70
     1
  9
$HANDLING
 70
     1
  9
$HANDSEED
  5
2EF2
  9
$SURFTAB1
 70
     6
  9
$SURFTAB2
 70
     6
  9
$SURFTYPE
 70
     6
  9
$SURFU
 70
     6
  9
$SURFV
 70
     6
  9
$UCSNAME
  2

  9
$UCSORG
 10
0.0
 20
0.0
 30
0.0
  9
$UCSXDIR
 10
1.0
 20
0.0
 30
0.0
  9
$UCSYDIR
 10
0.0
 20
1.0
 30
0.0
  9
$PUCSNAME
  2

  9
$PUCSORG
 10
0.0
 20
0.0
 30
0.0
  9
$PUCSXDIR
 10
1.0
 20
0.0
 30
0.0
  9
$PUCSYDIR
 10
0.0
 20
1.0
 30
0.0
  9
$USERI1
 70
     0
  9
$USERI2
 70
     0
  9
$USERI3
 70
     0
  9
$USERI4
 70
     0
  9
$USERI5
 70
     0
  9
$USERR1
 40
0.0
  9
$USERR2
 40
0.0
  9
$USERR3
 40
0.0
  9
$USERR4
 40
0.0
  9
$USERR5
 40
0.0
  9
$WORLDVIEW
 70
     1
  9
$SHADEDGE
 70
     3
  9
$SHADEDIF
 70
    70
  9
$TILEMODE
 70
     1
  9
$MAXACTVP
 70
    16
  9
$PLIMCHECK
 70
     0
  9
$PEXTMIN
 10
1.0000000000000000E+020
 20
1.0000000000000000E+020
 30
1.0000000000000000E+020
  9
$PEXTMAX
 10
-1.0000000000000000E+020
 20
-1.0000000000000000E+020
 30
-1.0000000000000000E+020
  9
$PLIMMIN
 10
0.0
 20
0.0
  9
$PLIMMAX
 10
12.0
 20
9.0
  9
$UNITMODE
 70
     0
  9
$VISRETAIN
 70
     0
  9
$PLINEGEN
 70
     0
  9
$PSLTSCALE
 70
     1
  0
ENDSEC
  0
SECTION
  2
TABLES
  0
TABLE
  2
VPORT
 70
     2
  0
VPORT
  2
*ACTIVE
 70
     0
 10
0.0
 20
0.0
 11
1.0
 21
1.0
 12
79.162537231881402
 22
202.2453692552107
 13
0.0
 23
0.0
 14
10.0
 24
10.0
 15
10.0
 25
10.0
 16
0.0
 26
0.0
 36
1.0
 17
0.0
 27
0.0
 37
0.0
 40
42.465045692922033
 41
1.9732142857142849
 42
50.0
 43
0.0
 44
0.0
 50
0.0
 51
0.0
 71
     0
 72
   100
 73
     1
 74
     0
 75
     0
 76
     0
 77
     0
 78
     0
  0
ENDTAB
  0
TABLE
  2
LTYPE
 70
     3
  0
LTYPE
  2
CONTINUOUS
 70
     0
  3
Solid line
 72
    65
 73
     0
 40
0.0
  0
LTYPE
  2
CENTER
 70
     0
  3
Center ____ _ ____ _ ____ _ ____ _ ____ _ ____
 72
    65
 73
     4
 40
2.0
 49
1.25
 49
-0.25
 49
0.25
 49
-0.25
  0
LTYPE
  2
DASHED
 70
     0
  3
Dashed __ __ __ __ __ __ __ __ __ __ __ __ __ _
 72
    65
 73
     2
 40
0.75
 49
0.5
 49
-0.25
  0
ENDTAB
  0
TABLE
  2
LAYER
 70
     3
  0
LAYER
  2
0
 70
     0
 62
     7
  6
CONTINUOUS
  0
LAYER
  2
DEFPOINTS
 70
     0
 62
     7
  6
CONTINUOUS
  0
LAYER
  2
CENTER
 70
     0
 62
     1
  6
CENTER
  0
ENDTAB
  0
TABLE
  2
STYLE
 70
     1
  0
STYLE
  2
STANDARD
 70
     0
 40
0.0
 41
1.0
 50
0.0
 71
     0
 42
6.4000000000000012
  3
txt.shx
  4
extfont.shx
  0
ENDTAB
  0
TABLE
  2
VIEW
 70
     0
  0
ENDTAB
  0
TABLE
  2
UCS
 70
     0
  0
ENDTAB
  0
TABLE
  2
APPID
 70
     1
  0
APPID
  2
ACAD
 70
     0
  0
ENDTAB
  0
TABLE
  2
DIMSTYLE
 70
     1
  0
DIMSTYLE
  2
MISUMI
 70
     0
  3

  4

  5

  6

  7

 40
1.0
 41
3.0
 42
1.0
 43
0.0
 44
1.0
 45
0.0
 46
0.0
 47
0.0
 48
0.0
140
3.2000000000000002
141
0.0
142
0.0
143
0.04
144
1.0
145
1.0
146
0.6
147
1.0
 71
     0
 72
     0
 73
     0
 74
     0
 75
     0
 76
     0
 77
     1
 78
     8
170
     0
171
     2
172
     1
173
     0
174
     1
175
     0
176
     0
177
     0
178
     0
  0
ENDTAB
  0
ENDSEC
  0
SECTION
  2
BLOCKS
  0
BLOCK
  8
0
  2
$MODEL_SPACE
 70
     0
 10
0.0
 20
0.0
 30
0.0
  3
$MODEL_SPACE
  1

  0
ENDBLK
  5
2ED7
  8
0
  0
BLOCK
 67
     1
  8
0
  2
$PAPER_SPACE
 70
     0
 10
0.0
 20
0.0
 30
0.0
  3
$PAPER_SPACE
  1

  0
ENDBLK
  5
2ED3
 67
     1
  8
0
  0
ENDSEC
  0
SECTION
  2
ENTITIES
  0
LINE
  5
D71
  8
CENTER
  6
CENTER
 62
     1
 10
71.82344419173883
 20
205.48868152522709
 30
0.0
 11
71.82344419173883
 21
221.48868152522709
 31
0.0
  0
LINE
  5
D72
  8
0
  6
CONTINUOUS
 62
     7
 10
73.823444191738844
 20
218.48868152522701
 30
0.0
 11
117.3234441917387
 21
218.48868152522709
 31
0.0
  0
ARC
  5
D74
  8
0
  6
CONTINUOUS
 62
     7
 10
71.82344419173883
 20
213.48868152522709
 30
0.0
 40
2.0
 50
90.0
 51
0.0
  0
LINE
  5
D9B
  8
0
  6
CONTINUOUS
 62
     3
 10
82.823444191738773
 20
209.03018152522731
 30
0.0
 11
117.8234441917387
 21
209.03018152522711
 31
0.0
  0
LINE
  5
D9C
  8
0
  6
CONTINUOUS
 62
     3
 10
82.823444191738773
 20
217.94718152522719
 30
0.0
 11
117.8234441917387
 21
217.94718152522699
 31
0.0
  0
LINE
  5
D9D
  8
0
  6
CONTINUOUS
 62
     7
 10
117.3234441917387
 20
218.48868152522709
 30
0.0
 11
117.3234441917387
 21
208.48868152522709
 31
0.0
  0
LINE
  5
DCC
  8
0
  6
CONTINUOUS
 62
     7
 10
117.8234441917387
 20
208.98868152522709
 30
0.0
 11
117.3234441917387
 21
208.48868152522709
 31
0.0
  0
LINE
  5
DCD
  8
0
  6
CONTINUOUS
 62
     7
 10
117.3234441917387
 20
218.48868152522709
 30
0.0
 11
117.8234441917387
 21
217.98868152522709
 31
0.0
  0
LINE
  5
DCE
  8
0
  6
CONTINUOUS
 62
     3
 10
82.823444191738773
 20
209.03018152522731
 30
0.0
 11
81.885538679440216
 21
208.48868152522709
 31
0.0
  0
LINE
  5
DCF
  8
0
  6
CONTINUOUS
 62
     3
 10
82.823444191738773
 20
217.94718152522719
 30
0.0
 11
81.885538679440657
 21
218.48868152522709
 31
0.0
  0
LINE
  5
DD0
  8
0
  6
CONTINUOUS
 62
     7
 10
71.82344419173883
 20
218.48868152522701
 30
0.0
 11
71.82344419173883
 21
215.48868152522709
 31
0.0
  0
LINE
  5
DD1
  8
0
  6
CONTINUOUS
 62
     7
 10
82.823444191738773
 20
218.48868152522709
 30
0.0
 11
82.823444191738773
 21
208.48868152522709
 31
0.0
  0
LINE
  5
DD2
  8
0
  6
CONTINUOUS
 62
     7
 10
77.823444191738801
 20
217.48868152522741
 30
0.0
 11
77.823444191738801
 21
209.48868152522709
 31
0.0
  0
LINE
  5
DD3
  8
0
  6
CONTINUOUS
 62
     7
 10
117.8234441917387
 20
217.98868152522709
 30
0.0
 11
117.8234441917387
 21
208.98868152522709
 31
0.0
  0
LINE
  5
DD4
  8
0
  6
CONTINUOUS
 62
     7
 10
67.82344419173883
 20
218.48868152522709
 30
0.0
 11
67.82344419173883
 21
208.48868152522709
 31
0.0
  0
LINE
  5
DD5
  8
0
  6
CONTINUOUS
 62
     7
 10
67.82344419173883
 20
208.48868152522709
 30
0.0
 11
117.3234441917387
 21
208.48868152522709
 31
0.0
  0
LINE
  5
DD6
  8
0
  6
CONTINUOUS
 62
     7
 10
67.82344419173883
 20
218.48868152522709
 30
0.0
 11
71.82344419173883
 21
218.48868152522701
 31
0.0
  0
LINE
  5
1B7A
  8
0
  6
CONTINUOUS
 62
     7
 10
67.82344419173883
 20
217.48868152522729
 30
0.0
 11
71.82344419173883
 21
217.48868152522729
 31
0.0
  0
LINE
  5
1B7B
  8
0
  6
CONTINUOUS
 62
     7
 10
73.823444191738844
 20
217.48868152522729
 30
0.0
 11
77.823444191738801
 21
217.48868152522729
 31
0.0
  0
LINE
  5
1B7C
  8
0
  6
CONTINUOUS
 62
     7
 10
67.82344419173883
 20
209.48868152522709
 30
0.0
 11
77.823444191738801
 21
209.48868152522709
 31
0.0
  0
TEXT
  5
1C9A
  8
0
 10
39.52520876170081
 20
185.8840588774685
 30
0.0
 40
2.0
  1
AIPOK10-50
  0
TEXT
  5
1C9B
  8
0
 10
39.52520876170081
 20
183.0030234549593
 30
0.0
 40
2.0
  1
AIPOK10
  0
LINE
  5
1FDA
  8
CENTER
  6
CENTER
 62
     1
 10
65.141492346656193
 20
213.48868152522709
 30
0.0
 11
120.8234441917388
 21
213.48868152522709
 31
0.0
  0
LINE
  5
2787
  8
0
  6
CONTINUOUS
 62
     7
 10
73.823444191738815
 20
218.48868152522701
 30
0.0
 11
73.823444191738773
 21
213.48868152522709
 31
0.0
  0
LINE
  5
2C9D
  8
0
  6
DASHED
 62
     3
 10
47.29341842766749
 20
211.48868152522721
 30
0.0
 11
48.4934184276674
 21
210.2886815252273
 31
0.0
  0
LINE
  5
2C9E
  8
0
  6
DASHED
 62
     3
 10
47.293418427667383
 20
215.48868152522721
 30
0.0
 11
48.493418427667329
 21
216.68868152522711
 31
0.0
  0
LINE
  5
2C9F
  8
0
  6
DASHED
 62
     3
 10
43.693418427667531
 20
215.48868152522729
 30
0.0
 11
47.293418427667383
 21
215.48868152522721
 31
0.0
  0
LINE
  5
2CA0
  8
0
  6
DASHED
 62
     3
 10
43.693418427667517
 20
211.48868152522721
 30
0.0
 11
47.29341842766749
 21
211.48868152522721
 31
0.0
  0
LINE
  5
2CA1
  8
0
  6
DASHED
 62
     3
 10
47.29341842766749
 20
211.48868152522721
 30
0.0
 11
47.293418427667383
 21
215.48868152522721
 31
0.0
  0
LINE
  5
2CA2
  8
0
  6
CONTINUOUS
 62
     7
 10
48.493418427667379
 20
209.48868152522709
 30
0.0
 11
48.493418427667379
 21
217.48868152522741
 31
0.0
  0
LINE
  5
2CA6
  8
CENTER
  6
CENTER
 62
     1
 10
45.4934184276675
 20
205.48868152522721
 30
0.0
 11
45.49341842766728
 21
221.48868152522721
 31
0.0
  0
LINE
  5
2CA7
  8
CENTER
  6
CENTER
 62
     1
 10
37.493418427667571
 20
213.48868152522721
 30
0.0
 11
53.493418427667557
 21
213.48868152522721
 31
0.0
  0
CIRCLE
  5
2CA8
  8
0
  6
CONTINUOUS
 62
     7
 10
45.493418427667557
 20
213.48868152522721
 30
0.0
 40
5.0
  0
LINE
  5
2CAB
  8
0
  6
DASHED
 62
     3
 10
43.693418427667517
 20
211.48868152522721
 30
0.0
 11
43.693418427667531
 21
215.48868152522729
 31
0.0
  0
LINE
  5
2CAC
  8
0
  6
DASHED
 62
     3
 10
43.693418427667531
 20
215.48868152522729
 30
0.0
 11
42.493418427667592
 21
216.6886815252272
 31
0.0
  0
LINE
  5
2CAD
  8
0
  6
DASHED
 62
     3
 10
43.693418427667517
 20
211.48868152522721
 30
0.0
 11
42.493418427667592
 21
210.2886815252273
 31
0.0
  0
LINE
  5
2DAE
  8
0
  6
CONTINUOUS
 62
     7
 10
42.493418427667727
 20
209.48868152522709
 30
0.0
 11
42.493418427667727
 21
217.48868152522741
 31
0.0
  0
ARC
  5
2DE2
  8
0
 10
71.823444191738844
 20
213.48868152522709
 30
0.0
 40
3.1999999999997311
 50
90.000000000000256
 51
51.317812546507611
  0
ENDSEC
  0
EOF
