  0
SECTION
  2
HEADER
  9
$ACADVER
  1
AC1009
  9
$INSBASE
 10
0.0
 20
0.0
 30
0.0
  9
$EXTMIN
 10
-11.346495577770609
 20
-8.0093071512054621
 30
-0.0015258207003583
  9
$EXTMAX
 10
79.019206336488764
 20
60.473282295131639
 30
0.0000000349246037
  9
$LIMMIN
 10
0.0
 20
0.0
  9
$LIMMAX
 10
420.0
 20
297.0
  9
$ORTHOMODE
 70
     0
  9
$REGENMODE
 70
     1
  9
$FILLMODE
 70
     1
  9
$QTEXTMODE
 70
     0
  9
$MIRRTEXT
 70
     0
  9
$DRAGMODE
 70
     2
  9
$LTSCALE
 40
0.5
  9
$OSMODE
 70
  3071
  9
$ATTMODE
 70
     1
  9
$TEXTSIZE
 40
3.0
  9
$TRACEWID
 40
1.0
  9
$TEXTSTYLE
  7
STANDARD
  9
$CLAYER
  8
MSM_CONTINUOUS
  9
$CELTYPE
  6
BYLAYER
  9
$CECOLOR
 62
   256
  9
$DIMSCALE
 40
1.0
  9
$DIMASZ
 40
2.5
  9
$DIMEXO
 40
0.625
  9
$DIMDLI
 40
3.75
  9
$DIMRND
 40
0.0
  9
$DIMDLE
 40
0.0
  9
$DIMEXE
 40
1.25
  9
$DIMTP
 40
0.0
  9
$DIMTM
 40
0.0
  9
$DIMTXT
 40
3.0
  9
$DIMCEN
 40
2.5
  9
$DIMTSZ
 40
0.0
  9
$DIMTOL
 70
     0
  9
$DIMLIM
 70
     0
  9
$DIMTIH
 70
     0
  9
$DIMTOH
 70
     0
  9
$DIMSE1
 70
     0
  9
$DIMSE2
 70
     0
  9
$DIMTAD
 70
     1
  9
$DIMZIN
 70
     8
  9
$DIMBLK
  1
OPEN30
  9
$DIMASO
 70
     1
  9
$DIMSHO
 70
     1
  9
$DIMPOST
  1

  9
$DIMAPOST
  1

  9
$DIMALT
 70
     0
  9
$DIMALTD
 70
     3
  9
$DIMALTF
 40
0.03937007874016
  9
$DIMLFAC
 40
1.0
  9
$DIMTOFL
 70
     1
  9
$DIMTVP
 40
0.0
  9
$DIMTIX
 70
     0
  9
$DIMSOXD
 70
     0
  9
$DIMSAH
 70
     0
  9
$DIMBLK1
  1

  9
$DIMBLK2
  1

  9
$DIMSTYLE
  2
MISUMI
  9
$DIMCLRD
 70
   256
  9
$DIMCLRE
 70
   256
  9
$DIMCLRT
 70
   256
  9
$DIMTFAC
 40
1.0
  9
$DIMGAP
 40
0.625
  9
$LUNITS
 70
     2
  9
$LUPREC
 70
     2
  9
$SKETCHINC
 40
1.0
  9
$FILLETRAD
 40
0.0
  9
$AUNITS
 70
     0
  9
$AUPREC
 70
     0
  9
$MENU
  1
.
  9
$ELEVATION
 40
0.0
  9
$PELEVATION
 40
0.0
  9
$THICKNESS
 40
0.0
  9
$LIMCHECK
 70
     0
  9
$BLIPMODE
 70
     0
  9
$CHAMFERA
 40
0.5
  9
$CHAMFERB
 40
0.5
  9
$SKPOLY
 70
     0
  9
$TDCREATE
 40
2455135.5720697111
  9
$TDUPDATE
 40
2458068.697888345
  9
$TDINDWG
 40
0.7035000926
  9
$TDUSRTIMER
 40
2458009.1884299419
  9
$USRTIMER
 70
     1
  9
$ANGBASE
 50
0.0
  9
$ANGDIR
 70
     0
  9
$PDMODE
 70
    35
  9
$PDSIZE
 40
0.0
  9
$PLINEWID
 40
0.0
  9
$COORDS
 70
     0
  9
$SPLFRAME
 70
     0
  9
$SPLINETYPE
 70
     6
  9
$SPLINESEGS
 70
     8
  9
$ATTDIA
 70
     0
  9
$ATTREQ
 70
     1
  9
$HANDLING
 70
     1
  9
$HANDSEED
  5
E40F
  9
$SURFTAB1
 70
     6
  9
$SURFTAB2
 70
     6
  9
$SURFTYPE
 70
     6
  9
$SURFU
 70
     6
  9
$SURFV
 70
     6
  9
$UCSNAME
  2

  9
$UCSORG
 10
0.0
 20
0.0
 30
0.0
  9
$UCSXDIR
 10
1.0
 20
0.0
 30
0.0
  9
$UCSYDIR
 10
0.0
 20
1.0
 30
0.0
  9
$PUCSNAME
  2

  9
$PUCSORG
 10
0.0
 20
0.0
 30
0.0
  9
$PUCSXDIR
 10
1.0
 20
0.0
 30
0.0
  9
$PUCSYDIR
 10
0.0
 20
1.0
 30
0.0
  9
$USERI1
 70
     0
  9
$USERI2
 70
     0
  9
$USERI3
 70
     0
  9
$USERI4
 70
     0
  9
$USERI5
 70
     0
  9
$USERR1
 40
0.0
  9
$USERR2
 40
0.0
  9
$USERR3
 40
0.0
  9
$USERR4
 40
0.0
  9
$USERR5
 40
0.0
  9
$WORLDVIEW
 70
     1
  9
$SHADEDGE
 70
     3
  9
$SHADEDIF
 70
    70
  9
$TILEMODE
 70
     1
  9
$MAXACTVP
 70
    64
  9
$PLIMCHECK
 70
     0
  9
$PEXTMIN
 10
0.0
 20
0.0
 30
0.0
  9
$PEXTMAX
 10
0.0
 20
0.0
 30
0.0
  9
$PLIMMIN
 10
0.0
 20
0.0
  9
$PLIMMAX
 10
12.0
 20
9.0
  9
$UNITMODE
 70
     0
  9
$VISRETAIN
 70
     1
  9
$PLINEGEN
 70
     0
  9
$PSLTSCALE
 70
     1
  0
ENDSEC
  0
SECTION
  2
TABLES
  0
TABLE
  2
VPORT
 70
     1
  0
VPORT
  2
*ACTIVE
 70
     0
 10
0.0
 20
0.0
 11
1.0
 21
1.0
 12
33.836355379359091
 22
26.231987571963089
 13
0.0
 23
0.0
 14
10.0
 24
10.0
 15
10.0
 25
10.0
 16
0.0
 26
0.0
 36
1.0
 17
0.0
 27
0.0
 37
0.0
 40
69.032650405745429
 41
2.0898123324396778
 42
50.0
 43
0.0
 44
0.0
 50
0.0
 51
0.0
 71
    16
 72
  1000
 73
     1
 74
     3
 75
     0
 76
     0
 77
     0
 78
     0
  0
ENDTAB
  0
TABLE
  2
LTYPE
 70
     3
  0
LTYPE
  2
CONTINUOUS
 70
     0
  3
Solid line
 72
    65
 73
     0
 40
0.0
  0
LTYPE
  2
CENTER
 70
     0
  3
Center ____ _ ____ _ ____ _ ____ _ ____ _ ____
 72
    65
 73
     4
 40
50.799999999999997
 49
31.75
 49
-6.3499999999999988
 49
6.3499999999999988
 49
-6.3499999999999988
  0
LTYPE
  2
DASHED
 70
     0
  3
Dashed __ __ __ __ __ __ __ __ __ __ __ __ __ _
 72
    65
 73
     2
 40
19.050000000000001
 49
12.699999999999999
 49
-6.3499999999999988
  0
ENDTAB
  0
TABLE
  2
LAYER
 70
     8
  0
LAYER
  2
0
 70
     0
 62
     7
  6
CONTINUOUS
  0
LAYER
  2
MSM_CENTER
 70
     0
 62
     1
  6
CENTER
  0
LAYER
  2
MSM_CONTINUOUS
 70
     0
 62
     7
  6
CONTINUOUS
  0
LAYER
  2
MSM_DASHED
 70
     0
 62
     4
  6
DASHED
  0
LAYER
  2
MSM_NARROW
 70
     0
 62
     5
  6
CONTINUOUS
  0
LAYER
  2
MSM_PART_NUMBER
 70
     0
 62
     7
  6
CONTINUOUS
  0
ENDTAB
  0
TABLE
  2
STYLE
 70
     1
  0
STYLE
  2
STANDARD
 70
     0
 40
3.0
 41
1.0
 50
0.0
 71
     0
 42
3.0
  3
txt.shx
  4
bigfont.shx
  0
ENDTAB
  0
TABLE
  2
VIEW
 70
     0
  0
ENDTAB
  0
TABLE
  2
UCS
 70
     0
  0
ENDTAB
  0
TABLE
  2
APPID
 70
    25
  0
APPID
  2
ACAD
 70
     0
  0
APPID
  2
ACAD_MLEADERVER
 70
     0
  0
APPID
  2
ACAD_EXEMPT_FROM_CAD_STANDARDS
 70
     0
  0
APPID
  2
ACDBBLOCKREPETAG
 70
     0
  0
APPID
  2
ACAD_DSTYLE_DIMJOGGED_JOGA
 70
     0
  0
APPID
  2
ACAECLAYERSTANDARD
 70
     0
  0
APPID
  2
GENIUS_GENODEF_13
 70
     0
  0
APPID
  2
GENIUS_GENOBJ-N-FIL_13
 70
     0
  0
APPID
  2
ACAD_PSEXT
 70
     0
  0
APPID
  2
ACAD_DSTYLE_DIMRADIAL_EXTENSION
 70
     0
  0
APPID
  2
ACDBDYNAMICBLOCKTRUENAME
 70
     0
  0
APPID
  2
ACDBDYNAMICBLOCKGUID
 70
     0
  0
APPID
  2
ACDBBLOCKREPBTAG
 70
     0
  0
APPID
  2
ACAUTHENVIRON
 70
     0
  0
APPID
  2
GRADIENTCOLOR1ACI
 70
     0
  0
APPID
  2
GRADIENTCOLOR2ACI
 70
     0
  0
APPID
  2
ACAD_DSTYLE_DIMJAG
 70
     0
  0
APPID
  2
ACAD_DSTYLE_DIMTALN
 70
     0
  0
APPID
  2
ACCMTRANSPARENCY
 70
     0
  0
APPID
  2
ACAD_DSTYLE_DIMBREAK
 70
     0
  0
APPID
  2
ACAD_DSTYLE_DIMFLIPARROW_W
 70
     0
  0
APPID
  2
ACAD_DSTYLE_DIM_LINETYPE
 70
     0
  0
APPID
  2
ACAD_DSTYLE_DIM_EXT1_LINETYPE
 70
     0
  0
APPID
  2
ACAD_DSTYLE_DIM_EXT2_LINETYPE
 70
     0
  0
APPID
  2
ACAD_NAV_VCDISPLAY
 70
     0
  0
ENDTAB
  0
TABLE
  2
DIMSTYLE
 70
     1
  0
DIMSTYLE
  2
MISUMI
 70
     0
  3

  4

  5
OPEN30
  6

  7

 40
1.0
 41
2.5
 42
0.625
 43
3.75
 44
1.25
 45
0.0
 46
0.0
 47
0.0
 48
0.0
140
3.0
141
2.5
142
0.0
143
0.03937007874016
144
1.0
145
0.0
146
1.0
147
0.625
 71
     0
 72
     0
 73
     0
 74
     0
 75
     0
 76
     0
 77
     1
 78
     8
170
     0
171
     3
172
     1
173
     0
174
     0
175
     0
176
   256
177
   256
178
   256
  0
ENDTAB
  0
ENDSEC
  0
SECTION
  2
BLOCKS
  0
BLOCK
  8
0
  2
$MODEL_SPACE
 70
     0
 10
0.0
 20
0.0
 30
0.0
  3
$MODEL_SPACE
  1

  0
ENDBLK
  5
21
  8
0
  0
BLOCK
 67
     1
  8
0
  2
$PAPER_SPACE
 70
     0
 10
0.0
 20
0.0
 30
0.0
  3
$PAPER_SPACE
  1

  0
ENDBLK
  5
E3BF
 67
     1
  8
0
  0
BLOCK
  8
0
 62
     7
  2
_OPEN30
 70
     0
 10
0.0
 20
0.0
 30
0.0
  3
_OPEN30
  1

  0
LINE
  5
D7
  8
0
  6
BYBLOCK
 62
     0
 10
-1.0
 20
0.26794919
 30
0.0
 11
0.0
 21
0.0
 31
0.0
  0
LINE
  5
D8
  8
0
  6
BYBLOCK
 62
     0
 10
0.0
 20
0.0
 30
0.0
 11
-1.0
 21
-0.26794919
 31
0.0
  0
LINE
  5
D9
  8
0
  6
BYBLOCK
 62
     0
 10
0.0
 20
0.0
 30
0.0
 11
-1.0
 21
0.0
 31
0.0
  0
ENDBLK
  5
DB
  8
0
 62
     7
  0
BLOCK
  8
0
  2
*U4
 70
     1
 10
0.0
 20
0.0
 30
0.0
  3
*U4
  1

  0
TEXT
  5
E402
  8
MSM_PART_NUMBER
 10
0.0
 20
-3.0
 30
0.0
 40
3.0
  1
VAFZ8-40-F10-M6-N3-SC5
  0
ENDBLK
  5
E404
  8
0
  0
BLOCK
  8
0
  2
*U5
 70
     1
 10
0.0
 20
0.0
 30
0.0
  3
*U5
  1

  0
TEXT
  5
E406
  8
MSM_PART_NUMBER
 10
0.0
 20
-8.0
 30
0.0
 40
3.0
  1
VAFZ08
  0
ENDBLK
  5
E408
  8
0
  0
ENDSEC
  0
SECTION
  2
ENTITIES
  0
INSERT
  5
DCB4
  8
MSM_CONTINUOUS
  2
*U4
 10
0.0
 20
0.0
 30
0.0
  0
INSERT
  5
DCB5
  8
MSM_CONTINUOUS
  2
*U5
 10
0.0
 20
0.0
 30
0.0
  0
LINE
  5
E31C
  8
MSM_CENTER
 10
-0.9999999999999965
 20
55.466066283029498
 30
0.0
 11
50.99999898578897
 21
55.466066283029498
 31
0.0
  0
LINE
  5
E31D
  8
MSM_CONTINUOUS
 10
10.49999898578926
 20
59.466066283029697
 30
0.0
 11
49.499998985788871
 21
59.466066283029697
 31
0.0
  0
LINE
  5
E31E
  8
MSM_CONTINUOUS
 10
10.49999898578926
 20
51.466066283029512
 30
0.0
 11
49.499998985788537
 21
51.466066283029512
 31
0.0
  0
LINE
  5
E31F
  8
MSM_CONTINUOUS
 10
9.999998985789265
 20
51.966066283029512
 30
0.0
 11
9.999998985789265
 21
58.966066283029697
 31
0.0
  0
LINE
  5
E320
  8
MSM_CENTER
 10
68.999998985788636
 20
55.466066283029498
 30
0.0
 11
78.999998985788864
 21
55.466066283029498
 31
0.0
  0
CIRCLE
  5
E321
  8
MSM_CONTINUOUS
 10
73.999998985788636
 20
55.466066283029498
 30
0.0
 40
4.0
  0
CIRCLE
  5
E322
  8
MSM_DASHED
 10
73.999998985788636
 20
55.466066283029498
 30
0.0
 40
3.0
  0
LINE
  5
E324
  8
MSM_CENTER
 10
73.999998985788636
 20
60.466066283029519
 30
0.0
 11
73.999998985788636
 21
50.466066283029498
 31
0.0
  0
LINE
  5
E325
  8
MSM_CONTINUOUS
 10
49.999998985788842
 20
58.966066283029697
 30
0.0
 11
49.99999898578853
 21
51.966066283029512
 31
0.0
  0
LINE
  5
E326
  8
MSM_CONTINUOUS
 10
0.4999979757890891
 20
52.466066283029498
 30
0.0
 11
7.9999979757892019
 21
52.466066283029527
 31
0.0
  0
LINE
  5
E327
  8
MSM_CONTINUOUS
 10
0.4999979757890891
 20
58.466066283029519
 30
0.0
 11
7.9999979757892019
 21
58.466066283029519
 31
0.0
  0
LINE
  5
E328
  8
MSM_NARROW
 10
0.0000000000000036
 20
57.966066283029519
 30
0.0
 11
7.9999979757892019
 21
57.966066283029519
 31
0.0
  0
LINE
  5
E329
  8
MSM_NARROW
 10
0.0000000000000036
 20
52.966066283029498
 30
0.0
 11
7.9999979757892019
 21
52.966066283029498
 31
0.0
  0
LINE
  5
E32A
  8
MSM_CONTINUOUS
 10
0.0000000000000036
 20
52.966066283029498
 30
0.0
 11
0.0000000000000036
 21
57.966066283029519
 31
0.0
  0
LINE
  5
E32B
  8
MSM_CONTINUOUS
 10
0.4999979757890891
 20
52.466066283029498
 30
0.0
 11
0.4999979757890891
 21
58.466066283029519
 31
0.0
  0
LINE
  5
E32C
  8
MSM_CONTINUOUS
 10
0.0000000000000036
 20
52.966066283029498
 30
0.0
 11
0.4999979757890891
 21
52.466067383029547
 31
0.0
  0
LINE
  5
E32D
  8
MSM_CONTINUOUS
 10
0.0000000000000036
 20
57.966066283029519
 30
0.0
 11
0.4999979757890891
 21
58.46606518302945
 31
0.0
  0
LINE
  5
E32E
  8
MSM_CONTINUOUS
 10
7.9999979757892019
 20
58.466066283029519
 30
0.0
 11
7.9999979757892019
 21
52.466066283029527
 31
0.0
  0
LINE
  5
E32F
  8
MSM_CONTINUOUS
 10
7.9999979757892019
 20
53.36606628302949
 30
0.0
 11
9.999998985789265
 21
53.366066283029539
 31
0.0
  0
LINE
  5
E330
  8
MSM_CONTINUOUS
 10
7.9999979757892019
 20
57.566066283029507
 30
0.0
 11
9.999998985789265
 21
57.566066283029478
 31
0.0
  0
TEXT
  5
E331
  8
MSM_CONTINUOUS
 10
-11.333333333333441
 20
53.866066283029497
 30
0.0
 40
3.2000000000000002
  1
M6
 72
     2
 11
-6.0000000000001101
 21
55.466066283029498
 31
0.0
 73
     2
  0
LINE
  5
E337
  8
MSM_CONTINUOUS
 10
10.49999898578926
 20
51.466066283029512
 30
0.0
 11
10.49999898578926
 21
59.466066283029697
 31
0.0
  0
LINE
  5
E338
  8
0
 10
49.999998985788288
 20
57.216066283030038
 30
0.0
 11
49.999998985788288
 21
57.21616628303007
 31
0.0
  0
LINE
  5
E339
  8
MSM_DASHED
 10
49.999998985788977
 20
53.966066283029512
 30
0.0
 11
43.99999898578875
 21
53.966066283029512
 31
0.0
  0
LINE
  5
E33A
  8
MSM_DASHED
 10
49.999998985788977
 20
54.21605528302932
 30
0.0
 11
42.499998985788523
 21
54.21605528302932
 31
0.0
  0
LINE
  5
E33B
  8
MSM_DASHED
 10
49.999998985788977
 20
56.9660662830292
 30
0.0
 11
43.99999898578875
 21
56.9660662830292
 31
0.0
  0
LINE
  5
E33C
  8
MSM_DASHED
 10
49.999998985788977
 20
56.716061983029519
 30
0.0
 11
42.499998985788523
 21
56.716061983029519
 31
0.0
  0
LINE
  5
E33D
  8
MSM_DASHED
 10
42.499998985788523
 20
54.21605528302932
 30
0.0
 11
41.778308468447271
 21
55.466057227648427
 31
0.0
  0
LINE
  5
E33E
  8
MSM_DASHED
 10
42.499998985788523
 20
54.21605528302932
 30
0.0
 11
42.499998985788523
 21
56.716061983029519
 31
0.0
  0
LINE
  5
E33F
  8
MSM_DASHED
 10
43.99999898578875
 20
53.966065083029413
 30
0.0
 11
43.99999898578875
 21
56.966065083029413
 31
0.0
  0
LINE
  5
E340
  8
MSM_DASHED
 10
43.500030437309697
 20
54.21605528302932
 30
0.0
 11
44.000009985788722
 21
53.966062083029499
 31
0.0
  0
LINE
  5
E341
  8
MSM_DASHED
 10
41.778308468447271
 20
55.466057227648427
 30
0.0
 11
42.499998985788523
 21
56.716061983029519
 31
0.0
  0
LINE
  5
E342
  8
MSM_DASHED
 10
44.000032985788437
 20
56.966068983029281
 30
0.0
 11
43.500026022871957
 21
56.716061983029519
 31
0.0
  0
TEXT
  5
E343
  8
MSM_CONTINUOUS
 10
52.942901457775108
 20
53.866066283029518
 30
0.0
 40
3.2000000000000002
  1
N3
 11
52.942901457775108
 21
55.466066283029519
 31
0.0
 73
     2
  0
LINE
  5
E346
  8
MSM_CONTINUOUS
 10
49.499998985788629
 20
59.466066283029697
 30
0.0
 11
49.499998985788523
 21
51.466066283029512
 31
0.0
  0
LINE
  5
E347
  8
MSM_DASHED
 10
38.999998985788523
 20
23.974571549677609
 30
0.0
 11
38.047371041625922
 21
25.624571549677601
 31
0.0
  0
LINE
  5
E348
  8
MSM_DASHED
 10
38.999998985788523
 20
23.974571549677609
 30
0.0
 11
38.999998985788523
 21
27.274571549677699
 31
0.0
  0
LINE
  5
E349
  8
MSM_DASHED
 10
41.999998985788523
 20
23.624569949677511
 30
0.0
 11
41.999998985788523
 21
27.62456994967761
 31
0.0
  0
LINE
  5
E34A
  8
MSM_DASHED
 10
49.999998985788523
 20
16.099999999999991
 30
0.0
 11
37.509621490275272
 21
16.099999999999991
 31
0.0
  0
LINE
  5
E34B
  8
MSM_DASHED
 10
49.999998985788523
 20
11.9
 30
0.0
 11
37.509621490275272
 21
11.9
 31
0.0
  0
LINE
  5
E34C
  8
MSM_DASHED
 10
49.999998985788523
 20
11.5
 30
0.0
 11
39.999998985788629
 21
11.5
 31
0.0
  0
LINE
  5
E34D
  8
MSM_DASHED
 10
49.999998985788523
 20
16.5
 30
0.0
 11
39.999998985788629
 21
16.5
 31
0.0
  0
LINE
  5
E34E
  8
MSM_DASHED
 10
49.999998985788523
 20
23.624571549677601
 30
0.0
 11
41.999998985788523
 21
23.624571549677601
 31
0.0
  0
LINE
  5
E34F
  8
MSM_DASHED
 10
49.999998985788523
 20
23.974571549677609
 30
0.0
 11
38.999998985788523
 21
23.974571549677609
 31
0.0
  0
LINE
  5
E350
  8
MSM_DASHED
 10
37.509621490275272
 20
11.9
 30
0.0
 11
37.509621490275272
 21
16.066666666666599
 31
0.0
  0
LINE
  5
E351
  8
MSM_DASHED
 10
37.509621490275272
 20
16.099999999999991
 30
0.0
 11
36.297185924976873
 21
14.0
 31
0.0
  0
LINE
  5
E352
  8
MSM_DASHED
 10
39.999998985788629
 20
16.5
 30
0.0
 11
39.999998985788629
 21
11.5
 31
0.0
  0
LINE
  5
E353
  8
MSM_DASHED
 10
37.509621490275272
 20
11.9
 30
0.0
 11
36.297185924976873
 21
14.0
 31
0.0
  0
LINE
  5
E354
  8
MSM_DASHED
 10
40.00001120801101
 20
11.4999929434968
 30
0.0
 11
39.307178662760919
 21
11.9
 31
0.0
  0
LINE
  5
E355
  8
MSM_DASHED
 10
40.00001120801101
 20
16.5000070565033
 30
0.0
 11
39.307178662760919
 21
16.099999999999991
 31
0.0
  0
LINE
  5
E356
  8
MSM_DASHED
 10
42.000013652455259
 20
23.624566349677711
 30
0.0
 11
41.39378686314199
 21
23.974571549677609
 31
0.0
  0
LINE
  5
E357
  8
MSM_CONTINUOUS
 10
49.999998985788523
 20
28.6245715496777
 30
0.0
 11
49.999998985788523
 21
10.0
 31
0.0
  0
LINE
  5
E358
  8
MSM_CENTER
 10
51.55806277148411
 20
25.624571549677601
 30
0.0
 11
37.60541083276275
 21
25.624571549677601
 31
0.0
  0
LINE
  5
E359
  8
MSM_DASHED
 10
49.999998985788523
 20
27.624571549677601
 30
0.0
 11
41.999998985788523
 21
27.624571549677601
 31
0.0
  0
LINE
  5
E35A
  8
MSM_DASHED
 10
49.999998985788523
 20
27.274571549677699
 30
0.0
 11
38.999998985788523
 21
27.274571549677699
 31
0.0
  0
LINE
  5
E35B
  8
MSM_DASHED
 10
42.000013652455259
 20
27.624576749677601
 30
0.0
 11
41.39378686314199
 21
27.274571549677699
 31
0.0
  0
LINE
  5
E35C
  8
MSM_DASHED
 10
38.999998985788523
 20
27.274571549677699
 30
0.0
 11
38.047371041625922
 21
25.624571549677601
 31
0.0
  0
TEXT
  5
E35D
  8
MSM_CONTINUOUS
 10
53.857947617192202
 20
24.024571549677599
 30
0.0
 40
3.2000000000000002
  1
N4
 11
53.857947617192202
 21
25.624571549677601
 31
0.0
 73
     2
  0
TEXT
  5
E35E
  8
MSM_CONTINUOUS
 10
53.857947617192202
 20
12.4
 30
0.0
 40
3.2000000000000002
  1
N5
 11
53.857947617192202
 21
14.0
 31
0.0
 73
     2
  0
LINE
  5
E35F
  8
MSM_CENTER
 10
51.55806277148411
 20
14.0
 30
0.0
 11
35.855225716113686
 21
14.0
 31
0.0
  0
CIRCLE
  5
E360
  8
MSM_NARROW
 10
73.999998985788636
 20
55.466066283029498
 30
0.0
 40
1.5
  0
CIRCLE
  5
E361
  8
MSM_CONTINUOUS
 10
73.999998985788636
 20
55.466066283029498
 30
0.0
 40
1.25
  0
LINE
  5
E362
  8
MSM_CONTINUOUS
 10
22.999998985789379
 20
53.529571709926017
 30
0.0
 11
22.999998985789261
 21
57.402555056133508
 31
0.0
  0
LINE
  5
E363
  8
MSM_CONTINUOUS
 10
14.99999898578926
 20
57.402555056133508
 30
0.0
 11
14.99999898578926
 21
53.529571709926017
 31
0.0
  0
LINE
  5
E364
  8
MSM_NARROW
 10
14.99999898578926
 20
53.529571709926017
 30
0.0
 11
22.999998985789261
 21
57.402555056133508
 31
0.0
  0
LINE
  5
E365
  8
MSM_NARROW
 10
14.99999898578926
 20
57.402555056133508
 30
0.0
 11
22.999998985789379
 21
53.529571709926017
 31
0.0
  0
LINE
  5
E366
  8
MSM_CONTINUOUS
 10
22.999998985789379
 20
53.529571709926017
 30
0.0
 11
14.99999898578926
 21
53.529571709926017
 31
0.0
  0
LINE
  5
E367
  8
MSM_CONTINUOUS
 10
22.999998985789261
 20
57.402555056133508
 30
0.0
 11
14.99999898578926
 21
57.402555056133508
 31
0.0
  0
LINE
  5
E368
  8
MSM_DASHED
 10
70.499998985788523
 20
57.402557956133123
 30
0.0
 11
70.499998985788523
 21
53.529574609925618
 31
0.0
  0
LINE
  5
E369
  8
MSM_DASHED
 10
77.499998985788636
 20
57.402557956133123
 30
0.0
 11
77.499998985788636
 21
53.529574609925618
 31
0.0
  0
LINE
  5
E36A
  8
MSM_CONTINUOUS
 10
9.999998985789265
 20
58.966066283029697
 30
0.0
 11
10.49999898578926
 21
59.466066283029697
 31
0.0
  0
LINE
  5
E36B
  8
MSM_CONTINUOUS
 10
9.999998985789265
 20
51.966066283029512
 30
0.0
 11
10.49999898578926
 21
51.466066283029512
 31
0.0
  0
LINE
  5
E36C
  8
MSM_CONTINUOUS
 10
49.499998985788871
 20
59.466066283029697
 30
0.0
 11
49.999998985788842
 21
58.966066283029697
 31
0.0
  0
LINE
  5
E36D
  8
MSM_CONTINUOUS
 10
49.499998985788523
 20
51.466066283029512
 30
0.0
 11
49.99999898578853
 21
51.966066283029512
 31
0.0
  0
ENDSEC
  0
EOF
