  0
SECTION
  2
HEADER
  9
$ACADVER
  1
AC1009
  9
$INSBASE
 10
0.0
 20
0.0
 30
0.0
  9
$EXTMIN
 10
-4.5061059051939756
 20
-7.1027716144493516
 30
-0.0000000000000058
  9
$EXTMAX
 10
215.9471476660743
 20
251.53631602609499
 30
0.0000000000000104
  9
$LIMMIN
 10
0.0
 20
0.0
  9
$LIMMAX
 10
420.0
 20
297.0
  9
$ORTHOMODE
 70
     0
  9
$REGENMODE
 70
     1
  9
$FILLMODE
 70
     1
  9
$QTEXTMODE
 70
     0
  9
$MIRRTEXT
 70
     1
  9
$DRAGMODE
 70
     2
  9
$LTSCALE
 40
5.0
  9
$OSMODE
 70
  2999
  9
$ATTMODE
 70
     1
  9
$TEXTSIZE
 40
2.5
  9
$TRACEWID
 40
1.0
  9
$TEXTSTYLE
  7
STANDARD
  9
$CLAYER
  8
0
  9
$CELTYPE
  6
CONTINUOUS
  9
$CECOLOR
 62
     7
  9
$DIMSCALE
 40
1.0
  9
$DIMASZ
 40
3.0
  9
$DIMEXO
 40
1.0
  9
$DIMDLI
 40
0.0
  9
$DIMRND
 40
0.0
  9
$DIMDLE
 40
0.0
  9
$DIMEXE
 40
1.0
  9
$DIMTP
 40
0.0
  9
$DIMTM
 40
0.0
  9
$DIMTXT
 40
3.2000000000000002
  9
$DIMCEN
 40
0.0
  9
$DIMTSZ
 40
0.0
  9
$DIMTOL
 70
     0
  9
$DIMLIM
 70
     0
  9
$DIMTIH
 70
     0
  9
$DIMTOH
 70
     0
  9
$DIMSE1
 70
     0
  9
$DIMSE2
 70
     0
  9
$DIMTAD
 70
     1
  9
$DIMZIN
 70
     8
  9
$DIMBLK
  1

  9
$DIMASO
 70
     0
  9
$DIMSHO
 70
     1
  9
$DIMPOST
  1

  9
$DIMAPOST
  1

  9
$DIMALT
 70
     0
  9
$DIMALTD
 70
     2
  9
$DIMALTF
 40
0.04
  9
$DIMLFAC
 40
1.0
  9
$DIMTOFL
 70
     1
  9
$DIMTVP
 40
1.0
  9
$DIMTIX
 70
     1
  9
$DIMSOXD
 70
     0
  9
$DIMSAH
 70
     0
  9
$DIMBLK1
  1

  9
$DIMBLK2
  1

  9
$DIMSTYLE
  2
MISUMI
  9
$DIMCLRD
 70
     0
  9
$DIMCLRE
 70
     0
  9
$DIMCLRT
 70
     0
  9
$DIMTFAC
 40
0.6
  9
$DIMGAP
 40
1.0
  9
$LUNITS
 70
     2
  9
$LUPREC
 70
     2
  9
$SKETCHINC
 40
0.00001
  9
$FILLETRAD
 40
10.0
  9
$AUNITS
 70
     0
  9
$AUPREC
 70
     2
  9
$MENU
  1
acad
  9
$ELEVATION
 40
0.0
  9
$PELEVATION
 40
0.0
  9
$THICKNESS
 40
0.0
  9
$LIMCHECK
 70
     0
  9
$BLIPMODE
 70
     0
  9
$CHAMFERA
 40
10.0
  9
$CHAMFERB
 40
10.0
  9
$SKPOLY
 70
     0
  9
$TDCREATE
 40
2451233.9762234958
  9
$TDUPDATE
 40
2454727.788888264
  9
$TDINDWG
 40
0.6159589005
  9
$TDUSRTIMER
 40
0.6159587847
  9
$USRTIMER
 70
     1
  9
$ANGBASE
 50
0.0
  9
$ANGDIR
 70
     0
  9
$PDMODE
 70
     0
  9
$PDSIZE
 40
0.0
  9
$PLINEWID
 40
0.0
  9
$COORDS
 70
     2
  9
$SPLFRAME
 70
     0
  9
$SPLINETYPE
 70
     6
  9
$SPLINESEGS
 70
     8
  9
$ATTDIA
 70
     0
  9
$ATTREQ
 70
     1
  9
$HANDLING
 70
     1
  9
$HANDSEED
  5
1B2
  9
$SURFTAB1
 70
     6
  9
$SURFTAB2
 70
     6
  9
$SURFTYPE
 70
     6
  9
$SURFU
 70
     6
  9
$SURFV
 70
     6
  9
$UCSNAME
  2

  9
$UCSORG
 10
0.0
 20
0.0
 30
0.0
  9
$UCSXDIR
 10
1.0
 20
0.0
 30
0.0
  9
$UCSYDIR
 10
0.0
 20
1.0
 30
0.0
  9
$PUCSNAME
  2

  9
$PUCSORG
 10
0.0
 20
0.0
 30
0.0
  9
$PUCSXDIR
 10
1.0
 20
0.0
 30
0.0
  9
$PUCSYDIR
 10
0.0
 20
1.0
 30
0.0
  9
$USERI1
 70
     0
  9
$USERI2
 70
     0
  9
$USERI3
 70
     0
  9
$USERI4
 70
     0
  9
$USERI5
 70
     0
  9
$USERR1
 40
0.0
  9
$USERR2
 40
0.0
  9
$USERR3
 40
0.0
  9
$USERR4
 40
0.0
  9
$USERR5
 40
0.0
  9
$WORLDVIEW
 70
     1
  9
$SHADEDGE
 70
     3
  9
$SHADEDIF
 70
    70
  9
$TILEMODE
 70
     1
  9
$MAXACTVP
 70
    48
  9
$PLIMCHECK
 70
     0
  9
$PEXTMIN
 10
1.0000000000000000E+020
 20
1.0000000000000000E+020
 30
1.0000000000000000E+020
  9
$PEXTMAX
 10
-1.0000000000000000E+020
 20
-1.0000000000000000E+020
 30
-1.0000000000000000E+020
  9
$PLIMMIN
 10
0.0
 20
0.0
  9
$PLIMMAX
 10
420.0
 20
297.0
  9
$UNITMODE
 70
     0
  9
$VISRETAIN
 70
     0
  9
$PLINEGEN
 70
     0
  9
$PSLTSCALE
 70
     0
  0
ENDSEC
  0
SECTION
  2
TABLES
  0
TABLE
  2
VPORT
 70
     1
  0
VPORT
  2
*ACTIVE
 70
     0
 10
0.0
 20
0.0
 11
1.0
 21
1.0
 12
105.7205208804402
 22
122.21677220582281
 13
0.0
 23
0.0
 14
10.0
 24
10.0
 15
10.0
 25
10.0
 16
0.0
 26
0.0
 36
1.0
 17
0.0
 27
0.0
 37
0.0
 40
260.58130857401522
 41
1.4799498746867159
 42
50.0
 43
0.0
 44
0.0
 50
0.0
 51
0.0
 71
     0
 72
  1000
 73
     1
 74
     1
 75
     0
 76
     0
 77
     0
 78
     0
  0
ENDTAB
  0
TABLE
  2
LTYPE
 70
     2
  0
LTYPE
  2
CONTINUOUS
 70
     0
  3
Solid line
 72
    65
 73
     0
 40
0.0
  0
LTYPE
  2
CENTER
 70
     0
  3
____ _ ____ _ ____ _ ____ _ ____ _ ____ _ ____
 72
    65
 73
     4
 40
2.0
 49
1.25
 49
-0.25
 49
0.25
 49
-0.25
  0
ENDTAB
  0
TABLE
  2
LAYER
 70
     3
  0
LAYER
  2
0
 70
     0
 62
     7
  6
CONTINUOUS
  0
LAYER
  2
CENTER
 70
     0
 62
     1
  6
CENTER
  0
ENDTAB
  0
TABLE
  2
STYLE
 70
     1
  0
STYLE
  2
STANDARD
 70
     0
 40
0.0
 41
1.0
 50
0.0
 71
     0
 42
2.5
  3
txt.shx
  4

  0
ENDTAB
  0
TABLE
  2
VIEW
 70
     0
  0
ENDTAB
  0
TABLE
  2
UCS
 70
     0
  0
ENDTAB
  0
TABLE
  2
APPID
 70
     1
  0
APPID
  2
ACAD
 70
     0
  0
ENDTAB
  0
TABLE
  2
DIMSTYLE
 70
     2
  0
DIMSTYLE
  2
MISUMI
 70
     0
  3

  4

  5

  6

  7

 40
1.0
 41
3.0
 42
1.0
 43
0.0
 44
1.0
 45
0.0
 46
0.0
 47
0.0
 48
0.0
140
3.2000000000000002
141
0.0
142
0.0
143
0.04
144
1.0
145
1.0
146
0.6
147
1.0
 71
     0
 72
     0
 73
     0
 74
     0
 75
     0
 76
     0
 77
     1
 78
     8
170
     0
171
     2
172
     1
173
     0
174
     1
175
     0
176
     0
177
     0
178
     0
  0
ENDTAB
  0
ENDSEC
  0
SECTION
  2
BLOCKS
  0
BLOCK
  8
0
  2
$MODEL_SPACE
 70
     0
 10
0.0
 20
0.0
 30
0.0
  3
$MODEL_SPACE
  1

  0
ENDBLK
  5
188
  8
0
  0
BLOCK
 67
     1
  8
0
  2
$PAPER_SPACE
 70
     0
 10
0.0
 20
0.0
 30
0.0
  3
$PAPER_SPACE
  1

  0
ENDBLK
  5
184
 67
     1
  8
0
  0
ENDSEC
  0
SECTION
  2
ENTITIES
  0
TEXT
  5
2E
  8
0
 10
-4.4866789936069154
 20
-7.0888547883416191
 30
0.0
 40
5.0
  1
CSMSNU6A
  0
TEXT
  5
2F
  8
0
 10
-4.0714606877560291
 20
10.758651692951331
 30
0.0
 40
5.0
  1
CSMSNU65A
  0
LINE
  5
30
  8
0
  6
CONTINUOUS
 62
     7
 10
70.43294400000002
 20
66.503465000000006
 30
0.0
 11
70.93294400000002
 21
66.503465000000006
 31
0.0
  0
LINE
  5
31
  8
0
  6
CONTINUOUS
 62
     7
 10
70.43294400000002
 20
66.503465000000006
 30
0.0
 11
70.93294400000002
 21
66.503465000000006
 31
0.0
  0
LINE
  5
32
  8
0
  6
CONTINUOUS
 62
     7
 10
73.932944000000006
 20
75.003465000000006
 30
0.0
 11
72.932944000000006
 21
75.003465000000006
 31
0.0
  0
LINE
  5
33
  8
0
  6
CONTINUOUS
 62
     7
 10
72.932944000000006
 20
68.503465000000006
 30
0.0
 11
72.932944000000006
 21
79.003465000000006
 31
0.0
  0
ARC
  5
34
  8
0
  6
CONTINUOUS
 62
     7
 10
70.93294400000002
 20
68.503465000000006
 30
0.0
 40
2.0
 50
270.0
 51
0.0
  0
ARC
  5
35
  8
0
  6
CONTINUOUS
 62
     7
 10
68.432944000000006
 20
49.982923
 30
0.0
 40
2.0
 50
286.04044199999998
 51
0.0
  0
LINE
  5
36
  8
0
  6
CONTINUOUS
 62
     7
 10
70.43294400000002
 20
79.003465000000006
 30
0.0
 11
70.43294400000002
 21
49.982923
 31
0.0
  0
ARC
  5
37
  8
0
  6
CONTINUOUS
 62
     7
 10
57.932943999999999
 20
86.503465000000006
 30
0.0
 40
40.0
 50
253.95955799999999
 51
286.04044199999998
  0
ARC
  5
38
  8
0
  6
CONTINUOUS
 62
     7
 10
47.432943999999992
 20
49.982923
 30
0.0
 40
2.0
 50
180.0
 51
253.95955799999999
  0
LINE
  5
39
  8
0
  6
CONTINUOUS
 62
     7
 10
45.432943999999992
 20
66.503465000000006
 30
0.0
 11
44.932943999999992
 21
66.503465000000006
 31
0.0
  0
LINE
  5
3A
  8
0
  6
CONTINUOUS
 62
     7
 10
42.932943999999992
 20
75.003465000000006
 30
0.0
 11
41.932943999999999
 21
75.003465000000006
 31
0.0
  0
LINE
  5
3B
  8
0
  6
CONTINUOUS
 62
     7
 10
42.932943999999992
 20
68.503465000000006
 30
0.0
 11
42.932943999999992
 21
79.003465000000006
 31
0.0
  0
ARC
  5
3C
  8
0
  6
CONTINUOUS
 62
     7
 10
44.932943999999992
 20
68.503465000000006
 30
0.0
 40
2.0
 50
180.0
 51
270.0
  0
LINE
  5
3D
  8
0
  6
CONTINUOUS
 62
     7
 10
45.432943999999992
 20
49.982923
 30
0.0
 11
45.432943999999992
 21
79.003465000000006
 31
0.0
  0
LINE
  5
3E
  8
0
  6
CONTINUOUS
 62
     7
 10
193.4951189999999
 20
135.79971499999991
 30
0.0
 11
193.4951189999999
 21
130.599715
 31
0.0
  0
LINE
  5
3F
  8
0
  6
CONTINUOUS
 62
     7
 10
199.55729699999981
 20
135.79971499999991
 30
0.0
 11
199.55729699999981
 21
130.599715
 31
0.0
  0
LINE
  5
40
  8
0
  6
CONTINUOUS
 62
     7
 10
209.93294399999991
 20
127.3997149999999
 30
0.0
 11
209.93294399999991
 21
125.3997149999999
 31
0.0
  0
LINE
  5
41
  8
0
  6
CONTINUOUS
 62
     7
 10
208.92322299999989
 20
128.28257899999991
 30
0.0
 11
209.43294399999999
 21
127.3997149999999
 31
0.0
  0
ARC
  5
42
  8
0
  6
CONTINUOUS
 62
     7
 10
204.593096
 20
125.782579
 30
0.0
 40
5.0
 50
30.0
 51
74.456513999999999
  0
ARC
  5
43
  8
0
  6
CONTINUOUS
 62
     7
 10
204.8329439999998
 20
125.92158999999999
 30
0.0
 40
2.7781250000000002
 50
322.83952499999992
 51
349.172572
  0
LINE
  5
44
  8
CENTER
  6
CENTER
 62
     1
 10
204.8329439999998
 20
127.3997149999999
 30
0.0
 11
204.8329439999998
 21
122.2434649999999
 31
0.0
  0
LINE
  5
47
  8
0
  6
CONTINUOUS
 62
     7
 10
187.43294399999991
 20
124.2434649999999
 30
0.0
 11
209.43294399999999
 21
124.2434649999999
 31
0.0
  0
LINE
  5
48
  8
0
  6
CONTINUOUS
 62
     7
 10
209.93294399999991
 20
127.3997149999999
 30
0.0
 11
187.43294399999991
 21
127.3997149999999
 31
0.0
  0
LINE
  5
49
  8
0
  6
CONTINUOUS
 62
     7
 10
209.93294399999991
 20
125.3997149999999
 30
0.0
 11
187.43294399999991
 21
125.3997149999999
 31
0.0
  0
LINE
  5
4A
  8
0
  6
CONTINUOUS
 62
     7
 10
205.93294399999991
 20
130.599715
 30
0.0
 11
187.43294399999991
 21
130.599715
 31
0.0
  0
CIRCLE
  5
4B
  8
0
  6
CONTINUOUS
 62
     7
 10
160.43294399999979
 20
79.003465000000006
 30
0.0
 40
6.0
  0
LINE
  5
4C
  8
0
  6
CONTINUOUS
 62
     7
 10
147.93294399999979
 20
210.51523900000001
 30
0.0
 11
147.93294399999979
 21
210.01523900000001
 31
0.0
  0
ARC
  5
4D
  8
0
  6
CONTINUOUS
 62
     7
 10
149.93294399999991
 20
210.01523900000001
 30
0.0
 40
2.0
 50
180.0
 51
270.0
  0
LINE
  5
4E
  8
0
  6
CONTINUOUS
 62
     7
 10
149.93294399999991
 20
208.01523900000001
 30
0.0
 11
154.3381939999999
 21
208.01523900000001
 31
0.0
  0
LINE
  5
4F
  8
0
  6
CONTINUOUS
 62
     7
 10
149.93294399999991
 20
238.01523900000001
 30
0.0
 11
154.3381939999999
 21
238.01523900000001
 31
0.0
  0
ARC
  5
50
  8
0
  6
CONTINUOUS
 62
     7
 10
149.93294399999991
 20
236.01523900000001
 30
0.0
 40
2.0
 50
90.0
 51
180.0
  0
LINE
  5
51
  8
0
  6
CONTINUOUS
 62
     7
 10
147.93294399999979
 20
235.51523900000001
 30
0.0
 11
147.93294399999979
 21
236.01523900000001
 31
0.0
  0
LINE
  5
52
  8
0
  6
CONTINUOUS
 62
     7
 10
147.93294399999979
 20
235.51523900000001
 30
0.0
 11
147.93294399999979
 21
236.01523900000001
 31
0.0
  0
LINE
  5
53
  8
0
  6
CONTINUOUS
 62
     7
 10
153.7494709999998
 20
235.51523900000001
 30
0.0
 11
131.4124019999999
 21
235.51523900000001
 31
0.0
  0
ARC
  5
54
  8
0
  6
CONTINUOUS
 62
     7
 10
131.4124019999999
 20
233.51523900000001
 30
0.0
 40
2.0
 50
90.0
 51
163.9595579999999
  0
ARC
  5
55
  8
0
  6
CONTINUOUS
 62
     7
 10
131.4124019999999
 20
212.51523900000001
 30
0.0
 40
2.0
 50
196.04044200000001
 51
270.0
  0
LINE
  5
56
  8
0
  6
CONTINUOUS
 62
     7
 10
131.4124019999999
 20
210.51523900000001
 30
0.0
 11
153.7494709999998
 21
210.51523900000001
 31
0.0
  0
ARC
  5
57
  8
0
  6
CONTINUOUS
 62
     7
 10
167.93294399999999
 20
223.01523900000001
 30
0.0
 40
40.0
 50
163.9595579999999
 51
196.04044200000001
  0
ARC
  5
58
  8
0
  6
CONTINUOUS
 62
     7
 10
68.432944000000006
 20
108.02400799999999
 30
0.0
 40
2.0
 50
0.0
 51
73.959558000000001
  0
ARC
  5
59
  8
0
  6
CONTINUOUS
 62
     7
 10
47.432943999999992
 20
108.02400799999999
 30
0.0
 40
2.0
 50
106.040442
 51
180.0
  0
ARC
  5
5A
  8
0
  6
CONTINUOUS
 62
     7
 10
57.932943999999999
 20
71.50346500000002
 30
0.0
 40
40.0
 50
73.959558000000001
 51
106.040442
  0
LINE
  5
5B
  8
0
  6
CONTINUOUS
 62
     7
 10
72.932944000000006
 20
89.503465000000006
 30
0.0
 11
72.932944000000006
 21
79.003465000000006
 31
0.0
  0
ARC
  5
5C
  8
0
  6
CONTINUOUS
 62
     7
 10
70.93294400000002
 20
89.503465000000006
 30
0.0
 40
2.0
 50
0.0
 51
90.0
  0
LINE
  5
5D
  8
0
  6
CONTINUOUS
 62
     7
 10
70.43294400000002
 20
91.503465000000006
 30
0.0
 11
70.93294400000002
 21
91.503465000000006
 31
0.0
  0
LINE
  5
5E
  8
0
  6
CONTINUOUS
 62
     7
 10
70.43294400000002
 20
91.503465000000006
 30
0.0
 11
70.93294400000002
 21
91.503465000000006
 31
0.0
  0
LINE
  5
5F
  8
0
  6
CONTINUOUS
 62
     7
 10
70.43294400000002
 20
79.003465000000006
 30
0.0
 11
70.43294400000002
 21
108.02400799999999
 31
0.0
  0
LINE
  5
60
  8
0
  6
CONTINUOUS
 62
     7
 10
73.932944000000006
 20
83.003465000000006
 30
0.0
 11
72.932944000000006
 21
83.003465000000006
 31
0.0
  0
LINE
  5
61
  8
0
  6
CONTINUOUS
 62
     7
 10
45.432943999999992
 20
108.02400799999999
 30
0.0
 11
45.432943999999992
 21
79.003465000000006
 31
0.0
  0
ARC
  5
62
  8
0
  6
CONTINUOUS
 62
     7
 10
44.932943999999992
 20
89.503465000000006
 30
0.0
 40
2.0
 50
90.0
 51
180.0
  0
LINE
  5
63
  8
0
  6
CONTINUOUS
 62
     7
 10
45.432943999999992
 20
91.503465000000006
 30
0.0
 11
44.932943999999992
 21
91.503465000000006
 31
0.0
  0
LINE
  5
64
  8
0
  6
CONTINUOUS
 62
     7
 10
42.932943999999992
 20
83.003465000000006
 30
0.0
 11
41.932943999999999
 21
83.003465000000006
 31
0.0
  0
LINE
  5
65
  8
0
  6
CONTINUOUS
 62
     7
 10
42.932943999999992
 20
89.503465000000006
 30
0.0
 11
42.932943999999992
 21
79.003465000000006
 31
0.0
  0
ARC
  5
66
  8
0
  6
CONTINUOUS
 62
     7
 10
160.43294399999979
 20
79.003465000000006
 30
0.0
 40
32.5
 50
101.7831699999999
 51
36.216830000000002
  0
ARC
  5
67
  8
0
  6
CONTINUOUS
 62
     7
 10
160.43294399999979
 20
79.003465000000006
 30
0.0
 40
23.0
 50
110.5718779999999
 51
27.428121999999991
  0
ARC
  5
68
  8
0
  6
CONTINUOUS
 62
     7
 10
160.43294399999979
 20
79.003465000000006
 30
0.0
 40
12.5
 50
143.6423629999999
 51
354.35763700000001
  0
LINE
  5
69
  8
0
  6
CONTINUOUS
 62
     7
 10
76.932944000000006
 20
73.003465000000006
 30
0.0
 11
76.332943999999998
 21
73.003465000000006
 31
0.0
  0
ARC
  5
6A
  8
0
  6
CONTINUOUS
 62
     7
 10
76.332943999999998
 20
73.403464999999983
 30
0.0
 40
0.4
 50
180.0
 51
270.0
  0
LINE
  5
6B
  8
0
  6
CONTINUOUS
 62
     7
 10
75.932944000000006
 20
84.603464999999986
 30
0.0
 11
75.932944000000006
 21
73.403464999999983
 31
0.0
  0
LINE
  5
6C
  8
0
  6
CONTINUOUS
 62
     7
 10
76.932944000000006
 20
85.003465000000006
 30
0.0
 11
76.332943999999998
 21
85.003465000000006
 31
0.0
  0
ARC
  5
6D
  8
0
  6
CONTINUOUS
 62
     7
 10
76.332943999999998
 20
84.603464999999986
 30
0.0
 40
0.4
 50
90.0
 51
180.0
  0
ARC
  5
6E
  8
0
  6
CONTINUOUS
 62
     7
 10
76.932944000000006
 20
83.003465000000006
 30
0.0
 40
2.0
 50
0.0
 51
90.0
  0
LINE
  5
6F
  8
0
  6
CONTINUOUS
 62
     7
 10
76.332943999999998
 20
73.003465000000006
 30
0.0
 11
76.932944000000006
 21
73.003465000000006
 31
0.0
  0
ARC
  5
70
  8
0
  6
CONTINUOUS
 62
     7
 10
76.932944000000006
 20
75.003465000000006
 30
0.0
 40
2.0
 50
270.0
 51
0.0
  0
LINE
  5
71
  8
0
  6
CONTINUOUS
 62
     7
 10
78.932944000000006
 20
75.003465000000006
 30
0.0
 11
78.932944000000006
 21
83.003465000000006
 31
0.0
  0
LINE
  5
72
  8
0
  6
CONTINUOUS
 62
     7
 10
199.55729699999981
 20
223.01523900000001
 30
0.0
 11
193.4951189999999
 21
212.51523900000001
 31
0.0
  0
LINE
  5
73
  8
0
  6
CONTINUOUS
 62
     7
 10
199.55729699999981
 20
223.01523900000001
 30
0.0
 11
193.4951189999999
 21
233.51523900000001
 31
0.0
  0
ARC
  5
74
  8
0
  6
CONTINUOUS
 62
     7
 10
187.43294399999991
 20
223.01523900000001
 30
0.0
 40
12.0
 50
1.044953
 51
58.955047
  0
LINE
  5
75
  8
0
  6
CONTINUOUS
 62
     7
 10
175.30859100000001
 20
223.01523900000001
 30
0.0
 11
181.370769
 21
212.51523900000001
 31
0.0
  0
LINE
  5
76
  8
0
  6
CONTINUOUS
 62
     7
 10
175.30859100000001
 20
223.01523900000001
 30
0.0
 11
181.370769
 21
233.51523900000001
 31
0.0
  0
LINE
  5
77
  8
0
  6
CONTINUOUS
 62
     7
 10
193.4951189999999
 20
233.51523900000001
 30
0.0
 11
181.370769
 21
233.51523900000001
 31
0.0
  0
LINE
  5
78
  8
0
  6
CONTINUOUS
 62
     7
 10
193.4951189999999
 20
212.51523900000001
 30
0.0
 11
181.370769
 21
212.51523900000001
 31
0.0
  0
CIRCLE
  5
79
  8
0
  6
CONTINUOUS
 62
     7
 10
187.43294399999991
 20
223.01523900000001
 30
0.0
 40
4.5
  0
CIRCLE
  5
7A
  8
0
  6
CONTINUOUS
 62
     3
 10
187.43294399999991
 20
223.01523900000001
 30
0.0
 40
5.049999999999998
  0
CIRCLE
  5
7B
  8
0
  6
CONTINUOUS
 62
     7
 10
187.43294399999991
 20
223.01523900000001
 30
0.0
 40
6.0
  0
ARC
  5
7C
  8
0
  6
CONTINUOUS
 62
     7
 10
187.43294399999991
 20
223.01523900000001
 30
0.0
 40
12.0
 50
61.044975999999998
 51
118.9550239999999
  0
ARC
  5
7D
  8
0
  6
CONTINUOUS
 62
     7
 10
187.43294399999991
 20
223.01523900000001
 30
0.0
 40
12.0
 50
301.04495300000002
 51
358.95504699999992
  0
ARC
  5
7E
  8
0
  6
CONTINUOUS
 62
     7
 10
187.43294399999991
 20
223.01523900000001
 30
0.0
 40
12.0
 50
241.04497599999999
 51
298.95502399999992
  0
ARC
  5
7F
  8
0
  6
CONTINUOUS
 62
     7
 10
187.43294399999991
 20
223.01523900000001
 30
0.0
 40
12.0
 50
181.04495299999991
 51
238.95504700000001
  0
ARC
  5
80
  8
0
  6
CONTINUOUS
 62
     7
 10
187.43294399999991
 20
223.01523900000001
 30
0.0
 40
12.0
 50
121.04495300000001
 51
178.95504700000001
  0
ARC
  5
81
  8
0
  6
CONTINUOUS
 62
     7
 10
164.43294399999991
 20
204.01523900000001
 30
0.0
 40
2.0
 50
270.0
 51
0.0
  0
LINE
  5
82
  8
0
  6
CONTINUOUS
 62
     7
 10
166.43294399999991
 20
204.01523900000001
 30
0.0
 11
166.43294399999991
 21
204.615239
 31
0.0
  0
ARC
  5
83
  8
0
  6
CONTINUOUS
 62
     7
 10
166.0329439999999
 20
204.615239
 30
0.0
 40
0.4
 50
0.0
 51
90.0
  0
LINE
  5
84
  8
0
  6
CONTINUOUS
 62
     7
 10
154.43294399999999
 20
204.615239
 30
0.0
 11
154.43294399999999
 21
204.01523900000001
 31
0.0
  0
ARC
  5
85
  8
0
  6
CONTINUOUS
 62
     7
 10
154.832944
 20
204.615239
 30
0.0
 40
0.4
 50
90.0
 51
180.0
  0
ARC
  5
86
  8
0
  6
CONTINUOUS
 62
     7
 10
156.43294399999991
 20
204.01523900000001
 30
0.0
 40
2.0
 50
180.0
 51
270.0
  0
LINE
  5
87
  8
0
  6
CONTINUOUS
 62
     7
 10
166.0329439999999
 20
205.01523900000001
 30
0.0
 11
154.832944
 21
205.01523900000001
 31
0.0
  0
LINE
  5
88
  8
0
  6
CONTINUOUS
 62
     7
 10
156.43294399999991
 20
202.01523900000001
 30
0.0
 11
164.43294399999991
 21
202.01523900000001
 31
0.0
  0
LINE
  5
89
  8
0
  6
CONTINUOUS
 62
     7
 10
57.932943999999999
 20
170.79971499999991
 30
0.0
 11
62.432943999999992
 21
170.79971499999991
 31
0.0
  0
LINE
  5
8A
  8
0
  6
CONTINUOUS
 62
     7
 10
57.932943999999999
 20
169.29971499999999
 30
0.0
 11
63.932943999999999
 21
169.29971499999999
 31
0.0
  0
LINE
  5
8B
  8
0
  6
CONTINUOUS
 62
     7
 10
63.932943999999999
 20
169.29971499999999
 30
0.0
 11
62.432943999999992
 21
170.79971499999991
 31
0.0
  0
LINE
  5
8C
  8
0
  6
CONTINUOUS
 62
     7
 10
51.932943999999999
 20
169.29971499999999
 30
0.0
 11
53.432943999999999
 21
170.79971499999991
 31
0.0
  0
LINE
  5
8D
  8
0
  6
CONTINUOUS
 62
     7
 10
57.932943999999999
 20
170.79971499999991
 30
0.0
 11
53.432943999999999
 21
170.79971499999991
 31
0.0
  0
LINE
  5
8E
  8
0
  6
CONTINUOUS
 62
     7
 10
57.932943999999999
 20
169.29971499999999
 30
0.0
 11
51.932943999999999
 21
169.29971499999999
 31
0.0
  0
LINE
  5
8F
  8
0
  6
CONTINUOUS
 62
     7
 10
68.432944000000006
 20
135.79971499999991
 30
0.0
 11
68.432944000000006
 21
130.599715
 31
0.0
  0
LINE
  5
90
  8
0
  6
CONTINUOUS
 62
     7
 10
68.432944000000006
 20
135.79971499999991
 30
0.0
 11
68.432944000000006
 21
130.599715
 31
0.0
  0
ARC
  5
91
  8
0
  6
CONTINUOUS
 62
     7
 10
64.532944000000001
 20
136.39971499999979
 30
0.0
 40
0.6
 50
180.0
 51
270.0
  0
LINE
  5
92
  8
0
  6
CONTINUOUS
 62
     3
 10
63.932943999999999
 20
136.39971499999979
 30
0.0
 11
62.982944000000003
 21
138.0451639999998
 31
0.0
  0
LINE
  5
93
  8
0
  6
CONTINUOUS
 62
     7
 10
63.932943999999999
 20
138.0451639999998
 30
0.0
 11
57.932943999999999
 21
138.0451639999998
 31
0.0
  0
LINE
  5
94
  8
0
  6
CONTINUOUS
 62
     7
 10
57.932943999999999
 20
135.79971499999991
 30
0.0
 11
57.932943999999999
 21
130.599715
 31
0.0
  0
LINE
  5
95
  8
0
  6
CONTINUOUS
 62
     3
 10
51.932943999999999
 20
136.39971499999979
 30
0.0
 11
52.882944000000002
 21
138.0451639999998
 31
0.0
  0
ARC
  5
96
  8
0
  6
CONTINUOUS
 62
     7
 10
51.332943999999998
 20
136.39971499999979
 30
0.0
 40
0.6
 50
270.0
 51
0.0
  0
LINE
  5
97
  8
0
  6
CONTINUOUS
 62
     7
 10
51.932943999999999
 20
138.0451639999998
 30
0.0
 11
57.932943999999999
 21
138.0451639999998
 31
0.0
  0
LINE
  5
98
  8
0
  6
CONTINUOUS
 62
     7
 10
57.932943999999999
 20
135.79971499999991
 30
0.0
 11
68.432944000000006
 21
135.79971499999991
 31
0.0
  0
LINE
  5
99
  8
0
  6
CONTINUOUS
 62
     7
 10
47.432943999999992
 20
135.79971499999991
 30
0.0
 11
47.432943999999992
 21
130.599715
 31
0.0
  0
LINE
  5
9A
  8
0
  6
CONTINUOUS
 62
     7
 10
57.932943999999999
 20
135.79971499999991
 30
0.0
 11
47.432943999999992
 21
135.79971499999991
 31
0.0
  0
LINE
  5
9B
  8
0
  6
CONTINUOUS
 62
     7
 10
51.932943999999999
 20
169.29971499999999
 30
0.0
 11
51.932943999999999
 21
136.39971499999979
 31
0.0
  0
LINE
  5
9C
  8
0
  6
CONTINUOUS
 62
     3
 10
52.882944000000002
 20
138.0451639999998
 30
0.0
 11
52.882944000000002
 21
170.24971500000001
 31
0.0
  0
LINE
  5
9D
  8
0
  6
CONTINUOUS
 62
     3
 10
62.982944000000003
 20
138.0451639999998
 30
0.0
 11
62.982944000000003
 21
170.24971500000001
 31
0.0
  0
LINE
  5
9E
  8
0
  6
CONTINUOUS
 62
     7
 10
63.932943999999999
 20
169.29971499999999
 30
0.0
 11
63.932943999999999
 21
136.39971499999979
 31
0.0
  0
LINE
  5
9F
  8
0
  6
CONTINUOUS
 62
     7
 10
193.43294399999991
 20
169.29971499999999
 30
0.0
 11
191.93294399999999
 21
170.79971499999991
 31
0.0
  0
LINE
  5
A0
  8
0
  6
CONTINUOUS
 62
     7
 10
181.43294399999991
 20
169.29971499999999
 30
0.0
 11
182.93294399999999
 21
170.79971499999991
 31
0.0
  0
LINE
  5
A1
  8
0
  6
CONTINUOUS
 62
     7
 10
193.43294399999991
 20
169.29971499999999
 30
0.0
 11
181.43294399999991
 21
169.29971499999999
 31
0.0
  0
LINE
  5
A2
  8
0
  6
CONTINUOUS
 62
     7
 10
191.93294399999999
 20
170.79971499999991
 30
0.0
 11
182.93294399999999
 21
170.79971499999991
 31
0.0
  0
LINE
  5
A3
  8
0
  6
CONTINUOUS
 62
     7
 10
193.43294399999991
 20
136.39971499999979
 30
0.0
 11
193.43294399999991
 21
169.29971499999999
 31
0.0
  0
LINE
  5
A4
  8
0
  6
CONTINUOUS
 62
     3
 10
192.482944
 20
170.24971500000001
 30
0.0
 11
192.482944
 21
138.0451639999998
 31
0.0
  0
LINE
  5
A5
  8
0
  6
CONTINUOUS
 62
     3
 10
182.38294400000001
 20
138.0451639999998
 30
0.0
 11
182.38294400000001
 21
170.24971500000001
 31
0.0
  0
LINE
  5
A6
  8
0
  6
CONTINUOUS
 62
     7
 10
181.43294399999991
 20
169.29971499999999
 30
0.0
 11
181.43294399999991
 21
136.39971499999979
 31
0.0
  0
LINE
  5
A7
  8
0
  6
CONTINUOUS
 62
     3
 10
193.43294399999991
 20
136.39971499999979
 30
0.0
 11
192.482944
 21
138.0451639999998
 31
0.0
  0
ARC
  5
A8
  8
0
  6
CONTINUOUS
 62
     7
 10
194.03294399999999
 20
136.39971499999979
 30
0.0
 40
0.6
 50
180.0
 51
270.0
  0
LINE
  5
A9
  8
0
  6
CONTINUOUS
 62
     3
 10
181.43294399999991
 20
136.39971499999979
 30
0.0
 11
182.38294400000001
 21
138.0451639999998
 31
0.0
  0
ARC
  5
AA
  8
0
  6
CONTINUOUS
 62
     7
 10
180.83294399999991
 20
136.39971499999979
 30
0.0
 40
0.6
 50
270.0
 51
0.0
  0
LINE
  5
AB
  8
0
  6
CONTINUOUS
 62
     7
 10
181.370769
 20
135.79971499999991
 30
0.0
 11
181.370769
 21
130.599715
 31
0.0
  0
LINE
  5
AC
  8
0
  6
CONTINUOUS
 62
     7
 10
175.30859100000001
 20
135.79971499999991
 30
0.0
 11
175.30859100000001
 21
130.599715
 31
0.0
  0
LINE
  5
AD
  8
0
  6
CONTINUOUS
 62
     7
 10
199.55729699999981
 20
135.79971499999991
 30
0.0
 11
175.30859100000001
 21
135.79971499999991
 31
0.0
  0
LINE
  5
AE
  8
0
  6
CONTINUOUS
 62
     7
 10
181.43294399999991
 20
138.0451639999998
 30
0.0
 11
193.43294399999991
 21
138.0451639999998
 31
0.0
  0
LINE
  5
AF
  8
0
  6
CONTINUOUS
 62
     7
 10
156.43294399999991
 20
243.01523899999989
 30
0.0
 11
164.43294399999991
 21
243.01523899999989
 31
0.0
  0
LINE
  5
B0
  8
CENTER
  6
CENTER
 62
     1
 10
160.43294399999979
 20
199.01523900000001
 30
0.0
 11
160.43294399999979
 21
246.01523900000001
 31
0.0
  0
ARC
  5
B1
  8
0
  6
CONTINUOUS
 62
     7
 10
156.43294399999991
 20
241.01523899999989
 30
0.0
 40
2.0
 50
90.0
 51
180.0
  0
ARC
  5
B2
  8
0
  6
CONTINUOUS
 62
     7
 10
164.43294399999991
 20
241.01523899999989
 30
0.0
 40
2.0
 50
0.0
 51
90.0
  0
CIRCLE
  5
B3
  8
0
  6
CONTINUOUS
 62
     7
 10
187.43294399999991
 20
223.01523900000001
 30
0.0
 40
22.0
  0
ARC
  5
B4
  8
0
  6
CONTINUOUS
 62
     7
 10
170.27279200000001
 20
125.782579
 30
0.0
 40
5.0
 50
105.543486
 51
150.0
  0
LINE
  5
B5
  8
0
  6
CONTINUOUS
 62
     7
 10
165.94266500000001
 20
128.28257899999991
 30
0.0
 11
165.43294399999979
 21
127.3997149999999
 31
0.0
  0
LINE
  5
B6
  8
0
  6
CONTINUOUS
 62
     7
 10
164.93294399999991
 20
127.3997149999999
 30
0.0
 11
164.93294399999991
 21
125.3997149999999
 31
0.0
  0
LINE
  5
B7
  8
0
  6
CONTINUOUS
 62
     7
 10
168.93294399999991
 20
130.599715
 30
0.0
 11
187.43294399999991
 21
130.599715
 31
0.0
  0
LINE
  5
B8
  8
0
  6
CONTINUOUS
 62
     7
 10
164.93294399999991
 20
125.3997149999999
 30
0.0
 11
187.43294399999991
 21
125.3997149999999
 31
0.0
  0
LINE
  5
B9
  8
0
  6
CONTINUOUS
 62
     7
 10
164.93294399999991
 20
127.3997149999999
 30
0.0
 11
187.43294399999991
 21
127.3997149999999
 31
0.0
  0
LINE
  5
BA
  8
0
  6
CONTINUOUS
 62
     7
 10
80.432944000000006
 20
127.3997149999999
 30
0.0
 11
80.432944000000006
 21
125.3997149999999
 31
0.0
  0
LINE
  5
BB
  8
0
  6
CONTINUOUS
 62
     7
 10
79.423222999999979
 20
128.28257899999991
 30
0.0
 11
79.932944000000006
 21
127.3997149999999
 31
0.0
  0
LINE
  5
BC
  8
0
  6
CONTINUOUS
 62
     7
 10
76.432944000000006
 20
130.599715
 30
0.0
 11
57.932943999999999
 21
130.599715
 31
0.0
  0
LINE
  5
BD
  8
0
  6
CONTINUOUS
 62
     7
 10
36.442664999999998
 20
128.28257899999991
 30
0.0
 11
35.932943999999992
 21
127.3997149999999
 31
0.0
  0
LINE
  5
BE
  8
0
  6
CONTINUOUS
 62
     7
 10
35.432943999999999
 20
127.3997149999999
 30
0.0
 11
35.432943999999999
 21
125.3997149999999
 31
0.0
  0
ARC
  5
BF
  8
0
  6
CONTINUOUS
 62
     7
 10
40.772792000000003
 20
125.782579
 30
0.0
 40
5.0
 50
105.543486
 51
150.0
  0
LINE
  5
C0
  8
0
  6
CONTINUOUS
 62
     7
 10
35.432943999999999
 20
125.3997149999999
 30
0.0
 11
57.932943999999999
 21
125.3997149999999
 31
0.0
  0
LINE
  5
C1
  8
0
  6
CONTINUOUS
 62
     7
 10
35.432943999999999
 20
127.3997149999999
 30
0.0
 11
57.932943999999999
 21
127.3997149999999
 31
0.0
  0
LINE
  5
C2
  8
0
  6
CONTINUOUS
 62
     7
 10
39.432943999999999
 20
130.599715
 30
0.0
 11
57.932943999999999
 21
130.599715
 31
0.0
  0
ARC
  5
C3
  8
0
  6
CONTINUOUS
 62
     7
 10
39.932943999999992
 20
83.003465000000006
 30
0.0
 40
2.0
 50
90.0
 51
180.0
  0
ARC
  5
C4
  8
0
  6
CONTINUOUS
 62
     7
 10
39.932943999999992
 20
75.003465000000006
 30
0.0
 40
2.0
 50
180.0
 51
270.0
  0
LINE
  5
C5
  8
0
  6
CONTINUOUS
 62
     7
 10
37.932943999999999
 20
75.003465000000006
 30
0.0
 11
37.932943999999999
 21
83.003465000000006
 31
0.0
  0
LINE
  5
C6
  8
CENTER
  6
CENTER
 62
     1
 10
81.932944000000006
 20
79.003465000000006
 30
0.0
 11
34.932943999999992
 21
79.003465000000006
 31
0.0
  0
LINE
  5
C7
  8
0
  6
CONTINUOUS
 62
     7
 10
80.432944000000006
 20
127.3997149999999
 30
0.0
 11
57.932943999999999
 21
127.3997149999999
 31
0.0
  0
ARC
  5
C8
  8
0
  6
CONTINUOUS
 62
     7
 10
75.093096000000003
 20
125.782579
 30
0.0
 40
5.0
 50
30.0
 51
74.456513999999999
  0
LINE
  5
C9
  8
0
  6
CONTINUOUS
 62
     7
 10
80.432944000000006
 20
125.3997149999999
 30
0.0
 11
57.932943999999999
 21
125.3997149999999
 31
0.0
  0
LINE
  5
CA
  8
CENTER
  6
CENTER
 62
     1
 10
187.43294399999991
 20
251.51523900000001
 30
0.0
 11
187.43294399999991
 21
194.51523900000001
 31
0.0
  0
LINE
  5
CB
  8
CENTER
  6
CENTER
 62
     1
 10
215.93294399999999
 20
223.01523900000001
 30
0.0
 11
124.93294400000001
 21
223.01523900000001
 31
0.0
  0
LINE
  5
CC
  8
CENTER
  6
CENTER
 62
     1
 10
170.0329439999999
 20
127.3997149999999
 30
0.0
 11
170.0329439999999
 21
122.2434649999999
 31
0.0
  0
ARC
  5
CD
  8
0
  6
CONTINUOUS
 62
     7
 10
170.0329439999999
 20
125.92158999999999
 30
0.0
 40
2.7781250000000002
 50
190.827428
 51
217.16047499999991
  0
LINE
  5
CE
  8
CENTER
  6
CENTER
 62
     1
 10
187.43294399999991
 20
173.79971499999991
 30
0.0
 11
187.43294399999991
 21
96.761403000000001
 31
0.0
  0
ARC
  5
CF
  8
0
  6
CONTINUOUS
 62
     7
 10
75.332943999999983
 20
125.92158999999999
 30
0.0
 40
2.7781250000000002
 50
322.83952499999992
 51
349.172572
  0
LINE
  5
D0
  8
CENTER
  6
CENTER
 62
     1
 10
75.332943999999983
 20
127.3997149999999
 30
0.0
 11
75.332943999999983
 21
122.2434649999999
 31
0.0
  0
ARC
  5
D1
  8
0
  6
CONTINUOUS
 62
     7
 10
40.532944000000001
 20
125.92158999999999
 30
0.0
 40
2.7781250000000002
 50
190.827428
 51
217.16047499999991
  0
LINE
  5
D2
  8
CENTER
  6
CENTER
 62
     1
 10
40.532944000000001
 20
127.3997149999999
 30
0.0
 11
40.532944000000001
 21
122.2434649999999
 31
0.0
  0
LINE
  5
D3
  8
CENTER
  6
CENTER
 62
     1
 10
57.932943999999999
 20
173.79971499999991
 30
0.0
 11
57.932943999999999
 21
43.503464999999991
 31
0.0
  0
ARC
  5
D4
  8
0
  6
CONTINUOUS
 62
     7
 10
167.77969999999991
 20
245.01523899999989
 30
0.0
 40
4.0
 50
270.0
 51
311.77534800000001
  0
LINE
  5
D5
  8
0
  6
CONTINUOUS
 62
     7
 10
154.87942199999981
 20
241.01523899999989
 30
0.0
 11
154.87942199999981
 21
239.97377800000001
 31
0.0
  0
LINE
  5
D6
  8
0
  6
CONTINUOUS
 62
     7
 10
149.539995
 20
241.01523899999989
 30
0.0
 11
149.539995
 21
239.01523900000001
 31
0.0
  0
LINE
  5
D7
  8
0
  6
CONTINUOUS
 62
     7
 10
154.605615
 20
239.01523900000001
 30
0.0
 11
149.539995
 21
239.01523900000001
 31
0.0
  0
LINE
  5
D8
  8
0
  6
CONTINUOUS
 62
     7
 10
167.77969999999991
 20
241.01523899999989
 30
0.0
 11
149.539995
 21
241.01523899999989
 31
0.0
  0
ARC
  5
D9
  8
0
  6
CONTINUOUS
 62
     7
 10
167.77969999999991
 20
201.01523900000001
 30
0.0
 40
4.0
 50
48.224651999999992
 51
90.0
  0
LINE
  5
DA
  8
0
  6
CONTINUOUS
 62
     7
 10
154.605615
 20
207.01523900000001
 30
0.0
 11
149.539995
 21
207.01523900000001
 31
0.0
  0
LINE
  5
DB
  8
0
  6
CONTINUOUS
 62
     7
 10
154.87942199999981
 20
206.05669900000001
 30
0.0
 11
154.87942199999981
 21
205.01523900000001
 31
0.0
  0
LINE
  5
DC
  8
0
  6
CONTINUOUS
 62
     7
 10
149.539995
 20
205.01523900000001
 30
0.0
 11
149.539995
 21
207.01523900000001
 31
0.0
  0
LINE
  5
DD
  8
0
  6
CONTINUOUS
 62
     7
 10
167.77969999999991
 20
205.01523900000001
 30
0.0
 11
149.539995
 21
205.01523900000001
 31
0.0
  0
ARC
  5
DE
  8
0
  6
CONTINUOUS
 62
     7
 10
187.43294399999991
 20
223.01523900000001
 30
0.0
 40
25.5
 50
138.18968499999991
 51
221.81031500000009
  0
ARC
  5
DF
  8
0
  6
CONTINUOUS
 62
     7
 10
212.43294399999991
 20
223.01523900000001
 30
0.0
 40
60.0
 50
163.5820299999998
 51
196.41797
  0
ARC
  5
E0
  8
0
  6
CONTINUOUS
 62
     7
 10
187.43294399999991
 20
223.01523900000001
 30
0.0
 40
25.5
 50
228.22465199999999
 51
131.77534800000001
  0
CIRCLE
  5
E1
  8
0
  6
CONTINUOUS
 62
     7
 10
187.43294399999991
 20
223.01523900000001
 30
0.0
 40
22.5
  0
LINE
  5
E2
  8
0
  6
CONTINUOUS
 62
     7
 10
79.932944000000006
 20
124.2434649999999
 30
0.0
 11
35.932943999999992
 21
124.2434649999999
 31
0.0
  0
LINE
  5
E3
  8
0
  6
CONTINUOUS
 62
     7
 10
187.43294399999991
 20
124.2434649999999
 30
0.0
 11
165.43294399999979
 21
124.2434649999999
 31
0.0
  0
LINE
  5
E4
  8
CENTER
  6
CENTER
 62
     1
 10
124.93294400000001
 20
79.003465000000006
 30
0.0
 11
195.93294399999991
 21
79.003465000000006
 31
0.0
  0
LINE
  5
E5
  8
CENTER
  6
CENTER
 62
     1
 10
160.43294399999979
 20
43.503464999999991
 30
0.0
 11
160.43294399999979
 21
88.003465000000006
 31
0.0
  0
ARC
  5
E6
  8
0
  6
CONTINUOUS
 62
     7
 10
79.932944000000006
 20
120.7434649999999
 30
0.0
 40
3.5
 50
0.0
 51
90.0
  0
ARC
  5
E7
  8
0
  6
CONTINUOUS
 62
     7
 10
71.93294400000002
 20
114.319934
 30
0.0
 40
2.0
 50
0.0
 51
90.0
  0
LINE
  5
E8
  8
0
  6
CONTINUOUS
 62
     7
 10
83.432944000000006
 20
120.7434649999999
 30
0.0
 11
83.432944000000006
 21
99.361402999999996
 31
0.0
  0
ARC
  5
E9
  8
0
  6
CONTINUOUS
 62
     7
 10
71.93294400000002
 20
114.31232300000001
 30
0.0
 40
4.0
 50
0.0
 51
90.0
  0
LINE
  5
EA
  8
0
  6
CONTINUOUS
 62
     7
 10
73.932944000000006
 20
68.003465000000006
 30
0.0
 11
75.932944000000006
 21
68.003465000000006
 31
0.0
  0
ARC
  5
EB
  8
0
  6
CONTINUOUS
 62
     7
 10
81.972100999999967
 20
70.816575
 30
0.0
 40
6.0391570000000003
 50
158.76964100000001
 51
180.0
  0
LINE
  5
EC
  8
0
  6
CONTINUOUS
 62
     7
 10
73.932944000000006
 20
68.003465000000006
 30
0.0
 11
73.932944000000006
 21
114.319934
 31
0.0
  0
LINE
  5
ED
  8
0
  6
CONTINUOUS
 62
     7
 10
75.932944000000006
 20
68.003465000000006
 30
0.0
 11
75.932944000000006
 21
114.31232300000001
 31
0.0
  0
ARC
  5
EE
  8
0
  6
CONTINUOUS
 62
     7
 10
31.246072000000002
 20
99.361402999999996
 30
0.0
 40
52.186872000000001
 50
336.03185000000002
 51
0.0
  0
ARC
  5
EF
  8
0
  6
CONTINUOUS
 62
     7
 10
35.932943999999992
 20
120.7434649999999
 30
0.0
 40
3.5
 50
90.0
 51
180.0
  0
ARC
  5
F0
  8
0
  6
CONTINUOUS
 62
     7
 10
43.932943999999999
 20
114.319934
 30
0.0
 40
2.0
 50
90.0
 51
180.0
  0
LINE
  5
F1
  8
0
  6
CONTINUOUS
 62
     7
 10
32.432943999999992
 20
120.7434649999999
 30
0.0
 11
32.432943999999992
 21
99.361402999999996
 31
0.0
  0
ARC
  5
F2
  8
0
  6
CONTINUOUS
 62
     7
 10
43.932943999999999
 20
114.31232300000001
 30
0.0
 40
4.0
 50
90.0
 51
180.0
  0
LINE
  5
F3
  8
0
  6
CONTINUOUS
 62
     7
 10
39.932943999999992
 20
68.003465000000006
 30
0.0
 11
41.932943999999999
 21
68.003465000000006
 31
0.0
  0
ARC
  5
F4
  8
0
  6
CONTINUOUS
 62
     7
 10
33.893787000000003
 20
70.816575
 30
0.0
 40
6.0391570000000003
 50
0.0
 51
21.53792399999999
  0
LINE
  5
F5
  8
0
  6
CONTINUOUS
 62
     7
 10
41.932943999999999
 20
68.003465000000006
 30
0.0
 11
41.932943999999999
 21
114.319934
 31
0.0
  0
LINE
  5
F6
  8
0
  6
CONTINUOUS
 62
     7
 10
39.932943999999992
 20
68.003465000000006
 30
0.0
 11
39.932943999999992
 21
114.31232300000001
 31
0.0
  0
ARC
  5
F7
  8
0
  6
CONTINUOUS
 62
     7
 10
84.619815999999986
 20
99.361402999999996
 30
0.0
 40
52.186872000000001
 50
180.0
 51
206.54168300000001
  0
LINE
  5
F8
  8
0
  6
CONTINUOUS
 62
     7
 10
43.932943999999999
 20
116.319934
 30
0.0
 11
71.93294400000002
 21
116.319934
 31
0.0
  0
LINE
  5
F9
  8
0
  6
CONTINUOUS
 62
     7
 10
71.93294400000002
 20
118.31232300000001
 30
0.0
 11
43.932943999999999
 21
118.31232300000001
 31
0.0
  0
LINE
  5
FA
  8
0
  6
CONTINUOUS
 62
     7
 10
73.932944000000006
 20
114.2434649999999
 30
0.0
 11
41.932943999999999
 21
114.2434649999999
 31
0.0
  0
LINE
  5
FB
  8
0
  6
CONTINUOUS
 62
     7
 10
212.93294399999991
 20
120.7434649999999
 30
0.0
 11
212.93294399999991
 21
114.2434649999999
 31
0.0
  0
ARC
  5
FC
  8
0
  6
CONTINUOUS
 62
     7
 10
209.43294399999999
 20
120.7434649999999
 30
0.0
 40
3.5
 50
0.0
 51
90.0
  0
ARC
  5
FD
  8
0
  6
CONTINUOUS
 62
     7
 10
203.8515349999999
 20
102.243465
 30
0.0
 40
12.0
 50
90.0
 51
146.0
  0
LINE
  5
FE
  8
0
  6
CONTINUOUS
 62
     7
 10
203.8515349999999
 20
114.2434649999999
 30
0.0
 11
212.93294399999991
 21
114.2434649999999
 31
0.0
  0
LINE
  5
FF
  8
0
  6
CONTINUOUS
 62
     7
 10
161.93294399999999
 20
120.7434649999999
 30
0.0
 11
161.93294399999999
 21
120.517962
 31
0.0
  0
ARC
  5
100
  8
0
  6
CONTINUOUS
 62
     7
 10
165.43294399999979
 20
120.7434649999999
 30
0.0
 40
3.5
 50
90.0
 51
180.0
  0
LINE
  5
101
  8
0
  6
CONTINUOUS
 62
     7
 10
152.43294399999991
 20
118.31232300000001
 30
0.0
 11
152.60725600000001
 21
116.319934
 31
0.0
  0
LINE
  5
102
  8
0
  6
CONTINUOUS
 62
     7
 10
154.5937539999999
 20
116.49373
 30
0.0
 11
152.60725600000001
 21
116.319934
 31
0.0
  0
LINE
  5
103
  8
0
  6
CONTINUOUS
 62
     7
 10
168.426366
 20
119.71156599999991
 30
0.0
 11
152.43294399999991
 21
118.31232300000001
 31
0.0
  0
ARC
  5
104
  8
0
  6
CONTINUOUS
 62
     7
 10
160.43294399999979
 20
120.517962
 30
0.0
 40
1.5
 50
275.0
 51
0.0
  0
ARC
  5
105
  8
0
  6
CONTINUOUS
 62
     7
 10
160.43294399999979
 20
79.003465000000006
 30
0.0
 40
11.0
 50
172.0
 51
326.0
  0
LINE
  5
106
  8
0
  6
CONTINUOUS
 62
     7
 10
149.539995
 20
80.534369999999981
 30
0.0
 11
154.87942199999981
 21
118.52636200000001
 31
0.0
  0
LINE
  5
107
  8
0
  6
CONTINUOUS
 62
     7
 10
169.67456599999991
 20
120.7434649999999
 30
0.0
 11
169.67456599999991
 21
74.175068999999979
 31
0.0
  0
LINE
  5
108
  8
0
  6
CONTINUOUS
 62
     7
 10
193.90308400000001
 20
108.95377999999999
 30
0.0
 11
169.5523569999998
 21
72.852344000000002
 31
0.0
  0
LINE
  5
109
  8
0
  6
CONTINUOUS
 62
     7
 10
56.441546000000002
 20
114.574715
 30
0.0
 11
59.424343000000007
 21
114.574715
 31
0.0
  0
LINE
  5
10A
  8
0
  6
CONTINUOUS
 62
     7
 10
61.397046000000003
 20
114.574715
 30
0.0
 11
64.379842999999994
 21
114.574715
 31
0.0
  0
LINE
  5
10B
  8
0
  6
CONTINUOUS
 62
     7
 10
54.468843
 20
114.574715
 30
0.0
 11
51.486046000000002
 21
114.574715
 31
0.0
  0
LINE
  5
10C
  8
0
  6
CONTINUOUS
 62
     7
 10
56.441546000000002
 20
114.574715
 30
0.0
 11
55.01605
 21
116.319934
 31
0.0
  0
LINE
  5
10D
  8
0
  6
CONTINUOUS
 62
     7
 10
54.57475500000001
 20
116.319934
 30
0.0
 11
52.977443999999998
 21
114.574715
 31
0.0
  0
LINE
  5
10E
  8
0
  6
CONTINUOUS
 62
     7
 10
51.486046000000002
 20
114.574715
 30
0.0
 11
51.816555000000001
 21
116.319934
 31
0.0
  0
LINE
  5
10F
  8
0
  6
CONTINUOUS
 62
     7
 10
64.379842999999994
 20
114.574715
 30
0.0
 11
64.049334000000002
 21
116.319934
 31
0.0
  0
LINE
  5
110
  8
0
  6
CONTINUOUS
 62
     7
 10
61.291133000000002
 20
116.319934
 30
0.0
 11
62.888443999999993
 21
114.574715
 31
0.0
  0
LINE
  5
111
  8
0
  6
CONTINUOUS
 62
     7
 10
59.424343000000007
 20
114.574715
 30
0.0
 11
60.849837999999991
 21
116.319934
 31
0.0
  0
LINE
  5
112
  8
0
  6
CONTINUOUS
 62
     7
 10
60.056511999999991
 20
115.34867300000001
 30
0.0
 11
61.397046000000003
 21
114.574715
 31
0.0
  0
LINE
  5
113
  8
0
  6
CONTINUOUS
 62
     7
 10
54.468843
 20
114.574715
 30
0.0
 11
55.809376
 21
115.34867300000001
 31
0.0
  0
ENDSEC
  0
EOF
