  0
SECTION
  2
HEADER
  9
$ACADVER
  1
AC1015
  9
$ACADMAINTVER
 70
    20
  9
$DWGCODEPAGE
  3
ANSI_932
  9
$INSBASE
 10
0.0
 20
0.0
 30
0.0
  9
$EXTMIN
 10
127.698897499095
 20
69.32327602131265
 30
0.0
  9
$EXTMAX
 10
165.371406266978
 20
114.5801859973864
 30
0.0
  9
$LIMMIN
 10
0.0
 20
0.0
  9
$LIMMAX
 10
297.0
 20
210.0
  9
$ORTHOMODE
 70
     0
  9
$REGENMODE
 70
     1
  9
$FILLMODE
 70
     1
  9
$QTEXTMODE
 70
     0
  9
$MIRRTEXT
 70
     1
  9
$LTSCALE
 40
1.0
  9
$ATTMODE
 70
     1
  9
$TEXTSIZE
 40
3.2
  9
$TRACEWID
 40
1.0
  9
$TEXTSTYLE
  7
STANDARD
  9
$CLAYER
  8
0
  9
$CELTYPE
  6
CONTINUOUS
  9
$CECOLOR
 62
     3
  9
$CELTSCALE
 40
1.0
  9
$DISPSILH
 70
     0
  9
$DIMSCALE
 40
1.0
  9
$DIMASZ
 40
3.0
  9
$DIMEXO
 40
1.0
  9
$DIMDLI
 40
0.0
  9
$DIMRND
 40
0.0
  9
$DIMDLE
 40
0.0
  9
$DIMEXE
 40
1.0
  9
$DIMTP
 40
0.0
  9
$DIMTM
 40
0.0
  9
$DIMTXT
 40
3.2
  9
$DIMCEN
 40
0.0
  9
$DIMTSZ
 40
0.0
  9
$DIMTOL
 70
     0
  9
$DIMLIM
 70
     0
  9
$DIMTIH
 70
     0
  9
$DIMTOH
 70
     0
  9
$DIMSE1
 70
     0
  9
$DIMSE2
 70
     0
  9
$DIMTAD
 70
     1
  9
$DIMZIN
 70
     8
  9
$DIMBLK
  1

  9
$DIMASO
 70
     1
  9
$DIMSHO
 70
     1
  9
$DIMPOST
  1

  9
$DIMAPOST
  1

  9
$DIMALT
 70
     0
  9
$DIMALTD
 70
     2
  9
$DIMALTF
 40
0.04
  9
$DIMLFAC
 40
1.0
  9
$DIMTOFL
 70
     1
  9
$DIMTVP
 40
1.0
  9
$DIMTIX
 70
     1
  9
$DIMSOXD
 70
     0
  9
$DIMSAH
 70
     0
  9
$DIMBLK1
  1

  9
$DIMBLK2
  1

  9
$DIMSTYLE
  2
MISUMI
  9
$DIMCLRD
 70
     0
  9
$DIMCLRE
 70
     0
  9
$DIMCLRT
 70
     0
  9
$DIMTFAC
 40
0.6
  9
$DIMGAP
 40
1.0
  9
$DIMJUST
 70
     0
  9
$DIMSD1
 70
     0
  9
$DIMSD2
 70
     0
  9
$DIMTOLJ
 70
     1
  9
$DIMTZIN
 70
     0
  9
$DIMALTZ
 70
     0
  9
$DIMALTTZ
 70
     0
  9
$DIMUPT
 70
     0
  9
$DIMDEC
 70
     4
  9
$DIMTDEC
 70
     4
  9
$DIMALTU
 70
     2
  9
$DIMALTTD
 70
     2
  9
$DIMTXSTY
  7
STANDARD
  9
$DIMAUNIT
 70
     0
  9
$DIMADEC
 70
     0
  9
$DIMALTRND
 40
0.0
  9
$DIMAZIN
 70
     0
  9
$DIMDSEP
 70
    46
  9
$DIMATFIT
 70
     3
  9
$DIMFRAC
 70
     0
  9
$DIMLDRBLK
  1

  9
$DIMLUNIT
 70
     2
  9
$DIMLWD
 70
    -2
  9
$DIMLWE
 70
    -2
  9
$DIMTMOVE
 70
     0
  9
$LUNITS
 70
     2
  9
$LUPREC
 70
     2
  9
$SKETCHINC
 40
1.0
  9
$FILLETRAD
 40
10.0
  9
$AUNITS
 70
     0
  9
$AUPREC
 70
     0
  9
$MENU
  1
acad
  9
$ELEVATION
 40
0.0
  9
$PELEVATION
 40
0.0
  9
$THICKNESS
 40
0.0
  9
$LIMCHECK
 70
     0
  9
$CHAMFERA
 40
0.0
  9
$CHAMFERB
 40
0.0
  9
$CHAMFERC
 40
0.0
  9
$CHAMFERD
 40
0.0
  9
$SKPOLY
 70
     0
  9
$TDCREATE
 40
2451466.634403044
  9
$TDUCREATE
 40
2451466.259403044
  9
$TDUPDATE
 40
2454848.605139248
  9
$TDUUPDATE
 40
2454848.230139248
  9
$TDINDWG
 40
0.2169626852
  9
$TDUSRTIMER
 40
0.2169443403
  9
$USRTIMER
 70
     1
  9
$ANGBASE
 50
0.0
  9
$ANGDIR
 70
     0
  9
$PDMODE
 70
    64
  9
$PDSIZE
 40
0.0
  9
$PLINEWID
 40
0.0
  9
$SPLFRAME
 70
     0
  9
$SPLINETYPE
 70
     6
  9
$SPLINESEGS
 70
     8
  9
$HANDSEED
  5
14DB
  9
$SURFTAB1
 70
     6
  9
$SURFTAB2
 70
     6
  9
$SURFTYPE
 70
     6
  9
$SURFU
 70
     6
  9
$SURFV
 70
     6
  9
$UCSBASE
  2

  9
$UCSNAME
  2

  9
$UCSORG
 10
0.0
 20
0.0
 30
0.0
  9
$UCSXDIR
 10
1.0
 20
0.0
 30
0.0
  9
$UCSYDIR
 10
0.0
 20
1.0
 30
0.0
  9
$UCSORTHOREF
  2

  9
$UCSORTHOVIEW
 70
     0
  9
$UCSORGTOP
 10
0.0
 20
0.0
 30
0.0
  9
$UCSORGBOTTOM
 10
0.0
 20
0.0
 30
0.0
  9
$UCSORGLEFT
 10
0.0
 20
0.0
 30
0.0
  9
$UCSORGRIGHT
 10
0.0
 20
0.0
 30
0.0
  9
$UCSORGFRONT
 10
0.0
 20
0.0
 30
0.0
  9
$UCSORGBACK
 10
0.0
 20
0.0
 30
0.0
  9
$PUCSBASE
  2

  9
$PUCSNAME
  2

  9
$PUCSORG
 10
0.0
 20
0.0
 30
0.0
  9
$PUCSXDIR
 10
1.0
 20
0.0
 30
0.0
  9
$PUCSYDIR
 10
0.0
 20
1.0
 30
0.0
  9
$PUCSORTHOREF
  2

  9
$PUCSORTHOVIEW
 70
     0
  9
$PUCSORGTOP
 10
0.0
 20
0.0
 30
0.0
  9
$PUCSORGBOTTOM
 10
0.0
 20
0.0
 30
0.0
  9
$PUCSORGLEFT
 10
0.0
 20
0.0
 30
0.0
  9
$PUCSORGRIGHT
 10
0.0
 20
0.0
 30
0.0
  9
$PUCSORGFRONT
 10
0.0
 20
0.0
 30
0.0
  9
$PUCSORGBACK
 10
0.0
 20
0.0
 30
0.0
  9
$USERI1
 70
     0
  9
$USERI2
 70
     0
  9
$USERI3
 70
     0
  9
$USERI4
 70
     0
  9
$USERI5
 70
     0
  9
$USERR1
 40
0.0
  9
$USERR2
 40
0.0
  9
$USERR3
 40
0.0
  9
$USERR4
 40
0.0
  9
$USERR5
 40
0.0
  9
$WORLDVIEW
 70
     1
  9
$SHADEDGE
 70
     3
  9
$SHADEDIF
 70
    70
  9
$TILEMODE
 70
     1
  9
$MAXACTVP
 70
    16
  9
$PINSBASE
 10
0.0
 20
0.0
 30
0.0
  9
$PLIMCHECK
 70
     0
  9
$PEXTMIN
 10
1.122749993181602
 20
0.7804166500962629
 30
0.0
  9
$PEXTMAX
 10
10.10474993863444
 20
7.02374985086636
 30
0.0
  9
$PLIMMIN
 10
-0.2312499519408218
 20
-0.2312499894870548
  9
$PLIMMAX
 10
11.45874984621063
 20
8.035416452903442
  9
$UNITMODE
 70
     0
  9
$VISRETAIN
 70
     0
  9
$PLINEGEN
 70
     0
  9
$PSLTSCALE
 70
     0
  9
$TREEDEPTH
 70
  3020
  9
$CMLSTYLE
  2
Standard
  9
$CMLJUST
 70
     0
  9
$CMLSCALE
 40
1.0
  9
$PROXYGRAPHICS
 70
     1
  9
$MEASUREMENT
 70
     0
  9
$CELWEIGHT
370
    -1
  9
$ENDCAPS
280
     0
  9
$JOINSTYLE
280
     0
  9
$LWDISPLAY
290
     0
  9
$INSUNITS
 70
     0
  9
$HYPERLINKBASE
  1

  9
$STYLESHEET
  1

  9
$XEDIT
290
     1
  9
$CEPSNTYPE
380
     0
  9
$PSTYLEMODE
290
     1
  9
$FINGERPRINTGUID
  2
{F7FC691C-F807-4C80-8147-88538E0373F7}
  9
$VERSIONGUID
  2
{5B98FDFD-1E7E-401C-96EF-06A7341519C7}
  9
$EXTNAMES
290
     1
  9
$PSVPSCALE
 40
0.0
  9
$OLESTARTUP
290
     0
  0
ENDSEC
  0
SECTION
  2
CLASSES
  0
CLASS
  1
ACDBDICTIONARYWDFLT
  2
AcDbDictionaryWithDefault
  3
ObjectDBX Classes
 90
        0
280
     0
281
     0
  0
CLASS
  1
MATERIAL
  2
AcDbMaterial
  3
ObjectDBX Classes
 90
     1024
280
     0
281
     0
  0
CLASS
  1
VISUALSTYLE
  2
AcDbVisualStyle
  3
ObjectDBX Classes
 90
     4095
280
     0
281
     0
  0
CLASS
  1
TABLESTYLE
  2
AcDbTableStyle
  3
ObjectDBX Classes
 90
     4095
280
     0
281
     0
  0
CLASS
  1
DICTIONARYVAR
  2
AcDbDictionaryVar
  3
ObjectDBX Classes
 90
        0
280
     0
281
     0
  0
CLASS
  1
ACDBPLACEHOLDER
  2
AcDbPlaceHolder
  3
ObjectDBX Classes
 90
        0
280
     0
281
     0
  0
CLASS
  1
LAYOUT
  2
AcDbLayout
  3
ObjectDBX Classes
 90
        0
280
     0
281
     0
  0
ENDSEC
  0
SECTION
  2
TABLES
  0
TABLE
  2
VPORT
  5
146F
330
0
100
AcDbSymbolTable
 70
     1
  0
VPORT
  5
14A1
330
146F
100
AcDbSymbolTableRecord
100
AcDbViewportTableRecord
  2
*ACTIVE
 70
     0
 10
0.0
 20
0.0
 11
1.0
 21
1.0
 12
153.2747803055498
 22
107.2166783549956
 13
0.0
 23
0.0
 14
10.0
 24
10.0
 15
0.0
 25
0.0
 16
0.0
 26
0.0
 36
1.0
 17
0.0
 27
0.0
 37
0.0
 40
90.87996260708328
 41
1.49746192893401
 42
50.0
 43
0.0
 44
0.0
 50
0.0
 51
0.0
 71
     0
 72
   100
 73
     1
 74
     0
 75
     0
 76
     0
 77
     0
 78
     1
281
     0
 65
     1
110
0.0
120
0.0
130
0.0
111
1.0
121
0.0
131
0.0
112
0.0
122
1.0
132
0.0
 79
     0
146
0.0
  0
ENDTAB
  0
TABLE
  2
LTYPE
  5
146C
330
0
100
AcDbSymbolTable
 70
     2
  0
LTYPE
  5
148F
330
146C
100
AcDbSymbolTableRecord
100
AcDbLinetypeTableRecord
  2
ByBlock
 70
     0
  3

 72
    65
 73
     0
 40
0.0
  0
LTYPE
  5
1490
330
146C
100
AcDbSymbolTableRecord
100
AcDbLinetypeTableRecord
  2
ByLayer
 70
     0
  3

 72
    65
 73
     0
 40
0.0
  0
LTYPE
  5
1491
330
146C
100
AcDbSymbolTableRecord
100
AcDbLinetypeTableRecord
  2
CONTINUOUS
 70
     0
  3
Solid line
 72
    65
 73
     0
 40
0.0
  0
LTYPE
  5
14A2
330
146C
100
AcDbSymbolTableRecord
100
AcDbLinetypeTableRecord
  2
CENTER
 70
     0
  3
____ _ ____ _ ____ _ ____ _ ____ _ ____ _ ____
 72
    65
 73
     4
 40
17.5
 49
13.0
 74
     0
 49
-1.5
 74
     0
 49
1.5
 74
     0
 49
-1.5
 74
     0
  0
ENDTAB
  0
TABLE
  2
LAYER
  5
1469
330
0
100
AcDbSymbolTable
 70
     3
  0
LAYER
  5
148C
330
1469
100
AcDbSymbolTableRecord
100
AcDbLayerTableRecord
  2
0
 70
     0
 62
     7
  6
CONTINUOUS
370
    -3
390
1476
  0
LAYER
  5
14A3
330
1469
100
AcDbSymbolTableRecord
100
AcDbLayerTableRecord
  2
CENTER
 70
     0
 62
     1
  6
CENTER
370
    -3
390
1476
  0
ENDTAB
  0
TABLE
  2
STYLE
  5
146A
330
0
100
AcDbSymbolTable
 70
     1
  0
STYLE
  5
148D
330
146A
100
AcDbSymbolTableRecord
100
AcDbTextStyleTableRecord
  2
STANDARD
 70
     0
 40
0.0
 41
1.0
 50
0.0
 71
     0
 42
3.2
  3
txt.shx
  4
@extfont2.shx
  0
ENDTAB
  0
TABLE
  2
VIEW
  5
146D
330
0
100
AcDbSymbolTable
 70
     0
  0
ENDTAB
  0
TABLE
  2
UCS
  5
146E
330
0
100
AcDbSymbolTable
 70
     0
  0
ENDTAB
  0
TABLE
  2
APPID
  5
1470
330
0
100
AcDbSymbolTable
 70
     5
  0
APPID
  5
148E
330
1470
100
AcDbSymbolTableRecord
100
AcDbRegAppTableRecord
  2
ACAD
 70
     0
  0
APPID
  5
14A5
330
1470
100
AcDbSymbolTableRecord
100
AcDbRegAppTableRecord
  2
ACAECLAYERSTANDARD
 70
     0
  0
APPID
  5
14A6
330
1470
100
AcDbSymbolTableRecord
100
AcDbRegAppTableRecord
  2
ACAD_EXEMPT_FROM_CAD_STANDARDS
 70
     0
  0
APPID
  5
14A7
330
1470
100
AcDbSymbolTableRecord
100
AcDbRegAppTableRecord
  2
ACAD_PSEXT
 70
     0
  0
APPID
  5
14A8
330
1470
100
AcDbSymbolTableRecord
100
AcDbRegAppTableRecord
  2
ACAD_MLEADERVER
 70
     0
  0
ENDTAB
  0
TABLE
  2
DIMSTYLE
  5
1471
330
0
100
AcDbSymbolTable
 70
     1
100
AcDbDimStyleTable
 71
     0
  0
DIMSTYLE
105
14A9
330
1471
100
AcDbSymbolTableRecord
100
AcDbDimStyleTableRecord
  2
MISUMI
 70
     0
 41
3.0
 42
1.0
 43
0.0
 44
1.0
 73
     0
 74
     0
 77
     1
 78
     8
140
3.2
141
0.0
143
0.04
145
1.0
146
0.6
147
1.0
172
     1
174
     1
271
     2
272
     2
279
     2
284
     8
285
     8
286
     8
340
148D
  0
ENDTAB
  0
TABLE
  2
BLOCK_RECORD
  5
1468
330
0
100
AcDbSymbolTable
 70
     2
  0
BLOCK_RECORD
  5
149D
330
1468
100
AcDbSymbolTableRecord
100
AcDbBlockTableRecord
  2
*Model_Space
340
14A0
  0
BLOCK_RECORD
  5
1499
330
1468
100
AcDbSymbolTableRecord
100
AcDbBlockTableRecord
  2
*Paper_Space
340
149C
  0
ENDTAB
  0
ENDSEC
  0
SECTION
  2
BLOCKS
  0
BLOCK
  5
149E
330
149D
100
AcDbEntity
  8
0
100
AcDbBlockBegin
  2
*Model_Space
 70
     0
 10
0.0
 20
0.0
 30
0.0
  3
*Model_Space
  1

  0
ENDBLK
  5
149F
330
149D
100
AcDbEntity
  8
0
100
AcDbBlockEnd
  0
BLOCK
  5
149A
330
1499
100
AcDbEntity
 67
     1
  8
0
100
AcDbBlockBegin
  2
*Paper_Space
 70
     0
 10
0.0
 20
0.0
 30
0.0
  3
*Paper_Space
  1

  0
ENDBLK
  5
149B
330
1499
100
AcDbEntity
 67
     1
  8
0
100
AcDbBlockEnd
  0
ENDSEC
  0
SECTION
  2
ENTITIES
  0
LINE
  5
13D3
330
149D
100
AcDbEntity
  8
CENTER
  6
CENTER
 62
     1
100
AcDbLine
 10
158.871406266978
 20
104.0801859973864
 30
0.0
 11
165.371406266978
 21
104.0801859973864
 31
0.0
  0
LINE
  5
13D4
330
149D
100
AcDbEntity
  8
0
  6
Continuous
 62
     7
100
AcDbLine
 10
164.621406266978
 20
113.5801859973864
 30
0.0
 11
164.621406266978
 21
114.2801859973864
 31
0.0
  0
LINE
  5
13D5
330
149D
100
AcDbEntity
  8
0
  6
Continuous
 62
     7
100
AcDbLine
 10
164.321406266978
 20
114.5801859973864
 30
0.0
 11
159.921406266978
 21
114.5801859973864
 31
0.0
  0
LINE
  5
13D6
330
149D
100
AcDbEntity
  8
0
  6
Continuous
 62
     7
100
AcDbLine
 10
159.621406266978
 20
114.2801859973864
 30
0.0
 11
159.621406266978
 21
113.5801859973864
 31
0.0
  0
LINE
  5
13D7
330
149D
100
AcDbEntity
  8
0
  6
Continuous
 62
     7
100
AcDbLine
 10
159.851406266978
 20
113.1551859973864
 30
0.0
 11
161.356553339939
 21
113.1551859973864
 31
0.0
  0
ARC
  5
13D8
330
149D
100
AcDbEntity
  8
0
  6
Continuous
 62
     7
100
AcDbCircle
 10
159.921406266978
 20
114.2801859973864
 30
0.0
 40
0.3000000000000007
100
AcDbArc
 50
90.0
 51
180.0
  0
ARC
  5
13D9
330
149D
100
AcDbEntity
  8
0
  6
Continuous
 62
     7
100
AcDbCircle
 10
164.321406266978
 20
114.2801859973864
 30
0.0
 40
0.3000000000000007
100
AcDbArc
 50
0.0
 51
90.0
  0
ARC
  5
13DA
330
149D
100
AcDbEntity
  8
0
  6
Continuous
 62
     7
100
AcDbCircle
 10
162.121406266978
 20
112.3301859973864
 30
0.0
 40
1.124999999999998
100
AcDbArc
 50
47.16657193393219
 51
132.8334280660678
  0
LINE
  5
13DB
330
149D
100
AcDbEntity
  8
0
  6
Continuous
 62
     7
100
AcDbLine
 10
162.8862591940169
 20
113.1551859973864
 30
0.0
 11
164.391406266978
 21
113.1551859973864
 31
0.0
  0
LINE
  5
13DC
330
149D
100
AcDbEntity
  8
0
  6
Continuous
 62
     7
100
AcDbLine
 10
164.391406266978
 20
113.1551859973864
 30
0.0
 11
164.391406266978
 21
113.5801859973864
 31
0.0
  0
LINE
  5
13DD
330
149D
100
AcDbEntity
  8
0
  6
Continuous
 62
     7
100
AcDbLine
 10
164.391406266978
 20
113.5801859973864
 30
0.0
 11
164.621406266978
 21
113.5801859973864
 31
0.0
  0
LINE
  5
13DE
330
149D
100
AcDbEntity
  8
0
  6
Continuous
 62
     7
100
AcDbLine
 10
164.621406266978
 20
110.3801859973864
 30
0.0
 11
164.621406266978
 21
111.0801859973864
 31
0.0
  0
LINE
  5
13DF
330
149D
100
AcDbEntity
  8
0
  6
Continuous
 62
     7
100
AcDbLine
 10
164.391406266978
 20
111.4701859973864
 30
0.0
 11
162.8466820765842
 21
111.4701859973864
 31
0.0
  0
LINE
  5
13E0
330
149D
100
AcDbEntity
  8
0
  6
Continuous
 62
     7
100
AcDbLine
 10
159.621406266978
 20
111.0801859973864
 30
0.0
 11
159.621406266978
 21
110.3801859973864
 31
0.0
  0
LINE
  5
13E1
330
149D
100
AcDbEntity
  8
0
  6
Continuous
 62
     7
100
AcDbLine
 10
159.921406266978
 20
110.0801859973864
 30
0.0
 11
164.321406266978
 21
110.0801859973864
 31
0.0
  0
ARC
  5
13E2
330
149D
100
AcDbEntity
  8
0
  6
Continuous
 62
     7
100
AcDbCircle
 10
159.921406266978
 20
110.3801859973864
 30
0.0
 40
0.3000000000000006
100
AcDbArc
 50
180.0
 51
270.0
  0
ARC
  5
13E3
330
149D
100
AcDbEntity
  8
0
  6
Continuous
 62
     7
100
AcDbCircle
 10
164.321406266978
 20
110.3801859973864
 30
0.0
 40
0.3000000000000016
100
AcDbArc
 50
270.0
 51
0.0
  0
ARC
  5
13E4
330
149D
100
AcDbEntity
  8
0
  6
Continuous
 62
     7
100
AcDbCircle
 10
162.121406266978
 20
112.3301859973864
 30
0.0
 40
1.125
100
AcDbArc
 50
229.8575926272149
 51
310.1424073727851
  0
LINE
  5
13E5
330
149D
100
AcDbEntity
  8
0
  6
Continuous
 62
     7
100
AcDbLine
 10
161.3961304573717
 20
111.4701859973864
 30
0.0
 11
159.851406266978
 21
111.4701859973864
 31
0.0
  0
LINE
  5
13E6
330
149D
100
AcDbEntity
  8
0
  6
Continuous
 62
     7
100
AcDbLine
 10
159.851406266978
 20
111.4701859973864
 30
0.0
 11
159.851406266978
 21
111.0801859973864
 31
0.0
  0
LINE
  5
13E7
330
149D
100
AcDbEntity
  8
0
  6
Continuous
 62
     7
100
AcDbLine
 10
164.391406266978
 20
111.0801859973864
 30
0.0
 11
164.391406266978
 21
111.4701859973864
 31
0.0
  0
LINE
  5
13E8
330
149D
100
AcDbEntity
  8
0
  6
Continuous
 62
     7
100
AcDbLine
 10
164.391406266978
 20
111.0801859973864
 30
0.0
 11
164.621406266978
 21
111.0801859973864
 31
0.0
  0
LINE
  5
13E9
330
149D
100
AcDbEntity
  8
0
  6
Continuous
 62
     7
100
AcDbLine
 10
159.851406266978
 20
111.4701859973864
 30
0.0
 11
159.851406266978
 21
113.1551859973864
 31
0.0
  0
LINE
  5
13EA
330
149D
100
AcDbEntity
  8
0
  6
Continuous
 62
     7
100
AcDbLine
 10
159.851406266978
 20
113.5801859973864
 30
0.0
 11
159.621406266978
 21
113.5801859973864
 31
0.0
  0
LINE
  5
13EB
330
149D
100
AcDbEntity
  8
0
  6
Continuous
 62
     7
100
AcDbLine
 10
159.621406266978
 20
113.5801859973864
 30
0.0
 11
159.621406266978
 21
111.0801859973864
 31
0.0
  0
LINE
  5
13EC
330
149D
100
AcDbEntity
  8
0
  6
Continuous
 62
     7
100
AcDbLine
 10
159.621406266978
 20
111.0801859973864
 30
0.0
 11
159.851406266978
 21
111.0801859973864
 31
0.0
  0
LINE
  5
13ED
330
149D
100
AcDbEntity
  8
0
  6
Continuous
 62
     7
100
AcDbLine
 10
159.678906266978
 20
111.0801859973864
 30
0.0
 11
159.678906266978
 21
113.5801859973864
 31
0.0
  0
LINE
  5
13EE
330
149D
100
AcDbEntity
  8
0
  6
Continuous
 62
     7
100
AcDbLine
 10
164.391406266978
 20
113.1551859973864
 30
0.0
 11
164.391406266978
 21
111.4701859973864
 31
0.0
  0
LINE
  5
13EF
330
149D
100
AcDbEntity
  8
0
  6
Continuous
 62
     7
100
AcDbLine
 10
164.563906266978
 20
113.5801859973864
 30
0.0
 11
164.563906266978
 21
111.0801859973864
 31
0.0
  0
LINE
  5
13F0
330
149D
100
AcDbEntity
  8
0
  6
Continuous
 62
     7
100
AcDbLine
 10
164.621406266978
 20
113.5801859973864
 30
0.0
 11
164.621406266978
 21
111.0801859973864
 31
0.0
  0
ARC
  5
13F1
330
149D
100
AcDbEntity
  8
0
  6
Continuous
 62
     7
100
AcDbCircle
 10
162.121406266978
 20
112.3301859973864
 30
0.0
 40
1.125000000000001
100
AcDbArc
 50
132.8334280660678
 51
229.8575926272149
  0
ARC
  5
13F2
330
149D
100
AcDbEntity
  8
0
  6
Continuous
 62
     7
100
AcDbCircle
 10
162.121406266978
 20
112.3301859973864
 30
0.0
 40
1.125000000000001
100
AcDbArc
 50
310.1424073727851
 51
47.16657193393219
  0
LINE
  5
13F3
330
149D
100
AcDbEntity
  8
0
  6
Continuous
 62
     3
100
AcDbLine
 10
159.678906266978
 20
113.5801859973864
 30
0.0
 11
159.851406266978
 21
111.0801859973864
 31
0.0
  0
LINE
  5
13F4
330
149D
100
AcDbEntity
  8
0
  6
Continuous
 62
     3
100
AcDbLine
 10
159.851406266978
 20
113.5801859973864
 30
0.0
 11
159.678906266978
 21
111.0801859973864
 31
0.0
  0
LINE
  5
13F5
330
149D
100
AcDbEntity
  8
0
  6
Continuous
 62
     3
100
AcDbLine
 10
164.391406266978
 20
113.5801859973864
 30
0.0
 11
164.563906266978
 21
111.0801859973864
 31
0.0
  0
LINE
  5
13F6
330
149D
100
AcDbEntity
  8
0
  6
Continuous
 62
     3
100
AcDbLine
 10
164.563906266978
 20
113.5801859973864
 30
0.0
 11
164.391406266978
 21
111.0801859973864
 31
0.0
  0
LINE
  5
13F7
330
149D
100
AcDbEntity
  8
0
  6
Continuous
 62
     7
100
AcDbLine
 10
159.621406266978
 20
110.3801859973864
 30
0.0
 11
159.621406266978
 21
104.0801859973864
 31
0.0
  0
LINE
  5
13F8
330
149D
100
AcDbEntity
  8
0
  6
Continuous
 62
     7
100
AcDbLine
 10
164.621406266978
 20
110.3801859973864
 30
0.0
 11
164.621406266978
 21
104.0801859973864
 31
0.0
  0
LINE
  5
13F9
330
149D
100
AcDbEntity
  8
0
  6
Continuous
 62
     7
100
AcDbLine
 10
159.851406266978
 20
113.5801859973864
 30
0.0
 11
159.851406266978
 21
113.1551859973864
 31
0.0
  0
LINE
  5
13FA
330
149D
100
AcDbEntity
  8
0
  6
Continuous
 62
     7
100
AcDbLine
 10
164.621406266978
 20
94.58018599738643
 30
0.0
 11
164.621406266978
 21
93.88018599738643
 31
0.0
  0
LINE
  5
13FB
330
149D
100
AcDbEntity
  8
0
  6
Continuous
 62
     7
100
AcDbLine
 10
164.321406266978
 20
93.58018599738644
 30
0.0
 11
159.921406266978
 21
93.58018599738644
 31
0.0
  0
LINE
  5
13FC
330
149D
100
AcDbEntity
  8
0
  6
Continuous
 62
     7
100
AcDbLine
 10
159.621406266978
 20
93.88018599738643
 30
0.0
 11
159.621406266978
 21
94.58018599738643
 31
0.0
  0
LINE
  5
13FD
330
149D
100
AcDbEntity
  8
0
  6
Continuous
 62
     7
100
AcDbLine
 10
159.851406266978
 20
95.00518599738644
 30
0.0
 11
161.356553339939
 21
95.00518599738644
 31
0.0
  0
ARC
  5
13FE
330
149D
100
AcDbEntity
  8
0
  6
Continuous
 62
     7
100
AcDbCircle
 10
159.921406266978
 20
93.88018599738643
 30
0.0
 40
0.3000000000000015
100
AcDbArc
 50
179.9999991462262
 51
270.0
  0
ARC
  5
13FF
330
149D
100
AcDbEntity
  8
0
  6
Continuous
 62
     7
100
AcDbCircle
 10
164.321406266978
 20
93.88018599738646
 30
0.0
 40
0.300000000000006
100
AcDbArc
 50
270.0
 51
0.0
  0
ARC
  5
1400
330
149D
100
AcDbEntity
  8
0
  6
Continuous
 62
     7
100
AcDbCircle
 10
162.121406266978
 20
95.83018599738643
 30
0.0
 40
1.124999999999994
100
AcDbArc
 50
227.1665719339322
 51
312.8334280660678
  0
LINE
  5
1401
330
149D
100
AcDbEntity
  8
0
  6
Continuous
 62
     7
100
AcDbLine
 10
162.8862591940169
 20
95.00518599738644
 30
0.0
 11
164.391406266978
 21
95.00518599738644
 31
0.0
  0
LINE
  5
1402
330
149D
100
AcDbEntity
  8
0
  6
Continuous
 62
     7
100
AcDbLine
 10
164.391406266978
 20
95.00518599738644
 30
0.0
 11
164.391406266978
 21
94.58018599738643
 31
0.0
  0
LINE
  5
1403
330
149D
100
AcDbEntity
  8
0
  6
Continuous
 62
     7
100
AcDbLine
 10
164.391406266978
 20
94.58018599738643
 30
0.0
 11
164.621406266978
 21
94.58018599738643
 31
0.0
  0
LINE
  5
1404
330
149D
100
AcDbEntity
  8
0
  6
Continuous
 62
     7
100
AcDbLine
 10
164.621406266978
 20
97.78018599738642
 30
0.0
 11
164.621406266978
 21
97.08018599738643
 31
0.0
  0
LINE
  5
1405
330
149D
100
AcDbEntity
  8
0
  6
Continuous
 62
     7
100
AcDbLine
 10
164.391406266978
 20
96.69018599738643
 30
0.0
 11
162.8466820765842
 21
96.69018599738643
 31
0.0
  0
LINE
  5
1406
330
149D
100
AcDbEntity
  8
0
  6
Continuous
 62
     7
100
AcDbLine
 10
159.621406266978
 20
97.08018599738643
 30
0.0
 11
159.621406266978
 21
97.78018599738642
 31
0.0
  0
LINE
  5
1407
330
149D
100
AcDbEntity
  8
0
  6
Continuous
 62
     7
100
AcDbLine
 10
159.921406266978
 20
98.08018599738645
 30
0.0
 11
164.321406266978
 21
98.08018599738645
 31
0.0
  0
ARC
  5
1408
330
149D
100
AcDbEntity
  8
0
  6
Continuous
 62
     7
100
AcDbCircle
 10
159.921406266978
 20
97.78018599738642
 30
0.0
 40
0.2999999999999989
100
AcDbArc
 50
90.0
 51
180.0
  0
ARC
  5
1409
330
149D
100
AcDbEntity
  8
0
  6
Continuous
 62
     7
100
AcDbCircle
 10
164.321406266978
 20
97.78018599738642
 30
0.0
 40
0.3000000000000043
100
AcDbArc
 50
0.0
 51
90.0
  0
ARC
  5
140A
330
149D
100
AcDbEntity
  8
0
  6
Continuous
 62
     7
100
AcDbCircle
 10
162.121406266978
 20
95.83018599738643
 30
0.0
 40
1.124999999999998
100
AcDbArc
 50
49.8575926272149
 51
130.1424073727851
  0
LINE
  5
140B
330
149D
100
AcDbEntity
  8
0
  6
Continuous
 62
     7
100
AcDbLine
 10
161.3961304573717
 20
96.69018599738643
 30
0.0
 11
159.851406266978
 21
96.69018599738643
 31
0.0
  0
LINE
  5
140C
330
149D
100
AcDbEntity
  8
0
  6
Continuous
 62
     7
100
AcDbLine
 10
159.851406266978
 20
96.69018599738643
 30
0.0
 11
159.851406266978
 21
97.08018599738643
 31
0.0
  0
LINE
  5
140D
330
149D
100
AcDbEntity
  8
0
  6
Continuous
 62
     7
100
AcDbLine
 10
164.391406266978
 20
97.08018599738643
 30
0.0
 11
164.391406266978
 21
96.69018599738643
 31
0.0
  0
LINE
  5
140E
330
149D
100
AcDbEntity
  8
0
  6
Continuous
 62
     7
100
AcDbLine
 10
164.391406266978
 20
97.08018599738643
 30
0.0
 11
164.621406266978
 21
97.08018599738643
 31
0.0
  0
LINE
  5
140F
330
149D
100
AcDbEntity
  8
0
  6
Continuous
 62
     7
100
AcDbLine
 10
159.851406266978
 20
96.69018599738643
 30
0.0
 11
159.851406266978
 21
95.00518599738644
 31
0.0
  0
LINE
  5
1410
330
149D
100
AcDbEntity
  8
0
  6
Continuous
 62
     7
100
AcDbLine
 10
159.851406266978
 20
94.58018599738643
 30
0.0
 11
159.621406266978
 21
94.58018599738643
 31
0.0
  0
LINE
  5
1411
330
149D
100
AcDbEntity
  8
0
  6
Continuous
 62
     7
100
AcDbLine
 10
159.621406266978
 20
94.58018599738643
 30
0.0
 11
159.621406266978
 21
97.08018599738643
 31
0.0
  0
LINE
  5
1412
330
149D
100
AcDbEntity
  8
0
  6
Continuous
 62
     7
100
AcDbLine
 10
159.621406266978
 20
97.08018599738643
 30
0.0
 11
159.851406266978
 21
97.08018599738643
 31
0.0
  0
LINE
  5
1413
330
149D
100
AcDbEntity
  8
0
  6
Continuous
 62
     7
100
AcDbLine
 10
159.678906266978
 20
97.08018599738643
 30
0.0
 11
159.678906266978
 21
94.58018599738643
 31
0.0
  0
LINE
  5
1414
330
149D
100
AcDbEntity
  8
0
  6
Continuous
 62
     7
100
AcDbLine
 10
164.391406266978
 20
95.00518599738644
 30
0.0
 11
164.391406266978
 21
96.69018599738643
 31
0.0
  0
LINE
  5
1415
330
149D
100
AcDbEntity
  8
0
  6
Continuous
 62
     7
100
AcDbLine
 10
164.563906266978
 20
94.58018599738643
 30
0.0
 11
164.563906266978
 21
97.08018599738643
 31
0.0
  0
LINE
  5
1416
330
149D
100
AcDbEntity
  8
0
  6
Continuous
 62
     7
100
AcDbLine
 10
164.621406266978
 20
94.58018599738643
 30
0.0
 11
164.621406266978
 21
97.08018599738643
 31
0.0
  0
ARC
  5
1417
330
149D
100
AcDbEntity
  8
0
  6
Continuous
 62
     7
100
AcDbCircle
 10
162.121406266978
 20
95.83018599738643
 30
0.0
 40
1.125000000000001
100
AcDbArc
 50
130.1424073727851
 51
227.1665719339322
  0
ARC
  5
1418
330
149D
100
AcDbEntity
  8
0
  6
Continuous
 62
     7
100
AcDbCircle
 10
162.121406266978
 20
95.83018599738643
 30
0.0
 40
1.124999999999996
100
AcDbArc
 50
312.8334280660666
 51
49.8575926272149
  0
LINE
  5
1419
330
149D
100
AcDbEntity
  8
0
  6
Continuous
 62
     3
100
AcDbLine
 10
159.678906266978
 20
94.58018599738643
 30
0.0
 11
159.851406266978
 21
97.08018599738643
 31
0.0
  0
LINE
  5
141A
330
149D
100
AcDbEntity
  8
0
  6
Continuous
 62
     3
100
AcDbLine
 10
159.851406266978
 20
94.58018599738643
 30
0.0
 11
159.678906266978
 21
97.08018599738643
 31
0.0
  0
LINE
  5
141B
330
149D
100
AcDbEntity
  8
0
  6
Continuous
 62
     3
100
AcDbLine
 10
164.391406266978
 20
94.58018599738643
 30
0.0
 11
164.563906266978
 21
97.08018599738643
 31
0.0
  0
LINE
  5
141C
330
149D
100
AcDbEntity
  8
0
  6
Continuous
 62
     3
100
AcDbLine
 10
164.563906266978
 20
94.58018599738643
 30
0.0
 11
164.391406266978
 21
97.08018599738643
 31
0.0
  0
LINE
  5
141D
330
149D
100
AcDbEntity
  8
0
  6
Continuous
 62
     7
100
AcDbLine
 10
159.621406266978
 20
97.78018599738642
 30
0.0
 11
159.621406266978
 21
104.0801859973864
 31
0.0
  0
LINE
  5
141E
330
149D
100
AcDbEntity
  8
0
  6
Continuous
 62
     7
100
AcDbLine
 10
164.621406266978
 20
97.78018599738642
 30
0.0
 11
164.621406266978
 21
104.0801859973864
 31
0.0
  0
LINE
  5
141F
330
149D
100
AcDbEntity
  8
0
  6
Continuous
 62
     7
100
AcDbLine
 10
159.851406266978
 20
94.58018599738643
 30
0.0
 11
159.851406266978
 21
95.00518599738644
 31
0.0
  0
LINE
  5
1424
330
149D
100
AcDbEntity
  8
0
  6
Continuous
 62
     3
100
AcDbLine
 10
159.621406266978
 20
94.1806910607748
 30
0.0
 11
160.4459012035897
 21
95.00518599738644
 31
0.0
  0
LINE
  5
1425
330
149D
100
AcDbEntity
  8
0
  6
Continuous
 62
     3
100
AcDbLine
 10
159.7693805118188
 20
93.62155852442908
 30
0.0
 11
161.1530079847762
 21
95.00518599738644
 31
0.0
  0
LINE
  5
1426
330
149D
100
AcDbEntity
  8
0
  6
Continuous
 62
     3
100
AcDbLine
 10
160.4351147659627
 20
93.58018599738644
 30
0.0
 11
161.6593716255444
 21
94.80444285696808
 31
0.0
  0
LINE
  5
1427
330
149D
100
AcDbEntity
  8
0
  6
Continuous
 62
     3
100
AcDbLine
 10
161.1422215471493
 20
93.58018599738644
 30
0.0
 11
162.2782017144475
 21
94.7161661646847
 31
0.0
  0
LINE
  5
1428
330
149D
100
AcDbEntity
  8
0
  6
Continuous
 62
     3
100
AcDbLine
 10
161.8493283283358
 20
93.58018599738644
 30
0.0
 11
163.2743283283358
 21
95.00518599738644
 31
0.0
  0
LINE
  5
1429
330
149D
100
AcDbEntity
  8
0
  6
Continuous
 62
     3
100
AcDbLine
 10
162.5564351095224
 20
93.58018599738644
 30
0.0
 11
163.9814351095224
 21
95.00518599738644
 31
0.0
  0
LINE
  5
142A
330
149D
100
AcDbEntity
  8
0
  6
Continuous
 62
     3
100
AcDbLine
 10
163.2635418907088
 20
93.58018599738644
 30
0.0
 11
164.391406266978
 21
94.70805037365549
 31
0.0
  0
LINE
  5
142B
330
149D
100
AcDbEntity
  8
0
  6
Continuous
 62
     3
100
AcDbLine
 10
163.9706486718955
 20
93.58018599738644
 30
0.0
 11
164.621406266978
 21
94.23094359246894
 31
0.0
  0
LINE
  5
142C
330
149D
100
AcDbEntity
  8
0
  6
Continuous
 62
     3
100
AcDbLine
 10
159.9403384551125
 20
96.69018599738643
 30
0.0
 11
159.851406266978
 21
96.77911818552097
 31
0.0
  0
LINE
  5
142D
330
149D
100
AcDbEntity
  8
0
  6
Continuous
 62
     3
100
AcDbLine
 10
160.647445236299
 20
96.69018599738643
 30
0.0
 11
159.621406266978
 21
97.71622496670751
 31
0.0
  0
LINE
  5
142E
330
149D
100
AcDbEntity
  8
0
  6
Continuous
 62
     3
100
AcDbLine
 10
161.3545520174856
 20
96.69018599738643
 30
0.0
 11
159.9645520174856
 21
98.08018599738645
 31
0.0
  0
LINE
  5
142F
330
149D
100
AcDbEntity
  8
0
  6
Continuous
 62
     3
100
AcDbLine
 10
161.8375019513312
 20
96.91434284472741
 30
0.0
 11
160.6716587986721
 21
98.08018599738645
 31
0.0
  0
LINE
  5
1430
330
149D
100
AcDbEntity
  8
0
  6
Continuous
 62
     3
100
AcDbLine
 10
162.628962876491
 20
96.82998870075413
 30
0.0
 11
161.3787655798587
 21
98.08018599738645
 31
0.0
  0
LINE
  5
1431
330
149D
100
AcDbEntity
  8
0
  6
Continuous
 62
     3
100
AcDbLine
 10
163.4758723610452
 20
96.69018599738643
 30
0.0
 11
162.0858723610451
 21
98.08018599738645
 31
0.0
  0
LINE
  5
1432
330
149D
100
AcDbEntity
  8
0
  6
Continuous
 62
     3
100
AcDbLine
 10
164.1829791422318
 20
96.69018599738643
 30
0.0
 11
162.7929791422318
 21
98.08018599738645
 31
0.0
  0
LINE
  5
1433
330
149D
100
AcDbEntity
  8
0
  6
Continuous
 62
     3
100
AcDbLine
 10
164.5000859234183
 20
97.08018599738643
 30
0.0
 11
163.5000859234184
 21
98.08018599738645
 31
0.0
  0
LINE
  5
1434
330
149D
100
AcDbEntity
  8
0
  6
Continuous
 62
     3
100
AcDbLine
 10
164.621406266978
 20
97.66597243501335
 30
0.0
 11
164.2071927046048
 21
98.08018599738645
 31
0.0
  0
LINE
  5
1435
330
149D
100
AcDbEntity
  8
0
  6
Continuous
 62
     3
100
AcDbLine
 10
159.9853672976569
 20
110.0801859973864
 30
0.0
 11
159.621406266978
 21
110.4441470280653
 31
0.0
  0
LINE
  5
1436
330
149D
100
AcDbEntity
  8
0
  6
Continuous
 62
     3
100
AcDbLine
 10
160.6924740788435
 20
110.0801859973864
 30
0.0
 11
159.6924740788435
 21
111.0801859973864
 31
0.0
  0
LINE
  5
1437
330
149D
100
AcDbEntity
  8
0
  6
Continuous
 62
     3
100
AcDbLine
 10
161.39958086003
 20
110.0801859973864
 30
0.0
 11
160.00958086003
 21
111.4701859973864
 31
0.0
  0
LINE
  5
1438
330
149D
100
AcDbEntity
  8
0
  6
Continuous
 62
     3
100
AcDbLine
 10
162.1066876412166
 20
110.0801859973864
 30
0.0
 11
160.7166876412165
 21
111.4701859973864
 31
0.0
  0
LINE
  5
1439
330
149D
100
AcDbEntity
  8
0
  6
Continuous
 62
     3
100
AcDbLine
 10
162.8137944224031
 20
110.0801859973864
 30
0.0
 11
161.4894175830054
 21
111.4045628367841
 31
0.0
  0
LINE
  5
143A
330
149D
100
AcDbEntity
  8
0
  6
Continuous
 62
     3
100
AcDbLine
 10
163.5209012035896
 20
110.0801859973864
 30
0.0
 11
162.3657088690268
 21
111.2353783319493
 31
0.0
  0
LINE
  5
143B
330
149D
100
AcDbEntity
  8
0
  6
Continuous
 62
     3
100
AcDbLine
 10
164.2280079847762
 20
110.0801859973864
 30
0.0
 11
162.8415900141922
 21
111.4666039679705
 31
0.0
  0
LINE
  5
143C
330
149D
100
AcDbEntity
  8
0
  6
Continuous
 62
     3
100
AcDbLine
 10
164.621406266978
 20
110.3938944963712
 30
0.0
 11
163.5451147659627
 21
111.4701859973864
 31
0.0
  0
LINE
  5
143D
330
149D
100
AcDbEntity
  8
0
  6
Continuous
 62
     3
100
AcDbLine
 10
164.391406266978
 20
111.3310012775577
 30
0.0
 11
164.2522215471493
 21
111.4701859973864
 31
0.0
  0
LINE
  5
143E
330
149D
100
AcDbEntity
  8
0
  6
Continuous
 62
     3
100
AcDbLine
 10
159.621406266978
 20
113.9796809339981
 30
0.0
 11
160.2219113303663
 21
114.5801859973864
 31
0.0
  0
LINE
  5
143F
330
149D
100
AcDbEntity
  8
0
  6
Continuous
 62
     3
100
AcDbLine
 10
159.851406266978
 20
113.5025741528115
 30
0.0
 11
160.9290181115528
 21
114.5801859973864
 31
0.0
  0
LINE
  5
1440
330
149D
100
AcDbEntity
  8
0
  6
Continuous
 62
     3
100
AcDbLine
 10
160.2111248927394
 20
113.1551859973864
 30
0.0
 11
161.6361248927394
 21
114.5801859973864
 31
0.0
  0
LINE
  5
1441
330
149D
100
AcDbEntity
  8
0
  6
Continuous
 62
     3
100
AcDbLine
 10
160.918231673926
 20
113.1551859973864
 30
0.0
 11
162.3432316739259
 21
114.5801859973864
 31
0.0
  0
LINE
  5
1442
330
149D
100
AcDbEntity
  8
0
  6
Continuous
 62
     3
100
AcDbLine
 10
161.9030694759908
 20
113.4329170182647
 30
0.0
 11
163.0503384551125
 21
114.5801859973864
 31
0.0
  0
LINE
  5
1443
330
149D
100
AcDbEntity
  8
0
  6
Continuous
 62
     3
100
AcDbLine
 10
162.5471965709718
 20
113.3699373320592
 30
0.0
 11
163.757445236299
 21
114.5801859973864
 31
0.0
  0
LINE
  5
1444
330
149D
100
AcDbEntity
  8
0
  6
Continuous
 62
     3
100
AcDbLine
 10
163.0395520174856
 20
113.1551859973864
 30
0.0
 11
164.4397984850907
 21
114.5554324649916
 31
0.0
  0
LINE
  5
1445
330
149D
100
AcDbEntity
  8
0
  6
Continuous
 62
     3
100
AcDbLine
 10
163.7466587986722
 20
113.1551859973864
 30
0.0
 11
164.621406266978
 21
114.0299334656923
 31
0.0
  0
TEXT
  5
1459
330
149D
100
AcDbEntity
  8
0
  6
Continuous
 62
     7
100
AcDbText
 10
127.9293620173532
 20
74.62169331936848
 30
0.0
 40
3.2
  1
B6801VV
100
AcDbText
  0
TEXT
  5
145A
330
149D
100
AcDbEntity
  8
0
  6
Continuous
 62
     7
100
AcDbText
 10
127.698897499095
 20
69.32327602131268
 30
0.0
 40
3.2
  1
B6801VV
100
AcDbText
  0
VIEWPORT
  5
B50
102
{ACAD_XDICTIONARY
360
14CB
102
}
330
1499
100
AcDbEntity
 67
     1
  8
0
  6
Continuous
 62
     7
100
AcDbViewport
 10
5.613749974352803
 20
3.902083250955528
 30
0.0
 40
9.31261140995767
 41
6.292518124594598
 68
     1
 69
     1
 12
5.613749974352803
 22
3.902083250955528
 13
0.0
 23
0.0
 14
10.0
 24
10.0
 15
10.0
 25
10.0
 16
0.0
 26
0.0
 36
1.0
 17
0.0
 27
0.0
 37
0.0
 42
50.0
 43
0.0
 44
0.0
 45
6.292518124594598
 50
0.0
 51
0.0
 72
   100
 90
   557088
  1

281
     0
 71
     0
 74
     0
110
0.0
120
0.0
130
0.0
111
1.0
121
0.0
131
0.0
112
0.0
122
1.0
132
0.0
 79
     0
146
0.0
  0
VIEWPORT
  5
B52
102
{ACAD_XDICTIONARY
360
14CD
102
}
330
1499
100
AcDbEntity
 67
     1
  8
0
  6
Continuous
 62
     7
100
AcDbViewport
 10
5.613749965908017
 20
3.902083250481311
 30
0.0
 40
8.981999945452834
 41
6.243333200770099
 68
     2
 69
     2
 12
0.0
 22
0.0
 13
0.0
 23
0.0
 14
10.0
 24
10.0
 15
10.0
 25
10.0
 16
0.0
 26
0.0
 36
442.6347084677375
 17
148.5
 27
105.0
 37
0.0
 42
50.0
 43
0.0
 44
0.0
 45
212.2144112478032
 50
0.0
 51
0.0
 72
   100
 90
   557088
  1

281
     0
 71
     0
 74
     0
110
0.0
120
0.0
130
0.0
111
1.0
121
0.0
131
0.0
112
0.0
122
1.0
132
0.0
 79
     0
146
0.0
  0
ENDSEC
  0
SECTION
  2
OBJECTS
  0
DICTIONARY
  5
1473
330
0
100
AcDbDictionary
281
     1
  3
ACAD_COLOR
350
1496
  3
ACAD_GROUP
350
1474
  3
ACAD_LAYOUT
350
1495
  3
ACAD_MATERIAL
350
1477
  3
ACAD_MLINESTYLE
350
1492
  3
ACAD_PLOTSETTINGS
350
1494
  3
ACAD_PLOTSTYLENAME
350
1475
  3
ACAD_TABLESTYLE
350
1497
  3
ACAD_VISUALSTYLE
350
147B
  3
AcDbVariableDictionary
350
14B4
  3
DWGPROPS
350
14CA
  0
DICTIONARY
  5
14CB
330
B50
100
AcDbDictionary
280
     1
281
     1
  3
ACAD_XREC_ROUNDTRIP
360
14CC
  0
DICTIONARY
  5
14CD
330
B52
100
AcDbDictionary
280
     1
281
     1
  3
ACAD_XREC_ROUNDTRIP
360
14CE
  0
DICTIONARY
  5
1496
102
{ACAD_REACTORS
330
1473
102
}
330
1473
100
AcDbDictionary
281
     1
  0
DICTIONARY
  5
1474
102
{ACAD_REACTORS
330
1473
102
}
330
1473
100
AcDbDictionary
281
     1
  0
DICTIONARY
  5
1495
102
{ACAD_REACTORS
330
1473
102
}
330
1473
100
AcDbDictionary
281
     1
  3
Model
350
14A0
  3
レイアウト1
350
149C
  0
DICTIONARY
  5
1477
102
{ACAD_REACTORS
330
1473
102
}
330
1473
100
AcDbDictionary
281
     1
  3
ByBlock
350
1479
  3
ByLayer
350
1478
  3
Global
350
147A
  0
DICTIONARY
  5
1492
102
{ACAD_REACTORS
330
1473
102
}
330
1473
100
AcDbDictionary
281
     1
  3
Standard
350
1493
  0
DICTIONARY
  5
1494
102
{ACAD_REACTORS
330
1473
102
}
330
1473
100
AcDbDictionary
281
     1
  0
ACDBDICTIONARYWDFLT
  5
1475
102
{ACAD_REACTORS
330
1473
102
}
330
1473
100
AcDbDictionary
281
     1
  3
Normal
350
1476
100
AcDbDictionaryWithDefault
340
1476
  0
DICTIONARY
  5
1497
102
{ACAD_REACTORS
330
1473
102
}
330
1473
100
AcDbDictionary
281
     1
  3
Standard
350
1498
  0
DICTIONARY
  5
147B
102
{ACAD_REACTORS
330
1473
102
}
330
1473
100
AcDbDictionary
281
     1
  3
2dWireframe
350
1481
  3
Basic
350
1480
  3
Brighten
350
1487
  3
ColorChange
350
148B
  3
Dim
350
1486
  3
Facepattern
350
148A
  3
Flat
350
147C
  3
FlatWithEdges
350
147D
  3
Gouraud
350
147E
  3
GouraudWithEdges
350
147F
  3
Linepattern
350
1489
  3
Thicken
350
1488
  0
DICTIONARY
  5
14B4
102
{ACAD_REACTORS
330
1473
102
}
330
1473
100
AcDbDictionary
281
     1
  3
CTABLESTYLE
350
14B5
  3
DIMASSOC
350
14B8
  3
INDEXCTL
350
14B7
  3
SORTENTS
350
14B6
  0
XRECORD
  5
14CA
102
{ACAD_REACTORS
330
1473
102
}
330
1473
100
AcDbXrecord
280
     1
  1
DWGPROPS COOKIE
  2

  3

  4

  6

  7

  8
Fa_Share
  9

300
=
301
=
302
=
303
=
304
=
305
=
306
=
307
=
308
=
309
=
 40
0.2169626851851852
 41
2451466.634403044
 42
2454848.605139248
  1

 90
        0
  0
XRECORD
  5
14CC
102
{ACAD_REACTORS
330
14CB
102
}
330
14CB
100
AcDbXrecord
280
     1
102
SHADEPLOT
 70
     0
  0
XRECORD
  5
14CE
102
{ACAD_REACTORS
330
14CD
102
}
330
14CD
100
AcDbXrecord
280
     1
102
SHADEPLOT
 70
     0
  0
LAYOUT
  5
14A0
102
{ACAD_XDICTIONARY
360
14D9
102
}
102
{ACAD_REACTORS
330
1495
102
}
330
1495
100
AcDbPlotSettings
  1

  2
RICOH imagio Neo 450 RPDL
  4

  6

 40
0.0
 41
0.0
 42
0.0
 43
0.0
 44
0.0
 45
0.0
 46
0.0
 47
0.0
 48
0.0
 49
0.0
140
0.0
141
0.0
142
1.0
143
1.0
 70
  1712
 72
     0
 73
     0
 74
     0
  7
BLACK.ctb
 75
     0
147
1.0
148
0.0
149
0.0
100
AcDbLayout
  1
Model
 70
     1
 71
     0
 10
0.0
 20
0.0
 11
12.0
 21
9.0
 12
0.0
 22
0.0
 32
0.0
 14
0.0
 24
0.0
 34
0.0
 15
0.0
 25
0.0
 35
0.0
146
0.0
 13
0.0
 23
0.0
 33
0.0
 16
1.0
 26
0.0
 36
0.0
 17
0.0
 27
1.0
 37
0.0
 76
     0
330
149D
331
14A1
  0
LAYOUT
  5
149C
102
{ACAD_XDICTIONARY
360
14D7
102
}
102
{ACAD_REACTORS
330
1495
102
}
330
1495
100
AcDbPlotSettings
  1

  2
RICOH imagio Neo 450 RPDL
  4

  6

 40
0.0
 41
0.0
 42
0.0
 43
0.0
 44
0.0
 45
0.0
 46
0.0
 47
0.0
 48
0.0
 49
0.0
140
0.0
141
0.0
142
1.0
143
1.0
 70
   688
 72
     0
 73
     0
 74
     5
  7
BLACK.ctb
 75
    16
147
1.0
148
0.0
149
0.0
100
AcDbLayout
  1
レイアウト1
 70
     0
 71
     1
 10
-0.2312499519408218
 20
-0.2312499894870548
 11
11.45874984621063
 21
8.035416452903442
 12
0.0
 22
0.0
 32
0.0
 14
1.122749993181602
 24
0.7804166500962629
 34
0.0
 15
10.10474993863444
 25
7.02374985086636
 35
0.0
146
0.0
 13
0.0
 23
0.0
 33
0.0
 16
1.0
 26
0.0
 36
0.0
 17
0.0
 27
1.0
 37
0.0
 76
     0
330
1499
331
B50
  0
MATERIAL
  5
1479
102
{ACAD_XDICTIONARY
360
14D1
102
}
102
{ACAD_REACTORS
330
1477
102
}
330
1477
100
AcDbMaterial
  1
ByBlock
  0
MATERIAL
  5
1478
102
{ACAD_XDICTIONARY
360
14CF
102
}
102
{ACAD_REACTORS
330
1477
102
}
330
1477
100
AcDbMaterial
  1
ByLayer
  0
MATERIAL
  5
147A
102
{ACAD_XDICTIONARY
360
14D3
102
}
102
{ACAD_REACTORS
330
1477
102
}
330
1477
100
AcDbMaterial
  1
Global
  0
MLINESTYLE
  5
1493
102
{ACAD_REACTORS
330
1492
102
}
330
1492
100
AcDbMlineStyle
  2
STANDARD
 70
     0
  3

 62
   256
 51
90.0
 52
90.0
 71
     2
 49
0.5
 62
   256
  6
BYLAYER
 49
-0.5
 62
   256
  6
BYLAYER
  0
ACDBPLACEHOLDER
  5
1476
102
{ACAD_REACTORS
330
1475
102
}
330
1475
  0
TABLESTYLE
  5
1498
102
{ACAD_XDICTIONARY
360
14D5
102
}
102
{ACAD_REACTORS
330
1497
102
}
330
1497
100
AcDbTableStyle
  3
Standard
 70
     0
 71
     0
 40
0.06
 41
0.06
280
     0
281
     0
  7
STANDARD
140
0.18
170
     2
 62
     0
 63
     7
283
     0
274
    -2
284
     1
 64
     0
275
    -2
285
     1
 65
     0
276
    -2
286
     1
 66
     0
277
    -2
287
     1
 67
     0
278
    -2
288
     1
 68
     0
279
    -2
289
     1
 69
     0
  7
STANDARD
140
0.25
170
     5
 62
     0
 63
     7
283
     0
274
    -2
284
     1
 64
     0
275
    -2
285
     1
 65
     0
276
    -2
286
     1
 66
     0
277
    -2
287
     1
 67
     0
278
    -2
288
     1
 68
     0
279
    -2
289
     1
 69
     0
  7
STANDARD
140
0.18
170
     5
 62
     0
 63
     7
283
     0
274
    -2
284
     1
 64
     0
275
    -2
285
     1
 65
     0
276
    -2
286
     1
 66
     0
277
    -2
287
     1
 67
     0
278
    -2
288
     1
 68
     0
279
    -2
289
     1
 69
     0
  0
VISUALSTYLE
  5
1481
102
{ACAD_REACTORS
330
147B
102
}
330
147B
100
AcDbVisualStyle
  2
2dWireframe
 70
     4
 71
     0
 72
     2
 73
     0
 90
        0
 40
-0.6
 41
-30.0
 62
     5
 63
     7
 74
     1
 91
        4
 64
     7
 65
   257
 75
     1
175
     1
 42
1.0
 92
        0
 66
   257
 43
1.0
 76
     1
 77
     6
 78
     2
 67
     7
 79
     5
170
     0
171
     0
290
     0
174
     0
 93
        1
 44
0.0
173
     0
291
     0
 45
0.0
1001
ACAD
1000
AcDbSavedByObjectVersion
1070
     0
  0
VISUALSTYLE
  5
1480
102
{ACAD_REACTORS
330
147B
102
}
330
147B
100
AcDbVisualStyle
  2
Basic
 70
     7
 71
     1
 72
     0
 73
     1
 90
        0
 40
-0.6
 41
-30.0
 62
     5
 63
     7
 74
     0
 91
        4
 64
     7
 65
   257
 75
     1
175
     1
 42
1.0
 92
        8
 66
     7
 43
1.0
 76
     1
 77
     6
 78
     2
 67
     7
 79
     5
170
     0
171
     0
290
     0
174
     0
 93
        1
 44
0.0
173
     0
291
     1
 45
0.0
1001
ACAD
1000
AcDbSavedByObjectVersion
1070
     0
  0
VISUALSTYLE
  5
1487
102
{ACAD_REACTORS
330
147B
102
}
330
147B
100
AcDbVisualStyle
  2
Brighten
 70
    12
 71
     2
 72
     2
 73
     0
 90
        0
 40
-0.6
 41
-30.0
 62
     5
 63
     7
 74
     1
 91
        4
 64
     7
 65
   257
 75
     1
175
     1
 42
1.0
 92
        8
 66
     7
 43
1.0
 76
     1
 77
     6
 78
     2
 67
     7
 79
     5
170
     0
171
     0
290
     0
174
     0
 93
        1
 44
50.0
173
     0
291
     1
 45
0.0
1001
ACAD
1000
AcDbSavedByObjectVersion
1070
     0
  0
VISUALSTYLE
  5
148B
102
{ACAD_REACTORS
330
147B
102
}
330
147B
100
AcDbVisualStyle
  2
ColorChange
 70
    16
 71
     2
 72
     2
 73
     3
 90
        0
 40
-0.6
 41
-30.0
 62
     5
 63
     8
 74
     1
 91
        4
 64
     7
 65
   257
 75
     1
175
     1
 42
1.0
 92
        8
 66
     8
 43
1.0
 76
     1
 77
     6
 78
     2
 67
     7
 79
     5
170
     0
171
     0
290
     0
174
     0
 93
        1
 44
0.0
173
     0
291
     1
 45
0.0
1001
ACAD
1000
AcDbSavedByObjectVersion
1070
     0
  0
VISUALSTYLE
  5
1486
102
{ACAD_REACTORS
330
147B
102
}
330
147B
100
AcDbVisualStyle
  2
Dim
 70
    11
 71
     2
 72
     2
 73
     0
 90
        0
 40
-0.6
 41
-30.0
 62
     5
 63
     7
 74
     1
 91
        4
 64
     7
 65
   257
 75
     1
175
     1
 42
1.0
 92
        8
 66
     7
 43
1.0
 76
     1
 77
     6
 78
     2
 67
     7
 79
     5
170
     0
171
     0
290
     0
174
     0
 93
        1
 44
-50.0
173
     0
291
     1
 45
0.0
1001
ACAD
1000
AcDbSavedByObjectVersion
1070
     0
  0
VISUALSTYLE
  5
148A
102
{ACAD_REACTORS
330
147B
102
}
330
147B
100
AcDbVisualStyle
  2
Facepattern
 70
    15
 71
     2
 72
     2
 73
     0
 90
        0
 40
-0.6
 41
-30.0
 62
     5
 63
     7
 74
     1
 91
        4
 64
     7
 65
   257
 75
     1
175
     1
 42
1.0
 92
        8
 66
     7
 43
1.0
 76
     1
 77
     6
 78
     2
 67
     7
 79
     5
170
     0
171
     0
290
     0
174
     0
 93
        1
 44
0.0
173
     0
291
     1
 45
0.0
1001
ACAD
1000
AcDbSavedByObjectVersion
1070
     0
  0
VISUALSTYLE
  5
147C
102
{ACAD_REACTORS
330
147B
102
}
330
147B
100
AcDbVisualStyle
  2
Flat
 70
     0
 71
     2
 72
     1
 73
     1
 90
        2
 40
-0.6
 41
30.0
 62
     5
 63
     7
 74
     0
 91
        4
 64
     7
 65
   257
 75
     1
175
     1
 42
1.0
 92
        8
 66
     7
 43
1.0
 76
     1
 77
     6
 78
     2
 67
     7
 79
     5
170
     0
171
     0
290
     0
174
     0
 93
       13
 44
0.0
173
     0
291
     1
 45
0.0
1001
ACAD
1000
AcDbSavedByObjectVersion
1070
     0
  0
VISUALSTYLE
  5
147D
102
{ACAD_REACTORS
330
147B
102
}
330
147B
100
AcDbVisualStyle
  2
FlatWithEdges
 70
     1
 71
     2
 72
     1
 73
     1
 90
        2
 40
-0.6
 41
30.0
 62
     5
 63
     7
 74
     1
 91
        4
 64
     7
 65
   257
 75
     1
175
     1
 42
1.0
 92
        0
 66
   257
 43
1.0
 76
     1
 77
     6
 78
     2
 67
     7
 79
     5
170
     0
171
     0
290
     0
174
     0
 93
       13
 44
0.0
173
     0
291
     1
 45
0.0
1001
ACAD
1000
AcDbSavedByObjectVersion
1070
     0
  0
VISUALSTYLE
  5
147E
102
{ACAD_REACTORS
330
147B
102
}
330
147B
100
AcDbVisualStyle
  2
Gouraud
 70
     2
 71
     2
 72
     2
 73
     1
 90
        2
 40
-0.6
 41
30.0
 62
     5
 63
     7
 74
     0
 91
        4
 64
     7
 65
   257
 75
     1
175
     1
 42
1.0
 92
        0
 66
     7
 43
1.0
 76
     1
 77
     6
 78
     2
 67
     7
 79
     5
170
     0
171
     0
290
     0
174
     0
 93
       13
 44
0.0
173
     0
291
     1
 45
0.0
1001
ACAD
1000
AcDbSavedByObjectVersion
1070
     0
  0
VISUALSTYLE
  5
147F
102
{ACAD_REACTORS
330
147B
102
}
330
147B
100
AcDbVisualStyle
  2
GouraudWithEdges
 70
     3
 71
     2
 72
     2
 73
     1
 90
        2
 40
-0.6
 41
30.0
 62
     5
 63
     7
 74
     1
 91
        4
 64
     7
 65
   257
 75
     1
175
     1
 42
1.0
 92
        0
 66
   257
 43
1.0
 76
     1
 77
     6
 78
     2
 67
     7
 79
     5
170
     0
171
     0
290
     0
174
     0
 93
       13
 44
0.0
173
     0
291
     1
 45
0.0
1001
ACAD
1000
AcDbSavedByObjectVersion
1070
     0
  0
VISUALSTYLE
  5
1489
102
{ACAD_REACTORS
330
147B
102
}
330
147B
100
AcDbVisualStyle
  2
Linepattern
 70
    14
 71
     2
 72
     2
 73
     0
 90
        0
 40
-0.6
 41
-30.0
 62
     5
 63
     7
 74
     1
 91
        4
 64
     7
 65
   257
 75
     7
175
     7
 42
1.0
 92
        8
 66
     7
 43
1.0
 76
     1
 77
     6
 78
     2
 67
     7
 79
     5
170
     0
171
     0
290
     0
174
     0
 93
        1
 44
0.0
173
     0
291
     1
 45
0.0
1001
ACAD
1000
AcDbSavedByObjectVersion
1070
     0
  0
VISUALSTYLE
  5
1488
102
{ACAD_REACTORS
330
147B
102
}
330
147B
100
AcDbVisualStyle
  2
Thicken
 70
    13
 71
     2
 72
     2
 73
     0
 90
        0
 40
-0.6
 41
-30.0
 62
     5
 63
     7
 74
     1
 91
        4
 64
     7
 65
   257
 75
     1
175
     1
 42
1.0
 92
       12
 66
     7
 43
1.0
 76
     1
 77
     6
 78
     2
 67
     7
 79
     5
170
     0
171
     0
290
     0
174
     0
 93
        1
 44
0.0
173
     0
291
     1
 45
0.0
1001
ACAD
1000
AcDbSavedByObjectVersion
1070
     0
  0
DICTIONARYVAR
  5
14B5
102
{ACAD_REACTORS
330
14B4
102
}
330
14B4
100
DictionaryVariables
280
     0
  1
STANDARD
  0
DICTIONARYVAR
  5
14B8
102
{ACAD_REACTORS
330
14B4
102
}
330
14B4
100
DictionaryVariables
280
     0
  1
1
  0
DICTIONARYVAR
  5
14B7
102
{ACAD_REACTORS
330
14B4
102
}
330
14B4
100
DictionaryVariables
280
     0
  1
0
  0
DICTIONARYVAR
  5
14B6
102
{ACAD_REACTORS
330
14B4
102
}
330
14B4
100
DictionaryVariables
280
     0
  1
127
  0
DICTIONARY
  5
14D9
330
14A0
100
AcDbDictionary
280
     1
281
     1
  3
ACAD_XREC_ROUNDTRIP
360
14DA
  0
DICTIONARY
  5
14D7
330
149C
100
AcDbDictionary
280
     1
281
     1
  3
ACAD_XREC_ROUNDTRIP
360
14D8
  0
DICTIONARY
  5
14D1
330
1479
100
AcDbDictionary
280
     1
281
     1
  3
ACAD_XREC_ROUNDTRIP
360
14D2
  0
DICTIONARY
  5
14CF
330
1478
100
AcDbDictionary
280
     1
281
     1
  3
ACAD_XREC_ROUNDTRIP
360
14D0
  0
DICTIONARY
  5
14D3
330
147A
100
AcDbDictionary
280
     1
281
     1
  3
ACAD_XREC_ROUNDTRIP
360
14D4
  0
DICTIONARY
  5
14D5
330
1498
100
AcDbDictionary
280
     1
281
     1
  3
ACAD_XREC_ROUNDTRIP
360
14D6
  0
XRECORD
  5
14DA
102
{ACAD_REACTORS
330
14D9
102
}
330
14D9
100
AcDbXrecord
280
     1
102
SHADEPLOT
 70
     0
102
SHADEPLOTRESLEVEL
 70
     2
102
SHADEPLOTCUSTOMDPI
 70
   300
  0
XRECORD
  5
14D8
102
{ACAD_REACTORS
330
14D7
102
}
330
14D7
100
AcDbXrecord
280
     1
102
SHADEPLOT
 70
     0
102
SHADEPLOTRESLEVEL
 70
     2
102
SHADEPLOTCUSTOMDPI
 70
   300
  0
XRECORD
  5
14D2
102
{ACAD_REACTORS
330
14D1
102
}
330
14D1
100
AcDbXrecord
280
     1
102
MATERIAL
148
0.0
149
0.0
149
0.0
 93
        0
 94
       63
282
     0
 72
     1
 77
     1
171
     1
175
     1
179
     1
273
     0
  0
XRECORD
  5
14D0
102
{ACAD_REACTORS
330
14CF
102
}
330
14CF
100
AcDbXrecord
280
     1
102
MATERIAL
148
0.0
149
0.0
149
0.0
 93
        0
 94
       63
282
     0
 72
     1
 77
     1
171
     1
175
     1
179
     1
273
     0
  0
XRECORD
  5
14D4
102
{ACAD_REACTORS
330
14D3
102
}
330
14D3
100
AcDbXrecord
280
     1
102
MATERIAL
148
0.0
149
0.0
149
0.0
 93
        0
 94
       63
282
     0
 72
     1
 77
     1
171
     1
175
     1
179
     1
273
     0
  0
XRECORD
  5
14D6
102
{ACAD_REACTORS
330
14D5
102
}
330
14D5
100
AcDbXrecord
280
     1
102
ACAD_ROUNDTRIP_PRE2007_TABLESTYLE
 90
      512
 91
        0
  1

 92
      512
 93
        0
  2

 94
      512
 95
        0
  3

  0
ENDSEC
  0
EOF
