  0
SECTION
  2
HEADER
  9
$ACADVER
  1
AC1009
  9
$INSBASE
 10
0.0
 20
0.0
 30
0.0
  9
$EXTMIN
 10
-135.30567849444591
 20
-24.218879686113951
 30
0.0
  9
$EXTMAX
 10
14.78517552767045
 20
96.800014972686753
 30
0.0
  9
$LIMMIN
 10
0.0
 20
0.0
  9
$LIMMAX
 10
420.0
 20
297.0
  9
$ORTHOMODE
 70
     1
  9
$REGENMODE
 70
     1
  9
$FILLMODE
 70
     1
  9
$QTEXTMODE
 70
     0
  9
$MIRRTEXT
 70
     0
  9
$DRAGMODE
 70
     2
  9
$LTSCALE
 40
1.0
  9
$OSMODE
 70
  3071
  9
$ATTMODE
 70
     1
  9
$TEXTSIZE
 40
3.0
  9
$TRACEWID
 40
1.0
  9
$TEXTSTYLE
  7
STANDARD
  9
$CLAYER
  8
0
  9
$CELTYPE
  6
CONTINUOUS
  9
$CECOLOR
 62
     7
  9
$DIMSCALE
 40
1.0
  9
$DIMASZ
 40
2.5
  9
$DIMEXO
 40
0.625
  9
$DIMDLI
 40
3.75
  9
$DIMRND
 40
0.0
  9
$DIMDLE
 40
0.0
  9
$DIMEXE
 40
1.25
  9
$DIMTP
 40
0.0
  9
$DIMTM
 40
0.0
  9
$DIMTXT
 40
2.5
  9
$DIMCEN
 40
2.5
  9
$DIMTSZ
 40
0.0
  9
$DIMTOL
 70
     0
  9
$DIMLIM
 70
     0
  9
$DIMTIH
 70
     0
  9
$DIMTOH
 70
     0
  9
$DIMSE1
 70
     0
  9
$DIMSE2
 70
     0
  9
$DIMTAD
 70
     1
  9
$DIMZIN
 70
     8
  9
$DIMBLK
  1
OPEN30
  9
$DIMASO
 70
     1
  9
$DIMSHO
 70
     1
  9
$DIMPOST
  1

  9
$DIMAPOST
  1

  9
$DIMALT
 70
     0
  9
$DIMALTD
 70
     3
  9
$DIMALTF
 40
0.03937007874016
  9
$DIMLFAC
 40
1.0
  9
$DIMTOFL
 70
     1
  9
$DIMTVP
 40
0.0
  9
$DIMTIX
 70
     0
  9
$DIMSOXD
 70
     0
  9
$DIMSAH
 70
     0
  9
$DIMBLK1
  1

  9
$DIMBLK2
  1

  9
$DIMSTYLE
  2
MISUMI
  9
$DIMCLRD
 70
   137
  9
$DIMCLRE
 70
   137
  9
$DIMCLRT
 70
   137
  9
$DIMTFAC
 40
1.0
  9
$DIMGAP
 40
0.625
  9
$LUNITS
 70
     2
  9
$LUPREC
 70
     2
  9
$SKETCHINC
 40
1.0
  9
$FILLETRAD
 40
0.0
  9
$AUNITS
 70
     0
  9
$AUPREC
 70
     0
  9
$MENU
  1
.
  9
$ELEVATION
 40
0.0
  9
$PELEVATION
 40
0.0
  9
$THICKNESS
 40
0.0
  9
$LIMCHECK
 70
     0
  9
$BLIPMODE
 70
     0
  9
$CHAMFERA
 40
0.5
  9
$CHAMFERB
 40
0.5
  9
$SKPOLY
 70
     0
  9
$TDCREATE
 40
2455135.5720697101
  9
$TDUPDATE
 40
2455328.5463589472
  9
$TDINDWG
 40
0.0683856944
  9
$TDUSRTIMER
 40
0.0683855093
  9
$USRTIMER
 70
     1
  9
$ANGBASE
 50
0.0
  9
$ANGDIR
 70
     0
  9
$PDMODE
 70
    35
  9
$PDSIZE
 40
0.0
  9
$PLINEWID
 40
0.0
  9
$COORDS
 70
     2
  9
$SPLFRAME
 70
     0
  9
$SPLINETYPE
 70
     6
  9
$SPLINESEGS
 70
     8
  9
$ATTDIA
 70
     0
  9
$ATTREQ
 70
     1
  9
$HANDLING
 70
 22529
  9
$HANDSEED
  5
106B
  9
$SURFTAB1
 70
     6
  9
$SURFTAB2
 70
     6
  9
$SURFTYPE
 70
     6
  9
$SURFU
 70
     6
  9
$SURFV
 70
     6
  9
$UCSNAME
  2

  9
$UCSORG
 10
0.0
 20
0.0
 30
0.0
  9
$UCSXDIR
 10
1.0
 20
0.0
 30
0.0
  9
$UCSYDIR
 10
0.0
 20
1.0
 30
0.0
  9
$PUCSNAME
  2

  9
$PUCSORG
 10
0.0
 20
0.0
 30
0.0
  9
$PUCSXDIR
 10
1.0
 20
0.0
 30
0.0
  9
$PUCSYDIR
 10
0.0
 20
1.0
 30
0.0
  9
$USERI1
 70
     0
  9
$USERI2
 70
     0
  9
$USERI3
 70
     0
  9
$USERI4
 70
     0
  9
$USERI5
 70
     0
  9
$USERR1
 40
0.0
  9
$USERR2
 40
0.0
  9
$USERR3
 40
0.0
  9
$USERR4
 40
0.0
  9
$USERR5
 40
0.0
  9
$WORLDVIEW
 70
     1
  9
$SHADEDGE
 70
     3
  9
$SHADEDIF
 70
    70
  9
$TILEMODE
 70
     1
  9
$MAXACTVP
 70
    64
  9
$PLIMCHECK
 70
     0
  9
$PEXTMIN
 10
0.0
 20
0.0
 30
0.0
  9
$PEXTMAX
 10
0.0
 20
0.0
 30
0.0
  9
$PLIMMIN
 10
0.0
 20
0.0
  9
$PLIMMAX
 10
12.0
 20
9.0
  9
$UNITMODE
 70
     0
  9
$VISRETAIN
 70
     1
  9
$PLINEGEN
 70
     0
  9
$PSLTSCALE
 70
     1
  0
ENDSEC
  0
SECTION
  2
TABLES
  0
TABLE
  2
VPORT
 70
     2
  0
VPORT
  2
*ACTIVE
 70
     0
 10
0.0
 20
0.0
 11
1.0
 21
1.0
 12
-46.609106827020227
 22
36.298391054905153
 13
0.0
 23
0.0
 14
10.0
 24
10.0
 15
10.0
 25
10.0
 16
0.0
 26
0.0
 36
1.0
 17
0.0
 27
0.0
 37
0.0
 40
122.06845838699761
 41
1.302295918367347
 42
50.0
 43
0.0
 44
0.0
 50
0.0
 51
0.0
 71
     0
 72
  1000
 73
     1
 74
     3
 75
     0
 76
     0
 77
     0
 78
     0
  0
ENDTAB
  0
TABLE
  2
LTYPE
 70
     4
  0
LTYPE
  2
CONTINUOUS
 70
     0
  3
Solid line
 72
    65
 73
     0
 40
0.0
  0
LTYPE
  2
CENTER
 70
     0
  3
Center ____ _ ____ _ ____ _ ____ _ ____ _ ____
 72
    65
 73
     4
 40
50.799999999999997
 49
31.75
 49
-6.3499999999999988
 49
6.3499999999999988
 49
-6.3499999999999988
  0
LTYPE
  2
DASHED
 70
     0
  3
Dashed __ __ __ __ __ __ __ __ __ __ __ __ __ _
 72
    65
 73
     2
 40
19.04999999999999
 49
12.699999999999999
 49
-6.3499999999999988
  0
ENDTAB
  0
TABLE
  2
LAYER
 70
     3
  0
LAYER
  2
0
 70
     0
 62
     7
  6
CONTINUOUS
  0
LAYER
  2
CENTER
 70
     0
 62
     1
  6
CENTER
  0
LAYER
  2
DEFPOINTS
 70
     0
 62
     7
  6
CONTINUOUS
  0
ENDTAB
  0
TABLE
  2
STYLE
 70
     1
  0
STYLE
  2
STANDARD
 70
     0
 40
3.0
 41
1.0
 50
0.0
 71
     0
 42
3.0
  3
txt.shx
  4
bigfont.shx
  0
ENDTAB
  0
TABLE
  2
VIEW
 70
     0
  0
ENDTAB
  0
TABLE
  2
UCS
 70
     0
  0
ENDTAB
  0
TABLE
  2
APPID
 70
     1
  0
APPID
  2
ACAD
 70
     0
  0
ENDTAB
  0
TABLE
  2
DIMSTYLE
 70
     1
  0
DIMSTYLE
  2
MISUMI
 70
     0
  3

  4

  5
OPEN30
  6

  7

 40
1.0
 41
2.5
 42
0.625
 43
3.75
 44
1.25
 45
0.0
 46
0.0
 47
0.0
 48
0.0
140
2.5
141
2.5
142
0.0
143
0.03937007874016
144
1.0
145
0.0
146
1.0
147
0.625
 71
     0
 72
     0
 73
     0
 74
     0
 75
     0
 76
     0
 77
     1
 78
     8
170
     0
171
     3
172
     1
173
     0
174
     0
175
     0
176
   137
177
   137
178
   137
  0
ENDTAB
  0
ENDSEC
  0
SECTION
  2
BLOCKS
  0
BLOCK
  8
0
  2
$MODEL_SPACE
 70
     0
 10
0.0
 20
0.0
 30
0.0
  3
$MODEL_SPACE
  1

  0
ENDBLK
  5
21
  8
0
  0
BLOCK
 67
     1
  8
0
  2
$PAPER_SPACE
 70
     0
 10
0.0
 20
0.0
 30
0.0
  3
$PAPER_SPACE
  1

  0
ENDBLK
  5
53
 67
     1
  8
0
  0
BLOCK
  8
0
 62
     7
  2
_OPEN30
 70
     0
 10
0.0
 20
0.0
 30
0.0
  3
_OPEN30
  1

  0
LINE
  5
D7
  8
0
  6
BYBLOCK
 62
     0
 10
-1.0
 20
0.26794919
 30
0.0
 11
0.0
 21
0.0
 31
0.0
  0
LINE
  5
D8
  8
0
  6
BYBLOCK
 62
     0
 10
0.0
 20
0.0
 30
0.0
 11
-1.0
 21
-0.26794919
 31
0.0
  0
LINE
  5
D9
  8
0
  6
BYBLOCK
 62
     0
 10
0.0
 20
0.0
 30
0.0
 11
-1.0
 21
0.0
 31
0.0
  0
ENDBLK
  5
DB
  8
0
 62
     7
  0
ENDSEC
  0
SECTION
  2
ENTITIES
  0
ARC
  5
D79
  8
0
  6
CONTINUOUS
 62
     7
 10
-98.377769470214844
 20
29.010210037231442
 30
0.0
 40
1.0000000000000011
 50
180.00002231180031
 51
269.99999749552148
  0
ARC
  5
D7A
  8
0
  6
CONTINUOUS
 62
     7
 10
-45.377777099609368
 20
29.010210037231442
 30
0.0
 40
0.9999999999999996
 50
270.00001798608901
 51
359.99998133066458
  0
CIRCLE
  5
D7B
  8
0
  6
CONTINUOUS
 62
     7
 10
-51.877777099609368
 20
29.510210037231442
 30
0.0
 40
2.5
  0
LINE
  5
D7C
  8
0
  6
CONTINUOUS
 62
     7
 10
-57.877777099609382
 20
34.0
 30
0.0
 11
-57.877777099609382
 21
28.010210037231442
 31
0.0
  0
LINE
  5
D7D
  8
0
  6
CONTINUOUS
 62
     7
 10
-85.877769470214844
 20
34.0
 30
0.0
 11
-85.877769470214844
 21
28.010210037231442
 31
0.0
  0
LINE
  5
D7E
  8
CENTER
  6
CENTER
 62
     1
 10
-51.877777099609368
 20
34.010210037231438
 30
0.0
 11
-51.877777099609368
 21
25.010210037231442
 31
0.0
  0
LINE
  5
D7F
  8
CENTER
  6
CENTER
 62
     1
 10
-71.877777099609375
 20
37.0
 30
0.0
 11
-71.877777099609375
 21
-13.800002574920651
 31
0.0
  0
LINE
  5
D80
  8
0
  6
CONTINUOUS
 62
     7
 10
-66.877777099609375
 20
29.01021575927734
 30
0.0
 11
-66.877777099609375
 21
27.810211181640621
 31
0.0
  0
LINE
  5
D81
  8
0
  6
CONTINUOUS
 62
     7
 10
-76.877777099609375
 20
29.01021575927734
 30
0.0
 11
-76.877777099609375
 21
27.810211181640621
 31
0.0
  0
ARC
  5
D82
  8
0
  6
CONTINUOUS
 62
     7
 10
-79.477767944335923
 20
12.80000066757202
 30
0.0
 40
1.5
 50
269.99999749552148
 51
0.0
  0
ARC
  5
D83
  8
0
  6
CONTINUOUS
 62
     7
 10
-78.779693603515625
 20
-9.7999997138977051
 30
0.0
 40
1.5
 50
269.99999749552148
 51
299.99999833034769
  0
LINE
  5
D84
  8
0
  6
CONTINUOUS
 62
     7
 10
-97.377769470214844
 20
21.010210037231442
 30
0.0
 11
-71.877777099609375
 21
21.010210037231442
 31
0.0
  0
LINE
  5
D85
  8
0
  6
CONTINUOUS
 62
     7
 10
-97.377769470214844
 20
23.010210037231442
 30
0.0
 11
-71.877777099609375
 21
23.010210037231442
 31
0.0
  0
LINE
  5
D86
  8
CENTER
  6
CENTER
 62
     1
 10
-103.8777770996093
 20
0.0
 30
0.0
 11
-49.877777099609368
 21
0.0
 31
0.0
  0
LINE
  5
D87
  8
0
  6
CONTINUOUS
 62
     7
 10
-97.377769470214844
 20
27.010210037231442
 30
0.0
 11
-97.377769470214844
 21
21.010210037231442
 31
0.0
  0
ARC
  5
D88
  8
0
  6
CONTINUOUS
 62
     7
 10
-98.377769470214844
 20
27.010210037231442
 30
0.0
 40
1.0
 50
0.0
 51
89.999982013910127
  0
LINE
  5
D89
  8
0
  6
CONTINUOUS
 62
     7
 10
-81.711727142333984
 20
11.30000066757202
 30
0.0
 11
-81.711727142333984
 21
-11.2999997138977
 31
0.0
  0
LINE
  5
D8A
  8
0
  6
CONTINUOUS
 62
     7
 10
-85.077789306640625
 20
11.500009059906001
 30
0.0
 11
-85.077789306640625
 21
-11.50000238418578
 31
0.0
  0
LINE
  5
D8B
  8
0
  6
CONTINUOUS
 62
     7
 10
-101.8777770996093
 20
10.0
 30
0.0
 11
-101.8777770996093
 21
-9.9999999999999964
 31
0.0
  0
LINE
  5
D8C
  8
0
  6
CONTINUOUS
 62
     7
 10
-86.577781677246094
 20
11.300002574920651
 30
0.0
 11
-86.577781677246094
 21
-11.300001621246331
 31
0.0
  0
LINE
  5
D8D
  8
0
  6
CONTINUOUS
 62
     7
 10
-101.8777770996093
 20
0.0
 30
0.0
 11
-86.577781677246094
 21
0.0
 31
0.0
  0
LINE
  5
D8F
  8
0
  6
CONTINUOUS
 62
     7
 10
-101.8777770996093
 20
-9.9999999999999964
 30
0.0
 11
-87.077781677246094
 21
-9.9999999999999964
 31
0.0
  0
LINE
  5
D90
  8
0
  6
CONTINUOUS
 62
     7
 10
-84.777770996093736
 20
-11.80000257492066
 30
0.0
 11
-82.845718383789077
 21
-11.80000257492066
 31
0.0
  0
LINE
  5
D91
  8
0
  6
CONTINUOUS
 62
     7
 10
-85.377776145935059
 20
-11.800000667572011
 30
0.0
 11
-85.077772140502915
 21
-11.499995708465571
 31
0.0
  0
ARC
  5
D92
  8
0
  6
CONTINUOUS
 62
     7
 10
-86.077781677246094
 20
-11.300001621246331
 30
0.0
 40
0.5000000000000004
 50
179.99999134857799
 51
270.00000068324539
  0
ARC
  5
D93
  8
0
  6
CONTINUOUS
 62
     7
 10
-87.077781677246094
 20
-10.499999999999989
 30
0.0
 40
0.5000000000000006
 50
359.99999749552182
 51
90.000002504477663
  0
LINE
  5
D94
  8
0
  6
CONTINUOUS
 62
     7
 10
-86.077781677246094
 20
-11.800001621246331
 30
0.0
 11
-85.377792358398437
 21
-11.800001621246331
 31
0.0
  0
LINE
  5
D95
  8
0
  6
CONTINUOUS
 62
     7
 10
-84.777769088745117
 20
-11.800001621246331
 30
0.0
 11
-85.077762603759766
 21
-11.500007152557369
 31
0.0
  0
LINE
  5
D96
  8
0
  6
CONTINUOUS
 62
     7
 10
-81.44378662109375
 20
-11.2999997138977
 30
0.0
 11
-78.779693603515625
 21
-11.2999997138977
 31
0.0
  0
ARC
  5
D97
  8
0
  6
CONTINUOUS
 62
     7
 10
-81.44378662109375
 20
-12.2999997138977
 30
0.0
 40
0.9999999999999992
 50
90.000002504478445
 51
120.0000033393039
  0
LINE
  5
D98
  8
0
  6
CONTINUOUS
 62
     7
 10
-82.345714569091797
 20
-11.66603231430053
 30
0.0
 11
-81.943782806396484
 21
-11.43397665023803
 31
0.0
  0
ARC
  5
D99
  8
0
  6
CONTINUOUS
 62
     7
 10
-82.845718383789077
 20
-10.800002574920651
 30
0.0
 40
0.9999999999999992
 50
269.99999749552148
 51
299.99999833034769
  0
ARC
  5
D9A
  8
0
  6
CONTINUOUS
 62
     7
 10
-85.877754211425795
 20
26.010210037231442
 30
0.0
 40
2.0
 50
90.000473787531192
 51
180.00001866933459
  0
ARC
  5
D9B
  8
0
  6
CONTINUOUS
 62
     7
 10
-85.877754211425795
 20
25.010210037231442
 30
0.0
 40
2.0
 50
180.00002231180031
 51
269.99999749552148
  0
LINE
  5
D9D
  8
0
  6
CONTINUOUS
 62
     7
 10
-101.8777770996093
 20
10.0
 30
0.0
 11
-87.077781677246094
 21
10.0
 31
0.0
  0
LINE
  5
D9E
  8
0
  6
CONTINUOUS
 62
     7
 10
-87.877769470214844
 20
23.010210037231442
 30
0.0
 11
-87.877769470214844
 21
21.010210037231442
 31
0.0
  0
LINE
  5
D9F
  8
0
  6
CONTINUOUS
 62
     7
 10
-87.877754211425781
 20
26.010210037231442
 30
0.0
 11
-87.877754211425781
 21
25.010210037231442
 31
0.0
  0
LINE
  5
DA0
  8
0
  6
CONTINUOUS
 62
     7
 10
-84.777770996093736
 20
11.800002574920651
 30
0.0
 11
-82.845718383789077
 21
11.800002574920651
 31
0.0
  0
LINE
  5
DA1
  8
0
  6
CONTINUOUS
 62
     7
 10
-85.377777099609375
 20
11.80000066757202
 30
0.0
 11
-85.077773094177246
 21
11.499996662139891
 31
0.0
  0
ARC
  5
DA2
  8
0
  6
CONTINUOUS
 62
     7
 10
-86.077781677246094
 20
11.300002574920651
 30
0.0
 40
0.4999999999999995
 50
90.000009334666785
 51
180.00000500895629
  0
ARC
  5
DA3
  8
0
  6
CONTINUOUS
 62
     7
 10
-87.077781677246094
 20
10.5
 30
0.0
 40
0.5000000000000006
 50
269.99999749552148
 51
0.000002504478269
  0
LINE
  5
DA4
  8
0
  6
CONTINUOUS
 62
     7
 10
-86.077781677246094
 20
11.800002574920651
 30
0.0
 11
-85.377792358398437
 21
11.800002574920651
 31
0.0
  0
LINE
  5
DA5
  8
0
  6
CONTINUOUS
 62
     7
 10
-84.777757644653335
 20
11.80000066757202
 30
0.0
 11
-85.077751159667969
 21
11.50000619888305
 31
0.0
  0
LINE
  5
DA6
  8
0
  6
CONTINUOUS
 62
     7
 10
-81.44378662109375
 20
11.30000066757202
 30
0.0
 11
-79.477767944335923
 21
11.30000066757202
 31
0.0
  0
ARC
  5
DA7
  8
0
  6
CONTINUOUS
 62
     7
 10
-81.44378662109375
 20
12.30000066757202
 30
0.0
 40
0.9999999999999992
 50
239.99999666069601
 51
269.99999749552148
  0
LINE
  5
DA8
  8
0
  6
CONTINUOUS
 62
     7
 10
-82.345716476440444
 20
11.66602849960327
 30
0.0
 11
-81.943784713745103
 21
11.43397283554077
 31
0.0
  0
ARC
  5
DA9
  8
0
  6
CONTINUOUS
 62
     7
 10
-82.845718383789077
 20
10.800002574920651
 30
0.0
 40
0.9999999999999996
 50
60.000001669652313
 51
90.000002504478445
  0
LINE
  5
DAA
  8
0
  6
CONTINUOUS
 62
     7
 10
-63.188385009765618
 20
9.5000014305114746
 30
0.0
 11
-60.047958374023438
 21
9.5000014305114746
 31
0.0
  0
LINE
  5
DAB
  8
0
  6
CONTINUOUS
 62
     7
 10
-64.954315185546875
 20
-9.4999995231628418
 30
0.0
 11
-60.047958374023438
 21
-9.4999995231628418
 31
0.0
  0
LINE
  5
DAC
  8
0
  6
CONTINUOUS
 62
     7
 10
-71.877777099609375
 20
21.010210037231442
 30
0.0
 11
-46.377777099609368
 21
21.010210037231442
 31
0.0
  0
LINE
  5
DAD
  8
0
  6
CONTINUOUS
 62
     7
 10
-71.877777099609375
 20
23.010210037231442
 30
0.0
 11
-57.877792358398438
 21
23.010210037231442
 31
0.0
  0
LINE
  5
DAF
  8
0
  6
CONTINUOUS
 62
     7
 10
-78.377758502960205
 20
11.78020694878167
 30
0.0
 11
-78.377758502960205
 21
-11.24514613379484
 31
0.0
  0
LINE
  5
DB0
  8
0
  6
CONTINUOUS
 62
     7
 10
-77.511737823486328
 20
10.692196369171141
 30
0.0
 11
-77.511737823486328
 21
-10.854847800200821
 31
0.0
  0
LINE
  5
DB1
  8
0
  6
CONTINUOUS
 62
     7
 10
-68.277760744094834
 20
7.780689239501954
 30
0.0
 11
-68.277760744094834
 21
-10.763429874329351
 31
0.0
  0
LINE
  5
DB2
  8
0
  6
CONTINUOUS
 62
     7
 10
-66.026089191436753
 20
8.7314915657043422
 30
0.0
 11
-66.026089191436753
 21
-9.6462610161674895
 31
0.0
  0
LINE
  5
DB3
  8
0
  6
CONTINUOUS
 62
     7
 10
-77.109832763671875
 20
-10.800002574920651
 30
0.0
 11
-68.545730590820312
 21
-10.800002574920651
 31
0.0
  0
ARC
  5
DB4
  8
0
  6
CONTINUOUS
 62
     7
 10
-77.109832763671875
 20
-12.30000257492066
 30
0.0
 40
1.5
 50
90.000002504478445
 51
120.0000033393039
  0
LINE
  5
DB5
  8
0
  6
CONTINUOUS
 62
     7
 10
-78.02968692779541
 20
-11.099040508270271
 30
0.0
 11
-77.859814643859863
 21
-11.00096464157104
 31
0.0
  0
ARC
  5
DCA
  8
0
  6
CONTINUOUS
 62
     7
 10
-64.954315185546875
 20
-13.499999523162829
 30
0.0
 40
4.0
 50
90.000002504478445
 51
120.0000033393039
  0
LINE
  5
DCB
  8
0
  6
CONTINUOUS
 62
     7
 10
-68.045709133148193
 20
-10.66602754592895
 30
0.0
 11
-66.954297065734863
 21
-10.03590059280395
 31
0.0
  0
ARC
  5
DCC
  8
0
  6
CONTINUOUS
 62
     7
 10
-68.545730590820312
 20
-9.8000025749206543
 30
0.0
 40
0.9999999999999992
 50
269.99999749552148
 51
299.99999833034769
  0
LINE
  5
DCD
  8
0
  6
CONTINUOUS
 62
     7
 10
-71.877777099609375
 20
21.010210037231442
 30
0.0
 11
-66.527801513671875
 21
21.010210037231442
 31
0.0
  0
LINE
  5
DCE
  8
0
  6
CONTINUOUS
 62
     7
 10
-77.651275634765625
 20
27.81020355224609
 30
0.0
 11
-66.104278564453125
 21
27.81020355224609
 31
0.0
  0
LINE
  5
DCF
  8
0
  6
CONTINUOUS
 62
     7
 10
-77.777786254882813
 20
21.010210037231442
 30
0.0
 11
-65.977767944335937
 21
21.010210037231442
 31
0.0
  0
LINE
  5
DD0
  8
0
  6
CONTINUOUS
 62
     7
 10
-76.877792358398437
 20
23.010213851928711
 30
0.0
 11
-66.877731323242188
 21
23.010213851928711
 31
0.0
  0
ARC
  5
DD1
  8
0
  6
CONTINUOUS
 62
     7
 10
-70.616714477539063
 20
16.46133279800415
 30
0.0
 40
8.9902324676513672
 50
210.94896192910221
 51
314.33763841454561
  0
LINE
  5
DD2
  8
0
  6
CONTINUOUS
 62
     7
 10
-77.977767944335937
 20
20.410226821899411
 30
0.0
 11
-65.777786254882812
 21
20.410226821899411
 31
0.0
  0
LINE
  5
DD3
  8
0
  6
CONTINUOUS
 62
     7
 10
-77.977767944335952
 20
20.410226821899411
 30
0.0
 11
-77.977767944335937
 21
12.80000066757202
 31
0.0
  0
LINE
  5
DE4
  8
0
  6
CONTINUOUS
 62
     7
 10
-77.777786254882813
 20
21.010210037231442
 30
0.0
 11
-77.777786254882813
 21
20.410226821899411
 31
0.0
  0
LINE
  5
DE5
  8
0
  6
CONTINUOUS
 62
     7
 10
-77.651275634765625
 20
27.81020355224609
 30
0.0
 11
-77.651275634765625
 21
23.010210037231442
 31
0.0
  0
LINE
  5
DE6
  8
0
  6
CONTINUOUS
 62
     7
 10
-74.7645263671875
 20
27.81020355224609
 30
0.0
 11
-74.7645263671875
 21
23.010210037231442
 31
0.0
  0
LINE
  5
DE7
  8
0
  6
CONTINUOUS
 62
     7
 10
-65.777786254882812
 20
20.410226821899411
 30
0.0
 11
-65.777786254882812
 21
12.761674404144291
 31
0.0
  0
ARC
  5
DE8
  8
0
  6
CONTINUOUS
 62
     7
 10
-66.127777099609375
 20
10.40000104904175
 30
0.0
 40
1.5
 50
11.536957050659529
 51
51.926912731088457
  0
ARC
  5
DE9
  8
0
  6
CONTINUOUS
 62
     7
 10
-64.27777099609375
 20
12.761674404144291
 30
0.0
 40
1.5
 50
179.99999134857799
 51
231.92691432495019
  0
ARC
  5
DEA
  8
0
  6
CONTINUOUS
 62
     7
 10
-63.188385009765618
 20
10.99999952316284
 30
0.0
 40
1.5
 50
191.53696314076069
 51
269.99999749552148
  0
LINE
  5
DEB
  8
0
  6
CONTINUOUS
 62
     7
 10
-65.977767944335937
 20
21.010210037231442
 30
0.0
 11
-65.977767944335937
 21
20.410226821899411
 31
0.0
  0
LINE
  5
DEC
  8
0
  6
CONTINUOUS
 62
     7
 10
-68.99102783203125
 20
27.81020355224609
 30
0.0
 11
-68.99102783203125
 21
23.010210037231442
 31
0.0
  0
LINE
  5
DED
  8
0
  6
CONTINUOUS
 62
     7
 10
-66.104278564453125
 20
27.81020355224609
 30
0.0
 11
-66.104278564453125
 21
23.010210037231442
 31
0.0
  0
LINE
  5
DEE
  8
0
  6
CONTINUOUS
 62
     7
 10
-61.877777099609368
 20
23.010210037231442
 30
0.0
 11
-61.877777099609368
 21
21.010210037231442
 31
0.0
  0
LINE
  5
DEF
  8
0
  6
CONTINUOUS
 62
     7
 10
-60.047958417734833
 20
9.5000014305114746
 30
0.0
 11
-60.047958374023438
 21
-9.4999995231628418
 31
0.0
  0
LINE
  5
DF0
  8
0
  6
CONTINUOUS
 62
     7
 10
-51.877777099609368
 20
-9.9999999999999964
 30
0.0
 11
-51.877777099609368
 21
10.0
 31
0.0
  0
LINE
  5
DF1
  8
0
  6
CONTINUOUS
 62
     7
 10
-58.77777099609375
 20
10.0
 30
0.0
 11
-58.77777099609375
 21
-9.9999999999999964
 31
0.0
  0
LINE
  5
DF2
  8
0
  6
CONTINUOUS
 62
     7
 10
-58.77777099609375
 20
-0.0000033378601074
 30
0.0
 11
-51.877777099609382
 21
-0.0000033378601074
 31
0.0
  0
LINE
  5
DF4
  8
0
  6
CONTINUOUS
 62
     7
 10
-51.877777099609382
 20
-9.9999999999999964
 30
0.0
 11
-58.77777099609375
 21
-9.9999999999999964
 31
0.0
  0
ARC
  5
DF5
  8
0
  6
CONTINUOUS
 62
     7
 10
-60.727504807987991
 20
-13.089675217356261
 30
0.0
 40
3.6534305640027078
 50
57.746101520284853
 51
79.280427282162094
  0
LINE
  5
DF8
  8
0
  6
CONTINUOUS
 62
     7
 10
-51.877777099609368
 20
10.0
 30
0.0
 11
-58.777786254882813
 21
10.0
 31
0.0
  0
ARC
  5
DFA
  8
0
  6
CONTINUOUS
 62
     7
 10
-60.772420309390249
 20
13.203730575395889
 30
0.0
 40
3.7739176741321749
 50
281.0675092299594
 51
301.90628216680642
  0
ARC
  5
DFB
  8
0
  6
CONTINUOUS
 62
     7
 10
-57.877792358398438
 20
26.010210037231442
 30
0.0
 40
2.0
 50
0.0
 51
89.999544881804084
  0
ARC
  5
DFC
  8
0
  6
CONTINUOUS
 62
     7
 10
-57.877792358398438
 20
25.010210037231442
 30
0.0
 40
1.9999999999999989
 50
270.00001798608901
 51
0.0
  0
LINE
  5
DFD
  8
0
  6
CONTINUOUS
 62
     7
 10
-55.87779235839843
 20
26.010210037231442
 30
0.0
 11
-55.87779235839843
 21
25.010210037231442
 31
0.0
  0
LINE
  5
DFE
  8
0
  6
CONTINUOUS
 62
     7
 10
-46.377777099609368
 20
27.010210037231442
 30
0.0
 11
-46.377777099609368
 21
21.010210037231442
 31
0.0
  0
ARC
  5
DFF
  8
0
  6
CONTINUOUS
 62
     7
 10
-45.377777099609368
 20
27.010210037231442
 30
0.0
 40
0.9999999999999985
 50
90.000036655423514
 51
180.00001866933459
  0
ARC
  5
E01
  8
0
  6
CONTINUOUS
 62
     7
 10
-78.779693603515625
 20
92.800014972686753
 30
0.0
 40
1.5000000000000031
 50
60.000001669652313
 51
90.000002504478445
  0
ARC
  5
E02
  8
0
  6
CONTINUOUS
 62
     7
 10
-78.779693603515625
 20
73.200008869171143
 30
0.0
 40
1.5000000000000011
 50
269.99999749552148
 51
299.99999833034769
  0
ARC
  5
E03
  8
0
  6
CONTINUOUS
 62
     7
 10
-71.877777099609375
 20
83.000011920928955
 30
0.0
 40
7.0000000000000018
 50
74.533988525278716
 51
195.4652881579143
  0
ARC
  5
E04
  8
0
  6
CONTINUOUS
 62
     7
 10
-79.106216430664063
 20
81.000103473663344
 30
0.0
 40
0.5000000000000006
 50
269.99999749552148
 51
15.465284856505949
  0
LINE
  5
E06
  8
0
  6
CONTINUOUS
 62
     7
 10
-71.877777099609375
 20
72.500011920928955
 30
0.0
 11
-87.877777099609375
 21
72.500011920928955
 31
0.0
  0
LINE
  5
E07
  8
CENTER
  6
CENTER
 62
     1
 10
-103.8777770996093
 20
83.000011920928969
 30
0.0
 11
-49.877777099609382
 21
83.000011920928969
 31
0.0
  0
LINE
  5
E08
  8
0
  6
CONTINUOUS
 62
     7
 10
-97.377777099609375
 20
75.85331392288208
 30
0.0
 11
-97.377777099609375
 21
80.50010347366333
 31
0.0
  0
ARC
  5
E09
  8
0
  6
CONTINUOUS
 62
     7
 10
-95.377769470214844
 20
30.01854133605957
 30
0.0
 40
3.9999999999999978
 50
101.9186074740696
 51
180.00001866933459
  0
ARC
  5
E0A
  8
0
  6
CONTINUOUS
 62
     7
 10
-95.377777099609375
 20
75.85331392288208
 30
0.0
 40
2.0
 50
179.99999134857779
 51
260.00000268169993
  0
LINE
  5
E0B
  8
0
  6
CONTINUOUS
 62
     7
 10
-99.377769470214773
 20
30.018540946645189
 30
0.0
 11
-99.377769470214773
 21
29.01020964781706
 31
0.0
  0
ARC
  5
E0C
  8
0
  6
CONTINUOUS
 62
     7
 10
-85.877769470214844
 20
-14.989789962768549
 30
0.0
 40
50.0
 50
91.169365041330337
 51
101.9186074740696
  0
ARC
  5
E0D
  8
0
  6
CONTINUOUS
 62
     7
 10
-86.877754211425781
 20
34.0
 30
0.0
 40
0.9999999999999994
 50
359.99981109507678
 51
91.169365041330337
  0
LINE
  5
E0E
  8
0
  6
CONTINUOUS
 62
     7
 10
-101.8777770996093
 20
71.453006537136446
 30
0.0
 11
-86.512511303530545
 21
71.453006537136432
 31
0.0
  0
LINE
  5
E0F
  8
0
  6
CONTINUOUS
 62
     7
 10
-87.877764701843262
 20
72.500004291534424
 30
0.0
 11
-95.725061416625977
 21
73.883694171905518
 31
0.0
  0
LINE
  5
E11
  8
0
  6
CONTINUOUS
 62
     7
 10
-84.777770996093736
 20
71.200008869171143
 30
0.0
 11
-82.845718383789077
 21
71.200008869171143
 31
0.0
  0
LINE
  5
E12
  8
0
  6
CONTINUOUS
 62
     7
 10
-85.377776145935059
 20
71.200008869171143
 30
0.0
 11
-85.077789306640625
 21
71.500001430165867
 31
0.0
  0
ARC
  5
E13
  8
0
  6
CONTINUOUS
 62
     7
 10
-86.077781677246094
 20
71.700008869171143
 30
0.0
 40
0.5000000000000004
 50
179.99999134857859
 51
270.00000068324539
  0
LINE
  5
E15
  8
0
  6
CONTINUOUS
 62
     7
 10
-86.577781677246094
 20
72.500011920928955
 30
0.0
 11
-86.577781677246094
 21
71.700008869171143
 31
0.0
  0
LINE
  5
E16
  8
0
  6
CONTINUOUS
 62
     7
 10
-86.077781677246094
 20
71.200008869171143
 30
0.0
 11
-85.377792358398437
 21
71.200008869171143
 31
0.0
  0
LINE
  5
E17
  8
0
  6
CONTINUOUS
 62
     7
 10
-85.077789306640625
 20
72.500011920928955
 30
0.0
 11
-85.077789306640625
 21
71.500001430165867
 31
0.0
  0
LINE
  5
E18
  8
0
  6
CONTINUOUS
 62
     7
 10
-84.777768135070801
 20
71.200008869171143
 30
0.0
 11
-85.077789306640625
 21
71.500001430165867
 31
0.0
  0
LINE
  5
E19
  8
0
  6
CONTINUOUS
 62
     7
 10
-81.44378662109375
 20
71.700008869171143
 30
0.0
 11
-78.779693603515625
 21
71.700008869171143
 31
0.0
  0
ARC
  5
E1A
  8
0
  6
CONTINUOUS
 62
     7
 10
-81.44378662109375
 20
70.700008869171143
 30
0.0
 40
1.0000000000000011
 50
90.000002504478445
 51
120.0000033393039
  0
ARC
  5
E1B
  8
0
  6
CONTINUOUS
 62
     7
 10
-82.845718383789077
 20
72.200008869171143
 30
0.0
 40
1.0000000000000011
 50
269.99999749552148
 51
299.99999833034758
  0
LINE
  5
E1C
  8
0
  6
CONTINUOUS
 62
     7
 10
-82.345714569091797
 20
71.333981037139893
 30
0.0
 11
-81.943781852722168
 21
71.566036701202393
 31
0.0
  0
LINE
  5
E1D
  8
0
  6
CONTINUOUS
 62
     7
 10
-81.711727142333984
 20
72.500011920928955
 30
0.0
 11
-81.711727142333984
 21
71.663444324755744
 31
0.0
  0
LINE
  5
E1E
  8
0
  6
CONTINUOUS
 62
     7
 10
-99.377777099609375
 20
82.500103473663316
 30
0.0
 11
-85.877777099609375
 21
82.500103473663316
 31
0.0
  0
LINE
  5
E1F
  8
0
  6
CONTINUOUS
 62
     7
 10
-99.377777099609375
 20
80.50010347366333
 30
0.0
 11
-79.106216430664063
 21
80.50010347366333
 31
0.0
  0
LINE
  5
E20
  8
0
  6
CONTINUOUS
 62
     7
 10
-99.377777099609375
 20
80.50010347366333
 30
0.0
 11
-99.377777099609375
 21
82.500103473663316
 31
0.0
  0
LINE
  5
E26
  8
0
  6
CONTINUOUS
 62
     7
 10
-81.711727142333984
 20
94.336579517102166
 30
0.0
 11
-81.711727142333984
 21
80.50010347366333
 31
0.0
  0
LINE
  5
E28
  8
0
  6
CONTINUOUS
 62
     7
 10
-85.077789306640625
 20
94.500026225952766
 30
0.0
 11
-85.077789306640625
 21
80.50010347366333
 31
0.0
  0
LINE
  5
E29
  8
0
  6
CONTINUOUS
 62
     7
 10
-86.577781677246094
 20
94.300014972686753
 30
0.0
 11
-86.577781677246094
 21
82.500103473663316
 31
0.0
  0
LINE
  5
E2A
  8
0
  6
CONTINUOUS
 62
     7
 10
-85.877777099609375
 20
82.500103473663316
 30
0.0
 11
-85.877777099609375
 21
80.50010347366333
 31
0.0
  0
LINE
  5
E2B
  8
0
  6
CONTINUOUS
 62
     7
 10
-84.777770996093736
 20
94.800014972686768
 30
0.0
 11
-82.845718383789077
 21
94.800014972686768
 31
0.0
  0
LINE
  5
E2C
  8
0
  6
CONTINUOUS
 62
     7
 10
-85.377779960632324
 20
94.800014972686753
 30
0.0
 11
-85.077789306640625
 21
94.500026225952766
 31
0.0
  0
ARC
  5
E2D
  8
0
  6
CONTINUOUS
 62
     7
 10
-86.077781677246094
 20
94.300014972686753
 30
0.0
 40
0.5000000000000006
 50
90.000002504477663
 51
180.00000500895689
  0
LINE
  5
E2F
  8
0
  6
CONTINUOUS
 62
     7
 10
-86.077781677246094
 20
94.800014972686768
 30
0.0
 11
-85.377779960632324
 21
94.800014972686753
 31
0.0
  0
LINE
  5
E30
  8
0
  6
CONTINUOUS
 62
     7
 10
-84.777767181396484
 20
94.800014972686768
 30
0.0
 11
-85.077789306640625
 21
94.500026225952766
 31
0.0
  0
LINE
  5
E31
  8
0
  6
CONTINUOUS
 62
     7
 10
-81.44378662109375
 20
94.300014972686753
 30
0.0
 11
-78.779693603515625
 21
94.300014972686753
 31
0.0
  0
ARC
  5
E32
  8
0
  6
CONTINUOUS
 62
     7
 10
-81.44378662109375
 20
95.300014972686753
 30
0.0
 40
1.0000000000000011
 50
239.99999666069601
 51
269.99999749552148
  0
ARC
  5
E33
  8
0
  6
CONTINUOUS
 62
     7
 10
-82.845718383789077
 20
93.800014972686768
 30
0.0
 40
1.0000000000000051
 50
60.000001669652363
 51
90.000002504478445
  0
LINE
  5
E34
  8
0
  6
CONTINUOUS
 62
     7
 10
-82.345717430114746
 20
94.666042804718018
 30
0.0
 11
-81.943784713745103
 21
94.433987140655532
 31
0.0
  0
CIRCLE
  5
E36
  8
0
  6
CONTINUOUS
 62
     7
 10
-71.877777099609375
 20
83.000011920928955
 30
0.0
 40
4.8999996185302734
  0
ARC
  5
E37
  8
0
  6
CONTINUOUS
 62
     7
 10
-71.877777099609375
 20
82.500011920928955
 30
0.0
 40
9.9999999999999964
 50
269.99999749552148
 51
0.0
  0
LINE
  5
E38
  8
0
  6
CONTINUOUS
 62
     7
 10
-59.470606803894043
 20
85.499920368194594
 30
0.0
 11
-59.470606803894043
 21
73.02527224516804
 31
0.0
  0
LINE
  5
E3A
  8
0
  6
CONTINUOUS
 62
     7
 10
-58.77777099609375
 20
85.499920368194594
 30
0.0
 11
-58.77777099609375
 21
71.453006537136446
 31
0.0
  0
LINE
  5
E3B
  8
0
  6
CONTINUOUS
 62
     7
 10
-51.877777099609368
 20
71.453006537136446
 30
0.0
 11
-51.877777099609368
 21
83.49992036819458
 31
0.0
  0
LINE
  5
E3C
  8
0
  6
CONTINUOUS
 62
     7
 10
-68.99102520942688
 20
78.000011920928955
 30
0.0
 11
-66.1042799949646
 21
83.000004291534424
 31
0.0
  0
LINE
  5
E3D
  8
0
  6
CONTINUOUS
 62
     7
 10
-77.651259899139404
 20
83.000004291534424
 30
0.0
 11
-74.764522314071655
 21
78.000027179718018
 31
0.0
  0
LINE
  5
E3E
  8
CENTER
  6
CENTER
 62
     1
 10
-71.877777099609375
 20
96.800014972686753
 30
0.0
 11
-71.877777099609361
 21
69.200008869171143
 31
0.0
  0
LINE
  5
E3F
  8
0
  6
CONTINUOUS
 62
     7
 10
-64.954315185546875
 20
73.500011920928955
 30
0.0
 11
-60.047958374023438
 21
73.500011920928955
 31
0.0
  0
LINE
  5
E40
  8
0
  6
CONTINUOUS
 62
     7
 10
-68.877777099609375
 20
30.610221862792969
 30
0.0
 11
-71.878097534179688
 21
30.610221862792969
 31
0.0
  0
LINE
  5
E41
  8
0
  6
CONTINUOUS
 62
     7
 10
-66.877777099609375
 20
29.01021575927734
 30
0.0
 11
-76.877777099609375
 21
29.01021575927734
 31
0.0
  0
LINE
  5
E42
  8
0
  6
CONTINUOUS
 62
     7
 10
-74.877777099609375
 20
30.610221862792969
 30
0.0
 11
-71.878097534179688
 21
30.610221862792969
 31
0.0
  0
LINE
  5
E44
  8
0
  6
CONTINUOUS
 62
     7
 10
-74.877777099609375
 20
30.610221862792969
 30
0.0
 11
-74.877777099609375
 21
29.01021575927734
 31
0.0
  0
LINE
  5
E45
  8
0
  6
CONTINUOUS
 62
     7
 10
-73.536087036132813
 20
30.610221862792969
 30
0.0
 11
-73.536087036132813
 21
29.01021575927734
 31
0.0
  0
LINE
  5
E46
  8
0
  6
CONTINUOUS
 62
     7
 10
-70.219467163085938
 20
30.610221862792969
 30
0.0
 11
-70.219467163085938
 21
29.01021575927734
 31
0.0
  0
LINE
  5
E47
  8
0
  6
CONTINUOUS
 62
     7
 10
-68.877777099609375
 20
29.01021575927734
 30
0.0
 11
-68.877777099609375
 21
30.610221862792969
 31
0.0
  0
LINE
  5
E4C
  8
0
  6
CONTINUOUS
 62
     7
 10
-77.109832763671875
 20
72.200008869171143
 30
0.0
 11
-68.545730590820312
 21
72.200008869171143
 31
0.0
  0
LINE
  5
E4D
  8
0
  6
CONTINUOUS
 62
     7
 10
-74.764527320861816
 20
78.000011920928955
 30
0.0
 11
-68.991025924682617
 21
78.000011920928955
 31
0.0
  0
ARC
  5
E4F
  8
0
  6
CONTINUOUS
 62
     7
 10
-77.109832763671875
 20
70.700008869171143
 30
0.0
 40
1.5000000000000011
 50
90.000002504478445
 51
120.0000033393039
  0
LINE
  5
E50
  8
0
  6
CONTINUOUS
 62
     7
 10
-77.511737823486328
 20
72.500011920928955
 30
0.0
 11
-77.511737823486328
 21
72.145163643890982
 31
0.0
  0
LINE
  5
E51
  8
0
  6
CONTINUOUS
 62
     7
 10
-78.377758502960205
 20
72.500011920928955
 30
0.0
 11
-78.377758502960205
 21
71.754862449274
 31
0.0
  0
LINE
  5
E52
  8
0
  6
CONTINUOUS
 62
     7
 10
-78.029686450958252
 20
71.900967121124268
 30
0.0
 11
-77.859814167022705
 21
71.999042987823486
 31
0.0
  0
ARC
  5
E58
  8
0
  6
CONTINUOUS
 62
     7
 10
-64.954315185546875
 20
69.500011920928955
 30
0.0
 40
4.0000000000000044
 50
90.000002504478445
 51
120.0000033393039
  0
LINE
  5
E59
  8
0
  6
CONTINUOUS
 62
     7
 10
-68.277760744094834
 20
73.170498371124268
 30
0.0
 11
-68.277760744094834
 21
72.23658156976245
 31
0.0
  0
LINE
  5
E5A
  8
0
  6
CONTINUOUS
 62
     7
 10
-68.045706987380981
 20
72.333981037139893
 30
0.0
 11
-66.95429515838623
 21
72.964107990264893
 31
0.0
  0
ARC
  5
E5B
  8
0
  6
CONTINUOUS
 62
     7
 10
-68.545730590820312
 20
73.200008869171143
 30
0.0
 40
1.0000000000000011
 50
269.99999749552148
 51
299.99999833034758
  0
LINE
  5
E5C
  8
0
  6
CONTINUOUS
 62
     7
 10
-66.026089191436753
 20
74.390896320343018
 30
0.0
 11
-66.026089191436753
 21
73.353750427924311
 31
0.0
  0
ARC
  5
E5D
  8
0
  6
CONTINUOUS
 62
     7
 10
-57.877768185854997
 20
-14.98965437400191
 30
0.0
 40
49.999864257559452
 50
78.081383350505831
 51
88.830626518483086
  0
LINE
  5
E5E
  8
CENTER
  6
CENTER
 62
     1
 10
-56.377777099609368
 20
29.510210037231442
 30
0.0
 11
-47.377777099609368
 21
29.510210037231442
 31
0.0
  0
ARC
  5
E5F
  8
0
  6
CONTINUOUS
 62
     7
 10
-56.877777099609368
 20
34.0
 30
0.0
 40
1.000000000000002
 50
88.830598986491339
 51
180.00018259387451
  0
ARC
  5
E60
  8
0
  6
CONTINUOUS
 62
     7
 10
-48.377777099609382
 20
30.01854133605957
 30
0.0
 40
4.0
 50
359.99998190824118
 51
78.081411195265133
  0
LINE
  5
E61
  8
0
  6
CONTINUOUS
 62
     7
 10
-44.377777099609368
 20
30.01854133605957
 30
0.0
 11
-44.377777099609368
 21
29.010210037231442
 31
0.0
  0
LINE
  5
E62
  8
0
  6
CONTINUOUS
 62
     7
 10
-51.877777099609368
 20
71.453006537136446
 30
0.0
 11
-58.77777099609375
 21
71.453006537136446
 31
0.0
  0
ARC
  5
E66
  8
0
  6
CONTINUOUS
 62
     7
 10
-59.877777099609368
 20
83.49992036819458
 30
0.0
 40
2.0000000000000022
 50
90.000002504478445
 51
180.00000500895601
  0
LINE
  5
E67
  8
0
  6
CONTINUOUS
 62
     7
 10
-69.377777099609375
 20
93.500011920928955
 30
0.0
 11
-55.877777099609382
 21
93.500011920928955
 31
0.0
  0
CIRCLE
  5
E6B
  8
0
  6
CONTINUOUS
 62
     3
 10
-71.877777099609375
 20
83.000011920928955
 30
0.0
 40
2.458499999999999
  0
CIRCLE
  5
E6C
  8
0
  6
CONTINUOUS
 62
     7
 10
-71.877777099609375
 20
83.000011920928955
 30
0.0
 40
3.0
  0
ARC
  5
E6D
  8
0
  6
CONTINUOUS
 62
     7
 10
-69.946548461914063
 20
92.500011920928955
 30
0.0
 40
0.5000000000000001
 50
0.9999999922540888
 51
90.000002504478445
  0
ARC
  5
E6E
  8
0
  6
CONTINUOUS
 62
     7
 10
-71.877777099609375
 20
83.000011920928955
 30
0.0
 40
7.9999999999999947
 50
72.044746572835294
 51
107.955258436121
  0
ARC
  5
E6F
  8
0
  6
CONTINUOUS
 62
     7
 10
-69.877777099609375
 20
90.228428363800049
 30
0.0
 40
0.5000000000000014
 50
254.53399034651201
 51
0.0
  0
LINE
  5
E70
  8
0
  6
CONTINUOUS
 62
     7
 10
-77.109832763671875
 20
93.800014972686768
 30
0.0
 11
-68.545730590820312
 21
93.800014972686768
 31
0.0
  0
LINE
  5
E71
  8
0
  6
CONTINUOUS
 62
     7
 10
-68.99102783203125
 20
87.999996662139907
 30
0.0
 11
-74.764513969421387
 21
87.999996662139907
 31
0.0
  0
LINE
  5
E72
  8
0
  6
CONTINUOUS
 62
     7
 10
-78.377758502960205
 20
94.245161392583924
 30
0.0
 11
-78.377758502960205
 21
85.598133563995347
 31
0.0
  0
LINE
  5
E73
  8
0
  6
CONTINUOUS
 62
     7
 10
-77.511737823486328
 20
93.854860197966914
 30
0.0
 11
-77.511737823486328
 21
87.154346942901611
 31
0.0
  0
LINE
  5
E74
  8
0
  6
CONTINUOUS
 62
     7
 10
-74.360661506652832
 20
89.544880390167236
 30
0.0
 11
-74.308927297592163
 21
92.508739948272691
 31
0.0
  0
LINE
  5
E76
  8
0
  6
CONTINUOUS
 62
     7
 10
-74.764523267745972
 20
87.999989032745361
 30
0.0
 11
-77.651261329650879
 21
83.000011920928955
 31
0.0
  0
LINE
  5
E77
  8
0
  6
CONTINUOUS
 62
     7
 10
-73.536102294921875
 20
85.500011920928955
 30
0.0
 11
-70.219451904296875
 21
85.500011920928955
 31
0.0
  0
LINE
  5
E78
  8
0
  6
CONTINUOUS
 62
     7
 10
-73.536102294921875
 20
80.500011920928955
 30
0.0
 11
-70.219451904296875
 21
80.500011920928955
 31
0.0
  0
ARC
  5
E79
  8
0
  6
CONTINUOUS
 62
     7
 10
-73.808990478515625
 20
92.500011920928955
 30
0.0
 40
0.5000000000000006
 50
90.000002504478445
 51
178.9999970125746
  0
ARC
  5
E7B
  8
0
  6
CONTINUOUS
 62
     7
 10
-77.109832763671875
 20
95.300014972686753
 30
0.0
 40
1.499999999999996
 50
239.99999666069601
 51
269.99999749552148
  0
LINE
  5
E7C
  8
0
  6
CONTINUOUS
 62
     7
 10
-78.029689311981201
 20
94.099049091339126
 30
0.0
 11
-77.859816551208496
 21
94.000973224639907
 31
0.0
  0
LINE
  5
E7D
  8
0
  6
CONTINUOUS
 62
     7
 10
-73.808990478515625
 20
93.000011920928955
 30
0.0
 11
-69.946548461914063
 21
93.000011920928955
 31
0.0
  0
LINE
  5
E7E
  8
0
  6
CONTINUOUS
 62
     7
 10
-69.40402889251709
 20
90.068546772003174
 30
0.0
 11
-69.446622610092163
 21
92.508739948272691
 31
0.0
  0
LINE
  5
E7F
  8
0
  6
CONTINUOUS
 62
     7
 10
-69.377777099609375
 20
93.500011920928955
 30
0.0
 11
-69.377777099609375
 21
90.228428363800049
 31
0.0
  0
LINE
  5
E81
  8
0
  6
CONTINUOUS
 62
     7
 10
-66.104273796081543
 20
83.000011920928955
 30
0.0
 11
-68.991018772125244
 21
87.999996662139907
 31
0.0
  0
LINE
  5
E83
  8
0
  6
CONTINUOUS
 62
     7
 10
-61.877777099609368
 20
83.49992036819458
 30
0.0
 11
-61.877777099609368
 21
82.500011920928955
 31
0.0
  0
ARC
  5
E84
  8
0
  6
CONTINUOUS
 62
     7
 10
-68.545730590820312
 20
92.800014972686753
 30
0.0
 40
1.0000000000000051
 50
60.000001669652363
 51
90.000002504478445
  0
LINE
  5
E85
  8
0
  6
CONTINUOUS
 62
     7
 10
-68.045711517333984
 20
93.666035175323486
 30
0.0
 11
-67.758140563964844
 21
93.500011920928955
 31
0.0
  0
LINE
  5
E88
  8
0
  6
CONTINUOUS
 62
     7
 10
-44.377777099609368
 20
83.49992036819458
 30
0.0
 11
-57.877777099609382
 21
83.49992036819458
 31
0.0
  0
LINE
  5
E89
  8
0
  6
CONTINUOUS
 62
     7
 10
-44.377777099609368
 20
85.499920368194594
 30
0.0
 11
-59.877777099609368
 21
85.499920368194594
 31
0.0
  0
LINE
  5
E8A
  8
0
  6
CONTINUOUS
 62
     7
 10
-55.877769470214851
 20
93.50000429153441
 30
0.0
 11
-48.030473709106438
 21
92.11631441116333
 31
0.0
  0
LINE
  5
E8C
  8
0
  6
CONTINUOUS
 62
     7
 10
-57.877777099609382
 20
83.49992036819458
 30
0.0
 11
-57.877777099609382
 21
85.499920368194594
 31
0.0
  0
LINE
  5
E8D
  8
0
  6
CONTINUOUS
 62
     7
 10
-51.877777099609368
 20
94.54701730472145
 30
0.0
 11
-58.77777099609375
 21
94.547017304721464
 31
0.0
  0
LINE
  5
E8F
  8
0
  6
CONTINUOUS
 62
     7
 10
-58.77777099609375
 20
94.547017304721464
 30
0.0
 11
-58.77777099609375
 21
93.500011920928955
 31
0.0
  0
LINE
  5
E90
  8
0
  6
CONTINUOUS
 62
     7
 10
-51.877777099609382
 20
92.794697758779677
 30
0.0
 11
-51.877777099609368
 21
94.547017304721464
 31
0.0
  0
ARC
  5
E91
  8
0
  6
CONTINUOUS
 62
     7
 10
-48.377777099609382
 20
90.14670991897583
 30
0.0
 40
2.0
 50
0.0
 51
80.000004502932754
  0
LINE
  5
E92
  8
0
  6
CONTINUOUS
 62
     7
 10
-46.377777099609368
 20
90.14670991897583
 30
0.0
 11
-46.377777099609368
 21
85.499920368194594
 31
0.0
  0
LINE
  5
E93
  8
0
  6
CONTINUOUS
 62
     7
 10
-44.377777099609368
 20
85.499920368194594
 30
0.0
 11
-44.377777099609368
 21
83.49992036819458
 31
0.0
  0
LINE
  5
E94
  8
0
  6
CONTINUOUS
 62
     7
 10
4.999969482421875
 20
28.999804294690929
 30
0.0
 11
4.999969482421875
 21
22.99979857264503
 31
0.0
  0
LINE
  5
E95
  8
0
  6
CONTINUOUS
 62
     7
 10
-4.999969482421875
 20
28.999804294690929
 30
0.0
 11
-4.999969482421875
 21
22.99979857264503
 31
0.0
  0
LINE
  5
E96
  8
0
  6
CONTINUOUS
 62
     7
 10
0.5
 20
34.999796665296401
 30
0.0
 11
0.5
 21
23.99979857264503
 31
0.0
  0
LINE
  5
E97
  8
0
  6
CONTINUOUS
 62
     7
 10
2.5
 20
34.999796665296401
 30
0.0
 11
2.5
 21
23.99979857264503
 31
0.0
  0
LINE
  5
E98
  8
0
  6
CONTINUOUS
 62
     7
 10
-0.5
 20
34.999796665296401
 30
0.0
 11
-0.5
 21
23.99979857264503
 31
0.0
  0
LINE
  5
E99
  8
0
  6
CONTINUOUS
 62
     7
 10
-2.4999999999999849
 20
34.999796665296401
 30
0.0
 11
-2.4999999999999849
 21
23.99979857264503
 31
0.0
  0
LINE
  5
E9A
  8
CENTER
  6
CENTER
 62
     1
 10
0.0
 20
37.0
 30
0.0
 11
0.0
 21
-13.8000030517578
 31
0.0
  0
ARC
  5
E9E
  8
0
  6
CONTINUOUS
 62
     7
 10
0.0
 20
0.0
 30
0.0
 40
10.800003051757811
 50
135.3474657250793
 51
172.19164625542189
  0
ARC
  5
E9F
  8
0
  6
CONTINUOUS
 62
     7
 10
-5.7499999999999849
 20
10.39999914169311
 30
0.0
 40
1.5000000000000011
 50
128.07308203258421
 51
180.00000500895629
  0
ARC
  5
EA0
  8
0
  6
CONTINUOUS
 62
     7
 10
0.0
 20
0.0
 30
0.0
 40
11.800003051757811
 50
127.9088159830453
 51
270.00000068324539
  0
LINE
  5
EA1
  8
0
  6
CONTINUOUS
 62
     7
 10
-10.499999999999989
 20
20.99979857264503
 30
0.0
 11
10.5
 21
20.99979857264503
 31
0.0
  0
LINE
  5
EA2
  8
0
  6
CONTINUOUS
 62
     7
 10
-10.499999999999989
 20
22.99979857264503
 30
0.0
 11
0.67156982421875
 21
22.99979857264503
 31
0.0
  0
LINE
  5
EA5
  8
CENTER
  6
CENTER
 62
     1
 10
-13.800003051757811
 20
0.0
 30
0.0
 11
13.800003051757811
 21
0.0
 31
0.0
  0
LINE
  5
EAA
  8
0
  6
CONTINUOUS
 62
     7
 10
-7.2499999999999849
 20
10.39999914169311
 30
0.0
 11
-7.2499999999999849
 21
8.6428198814392072
 31
0.0
  0
ARC
  5
EAC
  8
0
  6
CONTINUOUS
 62
     7
 10
-8.7499999999999911
 20
8.6445116996765137
 30
0.0
 40
1.500000000000004
 50
315.34746413121769
 51
0.0
  0
LINE
  5
EAD
  8
0
  6
CONTINUOUS
 62
     7
 10
-10.499999999999989
 20
22.99979857264503
 30
0.0
 11
-10.499999999999989
 21
20.99979857264503
 31
0.0
  0
ARC
  5
EAE
  8
0
  6
CONTINUOUS
 62
     7
 10
0.0
 20
0.0
 30
0.0
 40
10.800003051757811
 50
269.99999749552148
 51
292.19164625542192
  0
ARC
  5
EAF
  8
0
  6
CONTINUOUS
 62
     7
 10
0.0
 20
0.0
 30
0.0
 40
11.800003051757811
 50
269.99999749552148
 51
52.09118561081668
  0
ARC
  5
EBE
  8
0
  6
CONTINUOUS
 62
     7
 10
3.5
 20
23.99979857264503
 30
0.0
 40
3.0000000000000062
 50
179.99999134857799
 51
270.00000068324539
  0
LINE
  5
EBF
  8
0
  6
CONTINUOUS
 62
     7
 10
0.5
 20
27.99979857264503
 30
0.0
 11
2.5
 21
27.99979857264503
 31
0.0
  0
LINE
  5
EC1
  8
0
  6
CONTINUOUS
 62
     7
 10
-6.100006103515625
 20
11.85859441757202
 30
0.0
 11
6.0999908447265616
 21
11.85859441757202
 31
0.0
  0
LINE
  5
EC3
  8
0
  6
CONTINUOUS
 62
     7
 10
0.0
 20
20.39980009852394
 30
0.0
 11
8.0
 21
20.39980009852394
 31
0.0
  0
LINE
  5
EC4
  8
0
  6
CONTINUOUS
 62
     7
 10
-6.100006103515625
 20
20.39980009852394
 30
0.0
 11
-6.100006103515625
 21
12.761672496795651
 31
0.0
  0
ARC
  5
EC5
  8
0
  6
CONTINUOUS
 62
     7
 10
-7.600006103515625
 20
12.761672496795651
 30
0.0
 40
1.499999999999998
 50
308.07308726891148
 51
0.0
  0
LINE
  5
EC8
  8
0
  6
CONTINUOUS
 62
     7
 10
-2.4999999999999849
 20
27.99979857264503
 30
0.0
 11
-0.5
 21
27.99979857264503
 31
0.0
  0
LINE
  5
EC9
  8
0
  6
CONTINUOUS
 62
     7
 10
-6.100006103515625
 20
20.39980009852394
 30
0.0
 11
0.0
 21
20.39980009852394
 31
0.0
  0
LINE
  5
ECA
  8
0
  6
CONTINUOUS
 62
     7
 10
-5.9000091552734366
 20
20.99979857264503
 30
0.0
 11
-5.9000091552734366
 21
20.399815357312999
 31
0.0
  0
LINE
  5
ECB
  8
0
  6
CONTINUOUS
 62
     7
 10
-4.999969482421875
 20
27.799792087659679
 30
0.0
 11
-2.4999999999999849
 21
27.799792087659679
 31
0.0
  0
ARC
  5
ECC
  8
0
  6
CONTINUOUS
 62
     7
 10
-3.4999999999999849
 20
23.99979857264503
 30
0.0
 40
1.0000000000000011
 50
269.99999749552148
 51
0.0
  0
LINE
  5
ECD
  8
0
  6
CONTINUOUS
 62
     7
 10
-0.5
 20
27.799792087659679
 30
0.0
 11
0.5
 21
27.799792087659679
 31
0.0
  0
ARC
  5
ECE
  8
0
  6
CONTINUOUS
 62
     7
 10
-3.4999999999999849
 20
23.99979857264503
 30
0.0
 40
2.9999999999999929
 50
340.52878016697809
 51
0.0000086514222091
  0
LINE
  5
ECF
  8
0
  6
CONTINUOUS
 62
     7
 10
0.0
 20
27.799792087659679
 30
0.0
 11
0.0
 21
22.99979857264503
 31
0.0
  0
LINE
  5
ED0
  8
0
  6
CONTINUOUS
 62
     7
 10
6.0999908447265616
 20
13.593612194061279
 30
0.0
 11
6.0999908447265616
 21
12.761672496795651
 31
0.0
  0
ARC
  5
ED1
  8
0
  6
CONTINUOUS
 62
     7
 10
5.75
 20
10.39999914169311
 30
0.0
 40
1.500000000000006
 50
359.99999499104382
 51
51.926919561277423
  0
ARC
  5
ED2
  8
0
  6
CONTINUOUS
 62
     7
 10
7.5999908447265616
 20
12.761672496795651
 30
0.0
 40
1.5000000000000031
 50
179.99999134857799
 51
231.9269143249503
  0
LINE
  5
ED3
  8
0
  6
CONTINUOUS
 62
     7
 10
7.25
 20
10.39999914169311
 30
0.0
 11
7.25
 21
8.6428198814392072
 31
0.0
  0
ARC
  5
ED5
  8
0
  6
CONTINUOUS
 62
     7
 10
8.75
 20
8.6445116996765137
 30
0.0
 40
1.5000000000000031
 50
179.99999134857799
 51
224.6525306324545
  0
ARC
  5
ED6
  8
0
  6
CONTINUOUS
 62
     7
 10
8.0999908447265625
 20
13.593612194061279
 30
0.0
 40
2.0000000000000022
 50
120.0000033393039
 51
180.00000500895629
  0
LINE
  5
ED7
  8
0
  6
CONTINUOUS
 62
     7
 10
3.5
 20
22.99979857264503
 30
0.0
 11
10.5
 21
22.99979857264503
 31
0.0
  0
LINE
  5
ED8
  8
0
  6
CONTINUOUS
 62
     7
 10
5.9000091552734366
 20
20.99979857264503
 30
0.0
 11
5.9000091552734366
 21
20.399815357312999
 31
0.0
  0
LINE
  5
ED9
  8
0
  6
CONTINUOUS
 62
     7
 10
2.5
 20
27.799792087659679
 30
0.0
 11
4.999969482421875
 21
27.799792087659679
 31
0.0
  0
ARC
  5
EDA
  8
0
  6
CONTINUOUS
 62
     7
 10
3.5
 20
23.99979857264503
 30
0.0
 40
0.9999999999999971
 50
179.99999134857799
 51
270.00000068324539
  0
LINE
  5
EDB
  8
0
  6
CONTINUOUS
 62
     7
 10
10.5
 20
22.99979857264503
 30
0.0
 11
10.5
 21
20.99979857264503
 31
0.0
  0
ARC
  5
EDC
  8
0
  6
CONTINUOUS
 62
     7
 10
7.0
 20
18.732031345367432
 30
0.0
 40
3.0000000000000009
 50
299.99999833034769
 51
0.0
  0
LINE
  5
EDD
  8
0
  6
CONTINUOUS
 62
     7
 10
7.0999832153320312
 20
15.32566022872925
 30
0.0
 11
8.4999923706054687
 21
16.133955478668209
 31
0.0
  0
LINE
  5
EDE
  8
0
  6
CONTINUOUS
 62
     7
 10
7.5
 20
20.99979857264503
 30
0.0
 11
7.5
 21
20.39980009852394
 31
0.0
  0
LINE
  5
EDF
  8
0
  6
CONTINUOUS
 62
     7
 10
8.0
 20
20.99979857264503
 30
0.0
 11
8.0
 21
20.39980009852394
 31
0.0
  0
LINE
  5
EE0
  8
0
  6
CONTINUOUS
 62
     7
 10
10.0
 20
20.99979857264503
 30
0.0
 11
10.0
 21
18.732031345367432
 31
0.0
  0
LINE
  5
EE1
  8
0
  6
CONTINUOUS
 62
     7
 10
7.5
 20
24.499817646131358
 30
0.0
 11
9.0
 21
24.499817646131358
 31
0.0
  0
LINE
  5
EE2
  8
0
  6
CONTINUOUS
 62
     7
 10
7.5
 20
24.499817646131358
 30
0.0
 11
7.5
 21
22.99979857264503
 31
0.0
  0
LINE
  5
EE3
  8
0
  6
CONTINUOUS
 62
     7
 10
8.0
 20
24.499817646131358
 30
0.0
 11
8.0
 21
22.99979857264503
 31
0.0
  0
ARC
  5
EE4
  8
0
  6
CONTINUOUS
 62
     7
 10
9.0
 20
23.499817646131358
 30
0.0
 40
1.0
 50
0.0
 51
90.000002504478445
  0
LINE
  5
EE5
  8
0
  6
CONTINUOUS
 62
     7
 10
10.0
 20
23.499817646131358
 30
0.0
 11
10.0
 21
22.99979857264503
 31
0.0
  0
LINE
  5
EE6
  8
0
  6
CONTINUOUS
 62
     7
 10
0.5
 20
34.999796665296401
 30
0.0
 11
2.5
 21
34.999796665296401
 31
0.0
  0
LINE
  5
EE7
  8
0
  6
CONTINUOUS
 62
     7
 10
-2.4999999999999849
 20
34.999796665296401
 30
0.0
 11
-0.5
 21
34.999796665296401
 31
0.0
  0
LINE
  5
EE8
  8
0
  6
CONTINUOUS
 62
     7
 10
-4.999969482421875
 20
28.999804294690929
 30
0.0
 11
-2.4999999999999849
 21
28.999804294690929
 31
0.0
  0
LINE
  5
EE9
  8
0
  6
CONTINUOUS
 62
     7
 10
-0.5
 20
28.999804294690929
 30
0.0
 11
0.5
 21
28.999804294690929
 31
0.0
  0
LINE
  5
EEA
  8
0
  6
CONTINUOUS
 62
     7
 10
-0.5
 20
30.599810398206571
 30
0.0
 11
0.5
 21
30.599810398206571
 31
0.0
  0
LINE
  5
EEB
  8
0
  6
CONTINUOUS
 62
     7
 10
2.5
 20
28.999804294690929
 30
0.0
 11
4.999969482421875
 21
28.999804294690929
 31
0.0
  0
LINE
  5
EF7
  8
0
  6
CONTINUOUS
 62
     7
 10
11.547005383792509
 20
-0.0000000000000131
 30
0.0
 11
5.7735026918962724
 21
9.9999999999999911
 31
0.0
  0
LINE
  5
EF8
  8
0
  6
CONTINUOUS
 62
     7
 10
5.7735026918962724
 20
9.9999999999999911
 30
0.0
 11
-5.7735026918962538
 21
10.0
 31
0.0
  0
LINE
  5
EF9
  8
0
  6
CONTINUOUS
 62
     7
 10
-5.7735026918962538
 20
10.0
 30
0.0
 11
-11.547005383792509
 21
0.0000000000000014
 31
0.0
  0
LINE
  5
EFA
  8
0
  6
CONTINUOUS
 62
     7
 10
-11.547005383792509
 20
0.0000000000000014
 30
0.0
 11
-5.7735026918962609
 21
-9.9999999999999964
 31
0.0
  0
LINE
  5
EFB
  8
0
  6
CONTINUOUS
 62
     7
 10
-5.7735026918962609
 20
-9.9999999999999964
 30
0.0
 11
5.7735026918962493
 21
-10.0
 31
0.0
  0
LINE
  5
EFC
  8
0
  6
CONTINUOUS
 62
     7
 10
5.7735026918962493
 20
-10.0
 30
0.0
 11
11.547005383792509
 21
-0.0000000000000131
 31
0.0
  0
ARC
  5
EFD
  8
0
  6
CONTINUOUS
 62
     7
 10
0.0
 20
0.0
 30
0.0
 40
10.800003051757811
 50
7.8083537445779587
 51
44.65253586878223
  0
ARC
  5
EFE
  8
0
  6
CONTINUOUS
 62
     7
 10
0.0
 20
0.0
 30
0.0
 40
10.800003051757811
 50
307.80835374457791
 51
352.19164625542192
  0
ARC
  5
EFF
  8
0
  6
CONTINUOUS
 62
     7
 10
0.0
 20
0.0
 30
0.0
 40
10.800003051757811
 50
247.80835374457789
 51
270.00000068324539
  0
ARC
  5
F00
  8
0
  6
CONTINUOUS
 62
     7
 10
0.0
 20
0.0
 30
0.0
 40
10.800003051757811
 50
187.80835374457789
 51
232.19164625542189
  0
LINE
  5
F94
  8
0
  6
CONTINUOUS
 62
     7
 10
-101.8777770996093
 20
94.547017304721464
 30
0.0
 11
-101.8777770996093
 21
71.453006537136446
 31
0.0
  0
LINE
  5
FB7
  8
0
  6
CONTINUOUS
 62
     7
 10
-86.512511303530545
 20
94.547017304721464
 30
0.0
 11
-101.8777770996093
 21
94.547017304721464
 31
0.0
  0
ARC
  5
FB9
  8
0
  6
CONTINUOUS
 62
     7
 10
-61.439995135788628
 20
71.218654446470367
 30
0.0
 40
2.6725190873731481
 50
5.0307044875592668
 51
58.609328694449609
  0
ARC
  5
FBA
  8
0
  6
CONTINUOUS
 62
     7
 10
-61.439995135788628
 20
94.781369395387543
 30
0.0
 40
2.6725190873731481
 50
331.35006861555632
 51
354.96929551244068
  0
LINE
  5
FBB
  8
0
  6
CONTINUOUS
 62
     7
 10
-101.8777770996093
 20
88.773514612825196
 30
0.0
 11
-86.577781677246094
 21
88.773514612825196
 31
0.0
  0
LINE
  5
FBC
  8
0
  6
CONTINUOUS
 62
     7
 10
-51.877777099609368
 20
77.2265092290327
 30
0.0
 11
-58.77777099609375
 21
77.2265092290327
 31
0.0
  0
LINE
  5
FBD
  8
0
  6
CONTINUOUS
 62
     7
 10
-97.377777099609375
 20
77.2265092290327
 30
0.0
 11
-101.8777770996093
 21
77.2265092290327
 31
0.0
  0
LINE
  5
FE1
  8
0
  6
DASHED
 62
     3
 10
-52.764750907499959
 20
-5.6915261921094258
 30
0.0
 11
-52.764750907499959
 21
5.6915261921094391
 31
0.0
  0
LINE
  5
FE2
  8
0
  6
DASHED
 62
     3
 10
-52.764750907499959
 20
5.6915261921094391
 30
0.0
 11
-62.855862363181473
 21
5.3391368150500584
 31
0.0
  0
LINE
  5
FE3
  8
0
  6
DASHED
 62
     3
 10
-51.877777099609389
 20
6.5785000000000089
 30
0.0
 11
-61.277777099609388
 21
6.2502447667775796
 31
0.0
  0
LINE
  5
FE4
  8
0
  6
DASHED
 62
     3
 10
-51.877777099609389
 20
6.5785000000000089
 30
0.0
 11
-52.764750907499959
 21
5.6915261921094391
 31
0.0
  0
LINE
  5
FE5
  8
0
  6
DASHED
 62
     3
 10
-90.899691836037292
 20
5.0
 30
0.0
 11
-62.855862363181473
 21
4.9999999999999991
 31
0.0
  0
LINE
  5
FE6
  8
0
  6
DASHED
 62
     3
 10
-62.855862363181473
 20
-5.3391368150500416
 30
0.0
 11
-62.855862363181473
 21
5.3391368150500584
 31
0.0
  0
LINE
  5
FE7
  8
0
  6
DASHED
 62
     3
 10
-61.277777099609388
 20
-6.2502447667775627
 30
0.0
 11
-61.277777099609388
 21
6.2502447667775787
 31
0.0
  0
LINE
  5
FE8
  8
0
  6
DASHED
 62
     3
 10
-62.855862363181473
 20
5.3391368150500558
 30
0.0
 11
-61.277777099609388
 21
6.2502447667775769
 31
0.0
  0
LINE
  5
FE9
  8
0
  6
DASHED
 62
     3
 10
-90.899691836037292
 20
-5.0
 30
0.0
 11
-62.855862363181473
 21
-4.9999999999999982
 31
0.0
  0
LINE
  5
FEA
  8
0
  6
DASHED
 62
     3
 10
-51.877777099609389
 20
-6.5784999999999902
 30
0.0
 11
-61.277777099609388
 21
-6.2502447667775627
 31
0.0
  0
LINE
  5
FEB
  8
0
  6
DASHED
 62
     3
 10
-52.764750907499959
 20
-5.6915261921094258
 30
0.0
 11
-62.855862363181473
 21
-5.339136815050038
 31
0.0
  0
LINE
  5
FEC
  8
0
  6
DASHED
 62
     3
 10
-62.855862363181473
 20
-5.3391368150500416
 30
0.0
 11
-61.277777099609388
 21
-6.2502447667775627
 31
0.0
  0
LINE
  5
FED
  8
0
  6
DASHED
 62
     3
 10
-52.764750907499959
 20
-5.6915261921094231
 30
0.0
 11
-51.877777099609389
 21
-6.5784999999999902
 31
0.0
  0
LINE
  5
FEE
  8
0
  6
DASHED
 62
     3
 10
-101.8777770996093
 20
-6.578499999999976
 30
0.0
 11
-92.477777099609355
 21
-6.2502447667775503
 31
0.0
  0
LINE
  5
FEF
  8
0
  6
DASHED
 62
     3
 10
-100.99080329171871
 20
-5.6915261921094142
 30
0.0
 11
-90.899691836037292
 21
-5.3391368150500247
 31
0.0
  0
LINE
  5
FF0
  8
0
  6
DASHED
 62
     3
 10
-92.477777099609355
 20
-6.2502447667775503
 30
0.0
 11
-92.477777099609355
 21
6.250244766777592
 31
0.0
  0
LINE
  5
FF1
  8
0
  6
DASHED
 62
     3
 10
-90.899691836037292
 20
-5.3391368150500291
 30
0.0
 11
-92.477777099609355
 21
-6.2502447667775503
 31
0.0
  0
LINE
  5
FF2
  8
0
  6
DASHED
 62
     3
 10
-90.899691836037292
 20
-5.3391368150500291
 30
0.0
 11
-90.899691836037292
 21
5.3391368150500709
 31
0.0
  0
LINE
  5
FF3
  8
0
  6
DASHED
 62
     3
 10
-100.99080329171871
 20
-5.6915261921094142
 30
0.0
 11
-100.99080329171871
 21
5.6915261921094533
 31
0.0
  0
LINE
  5
FF4
  8
0
  6
DASHED
 62
     3
 10
-100.99080329171871
 20
-5.6915261921094098
 30
0.0
 11
-101.8777770996093
 21
-6.578499999999976
 31
0.0
  0
LINE
  5
FF5
  8
0
  6
DASHED
 62
     3
 10
-101.8777770996093
 20
6.5785000000000231
 30
0.0
 11
-92.477777099609355
 21
6.2502447667775929
 31
0.0
  0
LINE
  5
FF6
  8
0
  6
DASHED
 62
     3
 10
-100.99080329171871
 20
5.6915261921094533
 30
0.0
 11
-90.899691836037292
 21
5.3391368150500709
 31
0.0
  0
LINE
  5
FF7
  8
0
  6
DASHED
 62
     3
 10
-101.8777770996093
 20
6.5785000000000231
 30
0.0
 11
-100.99080329171871
 21
5.6915261921094533
 31
0.0
  0
LINE
  5
FF8
  8
0
  6
DASHED
 62
     3
 10
-90.899691836037292
 20
5.3391368150500691
 30
0.0
 11
-92.477777099609355
 21
6.2502447667775911
 31
0.0
  0
LINE
  5
1015
  8
0
  6
DASHED
 62
     3
 10
-52.764750907499973
 20
77.308485728819534
 30
0.0
 11
-52.764750907499973
 21
88.691538113038391
 31
0.0
  0
LINE
  5
1016
  8
0
  6
DASHED
 62
     3
 10
-52.764750907499973
 20
88.691538113038391
 30
0.0
 11
-62.855862363181487
 21
88.339148735979009
 31
0.0
  0
LINE
  5
1017
  8
0
  6
DASHED
 62
     3
 10
-51.877777099609403
 20
89.57851192092896
 30
0.0
 11
-61.277777099609409
 21
89.250256687706539
 31
0.0
  0
LINE
  5
1018
  8
0
  6
DASHED
 62
     3
 10
-51.877777099609403
 20
89.57851192092896
 30
0.0
 11
-52.764750907499973
 21
88.691538113038391
 31
0.0
  0
LINE
  5
1019
  8
0
  6
DASHED
 62
     3
 10
-90.899691836037306
 20
88.000011920928955
 30
0.0
 11
-62.855862363181487
 21
88.000011920928955
 31
0.0
  0
LINE
  5
101A
  8
0
  6
DASHED
 62
     3
 10
-62.855862363181487
 20
77.660875105878915
 30
0.0
 11
-62.855862363181487
 21
88.339148735979009
 31
0.0
  0
LINE
  5
101B
  8
0
  6
DASHED
 62
     3
 10
-61.277777099609409
 20
76.749767154151385
 30
0.0
 11
-61.277777099609409
 21
89.250256687706539
 31
0.0
  0
LINE
  5
101C
  8
0
  6
DASHED
 62
     3
 10
-62.855862363181487
 20
88.339148735979009
 30
0.0
 11
-61.277777099609409
 21
89.250256687706539
 31
0.0
  0
LINE
  5
101D
  8
0
  6
DASHED
 62
     3
 10
-90.899691836037306
 20
78.000011920928955
 30
0.0
 11
-62.855862363181487
 21
78.000011920928955
 31
0.0
  0
LINE
  5
101E
  8
0
  6
DASHED
 62
     3
 10
-51.877777099609403
 20
76.421511920928964
 30
0.0
 11
-61.277777099609409
 21
76.749767154151385
 31
0.0
  0
LINE
  5
101F
  8
0
  6
DASHED
 62
     3
 10
-52.764750907499973
 20
77.308485728819534
 30
0.0
 11
-62.855862363181487
 21
77.660875105878915
 31
0.0
  0
LINE
  5
1020
  8
0
  6
DASHED
 62
     3
 10
-62.855862363181487
 20
77.660875105878915
 30
0.0
 11
-61.277777099609409
 21
76.749767154151385
 31
0.0
  0
LINE
  5
1021
  8
0
  6
DASHED
 62
     3
 10
-52.764750907499973
 20
77.308485728819534
 30
0.0
 11
-51.877777099609403
 21
76.421511920928964
 31
0.0
  0
LINE
  5
1022
  8
0
  6
DASHED
 62
     3
 10
-101.8777770996093
 20
76.421511920928978
 30
0.0
 11
-92.477777099609369
 21
76.749767154151399
 31
0.0
  0
LINE
  5
1023
  8
0
  6
DASHED
 62
     3
 10
-100.99080329171881
 20
77.308485728819534
 30
0.0
 11
-90.899691836037306
 21
77.66087510587893
 31
0.0
  0
LINE
  5
1024
  8
0
  6
DASHED
 62
     3
 10
-92.477777099609369
 20
76.749767154151399
 30
0.0
 11
-92.477777099609369
 21
89.250256687706553
 31
0.0
  0
LINE
  5
1025
  8
0
  6
DASHED
 62
     3
 10
-90.899691836037306
 20
77.66087510587893
 30
0.0
 11
-92.477777099609369
 21
76.749767154151399
 31
0.0
  0
LINE
  5
1026
  8
0
  6
DASHED
 62
     3
 10
-90.899691836037306
 20
77.66087510587893
 30
0.0
 11
-90.899691836037306
 21
88.339148735979023
 31
0.0
  0
LINE
  5
1027
  8
0
  6
DASHED
 62
     3
 10
-100.99080329171881
 20
77.308485728819534
 30
0.0
 11
-100.99080329171881
 21
88.691538113038405
 31
0.0
  0
LINE
  5
1028
  8
0
  6
DASHED
 62
     3
 10
-100.99080329171881
 20
77.308485728819548
 30
0.0
 11
-101.8777770996093
 21
76.421511920928978
 31
0.0
  0
LINE
  5
1029
  8
0
  6
DASHED
 62
     3
 10
-101.8777770996093
 20
89.578511920928975
 30
0.0
 11
-92.477777099609369
 21
89.250256687706553
 31
0.0
  0
LINE
  5
102A
  8
0
  6
DASHED
 62
     3
 10
-100.99080329171881
 20
88.691538113038405
 30
0.0
 11
-90.899691836037306
 21
88.339148735979023
 31
0.0
  0
LINE
  5
102B
  8
0
  6
DASHED
 62
     3
 10
-101.8777770996093
 20
89.578511920928975
 30
0.0
 11
-100.99080329171881
 21
88.691538113038405
 31
0.0
  0
LINE
  5
102C
  8
0
  6
DASHED
 62
     3
 10
-90.899691836037306
 20
88.339148735979023
 30
0.0
 11
-92.477777099609369
 21
89.250256687706553
 31
0.0
  0
LINE
  5
102D
  8
0
  6
DASHED
 62
     3
 10
-51.877777099609382
 20
92.794697758779677
 30
0.0
 11
-51.877777099609368
 21
83.49992036819458
 31
0.0
  0
CIRCLE
  5
1031
  8
0
  6
CONTINUOUS
 62
     7
 10
0.0
 20
0.0
 30
0.0
 40
4.9999999999999991
  0
CIRCLE
  5
1032
  8
0
  6
CONTINUOUS
 62
     7
 10
0.0
 20
0.0
 30
0.0
 40
5.6915261921094391
  0
CIRCLE
  5
1033
  8
0
  6
CONTINUOUS
 62
     3
 10
0.0
 20
0.0
 30
0.0
 40
6.5785000000000231
  0
TEXT
  5
103C
  8
0
  6
CONTINUOUS
 62
     7
 10
-135.30567849444591
 20
-19.723884241440199
 30
0.0
 40
3.0
  1
BRTWB08A
  0
TEXT
  5
103E
  8
0
  6
CONTINUOUS
 62
     7
 10
-135.30567849444591
 20
-24.218879686113951
 30
0.0
 40
3.0
  1
BRTWB08A
  0
LINE
  5
1044
  8
0
  6
DASHED
 62
     3
 10
2.499999999999992
 20
32.010210037231438
 30
0.0
 11
0.5
 21
32.010210037231438
 31
0.0
  0
LINE
  5
1045
  8
0
  6
DASHED
 62
     3
 10
2.5
 20
27.010210037231442
 30
0.0
 11
0.5
 21
27.010210037231442
 31
0.0
  0
LINE
  5
1046
  8
CENTER
  6
CENTER
 62
     1
 10
4.5
 20
29.510210037231431
 30
0.0
 11
-1.5
 21
29.510210037231431
 31
0.0
  0
LINE
  5
1047
  8
0
  6
DASHED
 62
     3
 10
-54.377777099609368
 20
83.49992036819458
 30
0.0
 11
-54.377777099609368
 21
85.499920368194594
 31
0.0
  0
LINE
  5
1048
  8
CENTER
  6
CENTER
 62
     1
 10
-51.877777099609368
 20
81.49992036819458
 30
0.0
 11
-51.877777099609368
 21
87.49992036819458
 31
0.0
  0
LINE
  5
1049
  8
0
  6
DASHED
 62
     3
 10
-49.377777099609368
 20
83.49992036819458
 30
0.0
 11
-49.377777099609368
 21
85.499920368194594
 31
0.0
  0
LINE
  5
1053
  8
0
  6
CONTINUOUS
 62
     3
 10
-74.336277099609376
 20
30.610221862792969
 30
0.0
 11
-74.336277099609376
 21
29.01021575927734
 31
0.0
  0
LINE
  5
1054
  8
0
  6
CONTINUOUS
 62
     3
 10
-69.419277099609374
 20
30.610221862792969
 30
0.0
 11
-69.419277099609374
 21
29.01021575927734
 31
0.0
  0
ENDSEC
  0
EOF
