  0
SECTION
  2
HEADER
  9
$ACADVER
  1
AC1009
  9
$INSBASE
 10
0.0
 20
0.0
 30
0.0
  9
$EXTMIN
 10
248.5096133560682
 20
-67.602323869052896
 30
0.0
  9
$EXTMAX
 10
652.86619833940813
 20
242.20739205275021
 30
0.0
  9
$LIMMIN
 10
0.0
 20
0.0
  9
$LIMMAX
 10
1680.0
 20
1188.0
  9
$ORTHOMODE
 70
     1
  9
$REGENMODE
 70
     1
  9
$FILLMODE
 70
     1
  9
$QTEXTMODE
 70
     0
  9
$MIRRTEXT
 70
     1
  9
$DRAGMODE
 70
     2
  9
$LTSCALE
 40
1.0
  9
$OSMODE
 70
   183
  9
$ATTMODE
 70
     1
  9
$TEXTSIZE
 40
4.0
  9
$TRACEWID
 40
1.0
  9
$TEXTSTYLE
  7
STANDARD
  9
$CLAYER
  8
0
  9
$CELTYPE
  6
CONTINUOUS
  9
$CECOLOR
 62
     7
  9
$DIMSCALE
 40
1.0
  9
$DIMASZ
 40
3.0
  9
$DIMEXO
 40
1.0
  9
$DIMDLI
 40
0.0
  9
$DIMRND
 40
0.0
  9
$DIMDLE
 40
0.0
  9
$DIMEXE
 40
1.0
  9
$DIMTP
 40
0.0
  9
$DIMTM
 40
0.0
  9
$DIMTXT
 40
3.2000000000000002
  9
$DIMCEN
 40
0.0
  9
$DIMTSZ
 40
0.0
  9
$DIMTOL
 70
     0
  9
$DIMLIM
 70
     0
  9
$DIMTIH
 70
     0
  9
$DIMTOH
 70
     0
  9
$DIMSE1
 70
     0
  9
$DIMSE2
 70
     0
  9
$DIMTAD
 70
     1
  9
$DIMZIN
 70
     8
  9
$DIMBLK
  1

  9
$DIMASO
 70
     1
  9
$DIMSHO
 70
     1
  9
$DIMPOST
  1

  9
$DIMAPOST
  1

  9
$DIMALT
 70
     0
  9
$DIMALTD
 70
     2
  9
$DIMALTF
 40
0.04
  9
$DIMLFAC
 40
1.0
  9
$DIMTOFL
 70
     1
  9
$DIMTVP
 40
1.0
  9
$DIMTIX
 70
     1
  9
$DIMSOXD
 70
     0
  9
$DIMSAH
 70
     0
  9
$DIMBLK1
  1

  9
$DIMBLK2
  1

  9
$DIMSTYLE
  2
MISUMI
  9
$DIMCLRD
 70
     0
  9
$DIMCLRE
 70
     0
  9
$DIMCLRT
 70
     0
  9
$DIMTFAC
 40
0.6
  9
$DIMGAP
 40
1.0
  9
$LUNITS
 70
     2
  9
$LUPREC
 70
     2
  9
$SKETCHINC
 40
1.0
  9
$FILLETRAD
 40
0.61
  9
$AUNITS
 70
     0
  9
$AUPREC
 70
     0
  9
$MENU
  1
acad
  9
$ELEVATION
 40
0.0
  9
$PELEVATION
 40
0.0
  9
$THICKNESS
 40
0.0
  9
$LIMCHECK
 70
     0
  9
$BLIPMODE
 70
     0
  9
$CHAMFERA
 40
0.0
  9
$CHAMFERB
 40
0.0
  9
$SKPOLY
 70
     0
  9
$TDCREATE
 40
2451466.665978183
  9
$TDUPDATE
 40
2453822.4591380898
  9
$TDINDWG
 40
0.0228065046
  9
$TDUSRTIMER
 40
0.0228063194
  9
$USRTIMER
 70
     1
  9
$ANGBASE
 50
0.0
  9
$ANGDIR
 70
     0
  9
$PDMODE
 70
     1
  9
$PDSIZE
 40
0.0
  9
$PLINEWID
 40
0.0
  9
$COORDS
 70
     0
  9
$SPLFRAME
 70
     0
  9
$SPLINETYPE
 70
     6
  9
$SPLINESEGS
 70
     8
  9
$ATTDIA
 70
     0
  9
$ATTREQ
 70
     1
  9
$HANDLING
 70
     1
  9
$HANDSEED
  5
252
  9
$SURFTAB1
 70
     6
  9
$SURFTAB2
 70
     6
  9
$SURFTYPE
 70
     6
  9
$SURFU
 70
     6
  9
$SURFV
 70
     6
  9
$UCSNAME
  2

  9
$UCSORG
 10
0.0
 20
0.0
 30
0.0
  9
$UCSXDIR
 10
1.0
 20
0.0
 30
0.0
  9
$UCSYDIR
 10
0.0
 20
1.0
 30
0.0
  9
$PUCSNAME
  2

  9
$PUCSORG
 10
0.0
 20
0.0
 30
0.0
  9
$PUCSXDIR
 10
1.0
 20
0.0
 30
0.0
  9
$PUCSYDIR
 10
0.0
 20
1.0
 30
0.0
  9
$USERI1
 70
     0
  9
$USERI2
 70
     0
  9
$USERI3
 70
     0
  9
$USERI4
 70
     0
  9
$USERI5
 70
     0
  9
$USERR1
 40
0.0
  9
$USERR2
 40
0.0
  9
$USERR3
 40
0.0
  9
$USERR4
 40
0.0
  9
$USERR5
 40
0.0
  9
$WORLDVIEW
 70
     1
  9
$SHADEDGE
 70
     3
  9
$SHADEDIF
 70
    70
  9
$TILEMODE
 70
     1
  9
$MAXACTVP
 70
    16
  9
$PLIMCHECK
 70
     0
  9
$PEXTMIN
 10
1.0000000000000000E+020
 20
1.0000000000000000E+020
 30
1.0000000000000000E+020
  9
$PEXTMAX
 10
-1.0000000000000000E+020
 20
-1.0000000000000000E+020
 30
-1.0000000000000000E+020
  9
$PLIMMIN
 10
0.0
 20
0.0
  9
$PLIMMAX
 10
420.0
 20
297.0
  9
$UNITMODE
 70
     0
  9
$VISRETAIN
 70
     0
  9
$PLINEGEN
 70
     0
  9
$PSLTSCALE
 70
     0
  0
ENDSEC
  0
SECTION
  2
TABLES
  0
TABLE
  2
VPORT
 70
     3
  0
VPORT
  2
*ACTIVE
 70
     0
 10
0.0
 20
0.0
 11
1.0
 21
1.0
 12
441.43847602232751
 22
66.381751103223337
 13
0.0
 23
0.0
 14
10.0
 24
10.0
 15
0.0
 25
0.0
 16
0.0
 26
0.0
 36
1.0
 17
0.0
 27
0.0
 37
0.0
 40
419.93711981151699
 41
1.6443202979515821
 42
50.0
 43
0.0
 44
0.0
 50
0.0
 51
0.0
 71
     0
 72
   100
 73
     1
 74
     0
 75
     0
 76
     0
 77
     0
 78
     1
  0
ENDTAB
  0
TABLE
  2
LTYPE
 70
     3
  0
LTYPE
  2
CONTINUOUS
 70
     0
  3
Solid line
 72
    65
 73
     0
 40
0.0
  0
LTYPE
  2
CENTER
 70
     0
  3
____ _ ____ _ ____ _ ____ _ ____ _ ____ _ ____ 
 72
    65
 73
     4
 40
50.799999999999997
 49
31.75
 49
-6.349999999999997
 49
6.349999999999997
 49
-6.349999999999997
  0
LTYPE
  2
DASHED
 70
     0
  3
Dashed __ __ __ __ __ __ __ __ __ __ __ __ __ _
 72
    65
 73
     2
 40
0.75
 49
0.5
 49
-0.25
  0
ENDTAB
  0
TABLE
  2
LAYER
 70
     3
  0
LAYER
  2
0
 70
     0
 62
     7
  6
CONTINUOUS
  0
LAYER
  2
CENTER
 70
     0
 62
     1
  6
CENTER
  0
LAYER
  2
DEFPOINTS
 70
     0
 62
     7
  6
CONTINUOUS
  0
ENDTAB
  0
TABLE
  2
STYLE
 70
     2
  0
STYLE
  2
STANDARD
 70
     0
 40
0.0
 41
1.0
 50
0.0
 71
     0
 42
4.0
  3
txt
  4
BIGFONT
  0
STYLE
  2

 70
     1
 40
0.0
 41
1.0
 50
0.0
 71
     0
 42
4.0
  3
ltypeshp.shx
  4

  0
ENDTAB
  0
TABLE
  2
VIEW
 70
     0
  0
ENDTAB
  0
TABLE
  2
UCS
 70
     0
  0
ENDTAB
  0
TABLE
  2
APPID
 70
     1
  0
APPID
  2
ACAD
 70
     0
  0
ENDTAB
  0
TABLE
  2
DIMSTYLE
 70
     1
  0
DIMSTYLE
  2
MISUMI
 70
     0
  3

  4

  5

  6

  7

 40
1.0
 41
3.0
 42
1.0
 43
0.0
 44
1.0
 45
0.0
 46
0.0
 47
0.0
 48
0.0
140
3.2000000000000002
141
0.0
142
0.0
143
0.04
144
1.0
145
1.0
146
0.6
147
1.0
 71
     0
 72
     0
 73
     0
 74
     0
 75
     0
 76
     0
 77
     1
 78
     8
170
     0
171
     2
172
     1
173
     0
174
     1
175
     0
176
     0
177
     0
178
     0
  0
ENDTAB
  0
ENDSEC
  0
SECTION
  2
BLOCKS
  0
BLOCK
  8
0
  2
$MODEL_SPACE
 70
     0
 10
0.0
 20
0.0
 30
0.0
  3
$MODEL_SPACE
  1

  0
ENDBLK
  5
139
  8
0
  0
BLOCK
 67
     1
  8
0
  2
$PAPER_SPACE
 70
     0
 10
0.0
 20
0.0
 30
0.0
  3
$PAPER_SPACE
  1

  0
ENDBLK
  5
135
 67
     1
  8
0
  0
BLOCK
  8
0
 62
     7
  2
*D0
 70
     1
 10
0.0
 20
0.0
 30
0.0
  3
*D0
  1

  0
LINE
  5
15B
  8
0
  6
CONTINUOUS
 62
     0
 10
498.54775476262711
 20
155.2820588784729
 30
0.0
 11
637.70076129869722
 21
155.28205887847281
 31
0.0
  0
LINE
  5
15C
  8
0
  6
CONTINUOUS
 62
     0
 10
498.54775476262728
 20
145.28205887847301
 30
0.0
 11
637.70076129869722
 21
145.28205887847301
 31
0.0
  0
LINE
  5
15D
  8
0
  6
CONTINUOUS
 62
     0
 10
636.70076129869722
 20
152.28205887847281
 30
0.0
 11
636.70076129869722
 21
148.28205887847301
 31
0.0
  0
SOLID
  5
15E
  8
0
  6
CONTINUOUS
 62
     0
 10
636.20076129869722
 20
152.28205887847281
 30
0.0
 11
637.20076129869722
 21
152.28205887847281
 31
0.0
 12
636.70076129869722
 22
155.28205887847281
 32
0.0
 13
636.70076129869722
 23
155.28205887847281
 33
0.0
  0
SOLID
  5
15F
  8
0
  6
CONTINUOUS
 62
     0
 10
636.20076129869722
 20
148.28205887847301
 30
0.0
 11
637.20076129869722
 21
148.28205887847301
 31
0.0
 12
636.70076129869722
 22
145.28205887847301
 32
0.0
 13
636.70076129869722
 23
145.28205887847301
 33
0.0
  0
INSERT
  5
160
  8
0
  6
CONTINUOUS
 62
     7
  2
*U12
 10
0.0
 20
0.0
 30
0.0
  0
POINT
  5
161
  8
DEFPOINTS
  6
CONTINUOUS
 62
     0
 10
497.54775476262722
 20
155.2820588784729
 30
0.0
  0
POINT
  5
162
  8
DEFPOINTS
  6
CONTINUOUS
 62
     0
 10
497.54775476262728
 20
145.28205887847301
 30
0.0
  0
POINT
  5
163
  8
DEFPOINTS
  6
CONTINUOUS
 62
     0
 10
636.70076129869722
 20
145.28205887847301
 30
0.0
  0
ENDBLK
  5
165
  8
0
 62
     7
  0
BLOCK
  8
0
 62
     7
  2
*D1
 70
     1
 10
0.0
 20
0.0
 30
0.0
  3
*D1
  1

  0
LINE
  5
168
  8
0
  6
CONTINUOUS
 62
     0
 10
623.77657399709835
 20
170.2820588784472
 30
0.0
 11
643.80445460663896
 21
170.2820588784472
 31
0.0
  0
LINE
  5
169
  8
0
  6
CONTINUOUS
 62
     0
 10
623.77657399709869
 20
130.282058878447
 30
0.0
 11
643.80445460663896
 21
130.282058878447
 31
0.0
  0
LINE
  5
16A
  8
0
  6
CONTINUOUS
 62
     0
 10
642.80445460663896
 20
167.2820588784472
 30
0.0
 11
642.80445460663896
 21
133.282058878447
 31
0.0
  0
SOLID
  5
16B
  8
0
  6
CONTINUOUS
 62
     0
 10
642.30445460663896
 20
167.2820588784472
 30
0.0
 11
643.30445460663896
 21
167.2820588784472
 31
0.0
 12
642.80445460663896
 22
170.2820588784472
 32
0.0
 13
642.80445460663896
 23
170.2820588784472
 33
0.0
  0
SOLID
  5
16C
  8
0
  6
CONTINUOUS
 62
     0
 10
642.30445460663896
 20
133.282058878447
 30
0.0
 11
643.30445460663896
 21
133.282058878447
 31
0.0
 12
642.80445460663896
 22
130.282058878447
 32
0.0
 13
642.80445460663896
 23
130.282058878447
 33
0.0
  0
INSERT
  5
16D
  8
0
  6
CONTINUOUS
 62
     7
  2
*U13
 10
0.0
 20
0.0
 30
0.0
  0
POINT
  5
16E
  8
DEFPOINTS
  6
CONTINUOUS
 62
     0
 10
622.77657399709835
 20
170.2820588784472
 30
0.0
  0
POINT
  5
16F
  8
DEFPOINTS
  6
CONTINUOUS
 62
     0
 10
622.77657399709869
 20
130.282058878447
 30
0.0
  0
POINT
  5
170
  8
DEFPOINTS
  6
CONTINUOUS
 62
     0
 10
642.80445460663896
 20
130.282058878447
 30
0.0
  0
ENDBLK
  5
172
  8
0
 62
     7
  0
BLOCK
  8
0
 62
     7
  2
*D2
 70
     1
 10
0.0
 20
0.0
 30
0.0
  3
*D2
  1

  0
LINE
  5
175
  8
0
  6
CONTINUOUS
 62
     0
 10
496.54775476262739
 20
183.78205887847281
 30
0.0
 11
652.86619833940813
 21
183.78205887847281
 31
0.0
  0
LINE
  5
176
  8
0
  6
CONTINUOUS
 62
     0
 10
496.54775476262768
 20
116.7820588784728
 30
0.0
 11
652.86619833940813
 21
116.7820588784727
 31
0.0
  0
LINE
  5
177
  8
0
  6
CONTINUOUS
 62
     0
 10
651.86619833940813
 20
180.78205887847281
 30
0.0
 11
651.86619833940813
 21
119.7820588784727
 31
0.0
  0
SOLID
  5
178
  8
0
  6
CONTINUOUS
 62
     0
 10
651.36619833940813
 20
180.78205887847281
 30
0.0
 11
652.36619833940813
 21
180.78205887847281
 31
0.0
 12
651.86619833940813
 22
183.78205887847281
 32
0.0
 13
651.86619833940813
 23
183.78205887847281
 33
0.0
  0
SOLID
  5
179
  8
0
  6
CONTINUOUS
 62
     0
 10
651.36619833940813
 20
119.7820588784727
 30
0.0
 11
652.36619833940813
 21
119.7820588784727
 31
0.0
 12
651.86619833940813
 22
116.7820588784727
 32
0.0
 13
651.86619833940813
 23
116.7820588784727
 33
0.0
  0
INSERT
  5
17A
  8
0
  6
CONTINUOUS
 62
     7
  2
*U14
 10
0.0
 20
0.0
 30
0.0
  0
POINT
  5
17B
  8
DEFPOINTS
  6
CONTINUOUS
 62
     0
 10
495.54775476262739
 20
183.78205887847281
 30
0.0
  0
POINT
  5
17C
  8
DEFPOINTS
  6
CONTINUOUS
 62
     0
 10
495.54775476262768
 20
116.7820588784728
 30
0.0
  0
POINT
  5
17D
  8
DEFPOINTS
  6
CONTINUOUS
 62
     0
 10
651.86619833940813
 20
116.7820588784727
 30
0.0
  0
ENDBLK
  5
17F
  8
0
 62
     7
  0
BLOCK
  8
0
 62
     7
  2
*D3
 70
     1
 10
0.0
 20
0.0
 30
0.0
  3
*D3
  1

  0
LINE
  5
182
  8
0
  6
CONTINUOUS
 62
     0
 10
611.77657399709869
 20
190.4520588775018
 30
0.0
 11
480.74398863868419
 21
190.45205887750191
 31
0.0
  0
LINE
  5
183
  8
0
  6
CONTINUOUS
 62
     0
 10
611.77657399709915
 20
110.1120588793941
 30
0.0
 11
480.74398863868407
 21
110.1120588793941
 31
0.0
  0
LINE
  5
184
  8
0
  6
CONTINUOUS
 62
     0
 10
481.74398863868419
 20
187.45205887750191
 30
0.0
 11
481.74398863868419
 21
113.1120588793941
 31
0.0
  0
SOLID
  5
185
  8
0
  6
CONTINUOUS
 62
     0
 10
481.24398863868419
 20
187.45205887750191
 30
0.0
 11
482.24398863868419
 21
187.45205887750191
 31
0.0
 12
481.74398863868419
 22
190.45205887750191
 32
0.0
 13
481.74398863868419
 23
190.45205887750191
 33
0.0
  0
SOLID
  5
186
  8
0
  6
CONTINUOUS
 62
     0
 10
481.24398863868407
 20
113.1120588793941
 30
0.0
 11
482.24398863868419
 21
113.1120588793941
 31
0.0
 12
481.74398863868419
 22
110.1120588793941
 32
0.0
 13
481.74398863868419
 23
110.1120588793941
 33
0.0
  0
INSERT
  5
187
  8
0
  6
CONTINUOUS
 62
     7
  2
*U15
 10
0.0
 20
0.0
 30
0.0
  0
POINT
  5
188
  8
DEFPOINTS
  6
CONTINUOUS
 62
     0
 10
612.77657399709858
 20
190.4520588775018
 30
0.0
  0
POINT
  5
189
  8
DEFPOINTS
  6
CONTINUOUS
 62
     0
 10
612.77657399709915
 20
110.1120588793941
 30
0.0
  0
POINT
  5
18A
  8
DEFPOINTS
  6
CONTINUOUS
 62
     0
 10
481.74398863868419
 20
110.1120588793941
 30
0.0
  0
ENDBLK
  5
18C
  8
0
 62
     7
  0
BLOCK
  8
0
 62
     7
  2
*D4
 70
     1
 10
0.0
 20
0.0
 30
0.0
  3
*D4
  1

  0
LINE
  5
18F
  8
0
  6
CONTINUOUS
 62
     0
 10
611.77657399709869
 20
190.7070588784469
 30
0.0
 11
474.15339830748007
 21
190.7070588784469
 31
0.0
  0
LINE
  5
190
  8
0
  6
CONTINUOUS
 62
     0
 10
611.77657399709915
 20
109.85705887844691
 30
0.0
 11
474.15339830748002
 21
109.85705887844701
 31
0.0
  0
LINE
  5
191
  8
0
  6
CONTINUOUS
 62
     0
 10
475.15339830748007
 20
187.7070588784469
 30
0.0
 11
475.15339830748002
 21
112.85705887844691
 31
0.0
  0
SOLID
  5
192
  8
0
  6
CONTINUOUS
 62
     0
 10
474.65339830748007
 20
187.7070588784469
 30
0.0
 11
475.65339830748007
 21
187.7070588784469
 31
0.0
 12
475.15339830748007
 22
190.7070588784469
 32
0.0
 13
475.15339830748007
 23
190.7070588784469
 33
0.0
  0
SOLID
  5
193
  8
0
  6
CONTINUOUS
 62
     0
 10
474.65339830748002
 20
112.85705887844691
 30
0.0
 11
475.65339830748007
 21
112.85705887844691
 31
0.0
 12
475.15339830748002
 22
109.85705887844701
 32
0.0
 13
475.15339830748002
 23
109.85705887844701
 33
0.0
  0
INSERT
  5
194
  8
0
  6
CONTINUOUS
 62
     7
  2
*U16
 10
0.0
 20
0.0
 30
0.0
  0
POINT
  5
195
  8
DEFPOINTS
  6
CONTINUOUS
 62
     0
 10
612.77657399709858
 20
190.7070588784469
 30
0.0
  0
POINT
  5
196
  8
DEFPOINTS
  6
CONTINUOUS
 62
     0
 10
612.77657399709915
 20
109.85705887844691
 30
0.0
  0
POINT
  5
197
  8
DEFPOINTS
  6
CONTINUOUS
 62
     0
 10
475.15339830748002
 20
109.85705887844701
 30
0.0
  0
ENDBLK
  5
199
  8
0
 62
     7
  0
BLOCK
  8
0
 62
     7
  2
*D5
 70
     1
 10
0.0
 20
0.0
 30
0.0
  3
*D5
  1

  0
LINE
  5
19C
  8
0
  6
CONTINUOUS
 62
     0
 10
609.22786129738995
 20
193.7820588784472
 30
0.0
 11
465.80195985573721
 21
193.7820588784472
 31
0.0
  0
LINE
  5
19D
  8
0
  6
CONTINUOUS
 62
     0
 10
609.22786129737494
 20
106.782058878447
 30
0.0
 11
465.8019598557371
 21
106.782058878447
 31
0.0
  0
LINE
  5
19E
  8
0
  6
CONTINUOUS
 62
     0
 10
466.8019598557371
 20
190.7820588784472
 30
0.0
 11
466.80195985573698
 21
109.782058878447
 31
0.0
  0
SOLID
  5
19F
  8
0
  6
CONTINUOUS
 62
     0
 10
466.3019598557371
 20
190.7820588784472
 30
0.0
 11
467.3019598557371
 21
190.7820588784472
 31
0.0
 12
466.8019598557371
 22
193.7820588784472
 32
0.0
 13
466.8019598557371
 23
193.7820588784472
 33
0.0
  0
SOLID
  5
1A0
  8
0
  6
CONTINUOUS
 62
     0
 10
466.3019598557371
 20
109.782058878447
 30
0.0
 11
467.30195985573698
 21
109.782058878447
 31
0.0
 12
466.80195985573698
 22
106.782058878447
 32
0.0
 13
466.80195985573698
 23
106.782058878447
 33
0.0
  0
INSERT
  5
1A1
  8
0
  6
CONTINUOUS
 62
     7
  2
*U17
 10
0.0
 20
0.0
 30
0.0
  0
POINT
  5
1A2
  8
DEFPOINTS
  6
CONTINUOUS
 62
     0
 10
610.22786129738995
 20
193.7820588784472
 30
0.0
  0
POINT
  5
1A3
  8
DEFPOINTS
  6
CONTINUOUS
 62
     0
 10
610.22786129737494
 20
106.782058878447
 30
0.0
  0
POINT
  5
1A4
  8
DEFPOINTS
  6
CONTINUOUS
 62
     0
 10
466.80195985573698
 20
106.782058878447
 30
0.0
  0
ENDBLK
  5
1A6
  8
0
 62
     7
  0
BLOCK
  8
0
 62
     7
  2
*D6
 70
     1
 10
0.0
 20
0.0
 30
0.0
  3
*D6
  1

  0
LINE
  5
1A9
  8
0
  6
CONTINUOUS
 62
     0
 10
620.27657399709835
 20
190.0520588784469
 30
0.0
 11
620.27657399709835
 21
198.0521435279897
 31
0.0
  0
LINE
  5
1AA
  8
0
  6
CONTINUOUS
 62
     0
 10
612.77657399709847
 20
190.0520588784473
 30
0.0
 11
612.77657399709847
 21
198.0521435279897
 31
0.0
  0
LINE
  5
1AB
  8
0
  6
CONTINUOUS
 62
     0
 10
623.27657399709835
 20
197.0521435279897
 30
0.0
 11
626.27657399709835
 21
197.0521435279897
 31
0.0
  0
LINE
  5
1AC
  8
0
  6
CONTINUOUS
 62
     0
 10
609.77657399709847
 20
197.0521435279897
 30
0.0
 11
606.77657399709858
 21
197.0521435279897
 31
0.0
  0
LINE
  5
1AD
  8
0
  6
CONTINUOUS
 62
     0
 10
620.27657399709835
 20
197.0521435279897
 30
0.0
 11
612.77657399709847
 21
197.0521435279897
 31
0.0
  0
SOLID
  5
1AE
  8
0
  6
CONTINUOUS
 62
     0
 10
623.27657399709835
 20
197.5521435279897
 30
0.0
 11
623.27657399709835
 21
196.5521435279897
 31
0.0
 12
620.27657399709835
 22
197.0521435279897
 32
0.0
 13
620.27657399709835
 23
197.0521435279897
 33
0.0
  0
SOLID
  5
1AF
  8
0
  6
CONTINUOUS
 62
     0
 10
609.77657399709847
 20
197.5521435279897
 30
0.0
 11
609.77657399709847
 21
196.5521435279897
 31
0.0
 12
612.77657399709847
 22
197.0521435279897
 32
0.0
 13
612.77657399709847
 23
197.0521435279897
 33
0.0
  0
INSERT
  5
1B0
  8
0
  6
CONTINUOUS
 62
     7
  2
*U18
 10
0.0
 20
0.0
 30
0.0
  0
POINT
  5
1B1
  8
DEFPOINTS
  6
CONTINUOUS
 62
     0
 10
620.27657399709835
 20
189.0520588784469
 30
0.0
  0
POINT
  5
1B2
  8
DEFPOINTS
  6
CONTINUOUS
 62
     0
 10
612.77657399709847
 20
189.0520588784473
 30
0.0
  0
POINT
  5
1B3
  8
DEFPOINTS
  6
CONTINUOUS
 62
     0
 10
612.77657399709847
 20
197.0521435279897
 30
0.0
  0
ENDBLK
  5
1B5
  8
0
 62
     7
  0
BLOCK
  8
0
 62
     7
  2
*D7
 70
     1
 10
0.0
 20
0.0
 30
0.0
  3
*D7
  1

  0
LINE
  5
1B8
  8
0
  6
CONTINUOUS
 62
     0
 10
622.77657399709835
 20
171.2820588784472
 30
0.0
 11
622.77657399709835
 21
208.40936340318129
 31
0.0
  0
LINE
  5
1B9
  8
0
  6
CONTINUOUS
 62
     0
 10
610.27657399709835
 20
171.28205887844709
 30
0.0
 11
610.27657399709835
 21
208.40936340318129
 31
0.0
  0
LINE
  5
1BA
  8
0
  6
CONTINUOUS
 62
     0
 10
619.77657399709835
 20
207.40936340318129
 30
0.0
 11
613.27657399709835
 21
207.40936340318129
 31
0.0
  0
SOLID
  5
1BB
  8
0
  6
CONTINUOUS
 62
     0
 10
619.77657399709835
 20
207.90936340318129
 30
0.0
 11
619.77657399709835
 21
206.9093634031812
 31
0.0
 12
622.77657399709835
 22
207.40936340318129
 32
0.0
 13
622.77657399709835
 23
207.40936340318129
 33
0.0
  0
SOLID
  5
1BC
  8
0
  6
CONTINUOUS
 62
     0
 10
613.27657399709835
 20
207.90936340318129
 30
0.0
 11
613.27657399709835
 21
206.9093634031812
 31
0.0
 12
610.27657399709835
 22
207.40936340318129
 32
0.0
 13
610.27657399709835
 23
207.40936340318129
 33
0.0
  0
INSERT
  5
1BD
  8
0
  6
CONTINUOUS
 62
     7
  2
*U19
 10
0.0
 20
0.0
 30
0.0
  0
POINT
  5
1BE
  8
DEFPOINTS
  6
CONTINUOUS
 62
     0
 10
622.77657399709835
 20
170.2820588784472
 30
0.0
  0
POINT
  5
1BF
  8
DEFPOINTS
  6
CONTINUOUS
 62
     0
 10
610.27657399709835
 20
170.28205887844709
 30
0.0
  0
POINT
  5
1C0
  8
DEFPOINTS
  6
CONTINUOUS
 62
     0
 10
610.27657399709835
 20
207.40936340318129
 30
0.0
  0
ENDBLK
  5
1C2
  8
0
 62
     7
  0
BLOCK
  8
0
 62
     7
  2
*D8
 70
     1
 10
0.0
 20
0.0
 30
0.0
  3
*D8
  1

  0
LINE
  5
1C5
  8
0
  6
CONTINUOUS
 62
     0
 10
631.27657399709869
 20
156.7820588784472
 30
0.0
 11
631.27657399709869
 21
216.84339166055889
 31
0.0
  0
LINE
  5
1C6
  8
0
  6
CONTINUOUS
 62
     0
 10
610.27657399709835
 20
156.7820588784472
 30
0.0
 11
610.27657399709835
 21
216.84339166055889
 31
0.0
  0
LINE
  5
1C7
  8
0
  6
CONTINUOUS
 62
     0
 10
628.27657399709869
 20
215.84339166055881
 30
0.0
 11
613.27657399709835
 21
215.84339166055881
 31
0.0
  0
SOLID
  5
1C8
  8
0
  6
CONTINUOUS
 62
     0
 10
628.27657399709869
 20
216.34339166055881
 30
0.0
 11
628.27657399709869
 21
215.34339166055881
 31
0.0
 12
631.27657399709869
 22
215.84339166055881
 32
0.0
 13
631.27657399709869
 23
215.84339166055881
 33
0.0
  0
SOLID
  5
1C9
  8
0
  6
CONTINUOUS
 62
     0
 10
613.27657399709835
 20
216.34339166055881
 30
0.0
 11
613.27657399709835
 21
215.34339166055881
 31
0.0
 12
610.27657399709835
 22
215.84339166055881
 32
0.0
 13
610.27657399709835
 23
215.84339166055881
 33
0.0
  0
INSERT
  5
1CA
  8
0
  6
CONTINUOUS
 62
     7
  2
*U20
 10
0.0
 20
0.0
 30
0.0
  0
POINT
  5
1CB
  8
DEFPOINTS
  6
CONTINUOUS
 62
     0
 10
631.27657399709869
 20
155.7820588784472
 30
0.0
  0
POINT
  5
1CC
  8
DEFPOINTS
  6
CONTINUOUS
 62
     0
 10
610.27657399709835
 20
155.7820588784472
 30
0.0
  0
POINT
  5
1CD
  8
DEFPOINTS
  6
CONTINUOUS
 62
     0
 10
610.27657399709835
 20
215.84339166055881
 30
0.0
  0
ENDBLK
  5
1CF
  8
0
 62
     7
  0
BLOCK
  8
0
 62
     7
  2
*D9
 70
     1
 10
0.0
 20
0.0
 30
0.0
  3
*D9
  1

  0
LINE
  5
1D2
  8
0
  6
CONTINUOUS
 62
     0
 10
491.79775476262711
 20
156.28205887847281
 30
0.0
 11
491.79775476262711
 21
207.97784806280629
 31
0.0
  0
LINE
  5
1D3
  8
0
  6
CONTINUOUS
 62
     0
 10
485.54775476262711
 20
156.78205887847281
 30
0.0
 11
485.54775476262711
 21
207.97784806280629
 31
0.0
  0
LINE
  5
1D4
  8
0
  6
CONTINUOUS
 62
     0
 10
494.79775476262711
 20
206.97784806280629
 30
0.0
 11
497.79775476262711
 21
206.97784806280629
 31
0.0
  0
LINE
  5
1D5
  8
0
  6
CONTINUOUS
 62
     0
 10
482.54775476262699
 20
206.97784806280629
 30
0.0
 11
479.54775476262711
 21
206.97784806280629
 31
0.0
  0
LINE
  5
1D6
  8
0
  6
CONTINUOUS
 62
     0
 10
491.79775476262711
 20
206.97784806280629
 30
0.0
 11
485.54775476262711
 21
206.97784806280629
 31
0.0
  0
SOLID
  5
1D7
  8
0
  6
CONTINUOUS
 62
     0
 10
494.79775476262711
 20
207.47784806280629
 30
0.0
 11
494.79775476262711
 21
206.47784806280629
 31
0.0
 12
491.79775476262711
 22
206.97784806280629
 32
0.0
 13
491.79775476262711
 23
206.97784806280629
 33
0.0
  0
SOLID
  5
1D8
  8
0
  6
CONTINUOUS
 62
     0
 10
482.54775476262699
 20
207.47784806280629
 30
0.0
 11
482.54775476262699
 21
206.47784806280629
 31
0.0
 12
485.54775476262711
 22
206.97784806280629
 32
0.0
 13
485.54775476262711
 23
206.97784806280629
 33
0.0
  0
INSERT
  5
1D9
  8
0
  6
CONTINUOUS
 62
     7
  2
*U21
 10
0.0
 20
0.0
 30
0.0
  0
POINT
  5
1DA
  8
DEFPOINTS
  6
CONTINUOUS
 62
     0
 10
491.79775476262711
 20
155.28205887847281
 30
0.0
  0
POINT
  5
1DB
  8
DEFPOINTS
  6
CONTINUOUS
 62
     0
 10
485.54775476262711
 20
155.78205887847281
 30
0.0
  0
POINT
  5
1DC
  8
DEFPOINTS
  6
CONTINUOUS
 62
     0
 10
485.54775476262711
 20
206.97784806280629
 30
0.0
  0
ENDBLK
  5
1DE
  8
0
 62
     7
  0
BLOCK
  8
0
 62
     7
  2
*D10
 70
     1
 10
0.0
 20
0.0
 30
0.0
  3
*D10
  1

  0
LINE
  5
1E1
  8
0
  6
CONTINUOUS
 62
     0
 10
495.54775476262711
 20
190.05205887847279
 30
0.0
 11
495.54775476262711
 21
199.5981547575625
 31
0.0
  0
LINE
  5
1E2
  8
0
  6
CONTINUOUS
 62
     0
 10
488.04775476262739
 20
190.05205887847279
 30
0.0
 11
488.04775476262739
 21
199.5981547575625
 31
0.0
  0
LINE
  5
1E3
  8
0
  6
CONTINUOUS
 62
     0
 10
498.54775476262699
 20
198.5981547575625
 30
0.0
 11
501.54775476262711
 21
198.5981547575625
 31
0.0
  0
LINE
  5
1E4
  8
0
  6
CONTINUOUS
 62
     0
 10
485.04775476262728
 20
198.5981547575625
 30
0.0
 11
482.04775476262739
 21
198.5981547575625
 31
0.0
  0
LINE
  5
1E5
  8
0
  6
CONTINUOUS
 62
     0
 10
495.54775476262711
 20
198.5981547575625
 30
0.0
 11
488.04775476262739
 21
198.5981547575625
 31
0.0
  0
SOLID
  5
1E6
  8
0
  6
CONTINUOUS
 62
     0
 10
498.54775476262699
 20
199.0981547575625
 30
0.0
 11
498.54775476262699
 21
198.0981547575625
 31
0.0
 12
495.54775476262711
 22
198.5981547575625
 32
0.0
 13
495.54775476262711
 23
198.5981547575625
 33
0.0
  0
SOLID
  5
1E7
  8
0
  6
CONTINUOUS
 62
     0
 10
485.04775476262728
 20
199.0981547575625
 30
0.0
 11
485.04775476262728
 21
198.0981547575625
 31
0.0
 12
488.04775476262739
 22
198.5981547575625
 32
0.0
 13
488.04775476262739
 23
198.5981547575625
 33
0.0
  0
INSERT
  5
1E8
  8
0
  6
CONTINUOUS
 62
     7
  2
*U22
 10
0.0
 20
0.0
 30
0.0
  0
POINT
  5
1E9
  8
DEFPOINTS
  6
CONTINUOUS
 62
     0
 10
495.54775476262711
 20
189.05205887847279
 30
0.0
  0
POINT
  5
1EA
  8
DEFPOINTS
  6
CONTINUOUS
 62
     0
 10
488.04775476262739
 20
189.05205887847279
 30
0.0
  0
POINT
  5
1EB
  8
DEFPOINTS
  6
CONTINUOUS
 62
     0
 10
488.04775476262739
 20
198.5981547575625
 30
0.0
  0
ENDBLK
  5
1ED
  8
0
 62
     7
  0
BLOCK
  8
0
 62
     7
  2
*D11
 70
     1
 10
0.0
 20
0.0
 30
0.0
  3
*D11
  1

  0
LINE
  5
1F0
  8
0
  6
CONTINUOUS
 62
     0
 10
498.04775476262751
 20
184.58205887847279
 30
0.0
 11
498.04775476262751
 21
218.09577752808059
 31
0.0
  0
LINE
  5
1F1
  8
0
  6
CONTINUOUS
 62
     0
 10
485.54775476262751
 20
184.58205887847271
 30
0.0
 11
485.54775476262751
 21
218.09577752808059
 31
0.0
  0
LINE
  5
1F2
  8
0
  6
CONTINUOUS
 62
     0
 10
495.04775476262751
 20
217.09577752808059
 30
0.0
 11
488.54775476262739
 21
217.09577752808059
 31
0.0
  0
SOLID
  5
1F3
  8
0
  6
CONTINUOUS
 62
     0
 10
495.04775476262751
 20
217.59577752808059
 30
0.0
 11
495.04775476262751
 21
216.59577752808059
 31
0.0
 12
498.04775476262751
 22
217.09577752808059
 32
0.0
 13
498.04775476262751
 23
217.09577752808059
 33
0.0
  0
SOLID
  5
1F4
  8
0
  6
CONTINUOUS
 62
     0
 10
488.54775476262739
 20
217.59577752808059
 30
0.0
 11
488.54775476262739
 21
216.59577752808059
 31
0.0
 12
485.54775476262751
 22
217.09577752808059
 32
0.0
 13
485.54775476262751
 23
217.09577752808059
 33
0.0
  0
INSERT
  5
1F5
  8
0
  6
CONTINUOUS
 62
     7
  2
*U23
 10
0.0
 20
0.0
 30
0.0
  0
POINT
  5
1F6
  8
DEFPOINTS
  6
CONTINUOUS
 62
     0
 10
498.04775476262751
 20
183.58205887847279
 30
0.0
  0
POINT
  5
1F7
  8
DEFPOINTS
  6
CONTINUOUS
 62
     0
 10
485.54775476262751
 20
183.58205887847271
 30
0.0
  0
POINT
  5
1F8
  8
DEFPOINTS
  6
CONTINUOUS
 62
     0
 10
485.54775476262751
 20
217.09577752808059
 30
0.0
  0
ENDBLK
  5
1FA
  8
0
 62
     7
  0
BLOCK
  8
0
 62
     7
  2
*U12
 70
     1
 10
0.0
 20
0.0
 30
0.0
  3
*U12
  1

  0
TEXT
  5
223
  8
0
  6
CONTINUOUS
 62
     0
 10
635.70076129869722
 20
148.41539221180631
 30
0.0
 40
3.2000000000000002
  1
10
 50
90.0
  0
ENDBLK
  5
225
  8
0
 62
     7
  0
BLOCK
  8
0
 62
     7
  2
*U13
 70
     1
 10
0.0
 20
0.0
 30
0.0
  3
*U13
  1

  0
TEXT
  5
227
  8
0
  6
CONTINUOUS
 62
     0
 10
641.80445460663896
 20
147.8820588784472
 30
0.0
 40
3.2000000000000002
  1
40
 50
90.0
  0
ENDBLK
  5
229
  8
0
 62
     7
  0
BLOCK
  8
0
 62
     7
  2
*U14
 70
     1
 10
0.0
 20
0.0
 30
0.0
  3
*U14
  1

  0
TEXT
  5
22B
  8
0
  6
CONTINUOUS
 62
     0
 10
650.86619833940813
 20
147.61539221180621
 30
0.0
 40
3.2000000000000002
  1
67
 50
90.0
  0
ENDBLK
  5
22D
  8
0
 62
     7
  0
BLOCK
  8
0
 62
     7
  2
*U15
 70
     1
 10
0.0
 20
0.0
 30
0.0
  3
*U15
  1

  0
TEXT
  5
22F
  8
0
  6
CONTINUOUS
 62
     0
 10
480.74398863868407
 20
144.1487255451147
 30
0.0
 40
3.2000000000000002
  1
80.34
 50
90.0
  0
ENDBLK
  5
231
  8
0
 62
     7
  0
BLOCK
  8
0
 62
     7
  2
*U16
 70
     1
 10
0.0
 20
0.0
 30
0.0
  3
*U16
  1

  0
TEXT
  5
233
  8
0
  6
CONTINUOUS
 62
     0
 10
474.15339830748002
 20
144.14872554511371
 30
0.0
 40
3.2000000000000002
  1
80.85
 50
90.0
  0
ENDBLK
  5
235
  8
0
 62
     7
  0
BLOCK
  8
0
 62
     7
  2
*U17
 70
     1
 10
0.0
 20
0.0
 30
0.0
  3
*U17
  1

  0
TEXT
  5
237
  8
0
  6
CONTINUOUS
 62
     0
 10
465.8019598557371
 20
147.61539221178049
 30
0.0
 40
3.2000000000000002
  1
87
 50
90.0
  0
ENDBLK
  5
239
  8
0
 62
     7
  0
BLOCK
  8
0
 62
     7
  2
*U18
 70
     1
 10
0.0
 20
0.0
 30
0.0
  3
*U18
  1

  0
TEXT
  5
23B
  8
0
  6
CONTINUOUS
 62
     0
 10
613.32657399709842
 20
198.0521435279897
 30
0.0
 40
3.2000000000000002
  1
7.5
  0
ENDBLK
  5
23D
  8
0
 62
     7
  0
BLOCK
  8
0
 62
     7
  2
*U19
 70
     1
 10
0.0
 20
0.0
 30
0.0
  3
*U19
  1

  0
TEXT
  5
23F
  8
0
  6
CONTINUOUS
 62
     0
 10
612.2599073304317
 20
208.40936340318129
 30
0.0
 40
3.2000000000000002
  1
12.5
  0
ENDBLK
  5
241
  8
0
 62
     7
  0
BLOCK
  8
0
 62
     7
  2
*U20
 70
     1
 10
0.0
 20
0.0
 30
0.0
  3
*U20
  1

  0
TEXT
  5
243
  8
0
  6
CONTINUOUS
 62
     0
 10
618.64324066376525
 20
216.84339166055889
 30
0.0
 40
3.2000000000000002
  1
21
  0
ENDBLK
  5
245
  8
0
 62
     7
  0
BLOCK
  8
0
 62
     7
  2
*U21
 70
     1
 10
0.0
 20
0.0
 30
0.0
  3
*U21
  1

  0
TEXT
  5
247
  8
0
  6
CONTINUOUS
 62
     0
 10
483.87275476262698
 20
207.97784806280629
 30
0.0
 40
3.2000000000000002
  1
6.25
  0
ENDBLK
  5
249
  8
0
 62
     7
  0
BLOCK
  8
0
 62
     7
  2
*U22
 70
     1
 10
0.0
 20
0.0
 30
0.0
  3
*U22
  1

  0
TEXT
  5
24B
  8
0
  6
CONTINUOUS
 62
     0
 10
488.59775476262718
 20
199.5981547575625
 30
0.0
 40
3.2000000000000002
  1
7.5
  0
ENDBLK
  5
24D
  8
0
 62
     7
  0
BLOCK
  8
0
 62
     7
  2
*U23
 70
     1
 10
0.0
 20
0.0
 30
0.0
  3
*U23
  1

  0
TEXT
  5
24F
  8
0
  6
CONTINUOUS
 62
     0
 10
487.53108809596091
 20
218.09577752808059
 30
0.0
 40
3.2000000000000002
  1
12.5
  0
ENDBLK
  5
251
  8
0
 62
     7
  0
ENDSEC
  0
SECTION
  2
ENTITIES
  0
TEXT
  5
28
  8
0
  6
CONTINUOUS
 62
     7
 10
248.5335704392277
 20
-34.511172156946323
 30
0.0
 40
16.0
  1
ATP50XL025-B-P10
  0
TEXT
  5
29
  8
0
  6
CONTINUOUS
 62
     7
 10
248.5096133560682
 20
-7.6023238690530093
 30
0.0
 40
16.0
  1
ATP50XL025-A-P10
  0
TEXT
  5
2A
  8
0
  6
CONTINUOUS
 62
     7
 10
248.5096133560682
 20
-67.602323869052896
 30
0.0
 40
16.0
  1
XL50025
  0
LINE
  5
34
  8
CENTER
  6
CENTER
 62
     1
 10
483.04775476262739
 20
150.28205887847281
 30
0.0
 11
500.54775476262739
 21
150.2820588784729
 31
0.0
  0
LINE
  5
35
  8
0
  6
CONTINUOUS
 62
     7
 10
498.04775476262751
 20
116.9820588784721
 30
0.0
 11
498.04775476262751
 21
183.58205887847279
 31
0.0
  0
LINE
  5
36
  8
0
  6
CONTINUOUS
 62
     7
 10
485.54775476262751
 20
116.9820588784733
 30
0.0
 11
485.54775476262751
 21
183.58205887847271
 31
0.0
  0
LINE
  5
37
  8
CENTER
  6
CENTER
 62
     1
 10
488.04775476262819
 20
109.8570588784727
 30
0.0
 11
495.54775476262768
 21
109.8570588784727
 31
0.0
  0
LINE
  5
38
  8
0
  6
CONTINUOUS
 62
     7
 10
486.44775476262743
 20
116.7820588784729
 30
0.0
 11
486.44775476262743
 21
110.3227028755707
 31
0.0
  0
LINE
  5
39
  8
0
  6
CONTINUOUS
 62
     7
 10
486.44775476262743
 20
110.3227028755707
 30
0.0
 11
485.49904206291887
 21
106.7820588784727
 31
0.0
  0
LINE
  5
3A
  8
0
  6
CONTINUOUS
 62
     7
 10
485.49904206291887
 20
106.7820588784727
 30
0.0
 11
487.1554839515768
 21
106.7820588784724
 31
0.0
  0
LINE
  5
3B
  8
0
  6
CONTINUOUS
 62
     7
 10
488.04775476262739
 20
110.11205887941649
 30
0.0
 11
487.1554839515768
 21
106.7820588784724
 31
0.0
  0
LINE
  5
3C
  8
0
  6
CONTINUOUS
 62
     7
 10
495.54775476262711
 20
110.11205887941649
 30
0.0
 11
496.4400255736777
 21
106.7820588784724
 31
0.0
  0
LINE
  5
3D
  8
0
  6
CONTINUOUS
 62
     7
 10
498.09646746233602
 20
106.7820588784727
 30
0.0
 11
496.4400255736777
 21
106.7820588784724
 31
0.0
  0
LINE
  5
3E
  8
0
  6
CONTINUOUS
 62
     7
 10
497.14775476262741
 20
110.3227028755707
 30
0.0
 11
498.09646746233602
 21
106.7820588784727
 31
0.0
  0
LINE
  5
3F
  8
0
  6
CONTINUOUS
 62
     7
 10
497.14775476262741
 20
116.7820588784729
 30
0.0
 11
497.14775476262741
 21
110.3227028755707
 31
0.0
  0
LINE
  5
40
  8
0
  6
CONTINUOUS
 62
     7
 10
485.74775476262801
 20
116.7820588784725
 30
0.0
 11
488.04775476262768
 21
116.7820588784727
 31
0.0
  0
LINE
  5
41
  8
0
  6
CONTINUOUS
 62
     7
 10
497.84775476262809
 20
116.7820588784728
 30
0.0
 11
498.04775476262768
 21
116.9820588784727
 31
0.0
  0
LINE
  5
42
  8
0
  6
CONTINUOUS
 62
     7
 10
485.74775476262801
 20
116.7820588784725
 30
0.0
 11
485.54775476262768
 21
116.9820588784725
 31
0.0
  0
LINE
  5
43
  8
0
  6
CONTINUOUS
 62
     7
 10
495.54775476262768
 20
116.7820588784728
 30
0.0
 11
497.84775476262809
 21
116.7820588784728
 31
0.0
  0
LINE
  5
44
  8
0
  6
CONTINUOUS
 62
     7
 10
488.04775476262819
 20
111.5120588784725
 30
0.0
 11
495.54775476262768
 21
111.5120588784727
 31
0.0
  0
LINE
  5
45
  8
0
  6
CONTINUOUS
 62
     7
 10
488.04775476262819
 20
110.11205887847269
 30
0.0
 11
495.54775476262768
 21
110.11205887847279
 31
0.0
  0
LINE
  5
46
  8
0
  6
CONTINUOUS
 62
     7
 10
488.04775476262807
 20
116.7820588784728
 30
0.0
 11
488.04775476262819
 21
110.11205887847269
 31
0.0
  0
LINE
  5
47
  8
0
  6
CONTINUOUS
 62
     7
 10
495.54775476262768
 20
116.7820588784727
 30
0.0
 11
495.54775476262768
 21
110.11205887847279
 31
0.0
  0
LINE
  5
48
  8
CENTER
  6
CENTER
 62
     1
 10
491.79775476262711
 20
153.28205887847281
 30
0.0
 11
491.79775476262711
 21
192.70705887847279
 31
0.0
  0
LINE
  5
49
  8
0
  6
DASHED
 62
     3
 10
494.04775476262711
 20
164.28205887847281
 30
0.0
 11
494.04775476262711
 21
189.05205887847279
 31
0.0
  0
LINE
  5
4B
  8
0
  6
DASHED
 62
     3
 10
489.54775476262711
 20
164.28205887847281
 30
0.0
 11
489.54775476262711
 21
189.05205887847279
 31
0.0
  0
LINE
  5
4C
  8
0
  6
CONTINUOUS
 62
     7
 10
486.04775476262688
 20
155.28205887847281
 30
0.0
 11
486.04775476262751
 21
145.28205887847281
 31
0.0
  0
LINE
  5
4D
  8
0
  6
CONTINUOUS
 62
     7
 10
497.54775476262722
 20
155.2820588784729
 30
0.0
 11
497.54775476262751
 21
145.28205887847301
 31
0.0
  0
LINE
  5
4E
  8
0
  6
CONTINUOUS
 62
     7
 10
497.54775476262751
 20
145.28205887847301
 30
0.0
 11
498.04775476262751
 21
144.78205887847301
 31
0.0
  0
LINE
  5
4F
  8
0
  6
CONTINUOUS
 62
     7
 10
486.04775476262751
 20
145.28205887847281
 30
0.0
 11
485.54775476262751
 21
144.7820588784729
 31
0.0
  0
LINE
  5
50
  8
0
  6
CONTINUOUS
 62
     7
 10
486.04775476262751
 20
145.28205887847281
 30
0.0
 11
497.54775476262751
 21
145.28205887847301
 31
0.0
  0
LINE
  5
51
  8
0
  6
CONTINUOUS
 62
     7
 10
485.54775476262768
 20
133.632058878473
 30
0.0
 11
485.54775476262768
 21
133.63215887847301
 31
0.0
  0
LINE
  5
52
  8
0
  6
CONTINUOUS
 62
     7
 10
485.54775476262768
 20
150.28205887847301
 30
0.0
 11
485.54785476262703
 21
150.28205887847301
 31
0.0
  0
LINE
  5
53
  8
0
  6
DASHED
 62
     3
 10
490.17675476262741
 20
155.28205887847281
 30
0.0
 11
490.17675476262741
 21
164.28205887847281
 31
0.0
  0
LINE
  5
54
  8
0
  6
DASHED
 62
     3
 10
489.79775476262728
 20
155.28205887847281
 30
0.0
 11
489.79775476262728
 21
164.28205887847281
 31
0.0
  0
LINE
  5
55
  8
0
  6
DASHED
 62
     3
 10
493.79775476262739
 20
155.28205887847281
 30
0.0
 11
493.79775476262739
 21
164.28205887847281
 31
0.0
  0
LINE
  5
56
  8
0
  6
DASHED
 62
     3
 10
493.41875476262709
 20
155.28205887847281
 30
0.0
 11
493.41875476262709
 21
164.28205887847281
 31
0.0
  0
LINE
  5
57
  8
0
  6
DASHED
 62
     3
 10
489.54775476262711
 20
164.28205887847281
 30
0.0
 11
494.04775476262711
 21
164.28205887847281
 31
0.0
  0
LINE
  5
58
  8
0
  6
CONTINUOUS
 62
     7
 10
486.04775476262688
 20
155.28205887847281
 30
0.0
 11
485.54775476262711
 21
155.78205887847281
 31
0.0
  0
LINE
  5
59
  8
0
  6
CONTINUOUS
 62
     7
 10
497.54775476262722
 20
155.2820588784729
 30
0.0
 11
498.04775476262711
 21
155.78205887847281
 31
0.0
  0
LINE
  5
5A
  8
0
  6
CONTINUOUS
 62
     7
 10
486.04775476262688
 20
155.28205887847281
 30
0.0
 11
497.54775476262722
 21
155.2820588784729
 31
0.0
  0
LINE
  5
5B
  8
CENTER
  6
CENTER
 62
     1
 10
488.04775476262739
 20
190.7070588784724
 30
0.0
 11
495.54775476262711
 21
190.70705887847279
 31
0.0
  0
LINE
  5
5C
  8
0
  6
CONTINUOUS
 62
     7
 10
497.14775476262741
 20
183.7820588784725
 30
0.0
 11
497.14775476262741
 21
190.24141488137479
 31
0.0
  0
LINE
  5
5D
  8
0
  6
CONTINUOUS
 62
     7
 10
497.14775476262741
 20
190.24141488137479
 30
0.0
 11
498.09646746233602
 21
193.7820588784729
 31
0.0
  0
LINE
  5
5E
  8
0
  6
CONTINUOUS
 62
     7
 10
498.09646746233602
 20
193.7820588784729
 30
0.0
 11
496.4400255736777
 21
193.78205887847309
 31
0.0
  0
LINE
  5
5F
  8
0
  6
CONTINUOUS
 62
     7
 10
495.54775476262711
 20
190.4520588775288
 30
0.0
 11
496.4400255736777
 21
193.78205887847309
 31
0.0
  0
LINE
  5
60
  8
0
  6
CONTINUOUS
 62
     7
 10
486.44775476262743
 20
190.24141488137479
 30
0.0
 11
485.49904206291887
 21
193.7820588784729
 31
0.0
  0
LINE
  5
61
  8
0
  6
CONTINUOUS
 62
     7
 10
488.04775476262739
 20
190.4520588775288
 30
0.0
 11
487.1554839515768
 21
193.78205887847309
 31
0.0
  0
LINE
  5
62
  8
0
  6
CONTINUOUS
 62
     7
 10
486.44775476262743
 20
183.7820588784725
 30
0.0
 11
486.44775476262743
 21
190.24141488137479
 31
0.0
  0
LINE
  5
63
  8
0
  6
CONTINUOUS
 62
     7
 10
488.04775476262739
 20
189.05205887847279
 30
0.0
 11
495.54775476262711
 21
189.05205887847279
 31
0.0
  0
LINE
  5
64
  8
0
  6
CONTINUOUS
 62
     7
 10
488.04775476262739
 20
190.4520588784724
 30
0.0
 11
495.54775476262711
 21
190.4520588784728
 31
0.0
  0
LINE
  5
65
  8
0
  6
CONTINUOUS
 62
     7
 10
495.54775476262739
 20
183.78205887847281
 30
0.0
 11
497.84775476262718
 21
183.7820588784729
 31
0.0
  0
LINE
  5
66
  8
0
  6
CONTINUOUS
 62
     7
 10
485.74775476262738
 20
183.78205887847281
 30
0.0
 11
485.54775476262751
 21
183.58205887847271
 31
0.0
  0
LINE
  5
67
  8
0
  6
CONTINUOUS
 62
     7
 10
497.84775476262718
 20
183.7820588784729
 30
0.0
 11
498.04775476262751
 21
183.58205887847279
 31
0.0
  0
LINE
  5
68
  8
0
  6
CONTINUOUS
 62
     7
 10
485.74775476262738
 20
183.78205887847281
 30
0.0
 11
488.04775476262739
 21
183.78205887847281
 31
0.0
  0
LINE
  5
69
  8
0
  6
CONTINUOUS
 62
     7
 10
485.49904206291887
 20
193.7820588784729
 30
0.0
 11
487.1554839515768
 21
193.78205887847309
 31
0.0
  0
LINE
  5
6A
  8
0
  6
CONTINUOUS
 62
     7
 10
488.04775476262739
 20
183.7820588784725
 30
0.0
 11
488.04775476262739
 21
190.4520588775288
 31
0.0
  0
LINE
  5
6B
  8
0
  6
CONTINUOUS
 62
     7
 10
495.54775476262739
 20
183.7820588784729
 30
0.0
 11
495.54775476262711
 21
190.4520588784728
 31
0.0
  0
LINE
  5
6C
  8
0
  6
CONTINUOUS
 62
     7
 10
622.77657399709869
 20
116.9820588784464
 30
0.0
 11
622.77657399709869
 21
130.282058878447
 31
0.0
  0
LINE
  5
6D
  8
0
  6
CONTINUOUS
 62
     7
 10
610.27657399709869
 20
116.9820588784474
 30
0.0
 11
610.27657399709835
 21
183.58205887844679
 31
0.0
  0
LINE
  5
6E
  8
0
  6
CONTINUOUS
 62
     7
 10
612.77657399709835
 20
110.1120588793911
 30
0.0
 11
611.88430318604787
 21
106.7820588784467
 31
0.0
  0
LINE
  5
6F
  8
0
  6
CONTINUOUS
 62
     7
 10
610.47657399709897
 20
116.7820588784469
 30
0.0
 11
612.77657399709915
 21
116.782058878447
 31
0.0
  0
LINE
  5
70
  8
0
  6
CONTINUOUS
 62
     7
 10
611.17657399709833
 20
116.7820588784472
 30
0.0
 11
611.17657399709833
 21
110.32270287554491
 31
0.0
  0
LINE
  5
71
  8
0
  6
CONTINUOUS
 62
     7
 10
610.22786129738995
 20
106.782058878447
 30
0.0
 11
611.88430318604787
 21
106.7820588784467
 31
0.0
  0
LINE
  5
72
  8
0
  6
CONTINUOUS
 62
     7
 10
611.17657399709833
 20
110.32270287554491
 30
0.0
 11
610.22786129738995
 21
106.782058878447
 31
0.0
  0
LINE
  5
73
  8
0
  6
CONTINUOUS
 62
     7
 10
610.47657399709897
 20
116.7820588784469
 30
0.0
 11
610.27657399709881
 21
116.98205887844691
 31
0.0
  0
LINE
  5
74
  8
CENTER
  6
CENTER
 62
     1
 10
612.77657399709915
 20
109.85705887844691
 30
0.0
 11
620.27657399709915
 21
109.85705887844691
 31
0.0
  0
LINE
  5
75
  8
0
  6
CONTINUOUS
 62
     7
 10
621.87657399709826
 20
116.7820588784472
 30
0.0
 11
621.87657399709826
 21
110.32270287554491
 31
0.0
  0
LINE
  5
76
  8
0
  6
CONTINUOUS
 62
     7
 10
621.87657399709826
 20
110.32270287554491
 30
0.0
 11
622.82528669680687
 21
106.782058878447
 31
0.0
  0
LINE
  5
77
  8
0
  6
CONTINUOUS
 62
     7
 10
622.82528669680687
 20
106.782058878447
 30
0.0
 11
621.16884480814861
 21
106.7820588784467
 31
0.0
  0
LINE
  5
78
  8
0
  6
CONTINUOUS
 62
     7
 10
620.27657399709835
 20
110.1120588793911
 30
0.0
 11
621.16884480814861
 21
106.7820588784467
 31
0.0
  0
LINE
  5
79
  8
0
  6
CONTINUOUS
 62
     7
 10
620.27657399709915
 20
116.782058878447
 30
0.0
 11
620.27657399709915
 21
110.1120588784471
 31
0.0
  0
LINE
  5
7A
  8
0
  6
CONTINUOUS
 62
     7
 10
612.77657399709915
 20
116.782058878447
 30
0.0
 11
612.77657399709915
 21
110.1120588784471
 31
0.0
  0
LINE
  5
7B
  8
0
  6
CONTINUOUS
 62
     7
 10
612.77657399709915
 20
110.1120588784471
 30
0.0
 11
620.27657399709915
 21
110.1120588784471
 31
0.0
  0
LINE
  5
7C
  8
0
  6
CONTINUOUS
 62
     7
 10
612.77657399709915
 20
111.51205887844669
 30
0.0
 11
620.27657399709915
 21
111.51205887844711
 31
0.0
  0
LINE
  5
7D
  8
0
  6
CONTINUOUS
 62
     7
 10
620.27657399709915
 20
116.782058878447
 30
0.0
 11
622.57657399709899
 21
116.782058878447
 31
0.0
  0
LINE
  5
7E
  8
0
  6
CONTINUOUS
 62
     7
 10
622.57657399709899
 20
116.782058878447
 30
0.0
 11
622.77657399709881
 21
116.98205887844711
 31
0.0
  0
LINE
  5
7F
  8
CENTER
  6
CENTER
 62
     1
 10
607.77657399709869
 20
150.282058878447
 30
0.0
 11
633.77657399709858
 21
150.2820588784472
 31
0.0
  0
LINE
  5
80
  8
0
  6
CONTINUOUS
 62
     7
 10
622.77657399709869
 20
130.2820588784472
 30
0.0
 11
631.07657399709865
 21
130.2820588784472
 31
0.0
  0
LINE
  5
81
  8
0
  6
CONTINUOUS
 62
     7
 10
622.77657399709835
 20
170.2820588784472
 30
0.0
 11
631.07657399709819
 21
170.2820588784472
 31
0.0
  0
LINE
  5
82
  8
0
  6
CONTINUOUS
 62
     7
 10
610.77657399709869
 20
155.282058878447
 30
0.0
 11
630.77657399709869
 21
155.2820588784472
 31
0.0
  0
LINE
  5
83
  8
0
  6
CONTINUOUS
 62
     7
 10
610.77657399709869
 20
145.2820588784472
 30
0.0
 11
630.77657399709869
 21
145.2820588784472
 31
0.0
  0
LINE
  5
84
  8
0
  6
CONTINUOUS
 62
     7
 10
622.77657399709835
 20
170.2820588784472
 30
0.0
 11
622.77657399709835
 21
183.5820588784475
 31
0.0
  0
LINE
  5
85
  8
CENTER
  6
CENTER
 62
     1
 10
626.27657399709869
 20
153.2820588784472
 30
0.0
 11
626.27657399709835
 21
172.2820588784472
 31
0.0
  0
LINE
  5
86
  8
0
  6
CONTINUOUS
 62
     7
 10
610.77657399709869
 20
155.282058878447
 30
0.0
 11
610.77657399709869
 21
145.2820588784472
 31
0.0
  0
LINE
  5
87
  8
0
  6
CONTINUOUS
 62
     7
 10
610.77657399709869
 20
145.2820588784472
 30
0.0
 11
610.27657399709869
 21
144.78205887844689
 31
0.0
  0
LINE
  5
88
  8
0
  6
CONTINUOUS
 62
     7
 10
610.77657399709869
 20
155.282058878447
 30
0.0
 11
610.27657399709869
 21
155.782058878447
 31
0.0
  0
LINE
  5
89
  8
0
  6
DASHED
 62
     3
 10
624.65557399709826
 20
155.2820588784472
 30
0.0
 11
624.65557399709826
 21
170.2820588784472
 31
0.0
  0
LINE
  5
8A
  8
0
  6
DASHED
 62
     3
 10
624.27657399709869
 20
155.2820588784472
 30
0.0
 11
624.27657399709869
 21
170.2820588784472
 31
0.0
  0
LINE
  5
8B
  8
0
  6
DASHED
 62
     3
 10
628.27657399709869
 20
155.2820588784472
 30
0.0
 11
628.27657399709869
 21
170.2820588784472
 31
0.0
  0
LINE
  5
8C
  8
0
  6
DASHED
 62
     3
 10
627.89757399709845
 20
155.2820588784472
 30
0.0
 11
627.89757399709822
 21
170.2820588784472
 31
0.0
  0
LINE
  5
8D
  8
0
  6
CONTINUOUS
 62
     7
 10
612.77657399709835
 20
190.45205887750311
 30
0.0
 11
611.88430318604787
 21
193.7820588784474
 31
0.0
  0
LINE
  5
8E
  8
0
  6
CONTINUOUS
 62
     7
 10
610.4765739970984
 20
183.782058878447
 30
0.0
 11
612.77657399709835
 21
183.782058878447
 31
0.0
  0
LINE
  5
8F
  8
0
  6
CONTINUOUS
 62
     7
 10
611.17657399709833
 20
183.782058878447
 30
0.0
 11
611.17657399709833
 21
190.2414148813491
 31
0.0
  0
LINE
  5
90
  8
0
  6
CONTINUOUS
 62
     7
 10
611.17657399709833
 20
190.2414148813491
 30
0.0
 11
610.22786129738995
 21
193.7820588784472
 31
0.0
  0
LINE
  5
91
  8
0
  6
CONTINUOUS
 62
     7
 10
610.22786129738995
 20
193.7820588784472
 30
0.0
 11
611.88430318604787
 21
193.7820588784474
 31
0.0
  0
LINE
  5
92
  8
0
  6
CONTINUOUS
 62
     7
 10
610.4765739970984
 20
183.782058878447
 30
0.0
 11
610.27657399709835
 21
183.5820588784469
 31
0.0
  0
LINE
  5
93
  8
CENTER
  6
CENTER
 62
     1
 10
612.77657399709858
 20
190.7070588784469
 30
0.0
 11
620.27657399709835
 21
190.7070588784469
 31
0.0
  0
LINE
  5
94
  8
0
  6
CONTINUOUS
 62
     7
 10
621.87657399709826
 20
183.782058878447
 30
0.0
 11
621.87657399709826
 21
190.2414148813491
 31
0.0
  0
LINE
  5
95
  8
0
  6
CONTINUOUS
 62
     7
 10
620.27657399709835
 20
190.45205887750311
 30
0.0
 11
621.16884480814861
 21
193.7820588784474
 31
0.0
  0
LINE
  5
96
  8
0
  6
CONTINUOUS
 62
     7
 10
622.82528669680687
 20
193.7820588784472
 30
0.0
 11
621.16884480814861
 21
193.7820588784474
 31
0.0
  0
LINE
  5
97
  8
0
  6
CONTINUOUS
 62
     7
 10
621.87657399709826
 20
190.2414148813491
 30
0.0
 11
622.82528669680687
 21
193.7820588784472
 31
0.0
  0
LINE
  5
98
  8
0
  6
CONTINUOUS
 62
     7
 10
622.57657399709854
 20
183.7820588784472
 30
0.0
 11
622.77657399709835
 21
183.5820588784469
 31
0.0
  0
LINE
  5
99
  8
0
  6
CONTINUOUS
 62
     7
 10
620.27657399709835
 20
183.782058878447
 30
0.0
 11
622.57657399709854
 21
183.7820588784472
 31
0.0
  0
LINE
  5
9A
  8
0
  6
CONTINUOUS
 62
     7
 10
612.77657399709858
 20
189.0520588784469
 30
0.0
 11
620.27657399709835
 21
189.0520588784469
 31
0.0
  0
LINE
  5
9B
  8
0
  6
CONTINUOUS
 62
     7
 10
612.77657399709858
 20
190.45205887844679
 30
0.0
 11
620.27657399709835
 21
190.45205887844679
 31
0.0
  0
LINE
  5
9C
  8
0
  6
CONTINUOUS
 62
     7
 10
612.77657399709835
 20
183.782058878447
 30
0.0
 11
612.77657399709858
 21
190.45205887844679
 31
0.0
  0
LINE
  5
9D
  8
0
  6
CONTINUOUS
 62
     7
 10
620.27657399709835
 20
183.7820588784472
 30
0.0
 11
620.27657399709835
 21
190.45205887844679
 31
0.0
  0
LINE
  5
9E
  8
0
  6
CONTINUOUS
 62
     7
 10
631.27657399709869
 20
130.4820588784473
 30
0.0
 11
631.27657399709835
 21
170.08205887844679
 31
0.0
  0
LINE
  5
9F
  8
0
  6
CONTINUOUS
 62
     7
 10
630.77657399709869
 20
155.2820588784472
 30
0.0
 11
630.77657399709869
 21
145.2820588784472
 31
0.0
  0
LINE
  5
A0
  8
0
  6
CONTINUOUS
 62
     7
 10
631.07657399709865
 20
130.2820588784472
 30
0.0
 11
631.27657399709869
 21
130.4820588784473
 31
0.0
  0
LINE
  5
A1
  8
0
  6
CONTINUOUS
 62
     7
 10
630.77657399709869
 20
145.2820588784472
 30
0.0
 11
631.27657399709869
 21
144.782058878447
 31
0.0
  0
LINE
  5
A2
  8
0
  6
CONTINUOUS
 62
     7
 10
631.07657399709819
 20
170.2820588784472
 30
0.0
 11
631.27657399709835
 21
170.08205887844679
 31
0.0
  0
LINE
  5
A3
  8
0
  6
CONTINUOUS
 62
     7
 10
630.77657399709869
 20
155.2820588784472
 30
0.0
 11
631.27657399709869
 21
155.7820588784472
 31
0.0
  0
ARC
  5
205
  8
0
  6
CONTINUOUS
 62
     7
 10
362.50729097184382
 20
150.28205887847281
 30
0.0
 40
40.169999999055989
 50
92.408653594778343
 51
130.0
  0
ARC
  5
206
  8
CENTER
  6
CENTER
 62
     1
 10
362.50729097184382
 20
150.28205887847281
 30
0.0
 40
40.424999999999578
 50
45.0
 51
135.0
  0
LINE
  5
207
  8
CENTER
  6
CENTER
 62
     1
 10
362.50729097184382
 20
150.28205887847281
 30
0.0
 11
362.50729097184382
 21
199.8614453036821
 31
0.0
  0
ARC
  5
209
  8
0
  6
CONTINUOUS
 62
     7
 10
362.50729097184382
 20
150.28205887847281
 30
0.0
 40
38.76999999905599
 50
89.638520962653928
 51
90.361479037346058
  0
LINE
  5
20A
  8
0
  6
CONTINUOUS
 62
     7
 10
363.30858546927902
 20
189.40347801007999
 30
0.0
 11
363.61701371732778
 21
190.06490452250139
 31
0.0
  0
LINE
  5
20F
  8
0
  6
CONTINUOUS
 62
     7
 10
361.70599647440849
 20
189.40347801007999
 30
0.0
 11
361.39756822635968
 21
190.06490452250139
 31
0.0
  0
ARC
  5
210
  8
0
  6
CONTINUOUS
 62
     7
 10
362.50729097184382
 20
150.28205887847281
 30
0.0
 40
40.169999999055989
 50
50.0
 51
87.591346405221714
  0
ARC
  5
211
  8
0
  6
CONTINUOUS
 62
     7
 10
360.8447204762673
 20
189.80710738283949
 30
0.0
 40
0.61
 50
25.00000000000307
 51
92.408653594778116
  0
ARC
  5
212
  8
0
  6
CONTINUOUS
 62
     7
 10
364.16986146742022
 20
189.80710738283949
 30
0.0
 40
0.61
 50
87.591346405221884
 51
154.99999999999949
  0
ARC
  5
213
  8
0
  6
CONTINUOUS
 62
     7
 10
362.75573771918658
 20
189.66127514974181
 30
0.0
 40
0.61
 50
269.63852096265299
 51
334.9999999999996
  0
ARC
  5
214
  8
0
  6
CONTINUOUS
 62
     7
 10
362.25884422450088
 20
189.66127514974181
 30
0.0
 40
0.61
 50
204.99999999999821
 51
270.36147903734701
  0
ENDSEC
  0
EOF
