  0
SECTION
  2
HEADER
  9
$ACADVER
  1
AC1009
  9
$INSBASE
 10
0.0
 20
0.0
 30
0.0
  9
$EXTMIN
 10
24.660645537847468
 20
29.855896722357549
 30
-0.0000000000112498
  9
$EXTMAX
 10
88.010559673433477
 20
90.378891442179324
 30
0.0000000000002956
  9
$LIMMIN
 10
0.0
 20
0.0
  9
$LIMMAX
 10
420.0
 20
297.0
  9
$ORTHOMODE
 70
     1
  9
$REGENMODE
 70
     1
  9
$FILLMODE
 70
     1
  9
$QTEXTMODE
 70
     0
  9
$MIRRTEXT
 70
     1
  9
$DRAGMODE
 70
     2
  9
$LTSCALE
 40
0.25
  9
$OSMODE
 70
    37
  9
$ATTMODE
 70
     1
  9
$TEXTSIZE
 40
2.5
  9
$TRACEWID
 40
1.0
  9
$TEXTSTYLE
  7
STANDARD
  9
$CLAYER
  8
0
  9
$CELTYPE
  6
BYLAYER
  9
$CECOLOR
 62
   256
  9
$DIMSCALE
 40
1.0
  9
$DIMASZ
 40
2.5
  9
$DIMEXO
 40
1.0
  9
$DIMDLI
 40
7.0
  9
$DIMRND
 40
0.0
  9
$DIMDLE
 40
0.0
  9
$DIMEXE
 40
0.9999999999999998
  9
$DIMTP
 40
0.0
  9
$DIMTM
 40
0.0
  9
$DIMTXT
 40
2.5
  9
$DIMCEN
 40
0.0
  9
$DIMTSZ
 40
0.0
  9
$DIMTOL
 70
     0
  9
$DIMLIM
 70
     0
  9
$DIMTIH
 70
     0
  9
$DIMTOH
 70
     0
  9
$DIMSE1
 70
     0
  9
$DIMSE2
 70
     0
  9
$DIMTAD
 70
     1
  9
$DIMZIN
 70
     9
  9
$DIMBLK
  1

  9
$DIMASO
 70
     1
  9
$DIMSHO
 70
     1
  9
$DIMPOST
  1

  9
$DIMAPOST
  1

  9
$DIMALT
 70
     0
  9
$DIMALTD
 70
     3
  9
$DIMALTF
 40
0.03937007874016
  9
$DIMLFAC
 40
1.0
  9
$DIMTOFL
 70
     1
  9
$DIMTVP
 40
0.0
  9
$DIMTIX
 70
     0
  9
$DIMSOXD
 70
     0
  9
$DIMSAH
 70
     0
  9
$DIMBLK1
  1

  9
$DIMBLK2
  1

  9
$DIMSTYLE
  2
DIM
  9
$DIMCLRD
 70
     0
  9
$DIMCLRE
 70
     0
  9
$DIMCLRT
 70
     0
  9
$DIMTFAC
 40
1.0
  9
$DIMGAP
 40
1.0
  9
$LUNITS
 70
     2
  9
$LUPREC
 70
     2
  9
$SKETCHINC
 40
1.0
  9
$FILLETRAD
 40
10.0
  9
$AUNITS
 70
     0
  9
$AUPREC
 70
     2
  9
$MENU
  1
.
  9
$ELEVATION
 40
0.0
  9
$PELEVATION
 40
0.0
  9
$THICKNESS
 40
0.0
  9
$LIMCHECK
 70
     0
  9
$BLIPMODE
 70
     0
  9
$CHAMFERA
 40
10.0
  9
$CHAMFERB
 40
10.0
  9
$SKPOLY
 70
     0
  9
$TDCREATE
 40
2452725.7947609141
  9
$TDUPDATE
 40
2452725.8062266661
  9
$TDINDWG
 40
0.0114659375
  9
$TDUSRTIMER
 40
0.0114659375
  9
$USRTIMER
 70
     1
  9
$ANGBASE
 50
0.0
  9
$ANGDIR
 70
     0
  9
$PDMODE
 70
     0
  9
$PDSIZE
 40
0.0
  9
$PLINEWID
 40
0.0
  9
$COORDS
 70
     1
  9
$SPLFRAME
 70
     0
  9
$SPLINETYPE
 70
     6
  9
$SPLINESEGS
 70
     8
  9
$ATTDIA
 70
     0
  9
$ATTREQ
 70
     1
  9
$HANDLING
 70
 10241
  9
$HANDSEED
  5
3C4
  9
$SURFTAB1
 70
     6
  9
$SURFTAB2
 70
     6
  9
$SURFTYPE
 70
     6
  9
$SURFU
 70
     6
  9
$SURFV
 70
     6
  9
$UCSNAME
  2

  9
$UCSORG
 10
0.0
 20
0.0
 30
0.0
  9
$UCSXDIR
 10
1.0
 20
0.0
 30
0.0
  9
$UCSYDIR
 10
0.0
 20
1.0
 30
0.0
  9
$PUCSNAME
  2

  9
$PUCSORG
 10
0.0
 20
0.0
 30
0.0
  9
$PUCSXDIR
 10
1.0
 20
0.0
 30
0.0
  9
$PUCSYDIR
 10
0.0
 20
1.0
 30
0.0
  9
$USERI1
 70
     0
  9
$USERI2
 70
     0
  9
$USERI3
 70
     0
  9
$USERI4
 70
     0
  9
$USERI5
 70
     0
  9
$USERR1
 40
0.0
  9
$USERR2
 40
0.0
  9
$USERR3
 40
0.0
  9
$USERR4
 40
0.0
  9
$USERR5
 40
0.0
  9
$WORLDVIEW
 70
     1
  9
$SHADEDGE
 70
     3
  9
$SHADEDIF
 70
    70
  9
$TILEMODE
 70
     1
  9
$MAXACTVP
 70
    64
  9
$PLIMCHECK
 70
     0
  9
$PEXTMIN
 10
1.0000000000000000E+020
 20
1.0000000000000000E+020
 30
1.0000000000000000E+020
  9
$PEXTMAX
 10
-1.0000000000000000E+020
 20
-1.0000000000000000E+020
 30
-1.0000000000000000E+020
  9
$PLIMMIN
 10
0.0
 20
0.0
  9
$PLIMMAX
 10
420.0
 20
297.0
  9
$UNITMODE
 70
     0
  9
$VISRETAIN
 70
     1
  9
$PLINEGEN
 70
     0
  9
$PSLTSCALE
 70
     1
  0
ENDSEC
  0
SECTION
  2
TABLES
  0
TABLE
  2
VPORT
 70
    31
  0
VPORT
  2
*ACTIVE
 70
     0
 10
0.0
 20
0.0
 11
1.0
 21
1.0
 12
56.335602605640481
 22
60.11739408226844
 13
0.0
 23
0.0
 14
10.0
 24
10.0
 15
10.0
 25
10.0
 16
0.0
 26
0.0
 36
1.0
 17
0.0
 27
0.0
 37
0.0
 40
61.322858086163052
 41
2.1280353200883
 42
50.0
 43
0.0
 44
0.0
 50
0.0
 51
0.0
 71
     0
 72
   100
 73
     1
 74
     3
 75
     0
 76
     0
 77
     0
 78
     0
  0
ENDTAB
  0
TABLE
  2
LTYPE
 70
     6
  0
LTYPE
  2
CONTINUOUS
 70
     0
  3
Solid line
 72
    65
 73
     0
 40
0.0
  0
LTYPE
  2
CENTER
 70
     0
  3
Center ____ _ ____ _ ____ _ ____ _ ____ _ ____
 72
    65
 73
     4
 40
50.799999999999997
 49
31.75
 49
-6.3499999999999988
 49
6.3499999999999988
 49
-6.3499999999999988
  0
ENDTAB
  0
TABLE
  2
LAYER
 70
     6
  0
LAYER
  2
0
 70
     0
 62
     7
  6
CONTINUOUS
  0
LAYER
  2
CENTER
 70
     0
 62
     1
  6
CONTINUOUS
  0
ENDTAB
  0
TABLE
  2
STYLE
 70
     2
  0
STYLE
  2
STANDARD
 70
     0
 40
0.0
 41
1.0
 50
0.0
 71
     0
 42
2.5
  3
txt.shx
  4
bigfont.shx
  0
ENDTAB
  0
TABLE
  2
VIEW
 70
     0
  0
ENDTAB
  0
TABLE
  2
UCS
 70
     0
  0
ENDTAB
  0
TABLE
  2
APPID
 70
     1
  0
APPID
  2
ACAD
 70
     0
  0
ENDTAB
  0
TABLE
  2
DIMSTYLE
 70
     2
  0
DIMSTYLE
  2
DIM
 70
     0
  3

  4

  5

  6

  7

 40
1.0
 41
2.5
 42
1.0
 43
7.0
 44
0.9999999999999998
 45
0.0
 46
0.0
 47
0.0
 48
0.0
140
2.5
141
0.0
142
0.0
143
0.03937007874016
144
1.0
145
0.0
146
1.0
147
1.0
 71
     0
 72
     0
 73
     0
 74
     0
 75
     0
 76
     0
 77
     1
 78
     9
170
     0
171
     3
172
     1
173
     0
174
     0
175
     0
176
     0
177
     0
178
     0
  0
DIMSTYLE
  2
STANDARD
 70
     0
  3

  4

  5

  6

  7

 40
1.0
 41
0.18
 42
0.0625
 43
0.38
 44
0.18
 45
0.0
 46
0.0
 47
0.0
 48
0.0
140
0.18
141
0.09
142
0.0
143
25.399999999999999
144
1.0
145
0.0
146
1.0
147
0.09
 71
     0
 72
     0
 73
     1
 74
     1
 75
     0
 76
     0
 77
     0
 78
     0
170
     0
171
     2
172
     0
173
     0
174
     0
175
     0
176
     0
177
     0
178
     0
  0
ENDTAB
  0
ENDSEC
  0
SECTION
  2
BLOCKS
  0
BLOCK
  8
0
  2
$MODEL_SPACE
 70
     0
 10
0.0
 20
0.0
 30
0.0
  3
$MODEL_SPACE
  1

  0
ENDBLK
  5
21
  8
0
  0
BLOCK
 67
     1
  8
0
  2
$PAPER_SPACE
 70
     0
 10
0.0
 20
0.0
 30
0.0
  3
$PAPER_SPACE
  1

  0
ENDBLK
  5
1D
 67
     1
  8
0
  0
ENDSEC
  0
SECTION
  2
ENTITIES
  0
TEXT
  5
131
  8
0
 10
24.674578296411461
 20
29.870693656664589
 30
0.0
 40
3.0
  1
QNSFC4
 11
24.674578296411461
 21
29.47069365666459
 31
0.0
 73
     1
  0
TEXT
  5
135
  8
0
 10
24.674578296411461
 20
37.467041436827699
 30
0.0
 40
3.0
  1
QNSFC4
 11
24.674578296411461
 21
37.067041436827701
 31
0.0
 73
     1
  0
LINE
  5
319
  8
0
 10
84.304430402155049
 20
82.152828035585458
 30
0.0
 11
68.503914032155066
 21
81.659061575585469
 31
0.0
  0
LINE
  5
31A
  8
0
 62
     3
 10
85.503914032155066
 20
83.352311655585439
 30
0.0
 11
70.63162507215506
 21
82.887496115585463
 31
0.0
  0
LINE
  5
31C
  8
0
 10
84.06448870215506
 20
89.617969465585446
 30
0.0
 11
70.721651522155071
 21
89.617969465585446
 31
0.0
  0
LINE
  5
31D
  8
0
 10
84.06448870215506
 20
56.131653845585461
 30
0.0
 11
70.721651522155071
 21
56.131653845585461
 31
0.0
  0
LINE
  5
31E
  8
0
 10
84.06448870215506
 20
64.503232755585444
 30
0.0
 11
70.721651522155071
 21
64.503232755585444
 31
0.0
  0
LINE
  5
31F
  8
CENTER
  6
CENTER
 10
41.003914032155059
 20
72.874811655585461
 30
0.0
 11
88.003914032155066
 21
72.874811655585461
 31
0.0
  0
LINE
  5
320
  8
0
 10
43.503914032155059
 20
72.874811655585461
 30
0.0
 11
43.503914032155059
 21
60.074811655585457
 31
0.0
  0
LINE
  5
321
  8
0
 10
63.114574202155062
 20
55.974811655585462
 30
0.0
 11
63.114574202155062
 21
72.874811655585461
 31
0.0
  0
LINE
  5
322
  8
0
 10
44.614574202155062
 20
55.974811655585462
 30
0.0
 11
44.614574202155062
 21
72.874811655585461
 31
0.0
  0
LINE
  5
323
  8
0
 10
55.51457420215506
 20
55.374811655585461
 30
0.0
 11
55.51457420215506
 21
72.874811655585461
 31
0.0
  0
LINE
  5
324
  8
0
 10
48.214574202155063
 20
55.374811655585461
 30
0.0
 11
48.214574202155063
 21
72.874811655585461
 31
0.0
  0
LINE
  5
325
  8
0
 10
56.114574202155062
 20
72.874811655585461
 30
0.0
 11
56.114574202155062
 21
55.974811655585462
 31
0.0
  0
LINE
  5
326
  8
0
 10
63.614574202155062
 20
72.874811655585461
 30
0.0
 11
63.614574202155062
 21
56.474811655585462
 31
0.0
  0
LINE
  5
327
  8
0
 10
47.614574202155048
 20
72.874811655585461
 30
0.0
 11
47.614574202155048
 21
55.974811655585462
 31
0.0
  0
LINE
  5
328
  8
0
 10
43.614574202155062
 20
72.874811655585461
 30
0.0
 11
43.614574202155062
 21
56.974811655585462
 31
0.0
  0
LINE
  5
329
  8
0
 10
49.364573902155058
 20
55.374811655585461
 30
0.0
 11
55.51457420215506
 21
61.52481195558547
 31
0.0
  0
LINE
  5
32A
  8
0
 10
48.657466352155062
 20
55.374811655585461
 30
0.0
 11
55.51457420215506
 21
62.231919505585459
 31
0.0
  0
LINE
  5
32B
  8
0
 10
48.214574202155063
 20
55.639027045585472
 30
0.0
 11
54.950358812155059
 21
62.374811655585461
 31
0.0
  0
LINE
  5
32C
  8
0
 10
50.071681442155068
 20
55.374811655585461
 30
0.0
 11
55.51457420215506
 21
60.81770441558546
 31
0.0
  0
LINE
  5
32D
  8
0
 10
50.778788982155078
 20
55.374811655585461
 30
0.0
 11
55.51457420215506
 21
60.110596875585458
 31
0.0
  0
LINE
  5
32E
  8
0
 10
51.48589653215506
 20
55.374811655585461
 30
0.0
 11
55.51457420215506
 21
59.403489325585461
 31
0.0
  0
LINE
  5
32F
  8
0
 10
52.193004072155063
 20
55.374811655585461
 30
0.0
 11
55.51457420215506
 21
58.696381785585451
 31
0.0
  0
LINE
  5
330
  8
0
 10
52.900111622155059
 20
55.374811655585461
 30
0.0
 11
55.51457420215506
 21
57.989274235585462
 31
0.0
  0
LINE
  5
331
  8
0
 10
53.607219162155062
 20
55.374811655585461
 30
0.0
 11
55.51457420215506
 21
57.282166695585467
 31
0.0
  0
LINE
  5
332
  8
0
 10
54.314326702155071
 20
55.374811655585461
 30
0.0
 11
55.51457420215506
 21
56.575059155585457
 31
0.0
  0
LINE
  5
333
  8
0
 10
48.364574492155057
 20
62.374811655585461
 30
0.0
 11
55.364574492155072
 21
55.374811655585461
 31
0.0
  0
LINE
  5
334
  8
0
 10
49.071682042155061
 20
62.374811655585461
 30
0.0
 11
55.51457420215506
 21
55.931919495585461
 31
0.0
  0
LINE
  5
335
  8
0
 10
49.778789582155071
 20
62.374811655585461
 30
0.0
 11
55.51457420215506
 21
56.63902703558545
 31
0.0
  0
LINE
  5
336
  8
0
 10
50.485897122155059
 20
62.374811655585461
 30
0.0
 11
55.51457420215506
 21
57.346134575585459
 31
0.0
  0
LINE
  5
337
  8
0
 10
51.193004672155062
 20
62.374811655585461
 30
0.0
 11
55.51457420215506
 21
58.053242125585463
 31
0.0
  0
LINE
  5
338
  8
0
 10
51.900112212155058
 20
62.374811655585461
 30
0.0
 11
55.51457420215506
 21
58.760349665585451
 31
0.0
  0
LINE
  5
339
  8
0
 10
52.607219752155061
 20
62.374811655585461
 30
0.0
 11
55.51457420215506
 21
59.467457205585461
 31
0.0
  0
LINE
  5
33A
  8
0
 10
53.314327302155071
 20
62.374811655585461
 30
0.0
 11
55.51457420215506
 21
60.174564755585457
 31
0.0
  0
LINE
  5
33B
  8
0
 10
54.021434842155067
 20
62.374811655585461
 30
0.0
 11
55.51457420215506
 21
60.88167229558546
 31
0.0
  0
LINE
  5
33C
  8
0
 10
54.728542392155063
 20
62.374811655585461
 30
0.0
 11
55.51457420215506
 21
61.588779845585471
 31
0.0
  0
LINE
  5
33D
  8
0
 10
48.214574202155063
 20
55.374811655585461
 30
0.0
 11
55.51457420215506
 21
55.374811655585461
 31
0.0
  0
LINE
  5
33E
  8
0
 10
48.214574202155063
 20
56.346134595585461
 30
0.0
 11
54.243251262155063
 21
62.374811655585461
 31
0.0
  0
LINE
  5
33F
  8
0
 10
48.214574202155063
 20
57.053242135585457
 30
0.0
 11
53.536143722155067
 21
62.374811655585461
 31
0.0
  0
LINE
  5
340
  8
0
 10
48.214574202155063
 20
57.760349675585459
 30
0.0
 11
52.829036182155058
 21
62.374811655585461
 31
0.0
  0
LINE
  5
341
  8
0
 10
48.214574202155063
 20
61.817704405585459
 30
0.0
 11
54.657466952155062
 21
55.374811655585461
 31
0.0
  0
LINE
  5
342
  8
0
 10
48.214574202155063
 20
61.110596855585463
 30
0.0
 11
53.950359402155058
 21
55.374811655585461
 31
0.0
  0
LINE
  5
343
  8
0
 10
48.214574202155063
 20
60.40348931558546
 30
0.0
 11
53.243251862155063
 21
55.374811655585461
 31
0.0
  0
LINE
  5
344
  8
0
 10
48.214574202155063
 20
59.696381775585472
 30
0.0
 11
52.53614432215506
 21
55.374811655585461
 31
0.0
  0
LINE
  5
345
  8
0
 10
48.214574202155063
 20
58.989274225585461
 30
0.0
 11
51.829036772155057
 21
55.374811655585461
 31
0.0
  0
LINE
  5
346
  8
0
 10
48.214574202155063
 20
58.282166685585473
 30
0.0
 11
51.121929232155068
 21
55.374811655585461
 31
0.0
  0
LINE
  5
347
  8
0
 10
47.614574202155048
 20
55.974811655585462
 30
0.0
 11
44.614574202155062
 21
55.974811655585462
 31
0.0
  0
LINE
  5
348
  8
0
 10
43.614574202155062
 20
56.974811655585462
 30
0.0
 11
44.614574202155062
 21
55.974811655585462
 31
0.0
  0
LINE
  5
349
  8
0
 10
48.214574202155063
 20
57.575059135585462
 30
0.0
 11
50.414821682155072
 21
55.374811655585461
 31
0.0
  0
LINE
  5
34A
  8
0
 10
47.614574202155048
 20
55.974811655585462
 30
0.0
 11
48.214574202155063
 21
55.374811655585461
 31
0.0
  0
LINE
  5
34B
  8
0
 10
48.214574202155063
 20
56.86795159558546
 30
0.0
 11
49.707714142155062
 21
55.374811655585461
 31
0.0
  0
LINE
  5
34C
  8
0
 10
48.214574202155063
 20
56.16084405558545
 30
0.0
 11
49.000606602155059
 21
55.374811655585461
 31
0.0
  0
LINE
  5
34D
  8
0
 10
48.214574202155063
 20
55.453736505585461
 30
0.0
 11
48.293499052155063
 21
55.374811655585461
 31
0.0
  0
LINE
  5
34E
  8
0
 10
43.503914032155059
 20
60.074811655585457
 30
0.0
 11
43.614574202155062
 21
59.964151485585461
 31
0.0
  0
LINE
  5
34F
  8
0
 10
48.214574202155063
 20
58.467457225585477
 30
0.0
 11
52.121928632155068
 21
62.374811655585461
 31
0.0
  0
LINE
  5
350
  8
0
 10
48.214574202155063
 20
59.174564765585458
 30
0.0
 11
51.414821092155059
 21
62.374811655585461
 31
0.0
  0
LINE
  5
351
  8
0
 10
48.214574202155063
 20
59.881672315585462
 30
0.0
 11
50.707713542155062
 21
62.374811655585461
 31
0.0
  0
LINE
  5
352
  8
0
 10
48.214574202155063
 20
60.58877985558545
 30
0.0
 11
50.000606002155067
 21
62.374811655585461
 31
0.0
  0
LINE
  5
353
  8
0
 10
48.214574202155063
 20
61.295887395585453
 30
0.0
 11
49.293498462155057
 21
62.374811655585461
 31
0.0
  0
LINE
  5
354
  8
0
 10
48.214574202155063
 20
62.002994945585463
 30
0.0
 11
48.586390912155068
 21
62.374811655585461
 31
0.0
  0
LINE
  5
355
  8
0
 10
70.003914032155066
 20
57.578830515585459
 30
0.0
 11
63.614574202155062
 21
57.578830515585459
 31
0.0
  0
LINE
  5
356
  8
0
 10
63.614574202155062
 20
57.374811655585461
 30
0.0
 11
70.003914032155066
 21
57.374811655585461
 31
0.0
  0
LINE
  5
357
  8
0
 10
56.114574202155062
 20
55.974811655585462
 30
0.0
 11
63.114574202155062
 21
55.974811655585462
 31
0.0
  0
LINE
  5
358
  8
0
 10
55.021434252155068
 20
55.374811655585461
 30
0.0
 11
55.51457420215506
 21
55.867951605585461
 31
0.0
  0
LINE
  5
359
  8
0
 10
56.114574202155062
 20
55.974811655585462
 30
0.0
 11
55.51457420215506
 21
55.374811655585461
 31
0.0
  0
LINE
  5
35A
  8
0
 10
63.614574202155062
 20
56.474811655585462
 30
0.0
 11
63.114574202155062
 21
55.974811655585462
 31
0.0
  0
LINE
  5
35B
  8
0
 10
70.003914032155066
 20
57.578830515585459
 30
0.0
 11
70.003914032155066
 21
57.374811655585461
 31
0.0
  0
LINE
  5
35C
  8
0
 10
70.003914032155066
 20
57.374811655585461
 30
0.0
 11
70.721651522155071
 21
56.131653845585461
 31
0.0
  0
ARC
  5
35D
  8
0
 10
71.821756502155068
 20
57.578830515585459
 30
0.0
 40
1.817842479999999
 50
180.0
 51
187.24112545999989
  0
LINE
  5
35E
  8
0
 10
70.003914032155066
 20
63.05605608558546
 30
0.0
 11
63.614574202155062
 21
63.05605608558546
 31
0.0
  0
LINE
  5
35F
  8
0
 10
70.003914032155066
 20
67.397586075585465
 30
0.0
 11
63.614574202155062
 21
67.397586075585465
 31
0.0
  0
LINE
  5
360
  8
0
 10
55.435649932155059
 20
62.374811655585461
 30
0.0
 11
55.51457420215506
 21
62.295887385585459
 31
0.0
  0
LINE
  5
361
  8
0
 10
70.003914032155066
 20
67.397586075585465
 30
0.0
 11
70.003914032155066
 21
63.05605608558546
 31
0.0
  0
ARC
  5
362
  8
0
 10
71.821756502155068
 20
63.05605608558546
 30
0.0
 40
1.817842479999999
 50
127.24112545999979
 51
180.0
  0
ARC
  5
363
  8
0
 10
76.198677692155059
 20
67.397586075585465
 30
0.0
 40
6.1947636599999987
 50
180.0
 51
207.85436653000011
  0
LINE
  5
364
  8
0
 10
59.503914032155059
 20
82.974811655585455
 30
0.0
 11
52.238192442155068
 21
82.974811655585455
 31
0.0
  0
LINE
  5
365
  8
0
 10
62.103914032155068
 20
86.174811655585458
 30
0.0
 11
46.503914032155073
 21
86.174811655585458
 31
0.0
  0
LINE
  5
366
  8
CENTER
  6
CENTER
 10
50.414574202155073
 20
86.924811655585444
 30
0.0
 11
63.503914032155073
 21
86.924811655585444
 31
0.0
  0
LINE
  5
367
  8
0
 10
52.114574202155062
 20
87.624811655585447
 30
0.0
 11
61.803914032155078
 21
87.624811655585447
 31
0.0
  0
LINE
  5
368
  8
0
 10
52.114574202155062
 20
86.224811655585455
 30
0.0
 11
61.803914032155078
 21
86.224811655585455
 31
0.0
  0
LINE
  5
369
  8
0
 10
51.814574202155057
 20
88.474811655585455
 30
0.0
 11
63.414574202155059
 21
88.474811655585455
 31
0.0
  0
LINE
  5
36A
  8
0
 10
48.214574202155063
 20
90.374811655585461
 30
0.0
 11
55.51457420215506
 21
90.374811655585461
 31
0.0
  0
LINE
  5
36B
  8
0
 10
44.503914032155059
 20
82.974811655585455
 30
0.0
 11
44.503914032155059
 21
72.874811655585461
 31
0.0
  0
LINE
  5
36C
  8
0
 10
43.503914032155059
 20
85.674811655585444
 30
0.0
 11
43.503914032155059
 21
72.874811655585461
 31
0.0
  0
LINE
  5
36D
  8
CENTER
  6
CENTER
 10
50.003914032155059
 20
87.424811655585458
 30
0.0
 11
50.003914032155059
 21
80.164811655585453
 31
0.0
  0
CIRCLE
  5
36E
  8
0
 10
50.003914032155059
 20
83.794811655585434
 30
0.0
 40
2.379999999999999
  0
LINE
  5
36F
  8
0
 10
47.769635622155057
 20
82.974811655585455
 30
0.0
 11
44.503914032155059
 21
82.974811655585455
 31
0.0
  0
LINE
  5
370
  8
0
 10
44.903914032155072
 20
85.424811655585458
 30
0.0
 11
46.503914032155073
 21
85.424811655585458
 31
0.0
  0
LINE
  5
371
  8
0
 10
45.01457420215506
 20
87.874811655585461
 30
0.0
 11
46.614574202155062
 21
86.274811655585466
 31
0.0
  0
LINE
  5
372
  8
0
 10
47.614574202155048
 20
89.774811655585466
 30
0.0
 11
44.614574202155062
 21
89.774811655585466
 31
0.0
  0
CIRCLE
  5
373
  8
0
 10
45.653914032155058
 20
86.174811655585458
 30
0.0
 40
0.75
  0
LINE
  5
374
  8
0
 10
43.614574202155062
 20
85.785471825585461
 30
0.0
 11
43.614574202155062
 21
88.774811655585466
 31
0.0
  0
LINE
  5
375
  8
0
 10
43.503914032155059
 20
83.974811655585455
 30
0.0
 11
44.503914032155059
 21
82.974811655585455
 31
0.0
  0
LINE
  5
376
  8
0
 10
44.903914032155072
 20
85.424811655585458
 30
0.0
 11
44.903914032155072
 21
86.174811655585458
 31
0.0
  0
LINE
  5
377
  8
0
 10
43.503914032155059
 20
85.674811655585444
 30
0.0
 11
44.003914032155073
 21
86.174811655585458
 31
0.0
  0
LINE
  5
378
  8
0
 10
44.903914032155072
 20
86.174811655585458
 30
0.0
 11
44.003914032155073
 21
86.174811655585458
 31
0.0
  0
LINE
  5
379
  8
0
 10
43.614574202155062
 20
87.874811655585461
 30
0.0
 11
45.01457420215506
 21
87.874811655585461
 31
0.0
  0
LINE
  5
37A
  8
0
 10
45.01457420215506
 20
86.566914425585466
 30
0.0
 11
45.01457420215506
 21
87.874811655585461
 31
0.0
  0
LINE
  5
37B
  8
0
 10
43.614574202155062
 20
88.774811655585466
 30
0.0
 11
44.614574202155062
 21
89.774811655585466
 31
0.0
  0
ARC
  5
37C
  8
0
 10
51.814574202155057
 20
88.074811655585449
 30
0.0
 40
0.4
 50
90.0
 51
180.0
  0
LINE
  5
37D
  8
0
 10
46.614574202155062
 20
86.274811655585466
 30
0.0
 11
51.214574202155063
 21
86.274811655585466
 31
0.0
  0
LINE
  5
37E
  8
CENTER
  6
CENTER
 10
46.373914032155056
 20
83.794811655585434
 30
0.0
 11
53.633914032155062
 21
83.794811655585434
 31
0.0
  0
LINE
  5
37F
  8
0
 10
47.167540482155061
 20
86.174811655585458
 30
0.0
 11
47.731786822155058
 21
82.974811655585455
 31
0.0
  0
LINE
  5
380
  8
0
 10
46.503914032155073
 20
85.424811655585458
 30
0.0
 11
46.503914032155073
 21
86.174811655585458
 31
0.0
  0
LINE
  5
381
  8
0
 10
46.403914032155058
 20
86.174811655585458
 30
0.0
 11
46.403914032155058
 21
85.424811655585458
 31
0.0
  0
LINE
  5
382
  8
0
 10
46.614574202155062
 20
86.274811655585466
 30
0.0
 11
46.614574202155062
 21
86.174811655585458
 31
0.0
  0
LINE
  5
383
  8
0
 10
52.840287582155071
 20
86.174811655585458
 30
0.0
 11
52.27604124215506
 21
82.974811655585455
 31
0.0
  0
CIRCLE
  5
384
  8
0
 10
52.114574202155062
 20
86.924811655585444
 30
0.0
 40
0.7
  0
LINE
  5
385
  8
0
 10
51.214574202155063
 20
86.274811655585466
 30
0.0
 11
51.214574202155063
 21
86.174811655585458
 31
0.0
  0
LINE
  5
386
  8
0
 10
51.414574202155059
 20
86.474811655585455
 30
0.0
 11
51.214574202155063
 21
86.274811655585466
 31
0.0
  0
LINE
  5
387
  8
0
 10
51.414574202155059
 20
88.074811655585449
 30
0.0
 11
51.414574202155059
 21
86.174811655585458
 31
0.0
  0
LINE
  5
388
  8
0
 10
52.814574202155057
 20
86.924811655585444
 30
0.0
 11
52.814574202155057
 21
86.174811655585458
 31
0.0
  0
LINE
  5
389
  8
0
 10
47.614574202155048
 20
89.774811655585466
 30
0.0
 11
48.214574202155063
 21
90.374811655585461
 31
0.0
  0
LINE
  5
38A
  8
0
 62
     3
 10
64.91413877215507
 20
82.035036375585449
 30
0.0
 11
66.473689972155043
 21
83.594587575585464
 31
0.0
  0
LINE
  5
38B
  8
0
 62
     3
 10
68.503914032155066
 20
81.659061575585469
 30
0.0
 11
70.63162507215506
 21
82.887496115585463
 31
0.0
  0
LINE
  5
38C
  8
0
 10
70.63162507215506
 20
82.887496115585463
 30
0.0
 11
70.63162507215506
 21
72.874811655585461
 31
0.0
  0
LINE
  5
38D
  8
0
 10
67.703914032155069
 20
82.424811655585458
 30
0.0
 11
67.703914032155069
 21
72.874811655585461
 31
0.0
  0
LINE
  5
38E
  8
0
 10
62.80391403215507
 20
72.874811655585461
 30
0.0
 11
62.80391403215507
 21
82.424811655585458
 31
0.0
  0
LINE
  5
38F
  8
0
 10
66.503914032155066
 20
72.874811655585461
 30
0.0
 11
66.503914032155066
 21
84.624811655585461
 31
0.0
  0
LINE
  5
390
  8
0
 10
63.503914032155073
 20
72.874811655585461
 30
0.0
 11
63.503914032155073
 21
84.624811655585461
 31
0.0
  0
LINE
  5
391
  8
0
 10
59.503914032155059
 20
72.874811655585461
 30
0.0
 11
59.503914032155059
 21
82.974811655585455
 31
0.0
  0
LINE
  5
392
  8
0
 10
63.883914032155062
 20
83.314811655585459
 30
0.0
 11
63.883914032155062
 21
72.874811655585461
 31
0.0
  0
CIRCLE
  5
393
  8
0
 10
65.193914032155064
 20
83.314811655585459
 30
0.0
 40
1.3100000000000001
  0
LINE
  5
394
  8
0
 10
68.503914032155066
 20
72.874811655585461
 30
0.0
 11
68.503914032155066
 21
81.659061575585469
 31
0.0
  0
LINE
  5
395
  8
0
 10
67.703914032155069
 20
80.874811655585461
 30
0.0
 11
68.503914032155066
 21
80.874811655585461
 31
0.0
  0
LINE
  5
396
  8
0
 62
     3
 10
64.083946672155065
 20
82.619059355585463
 30
0.0
 11
65.889666992155071
 21
84.424779685585463
 31
0.0
  0
LINE
  5
397
  8
0
 62
     3
 10
63.89588687215506
 20
83.138107095585468
 30
0.0
 11
65.370619252155066
 21
84.612839485585454
 31
0.0
  0
LINE
  5
398
  8
0
 62
     3
 10
64.130498772155065
 20
84.079826545585433
 30
0.0
 11
64.428899812155066
 21
84.378227585585464
 31
0.0
  0
LINE
  5
399
  8
0
 10
63.503914032155073
 20
84.624811655585461
 30
0.0
 11
66.503914032155066
 21
84.624811655585461
 31
0.0
  0
LINE
  5
39A
  8
0
 10
62.503914032155059
 20
88.374811655585461
 30
0.0
 11
70.003914032155066
 21
88.374811655585461
 31
0.0
  0
LINE
  5
39B
  8
0
 10
62.503914032155059
 20
86.574811655585464
 30
0.0
 11
62.503914032155059
 21
88.374811655585461
 31
0.0
  0
LINE
  5
39C
  8
0
 10
59.503914032155059
 20
82.974811655585455
 30
0.0
 11
62.80391403215507
 21
82.424811655585458
 31
0.0
  0
LINE
  5
39D
  8
0
 10
63.003914032155059
 20
82.424811655585458
 30
0.0
 11
62.80391403215507
 21
82.424811655585458
 31
0.0
  0
ARC
  5
39E
  8
0
 10
63.003914032155059
 20
82.924811655585458
 30
0.0
 40
0.5
 50
270.0
 51
0.0
  0
CIRCLE
  5
39F
  8
0
 10
61.803914032155078
 20
86.924811655585444
 30
0.0
 40
0.7
  0
LINE
  5
3A0
  8
0
 10
61.10391403215506
 20
86.924811655585444
 30
0.0
 11
61.10391403215506
 21
86.174811655585458
 31
0.0
  0
ARC
  5
3A1
  8
0
 10
62.103914032155068
 20
86.574811655585464
 30
0.0
 40
0.4
 50
270.0
 51
0.0
  0
LINE
  5
3A2
  8
0
 10
56.114574202155062
 20
89.774811655585466
 30
0.0
 11
63.114574202155062
 21
89.774811655585466
 31
0.0
  0
LINE
  5
3A3
  8
0
 10
56.114574202155062
 20
89.774811655585466
 30
0.0
 11
55.51457420215506
 21
90.374811655585461
 31
0.0
  0
LINE
  5
3A4
  8
0
 10
63.414574202155059
 20
88.474811655585455
 30
0.0
 11
63.414574202155059
 21
88.374811655585461
 31
0.0
  0
LINE
  5
3A5
  8
0
 10
63.614574202155062
 20
88.674811655585458
 30
0.0
 11
63.414574202155059
 21
88.474811655585455
 31
0.0
  0
LINE
  5
3A6
  8
0
 10
63.614574202155062
 20
89.274811655585438
 30
0.0
 11
63.614574202155062
 21
88.374811655585461
 31
0.0
  0
LINE
  5
3A7
  8
0
 10
63.614574202155062
 20
89.274811655585438
 30
0.0
 11
63.114574202155062
 21
89.774811655585466
 31
0.0
  0
ARC
  5
3A8
  8
0
 10
67.003914032155066
 20
82.924811655585458
 30
0.0
 40
0.5
 50
180.0
 51
270.0
  0
LINE
  5
3A9
  8
0
 62
     3
 10
64.425700282155063
 20
82.253705425585451
 30
0.0
 11
66.255020922155069
 21
84.083026065585457
 31
0.0
  0
LINE
  5
3AA
  8
0
 62
     3
 10
65.687612712155072
 20
82.101402765585448
 30
0.0
 11
66.407323592155066
 21
82.821113645585456
 31
0.0
  0
LINE
  5
3AB
  8
0
 10
67.003914032155066
 20
82.424811655585458
 30
0.0
 11
67.703914032155069
 21
82.424811655585458
 31
0.0
  0
LINE
  5
3AC
  8
0
 10
70.003914032155066
 20
88.374811655585461
 30
0.0
 11
70.721651522155071
 21
89.617969465585446
 31
0.0
  0
LINE
  5
3AD
  8
0
 10
85.503914032155066
 20
72.874811655585461
 30
0.0
 11
85.503914032155066
 21
58.624811655585461
 31
0.0
  0
ARC
  5
3AE
  8
0
 10
57.654664222155063
 20
72.874811655585461
 30
0.0
 40
27.704912239999999
 50
342.41204622999959
 51
0.0
  0
LINE
  5
3AF
  8
0
 10
85.503914032155066
 20
58.624811655585461
 30
0.0
 11
84.06448870215506
 21
56.131653845585461
 31
0.0
  0
ARC
  5
3B0
  8
0
 10
77.947690492155061
 20
60.317443305585449
 30
0.0
 40
7.4118859700000002
 50
334.38424746999988
 51
34.384247469999679
  0
LINE
  5
3B1
  8
0
 10
84.304430402155049
 20
82.152828035585458
 30
0.0
 11
84.304430402155049
 21
72.874811655585461
 31
0.0
  0
LINE
  5
3B2
  8
0
 10
85.503914032155066
 20
72.874811655585461
 30
0.0
 11
85.503914032155066
 21
87.124811655585461
 31
0.0
  0
LINE
  5
3B3
  8
0
 10
85.503914032155066
 20
87.124811655585461
 30
0.0
 11
84.06448870215506
 21
89.617969465585446
 31
0.0
  0
LINE
  5
3B4
  8
0
 10
85.503914032155066
 20
83.352311655585439
 30
0.0
 11
84.304430402155049
 21
82.152828035585458
 31
0.0
  0
ENDSEC
  0
EOF
