  0
SECTION
  2
HEADER
  9
$ACADVER
  1
AC1009
  9
$INSBASE
 10
0.0
 20
0.0
 30
0.0
  9
$EXTMIN
 10
10.0
 20
9.9999999999999982
 30
0.0
  9
$EXTMAX
 10
157.18560660813151
 20
121.8735379434662
 30
0.0
  9
$LIMMIN
 10
0.0
 20
0.0
  9
$LIMMAX
 10
420.0
 20
297.0
  9
$ORTHOMODE
 70
     1
  9
$REGENMODE
 70
     1
  9
$FILLMODE
 70
     1
  9
$QTEXTMODE
 70
     0
  9
$MIRRTEXT
 70
     1
  9
$DRAGMODE
 70
     2
  9
$LTSCALE
 40
1.0
  9
$OSMODE
 70
   691
  9
$ATTMODE
 70
     1
  9
$TEXTSIZE
 40
4.0
  9
$TRACEWID
 40
1.0
  9
$TEXTSTYLE
  7
STANDARD
  9
$CLAYER
  8
0
  9
$CELTYPE
  6
CONTINUOUS
  9
$CECOLOR
 62
     7
  9
$DIMSCALE
 40
1.0
  9
$DIMASZ
 40
3.0
  9
$DIMEXO
 40
1.0
  9
$DIMDLI
 40
0.0
  9
$DIMRND
 40
0.0
  9
$DIMDLE
 40
0.0
  9
$DIMEXE
 40
1.0
  9
$DIMTP
 40
0.0
  9
$DIMTM
 40
0.0
  9
$DIMTXT
 40
3.2000000000000002
  9
$DIMCEN
 40
0.0
  9
$DIMTSZ
 40
0.0
  9
$DIMTOL
 70
     0
  9
$DIMLIM
 70
     0
  9
$DIMTIH
 70
     0
  9
$DIMTOH
 70
     0
  9
$DIMSE1
 70
     0
  9
$DIMSE2
 70
     0
  9
$DIMTAD
 70
     1
  9
$DIMZIN
 70
     8
  9
$DIMBLK
  1

  9
$DIMASO
 70
     1
  9
$DIMSHO
 70
     1
  9
$DIMPOST
  1

  9
$DIMAPOST
  1

  9
$DIMALT
 70
     0
  9
$DIMALTD
 70
     2
  9
$DIMALTF
 40
0.04
  9
$DIMLFAC
 40
1.0
  9
$DIMTOFL
 70
     1
  9
$DIMTVP
 40
1.0
  9
$DIMTIX
 70
     1
  9
$DIMSOXD
 70
     0
  9
$DIMSAH
 70
     0
  9
$DIMBLK1
  1

  9
$DIMBLK2
  1

  9
$DIMSTYLE
  2
MISUMI
  9
$DIMCLRD
 70
     0
  9
$DIMCLRE
 70
     0
  9
$DIMCLRT
 70
     0
  9
$DIMTFAC
 40
0.6
  9
$DIMGAP
 40
1.0
  9
$LUNITS
 70
     2
  9
$LUPREC
 70
     2
  9
$SKETCHINC
 40
1.0
  9
$FILLETRAD
 40
1.6000000000000001
  9
$AUNITS
 70
     0
  9
$AUPREC
 70
     0
  9
$MENU
  1
acad
  9
$ELEVATION
 40
0.0
  9
$PELEVATION
 40
0.0
  9
$THICKNESS
 40
0.0
  9
$LIMCHECK
 70
     0
  9
$BLIPMODE
 70
     0
  9
$CHAMFERA
 40
0.0
  9
$CHAMFERB
 40
0.0
  9
$SKPOLY
 70
     0
  9
$TDCREATE
 40
2451466.9030303252
  9
$TDUPDATE
 40
2454512.7723194328
  9
$TDINDWG
 40
0.0242125231
  9
$TDUSRTIMER
 40
0.0242116088
  9
$USRTIMER
 70
     1
  9
$ANGBASE
 50
0.0
  9
$ANGDIR
 70
     0
  9
$PDMODE
 70
     1
  9
$PDSIZE
 40
0.0
  9
$PLINEWID
 40
0.0
  9
$COORDS
 70
     1
  9
$SPLFRAME
 70
     0
  9
$SPLINETYPE
 70
     6
  9
$SPLINESEGS
 70
     8
  9
$ATTDIA
 70
     0
  9
$ATTREQ
 70
     1
  9
$HANDLING
 70
     1
  9
$HANDSEED
  5
C8C
  9
$SURFTAB1
 70
     6
  9
$SURFTAB2
 70
     6
  9
$SURFTYPE
 70
     6
  9
$SURFU
 70
     6
  9
$SURFV
 70
     6
  9
$UCSNAME
  2

  9
$UCSORG
 10
0.0
 20
0.0
 30
0.0
  9
$UCSXDIR
 10
1.0
 20
0.0
 30
0.0
  9
$UCSYDIR
 10
0.0
 20
1.0
 30
0.0
  9
$PUCSNAME
  2

  9
$PUCSORG
 10
0.0
 20
0.0
 30
0.0
  9
$PUCSXDIR
 10
1.0
 20
0.0
 30
0.0
  9
$PUCSYDIR
 10
0.0
 20
1.0
 30
0.0
  9
$USERI1
 70
     0
  9
$USERI2
 70
     0
  9
$USERI3
 70
     0
  9
$USERI4
 70
     0
  9
$USERI5
 70
     0
  9
$USERR1
 40
0.0
  9
$USERR2
 40
0.0
  9
$USERR3
 40
0.0
  9
$USERR4
 40
0.0
  9
$USERR5
 40
0.0
  9
$WORLDVIEW
 70
     1
  9
$SHADEDGE
 70
     3
  9
$SHADEDIF
 70
    70
  9
$TILEMODE
 70
     1
  9
$MAXACTVP
 70
    16
  9
$PLIMCHECK
 70
     0
  9
$PEXTMIN
 10
1.0000000000000000E+020
 20
1.0000000000000000E+020
 30
1.0000000000000000E+020
  9
$PEXTMAX
 10
-1.0000000000000000E+020
 20
-1.0000000000000000E+020
 30
-1.0000000000000000E+020
  9
$PLIMMIN
 10
0.0
 20
0.0
  9
$PLIMMAX
 10
420.0
 20
297.0
  9
$UNITMODE
 70
     0
  9
$VISRETAIN
 70
     0
  9
$PLINEGEN
 70
     0
  9
$PSLTSCALE
 70
     0
  0
ENDSEC
  0
SECTION
  2
TABLES
  0
TABLE
  2
VPORT
 70
     1
  0
VPORT
  2
*ACTIVE
 70
     0
 10
0.0
 20
0.0
 11
1.0
 21
1.0
 12
94.179419367536468
 22
70.048748545849435
 13
0.0
 23
0.0
 14
10.0
 24
10.0
 15
0.0
 25
0.0
 16
0.0
 26
0.0
 36
1.0
 17
0.0
 27
0.0
 37
0.0
 40
123.1421312798128
 41
1.6552631578947361
 42
50.0
 43
0.0
 44
0.0
 50
0.0
 51
0.0
 71
     0
 72
   100
 73
     1
 74
     0
 75
     0
 76
     0
 77
     0
 78
     1
  0
ENDTAB
  0
TABLE
  2
LTYPE
 70
     2
  0
LTYPE
  2
CONTINUOUS
 70
     0
  3
Solid line
 72
    65
 73
     0
 40
0.0
  0
LTYPE
  2
CENTER
 70
     0
  3
____ _ ____ _ ____ _ ____ _ ____ _ ____ _ ____ 
 72
    65
 73
     4
 40
50.799999999999997
 49
31.75
 49
-6.349999999999997
 49
6.349999999999997
 49
-6.349999999999997
  0
ENDTAB
  0
TABLE
  2
LAYER
 70
     3
  0
LAYER
  2
0
 70
     0
 62
     7
  6
CONTINUOUS
  0
LAYER
  2
CENTER
 70
     0
 62
     1
  6
CENTER
  0
LAYER
  2
DEFPOINTS
 70
     0
 62
     7
  6
CONTINUOUS
  0
ENDTAB
  0
TABLE
  2
STYLE
 70
     1
  0
STYLE
  2
STANDARD
 70
     0
 40
0.0
 41
1.0
 50
0.0
 71
     0
 42
4.0
  3
txt.shx
  4

  0
ENDTAB
  0
TABLE
  2
VIEW
 70
     0
  0
ENDTAB
  0
TABLE
  2
UCS
 70
     0
  0
ENDTAB
  0
TABLE
  2
APPID
 70
    12
  0
APPID
  2
ACAD
 70
     0
  0
APPID
  2
MCAD_NO_VIS
 70
     0
  0
APPID
  2
ACAD_TEMP_GRAPHIC
 70
     0
  0
APPID
  2
AD_DRAW
 70
     0
  0
APPID
  2
ACATTRIBSERVICES
 70
     0
  0
APPID
  2
ASURF_PCURVE_APPNAME
 70
     0
  0
APPID
  2
GENIUS_GENDIM_13
 70
     0
  0
APPID
  2
GENIUS_GENDTOL_13
 70
     0
  0
APPID
  2
GENIUS_GE3DTOL_13
 70
     0
  0
APPID
  2
DESIGNERASSEMBLIES
 70
     0
  0
APPID
  2
ACADM_DIM_EDIT
 70
     0
  0
APPID
  2
G3V_ENTHND
 70
     0
  0
ENDTAB
  0
TABLE
  2
DIMSTYLE
 70
     2
  0
DIMSTYLE
  2
STANDARD
 70
     0
  3

  4

  5

  6

  7

 40
1.0
 41
3.0
 42
1.0
 43
10.0
 44
1.0
 45
0.0
 46
0.0
 47
0.0
 48
0.0
140
3.2000000000000002
141
0.0
142
0.0
143
0.04
144
1.0
145
1.0
146
0.6
147
0.0
 71
     0
 72
     0
 73
     0
 74
     0
 75
     0
 76
     0
 77
     0
 78
     8
170
     0
171
     2
172
     1
173
     0
174
     0
175
     0
176
     0
177
     0
178
     0
  0
DIMSTYLE
  2
MISUMI
 70
     0
  3

  4

  5

  6

  7

 40
1.0
 41
3.0
 42
1.0
 43
0.0
 44
1.0
 45
0.0
 46
0.0
 47
0.0
 48
0.0
140
3.2000000000000002
141
0.0
142
0.0
143
0.04
144
1.0
145
1.0
146
0.6
147
1.0
 71
     0
 72
     0
 73
     0
 74
     0
 75
     0
 76
     0
 77
     1
 78
     8
170
     0
171
     2
172
     1
173
     0
174
     1
175
     0
176
     0
177
     0
178
     0
  0
ENDTAB
  0
ENDSEC
  0
SECTION
  2
BLOCKS
  0
BLOCK
  8
0
  2
$MODEL_SPACE
 70
     0
 10
0.0
 20
0.0
 30
0.0
  3
$MODEL_SPACE
  1

  0
ENDBLK
  5
C5D
  8
0
  0
BLOCK
 67
     1
  8
0
  2
$PAPER_SPACE
 70
     0
 10
0.0
 20
0.0
 30
0.0
  3
$PAPER_SPACE
  1

  0
ENDBLK
  5
C59
 67
     1
  8
0
  0
ENDSEC
  0
SECTION
  2
ENTITIES
  0
TEXT
  5
1AF
  8
0
  6
CONTINUOUS
 62
     7
 10
10.0
 20
25.0
 30
0.0
 40
4.0
  1
AHTF16T10250
  0
TEXT
  5
1B0
  8
0
  6
CONTINUOUS
 62
     7
 10
10.0
 20
10.0
 30
0.0
 40
4.0
  1
AHTF16T10250
  0
LINE
  5
1B1
  8
CENTER
  6
CENTER
 62
     1
 10
136.18560660813151
 20
119.38353794346629
 30
0.0
 11
136.18560660813151
 21
66.363537943466312
 31
0.0
  0
LINE
  5
1B2
  8
0
  6
CONTINUOUS
 62
     7
 10
150.68560660813151
 20
66.980190441929722
 30
0.0
 11
150.68560660813151
 21
71.37353794346626
 31
0.0
  0
LINE
  5
1B3
  8
0
  6
CONTINUOUS
 62
     7
 10
149.68560660813151
 20
66.848537944373561
 30
0.0
 11
149.68560660813151
 21
71.37353794346626
 31
0.0
  0
LINE
  5
1B4
  8
0
  6
CONTINUOUS
 62
     7
 10
122.68560660813149
 20
66.848537944373561
 30
0.0
 11
122.68560660813149
 21
71.37353794346626
 31
0.0
  0
LINE
  5
1B5
  8
0
  6
CONTINUOUS
 62
     7
 10
121.68560660813149
 20
66.980190441929722
 30
0.0
 11
121.68560660813149
 21
71.37353794346626
 31
0.0
  0
LINE
  5
1B6
  8
CENTER
  6
CENTER
 62
     1
 10
122.68560660813149
 20
67.4085379434663
 30
0.0
 11
149.68560660813151
 21
67.4085379434663
 31
0.0
  0
LINE
  5
1B7
  8
0
  6
CONTINUOUS
 62
     7
 10
122.68560660813149
 20
68.348537943466326
 30
0.0
 11
149.68560660837471
 21
68.348537943466326
 31
0.0
  0
LINE
  5
1B8
  8
0
  6
CONTINUOUS
 62
     7
 10
120.0453147648204
 20
63.873537943466317
 30
0.0
 11
121.08059094522569
 21
63.873537943466317
 31
0.0
  0
LINE
  5
1B9
  8
0
  6
CONTINUOUS
 62
     7
 10
120.0453147648204
 20
63.873537943466317
 30
0.0
 11
121.68560660813149
 21
66.980190441929722
 31
0.0
  0
LINE
  5
1BA
  8
0
  6
CONTINUOUS
 62
     7
 10
121.08059094522569
 20
63.873537943466317
 30
0.0
 11
122.68560660813149
 21
66.848537944373561
 31
0.0
  0
LINE
  5
1BB
  8
0
  6
CONTINUOUS
 62
     7
 10
152.3258984514425
 20
63.873537943466317
 30
0.0
 11
150.68560660813151
 21
66.980190441929722
 31
0.0
  0
LINE
  5
1BC
  8
0
  6
CONTINUOUS
 62
     7
 10
152.3258984514425
 20
63.873537943466317
 30
0.0
 11
151.29062227103711
 21
63.873537943466317
 31
0.0
  0
LINE
  5
1BD
  8
0
  6
CONTINUOUS
 62
     7
 10
151.29062227103711
 20
63.873537943466317
 30
0.0
 11
149.68560660813151
 21
66.848537944373561
 31
0.0
  0
LINE
  5
1BE
  8
CENTER
  6
CENTER
 62
     1
 10
115.18560660813139
 20
92.873537943466317
 30
0.0
 11
157.18560660813151
 21
92.873537943466346
 31
0.0
  0
LINE
  5
1BF
  8
CENTER
  6
CENTER
 62
     1
 10
122.68560660813149
 20
118.33853794346631
 30
0.0
 11
149.68560660813151
 21
118.33853794346631
 31
0.0
  0
LINE
  5
1C0
  8
0
  6
CONTINUOUS
 62
     7
 10
122.68560660813149
 20
69.84853794346634
 30
0.0
 11
149.68560660837471
 21
69.84853794346634
 31
0.0
  0
LINE
  5
1C1
  8
0
  6
CONTINUOUS
 62
     7
 10
122.68560660813149
 20
115.8985379434662
 30
0.0
 11
149.68560660837471
 21
115.8985379434662
 31
0.0
  0
LINE
  5
1CC
  8
0
  6
CONTINUOUS
 62
     7
 10
122.68560660813149
 20
117.39853794346629
 30
0.0
 11
149.68560660837471
 21
117.39853794346629
 31
0.0
  0
LINE
  5
1D0
  8
0
  6
CONTINUOUS
 62
     7
 10
120.18560660813139
 20
114.3735379434663
 30
0.0
 11
120.18560660813139
 21
71.373537943466303
 31
0.0
  0
LINE
  5
1DD
  8
0
  6
CONTINUOUS
 62
     7
 10
120.18560660813139
 20
71.373537943466303
 30
0.0
 11
122.68560660813149
 21
71.37353794346626
 31
0.0
  0
LINE
  5
2A9
  8
0
  6
CONTINUOUS
 62
     7
 10
120.0453147648204
 20
121.8735379434662
 30
0.0
 11
121.68560660813149
 21
118.7668854450029
 31
0.0
  0
LINE
  5
2AA
  8
0
  6
CONTINUOUS
 62
     7
 10
120.18560660813139
 20
114.3735379434663
 30
0.0
 11
122.68560660813149
 21
114.3735379434663
 31
0.0
  0
LINE
  5
2AB
  8
0
  6
CONTINUOUS
 62
     7
 10
120.0453147648204
 20
121.8735379434662
 30
0.0
 11
121.08059094522569
 21
121.8735379434662
 31
0.0
  0
LINE
  5
2AC
  8
0
  6
CONTINUOUS
 62
     7
 10
121.08059094522569
 20
121.8735379434662
 30
0.0
 11
122.68560660813149
 21
118.898537942559
 31
0.0
  0
LINE
  5
2AD
  8
0
  6
CONTINUOUS
 62
     7
 10
121.68560660813149
 20
118.7668854450029
 30
0.0
 11
121.68560660813149
 21
114.3735379434663
 31
0.0
  0
LINE
  5
2AE
  8
0
  6
CONTINUOUS
 62
     7
 10
122.68560660813149
 20
118.898537942559
 30
0.0
 11
122.68560660813149
 21
114.3735379434663
 31
0.0
  0
LINE
  5
2AF
  8
0
  6
CONTINUOUS
 62
     7
 10
129.18560660819199
 20
117.3985379434659
 30
0.0
 11
129.18560660819199
 21
117.3986379434659
 31
0.0
  0
LINE
  5
2B0
  8
0
  6
CONTINUOUS
 62
     7
 10
136.18560660825301
 20
117.3985379434659
 30
0.0
 11
136.18570660825301
 21
117.3985379434659
 31
0.0
  0
LINE
  5
2B1
  8
0
  6
CONTINUOUS
 62
     7
 10
148.9356066081836
 20
74.373537943466303
 30
0.0
 11
148.9356066081836
 21
111.3735379434663
 31
0.0
  0
LINE
  5
2B3
  8
0
  6
CONTINUOUS
 62
     7
 10
147.1856066081836
 20
74.373537943466303
 30
0.0
 11
147.1856066081836
 21
111.3735379434663
 31
0.0
  0
LINE
  5
2B4
  8
0
  6
CONTINUOUS
 62
     7
 10
152.18560660813151
 20
114.3735379434663
 30
0.0
 11
152.18560660813151
 21
71.37353794346626
 31
0.0
  0
LINE
  5
2B9
  8
0
  6
CONTINUOUS
 62
     7
 10
149.68560660813151
 20
71.37353794346626
 30
0.0
 11
152.18560660813151
 21
71.37353794346626
 31
0.0
  0
LINE
  5
2BA
  8
0
  6
CONTINUOUS
 62
     7
 10
147.1856066081836
 20
74.373537943466303
 30
0.0
 11
148.9356066081836
 21
74.373537943466303
 31
0.0
  0
LINE
  5
2BB
  8
0
  6
CONTINUOUS
 62
     7
 10
147.1856066081836
 20
76.373537943466303
 30
0.0
 11
148.9356066081836
 21
76.373537943466303
 31
0.0
  0
LINE
  5
2F2
  8
0
  6
CONTINUOUS
 62
     7
 10
147.1856066081836
 20
111.3735379434663
 30
0.0
 11
148.9356066081836
 21
111.3735379434663
 31
0.0
  0
LINE
  5
2F3
  8
0
  6
CONTINUOUS
 62
     7
 10
147.1856066081836
 20
109.3735379434663
 30
0.0
 11
148.9356066081836
 21
109.3735379434663
 31
0.0
  0
LINE
  5
2FD
  8
0
  6
CONTINUOUS
 62
     7
 10
152.18560660813151
 20
114.3735379434663
 30
0.0
 11
149.68560660813151
 21
114.3735379434663
 31
0.0
  0
LINE
  5
2FE
  8
0
  6
CONTINUOUS
 62
     7
 10
152.3258984514425
 20
121.8735379434662
 30
0.0
 11
151.29062227103711
 21
121.8735379434662
 31
0.0
  0
LINE
  5
2FF
  8
0
  6
CONTINUOUS
 62
     7
 10
152.3258984514425
 20
121.8735379434662
 30
0.0
 11
150.68560660813151
 21
118.7668854450029
 31
0.0
  0
LINE
  5
300
  8
0
  6
CONTINUOUS
 62
     7
 10
151.29062227103711
 20
121.8735379434662
 30
0.0
 11
149.68560660813151
 21
118.898537942559
 31
0.0
  0
LINE
  5
301
  8
0
  6
CONTINUOUS
 62
     7
 10
149.68560660813151
 20
118.898537942559
 30
0.0
 11
149.68560660813151
 21
114.3735379434663
 31
0.0
  0
LINE
  5
302
  8
0
  6
CONTINUOUS
 62
     7
 10
150.68560660813151
 20
118.7668854450029
 30
0.0
 11
150.68560660813151
 21
114.3735379434663
 31
0.0
  0
LINE
  5
9C5
  8
0
  6
CONTINUOUS
 62
     0
 10
148.9356066081836
 20
110.3735379434662
 30
0.0
 11
152.18560660813151
 21
110.3735379434662
 31
0.0
  0
LINE
  5
9C6
  8
0
  6
CONTINUOUS
 62
     7
 10
148.9356066081836
 20
75.373537943466303
 30
0.0
 11
152.18560660813151
 21
75.373537943466303
 31
0.0
  0
ARC
  5
AE5
  8
0
  6
CONTINUOUS
 62
     7
 10
125.7857066081833
 20
84.773537943466152
 30
0.0
 40
0.6
 50
90.0
 51
180.0
  0
ARC
  5
AE6
  8
0
  6
CONTINUOUS
 62
     7
 10
135.58570660818339
 20
84.773537943466152
 30
0.0
 40
0.6
 50
0.0
 51
90.0
  0
ARC
  5
AE7
  8
0
  6
CONTINUOUS
 62
     7
 10
135.58570660818339
 20
75.973537943466212
 30
0.0
 40
0.6
 50
270.0
 51
0.0
  0
ARC
  5
AE8
  8
0
  6
CONTINUOUS
 62
     7
 10
125.7857066081834
 20
75.973537943466212
 30
0.0
 40
0.6
 50
180.0
 51
270.0
  0
ARC
  5
AE9
  8
0
  6
CONTINUOUS
 62
     7
 10
125.7857066081833
 20
100.9735379434661
 30
0.0
 40
0.6
 50
180.0
 51
270.0
  0
ARC
  5
AEA
  8
0
  6
CONTINUOUS
 62
     7
 10
135.58570660818339
 20
100.9735379434661
 30
0.0
 40
0.6
 50
270.0
 51
0.0
  0
ARC
  5
AEB
  8
0
  6
CONTINUOUS
 62
     7
 10
135.58570660818339
 20
109.7735379434662
 30
0.0
 40
0.6
 50
0.0
 51
90.0
  0
ARC
  5
AEC
  8
0
  6
CONTINUOUS
 62
     7
 10
125.7857066081834
 20
109.7735379434662
 30
0.0
 40
0.6
 50
90.0
 51
180.0
  0
ARC
  5
AED
  8
0
  6
CONTINUOUS
 62
     7
 10
134.99780819029851
 20
108.4332546977537
 30
0.0
 40
0.5
 50
35.064446778954107
 51
174.93497669738869
  0
ARC
  5
AEE
  8
0
  6
CONTINUOUS
 62
     7
 10
134.99376431507699
 20
108.4387162716794
 30
0.0
 40
0.2
 50
35.063254629484661
 51
177.86881954705359
  0
ARC
  5
AEF
  8
0
  6
CONTINUOUS
 62
     7
 10
135.44026297974079
 20
108.1510044339915
 30
0.0
 40
0.3
 50
304.96230952946019
 51
35.064446778954107
  0
LINE
  5
AF0
  8
0
  6
CONTINUOUS
 62
     7
 10
135.98570660818331
 20
108.3235179434662
 30
0.0
 11
135.68569958933179
 21
108.3235179434662
 31
0.0
  0
ARC
  5
AF1
  8
0
  6
CONTINUOUS
 62
     7
 10
134.21443198453451
 20
107.5235179434662
 30
0.0
 40
0.2
 50
270.0
 51
354.93497669738861
  0
LINE
  5
AF2
  8
0
  6
CONTINUOUS
 62
     7
 10
135.36667235937719
 20
107.7334839957541
 30
0.0
 11
135.19466237301961
 21
107.97850671035999
 31
0.0
  0
LINE
  5
AF3
  8
0
  6
CONTINUOUS
 62
     7
 10
134.44370660818339
 20
107.8445179434661
 30
0.0
 11
134.44370660818339
 21
106.9735679433753
 31
0.0
  0
LINE
  5
AF4
  8
0
  6
CONTINUOUS
 62
     7
 10
135.19466237301961
 20
107.97850671035999
 30
0.0
 11
135.4396852287901
 21
108.15150990882221
 31
0.0
  0
LINE
  5
AF5
  8
0
  6
CONTINUOUS
 62
     7
 10
135.36667235937719
 20
107.7334839957541
 30
0.0
 11
135.612174216358
 21
107.9051456803853
 31
0.0
  0
LINE
  5
AF6
  8
0
  6
CONTINUOUS
 62
     7
 10
134.74371589062059
 20
107.0975286610289
 30
0.0
 11
135.84370660818331
 21
105.9975379434662
 31
0.0
  0
LINE
  5
AF7
  8
0
  6
CONTINUOUS
 62
     7
 10
134.44370660818339
 20
106.9735679433753
 30
0.0
 11
135.5437066081833
 21
105.8735779432843
 31
0.0
  0
ARC
  5
AF8
  8
0
  6
CONTINUOUS
 62
     7
 10
135.98570660818331
 20
108.5235179434662
 30
0.0
 40
0.2
 50
270.0
 51
0.0
  0
LINE
  5
AF9
  8
0
  6
CONTINUOUS
 62
     7
 10
134.7939026542295
 20
108.4461537795455
 30
0.0
 11
134.74371589062059
 21
107.0975286610289
 31
0.0
  0
LINE
  5
AFA
  8
0
  6
CONTINUOUS
 62
     7
 10
134.4997606172499
 20
108.47739781704129
 30
0.0
 11
134.41365101375391
 21
107.5058606957512
 31
0.0
  0
LINE
  5
AFB
  8
0
  6
CONTINUOUS
 62
     7
 10
135.68581488851771
 20
108.3233536727366
 30
0.0
 11
135.4070613715931
 21
108.7205034289958
 31
0.0
  0
LINE
  5
AFC
  8
0
  6
CONTINUOUS
 62
     7
 10
135.4396852287901
 20
108.15150990882221
 30
0.0
 11
135.15746797826549
 21
108.5536123580298
 31
0.0
  0
LINE
  5
AFD
  8
0
  6
CONTINUOUS
 62
     7
 10
135.98570660818331
 20
102.7235279434661
 30
0.0
 11
135.5857149982844
 21
102.7235279434661
 31
0.0
  0
ARC
  5
AFE
  8
0
  6
CONTINUOUS
 62
     7
 10
135.98570660818331
 20
102.52352794346611
 30
0.0
 40
0.2
 50
0.0
 51
90.0
  0
LINE
  5
AFF
  8
0
  6
CONTINUOUS
 62
     7
 10
135.02370660818329
 20
103.0235179434662
 30
0.0
 11
135.02370660818329
 21
103.3235179434661
 31
0.0
  0
LINE
  5
B00
  8
0
  6
CONTINUOUS
 62
     7
 10
134.7518857286635
 20
102.40501660576849
 30
0.0
 11
134.4285192598652
 21
103.29202928116381
 31
0.0
  0
ARC
  5
B01
  8
0
  6
CONTINUOUS
 62
     7
 10
134.2406161818339
 20
103.22352794346619
 30
0.0
 40
0.2
 50
20.029668864289771
 51
90.0
  0
LINE
  5
B02
  8
0
  6
CONTINUOUS
 62
     7
 10
135.02370660818329
 20
103.3235179434661
 30
0.0
 11
135.5437066081833
 21
103.3235179434661
 31
0.0
  0
LINE
  5
B03
  8
0
  6
CONTINUOUS
 62
     7
 10
135.5437066081833
 20
103.0235179434662
 30
0.0
 11
135.02370660818329
 21
103.0235179434662
 31
0.0
  0
ARC
  5
B04
  8
0
  6
CONTINUOUS
 62
     7
 10
135.5437066081833
 20
103.3235179434661
 30
0.0
 40
0.3
 50
269.99999999999841
 51
0.0
  0
LINE
  5
B05
  8
0
  6
CONTINUOUS
 62
     7
 10
135.5857149982844
 20
102.7235279434661
 30
0.0
 11
135.26809977571091
 21
102.3449684710846
 31
0.0
  0
LINE
  5
B06
  8
0
  6
CONTINUOUS
 62
     7
 10
135.11488413306799
 20
102.2735179434662
 30
0.0
 11
134.93978880669471
 21
102.2735179434662
 31
0.0
  0
ARC
  5
B07
  8
0
  6
CONTINUOUS
 62
     7
 10
135.11488413306799
 20
102.47351794346611
 30
0.0
 40
0.2
 50
270.0
 51
320.00301023920332
  0
ARC
  5
B08
  8
0
  6
CONTINUOUS
 62
     7
 10
134.93978880669471
 20
102.47351794346611
 30
0.0
 40
0.2
 50
200.0296688642897
 51
270.0
  0
LINE
  5
B09
  8
0
  6
CONTINUOUS
 62
     7
 10
135.5437066081833
 20
105.8735779432843
 30
0.0
 11
135.5437066081833
 21
103.3235179434661
 31
0.0
  0
LINE
  5
B0A
  8
0
  6
CONTINUOUS
 62
     7
 10
135.84370660818331
 20
105.9975379434662
 30
0.0
 11
135.84370660818331
 21
103.3235179434661
 31
0.0
  0
ARC
  5
B0B
  8
0
  6
CONTINUOUS
 62
     7
 10
135.98570660818331
 20
83.223547943466187
 30
0.0
 40
0.2
 50
270.0
 51
0.0
  0
LINE
  5
B0C
  8
0
  6
CONTINUOUS
 62
     7
 10
135.98570660818331
 20
83.023547943466212
 30
0.0
 11
135.5857149982844
 21
83.023547943466212
 31
0.0
  0
ARC
  5
B0D
  8
0
  6
CONTINUOUS
 62
     7
 10
134.2406161818339
 20
82.523547943466198
 30
0.0
 40
0.2
 50
269.99999999999841
 51
339.97033113571018
  0
LINE
  5
B0E
  8
0
  6
CONTINUOUS
 62
     7
 10
134.7518857286635
 20
83.342059281163799
 30
0.0
 11
134.4285192598652
 21
82.455046605768572
 31
0.0
  0
ARC
  5
B0F
  8
0
  6
CONTINUOUS
 62
     7
 10
134.93978880669471
 20
83.273557943466187
 30
0.0
 40
0.2
 50
90.0
 51
159.9703311357101
  0
LINE
  5
B10
  8
0
  6
CONTINUOUS
 62
     7
 10
135.11488413306799
 20
83.47355794346619
 30
0.0
 11
134.93978880669471
 21
83.47355794346619
 31
0.0
  0
ARC
  5
B11
  8
0
  6
CONTINUOUS
 62
     7
 10
135.11488413306799
 20
83.273557943466187
 30
0.0
 40
0.2
 50
39.996989760796723
 51
90.0
  0
LINE
  5
B12
  8
0
  6
CONTINUOUS
 62
     7
 10
135.5437066081833
 20
82.72355794346619
 30
0.0
 11
135.02370660818329
 21
82.72355794346619
 31
0.0
  0
LINE
  5
B13
  8
0
  6
CONTINUOUS
 62
     7
 10
135.02370660818329
 20
82.72355794346619
 30
0.0
 11
135.02370660818329
 21
82.423557943466193
 31
0.0
  0
LINE
  5
B14
  8
0
  6
CONTINUOUS
 62
     7
 10
135.02370660818329
 20
82.423557943466193
 30
0.0
 11
135.5437066081833
 21
82.423557943466193
 31
0.0
  0
LINE
  5
B15
  8
0
  6
CONTINUOUS
 62
     7
 10
135.5857149982844
 20
83.023547943466212
 30
0.0
 11
135.26809977571091
 21
83.402107415847794
 31
0.0
  0
ARC
  5
B16
  8
0
  6
CONTINUOUS
 62
     7
 10
135.5437066081833
 20
82.423557943466193
 30
0.0
 40
0.3
 50
0.0
 51
90.0
  0
LINE
  5
B17
  8
0
  6
CONTINUOUS
 62
     7
 10
135.84370660818331
 20
79.749537943466152
 30
0.0
 11
135.84370660818331
 21
82.423557943466193
 31
0.0
  0
LINE
  5
B18
  8
0
  6
CONTINUOUS
 62
     7
 10
135.5437066081833
 20
79.87349794364799
 30
0.0
 11
135.5437066081833
 21
82.423557943466193
 31
0.0
  0
ARC
  5
B19
  8
0
  6
CONTINUOUS
 62
     7
 10
134.21443198453451
 20
78.223557943466204
 30
0.0
 40
0.2
 50
5.0650233026113201
 51
90.0
  0
LINE
  5
B1A
  8
0
  6
CONTINUOUS
 62
     7
 10
135.36667235937719
 20
78.013591891178137
 30
0.0
 11
135.19466237301961
 21
77.768569176572214
 31
0.0
  0
LINE
  5
B1B
  8
0
  6
CONTINUOUS
 62
     7
 10
134.44370660818339
 20
77.902557943466221
 30
0.0
 11
134.44370660818339
 21
78.773507943557163
 31
0.0
  0
LINE
  5
B1C
  8
0
  6
CONTINUOUS
 62
     7
 10
135.36667235937719
 20
78.013591891178137
 30
0.0
 11
135.612174216358
 21
77.841930206547062
 31
0.0
  0
ARC
  5
B1D
  8
0
  6
CONTINUOUS
 62
     7
 10
135.98570660818331
 20
77.223557943466233
 30
0.0
 40
0.2
 50
0.0
 51
90.0
  0
LINE
  5
B1E
  8
0
  6
CONTINUOUS
 62
     7
 10
135.98570660818331
 20
77.423557943466221
 30
0.0
 11
135.68569958933179
 21
77.423557943466221
 31
0.0
  0
ARC
  5
B1F
  8
0
  6
CONTINUOUS
 62
     7
 10
134.99376431507699
 20
77.308359615253025
 30
0.0
 40
0.2
 50
182.1311804529463
 51
324.93674537051538
  0
LINE
  5
B20
  8
0
  6
CONTINUOUS
 62
     7
 10
135.4396852287901
 20
77.595565978110201
 30
0.0
 11
135.15746797826549
 21
77.193463528902555
 31
0.0
  0
ARC
  5
B21
  8
0
  6
CONTINUOUS
 62
     7
 10
134.99780819029851
 20
77.313821189178654
 30
0.0
 40
0.5
 50
185.06502330261119
 51
324.93555322104589
  0
LINE
  5
B22
  8
0
  6
CONTINUOUS
 62
     7
 10
135.68581488851771
 20
77.423722214195635
 30
0.0
 11
135.4070613715931
 21
77.026572457936652
 31
0.0
  0
LINE
  5
B23
  8
0
  6
CONTINUOUS
 62
     7
 10
134.4997606172499
 20
77.269678069891143
 30
0.0
 11
134.41365101375391
 21
78.241215191181226
 31
0.0
  0
LINE
  5
B24
  8
0
  6
CONTINUOUS
 62
     7
 10
134.7939026542295
 20
77.30092210738691
 30
0.0
 11
134.74371589062059
 21
78.649547225903476
 31
0.0
  0
ARC
  5
B25
  8
0
  6
CONTINUOUS
 62
     7
 10
135.44026297974079
 20
77.596071452940905
 30
0.0
 40
0.3
 50
324.93555322104589
 51
55.037690470539808
  0
LINE
  5
B26
  8
0
  6
CONTINUOUS
 62
     7
 10
135.19466237301961
 20
77.768569176572214
 30
0.0
 11
135.4396852287901
 21
77.595565978110201
 31
0.0
  0
LINE
  5
B27
  8
0
  6
CONTINUOUS
 62
     7
 10
134.44370660818339
 20
78.773507943557163
 30
0.0
 11
135.5437066081833
 21
79.87349794364799
 31
0.0
  0
LINE
  5
B28
  8
0
  6
CONTINUOUS
 62
     7
 10
134.74371589062059
 20
78.649547225903476
 30
0.0
 11
135.84370660818331
 21
79.749537943466152
 31
0.0
  0
LINE
  5
B29
  8
0
  6
CONTINUOUS
 62
     7
 10
136.18570660818361
 20
75.973537943466212
 30
0.0
 11
136.18570660818341
 21
109.7735379434662
 31
0.0
  0
ARC
  5
B2A
  8
0
  6
CONTINUOUS
 62
     7
 10
126.3776489012897
 20
108.4387162716794
 30
0.0
 40
0.2
 50
2.1311804529463081
 51
144.9367453705153
  0
ARC
  5
B2B
  8
0
  6
CONTINUOUS
 62
     7
 10
126.3736050260684
 20
108.4332546977537
 30
0.0
 40
0.5
 50
5.0650233026113201
 51
144.9355532210447
  0
ARC
  5
B2C
  8
0
  6
CONTINUOUS
 62
     7
 10
127.1569812318324
 20
107.5235179434662
 30
0.0
 40
0.2
 50
185.06502330261119
 51
270.0
  0
LINE
  5
B2D
  8
0
  6
CONTINUOUS
 62
     7
 10
126.9277066081834
 20
107.8445179434661
 30
0.0
 11
126.9277066081834
 21
106.9735679433753
 31
0.0
  0
LINE
  5
B2E
  8
0
  6
CONTINUOUS
 62
     7
 10
127.1569812318324
 20
107.3235179434662
 30
0.0
 11
128.18008660818339
 21
107.3235179434662
 31
0.0
  0
ARC
  5
B2F
  8
0
  6
CONTINUOUS
 62
     7
 10
125.9311502366258
 20
108.1510044339915
 30
0.0
 40
0.3
 50
144.9355532210447
 51
235.0376904705397
  0
LINE
  5
B30
  8
0
  6
CONTINUOUS
 62
     7
 10
126.0047408569894
 20
107.7334839957541
 30
0.0
 11
125.7592390000088
 21
107.9051456803853
 31
0.0
  0
LINE
  5
B31
  8
0
  6
CONTINUOUS
 62
     7
 10
126.17675084334699
 20
107.97850671035999
 30
0.0
 11
125.93172798757649
 21
108.15150990882221
 31
0.0
  0
LINE
  5
B32
  8
0
  6
CONTINUOUS
 62
     7
 10
126.0047408569894
 20
107.7334839957541
 30
0.0
 11
126.17675084334699
 21
107.97850671035999
 31
0.0
  0
LINE
  5
B33
  8
0
  6
CONTINUOUS
 62
     7
 10
126.9277066081834
 20
106.9735679433753
 30
0.0
 11
125.82770660818331
 21
105.8735779432843
 31
0.0
  0
LINE
  5
B34
  8
0
  6
CONTINUOUS
 62
     7
 10
126.6276973257462
 20
107.0975286610289
 30
0.0
 11
125.52770660818339
 21
105.9975379434662
 31
0.0
  0
LINE
  5
B35
  8
0
  6
CONTINUOUS
 62
     7
 10
125.3857066081834
 20
108.3235179434662
 30
0.0
 11
125.6857136270349
 21
108.3235179434662
 31
0.0
  0
LINE
  5
B36
  8
0
  6
CONTINUOUS
 62
     7
 10
125.68559832784899
 20
108.3233536727366
 30
0.0
 11
125.9643518447735
 21
108.7205034289958
 31
0.0
  0
LINE
  5
B37
  8
0
  6
CONTINUOUS
 62
     7
 10
125.93172798757649
 20
108.15150990882221
 30
0.0
 11
126.2139452381013
 21
108.5536123580298
 31
0.0
  0
LINE
  5
B38
  8
0
  6
CONTINUOUS
 62
     7
 10
126.8716525991169
 20
108.47739781704129
 30
0.0
 11
126.957762202613
 21
107.5058606957512
 31
0.0
  0
LINE
  5
B39
  8
0
  6
CONTINUOUS
 62
     7
 10
126.57751056213731
 20
108.4461537795455
 30
0.0
 11
126.6276973257462
 21
107.0975286610289
 31
0.0
  0
ARC
  5
B3A
  8
0
  6
CONTINUOUS
 62
     7
 10
125.3857066081834
 20
108.5235179434662
 30
0.0
 40
0.2
 50
180.0
 51
270.0
  0
ARC
  5
B3B
  8
0
  6
CONTINUOUS
 62
     7
 10
127.1307970345329
 20
103.22352794346619
 30
0.0
 40
0.2
 50
90.0
 51
159.9703311357101
  0
LINE
  5
B3C
  8
0
  6
CONTINUOUS
 62
     7
 10
127.1307970345329
 20
103.4235279434662
 30
0.0
 11
128.180095704651
 21
103.4235279434662
 31
0.0
  0
LINE
  5
B3D
  8
0
  6
CONTINUOUS
 62
     7
 10
126.3477066081833
 20
103.0235179434662
 30
0.0
 11
126.3477066081833
 21
103.3235179434661
 31
0.0
  0
LINE
  5
B3E
  8
0
  6
CONTINUOUS
 62
     7
 10
125.7856982180824
 20
102.7235279434661
 30
0.0
 11
126.103313440656
 21
102.3449684710846
 31
0.0
  0
ARC
  5
B3F
  8
0
  6
CONTINUOUS
 62
     7
 10
125.82770660818331
 20
103.3235179434661
 30
0.0
 40
0.3
 50
180.0
 51
270.0
  0
LINE
  5
B40
  8
0
  6
CONTINUOUS
 62
     7
 10
125.82770660818331
 20
103.0235179434662
 30
0.0
 11
126.3477066081833
 21
103.0235179434662
 31
0.0
  0
LINE
  5
B41
  8
0
  6
CONTINUOUS
 62
     7
 10
126.3477066081833
 20
103.3235179434661
 30
0.0
 11
125.82770660818331
 21
103.3235179434661
 31
0.0
  0
LINE
  5
B42
  8
0
  6
CONTINUOUS
 62
     7
 10
126.61952748770329
 20
102.40501660576849
 30
0.0
 11
126.94289395650161
 21
103.29202928116381
 31
0.0
  0
LINE
  5
B43
  8
0
  6
CONTINUOUS
 62
     7
 10
126.2565290832986
 20
102.2735179434662
 30
0.0
 11
126.431624409672
 21
102.2735179434662
 31
0.0
  0
ARC
  5
B44
  8
0
  6
CONTINUOUS
 62
     7
 10
126.431624409672
 20
102.47351794346611
 30
0.0
 40
0.2
 50
270.0
 51
339.97033113571018
  0
ARC
  5
B45
  8
0
  6
CONTINUOUS
 62
     7
 10
126.2565290832986
 20
102.47351794346611
 30
0.0
 40
0.2
 50
219.99698976079671
 51
269.99999999999841
  0
ARC
  5
B46
  8
0
  6
CONTINUOUS
 62
     7
 10
125.3857066081834
 20
102.52352794346611
 30
0.0
 40
0.2
 50
90.0
 51
180.0
  0
LINE
  5
B47
  8
0
  6
CONTINUOUS
 62
     7
 10
125.3857066081834
 20
102.7235279434661
 30
0.0
 11
125.7856982180824
 21
102.7235279434661
 31
0.0
  0
CIRCLE
  5
B48
  8
0
  6
CONTINUOUS
 62
     7
 10
130.6857066081833
 20
105.3735379434662
 30
0.0
 40
3.174999999999998
  0
LINE
  5
B49
  8
0
  6
CONTINUOUS
 62
     7
 10
125.52770660818339
 20
105.9975379434662
 30
0.0
 11
125.52770660818339
 21
103.3235179434661
 31
0.0
  0
LINE
  5
B4A
  8
0
  6
CONTINUOUS
 62
     7
 10
125.82770660818331
 20
105.8735779432843
 30
0.0
 11
125.82770660818331
 21
103.3235179434661
 31
0.0
  0
LINE
  5
B4B
  8
0
  6
CONTINUOUS
 62
     7
 10
125.18570660818349
 20
92.873537943466076
 30
0.0
 11
125.1858066081834
 21
92.873537943466076
 31
0.0
  0
LINE
  5
B4C
  8
0
  6
CONTINUOUS
 62
     7
 10
125.18570660818349
 20
84.623537943466104
 30
0.0
 11
125.18570660818349
 21
84.623637943466207
 31
0.0
  0
LINE
  5
B4D
  8
0
  6
CONTINUOUS
 62
     7
 10
127.1307970345329
 20
82.323547943466153
 30
0.0
 11
128.180095704651
 21
82.323547943466153
 31
0.0
  0
ARC
  5
B4E
  8
0
  6
CONTINUOUS
 62
     7
 10
127.1307970345329
 20
82.523547943466198
 30
0.0
 40
0.2
 50
200.0296688642897
 51
270.0
  0
LINE
  5
B4F
  8
0
  6
CONTINUOUS
 62
     7
 10
126.3477066081833
 20
82.423557943466193
 30
0.0
 11
125.82770660818331
 21
82.423557943466193
 31
0.0
  0
LINE
  5
B50
  8
0
  6
CONTINUOUS
 62
     7
 10
126.3477066081833
 20
82.72355794346619
 30
0.0
 11
126.3477066081833
 21
82.423557943466193
 31
0.0
  0
LINE
  5
B51
  8
0
  6
CONTINUOUS
 62
     7
 10
125.82770660818331
 20
82.72355794346619
 30
0.0
 11
126.3477066081833
 21
82.72355794346619
 31
0.0
  0
ARC
  5
B52
  8
0
  6
CONTINUOUS
 62
     7
 10
125.82770660818331
 20
82.423557943466193
 30
0.0
 40
0.3
 50
90.0
 51
180.0
  0
LINE
  5
B53
  8
0
  6
CONTINUOUS
 62
     7
 10
125.7856982180824
 20
83.023547943466212
 30
0.0
 11
126.103313440656
 21
83.402107415847794
 31
0.0
  0
ARC
  5
B54
  8
0
  6
CONTINUOUS
 62
     7
 10
126.2565290832986
 20
83.273557943466187
 30
0.0
 40
0.2
 50
90.0
 51
140.00301023920321
  0
LINE
  5
B55
  8
0
  6
CONTINUOUS
 62
     7
 10
126.2565290832986
 20
83.47355794346619
 30
0.0
 11
126.431624409672
 21
83.47355794346619
 31
0.0
  0
ARC
  5
B56
  8
0
  6
CONTINUOUS
 62
     7
 10
126.431624409672
 20
83.273557943466187
 30
0.0
 40
0.2
 50
20.029668864289771
 51
90.0
  0
LINE
  5
B57
  8
0
  6
CONTINUOUS
 62
     7
 10
126.61952748770329
 20
83.342059281163799
 30
0.0
 11
126.94289395650161
 21
82.455046605768572
 31
0.0
  0
LINE
  5
B58
  8
0
  6
CONTINUOUS
 62
     7
 10
125.82770660818331
 20
79.87349794364799
 30
0.0
 11
125.82770660818331
 21
82.423557943466193
 31
0.0
  0
LINE
  5
B59
  8
0
  6
CONTINUOUS
 62
     7
 10
125.52770660818339
 20
79.749537943466152
 30
0.0
 11
125.52770660818339
 21
82.423557943466193
 31
0.0
  0
ARC
  5
B5A
  8
0
  6
CONTINUOUS
 62
     7
 10
125.3857066081834
 20
83.223547943466187
 30
0.0
 40
0.2
 50
180.0
 51
270.0
  0
LINE
  5
B5B
  8
0
  6
CONTINUOUS
 62
     7
 10
125.3857066081834
 20
83.023547943466212
 30
0.0
 11
125.7856982180824
 21
83.023547943466212
 31
0.0
  0
LINE
  5
B5C
  8
0
  6
CONTINUOUS
 62
     7
 10
126.9277066081834
 20
77.902557943466221
 30
0.0
 11
126.9277066081834
 21
78.773507943557163
 31
0.0
  0
LINE
  5
B5D
  8
0
  6
CONTINUOUS
 62
     7
 10
127.1569812318324
 20
78.423557943466221
 30
0.0
 11
128.18008660818339
 21
78.423557943466221
 31
0.0
  0
ARC
  5
B5E
  8
0
  6
CONTINUOUS
 62
     7
 10
127.1569812318324
 20
78.223557943466204
 30
0.0
 40
0.2
 50
90.0
 51
174.93497669738869
  0
LINE
  5
B5F
  8
0
  6
CONTINUOUS
 62
     7
 10
126.0047408569894
 20
78.013591891178137
 30
0.0
 11
126.17675084334699
 21
77.768569176572214
 31
0.0
  0
LINE
  5
B60
  8
0
  6
CONTINUOUS
 62
     7
 10
126.0047408569894
 20
78.013591891178137
 30
0.0
 11
125.7592390000088
 21
77.841930206547062
 31
0.0
  0
LINE
  5
B61
  8
0
  6
CONTINUOUS
 62
     7
 10
125.68559832784899
 20
77.423722214195635
 30
0.0
 11
125.9643518447735
 21
77.026572457936652
 31
0.0
  0
LINE
  5
B62
  8
0
  6
CONTINUOUS
 62
     7
 10
125.93172798757649
 20
77.595565978110201
 30
0.0
 11
126.2139452381013
 21
77.193463528902555
 31
0.0
  0
ARC
  5
B63
  8
0
  6
CONTINUOUS
 62
     7
 10
126.3776489012897
 20
77.308359615253025
 30
0.0
 40
0.2
 50
215.0632546294847
 51
357.8688195470537
  0
ARC
  5
B64
  8
0
  6
CONTINUOUS
 62
     7
 10
126.3736050260684
 20
77.313821189178654
 30
0.0
 40
0.5
 50
215.06444677895411
 51
354.93497669738861
  0
LINE
  5
B65
  8
0
  6
CONTINUOUS
 62
     7
 10
126.17675084334699
 20
77.768569176572214
 30
0.0
 11
125.93172798757649
 21
77.595565978110201
 31
0.0
  0
ARC
  5
B66
  8
0
  6
CONTINUOUS
 62
     7
 10
125.9311502366258
 20
77.596071452940905
 30
0.0
 40
0.3
 50
124.9623095294601
 51
215.06444677895411
  0
LINE
  5
B67
  8
0
  6
CONTINUOUS
 62
     7
 10
126.57751056213731
 20
77.30092210738691
 30
0.0
 11
126.6276973257462
 21
78.649547225903476
 31
0.0
  0
LINE
  5
B68
  8
0
  6
CONTINUOUS
 62
     7
 10
126.8716525991169
 20
77.269678069891143
 30
0.0
 11
126.957762202613
 21
78.241215191181226
 31
0.0
  0
ARC
  5
B69
  8
0
  6
CONTINUOUS
 62
     7
 10
125.3857066081834
 20
77.223557943466233
 30
0.0
 40
0.2
 50
90.0
 51
180.0
  0
LINE
  5
B6A
  8
0
  6
CONTINUOUS
 62
     7
 10
125.3857066081834
 20
77.423557943466221
 30
0.0
 11
125.6857136270349
 21
77.423557943466221
 31
0.0
  0
LINE
  5
B6B
  8
0
  6
CONTINUOUS
 62
     7
 10
126.6276973257462
 20
78.649547225903476
 30
0.0
 11
125.52770660818339
 21
79.749537943466152
 31
0.0
  0
LINE
  5
B6C
  8
0
  6
CONTINUOUS
 62
     7
 10
126.9277066081834
 20
78.773507943557163
 30
0.0
 11
125.82770660818331
 21
79.87349794364799
 31
0.0
  0
CIRCLE
  5
B6D
  8
0
  6
CONTINUOUS
 62
     7
 10
130.6857066081833
 20
80.373537943466204
 30
0.0
 40
3.174999999999998
  0
LINE
  5
B6E
  8
0
  6
CONTINUOUS
 62
     7
 10
125.1857066081833
 20
75.973537943466212
 30
0.0
 11
125.18570660818349
 21
109.7735379434662
 31
0.0
  0
LINE
  5
B70
  8
0
  6
CONTINUOUS
 62
     7
 10
134.2406161818339
 20
103.4235279434662
 30
0.0
 11
133.1913175117156
 21
103.4235279434662
 31
0.0
  0
LINE
  5
B71
  8
0
  6
CONTINUOUS
 62
     7
 10
125.7857066081833
 20
100.3735379434662
 30
0.0
 11
135.58570660818339
 21
100.3735379434662
 31
0.0
  0
LINE
  5
B72
  8
0
  6
CONTINUOUS
 62
     7
 10
134.21443198453451
 20
107.3235179434662
 30
0.0
 11
133.1913266081834
 21
107.3235179434662
 31
0.0
  0
LINE
  5
B73
  8
0
  6
CONTINUOUS
 62
     7
 10
125.7857066081834
 20
110.3735379434662
 30
0.0
 11
135.58570660818339
 21
110.3735379434662
 31
0.0
  0
LINE
  5
B74
  8
0
  6
CONTINUOUS
 62
     7
 10
134.2406161818339
 20
82.323547943466153
 30
0.0
 11
133.1913175117156
 21
82.323547943466153
 31
0.0
  0
LINE
  5
B75
  8
0
  6
CONTINUOUS
 62
     7
 10
134.21443198453451
 20
78.423557943466221
 30
0.0
 11
133.1913266081834
 21
78.423557943466221
 31
0.0
  0
LINE
  5
B76
  8
0
  6
CONTINUOUS
 62
     7
 10
125.7857066081834
 20
75.373537943466232
 30
0.0
 11
135.58570660818339
 21
75.373537943466232
 31
0.0
  0
LINE
  5
B77
  8
0
  6
CONTINUOUS
 62
     7
 10
125.7857066081833
 20
85.373537943466204
 30
0.0
 11
135.58570660818339
 21
85.373537943466204
 31
0.0
  0
LINE
  5
B79
  8
0
  6
CONTINUOUS
 62
     7
 10
125.1858066081834
 20
108.3735379434661
 30
0.0
 11
120.18560660813139
 21
108.373537943466
 31
0.0
  0
LINE
  5
B7A
  8
0
  6
CONTINUOUS
 62
     7
 10
125.1858066081834
 20
77.37353794346609
 30
0.0
 11
120.18560660813139
 21
77.37353794346609
 31
0.0
  0
LINE
  5
B83
  8
0
  6
CONTINUOUS
 62
     7
 10
136.7856066081834
 20
85.373537943466303
 30
0.0
 11
146.5856066081835
 21
85.373537943466303
 31
0.0
  0
LINE
  5
B84
  8
0
  6
CONTINUOUS
 62
     7
 10
136.78560660818351
 20
75.373537943466374
 30
0.0
 11
146.5856066081835
 21
75.373537943466374
 31
0.0
  0
LINE
  5
B85
  8
0
  6
CONTINUOUS
 62
     7
 10
145.21433198453451
 20
78.423557943466363
 30
0.0
 11
144.1912266081834
 21
78.423557943466363
 31
0.0
  0
LINE
  5
B86
  8
0
  6
CONTINUOUS
 62
     7
 10
145.2405161818339
 20
82.323547943466309
 30
0.0
 11
144.19121751171571
 21
82.323547943466309
 31
0.0
  0
LINE
  5
B87
  8
0
  6
CONTINUOUS
 62
     7
 10
136.78560660818351
 20
110.3735379434663
 30
0.0
 11
146.5856066081835
 21
110.3735379434663
 31
0.0
  0
LINE
  5
B88
  8
0
  6
CONTINUOUS
 62
     7
 10
145.21433198453451
 20
107.3235179434663
 30
0.0
 11
144.1912266081834
 21
107.3235179434663
 31
0.0
  0
LINE
  5
B89
  8
0
  6
CONTINUOUS
 62
     7
 10
136.7856066081834
 20
100.3735379434663
 30
0.0
 11
146.5856066081835
 21
100.3735379434663
 31
0.0
  0
LINE
  5
B8A
  8
0
  6
CONTINUOUS
 62
     7
 10
145.2405161818339
 20
103.4235279434663
 30
0.0
 11
144.19121751171571
 21
103.4235279434663
 31
0.0
  0
LINE
  5
B8B
  8
0
  6
CONTINUOUS
 62
     7
 10
136.18560660818329
 20
75.97353794346634
 30
0.0
 11
136.18560660818349
 21
109.77353794346629
 31
0.0
  0
CIRCLE
  5
B8C
  8
0
  6
CONTINUOUS
 62
     7
 10
141.68560660818341
 20
80.373537943466303
 30
0.0
 40
3.174999999999998
  0
LINE
  5
B8D
  8
0
  6
CONTINUOUS
 62
     7
 10
137.92760660818351
 20
78.773507943557263
 30
0.0
 11
136.8276066081834
 21
79.873497943648132
 31
0.0
  0
LINE
  5
B8E
  8
0
  6
CONTINUOUS
 62
     7
 10
137.62759732574619
 20
78.649547225903603
 30
0.0
 11
136.5276066081835
 21
79.749537943466308
 31
0.0
  0
LINE
  5
B8F
  8
0
  6
CONTINUOUS
 62
     7
 10
136.38560660818351
 20
77.423557943466378
 30
0.0
 11
136.685613627035
 21
77.423557943466378
 31
0.0
  0
ARC
  5
B90
  8
0
  6
CONTINUOUS
 62
     7
 10
136.38560660818351
 20
77.223557943466375
 30
0.0
 40
0.2
 50
90.0
 51
180.0
  0
LINE
  5
B91
  8
0
  6
CONTINUOUS
 62
     7
 10
137.871552599117
 20
77.269678069891256
 30
0.0
 11
137.95766220261311
 21
78.24121519118134
 31
0.0
  0
LINE
  5
B92
  8
0
  6
CONTINUOUS
 62
     7
 10
137.57741056213729
 20
77.300922107387024
 30
0.0
 11
137.62759732574619
 21
78.649547225903603
 31
0.0
  0
ARC
  5
B93
  8
0
  6
CONTINUOUS
 62
     7
 10
136.93105023662591
 20
77.596071452941018
 30
0.0
 40
0.3
 50
124.9623095294601
 51
215.06444677895411
  0
LINE
  5
B94
  8
0
  6
CONTINUOUS
 62
     7
 10
137.1766508433472
 20
77.768569176572342
 30
0.0
 11
136.9316279875766
 21
77.595565978110344
 31
0.0
  0
ARC
  5
B95
  8
0
  6
CONTINUOUS
 62
     7
 10
137.37350502606839
 20
77.313821189178782
 30
0.0
 40
0.5
 50
215.06444677895411
 51
354.93497669738861
  0
ARC
  5
B96
  8
0
  6
CONTINUOUS
 62
     7
 10
137.3775489012898
 20
77.308359615253153
 30
0.0
 40
0.2
 50
215.0632546294847
 51
357.8688195470537
  0
LINE
  5
B97
  8
0
  6
CONTINUOUS
 62
     7
 10
136.9316279875766
 20
77.595565978110344
 30
0.0
 11
137.21384523810141
 21
77.193463528902669
 31
0.0
  0
LINE
  5
B98
  8
0
  6
CONTINUOUS
 62
     7
 10
136.6854983278491
 20
77.423722214195791
 30
0.0
 11
136.9642518447736
 21
77.02657245793678
 31
0.0
  0
LINE
  5
B99
  8
0
  6
CONTINUOUS
 62
     7
 10
137.0046408569896
 20
78.01359189117828
 30
0.0
 11
136.75913900000879
 21
77.841930206547175
 31
0.0
  0
LINE
  5
B9A
  8
0
  6
CONTINUOUS
 62
     7
 10
137.0046408569896
 20
78.01359189117828
 30
0.0
 11
137.1766508433472
 21
77.768569176572342
 31
0.0
  0
ARC
  5
B9B
  8
0
  6
CONTINUOUS
 62
     7
 10
138.15688123183239
 20
78.223557943466332
 30
0.0
 40
0.2
 50
90.0
 51
174.93497669738869
  0
LINE
  5
B9C
  8
0
  6
CONTINUOUS
 62
     7
 10
138.15688123183239
 20
78.423557943466363
 30
0.0
 11
139.17998660818341
 21
78.423557943466363
 31
0.0
  0
LINE
  5
B9D
  8
0
  6
CONTINUOUS
 62
     7
 10
137.92760660818351
 20
77.902557943466334
 30
0.0
 11
137.92760660818351
 21
78.773507943557263
 31
0.0
  0
LINE
  5
B9E
  8
0
  6
CONTINUOUS
 62
     7
 10
136.38560660818351
 20
83.02354794346634
 30
0.0
 11
136.78559821808241
 21
83.02354794346634
 31
0.0
  0
ARC
  5
B9F
  8
0
  6
CONTINUOUS
 62
     7
 10
136.38560660818351
 20
83.223547943466301
 30
0.0
 40
0.2
 50
180.0
 51
270.0
  0
LINE
  5
BA0
  8
0
  6
CONTINUOUS
 62
     7
 10
136.5276066081835
 20
79.749537943466308
 30
0.0
 11
136.5276066081835
 21
82.423557943466307
 31
0.0
  0
LINE
  5
BA1
  8
0
  6
CONTINUOUS
 62
     7
 10
136.8276066081834
 20
79.873497943648132
 30
0.0
 11
136.8276066081834
 21
82.423557943466307
 31
0.0
  0
LINE
  5
BA2
  8
0
  6
CONTINUOUS
 62
     7
 10
137.61942748770329
 20
83.342059281163927
 30
0.0
 11
137.94279395650159
 21
82.4550466057687
 31
0.0
  0
ARC
  5
BA3
  8
0
  6
CONTINUOUS
 62
     7
 10
137.43152440967211
 20
83.273557943466301
 30
0.0
 40
0.2
 50
20.029668864289771
 51
90.0
  0
LINE
  5
BA4
  8
0
  6
CONTINUOUS
 62
     7
 10
137.25642908329871
 20
83.473557943466304
 30
0.0
 11
137.43152440967211
 21
83.473557943466304
 31
0.0
  0
ARC
  5
BA5
  8
0
  6
CONTINUOUS
 62
     7
 10
137.25642908329871
 20
83.273557943466301
 30
0.0
 40
0.2
 50
90.0
 51
140.00301023920321
  0
LINE
  5
BA6
  8
0
  6
CONTINUOUS
 62
     7
 10
136.78559821808241
 20
83.02354794346634
 30
0.0
 11
137.10321344065611
 21
83.402107415847922
 31
0.0
  0
ARC
  5
BA7
  8
0
  6
CONTINUOUS
 62
     7
 10
136.8276066081834
 20
82.423557943466307
 30
0.0
 40
0.3
 50
90.0
 51
180.0
  0
LINE
  5
BA8
  8
0
  6
CONTINUOUS
 62
     7
 10
136.8276066081834
 20
82.723557943466304
 30
0.0
 11
137.3476066081835
 21
82.723557943466304
 31
0.0
  0
LINE
  5
BA9
  8
0
  6
CONTINUOUS
 62
     7
 10
137.3476066081835
 20
82.723557943466304
 30
0.0
 11
137.3476066081835
 21
82.423557943466307
 31
0.0
  0
LINE
  5
BAA
  8
0
  6
CONTINUOUS
 62
     7
 10
137.3476066081835
 20
82.423557943466307
 30
0.0
 11
136.8276066081834
 21
82.423557943466307
 31
0.0
  0
ARC
  5
BAB
  8
0
  6
CONTINUOUS
 62
     7
 10
138.130697034533
 20
82.523547943466355
 30
0.0
 40
0.2
 50
200.0296688642897
 51
270.0
  0
LINE
  5
BAC
  8
0
  6
CONTINUOUS
 62
     7
 10
138.130697034533
 20
82.323547943466309
 30
0.0
 11
139.17999570465111
 21
82.323547943466309
 31
0.0
  0
LINE
  5
BAD
  8
0
  6
CONTINUOUS
 62
     7
 10
136.18560660818349
 20
84.623537943466204
 30
0.0
 11
136.18560660818349
 21
84.623637943466306
 31
0.0
  0
LINE
  5
BAE
  8
0
  6
CONTINUOUS
 62
     7
 10
136.18560660818349
 20
92.873537943466204
 30
0.0
 11
136.18570660818341
 21
92.873537943466204
 31
0.0
  0
LINE
  5
BAF
  8
0
  6
CONTINUOUS
 62
     7
 10
136.8276066081834
 20
105.8735779432844
 30
0.0
 11
136.8276066081834
 21
103.3235179434663
 31
0.0
  0
LINE
  5
BB0
  8
0
  6
CONTINUOUS
 62
     7
 10
136.5276066081835
 20
105.9975379434663
 30
0.0
 11
136.5276066081835
 21
103.3235179434663
 31
0.0
  0
CIRCLE
  5
BB1
  8
0
  6
CONTINUOUS
 62
     7
 10
141.68560660818341
 20
105.3735379434663
 30
0.0
 40
3.174999999999998
  0
LINE
  5
BB2
  8
0
  6
CONTINUOUS
 62
     7
 10
136.38560660818351
 20
102.72352794346629
 30
0.0
 11
136.78559821808241
 21
102.72352794346629
 31
0.0
  0
ARC
  5
BB3
  8
0
  6
CONTINUOUS
 62
     7
 10
136.38560660818351
 20
102.52352794346631
 30
0.0
 40
0.2
 50
90.0
 51
180.0
  0
ARC
  5
BB4
  8
0
  6
CONTINUOUS
 62
     7
 10
137.25642908329871
 20
102.47351794346631
 30
0.0
 40
0.2
 50
219.99698976079671
 51
269.99999999999841
  0
ARC
  5
BB5
  8
0
  6
CONTINUOUS
 62
     7
 10
137.43152440967211
 20
102.47351794346631
 30
0.0
 40
0.2
 50
270.0
 51
339.97033113571018
  0
LINE
  5
BB6
  8
0
  6
CONTINUOUS
 62
     7
 10
137.25642908329871
 20
102.2735179434663
 30
0.0
 11
137.43152440967211
 21
102.2735179434663
 31
0.0
  0
LINE
  5
BB7
  8
0
  6
CONTINUOUS
 62
     7
 10
137.61942748770329
 20
102.40501660576869
 30
0.0
 11
137.94279395650159
 21
103.29202928116391
 31
0.0
  0
LINE
  5
BB8
  8
0
  6
CONTINUOUS
 62
     7
 10
137.3476066081835
 20
103.3235179434663
 30
0.0
 11
136.8276066081834
 21
103.3235179434663
 31
0.0
  0
LINE
  5
BB9
  8
0
  6
CONTINUOUS
 62
     7
 10
136.8276066081834
 20
103.0235179434663
 30
0.0
 11
137.3476066081835
 21
103.0235179434663
 31
0.0
  0
ARC
  5
BBA
  8
0
  6
CONTINUOUS
 62
     7
 10
136.8276066081834
 20
103.3235179434663
 30
0.0
 40
0.3
 50
180.0
 51
270.0
  0
LINE
  5
BBB
  8
0
  6
CONTINUOUS
 62
     7
 10
136.78559821808241
 20
102.72352794346629
 30
0.0
 11
137.10321344065611
 21
102.3449684710847
 31
0.0
  0
LINE
  5
BBC
  8
0
  6
CONTINUOUS
 62
     7
 10
137.3476066081835
 20
103.0235179434663
 30
0.0
 11
137.3476066081835
 21
103.3235179434663
 31
0.0
  0
LINE
  5
BBD
  8
0
  6
CONTINUOUS
 62
     7
 10
138.130697034533
 20
103.4235279434663
 30
0.0
 11
139.17999570465111
 21
103.4235279434663
 31
0.0
  0
ARC
  5
BBE
  8
0
  6
CONTINUOUS
 62
     7
 10
138.130697034533
 20
103.22352794346619
 30
0.0
 40
0.2
 50
90.0
 51
159.9703311357101
  0
ARC
  5
BBF
  8
0
  6
CONTINUOUS
 62
     7
 10
136.38560660818351
 20
108.5235179434663
 30
0.0
 40
0.2
 50
180.0
 51
270.0
  0
LINE
  5
BC0
  8
0
  6
CONTINUOUS
 62
     7
 10
137.57741056213729
 20
108.4461537795456
 30
0.0
 11
137.62759732574619
 21
107.097528661029
 31
0.0
  0
LINE
  5
BC1
  8
0
  6
CONTINUOUS
 62
     7
 10
137.871552599117
 20
108.47739781704141
 30
0.0
 11
137.95766220261311
 21
107.5058606957512
 31
0.0
  0
LINE
  5
BC2
  8
0
  6
CONTINUOUS
 62
     7
 10
136.9316279875766
 20
108.15150990882231
 30
0.0
 11
137.21384523810141
 21
108.55361235802989
 31
0.0
  0
LINE
  5
BC3
  8
0
  6
CONTINUOUS
 62
     7
 10
136.6854983278491
 20
108.3233536727368
 30
0.0
 11
136.9642518447736
 21
108.7205034289959
 31
0.0
  0
LINE
  5
BC4
  8
0
  6
CONTINUOUS
 62
     7
 10
136.38560660818351
 20
108.3235179434663
 30
0.0
 11
136.685613627035
 21
108.3235179434663
 31
0.0
  0
LINE
  5
BC5
  8
0
  6
CONTINUOUS
 62
     7
 10
137.62759732574619
 20
107.097528661029
 30
0.0
 11
136.5276066081835
 21
105.9975379434663
 31
0.0
  0
LINE
  5
BC6
  8
0
  6
CONTINUOUS
 62
     7
 10
137.92760660818351
 20
106.9735679433754
 30
0.0
 11
136.8276066081834
 21
105.8735779432844
 31
0.0
  0
LINE
  5
BC7
  8
0
  6
CONTINUOUS
 62
     7
 10
137.0046408569896
 20
107.7334839957543
 30
0.0
 11
137.1766508433472
 21
107.97850671036031
 31
0.0
  0
LINE
  5
BC8
  8
0
  6
CONTINUOUS
 62
     7
 10
137.1766508433472
 20
107.97850671036031
 30
0.0
 11
136.9316279875766
 21
108.15150990882231
 31
0.0
  0
LINE
  5
BC9
  8
0
  6
CONTINUOUS
 62
     7
 10
137.0046408569896
 20
107.7334839957543
 30
0.0
 11
136.75913900000879
 21
107.9051456803854
 31
0.0
  0
ARC
  5
BCA
  8
0
  6
CONTINUOUS
 62
     7
 10
136.93105023662591
 20
108.1510044339916
 30
0.0
 40
0.3
 50
144.9355532210447
 51
235.0376904705397
  0
LINE
  5
BCB
  8
0
  6
CONTINUOUS
 62
     7
 10
138.15688123183239
 20
107.3235179434663
 30
0.0
 11
139.17998660818341
 21
107.3235179434663
 31
0.0
  0
LINE
  5
BCC
  8
0
  6
CONTINUOUS
 62
     7
 10
137.92760660818351
 20
107.8445179434663
 30
0.0
 11
137.92760660818351
 21
106.9735679433754
 31
0.0
  0
ARC
  5
BCD
  8
0
  6
CONTINUOUS
 62
     7
 10
138.15688123183239
 20
107.5235179434663
 30
0.0
 40
0.2
 50
185.06502330261119
 51
270.0
  0
ARC
  5
BCE
  8
0
  6
CONTINUOUS
 62
     7
 10
137.37350502606839
 20
108.4332546977539
 30
0.0
 40
0.5
 50
5.0650233026113201
 51
144.9355532210447
  0
ARC
  5
BCF
  8
0
  6
CONTINUOUS
 62
     7
 10
137.3775489012898
 20
108.4387162716795
 30
0.0
 40
0.2
 50
2.1311804529463081
 51
144.9367453705153
  0
LINE
  5
BD0
  8
0
  6
CONTINUOUS
 62
     7
 10
147.1856066081836
 20
75.97353794346634
 30
0.0
 11
147.18560660818341
 21
109.77353794346629
 31
0.0
  0
LINE
  5
BD1
  8
0
  6
CONTINUOUS
 62
     7
 10
145.7436158906207
 20
78.649547225903603
 30
0.0
 11
146.84360660818339
 21
79.749537943466308
 31
0.0
  0
LINE
  5
BD2
  8
0
  6
CONTINUOUS
 62
     7
 10
145.44360660818339
 20
78.773507943557263
 30
0.0
 11
146.54360660818341
 21
79.873497943648132
 31
0.0
  0
LINE
  5
BD3
  8
0
  6
CONTINUOUS
 62
     7
 10
146.19456237301961
 20
77.768569176572342
 30
0.0
 11
146.43958522879021
 21
77.595565978110344
 31
0.0
  0
ARC
  5
BD4
  8
0
  6
CONTINUOUS
 62
     7
 10
146.4401629797409
 20
77.596071452941018
 30
0.0
 40
0.3
 50
324.93555322104589
 51
55.037690470539808
  0
LINE
  5
BD5
  8
0
  6
CONTINUOUS
 62
     7
 10
145.79380265422961
 20
77.300922107387024
 30
0.0
 11
145.7436158906207
 21
78.649547225903603
 31
0.0
  0
LINE
  5
BD6
  8
0
  6
CONTINUOUS
 62
     7
 10
145.4996606172499
 20
77.269678069891256
 30
0.0
 11
145.41355101375399
 21
78.24121519118134
 31
0.0
  0
LINE
  5
BD7
  8
0
  6
CONTINUOUS
 62
     7
 10
146.68571488851779
 20
77.423722214195791
 30
0.0
 11
146.40696137159321
 21
77.02657245793678
 31
0.0
  0
ARC
  5
BD8
  8
0
  6
CONTINUOUS
 62
     7
 10
145.9977081902986
 20
77.313821189178782
 30
0.0
 40
0.5
 50
185.06502330261119
 51
324.93555322104589
  0
LINE
  5
BD9
  8
0
  6
CONTINUOUS
 62
     7
 10
146.43958522879021
 20
77.595565978110344
 30
0.0
 11
146.1573679782656
 21
77.193463528902669
 31
0.0
  0
ARC
  5
BDA
  8
0
  6
CONTINUOUS
 62
     7
 10
145.9936643150771
 20
77.308359615253153
 30
0.0
 40
0.2
 50
182.1311804529463
 51
324.93674537051538
  0
LINE
  5
BDB
  8
0
  6
CONTINUOUS
 62
     7
 10
146.98560660818339
 20
77.423557943466378
 30
0.0
 11
146.6855995893319
 21
77.423557943466378
 31
0.0
  0
ARC
  5
BDC
  8
0
  6
CONTINUOUS
 62
     7
 10
146.98560660818339
 20
77.223557943466375
 30
0.0
 40
0.2
 50
0.0
 51
90.0
  0
LINE
  5
BDD
  8
0
  6
CONTINUOUS
 62
     7
 10
146.3665723593773
 20
78.01359189117828
 30
0.0
 11
146.612074216358
 21
77.841930206547175
 31
0.0
  0
LINE
  5
BDE
  8
0
  6
CONTINUOUS
 62
     7
 10
145.44360660818339
 20
77.902557943466334
 30
0.0
 11
145.44360660818339
 21
78.773507943557263
 31
0.0
  0
LINE
  5
BDF
  8
0
  6
CONTINUOUS
 62
     7
 10
146.3665723593773
 20
78.01359189117828
 30
0.0
 11
146.19456237301961
 21
77.768569176572342
 31
0.0
  0
ARC
  5
BE0
  8
0
  6
CONTINUOUS
 62
     7
 10
145.21433198453451
 20
78.223557943466332
 30
0.0
 40
0.2
 50
5.0650233026113201
 51
90.0
  0
LINE
  5
BE1
  8
0
  6
CONTINUOUS
 62
     7
 10
146.54360660818341
 20
79.873497943648132
 30
0.0
 11
146.54360660818341
 21
82.423557943466307
 31
0.0
  0
LINE
  5
BE2
  8
0
  6
CONTINUOUS
 62
     7
 10
146.84360660818339
 20
79.749537943466308
 30
0.0
 11
146.84360660818339
 21
82.423557943466307
 31
0.0
  0
ARC
  5
BE3
  8
0
  6
CONTINUOUS
 62
     7
 10
146.54360660818341
 20
82.423557943466307
 30
0.0
 40
0.3
 50
0.0
 51
90.0
  0
LINE
  5
BE4
  8
0
  6
CONTINUOUS
 62
     7
 10
146.58561499828451
 20
83.02354794346634
 30
0.0
 11
146.2679997757109
 21
83.402107415847922
 31
0.0
  0
LINE
  5
BE5
  8
0
  6
CONTINUOUS
 62
     7
 10
146.0236066081834
 20
82.423557943466307
 30
0.0
 11
146.54360660818341
 21
82.423557943466307
 31
0.0
  0
LINE
  5
BE6
  8
0
  6
CONTINUOUS
 62
     7
 10
146.0236066081834
 20
82.723557943466304
 30
0.0
 11
146.0236066081834
 21
82.423557943466307
 31
0.0
  0
LINE
  5
BE7
  8
0
  6
CONTINUOUS
 62
     7
 10
146.54360660818341
 20
82.723557943466304
 30
0.0
 11
146.0236066081834
 21
82.723557943466304
 31
0.0
  0
ARC
  5
BE8
  8
0
  6
CONTINUOUS
 62
     7
 10
146.1147841330681
 20
83.273557943466301
 30
0.0
 40
0.2
 50
39.996989760796723
 51
90.0
  0
LINE
  5
BE9
  8
0
  6
CONTINUOUS
 62
     7
 10
146.1147841330681
 20
83.473557943466304
 30
0.0
 11
145.93968880669479
 21
83.473557943466304
 31
0.0
  0
ARC
  5
BEA
  8
0
  6
CONTINUOUS
 62
     7
 10
145.93968880669479
 20
83.273557943466301
 30
0.0
 40
0.2
 50
90.0
 51
159.9703311357101
  0
LINE
  5
BEB
  8
0
  6
CONTINUOUS
 62
     7
 10
145.75178572866341
 20
83.342059281163927
 30
0.0
 11
145.42841925986519
 21
82.4550466057687
 31
0.0
  0
ARC
  5
BEC
  8
0
  6
CONTINUOUS
 62
     7
 10
145.2405161818339
 20
82.523547943466355
 30
0.0
 40
0.2
 50
269.99999999999841
 51
339.97033113571018
  0
LINE
  5
BED
  8
0
  6
CONTINUOUS
 62
     7
 10
146.98560660818339
 20
83.02354794346634
 30
0.0
 11
146.58561499828451
 21
83.02354794346634
 31
0.0
  0
ARC
  5
BEE
  8
0
  6
CONTINUOUS
 62
     7
 10
146.98560660818339
 20
83.223547943466301
 30
0.0
 40
0.2
 50
270.0
 51
0.0
  0
LINE
  5
BEF
  8
0
  6
CONTINUOUS
 62
     7
 10
146.84360660818339
 20
105.9975379434663
 30
0.0
 11
146.84360660818339
 21
103.3235179434663
 31
0.0
  0
LINE
  5
BF0
  8
0
  6
CONTINUOUS
 62
     7
 10
146.54360660818341
 20
105.8735779432844
 30
0.0
 11
146.54360660818341
 21
103.3235179434663
 31
0.0
  0
ARC
  5
BF1
  8
0
  6
CONTINUOUS
 62
     7
 10
145.93968880669479
 20
102.47351794346631
 30
0.0
 40
0.2
 50
200.0296688642897
 51
270.0
  0
ARC
  5
BF2
  8
0
  6
CONTINUOUS
 62
     7
 10
146.1147841330681
 20
102.47351794346631
 30
0.0
 40
0.2
 50
270.0
 51
320.00301023920332
  0
LINE
  5
BF3
  8
0
  6
CONTINUOUS
 62
     7
 10
146.1147841330681
 20
102.2735179434663
 30
0.0
 11
145.93968880669479
 21
102.2735179434663
 31
0.0
  0
LINE
  5
BF4
  8
0
  6
CONTINUOUS
 62
     7
 10
146.58561499828451
 20
102.72352794346629
 30
0.0
 11
146.2679997757109
 21
102.3449684710847
 31
0.0
  0
ARC
  5
BF5
  8
0
  6
CONTINUOUS
 62
     7
 10
146.54360660818341
 20
103.3235179434663
 30
0.0
 40
0.3
 50
269.99999999999841
 51
0.0
  0
LINE
  5
BF6
  8
0
  6
CONTINUOUS
 62
     7
 10
146.54360660818341
 20
103.0235179434663
 30
0.0
 11
146.0236066081834
 21
103.0235179434663
 31
0.0
  0
LINE
  5
BF7
  8
0
  6
CONTINUOUS
 62
     7
 10
146.0236066081834
 20
103.3235179434663
 30
0.0
 11
146.54360660818341
 21
103.3235179434663
 31
0.0
  0
ARC
  5
BF8
  8
0
  6
CONTINUOUS
 62
     7
 10
145.2405161818339
 20
103.22352794346619
 30
0.0
 40
0.2
 50
20.029668864289771
 51
90.0
  0
LINE
  5
BF9
  8
0
  6
CONTINUOUS
 62
     7
 10
145.75178572866341
 20
102.40501660576869
 30
0.0
 11
145.42841925986519
 21
103.29202928116391
 31
0.0
  0
LINE
  5
BFA
  8
0
  6
CONTINUOUS
 62
     7
 10
146.0236066081834
 20
103.0235179434663
 30
0.0
 11
146.0236066081834
 21
103.3235179434663
 31
0.0
  0
ARC
  5
BFB
  8
0
  6
CONTINUOUS
 62
     7
 10
146.98560660818339
 20
102.52352794346631
 30
0.0
 40
0.2
 50
0.0
 51
90.0
  0
LINE
  5
BFC
  8
0
  6
CONTINUOUS
 62
     7
 10
146.98560660818339
 20
102.72352794346629
 30
0.0
 11
146.58561499828451
 21
102.72352794346629
 31
0.0
  0
LINE
  5
BFD
  8
0
  6
CONTINUOUS
 62
     7
 10
146.43958522879021
 20
108.15150990882231
 30
0.0
 11
146.1573679782656
 21
108.55361235802989
 31
0.0
  0
LINE
  5
BFE
  8
0
  6
CONTINUOUS
 62
     7
 10
146.68571488851779
 20
108.3233536727368
 30
0.0
 11
146.40696137159321
 21
108.7205034289959
 31
0.0
  0
LINE
  5
BFF
  8
0
  6
CONTINUOUS
 62
     7
 10
145.4996606172499
 20
108.47739781704141
 30
0.0
 11
145.41355101375399
 21
107.5058606957512
 31
0.0
  0
LINE
  5
C00
  8
0
  6
CONTINUOUS
 62
     7
 10
145.79380265422961
 20
108.4461537795456
 30
0.0
 11
145.7436158906207
 21
107.097528661029
 31
0.0
  0
ARC
  5
C01
  8
0
  6
CONTINUOUS
 62
     7
 10
146.98560660818339
 20
108.5235179434663
 30
0.0
 40
0.2
 50
270.0
 51
0.0
  0
LINE
  5
C02
  8
0
  6
CONTINUOUS
 62
     7
 10
145.44360660818339
 20
106.9735679433754
 30
0.0
 11
146.54360660818341
 21
105.8735779432844
 31
0.0
  0
LINE
  5
C03
  8
0
  6
CONTINUOUS
 62
     7
 10
145.7436158906207
 20
107.097528661029
 30
0.0
 11
146.84360660818339
 21
105.9975379434663
 31
0.0
  0
LINE
  5
C04
  8
0
  6
CONTINUOUS
 62
     7
 10
146.3665723593773
 20
107.7334839957543
 30
0.0
 11
146.612074216358
 21
107.9051456803854
 31
0.0
  0
LINE
  5
C05
  8
0
  6
CONTINUOUS
 62
     7
 10
146.19456237301961
 20
107.97850671036031
 30
0.0
 11
146.43958522879021
 21
108.15150990882231
 31
0.0
  0
LINE
  5
C06
  8
0
  6
CONTINUOUS
 62
     7
 10
145.44360660818339
 20
107.8445179434663
 30
0.0
 11
145.44360660818339
 21
106.9735679433754
 31
0.0
  0
LINE
  5
C07
  8
0
  6
CONTINUOUS
 62
     7
 10
146.3665723593773
 20
107.7334839957543
 30
0.0
 11
146.19456237301961
 21
107.97850671036031
 31
0.0
  0
ARC
  5
C08
  8
0
  6
CONTINUOUS
 62
     7
 10
145.21433198453451
 20
107.5235179434663
 30
0.0
 40
0.2
 50
270.0
 51
354.93497669738861
  0
LINE
  5
C09
  8
0
  6
CONTINUOUS
 62
     7
 10
146.98560660818339
 20
108.3235179434663
 30
0.0
 11
146.6855995893319
 21
108.3235179434663
 31
0.0
  0
ARC
  5
C0A
  8
0
  6
CONTINUOUS
 62
     7
 10
146.4401629797409
 20
108.1510044339916
 30
0.0
 40
0.3
 50
304.96230952946019
 51
35.064446778954107
  0
ARC
  5
C0B
  8
0
  6
CONTINUOUS
 62
     7
 10
145.9936643150771
 20
108.4387162716795
 30
0.0
 40
0.2
 50
35.063254629484661
 51
177.86881954705359
  0
ARC
  5
C0C
  8
0
  6
CONTINUOUS
 62
     7
 10
145.9977081902986
 20
108.4332546977539
 30
0.0
 40
0.5
 50
35.064446778954107
 51
174.93497669738869
  0
ARC
  5
C0D
  8
0
  6
CONTINUOUS
 62
     7
 10
136.78560660818351
 20
109.77353794346629
 30
0.0
 40
0.6
 50
90.0
 51
180.0
  0
ARC
  5
C0E
  8
0
  6
CONTINUOUS
 62
     7
 10
146.5856066081835
 20
109.77353794346629
 30
0.0
 40
0.6
 50
0.0
 51
90.0
  0
ARC
  5
C0F
  8
0
  6
CONTINUOUS
 62
     7
 10
146.5856066081835
 20
100.9735379434662
 30
0.0
 40
0.6
 50
270.0
 51
0.0
  0
ARC
  5
C10
  8
0
  6
CONTINUOUS
 62
     7
 10
136.7856066081834
 20
100.9735379434662
 30
0.0
 40
0.6
 50
180.0
 51
270.0
  0
ARC
  5
C11
  8
0
  6
CONTINUOUS
 62
     7
 10
136.78560660818351
 20
75.97353794346634
 30
0.0
 40
0.6
 50
180.0
 51
270.0
  0
ARC
  5
C12
  8
0
  6
CONTINUOUS
 62
     7
 10
146.5856066081835
 20
75.97353794346634
 30
0.0
 40
0.6
 50
270.0
 51
0.0
  0
ARC
  5
C13
  8
0
  6
CONTINUOUS
 62
     7
 10
146.5856066081835
 20
84.773537943466309
 30
0.0
 40
0.6
 50
0.0
 51
90.0
  0
ARC
  5
C14
  8
0
  6
CONTINUOUS
 62
     7
 10
136.7856066081834
 20
84.773537943466309
 30
0.0
 40
0.6
 50
90.0
 51
180.0
  0
ENDSEC
  0
EOF
