  0
SECTION
  2
HEADER
  9
$ACADVER
  1
AC1009
  9
$INSBASE
 10
0.0
 20
0.0
 30
0.0
  9
$EXTMIN
 10
7.2208569511219558
 20
10.834668311046229
 30
0.0
  9
$EXTMAX
 10
136.3013093159646
 20
70.015887249326013
 30
0.0
  9
$LIMMIN
 10
0.0
 20
0.0
  9
$LIMMAX
 10
420.0
 20
297.0
  9
$ORTHOMODE
 70
     0
  9
$REGENMODE
 70
     1
  9
$FILLMODE
 70
     1
  9
$QTEXTMODE
 70
     0
  9
$MIRRTEXT
 70
     1
  9
$DRAGMODE
 70
     2
  9
$LTSCALE
 40
0.1
  9
$OSMODE
 70
  2085
  9
$ATTMODE
 70
     1
  9
$TEXTSIZE
 40
2.5
  9
$TRACEWID
 40
1.0
  9
$TEXTSTYLE
  7
STANDARD
  9
$CLAYER
  8
0
  9
$CELTYPE
  6
BYLAYER
  9
$CECOLOR
 62
   256
  9
$DIMSCALE
 40
1.0
  9
$DIMASZ
 40
2.5
  9
$DIMEXO
 40
1.0
  9
$DIMDLI
 40
7.0
  9
$DIMRND
 40
0.0
  9
$DIMDLE
 40
0.0
  9
$DIMEXE
 40
0.9999999999999998
  9
$DIMTP
 40
0.0
  9
$DIMTM
 40
0.0
  9
$DIMTXT
 40
2.5
  9
$DIMCEN
 40
0.0
  9
$DIMTSZ
 40
0.0
  9
$DIMTOL
 70
     0
  9
$DIMLIM
 70
     0
  9
$DIMTIH
 70
     0
  9
$DIMTOH
 70
     0
  9
$DIMSE1
 70
     0
  9
$DIMSE2
 70
     0
  9
$DIMTAD
 70
     1
  9
$DIMZIN
 70
     9
  9
$DIMBLK
  1

  9
$DIMASO
 70
     1
  9
$DIMSHO
 70
     1
  9
$DIMPOST
  1

  9
$DIMAPOST
  1

  9
$DIMALT
 70
     0
  9
$DIMALTD
 70
     3
  9
$DIMALTF
 40
0.03937007874016
  9
$DIMLFAC
 40
1.0
  9
$DIMTOFL
 70
     1
  9
$DIMTVP
 40
0.0
  9
$DIMTIX
 70
     0
  9
$DIMSOXD
 70
     0
  9
$DIMSAH
 70
     0
  9
$DIMBLK1
  1

  9
$DIMBLK2
  1

  9
$DIMSTYLE
  2
DIM
  9
$DIMCLRD
 70
     0
  9
$DIMCLRE
 70
     0
  9
$DIMCLRT
 70
     0
  9
$DIMTFAC
 40
1.0
  9
$DIMGAP
 40
1.0
  9
$LUNITS
 70
     2
  9
$LUPREC
 70
     2
  9
$SKETCHINC
 40
1.0
  9
$FILLETRAD
 40
10.0
  9
$AUNITS
 70
     0
  9
$AUPREC
 70
     2
  9
$MENU
  1
.
  9
$ELEVATION
 40
0.0
  9
$PELEVATION
 40
0.0
  9
$THICKNESS
 40
0.0
  9
$LIMCHECK
 70
     0
  9
$BLIPMODE
 70
     0
  9
$CHAMFERA
 40
10.0
  9
$CHAMFERB
 40
10.0
  9
$SKPOLY
 70
     0
  9
$TDCREATE
 40
2452717.826500278
  9
$TDUPDATE
 40
2452718.890610659
  9
$TDINDWG
 40
0.0233046875
  9
$TDUSRTIMER
 40
0.0233037616
  9
$USRTIMER
 70
     1
  9
$ANGBASE
 50
0.0
  9
$ANGDIR
 70
     0
  9
$PDMODE
 70
     0
  9
$PDSIZE
 40
0.0
  9
$PLINEWID
 40
0.0
  9
$COORDS
 70
     2
  9
$SPLFRAME
 70
     0
  9
$SPLINETYPE
 70
     6
  9
$SPLINESEGS
 70
     8
  9
$ATTDIA
 70
     0
  9
$ATTREQ
 70
     1
  9
$HANDLING
 70
-16383
  9
$HANDSEED
  5
B12
  9
$SURFTAB1
 70
     6
  9
$SURFTAB2
 70
     6
  9
$SURFTYPE
 70
     6
  9
$SURFU
 70
     6
  9
$SURFV
 70
     6
  9
$UCSNAME
  2

  9
$UCSORG
 10
0.0
 20
0.0
 30
0.0
  9
$UCSXDIR
 10
1.0
 20
0.0
 30
0.0
  9
$UCSYDIR
 10
0.0
 20
1.0
 30
0.0
  9
$PUCSNAME
  2

  9
$PUCSORG
 10
0.0
 20
0.0
 30
0.0
  9
$PUCSXDIR
 10
1.0
 20
0.0
 30
0.0
  9
$PUCSYDIR
 10
0.0
 20
1.0
 30
0.0
  9
$USERI1
 70
     0
  9
$USERI2
 70
     0
  9
$USERI3
 70
     0
  9
$USERI4
 70
     0
  9
$USERI5
 70
     0
  9
$USERR1
 40
0.0
  9
$USERR2
 40
0.0
  9
$USERR3
 40
0.0
  9
$USERR4
 40
0.0
  9
$USERR5
 40
0.0
  9
$WORLDVIEW
 70
     1
  9
$SHADEDGE
 70
     3
  9
$SHADEDIF
 70
    70
  9
$TILEMODE
 70
     1
  9
$MAXACTVP
 70
    64
  9
$PLIMCHECK
 70
     0
  9
$PEXTMIN
 10
1.0000000000000000E+020
 20
1.0000000000000000E+020
 30
1.0000000000000000E+020
  9
$PEXTMAX
 10
-1.0000000000000000E+020
 20
-1.0000000000000000E+020
 30
-1.0000000000000000E+020
  9
$PLIMMIN
 10
0.0
 20
0.0
  9
$PLIMMAX
 10
420.0
 20
297.0
  9
$UNITMODE
 70
     0
  9
$VISRETAIN
 70
     1
  9
$PLINEGEN
 70
     0
  9
$PSLTSCALE
 70
     1
  0
ENDSEC
  0
SECTION
  2
TABLES
  0
TABLE
  2
VPORT
 70
     5
  0
VPORT
  2
*ACTIVE
 70
     0
 10
0.0
 20
0.0
 11
1.0
 21
1.0
 12
68.36213902025267
 22
28.381943027323508
 13
0.0
 23
0.0
 14
10.0
 24
10.0
 15
10.0
 25
10.0
 16
0.0
 26
0.0
 36
1.0
 17
0.0
 27
0.0
 37
0.0
 40
194.15026801375021
 41
0.9403973509933775
 42
50.0
 43
0.0
 44
0.0
 50
0.0
 51
0.0
 71
     0
 72
   100
 73
     1
 74
     3
 75
     0
 76
     0
 77
     0
 78
     0
  0
ENDTAB
  0
TABLE
  2
LTYPE
 70
     3
  0
LTYPE
  2
CONTINUOUS
 70
     0
  3
Solid line
 72
    65
 73
     0
 40
0.0
  0
LTYPE
  2
CENTER
 70
     0
  3
Center ____ _ ____ _ ____ _ ____ _ ____ _ ____
 72
    65
 73
     4
 40
50.799999999999997
 49
31.75
 49
-6.349999999999997
 49
6.349999999999997
 49
-6.349999999999997
  0
LTYPE
  2
DASHED
 70
     0
  3
Dashed __ __ __ __ __ __ __ __ __ __ __ __ __ _
 72
    65
 73
     2
 40
19.049999999999969
 49
12.699999999999999
 49
-6.349999999999997
  0
ENDTAB
  0
TABLE
  2
LAYER
 70
     2
  0
LAYER
  2
0
 70
     0
 62
     7
  6
CONTINUOUS
  0
LAYER
  2
CENTER
 70
     0
 62
     1
  6
CONTINUOUS
  0
ENDTAB
  0
TABLE
  2
STYLE
 70
     1
  0
STYLE
  2
STANDARD
 70
     0
 40
0.0
 41
1.0
 50
0.0
 71
     0
 42
2.5
  3
txt.shx
  4
bigfont.shx
  0
ENDTAB
  0
TABLE
  2
VIEW
 70
     0
  0
ENDTAB
  0
TABLE
  2
UCS
 70
     0
  0
ENDTAB
  0
TABLE
  2
APPID
 70
     1
  0
APPID
  2
ACAD
 70
     0
  0
ENDTAB
  0
TABLE
  2
DIMSTYLE
 70
     1
  0
DIMSTYLE
  2
DIM
 70
     0
  3

  4

  5

  6

  7

 40
1.0
 41
2.5
 42
1.0
 43
7.0
 44
0.9999999999999998
 45
0.0
 46
0.0
 47
0.0
 48
0.0
140
2.5
141
0.0
142
0.0
143
0.03937007874016
144
1.0
145
0.0
146
1.0
147
1.0
 71
     0
 72
     0
 73
     0
 74
     0
 75
     0
 76
     0
 77
     1
 78
     9
170
     0
171
     3
172
     1
173
     0
174
     0
175
     0
176
     0
177
     0
178
     0
  0
ENDTAB
  0
ENDSEC
  0
SECTION
  2
BLOCKS
  0
BLOCK
  8
0
  2
$MODEL_SPACE
 70
     0
 10
0.0
 20
0.0
 30
0.0
  3
$MODEL_SPACE
  1

  0
ENDBLK
  5
A30
  8
0
  0
BLOCK
 67
     1
  8
0
  2
$PAPER_SPACE
 70
     0
 10
0.0
 20
0.0
 30
0.0
  3
$PAPER_SPACE
  1

  0
ENDBLK
  5
A2C
 67
     1
  8
0
  0
ENDSEC
  0
SECTION
  2
ENTITIES
  0
LINE
  5
AC0
  8
CENTER
  6
CENTER
 10
35.3354754053858
 20
58.932983480671091
 30
0.0
 11
13.169667868076029
 21
58.932983480671091
 31
0.0
  0
TEXT
  5
AC1
  8
0
 10
18.125450854650861
 20
12.76161737960026
 30
0.0
 40
2.5
  1
SAC8
  0
LINE
  5
AC2
  8
0
 10
132.21840554730969
 20
54.89153159634369
 30
0.0
 11
132.21840554730969
 21
62.97443536499847
 31
0.0
  0
LINE
  5
AC3
  8
0
 10
118.2184055473097
 20
62.97443536499852
 30
0.0
 11
118.2184055473097
 21
54.891531596343746
 31
0.0
  0
CIRCLE
  5
AC4
  8
0
 10
125.2184055473097
 20
58.932983480671091
 30
0.0
 40
7.0
  0
LINE
  5
AC5
  8
0
 10
88.054839098933869
 20
67.015887249325914
 30
0.0
 11
88.05483909893411
 21
50.850079712016537
 31
0.0
  0
LINE
  5
AC6
  8
CENTER
  6
CENTER
 10
125.2184055473097
 20
70.015887249326013
 30
0.0
 11
125.2184055473097
 21
47.850079712016139
 31
0.0
  0
LINE
  5
AC7
  8
0
  6
DASHED
 62
     3
 10
69.054839098933655
 20
54.932983480671083
 30
0.0
 11
70.226571470253759
 21
55.609483480671059
 31
0.0
  0
LINE
  5
AC8
  8
0
  6
CONTINUOUS
 10
53.054839098933883
 20
65.952984333363901
 30
0.0
 11
53.054839098933883
 21
51.912981672134073
 31
0.0
  0
LINE
  5
AC9
  8
0
 10
53.054839098933883
 20
62.932983662004261
 30
0.0
 11
53.054839098933883
 21
54.932983662004261
 31
0.0
  0
ARC
  5
ACA
  8
0
  6
CONTINUOUS
 10
66.128690538933881
 20
58.932982567944087
 30
0.0
 40
13.07385143999999
 50
161.94027999999739
 51
198.05971200000039
  0
LINE
  5
ACB
  8
0
  6
DASHED
 62
     3
 10
69.054839098933655
 20
54.932983480671027
 30
0.0
 11
69.054839098933655
 21
62.932983480671027
 31
0.0
  0
CIRCLE
  5
ACC
  8
0
  6
CONTINUOUS
 62
     3
 10
24.25257163673092
 20
58.932983480671091
 30
0.0
 40
4.0
  0
CIRCLE
  5
ACD
  8
0
 10
24.25257163673092
 20
58.932983480671091
 30
0.0
 40
7.0
  0
LINE
  5
ACE
  8
0
 10
31.25257163673092
 20
54.89153159634369
 30
0.0
 11
31.25257163673092
 21
62.97443536499847
 31
0.0
  0
LINE
  5
ACF
  8
0
 10
17.25257163673092
 20
62.97443536499852
 30
0.0
 11
17.25257163673092
 21
54.891531596343746
 31
0.0
  0
LINE
  5
AD0
  8
CENTER
  6
CENTER
 10
24.25257163673092
 20
70.015887249326013
 30
0.0
 11
24.25257163673092
 21
47.850079712016139
 31
0.0
  0
TEXT
  5
AD1
  8
0
 10
18.125450854650861
 20
27.76161737960026
 30
0.0
 40
2.5
  1
SAC 8 - 50 - N6 - E15
  0
LINE
  5
AD2
  8
0
 10
24.25257163673092
 20
50.850079712016537
 30
0.0
 11
31.25257163673092
 21
54.89153159634369
 31
0.0
  0
LINE
  5
AD3
  8
0
 10
17.25257163673092
 20
54.891531596343746
 30
0.0
 11
24.25257163673092
 21
50.850079712016537
 31
0.0
  0
LINE
  5
AD4
  8
0
 10
53.698935788641222
 20
54.879985118799901
 30
0.0
 11
88.05483909893411
 21
54.879985118800072
 31
0.0
  0
LINE
  5
AD5
  8
0
 10
53.668505844356609
 20
50.85007971201648
 30
0.0
 11
88.05483909893411
 21
50.850079712016537
 31
0.0
  0
LINE
  5
AD6
  8
0
  6
DASHED
 62
     3
 10
53.054839098933648
 20
54.932983480671027
 30
0.0
 11
69.054839098933655
 21
54.932983480671027
 31
0.0
  0
LINE
  5
AD7
  8
0
  6
CONTINUOUS
 10
53.668505844356609
 20
50.85007971201648
 30
0.0
 11
53.054839098933883
 21
51.912981672134073
 31
0.0
  0
ARC
  5
AD8
  8
0
  6
CONTINUOUS
 10
56.564838018933933
 20
52.853484586748969
 30
0.0
 40
3.509999999999998
 50
144.73561000000001
 51
210.00000100000449
  0
LINE
  5
AD9
  8
0
 10
125.2184055473097
 20
50.850079712016537
 30
0.0
 11
132.21840554730969
 21
54.89153159634369
 31
0.0
  0
LINE
  5
ADA
  8
0
 10
118.2184055473097
 20
54.891531596343746
 30
0.0
 11
125.2184055473097
 21
50.850079712016537
 31
0.0
  0
LINE
  5
ADB
  8
0
 10
89.554839098934337
 20
56.474483480671068
 30
0.0
 11
88.054839098933869
 21
56.474483480671068
 31
0.0
  0
LINE
  5
ADC
  8
0
 10
89.554839098934337
 20
61.391483480671091
 30
0.0
 11
88.054839098933869
 21
61.391483480671091
 31
0.0
  0
LINE
  5
ADD
  8
CENTER
  6
CENTER
 10
43.054839098933883
 20
58.932983480671091
 30
0.0
 11
111.0548390989338
 21
58.932983480671091
 31
0.0
  0
LINE
  5
ADE
  8
0
 10
24.25257163673092
 20
67.015887249326013
 30
0.0
 11
17.25257163673092
 21
62.97443536499852
 31
0.0
  0
LINE
  5
ADF
  8
0
 10
31.25257163673092
 20
62.97443536499847
 30
0.0
 11
24.25257163673092
 21
67.015887249326013
 31
0.0
  0
CIRCLE
  5
AE0
  8
0
 10
24.25257163673092
 20
58.932983480671091
 30
0.0
 40
3.3235000000000001
  0
ARC
  5
AE1
  8
0
  6
CONTINUOUS
 10
56.564838018933933
 20
65.012481418748763
 30
0.0
 40
3.5099992439999981
 50
145.19599152088011
 51
215.26439999999431
  0
LINE
  5
AE2
  8
0
 10
53.695177328084178
 20
62.97443536499847
 30
0.0
 11
88.05483909893411
 21
62.97443536499847
 31
0.0
  0
LINE
  5
AE3
  8
0
  6
DASHED
 62
     3
 10
53.054839098933883
 20
55.609483480671088
 30
0.0
 11
72.054839098933655
 21
55.609483480671088
 31
0.0
  0
LINE
  5
AE4
  8
0
  6
DASHED
 62
     3
 10
53.054839098933883
 20
62.256483480671079
 30
0.0
 11
72.054839098933655
 21
62.256483480671079
 31
0.0
  0
LINE
  5
AE5
  8
0
  6
DASHED
 62
     3
 10
53.054839098933648
 20
62.932983480671083
 30
0.0
 11
69.054839098933655
 21
62.932983480671083
 31
0.0
  0
LINE
  5
AE6
  8
0
 10
53.054839098933648
 20
62.442983668056137
 30
0.0
 11
53.054839098933648
 21
62.442883668056169
 31
0.0
  0
LINE
  5
AE7
  8
0
  6
DASHED
 62
     3
 10
69.054839098933655
 20
62.932983480671027
 30
0.0
 11
70.226571470253759
 21
62.256483480671079
 31
0.0
  0
LINE
  5
AE8
  8
0
  6
DASHED
 62
     3
 10
72.054839098933655
 20
62.256483480671022
 30
0.0
 11
73.578648622743287
 21
58.932983480671091
 31
0.0
  0
LINE
  5
AE9
  8
0
  6
DASHED
 62
     3
 10
72.054839098933655
 20
55.609483480671088
 30
0.0
 11
73.578648622743287
 21
58.932983480671091
 31
0.0
  0
LINE
  5
AEA
  8
0
  6
DASHED
 62
     3
 10
72.054839098933655
 20
55.609483480671031
 30
0.0
 11
72.054839098933655
 21
62.256483480671022
 31
0.0
  0
LINE
  5
AEB
  8
0
 10
53.682745069204707
 20
67.015887249325914
 30
0.0
 11
88.05483909893411
 21
67.015887249325914
 31
0.0
  0
LINE
  5
AEC
  8
0
  6
CONTINUOUS
 10
53.668506396213893
 20
67.015887249326084
 30
0.0
 11
53.054839098933883
 21
65.952984333363901
 31
0.0
  0
CIRCLE
  5
AED
  8
0
 10
125.2184055473097
 20
58.932983480671091
 30
0.0
 40
2.9999999999999711
  0
CIRCLE
  5
AEE
  8
0
 62
     3
 10
125.2184055473097
 20
58.932983480671091
 30
0.0
 40
2.458500000000015
  0
LINE
  5
AEF
  8
0
 10
132.21840554730969
 20
62.97443536499847
 30
0.0
 11
125.2184055473097
 21
67.015887249326013
 31
0.0
  0
LINE
  5
AF0
  8
CENTER
  6
CENTER
 10
136.3013093159646
 20
58.932983480671091
 30
0.0
 11
114.1355017786548
 21
58.932983480671091
 31
0.0
  0
LINE
  5
AF1
  8
0
 10
125.2184055473097
 20
67.015887249326013
 30
0.0
 11
118.2184055473097
 21
62.97443536499852
 31
0.0
  0
LINE
  5
AF2
  8
0
 10
90.054839098934323
 20
55.932983480671083
 30
0.0
 11
89.554839098934337
 21
56.474483480671068
 31
0.0
  0
LINE
  5
AF3
  8
0
 10
90.054839098934323
 20
61.932983480671083
 30
0.0
 11
89.554839098934337
 21
61.43298348067119
 31
0.0
  0
LINE
  5
AF4
  8
0
 10
90.054839098934323
 20
61.932983480671083
 30
0.0
 11
90.054839098934323
 21
55.932983480671083
 31
0.0
  0
LINE
  5
AF5
  8
0
 10
89.554839098934337
 20
61.391483480671091
 30
0.0
 11
89.554839098933883
 21
56.474483480671068
 31
0.0
  0
LINE
  5
AF6
  8
0
 10
90.054839098934323
 20
61.932983480671083
 30
0.0
 11
102.5548390989338
 21
61.932983480671083
 31
0.0
  0
LINE
  5
AF7
  8
0
 62
     3
 10
89.554839098934337
 20
61.391483480671091
 30
0.0
 11
103.0548390989338
 21
61.391483480671091
 31
0.0
  0
LINE
  5
AF8
  8
0
 62
     3
 10
89.554839098934337
 20
56.474483480671068
 30
0.0
 11
103.0548390989338
 21
56.474483480671068
 31
0.0
  0
LINE
  5
AF9
  8
0
 10
90.054839098934323
 20
55.932983480671083
 30
0.0
 11
102.5548390989338
 21
55.932983480671083
 31
0.0
  0
LINE
  5
AFA
  8
0
 10
103.0548390989338
 20
61.391483480671091
 30
0.0
 11
103.0548390989338
 21
56.474483480671068
 31
0.0
  0
LINE
  5
AFB
  8
0
 10
102.5548390989338
 20
61.93298348067102
 30
0.0
 11
102.5548390989338
 21
55.932983480671083
 31
0.0
  0
LINE
  5
AFC
  8
0
 10
103.0548390989338
 20
56.474483480671068
 30
0.0
 11
102.5548390989338
 21
55.932983480671083
 31
0.0
  0
LINE
  5
AFD
  8
0
 10
102.5548390989338
 20
61.932983480671083
 30
0.0
 11
103.0548390989338
 21
61.391483480671091
 31
0.0
  0
ENDSEC
  0
EOF
