  0
SECTION
  2
HEADER
  9
$ACADVER
  1
AC1009
  9
$INSBASE
 10
0.0
 20
0.0
 30
0.0
  9
$EXTMIN
 10
10.0
 20
10.0
 30
0.0
  9
$EXTMAX
 10
127.3642865440312
 20
57.89999999999992
 30
0.0
  9
$LIMMIN
 10
0.0
 20
0.0
  9
$LIMMAX
 10
420.0
 20
297.0
  9
$ORTHOMODE
 70
     1
  9
$REGENMODE
 70
     1
  9
$FILLMODE
 70
     1
  9
$QTEXTMODE
 70
     0
  9
$MIRRTEXT
 70
     0
  9
$DRAGMODE
 70
     2
  9
$LTSCALE
 40
1.0
  9
$OSMODE
 70
    37
  9
$ATTMODE
 70
     1
  9
$TEXTSIZE
 40
2.5
  9
$TRACEWID
 40
1.0
  9
$TEXTSTYLE
  7
STANDARD
  9
$CLAYER
  8
0
  9
$CELTYPE
  6
CONTINUOUS
  9
$CECOLOR
 62
     7
  9
$DIMSCALE
 40
1.0
  9
$DIMASZ
 40
1.5
  9
$DIMEXO
 40
0.625
  9
$DIMDLI
 40
3.75
  9
$DIMRND
 40
0.0
  9
$DIMDLE
 40
0.0
  9
$DIMEXE
 40
1.25
  9
$DIMTP
 40
0.0
  9
$DIMTM
 40
0.0
  9
$DIMTXT
 40
2.5
  9
$DIMCEN
 40
0.0
  9
$DIMTSZ
 40
0.0
  9
$DIMTOL
 70
     0
  9
$DIMLIM
 70
     0
  9
$DIMTIH
 70
     0
  9
$DIMTOH
 70
     0
  9
$DIMSE1
 70
     0
  9
$DIMSE2
 70
     0
  9
$DIMTAD
 70
     1
  9
$DIMZIN
 70
     8
  9
$DIMBLK
  1

  9
$DIMASO
 70
     1
  9
$DIMSHO
 70
     1
  9
$DIMPOST
  1

  9
$DIMAPOST
  1

  9
$DIMALT
 70
     0
  9
$DIMALTD
 70
     3
  9
$DIMALTF
 40
0.03937007874016
  9
$DIMLFAC
 40
1.0
  9
$DIMTOFL
 70
     1
  9
$DIMTVP
 40
0.0
  9
$DIMTIX
 70
     1
  9
$DIMSOXD
 70
     0
  9
$DIMSAH
 70
     0
  9
$DIMBLK1
  1

  9
$DIMBLK2
  1

  9
$DIMSTYLE
  2
MISUMI
  9
$DIMCLRD
 70
     0
  9
$DIMCLRE
 70
     0
  9
$DIMCLRT
 70
     0
  9
$DIMTFAC
 40
1.0
  9
$DIMGAP
 40
0.625
  9
$LUNITS
 70
     2
  9
$LUPREC
 70
     4
  9
$SKETCHINC
 40
1.0
  9
$FILLETRAD
 40
1.0
  9
$AUNITS
 70
     0
  9
$AUPREC
 70
     0
  9
$MENU
  1
.
  9
$ELEVATION
 40
0.0
  9
$PELEVATION
 40
0.0
  9
$THICKNESS
 40
0.0
  9
$LIMCHECK
 70
     0
  9
$BLIPMODE
 70
     0
  9
$CHAMFERA
 40
1.0
  9
$CHAMFERB
 40
1.0
  9
$SKPOLY
 70
     0
  9
$TDCREATE
 40
2454424.6116537959
  9
$TDUPDATE
 40
2454509.7916188431
  9
$TDINDWG
 40
0.4593778472
  9
$TDUSRTIMER
 40
0.4593778472
  9
$USRTIMER
 70
     1
  9
$ANGBASE
 50
0.0
  9
$ANGDIR
 70
     0
  9
$PDMODE
 70
     0
  9
$PDSIZE
 40
0.0
  9
$PLINEWID
 40
0.0
  9
$COORDS
 70
     2
  9
$SPLFRAME
 70
     0
  9
$SPLINETYPE
 70
     6
  9
$SPLINESEGS
 70
     8
  9
$ATTDIA
 70
     0
  9
$ATTREQ
 70
     1
  9
$HANDLING
 70
     1
  9
$HANDSEED
  5
7FA6
  9
$SURFTAB1
 70
     6
  9
$SURFTAB2
 70
     6
  9
$SURFTYPE
 70
     6
  9
$SURFU
 70
     6
  9
$SURFV
 70
     6
  9
$UCSNAME
  2

  9
$UCSORG
 10
0.0
 20
0.0
 30
0.0
  9
$UCSXDIR
 10
1.0
 20
0.0
 30
0.0
  9
$UCSYDIR
 10
0.0
 20
1.0
 30
0.0
  9
$PUCSNAME
  2

  9
$PUCSORG
 10
0.0
 20
0.0
 30
0.0
  9
$PUCSXDIR
 10
1.0
 20
0.0
 30
0.0
  9
$PUCSYDIR
 10
0.0
 20
1.0
 30
0.0
  9
$USERI1
 70
     0
  9
$USERI2
 70
     0
  9
$USERI3
 70
     0
  9
$USERI4
 70
     0
  9
$USERI5
 70
     0
  9
$USERR1
 40
0.0
  9
$USERR2
 40
0.0
  9
$USERR3
 40
0.0
  9
$USERR4
 40
0.0
  9
$USERR5
 40
0.0
  9
$WORLDVIEW
 70
     1
  9
$SHADEDGE
 70
     3
  9
$SHADEDIF
 70
    70
  9
$TILEMODE
 70
     1
  9
$MAXACTVP
 70
    64
  9
$PLIMCHECK
 70
     0
  9
$PEXTMIN
 10
0.0
 20
0.0
 30
0.0
  9
$PEXTMAX
 10
0.0
 20
0.0
 30
0.0
  9
$PLIMMIN
 10
0.0
 20
0.0
  9
$PLIMMAX
 10
12.0
 20
9.0
  9
$UNITMODE
 70
     0
  9
$VISRETAIN
 70
     1
  9
$PLINEGEN
 70
     0
  9
$PSLTSCALE
 70
     1
  0
ENDSEC
  0
SECTION
  2
TABLES
  0
TABLE
  2
VPORT
 70
     1
  0
VPORT
  2
*ACTIVE
 70
     0
 10
0.0
 20
0.0
 11
1.0
 21
1.0
 12
74.055634364550542
 22
34.342438302750743
 13
0.0
 23
0.0
 14
10.0
 24
10.0
 15
10.0
 25
10.0
 16
0.0
 26
0.0
 36
1.0
 17
0.0
 27
0.0
 37
0.0
 40
121.45662439304149
 41
1.0628272251308899
 42
50.0
 43
0.0
 44
0.0
 50
0.0
 51
0.0
 71
     0
 72
  1000
 73
     1
 74
     3
 75
     0
 76
     0
 77
     0
 78
     0
  0
ENDTAB
  0
TABLE
  2
LTYPE
 70
     5
  0
LTYPE
  2
CONTINUOUS
 70
     0
  3
Solid line
 72
    65
 73
     0
 40
0.0
  0
LTYPE
  2
CENTER
 70
     0
  3
Center ____ _ ____ _ ____ _ ____ _ ____ _ ____
 72
    65
 73
     4
 40
2.0
 49
1.25
 49
-0.25
 49
0.25
 49
-0.25
  0
LTYPE
  2
DASHED
 70
     0
  3
Dashed __ __ __ __ __ __ __ __ __ __ __ __ __ _
 72
    65
 73
     2
 40
0.75
 49
0.5
 49
-0.25
  0
LTYPE
  2
PHANTOM
 70
     0
  3
Phantom ______  __  __  ______  __  __  ______
 72
    65
 73
     6
 40
2.5
 49
1.25
 49
-0.25
 49
0.25
 49
-0.25
 49
0.25
 49
-0.25
  0
ENDTAB
  0
TABLE
  2
LAYER
 70
     4
  0
LAYER
  2
0
 70
     0
 62
     7
  6
CONTINUOUS
  0
LAYER
  2
CENTER
 70
     0
 62
     1
  6
CENTER
  0
ENDTAB
  0
TABLE
  2
STYLE
 70
     3
  0
STYLE
  2
STANDARD
 70
     0
 40
0.0
 41
1.0
 50
0.0
 71
     0
 42
2.5
  3
txt.shx
  4

  0
ENDTAB
  0
TABLE
  2
VIEW
 70
     0
  0
ENDTAB
  0
TABLE
  2
UCS
 70
     0
  0
ENDTAB
  0
TABLE
  2
APPID
 70
    11
  0
APPID
  2
ACAD
 70
     0
  0
APPID
  2
ACAD_PSEXT
 70
     0
  0
APPID
  2
ACAECLAYERSTANDARD
 70
     0
  0
APPID
  2
GENIUS_GENCFG_13
 70
     0
  0
APPID
  2
GENIUS_GENCFG0_13
 70
     0
  0
APPID
  2
GENIUS_GENCFG1_13
 70
     0
  0
APPID
  2
GENIUS_GENCFG2_13
 70
     0
  0
APPID
  2
GENIUS_GENCFG3_13
 70
     0
  0
APPID
  2
GENIUS_GENCFG4_13
 70
     0
  0
APPID
  2
GENIUS_GEVCFG0_13
 70
     0
  0
APPID
  2
ACAD_EXEMPT_FROM_CAD_STANDARDS
 70
     0
  0
ENDTAB
  0
TABLE
  2
DIMSTYLE
 70
     2
  0
DIMSTYLE
  2
MISUMI
 70
     0
  3

  4

  5

  6

  7

 40
1.0
 41
1.5
 42
0.625
 43
3.75
 44
1.25
 45
0.0
 46
0.0
 47
0.0
 48
0.0
140
2.5
141
0.0
142
0.0
143
0.03937007874016
144
1.0
145
0.0
146
1.0
147
0.625
 71
     0
 72
     0
 73
     0
 74
     0
 75
     0
 76
     0
 77
     1
 78
     8
170
     0
171
     3
172
     1
173
     0
174
     1
175
     0
176
     0
177
     0
178
     0
  0
ENDTAB
  0
ENDSEC
  0
SECTION
  2
BLOCKS
  0
BLOCK
  8
0
  2
$MODEL_SPACE
 70
     0
 10
0.0
 20
0.0
 30
0.0
  3
$MODEL_SPACE
  1

  0
ENDBLK
  5
21
  8
0
  0
BLOCK
 67
     1
  8
0
  2
$PAPER_SPACE
 70
     0
 10
0.0
 20
0.0
 30
0.0
  3
$PAPER_SPACE
  1

  0
ENDBLK
  5
D5
 67
     1
  8
0
  0
BLOCK
  8
0
 62
     7
  2
*U23
 70
     1
 10
0.0
 20
0.0
 30
0.0
  3
*U23
  1

  0
TEXT
  5
7EF5
  8
0
  6
CONTINUOUS
 62
     0
 10
-1713.651808489032
 20
-557.14777595793987
 30
0.0
 40
2.5
  1
E
  0
ENDBLK
  5
7EF7
  8
0
 62
     7
  0
BLOCK
  8
0
 62
     7
  2
*U24
 70
     1
 10
0.0
 20
0.0
 30
0.0
  3
*U24
  1

  0
TEXT
  5
7EFC
  8
0
  6
CONTINUOUS
 62
     0
 10
-1741.986539771912
 20
-557.14603258276554
 30
0.0
 40
2.5
  1
l
  0
TEXT
  5
7EFD
  8
0
  6
CONTINUOUS
 62
     0
 10
-1741.0341588195311
 20
-557.14603258276554
 30
0.0
 40
2.5
  1
 
  0
TEXT
  5
7EFE
  8
0
  6
CONTINUOUS
 62
     0
 10
-1740.49894264101
 20
-556.79603258276541
 30
0.0
 40
1.7999999999999989
  1
1
  0
ENDBLK
  5
7F00
  8
0
 62
     7
  0
BLOCK
  8
0
 62
     7
  2
*U25
 70
     1
 10
0.0
 20
0.0
 30
0.0
  3
*U25
  1

  0
TEXT
  5
7F02
  8
0
  6
CONTINUOUS
 62
     0
 10
-1730.979573619916
 20
-557.14777595793987
 30
0.0
 40
2.5
  1
L
  0
ENDBLK
  5
7F04
  8
0
 62
     7
  0
BLOCK
  8
0
 62
     7
  2
*U26
 70
     1
 10
0.0
 20
0.0
 30
0.0
  3
*U26
  1

  0
TEXT
  5
7F06
  8
0
  6
CONTINUOUS
 62
     0
 10
-1721.1424292257309
 20
-557.14777595793987
 30
0.0
 40
2.5
  1
B
  0
ENDBLK
  5
7F08
  8
0
 62
     7
  0
BLOCK
  8
0
 62
     7
  2
*U27
 70
     1
 10
0.0
 20
0.0
 30
0.0
  3
*U27
  1

  0
TEXT
  5
7F0A
  8
0
  6
CONTINUOUS
 62
     0
 10
-1724.4079476431939
 20
-551.12560679013654
 30
0.0
 40
2.5
  1
3
  0
ENDBLK
  5
7F0C
  8
0
 62
     7
  0
BLOCK
  8
0
 62
     7
  2
*U28
 70
     1
 10
0.0
 20
0.0
 30
0.0
  3
*U28
  1

  0
TEXT
  5
7F0E
  8
0
  6
CONTINUOUS
 62
     0
 10
-1731.9172259154161
 20
-544.11387213802186
 30
0.0
 40
2.5
  1
D
 50
90.0
  0
TEXT
  5
7F0F
  8
0
  6
CONTINUOUS
 62
     0
 10
-1732.267225915416
 20
-541.59170297021831
 30
0.0
 40
1.7999999999999989
  1
g6
 50
90.0
  0
ENDBLK
  5
7F11
  8
0
 62
     7
  0
BLOCK
  8
0
 62
     7
  2
*U29
 70
     1
 10
0.0
 20
0.0
 30
0.0
  3
*U29
  1

  0
SOLID
  5
7F18
  8
0
  6
CONTINUOUS
 62
     7
 10
-1730.5064354776771
 20
-535.29727595793963
 30
0.0
 11
-1731.586435477677
 21
-536.37727595793945
 31
0.0
 12
-1729.4264354776769
 22
-536.37727595793945
 32
0.0
 13
-1729.4264354776769
 23
-536.37727595793945
 33
0.0
210
0.0
220
0.0
230
1.0
  0
SOLID
  5
7F19
  8
0
  6
CONTINUOUS
 62
     7
 10
-1731.586435477677
 20
-536.37727595793945
 30
0.0
 11
-1731.586435477677
 21
-536.37727595793945
 31
0.0
 12
-1729.4264354776769
 22
-536.37727595793945
 32
0.0
 13
-1729.4264354776769
 23
-536.37727595793945
 33
0.0
210
0.0
220
0.0
230
1.0
  0
LINE
  5
7F1A
  8
0
  6
CONTINUOUS
 62
     7
 10
-1730.5064354776771
 20
-535.29727595793963
 30
0.0
 11
-1731.586435477677
 21
-536.37727595793945
 31
0.0
  0
LINE
  5
7F1B
  8
0
  6
CONTINUOUS
 62
     7
 10
-1729.4264354776769
 20
-536.37727595793945
 30
0.0
 11
-1730.5064354776771
 21
-535.29727595793963
 31
0.0
  0
LINE
  5
7F1C
  8
0
  6
CONTINUOUS
 62
     7
 10
-1731.586435477677
 20
-536.37727595793945
 30
0.0
 11
-1729.4264354776769
 21
-536.37727595793945
 31
0.0
  0
ENDBLK
  5
7F1E
  8
0
 62
     7
  0
BLOCK
  8
0
 62
     7
  2
*U30
 70
     1
 10
0.0
 20
0.0
 30
0.0
  3
*U30
  1

  0
TEXT
  5
7F20
  8
0
  6
CONTINUOUS
 62
     7
 10
-1749.2537181427181
 20
-530.72905317414097
 30
0.0
 40
2.5
  1
M
  0
ENDBLK
  5
7F22
  8
0
 62
     7
  0
BLOCK
  8
0
 62
     7
  2
*U31
 70
     1
 10
0.0
 20
0.0
 30
0.0
  3
*U31
  1

  0
SOLID
  5
7F24
  8
0
  6
CONTINUOUS
 62
     7
 10
-1741.3119405275991
 20
-536.22378852986242
 30
0.0
 11
-1741.2132409357951
 21
-536.37727595793945
 31
0.0
 12
-1741.3563851209319
 22
-536.26409582601934
 32
0.0
 13
-1741.3563851209319
 23
-536.26409582601934
 33
0.0
  0
POLYLINE
  5
7F25
  8
0
  6
CONTINUOUS
 62
     7
 66
     1
 10
0.0
 20
0.0
 30
0.0
  0
VERTEX
  5
7F26
  8
0
  6
CONTINUOUS
 62
     7
 10
-1741.3341628242649
 20
-536.24394217794077
 30
0.0
  0
VERTEX
  5
7F27
  8
0
  6
CONTINUOUS
 62
     7
 10
-1745.4287658916951
 20
-531.72905317414074
 30
0.0
  0
VERTEX
  5
7F28
  8
0
  6
CONTINUOUS
 62
     7
 10
-1745.6087658916949
 20
-531.72905317414074
 30
0.0
  0
SEQEND
  5
7F29
  8
0
  6
CONTINUOUS
 62
     7
  0
ENDBLK
  5
7F2B
  8
0
 62
     7
  0
BLOCK
  8
0
 62
     7
  2
*U32
 70
     1
 10
0.0
 20
0.0
 30
0.0
  3
*U32
  1

  0
TEXT
  5
7F3D
  8
0
  6
CONTINUOUS
 62
     0
 10
-1885.5856780202159
 20
-557.14777595793998
 30
0.0
 40
2.5
  1
B
  0
ENDBLK
  5
7F3F
  8
0
 62
     7
  0
BLOCK
  8
0
 62
     7
  2
*U33
 70
     1
 10
0.0
 20
0.0
 30
0.0
  3
*U33
  1

  0
TEXT
  5
7F41
  8
0
  6
CONTINUOUS
 62
     0
 10
-1891.8511964376789
 20
-557.12560679013654
 30
0.0
 40
2.5
  1
3
  0
ENDBLK
  5
7F43
  8
0
 62
     7
  0
BLOCK
  8
0
 62
     7
  2
*U34
 70
     1
 10
0.0
 20
0.0
 30
0.0
  3
*U34
  1

  0
TEXT
  5
7F45
  8
0
  6
CONTINUOUS
 62
     0
 10
-1898.4228199028901
 20
-557.14777595793998
 30
0.0
 40
2.5
  1
L
  0
ENDBLK
  5
7F47
  8
0
 62
     7
  0
BLOCK
  8
0
 62
     7
  2
*U35
 70
     1
 10
0.0
 20
0.0
 30
0.0
  3
*U35
  1

  0
TEXT
  5
7F49
  8
0
  6
CONTINUOUS
 62
     0
 10
-1909.4297835433749
 20
-557.14603258276566
 30
0.0
 40
2.5
  1
l
  0
TEXT
  5
7F4A
  8
0
  6
CONTINUOUS
 62
     0
 10
-1908.477402590994
 20
-557.14603258276566
 30
0.0
 40
2.5
  1
 
  0
TEXT
  5
7F4B
  8
0
  6
CONTINUOUS
 62
     0
 10
-1907.942186412472
 20
-556.79603258276563
 30
0.0
 40
1.7999999999999989
  1
1
  0
ENDBLK
  5
7F4D
  8
0
 62
     7
  0
BLOCK
  8
0
 62
     7
  2
*U36
 70
     1
 10
0.0
 20
0.0
 30
0.0
  3
*U36
  1

  0
TEXT
  5
7F4F
  8
0
  6
CONTINUOUS
 62
     0
 10
-1879.095057283517
 20
-557.14777595793998
 30
0.0
 40
2.5
  1
E
  0
ENDBLK
  5
7F51
  8
0
 62
     7
  0
BLOCK
  8
0
 62
     7
  2
*U37
 70
     1
 10
0.0
 20
0.0
 30
0.0
  3
*U37
  1

  0
TEXT
  5
7F53
  8
0
  6
CONTINUOUS
 62
     0
 10
-1899.296775415663
 20
-544.11387213802186
 30
0.0
 40
2.5
  1
D
 50
90.0
  0
TEXT
  5
7F54
  8
0
  6
CONTINUOUS
 62
     0
 10
-1899.6467754156629
 20
-541.59170297021831
 30
0.0
 40
1.7999999999999989
  1
g6
 50
90.0
  0
ENDBLK
  5
7F56
  8
0
 62
     7
  0
BLOCK
  8
0
 62
     7
  2
*U38
 70
     1
 10
0.0
 20
0.0
 30
0.0
  3
*U38
  1

  0
SOLID
  5
7F58
  8
0
  6
CONTINUOUS
 62
     7
 10
-1908.7551842990611
 20
-536.22378852986242
 30
0.0
 11
-1908.6564847072571
 21
-536.37727595793945
 31
0.0
 12
-1908.7996288923939
 22
-536.26409582601934
 32
0.0
 13
-1908.7996288923939
 23
-536.26409582601934
 33
0.0
  0
POLYLINE
  5
7F59
  8
0
  6
CONTINUOUS
 62
     7
 66
     1
 10
0.0
 20
0.0
 30
0.0
  0
VERTEX
  5
7F5A
  8
0
  6
CONTINUOUS
 62
     7
 10
-1908.7774065957281
 20
-536.24394217794088
 30
0.0
  0
VERTEX
  5
7F5B
  8
0
  6
CONTINUOUS
 62
     7
 10
-1912.8720096631571
 20
-531.72905317414131
 30
0.0
  0
VERTEX
  5
7F5C
  8
0
  6
CONTINUOUS
 62
     7
 10
-1913.0520096631569
 20
-531.72905317414131
 30
0.0
  0
SEQEND
  5
7F5D
  8
0
  6
CONTINUOUS
 62
     7
  0
ENDBLK
  5
7F5F
  8
0
 62
     7
  0
BLOCK
  8
0
 62
     7
  2
*U39
 70
     1
 10
0.0
 20
0.0
 30
0.0
  3
*U39
  1

  0
TEXT
  5
7F61
  8
0
  6
CONTINUOUS
 62
     7
 10
-1916.6969619141801
 20
-530.72905317414131
 30
0.0
 40
2.5
  1
M
  0
ENDBLK
  5
7F63
  8
0
 62
     7
  0
BLOCK
  8
0
 62
     7
  2
*U40
 70
     1
 10
0.0
 20
0.0
 30
0.0
  3
*U40
  1

  0
SOLID
  5
7F65
  8
0
  6
CONTINUOUS
 62
     7
 10
-1895.2487410663839
 20
-535.29727595793963
 30
0.0
 11
-1896.3287410663841
 21
-536.37727595793945
 31
0.0
 12
-1894.168741066384
 22
-536.37727595793945
 32
0.0
 13
-1894.168741066384
 23
-536.37727595793945
 33
0.0
210
0.0
220
0.0
230
1.0
  0
SOLID
  5
7F66
  8
0
  6
CONTINUOUS
 62
     7
 10
-1896.3287410663841
 20
-536.37727595793945
 30
0.0
 11
-1896.3287410663841
 21
-536.37727595793945
 31
0.0
 12
-1894.168741066384
 22
-536.37727595793945
 32
0.0
 13
-1894.168741066384
 23
-536.37727595793945
 33
0.0
210
0.0
220
0.0
230
1.0
  0
LINE
  5
7F67
  8
0
  6
CONTINUOUS
 62
     7
 10
-1895.2487410663839
 20
-535.29727595793963
 30
0.0
 11
-1896.3287410663841
 21
-536.37727595793945
 31
0.0
  0
LINE
  5
7F68
  8
0
  6
CONTINUOUS
 62
     7
 10
-1894.168741066384
 20
-536.37727595793945
 30
0.0
 11
-1895.2487410663839
 21
-535.29727595793963
 31
0.0
  0
LINE
  5
7F69
  8
0
  6
CONTINUOUS
 62
     7
 10
-1896.3287410663841
 20
-536.37727595793945
 30
0.0
 11
-1894.168741066384
 21
-536.37727595793945
 31
0.0
  0
ENDBLK
  5
7F6B
  8
0
 62
     7
  0
BLOCK
  8
0
 62
     7
  2
*U41
 70
     1
 10
0.0
 20
0.0
 30
0.0
  3
*U41
  1

  0
TEXT
  5
7F87
  8
0
  6
CONTINUOUS
 62
     0
 10
53.541666666666657
 20
31.73806107008409
 30
0.0
 40
2.5
  1
10
  0
ENDBLK
  5
7F89
  8
0
 62
     7
  0
BLOCK
  8
0
 62
     7
  2
*U42
 70
     1
 10
0.0
 20
0.0
 30
0.0
  3
*U42
  1

  0
TEXT
  5
7F8B
  8
0
  6
CONTINUOUS
 62
     0
 10
63.166666666666657
 20
31.73806107008409
 30
0.0
 40
2.5
  1
8
  0
ENDBLK
  5
7F8D
  8
0
 62
     7
  0
BLOCK
  8
0
 62
     7
  2
*U43
 70
     1
 10
0.0
 20
0.0
 30
0.0
  3
*U43
  1

  0
TEXT
  5
7F8F
  8
0
  6
CONTINUOUS
 62
     0
 10
73.833333333333314
 20
31.73806107008409
 30
0.0
 40
2.5
  1
15
  0
ENDBLK
  5
7F91
  8
0
 62
     7
  0
BLOCK
  8
0
 62
     7
  2
*U44
 70
     1
 10
0.0
 20
0.0
 30
0.0
  3
*U44
  1

  0
TEXT
  5
7F93
  8
0
  6
CONTINUOUS
 62
     0
 10
76.466940893999194
 20
47.291666710313407
 30
0.0
 40
2.5
  1
60Åã
 50
90.0
  0
ENDBLK
  5
7F95
  8
0
 62
     7
  0
BLOCK
  8
0
 62
     7
  2
*U45
 70
     1
 10
0.0
 20
0.0
 30
0.0
  3
*U45
  1

  0
TEXT
  5
7F97
  8
0
  6
CONTINUOUS
 62
     0
 10
135.82844733389371
 20
46.874999999999893
 30
0.0
 40
2.5
  1
11,8
 50
90.0
  0
ENDBLK
  5
7F99
  8
0
 62
     7
  0
BLOCK
  8
0
 62
     7
  2
*U46
 70
     1
 10
0.0
 20
0.0
 30
0.0
  3
*U46
  1

  0
TEXT
  5
7F9B
  8
0
  6
CONTINUOUS
 62
     0
 10
52.732239300006221
 20
49.166666666666657
 30
0.0
 40
2.5
  1
8
 50
90.0
  0
ENDBLK
  5
7F9D
  8
0
 62
     7
  0
BLOCK
  8
0
 62
     7
  2
*U47
 70
     1
 10
0.0
 20
0.0
 30
0.0
  3
*U47
  1

  0
TEXT
  5
7F9F
  8
0
  6
CONTINUOUS
 62
     0
 10
42.610874798162627
 20
49.166666666666671
 30
0.0
 40
2.5
  1
8
 50
90.0
  0
ENDBLK
  5
7FA1
  8
0
 62
     7
  0
BLOCK
  8
0
 62
     7
  2
*U48
 70
     1
 10
0.0
 20
0.0
 30
0.0
  3
*U48
  1

  0
TEXT
  5
7FA3
  8
0
  6
CONTINUOUS
 62
     0
 10
42.610874798162627
 20
49.166666666666671
 30
0.0
 40
2.5
  1
8
 50
90.0
  0
ENDBLK
  5
7FA5
  8
0
 62
     7
  0
ENDSEC
  0
SECTION
  2
ENTITIES
  0
LINE
  5
36B9
  8
CENTER
  6
CENTER
 62
     1
 10
48.0
 20
50.0
 30
0.0
 11
91.219099764656335
 21
50.0
 31
0.0
  0
LINE
  5
36BA
  8
0
  6
CONTINUOUS
 62
     7
 10
67.999999999999986
 20
55.89999999999992
 30
0.0
 11
82.999999999999972
 21
55.89999999999992
 31
0.0
  0
LINE
  5
36C3
  8
0
  6
CONTINUOUS
 62
     7
 10
60.0
 20
46.0
 30
0.0
 11
66.99999497697921
 21
46.0
 31
0.0
  0
LINE
  5
36C7
  8
0
  6
CONTINUOUS
 62
     7
 10
60.0
 20
53.99999999999995
 30
0.0
 11
66.99999497697921
 21
53.99999999999995
 31
0.0
  0
LINE
  5
36D6
  8
0
  6
CONTINUOUS
 62
     7
 10
60.0
 20
46.0
 30
0.0
 11
60.0
 21
53.99999999999995
 31
0.0
  0
LINE
  5
36D7
  8
0
  6
CONTINUOUS
 62
     7
 10
67.999999999999986
 20
44.099999999999909
 30
0.0
 11
67.999999999999986
 21
55.89999999999992
 31
0.0
  0
LINE
  5
36D9
  8
0
  6
CONTINUOUS
 62
     7
 10
83.0
 20
44.099999999999909
 30
0.0
 11
83.0
 21
55.89999999999992
 31
0.0
  0
LINE
  5
36DF
  8
0
  6
CONTINUOUS
 62
     7
 10
67.999999999999986
 20
44.099999999999909
 30
0.0
 11
82.999999999999972
 21
44.099999999999909
 31
0.0
  0
LINE
  5
36E4
  8
0
  6
CONTINUOUS
 62
     7
 10
83.0
 20
55.899999999999856
 30
0.0
 11
87.219099828130638
 21
53.464101480343572
 31
0.0
  0
LINE
  5
36E6
  8
0
  6
CONTINUOUS
 62
     7
 10
83.0
 20
44.099999999999909
 30
0.0
 11
87.219099701182046
 21
46.535898250068151
 31
0.0
  0
POLYLINE
  5
36EB
  8
0
  6
CONTINUOUS
 62
     7
 66
     1
 10
0.0
 20
0.0
 30
0.0
  0
VERTEX
  5
7EED
  8
0
  6
CONTINUOUS
 62
     7
 10
67.999994976976936
 20
53.899999999999572
 30
0.0
  0
VERTEX
  5
7EEE
  8
0
  6
CONTINUOUS
 62
     7
 10
66.99999497697921
 20
53.899999999999572
 30
0.0
  0
SEQEND
  5
7EEF
  8
0
  6
CONTINUOUS
 62
     7
  0
LINE
  5
36F0
  8
0
  6
CONTINUOUS
 62
     7
 10
66.99999497697921
 20
53.99999999999995
 30
0.0
 11
66.999994976979195
 21
46.0
 31
0.0
  0
POLYLINE
  5
36F3
  8
0
  6
CONTINUOUS
 62
     7
 66
     1
 10
0.0
 20
0.0
 30
0.0
  0
VERTEX
  5
7EF0
  8
0
  6
CONTINUOUS
 62
     7
 10
67.999994976976936
 20
46.100000000000357
 30
0.0
  0
VERTEX
  5
7EF1
  8
0
  6
CONTINUOUS
 62
     7
 10
66.99999497697921
 20
46.100000000000357
 30
0.0
  0
SEQEND
  5
7EF2
  8
0
  6
CONTINUOUS
 62
     7
  0
LINE
  5
36F5
  8
CENTER
  6
CENTER
 62
     1
 10
119.4642865440312
 20
42.099999999999909
 30
0.0
 11
119.4642865440312
 21
57.89999999999992
 31
0.0
  0
CIRCLE
  5
36F9
  8
0
  6
CONTINUOUS
 62
     7
 10
119.4642865440312
 20
49.999999999999893
 30
0.0
 40
5.8999999999999631
  0
CIRCLE
  5
36FA
  8
0
  6
DASHED
 62
     3
 10
119.4642865440312
 20
49.999999999999893
 30
0.0
 40
4.1231068438820229
  0
CIRCLE
  5
36FE
  8
0
  6
DASHED
 62
     3
 10
119.4642865440312
 20
49.999999999999893
 30
0.0
 40
3.3234999999999948
  0
LINE
  5
3701
  8
CENTER
  6
CENTER
 62
     1
 10
127.3642865440312
 20
50.0
 30
0.0
 11
111.56428654403121
 21
50.0
 31
0.0
  0
CIRCLE
  5
3758
  8
0
  6
CONTINUOUS
 62
     7
 10
119.4642865440312
 20
49.999999999999893
 30
0.0
 40
0.5
  0
LINE
  5
375E
  8
0
  6
DASHED
 62
     3
 10
89.219099764656335
 20
50.5
 30
0.0
 11
88.353074360872483
 21
50.0
 31
0.0
  0
LINE
  5
375F
  8
0
  6
DASHED
 62
     3
 10
89.219099764656335
 20
49.499999999999538
 30
0.0
 11
88.353074360872483
 21
50.0
 31
0.0
  0
ARC
  5
391E
  8
0
  6
CONTINUOUS
 62
     7
 10
85.219099764656335
 20
49.999999901852789
 30
0.0
 40
4.0
 50
299.99999895014219
 51
59.999998950144061
  0
TEXT
  5
7906
  8
0
  6
CONTINUOUS
 62
     7
 10
10.0
 20
10.0
 30
0.0
 40
2.0
  1
SLNNAB8
  0
TEXT
  5
7907
  8
0
  6
CONTINUOUS
 62
     7
 10
10.0
 20
20.0
 30
0.0
 40
2.0
  1
SLNNAB8-P11.8-B15-L8-A60 
  0
LINE
  5
7DC7
  8
0
  6
DASHED
 62
     3
 10
50.000000000000007
 20
50.500000000000007
 30
0.0
 11
50.866025403784541
 21
50.000000000000007
 31
0.0
  0
LINE
  5
7DC8
  8
0
  6
DASHED
 62
     3
 10
50.000000000000007
 20
49.500000000000007
 30
0.0
 11
50.866025403784541
 21
50.000000000000007
 31
0.0
  0
LINE
  5
7DCA
  8
0
  6
CONTINUOUS
 62
     7
 10
49.999999999999922
 20
46.676499999999997
 30
0.0
 11
50.000000000000071
 21
53.323500000000003
 31
0.0
  0
LINE
  5
7DCB
  8
0
  6
CONTINUOUS
 62
     7
 10
58.99999999999995
 20
46.676499999999997
 30
0.0
 11
59.00000000000005
 21
53.323500000000003
 31
0.0
  0
LINE
  5
7DCC
  8
0
  6
CONTINUOUS
 62
     7
 10
59.00000000000005
 20
53.323500000000003
 30
0.0
 11
60.000000000000057
 21
53.323500000000003
 31
0.0
  0
LINE
  5
7DCD
  8
0
  6
CONTINUOUS
 62
     7
 10
58.99999999999995
 20
46.676499999999997
 30
0.0
 11
59.999999999999943
 21
46.676499999999997
 31
0.0
  0
LINE
  5
7DCE
  8
0
  6
CONTINUOUS
 62
     7
 10
50.676499999999898
 20
46.0
 30
0.0
 11
58.323499999999939
 21
46.0
 31
0.0
  0
LINE
  5
7DCF
  8
0
  6
CONTINUOUS
 62
     3
 10
58.99999999999995
 20
46.676499999999997
 30
0.0
 11
49.999999999999922
 21
46.676499999999997
 31
0.0
  0
LINE
  5
7DD0
  8
0
  6
CONTINUOUS
 62
     3
 10
59.00000000000005
 20
53.323500000000003
 30
0.0
 11
50.000000000000071
 21
53.323500000000003
 31
0.0
  0
LINE
  5
7DD1
  8
0
  6
CONTINUOUS
 62
     7
 10
50.67650000000009
 20
54.0
 30
0.0
 11
58.323500000000081
 21
54.0
 31
0.0
  0
LINE
  5
7DD2
  8
0
  6
CONTINUOUS
 62
     7
 10
50.000000000000071
 20
53.323500000000003
 30
0.0
 11
50.67650000000009
 21
54.0
 31
0.0
  0
LINE
  5
7DD3
  8
0
  6
CONTINUOUS
 62
     7
 10
49.999999999999922
 20
46.676499999999997
 30
0.0
 11
50.676499999999898
 21
46.0
 31
0.0
  0
LINE
  5
7DD4
  8
0
  6
CONTINUOUS
 62
     7
 10
50.676499999999947
 20
46.0
 30
0.0
 11
50.67650000000009
 21
54.0
 31
0.0
  0
LINE
  5
7DD5
  8
0
  6
CONTINUOUS
 62
     7
 10
58.323500000000081
 20
54.0
 30
0.0
 11
59.00000000000005
 21
53.323500000000003
 31
0.0
  0
LINE
  5
7DD6
  8
0
  6
CONTINUOUS
 62
     7
 10
58.99999999999995
 20
46.676499999999997
 30
0.0
 11
58.323499999999939
 21
46.0
 31
0.0
  0
LINE
  5
7DD7
  8
0
  6
CONTINUOUS
 62
     7
 10
58.323499999999939
 20
46.0
 30
0.0
 11
58.323500000000081
 21
54.0
 31
0.0
  0
ENDSEC
  0
EOF
