  0
SECTION
  2
HEADER
  9
$ACADVER
  1
AC1009
  9
$INSBASE
 10
0.0
 20
0.0
 30
0.0
  9
$EXTMIN
 10
36.83496167188855
 20
62.4462896241414
 30
-0.0015258207003583
  9
$EXTMAX
 10
127.6534428771741
 20
170.3205876009545
 30
0.0000000349246037
  9
$LIMMIN
 10
0.0
 20
0.0
  9
$LIMMAX
 10
297.0
 20
210.0
  9
$ORTHOMODE
 70
     1
  9
$REGENMODE
 70
     1
  9
$FILLMODE
 70
     1
  9
$QTEXTMODE
 70
     0
  9
$MIRRTEXT
 70
     1
  9
$DRAGMODE
 70
     2
  9
$LTSCALE
 40
1.0
  9
$OSMODE
 70
   167
  9
$ATTMODE
 70
     1
  9
$TEXTSIZE
 40
6.4000000000000012
  9
$TRACEWID
 40
0.05
  9
$TEXTSTYLE
  7
STANDARD
  9
$CLAYER
  8
0
  9
$CELTYPE
  6
CONTINUOUS
  9
$CECOLOR
 62
     7
  9
$DIMSCALE
 40
1.0
  9
$DIMASZ
 40
3.0
  9
$DIMEXO
 40
1.0
  9
$DIMDLI
 40
0.0
  9
$DIMRND
 40
0.0
  9
$DIMDLE
 40
0.0
  9
$DIMEXE
 40
1.0
  9
$DIMTP
 40
0.0
  9
$DIMTM
 40
0.0
  9
$DIMTXT
 40
3.2000000000000002
  9
$DIMCEN
 40
0.0
  9
$DIMTSZ
 40
0.0
  9
$DIMTOL
 70
     0
  9
$DIMLIM
 70
     0
  9
$DIMTIH
 70
     0
  9
$DIMTOH
 70
     0
  9
$DIMSE1
 70
     0
  9
$DIMSE2
 70
     0
  9
$DIMTAD
 70
     1
  9
$DIMZIN
 70
     8
  9
$DIMBLK
  1

  9
$DIMASO
 70
     1
  9
$DIMSHO
 70
     1
  9
$DIMPOST
  1

  9
$DIMAPOST
  1

  9
$DIMALT
 70
     0
  9
$DIMALTD
 70
     2
  9
$DIMALTF
 40
0.04
  9
$DIMLFAC
 40
1.0
  9
$DIMTOFL
 70
     1
  9
$DIMTVP
 40
1.0
  9
$DIMTIX
 70
     1
  9
$DIMSOXD
 70
     0
  9
$DIMSAH
 70
     0
  9
$DIMBLK1
  1

  9
$DIMBLK2
  1

  9
$DIMSTYLE
  2
MISUMI
  9
$DIMCLRD
 70
     0
  9
$DIMCLRE
 70
     0
  9
$DIMCLRT
 70
     0
  9
$DIMTFAC
 40
0.6
  9
$DIMGAP
 40
1.0
  9
$LUNITS
 70
     2
  9
$LUPREC
 70
     4
  9
$SKETCHINC
 40
0.1
  9
$FILLETRAD
 40
0.3
  9
$AUNITS
 70
     0
  9
$AUPREC
 70
     0
  9
$MENU
  1
acad
  9
$ELEVATION
 40
0.0
  9
$PELEVATION
 40
0.0
  9
$THICKNESS
 40
0.0
  9
$LIMCHECK
 70
     0
  9
$BLIPMODE
 70
     0
  9
$CHAMFERA
 40
0.5
  9
$CHAMFERB
 40
0.5
  9
$SKPOLY
 70
     0
  9
$TDCREATE
 40
2451464.60066493
  9
$TDUPDATE
 40
2453783.596944259
  9
$TDINDWG
 40
0.1928132755
  9
$TDUSRTIMER
 40
0.1928088889
  9
$USRTIMER
 70
     1
  9
$ANGBASE
 50
0.0
  9
$ANGDIR
 70
     0
  9
$PDMODE
 70
     0
  9
$PDSIZE
 40
0.0
  9
$PLINEWID
 40
0.0
  9
$COORDS
 70
     2
  9
$SPLFRAME
 70
     0
  9
$SPLINETYPE
 70
     6
  9
$SPLINESEGS
 70
     8
  9
$ATTDIA
 70
     0
  9
$ATTREQ
 70
     1
  9
$HANDLING
 70
 22529
  9
$HANDSEED
  5
264B
  9
$SURFTAB1
 70
     6
  9
$SURFTAB2
 70
     6
  9
$SURFTYPE
 70
     6
  9
$SURFU
 70
     6
  9
$SURFV
 70
     6
  9
$UCSNAME
  2

  9
$UCSORG
 10
0.0
 20
0.0
 30
0.0
  9
$UCSXDIR
 10
1.0
 20
0.0
 30
0.0
  9
$UCSYDIR
 10
0.0
 20
1.0
 30
0.0
  9
$PUCSNAME
  2

  9
$PUCSORG
 10
0.0
 20
0.0
 30
0.0
  9
$PUCSXDIR
 10
1.0
 20
0.0
 30
0.0
  9
$PUCSYDIR
 10
0.0
 20
1.0
 30
0.0
  9
$USERI1
 70
     0
  9
$USERI2
 70
     0
  9
$USERI3
 70
     0
  9
$USERI4
 70
     0
  9
$USERI5
 70
     0
  9
$USERR1
 40
0.0
  9
$USERR2
 40
0.0
  9
$USERR3
 40
0.0
  9
$USERR4
 40
0.0
  9
$USERR5
 40
0.0
  9
$WORLDVIEW
 70
     1
  9
$SHADEDGE
 70
     3
  9
$SHADEDIF
 70
    70
  9
$TILEMODE
 70
     1
  9
$MAXACTVP
 70
    16
  9
$PLIMCHECK
 70
     0
  9
$PEXTMIN
 10
1.0000000000000000E+020
 20
1.0000000000000000E+020
 30
1.0000000000000000E+020
  9
$PEXTMAX
 10
-1.0000000000000000E+020
 20
-1.0000000000000000E+020
 30
-1.0000000000000000E+020
  9
$PLIMMIN
 10
0.0
 20
0.0
  9
$PLIMMAX
 10
12.0
 20
9.0
  9
$UNITMODE
 70
     0
  9
$VISRETAIN
 70
     0
  9
$PLINEGEN
 70
     0
  9
$PSLTSCALE
 70
     1
  0
ENDSEC
  0
SECTION
  2
TABLES
  0
TABLE
  2
VPORT
 70
     4
  0
VPORT
  2
*ACTIVE
 70
     0
 10
0.0
 20
0.0
 11
1.0
 21
1.0
 12
82.244202274531347
 22
116.38343861254791
 13
0.0
 23
0.0
 14
10.0
 24
10.0
 15
10.0
 25
10.0
 16
0.0
 26
0.0
 36
1.0
 17
0.0
 27
0.0
 37
0.0
 40
109.1636322155798
 41
2.0059880239520949
 42
50.0
 43
0.0
 44
0.0
 50
0.0
 51
0.0
 71
     0
 72
   100
 73
     1
 74
     0
 75
     0
 76
     0
 77
     0
 78
     0
  0
ENDTAB
  0
TABLE
  2
LTYPE
 70
     3
  0
LTYPE
  2
CONTINUOUS
 70
     0
  3
Solid line
 72
    65
 73
     0
 40
0.0
  0
LTYPE
  2
CENTER
 70
     0
  3
Center ____ _ ____ _ ____ _ ____ _ ____ _ ____
 72
    65
 73
     4
 40
2.0
 49
1.25
 49
-0.25
 49
0.25
 49
-0.25
  0
LTYPE
  2
DASHED
 70
     0
  3
__ __ __ __ __ __ __ __ __ __ __ __ __ __ __
 72
    65
 73
     2
 40
3.5
 49
2.0
 49
-1.5
  0
ENDTAB
  0
TABLE
  2
LAYER
 70
     7
  0
LAYER
  2
0
 70
     0
 62
     7
  6
CONTINUOUS
  0
LAYER
  2
DEFPOINTS
 70
     0
 62
     7
  6
CONTINUOUS
  0
LAYER
  2
CENTER
 70
     0
 62
     1
  6
CENTER
  0
ENDTAB
  0
TABLE
  2
STYLE
 70
     2
  0
STYLE
  2
STANDARD
 70
     0
 40
0.0
 41
1.0
 50
0.0
 71
     0
 42
6.4000000000000012
  3
txt
  4

  0
ENDTAB
  0
TABLE
  2
VIEW
 70
     0
  0
ENDTAB
  0
TABLE
  2
UCS
 70
     0
  0
ENDTAB
  0
TABLE
  2
APPID
 70
     1
  0
APPID
  2
ACAD
 70
     0
  0
ENDTAB
  0
TABLE
  2
DIMSTYLE
 70
     2
  0
DIMSTYLE
  2
MISUMI
 70
     0
  3

  4

  5

  6

  7

 40
1.0
 41
3.0
 42
1.0
 43
0.0
 44
1.0
 45
0.0
 46
0.0
 47
0.0
 48
0.0
140
3.2000000000000002
141
0.0
142
0.0
143
0.04
144
1.0
145
1.0
146
0.6
147
1.0
 71
     0
 72
     0
 73
     0
 74
     0
 75
     0
 76
     0
 77
     1
 78
     8
170
     0
171
     2
172
     1
173
     0
174
     1
175
     0
176
     0
177
     0
178
     0
  0
ENDTAB
  0
ENDSEC
  0
SECTION
  2
BLOCKS
  0
BLOCK
  8
0
  2
$MODEL_SPACE
 70
     0
 10
0.0
 20
0.0
 30
0.0
  3
$MODEL_SPACE
  1

  0
ENDBLK
  5
24AB
  8
0
  0
BLOCK
 67
     1
  8
0
  2
$PAPER_SPACE
 70
     0
 10
0.0
 20
0.0
 30
0.0
  3
$PAPER_SPACE
  1

  0
ENDBLK
  5
24A7
 67
     1
  8
0
  0
ENDSEC
  0
SECTION
  2
ENTITIES
  0
LINE
  5
25FD
  8
0
 10
57.000485974530299
 20
167.28995491612619
 30
0.0
 11
57.000485974530299
 21
142.28995491612611
 31
0.0
  0
LINE
  5
25FE
  8
0
 10
86.000485974530193
 20
167.28995491612619
 30
0.0
 11
86.000485974530392
 21
142.28995491612631
 31
0.0
  0
LINE
  5
25FF
  8
0
 10
56.500485974530193
 20
142.78995491612619
 30
0.0
 11
56.500485974530193
 21
166.78995491612619
 31
0.0
  0
LINE
  5
2600
  8
0
 10
86.500485974530264
 20
166.78995491612619
 30
0.0
 11
86.500485974530392
 21
142.78995491612631
 31
0.0
  0
LINE
  5
2601
  8
0
 10
47.500485974530292
 20
150.08995491612609
 30
0.0
 11
47.500485974530292
 21
159.48995491612609
 31
0.0
  0
LINE
  5
2602
  8
0
  6
CONTINUOUS
 62
     7
 10
47.800485974530289
 20
159.78995491612611
 30
0.0
 11
47.800485974530289
 21
149.78995491612611
 31
0.0
  0
LINE
  5
2603
  8
0
  6
CONTINUOUS
 10
50.500485974530307
 20
159.78995491612611
 30
0.0
 11
50.500485974530392
 21
149.78995491612611
 31
0.0
  0
LINE
  5
2604
  8
0
  6
CONTINUOUS
 10
49.350485974530272
 20
159.78995491612611
 30
0.0
 11
49.350485974530272
 21
149.78995491612611
 31
0.0
  0
TEXT
  5
2605
  8
0
 10
36.841892154648569
 20
77.455675094094914
 30
0.0
 40
4.0
  1
SFRX 25-30-F9-B3-P10
  0
TEXT
  5
2606
  8
0
 10
36.841892154648569
 20
62.455675094094907
 30
0.0
 40
4.0
  1
SFRX25
  0
LINE
  5
2607
  8
0
  6
CONTINUOUS
 10
49.350485974530272
 20
149.98995491612609
 30
0.0
 11
50.500485974530307
 21
149.98995491612621
 31
0.0
  0
LINE
  5
2608
  8
CENTER
  6
CENTER
 62
     1
 10
42.635115630173843
 20
154.78995491612619
 30
0.0
 11
91.765802189957981
 21
154.78995491612619
 31
0.0
  0
LINE
  5
2609
  8
0
  6
CONTINUOUS
 62
     7
 10
47.800485974530289
 20
149.78995491612611
 30
0.0
 11
49.350485974530272
 21
149.78995491612611
 31
0.0
  0
LINE
  5
260A
  8
0
  6
CONTINUOUS
 10
47.500485974530292
 20
150.08995491612609
 30
0.0
 11
47.800485974530289
 21
149.78995491612611
 31
0.0
  0
LINE
  5
260B
  8
0
 10
86.000485974530193
 20
142.28995491612631
 30
0.0
 11
57.000485974530299
 21
142.28995491612611
 31
0.0
  0
LINE
  5
260C
  8
0
 10
57.000485974530299
 20
142.28995491612611
 30
0.0
 11
56.500485974530193
 21
142.78995491612619
 31
0.0
  0
LINE
  5
260D
  8
0
  6
CONTINUOUS
 62
     7
 10
50.500485974530392
 20
149.78995491612611
 30
0.0
 11
56.300485974530197
 21
149.78995491612611
 31
0.0
  0
ARC
  5
260E
  8
0
  6
CONTINUOUS
 10
56.300485974530197
 20
149.5899549161262
 30
0.0
 40
0.2
 50
0.0
 51
90.0
  0
LINE
  5
260F
  8
0
 10
57.000485974530697
 20
154.78995491612591
 30
0.0
 11
57.000585974530587
 21
154.78995491612591
 31
0.0
  0
LINE
  5
2610
  8
0
 10
86.500485974530264
 20
142.78995491612619
 30
0.0
 11
86.000485974530193
 21
142.28995491612611
 31
0.0
  0
LINE
  5
2611
  8
0
  6
CONTINUOUS
 10
49.350485974530272
 20
159.58995491612609
 30
0.0
 11
50.500485974530307
 21
159.58995491612609
 31
0.0
  0
LINE
  5
2612
  8
0
  6
CONTINUOUS
 62
     7
 10
47.800485974530289
 20
159.78995491612611
 30
0.0
 11
49.350485974530272
 21
159.78995491612611
 31
0.0
  0
LINE
  5
2613
  8
0
  6
CONTINUOUS
 10
47.500485974530292
 20
159.48995491612609
 30
0.0
 11
47.800485974530289
 21
159.78995491612611
 31
0.0
  0
LINE
  5
2614
  8
0
 10
57.000485974530299
 20
167.28995491612619
 30
0.0
 11
86.000485974530193
 21
167.28995491612619
 31
0.0
  0
LINE
  5
2615
  8
0
  6
CONTINUOUS
 62
     7
 10
50.500485974530307
 20
159.78995491612611
 30
0.0
 11
56.300485974530197
 21
159.78995491612611
 31
0.0
  0
LINE
  5
2616
  8
0
 10
57.000485974530697
 20
161.03995491612591
 30
0.0
 11
57.000485974530697
 21
161.0400549161258
 31
0.0
  0
ARC
  5
2617
  8
0
  6
CONTINUOUS
 10
56.300485974530197
 20
159.98995491612609
 30
0.0
 40
0.2
 50
270.0
 51
0.0
  0
LINE
  5
2618
  8
0
 10
56.500485974530193
 20
166.78995491612619
 30
0.0
 11
57.000485974530299
 21
167.28995491612619
 31
0.0
  0
LINE
  5
2619
  8
0
 10
86.000485974530193
 20
167.28995491612619
 30
0.0
 11
86.500485974530264
 21
166.78995491612619
 31
0.0
  0
CIRCLE
  5
261A
  8
0
  6
CONTINUOUS
 10
112.1190963853808
 20
154.78995491612619
 30
0.0
 40
11.999999999999829
  0
CIRCLE
  5
261B
  8
0
  6
CONTINUOUS
 10
112.1190963853808
 20
154.78995491612619
 30
0.0
 40
12.5
  0
CIRCLE
  5
261C
  8
0
  6
DASHED
 62
     3
 10
112.1190963853808
 20
154.78995491612619
 30
0.0
 40
5.0
  0
CIRCLE
  5
261D
  8
0
  6
DASHED
 62
     3
 10
112.1190963853808
 20
154.78995491612619
 30
0.0
 40
4.799999999999998
  0
LINE
  5
261E
  8
CENTER
  6
CENTER
 62
     1
 10
112.1190963853808
 20
170.30946280572519
 30
0.0
 11
112.1190963853808
 21
139.27044702652711
 31
0.0
  0
LINE
  5
261F
  8
CENTER
  6
CENTER
 62
     1
 10
96.599588495781816
 20
154.78995491612619
 30
0.0
 11
127.6386042749799
 21
154.78995491612619
 31
0.0
  0
ENDSEC
  0
EOF
