  0
SECTION
  2
HEADER
  9
$ACADVER
  1
AC1009
  9
$INSBASE
 10
0.0
 20
0.0
 30
0.0
  9
$EXTMIN
 10
84.783332855521095
 20
157.23316066538729
 30
0.0
  9
$EXTMAX
 10
263.09566555262512
 20
328.41668139143411
 30
0.0
  9
$LIMMIN
 10
0.0
 20
0.0
  9
$LIMMAX
 10
297.0
 20
210.0
  9
$ORTHOMODE
 70
     1
  9
$REGENMODE
 70
     1
  9
$FILLMODE
 70
     1
  9
$QTEXTMODE
 70
     0
  9
$MIRRTEXT
 70
     1
  9
$DRAGMODE
 70
     2
  9
$LTSCALE
 40
1.0
  9
$OSMODE
 70
   959
  9
$ATTMODE
 70
     1
  9
$TEXTSIZE
 40
8.0
  9
$TRACEWID
 40
1.0
  9
$TEXTSTYLE
  7
STANDARD
  9
$CLAYER
  8
0
  9
$CELTYPE
  6
CONTINUOUS
  9
$CECOLOR
 62
     7
  9
$DIMSCALE
 40
1.0
  9
$DIMASZ
 40
3.0
  9
$DIMEXO
 40
1.0
  9
$DIMDLI
 40
0.0
  9
$DIMRND
 40
0.0
  9
$DIMDLE
 40
0.0
  9
$DIMEXE
 40
1.0
  9
$DIMTP
 40
0.0
  9
$DIMTM
 40
0.0
  9
$DIMTXT
 40
3.2000000000000002
  9
$DIMCEN
 40
0.0
  9
$DIMTSZ
 40
0.0
  9
$DIMTOL
 70
     0
  9
$DIMLIM
 70
     0
  9
$DIMTIH
 70
     0
  9
$DIMTOH
 70
     0
  9
$DIMSE1
 70
     0
  9
$DIMSE2
 70
     0
  9
$DIMTAD
 70
     1
  9
$DIMZIN
 70
     8
  9
$DIMBLK
  1

  9
$DIMASO
 70
     1
  9
$DIMSHO
 70
     1
  9
$DIMPOST
  1

  9
$DIMAPOST
  1

  9
$DIMALT
 70
     0
  9
$DIMALTD
 70
     2
  9
$DIMALTF
 40
0.04
  9
$DIMLFAC
 40
1.0
  9
$DIMTOFL
 70
     1
  9
$DIMTVP
 40
1.0
  9
$DIMTIX
 70
     1
  9
$DIMSOXD
 70
     0
  9
$DIMSAH
 70
     0
  9
$DIMBLK1
  1

  9
$DIMBLK2
  1

  9
$DIMSTYLE
  2
MISUMI
  9
$DIMCLRD
 70
     0
  9
$DIMCLRE
 70
     0
  9
$DIMCLRT
 70
     0
  9
$DIMTFAC
 40
0.6
  9
$DIMGAP
 40
1.0
  9
$LUNITS
 70
     2
  9
$LUPREC
 70
     2
  9
$SKETCHINC
 40
1.0
  9
$FILLETRAD
 40
10.0
  9
$AUNITS
 70
     0
  9
$AUPREC
 70
     0
  9
$MENU
  1
acad
  9
$ELEVATION
 40
0.0
  9
$PELEVATION
 40
0.0
  9
$THICKNESS
 40
0.0
  9
$LIMCHECK
 70
     0
  9
$BLIPMODE
 70
     0
  9
$CHAMFERA
 40
0.0
  9
$CHAMFERB
 40
0.0
  9
$SKPOLY
 70
     0
  9
$TDCREATE
 40
2451466.6344030439
  9
$TDUPDATE
 40
2454860.486184896
  9
$TDINDWG
 40
0.4151962616
  9
$TDUSRTIMER
 40
0.4151392361
  9
$USRTIMER
 70
     1
  9
$ANGBASE
 50
0.0
  9
$ANGDIR
 70
     0
  9
$PDMODE
 70
    64
  9
$PDSIZE
 40
0.0
  9
$PLINEWID
 40
0.0
  9
$COORDS
 70
     1
  9
$SPLFRAME
 70
     0
  9
$SPLINETYPE
 70
     6
  9
$SPLINESEGS
 70
     8
  9
$ATTDIA
 70
     0
  9
$ATTREQ
 70
     1
  9
$HANDLING
 70
     1
  9
$HANDSEED
  5
2434
  9
$SURFTAB1
 70
     6
  9
$SURFTAB2
 70
     6
  9
$SURFTYPE
 70
     6
  9
$SURFU
 70
     6
  9
$SURFV
 70
     6
  9
$UCSNAME
  2

  9
$UCSORG
 10
0.0
 20
0.0
 30
0.0
  9
$UCSXDIR
 10
1.0
 20
0.0
 30
0.0
  9
$UCSYDIR
 10
0.0
 20
1.0
 30
0.0
  9
$PUCSNAME
  2

  9
$PUCSORG
 10
0.0
 20
0.0
 30
0.0
  9
$PUCSXDIR
 10
1.0
 20
0.0
 30
0.0
  9
$PUCSYDIR
 10
0.0
 20
1.0
 30
0.0
  9
$USERI1
 70
     0
  9
$USERI2
 70
     0
  9
$USERI3
 70
     0
  9
$USERI4
 70
     0
  9
$USERI5
 70
     0
  9
$USERR1
 40
0.0
  9
$USERR2
 40
0.0
  9
$USERR3
 40
0.0
  9
$USERR4
 40
0.0
  9
$USERR5
 40
0.0
  9
$WORLDVIEW
 70
     1
  9
$SHADEDGE
 70
     3
  9
$SHADEDIF
 70
    70
  9
$TILEMODE
 70
     1
  9
$MAXACTVP
 70
    16
  9
$PLIMCHECK
 70
     0
  9
$PEXTMIN
 10
1.122582181323629
 20
0.7802437612983191
 30
-0.0000000349181948
  9
$PEXTMAX
 10
10.104916768270471
 20
7.0239092347771441
 30
0.0000000814935746
  9
$PLIMMIN
 10
1.0241168360448001
 20
0.6819175258630037
  9
$PLIMMAX
 10
10.20338207080502
 20
7.1712500211235071
  9
$UNITMODE
 70
     0
  9
$VISRETAIN
 70
     0
  9
$PLINEGEN
 70
     0
  9
$PSLTSCALE
 70
     0
  0
ENDSEC
  0
SECTION
  2
TABLES
  0
TABLE
  2
VPORT
 70
     1
  0
VPORT
  2
*ACTIVE
 70
     0
 10
0.0
 20
0.0
 11
1.0
 21
1.0
 12
165.69832284353129
 22
238.8653629789674
 13
0.0
 23
0.0
 14
10.0
 24
10.0
 15
0.0
 25
0.0
 16
0.0
 26
0.0
 36
1.0
 17
0.0
 27
0.0
 37
0.0
 40
194.71962705605509
 41
1.505102040816326
 42
50.0
 43
0.0
 44
0.0
 50
0.0
 51
0.0
 71
     0
 72
   100
 73
     1
 74
     0
 75
     0
 76
     0
 77
     0
 78
     1
  0
ENDTAB
  0
TABLE
  2
LTYPE
 70
     3
  0
LTYPE
  2
CONTINUOUS
 70
     0
  3
Solid line
 72
    65
 73
     0
 40
0.0
  0
LTYPE
  2
DASHED
 70
     0
  3
__ __ __ __ __ __ __ __ __ __ __ __ __ __ __
 72
    65
 73
     2
 40
3.5
 49
2.0
 49
-1.5
  0
LTYPE
  2
CENTER
 70
     0
  3
____ _ ____ _ ____ _ ____ _ ____ _ ____ _ ____
 72
    65
 73
     4
 40
17.5
 49
13.0
 49
-1.5
 49
1.5
 49
-1.5
  0
ENDTAB
  0
TABLE
  2
LAYER
 70
     4
  0
LAYER
  2
0
 70
     0
 62
     7
  6
CONTINUOUS
  0
LAYER
  2
DEFPOINTS
 70
     0
 62
     7
  6
CONTINUOUS
  0
LAYER
  2
CENTER
 70
     0
 62
     1
  6
CENTER
  0
ENDTAB
  0
TABLE
  2
STYLE
 70
     1
  0
STYLE
  2
STANDARD
 70
     0
 40
0.0
 41
1.0
 50
0.0
 71
     0
 42
8.0
  3
txt.shx
  4
@extfont2.shx
  0
ENDTAB
  0
TABLE
  2
VIEW
 70
     0
  0
ENDTAB
  0
TABLE
  2
UCS
 70
     0
  0
ENDTAB
  0
TABLE
  2
APPID
 70
     4
  0
APPID
  2
ACAD
 70
     0
  0
APPID
  2
ACAECLAYERSTANDARD
 70
     0
  0
APPID
  2
ACAD_EXEMPT_FROM_CAD_STANDARDS
 70
     0
  0
APPID
  2
ACAD_PSEXT
 70
     0
  0
ENDTAB
  0
TABLE
  2
DIMSTYLE
 70
     1
  0
DIMSTYLE
  2
MISUMI
 70
     0
  3

  4

  5

  6

  7

 40
1.0
 41
3.0
 42
1.0
 43
0.0
 44
1.0
 45
0.0
 46
0.0
 47
0.0
 48
0.0
140
3.2000000000000002
141
0.0
142
0.0
143
0.04
144
1.0
145
1.0
146
0.6
147
1.0
 71
     0
 72
     0
 73
     0
 74
     0
 75
     0
 76
     0
 77
     1
 78
     8
170
     0
171
     2
172
     1
173
     0
174
     1
175
     0
176
     0
177
     0
178
     0
  0
ENDTAB
  0
ENDSEC
  0
SECTION
  2
BLOCKS
  0
BLOCK
  8
0
  2
$MODEL_SPACE
 70
     0
 10
0.0
 20
0.0
 30
0.0
  3
$MODEL_SPACE
  1

  0
ENDBLK
  5
23EB
  8
0
  0
BLOCK
 67
     1
  8
0
  2
$PAPER_SPACE
 70
     0
 10
0.0
 20
0.0
 30
0.0
  3
$PAPER_SPACE
  1

  0
ENDBLK
  5
23E7
 67
     1
  8
0
  0
BLOCK
  8
0
 62
     7
  2
*U2
 70
     1
 10
0.0
 20
0.0
 30
0.0
  3
*U2
  1

  0
TEXT
  5
17A8
  8
0
  6
CONTINUOUS
 62
     7
 10
59.230152886688671
 20
153.28888143048539
 30
0.0
 40
3.2000000000000002
  1
XKRKG60
  0
ENDBLK
  5
17AA
  8
0
 62
     7
  0
BLOCK
  8
0
 62
     7
  2
*U3
 70
     1
 10
0.0
 20
0.0
 30
0.0
  3
*U3
  1

  0
TEXT
  5
17BA
  8
0
  6
CONTINUOUS
 62
     7
 10
59.230152886688671
 20
147.92832590307319
 30
0.0
 40
3.2000000000000002
  1
XKRKG60
  0
ENDBLK
  5
17BC
  8
0
 62
     7
  0
ENDSEC
  0
SECTION
  2
ENTITIES
  0
LINE
  5
144D
  8
0
  6
CONTINUOUS
 62
     7
 10
210.69566555262489
 20
200.62876267906549
 30
0.0
 11
210.69566555262489
 21
210.6287626790654
 31
0.0
  0
LINE
  5
1450
  8
0
  6
CONTINUOUS
 62
     7
 10
253.09566555262529
 20
217.3787626790654
 30
0.0
 11
253.09566555262529
 21
211.8787626790654
 31
0.0
  0
LINE
  5
1451
  8
0
  6
CONTINUOUS
 62
     7
 10
253.09566555262529
 20
213.32876267906539
 30
0.0
 11
250.69566555262509
 21
213.32876267906539
 31
0.0
  0
LINE
  5
1452
  8
0
  6
CONTINUOUS
 62
     7
 10
253.09566555262529
 20
216.32876267906539
 30
0.0
 11
250.69566555262509
 21
216.32876267906539
 31
0.0
  0
LINE
  5
1453
  8
0
  6
CONTINUOUS
 62
     7
 10
250.69566555262509
 20
193.6287626790654
 30
0.0
 11
210.69566555262489
 21
193.6287626790654
 31
0.0
  0
LINE
  5
1454
  8
0
  6
CONTINUOUS
 62
     7
 10
250.69566555262509
 20
227.6287626790654
 30
0.0
 11
210.69566555262489
 21
227.6287626790654
 31
0.0
  0
LINE
  5
1455
  8
0
  6
CONTINUOUS
 62
     7
 10
250.69566555262509
 20
218.12876267906529
 30
0.0
 11
241.84566555262501
 21
218.12876267906529
 31
0.0
  0
LINE
  5
1456
  8
0
  6
CONTINUOUS
 62
     7
 10
219.4456655526252
 20
218.12876267906529
 30
0.0
 11
210.69566555262489
 21
218.12876267906529
 31
0.0
  0
LINE
  5
1458
  8
CENTER
  6
CENTER
 62
     1
 10
196.0417384793692
 20
205.6287626790654
 30
0.0
 11
215.6956655526244
 21
205.6287626790654
 31
0.0
  0
LINE
  5
1459
  8
CENTER
  6
CENTER
 62
     1
 10
230.69566555262509
 20
191.6287626790654
 30
0.0
 11
230.69566555262509
 21
229.6287626790654
 31
0.0
  0
LINE
  5
145A
  8
0
  6
CONTINUOUS
 62
     7
 10
241.94566555262489
 20
211.2287626790656
 30
0.0
 11
241.94566555262489
 21
217.9287626790653
 31
0.0
  0
LINE
  5
145B
  8
0
  6
CONTINUOUS
 62
     7
 10
241.84566555262501
 20
211.42876267906539
 30
0.0
 11
241.84566555262501
 21
212.6287626790654
 31
0.0
  0
LINE
  5
145C
  8
0
  6
CONTINUOUS
 62
     7
 10
241.84566555262501
 20
216.6287626790654
 30
0.0
 11
241.84566555262501
 21
217.9287626790653
 31
0.0
  0
LINE
  5
145D
  8
0
  6
CONTINUOUS
 62
     7
 10
219.4456655526252
 20
216.6287626790654
 30
0.0
 11
219.4456655526252
 21
217.9287626790653
 31
0.0
  0
LINE
  5
145E
  8
0
  6
CONTINUOUS
 62
     7
 10
241.94566555262489
 20
216.1287626790654
 30
0.0
 11
241.556990552625
 21
216.1287626790654
 31
0.0
  0
LINE
  5
145F
  8
0
  6
CONTINUOUS
 62
     7
 10
241.94566555262489
 20
213.1287626790654
 30
0.0
 11
241.556990552625
 21
213.1287626790654
 31
0.0
  0
LINE
  5
1460
  8
0
  6
CONTINUOUS
 62
     7
 10
241.556990552625
 20
216.1287626790654
 30
0.0
 11
241.556990552625
 21
213.1287626790654
 31
0.0
  0
LINE
  5
1461
  8
0
  6
CONTINUOUS
 62
     7
 10
241.84566555262501
 20
211.42876267906539
 30
0.0
 11
219.4456655526252
 21
211.42876267906539
 31
0.0
  0
LINE
  5
1462
  8
CENTER
  6
CENTER
 62
     1
 10
262.09566555262501
 20
214.6287626790654
 30
0.0
 11
239.8445875526248
 21
214.6287626790654
 31
0.0
  0
LINE
  5
1463
  8
0
  6
CONTINUOUS
 62
     7
 10
241.84566555262501
 20
212.6287626790654
 30
0.0
 11
240.6909655526249
 21
214.6287626790654
 31
0.0
  0
LINE
  5
1464
  8
0
  6
CONTINUOUS
 62
     7
 10
241.84566555262501
 20
216.6287626790654
 30
0.0
 11
240.6909655526249
 21
214.6287626790654
 31
0.0
  0
LINE
  5
1465
  8
0
  6
DASHED
 62
     3
 10
219.4456655526252
 20
199.1287626790654
 30
0.0
 11
226.94566555262489
 21
199.1287626790654
 31
0.0
  0
LINE
  5
1466
  8
0
  6
DASHED
 62
     3
 10
225.445665552625
 20
199.1287626790654
 30
0.0
 11
225.445665552625
 21
193.6287626790654
 31
0.0
  0
LINE
  5
1467
  8
0
  6
DASHED
 62
     3
 10
220.945665552625
 20
199.1287626790654
 30
0.0
 11
220.945665552625
 21
193.6287626790654
 31
0.0
  0
LINE
  5
1468
  8
0
  6
DASHED
 62
     3
 10
226.94566555262489
 20
201.1287626790654
 30
0.0
 11
226.94566555262489
 21
199.1287626790654
 31
0.0
  0
LINE
  5
1469
  8
CENTER
  6
CENTER
 62
     1
 10
223.44566555262509
 20
214.6287626790654
 30
0.0
 11
215.4456655526252
 21
214.6287626790654
 31
0.0
  0
LINE
  5
146A
  8
CENTER
  6
CENTER
 62
     1
 10
219.4456655526252
 20
210.6287626790654
 30
0.0
 11
219.4456655526252
 21
218.62876267906529
 31
0.0
  0
LINE
  5
146B
  8
0
  6
CONTINUOUS
 62
     7
 10
199.6956655526246
 20
210.6287626790654
 30
0.0
 11
210.69566555262489
 21
210.6287626790654
 31
0.0
  0
LINE
  5
146C
  8
0
  6
CONTINUOUS
 62
     7
 10
199.6956655526246
 20
200.62876267906549
 30
0.0
 11
210.69566555262489
 21
200.62876267906549
 31
0.0
  0
LINE
  5
146F
  8
0
  6
CONTINUOUS
 62
     7
 10
263.09566555262512
 20
216.3787626790654
 30
0.0
 11
263.09566555262501
 21
212.87876267906529
 31
0.0
  0
LINE
  5
1470
  8
0
  6
CONTINUOUS
 62
     7
 10
198.6956655526246
 20
201.62876267906549
 30
0.0
 11
198.69566555262469
 21
209.6287626790654
 31
0.0
  0
LINE
  5
1471
  8
0
  6
CONTINUOUS
 62
     3
 10
199.6956655526246
 20
209.6287626790654
 30
0.0
 11
210.69566555262489
 21
209.6287626790654
 31
0.0
  0
LINE
  5
1472
  8
0
  6
CONTINUOUS
 62
     3
 10
199.6956655526246
 20
208.6287626790654
 30
0.0
 11
210.69566555262489
 21
208.6287626790654
 31
0.0
  0
LINE
  5
1473
  8
0
  6
CONTINUOUS
 62
     3
 10
199.6956655526246
 20
207.6287626790654
 30
0.0
 11
210.69566555262489
 21
207.6287626790654
 31
0.0
  0
LINE
  5
1474
  8
0
  6
CONTINUOUS
 62
     3
 10
199.6956655526246
 20
206.6287626790654
 30
0.0
 11
210.69566555262489
 21
206.6287626790654
 31
0.0
  0
LINE
  5
1475
  8
0
  6
CONTINUOUS
 62
     3
 10
199.6956655526246
 20
205.6287626790654
 30
0.0
 11
210.69566555262489
 21
205.6287626790654
 31
0.0
  0
LINE
  5
1476
  8
0
  6
CONTINUOUS
 62
     3
 10
199.6956655526246
 20
204.6287626790656
 30
0.0
 11
210.69566555262489
 21
204.6287626790656
 31
0.0
  0
LINE
  5
1477
  8
0
  6
CONTINUOUS
 62
     3
 10
199.6956655526246
 20
203.6287626790656
 30
0.0
 11
210.69566555262489
 21
203.6287626790656
 31
0.0
  0
LINE
  5
1478
  8
0
  6
CONTINUOUS
 62
     3
 10
199.6956655526246
 20
202.62876267906549
 30
0.0
 11
210.69566555262489
 21
202.62876267906549
 31
0.0
  0
LINE
  5
1479
  8
0
  6
CONTINUOUS
 62
     3
 10
199.6956655526246
 20
201.6287626790656
 30
0.0
 11
210.69566555262489
 21
201.62876267906549
 31
0.0
  0
LINE
  5
147F
  8
0
  6
CONTINUOUS
 62
     7
 10
210.69566555262489
 20
227.6287626790654
 30
0.0
 11
210.69566555262489
 21
193.6287626790654
 31
0.0
  0
LINE
  5
1480
  8
0
  6
CONTINUOUS
 62
     7
 10
250.69566555262509
 20
227.6287626790654
 30
0.0
 11
250.69566555262509
 21
193.6287626790654
 31
0.0
  0
LINE
  5
1481
  8
CENTER
  6
CENTER
 62
     1
 10
223.19566555262489
 20
191.6287626790654
 30
0.0
 11
223.19566555262489
 21
202.6599916790654
 31
0.0
  0
LINE
  5
1482
  8
CENTER
  6
CENTER
 62
     1
 10
238.19566555262509
 20
191.6287626790654
 30
0.0
 11
238.19566555262509
 21
202.7011376790654
 31
0.0
  0
LINE
  5
1483
  8
0
  6
DASHED
 62
     3
 10
234.44566555262509
 20
199.1287626790654
 30
0.0
 11
241.94566555262489
 21
199.1287626790654
 31
0.0
  0
LINE
  5
1484
  8
0
  6
DASHED
 62
     3
 10
234.44566555262509
 20
201.1287626790654
 30
0.0
 11
234.44566555262509
 21
199.1287626790654
 31
0.0
  0
LINE
  5
1485
  8
0
  6
DASHED
 62
     3
 10
240.44566555262509
 20
199.1287626790654
 30
0.0
 11
240.44566555262509
 21
193.6287626790654
 31
0.0
  0
LINE
  5
1486
  8
0
  6
DASHED
 62
     3
 10
235.94566555262509
 20
199.1287626790654
 30
0.0
 11
235.94566555262509
 21
193.6287626790654
 31
0.0
  0
LINE
  5
1487
  8
0
  6
CONTINUOUS
 62
     7
 10
219.4456655526252
 20
212.82876267906539
 30
0.0
 11
219.4456655526252
 21
201.1287626790654
 31
0.0
  0
LINE
  5
1488
  8
0
  6
DASHED
 62
     3
 10
219.4456655526252
 20
199.1287626790654
 30
0.0
 11
219.4456655526252
 21
201.1287626790654
 31
0.0
  0
LINE
  5
1489
  8
0
  6
DASHED
 62
     3
 10
241.94566555262489
 20
201.1287626790654
 30
0.0
 11
241.94566555262489
 21
199.1287626790654
 31
0.0
  0
LINE
  5
148A
  8
0
  6
CONTINUOUS
 62
     7
 10
241.94566555262489
 20
211.4287626790655
 30
0.0
 11
241.94566555262489
 21
201.1287626790654
 31
0.0
  0
CIRCLE
  5
148B
  8
0
  6
CONTINUOUS
 62
     7
 10
219.4456655526252
 20
214.6287626790654
 30
0.0
 40
2.0
  0
INSERT
  5
1496
  8
0
  6
CONTINUOUS
 62
     7
  2
*U2
 10
25.55317996883241
 20
9.3048347623141634
 30
0.0
  0
LINE
  5
1497
  8
0
  6
CONTINUOUS
 62
     7
 10
97.591654496189804
 20
227.6287626790654
 30
0.0
 11
157.59165449618979
 21
227.6287626790654
 31
0.0
  0
LINE
  5
1498
  8
0
  6
CONTINUOUS
 62
     7
 10
97.591654496189804
 20
193.6287626790654
 30
0.0
 11
157.59165449618979
 21
193.62876267906529
 31
0.0
  0
LINE
  5
1499
  8
0
  6
CONTINUOUS
 62
     7
 10
97.591654496189804
 20
227.6287626790654
 30
0.0
 11
97.591654496189804
 21
193.62876267906529
 31
0.0
  0
LINE
  5
149A
  8
0
  6
CONTINUOUS
 62
     7
 10
97.591654496189761
 20
227.6287626790654
 30
0.0
 11
97.591654496189804
 21
193.62876267906529
 31
0.0
  0
LINE
  5
149B
  8
CENTER
  6
CENTER
 62
     1
 10
127.59165449619
 20
231.97620129729921
 30
0.0
 11
127.59165449619
 21
188.673954460863
 31
0.0
  0
LINE
  5
149C
  8
CENTER
  6
CENTER
 62
     1
 10
105.0916544961898
 20
203.1287626790654
 30
0.0
 11
105.0916544961898
 21
191.6287626790654
 31
0.0
  0
LINE
  5
149D
  8
0
  6
DASHED
 62
     3
 10
107.3416544961897
 20
199.1287626790654
 30
0.0
 11
107.3416544961898
 21
193.6287626790654
 31
0.0
  0
LINE
  5
149E
  8
0
  6
DASHED
 62
     3
 10
102.8416544961898
 20
199.1287626790654
 30
0.0
 11
102.8416544961898
 21
193.6287626790654
 31
0.0
  0
LINE
  5
149F
  8
0
  6
DASHED
 62
     3
 10
108.84165449619
 20
201.1287626790654
 30
0.0
 11
108.84165449619
 21
199.1287626790654
 31
0.0
  0
LINE
  5
14A0
  8
0
  6
DASHED
 62
     3
 10
101.3416544961898
 20
201.1287626790654
 30
0.0
 11
101.3416544961897
 21
199.1287626790654
 31
0.0
  0
LINE
  5
14A1
  8
CENTER
  6
CENTER
 62
     1
 10
150.09165449618979
 20
203.12876267906529
 30
0.0
 11
150.0916544961899
 21
191.6287626790654
 31
0.0
  0
LINE
  5
14A2
  8
0
  6
CONTINUOUS
 62
     7
 10
157.59165449618979
 20
227.6287626790654
 30
0.0
 11
157.59165449618979
 21
193.62876267906529
 31
0.0
  0
LINE
  5
14A4
  8
0
  6
DASHED
 62
     3
 10
101.3416544961897
 20
199.1287626790654
 30
0.0
 11
108.84165449619
 21
199.1287626790654
 31
0.0
  0
LINE
  5
14A5
  8
0
  6
CONTINUOUS
 62
     7
 10
97.591654496189804
 20
218.1287626790652
 30
0.0
 11
157.59165449618979
 21
218.1287626790652
 31
0.0
  0
CIRCLE
  5
14A6
  8
0
  6
CONTINUOUS
 62
     7
 10
127.59165449619
 20
205.82876267906531
 30
0.0
 40
5.0
  0
LINE
  5
14A9
  8
0
  6
DASHED
 62
     3
 10
152.34165449618979
 20
199.12876267906529
 30
0.0
 11
152.34165449618979
 21
193.6287626790654
 31
0.0
  0
LINE
  5
14AA
  8
0
  6
DASHED
 62
     3
 10
147.84165449618979
 20
199.12876267906529
 30
0.0
 11
147.84165449618979
 21
193.6287626790654
 31
0.0
  0
LINE
  5
14AB
  8
0
  6
DASHED
 62
     3
 10
153.84165449618979
 20
201.12876267906529
 30
0.0
 11
153.84165449618979
 21
199.12876267906529
 31
0.0
  0
LINE
  5
14AC
  8
0
  6
DASHED
 62
     3
 10
146.34165449618999
 20
201.12876267906529
 30
0.0
 11
146.34165449618999
 21
199.12876267906529
 31
0.0
  0
LINE
  5
14AD
  8
0
  6
DASHED
 62
     3
 10
146.34165449618999
 20
199.12876267906529
 30
0.0
 11
153.84165449618979
 21
199.12876267906529
 31
0.0
  0
INSERT
  5
166E
  8
0
  6
CONTINUOUS
 62
     7
  2
*U3
 10
25.55317996883241
 20
9.3048347623141634
 30
0.0
  0
CIRCLE
  5
1ADB
  8
0
  6
CONTINUOUS
 62
     7
 10
127.59165449619
 20
205.82876267906531
 30
0.0
 40
4.5
  0
LINE
  5
1AE0
  8
0
  6
DASHED
 62
     3
 10
97.591654496189804
 20
201.1287626790654
 30
0.0
 11
157.59165449618979
 21
201.12876267906529
 31
0.0
  0
LINE
  5
1BEF
  8
0
  6
CONTINUOUS
 62
     3
 10
127.09165449619
 20
219.1287626790652
 30
0.0
 11
127.09165449619
 21
218.1287626790652
 31
0.0
  0
LINE
  5
1BF0
  8
0
  6
CONTINUOUS
 62
     3
 10
126.59165449619
 20
220.1287626790652
 30
0.0
 11
126.59165449619
 21
218.1287626790652
 31
0.0
  0
LINE
  5
1C0F
  8
0
  6
CONTINUOUS
 62
     3
 10
126.09165449619
 20
219.1287626790652
 30
0.0
 11
126.09165449619
 21
218.1287626790652
 31
0.0
  0
LINE
  5
1C10
  8
0
  6
CONTINUOUS
 62
     3
 10
125.59165449619
 20
220.1287626790652
 30
0.0
 11
125.59165449619
 21
218.1287626790652
 31
0.0
  0
LINE
  5
1C11
  8
0
  6
CONTINUOUS
 62
     3
 10
125.09165449619
 20
219.1287626790652
 30
0.0
 11
125.09165449619
 21
218.1287626790652
 31
0.0
  0
LINE
  5
1C12
  8
0
  6
CONTINUOUS
 62
     3
 10
124.59165449619
 20
220.1287626790652
 30
0.0
 11
124.59165449619
 21
218.1287626790652
 31
0.0
  0
LINE
  5
1C13
  8
0
  6
CONTINUOUS
 62
     3
 10
124.09165449619
 20
219.1287626790652
 30
0.0
 11
124.09165449619
 21
218.1287626790652
 31
0.0
  0
LINE
  5
1C14
  8
0
  6
CONTINUOUS
 62
     3
 10
123.59165449619
 20
221.1287626790652
 30
0.0
 11
123.59165449619
 21
218.1287626790652
 31
0.0
  0
LINE
  5
1C15
  8
0
  6
CONTINUOUS
 62
     3
 10
123.09165449619
 20
219.1287626790652
 30
0.0
 11
123.09165449619
 21
218.1287626790652
 31
0.0
  0
LINE
  5
1C16
  8
0
  6
CONTINUOUS
 62
     3
 10
122.59165449619
 20
220.1287626790652
 30
0.0
 11
122.59165449619
 21
218.1287626790652
 31
0.0
  0
LINE
  5
1C17
  8
0
  6
CONTINUOUS
 62
     3
 10
122.09165449619
 20
219.1287626790652
 30
0.0
 11
122.09165449619
 21
218.1287626790652
 31
0.0
  0
LINE
  5
1C18
  8
0
  6
CONTINUOUS
 62
     3
 10
121.59165449619
 20
220.1287626790652
 30
0.0
 11
121.59165449619
 21
218.1287626790652
 31
0.0
  0
LINE
  5
1C19
  8
0
  6
CONTINUOUS
 62
     3
 10
121.09165449619
 20
219.1287626790652
 30
0.0
 11
121.09165449619
 21
218.1287626790652
 31
0.0
  0
LINE
  5
1C1A
  8
0
  6
CONTINUOUS
 62
     3
 10
120.59165449619
 20
220.1287626790652
 30
0.0
 11
120.59165449619
 21
218.1287626790652
 31
0.0
  0
LINE
  5
1C1B
  8
0
  6
CONTINUOUS
 62
     3
 10
120.09165449619
 20
219.1287626790652
 30
0.0
 11
120.09165449619
 21
218.1287626790652
 31
0.0
  0
LINE
  5
1C1C
  8
0
  6
CONTINUOUS
 62
     3
 10
119.59165449619
 20
220.1287626790652
 30
0.0
 11
119.59165449619
 21
218.1287626790652
 31
0.0
  0
LINE
  5
1C1D
  8
0
  6
CONTINUOUS
 62
     3
 10
119.09165449619
 20
219.1287626790652
 30
0.0
 11
119.09165449619
 21
218.1287626790652
 31
0.0
  0
LINE
  5
1C1E
  8
0
  6
CONTINUOUS
 62
     3
 10
118.59165449619
 20
221.1287626790652
 30
0.0
 11
118.59165449619
 21
218.1287626790652
 31
0.0
  0
LINE
  5
1C1F
  8
0
  6
CONTINUOUS
 62
     3
 10
118.09165449619
 20
219.1287626790652
 30
0.0
 11
118.09165449619
 21
218.1287626790652
 31
0.0
  0
LINE
  5
1C20
  8
0
  6
CONTINUOUS
 62
     3
 10
117.59165449619
 20
220.1287626790652
 30
0.0
 11
117.59165449619
 21
218.1287626790652
 31
0.0
  0
LINE
  5
1C21
  8
0
  6
CONTINUOUS
 62
     3
 10
117.09165449619
 20
219.1287626790652
 30
0.0
 11
117.09165449619
 21
218.1287626790652
 31
0.0
  0
LINE
  5
1C22
  8
0
  6
CONTINUOUS
 62
     3
 10
116.59165449619
 20
220.1287626790652
 30
0.0
 11
116.59165449619
 21
218.1287626790652
 31
0.0
  0
LINE
  5
1C23
  8
0
  6
CONTINUOUS
 62
     3
 10
116.09165449619
 20
219.1287626790652
 30
0.0
 11
116.09165449619
 21
218.1287626790652
 31
0.0
  0
LINE
  5
1C24
  8
0
  6
CONTINUOUS
 62
     3
 10
115.59165449619
 20
220.1287626790652
 30
0.0
 11
115.59165449619
 21
218.1287626790652
 31
0.0
  0
LINE
  5
1C25
  8
0
  6
CONTINUOUS
 62
     3
 10
115.09165449619
 20
219.1287626790652
 30
0.0
 11
115.09165449619
 21
218.1287626790652
 31
0.0
  0
LINE
  5
1C26
  8
0
  6
CONTINUOUS
 62
     3
 10
114.59165449619
 20
220.1287626790652
 30
0.0
 11
114.59165449619
 21
218.1287626790652
 31
0.0
  0
LINE
  5
1C27
  8
0
  6
CONTINUOUS
 62
     3
 10
114.09165449619
 20
219.1287626790652
 30
0.0
 11
114.09165449619
 21
218.1287626790652
 31
0.0
  0
LINE
  5
1C28
  8
0
  6
CONTINUOUS
 62
     3
 10
113.59165449619
 20
221.1287626790652
 30
0.0
 11
113.59165449619
 21
215.1287626790652
 31
0.0
  0
LINE
  5
1C29
  8
0
  6
CONTINUOUS
 62
     3
 10
113.09165449619
 20
219.1287626790652
 30
0.0
 11
113.09165449619
 21
218.1287626790652
 31
0.0
  0
LINE
  5
1C2A
  8
0
  6
CONTINUOUS
 62
     3
 10
112.59165449619
 20
220.1287626790652
 30
0.0
 11
112.59165449619
 21
218.1287626790652
 31
0.0
  0
LINE
  5
1C2B
  8
0
  6
CONTINUOUS
 62
     3
 10
112.09165449619
 20
219.1287626790652
 30
0.0
 11
112.09165449619
 21
218.1287626790652
 31
0.0
  0
LINE
  5
1C2C
  8
0
  6
CONTINUOUS
 62
     3
 10
111.59165449619
 20
220.1287626790652
 30
0.0
 11
111.59165449619
 21
218.1287626790652
 31
0.0
  0
LINE
  5
1C2D
  8
0
  6
CONTINUOUS
 62
     3
 10
111.09165449619
 20
219.1287626790652
 30
0.0
 11
111.09165449619
 21
218.1287626790652
 31
0.0
  0
LINE
  5
1C2E
  8
0
  6
CONTINUOUS
 62
     3
 10
110.59165449619
 20
220.1287626790652
 30
0.0
 11
110.59165449619
 21
218.1287626790652
 31
0.0
  0
LINE
  5
1C2F
  8
0
  6
CONTINUOUS
 62
     3
 10
110.09165449619
 20
219.1287626790652
 30
0.0
 11
110.09165449619
 21
218.1287626790652
 31
0.0
  0
LINE
  5
1C30
  8
0
  6
CONTINUOUS
 62
     3
 10
109.59165449619
 20
220.1287626790652
 30
0.0
 11
109.59165449619
 21
218.1287626790652
 31
0.0
  0
LINE
  5
1C31
  8
0
  6
CONTINUOUS
 62
     3
 10
109.09165449619
 20
219.1287626790652
 30
0.0
 11
109.09165449619
 21
218.1287626790652
 31
0.0
  0
LINE
  5
1C32
  8
0
  6
CONTINUOUS
 62
     3
 10
108.59165449619
 20
221.1287626790652
 30
0.0
 11
108.59165449619
 21
218.1287626790652
 31
0.0
  0
LINE
  5
1C33
  8
0
  6
CONTINUOUS
 62
     3
 10
108.09165449619
 20
219.1287626790652
 30
0.0
 11
108.09165449619
 21
218.1287626790652
 31
0.0
  0
LINE
  5
1C34
  8
0
  6
CONTINUOUS
 62
     3
 10
107.59165449619
 20
220.1287626790652
 30
0.0
 11
107.59165449619
 21
218.1287626790652
 31
0.0
  0
LINE
  5
1C35
  8
0
  6
CONTINUOUS
 62
     3
 10
107.09165449619
 20
219.1287626790652
 30
0.0
 11
107.09165449619
 21
218.1287626790652
 31
0.0
  0
LINE
  5
1C36
  8
0
  6
CONTINUOUS
 62
     3
 10
106.59165449619
 20
220.1287626790652
 30
0.0
 11
106.59165449619
 21
218.1287626790652
 31
0.0
  0
LINE
  5
1C37
  8
0
  6
CONTINUOUS
 62
     3
 10
106.09165449619
 20
219.1287626790652
 30
0.0
 11
106.09165449619
 21
218.1287626790652
 31
0.0
  0
LINE
  5
1C38
  8
0
  6
CONTINUOUS
 62
     3
 10
105.59165449619
 20
220.1287626790652
 30
0.0
 11
105.59165449619
 21
218.1287626790652
 31
0.0
  0
LINE
  5
1C39
  8
0
  6
CONTINUOUS
 62
     3
 10
105.09165449619
 20
219.1287626790652
 30
0.0
 11
105.09165449619
 21
218.1287626790652
 31
0.0
  0
LINE
  5
1C3A
  8
0
  6
CONTINUOUS
 62
     3
 10
104.59165449619
 20
220.1287626790652
 30
0.0
 11
104.59165449619
 21
218.1287626790652
 31
0.0
  0
LINE
  5
1C3B
  8
0
  6
CONTINUOUS
 62
     3
 10
104.09165449619
 20
219.1287626790652
 30
0.0
 11
104.09165449619
 21
218.1287626790652
 31
0.0
  0
LINE
  5
1C3C
  8
0
  6
CONTINUOUS
 62
     3
 10
103.59165449619
 20
221.1287626790652
 30
0.0
 11
103.59165449619
 21
218.1287626790652
 31
0.0
  0
LINE
  5
1C3D
  8
0
  6
CONTINUOUS
 62
     3
 10
103.09165449619
 20
219.1287626790652
 30
0.0
 11
103.09165449619
 21
218.1287626790652
 31
0.0
  0
LINE
  5
1C3E
  8
0
  6
CONTINUOUS
 62
     3
 10
102.59165449619
 20
220.1287626790652
 30
0.0
 11
102.59165449619
 21
218.1287626790652
 31
0.0
  0
LINE
  5
1C3F
  8
0
  6
CONTINUOUS
 62
     3
 10
102.09165449619
 20
219.1287626790652
 30
0.0
 11
102.09165449619
 21
218.1287626790652
 31
0.0
  0
LINE
  5
1C40
  8
0
  6
CONTINUOUS
 62
     3
 10
101.59165449619
 20
220.1287626790652
 30
0.0
 11
101.59165449619
 21
218.1287626790652
 31
0.0
  0
LINE
  5
1C41
  8
0
  6
CONTINUOUS
 62
     3
 10
101.09165449619
 20
219.1287626790652
 30
0.0
 11
101.09165449619
 21
218.1287626790652
 31
0.0
  0
LINE
  5
1C42
  8
0
  6
CONTINUOUS
 62
     3
 10
100.59165449619
 20
220.1287626790652
 30
0.0
 11
100.59165449619
 21
218.1287626790652
 31
0.0
  0
LINE
  5
1C43
  8
0
  6
CONTINUOUS
 62
     3
 10
100.09165449619
 20
219.1287626790652
 30
0.0
 11
100.09165449619
 21
218.1287626790652
 31
0.0
  0
LINE
  5
1C44
  8
0
  6
CONTINUOUS
 62
     3
 10
99.591654496190003
 20
220.1287626790652
 30
0.0
 11
99.591654496190003
 21
218.1287626790652
 31
0.0
  0
CIRCLE
  5
1C50
  8
0
  6
CONTINUOUS
 62
     7
 10
110.59165449619
 20
214.82876267906519
 30
0.0
 40
1.0
  0
CIRCLE
  5
1C52
  8
0
  6
CONTINUOUS
 62
     7
 10
144.59165449618959
 20
214.8287626790657
 30
0.0
 40
1.0
  0
LINE
  5
1C54
  8
0
  6
CONTINUOUS
 62
     7
 10
241.94566555262489
 20
201.1287626790654
 30
0.0
 11
219.4456655526252
 21
201.1287626790654
 31
0.0
  0
LINE
  5
1C61
  8
0
  6
CONTINUOUS
 62
     7
 10
253.09566555262529
 20
217.3787626790654
 30
0.0
 11
262.09566555262512
 21
217.3787626790654
 31
0.0
  0
LINE
  5
1C62
  8
0
  6
CONTINUOUS
 62
     7
 10
253.09566555262529
 20
211.8787626790654
 30
0.0
 11
262.09566555262501
 21
211.8787626790654
 31
0.0
  0
LINE
  5
1C6E
  8
0
  6
CONTINUOUS
 62
     3
 10
253.09566555262529
 20
216.3787626790654
 30
0.0
 11
262.09566555262512
 21
216.3787626790654
 31
0.0
  0
LINE
  5
1C6F
  8
0
  6
CONTINUOUS
 62
     3
 10
253.09566555262529
 20
215.3787626790654
 30
0.0
 11
262.09566555262512
 21
215.3787626790654
 31
0.0
  0
LINE
  5
1C70
  8
0
  6
CONTINUOUS
 62
     3
 10
253.09566555262529
 20
214.3787626790654
 30
0.0
 11
262.09566555262501
 21
214.3787626790654
 31
0.0
  0
LINE
  5
1C71
  8
0
  6
CONTINUOUS
 62
     3
 10
253.09566555262529
 20
213.3787626790654
 30
0.0
 11
262.09566555262501
 21
213.3787626790654
 31
0.0
  0
LINE
  5
1C72
  8
0
  6
CONTINUOUS
 62
     3
 10
253.09566555262529
 20
212.3787626790654
 30
0.0
 11
262.09566555262501
 21
212.3787626790654
 31
0.0
  0
LINE
  5
1D7E
  8
0
  6
CONTINUOUS
 62
     7
 10
199.6956655526246
 20
200.62876267906549
 30
0.0
 11
199.6956655526246
 21
210.6287626790654
 31
0.0
  0
LINE
  5
1D7F
  8
0
  6
CONTINUOUS
 62
     7
 10
199.6956655526246
 20
210.6287626790654
 30
0.0
 11
198.69566555262469
 21
209.6287626790654
 31
0.0
  0
LINE
  5
1D80
  8
0
  6
CONTINUOUS
 62
     7
 10
199.6956655526246
 20
200.62876267906549
 30
0.0
 11
198.69566555262469
 21
201.62876267906549
 31
0.0
  0
LINE
  5
1DA5
  8
0
  6
CONTINUOUS
 62
     7
 10
262.09566555262512
 20
217.3787626790654
 30
0.0
 11
262.09566555262501
 21
211.8787626790654
 31
0.0
  0
LINE
  5
1DA6
  8
0
  6
CONTINUOUS
 62
     7
 10
263.09566555262512
 20
216.3787626790654
 30
0.0
 11
262.09566555262512
 21
217.3787626790654
 31
0.0
  0
LINE
  5
1DA7
  8
0
  6
CONTINUOUS
 62
     7
 10
263.09566555262512
 20
212.8787626790654
 30
0.0
 11
262.09566555262512
 21
211.8787626790654
 31
0.0
  0
LINE
  5
1DC3
  8
0
  6
CONTINUOUS
 62
     7
 10
99.292596021482353
 20
276.01668139143408
 30
0.0
 11
99.292596021482353
 21
316.01668139143408
 31
0.0
  0
LINE
  5
1DC4
  8
0
  6
CONTINUOUS
 62
     7
 10
159.29259602148241
 20
276.01668139143402
 30
0.0
 11
159.29259602148241
 21
316.01668139143408
 31
0.0
  0
LINE
  5
1DC5
  8
0
  6
CONTINUOUS
 62
     7
 10
159.29259602148241
 20
316.01668139143408
 30
0.0
 11
99.292596021482353
 21
316.01668139143408
 31
0.0
  0
LINE
  5
1DC6
  8
0
  6
CONTINUOUS
 62
     7
 10
159.29259602148241
 20
276.01668139143408
 30
0.0
 11
99.292596021482311
 21
276.01668139143419
 31
0.0
  0
LINE
  5
1DC7
  8
CENTER
  6
CENTER
 62
     1
 10
166.2155247624278
 20
296.01668139143408
 30
0.0
 11
93.450927580747077
 21
296.01668139143408
 31
0.0
  0
LINE
  5
1DC8
  8
CENTER
  6
CENTER
 62
     1
 10
132.2925960214823
 20
308.51668139143408
 30
0.0
 11
126.2925960214823
 21
308.51668139143408
 31
0.0
  0
LINE
  5
1DCA
  8
CENTER
  6
CENTER
 62
     1
 10
129.2925960214823
 20
270.46641484256492
 30
0.0
 11
129.2925960214823
 21
320.86180479297872
 31
0.0
  0
CIRCLE
  5
1DCD
  8
0
  6
CONTINUOUS
 62
     3
 10
129.2925960214823
 20
308.51668139143408
 30
0.0
 40
2.0
  0
CIRCLE
  5
1DCE
  8
0
  6
CONTINUOUS
 62
     7
 10
129.2925960214823
 20
308.51668139143408
 30
0.0
 40
1.8
  0
LINE
  5
1DD3
  8
CENTER
  6
CENTER
 62
     1
 10
129.2925960214823
 20
305.51668139143408
 30
0.0
 11
129.2925960214823
 21
311.51668139143419
 31
0.0
  0
LINE
  5
1DD4
  8
CENTER
  6
CENTER
 62
     1
 10
149.2925960214823
 20
305.51668139143408
 30
0.0
 11
149.2925960214823
 21
311.51668139143419
 31
0.0
  0
LINE
  5
1DD5
  8
CENTER
  6
CENTER
 62
     1
 10
152.2925960214823
 20
308.51668139143408
 30
0.0
 11
146.2925960214823
 21
308.51668139143408
 31
0.0
  0
CIRCLE
  5
1DD6
  8
0
  6
CONTINUOUS
 62
     3
 10
149.2925960214823
 20
308.51668139143408
 30
0.0
 40
2.0
  0
CIRCLE
  5
1DD7
  8
0
  6
CONTINUOUS
 62
     7
 10
149.2925960214823
 20
308.51668139143408
 30
0.0
 40
1.8
  0
LINE
  5
1DD8
  8
CENTER
  6
CENTER
 62
     1
 10
109.2925960214824
 20
305.51668139143408
 30
0.0
 11
109.2925960214824
 21
311.51668139143419
 31
0.0
  0
LINE
  5
1DD9
  8
CENTER
  6
CENTER
 62
     1
 10
112.2925960214823
 20
308.51668139143408
 30
0.0
 11
106.2925960214823
 21
308.51668139143408
 31
0.0
  0
CIRCLE
  5
1DDA
  8
0
  6
CONTINUOUS
 62
     3
 10
109.2925960214824
 20
308.51668139143408
 30
0.0
 40
2.0
  0
CIRCLE
  5
1DDB
  8
0
  6
CONTINUOUS
 62
     7
 10
109.2925960214824
 20
308.51668139143408
 30
0.0
 40
1.8
  0
LINE
  5
1DDC
  8
CENTER
  6
CENTER
 62
     1
 10
129.2925960214823
 20
280.51668139143408
 30
0.0
 11
129.2925960214823
 21
286.51668139143419
 31
0.0
  0
LINE
  5
1DDD
  8
CENTER
  6
CENTER
 62
     1
 10
132.2925960214823
 20
283.51668139143408
 30
0.0
 11
126.2925960214823
 21
283.51668139143408
 31
0.0
  0
CIRCLE
  5
1DDE
  8
0
  6
CONTINUOUS
 62
     3
 10
129.2925960214823
 20
283.51668139143408
 30
0.0
 40
2.0
  0
CIRCLE
  5
1DDF
  8
0
  6
CONTINUOUS
 62
     7
 10
129.2925960214823
 20
283.51668139143408
 30
0.0
 40
1.8
  0
LINE
  5
1DE0
  8
CENTER
  6
CENTER
 62
     1
 10
149.2925960214823
 20
280.51668139143408
 30
0.0
 11
149.2925960214823
 21
286.51668139143419
 31
0.0
  0
LINE
  5
1DE1
  8
CENTER
  6
CENTER
 62
     1
 10
152.2925960214823
 20
283.51668139143408
 30
0.0
 11
146.2925960214823
 21
283.51668139143408
 31
0.0
  0
CIRCLE
  5
1DE2
  8
0
  6
CONTINUOUS
 62
     3
 10
149.2925960214823
 20
283.51668139143408
 30
0.0
 40
2.0
  0
CIRCLE
  5
1DE3
  8
0
  6
CONTINUOUS
 62
     7
 10
149.2925960214823
 20
283.51668139143408
 30
0.0
 40
1.8
  0
LINE
  5
1DE4
  8
CENTER
  6
CENTER
 62
     1
 10
109.2925960214824
 20
280.51668139143408
 30
0.0
 11
109.2925960214824
 21
286.51668139143419
 31
0.0
  0
LINE
  5
1DE5
  8
CENTER
  6
CENTER
 62
     1
 10
112.2925960214823
 20
283.51668139143408
 30
0.0
 11
106.2925960214823
 21
283.51668139143408
 31
0.0
  0
CIRCLE
  5
1DE6
  8
0
  6
CONTINUOUS
 62
     3
 10
109.2925960214824
 20
283.51668139143408
 30
0.0
 40
2.0
  0
CIRCLE
  5
1DE7
  8
0
  6
CONTINUOUS
 62
     7
 10
109.2925960214824
 20
283.51668139143408
 30
0.0
 40
1.8
  0
LINE
  5
1E0F
  8
0
  6
CONTINUOUS
 62
     7
 10
134.29259602148221
 20
276.01668139143408
 30
0.0
 11
124.2925960214823
 21
276.01668139143408
 31
0.0
  0
LINE
  5
1E10
  8
CENTER
  6
CENTER
 62
     1
 10
129.29259602148241
 20
261.36275431817842
 30
0.0
 11
129.2925960214823
 21
281.01668139143368
 31
0.0
  0
LINE
  5
1E11
  8
0
  6
CONTINUOUS
 62
     7
 10
124.2925960214823
 20
265.01668139143391
 30
0.0
 11
124.2925960214823
 21
276.01668139143408
 31
0.0
  0
LINE
  5
1E12
  8
0
  6
CONTINUOUS
 62
     7
 10
134.29259602148221
 20
265.01668139143391
 30
0.0
 11
134.29259602148221
 21
276.01668139143408
 31
0.0
  0
LINE
  5
1E13
  8
0
  6
CONTINUOUS
 62
     7
 10
133.29259602148221
 20
264.01668139143368
 30
0.0
 11
125.2925960214823
 21
264.01668139143368
 31
0.0
  0
LINE
  5
1E14
  8
0
  6
CONTINUOUS
 62
     7
 10
134.29259602148221
 20
265.01668139143391
 30
0.0
 11
124.2925960214823
 21
265.01668139143391
 31
0.0
  0
LINE
  5
1E15
  8
0
  6
CONTINUOUS
 62
     3
 10
125.2925960214823
 20
265.01668139143391
 30
0.0
 11
125.2925960214823
 21
276.01668139143408
 31
0.0
  0
LINE
  5
1E16
  8
0
  6
CONTINUOUS
 62
     3
 10
126.2925960214824
 20
265.01668139143391
 30
0.0
 11
126.2925960214823
 21
276.01668139143408
 31
0.0
  0
LINE
  5
1E17
  8
0
  6
CONTINUOUS
 62
     3
 10
127.2925960214823
 20
265.01668139143391
 30
0.0
 11
127.2925960214823
 21
276.01668139143408
 31
0.0
  0
LINE
  5
1E18
  8
0
  6
CONTINUOUS
 62
     3
 10
128.2925960214823
 20
265.01668139143391
 30
0.0
 11
128.2925960214823
 21
276.01668139143408
 31
0.0
  0
LINE
  5
1E19
  8
0
  6
CONTINUOUS
 62
     3
 10
129.2925960214823
 20
265.01668139143391
 30
0.0
 11
129.2925960214823
 21
276.01668139143408
 31
0.0
  0
LINE
  5
1E1A
  8
0
  6
CONTINUOUS
 62
     3
 10
130.2925960214821
 20
265.01668139143391
 30
0.0
 11
130.2925960214821
 21
276.01668139143408
 31
0.0
  0
LINE
  5
1E1B
  8
0
  6
CONTINUOUS
 62
     3
 10
131.2925960214821
 20
265.01668139143391
 30
0.0
 11
131.2925960214821
 21
276.01668139143408
 31
0.0
  0
LINE
  5
1E1C
  8
0
  6
CONTINUOUS
 62
     3
 10
132.29259602148221
 20
265.01668139143391
 30
0.0
 11
132.29259602148221
 21
276.01668139143408
 31
0.0
  0
LINE
  5
1E1D
  8
0
  6
CONTINUOUS
 62
     3
 10
133.29259602148221
 20
265.01668139143391
 30
0.0
 11
133.29259602148221
 21
276.01668139143408
 31
0.0
  0
LINE
  5
1E1F
  8
0
  6
CONTINUOUS
 62
     7
 10
124.2925960214823
 20
265.01668139143391
 30
0.0
 11
125.2925960214823
 21
264.01668139143368
 31
0.0
  0
LINE
  5
1E20
  8
0
  6
CONTINUOUS
 62
     7
 10
134.29259602148221
 20
265.01668139143391
 30
0.0
 11
133.29259602148221
 21
264.01668139143368
 31
0.0
  0
LINE
  5
1EE4
  8
0
  6
CONTINUOUS
 62
     7
 10
132.04259602148241
 20
318.41668139143422
 30
0.0
 11
126.5425960214824
 21
318.41668139143422
 31
0.0
  0
LINE
  5
1EE5
  8
0
  6
CONTINUOUS
 62
     7
 10
127.7925960214823
 20
318.41668139143422
 30
0.0
 11
127.7925960214823
 21
316.01668139143408
 31
0.0
  0
LINE
  5
1EE6
  8
0
  6
CONTINUOUS
 62
     7
 10
130.7925960214823
 20
318.41668139143422
 30
0.0
 11
130.7925960214823
 21
316.01668139143408
 31
0.0
  0
LINE
  5
1EE7
  8
0
  6
CONTINUOUS
 62
     7
 10
126.5425960214824
 20
318.41668139143422
 30
0.0
 11
126.5425960214824
 21
327.416681391434
 31
0.0
  0
LINE
  5
1EE8
  8
0
  6
CONTINUOUS
 62
     7
 10
132.04259602148241
 20
318.41668139143422
 30
0.0
 11
132.04259602148241
 21
327.416681391434
 31
0.0
  0
LINE
  5
1EE9
  8
0
  6
CONTINUOUS
 62
     3
 10
131.04259602148241
 20
318.41668139143422
 30
0.0
 11
131.04259602148241
 21
327.416681391434
 31
0.0
  0
LINE
  5
1EEA
  8
0
  6
CONTINUOUS
 62
     7
 10
131.04259602148241
 20
328.41668139143411
 30
0.0
 11
127.5425960214823
 21
328.416681391434
 31
0.0
  0
LINE
  5
1EEB
  8
0
  6
CONTINUOUS
 62
     7
 10
132.04259602148241
 20
327.416681391434
 30
0.0
 11
126.5425960214824
 21
327.416681391434
 31
0.0
  0
LINE
  5
1EEC
  8
0
  6
CONTINUOUS
 62
     3
 10
130.04259602148241
 20
318.41668139143422
 30
0.0
 11
130.04259602148241
 21
327.416681391434
 31
0.0
  0
LINE
  5
1EED
  8
0
  6
CONTINUOUS
 62
     3
 10
129.04259602148241
 20
318.41668139143422
 30
0.0
 11
129.04259602148241
 21
327.416681391434
 31
0.0
  0
LINE
  5
1EEE
  8
0
  6
CONTINUOUS
 62
     3
 10
128.04259602148241
 20
318.41668139143422
 30
0.0
 11
128.04259602148241
 21
327.416681391434
 31
0.0
  0
LINE
  5
1EEF
  8
0
  6
CONTINUOUS
 62
     3
 10
127.0425960214824
 20
318.41668139143422
 30
0.0
 11
127.0425960214824
 21
327.416681391434
 31
0.0
  0
LINE
  5
1EF0
  8
0
  6
CONTINUOUS
 62
     7
 10
131.04259602148241
 20
328.41668139143411
 30
0.0
 11
132.04259602148241
 21
327.416681391434
 31
0.0
  0
LINE
  5
1EF1
  8
0
  6
CONTINUOUS
 62
     7
 10
127.5425960214825
 20
328.41668139143411
 30
0.0
 11
126.5425960214824
 21
327.416681391434
 31
0.0
  0
TEXT
  5
2114
  8
0
  6
CONTINUOUS
 62
     3
 10
107.817596631458
 20
221.7645705178345
 30
0.0
 40
2.5
  1
5
  0
TEXT
  5
2117
  8
0
  6
CONTINUOUS
 62
     3
 10
102.345524262477
 20
221.7645705178345
 30
0.0
 40
2.5
  1
10
  0
TEXT
  5
2118
  8
0
  6
CONTINUOUS
 62
     3
 10
113.01944520073781
 20
221.7645705178345
 30
0.0
 40
2.5
  1
0
  0
TEXT
  5
2119
  8
0
  6
CONTINUOUS
 62
     3
 10
117.8835103453883
 20
221.7645705178345
 30
0.0
 40
2.5
  1
5
  0
TEXT
  5
211A
  8
0
  6
CONTINUOUS
 62
     3
 10
122.4773508736703
 20
221.7645705178345
 30
0.0
 40
2.5
  1
10
  0
VIEWPORT
  5
B50
 67
     1
  8
0
  6
CONTINUOUS
 62
     7
 10
5.8539771134530483
 20
4.114505834830001
 30
0.0
 40
10.63634324220639
 41
7.066858560923567
 68
    -1
 69
     1
1001
ACAD
1000
MVIEW
1002
{
1070
    16
1010
0.0
1020
0.0
1030
0.0
1010
0.0
1020
0.0
1030
1.0
1040
0.0
1040
7.066858560923567
1040
5.8539771134530483
1040
4.114505834830001
1040
50.0
1040
0.0
1040
0.0
1070
     0
1070
   100
1070
     1
1070
     1
1070
     0
1070
     0
1070
     0
1070
     0
1040
0.0
1040
0.0
1040
0.0
1040
10.0
1040
10.0
1040
10.0
1040
10.0
1070
     0
1002
{
1002
}
1002
}
  0
VIEWPORT
  5
B52
 67
     1
  8
DEFPOINTS
  6
CONTINUOUS
 62
     7
 10
5.613749965908017
 20
3.902083250481311
 30
0.0
 40
8.9819999454528343
 41
6.243333200770099
 68
     1
 69
     2
1001
ACAD
1000
MVIEW
1002
{
1070
    16
1010
148.5
1020
105.0
1030
0.0
1010
0.0
1020
0.0
1030
442.63470846773748
1040
0.0
1040
178.38094859343141
1040
57.006561514157809
1040
137.8249210284107
1040
50.0
1040
0.0
1040
0.0
1070
     0
1070
   100
1070
     1
1070
     1
1070
     0
1070
     0
1070
     0
1070
     0
1040
0.0
1040
0.0
1040
0.0
1040
10.0
1040
10.0
1040
10.0
1040
10.0
1070
     0
1002
{
1002
}
1002
}
  0
ENDSEC
  0
EOF
