  0
SECTION
  2
HEADER
  9
$ACADVER
  1
AC1009
  9
$INSBASE
 10
0.0
 20
0.0
 30
0.0
  9
$EXTMIN
 10
-3.0100828779721951
 20
-8.0093071512054621
 30
-0.0015258207003583
  9
$EXTMAX
 10
133.51253571122001
 20
53.003723570615648
 30
0.0000000349246037
  9
$LIMMIN
 10
0.0
 20
0.0
  9
$LIMMAX
 10
420.0
 20
297.0
  9
$ORTHOMODE
 70
     0
  9
$REGENMODE
 70
     1
  9
$FILLMODE
 70
     1
  9
$QTEXTMODE
 70
     0
  9
$MIRRTEXT
 70
     0
  9
$DRAGMODE
 70
     2
  9
$LTSCALE
 40
0.5
  9
$OSMODE
 70
   317
  9
$ATTMODE
 70
     1
  9
$TEXTSIZE
 40
3.0
  9
$TRACEWID
 40
1.0
  9
$TEXTSTYLE
  7
STANDARD
  9
$CLAYER
  8
MSM_CONTINUOUS
  9
$CELTYPE
  6
BYLAYER
  9
$CECOLOR
 62
   256
  9
$DIMSCALE
 40
1.0
  9
$DIMASZ
 40
2.5
  9
$DIMEXO
 40
0.625
  9
$DIMDLI
 40
3.75
  9
$DIMRND
 40
0.0
  9
$DIMDLE
 40
0.0
  9
$DIMEXE
 40
1.25
  9
$DIMTP
 40
0.0
  9
$DIMTM
 40
0.0
  9
$DIMTXT
 40
3.0
  9
$DIMCEN
 40
2.5
  9
$DIMTSZ
 40
0.0
  9
$DIMTOL
 70
     0
  9
$DIMLIM
 70
     0
  9
$DIMTIH
 70
     0
  9
$DIMTOH
 70
     0
  9
$DIMSE1
 70
     0
  9
$DIMSE2
 70
     0
  9
$DIMTAD
 70
     1
  9
$DIMZIN
 70
     8
  9
$DIMBLK
  1
OPEN30
  9
$DIMASO
 70
     1
  9
$DIMSHO
 70
     1
  9
$DIMPOST
  1

  9
$DIMAPOST
  1

  9
$DIMALT
 70
     0
  9
$DIMALTD
 70
     3
  9
$DIMALTF
 40
0.03937007874016
  9
$DIMLFAC
 40
1.0
  9
$DIMTOFL
 70
     1
  9
$DIMTVP
 40
0.0
  9
$DIMTIX
 70
     0
  9
$DIMSOXD
 70
     0
  9
$DIMSAH
 70
     0
  9
$DIMBLK1
  1

  9
$DIMBLK2
  1

  9
$DIMSTYLE
  2
MISUMI
  9
$DIMCLRD
 70
   256
  9
$DIMCLRE
 70
   256
  9
$DIMCLRT
 70
   256
  9
$DIMTFAC
 40
1.0
  9
$DIMGAP
 40
0.625
  9
$LUNITS
 70
     2
  9
$LUPREC
 70
     2
  9
$SKETCHINC
 40
1.0
  9
$FILLETRAD
 40
0.0
  9
$AUNITS
 70
     0
  9
$AUPREC
 70
     0
  9
$MENU
  1
.
  9
$ELEVATION
 40
0.0
  9
$PELEVATION
 40
0.0
  9
$THICKNESS
 40
0.0
  9
$LIMCHECK
 70
     0
  9
$BLIPMODE
 70
     0
  9
$CHAMFERA
 40
0.5
  9
$CHAMFERB
 40
0.5
  9
$SKPOLY
 70
     0
  9
$TDCREATE
 40
2455135.5720697111
  9
$TDUPDATE
 40
2457056.8128507291
  9
$TDINDWG
 40
0.7700461921
  9
$TDUSRTIMER
 40
2457056.4177243868
  9
$USRTIMER
 70
     1
  9
$ANGBASE
 50
0.0
  9
$ANGDIR
 70
     0
  9
$PDMODE
 70
    35
  9
$PDSIZE
 40
0.0
  9
$PLINEWID
 40
0.0
  9
$COORDS
 70
     1
  9
$SPLFRAME
 70
     0
  9
$SPLINETYPE
 70
     6
  9
$SPLINESEGS
 70
     8
  9
$ATTDIA
 70
     0
  9
$ATTREQ
 70
     1
  9
$HANDLING
 70
     1
  9
$HANDSEED
  5
10533
  9
$SURFTAB1
 70
     6
  9
$SURFTAB2
 70
     6
  9
$SURFTYPE
 70
     6
  9
$SURFU
 70
     6
  9
$SURFV
 70
     6
  9
$UCSNAME
  2

  9
$UCSORG
 10
0.0
 20
0.0
 30
0.0
  9
$UCSXDIR
 10
1.0
 20
0.0
 30
0.0
  9
$UCSYDIR
 10
0.0
 20
1.0
 30
0.0
  9
$PUCSNAME
  2

  9
$PUCSORG
 10
0.0
 20
0.0
 30
0.0
  9
$PUCSXDIR
 10
1.0
 20
0.0
 30
0.0
  9
$PUCSYDIR
 10
0.0
 20
1.0
 30
0.0
  9
$USERI1
 70
     0
  9
$USERI2
 70
     0
  9
$USERI3
 70
     0
  9
$USERI4
 70
     0
  9
$USERI5
 70
     0
  9
$USERR1
 40
0.0
  9
$USERR2
 40
0.0
  9
$USERR3
 40
0.0
  9
$USERR4
 40
0.0
  9
$USERR5
 40
0.0
  9
$WORLDVIEW
 70
     1
  9
$SHADEDGE
 70
     3
  9
$SHADEDIF
 70
    70
  9
$TILEMODE
 70
     1
  9
$MAXACTVP
 70
    64
  9
$PLIMCHECK
 70
     0
  9
$PEXTMIN
 10
0.0
 20
0.0
 30
0.0
  9
$PEXTMAX
 10
0.0
 20
0.0
 30
0.0
  9
$PLIMMIN
 10
0.0
 20
0.0
  9
$PLIMMAX
 10
12.0
 20
9.0
  9
$UNITMODE
 70
     0
  9
$VISRETAIN
 70
     1
  9
$PLINEGEN
 70
     0
  9
$PSLTSCALE
 70
     1
  0
ENDSEC
  0
SECTION
  2
TABLES
  0
TABLE
  2
VPORT
 70
     1
  0
VPORT
  2
*ACTIVE
 70
     0
 10
0.0
 20
0.0
 11
1.0
 21
1.0
 12
65.251226416623936
 22
22.497208209705089
 13
0.0
 23
0.0
 14
10.0
 24
10.0
 15
10.0
 25
10.0
 16
0.0
 26
0.0
 36
1.0
 17
0.0
 27
0.0
 37
0.0
 40
62.333829675270863
 41
2.1985915492957742
 42
50.0
 43
0.0
 44
0.0
 50
0.0
 51
0.0
 71
    16
 72
  1000
 73
     1
 74
     3
 75
     0
 76
     0
 77
     0
 78
     0
  0
ENDTAB
  0
TABLE
  2
LTYPE
 70
     3
  0
LTYPE
  2
CONTINUOUS
 70
     0
  3
Solid line
 72
    65
 73
     0
 40
0.0
  0
LTYPE
  2
CENTER
 70
     0
  3
Center ____ _ ____ _ ____ _ ____ _ ____ _ ____
 72
    65
 73
     4
 40
50.799999999999997
 49
31.75
 49
-6.3499999999999988
 49
6.3499999999999988
 49
-6.3499999999999988
  0
ENDTAB
  0
TABLE
  2
LAYER
 70
     6
  0
LAYER
  2
0
 70
     0
 62
     7
  6
CONTINUOUS
  0
LAYER
  2
MSM_CENTER
 70
     0
 62
     1
  6
CENTER
  0
LAYER
  2
DEFPOINTS
 70
     0
 62
     7
  6
CONTINUOUS
  0
LAYER
  2
MSM_CONTINUOUS
 70
     0
 62
     7
  6
CONTINUOUS
  0
LAYER
  2
MSM_PART_NUMBER
 70
     0
 62
     7
  6
CONTINUOUS
  0
ENDTAB
  0
TABLE
  2
STYLE
 70
     1
  0
STYLE
  2
STANDARD
 70
     0
 40
3.0
 41
1.0
 50
0.0
 71
     0
 42
3.0
  3
txt.shx
  4
bigfont.shx
  0
ENDTAB
  0
TABLE
  2
VIEW
 70
     0
  0
ENDTAB
  0
TABLE
  2
UCS
 70
     0
  0
ENDTAB
  0
TABLE
  2
APPID
 70
    25
  0
APPID
  2
ACAD
 70
     0
  0
APPID
  2
ACAD_MLEADERVER
 70
     0
  0
APPID
  2
ACAD_EXEMPT_FROM_CAD_STANDARDS
 70
     0
  0
APPID
  2
ACDBBLOCKREPETAG
 70
     0
  0
APPID
  2
ACAD_DSTYLE_DIMJOGGED_JOGA
 70
     0
  0
APPID
  2
ACAECLAYERSTANDARD
 70
     0
  0
APPID
  2
GENIUS_GENODEF_13
 70
     0
  0
APPID
  2
GENIUS_GENOBJ-N-FIL_13
 70
     0
  0
APPID
  2
ACAD_PSEXT
 70
     0
  0
APPID
  2
ACAD_DSTYLE_DIMRADIAL_EXTENSION
 70
     0
  0
APPID
  2
ACDBDYNAMICBLOCKTRUENAME
 70
     0
  0
APPID
  2
ACDBDYNAMICBLOCKGUID
 70
     0
  0
APPID
  2
ACDBBLOCKREPBTAG
 70
     0
  0
APPID
  2
ACAUTHENVIRON
 70
     0
  0
APPID
  2
GRADIENTCOLOR1ACI
 70
     0
  0
APPID
  2
GRADIENTCOLOR2ACI
 70
     0
  0
APPID
  2
ACAD_DSTYLE_DIMJAG
 70
     0
  0
APPID
  2
ACAD_DSTYLE_DIMTALN
 70
     0
  0
APPID
  2
ACCMTRANSPARENCY
 70
     0
  0
APPID
  2
ACAD_DSTYLE_DIMBREAK
 70
     0
  0
APPID
  2
ACAD_DSTYLE_DIMFLIPARROW_W
 70
     0
  0
APPID
  2
ACAD_DSTYLE_DIM_LINETYPE
 70
     0
  0
APPID
  2
ACAD_DSTYLE_DIM_EXT1_LINETYPE
 70
     0
  0
APPID
  2
ACAD_DSTYLE_DIM_EXT2_LINETYPE
 70
     0
  0
APPID
  2
ACAD_NAV_VCDISPLAY
 70
     0
  0
ENDTAB
  0
TABLE
  2
DIMSTYLE
 70
     1
  0
DIMSTYLE
  2
MISUMI
 70
     0
  3

  4

  5
OPEN30
  6

  7

 40
1.0
 41
2.5
 42
0.625
 43
3.75
 44
1.25
 45
0.0
 46
0.0
 47
0.0
 48
0.0
140
3.0
141
2.5
142
0.0
143
0.03937007874016
144
1.0
145
0.0
146
1.0
147
0.625
 71
     0
 72
     0
 73
     0
 74
     0
 75
     0
 76
     0
 77
     1
 78
     8
170
     0
171
     3
172
     1
173
     0
174
     0
175
     0
176
   256
177
   256
178
   256
  0
ENDTAB
  0
ENDSEC
  0
SECTION
  2
BLOCKS
  0
BLOCK
  8
0
  2
$MODEL_SPACE
 70
     0
 10
0.0
 20
0.0
 30
0.0
  3
$MODEL_SPACE
  1

  0
ENDBLK
  5
21
  8
0
  0
BLOCK
 67
     1
  8
0
  2
$PAPER_SPACE
 70
     0
 10
0.0
 20
0.0
 30
0.0
  3
$PAPER_SPACE
  1

  0
ENDBLK
  5
104DE
 67
     1
  8
0
  0
BLOCK
  8
0
 62
     7
  2
_OPEN30
 70
     0
 10
0.0
 20
0.0
 30
0.0
  3
_OPEN30
  1

  0
LINE
  5
D7
  8
0
  6
BYBLOCK
 62
     0
 10
-1.0
 20
0.26794919
 30
0.0
 11
0.0
 21
0.0
 31
0.0
  0
LINE
  5
D8
  8
0
  6
BYBLOCK
 62
     0
 10
0.0
 20
0.0
 30
0.0
 11
-1.0
 21
-0.26794919
 31
0.0
  0
LINE
  5
D9
  8
0
  6
BYBLOCK
 62
     0
 10
0.0
 20
0.0
 30
0.0
 11
-1.0
 21
0.0
 31
0.0
  0
ENDBLK
  5
DB
  8
0
 62
     7
  0
BLOCK
  8
0
  2
*U28
 70
     1
 10
0.0
 20
0.0
 30
0.0
  3
*U28
  1

  0
TEXT
  5
10522
  8
MSM_PART_NUMBER
 10
0.0
 20
-3.0
 30
0.0
 40
3.0
  1
NFSR8-4040-50
  0
ENDBLK
  5
10524
  8
0
  0
BLOCK
  8
0
  2
*U29
 70
     1
 10
0.0
 20
0.0
 30
0.0
  3
*U29
  1

  0
TEXT
  5
10526
  8
MSM_PART_NUMBER
 10
0.0
 20
-8.0
 30
0.0
 40
3.0
  1
NFSR8-4040
  0
ENDBLK
  5
10528
  8
0
  0
BLOCK
  8
0
  2
*U30
 70
     1
 10
0.0
 20
0.0
 30
0.0
  3
*U30
  1

  0
TEXT
  5
1052A
  8
MSM_PART_NUMBER
 10
230.78420101418749
 20
4.7390233652656937
 30
0.0
 40
3.0
  1
nfsr8-4040.dwg
  0
ENDBLK
  5
1052C
  8
0
  0
ENDSEC
  0
SECTION
  2
ENTITIES
  0
INSERT
  5
DCB4
  8
MSM_CONTINUOUS
  2
*U28
 10
0.0
 20
0.0
 30
0.0
  0
INSERT
  5
DCB5
  8
MSM_CONTINUOUS
  2
*U29
 10
0.0
 20
0.0
 30
0.0
  0
ARC
  5
EF06
  8
MSM_CONTINUOUS
 10
1.000000000000002
 20
11.0
 30
0.0
 40
1.0
 50
180.0
 51
270.0
  0
LINE
  5
EF07
  8
MSM_CONTINUOUS
 10
0.0000000000000027
 20
18.0
 30
0.0
 11
0.0000000000000027
 21
11.0
 31
0.0
  0
ARC
  5
EF08
  8
MSM_CONTINUOUS
 10
32.00000000000005
 20
18.0
 30
0.0
 40
32.0
 50
90.0
 51
180.0
  0
LINE
  5
EF09
  8
MSM_CONTINUOUS
 10
39.000000000000021
 20
50.0
 30
0.0
 11
32.000000000000028
 21
50.0
 31
0.0
  0
ARC
  5
EF0A
  8
MSM_CONTINUOUS
 10
39.000000000000021
 20
49.0
 30
0.0
 40
1.000000000000002
 50
0.0
 51
90.0
  0
LINE
  5
EF0B
  8
MSM_CONTINUOUS
 10
40.0
 20
35.0
 30
0.0
 11
40.000000000000007
 21
49.0
 31
0.0
  0
LINE
  5
EF0C
  8
MSM_CONTINUOUS
 10
34.500000000000007
 20
35.0
 30
0.0
 11
40.0
 21
35.0
 31
0.0
  0
LINE
  5
EF0D
  8
MSM_CONTINUOUS
 10
34.500000000000007
 20
40.0
 30
0.0
 11
34.500000000000007
 21
35.0
 31
0.0
  0
LINE
  5
EF0E
  8
MSM_CONTINUOUS
 10
31.767766952966362
 20
40.0
 30
0.0
 11
34.500000000000007
 21
40.0
 31
0.0
  0
LINE
  5
EF0F
  8
MSM_CONTINUOUS
 10
27.500000000000011
 20
35.732233047033652
 30
0.0
 11
31.767766952966362
 21
40.0
 31
0.0
  0
LINE
  5
EF14
  8
MSM_CONTINUOUS
 10
31.767766952966369
 20
20.0
 30
0.0
 11
27.5
 21
24.267766952966362
 31
0.0
  0
LINE
  5
EF15
  8
MSM_CONTINUOUS
 10
34.5
 20
20.0
 30
0.0
 11
31.767766952966369
 21
20.0
 31
0.0
  0
LINE
  5
EF16
  8
MSM_CONTINUOUS
 10
34.5
 20
25.0
 30
0.0
 11
34.5
 21
20.0
 31
0.0
  0
LINE
  5
EF17
  8
MSM_CONTINUOUS
 10
40.0
 20
25.0
 30
0.0
 11
34.5
 21
25.0
 31
0.0
  0
LINE
  5
EF18
  8
MSM_CONTINUOUS
 10
40.0
 20
13.0
 30
0.0
 11
40.0
 21
25.0
 31
0.0
  0
ARC
  5
EF19
  8
MSM_CONTINUOUS
 10
37.0
 20
13.0
 30
0.0
 40
3.0000000000000062
 50
270.0
 51
0.0
  0
LINE
  5
EF1A
  8
MSM_CONTINUOUS
 10
25.0
 20
10.0
 30
0.0
 11
36.999999999999993
 21
10.0
 31
0.0
  0
LINE
  5
EF1B
  8
MSM_CONTINUOUS
 10
25.0
 20
15.5
 30
0.0
 11
25.0
 21
10.0
 31
0.0
  0
LINE
  5
EF1C
  8
MSM_CONTINUOUS
 10
30.0
 20
15.5
 30
0.0
 11
25.0
 21
15.5
 31
0.0
  0
LINE
  5
EF1D
  8
MSM_CONTINUOUS
 10
30.0
 20
18.23223304703361
 30
0.0
 11
30.0
 21
15.5
 31
0.0
  0
LINE
  5
EF1E
  8
MSM_CONTINUOUS
 10
25.732233047033631
 20
22.5
 30
0.0
 11
30.0
 21
18.23223304703361
 31
0.0
  0
LINE
  5
EF23
  8
MSM_CONTINUOUS
 10
10.0
 20
18.232233047033638
 30
0.0
 11
14.267766952966371
 21
22.5
 31
0.0
  0
LINE
  5
EF24
  8
MSM_CONTINUOUS
 10
10.0
 20
15.5
 30
0.0
 11
10.0
 21
18.232233047033638
 31
0.0
  0
LINE
  5
EF25
  8
MSM_CONTINUOUS
 10
15.0
 20
15.5
 30
0.0
 11
10.0
 21
15.5
 31
0.0
  0
LINE
  5
EF26
  8
MSM_CONTINUOUS
 10
15.0
 20
10.0
 30
0.0
 11
15.0
 21
15.5
 31
0.0
  0
LINE
  5
EF27
  8
MSM_CONTINUOUS
 10
1.000000000000002
 20
10.0
 30
0.0
 11
15.0
 21
10.0
 31
0.0
  0
LINE
  5
EF28
  8
MSM_CONTINUOUS
 10
32.0
 20
17.0
 30
0.0
 11
32.0
 21
13.0
 31
0.0
  0
ARC
  5
EF29
  8
MSM_CONTINUOUS
 10
33.0
 20
13.0
 30
0.0
 40
1.000000000000002
 50
180.0
 51
270.0
  0
LINE
  5
EF2A
  8
MSM_CONTINUOUS
 10
33.0
 20
12.0
 30
0.0
 11
36.999999999999993
 21
12.0
 31
0.0
  0
ARC
  5
EF2B
  8
MSM_CONTINUOUS
 10
36.999999999999993
 20
13.0
 30
0.0
 40
1.0
 50
270.0
 51
0.0
  0
LINE
  5
EF2C
  8
MSM_CONTINUOUS
 10
37.999999999999993
 20
13.0
 30
0.0
 11
38.0
 21
17.0
 31
0.0
  0
ARC
  5
EF2D
  8
MSM_CONTINUOUS
 10
37.0
 20
17.0
 30
0.0
 40
0.9999999999999996
 50
0.0
 51
90.0
  0
LINE
  5
EF2E
  8
MSM_CONTINUOUS
 10
37.0
 20
18.0
 30
0.0
 11
33.0
 21
18.0
 31
0.0
  0
ARC
  5
EF2F
  8
MSM_CONTINUOUS
 10
33.0
 20
17.0
 30
0.0
 40
0.9999999999999971
 50
90.0
 51
180.0
  0
LINE
  5
EF30
  8
MSM_CONTINUOUS
 10
21.000000000000011
 20
45.221315177632412
 30
0.0
 11
21.0
 21
37.745966692414839
 31
0.0
  0
ARC
  5
EF31
  8
MSM_CONTINUOUS
 10
22.000000000000011
 20
37.745966692414839
 30
0.0
 40
1.0000000000000111
 50
180.0
 51
255.52248781406979
  0
ARC
  5
EF32
  8
MSM_CONTINUOUS
 10
19.999999999999929
 20
29.999999999999861
 30
0.0
 40
7.000000000000143
 50
57.635625093020508
 51
75.522487814069791
  0
ARC
  5
EF33
  8
MSM_CONTINUOUS
 10
24.28241367437845
 20
36.757287408531369
 30
0.0
 40
1.0000000000000131
 50
237.63562509302241
 51
314.99999999999949
  0
LINE
  5
EF34
  8
MSM_CONTINUOUS
 10
24.989520455565
 20
36.050180627344822
 30
0.0
 11
30.35355339059327
 21
41.414213562373078
 31
0.0
  0
ARC
  5
EF35
  8
MSM_CONTINUOUS
 10
31.767766952966351
 20
40.000000000000057
 30
0.0
 40
1.9999999999999389
 50
90.0
 51
134.9999999999998
  0
LINE
  5
EF36
  8
MSM_CONTINUOUS
 10
31.767766952966369
 20
42.0
 30
0.0
 11
37.000000000000007
 21
41.999999999999972
 31
0.0
  0
ARC
  5
EF37
  8
MSM_CONTINUOUS
 10
37.0
 20
43.0
 30
0.0
 40
1.0000000000000071
 50
270.0
 51
0.0
  0
LINE
  5
EF38
  8
MSM_CONTINUOUS
 10
38.000000000000007
 20
43.0
 30
0.0
 11
38.000000000000021
 21
47.0
 31
0.0
  0
ARC
  5
EF39
  8
MSM_CONTINUOUS
 10
37.000000000000007
 20
47.0
 30
0.0
 40
1.0000000000000051
 50
0.0
 51
90.0
  0
LINE
  5
EF3A
  8
MSM_CONTINUOUS
 10
37.000000000000007
 20
48.0
 30
0.0
 11
31.999999999999961
 21
48.0
 31
0.0
  0
ARC
  5
EF3B
  8
MSM_CONTINUOUS
 10
31.999999999999918
 20
17.999999999999879
 30
0.0
 40
30.00000000000011
 50
90.0
 51
110.17127134646459
  0
ARC
  5
EF3C
  8
MSM_CONTINUOUS
 10
22.000000000000011
 20
45.221315177632412
 30
0.0
 40
0.9999999999999965
 50
110.17127134646459
 51
180.0
  0
ARC
  5
EF3D
  8
MSM_CONTINUOUS
 10
31.999999999999989
 20
18.00000000000011
 30
0.0
 40
29.999999999999901
 50
118.8657275857619
 51
151.13427167430089
  0
ARC
  5
EF3E
  8
MSM_CONTINUOUS
 10
6.603149801599459
 20
32.000000000000092
 30
0.0
 40
1.000000000000099
 50
151.13424526424191
 51
270.0
  0
LINE
  5
EF3F
  8
MSM_CONTINUOUS
 10
6.603149801599403
 20
31.0
 30
0.0
 11
12.25403330758517
 21
31.0
 31
0.0
  0
ARC
  5
EF40
  8
MSM_CONTINUOUS
 10
12.254033307585161
 20
32.0
 30
0.0
 40
1.0
 50
270.0
 51
345.52248461954122
  0
ARC
  5
EF41
  8
MSM_CONTINUOUS
 10
20.000000000000011
 20
30.0
 30
0.0
 40
7.0000000000000133
 50
104.4775121859298
 51
165.52248827043161
  0
ARC
  5
EF42
  8
MSM_CONTINUOUS
 10
18.0
 20
37.745966692414839
 30
0.0
 40
1.0000000000000111
 50
284.47751218592981
 51
0.0
  0
LINE
  5
EF43
  8
MSM_CONTINUOUS
 10
19.0
 20
37.745966692414839
 30
0.0
 11
19.000000000000011
 21
43.396850198400578
 31
0.0
  0
ARC
  5
EF44
  8
MSM_CONTINUOUS
 10
18.000000000000011
 20
43.396850198400578
 30
0.0
 40
1.0
 50
0.0
 51
118.8657325376483
  0
LINE
  5
EF45
  8
MSM_CONTINUOUS
 10
2.0000000000000022
 20
18.0
 30
0.0
 11
2.0000000000000022
 21
13.0
 31
0.0
  0
ARC
  5
EF46
  8
MSM_CONTINUOUS
 10
3.0000000000000022
 20
13.0
 30
0.0
 40
1.0
 50
180.0
 51
270.0
  0
LINE
  5
EF47
  8
MSM_CONTINUOUS
 10
3.0000000000000022
 20
12.0
 30
0.0
 11
7.0000000000000018
 21
12.0
 31
0.0
  0
ARC
  5
EF48
  8
MSM_CONTINUOUS
 10
7.0000000000000018
 20
13.0
 30
0.0
 40
1.0000000000000091
 50
270.0
 51
0.0
  0
LINE
  5
EF49
  8
MSM_CONTINUOUS
 10
8.0000000000000036
 20
13.0
 30
0.0
 11
8.0000000000000036
 21
18.232233047033638
 31
0.0
  0
ARC
  5
EF4A
  8
MSM_CONTINUOUS
 10
10.00000000000003
 20
18.232233047033638
 30
0.0
 40
2.0000000000000302
 50
134.9999999999998
 51
180.0
  0
LINE
  5
EF4B
  8
MSM_CONTINUOUS
 10
8.5857864376269148
 20
19.646446609406748
 30
0.0
 11
13.949819372655179
 21
25.010479544435022
 31
0.0
  0
ARC
  5
EF4C
  8
MSM_CONTINUOUS
 10
13.24271259146863
 20
25.717586325621539
 30
0.0
 40
1.0000000000000011
 50
314.99999999999949
 51
32.364374906978533
  0
ARC
  5
EF4D
  8
MSM_CONTINUOUS
 10
19.999999999999918
 20
29.99999999999995
 30
0.0
 40
6.9999999999999023
 50
194.4775121859299
 51
212.3643749069785
  0
ARC
  5
EF4E
  8
MSM_CONTINUOUS
 10
12.25403330758517
 20
28.0
 30
0.0
 40
0.9999999999999902
 50
14.477512185929919
 51
90.0
  0
LINE
  5
EF4F
  8
MSM_CONTINUOUS
 10
12.25403330758517
 20
29.0
 30
0.0
 11
4.7786848223675973
 21
29.0
 31
0.0
  0
ARC
  5
EF50
  8
MSM_CONTINUOUS
 10
4.7786848223676044
 20
28.0
 30
0.0
 40
1.0000000000000111
 50
90.0
 51
159.82872135888999
  0
ARC
  5
EF51
  8
MSM_CONTINUOUS
 10
32.00000000000005
 20
18.000000000000082
 30
0.0
 40
30.000000000000011
 50
159.82872841038071
 51
179.99999914622629
  0
ARC
  5
EF52
  8
MSM_CONTINUOUS
 10
19.999999999999989
 20
30.0
 30
0.0
 40
4.4000000000000039
 50
329.1758035158669
 51
300.82419648413247
  0
ARC
  5
EF53
  8
MSM_CONTINUOUS
 10
24.207843543872041
 20
27.48921273097568
 30
0.0
 40
0.5000000000000128
 50
149.17580351586881
 51
224.99999999999841
  0
LINE
  5
EF54
  8
MSM_CONTINUOUS
 10
23.854290153278761
 20
27.1356593403824
 30
0.0
 11
24.949747468305841
 21
26.040202025355342
 31
0.0
  0
ARC
  5
EF55
  8
MSM_CONTINUOUS
 10
24.454772721475258
 20
25.545227278524749
 30
0.0
 40
0.6999999999999986
 50
225.0000000000004
 51
45.000000000000412
  0
LINE
  5
EF56
  8
MSM_CONTINUOUS
 10
23.959797974644658
 20
25.050252531694159
 30
0.0
 11
22.864340659617579
 21
26.14570984672125
 31
0.0
  0
ARC
  5
EF57
  8
MSM_CONTINUOUS
 10
22.510787269024309
 20
25.792156456127969
 30
0.0
 40
0.4999999999999952
 50
45.000000000000171
 51
120.8241964841327
  0
LINE
  5
F5CD
  8
MSM_CENTER
 10
43.000000000000021
 20
30.0
 30
0.0
 11
-2.9999999999999898
 21
30.0
 31
0.0
  0
LINE
  5
F5CE
  8
MSM_CENTER
 10
19.999999999999989
 20
7.0
 30
0.0
 11
19.999999999999989
 21
53.0
 31
0.0
  0
LINE
  5
F5DE
  8
MSM_CONTINUOUS
 10
130.48204095461151
 20
50.0
 30
0.0
 11
80.482040954611534
 21
50.0
 31
0.0
  0
LINE
  5
F5DF
  8
MSM_CONTINUOUS
 10
130.48204095461151
 20
10.0
 30
0.0
 11
80.482040954611534
 21
10.0
 31
0.0
  0
LINE
  5
F5E0
  8
MSM_CONTINUOUS
 10
80.482040954611534
 20
50.0
 30
0.0
 11
80.482040954611534
 21
10.0
 31
0.0
  0
LINE
  5
F5E1
  8
MSM_CONTINUOUS
 10
130.48204095461151
 20
50.0
 30
0.0
 11
130.48204095461151
 21
10.0
 31
0.0
  0
LINE
  5
F5E2
  8
MSM_CENTER
 10
133.48204095461151
 20
30.0
 30
0.0
 11
77.482040954611534
 21
30.0
 31
0.0
  0
LINE
  5
F5E3
  8
MSM_CONTINUOUS
 10
130.48204095461151
 20
35.0
 30
0.0
 11
80.482040954611534
 21
35.0
 31
0.0
  0
LINE
  5
F5E4
  8
MSM_CONTINUOUS
 10
130.48204095461151
 20
32.500000000000057
 30
0.0
 11
80.482040954611534
 21
32.500000000000057
 31
0.0
  0
LINE
  5
F5E5
  8
MSM_CONTINUOUS
 10
130.48204095461151
 20
31.01842637173689
 30
0.0
 11
80.482040954611534
 21
31.01842637173689
 31
0.0
  0
LINE
  5
F5E6
  8
MSM_CONTINUOUS
 10
130.48204095461151
 20
30.0
 30
0.0
 11
80.482040954611534
 21
30.0
 31
0.0
  0
LINE
  5
F5E7
  8
MSM_CONTINUOUS
 10
130.48204095461151
 20
25.0
 30
0.0
 11
80.482040954611534
 21
25.0
 31
0.0
  0
LINE
  5
10410
  8
MSM_CONTINUOUS
 10
19.346410161513791
 20
22.5
 30
0.0
 11
14.267766952966371
 21
22.5
 31
0.0
  0
ARC
  5
10411
  8
MSM_CONTINUOUS
 10
19.346410161513791
 20
23.000000000000021
 30
0.0
 40
0.5000000000000054
 50
270.0
 51
299.99999999999972
  0
LINE
  5
10412
  8
MSM_CONTINUOUS
 10
20.0
 20
22.800000000000001
 30
0.0
 11
19.596410161513791
 21
22.566987298107779
 31
0.0
  0
LINE
  5
10413
  8
MSM_CONTINUOUS
 10
20.403589838486219
 20
22.566987298107779
 30
0.0
 11
20.0
 21
22.800000000000001
 31
0.0
  0
ARC
  5
10414
  8
MSM_CONTINUOUS
 10
20.653589838486219
 20
23.0
 30
0.0
 40
0.4999999999999952
 50
239.99999999999869
 51
300.00000000000051
  0
LINE
  5
10415
  8
MSM_CONTINUOUS
 10
21.218885628793299
 20
22.749023407515931
 30
0.0
 11
20.903589838486219
 21
22.566987298107779
 31
0.0
  0
LINE
  5
10416
  8
MSM_CONTINUOUS
 10
22.5
 20
22.5
 30
0.0
 11
21.218885628793299
 21
22.749023407515931
 31
0.0
  0
LINE
  5
10417
  8
MSM_CONTINUOUS
 10
25.732233047033631
 20
22.5
 30
0.0
 11
22.5
 21
22.5
 31
0.0
  0
LINE
  5
1045E
  8
MSM_CONTINUOUS
 10
27.500000000000021
 20
29.346410161513809
 30
0.0
 11
27.500000000000021
 21
24.267766952966401
 31
0.0
  0
ARC
  5
1045F
  8
MSM_CONTINUOUS
 10
27.0
 20
29.346410161513809
 30
0.0
 40
0.5000000000000036
 50
0.0
 51
30.000000000000909
  0
LINE
  5
10460
  8
MSM_CONTINUOUS
 10
27.200000000000021
 20
30.000000000000028
 30
0.0
 11
27.433012701892231
 21
29.596410161513809
 31
0.0
  0
LINE
  5
10461
  8
MSM_CONTINUOUS
 10
27.433012701892231
 20
30.403589838486251
 30
0.0
 11
27.200000000000021
 21
30.000000000000028
 31
0.0
  0
ARC
  5
10462
  8
MSM_CONTINUOUS
 10
27.000000000000039
 20
30.653589838486251
 30
0.0
 40
0.4999999999999847
 50
329.9999999999979
 51
30.000000000000949
  0
LINE
  5
10463
  8
MSM_CONTINUOUS
 10
27.250976592484069
 20
31.218885628793331
 30
0.0
 11
27.433012701892231
 21
30.903589838486251
 31
0.0
  0
LINE
  5
10464
  8
MSM_CONTINUOUS
 10
27.500000000000021
 20
32.500000000000028
 30
0.0
 11
27.250976592484069
 21
31.218885628793331
 31
0.0
  0
LINE
  5
10465
  8
MSM_CONTINUOUS
 10
27.500000000000021
 20
35.732233047033652
 30
0.0
 11
27.500000000000021
 21
32.500000000000028
 31
0.0
  0
ENDSEC
  0
EOF
