  0
SECTION
  2
HEADER
  9
$ACADVER
  1
AC1009
  9
$INSBASE
 10
0.0
 20
0.0
 30
0.0
  9
$EXTMIN
 10
16.237656350058611
 20
87.552338237353084
 30
-0.0000000349181948
  9
$EXTMAX
 10
100.59823654684961
 20
155.5966190779543
 30
0.0000000814935747
  9
$LIMMIN
 10
0.0
 20
0.0
  9
$LIMMAX
 10
297.0
 20
210.0
  9
$ORTHOMODE
 70
     1
  9
$REGENMODE
 70
     1
  9
$FILLMODE
 70
     1
  9
$QTEXTMODE
 70
     0
  9
$MIRRTEXT
 70
     1
  9
$DRAGMODE
 70
     2
  9
$LTSCALE
 40
1.0
  9
$OSMODE
 70
   167
  9
$ATTMODE
 70
     1
  9
$TEXTSIZE
 40
6.4000000000000012
  9
$TRACEWID
 40
0.05
  9
$TEXTSTYLE
  7
STANDARD
  9
$CLAYER
  8
0
  9
$CELTYPE
  6
CONTINUOUS
  9
$CECOLOR
 62
     7
  9
$DIMSCALE
 40
1.0
  9
$DIMASZ
 40
3.0
  9
$DIMEXO
 40
1.0
  9
$DIMDLI
 40
0.0
  9
$DIMRND
 40
0.0
  9
$DIMDLE
 40
0.0
  9
$DIMEXE
 40
1.0
  9
$DIMTP
 40
0.0
  9
$DIMTM
 40
0.0
  9
$DIMTXT
 40
3.2000000000000002
  9
$DIMCEN
 40
0.0
  9
$DIMTSZ
 40
0.0
  9
$DIMTOL
 70
     0
  9
$DIMLIM
 70
     0
  9
$DIMTIH
 70
     0
  9
$DIMTOH
 70
     0
  9
$DIMSE1
 70
     0
  9
$DIMSE2
 70
     0
  9
$DIMTAD
 70
     1
  9
$DIMZIN
 70
     8
  9
$DIMBLK
  1

  9
$DIMASO
 70
     1
  9
$DIMSHO
 70
     1
  9
$DIMPOST
  1

  9
$DIMAPOST
  1

  9
$DIMALT
 70
     0
  9
$DIMALTD
 70
     2
  9
$DIMALTF
 40
0.04
  9
$DIMLFAC
 40
1.0
  9
$DIMTOFL
 70
     1
  9
$DIMTVP
 40
1.0
  9
$DIMTIX
 70
     1
  9
$DIMSOXD
 70
     0
  9
$DIMSAH
 70
     0
  9
$DIMBLK1
  1

  9
$DIMBLK2
  1

  9
$DIMSTYLE
  2
MISUMI
  9
$DIMCLRD
 70
     0
  9
$DIMCLRE
 70
     0
  9
$DIMCLRT
 70
     0
  9
$DIMTFAC
 40
0.6
  9
$DIMGAP
 40
1.0
  9
$LUNITS
 70
     2
  9
$LUPREC
 70
     4
  9
$SKETCHINC
 40
0.1
  9
$FILLETRAD
 40
0.3
  9
$AUNITS
 70
     0
  9
$AUPREC
 70
     0
  9
$MENU
  1
acad
  9
$ELEVATION
 40
0.0
  9
$PELEVATION
 40
0.0
  9
$THICKNESS
 40
0.0
  9
$LIMCHECK
 70
     0
  9
$BLIPMODE
 70
     0
  9
$CHAMFERA
 40
0.0
  9
$CHAMFERB
 40
0.0
  9
$SKPOLY
 70
     0
  9
$TDCREATE
 40
2451464.60066493
  9
$TDUPDATE
 40
2453402.763629375
  9
$TDINDWG
 40
0.1955541551
  9
$TDUSRTIMER
 40
0.1955528472
  9
$USRTIMER
 70
     1
  9
$ANGBASE
 50
0.0
  9
$ANGDIR
 70
     0
  9
$PDMODE
 70
     0
  9
$PDSIZE
 40
0.0
  9
$PLINEWID
 40
0.0
  9
$COORDS
 70
     0
  9
$SPLFRAME
 70
     0
  9
$SPLINETYPE
 70
     6
  9
$SPLINESEGS
 70
     8
  9
$ATTDIA
 70
     0
  9
$ATTREQ
 70
     1
  9
$HANDLING
 70
 10241
  9
$HANDSEED
  5
CFE
  9
$SURFTAB1
 70
     6
  9
$SURFTAB2
 70
     6
  9
$SURFTYPE
 70
     6
  9
$SURFU
 70
     6
  9
$SURFV
 70
     6
  9
$UCSNAME
  2

  9
$UCSORG
 10
0.0
 20
0.0
 30
0.0
  9
$UCSXDIR
 10
1.0
 20
0.0
 30
0.0
  9
$UCSYDIR
 10
0.0
 20
1.0
 30
0.0
  9
$PUCSNAME
  2

  9
$PUCSORG
 10
0.0
 20
0.0
 30
0.0
  9
$PUCSXDIR
 10
1.0
 20
0.0
 30
0.0
  9
$PUCSYDIR
 10
0.0
 20
1.0
 30
0.0
  9
$USERI1
 70
     0
  9
$USERI2
 70
     0
  9
$USERI3
 70
     0
  9
$USERI4
 70
     0
  9
$USERI5
 70
     0
  9
$USERR1
 40
0.0
  9
$USERR2
 40
0.0
  9
$USERR3
 40
0.0
  9
$USERR4
 40
0.0
  9
$USERR5
 40
0.0
  9
$WORLDVIEW
 70
     1
  9
$SHADEDGE
 70
     3
  9
$SHADEDIF
 70
    70
  9
$TILEMODE
 70
     1
  9
$MAXACTVP
 70
    16
  9
$PLIMCHECK
 70
     0
  9
$PEXTMIN
 10
1.0000000000000000E+020
 20
1.0000000000000000E+020
 30
1.0000000000000000E+020
  9
$PEXTMAX
 10
-1.0000000000000000E+020
 20
-1.0000000000000000E+020
 30
-1.0000000000000000E+020
  9
$PLIMMIN
 10
0.0
 20
0.0
  9
$PLIMMAX
 10
12.0
 20
9.0
  9
$UNITMODE
 70
     0
  9
$VISRETAIN
 70
     0
  9
$PLINEGEN
 70
     0
  9
$PSLTSCALE
 70
     1
  0
ENDSEC
  0
SECTION
  2
TABLES
  0
TABLE
  2
VPORT
 70
     7
  0
VPORT
  2
*ACTIVE
 70
     0
 10
0.0
 20
0.0
 11
1.0
 21
1.0
 12
58.417946448454117
 22
121.5744786576536
 13
0.0
 23
0.0
 14
10.0
 24
10.0
 15
10.0
 25
10.0
 16
0.0
 26
0.0
 36
1.0
 17
0.0
 27
0.0
 37
0.0
 40
68.614484311332532
 41
1.763636363636363
 42
50.0
 43
0.0
 44
0.0
 50
0.0
 51
0.0
 71
     0
 72
   100
 73
     1
 74
     0
 75
     0
 76
     0
 77
     0
 78
     0
  0
ENDTAB
  0
TABLE
  2
LTYPE
 70
     3
  0
LTYPE
  2
CONTINUOUS
 70
     0
  3
Solid line
 72
    65
 73
     0
 40
0.0
  0
LTYPE
  2
CENTER
 70
     0
  3
Center ____ _ ____ _ ____ _ ____ _ ____ _ ____
 72
    65
 73
     4
 40
2.0
 49
1.25
 49
-0.25
 49
0.25
 49
-0.25
  0
LTYPE
  2
DASHED
 70
     0
  3
Dashed __ __ __ __ __ __ __ __ __ __ __ __ __ _
 72
    65
 73
     2
 40
0.75
 49
0.5
 49
-0.25
  0
ENDTAB
  0
TABLE
  2
LAYER
 70
     3
  0
LAYER
  2
0
 70
     0
 62
     7
  6
CONTINUOUS
  0
LAYER
  2
DEFPOINTS
 70
     0
 62
     7
  6
CONTINUOUS
  0
LAYER
  2
CENTER
 70
     0
 62
     1
  6
CENTER
  0
ENDTAB
  0
TABLE
  2
STYLE
 70
     1
  0
STYLE
  2
STANDARD
 70
     0
 40
0.0
 41
1.0
 50
0.0
 71
     0
 42
6.4000000000000012
  3
txt
  4

  0
ENDTAB
  0
TABLE
  2
VIEW
 70
     0
  0
ENDTAB
  0
TABLE
  2
UCS
 70
     0
  0
ENDTAB
  0
TABLE
  2
APPID
 70
     1
  0
APPID
  2
ACAD
 70
     0
  0
ENDTAB
  0
TABLE
  2
DIMSTYLE
 70
     1
  0
DIMSTYLE
  2
MISUMI
 70
     0
  3

  4

  5

  6

  7

 40
1.0
 41
3.0
 42
1.0
 43
0.0
 44
1.0
 45
0.0
 46
0.0
 47
0.0
 48
0.0
140
3.2000000000000002
141
0.0
142
0.0
143
0.04
144
1.0
145
1.0
146
0.6
147
1.0
 71
     0
 72
     0
 73
     0
 74
     0
 75
     0
 76
     0
 77
     1
 78
     8
170
     0
171
     2
172
     1
173
     0
174
     1
175
     0
176
     0
177
     0
178
     0
  0
ENDTAB
  0
ENDSEC
  0
SECTION
  2
BLOCKS
  0
BLOCK
  8
0
  2
$MODEL_SPACE
 70
     0
 10
0.0
 20
0.0
 30
0.0
  3
$MODEL_SPACE
  1

  0
ENDBLK
  5
C8B
  8
0
  0
BLOCK
 67
     1
  8
0
  2
$PAPER_SPACE
 70
     0
 10
0.0
 20
0.0
 30
0.0
  3
$PAPER_SPACE
  1

  0
ENDBLK
  5
C87
 67
     1
  8
0
  0
ENDSEC
  0
SECTION
  2
ENTITIES
  0
TEXT
  5
C9A
  8
0
  6
CONTINUOUS
 62
     7
 10
16.248593251653471
 20
87.555799413945337
 30
0.0
 40
4.0
  1
HKSUBT05
  0
TEXT
  5
C9B
  8
0
  6
CONTINUOUS
 62
     7
 10
16.248593251653471
 20
102.5557994139451
 30
0.0
 40
4.0
  1
HKSUBT5-25
  0
LINE
  5
C9C
  8
CENTER
  6
CENTER
 62
     1
 10
38.287905440178733
 20
129.2476624396152
 30
0.0
 11
72.014206698822349
 21
129.2476624396152
 31
0.0
  0
LINE
  5
C9D
  8
0
  6
CONTINUOUS
 62
     7
 10
42.253840751436648
 20
123.2476624396152
 30
0.0
 11
67.253840751436655
 21
123.2476624396152
 31
0.0
  0
LINE
  5
C9E
  8
0
  6
CONTINUOUS
 62
     7
 10
67.253840751436655
 20
123.2476624396152
 30
0.0
 11
67.253840751436655
 21
154.2476624396152
 31
0.0
  0
LINE
  5
CA0
  8
0
  6
CONTINUOUS
 62
     7
 10
42.253840751436613
 20
154.2476624396152
 30
0.0
 11
42.253840751436648
 21
123.2476624396152
 31
0.0
  0
LINE
  5
CA1
  8
CENTER
  6
CENTER
 62
     1
 10
54.753840751436648
 20
155.5858052028666
 30
0.0
 11
54.753840751436648
 21
120.7724452443793
 31
0.0
  0
LINE
  5
CA2
  8
0
  6
CONTINUOUS
 62
     7
 10
50.753840751436663
 20
154.2476624396152
 30
0.0
 11
50.753840751436663
 21
135.24766243961511
 31
0.0
  0
LINE
  5
CA3
  8
0
  6
CONTINUOUS
 62
     7
 10
58.753840751436648
 20
154.2476624396152
 30
0.0
 11
58.753840751436677
 21
135.24766243961511
 31
0.0
  0
LINE
  5
CA4
  8
CENTER
  6
CENTER
 62
     1
 10
46.753840751436648
 20
132.48264460991311
 30
0.0
 11
46.753840751436648
 21
125.968172108129
 31
0.0
  0
LINE
  5
CA5
  8
CENTER
  6
CENTER
 62
     1
 10
62.753840751436663
 20
132.48264460991311
 30
0.0
 11
62.753840751436663
 21
125.968172108129
 31
0.0
  0
CIRCLE
  5
CA6
  8
0
  6
CONTINUOUS
 62
     7
 10
62.753840751436663
 20
129.2476624396152
 30
0.0
 40
2.25
  0
CIRCLE
  5
CA7
  8
0
  6
CONTINUOUS
 62
     7
 10
46.753840751436648
 20
129.2476624396152
 30
0.0
 40
2.25
  0
LINE
  5
CA8
  8
0
  6
CONTINUOUS
 62
     7
 10
50.753840751436663
 20
135.24766243961511
 30
0.0
 11
58.75384075143667
 21
135.24766243961511
 31
0.0
  0
LINE
  5
CAA
  8
CENTER
  6
CENTER
 62
     1
 10
40.821914058170712
 20
148.24766243961511
 30
0.0
 11
68.551096603572546
 21
148.24766243961511
 31
0.0
  0
LINE
  5
CB1
  8
CENTER
  6
CENTER
 62
     1
 10
92.330301366612545
 20
155.58580520286651
 30
0.0
 11
92.330301366612545
 21
120.7724452443793
 31
0.0
  0
LINE
  5
CB2
  8
CENTER
  6
CENTER
 62
     1
 10
83.944025750839259
 20
148.24766243961511
 30
0.0
 11
100.59175584968661
 21
148.24766243961511
 31
0.0
  0
CIRCLE
  5
CB3
  8
0
  6
CONTINUOUS
 62
     7
 10
92.330301366612545
 20
148.24766243961511
 30
0.0
 40
2.5
  0
LINE
  5
CB4
  8
0
  6
CONTINUOUS
 62
     7
 10
86.330301366612559
 20
135.24766243961511
 30
0.0
 11
98.330301366612588
 21
135.24766243961511
 31
0.0
  0
LINE
  5
CB5
  8
0
  6
DASHED
 62
     3
 10
86.330301366612559
 20
131.49766243961511
 30
0.0
 11
98.330301366612588
 21
131.49766243961511
 31
0.0
  0
LINE
  5
CB6
  8
0
  6
DASHED
 62
     3
 10
86.330301366612559
 20
126.9976624396152
 30
0.0
 11
98.330301366612588
 21
126.9976624396152
 31
0.0
  0
LINE
  5
CB8
  8
0
  6
DASHED
 62
     3
 10
94.330301366612574
 20
154.24766243961511
 30
0.0
 11
94.330301366612574
 21
149.747662439615
 31
0.0
  0
LINE
  5
CBA
  8
0
  6
DASHED
 62
     3
 10
90.330301366612545
 20
154.24766243961511
 30
0.0
 11
90.330301366612545
 21
149.74766243961511
 31
0.0
  0
LINE
  5
CBB
  8
0
  6
CONTINUOUS
 62
     7
 10
88.330301366612545
 20
154.24766243961531
 30
0.0
 11
96.330301366612545
 21
154.24766243961511
 31
0.0
  0
LINE
  5
CBC
  8
0
  6
CONTINUOUS
 62
     7
 10
96.330301366612545
 20
154.24766243961511
 30
0.0
 11
98.330301366612588
 21
152.24766243961511
 31
0.0
  0
LINE
  5
CBD
  8
0
  6
CONTINUOUS
 62
     7
 10
98.330301366612588
 20
152.24766243961511
 30
0.0
 11
98.330301366612588
 21
123.2476624396152
 31
0.0
  0
LINE
  5
CBE
  8
0
  6
CONTINUOUS
 62
     7
 10
98.330301366612588
 20
123.2476624396152
 30
0.0
 11
86.330301366612559
 21
123.2476624396152
 31
0.0
  0
LINE
  5
CBF
  8
0
  6
CONTINUOUS
 62
     7
 10
86.330301366612559
 20
123.2476624396152
 30
0.0
 11
86.330301366612559
 21
152.24766243961531
 31
0.0
  0
LINE
  5
CC0
  8
0
  6
CONTINUOUS
 62
     7
 10
86.330301366612559
 20
152.24766243961531
 30
0.0
 11
88.330301366612545
 21
154.24766243961531
 31
0.0
  0
LINE
  5
CC1
  8
CENTER
  6
CENTER
 62
     1
 10
83.994880487130274
 20
129.2476624396152
 30
0.0
 11
100.3452785925609
 21
129.2476624396152
 31
0.0
  0
LINE
  5
CC8
  8
0
  6
CONTINUOUS
 62
     7
 10
42.253840751436648
 20
154.2476624396152
 30
0.0
 11
50.753840751436663
 21
154.2476624396152
 31
0.0
  0
LINE
  5
CC9
  8
0
  6
CONTINUOUS
 62
     7
 10
58.753840751436648
 20
154.2476624396152
 30
0.0
 11
67.253840751436655
 21
154.2476624396152
 31
0.0
  0
LINE
  5
CCC
  8
0
  6
DASHED
 62
     3
 10
42.253840751436599
 20
150.74766243961511
 30
0.0
 11
50.753840751436663
 21
150.74766243961511
 31
0.0
  0
LINE
  5
CCD
  8
0
  6
DASHED
 62
     3
 10
42.253840751436613
 20
145.74766243961511
 30
0.0
 11
50.753840751436648
 21
145.74766243961511
 31
0.0
  0
LINE
  5
CCE
  8
0
  6
DASHED
 62
     3
 10
58.753840751436663
 20
150.74766243961511
 30
0.0
 11
67.253840751436655
 21
150.74766243961511
 31
0.0
  0
LINE
  5
CCF
  8
0
  6
DASHED
 62
     3
 10
58.753840751436663
 20
145.74766243961511
 30
0.0
 11
67.253840751436655
 21
145.74766243961511
 31
0.0
  0
LINE
  5
CD0
  8
CENTER
  6
CENTER
 62
     1
 10
63.003840751436648
 20
155.58580520286651
 30
0.0
 11
63.003840751436648
 21
144.6354371406014
 31
0.0
  0
LINE
  5
CD5
  8
CENTER
  6
CENTER
 62
     1
 10
46.503840751436648
 20
155.58580520286651
 30
0.0
 11
46.503840751436648
 21
144.6354371406014
 31
0.0
  0
LINE
  5
CEF
  8
0
  6
DASHED
 62
     3
 10
93.95130136661254
 20
154.24766243961511
 30
0.0
 11
93.951301366612526
 21
150.150912029133
 31
0.0
  0
LINE
  5
CF0
  8
0
  6
DASHED
 62
     3
 10
90.70930136661255
 20
154.2476624396152
 30
0.0
 11
90.70930136661255
 21
150.150912029133
 31
0.0
  0
LINE
  5
CF1
  8
0
  6
DASHED
 62
     3
 10
64.624840751436651
 20
154.24766243961511
 30
0.0
 11
64.624840751436636
 21
150.74766243961511
 31
0.0
  0
LINE
  5
CF2
  8
0
  6
DASHED
 62
     3
 10
65.00384075143667
 20
154.24766243961511
 30
0.0
 11
65.003840751436698
 21
150.74766243961511
 31
0.0
  0
LINE
  5
CF3
  8
0
  6
DASHED
 62
     3
 10
61.38284075143666
 20
154.2476624396152
 30
0.0
 11
61.38284075143666
 21
150.74766243961511
 31
0.0
  0
LINE
  5
CF4
  8
0
  6
DASHED
 62
     3
 10
61.003840751436648
 20
154.24766243961511
 30
0.0
 11
61.003840751436648
 21
150.74766243961511
 31
0.0
  0
LINE
  5
CF5
  8
0
  6
DASHED
 62
     3
 10
48.50384075143667
 20
154.24766243961511
 30
0.0
 11
48.503840751436691
 21
150.74766243961511
 31
0.0
  0
LINE
  5
CF6
  8
0
  6
DASHED
 62
     3
 10
48.124840751436651
 20
154.24766243961511
 30
0.0
 11
48.124840751436643
 21
150.74766243961511
 31
0.0
  0
LINE
  5
CF7
  8
0
  6
DASHED
 62
     3
 10
44.503840751436663
 20
154.24766243961511
 30
0.0
 11
44.503840751436663
 21
150.74766243961511
 31
0.0
  0
LINE
  5
CF8
  8
0
  6
DASHED
 62
     3
 10
44.88284075143666
 20
154.2476624396152
 30
0.0
 11
44.88284075143666
 21
150.74766243961511
 31
0.0
  0
ENDSEC
  0
EOF
