  0
SECTION
  2
HEADER
  9
$ACADVER
  1
AC1009
  9
$INSBASE
 10
0.0
 20
0.0
 30
0.0
  9
$EXTMIN
 10
-2.0371457628060621
 20
-8.0186145864209948
 30
-0.0000000349181948
  9
$EXTMAX
 10
101.9942571089652
 20
87.017549293094703
 30
0.0000000814935746
  9
$LIMMIN
 10
0.0
 20
0.0
  9
$LIMMAX
 10
420.0
 20
297.0
  9
$ORTHOMODE
 70
     0
  9
$REGENMODE
 70
     1
  9
$FILLMODE
 70
     1
  9
$QTEXTMODE
 70
     0
  9
$MIRRTEXT
 70
     0
  9
$DRAGMODE
 70
     2
  9
$LTSCALE
 40
0.5
  9
$OSMODE
 70
   509
  9
$ATTMODE
 70
     1
  9
$TEXTSIZE
 40
3.0
  9
$TRACEWID
 40
1.0
  9
$TEXTSTYLE
  7
STANDARD
  9
$CLAYER
  8
MSM_CONTINUOUS
  9
$CELTYPE
  6
BYLAYER
  9
$CECOLOR
 62
   256
  9
$DIMSCALE
 40
1.0
  9
$DIMASZ
 40
2.5
  9
$DIMEXO
 40
0.625
  9
$DIMDLI
 40
3.75
  9
$DIMRND
 40
0.0
  9
$DIMDLE
 40
0.0
  9
$DIMEXE
 40
1.25
  9
$DIMTP
 40
0.0
  9
$DIMTM
 40
0.0
  9
$DIMTXT
 40
3.0
  9
$DIMCEN
 40
2.5
  9
$DIMTSZ
 40
0.0
  9
$DIMTOL
 70
     0
  9
$DIMLIM
 70
     0
  9
$DIMTIH
 70
     0
  9
$DIMTOH
 70
     0
  9
$DIMSE1
 70
     0
  9
$DIMSE2
 70
     0
  9
$DIMTAD
 70
     1
  9
$DIMZIN
 70
     8
  9
$DIMBLK
  1
OPEN30
  9
$DIMASO
 70
     1
  9
$DIMSHO
 70
     1
  9
$DIMPOST
  1

  9
$DIMAPOST
  1

  9
$DIMALT
 70
     0
  9
$DIMALTD
 70
     3
  9
$DIMALTF
 40
0.03937007874016
  9
$DIMLFAC
 40
1.0
  9
$DIMTOFL
 70
     1
  9
$DIMTVP
 40
0.0
  9
$DIMTIX
 70
     0
  9
$DIMSOXD
 70
     0
  9
$DIMSAH
 70
     0
  9
$DIMBLK1
  1

  9
$DIMBLK2
  1

  9
$DIMSTYLE
  2
MISUMI
  9
$DIMCLRD
 70
   256
  9
$DIMCLRE
 70
   256
  9
$DIMCLRT
 70
   256
  9
$DIMTFAC
 40
1.0
  9
$DIMGAP
 40
0.625
  9
$LUNITS
 70
     2
  9
$LUPREC
 70
     2
  9
$SKETCHINC
 40
1.0
  9
$FILLETRAD
 40
0.0
  9
$AUNITS
 70
     0
  9
$AUPREC
 70
     0
  9
$MENU
  1
.
  9
$ELEVATION
 40
0.0
  9
$PELEVATION
 40
0.0
  9
$THICKNESS
 40
0.0
  9
$LIMCHECK
 70
     0
  9
$BLIPMODE
 70
     0
  9
$CHAMFERA
 40
0.5
  9
$CHAMFERB
 40
0.5
  9
$SKPOLY
 70
     0
  9
$TDCREATE
 40
2455135.5720697111
  9
$TDUPDATE
 40
2457500.4318487151
  9
$TDINDWG
 40
0.7298030671
  9
$TDUSRTIMER
 40
2457151.4021827318
  9
$USRTIMER
 70
     1
  9
$ANGBASE
 50
0.0
  9
$ANGDIR
 70
     0
  9
$PDMODE
 70
    35
  9
$PDSIZE
 40
0.0
  9
$PLINEWID
 40
0.0
  9
$COORDS
 70
     1
  9
$SPLFRAME
 70
     0
  9
$SPLINETYPE
 70
     6
  9
$SPLINESEGS
 70
     8
  9
$ATTDIA
 70
     1
  9
$ATTREQ
 70
     1
  9
$HANDLING
 70
     1
  9
$HANDSEED
  5
E551
  9
$SURFTAB1
 70
     6
  9
$SURFTAB2
 70
     6
  9
$SURFTYPE
 70
     6
  9
$SURFU
 70
     6
  9
$SURFV
 70
     6
  9
$UCSNAME
  2

  9
$UCSORG
 10
0.0
 20
0.0
 30
0.0
  9
$UCSXDIR
 10
1.0
 20
0.0
 30
0.0
  9
$UCSYDIR
 10
0.0
 20
1.0
 30
0.0
  9
$PUCSNAME
  2

  9
$PUCSORG
 10
0.0
 20
0.0
 30
0.0
  9
$PUCSXDIR
 10
1.0
 20
0.0
 30
0.0
  9
$PUCSYDIR
 10
0.0
 20
1.0
 30
0.0
  9
$USERI1
 70
     0
  9
$USERI2
 70
     0
  9
$USERI3
 70
     0
  9
$USERI4
 70
     0
  9
$USERI5
 70
     0
  9
$USERR1
 40
0.0
  9
$USERR2
 40
0.0
  9
$USERR3
 40
0.0
  9
$USERR4
 40
0.0
  9
$USERR5
 40
0.0
  9
$WORLDVIEW
 70
     1
  9
$SHADEDGE
 70
     3
  9
$SHADEDIF
 70
    70
  9
$TILEMODE
 70
     1
  9
$MAXACTVP
 70
    64
  9
$PLIMCHECK
 70
     0
  9
$PEXTMIN
 10
0.0
 20
0.0
 30
0.0
  9
$PEXTMAX
 10
0.0
 20
0.0
 30
0.0
  9
$PLIMMIN
 10
0.0
 20
0.0
  9
$PLIMMAX
 10
12.0
 20
9.0
  9
$UNITMODE
 70
     0
  9
$VISRETAIN
 70
     1
  9
$PLINEGEN
 70
     0
  9
$PSLTSCALE
 70
     1
  0
ENDSEC
  0
SECTION
  2
TABLES
  0
TABLE
  2
VPORT
 70
     1
  0
VPORT
  2
*ACTIVE
 70
     0
 10
0.0
 20
0.0
 11
1.0
 21
1.0
 12
49.978555673079597
 22
39.499467353336861
 13
0.0
 23
0.0
 14
10.0
 24
10.0
 15
10.0
 25
10.0
 16
0.0
 26
0.0
 36
1.0
 17
0.0
 27
0.0
 37
0.0
 40
95.960340513676286
 41
2.6737012987012978
 42
50.0
 43
0.0
 44
0.0
 50
0.0
 51
0.0
 71
    16
 72
  1000
 73
     1
 74
     3
 75
     0
 76
     0
 77
     0
 78
     0
  0
ENDTAB
  0
TABLE
  2
LTYPE
 70
     2
  0
LTYPE
  2
CONTINUOUS
 70
     0
  3
Solid line
 72
    65
 73
     0
 40
0.0
  0
LTYPE
  2
CENTER
 70
     0
  3
Center ____ _ ____ _ ____ _ ____ _ ____ _ ____
 72
    65
 73
     4
 40
50.799999999999997
 49
31.75
 49
-6.3499999999999988
 49
6.3499999999999988
 49
-6.3499999999999988
  0
ENDTAB
  0
TABLE
  2
LAYER
 70
     6
  0
LAYER
  2
0
 70
     0
 62
     7
  6
CONTINUOUS
  0
LAYER
  2
MSM_CENTER
 70
     0
 62
     1
  6
CENTER
  0
LAYER
  2
DEFPOINTS
 70
     0
 62
     7
  6
CONTINUOUS
  0
LAYER
  2
MSM_CONTINUOUS
 70
     0
 62
     7
  6
CONTINUOUS
  0
LAYER
  2
MSM_NARROW
 70
     0
 62
     5
  6
CONTINUOUS
  0
LAYER
  2
MSM_PART_NUMBER
 70
     0
 62
     7
  6
CONTINUOUS
  0
ENDTAB
  0
TABLE
  2
STYLE
 70
     1
  0
STYLE
  2
STANDARD
 70
     0
 40
3.0
 41
1.0
 50
0.0
 71
     0
 42
3.0
  3
txt.shx
  4
bigfont.shx
  0
ENDTAB
  0
TABLE
  2
VIEW
 70
     0
  0
ENDTAB
  0
TABLE
  2
UCS
 70
     0
  0
ENDTAB
  0
TABLE
  2
APPID
 70
    25
  0
APPID
  2
ACAD
 70
     0
  0
APPID
  2
ACAD_MLEADERVER
 70
     0
  0
APPID
  2
ACAD_EXEMPT_FROM_CAD_STANDARDS
 70
     0
  0
APPID
  2
ACDBBLOCKREPETAG
 70
     0
  0
APPID
  2
ACAD_DSTYLE_DIMJOGGED_JOGA
 70
     0
  0
APPID
  2
ACAECLAYERSTANDARD
 70
     0
  0
APPID
  2
GENIUS_GENODEF_13
 70
     0
  0
APPID
  2
GENIUS_GENOBJ-N-FIL_13
 70
     0
  0
APPID
  2
ACAD_PSEXT
 70
     0
  0
APPID
  2
ACAD_DSTYLE_DIMRADIAL_EXTENSION
 70
     0
  0
APPID
  2
ACDBDYNAMICBLOCKTRUENAME
 70
     0
  0
APPID
  2
ACDBDYNAMICBLOCKGUID
 70
     0
  0
APPID
  2
ACDBBLOCKREPBTAG
 70
     0
  0
APPID
  2
ACAUTHENVIRON
 70
     0
  0
APPID
  2
GRADIENTCOLOR1ACI
 70
     0
  0
APPID
  2
GRADIENTCOLOR2ACI
 70
     0
  0
APPID
  2
ACAD_DSTYLE_DIMJAG
 70
     0
  0
APPID
  2
ACAD_DSTYLE_DIMTALN
 70
     0
  0
APPID
  2
ACCMTRANSPARENCY
 70
     0
  0
APPID
  2
ACAD_DSTYLE_DIMBREAK
 70
     0
  0
APPID
  2
ACAD_DSTYLE_DIMFLIPARROW_W
 70
     0
  0
APPID
  2
ACAD_DSTYLE_DIM_LINETYPE
 70
     0
  0
APPID
  2
ACAD_DSTYLE_DIM_EXT1_LINETYPE
 70
     0
  0
APPID
  2
ACAD_DSTYLE_DIM_EXT2_LINETYPE
 70
     0
  0
APPID
  2
ACAD_NAV_VCDISPLAY
 70
     0
  0
ENDTAB
  0
TABLE
  2
DIMSTYLE
 70
     1
  0
DIMSTYLE
  2
MISUMI
 70
     0
  3

  4

  5
OPEN30
  6

  7

 40
1.0
 41
2.5
 42
0.625
 43
3.75
 44
1.25
 45
0.0
 46
0.0
 47
0.0
 48
0.0
140
3.0
141
2.5
142
0.0
143
0.03937007874016
144
1.0
145
0.0
146
1.0
147
0.625
 71
     0
 72
     0
 73
     0
 74
     0
 75
     0
 76
     0
 77
     1
 78
     8
170
     0
171
     3
172
     1
173
     0
174
     0
175
     0
176
   256
177
   256
178
   256
  0
ENDTAB
  0
ENDSEC
  0
SECTION
  2
BLOCKS
  0
BLOCK
  8
0
  2
$MODEL_SPACE
 70
     0
 10
0.0
 20
0.0
 30
0.0
  3
$MODEL_SPACE
  1

  0
ENDBLK
  5
21
  8
0
  0
BLOCK
 67
     1
  8
0
  2
$PAPER_SPACE
 70
     0
 10
0.0
 20
0.0
 30
0.0
  3
$PAPER_SPACE
  1

  0
ENDBLK
  5
E380
 67
     1
  8
0
  0
BLOCK
  8
0
 62
     7
  2
_OPEN30
 70
     0
 10
0.0
 20
0.0
 30
0.0
  3
_OPEN30
  1

  0
LINE
  5
D7
  8
0
  6
BYBLOCK
 62
     0
 10
-1.0
 20
0.26794919
 30
0.0
 11
0.0
 21
0.0
 31
0.0
  0
LINE
  5
D8
  8
0
  6
BYBLOCK
 62
     0
 10
0.0
 20
0.0
 30
0.0
 11
-1.0
 21
-0.26794919
 31
0.0
  0
LINE
  5
D9
  8
0
  6
BYBLOCK
 62
     0
 10
0.0
 20
0.0
 30
0.0
 11
-1.0
 21
0.0
 31
0.0
  0
ENDBLK
  5
DB
  8
0
 62
     7
  0
BLOCK
  8
0
  2
*U2
 70
     1
 10
0.0
 20
0.0
 30
0.0
  3
*U2
  1

  0
TEXT
  5
E4F8
  8
MSM_PART_NUMBER
 10
0.0
 20
-3.0
 30
0.0
 40
3.0
  1
HFC8-50100
  0
ENDBLK
  5
E4FA
  8
0
  0
BLOCK
  8
0
  2
*U3
 70
     1
 10
0.0
 20
0.0
 30
0.0
  3
*U3
  1

  0
TEXT
  5
E4FC
  8
MSM_PART_NUMBER
 10
0.0
 20
-8.0
 30
0.0
 40
3.0
  1
HFC8-50100
  0
ENDBLK
  5
E4FE
  8
0
  0
BLOCK
  8
0
  2
*U4
 70
     1
 10
0.0
 20
0.0
 30
0.0
  3
*U4
  1

  0
TEXT
  5
E500
  8
MSM_PART_NUMBER
 10
230.78420101418749
 20
4.7390233652656937
 30
0.0
 40
3.0
  1
hfc8-50100.dwg
  0
ENDBLK
  5
E502
  8
0
  0
BLOCK
  8
0
  2
*X5
 70
     1
 10
0.0
 20
0.0
 30
0.0
  3
*X5
  1

  0
LINE
  5
E504
  8
0
 62
     0
 10
97.557497180424264
 20
10.0
 30
0.0
 11
99.988610196164814
 21
12.431113015740561
 31
0.0
  0
LINE
  5
E505
  8
0
 62
     0
 10
95.312433150156963
 20
9.9999999999999911
 30
0.0
 11
98.312433150156977
 21
13.0
 31
0.0
  0
LINE
  5
E506
  8
0
 62
     0
 10
93.067369119889662
 20
10.0
 30
0.0
 11
94.867369119889659
 21
11.79999999999999
 31
0.0
  0
LINE
  5
E507
  8
0
 62
     0
 10
90.822305089622375
 20
10.0
 30
0.0
 11
92.622305089622387
 21
11.79999999999999
 31
0.0
  0
LINE
  5
E508
  8
0
 62
     0
 10
88.577241059355075
 20
10.0
 30
0.0
 11
90.377241059355086
 21
11.79999999999999
 31
0.0
  0
LINE
  5
E509
  8
0
 62
     0
 10
86.332177029087802
 20
10.0
 30
0.0
 11
88.132177029087785
 21
11.79999999999999
 31
0.0
  0
LINE
  5
E50A
  8
0
 62
     0
 10
84.087112998820515
 20
10.0
 30
0.0
 11
85.887112998820484
 21
11.799999999999979
 31
0.0
  0
LINE
  5
E50B
  8
0
 62
     0
 10
81.842048968553229
 20
9.9999999999999911
 30
0.0
 11
83.642048968553212
 21
11.79999999999999
 31
0.0
  0
LINE
  5
E50C
  8
0
 62
     0
 10
79.596984938285942
 20
10.0
 30
0.0
 11
81.396984938285925
 21
11.799999999999979
 31
0.0
  0
LINE
  5
E50D
  8
0
 62
     0
 10
77.351920908018656
 20
10.0
 30
0.0
 11
81.338610196164794
 21
13.98668928814614
 31
0.0
  0
LINE
  5
E50E
  8
0
 62
     0
 10
78.488610196164814
 20
13.381753318413439
 30
0.0
 11
81.338610196164794
 21
16.231753318413428
 31
0.0
  0
LINE
  5
E50F
  8
0
 62
     0
 10
75.106856877751355
 20
10.0
 30
0.0
 11
76.906856877751352
 21
11.799999999999979
 31
0.0
  0
LINE
  5
E510
  8
0
 62
     0
 10
78.4886101961648
 20
15.62681734868073
 30
0.0
 11
81.338610196164794
 21
18.476817348680719
 31
0.0
  0
LINE
  5
E511
  8
0
 62
     0
 10
72.861792847484082
 20
10.0
 30
0.0
 11
74.661792847484065
 21
11.799999999999979
 31
0.0
  0
LINE
  5
E512
  8
0
 62
     0
 10
78.488610196164814
 20
17.871881378948022
 30
0.0
 11
81.063253381514528
 21
20.446524564297739
 31
0.0
  0
LINE
  5
E513
  8
0
 62
     0
 10
70.616728817216796
 20
10.0
 30
0.0
 11
72.416728817216764
 21
11.799999999999979
 31
0.0
  0
LINE
  5
E514
  8
0
 62
     0
 10
78.4886101961648
 20
20.116945409215301
 30
0.0
 11
80.206888751412578
 21
21.835223964463079
 31
0.0
  0
LINE
  5
E515
  8
0
 62
     0
 10
68.371664786949509
 20
10.0
 30
0.0
 11
71.488610196164814
 21
13.11694540921531
 31
0.0
  0
LINE
  5
E516
  8
0
 62
     0
 10
68.638610196164819
 20
12.5120094394826
 30
0.0
 11
71.488610196164814
 21
15.3620094394826
 31
0.0
  0
LINE
  5
E517
  8
0
 62
     0
 10
78.488610196164814
 20
22.362009439482598
 30
0.0
 11
79.126600756682237
 21
23.000000000000021
 31
0.0
  0
LINE
  5
E518
  8
0
 62
     0
 10
66.126600756682222
 20
10.0
 30
0.0
 11
67.926600756682191
 21
11.799999999999979
 31
0.0
  0
LINE
  5
E519
  8
0
 62
     0
 10
68.638610196164819
 20
14.7570734697499
 30
0.0
 11
71.488610196164814
 21
17.607073469749889
 31
0.0
  0
LINE
  5
E51A
  8
0
 62
     0
 10
63.881536726414922
 20
10.0
 30
0.0
 11
65.68153672641489
 21
11.799999999999971
 31
0.0
  0
LINE
  5
E51B
  8
0
 62
     0
 10
68.638610196164819
 20
17.002137500017181
 30
0.0
 11
71.488610196164814
 21
19.852137500017172
 31
0.0
  0
LINE
  5
E51C
  8
0
 62
     0
 10
61.636472696147628
 20
10.0
 30
0.0
 11
63.436472696147618
 21
11.799999999999979
 31
0.0
  0
LINE
  5
E51D
  8
0
 62
     0
 10
68.638610196164819
 20
19.24720153028446
 30
0.0
 11
71.488610196164814
 21
22.097201530284469
 31
0.0
  0
LINE
  5
E51E
  8
0
 62
     0
 10
59.391408665880348
 20
10.0
 30
0.0
 11
61.191408665880331
 21
11.799999999999979
 31
0.0
  0
LINE
  5
E51F
  8
0
 62
     0
 10
57.146344635613062
 20
10.0
 30
0.0
 11
58.946344635613038
 21
11.799999999999979
 31
0.0
  0
LINE
  5
E520
  8
0
 62
     0
 10
54.901280605345768
 20
10.0
 30
0.0
 11
56.701280605345751
 21
11.799999999999979
 31
0.0
  0
LINE
  5
E521
  8
0
 62
     0
 10
52.656216575078481
 20
9.9999999999999964
 30
0.0
 11
54.456216575078457
 21
11.799999999999979
 31
0.0
  0
LINE
  5
E522
  8
0
 62
     0
 10
50.411152544811188
 20
10.0
 30
0.0
 11
52.211152544811171
 21
11.799999999999971
 31
0.0
  0
LINE
  5
E523
  8
0
 62
     0
 10
48.166088514543901
 20
10.0
 30
0.0
 11
49.966088514543877
 21
11.799999999999979
 31
0.0
  0
LINE
  5
E524
  8
0
 62
     0
 10
45.921024484276607
 20
10.0
 30
0.0
 11
47.721024484276597
 21
11.799999999999979
 31
0.0
  0
LINE
  5
E525
  8
0
 62
     0
 10
43.675960454009321
 20
9.9999999999999964
 30
0.0
 11
45.475960454009311
 21
11.799999999999979
 31
0.0
  0
LINE
  5
E526
  8
0
 62
     0
 10
41.430896423742027
 20
9.9999999999999982
 30
0.0
 11
43.230896423742017
 21
11.799999999999979
 31
0.0
  0
LINE
  5
E527
  8
0
 62
     0
 10
39.185832393474747
 20
10.0
 30
0.0
 11
40.98583239347473
 21
11.799999999999979
 31
0.0
  0
LINE
  5
E528
  8
0
 62
     0
 10
36.940768363207461
 20
10.0
 30
0.0
 11
38.740768363207451
 21
11.799999999999979
 31
0.0
  0
LINE
  5
E529
  8
0
 62
     0
 10
34.695704332940181
 20
10.0
 30
0.0
 11
36.495704332940157
 21
11.799999999999979
 31
0.0
  0
LINE
  5
E52A
  8
0
 62
     0
 10
32.450640302672888
 20
10.0
 30
0.0
 11
34.250640302672871
 21
11.799999999999979
 31
0.0
  0
LINE
  5
E52B
  8
0
 62
     0
 10
30.205576272405601
 20
10.0
 30
0.0
 11
32.005576272405577
 21
11.799999999999979
 31
0.0
  0
LINE
  5
E52C
  8
0
 62
     0
 10
27.960512242138311
 20
10.0
 30
0.0
 11
31.33861019616484
 21
13.378097954026529
 31
0.0
  0
LINE
  5
E52D
  8
0
 62
     0
 10
28.488610196164831
 20
12.773161984293809
 30
0.0
 11
31.33861019616484
 21
15.623161984293811
 31
0.0
  0
LINE
  5
E52E
  8
0
 62
     0
 10
25.715448211871021
 20
10.0
 30
0.0
 11
27.515448211871
 21
11.799999999999979
 31
0.0
  0
LINE
  5
E52F
  8
0
 62
     0
 10
24.988610196164821
 20
11.51822601456109
 30
0.0
 11
25.27038418160372
 21
11.799999999999979
 31
0.0
  0
LINE
  5
E530
  8
0
 62
     0
 10
28.488610196164831
 20
15.018226014561099
 30
0.0
 11
31.33861019616484
 21
17.86822601456111
 31
0.0
  0
LINE
  5
E531
  8
0
 62
     0
 10
23.47038418160373
 20
10.0
 30
0.0
 11
24.988610196164821
 21
11.51822601456109
 31
0.0
  0
LINE
  5
E532
  8
0
 62
     0
 10
28.488610196164831
 20
17.263290044828381
 30
0.0
 11
31.295396467725141
 21
20.0700763163887
 31
0.0
  0
LINE
  5
E533
  8
0
 62
     0
 10
21.22532015133644
 20
10.0
 30
0.0
 11
23.02532015133643
 21
11.799999999999979
 31
0.0
  0
LINE
  5
E534
  8
0
 62
     0
 10
28.488610196164831
 20
19.508354075095671
 30
0.0
 11
30.43903183762319
 21
21.45877571655403
 31
0.0
  0
LINE
  5
E535
  8
0
 62
     0
 10
18.98025612106915
 20
10.0
 30
0.0
 11
21.488610196164821
 21
12.50835407509566
 31
0.0
  0
LINE
  5
E536
  8
0
 62
     0
 10
18.638610196164809
 20
11.90341810536294
 30
0.0
 11
21.488610196164821
 21
14.75341810536295
 31
0.0
  0
LINE
  5
E537
  8
0
 62
     0
 10
28.488610196164831
 20
21.753418105362961
 30
0.0
 11
29.582667207521229
 21
22.847475116719369
 31
0.0
  0
LINE
  5
E538
  8
0
 62
     0
 10
16.73519209080186
 20
10.0
 30
0.0
 11
18.53519209080185
 21
11.799999999999979
 31
0.0
  0
LINE
  5
E539
  8
0
 62
     0
 10
18.638610196164809
 20
14.14848213563023
 30
0.0
 11
21.488610196164821
 21
16.99848213563024
 31
0.0
  0
LINE
  5
E53A
  8
0
 62
     0
 10
14.49012806053458
 20
10.0
 30
0.0
 11
16.29012806053456
 21
11.799999999999979
 31
0.0
  0
LINE
  5
E53B
  8
0
 62
     0
 10
18.638610196164809
 20
16.393546165897519
 30
0.0
 11
21.488610196164821
 21
19.243546165897531
 31
0.0
  0
LINE
  5
E53C
  8
0
 62
     0
 10
12.24506403026729
 20
10.0
 30
0.0
 11
14.04506403026727
 21
11.799999999999979
 31
0.0
  0
LINE
  5
E53D
  8
0
 62
     0
 10
18.638610196164809
 20
18.638610196164802
 30
0.0
 11
21.488610196164821
 21
21.488610196164821
 31
0.0
  0
LINE
  5
E53E
  8
0
 62
     0
 10
10.0
 20
10.0
 30
0.0
 11
11.799999999999979
 21
11.799999999999979
 31
0.0
  0
LINE
  5
E53F
  8
0
 62
     0
 10
20.06017308216429
 20
22.30523711243157
 30
0.0
 11
20.75493596973271
 21
23.0
 31
0.0
  0
LINE
  5
E540
  8
0
 62
     0
 10
7.7549359697327143
 20
10.0
 30
0.0
 11
9.5549359697326981
 21
11.799999999999979
 31
0.0
  0
LINE
  5
E541
  8
0
 62
     0
 10
5.5098719394654232
 20
10.0
 30
0.0
 11
7.309871939465407
 21
11.799999999999979
 31
0.0
  0
LINE
  5
E542
  8
0
 62
     0
 10
3.264807909198137
 20
10.0
 30
0.0
 11
5.0648079091981213
 21
11.799999999999979
 31
0.0
  0
LINE
  5
E543
  8
0
 62
     0
 10
1.077251564779746
 20
10.057507685848901
 30
0.0
 11
2.9886101961648199
 21
11.968866317233971
 31
0.0
  0
LINE
  5
E544
  8
0
 62
     0
 10
0.0118213173716884
 20
11.237141468708121
 30
0.0
 11
1.7746798486635611
 21
13.0
 31
0.0
  0
ENDBLK
  5
E546
  8
0
  0
ENDSEC
  0
SECTION
  2
ENTITIES
  0
INSERT
  5
DCB4
  8
MSM_CONTINUOUS
  2
*U2
 10
0.0
 20
0.0
 30
0.0
  0
INSERT
  5
DCB5
  8
MSM_CONTINUOUS
  2
*U3
 10
0.0
 20
0.0
 30
0.0
  0
LINE
  5
E2A5
  8
MSM_CONTINUOUS
 10
68.638610196164819
 20
20.0
 30
0.0
 11
70.488610196164814
 21
23.0
 31
0.0
1001
ACAD
1000
ASC_BOUNDS
1002
{
1070
    19
1005
E35D
1002
}
  0
LINE
  5
E2A6
  8
MSM_CONTINUOUS
 10
71.488610196164814
 20
11.799999999999979
 30
0.0
 11
71.488610196164814
 21
23.0
 31
0.0
1001
ACAD
1000
ASC_BOUNDS
1002
{
1070
    19
1005
E35D
1002
}
  0
LINE
  5
E2A7
  8
MSM_CONTINUOUS
 10
78.488610196164814
 20
23.0
 30
0.0
 11
78.488610196164814
 21
11.799999999999979
 31
0.0
1001
ACAD
1000
ASC_BOUNDS
1002
{
1070
    19
1005
E35D
1002
}
  0
LINE
  5
E2A8
  8
MSM_CENTER
 10
74.988610196164814
 20
25.0
 30
0.0
 11
74.988610196164814
 21
7.7999999999999901
 31
0.0
1001
ACAD
1000
ASC_BOUNDS
1002
{
1070
    19
1005
E35D
1005
E35D
1002
}
  0
LINE
  5
E2A9
  8
MSM_CONTINUOUS
 10
79.488610196164814
 20
23.0
 30
0.0
 11
81.338610196164794
 21
20.0
 31
0.0
1001
ACAD
1000
ASC_BOUNDS
1002
{
1070
    19
1005
E35D
1002
}
  0
LINE
  5
E2AA
  8
MSM_CENTER
 10
49.988610196164842
 20
8.0
 30
0.0
 11
49.988610196164842
 21
25.0
 31
0.0
1001
ACAD
1000
ASC_BOUNDS
1002
{
1070
    19
1005
E35D
1005
E35D
1002
}
  0
LINE
  5
E2AB
  8
MSM_CONTINUOUS
 10
18.638610196164809
 20
20.0
 30
0.0
 11
20.488610196164821
 21
23.0
 31
0.0
1001
ACAD
1000
ASC_BOUNDS
1002
{
1070
    19
1005
E35D
1002
}
  0
LINE
  5
E2AC
  8
MSM_CONTINUOUS
 10
21.488610196164821
 20
11.799999999999979
 30
0.0
 11
21.488610196164821
 21
23.0
 31
0.0
1001
ACAD
1000
ASC_BOUNDS
1002
{
1070
    19
1005
E35D
1002
}
  0
LINE
  5
E2AD
  8
MSM_CONTINUOUS
 10
28.488610196164839
 20
23.0
 30
0.0
 11
28.488610196164839
 21
11.799999999999979
 31
0.0
1001
ACAD
1000
ASC_BOUNDS
1002
{
1070
    19
1005
E35D
1002
}
  0
LINE
  5
E2AE
  8
MSM_CENTER
 10
24.988610196164821
 20
25.0
 30
0.0
 11
24.988610196164821
 21
7.7999999999999821
 31
0.0
1001
ACAD
1000
ASC_BOUNDS
1002
{
1070
    19
1005
E35D
1005
E35D
1002
}
  0
LINE
  5
E2AF
  8
MSM_CONTINUOUS
 10
29.488610196164849
 20
23.0
 30
0.0
 11
31.33861019616484
 21
20.0
 31
0.0
1001
ACAD
1000
ASC_BOUNDS
1002
{
1070
    19
1005
E35D
1002
}
  0
LINE
  5
E2B0
  8
MSM_CONTINUOUS
 10
31.33861019616484
 20
13.0
 30
0.0
 11
68.638610196164819
 21
13.0
 31
0.0
  0
LINE
  5
E2B1
  8
MSM_CONTINUOUS
 10
31.33861019616484
 20
11.799999999999979
 30
0.0
 11
68.638610196164819
 21
11.799999999999979
 31
0.0
1001
ACAD
1000
ASC_BOUNDS
1002
{
1070
    19
1005
E35D
1005
E35D
1002
}
  0
LINE
  5
E2B2
  8
MSM_CONTINUOUS
 10
1.4886101961648199
 20
10.0
 30
0.0
 11
98.488610196164814
 21
10.0
 31
0.0
1001
ACAD
1000
ASC_BOUNDS
1002
{
1070
    19
1005
E35D
1005
E35D
1005
E35D
1005
E35D
1002
}
  0
LINE
  5
E2B3
  8
MSM_CONTINUOUS
 10
2.9886101961648199
 20
11.799999999999979
 30
0.0
 11
18.638610196164809
 21
11.799999999999979
 31
0.0
1001
ACAD
1000
ASC_BOUNDS
1002
{
1070
    19
1005
E35D
1002
}
  0
LINE
  5
E2B4
  8
MSM_CONTINUOUS
 10
-0.0113898038351792
 20
13.0
 30
0.0
 11
18.638610196164809
 21
13.0
 31
0.0
1001
ACAD
1000
ASC_BOUNDS
1002
{
1070
    19
1005
E35D
1002
}
  0
ARC
  5
E2B5
  8
MSM_CONTINUOUS
 10
1.4886101961648199
 20
11.5
 30
0.0
 40
1.5
 50
180.0
 51
270.0
1001
ACAD
1000
ASC_BOUNDS
1002
{
1070
    19
1005
E35D
1002
}
  0
LINE
  5
E2B6
  8
MSM_CONTINUOUS
 10
-0.0113898038351792
 20
11.5
 30
0.0
 11
-0.0113898038351792
 21
13.0
 31
0.0
1001
ACAD
1000
ASC_BOUNDS
1002
{
1070
    19
1005
E35D
1002
}
  0
LINE
  5
E2B7
  8
MSM_CONTINUOUS
 10
2.9886101961648199
 20
13.0
 30
0.0
 11
2.9886101961648199
 21
11.799999999999979
 31
0.0
1001
ACAD
1000
ASC_BOUNDS
1002
{
1070
    19
1005
E35D
1002
}
  0
LINE
  5
E2B8
  8
MSM_CONTINUOUS
 10
21.488610196164821
 20
11.799999999999979
 30
0.0
 11
28.488610196164839
 21
11.799999999999979
 31
0.0
1001
ACAD
1000
ASC_BOUNDS
1002
{
1070
    19
1005
E35D
1005
E35D
1002
}
  0
LINE
  5
E2B9
  8
MSM_CONTINUOUS
 10
18.638610196164809
 20
11.799999999999979
 30
0.0
 11
18.638610196164809
 21
20.0
 31
0.0
1001
ACAD
1000
ASC_BOUNDS
1002
{
1070
    19
1005
E35D
1002
}
  0
LINE
  5
E2BA
  8
MSM_CONTINUOUS
 10
31.33861019616484
 20
20.0
 30
0.0
 11
31.33861019616484
 21
11.799999999999979
 31
0.0
1001
ACAD
1000
ASC_BOUNDS
1002
{
1070
    19
1005
E35D
1002
}
  0
LINE
  5
E2BB
  8
MSM_CONTINUOUS
 10
81.338610196164794
 20
11.799999999999979
 30
0.0
 11
96.988610196164814
 21
11.799999999999979
 31
0.0
1001
ACAD
1000
ASC_BOUNDS
1002
{
1070
    19
1005
E35D
1002
}
  0
LINE
  5
E2BC
  8
MSM_CONTINUOUS
 10
81.338610196164794
 20
13.0
 30
0.0
 11
99.988610196164814
 21
12.999999999999989
 31
0.0
1001
ACAD
1000
ASC_BOUNDS
1002
{
1070
    19
1005
E35D
1002
}
  0
LINE
  5
E2BD
  8
MSM_CONTINUOUS
 10
68.638610196164819
 20
20.0
 30
0.0
 11
68.638610196164819
 21
11.799999999999979
 31
0.0
1001
ACAD
1000
ASC_BOUNDS
1002
{
1070
    19
1005
E35D
1002
}
  0
LINE
  5
E2BE
  8
MSM_CONTINUOUS
 10
71.488610196164814
 20
11.799999999999979
 30
0.0
 11
78.488610196164814
 21
11.799999999999979
 31
0.0
1001
ACAD
1000
ASC_BOUNDS
1002
{
1070
    19
1005
E35D
1005
E35D
1002
}
  0
LINE
  5
E2BF
  8
MSM_CONTINUOUS
 10
81.338610196164794
 20
11.799999999999979
 30
0.0
 11
81.338610196164794
 21
20.0
 31
0.0
1001
ACAD
1000
ASC_BOUNDS
1002
{
1070
    19
1005
E35D
1002
}
  0
ARC
  5
E2C0
  8
MSM_CONTINUOUS
 10
98.488610196164814
 20
11.5
 30
0.0
 40
1.5
 50
270.0
 51
0.0
1001
ACAD
1000
ASC_BOUNDS
1002
{
1070
    19
1005
E35D
1002
}
  0
LINE
  5
E2C1
  8
MSM_CONTINUOUS
 10
96.988610196164814
 20
11.799999999999979
 30
0.0
 11
96.988610196164814
 21
13.0
 31
0.0
1001
ACAD
1000
ASC_BOUNDS
1002
{
1070
    19
1005
E35D
1002
}
  0
LINE
  5
E2C2
  8
MSM_CONTINUOUS
 10
99.988610196164814
 20
13.0
 30
0.0
 11
99.988610196164814
 21
11.5
 31
0.0
1001
ACAD
1000
ASC_BOUNDS
1002
{
1070
    19
1005
E35D
1002
}
  0
LINE
  5
E2C3
  8
MSM_CENTER
 10
-2.0113898038351858
 20
60.0
 30
0.0
 11
101.9886101961648
 21
60.0
 31
0.0
  0
LINE
  5
E2C4
  8
MSM_CONTINUOUS
 10
96.988610196164785
 20
82.0
 30
0.0
 11
2.9886101961648128
 21
82.0
 31
0.0
  0
LINE
  5
E2C5
  8
MSM_CONTINUOUS
 10
2.9886101961648128
 20
38.0
 30
0.0
 11
96.988610196164785
 21
38.0
 31
0.0
  0
LINE
  5
E2C6
  8
MSM_CONTINUOUS
 10
96.988610196164785
 20
85.0
 30
0.0
 11
2.9886101961648128
 21
85.0
 31
0.0
  0
LINE
  5
E2C7
  8
MSM_CONTINUOUS
 10
2.9886101961648128
 20
35.0
 30
0.0
 11
96.988610196164785
 21
35.0
 31
0.0
  0
LINE
  5
E2C8
  8
MSM_CENTER
 10
49.988610196164821
 20
87.0
 30
0.0
 11
49.988610196164821
 21
33.0
 31
0.0
  0
LINE
  5
E2C9
  8
MSM_CONTINUOUS
 10
2.9886101961648128
 20
82.0
 30
0.0
 11
2.9886101961648128
 21
38.0
 31
0.0
  0
LINE
  5
E2CA
  8
MSM_CONTINUOUS
 10
-0.0113898038351792
 20
82.0
 30
0.0
 11
-0.0113898038351792
 21
38.0
 31
0.0
  0
LINE
  5
E2CB
  8
MSM_CONTINUOUS
 10
29.412716470264819
 20
60.822972463799999
 30
0.0
 11
31.042137814264802
 21
60.3863703305
 31
0.0
  0
LINE
  5
E2CC
  8
MSM_CONTINUOUS
 10
31.042137814264802
 20
59.6136296695
 30
0.0
 11
29.412716470264819
 21
59.177027536200001
 31
0.0
  0
ARC
  5
E2CD
  8
MSM_CONTINUOUS
 10
2.9886101961648128
 20
38.0
 30
0.0
 40
3.0
 50
180.0
 51
270.0
  0
LINE
  5
E2CE
  8
MSM_CONTINUOUS
 10
20.488610196164821
 20
23.0
 30
0.0
 11
29.488610196164821
 21
23.0
 31
0.0
1001
ACAD
1000
ASC_BOUNDS
1002
{
1070
    19
1005
E35D
1005
E35D
1002
}
  0
LINE
  5
E2CF
  8
MSM_CENTER
 10
24.98861019616481
 20
52.64999999999997
 30
0.0
 11
24.98861019616481
 21
67.34999999999998
 31
0.0
  0
CIRCLE
  5
E2D0
  8
MSM_CONTINUOUS
 10
24.98861019616481
 20
60.0
 30
0.0
 40
4.499999999999992
  0
CIRCLE
  5
E2D1
  8
MSM_CONTINUOUS
 10
24.98861019616481
 20
60.0
 30
0.0
 40
3.5000000000000271
  0
LINE
  5
E2D2
  8
MSM_CONTINUOUS
 10
25.81158265996482
 20
55.575893725999997
 30
0.0
 11
25.374980526664839
 21
53.946472382000003
 31
0.0
  0
LINE
  5
E2D3
  8
MSM_CONTINUOUS
 10
24.60223986566481
 20
53.946472382000003
 30
0.0
 11
24.165637732464809
 21
55.575893725999997
 31
0.0
  0
ARC
  5
E2D4
  8
MSM_CONTINUOUS
 10
24.98861019616481
 20
54.049999999999983
 30
0.0
 40
0.4000000000000023
 50
194.99999999999849
 51
345.00000000000131
  0
ARC
  5
E2D5
  8
MSM_CONTINUOUS
 10
19.038610196164811
 20
60.0
 30
0.0
 40
0.4000000000000373
 50
104.9999999999995
 51
255.00000000000051
  0
LINE
  5
E2D6
  8
MSM_CONTINUOUS
 10
18.93508257816481
 20
60.3863703305
 30
0.0
 11
20.56450392216481
 21
60.822972463799999
 31
0.0
  0
LINE
  5
E2D7
  8
MSM_CONTINUOUS
 10
20.56450392216481
 20
59.177027536200001
 30
0.0
 11
18.93508257816481
 21
59.6136296695
 31
0.0
  0
LINE
  5
E2D8
  8
MSM_CONTINUOUS
 10
25.374980526664839
 20
66.053527618099992
 30
0.0
 11
25.81158265996482
 21
64.424106273999996
 31
0.0
  0
LINE
  5
E2D9
  8
MSM_CONTINUOUS
 10
24.165637732464809
 20
64.424106273999996
 30
0.0
 11
24.60223986566481
 21
66.053527618099992
 31
0.0
  0
ARC
  5
E2DA
  8
MSM_CONTINUOUS
 10
24.98861019616481
 20
65.949999999999974
 30
0.0
 40
0.3999999999999949
 50
14.99999999999886
 51
165.00000000000111
  0
ARC
  5
E2DB
  8
MSM_CONTINUOUS
 10
30.938610196164841
 20
60.0
 30
0.0
 40
0.4000000000000023
 50
285.00000000000063
 51
74.999999999999446
  0
ARC
  5
E2DC
  8
MSM_CONTINUOUS
 10
2.9886101961648128
 20
82.0
 30
0.0
 40
3.0
 50
90.0
 51
180.0
  0
LINE
  5
E2DD
  8
MSM_CONTINUOUS
 10
96.988610196164785
 20
38.0
 30
0.0
 11
96.988610196164785
 21
82.0
 31
0.0
  0
LINE
  5
E2DE
  8
MSM_CONTINUOUS
 10
99.988610196164814
 20
38.0
 30
0.0
 11
99.988610196164814
 21
82.0
 31
0.0
  0
LINE
  5
E2DF
  8
MSM_CONTINUOUS
 10
70.488610196164814
 20
23.0
 30
0.0
 11
79.488610196164814
 21
23.000000000000011
 31
0.0
1001
ACAD
1000
ASC_BOUNDS
1002
{
1070
    19
1005
E35D
1005
E35D
1002
}
  0
LINE
  5
E2E0
  8
MSM_CONTINUOUS
 10
81.042137814264805
 20
60.3863703305
 30
0.0
 11
79.412716470264826
 21
60.822972463799999
 31
0.0
  0
LINE
  5
E2E1
  8
MSM_CONTINUOUS
 10
79.412716470264826
 20
59.177027536200001
 30
0.0
 11
81.042137814264805
 21
59.6136296695
 31
0.0
  0
LINE
  5
E2E2
  8
MSM_CENTER
 10
74.988610196164785
 20
67.34999999999998
 30
0.0
 11
74.988610196164785
 21
52.64999999999997
 31
0.0
  0
CIRCLE
  5
E2E3
  8
MSM_CONTINUOUS
 10
74.988610196164785
 20
60.0
 30
0.0
 40
4.499999999999992
  0
CIRCLE
  5
E2E4
  8
MSM_CONTINUOUS
 10
74.988610196164785
 20
60.0
 30
0.0
 40
3.5
  0
LINE
  5
E2E5
  8
MSM_CONTINUOUS
 10
75.374980526664785
 20
53.946472382000003
 30
0.0
 11
75.811582659964813
 21
55.575893725999997
 31
0.0
  0
ARC
  5
E2E6
  8
MSM_CONTINUOUS
 10
74.988610196164785
 20
54.049999999999983
 30
0.0
 40
0.4000000000000023
 50
194.99999999999849
 51
345.00000000000131
  0
LINE
  5
E2E7
  8
MSM_CONTINUOUS
 10
74.16563773246483
 20
55.575893725999997
 30
0.0
 11
74.602239865664785
 21
53.946472382000003
 31
0.0
  0
ARC
  5
E2E8
  8
MSM_CONTINUOUS
 10
69.038610196164797
 20
60.0
 30
0.0
 40
0.4000000000000023
 50
104.99999999999859
 51
255.00000000000139
  0
LINE
  5
E2E9
  8
MSM_CONTINUOUS
 10
68.93508257816481
 20
59.6136296695
 30
0.0
 11
70.564503922164789
 21
59.177027536200001
 31
0.0
  0
LINE
  5
E2EA
  8
MSM_CONTINUOUS
 10
70.564503922164789
 20
60.822972463799999
 30
0.0
 11
68.93508257816481
 21
60.3863703305
 31
0.0
  0
LINE
  5
E2EB
  8
MSM_CONTINUOUS
 10
75.811582659964813
 20
64.424106273999996
 30
0.0
 11
75.374980526664785
 21
66.053527618099992
 31
0.0
  0
LINE
  5
E2EC
  8
MSM_CONTINUOUS
 10
74.602239865664785
 20
66.053527618099992
 30
0.0
 11
74.16563773246483
 21
64.424106273999996
 31
0.0
  0
ARC
  5
E2ED
  8
MSM_CONTINUOUS
 10
74.988610196164785
 20
65.949999999999974
 30
0.0
 40
0.3999999999999949
 50
14.99999999999859
 51
165.00000000000031
  0
ARC
  5
E2EE
  8
MSM_CONTINUOUS
 10
80.938610196164831
 20
60.0
 30
0.0
 40
0.4000000000000298
 50
284.99999999999761
 51
75.000000000002458
  0
ARC
  5
E2EF
  8
MSM_CONTINUOUS
 10
96.988610196164785
 20
38.0
 30
0.0
 40
3.0
 50
270.0
 51
0.0
  0
ARC
  5
E2F0
  8
MSM_CONTINUOUS
 10
96.988610196164785
 20
82.0
 30
0.0
 40
3.0
 50
0.0
 51
90.0
  0
INSERT
  5
E35D
  8
MSM_NARROW
  6
CONTINUOUS
  2
*X5
 10
0.0
 20
0.0
 30
0.0
1001
ACAD
1000
HATCH
1002
{
1070
    19
1000
ANSI31
1040
0.5
1040
0.0
1000
ASC_BOUNDS
1070
     4
1070
     1
1070
    12
1005
E2BB
1005
E2C1
1005
E2BC
1005
E2C2
1005
E2C0
1005
E2B2
1005
E2A8
1005
E2BE
1005
E2A7
1005
E2DF
1005
E2A9
1005
E2BF
1070
     1
1070
     9
1005
E2B2
1005
E2AA
1005
E2B1
1005
E2BD
1005
E2A5
1005
E2DF
1005
E2A6
1005
E2BE
1005
E2A8
1070
     1
1070
     9
1005
E2B1
1005
E2AA
1005
E2B2
1005
E2AE
1005
E2B8
1005
E2AD
1005
E2CE
1005
E2AF
1005
E2BA
1070
     1
1070
    12
1005
E2B8
1005
E2AE
1005
E2B2
1005
E2B5
1005
E2B6
1005
E2B4
1005
E2B7
1005
E2B3
1005
E2B9
1005
E2AB
1005
E2CE
1005
E2AC
1000
ASC_SEEDPOINT
1011
20.235976225989539
1021
0.0
1031
0.0
1021
12.65855218546767
1031
0.0
1000
R14_HATCH_DATA
1000
E35D
1011
1.0
1021
0.0
1031
0.0
1021
0.0
1031
0.0
1011
0.0
1021
0.0
1031
0.0
1021
1.0
1031
0.0
1011
0.0
1021
0.0
1031
0.0
1021
0.0
1031
1.0
1040
0.0
1010
0.0
1020
0.0
1030
1.0
1000
ANSI31
1070
     0
1070
     1
1071
        4
1071
        7
1070
     1
1070
     1
1071
       13
1040
21.488610196164821
1040
11.799999999999979
1040
0.0
1040
21.488610196164821
1040
23.0
1040
0.0
1040
20.488610196164821
1040
23.0
1040
0.0
1040
18.638610196164809
1040
20.0
1040
0.0
1040
18.638610196164809
1040
13.0
1040
0.0
1040
18.638610196164809
1040
11.799999999999979
1040
0.0
1040
2.9886101961648199
1040
11.799999999999979
1040
0.0
1040
2.9886101961648199
1040
13.0
1040
0.0
1040
-0.0113898038351792
1040
13.0
1040
0.0
1040
-0.0113898038351792
1040
11.5
1040
0.4142135623730948
1040
1.4886101961648199
1040
10.0
1040
0.0
1040
24.988610196164821
1040
10.0
1040
0.0
1040
24.988610196164821
1040
11.799999999999979
1040
0.0
1071
       12
1005
E2AC
1005
E2CE
1005
E2AB
1005
E2B9
1005
E2B3
1005
E2B7
1005
E2B4
1005
E2B6
1005
E2B5
1005
E2B2
1005
E2AE
1005
E2B8
1071
        7
1070
     0
1070
     1
1071
        9
1040
31.33861019616484
1040
11.799999999999979
1040
31.33861019616484
1040
20.0
1040
29.488610196164839
1040
23.0
1040
28.488610196164831
1040
23.0
1040
28.488610196164839
1040
11.799999999999979
1040
24.988610196164821
1040
11.799999999999979
1040
24.988610196164821
1040
10.0
1040
49.988610196164842
1040
10.0
1040
49.988610196164842
1040
11.799999999999979
1071
        9
1005
E2BA
1005
E2AF
1005
E2CE
1005
E2AD
1005
E2B8
1005
E2AE
1005
E2B2
1005
E2AA
1005
E2B1
1071
        7
1070
     0
1070
     1
1071
        9
1040
74.988610196164814
1040
10.0
1040
74.988610196164814
1040
11.799999999999979
1040
71.488610196164814
1040
11.799999999999979
1040
71.488610196164814
1040
23.0
1040
70.488610196164814
1040
23.0
1040
68.638610196164819
1040
20.0
1040
68.638610196164819
1040
11.799999999999979
1040
49.988610196164842
1040
11.799999999999979
1040
49.988610196164842
1040
10.0
1071
        9
1005
E2A8
1005
E2BE
1005
E2A6
1005
E2DF
1005
E2A5
1005
E2BD
1005
E2B1
1005
E2AA
1005
E2B2
1071
        7
1070
     1
1070
     1
1071
       13
1040
81.338610196164794
1040
13.0
1040
0.0
1040
81.338610196164794
1040
20.0
1040
0.0
1040
79.488610196164814
1040
23.000000000000011
1040
0.0
1040
78.488610196164814
1040
23.0
1040
0.0
1040
78.488610196164814
1040
11.799999999999979
1040
0.0
1040
74.988610196164814
1040
11.799999999999979
1040
0.0
1040
74.988610196164814
1040
10.0
1040
0.0
1040
98.488610196164814
1040
10.0
1040
0.4142135623730875
1040
99.988610196164814
1040
11.5
1040
0.0
1040
99.988610196164814
1040
12.999999999999989
1040
0.0
1040
96.988610196164814
1040
12.999999999999989
1040
0.0
1040
96.988610196164814
1040
11.799999999999979
1040
0.0
1040
81.338610196164794
1040
11.799999999999979
1040
0.0
1071
       12
1005
E2BF
1005
E2A9
1005
E2DF
1005
E2A7
1005
E2BE
1005
E2A8
1005
E2B2
1005
E2C0
1005
E2C2
1005
E2BC
1005
E2C1
1005
E2BB
1070
     0
1070
     1
1040
0.0
1040
0.5
1070
     0
1070
     1
1040
0.7853981633974483
1040
0.0
1040
0.0
1040
-1.1225320151336431
1040
1.122532015133644
1070
     0
1040
0.0
1071
        4
1040
20.235976225989539
1040
12.65855218546767
1040
0.0
1040
29.524739795848848
1040
13.25145198779912
1040
0.0
1040
53.339548522828572
1040
10.87985277847333
1040
0.0
1040
79.229506557968335
1040
14.041985057574371
1040
0.0
1002
}
  0
ENDSEC
  0
EOF
