  0
SECTION
  2
HEADER
  9
$ACADVER
  1
AC1009
  9
$INSBASE
 10
0.0
 20
0.0
 30
0.0
  9
$EXTMIN
 10
108.0829999999999
 20
274.67335578736629
 30
0.0
  9
$EXTMAX
 10
329.62433333333342
 20
363.4325782809824
 30
0.0
  9
$LIMMIN
 10
0.0
 20
0.0
  9
$LIMMAX
 10
297.0
 20
210.0
  9
$ORTHOMODE
 70
     1
  9
$REGENMODE
 70
     1
  9
$FILLMODE
 70
     1
  9
$QTEXTMODE
 70
     0
  9
$MIRRTEXT
 70
     1
  9
$DRAGMODE
 70
     2
  9
$LTSCALE
 40
1.0
  9
$OSMODE
 70
   951
  9
$ATTMODE
 70
     1
  9
$TEXTSIZE
 40
6.4000000000000012
  9
$TRACEWID
 40
0.05
  9
$TEXTSTYLE
  7
STANDARD
  9
$CLAYER
  8
0
  9
$CELTYPE
  6
CONTINUOUS
  9
$CECOLOR
 62
     7
  9
$DIMSCALE
 40
1.0
  9
$DIMASZ
 40
3.0
  9
$DIMEXO
 40
1.0
  9
$DIMDLI
 40
0.0
  9
$DIMRND
 40
0.0
  9
$DIMDLE
 40
0.0
  9
$DIMEXE
 40
1.0
  9
$DIMTP
 40
0.0
  9
$DIMTM
 40
0.0
  9
$DIMTXT
 40
3.2000000000000002
  9
$DIMCEN
 40
0.0
  9
$DIMTSZ
 40
0.0
  9
$DIMTOL
 70
     0
  9
$DIMLIM
 70
     0
  9
$DIMTIH
 70
     0
  9
$DIMTOH
 70
     0
  9
$DIMSE1
 70
     0
  9
$DIMSE2
 70
     0
  9
$DIMTAD
 70
     1
  9
$DIMZIN
 70
     8
  9
$DIMBLK
  1

  9
$DIMASO
 70
     1
  9
$DIMSHO
 70
     1
  9
$DIMPOST
  1

  9
$DIMAPOST
  1

  9
$DIMALT
 70
     0
  9
$DIMALTD
 70
     2
  9
$DIMALTF
 40
0.04
  9
$DIMLFAC
 40
1.0
  9
$DIMTOFL
 70
     1
  9
$DIMTVP
 40
1.0
  9
$DIMTIX
 70
     1
  9
$DIMSOXD
 70
     0
  9
$DIMSAH
 70
     0
  9
$DIMBLK1
  1

  9
$DIMBLK2
  1

  9
$DIMSTYLE
  2
MISUMI
  9
$DIMCLRD
 70
     0
  9
$DIMCLRE
 70
     0
  9
$DIMCLRT
 70
     0
  9
$DIMTFAC
 40
0.6
  9
$DIMGAP
 40
1.0
  9
$LUNITS
 70
     2
  9
$LUPREC
 70
     4
  9
$SKETCHINC
 40
0.1
  9
$FILLETRAD
 40
0.0
  9
$AUNITS
 70
     0
  9
$AUPREC
 70
     0
  9
$MENU
  1
acad
  9
$ELEVATION
 40
0.0
  9
$PELEVATION
 40
0.0
  9
$THICKNESS
 40
0.0
  9
$LIMCHECK
 70
     0
  9
$BLIPMODE
 70
     0
  9
$CHAMFERA
 40
0.5
  9
$CHAMFERB
 40
0.5
  9
$SKPOLY
 70
     0
  9
$TDCREATE
 40
2451464.60066493
  9
$TDUPDATE
 40
2453777.5657656938
  9
$TDINDWG
 40
0.2497262616
  9
$TDUSRTIMER
 40
0.2497247801
  9
$USRTIMER
 70
     1
  9
$ANGBASE
 50
0.0
  9
$ANGDIR
 70
     0
  9
$PDMODE
 70
     0
  9
$PDSIZE
 40
0.0
  9
$PLINEWID
 40
0.0
  9
$COORDS
 70
     0
  9
$SPLFRAME
 70
     0
  9
$SPLINETYPE
 70
     6
  9
$SPLINESEGS
 70
     8
  9
$ATTDIA
 70
     0
  9
$ATTREQ
 70
     1
  9
$HANDLING
 70
 22529
  9
$HANDSEED
  5
140D
  9
$SURFTAB1
 70
     6
  9
$SURFTAB2
 70
     6
  9
$SURFTYPE
 70
     6
  9
$SURFU
 70
     6
  9
$SURFV
 70
     6
  9
$UCSNAME
  2

  9
$UCSORG
 10
0.0
 20
0.0
 30
0.0
  9
$UCSXDIR
 10
1.0
 20
0.0
 30
0.0
  9
$UCSYDIR
 10
0.0
 20
1.0
 30
0.0
  9
$PUCSNAME
  2

  9
$PUCSORG
 10
0.0
 20
0.0
 30
0.0
  9
$PUCSXDIR
 10
1.0
 20
0.0
 30
0.0
  9
$PUCSYDIR
 10
0.0
 20
1.0
 30
0.0
  9
$USERI1
 70
     0
  9
$USERI2
 70
     0
  9
$USERI3
 70
     0
  9
$USERI4
 70
     0
  9
$USERI5
 70
     0
  9
$USERR1
 40
0.0
  9
$USERR2
 40
0.0
  9
$USERR3
 40
0.0
  9
$USERR4
 40
0.0
  9
$USERR5
 40
0.0
  9
$WORLDVIEW
 70
     1
  9
$SHADEDGE
 70
     3
  9
$SHADEDIF
 70
    70
  9
$TILEMODE
 70
     1
  9
$MAXACTVP
 70
    16
  9
$PLIMCHECK
 70
     0
  9
$PEXTMIN
 10
1.0000000000000000E+020
 20
1.0000000000000000E+020
 30
1.0000000000000000E+020
  9
$PEXTMAX
 10
-1.0000000000000000E+020
 20
-1.0000000000000000E+020
 30
-1.0000000000000000E+020
  9
$PLIMMIN
 10
0.0
 20
0.0
  9
$PLIMMAX
 10
12.0
 20
9.0
  9
$UNITMODE
 70
     0
  9
$VISRETAIN
 70
     0
  9
$PLINEGEN
 70
     0
  9
$PSLTSCALE
 70
     1
  0
ENDSEC
  0
SECTION
  2
TABLES
  0
TABLE
  2
VPORT
 70
     2
  0
VPORT
  2
*ACTIVE
 70
     0
 10
0.0
 20
0.0
 11
1.0
 21
1.0
 12
245.7204681510384
 22
311.57424531406781
 13
0.0
 23
0.0
 14
10.0
 24
10.0
 15
10.0
 25
10.0
 16
0.0
 26
0.0
 36
1.0
 17
0.0
 27
0.0
 37
0.0
 40
179.15328948265289
 41
1.482558139534883
 42
50.0
 43
0.0
 44
0.0
 50
0.0
 51
0.0
 71
     0
 72
   100
 73
     1
 74
     0
 75
     0
 76
     0
 77
     0
 78
     0
  0
ENDTAB
  0
TABLE
  2
LTYPE
 70
     3
  0
LTYPE
  2
CONTINUOUS
 70
     0
  3
Solid line
 72
    65
 73
     0
 40
0.0
  0
LTYPE
  2
CENTER
 70
     0
  3
Center ____ _ ____ _ ____ _ ____ _ ____ _ ____
 72
    65
 73
     4
 40
2.0
 49
1.25
 49
-0.25
 49
0.25
 49
-0.25
  0
LTYPE
  2
DASHED
 70
     0
  3
Dashed __ __ __ __ __ __ __ __ __ __ __ __ __ _
 72
    65
 73
     2
 40
0.75
 49
0.5
 49
-0.25
  0
ENDTAB
  0
TABLE
  2
LAYER
 70
     3
  0
LAYER
  2
0
 70
     0
 62
     7
  6
CONTINUOUS
  0
LAYER
  2
DEFPOINTS
 70
     0
 62
     7
  6
CONTINUOUS
  0
LAYER
  2
CENTER
 70
     0
 62
     1
  6
CENTER
  0
ENDTAB
  0
TABLE
  2
STYLE
 70
     1
  0
STYLE
  2
STANDARD
 70
     0
 40
0.0
 41
1.0
 50
0.0
 71
     0
 42
6.4000000000000012
  3
txt
  4

  0
ENDTAB
  0
TABLE
  2
VIEW
 70
     0
  0
ENDTAB
  0
TABLE
  2
UCS
 70
     0
  0
ENDTAB
  0
TABLE
  2
APPID
 70
     1
  0
APPID
  2
ACAD
 70
     0
  0
ENDTAB
  0
TABLE
  2
DIMSTYLE
 70
     1
  0
DIMSTYLE
  2
MISUMI
 70
     0
  3

  4

  5

  6

  7

 40
1.0
 41
3.0
 42
1.0
 43
0.0
 44
1.0
 45
0.0
 46
0.0
 47
0.0
 48
0.0
140
3.2000000000000002
141
0.0
142
0.0
143
0.04
144
1.0
145
1.0
146
0.6
147
1.0
 71
     0
 72
     0
 73
     0
 74
     0
 75
     0
 76
     0
 77
     1
 78
     8
170
     0
171
     2
172
     1
173
     0
174
     1
175
     0
176
     0
177
     0
178
     0
  0
ENDTAB
  0
ENDSEC
  0
SECTION
  2
BLOCKS
  0
BLOCK
  8
0
  2
$MODEL_SPACE
 70
     0
 10
0.0
 20
0.0
 30
0.0
  3
$MODEL_SPACE
  1

  0
ENDBLK
  5
1267
  8
0
  0
BLOCK
 67
     1
  8
0
  2
$PAPER_SPACE
 70
     0
 10
0.0
 20
0.0
 30
0.0
  3
$PAPER_SPACE
  1

  0
ENDBLK
  5
1263
 67
     1
  8
0
  0
ENDSEC
  0
SECTION
  2
ENTITIES
  0
LINE
  5
1311
  8
0
  6
DASHED
 62
     3
 10
240.8999412799806
 20
340.98741051817558
 30
0.0
 11
146.89994127998341
 21
340.98738764238379
 31
0.0
  0
LINE
  5
1312
  8
0
  6
DASHED
 62
     3
 10
240.89994175655951
 20
334.98741161431582
 30
0.0
 11
146.8999417565596
 21
334.98741161431582
 31
0.0
  0
LINE
  5
1313
  8
CENTER
  6
CENTER
 62
     1
 10
264.22736199488992
 20
337.98741161431582
 30
0.0
 11
138.38142563761571
 21
337.98741161431582
 31
0.0
  0
TEXT
  5
1314
  8
0
 10
137.92014822415581
 20
278.67335578736629
 30
0.0
 40
2.5
  1
DKNZP8-100-N1.0
  0
TEXT
  5
1315
  8
0
 10
137.92014822415581
 20
274.67335578736629
 30
0.0
 40
2.5
  1
DKNZP8
  0
LINE
  5
1316
  8
0
  6
CONTINUOUS
 62
     7
 10
146.8999417565596
 20
340.98741161431542
 30
0.0
 11
146.8999417565596
 21
334.98741161431582
 31
0.0
  0
LINE
  5
1317
  8
0
  6
CONTINUOUS
 62
     7
 10
144.8999417565596
 20
341.98741161431542
 30
0.0
 11
144.8999417565596
 21
333.98741161431582
 31
0.0
  0
LINE
  5
1318
  8
0
  6
CONTINUOUS
 62
     7
 10
146.8999417565596
 20
341.98741161431542
 30
0.0
 11
146.8999417565596
 21
333.98741161431582
 31
0.0
  0
LINE
  5
1319
  8
0
  6
DASHED
 62
     3
 10
146.8999417565596
 20
337.48741161431582
 30
0.0
 11
144.8999417565596
 21
337.48741161431582
 31
0.0
  0
LINE
  5
131A
  8
0
  6
DASHED
 62
     3
 10
146.8999417565596
 20
338.48741161431582
 30
0.0
 11
144.8999417565596
 21
338.48741161431582
 31
0.0
  0
LINE
  5
131B
  8
CENTER
  6
CENTER
 62
     1
 10
286.8216515945204
 20
337.98741161431582
 30
0.0
 11
306.8216515945204
 21
337.98741161431582
 31
0.0
  0
LINE
  5
131C
  8
0
  6
DASHED
 62
     3
 10
256.40130487570389
 20
340.9874134938724
 30
0.0
 11
240.8999412799806
 21
340.98741051817558
 31
0.0
  0
LINE
  5
131D
  8
0
  6
DASHED
 62
     3
 10
256.4013053522828
 20
334.9874116143157
 30
0.0
 11
240.89994175655951
 21
334.98741161431582
 31
0.0
  0
ARC
  5
131E
  8
0
  6
CONTINUOUS
 62
     7
 10
259.02098220528228
 20
337.99335040100902
 30
0.0
 40
20.121041325148401
 50
166.74674220515561
 51
180.01691102425551
  0
LINE
  5
131F
  8
0
  6
CONTINUOUS
 62
     7
 10
244.8999417565594
 20
347.22501592134972
 30
0.0
 11
244.8999417565594
 21
332.96622361431582
 31
0.0
  0
LINE
  5
1320
  8
0
  6
CONTINUOUS
 62
     7
 10
238.8999417565594
 20
346.29681292134961
 30
0.0
 11
238.8999417565594
 21
330.98741161431582
 31
0.0
  0
LINE
  5
1321
  8
0
  6
CONTINUOUS
 62
     7
 10
231.3999417565594
 20
344.98741161431582
 30
0.0
 11
231.3999417565594
 21
330.98741161431582
 31
0.0
  0
LINE
  5
1322
  8
0
  6
CONTINUOUS
 62
     7
 10
230.8999417565594
 20
344.48741161431582
 30
0.0
 11
230.8999417565594
 21
334.98741161431582
 31
0.0
  0
LINE
  5
1323
  8
0
  6
CONTINUOUS
 62
     7
 10
238.8999417565594
 20
330.98741161431582
 30
0.0
 11
231.3999417565594
 21
330.98741161431582
 31
0.0
  0
LINE
  5
1324
  8
0
  6
CONTINUOUS
 62
     7
 10
230.8999417565594
 20
334.98741161431582
 30
0.0
 11
230.8999417565594
 21
331.48741161431582
 31
0.0
  0
LINE
  5
1325
  8
0
  6
CONTINUOUS
 62
     7
 10
231.3999417565594
 20
330.98741161431582
 30
0.0
 11
230.8999417565594
 21
331.48741161431582
 31
0.0
  0
LINE
  5
1326
  8
0
  6
CONTINUOUS
 62
     7
 10
244.8999417565594
 20
333.36860946079872
 30
0.0
 11
239.43583975655929
 21
333.36860946079872
 31
0.0
  0
LINE
  5
1327
  8
0
  6
CONTINUOUS
 62
     7
 10
244.8999417565594
 20
328.7498073072818
 30
0.0
 11
239.43583975655929
 21
328.7498073072818
 31
0.0
  0
ARC
  5
1328
  8
0
  6
CONTINUOUS
 62
     7
 10
251.80352804933401
 20
329.68853468783863
 30
0.0
 40
12.903590584704119
 50
163.4293350492824
 51
180.04673138463329
  0
LINE
  5
1329
  8
0
  6
CONTINUOUS
 62
     7
 10
238.8999417565594
 20
329.67801030728162
 30
0.0
 11
239.43583975655929
 21
328.7498073072818
 31
0.0
  0
LINE
  5
132A
  8
0
  6
CONTINUOUS
 62
     7
 10
238.8999417565594
 20
329.67801030728162
 30
0.0
 11
238.8999417565594
 21
330.98741161431582
 31
0.0
  0
ARC
  5
132B
  8
0
  6
CONTINUOUS
 62
     7
 10
259.02098220528347
 20
337.98147282762261
 30
0.0
 40
20.121041325149591
 50
179.98308897574461
 51
193.2532577948418
  0
LINE
  5
132C
  8
0
  6
DASHED
 62
     3
 10
240.89994175655951
 20
334.98741161431582
 30
0.0
 11
240.89994175655951
 21
333.98741161431582
 31
0.0
  0
LINE
  5
132D
  8
0
  6
CONTINUOUS
 62
     7
 10
244.8999417565594
 20
332.96622361431582
 30
0.0
 11
244.8999417565594
 21
328.7498073072818
 31
0.0
  0
LINE
  5
132E
  8
0
  6
CONTINUOUS
 62
     7
 10
238.8999417565594
 20
344.98741161431582
 30
0.0
 11
231.3999417565594
 21
344.98741161431582
 31
0.0
  0
LINE
  5
132F
  8
0
  6
CONTINUOUS
 62
     7
 10
231.3999417565594
 20
344.98741161431582
 30
0.0
 11
230.8999417565594
 21
344.48741161431582
 31
0.0
  0
LINE
  5
1330
  8
0
  6
CONTINUOUS
 62
     7
 10
244.8999417565594
 20
347.22501592134972
 30
0.0
 11
239.43583975655929
 21
347.22501592134972
 31
0.0
  0
LINE
  5
1331
  8
0
  6
CONTINUOUS
 62
     7
 10
244.8999417565594
 20
342.6062137678328
 30
0.0
 11
239.43583975655929
 21
342.6062137678328
 31
0.0
  0
ARC
  5
1332
  8
0
  6
CONTINUOUS
 62
     7
 10
251.80352804933199
 20
346.28628854079238
 30
0.0
 40
12.903590584702201
 50
179.9532686153666
 51
196.57066495071871
  0
LINE
  5
1333
  8
0
  6
DASHED
 62
     3
 10
240.89994104169091
 20
340.98741051817558
 30
0.0
 11
240.89994080340131
 21
341.98741051817569
 31
0.0
  0
LINE
  5
1334
  8
0
  6
CONTINUOUS
 62
     7
 10
238.8999417565594
 20
346.29681292134961
 30
0.0
 11
239.43583975655929
 21
347.22501592134972
 31
0.0
  0
LINE
  5
1335
  8
0
  6
DASHED
 62
     3
 10
256.89994235228289
 20
334.48741361431559
 30
0.0
 11
256.4013053522828
 21
334.9874116143157
 31
0.0
  0
LINE
  5
1336
  8
0
  6
DASHED
 62
     3
 10
256.89994175655937
 20
341.48741161269243
 30
0.0
 11
256.40130487570389
 21
340.9874134938724
 31
0.0
  0
CIRCLE
  5
1337
  8
0
  6
CONTINUOUS
 62
     7
 10
296.8216515945204
 20
337.98741161431582
 30
0.0
 40
0.4999999999999716
  0
CIRCLE
  5
1338
  8
0
  6
CONTINUOUS
 62
     7
 10
296.8216515945204
 20
337.98741161431582
 30
0.0
 40
3.0
  0
LINE
  5
1339
  8
CENTER
  6
CENTER
 62
     1
 10
296.8216515945204
 20
347.98741161431582
 30
0.0
 11
296.8216515945204
 21
327.98741161431582
 31
0.0
  0
LINE
  5
133E
  8
0
  6
CONTINUOUS
 62
     7
 10
256.89994175655937
 20
332.45272411431557
 30
0.0
 11
256.89994175655937
 21
343.52209911431578
 31
0.0
  0
LINE
  5
133F
  8
0
  6
CONTINUOUS
 62
     3
 10
244.8999417565594
 20
343.89709911431561
 30
0.0
 11
256.89994175655937
 21
343.52209911431578
 31
0.0
  0
LINE
  5
1340
  8
0
  6
CONTINUOUS
 62
     7
 10
244.8999417565594
 20
344.7530991143156
 30
0.0
 11
256.44696750281071
 21
344.39225455974542
 31
0.0
  0
LINE
  5
1341
  8
0
  6
CONTINUOUS
 62
     7
 10
256.89994175655937
 20
343.52209911431578
 30
0.0
 11
256.44696750281071
 21
344.39225455974542
 31
0.0
  0
LINE
  5
1342
  8
0
  6
CONTINUOUS
 62
     3
 10
245.35291601030821
 20
343.88294366888613
 30
0.0
 11
244.8999417565594
 21
344.7530991143156
 31
0.0
  0
LINE
  5
1343
  8
0
  6
CONTINUOUS
 62
     3
 10
245.35650045078859
 20
332.09199157351031
 30
0.0
 11
244.90352619704001
 21
331.22183612808078
 31
0.0
  0
LINE
  5
1344
  8
0
  6
CONTINUOUS
 62
     3
 10
244.8999417565594
 20
332.07772411431569
 30
0.0
 11
256.89994175655937
 21
332.45272411431591
 31
0.0
  0
LINE
  5
1345
  8
0
  6
CONTINUOUS
 62
     7
 10
244.8999417565594
 20
331.22172411431592
 30
0.0
 11
256.44696750281071
 21
331.58256866888621
 31
0.0
  0
LINE
  5
1346
  8
0
  6
CONTINUOUS
 62
     7
 10
256.89994175655937
 20
332.45272411431591
 30
0.0
 11
256.44696750281071
 21
331.58256866888621
 31
0.0
  0
CIRCLE
  5
1347
  8
0
  6
CONTINUOUS
 62
     7
 10
296.8216515945204
 20
337.98741161431582
 30
0.0
 40
6.5785
  0
CIRCLE
  5
1348
  8
0
  6
CONTINUOUS
 62
     3
 10
296.8216515945204
 20
337.98741161431582
 30
0.0
 40
5.7225000000000001
  0
POLYLINE
  5
1349
  8
0
  6
CONTINUOUS
 62
     7
 66
     1
 10
0.0
 20
0.0
 30
0.0
 70
     1
  0
VERTEX
  5
1406
  8
0
  6
CONTINUOUS
 62
     7
 10
288.8216515945204
 20
333.36860946079872
 30
0.0
  0
VERTEX
  5
1407
  8
0
  6
CONTINUOUS
 62
     7
 10
296.8216515945204
 20
328.7498073072818
 30
0.0
  0
VERTEX
  5
1408
  8
0
  6
CONTINUOUS
 62
     7
 10
304.8216515945204
 20
333.36860946079872
 30
0.0
  0
VERTEX
  5
1409
  8
0
  6
CONTINUOUS
 62
     7
 10
304.8216515945204
 20
342.6062137678328
 30
0.0
  0
VERTEX
  5
140A
  8
0
  6
CONTINUOUS
 62
     7
 10
296.8216515945204
 20
347.22501592134972
 30
0.0
  0
VERTEX
  5
140B
  8
0
  6
CONTINUOUS
 62
     7
 10
288.8216515945204
 20
342.6062137678328
 30
0.0
  0
SEQEND
  5
140C
  8
0
  6
CONTINUOUS
 62
     7
  0
CIRCLE
  5
1351
  8
0
  6
CONTINUOUS
 62
     7
 10
296.8216515945204
 20
337.98741161431582
 30
0.0
 40
8.0
  0
LINE
  5
1352
  8
0
  6
DASHED
 62
     3
 10
256.40130468374042
 20
340.9874134938724
 30
0.0
 11
256.40130487570389
 21
334.9874116143157
 31
0.0
  0
CIRCLE
  5
1353
  8
0
  6
CONTINUOUS
 62
     7
 10
296.8216515945204
 20
337.98741161431582
 30
0.0
 40
3.5
  0
LINE
  5
1354
  8
0
  6
CONTINUOUS
 62
     7
 10
230.8999417565594
 20
341.98741161431542
 30
0.0
 11
144.8999417565596
 21
341.98741161431542
 31
0.0
  0
LINE
  5
1355
  8
0
  6
CONTINUOUS
 62
     7
 10
230.8999417565594
 20
333.98741161431582
 30
0.0
 11
144.8999417565596
 21
333.98741161431582
 31
0.0
  0
LINE
  5
1356
  8
0
  6
CONTINUOUS
 62
     7
 10
144.8999417565596
 20
341.98741161431542
 30
0.0
 11
146.8999417565596
 21
341.98741161431542
 31
0.0
  0
LINE
  5
1357
  8
0
  6
CONTINUOUS
 62
     7
 10
146.8999417565596
 20
333.98741161431582
 30
0.0
 11
144.8999417565596
 21
333.98741161431582
 31
0.0
  0
LINE
  5
1358
  8
0
  6
DASHED
 62
     3
 10
240.89994080340131
 20
341.98741051817569
 30
0.0
 11
230.8999408034019
 21
341.98740813528082
 31
0.0
  0
LINE
  5
1359
  8
0
  6
DASHED
 62
     3
 10
240.89994175655951
 20
333.98741161431582
 30
0.0
 11
230.8999417565594
 21
333.98741161431582
 31
0.0
  0
LINE
  5
1362
  8
CENTER
  6
CENTER
 62
     1
 10
250.88994175655949
 20
349.46985340426772
 30
0.0
 11
250.88994175655949
 21
326.99924424595832
 31
0.0
  0
ENDSEC
  0
EOF
