  0
SECTION
  2
HEADER
  9
$ACADVER
  1
AC1009
  9
$INSBASE
 10
0.0
 20
0.0
 30
0.0
  9
$EXTMIN
 10
2257.858550941578
 20
23.962097684808668
 30
-0.0015258207003583
  9
$EXTMAX
 10
2402.1359988203249
 20
135.21698038235419
 30
0.0000000349246037
  9
$LIMMIN
 10
0.0
 20
0.0
  9
$LIMMAX
 10
297.0
 20
210.0
  9
$ORTHOMODE
 70
     1
  9
$REGENMODE
 70
     1
  9
$FILLMODE
 70
     1
  9
$QTEXTMODE
 70
     0
  9
$MIRRTEXT
 70
     1
  9
$DRAGMODE
 70
     2
  9
$LTSCALE
 40
1.0
  9
$OSMODE
 70
  2999
  9
$ATTMODE
 70
     1
  9
$TEXTSIZE
 40
6.4000000000000012
  9
$TRACEWID
 40
0.05
  9
$TEXTSTYLE
  7
STANDARD
  9
$CLAYER
  8
0
  9
$CELTYPE
  6
CONTINUOUS
  9
$CECOLOR
 62
     7
  9
$DIMSCALE
 40
1.0
  9
$DIMASZ
 40
3.0
  9
$DIMEXO
 40
1.0
  9
$DIMDLI
 40
0.0
  9
$DIMRND
 40
0.0
  9
$DIMDLE
 40
0.0
  9
$DIMEXE
 40
1.0
  9
$DIMTP
 40
0.0
  9
$DIMTM
 40
0.0
  9
$DIMTXT
 40
3.2000000000000002
  9
$DIMCEN
 40
0.0
  9
$DIMTSZ
 40
0.0
  9
$DIMTOL
 70
     0
  9
$DIMLIM
 70
     0
  9
$DIMTIH
 70
     0
  9
$DIMTOH
 70
     0
  9
$DIMSE1
 70
     0
  9
$DIMSE2
 70
     0
  9
$DIMTAD
 70
     1
  9
$DIMZIN
 70
     8
  9
$DIMBLK
  1

  9
$DIMASO
 70
     1
  9
$DIMSHO
 70
     1
  9
$DIMPOST
  1

  9
$DIMAPOST
  1

  9
$DIMALT
 70
     0
  9
$DIMALTD
 70
     2
  9
$DIMALTF
 40
0.04
  9
$DIMLFAC
 40
1.0
  9
$DIMTOFL
 70
     1
  9
$DIMTVP
 40
1.0
  9
$DIMTIX
 70
     1
  9
$DIMSOXD
 70
     0
  9
$DIMSAH
 70
     0
  9
$DIMBLK1
  1

  9
$DIMBLK2
  1

  9
$DIMSTYLE
  2
MISUMI
  9
$DIMCLRD
 70
     0
  9
$DIMCLRE
 70
     0
  9
$DIMCLRT
 70
     0
  9
$DIMTFAC
 40
0.6
  9
$DIMGAP
 40
1.0
  9
$LUNITS
 70
     2
  9
$LUPREC
 70
     4
  9
$SKETCHINC
 40
0.1
  9
$FILLETRAD
 40
1.5
  9
$AUNITS
 70
     0
  9
$AUPREC
 70
     0
  9
$MENU
  1
acad
  9
$ELEVATION
 40
0.0
  9
$PELEVATION
 40
0.0
  9
$THICKNESS
 40
0.0
  9
$LIMCHECK
 70
     0
  9
$BLIPMODE
 70
     0
  9
$CHAMFERA
 40
1.0
  9
$CHAMFERB
 40
1.0
  9
$SKPOLY
 70
     0
  9
$TDCREATE
 40
2451464.6006649309
  9
$TDUPDATE
 40
2454734.4682367709
  9
$TDINDWG
 40
0.5023951389
  9
$TDUSRTIMER
 40
0.5023929398
  9
$USRTIMER
 70
     1
  9
$ANGBASE
 50
0.0
  9
$ANGDIR
 70
     0
  9
$PDMODE
 70
     0
  9
$PDSIZE
 40
0.0
  9
$PLINEWID
 40
0.0
  9
$COORDS
 70
     2
  9
$SPLFRAME
 70
     0
  9
$SPLINETYPE
 70
     6
  9
$SPLINESEGS
 70
     8
  9
$ATTDIA
 70
     0
  9
$ATTREQ
 70
     1
  9
$HANDLING
 70
     1
  9
$HANDSEED
  5
28E0
  9
$SURFTAB1
 70
     6
  9
$SURFTAB2
 70
     6
  9
$SURFTYPE
 70
     6
  9
$SURFU
 70
     6
  9
$SURFV
 70
     6
  9
$UCSNAME
  2

  9
$UCSORG
 10
0.0
 20
0.0
 30
0.0
  9
$UCSXDIR
 10
1.0
 20
0.0
 30
0.0
  9
$UCSYDIR
 10
0.0
 20
1.0
 30
0.0
  9
$PUCSNAME
  2

  9
$PUCSORG
 10
0.0
 20
0.0
 30
0.0
  9
$PUCSXDIR
 10
1.0
 20
0.0
 30
0.0
  9
$PUCSYDIR
 10
0.0
 20
1.0
 30
0.0
  9
$USERI1
 70
     0
  9
$USERI2
 70
     0
  9
$USERI3
 70
     0
  9
$USERI4
 70
     0
  9
$USERI5
 70
     0
  9
$USERR1
 40
0.0
  9
$USERR2
 40
0.0
  9
$USERR3
 40
0.0
  9
$USERR4
 40
0.0
  9
$USERR5
 40
0.0
  9
$WORLDVIEW
 70
     1
  9
$SHADEDGE
 70
     3
  9
$SHADEDIF
 70
    70
  9
$TILEMODE
 70
     1
  9
$MAXACTVP
 70
    16
  9
$PLIMCHECK
 70
     0
  9
$PEXTMIN
 10
1.0000000000000000E+020
 20
1.0000000000000000E+020
 30
1.0000000000000000E+020
  9
$PEXTMAX
 10
-1.0000000000000000E+020
 20
-1.0000000000000000E+020
 30
-1.0000000000000000E+020
  9
$PLIMMIN
 10
0.0
 20
0.0
  9
$PLIMMAX
 10
12.0
 20
9.0
  9
$UNITMODE
 70
     0
  9
$VISRETAIN
 70
     0
  9
$PLINEGEN
 70
     0
  9
$PSLTSCALE
 70
     1
  0
ENDSEC
  0
SECTION
  2
TABLES
  0
TABLE
  2
VPORT
 70
     1
  0
VPORT
  2
*ACTIVE
 70
     0
 10
0.0
 20
0.0
 11
1.0
 21
1.0
 12
2329.9972748809519
 22
79.589539033581445
 13
0.0
 23
0.0
 14
10.0
 24
10.0
 15
10.0
 25
10.0
 16
0.0
 26
0.0
 36
1.0
 17
0.0
 27
0.0
 37
0.0
 40
112.0903386377023
 41
1.4799498746867159
 42
50.0
 43
0.0
 44
0.0
 50
0.0
 51
0.0
 71
     0
 72
   100
 73
     1
 74
     0
 75
     0
 76
     0
 77
     0
 78
     0
  0
ENDTAB
  0
TABLE
  2
LTYPE
 70
     4
  0
LTYPE
  2
CONTINUOUS
 70
     0
  3
Solid line
 72
    65
 73
     0
 40
0.0
  0
LTYPE
  2
CENTER
 70
     0
  3
Center ____ _ ____ _ ____ _ ____ _ ____ _ ____
 72
    65
 73
     4
 40
2.0
 49
1.25
 49
-0.25
 49
0.25
 49
-0.25
  0
LTYPE
  2
DASHED
 70
     0
  3
Dashed __ __ __ __ __ __ __ __ __ __ __ __ __ _
 72
    65
 73
     2
 40
0.75
 49
0.5
 49
-0.25
  0
ENDTAB
  0
TABLE
  2
LAYER
 70
     2
  0
LAYER
  2
0
 70
     0
 62
     7
  6
CONTINUOUS
  0
LAYER
  2
CENTER
 70
     0
 62
     1
  6
CENTER
  0
ENDTAB
  0
TABLE
  2
STYLE
 70
     1
  0
STYLE
  2
STANDARD
 70
     0
 40
0.0
 41
1.0
 50
0.0
 71
     0
 42
6.4000000000000012
  3
txt.shx
  4
bigfont.shx
  0
ENDTAB
  0
TABLE
  2
VIEW
 70
     0
  0
ENDTAB
  0
TABLE
  2
UCS
 70
     0
  0
ENDTAB
  0
TABLE
  2
APPID
 70
     2
  0
APPID
  2
ACAD
 70
     0
  0
APPID
  2
ACAD_PSEXT
 70
     0
  0
ENDTAB
  0
TABLE
  2
DIMSTYLE
 70
     1
  0
DIMSTYLE
  2
MISUMI
 70
     0
  3

  4

  5

  6

  7

 40
1.0
 41
3.0
 42
1.0
 43
0.0
 44
1.0
 45
0.0
 46
0.0
 47
0.0
 48
0.0
140
3.2000000000000002
141
0.0
142
0.0
143
0.04
144
1.0
145
1.0
146
0.6
147
1.0
 71
     0
 72
     0
 73
     0
 74
     0
 75
     0
 76
     0
 77
     1
 78
     8
170
     0
171
     2
172
     1
173
     0
174
     1
175
     0
176
     0
177
     0
178
     0
  0
ENDTAB
  0
ENDSEC
  0
SECTION
  2
BLOCKS
  0
BLOCK
  8
0
  2
$MODEL_SPACE
 70
     0
 10
0.0
 20
0.0
 30
0.0
  3
$MODEL_SPACE
  1

  0
ENDBLK
  5
287E
  8
0
  0
BLOCK
 67
     1
  8
0
  2
$PAPER_SPACE
 70
     0
 10
0.0
 20
0.0
 30
0.0
  3
$PAPER_SPACE
  1

  0
ENDBLK
  5
287A
 67
     1
  8
0
  0
ENDSEC
  0
SECTION
  2
ENTITIES
  0
TEXT
  5
16CA
  8
0
  6
CONTINUOUS
 62
     7
 10
2258.0114478630289
 20
28.829893889878679
 30
0.0
 40
3.2000000000000002
  1
SHSTMK 40-40
  0
TEXT
  5
16CB
  8
0
  6
CONTINUOUS
 62
     7
 10
2258.0114478630289
 20
23.969529047773548
 30
0.0
 40
3.2000000000000002
  1
SHSTMK 40
  0
LINE
  5
2115
  8
0
  6
DASHED
 62
     3
 10
2307.541595415767
 20
54.205780017753497
 30
0.0
 11
2307.541595415767
 21
61.20578001775349
 31
0.0
  0
LINE
  5
2116
  8
0
  6
DASHED
 62
     3
 10
2307.541595415767
 20
61.20578001775349
 30
0.0
 11
2312.541595415767
 21
61.20578001775349
 31
0.0
  0
LINE
  5
2117
  8
0
  6
DASHED
 62
     3
 10
2312.541595415767
 20
61.20578001775349
 30
0.0
 11
2312.541595415767
 21
54.205780017753497
 31
0.0
  0
LINE
  5
2118
  8
0
  6
DASHED
 62
     3
 10
2307.541595415767
 20
61.20578001775349
 30
0.0
 11
2310.0415954157679
 21
62.649155690727582
 31
0.0
  0
LINE
  5
2119
  8
0
  6
DASHED
 62
     3
 10
2312.541595415767
 20
61.20578001775349
 30
0.0
 11
2310.0415954157679
 21
62.649155690727582
 31
0.0
  0
LINE
  5
269B
  8
0
  6
CONTINUOUS
 62
     7
 10
2360.0414950633271
 20
54.205780017753533
 30
0.0
 11
2260.0414954157682
 21
54.205780017753447
 31
0.0
  0
LINE
  5
269C
  8
0
  6
CONTINUOUS
 62
     7
 10
2340.0414950633271
 20
64.205780017753483
 30
0.0
 11
2360.0414950633271
 21
64.205780017753611
 31
0.0
  0
ARC
  5
269D
  8
0
  6
CONTINUOUS
 62
     7
 10
2310.0414950633271
 20
94.205780017753355
 30
0.0
 40
20.0
 50
94.301222304659944
 51
85.698777695339999
  0
LINE
  5
269E
  8
0
  6
CONTINUOUS
 62
     7
 10
2280.0414950633271
 20
132.2057800177532
 30
0.0
 11
2280.0414950633271
 21
64.205780017753483
 31
0.0
  0
LINE
  5
269F
  8
0
  6
CONTINUOUS
 62
     7
 10
2340.0414950633271
 20
132.2057800177534
 30
0.0
 11
2340.0414950633271
 21
64.205780017753483
 31
0.0
  0
LINE
  5
26A0
  8
CENTER
  6
CENTER
 62
     1
 10
2310.0414950633258
 20
135.20578001775331
 30
0.0
 11
2310.0414950633258
 21
53.205780017753447
 31
0.0
  0
LINE
  5
26A3
  8
CENTER
  6
CENTER
 62
     1
 10
2270.0414950633271
 20
66.205780017753483
 30
0.0
 11
2270.0414950633271
 21
52.205780017753447
 31
0.0
  0
LINE
  5
26A4
  8
0
  6
CONTINUOUS
 62
     7
 10
2280.0414950633271
 20
64.205780017753483
 30
0.0
 11
2260.0414954157682
 21
64.205780017753483
 31
0.0
  0
LINE
  5
26A5
  8
0
  6
CONTINUOUS
 62
     7
 10
2260.0414954157682
 20
64.205780017753483
 30
0.0
 11
2260.0414954157682
 21
54.205780017753447
 31
0.0
  0
LINE
  5
26A6
  8
0
  6
DASHED
 62
     3
 10
2265.5414950633271
 20
64.205780017753483
 30
0.0
 11
2265.5414950633271
 21
54.205780017753447
 31
0.0
  0
LINE
  5
26A7
  8
0
  6
CONTINUOUS
 62
     7
 10
2260.0414954157682
 20
59.20578001775344
 30
0.0
 11
2260.0415954157679
 21
59.20578001775344
 31
0.0
  0
LINE
  5
26A8
  8
0
  6
CONTINUOUS
 62
     7
 10
2260.0414954157682
 20
61.70578001775344
 30
0.0
 11
2260.0414954157682
 21
61.705880017753422
 31
0.0
  0
LINE
  5
26A9
  8
0
  6
DASHED
 62
     3
 10
2274.5414950633271
 20
64.205780017753483
 30
0.0
 11
2274.5414950633271
 21
54.205780017753447
 31
0.0
  0
LINE
  5
26AA
  8
CENTER
  6
CENTER
 62
     1
 10
2350.0414950633271
 20
66.20578001775354
 30
0.0
 11
2350.0414950633271
 21
52.205780017753533
 31
0.0
  0
LINE
  5
26AB
  8
0
  6
DASHED
 62
     3
 10
2345.5414950633271
 20
64.205780017753526
 30
0.0
 11
2345.5414950633271
 21
54.205780017753447
 31
0.0
  0
LINE
  5
26AC
  8
0
  6
CONTINUOUS
 62
     7
 10
2308.5414950633271
 20
132.2057800177534
 30
0.0
 11
2280.0414950633271
 21
132.2057800177532
 31
0.0
  0
LINE
  5
26AD
  8
0
  6
DASHED
 62
     3
 10
2308.5414950633271
 20
127.2057800177532
 30
0.0
 11
2292.5414950633271
 21
127.2057800177532
 31
0.0
  0
LINE
  5
26AE
  8
0
  6
DASHED
 62
     3
 10
2308.5414950633271
 20
119.2057800177533
 30
0.0
 11
2292.5414950633271
 21
119.2057800177533
 31
0.0
  0
LINE
  5
26AF
  8
0
  6
DASHED
 62
     3
 10
2308.5414950633271
 20
126.4057800177532
 30
0.0
 11
2290.5414950633271
 21
126.4057800177532
 31
0.0
  0
LINE
  5
26B0
  8
0
  6
DASHED
 62
     3
 10
2308.5414950633271
 20
120.00578001775339
 30
0.0
 11
2290.5414950633271
 21
120.00578001775339
 31
0.0
  0
LINE
  5
26B1
  8
CENTER
  6
CENTER
 62
     1
 10
2342.0414950633271
 20
123.2057800177533
 30
0.0
 11
2287.5414950633271
 21
123.2057800177534
 31
0.0
  0
LINE
  5
26B2
  8
CENTER
  6
CENTER
 62
     1
 10
2332.0414950633271
 20
94.205780017753355
 30
0.0
 11
2288.0414950633249
 21
94.205780017753355
 31
0.0
  0
LINE
  5
26B3
  8
0
  6
DASHED
 62
     3
 10
2292.5414950633271
 20
127.2057800177532
 30
0.0
 11
2292.5414950633271
 21
119.2057800177533
 31
0.0
  0
LINE
  5
26B4
  8
0
  6
DASHED
 62
     3
 10
2290.5414950633271
 20
126.4057800177532
 30
0.0
 11
2290.5414950633271
 21
120.00578001775339
 31
0.0
  0
LINE
  5
26B5
  8
0
  6
DASHED
 62
     3
 10
2290.5414950633271
 20
120.00578001775339
 30
0.0
 11
2288.6939742019199
 21
123.2057800177533
 31
0.0
  0
LINE
  5
26B6
  8
0
  6
DASHED
 62
     3
 10
2292.5414950633271
 20
119.2057800177533
 30
0.0
 11
2291.1558544172722
 21
120.00578001775339
 31
0.0
  0
LINE
  5
26B7
  8
0
  6
DASHED
 62
     3
 10
2290.5414950633271
 20
126.4057800177532
 30
0.0
 11
2288.6939742019199
 21
123.2057800177533
 31
0.0
  0
LINE
  5
26B8
  8
0
  6
DASHED
 62
     3
 10
2292.5414950633271
 20
127.2057800177532
 30
0.0
 11
2291.1558544172722
 21
126.4057800177532
 31
0.0
  0
LINE
  5
26B9
  8
0
  6
CONTINUOUS
 62
     7
 10
2340.0414950633271
 20
132.2057800177534
 30
0.0
 11
2311.5414950633271
 21
132.2057800177534
 31
0.0
  0
LINE
  5
26BA
  8
0
  6
DASHED
 62
     3
 10
2331.0414950633281
 20
127.7057800177533
 30
0.0
 11
2311.5414950633271
 21
127.7057800177533
 31
0.0
  0
LINE
  5
26BB
  8
0
  6
DASHED
 62
     3
 10
2331.0414950633281
 20
118.7057800177534
 30
0.0
 11
2311.5414950633271
 21
118.7057800177537
 31
0.0
  0
LINE
  5
26BC
  8
0
  6
CONTINUOUS
 62
     7
 10
2308.5414950633271
 20
132.2057800177534
 30
0.0
 11
2308.5414950633271
 21
114.1494506929325
 31
0.0
  0
LINE
  5
26BD
  8
0
  6
CONTINUOUS
 62
     7
 10
2311.5414950633271
 20
132.2057800177534
 30
0.0
 11
2311.5414950633271
 21
114.1494506929325
 31
0.0
  0
LINE
  5
26BE
  8
0
  6
DASHED
 62
     3
 10
2340.0414950633271
 20
130.2057800177532
 30
0.0
 11
2331.0414950633281
 21
130.2057800177532
 31
0.0
  0
LINE
  5
26BF
  8
0
  6
DASHED
 62
     3
 10
2340.0414950633271
 20
116.2057800177533
 30
0.0
 11
2331.0414950633281
 21
116.2057800177535
 31
0.0
  0
LINE
  5
26C0
  8
0
  6
DASHED
 62
     3
 10
2331.0414950633281
 20
130.2057800177532
 30
0.0
 11
2331.0414950633281
 21
116.2057800177535
 31
0.0
  0
LINE
  5
26C1
  8
0
  6
CONTINUOUS
 62
     7
 10
2380.0414950633271
 20
132.2057800177534
 30
0.0
 11
2380.0414950633271
 21
54.205780017753533
 31
0.0
  0
LINE
  5
26C2
  8
0
  6
CONTINUOUS
 62
     7
 10
2400.0414950633271
 20
132.2057800177534
 30
0.0
 11
2400.0414950633271
 21
54.205780017753533
 31
0.0
  0
LINE
  5
26C3
  8
CENTER
  6
CENTER
 62
     1
 10
2390.0414950633271
 20
135.20578001775331
 30
0.0
 11
2390.0414950633271
 21
53.20578001775349
 31
0.0
  0
LINE
  5
26C4
  8
0
  6
CONTINUOUS
 62
     7
 10
2360.0414950633271
 20
64.205780017753611
 30
0.0
 11
2360.0414950633271
 21
54.205780017753533
 31
0.0
  0
LINE
  5
26C5
  8
0
  6
DASHED
 62
     3
 10
2354.5414950633271
 20
64.205780017753568
 30
0.0
 11
2354.5414950633271
 21
54.205780017753447
 31
0.0
  0
LINE
  5
26C6
  8
0
  6
CONTINUOUS
 62
     7
 10
2380.0414950633271
 20
54.205780017753533
 30
0.0
 11
2400.0414950633271
 21
54.205780017753533
 31
0.0
  0
LINE
  5
26C7
  8
0
  6
CONTINUOUS
 62
     7
 10
2380.0414950633271
 20
64.205780017753526
 30
0.0
 11
2400.0414950633271
 21
64.205780017753526
 31
0.0
  0
LINE
  5
26C8
  8
0
  6
DASHED
 62
     3
 10
2400.0414950633271
 20
74.205780017753568
 30
0.0
 11
2380.0414950633271
 21
74.205780017753511
 31
0.0
  0
LINE
  5
26C9
  8
0
  6
DASHED
 62
     3
 10
2394.5414950633271
 20
64.205780017753526
 30
0.0
 11
2394.5414950633271
 21
54.205780017753447
 31
0.0
  0
LINE
  5
26CA
  8
0
  6
DASHED
 62
     3
 10
2385.5414950633271
 20
64.205780017753526
 30
0.0
 11
2385.5414950633271
 21
54.205780017753447
 31
0.0
  0
LINE
  5
26CB
  8
CENTER
  6
CENTER
 62
     1
 10
2402.0414950633271
 20
94.205780017753426
 30
0.0
 11
2378.0414950633271
 21
94.205780017753426
 31
0.0
  0
LINE
  5
26CC
  8
0
  6
CONTINUOUS
 62
     7
 10
2400.0414950633271
 20
132.2057800177534
 30
0.0
 11
2380.0414950633271
 21
132.2057800177534
 31
0.0
  0
CIRCLE
  5
26CD
  8
0
  6
CONTINUOUS
 62
     7
 10
2390.0414950633271
 20
123.2057800177534
 30
0.0
 40
7.0
  0
LINE
  5
26CE
  8
0
  6
DASHED
 62
     3
 10
2400.0414950633271
 20
114.2057800177534
 30
0.0
 11
2380.0414950633271
 21
114.2057800177534
 31
0.0
  0
LINE
  5
26CF
  8
CENTER
  6
CENTER
 62
     1
 10
2402.0414950633271
 20
123.2057800177534
 30
0.0
 11
2378.0414950633271
 21
123.2057800177534
 31
0.0
  0
CIRCLE
  5
26D0
  8
0
  6
CONTINUOUS
 62
     7
 10
2390.0414950633271
 20
123.2057800177534
 30
0.0
 40
4.5
  0
CIRCLE
  5
26D1
  8
0
  6
CONTINUOUS
 62
     3
 10
2390.0414950633271
 20
123.2057800177534
 30
0.0
 40
4.0
  0
CIRCLE
  5
26D2
  8
0
  6
CONTINUOUS
 62
     7
 10
2390.0414950633271
 20
123.2057800177534
 30
0.0
 40
3.2000000000000002
  0
ENDSEC
  0
EOF
