  0
SECTION
  2
HEADER
  9
$ACADVER
  1
AC1009
  9
$INSBASE
 10
0.0
 20
0.0
 30
0.0
  9
$EXTMIN
 10
79.932953665420541
 20
62.846832837498368
 30
-0.0015258207003583
  9
$EXTMAX
 10
233.10983338080101
 20
125.5078128905825
 30
0.0000000349246037
  9
$LIMMIN
 10
0.0
 20
0.0
  9
$LIMMAX
 10
297.0
 20
210.0
  9
$ORTHOMODE
 70
     0
  9
$REGENMODE
 70
     1
  9
$FILLMODE
 70
     1
  9
$QTEXTMODE
 70
     0
  9
$MIRRTEXT
 70
     0
  9
$DRAGMODE
 70
     2
  9
$LTSCALE
 40
1.0
  9
$OSMODE
 70
    53
  9
$ATTMODE
 70
     1
  9
$TEXTSIZE
 40
6.4000000000000012
  9
$TRACEWID
 40
0.05
  9
$TEXTSTYLE
  7
STANDARD
  9
$CLAYER
  8
0
  9
$CELTYPE
  6
CONTINUOUS
  9
$CECOLOR
 62
     2
  9
$DIMSCALE
 40
1.0
  9
$DIMASZ
 40
2.0
  9
$DIMEXO
 40
1.0
  9
$DIMDLI
 40
0.0
  9
$DIMRND
 40
0.0
  9
$DIMDLE
 40
0.0
  9
$DIMEXE
 40
1.0
  9
$DIMTP
 40
0.0
  9
$DIMTM
 40
0.0
  9
$DIMTXT
 40
2.5
  9
$DIMCEN
 40
0.0
  9
$DIMTSZ
 40
0.0
  9
$DIMTOL
 70
     0
  9
$DIMLIM
 70
     0
  9
$DIMTIH
 70
     0
  9
$DIMTOH
 70
     0
  9
$DIMSE1
 70
     0
  9
$DIMSE2
 70
     0
  9
$DIMTAD
 70
     1
  9
$DIMZIN
 70
     8
  9
$DIMBLK
  1

  9
$DIMASO
 70
     1
  9
$DIMSHO
 70
     1
  9
$DIMPOST
  1

  9
$DIMAPOST
  1

  9
$DIMALT
 70
     0
  9
$DIMALTD
 70
     2
  9
$DIMALTF
 40
0.04
  9
$DIMLFAC
 40
1.0
  9
$DIMTOFL
 70
     1
  9
$DIMTVP
 40
1.0
  9
$DIMTIX
 70
     1
  9
$DIMSOXD
 70
     0
  9
$DIMSAH
 70
     0
  9
$DIMBLK1
  1

  9
$DIMBLK2
  1

  9
$DIMSTYLE
  2
MISUMI
  9
$DIMCLRD
 70
     0
  9
$DIMCLRE
 70
     0
  9
$DIMCLRT
 70
     0
  9
$DIMTFAC
 40
0.6
  9
$DIMGAP
 40
1.0
  9
$LUNITS
 70
     2
  9
$LUPREC
 70
     4
  9
$SKETCHINC
 40
0.1
  9
$FILLETRAD
 40
0.0
  9
$AUNITS
 70
     0
  9
$AUPREC
 70
     0
  9
$MENU
  1
acad
  9
$ELEVATION
 40
0.0
  9
$PELEVATION
 40
0.0
  9
$THICKNESS
 40
0.0
  9
$LIMCHECK
 70
     0
  9
$BLIPMODE
 70
     0
  9
$CHAMFERA
 40
0.5
  9
$CHAMFERB
 40
0.5
  9
$SKPOLY
 70
     0
  9
$TDCREATE
 40
2451464.6006649309
  9
$TDUPDATE
 40
2454134.7176825809
  9
$TDINDWG
 40
0.5998268287
  9
$TDUSRTIMER
 40
0.5998255208
  9
$USRTIMER
 70
     1
  9
$ANGBASE
 50
0.0
  9
$ANGDIR
 70
     0
  9
$PDMODE
 70
     0
  9
$PDSIZE
 40
0.0
  9
$PLINEWID
 40
0.0
  9
$COORDS
 70
     1
  9
$SPLFRAME
 70
     0
  9
$SPLINETYPE
 70
     6
  9
$SPLINESEGS
 70
     8
  9
$ATTDIA
 70
     0
  9
$ATTREQ
 70
     1
  9
$HANDLING
 70
     1
  9
$HANDSEED
  5
2150
  9
$SURFTAB1
 70
     6
  9
$SURFTAB2
 70
     6
  9
$SURFTYPE
 70
     6
  9
$SURFU
 70
     6
  9
$SURFV
 70
     6
  9
$UCSNAME
  2

  9
$UCSORG
 10
0.0
 20
0.0
 30
0.0
  9
$UCSXDIR
 10
1.0
 20
0.0
 30
0.0
  9
$UCSYDIR
 10
0.0
 20
1.0
 30
0.0
  9
$PUCSNAME
  2

  9
$PUCSORG
 10
0.0
 20
0.0
 30
0.0
  9
$PUCSXDIR
 10
1.0
 20
0.0
 30
0.0
  9
$PUCSYDIR
 10
0.0
 20
1.0
 30
0.0
  9
$USERI1
 70
     0
  9
$USERI2
 70
     0
  9
$USERI3
 70
     0
  9
$USERI4
 70
     0
  9
$USERI5
 70
     0
  9
$USERR1
 40
0.0
  9
$USERR2
 40
0.0
  9
$USERR3
 40
0.0
  9
$USERR4
 40
0.0
  9
$USERR5
 40
0.0
  9
$WORLDVIEW
 70
     1
  9
$SHADEDGE
 70
     3
  9
$SHADEDIF
 70
    70
  9
$TILEMODE
 70
     1
  9
$MAXACTVP
 70
    16
  9
$PLIMCHECK
 70
     0
  9
$PEXTMIN
 10
1.0000000000000000E+020
 20
1.0000000000000000E+020
 30
1.0000000000000000E+020
  9
$PEXTMAX
 10
-1.0000000000000000E+020
 20
-1.0000000000000000E+020
 30
-1.0000000000000000E+020
  9
$PLIMMIN
 10
0.0
 20
0.0
  9
$PLIMMAX
 10
12.0
 20
9.0
  9
$UNITMODE
 70
     0
  9
$VISRETAIN
 70
     0
  9
$PLINEGEN
 70
     0
  9
$PSLTSCALE
 70
     1
  0
ENDSEC
  0
SECTION
  2
TABLES
  0
TABLE
  2
VPORT
 70
     2
  0
VPORT
  2
*ACTIVE
 70
     0
 10
0.0
 20
0.0
 11
1.0
 21
1.0
 12
156.5213935231107
 22
94.177322864040434
 13
0.0
 23
0.0
 14
10.0
 24
10.0
 15
10.0
 25
10.0
 16
0.0
 26
0.0
 36
1.0
 17
0.0
 27
0.0
 37
0.0
 40
90.678862326781953
 41
1.6976090014064691
 42
50.0
 43
0.0
 44
0.0
 50
0.0
 51
0.0
 71
     0
 72
 20000
 73
     1
 74
     0
 75
     0
 76
     0
 77
     0
 78
     0
  0
ENDTAB
  0
TABLE
  2
LTYPE
 70
     3
  0
LTYPE
  2
CONTINUOUS
 70
     0
  3
Solid line
 72
    65
 73
     0
 40
0.0
  0
LTYPE
  2
CENTER
 70
     0
  3
Center ____ _ ____ _ ____ _ ____ _ ____ _ ____
 72
    65
 73
     4
 40
2.0
 49
1.25
 49
-0.25
 49
0.25
 49
-0.25
  0
LTYPE
  2
DASHED
 70
     0
  3
Dashed __ __ __ __ __ __ __ __ __ __ __ __ __ _
 72
    65
 73
     2
 40
0.75
 49
0.5
 49
-0.25
  0
ENDTAB
  0
TABLE
  2
LAYER
 70
     4
  0
LAYER
  2
0
 70
     0
 62
     7
  6
CONTINUOUS
  0
LAYER
  2
CENTER
 70
     0
 62
     1
  6
CENTER
  0
LAYER
  2
DEFPOINTS
 70
     0
 62
     7
  6
CONTINUOUS
  0
ENDTAB
  0
TABLE
  2
STYLE
 70
     1
  0
STYLE
  2
STANDARD
 70
     0
 40
0.0
 41
1.0
 50
0.0
 71
     0
 42
6.4000000000000012
  3
txt.shx
  4
bigfont.shx
  0
ENDTAB
  0
TABLE
  2
VIEW
 70
     0
  0
ENDTAB
  0
TABLE
  2
UCS
 70
     0
  0
ENDTAB
  0
TABLE
  2
APPID
 70
     1
  0
APPID
  2
ACAD
 70
     0
  0
ENDTAB
  0
TABLE
  2
DIMSTYLE
 70
     1
  0
DIMSTYLE
  2
MISUMI
 70
     0
  3

  4

  5

  6

  7

 40
1.0
 41
2.0
 42
1.0
 43
0.0
 44
1.0
 45
0.0
 46
0.0
 47
0.0
 48
0.0
140
2.5
141
0.0
142
0.0
143
0.04
144
1.0
145
1.0
146
0.6
147
1.0
 71
     0
 72
     0
 73
     0
 74
     0
 75
     0
 76
     0
 77
     1
 78
     8
170
     0
171
     2
172
     1
173
     0
174
     1
175
     0
176
     0
177
     0
178
     0
  0
ENDTAB
  0
ENDSEC
  0
SECTION
  2
BLOCKS
  0
BLOCK
  8
0
  2
$MODEL_SPACE
 70
     0
 10
0.0
 20
0.0
 30
0.0
  3
$MODEL_SPACE
  1

  0
ENDBLK
  5
20DC
  8
0
  0
BLOCK
 67
     1
  8
0
  2
$PAPER_SPACE
 70
     0
 10
0.0
 20
0.0
 30
0.0
  3
$PAPER_SPACE
  1

  0
ENDBLK
  5
20D8
 67
     1
  8
0
  0
ENDSEC
  0
SECTION
  2
ENTITIES
  0
LINE
  5
B8B
  8
0
  6
CONTINUOUS
 62
     7
 10
99.350901207035946
 20
86.499999999999943
 30
0.0
 11
99.350901207035946
 21
123.4999999999999
 31
0.0
  0
LINE
  5
B8C
  8
0
  6
CONTINUOUS
 62
     7
 10
105.3509012070358
 20
86.499999999999943
 30
0.0
 11
105.3509012070358
 21
123.4999999999999
 31
0.0
  0
LINE
  5
B8F
  8
CENTER
  6
CENTER
 62
     1
 10
233.1060440204653
 20
104.9999999999999
 30
0.0
 11
173.1060440204653
 21
105.0
 31
0.0
  0
LINE
  5
B91
  8
CENTER
  6
CENTER
 62
     1
 10
134.3509012070358
 20
105.0
 30
0.0
 11
97.35090120703596
 21
105.0
 31
0.0
  0
LINE
  5
B96
  8
0
  6
CONTINUOUS
 62
     7
 10
105.3509012070358
 20
86.499999999999943
 30
0.0
 11
99.350901207035946
 21
86.499999999999943
 31
0.0
  0
LINE
  5
B97
  8
CENTER
  6
CENTER
 62
     1
 10
108.3509012070358
 20
91.499999999999943
 30
0.0
 11
97.35090120703596
 21
91.499999999999943
 31
0.0
  0
LINE
  5
B98
  8
0
  6
DASHED
 62
     3
 10
105.3509012070358
 20
88.750000000000213
 30
0.0
 11
99.350901207035946
 21
88.750000000000213
 31
0.0
  0
LINE
  5
B9D
  8
CENTER
  6
CENTER
 62
     1
 10
203.1060440204653
 20
84.499999999999929
 30
0.0
 11
203.1060440204653
 21
125.4999999999999
 31
0.0
  0
LINE
  5
BAB
  8
0
  6
CONTINUOUS
 62
     7
 10
105.3509012070358
 20
123.4999999999999
 30
0.0
 11
99.350901207035946
 21
123.4999999999999
 31
0.0
  0
LINE
  5
C03
  8
0
  6
DASHED
 62
     3
 10
107.3509012070358
 20
112.9999999999999
 30
0.0
 11
131.3509012070358
 21
112.9999999999999
 31
0.0
  0
LINE
  5
C05
  8
0
  6
CONTINUOUS
 62
     7
 10
105.3509012070358
 20
87.499999999999957
 30
0.0
 11
130.75090120703581
 21
87.499999999999986
 31
0.0
  0
LINE
  5
C06
  8
CENTER
  6
CENTER
 62
     1
 10
128.42412246105769
 20
92.262260797142872
 30
0.0
 11
122.2776799530139
 21
92.262260797142872
 31
0.0
  0
LINE
  5
C07
  8
0
  6
CONTINUOUS
 62
     7
 10
106.3509012070358
 20
104.4999999999999
 30
0.0
 11
131.3509012070358
 21
104.4999999999999
 31
0.0
  0
LINE
  5
C08
  8
0
  6
CONTINUOUS
 62
     7
 10
107.3509012070358
 20
105.4999999999999
 30
0.0
 11
131.3509012070358
 21
105.4999999999999
 31
0.0
  0
LINE
  5
C0B
  8
CENTER
  6
CENTER
 62
     1
 10
130.6383689618024
 20
117.737739202857
 30
0.0
 11
120.06343345226951
 21
117.737739202857
 31
0.0
  0
LINE
  5
C0C
  8
0
  6
CONTINUOUS
 62
     7
 10
105.3509012070358
 20
96.999999999999943
 30
0.0
 11
105.3509012070358
 21
105.0
 31
0.0
  0
LINE
  5
C0D
  8
0
  6
CONTINUOUS
 62
     7
 10
105.3509012070358
 20
112.9999999999999
 30
0.0
 11
105.3509012070358
 21
105.0
 31
0.0
  0
LINE
  5
C0E
  8
0
  6
CONTINUOUS
 62
     7
 10
107.3509012070358
 20
122.4999999999999
 30
0.0
 11
107.3509012070358
 21
105.4999999999999
 31
0.0
  0
LINE
  5
C10
  8
0
  6
DASHED
 62
     3
 10
127.5444012070359
 20
92.262260797142872
 30
0.0
 11
127.5444012070359
 21
104.5000000000002
 31
0.0
  0
LINE
  5
C11
  8
0
  6
DASHED
 62
     3
 10
123.1574012070359
 20
92.262260797142872
 30
0.0
 11
123.1574012070359
 21
104.5000000000002
 31
0.0
  0
LINE
  5
C12
  8
0
  6
DASHED
 62
     3
 10
122.8509012070359
 20
92.262260797142872
 30
0.0
 11
122.8509012070359
 21
104.5000000000002
 31
0.0
  0
LINE
  5
C13
  8
0
  6
DASHED
 62
     3
 10
127.8509012070359
 20
92.262260797142872
 30
0.0
 11
127.8509012070359
 21
104.5000000000002
 31
0.0
  0
LINE
  5
C14
  8
CENTER
  6
CENTER
 62
     1
 10
125.3509012070359
 20
88.94455828827455
 30
0.0
 11
125.3509012070359
 21
122.5000000000002
 31
0.0
  0
LINE
  5
C15
  8
0
  6
CONTINUOUS
 62
     7
 10
130.75090120703581
 20
104.4999999999999
 30
0.0
 11
130.75090120703581
 21
87.499999999999986
 31
0.0
  0
LINE
  5
C16
  8
0
  6
CONTINUOUS
 62
     7
 10
131.3509012070358
 20
88.099999999999966
 30
0.0
 11
131.3509012070358
 21
104.4999999999999
 31
0.0
  0
LINE
  5
C1D
  8
0
  6
CONTINUOUS
 62
     7
 10
131.35090120703549
 20
121.9000000000003
 30
0.0
 11
131.3509012070358
 21
105.4999999999999
 31
0.0
  0
LINE
  5
C1E
  8
0
  6
CONTINUOUS
 62
     7
 10
130.75090120703581
 20
122.5
 30
0.0
 11
130.75090120703581
 21
105.4999999999999
 31
0.0
  0
LINE
  5
C1F
  8
0
  6
CONTINUOUS
 62
     7
 10
130.75090120703581
 20
122.4999999999999
 30
0.0
 11
131.35090120703549
 21
121.9000000000003
 31
0.0
  0
LINE
  5
C20
  8
0
  6
DASHED
 62
     3
 10
100.3509012070359
 20
96.999999999999943
 30
0.0
 11
131.3509012070358
 21
96.999999999999943
 31
0.0
  0
LINE
  5
C21
  8
0
  6
DASHED
 62
     3
 10
99.350901207035946
 20
112.9999999999999
 30
0.0
 11
105.3509012070358
 21
112.9999999999999
 31
0.0
  0
LINE
  5
C22
  8
0
  6
DASHED
 62
     3
 10
193.29954402046531
 20
90.505775020719355
 30
0.0
 11
193.29954402046531
 21
104.4999999999999
 31
0.0
  0
LINE
  5
C23
  8
0
  6
DASHED
 62
     3
 10
193.60604402046519
 20
90.303061543300871
 30
0.0
 11
193.6060440204653
 21
104.4999999999999
 31
0.0
  0
LINE
  5
C24
  8
0
  6
DASHED
 62
     3
 10
188.9125440204653
 20
94.763078697674516
 30
0.0
 11
188.9125440204653
 21
104.4999999999999
 31
0.0
  0
LINE
  5
C2A
  8
CENTER
  6
CENTER
 62
     1
 10
191.1060440204653
 20
90.577794898144276
 30
0.0
 11
191.10604402046519
 21
119.42220510185621
 31
0.0
  0
LINE
  5
C2D
  8
0
  6
CONTINUOUS
 62
     7
 10
220.59889970500149
 20
104.4999999999999
 30
0.0
 11
211.0904037318009
 21
104.4999999999999
 31
0.0
  0
LINE
  5
C2E
  8
0
  6
CONTINUOUS
 62
     7
 10
220.59889970500149
 20
105.4999999999999
 30
0.0
 11
211.0904037318009
 21
105.4999999999999
 31
0.0
  0
LINE
  5
C34
  8
0
  6
CONTINUOUS
 62
     7
 10
185.6131883359291
 20
105.4999999999999
 30
0.0
 11
195.12168430912959
 21
105.5
 31
0.0
  0
LINE
  5
C35
  8
0
  6
CONTINUOUS
 62
     7
 10
185.6131883359291
 20
104.4999999999999
 30
0.0
 11
195.12168430912959
 21
104.4999999999999
 31
0.0
  0
LINE
  5
C36
  8
0
  6
DASHED
 62
     3
 10
188.6060440204653
 20
95.202041028866972
 30
0.0
 11
188.6060440204653
 21
104.4999999999999
 31
0.0
  0
LINE
  5
C39
  8
0
  6
DASHED
 62
     3
 10
195.6060440204653
 20
109.9999999999999
 30
0.0
 11
195.6060440204653
 21
120.8113883008419
 31
0.0
  0
LINE
  5
C3A
  8
0
  6
DASHED
 62
     3
 10
195.6060440204653
 20
109.9999999999999
 30
0.0
 11
186.33553418921659
 21
109.9999999999999
 31
0.0
  0
LINE
  5
C47
  8
0
  6
CONTINUOUS
 62
     7
 10
130.75090120703581
 20
87.499999999999986
 30
0.0
 11
131.3509012070358
 21
88.099999999999966
 31
0.0
  0
LINE
  5
D44
  8
0
  6
CONTINUOUS
 62
     7
 10
107.3509012070358
 20
122.4999999999999
 30
0.0
 11
130.75090120703581
 21
122.4999999999999
 31
0.0
  0
ARC
  5
F0A
  8
0
  6
CONTINUOUS
 62
     7
 10
203.1060440204653
 20
105.0000000000002
 30
0.0
 40
17.500000000000281
 50
181.63724507777869
 51
358.3627549222212
  0
LINE
  5
1019
  8
0
  6
DASHED
 62
     3
 10
193.90604402046529
 20
105.4999999999999
 30
0.0
 11
193.90604402046529
 21
109.9999999999999
 31
0.0
  0
LINE
  5
101A
  8
0
  6
DASHED
 62
     3
 10
188.30604402046521
 20
105.4999999999999
 30
0.0
 11
188.30604402046521
 21
109.9999999999999
 31
0.0
  0
LINE
  5
101C
  8
0
  6
DASHED
 62
     3
 10
128.15090120703599
 20
105.5000000000001
 30
0.0
 11
128.15090120703599
 21
110.8224652674685
 31
0.0
  0
LINE
  5
101D
  8
0
  6
DASHED
 62
     3
 10
122.55090120703591
 20
105.5000000000001
 30
0.0
 11
122.55090120703591
 21
110.8224652674685
 31
0.0
  0
ARC
  5
14BF
  8
0
  6
CONTINUOUS
 62
     3
 10
125.350901207036
 20
92.877700569033351
 30
0.0
 40
2.5746390257325
 50
193.82984284235309
 51
346.17015715764671
  0
ARC
  5
14C0
  8
0
  6
CONTINUOUS
 62
     7
 10
125.3509012070359
 20
92.753639660095189
 30
0.0
 40
2.2478646393758299
 50
192.62670401166741
 51
347.37329598833247
  0
ARC
  5
14C4
  8
0
  6
CONTINUOUS
 62
     3
 10
125.3509012070359
 20
92.669146282156277
 30
0.0
 40
2.5328947467106899
 50
350.75592477672438
 51
189.24407522327539
  0
ARC
  5
14C5
  8
0
  6
CONTINUOUS
 62
     7
 10
125.350901207036
 20
92.550696016938915
 30
0.0
 40
2.2123826807355842
 50
352.50884631929762
 51
187.49115368070679
  0
ARC
  5
1513
  8
0
  6
CONTINUOUS
 62
     7
 10
125.3509012070359
 20
115.9804336552687
 30
0.0
 40
4.830954645573116
 50
21.331258881577089
 51
158.66874111842279
  0
ARC
  5
1514
  8
0
  6
CONTINUOUS
 62
     7
 10
125.3509012070359
 20
115.1773913459015
 30
0.0
 40
5.1773913459015581
 50
150.36158717346191
 51
29.638412826537628
  0
ARC
  5
17AF
  8
0
  6
CONTINUOUS
 62
     7
 10
203.10604402046559
 20
104.9999999999999
 30
0.0
 40
28.000000000000242
 50
318.64562894649288
 51
41.35437105350703
  0
ARC
  5
17B1
  8
0
  6
CONTINUOUS
 62
     7
 10
203.1060440204653
 20
105.0000000000002
 30
0.0
 40
16.900000000000279
 50
181.69538880155909
 51
358.30461119844108
  0
ARC
  5
17B3
  8
0
  6
CONTINUOUS
 62
     7
 10
203.1060440204653
 20
105.0
 30
0.0
 40
8.0
 50
183.58332169847199
 51
356.41667830152812
  0
ARC
  5
17B4
  8
0
  6
CONTINUOUS
 62
     7
 10
203.1060440204653
 20
105.0
 30
0.0
 40
8.0
 50
3.5833216984720742
 51
176.41667830152801
  0
ARC
  5
17E6
  8
0
  6
CONTINUOUS
 62
     7
 10
203.1060440204653
 20
104.9999999999997
 30
0.0
 40
16.900000000000279
 50
1.6953888015590819
 51
178.3046111984408
  0
ARC
  5
17E7
  8
0
  6
CONTINUOUS
 62
     7
 10
203.1060440204653
 20
104.9999999999997
 30
0.0
 40
17.500000000000281
 50
1.637245077778668
 51
178.36275492222131
  0
CIRCLE
  5
182B
  8
0
  6
CONTINUOUS
 62
     7
 10
184.6060440204653
 20
118.4999999999999
 30
0.0
 40
2.75
  0
LINE
  5
1842
  8
0
  6
DASHED
 62
     3
 10
105.3509012070358
 20
94.249999999999659
 30
0.0
 11
99.350901207035946
 21
94.249999999999659
 31
0.0
  0
LINE
  5
1870
  8
0
  6
DASHED
 62
     3
 10
105.3509012070358
 20
115.7500000000002
 30
0.0
 11
99.350901207035946
 21
115.7500000000002
 31
0.0
  0
LINE
  5
1871
  8
0
  6
DASHED
 62
     3
 10
105.3509012070358
 20
121.2499999999996
 30
0.0
 11
99.350901207035946
 21
121.2499999999996
 31
0.0
  0
LINE
  5
1872
  8
CENTER
  6
CENTER
 62
     1
 10
108.3509012070358
 20
118.4999999999999
 30
0.0
 11
97.35090120703596
 21
118.4999999999999
 31
0.0
  0
LINE
  5
18AF
  8
CENTER
  6
CENTER
 62
     1
 10
215.1060440204653
 20
90.577794898144276
 30
0.0
 11
215.1060440204653
 21
119.42220510185621
 31
0.0
  0
LINE
  5
18B0
  8
0
  6
DASHED
 62
     3
 10
212.6060440204653
 20
90.303061543300871
 30
0.0
 11
212.6060440204653
 21
104.4999999999999
 31
0.0
  0
LINE
  5
18B1
  8
0
  6
DASHED
 62
     3
 10
212.9125440204653
 20
90.505775020719355
 30
0.0
 11
212.9125440204653
 21
104.4999999999999
 31
0.0
  0
LINE
  5
18B3
  8
0
  6
DASHED
 62
     3
 10
217.6060440204653
 20
95.202041028866972
 30
0.0
 11
217.6060440204653
 21
104.4999999999999
 31
0.0
  0
LINE
  5
18B4
  8
0
  6
DASHED
 62
     3
 10
217.29954402046531
 20
94.763078697674516
 30
0.0
 11
217.29954402046531
 21
104.4999999999999
 31
0.0
  0
LINE
  5
18B6
  8
0
  6
DASHED
 62
     3
 10
210.6060440204653
 20
109.9999999999999
 30
0.0
 11
210.6060440204653
 21
120.8113883008419
 31
0.0
  0
LINE
  5
18B8
  8
0
  6
DASHED
 62
     3
 10
217.90604402046529
 20
105.4999999999999
 30
0.0
 11
217.90604402046529
 21
109.9999999999999
 31
0.0
  0
LINE
  5
18B9
  8
0
  6
DASHED
 62
     3
 10
212.30604402046529
 20
105.4999999999999
 30
0.0
 11
212.30604402046529
 21
109.9999999999999
 31
0.0
  0
LINE
  5
18BA
  8
0
  6
DASHED
 62
     3
 10
210.6060440204653
 20
109.9999999999999
 30
0.0
 11
219.87655385171399
 21
109.9999999999999
 31
0.0
  0
ARC
  5
1943
  8
0
  6
CONTINUOUS
 62
     7
 10
113.35090120703531
 20
92.550696016938915
 30
0.0
 40
2.2123826807355842
 50
352.5088463192933
 51
187.49115368070241
  0
ARC
  5
1944
  8
0
  6
CONTINUOUS
 62
     3
 10
113.35090120703541
 20
92.669146282156277
 30
0.0
 40
2.5328947467106899
 50
350.75592477672461
 51
189.24407522327559
  0
ARC
  5
1945
  8
0
  6
CONTINUOUS
 62
     7
 10
113.35090120703541
 20
92.753639660095189
 30
0.0
 40
2.2478646393758299
 50
192.6267040116675
 51
347.37329598833259
  0
ARC
  5
1946
  8
0
  6
CONTINUOUS
 62
     3
 10
113.35090120703531
 20
92.877700569033351
 30
0.0
 40
2.5746390257325
 50
193.8298428423534
 51
346.17015715764688
  0
LINE
  5
1947
  8
CENTER
  6
CENTER
 62
     1
 10
113.35090120703531
 20
88.94455828827455
 30
0.0
 11
113.35090120703531
 21
122.5000000000002
 31
0.0
  0
LINE
  5
1948
  8
0
  6
DASHED
 62
     3
 10
110.85090120703541
 20
92.262260797142872
 30
0.0
 11
110.85090120703541
 21
104.5000000000002
 31
0.0
  0
LINE
  5
1949
  8
0
  6
DASHED
 62
     3
 10
115.85090120703541
 20
92.262260797142872
 30
0.0
 11
115.85090120703541
 21
104.5000000000002
 31
0.0
  0
LINE
  5
194A
  8
0
  6
DASHED
 62
     3
 10
115.54440120703531
 20
92.262260797142872
 30
0.0
 11
115.54440120703531
 21
104.5000000000002
 31
0.0
  0
LINE
  5
194B
  8
0
  6
DASHED
 62
     3
 10
111.15740120703541
 20
92.262260797142872
 30
0.0
 11
111.15740120703541
 21
104.5000000000002
 31
0.0
  0
LINE
  5
194C
  8
CENTER
  6
CENTER
 62
     1
 10
110.2776799530136
 20
92.262260797142872
 30
0.0
 11
116.42412246105739
 21
92.262260797142872
 31
0.0
  0
ARC
  5
194D
  8
0
  6
CONTINUOUS
 62
     7
 10
113.35090120703541
 20
115.1773913459015
 30
0.0
 40
5.1773913459015581
 50
150.3615871734624
 51
29.638412826538129
  0
LINE
  5
194E
  8
0
  6
DASHED
 62
     3
 10
116.1509012070354
 20
105.5000000000001
 30
0.0
 11
116.1509012070354
 21
110.8224652674685
 31
0.0
  0
LINE
  5
194F
  8
0
  6
DASHED
 62
     3
 10
110.5509012070353
 20
105.5000000000001
 30
0.0
 11
110.5509012070353
 21
110.8224652674685
 31
0.0
  0
ARC
  5
1950
  8
0
  6
CONTINUOUS
 62
     7
 10
113.35090120703541
 20
115.9804336552687
 30
0.0
 40
4.830954645573116
 50
21.331258881577181
 51
158.6687411184229
  0
LINE
  5
1951
  8
CENTER
  6
CENTER
 62
     1
 10
108.0634334522689
 20
117.737739202857
 30
0.0
 11
118.6383689618018
 21
117.737739202857
 31
0.0
  0
LINE
  5
19CF
  8
0
  6
CONTINUOUS
 62
     7
 10
224.12389357744959
 20
86.499999999999943
 30
0.0
 11
182.08819446348139
 21
86.499999999999943
 31
0.0
  0
LINE
  5
19D0
  8
0
  6
CONTINUOUS
 62
     7
 10
224.12389357744959
 20
123.4999999999999
 30
0.0
 11
182.08819446348139
 21
123.4999999999999
 31
0.0
  0
ARC
  5
19D1
  8
0
  6
CONTINUOUS
 62
     7
 10
203.10604402046559
 20
104.9999999999999
 30
0.0
 40
28.000000000000242
 50
138.64562894649291
 51
221.35437105350709
  0
LINE
  5
19EA
  8
CENTER
  6
CENTER
 62
     1
 10
188.3560440204653
 20
118.4999999999999
 30
0.0
 11
180.8560440204653
 21
118.4999999999999
 31
0.0
  0
LINE
  5
19EB
  8
CENTER
  6
CENTER
 62
     1
 10
184.60604402046519
 20
114.7499999999999
 30
0.0
 11
184.60604402046519
 21
122.2499999999999
 31
0.0
  0
LINE
  5
19ED
  8
CENTER
  6
CENTER
 62
     1
 10
184.60604402046519
 20
95.249999999999943
 30
0.0
 11
184.60604402046519
 21
87.749999999999943
 31
0.0
  0
LINE
  5
19EE
  8
CENTER
  6
CENTER
 62
     1
 10
188.3560440204653
 20
91.499999999999943
 30
0.0
 11
180.8560440204653
 21
91.499999999999943
 31
0.0
  0
CIRCLE
  5
19EF
  8
0
  6
CONTINUOUS
 62
     7
 10
184.6060440204653
 20
91.499999999999943
 30
0.0
 40
2.75
  0
LINE
  5
19F0
  8
CENTER
  6
CENTER
 62
     1
 10
221.6060440204653
 20
114.7499999999999
 30
0.0
 11
221.6060440204653
 21
122.2499999999999
 31
0.0
  0
LINE
  5
19F1
  8
CENTER
  6
CENTER
 62
     1
 10
217.8560440204653
 20
118.4999999999999
 30
0.0
 11
225.3560440204653
 21
118.4999999999999
 31
0.0
  0
CIRCLE
  5
19F2
  8
0
  6
CONTINUOUS
 62
     7
 10
221.6060440204653
 20
118.4999999999999
 30
0.0
 40
2.75
  0
CIRCLE
  5
19F3
  8
0
  6
CONTINUOUS
 62
     7
 10
221.6060440204653
 20
91.499999999999943
 30
0.0
 40
2.75
  0
LINE
  5
19F4
  8
CENTER
  6
CENTER
 62
     1
 10
217.8560440204653
 20
91.499999999999943
 30
0.0
 11
225.3560440204653
 21
91.499999999999943
 31
0.0
  0
LINE
  5
19F5
  8
CENTER
  6
CENTER
 62
     1
 10
221.6060440204653
 20
95.249999999999943
 30
0.0
 11
221.6060440204653
 21
87.749999999999943
 31
0.0
  0
TEXT
  5
1A8E
  8
0
  6
CONTINUOUS
 62
     7
 10
79.951382259657962
 20
67.858654284717986
 30
0.0
 40
3.0
  1
STHPC 16
 11
79.951382259657962
 21
69.358654284717986
 31
0.0
 73
     2
  0
TEXT
  5
1A8F
  8
0
  6
CONTINUOUS
 62
     7
 10
79.951382259657962
 20
62.858654284717979
 30
0.0
 40
3.0
  1
STHPC16
 11
79.951382259657962
 21
64.358654284717986
 31
0.0
 73
     2
  0
LINE
  5
1C2A
  8
0
  6
CONTINUOUS
 62
     7
 10
106.3509012070358
 20
122.4999999999999
 30
0.0
 11
106.3509012070358
 21
104.4999999999999
 31
0.0
  0
LINE
  5
1C2B
  8
0
  6
CONTINUOUS
 62
     7
 10
106.3509012070358
 20
122.4999999999999
 30
0.0
 11
105.3509012070358
 21
122.4999999999999
 31
0.0
  0
ENDSEC
  0
EOF
