  0
SECTION
  2
HEADER
  9
$ACADVER
  1
AC1009
  9
$INSBASE
 10
0.0
 20
0.0
 30
0.0
  9
$EXTMIN
 10
-1.5128621778135309
 20
-8.0093071512054621
 30
-0.7000213606748975
  9
$EXTMAX
 10
82.001198402840146
 20
68.501312699985306
 30
0.0000213639345272
  9
$LIMMIN
 10
0.0
 20
0.0
  9
$LIMMAX
 10
420.0
 20
297.0
  9
$ORTHOMODE
 70
     0
  9
$REGENMODE
 70
     1
  9
$FILLMODE
 70
     1
  9
$QTEXTMODE
 70
     0
  9
$MIRRTEXT
 70
     0
  9
$DRAGMODE
 70
     2
  9
$LTSCALE
 40
0.5
  9
$OSMODE
 70
   511
  9
$ATTMODE
 70
     1
  9
$TEXTSIZE
 40
3.0
  9
$TRACEWID
 40
1.0
  9
$TEXTSTYLE
  7
STANDARD
  9
$CLAYER
  8
MSM_CONTINUOUS
  9
$CELTYPE
  6
BYLAYER
  9
$CECOLOR
 62
   256
  9
$DIMSCALE
 40
1.0
  9
$DIMASZ
 40
2.5
  9
$DIMEXO
 40
0.625
  9
$DIMDLI
 40
3.75
  9
$DIMRND
 40
0.0
  9
$DIMDLE
 40
0.0
  9
$DIMEXE
 40
1.25
  9
$DIMTP
 40
0.0
  9
$DIMTM
 40
0.0
  9
$DIMTXT
 40
3.0
  9
$DIMCEN
 40
2.5
  9
$DIMTSZ
 40
0.0
  9
$DIMTOL
 70
     0
  9
$DIMLIM
 70
     0
  9
$DIMTIH
 70
     0
  9
$DIMTOH
 70
     0
  9
$DIMSE1
 70
     0
  9
$DIMSE2
 70
     0
  9
$DIMTAD
 70
     1
  9
$DIMZIN
 70
     8
  9
$DIMBLK
  1
OPEN30
  9
$DIMASO
 70
     1
  9
$DIMSHO
 70
     1
  9
$DIMPOST
  1

  9
$DIMAPOST
  1

  9
$DIMALT
 70
     0
  9
$DIMALTD
 70
     3
  9
$DIMALTF
 40
0.03937007874016
  9
$DIMLFAC
 40
1.0
  9
$DIMTOFL
 70
     1
  9
$DIMTVP
 40
0.0
  9
$DIMTIX
 70
     0
  9
$DIMSOXD
 70
     0
  9
$DIMSAH
 70
     0
  9
$DIMBLK1
  1

  9
$DIMBLK2
  1

  9
$DIMSTYLE
  2
MISUMI
  9
$DIMCLRD
 70
   256
  9
$DIMCLRE
 70
   256
  9
$DIMCLRT
 70
   256
  9
$DIMTFAC
 40
1.0
  9
$DIMGAP
 40
0.625
  9
$LUNITS
 70
     2
  9
$LUPREC
 70
     2
  9
$SKETCHINC
 40
1.0
  9
$FILLETRAD
 40
0.0
  9
$AUNITS
 70
     0
  9
$AUPREC
 70
     0
  9
$MENU
  1
.
  9
$ELEVATION
 40
0.0
  9
$PELEVATION
 40
0.0
  9
$THICKNESS
 40
0.0
  9
$LIMCHECK
 70
     0
  9
$BLIPMODE
 70
     0
  9
$CHAMFERA
 40
0.5
  9
$CHAMFERB
 40
0.5
  9
$SKPOLY
 70
     0
  9
$TDCREATE
 40
2455135.5720697111
  9
$TDUPDATE
 40
2457676.5656843749
  9
$TDINDWG
 40
0.7210421181
  9
$TDUSRTIMER
 40
2457631.4003012618
  9
$USRTIMER
 70
     1
  9
$ANGBASE
 50
0.0
  9
$ANGDIR
 70
     0
  9
$PDMODE
 70
    35
  9
$PDSIZE
 40
0.0
  9
$PLINEWID
 40
0.0
  9
$COORDS
 70
     1
  9
$SPLFRAME
 70
     0
  9
$SPLINETYPE
 70
     6
  9
$SPLINESEGS
 70
     8
  9
$ATTDIA
 70
     1
  9
$ATTREQ
 70
     1
  9
$HANDLING
 70
     1
  9
$HANDSEED
  5
E775
  9
$SURFTAB1
 70
     6
  9
$SURFTAB2
 70
     6
  9
$SURFTYPE
 70
     6
  9
$SURFU
 70
     6
  9
$SURFV
 70
     6
  9
$UCSNAME
  2

  9
$UCSORG
 10
0.0
 20
0.0
 30
0.0
  9
$UCSXDIR
 10
1.0
 20
0.0
 30
0.0
  9
$UCSYDIR
 10
0.0
 20
1.0
 30
0.0
  9
$PUCSNAME
  2

  9
$PUCSORG
 10
0.0
 20
0.0
 30
0.0
  9
$PUCSXDIR
 10
1.0
 20
0.0
 30
0.0
  9
$PUCSYDIR
 10
0.0
 20
1.0
 30
0.0
  9
$USERI1
 70
     0
  9
$USERI2
 70
     0
  9
$USERI3
 70
     0
  9
$USERI4
 70
     0
  9
$USERI5
 70
     0
  9
$USERR1
 40
0.0
  9
$USERR2
 40
0.0
  9
$USERR3
 40
0.0
  9
$USERR4
 40
0.0
  9
$USERR5
 40
0.0
  9
$WORLDVIEW
 70
     1
  9
$SHADEDGE
 70
     3
  9
$SHADEDIF
 70
    70
  9
$TILEMODE
 70
     1
  9
$MAXACTVP
 70
    64
  9
$PLIMCHECK
 70
     0
  9
$PEXTMIN
 10
0.0
 20
0.0
 30
0.0
  9
$PEXTMAX
 10
0.0
 20
0.0
 30
0.0
  9
$PLIMMIN
 10
0.0
 20
0.0
  9
$PLIMMAX
 10
12.0
 20
9.0
  9
$UNITMODE
 70
     0
  9
$VISRETAIN
 70
     1
  9
$PLINEGEN
 70
     0
  9
$PSLTSCALE
 70
     1
  0
ENDSEC
  0
SECTION
  2
TABLES
  0
TABLE
  2
VPORT
 70
     1
  0
VPORT
  2
*ACTIVE
 70
     0
 10
0.0
 20
0.0
 11
1.0
 21
1.0
 12
40.2441681125133
 22
30.246002774389918
 13
0.0
 23
0.0
 14
10.0
 24
10.0
 15
10.0
 25
10.0
 16
0.0
 26
0.0
 36
1.0
 17
0.0
 27
0.0
 37
0.0
 40
77.198871304125021
 41
2.477477477477477
 42
50.0
 43
0.0
 44
0.0
 50
0.0
 51
0.0
 71
    16
 72
  1000
 73
     1
 74
     3
 75
     0
 76
     0
 77
     0
 78
     0
  0
ENDTAB
  0
TABLE
  2
LTYPE
 70
     2
  0
LTYPE
  2
CONTINUOUS
 70
     0
  3
Solid line
 72
    65
 73
     0
 40
0.0
  0
LTYPE
  2
CENTER
 70
     0
  3
Center ____ _ ____ _ ____ _ ____ _ ____ _ ____
 72
    65
 73
     4
 40
50.799999999999997
 49
31.75
 49
-6.3499999999999988
 49
6.3499999999999988
 49
-6.3499999999999988
  0
ENDTAB
  0
TABLE
  2
LAYER
 70
     7
  0
LAYER
  2
0
 70
     0
 62
     7
  6
CONTINUOUS
  0
LAYER
  2
MSM_CENTER
 70
     0
 62
     1
  6
CENTER
  0
LAYER
  2
MSM_CONTINUOUS
 70
     0
 62
     7
  6
CONTINUOUS
  0
LAYER
  2
MSM_NARROW
 70
     0
 62
     5
  6
CONTINUOUS
  0
LAYER
  2
MSM_PART_NUMBER
 70
     0
 62
     7
  6
CONTINUOUS
  0
ENDTAB
  0
TABLE
  2
STYLE
 70
     1
  0
STYLE
  2
STANDARD
 70
     0
 40
3.0
 41
1.0
 50
0.0
 71
     0
 42
3.0
  3
txt.shx
  4
bigfont.shx
  0
ENDTAB
  0
TABLE
  2
VIEW
 70
     0
  0
ENDTAB
  0
TABLE
  2
UCS
 70
     0
  0
ENDTAB
  0
TABLE
  2
APPID
 70
    25
  0
APPID
  2
ACAD
 70
     0
  0
APPID
  2
ACAD_MLEADERVER
 70
     0
  0
APPID
  2
ACAD_EXEMPT_FROM_CAD_STANDARDS
 70
     0
  0
APPID
  2
ACDBBLOCKREPETAG
 70
     0
  0
APPID
  2
ACAD_DSTYLE_DIMJOGGED_JOGA
 70
     0
  0
APPID
  2
ACAECLAYERSTANDARD
 70
     0
  0
APPID
  2
GENIUS_GENODEF_13
 70
     0
  0
APPID
  2
GENIUS_GENOBJ-N-FIL_13
 70
     0
  0
APPID
  2
ACAD_PSEXT
 70
     0
  0
APPID
  2
ACAD_DSTYLE_DIMRADIAL_EXTENSION
 70
     0
  0
APPID
  2
ACDBDYNAMICBLOCKTRUENAME
 70
     0
  0
APPID
  2
ACDBDYNAMICBLOCKGUID
 70
     0
  0
APPID
  2
ACDBBLOCKREPBTAG
 70
     0
  0
APPID
  2
ACAUTHENVIRON
 70
     0
  0
APPID
  2
GRADIENTCOLOR1ACI
 70
     0
  0
APPID
  2
GRADIENTCOLOR2ACI
 70
     0
  0
APPID
  2
ACAD_DSTYLE_DIMJAG
 70
     0
  0
APPID
  2
ACAD_DSTYLE_DIMTALN
 70
     0
  0
APPID
  2
ACCMTRANSPARENCY
 70
     0
  0
APPID
  2
ACAD_DSTYLE_DIMBREAK
 70
     0
  0
APPID
  2
ACAD_DSTYLE_DIMFLIPARROW_W
 70
     0
  0
APPID
  2
ACAD_DSTYLE_DIM_LINETYPE
 70
     0
  0
APPID
  2
ACAD_DSTYLE_DIM_EXT1_LINETYPE
 70
     0
  0
APPID
  2
ACAD_DSTYLE_DIM_EXT2_LINETYPE
 70
     0
  0
APPID
  2
ACAD_NAV_VCDISPLAY
 70
     0
  0
ENDTAB
  0
TABLE
  2
DIMSTYLE
 70
     1
  0
DIMSTYLE
  2
MISUMI
 70
     0
  3

  4

  5
OPEN30
  6

  7

 40
1.0
 41
2.5
 42
0.625
 43
3.75
 44
1.25
 45
0.0
 46
0.0
 47
0.0
 48
0.0
140
3.0
141
2.5
142
0.0
143
0.03937007874016
144
1.0
145
0.0
146
1.0
147
0.625
 71
     0
 72
     0
 73
     0
 74
     0
 75
     0
 76
     0
 77
     1
 78
     8
170
     0
171
     3
172
     1
173
     0
174
     0
175
     0
176
   256
177
   256
178
   256
  0
ENDTAB
  0
ENDSEC
  0
SECTION
  2
BLOCKS
  0
BLOCK
  8
0
  2
$MODEL_SPACE
 70
     0
 10
0.0
 20
0.0
 30
0.0
  3
$MODEL_SPACE
  1

  0
ENDBLK
  5
21
  8
0
  0
BLOCK
 67
     1
  8
0
  2
$PAPER_SPACE
 70
     0
 10
0.0
 20
0.0
 30
0.0
  3
$PAPER_SPACE
  1

  0
ENDBLK
  5
E71D
 67
     1
  8
0
  0
BLOCK
  8
0
 62
     7
  2
_OPEN30
 70
     0
 10
0.0
 20
0.0
 30
0.0
  3
_OPEN30
  1

  0
LINE
  5
D7
  8
0
  6
BYBLOCK
 62
     0
 10
-1.0
 20
0.26794919
 30
0.0
 11
0.0
 21
0.0
 31
0.0
  0
LINE
  5
D8
  8
0
  6
BYBLOCK
 62
     0
 10
0.0
 20
0.0
 30
0.0
 11
-1.0
 21
-0.26794919
 31
0.0
  0
LINE
  5
D9
  8
0
  6
BYBLOCK
 62
     0
 10
0.0
 20
0.0
 30
0.0
 11
-1.0
 21
0.0
 31
0.0
  0
ENDBLK
  5
DB
  8
0
 62
     7
  0
BLOCK
  8
0
  2
*U4
 70
     1
 10
0.0
 20
0.0
 30
0.0
  3
*U4
  1

  0
TEXT
  5
E760
  8
MSM_PART_NUMBER
 10
0.0
 20
-3.0
 30
0.0
 40
3.0
  1
BGCA6902ZZ
  0
ENDBLK
  5
E762
  8
0
  0
BLOCK
  8
0
  2
*U5
 70
     1
 10
0.0
 20
0.0
 30
0.0
  3
*U5
  1

  0
TEXT
  5
E764
  8
MSM_PART_NUMBER
 10
0.0
 20
-8.0
 30
0.0
 40
3.0
  1
BGCA6902
  0
ENDBLK
  5
E766
  8
0
  0
BLOCK
  8
0
  2
*U6
 70
     1
 10
0.0
 20
0.0
 30
0.0
  3
*U6
  1

  0
TEXT
  5
E768
  8
MSM_PART_NUMBER
 10
230.78420101418749
 20
4.7390233652656937
 30
0.0
 40
3.0
  1
bgca6902.dwg
  0
ENDBLK
  5
E76A
  8
0
  0
ENDSEC
  0
SECTION
  2
ENTITIES
  0
INSERT
  5
DCB4
  8
MSM_CONTINUOUS
  2
*U4
 10
0.0
 20
0.0
 30
0.0
  0
INSERT
  5
DCB5
  8
MSM_CONTINUOUS
  2
*U5
 10
0.0
 20
0.0
 30
0.0
  0
LINE
  5
E2B2
  8
MSM_CONTINUOUS
 10
12.000000000000011
 20
66.999999999999986
 30
0.0
 11
12.000000000000011
 21
10.0
 31
0.0
  0
LINE
  5
E2B4
  8
MSM_CONTINUOUS
 10
0.0
 20
66.999999999999986
 30
0.0
 11
0.0
 21
10.0
 31
0.0
  0
LINE
  5
E2B5
  8
MSM_CENTER
 10
13.5
 20
16.0
 30
0.0
 11
-1.5
 21
16.0
 31
0.0
  0
LINE
  5
E2B6
  8
MSM_CONTINUOUS
 10
0.0
 20
10.0
 30
0.0
 11
12.000000000000011
 21
10.0
 31
0.0
  0
LINE
  5
E2B8
  8
MSM_CONTINUOUS
 10
6.600000000000108
 20
18.599999999999891
 30
0.0
 11
0.0
 21
18.599999999999891
 31
0.0
  0
LINE
  5
E2B9
  8
MSM_NARROW
 10
6.600000000000108
 20
18.999999999999901
 30
0.0
 11
0.0
 21
18.999999999999901
 31
0.0
  0
LINE
  5
E2BA
  8
MSM_NARROW
 10
6.600000000000108
 20
13.00000000000016
 30
0.0
 11
0.0
 21
13.00000000000013
 31
0.0
  0
LINE
  5
E2BB
  8
MSM_CONTINUOUS
 10
6.600000000000108
 20
13.400000000000119
 30
0.0
 11
0.0
 21
13.400000000000119
 31
0.0
  0
LINE
  5
E2BC
  8
MSM_CONTINUOUS
 10
6.600000000000108
 20
20.750000000000099
 30
0.0
 11
6.600000000000108
 21
11.250000000000171
 31
0.0
  0
LINE
  5
E2BD
  8
MSM_CONTINUOUS
 10
12.00000000000011
 20
11.250000000000171
 30
0.0
 11
6.600000000000108
 21
11.250000000000171
 31
0.0
  0
LINE
  5
E2BE
  8
MSM_CONTINUOUS
 10
12.00000000000011
 20
20.750000000000099
 30
0.0
 11
6.600000000000108
 21
20.750000000000099
 31
0.0
  0
LINE
  5
E2BF
  8
MSM_CENTER
 10
-1.5
 20
38.5
 30
0.0
 11
13.5
 21
38.5
 31
0.0
  0
LINE
  5
E2C0
  8
MSM_CONTINUOUS
 10
0.0
 20
26.0
 30
0.0
 11
1.9999999999999709
 21
26.0
 31
0.0
  0
LINE
  5
E2C1
  8
MSM_CENTER
 10
13.5
 20
60.999999999999901
 30
0.0
 11
-1.5
 21
60.999999999999901
 31
0.0
  0
LINE
  5
E2C2
  8
MSM_CONTINUOUS
 10
0.0
 20
50.999999999999901
 30
0.0
 11
1.9999999999999709
 21
50.999999999999901
 31
0.0
  0
LINE
  5
E2C3
  8
MSM_CONTINUOUS
 10
0.0
 20
66.999999999999986
 30
0.0
 11
12.000000000000011
 21
66.999999999999986
 31
0.0
  0
LINE
  5
E2C5
  8
MSM_CONTINUOUS
 10
6.600000000000108
 20
63.599999999999888
 30
0.0
 11
0.0
 21
63.599999999999888
 31
0.0
  0
LINE
  5
E2C6
  8
MSM_NARROW
 10
6.600000000000108
 20
63.999999999999787
 30
0.0
 11
0.0
 21
63.999999999999901
 31
0.0
  0
LINE
  5
E2C7
  8
MSM_NARROW
 10
6.600000000000108
 20
58.000000000000099
 30
0.0
 11
0.0
 21
58.000000000000099
 31
0.0
  0
LINE
  5
E2C8
  8
MSM_CONTINUOUS
 10
6.600000000000108
 20
58.400000000000098
 30
0.0
 11
0.0
 21
58.400000000000098
 31
0.0
  0
LINE
  5
E2C9
  8
MSM_CONTINUOUS
 10
6.600000000000108
 20
65.749999999999901
 30
0.0
 11
6.600000000000108
 21
56.250000000000099
 31
0.0
  0
LINE
  5
E2CA
  8
MSM_CONTINUOUS
 10
12.00000000000011
 20
56.250000000000099
 30
0.0
 11
6.600000000000108
 21
56.250000000000099
 31
0.0
  0
LINE
  5
E2CB
  8
MSM_CONTINUOUS
 10
12.00000000000011
 20
65.749999999999901
 30
0.0
 11
6.600000000000108
 21
65.749999999999901
 31
0.0
  0
CIRCLE
  5
E2CE
  8
MSM_CONTINUOUS
 10
61.999999999999773
 20
38.5
 30
0.0
 40
7.5
  0
LINE
  5
E2CF
  8
MSM_CONTINUOUS
 10
80.499999999999574
 20
60.179483388678797
 30
0.0
 11
80.499999999999574
 21
16.820516611320901
 31
0.0
  0
LINE
  5
E2D0
  8
MSM_CONTINUOUS
 10
43.499999999999879
 20
60.179483388678797
 30
0.0
 11
43.499999999999879
 21
16.820516611320901
 31
0.0
  0
LINE
  5
E2D1
  8
MSM_CENTER
 10
61.999999999999773
 20
68.499999999999901
 30
0.0
 11
61.999999999999773
 21
8.5
 31
0.0
  0
ARC
  5
E2D2
  8
MSM_CONTINUOUS
 10
61.999999999999773
 20
38.5
 30
0.0
 40
28.5
 50
229.5245021126122
 51
310.47549788738752
  0
CIRCLE
  5
E2D3
  8
MSM_CONTINUOUS
 10
61.999999999999773
 20
16.0
 30
0.0
 40
4.75
  0
CIRCLE
  5
E2D4
  8
MSM_CONTINUOUS
 10
61.999999999999773
 20
16.0
 30
0.0
 40
2.6000000000000001
  0
CIRCLE
  5
E2D5
  8
MSM_NARROW
 10
61.999999999999773
 20
16.0
 30
0.0
 40
3.0
  0
LINE
  5
E2D7
  8
MSM_CENTER
 10
81.999999999999773
 20
38.5
 30
0.0
 11
41.999999999999979
 21
38.5
 31
0.0
  0
LINE
  5
E2D8
  8
MSM_CENTER
 10
55.749999999997669
 20
16.0
 30
0.0
 11
68.249999999997669
 21
16.0
 31
0.0
  0
ARC
  5
E2D9
  8
MSM_CONTINUOUS
 10
61.999999999999773
 20
38.5
 30
0.0
 40
28.5
 50
49.524502112611387
 51
130.47549788738749
  0
CIRCLE
  5
E2DA
  8
MSM_CONTINUOUS
 10
61.999999999997577
 20
60.999999999999901
 30
0.0
 40
4.75
  0
CIRCLE
  5
E2DB
  8
MSM_CONTINUOUS
 10
61.999999999997577
 20
60.999999999999901
 30
0.0
 40
2.6000000000000001
  0
CIRCLE
  5
E2DC
  8
MSM_NARROW
 10
61.999999999997577
 20
60.999999999999901
 30
0.0
 40
3.0
  0
LINE
  5
E2DE
  8
MSM_CENTER
 10
55.749999999997669
 20
60.999999999999901
 30
0.0
 11
68.249999999997669
 21
60.999999999999901
 31
0.0
  0
LINE
  5
E2DF
  8
MSM_CONTINUOUS
 10
2.0000000000000151
 20
24.5
 30
0.0
 11
1.999999999999899
 21
52.499999999999901
 31
0.0
  0
LINE
  5
E2E1
  8
MSM_CONTINUOUS
 10
2.981000829335883
 20
26.549015305017289
 30
0.0
 11
2.3309999999998041
 21
26.92502578476909
 31
0.0
  0
LINE
  5
E2E2
  8
MSM_CONTINUOUS
 10
3.1809999999999259
 20
26.665051538461402
 30
0.0
 11
2.5309999999998212
 21
27.040051538461299
 31
0.0
  0
CIRCLE
  5
E2E3
  8
MSM_CONTINUOUS
 10
5.4999999999998996
 20
27.749999999999901
 30
0.0
 40
1.75
  0
LINE
  5
E2E4
  8
MSM_CONTINUOUS
 10
7.8189999999998028
 20
26.665051538461402
 30
0.0
 11
8.4689999999998236
 21
27.040051538461299
 31
0.0
  0
LINE
  5
E2E5
  8
MSM_CONTINUOUS
 10
8.0189991706638892
 20
26.549015305017289
 30
0.0
 11
8.6689999999999259
 21
26.92502578476909
 31
0.0
  0
LINE
  5
E2E6
  8
MSM_CONTINUOUS
 10
4.1389261592770188
 20
26.650010000000002
 30
0.0
 11
3.3025949773718248
 21
26.650010000000002
 31
0.0
  0
LINE
  5
E2E7
  8
MSM_CONTINUOUS
 10
2.0999999999998229
 20
25.950009999999889
 30
0.0
 11
2.4599916494844218
 21
25.950009999999889
 31
0.0
  0
ARC
  5
E2E8
  8
MSM_CONTINUOUS
 10
2.0999999999998229
 20
25.850009999999902
 30
0.0
 40
0.1
 50
90.0
 51
180.0
  0
ARC
  5
E2E9
  8
MSM_CONTINUOUS
 10
2.601919943228125
 20
26.092077266394199
 30
0.0
 40
0.2
 50
135.0020173859894
 51
219.86362150757321
  0
LINE
  5
E2EA
  8
MSM_CONTINUOUS
 10
2.601995017491745
 20
26.375005017845002
 30
0.0
 11
2.4604936076285351
 21
26.233493643094
 31
0.0
  0
LINE
  5
E2EB
  8
MSM_CONTINUOUS
 10
2.4484054893837448
 20
25.963884784317901
 30
0.0
 11
2.6191741554775798
 21
25.759384036032699
 31
0.0
  0
ARC
  5
E2EC
  8
MSM_CONTINUOUS
 10
3.3025949773718248
 20
26.550009999999901
 30
0.0
 40
0.1
 50
90.0
 51
175.06527043741411
  0
LINE
  5
E2ED
  8
MSM_CONTINUOUS
 10
3.1483338376742429
 20
25.925866507944189
 30
0.0
 11
3.2029656435618672
 21
26.558612083734189
 31
0.0
  0
ARC
  5
E2EE
  8
MSM_CONTINUOUS
 10
2.848611332934325
 20
25.953989245106399
 30
0.0
 40
0.1
 50
220.04972776570989
 51
356.89833597013552
  0
LINE
  5
E2EF
  8
MSM_CONTINUOUS
 10
2.948464842864865
 20
25.948578463780098
 30
0.0
 11
2.981000829335883
 21
26.549015305017289
 31
0.0
  0
LINE
  5
E2F0
  8
MSM_CONTINUOUS
 10
2.6019817322833338
 20
26.091981732283401
 30
0.0
 11
2.772062705855233
 21
25.889644022344399
 31
0.0
  0
ARC
  5
E2F1
  8
MSM_CONTINUOUS
 10
2.8494458362442421
 20
25.951672759147101
 30
0.0
 40
0.3
 50
219.86362150757199
 51
355.06527043741409
  0
LINE
  5
E2F2
  8
MSM_CONTINUOUS
 10
3.1809999999999259
 20
26.303999999999789
 30
0.0
 11
3.1809999999999259
 21
26.665051538461402
 31
0.0
  0
LINE
  5
E2F3
  8
MSM_CONTINUOUS
 10
2.7429999999999231
 20
26.23299999999999
 30
0.0
 11
2.6019817322833338
 21
26.091981732283401
 31
0.0
  0
LINE
  5
E2F4
  8
MSM_CONTINUOUS
 10
2.601995017491745
 20
26.375005017845002
 30
0.0
 11
2.7429999999999231
 21
26.23299999999999
 31
0.0
  0
LINE
  5
E2F6
  8
MSM_CONTINUOUS
 10
3.9298433638007131
 20
26.650010000000002
 30
0.0
 11
3.9298433638007131
 21
26.650109999999898
 31
0.0
  0
ARC
  5
E2F7
  8
MSM_CONTINUOUS
 10
8.1505541637555439
 20
25.951672759147101
 30
0.0
 40
0.3
 50
184.93472956258589
 51
320.13637849242622
  0
LINE
  5
E2F8
  8
MSM_CONTINUOUS
 10
7.8189999999998028
 20
26.303999999999789
 30
0.0
 11
7.8189999999998028
 21
26.665051538461402
 31
0.0
  0
LINE
  5
E2F9
  8
MSM_CONTINUOUS
 10
7.8516661623255279
 20
25.925866507944189
 30
0.0
 11
7.7970343564379041
 21
26.558612083734189
 31
0.0
  0
ARC
  5
E2FA
  8
MSM_CONTINUOUS
 10
7.6974050226279473
 20
26.550009999999901
 30
0.0
 40
0.1
 50
4.934729562585904
 51
90.0
  0
LINE
  5
E2FB
  8
MSM_CONTINUOUS
 10
6.8610738407227236
 20
26.650010000000002
 30
0.0
 11
7.6974050226279473
 21
26.650010000000002
 31
0.0
  0
LINE
  5
E2FC
  8
MSM_CONTINUOUS
 10
8.3980049825080414
 20
26.375005017845002
 30
0.0
 11
8.2569999999998487
 21
26.23299999999999
 31
0.0
  0
LINE
  5
E2FD
  8
MSM_CONTINUOUS
 10
8.2569999999998487
 20
26.23299999999999
 30
0.0
 11
8.3980182677164237
 21
26.091981732283401
 31
0.0
  0
LINE
  5
E2FE
  8
MSM_CONTINUOUS
 10
8.3980182677164237
 20
26.091981732283401
 30
0.0
 11
8.2279372941445246
 21
25.889644022344399
 31
0.0
  0
LINE
  5
E2FF
  8
MSM_CONTINUOUS
 10
8.0515351571348788
 20
25.948578463780098
 30
0.0
 11
8.0189991706638892
 21
26.549015305017289
 31
0.0
  0
ARC
  5
E300
  8
MSM_CONTINUOUS
 10
8.1513886670654045
 20
25.953989245106399
 30
0.0
 40
0.1
 50
183.10166402986451
 51
319.95027223429008
  0
LINE
  5
E301
  8
MSM_CONTINUOUS
 10
8.5515945106160274
 20
25.963884784317901
 30
0.0
 11
8.3808258445221071
 21
25.759384036032699
 31
0.0
  0
LINE
  5
E302
  8
MSM_CONTINUOUS
 10
8.3980049825080414
 20
26.375005017845002
 30
0.0
 11
8.5395063923711803
 21
26.233493643094
 31
0.0
  0
ARC
  5
E303
  8
MSM_CONTINUOUS
 10
8.3980800567716045
 20
26.092077266394199
 30
0.0
 40
0.2
 50
320.1363784924269
 51
44.997982614010553
  0
ARC
  5
E304
  8
MSM_CONTINUOUS
 10
8.8999999999998352
 20
25.850009999999902
 30
0.0
 40
0.1
 50
0.0
 51
90.0
  0
LINE
  5
E305
  8
MSM_CONTINUOUS
 10
8.8999999999998352
 20
25.950009999999889
 30
0.0
 11
8.5400083505153361
 21
25.950009999999889
 31
0.0
  0
LINE
  5
E306
  8
MSM_CONTINUOUS
 10
4.1389423230809248
 20
28.850009999999902
 30
0.0
 11
3.3740391787042512
 21
28.850009999999902
 31
0.0
  0
ARC
  5
E307
  8
MSM_CONTINUOUS
 10
3.3740391787042512
 20
28.950009999999889
 30
0.0
 40
0.1
 50
200.0074372830035
 51
270.0
  0
LINE
  5
E308
  8
MSM_CONTINUOUS
 10
2.3309999999998041
 20
26.92502578476909
 30
0.0
 11
2.3309999999998041
 21
28.950009999999889
 31
0.0
  0
LINE
  5
E309
  8
MSM_CONTINUOUS
 10
2.5309999999998212
 20
27.040051538461299
 30
0.0
 11
2.5309999999998212
 21
28.950009999999889
 31
0.0
  0
LINE
  5
E30A
  8
MSM_CONTINUOUS
 10
2.0999999999998229
 20
29.300000000000001
 30
0.0
 11
2.4499932315820412
 21
29.300000000000001
 31
0.0
  0
ARC
  5
E30B
  8
MSM_CONTINUOUS
 10
2.0999999999998229
 20
29.399999999999888
 30
0.0
 40
0.1
 50
180.0
 51
270.0
  0
LINE
  5
E30C
  8
MSM_CONTINUOUS
 10
3.0788476448024649
 20
29.468438423463098
 30
0.0
 11
3.280074357012424
 21
28.915795788268198
 31
0.0
  0
ARC
  5
E30D
  8
MSM_CONTINUOUS
 10
2.8909180014186542
 20
29.400009999999899
 30
0.0
 40
0.2
 50
20.00743728300375
 51
90.0
  0
LINE
  5
E30E
  8
MSM_CONTINUOUS
 10
2.7948379264881278
 20
29.600009999999902
 30
0.0
 11
2.8909180014186542
 21
29.600009999999902
 31
0.0
  0
ARC
  5
E30F
  8
MSM_CONTINUOUS
 10
2.7948379264881278
 20
29.400009999999899
 30
0.0
 40
0.2
 50
90.0
 51
140.02282857467941
  0
LINE
  5
E310
  8
MSM_CONTINUOUS
 10
2.4499932315820412
 20
29.300000000000001
 30
0.0
 11
2.6415778283656972
 21
29.5285064681362
 31
0.0
  0
ARC
  5
E311
  8
MSM_CONTINUOUS
 10
2.5309999999998212
 20
28.950009999999889
 30
0.0
 40
0.2
 50
90.0
 51
180.0
  0
LINE
  5
E312
  8
MSM_CONTINUOUS
 10
2.5309999999998212
 20
29.150010000000002
 30
0.0
 11
2.9309999999999259
 21
29.150010000000002
 31
0.0
  0
LINE
  5
E313
  8
MSM_CONTINUOUS
 10
2.9309999999999259
 20
29.150010000000002
 30
0.0
 11
2.9309999999999259
 21
28.950009999999889
 31
0.0
  0
LINE
  5
E314
  8
MSM_CONTINUOUS
 10
2.9309999999999259
 20
28.950009999999889
 30
0.0
 11
2.5309999999998212
 21
28.950009999999889
 31
0.0
  0
LINE
  5
E315
  8
MSM_CONTINUOUS
 10
8.4689999999998236
 20
27.040051538461299
 30
0.0
 11
8.4689999999998236
 21
28.950009999999889
 31
0.0
  0
LINE
  5
E316
  8
MSM_CONTINUOUS
 10
8.6689999999999259
 20
26.92502578476909
 30
0.0
 11
8.6689999999999259
 21
28.950009999999889
 31
0.0
  0
ARC
  5
E317
  8
MSM_CONTINUOUS
 10
7.6259608212954069
 20
28.950009999999889
 30
0.0
 40
0.1
 50
270.0
 51
339.99256271699642
  0
LINE
  5
E318
  8
MSM_CONTINUOUS
 10
6.8610576769188043
 20
28.850009999999902
 30
0.0
 11
7.6259608212954069
 21
28.850009999999902
 31
0.0
  0
ARC
  5
E319
  8
MSM_CONTINUOUS
 10
8.109081998581118
 20
29.400009999999899
 30
0.0
 40
0.2
 50
90.0
 51
159.99256271699619
  0
LINE
  5
E31A
  8
MSM_CONTINUOUS
 10
7.9211523551973073
 20
29.468438423463098
 30
0.0
 11
7.7199256429873051
 21
28.915795788268198
 31
0.0
  0
LINE
  5
E31B
  8
MSM_CONTINUOUS
 10
8.0689999999998037
 20
28.950009999999889
 30
0.0
 11
8.4689999999998236
 21
28.950009999999889
 31
0.0
  0
LINE
  5
E31C
  8
MSM_CONTINUOUS
 10
8.0689999999998037
 20
29.150010000000002
 30
0.0
 11
8.0689999999998037
 21
28.950009999999889
 31
0.0
  0
LINE
  5
E31D
  8
MSM_CONTINUOUS
 10
8.8999999999998352
 20
29.300000000000001
 30
0.0
 11
8.5500067684177168
 21
29.300000000000001
 31
0.0
  0
LINE
  5
E31E
  8
MSM_CONTINUOUS
 10
8.4689999999998236
 20
29.150010000000002
 30
0.0
 11
8.0689999999998037
 21
29.150010000000002
 31
0.0
  0
ARC
  5
E31F
  8
MSM_CONTINUOUS
 10
8.4689999999998236
 20
28.950009999999889
 30
0.0
 40
0.2
 50
0.0
 51
90.0
  0
LINE
  5
E320
  8
MSM_CONTINUOUS
 10
8.5500067684177168
 20
29.300000000000001
 30
0.0
 11
8.358422171634146
 21
29.5285064681362
 31
0.0
  0
ARC
  5
E321
  8
MSM_CONTINUOUS
 10
8.2051620735116302
 20
29.400009999999899
 30
0.0
 40
0.2
 50
39.977171425317557
 51
90.0
  0
LINE
  5
E322
  8
MSM_CONTINUOUS
 10
8.2051620735116302
 20
29.600009999999902
 30
0.0
 11
8.109081998581118
 21
29.600009999999902
 31
0.0
  0
ARC
  5
E323
  8
MSM_CONTINUOUS
 10
8.8999999999998352
 20
29.399999999999888
 30
0.0
 40
0.1
 50
270.0
 51
0.0
  0
LINE
  5
E324
  8
MSM_CONTINUOUS
 10
8.6999999999998021
 20
45.999999999999893
 30
0.0
 11
2.2999999999999261
 21
45.999999999999893
 31
0.0
  0
LINE
  5
E325
  8
MSM_CONTINUOUS
 10
4.1389423230809248
 20
48.149989999999903
 30
0.0
 11
3.3740391787042512
 21
48.149989999999903
 31
0.0
  0
LINE
  5
E326
  8
MSM_CONTINUOUS
 10
4.1389261592770188
 20
50.349989999999892
 30
0.0
 11
3.3025949773718248
 21
50.349989999999892
 31
0.0
  0
LINE
  5
E327
  8
MSM_CONTINUOUS
 10
2.5309999999998212
 20
49.959948461538389
 30
0.0
 11
2.5309999999998212
 21
48.049989999999802
 31
0.0
  0
LINE
  5
E328
  8
MSM_CONTINUOUS
 10
2.3309999999998041
 20
50.07497421523059
 30
0.0
 11
2.3309999999998041
 21
48.049989999999802
 31
0.0
  0
LINE
  5
E329
  8
MSM_CONTINUOUS
 10
2.0999999999998229
 20
47.699999999999797
 30
0.0
 11
2.4499932315820412
 21
47.699999999999797
 31
0.0
  0
ARC
  5
E32A
  8
MSM_CONTINUOUS
 10
2.0999999999998229
 20
47.599999999999781
 30
0.0
 40
0.1
 50
90.0
 51
180.0
  0
LINE
  5
E32B
  8
MSM_CONTINUOUS
 10
2.9309999999999259
 20
48.049989999999802
 30
0.0
 11
2.5309999999998212
 21
48.049989999999802
 31
0.0
  0
LINE
  5
E32C
  8
MSM_CONTINUOUS
 10
2.5309999999998212
 20
47.849989999999892
 30
0.0
 11
2.9309999999999259
 21
47.849989999999892
 31
0.0
  0
ARC
  5
E32D
  8
MSM_CONTINUOUS
 10
2.7948379264881278
 20
47.599989999999799
 30
0.0
 40
0.2
 50
219.9771714253213
 51
270.0
  0
ARC
  5
E32E
  8
MSM_CONTINUOUS
 10
2.5309999999998212
 20
48.049989999999802
 30
0.0
 40
0.2
 50
180.0
 51
270.0
  0
LINE
  5
E32F
  8
MSM_CONTINUOUS
 10
2.4499932315820412
 20
47.699999999999797
 30
0.0
 11
2.6415778283656972
 21
47.471493531863601
 31
0.0
  0
LINE
  5
E330
  8
MSM_CONTINUOUS
 10
2.9309999999999259
 20
47.849989999999892
 30
0.0
 11
2.9309999999999259
 21
48.049989999999802
 31
0.0
  0
LINE
  5
E331
  8
MSM_CONTINUOUS
 10
2.7948379264881278
 20
47.399989999999988
 30
0.0
 11
2.8909180014186542
 21
47.399989999999988
 31
0.0
  0
ARC
  5
E332
  8
MSM_CONTINUOUS
 10
2.8909180014186542
 20
47.599989999999799
 30
0.0
 40
0.2
 50
270.0
 51
339.9925627169963
  0
LINE
  5
E333
  8
MSM_CONTINUOUS
 10
3.0788476448024649
 20
47.531561576536703
 30
0.0
 11
3.280074357012424
 21
48.084204211731397
 31
0.0
  0
ARC
  5
E334
  8
MSM_CONTINUOUS
 10
3.3740391787042512
 20
48.049989999999802
 30
0.0
 40
0.1
 50
90.0
 51
159.99256271699639
  0
LINE
  5
E335
  8
MSM_CONTINUOUS
 10
2.0999999999998229
 20
51.049989999999788
 30
0.0
 11
2.4599916494844218
 21
51.049989999999788
 31
0.0
  0
ARC
  5
E336
  8
MSM_CONTINUOUS
 10
2.0999999999998229
 20
51.149989999999903
 30
0.0
 40
0.1
 50
180.0
 51
270.0
  0
LINE
  5
E337
  8
MSM_CONTINUOUS
 10
3.1809999999999259
 20
50.334948461538389
 30
0.0
 11
2.5309999999998212
 21
49.959948461538389
 31
0.0
  0
LINE
  5
E338
  8
MSM_CONTINUOUS
 10
2.981000829335883
 20
50.450984694982289
 30
0.0
 11
2.3309999999998041
 21
50.07497421523059
 31
0.0
  0
ARC
  5
E339
  8
MSM_CONTINUOUS
 10
2.8494458362442421
 20
51.048327240852601
 30
0.0
 40
0.3
 50
4.9347295625859191
 51
140.1363784924238
  0
LINE
  5
E33A
  8
MSM_CONTINUOUS
 10
2.6019817322833338
 20
50.908018267716592
 30
0.0
 11
2.772062705855233
 21
51.110355977655402
 31
0.0
  0
LINE
  5
E33B
  8
MSM_CONTINUOUS
 10
2.601995017491745
 20
50.624994982154689
 30
0.0
 11
2.7429999999999231
 21
50.766999999999889
 31
0.0
  0
LINE
  5
E33C
  8
MSM_CONTINUOUS
 10
2.7429999999999231
 20
50.766999999999889
 30
0.0
 11
2.6019817322833338
 21
50.908018267716592
 31
0.0
  0
LINE
  5
E33D
  8
MSM_CONTINUOUS
 10
2.4484054893837448
 20
51.036115215681903
 30
0.0
 11
2.6191741554775798
 21
51.240615963967102
 31
0.0
  0
LINE
  5
E33E
  8
MSM_CONTINUOUS
 10
2.601995017491745
 20
50.624994982154689
 30
0.0
 11
2.4604936076285351
 21
50.766506356905708
 31
0.0
  0
ARC
  5
E33F
  8
MSM_CONTINUOUS
 10
2.601919943228125
 20
50.907922733605503
 30
0.0
 40
0.2
 50
140.1363784924267
 51
224.99798261401119
  0
LINE
  5
E340
  8
MSM_CONTINUOUS
 10
3.1809999999999259
 20
50.695999999999898
 30
0.0
 11
3.1809999999999259
 21
50.334948461538389
 31
0.0
  0
LINE
  5
E341
  8
MSM_CONTINUOUS
 10
2.948464842864865
 20
51.051421536219593
 30
0.0
 11
2.981000829335883
 21
50.450984694982289
 31
0.0
  0
ARC
  5
E342
  8
MSM_CONTINUOUS
 10
2.848611332934325
 20
51.046010754893402
 30
0.0
 40
0.1
 50
3.1016640298645259
 51
139.95027223429591
  0
LINE
  5
E343
  8
MSM_CONTINUOUS
 10
3.1483338376742429
 20
51.074133492055282
 30
0.0
 11
3.2029656435618672
 21
50.44138791626569
 31
0.0
  0
ARC
  5
E344
  8
MSM_CONTINUOUS
 10
3.3025949773718248
 20
50.44999
 30
0.0
 40
0.1
 50
184.93472956258589
 51
270.0
  0
CIRCLE
  5
E345
  8
MSM_CONTINUOUS
 10
5.4999999999998996
 20
49.249999999999901
 30
0.0
 40
1.75
  0
LINE
  5
E346
  8
MSM_CONTINUOUS
 10
8.6689999999999259
 20
50.07497421523059
 30
0.0
 11
8.6689999999999259
 21
48.049989999999802
 31
0.0
  0
LINE
  5
E347
  8
MSM_CONTINUOUS
 10
8.4689999999998236
 20
49.959948461538389
 30
0.0
 11
8.4689999999998236
 21
48.049989999999802
 31
0.0
  0
ARC
  5
E348
  8
MSM_CONTINUOUS
 10
8.109081998581118
 20
47.599989999999799
 30
0.0
 40
0.2
 50
200.00743728300381
 51
270.0
  0
LINE
  5
E349
  8
MSM_CONTINUOUS
 10
7.9211523551973073
 20
47.531561576536703
 30
0.0
 11
7.7199256429873051
 21
48.084204211731397
 31
0.0
  0
LINE
  5
E34A
  8
MSM_CONTINUOUS
 10
6.8610576769188043
 20
48.149989999999903
 30
0.0
 11
7.6259608212954069
 21
48.149989999999903
 31
0.0
  0
ARC
  5
E34B
  8
MSM_CONTINUOUS
 10
7.6259608212954069
 20
48.049989999999802
 30
0.0
 40
0.1
 50
20.007437283003568
 51
90.0
  0
ARC
  5
E34C
  8
MSM_CONTINUOUS
 10
8.8999999999998352
 20
47.599999999999781
 30
0.0
 40
0.1
 50
0.0
 51
90.0
  0
LINE
  5
E34D
  8
MSM_CONTINUOUS
 10
8.2051620735116302
 20
47.399989999999988
 30
0.0
 11
8.109081998581118
 21
47.399989999999988
 31
0.0
  0
ARC
  5
E34E
  8
MSM_CONTINUOUS
 10
8.2051620735116302
 20
47.599989999999799
 30
0.0
 40
0.2
 50
270.0
 51
320.02282857467878
  0
LINE
  5
E34F
  8
MSM_CONTINUOUS
 10
8.5500067684177168
 20
47.699999999999797
 30
0.0
 11
8.358422171634146
 21
47.471493531863601
 31
0.0
  0
ARC
  5
E350
  8
MSM_CONTINUOUS
 10
8.4689999999998236
 20
48.049989999999802
 30
0.0
 40
0.2
 50
270.0
 51
0.0
  0
LINE
  5
E351
  8
MSM_CONTINUOUS
 10
8.4689999999998236
 20
47.849989999999892
 30
0.0
 11
8.0689999999998037
 21
47.849989999999892
 31
0.0
  0
LINE
  5
E352
  8
MSM_CONTINUOUS
 10
8.8999999999998352
 20
47.699999999999797
 30
0.0
 11
8.5500067684177168
 21
47.699999999999797
 31
0.0
  0
LINE
  5
E353
  8
MSM_CONTINUOUS
 10
8.0689999999998037
 20
47.849989999999892
 30
0.0
 11
8.0689999999998037
 21
48.049989999999802
 31
0.0
  0
LINE
  5
E354
  8
MSM_CONTINUOUS
 10
8.0689999999998037
 20
48.049989999999802
 30
0.0
 11
8.4689999999998236
 21
48.049989999999802
 31
0.0
  0
ARC
  5
E355
  8
MSM_CONTINUOUS
 10
8.1505541637555439
 20
51.048327240852601
 30
0.0
 40
0.3
 50
39.863621507569491
 51
175.06527043741411
  0
LINE
  5
E356
  8
MSM_CONTINUOUS
 10
7.8189999999998028
 20
50.334948461538389
 30
0.0
 11
8.4689999999998236
 21
49.959948461538389
 31
0.0
  0
LINE
  5
E357
  8
MSM_CONTINUOUS
 10
6.8610738407227236
 20
50.349989999999892
 30
0.0
 11
7.6974050226279473
 21
50.349989999999892
 31
0.0
  0
ARC
  5
E358
  8
MSM_CONTINUOUS
 10
7.6974050226279473
 20
50.44999
 30
0.0
 40
0.1
 50
270.0
 51
355.06527043741409
  0
LINE
  5
E359
  8
MSM_CONTINUOUS
 10
7.8516661623255279
 20
51.074133492055282
 30
0.0
 11
7.7970343564379041
 21
50.44138791626569
 31
0.0
  0
LINE
  5
E35A
  8
MSM_CONTINUOUS
 10
7.8189999999998028
 20
50.695999999999898
 30
0.0
 11
7.8189999999998028
 21
50.334948461538389
 31
0.0
  0
ARC
  5
E35B
  8
MSM_CONTINUOUS
 10
8.8999999999998352
 20
51.149989999999903
 30
0.0
 40
0.1
 50
270.0
 51
0.0
  0
LINE
  5
E35C
  8
MSM_CONTINUOUS
 10
8.8999999999998352
 20
51.049989999999788
 30
0.0
 11
8.5400083505153361
 21
51.049989999999788
 31
0.0
  0
ARC
  5
E35D
  8
MSM_CONTINUOUS
 10
8.3980800567716045
 20
50.907922733605503
 30
0.0
 40
0.2
 50
315.00201738598872
 51
39.8636215075731
  0
LINE
  5
E35E
  8
MSM_CONTINUOUS
 10
8.3980049825080414
 20
50.624994982154689
 30
0.0
 11
8.5395063923711803
 21
50.766506356905708
 31
0.0
  0
LINE
  5
E35F
  8
MSM_CONTINUOUS
 10
8.5515945106160274
 20
51.036115215681903
 30
0.0
 11
8.3808258445221071
 21
51.240615963967102
 31
0.0
  0
ARC
  5
E360
  8
MSM_CONTINUOUS
 10
8.1513886670654045
 20
51.046010754893402
 30
0.0
 40
0.1
 50
40.04972776570412
 51
176.89833597013549
  0
LINE
  5
E361
  8
MSM_CONTINUOUS
 10
8.0515351571348788
 20
51.051421536219593
 30
0.0
 11
8.0189991706638892
 21
50.450984694982289
 31
0.0
  0
LINE
  5
E362
  8
MSM_CONTINUOUS
 10
8.3980182677164237
 20
50.908018267716592
 30
0.0
 11
8.2279372941445246
 21
51.110355977655402
 31
0.0
  0
LINE
  5
E363
  8
MSM_CONTINUOUS
 10
8.0189991706638892
 20
50.450984694982289
 30
0.0
 11
8.6689999999999259
 21
50.07497421523059
 31
0.0
  0
LINE
  5
E364
  8
MSM_CONTINUOUS
 10
8.2569999999998487
 20
50.766999999999889
 30
0.0
 11
8.3980182677164237
 21
50.908018267716592
 31
0.0
  0
LINE
  5
E365
  8
MSM_CONTINUOUS
 10
8.3980049825080414
 20
50.624994982154689
 30
0.0
 11
8.2569999999998487
 21
50.766999999999889
 31
0.0
  0
LINE
  5
E366
  8
MSM_CONTINUOUS
 10
8.9999999999998295
 20
52.499999999999901
 30
0.0
 11
1.999999999999899
 21
52.499999999999901
 31
0.0
  0
ARC
  5
E367
  8
MSM_CONTINUOUS
 10
2.2999999999999261
 20
52.199999999999811
 30
0.0
 40
0.3
 50
90.0
 51
180.0
  0
ARC
  5
E368
  8
MSM_CONTINUOUS
 10
8.6999999999999442
 20
52.199999999999811
 30
0.0
 40
0.3
 50
0.0
 51
90.0
  0
ARC
  5
E369
  8
MSM_CONTINUOUS
 10
8.6999999999998021
 20
46.299999999999798
 30
0.0
 40
0.3
 50
270.0
 51
0.0
  0
ARC
  5
E36A
  8
MSM_CONTINUOUS
 10
2.2999999999999261
 20
46.299999999999883
 30
0.0
 40
0.3
 50
180.0
 51
270.0
  0
LINE
  5
E36B
  8
MSM_CONTINUOUS
 10
8.9999999999998295
 20
24.5
 30
0.0
 11
2.0000000000000151
 21
24.5
 31
0.0
  0
ARC
  5
E36C
  8
MSM_CONTINUOUS
 10
2.2999999999999261
 20
24.800000000000001
 30
0.0
 40
0.3
 50
180.0
 51
270.0
  0
ARC
  5
E36D
  8
MSM_CONTINUOUS
 10
8.6999999999999442
 20
24.800000000000001
 30
0.0
 40
0.3
 50
270.0
 51
0.0
  0
LINE
  5
E36E
  8
MSM_CONTINUOUS
 10
8.6999999999998021
 20
30.999999999999901
 30
0.0
 11
2.2999999999999261
 21
30.999999999999901
 31
0.0
  0
ARC
  5
E36F
  8
MSM_CONTINUOUS
 10
2.2999999999999261
 20
30.69999999999979
 30
0.0
 40
0.3
 50
90.0
 51
180.0
  0
ARC
  5
E370
  8
MSM_CONTINUOUS
 10
8.6999999999998021
 20
30.69999999999979
 30
0.0
 40
0.3
 50
0.0
 51
90.0
  0
LINE
  5
E372
  8
MSM_CONTINUOUS
 10
10.34999999999992
 20
52.499999999999993
 30
0.0
 11
11.999999999999829
 21
52.499999999999993
 31
0.0
  0
LINE
  5
E377
  8
MSM_CONTINUOUS
 10
10.34999999999992
 20
24.499999999999901
 30
0.0
 11
11.999999999999829
 21
24.499999999999901
 31
0.0
  0
LINE
  5
E553
  8
MSM_CONTINUOUS
 10
10.34999999999974
 20
53.199999999999889
 30
-0.6999999999999998
 11
8.9999999999998295
 21
53.199999999999889
 31
-0.6999999999999998
  0
LINE
  5
E554
  8
MSM_CONTINUOUS
 10
10.19999999999987
 20
50.199999999999882
 30
-0.6999999999999998
 11
8.9999999999998295
 21
50.199999999999882
 31
-0.6999999999999998
  0
LINE
  5
E555
  8
MSM_CONTINUOUS
 10
10.19999999999987
 20
29.761997463308791
 30
-0.6999999999999998
 11
8.9999999999998295
 21
29.761997463308791
 31
-0.6999999999999998
  0
LINE
  5
E556
  8
MSM_CONTINUOUS
 10
10.19999999999987
 20
25.03504768962371
 30
-0.6999999999999998
 11
8.9999999999998295
 21
25.03504768962371
 31
-0.6999999999999998
  0
LINE
  5
E557
  8
MSM_CONTINUOUS
 10
8.9999999999998295
 20
53.199999999999889
 30
0.0
 11
8.9999999999998295
 21
23.799999999999908
 31
0.0
  0
LINE
  5
E558
  8
MSM_CONTINUOUS
 10
10.19999999999987
 20
53.199999999999889
 30
0.0
 11
10.19999999999987
 21
25.03504768962371
 31
0.0
  0
LINE
  5
E559
  8
MSM_CONTINUOUS
 10
8.9999999999998295
 20
23.799999999999908
 30
-0.6999999999999998
 11
10.34999999999974
 21
23.799999999999908
 31
-0.6999999999999998
  0
LINE
  5
E55A
  8
MSM_CONTINUOUS
 10
10.34999999999974
 20
23.799999999999908
 30
-0.0999999999999999
 11
10.34999999999974
 21
53.199999999999889
 31
-0.0999999999999999
  0
ARC
  5
E599
  8
MSM_CONTINUOUS
 10
56.53695428164815
 20
27.035047689623759
 30
0.0
 40
2.0000000000000071
 50
297.32736382956352
 51
343.5828917028258
  0
LINE
  5
E59A
  8
MSM_CONTINUOUS
 10
58.556228139139883
 20
26.81195331244988
 30
0.0
 11
58.455413533074307
 21
26.469791906268149
 31
0.0
  0
ARC
  5
E59B
  8
MSM_CONTINUOUS
 10
56.349999999999682
 20
27.461997463308769
 30
0.0
 40
2.299999999999998
 50
343.5828917028299
 51
120.0471347850781
  0
ARC
  5
E59C
  8
MSM_CONTINUOUS
 10
54.046723618291701
 20
31.4438209035767
 30
0.0
 40
2.3000000000000118
 50
218.41101506092221
 51
300.04713268521959
  0
ARC
  5
E59D
  8
MSM_CONTINUOUS
 10
61.999999999999773
 20
37.749999999999901
 30
0.0
 40
12.44999999999999
 50
321.58898493907742
 51
218.41101506092161
  0
ARC
  5
E59E
  8
MSM_CONTINUOUS
 10
69.95327638170761
 20
31.4438209035767
 30
0.0
 40
2.3000000000000038
 50
239.95286731478029
 51
321.58898493907827
  0
ARC
  5
E59F
  8
MSM_CONTINUOUS
 10
67.649999999999636
 20
27.461997463308769
 30
0.0
 40
2.2999999999999958
 50
59.952865214921893
 51
196.41710829717039
  0
LINE
  5
E5A0
  8
MSM_CONTINUOUS
 10
65.544586466925011
 20
26.469791906268149
 30
0.0
 11
65.443771860859442
 21
26.81195331244988
 31
0.0
  0
ARC
  5
E5A1
  8
MSM_CONTINUOUS
 10
67.463045718351395
 20
27.035047689623759
 30
0.0
 40
2.000000000000008
 50
196.41710829717061
 51
242.67263617042931
  0
CIRCLE
  5
E5A2
  8
MSM_CONTINUOUS
 10
56.349999999999682
 20
27.461997463308769
 30
0.0
 40
1.0
  0
CIRCLE
  5
E5A3
  8
MSM_CONTINUOUS
 10
67.649999999999636
 20
27.461997463308769
 30
0.0
 40
1.0
  0
CIRCLE
  5
E5A4
  8
MSM_CONTINUOUS
 10
61.999999999999773
 20
38.499999999999893
 30
0.0
 40
14.0
  0
ENDSEC
  0
EOF
