  0
SECTION
  2
HEADER
  9
$ACADVER
  1
AC1009
  9
$INSBASE
 10
0.0
 20
0.0
 30
0.0
  9
$EXTMIN
 10
-3.4999999999997118
 20
-8.0
 30
0.0
  9
$EXTMAX
 10
52.5
 20
96.999999999999943
 30
0.0
  9
$LIMMIN
 10
0.0
 20
0.0
  9
$LIMMAX
 10
420.0
 20
297.0
  9
$ORTHOMODE
 70
     0
  9
$REGENMODE
 70
     1
  9
$FILLMODE
 70
     1
  9
$QTEXTMODE
 70
     0
  9
$MIRRTEXT
 70
     0
  9
$DRAGMODE
 70
     2
  9
$LTSCALE
 40
0.5
  9
$OSMODE
 70
    37
  9
$ATTMODE
 70
     1
  9
$TEXTSIZE
 40
3.0
  9
$TRACEWID
 40
1.0
  9
$TEXTSTYLE
  7
STANDARD
  9
$CLAYER
  8
MSM_CONTINUOUS
  9
$CELTYPE
  6
BYLAYER
  9
$CECOLOR
 62
   256
  9
$DIMSCALE
 40
1.0
  9
$DIMASZ
 40
2.5
  9
$DIMEXO
 40
0.625
  9
$DIMDLI
 40
3.75
  9
$DIMRND
 40
0.0
  9
$DIMDLE
 40
0.0
  9
$DIMEXE
 40
1.25
  9
$DIMTP
 40
0.0
  9
$DIMTM
 40
0.0
  9
$DIMTXT
 40
3.0
  9
$DIMCEN
 40
2.5
  9
$DIMTSZ
 40
0.0
  9
$DIMTOL
 70
     0
  9
$DIMLIM
 70
     0
  9
$DIMTIH
 70
     0
  9
$DIMTOH
 70
     0
  9
$DIMSE1
 70
     0
  9
$DIMSE2
 70
     0
  9
$DIMTAD
 70
     1
  9
$DIMZIN
 70
     8
  9
$DIMBLK
  1
OPEN30
  9
$DIMASO
 70
     1
  9
$DIMSHO
 70
     1
  9
$DIMPOST
  1

  9
$DIMAPOST
  1

  9
$DIMALT
 70
     0
  9
$DIMALTD
 70
     3
  9
$DIMALTF
 40
0.03937007874016
  9
$DIMLFAC
 40
1.0
  9
$DIMTOFL
 70
     1
  9
$DIMTVP
 40
0.0
  9
$DIMTIX
 70
     0
  9
$DIMSOXD
 70
     0
  9
$DIMSAH
 70
     0
  9
$DIMBLK1
  1

  9
$DIMBLK2
  1

  9
$DIMSTYLE
  2
MISUMI
  9
$DIMCLRD
 70
   256
  9
$DIMCLRE
 70
   256
  9
$DIMCLRT
 70
   256
  9
$DIMTFAC
 40
1.0
  9
$DIMGAP
 40
0.625
  9
$LUNITS
 70
     2
  9
$LUPREC
 70
     2
  9
$SKETCHINC
 40
1.0
  9
$FILLETRAD
 40
0.0
  9
$AUNITS
 70
     0
  9
$AUPREC
 70
     0
  9
$MENU
  1
.
  9
$ELEVATION
 40
0.0
  9
$PELEVATION
 40
0.0
  9
$THICKNESS
 40
0.0
  9
$LIMCHECK
 70
     0
  9
$BLIPMODE
 70
     0
  9
$CHAMFERA
 40
0.5
  9
$CHAMFERB
 40
0.5
  9
$SKPOLY
 70
     0
  9
$TDCREATE
 40
2455135.5720697111
  9
$TDUPDATE
 40
2457627.5595236579
  9
$TDINDWG
 40
0.7433341551
  9
$TDUSRTIMER
 40
2456776.1569724311
  9
$USRTIMER
 70
     1
  9
$ANGBASE
 50
0.0
  9
$ANGDIR
 70
     0
  9
$PDMODE
 70
    35
  9
$PDSIZE
 40
0.0
  9
$PLINEWID
 40
0.0
  9
$COORDS
 70
     1
  9
$SPLFRAME
 70
     0
  9
$SPLINETYPE
 70
     6
  9
$SPLINESEGS
 70
     8
  9
$ATTDIA
 70
     0
  9
$ATTREQ
 70
     1
  9
$HANDLING
 70
     1
  9
$HANDSEED
  5
E532
  9
$SURFTAB1
 70
     6
  9
$SURFTAB2
 70
     6
  9
$SURFTYPE
 70
     6
  9
$SURFU
 70
     6
  9
$SURFV
 70
     6
  9
$UCSNAME
  2

  9
$UCSORG
 10
0.0
 20
0.0
 30
0.0
  9
$UCSXDIR
 10
1.0
 20
0.0
 30
0.0
  9
$UCSYDIR
 10
0.0
 20
1.0
 30
0.0
  9
$PUCSNAME
  2

  9
$PUCSORG
 10
0.0
 20
0.0
 30
0.0
  9
$PUCSXDIR
 10
1.0
 20
0.0
 30
0.0
  9
$PUCSYDIR
 10
0.0
 20
1.0
 30
0.0
  9
$USERI1
 70
     0
  9
$USERI2
 70
     0
  9
$USERI3
 70
     0
  9
$USERI4
 70
     0
  9
$USERI5
 70
     0
  9
$USERR1
 40
0.0
  9
$USERR2
 40
0.0
  9
$USERR3
 40
0.0
  9
$USERR4
 40
0.0
  9
$USERR5
 40
0.0
  9
$WORLDVIEW
 70
     1
  9
$SHADEDGE
 70
     3
  9
$SHADEDIF
 70
    70
  9
$TILEMODE
 70
     1
  9
$MAXACTVP
 70
    64
  9
$PLIMCHECK
 70
     0
  9
$PEXTMIN
 10
0.0
 20
0.0
 30
0.0
  9
$PEXTMAX
 10
0.0
 20
0.0
 30
0.0
  9
$PLIMMIN
 10
0.0
 20
0.0
  9
$PLIMMAX
 10
12.0
 20
9.0
  9
$UNITMODE
 70
     0
  9
$VISRETAIN
 70
     1
  9
$PLINEGEN
 70
     0
  9
$PSLTSCALE
 70
     1
  0
ENDSEC
  0
SECTION
  2
TABLES
  0
TABLE
  2
VPORT
 70
     1
  0
VPORT
  2
*ACTIVE
 70
     0
 10
0.0
 20
0.0
 11
1.0
 21
1.0
 12
24.508442344194119
 22
44.506526005452429
 13
0.0
 23
0.0
 14
10.0
 24
10.0
 15
10.0
 25
10.0
 16
0.0
 26
0.0
 36
1.0
 17
0.0
 27
0.0
 37
0.0
 40
105.76807533533859
 41
2.1765402843601889
 42
50.0
 43
0.0
 44
0.0
 50
0.0
 51
0.0
 71
    16
 72
  1000
 73
     1
 74
     3
 75
     0
 76
     0
 77
     0
 78
     0
  0
ENDTAB
  0
TABLE
  2
LTYPE
 70
     2
  0
LTYPE
  2
CONTINUOUS
 70
     0
  3
Solid line
 72
    65
 73
     0
 40
0.0
  0
LTYPE
  2
CENTER
 70
     0
  3
Center ____ _ ____ _ ____ _ ____ _ ____ _ ____
 72
    65
 73
     4
 40
50.799999999999997
 49
31.75
 49
-6.3499999999999988
 49
6.3499999999999988
 49
-6.3499999999999988
  0
ENDTAB
  0
TABLE
  2
LAYER
 70
     5
  0
LAYER
  2
0
 70
     0
 62
     7
  6
CONTINUOUS
  0
LAYER
  2
MSM_CENTER
 70
     0
 62
     1
  6
CENTER
  0
LAYER
  2
DEFPOINTS
 70
     0
 62
     7
  6
CONTINUOUS
  0
LAYER
  2
MSM_CONTINUOUS
 70
     0
 62
     7
  6
CONTINUOUS
  0
LAYER
  2
MSM_PART_NUMBER
 70
     0
 62
     7
  6
CONTINUOUS
  0
ENDTAB
  0
TABLE
  2
STYLE
 70
     1
  0
STYLE
  2
STANDARD
 70
     0
 40
3.0
 41
1.0
 50
0.0
 71
     0
 42
3.0
  3
txt.shx
  4
bigfont.shx
  0
ENDTAB
  0
TABLE
  2
VIEW
 70
     0
  0
ENDTAB
  0
TABLE
  2
UCS
 70
     0
  0
ENDTAB
  0
TABLE
  2
APPID
 70
    51
  0
APPID
  2
ACAD
 70
     0
  0
APPID
  2
ACAD_MLEADERVER
 70
     0
  0
APPID
  2
ACAD_EXEMPT_FROM_CAD_STANDARDS
 70
     0
  0
APPID
  2
ACDBBLOCKREPETAG
 70
     0
  0
APPID
  2
ACAD_DSTYLE_DIMJOGGED_JOGA
 70
     0
  0
APPID
  2
ACAECLAYERSTANDARD
 70
     0
  0
APPID
  2
GENIUS_GENODEF_13
 70
     0
  0
APPID
  2
GENIUS_GENOBJ-N-FIL_13
 70
     0
  0
APPID
  2
ACAD_PSEXT
 70
     0
  0
APPID
  2
ACAD_DSTYLE_DIMRADIAL_EXTENSION
 70
     0
  0
APPID
  2
ACDBDYNAMICBLOCKTRUENAME
 70
     0
  0
APPID
  2
ACDBDYNAMICBLOCKGUID
 70
     0
  0
APPID
  2
ACDBBLOCKREPBTAG
 70
     0
  0
APPID
  2
ACAUTHENVIRON
 70
     0
  0
APPID
  2
GRADIENTCOLOR1ACI
 70
     0
  0
APPID
  2
GRADIENTCOLOR2ACI
 70
     0
  0
APPID
  2
ACAD_DSTYLE_DIMJAG
 70
     0
  0
APPID
  2
ACAD_DSTYLE_DIMTALN
 70
     0
  0
APPID
  2
ACCMTRANSPARENCY
 70
     0
  0
APPID
  2
ACAD_DSTYLE_DIMBREAK
 70
     0
  0
APPID
  2
ACAD_DSTYLE_DIMFLIPARROW_W
 70
     0
  0
APPID
  2
ACAD_DSTYLE_DIM_LINETYPE
 70
     0
  0
APPID
  2
ACAD_DSTYLE_DIM_EXT1_LINETYPE
 70
     0
  0
APPID
  2
ACAD_DSTYLE_DIM_EXT2_LINETYPE
 70
     0
  0
APPID
  2
ACADANNOTATIVE
 70
     0
  0
APPID
  2
GENIUS_GENCFG_13
 70
     0
  0
APPID
  2
GENIUS_GENCFG0_13
 70
     0
  0
APPID
  2
GENIUS_GENCFG1_13
 70
     0
  0
APPID
  2
GENIUS_GENCFG2_13
 70
     0
  0
APPID
  2
GENIUS_GENCFG3_13
 70
     0
  0
APPID
  2
GENIUS_GENCFG4_13
 70
     0
  0
APPID
  2
GENIUS_GEVCFG0_13
 70
     0
  0
APPID
  2
MCAD_NO_VIS
 70
     0
  0
APPID
  2
ACAD_TEMP_GRAPHIC
 70
     0
  0
APPID
  2
AD_DRAW
 70
     0
  0
APPID
  2
ACATTRIBSERVICES
 70
     0
  0
APPID
  2
ASURF_PCURVE_APPNAME
 70
     0
  0
APPID
  2
GENIUS_GENDIM_13
 70
     0
  0
APPID
  2
GENIUS_GENDTOL_13
 70
     0
  0
APPID
  2
GENIUS_GE3DTOL_13
 70
     0
  0
APPID
  2
DESIGNERASSEMBLIES
 70
     0
  0
APPID
  2
ACADM_DIM_EDIT
 70
     0
  0
APPID
  2
G3V_ENTHND
 70
     0
  0
APPID
  2
GENIUS_GENOBJ-N-HTC_13
 70
     0
  0
APPID
  2
GENIUS_GENHATCH_13
 70
     0
  0
APPID
  2
GENIUS_GENFIL_13
 70
     0
  0
APPID
  2
GENIUS_GENOBJ-N-CHA_13
 70
     0
  0
APPID
  2
DCO15
 70
     0
  0
APPID
  2
GENIUS_GENREC_14
 70
     0
  0
APPID
  2
GENIUS_GENOBJ-N-REC_13
 70
     0
  0
APPID
  2
GENIUS_GENOBJ-N-CEN_13
 70
     0
  0
ENDTAB
  0
TABLE
  2
DIMSTYLE
 70
     1
  0
DIMSTYLE
  2
MISUMI
 70
     0
  3

  4

  5
OPEN30
  6

  7

 40
1.0
 41
2.5
 42
0.625
 43
3.75
 44
1.25
 45
0.0
 46
0.0
 47
0.0
 48
0.0
140
3.0
141
2.5
142
0.0
143
0.03937007874016
144
1.0
145
0.0
146
1.0
147
0.625
 71
     0
 72
     0
 73
     0
 74
     0
 75
     0
 76
     0
 77
     1
 78
     8
170
     0
171
     3
172
     1
173
     0
174
     0
175
     0
176
   256
177
   256
178
   256
  0
ENDTAB
  0
ENDSEC
  0
SECTION
  2
BLOCKS
  0
BLOCK
  8
0
  2
$MODEL_SPACE
 70
     0
 10
0.0
 20
0.0
 30
0.0
  3
$MODEL_SPACE
  1

  0
ENDBLK
  5
21
  8
0
  0
BLOCK
 67
     1
  8
0
  2
$PAPER_SPACE
 70
     0
 10
0.0
 20
0.0
 30
0.0
  3
$PAPER_SPACE
  1

  0
ENDBLK
  5
E4DF
 67
     1
  8
0
  0
BLOCK
  8
0
 62
     7
  2
_OPEN30
 70
     0
 10
0.0
 20
0.0
 30
0.0
  3
_OPEN30
  1

  0
LINE
  5
D7
  8
0
  6
BYBLOCK
 62
     0
 10
-1.0
 20
0.26794919
 30
0.0
 11
0.0
 21
0.0
 31
0.0
  0
LINE
  5
D8
  8
0
  6
BYBLOCK
 62
     0
 10
0.0
 20
0.0
 30
0.0
 11
-1.0
 21
-0.26794919
 31
0.0
  0
LINE
  5
D9
  8
0
  6
BYBLOCK
 62
     0
 10
0.0
 20
0.0
 30
0.0
 11
-1.0
 21
0.0
 31
0.0
  0
ENDBLK
  5
DB
  8
0
 62
     7
  0
BLOCK
  8
0
  2
*U2
 70
     1
 10
0.0
 20
0.0
 30
0.0
  3
*U2
  1

  0
TEXT
  5
E523
  8
MSM_PART_NUMBER
 10
0.0
 20
-3.0
 30
0.0
 40
3.0
  1
AHTFW32-S8M400-20
  0
ENDBLK
  5
E525
  8
0
  0
BLOCK
  8
0
  2
*U3
 70
     1
 10
0.0
 20
0.0
 30
0.0
  3
*U3
  1

  0
TEXT
  5
E527
  8
MSM_PART_NUMBER
 10
0.0
 20
-8.0
 30
0.0
 40
3.0
  1
AHTFW32-S8M400
  0
ENDBLK
  5
E529
  8
0
  0
BLOCK
  8
0
  2
*U4
 70
     1
 10
0.0
 20
0.0
 30
0.0
  3
*U4
  1

  0
TEXT
  5
E52B
  8
MSM_PART_NUMBER
 10
230.78420101418749
 20
4.7390233652656937
 30
0.0
 40
3.0
  1
ahtfw32-s8m400.dwg
  0
ENDBLK
  5
E52D
  8
0
  0
ENDSEC
  0
SECTION
  2
ENTITIES
  0
INSERT
  5
DCB4
  8
MSM_CONTINUOUS
  2
*U2
 10
0.0
 20
0.0
 30
0.0
  0
INSERT
  5
DCB5
  8
MSM_CONTINUOUS
  2
*U3
 10
0.0
 20
0.0
 30
0.0
  0
LINE
  5
E335
  8
MSM_CENTER
 10
-3.4999999999997118
 20
53.499999999999972
 30
0.0
 11
52.5
 21
53.499999999999972
 31
0.0
  0
LINE
  5
E336
  8
MSM_CONTINUOUS
 10
2.5000000000004858
 20
92.565000000896021
 30
0.0
 11
46.499999999999879
 21
92.565000000896021
 31
0.0
  0
LINE
  5
E337
  8
MSM_CENTER
 10
2.4180816445162101
 20
94.244999999999933
 30
0.0
 11
46.581918355484383
 21
94.244999999999933
 31
0.0
  0
LINE
  5
E338
  8
MSM_CONTINUOUS
 10
2.5000000000002869
 20
86.999999999999929
 30
0.0
 11
0.0000000000002025
 21
86.999999999999929
 31
0.0
  0
LINE
  5
E339
  8
MSM_CONTINUOUS
 10
46.499999999999879
 20
86.999999999999929
 30
0.0
 11
49.000000000000398
 21
86.999999999999929
 31
0.0
  0
LINE
  5
E33A
  8
MSM_CONTINUOUS
 10
2.5000000000004858
 20
93.559999999999945
 30
0.0
 11
2.5000000000002869
 21
86.999999999999929
 31
0.0
  0
LINE
  5
E33B
  8
MSM_CONTINUOUS
 10
1.7836628476626999
 20
96.999999999999943
 30
0.0
 11
2.5000000000004858
 21
93.559999999999945
 31
0.0
  0
LINE
  5
E33C
  8
MSM_CONTINUOUS
 10
47.216337152337807
 20
96.999999999999943
 30
0.0
 11
46.499999999999879
 21
93.559999999999945
 31
0.0
  0
LINE
  5
E33D
  8
MSM_CONTINUOUS
 10
48.247085495256783
 20
96.999999999999943
 30
0.0
 11
47.216337152337807
 21
96.999999999999943
 31
0.0
  0
LINE
  5
E33E
  8
MSM_CONTINUOUS
 10
46.499999999999879
 20
93.559999999999945
 30
0.0
 11
46.500000000000277
 21
86.999999999999929
 31
0.0
  0
LINE
  5
E33F
  8
MSM_CONTINUOUS
 10
2.5000000000004858
 20
93.559999999999945
 30
0.0
 11
46.499999999999879
 21
93.559999999999945
 31
0.0
  0
LINE
  5
E342
  8
MSM_CONTINUOUS
 10
48.247028882933392
 20
96.999999999999943
 30
0.0
 11
47.500000000000107
 21
93.436949663928516
 31
0.0
  0
LINE
  5
E343
  8
MSM_CONTINUOUS
 10
47.500000000000107
 20
93.436949663928402
 30
0.0
 11
47.500000000000107
 21
86.999999999999929
 31
0.0
  0
LINE
  5
E344
  8
MSM_CONTINUOUS
 10
0.752971117067208
 20
96.999999999999943
 30
0.0
 11
1.5000000000004861
 21
93.436949663928516
 31
0.0
  0
LINE
  5
E345
  8
MSM_CONTINUOUS
 10
0.7529145047435897
 20
96.999999999999943
 30
0.0
 11
1.7836628476626999
 21
96.999999999999943
 31
0.0
  0
LINE
  5
E346
  8
MSM_CONTINUOUS
 10
1.5000000000004861
 20
93.436949663928402
 30
0.0
 11
1.5000000000002871
 21
86.999999999999929
 31
0.0
  0
LINE
  5
E347
  8
MSM_CONTINUOUS
 10
0.0000000000002025
 20
86.999999999999929
 30
0.0
 11
0.0000000000002878
 21
19.999999999999972
 31
0.0
  0
LINE
  5
E348
  8
MSM_CONTINUOUS
 10
49.000000000000398
 20
86.999999999999929
 30
0.0
 11
49.000000000000398
 21
19.999999999999972
 31
0.0
  0
LINE
  5
E349
  8
MSM_CONTINUOUS
 10
14.000000000000281
 20
73.999999999999943
 30
0.0
 11
35.000000000000199
 21
73.999999999999943
 31
0.0
  0
LINE
  5
E34A
  8
MSM_CENTER
 10
2.4180816445162101
 20
12.75499999999996
 30
0.0
 11
46.581918355484383
 21
12.75499999999996
 31
0.0
  0
LINE
  5
E34B
  8
MSM_CONTINUOUS
 10
2.5000000000004858
 20
13.43999999999998
 30
0.0
 11
46.499999999999879
 21
13.43999999999998
 31
0.0
  0
LINE
  5
E34C
  8
MSM_CONTINUOUS
 10
2.5000000000004858
 20
14.43499999910393
 30
0.0
 11
46.499999999999879
 21
14.43499999910393
 31
0.0
  0
LINE
  5
E34D
  8
MSM_CONTINUOUS
 10
1.5000000000004861
 20
13.5630503360715
 30
0.0
 11
1.5000000000002871
 21
19.999999999999972
 31
0.0
  0
LINE
  5
E34E
  8
MSM_CONTINUOUS
 10
2.5000000000004858
 20
13.43999999999998
 30
0.0
 11
2.5000000000002869
 21
19.999999999999972
 31
0.0
  0
LINE
  5
E34F
  8
MSM_CONTINUOUS
 10
2.5000000000002869
 20
19.999999999999972
 30
0.0
 11
0.0000000000002025
 21
19.999999999999972
 31
0.0
  0
LINE
  5
E350
  8
MSM_CONTINUOUS
 10
0.752971117067208
 20
10.0
 30
0.0
 11
1.5000000000004861
 21
13.563050336071409
 31
0.0
  0
LINE
  5
E351
  8
MSM_CONTINUOUS
 10
1.7836628476626999
 20
10.0
 30
0.0
 11
2.5000000000004858
 21
13.43999999999998
 31
0.0
  0
LINE
  5
E352
  8
MSM_CONTINUOUS
 10
0.7529145047435897
 20
10.0
 30
0.0
 11
1.7836628476626999
 21
10.0
 31
0.0
  0
LINE
  5
E353
  8
MSM_CONTINUOUS
 10
48.247028882933392
 20
10.0
 30
0.0
 11
47.500000000000107
 21
13.563050336071409
 31
0.0
  0
LINE
  5
E354
  8
MSM_CONTINUOUS
 10
48.247085495256783
 20
10.0
 30
0.0
 11
47.216337152337807
 21
10.0
 31
0.0
  0
LINE
  5
E355
  8
MSM_CONTINUOUS
 10
46.499999999999879
 20
19.999999999999972
 30
0.0
 11
49.000000000000398
 21
19.999999999999972
 31
0.0
  0
LINE
  5
E356
  8
MSM_CONTINUOUS
 10
47.500000000000107
 20
13.5630503360715
 30
0.0
 11
47.500000000000107
 21
19.999999999999972
 31
0.0
  0
LINE
  5
E357
  8
MSM_CONTINUOUS
 10
46.499999999999879
 20
13.43999999999998
 30
0.0
 11
46.500000000000277
 21
19.999999999999972
 31
0.0
  0
LINE
  5
E358
  8
MSM_CONTINUOUS
 10
47.216337152337807
 20
10.0
 30
0.0
 11
46.499999999999879
 21
13.43999999999998
 31
0.0
  0
LINE
  5
E359
  8
MSM_CONTINUOUS
 10
11.840739942402401
 20
73.199999999999989
 30
0.0
 11
10.12225504443529
 21
73.19999999999996
 31
0.0
  0
LINE
  5
E35A
  8
MSM_CONTINUOUS
 10
11.658957335210721
 20
68.29998999999998
 30
0.0
 11
10.122247197516799
 21
68.29998999999998
 31
0.0
  0
LINE
  5
E35B
  8
MSM_CONTINUOUS
 10
1.6000000000003101
 20
43.499999999999957
 30
0.0
 11
12.40000000000029
 21
43.499999999999957
 31
0.0
  0
LINE
  5
E35C
  8
MSM_CONTINUOUS
 10
1.6000000000003101
 20
76.999999999999943
 30
0.0
 11
12.40000000000029
 21
76.999999999999943
 31
0.0
  0
CIRCLE
  5
E35D
  8
MSM_CONTINUOUS
 10
7.0000000000002869
 20
70.749999999999943
 30
0.0
 40
3.96875
  0
LINE
  5
E35E
  8
MSM_CONTINUOUS
 10
1.6000000000003101
 20
63.499999999999972
 30
0.0
 11
12.40000000000029
 21
63.499999999999972
 31
0.0
  0
LINE
  5
E35F
  8
MSM_CONTINUOUS
 10
11.658957335210721
 20
38.70000999999997
 30
0.0
 11
10.122247197516799
 21
38.70000999999997
 31
0.0
  0
LINE
  5
E360
  8
MSM_CONTINUOUS
 10
11.840739942402401
 20
33.79999999999994
 30
0.0
 11
10.12225504443529
 21
33.799999999999947
 31
0.0
  0
CIRCLE
  5
E361
  8
MSM_CONTINUOUS
 10
7.0000000000002869
 20
36.249999999999972
 30
0.0
 40
3.96875
  0
LINE
  5
E362
  8
MSM_CONTINUOUS
 10
1.6000000000003101
 20
29.999999999999961
 30
0.0
 11
12.40000000000029
 21
29.999999999999961
 31
0.0
  0
LINE
  5
E364
  8
MSM_CONTINUOUS
 10
0.8300000000003002
 20
35.219969999818147
 30
0.0
 11
0.8300000000003002
 21
38.900009999999952
 31
0.0
  0
LINE
  5
E365
  8
MSM_CONTINUOUS
 10
0.5300000000002889
 20
35.096010000090892
 30
0.0
 11
0.5300000000002889
 21
38.90000999999998
 31
0.0
  0
ARC
  5
E366
  8
MSM_CONTINUOUS
 10
1.6000000000003101
 20
31.599999999999969
 30
0.0
 40
1.6000000000000001
 50
180.0
 51
270.0
  0
LINE
  5
E368
  8
MSM_CONTINUOUS
 10
7.0000000000002016
 20
29.999999999999918
 30
0.0
 11
7.0001000000002049
 21
29.999999999999918
 31
0.0
  0
LINE
  5
E369
  8
MSM_CONTINUOUS
 10
1.629967965905994
 20
33.996052033803068
 30
0.0
 11
0.5300000000002889
 21
35.096010000090892
 31
0.0
  0
LINE
  5
E36A
  8
MSM_CONTINUOUS
 10
1.9300000000002939
 20
34.11995999981815
 30
0.0
 11
0.8300000000003002
 21
35.219969999818147
 31
0.0
  0
ARC
  5
E36B
  8
MSM_CONTINUOUS
 10
2.1592600575982059
 20
33.599999999999973
 30
0.0
 40
0.2
 50
90.0
 51
175.01295044056221
  0
ARC
  5
E36C
  8
MSM_CONTINUOUS
 10
1.3832816415237259
 20
32.759779484820569
 30
0.0
 40
0.5
 50
220.09021395663581
 51
355.01295044056309
  0
LINE
  5
E36D
  8
MSM_CONTINUOUS
 10
0.7797475286710985
 20
32.700341802796387
 30
0.0
 11
1.000765938911403
 21
32.437782998418982
 31
0.0
  0
ARC
  5
E36E
  8
MSM_CONTINUOUS
 10
0.2000000000003048
 20
32.500009999999961
 30
0.0
 40
0.2
 50
90.0
 51
180.0
  0
LINE
  5
E36F
  8
MSM_CONTINUOUS
 10
0.2000000000003048
 20
32.70000999999997
 30
0.0
 11
0.7800268357267193
 21
32.70000999999997
 31
0.0
  0
LINE
  5
E370
  8
MSM_CONTINUOUS
 10
1.04600079170061
 20
33.316019056507137
 30
0.0
 11
1.238974312105998
 21
33.086046778432589
 31
0.0
  0
LINE
  5
E371
  8
MSM_CONTINUOUS
 10
1.238974312105998
 20
33.086046778432589
 30
0.0
 11
1.010001882057
 21
32.893071586174642
 31
0.0
  0
LINE
  5
E372
  8
MSM_CONTINUOUS
 10
1.010001882057
 20
32.893071586174642
 30
0.0
 11
1.2255325272286119
 21
32.636282938143623
 31
0.0
  0
ARC
  5
E373
  8
MSM_CONTINUOUS
 10
1.378723969913298
 20
32.764861248476912
 30
0.0
 40
0.2
 50
220.00777471320171
 51
357.6246304166545
  0
LINE
  5
E374
  8
MSM_CONTINUOUS
 10
1.04600079170061
 20
33.316019056507137
 30
0.0
 11
0.8164057302103095
 21
33.12334049301198
 31
0.0
  0
ARC
  5
E375
  8
MSM_CONTINUOUS
 10
1.009256950238498
 20
32.893539694637333
 30
0.0
 40
0.3
 50
130.00372414164531
 51
220.09021395663581
  0
LINE
  5
E376
  8
MSM_CONTINUOUS
 10
1.881388827657563
 20
32.716314198420577
 30
0.0
 11
1.960017183144604
 21
33.617386114559942
 31
0.0
  0
LINE
  5
E377
  8
MSM_CONTINUOUS
 10
1.9300000000002939
 20
33.273009999999971
 30
0.0
 11
1.9300000000002939
 21
34.11995999981815
 31
0.0
  0
LINE
  5
E378
  8
MSM_CONTINUOUS
 10
1.5785521177861059
 20
32.756572019459732
 30
0.0
 11
1.629967965905994
 21
33.996052033803068
 31
0.0
  0
LINE
  5
E379
  8
MSM_CONTINUOUS
 10
2.1592600575980931
 20
33.79999999999994
 30
0.0
 11
3.8777449555652801
 21
33.799999999999947
 31
0.0
  0
ARC
  5
E37A
  8
MSM_CONTINUOUS
 10
1.6000000000003101
 20
41.89999999999997
 30
0.0
 40
1.6000000000000001
 50
90.0
 51
180.0
  0
LINE
  5
E37B
  8
MSM_CONTINUOUS
 10
1.7819900000002951
 20
39.852889999999981
 30
0.0
 11
2.1530685032695969
 21
38.831703963658022
 31
0.0
  0
ARC
  5
E37C
  8
MSM_CONTINUOUS
 10
0.8300000000003002
 20
38.90000999999998
 30
0.0
 40
0.3
 50
90.0
 51
180.0
  0
LINE
  5
E37D
  8
MSM_CONTINUOUS
 10
0.2000000000003048
 20
39.500019999999957
 30
0.0
 11
0.6999800000002985
 21
39.500019999999957
 31
0.0
  0
ARC
  5
E37E
  8
MSM_CONTINUOUS
 10
0.2000000000003048
 20
39.700019999999952
 30
0.0
 40
0.2
 50
180.0
 51
270.0
  0
LINE
  5
E37F
  8
MSM_CONTINUOUS
 10
1.4500000000003039
 20
39.20000999999997
 30
0.0
 11
1.4500000000003039
 21
38.900009999999952
 31
0.0
  0
LINE
  5
E380
  8
MSM_CONTINUOUS
 10
1.4500000000003039
 20
38.900009999999952
 30
0.0
 11
0.8300000000003002
 21
38.900009999999952
 31
0.0
  0
LINE
  5
E381
  8
MSM_CONTINUOUS
 10
0.6999800000002985
 20
39.500019999999957
 30
0.0
 11
1.074010000000303
 21
39.874049999999947
 31
0.0
  0
ARC
  5
E382
  8
MSM_CONTINUOUS
 10
1.498000000000306
 20
39.450009999999963
 30
0.0
 40
0.5996477636496274
 50
87.195158751940596
 51
135.0
  0
ARC
  5
E383
  8
MSM_CONTINUOUS
 10
1.5000000000002871
 20
39.750019999999957
 30
0.0
 40
0.300167378828003
 50
19.970128454660951
 51
94.462604831869228
  0
LINE
  5
E384
  8
MSM_CONTINUOUS
 10
0.8300000000003002
 20
39.20000999999997
 30
0.0
 11
1.4500000000003039
 21
39.20000999999997
 31
0.0
  0
LINE
  5
E385
  8
MSM_CONTINUOUS
 10
2.3410426647898852
 20
38.70000999999997
 30
0.0
 11
3.877752802483716
 21
38.70000999999997
 31
0.0
  0
ARC
  5
E386
  8
MSM_CONTINUOUS
 10
2.3410426647898852
 20
38.900009999999952
 30
0.0
 40
0.2
 50
199.97012845466091
 51
270.0
  0
LINE
  5
E387
  8
MSM_CONTINUOUS
 10
0.5300000000002889
 20
71.903989999909044
 30
0.0
 11
0.5300000000002889
 21
68.099989999999963
 31
0.0
  0
LINE
  5
E388
  8
MSM_CONTINUOUS
 10
0.8300000000003002
 20
71.780030000181739
 30
0.0
 11
0.8300000000003002
 21
68.099989999999963
 31
0.0
  0
ARC
  5
E389
  8
MSM_CONTINUOUS
 10
1.6000000000003101
 20
65.099999999999937
 30
0.0
 40
1.6000000000000001
 50
180.0
 51
270.0
  0
LINE
  5
E38A
  8
MSM_CONTINUOUS
 10
0.6999800000002985
 20
67.499979999999965
 30
0.0
 11
1.074010000000303
 21
67.12594999999996
 31
0.0
  0
ARC
  5
E38B
  8
MSM_CONTINUOUS
 10
0.2000000000003048
 20
67.299979999999934
 30
0.0
 40
0.2
 50
90.0
 51
180.0
  0
LINE
  5
E38C
  8
MSM_CONTINUOUS
 10
1.7819900000002951
 20
67.147109999999998
 30
0.0
 11
2.1530685032695969
 21
68.168296036341886
 31
0.0
  0
ARC
  5
E38D
  8
MSM_CONTINUOUS
 10
1.5000000000002871
 20
67.249979999999965
 30
0.0
 40
0.300167378828003
 50
265.53739516813079
 51
340.02987154533901
  0
ARC
  5
E38E
  8
MSM_CONTINUOUS
 10
1.498000000000306
 20
67.549989999999966
 30
0.0
 40
0.5996477636496274
 50
225.0
 51
272.80484124805929
  0
ARC
  5
E38F
  8
MSM_CONTINUOUS
 10
0.8300000000003002
 20
68.099989999999963
 30
0.0
 40
0.3
 50
180.0
 51
270.0
  0
LINE
  5
E390
  8
MSM_CONTINUOUS
 10
0.2000000000003048
 20
67.499979999999965
 30
0.0
 11
0.6999800000002985
 21
67.499979999999965
 31
0.0
  0
LINE
  5
E391
  8
MSM_CONTINUOUS
 10
0.8300000000003002
 20
67.79998999999998
 30
0.0
 11
1.4500000000003039
 21
67.79998999999998
 31
0.0
  0
LINE
  5
E392
  8
MSM_CONTINUOUS
 10
1.4500000000003039
 20
68.099989999999963
 30
0.0
 11
0.8300000000003002
 21
68.099989999999963
 31
0.0
  0
LINE
  5
E393
  8
MSM_CONTINUOUS
 10
1.4500000000003039
 20
67.79998999999998
 30
0.0
 11
1.4500000000003039
 21
68.099989999999963
 31
0.0
  0
LINE
  5
E394
  8
MSM_CONTINUOUS
 10
2.3410426647898852
 20
68.29998999999998
 30
0.0
 11
3.877752802483716
 21
68.29998999999998
 31
0.0
  0
ARC
  5
E395
  8
MSM_CONTINUOUS
 10
2.3410426647898852
 20
68.099989999999963
 30
0.0
 40
0.2
 50
90.0
 51
160.0298715453383
  0
ARC
  5
E396
  8
MSM_CONTINUOUS
 10
1.6000000000003101
 20
75.399999999999949
 30
0.0
 40
1.6000000000000001
 50
90.0
 51
180.0
  0
ARC
  5
E397
  8
MSM_CONTINUOUS
 10
2.1592600575982059
 20
73.399999999999977
 30
0.0
 40
0.2
 50
184.98704955943691
 51
270.0
  0
LINE
  5
E398
  8
MSM_CONTINUOUS
 10
1.9300000000002939
 20
73.726989999999972
 30
0.0
 11
1.9300000000002939
 21
72.880040000181793
 31
0.0
  0
LINE
  5
E399
  8
MSM_CONTINUOUS
 10
1.5785521177861059
 20
74.243427980540162
 30
0.0
 11
1.629967965905994
 21
73.003947966196833
 31
0.0
  0
LINE
  5
E39A
  8
MSM_CONTINUOUS
 10
1.881388827657563
 20
74.283685801579324
 30
0.0
 11
1.960017183144604
 21
73.38261388543998
 31
0.0
  0
LINE
  5
E39B
  8
MSM_CONTINUOUS
 10
1.629967965905994
 20
73.003947966196833
 30
0.0
 11
0.5300000000002889
 21
71.903989999909044
 31
0.0
  0
LINE
  5
E39C
  8
MSM_CONTINUOUS
 10
1.9300000000002939
 20
72.880040000181793
 30
0.0
 11
0.8300000000003002
 21
71.780030000181739
 31
0.0
  0
LINE
  5
E39D
  8
MSM_CONTINUOUS
 10
0.2000000000003048
 20
74.29998999999998
 30
0.0
 11
0.7800268357267193
 21
74.29998999999998
 31
0.0
  0
ARC
  5
E39E
  8
MSM_CONTINUOUS
 10
0.2000000000003048
 20
74.499989999999997
 30
0.0
 40
0.2
 50
180.0
 51
270.0
  0
LINE
  5
E39F
  8
MSM_CONTINUOUS
 10
0.7797475286710985
 20
74.299658197203541
 30
0.0
 11
1.000765938911403
 21
74.562217001580962
 31
0.0
  0
ARC
  5
E3A0
  8
MSM_CONTINUOUS
 10
1.378723969913298
 20
74.235138751523039
 30
0.0
 40
0.2
 50
2.3753695833455861
 51
139.9922252867982
  0
ARC
  5
E3A1
  8
MSM_CONTINUOUS
 10
1.3832816415237259
 20
74.240220515179317
 30
0.0
 40
0.5
 50
4.9870495594369197
 51
139.90978604336419
  0
LINE
  5
E3A2
  8
MSM_CONTINUOUS
 10
1.04600079170061
 20
73.68398094349277
 30
0.0
 11
0.8164057302103095
 21
73.876659506987977
 31
0.0
  0
LINE
  5
E3A3
  8
MSM_CONTINUOUS
 10
1.238974312105998
 20
73.913953221567311
 30
0.0
 11
1.010001882057
 21
74.106928413825301
 31
0.0
  0
LINE
  5
E3A4
  8
MSM_CONTINUOUS
 10
1.04600079170061
 20
73.68398094349277
 30
0.0
 11
1.238974312105998
 21
73.913953221567311
 31
0.0
  0
ARC
  5
E3A5
  8
MSM_CONTINUOUS
 10
1.009256950238498
 20
74.106460305362589
 30
0.0
 40
0.3
 50
139.90978604336419
 51
229.99627585835461
  0
LINE
  5
E3A6
  8
MSM_CONTINUOUS
 10
1.010001882057
 20
74.106928413825301
 30
0.0
 11
1.2255325272286119
 21
74.363717061856278
 31
0.0
  0
LINE
  5
E3A7
  8
MSM_CONTINUOUS
 10
2.1592600575980931
 20
73.199999999999989
 30
0.0
 11
3.8777449555652801
 21
73.19999999999996
 31
0.0
  0
LINE
  5
E3A8
  8
MSM_CONTINUOUS
 10
14.000000000000281
 20
75.399999999999949
 30
0.0
 11
14.000000000000281
 21
31.599999999999969
 31
0.0
  0
LINE
  5
E3A9
  8
MSM_CONTINUOUS
 10
13.47000000000029
 20
35.096010000090892
 30
0.0
 11
13.47000000000029
 21
38.90000999999998
 31
0.0
  0
LINE
  5
E3AA
  8
MSM_CONTINUOUS
 10
13.1700000000003
 20
35.219969999818147
 30
0.0
 11
13.1700000000003
 21
38.900009999999952
 31
0.0
  0
ARC
  5
E3AB
  8
MSM_CONTINUOUS
 10
12.40000000000029
 20
31.599999999999969
 30
0.0
 40
1.6000000000000001
 50
270.0
 51
0.0
  0
LINE
  5
E3AC
  8
MSM_CONTINUOUS
 10
12.070000000000309
 20
34.11995999981815
 30
0.0
 11
13.1700000000003
 21
35.219969999818147
 31
0.0
  0
LINE
  5
E3AD
  8
MSM_CONTINUOUS
 10
12.37003203409461
 20
33.996052033803068
 30
0.0
 11
13.47000000000029
 21
35.096010000090892
 31
0.0
  0
LINE
  5
E3AE
  8
MSM_CONTINUOUS
 10
13.800000000000299
 20
32.70000999999997
 30
0.0
 11
13.21997316427391
 21
32.70000999999997
 31
0.0
  0
LINE
  5
E3AF
  8
MSM_CONTINUOUS
 10
13.2202524713295
 20
32.700341802796387
 30
0.0
 11
12.999234061089201
 21
32.437782998418982
 31
0.0
  0
ARC
  5
E3B0
  8
MSM_CONTINUOUS
 10
12.61671835847679
 20
32.759779484820569
 30
0.0
 40
0.5
 50
184.98704955943691
 51
319.90978604336419
  0
ARC
  5
E3B1
  8
MSM_CONTINUOUS
 10
11.840739942402401
 20
33.599999999999973
 30
0.0
 40
0.2
 50
4.9870495594369197
 51
90.0
  0
LINE
  5
E3B2
  8
MSM_CONTINUOUS
 10
12.118611172343011
 20
32.716314198420577
 30
0.0
 11
12.039982816856
 21
33.617386114559942
 31
0.0
  0
LINE
  5
E3B3
  8
MSM_CONTINUOUS
 10
12.070000000000309
 20
33.273009999999971
 30
0.0
 11
12.070000000000309
 21
34.11995999981815
 31
0.0
  0
ARC
  5
E3B4
  8
MSM_CONTINUOUS
 10
12.99074304976199
 20
32.893539694637333
 30
0.0
 40
0.3
 50
319.90978604336419
 51
49.99627585835465
  0
LINE
  5
E3B5
  8
MSM_CONTINUOUS
 10
12.95399920829991
 20
33.316019056507137
 30
0.0
 11
13.183594269790291
 21
33.12334049301198
 31
0.0
  0
ARC
  5
E3B6
  8
MSM_CONTINUOUS
 10
12.6212760300873
 20
32.764861248476912
 30
0.0
 40
0.2
 50
182.37536958334479
 51
319.9922252867982
  0
LINE
  5
E3B7
  8
MSM_CONTINUOUS
 10
12.98999811794352
 20
32.893071586174642
 30
0.0
 11
12.7744674727721
 21
32.636282938143623
 31
0.0
  0
LINE
  5
E3B8
  8
MSM_CONTINUOUS
 10
12.76102568789463
 20
33.086046778432589
 30
0.0
 11
12.98999811794352
 21
32.893071586174642
 31
0.0
  0
LINE
  5
E3B9
  8
MSM_CONTINUOUS
 10
12.95399920829991
 20
33.316019056507137
 30
0.0
 11
12.76102568789463
 21
33.086046778432589
 31
0.0
  0
LINE
  5
E3BA
  8
MSM_CONTINUOUS
 10
12.421447882214411
 20
32.756572019459732
 30
0.0
 11
12.37003203409461
 21
33.996052033803068
 31
0.0
  0
ARC
  5
E3BB
  8
MSM_CONTINUOUS
 10
13.800000000000299
 20
32.500009999999961
 30
0.0
 40
0.2
 50
0.0
 51
90.0
  0
ARC
  5
E3BC
  8
MSM_CONTINUOUS
 10
12.40000000000029
 20
41.89999999999997
 30
0.0
 40
1.6000000000000001
 50
0.0
 51
90.0
  0
LINE
  5
E3BD
  8
MSM_CONTINUOUS
 10
13.800000000000299
 20
39.500019999999957
 30
0.0
 11
13.3000200000003
 21
39.500019999999957
 31
0.0
  0
ARC
  5
E3BE
  8
MSM_CONTINUOUS
 10
12.50000000000029
 20
39.750019999999957
 30
0.0
 40
0.300167378828003
 50
85.537395168130772
 51
160.02987154533901
  0
ARC
  5
E3BF
  8
MSM_CONTINUOUS
 10
11.658957335210721
 20
38.900009999999952
 30
0.0
 40
0.2
 50
270.0
 51
340.02987154533832
  0
LINE
  5
E3C0
  8
MSM_CONTINUOUS
 10
12.21801000000031
 20
39.852889999999981
 30
0.0
 11
11.846931496731029
 21
38.831703963658022
 31
0.0
  0
ARC
  5
E3C1
  8
MSM_CONTINUOUS
 10
13.1700000000003
 20
38.90000999999998
 30
0.0
 40
0.3
 50
0.0
 51
90.0
  0
LINE
  5
E3C2
  8
MSM_CONTINUOUS
 10
13.1700000000003
 20
39.20000999999997
 30
0.0
 11
12.550000000000299
 21
39.20000999999997
 31
0.0
  0
ARC
  5
E3C3
  8
MSM_CONTINUOUS
 10
12.50200000000029
 20
39.450009999999963
 30
0.0
 40
0.5996477636496274
 50
45.0
 51
92.80484124805939
  0
LINE
  5
E3C4
  8
MSM_CONTINUOUS
 10
13.3000200000003
 20
39.500019999999957
 30
0.0
 11
12.925990000000301
 21
39.874049999999947
 31
0.0
  0
LINE
  5
E3C5
  8
MSM_CONTINUOUS
 10
12.550000000000299
 20
38.900009999999952
 30
0.0
 11
13.1700000000003
 21
38.900009999999952
 31
0.0
  0
LINE
  5
E3C6
  8
MSM_CONTINUOUS
 10
12.550000000000299
 20
39.20000999999997
 30
0.0
 11
12.550000000000299
 21
38.900009999999952
 31
0.0
  0
ARC
  5
E3C7
  8
MSM_CONTINUOUS
 10
13.800000000000299
 20
39.700019999999952
 30
0.0
 40
0.2
 50
270.0
 51
0.0
  0
LINE
  5
E3C8
  8
MSM_CONTINUOUS
 10
13.1700000000003
 20
71.780030000181739
 30
0.0
 11
13.1700000000003
 21
68.099989999999963
 31
0.0
  0
LINE
  5
E3C9
  8
MSM_CONTINUOUS
 10
13.47000000000029
 20
71.903989999909044
 30
0.0
 11
13.47000000000029
 21
68.099989999999963
 31
0.0
  0
ARC
  5
E3CA
  8
MSM_CONTINUOUS
 10
12.40000000000029
 20
65.099999999999937
 30
0.0
 40
1.6000000000000001
 50
270.0
 51
0.0
  0
LINE
  5
E3CB
  8
MSM_CONTINUOUS
 10
13.3000200000003
 20
67.499979999999965
 30
0.0
 11
12.925990000000301
 21
67.12594999999996
 31
0.0
  0
ARC
  5
E3CC
  8
MSM_CONTINUOUS
 10
13.800000000000299
 20
67.299979999999934
 30
0.0
 40
0.2
 50
0.0
 51
90.0
  0
LINE
  5
E3CD
  8
MSM_CONTINUOUS
 10
12.21801000000031
 20
67.147109999999998
 30
0.0
 11
11.846931496731029
 21
68.168296036341886
 31
0.0
  0
ARC
  5
E3CE
  8
MSM_CONTINUOUS
 10
12.50000000000029
 20
67.249979999999965
 30
0.0
 40
0.300167378828003
 50
199.97012845466091
 51
274.46260483186921
  0
ARC
  5
E3CF
  8
MSM_CONTINUOUS
 10
12.50200000000029
 20
67.549989999999966
 30
0.0
 40
0.5996477636496274
 50
267.19515875194048
 51
315.0
  0
LINE
  5
E3D0
  8
MSM_CONTINUOUS
 10
13.800000000000299
 20
67.499979999999965
 30
0.0
 11
13.3000200000003
 21
67.499979999999965
 31
0.0
  0
ARC
  5
E3D1
  8
MSM_CONTINUOUS
 10
11.658957335210721
 20
68.099989999999963
 30
0.0
 40
0.2
 50
19.970128454661719
 51
90.0
  0
LINE
  5
E3D2
  8
MSM_CONTINUOUS
 10
12.550000000000299
 20
67.79998999999998
 30
0.0
 11
12.550000000000299
 21
68.099989999999963
 31
0.0
  0
LINE
  5
E3D3
  8
MSM_CONTINUOUS
 10
12.550000000000299
 20
68.099989999999963
 30
0.0
 11
13.1700000000003
 21
68.099989999999963
 31
0.0
  0
LINE
  5
E3D4
  8
MSM_CONTINUOUS
 10
13.1700000000003
 20
67.79998999999998
 30
0.0
 11
12.550000000000299
 21
67.79998999999998
 31
0.0
  0
ARC
  5
E3D5
  8
MSM_CONTINUOUS
 10
13.1700000000003
 20
68.099989999999963
 30
0.0
 40
0.3
 50
270.0
 51
0.0
  0
ARC
  5
E3D6
  8
MSM_CONTINUOUS
 10
12.40000000000029
 20
75.399999999999949
 30
0.0
 40
1.6000000000000001
 50
0.0
 51
90.0
  0
LINE
  5
E3D7
  8
MSM_CONTINUOUS
 10
13.800000000000299
 20
74.29998999999998
 30
0.0
 11
13.21997316427391
 21
74.29998999999998
 31
0.0
  0
LINE
  5
E3D8
  8
MSM_CONTINUOUS
 10
12.070000000000309
 20
73.726989999999972
 30
0.0
 11
12.070000000000309
 21
72.880040000181793
 31
0.0
  0
LINE
  5
E3D9
  8
MSM_CONTINUOUS
 10
12.421447882214411
 20
74.243427980540162
 30
0.0
 11
12.37003203409461
 21
73.003947966196833
 31
0.0
  0
LINE
  5
E3DA
  8
MSM_CONTINUOUS
 10
12.118611172343011
 20
74.283685801579324
 30
0.0
 11
12.039982816856
 21
73.38261388543998
 31
0.0
  0
LINE
  5
E3DB
  8
MSM_CONTINUOUS
 10
12.070000000000309
 20
72.880040000181793
 30
0.0
 11
13.1700000000003
 21
71.780030000181739
 31
0.0
  0
ARC
  5
E3DC
  8
MSM_CONTINUOUS
 10
11.840739942402401
 20
73.399999999999977
 30
0.0
 40
0.2
 50
270.0
 51
355.01295044056309
  0
LINE
  5
E3DD
  8
MSM_CONTINUOUS
 10
12.37003203409461
 20
73.003947966196833
 30
0.0
 11
13.47000000000029
 21
71.903989999909044
 31
0.0
  0
ARC
  5
E3DE
  8
MSM_CONTINUOUS
 10
12.61671835847679
 20
74.240220515179317
 30
0.0
 40
0.5
 50
40.090213956635779
 51
175.01295044056221
  0
ARC
  5
E3DF
  8
MSM_CONTINUOUS
 10
12.6212760300873
 20
74.235138751523039
 30
0.0
 40
0.2
 50
40.007774713201719
 51
177.62463041665441
  0
LINE
  5
E3E0
  8
MSM_CONTINUOUS
 10
13.2202524713295
 20
74.299658197203541
 30
0.0
 11
12.999234061089201
 21
74.562217001580962
 31
0.0
  0
LINE
  5
E3E1
  8
MSM_CONTINUOUS
 10
12.95399920829991
 20
73.68398094349277
 30
0.0
 11
12.76102568789463
 21
73.913953221567311
 31
0.0
  0
LINE
  5
E3E2
  8
MSM_CONTINUOUS
 10
12.76102568789463
 20
73.913953221567311
 30
0.0
 11
12.98999811794352
 21
74.106928413825301
 31
0.0
  0
LINE
  5
E3E3
  8
MSM_CONTINUOUS
 10
12.95399920829991
 20
73.68398094349277
 30
0.0
 11
13.183594269790291
 21
73.876659506987977
 31
0.0
  0
LINE
  5
E3E4
  8
MSM_CONTINUOUS
 10
12.98999811794352
 20
74.106928413825301
 30
0.0
 11
12.7744674727721
 21
74.363717061856278
 31
0.0
  0
ARC
  5
E3E5
  8
MSM_CONTINUOUS
 10
12.99074304976199
 20
74.106460305362589
 30
0.0
 40
0.3
 50
310.00372414164542
 51
40.090213956635779
  0
ARC
  5
E3E6
  8
MSM_CONTINUOUS
 10
13.800000000000299
 20
74.499989999999997
 30
0.0
 40
0.2
 50
270.0
 51
0.0
  0
ARC
  5
E3E7
  8
MSM_CONTINUOUS
 10
36.6000000000002
 20
75.399999999999949
 30
0.0
 40
1.6000000000000001
 50
90.0
 51
180.0
  0
ARC
  5
E3E8
  8
MSM_CONTINUOUS
 10
47.400000000000169
 20
75.399999999999949
 30
0.0
 40
1.6000000000000001
 50
0.0
 51
90.0
  0
LINE
  5
E3E9
  8
MSM_CONTINUOUS
 10
36.930000000000177
 20
33.273009999999971
 30
0.0
 11
36.930000000000177
 21
34.11995999981815
 31
0.0
  0
LINE
  5
E3EA
  8
MSM_CONTINUOUS
 10
36.578552117786103
 20
32.756572019459732
 30
0.0
 11
36.629967965905792
 21
33.996052033803068
 31
0.0
  0
LINE
  5
E3EB
  8
MSM_CONTINUOUS
 10
47.070000000000192
 20
33.273009999999971
 30
0.0
 11
47.070000000000192
 21
34.11995999981815
 31
0.0
  0
LINE
  5
E3EC
  8
MSM_CONTINUOUS
 10
47.421447882214302
 20
32.756572019459732
 30
0.0
 11
47.370032034094493
 21
33.996052033803068
 31
0.0
  0
LINE
  5
E3ED
  8
MSM_CONTINUOUS
 10
35.000000000000199
 20
75.399999999999949
 30
0.0
 11
35.000000000000199
 21
31.599999999999969
 31
0.0
  0
CIRCLE
  5
E3EE
  8
MSM_CONTINUOUS
 10
42.000000000000192
 20
36.249999999999972
 30
0.0
 40
3.96875
  0
LINE
  5
E3F0
  8
MSM_CONTINUOUS
 10
47.400000000000169
 20
29.999999999999961
 30
0.0
 11
36.6000000000002
 21
29.999999999999961
 31
0.0
  0
LINE
  5
E3F1
  8
MSM_CONTINUOUS
 10
46.840739942402308
 20
33.79999999999994
 30
0.0
 11
45.1222550444352
 21
33.799999999999947
 31
0.0
  0
ARC
  5
E3F2
  8
MSM_CONTINUOUS
 10
46.840739942402308
 20
33.599999999999973
 30
0.0
 40
0.2
 50
4.9870495594377324
 51
90.0
  0
LINE
  5
E3F3
  8
MSM_CONTINUOUS
 10
47.118611172342888
 20
32.716314198420577
 30
0.0
 11
47.039982816855911
 21
33.617386114559942
 31
0.0
  0
ARC
  5
E3F4
  8
MSM_CONTINUOUS
 10
47.400000000000169
 20
31.599999999999969
 30
0.0
 40
1.6000000000000001
 50
270.0
 51
0.0
  0
LINE
  5
E3F5
  8
MSM_CONTINUOUS
 10
48.220252471329452
 20
32.700341802796387
 30
0.0
 11
47.999234061089112
 21
32.437782998418982
 31
0.0
  0
ARC
  5
E3F6
  8
MSM_CONTINUOUS
 10
48.800000000000182
 20
32.500009999999961
 30
0.0
 40
0.2
 50
0.0
 51
90.0
  0
LINE
  5
E3F7
  8
MSM_CONTINUOUS
 10
48.800000000000182
 20
32.70000999999997
 30
0.0
 11
48.219973164273711
 21
32.70000999999997
 31
0.0
  0
LINE
  5
E3F8
  8
MSM_CONTINUOUS
 10
47.953999208299763
 20
33.316019056507137
 30
0.0
 11
47.761025687894417
 21
33.086046778432589
 31
0.0
  0
LINE
  5
E3F9
  8
MSM_CONTINUOUS
 10
47.761025687894417
 20
33.086046778432589
 30
0.0
 11
47.989998117943401
 21
32.893071586174642
 31
0.0
  0
LINE
  5
E3FA
  8
MSM_CONTINUOUS
 10
47.989998117943401
 20
32.893071586174642
 30
0.0
 11
47.774467472771903
 21
32.636282938143623
 31
0.0
  0
ARC
  5
E3FB
  8
MSM_CONTINUOUS
 10
47.621276030087209
 20
32.764861248476912
 30
0.0
 40
0.2
 50
182.37536958334479
 51
319.9922252867982
  0
LINE
  5
E3FC
  8
MSM_CONTINUOUS
 10
47.953999208299763
 20
33.316019056507137
 30
0.0
 11
48.183594269790177
 21
33.12334049301198
 31
0.0
  0
ARC
  5
E3FD
  8
MSM_CONTINUOUS
 10
47.990743049761988
 20
32.893539694637333
 30
0.0
 40
0.3
 50
319.90978604336419
 51
49.99627585835465
  0
ARC
  5
E3FE
  8
MSM_CONTINUOUS
 10
47.616718358476703
 20
32.759779484820569
 30
0.0
 40
0.5
 50
184.98704955943691
 51
319.90978604336419
  0
LINE
  5
E401
  8
MSM_CONTINUOUS
 10
35.200000000000223
 20
32.70000999999997
 30
0.0
 11
35.78002683572663
 21
32.70000999999997
 31
0.0
  0
ARC
  5
E402
  8
MSM_CONTINUOUS
 10
36.009256950238381
 20
32.893539694637333
 30
0.0
 40
0.3
 50
130.00372414164531
 51
220.09021395663581
  0
ARC
  5
E403
  8
MSM_CONTINUOUS
 10
35.200000000000223
 20
32.500009999999961
 30
0.0
 40
0.2
 50
90.0
 51
180.0
  0
ARC
  5
E404
  8
MSM_CONTINUOUS
 10
36.383281641523581
 20
32.759779484820569
 30
0.0
 40
0.5
 50
220.09021395663581
 51
355.01295044056309
  0
ARC
  5
E405
  8
MSM_CONTINUOUS
 10
37.159260057597983
 20
33.599999999999973
 30
0.0
 40
0.2
 50
90.0
 51
175.012950440563
  0
LINE
  5
E406
  8
MSM_CONTINUOUS
 10
36.88138882765751
 20
32.716314198420577
 30
0.0
 11
36.960017183144487
 21
33.617386114559942
 31
0.0
  0
ARC
  5
E407
  8
MSM_CONTINUOUS
 10
36.37872396991321
 20
32.764861248476912
 30
0.0
 40
0.2
 50
220.00777471320171
 51
357.62463041665529
  0
LINE
  5
E408
  8
MSM_CONTINUOUS
 10
36.010001882056997
 20
32.893071586174642
 30
0.0
 11
36.225532527228381
 21
32.636282938143623
 31
0.0
  0
LINE
  5
E409
  8
MSM_CONTINUOUS
 10
36.238974312105881
 20
33.086046778432589
 30
0.0
 11
36.010001882056997
 21
32.893071586174642
 31
0.0
  0
LINE
  5
E40A
  8
MSM_CONTINUOUS
 10
36.046000791700578
 20
33.316019056507137
 30
0.0
 11
36.238974312105881
 21
33.086046778432589
 31
0.0
  0
LINE
  5
E40B
  8
MSM_CONTINUOUS
 10
37.159260057597983
 20
33.79999999999994
 30
0.0
 11
38.877744955565113
 21
33.799999999999947
 31
0.0
  0
ARC
  5
E40C
  8
MSM_CONTINUOUS
 10
36.6000000000002
 20
31.599999999999969
 30
0.0
 40
1.6000000000000001
 50
180.0
 51
270.0
  0
LINE
  5
E40D
  8
MSM_CONTINUOUS
 10
35.77974752867101
 20
32.700341802796387
 30
0.0
 11
36.000765938911201
 21
32.437782998418982
 31
0.0
  0
LINE
  5
E40E
  8
MSM_CONTINUOUS
 10
36.046000791700578
 20
33.316019056507137
 30
0.0
 11
35.816405730210192
 21
33.12334049301198
 31
0.0
  0
LINE
  5
E40F
  8
MSM_CONTINUOUS
 10
47.400000000000169
 20
43.499999999999957
 30
0.0
 11
36.6000000000002
 21
43.499999999999957
 31
0.0
  0
LINE
  5
E410
  8
MSM_CONTINUOUS
 10
47.218010000000163
 20
39.852889999999981
 30
0.0
 11
46.846931496730889
 21
38.831703963658022
 31
0.0
  0
LINE
  5
E411
  8
MSM_CONTINUOUS
 10
47.550000000000182
 20
39.20000999999997
 30
0.0
 11
47.550000000000182
 21
38.900009999999952
 31
0.0
  0
ARC
  5
E412
  8
MSM_CONTINUOUS
 10
48.170000000000179
 20
38.90000999999998
 30
0.0
 40
0.3
 50
0.0
 51
90.0
  0
LINE
  5
E413
  8
MSM_CONTINUOUS
 10
46.658957335210602
 20
38.70000999999997
 30
0.0
 11
45.122247197516678
 21
38.70000999999997
 31
0.0
  0
ARC
  5
E414
  8
MSM_CONTINUOUS
 10
46.658957335210602
 20
38.900009999999952
 30
0.0
 40
0.2
 50
270.0
 51
340.02987154533901
  0
LINE
  5
E415
  8
MSM_CONTINUOUS
 10
47.550000000000182
 20
38.900009999999952
 30
0.0
 11
48.170000000000179
 21
38.900009999999952
 31
0.0
  0
LINE
  5
E416
  8
MSM_CONTINUOUS
 10
48.170000000000179
 20
35.219969999818147
 30
0.0
 11
48.170000000000179
 21
38.900009999999952
 31
0.0
  0
LINE
  5
E417
  8
MSM_CONTINUOUS
 10
48.470000000000191
 20
35.096010000090892
 30
0.0
 11
48.470000000000191
 21
38.90000999999998
 31
0.0
  0
LINE
  5
E418
  8
MSM_CONTINUOUS
 10
47.370032034094493
 20
33.996052033803068
 30
0.0
 11
48.470000000000191
 21
35.096010000090892
 31
0.0
  0
LINE
  5
E419
  8
MSM_CONTINUOUS
 10
47.070000000000192
 20
34.11995999981815
 30
0.0
 11
48.170000000000179
 21
35.219969999818147
 31
0.0
  0
ARC
  5
E41A
  8
MSM_CONTINUOUS
 10
47.400000000000169
 20
41.89999999999997
 30
0.0
 40
1.6000000000000001
 50
0.0
 51
90.0
  0
LINE
  5
E41B
  8
MSM_CONTINUOUS
 10
48.800000000000182
 20
39.500019999999957
 30
0.0
 11
48.30002000000021
 21
39.500019999999957
 31
0.0
  0
ARC
  5
E41C
  8
MSM_CONTINUOUS
 10
48.800000000000182
 20
39.700019999999952
 30
0.0
 40
0.2
 50
270.0
 51
0.0
  0
LINE
  5
E41D
  8
MSM_CONTINUOUS
 10
48.30002000000021
 20
39.500019999999957
 30
0.0
 11
47.925990000000183
 21
39.874049999999947
 31
0.0
  0
LINE
  5
E41E
  8
MSM_CONTINUOUS
 10
48.170000000000179
 20
39.20000999999997
 30
0.0
 11
47.550000000000182
 21
39.20000999999997
 31
0.0
  0
ARC
  5
E41F
  8
MSM_CONTINUOUS
 10
47.50200000000018
 20
39.450009999999963
 30
0.0
 40
0.5996477636496274
 50
45.0
 51
92.80484124805939
  0
ARC
  5
E420
  8
MSM_CONTINUOUS
 10
47.500000000000199
 20
39.750019999999957
 30
0.0
 40
0.300167378828003
 50
85.537395168130772
 51
160.02987154533901
  0
ARC
  5
E421
  8
MSM_CONTINUOUS
 10
35.830000000000211
 20
38.90000999999998
 30
0.0
 40
0.3
 50
90.0
 51
180.0
  0
LINE
  5
E422
  8
MSM_CONTINUOUS
 10
36.781990000000178
 20
39.852889999999981
 30
0.0
 11
37.153068503269509
 21
38.831703963658022
 31
0.0
  0
LINE
  5
E423
  8
MSM_CONTINUOUS
 10
36.450000000000223
 20
39.20000999999997
 30
0.0
 11
36.450000000000223
 21
38.900009999999952
 31
0.0
  0
LINE
  5
E424
  8
MSM_CONTINUOUS
 10
35.5300000000002
 20
35.096010000090892
 30
0.0
 11
35.5300000000002
 21
38.90000999999998
 31
0.0
  0
LINE
  5
E425
  8
MSM_CONTINUOUS
 10
35.830000000000211
 20
35.219969999818147
 30
0.0
 11
35.830000000000211
 21
38.900009999999952
 31
0.0
  0
ARC
  5
E426
  8
MSM_CONTINUOUS
 10
37.341042664789803
 20
38.900009999999952
 30
0.0
 40
0.2
 50
199.97012845466091
 51
270.0
  0
LINE
  5
E427
  8
MSM_CONTINUOUS
 10
37.341042664789803
 20
38.70000999999997
 30
0.0
 11
38.877752802483599
 21
38.70000999999997
 31
0.0
  0
LINE
  5
E428
  8
MSM_CONTINUOUS
 10
36.450000000000223
 20
38.900009999999952
 30
0.0
 11
35.830000000000211
 21
38.900009999999952
 31
0.0
  0
LINE
  5
E429
  8
MSM_CONTINUOUS
 10
36.930000000000177
 20
34.11995999981815
 30
0.0
 11
35.830000000000211
 21
35.219969999818147
 31
0.0
  0
LINE
  5
E42A
  8
MSM_CONTINUOUS
 10
36.629967965905792
 20
33.996052033803068
 30
0.0
 11
35.5300000000002
 21
35.096010000090892
 31
0.0
  0
ARC
  5
E42B
  8
MSM_CONTINUOUS
 10
36.6000000000002
 20
41.89999999999997
 30
0.0
 40
1.6000000000000001
 50
90.0
 51
180.0
  0
LINE
  5
E42C
  8
MSM_CONTINUOUS
 10
35.200000000000223
 20
39.500019999999957
 30
0.0
 11
35.69998000000021
 21
39.500019999999957
 31
0.0
  0
ARC
  5
E42D
  8
MSM_CONTINUOUS
 10
35.200000000000223
 20
39.700019999999952
 30
0.0
 40
0.2
 50
180.0
 51
270.0
  0
LINE
  5
E42E
  8
MSM_CONTINUOUS
 10
35.830000000000211
 20
39.20000999999997
 30
0.0
 11
36.450000000000223
 21
39.20000999999997
 31
0.0
  0
LINE
  5
E42F
  8
MSM_CONTINUOUS
 10
35.69998000000021
 20
39.500019999999957
 30
0.0
 11
36.074010000000222
 21
39.874049999999947
 31
0.0
  0
ARC
  5
E430
  8
MSM_CONTINUOUS
 10
36.500000000000199
 20
39.750019999999957
 30
0.0
 40
0.300167378828003
 50
19.970128454660951
 51
94.462604831869228
  0
ARC
  5
E431
  8
MSM_CONTINUOUS
 10
36.498000000000218
 20
39.450009999999963
 30
0.0
 40
0.5996477636496274
 50
87.195158751940596
 51
135.0
  0
LINE
  5
E432
  8
MSM_CONTINUOUS
 10
47.400000000000169
 20
63.499999999999972
 30
0.0
 11
36.6000000000002
 21
63.499999999999972
 31
0.0
  0
ARC
  5
E433
  8
MSM_CONTINUOUS
 10
47.400000000000169
 20
65.099999999999937
 30
0.0
 40
1.6000000000000001
 50
270.0
 51
0.0
  0
ARC
  5
E434
  8
MSM_CONTINUOUS
 10
36.6000000000002
 20
65.099999999999937
 30
0.0
 40
1.6000000000000001
 50
180.0
 51
270.0
  0
CIRCLE
  5
E435
  8
MSM_CONTINUOUS
 10
42.000000000000192
 20
70.749999999999943
 30
0.0
 40
3.96875
  0
LINE
  5
E436
  8
MSM_CONTINUOUS
 10
48.470000000000191
 20
71.903989999909044
 30
0.0
 11
48.470000000000191
 21
68.099989999999963
 31
0.0
  0
LINE
  5
E437
  8
MSM_CONTINUOUS
 10
48.170000000000179
 20
71.780030000181739
 30
0.0
 11
48.170000000000179
 21
68.099989999999963
 31
0.0
  0
LINE
  5
E438
  8
MSM_CONTINUOUS
 10
46.658957335210602
 20
68.29998999999998
 30
0.0
 11
45.122247197516678
 21
68.29998999999998
 31
0.0
  0
LINE
  5
E439
  8
MSM_CONTINUOUS
 10
47.218010000000163
 20
67.147109999999998
 30
0.0
 11
46.846931496730889
 21
68.168296036341886
 31
0.0
  0
ARC
  5
E43A
  8
MSM_CONTINUOUS
 10
46.658957335210602
 20
68.099989999999963
 30
0.0
 40
0.2
 50
19.970128454661719
 51
90.0
  0
LINE
  5
E43B
  8
MSM_CONTINUOUS
 10
48.30002000000021
 20
67.499979999999965
 30
0.0
 11
47.925990000000183
 21
67.12594999999996
 31
0.0
  0
ARC
  5
E43C
  8
MSM_CONTINUOUS
 10
48.800000000000182
 20
67.299979999999934
 30
0.0
 40
0.2
 50
0.0
 51
90.0
  0
ARC
  5
E43D
  8
MSM_CONTINUOUS
 10
47.50200000000018
 20
67.549989999999966
 30
0.0
 40
0.5996477636496274
 50
267.19515875194048
 51
315.0
  0
ARC
  5
E43E
  8
MSM_CONTINUOUS
 10
48.170000000000179
 20
68.099989999999963
 30
0.0
 40
0.3
 50
270.0
 51
0.0
  0
LINE
  5
E43F
  8
MSM_CONTINUOUS
 10
48.800000000000182
 20
67.499979999999965
 30
0.0
 11
48.30002000000021
 21
67.499979999999965
 31
0.0
  0
LINE
  5
E440
  8
MSM_CONTINUOUS
 10
48.170000000000179
 20
67.79998999999998
 30
0.0
 11
47.550000000000182
 21
67.79998999999998
 31
0.0
  0
LINE
  5
E441
  8
MSM_CONTINUOUS
 10
47.550000000000182
 20
68.099989999999963
 30
0.0
 11
48.170000000000179
 21
68.099989999999963
 31
0.0
  0
LINE
  5
E442
  8
MSM_CONTINUOUS
 10
47.550000000000182
 20
67.79998999999998
 30
0.0
 11
47.550000000000182
 21
68.099989999999963
 31
0.0
  0
ARC
  5
E443
  8
MSM_CONTINUOUS
 10
47.500000000000199
 20
67.249979999999965
 30
0.0
 40
0.300167378828003
 50
199.97012845466091
 51
274.46260483186921
  0
LINE
  5
E444
  8
MSM_CONTINUOUS
 10
46.840739942402308
 20
73.199999999999989
 30
0.0
 11
45.1222550444352
 21
73.19999999999996
 31
0.0
  0
ARC
  5
E445
  8
MSM_CONTINUOUS
 10
46.840739942402308
 20
73.399999999999977
 30
0.0
 40
0.2
 50
270.0
 51
355.01295044056309
  0
LINE
  5
E446
  8
MSM_CONTINUOUS
 10
47.070000000000192
 20
73.726989999999972
 30
0.0
 11
47.070000000000192
 21
72.880040000181793
 31
0.0
  0
LINE
  5
E447
  8
MSM_CONTINUOUS
 10
47.118611172342888
 20
74.283685801579324
 30
0.0
 11
47.039982816855911
 21
73.38261388543998
 31
0.0
  0
LINE
  5
E448
  8
MSM_CONTINUOUS
 10
47.421447882214302
 20
74.243427980540162
 30
0.0
 11
47.370032034094493
 21
73.003947966196833
 31
0.0
  0
LINE
  5
E449
  8
MSM_CONTINUOUS
 10
47.370032034094493
 20
73.003947966196833
 30
0.0
 11
48.470000000000191
 21
71.903989999909044
 31
0.0
  0
LINE
  5
E44A
  8
MSM_CONTINUOUS
 10
48.800000000000182
 20
74.29998999999998
 30
0.0
 11
48.219973164273711
 21
74.29998999999998
 31
0.0
  0
ARC
  5
E44B
  8
MSM_CONTINUOUS
 10
48.800000000000182
 20
74.499989999999997
 30
0.0
 40
0.2
 50
270.0
 51
0.0
  0
LINE
  5
E44C
  8
MSM_CONTINUOUS
 10
48.220252471329452
 20
74.299658197203541
 30
0.0
 11
47.999234061089112
 21
74.562217001580962
 31
0.0
  0
ARC
  5
E44D
  8
MSM_CONTINUOUS
 10
47.621276030087209
 20
74.235138751523039
 30
0.0
 40
0.2
 50
40.007774713201719
 51
177.62463041665441
  0
LINE
  5
E44E
  8
MSM_CONTINUOUS
 10
47.953999208299763
 20
73.68398094349277
 30
0.0
 11
48.183594269790177
 21
73.876659506987977
 31
0.0
  0
LINE
  5
E44F
  8
MSM_CONTINUOUS
 10
47.761025687894417
 20
73.913953221567311
 30
0.0
 11
47.989998117943401
 21
74.106928413825301
 31
0.0
  0
LINE
  5
E450
  8
MSM_CONTINUOUS
 10
47.953999208299763
 20
73.68398094349277
 30
0.0
 11
47.761025687894417
 21
73.913953221567311
 31
0.0
  0
ARC
  5
E451
  8
MSM_CONTINUOUS
 10
47.990743049761988
 20
74.106460305362589
 30
0.0
 40
0.3
 50
310.00372414164542
 51
40.090213956635779
  0
LINE
  5
E452
  8
MSM_CONTINUOUS
 10
47.989998117943401
 20
74.106928413825301
 30
0.0
 11
47.774467472771903
 21
74.363717061856278
 31
0.0
  0
LINE
  5
E453
  8
MSM_CONTINUOUS
 10
47.070000000000192
 20
72.880040000181793
 30
0.0
 11
48.170000000000179
 21
71.780030000181739
 31
0.0
  0
ARC
  5
E454
  8
MSM_CONTINUOUS
 10
47.616718358476703
 20
74.240220515179317
 30
0.0
 40
0.5
 50
40.090213956635779
 51
175.012950440563
  0
LINE
  5
E455
  8
MSM_CONTINUOUS
 10
35.830000000000211
 20
71.780030000181739
 30
0.0
 11
35.830000000000211
 21
68.099989999999963
 31
0.0
  0
LINE
  5
E456
  8
MSM_CONTINUOUS
 10
35.5300000000002
 20
71.903989999909044
 30
0.0
 11
35.5300000000002
 21
68.099989999999963
 31
0.0
  0
ARC
  5
E457
  8
MSM_CONTINUOUS
 10
35.200000000000223
 20
67.299979999999934
 30
0.0
 40
0.2
 50
90.0
 51
180.0
  0
LINE
  5
E458
  8
MSM_CONTINUOUS
 10
35.200000000000223
 20
67.499979999999965
 30
0.0
 11
35.69998000000021
 21
67.499979999999965
 31
0.0
  0
ARC
  5
E459
  8
MSM_CONTINUOUS
 10
35.830000000000211
 20
68.099989999999963
 30
0.0
 40
0.3
 50
180.0
 51
270.0
  0
LINE
  5
E45A
  8
MSM_CONTINUOUS
 10
36.781990000000178
 20
67.147109999999998
 30
0.0
 11
37.153068503269509
 21
68.168296036341886
 31
0.0
  0
ARC
  5
E45B
  8
MSM_CONTINUOUS
 10
36.500000000000199
 20
67.249979999999965
 30
0.0
 40
0.300167378828003
 50
265.53739516813079
 51
340.02987154533901
  0
ARC
  5
E45C
  8
MSM_CONTINUOUS
 10
36.498000000000218
 20
67.549989999999966
 30
0.0
 40
0.5996477636496274
 50
225.0
 51
272.80484124805929
  0
ARC
  5
E45D
  8
MSM_CONTINUOUS
 10
37.341042664789803
 20
68.099989999999963
 30
0.0
 40
0.2
 50
90.0
 51
160.0298715453383
  0
LINE
  5
E45E
  8
MSM_CONTINUOUS
 10
36.450000000000223
 20
67.79998999999998
 30
0.0
 11
36.450000000000223
 21
68.099989999999963
 31
0.0
  0
LINE
  5
E45F
  8
MSM_CONTINUOUS
 10
37.341042664789803
 20
68.29998999999998
 30
0.0
 11
38.877752802483599
 21
68.29998999999998
 31
0.0
  0
LINE
  5
E460
  8
MSM_CONTINUOUS
 10
35.69998000000021
 20
67.499979999999965
 30
0.0
 11
36.074010000000222
 21
67.12594999999996
 31
0.0
  0
LINE
  5
E461
  8
MSM_CONTINUOUS
 10
36.450000000000223
 20
68.099989999999963
 30
0.0
 11
35.830000000000211
 21
68.099989999999963
 31
0.0
  0
LINE
  5
E462
  8
MSM_CONTINUOUS
 10
35.830000000000211
 20
67.79998999999998
 30
0.0
 11
36.450000000000223
 21
67.79998999999998
 31
0.0
  0
LINE
  5
E463
  8
MSM_CONTINUOUS
 10
35.200000000000223
 20
74.29998999999998
 30
0.0
 11
35.78002683572663
 21
74.29998999999998
 31
0.0
  0
ARC
  5
E464
  8
MSM_CONTINUOUS
 10
36.009256950238381
 20
74.106460305362589
 30
0.0
 40
0.3
 50
139.90978604336419
 51
229.99627585835461
  0
ARC
  5
E465
  8
MSM_CONTINUOUS
 10
35.200000000000223
 20
74.499989999999997
 30
0.0
 40
0.2
 50
180.0
 51
270.0
  0
LINE
  5
E466
  8
MSM_CONTINUOUS
 10
36.930000000000177
 20
73.726989999999972
 30
0.0
 11
36.930000000000177
 21
72.880040000181793
 31
0.0
  0
LINE
  5
E467
  8
MSM_CONTINUOUS
 10
36.578552117786103
 20
74.243427980540162
 30
0.0
 11
36.629967965905792
 21
73.003947966196833
 31
0.0
  0
LINE
  5
E468
  8
MSM_CONTINUOUS
 10
36.88138882765751
 20
74.283685801579324
 30
0.0
 11
36.960017183144487
 21
73.38261388543998
 31
0.0
  0
ARC
  5
E469
  8
MSM_CONTINUOUS
 10
37.159260057597983
 20
73.399999999999977
 30
0.0
 40
0.2
 50
184.98704955943691
 51
270.0
  0
ARC
  5
E46A
  8
MSM_CONTINUOUS
 10
36.383281641523581
 20
74.240220515179317
 30
0.0
 40
0.5
 50
4.9870495594377324
 51
139.90978604336419
  0
ARC
  5
E46B
  8
MSM_CONTINUOUS
 10
36.37872396991321
 20
74.235138751523039
 30
0.0
 40
0.2
 50
2.3753695833455861
 51
139.9922252867982
  0
LINE
  5
E46C
  8
MSM_CONTINUOUS
 10
36.046000791700578
 20
73.68398094349277
 30
0.0
 11
36.238974312105881
 21
73.913953221567311
 31
0.0
  0
LINE
  5
E46D
  8
MSM_CONTINUOUS
 10
36.238974312105881
 20
73.913953221567311
 30
0.0
 11
36.010001882056997
 21
74.106928413825301
 31
0.0
  0
LINE
  5
E46E
  8
MSM_CONTINUOUS
 10
36.010001882056997
 20
74.106928413825301
 30
0.0
 11
36.225532527228381
 21
74.363717061856278
 31
0.0
  0
LINE
  5
E46F
  8
MSM_CONTINUOUS
 10
37.159260057597983
 20
73.199999999999989
 30
0.0
 11
38.877744955565113
 21
73.19999999999996
 31
0.0
  0
LINE
  5
E470
  8
MSM_CONTINUOUS
 10
36.930000000000177
 20
72.880040000181793
 30
0.0
 11
35.830000000000211
 21
71.780030000181739
 31
0.0
  0
LINE
  5
E471
  8
MSM_CONTINUOUS
 10
36.629967965905792
 20
73.003947966196833
 30
0.0
 11
35.5300000000002
 21
71.903989999909044
 31
0.0
  0
LINE
  5
E472
  8
MSM_CONTINUOUS
 10
35.77974752867101
 20
74.299658197203541
 30
0.0
 11
36.000765938911201
 21
74.562217001580962
 31
0.0
  0
LINE
  5
E473
  8
MSM_CONTINUOUS
 10
36.046000791700578
 20
73.68398094349277
 30
0.0
 11
35.816405730210192
 21
73.876659506987977
 31
0.0
  0
LINE
  5
E474
  8
MSM_CONTINUOUS
 10
47.400000000000169
 20
76.999999999999943
 30
0.0
 11
36.6000000000002
 21
76.999999999999943
 31
0.0
  0
LINE
  5
E475
  8
MSM_CONTINUOUS
 10
14.000000000000281
 20
32.999999999999993
 30
0.0
 11
35.000000000000199
 21
32.999999999999993
 31
0.0
  0
ENDSEC
  0
EOF
